<svg xmlns="http://www.w3.org/2000/svg" viewBox="-2 -2 292 304"><svg xmlns="http://www.w3.org/2000/svg"><defs><clipPath id="a"><path fill="none" d="M0 0h299.991v299.991H0z"/></clipPath></defs><g fill="none" stroke-miterlimit="10" clip-path="url(#a)" font-family="none" font-size="none" font-weight="none" style="mix-blend-mode:normal" text-anchor="none"><path fill="#000" d="M29.03 0h241.782c1.173.527 2.47.627 3.606 1.085 4.673 1.883 8.572 5.414 10.499 10.122a19.1 19.1 0 0 1 1.36 6.296c.13 2.849.044 6.372.044 9.257v16.716l-.001 51.201-.005 47.905.006 15.148c.008 4.89.482 10.655-1.42 15.176a18.58 18.58 0 0 1-10.253 10c-3.996 1.585-8.695 1.226-12.955 1.222l-11.977-.009-36.966-.001h-29.724l-8.918.013c-1.337.007-3.35.123-4.6.026l-.075 2.577c5.964 3.387 12.187 6.46 18.214 9.757 3.268 1.789 6.792 3.717 10.171 5.23 2.663 1.192 7.002-2.416 9.698-3.534a33.2 33.2 0 0 1 28.271 1.326 32.89 32.89 0 0 1 16.116 19.524 33 33 0 0 1-2.554 25.385 33.22 33.22 0 0 1-20.077 16.05 32.42 32.42 0 0 1-24.727-2.752 32.8 32.8 0 0 1-15.92-19.642 35 35 0 0 1-1.047-4.97c-.493-3.806.56-6.762-3.545-8.879-4.856-2.504-9.645-5.29-14.552-7.694l-.02 10.778c-.02 10.629-.65 7.758 7.527 13.816 12.828 9.506 16.247 29.359 7.692 42.806-4.724 7.428-11.065 12.442-19.516 14.886-1.188.33-3.968.723-4.92 1.179h-7.556c-.89-.387-4.003-.89-5.28-1.245a32.85 32.85 0 0 1-14.42-8.518 32.83 32.83 0 0 1-9.615-23.635 33.05 33.05 0 0 1 12.144-25.28c2.01-1.635 6.353-3.729 7.523-6.029.227-.448.256-3.74.248-4.415-.115-9.408.184-18.898-.054-28.299-1.912-1.19-5.36-2.889-7.407-3.977l-14.316-7.605c-3.805-2.019-8.864-4.893-12.85-6.664-.673-.3-5.186-.23-6.194-.226l-8.984.018-41.514-.004-13.333.01c-2.728.001-5.421.054-8.141-.107-9.205-.546-16.695-8.49-16.797-17.694a810 810 0 0 1-.035-9.228l.01-17.243v-51.7l-.004-46.852-.005-15.18c0-6.562-.724-13.083 3.493-18.628 2.505-3.294 5.482-5.606 9.521-6.718.699-.192 1.588-.467 2.24-.734zm128.221 273.29a6.39 6.39 0 0 0-1.623-12.678 6.391 6.391 0 1 0 1.623 12.678m64.16-38.298a6.391 6.391 0 1 0-2.19-12.593 6.391 6.391 0 0 0 2.19 12.593"/><path fill="#c0e1fe" d="m22.496 39.178 81.972-.02 25.807-.001c2.72 0 10-.192 12.438.083l.353-.03c.4.59.194 3.57.195 4.488l.011 9.035-.006 27.53c0 3.017-.013 6.036.008 9.053.01 1.401.094 2.865 1.138 3.92.897.907 1.967 1.383 3.235 1.475.126.69.07 1.38.05 2.085l-.082.21c.14 2.144-.137 6.12.153 7.9-4.287 3.094-4.587 6.516-4.48 11.466.045 2.159.004 4.483.005 6.66l-.003 21.933c-3.247-.167-8.384.006-11.747.008l-23.696.002H54.144c-10.516 0-21.165.077-31.673-.058z"/><path fill="#9dc8ea" d="m22.496 39.178 81.972-.02 25.807-.001c2.72 0 10-.192 12.438.083-3.032.249-9.031.073-12.232.07h-23.099l-73.84.001c.255 2.012.094 7.979.088 10.255l-.004 19.287v49.07c0 8.84-.145 18.09.056 26.881 11.56.128 23.34.012 34.912.013h67.441c-.134-1.19-.075-3.413-.076-4.69v-8.576l-.01-11.966c-.001-3.01-.124-6.928.426-9.818a17.14 17.14 0 0 1 3.386-7.423c1.744-2.21 4.974-4.656 7.715-5.305l.14-.034c.14 2.145-.138 6.121.152 7.9-4.287 3.095-4.587 6.517-4.48 11.467.045 2.159.004 4.483.005 6.66l-.003 21.933c-3.247-.167-8.384.006-11.747.008l-23.696.002H54.144c-10.516 0-21.165.077-31.673-.058z"/><path fill="#000" d="M69.978 66.859c.935-.02 1.866.03 2.778.247.865.21 1.705.511 2.505.901 1.453.72 3.322 1.886 4.77 2.734l8.666 5.076 7.901 4.62c1.597.933 3.13 1.846 4.687 2.848 3.755 2.414 5.448 7.051 4.33 11.421a10.17 10.17 0 0 1-2.652 4.713c-2.043 2.07-12.196 7.645-15.303 9.485-4.024 2.278-11.982 7.803-16.175 8.309-2.752.331-5.58-.587-7.726-2.31-2.333-1.874-3.574-4.315-3.859-7.272-.204-2.127-.135-4.29-.13-6.424l.006-9.183-.015-9.406c-.003-2.3-.126-4.851.27-7.108.89-5.09 4.925-8.212 9.947-8.651"/><path fill="#c0e1fe" d="M69.72 75.739c.246-.025.493-.048.74-.044.395.007.745.146 1.093.319 3.453 1.712 6.798 3.94 10.131 5.895 4.504 2.64 9.145 5.166 13.553 7.957.58.367 1.363.87 1.782 1.414.217.282.138 1.074.025 1.393-.427 1.202-8.796 5.684-10.472 6.664-2.157 1.24-15.064 9.315-16.36 9.131-.511-.072-1.02-.412-1.304-.837-.286-.427-.274-1.136-.295-1.632-.27-6.196-.048-12.496-.048-18.702 0-2.44-.307-8.344.165-10.422.135-.596.516-.819.99-1.136"/><path fill="#f47c7c" d="M152.064 39.222c8.505-.189 17.498-.05 26.032-.05h47.72l34.12.003c5.356 0 12.38-.2 17.6.046v105.766c-10.017-.152-20.345-.031-30.38-.031l-70.295-.014q-3.672.026-7.343-.023c.04-11.814.115-20.836-5.245-31.745-3.653-7.432-7.602-12.66-16.505-8.268-.29-1.78-.012-5.756-.153-7.9l.082-.21c.02-.706.076-1.395-.05-2.085 5.39-.617 4.427-5.349 4.427-9.406l-.004-10.778z"/><path fill="#ec5468" d="M147.697 96.796c17.407-4.308 23.543 11.372 27.415 25 2.036 7.163 1.82 15.727 1.749 23.146q-3.672.026-7.343-.023c.04-11.814.115-20.836-5.245-31.745-3.653-7.432-7.602-12.66-16.505-8.268-.29-1.78-.012-5.756-.153-7.9z"/><path fill="#fee07e" d="m22.476 30.365.006-7.738c-.002-4.207-.457-7.79 2.731-11.053 3.413-3.494 8.74-2.814 13.395-2.76 6.017-.099 12.22-.025 18.247-.023l32.418.003 99.104-.001h71.527c2.924 0 6.072-.048 8.975.08 2.022.089 4.333 1.123 5.762 2.57 2.633 2.668 2.9 5.138 2.919 8.676l-.035 10.236-163.3.005H60.852c-8.922 0-18.11-.111-27.013.003z"/><path fill="#fed065" d="m22.476 30.365.006-7.738c-.002-4.207-.457-7.79 2.731-11.053 3.413-3.494 8.74-2.814 13.395-2.76-.619.11-.899.159-1.52.18-3.838 4.748-3.548 9.06-3.447 14.88.028 1.604-.186 5.077.198 6.49z"/><path fill="#000" d="M45.46 15.256c1.407-.091 2.836-.068 4.247-.088 2.795-.04 6.173-.198 7.194 3.069a4.43 4.43 0 0 1-.434 3.57c-.687 1.165-1.573 1.727-2.854 2.04-.706.1-1.754.171-2.467.151-3.179-.089-8.32.9-9.4-3.216a4.5 4.5 0 0 1 .523-3.5c.824-1.314 1.748-1.73 3.19-2.026M131.7 15.257c2.111-.13 7.575-.37 9.399.515a3.93 3.93 0 0 1 2.088 2.47 4.5 4.5 0 0 1-.434 3.535c-.725 1.219-1.548 1.723-2.866 2.076-2.076.25-7.976.447-9.792-.48a3.94 3.94 0 0 1-2.05-2.528 4.5 4.5 0 0 1 .53-3.599c.823-1.28 1.713-1.683 3.125-1.99M74.119 15.266c2.042-.12 4.106-.099 6.152-.096 2.385.003 4.67.567 5.41 3.16a4.5 4.5 0 0 1-.49 3.54c-.706 1.172-1.58 1.662-2.857 1.985-2.133.265-7.966.454-9.842-.534a3.88 3.88 0 0 1-1.983-2.524c-.696-2.76.939-4.914 3.61-5.531M160.38 15.265c2.065-.152 7.812-.387 9.546.54a4.1 4.1 0 0 1 2.058 2.63 4.46 4.46 0 0 1-.484 3.38c-.7 1.176-1.603 1.723-2.894 2.042-2.07.248-7.995.458-9.786-.504a4.06 4.06 0 0 1-2.036-2.586 4.46 4.46 0 0 1 .555-3.542c.801-1.235 1.677-1.643 3.04-1.96M102.988 15.258c2.491-.16 5.528-.187 8.027.075 1.59.168 2.959 1.433 3.414 2.988a4.5 4.5 0 0 1-.48 3.561c-.722 1.196-1.6 1.654-2.895 1.98-.676.084-1.622.152-2.3.134-3.135-.082-8.57.896-9.512-3.29a4.55 4.55 0 0 1 .65-3.568c.849-1.24 1.695-1.599 3.096-1.88M218.027 15.258c2.382-.164 5.202-.14 7.597.017 1.707.112 3.293 1.197 3.813 2.902a4.6 4.6 0 0 1-.412 3.597c-.698 1.198-1.557 1.736-2.859 2.08-.688.09-1.708.163-2.402.143-3.233-.097-8.535.932-9.501-3.365a4.45 4.45 0 0 1 .65-3.478c.838-1.238 1.721-1.627 3.114-1.896M189.246 15.267c.674-.06 1.572-.1 2.247-.076 3.125.114 7.948-.915 9.176 2.99a4.57 4.57 0 0 1-.413 3.632c-.725 1.233-1.598 1.719-2.925 2.051-.746.09-1.758.158-2.508.136-3.219-.092-8.291.898-9.302-3.329a4.48 4.48 0 0 1 .64-3.54c.82-1.2 1.72-1.616 3.085-1.864M246.693 15.268c1.909-.15 7.684-.345 9.303.426a4.1 4.1 0 0 1 2.189 2.504 4.49 4.49 0 0 1-.408 3.621c-.691 1.177-1.604 1.719-2.888 2.04-2.064.247-8.01.458-9.788-.508a4.1 4.1 0 0 1-2.04-2.58 4.42 4.42 0 0 1 .557-3.545c.803-1.236 1.698-1.666 3.075-1.958"/><path fill="#857e86" d="M152.565 112.2c.249-.019.813-.078.974.104 2.622 3.193 4.367 8.139 5.552 12 1.862 6.072 1.614 12.35 1.61 18.602l-.005 15.912-.001 53.583-.005 14.292c0 3.07-.15 6.803.343 9.758.523 3.127 2.732 6.37 5.33 8.149 1.372.937 2.887 1.774 4.27 2.75a23.93 23.93 0 0 1 9.651 15.49 24.03 24.03 0 0 1-4.24 18.158c-3.941 5.47-9.58 8.82-16.197 9.905-6.264.66-11.762-.3-17.034-3.904a24.18 24.18 0 0 1-10.265-15.833 24.14 24.14 0 0 1 8.23-22.711c1.948-1.626 3.68-2.448 5.68-3.854a13.07 13.07 0 0 0 5.51-9.158c.245-2.085.141-5.931.14-8.13l-.01-14.473.001-66.423-.004-21.357c-.005-3.804-.038-7.661.036-11.465.012-.635.085-.891.434-1.396m4.686 161.09a6.39 6.39 0 0 0-1.623-12.678 6.391 6.391 0 1 0 1.623 12.678"/><path fill="#000" d="M155.763 251.742c8.361-.354 15.442 6.107 15.85 14.466.41 8.36-6.005 15.481-14.362 15.944-8.433.47-15.636-6.019-16.049-14.455s6.122-15.597 14.56-15.955m1.488 21.548a6.39 6.39 0 0 0-1.623-12.678 6.391 6.391 0 1 0 1.623 12.678"/><path fill="#fee07e" d="m135.867 153.765 7.45.027c-.207 6.831-.015 14.615-.031 21.538l-78.568-.003-22.825.002c-2.55.001-9.031.162-11.203-.101a9.26 9.26 0 0 1-5.418-2.662c-3.25-3.246-2.804-6.778-2.798-11.027l.027-7.745c3.659-.086 7.58-.02 11.26-.02h67.681c11.379 0 23.066.137 34.425-.01"/><path fill="#fed065" d="m135.867 153.765 7.45.027c-.207 6.831-.015 14.615-.031 21.538l-78.568-.003-22.825.002c-2.55.001-9.031.162-11.203-.101a9.26 9.26 0 0 1-5.418-2.662c-3.25-3.246-2.804-6.778-2.798-11.027l.027-7.745c3.659-.086 7.58-.02 11.26-.02-.162.928-.19 2.201-.147 3.184.197 4.381-.493 9.17.787 13.406.515 1.705 1.669 3.245 2.494 4.767 4.483.167 9.463.038 14 .038l25.67.004 38.578.002c6.89-.002 13.945.073 20.825-.024q-.06-7.26-.02-14.52c.002-1.492.095-5.585-.081-6.866"/><path fill="#000" d="M74.552 160.154c3.553-.042 9.903-1.1 11.137 3.12a4.4 4.4 0 0 1-.378 3.324c-.776 1.417-1.795 1.912-3.25 2.3-3.665.142-10.961 1.252-11.647-3.694a4.45 4.45 0 0 1 .863-3.33c.9-1.176 1.87-1.557 3.275-1.72M45.68 160.16c3.403-.045 9.816-1.037 11.181 2.829a4.38 4.38 0 0 1-.2 3.369c-.757 1.528-1.756 2.065-3.262 2.53-3.677.23-10.975 1.14-11.73-3.608a4.45 4.45 0 0 1 .797-3.344c.857-1.17 1.834-1.591 3.214-1.776M103.274 160.157c3.38-.044 9.672-1.022 11.067 2.764a4.44 4.44 0 0 1-.218 3.551c-.748 1.455-1.766 1.988-3.227 2.422-2.445.14-8.13.471-9.987-.84a4.18 4.18 0 0 1-1.735-2.852 4.42 4.42 0 0 1 .858-3.338c.885-1.15 1.86-1.54 3.242-1.707"/><path fill="#fee07e" d="M169.516 153.791c2.47-.034 4.98-.016 7.453-.019l66.12.001c11.43 0 23.051-.11 34.468.018a547 547 0 0 0-.012 7.436c.014 4.322.453 8.159-2.919 11.444-2.251 2.193-4.743 2.709-7.787 2.644l-.302-.007c-3.743.103-7.791.02-11.563.02l-21.708.002-63.756-.016z"/><path fill="#fed065" d="M169.516 153.791c2.47-.034 4.98-.016 7.453-.019-.233 1.96-.124 5.622-.124 7.695v13.677c7.977.122 16.151.034 24.14.034l43.533-.002 15.246-.01c1.16-.001 5.891-.082 6.773.142-3.743.103-7.791.02-11.563.02l-21.708.002-63.756-.016z"/><path fill="#000" d="M218.383 160.153c3.416-.04 9.84-1.043 11.061 2.973a4.55 4.55 0 0 1-.401 3.557c-.807 1.389-1.739 1.8-3.164 2.222-2.56.062-7.912.516-9.857-.805a4.2 4.2 0 0 1-1.805-2.759 4.43 4.43 0 0 1 .847-3.468c.927-1.202 1.887-1.546 3.32-1.72M247.093 160.156c3.398-.041 9.741-1.04 11.068 2.853a4.5 4.5 0 0 1-.309 3.586c-.778 1.424-1.786 1.905-3.24 2.313-2.612.06-8.022.528-9.996-.902a4.13 4.13 0 0 1-1.673-2.881c-.14-1.191.2-2.388.95-3.326.897-1.123 1.826-1.478 3.2-1.643M189.514 160.16c2.208-.03 4.4-.067 6.607-.026 5.698.108 6.66 7.113 1.018 8.767-2.47.123-8.098.453-9.951-.842a4.15 4.15 0 0 1-1.74-2.857 4.45 4.45 0 0 1 .864-3.338c.882-1.156 1.827-1.52 3.202-1.704"/><path fill="#857e86" d="M169.497 196.838c2.342 1.158 5.335 2.718 7.588 4.029 3.442 1.712 6.948 3.706 10.41 5.518 5.426 2.839 9.524 5.87 15.932 3.807 2.398-.772 4.502-2.421 6.77-3.49a24.2 24.2 0 0 1 20.608.156 24.02 24.02 0 0 1 12.438 14.016 24 24 0 0 1-1.222 18.578 24.07 24.07 0 0 1-14.093 12.135 24.44 24.44 0 0 1-18.763-1.371 24.21 24.21 0 0 1-11.88-14.006c-1.374-4.337-.79-6.128-1.491-10.009-1.17-6.47-5.648-8.724-10.84-11.484l-8.207-4.361c-2.419-1.194-4.773-2.578-7.222-3.778-.065-3.177-.018-6.545-.028-9.74m51.914 38.154a6.391 6.391 0 1 0-2.19-12.593 6.391 6.391 0 0 0 2.19 12.593"/><path fill="#615b63" d="M169.497 196.838c2.342 1.158 5.335 2.718 7.588 4.029-.72 1.466.085 8.046-.338 9.489-2.419-1.194-4.773-2.578-7.222-3.778-.065-3.177-.018-6.545-.028-9.74"/><path fill="#000" d="M219.385 213.497c8.394-.522 15.618 5.86 16.138 14.254.519 8.394-5.866 15.618-14.258 16.135-8.391.516-15.613-5.865-16.131-14.256-.52-8.39 5.86-15.613 14.251-16.133m2.026 21.495a6.391 6.391 0 1 0-2.19-12.593 6.391 6.391 0 0 0 2.19 12.593"/><path fill="#615b63" d="M127.392 184.18c1.622-.12 3.995-.054 5.666-.052l10.246.012-.035 8.443c-5.012-2.714-10.796-5.933-15.877-8.402"/></g></svg></svg>