<svg xmlns="http://www.w3.org/2000/svg" width="145.798" height="77.743" viewBox="0.376 0.425 145.798 77.743"><g fill="none"><path stroke="#1dd4ff" stroke-width="7.095" d="M32.454 73.984c0-22.911 18.574-41.486 41.484-41.486"/><path stroke="#1dd4ff" stroke-width="7.095" d="M114.096 73.984c0-22.911-18.574-41.486-41.484-41.486"/><g stroke="#a430ff" stroke-width="7.095"><path d="M45.708 74.03c0-15.661 12.697-28.359 28.358-28.359"/><path d="M100.842 74.03c0-15.661-12.697-28.359-28.358-28.359"/></g><g stroke="#3131ff" stroke-width="7.095"><path d="M38.836 74.03c0-19.458 15.773-35.232 35.23-35.232"/><path d="M107.714 74.03c0-19.458-15.773-35.232-35.23-35.232"/></g><g stroke="#0c4" stroke-width="7.095"><path d="M25.406 73.98c0-26.798 21.726-48.525 48.524-48.525"/><path d="M121.144 73.98c0-26.798-21.726-48.525-48.524-48.525"/></g><g stroke="#ffed12" stroke-width="7.095"><path d="M18.803 73.98c0-30.445 24.683-55.128 55.127-55.128"/><path d="M127.747 73.98c0-30.445-24.683-55.128-55.127-55.128"/></g><g stroke="#ff9f2c" stroke-width="7.095"><path d="M11.905 73.98c0-34.256 27.77-62.025 62.025-62.025"/><path d="M134.645 73.98c0-34.256-27.77-62.025-62.025-62.025"/></g><g stroke="#ff2929" stroke-width="8.277"><path d="M4.515 73.98c0-38.338 31.078-69.416 69.415-69.416"/><path d="M142.035 73.98c0-38.338-31.078-69.416-69.415-69.416"/></g></g></svg>