<svg xmlns="http://www.w3.org/2000/svg" width="132.343" height="135.431" viewBox="-0.015 -0.006 132.343 135.431"><path fill="#279afa" d="M81.602 34.632c.358 11.281 13.813 30.93 22.905 39.112 2.109 1.898 3.868 6.272 3.585 14.497-.13 3.665-.724 7.51-2.288 11.639 0 0-.621 3.746-4.516 10.585-6.76 11.868-29.214 21.417-26.45-3.456.827-7.448 4.44-15.16 6.637-18.37-1.46.78-8.684 5.204-11.745 1.644-3.918-4.556 9.94-15.7 9.94-15.7-3.672 1.598-8.67 2.776-10.282-.141-2.256-4.096 4.795-10.59 4.795-10.59-2.176-.11-6.017.145-6.799-1.938-.781-2.086 2.192-6.612 3.557-7.878-4.061-.314-6.156-2.033-6.24-3.797-.264-1.87 2.393-5.71 6.598-8.626-2.613-4.569-.149-9.768 1.95-10.93 2.011-1.113 4.005-.985 6.008.113.948.508 2.274 1.572 2.345 3.836"/><path fill="#0043a5" d="M81.602 34.632c.358 11.281 13.813 30.93 22.905 39.112 2.109 1.898 3.868 6.272 3.585 14.497-.13 3.665-.724 7.51-2.288 11.639-2.282 6.134-12.266 18.08-19.165 16.66-12.28-2.527 3.365-33.478 3.365-33.478-24.02 7.916-3.032-12.206-3.032-12.206-21.87 4.87-6.12-9.756-6.12-9.756-15.174.942-3.336-9.966-3.336-9.966-12.895-.097-6.21-9.527-6.21-9.527-2.614-4.568-.15-9.768 1.948-10.929 2.012-1.113 4.005-.986 6.008.115.943.511 2.269 1.575 2.34 3.839"/><path fill="#ffa600" d="M87.39 44.433c1.837-3.178 4.234-4.568 7.886-5.018 1.568-.179 2.688-.134 3.942.807 1.142.851-.443 3.157-5.572 4.054 5.51.512 8.44 1.143 8.887 3.293.337 1.679-2.06 2.576-3.763 2.328-3.874-.558-8.109-2.059-9.946 1.436-.47.894-.673 1.769-1.613 2.06-1.032.315-2.285-.337-2.421-1.434-.224-1.95.856-3.149.357-5.019-.178-.671-7.526-3.495-10.527-4.705 1.479-.357 3.427-1.635 4.882-2.06.99-.29 5.425 2.11 7.889 4.258"/><path fill="#ff0600" d="M94.11 21.892c.141-.844.377-1.726.707-2.664 1.925-5.45 5.898-8.687 11.413-10.513a41 41 0 0 1 2.663-.78c4.048-1.033 8.53-1.427 12.238.167a16.7 16.7 0 0 0-2.206-2.207c-11.812-9.859-26.348-4.87-39.49 3.334-10.064 6.283-35.647 23.592-42.569 22.31C14.156 14.79 6.094 17.436 4.301 21.027c-1.669 3.398 2.18 7.18 5.256 9.489-5.531.944-8.737.56-9.104 4.359-.338 3.48 4.615 3.974 8.077 4.87-3.077 1.282-5.692 3.31-4.504 5.815 1.154 2.438 7.052 2.952 10.642 1.924-1.923 3.59-4.613 11.925 3.737 8.93 7.755-2.782 12.18-7.05 18.72-12.308 10.129 10.51 25.13 15.256 32.437 12.434 12.792-4.936 20.405-16.665 24.831-30.002-.458-1.46-.564-2.97-.283-4.645"/><path fill="#0043a5" d="M106.229 8.714a41 41 0 0 1 2.663-.779c-5.302-4.367-12.505-3.619-19.144-.637-4.188 1.884-7.06 6.409-4.45 9.897 3.144 4.203 7.119 5.034 8.812 4.698.14-.844.377-1.726.708-2.664 1.924-5.451 5.898-8.688 11.41-10.515"/><path fill="#ffa600" d="M122.77 8.97a11 11 0 0 0-1.64-.87c-3.705-1.595-8.186-1.201-12.237-.168-.914.235-1.808.498-2.663.78-5.512 1.827-9.489 5.064-11.413 10.513a16 16 0 0 0-.707 2.664c-.282 1.674-.174 3.185.281 4.645.54 1.726 1.567 3.378 3.12 5.129 3.494 3.942 9.727 6.106 13.96 2.738-3.525-1.153-5.305-4.693-4.855-8.38 10.752-3.671 18.573 13.125 20.897 23.848C139.59 23.398 122.77 8.97 122.77 8.97M82.385 57.708c3.309-4.082 7.01-5.509 12.269-5.325 2.256.095 4.842.974 5.277 3.178.782 3.974-8.718 1.794-10.641 3.717 7.05-.897 13.646 3.114 13.798 6.255.096 2.448-3.49 3.177-5.843 2.45-5.352-1.659-11-4.727-14.378-.201-.865 1.161-1.346 2.35-2.74 2.55-1.526.212-3.155-.986-3.1-2.568.121-2.803 2.55-4.403 1.631-7.013-1.424-4.04-8.988-6.476-13.827-9.006 2.17-.174 5.479-1.317 7.15-2.855 1.792.643 7.404 5.229 10.404 8.818"/><path fill="#fff" d="M103.305 10.006c4.255 4.769-2.914 11.835-9.229 7.143-2.462-1.832-2.06-5.377-.67-6.96 2.275-2.588 7.373-3.014 9.9-.183"/><path fill="#272525" d="M101.759 12.62c.563 0 1.073.206 1.443.538s.598.79.598 1.297-.228.964-.598 1.297-.88.537-1.444.537a2.15 2.15 0 0 1-1.443-.538 1.74 1.74 0 0 1-.598-1.296c0-.507.228-.965.598-1.297s.88-.538 1.444-.538"/><path fill="#279afa" d="M78.472 33.018c-8.64 12.688-9.587 45.054-6.143 61.323.799 3.775-.77 9.992-7.671 18.807-3.07 3.925-6.806 7.675-11.831 10.956 0 0-3.685 3.624-13.44 8.02-16.932 7.631-49.254.145-26.302-24.979C19.96 99.624 30.103 94.04 35.09 92.272c-2.23-.31-13.708-1.235-14.225-7.597-.658-8.141 23.495-9.297 23.495-9.297-5.316-1.184-11.75-3.892-11.184-8.387.8-6.307 13.745-7.803 13.745-7.803-2.302-1.864-6.73-4.656-5.92-7.576.808-2.918 7.701-5.51 10.217-5.81-4.216-3.595-5.14-7.165-3.818-9.17 1.21-2.27 7.206-4.358 14.158-4.195.788-7.112 7.658-10.854 10.896-10.451 3.103.384 5.188 2.122 6.515 4.936.634 1.322 1.236 3.55-.496 6.096"/><path fill="#0043a5" d="M78.472 33.018c-8.64 12.688-9.587 45.054-6.143 61.323.799 3.775-.77 9.992-7.671 18.807-3.07 3.925-6.806 7.675-11.831 10.956-7.42 4.913-27.958 10.051-34.403 2.966-11.477-12.612 30.505-34.095 30.505-34.095-32.74-10.532 6.442-15.848 6.442-15.848-27.938-12.164 1.081-15.624 1.081-15.624-17.429-11.112 4.31-13.626 4.31-13.626-14.092-10.434.802-15.44.802-15.44.79-7.112 7.658-10.853 10.896-10.451 3.103.384 5.187 2.122 6.514 4.937.628 1.32 1.23 3.55-.502 6.095"/></svg>