<svg xmlns="http://www.w3.org/2000/svg" width="81.09" height="253.811" viewBox="0 0 81.09 253.811"><g stroke-miterlimit="10" data-paper-data="{&quot;isPaintingLayer&quot;:true}" style="mix-blend-mode:normal"><g data-paper-data="{&quot;origPos&quot;:null}"><path d="M25.59 44.111c.1 4.3.6 10.8-2.7 10.1-3.4-.9-1.5-5.3-1.7-9.6-.4-9.3-1.5-9.2-.5-18.5 3.2-15.4 14.3-21.9 14.9-18 .5 3.1-7.4 5-9.5 18.2-1.8 11.5-.6 13.6-.5 17.8" data-paper-data="{&quot;origPos&quot;:null}"/><path d="M27.99 35.011c-1 8.2-1 15.8-4.5 15.1-2.5-.5-.8-8.1.1-15.4 1-8.4 1.7-19 4.3-18.7 2.9-.1 1.1 10.5.1 19M57.59 37.111c.6 8.3 2.1 14.8-.6 15.2s-3.2-7.3-3.7-14.7c-.6-8.4-1.3-15.2.6-15.6 2.8-.6 3.1 6.7 3.7 15.1" data-paper-data="{&quot;origPos&quot;:null}"/><path d="M31.09 42.011c-.8 8.2-.6 15.8-4.1 15.2-2.6-.4-1-8.1-.3-15.4.8-8.4 1.1-15.2 3.2-15.3 2.9-.1 2 7.1 1.2 15.5" data-paper-data="{&quot;origPos&quot;:null}"/><path d="M36.39 43.111c0 8.3.9 15.8-2.6 15.5-2.6-.2-1.8-8-1.8-15.3 0-8.5-.3-15.2 1.7-15.5 2.9-.4 2.7 6.8 2.7 15.3M51.49 42.411c.6 8.3 2 15.7-1.5 15.7-2.6 0-2.3-7.8-2.9-15.2-.6-8.4-1.4-15.2.5-15.6 3-.6 3.3 6.7 3.9 15.1" data-paper-data="{&quot;origPos&quot;:null}"/></g><g data-paper-data="{&quot;origPos&quot;:null}"><path d="M28.69 5.011c-6.8 2.6 2.8 5.7.6 8-3.9 4.1-11.8-5-3.2-11.5 6.8-5.1 16.1 4.1 12.3 7.1-2.8 2.3-1.8-6.7-9.7-3.6"/><path d="M30.34 12.911c-3.3 2.35-6.95-4.6-1.85-8 6.5-4.3 9.8 3.1 7.1 5-1.8 1.3-1.8-3.5-4.3-.8-2.3 2.3 1.65 2.9-.95 3.8"/></g><path fill="#ebebeb" d="m49.39 253.81.7-9.7 12.6.6 8.1 2.3 6.3 6.8z"/><path fill="#7194cc" d="m50.79 245.511-5.1-50.4-6.3-62h25.6v112.4z"/><path fill="#ebebeb" d="m15.79 253.81.7-9.7 12.6.6 8.1 2.3 6.3 6.8z"/><path fill="#7194cc" d="M17.39 245.511v-112.4h24.8l-5.8 61.8-4.8 50.6z"/><g fill="#72471e"><path d="m77.79 136.011-6.1 2.4-6.6-27.1s2.3-4.2 5-3.9c2 .2 5.4 1 5.4 1z"/><path d="M74.69 158.211c-1.6 0-.7-8.8-2.2-9.2-1.1-.3.2 5.4-.2 6.3s-2.7-.9-2.7-.9-2-5.3-2.3-8c-.8-6.1 4.1-11.3 4.1-11.3l6.1.4s3.6 6.7 3.6 11c0 4-2.7 9.1-2.7 9.1s-2 2.6-3.7 2.6"/></g><path fill="#72471e" d="M71.59 112.01c-2.4.4-6.4-1.3-6.4-1.3s-6-46.9-.8-48.6c9.4-3.4 11.1 46.6 11.1 46.6s-1.5 2.9-3.9 3.3"/><path fill="#a789d6" d="M60.79 93.711s-6.8-32.9 1.9-35.1c7.6-2 16.2 29 16.2 29z"/><path fill="#b598e2" d="m15.09 136.011.7-76.2s11.4-5.7 23.3-5.9c12-.2 24.8 3.6 24.8 3.6l2.2 77.5z" data-paper-data="{&quot;origPos&quot;:null}"/><g fill="#72471e"><path d="M28.29 33.111c.8 2.4.3 4.7-1 5.1-1.4.5-3.2-1-4-3.4s-.3-4.7 1-5.1c1.4-.5 3.2 1.1 4 3.4M34.69 45.911l13.6 1.7-.1 9.1s4.9.9 4.8 3.7c-.1 4.5-18.9 6.9-22.8 0-1.5-3.4 3.9-5 3.9-5z" data-paper-data="{&quot;origPos&quot;:null}"/><path d="M59.79 30.91c0 12.8-7.9 19.6-14.7 19.9-11.8.2-19.4-9.5-19.4-22.3s2.2-22.4 17.2-23.1c11.4-.6 18.862 11.5 16.862 25.2z" data-paper-data="{&quot;origPos&quot;:null}"/></g><g data-paper-data="{&quot;origPos&quot;:null}"><path fill="#72471e" d="M5.59 114.511c-2-.2-5.2-2.2-5.2-2.2s4.6-50.6 16.5-50.3c9.3-.3-6 51.3-6 51.3s-3.2 1.4-5.3 1.2"/><path fill="#a789d6" d="M.59 88.611s9.4-29 15.2-28.2c13.7 1.8 3.2 36.9 3.2 36.9z"/></g><g data-paper-data="{&quot;origPos&quot;:null}"><path fill="none" stroke="#000" stroke-linecap="round" stroke-width="1.46" d="M34.09 24.411s2.9-.8 4.4-.8c1.7-.1 3.7.8 3.7.8M33.99 28.811s2.2-1.9 4.5-1.7c2.5.2 2.9 1.5 2.9 1.5"/><path d="M37.39 29.511c0-1.2.9-2.2 2.1-2.2s2.1 1 2.1 2.2-.9 2.2-2.1 2.2-2.1-1-2.1-2.2"/></g><path fill="#35210e" d="M51.59 15.511c-2.5-.5-15-.1-17.3 1-5.7 2.9-6.6 14.4-6.6 14.4l-2.6-.8s-3.5-24.9 17.9-24.7c11.4-.6 16.3 10.2 16.8 16.7 0-.1-.1-5-8.2-6.6" data-paper-data="{&quot;origPos&quot;:null}"/><g data-paper-data="{&quot;origPos&quot;:null}"><path fill="none" stroke="#000" stroke-linecap="round" stroke-width="1.46" d="M49.49 24.411s2.3-.8 4-.8c1.5.1 3.2.5 3.2.5M49.59 28.511s.5-1.3 2.9-1.5c2.3-.2 4.5 1.7 4.5 1.7"/><path d="M54.19 31.411c-1.2 0-2.1-1-2.1-2.2s.9-2.2 2.1-2.2 2.1 1 2.1 2.2-.9 2.2-2.1 2.2"/></g><g fill="none" stroke="#d20000" stroke-width="1.46" data-paper-data="{&quot;origPos&quot;:null}"><path d="M32.09 33.511v-8.4h10.6v8.4zM48.49 33.511v-8.4h10.9v8.4z"/><path stroke-linecap="round" d="m47.59 29.493-4.4.018" data-paper-data="{&quot;origPos&quot;:null}"/><path stroke-linecap="round" d="m26.39 29.511 4.9-.4"/></g><g data-paper-data="{&quot;origPos&quot;:null}"><g data-paper-data="{&quot;origPos&quot;:null}"><path d="M45.89 12.311c-.4 3.2-7.1 1.2-10.8 14.1-3.1 11-3.8 18.8-7.7 16.9-2.5-1.2.3-7.9 3.7-19.6 4.3-15.1 15.1-14.6 14.8-11.4"/><path d="M60.79 22.111c1.5 10 2 13.8-1.6 13.6-2.8-.2-.8-5.1-2.4-11.8-2.6-10.8-10.8-6-11.1-11.6-.4-3.2 13.3-2.5 15.1 9.8"/><path d="M40.79 14.311c-.4 4.5-6.9 1.7-10.4 7s-3.633 11-6 9.2c-2.433-1.5-2.358-3.385 2.533-12.267s13.967-6.133 13.867-3.933" data-paper-data="{&quot;origPos&quot;:null}"/><path d="M31.39 26.611c-1.8 2-6.6 5.9-8.3 2.8s4.2-2.4 5.8-5.4 1.4-8.1 4.4-7c2.2.7 1 6.4-1.9 9.6"/></g><g data-paper-data="{&quot;origPos&quot;:null}"><path d="M55.19 15.21c-2.1 1.3-3.9-1.8-5.3-4.3-1.6-3-3.2-4.4-1.2-5.9 2.5-1.7 3.7 1.2 5.2 3.5 2 3 3.7 5.2 1.3 6.7"/><path d="M49.59 14.411c-2.1 1.3-3.9-1.8-5.3-4.3-1.6-3-3.2-4.4-1.2-5.9 2.5-1.7 3.7 1.2 5.2 3.5 2 3.1 3.7 5.3 1.3 6.7"/><path d="M44.29 14.71c-2.1 1.3-3.9-1.8-5.3-4.3-1.6-3-3.2-4.4-1.2-5.9 2.5-1.7 3.7 1.2 5.2 3.5 2.1 3 3.7 5.2 1.3 6.7"/><path d="M40.99 14.411c-1.6 1.9-4.3-.5-6.3-2.5-2.4-2.3-4.5-3.2-3-5.3 1.9-2.4 3.9 0 6 1.7 2.9 2.4 5.2 4 3.3 6.1"/><path d="M37.99 15.811c-1 2.2-4.2.8-6.8-.6-3-1.5-5.2-1.8-4.3-4.2 1.1-2.8 3.7-1.1 6.3-.1 3.3 1.4 5.9 2.3 4.8 4.9"/><path d="M29.99 19.511c-3.3-.6-5.5-.2-5.4-2.7.2-3 3.3-2.1 6-1.9 3.7.3 6.4.4 6.1 3.2-.4 2.7-6.7 1.4-6.7 1.4" data-paper-data="{&quot;origPos&quot;:null}"/></g></g><g fill="#72471e"><path d="m1.99 139.211-1.8-27.7s3.3-1.2 5.3-1.6c2.7-.6 5.6 3.3 5.6 3.3l-2.6 27.7z"/><path d="M4.09 158.311s-3.4-4.8-4-8.8c-.6-4.3 2-11.3 2-11.3l6-1.1s5.6 4.7 5.7 10.7c0 2.7-1.1 8.2-1.1 8.2s-2 2-2.5 1.2 0-6.6-1.1-6.2c-1.4.5.7 9.2-.9 9.3-1.8.3-4.1-2-4.1-2"/></g><path d="M48.19 43.711c0 .7-2 2.2-3.7 2.2-1.8 0-3.5-1.9-3.5-2.7 0-.7 2.2 0 4 0s3.2-.2 3.2.5"/><path fill="none" stroke="#000" stroke-linecap="round" stroke-width="1.46" d="M45.49 32.411s2.3 1.9 2.2 3.5c0 .7-2.5 2.1-2.5 2.1"/></g></svg>