<svg xmlns="http://www.w3.org/2000/svg" width="72.026" height="173.897" viewBox="-0.101 -0.054 72.026 173.897"><path fill="#00a3a6" d="M4.673 23.73c-8.715 27.693-2.036 83.16 0 92.853s7.412 25.006 32.58 26.064c8.634.326 26.879-4.56 31.929-27.611 5.05-22.97.57-80.718-.978-88.537C66.657 18.679 58.92.353 36.602.353 16.809.435 7.442 14.933 4.673 23.73"/><path fill="#008994" d="M33.832 104.447c-16.208-9.448-26.39-1.059-29.403 11.159.081.407.162.733.244 1.059 2.036 9.692 7.412 25.005 32.58 26.064 8.634.326 26.879-4.561 31.929-27.612.733-3.258 1.222-7.168 1.629-11.566-8.96-11.403-29.73-9.53-36.979.896"/><path fill="#00d9f9" d="M10.7 30.408c.675 0 1.286.274 1.728.716.442.443.716 1.054.716 1.728s-.274 1.285-.716 1.728a2.44 2.44 0 0 1-1.728.715 2.44 2.44 0 0 1-1.727-.715 2.44 2.44 0 0 1-.716-1.728c0-.674.274-1.285.716-1.728a2.44 2.44 0 0 1 1.727-.716M18.112 31.793c.584 0 1.114.237 1.497.62.384.384.621.914.621 1.498a2.1 2.1 0 0 1-.62 1.497 2.1 2.1 0 0 1-1.498.62 2.1 2.1 0 0 1-1.497-.62 2.1 2.1 0 0 1-.62-1.497c0-.584.237-1.114.62-1.497.384-.384.913-.621 1.497-.621M13.388 36.354c.629 0 1.2.256 1.612.669a2.274 2.274 0 0 1 0 3.224 2.273 2.273 0 0 1-3.224 0 2.273 2.273 0 0 1 0-3.224 2.27 2.27 0 0 1 1.612-.669M49.634 42.626c.562 0 1.07.228 1.439.597.369.368.597.877.597 1.44 0 .561-.228 1.07-.597 1.439a2.03 2.03 0 0 1-1.44.597 2.03 2.03 0 0 1-1.439-.597 2.03 2.03 0 0 1-.597-1.44c0-.562.228-1.07.597-1.439a2.03 2.03 0 0 1 1.44-.597M56.801 45.07a2.1 2.1 0 0 1 1.497.62 2.111 2.111 0 0 1 0 2.994 2.1 2.1 0 0 1-1.497.62 2.1 2.1 0 0 1-1.497-.62 2.1 2.1 0 0 1-.62-1.497c0-.584.237-1.113.62-1.497a2.1 2.1 0 0 1 1.497-.62M51.67 49.712c.652 0 1.242.265 1.67.692.427.428.692 1.019.692 1.67 0 .652-.265 1.242-.692 1.67a2.36 2.36 0 0 1-1.67.692 2.36 2.36 0 0 1-1.67-.692 2.36 2.36 0 0 1-.692-1.67c0-.651.265-1.242.692-1.67a2.36 2.36 0 0 1 1.67-.692M29.027 68.772c.584 0 1.113.237 1.497.62.383.384.62.913.62 1.497s-.237 1.114-.62 1.497a2.111 2.111 0 0 1-2.994 0 2.1 2.1 0 0 1-.621-1.497c0-.584.237-1.113.62-1.497.384-.383.914-.62 1.498-.62M10.7 78.464c.742 0 1.414.302 1.9.788a2.68 2.68 0 0 1 0 3.8 2.683 2.683 0 0 1-3.8 0 2.683 2.683 0 0 1 0-3.8 2.68 2.68 0 0 1 1.9-.788M16.483 83.351c.63 0 1.2.256 1.612.669a2.273 2.273 0 0 1 0 3.224 2.273 2.273 0 0 1-3.224 0 2.273 2.273 0 0 1 0-3.224 2.27 2.27 0 0 1 1.612-.669M56.557 5.485c.741 0 1.413.3 1.9.787a2.683 2.683 0 0 1 0 3.8 2.68 2.68 0 0 1-3.8 0 2.68 2.68 0 0 1 0-3.8 2.68 2.68 0 0 1 1.9-.788M52.322 11.675c.696 0 1.327.282 1.784.74.458.457.74 1.088.74 1.785s-.282 1.327-.74 1.784a2.51 2.51 0 0 1-1.784.74 2.51 2.51 0 0 1-1.785-.74 2.51 2.51 0 0 1-.74-1.784c0-.697.282-1.328.74-1.785a2.51 2.51 0 0 1 1.785-.74M57.942 15.992c.809 0 1.541.328 2.073.859.53.531.859 1.264.859 2.073s-.328 1.542-.86 2.073a2.92 2.92 0 0 1-2.072.86 2.92 2.92 0 0 1-2.073-.86 2.92 2.92 0 0 1-.86-2.073c0-.809.329-1.542.86-2.073a2.92 2.92 0 0 1 2.073-.86"/><path fill="#658542" d="M27.642 51.097a.816.816 0 0 1-.814-.815c.57-13.032 4.316-26.797 4.398-26.96.081-.407.57-.651.977-.57s.652.57.57.977c0 .163-3.746 13.766-4.317 26.553a.816.816 0 0 1-.814.815"/><path fill="#658542" d="M29.597 35.051c-.163 0-.245-.081-.326-.163a.43.43 0 0 1 .163-.57c9.204-5.946 12.462-10.507 12.462-10.507.163-.163.407-.244.57-.082.163.163.244.408.081.57-.162.163-3.339 4.725-12.706 10.752zM13.225 70.97c-.244 0-.488-.162-.651-.325C8.338 64.21 4.266 52.4 4.103 51.911c-.163-.407.081-.896.489-1.059.407-.162.896.082 1.058.49.082.08 4.154 12.054 8.227 18.326.244.407.163.895-.245 1.14a.62.62 0 0 1-.407.163M39.29 92.963c-.326 0-.652-.245-.815-.57-3.991-13.766-4.643-31.278-4.643-31.44 0-.49.326-.815.815-.815s.814.326.814.814c0 .163.652 17.512 4.562 31.033.162.407-.163.896-.57.978z"/><path fill="#658542" d="M36.357 81.64c-.081 0-.163 0-.244-.08a.394.394 0 0 1 0-.57c5.701-6.272 11.647-17.513 11.647-17.594.082-.163.326-.245.57-.163.163.081.245.326.163.57-.081.082-6.027 11.403-11.81 17.756-.081.082-.163.082-.326.082"/><path fill="#597933" d="M26.42 116.339c-.244 0-.407-.163-.407-.407.244-5.132-.733-19.223-.733-19.304 0-.245.163-.407.407-.407.245 0 .407.162.407.407 0 .163.978 14.254.733 19.385 0 .081-.162.326-.407.326M54.684 108.682a.74.74 0 0 1-.57-.244.787.787 0 0 1 0-1.14c.08-.082 6.923-7.005 10.018-13.44.163-.407.651-.57 1.059-.407s.57.652.407 1.059c-3.177 6.679-10.018 13.602-10.344 13.928a.88.88 0 0 1-.57.244"/><path fill="#668543" d="m44.747 89.949 8.145-3.665s-10.833 67.196-20.77 85.115l-8.552 2.037s6.515-24.028 8.145-36.409c0 0-6.924-5.375-15.069-17.512l3.665-6.353s7.983 10.426 14.01 14.824c-.081.082 7.493-23.05 10.426-38.037"/><path fill="#6f7138" d="M17.38 118.13c2.932 3.829 7.411 8.797 7.493 8.879.081.081.163.081.244.081s.163 0 .244-.081c.163-.082.163-.326 0-.407-.081-.082-4.724-5.213-7.574-9.041zM32.366 131.163c.082 0 .163-.082.245-.082.081-.162.081-.325-.082-.407-.081-.081-7.168-5.62-13.52-15.394l-.326.57c6.353 9.693 13.439 15.231 13.52 15.231 0 .082.082.082.163.082M27.56 168.63h-.08c-.164-.081-.245-.244-.164-.407 2.688-8.634 7.412-31.847 7.494-32.092 0-.163.163-.244.325-.244.163 0 .245.163.245.326-.082.244-4.806 23.458-7.494 32.173-.081.163-.162.244-.325.244M32.61 160.892h-.08c-.164-.081-.245-.244-.164-.407 3.665-11.566 7.005-24.924 7.005-25.087s.163-.244.407-.244c.163 0 .245.244.245.407s-3.34 13.602-7.005 25.168c-.163.082-.245.163-.407.163M31.47 164.232a.45.45 0 0 0-.407.244c-.57 2.28-1.71 5.62-2.525 7.738l.733-.163c.733-2.118 1.873-5.294 2.362-7.412.082-.163 0-.326-.163-.407M37.66 133.362c-.244-.082-.325-.244-.325-.407 4.072-14.58 5.783-29.241 5.864-29.323 0-.162.163-.244.326-.244s.326.163.244.326c0 .163-1.792 14.824-5.864 29.404q0 .244-.245.244M45.724 100.537c.163 0 .326-.081.326-.244 0-.081.896-5.946 1.303-11.485l-.651.326c-.408 5.376-1.222 10.996-1.222 11.078-.082.162.081.325.244.325M44.502 116.828c.163 0 .245-.082.326-.245 0-.163 3.095-16.208 4.643-28.67l-.652.325c-1.547 12.38-4.48 28.1-4.561 28.264-.082.081 0 .244.244.326-.081 0 0 0 0 0"/></svg>