<svg xmlns="http://www.w3.org/2000/svg" width="800" height="800" viewBox="0 -3.94 77.032 77.032"><g data-name="headphones blue"><g data-name="Group 165"><path fill="#163844" d="M26.757 64.48a4.68 4.68 0 0 1-4.663 4.664h-4.666a4.677 4.677 0 0 1-4.658-4.664V40.39a4.675 4.675 0 0 1 4.658-4.666h4.666a4.676 4.676 0 0 1 4.663 4.666Z" data-name="Path 381"/></g><g data-name="Group 166"><path fill="#163844" d="M50.27 40.39a4.68 4.68 0 0 1 4.665-4.666h4.663a4.675 4.675 0 0 1 4.658 4.666v24.09a4.677 4.677 0 0 1-4.658 4.664h-4.663a4.68 4.68 0 0 1-4.665-4.664Z" data-name="Path 382"/></g><path fill="#27b7ff" d="M65.084 40.486c-.282 0-.549.062-.828.082v23.728c.279.026.546.092.828.092a11.951 11.951 0 0 0 0-23.9Z" data-name="Path 383"/><path fill="#27b7ff" d="M12.775 40.568c-.281-.02-.543-.082-.83-.082a11.951 11.951 0 0 0 0 23.9c.287 0 .549-.066.83-.092Z" data-name="Path 384"/><path fill="#163844" d="M38.757 0A33.075 33.075 0 0 0 5.682 33.08v9.218a11.9 11.9 0 0 1 4.663-1.648v-7.57a28.412 28.412 0 1 1 56.824 0v7.615a11.9 11.9 0 0 1 4.658 1.883c.007-4.129.007-9.365.007-9.5A33.08 33.08 0 0 0 38.757 0" data-name="Path 385"/></g></svg>