<svg xmlns="http://www.w3.org/2000/svg" width="207.607" height="148.619" viewBox="-2.499 -2.5 207.607 148.619"><defs><linearGradient id="a" x1="44.735" x2="0" y1="105.68" y2="105.68" gradientUnits="userSpaceOnUse"><stop offset=".27" stop-color="#0c5a43"/><stop offset=".87" stop-color="#81ac43"/><stop offset=".92" stop-color="#b0cc4d"/></linearGradient><linearGradient id="b" x1="76.586" x2="31.59" y1="123.56" y2="123.56" gradientUnits="userSpaceOnUse"><stop offset=".55" stop-color="#0c5a43"/><stop offset=".87" stop-color="#81ac43"/><stop offset=".92" stop-color="#b0cc4d"/></linearGradient></defs><path fill="#0c5a43" d="M127.581 111.95V49.785h10.19v51.66c.003 5.671-4.509 10.319-10.19 10.5z"/><path fill="none" stroke="#1c252e" stroke-width="5" d="M137.701 98.535h-10.12M137.771 82.66h-10.19"/><path fill="#0c5a43" d="M63.85 111.95h63.657c4.706 0 8.521-3.806 8.521-8.5H72.206a8.37 8.37 0 0 0-5.966 2.501 8.33 8.33 0 0 0-2.39 5.999"/><path fill="none" stroke="#1c252e" stroke-width="5" d="M122.58 103.45v8.5M106.666 103.45v8.5M79.223 103.45v8.5"/><path fill="#f3e5cf" d="M181.228 19.73v.125a3.89 3.89 0 0 0 2.294 3.549 3.91 3.91 0 0 0 4.187-.629l13.272-11.655a2.84 2.84 0 0 0 .812-3.075L201.403 7z"/><path fill="#f3e5cf" d="m191.553 5-32.58 23.62c3.528 7.423 11.167 12.018 19.395 11.665 8.227-.352 15.444-5.584 18.32-13.282A20.4 20.4 0 0 0 191.553 5"/><path fill="#0c5a43" d="M127.47 57.25V31.675a10.43 10.43 0 0 1 3.064-7.385 10.48 10.48 0 0 1 7.402-3.06h4.07c11.664 0 21.849-7.465 28.25-13.595a20.49 20.49 0 0 1 18.801-5.19l11.924 2.765a2.091 2.091 0 0 1 .782 3.72l-68.684 51.125a3.51 3.51 0 0 1-3.672.325 3.5 3.5 0 0 1-1.937-3.13"/><path fill="#b0cc4d" d="M137.62 28.855c.519 0 .989.21 1.329.55a1.867 1.867 0 0 1 0 2.65c-.34.34-.81.55-1.329.55s-.988-.21-1.328-.55a1.86 1.86 0 0 1-.551-1.325c0-.517.21-.986.551-1.325.34-.34.81-.55 1.328-.55M168.381 23.85c.606 0 1.155.245 1.552.642.398.396.644.944.644 1.548s-.246 1.152-.644 1.548a2.2 2.2 0 0 1-1.552.642 2.19 2.19 0 0 1-2.195-2.19 2.19 2.19 0 0 1 2.195-2.19M149.836 35.1a2.69 2.69 0 0 1 2.696 2.69 2.692 2.692 0 0 1-2.696 2.69 2.69 2.69 0 0 1-2.697-2.69 2.692 2.692 0 0 1 2.697-2.69M142.442 39.225c.71 0 1.353.287 1.818.752a2.55 2.55 0 0 1 .754 1.813 2.55 2.55 0 0 1-.754 1.813 2.56 2.56 0 0 1-1.818.752 2.56 2.56 0 0 1-1.817-.752 2.55 2.55 0 0 1-.754-1.813c0-.708.288-1.349.754-1.813a2.56 2.56 0 0 1 1.817-.752"/><path fill="none" stroke="#1c252e" stroke-width=".5" d="M131.48 47v-5.13a3.24 3.24 0 0 1 1.047-2.378 3.25 3.25 0 0 1 2.462-.847l.762.065a3.59 3.59 0 0 0 3.834-2.92l.121-.64a3.44 3.44 0 0 1 1.509-2.253 3.46 3.46 0 0 1 2.676-.467l1.323.305a3.54 3.54 0 0 0 4.175-2.35l.426-1.325a3.585 3.585 0 0 1 4.01-2.425l3.459.595a6.02 6.02 0 0 0 5.824-2.315l14.842-19.81"/><path fill="#1c252e" d="M196.952 7.54c.275 0 .525.112.706.293a.994.994 0 0 1 0 1.414.996.996 0 0 1-1.413 0 .997.997 0 0 1 0-1.414 1 1 0 0 1 .707-.293M197.453 4.54a.997.997 0 0 1 1 1 .997.997 0 0 1-1 1 .997.997 0 0 1-1-1 .997.997 0 0 1 1-1"/><path fill="#60a14e" d="M175.965 13.355c1.244 0 2.372.504 3.189 1.319a4.48 4.48 0 0 1 1.322 3.181 4.48 4.48 0 0 1-1.322 3.181 4.5 4.5 0 0 1-3.189 1.319 4.5 4.5 0 0 1-3.189-1.319 4.48 4.48 0 0 1-1.322-3.181c0-1.242.505-2.367 1.322-3.181a4.5 4.5 0 0 1 3.189-1.319"/><path fill="#b0cc4d" d="M142.883 28a4.51 4.51 0 0 0 4.027-2.489 4.49 4.49 0 0 0-.423-4.706c-1.467.235-2.95.353-4.436.355h-3.007a4.4 4.4 0 0 0-.672 2.34c0 2.485 2.02 4.5 4.511 4.5M127.516 31.585v3.5c.35.202.731.346 1.127.425a3.82 3.82 0 0 0 4.116-1.885 3.8 3.8 0 0 0-.582-4.48.664.664 0 0 1 .08-1 3.17 3.17 0 0 0 1.218-2.265 3.26 3.26 0 0 0-1.468-2.88 10.43 10.43 0 0 0-4.491 8.585M129.225 41.415a2.56 2.56 0 0 0-1.709-2.4v4.805a2.56 2.56 0 0 0 1.709-2.405M153.449 21.635a1.997 1.997 0 0 0 1.113 3.165 2.01 2.01 0 0 0 1.715-.37 2 2 0 0 0 .766-1.575v-.315a.523.523 0 0 1 .501-.56 4.28 4.28 0 0 0 3.975-2.335 4.61 4.61 0 0 0-.361-4.815 43.7 43.7 0 0 1-7.909 4.09q.115.349.286.675a1.87 1.87 0 0 1-.086 2.04"/><path fill="#eee75a" d="M183.897 0c1.833 0 3.493.742 4.695 1.942a6.6 6.6 0 0 1 1.947 4.683 6.6 6.6 0 0 1-1.947 4.683 6.63 6.63 0 0 1-4.695 1.942 6.63 6.63 0 0 1-4.695-1.942 6.6 6.6 0 0 1-1.946-4.683c0-1.828.744-3.484 1.946-4.683A6.63 6.63 0 0 1 183.897 0"/><path fill="#1c252e" d="M188.348 5.565h-.536a1.5 1.5 0 0 1-1.238-.69 3.2 3.2 0 0 0-5.353 0 1.5 1.5 0 0 1-1.238.69h-.537a1.1 1.1 0 0 0-1.117.95 1.057 1.057 0 0 0 1.077 1.175h.597c.501.008.965.265 1.238.685a3.2 3.2 0 0 0 5.353 0c.272-.42.737-.677 1.238-.685h.596a1.064 1.064 0 0 0 1.038-1.19 1.1 1.1 0 0 0-1.118-.935"/><path fill="none" stroke="#0c5a43" stroke-linecap="round" stroke-width="2.5" d="M171.546 43.81h7.85c6.92 0 12.531 5.596 12.531 12.5"/><path fill="#0c5a43" d="M173.13 29.91v15.15h-3.759c-4.706 0-8.521-3.806-8.521-8.5v-5.235c0-.205.137-.386.336-.44l9.603-2.74a1.84 1.84 0 0 1 1.613.299c.46.347.73.89.728 1.466"/><path fill="#b0cc4d" d="M162.855 42a5.55 5.55 0 0 0 3.23-6.085 5.56 5.56 0 0 0-5.185-4.545v5.205A8.5 8.5 0 0 0 162.855 42"/><path fill="#0c5a43" d="m88.491 89.855 44.068-43.96 7.203 7.19-36.62 36.53c-4.017 4.014-10.504 4.121-14.651.24"/><path fill="none" stroke="#1c252e" stroke-width="5" d="m105.207 87.555-7.208-7.19M116.46 76.33l-7.208-7.19"/><path fill="#0c5a43" d="M40.386 85.595a8.36 8.36 0 0 0-5.903 2.642 8.32 8.32 0 0 0-2.243 6.053l63.657-1.53c.166 0 .336 0 .501-.025 5.419-.445 4.862-8.605-.576-8.475z"/><path fill="none" stroke="#1c252e" stroke-width="5" d="m90.745 84.38.205 8.5M74.835 84.765l.206 8.5M47.398 85.425l.205 8.495"/><path fill="url(#a)" d="M6.516 120.33c.389-.241.672-.619.792-1.06a2.8 2.8 0 0 1 1.058-1.5l10.445-7.845a.84.84 0 0 1 1.123.087.833.833 0 0 1 .02 1.123L11.097 121.5a2.6 2.6 0 0 1-1.042.775 1.83 1.83 0 0 0-1.003.96 1.77 1.77 0 0 0 .04 1.545 1.82 1.82 0 0 0 2.913.465c.269-.272.445-.622.501-1a3.14 3.14 0 0 1 .847-1.825l14.33-14.3 15.924-15.945c2.326-2.32.868-6.38-2.416-6.56a9.54 9.54 0 0 0-7.252 2.77l-7.374 7.35a23.2 23.2 0 0 1-4.315 3.385l-18.325 11.1a3.13 3.13 0 0 1-1.92.5 1.81 1.81 0 0 0-1.723.828 1.8 1.8 0 0 0-.016 1.907 1.822 1.822 0 0 0 3.112 0 2.7 2.7 0 0 1 1.003-1l11.288-6.135a.84.84 0 0 1 1.082.265.84.84 0 0 1-.13 1.105l-10.145 8.75a2.3 2.3 0 0 1-1.188.56c-.39.049-.752.225-1.033.5a1.81 1.81 0 0 0-.179 2.456 1.82 1.82 0 0 0 2.44.374"/><path fill="#1c252e" d="m28.143 94.091 3.544-3.535 6.735 6.717-3.545 3.535z"/><path fill="url(#b)" d="m65.519 106.27-7.058 7.04a26.3 26.3 0 0 1-5.012 3.92l-17.944 10.875a3.13 3.13 0 0 1-1.92.5 1.81 1.81 0 0 0-1.723.828 1.8 1.8 0 0 0-.016 1.907c.15.237.35.438.586.59l.12.07.196.09.155.05q.102.03.206.045l.14.025q.171.015.341 0h.07q.143-.021.281-.065l.115-.04q.118-.048.231-.11l.1-.06q.163-.098.296-.235.154-.155.27-.34a2.7 2.7 0 0 1 1.003-1l11.293-6.16a.84.84 0 0 1 1.082.265.84.84 0 0 1-.13 1.105l-10.135 8.755a2.33 2.33 0 0 1-1.188.555 1.8 1.8 0 0 0-1.037.5 1.81 1.81 0 0 0-.139 2.395 1.82 1.82 0 0 0 2.364.44c.39-.239.674-.619.792-1.06q.056-.21.155-.405.058-.119.131-.23l.075-.13q.105-.15.23-.285v-.03q.137-.15.291-.28c.055-.045.1-.095.156-.135l10.44-7.845a.84.84 0 0 1 1.123.087.833.833 0 0 1 .02 1.123l-8.792 10.335a2.6 2.6 0 0 1-1.037.775c-.45.173-.811.519-1.003.96a1.75 1.75 0 0 0 .035 1.545c.141.267.344.497.592.67 0 0 .04 0 .055.035q.117.086.246.155l.125.045q.121.04.246.065h.125q.18.018.361 0h.03q.171-.017.336-.065l.11-.04q.13-.047.251-.115l.1-.055c.441-.277.74-.731.822-1.245q.032-.226.095-.445c0-.055.03-.11.05-.165a2.4 2.4 0 0 1 .176-.45q.052-.117.12-.225c.035-.055.065-.12.105-.175q.134-.197.301-.365l14.335-14.3v-.025l16.255-16.215q.178-.179.331-.38l.09-.13q.097-.136.181-.28c.03-.05.055-.105.08-.155s.09-.185.125-.28.045-.105.065-.16a4 4 0 0 0 .186-.885v-.64c0-.085 0-.165-.035-.245s-.025-.14-.04-.21a3 3 0 0 0-.055-.215q-.03-.106-.066-.22c-.025-.075-.05-.125-.08-.185a3.5 3.5 0 0 0-.215-.44l-.07-.125a4 4 0 0 0-.161-.22c-.055-.07-.065-.09-.1-.13s-.12-.14-.186-.205l-.115-.115a3 3 0 0 0-.21-.185c-.04-.035-.081-.06-.121-.09a3 3 0 0 0-.245-.17 3.6 3.6 0 0 0-1.429-.5 9.54 9.54 0 0 0-7.929 2.71"/><path fill="#1c252e" d="m59.733 112.077 3.544-3.536 6.735 6.718-3.546 3.535z"/></svg>