<svg xmlns="http://www.w3.org/2000/svg" width="171.928" height="142.976" viewBox="-0.075 -0.221 171.928 142.976"><path fill="#279afa" d="M121.99 92.864c-.037-11.881 13.392-33.047 22.657-41.988 2.149-2.072 3.84-6.741 3.239-15.386-.27-3.847-1.038-7.874-2.836-12.156 0 0-.793-3.92-5.139-10.97-7.548-12.237-31.522-21.456-27.698 4.61 1.144 7.805 5.228 15.784 7.659 19.078-1.564-.767-9.326-5.152-12.416-1.296-3.954 4.934 11.035 16.15 11.035 16.15-3.923-1.545-9.224-2.6-10.81.528-2.222 4.392 5.432 10.965 5.432 10.965-2.285.196-6.335.067-7.082 2.29-.746 2.221 2.55 6.875 4.032 8.157-4.26.477-6.402 2.364-6.426 4.224-.207 1.978 2.73 5.92 7.261 8.83-2.579 4.903.203 10.283 2.454 11.428 2.156 1.099 4.247.89 6.317-.34.976-.573 2.33-1.74 2.322-4.124"/><path fill="#0043a5" d="M121.99 92.864c-.037-11.881 13.392-33.047 22.657-41.988 2.149-2.072 3.84-6.741 3.239-15.386-.27-3.847-1.038-7.874-2.836-12.156-2.627-6.37-13.569-18.569-20.775-16.823-12.828 3.11 4.772 35.094 4.772 35.094-25.56-7.446-2.742 12.954-2.742 12.954-23.187-4.316-6.08 10.487-6.08 10.487-15.996-.432-3.145 10.607-3.145 10.607-13.561.578-6.182 10.249-6.182 10.249-2.579 4.902.203 10.281 2.454 11.427 2.156 1.098 4.247.89 6.317-.34.976-.574 2.33-1.741 2.322-4.125"/><path fill="#ffa600" d="M124.552 114.995c1.933-3.348 4.456-4.81 8.3-5.282 1.65-.19 2.829-.142 4.15.849 1.202.896-.467 3.322-5.866 4.266 5.804.54 8.884 1.204 9.355 3.468.354 1.768-2.17 2.711-3.96 2.452-4.08-.59-8.537-2.17-10.47 1.51-.495.943-.708 1.861-1.697 2.168-1.085.33-2.406-.353-2.547-1.508-.236-2.053.901-3.316.377-5.283-.188-.707-7.922-3.678-11.082-4.95 1.556-.378 3.607-1.722 5.14-2.17 1.038-.308 5.706 2.216 8.3 4.48"/><path fill="#ff0600" d="M131.623 91.265c.149-.887.397-1.817.745-2.804 2.025-5.736 6.209-9.144 12.012-11.067.9-.298 1.841-.574 2.804-.82 4.261-1.09 8.978-1.503 12.88.174a17.4 17.4 0 0 0-2.322-2.322c-12.435-10.378-27.735-5.128-41.57 3.509-10.594 6.613-37.521 24.835-44.809 23.485-23.906-17.632-32.39-14.848-34.279-11.068-1.754 3.576 2.294 7.558 5.534 9.987-5.822.995-9.196.59-9.583 4.59-.355 3.665 4.859 4.183 8.503 5.127-3.24 1.35-5.992 3.485-4.742 6.123 1.215 2.565 7.424 3.105 11.203 2.025-2.025 3.779-4.858 12.551 3.932 9.398 8.162-2.929 12.821-7.422 19.705-12.956 10.662 11.066 26.453 16.06 34.146 13.09 13.465-5.196 21.48-17.54 26.137-31.58-.48-1.538-.593-3.128-.297-4.89"/><path fill="#0043a5" d="M144.38 77.394c.9-.299 1.841-.575 2.804-.821-5.582-4.596-13.166-3.809-20.152-.671-4.407 1.984-7.432 6.746-4.683 10.418 3.311 4.425 7.492 5.299 9.275 4.945.149-.887.397-1.817.745-2.804 2.024-5.737 6.208-9.145 12.011-11.067"/><path fill="#ffa600" d="M161.79 77.663c-.553-.359-1.13-.66-1.726-.916-3.902-1.678-8.619-1.264-12.88-.175-.962.246-1.903.522-2.804.82-5.803 1.923-9.987 5.331-12.012 11.067a17 17 0 0 0-.745 2.804c-.297 1.763-.184 3.353.295 4.89.566 1.816 1.651 3.556 3.285 5.398 3.678 4.15 10.24 6.427 14.694 2.884-3.712-1.215-5.583-4.942-5.111-8.822 11.319-3.865 19.552 13.815 21.999 25.102 12.71-27.865-4.994-43.052-4.994-43.052M119.283 128.967c3.483-4.299 7.376-5.8 12.913-5.607 2.375.103 5.098 1.027 5.554 3.345.823 4.185-9.178 1.89-11.202 3.914 7.422-.945 14.365 3.278 14.524 6.582.104 2.578-3.673 3.347-6.147 2.579-5.634-1.746-11.579-4.976-15.135-.21-.91 1.222-1.417 2.474-2.885 2.685-1.606.224-3.32-1.039-3.261-2.703.126-2.952 2.683-4.634 1.715-7.38-1.499-4.253-9.46-6.817-14.554-9.48 2.283-.184 5.767-1.386 7.523-3.005 1.888.674 7.795 5.501 10.955 9.28"/><path fill="#fff" d="M141.301 78.754c4.478 5.02-3.066 12.458-9.713 7.52-2.594-1.93-2.17-5.661-.705-7.327 2.394-2.725 7.762-3.173 10.418-.193"/><path fill="#272525" d="M139.675 81.505c.593 0 1.13.217 1.518.566.388.35.629.832.629 1.365s-.24 1.016-.63 1.366c-.388.35-.924.566-1.517.566s-1.13-.217-1.518-.566a1.83 1.83 0 0 1-.63-1.366c0-.533.241-1.015.63-1.365.388-.35.925-.566 1.518-.566"/><path fill="#279afa" d="M113.371 87.657c-14.204-7.7-30.71-37.522-35.339-54.406-1.073-3.914-5.541-8.977-16.25-13.892-4.767-2.188-10.072-3.895-16.356-4.54 0 0-5.195-1.61-16.44-1.017-19.523 1.032-46.15 23.632-12.552 36.06 10.059 3.72 22.243 4.047 27.76 3.294-1.935 1.366-12.228 7.772-9.64 13.973 3.311 7.935 26.466-2.642 26.466-2.642-4.403 3.673-9.117 9.312-6.416 13.243 3.79 5.516 16.625.667 16.625.667-1.255 2.854-4.049 7.602-1.884 9.942s9.867 1.44 12.365.507c-2.208 5.396-1.352 9.18.852 10.42 2.225 1.537 8.845.6 15.27-2.907 4.17 6.274 12.402 6.46 15.237 4.52 2.716-1.856 3.83-4.488 3.712-7.761-.048-1.54-.56-3.915-3.41-5.46"/><path fill="#0043a5" d="M113.371 87.657c-14.204-7.7-30.71-37.522-35.339-54.406-1.073-3.914-5.541-8.977-16.25-13.892-4.767-2.188-10.072-3.895-16.356-4.54-9.312-1.017-31.004 4.09-33.616 13.827C7.16 45.981 56.8 45.825 56.8 45.825c-25.547 25.65 13.673 11.716 13.673 11.716-20.266 24.859 8.55 14.092 8.55 14.092C68.082 90.44 89.632 82.3 89.632 82.3c-8.15 16.559 8.2 14.057 8.2 14.057 4.17 6.274 12.402 6.46 15.237 4.52 2.716-1.856 3.83-4.488 3.712-7.761-.048-1.538-.56-3.913-3.41-5.459"/></svg>