<svg xmlns="http://www.w3.org/2000/svg" xml:space="preserve" width="226.09" height="159.875" viewBox="18.4 14.5 226.09 159.875"><title>bear-walk-e</title><g fill-rule="nonzero"><path fill="#856045" d="M88.8 83.1s11.3 24.4-1.7 51.9c-6.5 13.8-12 22.3-10 24.7s6.5 5.4 5.2 7.2-9.1 1.6-25.4-2.5c-2-.5-6.1-14.7-3.2-30.8 2.2-12.5-1.1-20.3-3.1-29.4-2-9-8.9-25.4-6.5-32.9s7.3-21 24.3-16.6 20 22.2 20.4 28.4"/><path fill="#59402f" d="M72.4 167.5s0-.3-.1-.8-.4-1.1-.8-1.7c-.4-.5-.9-1-1.3-1.2-.4-.3-.8-.4-.8-.4s0 .1.1.2.2.3.4.5c.3.4.7.9 1.1 1.4s.7 1 1 1.4zM78 167.2s0-.4-.2-.9-.6-1.2-1.1-1.8c-.3-.3-.5-.6-.8-.8s-.6-.4-.9-.5-.5-.2-.7-.2-.3-.1-.3-.1l.2.2c.1.1.3.3.5.4l1.4 1.4c.5.5.9 1.1 1.3 1.5.4.5.6.8.6.8"/><path fill="#665a52" d="M71.5 168.8c0-.6-1-3.3-2.1-3.2s-.4 1.1.2 1.8c.6.8 1.9 1.8 1.9 1.4M77 168.2c0-.6-1-3.3-2.1-3.2s-.4 1.1.2 1.8 1.9 1.8 1.9 1.4M80.4 167.9c0-.6-1-3.3-2.1-3.2s-.4 1.1.2 1.8 2 1.8 1.9 1.4"/><path fill="#59402f" d="M53.5 134.5s-.4 2.3-.6 5.7c-.1 1.7-.2 3.7-.2 5.8s0 4.4.2 6.7.5 4.6 1.1 6.6c.3 1 .6 2 1 2.9.2.5.5.9.7 1.3.1.2.3.4.4.6.1.1.1.2.2.3s.2.1.3.1c.8.3 1.6.5 2.2.6.7.2 1.3.3 1.8.4l1.5.3s-.6-.1-1.5-.4c-.5-.1-1.1-.3-1.7-.5-.7-.2-1.4-.4-2.2-.7-.2-.1-.3-.1-.4-.4-.1-.2-.2-.4-.4-.6-.2-.4-.4-.8-.6-1.3-.4-.9-.7-1.9-.9-2.9q-.75-3.15-.9-6.6-.3-3.45-.3-6.6V140c.2-3.2.3-5.5.3-5.5M93.2 96.2s-.2 4.3-.8 10.8c-.3 3.2-.7 7-1.2 11-.3 2-.6 4.1-.9 6.2-.4 2.1-.8 4.2-1.4 6.2-.3 1-.7 2-1.2 2.9-.5 1-1 1.9-1.5 2.8-1 1.9-2 3.7-2.9 5.5-1.9 3.6-3.6 7-4.8 10-.6 1.5-1.1 2.9-1.4 4.2s-.4 2.5-.2 3.4c.2 1 .9 1.5 1.3 1.8s.7.4.7.4-.2-.1-.6-.5c-.4-.3-1-.8-1.1-1.8-.1-.9.1-2 .4-3.3s.8-2.6 1.5-4.1c1.3-2.9 3.1-6.3 5-9.9 1-1.8 1.9-3.6 2.9-5.5.5-.9 1-1.9 1.5-2.9q.75-1.5 1.2-3c.6-2.1 1-4.2 1.4-6.3s.6-4.2.9-6.2c.5-4 .8-7.8 1-11 .1-6.4.2-10.7.2-10.7"/><path fill="#856045" d="M141.5 96.4c-5.1 15.6-10.5 20.4-10.5 20.4s14.3 18.9 14.7 22.1c.9 8.2-17.9 27.1-21.9 21.4-3.9-5.4 2-13.5 2-13.5s-14.3-16.5-15.6-17.6c-2.6-2.2-20.6-6.5-15.9-29 12.3-45.4 54.3-25.6 47.2-3.8"/><path fill="#856045" d="M103.8 81.1s-8.5 9.6-10.8 9.3c0 0 2.1 2 4 .5 0 0-4.5 1.6-5.8 5.9l3-.8s-4.4 6.1-4.3 10.4l3-2.9s-3.7 6.2.3 10.1"/><path fill="#59402f" d="M93.2 90.4h.5c.3-.1.8-.2 1.3-.5 1-.5 2.2-1.5 3.4-2.5.6-.5 1.1-1.1 1.6-1.6s.9-1 1.3-1.5c.7-.9 1.1-1.5 1.1-1.5s-.6.5-1.4 1.3-1.9 1.8-3 2.8c-.5.5-1.1 1-1.6 1.5q-.75.75-1.5 1.2c-.4.3-.8.6-1.1.7-.4 0-.6.1-.6.1M91.2 97s.3-.4.6-1c.4-.6.9-1.3 1.5-2 .3-.3.6-.7.9-1 .2-.1.3-.3.4-.4l.4-.4c.3-.2.5-.4.7-.5s.3-.2.3-.2-.1 0-.3.1c-.2 0-.5.1-.8.3-.2.1-.3.2-.5.3s-.4.2-.5.4c-.4.3-.7.6-1 1-.6.7-1 1.6-1.3 2.3-.3.6-.4 1.1-.4 1.1M89.8 106.5s0-.7.3-1.8c.3-1 .8-2.4 1.4-3.6.3-.6.6-1.3.9-1.9s.6-1.1.9-1.6.5-.9.6-1.1c.2-.3.2-.4.2-.4s-.1.1-.3.4c-.2.2-.5.6-.8 1-.7.9-1.5 2.1-2.1 3.4-.3.7-.6 1.4-.8 2-.2.7-.3 1.3-.4 1.8s0 1 0 1.3.1.5.1.5M125.7 146.5s-2.1-2.5-5.3-6.2c-1.6-1.9-3.4-4-5.4-6.4-1-1.1-2.1-2.3-3.3-3.4s-2.6-2-4.1-2.7-2.9-1.4-4.2-2.3-2.5-2-3.6-3c-.5-.5-1.1-1-1.6-1.5s-1-1.1-1.4-1.6c-.8-1.1-1.4-2.3-1.8-3.4-.9-2.3-1.2-4.3-1.4-5.7s-.1-2.2-.1-2.2-.1.8 0 2.2.3 3.5 1.1 5.8q.6 1.8 1.8 3.6c.8 1.2 1.9 2.3 2.9 3.3 1.1 1.1 2.3 2.1 3.6 3.1s2.8 1.7 4.3 2.4c1.5.6 2.8 1.5 4 2.6 1.2 1 2.3 2.1 3.4 3.2s2 2.2 2.9 3.3c.9 1 1.8 2 2.6 3 3.4 3.5 5.6 5.9 5.6 5.9M92.9 113.3s-.4-.5-.7-1.4c-.1-.4-.2-1-.3-1.5v-.9c0-.3 0-.6.1-.9 0-.3.1-.6.1-.9s.1-.6.2-.9c.1-.6.2-1.1.3-1.6s.2-.8.3-1.1.1-.4.1-.4-.1.1-.2.4-.3.6-.5 1-.4 1-.6 1.6c-.1.3-.2.6-.2.9s-.1.6-.1 1c-.1.6-.1 1.3.1 1.9 0 .3.1.6.2.9s.2.5.3.7c.2.4.5.8.7 1 .1.2.2.2.2.2M143.2 146.3c.6-.5 1-1.1 1.4-1.7s.7-1.3.9-2 .4-1.4.5-2.2c0-.4.1-.7.1-1.1s-.1-.8-.2-1.1c-.5-1.4-1.2-2.7-1.9-4s-1.5-2.5-2.3-3.8c-1.6-2.5-3.3-4.9-4.9-7.3-1.7-2.4-3.5-4.7-5.2-7.1v.4c1.5-1.8 2.8-3.8 3.9-5.9.6-1 1.1-2.1 1.5-3.2.2-.5.4-1.1.6-1.6s.4-1.1.5-1.7c-.4 1.1-.9 2.2-1.4 3.2s-1.1 2.1-1.6 3.1c-.6 1-1.2 2-1.9 2.9s-1.4 1.9-2.1 2.7l-.2.2.2.2c1.8 2.3 3.5 4.7 5.2 7.1s3.4 4.8 5 7.2c.8 1.2 1.6 2.4 2.3 3.7s1.5 2.5 2 3.9c.1.3.2.7.2 1s0 .7-.1 1.1c-.1.7-.2 1.4-.4 2.1s-.4 1.4-.8 2c-.4.8-.8 1.4-1.3 1.9M122.7 153.3s.3.1.8.1 1.2-.2 1.8-.5 1.1-.7 1.4-1.1.5-.7.5-.7-.1 0-.2.1-.3.2-.5.3c-.4.2-1 .5-1.5.8s-1.1.5-1.5.7-.8.3-.8.3M122.5 158.9s.4 0 1-.1 1.3-.4 2-.8c.3-.2.6-.5.9-.7.3-.3.5-.5.6-.8.2-.2.3-.5.3-.6l.1-.2-.2.2c-.1.1-.3.3-.5.4-.4.4-1 .8-1.6 1.2s-1.2.7-1.7 1c-.5.2-.9.4-.9.4"/><path fill="#6c5f57" d="M121.5 152.2c.6.1 3.4-.4 3.5-1.6.1-1.1-1.1-.5-1.9-.1-.7.5-2 1.6-1.6 1.7M121.3 157.7c.6.1 3.4-.4 3.5-1.6.1-1.1-1.1-.5-1.9-.1s-2 1.6-1.6 1.7M122.9 161.1c.6.1 3.4-.4 3.5-1.6.1-1.1-1.1-.5-1.9-.1-.7.4-2 1.6-1.6 1.7"/><path fill="#59402f" d="M133 118.9s-.1-.5-.4-1.1c-.2-.3-.4-.6-.7-1-.3-.3-.6-.6-1-.9s-.8-.5-1.1-.7c-.4-.2-.8-.3-1.1-.4s-.6-.1-.8-.2h-.3s.1.1.3.2.4.2.7.4.6.4 1 .6c.3.2.7.5 1 .7.7.5 1.3 1.1 1.7 1.6.4.4.7.8.7.8"/><path fill="#8d674a" d="M41.1 54.6s-10.4-3.7-21.1 12c0 0 3.1-2.6 5-2.6 0 0-4.9 1.7-6.1 10 0 0 1.8-3.3 3.2-3.6 0 0-6.8 9.4 3.3 11.1 10.2 1.7 18.1-24.7 15.7-26.9"/><path fill="#59402f" d="M20 66.5s.2-.3.6-.8 1-1.2 1.7-2 1.6-1.7 2.5-2.7c.5-.5 1-.9 1.5-1.4s1.1-.9 1.7-1.3 1.2-.8 1.7-1.2c.6-.3 1.2-.7 1.8-1 .6-.2 1.2-.6 1.8-.7.6-.2 1.1-.4 1.7-.5.5-.1 1-.2 1.4-.3s.8 0 1.1-.1c.6 0 1-.1 1-.1s-.4 0-1-.1c-.3 0-.7-.1-1.2-.1-.4 0-.9.1-1.5.1-.5.1-1.1.3-1.7.4s-1.2.4-1.9.7c-.6.3-1.2.6-1.9 1l-1.8 1.2c-.6.5-1.2.9-1.7 1.4s-1.1 1-1.5 1.5c-1 1-1.7 2-2.4 2.9-1.2 1.9-1.9 3.1-1.9 3.1M25 64s-.7.3-1.6 1.1c-.5.4-.9.8-1.4 1.3s-1 1.1-1.4 1.8-.8 1.3-1 2c-.1.3-.2.7-.3 1s-.2.6-.2.9c-.1.6-.1 1-.1 1.4v.5s0-.2.1-.5c0-.2.1-.4.1-.6.1-.2.1-.5.2-.7.1-.3.2-.5.3-.8s.2-.6.4-.9c.1-.3.3-.6.5-.9l.6-.9c.8-1.3 1.7-2.4 2.5-3.2.7-1 1.3-1.5 1.3-1.5M22.2 70.4s-.5.4-1 1.1c-.3.4-.6.8-.8 1.3-.3.5-.4 1.1-.6 1.7-.1.6-.2 1.2-.1 1.8 0 .3.1.6.2.8.1.3.1.5.2.7.2.4.4.7.5 1 .2.2.2.3.2.3s0-.1-.1-.4c0-.1-.1-.3-.2-.4 0-.2-.1-.4-.1-.6-.1-.2-.1-.4-.1-.7 0-.2-.1-.5-.1-.8v-.8c0-.3.1-.6.1-.8.1-.6.3-1.1.5-1.6s.4-1 .6-1.4c.4-.7.8-1.2.8-1.2"/><path fill="#8d674a" d="M184.6 83.9s0 7.8-3.4 11l-.2-2.8s-1 8.8-7.6 11.4l.8-2.6s-7.4 4.6-7.4 8l-1.2-2s-6.8 5.8-9.8 3.8"/><path fill="#8d674a" d="M160.7 28.7c-18-5.7-41.7 3.6-53 7.7-16.4 6-36.2-10.1-63.1 11.7s-21.8 54.8-1.8 71c22.4 18.1 101.9 18.6 116.1-9.7 0 0 26.4-10.1 27.7-37.4"/><path fill="#59402f" d="M184.7 84s-.2.7-.4 1.7-.5 2.4-.8 3.8c-.1.3-.2.7-.3 1s-.2.7-.3 1c-.2.6-.4 1.2-.6 1.7-.1.2-.2.5-.3.6-.1.2-.2.4-.3.5-.2.2-.3.4-.3.4s.1-.1.4-.3c.1-.1.3-.2.4-.4.2-.2.3-.4.5-.6.3-.4.6-1 .8-1.6.3-.6.4-1.3.6-2 .3-1.4.5-2.8.5-3.9.2-1.2.1-1.9.1-1.9M181 92s-.2.9-.6 2.1c-.2.6-.5 1.4-.8 2.1-.1.4-.4.8-.5 1.1-.2.4-.4.8-.6 1.1-.2.4-.4.8-.7 1.1s-.5.7-.8 1-.5.6-.8.9c-.3.2-.5.5-.8.7s-.5.4-.7.6c-.2.1-.4.3-.6.4-.3.2-.5.3-.5.3s.2-.1.6-.2c.2-.1.4-.2.7-.3.2-.1.5-.3.8-.5l.9-.6c.3-.2.6-.5.9-.8s.6-.7.9-1c.3-.4.5-.8.8-1.1.4-.8.9-1.6 1.1-2.4.3-.8.5-1.6.6-2.2.1-1.4.1-2.3.1-2.3M174.2 101s-.7.2-1.6.7c-.5.3-1 .6-1.5 1s-1.1.8-1.6 1.3-1 1-1.4 1.6c-.4.5-.7 1.1-.9 1.6-.1.3-.2.5-.2.7-.1.2-.1.4-.1.5-.1.3-.1.5-.1.5l.2-.4c0-.2 0-.4.2-.5l.3-.6c.1-.2.3-.4.5-.7.2-.2.4-.5.6-.7.4-.5.9-1 1.4-1.5s1-.9 1.5-1.3 1-.8 1.4-1.1c.7-.7 1.3-1.1 1.3-1.1M165.6 106.9l-1.5 1-1.5.9c-.6.3-1.2.7-1.8 1s-1.3.6-1.9.8l-.9.3c-.3.1-.6.1-.8.2-.3 0-.5.1-.7.1h-1.1s.2 0 .5.1c.2 0 .3.1.6.1h.7c.5 0 1.2-.1 1.8-.3.7-.2 1.3-.4 2-.8.6-.3 1.3-.7 1.8-1.1.6-.4 1.1-.8 1.5-1.1.8-.6 1.3-1.2 1.3-1.2M141 27.4s-3.1.2-7.7 1c-2.3.4-5 .9-7.8 1.7-2.8.7-5.8 1.6-8.7 2.6-2.9 1.1-5.7 2.4-8.4 3.4-1.4.5-2.7.8-4 1.1s-2.5.4-3.7.5c-1.1.1-2.2.1-3.1.2h-4.5s.8.1 2.1.1c.7 0 1.5 0 2.4.1.9 0 2 0 3.2-.1s2.4-.2 3.7-.4 2.7-.6 4.1-1 2.8-1 4.2-1.6 2.8-1.2 4.3-1.7 2.9-1 4.4-1.4 2.9-.9 4.3-1.2c2.8-.7 5.4-1.3 7.7-1.8s4.2-.8 5.5-1.1 2-.4 2-.4M67 37.1s-1.2.2-3.2.9c-2 .6-4.9 1.6-8.3 3.1-3.3 1.5-7.1 3.6-10.8 6.4s-7.2 6.2-10 10.2c-1.4 2-2.6 4.2-3.6 6.4-1.1 2.1-2 4.3-2.8 6.5s-1.5 4.3-1.9 6.3c-.4 2.1-.6 4.1-.7 5.9 0 3.7.6 6.7.9 8.8.4 2.1.6 3.3.6 3.3s-.2-1.2-.5-3.3-.7-5.1-.6-8.8c.1-1.8.3-3.8.8-5.8s1.2-4.1 1.9-6.2c.8-2.1 1.8-4.3 2.8-6.4q1.5-3.3 3.6-6.3c2.7-4 6.2-7.4 9.8-10.2s7.3-4.9 10.6-6.5 6.1-2.7 8.1-3.4zM153.5 116.8s-.4.3-1 .7c-.7.5-1.7 1.1-3 1.9-.7.4-1.4.8-2.2 1.2s-1.7.9-2.6 1.3c-1 .4-2 .9-3.1 1.4s-2.2.9-3.4 1.4-2.5.9-3.8 1.4-2.7.9-4.1 1.3c-2.9.8-5.9 1.6-9.1 2.2-.8.2-1.6.3-2.4.5-.8.1-1.6.2-2.5.4-.8.1-1.7.2-2.5.4-.8.1-1.7.2-2.5.3s-1.7.2-2.6.2c-.9.1-1.7.2-2.6.2-1.7.1-3.5.1-5.2.2-3.5-.1-6.9-.1-10.3-.3s-6.8-.5-10-.8l-4.8-.6q-2.4-.3-4.5-.6c-2.9-.5-5.7-1-8.3-1.6q-3.75-.9-6.9-1.8c-1-.3-1.9-.7-2.8-1-.8-.4-1.6-.6-2.3-1-1.4-.6-2.4-1.2-3.1-1.7s-1-.8-1-.8.3.3 1 .8c.7.4 1.7 1.1 3.1 1.7.7.4 1.5.7 2.3 1 .9.3 1.8.7 2.8 1 2 .7 4.3 1.4 6.8 2s5.3 1.2 8.3 1.7c1.5.2 3 .5 4.5.7l4.8.6c3.2.3 6.6.7 10 .9 3.4.3 6.9.3 10.4.4 1.7-.1 3.5-.1 5.2-.2.9 0 1.7-.1 2.6-.2s1.7-.2 2.6-.2c.9-.1 1.7-.1 2.5-.3.8-.1 1.7-.3 2.5-.4s1.7-.3 2.5-.4 1.6-.3 2.4-.5c3.2-.6 6.3-1.5 9.1-2.3 1.4-.5 2.8-.9 4.1-1.4s2.6-1 3.8-1.5 2.4-1 3.4-1.5q1.65-.75 3-1.5c.9-.5 1.8-1 2.6-1.4.8-.5 1.5-.9 2.2-1.3 1.3-.8 2.3-1.5 3-1.9.7-.3 1.1-.6 1.1-.6"/><path fill="#856045" d="M58.6 102.9s-6.6 11-9 11.1c0 0 2.4 1.6 4-.2 0 0-4.2 2.3-4.7 6.9l2.8-1.3s-3.3 6.8-2.4 11l2.5-3.4s-2.6 6.8 2.1 9.9"/><path fill="#59402f" d="M49.8 113.9s.2 0 .5-.1.7-.4 1.2-.7c.9-.7 2-1.8 2.9-3.1.5-.6.9-1.2 1.3-1.8s.7-1.2 1-1.7c.5-1 .9-1.7.9-1.7s-.5.6-1.2 1.5-1.6 2.1-2.5 3.3c-.4.6-.9 1.2-1.3 1.7s-.9 1-1.2 1.4c-.4.4-.7.7-1 .9-.5.3-.6.3-.6.3M49.1 120.6s.2-.4.4-1c.3-.6.6-1.4 1-2.2.2-.4.4-.7.7-1.1.2-.3.5-.6.7-.9.2-.2.4-.5.6-.6l.2-.2s-.1 0-.3.1-.5.2-.7.4c-.3.2-.6.5-.9.8s-.6.7-.8 1.1-.4.8-.5 1.2-.2.8-.3 1.1c-.2.8-.1 1.3-.1 1.3M49.5 129.9s-.2-.7-.1-1.7c0-.5.1-1.1.2-1.7s.2-1.3.4-1.9c.2-.7.4-1.3.6-1.9s.4-1.2.5-1.7c.2-.5.3-.9.4-1.2s.1-.5.1-.5-.1.1-.3.4c-.1.3-.4.6-.6 1.1s-.5 1-.7 1.6c-.3.6-.5 1.3-.6 1.9-.2.7-.3 1.4-.4 2q-.15 1.05 0 1.8c.1.5.2 1 .3 1.2.1.4.2.6.2.6M52.6 135.7s-.1-.1-.2-.3-.3-.5-.4-.9c-.2-.8-.4-1.8-.4-2.9s.1-2.2.1-3c.1-.8.1-1.4.1-1.4s-.1.1-.1.4c-.1.2-.2.6-.3 1s-.2.9-.3 1.4c0 .3-.1.5-.1.8v.8c0 .6.1 1.1.2 1.7.1.5.3 1 .5 1.4s.5.7.6.8c.2.1.3.2.3.2"/><path fill="#8d674a" d="M78.2 89.8s-8.3 34-15.2 45.2c-2.2 3.6-18.7 25-17.7 28s6 9.2 4.1 10.4c-1.9 1.1-21.4-5.3-25.1-8.5-1.5-1.3-1.7-23.7 2.8-40 3.3-12.3 4.2-24.6 5.9-33.7s.6-25.7 5.8-31.7S56.6 45 70.6 55.7c13.8 10.7 9.6 28.2 7.6 34.1"/><path fill="#59402f" d="M42 171.9s.1-.3.1-.8-.2-1.2-.5-1.8-.7-1.1-1.1-1.5c-.4-.3-.7-.5-.7-.5s0 .1.1.2.2.3.3.5c.2.4.5 1 .8 1.5.3.6.5 1.1.7 1.6s.3.8.3.8M47.5 172.7s0-.4-.1-1-.3-1.3-.7-2c-.2-.3-.4-.7-.7-.9-.2-.3-.5-.5-.8-.7-.2-.2-.5-.3-.6-.4l-.2-.1.2.2c.1.1.3.3.4.5.3.4.8 1 1.1 1.6.4.6.7 1.3 1 1.8.3.7.4 1 .4 1"/><path fill="#6c5f57" d="M40.9 173.1c.1-.6-.3-3.4-1.5-3.6-1.1-.2-.6 1.1-.2 1.9.5.8 1.6 2.1 1.7 1.7M46.4 173.5c.1-.6-.3-3.4-1.5-3.6-1.1-.2-.6 1.1-.2 1.9.5.8 1.6 2.1 1.7 1.7M49.8 173.8c.1-.6-.3-3.4-1.5-3.6-1.1-.2-.6 1.1-.2 1.9.5.8 1.6 2.1 1.7 1.7"/><path fill="#8d674a" d="M31.8 101.5s-6.9 10.8-9.3 10.9c0 0 2.4 1.6 4-.1 0 0-4.2 2.2-4.9 6.7l2.8-1.2s-3.4 6.7-2.6 11l2.5-3.4s-2.7 6.7 1.8 9.9"/><path fill="#59402f" d="M22.7 112.3s.2 0 .5-.1.7-.4 1.2-.7c.9-.7 2-1.8 3-3 .5-.6.9-1.2 1.3-1.8s.7-1.2 1-1.6c.6-1 .9-1.7.9-1.7s-.5.6-1.2 1.5-1.6 2.1-2.6 3.2c-.5.6-.9 1.2-1.4 1.7s-.9 1-1.3 1.4-.7.7-1 .9c-.2.2-.4.2-.4.2M21.9 118.9s.2-.4.4-1c.3-.6.6-1.4 1.1-2.1.2-.4.5-.7.7-1s.5-.6.7-.8l.6-.6.2-.2s-.1 0-.3.1-.5.2-.7.4c-.3.2-.6.4-.9.8-.3.3-.6.7-.8 1.1l-.6 1.2c-.1.4-.2.8-.3 1.1-.1.6-.1 1-.1 1M22.1 128.2s-.2-.7-.1-1.7c0-.5.1-1.1.2-1.7s.3-1.3.5-1.9.4-1.3.6-1.9.4-1.2.6-1.6c.2-.5.3-.9.4-1.2s.2-.5.2-.5-.1.1-.3.4-.4.6-.7 1.1c-.2.5-.5 1-.8 1.6s-.5 1.3-.7 1.9c-.2.7-.3 1.4-.4 2q-.15 1.05 0 1.8c0 .5.2 1 .3 1.2.1.4.2.5.2.5M25.1 134.1s-.1-.1-.2-.3-.3-.5-.4-.9c-.2-.8-.3-1.8-.3-2.9s.1-2.2.2-3 .1-1.4.1-1.4-.1.1-.1.4c-.1.2-.2.6-.3 1s-.3.9-.3 1.4c0 .3-.1.5-.1.8s0 .6-.1.8c0 .6 0 1.1.1 1.7.1.5.3 1 .5 1.4s.4.7.6.8c.1.2.3.2.3.2"/><path fill="#59402f" d="M26 125.4s-.4 2.6-.9 6.6c-.2 2-.5 4.3-.8 6.8-.2 2.5-.5 5.1-.7 7.8s-.3 5.3-.4 7.8 0 4.8.1 6.8c.1 1 .2 1.9.4 2.7 0 .2.1.4.2.6s.1.4.3.5c.3.3.6.4.8.5 1 .5 1.7.8 1.7.8s-.6-.3-1.6-.9c-.2-.2-.5-.3-.7-.6-.1-.1-.1-.3-.2-.5s-.1-.4-.1-.6c-.2-.8-.2-1.7-.3-2.7-.1-2 0-4.3.1-6.8s.3-5.1.4-7.8q.3-4.05.6-7.8c.2-2.5.4-4.8.6-6.8.3-3.7.5-6.4.5-6.4M73.1 109.2s-1.1 3.9-3.2 9.6c-1 2.9-2.2 6.2-3.8 9.6-.8 1.7-1.6 3.5-2.6 5.2l-.8 1.2-.9 1.2-1.8 2.4c-2.4 3.3-4.8 6.5-6.9 9.7-2.2 3.1-4.1 6.1-5.5 8.8-.8 1.3-1.3 2.6-1.9 3.7-.3.5-.6 1-.7 1.6s0 1.1.2 1.5c.3.8.7 1.4 1 1.8s.4.6.4.6-.1-.2-.4-.6c-.2-.4-.6-1-.9-1.8-.1-.4-.3-.9-.1-1.4.1-.5.5-1 .8-1.5.7-1.1 1.2-2.3 2-3.6 1.5-2.6 3.5-5.5 5.7-8.6s4.6-6.3 7-9.6c.6-.8 1.2-1.6 1.8-2.5l.9-1.2.8-1.3c1-1.7 1.9-3.5 2.6-5.2.8-1.7 1.4-3.5 2-5.1s1.1-3.2 1.6-4.6c.9-2.9 1.6-5.3 2.1-7 .4-1.9.6-2.9.6-2.9"/><g fill="#8d674a"><path d="M163.3 91c1.6 22.8-3.1 29.7-2.5 36.2.7 6.5 6.5 29.9 8.5 32.4s6.5 5.1 7.9 8.1-23.6 4.5-26.8 3.3c-3.2-1.1-25.9-36.7-29.7-59.4-5-46.7 41-43.4 42.6-20.6"/><path d="M122.8 89.4s-4.7 11.9-7 12.4c0 0 2.7 1.1 3.9-.9 0 0-3.7 3-3.5 7.5l2.5-1.8s-2.1 7.2-.5 11.3l1.8-3.8s-1.4 7.1 3.7 9.4"/></g><g fill="#59402f"><path d="M115.2 102.3s.2 0 .5-.2.6-.5 1-1c.8-.9 1.6-2.2 2.2-3.6.3-.7.6-1.4.9-2 .3-.7.5-1.3.7-1.8.3-1.1.5-1.8.5-1.8s-.4.7-.9 1.7-1.1 2.4-1.8 3.7c-.3.7-.7 1.3-1 2-.3.6-.6 1.2-.9 1.7s-.6.9-.8 1.1c-.3.1-.4.2-.4.2M115.8 108.9s.1-.5.2-1.1.3-1.5.6-2.3c.1-.4.3-.8.5-1.2s.3-.7.5-1 .3-.5.4-.7.2-.3.2-.3-.1.1-.3.2-.4.3-.6.5-.5.6-.7.9l-.6 1.2c-.1.4-.2.9-.3 1.3q-.15.6 0 1.2c0 .9.1 1.3.1 1.3M118 118s-.3-.6-.4-1.6c-.1-.5-.1-1.1-.1-1.7v-2c0-.7.1-1.3.2-2 .1-.6.2-1.2.2-1.7.1-.5.1-.9.2-1.2v-.5l-.2.4c-.1.3-.3.7-.4 1.2s-.3 1.1-.4 1.7-.2 1.3-.3 2v2.1c.1.7.2 1.3.4 1.8s.4.9.5 1.2zM123.4 123.7s-.6-.3-1.2-1c-.3-.3-.6-.8-.8-1.3-.3-.5-.5-1.1-.6-1.7-.1-.3-.2-.6-.2-.9-.1-.3-.1-.6-.2-.9-.1-.6-.2-1.1-.3-1.6s-.1-.9-.2-1.1c0-.3-.1-.4-.1-.4s0 .2-.1.4c0 .3-.1.7-.1 1.2s0 1 .1 1.6c0 .3.1.6.1.9.1.3.1.6.2.9.2.6.4 1.2.8 1.8.1.3.4.5.5.7l.6.6c.4.3.8.5 1 .6.3.2.5.2.5.2"/></g><path fill="#59402f" d="m174.3 164.1-.1-.1-.4-.4c-.3-.3-.9-.7-1.6-1.3-.7-.5-1.5-1.2-2.3-2.1s-1.4-2.1-1.8-3.5c-1.5-5.7-4-13.3-5.6-21-.4-1.9-.8-3.9-1-5.8s-.4-3.8-.2-5.7c.2-3.7.8-7.1 1.3-10 .3-1.5.5-2.8.6-4s.2-2.3.2-3.1v-2.7.7c0 .5 0 1.1-.1 2s-.2 1.9-.4 3.1-.4 2.5-.7 4c-.6 2.9-1.3 6.3-1.5 10.1-.1 1.8 0 3.8.2 5.8s.6 3.9 1 5.8c.9 3.9 1.9 7.7 3 11.3s2.2 6.8 3 9.7c.4 1.4 1.2 2.7 2 3.5.8.9 1.7 1.5 2.4 2s1.3.9 1.6 1.2c.2.1.3.3.4.4zM170.1 170.1v-.8c-.1-.5-.3-1.1-.7-1.7s-.9-1-1.3-1.3-.7-.4-.7-.4 0 .1.1.2.2.3.3.5c.3.4.7.9 1 1.4.4.5.7 1 .9 1.4.3.4.4.7.4.7M175.3 169.1s0-.4-.1-.9-.5-1.2-.9-1.7c-.5-.5-1.1-1-1.5-1.2-.5-.2-.8-.3-.8-.3l.2.2c.1.1.3.2.5.4.4.3.8.8 1.2 1.3s.8 1 1.1 1.4c.2.5.3.8.3.8"/><path fill="#6c5f57" d="M169.2 171.4c0-.6-.9-3.3-2-3.3s-.4 1.1.1 1.9c.6.7 1.9 1.8 1.9 1.4M174.7 170.9c0-.6-.9-3.3-2-3.3s-.4 1.1.1 1.9 1.9 1.8 1.9 1.4M177.8 169.7c0-.6-.9-3.3-2-3.3s-.4 1.1.1 1.9 1.9 1.8 1.9 1.4"/><path fill="#59402f" d="M152.2 171.1s-.2.2-.7.1c-.4-.1-1.1-.3-1.7-.9-.7-.5-1.4-1.3-2.1-2.2s-1.5-2-2.3-3.2c-1.7-2.4-3.5-5.3-5.4-8.3-1.9-3.1-3.9-6.4-5.8-9.9-.9-1.7-1.9-3.4-2.7-5.1q-1.35-2.55-2.4-5.1c-1.5-3.3-2.7-6.5-3.7-9.2s-1.9-5-2.4-6.6-.8-2.6-.8-2.6.2 1 .7 2.6 1.2 4 2.2 6.7c.5 1.4 1 2.9 1.6 4.4.6 1.6 1.2 3.2 1.9 4.9q1.05 2.55 2.4 5.1c.8 1.7 1.7 3.5 2.7 5.2 1.9 3.4 3.9 6.8 5.8 9.8 2 3.1 3.9 5.9 5.6 8.3s3.3 4.3 4.7 5.3c.7.5 1.3.8 1.8.8.4.1.6-.1.6-.1"/><path fill="#8d674a" d="M173.2 22.2c20.3-2.8 43.1 9.1 46.2 14.7s3.7 18.8 3.7 18.8 20.5 10.8 20.1 15-7 14.1-15.3 14.7-15.4 1.5-25.1 1-27.1 1.6-35.9-8.2c0 0 1.2 4.3 2.9 5.5 0 0-11.4-2.6-8.4-13.5 0 0-2 1.8-1.4 7.5 0 0-6.1-6.2-2.2-15.2 0 0-2.7 4.9-5.4 4.9 0 0 2.6-3.8 2.5-10.3.1-6.4 1.3-32.5 18.3-34.9"/><path fill="#8d674a" d="M176.3 21.3c20.4-2 40.1 9.9 43.2 15.6s3.7 18.8 3.7 18.8 20.4 10.8 20 15-7 14.1-15.3 14.7-16.9 3.5-26.5 2.9-25.6-.2-34.4-10c0 0 1.2 4.3 2.9 5.5 0 0-11.4-2.6-8.4-13.5 0 0-2 1.8-1.4 7.5 0 0-6.1-6.2-2.2-15.2 0 0-2.7 4.9-5.4 4.9 0 0-4.5-15.2-4.6-21.7s14-23.1 28.4-24.5"/><path fill="#9e7b5c" d="M243.2 70.7c-.4 4-6.1 12.7-13.6 14.4-2.5-1.4-5.3-3.4-5.5-6.1 0 0-16.1-11.1-1.1-23.3.1.1 20.6 10.8 20.2 15"/><path fill="#332721" d="M242.3 73.9c.9-1.6 2.3-3.2 1.4-4.6-.5-.8-1.7-2.3-2.7-2.3s-2.5 3 .5 4.5c-.4 1.6.2 2.1.8 2.4"/><path fill="#59402f" d="M236.9 80.7s-.5-.3-1.3-.7c-.4-.2-.9-.3-1.4-.5-.5-.1-1.1-.3-1.7-.3-.6-.1-1.2-.1-1.8-.1s-1.1.1-1.5.2-.8.2-1 .3l-.4.2h.4c.3 0 .6-.1 1-.1h1.5c.5 0 1.1.1 1.7.1 1.1.1 2.3.3 3.1.5.8.3 1.4.4 1.4.4"/><ellipse cx="30.901" cy="34.1" fill="#332010" rx="1.7" ry="2.6" transform="rotate(-174.736 124.05 6.312)scale(1 -1)"/><path fill="#9e7b5c" d="M209.9 48.3c-.1 1.1 3 1.8 4.4 1.9s2.7-.6 2.8-1.7-1-2-2.4-2.2c-1.5-.1-4.7.9-4.8 2"/><path fill="#59402f" d="M223.1 55.8v-2.3c-.1-1.4-.1-3.5-.4-6-.1-1.2-.3-2.6-.6-4s-.6-2.9-1.2-4.3c-.3-.7-.6-1.5-1-2.2-.5-.7-.9-1.3-1.5-2-1.1-1.2-2.3-2.4-3.6-3.4s-2.7-1.9-4.1-2.7-2.8-1.6-4.2-2.2c-1.4-.7-2.8-1.2-4.1-1.7s-2.6-.9-3.8-1.3q-1.8-.6-3.3-.9c-1-.2-1.8-.5-2.5-.6-1.4-.3-2.2-.5-2.2-.5s.7.3 2.1.6c1.4.4 3.4 1 5.7 1.7 1.2.4 2.4.8 3.7 1.4 1.3.5 2.7 1.1 4.1 1.8s2.8 1.4 4.2 2.2 2.7 1.8 4 2.7q1.95 1.5 3.6 3.3c.5.6 1 1.2 1.4 1.9s.7 1.4 1 2.1c1.1 2.9 1.6 5.7 1.9 8.1.7 5 .8 8.3.8 8.3M169.9 83.8s-.3-.1-.7-.2c-.5-.1-1.1-.4-1.9-.8-.4-.2-.8-.4-1.2-.7-.4-.2-.8-.6-1.2-.9s-.8-.7-1.2-1.1-.7-.8-1-1.3c-.3-.4-.5-1-.8-1.4-.2-.5-.3-1-.5-1.5-.1-.5-.1-1-.2-1.5s0-.9 0-1.4c0-.4 0-.8.1-1.2 0-.3.1-.6.1-.9.1-.5.1-.8.1-.8s-.1.3-.2.8c-.1.2-.2.5-.2.9-.1.3-.2.7-.2 1.2 0 .4-.1.9-.1 1.4s0 1 .1 1.6c.2.5.2 1.1.5 1.6.2.5.4 1.1.8 1.6.3.5.7.9 1.1 1.4.4.4.9.8 1.3 1.1.9.6 1.8 1.1 2.6 1.4 1.5.7 2.7.7 2.7.7M160.1 77.8s-.7-.7-1.5-2.1c-.2-.3-.4-.7-.6-1.1s-.4-.8-.5-1.3c-.1-.2-.2-.4-.2-.7-.1-.2-.1-.5-.2-.7l-.3-1.5c-.1-.5-.1-1-.1-1.5s0-1 .1-1.5.1-.9.2-1.4l.3-1.2c.1-.4.2-.7.3-1s.2-.6.2-.8c.1-.4.2-.7.2-.7l-.3.6c-.1.2-.2.5-.4.7-.2.3-.3.6-.4 1s-.3.8-.4 1.2-.2.9-.3 1.4c0 .5-.1 1-.1 1.5s0 1 .1 1.6l.3 1.5c.1.2.1.5.2.7s.2.5.3.7c.2.5.4.9.6 1.3s.5.7.7 1.1c.5.6.9 1.1 1.3 1.4.3.6.5.8.5.8M152.6 67.5s.2-.2.4-.5c.2-.4.6-.9.9-1.6s.6-1.5.8-2.4.4-1.9.5-2.8c.1-.5.1-1 .1-1.5s.1-1 .1-1.4c.1-.9 0-1.8 0-2.5s-.1-1.3-.1-1.8c0-.4-.1-.7-.1-.7s0 .2-.1.7c0 .4-.1 1-.1 1.8 0 .7-.1 1.6-.2 2.5s-.2 1.9-.3 2.8c-.1 1-.2 1.9-.4 2.8q-.3 1.35-.6 2.4c-.2.7-.4 1.2-.6 1.6zM179 21.3s-.4-.1-1.1-.2h-1.2c-.5 0-1 .1-1.6.2s-1.2.2-1.9.4c-.6.2-1.3.3-2 .6-.7.2-1.4.5-2.1.8s-1.4.7-2.1 1-1.4.8-2 1.1c-.7.4-1.3.8-1.9 1.2-1.2.8-2.3 1.6-3.2 2.3-.5.3-.9.7-1.2 1-.4.3-.7.6-.9.8-.5.4-.8.7-.8.7l.9-.6c.3-.2.6-.4 1-.7s.8-.6 1.3-.9 1-.7 1.6-1c.5-.4 1.2-.7 1.8-1.1s1.2-.8 1.9-1.1c.7-.4 1.3-.8 2-1.1s1.4-.7 2.1-1 1.4-.6 2-.9c1.3-.5 2.6-.9 3.8-1.2.6-.1 1.1-.2 1.6-.3s.9-.1 1.2-.1c.4 0 .8.1.8.1"/><path fill="#8d674a" d="M192 24.2s-1.7-8.2-6.3-8.8-15.3 3.9-7.2 16.6"/><path fill="#59402f" d="M185.5 17.9s-.4.6-.7 1.5c-.2.5-.4 1-.5 1.6-.2.6-.3 1.2-.3 1.9v1c.1.3.1.7.2 1l.3.9c.1.3.2.5.4.7.3.4.5.7.8.9l.3.3s-.1-.1-.2-.4c-.1-.1-.2-.3-.3-.4l-.3-.6c-.1-.2-.2-.5-.2-.7-.1-.3-.1-.5-.2-.8s-.1-.6-.1-.9V23c0-.6.1-1.3.2-1.8.1-.6.2-1.1.3-1.6.1-1.1.3-1.7.3-1.7"/><g fill="#59402f"><path d="M183.2 26.9s0 .2.1.3c.1.2.2.4.4.6s.4.4.6.5.3.1.3.1 0-.2-.1-.3c-.1-.2-.2-.4-.4-.6s-.4-.4-.6-.5c-.1-.1-.3-.1-.3-.1M182 28.2s0 .1.1.3.2.3.3.5c.1.1.3.3.5.3.2.1.3.1.3.1s0-.1-.1-.3-.2-.3-.3-.5c-.1-.1-.3-.3-.5-.3-.1-.1-.3-.1-.3-.1"/></g><path fill="#59402f" d="M179.1 17s.3-.1.7-.4c.5-.2 1.2-.5 2-.7.2-.1.4-.1.7-.2.2 0 .5-.1.7-.1h1.6c.3 0 .5.1.8.1.2.1.4.2.7.3s.5.2.8.3c.2.1.5.2.7.4.4.4.9.7 1.2 1.1.4.4.7.8 1 1.3.2.5.6.9.7 1.4.2.5.4.9.6 1.3s.3.8.4 1.1l.3.9c.2.5.3.8.3.8s0-.3-.1-.8c0-.3-.1-.6-.2-.9-.1-.4-.1-.8-.3-1.2-.1-.4-.3-.9-.5-1.4-.2-.3-.5-.8-.8-1.3-.2-.5-.6-1-1-1.5-.3-.5-.9-.9-1.3-1.3-.2-.2-.5-.3-.8-.5-.3-.1-.5-.3-.8-.4s-.6-.2-.9-.2-.6-.1-.9-.1h-.8c-.3 0-.5 0-.8.1s-.5.1-.7.2-.5.2-.7.2c-.4.1-.8.3-1.1.5s-.6.3-.8.5c-.5.4-.7.5-.7.5"/></g></svg>