<svg xmlns="http://www.w3.org/2000/svg" xml:space="preserve" width="19.491" height="47.3" viewBox="2.209 0.4 19.491 47.3"><title>crystal-b</title><g fill-rule="nonzero"><path fill="#8644b3" d="M3.1 44.4s-1-29.7.2-33.8c0 0 4.3-7 11.1-9.7 0 0 4.8 6.8 6.8 12.8 0 0-9.2 29.4-10.6 31.4 0 0-3.1 1.7-5.1 1.9.1.1-2.4-1.1-2.4-2.6"/><path fill="#ea8be5" d="M3.4 10.7s2.2 5.1 5.6 7l5.4-16.6c-6.7 2.6-11 9.6-11 9.6"/><path fill="#ea8be5" d="M3.4 10.7s2.2 5.1 5.6 7l5.4-16.6c-6.7 2.6-11 9.6-11 9.6"/><path fill="#ad59c2" d="M21.2 13.8C19.3 7.8 14.5 1 14.5 1s-.1 0-.1.1L8.9 17.7s5.8-1.2 12.1-3.1c.2-.6.2-.8.2-.8"/><path fill="#ad59c2" d="M3.4 10.7c-1.2 4.1-.2 33.8-.2 33.8 0 1.4 2.4 2.7 2.4 2.7L9 17.8z"/><path fill="#ea8be5" d="M8.9 17.7s-.1 1.6-.3 4c-.1 1.2-.3 2.6-.4 4.1-.2 1.5-.3 3.1-.5 4.6-.2 1.6-.4 3.2-.6 4.6-.2 1.5-.4 2.9-.5 4-.4 2.3-.6 3.9-.6 3.9s.1-1.6.3-4c.1-1.2.3-2.6.4-4.1.2-1.5.3-3.1.5-4.6.2-1.6.4-3.2.6-4.6.2-1.5.4-2.9.5-4 .4-2.4.6-3.9.6-3.9"/><path fill="#a546bd" d="M3.1 44.4c0 1.4 2.4 2.7 2.4 2.7l.4-3.3c-1.2.3-2.8.6-2.8.6"/><path fill="#7c36ab" d="M7.2 43.6c-.2 0-.7.1-1.3.2l-.4 3.3c1.9-.2 5.1-1.9 5.1-1.9S8 43.5 7.2 43.6"/><path fill="#6b348f" d="M5.6 47.1c.9-.2 1.8-.5 2.6-.8s1.6-.7 2.3-1.3l-.1.1c.6-2 1.3-4 2-6s1.3-4 2-5.9c1.4-4 2.8-7.9 4.3-11.8q-1.8 6-3.9 12c-.7 2-1.4 4-2 5.9-.7 2-1.4 4-2.1 5.9-.8.5-1.6.9-2.5 1.2-.9.4-1.7.6-2.6.7"/><path fill="#e17de3" d="m8.9 17.7 2.4-7.4c-3.4 0-8 .4-8 .4s2.3 5 5.6 7"/><path fill="#9b4dae" d="m11.3 10.3-2.4 7.4s5.8-1.2 12.1-3.1c.1-.5.2-.7.2-.7 0-.1-.1-.3-.1-.4-2.2-1.1-5.5-2.6-6.4-2.9-.4-.3-1.8-.3-3.4-.3"/><path fill="#6b348f" d="M21 14.5s-.6.3-1.4.6c-.9.3-2 .7-3.2 1.1-1.2.3-2.4.6-3.3.8s-1.5.2-1.5.2.1 0 .4-.1.6-.2 1.1-.3c.9-.3 2-.6 3.2-1 1.2-.3 2.4-.7 3.3-.9.8-.3 1.4-.4 1.4-.4"/><path fill="#ffbcfc" d="m14.4 1.1-.5 2c-.3 1.2-.8 2.8-1.3 4.4s-1.1 3.2-1.6 4.4-.8 2-.8 2l.5-2c.3-1.3.8-3 1.3-4.5.5-1.6 1.1-3.2 1.6-4.4.4-1.2.8-1.9.8-1.9"/></g></svg>