<svg xmlns="http://www.w3.org/2000/svg" xml:space="preserve" width="117.619" height="140.549" viewBox="-0.131 -0.227 117.619 140.549"><title>Slice 1</title><g fill-rule="evenodd"><g fill-rule="nonzero"><path fill="#005a61" d="M.499 66.547c0-17.516 14.209-31.717 31.736-31.717 17.526 0 31.735 14.201 31.735 31.717v30.599H36.647V66.952a4.41 4.41 0 0 0-4.412-4.41 4.41 4.41 0 0 0-4.413 4.41v30.194H.499z"/><path fill="#17242d" d="M32.235 43.905c12.398 0 22.485 10.08 22.485 22.472v23.067h-.838V66.377c0-11.929-9.711-21.634-21.647-21.634s-21.646 9.705-21.646 21.634v30.769h-.84v-30.77c0-12.391 10.087-22.471 22.486-22.471"/><path fill="#17242d" d="M18.05 97.146V67.134c0-7.817 6.363-14.177 14.185-14.177 7.821 0 14.186 6.36 14.186 14.177v22.31h-.84v-22.31c0-7.355-5.986-13.338-13.346-13.338s-13.348 5.983-13.348 13.338v30.012z"/></g><path fill="none" stroke="#ffdb5d" stroke-width="1.26" d="m76.79 123.17 19.538 16.522M85.318 139.658c2.595 0 2.595-2.515 5.19-2.515s2.595 2.515 5.189 2.515c2.595 0 2.595-2.515 5.191-2.515s2.595 2.515 5.192 2.515"/><path fill="#751d18" fill-rule="nonzero" d="M66.352 114.295a8.033 8.033 0 0 1 3.887-10.677 8.04 8.04 0 0 1 10.683 3.885 8 8 0 0 1 .747 3.37l.006-.001.197 14.56c.017 1.228-1.425 1.902-2.357 1.102l-11.064-9.505a8 8 0 0 1-2.1-2.734"/><path fill="#17242d" fill-rule="nonzero" d="M36.635 89.484c0-7.729 6.269-13.995 14.003-13.995l3.297-.002c.047-.002.098-.01.143-.01h50.503s.01 8.412.01 9.527c0 3.694-1.563 10.043-6.613 14.337-11.255 9.57-24.573 21.964-24.573 21.964z"/><path fill="none" stroke="#ffdb5d" stroke-width="1.26" d="M48.347 139.66c2.595 0 2.595-2.515 5.189-2.515 2.595 0 2.595 2.515 5.189 2.515 2.595 0 2.595-2.515 5.191-2.515s2.596 2.515 5.19 2.515M58.867 120.316v19.26"/><path fill="#751d18" fill-rule="nonzero" d="M50.828 108.258c0-4.437 3.6-8.035 8.039-8.035a8.037 8.037 0 0 1 8.038 8.035 8 8 0 0 1-.748 3.37l.006.001-5.98 13.277c-.504 1.121-2.096 1.123-2.602.003l-6.007-13.287a8 8 0 0 1-.746-3.364"/><path fill="#b85c39" fill-rule="nonzero" d="M25.866 98.404c5.19-17.994 23.995-28.375 41.999-23.188l.714.205-3.214 11.143c-5.304 18.388-24.52 28.998-42.918 23.697z"/><path fill="#ad2c24" fill-rule="nonzero" d="m22.447 110.261.004-.016 13.975-13.77 19.494 5.617c-8.625 8.17-21.227 11.697-33.473 8.17"/><path fill="none" stroke="#751d18" stroke-width=".6" d="m27.197 110.924 13.282-13.05M32.014 111.312 44.51 99.034M37.744 110.803l10.796-10.607M45.007 108.787l7.563-7.43"/><path fill="#573a3c" fill-rule="nonzero" d="M51.673 86.775a6.581 6.581 0 0 1-11.998-5.155 6.54 6.54 0 0 1 2.785-3.712c7.524-4.024 16.56-5.24 25.405-2.692l.714.206-3.214 11.142a35 35 0 0 1-.789 2.376l-.044-.017a6.58 6.58 0 0 1-12.86-2.148"/><g fill-rule="nonzero"><path fill="#de7732" d="M104.58 14.17v71.117c0 9.955-8.073 18.025-18.033 18.025s-18.035-8.07-18.035-18.025V50.218c0-19.909 16.148-36.048 36.069-36.048"/><path fill="#e8441d" d="M68.535 86.17V49.334c.248-10.325 4.834-19.574 12.015-25.992v45.02c0 8.14-4.944 15.126-11.994 18.124q-.013-.159-.022-.318M80.55 23.343a36.05 36.05 0 0 1 12.015-7.116v52.136c0 8.149-4.953 15.14-12.015 18.133zM92.565 86.496v-70.27a36 36 0 0 1 12.016-2.056v54.193c0 8.149-4.954 15.14-12.016 18.133"/></g><path fill="#ce2235" fill-rule="nonzero" d="M90.65 3.932a6.44 6.44 0 0 1 5.382 2.898l.303.413c.429.587 1.358.284 1.358-.443V2.604a2.202 2.202 0 0 1 4.404 0v3.69c0 .73.943 1.024 1.357.424l2.846-4.119c.574-.832 1.878-.425 1.878.585v6.87c.069-.002.137-.01.206-.01a6.599 6.599 0 1 1 0 13.196c-.123 0-.243-.01-.364-.018h-4.534v-2.167c-.047-.053-.098-.103-.143-.157l-8.585-1.947-1.342-2.76a6.4 6.4 0 0 1-2.766.63 6.447 6.447 0 0 1-6.448-6.444 6.446 6.446 0 0 1 6.448-6.445M99.167 34.51a7.616 7.616 0 0 0 7.618 7.616 7.617 7.617 0 0 0 7.62-7.615 7.62 7.62 0 0 0-7.62-7.615 7.617 7.617 0 0 0-7.618 7.615"/><path fill="#ffdb5d" fill-rule="nonzero" d="M116.858 26.862H95.175c.61-2.092 2.547-3.633 4.83-3.633h12.023c2.283 0 4.22 1.541 4.83 3.633"/><path fill="#ad2c24" fill-rule="nonzero" d="M88.402 24.522c0 5.169 4.193 9.36 9.366 9.36s9.367-4.191 9.367-9.36c0-5.17-4.194-9.362-9.367-9.362S88.4 19.35 88.4 24.522"/><path fill="#fff4e3" fill-rule="nonzero" d="M93.266 24.522a4.5 4.5 0 0 0 4.502 4.498 4.5 4.5 0 1 0 0-8.998 4.5 4.5 0 0 0-4.502 4.5"/><path fill="#17242d" fill-rule="nonzero" d="M94.695 24.522a3.072 3.072 0 0 0 6.145 0 3.072 3.072 0 0 0-6.145 0"/><path fill="none" stroke="#751d18" stroke-width=".6" d="M103.15 28.084 96.86 31.75"/></g></svg>