<svg xmlns="http://www.w3.org/2000/svg" width="84.851" height="113.209" viewBox="0.574 -0.115 84.851 113.209"><path fill="#c47814" d="M67.252 5.181c4.272-1.635 8.952.613 10.896 5.217a8.89 8.89 0 0 0-6.9-9.532c-6-1.527-11.004 2.163-10.2 8.138l1.644 1.31a8.1 8.1 0 0 1 4.56-5.133"/><path fill="#e69724" d="M67.252 5.181a8.1 8.1 0 0 0-4.56 5.133l8.112 6.432a6.86 6.86 0 0 0 6.348-3.186 7.4 7.4 0 0 0 .996-3.162c-1.944-4.604-6.624-6.792-10.896-5.217"/><path fill="none" stroke="#723e0a" stroke-linecap="round" stroke-linejoin="round" stroke-width=".96" d="M71.248.866c-6-1.527-11.004 2.163-10.2 8.138l1.644 1.31 8.112 6.432a6.86 6.86 0 0 0 6.348-3.186 7.4 7.4 0 0 0 .996-3.162 8.89 8.89 0 0 0-6.9-9.532"/><path fill="none" stroke="#723e0a" stroke-linecap="round" stroke-linejoin="round" stroke-width="1.272" d="M72.412 9.485a7.77 7.77 0 0 0-6.708 3.221"/><path fill="#c47814" d="M18.748 5.181c-4.272-1.635-8.952.613-10.896 5.217a8.89 8.89 0 0 1 6.9-9.532c6-1.527 11.004 2.163 10.2 8.138l-1.644 1.31a8.1 8.1 0 0 0-4.56-5.133"/><path fill="#e69724" d="M18.748 5.181a8.1 8.1 0 0 1 4.56 5.133l-8.112 6.432a6.86 6.86 0 0 1-6.348-3.186 7.4 7.4 0 0 1-.996-3.162c1.944-4.604 6.624-6.792 10.896-5.217"/><path fill="none" stroke="#723e0a" stroke-linecap="round" stroke-linejoin="round" stroke-width=".96" d="M14.752.866c6-1.527 11.004 2.163 10.2 8.138l-1.644 1.31-8.112 6.432a6.86 6.86 0 0 1-6.348-3.186 7.4 7.4 0 0 1-.996-3.162 8.89 8.89 0 0 1 6.9-9.532"/><path fill="none" stroke="#723e0a" stroke-linecap="round" stroke-linejoin="round" stroke-width="1.272" d="M13.588 9.485a7.77 7.77 0 0 1 6.708 3.221"/><path fill="#c47814" d="M11.896 23.916C14.848 18.302 19.912 12.448 24.244 8 15.532 12.315 8.74 19.853 4.828 30.047c-4.98 13.031-4.8 31.255.42 38.468C2.8 46.131 6.436 34.326 11.896 23.916"/><path fill="#e69724" d="M74.02 25.106A64.7 64.7 0 0 0 57.844 6.317 43.3 43.3 0 0 0 43 3.792 41.95 41.95 0 0 0 24.244 8c-4.332 4.448-9.396 10.302-12.348 15.916-5.46 10.41-9.096 22.215-6.648 44.599a7.8 7.8 0 0 0 3.18 2.717c5.7 2.404 9.288-2.717 9.012-8.932-.18-4.292-.324-7.886 2.532-12.19 1.92-2.873 5.22-4.808 9.6-6.01a14.93 14.93 0 0 1-1.908-10.904C29.092 24.95 36.436 22.053 43 22.053s13.908 2.897 15.336 11.143A15 15 0 0 1 56.44 44.1c4.38 1.202 7.668 3.161 9.6 6.01 2.856 4.304 2.712 7.898 2.532 12.19-.264 6.215 3.312 11.348 9.012 8.932a7.1 7.1 0 0 0 2.4-1.803c2.076-17.059.924-31.965-5.964-44.323"/><path fill="#f8b547" d="M81.172 30.047C76.696 18.362 68.44 10.188 57.844 6.317A64.7 64.7 0 0 1 74.02 25.106c6.888 12.358 8.04 27.264 6 44.371 5.916-6.504 6.36-25.774 1.152-39.43"/><path fill="#fff" stroke="#db20a5" stroke-width="1.272" d="M11.008 71.982s0 13.043 6.468 29.897"/><path fill="#723e0a" stroke="#723e0a" stroke-linecap="round" stroke-linejoin="round" stroke-width=".96" d="M19.084 100.797c1.606 0 3.061.653 4.114 1.709a5.82 5.82 0 0 1 1.706 4.121 5.82 5.82 0 0 1-1.706 4.122 5.8 5.8 0 0 1-4.114 1.709 5.8 5.8 0 0 1-4.114-1.709 5.82 5.82 0 0 1-1.706-4.122c0-1.608.652-3.066 1.706-4.121a5.8 5.8 0 0 1 4.114-1.709"/><path fill="#fff" stroke="#db20a5" stroke-width="1.272" d="M74.992 71.982s0 13.043-6.468 29.897"/><path fill="#723e0a" stroke="#723e0a" stroke-linecap="round" stroke-linejoin="round" stroke-width=".96" d="M66.916 100.797c1.606 0 3.061.653 4.114 1.709a5.82 5.82 0 0 1 1.706 4.121 5.82 5.82 0 0 1-1.706 4.122 5.8 5.8 0 0 1-4.114 1.709 5.8 5.8 0 0 1-4.114-1.709 5.82 5.82 0 0 1-1.706-4.122c0-1.608.652-3.066 1.706-4.121a5.8 5.8 0 0 1 4.114-1.709"/><path fill="#fff" d="M58.348 33.292a12.62 12.62 0 0 0-9.096-10.182 17.7 17.7 0 0 1 5.916 9.004c1.128 4.147-.084 8.895-1.008 11.564h.3q1.032.217 1.98.469a14.93 14.93 0 0 0 1.908-10.855"/><path fill="#ffecbb" d="M55.168 32.114a17.7 17.7 0 0 0-5.916-9.004l-.516-.169A20.8 20.8 0 0 0 43 22.148c-6.564 0-13.908 2.897-15.348 11.144a15.05 15.05 0 0 0 1.908 10.903A52 52 0 0 1 43 42.704a56.6 56.6 0 0 1 11.148.974c.936-2.669 2.148-7.417 1.02-11.564"/><path fill="#723e0a" stroke="#723e0a" stroke-linecap="round" stroke-linejoin="round" stroke-width=".96" d="M35.008 11.774c.791 0 1.508.455 2.027 1.191.52.735.841 1.751.841 2.872s-.321 2.137-.841 2.872c-.519.736-1.236 1.191-2.027 1.191s-1.508-.455-2.027-1.191c-.52-.735-.841-1.751-.841-2.872s.321-2.137.841-2.872c.519-.736 1.236-1.191 2.027-1.191"/><path fill="#fff" stroke="#fff" stroke-width=".5" d="M34.24 13.541c.331 0 .631.135.848.352.218.218.352.518.352.85s-.134.632-.352.85a1.196 1.196 0 0 1-1.696 0 1.2 1.2 0 0 1-.352-.85c0-.332.134-.632.352-.85s.517-.352.848-.352Z"/><path fill="#723e0a" stroke="#723e0a" stroke-linecap="round" stroke-linejoin="round" stroke-width=".96" d="M50.992 11.774c.791 0 1.508.455 2.027 1.191.52.735.841 1.751.841 2.872s-.321 2.137-.841 2.872c-.519.736-1.236 1.191-2.027 1.191s-1.508-.455-2.027-1.191c-.52-.735-.841-1.751-.841-2.872s.321-2.137.841-2.872c.519-.736 1.236-1.191 2.027-1.191"/><path fill="#fff" stroke="#fff" stroke-width=".5" d="M50.224 13.541c.331 0 .631.135.848.352.218.218.352.518.352.85s-.134.632-.352.85a1.196 1.196 0 0 1-1.696 0 1.2 1.2 0 0 1-.352-.85c0-.332.134-.632.352-.85s.517-.352.848-.352Z"/><path fill="none" stroke="#723e0a" stroke-linecap="round" stroke-linejoin="round" stroke-width=".96" d="M35.956 35.973s1.56 3.678 7.044 3.678 7.044-3.702 7.044-3.702M43 33.003v6.672"/><path fill="#5e154d" stroke="#5e154d" stroke-linecap="round" stroke-linejoin="round" stroke-width=".96" d="M43 25.214c1.394 0 2.657.436 3.571 1.141s1.481 1.679 1.481 2.753-.566 2.049-1.481 2.754c-.914.705-2.177 1.141-3.571 1.141s-2.657-.436-3.571-1.141-1.481-1.679-1.481-2.754.566-2.048 1.481-2.753c.914-.705 2.177-1.141 3.571-1.141"/><path fill="none" stroke="#fff" stroke-linecap="round" stroke-linejoin="round" stroke-width=".96" d="M46.684 28.64c.108.204.156.3.228.468M43 26.524a4.9 4.9 0 0 1 2.652.901"/><path fill="none" stroke="#723e0a" stroke-linecap="round" stroke-linejoin="round" stroke-width=".96" d="M81.172 30.197C74.776 13.452 60.652 3.907 43 3.907s-31.776 9.545-38.172 26.29C-1.016 45.501.256 67.92 8.428 71.394c5.7 2.405 9.276-2.716 9.012-8.931-.18-4.292-.324-7.886 2.532-12.19 1.92-2.873 5.22-4.809 9.6-6.011A52 52 0 0 1 43 42.748c4.526-.091 9.044.41 13.44 1.49 4.368 1.202 7.668 3.162 9.6 6.011 2.844 4.328 2.7 7.922 2.52 12.262-.264 6.215 3.312 11.36 9.012 8.931 8.172-3.522 9.444-25.941 3.6-41.245"/></svg>