<svg xmlns="http://www.w3.org/2000/svg" width="82.706" height="79.32" viewBox="-0.5 -0.5 82.706 79.32"><path fill="#0cc" d="M75.58 70.5c-2.4 1.65-5.27 2.6-8.3 2.76-.42.03-.83.03-1.24 0-1.49-.08-4.08-.06-7.43.08-1.92.24-4.37.37-7.6.38-.26.04-.59.09-.99.16-2.51.42-4.38.53-6.08.41a12.2 12.2 0 0 1-8.11 3.97c-.1.01-.19.01-.29.02-.53.03-1.06.04-1.57.04-3.27 0-6.27-.61-8.9-1.82-.06-.02-.12-.05-.18-.08-.25-.08-.97-.29-2.44-.6-1.42-.23-3.44-.57-6.09-1.03-1.33-.22-2.75-.45-4.2-.68-.4-.06-.79-.15-1.18-.26C4.53 72.08.35 66.95.35 60.79c0-1.65.33-3.3.97-4.9.43-1.06 1.02-2.05 1.75-2.93 1.14-1.36 2.91-3.23 5.61-4.34 2.65-1.16 5.55-1.76 8.63-1.77.87-1.6 1.16-2.05 1.43-2.46.41-.61 1.14-1.67 2.91-4.08-.83-1.1-1.72-2.29-2.68-3.57-.04-.06-.07-.11-.11-.16-.91-1.27-2.24-3.08-3.96-5.41-.4-.02-.77-.04-1.12-.08l-.27-.03C3.34 29.79.89 22.73.33 20.14.11 19.1 0 18.07 0 17.06c0-4.85 2.47-9.25 6.76-11.74 2.5-1.46 5.36-2.32 8.47-2.57q.435-.03.87-.03c1.08 0 2.15-.03 3.18-.08h.12c1.44-.05 3.59-.16 6.44-.31.39-.06.81-.15 1.24-.24.31-.07.63-.12.94-.16 2.11-.26 3.89-.33 5.33-.24 2.17.11 4.16.68 5.88 1.63 2.08-1.3 4.61-2.14 7.56-2.52 2.96-.37 6.19-.54 9.95-.54.48 0 1.78-.02 5.16-.16.07-.01.13-.01.2-.01C64.6.03 66.5 0 67.91 0c.47 0 .93.03 1.39.09 2.58.32 6.28 1.66 9.3 6.14 1.26 1.86 2.98 5.53 1.68 10.61-1.04 4.54-3.67 7.03-5.43 8.23-2.37 1.65-5.24 2.46-8.76 2.46-.6 0-1.22-.03-1.87-.07-2.17 3.17-4.72 6.95-7.62 11.33 1.56 1.95 3.32 4.18 5.3 6.69h.6l4.09-.17c.27-.01.54-.01.8 0 8.27.27 11.62 4.88 12.88 7.61.05.09.09.19.13.29.49 1.13.84 2.28 1.05 3.42 1.05 5.42-1.18 10.71-5.87 13.87"/><path fill="#fff" d="M70.64 58.674q.35 1.672-1.232 2.727-1.144.792-2.727.88-2.991-.176-9.06.088-2.288.352-7.213.352-.352 0-2.199.309t-2.902.308q-3.958 0-3.343-3.782 1.32-1.584 3.431-1.892t4.135-.571q-2.464-3.342-10.292-12.666-2.465 2.638-5.717 7.916a807 807 0 0 1-4.398 7.125q1.055.97 4.662 1.583 2.725.442 3.254 2.902-.088-.263-.527.792 0 .353-.088.968-.44 1.496-1.495 1.583-3.166.177-5.278-.791-1.319-.704-5.189-1.495-2.11-.35-6.245-1.057a863 863 0 0 0-4.31-.703q-2.552-.703-2.552-2.463 0-.35.177-.792.878-1.054 1.407-1.231 3.253-1.494 7.828-.527 1.407.264 2.375.264.79-.791 2.375-3.694 2.023-3.781 2.375-4.311 1.407-2.11 7.564-10.291-2.816-3.518-7.652-10.027-1.76-2.462-5.63-7.652-1.847-2.375-2.199-2.375h-2.374q-1.848.088-2.728 0-3.43-.428-3.782-2.316-.441-2.056 1.188-3 1.627-.944 3.826-1.116 1.847.001 3.694-.085a473 473 0 0 0 7.213-.344 41 41 0 0 0 2.375-.439q2.11-.263 3.343-.176 2.198.089 2.199 2.375-.001 1.495-.88 2.551-.968.352-2.507.659a74 74 0 0 1-4.002.66q-.264.617 1.319 2.551 2.285 2.902 2.463 3.166 1.495 2.376 3.87 5.19a727 727 0 0 1 3.782 4.75q3.254-3.694 6.685-8.797l5.102-7.916q.264-.35.265-1.056a9.5 9.5 0 0 0-1.319-.088q-.529 0-1.451.132-.924.132-1.276.132-1.583 0-2.99-1.935-.527-2.726 4.222-3.343 3.606-.44 8.532-.439 1.495 0 5.63-.177 3.514-.09 5.538-.09.703.09 1.584 1.407.438.616.088 1.848-.264 1.32-.97 1.759-.969.705-4.049.44-2.025-.176-6.162.088-5.46 7.747-15.405 22.888 3.878 4.744 11.549 14.491l.879 1.41q.704 1.058 1.407 1.145h5.891l4.311-.176q2.725.09 3.253 1.231.262.616.352 1.143"/></svg>