<svg xmlns="http://www.w3.org/2000/svg" width="46.756" height="62.792" viewBox="0.058 0.078 46.756 62.792"><path fill="#dcd2b4" d="M9.78 36.587c-2.044-2.018-2.477-2.835-3.431-4.96-.937-2.086-1.266-4.407-1.634-6.651-.396-2.416-.265-8.077-.844-8.116s.107 2.293-.516 2.331c-.623.039-.487-2.331-.947-2.434s-.221 2.559-.896 2.434c-.365-.067-.362-2.062-.674-1.985-.311.077-.718 10.3.974 14.383s3.483 6.346 6.029 8.37c1.638 1.3 7.15 3.054 7.228.514s-3.244-1.869-5.289-3.886"/><path fill="#aaa082" d="M5.205 18.874c-.368-.183-.862 1.202-.862 1.202-.445.074-1.58.35-1.626 1.201-.056 1.05 1.095 2.353 1.823 1.202 0-.022 1.032-3.42.665-3.605M40.748 54.35s-.596-1.978-.671-1.841l-.73 3.124s-.222.978-.027 1.156c.131.12.679-.721 1.015-1.528l.014-.036z"/><path fill="#dcd2b4" d="M40.162 56.977c.066.872 0 1.55.185 1.547.185-.002.331-.567.414-1.093.051-.325.104-.572.199-.591.244-.049.144 1.908.521 1.857s.153-1.833.652-2.011.093 1.682.73 1.547c.178-.041.263-2.009.387-4.236.154-2.697.22-7.827.244-12.446 0 0 .698-3.936-2.178-3.487s-1.441 15.072-1.154 18.913"/><path fill="#aaa082" d="M18.282 44.311c-1.991 4.273-6.776 14.659-7.153 15.291-.631-.26-.821-.99-1.517-1.185l-.36.361c.038.293.22.548.487.682.394.291.791.577 1.183.87.645.481.591.481 1.239.961q.123.069.26.111c.146-.077 7.864-11.369 9.838-14.289 0 0 2.292-3.364-.358-4.626s-3.619 1.824-3.619 1.824M34.834 61.198c.392-.868 2.249-11.398 3.074-16.257 0 0 1.018-4.242-2.691-4.242-3.71 0-2.863 4.138-2.863 4.138.185 5.907.183 17.288.348 17.42.305.137 2.434-.185 3.164.113.327-.053.624-.118.621-.533-.153-.113-1.297.06-1.779-.219q.051-.214.126-.42"/><path fill="#f0e6d2" d="M45.439 23.315c-1.631-7.546-5.282-16.596-12.413-20.573C31.247 1.75 28.945.543 26.849.579a10.6 10.6 0 0 0-3.651.897c-.708.334-4.471 3.465-5.04 4.248-3.164 4.367-4.445 9.339-6.146 13.801-1.287 3.365-1.966 6.969-2.568 10.521-.425 2.507-.825 5.611-.321 8.118 1.234 6.123 6.109 11.294 12.006 13.039.906.269 3.931 1.509 7.789 1.552 3.198.036 7.421-1.052 7.615-1.136 7.18-3.047 9.047-11.756 9.393-14.142a41.7 41.7 0 0 0-.487-14.162"/><path fill="linen" d="M13.356 41.593c1.382 2.855 3.67 6.123 6.739 7.041.764.24 1.748.495 2.524.281.464-.15.894-.386 1.268-.697a13 13 0 0 0 1.443-2.162c.73-2.038.699-4.139.876-6.075a24 24 0 0 0-.121-4.434c-.098-1.038-.268-2.314-.713-3.266-1.088-2.326-3.435-3.927-5.815-4.085a9 9 0 0 0-3.067.11c-.954.272-1.869.664-2.723 1.166-2.363 1.886-2.166 5.527-2.052 6.517a18.3 18.3 0 0 0 1.641 5.604"/></svg>