<svg xmlns="http://www.w3.org/2000/svg" width="42.459" height="165.36" viewBox="0.068 0.168 42.459 165.36"><path fill="#faec00" d="M40.309 52.714 26.056 59.7l10.343-32.192-14.496 7.242 5.548-31.54-25.298.001 1.262 51.664 9.956-6.338-7 34.401 11.432-8.464-5.028 42.125 7.325-7.589-4.262 48.101L36.77 89.164l-10.264 7.285z"/><path fill="#231f20" d="m42.196 50.478-12.164 5.03L39.21 24.67l-13.38 5.795 4.866-28.417L.4.5l1.105 58.824 8.36-6.162L4.16 86.596l11.555-6.74-5.363 41.995 5.864-5.154-1.751 48.5 27.732-82.432-10.781 7.408zM35.56 90.836l-18.508 60.077 3.876-43.715-7.26 7.521 4.975-41.694-11.278 8.35 6.966-34.236-10.283 6.545-1.216-49.81H26.66l-5.64 32.059 14.264-7.127-10.338 32.176 14.263-6.99-13.932 44.142z"/></svg>