<svg xmlns="http://www.w3.org/2000/svg" xml:space="preserve" width="195.324" height="112.634" viewBox="-0.75 -0.468 195.324 112.634"><title>Slice 1</title><g fill-rule="evenodd"><path fill="#b1b6cc" d="M133.374 54.996c1.394 2.876 9.494 18.649 9.494 18.649s2.66 4.26 3.403 5.416c.64.999.78.793 1.852 3.692.546 1.475-1.99 3.24-5.037 5.795-2.602 2.182-3.57 5.856-5.023 5.95-.967.063-3.063 1.408-3.063 1.408-1.369.565-3.264 3.43-3.139 3.026.2-.639.212-6.407.212-7.233 0-.911.856.422 1.731-.198 1.513-1.07.423-1.79 2.39-3.3 1.183-.908 2.213-.437 3.93-1.958 1.32-1.171.891-2.297.156-4.793-.164-.554-.454-2.219-1.757-4.247-1.304-2.026-9.155-12.152-13.574-15.07"/><path fill="none" stroke="#424763" stroke-width=".563" d="M133.374 54.996c1.394 2.876 10.182 19.99 10.182 19.99s4.376 6.236 4.505 7.5c.156 1.503-.534 1.834-2.139 3.757-1.385 1.659-2.74 1.678-3.742 3.432-1.4 2.454-4.117 4.823-4.117 4.823-2.434.188-6.03 3.931-6.202 4.434-.214.634.171-6.05.183-7.064.01-.911 1.338.552 2.399-.94.621-.876.448-1.929 1.56-2.614 2.6-1.603 2.257.523 4.398-2.321 1.189-1.58.44-2.515.159-3.396-.176-.551-.734-3.366-2.037-5.394-1.304-2.026-9.155-12.152-13.574-15.07"/><path fill="#313753" d="m132.044 91.868-3.949-.035.007 11.854s2.16-2.712 3.095-2.83c0 0 .469-1.93.718-2.319"/><path fill="#424763" d="M134.413 71.813s4.703-4.157 5.001-5.074l1.574 3.241-3.64 5.228zM129.49 66.194s6.068-4.927 6.366-5.844l1.575 3.242-4.844 6.038zM138.842 77.744s3.727-2.294 4.042-3.374c0 0 1.733 1.945 1.934 2.463 0 0-4.348 4.466-4.538 4.617l-.185-.43zM140.893 83.478s5.628-1.79 6.117-3.206c.04-.12 1.188 1.76 1.049 2.957-.167 1.44-1.97 2.816-1.97 2.816s-5.226-.57-5.492-.333c-.269.237.682-1.39.296-2.234M143.244 88.36s-.921 1.306-.605.65c.115-.31-1.727 2.495-1.727 2.495s-3.361-4.064-4.395-3.48c-.416.23.808-.311.808-.311l2.09-.58zM134.442 90.928c.05-.094 2.903 3.82 1.591 4.305-.575.211-2.455 1.77-2.455 1.77s.204-3.632-.001-5.416c-.028-.24.865-.66.865-.66"/><path fill="#313753" d="M113.137 63.135c.752-.06 10.159-1.211 10.159-1.211l-10.12 4.815zM115.59 67.96s6.287-1.217 7-1.221c.31 0-.89 2.397-.89 2.397z"/><path fill="#b1b6cc" d="M59.679 41.4s-.076 15.535-12.821 27.155C36.216 78.67 22.692 79.14 22.692 79.14s-1.803-.57-1.209 6.292c.595 6.862 1.431 14.955 1.431 14.955s.45 2.744 2.728 4.373c1.077.814-6.824 3.696-6.824 3.696s-1.37-22.801-4.598-33.7c-.763-2.602-.447-2.213.983-2.772 1.576-.617 12.355-3.305 12.58-17.274.223-13.968 8.058-28.162 8.04-28.35"/><path fill="none" stroke="#424763" stroke-width=".563" d="M59.92 38.394s-.317 18.542-13.062 30.16C36.216 78.672 22.692 79.142 22.692 79.142s-1.803-.57-1.209 6.292c.595 6.862 1.43 14.955 1.43 14.955s.913 3.402 2.729 4.373c.983.298-6.824 3.696-6.824 3.696s-1.37-22.801-4.598-33.7c-.763-2.602-.447-2.213.983-2.772 1.576-.617 12.355-3.305 12.579-17.274.224-13.968 8.06-28.162 8.042-28.35"/><path fill="#424763" d="M19.329 111.323s1.605-1.117.956-3.581c.33-.13 5.169-2.506 5.169-2.506l3.17 1.624 1.256 4.463zM36.091 48.26s6.28 14.16 13.298 17.723c.267.135-2.531 2.572-2.531 2.572S42.093 64.67 36.091 48.26M29.498 42.937s6.94 16.823 11.706 22.235c3.643 4.136-6.692-4.426-12.86-16.703M27.817 51.252s7.85 17.266 13.862 21.4L38.51 74.57s-8.334-11.65-10.721-20.294c.003-2.069.027-3.023.027-3.023M27.13 59.902s2.303 14.383 6.566 16.771l-2.896.963s-3.775-4.12-5.356-13.464c.294-.816 1.685-4.27 1.685-4.27M22.333 68.059s3.124 9.016 4.764 10.488l-2.498.412s-3.201-4.203-3.99-9.434c-.055-.377 1.724-1.466 1.724-1.466M16.695 71.45c.24-.043 4.792 7.252 5.519 7.827 0 0-1.064 1.407-.793 2.284s-7.201-6.805-7.201-6.805-.63-1.607-.363-2.067c.296-.51 1.648-1.034 2.838-1.24M21.483 85.433l-5.238-1.156s.364 3.696.545 3.634 4.947.375 4.947.375zM22.062 91.481l-4.864-.434.429 3.693 4.746.25zM22.804 99.311l-4.691.25.397 5.2s4.032-1.034 5.303-1.754c.298-.169-1.022-1.879-1.009-3.696"/><path fill="none" stroke="#424763" stroke-width="1.5" d="M17.324 55.17c16.071-5.428 15.75-16.332 16.339-20.792"/><path fill="#424763" d="m18.966 54.894-.145.126c-.092.085-.234.2-.433.331a6 6 0 0 1-.745.427c-.294.147-.625.301-.986.453-.355.16-.746.325-1.113.509-.1.043-.176.097-.262.147l-.117.07-.144.1c-.188.138-.412.26-.589.397-.373.258-.757.566-1.147.871-.387.309-.78.627-1.162.964-.389.325-.766.67-1.144 1.004a5 5 0 0 0-.476.474c-.12.127-.254.319-.361.496-.451.732-.73 1.59-1.004 2.322-.258.74-.515 1.368-.727 1.787-.102.212-.203.37-.269.477l-.1.164s.04-.267.083-.725c.05-.46.088-1.107.176-1.897.043-.396.098-.831.202-1.292.097-.462.233-.963.478-1.461.122-.253.248-.49.444-.758.214-.3.3-.391.557-.648.37-.372.762-.735 1.168-1.086.409-.347.83-.685 1.267-.989.43-.315.883-.578 1.34-.839.23-.134.434-.235.652-.336l.16-.075c.082-.04.13-.053.196-.08.123-.046.247-.1.361-.129.465-.153.889-.224 1.28-.297.39-.074.744-.127 1.056-.177.293-.048.58-.106.795-.154.446-.091.709-.176.709-.176"/><path fill="#424763" d="m3.563 60.61.09-.146c.063-.093.132-.24.266-.407.13-.156.285-.35.475-.557a10 10 0 0 1 .745-.656c.28-.206.592-.444.925-.653l.508-.33c.23-.134.38-.209.58-.317l.574-.307q.318-.141.654-.272c.222-.086.446-.182.672-.26l.67-.206c.898-.274 1.808-.45 2.656-.588.849-.145 1.64-.231 2.322-.297.68-.07 1.254-.105 1.656-.139.405-.024.643-.025.643-.025s-.2.122-.562.313c-.36.197-.889.447-1.538.69-.645.258-1.413.504-2.226.748-.806.236-1.666.487-2.526.74a19 19 0 0 0-1.238.38c-.199.067-.399.125-.599.183l-.606.238c-.188.07-.42.173-.562.212l-.56.227c-.362.152-.693.285-1.011.405l-.82.36c-.243.14-.466.25-.647.343z"/><path fill="#424763" d="M.001 57.812c-.001.007.062.053.197.011.134-.031.323-.113.563-.212.48-.205 1.153-.531 1.968-.905.43-.182.793-.413 1.39-.585.492-.153 1.01-.321 1.551-.466.542-.146 1.097-.318 1.67-.455.58-.124 1.19-.212 1.79-.32l1.806-.258c.164-.018.263-.048.478-.057l.436-.007.854-.014c.555-.03 1.127.043 1.647.067l1.456.112c.444.033.854.081 1.218.12.356.006.672.027.934.04.526.033.836.063.836.063s-.284.094-.8.235c-.258.068-.574.155-.943.236q-.548.092-1.23.17c-.456.057-.943.113-1.44.146-.508.05-1.022.064-1.586.131l-.85.09-.433.046c-.077.001-.265.042-.392.062l-1.722.295c-.58.088-1.158.15-1.733.255-.574.131-1.147.221-1.698.33s-1.089.187-1.598.268l-.19.03-.046.007c.02-.007-.005 0-.005-.002l-.082.02-.354.091q-.356.086-.687.163c-.883.21-1.637.334-2.174.382a3 3 0 0 1-.63.003c-.157-.01-.211-.092-.2-.092"/><path fill="#424763" d="M4.173 54.787s.827-.438 2.111-.903c.315-.128.699-.176 1.092-.256.396-.074.818-.158 1.26-.215l.333-.048c.163-.017.231-.013.352-.02q.327-.02.66-.024c.444-.011.895-.008 1.346-.007.919.058 1.845.146 2.694.27.842.134 1.623.289 2.289.451 1.326.317 2.199.662 2.199.662 0-.001-.922.158-2.288.197-.68.031-1.47.037-2.312.01-.42-.018-.846 0-1.28-.023l-1.313-.065c-.45-.01-.902-.016-1.346-.039a15 15 0 0 1-.66-.037c-.096-.005-.244-.02-.295-.017l-.303.008c-.401.019-.794.006-1.17.002-.375.013-.732-.048-1.075-.01-1.36.117-2.294.064-2.294.064"/><path fill="#d3d5df" d="M163.796 26.007s-2.838 8.106 1 12.1c2.682 2.79 13.5 8.073 15.947 13.551.308.75.543 1.395.658 2.02a4.24 4.24 0 0 1-.144 2.162s3.465 3.007 7.819.798c4.353-2.207 6.226-7.505 3.417-14.91-2.808-7.405-2.894-7.542-4.587-13.136-1.567-5.176-1.468-6.48-4.695-11.48 0 0 1.865-1.699 4.603-.344 0 0 3.325-11.853-8.189-15.325-10.418-3.141-37.848 1.368-44.619 5.04-6.622 3.592-7.22 6.538-6.728 7.901s4.014 2.728 4.014 2.728"/><path fill="#d3d5df" d="M174.786 10.54s-3.172-1.915-10.756-.474c-6.503 1.235-23.937 4.698-27.683 5.324-3.745.627-8.364-.439-14.606 0s-13.482 1.629-17.976 1.378c-4.495-.25-13.109-.063-16.854-1.315S67.5 9.314 58.822 11.193s-20.036 11.213-22.158 14.22c-2.123 3.006-2.684 6.388-2.747 8.769-.062 2.38-.873 21.172 16.791 16.036 13.17-3.696 10.143-3.774 14.122-.11 2.868 2.642 16.48 19.309 32.756 19.904 16.593.607 30.49 1.472 42.222-16.407 8.493-12.77 20.107-17.081 23.273-18.816"/><path fill="#c0a1a7" d="M178.592 14.656s-2.054 1.956-2.678 1.893-.993-3.85 2.434-7.698c3.33-3.739 5.436-5.623 5.436-5.623s-.885 6.277-5.192 11.428"/><path fill="#424763" d="M172.827 44.016s2.559-7.298 7.668-8.52c0 0-4.868 5.92-4.406 11.002M179.03 40.414c-.075.065 2.215-3.946 5.898-3.257s4.713 3.257 4.713 3.257-6.398-3.664-10.611 0M176.603 46.936s.398-3.549 2.207-5.174c1.498-1.347 4.995-1.066 6.96-.764.805.124 1.53 1.202.219 1.452-1.311.251-3.964-.532-5.494 1.034-1.528 1.566-2.09 3.32-2.12 3.884-.033.563 4.555-3.79 7.24-2.193.78.72-5.267 1.033-6.114 4.792M191.638 40.835s-1.654-2.553-3.09-3.757-3.715-3.741-4.214-5.402c-.499-1.66 3.184 3.038 4.37 4.228 1.187 1.19 1.942 1.828 1.942 1.828M188.226 31.476s-1.862-1.616-2.799-3.214c-.55-.937-1.341-4.102-1.341-4.102s-.447 3.124.553 4.972c.999 1.848 4.047 5.739 5.304 7.556"/><path fill="#424763" d="M185.895 35.748s-2.56-2.38-2.902-3.539-.75-1.016-1.966-.884c-1.217.132-3.605-.025-4.424-.431-.82-.408-.936-.91-2.049 0-1.111.908-5.232 4.29-5.074 10.43.015.658 1.09 1.377 1.09 1.144l1.205.814s-.466-4.341 1.052-7.784c.897-2.037 2.394-3.284 2.855-3.284s1.1 1.279 2.973.903 3.152-1.096 3.34-.752 2.387 3.117 3.9 3.383M182.837 24.003s-3.13-4.448-.754-8.156c.17-.264 1.573 2.245 1.573 2.245s-1.972 3.815-.819 5.911M181.656 15.17c-.093 0-3.032 1.958-4.375 7.142-.693 2.676-.5 2.286-.842 1.847-.343-.438-1.28-3.257.686-6.326 1.967-3.07 2.67-4.392 2.67-4.392M165.736 39.124c.094-.031 4.43-5.537 5.71-8.419 1.28-2.881 2.465-7.172 2.465-8.863 0-1.692-1.997 4.353-5.15 8.957-2.126 3.104-4.681 4.698-4.681 4.698s4.979-5.574 5.18-10.523c.204-4.95-1.435 1.687-3.245 4.197-1.284 1.78-2.74 3.476-3.396 4.228"/><path fill="#424763" d="M165.736 39.124s-3.529-3.22-2.904-5.694M172.612 9.878s-1.916 1.445-1.76 3.356.093 6.228-1.03 8.075c-.84 1.383-3.058 3.508-3.058 3.508s1.372-3.138 1.372-5.86-1.83-7.58 1.561-9.408c.843-.454 2.602.329 2.915.329M168.012 9.528c-.094.032-4.543 5.045-4.93 12.721-.388 7.676-1.748 1.065-1.748 1.065s-1.498-5.794 1.685-11.15c1.935-3.257 3.034-2.448 3.034-2.448zM159.549 10.884s-.587 11.115-.025 15.875c.561 4.761.436 4.917-.25 2.756-.687-2.16-2.653-10.398-2.715-15.159-.063-4.76 0-2.89 0-2.89zM154.556 11.857s.411 15.403 5.48 24.326l-4.43 2.377s-3.541-7.009-4.665-15.841-.518-9.897-.518-9.897zM147.196 13.292s-.531 18.033 5.034 27.433c-.39.526-2.942 2.212-2.942 2.212s-5.754-13.316-4.413-29.195c1.384-.301 1.602-.665 2.07-.508M147.47 44.487s-4.926-12.637-6.269-26.444c.001-3.29-1.244 8.5-.56 16.703.477 5.71 2.04 11.754 2.877 13.722M138.925 15.17s-2.622 19.952-1.654 32.167c.265 3.35-1.802-1.838-2.551-7.287-.75-5.45-1.225-10.485-1.007-24.461M134.892 59.667s-4.612-9.45-4.893-27.615c.187-3.852-1.217 10.304-.718 18.573s.914 11.171 1.444 12.894M130.436 15.672s-4.363 12.621-7.203 37.39c.156 3.513-.394-14.673.286-20.089.592-4.714 2.204-16.268 3.047-17.49.406-.625 3.87.189 3.87.189M125.38 15.61c-.594.532-3.745 8.236-5.524 17.977s-3.652 22.519-3.652 22.519c-1.591-7.71-1.153-11.106-1.03-16.411.188-8.05 2.435-18.578 4.214-21.95 1.498-2.527 1.486-2.308 1.651-2.32s4.341-.14 4.341-.14.593-.208 0 .324M117.359 15.816s-2.334 3.708-4.602 14.138c-2.206 10.15-1.952 31.523-1.952 31.664 0 .14-2.6-6.103-2.622-17.946-.025-13.765 3.932-24.387 4.916-26.194.983-1.806 1.303-1.408 1.303-1.408l2.395-.254zM110.758 16.47s-6.273 15.313-8.755 46.37c-.395 4.943-3.557-11.98-1.217-25.98s3.932-17.794 4.729-19.116c.796-1.32 2.2-1.046 2.2-1.046l2.81-.229zM104.3 16.796c-.092.14-4.029 3.573-6.79 17.104-2.763 13.53-4.542 30.255-4.542 30.255s-1.732-7.188-1.264-17.665c.469-10.476 2.154-20.67 5.946-28.282 1.274-2.558 1.361-1.588 1.361-1.588l5.098.171zM92.595 16.362S81.218 54.102 81.64 60.209c.378 5.484-2.515-6.232.187-22.645 2.763-16.771 7.007-21.61 7.007-21.61M82.55 16.44c-.62 1.118-2.982 7.49-4.375 12.762-3.698 14-3.09 27.671-3.09 27.671s-1.544-4.557-1.45-13.624c.093-9.067.926-15.734 4.998-26.633 1.227-2.843 2.505-2.843 2.505-2.843l2.748.794 1.044.321s-1.762.433-2.38 1.552M74.57 12.571c-.187.047-9.223 21.563-7.771 35.094 0 0-2.217-13.794.327-24.805 2.248-9.725 3.619-11.406 3.619-11.406l3.825.713zM67.47 11.015c-.094.083-10.315 16.402-11.252 34.16-.749 7.94-2.949-19.7 6.742-34.406 2.944-.232 4.51.246 4.51.246M53.3 13.04s-5.415 24.242-1.67 32.792c0 0-6.684-19.854-2.378-30.662 2.098-1.706 4.047-2.13 4.047-2.13M43.986 18.646s-2.888 12.623.127 24.79c1.434 5.788-4.255-6.907-4.616-13.476-.28-5.122.078-7.779.078-7.779s2.562-2.489 4.41-3.535M89.738 68.054c-.046-.282-1.908-15.84-.921-26.98.938-10.604-3.67 14.264-3.014 25.962l.416.19 3.536 1.382zM99.93 70.256s-2.984-13.59-2.842-19.772c.14-6.108-2.095 9.304-.972 19.452M108.183 70.256s-1.92-15.13-1.45-23.676c.467-8.546-1.672 15.573-1.687 23.664 0 .394 2.341.009 2.341.009M188.374 12.42s-3.894-.549-6.423 2.232c-.133.082-1.277-1.211-1.277-1.211s1.641-3.416 6.946-4.947c0 0 .894 2.063.754 3.926M172.612 9.407s1.58-5.367 1.398-8.912c-.016-.266 3.813.529 3.813.529s-.019 4.64-4.05 8.76M168.796.44s.531 6.006-.232 8.686h1.991s2.057-4.628 1.724-8.173l-.099-.512"/><path fill="#424763" d="M167.475.44s.209 5.859-.552 8.769l-2.34.199s-.066-6.907-.696-8.771c-.132-.3 2.62-.196 2.62-.196zM162.178.721s1.16 3.912.232 9.063l-1.625.29s-.631-6.84-2.008-9.038c-.298-.632.68-.116.68-.116zM157.318 1.236s.382 7.736.952 9.205c-.039.083-2.395.516-2.395.516s-1.328-.998-2.67-9.055c-.042-.367.594-.333.594-.333zM150.87 2.034s1.007 7.508 1.554 9.54l-2.272.498s-2.438-3.795-2.847-9.37l.505-.102zM144.944 3.45s.161 2.333.38 3.42c.191.944.631 2.789 1.112 3.671.435.797 1.033 1.964 1.033 1.964l-2.923.691s-1.925-2.538-2.954-6.366c-.459-1.714-.646-2.381-.646-2.381l3.963-1.22zM139.834 5.398s1.957 5.226 1.892 8.39l-2.14.415s-1.344-4.478-3.567-8.106c-.143-.184.431-.184.431-.184l3.152-1.098zM134.758 7.053s2.24 2.956 2.455 7.383c0 0-1.028.483-1.608.483 0 0-1.975-4.754-3.5-6.214l-.4-.296 2.813-1.688zM130.552 9.528c.052-.006.767 2.944 1.95 5.49h-1.542s-1.576-2.313-2.222-2.763c-.647-.45 1.167-2.643 1.814-2.727M186.219 5.879s-1.702-2.037-2.089-2.166c-.386-.13-.865 2.166-.865 2.166l-.714 2.204s-.621 1.56-.597 1.49M180.262 1.766s.453 2.505-1.296 4.666l4.543-3.382"/><path fill="#d3d5df" d="M185.654 4.978c.07.009 1.94-1.826 1.94-1.826l-.68 3.754z"/><path fill="none" stroke="#424763" stroke-width=".563" d="M185.533 4.825c1.528-1.316 2.204-1.775 2.204-1.775s-.428 1.804-.822 3.856"/><path fill="#c0a1a7" d="M181.027 55.84s.73-2.113.674-2.74c-.056-.626.342-2.22.904-2.345s3.665.747 4.5-2.087c.348-1.179.976-3.508 1.163-4.767s.361-1.777 1.147-2.638 2.437-.501 2.62-.128c3.474 7.078.586 12.478-1.293 14.203-3.224 2.96-6.183 2.569-9.715.502"/><path fill="none" stroke="#424763" stroke-width=".563" d="M163.565 26.007s-2.838 8.106 1 12.1c2.682 2.79 13.499 8.073 15.947 13.551.307.75.543 1.395.657 2.02a4.24 4.24 0 0 1-.143 2.162s3.465 3.007 7.819.798c4.353-2.207 6.226-7.505 3.417-14.91-2.808-7.405-3.698-7.358-4.587-13.136-.89-5.78-3.444-10.52-7.751-15.358"/><path fill="none" stroke="#424763" stroke-width=".5" d="M192.035 41.135s-1.657-.881-2.91.376c-.889.892-.655 1.973-1.217 4.274-.561 2.303-.913 4.253-2.598 4.863s-2.785-.446-3.347.54c-.562.987.125 2.162-.717 3.383M189.453 54.571s.608-1.01 0-2.255c-.319-.733-.491-1.41 0-1.762.492-.352 1.662.658 1.17 2.255-.514 1.363-1.17 1.762-1.17 1.762Z"/><path fill="#edeef4" d="M183.625 29.648s.114-3.482-2.809-3.758a143 143 0 0 1-4.213-.447s.772.588.845 1.946c.083 1.526 1.308 1.907 3.555 1.837s2.622.422 2.622.422"/><path fill="none" stroke="#424763" stroke-width=".5" d="M183.625 29.648s.114-3.482-2.809-3.758a143 143 0 0 1-4.213-.447s.772.588.845 1.946c.083 1.526 1.308 1.907 3.555 1.837s2.622.422 2.622.422Z"/><path fill="#424763" d="M180.114 26.007s-.936.376-.913 1.41.492 1.427.913 1.691c.42.264 1.132.252 1.132.252s2.262-.04 2.379.288c.117.329.033-3.222-2.628-3.725-.7-.124-.883.084-.883.084"/><path fill="none" stroke="#424763" stroke-width=".563" d="M173.567 16.768s-1.997-2.13-.218-4.824S184.086 2.8 184.086 2.8s-1.498 5.386-2.435 7.329a34 34 0 0 1-2.59 4.416"/><path fill="#c0a1a7" d="M175.783 16.298s-3.026-3.1 8.303-13.498"/><path fill="none" stroke="#424763" stroke-width=".563" d="M174.555 10.54s-3.172-1.915-10.756-.474c-6.503 1.235-23.938 4.698-27.683 5.324-3.746.627-8.364-.439-14.607 0-6.24.439-13.482 1.629-17.976 1.378-4.495-.25-13.109-.063-16.854-1.315s-19.412-6.139-28.088-4.26-20.037 11.213-22.16 14.22c-2.121 3.006-2.683 6.388-2.745 8.769-.063 2.38-.874 21.172 16.79 16.036 13.17-3.696 10.144-3.774 14.123-.11 2.867 2.642 16.478 19.309 32.755 19.904 16.593.607 30.492 1.472 42.222-16.407 8.493-12.77 20.107-17.081 23.273-18.816"/><path fill="none" stroke="#424763" stroke-width=".563" d="M183.012 17.128s2.322-1.926 4.803-.36c0 0 2.34-6.499-2.481-12.183C180.512-1.1 164.115.3 159.668.817c-4.448.517-24.402 2.65-29.932 9.419-3.102 3.797-.673 5.187-.673 5.187"/><path fill="#d3d5df" d="M130.072 57.922s-3.468 2.443-4.712 5.388c-1.245 2.943-8.24 19.073-8.24 19.073s.114 1.356.366 2.603c.236 1.164-1.404 3.505-3.017 6.136-1.612 2.63-2.888 6.388-3.05 8.393s.719 3.32.719 3.32c-.19 2.455.052 2.733.048 4.166-.003.669-5.807.528-6.418.453-.901-.111.813-1.001.425-2.004-.387-1.002-2.015-1.953-.64-4.02s2.4-3.167 3.52-6.55c1.119-3.382 1.227-8.472.94-8.973s1.37-1.801 2.038-4.119 3.122-14.908 2.414-20.17c0 0 4.325-2.255 4.872-5.763"/><path fill="none" stroke="#424763" stroke-width=".563" d="M130.072 57.922s-3.468 2.443-4.712 5.388c-1.245 2.943-8.24 19.073-8.24 19.073s.114 1.356.366 2.603c.236 1.164-1.404 3.505-3.017 6.136-1.612 2.63-2.888 6.388-3.05 8.393s.719 3.32.719 3.32c-.19 2.455.052 2.733.048 4.166-.003.669-5.807.528-6.418.453-.901-.111.813-1.001.425-2.004-.387-1.002-2.015-1.953-.64-4.02s2.4-3.167 3.52-6.55c1.119-3.382 1.227-8.472.94-8.973s1.37-1.801 2.038-4.119 3.122-14.908 2.414-20.17c0 0 4.325-2.255 4.872-5.763"/><path fill="#313753" d="m105.768 107.454-.038 3.962h11.812s-3.64-2.542-3.757-3.481c0 0-1.577-.433-1.964-.684"/><path fill="#424763" d="M114.654 63.135c.756-.06 10.231-1.211 10.231-1.211l-10.41 4.815zM116.816 67.96s6.36-1.217 7.072-1.221c.311 0-1.034 2.397-1.034 2.397zM122.49 69.98s-7.433 1.01-8.186 1.41c-.755.399-.509 2.255-.509 2.255l8.177-2.466zM113.349 76.158s5.536.117 6.42-.258l-1.102 2.607-5.888 1.08zM111.49 83.464s4.536.234 5.554-.235c0 0 .493 2.043.237 2.537 0 0-6.656 1.571-6.895 1.527l-.17-1.809zM110.183 90.43s3.857.303 4.712.003c.228-.094-1.496 2.356-1.496 2.356s-3.207.219-3.561.171c-.355-.046-.037-1.684.345-2.53M109.3 95.397s2.202.187 2.903-.004c.307-.118-.61 2.33-.61 2.33s-2.199.492-3.318.093c-.445-.164.002-.61.002-.61l.702-1.813zM106.534 100.217c.104-.023 1.693.775 4.115.066 1.443-.424.839 1.338.839 1.338s-3.416 1.186-5.681 1.034c-1.753-.117.727-2.438.727-2.438"/><path fill="#d3d5df" d="M34.6 28.917c.173.074-8.877 14.655 4.153 29.113 9.395 10.425 8.272 19.912 8.193 21.662-.072 1.59-.54 1.693 2.047 2.244 26.058 8.146 24.84 12.012 24.84 12.012S84.21 91.82 83.07 92.42c-2.215-3.872-8.144-6.142-8.144-6.142s-7.436-3.13-13.698-5.892c-6.26-2.762-5.048-4.148-5.048-4.148s11.535-12.72 9.075-24.466C59.92 35.676 57.733 34.84 57.733 34.84s-8.907 12.106-13.389 10.993c-7.59-1.885-9.743-16.916-9.743-16.916"/><path fill="none" stroke="#424763" stroke-width=".563" d="M57.23 34.113s4.238 5.78 7.241 14.283c4.691 14.694-8.29 27.842-8.29 27.842s-1.212 1.386 5.049 4.148 13.697 5.892 13.697 5.892 5.597 2.009 8.144 6.142c1.14-.6-9.237 1.528-9.237 1.528s1.622-3.835-24.842-12.012c-2.585-.55-2.118-.655-2.046-2.243.079-1.751 1.54-10.905-8.193-21.663-12.923-14.286-3.828-29.364-4-29.437"/><path fill="#313753" d="M75.2 96.909s1.005-.911 1.123-3.414c.397-.041 6.369-1.075 6.369-1.075l3.258 3.512 1.03 3.749z"/><path fill="#424763" d="M39.813 47.326s16.544.373 22.439-4.382c.224-.18 1.161 3.107 1.161 3.107s-6.823 3.653-23.6 1.274M34.25 51.91s18.732.298 25.364-1.487c5.066-1.365-9.783 5.222-22.995 4.99M39.187 57.05s19.952.857 25.951-2.696l.35 4.12s-15.126 2.027-23.658.06c-1.815-1.001-2.643-1.484-2.643-1.484M41.963 62.226s18.524 3.163 22.3.383l-1.495 3.616s-9.596 2.317-18.424-.73c-.601-.665-2.381-3.27-2.381-3.27M45.792 69.756s12.899.801 14.838 0l-1.212 2.463s-8.113 1.629-13.018-.166c-.353-.13-.608-2.297-.608-2.297M47.063 78.059c.059-.244 8.258-.923 9.05-1.315 0 0 .816 1.66 1.692 1.832.877.173-8.812 3.36-8.812 3.36s-1.66-.194-1.959-.662c-.332-.52-.26-2.019.03-3.215M61.23 80.386l-5.42 3.766s5.73 1.956 5.747 1.759 2.279-4.383 2.279-4.383zM66.77 82.769l-2.298 4.68 2.998 1.37 2.503-4.645zM73.27 85.578l-3.033 4.73 2.825 2.112s3.58-6.285 3.782-5.282c.085.418-1.983-.672-3.574-1.56"/></g></svg>