<svg xmlns="http://www.w3.org/2000/svg" width="34.245" height="62.788" viewBox="-0.47 -0.846 34.245 62.788"><path fill="#ffdb5d" d="m28.047 44.666-6.241-8.512h-9.435l-6.016 8.689q-.064.09-.125.182l-.184.266.006.001a5.9 5.9 0 0 0-.877 2.806c-.171 3.504 2.691 6.399 6.247 6.399a6.3 6.3 0 0 0 3.591-1.11 4.03 4.03 0 0 1 4.519 0 6.3 6.3 0 0 0 3.591 1.11c3.556 0 6.418-2.895 6.248-6.399a5.92 5.92 0 0 0-1.324-3.432"/><path fill="#ffdb5d" d="M27.017 29.045c0 5.399-4.485 9.775-10.019 9.775s-10.02-4.376-10.02-9.775c0-5.4 4.486-9.777 10.02-9.777s10.019 4.377 10.019 9.777"/><path fill="#fff4e3" d="M15.24 29.045c0 2.213-1.84 4.008-4.108 4.008-2.269 0-4.108-1.795-4.108-4.008s1.839-4.009 4.108-4.009 4.108 1.795 4.108 4.009"/><path fill="#17242d" d="M13.812 29.045c0 1.444-1.2 2.615-2.68 2.615s-2.681-1.171-2.681-2.615c0-1.446 1.2-2.616 2.681-2.616 1.48 0 2.68 1.17 2.68 2.616"/><path fill="#fff4e3" d="M26.917 29.045c0 2.213-1.839 4.008-4.108 4.008s-4.107-1.795-4.107-4.008 1.838-4.009 4.107-4.009 4.108 1.795 4.108 4.009"/><path fill="#17242d" d="M25.49 29.045c0 1.444-1.2 2.615-2.681 2.615-1.48 0-2.681-1.171-2.681-2.615 0-1.446 1.201-2.616 2.681-2.616 1.481 0 2.681 1.17 2.681 2.616"/><path fill="none" stroke="#e54529" stroke-linecap="round" stroke-width="2.08" d="M15.642 30.983h2.899"/><path fill="none" stroke="#ffdb5d" stroke-width="1.04" d="M18.92 20.095c-1.747 0-3.163-1.382-3.163-3.088 0-1.703 1.416-3.087 3.163-3.087"/><path fill="#fff4e3" d="M32.735 45.211c0-2.644-.516-5.947-1.437-9.367l-3.703 6.794-5.01-7.589-4.613 8.103-5.669-7.973-5.405 7.973-4.888-7.319C1.088 39.259.57 42.566.57 45.211c0 8.666 7.2 15.691 16.083 15.691s16.082-7.025 16.082-15.691M16.653.194C10.144.194 4.54 10.487 2.01 19.885l4.888 7.319 5.405-7.975 5.669 7.975 4.613-8.103 5.01 7.589 3.703-6.796c-2.529-9.401-8.132-19.7-14.645-19.7"/></svg>