<svg xmlns="http://www.w3.org/2000/svg" xml:space="preserve" width="27.523" height="54.133" viewBox="1.786 0.726 27.523 54.133"><title>potion-b</title><g fill-rule="nonzero"><path fill="#cae8de" d="M7.2 8.4S3.6 6 6.6 3 30.3.1 22.7 8.9c0 0 2.1 25.1 6 39.4 1.3 4.8-9.4 6.4-16.6 6-8.8-.5-10.5-3-9.6-6.1 1.1-4.7 4.6-30.3 4.7-39.8"/><path fill="#73b5e4" d="M4.6 49.2c3.2-22.1 2.2-29.1 4.2-32.9 1.3-2.5 10.2-2.3 12.2.1 1.6 1.9 2.4 20.4 5.3 32.5 1 4.3-22.4 5.3-21.7.3"/><path fill="#83cdef" d="M21 16.4c-1.7-2.1-8.7-2.5-11.4-.9-.3.2-.6.5-.8.7 0 0 0 .1-.1.1-.5 1.3 12.1 2.1 12.3.1"/><path fill="#679fe4" d="M14.5 47.2c-10.3.7-10.2 2.2-9.9 2.7 1.4 4 22.3 3.3 21.7-.9 0 0 .2-2.6-11.8-1.8"/><path fill="#b6cfd1" d="M22.2 4.2c0 1-2.9 2-7.4 2s-7.7-.4-7.7-1.4 3.3-2.3 7.7-2.3 7.4.7 7.4 1.7"/><path fill="#96b7c4" d="M22.2 4.2v.2c0 .1-.1.3-.3.4s-.4.3-.7.4-.6.2-1 .3c-.7.2-1.6.3-2.5.4s-1.9.1-2.9.2c-1 0-2 0-2.9-.1-.9 0-1.8-.2-2.6-.3-.7-.1-1.4-.3-1.8-.5-.2-.1-.3-.2-.4-.3s0-.2 0-.2v.2c.1.1.2.2.4.3.4.2 1 .3 1.7.3.7.1 1.6.1 2.5.1h2.9c1 0 2 0 2.9-.1s1.8-.1 2.5-.3c.7-.1 1.3-.3 1.7-.5q.3-.15.3-.3c.3-.1.2-.2.2-.2M7.2 8.4s.4.1.9.3c.5.1 1.3.3 2 .4.4.1.7.1 1.1.2.3.1.7.1.9.2.6.1.9.2.9.2s-.4.1-.9.1c-.6 0-1.3 0-2.1-.1S8.5 9.3 8 9c-.5-.4-.8-.6-.8-.6M24.4 5.3v.4c0 .2-.1.6-.3 1s-.4.9-.8 1.3l-.6.6c-.2.2-.5.4-.7.5-.3.2-.5.3-.8.4s-.6.2-.8.2c-.3 0-.5.1-.8.1h-.7c-.4 0-.8-.1-1-.1s-.4-.1-.4-.1h.4c.3 0 .6 0 1-.1.2 0 .4 0 .7-.1.2-.1.5-.1.7-.2s.5-.2.8-.3c.2-.1.5-.2.7-.4s.5-.3.7-.5.4-.4.6-.5c.3-.4.6-.8.8-1.2.4-.4.5-1 .5-1"/><path fill="#fff" d="M6.7 4.8s-.1.1-.1.4c0 .1 0 .3.1.4.1.2.3.3.5.4s.4.2.7.3c.2.1.5.1.8.2l1.8.3c.3.1.6.1.9.1.3.1.6.1.9.1.6 0 1.1.1 1.6.1.9.1 1.6.1 1.6.1s-.6.1-1.6.2h-2.5c-.3 0-.6 0-1-.1-.6-.1-1.3-.2-1.9-.4-.3-.1-.6-.2-.8-.3-.3-.1-.5-.3-.7-.4-.2-.2-.3-.4-.4-.5-.1-.2-.1-.4-.1-.5.1-.3.2-.4.2-.4"/><path fill="#abe2ff" d="M10.5 41.1h.3c.2 0 .5.1.7.3.1.1.2.3.2.5v.3c0 .1-.1.2-.1.3-.2.4-.6.6-1 .7-.2 0-.5 0-.7-.1s-.4-.3-.5-.5-.2-.4-.1-.6c0-.2.1-.4.2-.5.2-.3.5-.3.7-.4zm0 0s-.1 0-.2.1-.3.3-.4.5c0 .1-.1.2-.1.3s0 .3.1.4q0 .15.3.3c.1.1.3.2.4.2.2 0 .4 0 .5-.1s.2-.3.3-.4V42c0-.1-.1-.2-.1-.3-.1-.2-.3-.4-.4-.5-.3-.1-.4-.1-.4-.1M22.7 38.3s0 .2-.2.5c-.1.1-.1.1-.2.1H22c-.3-.1-.5-.3-.5-.6 0-.1 0-.3.1-.4s.2-.2.3-.2c.2-.1.5 0 .6.2.2.2.2.4.2.4m0 0c0-.2-.1-.3-.2-.3s-.3 0-.4.1l-.1.1v.2c0 .1 0 .2.1.3 0 0 .1.1.2.1h.2c.2-.3.2-.5.2-.5"/><path fill="#abe2ff" d="M20.5 39s-.2.1-.5.3c-.4.2-1 .3-1.7.1-.4-.1-.7-.3-1-.6-.1-.1-.1-.2-.2-.3 0-.1-.1-.2-.1-.3-.1-.2-.1-.4-.2-.6-.1-.9.2-1.9 1-2.5.3-.3.8-.5 1.3-.5s1 .1 1.4.3.8.6.9 1q.3.6.3 1.2c0 .8-.4 1.3-.7 1.6-.3.2-.5.3-.5.3m-.1 0 .1-.1.3-.3c.2-.3.4-.9.3-1.5q0-.45-.3-.9c-.2-.3-.4-.6-.8-.8-.2-.3-.6-.4-1-.4q-.6 0-1.2.3c-.4.2-.7.6-.8 1-.2.4-.2.9 0 1.2.1.4.3.7.6 1 .2.3.5.4.8.6.6.3 1.2.3 1.5.1.2-.1.3-.1.4-.2zM16.8 32.8s-.1.1-.3.1c-.2.1-.5.2-.9.1-.2-.1-.4-.2-.5-.4 0-.1-.1-.1-.1-.2v-.6c0-.5.2-.9.6-1.3.2-.2.5-.3.7-.3.3 0 .5.1.7.2s.4.4.5.6.1.5.1.7c-.1.4-.3.6-.5.8zm0-.1s.1 0 .2-.2c.1-.1.2-.4.2-.7 0-.1-.1-.3-.1-.4-.1-.2-.2-.3-.3-.4s-.3-.2-.5-.2-.4 0-.6.1-.4.2-.5.4q-.15.3 0 .6c0 .2.2.3.3.4l.3.3c.2.2.5.2.7.2s.3-.1.3-.1M13.8 23s0 .3-.3.6c-.1.1-.2.1-.3.2h-.4c-.3-.1-.6-.4-.6-.8 0-.2.1-.4.2-.5s.3-.2.4-.3c.3-.1.6 0 .7.2.4.3.3.6.3.6m0 0v-.2c0-.1-.1-.3-.3-.3-.2-.1-.4-.1-.5.1l-.2.2c0 .1-.1.1-.1.2 0 .2.1.3.2.4s.2.1.3.1h.3q.3-.15.3-.3zM11.3 39.4s-.3-.1-.4-.5v-.4c0-.1.1-.3.2-.4.2-.2.6-.3.9-.2.1.1.3.2.4.4s.1.3.1.5c-.1.3-.3.5-.5.6-.5.2-.7 0-.7 0m0 0h.2c.1 0 .3 0 .4-.1s.2-.3.2-.5c0-.1-.1-.2-.1-.2-.1-.1-.1-.1-.2-.1-.1-.1-.3-.1-.5 0-.1 0-.2.1-.2.2-.1 0-.1.1-.1.2 0 .2.1.3.2.4 0 .1.1.1.1.1"/><path fill="#fff" d="M9.6 11.6v5.5c-.1 1.6-.1 3.6-.2 5.6-.1 2.1-.3 4.2-.5 6.4s-.4 4.4-.7 6.4-.6 3.9-.8 5.6c-.2 1.6-.5 3-.7 3.9s-.3 1.5-.3 1.5 0-.5.1-1.5.2-2.3.3-4c.3-3.3.7-7.6 1.1-12s.8-8.7 1.1-12c.2-1.6.3-3 .4-4 .1-.9.2-1.4.2-1.4"/><path fill="#96b7c4" d="M14.5 54.3s.7 0 1.9-.2c1.2-.1 3-.4 5-.8 1-.2 2.1-.5 3.2-.9s2.3-1 3.1-1.9c.4-.5.6-1.1.5-1.7s-.3-1.3-.5-2c-.3-1.3-.7-2.7-.9-4.1-1.1-5.5-1.9-11.1-2.4-15.3s-.7-7-.7-7 .3 2.8 1 7c.3 2.1.7 4.5 1.1 7.1s.9 5.4 1.5 8.1c.3 1.4.6 2.7.9 4.1.2.7.4 1.3.5 2s-.2 1.5-.6 2c-.9 1.1-2.2 1.6-3.3 2-1.2.4-2.3.6-3.3.8-2.1.4-3.8.5-5.1.6-1.2.2-1.9.2-1.9.2"/><path fill="#547dc6" d="M15 52.4s2.2-.1 5.4-.6c.8-.1 1.7-.3 2.5-.6.9-.3 1.8-.6 2.5-1.3.3-.3.5-.8.4-1.2-.1-.5-.2-1-.3-1.6-.2-1-.4-2.1-.6-3.2-.4-2.1-.7-4.3-1-6.3s-.5-3.9-.6-5.5-.2-3-.3-3.9-.1-1.5-.1-1.5.2 2.2.6 5.4 1 7.5 1.8 11.8c.2 1.1.4 2.1.6 3.2.1.5.2 1 .3 1.6s-.1 1.2-.5 1.6c-.8.8-1.8 1.1-2.7 1.4s-1.8.4-2.6.5c-1.6.2-3 .3-3.9.3-.9-.1-1.5-.1-1.5-.1"/><path fill="#547dc6" d="M26.3 49s0-.1-.1-.2-.2-.2-.4-.3-.5-.2-.8-.3-.7-.2-1-.3q-1.2-.15-2.7-.3c-1-.1-2.1-.1-3.1-.1h-3.1c-1 .1-1.9.1-2.7.1-1.6.1-2.7.1-2.7.1s1.1-.2 2.7-.4q1.2-.15 2.7-.3c1 0 2.1-.1 3.2-.1s2.2 0 3.2.1 1.9.3 2.7.5c.4.1.8.2 1.1.4.3.1.6.3.7.4.2.1.3.3.4.4-.1.2-.1.3-.1.3"/><path fill="#abe2ff" d="M13.9 47.9s-.1.1-.3.2-.6.3-1.1.2c-.2 0-.5-.2-.7-.4-.1-.1-.1-.1-.1-.2s-.1-.1-.1-.2c-.1-.1-.1-.3-.1-.4-.1-.6.1-1.2.5-1.7.2-.2.5-.4.8-.4.3-.1.7 0 1 .1s.5.4.7.6c.2.3.2.5.2.8 0 .5-.3.9-.4 1.1-.3.2-.4.3-.4.3m0-.1s.1-.1.2-.3.2-.6.1-1c-.1-.2-.1-.4-.2-.5-.1-.2-.3-.3-.5-.4s-.4-.2-.7-.2-.5.1-.7.2-.4.4-.5.6c-.1.3-.1.5.1.8.1.2.3.4.4.5.2.1.3.2.5.3.3.2.7.2 1 .1.2 0 .3-.1.3-.1M22.8 49.3s-.2.1-.5.3c-.4.2-1 .3-1.7.1-.4-.1-.7-.3-1-.6-.1-.1-.1-.2-.2-.3 0-.1-.1-.2-.1-.3-.1-.2-.1-.4-.2-.6-.1-.9.2-1.9 1-2.5.3-.3.8-.5 1.3-.5s1 .1 1.4.3.8.6.9 1q.3.6.3 1.2c0 .8-.4 1.3-.7 1.6-.3.2-.5.3-.5.3m-.1 0 .1-.1.3-.3c.2-.3.4-.9.3-1.5q0-.45-.3-.9c-.2-.3-.4-.6-.8-.8-.3-.2-.7-.3-1.1-.3q-.6 0-1.2.3c-.4.2-.7.6-.8 1-.2.4-.2.9 0 1.2.1.4.3.7.6 1 .2.3.5.4.8.6.6.3 1.2.3 1.5.1.2-.1.3-.1.4-.2z"/></g></svg>