<svg xmlns="http://www.w3.org/2000/svg" width="58.324" height="73.854" viewBox="-0.5 -0.5 58.324 73.854"><path fill="#0cc" d="M57.324 30.354c0 3.86-.09 7.5-.28 10.82-.01.08-.01.15-.02.22-.39 5.08-1.36 9.37-2.97 13.11-1.98 4.5-5.12 8.59-9.34 12.24-.69.59-1.44 1.09-2.25 1.49l-2.36 1.18c-3.8 2.01-8.3 3.16-13.37 3.41-.04.01-.07.01-.1.01-.35.01-.69.02-1.02.02-4.86 0-9.41-1.4-13.54-4.15-.6-.4-1.16-.86-1.68-1.37-1.2-1.21-1.9-2.46-2.38-3.41-.91-1.84-1.36-3.65-1.36-5.51 0-1.06.15-2.1.44-3.1.34-1.87 1.06-3.62 2.16-5.16-2.59-2.08-4.62-4.52-6.04-7.3-1.9-3.67-2.95-7.52-3.15-11.43-.37-6.8.87-12.19 3.8-16.41 2.67-3.87 6.45-7.32 11.2-10.21 5.16-3.13 9.96-4.7 14.66-4.8.35-.01.7 0 1.04.02 1.88.14 3.03.22 3.43.25.46.02.92.06 1.37.14 4.64.78 7.72 2.82 9.61 4.61.32.27.7.61 1.15 1 .49.43.93.91 1.34 1.42l2.62 3.33c1.63 2.03 2.79 3.88 3.59 5.72q.645 1.155 1.5 2.79c.14.27.27.54.39.82 1.08 2.57 1.56 5.73 1.56 10.25"/><path fill="#fff" d="M46.325 30.351q-.001 5.542-.266 10.203-.44 5.718-2.109 9.588-1.937 4.4-6.422 8.268-.88.442-2.463 1.232-3.607 1.936-8.884 2.199-4.31.176-8.005-2.287-.089-.088-.308-.527-.22-.439-.22-.617.087-.085.266-.176-.355-2.638 2.913-2.639 1.147 0 2.031.44.265.353.972.792 1.588.528 3.18.527 5.297 0 9.359-4.75 3.884-4.397 3.885-9.236a6.6 6.6 0 0 0-.176-1.582q-4.324 4.133-11.205 4.133-5.03.001-9.572-2.33-4.544-2.33-6.309-5.762-1.766-3.43-1.94-6.949-.353-6.42 1.847-9.588 2.726-3.958 7.872-7.08t9.192-3.211q3.605.264 3.782.264 2.638.442 4.046 1.936.44.352 1.232 1.056 1.318 1.672 2.639 3.343 1.758 2.2 2.287 3.693.614 1.056 1.67 3.079.705 1.671.706 5.981m-6.598-6.51q-.178-.086-.572-1.099-.397-1.012-1.011-1.012-.529-2.814-2.111-3.782a73 73 0 0 1-1.495-.968l.088-.088q-.264-.439-1.056-.528h-1.056q-2.903-.614-4.134-.352-2.728.529-6.069 3.079-3.608 2.639-4.662 5.365-.705 1.672-.792 3.694-.176 2.287.663 5.322.838 3.033 4.369 5.497t6.709 2.287q4.326.616 8.477-3.87 3.883-4.31 3.883-9.061 0-2.375-1.318-4.046a1 1 0 0 0 .087-.438"/></svg>