<svg xmlns="http://www.w3.org/2000/svg" width="74.516" height="132.715" viewBox="-0.215 0.43 74.516 132.715"><path fill="#be0a3c" d="M14.05 110.923c-1.132 2.365-2.928 3.602-4.556 3.654s-2.496-1.037-3.156-2.401c-1.34-2.802-1.2-10.61-1.6-10.534-.4.077-.48 1.601-.652 2.15-1.164-.277-.536-2.582-1.284-2.506-.352.036.08 2.449-.828 2.53s-.724-1.337-1.076-2.061c-1.412 5.026-.56 13.17 4.4 16.047 4.712 2.738 10.576.188 12.652-6.879 0 0 1.328-5.303-1.424-5.375s-2.476 5.375-2.476 5.375"/><path fill="#82001e" d="M4.878 108.082s1.472-.357 1.948-2.25c.108-.424.276-2.301-.276-2.325s-.248 1.049-.624 1.625-1.048-.276-2.376.148-1.52 4.19 1.328 2.802M56.102 108.11s-.164-4.142-3.124-3.602-2.376 7.748-2.376 7.748l1.092 19.705-1.864-.072s-.688.228 0 .648c.208.128 4.608-.084 4.608-.084zM32.346 107.769s.616-6.279-4.472-6.403-3.64 4.603-3.64 4.603c1.396 4.858 6.668 24.115 6.4 25.712-.556.168-1.136-.116-1.64.164-.128.28-.244.532.096.8.196 0 3.756-.172 3.964-.104.32-.296-.336-19.681-.708-24.772M62.618 123.513s-.688-3.37-.828-3.15l-1.668 5.067s-.504 1.601-.212 1.917c.196.22 1.2-1.105 1.888-2.401l.032-.06z"/><path fill="#be0a3c" d="M60.998 107.541c-.18 3.242.172 10.541.232 11.682.168 3.237 0 6.455.156 9.689 1.004.228.556-2.402.968-2.718.988-.728.572 2.497 1.048 2.602s.308-2.402.96-2.682c.656.436.676 2.549 1.072 2.497s.8-14.967.652-21.07c0 0 .096-5.706-2.656-5.915s-2.432 5.915-2.432 5.915"/><path fill="#82001e" d="M40.794 13.768s14.144 14.343 14.288 15.608c-1.484.044-24.456 4.122-24.456 4.122L10.73 28.255z"/><path fill="#be0a3c" d="M55.478 1.33 29.322.93c0 .332-.252 5.603.152 6.091.692.8 12.028 1.297 15.036 1.505 1.4.1 11.2-1.425 11.2-1.425s-.092-5.114-.232-5.771"/><path fill="#ffc800" d="m10.73 28.259 18.744-21.21s12.692 3.602 15 6.123C40.266 15.969 10.73 28.259 10.73 28.259"/><path fill="#f01446" d="M73.618 29.2c-1.348.184-15.456 2.257-15.456 2.257l-8.424-2.429S35.25 13.392 29.406 7.017c2-.704 26.304.084 26.304.084S71.322 25.422 73.618 29.2"/><path fill="#be0a3c" d="m73.274 111.767-22.672.501-11.376-37.767 10.512-45.473 23.88.172s.312 52.653.12 62.106z"/><path fill="#f01446" d="M49.738 29.028s-34-.865-39.008-.769c-.256 4.675 2.088 59.385 2.6 69.049.128 2.402.136 4.779.204 7.168.036 1.272.336 6.803.336 6.803s2.736.06 3.924.108c2.264.088 4.524.292 6.8.352 4.58.116 9.148.18 13.728.361 2.12.084 12.288.176 12.288.176z"/><path fill="#fff" d="M42.578 37.312s-21.5-.621-24.672-.553c-.164 3.35 1.504 61.586 2 62.43s1.728.541 2.48.573c1.432.064 2.86.212 4.296.252 2.896.084 5.788.128 8.684.26 1.34.06 7.772.128 7.772.128z"/></svg>