<svg xmlns="http://www.w3.org/2000/svg" width="72.261" height="67.256" viewBox="-0.337 0.173 72.261 67.256"><path fill="#961212" d="m7.06 16.977 2.21 38.107L31.89 66.27 59.548 54.1l2.627-37.123-29.55-7.99z"/><path fill="#b72020" d="m7.06 16.977 25.401 8.154 29.915-8.154-29.75-7.99z"/><path fill="#a81616" d="m32.461 25.131-.572 41.14L59.55 54.1l2.827-37.123z"/><path fill="undefined" d="M31.876 66.812 8.793 55.398 6.548 16.621l26.067-8.147 30.081 8.134-2.677 37.823zM9.742 54.773 31.9 65.729 59.08 53.772l2.58-36.424-29.025-7.85-25.06 7.834z"/><path fill="#f9c780" stroke="#000" stroke-width=".616" d="m16.891 13.738 26.25 8.482s-1.17 40.15-1.29 40.204 9.709-3.961 9.709-3.961l1.75-39.017-27.752-8.601z"/><path fill="#f9c780" stroke="#000" stroke-width=".616" d="m42.216 11.445-27.053 8.133.637 39.286 7.76 3.838-.124-40.47 28.123-8.205-9.343-2.582"/><path fill="#f9c780" d="M50.606 19.732c-8.27 0-15.662-1.45-17.536-1.849l1.343-1.847c2 .107 3.972.162 5.865.162h.002c19.109 0 27.302-5.363 29.384-7.029-.292 2.394-2.595 5.414-2.62 5.447l-.272.351.425.131c1.157.356 2.248.476 3 .512-4.785 2.737-11.368 4.122-19.592 4.122"/><path fill="undefined" d="M69.21 9.895c-.585 2.14-2.386 4.504-2.408 4.534l-.54.704.848.26c.727.224 1.429.357 2.04.435-4.653 2.388-10.877 3.596-18.543 3.596-7.669 0-14.583-1.252-17.005-1.746l.964-1.325c1.948.102 3.87.154 5.717.154 17.59-.001 26.012-4.55 28.927-6.612m.789-1.421S62.547 15.89 40.28 15.89c-1.898 0-3.9-.054-6.018-.17l-1.72 2.363s8.375 1.958 18.061 1.958c7.13 0 14.971-1.06 20.704-4.744 0 0-.209.018-.564.018-.716 0-2.031-.073-3.455-.51 0 0 2.871-3.729 2.71-6.331"/><path fill="#f9c780" d="M15.291 20.244c-5.95 0-10.709-1.387-14.162-4.125a6.8 6.8 0 0 0 2.185-.52l.315-.132-.166-.3c-.018-.032-1.618-2.928-1.888-5.315 1.788 1.868 7.82 6.859 21.21 6.859 1.352 0 2.758-.052 4.181-.157l.977 1.853c-1.39.407-6.71 1.837-12.652 1.837"/><path fill="undefined" d="M2.038 10.726c2.453 2.212 8.623 6.293 20.747 6.293 1.294 0 2.638-.048 4.001-.143l.707 1.339c-1.785.498-6.723 1.72-12.202 1.72-5.54 0-10.027-1.211-13.37-3.604a7 7 0 0 0 1.514-.446l.632-.27-.334-.598c-.016-.027-1.217-2.2-1.695-4.29m-.804-1.74c-.12 2.6 1.96 6.33 1.96 6.33a6.5 6.5 0 0 1-2.505.51c-.258 0-.41-.018-.41-.018 4.16 3.683 9.842 4.743 15.012 4.743 7.024 0 13.098-1.958 13.098-1.958l-1.245-2.362c-1.534.117-2.985.17-4.36.17-16.15 0-21.55-7.415-21.55-7.415"/><path fill="#f9c780" stroke="#000" stroke-width=".616" d="M31.89 13.043s7.007-5.509 9.587-8.459 8.639-5.64 9.44-2.135c.8 3.504.765 3.219 2.915 4.94 2.152 1.721 3.626 6.207-3.135 8.605-6.761 2.397-13.11 2.87-16.983 2.317-3.872-.555-3.066-4.284-1.825-5.268ZM28.014 12.336s-3.584-3.883-5.428-5.03c-1.844-1.146-3.976-4.22-5.736-1.844-1.762 2.376-4.22 2.95-5.942 4.63-1.72 1.68.41 2.909 3.566 4.303 3.156 1.392 10.733 2.416 13.54 2.582 2.809.163 1.455-3.504 0-4.64Z"/><path fill="#f9c780" stroke="#000" stroke-width=".616" d="M27.545 18.492c1.236.693 1.948 1.435 5.658.375.692-.195.816-1.11-.168-3.079-.982-1.966 1.313-3.033-1.228-3.524s-4.754-.246-4.672 1.474c.083 1.721-1.404 3.743.41 4.754Z"/></svg>