<svg xmlns="http://www.w3.org/2000/svg" fill="none" viewBox="0 0 24 24"><path fill="url(#a)" d="M10.937 6.217H7.794a.115.115 0 0 0-.114.115v.76c0 .062.051.114.114.114h3.143a.115.115 0 0 0 .114-.114v-.76a.115.115 0 0 0-.114-.115"/><g opacity=".25"><path fill="url(#b)" d="M8.76 6.217h-.143v.989h.143z" opacity=".25"/><path fill="url(#c)" d="M9.457 6.217H9.28v.989h.177z" opacity=".25"/><path fill="url(#d)" d="M9.074 6.217h-.177v.989h.177z" opacity=".25"/><path fill="url(#e)" d="M8.074 6.217H7.99v.989h.085z" opacity=".25"/><path fill="url(#f)" d="M7.903 6.217h-.074v.989h.074z" opacity=".25"/><path fill="url(#g)" d="M8.263 6.217H8.17v.989h.092z" opacity=".25"/><path fill="url(#h)" d="M9.834 6.217h-.177v.989h.177z" opacity=".25"/><path fill="url(#i)" d="M8.48 6.217h-.114v.989h.114z" opacity=".25"/><path fill="url(#j)" d="M10.909 6.217h-.075v.989h.075z" opacity=".25"/><path fill="url(#k)" d="M11.051 6.303a.14.14 0 0 0-.068-.08v.972c.034-.012.057-.046.068-.08z" opacity=".25"/><path fill="url(#l)" d="M7.749 7.195v-.972a.11.11 0 0 0-.07.103v.76c0 .051.03.091.07.109" opacity=".25"/><path fill="url(#m)" d="M10.56 6.217h-.091v.989h.09z" opacity=".25"/><path fill="url(#n)" d="M10.366 6.217h-.115v.989h.115z" opacity=".25"/><path fill="url(#o)" d="M10.743 6.217h-.086v.989h.086z" opacity=".25"/><path fill="url(#p)" d="M10.114 6.217h-.143v.989h.143z" opacity=".25"/></g><path fill="url(#q)" d="M5.217 6.571h-2.8c-.034 0-.057.023-.057.057v.486h2.857z"/><path fill="url(#r)" d="M6.96 7.011H5.731V6.27c0-.035.023-.058.058-.058h1.114c.034 0 .057.023.057.058z"/><path fill="url(#s)" d="M7.406 7.109H5.28a.115.115 0 0 1-.114-.115v-.571c0-.063.051-.114.114-.114h2.126c.063 0 .114.051.114.114v.571a.115.115 0 0 1-.114.115"/><path fill="url(#t)" d="m11.36 6.251-.788.755a.29.29 0 0 1-.2.08h-8.2a.287.287 0 0 0-.286.285V8.83H8.8v3.24h9.114v-3.24h4.143V6.497a.326.326 0 0 0-.325-.326H11.56a.3.3 0 0 0-.2.08"/><path fill="url(#u)" d="M21.606 6.171h-.858V8.83h.858z" opacity=".5"/><path fill="url(#v)" d="M2.457 17.623h19.029a.573.573 0 0 0 .571-.572V8.823H1.886v8.228c0 .32.257.572.571.572"/><path fill="url(#w)" d="M4.966 8.829H2.674v8.8h2.292z"/><path fill="url(#x)" d="M3.2 8.829h-.857v8.8H3.2z"/><path fill="url(#y)" d="M21.269 17.623h-2.292V8.829h2.291z"/><path fill="url(#z)" d="M21.606 8.829h-.858v8.8h.858z"/><path fill="url(#A)" d="M8.189 12.56c-.006.943.205 1.84.588 2.629.046.097-.028-.035-.063.063-.017.045.046.337.012.377a5.95 5.95 0 0 0 1.811 2h5.874c1.669-.989 2.806-2.858 2.812-4.989a5.9 5.9 0 0 0-.589-2.629.42.42 0 0 1 .046-.44 6 6 0 0 0-.491-.742H9.537A5.9 5.9 0 0 0 8.19 12.56"/><path fill="url(#B)" d="M18.686 9.451a5.763 5.763 0 0 0-2.891-2.474.38.38 0 0 1-.407.114 5.5 5.5 0 0 0-1.868-.257c-2.949.097-5.314 2.531-5.337 5.48-.006.903.205 1.76.588 2.514a.38.38 0 0 1-.051.423 5.761 5.761 0 0 0 2.891 2.474.38.38 0 0 1 .406-.114 5.5 5.5 0 0 0 1.869.257c2.948-.097 5.314-2.531 5.331-5.48a5.5 5.5 0 0 0-.589-2.514.42.42 0 0 1 .058-.423"/><path fill="url(#C)" d="M13.703 17.709a5.354 5.354 0 1 0 0-10.709 5.354 5.354 0 0 0 0 10.709"/><path fill="url(#D)" d="M13.703 17.52a5.166 5.166 0 1 0 0-10.332 5.166 5.166 0 0 0 0 10.332"/><path fill="#000" d="M13.703 16.457a4.103 4.103 0 1 0 0-8.205 4.103 4.103 0 0 0 0 8.205"/><path fill="url(#E)" d="M13.703 15.549a3.194 3.194 0 1 0 0-6.389 3.194 3.194 0 0 0 0 6.389"/><path fill="url(#F)" d="M13.703 15.549a3.194 3.194 0 1 0 0-6.389 3.194 3.194 0 0 0 0 6.389"/><path fill="url(#G)" d="M12.617 13.406c-.823 0-1.84.285-2.394 1.125a3.18 3.18 0 0 0 2.343 1.018 3.19 3.19 0 0 0 3.194-3.195 3.2 3.2 0 0 0-.474-1.68c-.12 1.697-1.634 2.732-2.669 2.732"/><path fill="url(#H)" d="M13.703 15.549a3.194 3.194 0 1 0 0-6.389 3.194 3.194 0 0 0 0 6.389" opacity=".25"/><path fill="url(#I)" d="M14.823 9.766a3.036 3.036 0 0 0-2.892 3.96c.098-.206.263-.412.515-.618 1.348-1.085 2.44.08 4.457-.925a3.2 3.2 0 0 0-1.132-2.269 3.1 3.1 0 0 0-.948-.148"/><path fill="url(#J)" d="M13.532 9.16a3.036 3.036 0 0 0 1.28 5.789c.33 0 .65-.052.948-.155a3.2 3.2 0 0 1-2.063.755 3.19 3.19 0 0 1-3.194-3.195A3.207 3.207 0 0 1 13.53 9.16" opacity=".5"/><path fill="url(#K)" d="M13.663 14.326c-.446.405-1.349.143-2.011-.589-.663-.731-.84-1.651-.39-2.057.447-.406 1.35-.143 2.012.588.663.732.835 1.652.389 2.058" opacity=".5"/><path fill="url(#L)" d="M19.189 8.372a.863.863 0 1 0 0-1.726.863.863 0 0 0 0 1.726"/><path fill="url(#M)" d="M8.12 8.303a.354.354 0 1 0 0-.709.354.354 0 0 0 0 .709"/><path fill="url(#N)" d="M8.12 8.154a.206.206 0 1 0 0-.411.206.206 0 0 0 0 .411"/><path fill="#000" d="M8.12 8.091a.143.143 0 1 0 0-.285.143.143 0 0 0 0 .285"/><path fill="url(#O)" d="M7.406 7.109H5.28a.115.115 0 0 1-.114-.115v-.571c0-.063.051-.114.114-.114h2.126c.063 0 .114.051.114.114v.571a.115.115 0 0 1-.114.115"/><path fill="url(#P)" d="M5.96 6.4H5.87v.623h.091z"/><path fill="url(#Q)" d="M6.406 6.4h-.114v.623h.114z"/><path fill="url(#R)" d="M6.166 6.4h-.114v.623h.114z"/><path fill="url(#S)" d="M6.64 6.4h-.114v.623h.114z"/><path fill="url(#T)" d="M5.789 6.4h-.075v.623h.075z"/><path fill="url(#U)" d="M6.977 6.4h-.074v.623h.074z"/><path fill="url(#V)" d="M6.817 6.4h-.091v.623h.091z"/><defs><linearGradient id="a" x1="11.785" x2="8.899" y1="9.829" y2="6.105" gradientUnits="userSpaceOnUse"><stop stop-color="#8ea5a8"/><stop offset="1" stop-color="#cfdcde"/></linearGradient><linearGradient id="b" x1="8.69" x2="8.69" y1="7.138" y2="5.898" gradientUnits="userSpaceOnUse"><stop stop-color="#8ea5a8"/><stop offset="1" stop-color="#cfdcde"/></linearGradient><linearGradient id="c" x1="9.367" x2="9.367" y1="7.138" y2="5.898" gradientUnits="userSpaceOnUse"><stop stop-color="#8ea5a8"/><stop offset="1" stop-color="#cfdcde"/></linearGradient><linearGradient id="d" x1="8.988" x2="8.988" y1="7.138" y2="5.898" gradientUnits="userSpaceOnUse"><stop stop-color="#8ea5a8"/><stop offset="1" stop-color="#cfdcde"/></linearGradient><linearGradient id="e" x1="8.032" x2="8.032" y1="7.138" y2="5.898" gradientUnits="userSpaceOnUse"><stop stop-color="#8ea5a8"/><stop offset="1" stop-color="#cfdcde"/></linearGradient><linearGradient id="f" x1="7.864" x2="7.864" y1="7.138" y2="5.898" gradientUnits="userSpaceOnUse"><stop stop-color="#8ea5a8"/><stop offset="1" stop-color="#cfdcde"/></linearGradient><linearGradient id="g" x1="8.218" x2="8.218" y1="7.138" y2="5.898" gradientUnits="userSpaceOnUse"><stop stop-color="#8ea5a8"/><stop offset="1" stop-color="#cfdcde"/></linearGradient><linearGradient id="h" x1="9.745" x2="9.745" y1="7.138" y2="5.898" gradientUnits="userSpaceOnUse"><stop stop-color="#8ea5a8"/><stop offset="1" stop-color="#cfdcde"/></linearGradient><linearGradient id="i" x1="8.425" x2="8.425" y1="7.138" y2="5.898" gradientUnits="userSpaceOnUse"><stop stop-color="#8ea5a8"/><stop offset="1" stop-color="#cfdcde"/></linearGradient><linearGradient id="j" x1="10.869" x2="10.869" y1="7.138" y2="5.898" gradientUnits="userSpaceOnUse"><stop stop-color="#8ea5a8"/><stop offset="1" stop-color="#cfdcde"/></linearGradient><linearGradient id="k" x1="11.017" x2="11.017" y1="7.138" y2="5.898" gradientUnits="userSpaceOnUse"><stop stop-color="#8ea5a8"/><stop offset="1" stop-color="#cfdcde"/></linearGradient><linearGradient id="l" x1="7.716" x2="7.716" y1="7.138" y2="5.898" gradientUnits="userSpaceOnUse"><stop stop-color="#8ea5a8"/><stop offset="1" stop-color="#cfdcde"/></linearGradient><linearGradient id="m" x1="10.514" x2="10.514" y1="7.138" y2="5.898" gradientUnits="userSpaceOnUse"><stop stop-color="#8ea5a8"/><stop offset="1" stop-color="#cfdcde"/></linearGradient><linearGradient id="n" x1="10.308" x2="10.308" y1="7.138" y2="5.898" gradientUnits="userSpaceOnUse"><stop stop-color="#8ea5a8"/><stop offset="1" stop-color="#cfdcde"/></linearGradient><linearGradient id="o" x1="10.701" x2="10.701" y1="7.138" y2="5.898" gradientUnits="userSpaceOnUse"><stop stop-color="#8ea5a8"/><stop offset="1" stop-color="#cfdcde"/></linearGradient><linearGradient id="p" x1="10.043" x2="10.043" y1="7.138" y2="5.898" gradientUnits="userSpaceOnUse"><stop stop-color="#8ea5a8"/><stop offset="1" stop-color="#cfdcde"/></linearGradient><linearGradient id="q" x1="2.177" x2="5.348" y1="8.587" y2="5.187" gradientUnits="userSpaceOnUse"><stop stop-color="#fff"/><stop offset="1" stop-color="#99afb3"/></linearGradient><linearGradient id="r" x1="6.161" x2="6.304" y1="5.818" y2="6.456" gradientUnits="userSpaceOnUse"><stop stop-color="#8ea5a8"/><stop offset="1" stop-color="#cfdcde"/></linearGradient><linearGradient id="s" x1="7.117" x2="6.324" y1="9.214" y2="6.642" gradientUnits="userSpaceOnUse"><stop stop-color="#bbcacc"/><stop offset=".423" stop-color="#8ea5a8"/><stop offset="1" stop-color="#cfdcde"/></linearGradient><linearGradient id="t" x1="11.891" x2="12.12" y1="11.121" y2="2.512" gradientUnits="userSpaceOnUse"><stop stop-color="#fff"/><stop offset="1" stop-color="#99afb3"/></linearGradient><linearGradient id="u" x1="21.593" x2="20.74" y1="7.499" y2="7.499" gradientUnits="userSpaceOnUse"><stop stop-color="#fff" stop-opacity="0"/><stop offset=".463" stop-color="#fff"/><stop offset="1" stop-color="#fff" stop-opacity="0"/></linearGradient><linearGradient id="v" x1="9.06" x2="13.365" y1="-14.618" y2="26.149" gradientUnits="userSpaceOnUse"><stop stop-color="#939fa1"/><stop offset="1"/></linearGradient><linearGradient id="w" x1="2.692" x2="4.98" y1="13.226" y2="13.226" gradientUnits="userSpaceOnUse"><stop stop-color="#2e3233" stop-opacity="0"/><stop offset=".463" stop-color="#2e3233"/><stop offset="1" stop-color="#2e3233" stop-opacity="0"/></linearGradient><linearGradient id="x" x1="2.35" x2="3.203" y1="13.226" y2="13.226" gradientUnits="userSpaceOnUse"><stop stop-color="#484d4f" stop-opacity="0"/><stop offset=".463" stop-color="#484d4f"/><stop offset="1" stop-color="#484d4f" stop-opacity="0"/></linearGradient><linearGradient id="y" x1="21.251" x2="18.963" y1="13.226" y2="13.226" gradientUnits="userSpaceOnUse"><stop stop-color="#2e3233" stop-opacity="0"/><stop offset=".463" stop-color="#2e3233"/><stop offset="1" stop-color="#2e3233" stop-opacity="0"/></linearGradient><linearGradient id="z" x1="21.593" x2="20.74" y1="13.226" y2="13.226" gradientUnits="userSpaceOnUse"><stop stop-color="#484d4f" stop-opacity="0"/><stop offset=".463" stop-color="#484d4f"/><stop offset="1" stop-color="#484d4f" stop-opacity="0"/></linearGradient><linearGradient id="A" x1="13.711" x2="13.711" y1="10.389" y2="21.883" gradientUnits="userSpaceOnUse"><stop offset=".463"/><stop offset="1" stop-color="#2e3233" stop-opacity="0"/></linearGradient><linearGradient id="B" x1="8.262" x2="19.024" y1="5.996" y2="18.567" gradientUnits="userSpaceOnUse"><stop stop-color="#fff"/><stop offset="1" stop-color="#99afb3"/></linearGradient><linearGradient id="C" x1="15.603" x2="13.346" y1="1.531" y2="14.388" gradientUnits="userSpaceOnUse"><stop stop-color="#8ea5a8"/><stop offset="1" stop-color="#bbcacc"/></linearGradient><linearGradient id="D" x1="14.615" x2="12.593" y1="20.762" y2="2.104" gradientUnits="userSpaceOnUse"><stop stop-color="#fff"/><stop offset="1" stop-color="#99afb3"/></linearGradient><linearGradient id="I" x1="13.438" x2="18.249" y1="10.343" y2="22.056" gradientUnits="userSpaceOnUse"><stop stop-color="#d1f2ff" stop-opacity="0"/><stop offset="1" stop-color="#80dafe"/></linearGradient><linearGradient id="L" x1="19.11" x2="19.467" y1="7.227" y2="8.489" gradientUnits="userSpaceOnUse"><stop stop-color="#f93230"/><stop offset="1" stop-color="#c20000"/></linearGradient><linearGradient id="M" x1="8.141" x2="8.112" y1="9.232" y2="7.584" gradientUnits="userSpaceOnUse"><stop stop-color="#939fa1"/><stop offset="1"/></linearGradient><linearGradient id="N" x1="8.118" x2="8.118" y1="8.68" y2="7.451" gradientUnits="userSpaceOnUse"><stop stop-color="#939fa1"/><stop offset="1"/></linearGradient><linearGradient id="O" x1="7.117" x2="6.324" y1="9.214" y2="6.642" gradientUnits="userSpaceOnUse"><stop stop-color="#bbcacc"/><stop offset=".423" stop-color="#8ea5a8"/><stop offset="1" stop-color="#cfdcde"/></linearGradient><linearGradient id="P" x1="6.414" x2="5.718" y1="7.926" y2="6.224" gradientUnits="userSpaceOnUse"><stop stop-color="#8ea5a8"/><stop offset="1" stop-color="#cfdcde"/></linearGradient><linearGradient id="Q" x1="6.787" x2="6.089" y1="7.79" y2="6.087" gradientUnits="userSpaceOnUse"><stop stop-color="#8ea5a8"/><stop offset="1" stop-color="#cfdcde"/></linearGradient><linearGradient id="R" x1="6.579" x2="5.882" y1="7.867" y2="6.163" gradientUnits="userSpaceOnUse"><stop stop-color="#8ea5a8"/><stop offset="1" stop-color="#cfdcde"/></linearGradient><linearGradient id="S" x1="6.995" x2="6.297" y1="7.714" y2="6.01" gradientUnits="userSpaceOnUse"><stop stop-color="#8ea5a8"/><stop offset="1" stop-color="#cfdcde"/></linearGradient><linearGradient id="T" x1="6.268" x2="5.573" y1="7.978" y2="6.278" gradientUnits="userSpaceOnUse"><stop stop-color="#8ea5a8"/><stop offset="1" stop-color="#cfdcde"/></linearGradient><linearGradient id="U" x1="7.303" x2="6.607" y1="7.598" y2="5.898" gradientUnits="userSpaceOnUse"><stop stop-color="#8ea5a8"/><stop offset="1" stop-color="#cfdcde"/></linearGradient><linearGradient id="V" x1="7.158" x2="6.462" y1="7.652" y2="5.95" gradientUnits="userSpaceOnUse"><stop stop-color="#8ea5a8"/><stop offset="1" stop-color="#cfdcde"/></linearGradient><radialGradient id="E" cx="0" cy="0" r="1" gradientTransform="translate(15.495 20.871)scale(13.7478)" gradientUnits="userSpaceOnUse"><stop stop-color="#17bbfe"/><stop offset="1"/></radialGradient><radialGradient id="F" cx="0" cy="0" r="1" gradientTransform="translate(13.822 12.449)scale(4.04461)" gradientUnits="userSpaceOnUse"><stop offset=".663" stop-color="#17bbfe" stop-opacity="0"/><stop offset="1" stop-color="#17bbfe" stop-opacity=".75"/></radialGradient><radialGradient id="G" cx="0" cy="0" r="1" gradientTransform="translate(11.607 8.69)scale(5.29008)" gradientUnits="userSpaceOnUse"><stop stop-color="#80dafe"/><stop offset="1" stop-color="#80dafe" stop-opacity="0"/></radialGradient><radialGradient id="H" cx="0" cy="0" r="1" gradientTransform="translate(13.101 10.68)scale(5.00205)" gradientUnits="userSpaceOnUse"><stop stop-color="#b0e9ff" stop-opacity="0"/><stop offset=".999" stop-color="#b0e9ff" stop-opacity=".75"/></radialGradient><radialGradient id="J" cx="0" cy="0" r="1" gradientTransform="translate(14.458 11.86)scale(6.30411)" gradientUnits="userSpaceOnUse"><stop offset=".487" stop-color="#80dafe" stop-opacity="0"/><stop offset="1" stop-color="#80dafe"/></radialGradient><radialGradient id="K" cx="0" cy="0" r="1" gradientTransform="matrix(.99486 1.09776 -.70384 .63786 12.6 12.76)" gradientUnits="userSpaceOnUse"><stop stop-color="#fff" stop-opacity=".5"/><stop offset="1" stop-color="#fff" stop-opacity="0"/></radialGradient></defs></svg>