<svg xmlns="http://www.w3.org/2000/svg" width="101.633" height="256.756" viewBox="0 0 101.633 256.756"><g stroke-miterlimit="10" data-paper-data="{&quot;isPaintingLayer&quot;:true}" style="mix-blend-mode:normal"><g data-paper-data="{&quot;origPos&quot;:null}"><path fill="#7489aa" d="m59 256.756.8-9.7 13.7.6 8.7 2.3 6.9 6.8z"/><path fill="#94c0de" d="m58.1 248.456-4.2-50.4-8.2-62h34.1l1.8 62.3-1.2 50.1z"/></g><path fill="#7489aa" d="m18.4 256.756.8-9.7 13.7.6 8.7 2.3 6.9 6.8z"/><path fill="#94c0de" d="m17.7 248.456.6-52.3 1.8-60.1h33l-8.4 61.8-6.3 50.6z"/><path fill="#c5945b" d="M86.6 115.356c-3.8.8-10.5-.4-10.5-.4s-11.1-46.3-2.6-48.7c15.3-4.7 19.3 45.3 19.3 45.3s-2.4 3-6.2 3.8"/><path fill="#d3c9c9" d="M68.3 102.256s-11.7-35.9 2.3-39.4c12.3-3.1 24.4 29.8 24.4 29.8z"/><g fill="#c5945b"><path d="m97.5 138.456-9.9 3.3-11.5-26.3s3.7-4.6 8.1-4.7c3.3-.1 8.9.2 8.9.2z" data-paper-data="{&quot;origPos&quot;:null}"/><path d="M93.233 160.656c-2.1 0-1-8.8-3-9.2-1.5-.3.3 5.4-.3 6.3s-3.6-.9-3.6-.9-2.6-5.3-3.1-8c-1-6.1 5.4-11.3 5.4-11.3l8.1.4s4.9 6.7 4.9 11c0 4-3.6 9.1-3.6 9.1s-2.5 2.6-4.8 2.6" data-paper-data="{&quot;origPos&quot;:null}"/></g><path fill="#e6dbdb" d="m16.2 141.356.9-75.6s16.2-8.6 31.5-8.8 26.8 4.9 29.7 6.2c2.7 1.2 4.4 80.4 4.4 80.4s-19.7 2.8-33.3 2.7c-13.9-.2-33.2-4.9-33.2-4.9" data-paper-data="{&quot;origPos&quot;:null}"/><g data-paper-data="{&quot;origPos&quot;:null}"><path fill="#c5945b" d="M8.7 118.156c-3.3-.3-8.5-2.4-8.5-2.4s6.3-50.7 25.4-49.9c15 .1-8.4 51.3-8.4 51.3s-5.2 1.3-8.5 1"/><path fill="#d3c9c9" d="M1.3 91.356s13.1-28.2 22.5-27.2c22.2 2.4 3 37.1 3 37.1z"/></g><path fill="#21150b" d="M71.8 27.956c.2 1.7-2.5 2.5-2.2 4.2.3 1.4.4 2.9 0 4.2-.5 1.3-1.3 1.6-1.7 2.9-.3.9.3 1.9-.3 2.6-3.1 3.2-25.4 12.4-25.4 12.4s-4-1-5.9-2c-.9-.5.2-1.9-.8-2.2-1.9-.5-4.1 1.2-5.6 0s.1-1.8-.7-3.6c-1.1-2.3-2.1 1.5-3.5-2.8-.6-2-.1-1.6-.8-3.6-1.2-3.4-3.2-5.4-.5-7.7 1.2-1-2.9.8-2.3-3.7.1-1.1 1.1-2.2 1.3-3.2.3-1.2-1.6.1-.7-3.8.2-1 2.3-1 2.1-2-.3-1.4-1.1-3.1-.2-4.2 1.1-1.2 1.9-1 2.6-2.5.9-1.8-1-.8.3-2.4.8-1 2.3-2.9 3.4-2.2 1.5.9-.7-1.2.5-2.5 2.1-2.3 5.2-2.4 8.3-2.4 0 0 2.7-3.1 4.6-3.4 2.8-.5 2.3 2.5 4.7 2 1.2-.2 8.2-.7 9.2 2.9.2.9 1 1.2 1.9 1.5 1.9.8 3.6.6 4.5 2.5.576 1.28 1.946 1.063 2.86 2.128.936 1.094-.794 2.552.189 3.605 1.409 1.507 2.431.875 2.974 2.866.306 1.123-.84 1.787-.8 2.95.042 1.265 1.153.94 1.571 2.134.281.804-.374 2.27-.294 3.117z" data-paper-data="{&quot;origPos&quot;:null}"/><g fill="#c5945b"><path d="m40.4 47.156 16.3 3.4-.1 9.1s5.2.9 5.2 3.7c-.1 4.5-20.3 6.9-24.5 0-1.6-3.4 2.2-4.6 2.2-4.6zM35.8 36.056c.8 2.4.3 4.7-1 5.1-1.4.5-3.2-1-4-3.4s-.3-4.7 1-5.1c1.4-.4 3.2 1.1 4 3.4" data-paper-data="{&quot;origPos&quot;:null}"/><path d="M67.3 33.856c0 12.8-7.9 19.6-14.7 19.9-11.8.2-19.4-9.5-19.4-22.3s2.2-22.4 17.2-23.1c11.4-.6 18.932 11.5 16.932 25.2z" data-paper-data="{&quot;origPos&quot;:null}"/></g><path d="M55.7 46.656c0 .7-2 2.2-3.7 2.2-1.8 0-3.5-1.9-3.5-2.7s2.2 0 4 0c1.7 0 3.2-.3 3.2.5"/><path fill="none" stroke="#000" stroke-linecap="round" stroke-width="1.278" d="M55.1 39.156s-.3 1-2.2 1c-1.4 0-2.2-.8-2.2-.8"/><g fill="#c5945b" data-paper-data="{&quot;origPos&quot;:null}"><path d="m3.5 142.756-3.5-27.9s5.3-1 8.4-1.4c4.3-.5 9.1 3.6 9.1 3.6l-3.6 27.7z"/><path d="M7.2 161.256s-4.9-4.8-5.7-8.8c-.9-4.3 2.9-11.3 2.9-11.3l8.6-1.1s8 4.7 8.2 10.7c.1 2.7-1.7 8.2-1.7 8.2s-2.9 2-3.7 1.2-.1-6.6-1.6-6.2c-2.1.5.9 9.2-1.3 9.3-2.4.3-5.7-2-5.7-2"/></g><path fill="none" stroke="#000" stroke-linecap="round" stroke-width="1.278" d="M41.6 27.356s2.9-.8 4.4-.8c1.7-.1 3.7.8 3.7.8M41.5 31.656s2.2-1.9 4.5-1.7c2.5.2 2.9 1.5 2.9 1.5"/><path d="M44.8 32.456c0-1.2.9-2.2 2.1-2.2s2.1 1 2.1 2.2-.9 2.2-2.1 2.2c-1.1 0-2.1-1-2.1-2.2"/><path fill="none" stroke="#000" stroke-linecap="round" stroke-width="1.278" d="M57 27.256s2.3-.8 4-.8c1.5.1 3.2.5 3.2.5M57 31.456s.5-1.3 2.9-1.5c2.3-.2 4.5.7 4.5.7"/><path d="M61.9 34.356c-1.2 0-2.1-1-2.1-2.2s.9-2.2 2.1-2.2 2.1 1 2.1 2.2c.1 1.2-.9 2.2-2.1 2.2"/><g fill="#21150b" data-paper-data="{&quot;origPos&quot;:null}"><path d="M69.7 14.956c.3 1.3 2.9 1.8 3.2 3.1.5 1.8-.9 1.6-1.9 3.2-.5.8.7 2.4.8 3.3.1 1-2.5 1.2-3.3 1.8-2.3 1.7-2.2-1.7-3.5-2.4-1.4-.8-2.6.1-3.4-1.3-.9-1.6.1-2.3-.4-4.1-.7-2.5-2.7-.8-4.3-2.8-.8-1.1.3-2.5-.5-3.7-.8-1.4-2.7-1.5-2.1-3 .5-1.1.5-1.6.3-2.8-.1-.4 1.2-1.6 1.7-1.7 0 0 .6.8 1.9.5 1.2-.3 2.1-1.2 3.3-.9 1.7.4 1 1.9 2.3 3 1.4 1.3 3.5 1.2 4.8 2.7 1.3 1.6-.6-1.2 1.1 5.1" data-paper-data="{&quot;origPos&quot;:null}"/><path d="M40.4 6.556c2-.7-.7-2.6 4-2.9 1.8-.1 2.8 2.9 4.5 2.4 2.2-.7 1.6-2 3.8-1.5 1.767.328 2.784-.607 4.536-.206 1.175.268 1.238 1.33 2.184 2.08.89.704 1.896.458 2.28 1.526.2.542-.738 1.864-.637 2.433.303 1.705 2.334 4.269-.063 5.467-2.7 1.2-2.7 2.8-3.8 3.2-1.928.482-2.498-1.137-4.3-.3-1.765.82.8 2.8-2.2 3.8-1.3.7-2.6-1.4-4.6-.1-1.258.818-.4 3.3-1.6 4.1-2.7 1.8-3.3-1.5-4.7-.7-.737.386-.94 2.229-1.621 2.706-1.178.824-1.957-.203-3.079.694-1.5 1.2-.8 4.2-1.7 3.8-4.2-1.9-2.7-2.7-3.4-4.6-.3-.9-1.7-1.6-1.8-2.5-.2-1.2.4-1.2.6-2.4.1-.8-1.5-1.7-1.1-3.9.2-1.1 1.7-1.4 1.2-2.3-.4-.8-.6-2.1-.1-2.8 1.5-2 2.8.4 2-.6-.8-1.1.5-1.9 1.3-3 .5-.6 2-.3 2.5-.9.9-1.4.6-2.6 2.1-3.4 3.2-1.9 3.7-.1 3.7-.1" data-paper-data="{&quot;origPos&quot;:null}"/></g></g></svg>