<svg xmlns="http://www.w3.org/2000/svg" xml:space="preserve" width="85.489" height="156.002" viewBox="-0.304 -0.011 85.489 156.002"><title>Slice 1</title><g fill-rule="evenodd"><path fill="#dcaa78" d="M68.465 135.748c-.735-12.152-4.388-49.422-5.984-55.476l-13.147-2.566c-.292 2.854 1.373 6.822 1.959 9.609a3898 3898 0 0 0 4.055 18.912 6360 6360 0 0 0 3.537 16.346c1.23 5.624 2.143 11.745 5.083 16.742.259-.876-.166-1.696.575-2.176 1.028.497 1.148 1.82 1.82 2.668.081-.701-.212-2.894.867-3.064.655.497.684 1.413 1.304 2.148.079-1.047.055-2.1-.069-3.143"/><path fill="#005a5a" d="M63.624 82.166c-.425-1.832-1.924-5.89-5.56-11.305-2.446-3.634-6.972-8.478-10.579-10.739l.689 22.01z"/><path fill="#281446" d="M55.078 81.516h9.775v5.431h-9.775z"/><path fill="#dcaa78" d="M19.027 81.544c-1.183-.503-6.11-1.001-7.719-.786q-.143.223-.224.475c-.689 3.47-1.298 28.221-.987 34.439 2.245.198 8.861.073 8.861.073z"/><path fill="#008264" d="M21.887 56.855c-.844.486-4.692 3.488-7.219 9.162s-4.164 16.878-4.187 17.07c.247.079 14.789-.164 15.008-.141z"/><path fill="#281446" d="M8.15 81.516h9.775v5.431H8.15z"/><path fill="#005a5a" d="M25.167 96.923h23.312v7.789H25.167z"/><path fill="#005a5a" d="M38.686 88.445c.919 4.607 9.931 37.395 10.304 39.294l10.499-2.679c1.407-2.996 1.722-22.213 1.975-27.503z"/><path fill="#005a5a" d="M15.817 93.323c.729 3.793 1.723 32.783 2.406 32.783.287 0 14.261-.69 14.651-.792 1.723-6.924 7.099-32.008 8.202-38.898z"/><path fill="#dcaa78" d="M44.734 58.455c-5.829-2.872-13.72-6.574-19.912-3.312l15.645 15.741s6.8-9.682 7.259-10.361a12.6 12.6 0 0 0-2.992-2.068"/><path fill="#fff" d="M29.52 60.817s10.912 3.561 17.23.73l-1.378 9.41-12.291-.288z"/><path fill="#00a08c" d="M61.924 96.16c-1.028-8.772-1.792-13.316-4.233-19.946-2.297-6.251-5.089-11.508-10.206-16.058-2.561 1.95-8.689 7.19-8.689 7.19s-11.05-10.739-13.847-12.605c-.787.04-2.682 1.781-3.062 2.114a77 77 0 0 0-4.801 15.634c-1.665 9.326-1.723 19.466-1.803 23.609z"/><path fill="#be8264" d="M26.143 40.283c-.534-2.357-.7-4.799-1.229-7.122-1.958-2.498-5.421-.531-5.375 2.21.063 3.42 3.474 5.178 6.604 4.912M51.052 40.283c.534-2.357.7-4.799 1.229-7.122 1.952-2.498 5.421-.531 5.37 2.21-.058 3.42-3.469 5.178-6.599 4.912"/><path fill="#dcaa78" d="M22.399 33.54c.212 1.385 1.591 15.967 15.736 15.826 13.175-.102 15.783-9.914 15.892-15.826z"/><path d="M32.02 34.777c1.734 2.279 1.474 3.353-1.266 4.594-1.405 0-1.959-.513-2.289-1.129-.686-1.296-.156-2.69 1.422-3.735zM51.013 34.777c1.805 2.279 1.461 3.353-1.256 4.594-1.392 0-1.942-.513-2.286-1.129-.664-1.298-.133-2.689 1.427-3.735z"/><path fill="#be8264" d="M33.552 31.556c-.224.808 1.149 5.839 1.505 6.636a3.69 3.69 0 0 0 2.998 2.029c1.527.113 3.446-.232 4.164-1.323.643-.944 1.654-5.183 1.522-6.33-1.189-.401-8.598-1.441-10.189-1.012"/><path fill="#f00a78" d="M27.349 48.173c-.172 6.127 6.318 11 12.4 10.841 9.947-.26 11.584-8.048 10.711-13.74-.907-5.901-6.317-8.241-11.687-8.348-6.611-.136-10.792 4.985-11.424 11.247"/><path fill="#f04650" d="M39.829 44.969c-.069 2.509 2.579 4.521 5.072 4.437 4.072-.108 4.744-3.296 4.388-5.624-.374-2.414-2.596-3.392-4.785-3.42-2.699-.051-4.416 2.029-4.675 4.607"/><path fill="#f04650" d="M37.446 40.418c0 1.351 1.334 2.421 2.622 2.389 2.104-.054 2.447-1.772 2.287-3.021-.16-1.25-1.342-1.812-2.47-1.843-1.336.004-2.422 1.106-2.439 2.475"/><path fill="#005a5a" d="M63.463 38.529s21.141.44 21.221-2.334c.063-2.092-5.278-2.202-8.27-2.345-4.652-.209-19.682-.176-22.904-.11-.098.781 9.953 4.789 9.953 4.789"/><path fill="#00a08c" d="M36.946 2.17c-7.736.227-17.568 5.364-22.209 12.656-5.008 7.873-2.998 20.754-2.998 20.754l13.267.311z"/><path fill="#008264" d="M58.742 13.452C53.349 7.8 46.543 2.809 38.738 2.204c-.172 0-1.476-.48-1.476-.48-15.788 11.677-12.256 34.167-12.256 34.167l38.48.243s1.815-15.82-4.744-22.682"/><path fill="#281446" d="M35.505 3.726c.554 1.579 1.366 1.675 2.177 1.615a3.2 3.2 0 0 1 1.889-.155c.195.095.459-.276.686-.431.266-.952.254-2.097-.032-3.027-1.926-2.406-3.915-1.077-4.72 1.998"/><path fill="#f01446" d="M45.946 122.353c.511 4.064 5.812 32.884 6.042 33.138.362-.169 7.104-.158 7.104-.158l-.212-1.068s-2.751-.17-3.153-.373c-1.224-1.244 5.324-30.765 5.513-31.381-.04-.113-15.294-.158-15.294-.158"/><path fill="#281446" d="M44.797 120.459c.408 2.351 1.183 7.54 1.206 7.636s15.26.232 15.26.232l1.011-7.913zM46.291 129.322c.172 1.621.338 3.243.488 4.865h13.68l.701-4.865z"/><path fill="#281446" d="M47.054 133.301c.121 1.61.219 3.231.276 4.865h12.36c.08-.467.35-3.733.436-4.865z"/><path fill="#f01446" d="M15.507 122.827c.069.294 8.942 31.087 8.942 31.087s-2.142.147-3.894.221v1.062l7.828-.062s2.257-12.435 2.809-15.549c.959-5.471 1.786-10.937 2.343-16.453z"/><path fill="#281446" d="m35.953 120.391-20.86.062c.488 2.352 1.419 7.54 1.448 7.637s15.19.209 17.918.226c.512-2.629.954-5.285 1.494-7.925M34.264 129.322H16.879q.31 2.426.575 4.865h16.293c.19-1.61.356-3.244.517-4.865"/><path fill="#281446" d="M33.362 133.301H17.804c.144 1.61.259 3.231.333 4.865h14.571q.353-2.415.654-4.865M13.261 94.307h49.501v5.556H13.261z"/><path fill="#005a5a" d="M18.522 93.363h4.943v7.602h-4.943zM26.718 93.363h4.943v7.602h-4.943zM48.123 93.363h4.943v7.602h-4.943zM56.847 93.363h4.943v7.602h-4.943z"/><path fill="#ffc800" d="M35.792 93.527h8.299v6.98h-8.299z"/><path fill="#642800" d="M21.991 120.352c-.787-1.362-15.576 1.995-15.576 1.995l8.856 21.15s12.21-7.02 12.325-7.11c.04-.735-5.278-15.47-5.605-16.035"/><path fill="#824600" d="m25.994 133.16-9.62 4.838 1.263 4.188 9.741-5.307zM24.409 127.767l-9.551 3.363-.339.877.982 1.865 10.022-3.929z"/><path fill="#a0640a" d="M29.291 133.877c-1.207-3.391-2.332-6.827-3.613-10.213-1.149-3.03-1.867-6.619-3.963-9.151-3.124.062-6.145.334-9.252.627-2.923.277-6.145-.039-8.931.933C.66 120.595.086 127.338.212 132.555c.087 4.318 1.074 13.565 5.416 16.024 1.476-.306 13.129-6.172 13.129-6.172s-3.974-15.968-.534-17.307a7.2 7.2 0 0 1 3.188.378c1.832 3.957 3.365 8.06 5.197 12.034l.816.305c.942-.288 1.516-1 2.263-1.583a7.3 7.3 0 0 0-.396-2.357"/><path fill="#824600" d="m5.111 117.249-1.309 4.612 13.456-1.215.334-4.601z"/></g></svg>