<svg xmlns="http://www.w3.org/2000/svg" width="800" height="800" aria-hidden="true" class="iconify iconify--noto" viewBox="0 0 128 128"><path fill="#168dfc" d="M114.28 8.73c-21.16-12.76-45 8.14-51.29 24.34-6.29 16.19 3.81 26.96 3.81 26.96s-31.52 32.95-33.71 33.8l.81 3.71L68.48 63.3s5.81 5.56 15.62 5.24c17.43-.57 25.62-9.79 29.43-14 3.92-4.33 9.05-11.53 10.19-22.67.85-8.32-.53-17.77-9.44-23.14m-7.23 47.01c-12.48 11.05-25.24 9.43-29.81 7.05s-5.62-4-7.33-5.91c-1.03-1.15-6.19-7-4.38-18.62 1.28-8.2 5.58-13.74 11.24-19.38 6.4-6.38 24.58-16.26 37.35-4.47 10.96 10.14 5.4 30.28-7.07 41.33"/><path fill="#05bef2" d="M112.09 48.4c-10.42 14.16-29.81 20.19-40.48 10.19l-1.71-1.71s-.67.57-2.29.1c-1.62-.48-4.76-4.91-5.14-10.67-.82-12.45 3.32-20.49 12.19-28.67C88.09 5.25 106.5 3.5 115.62 14.21c3.81 4.47 7.9 18.67-3.53 34.19m10.58-27.57c-.32-2.98-2.13-6.97-4.95-9.67C103.24-2.7 82.65 6.54 73.04 15.4c-10.48 9.67-12.76 17.95-13.41 26.79-.81 11.09 4.91 16.95 4.91 16.95l-33.42 33.4.57 4.62 36.67-36.48s4.93 5.25 15.81 5.71c8.86.38 17.81-4.06 24.19-9.72 7.92-6.98 16.02-19.6 14.31-35.84"/><path fill="#62666a" d="M58.62 62.51c-.1.65 5.75 6.33 6.57 6.33s4.41-3.77 4.41-4.18-5.73-6.66-6.63-6.58c-.9.07-4.18 3.36-4.35 4.43M27.93 92.64s-.2-1.04.86-2.07c1.26-1.23 2.52-.63 5.56 2.64 3.1 3.33 4.02 4.38 2.85 5.85-1.14 1.43-2.47 1.09-2.47 1.09l-20.48 20.3s.29 1.92-1.07 2.85c-1 .69-2.57.43-2.57.43l-6.63-6.84s-.43-1.57.64-2.71 2.64-.71 2.64-.71z"/><path fill="#858485" d="M30.87 94.55c-.62-.35-1.83-.05-2.54.86s-.36 2.19-1.07 2.74c-.71.56-2.24.46-3.76 1.98s-1.32 3.86-2.44 4.88-3.23 1.09-4.37 2.24c-1.68 1.68-1.83 4.07-2.74 4.83s-2.69.46-3.61 1.32-1.52 3.25.25 3.86 1.73-1.22 2.95-1.58 2.39-.61 3.41-2.03.91-2.8 2.03-3.86c1.12-1.07 2.95-1.02 4.27-2.19s1.17-3.71 2.69-5.03 2.29-.56 3.46-1.98.86-2.8 1.83-3.25c.96-.45.91-2.08-.36-2.79"/><path fill="#b9ced4" d="M104.41 56.25 71.54 23.48c-.41-.41-.41-1.07 0-1.48s1.07-.41 1.48 0l33.11 32.87s-.35.3-.93.77c-.38.29-.79.61-.79.61M111.11 49.66l-33.5-33.11c-.41-.41-.41-1.07-.01-1.48.41-.41 1.07-.41 1.48-.01l33.32 32.89s-.18.33-.62.88c-.19.24-.67.83-.67.83M95.9 61.21 66.73 31.09c-.4-.41-.39-1.08.02-1.48s1.07-.39 1.48.02l29.73 30.65s-.5.24-1.01.49c-.48.23-1.05.44-1.05.44M84.99 63.53l-20.7-21.9c-.4-.42-.39-1.08.03-1.48s1.08-.39 1.48.03c0 0 21.67 22.66 21.61 22.74-.04.05-.27.5-1.12.52-.4.01-1.3.09-1.3.09M116.18 41.69 86.29 12.45c-.41-.4-.42-1.07-.02-1.48.41-.41 1.07-.42 1.48-.02l29.32 28.7s-.18.43-.38.89c-.19.46-.51 1.15-.51 1.15M119.22 32 96.96 9.49c-.41-.41-.4-1.07.01-1.48s1.07-.4 1.48.01l21.09 21.12s-.13 1.69-.32 2.86"/><path fill="#b9ced4" d="M64.98 37.84c-.26 0-.53-.1-.73-.3-.41-.4-.42-1.06-.02-1.48L91.86 8.73c.4-.41 1.06-.42 1.48-.02.41.4.42 1.06.02 1.48L65.73 37.52c-.2.22-.47.32-.75.32M65.28 49.1c-.27 0-.53-.1-.74-.31-.41-.41-.41-1.07 0-1.48l39.11-39.05c.41-.41 1.07-.41 1.48 0s.41 1.07 0 1.48L66.01 48.79c-.2.2-.47.31-.73.31M69.5 57.52a1.044 1.044 0 0 1-.74-1.78l42.67-43.38c.4-.41 1.06-.42 1.48-.01.41.41.42 1.07.01 1.48L70.25 57.21c-.21.21-.48.31-.75.31M75.23 61.22l42.38-42.53s.16.02.47.59c.28.51.49 1.44.49 1.44L77.23 62.17s-.48-.15-1.02-.42c-.6-.3-.98-.53-.98-.53M84.96 63.54l34.62-36.04c.03.96-.17 3.29-.17 3.29L88.32 63.3s-1.45.24-3.36.24"/></svg>