<svg xmlns="http://www.w3.org/2000/svg" width="185.689" height="171.263" viewBox="-0.338 0.097 185.689 171.263"><path fill="#a0aa1e" d="m37.242 107.544-4.12-48.95-28.921 1.783c-.97 14.912-.566 32.741 1.212 45.87 1.131 8.509 3.393 17.019 5.412 25.366.323 1.297 6.14 23.097 9.452 19.532-.08-3.323-2.585-6.889-3.393-10.131l.566-.243c3.312 3.647 3.231 10.455 9.613 10.941.323-3.485-2.342-8.591-1.05-11.832l.808-.162c2.1 4.943 3.716 9.319 8.725 11.913 2.423-2.999.888-8.915.888-12.4 0-5.997 2.02-25.771.808-31.687"/><path fill="#824600" d="M32.072 32.903S1.373 44.411.162 70.912c3.554 4.215 33.445 1.054 33.445 1.054z"/><path fill="#a0aa1e" d="M184.758 106.814c-.162-7.294-.566-14.669-1.131-21.962-.324-3.809-.97-7.537-1.535-11.346-.323-2.351-.97-13.21-2.747-15.155-3.959.891-25.286 8.104-28.841 10.13l2.909 54.866c0 3.323 2.585 24.07 5.332 26.339l1.211.081c2.424-2.188 3.636-9.806 6.706-10.049 1.938 1.945 1.454 8.023 2.262 10.697 4.281 1.135 4.362-11.184 7.432-9.401.242 1.945-.97 6.646 0 8.186l.889.081c4.847-3.972 5.816-13.616 6.624-19.451 1.131-7.78 1.05-15.236.889-23.016"/><path fill="#824600" d="m152.362 31.364-7.593 25.528 12.037 14.02c13.653-.324 26.336.487 27.952-1.296-1.697-20.099-26.821-36.226-32.396-38.252"/><path fill="#a0aa1e" d="m127.4 143.689 24.72 3.809c0 .405-3.716 22.286-3.716 22.286l9.775.162s-.081.649-.162.892c-3.231.081-31.345-.081-31.345-.081s.566-26.582.728-27.068"/><path fill="#005a5a" d="M156.079 158.844c.161-2.918 0-5.998.242-8.834.404-4.376 2.343-24.718 2.02-26.987l-38.939-16.857c0 2.188-.162 39.306 1.373 52.759z"/><path fill="#006482" d="M117.544 152.765h41.604v13.372h-41.604z"/><path fill="#a0aa1e" d="m65.76 143.689-24.721 3.809c0 .405 3.716 22.286 3.716 22.286l-9.775.162s.081.649.162.892c3.231.081 31.345-.081 31.345-.081s-.646-26.582-.727-27.068"/><path fill="#005a5a" d="m71.172 157.547-.08-43.115-35.304 10.212s1.697 24.637 3.797 32.984z"/><path fill="#006482" d="M34.738 154.386h39.504v13.372H34.738z"/><path fill="#fab414" d="M117.059 12.075v2.107c3.312.082 8.644-.081 10.341-.081v-2.107c-2.909-.081-7.433 0-10.341.081"/><path fill="#ffc800" d="M126.996 6.727s-3.07 0-4.605.729l2.423 10.86a32.6 32.6 0 0 0 4.767-.811z"/><path fill="#fab414" d="M69.072 12.075v2.107c-3.312.082-8.644-.081-10.341-.081v-2.107c2.828-.081 7.352 0 10.341.081"/><path fill="#ffc800" d="M59.135 6.727s3.07 0 4.605.729l-2.423 10.86a32.6 32.6 0 0 1-4.767-.811z"/><path fill="#a0aa1e" d="M117.463 1.945C109.869-.162 85.229.81 79.817.891c-5.09.082-10.179-1.134-12.684 4.053-2.1 4.376-3.474 18.153-4.281 25.366l60.912-.243c-.727-6.565-4.281-26.177-6.301-28.122"/><path fill="#a0aa1e" d="M121.502 15.56s.081 0 .081.081z"/><path fill="#82783c" d="M100.417 13.939c-3.151 1.054-13.734.568-14.057.325 0-2.675-.565-5.511 6.14-5.917s7.352 3.161 7.917 5.592"/><path d="M90.965 17.019s2.989-.162 4.443-.081c.162.405.243.891.162 1.297-.081.081-.081.243-.162.243-.565 0-4.201.324-4.443-.243zM113.989 11.103a1.15 1.15 0 0 0-1.05.729c-.323.486-.242 2.188 1.05 2.269.485 0 1.131-.162 1.131-1.377s-.646-1.621-1.131-1.621M74.889 11.103c-.485 0-.889.324-1.051.729-.323.486-.242 2.188 1.051 2.269.484 0 1.131-.162 1.131-1.377s-.647-1.621-1.131-1.621"/><path fill="#645a1e" d="M97.67 11.589c-.404 0-.808.162-1.05.486-.242.325-.242 1.459 1.05 1.54.485 0 1.131-.081 1.131-.891 0-.649-.484-1.135-1.131-1.135q.122 0 0 0"/><path fill="#a0640a" d="M33.526 71.966 93.954 95.63l62.771-24.718s-.97-17.586-1.939-22.611c-.081-.324-2.181-15.641-2.424-17.019-4.12-4.538-16.399-7.618-23.751-7.942-8.159-.324-69.072.162-69.072.162s-8.321 1.216-14.218 3.404-13.249 5.835-13.249 5.835-.323 14.183.081 21.477c.565 10.373 1.373 17.748 1.373 17.748"/><path fill="#008264" d="M94.277 43.439c-16.318 0-32.637.162-32.637.162s-3.555.243-3.636 0c-4.524 1.702-24.559 28.365-24.559 28.365l2.262 52.597 58.57-.73 7.675-45.627z"/><path fill="#00a08c" d="m94.277 123.833 64.064-.81-1.616-52.111s-21.893-24.15-27.144-27.068c-5.171-.324-20.439-.405-35.223-.405z"/><path fill="#005a5a" d="m124.653 21.638.808 36.307 7.755.082s.243-28.041-1.131-36.389z"/><path fill="#ffc800" d="M129.5 51.705c-.889 0-1.697.405-2.262 1.135-.566.729-.485 3.16 2.181 3.242 1.05.081 2.343-.244 2.343-1.946.081-1.215-.889-2.269-2.1-2.35-.081-.081-.162-.081-.162-.081"/><path fill="#005a5a" d="M54.773 21.638c-1.373 8.348-1.131 36.389-1.131 36.389l7.675-.082.807-36.307z"/><path fill="#ffc800" d="M57.277 51.705c.889 0 1.697.405 2.262 1.135.566.729.485 3.16-2.181 3.242-1.05.081-2.343-.244-2.343-1.946-.081-1.215.889-2.269 2.101-2.35 0-.081.081-.081.161-.081"/><path fill="#005a5a" d="M80.301 63.213c-1.292 5.511.97 13.048 4.282 16.614 3.958 2.918 12.926 3.242 17.127.81 4.847-2.755 6.139-9.076 6.059-14.02 0-1.135 0-2.269-.081-3.404z"/><path fill="#006482" d="M78.362 58.027h31.022v8.752H78.362z"/><path fill="#fab414" d="M94.277 60.458c-.888-.081-1.777.405-2.343 1.134-.646.811-.484 3.242 2.263 3.404 1.131.081 2.342-.243 2.342-2.026.081-1.297-.888-2.431-2.181-2.512z"/></svg>