<svg xmlns="http://www.w3.org/2000/svg" width="96.589" height="110.864" viewBox="-0.225 -0.17 96.589 110.864"><path fill="#be0a3c" d="M28.367 74.066c-.767-4.335-8.351-5.692-8.616-5.849-3.386-2.027-4.852-3.774-6.921-7.058s-3.129-6.981-4.277-10.606c-1.234-3.898-2.386-13.288-3.342-13.212s.731 3.766-.277 3.978-1.346-3.737-2.133-3.797c-.788-.061.261 4.283-.864 4.239-.615-.024-1.093-3.32-1.583-3.119S1.672 55.836 5.44 62.179c3.767 6.343 7.23 9.659 11.869 12.397 2.989 1.759 6.744 2.056 9.098 2.489 0 0 2.735 1.337 1.96-2.999"/><path fill="#82001e" d="M7.882 40.356c-.643-.217-1.117 2.184-1.117 2.184-.711.233-2.494.955-2.366 2.36.161 1.751 2.358 3.614 3.266 1.534 0-.016.863-5.861.217-6.078"/><path fill="#be0a3c" d="M95.848 25.622c-.94-1.136-2.844 2.871-3.498 1.843s2.277-3.995 1.663-4.617-3.19 3.128-3.579 2.69c-.149-.169.108-.699.474-1.365.594-1.084 1.145-2.312.803-2.589s-1.173 1.075-2.526 2.589c-4.419 4.962-30.853 36.091-27.23 41.202s25.916-27.476 28.607-31.41c2.896-4.28 5.535-8.022 5.286-8.343"/><path fill="#82001e" d="M86.497 22.832c.864 0 .502 3.087.502 3.087.768.558 2.652 2.132 1.945 3.786-.88 2.06-4.278 3.473-4.559.582.004 0 1.249-7.443 2.112-7.455M62.642 74.556c-.161-.08 1.832-6.226-5.692-7.375-7.523-1.148-6.214 37.164-4.932 41.668.502 1.766 1.205 1.204 2.474 1.297s2.065.136 1.607-.695c-.093-.169-1.703.072-1.703.072s2.872-7.824 3.98-11.811c.55-1.979 1.081-3.982 1.527-5.989.241-1.056 3.008-16.107 2.739-17.167M23.627 92.55c-.682 1.461-1.377 2.89-2.08 4.339-1.145 2.353-1.888 5.998-3.639 7.937-.302-.212-1.438-1.353-1.708-1.349-1.646.037-.144.932.133 1.205a15.7 15.7 0 0 0 2.474 1.955c1.205.771.984.61 2.201-.313 2.037-1.538 28.539-30.608 22.161-36.983S24.15 91.434 23.627 92.55"/><path fill="#82783c" d="M36.859 17.718c-1.583-4.188-3.085-11.382-.872-15.557 2.032-3.83 5.587-1.361 7.282 4.713 1.43 5.111 1.173 13.533 1.237 15.312.073 1.963-.164 3.886-.249 5.837-.068 1.646.523 4.388-.068 5.873-2.968-5.142-5.234-10.634-7.33-16.178"/><path fill="#a0aa1e" d="M44.225 33.82c-2.346.121-5.262-2.256-7.069-3.553-.964-.71-12.958-10.345-16.22-15.163-1.474-2.168-2.86-4.328-2.502-7.05.478-3.649 2.968-4.48 6.194-2.89 5 2.465 9.182 7.985 11.805 12.778 1.305 2.381 2.546 4.818 3.868 7.17 1.273 2.277 3.984 6.018 3.924 8.708"/><path fill="#a0aa1e" d="M43.783 33.688c-.152-1.691.976-3.951 1.362-5.597.402-1.762.803-3.496 1.374-5.219a95 95 0 0 1 3.844-10.406c1.337-2.934 2.759-6.194 4.916-8.627 1.836-2.088 5.326-4.292 7.853-1.77 2.181 2.18.803 6.684.032 9.233-1.056 3.401-2.94 6.211-5.073 9.021-2.008 2.65-11.604 12.469-14.308 13.365"/><path fill="#a0aa1e" d="M44.133 33.808c1.108-1.449 2.928-2.654 4.274-3.93 1.743-1.654 3.522-3.264 5.294-4.882 2.574-2.349 5.326-4.757 8.933-5.219 1.305-.165 3.679-.245 4.129 1.369.402 1.485-1.554 3.184-2.518 3.982a30 30 0 0 1-4.575 3.007c-.896.51-11.597 4.541-15.537 5.673M43.876 33.884c-.273-4.974.305-9.856.466-14.798.016-2.577.301-5.145.851-7.663.281-1.149 1.711-5.219 3.173-2.907.844 1.329.306 4.248.254 5.729-.077 2.144-.101 4.492-.832 6.544-.482 1.333-3.647 13.111-3.912 13.095"/><path fill="#f01446" d="M43.482 94.958a19.45 19.45 0 0 1-11.098-3.408c-2.169-1.505-3.88-3.774-5.346-5.942-2.19-3.239-4.338-6.547-6.359-9.9A66.6 66.6 0 0 1 12.75 56.23c-1.253-5.565-1.647-15.83 4.133-19.271 2.961-1.77 7.347-2.782 10.701-3.472 2.904-.598 5.768-1.349 8.752-1.606 1.703-.136 3.423-.293 5.11-.028 1.297.205 1.928.919 2.864.927.18 0 1.357-.654 1.683-.734.662-.13 1.334-.203 2.008-.217 2.145-.125 4.161.217 6.266.534 5.435.803 11.167 2.874 15.42 6.451 5.306 4.46 4.443 11.285 2.973 17.424-1.607 6.76-7.347 22.128-12.854 29.579s-13.062 9.157-16.324 9.141"/><path fill="#f00a78" d="M16.956 41.649s.574-1.514 3.113-2.847a18.1 18.1 0 0 1 10.343-1.678c8.222 1.265 7.198 28.347-2.603 28.347-5.31 0-8.901-2.284-10.584-7.467-1.422-4.384-2.442-11.145-.269-16.355"/><path fill="#f04650" d="M38.224 74.259c.276 0 .526.115.707.301s.293.443.293.727c0 .283-.112.54-.293.726a.98.98 0 0 1-.707.302.98.98 0 0 1-.707-.302 1.04 1.04 0 0 1-.293-.726c0-.284.112-.541.293-.727a.98.98 0 0 1 .707-.301M57.372 45.844c.276 0 .526.115.707.301s.293.443.293.727c0 .283-.112.54-.293.726a.984.984 0 0 1-1.414 0 1.04 1.04 0 0 1-.293-.726c0-.284.112-.541.293-.727a.98.98 0 0 1 .707-.301M54.219 41.062c.276 0 .526.116.707.302s.293.443.293.726c0 .284-.112.541-.293.727a.984.984 0 0 1-1.414 0 1.04 1.04 0 0 1-.293-.727c0-.283.112-.54.293-.726a.98.98 0 0 1 .707-.302M61.28 41.54c.276 0 .526.115.707.301s.293.443.293.727c0 .283-.112.54-.293.726a.98.98 0 0 1-.707.302.98.98 0 0 1-.707-.302 1.04 1.04 0 0 1-.293-.726c0-.284.112-.541.293-.727a.98.98 0 0 1 .707-.301M49.825 36.261c.275 0 .525.115.706.301.182.186.294.443.294.727 0 .283-.112.54-.294.726a.983.983 0 0 1-1.413 0 1.04 1.04 0 0 1-.293-.726c0-.284.112-.541.293-.727a.98.98 0 0 1 .707-.301M41.602 38.834a.98.98 0 0 1 .707.302c.181.186.293.442.293.726s-.112.541-.293.727a.984.984 0 0 1-1.414 0 1.04 1.04 0 0 1-.293-.727c0-.284.112-.54.293-.726a.98.98 0 0 1 .707-.302M34.858 38.128c.276 0 .526.115.707.301s.293.443.293.726c0 .284-.112.541-.293.727a.984.984 0 0 1-1.414 0 1.04 1.04 0 0 1-.293-.727c0-.283.112-.54.293-.726a.98.98 0 0 1 .707-.301M26.315 37.935c.275 0 .525.115.707.301s.293.443.293.727c0 .283-.112.54-.293.726a.99.99 0 0 1-.707.302.98.98 0 0 1-.707-.302 1.04 1.04 0 0 1-.293-.726c0-.284.112-.541.293-.727a.98.98 0 0 1 .707-.301M32.368 46.354c.276 0 .526.115.707.301s.293.443.293.726c0 .284-.112.541-.293.727a.984.984 0 0 1-1.414 0 1.04 1.04 0 0 1-.293-.727c0-.283.112-.54.293-.726a.98.98 0 0 1 .707-.301M23.724 45.856c.276 0 .526.115.707.301s.293.443.293.727c0 .283-.112.54-.293.726a.984.984 0 0 1-1.414 0 1.04 1.04 0 0 1-.293-.726c0-.284.112-.541.293-.727a.98.98 0 0 1 .707-.301M48.547 76.58c.276 0 .526.115.707.301s.293.443.293.726c0 .284-.112.541-.293.727a.984.984 0 0 1-1.414 0 1.04 1.04 0 0 1-.293-.727c0-.283.112-.54.293-.726a.98.98 0 0 1 .707-.301M45.378 44.784c.276 0 .526.115.707.301s.293.443.293.727c0 .283-.112.54-.293.726a.984.984 0 0 1-1.414 0 1.04 1.04 0 0 1-.293-.726c0-.284.112-.541.293-.727a.98.98 0 0 1 .707-.301M47.668 51.372c.275 0 .525.115.706.301.182.186.294.443.294.727 0 .283-.112.54-.294.726a.983.983 0 0 1-1.413 0 1.04 1.04 0 0 1-.293-.726c0-.284.112-.541.293-.727a.98.98 0 0 1 .707-.301M39.887 46.438c.276 0 .526.115.707.301s.293.443.293.727c0 .283-.112.54-.293.726a.984.984 0 0 1-1.414 0 1.04 1.04 0 0 1-.293-.726c0-.284.112-.541.293-.727a.98.98 0 0 1 .707-.301M31.263 80.249c.276 0 .526.115.707.301s.293.443.293.727c0 .283-.112.54-.293.726a.984.984 0 0 1-1.414 0 1.04 1.04 0 0 1-.293-.726c0-.284.112-.541.293-.727a.98.98 0 0 1 .707-.301M38.224 52.813c.276 0 .526.115.707.301s.293.443.293.727c0 .283-.112.54-.293.726a.98.98 0 0 1-.707.302.98.98 0 0 1-.707-.302 1.04 1.04 0 0 1-.293-.726c0-.284.112-.541.293-.727a.98.98 0 0 1 .707-.301M26.351 69.815c.276 0 .526.115.707.301s.293.443.293.727c0 .283-.112.54-.293.726a.984.984 0 0 1-1.414 0 1.04 1.04 0 0 1-.293-.726c0-.284.112-.541.293-.727a.98.98 0 0 1 .707-.301M33.223 59.57c.276 0 .526.115.707.301s.293.443.293.726c0 .284-.112.541-.293.727a.984.984 0 0 1-1.414 0 1.04 1.04 0 0 1-.293-.727c0-.283.112-.54.293-.726a.98.98 0 0 1 .707-.301M25.901 59.305c.276 0 .526.115.707.301s.293.443.293.726c0 .284-.112.541-.293.727a.984.984 0 0 1-1.414 0 1.04 1.04 0 0 1-.293-.727c0-.283.112-.54.293-.726a.98.98 0 0 1 .707-.301M58.541 57.811a.98.98 0 0 1 .707.302c.181.186.293.443.293.726 0 .284-.112.541-.293.727a.984.984 0 0 1-1.414 0 1.04 1.04 0 0 1-.293-.727c0-.283.112-.54.293-.726a.98.98 0 0 1 .707-.302M64.891 46.354c.276 0 .526.115.707.301s.293.443.293.726c0 .284-.112.541-.293.727a.984.984 0 0 1-1.414 0 1.04 1.04 0 0 1-.293-.727c0-.283.112-.54.293-.726a.98.98 0 0 1 .707-.301M65.518 56.47c.276 0 .526.116.707.302s.293.443.293.726c0 .284-.112.541-.293.727a.984.984 0 0 1-1.414 0 1.04 1.04 0 0 1-.293-.727c0-.283.112-.54.293-.726a.98.98 0 0 1 .707-.302M68.916 51.091c.276 0 .526.115.707.301s.293.443.293.727c0 .283-.112.54-.293.726a.984.984 0 0 1-1.414 0 1.04 1.04 0 0 1-.293-.726c0-.284.112-.541.293-.727a.98.98 0 0 1 .707-.301M69.113 41.464c.276 0 .526.115.707.301s.293.443.293.727c0 .283-.112.54-.293.726a.984.984 0 0 1-1.414 0 1.04 1.04 0 0 1-.293-.726c0-.284.112-.541.293-.727a.98.98 0 0 1 .707-.301M57.247 35.101c.276 0 .526.115.707.301s.293.443.293.726c0 .284-.112.541-.293.727a.984.984 0 0 1-1.413 0 1.04 1.04 0 0 1-.294-.727c0-.283.113-.54.294-.726a.98.98 0 0 1 .706-.301M17.731 42.186c.276 0 .526.116.707.302s.293.443.293.726c0 .284-.112.541-.293.727a.984.984 0 0 1-1.414 0 1.04 1.04 0 0 1-.293-.727c0-.283.112-.54.293-.726a.98.98 0 0 1 .707-.302M15.992 55.953c.275 0 .525.115.707.301s.293.443.293.726c0 .284-.112.541-.293.727a.984.984 0 0 1-1.414 0 1.04 1.04 0 0 1-.293-.727c0-.283.112-.54.293-.726a.98.98 0 0 1 .707-.301M14.248 49.622c.276 0 .526.115.707.301s.293.443.293.726c0 .284-.112.541-.293.727a.984.984 0 0 1-1.414 0 1.04 1.04 0 0 1-.293-.727c0-.283.112-.54.293-.726a.98.98 0 0 1 .707-.301M44.442 56.193c.276 0 .526.116.707.302s.293.443.293.726c0 .284-.112.541-.293.727a.984.984 0 0 1-1.414 0 1.04 1.04 0 0 1-.293-.727c0-.283.112-.54.293-.726a.98.98 0 0 1 .707-.302M61.923 65.371c.276 0 .526.115.707.301s.293.443.293.727c0 .283-.112.54-.293.726a.984.984 0 0 1-1.414 0 1.04 1.04 0 0 1-.293-.726c0-.284.112-.541.293-.727a.98.98 0 0 1 .707-.301M49.403 61.51a1.04 1.04 0 0 1 .54-.57.98.98 0 0 1 .768-.021c.257.1.447.3.547.54s.11.52.006.783a1.04 1.04 0 0 1-.539.57.984.984 0 0 1-1.315-.519c-.1-.24-.11-.52-.007-.783M53.58 49.622c.276 0 .526.115.707.301s.293.443.293.726c0 .284-.112.541-.293.727a.984.984 0 0 1-1.414 0 1.04 1.04 0 0 1-.293-.727c0-.283.112-.54.293-.726a.98.98 0 0 1 .707-.301M41.044 64.985c.276 0 .526.116.707.302s.293.443.293.726c0 .284-.112.541-.293.727a.984.984 0 0 1-1.414 0 1.04 1.04 0 0 1-.293-.727c0-.283.112-.54.293-.726a.98.98 0 0 1 .707-.302M60.939 51.669c.276 0 .526.115.707.301s.293.443.293.727c0 .283-.112.54-.293.726a.984.984 0 0 1-1.414 0 1.04 1.04 0 0 1-.293-.726c0-.284.112-.541.293-.727a.98.98 0 0 1 .707-.301M62.196 74.066c.276 0 .526.116.707.302s.293.443.293.726c0 .284-.112.541-.293.727a.984.984 0 0 1-1.414 0 1.04 1.04 0 0 1-.293-.727c0-.283.112-.54.293-.726a.98.98 0 0 1 .707-.302M53.805 68.462c.276 0 .526.115.707.301s.293.443.293.727c0 .283-.112.54-.293.726a.98.98 0 0 1-.707.302.98.98 0 0 1-.707-.302 1.04 1.04 0 0 1-.293-.726c0-.284.112-.541.293-.727a.98.98 0 0 1 .707-.301M28.688 52.877c.276 0 .526.116.707.302s.293.443.293.726c0 .284-.112.541-.293.727a.984.984 0 0 1-1.413 0 1.04 1.04 0 0 1-.294-.727c0-.283.113-.54.294-.726a.98.98 0 0 1 .706-.302M21.675 51.46c.276 0 .526.115.707.301s.293.443.293.727-.112.54-.293.726a.98.98 0 0 1-1.414 0 1.04 1.04 0 0 1-.293-.726c0-.284.112-.541.293-.727a.98.98 0 0 1 .707-.301"/></svg>