<svg xmlns="http://www.w3.org/2000/svg" width="191.407" height="91.591" viewBox="-0.062 -0.312 191.407 91.591"><path fill="#e2ddc9" d="M35.936 90.779h-22.81L18.88 42.4s32.753 6.132 33.087 5.776.25 5.775.25 5.775-11.184 28.745-21.629 33.245c0 0 2.507.583 5.348 3.583"/><path fill="#4d4f68" d="M32.38 90.779s-.142-1.969-.752-3.031c.798-.389 4.308 3.031 4.308 3.031z"/><path fill="none" stroke="#7593b1" stroke-width=".5" d="M35.936 90.779h-22.81L18.88 42.4s39.197 5.758 39.531 5.402-7.447 9.061-7.447 9.061-9.931 25.833-20.376 30.333c0 0 2.507.583 5.348 3.583Z"/><path fill="none" stroke="#7593b1" stroke-width=".5" d="M31.09 87.359s1.42 1.087 1.253 3.42"/><path fill="#e2ddc9" d="m129.716 85.622-20.805-6.232 3.923-10.902-6.182-6.667 24.073-1.553 3.332 5.553-7.261 15.881s2.417 1.246 2.92 3.92"/><path fill="#4d4f68" d="M125.76 84.437s.673-3.059 1.59-2.474c2.058 1.315 2.366 3.659 2.366 3.659z"/><path fill="none" stroke="#7593b1" stroke-width=".5" d="m129.716 85.622-20.805-6.232 3.923-10.902-6.182-6.667 24.073-1.553 3.332 5.553-7.261 15.881s2.417 1.246 2.92 3.92Z"/><path fill="none" stroke="#7593b1" stroke-width=".5" d="M125.955 84.496s.028-2.332 1.157-2.604"/><path fill="#e2ddc9" d="m164.365 36.464-.228-3.592s-.222-.965.355-.656c.575.309 3.703 1.943 3.703 1.943s.289.134.303 1.051c.015.918.332 2.887.332 2.887"/><path fill="none" stroke="#7593b1" stroke-width=".5" d="m164.365 36.464-.228-3.592s-.222-.965.354-.656 3.704 1.943 3.704 1.943.288.134.303 1.051c.014.918.331 2.887.331 2.887"/><path fill="#4d4f68" d="m165.378 36.264-.346-1.74s-.257-1.154.423-.842 1.835.826 1.835.826.288.175.332.801c.043.627.301 1.822.301 1.822z"/><path fill="#fbf8ea" d="M15.049 14.871C16.512 13.456 36.883 3.053 47.613.62c10.73-2.434 33.645 6.097 46.941 8.662 20.57 3.97 26.703 4.054 29.748 5.487 1.519.804 5.728 5.547 10.646 8.819s8.022 4.552 12.349 6.368c11.898 4.666 13.61 4.03 18.454 5.548 2.788 1.013 11.755 5.288 11.755 5.288s5.614 5.168 12.445 7.527c0 0 1.488.357.625 1.989-.88 2.162-5.927 7.453-7.777 8.523 0 0-1.662-1.695-9.605-.221-6.254 1.16-6.996 2.242-14.345 2.744-7.35.501-65.454 7.525-70.955 8.404-5.502.88-8.07 1.513-9.323 1.517-1.255.004-27.549-5.443-39.164-8.371S10.218 53.621 6.393 47.338c0 0-1.693 3.534-3.061 3.548-1.17.012-2.905-3.891-2.894-5.683.012-1.793-.045-2.711 2.021-7.528 2.066-4.815 9.364-19.731 12.59-22.804"/><path fill="none" stroke="#7593b1" stroke-width=".5" d="M99.519 16.162c.127-.038 6.625-3.514 11.236-2.585s12.719 7.962 12.719 7.962"/><path fill="#e0dac5" d="M174.329 58.372s-3.631-1.587 2.44-7.577c1.466-1.445 4.042-3.069 5.812-3.512 1.126-.282 3.209-1.18 4.244-.233 1.508 1.379 5.893.356 3.084 4.51-2.182 3.228-7.11 7.271-7.11 7.271s-1.876-1.576-8.47-.459"/><path d="M187.84 48.386c1.2-.062 2.485.216 2.485.216s.624.701.124 1.56c-.5.856-1.565 2.28-1.565 2.28l.417-1.333s.243-.547-.32-.601c-.236-.024-.755.108-1.212-.633-.282-.46-.781-1.444.07-1.49"/><path fill="none" stroke="#7593b1" stroke-width=".5" d="M174.432 54.895s.683.937 2.228.982c1.544.047 9.391.145 9.391.145"/><path fill="#4d6e8c" d="m171.069 44.332 4.592-1.24s.593 1.143.15 1.964-4.742-.724-4.742-.724"/><path d="M175.009 45.18s-.637-.214-.725-.935a.83.83 0 0 1 .513-.92l.864-.233s.32.358.298.989a2.6 2.6 0 0 1-.308 1.118z"/><path fill="none" stroke="#000" stroke-width=".5" d="m171.069 44.332 4.592-1.24s.593 1.143.15 1.964-4.742-.724-4.742-.724Z"/><path fill="none" stroke="#7593b1" stroke-width=".5" d="M15.049 14.871C16.512 13.456 36.883 3.053 47.613.62c10.73-2.434 33.645 6.097 46.941 8.662 20.57 3.97 26.703 4.054 29.748 5.487 1.519.804 5.728 5.547 10.646 8.819s8.022 4.552 12.349 6.368c11.898 4.666 13.61 4.03 18.454 5.548 2.788 1.013 11.755 5.288 11.755 5.288s5.614 5.168 12.445 7.527c0 0 1.488.357.625 1.989-.88 2.162-5.927 7.453-7.777 8.523 0 0-1.662-1.695-9.605-.221-6.254 1.16-6.996 2.242-14.345 2.744-7.35.501-65.454 7.525-70.955 8.404-5.502.88-8.07 1.513-9.323 1.517-1.255.004-27.549-5.443-39.164-8.371S10.218 53.621 6.393 47.338c0 0-1.693 3.534-3.061 3.548-1.17.012-2.905-3.891-2.894-5.683.012-1.793-.045-2.711 2.021-7.528 2.066-4.815 9.364-19.731 12.59-22.804Z"/><path fill="#fbf8ea" d="m157.177 43.154-.826-5.944s-.16-.255.527-.86l3.477-3.065s.386-.364.827.275c.442.638 2.81 3.918 2.81 3.918"/><path fill="none" stroke="#7593b1" stroke-width=".5" d="m157.177 43.154-.826-5.944s-.16-.255.527-.86l3.477-3.065s.386-.364.827.275c.442.638 2.81 3.918 2.81 3.918"/><path fill="#4d4f68" d="m158.32 42.241-.51-2.536s-.565-2.343.878-3.604c1.252-1.093 2.047-2.283 2.717-.605.519 1.306 1.16 2.169 1.16 2.169s.738.481-1.027 1.862c-1.29 1.01-3.111 3.467-3.218 2.714"/><path fill="#fbf8ea" d="M108.573 55.976c-1.17 2.792 1.51 1.773 1.51 1.773l-5.355 22.84c.545 4.857 1.671 5.482 1.671 5.482 4.011.25 5.098 3.583 5.098 3.583H88.853c-.583-13.458-3.758-33.632-3.758-33.632l5.389-4.826s-.251-2.542 1.88-2.166 8.606 5.166 8.69 6.124"/><path fill="#4d4f68" d="M103.058 89.529s1.932-3.625 3.341-3.458c4.431.524 5.098 3.583 5.098 3.583z"/><path fill="none" stroke="#7593b1" stroke-width=".5" d="M113.503 53.951c-3.008 1.899-3.676 4.88-3.676 4.88l-5.099 21.758c0 3.167 1.671 5.482 1.671 5.482 4.011.25 5.098 3.584 5.098 3.584H88.853c-.459-12.334-3.758-33.633-3.758-33.633l1.771-1.59s2.118-1.703 1.836-3.828"/><path fill="none" stroke="#7593b1" stroke-width=".5" d="M110.083 57.749c.634-2.552 2.828-1.598 2.828-1.598M103.058 89.654s.668-2.5 3.341-3.583"/><path fill="#fbf8ea" d="M33.88 28.095s16.244 21.218 12.519 31.997c-.824 8.396-19.528 17.144-19.528 17.144s4.7 3.035 6.601 6.368L9.267 78.151c6.48-15.122-5.05-37.99-5.05-37.99"/><path fill="#4d4f68" d="M26.871 82.172s.834-2.927 2.246-3.167c.505-.087 4.355 4.654 4.355 4.654z"/><path fill="none" stroke="#7593b1" stroke-width=".5" d="M33.88 28.15s16.244 21.163 12.519 31.942c-1.451 9.437-19.528 17.144-19.528 17.144s4.7 3.09 6.601 6.423L9.267 78.206C15.496 63.029 5.094 42.4 5.094 42.4"/><path fill="none" stroke="#7593b1" stroke-width=".5" d="M26.871 82.172c.137-.225.116-2.024 2.246-3.167"/></svg>