<svg xmlns="http://www.w3.org/2000/svg" xml:space="preserve" viewBox="0 0 512 512"><path d="m68.54 192.202-.497.003c-14.984.13-29.019 6.086-39.522 16.771s-16.215 24.821-16.083 39.803c.264 30.664 25.422 55.611 56.078 55.611l.497-.003c30.929-.268 55.874-25.648 55.604-56.577-.264-30.661-25.42-55.608-56.077-55.608M455.536 340.88H172.153c-24.278 0-44.031 30.658-44.031 68.342s19.752 68.342 44.031 68.342h283.383c24.278 0 44.029-30.658 44.029-68.342.002-37.684-19.75-68.342-44.029-68.342" style="fill:#fff"/><path d="M455.536 328.446c2.11 0 4.189.181 6.239.504-.836-32.211-8.563-192.23-79.317-258.432l-.119-.115c-.204-.2-21.447-20.766-55.904-30.693-45.921-13.229-92.576-2.293-138.667 32.505-69.002 52.098-89.349 97.339-94.497 112.217a69 69 0 0 1 27.556 19.713c12.266-16.548 47.623-54.814 119.275-67.562 8.022-16.968 10.956-34.159 3.251-51.508a6.217 6.217 0 1 1 11.363-5.047c18.121 40.805-11.224 78.85-37.114 112.418-3.151 4.085-6.409 8.31-9.488 12.414-30.698 40.929-39.144 104.058-41.103 123.936 1.694-.22 3.406-.35 5.14-.35h283.384z" style="fill:#ff5240"/><path d="M474.298 333.049c-.112-8.867-1.129-53.546-10.253-105.25-13.732-77.822-38.307-133.778-73.034-166.309-1.621-1.583-23.881-22.842-60.563-33.564-34.419-10.06-88.412-12.266-150.172 34.365-72.527 54.759-93.549 102.147-99.016 118.686a68 68 0 0 0-12.721-1.21l-.605.003c-18.305.159-35.451 7.434-48.282 20.489S-.158 230.583.001 248.886c.323 37.461 31.057 67.938 68.513 67.938l.605-.003c37.786-.329 68.259-31.335 67.931-69.119a67.93 67.93 0 0 0-8.664-32.653c7.393-10.803 37.809-49.347 103.875-64.215-7.11 11.458-15.857 22.804-24.507 34.018-3.176 4.117-6.46 8.375-9.588 12.546-36.385 48.513-43.108 122.943-43.986 135.267-22.348 10.766-38.493 41.005-38.493 76.557 0 44.54 25.329 80.776 56.465 80.776h283.383c31.135 0 56.464-36.237 56.464-80.776.002-35.132-15.763-65.082-37.701-76.173M69.014 304.388l-.497.003c-30.658 0-55.814-24.948-56.078-55.611-.131-14.982 5.582-29.119 16.083-39.803 10.503-10.685 24.539-16.642 39.522-16.771l.497-.003c30.657 0 55.813 24.946 56.078 55.609.269 30.928-24.676 56.308-55.605 56.576m139.103-99.527c3.078-4.103 6.336-8.328 9.488-12.414 25.89-33.568 55.236-71.615 37.114-112.418a6.217 6.217 0 0 0-11.363 5.047c7.705 17.349 4.771 34.539-3.251 51.508-71.652 12.748-107.009 51.015-119.275 67.562a69.07 69.07 0 0 0-27.556-19.713c5.148-14.879 25.495-60.12 94.497-112.217 46.091-34.799 92.746-45.734 138.667-32.505 34.459 9.927 55.701 30.494 55.904 30.693l.119.115c70.752 66.203 78.481 226.221 79.317 258.432a40 40 0 0 0-6.239-.504H172.155c-1.734 0-3.446.13-5.14.35 1.958-19.879 10.404-83.007 41.102-123.936m247.419 272.704H172.153c-24.278 0-44.031-30.658-44.031-68.342s19.752-68.342 44.031-68.342h283.383c24.278 0 44.029 30.658 44.029 68.342.002 37.684-19.75 68.342-44.029 68.342" style="fill:#4f413b"/></svg>