<svg xmlns="http://www.w3.org/2000/svg" width="244.044" height="208.323" viewBox="0 0 244.044 208.323"><g fill="none" fill-rule="evenodd" stroke-miterlimit="10" data-paper-data="{&quot;isPaintingLayer&quot;:true}" font-family="none" font-size="none" font-weight="none" style="mix-blend-mode:normal" text-anchor="none"><path fill="#69b229" d="M148.137 108.936c7.643 11.728 6.22 35.259-4.645 40.07-10.864 4.812-23.75 11.578-28.546 13.758-4.72 2.105-5.394 4.286-9.44 24.735-1.049 5.112-7.792 12.705-7.942 1.654 0-2.18-.375-18.946 1.873-24.584 4.196-10.3 8.691-9.247 12.063-12.104 4.27-3.534 8.69-10.074 2.997-21.126-10.79-21.05 14.685-51.423 33.64-22.403"/><path fill="#69b229" d="M105.431 191.408c.524 1.428 3.521 3.609 4.795 3.984 1.274.376 1.723-.902 3.447-.075 1.648.827 1.423 2.481.374 3.233s-1.348.601-1.948.451c0 0 0 .677-.524 1.353-.675.827-1.649.752-2.398.15-.749-.6-1.124-.526-1.124-.526s0 1.354-.899 1.88c-1.273.752-2.098.15-2.922-1.278-.824-1.429-2.173-1.955-4.495-2.481-1.648-.376-3.072-3.534-2.697-6.766.524-4.661.599-7.593 3.446-8.195 8.242-1.804 4.046 5.714 4.945 8.27"/><path fill="#519b3d" d="M111.874 198.625c0-.225-.15-.526-.374-.827-.15-.15-.3-.225-.45-.376-.15-.15-.374-.225-.6-.3-.224 0-.449-.076-.673-.076h-.825c-.524-.075-1.049-.3-1.498-.526-.45-.3-.824-.526-1.124-.827s-.45-.526-.6-.752l-.15-.3.226.225c.15.15.45.376.749.602.3.225.674.376 1.124.601.45.226.974.376 1.423.451.225.075.45.075.75.075s.599.075.824.15c.524.151.899.527 1.124.903.15.15.15.376.224.526.075.226.075.3.075.451v.376s0-.15-.225-.376M107.904 199.753c-.075-.226-.15-.451-.3-.677-.225-.526-.824-.977-1.574-1.278-.674-.3-1.498-.601-2.023-.902-.3-.15-.45-.3-.599-.451-.075-.15-.15-.226-.15-.226s.3.226.9.451c.524.15 1.348.376 2.097.677.225.075.45.15.6.3.224.076.374.226.524.377.3.225.524.601.6.902.224.601.074 1.052.074 1.052s0-.075-.15-.225"/><path fill="#a1af93" d="M106.705 201.557c-.525-.526-.9-1.203.075-1.353 1.573-.3.824 2.857.824 2.857-.15-.902-.45-1.053-.9-1.504M110.9 200.43c-.599-.452-1.123-.978-.15-1.354 1.574-.526 1.35 2.707 1.35 2.707-.3-.827-.6-.902-1.2-1.354M114.122 198.7c-.674-.225-1.274-.601-.524-1.203 1.198-1.052 2.098 2.106 2.098 2.106-.525-.677-.825-.677-1.574-.903"/><path fill="#519b3d" d="M116.744 144.12c.075-.451.15-1.128.15-1.955.075-.752 0-1.729-.15-2.706-.074-.451-.074-.978-.224-1.504s-.225-1.052-.375-1.579c-.075-.526-.225-1.052-.375-1.579s-.3-1.052-.45-1.503l-.449-1.353c-.15-.451-.3-.827-.45-1.203-.299-.752-.599-1.353-.748-1.805-.225-.45-.3-.676-.3-.676s.15.3.375.676c.224.376.599.978.899 1.73.15.375.3.751.524 1.202.15.452.375.903.525 1.354.224.526.374.977.524 1.503l.45 1.58c.074.525.224 1.052.3 1.578.15.526.15 1.052.224 1.579s.075 1.052.075 1.503c0 .526 0 .978-.075 1.353 0 .827-.15 1.504-.3 1.955-.075.451-.224.677-.224.677s.074-.226.074-.827M116.67 162.088c-.525.3-1.35.676-2.248 1.203-.45.3-.974.526-1.424.902-.224.225-.524.376-.674.601-.15.226-.375.527-.524.752-.75 1.053-1.274 2.406-1.724 3.684s-.824 2.631-1.198 3.91c-.375 1.277-.75 2.405-.975 3.457-.524 2.03-.899 3.384-.899 3.384s.075-.376.15-.978q.112-.902.45-2.48c.225-1.053.524-2.256.824-3.534.375-1.278.75-2.631 1.199-3.985.45-1.353 1.049-2.631 1.798-3.759.225-.3.375-.601.6-.827s.524-.45.749-.601c.524-.3 1.048-.602 1.498-.827.9-.526 1.723-.827 2.323-1.053s.899-.3.899-.3-.375.15-.824.45"/><path fill="#a1c380" d="M121.315 4.285c47.426-8.27 59.639 21.351 59.639 21.351-20.604 24.133-3.372 71.421-3.372 71.421-22.627-28.719-67.056-3.984-67.056-3.984 3.371-32.704-26.973-19.923-26.973-19.923 11.164-31.425-11.463-31.876-18.58-29.095 0 0 34.09-35.785 56.342-39.77"/><path fill="#69b229" d="M179.38 102.62c-2.697-11.502-11.013-16.69-13.785-33.755-2.548-15.262 7.117-34.733 7.117-34.733s-13.336 2.405-27.946 9.096c-15.21 6.917-36.038 54.205-36.038 54.205s6.293-24.509 16.857-45.183 48.026-25.561 48.026-25.561-29.52-6.842-43.08-2.33c-13.562 4.51-49.375 52.776-49.375 52.776 17.157-35.41 35.439-51.649 46.527-59.844 11.164-8.194 47.277 2.406 47.277 2.406-2.697-7.668-31.393-13.758-48.85-12.78-17.382.977-65.783 41.424-65.783 41.424S101.16 2.48 124.462.376c29.594-2.631 59.714 13.156 59.714 13.156 1.348-7.894-7.867-9.773-7.867-9.773 7.567-.902 13.411 6.09 15.06 15.111 1.648 9.022-14.011 26.238-17.083 41.65s19.78 40.296 19.78 40.296c.899 6.24-12.962 9.398-14.685 1.804"/><path fill="#519b3d" d="M190.095 96.38c-1.2-1.428-2.847-3.533-4.72-6.089-1.874-2.556-3.971-5.638-5.92-9.097s-3.82-7.292-4.944-11.427c-.525-2.03-.825-4.21-.675-6.315.225-2.105.75-4.135 1.274-6.015 1.124-3.834 2.622-7.217 4.046-10.074 1.423-2.857 2.697-5.187 3.671-6.766.9-1.579 1.499-2.48 1.499-2.48s-2.248 3.608-4.945 9.321c-1.349 2.857-2.773 6.316-3.896 10.075-.525 1.88-.974 3.909-1.2 5.939-.15 2.03.15 4.135.675 6.165 1.124 4.06 2.922 7.893 4.87 11.352 1.873 3.458 3.971 6.54 5.77 9.172 3.67 5.187 6.443 8.42 6.443 8.42s-.75-.752-1.948-2.18M174.66 26.538c-1.049.226-2.547.452-4.27.827-1.723.376-3.746.827-5.92 1.354-2.172.526-4.495 1.127-6.742 1.88-2.248.676-4.496 1.428-6.594 2.255-2.023.827-3.97 1.578-5.619 2.33-1.573.752-2.997 1.353-3.896 1.805a22 22 0 0 0-1.498.751s.524-.3 1.423-.827c.9-.45 2.173-1.203 3.821-1.954q2.473-1.24 5.62-2.481c2.022-.827 4.345-1.58 6.593-2.33a129 129 0 0 1 6.743-1.805 84 84 0 0 1 5.994-1.203c1.723-.3 3.222-.451 4.27-.602 1.05-.075 1.649-.15 1.649-.225 0 .075-.6.15-1.574.225M175.335 19.998c-1.05-.3-2.548-.752-4.42-1.203-1.799-.451-3.972-.977-6.294-1.428-2.323-.452-4.87-.903-7.343-1.279-1.274-.225-2.547-.375-3.746-.526-1.274-.225-2.473-.3-3.671-.45-1.124-.151-2.323-.226-3.372-.302-1.124-.15-2.098-.15-3.072-.225s-1.873-.075-2.622-.15c-.824-.076-1.499-.076-2.023-.076-1.124-.075-1.723-.075-1.723-.075s.6-.075 1.723-.075c.6-.075 1.274-.075 2.023-.075.824 0 1.648.075 2.622.075.974.075 1.948.075 3.072.15 1.124.076 2.248.076 3.447.226 1.198.075 2.397.225 3.67.376 1.2.15 2.473.3 3.747.526 2.547.376 5.02.827 7.343 1.353 1.198.226 2.322.527 3.371.752 1.049.3 2.098.526 2.997.827 1.873.526 3.372.977 4.42 1.353 1.05.376 1.649.602 1.649.602s-.6-.226-1.798-.376M181.853 12.63a85 85 0 0 0-5.994-2.556c-1.199-.526-2.622-1.052-4.046-1.579-1.423-.526-2.997-.977-4.57-1.578-1.573-.452-3.222-1.053-4.945-1.504-1.723-.526-3.446-1.053-5.17-1.428-.899-.226-1.723-.452-2.622-.677-.9-.226-1.723-.451-2.622-.602-.825-.15-1.724-.375-2.548-.526-.899-.15-1.723-.3-2.547-.45l-2.473-.452c-.749-.075-1.573-.226-2.322-.3-.75-.076-1.499-.226-2.248-.301-.75-.15-1.424-.15-2.098-.226-1.348-.075-2.547-.225-3.671-.3-1.124 0-2.023-.076-2.847-.076C129.556 0 128.657 0 128.657 0h5.32c1.049.075 2.323.15 3.671.226.674.075 1.349.075 2.098.15l2.248.225c.824.15 1.573.226 2.397.301s1.649.226 2.473.376 1.723.3 2.547.451c.9.15 1.723.376 2.622.526.9.15 1.724.376 2.623.527.899.225 1.723.45 2.622.676 1.723.376 3.447.902 5.17 1.429l4.945 1.578c1.573.527 3.147 1.053 4.57 1.654 1.424.602 2.772 1.128 4.046 1.654 1.274.527 2.398 1.053 3.372 1.504s1.873.827 2.547 1.203a49 49 0 0 1 2.248 1.128s-.824-.452-2.323-.978M178.407 100.365q0-.45-.225-1.353a16 16 0 0 0-.675-2.03c-.374-.752-.749-1.579-1.198-2.48-.45-.903-.974-1.88-1.574-2.858-.6-.977-1.273-2.03-1.948-3.082-1.348-2.105-2.622-4.586-3.671-7.067-1.049-2.556-1.873-5.112-2.547-7.593-.6-2.481-1.05-4.812-1.274-6.842-.3-1.954-.3-3.683-.225-4.886.075-.602.075-1.053.15-1.354.075-.3.075-.45.075-.45s-.075.15-.075.45-.075.752-.075 1.354c0 1.203.075 2.857.375 4.886s.749 4.286 1.423 6.767c.6 2.48 1.499 5.037 2.548 7.518s2.247 4.961 3.596 7.067c.674 1.052 1.274 2.18 1.873 3.157a61 61 0 0 1 1.573 2.932c.9 1.804 1.499 3.458 1.724 4.586q.224.902.224 1.353v.451s0-.15-.074-.526M173.986 33.08c-.524.826-1.124 1.954-1.648 3.157a54 54 0 0 0-1.499 3.308c-.15.45-.3.827-.45 1.052s-.224.376-.224.376 0-.15.075-.451c.075-.226.15-.677.3-1.128.224-.977.749-2.18 1.273-3.383a17.5 17.5 0 0 1 1.798-3.157c.3-.376.525-.677.75-.903.15-.225.3-.3.3-.3s-.45.601-.675 1.428"/><path fill="#519b3d" d="M174.66 18.945c-.15-.15-.3-.376-.524-.601-.225-.226-.45-.526-.75-.752-.299-.225-.599-.526-.973-.752-.3-.225-.75-.45-1.124-.752-.375-.225-.824-.526-1.274-.751l-1.349-.677-1.348-.677c-.45-.225-.9-.375-1.349-.601-.899-.376-1.723-.677-2.472-.977-1.424-.602-2.398-.978-2.398-.978s.225 0 .675.15c.45.151 1.048.301 1.798.527.674.3 1.573.526 2.472.902.45.226.974.376 1.424.602s.974.45 1.423.676.9.526 1.349.752c.45.3.899.526 1.274.827.374.225.749.526 1.123.827.375.225.675.526.974.827.225.3.525.526.675.827q.337.338.45.676c.224.376.224.677.224.677s-.075-.3-.3-.752M184.4 10.826q.225.676.225 1.579c0 .601-.075 1.278-.374 1.88-.075.074-.15.225-.3.375-.075.15-.225.3-.3.376-.15.15-.3.451-.374.677a2.27 2.27 0 0 0 .075 1.428c.15.376.374.677.599.827.225.226.375.226.375.226s-.225.075-.45-.076c-.3-.15-.6-.376-.824-.827-.225-.45-.375-1.052-.225-1.654.075-.3.15-.601.375-.902.075-.15.224-.225.3-.376.074-.075.15-.15.224-.3.225-.527.375-1.128.375-1.654 0-.527 0-1.053-.075-1.504-.075-.902-.225-1.504-.225-1.504s.3.527.6 1.429"/><path fill="#7d9950" d="M158.177 84.502c-.374-.075-.899-.225-1.573-.376-.675-.075-1.499-.225-2.473-.376-.45-.075-.974-.075-1.498-.15-.525-.075-1.05-.15-1.648-.15-.525 0-1.2-.076-1.799-.076h-1.948c-1.348-.075-2.697.076-4.195.15l-2.248.226c-.75.15-1.499.15-2.248.301-.824.15-1.573.226-2.322.376l-1.124.226-1.124.225c-1.574.3-3.072.601-4.57 1.053-.675.225-1.424.375-2.173.601-.3.075-.675.226-1.05.3-.374.151-.673.226-1.048.377q-2.136.676-4.046 1.353c-1.274.45-2.398.902-3.521 1.353-.525.226-1.05.376-1.574.602s-.974.375-1.423.601c-.824.376-1.649.677-2.248.977-1.199.602-1.948.902-1.948.902s.75-.375 1.948-.977c.674-.3 1.424-.601 2.248-1.052.374-.226.899-.451 1.348-.677l1.574-.677c1.124-.45 2.247-.902 3.521-1.428 1.274-.451 2.622-.977 4.046-1.428.375-.15.674-.226 1.049-.376.375-.076.75-.226 1.124-.301.749-.15 1.498-.376 2.247-.602 1.499-.45 3.072-.751 4.57-1.127l1.125-.226 1.198-.15c.75-.15 1.574-.226 2.323-.376.824-.075 1.573-.15 2.323-.226.749-.075 1.498-.225 2.247-.225 1.499 0 2.922-.15 4.271-.075.674.075 1.349 0 1.948.075.674.075 1.274.075 1.873.15 1.199.075 2.248.226 3.222.376.899.15 1.723.376 2.397.526.6.226 1.124.301 1.499.452.374.075.524.15.524.15s-.224-.075-.824-.3"/><path fill="#519b3d" d="M145.665 42.853c-.45.15-1.049.375-1.798.826-1.499.827-3.447 2.406-5.545 4.511-1.048 1.053-2.172 2.256-3.221 3.609-1.05 1.353-2.173 2.782-3.222 4.285-1.124 1.504-2.173 3.083-3.222 4.736l-1.573 2.481c-.525.827-1.049 1.73-1.573 2.557-1.05 1.654-2.023 3.383-2.997 5.112a375 375 0 0 0-2.773 5.037c-1.798 3.308-3.371 6.39-4.795 9.021-2.697 5.263-4.57 8.796-4.57 8.796s.45-.902 1.199-2.48c.749-1.58 1.798-3.76 3.147-6.466a286 286 0 0 1 4.72-9.097c.899-1.654 1.798-3.308 2.772-5.037.974-1.654 1.948-3.383 2.997-5.112.524-.902 1.049-1.73 1.573-2.556l1.574-2.481c1.049-1.654 2.097-3.233 3.221-4.736a40 40 0 0 1 3.297-4.286 79 79 0 0 1 3.297-3.533 32 32 0 0 1 3.071-2.707c.974-.751 1.874-1.353 2.623-1.729a11 11 0 0 1 1.873-.827c.45-.15.674-.15.674-.15s-.225.075-.749.225"/><path fill="#7d9950" d="M85.501 51.95c-.15-.301-.3-.677-.524-1.053s-.45-.827-.75-1.278c-.224-.451-.674-.902-1.048-1.429-.45-.45-.9-.977-1.424-1.428-.524-.526-1.124-.902-1.723-1.278-.3-.226-.674-.376-.974-.526s-.6-.301-.974-.452l-1.049-.375a5.5 5.5 0 0 0-1.049-.301c-.375-.075-.674-.15-1.049-.226l-.524-.075c-.15-.075-.375-.075-.525-.075-.749 0-1.348-.15-2.023-.15h-2.622c-.3 0-.525.075-.75.075-.449.075-.898.15-1.198.15-.674.075-1.049.075-1.049.075s.375-.075 1.049-.225c.375-.075.75-.15 1.199-.226.224-.075.524-.075.749-.15.3-.075.524-.075.824-.075.525 0 1.124 0 1.798-.076.6 0 1.349 0 2.023.076.15.075.375.075.525.075l.524.075 1.124.226c.375.075.75.15 1.124.3l1.049.376c.374.15.674.376 1.049.526.3.15.674.301.974.527.6.45 1.198.827 1.723 1.353.6.451.974 1.052 1.423 1.504.375.526.75.977 1.05 1.503q.45.677.674 1.353.336.676.45 1.128c.15.602.224.977.224.977s-.075-.375-.3-.902M109.327 78.488q-.225-.45-.674-1.128l-.45-.677c-.225-.225-.374-.45-.6-.676-.224-.3-.449-.526-.674-.752-.224-.226-.45-.526-.749-.752-.225-.225-.524-.45-.824-.676s-.674-.451-.974-.677c-.225-.075-.375-.226-.524-.3l-.525-.301c-.374-.15-.75-.376-1.124-.527a7.4 7.4 0 0 1-1.198-.376l-.6-.225c-.15-.075-.374-.075-.6-.15-.823-.15-1.648-.376-2.472-.376-.899-.076-1.648-.15-2.472-.076-.45.076-.824.076-1.199.076s-.75 0-1.124.075c-.674.15-1.423.225-2.023.3-.674.076-1.199.15-1.723.301-.524.15-.974.226-1.349.3-.674.151-1.123.226-1.123.226s.374-.15 1.123-.375c.3-.076.75-.226 1.274-.376.525-.15 1.049-.376 1.723-.451.6-.15 1.274-.226 2.023-.376.75-.075 1.499-.075 2.323-.15.824-.076 1.648 0 2.472.075.825 0 1.724.225 2.548.375.15.076.374.076.6.15l.599.226c.374.15.824.301 1.198.451.375.226.75.376 1.124.602.15.075.375.225.525.3.15.15.374.226.524.376.3.226.674.452.974.677.225.226.525.526.824.752.3.225.525.526.75.752s.524.45.674.751c.15.226.374.527.524.752.15.301.3.527.45.752.225.451.45.827.6 1.203.299.677.374 1.128.374 1.128s-.15-.451-.225-1.203"/><path fill="#519b3d" d="M136 23.155c-.9.15-2.173.451-3.671.827-.75.15-1.574.451-2.398.752-.824.3-1.648.827-2.472 1.278-1.649 1.053-3.297 2.33-4.87 3.684-1.574 1.353-3.072 2.782-4.496 4.135-1.349 1.353-2.697 2.631-3.821 3.759-2.248 2.18-3.746 3.684-3.746 3.684s1.348-1.58 3.521-3.834c1.124-1.128 2.323-2.481 3.746-3.835 1.424-1.353 2.922-2.856 4.496-4.21 1.648-1.428 3.296-2.706 5.02-3.683.824-.527 1.648-.978 2.547-1.279q1.349-.45 2.473-.676c1.498-.3 2.847-.451 3.746-.602s1.423-.15 1.423-.15-.524.075-1.498.15M61.826 46.912c1.048-.902 2.547-2.18 4.345-3.608 1.798-1.429 3.971-3.158 6.219-4.962 2.247-1.805 4.72-3.684 7.192-5.564s5.02-3.683 7.343-5.413c2.323-1.729 4.57-3.232 6.518-4.51.974-.677 1.873-1.278 2.698-1.73.824-.526 1.498-.977 2.097-1.278a452 452 0 0 1 1.873-1.052s-.599.451-1.798 1.128q-.786.564-2.023 1.353c-.824.526-1.648 1.128-2.622 1.804a247 247 0 0 0-6.443 4.661 931 931 0 0 0-7.268 5.488c-2.472 1.88-4.87 3.76-7.193 5.564s-4.42 3.458-6.293 4.886c-3.671 2.857-6.144 4.737-6.144 4.737s.6-.526 1.499-1.504"/><path fill="#69b229" d="M208.526 120.438c4.945 7.142 4.87 23.23-3.896 34.282s-1.723 23.757 1.723 28.117c4.346 5.489 6.893 5.714 7.492 8.27.675 2.631-5.32 6.842-14.16-5.488-7.493-10.45-15.584-17.592-11.988-27.365 3.896-10.676-2.248-16.014-3.896-26.163-1.648-9.999 16.258-23.757 24.725-11.653"/><path fill="#69b229" d="M213.396 189.679c1.199.902 4.27 2.706 5.62 2.781 1.348.076 1.498-1.278 3.296-.902 1.798.451 1.948 2.105 1.124 3.083-.825.902-1.124.902-1.799.827 0 0 .15.676-.224 1.428-.45.977-1.424 1.053-2.323.677-.824-.451-1.274-.226-1.274-.226s.3 1.278-.45 2.03c-1.048.977-2.022.677-3.146-.526s-2.622-1.429-4.945-1.429c-1.723 0-2.547-.977-3.521-1.88-.675-.6-1.499-.977-2.098-.6-.9.6-2.023 1.052-2.473.075-.824-1.73 2.098-1.73 2.098-2.857 0-1.73-3.371-4.887-.45-5.413 2.923-.376 8.392 1.278 10.565 2.932"/><path fill="#a1af93" d="M200.134 195.919s1.2-2.105 1.724-1.203c.374.526-.075.752-.6.752-.374 0-.6 0-1.124.45"/><path fill="#519b3d" d="M187.922 156.524c.075-.3.15-.526.225-.902q.113-.45.224-1.127c.075-.376.15-.827.15-1.354v-1.503c0-.527-.075-1.128-.075-1.654-.075-.526-.15-1.128-.224-1.654s-.15-1.128-.3-1.654c-.075-.526-.225-1.053-.375-1.579s-.3-1.052-.45-1.504c-.15-.45-.299-.902-.449-1.278-.225-.827-.6-1.503-.75-1.954a4 4 0 0 1-.299-.752s.15.225.375.677c.15.225.3.526.45.827.224.3.374.676.524 1.052s.3.827.524 1.278c.15.526.375.977.525 1.504.15.45.3 1.052.45 1.579.15.601.224 1.127.374 1.729.15.601.15 1.127.225 1.729.075.526.075 1.127.075 1.654s0 1.052-.075 1.579l-.225 1.353c-.225.902-.45 1.579-.6 2.03-.15.526-.3.751-.3.751s.076-.3 0-.827M205.004 180.958c-.224-.226-.45-.602-.749-.977-.225-.376-.524-.827-.824-1.354-.3-.45-.6-1.052-.9-1.654-.299-.601-.524-1.278-.823-1.954-.225-.677-.45-1.429-.675-2.18-.224-.752-.45-1.58-.524-2.331l-.15-1.203c0-.451-.075-.827-.075-1.203-.075-.752 0-1.503 0-2.255s.225-1.429.3-2.105c0-.376.075-.677.15-.978l.225-.902c.15-.526.224-1.052.45-1.503.224-.451.374-.827.524-1.128.3-.602.45-.977.45-.977s-.15.3-.376.977q-.225.45-.45 1.128c-.149.375-.224.977-.374 1.503l-.224.902c-.075.301-.075.677-.15.978-.075.676-.225 1.353-.225 2.105s-.075 1.503 0 2.255c0 .376.075.752.075 1.128l.15 1.128c.075.751.3 1.503.45 2.255.224.677.449 1.428.674 2.105.224.677.45 1.353.749 1.955.3.676.524 1.203.824 1.729.225.526.524.977.75 1.428.299.376.449.752.673 1.053.375.601.6.902.6.902s-.3-.3-.525-.827M202.907 192.912c.074-.15.224-.376.224-.602.075-.526-.224-1.278-.674-2.03-.45-.827-1.049-1.654-1.723-2.631-.6-.977-1.349-1.955-2.098-2.932-1.499-2.03-2.922-3.985-4.046-5.488-1.049-1.504-1.798-2.481-1.798-2.481s.824.902 2.023 2.33q.9 1.129 2.023 2.481c.674.903 1.423 1.88 2.173 2.857.749 1.053 1.423 2.03 2.097 3.007.6.978 1.2 1.88 1.649 2.707s.674 1.654.524 2.18c-.075.3-.225.526-.3.602-.074.15-.15.15-.15.15s.076-.075.076-.15M221.413 195.317c-.15-.15-.3-.45-.6-.676-.15-.15-.374-.226-.524-.301a1.4 1.4 0 0 0-.6-.15c-.224 0-.45 0-.674.075s-.45.15-.75.15c-.524.075-1.048 0-1.573-.15-.449-.15-.899-.301-1.273-.527-.3-.225-.6-.45-.75-.601-.15-.226-.224-.3-.224-.3s.075.074.3.225c.15.075.449.225.824.376.374.15.824.3 1.273.376.45.075.974.15 1.424.075.225 0 .45-.075.75-.15h.823c.525 0 .974.3 1.274.6.15.151.225.302.3.452s.15.3.15.376c.074.225.074.376.074.376s0-.15-.224-.226M217.741 197.197c-.075-.15-.15-.376-.374-.602a3.16 3.16 0 0 0-1.873-.902c-.75-.075-1.574-.15-2.173-.376-.3-.075-.525-.225-.674-.3-.15-.076-.225-.15-.225-.15s.374.15.974.225c.524.075 1.348.075 2.173.225.15.075.374.075.599.15.225 0 .45.151.6.226.374.226.674.451.824.752.3.526.3.977.3.977s0-.075-.15-.225"/><path fill="#a1af93" d="M216.992 199.151c-.674-.375-1.124-.902-.225-1.278 1.499-.601 1.424 2.632 1.424 2.632-.375-.827-.674-.902-1.199-1.354M220.888 197.197c-.749-.301-1.273-.752-.45-1.278 1.35-.902 1.874 2.33 1.874 2.33-.525-.752-.824-.752-1.424-1.052M223.585 194.791c-.749 0-1.423-.226-.824-1.053.974-1.278 2.548 1.58 2.548 1.58-.75-.527-1.05-.452-1.724-.527"/><path fill="#7cbf2e" d="M219.315 131.189c-18.207 23.606-26.074 27.59-48.85 28.042-20.53.451-31.318-26.689-51.698-22.178s-36.637 3.007-37.761-12.18c-1.424-18.644 14.61-33.605 33.116-40.822s46.902-4.36 59.265 6.24c12.287 10.6 15.883 8.27 26.972 11.578 10.714 3.157 25.924 20.298 18.956 29.32"/><path fill="#b4d189" d="M166.943 146.45c18.057 6.165 40.084-13.682 50.574-30.523 3.521 5.413 4.945 11.202 1.723 15.412-18.207 23.532-26.074 27.591-48.85 28.042-20.53.376-31.393-26.99-51.698-22.178-17.607 4.135-23.526 2.18-30.044.075 26.823-20.824 57.841 2.105 78.295 9.172"/><path fill="#7d9950" d="M208.975 143.368c-.374.451-.899 1.128-1.648 1.88-1.424 1.503-3.596 3.683-6.593 5.939-1.499 1.127-3.147 2.255-5.02 3.232a37.6 37.6 0 0 1-6.144 2.557c-2.173.676-4.495 1.278-6.893 1.653-2.397.376-4.87.602-7.342.752-2.473.15-4.945.15-7.343-.075s-4.795-.827-6.968-1.579c-2.173-.751-4.195-1.804-5.994-2.932s-3.371-2.255-4.87-3.383a290 290 0 0 1-6.968-5.563c-1.648-1.353-2.622-2.105-2.622-2.105s.974.752 2.697 2.03a390 390 0 0 0 7.118 5.413 113 113 0 0 0 4.945 3.308c1.798 1.052 3.746 2.105 5.92 2.856a29.6 29.6 0 0 0 6.892 1.504c2.398.226 4.795.226 7.268.075 2.472-.15 4.87-.376 7.267-.752a48.6 48.6 0 0 0 6.893-1.578 35 35 0 0 0 6.144-2.481c1.873-.978 3.521-2.105 5.02-3.158a56 56 0 0 0 6.743-5.789c.75-.751 1.349-1.353 1.723-1.804s.6-.677.6-.677-.225.226-.825.677"/><path fill="#519b3d" d="M159.75 83.3c-2.247-.753-5.544-1.58-9.59-2.256-4.045-.677-8.766-1.053-13.86-.902-5.095.15-10.49.827-15.734 2.18a54 54 0 0 0-7.718 2.406 69 69 0 0 0-7.117 3.308c-4.496 2.48-8.317 5.262-11.389 7.969-2.997 2.706-5.32 5.262-6.743 7.142-1.498 1.88-2.173 3.082-2.173 3.082s.675-1.203 2.098-3.157c1.424-1.88 3.672-4.511 6.668-7.293a61 61 0 0 1 11.389-8.12 69 69 0 0 1 7.118-3.307c2.472-.978 5.094-1.805 7.717-2.481a78.8 78.8 0 0 1 15.884-2.105c5.17-.15 9.89.376 13.935 1.052a63 63 0 0 1 9.59 2.406c2.323.752 3.522 1.353 3.522 1.353s-1.274-.526-3.596-1.278"/><path fill="#7cbf2e" d="M115.246 116.003c-.524 11.05-.524 15.862-20.08 25.786-14.834 7.518-16.558 29.696-56.792 33.756-40.233 4.06-38.36-17.517-38.36-17.517.899 11.878 19.93 18.344 41.208 8.72 21.428-9.622 42.856-64.128 54.619-69.09 13.037-5.488 20.08 6.541 19.405 18.344"/><path fill="#b4d189" d="m110.076 130.212 7.792 5.412c-2.772 2.03-14.01 4.737-18.88 7.143-14.835 7.518-20.38 28.793-60.614 32.778-4.87.526-9.215.601-12.886.451 14.235-2.03 33.565-6.917 44.13-18.795 17.981-20.223 40.458-26.99 40.458-26.99"/><path fill="#519b3d" d="M13.8 170.433c.674.15 1.498.3 2.472.376.974.075 2.098.15 3.297.225h1.873c.674 0 1.348 0 2.023-.075 1.348-.15 2.772-.226 4.27-.451 1.424-.15 2.997-.451 4.496-.827a53 53 0 0 0 4.57-1.353 31.6 31.6 0 0 0 4.346-1.88c1.423-.676 2.772-1.503 3.97-2.33 1.274-.827 2.398-1.73 3.447-2.632.525-.45 1.049-.902 1.499-1.353s.899-.827 1.348-1.278c.824-.827 1.574-1.579 2.248-2.33a34 34 0 0 0 1.723-1.88c.9-1.053 1.424-1.654 1.424-1.654s-.45.601-1.349 1.73c-.45.525-.974 1.202-1.648 1.954-.375.376-.675.827-1.05 1.203-.374.45-.748.827-1.198 1.278l-1.349 1.353c-.524.451-.974.902-1.498 1.353-1.049.902-2.173 1.88-3.447 2.707-1.198.902-2.547 1.654-3.97 2.405-1.424.677-2.923 1.354-4.421 1.88-1.573.601-3.072.977-4.645 1.353-1.574.376-3.072.602-4.57.827-1.5.226-2.998.3-4.346.376h-2.023c-.674 0-1.274-.075-1.873-.075-1.199-.075-2.323-.15-3.297-.3q-1.461-.227-2.472-.452c-1.424-.3-2.173-.526-2.173-.526s.824.225 2.323.376"/><path fill="#7d9950" d="M79.058 160.058c-.6.526-1.274 1.128-2.098 1.729-.45.3-.899.601-1.349.977-.45.301-.974.677-1.498 1.053s-1.124.677-1.723 1.052c-.6.376-1.199.752-1.873 1.128-1.274.677-2.623 1.504-4.121 2.18-.75.376-1.499.752-2.248 1.053s-1.573.676-2.322.977c-.825.3-1.574.602-2.398.902-.75.301-1.573.602-2.398.903-1.648.526-3.296.977-4.945 1.428-1.648.376-3.296.752-4.87 1.128-1.573.3-3.146.526-4.57.751-.674.076-1.423.15-2.098.226-.749 0-1.348.075-2.023.15-1.273.076-2.472.226-3.521.226-1.05.075-1.948.075-2.697.075-1.499.075-2.323.075-2.323.075s.824-.075 2.323-.15c.749-.075 1.648-.075 2.697-.15 1.049 0 2.248-.15 3.521-.301l2.023-.226c.675-.075 1.349-.15 2.098-.3 1.499-.226 2.997-.452 4.57-.752 1.574-.376 3.147-.752 4.796-1.128 1.573-.526 3.221-.977 4.87-1.504.824-.225 1.573-.526 2.397-.827s1.648-.526 2.398-.902c.824-.3 1.573-.676 2.322-.977s1.424-.752 2.173-1.053c1.499-.676 2.847-1.428 4.12-2.105.675-.3 1.275-.676 1.874-1.052s1.199-.677 1.723-1.053a39 39 0 0 0 2.922-1.954c.9-.602 1.574-1.203 2.173-1.654 1.199-.978 1.798-1.58 1.798-1.58s-.6.602-1.723 1.655"/><path fill="#7cbf2e" d="M223.66 50.897c-4.27 5.187 2.248 18.795 4.496 29.02 2.247 10.224 6.368 35.71-7.418 51.497-17.532 20.073-35.738 4.36-39.334-6.54s-4.796-19.472 9.29-22.404c13.561-2.857 24.575-9.924 17.008-31.124-5.62-15.863-.45-35.11 6.518-38.117 10.04-4.36 13.786 12.33 9.44 17.668"/><path fill="#b4d189" d="M195.414 139.534c14.236-10 26.074-27.065 28.022-36.989 3.221-16.314-7.942-42.551-3.522-43.529 1.124-.225 2.023.15 2.772.752 1.124 6.09 4.121 13.683 5.47 19.998 2.248 10.224 6.368 35.71-7.418 51.498-8.99 10.3-18.056 11.277-25.324 8.27"/><path fill="#519b3d" d="M200.509 99.087q.563-.225 1.573-.902c.375-.226.75-.451 1.124-.752.375-.3.75-.601 1.199-.977.824-.752 1.723-1.654 2.472-2.782.825-1.128 1.499-2.406 2.023-3.91.525-1.503.825-3.082.974-4.81.15-1.73.075-3.459-.15-5.263-.3-1.73-.674-3.534-1.273-5.263-1.199-3.458-2.098-7.067-2.697-10.45s-.825-6.616-.675-9.397c.075-1.429.3-2.632.45-3.76s.375-2.104.524-2.856c.375-1.579.6-2.481.6-2.481s-.225.902-.525 2.48c-.15.753-.3 1.73-.45 2.858-.15 1.127-.299 2.405-.374 3.759-.075 2.706.225 5.939.824 9.322.6 3.383 1.574 6.916 2.772 10.375.675 1.804 1.05 3.608 1.274 5.413.225 1.804.3 3.608.15 5.337a20.2 20.2 0 0 1-1.049 4.887 16.2 16.2 0 0 1-2.098 3.91c-.824 1.202-1.798 2.03-2.622 2.781-.45.376-.9.677-1.274.977-.374.301-.75.527-1.124.752a9.6 9.6 0 0 1-1.648.902c-.375.226-.6.301-.6.301s.225-.075.6-.451"/><path fill="#7d9950" d="M221.338 130.663c1.049-1.354 2.472-3.308 3.82-5.864 1.35-2.557 2.623-5.714 3.522-9.172.9-3.534 1.424-7.368 1.649-11.202.075-1.88.075-3.834.075-5.714-.075-1.88-.15-3.759-.3-5.563s-.3-3.534-.525-5.188c-.224-1.578-.45-3.157-.749-4.586-.524-2.856-1.124-5.187-1.498-6.84-.45-1.655-.675-2.557-.675-2.557s.3.902.75 2.556a119 119 0 0 1 1.648 6.841c.3 1.354.6 2.932.824 4.586.225 1.654.45 3.384.6 5.188s.224 3.684.3 5.563c.074 1.88.074 3.834-.076 5.789-.225 3.91-.749 7.744-1.723 11.277a39.6 39.6 0 0 1-3.671 9.172 39 39 0 0 1-3.971 5.789c-1.124 1.278-1.723 2.03-1.723 2.03s.599-.752 1.723-2.105"/><path fill="#69b229" d="M219.015 21.126c1.274-1.203 4.87 2.556 7.867 3.383 2.922.827 4.795 6.24 2.547 7.442-7.492 4.06-11.688-9.623-10.414-10.825"/><path fill="#f1f2dc" d="M227.332 31.05s-2.098-7.895-8.542-11.804c-3.82-2.33-4.645-7.743-4.645-7.743 3.596 5.337 6.893 4.36 11.538 6.916 4.646 2.631 8.092 10.826 8.092 10.826-3.372-1.128-6.443 1.804-6.443 1.804"/><path fill="#7cbf2e" d="M226.657 31.951c-1.049-.902-.674-3.232-.674-3.232 1.648-2.632 6.518-1.88 6.518-1.88 1.574.526 1.873 3.083 1.873 3.083"/><path fill="#519b3d" d="M233.775 27.967c-.075-.075-.15-.226-.3-.376s-.3-.3-.524-.376a9 9 0 0 0-.75-.225c-.224-.076-.524-.076-.823-.076-.3 0-.6 0-.9.076-.374 0-.674.075-.974.15-.374.075-.674.15-.974.225s-.599.15-.899.301c-.524.226-.974.526-1.273.902-.3.376-.375.752-.375 1.053s.075.45.075.45-.075-.15-.15-.45c0-.3 0-.752.3-1.203q.45-.677 1.348-1.128c.225-.15.6-.3.9-.376.3-.075.674-.15.973-.225.3-.075.675-.15.974-.15.3-.076.675-.076.974-.076.3 0 .6.075.9.15.224.076.524.151.749.301s.374.301.524.451l.225.452c.075.3.075.45.075.45s-.075-.15-.075-.3"/><path fill="#c9bd9b" d="M224.035 24.734a33 33 0 0 0-2.323-2.631c-.45-.451-.899-.902-1.348-1.278a15 15 0 0 0-1.199-1.053q-.562-.45-.9-.676c-.224-.15-.374-.226-.374-.226s.15 0 .375.15c.3.076.674.301 1.049.527l.674.45c.225.151.45.302.674.527.525.376.974.827 1.424 1.278.9.902 1.648 1.955 2.173 2.782.524.827.749 1.428.749 1.428s-.375-.526-.974-1.278M221.038 16.765c-.45-.075-.974-.3-1.573-.526-.525-.3-1.124-.602-1.724-.902-.3-.15-.599-.301-.824-.527-.225-.225-.524-.375-.749-.601-.225-.15-.524-.376-.674-.601-.15-.226-.375-.376-.525-.602-.3-.376-.524-.752-.674-.977-.15-.226-.225-.376-.225-.376s.15.15.3.376c.075.075.15.225.3.376l.45.45c.149.151.374.301.598.527.225.15.45.3.675.526.225.15.524.301.749.527.3.225.524.375.824.526 1.124.676 2.323 1.203 3.222 1.579s1.498.601 1.498.601-.599-.075-1.648-.376"/><path fill="#7cbf2e" d="M225.309 25.636c5.994.978 9.515 2.03 11.688 8.27s1.199 11.427 5.02 15.487 1.273 9.097.15 10.676l-1.949-.527s-.3 1.053-1.573 1.128c-1.349.075-6.818-3.759-9.89-4.887s-16.483-2.781-17.981-13.156 5.918-18.494 14.535-16.99"/><path fill="#46893d" d="M238.645 53.678c.9.301.75 1.805.3 1.654-.974-.3-1.274-2.03-.3-1.654"/><path fill="#34662d" d="M239.095 55.107a.64.64 0 0 0 0-.526c0-.15-.15-.376-.225-.527-.075-.075-.15-.15-.15-.225l-.075-.075h.075s.15 0 .225.075c.15.075.45.3.524.601a.48.48 0 0 1 0 .451c-.075.15-.15.226-.225.301-.15.15-.3.15-.3.15s0-.15.15-.225"/><path fill="#283f1f" d="M224.507 43.875c-.054-.829.348-1.53.9-1.566.55-.036 1.041.607 1.096 1.435.054.829-.349 1.53-.9 1.566-.55.036-1.042-.606-1.096-1.435"/><path fill="#f1f2dc" d="M227.107 53.303c0-.452.15-1.053.374-1.504a.442.442 0 0 1 .825 0c.3.827.374 1.579.374 1.579z"/><path fill="#519b3d" d="M237.596 58.715c-.75-.3-1.648-.676-2.472-1.278-.45-.3-.9-.601-1.274-.977-.225-.15-.375-.376-.6-.601l-.449-.677c-.15-.226-.375-.376-.524-.526-.225-.15-.45-.301-.675-.376-.45-.226-.899-.3-1.423-.376-.974-.15-1.873-.226-2.698-.3q-.675-.114-1.123-.226c-.3-.15-.6-.226-.825-.301-.224-.15-.374-.226-.45-.3l-.149-.151s.075 0 .15.075c.15.075.3.15.524.226.225.075.525.075.825.15.374 0 .749.075 1.123.075.825 0 1.724 0 2.773.15.524.076 1.049.15 1.573.376.225.076.524.226.75.376.224.15.449.376.599.602l.45.676c.149.226.299.451.524.602.374.376.824.676 1.198.977a16 16 0 0 0 2.323 1.429 57 57 0 0 0 2.398 1.202s-1.05-.3-2.548-.827M227.332 43.604c-.525-.376-1.2-.676-1.948-.902-.375-.15-.75-.225-1.124-.3-.3-.076-.675-.15-.974-.15-.3-.076-.6-.076-.75-.076h-.3s.15-.075.3-.075c.225-.075.45-.15.75-.15h1.049c.374 0 .824.15 1.198.225.375.075.825.225 1.124.451.3.15.6.376.824.601.45.451.6.827.6.827s-.3-.225-.75-.45M228.98 42.251c-.075-.3-.15-.677-.375-1.052-.075-.15-.224-.301-.374-.452-.15-.15-.3-.3-.45-.375-.075-.076-.225-.15-.3-.226-.074 0-.15-.075-.15-.075h.15c.15 0 .3 0 .45.075.225.075.375.15.6.3.15.076.224.151.3.226.074.075.149.15.224.301.225.451.3.977.225 1.353s-.225.602-.225.602 0-.226-.075-.677"/><path fill="#f1f2dc" d="M219.24 31.801s-2.548-7.743-9.216-11.277c-3.97-2.03-5.095-7.443-5.095-7.443 3.897 5.113 7.118 3.91 11.913 6.165 4.795 2.33 8.766 10.3 8.766 10.3-3.371-.978-6.368 2.255-6.368 2.255"/><path fill="#7cbf2e" d="M218.79 32.553c-1.123-.827-.899-3.158-.899-3.158 1.499-2.706 6.369-2.255 6.369-2.255 1.573.526 2.023 3.007 2.023 3.007"/><path fill="#519b3d" d="M225.234 28.042c-.075-.15-.15-.225-.3-.376-.15-.075-.3-.225-.524-.3-.225-.076-.45-.15-.75-.15h-.824c-.3.074-.6.074-.899.15-.374.075-.674.15-.974.225s-.6.226-.899.3c-.3.151-.6.226-.824.377a3.4 3.4 0 0 0-1.274.977c-.225.376-.3.752-.3 1.052s.075.452.075.452-.074-.15-.15-.452c0-.225-.074-.751.225-1.202.225-.451.75-.903 1.274-1.203.3-.226.6-.301.9-.451.299-.076.673-.226.973-.301s.674-.15.974-.226c.3-.075.674-.075.974-.075s.6 0 .9.075c.299.076.599.15.823.301.3.15.45.3.6.451.15.15.225.3.3.451.074.301.074.451.074.451s0-.15-.374-.526"/><path fill="#c9bd9b" d="M215.793 25.712a39 39 0 0 0-2.472-2.481c-.45-.452-.974-.827-1.424-1.203s-.899-.677-1.273-.978c-.375-.225-.75-.45-.974-.601-.225-.15-.375-.226-.375-.226s.15.076.375.15c.224.076.6.226 1.049.452.224.075.45.225.674.376.3.15.524.3.75.45.524.377 1.048.753 1.498 1.204.974.827 1.798 1.88 2.322 2.631.525.752.824 1.353.824 1.353s-.45-.526-.974-1.127M212.347 17.893c-.525-.075-1.049-.226-1.648-.451-.6-.226-1.2-.451-1.799-.752-.3-.226-.599-.376-.899-.526s-.599-.301-.824-.527c-.225-.225-.45-.376-.674-.601-.225-.226-.45-.376-.6-.601-.374-.376-.599-.752-.749-.978s-.225-.376-.225-.376l.3.301c.15.075.225.226.375.376s.374.3.524.451c.15.226.375.376.6.526.15.226.45.376.674.526.225.226.45.376.75.527.224.15.524.3.823.45 1.124.602 2.398 1.053 3.297 1.354.9.376 1.573.526 1.573.526s-.674-.075-1.498-.225"/><path fill="#519b3d" d="M233.4 37.214c-.15-.977-.45-2.18-.899-3.308-.15-.3-.224-.526-.374-.827-.15-.225-.3-.526-.45-.752l-.45-.676c-.15-.226-.299-.451-.449-.602l-.45-.45c-.15-.151-.3-.226-.374-.302-.15-.225-.3-.3-.3-.3s.15.075.375.225c.3.15.6.376.974.677l.524.526c.225.15.375.451.525.677.374.45.674 1.052.899 1.654.075.3.225.601.3.902l.224.902c.15.602.15 1.203.225 1.654.075.977 0 1.579 0 1.579s-.075-.677-.3-1.579M222.162 54.054c-.525-.15-1.124-.376-1.798-.601-.675-.226-1.349-.526-2.023-.827-.3-.15-.675-.376-.974-.526-.3-.15-.6-.376-.9-.527q-.898-.563-1.573-1.127l-.524-.527c-.15-.15-.3-.3-.375-.45-.15-.226-.3-.377-.3-.377s.15.076.375.301c.15.15.3.226.45.376s.374.3.6.451c.449.3.973.602 1.572.977.3.15.6.376.9.527.3.15.674.3.974.45.674.302 1.348.602 1.948.903.599.3 1.198.526 1.723.752 1.049.376 1.723.676 1.723.676s-.75-.15-1.798-.45"/><path fill="#519b3d" d="M243.89 55.332c0-.526 0-1.127-.075-1.88-.075-.75-.3-1.503-.674-2.33-.075-.225-.225-.376-.3-.601-.075-.15-.225-.3-.375-.526-.374-.301-.674-.677-1.049-1.053-.674-.827-1.199-1.804-1.573-2.857-.375-1.052-.674-2.255-.9-3.383-.224-1.203-.449-2.406-.674-3.533-.15-.602-.374-1.128-.45-1.73-.149-.6-.224-1.127-.374-1.729-.3-1.127-.674-2.255-1.124-3.232a10.6 10.6 0 0 0-1.723-2.632c-.374-.376-.674-.751-1.049-1.052-.374-.3-.749-.602-1.124-.827-.674-.451-1.423-.827-2.097-1.128-.675-.225-1.274-.45-1.799-.601-.974-.226-1.348-.376-1.348-.376s.524.075 1.573.3c.525.076 1.124.301 1.798.527.675.225 1.424.526 2.173 1.052.375.226.75.527 1.124.827.45.301.75.677 1.124 1.053.3.376.674.827.974 1.278s.6.902.824 1.428c.524 1.053.9 2.18 1.199 3.308.15.602.225 1.128.374 1.73.15.526.3 1.127.45 1.729.225 1.202.375 2.405.6 3.533s.449 2.255.823 3.308c.375 1.052.825 2.03 1.424 2.782.3.375.674.751.974 1.127.15.226.3.376.45.602.075.225.224.376.3.601.374.827.524 1.654.599 2.406s.075 1.353 0 1.88c-.15 1.052-.3 1.653-.3 1.653s.15-.601.225-1.654"/><path fill="#7cbf2e" d="M205.004 29.696c-1.648-1.73-1.648-4.36-.45-3.609 1.2.752 3.597.527 8.018.527 4.42 0 5.769 4.36 2.997 6.766-3.297 3.007-8.916-1.955-10.565-3.684"/><path fill="#519b3d" d="M215.569 32.854a3.6 3.6 0 0 1-1.424-.602c-.524-.376-.974-.977-1.423-1.654l-.075-.075-.075-.15c-.075-.076-.15-.15-.225-.15-.075-.076-.3-.151-.45-.226-.374-.075-.824-.15-1.198-.226-.825-.15-1.724-.225-2.473-.376-.374-.075-.75-.15-1.124-.3-.374-.076-.674-.226-.974-.376s-.524-.301-.749-.451-.375-.301-.524-.451c-.225-.301-.375-.452-.375-.452s.15.15.45.376c.15.15.3.226.524.376s.45.226.75.376c.299.075.599.226.973.3l1.124.226c.824.15 1.648.226 2.473.301.45.075.824.15 1.273.3.225.076.375.151.6.302l.224.225.075.15c.075.076.075.076.075.15.375.677.824 1.279 1.274 1.655s.899.601 1.274.676c.374.15.599.15.599.15s-.225 0-.6-.074M213.546 34.508c-.6.075-1.424 0-2.248-.226-.225-.075-.375-.15-.6-.226-.15-.075-.374-.15-.524-.225s-.3-.226-.45-.3c-.15-.076-.224-.226-.374-.302a10735.596 10735.596 0 0 1-.75-.752s.076.076.226.151c.15.15.3.226.599.376.524.3 1.199.601 1.948.827l1.124.225c.374.076.674.15.974.15.6.076.974.076.974.076s-.375.15-.9.226M216.692 29.47c-.074-.3-.3-.676-.599-1.052-.3-.376-.75-.752-1.274-1.053-.3-.225-.599-.3-.899-.375s-.674-.15-.974-.15c-1.273-.151-2.622 0-3.67-.076-1.05 0-1.724-.15-1.724-.15s.75 0 1.723-.076c.974-.075 2.323-.225 3.746-.15.375 0 .675.075 1.05.15.374.15.673.301.973.452.6.3 1.05.827 1.274 1.278.3.45.375.902.45 1.203.074.3.074.45.074.45s0-.15-.15-.45"/><path fill="#a1af93" d="M187.922 202.159s1.199-2.105 1.723-1.203c.375.526-.075.752-.6.752-.449 0-.599 0-1.123.45"/><path fill="#7cbf2e" d="M196.313 126.678c4.945 7.142 4.87 23.23-3.896 34.282s-1.723 23.757 1.723 28.117c4.346 5.488 6.893 5.714 7.493 8.27.674 2.631-5.32 6.841-14.16-5.488-7.493-10.45-15.585-17.592-11.988-27.365 3.896-10.676-2.248-16.014-3.896-26.163-1.649-9.999 16.258-23.757 24.724-11.653"/><path fill="#519b3d" d="M175.71 162.764c.074-.3.15-.526.224-.902q.112-.45.225-1.127c.075-.376.15-.827.15-1.354v-1.503c0-.527-.075-1.128-.075-1.654-.075-.527-.15-1.128-.225-1.654s-.15-1.128-.3-1.654c-.075-.526-.224-1.053-.374-1.579s-.3-1.052-.45-1.504c-.15-.45-.3-.902-.45-1.278-.224-.827-.599-1.503-.749-1.954a4 4 0 0 1-.3-.752s.15.225.375.677c.15.225.3.526.45.826.225.301.374.677.524 1.053s.3.827.525 1.278c.15.526.374.977.524 1.504.15.45.3 1.052.45 1.578.15.602.225 1.128.374 1.73.15.601.15 1.127.225 1.729.075.526.075 1.127.075 1.654s0 1.052-.075 1.578l-.225 1.354c-.224.902-.45 1.578-.599 2.03-.15.526-.3.751-.3.751s.075-.3 0-.827M192.792 187.198c-.225-.226-.45-.602-.75-.978-.224-.375-.524-.826-.824-1.353-.3-.45-.599-1.052-.899-1.654s-.524-1.278-.824-1.954c-.225-.677-.45-1.429-.674-2.18s-.45-1.58-.525-2.331l-.15-1.203c0-.451-.074-.827-.074-1.203-.075-.752 0-1.504 0-2.255 0-.752.224-1.429.3-2.105 0-.376.074-.677.15-.978l.224-.902c.15-.526.225-1.052.45-1.503.224-.452.374-.827.524-1.128.3-.602.45-.978.45-.978s-.15.301-.375.978q-.225.45-.45 1.128c-.15.375-.224.977-.374 1.503l-.225.902c-.075.301-.075.677-.15.978-.075.676-.225 1.353-.225 2.105 0 .751-.075 1.503 0 2.255 0 .376.075.752.075 1.128l.15 1.127c.075.752.3 1.504.45 2.256.224.676.45 1.428.674 2.105s.45 1.353.75 1.955c.299.676.524 1.202.823 1.729.225.526.525.977.75 1.428.3.376.45.752.674 1.053.375.601.6.902.6.902s-.3-.3-.525-.827"/><path fill="#7cbf2e" d="M201.183 195.919c1.2.902 4.27 2.706 5.62 2.781 1.348.076 1.498-1.278 3.296-.902 1.798.451 1.948 2.105 1.124 3.083-.824.902-1.124.902-1.798.827 0 0 .15.676-.225 1.428-.45.977-1.423 1.052-2.323.677-.899-.376-1.273-.226-1.273-.226s.3 1.278-.45 2.03c-1.049.977-2.023.677-3.147-.526s-2.622-1.429-4.944-1.429c-1.724 0-2.548-.977-3.522-1.88-.674-.6-1.498-.977-2.098-.6-.899.6-2.023 1.052-2.472.074-.824-1.729 2.098-1.729 2.098-2.856 0-1.73-3.372-4.887-.45-5.413s8.392 1.278 10.564 2.932"/><path fill="#519b3d" d="M190.919 199.151c.15-.075.225-.3.225-.601 0-.3-.075-.601-.225-.977s-.375-.752-.6-1.203l-.899-1.353c-.374-.527-.674-.978-1.049-1.504-.749-1.053-1.573-2.105-2.322-3.158-1.574-2.105-3.147-4.285-4.346-5.864-1.199-1.654-1.948-2.706-1.948-2.706s.9 1.052 2.173 2.556a45 45 0 0 1 2.173 2.631c.749.978 1.573 2.03 2.397 3.083l2.248 3.157c.3.526.674 1.053.974 1.504.3.526.6.977.824 1.428.225.451.45.902.525 1.278s.15.752.075 1.053-.15.526-.3.601c-.15.15-.225.15-.225.15s.075 0 .3-.075M209.2 201.557c-.15-.15-.3-.45-.6-.676-.15-.15-.374-.226-.524-.301a1.4 1.4 0 0 0-.6-.15c-.224 0-.449 0-.673.075s-.45.15-.75.15c-.524.075-1.049 0-1.573-.15-.45-.15-.9-.301-1.274-.527-.3-.225-.6-.45-.749-.601-.15-.226-.225-.3-.225-.3s.075.074.3.225c.15.075.45.225.824.376.375.15.824.3 1.274.376.45.075.974.15 1.423.075.225 0 .45-.075.75-.15h.824c.524 0 .974.3 1.273.6.15.151.225.302.3.452s.15.3.15.376c.075.225.075.376.075.376s0-.15-.225-.226M205.529 203.437c-.075-.15-.15-.376-.375-.602a3.16 3.16 0 0 0-1.873-.902c-.75-.075-1.573-.15-2.173-.376-.3-.075-.524-.225-.674-.3-.15-.076-.225-.15-.225-.15s.375.15.974.225c.525.075 1.349.075 2.173.225.15.075.375.075.6.15.224 0 .449.15.599.226.374.226.674.451.824.752.3.526.3.977.3.977s0-.075-.15-.225"/><path fill="#a1af93" d="M204.78 205.391c-.675-.376-1.124-.902-.225-1.278 1.498-.601 1.423 2.632 1.423 2.632-.374-.827-.674-.903-1.198-1.354M208.6 203.437c-.748-.301-1.273-.752-.449-1.278 1.349-.903 1.873 2.33 1.873 2.33-.45-.752-.749-.752-1.423-1.052M211.373 201.03c-.75 0-1.424-.225-.824-1.052.974-1.278 2.547 1.58 2.547 1.58-.75-.527-.974-.527-1.723-.527"/><path fill="#519b3d" d="M199.46 139.308c0-.752-.075-1.654-.15-2.556s-.15-1.88-.3-2.857c-.074-.45-.15-.977-.224-1.428s-.15-.902-.3-1.353a6.4 6.4 0 0 0-.375-1.278c-.15-.451-.3-.752-.45-1.128-.149-.376-.299-.602-.449-.902-.075-.15-.15-.301-.224-.376-.075-.15-.15-.226-.225-.3-.225-.302-.375-.527-.375-.527l.45.45.225.226c.074.15.15.226.224.376.15.301.375.527.525.903.15.375.374.751.524 1.127s.375.827.45 1.278c.15.451.3.978.374 1.429.15.526.225.977.3 1.503.15.978.225 2.03.3 2.932v2.556c-.075 1.504-.225 2.481-.225 2.481s0-1.052-.075-2.556"/><path fill="#7cbf2e" d="M132.254 112.77c7.642 11.728 3.746 37.44-6.07 41.5-14.984 6.164-23.75 11.577-28.545 13.757-4.72 2.105-5.395 4.285-9.44 24.734-1.05 5.112-7.792 12.706-7.942 1.654 0-2.18-.375-18.945 1.873-24.584 4.196-10.3 8.69-9.247 12.062-12.104 4.271-3.533 8.692-10.6 2.997-21.651-10.863-21.05 16.109-52.4 35.065-23.306"/><path fill="#7cbf2e" d="M88.049 196.67c.524 1.429 3.521 3.61 4.795 3.985 1.274.376 1.723-.902 3.446-.075 1.649.827 1.424 2.48.375 3.233-1.049.751-1.349.601-1.948.45 0 0 0 .677-.524 1.354-.675.827-1.649.752-2.398.15-.75-.601-1.124-.526-1.124-.526s0 1.353-.899 1.88c-1.274.751-2.098.15-2.922-1.279s-2.173-1.954-4.495-2.48c-1.649-.376-3.072-3.534-2.698-6.767.525-4.66.6-7.593 3.447-8.194 8.316-1.805 4.046 5.713 4.945 8.27"/><path fill="#519b3d" d="M94.492 203.888c0-.226-.15-.526-.374-.827-.15-.15-.3-.226-.45-.376s-.375-.226-.6-.3c-.224 0-.449-.076-.674-.076h-.824c-.524-.075-1.049-.3-1.498-.526-.45-.301-.824-.527-1.124-.827-.3-.301-.45-.527-.6-.752l-.15-.3q0 0 .225.225c.15.15.45.376.75.601.3.226.674.376 1.123.602.45.225.974.376 1.424.45.225.076.45.076.75.076.299 0 .599.075.823.15.525.15.9.527 1.124.902.15.15.15.376.225.527.075.225.075.3.075.45v.377s0-.15-.225-.376M90.521 205.015c-.075-.225-.15-.45-.3-.676-.224-.526-.824-.977-1.573-1.278-.674-.3-1.498-.602-2.023-.902-.3-.15-.45-.301-.6-.451-.074-.15-.149-.226-.149-.226s.3.226.899.451c.525.15 1.349.376 2.098.677.225.075.45.15.6.3.224.076.374.226.524.376.3.226.524.602.6.902.224.602.074 1.053.074 1.053s0-.075-.15-.226"/><path fill="#a1af93" d="M89.322 206.82c-.524-.526-.899-1.203.075-1.353 1.574-.301.825 2.856.825 2.856-.15-.902-.375-1.052-.9-1.503M93.518 205.692c-.6-.451-1.124-.977-.15-1.353 1.574-.526 1.349 2.706 1.349 2.706-.3-.827-.525-.902-1.199-1.353M96.74 204.038c-.674-.225-1.274-.601-.525-1.203 1.2-1.052 2.098 2.105 2.098 2.105-.524-.752-.824-.752-1.573-.902"/><path fill="#519b3d" d="M99.362 149.382c.075-.45.15-1.127.15-1.954.075-.752 0-1.73-.15-2.707-.075-.45-.075-.977-.225-1.503-.15-.527-.224-1.053-.374-1.58-.075-.525-.225-1.052-.375-1.578s-.3-1.052-.45-1.504l-.449-1.353c-.15-.45-.3-.827-.45-1.203-.3-.751-.599-1.353-.749-1.804-.224-.451-.3-.677-.3-.677s.15.301.375.677.6.977.9 1.73c.15.375.299.751.524 1.202.15.451.374.902.524 1.353.225.527.375.978.525 1.504l.45 1.579c.074.526.224 1.052.299 1.578.15.527.15 1.053.225 1.58.075.525.075 1.052.075 1.503 0 .526 0 .977-.075 1.353 0 .827-.15 1.504-.3 1.955-.075.45-.225.676-.225.676s.15-.225.075-.827M136.6 130.362c-.15 1.278-.375 3.082-.675 5.187s-.75 4.586-1.424 7.218c-.374 1.278-.749 2.63-1.273 3.984-.525 1.353-1.124 2.631-2.023 3.834-.9 1.128-1.948 2.18-3.147 2.932s-2.473 1.354-3.671 1.88c-2.473 1.052-4.87 1.954-6.818 2.781a144 144 0 0 0-4.72 2.105c-1.05.602-1.724.903-1.724.903s.6-.376 1.723-.978a88 88 0 0 1 4.646-2.33c1.948-.902 4.27-1.88 6.743-2.932 1.199-.527 2.472-1.128 3.596-1.88a12 12 0 0 0 2.997-2.857c.824-1.127 1.424-2.405 1.948-3.683.525-1.279.9-2.632 1.274-3.91a91 91 0 0 0 1.573-7.142c.75-4.21 1.124-7.067 1.124-7.067s-.075.677-.15 1.955"/><g fill="#89ce30"><path d="M101.76 113.747c-.6-5.187 7.417-8.044 12.812-8.044 5.47 0 3.82 5.112.974 8.946s-13.112 4.135-13.786-.902M108.203 120.664c4.121-.902 9.14 1.804 5.095 3.232-6.369 2.256-9.216-2.33-5.095-3.232M120.34 116.228c2.923-1.052 2.548 2.556.675 3.834s-4.196-2.556-.674-3.834"/></g><path fill="#519b3d" d="M99.287 167.275c-.524.3-1.348.677-2.247 1.203-.45.3-.974.526-1.424.902-.225.226-.524.376-.674.602s-.375.526-.525.751c-.749 1.053-1.273 2.406-1.723 3.684s-.824 2.632-1.199 3.91c-.374 1.278-.749 2.405-.974 3.458-.524 2.03-.899 3.383-.899 3.383s.075-.376.15-.977q.113-.903.45-2.481c.224-1.053.524-2.256.824-3.534.374-1.278.749-2.631 1.198-3.984.45-1.354 1.05-2.632 1.799-3.76.224-.3.374-.6.599-.826s.524-.451.75-.602c.524-.3 1.048-.601 1.498-.827.899-.526 1.723-.827 2.322-1.052.6-.226.9-.3.9-.3s-.375.225-.825.45"/><path fill="#b4d189" d="M103.558 5.488c46.902-11.126 60.838 17.743 60.838 17.743-19.106 25.26.899 71.496.899 71.496-24.35-27.29-67.206 0-67.206 0 1.423-32.854-28.097-18.344-28.097-18.344C79.208 44.43 56.656 45.258 49.688 48.49c0 0 31.842-37.815 53.87-43.003"/><path fill="#7cbf2e" d="M167.318 100.365c-3.297-11.427-11.913-16.088-15.734-32.929-3.447-15.11 5.02-35.109 5.02-35.109s-13.112 3.233-27.347 10.751c-14.76 7.819-32.742 56.235-32.742 56.235s4.87-24.885 14.16-46.16c9.291-21.352 46.453-28.419 46.453-28.419s-29.82-5.112-43.08.226c-13.262 5.337-46.154 55.633-46.154 55.633 14.985-36.387 32.217-53.679 42.857-62.55 10.564-8.871 47.276-.45 47.276-.45-3.146-7.444-32.142-11.804-49.524-9.774-17.307 2.03-63.16 45.333-63.16 45.333S83.328 4.887 106.48 1.428c29.37-4.435 60.388 9.548 60.388 9.548.9-7.969-8.391-9.322-8.391-9.322 7.492-1.353 13.71 5.338 15.884 14.209 2.172 8.871-12.363 26.99-14.61 42.552-2.248 15.487 22.102 39.018 22.102 39.018 1.349 6.24-12.362 10.15-14.535 2.932"/><path fill="#519b3d" d="M177.657 93.223a107 107 0 0 1-5.094-5.789c-2.023-2.48-4.271-5.413-6.444-8.72-2.173-3.309-4.27-7.068-5.62-11.127-.673-2.03-1.048-4.21-1.048-6.315.075-2.105.45-4.135.899-6.09.9-3.834 2.248-7.368 3.446-10.3 1.274-3.007 2.473-5.337 3.297-6.991s1.349-2.556 1.349-2.556-2.023 3.759-4.346 9.623a69.5 69.5 0 0 0-3.296 10.3c-.375 1.954-.75 3.984-.825 6.014 0 2.105.375 4.134 1.05 6.164 1.273 3.985 3.37 7.744 5.469 11.052 2.098 3.308 4.345 6.315 6.293 8.796 3.971 4.962 6.893 8.044 6.893 8.044s-.749-.752-2.023-2.105M158.027 24.734c-1.049.226-2.472.602-4.195 1.053a112 112 0 0 0-5.844 1.729c-2.098.601-4.346 1.428-6.594 2.255-2.172.827-4.42 1.73-6.443 2.632a96 96 0 0 0-5.47 2.63c-1.573.828-2.922 1.504-3.82 2.03-.9.527-1.424.828-1.424.828l1.348-.902c.9-.527 2.173-1.354 3.747-2.18 1.573-.828 3.446-1.88 5.469-2.782s4.196-1.88 6.443-2.707a140 140 0 0 1 6.669-2.255 71 71 0 0 1 5.919-1.579c1.798-.451 3.221-.677 4.27-.902.974-.226 1.574-.3 1.574-.376 0 0-.6.15-1.649.526M158.552 17.818c-1.05-.226-2.623-.527-4.496-.903-1.798-.375-4.045-.676-6.368-1.052q-3.596-.564-7.418-.902c-1.273-.15-2.472-.226-3.746-.3-1.273-.151-2.472-.151-3.671-.226s-2.323-.076-3.446-.076h-5.695c-.824 0-1.498.076-2.023.076-1.123.075-1.723.075-1.723.075s.6-.075 1.723-.15c.6 0 1.274-.076 2.023-.151.825-.075 1.649-.15 2.623-.15.974-.076 1.948-.076 3.072-.076 1.123.076 2.247 0 3.446.076 1.199 0 2.398.075 3.671.15 1.2.075 2.473.15 3.746.3 2.548.226 5.095.527 7.418.903 1.199.15 2.323.376 3.371.601 1.05.226 2.098.376 2.997.602 1.873.45 3.447.827 4.496 1.127 1.049.226 1.648.452 1.648.452s-.6-.226-1.648-.376M164.696 9.924c-1.424-.602-3.597-1.354-6.144-2.18-1.349-.376-2.697-.827-4.196-1.279-1.498-.526-3.072-.902-4.72-1.353-1.573-.376-3.297-.827-5.02-1.203s-3.446-.751-5.245-1.052c-.824-.226-1.723-.376-2.622-.526-.899-.076-1.723-.226-2.622-.376-.9-.15-1.798-.301-2.623-.376-.824-.075-1.723-.226-2.547-.301-.824-.15-1.648-.226-2.472-.3-.825-.076-1.649-.076-2.398-.151s-1.498-.075-2.248-.15C121.09.6 120.416.6 119.741.6c-1.348 0-2.547-.075-3.67-.075-1.125 0-2.024.075-2.848.075-1.573.076-2.472.076-2.472.076s.899-.076 2.472-.15c.824 0 1.723-.076 2.847-.151h3.671c.675 0 1.349-.075 2.098 0 .75.075 1.499.075 2.248.15.824.075 1.573.075 2.398.15.824 0 1.648.151 2.472.226.824.15 1.648.226 2.547.3.9.076 1.724.226 2.623.377.824.075 1.723.225 2.622.376.9.225 1.798.376 2.697.526 1.724.3 3.522.752 5.245 1.128 1.798.376 3.446.902 5.095 1.278 1.573.526 3.147.977 4.645 1.428 1.424.451 2.847.902 4.12 1.353 1.275.451 2.398.902 3.447 1.278.974.376 1.873.752 2.623 1.053 1.423.601 2.247.977 2.247.977s-.824-.376-2.172-1.052M166.269 97.96c0-.301-.075-.828-.3-1.354s-.45-1.203-.824-1.955c-.375-.751-.824-1.503-1.349-2.405-.524-.902-1.123-1.805-1.798-2.782-.6-.902-1.348-1.88-2.098-2.932-1.498-2.03-2.922-4.436-4.12-6.841-1.2-2.481-2.173-5.037-2.997-7.443s-1.349-4.736-1.724-6.766c-.3-2.03-.45-3.684-.45-4.887 0-.601.076-1.053.076-1.353.075-.301.075-.451.075-.451v1.804c.075 1.203.3 2.932.674 4.887.375 2.03.974 4.285 1.798 6.69s1.798 4.963 2.997 7.368c1.199 2.481 2.548 4.812 4.046 6.842.75.977 1.499 2.03 2.098 3.007.674.977 1.199 1.88 1.723 2.781.974 1.805 1.648 3.384 1.948 4.511.225.602.3 1.053.3 1.354v.45s0-.225-.075-.526M157.653 30.974c-.45.902-.974 2.105-1.424 3.308s-.899 2.481-1.274 3.383q-.336.676-.45 1.128c-.074.3-.149.45-.149.45s0-.15.075-.45.075-.752.225-1.203c.225-.977.6-2.255 1.124-3.458s1.123-2.406 1.648-3.233c.225-.451.524-.752.674-.977.15-.226.3-.301.3-.301s-.375.526-.75 1.353"/><path fill="#519b3d" d="M157.728 16.99c-.15-.15-.3-.375-.525-.6-.15-.226-.45-.452-.749-.677-.3-.226-.6-.452-.974-.677-.375-.226-.824-.451-1.199-.677l-1.348-.676c-.525-.15-.974-.376-1.424-.602s-.974-.376-1.424-.601c-.524-.226-.974-.376-1.423-.526q-1.349-.564-2.473-.903c-1.498-.526-2.472-.827-2.472-.827s.225.076.674.15c.375.076 1.05.151 1.798.377.75.225 1.649.45 2.548.751.45.15.974.301 1.423.452.45.15.974.3 1.424.526.524.225.974.45 1.423.676.45.301.9.527 1.35.752.449.226.823.451 1.198.752.374.3.674.601.974.827s.524.526.75.752l.449.676c.224.452.3.677.3.677s-.076-.225-.3-.601M166.718 8.12c.15.45.3.977.3 1.578s0 1.278-.3 1.88c-.074.15-.224.3-.3.45-.074.151-.15.226-.224.377-.15.225-.225.526-.3.751-.15.527 0 1.053.15 1.429.225.376.45.677.674.827s.375.15.375.15-.225 0-.45-.075c-.224-.075-.599-.3-.824-.752a3 3 0 0 1-.3-1.654c.076-.3.225-.601.375-.902.15-.15.225-.225.3-.376.075-.15.15-.225.225-.376.225-.526.3-1.127.3-1.654s-.075-1.052-.15-1.503c-.15-.902-.3-1.504-.3-1.504s.3.526.45 1.353"/><path fill="#7d9950" d="M145.14 83.45c-.374-.076-.899-.226-1.573-.301a75 75 0 0 0-2.472-.226c-.45-.075-.974-.075-1.499-.075-.524-.075-1.049-.075-1.648-.075h-1.798c-.6 0-1.274.075-1.948.075-1.349.075-2.773.3-4.196.451-.674.075-1.424.226-2.173.376-.75.075-1.498.226-2.248.376-.749.15-1.498.376-2.247.526l-1.124.226-1.124.3c-1.498.452-3.072.828-4.495 1.354-.75.225-1.424.526-2.173.752-.375.15-.674.225-1.05.376-.374.15-.673.3-1.048.45a209 209 0 0 0-3.896 1.58c-1.199.526-2.398 1.052-3.447 1.578-.524.226-.974.451-1.498.677l-1.349.676c-.824.451-1.573.827-2.172 1.128-1.274.602-1.948.977-1.948.977s.674-.375 1.873-1.052c.6-.3 1.348-.752 2.172-1.203.45-.225.9-.451 1.35-.752.449-.225.973-.526 1.498-.752 1.048-.526 2.247-1.052 3.446-1.654 1.199-.526 2.547-1.127 3.896-1.653.375-.15.674-.301 1.049-.452.3-.15.674-.225 1.049-.375.75-.226 1.423-.527 2.173-.752 1.423-.527 2.997-.902 4.495-1.353l1.124-.301 1.124-.226c.749-.225 1.498-.376 2.248-.526.749-.15 1.498-.226 2.247-.376.75-.15 1.499-.3 2.248-.376 1.498-.15 2.922-.376 4.27-.376.675 0 1.35-.075 1.949-.075h1.873c1.198.075 2.247.075 3.221.226.974.15 1.799.225 2.473.376.674.15 1.199.3 1.573.375.375.076.525.15.525.15s-.15-.074-.75-.074"/><path fill="#519b3d" d="M130.306 42.552c-.45.15-1.05.45-1.799.977a25 25 0 0 0-2.547 2.03c-.899.902-1.873 1.88-2.922 3.082-2.023 2.33-4.046 5.338-6.069 8.646-1.049 1.654-2.023 3.383-2.997 5.187-1.049 1.73-1.948 3.61-2.922 5.413a244 244 0 0 0-5.394 10.901 310 310 0 0 0-4.496 9.624 1291 1291 0 0 1-3.071 6.84c-.675 1.655-1.124 2.632-1.124 2.632s.374-.977 1.049-2.631 1.723-4.06 2.922-6.917c.599-1.428 1.273-2.932 2.023-4.586.749-1.654 1.498-3.383 2.322-5.112 1.648-3.533 3.447-7.292 5.32-10.976.45-.977.899-1.88 1.423-2.782.525-.902.974-1.804 1.499-2.706.974-1.805 1.948-3.534 2.997-5.188a56 56 0 0 1 3.072-4.66 59 59 0 0 1 3.146-3.91c2.098-2.33 4.046-3.985 5.62-4.962.749-.526 1.423-.827 1.873-.977l.674-.226s-.3 0-.6.3"/><path fill="#7d9950" d="M70.741 54.956c-.074-.3-.3-.676-.524-1.052s-.45-.827-.824-1.278a9 9 0 0 0-1.124-1.353c-.45-.376-.9-.903-1.499-1.278-.524-.451-1.198-.752-1.798-1.128-.3-.226-.674-.3-.974-.451-.374-.075-.674-.3-1.049-.376l-1.049-.3c-.3-.076-.674-.226-1.048-.226-.375-.076-.675-.076-1.05-.15l-.524-.076h-.524c-.75 0-1.349-.075-2.023-.075-.675.075-1.274.075-1.798.15-.3 0-.6.075-.825.075-.3.076-.524.076-.749.15-.45.076-.899.151-1.199.226-.674.076-1.049.15-1.049.15s.375-.074.974-.225c.3-.075.675-.225 1.124-.3.15 0 .45-.076.675-.15.3 0 .524 0 .824-.076a59 59 0 0 1 1.798-.226h2.547l.525.076c.374.075.749.075 1.124.15.374 0 .749.15 1.123.225l1.124.301c.375.15.675.3 1.05.451.374.15.749.226 1.048.451.6.376 1.274.752 1.798 1.203.6.451 1.05.978 1.499 1.429.374.45.824.977 1.124 1.428s.524.977.749 1.353c.15.376.3.752.45 1.053.224.601.3.977.3.977zM95.541 80.217c-.225-.3-.45-.752-.75-1.128-.149-.225-.374-.45-.524-.676s-.374-.451-.599-.677c-.15-.226-.45-.451-.674-.677-.3-.225-.525-.45-.824-.676l-.9-.677c-.3-.225-.599-.376-.974-.601-.15-.076-.374-.226-.524-.301s-.3-.15-.524-.226l-1.124-.45c-.375-.076-.824-.226-1.2-.301l-.598-.15c-.15 0-.375-.076-.6-.076-.824-.075-1.648-.225-2.472-.225-.9 0-1.649-.076-2.473.075-.45.075-.824.15-1.199.15-.374.075-.749.075-1.123.15-.75.15-1.424.226-2.023.376-.675.15-1.2.301-1.724.451-.45.15-.899.301-1.273.376-.75.15-1.124.301-1.124.301l1.124-.376c.374-.15.749-.3 1.273-.451.45-.15 1.05-.376 1.649-.526q.899-.225 2.023-.451c.749-.15 1.498-.226 2.322-.301.75-.15 1.649-.075 2.473-.075.824-.075 1.723.15 2.547.225.225 0 .45 0 .674.076l.6.15c.45.15.899.225 1.274.376.45.225.824.376 1.198.526.225.075.375.15.6.226.15.075.374.225.524.3.375.15.75.376 1.05.602l.898.676c.3.226.6.527.824.752.225.3.45.526.675.752.224.3.374.526.599.752l.45.676c.3.451.524.903.674 1.203.3.677.45 1.053.45 1.053s-.15-.451-.675-1.203"/><path fill="#519b3d" d="M119.442 23.38c-.9.226-2.173.602-3.672 1.053-.749.226-1.498.527-2.322.903s-1.574.902-2.398 1.428c-1.573 1.053-3.146 2.406-4.645 3.91-1.498 1.428-2.922 3.007-4.27 4.435a277 277 0 0 1-3.597 3.985l-3.521 3.909s1.273-1.654 3.296-4.06c1.05-1.203 2.173-2.631 3.522-4.06 1.273-1.503 2.697-3.007 4.195-4.51 1.574-1.429 3.147-2.782 4.796-3.91.824-.526 1.648-1.052 2.472-1.428s1.648-.602 2.398-.827a29 29 0 0 1 3.67-.827c.9-.15 1.424-.226 1.424-.226s-.524.076-1.348.226M46.84 51.573c.975-.902 2.398-2.255 4.122-3.834s3.746-3.383 5.919-5.338c2.172-1.954 4.495-3.984 6.818-6.014s4.72-4.06 6.967-5.864c2.248-1.804 4.421-3.458 6.294-4.887.9-.676 1.798-1.353 2.547-1.88q1.125-.788 2.023-1.352c1.124-.752 1.799-1.128 1.799-1.128l-1.799 1.203c-.524.376-1.198.902-1.948 1.428-.749.602-1.573 1.278-2.472 1.955a329 329 0 0 0-6.144 5.037 222 222 0 0 0-6.968 5.864c-2.397 1.955-4.72 4.06-6.893 5.94-2.172 1.954-4.27 3.758-5.994 5.262-3.521 3.082-5.844 5.112-5.844 5.112s.6-.526 1.574-1.504"/></g></svg>