<svg xmlns="http://www.w3.org/2000/svg" xml:space="preserve" width="800" height="800" viewBox="0 0 512 512"><path d="M412.927 255.999c8.895-9.768 16.941-19.581 24.003-29.338 31.637-43.711 40.227-81.792 24.186-107.226-11.661-18.488-35.134-28.26-67.884-28.26-18.805 0-40.056 3.166-62.777 9.129-2.493-7.875-5.185-15.442-8.077-22.647C302.281 27.579 274.653 0 244.584 0c-30.071 0-57.697 27.579-77.794 77.657-2.892 7.206-5.584 14.773-8.077 22.647-22.721-5.964-43.973-9.129-62.777-9.129-32.75 0-56.224 9.772-67.885 28.26C12.01 144.87 20.6 182.949 52.237 226.661c7.062 9.757 15.108 19.57 24.003 29.338-8.895 9.768-16.941 19.581-24.003 29.338C20.6 329.049 12.01 367.129 28.051 392.564c11.661 18.488 35.134 28.26 67.883 28.26 18.805 0 40.057-3.166 62.778-9.129 2.493 7.875 5.185 15.442 8.077 22.648C186.886 484.421 214.513 512 244.584 512c30.07 0 57.697-27.579 77.793-77.657 2.892-7.207 5.584-14.773 8.077-22.65 22.72 5.964 43.971 9.129 62.777 9.13h.01c32.742 0 56.215-9.772 67.875-28.26 16.041-25.435 7.451-63.514-24.186-107.226-7.062-9.757-15.108-19.568-24.003-29.338M393.231 107.17c18.814 0 43.515 3.608 54.357 20.798 12.142 19.252 3.535 51.806-23.613 89.317-6.512 8.996-13.904 18.051-22.068 27.079-15.512-15.765-33.166-31.304-52.483-46.19-2.773-29.455-7.662-57.357-14.483-82.565 21.148-5.511 40.873-8.439 58.29-8.439m-42.166 112.68c14.496 11.785 27.862 23.908 39.87 36.149-12.007 12.242-25.374 24.363-39.87 36.148.683-11.876 1.036-23.947 1.036-36.149s-.353-24.272-1.036-36.148m-19.103-34.631a630 630 0 0 0-30.024-20.161 623 623 0 0 0-39.454-22.911c19.553-9.053 38.748-16.499 57.077-22.164 5.441 20.129 9.61 42.081 12.401 65.236M181.633 83.614c17.246-42.973 40.189-67.62 62.951-67.62s45.705 24.647 62.95 67.62c2.693 6.711 5.203 13.758 7.537 21.088-22.607 6.973-46.394 16.513-70.488 28.301-24.094-11.788-47.88-21.326-70.488-28.301 2.333-7.33 4.844-14.377 7.538-21.088m-12.029 36.369c18.329 5.665 37.525 13.112 57.077 22.164a622 622 0 0 0-39.454 22.911 630 630 0 0 0-30.024 20.161c2.791-23.155 6.96-45.107 12.401-65.236M65.193 217.285c-27.149-37.511-35.755-70.065-23.613-89.317 10.842-17.19 35.543-20.798 54.357-20.798 17.417 0 37.142 2.928 58.292 8.438-6.821 25.207-11.709 53.11-14.483 82.565-19.317 14.886-36.972 30.426-52.483 46.19-8.166-9.028-15.56-18.082-22.07-27.078m72.908 74.864c-14.496-11.785-27.862-23.908-39.87-36.148 12.007-12.242 25.374-24.364 39.87-36.149a630 630 0 0 0-1.036 36.149c0 12.203.352 24.272 1.036 36.148M95.934 404.83c-18.813 0-43.514-3.608-54.356-20.798-12.142-19.252-3.535-51.806 23.613-89.317 6.512-8.996 13.904-18.051 22.068-27.079 15.512 15.765 33.166 31.303 52.483 46.19 2.773 29.455 7.662 57.358 14.483 82.566-21.148 5.51-40.874 8.438-58.291 8.438m61.27-78.05a630 630 0 0 0 30.024 20.161 623 623 0 0 0 39.454 22.911c-19.553 9.053-38.749 16.499-57.078 22.164-5.441-20.129-9.61-42.081-12.4-65.236m150.329 101.606c-17.245 42.973-40.188 67.62-62.95 67.62s-45.705-24.647-62.951-67.62c-2.693-6.711-5.204-13.758-7.537-21.089 22.608-6.973 46.394-16.513 70.488-28.301 24.093 11.788 47.88 21.326 70.487 28.3-2.332 7.331-4.843 14.378-7.537 21.09m12.029-36.371c-18.329-5.665-37.524-13.112-57.077-22.163a622 622 0 0 0 39.453-22.911 630 630 0 0 0 30.024-20.161c-2.791 23.155-6.96 45.106-12.4 65.235m-26.155-58.603c-16.218 10.229-32.587 19.502-48.823 27.741-16.237-8.239-32.606-17.512-48.824-27.741a608 608 0 0 1-40.711-28.028c-1.313-16.067-1.99-32.591-1.99-49.385s.677-33.317 1.99-49.385a607 607 0 0 1 40.711-28.029c16.218-10.229 32.587-19.502 48.824-27.741 16.236 8.239 32.605 17.512 48.824 27.741a607 607 0 0 1 40.71 28.028c1.313 16.067 1.99 32.591 1.99 49.385s-.677 33.317-1.99 49.385a608 608 0 0 1-40.711 28.029m154.18 50.62c-10.842 17.189-35.536 20.798-54.348 20.798h-.007c-17.418-.001-37.143-2.93-58.292-8.439 6.821-25.207 11.709-53.109 14.483-82.564 19.317-14.886 36.972-30.426 52.483-46.19 8.164 9.028 15.557 18.083 22.068 27.079 27.148 37.509 35.754 70.063 23.613 89.316" style="fill:#26150c"/><circle cx="244.579" cy="255.998" r="59.732" style="fill:#66e6ff"/><path d="M244.584 323.727c-37.345 0-67.729-30.383-67.729-67.729s30.383-67.728 67.729-67.728 67.728 30.382 67.728 67.728-30.384 67.729-67.728 67.729m0-119.461c-28.527 0-51.735 23.208-51.735 51.734s23.208 51.735 51.735 51.735c28.526 0 51.734-23.208 51.734-51.735-.002-28.526-23.209-51.734-51.734-51.734" style="fill:#26150c"/><circle cx="454.355" cy="123.697" r="29.5" style="fill:#ffca66"/><path d="M454.351 161.199c-20.677 0-37.497-16.82-37.497-37.497s16.82-37.498 37.497-37.498 37.497 16.821 37.497 37.498-16.82 37.497-37.497 37.497m0-59.001c-11.857 0-21.503 9.646-21.503 21.504 0 11.857 9.646 21.503 21.503 21.503s21.503-9.646 21.503-21.503c0-11.858-9.646-21.504-21.503-21.504" style="fill:#26150c"/><circle cx="57.653" cy="220.929" r="29.5" style="fill:#ff8095"/><path d="M210.172 255.999c0-29.347 21.171-53.733 49.068-58.763a60 60 0 0 0-10.663-.968c-32.989 0-59.731 26.743-59.731 59.731s26.743 59.731 59.731 59.731c3.641 0 7.2-.343 10.663-.968-27.898-5.029-49.068-29.415-49.068-58.763M450.17 123.702c0-12.532 7.817-23.231 18.838-27.505a29.4 29.4 0 0 0-10.663-1.995c-16.292 0-29.5 13.208-29.5 29.5s13.208 29.5 29.5 29.5c3.762 0 7.355-.711 10.663-1.995-11.02-4.275-18.838-14.974-18.838-27.505M53.469 220.933c0-12.532 7.817-23.23 18.838-27.505a29.4 29.4 0 0 0-10.663-1.995c-16.292 0-29.5 13.208-29.5 29.5s13.208 29.5 29.5 29.5c3.762 0 7.355-.711 10.663-1.995-11.021-4.274-18.838-14.973-18.838-27.505" style="opacity:.15;fill:#293133"/><path d="M57.649 258.431c-20.677 0-37.497-16.82-37.497-37.497s16.82-37.497 37.497-37.497 37.498 16.82 37.498 37.497-16.821 37.497-37.498 37.497m0-59.001c-11.857 0-21.503 9.646-21.503 21.503s9.646 21.503 21.503 21.503c11.858 0 21.504-9.646 21.504-21.503s-9.645-21.503-21.504-21.503" style="fill:#26150c"/></svg>