<svg xmlns="http://www.w3.org/2000/svg" xml:space="preserve" width="80.082" height="54.045" viewBox="0.459 0.457 80.082 54.045"><title>Slice 1</title><g fill-rule="evenodd"><path fill="#fff2bb" fill-rule="nonzero" d="M72.1 37.823c3.22-6.215 1.269-12.045-3.256-16.346-7.182-3.613-17.188-5.914-28.344-5.914-21.545 0-39.081 8.504-39.081 18.984S18.955 53.542 40.5 53.542c1.353 0 2.681 0 3.998-.096 9.755-2.132 22.91-6.601 27.602-15.623"/><path fill="#fff" fill-rule="nonzero" d="M79.581 34.547c0-5.06-4.082-9.637-10.773-13.07 4.525 4.325 6.476 10.13 3.256 16.346-4.692 9.022-17.847 13.49-27.602 15.659 19.738-1.012 35.12-9.118 35.12-18.935"/><path fill="none" stroke="#5e154d" stroke-linecap="round" stroke-linejoin="round" stroke-width=".96" d="M68.844 21.477c-7.182-3.613-17.188-5.914-28.344-5.914-21.545 0-39.081 8.504-39.081 18.984S18.955 53.542 40.5 53.542c1.353 0 2.681 0 3.998-.096 19.702-.976 35.083-9.058 35.083-18.9 0-5.058-4.082-9.66-10.737-13.069"/><path fill="none" stroke="#efdc8f" stroke-linecap="round" stroke-linejoin="round" stroke-width="1.92" d="M24.94 48.495c.945.217 1.915.422 2.932.578M9.02 41.123a37.8 37.8 0 0 0 11.97 6.252"/><path fill="#5e154d" fill-rule="nonzero" stroke="#5e154d" stroke-linecap="round" stroke-linejoin="round" stroke-width=".96" d="M40.5 34.547c-12.113 0-19.774-3.807-23.353-6.168-.694 3.747-1.065 6.348-1.065 6.348a21.7 21.7 0 0 0 8.27 4.975c5.196 1.723 9.122 2.253 16.148 2.253s10.952-.506 16.147-2.229a21.7 21.7 0 0 0 8.271-4.999s-.37-2.601-1.041-6.348c-3.58 2.361-11.24 6.156-23.377 6.168"/><path fill="#fff" fill-rule="nonzero" d="M34.922 24.573C48.52 27.5 55.81 3.216 55.81 3.216 53.104.11 49.417 1.566 47 4.132 45.289 5.999 43.027 6.42 40.5 6.42s-4.788-.422-6.5-2.29a8.37 8.37 0 0 0-4.38-2.601c-2.047 7.902-4.202 20.995 5.302 23.043"/><path fill="#fff2bb" fill-rule="nonzero" d="M53.667 1.71c-1.868 8.926-7.59 24.995-18.745 22.176-9.432-2.409-7.074-13.141-5.302-22.392a4.59 4.59 0 0 0-4.43 1.686c-3.59 4.096-6.224 15.43-7.72 23.332-.131.639-.24 1.205-.347 1.831 3.591 2.41 11.24 6.155 23.353 6.168 12.113 0 19.774-3.807 23.353-6.168-.108-.59-.215-1.204-.335-1.83-.252-1.603-4.465-23.537-9.827-24.802"/><path fill="none" stroke="#5e154d" stroke-linecap="round" stroke-linejoin="round" stroke-width=".96" d="M63.542 26.548c-.324-1.638-.683-3.42-1.09-5.251-1.568-7.035-3.83-14.84-6.643-18.069s-6.392-1.65-8.81.916C45.289 5.999 43.027 6.42 40.5 6.42S35.712 6 34 4.133a8.37 8.37 0 0 0-4.38-2.602 4.59 4.59 0 0 0-4.43 1.686c-3.59 4.096-6.224 15.43-7.72 23.332a54 54 0 0 0-.347 1.831c3.591 2.41 11.24 6.156 23.353 6.168 12.113 0 19.774-3.807 23.353-6.168a22 22 0 0 0-.287-1.83"/></g></svg>