<svg xmlns="http://www.w3.org/2000/svg" xml:space="preserve" width="183.065" height="191.834" viewBox="0.4 -0.492 183.065 191.834"><title>Slice 1</title><g fill-rule="evenodd"><path fill="#fcccba" d="M42.1 70.2c-7.8-3.3-12.7-6.5-20.2-2.3S7.5 79 6.2 89.1c0 0 1.6-3.6 4.9-6.5 0 0-3.7 8.6-3.3 15.3.7 9.9-1 26.4-6.9 27.4 0 0 4.9.7 6.9-3.3 0 0-5.9 16.3 4.9 20.2 0 0-1.6-6.5 1-11.1 0 0 .7 5.2 2.3 7.2 0 0-.3-3.9 2.3-8.5s7.5-17.9 6.5-26.8c0 0 2.6 7.2 1.3 12.7 0 0 3.6-5.5 0-19.9S29.4 71 37.8 73.6z"/><path fill="#e0a0a0" d="M6.2 89.1s.1-.7.3-2c.3-1.3.7-3 1.6-5.1.9-2 2-4.3 3.8-6.5 1.7-2.2 3.8-4.3 6.3-5.9 1.2-.8 2.5-1.5 3.8-2.2.7-.3 1.3-.6 2-.9s1.3-.5 2-.7c1.4-.3 2.7-.3 4-.2s2.4.4 3.5.7c2.1.6 3.8 1.5 4.9 2.1.5.3 1 .6 1.2.8.3.2.4.3.4.3s-.2-.1-.4-.3c-.3-.2-.7-.4-1.3-.8-.6-.3-1.3-.6-2.1-1-.8-.3-1.8-.6-2.8-.9-1.1-.3-2.2-.5-3.5-.6-1.2-.1-2.6 0-3.8.3-.3.1-.7.2-1 .3s-.6.3-1 .4c-.7.3-1.3.6-1.9.9-1.3.6-2.5 1.3-3.7 2.2-1.2.8-2.3 1.7-3.4 2.7-1 1-2 2-2.8 3.1-1.7 2.1-3 4.3-3.9 6.3s-1.5 3.7-1.8 5-.4 2-.4 2"/><path fill="#e0a0a0" d="M38.6 71.3s-1.2-.6-3.1-1.1c-.5-.1-1-.3-1.5-.4s-1.1-.2-1.7-.3-1.2-.1-1.9-.1c-.6 0-1.3 0-1.9.1l-1 .1c-.3.1-.6.1-.9.2q-.9.15-1.8.6c-.6.2-1.1.5-1.6.7s-.9.5-1.3.8-.8.5-1.1.8-.6.5-.8.7c-.4.4-.7.6-.7.6s.2-.2.6-.7c.2-.2.4-.5.7-.8s.7-.6 1-.9c.4-.3.8-.7 1.3-.9.5-.3 1-.6 1.6-.8s1.2-.5 1.8-.6c.3-.1.6-.2 1-.2l1-.1c.7-.1 1.3-.1 2-.1s1.3.1 1.9.2c1.2.2 2.4.5 3.3.9.9.3 1.7.7 2.2 1 .6.1.9.3.9.3"/><path fill="#e0a0a0" d="M33.4 71.4s-.5 0-1.3.1c-.4.1-.9.1-1.4.3-.6.1-1.1.4-1.8.6-.3.2-.6.3-1 .5-.3.2-.6.4-1 .6-.2.1-.3.2-.5.3-.1.1-.3.3-.5.4-.3.3-.6.5-.9.9-.5.7-1.2 1.3-1.6 2.1-.2.4-.5.8-.7 1.2l-.6 1.3c-.4.8-.6 1.7-.9 2.6s-.4 1.8-.6 2.6c-.1.4-.2.8-.3 1.3-.1.4-.1.8-.1 1.2-.1.8-.2 1.5-.3 2.2s-.1 1.3-.1 1.9 0 1.1-.1 1.5c0 .8-.1 1.3-.1 1.3s0-.5-.1-1.3c0-.4 0-.9-.1-1.5 0-.6-.1-1.2 0-1.9 0-.7.1-1.5.1-2.3 0-.4 0-.8.1-1.2s.1-.8.2-1.3c.2-.9.3-1.8.6-2.7s.5-1.8.9-2.7l.6-1.3c.2-.4.5-.8.7-1.2.5-.8 1.1-1.5 1.7-2.2.3-.3.7-.6 1-.9.2-.1.3-.3.5-.4s.4-.2.5-.3c.4-.2.7-.5 1-.6.4-.2.7-.3 1-.5.7-.2 1.3-.4 1.9-.5s1.1-.1 1.5-.2c1.3 0 1.7.1 1.7.1"/><path fill="#e0a0a0" d="M34.6 73.5s-.8 0-2 .5c-1.2.4-2.8 1.4-4.1 3.2-.6.9-1.2 1.9-1.6 3.1s-.7 2.5-.8 3.8c-.3 2.7-.4 5.7-.1 8.6.2 2.9.8 5.8 1.3 8.6.5 2.7.9 5.3.8 7.6-.1 2.2-.6 4.1-1.1 5.3-.2.6-.4 1.1-.6 1.4s-.2.5-.2.5.1-.2.2-.5.3-.8.5-1.4.4-1.4.6-2.3q.3-1.35.3-3c0-2.2-.4-4.7-1-7.5-.5-2.7-1.1-5.6-1.4-8.6s-.2-6 .2-8.7c.3-2.8 1.3-5.3 2.7-7.1.7-.9 1.5-1.6 2.3-2.1s1.5-.8 2.1-1c1.2-.5 1.9-.4 1.9-.4M24.8 103.2s.1.4.1 1c0 .7.1 1.6.1 2.8 0 1.1-.1 2.5-.2 3.9-.1.7-.2 1.4-.3 2.2-.1.7-.3 1.5-.4 2.2-.2.7-.4 1.5-.5 2.2l-.6 2.1c-.2.7-.5 1.3-.7 1.9s-.5 1.2-.7 1.7c-.4 1.1-.9 1.9-1.1 2.5-.3.6-.5.9-.5.9s.1-.4.4-1c.1-.3.3-.7.4-1.1.2-.4.3-.9.5-1.5.2-.5.4-1.1.6-1.7s.4-1.3.6-2l.6-2.1c.2-.7.3-1.5.5-2.2.1-.7.3-1.5.4-2.2s.3-1.5.3-2.2c.2-1.4.4-2.7.4-3.8.1-1.1.1-2.1.1-2.7zM12.7 142.3s-.4-.1-1-.3c-.3-.1-.7-.3-1-.5q-.6-.3-1.2-.9c-.4-.4-.9-.8-1.2-1.3-.4-.5-.7-1.1-1.1-1.7-.3-.6-.6-1.3-.8-2-.1-.4-.2-.7-.3-1.1l-.1-1c-.1-.7-.1-1.5-.1-2.2s.1-1.4.1-2.1c.1-.7.1-1.3.3-1.9.1-.6.3-1.2.4-1.7s.3-1 .4-1.4.3-.8.4-1.1l.3-.9s-.1.4-.2 1c-.1.3-.2.7-.3 1.1s-.2.9-.3 1.4-.2 1.1-.3 1.7-.1 1.3-.2 1.9c-.1.7-.1 1.4-.1 2.1s0 1.4.1 2.1l.1 1.1c.1.3.2.7.3 1 .1.7.4 1.3.7 1.9s.6 1.2 1 1.6c.3.5.7.9 1.1 1.3.4.3.8.7 1.1.9.3.3.7.4 1 .6.6.3.9.4.9.4M1 125.4h.3c.2 0 .4-.1.7-.3.1-.1.3-.2.4-.3s.3-.3.5-.4q.45-.45.9-1.2c.3-.4.6-1 .9-1.5.2-.6.5-1.2.7-1.8.2-.7.5-1.3.6-2 .2-.7.4-1.4.5-2.1s.3-1.4.4-2.2l.3-2.1c.2-1.4.3-2.7.5-3.8.2-2.2.4-3.7.4-3.7v3.7c0 .6-.1 1.2-.1 1.8s-.1 1.3-.2 2l-.3 2.1c-.1.7-.3 1.5-.4 2.2s-.3 1.5-.5 2.2-.4 1.4-.7 2.1c-.2.7-.6 1.3-.8 1.9-.3.6-.6 1.1-1 1.5-.3.5-.7.8-1 1.1-.2.1-.4.3-.5.4-.2.1-.3.2-.5.3-.3.1-.6.2-.7.2-.3-.1-.4-.1-.4-.1"/><path fill="#dce2ef" d="M80.9 95.2s-.8 25.2-13.3 34.1-13.6 18.9-13.3 27c.2 5 .8 20.1 5.3 21.6 5 1.6 3.5 8.5 3.5 8.5-2.7.8-6.2 1-9 .2 0 0 .4-5-1.6-5.5-2-.6-3-3.5-2.9-6.2s-3.5-15.7-4.8-19.8-5.5-11.7-2.4-16.1c3.1-4.3 10.6-16.3 8.2-23.9S35.3 78.3 53.1 74s29.7 2.5 27.8 21.2"/><path fill="#bcc4d4" d="M54 186.5c2.7.8 6.2.7 9-.2 0 0 .7-2.2-.3-5-3.1.8-7 1-9.2 1 .8 2 .5 4.2.5 4.2"/><path fill="#dce2ef" d="M52.4 180.9s1.3 2.6.3 4.7c0 0 1.4-.5 1.7-2 0 0 .4 1.8 1.8 1.8 0 0-.4-1.7.3-2.5 0 0 .8 2.1 2 2.1 0 0-.6-2.3-.1-3.1 0 0 2 1.3 2 3.1 0 0 .9-1.3.4-2.4 0 0 1.7.6 1.7 1.8 0 0 .6-1.8-.6-3.2 0 0 1.2 1.9 3.2 1.1 0 0-2.1-.6-3.2-2.9M151.2 20.6s-1-5.7 7.2-11.4c5.1-3.6 5.6-9.2 7.5-7.9s3.6 18-5.9 21.8c-5.6 2.2-8.2 2.2-8.8-2.5"/><path fill="#bcc4d4" d="M165.2 3.8s.1 1.2 0 3c-.1.9-.1 2-.3 3.1s-.4 2.3-.8 3.5c-.2.6-.4 1.1-.6 1.7-.3.5-.5 1.1-.8 1.6-.1.2-.3.5-.4.7-.2.2-.3.4-.5.6-.3.4-.7.8-1 1.1-.4.3-.7.6-1.1.7s-.6.3-.9.3c-.5.1-.8.1-.8.1s.3-.1.8-.3c.3 0 .5-.3.8-.4s.6-.5.9-.7c.3-.3.6-.7.9-1.1s.6-.9.8-1.4c.3-.5.5-1 .7-1.5.2-.6.4-1.1.6-1.7.4-1.1.6-2.3.8-3.4.1-.5.2-1.1.3-1.6s.2-1 .2-1.4q.15-1.35.3-2.1c0-.5.1-.8.1-.8"/><path fill="#dce2ef" d="M137.4 123.4c.1-.4 6.9-18.7 2.7-24.2-6.2-8-18.5-6.8-22.7-3.3s-2.9 12.5-.8 18c1 2.7 1.1 4.4 2 7.7s1.2 9.6 1.8 13.8c.8 5.7-.1 9.7-1.1 11.3s-2 5.4-.8 8.7c.8 2.1 4.3 8.2 2.8 19-.4 2.6 1.6 5.4 2.7 6.4 1.5 1.5 1.7 4.8 1.7 4.8 1.5 1.6 8.9.6 8.9.6.2-4.3.3-6.1-2-7.6-3.2-2.2-3.8-5.5-3.7-6.8.1-3.3.2-9 2-14.1 1.6-4.5 2-10.9 2.1-13 0-3.1 1.7-9 4.4-21.3"/><path fill="#bcc4d4" d="M125.6 185.9c1.5 2 9 .4 9 .4.7-6.7-2.4-6.3-3-7.7-1.9 2.6-4.7 3.1-6.6 3.4.3 1.2.6 3.9.6 3.9"/><path fill="#dce2ef" d="M124.4 181.5s1.6 3.3.3 4.2c0 0 1.9-.4 2.1-2.8 0 0-.4 2.3 1.3 2.5 0 0-.2-1.9.1-4.1 0 0 .3 3.6 3.2 3.6 0 0-1-.8-1.1-2.6 0 0 1.3.9 2.9 1 0 0-.7-1.1-1.4-2.4 0 0 2 2 3.8 2 0 0 0-1.3-1.1-2.2 0 0 .4.6 1.2-.6 0 0-2.9-.3-4.3-2.2"/><path fill="#eff4f9" d="M142.2 21.5s-21.3 19.4-30.9 39.7 25 30.3 30.8 23.1c5.7-7.2 12-25.9 11-35.9S149 18 142.2 21.5"/><path fill="#eff4f9" d="M173 30.6c1.4 4.8 13.4 18.9 9 26.1-3.2 5.3-7.2 3.6-14.5.3-.6-.3-4.7-.2-8.5-1.1-20.6-4.8-23-12.4-23.1-22.7s8.2-18.7 18.5-18.7S170 20.2 173 30.6"/><ellipse cx="30.1" cy="22.1" fill="#9098a4" rx="1.3" ry="2.7" transform="rotate(-.345 2425.69 -22420.332)"/><path fill="#d4dbe7" d="M179.1 55.2c-.7-.6-.3-2.5 1.1-1.3 1.3 1.2.2 2.4-1.1 1.3"/><path fill="#9098a4" d="M165 34.5s.1-.2.4-.4c.2-.2.5-.4.8-.7.3-.2.5-.4.8-.6.2-.2.4-.3.4-.3s0 .2-.1.5-.3.7-.7.9c-.3.3-.7.4-1 .5-.4.2-.6.1-.6.1"/><path fill="#bcc4d4" d="M178.9 53.7s0 .2.1.5c0 .3.1.6.3.7.1.2.4.3.6.5l.4.2s-.2.1-.5.1c-.2 0-.3 0-.5-.1s-.4-.2-.5-.4c-.3-.4-.2-.9-.1-1.2 0-.2.2-.3.2-.3M178.2 60s-.5-.2-1.2-.5-1.7-.8-2.6-1.2c-.9-.5-1.8-1-2.5-1.3-.3-.2-.6-.4-.8-.4-.2-.1-.3-.2-.3-.2s.5.1 1.3.3 1.7.6 2.7 1.1c.9.5 1.8 1 2.5 1.5.5.4.9.7.9.7"/><path fill="#d4dbe7" d="M159.1 56s-1-.1-2.5-.4c-.7-.1-1.6-.3-2.5-.5s-1.9-.5-2.8-.8c-1-.3-1.9-.7-2.7-1.1-.9-.4-1.6-.9-2.2-1.3-.3-.2-.6-.4-.8-.6s-.4-.4-.6-.5l-.5-.5s.2.1.6.4q.6.3 1.5.9c.6.4 1.4.7 2.3 1.1.8.4 1.8.7 2.7 1s1.9.6 2.8.8 1.7.5 2.4.7c1.3.5 2.3.8 2.3.8"/><path fill="#eff4f9" d="M144.8 75.5c4.8 9.8 5.9 21.5 2.2 30.8-7.6 19.4-39.4 19.6-61.8 11-9.4-3.6-18.8-.6-40.2-3.6-12.6-1.6-21-17.7-14.3-33.4s24.1-21.6 37.9-14.6c16.5 8.4 42.6-.3 48.7-3.8 5.6-3.2 22.6 3.9 27.5 13.6"/><path fill="#eff4f9" d="M145.7 78s2.9 8.2 5.4 8.8c0 0-2.5-.1-3.2-1.9 0 0 3.4 3.1 3.4 5.7 0 0-.6-1.5-1.6-1.5 0 0 2.6 4-.6 6.9"/><path fill="#d4dbe7" d="M85.2 117.4s.8.3 2.2.7c1.4.5 3.4 1 5.8 1.7q1.8.45 3.9.9c1.4.3 2.9.6 4.4.8 1.5.3 3.2.4 4.8.7 1.6.1 3.3.3 5 .3.8 0 1.7.1 2.5.1s1.7 0 2.5-.1h1.2c.4 0 .8-.1 1.2-.1.8-.1 1.6-.1 2.4-.2 1.6-.2 3-.5 4.5-.7 1.4-.3 2.7-.7 3.9-.9 1.2-.4 2.3-.8 3.3-1.1.5-.1.9-.3 1.3-.5s.8-.3 1.1-.5c1.3-.6 2.1-.9 2.1-.9s-.8.4-2.1 1c-.3.2-.7.3-1.1.5s-.8.4-1.3.6c-1 .4-2 .8-3.2 1.2-1.2.3-2.5.7-3.9 1.1-1.4.3-2.9.6-4.5.8-.8.1-1.6.2-2.4.2-.4 0-.8.1-1.2.1h-1.2c-.8 0-1.7.1-2.5.1s-1.7 0-2.5-.1c-1.7 0-3.4-.3-5-.4-1.6-.2-3.3-.4-4.8-.7-.8-.1-1.5-.3-2.3-.4-.7-.2-1.5-.3-2.2-.5-1.4-.3-2.7-.7-3.9-1-2.4-.7-4.4-1.4-5.8-1.9s-2.2-.8-2.2-.8M148.7 92.2s.4.9.6 2.2c.1.7.2 1.5.2 2.4s0 1.8-.1 2.7c0 .5-.2.9-.2 1.4-.1.5-.2.9-.3 1.3s-.3.8-.4 1.2-.3.7-.4 1c-.3.6-.6 1.1-.8 1.5-.2.3-.3.5-.3.5s.1-.2.2-.6c.1-.2.2-.4.3-.7l.3-.9c.1-.3.2-.7.3-1l.3-1.2c.1-.4.2-.8.3-1.3.1-.4.2-.9.2-1.3.1-.9.2-1.8.2-2.6v-2.3c-.2-1.4-.4-2.3-.4-2.3"/><path fill="#d4dbe7" d="M149.1 96s.4-.3.7-1c.2-.3.3-.7.4-1.1.1-.2.1-.4.1-.6s.1-.4 0-.7v-.7c0-.2 0-.4-.1-.7-.1-.4-.2-.8-.2-1.2-.1-.3-.2-.6-.2-.8-.1-.2-.1-.3-.1-.3s.1.1.2.3.3.4.5.8c.2.3.3.7.5 1.2.1.4.2.9.2 1.5q0 .75-.3 1.5c-.2.4-.4.8-.7 1.1-.6.5-1 .7-1 .7M151.3 90.6s-.1-.3-.3-.7c-.1-.4-.4-.9-.6-1.4s-.5-1-.7-1.3c-.1-.2-.2-.3-.3-.5-.1-.1-.1-.2-.1-.2s.3.1.6.4c.4.3.7.8 1 1.3s.4 1.1.4 1.6c.1.5 0 .8 0 .8M151.2 86.8s-.4-.2-1-.6c-.5-.4-1.2-1-1.7-1.8-.3-.4-.5-.8-.7-1.1-.2-.4-.3-.7-.4-1.1-.1-.3-.1-.6-.2-.8v-.3s.1.1.2.3.2.4.4.7c.3.6.8 1.3 1.3 2s1 1.4 1.5 1.9c.3.5.6.8.6.8M68.6 65.8s.5.2 1.5.5c.9.3 2.3.7 3.9 1.2.8.2 1.7.5 2.7.7.9.2 2 .4 3 .6 1 .1 2.1.3 3.2.3.6.1 1.1 0 1.7.1h1.7c1.1 0 2.3-.1 3.4-.1 1.1-.1 2.2-.2 3.3-.4 2.1-.3 4.1-.6 5.8-.9s3.1-.5 4.1-.7l1.5-.3s-.6.1-1.5.4c-1 .2-2.3.6-4 1s-3.6.8-5.8 1.1c-1.1.2-2.2.3-3.3.4s-2.3.2-3.4.2h-1.7c-.6 0-1.1 0-1.7-.1-1.1-.1-2.2-.2-3.3-.4s-2.1-.4-3-.7c-1-.2-1.8-.5-2.7-.8-1.6-.5-3-1.1-3.9-1.4-1-.5-1.5-.7-1.5-.7M31.6 135.5s.3-.6.7-1.5c.4-1 1-2.4 1.7-4.1.6-1.7 1.3-3.8 1.6-6 .2-1.1.2-2.3-.2-3.4s-.8-2.3-1.2-3.5c-.8-2.3-1.5-4.6-2.2-6.8s-1.2-4.3-1.7-6c-.2-.9-.4-1.7-.5-2.4s-.3-1.4-.3-1.9c-.1-.5-.1-1-.1-1.2v-.4.4c0 .3.1.7.2 1.2.2 1.1.6 2.5 1.1 4.3s1.2 3.8 1.9 6 1.5 4.5 2.3 6.8c.4 1.2.8 2.3 1.1 3.5.4 1.2.3 2.5.1 3.6-.4 2.3-1.1 4.3-1.8 6s-1.4 3.1-1.9 4c-.5.8-.8 1.4-.8 1.4"/><path fill="#eff4f9" d="M65.8 99.1s-.8 25.2-13.3 34.1-13.6 18.9-13.3 27c.2 5 .8 20.1 5.3 21.6 5 1.6 3.4 8.3 3.4 8.3-2.7.8-6.2 1-9 .2 0 0 .5-4.8-1.6-5.4-2-.6-3.5-4.2-3.1-6.9s-3.2-15-4.5-19.2c-1.3-4.1-5.5-11.7-2.4-16.1 3.1-4.3 10.6-16.3 8.2-23.9S20.2 82.3 38 77.9c17.8-4.3 29.6 2.6 27.8 21.2"/><path fill="#bcc4d4" d="M38.8 190.3c2.7.8 6.2.7 9-.2 0 0 .7-2.1-.2-4.9-3.1.8-7 1-9.2 1 .8 2 .4 4.1.4 4.1"/><path fill="#eff4f9" d="M37.2 184.8s1.3 2.6.3 4.7c0 0 1.4-.5 1.7-2 0 0 .4 1.8 1.8 1.8 0 0-.4-1.7.3-2.5 0 0 .8 2.1 2 2.1 0 0-.6-2.3-.1-3.1 0 0 2 1.3 2 3.1 0 0 .9-1.3.4-2.4 0 0 1.7.6 1.7 1.8 0 0 .6-1.8-.6-3.2 0 0 1.2 1.9 3.2 1.1 0 0-2.1-.6-3.2-2.9"/><path fill="#d4dbe7" d="M40.8 147.4s.4-.8.9-2.2c.6-1.4 1.5-3.5 3.2-5.5.8-1 1.8-2.1 3-3.1 1.1-1 2.4-2 3.7-3s2.6-2.1 3.8-3.4 2.3-2.6 3.2-4.1c.5-.7.9-1.5 1.3-2.3s.7-1.6 1.1-2.4l.9-2.4c.2-.8.5-1.6.7-2.4.4-1.6.8-3.1 1.1-4.6.4-1.5.6-2.9.8-4.2q.3-1.95.6-3.6c.2-1.1.3-2 .4-2.8.2-1.5.3-2.4.3-2.4s-.1.9-.2 2.4c-.1.8-.1 1.7-.3 2.8-.1 1.1-.2 2.3-.5 3.6-.2 1.3-.4 2.7-.7 4.2-.2.7-.3 1.5-.5 2.3l-.6 2.4c-.2.8-.5 1.6-.7 2.4l-.9 2.4c-.3.8-.7 1.6-1.1 2.4s-.8 1.6-1.3 2.3c-.9 1.5-2.1 2.9-3.3 4.2s-2.6 2.4-3.9 3.4-2.6 1.9-3.7 2.9q-1.65 1.5-3 3c-1.7 2-2.7 4-3.4 5.4-.5 1.5-.9 2.3-.9 2.3M34.2 177.8s0-.4-.1-1-.3-1.5-.5-2.5-.6-2.2-.9-3.5-.7-2.7-1.1-4c-.3-1.4-.7-2.8-1.1-4-.4-1.3-.7-2.5-1-3.5s-.6-1.9-.7-2.5l-.3-.9s.7 1.3 1.4 3.3c.4 1 .8 2.2 1.2 3.5s.8 2.7 1.2 4c.4 1.4.7 2.8 1 4.1s.5 2.5.7 3.6.2 2 .3 2.6v.7c-.1 0-.1.1-.1.1"/><path fill="#eff4f9" d="M125.2 126.3c.1-.4 6.9-18.7 2.7-24.2-6.2-8-18.5-6.8-22.7-3.3-4.2 3.4-2.9 12.5-.8 18 1 2.7 1.1 4.4 2 7.7s1.2 9.6 1.8 13.8c.8 5.7-.1 9.7-1.1 11.3s-2 5.4-.8 8.7c.8 2.1 4.1 7.5 2.6 18.3-.4 2.6 1.8 6.1 2.9 7.2 1.5 1.5 1.7 4.7 1.7 4.7 1.5 1.6 8.9.6 8.9.6.2-4.3.2-5.9-2.1-7.4-3.2-2.2-3.8-5.5-3.7-6.8.1-3.3.2-9 2-14.1 1.6-4.5 2-10.9 2.1-13 0-3.2 1.7-9.2 4.5-21.5"/><path fill="#bcc4d4" d="M113.4 188.7c1.5 2 9 .4 9 .4 1-7.2-2.4-6.1-3.1-7.5-1.9 2.6-4.7 3.1-6.6 3.4.3 1.2.7 3.7.7 3.7"/><path fill="#eff4f9" d="M112.2 184.5s1.6 3.3.3 4.2c0 0 1.9-.4 2.1-2.8 0 0-.4 2.3 1.3 2.5 0 0-.2-1.9.1-4.1 0 0 .3 3.6 3.2 3.6 0 0-1-.8-1.1-2.6 0 0 1.3.9 2.9 1 0 0-.7-1.1-1.4-2.4 0 0 2 2 3.8 2 0 0 0-1.3-1.1-2.2 0 0 .4.6 1.2-.6 0 0-2.9-.3-4.3-2.2"/><path fill="#d4dbe7" d="M106.7 159.5s.1.3.3.7.5 1.1.8 1.9c.2.4.3.8.5 1.3s.3 1 .4 1.5c.3 1 .4 2.2.6 3.3.1 1.1.1 2.3.1 3.3 0 .5 0 1-.1 1.5 0 .5-.1.9-.1 1.4-.1.8-.2 1.5-.3 2s-.2.8-.2.8v-.8c0-.5.1-1.2.1-2v-2.9c0-1-.1-2.2-.2-3.3s-.3-2.2-.5-3.2-.4-2-.7-2.8c-.4-1.7-.7-2.7-.7-2.7M108.4 143.5l-.5-5c-.1-1.5-.4-3.2-.6-5.1s-.5-3.8-.9-5.8c-.3-2-.7-3.9-1.1-5.7s-.8-3.5-1.2-5c-.7-2.9-1.3-4.8-1.3-4.8s.7 1.9 1.6 4.7c.4 1.4.9 3.1 1.4 4.9.4 1.8.8 3.8 1.2 5.8.3 2 .6 4 .8 5.8.2 1.9.3 3.6.4 5.1.2 3.1.2 5.1.2 5.1M120.7 145.9s.2-2 .9-5.1c.3-1.5.7-3.3 1.1-5.2.5-1.9.9-3.9 1.4-5.9s1.1-4 1.5-5.8c.5-1.9 1-3.6 1.4-5.1s.8-2.7 1.1-3.6.5-1.3.5-1.3-.5 2-1.2 5c-.4 1.5-.8 3.2-1.3 5.1s-1 3.9-1.5 5.9c-1 4-2 8-2.8 11q-.6 2.25-.9 3.6c-.1.9-.2 1.4-.2 1.4"/><path fill="#fcccba" d="M160.1 13.2s6.9-.1 10.3 4.8 6.6 4.2 6.6 4.2-4.4 1.5-6.2-.6c0 0 4.9 3.5 4.5 8.1l-2.4-3s2.5 4.5.4 6.4c0 0-1.4-5.7-4-7.8 0 0 1 2.9 1 3.9 0 0-7.3-2.3-8.5-8.4s-4.8-5-4.8-5-.6-2.2 3.1-2.6"/><path fill="#e0a0a0" d="M170.3 29.3s-.6-.1-1.5-.4c-.4-.2-.9-.4-1.4-.6l-1.5-.9c-.5-.4-1-.8-1.4-1.2s-.7-.8-1-1.2c-.2-.4-.4-.7-.5-1-.1-.2-.1-.4-.1-.4l.3.3c.1.2.4.5.7.8.1.2.3.3.5.5s.4.3.6.5c.4.4.9.7 1.4 1.1 1 .7 2 1.3 2.8 1.7.6.5 1.1.8 1.1.8M169.3 25.4s.5.3 1.1.9c.3.3.6.7.9 1.1s.6.9.8 1.4.5 1 .6 1.5c.2.5.3 1 .4 1.4s.1.8.1 1v.4s-.1-.1-.2-.4c-.1-.2-.2-.5-.4-.9s-.3-.8-.5-1.3-.4-1-.7-1.4c-.5-1-1-1.9-1.4-2.6-.3-.6-.7-1.1-.7-1.1M175.2 29.8s0-.7-.2-1.6c-.1-.5-.2-1-.5-1.6-.1-.3-.2-.5-.4-.8-.1-.3-.3-.5-.5-.8-.3-.5-.7-1-1.1-1.5l-.6-.6c-.2-.2-.4-.4-.6-.5-.4-.3-.7-.6-.9-.7-.2-.2-.4-.3-.4-.3l.4.2c.3.1.7.3 1.1.6s.9.6 1.4 1l.7.7c.2.3.4.5.6.8.3.6.7 1.2.8 1.8.2.6.3 1.2.3 1.7.2.9-.1 1.6-.1 1.6M177 22.3s-.2.1-.6.1-.9 0-1.5-.1-1.3-.5-2-.9c-.3-.2-.7-.5-.9-.8-.3-.3-.6-.6-.8-.9-1.1-1.3-2-2.7-2.8-3.6-.4-.4-.9-.7-1.2-.9s-.5-.2-.5-.2h.1c.1 0 .2 0 .4.1.4.1.9.3 1.4.7 1 .8 2 2.2 3.1 3.4.3.3.5.7.8.9.3.3.5.6.8.8l.9.6c.3.2.6.3.9.4.6.2 1.1.3 1.4.4z"/><path fill="#eff4f9" d="M162 17.6c-1.6-.8.1-2.9 2.1-2.7 0 0-.2-1.8 2.4-2.6 0 0 .8-2.5 2.4-2.5 0 0 0-1.8 2.4-2.2 0 0 .4-1.4 2.3-1.7 0 0 1.4-1.5 2.6-1.7.9-.1-1.1 2.1-1.1 2.1s-.5 2-1.6 2c0 0 .4 1.3-2 2.4 0 0 .3 1.6-2.3 2.4 0 0 1.1.9-1.9 2.8 0 0-.3 2.9-2.4 2.5-2-.6-2.7-.7-2.9-.8"/><path fill="#fcccba" d="M161.6 14.7s4 3.6 6.8 4.8c0 0-4.8 1.3-7.1-1.6-.5-.9-1.5-1.1.3-3.2"/><path fill="#e0a0a0" d="M161.1 14.7s.5.2 1.1.5 1.5.8 2.2 1.3c.8.6 1.5 1.2 1.9 1.8.5.6.7 1 .7 1l-.2-.2c-.2-.1-.4-.3-.7-.5-.6-.4-1.3-1-2.1-1.5s-1.5-1.1-2.1-1.6c-.4-.5-.8-.8-.8-.8"/><path fill="#eff4f9" d="M143.1 19.5s-1-5.7 7.2-11.4c5.1-3.6 5.6-9.2 7.5-7.9s3.6 18-5.9 21.8c-5.6 2.2-8.1 2.2-8.8-2.5"/><path fill="#d4dbe7" d="M157.1 2.7s.1 1.2 0 3c-.1.9-.1 2-.3 3.1s-.4 2.3-.8 3.5c-.2.6-.4 1.1-.6 1.7-.3.5-.5 1.1-.8 1.6-.1.2-.3.5-.4.7-.2.2-.3.4-.5.6-.3.4-.7.8-1 1.1-.4.3-.7.6-1.1.7s-.6.3-.9.3c-.5.1-.8.1-.8.1s.3-.1.8-.3c.3 0 .5-.3.8-.4s.6-.5.9-.7c.3-.3.6-.7.9-1.1s.6-.9.8-1.4c.3-.5.5-1 .7-1.5.2-.6.4-1.1.6-1.7.4-1.1.6-2.3.8-3.4.1-.5.2-1.1.3-1.6s.2-1 .2-1.4q.15-1.35.3-2.1c.1-.5.1-.8.1-.8"/><path fill="#fcccba" d="M143.2 18.9s.2 11.6-4 17.3c0 0 0-4.5-1.2-7.5 0 0 .9 7.8-2.4 12.9S134 52.7 134 52.7s-3.9-3.9-3.9-7.8c0 0-1.5 7.5 1.5 11.4 0 0-5.4-2.1-5.7-5.4 0 0 1.5 8.1-1.8 12s-6.9 9-3.6 12.3c0 0-6.9-3.3-4.5-11.4 0 0-3.6 3.9-2.4 8.1 0 0-8.7-6-.3-16.8 0 0 6.3-14.4 12.6-17.7 0 0 13.4-23.2 17.3-18.5"/><path fill="#e0a0a0" d="M113.6 72s-.2-.2-.6-.5l-.7-.7c-.2-.3-.5-.6-.8-.9-.3-.4-.5-.8-.8-1.2s-.5-.9-.7-1.5c-.2-.5-.4-1.1-.5-1.7s-.2-1.2-.2-1.8.1-1.2.2-1.8.3-1.1.5-1.7c.2-.5.5-1 .7-1.5s.5-.9.8-1.2c.2-.4.5-.7.7-1s.4-.5.6-.7c.3-.4.5-.6.5-.6s-.2.2-.4.7c-.1.2-.3.5-.5.8s-.4.6-.6 1-.5.8-.7 1.2l-.6 1.5c-.1.5-.3 1.1-.4 1.6 0 .6-.2 1.1-.1 1.7 0 .6 0 1.1.1 1.7s.3 1.1.4 1.6c.2.5.4 1 .6 1.4.2.5.4.9.7 1.2.2.4.5.7.7 1s.4.5.6.7c.3.5.5.7.5.7M116 63.9s-.1.2-.1.6c-.1.4-.1.9-.2 1.5v1c0 .4.1.7.1 1.1.1.4.1.8.2 1.2l.1.6.2.6c.1.4.3.7.5 1.1s.4.7.6 1 .5.6.7.8c.2.3.5.5.7.7l.6.6c.2.2.4.3.5.4.3.2.5.4.5.4s-.2-.1-.5-.3l-.6-.3c-.2-.1-.5-.3-.7-.5s-.6-.4-.8-.6c-.3-.3-.6-.5-.8-.8s-.5-.6-.7-1l-.6-1.2-.2-.6-.1-.6c-.1-.4-.1-.8-.2-1.2v-1.2c0-.4.1-.7.1-1 .3-1.6.7-2.3.7-2.3M125.9 50.9s0 .1.1.3.2.5.4.8.5.6.8.9.7.6 1.1.9c.8.6 1.6 1.2 2.2 1.7.6.4 1 .8 1 .8s-.5-.2-1.2-.5c-.3-.2-.8-.4-1.2-.6s-.8-.5-1.3-.9c-.4-.3-.8-.7-1.1-1.1s-.6-.8-.7-1.1c-.2-.4-.2-.7-.3-.9.2-.1.2-.3.2-.3M134 52.7s-.5-.3-1.1-.9c-.3-.3-.7-.7-1-1.1s-.7-.9-.9-1.4c-.3-.5-.5-1-.7-1.6-.1-.3-.2-.5-.2-.8 0-.2-.1-.5-.1-.7v-1c0-.2.1-.4.1-.4s0 .1.1.4c0 .2.1.6.2 1 0 .2.1.4.2.6s.2.5.3.7.2.5.3.7.2.5.4.7c.5 1 1.2 1.9 1.7 2.5.4.9.7 1.3.7 1.3M139.2 36.2s.1-.2.4-.7c.2-.4.5-1.1.8-1.9s.6-1.7 1-2.7c.2-.5.3-1 .5-1.5.1-.5.3-1.1.4-1.6s.2-1.1.3-1.6.2-1.1.2-1.6c.1-.5.1-1 .2-1.5s.1-.9.1-1.4c.1-.8.1-1.5.1-2v-.8s0 .3.1.8c0 .5.1 1.2.1 2.1v1.4c0 .5 0 1-.1 1.5s-.1 1.1-.2 1.6c-.1.6-.2 1.1-.3 1.7s-.3 1.1-.4 1.6c-.2.5-.3 1.1-.5 1.6-.3 1-.8 1.9-1.2 2.7-.8 1.4-1.5 2.3-1.5 2.3M126 40.7l-.2-.2c-.1-.2-.2-.4-.2-.7v-.5c0-.2 0-.4.1-.6 0-.5.2-.9.4-1.5.2-.5.4-1.1.7-1.7s.5-1.2.9-1.8c.3-.6.7-1.2 1.1-1.8l1.2-1.8c.8-1.2 1.8-2.3 2.6-3.4.9-1.1 1.7-2 2.5-2.9 1.5-1.6 2.5-2.7 2.5-2.7s-.9 1.2-2.3 2.9c-.7.9-1.4 1.9-2.3 3-.8 1.1-1.7 2.3-2.5 3.5-.4.6-.9 1.2-1.2 1.8-.4.6-.8 1.2-1.1 1.8-.4.6-.7 1.2-1 1.7s-.5 1.1-.8 1.6c-.2.5-.4 1-.5 1.4-.1.2-.1.4-.1.6v.5c0 .3.1.6.1.7.1 0 .1.1.1.1M116.7 48.5s.4-.8 1-2.1c.7-1.2 1.6-2.8 2.7-4.3.6-.7 1.1-1.5 1.7-2.1s1.2-1.2 1.7-1.6c.3-.2.5-.4.8-.5s.5-.3.7-.3c.4-.1.6-.2.6-.2s-.2.1-.5.3c-.2.1-.4.3-.6.4-.2.2-.4.4-.7.6-.5.5-1 1.1-1.6 1.7-.3.3-.5.7-.8 1s-.5.7-.8 1.1c-1.1 1.5-2.1 3-2.9 4.1-.8 1.2-1.3 1.9-1.3 1.9"/></g></svg>