<svg xmlns="http://www.w3.org/2000/svg" width="57.3" height="213.9" viewBox="0.4 -0.4 57.3 213.9"><path fill="#40b4e5" d="M.9.1h56.3V213H.9z"/><path fill="#79cef3" d="M11.1 11.1h7.8v16.1h-7.8zM40.3 11.1h7.8v16.1h-7.8zM20.8 29.4h7.8v16.1h-7.8zM20.8 83.5h7.8v16.1h-7.8zM9.7 83.5h7.8v16.1H9.7zM41.8 153.7h7.8v16.1h-7.8zM30.7 153.7h7.8v16.1h-7.8zM20.8 65.6h7.8v16.1h-7.8zM20.8 101.5h7.8v16.1h-7.8zM20.8 132.7h7.8v16.1h-7.8zM21.7 175.3h7.8v16.1h-7.8zM9.7 132.7h7.8v16.1H9.7zM9.4 175.2h7.8v16.1H9.4zM40.3 29.4h7.8v16.1h-7.8z"/></svg>