<svg xmlns="http://www.w3.org/2000/svg" xml:space="preserve" width="47.535" height="77.369" viewBox="11.597 10.797 47.535 77.369"><title>drum-highhat-a</title><g fill-rule="nonzero"><path fill="#010101" d="M12.607 22.928c0-.101 0-.152-.051-.152-.96-2.164-.354-3.975 1.263-5.586 1.415-1.409 3.184-2.365 5.004-3.12 2.78-1.158 5.66-1.761 8.642-2.214 2.375-.353 4.75-.504 7.125-.554 3.841-.05 7.631.252 11.422 1.057 2.375.503 4.7 1.107 6.923 2.164 1.062.503 2.072 1.057 2.982 1.812.708.553 1.264 1.207 1.82 1.912.91 1.258 1.06 2.567.657 3.976-.152.553-.203.956 0 1.51.454 1.358.252 2.667-.556 3.925-.96 1.46-2.325 2.466-3.841 3.271-1.718.957-3.588 1.61-5.509 2.114a41 41 0 0 1-6.014 1.208c-1.465.201-2.981.403-4.447.352-.253 0-.505 0-.758.151-.253.252-.152.654-.152 1.007-.202 3.372-.151 6.744-.151 10.115 0 3.07.05 6.19.05 9.26 0 2.668-.05 5.285-.05 7.952 0 2.416.05 4.832.05 7.197v8.304c0 .906.152 1.157 1.01 1.409 1.264.403 2.528.755 3.842 1.158s2.628.754 3.942 1.157c.758.252 1.465.352 2.223.453.758.1 1.415.352 2.072.654 1.062.453 1.264 1.56 1.163 2.416-.152.956-1.062 1.711-2.022 1.812-.455.05-.859 0-1.263-.202-.556-.302-1.061-.603-1.466-1.006-.253-.252-.505-.352-.808-.503-2.123-.806-4.195-1.661-6.368-2.265-.607-.151-1.264-.352-1.92-.503-1.264.553-2.578.352-3.841.05-.607-.151-1.112-.1-1.668.05-.708.252-1.415.353-2.072.554-1.92.553-3.79 1.308-5.66 2.063-.304.1-.556.252-.809.504a5.1 5.1 0 0 1-1.364.956c-.91.453-1.87.352-2.578-.252-.758-.654-1.061-1.862-.657-2.768a1.98 1.98 0 0 1 .91-.906c.91-.553 1.97-.755 2.981-.855.253 0 .455-.05.708-.1 1.87-.706 3.79-1.058 5.66-1.712.86-.302 1.719-.503 2.527-.755.91-.302 1.314-.805 1.314-1.761v-5.788c0-1.812-.05-3.623-.05-5.435V38.026c0-.906.05-1.863.1-2.769v-.654a70 70 0 0 1-3.385-.352c-3.285-.352-6.52-.956-9.653-2.114a20.8 20.8 0 0 1-4.7-2.415c-.809-.604-1.516-1.309-2.072-2.165-.86-1.308-1.062-2.667-.556-4.126-.101-.202 0-.353.05-.504M57.23 26.35c.455-.705.404-1.41.152-2.215-.202.151-.354.302-.506.453-1.111 1.057-2.425 1.862-3.79 2.517-1.617.805-3.335 1.358-5.104 1.811-3.285.906-6.62 1.309-10.007 1.46q-2.652.075-5.306 0c-1.264-.05-2.578-.1-3.841-.302-2.274-.302-4.548-.654-6.772-1.359-2.375-.704-4.75-1.56-6.823-3.02-.657-.453-1.213-1.056-1.87-1.61-.353.604-.404 1.157-.1 1.761q.075.68.454 1.208a10 10 0 0 0 2.375 2.215 19.3 19.3 0 0 0 4.094 2.013c3.639 1.258 7.379 1.962 11.22 2.164 1.667.1 3.385.1 5.104.1 2.325 0 4.599-.2 6.873-.553 2.123-.302 4.194-.755 6.216-1.46 2.072-.704 4.043-1.56 5.761-2.969.86-.503 1.617-1.208 1.87-2.214M35.096 12.258c-1.213.05-3.033 0-4.852.202-2.83.301-5.66.704-8.44 1.56-2.021.654-4.043 1.358-5.811 2.566-1.112.755-2.073 1.661-2.629 2.92-.353.805-.404 1.61-.1 2.465.353.906.96 1.56 1.617 2.215 1.617 1.409 3.487 2.315 5.508 2.969 3.083 1.057 6.317 1.711 9.552 2.013 3.083.302 6.115.352 9.198.1 2.476-.2 4.902-.503 7.277-1.056 2.274-.503 4.498-1.208 6.57-2.315 1.264-.654 2.476-1.41 3.386-2.517 1.516-1.761 1.415-3.573.101-5.133-.96-1.157-2.224-1.963-3.588-2.667-3.74-1.862-7.732-2.668-11.876-3.17-1.668-.101-3.437-.152-5.913-.152m-1.163 22.345c-.05.554-.202.956-.151 1.36.303 2.213-.101 4.478 0 6.693.1 2.667-.101 5.334 0 8.002.1 3.22-.101 6.492 0 9.713.05 1.761 0 3.573-.05 5.385-.102 2.717 0 5.435 0 8.153v3.975c0 .453-.051.856.15 1.258.86.252.86.252 1.669.202.151-.151.202-.352.202-.554 0-.503.05-1.057 0-1.56-.152-3.02-.05-6.04-.05-9.11 0-1.61-.051-3.22.1-4.78.101-1.158-.05-2.315-.05-3.473 0-1.761 0-3.523-.05-5.284-.051-1.66.05-3.372.05-5.033-.05-1.258-.05-2.566.05-3.825.05-1.056-.1-2.063 0-3.12.05-.805.101-1.61.05-2.365-.15-1.61 0-3.221 0-4.781 0-.252.102-.503-.15-.705-.557-.05-1.113-.1-1.77-.15m11.725 50.428c.455-.302.556-.705.657-1.057.05-.252-.05-.453-.303-.554-.152-.05-.303-.1-.455-.1-1.466-.403-2.931-.856-4.397-1.259-1.213-.352-2.426-.704-3.689-1.056-.152.704-.152.704.05 1.308a62 62 0 0 1 8.137 2.718M31.76 81.055c-.808.251-1.567.453-2.274.654s-1.364.503-2.072.604c-.758.151-1.466.403-2.173.654-.708.202-1.516.202-2.173.755.151.504.202 1.007.758 1.359 1.516-.654 3.083-1.208 4.65-1.711.909-.302 1.819-.604 2.779-.805.657-.151.758-.353.707-1.057 0-.151-.1-.252-.202-.453m1.466 1.46c1.112.15 2.173.251 3.234 0 .202-1.209.202-1.259-.252-2.165-.96.151-1.92-.15-2.881-.251-.505 1.358-.505 1.358-.101 2.415"/><path fill="#ffc941" d="M35.096 12.258c2.426 0 4.245.05 6.064.252 4.094.503 8.137 1.308 11.877 3.17 1.364.655 2.577 1.51 3.588 2.668 1.314 1.56 1.415 3.372-.101 5.133-.91 1.107-2.123 1.862-3.386 2.516-2.072 1.057-4.296 1.762-6.57 2.315-2.375.554-4.852.856-7.278 1.057-3.082.252-6.115.151-9.197-.1-3.285-.302-6.47-.906-9.552-2.013-1.971-.705-3.892-1.56-5.509-2.97-.707-.604-1.314-1.308-1.617-2.214-.303-.856-.253-1.66.101-2.466.556-1.258 1.516-2.164 2.628-2.92 1.769-1.207 3.79-1.962 5.812-2.566 2.729-.855 5.56-1.258 8.44-1.56 1.718-.302 3.537-.252 4.7-.302m-9.552 6.14c.354.252.607.201.86.05a29 29 0 0 0 1.667-1.006c1.112-.705 2.375-1.158 3.69-1.51.505 1.107 1.515 1.41 2.526 1.51.96.15 1.92.15 2.88-.1.759-.202 1.416-.403 1.618-1.158.708-.151 1.263 0 1.82.251a17.7 17.7 0 0 1 3.385 2.013c.405.302.455.302.96-.251-.202-.554-.657-.856-1.111-1.208-1.365-1.057-2.982-1.61-4.6-2.114-.403-.1-.757-.201-1.06-.604-.102-.553.151-1.308-.81-1.51-.454.05-.858.302-1.313.453-.606-.453-1.213-.251-1.769.101-.151-.1-.303-.15-.455-.252-.808-.352-1.263-.1-1.617.655-.152.302-.05.654-.303.906-.202.05-.455.15-.657.2-1.769.454-3.386 1.209-4.852 2.316-.455.352-.859.704-.859 1.258m2.123 1.308c.808.655.808.605 2.274 1.108 2.021.654 4.043.855 6.115.906.303 0 .657-.05.96 0 .708.1 1.365-.151 2.022-.302.505-.101 1.06-.302 1.364-.856-.303-.15-.556-.05-.758 0-.758.151-1.465.302-2.224.403-1.617.201-3.183-.302-4.8-.252-.102 0-.152-.05-.253-.05-1.264-.302-2.578-.554-3.79-1.057-.304-.1-.557-.151-.91.1"/><path fill="#cfe8e9" d="M33.933 34.603c.657.05 1.213.1 1.719.1.202.253.151.504.151.705 0 1.611-.151 3.171 0 4.782.05.754 0 1.61-.05 2.365-.05 1.057.1 2.063 0 3.12-.101 1.258-.05 2.517-.05 3.825.05 1.66-.051 3.372-.051 5.033.05 1.761 0 3.523.05 5.284 0 1.157.152 2.315.05 3.472-.15 1.611-.1 3.221-.1 4.782 0 3.02-.05 6.039.05 9.109 0 .503-.05 1.057 0 1.56 0 .201-.05.403-.202.553-.809.101-.809.101-1.668-.2-.202-.353-.151-.806-.151-1.259v-3.976c0-2.718-.101-5.435 0-8.153.05-1.811.1-3.573.05-5.385-.151-3.22.101-6.492 0-9.713-.1-2.667.101-5.334 0-8.002-.1-2.264.303-4.479 0-6.693 0-.302.152-.705.202-1.309"/><path fill="#fec841" d="M57.231 26.35c-.253 1.056-1.061 1.71-1.82 2.315-1.718 1.409-3.688 2.264-5.76 2.969a37 37 0 0 1-6.217 1.46c-2.274.301-4.548.553-6.873.553-1.718 0-3.386 0-5.104-.1-3.84-.252-7.58-.906-11.22-2.165-1.465-.503-2.83-1.157-4.093-2.013-.91-.604-1.668-1.358-2.375-2.214a2.5 2.5 0 0 1-.455-1.208c.05-.15 0-.302.202-.403.101.151.152.302.303.403.708.554 1.415 1.158 2.173 1.711 1.163.755 2.325 1.51 3.69 1.913 1.415.402 2.78.906 4.245 1.308.859.252 1.769.453 2.678.554.91.1 1.82.302 2.73.453.91.1 1.819.402 2.728.302 1.466-.101 2.932 0 4.448-.202 1.82-.201 3.689.05 5.508-.302.758-.15 1.567-.15 2.376-.352 1.87-.453 3.79-1.006 5.66-1.46.96-.251 1.82-.603 2.628-1.157.354-.252.758-.503 1.162-.604.91-.252 1.567-.755 2.224-1.359.303-.251.657-.453.96-.704.101-.05.152-.05.202.05-.05 0 0 .1 0 .252"/><path fill="#ed9b24" d="M57.231 26.35c-.05-.101-.05-.252-.05-.302-.101-.1-.152-.1-.203-.05-.303.251-.657.452-.96.704-.657.604-1.364 1.107-2.223 1.359-.405.1-.809.352-1.163.604-.808.553-1.667.906-2.628 1.157-1.87.453-3.79 1.007-5.66 1.46-.758.201-1.567.201-2.375.352-1.82.352-3.69.05-5.509.302-1.516.201-2.982.1-4.447.201-.96.05-1.82-.201-2.73-.302s-1.819-.302-2.728-.453c-.91-.1-1.82-.302-2.679-.553-1.415-.403-2.83-.906-4.245-1.309-1.364-.402-2.527-1.157-3.69-1.912-.757-.503-1.465-1.107-2.172-1.711-.101-.1-.202-.252-.303-.403-.152.1-.101.252-.203.403-.303-.554-.252-1.158.101-1.762.657.554 1.213 1.107 1.87 1.61 2.073 1.46 4.397 2.316 6.823 3.02 2.224.655 4.498 1.057 6.772 1.36 1.264.15 2.578.25 3.84.301q2.655.075 5.307 0c3.386-.15 6.722-.553 10.007-1.46a31 31 0 0 0 5.104-1.811c1.415-.654 2.679-1.46 3.79-2.516.152-.151.304-.252.506-.453.303.755.303 1.46-.152 2.164"/><path fill="#cbe4e5" d="M45.658 85.03c-2.678-1.157-5.357-2.012-8.086-2.767-.202-.654-.202-.654-.05-1.309 1.212.353 2.425.705 3.689 1.057 1.465.403 2.93.856 4.397 1.258.151.05.303.05.454.1.253.102.405.303.304.555-.152.452-.253.805-.708 1.107"/><path fill="#cae3e4" d="M31.76 81.055c.101.201.152.302.152.453.05.704-.101.906-.708 1.057-.96.201-1.87.553-2.78.805a58 58 0 0 0-4.649 1.711c-.505-.302-.606-.856-.758-1.359.657-.553 1.466-.553 2.173-.755s1.415-.503 2.173-.654c.708-.1 1.365-.403 2.073-.604a40 40 0 0 1 2.324-.654"/><path fill="#cce4e5" d="M33.226 82.514c-.354-1.056-.354-1.056.1-2.415.961.1 1.921.402 2.882.251.404.906.404.957.252 2.164-1.061.202-2.122.101-3.234 0"/><path fill="#020201" d="M25.544 18.398c.05-.604.404-.906.809-1.208a13.5 13.5 0 0 1 4.851-2.315c.253-.05.455-.15.657-.201.303-.252.202-.604.303-.906.354-.755.81-1.007 1.618-.654.151.05.303.15.455.251.555-.302 1.162-.553 1.768-.1.455-.151.86-.453 1.314-.453.96.201.708.956.809 1.51.303.352.708.453 1.061.604 1.617.503 3.235 1.056 4.6 2.113.454.352.909.705 1.111 1.208-.505.554-.556.554-.96.252-1.061-.805-2.173-1.51-3.386-2.013-.556-.252-1.112-.403-1.82-.252-.202.755-.859 1.006-1.617 1.157-.96.252-1.92.252-2.88.101-1.011-.15-1.971-.453-2.527-1.51-1.314.353-2.527.806-3.69 1.51-.555.352-1.111.654-1.667 1.007-.203.1-.506.201-.809-.101m9.147-3.674c-.556.05-.91-.503-1.516-.654.354.755.86.906 1.516.906q.834.15 1.668 0c.202-.05.354-.202.152-.504-.506.504-.86.05-1.163-.2-.303.2-.505.301-.657.452m2.628 1.158c-1.415.201-2.83.05-4.346-.151.303.352.607.503.91.553.505.101 1.061.101 1.516.302.86.202 1.415-.201 1.92-.704"/><path fill="#eb9d28" d="M27.667 19.707c.353-.252.606-.202.91-.101 1.212.503 2.526.755 3.79 1.057.1 0 .151.05.252.05 1.618-.05 3.184.453 4.801.252.758-.1 1.466-.252 2.224-.403.253-.05.455-.1.758 0-.303.503-.859.705-1.364.856-.657.15-1.314.402-2.022.302-.303-.05-.657 0-.96 0-2.072-.05-4.144-.252-6.115-.906-1.466-.453-1.516-.403-2.274-1.108"/><path fill="#9eb1b2" d="M37.32 15.882c-.506.553-1.062.906-1.87.654-.506-.151-1.011-.201-1.517-.302-.303-.05-.606-.201-.91-.554 1.466.252 2.881.403 4.296.202"/><path fill="#a4b7b8" d="M34.691 14.724c.203-.15.354-.252.607-.453.354.252.707.705 1.162.201.152.303.05.454-.151.504q-.834.15-1.668 0c0-.1 0-.151.05-.252"/><path fill="#525c5c" d="M34.691 14.724v.252c-.606 0-1.162-.1-1.516-.906.607.15.91.704 1.516.654"/></g></svg>