<svg xmlns="http://www.w3.org/2000/svg" xml:space="preserve" width="108.569" height="138.57" viewBox="-0.023 -0.006 108.569 138.57"><title>Slice 1</title><g fill-rule="evenodd"><path fill="#a0640a" d="M104.653 62.953c-.607-.605 3.138-2.216 2.834-2.82-.202-.504-3.644 1.41-4.048.906-.405-.504 3.036-2.115 2.935-2.417-.203-.403-1.518.403-4.352 1.208-1.013.303-3.24 1.108-4.454 1.31-1.518.302-3.137.302-4.757.201.102.101-8.198-1.41-10.627-2.216-1.417-.503-6.174-3.021-10.323-4.734v12.59c3.947.907 13.46 2.922 22.064 1.512 7.085-1.209 13.866-5.842 14.068-6.346.506-1.209-2.733 1.41-3.34.806"/><path fill="#be0a3c" d="M62.043 48.851s-8.198-4.029-11.133 3.324S60.93 65.17 60.93 65.17c2.834 1.41 13.866 4.935 13.866 4.935s3.643-14.403 3.643-14.705c-.81-.403-16.497-6.648-16.396-6.548"/><path fill="#824600" d="M98.783 63.255c-1.72-.1-2.126-1.813-2.126-1.813s4.454-4.13 4.96-3.727-.405 1.511-1.114 2.82c1.822 1.21 0 2.82-1.72 2.72M9.514 78.162c-2.227-.604.91-9.367 1.417-10.173.405.907-.405 9.67-1.417 10.173"/><path fill="#a0640a" d="M19.939 46.535c-3.745 2.115-6.883 5.137-9.21 8.662C6.275 61.946 0 77.66.505 78.364s1.62-3.727 2.935-3.223c1.316.503-1.315 4.734-.607 5.338s2.733-4.734 3.34-4.331-1.518 4.13-1.113 4.432c.404.302 6.78-10.98 10.526-15.31 1.72-2.015 4.959-5.842 7.186-7.353 2.834-1.914 6.983-3.123 10.627-2.518l2.429-12.591c-3.644-.504-12.854 1.914-15.89 3.727"/><path fill="#f01446" d="M40.89 41.7c-7.591-.604-10.324.403-10.324.403l.81 14.202s6.477.302 12.145 2.72c0 0 9.11 4.33 14.575-1.713s2.328-9.468 2.328-9.468c-.203 0-11.943-5.54-19.534-6.144"/><path fill="#824600" d="M34.615 99.214c-.911 5.137-2.53 12.389-2.632 13.295l12.044.303c.81-1.21 5.263-10.274 7.085-13.598z"/><path d="M24.493 136.28c0 .202-.1.403-.1.605l.505 1.108c2.126.1 12.45.201 13.057-.504l-.608-1.108c-2.227-.403-2.935-.604-6.376-1.108v-.1z"/><path fill="#f01446" d="m32.691 132.554 4.859-7.857c2.53-4.029 7.793-13.094 7.995-13.497-4.655.1-9.311 0-13.866.201-2.226 8.26-5.263 16.52-7.186 24.88l6.478-1.108c.81-1.41 1.012-1.41 1.72-2.62"/><path fill="#f5cfcf" d="m43.926 115.028-13.562-.202.506-2.014 14.473-.202zM41.497 119.56l-12.348-.806.709-2.115 13.056.504z"/><path d="M49.594 105.157s9.311-17.627 9.615-20.246l-22.773.604c-1.113 2.216-1.214 5.238-1.822 7.555-1.012 4.029-2.327 7.957-3.846 11.784z"/><path fill="#a0640a" d="M76.415 83.3c-1.417-.404-12.348-.907-12.348-.907l.203 12.792c2.429.705 9.514-.302 11.841-1.108.405-2.015.203-9.065.304-10.778"/><path d="M32.388 78.565c6.073 0 37.246 2.418 37.246 2.418L68.419 96.09s-18.623.303-22.772 0c-8.603-.705-16.397-8.36-13.26-17.526M99.593 76.651l-.709.101c-.202 2.216-1.113 7.353-1.113 7.353l1.62 6.346 1.517-.302.102-.706c0-.1-.608-12.086-1.418-12.792"/><path fill="#f01446" d="m74.897 82.292-.81 13.296L99.29 90.45l-1.518-6.346z"/><path fill="#f5cfcf" d="m77.73 95.084.81-12.893-2.125-.1-1.417 13.698zM81.982 94.178l.506-11.685-2.126-.201-1.012 12.59z"/><path fill="#f01446" d="M70.039 65.27c.202-8.562-5.06-19.037-14.777-18.232-3.24.303-7.186 1.21-9.818 3.123-.303.201-5.263 6.043-6.275 7.655-7.895 12.59-9.21 26.591-9.21 26.591l38.258-3.525c0 .1 1.72-11.08 1.822-15.612"/><path fill="#824600" d="M69.128 33.642s5.87 1.612 7.49-3.928c1.619-5.54-6.478-3.928-7.49-1.209-.608 1.31 0 5.137 0 5.137"/><path fill="#a0640a" d="M71.456 14.303c-.506-.705-9.514-2.619-9.514-2.619L42.205 22.462a69 69 0 0 0 1.822 6.547c2.328 5.439 6.275 11.382 10.425 12.691 2.227.705 10.83 1.612 15.182-2.921 2.53-2.72 5.06-8.058 4.96-14 0-4.231-2.43-9.67-3.138-10.476"/><path d="m40.181 9.77.607-.403c-.91-2.417-2.935-6.244 1.013-7.05 2.429-.504 5.971 2.216 6.68 4.432.404.201.404.201.81-.101-.304-1.813-1.114-4.13.404-5.54 4.555-2.619 6.781 3.828 9.413 6.446l.607-.1c.506-2.015-.91-4.835 2.125-4.936 2.025 0 2.936 1.712 3.948 3.022 2.429 3.122 5.87 8.763 5.87 8.763s0 3.525-5.263 4.432c-2.631.503-7.186-2.216-14.17.503-6.983 2.72-6.882 12.188-6.882 12.188s-7.59-14.101-8.502-16.116c-.708-1.51-2.631-5.943-1.012-7.252 1.215-1.007 3.34 1.108 4.352 1.712"/><path fill="#a0640a" d="M46.456 33.138s-5.87 1.612-7.49-3.928c-1.619-5.54 6.478-3.928 7.49-1.209.506 1.31 0 5.137 0 5.137"/><path d="M57.387 31.728c3.036.302 5.77 1.41 8.603 2.62-1.417 4.733-11.437 1.711-8.603-2.62"/><path fill="#824600" d="M62.853 30.217c-1.721-3.021 4.858-5.74 5.667-1.309.608 3.425-3.643 1.813-5.667 1.31"/><path d="m57.185 27.196-.405 1.007h-.709c-.202-1.209.709-3.022 1.114-1.007M72.367 29.714l-.608-.101-.202-1.41c.405-.403.405-.403.81-.302a2.78 2.78 0 0 1 0 1.813"/></g></svg>