<svg xmlns="http://www.w3.org/2000/svg" width="150.802" height="191.08" viewBox="-0.249 -0.083 150.802 191.08"><path fill="#281446" d="M37.514 88.289s9.848 11.251 27.938-3.334 1.045-32.023 1.045-32.023L36.902 67.969z"/><path fill="#dcaa78" d="m73.739 56.509-29.815-2.221c.27.509-5.208 16.325-4.932 16.84.202 0 2.005 9.578 16.854 15.528 8.269 3.317 16.651-1.345 18.713-11.301 2.062-9.957-.343-18.756-.82-18.846"/><path fill="#be8264" d="M57.115 57.735c.068.836 3.028 5.086 3.641 5.724a3.61 3.61 0 0 0 3.455.899c1.438-.407 3.061-1.373 3.37-2.65.27-1.102-.247-5.425-.758-6.459-1.23.028-8.393 1.548-9.708 2.486"/><path d="M55.404 65.782c-3.091 1.144-2.857 2.525.986 4.864.484-.248 1.303-.443 1.454-.763.752-1.576-.084-2.885-2.44-4.101"/><path fill="#a0640a" d="m51.537 61.934-3.343 15.619-9.635-17.004z"/><path fill="#281446" d="M36.393 56.079c.418 1.11-.16 1.901-.803 2.641-.499.563-1.198.955-1.528 1.68-.096.222-.506.326-.755.474-.72-.101-1.331-.542-1.608-1.162.177-2.679 2.428-4.033 4.694-3.633"/><path fill="#00a08c" d="M33.958 57.164a28.2 28.2 0 0 0-3.669 16.298c.049 1.429.215 2.852.495 4.255 2.118 8.629 7.893 11.471 8.033 11.64.281-.079 1.203-4.147 2.596-8.781z"/><path fill="#008264" d="M61.199 48.891s-5.713-3.469-18.219.809c-4.876 1.695-8.634 6.368-9.443 7.877-.804 5.6-1.534 12.37 7.865 23.016l.05.051a88 88 0 0 1 5.253-13.591c.848-1.695 2.961-4.52 5.315-7.43.129.033 9.179-10.732 9.179-10.732"/><path fill="#005a5a" d="M86.02 46.71c-.922-2.921-2.972-4.571-5.798-5.396-.787-.226-1.568-.486-2.365-.656a12.1 12.1 0 0 0-4.624.074c-3.685.638-6.921 2.311-10.022 4.328-2.304 1.503-4.135 3.521-6.073 5.431a40 40 0 0 0-5.995 7.634c-1.629 2.65-4.595 9.358-4.595 9.358s6.5-5.244 10.713-6.08c11.927-2.379 21.91 2.661 22.09 2.735.242-.198 5.725-7.657 6.641-11.172.915-3.515.477-4.849.028-6.256M65.02 142.402c2.646 2.826 19.101 26.65 19.663 26.277.241-.158 11.354-8.182 11.618-8.476-2.332-6.725-11.399-30.679-14.203-37.059z"/><path fill="#f01446" d="M111.486 180.026c-1.264 1.695-1.753 3.814-2.809 5.651-3.371-3.238-4.792-9.895-6.742-14.093-2.005-4.335-4.011-8.669-5.87-13.071q-.302.315-.596.639c.034.107.062.203.101.316-2.994 3.266-5.977 6.781-9.303 9.731q-.302.583-.663 1.13l.028.062c1.747.627 3.371 3.346 4.657 4.657 1.809 1.847 3.596 3.718 5.405 5.566 3.421 3.503 6.854 7.408 11.123 9.883 2.281-2.729 3.641-7.188 5.135-10.403z"/><path fill="#281446" d="m96.16 154.416-17.118 11.155c1.686 1.695 5.225 5.583 5.298 5.651s12.607-7.911 14.859-9.364c-1.005-2.469-2.067-4.939-3.039-7.442M99.57 162.819l-14.292 9.267q.894.849 1.753 1.696l13.399-8.686a59 59 0 0 0-.86-2.277M100.975 166.639l-12.792 8.301c.561.565 1.056 1.181 1.539 1.808l11.983-7.786a55 55 0 0 0-.73-2.323"/><path fill="#dcaa78" d="M91.711 85.328c2.337-16.472 7.399-43.89 7.017-43.986s-1.804 4.447-2.489 4.227c-.686-.221.68-5.725.14-5.917-.539-.192-2.73 5.549-3.371 5.323-.64-.226.388-5.826-.106-5.927-.495-.102-9.865 35.962-12.556 46.28z"/><path fill="#005a5a" d="m79.733 78.203-4.494 16.342 16.404 20.507c.298-4.125 1.523-32.21 1.523-32.21zM71.338 137.106l20.576-9.828 3.356 7.027-20.576 9.828z"/><path fill="#dcaa78" d="M72.093 94.178c-6.377-.119-14.927-.113-18.995 5.453l20.551 7.572s1.859-11.618 1.966-12.432a12.3 12.3 0 0 0-3.522-.593"/><path fill="#fff" d="M59.677 102.761s11.146-1.412 15.534-6.651l2.809 9.076-10.972 4.95z"/><path fill="#00a08c" d="M103.419 120.929c-4.663-7.476-7.304-11.251-12.281-16.195-4.708-4.668-9.422-8.228-15.888-10.172-1.427 2.825-4.59 10.172-4.59 10.172s-14.354-5.001-17.623-5.499c-.675.368 16.292 39.63 16.292 39.63z"/><path fill="#dcaa78" d="M29.126 36.883c-1.084.322-1.387.667-2.55 1.283 3.253 10.369 22.185 61.634 23.539 62.493.995.639 3.68-.565 5.152-.785s4.14-2.6 5.343-3.498c-1.085-2.741-30.972-59.312-31.484-59.493"/><path fill="#008264" d="M44.902 92.019q.008.25.073.492c1.606 3.554 18.14 48.196 18.14 48.196l20.348-8.476 3.09-6.103S56.823 85.865 56.711 85.69c-1.337.3-10.253 5.125-11.809 6.329"/><path fill="#281446" d="m59.688 139.775 43.694-20.87 2.394 5.012-43.694 20.87z"/><path fill="#005a5a" d="m63.921 136.737 4.363-2.084 3.276 6.859-4.363 2.083zM71.142 133.261l4.362-2.084 3.276 6.858-4.363 2.084zM97.752 120.506l4.364-2.084 3.275 6.859-4.363 2.084z"/><path fill="#ffc800" d="m79.195 129.519 7.325-3.5 3.008 6.298-7.325 3.5z"/><path fill="#005a5a" d="M137.671 110.305a71 71 0 0 1 7.708 3.278c1.775-6.267 1.759-13.365-1.623-18.755-4.776-7.618-17.826-15.077-33.023-1.741-10.112 8.861-26.281 43.659-26.281 43.659s-4.039 1.899-.691 3.142c2.146.796 17.854-5.301 25.629-13.235s12.276-26.327 20.012-28.085c8.488-1.938 8.983 5.346 8.269 11.737"/><path fill="#f00a78" d="M58.924 69.048c.495 10.008 11.438 17.145 21.135 16.128 15.837-1.65 17.472-14.551 15.365-23.734-2.185-9.505-11.135-12.647-19.663-12.161-10.545.605-16.612 9.488-16.837 19.767"/><path fill="#f04650" d="M78.43 62.278c.202 4.097 4.68 7.013 8.646 6.601 6.483-.678 7.152-5.956 6.286-9.709-.893-3.887-4.556-5.176-8.056-4.978-4.303.243-6.786 3.877-6.876 8.086M73.975 54.045c.078 1.594 1.82 2.729 3.371 2.571 2.522-.265 2.808-2.322 2.449-3.78-.36-1.458-1.775-2.012-3.135-1.938-1.691.096-2.652 1.508-2.685 3.147"/><path fill="#f01446" d="M136.576 106.649c-1.236 4.227-8.242 28.927-8.938 32.566 2 1.356 4.634 4.623 6.921 5.114-.41-1.429-1.685-2.181-2.77-3.051 2.141-3.509 14.607-29.95 15.989-30.809-.017-.017-10.539-3.373-11.202-3.82"/><path fill="#281446" d="m132.525 113.216-.623 1.65 12.741 5.244.736-1.656zM131.447 116.177l-.624 1.65 12.747 5.244.736-1.65z"/><path fill="#824600" d="M22.84 3.956c.05 1.073-5.545 23.485-6.073 24.411l15.371 9.149c-.068-.531 7.865-6.973 7.865-7.51 0-.294.196-16.726.219-17.099-.219-.147-2.809-2.628-3.045-2.769a75 75 0 0 0-2.354-1.198c-.798-.385-1.685-.763-2.5-1.13-.815-.368-1.522-.724-2.292-1.074-.517-.254-6.551-2.978-7.191-2.78"/><path fill="#642800" d="m24.233 26.135 15.843.582-1.545 6.216-15.068.972zM21.143 17.97l19.708 2.916.191-3.69-19.123-5.25z"/><path fill="#a0640a" d="M21.188.672C12.199-1.023 5.458 5.99 2.132 13.72-1.604 22.349.357 31.148 6.84 37.957a57.2 57.2 0 0 0 11.236 8.94c3.932 2.447 7.225 4.605 11.859 3.39 3.624-.955 7.866-3.543 10.006-7.385 3.051-5.482 7.438-32.374-1-31.12-1.157 1.074.691 7.996.635 9.742-.068 3.56-.607 7.216-3.568 9.409-7.37 1.842-10.915-9.222-10.713-14.613.112-3.029 2.292-6.018 2.247-8.94-.045-2.571-3.921-6.25-6.354-6.708"/><path fill="#824600" d="M40.756 33.255c.269-.259.41-.508.106-.887-1.825 0-3.691 0-5.55.102a16.5 16.5 0 0 0-4.461.989c-1.916.684-3.747 1.554-5.584 2.413a23.8 23.8 0 0 0-5.141 3.441 7.9 7.9 0 0 0-1.848 2.193c-.241.429-.562.83-.859 1.316l.477.566c.433-.37.769-.842.978-1.374a4.8 4.8 0 0 1 1.314-1.729 24 24 0 0 1 3.961-2.989 37.4 37.4 0 0 1 5.719-2.662c1.163-.373 2.331-.734 3.5-1.096a12.1 12.1 0 0 1 3.871-.35c1.033 0 2.067.079 3.101.107q.21 0 .416-.04"/><path fill="#281446" d="m135.435 103.592-2.281 7.832 13.102 5.346 3.797-8.024z"/></svg>