<svg xmlns="http://www.w3.org/2000/svg" width="213.736" height="141.068" viewBox="0.008 0.282 213.736 141.068"><path fill="#fcf6ec" d="m112.4 30.65 90.3-29.4c9.7-3.2 15 10.9 5.7 15l-65.3 28.5c-10.2 4.4-22.1.5-27.8-9.1z"/><path fill="#e1d9ca" d="m123.6 38.65-1 4.5c.2.1.3.2.5.3l1-4.7 7.1-2.3 5.6 5-1.1 5.1h.5l1-4.9 7.1-2.3 3.7 3.3.5-.2-3.9-3.5 1.6-7.4 7.1-2.3 5.6 5-.8 3.9.6-.2.8-3.6 7.2-2.3 1.8 1.7.5-.2-2-1.8 1.6-7.4 7.1-2.3 5.6 5-.3 1.1.6-.2.2-.9 7.4-2.4 1.6-7.6 7.2-2.3 4.6 4.1.5-.2-4.9-4.4 1.4-6.8 7.5-2.5v-.1l5.3 4.7-.9 4.1c.3-.4.6-.8.8-1.2l.7-3.1-5.6-5.1.6-2.8c-.2-.1-.3-.1-.5-.1l-.6 2.8-7.3 2.4-3.2-2.9-.9.3 3.7 3.3-1.5 7-7.1 2.3-5.5-4.9 1-4.6-.7.2-.9 4.2-7.2 2.3-3.1-2.9-.9.3 3.7 3.3-1.5 7-7.1 2.3-5.6-5 .9-4.5-12.3 4 3.4 3.1-1.6 7.4-7.1 2.3-5.5-4.9 1-4.6-.7.2-.9 4.2-7.1 2.3-3.2-2.9-.9.3 3.7 3.3-1.5 7-7.1 2.3-5.6-5 1-4.5-.6.2-.9 4.5zm53.9-24 7.5-2.4v-.1l5.3 4.7-1.6 7.4-7.1 2.3-5.6-5zm-22.2 6.8 7.1-2.3 5.6 5-1.5 7.4-7.1 2.3-5.6-5zm-22.3 7.8 7.5-2.5v-.1l5.2 4.7-1.6 7.4-7.1 2.3-5.6-5z"/><path fill="#758a72" d="m112.4 30.65 90.3-29.4c3.6-1.2 6.6.1 8.5 2.3l-96.3 31.4z"/><path fill="#1a252e" d="m199.7 7.15-.4.2-1.6-4.5.5-.2zM187.8 11.75l-.5.2-1.6-4.5.5-.2z"/><path fill="#fcf6ec" d="M102.9 29.85 10.3 9.25c-10-2.2-13.9 12.4-4.2 15.5l67.7 22.1c10.6 3.5 22.1-1.6 26.8-11.7z"/><path fill="#e1d9ca" d="m79.7 42.95 5.1-5.5 7.3 1.6 1.4 4.6c.1-.1.3-.2.4-.3l-1.4-4.4 5.3-5.8-1.4-4.5-.6-.1 1.4 4.5-5.1 5.5-7.3-1.6-2.1-6.8 3.5-3.8-1-.2-3 3.3-7.3-1.7-1.3-4.3-.7-.2 1.5 4.7-5 5.4-7.3-1.6-2.3-7.2 3.2-3.5-12.8-2.7 1.4 4.5-5.1 5.5-7.3-1.6-2.1-6.8 3.4-3.8-1-.2-3 3.3-7.3-1.6-1.3-4.2-.7-.2 1.5 4.6-5 5.4-7.3-1.6-2.1-6.8 3.4-3.8-1-.2-3 3.3-7.4-1.7-.9-2.7c-.1.1-.3.1-.4.2l.9 2.8-5.2 5.7.9 3 .9 1.2-1.3-4 4.8-5.2v.1l7.7 1.7 2.1 6.7-4.3 4.7.5.2 4.2-4.6 7.4 1.6 2.3 7.5 7.6 1.7.3.9.6.2-.4-1.2 5.1-5.6 7.3 1.6 2.3 7.2-1.8 2 .5.2 1.7-1.9 7.3 1.6 1.1 3.5.6.2-1.2-3.8 5.1-5.6 7.3 1.6 2.3 7.2-3.5 3.8.5.2 3.3-3.7 7.3 1.6 1.5 4.8h.5zm-46-10.5-7.3-1.6-2.3-7.2 4.8-5.2v.1l7.7 1.7 2.1 6.7zm22.8 5.1-7.3-1.6-2.3-7.2 5.1-5.5 7.3 1.6 2.3 7.2zm15.5 3.5-2.2-7.2 4.8-5.2v.1l7.7 1.7 2.1 6.7-5.1 5.5z"/><path fill="#758a72" d="M102.9 29.85 10.3 9.25c-3.7-.8-6.6.7-8.3 3.1l98.8 22z"/><path fill="#1a252e" d="m14.9 10.25.5.2-1.2 4.6-.5-.1zM28 13.25l.5.1-1.1 4.7-.5-.2z"/><path fill="#fbf4e9" d="M112.7 68.6V50.7l92.4-.1c8.7 0 9.9 12.5 1.4 14.2l-79.4 15.6c-3.5.7-7.2-.2-10-2.5s-4.4-5.7-4.4-9.3"/><path fill="#e1d9ca" d="M209.2 51.9c-.1-.1-.3-.2-.4-.3l-2.1 3.6h-7.5l-2.6-4.6h-.6l2.8 4.8-3.8 6.5h-7.5l-3.8-6.5 2.8-4.7h-.6l-2.6 4.6h-7.5l-2.6-4.6h-.6l2.8 4.8-3.7 6.5h-7.5l-3.8-6.5 2.8-4.8h-.7l-2.6 4.6h-7.5l-2.6-4.6h-.6l2.8 4.8-3.7 6.5h-7.5l-3.8-6.5 2.8-4.8h-.6l-2.7 4.5H129l-2-3.5-.5.1 2.2 3.8-3.7 6.5h-7.6l-3.8-6.5 1.1-1.9h-.6l-1 1.8 3.9 6.8-3.9 6.8 3.9 6.8-.7 1.2.4.4.8-1.3h7.5l2.4 4.3.5-.1v-.1l-2.5-4.3 3.8-6.5h7.5l3.8 6.5-1.3 2.2.7-.1 1.1-1.8h7.5l.1.2.5-.1-.2-.3 3.7-6.5h7.5l2.4 4.2.5-.1v-.1l-2.5-4.3 3.7-6.5h7.5l3.8 6.5-1.2 2.1.7-.1v-.1l1-1.7h7.5v.1l.5-.1v-.1l-.1-.2 3.7-6.5h7.5l2.3 4.1.5-.1-2.5-4.3 3.7-6.5h7.5l3.8 6.5-.3.5c.2-.3.5-.5.7-.8l-3.7-6.4zm-80.6 17.2-3.7 6.5h-7.5l-3.8-6.5 3.7-6.5h7.5zm11.7-6.8-3.7 6.5h-7.5l-3.8-6.5 3.7-6.5h7.5zm11.7 6.8-3.8 6.5h-7.5l-3.8-6.5 3.7-6.5h7.5zm11.7-6.8-3.7 6.5h-7.5l-3.8-6.5 3.7-6.5h7.5zm23.4 0-3.7 6.5h-7.5l-3.8-6.5 3.7-6.5h7.5z"/><path fill="#758a72" d="m205 50.6-92.3.1v5l99.2-.1c-.9-3-3.7-5.1-6.9-5"/><path fill="#1a252e" d="M197 50.6h.4v5h-.4zM182.1 50.7h.4v5h-.4z"/><path fill="#fbf4e9" d="m103.4 67.8-.3-17.9-92.3 1.4c-8.6.1-9.7 12.7-1.2 14.2l79.6 14.3c3.5.6 7.2-.3 9.9-2.7s4.3-5.7 4.3-9.3"/><path fill="#e1d9ca" d="m8.7 56.2-3.6 6.5c.2.3.4.6.7.8l-.3-.5 3.6-6.6 7.5-.1 3.9 6.5-2.4 4.3.5.1 2.3-4.1 7.6-.2 3.9 6.5-.1.2v.1l.5.1.1-.1 7.5-.1 1 1.7v.1l.7.1-1.3-2.1 3.6-6.6 7.5-.1 3.9 6.5-2.4 4.3v.1l.5.1 2.3-4.2 7.5-.1 3.9 6.5h-.3l.5.1.1-.2 7.5-.1 1.1 1.8.7.1-1.3-2.2 3.6-6.5 7.5-.1 3.8 6.5-2.4 4.4v.1l.5.1 2.4-4.3 7.5-.1.8 1.3.4-.4-.7-1.2 3.8-6.8-4-6.7 3.8-6.8-1.1-1.8-.7-.2 1.1 1.9-3.7 6.6-7.5.1-3.8-6.5 2.1-3.8-.5-.1-2 3.6-7.5.2-2.7-4.5H76l2.8 4.8-3.7 6.6-7.5.1-3.8-6.5 2.7-4.9h-.6l-2.4 4.6-7.5.1-2.7-4.5h-.6l2.8 4.8-3.7 6.6-7.5.1-3.8-6.5 2.7-4.8h-.6L40 55.5l-7.5.1-2.7-4.5h-.6l2.8 4.8-3.5 6.5-7.5.1-3.9-6.5 2.7-4.9h-.6l-2.6 4.6-7.4.2-2.1-3.5c-.2.1-.3.2-.5.3zM91.1 62l7.5-.1 3.8 6.5-3.6 6.5-7.5.1-3.8-6.4zm-11.8-6.6 7.5-.1 3.9 6.5-3.7 6.6-7.5.1-3.8-6.6zm-11.5 6.9 7.5-.1 3.9 6.5-3.7 6.6-7.5.1-3.9-6.5zM56 55.7l7.5-.1 3.8 6.5-3.6 6.6-7.5.1-3.8-6.5zm-23.4.4 7.5-.1 3.8 6.5-3.7 6.6-7.5.1-3.8-6.5z"/><path fill="#758a72" d="m10.8 51.3 92.3-1.4.1 5L4 56.4c.8-3 3.6-5.1 6.8-5.1"/><path fill="#1a252e" d="M18.9 56.2h-.4l-.1-5h.4zM33.8 56h-.4l-.1-5h.5z"/><path fill="#0c5a43" d="M108.1 41.55c-3.3 0-6 2.7-6 6v87.3c0 3.3 2.7 6 6 6 0 0 6-.3 6-6v-87.3c0-3.3-2.7-6-6-6"/><path fill="#5cbcc5" d="M102.1 123.05h12v11.5h-12z"/><path fill="#eee75a" d="M102.1 93.45h12v17.9h-12zM102.1 66.55h12v13.5h-12z"/><path fill="#1c252e" d="M108.3 6.35c1.3 0 2.4 1.1 2.4 2.4v13h-4.9v-13c0-.6.3-1.3.7-1.7.5-.5 1.1-.7 1.8-.7"/><path fill="#758a72" d="m108.2 16.85-2.5 3.6h5.1z"/><path fill="#fcf6ec" d="M104.4 9.75c.993 0 1.893.403 2.545 1.055A3.6 3.6 0 0 1 108 13.35c0 .993-.403 1.893-1.055 2.545a3.6 3.6 0 0 1-2.545 1.055 3.6 3.6 0 0 1-2.545-1.055 3.6 3.6 0 0 1-1.055-2.545c0-.993.403-1.893 1.055-2.545A3.6 3.6 0 0 1 104.4 9.75"/><path fill="#1c252e" d="M104.4 11.45c.524 0 .999.213 1.343.557a1.894 1.894 0 0 1 0 2.686 1.894 1.894 0 0 1-2.686 0 1.894 1.894 0 0 1 0-2.686 1.9 1.9 0 0 1 1.343-.557"/><path fill="#fcf6ec" d="M112 9.75c.993 0 1.893.403 2.545 1.055a3.6 3.6 0 0 1 1.055 2.545c0 .993-.403 1.893-1.055 2.545A3.6 3.6 0 0 1 112 16.95a3.6 3.6 0 0 1-2.545-1.055 3.6 3.6 0 0 1-1.055-2.545c0-.993.403-1.893 1.055-2.545A3.6 3.6 0 0 1 112 9.75"/><path fill="#1c252e" d="M112 11.45c.524 0 .999.213 1.343.557a1.894 1.894 0 0 1 0 2.686 1.894 1.894 0 0 1-2.686 0 1.894 1.894 0 0 1 0-2.686A1.9 1.9 0 0 1 112 11.45"/><path fill="#115c40" d="M108.2 34.85c2.787 0 5.312 1.132 7.14 2.96a10.07 10.07 0 0 1 2.96 7.14c0 2.787-1.132 5.312-2.96 7.14a10.07 10.07 0 0 1-7.14 2.96 10.07 10.07 0 0 1-7.14-2.96 10.07 10.07 0 0 1-2.96-7.14c0-2.787 1.132-5.312 2.96-7.14a10.07 10.07 0 0 1 7.14-2.96"/><path fill="#1c252e" d="M102.148 43.95a6.48 6.48 0 0 1 3.518-3.516 6.48 6.48 0 0 1 4.975 0 6.48 6.48 0 0 1 3.516 3.518 6.48 6.48 0 0 1 .002 4.974 6.48 6.48 0 0 1-3.519 3.516 6.48 6.48 0 0 1-4.974.003 6.48 6.48 0 0 1-3.517-3.52 6.48 6.48 0 0 1-.002-4.974"/><path fill="#008e77" d="m108.1 46.15-5 4.6h10z"/><path fill="#1c252e" d="M106.583 19.992c2.75-.446 5.424.267 7.522 1.778a10.07 10.07 0 0 1 4.066 6.574 10.07 10.07 0 0 1-1.778 7.521 10.07 10.07 0 0 1-6.574 4.066 10.07 10.07 0 0 1-7.522-1.778 10.07 10.07 0 0 1-4.066-6.573 10.07 10.07 0 0 1 1.779-7.522 10.07 10.07 0 0 1 6.573-4.066"/><path fill="#1c252e" d="M108.1 34.85c-5.2 0-9.6 4-10 9.3h20.1c-.5-5.3-4.8-9.3-10.1-9.3"/></svg>