<svg xmlns="http://www.w3.org/2000/svg" xml:space="preserve" width="56.269" height="47.222" viewBox="0.369 0.418 56.269 47.222"><title>Slice 1</title><g fill-rule="evenodd"><g fill-rule="nonzero"><path fill="#b5bfea" d="M3 19.395q-.538 1.2-.915 2.46H54.87q-.345-1.261-.87-2.46z"/><path fill="#afb3eb" d="M53.67 18.795a18.8 18.8 0 0 0-3.54-4.92H6.87a19.2 19.2 0 0 0-3.555 4.92l-.285.6H54c-.135-.195-.225-.405-.33-.6"/><path fill="#d2d8f7" d="M53.145 37.23H3.84a14.6 14.6 0 0 0 2.34 3h44.625a14.6 14.6 0 0 0 2.34-3"/><path fill="#e9edff" d="M6.18 40.17q.551.547 1.155 1.035h42.33q.597-.488 1.14-1.035z"/><path fill="#bdc5ef" d="M54.87 21.855H2.115a19.8 19.8 0 0 0 .705 13.41h51.345a19.64 19.64 0 0 0 .705-13.41"/><path fill="#c5cdef" d="M2.82 35.265q.443 1.017 1.02 1.965h49.305q.586-.943 1.02-1.965z"/></g><g fill="none" stroke="#fff" stroke-linecap="round" stroke-linejoin="round" stroke-width=".5" transform="translate(21 15)"><circle cx="1.995" cy="9.6" r="1.5"/><circle cx="5.19" cy="4.395" r="1.5"/><circle cx="11.1" cy="2.49" r="1.605"/></g><g fill="none" stroke="#fff" stroke-linecap="round" stroke-linejoin="round" stroke-width="1.8"><path d="M49.965 20.07a26 26 0 0 1 1.155 2.16M42.885 12.75c1.7.97 3.222 2.223 4.5 3.705a21 21 0 0 1 1.5 1.845"/></g><path fill="#9f509e" fill-rule="nonzero" d="M9.945 19.095c.795.39.6 1.32 0 2.28a3.63 3.63 0 0 0-.09 3.195c.352.851.57 1.752.645 2.67a8 8 0 0 1-.75 3.09 3.72 3.72 0 0 0-.465 2.85 6.1 6.1 0 0 1 .69 2.82c0 1.17-.615 1.71-.69 2.67.011.84.122 1.676.33 2.49H7.65a5.85 5.85 0 0 1-.375-2.685c.195-1.305.69-1.725.585-2.79s-.93-1.5-1.02-3a5.66 5.66 0 0 1 .78-3.3 3.78 3.78 0 0 0 .195-3.195 8.06 8.06 0 0 1-.585-4.005c.27-1.575 1.575-3.66 2.715-3.09M15.975 16.845c1.095.255 1.08 1.29.75 2.25a5.75 5.75 0 0 0 0 3.255 4.04 4.04 0 0 1-.225 3c-.645 1.305-1.05 1.35-1.185 2.625-.005.86.065 1.718.21 2.565a27 27 0 0 1-.63 3c-.195 1.245.66 2.745.735 4.155a6 6 0 0 1-.84 3.57h-2.28c.434-.916.709-1.9.81-2.91 0-1.26-.795-2.145-.81-3.78.12-1.223.352-2.433.69-3.615.12-1.2-.435-1.635-.285-3.105s1.185-2.25 1.5-3.585-.42-1.77-.495-3.615c-.135-1.65.57-4.155 2.055-3.81"/><path fill="#fdbb38" fill-rule="nonzero" d="M8.205 41.82c6 4.155 13.5 4.92 20.295 4.92s14.25-.765 20.28-4.92c.315-.21.6-.42.885-.645H7.335z"/><path fill="none" d="M8.205 41.82c6 4.155 13.5 4.92 20.295 4.92s14.25-.765 20.295-4.92l.87-.645H7.335z"/><path fill="#ffdb48" fill-rule="nonzero" stroke="#ffdb48" stroke-linecap="round" stroke-linejoin="round" stroke-width=".5" d="M32.565 45.48c-.18 0 .585-.795.75-.915a3.8 3.8 0 0 1 1.65 0c-.05.317-.145.626-.285.915-.7.12-1.415.12-2.115 0M31.365 43.695c-.165 0-.09-.975 0-1.05a3.6 3.6 0 0 1 1.32 0c-.023.323-.12.636-.285.915a4.5 4.5 0 0 1-1.035.135M34.5 42.75c0-.18 1.215-.42 1.29-.39s0 .81-.165.975-.72.21-.81.195a1.2 1.2 0 0 1-.315-.78M36.825 44.115c.09 0 .645 0 .63.165s-.39.825-.51.825-.27-.885-.12-.99M37.68 42.795c0-.15.735-.54.855-.51s.555.39.525.51c-.177.25-.414.451-.69.585-.21.12-.72-.375-.69-.585M39 43.86a3 3 0 0 1 1.14-.255 2.3 2.3 0 0 1-.705.975c-.135.03-.435-.57-.435-.72M40.665 42.465a1.4 1.4 0 0 1 .93 0s-.405.54-.465.585-.63-.45-.465-.585M43.5 42.51c.09 0 1.11-.375 1.155-.255s-.165.45-.45.57a1.6 1.6 0 0 1-.705.12c-.18-.015-.15-.375 0-.435M41.895 43.5c.135-.105.555-.33.615-.27a.74.74 0 0 1-.195.675c-.224.095-.462.15-.705.165 0 0 .105-.405.285-.57M45.675 42.285c0-.12.27-.255.375-.165s0 .435-.21.54-.27-.165-.165-.375M27.555 42.69a.96.96 0 0 1 .87-.15c.12.105.18 1.08 0 1.17a1.03 1.03 0 0 1-.87 0c-.165-.21-.135-.75 0-1.02M29.73 43.845c.135 0 .42.525.465.66s-.405.645-.6.63-.42-.54-.345-.72.285-.57.48-.57M31.185 45c.105-.165.51 0 .54.09s-.375.84-.54.795-.135-.75 0-.885M26.085 45.255c0-.225.945-.345 1.08-.33s.63.39.555.555-.645.315-.87.255-.825-.24-.765-.48M24.66 43.38c.09-.195.915-.42.945-.315s.18.6 0 .78-1.065-.15-.945-.465M22.29 42.465c.09-.15.63-.285.72-.18.124.304.16.637.105.96-.208.122-.449.18-.69.165-.135-.03-.285-.69-.135-.945M23.28 45c0-.18.9-.315.99-.24a.62.62 0 0 1 0 .585c-.075.06-1.05-.135-.99-.345M19.77 43.965c0-.21.855-.405 1.05-.405s.81.705.69.9a2 2 0 0 1-1.17.615c-.345 0-.705-.765-.57-1.11M18.99 42.375c.075-.135.57-.15.645 0s-.15.57-.315.525-.435-.3-.33-.525M16.77 43.95c.165-.15 1.095-.69 1.26-.555s.21.795 0 .93-.735.285-.87.195-.525-.435-.39-.57M15.285 42.6c.135-.135.96-.495 1.065-.33s-.135.705-.3.78-.9-.315-.765-.45M13.755 43.125c.09-.165.48 0 .555 0s0 .525-.18.54-.45-.405-.375-.54M11.655 42.165c.18-.105.735-.18.855 0a.72.72 0 0 1-.12.72.84.84 0 0 1-.735-.24c-.105-.15-.165-.39 0-.48"/><path fill="#f37b20" fill-rule="nonzero" d="M25.38 26.52c.333-1.075.84-2.089 1.5-3 1.11-1.5 2.1-2.16 2.355-2.1.816.874 1.71 1.672 2.67 2.385a18.4 18.4 0 0 0 3.645 1.41 10.7 10.7 0 0 0-1.5 2.07z"/><path fill="none" stroke="#f05822" stroke-linecap="round" stroke-linejoin="round" stroke-width=".5" d="M30.495 22.5a10.2 10.2 0 0 0-2.91 4.14M31.98 23.76a7.5 7.5 0 0 0-2.1 3.12M31.98 27a7.1 7.1 0 0 1 1.71-2.49"/><path fill="#f37b20" fill-rule="nonzero" stroke="#fff" stroke-linecap="round" stroke-linejoin="round" stroke-width=".5" d="m28.26 23.07.48-.51M26.76 25.32c.28-.63.643-1.22 1.08-1.755M30 24q.145-.191.315-.36M28.935 25.5q.307-.565.69-1.08M31.755 24.765l.165-.195M31.125 25.65q.174-.3.39-.57M33.63 25.5l.09-.12M33.15 26.19l.285-.465"/><path fill="none" stroke="#dd3627" stroke-linecap="round" stroke-linejoin="round" stroke-width=".54" d="M25.38 26.52c.333-1.075.84-2.089 1.5-3 1.11-1.5 2.1-2.16 2.355-2.1.816.874 1.71 1.672 2.67 2.385a18.4 18.4 0 0 0 3.645 1.41 10.7 10.7 0 0 0-1.5 2.07"/><path fill="#e24217" fill-rule="nonzero" stroke="#e24217" stroke-linecap="round" stroke-linejoin="round" stroke-width=".5" d="M40.905 34.83c-1.215-1.245-1.875-1.905-3-1.635s-1.5.945-3.795 1.92a14.5 14.5 0 0 1-9.27.405 18.4 18.4 0 0 1-5.505-3.615c.195 2.295 4.305 5.445 9 5.445 6.825 0 8.505-3.33 9.945-3.33 1.035 0 1.5 1.32 3 2.46a6.7 6.7 0 0 0 4.83 1.05q.029-.405 0-.81a7.04 7.04 0 0 1-5.205-1.89"/><path fill="#f07126" fill-rule="nonzero" d="M37.11 30a2.085 2.085 0 0 0 2.685-.375 8.14 8.14 0 0 1 3-2.34 8 8 0 0 1 3.3-.555 6 6 0 0 0 0-.645 6.77 6.77 0 0 0-4.83 1.05c-1.5 1.14-2.01 2.46-3 2.46-1.5 0-3.12-3.33-9.945-3.33-4.065 0-7.74 2.445-8.7 4.59a14.76 14.76 0 0 1 7.5-3.735c5.07-.93 8.475 1.905 9.99 2.88"/><path fill="#f05822" fill-rule="nonzero" d="M40.38 31.83a5.72 5.72 0 0 0 4.38-2.16 5.8 5.8 0 0 0 1.275-3 8 8 0 0 0-3.3.555 8.14 8.14 0 0 0-3 2.34c-.68.77-1.82.928-2.685.375-1.5-.915-4.92-3.75-9.99-2.88a14.76 14.76 0 0 0-7.5 3.735 2.5 2.5 0 0 0-.255 1.02v.165a18.4 18.4 0 0 0 5.505 3.615c3.051.884 6.308.741 9.27-.405 2.25-.975 2.64-1.665 3.795-1.935s1.8.405 3 1.65a7.04 7.04 0 0 0 5.1 1.89 5.6 5.6 0 0 0-1.245-2.835 5.75 5.75 0 0 0-4.35-2.13"/><path fill="#f37b20" fill-rule="nonzero" d="M25.605 37.02a8.6 8.6 0 0 0 1.35 3.21A2.31 2.31 0 0 0 29.49 39c0-.165-1.035-.57-1.68-1.71zM33.21 36.615s.495 1.695 1.335 2.055c.24.105.9-1.155.99-3.15z"/><path fill="none" stroke="#dd3627" stroke-linecap="round" stroke-linejoin="round" stroke-width=".5" d="M42.885 34.5a8.2 8.2 0 0 0 3 1.5M42.885 29.145a6.96 6.96 0 0 1 3-1.695"/><circle cx="5.54" cy="9.87" r="1.845" fill="#fff" fill-rule="nonzero" transform="translate(19 21)"/><circle cx="5.345" cy="9.87" r="1.5" fill="#b71b13" fill-rule="nonzero" stroke="#b71b13" stroke-linecap="round" stroke-linejoin="round" stroke-width=".5" transform="translate(19 21)"/><path fill="none" stroke="#fdbb38" stroke-linecap="round" stroke-linejoin="round" stroke-width=".5" d="M27.765 28.305a5.24 5.24 0 0 1 .87 3.42 5.85 5.85 0 0 1-.87 3.54M30.21 28.305s.84.195.93.945c.09.501-.177.999-.645 1.2.507.12.874.56.9 1.08-.03.528-.392.98-.9 1.125.51.18.824.694.75 1.23a1.095 1.095 0 0 1-1.035.945"/><path fill="none" stroke="#dd3627" stroke-linecap="round" stroke-linejoin="round" stroke-width=".5" d="M32.835 29.37a1.2 1.2 0 0 1 .63 1.035c.021.468-.222.909-.63 1.14.42.203.67.645.63 1.11a1.5 1.5 0 0 1-.63 1.215"/><path fill="none" stroke="#fdbb38" stroke-linecap="round" stroke-linejoin="round" stroke-width=".5" d="M34.665 29.43c.355.198.578.569.585.975.021.44-.204.857-.585 1.08.39.19.623.602.585 1.035a1.38 1.38 0 0 1-.585 1.14"/><path fill="none" stroke="#fff" stroke-linecap="round" stroke-linejoin="round" stroke-width=".5" d="M36.72 30.69c.516.53.516 1.375 0 1.905"/><path fill="none" stroke="#f05822" stroke-linecap="round" stroke-linejoin="round" stroke-width=".5" d="M26.49 37.14a10 10 0 0 0 1.665 3M27.12 37.245a6.8 6.8 0 0 0 1.815 2.505M34.365 36.15c-.046.842 0 1.687.135 2.52"/><path fill="none" stroke="#fff" stroke-linecap="round" stroke-linejoin="round" stroke-width=".54" d="m32.19 27.735.51.18M29.745 27.285q.918.07 1.815.285"/><path fill="none" stroke="#dd3627" stroke-linecap="round" stroke-linejoin="round" stroke-width=".54" d="M33.21 36.615s.495 1.695 1.335 2.055c.24.105.9-1.155.99-3.15M25.605 37.02a8.6 8.6 0 0 0 1.35 3.21A2.31 2.31 0 0 0 29.49 39c0-.165-1.035-.57-1.68-1.71"/><path fill="none" stroke="#b71b13" stroke-linecap="round" stroke-linejoin="round" stroke-width=".54" d="M44.76 33.885a5.75 5.75 0 0 0-4.38-2.145 5.72 5.72 0 0 0 4.38-2.16 6.1 6.1 0 0 0 1.32-3.645 6.77 6.77 0 0 0-4.83 1.05c-1.5 1.14-2.01 2.46-3 2.46-1.5 0-3.12-3.33-9.945-3.33-4.74 0-9 3.3-9 5.61v.165c.195 2.295 4.305 5.445 9 5.445 6.825 0 8.505-3.33 9.945-3.33 1.035 0 1.5 1.32 3 2.46a6.7 6.7 0 0 0 4.83 1.05q.029-.405 0-.81a5.6 5.6 0 0 0-1.32-2.82"/><ellipse cx=".855" cy="10.65" fill="#b71b13" fill-rule="nonzero" stroke="#b71b13" stroke-linecap="round" stroke-linejoin="round" stroke-width=".69" rx="1" ry="1.65" transform="translate(19 21)"/><path fill="none" d="M44.76 7.965c0-1.77 1.26-2.31 1.905-3.645a2.085 2.085 0 0 0-1.965-3c-2.31 0-3.21 2.52-5.265 2.52s-2.79-2.52-4.86-2.52-2.835 2.52-6 2.52-3.825-2.52-6-2.52-3 2.52-4.86 2.52-3-2.52-5.265-2.52a2.085 2.085 0 0 0-1.965 3c.645 1.335 1.905 1.875 1.905 3.645s-2.67 3.12-5.37 5.88h43.11c-2.7-2.76-5.37-4.155-5.37-5.88"/><path fill="none" stroke="#9f509e" stroke-linecap="round" stroke-linejoin="round" stroke-width=".72" d="M53.685 18.765a19.2 19.2 0 0 0-3.555-4.92c-2.7-2.76-5.37-4.155-5.37-5.88s1.26-2.31 1.905-3.645a2.085 2.085 0 0 0-1.965-3c-2.31 0-3.21 2.52-5.265 2.52s-2.79-2.52-4.86-2.52-2.835 2.52-6 2.52-3.825-2.52-6-2.52-3 2.52-4.86 2.52-3-2.52-5.265-2.52a2.085 2.085 0 0 0-1.965 3c.645 1.335 1.905 1.875 1.905 3.645s-2.67 3.12-5.37 5.88a19.2 19.2 0 0 0-3.555 4.92c-3.57 7.215-2.61 17.115 4.02 22.41l.87.645c6 4.155 13.5 4.92 20.295 4.92s14.25-.765 20.295-4.92l.87-.645c6.48-5.295 7.44-15.195 3.87-22.41"/></g></svg>