<svg xmlns="http://www.w3.org/2000/svg" width="100.604" height="260.529" viewBox="0 0 100.604 260.529"><g fill-rule="evenodd" stroke-miterlimit="10" data-paper-data="{&quot;isPaintingLayer&quot;:true}" style="mix-blend-mode:normal"><path fill="#705347" d="M25.78 61.3a7.12 7.12 0 0 1-.062 5.647l-14.926 34.987c-1.992 4.155-6.773 2.634-6.773 2.634-2.654-1.073-4.75-4.1-3.77-6.805l11.332-36.028c2.853-5.94 10.137-4.34 10.137-4.34A7.08 7.08 0 0 1 25.78 61.3" data-paper-data="{&quot;origPos&quot;:null}"/><path fill="#705347" d="M63.067 57.364s7.34-1.345 9.97 4.716l10 36.411c.877 2.738-1.33 5.685-3.984 6.661 0 0-4.837 1.346-6.67-2.882L58.716 66.763a7.12 7.12 0 0 1 .145-5.649 7.07 7.07 0 0 1 4.206-3.75"/><path fill="#705347" d="M65.944 58.108c6.271 1.378-12.28 16.013-25.46 16.013s-29.787-15.452-23.46-16.573c7.92-1.393 20.982-6.781 24.99-6.781 5.347.016 16.057 5.612 23.93 7.341"/><path fill="#705347" d="M49.003 57.076c.302 2.394-5.411 4.491-7.802 4.491-1.936-.024-6.638-1.449-6.933-3.378l.582-16.077h14.065z"/><path fill="#49352c" d="m34.475 52.816.375-10.72h14.105V46.9c-5.307.68-11.778 3.515-14.48 5.916"/><path fill="#3259e4" d="m63.02 76.467 3.825 33.81H17.112l3.052-34.139-6.91-18.126 9.858-2.337c1.865 4.459 9.252 7.782 18.097 7.782s16.24-3.323 18.145-7.782l9.81 1.537z"/><path fill="#fff49a" d="M23.116 72.231a1 1 0 1 1 2 0 1 1 0 0 1-2 0M55.828 100.093a1 1 0 1 1 2 0 1 1 0 0 1-2 0M50.545 70.214a1 1 0 1 1 2 0 1 1 0 0 1-2 0M43.89 84a1 1 0 1 1 2 0 1 1 0 0 1-2 0M30.48 88.3a1 1 0 1 1 2 0 1 1 0 0 1-2 0M61.406 64.922a1 1 0 1 1 2 0 1 1 0 0 1-2 0M30.48 67.364a1 1 0 1 1 2 0 1 1 0 0 1-2 0M21.235 81.486a1 1 0 1 1 2 0 1 1 0 0 1-2 0M22.176 59.053a1 1 0 1 1 2 0 1 1 0 0 1-2 0M58.011 81.206a1 1 0 1 1 2 0 1 1 0 0 1-2 0M41.157 74.137a1 1 0 1 1 2 0 1 1 0 0 1-2 0M22.638 98.507a1 1 0 1 1 2 0 1 1 0 0 1-2 0M40.21 97.971a1 1 0 1 1 2 0 1 1 0 0 1-2 0"/><path fill="#fff" d="M45.281 66.235c.2.236.172.591-.064.792a.56.56 0 0 1-.789-.064 1.59 1.59 0 0 0-1.737-.536 1.55 1.55 0 0 0-.916 1.601 3.014 3.014 0 0 1-2.725 3.203h-.128a3.55 3.55 0 0 1-3.195-2.066.56.56 0 0 1 .04-.58.557.557 0 0 1 .98.132 2.46 2.46 0 0 0 2.303 1.393 1.91 1.91 0 0 0 1.593-2.082 2.66 2.66 0 0 1 1.682-2.666 2.725 2.725 0 0 1 2.956.873M55.821 87.475a.55.55 0 0 1-.388-.184 1.59 1.59 0 0 0-1.737-.529 1.55 1.55 0 0 0-.916 1.602 3.006 3.006 0 0 1-2.726 3.202h-.143a3.55 3.55 0 0 1-3.235-2.057.56.56 0 0 1 .3-.705.557.557 0 0 1 .72.256 2.48 2.48 0 0 0 2.303 1.385c.512-.057.98-.322 1.294-.733.314-.41.448-.932.371-1.444a2.65 2.65 0 0 1 1.65-2.626 2.725 2.725 0 0 1 2.972.88.554.554 0 0 1-.064.8.55.55 0 0 1-.401.153M63.522 74.833l-.375 1.17a3.11 3.11 0 0 1-2.048-3.091 1.54 1.54 0 0 0-.908-1.601 1.59 1.59 0 0 0-1.746.536.557.557 0 0 1-.976-.162.56.56 0 0 1 .132-.567 2.72 2.72 0 0 1 2.964-.864 2.66 2.66 0 0 1 1.682 2.626 1.92 1.92 0 0 0 1.275 1.953M31.272 76.763a.558.558 0 0 1-.953-.176.56.56 0 0 1 .1-.553 2.73 2.73 0 0 1 2.997-.888 2.64 2.64 0 0 1 1.65 2.626c-.061.508.086 1.02.407 1.418.322.398.79.649 1.297.695a2.39 2.39 0 0 0 2.28-1.385.556.556 0 0 1 .664-.165.56.56 0 0 1 .324.605 3.58 3.58 0 0 1-3.228 2.066h-.143a3.014 3.014 0 0 1-2.741-3.202 1.54 1.54 0 0 0-.909-1.602 1.59 1.59 0 0 0-1.745.537zM18.33 56.82l1.244-.337a3.54 3.54 0 0 1-1.873 2.402.6.6 0 0 1-.223.048.566.566 0 0 1-.523-.774.56.56 0 0 1 .3-.307 2.53 2.53 0 0 0 1.076-1.033M47.146 75.658a2.75 2.75 0 0 1 .86-2.978.556.556 0 0 1 .797.064.57.57 0 0 1-.063.8 1.61 1.61 0 0 0-.534 1.746c.272.625.918.999 1.593.92a3.017 3.017 0 0 1 3.188 2.738 3.6 3.6 0 0 1-2.056 3.395.55.55 0 0 1-.733-.296.57.57 0 0 1 .287-.737 2.4 2.4 0 0 0 1.378-2.306 1.9 1.9 0 0 0-.702-1.28 1.87 1.87 0 0 0-1.401-.393 2.64 2.64 0 0 1-2.614-1.673M29.854 61.359q.5.206 1.036.4a3.04 3.04 0 0 1-2.997 1.882 1.53 1.53 0 0 0-1.593.912 1.61 1.61 0 0 0 .518 1.754.562.562 0 0 1-.367.984.52.52 0 0 1-.359-.136 2.75 2.75 0 0 1-.86-2.978 2.645 2.645 0 0 1 2.613-1.665 1.95 1.95 0 0 0 2.009-1.153M41.09 89.557a3 3 0 0 1-3.188 2.754 1.54 1.54 0 0 0-1.594.92c-.203.635.006 1.33.526 1.746a.562.562 0 0 1-.358.992.6.6 0 0 1-.367-.136 2.77 2.77 0 0 1-.86-2.986 2.64 2.64 0 0 1 2.613-1.601 1.9 1.9 0 0 0 1.42-.407c.4-.322.652-.794.7-1.306.03-.972-.51-1.87-1.379-2.298a.56.56 0 0 1-.255-.723.557.557 0 0 1 .702-.302 3.58 3.58 0 0 1 2.04 3.347M18.068 66.515a3.6 3.6 0 0 1-.478 1.81l-.63-1.946a2.63 2.63 0 0 1 1.642-2.506 2.71 2.71 0 0 1 2.972.865c.2.236.172.591-.064.792a.56.56 0 0 1-.789-.064 1.59 1.59 0 0 0-1.705-.536 1.55 1.55 0 0 0-.948 1.585M18.148 98.411l.111-1.209a1.95 1.95 0 0 0 1.156-1.985 2.67 2.67 0 0 1 1.657-2.626 2.72 2.72 0 0 1 2.964.865.562.562 0 0 1-.307.944.56.56 0 0 1-.537-.216 1.59 1.59 0 0 0-1.745-.536c-.622.274-.99.924-.909 1.6a3.03 3.03 0 0 1-2.39 3.163M60.168 96.736c.32.4.789.653 1.298.699a2.39 2.39 0 0 0 2.287-1.385.57.57 0 0 1 .685-.297.57.57 0 0 1 .287.737 3.58 3.58 0 0 1-3.188 2.065h-.135a3.014 3.014 0 0 1-2.75-3.202 1.54 1.54 0 0 0-.908-1.601 1.59 1.59 0 0 0-1.737.536.564.564 0 0 1-.797.064.56.56 0 0 1-.064-.8 2.72 2.72 0 0 1 2.965-.865 2.66 2.66 0 0 1 1.657 2.626c-.065.51.08 1.023.4 1.423M37.504 101.382a3.58 3.58 0 0 1-3.188 2.065h-.135a3.014 3.014 0 0 1-2.75-3.202 1.54 1.54 0 0 0-.908-1.601 1.59 1.59 0 0 0-1.737.528.556.556 0 0 1-.767.047.56.56 0 0 1-.086-.768 2.72 2.72 0 0 1 2.996-.872 2.65 2.65 0 0 1 1.658 2.626c-.06.505.084 1.013.4 1.41.316.398.778.651 1.281.703a2.39 2.39 0 0 0 2.247-1.385.565.565 0 0 1 .742-.288.57.57 0 0 1 .247.737M65.075 57.188a2 2 0 0 0-.159-.577l1.227.208q.063.16.104.329a3.59 3.59 0 0 1-2.056 3.394.5.5 0 0 1-.215.048.57.57 0 0 1-.518-.336.563.563 0 0 1 .295-.736 2.5 2.5 0 0 0 1.322-2.33M53.234 61.327a3.4 3.4 0 0 1-.502 0q.899-.383 1.753-.857a2.94 2.94 0 0 1 1.976 2.514 3.59 3.59 0 0 1-2.056 3.395.5.5 0 0 1-.215.048.57.57 0 0 1-.542-.368.563.563 0 0 1 .295-.737 2.48 2.48 0 0 0 1.379-2.314 1.907 1.907 0 0 0-2.088-1.681M23.79 86.963c-.203.636.01 1.332.533 1.745a.57.57 0 0 1-.366 1 .52.52 0 0 1-.359-.135 2.75 2.75 0 0 1-.86-2.979 2.65 2.65 0 0 1 2.613-1.665 1.9 1.9 0 0 0 1.408-.401c.396-.318.65-.782.704-1.288a2.46 2.46 0 0 0-1.41-2.274.56.56 0 0 1-.28-.745.55.55 0 0 1 .726-.288 3.59 3.59 0 0 1 2.056 3.379 3.017 3.017 0 0 1-3.188 2.762 1.53 1.53 0 0 0-1.578.889M63.96 84.953l.12 1.113h-.072a1.54 1.54 0 0 0-1.594.913c-.202.636.01 1.332.534 1.745a.56.56 0 0 1 .064.8.55.55 0 0 1-.423.2.53.53 0 0 1-.366-.135 2.75 2.75 0 0 1-.861-2.979 2.62 2.62 0 0 1 2.598-1.657M51.903 101.91a3.61 3.61 0 0 1-2.048 3.403.58.58 0 0 1-.74-.297.563.563 0 0 1 .294-.736 2.48 2.48 0 0 0 1.37-2.322 1.907 1.907 0 0 0-2.111-1.673 2.64 2.64 0 0 1-2.614-1.657 2.76 2.76 0 0 1 .86-2.987.564.564 0 0 1 .798.064.56.56 0 0 1-.064.8 1.65 1.65 0 0 0-.534 1.754c.273.624.92.995 1.594.913a3.01 3.01 0 0 1 3.195 2.738"/><path fill="#fff49a" d="M62.406 56.195a.9.9 0 0 1 .064.328.943.943 0 0 1-.94.945.943.943 0 0 1-.94-.945.92.92 0 0 1 .222-.592z"/><path fill="#00bcbd" d="M27.702 189.994s-10.519-1.073-10.519-6.141l-7.618-39.767c.964-9.687 16.28-9.479 16.28-9.479 5.045 0 16.32 1.153 16.32 6.213L37.6 183.86c.032 5.06-4.86 6.134-9.897 6.134" data-paper-data="{&quot;origPos&quot;:null}"/><path fill="#00bcbd" d="m56.58 179.37-14.184-38.718c-1.259-4.9 8.415-11.457 13.3-12.722 0 0 12.918-3.098 19.213 7.83l2.542 41.952c-.231 7.926-8.455 8.503-8.455 8.503-4.885 1.257-11.124-1.946-12.415-6.846" data-paper-data="{&quot;origPos&quot;:null}"/><path fill="#00bcbd" d="M74.909 135.76c.398 4.435-26.903 5.1-32.728 5.052-6.096 0-26.568 5.076-32.6 3.266-1.29-12.233 2.622-29.142 7.905-38.95a10.2 10.2 0 0 1 .247-4.475h48.41c.152 1.33.455 4.612.455 4.612 5.817 11.6 7.897 25.787 8.31 30.495"/><path fill="#269b9e" d="M22.315 104.912v13.683c-.017 5.077-4.11 9.19-9.164 9.207h-2.805c.048-.248.088-.488.136-.729h1.992c5.055-.013 9.15-4.127 9.164-9.207v-14.482h.542c.085.504.13 1.016.135 1.528M60.932 103.383h.542v14.483c.013 5.08 4.108 9.194 9.164 9.207h2.892c.048.24.088.48.136.729H70c-5.06-.013-9.159-4.131-9.172-9.215v-13.675a9 9 0 0 1 .104-1.529M43.926 131.58v.625h-2.558a1.534 1.534 0 0 1-1.522-1.537v-27.34h.407l.454 27.148c0 .442.357.8.797.8zM43.934 130.3l-.462-3.075v-23.842h.462z"/><path fill="#fff49a" stroke="#f8b900" stroke-linecap="round" stroke-linejoin="round" stroke-width=".768" d="M67.235 105.745H16.912l.327-2.994h49.566z"/><path fill="#49352c" d="M23.773 24.587a2.72 2.72 0 0 1 2.242-.143 2.74 2.74 0 0 1 1.591 1.592l1.084 3.563c.51 1.761.43 2.674-.072 3.074-1.21.72-2.932.072-3.833-1.45l-1.538-2.593c-.932-1.49-.677-3.323.526-4.043" data-paper-data="{&quot;origPos&quot;:null}"/><path fill="#49352c" d="m60.471 28.88-1.538 2.594c-.9 1.521-2.621 2.17-3.832 1.449-.503-.4-.582-1.313-.072-3.074l1.084-3.563a2.74 2.74 0 0 1 1.591-1.592 2.72 2.72 0 0 1 2.242.143c1.203.72 1.458 2.554.525 4.043" data-paper-data="{&quot;origPos&quot;:null,&quot;index&quot;:null}"/><path fill="#705347" d="M43.201 46.46h-2.47c-2.877 0-11.73-5.74-12.838-12.378l-2.032-13.386c0-6.805 9.124-12.378 15.898-12.378h.414c6.774 0 15.938 5.605 15.938 12.378l-2.096 13.386c-1.092 6.06-9.459 12.378-12.814 12.378"/><path fill="#412d20" d="M39.113 22.49a.575.575 0 0 1-.565.576h-5.953a.575.575 0 0 1-.574-.577c0-.318.257-.576.574-.576l5.984-.272c.311 0 .534.528.534.848M51.59 22.078a.58.58 0 0 1 .13.427.583.583 0 0 1-.622.529l-5.984.256a.576.576 0 0 1-.526-.617c.032-.32.295-.8.605-.8h6a.57.57 0 0 1 .396.205"/><path fill="none" stroke="#523a30" stroke-linecap="round" stroke-linejoin="round" stroke-width=".8" d="m43.48 34.923-1.092.544a2 2 0 0 1-1.785 0l-1.1-.544"/><path fill="#412d20" d="M27.466 29.927c-.646-4.187-3.235-12.193-3.235-12.193a9.81 9.81 0 0 1 1.8-8.07c-.095-5.325 3.985-5.901 3.985-5.901C37.044-3.3 44.814 1.745 44.814 1.745 54.01-.416 56.034 5.58 56.034 5.58c10.128 0 10.216 11.217 8.447 13.058-1.77 1.842-1.243 5.82.111 9.24 1.841 4.643-2.207 6.1-2.207 6.1-1.761.488-.964 3.138-.964 3.138.263 5.613-4.781 4.86-4.781 4.86-2.032.16-1.236 3.459-1.236 3.459-2.358-3.203-.334-4.804-.334-4.804a2.133 2.133 0 0 0 1.075-2.642c-2.605-6.693.797-13.698.797-13.698 2.391-7.91-1.522-7.566-1.522-7.566-3.633 1.873-7.618-3.603-7.618-3.603-6.032-3.891-9.004 1.441-9.004 1.441-1.41 3.459-6.017 3.026-6.017 3.026-5.57 1.994-4.956 8.447-4.956 8.447.374 1.417-.335 3.867-.359 3.89" data-paper-data="{&quot;origPos&quot;:null}"/><g fill="#00bcbd"><path d="m31.44 19.047-.702.864-4.454-3.146.454-.569zM30.172 20.608l-.7.872-4.073-3.698.43-.537z"/></g><g fill="#705347"><path d="M5.246 93.207c2.918-.132 5.486 1.918 6.017 4.804l2.135 33.394a2.62 2.62 0 0 1-2.247 2.466 3.045 3.045 0 0 1-3.45-2.402L.002 99.252c-.096-2.858 2.39-5.828 5.243-6.045"/><path d="M10.254 127.796a3.24 3.24 0 0 1 2.626 2.536c.909 3.37-1.482 8.094-1.482 8.094a5.25 5.25 0 0 1-1.809 2.09 22 22 0 0 1-.08 3.706 25.5 25.5 0 0 1 3.387 2.458c2.367.97 1.466 2.482 1.466 2.482-6.104-1.825-7.251-3.098-7.251-3.098-4.861-6.933-3.06-9.936-3.06-9.936l2.892-6.805a3.23 3.23 0 0 1 3.31-1.527"/><path d="M13.55 143.886c-.797.168-2.112-1.337-2.311-2.458l-2.04-11.408a2.39 2.39 0 0 1 2.597-1.426 6.34 6.34 0 0 1 2.28 4.62l-.399 7.43c-.317.91-.242 1.91.207 2.762.136.184-.095.432-.334.48"/></g><g fill="#705347"><path d="M72.12 98.451 86.862 68.83a3.047 3.047 0 0 1 3.897-1.602 2.636 2.636 0 0 1 1.594 2.923l-9.563 32.024a5.86 5.86 0 0 1-6.94 3.299c-2.726-.793-4.471-4.252-3.73-7.022M92.496 64.882l5.251-8.807c.31-.514.972-.685 1.49-.384.511.308.681.97.383 1.489l-4.622 9.047c-.319.52-1.402.56-1.912.256a1.284 1.284 0 0 1-.59-1.601"/><path d="m90.591 62.24 5.077-9.183a1.19 1.19 0 0 1 1.593-.48c.56.318.771 1.024.478 1.6l-4.494 9.488c-.319.576-1.498.496-2.072.184a1.26 1.26 0 0 1-.582-1.61M92.823 69.053l6.136-8.182a.9.9 0 0 1 1.235-.273c.413.27.533.823.27 1.241l-5.577 8.647a.9.9 0 0 1-1.236.264c-.414-.272-1.107-1.28-.828-1.697M88.352 61.223l4.367-8.535a1 1 0 0 1 1.339-.448c.489.247.688.844.446 1.337l-3.984 8.75c-.247.49-1.228.473-1.714.233a1.003 1.003 0 0 1-.454-1.337M84.67 57.132c.798-.168 2 1.2 2.208 2.241l1.873 9.456a2.22 2.22 0 0 1-2.391 1.377c-.446-.24-1.793-.68-1.96-3.115l.223-6.925c.28-.853.19-1.786-.247-2.57-.12-.176.095-.416.295-.464"/><path d="M87.484 72.095c-2.534-1.385-3.905-4.803-2.526-7.381l.621-1.153a5.255 5.255 0 0 1 7.116-2.114l.869.472c2.536 1.399 3.476 4.59 2.104 7.15l-.622 1.153c-1.379 2.546-4.996 3.258-7.562 1.873"/></g><path fill="#966a57" d="M46.596 38.405c-.375 1.602-2.319 3.21-4.702 3.21s-4.359-1.6-4.717-3.202c-.056-.256.111-.504.59-.504 2.697.715 5.534.715 8.231 0 .375 0 .654.24.598.496" data-paper-data="{&quot;origPos&quot;:null}"/><path fill="#dbdbdb" d="M37.32 38.133a.67.67 0 0 1 .463-.128c2.695.715 5.528.715 8.223 0a.7.7 0 0 1 .454.152c-.486.945-2.334 1.85-4.566 1.85-2.239 0-4.096-.897-4.574-1.874" data-paper-data="{&quot;origPos&quot;:null}"/><path fill="none" stroke="#523a30" stroke-linecap="round" stroke-linejoin="round" stroke-width=".8" d="M46.596 38.405c-.35 1.602-2.327 3.25-4.702 3.25s-4.359-1.648-4.717-3.25a.52.52 0 0 1 .167-.368.5.5 0 0 1 .423-.136c1.338.42 2.726.654 4.127.697a15.5 15.5 0 0 0 4.104-.713c.367.024.654.264.598.52" data-paper-data="{&quot;origPos&quot;:null}"/><path fill="#fff" d="M51.072 24.652c.073.086.106.2.09.311a3.07 3.07 0 0 1-3.008 2.477 3.07 3.07 0 0 1-3.008-2.477.394.394 0 0 1 .382-.448h5.252a.4.4 0 0 1 .292.137" data-paper-data="{&quot;origPos&quot;:null}"/><path fill="#472f1b" d="M46.893 26.754a1.8 1.8 0 0 1-.52-1.27 1.75 1.75 0 0 1 .287-.97h2.98c.362.548.395 1.25.084 1.829-.31.578-.912.937-1.566.934a1.77 1.77 0 0 1-1.265-.523" data-paper-data="{&quot;origPos&quot;:null}"/><path fill="#fff" d="M38.49 24.652c.073.086.105.2.09.311a3.07 3.07 0 0 1-3.009 2.477 3.07 3.07 0 0 1-3.008-2.477.394.394 0 0 1 .382-.448h5.252a.4.4 0 0 1 .292.137" data-paper-data="{&quot;origPos&quot;:null}"/><path fill="#472f1b" d="M34.31 26.754a1.8 1.8 0 0 1-.52-1.27c.002-.344.102-.68.287-.97h2.988c.185.293.285.631.287.977a1.781 1.781 0 0 1-3.041 1.263" data-paper-data="{&quot;origPos&quot;:null}"/><path fill="#705347" d="M64.239 237.422a4.01 4.01 0 0 1-1.223 3.092 3.97 3.97 0 0 1-3.128 1.095h-.064c-1.873-.184-4.12-1.745-4.319-3.627l.797-56.195c.111-3.074 6.988-5.396 9.969-5.132s9.212 3.627 8.893 6.613z"/><path fill="#00bcbd" d="M67.131 224.796c-.526 2.586-3.315 3.219-5.705 2.978 0 0-5.507-.768-6.056-3.907l-.208-48.837c.104-3.09 5.602-7.302 11.778-6.293 2.925.48 11.642 3.53 10.36 10.224z"/><path fill="#ffc724" d="M53.569 245.156c-.311-.296-.423-.72-.423-1.673 0 0 1.889-9.72 1.865-10.969a6.88 6.88 0 0 0 5.403.16c.486-.16.661.689.661.689 1.514.48 11.093 9.951 12.057 12.105.499.246.902.652 1.147 1.153 3.985.376 7.077 2.602 6.75 4.804v.744c.048.312-1.02 1.85-2.39 2.362-.75.28-7.922 1.393-10.535-1.313 0 0-1.873-2.202-3.331-2.81-.654-.272-9.762-4.516-10.288-4.732a3.6 3.6 0 0 1-.908-.544z"/><path fill="#8967e3" d="M71.26 253.114c6.637.913 8.342.648 9.769-.913-.359 2.05-.303 3.219-3.889 3.45-2.9.185-10.04.641-11.873-3.858-.263-.657-10.256-5.837-10.782-6.06-1.036-.513-1.546-.793-1.339-2.226l.367-2.402 13.427 8.19c.35 3.314 3.546 3.715 4.32 3.819M70.343 245.972l-9.268-12.61c1.116-1.969 2.781-3.346 4.518-2.233 1.323.849.247 3.931.247 3.931 2.503 2.89 4.248 5.86 7.292 10.408z"/><path fill="none" stroke="#00bcbd" stroke-linecap="round" stroke-linejoin="round" stroke-width=".768" d="m67.76 242.466 1.324-3.123-4.766-1.56 1.522-2.723-3.442-.032 5.004 1.962-1.41 3.066 4.933 2.065-.582 3.851 2.789-.504z"/><path fill="#fe7e5b" d="M75.706 246.837s4.662 1.257 3.984 2.842c0 0-2.303 3.843-10.256-1.065 0 0 .909-1.2 3.188-.456 0 0 3.37.729 3.984 0-.032.008.407-.48-.9-1.32M59.218 235.212l6.128 7.918s1.96 3.427-.924 2.186a4.22 4.22 0 0 1-2.263-2.978s-2.75-7.11-3.913-3.05c0 0-.087 3.042-1.442 2.297 0 0-1.53-.28-1.235-4.571-.008 0 1.227-4.916 3.65-1.802"/><path fill="#705347" d="m36.866 185.054-5.658 56.043a3.99 3.99 0 0 1-3.857 3.202h-.055c-2.43.024-5.076-2.146-4.742-4.547l-4.606-54.922c-.055-3.003 6.853-5.46 9.842-5.46 3.06 0 9.235 2.577 9.076 5.684"/><path fill="#00bcbd" d="m38.15 178.953-5.189 48.1c-.43 3.347-6.207 3.243-6.207 3.243-2.43.024-5.993-2.057-6.264-4.547l-4.359-47.38c-.047-3.003 5.515-6.958 11.627-6.958 5.929 0 10.55 4.484 10.391 7.542"/><path fill="#ffc724" d="M32.404 250.464a4 4 0 0 1-.877.52c-.7.285-1.352.673-1.936 1.153-.583.523-1.117 1.1-1.594 1.721-2.207 2.594-1.235 4.364-10.885 6.125a57 57 0 0 1-5.953-.464 2.52 2.52 0 0 1-1.522-2.266v-1.473c.773-1.721 2.765-4.908 4.47-5.837 1.355-3.418 5.618-10.023 7.778-13.026 7.905-.816 3.705 3.643 10.463.721-.016 1.177.446 11.209.446 11.209 0 .912-.111 1.313-.406 1.6z"/><path fill="#8967e3" d="m26.116 251 6.559-5.548.135 3.419c0 1.52-.287 1.64-1.29 2.137a7.5 7.5 0 0 0-1.953 1.161 12.2 12.2 0 0 0-1.594 1.73c-2.207 2.585-1.594 5.14-10.861 6.476-2.168.313-8.08.497-7.507-3.114 3.331 3.475 11.156.88 14.272-.664 1.506-.745 2.781-3.627 2.24-5.597M15.088 247.926c.924-2.514 5.06-8.927 6.805-11.057 2.71-3.338 5.514-1.489 6.502 1.602l-6.534 9.695z"/><path fill="none" stroke="#00bcbd" stroke-linecap="round" stroke-linejoin="round" stroke-width=".768" d="m15.088 247.918 6.773.256-5.283-3.258 9.1-2.402-5.993-2.386 8.32-1.073-7.06-.8 5.944 2.45-8.486 1.336 5.578 2.979z"/><path fill="#fe7e5b" d="M14.84 252.257c.112 2.21 4.838-.056 4.838-.056 2.366-1.409 3.546 0 3.546 0-5.77 6.477-11.954 3.459-11.954 3.459-1.131-1.193 2.614-4.291 2.614-4.291 1.578-1.09.933.912.956.888M31.567 241.641c.67 3.427-.534 3.811-.534 3.811-1.02.745-1.403-1.705-1.403-1.705-1.346-3.163-2.844 2.858-2.844 2.858a3.46 3.46 0 0 1-1.594 2.65c-2.2 1.297-.964-1.673-.964-1.673l4.167-7.022c1.642-2.802 3.14 1.081 3.172 1.081"/></g></svg>