<svg xmlns="http://www.w3.org/2000/svg" xml:space="preserve" width="143.778" height="134.446" viewBox="19.092 9.885 143.778 134.446"><title>rabbit-b</title><g fill-rule="nonzero"><ellipse cx="14.231" cy="14.134" fill="#b5c5c1" rx="10.62" ry="10.612" transform="rotate(-20.267 124.666 -20.978)"/><path fill="#cbd7d4" d="M28.36 52.448c.45.36.81.72 1.26 1.08.27.18.63.27.9 0 .18-.18.27-.63 0-.9-.45-.36-.81-.72-1.26-1.079-.27-.18-.63-.27-.9 0s-.27.72 0 .9M26.02 55.056c.54.27 1.17.54 1.71.72.27.09.72-.09.72-.45.09-.36-.09-.63-.45-.72-.45-.18-.99-.359-1.44-.629a.586.586 0 0 0-.81.18c-.09.27-.09.72.27.9M31.06 47.952c.18.81.63 1.798 1.08 2.518.45.63 1.53 0 1.08-.63a6.4 6.4 0 0 1-.99-2.248c-.18-.81-1.35-.45-1.17.36M34.84 47.682c.18.72.27 1.349.45 2.068.18.81 1.35.45 1.17-.36-.18-.719-.27-1.348-.45-2.068-.09-.81-1.26-.45-1.17.36M39.16 47.592c-.27.63-.36 1.349-.27 2.068 0 .36.27.63.63.63.27 0 .63-.27.63-.63-.09-.63 0-1.169.27-1.708.09-.27-.18-.72-.45-.72-.45-.18-.72.09-.81.36M40.78 51.28c-.18.539-.36.989-.45 1.528-.09.36.09.63.45.72.27.09.72-.09.72-.45.09-.54.27-1.08.45-1.529.09-.27-.09-.72-.45-.72-.27-.09-.63.18-.72.45M26.2 45.973c.36.72.9 1.35 1.26 2.069.36.72 1.44.09 1.08-.63s-.9-1.349-1.26-2.068a.586.586 0 0 0-.81-.18c-.36.18-.45.54-.27.81M29.26 42.826c.18.719.45 1.438.54 2.158.18.81 1.35.45 1.17-.36l-.54-2.158c-.27-.72-1.44-.36-1.17.36M33.4 42.286c.09 1.08.18 2.248.45 3.327.18.81 1.44.45 1.17-.36-.27-.989-.27-1.978-.45-2.967 0-.81-1.26-.81-1.17 0M37.63 42.736c0 .27.09.45.09.719 0 .36.27.63.63.63.27 0 .63-.27.63-.63 0-.27-.09-.45-.09-.72 0-.36-.27-.629-.63-.629-.27 0-.63.36-.63.63M23.05 50.11c.54.45.99.81 1.53 1.26.27.179.63.269.9 0 .18-.18.27-.63 0-.9-.54-.45-.99-.81-1.53-1.26-.27-.18-.63-.27-.9 0-.18.18-.27.63 0 .9M31.78 54.787c.54.45.99.899 1.44 1.438.54.54 1.44-.27.9-.899-.45-.45-.9-.99-1.44-1.439-.27-.18-.63-.27-.9 0s-.27.72 0 .9M29.8 57.754c.36.27.63.45.99.54s.72-.09.72-.45c.09-.36-.09-.63-.45-.72-.18-.09-.36-.09-.45-.269-.27-.18-.63-.27-.9 0-.09.18-.18.63.09.9M34.48 52.089c-.09.72 0 1.439.09 2.248 0 .36.27.63.63.63.27 0 .63-.27.63-.63-.09-.72-.18-1.439-.09-2.248 0-.81-1.17-.81-1.26 0M37.54 52.718c-.09.36-.09.63-.18.99s.09.629.45.719c.27.09.72-.09.72-.45.09-.36.09-.63.18-.99.09-.359-.09-.629-.45-.718-.27-.09-.72.09-.72.45"/><path fill="#b5c5c1" d="M50.23 109.556c-2.52-6.206 4.14-4.317 5.58-8.634 2.79-8.094-9.36-20.864-3.96-30.487 5.04-8.904 22.05-4.407 28.26-1.35 8.46 4.138 13.23 15.919 17.64 24.732 3.24 6.476 1.53 13.49-5.31 16.009-6.48 2.338-11.52 2.338-17.91 4.136 2.7 3.328 9.9 3.328 13.95 5.127 1.26.54 3.87.809 5.58 1.978 1.98 1.35 2.88 3.687 3.69 5.306 1.89 4.227-4.14 1.889-6.39 1.26 10.71 8.903-18.81-3.328-22.23-5.757 0 0-17.91-9.802-18.9-12.32M121.24 90.94c1.08-3.598 3.24-6.835 5.49-9.983 4.95-6.835 28.26-4.586 26.55 3.238-1.8 8.274-6.48 18.706-13.41 24.911-3.24 2.878-7.65 12.5-7.65 12.5s-5.49 8.275-6.48 9.354c-5.04 5.216-7.83.45-5.49-2.249-3.15 2.339-1.71-1.618-.27-3.237 0 0 4.77-4.767 4.59-6.296-.63-4.226-5.76-20.414-3.33-28.238"/><path fill="#cbd7d4" d="M78.4 119.269c-8.82 1.528-30.33-4.587-37.44-9.533-11.52-7.915-26.28-28.869-10.17-48.744 13.32-16.368 48.24 4.317 61.92 8.094 7.83 2.158 19.17 6.205 27 2.248 2.43-1.259 3.51-3.867 5.85-4.946 3.96-1.889 16.92-7.914 19.98-4.946 7.11 6.834 19.08 10.522 9.18 33.185-8.91 20.325-43.56 22.933-60.3 24.552z"/><path fill="#c9d8d5" d="M131.5 65.399c-13.5 3.147-29.34-4.947-39.69-11.602-7.11-4.496-15.03-15.108-18.36-21.943-2.88-6.116 25.29 2.877 32.67 7.284 12.51 7.465 23.94 18.257 34.92 27.7z"/><path fill="#b5c5c1" d="M142.66 62.88c-9.9-.989-21.69-17.536-26.37-25.27-5.04-8.364-7.92-26.89-7.92-26.89 4.68-3.148 18.81 16.817 23.58 22.932 6.93 8.994 15.93 18.796 19.8 29.678z"/><path fill="#c9d8d5" d="M130.87 92.379c-12.51-7.195-18.81-27.52-1.89-38.582 8.1-5.306 16.02-2.877 22.14 2.698 2.43 2.249 4.23 5.306 6.39 7.914 4.32 5.396 4.68 10.163 4.86 14.75 0 0 0 4.856-1.8 9.173-1.08 2.608-2.88 5.036-5.76 6.205-8.64 3.327-14.31 3.417-23.94-2.159"/><path fill="#b5c5c1" d="M128.89 53.887c.54-.36.99-.63 1.53-.9-.9.36-1.89.72-2.88 1.26-16.47 9.083-10.98 30.937 1.35 36.962-11.16-8.094-16.02-26.89 0-37.322"/><g fill="#3c4f45"><path d="M157.42 82.396c.81.18 1.89.27 2.7-.27s.72-1.259.81-2.068-1.17-.81-1.26 0c0 .36.18.899-.27 1.079s-1.08.09-1.53 0c-.9-.18-1.26 1.08-.45 1.259"/><path d="M159.04 81.946c.72 1.26 1.26 2.608 1.44 4.047.09.81 1.35.45 1.26-.36a12.6 12.6 0 0 0-1.62-4.316c-.36-.72-1.44-.09-1.08.63"/><path d="M158.05 86.893c1.35.63 2.88.18 3.78-1.08.45-.63-.63-1.349-1.08-.63-.45.63-1.35.99-2.07.63s-1.35.72-.63 1.08"/></g><g fill="#b5c5c1"><path d="M139.96 82.756c-1.8.27-3.51.81-5.13 1.708-.72.36-.09 1.44.63 1.08 1.35-.81 2.88-1.35 4.5-1.53.81-.18.81-1.348 0-1.258M141.85 84.734c-2.43 1.17-5.04 2.339-7.29 3.957-.63.45 0 1.53.63 1.08 2.16-1.62 4.86-2.788 7.29-3.958.72-.36.09-1.439-.63-1.079M141.76 87.342c-.99 1.08-1.89 2.159-2.88 3.238-.54.63.36 1.529.9.9.9-1.08 1.89-2.16 2.88-3.238.45-.63-.36-1.53-.9-.9"/></g><ellipse cx="8.982" cy="9.189" fill="#3c4f45" rx="1.98" ry="2.608" transform="rotate(-29.215 196.987 -209.384)"/><path fill="#b5c5c1" d="M132.13 68.277c.45-1.17 1.53-2.339 2.88-2.249.81 0 .81-1.169 0-1.259-1.89-.09-3.42 1.529-4.05 3.148-.27.72.9 1.079 1.17.36M54.64 87.612c8.37 2.159 17.82 11.871 24.12 19.426-5.4-12.051-18-20.505-27.81-21.045-3.6-.18-6.48-.27-8.91 0 4.86-.09 9.63.9 12.6 1.62"/><path fill="#cbd7d4" d="M34.84 131.68c-3.78-5.577 3.15-5.037 3.69-9.624 1.08-8.453-13.5-18.526-10.08-29.048 3.15-9.803 19.44-7.105 26.19-5.396 9.18 2.338 19.53 13.58 25.65 21.314 4.5 5.666 4.23 12.95-1.98 16.728-5.85 3.597-12.87 2.248-18.81 5.216 3.33 2.698 10.35 1.169 14.67 2.158 1.35.27 3.96 0 5.85.81 2.25.899 3.6 2.967 4.68 4.496 2.7 3.777-3.69 2.698-6.03 2.518 12.33 6.475-19.08.63-22.86-1.079.09 0-19.44-5.845-20.97-8.094"/><path fill="#b5c5c1" d="M76.87 140.762c1.8.45 3.06.99 4.23 2.518.45.63 1.53 0 1.08-.629-.63-.81-1.26-1.619-2.16-2.158-.9-.54-1.8-.72-2.79-.99-.81-.09-1.08 1.08-.36 1.26"/><path fill="#cbd7d4" d="M108.01 101.732c1.98-3.238 4.77-5.846 7.74-8.274 6.48-5.396 34.83.81 31.23 8.004-3.78 7.554-20.16 21.584-25.38 22.483-4.23.81-10.53 10.252-10.53 10.252s-7.38 6.655-8.64 7.465c-6.21 3.867-7.65-1.08-4.68-3.058-3.69 1.529-1.26-2.518.45-3.687 0 0 5.85-3.418 6.03-4.947.45-4.226-.54-21.224 3.78-28.239"/><path fill="#b5c5c1" d="M96.58 139.413c2.07-.18 4.05-1.439 5.13-3.237.45-.72-.63-1.35-1.08-.63-.81 1.44-2.43 2.518-4.05 2.698-.81 0-.81 1.26 0 1.17"/></g></svg>