<svg xmlns="http://www.w3.org/2000/svg" width="116.785" height="127.487" viewBox="0.412 -0.383 116.785 127.487"><path fill="#828278" d="M68.838 69.625c15.739.788 28.07 1.617 35.576 2.022s12.219.563 12.282 1.31c.049.586-3.977.266-5.868.424.036.225-.099.711-.144 1.315-.158 2.112-4.135 2.639-7.001 2.81-5.926.351-22.067.54-38.027.644 0 0-6.987.063-6.771-4.882s9.953-3.643 9.953-3.643"/><path fill="#3c3c32" d="M111.099 70.976c.763-.068.555.428-.28.752a8.5 8.5 0 0 1-1.778.45s.483 2.486-2.474 1.932c-1.376-.256-1.214-1.833.027-2.495 1.431-.77 4.099-.603 4.505-.639"/><path fill="#828278" d="m32.833 92.71.708 14.979 7.8-.054-.086-15.587s.79-7.679-4.513-8.503c-5.304-.824-3.909 9.165-3.909 9.165"/><path d="M41.774 106.941H33.04l2.709 16.15s-3.747-.243-4.884.608l.248.509c1.354.333.145 1.801 1.354 2.121.357-.617-.271-2.95 1.354-2.121-.036.59-.307 1.743.221 2.252l.497-.113c.153-.793-.244-1.581.144-2.292.42-.163.895-.099 1.255.171l-.144 2.062.848.212v-1.846c.474-.045.646-.563 1.174-.451.045.752-.312 2.365.903 1.959.049-.644-.343-1.351.203-1.968h.857c.271.298.086 1.847.086 2.045l.492.365.451-.266c.055-.788.664-16.564.966-19.397"/><path fill="#fff" d="M32.46 108.45h9.705v-2.036H32.46zM32.907 112.106h8.806v-2.035h-8.806zM33.722 115.296h8.074v-1.955h-8.074z"/><path fill="#828278" d="m59.63 93.534-1.061 14.155-7.795-.077s-1.277-23.026 4.139-23.616 4.717 9.538 4.717 9.538"/><path d="M50.332 106.941h8.738l-2.708 16.15s3.747-.243 4.884.608l-.248.509c-1.354.333-.145 1.801-1.354 2.121-.357-.617.271-2.95-1.354-2.121.036.59.307 1.743-.222 2.252l-.496-.113c-.154-.793.244-1.581-.144-2.292a1.3 1.3 0 0 0-1.255.171l.144 2.062-.848.212v-1.846c-.474-.045-.646-.563-1.174-.451-.045.752.311 2.365-.903 1.959-.049-.644.343-1.351-.203-1.968h-.857c-.271.298-.086 1.847-.086 2.045l-.492.365-.451-.266c-.055-.788-.664-16.564-.971-19.397"/><path fill="#fff" d="M59.626 106.45h-9.705v2.036h9.705zM59.174 110.094h-8.806v2.035h8.806zM58.357 113.354h-8.075v1.955h8.075z"/><path d="M.917 68.738c1.76-11.993 10.259-26.405 23.755-24.941q1.128.126 2.257.347c-3.223-5.31-6.743-10.489-9.641-15.844-2.541-4.692-9.695-16.37-9.695-16.37L12.323.671l5.642 3.639s21.151 33.479 27.289 43.54c4.889 7.994 9.574 15.569 10.734 25.189.966 7.993-1.228 15.384-7.881 20.265-3.354 2.464-6.892 3.049-10.901 4.054-6.905 1.729-14.059 2.986-20.397 0C4.69 91.661.75 80.69.917 68.738"/><path d="m72.968 42.955 7.086 14.893-28.002 1.18-6.829-15.821z"/><path fill="#a0640a" d="M56.331 57.227c.451 4.251 3.999 6.755 8.413 6.449 2.997-.208 5.764-2.531 5.845-5.72.077-3.067-3.232-5.647-5.98-6.273-3.07-.694-7.759.274-8.278 5.544"/><path fill="#828278" d="m46.509 47.846 24.446-.014 4.527 10.444 5.114-.568-6.703-15.757-30.223-.906z"/><path fill="#3c3c32" d="M49.226 1.351c3.882 5.855 9.998 15.078 13.812 21.014.799 1.234 10.598 15.059 14.841 23.296 6.77 13.151 8.806 23.311 8.449 30.174-.104 1.964-1.25 10.611-4.771 14.641-5.389 6.17-13.924 7.868-13.924 7.868l-38.984.608s15.03-3.747 19.277-10.309A29.45 29.45 0 0 0 52.3 74.606c.248-9.07-4.486-17.866-8.788-25.517-4.514-8.057-27.903-44.676-30.905-47.814zm2.487 54.25 25.096.049s-3.295-7.908-4.32-9.493l-25.727.027z"/><path d="M11.741.117c.902.077 37.833.122 38.754.225a2.32 2.32 0 0 1 1.552.662l.212.55-.081.581a2.06 2.06 0 0 1-1.692.599c-.903-.117-35.712-.117-36.633-.077zM13.839 2.657 8.577 13.704s-1.305.383-1.842-.423a3.1 3.1 0 0 1-.501-1.684L11.741.117z"/><path fill="#3c3c32" d="M11.583 75.993a17.07 17.07 0 0 0 6.165 8.557c3.367 2.413 7.488 3.292 11.352 2.031a12.21 12.21 0 0 0 7.055-6.215 16.63 16.63 0 0 0 .758-12.687 16.87 16.87 0 0 0-7.14-9.214c-3.16-1.918-6.446-2.837-9.93-1.693-7.019 2.306-10.968 11.074-8.26 19.221"/><path fill="#828278" d="M15.97 74.516a11.15 11.15 0 0 0 4.031 5.598 8.26 8.26 0 0 0 7.415 1.324 7.98 7.98 0 0 0 4.609-4.054 10.86 10.86 0 0 0 .492-8.286 11.02 11.02 0 0 0-4.667-6.021c-2.072-1.252-4.211-1.856-6.495-1.108-4.564 1.495-7.132 7.223-5.385 12.547"/><path d="m97.564 49.478-6.914 1.1.157.987 6.914-1.1zM94.486 56.749l-6.411-2.815-.402.916 6.41 2.814zM92.77 42.404l-5.068 4.83.69.724 5.067-4.83z"/><path fill="#3c3c32" d="M23.196 112.377s1.133 4.504 1.156 5.341-.361.838-.682-.067a7.5 7.5 0 0 0-1.223-1.946z"/><path fill="#828278" d="M20.199 72.957s-.848-4.503 3.859-4.503c4.708 0 4.063 4.751 4.063 4.751-.402 4.675-5.164 46.954-5.593 46.887s-.383-3.153-.903-3.153c-.519 0-.659 3.531-1.178 3.576s-.27-3.576-.749-3.666c-.478-.09-.668 2.927-.903 2.918-.568-.058 1.404-46.81 1.404-46.81"/><path fill="#f01446" d="M18.236 112.048v-1.409c.835-.081 3.222-.104 4.062-.19.041.199-.104 1.392-.072 1.631-.118-.023-2.451-.023-3.99-.032"/><path d="M20.502 109.301c-.696 1.473-1.066 3.283.451 4.296a2.26 2.26 0 0 0 3.159-.504c1.151-1.567.903-3.229-.392-3.9a4.1 4.1 0 0 0-3.218.108"/><path fill="#3c3c32" d="M21.382 110.314c-.37.784-.569 1.752.248 2.293a1.196 1.196 0 0 0 1.693-.271c.613-.837.478-1.72-.208-2.08a2.19 2.19 0 0 0-1.733.058"/></svg>