<svg xmlns="http://www.w3.org/2000/svg" width="94.866" height="250.218"><g stroke-miterlimit="10" data-paper-data="{&quot;isPaintingLayer&quot;:true}" style="mix-blend-mode:normal"><g stroke-width="0" data-paper-data="{&quot;origPos&quot;:null}"><path fill="#edc393" d="M25.56 82.362c-1.414 4.275-4.892 17.347-5.906 20.886-1.09 2.454-3.887 4.028-7.192 3.26-3.347-.777-2.908-4.414-2.964-6.527 1.14-4.53 4.169-31.8 12.993-40.61 2.964-2.961 4.082-2.53 6.89-3.039" data-paper-data="{&quot;origPos&quot;:null,&quot;origRot&quot;:0,&quot;index&quot;:null}"/><path fill="#916f00" d="M27.706 90.694c-2.499-.897-15.495-4.451-17.853-5.583 1.76-9.14 4.103-18.476 11.274-25.42 3.583-3.467 6.335-3.155 9.595-3.637" data-paper-data="{&quot;origPos&quot;:null,&quot;index&quot;:null}"/></g><g stroke-width="0" data-paper-data="{&quot;origPos&quot;:null}"><path fill="#edc393" d="M65.486 56.25c2.807.509 3.925.078 6.89 3.039 8.823 8.811 11.853 36.081 12.992 40.61-.055 2.113.383 5.75-2.964 6.528-3.305.768-6.101-.807-7.192-3.26-1.014-3.54-4.491-16.612-5.906-20.886" data-paper-data="{&quot;origPos&quot;:null,&quot;origRot&quot;:0,&quot;index&quot;:null}"/><path fill="#916f00" d="M64.571 56.265c3.26.482 6.012.17 9.594 3.638 7.172 6.943 9.515 16.278 11.274 25.42-2.358 1.13-14.72 4.404-17.219 5.3" data-paper-data="{&quot;origPos&quot;:null,&quot;index&quot;:null}"/></g><g stroke-width="0"><g data-paper-data="{&quot;origPos&quot;:null}"><path fill="#edc393" d="M61.164 56.1c-4.722 8.23-20.899 8.587-27.529.452 2.746-.967 6.59-2.373 6.59-2.373l.637-8.212 12.99-.187.769 7.878s5.866 2.115 6.543 2.443" data-paper-data="{&quot;origPos&quot;:null}"/><path fill="#b5875c" d="m40.953 45.993 12.99-.187.695 7.793c-3.523.04-11.581-.283-14.156-2.288z" data-paper-data="{&quot;origPos&quot;:null}"/></g><path fill="#edc393" d="M62.971 24.322c.072-.007 1.82-1.462 2.665.696.655 1.678-.99 6.669-2.894 8.012-1.552 10.493-2.797 17.626-15.436 17.49-12.067.223-13.86-7.75-15.854-16.865-2.057-2.873-2.648-4.357-3.09-6.661-.397-1.867.964-3.786 2.82-2.715.224-13.25 6.609-18.492 16.497-18.877s15.842 8.925 15.292 18.92" data-paper-data="{&quot;origPos&quot;:null}"/></g><path fill="#755135" d="M20.768 143.015c1.158-17.17 4.542-27.08 4.542-27.08l23.539.247s1.298 11.107-1.13 26.725c-1.115 7.177-4.287 34.996-4.287 34.996-.682 6.631-4.748 11.771-12.149 11.388-9.64-.498-10.55-8.277-10.724-12.276.1-7.72-.702-20.495.209-34" data-paper-data="{&quot;origPos&quot;:null,&quot;origRot&quot;:0}"/><path fill="#755135" d="M73.375 142.357c1.131 13.489 1.1 26.264 1.327 33.981-.11 4-1.458 11.524-11.09 12.18-7.393.503-10.984-4.86-11.761-10.635 0 0-4.194-28.036-5.426-35.193-2.682-15.576-2.14-26.512-2.14-26.512l25.498-.846s2.153 9.877 3.592 27.025" data-paper-data="{&quot;origPos&quot;:null,&quot;origRot&quot;:0,&quot;index&quot;:null}"/><path fill="none" stroke="#000" stroke-linecap="round" stroke-width="2" d="M35.339 21.666c2.546-1.379 5.978-.9 7.935.558" data-paper-data="{&quot;origPos&quot;:null,&quot;origRot&quot;:0}"/><path fill="none" stroke="#000" stroke-linecap="round" stroke-width="2" d="M51.484 22.253c1.957-1.457 5.39-1.937 7.935-.558" data-paper-data="{&quot;origPos&quot;:null,&quot;origRot&quot;:0,&quot;index&quot;:null}"/><g fill="none" stroke="#b5875c" stroke-linecap="round" stroke-width="1.5" data-paper-data="{&quot;origPos&quot;:null}"><path d="M44.614 33.55s1.691-.413 2.046.448M48.701 34.032c.225-.844 1.67-.625 1.67-.625" data-paper-data="{&quot;origPos&quot;:null}"/></g><g data-paper-data="{&quot;origPos&quot;:null}"><path fill="#fff" d="M38.47 28.484c-2.293-.293-3.86-1.799-3.56-2.812s2.354-1.15 4.646-.858c2.293.293 3.956 1.433 3.656 2.446s-2.45 1.516-4.743 1.224" data-paper-data="{&quot;origPos&quot;:null,&quot;origRot&quot;:0}"/><path d="M38.122 27.004c-.112-1.392.85-2.007 2.348-1.976 3.025.444 3.941 2.836.932 3.434-1.66.325-3.17.158-3.28-1.458" data-paper-data="{&quot;origPos&quot;:null,&quot;origRot&quot;:0}"/><path fill="none" stroke="#000" stroke-linecap="round" stroke-width="1.5" d="M34.922 25.276c2.647-.872 6.312-.314 8.148.882" data-paper-data="{&quot;origPos&quot;:null,&quot;origRot&quot;:0}"/></g><g data-paper-data="{&quot;origPos&quot;:null}"><path fill="#fff" d="M60.15 25.596c.409.959-1.275 2.327-3.535 2.743-2.26.417-4.413.004-4.808-.922s1.118-2.015 3.378-2.432 4.57-.315 4.965.61" data-paper-data="{&quot;origPos&quot;:null,&quot;origRot&quot;:0}"/><path d="M57.328 24.614c3.089-.093 3.857 1.624 1.535 2.985-1.285.747-2.743.786-3.428-.567-1.056-2.084.416-2.333 1.893-2.418" data-paper-data="{&quot;origPos&quot;:null,&quot;origRot&quot;:0}"/><path fill="none" stroke="#000" stroke-linecap="round" stroke-width="1.5" d="M51.706 26.34c2.066-1.523 5.866-1.825 8.148-1.217" data-paper-data="{&quot;origPos&quot;:null,&quot;origRot&quot;:0}"/></g><path d="m51.944 0-1.696 3.37 9.2-2.388-1.134 4.168 5.906-1.708-1.176 4.407 4.462-1.667s-.473 12.381-4.751 18.242c-.564-5.113-.538-8.72-1.872-9.903-6.486-4.24-19.123-4.292-26.725-.419-1.564 1.285-2.268 11.33-2.808 10.67 0 0-2.59-13.585 1.832-17.707C39.036 1.608 51.944 0 51.944 0" data-paper-data="{&quot;origPos&quot;:null,&quot;index&quot;:null}"/><path fill="#a07b00" d="M64.39 31.934c-.051.486-.464.873-.92.865-.458-.008-.786-.409-.734-.895s.464-.873.921-.865.785.41.733.895M31.717 32.564c-.052.486-.464.874-.92.865-.458-.008-.786-.409-.734-.895s.464-.873.921-.864c.457.008.785.409.733.894" data-paper-data="{&quot;origPos&quot;:null,&quot;origRot&quot;:0}"/><path fill="#a07b00" d="M48.588 128.337c-12.972.138-25.949-4.38-25.949-4.38l1.924-66.96s8.863-2.113 12.562-2.369c2.376 8.851 18.174 9.318 21.096-.087 1.29.467 11.253 2.093 11.253 2.093l2.593 66.157s-12.642 5.342-23.479 5.546" data-paper-data="{&quot;origPos&quot;:null}"/><g data-paper-data="{&quot;origPos&quot;:null}"><path fill="#d0ab81" d="M45.775 38.213c.687.088 1.33.398 1.838.887.51-.49 1.156-.8 1.844-.887.957.151 1.888.45 2.76.887 0 0-.158 2.755-1.996 3.642-1.47.659-3.055.746-4.525.087-1.151-.589-2.033-1.69-2.687-2.842 0 0 1.844-1.774 2.766-1.774" data-paper-data="{&quot;origPos&quot;:null}"/><path fill="none" stroke="#866143" stroke-linecap="round" stroke-width="1.5" d="M52.526 39.718c-2.536 1.027-6.752 1.354-9.55.106" data-paper-data="{&quot;origPos&quot;:null,&quot;origRot&quot;:0,&quot;index&quot;:null}"/></g><g stroke-linecap="round" data-paper-data="{&quot;origPos&quot;:null,&quot;origRot&quot;:0,&quot;index&quot;:null}"><path fill="#fff" d="M34.288 232.22s3.463 5.164 6.329 7.305 11.667 1.139 7.783 6.348c-2.655 3.561-7.308 2.852-11.834 2.224-3.825-.531-4.177-4.49-8.038-4.518-4.095-.031-7.974.555-10.308-2.1-.83-.945 2.93-10.048 2.93-10.048s4.13 1.983 6.282 2.037c2.661.066 6.856-1.247 6.856-1.247" data-paper-data="{&quot;origPos&quot;:null}"/><path fill="#a5a5a5" d="M19.602 244.748c-1.955-1.032-1.858-1.74-1.534-3.432 2.954 1.845 2.4 2.328 10.277 1.806 2.819.281 4.41 3.34 7.933 4.46 9.366 1.907 11.799-1.674 13.132-3.094-.03 1.096-.302 2.238-.79 2.893-2.655 3.561-7.176 3-11.703 2.372-6.443-1.534-5.036-4.258-8.897-4.287-4.096-.03-5.74.697-8.418-.718" data-paper-data="{&quot;origPos&quot;:null}"/><path fill="none" stroke="#000" stroke-width="1.5" d="m37.829 241.25 2.298-2.037M36.018 239.208l2.177-2.045M34.093 237.037l2.291-1.917" data-paper-data="{&quot;origPos&quot;:null}"/></g><path fill="#755135" d="M20.514 179.219c.928-8.947 5.518-14.557 11.949-13.957 6.463-.455 10.472 4.192 10.72 14.349l-2.096 55.653s-6.277 2.323-10.528 2.015c-3.94-.286-12.381-2.925-12.381-2.925s2.207-54.811 2.336-55.135" data-paper-data="{&quot;origPos&quot;:null,&quot;origRot&quot;:0}"/><g stroke-linecap="round" data-paper-data="{&quot;origPos&quot;:null,&quot;origRot&quot;:0}"><path fill="#fff" d="M82.044 239.54c2.935 2.046 11.698.755 7.988 6.09-2.537 3.645-7.21 3.09-11.755 2.61-3.84-.404-4.322-4.349-8.182-4.25-4.094.103-7.952.817-10.372-1.76-.86-.917 2.599-10.139 2.599-10.139s3.549 1.649 7.25 1.75c1.234.033 5.906-1.393 5.906-1.393s3.632 5.047 6.566 7.093" data-paper-data="{&quot;origPos&quot;:null,&quot;index&quot;:null}"/><path fill="#a5a5a5" d="M59.566 242.072c3.013 1.747 2.475 2.248 10.33 1.467 2.828.188 4.519 3.192 8.077 4.197 9.423 1.598 11.737-2.061 13.023-3.525.005 1.097-.228 2.247-.695 2.918-2.536 3.646-7.073 3.235-11.618 2.756-6.49-1.321-5.174-4.09-9.034-3.993-4.094.104-5.713.886-8.436-.44-1.988-.968-1.915-1.679-1.647-3.38" data-paper-data="{&quot;origPos&quot;:null,&quot;index&quot;:null}"/><path fill="none" stroke="#000" stroke-width="1.5" d="m81.544 239.245-2.23 2.112M77.437 239.375l2.11-2.115M75.442 237.269l2.227-1.992" data-paper-data="{&quot;origPos&quot;:null,&quot;index&quot;:null}"/></g><path fill="#755135" d="M67.066 238c-4.23.515-11.74-1.485-11.74-1.485l-3.104-55.52c-.246-10.157 4.377-14.736 10.854-14.595 6.394-.911 10.126 4.217 11.487 13.107.144.318 4.448 54.68 4.448 54.68s-8.023 3.336-11.945 3.813" data-paper-data="{&quot;origPos&quot;:null,&quot;origRot&quot;:0,&quot;index&quot;:null}"/><path fill="#edc393" d="M93.637 135.469s1.18 3.03 1.23 4.24c-.052.384.16 3.443-1.07 3.234-1.1-.08-.671-1.336-.947-2.442-.27-1.081-.996-3.263-.996-3.263s.454 2.616.488 4.165c-.22 1.526.185 4.616-1.357 4.41-1.284-.4-.71-2.923-.835-3.501-.285-1.318-.451-3.447-.99-3.631.178 1.327.33 2.972.328 4.298-.003 1.113-.205 3.454-.852 4.408-.515.759-1.528.837-1.83-.014-.24-.5.24-3.03.206-3.567-.105-1.611-.08-3.346-.652-4.225a32 32 0 0 1-.247 5.431c-.262 1.93-1.114 4.69-1.982 4.403-2.339-.387-.318-3.34-.456-5.717-.155-2.664-.643-3.342-1.487-5.877-.574 1.307.084 3.015-.973 4.224-1.365 1.242-1.96.005-1.945-.515.055-1.83-.864-5.118-.218-6.869.553-1.816 1.049-4.171 1.794-6.123-.159-2.048-5.043-18.58-5.749-25.529-.005-.049.097-5.016 3.87-5.501 3.766-.726 6.059 2.432 6.384 3.68 2.71 5.756 3.662 26.185 3.662 26.185zM5.854 127.455s.952-20.43 3.66-26.185c.326-1.248 2.62-4.407 6.386-3.68 3.773.484 3.874 5.452 3.869 5.5-.706 6.95-5.59 23.482-5.749 25.53.745 1.951 1.241 4.306 1.794 6.123.646 1.75-.273 5.038-.217 6.869.013.52-.58 1.756-1.946.515-1.057-1.21-.399-2.917-.973-4.224-.843 2.534-1.332 3.212-1.486 5.877-.138 2.376 1.882 5.33-.457 5.716-.868.287-1.72-2.473-1.982-4.402a32 32 0 0 1-.247-5.432c-.572.88-.547 2.614-.651 4.225-.035.537.445 3.068.205 3.567-.302.852-1.315.774-1.83.014-.646-.953-.85-3.294-.851-4.407-.003-1.327.15-2.971.326-4.299-.537.185-.704 2.313-.989 3.631-.125.578.45 3.101-.835 3.5-1.541.207-1.137-2.882-1.357-4.408.034-1.55.488-4.166.488-4.166s-.726 2.182-.996 3.264c-.276 1.106.154 2.362-.946 2.441-1.232.21-1.02-2.85-1.07-3.234.049-1.209 1.23-4.24 1.23-4.24z" data-paper-data="{&quot;origPos&quot;:null,&quot;origRot&quot;:0,&quot;index&quot;:null}"/></g></svg>