<svg xmlns="http://www.w3.org/2000/svg" width="52.626" height="75.581" viewBox="0.172 -0.078 52.626 75.581"><path fill="#00a100" d="M22.563 18.753 4.383 67.714l45.185-1.705z"/><path fill="#8100ff" d="M18.715 47.932a7.469 7.469 0 1 0-1.495-14.787l-4.411 11.878a7.45 7.45 0 0 0 5.906 2.91"/><path fill="#2ec7ff" d="M29.212 50.455a5.954 5.954 0 0 0 5.954 5.955c3.064 0 5.558-2.323 5.888-5.298l-3.483-6.095a5.9 5.9 0 0 0-2.405-.515 5.95 5.95 0 0 0-5.954 5.953"/><path fill="#ff0" d="M22.045 51.567c1.31 0 2.494.531 3.354 1.39a4.73 4.73 0 0 1 1.39 3.353 4.73 4.73 0 0 1-1.39 3.354 4.73 4.73 0 0 1-3.354 1.39 4.73 4.73 0 0 1-3.354-1.39 4.73 4.73 0 0 1-1.39-3.354c0-1.309.532-2.494 1.39-3.353a4.73 4.73 0 0 1 3.354-1.39"/><path fill="#ffb903" d="M9.935 59.035a7.6 7.6 0 0 0-2.488.426l-3.064 8.253 13.09-.494a8 8 0 0 0 .03-.617 7.57 7.57 0 0 0-7.568-7.568"/><path fill="#dc5991" d="M43.138 64.686a6.459 6.459 0 1 0-12.918 0c0 .714.12 1.398.334 2.04l12.383-.466c.126-.505.201-1.03.201-1.574"/><path fill="#ff6b00" d="M22.348 27.545a4.844 4.844 0 0 0 7.538 4.025L25.1 23.194c-1.623.782-2.752 2.429-2.752 4.351"/><path fill="#2ec7ff" d="m27.618 12.676 5.57 4.09-6.597-.77 5.445 9.733-7.771-6.762.77 13.793-4.03-15.213-12.35 2.146 8.723-5.803L5.422 6.88 19.88 9.876 18.41.5l4.76 9.546 10.363-3.862zM.75 71.29l3.229-9.687 4.44 4.844 5.45-3.431 2.826 2.825 4.441-3.229 3.03 4.037 5.347-6.56 4.744 4.944 4.642-3.43 6.057 3.23 5.45-7.066 1.815 12.314-8.074-1.616-4.642 4.24-5.653-3.836L28 73.511l-7.065-3.834-5.248 5.248-2.625-4.644-5.045 3.028-3.23-3.431z"/></svg>