<svg xmlns="http://www.w3.org/2000/svg" width="91.755" height="254.4" viewBox="0 0 91.755 254.4"><g stroke-miterlimit="10" data-paper-data="{&quot;isPaintingLayer&quot;:true}" style="mix-blend-mode:normal"><g data-paper-data="{&quot;origPos&quot;:null}"><path fill="#f0d8c0" d="m54.703 254.4.9-9.7 14.8.6 9.4 2.3 7.4 6.8z"/><path fill="#e2964a" d="m53.903 246.1-3.7-50.4-6.4-62h30l.7 62.3v50.1z"/></g><g data-paper-data="{&quot;origPos&quot;:null}"><path fill="#f0d8c0" d="m16.803 254.4.9-9.7 14.8.6 9.4 2.3 7.4 6.8z"/><path fill="#e2964a" d="m18.303 246.1.5-52.3.7-60.1h29.1l-6.6 61.8-4.7 50.6z"/></g><g data-paper-data="{&quot;origPos&quot;:null}"><path fill="#633b15" d="M80.103 112.378c-3.2.4-8.6-1.3-8.6-1.3s-8.1-46.9-1.1-48.6c12.6-3.4 14.9 46.6 14.9 46.6s-2.1 2.9-5.2 3.3"/><path fill="#62a7a7" d="M65.703 94.078s-8.25-31.9 3.25-34.1c10.1-2 20.85 28 20.85 28z" data-paper-data="{&quot;origPos&quot;:null}"/></g><g fill="#633b15" data-paper-data="{&quot;origPos&quot;:null}"><path d="m88.103 136.178-8.2 2.4-8.8-27.1s3.1-4.2 6.7-3.9c2.7.2 7.3 1 7.3 1z" data-paper-data="{&quot;origPos&quot;:null}"/><path d="M84.619 158.75c-1.884.27-1.113-8.75-2.878-8.911-1.353-.141.26 5.453-.175 6.354-.532.92-3.273-.578-3.273-.578s-2.535-5.107-2.96-7.775c-1.061-5.906 4.604-11.813 4.604-11.813l7.276-.313s4.395 6.269 4.54 10.623c.087 4.06-3.008 9.562-3.008 9.562s-2.302 2.798-4.126 2.852" data-paper-data="{&quot;origPos&quot;:null,&quot;index&quot;:null,&quot;origRot&quot;:0}"/></g><path fill="#84bbbb" d="m17.103 138.8-.2-76.3s15.2-7.9 28.2-8.1 23.933 4.011 26.333 5.311c2.3 1.2 3.067 81.289 3.067 81.289s-17.1 2.8-28.7 2.7c-11.8-.2-28.7-4.9-28.7-4.9" data-paper-data="{&quot;origPos&quot;:null}"/><g data-paper-data="{&quot;origPos&quot;:null}"><path fill="#633b15" d="M6.703 115.1c-2.5-.2-6.3-2.2-6.3-2.2s5.6-50.6 19.9-50.3c11.2-.3-7.2 51.3-7.2 51.3s-3.9 1.4-6.4 1.2"/><path fill="#62a7a7" d="M.603 89.2s11.4-29 18.4-28.2c16.6 1.8 3.9 36.9 3.9 36.9z" data-paper-data="{&quot;origPos&quot;:null}"/></g><g fill="#633b15" data-paper-data="{&quot;origPos&quot;:null}"><path d="m2.403 139.8-2.1-27.7s4-1.2 6.3-1.6c3.2-.6 6.7 3.3 6.7 3.3l-3.2 27.7z"/><path d="M4.903 158.9s-4.1-4.8-4.8-8.8c-.7-4.3 2.4-11.3 2.4-11.3l7.2-1.1s6.7 4.7 6.8 10.7c.1 2.7-1.4 8.2-1.4 8.2s-2.4 2-3.1 1.2-.1-6.6-1.4-6.2c-1.7.5.8 9.2-1.1 9.3-1.8.3-4.6-2-4.6-2"/></g><g fill="#633b15"><path d="m37.603 44.8 15.2 3.4-.1 9.1s4.9.9 4.8 3.7c-.1 4.5-18.9 6.9-22.8 0-1.5-3.4 2-4.6 2-4.6zM33.003 33.7c.8 2.4.3 4.7-1 5.1-1.4.5-3.2-1-4-3.4s-.3-4.7 1-5.1c1.4-.5 3.2 1.1 4 3.4" data-paper-data="{&quot;origPos&quot;:null}"/><path d="M64.503 31.5c0 12.8-7.9 19.6-14.7 19.9-11.8.2-19.4-9.5-19.4-22.3s2.2-22.4 17.2-23.1c11.4-.6 18.862 11.5 16.862 25.2z" data-paper-data="{&quot;origPos&quot;:null}"/></g><path d="M52.903 44.2c0 .7-2 2.2-3.7 2.2-1.8 0-3.5-1.9-3.5-2.7 0-.7 2.2 0 4 0 1.7.1 3.2-.2 3.2.5" data-paper-data="{&quot;origPos&quot;:null}"/><path fill="none" stroke="#000" stroke-linecap="round" stroke-width="1.278" d="M52.303 36.8s-.3 1-2.2 1c-1.4 0-2.2-.8-2.2-.8" data-paper-data="{&quot;origPos&quot;:null}"/><g data-paper-data="{&quot;origPos&quot;:null}"><path fill="none" stroke="#241909" stroke-linecap="round" stroke-width="1.46" d="M38.803 25s2.9-.8 4.4-.8c1.7-.1 3.7.8 3.7.8"/><path fill="none" stroke="#000" stroke-linecap="round" stroke-width="1.46" d="M38.703 29.3s2.2-1.9 4.5-1.7c2.5.2 2.9 1.5 2.9 1.5"/><path d="M42.003 30.1c0-1.2.9-2.2 2.1-2.2s2.1 1 2.1 2.2-.9 2.2-2.1 2.2c-1.1 0-2.1-1-2.1-2.2"/></g><g data-paper-data="{&quot;origPos&quot;:null}"><path fill="none" stroke="#241909" stroke-linecap="round" stroke-width="1.46" d="M54.203 24.9s2.3-.8 4-.8c1.5.1 3.2.5 3.2.5"/><path fill="none" stroke="#000" stroke-linecap="round" stroke-width="1.46" d="M54.203 29s.5-1.3 2.9-1.5c2.3-.2 4.5 1.7 4.5 1.7"/><path d="M58.903 32c-1.2 0-2.1-1-2.1-2.2s.9-2.2 2.1-2.2 2.1 1 2.1 2.2-1 2.2-2.1 2.2"/></g><path fill="#221509" d="M56.303 16.1c-2.5-.5-15-.1-17.3 1-5.7 2.9-6.6 14.4-6.6 14.4l-2.6-.8s-3.5-24.9 17.9-24.7c11.4-.6 16.3 10.2 16.8 16.7 0-.1-.1-5-8.2-6.6" data-paper-data="{&quot;origPos&quot;:null}"/><g data-paper-data="{&quot;origPos&quot;:null}"><path fill="#161006" d="M24.203 27.4c0-2.5 2-4.5 4.5-4.5s4.5 2 4.5 4.5-2 4.5-4.5 4.5-4.5-2-4.5-4.5" data-paper-data="{&quot;origPos&quot;:null}"/><path fill="#241909" d="M59.403 16.6c0-2.8 2.3-5.1 5.1-5.1s5.1 2.3 5.1 5.1-2.3 5.1-5.1 5.1-5.1-2.3-5.1-5.1" data-paper-data="{&quot;origPos&quot;:null}"/><path fill="#26150a" d="M52.003 11.5c0-4.1 3.3-7.4 7.4-7.4s7.4 3.3 7.4 7.4-3.3 7.4-7.4 7.4-7.4-3.3-7.4-7.4" data-paper-data="{&quot;origPos&quot;:null}"/><path fill="#1d1407" d="M23.803 22.1c0-3.3 2.7-6 6-6s6 2.7 6 6-2.7 6-6 6-6-2.7-6-6" data-paper-data="{&quot;origPos&quot;:null}"/><path fill="#100904" d="M28.003 13.6c0-4.1 3.3-7.4 7.4-7.4s7.4 3.3 7.4 7.4-3.3 7.4-7.4 7.4-7.4-3.3-7.4-7.4" data-paper-data="{&quot;origPos&quot;:null}"/><path fill="#181106" d="M38.103 9.2c0-5.1 4.1-9.2 9.2-9.2s9.2 4.1 9.2 9.2-4.1 9.2-9.2 9.2-9.2-4.1-9.2-9.2" data-paper-data="{&quot;origPos&quot;:null}"/></g></g></svg>