<svg xmlns="http://www.w3.org/2000/svg" width="80.976" height="49.609" viewBox="0.52 0.418 80.976 49.609"><path fill="#ffdb48" stroke="#dd7e00" stroke-linecap="round" stroke-linejoin="round" stroke-width="1.28" d="M6.568 30.177a5.37 5.37 0 0 1 3.823 1.598 5.46 5.46 0 0 1 1.585 3.854 5.46 5.46 0 0 1-1.585 3.854 5.37 5.37 0 0 1-7.646 0 5.46 5.46 0 0 1-1.585-3.854c0-1.504.606-2.867 1.585-3.854a5.37 5.37 0 0 1 3.823-1.598"/><path fill="none" stroke="#fff" stroke-linecap="round" stroke-linejoin="round" stroke-width=".848" d="M6.568 32.903c.746 0 1.422.306 1.912.799.489.494.792 1.175.792 1.927a2.73 2.73 0 0 1-.792 1.927 2.69 2.69 0 0 1-3.824 0 2.73 2.73 0 0 1-.792-1.927c0-.752.303-1.433.792-1.927a2.7 2.7 0 0 1 1.912-.799"/><path fill="#ffdb48" stroke="#dd7e00" stroke-linecap="round" stroke-linejoin="round" stroke-width="1.28" d="M15.688 33.048a5.3 5.3 0 0 1 3.778 1.579 5.4 5.4 0 0 1 1.566 3.808 5.4 5.4 0 0 1-1.566 3.809 5.31 5.31 0 0 1-7.556 0 5.4 5.4 0 0 1-1.566-3.809c0-1.486.599-2.833 1.566-3.808a5.3 5.3 0 0 1 3.778-1.579"/><path fill="none" stroke="#fff" stroke-linecap="round" stroke-linejoin="round" stroke-width=".848" d="M15.688 35.742c.737 0 1.405.302 1.889.789s.783 1.161.783 1.904c0 .744-.299 1.417-.783 1.905a2.656 2.656 0 0 1-3.778 0 2.7 2.7 0 0 1-.783-1.905c0-.743.299-1.416.783-1.904a2.66 2.66 0 0 1 1.889-.789"/><path fill="#ffdb48" stroke="#dd7e00" stroke-linecap="round" stroke-linejoin="round" stroke-width="1.28" d="M24.776 35.823c1.474 0 2.81.603 3.778 1.578a5.4 5.4 0 0 1 1.566 3.809 5.4 5.4 0 0 1-1.566 3.808 5.31 5.31 0 0 1-7.556 0 5.4 5.4 0 0 1-1.566-3.808c0-1.487.599-2.833 1.566-3.809a5.3 5.3 0 0 1 3.778-1.578"/><path fill="none" stroke="#fff" stroke-linecap="round" stroke-linejoin="round" stroke-width=".848" d="M24.776 38.516c.737 0 1.405.302 1.889.79.484.487.783 1.161.783 1.904s-.299 1.416-.783 1.904a2.656 2.656 0 0 1-3.778 0 2.7 2.7 0 0 1-.783-1.904c0-.743.299-1.417.783-1.904a2.65 2.65 0 0 1 1.889-.79"/><path fill="#ffdb48" stroke="#dd7e00" stroke-linecap="round" stroke-linejoin="round" stroke-width="1.28" d="M33.896 38.613a5.3 5.3 0 0 1 3.778 1.579A5.4 5.4 0 0 1 39.24 44a5.4 5.4 0 0 1-1.566 3.808 5.31 5.31 0 0 1-7.556 0A5.4 5.4 0 0 1 28.552 44c0-1.486.599-2.833 1.566-3.808a5.3 5.3 0 0 1 3.778-1.579"/><path fill="none" stroke="#fff" stroke-linecap="round" stroke-linejoin="round" stroke-width=".848" d="M33.896 41.306c.737 0 1.405.302 1.889.79.484.487.783 1.161.783 1.904s-.299 1.417-.783 1.904a2.653 2.653 0 0 1-3.778 0A2.7 2.7 0 0 1 31.224 44c0-.743.299-1.417.783-1.904a2.65 2.65 0 0 1 1.889-.79"/><path fill="#8b49d4" stroke="#8b49d4" stroke-width=".848" d="m12.392 30.548-4.176 2.92c-1.792 1.242-.592 2.403-.112 2.613a4.43 4.43 0 0 0 2.592-.178 2.39 2.39 0 0 1 2.736 1.113c.64.984 1.104 1.516 1.968 1.742a6.07 6.07 0 0 0 3.104-.516 2.515 2.515 0 0 1 2.72.742q.664.633 1.232 1.355a2.646 2.646 0 0 0 3.2 1.145 21 21 0 0 1 2.368-.629c.784-.129 1.712.145 2.56 1.613 1.44 2.613 3.328 1.484 3.6.403a8.3 8.3 0 0 0-.432-2.968L33 36.823z"/><path fill="#fff" stroke="#5e154d" stroke-linecap="round" stroke-linejoin="round" stroke-width="1.28" d="m16.728 15.21 14.4 10.806c.416.307 1.84-.403 2.736-.984-1.408-1.226-2.976-2.532-4.8-4.097a27.3 27.3 0 0 1-5.44-5.854 35 35 0 0 1-1.28-5.936h-4.192v4.42a1.61 1.61 0 0 1-1.424 1.645"/><path fill="#f7c1d8" d="M31.16 26.016 16.76 15.21a8.05 8.05 0 0 1-4.224-.775c-1.52-.677-3.12.549-1.6 2.194s2.352 3.984 1.6 5.516a1.94 1.94 0 0 1-.944.839c.936 1.81 2.086 3.5 3.424 5.032 1.6 1.355 9.408 3.919 11.2 4.645 2.672 1.113 3.68-.613 3.536-1.726s.864-1.87 2.096-1.112a5.71 5.71 0 0 0 6.24-.613 16 16 0 0 0-.96-1.194c-.944-1.016-1.984-1.968-3.2-2.984-.928.581-2.352 1.291-2.768.984"/><path fill="#da53d6" d="M37.992 29.21a5.71 5.71 0 0 1-6.24.613c-1.232-.758-2.256-.178-2.096 1.112s-.864 2.839-3.536 1.726c-1.776-.726-9.6-3.226-11.2-4.645a25.4 25.4 0 0 1-3.424-5.032 4.1 4.1 0 0 1-4.224-.968 12 12 0 0 1-2.08-2.226v7.113A3.83 3.83 0 0 0 7.576 31c2.224 1.306 19.536 6.726 22.784 7.79a8.61 8.61 0 0 0 8.112-2.306c1.52-1.613 1.488-4.5-.48-7.274"/><path fill="#ffff4f" stroke="#5e154d" stroke-linecap="round" stroke-linejoin="round" stroke-width="1.28" d="M15.4 1.677a33.3 33.3 0 0 0-8.56-.548c-2.608.629-3.296 2.661-3.296 5.419a7.28 7.28 0 0 0 1.6 4.839v8.371c.616.827 1.337 1.57 2.144 2.21a4.1 4.1 0 0 0 4.224.967c.399-.165.731-.46.944-.838.752-1.613 0-3.758-1.6-5.516s.128-2.871 1.6-2.194a8.05 8.05 0 0 0 4.224.774 1.61 1.61 0 0 0 1.424-1.613V2.145S17 1.919 15.4 1.677"/><path fill="#5e154d" stroke="#5e154d" stroke-linecap="round" stroke-linejoin="round" stroke-width=".848" d="M12.632 26.645a14.53 14.53 0 0 1 4.496-7.016c2.432-1.871 8.128-2.339 8.128-2.339l3.92 3.645s-6.624.968-8.096 2.194a16.1 16.1 0 0 0-3.744 5.436 2.535 2.535 0 0 1-3.238 1.245 2.57 2.57 0 0 1-1.466-3.165M25.128 5.516v6.032a41.5 41.5 0 0 1-10.752-.774C10.904 10 8.408 8.855 8.856 6.29c.352-2.048 2.736-2.274 6.56-1.613 3.218.475 6.461.755 9.712.839"/><path fill="#da53d6" stroke="#da53d6" stroke-linecap="round" stroke-linejoin="round" stroke-width=".848" d="M9.832 18.532c.441 0 .841.181 1.131.473s.469.695.469 1.14-.179.848-.469 1.14a1.59 1.59 0 0 1-2.262 0 1.61 1.61 0 0 1-.469-1.14c0-.445.179-.848.469-1.14a1.6 1.6 0 0 1 1.131-.473"/><path fill="#fff" stroke="#5e154d" stroke-linecap="round" stroke-linejoin="round" stroke-width=".64" d="M15.528 16.081c.441 0 .841.18 1.131.472s.469.696.469 1.141-.179.848-.469 1.14a1.59 1.59 0 0 1-2.262 0 1.61 1.61 0 0 1-.469-1.14c0-.445.179-.849.469-1.141a1.6 1.6 0 0 1 1.131-.472M24.328 22.935c.441 0 .841.181 1.131.473s.469.695.469 1.14-.179.849-.469 1.141a1.59 1.59 0 0 1-2.262 0 1.62 1.62 0 0 1-.469-1.141c0-.445.179-.848.469-1.14a1.6 1.6 0 0 1 1.131-.473M27.144 24.935c.441 0 .841.181 1.131.473s.469.695.469 1.14-.179.849-.469 1.141a1.59 1.59 0 0 1-2.262 0 1.62 1.62 0 0 1-.469-1.141c0-.445.179-.848.469-1.14a1.6 1.6 0 0 1 1.131-.473"/><path fill="none" stroke="#5e154d" stroke-linecap="round" stroke-linejoin="round" stroke-width=".848" d="m15.528 17.694 8.608-1.936M24.328 24.548l6.512-2.145M27.144 26.548l5.136-2.919"/><path fill="none" stroke="#5e154d" stroke-linecap="round" stroke-linejoin="round" stroke-width="1.28" d="M37.992 29.21a16 16 0 0 0-.96-1.194c-.944-1.016-1.984-1.968-3.2-2.984-.896.581-2.32 1.291-2.736.984l-14.4-10.806a8.05 8.05 0 0 1-4.224-.775c-1.52-.677-3.12.549-1.6 2.194s2.352 3.984 1.6 5.516a1.94 1.94 0 0 1-.944.839 4.1 4.1 0 0 1-4.224-.968 12 12 0 0 1-2.08-2.226v7.113A3.83 3.83 0 0 0 7.608 31c2.224 1.306 19.536 6.726 22.784 7.79a8.61 8.61 0 0 0 8.08-2.306c1.52-1.613 1.488-4.5-.48-7.274"/><path fill="none" stroke="#fff" stroke-linecap="round" stroke-linejoin="round" stroke-width=".848" d="M33.624 36.71a8 8 0 0 0 1.072-.258M28.936 35.935a6.9 6.9 0 0 0 3.2.92"/><path fill="#ffdb48" stroke="#dd7e00" stroke-linecap="round" stroke-linejoin="round" stroke-width="1.28" d="M47.832 30.806a5.37 5.37 0 0 1 3.823 1.598 5.46 5.46 0 0 1 1.585 3.854 5.46 5.46 0 0 1-1.585 3.854 5.37 5.37 0 0 1-7.646 0 5.46 5.46 0 0 1-1.585-3.854c0-1.504.606-2.867 1.585-3.854a5.37 5.37 0 0 1 3.823-1.598"/><path fill="none" stroke="#fff" stroke-linecap="round" stroke-linejoin="round" stroke-width=".848" d="M47.832 33.532c.746 0 1.422.306 1.912.799.489.494.792 1.175.792 1.927a2.73 2.73 0 0 1-.792 1.927 2.69 2.69 0 0 1-3.824 0 2.73 2.73 0 0 1-.792-1.927c0-.752.303-1.433.792-1.927a2.7 2.7 0 0 1 1.912-.799"/><path fill="#ffdb48" stroke="#dd7e00" stroke-linecap="round" stroke-linejoin="round" stroke-width="1.28" d="M57.064 33.242a5.3 5.3 0 0 1 3.778 1.579 5.4 5.4 0 0 1 1.566 3.808 5.4 5.4 0 0 1-1.566 3.808 5.31 5.31 0 0 1-7.556 0 5.4 5.4 0 0 1-1.566-3.808c0-1.486.599-2.833 1.566-3.808a5.3 5.3 0 0 1 3.778-1.579"/><path fill="none" stroke="#fff" stroke-linecap="round" stroke-linejoin="round" stroke-width=".848" d="M57.064 35.935c.737 0 1.405.302 1.889.79s.783 1.161.783 1.904-.299 1.417-.783 1.904a2.653 2.653 0 0 1-3.778 0 2.7 2.7 0 0 1-.783-1.904c0-.743.299-1.416.783-1.904a2.65 2.65 0 0 1 1.889-.79"/><path fill="#ffdb48" stroke="#dd7e00" stroke-linecap="round" stroke-linejoin="round" stroke-width="1.28" d="M66.264 35.597c1.474 0 2.81.603 3.778 1.579a5.4 5.4 0 0 1 1.566 3.808 5.4 5.4 0 0 1-1.566 3.808 5.31 5.31 0 0 1-7.556 0 5.4 5.4 0 0 1-1.566-3.808c0-1.486.599-2.833 1.566-3.808a5.3 5.3 0 0 1 3.778-1.579"/><path fill="none" stroke="#fff" stroke-linecap="round" stroke-linejoin="round" stroke-width=".848" d="M66.264 38.29c.737 0 1.405.302 1.889.79.484.487.783 1.161.783 1.904s-.299 1.416-.783 1.904a2.65 2.65 0 0 1-3.778 0 2.7 2.7 0 0 1-.783-1.904c0-.743.299-1.417.783-1.904a2.65 2.65 0 0 1 1.889-.79"/><path fill="#ffdb48" stroke="#dd7e00" stroke-linecap="round" stroke-linejoin="round" stroke-width="1.28" d="M75.512 37.968c1.474 0 2.81.603 3.778 1.579a5.4 5.4 0 0 1 1.566 3.808 5.4 5.4 0 0 1-1.566 3.808 5.31 5.31 0 0 1-7.556 0 5.4 5.4 0 0 1-1.566-3.808c0-1.486.599-2.833 1.566-3.808a5.3 5.3 0 0 1 3.778-1.579"/><path fill="none" stroke="#fff" stroke-linecap="round" stroke-linejoin="round" stroke-width=".848" d="M75.512 40.661c.737 0 1.405.302 1.889.79.484.487.783 1.161.783 1.904s-.299 1.416-.783 1.904a2.65 2.65 0 0 1-3.778 0 2.7 2.7 0 0 1-.783-1.904c0-.743.299-1.417.783-1.904a2.65 2.65 0 0 1 1.889-.79"/><path fill="#8b49d4" stroke="#8b49d4" stroke-linecap="round" stroke-linejoin="round" stroke-width=".848" d="m53.416 30.919-4.048 3.097c-1.728 1.323-.464 2.436 0 2.613a4.36 4.36 0 0 0 2.576-.29 2.36 2.36 0 0 1 2.784.984 3.35 3.35 0 0 0 2.048 1.612 5.9 5.9 0 0 0 3.088-.661 2.5 2.5 0 0 1 2.752.629q.677.608 1.28 1.291a2.66 2.66 0 0 0 3.2 1 17.4 17.4 0 0 1 2.352-.726c.768-.194 1.712 0 2.624 1.613 1.6 2.548 3.392 1.322 3.616.225a8 8 0 0 0-.56-2.935c-.704-2.29-.96-3.097-.96-3.097z"/><path fill="#fff" stroke="#5e154d" stroke-linecap="round" stroke-linejoin="round" stroke-width="1.28" d="m57 15.387 14.912 10.129c.416.29 1.824-.484 2.688-1.097-1.408-1.177-3.04-2.451-4.8-3.887a27.2 27.2 0 0 1-5.696-5.597 34.6 34.6 0 0 1-1.6-5.87l-4.304.193.208 4.419A1.61 1.61 0 0 1 57 15.387"/><path fill="#f7c1d8" d="M71.96 25.516 57 15.387a8.2 8.2 0 0 1-4.256-.581c-1.6-.596-3.088.694-1.6 2.259s2.528 3.887 1.84 5.451a1.8 1.8 0 0 1-.912.871 27 27 0 0 0 3.648 4.839c1.696 1.258 9.6 3.468 11.392 4.113 2.72.984 3.648-.774 3.456-1.887s.768-1.92 2.048-1.21a5.69 5.69 0 0 0 6.32-.823 13 13 0 0 0-1.024-1.129 37 37 0 0 0-3.2-2.838c-.928.58-2.336 1.354-2.752 1.064"/><path fill="#da53d6" d="M78.936 28.419a5.69 5.69 0 0 1-6.208.904c-1.28-.71-2.272-.081-2.048 1.209s-.736 2.871-3.456 1.887c-1.808-.645-9.696-2.854-11.392-4.113a27 27 0 0 1-3.648-4.838 4.09 4.09 0 0 1-4.24-.758 11.6 11.6 0 0 1-2.144-2.226l.336 7.113a3.81 3.81 0 0 0 2.512 4.048c2.272 1.194 19.808 5.823 23.104 6.726a8.68 8.68 0 0 0 8-2.661c1.44-1.791 1.248-4.629-.816-7.291"/><path fill="#ffff4f" stroke="#5e154d" stroke-linecap="round" stroke-linejoin="round" stroke-width="1.28" d="M55.128 1.935a32.3 32.3 0 0 0-8.56-.161c-2.576.758-3.2 2.823-3.056 5.565a7.3 7.3 0 0 0 1.872 4.838l.304 6.565v1.726c.634.809 1.371 1.53 2.192 2.145a4.09 4.09 0 0 0 4.24.758 1.8 1.8 0 0 0 .912-.871c.688-1.613-.176-3.758-1.84-5.452s0-2.854 1.6-2.258a8.2 8.2 0 0 0 4.256.581 1.61 1.61 0 0 0 1.36-1.71L58.2 9.242l-.304-7s-1.168-.145-2.768-.307"/><path fill="#5e154d" stroke="#5e154d" stroke-linecap="round" stroke-linejoin="round" stroke-width=".848" d="M53.48 27a14.55 14.55 0 0 1 4.176-7.21c2.336-1.984 8-2.709 8-2.709l4.144 3.451s-6.576 1.274-8 2.565a16.15 16.15 0 0 0-3.504 5.597 2.545 2.545 0 0 1-3.248 1.58A2.575 2.575 0 0 1 53.48 27M65 5.323l.272 6.032a41.5 41.5 0 0 1-10.784-.29c-3.488-.613-6.032-1.613-5.712-4.226.272-2.065 2.64-2.404 6.4-1.855 3.265.311 6.546.424 9.824.339"/><path fill="#da53d6" stroke="#da53d6" stroke-linecap="round" stroke-linejoin="round" stroke-width=".848" d="M50.309 18.97c.44-.02.848.142 1.151.42a1.62 1.62 0 0 1 .105 2.28 1.59 1.59 0 0 1-2.261.103 1.62 1.62 0 0 1-.52-1.118c-.02-.444.14-.856.416-1.161a1.6 1.6 0 0 1 1.109-.523"/><path fill="#fff" stroke="#5e154d" stroke-linecap="round" stroke-linejoin="round" stroke-width=".64" d="M55.976 16.306c.441 0 .841.181 1.131.473s.469.695.469 1.14-.179.849-.469 1.141a1.59 1.59 0 0 1-2.262 0 1.62 1.62 0 0 1-.469-1.141c0-.445.179-.848.469-1.14a1.6 1.6 0 0 1 1.131-.473M65.08 22.742c.441 0 .841.181 1.131.473s.469.695.469 1.14-.179.848-.469 1.14a1.59 1.59 0 0 1-2.262 0 1.61 1.61 0 0 1-.469-1.14c0-.445.179-.848.469-1.14a1.6 1.6 0 0 1 1.131-.473M67.976 24.629c.441 0 .841.181 1.131.473s.469.695.469 1.14-.179.848-.469 1.14a1.59 1.59 0 0 1-2.262 0 1.61 1.61 0 0 1-.469-1.14c0-.445.179-.848.469-1.14a1.6 1.6 0 0 1 1.131-.473"/><path fill="none" stroke="#5e154d" stroke-linecap="round" stroke-linejoin="round" stroke-width=".848" d="m55.976 17.919 8.496-2.338M65.08 24.355l6.4-2.436M67.976 26.242l4.992-3.161"/><path fill="none" stroke="#5e154d" stroke-linecap="round" stroke-linejoin="round" stroke-width="1.28" d="M78.936 28.419a13 13 0 0 0-1.024-1.129 37 37 0 0 0-3.2-2.838c-.864.613-2.272 1.387-2.688 1.096L57 15.387a8.2 8.2 0 0 1-4.256-.581c-1.6-.596-3.088.694-1.6 2.259s2.528 3.887 1.84 5.451a1.8 1.8 0 0 1-.912.871 4.09 4.09 0 0 1-4.24-.758 11.6 11.6 0 0 1-2.032-2.145c.16 3.435.272 5.871.336 7.113a3.81 3.81 0 0 0 2.512 4.048c2.272 1.194 19.808 5.823 23.104 6.726a8.68 8.68 0 0 0 8-2.661c1.44-1.791 1.248-4.629-.816-7.291"/><path fill="none" stroke="#fff" stroke-linecap="round" stroke-linejoin="round" stroke-width=".848" d="M74.6 36.129q.534-.095 1.056-.242M69.96 35.371c.98.556 2.076.871 3.2.919"/></svg>