<svg xmlns="http://www.w3.org/2000/svg" width="47" height="57" viewBox="0 0 47 57"><title>Slice 1</title><g fill="none" fill-rule="evenodd"><path fill="#4e9a06" stroke="#231f20" stroke-width="2.725" d="M39.345 55.303c-20.582-.639-36.982-12.246-36.982-26.47s16.4-25.831 36.982-26.47"/><path fill="#356804" d="m39.372 50.24-.222.007c-1.463.055-2.927-.273-4.362-.518-2.011-.384-3.967-.941-5.945-1.473-1.02-.32-2.078-.612-3.053-1.063-1.342-.721-2.634-1.525-3.981-2.236-2.106-1.18-4.182-2.41-6.135-3.845-3.34-2.914-6.611-5.968-9.625-9.243l-2.127-2.263c.013.293.027.582.054.872.004.006-.004.021 0 .028.102.154.22.302.3.463 1.262 2.036 2.587 4.03 4.118 5.862a43 43 0 0 0 4.062 4.527c1.488 1.478 2.923 3.036 4.608 4.28 1.342 1.037 2.696 2.045 4.145 2.918 1.597 1.007 3.22 1.974 4.908 2.808 2.216.942 4.539 1.612 6.844 2.29 2.068.318 4.2.524 6.382.598M39.368 36.293a16.8 16.8 0 0 1-3.79-.225c-2.323-.3-4.653-.446-6.98-.709a31.5 31.5 0 0 1-3.872-.545 103 103 0 0 1-7.689-2.318c-1.921-.734-3.791-1.645-5.726-2.345a21.3 21.3 0 0 0-4.471-1.227c-.606-.097-1.205-.325-1.8-.463-.111-.026-.215-.063-.327-.082-.717.191-.289 1.227.327 1.145.794.408 1.6.838 2.345 1.336 3.487 2.082 6.964 4.164 10.525 6.108 1.633 1.027 3.41 1.746 5.208 2.4 2.218.679 4.493 1.21 6.734 1.799 2.166.496 4.343.923 6.544 1.2.995.032 1.984.016 2.973-.015"/><path fill="#356804" d="M39.364 21.927q-1.377.123-2.75.235c-3.6.226-7.199.243-10.797.49-1.431.134-2.88.316-4.28.655-1.085.216-2.192.378-3.218.818-1.374.459-2.675 1.09-3.981 1.718a20.7 20.7 0 0 1-5.617 1.472c-.98.103-1.939.292-2.918.382-.44.035-1.312-.23-1.39.382.167.247.368.342.627.382.432.066.984-.04 1.39.081 2.173.238 4.32.44 6.463.9 1.778.348 3.526.896 5.29 1.31.654.113 1.295.245 1.962.244 1.087.048 2.204.156 3.272-.109.685-.208 1.124-.829 1.691-1.227.598-.376 1.343-.385 2.018-.327 2.049.138 4.083.364 6.135.464 2.042.04 4.078-.075 6.118-.146"/><path fill="#356804" fill-rule="nonzero" d="M39.366 6.607a7 7 0 0 0-.488.013c-.753.041-1.486.212-2.236.3-2.152.363-4.308.792-6.38 1.5a66 66 0 0 0-4.281 1.472c-1.403.592-2.814 1.154-4.145 1.909-2.115 1.124-4.215 2.296-6.217 3.626a75 75 0 0 0-4.826 3.818c-1.809 1.559-3.501 3.254-5.126 5.017-.372.374-1.023.657-1.063 1.254-.322.056 32.71-17.08 34.21-15.915m.177 2.343c-2.257-1.785-34.587 14.113-34.387 14.69-.24.141-.454.32-.464.654.185.602 1.025.352 1.445.164.826-.37 1.715-.437 2.563-.736 1.753-.574 3.47-1.246 5.126-2.073 1.507-.699 2.97-1.556 4.445-2.317 1.834-.716 3.69-1.328 5.617-1.718 1.163-.266 2.372-.408 3.544-.627 2.875-.453 5.758-.619 8.644-.982 1.28-.153 2.563-.318 3.848-.453"/><path fill="#356804" d="M39.345 3.405c-3.057.102-6.017.46-8.838 1.034a89 89 0 0 0-4.717 1.854c-1.443.72-2.81 1.616-4.172 2.481-1.852 1.347-3.8 2.57-5.644 3.927-2.14 1.648-4.13 3.492-6.08 5.371-.844.81-1.612 1.678-2.318 2.618a66 66 0 0 0-3.3 4.58q-.044.218-.081.437c1.101-1.375 2.244-2.721 3.353-4.09 1.453-1.683 2.8-3.477 4.5-4.908 1.31-1.189 2.666-2.34 4.144-3.3 1.056-.706 2.058-1.502 3.163-2.126a158 158 0 0 1 6.08-3.436c.834-.415 1.63-.961 2.536-1.2 2.656-.94 5.398-1.538 8.125-2.208a12.9 12.9 0 0 1 3.275-.449"/><path fill="#bfef90" d="M19.017 14.736c-3.383 1.921-4.952 4.864-6.18 3.416-1.227-1.449.521-4.179 3.905-6.1s7.12-2.306 8.348-.857c1.228 1.448-2.69 1.62-6.072 3.54"/><path fill="#ee1717" stroke="#231f20" stroke-linejoin="round" stroke-width="2.739" d="M44.68 28.833c0 14.65-2.619 26.526-5.85 26.526s-5.85-11.876-5.85-26.526S35.6 2.307 38.83 2.307c3.231 0 5.85 11.876 5.85 26.526Z"/><path fill="#231f20" d="M39.637 11.792c0 1.27-.475 2.298-1.06 2.298s-1.061-1.029-1.061-2.298.475-2.298 1.06-2.298 1.061 1.029 1.061 2.298M40.52 19.747c0 1.27-.474 2.298-1.06 2.298s-1.06-1.029-1.06-2.298.474-2.298 1.06-2.298 1.06 1.029 1.06 2.298M37.692 25.404c0 1.27-.474 2.298-1.06 2.298s-1.06-1.029-1.06-2.298.474-2.298 1.06-2.298 1.06 1.029 1.06 2.298M41.582 29.47c0 1.27-.475 2.298-1.061 2.298s-1.06-1.029-1.06-2.298.474-2.298 1.06-2.298 1.06 1.029 1.06 2.298M39.99 47.324c0 1.27-.474 2.298-1.06 2.298s-1.06-1.028-1.06-2.298c0-1.269.474-2.298 1.06-2.298s1.06 1.03 1.06 2.298M41.405 40.076c0 1.27-.475 2.299-1.06 2.299-.587 0-1.062-1.03-1.062-2.299s.475-2.298 1.061-2.298 1.06 1.03 1.06 2.298M38.223 35.834c0 1.269-.475 2.298-1.06 2.298-.587 0-1.062-1.029-1.062-2.298s.475-2.298 1.061-2.298 1.06 1.029 1.06 2.298"/></g></svg>