<svg xmlns="http://www.w3.org/2000/svg" xml:space="preserve" width="183.129" height="180.387" viewBox="0.354 0.055 183.129 180.387"><title>Slice 1</title><g fill-rule="evenodd"><path fill="#bb9696" d="m154.358 100.732 23.523-7.233s1.917.618 2.243 3.38 2.809 42.984 2.809 42.984.699 6.092-3.456 6.092c-8.758 0-14.716 2.492-15.692 3.745-.975 1.252 2.172-10.596 2.172-10.596l9.985.583c.637-3.33-4.593-30.848-4.734-31.684-.043-.258-2.3.734-3.439 1.546s-18.213 9.57-18.213 9.57z"/><path fill="#5f5579" d="M179.478 145.955s1.863-2.788-.894-5.242c-1.23-1.093-10.326-1.435-12.46-1.596-.167-.013-1.388 2.534-2.554 10.606 0 0 1.465-1.654 7.298-2.819 3.549-.708 4.875-.54 8.61-.949"/><path fill="none" stroke="#26214b" stroke-width=".5" d="m154.996 100.596 21.705-6.933s2.985-1.408 3.528 4.008c.595 5.944 2.713 42.354 2.713 42.354s.706 5.688-3.744 5.958-14.326 1.354-15.683 4.116c0 0 1.194-8.503 2.442-10.995l9.984.759s-.162-6.175-1.138-11.483c-.977-5.307-3.962-22.314-3.962-22.639M150.166 118.902l21-11.157"/><path fill="none" stroke="#26214b" stroke-width=".5" d="M179.478 145.955s2.758-5.28-3.537-6.092"/><path fill="#bb9696" d="M16.975 179.524s-5.642-8.274-7.35-9.493c-.24-.171 7.99-4.097 9.278-6.066.106-.162-3.235-7.862-3.893-9.868C14.176 151.555.962 124.618.915 122.45c-.06-2.87 1.227-2.433 3.526-2.487 7.271-.167 16.36-2.605 21.299-13.03 4.637-9.79 20.05 14.435 8.22 19.58s-19.562 3.628-17.934 7.5c1.628 3.873 9.28 27.807 9.918 30.093.908 3.252-.079 4.071-1.621 5.647-2.185 2.232-7.403 7.578-7.348 9.771"/><path fill="none" stroke="#26214b" stroke-width=".5" d="M23.21 110.995s-4.333 6.407-11.307 7.853c-7.054 1.463-9.876 1.138-9.876 1.138s-2.876.054.38 6.553c3.255 6.5 15.682 33.689 16.496 37.426.217.704-9.279 6.066-9.279 6.066s5.752 6.011 7.326 9.911c0 0-.543-2.546 7.868-10.67 2.279-2.112 1.357-3.954 1.085-5.362-.271-1.408-9.822-30.167-9.822-30.167s.217-2.491 9.116-5.524"/><path fill="none" stroke="#26214b" stroke-width=".5" d="M17.951 164.917s3.937-1.413 5.538.537c1.6 1.95 1.257 4.1.289 4.839"/><path fill="#5f5579" d="M24.596 169.192s.194-4.388-3.323-4.749c-3.028-.31-4.997 1.723-7.086 2.915s-4.56 2.671-4.447 2.795c6.341 6.892 6.775 9.132 7.029 9.371.289.274.533-1.64 2.332-3.956 1.246-1.606 3.998-4.516 5.495-6.377"/><path fill="#d7c3bc" d="M107.347 14.758S106.251.033 93.637.602l10.012 14.081z"/><path fill="#d7c3bc" d="M118.636 35.63s-1.14-5.796.868-9.695 1.903-8.15 1.903-8.15-5.124-2.61-12.752-2.885c-6.872-.247-6.301-.5-6.301-.5S90.26-.252 80.492 2.836c0 0 13.66 10.521 17.836 13.5 0 0-6.457 5.334-5.249 13.353 1.287 8.54 6.472 16.776 11.767 24.78 5.652 8.546 9.955 17.103 9.955 17.103s-3.945 2.023-12.746 3.731c-17.581 3.412-47.535-3.302-53.893-2.772-10.175.849-26.034 8.798-27.878 10.314 0 0 .627 6.106 11.273 5.016 0 0-6.198 11.976-8.358 23.51s-.31 15.02-.31 15.02l30.604 5.158s11.28 9.656 40.43 10.372c21.528.528 52.879-5.252 60.545-28.392 7.745-23.376-10.253-44.919-15.942-51.333-11.937-13.458-19.89-26.566-19.89-26.566"/><path fill="#bb968c" d="M107.328 14.605s-.688-7.296-4.676-10.876C98.856.322 93.963.601 93.963.601s10.419 3.839 12.254 13.912zM102.347 14.9c.325-.305-10.724-14.314-21.707-12.103 0 0 3.555-.185 21.707 12.103"/><path fill="none" stroke="#26214b" stroke-width=".5" d="M102.251 15.292S86.272 3.553 80.75 3.032"/><path fill="#f0e1db" d="M134.712 28.135s-8.829-1.631-11.25-6.378c-1.158-2.267 1.9-1.903-2.3-4-3.202-1.598-1.879.653-1.004.948s-11.7-1.273-15.46 1.019c-3.11 1.896-4.454 7.347 1.553 13.56 4.754 4.917 2.833 1.549 2.833 1.549l.927.96s12.21-1.3 18.144-.386c5.813.897 7.048.622 7.251-.272s2.602-6.391-.695-7"/><path fill="none" stroke="#26214b" stroke-width=".5" d="M122.126 18.332s-2.347-1.36-2.944-1.09.977 1.463.977 1.463-12.643-1.355-15.954 1.354-2.17 6.554-1.085 9.045 6.402 7.528 6.402 7.528l-.488-2.004s.378 1.226 1.466 1.083c0 0 8.41-1.355 20.945 0 1.465.108 3.582 1.029 4.179-1.3s.922-4.603.76-4.766c-.163-.162.27-1.3-2.334-1.625s-12.384-3.845-10.587-8.557c0 0-3.739-5.091-21.049-4.766 0 0-11.504-14.624-21.922-11.862L98.453 16.43s1.682 1.245.489 2.383"/><path fill="#26214b" d="M117.39 23.2s-7.107.271-7.65.217c0 0 .922 4.007 3.825 3.628.298-.108 2.849.325 3.826-3.845M135.732 28.995h-6.24s3.473 3.954 5.969 3.846c1.174.002.567-.19.567-.19s.637-2.8.281-3.35c-.224-.348-.577-.306-.577-.306M117.825 23.715s-.018.322-.082.79c-.03.233-.082.503-.152.784-.03.143-.077.284-.123.428-.037.148-.108.283-.162.425-.065.136-.13.274-.208.4-.09.116-.151.255-.254.353-.095.102-.177.216-.281.294-.1.083-.189.174-.293.225-.1.057-.188.119-.27.17l-.227.098-.2.095.219-.034c.141-.02.343-.058.567-.17.12-.039.228-.121.35-.197.127-.072.235-.178.347-.29.121-.104.207-.244.307-.376.09-.138.166-.287.24-.436.125-.307.229-.623.268-.928.054-.303.052-.59.054-.832-.014-.487-.1-.8-.1-.8"/><path fill="none" stroke="#26214b" stroke-width=".5" d="M103.649 14.683 93.637.6s11.757-1.604 13.71 14.157"/><path fill="none" stroke="#26214b" stroke-width=".5" d="M93.637.601c11.599 4.225 12.614 14.157 12.614 14.157M98.453 16.43s-6.728 5.335-5.426 13.946 9.48 21.204 13.674 27.297c4.194 6.094 8.872 15.761 9.524 17.63"/><path fill="none" stroke="#26214b" stroke-width=".5" d="M114.696 71.87s-11.576 4.408-23.622 4.408c-12.047 0-39.193-3.25-39.193-3.25s-3.203-.526-5.136-.167c-4.387.817-24.73 18.203-24.695 51.674"/><path fill="none" stroke="#26214b" stroke-width=".5" d="M31.72 88.073c.31.055-9.548 1-11.542-4.93 0 0 16.653-9.975 29.102-10.383"/><path fill="#26214b" d="m26.985 88.047.11-.263.363-.585c.129-.25.396-.523.623-.827.24-.303.498-.624.755-.947l2.284-2.414-2.52 2.19-.86.883c-.268.297-.546.522-.738.808l-.485.659-.136.254zM22.562 86.097l.148-.242.448-.523c.168-.228.474-.456.744-.722.285-.261.589-.54.892-.82l2.628-2.035-2.825 1.778-.987.741c-.31.252-.62.431-.853.685l-.582.577-.172.23z"/><path fill="none" stroke="#26214b" stroke-width=".5" d="M53.387 131.847s15.14 10.074 42 10.074 56.57-8.612 60.559-34.365c2.604-22.098-11.39-38.045-13.92-41.19-1.598-1.946-22.059-25.675-23.442-31.238"/><path fill="#26214b" d="M68.553 138.475s1.359.341 3.422.607c.518.051 1.076.136 1.671.17.595.05 1.222.095 1.873.107.649.036 1.322.018 2.004.01.683-.005 1.374-.08 2.065-.118.689-.09 1.379-.16 2.05-.28.666-.151 1.335-.236 1.955-.434l.918-.27.444-.13.42-.168c.547-.235 1.088-.402 1.543-.653l1.247-.668c.365-.21.65-.446.902-.614l.774-.548-.786.532c-.254.162-.543.391-.91.594l-1.258.64c-.457.24-1 .396-1.548.617l-.42.16-.444.12-.918.248c-.618.184-1.287.255-1.949.392-.669.105-1.356.16-2.039.236-.687.022-1.373.084-2.05.073-.677-.006-1.344 0-1.987-.05a28 28 0 0 1-1.852-.143c-.59-.047-1.14-.143-1.652-.204-2.044-.306-3.362-.667-3.362-.667zM90.728 142.072s1.401.008 3.468-.226c.515-.073 1.077-.124 1.665-.232.588-.093 1.207-.2 1.843-.341.639-.121 1.287-.3 1.948-.47.663-.166 1.316-.405 1.978-.606.646-.25 1.3-.483 1.924-.76.61-.305 1.24-.547 1.794-.887l.827-.48q.204-.117.4-.233l.368-.264c.475-.358.96-.649 1.342-1l1.051-.947c.304-.291.525-.588.728-.81l.622-.717-.636.704c-.208.217-.434.51-.743.792l-1.067.922c-.387.342-.877.623-1.356.969l-.37.254-.403.223-.831.46c-.558.326-1.19.553-1.799.845-.624.26-1.279.478-1.923.714-.663.185-1.314.409-1.974.56-.66.155-1.305.32-1.942.425-.632.129-1.247.222-1.833.302-.583.095-1.141.133-1.653.195-2.057.19-3.423.154-3.423.154zM155.232 91.522s-.3-1.042-.894-2.539c-.158-.371-.312-.78-.505-1.2a29 29 0 0 0-.614-1.315c-.214-.456-.465-.913-.715-1.378-.244-.468-.539-.92-.808-1.383a47 47 0 0 0-.89-1.333c-.324-.418-.62-.847-.948-1.228-.337-.373-.634-.76-.968-1.08-.334-.317-.633-.636-.938-.898l-.854-.69c-.252-.207-.508-.339-.7-.473l-.62-.397.61.414c.188.138.439.275.685.49l.832.709c.296.268.585.593.909.917.322.326.607.72.931 1.098.317.387.599.821.91 1.244.286.438.57.89.846 1.344.255.468.535.921.764 1.393.237.468.472.927.672 1.384.213.451.399.897.573 1.32.18.419.323.828.469 1.199.55 1.501.814 2.524.814 2.524z"/><path fill="#d7c3bc" d="m139.857 119.119 17.201 3.033s3.105.456 1.573 4.522c-1.531 4.066-17.689 39.863-18.828 41.813-1.14 1.95-3.23 1.95-6.865-.081-3.685-2.06-11.443-4.347-13.81-4.008-.76.108 7.57-7.827 7.664-7.922.095-.094 8.397 6.297 8.397 6.297l8.845-29.518-16.495-1.218"/><path fill="#5f5579" d="M135.314 169.524s4.03-2.498-.125-6.751c-2.095-2.146-8.301-6.228-8.301-6.228l-8.357 8.177s1.397-1.495 13.492 3.457c.934.382 3.166 1.418 3.291 1.345"/><path fill="none" stroke="#26214b" stroke-width=".5" d="m139.747 118.902 16.876 3.034s4.125.217 1.791 5.795-17.907 39.32-17.907 39.32-1.411 4.387-5.318 2.546-13.512-5.958-16.659-4.874l8.357-8.341 8.465 6.39 8.682-29.517-17.31-1.191"/><path fill="#26214b" d="m140.512 117.849-.87 1.02c-.55.648-1.355 1.559-2.318 2.645-.494.532-1.011 1.123-1.582 1.727-.56.612-1.168 1.24-1.797 1.889-.612.666-1.305 1.293-1.966 1.97-.67.67-1.39 1.308-2.09 1.968-.725.627-1.43 1.282-2.161 1.88-.752.568-1.433 1.212-2.17 1.725l-1.068.784c-.343.267-.687.515-1.037.731-.699.436-1.329.905-1.953 1.266-.629.35-1.201.686-1.71.985-.512.293-.988.485-1.365.68l-1.202.602s.47-.121 1.295-.36c.407-.131.926-.24 1.477-.47a87 87 0 0 0 1.858-.778c.677-.297 1.367-.702 2.115-1.102.757-.387 1.48-.91 2.259-1.409.392-.246.768-.525 1.147-.812a55 55 0 0 0 1.148-.87c.76-.6 1.492-1.256 2.244-1.89.703-.686 1.429-1.35 2.1-2.043a48 48 0 0 0 1.921-2.084 38 38 0 0 0 1.692-2.035c.536-.648.991-1.301 1.427-1.89 1.713-2.383 2.606-4.13 2.606-4.13"/><path fill="none" stroke="#26214b" stroke-width=".5" d="M135.189 169.597s3.744-1.896.163-6.824"/><path fill="#d7c3bc" d="M60.068 131.692s-8.255 8.17-29.385 9.745c0 0 21.694 16.767 23.637 18.858 3.381 3.642-2.483 8.442-2.882 18.437l-8.252-9.622c.895-.65 3.976-5.837 2.402-7.733s-27.39-18.806-33.862-22.36c-3.293-1.808-3.386-3.732-1.206-5.229 6.81-4.676 15.899-10.418 17.829-15.987 1.769-5.104 7.239-26.303 21.673-21.862 14.434 4.44 23.389 22.286 10.046 35.753"/><path fill="#5f5579" d="M51.468 178.992s-.284-2.827 3.261-13.055c.238-.686.724-1.938-.504-2.313-1.096-.336-1.52.347-1.52.347-.224-.558-.16-1.983-1.805-3.095-1.145-.774-4.92-.138-4.92.841 0 1.476-.192 4.354-2.62 7.283-.093.11 7.422 8.45 8.108 9.992"/><path fill="none" stroke="#26214b" stroke-width=".5" d="M29.05 115.653s-.977 6.066-9.605 12.024l-8.627 5.958s-1.954 1.245-1.628 2.654c.325 1.408 3.028 3.127 6.566 5.145s27.186 17.006 30.008 20.04c0 0 1.357 3.032-2.496 7.636 0 0 6.402 6.609 8.247 9.966 0 0-.163-4.224 3.365-13.323 0 0 1.682-3.9-1.248-6.23-2.93-2.328-28.217-22.313-28.217-22.313"/><path fill="none" stroke="#26214b" stroke-width=".5" d="M65.461 95.397S73.71 125.51 56.4 134.23c-14.744 7.427-22.728 6.832-25.635 7.208M45.98 161.636s2.063-1.68 4.179-1.083c2.116.596 2.659 3.25 2.659 3.25s1.028-.563 1.736 0c.709.561.501 1.444.501 1.444"/><path fill="none" stroke="#26214b" stroke-width=".5" d="M49.585 176.277s-.593-6.869 3.233-12.474"/></g></svg>