<svg xmlns="http://www.w3.org/2000/svg" width="61.561" height="80.625" viewBox="-0.089 -0.512 61.561 80.625"><path fill="#ff9400" d="M10.697 3.078c18.782-2.415 28.616 9.44 42.057 15.387C68.7 46.773 39.464 65.876 12.748 67.702c-1.556-21.622-3.561-41.15-2.051-64.624M24.032 58.47c11.437-4.502 23.556-8.429 24.619-20.515C50.018 22.41 34.502 17.21 20.955 12.31c-.166 14.306 3.251 27.953 3.077 46.16"/><path fill="undefined" d="M20.955 12.31c13.547 4.9 29.063 10.101 27.696 25.645C47.588 50.04 35.469 53.968 24.032 58.47c.174-18.207-3.244-31.854-3.077-46.16m7.18 41.031c22.46-4.847 14.005-25.97-3.077-28.721 1.135 8.024-.645 20.762 3.077 28.721"/><path fill="undefined" d="M8.645.001h16.413v1.026c16.606 4.25 29.224 12.49 35.902 26.67v12.31h-1.026c-5.906 24.604-29.581 35.48-53.34 38.979-.684 0-1.465 1.383-2.052 0C.992 46.139 1.821 46.478 1.465 38.98c-.216-9.024.1-18.916-1.026-27.695-.034-1.586 0-2.052 0-3.078 2.725-.01 5.858.388 7.18-1.026-.97-2.663-1.872-6.024 1.026-7.18m4.103 67.701C39.464 65.876 68.7 46.773 52.754 18.465 39.313 12.518 29.479.663 10.697 3.078c-1.51 23.474.495 43.002 2.051 64.624"/></svg>