<svg xmlns="http://www.w3.org/2000/svg" xml:space="preserve" width="234.655" height="172.896" viewBox="0.4 0.404 234.655 172.896"><title>Slice 1</title><g fill-rule="evenodd"><path fill="#a7b2c4" d="M140.2 152.5c-2.1 1.4-1.3 12.3-1.3 12.3 7.9-2.6 6.7-5.2 8.2-5.8-2.5-2-3-4.8-3.3-6.7-1.2.1-3.6.2-3.6.2"/><path fill="#dce2ef" d="M146.7 152.1s-5.6-.2-6.4-1.5c0 0 .3 1.9 2.7 2.2 0 0-2.3-.6-2.6 1.2 0 0 1.9-.1 4.1.3 0 0-3.6.1-3.8 3.1 0 0 .9-1 2.7-.9 0 0-1 1.2-1.1 2.9 0 0 1.2-.6 2.4-1.3 0 0-2.1 1.9-2.2 3.7 0 0 1.3.1 2.2-1 0 0 0 1.1.5 2.2 0 0 3.5-4.3 5.4-5.6"/><path fill="#dce2ef" d="M177.3 84.6c.2 6.2 6.6 11.4-3.9 34.5 0 0 6.4 15.2 5 19.3s-9 9.2-18.5 13.7c-2.4 1.2-12.1 7.6-12.1 7.6l-3.3-8s.6-.9 4.5-3.9c0 0 8.5-3 14-9.5 0 0-13.7-18.7-11.5-23.2 4-8.2-4.8-28.1-4.8-28.1M105.1 114.7c-11.7 9.4-21 10.2-21 10.2s21.5 18.4 17 28.9c-1.4 3.2-4.5-.1-8.2-3.2-5.8-4.8 0-4.3-3-8.2s-23.2-18.8-20.4-23.1c4.5-5.9 10-8 10-12.9 0-12.6-4.6-44.3 24.5-35.7 17.3 5.5 13 34.4 1.1 44"/><path fill="#a7b2c4" d="M92.4 156c2.3 1.6 5.4 4.2 8.3 4.3 0 0 1.1-3.3 1.1-6.3-3.2-.3-6.9-1.5-9-2.2.1 2.2-.4 4.2-.4 4.2"/><path fill="#dce2ef" d="M92.2 150.1s.3 2.9-1.3 4.5c0 0 1.5 0 2.2-1.4 0 0-.3 1.9 1.1 2.4 0 0 .2-1.7 1.1-2.3 0 0 0 2.2 1.1 2.6 0 0 .2-2.4.9-3 0 0 1.4 1.9.8 3.6 0 0 1.3-1 1.2-2.2 0 0 1.4 1.2 1 2.3 0 0 1.2-1.5.5-3.2 0 0 .5 2.2 2.6 2.2 0 0-1.8-1.2-2-3.8"/><path fill="#fcccba" d="M79.6 59.9c-8.8-3.6-12.7-6.1-23.4-9.2-8.9-2.6-21.4 1-21.4 1s3.1-.1 6.1.7c0 0-3.1.2-12 1.6-7.8 1.3-17.2 5.2-27.8 9.8 0 0 8.2-.8 11.7-.9 0 0-7.2 1.8-11.2 4.2 0 0 4.3.5 11.9 2.5 4.2 1.1 6.6 1.3 16.1 1.1 0 0-4.8 2.8-9.6 2.3 0 0 9.9 4.3 21.8-.7 0 0-1.4.9-3.6 3.4 0 0 8.3-2.8 20.1-6.8 8.9-3 22.2-4.7 22.2-4.7"/><path fill="#e0a0a0" d="M80.9 59.8s-.7-.2-2-.6-3-1.1-5.1-1.9c-1.1-.4-2.2-.9-3.4-1.4s-2.4-1.1-3.7-1.7-2.6-1.3-3.9-1.9c-1.4-.6-2.8-1.2-4.3-1.6s-2.9-.8-4.4-1c-.7-.1-1.5-.2-2.2-.3-.4 0-.7-.1-1.1-.1h-1.1c-1.4 0-2.8.1-4.1.3q-1.95.3-3.6.6c-2.2.4-4.1.9-5.4 1.1-1.3.3-2 .4-2 .4l2.1-.3c1.3-.2 3.2-.5 5.4-.9 1.1-.2 2.3-.4 3.6-.5s2.6-.2 4-.2h1.1c.4 0 .7.1 1.1.1.7 0 1.4.2 2.2.3 1.5.2 2.9.6 4.3 1 1.4.5 2.8 1 4.2 1.6s2.7 1.3 3.9 1.9c2.5 1.3 5 2.2 7.2 3 2.1.8 4 1.3 5.2 1.6 1.3.3 2 .5 2 .5"/><path fill="#e0a0a0" d="M41 52.4s-2.6 0-6.6.4c-2 .2-4.3.5-6.7 1s-5 1.1-7.5 1.9-5 1.8-7.3 2.8-4.4 2-6.1 2.8C3.2 63 .9 64.2.9 64.2s2.4-1 6.1-2.5c1.8-.8 3.9-1.7 6.2-2.6s4.7-1.9 7.2-2.7c5-1.6 10.2-2.5 14.1-3.1 3.9-.7 6.5-.9 6.5-.9M1.7 67.3s.7-.2 1.7-.6 2.4-.9 3.7-1.4c1.3-.6 2.6-1.1 3.6-1.5.5-.2.9-.4 1.2-.5s.5-.2.5-.2-.7.1-1.8.4-2.4.7-3.8 1.3c-1.3.5-2.6 1.2-3.6 1.7-.9.4-1.5.8-1.5.8M29.5 70.9h-3c-.9 0-2-.1-3.1-.1-1.1-.1-2.4-.2-3.6-.3s-2.4-.3-3.6-.5c-1.1-.2-2.2-.3-3.1-.5-1.8-.3-3-.6-3-.6s.3.1.8.3q.75.3 2.1.6c.9.2 1.9.5 3.1.7 1.1.2 2.4.4 3.6.6 1.2.1 2.5.2 3.6.3 1.2.1 2.2 0 3.2 0 1.7-.3 3-.5 3-.5M20.5 73.4s.3.2.9.4 1.4.5 2.4.7c.5.1 1.1.2 1.6.3.6.1 1.2.2 1.9.2.6.1 1.3.1 2 .1h2.1c.7-.1 1.4-.1 2-.2.7-.1 1.3-.2 2-.3.6-.1 1.2-.3 1.8-.4.6-.2 1.1-.3 1.6-.5 1-.3 1.8-.6 2.3-.8l.9-.3s-.3.1-.9.2-1.4.4-2.4.6c-.5.1-1 .2-1.6.4l-1.8.3c-.6.1-1.3.2-1.9.3-.7.1-1.3.1-2 .2-.7 0-1.4.1-2 .1h-2c-.6 0-1.2-.1-1.8-.1s-1.1-.1-1.6-.2c-1-.2-1.8-.3-2.4-.5-.8-.3-1.1-.5-1.1-.5M38.9 75.6s2.3-.5 5.6-1.4c.8-.2 1.8-.5 2.7-.7 1-.2 2-.6 3-1 2-.8 4.2-1.6 6.4-2.4 2.2-.7 4.4-1.5 6.5-2.1q3.15-.9 5.7-1.5c1.7-.4 3.1-.6 4.1-.8 1-.1 1.6-.2 1.6-.2s-.6 0-1.6.1-2.5.2-4.2.5c-.9.1-1.8.3-2.8.5s-2 .5-3.1.8c-2.1.6-4.3 1.3-6.5 2-2.2.8-4.4 1.6-6.4 2.4-1 .4-2 .8-2.9 1-1 .3-1.8.6-2.7.8-3.2 1.2-5.4 2-5.4 2M78.8 60.1s-.4 0-1-.1-1.5-.2-2.5-.4-2.2-.4-3.5-.7-2.6-.6-4-1c-1.3-.4-2.7-.8-3.9-1.2s-2.4-.8-3.4-1.2q-1.5-.6-2.4-.9l-.9-.3s.3.2.9.5c.5.3 1.3.7 2.3 1.1s2.1.9 3.3 1.4 2.6.9 3.9 1.3c1.4.4 2.7.7 4 1s2.5.4 3.6.5 1.9.1 2.5.1c.8 0 1.1-.1 1.1-.1M75.3 64.1s-1-.4-2.6-.8c-.8-.2-1.7-.4-2.8-.6-1-.2-2.1-.4-3.2-.5s-2.2-.2-3.3-.2c-.5 0-1 0-1.5.1-.5 0-.9.1-1.3.2-.4 0-.8.2-1.1.3s-.6.2-.8.3c-.4.2-.7.3-.7.3s.3-.1.7-.2c.2-.1.5-.1.8-.2s.7-.1 1.1-.1c.8-.1 1.8-.1 2.8-.1s2.1.1 3.2.2 2.2.2 3.2.4 2 .3 2.8.4c1.6.3 2.7.5 2.7.5"/><path fill="#eff4f9" d="M183.3 68.5c4.5 10 5.1 21.7 1 30.9-8.3 19.1-40.1 18.1-62.2 8.8-9.3-3.9-13.4-1.1-34.7-4.8-12.5-2.2-25.8-18.7-18.4-34.2 7.3-15.4 24.9-20.7 38.4-13.2 16.2 9 42.6 1.2 48.8-2 5.7-3 22.5 4.6 27.1 14.5"/><path fill="#eff4f9" d="M184.1 71.1s2.6 8.3 5.1 9c0 0-2.5-.2-3.2-2 0 0 3.3 3.2 3.2 5.9 0 0-.6-1.6-1.5-1.6 0 0 2.5 4.1-.9 6.9"/><path fill="#d4dbe7" d="M122.1 108.2s.8.3 2.1.9q2.1.9 5.7 2.1 1.8.6 3.9 1.2l2.1.6c.7.2 1.5.3 2.3.5 1.5.4 3.2.6 4.8.9 1.6.2 3.3.5 5 .6.8.1 1.7.1 2.5.2h3.7c.4 0 .8 0 1.2-.1.8 0 1.6-.1 2.4-.1q2.4-.3 4.5-.6c1.4-.3 2.7-.6 4-.9 1.2-.4 2.3-.8 3.3-1.1.5-.1.9-.3 1.3-.5s.8-.3 1.1-.5c1.3-.6 2.1-.9 2.1-.9s-.8.3-2.1.8c-.3.1-.7.3-1.1.4-.4.2-.9.3-1.4.5-1 .3-2.1.6-3.3 1-1.2.2-2.6.5-4 .8-1.4.2-2.9.4-4.5.5-.8 0-1.6.1-2.4.1-.4 0-.8 0-1.2.1h-3.7c-.8-.1-1.7-.1-2.5-.2-1.7-.1-3.3-.3-5-.5-1.6-.3-3.2-.5-4.8-.8-1.5-.3-3-.6-4.4-1-1.4-.3-2.7-.7-3.9-1.1-2.4-.7-4.4-1.4-5.8-1.9-1.1-.7-1.9-1-1.9-1M186.6 85.3s.1.9.2 2.3v2.3c-.1.8-.1 1.7-.3 2.6-.1.4-.2.9-.2 1.3-.1.4-.2.9-.3 1.3l-.3 1.2c-.1.4-.2.7-.4 1l-.3.9c-.1.3-.2.5-.3.7-.1.4-.2.6-.2.6s.1-.2.3-.5.5-.8.8-1.4c.2-.3.3-.6.5-1 .1-.4.3-.8.4-1.2s.3-.8.4-1.3c.1-.4.2-.9.3-1.4.1-.9.2-1.8.2-2.7s-.1-1.7-.2-2.4c-.3-1.4-.6-2.3-.6-2.3"/><path fill="#d4dbe7" d="M186.7 89.2s.5-.2 1-.7c.3-.3.5-.6.7-1.1.2-.4.3-.9.3-1.4s0-1-.1-1.5-.3-.9-.4-1.2-.3-.6-.4-.8-.2-.3-.2-.3 0 .1.1.3c0 .2.1.5.2.8s.2.7.2 1.2c0 .2 0 .4.1.7v.7c0 .2 0 .4-.1.7-.1.2-.1.4-.2.6-.1.4-.3.8-.5 1.1-.3.6-.7.9-.7.9M189.2 83.9s.1-.3.1-.7-.1-1.1-.3-1.6c-.2-.6-.6-1-1-1.3-.3-.3-.6-.4-.6-.4s0 .1.1.2.1.3.2.5c.2.4.4.9.7 1.4.2.5.4 1 .5 1.4.2.2.3.5.3.5M189.2 80.1s-.3-.3-.7-.9c-.4-.5-.9-1.2-1.4-1.9s-.9-1.5-1.2-2c-.2-.3-.3-.5-.4-.7s-.1-.3-.1-.3v.3c0 .2.1.5.1.8.1.3.2.7.4 1.1l.6 1.2c.5.8 1.1 1.4 1.7 1.8s1 .6 1 .6M107.4 56s.5.2 1.4.6 2.2 1 3.8 1.6c.8.3 1.7.6 2.6.9s1.9.6 3 .8 2.2.4 3.3.5c.6.1 1.1.1 1.7.1.6.1 1.1.1 1.7.1 1.1 0 2.3 0 3.4-.1s2.2-.1 3.3-.3c2.1-.2 4.1-.6 5.8-.8 1.7-.3 3.1-.6 4.1-.8l1.5-.3s-.6.1-1.6.2c-1 .2-2.4.3-4.1.6-1.7.2-3.7.5-5.8.6-1.1.1-2.2.2-3.3.2s-2.2.1-3.4 0c-.6 0-1.1 0-1.7-.1-.6 0-1.1 0-1.7-.1-1.1-.1-2.2-.3-3.2-.5s-2-.4-3-.7c-.9-.2-1.8-.5-2.6-.8-1.6-.5-3-1-3.9-1.3-.8-.2-1.3-.4-1.3-.4"/><path fill="#fcccba" d="M202.6 16.8s-8.2-2.1-20.1-2.1c0 0 3 2.9 7.1 4.1 0 0-5-.2-8.7.7-5.3 1.2-8.9.4-8.9.4s1 3.7 5.6 4.1c0 0-3 1.8-9.5 2.8-4.2.7-6.4 4.6-6.4 4.6s1.9.1 6.6-.6c0 0-5.1 2.5-9.8 3.6 0 0 3.2 2.4 7.9 1.1 0 0-3.6.1-10.3 4-8.9 5.2-6.2 9-13.8 14.5 0 0 2.7-.7 7-2.4 0 0-1.5 2.9-5.9 4.3 0 0 7 1.4 14.5-1.4s44.7-37.7 44.7-37.7"/><path fill="#e0a0a0" d="M143 56.1h.3c.2 0 .5-.1.8-.2.7-.3 1.5-.7 2.3-1.3s1.5-1.2 1.9-1.7c.5-.5.8-.9.8-.9s-.4.2-1 .6-1.3 1-2.1 1.5c-.7.6-1.5 1.1-2.1 1.5-.5.3-.9.5-.9.5M142.4 53.9s.4-.2 1.1-.7c.6-.5 1.5-1.2 2.4-2.3.9-1 1.9-2.3 2.9-3.8.5-.7.9-1.5 1.4-2.3s1-1.5 1.6-2.1c.7-.6 1.3-1.2 2-1.7s1.5-1 2.2-1.4q2.25-1.2 4.2-2.1c1.3-.5 2.3-1 3.1-1.3.7-.3 1.2-.5 1.2-.5l-1.2.3c-.8.2-1.9.6-3.2 1.1s-2.8 1.1-4.3 2c-.8.4-1.5.9-2.3 1.4q-1.2.75-2.1 1.8c-.6.7-1.2 1.5-1.7 2.2-.5.8-.9 1.6-1.3 2.3-.9 1.5-1.8 2.8-2.7 3.8-.9 1.1-1.7 1.9-2.3 2.4-.6.7-1 .9-1 .9M158.1 34.5s.7 0 1.7-.2 2.4-.5 3.7-1 2.5-1.1 3.4-1.6 1.4-.9 1.4-.9l-.4.2c-.3.1-.7.3-1.2.5-1 .4-2.2.9-3.5 1.4s-2.6.9-3.5 1.3c-.9.2-1.6.3-1.6.3M161.7 31.2s.2-.2.6-.5.9-.8 1.5-1.3c.3-.3.7-.5 1.1-.8s.8-.5 1.2-.7c.5-.2.9-.4 1.4-.5s1-.2 1.6-.3c1.1-.2 2.2-.5 3.2-.8q1.5-.45 2.7-.9c1.6-.6 2.6-1.1 2.6-1.1s-1.1.3-2.6.8c-.8.2-1.7.5-2.7.8s-2.1.5-3.1.7c-.5.1-1.1.2-1.7.3s-1.1.3-1.6.6c-1 .5-1.7 1.1-2.3 1.7s-1 1.1-1.3 1.5c-.4.3-.6.5-.6.5M172 19.8s.2.2.7.4 1.2.3 2 .3c.8.1 1.8 0 2.9-.2.5-.1 1.1-.1 1.6-.3.5-.1 1.1-.2 1.6-.4 1.1-.2 2.2-.5 3.2-.6 1-.2 2-.2 2.8-.3h2.8s-.3 0-.8-.1-1.2-.1-2-.2c-.8 0-1.8 0-2.9.1s-2.2.3-3.2.5c-.5.1-1.1.2-1.6.3s-1.1.2-1.6.3-1 .1-1.5.2c-.5 0-.9.1-1.3.1h-2c-.2 0-.4-.1-.5-.1zM182.6 14.7s1 .1 2.6.3c.8.1 1.7.2 2.6.3l3 .3c1 .1 2.1.2 3 .2 1 .1 1.9.1 2.6.2 1.5.1 2.6.1 2.6.1s-1-.2-2.6-.4c-.8-.1-1.7-.3-2.6-.4l-3-.3c-1-.1-2.1-.1-3-.2-1-.1-1.9-.1-2.6-.1z"/><path fill="#eff4f9" d="M194.8 22.2s-24.9 14.6-38.5 32.4 18.2 34.9 25.3 29 17.2-22.8 18.2-32.7c1.1-10 2.4-30.7-5-28.7"/><path fill="#dce2ef" d="M196.7 22.9s-2.1-5.4 4.7-12.6c4.3-4.6 3.7-10.2 5.8-9.3s7.1 16.9-1.3 22.5c-5.1 3.4-7.6 3.9-9.2-.6"/><path fill="#bcc4d4" d="M207 3.7s0 .3.1.8.1 1.3.2 2.2c0 .4.1.9.1 1.4v1.6c0 1.1 0 2.3-.1 3.5 0 .6-.1 1.2-.2 1.7-.1.6-.2 1.1-.4 1.7-.1.5-.3 1-.5 1.5s-.4.9-.7 1.2-.5.7-.8.9-.5.5-.7.6c-.5.3-.7.4-.7.4s.3-.1.8-.3c.3-.1.5-.3.8-.5q.45-.3.9-.9c.3-.4.6-.8.8-1.3.1-.2.2-.5.4-.7.1-.3.2-.5.3-.8.2-.5.3-1.1.4-1.7l.3-1.8c.1-1.2.1-2.4.1-3.6-.1-1.1-.2-2.2-.3-3.1-.5-1.7-.8-2.8-.8-2.8"/><path fill="#eff4f9" d="M220.1 28.3c2.3 4.5 16.9 15.9 14.1 23.8-2 5.8-6.3 5-14.1 3.2-.7-.2-4.6.8-8.5.7-21.1-.5-25-7.5-27.2-17.5s4.3-19.9 14.4-22.1c9.9-2.2 16.2 2.3 21.3 11.9"/><path fill="#d4dbe7" d="M231 51.2c-.8-.4-.8-2.4.8-1.5s.7 2.2-.8 1.5"/><ellipse cx="21.416" cy="20.708" fill="#9098a4" rx="1.3" ry="2.7" transform="rotate(-179.655 117.585 7.211)scale(1 -1)"/><path fill="#9098a4" d="M213 33.7s.2 0 .5-.1.6-.4.9-.7.4-.7.5-1v-.5s-.1.2-.3.4-.4.5-.6.8-.4.6-.6.8c-.3.2-.4.3-.4.3"/><path fill="#bcc4d4" d="M230.5 49.7s-.1.2-.2.5 0 .8.3 1.1q.3.3.6.3h.5c.3-.1.4-.2.4-.2s-.2-.1-.5-.1c-.3-.1-.5-.2-.7-.3s-.3-.4-.4-.7c.1-.4 0-.6 0-.6M231.1 56.1s-.5-.3-1.2-.6-1.7-.7-2.7-1-2-.5-2.8-.5c-.8-.1-1.3 0-1.3 0s.1 0 .3.1q.3.15.9.3c.7.1 1.7.4 2.7.7s2 .5 2.8.7c.7.2 1.3.3 1.3.3"/><path fill="#d4dbe7" d="M211.6 56s-1-.1-2.5-.2c-.7 0-1.6-.1-2.5-.2-.9 0-1.9-.1-2.9-.2s-2-.2-2.9-.4q-1.35-.3-2.4-.6c-.7-.2-1.3-.4-1.7-.6s-.6-.2-.6-.2.2.1.6.4c.2.1.4.2.7.4.3.1.6.3.9.4.7.3 1.5.6 2.4.8s1.9.4 2.9.5 2 .1 2.9.2h2.6c1.5-.2 2.5-.3 2.5-.3"/><path fill="#fcccba" d="M203.9 13.9s6.8-1.5 11.1 2.7 7.3 2.8 7.3 2.8-4 2.4-6.2.6c0 0 5.5 2.4 6 7l-2.9-2.5s3.4 3.9 1.7 6.2c0 0-2.5-5.3-5.4-6.8 0 0 1.6 2.6 1.8 3.6 0 0-7.6-.8-10-6.5s-5.7-4-5.7-4-1.2-2 2.3-3.1"/><path fill="#e0a0a0" d="M217.2 27.6s-.6-.2-1.4-.5c-.9-.3-2-.7-3.1-1.1-.5-.2-1.1-.5-1.5-.8-.2-.1-.5-.3-.7-.4s-.4-.3-.6-.4c-.3-.3-.7-.5-.8-.7l-.3-.3s.1.1.2.4c.1.2.4.5.7.9.3.3.7.7 1.2 1s1 .6 1.6.9c.6.2 1.1.4 1.7.6q.9.3 1.5.3c.9.1 1.5.1 1.5.1M215.4 24l1 1c.6.6 1.3 1.4 1.9 2.3.3.4.6.9.9 1.3s.6.8.8 1.2c.2.3.4.6.6.8.1.2.2.3.2.3s0-.1-.1-.4c-.1-.2-.2-.6-.3-1-.2-.4-.4-.8-.6-1.3-.3-.5-.6-.9-.9-1.4-.4-.4-.7-.9-1.1-1.2-.4-.4-.8-.7-1.1-.9-.8-.5-1.3-.7-1.3-.7M222.1 27s.1-.7-.1-1.7c-.1-.5-.3-1.1-.6-1.6-.3-.6-.7-1.1-1.2-1.6-.3-.2-.5-.5-.8-.7s-.5-.4-.8-.6c-.5-.3-1.1-.6-1.6-.7-.5-.2-.9-.2-1.2-.3s-.4-.1-.4-.1.1.1.4.2.6.3 1 .5c.2.1.4.2.7.4.2.2.5.3.7.5.5.4 1 .8 1.4 1.2.2.2.4.5.6.7s.4.5.5.7c.3.5.6 1 .8 1.4.5 1 .6 1.7.6 1.7M222.3 19.3s-.2.1-.6.1-.9 0-1.5-.1c-.3-.1-.6-.1-.9-.2s-.7-.2-1-.4-.7-.4-1-.6-.7-.5-1-.8c-1.3-1-2.5-2.2-3.7-2.7-.6-.3-1.1-.4-1.5-.4h-.6s.2 0 .6.1.8.3 1.3.6c1 .7 2.2 1.9 3.5 2.9.3.3.6.5 1 .8.3.2.7.4 1.1.6.7.3 1.5.5 2.2.5.6 0 1.2-.1 1.5-.2.4-.1.6-.2.6-.2"/><path fill="#eff4f9" d="M206.6 17.8c-1.7-.4-.5-2.9 1.5-3.1 0 0-.6-1.8 1.8-3 0 0 .2-2.6 1.9-2.9 0 0-.4-1.8 1.9-2.6 0 0 .2-1.5 1.9-2.1 0 0 1.1-1.8 2.2-2.2 1-.5-.5 2.1-.5 2.1s-.1 2-1.2 2.3c0 0 .7 1.2-1.5 2.7 0 0 .6 1.5-1.8 2.8 0 0 1.3.6-1.3 3.1 0 0 .3 2.9-1.9 2.9z"/><path fill="#fcccba" d="M205.7 15s4.6 2.7 7.6 3.3c0 0-4.4 2.2-7.2-.1-.8-.8-1.7-.8-.4-3.2"/><path fill="#e0a0a0" d="M205.2 15.1s.4.2 1 .6c.6.3 1.5.7 2.3 1.1.9.4 1.7.8 2.3 1.1.3.2.6.3.8.4s.3.2.3.2-.3-.4-.8-.9c-.6-.5-1.4-.9-2.3-1.3s-1.8-.7-2.5-.9c-.6-.3-1.1-.3-1.1-.3"/><path fill="#eff4f9" d="M188.6 23.5s-2.1-5.4 4.7-12.6c4.3-4.5 3.6-10.1 5.8-9.3 2.1.9 7.1 16.9-1.3 22.5-5.2 3.3-7.7 3.8-9.2-.6"/><path fill="#d4dbe7" d="M198.8 4.2s0 .3.1.8c.1.6.1 1.3.2 2.2 0 .4.1.9.1 1.4v1.6c0 1.1 0 2.3-.1 3.5 0 .6-.1 1.2-.2 1.7-.1.6-.2 1.1-.4 1.7-.1.5-.3 1-.5 1.5s-.4.9-.7 1.2-.5.7-.8.9-.5.5-.7.6c-.5.3-.7.4-.7.4s.3-.1.8-.3c.3-.1.5-.3.8-.5q.45-.3.9-.9c.3-.4.6-.8.8-1.3.1-.2.2-.5.4-.7.1-.3.2-.5.3-.8.2-.5.3-1.1.4-1.7l.3-1.8c.1-1.2.1-2.4.1-3.6-.1-1.1-.2-2.2-.3-3.1-.4-1.6-.8-2.8-.8-2.8"/><path fill="#eff4f9" d="M103.8 113.6c-17.8 13.4-40.5 9.8-40.5 9.8s5.2 18.1 2.4 25.1c-3.2 8.1-4.8.1-5.4-2-.9-3-2.4-6.3-1.7-7.4 2.3-3.7-8.5-23.8.7-27 5.2-1.8 17.1-1.5 12.3-13.6-8.2-20.6 9.9-40.7 24.9-30.2 15.1 10.4 15.8 38.9 7.3 45.3"/><path fill="#d4dbe7" d="M71.7 123.8s.9 0 2.4-.1c.8 0 1.7-.1 2.8-.2s2.3-.2 3.6-.4 2.7-.4 4.2-.7c.7-.1 1.5-.3 2.3-.5l2.4-.6c.8-.2 1.6-.5 2.4-.8l2.4-.9c1.6-.6 3.2-1.4 4.8-2.2 1.6-.9 3-1.9 4.4-3 .7-.6 1.3-1.2 1.9-1.8q.9-.9 1.5-2.1c.9-1.4 1.4-3 1.8-4.5.3-1.5.5-2.9.6-4.3.1-2.6 0-4.8 0-6.4-.1-1.5-.1-2.4-.1-2.4v2.4c0 1.5 0 3.7-.2 6.4-.2 2.6-.7 5.7-2.4 8.5-.4.7-.9 1.3-1.5 2-.5.6-1.2 1.2-1.8 1.7-1.3 1.1-2.8 2-4.3 2.9-1.5.8-3.1 1.6-4.7 2.3l-2.4.9c-.8.3-1.6.5-2.4.8s-1.6.5-2.3.7c-.8.2-1.5.4-2.2.6-1.5.4-2.9.6-4.2.8s-2.5.4-3.6.5-2 .2-2.8.3c-1.7 0-2.6.1-2.6.1M57.1 128.6s-.2-.8-.5-2.2c-.1-.7-.3-1.6-.5-2.5q-.3-1.5-.3-3.3c-.1-1.2 0-2.6.3-3.9.1-.7.4-1.4.7-2s.8-1.3 1.3-1.7c.6-.4 1.4-.5 2.1-.7.8-.2 1.6-.3 2.3-.5 1.6-.3 3.2-.6 4.8-1.2.8-.3 1.6-.6 2.3-1.2.6-.5 1.3-1.1 1.8-1.7 1.1-1.3 1.7-3 1.6-4.6 0-1.6-.4-3.1-.8-4.4-.4-1.4-.8-2.6-1.2-3.8-.7-2.3-1.2-4.3-1.5-5.7s-.4-2.2-.4-2.2 0 .8.2 2.2.6 3.5 1.2 5.8c.3 1.2.7 2.5 1.1 3.8s.7 2.8.7 4.3-.5 3-1.5 4.2c-.5.6-1.1 1.1-1.7 1.6s-1.3.8-2.1 1.1c-1.5.6-3.1.9-4.7 1.3-.8.2-1.6.4-2.3.6-.8.2-1.5.4-2.2.8-1.2 1.1-1.8 2.6-2 4-.3 1.4-.3 2.8-.2 4s.2 2.4.4 3.3c.2 1 .4 1.8.5 2.5.3 1.3.6 2.1.6 2.1"/><path fill="#bcc4d4" d="M55.1 148.6c.6 2.7 1.3 6.7 3.4 8.7 0 0 3-1.8 5-4-2.2-2.4-4.2-5.7-5.4-7.6-1.3 1.7-3 2.9-3 2.9"/><path fill="#eff4f9" d="M60.9 143.7s-3.8 2.7-6.1 2.8c0 0 1.1 1 2.6.5 0 0-1.4 1.2-.7 2.5 0 0 1.3-1.1 2.3-1 0 0-1.5 1.7-.9 2.7 0 0 1.7-1.7 2.7-1.6 0 0-.2 2.3-1.8 3.2 0 0 1.6.1 2.3-.8 0 0 .3 1.8-.8 2.4 0 0 1.9-.4 2.5-2 0 0-1.1 2 .5 3.3 0 0-.5-2.1 1-4.2"/><path fill="#bcc4d4" d="M116.5 160.6c-2.1 1.3-1.8 12.2-1.8 12.2 8-2.2 6.9-4.9 8.4-5.4-2.4-2.2-2.8-4.9-3-6.8z"/><path fill="#eff4f9" d="M123 160.5s-5.6-.4-6.3-1.8c0 0 .2 1.9 2.6 2.4 0 0-2.2-.7-2.6 1.1 0 0 1.9 0 4 .5 0 0-3.6 0-3.9 2.9 0 0 .9-.9 2.7-.8 0 0-1 1.2-1.2 2.8 0 0 1.2-.6 2.5-1.2 0 0-2.2 1.8-2.3 3.6 0 0 1.3.1 2.3-.9 0 0-.1 1.1.4 2.2 0 0 3.7-4.2 5.6-5.4"/><path fill="#eff4f9" d="M175.2 90.3c-1.9 5.9-10.8 27.9-23.7 32.5 0 0-1.1 17.6-1.9 19.8-1 2.5-14.1 18.1-15.4 20.1-1.6 2.5-9.6 4.4-9.6 4.4l-4.2-7s2.1-1.7 5.3-3.2c4.4-2.1 10.8-11.4 12.2-19.8 0 0-10.2-22.6-6.5-26.1 6.6-6.3 13.5-19.9 13.5-19.9"/><path fill="#d4dbe7" d="M132.7 123.7s-.3-1.9-1-4.7c-.3-1.4-.8-3-1-4.8-.1-.9 0-1.8.4-2.5.4-.8 1.2-1.4 1.8-2.1 1.4-1.4 2.6-2.9 3.7-4.4 1.1-1.4 2.1-2.8 2.9-4 1.6-2.4 2.6-4.1 2.6-4.1s-1.2 1.5-2.9 3.8q-1.35 1.8-3 3.9c-1.1 1.4-2.4 2.9-3.7 4.3-.7.7-1.4 1.4-1.9 2.3s-.6 2-.5 2.9.3 1.8.6 2.6c.2.8.5 1.6.7 2.2.7 2.7 1.3 4.6 1.3 4.6M151.6 123.1s1.5-.7 3.5-2c.5-.3 1-.7 1.6-1.1.5-.4 1.1-.8 1.7-1.3 1.2-1 2.4-2 3.5-3.2.6-.6 1.1-1.2 1.7-1.7l1.5-1.8c.5-.6.9-1.2 1.3-1.7s.8-1.1 1.1-1.6c.7-1 1.2-1.9 1.5-2.5l.5-1s-.2.3-.7.9c-.2.3-.5.6-.7 1-.3.4-.6.8-1 1.3l-1.2 1.5c-.4.5-.9 1.1-1.4 1.6-.5.6-1 1.1-1.5 1.7s-1.1 1.2-1.7 1.7c-1.1 1.1-2.3 2.2-3.4 3.2s-2.2 1.9-3.2 2.6c-1.8 1.5-3.1 2.4-3.1 2.4"/></g></svg>