<svg xmlns="http://www.w3.org/2000/svg" xml:space="preserve" viewBox="0 0 512 512"><path d="M392.823 75.729v140.345c0 2.394-.113 4.757-.329 7.087-3.574 38.504-35.985 68.645-75.397 68.645H194.902c-39.409 0-71.825-30.141-75.4-68.645l-.335-88.878V75.729C119.167 33.894 153.098 0 194.902 0h122.196c41.806 0 75.725 33.894 75.725 75.729" style="fill:#716060"/><path d="M392.823 134.282v81.792c0 2.394-.113 4.757-.329 7.087H119.502l-.335-88.878h273.656z" style="fill:#e5cd90"/><path d="M441.791 188.288C371.103 211.602 258.02 209.52 258.02 209.52h-4.041s-113.089 2.082-183.776-21.232c-70.676-23.315-94.91 55.597-40.385 91.468C81.657 313.854 200.973 312.753 256 312.038c55.027.715 174.341 1.816 226.179-32.283 54.527-35.87 30.299-114.782-40.388-91.467" style="fill:#594848"/><path d="M441.791 188.288c-14.923 4.922-31.73 8.698-48.967 11.615V75.729C392.823 33.894 358.904 0 317.098 0H258.27v312.064c55.969.712 172.763 1.339 223.909-32.308 54.527-35.871 30.299-114.783-40.388-91.468" style="opacity:.07;fill:#050101"/></svg>