<svg xmlns="http://www.w3.org/2000/svg" width="80.269" height="55.721" viewBox="0 0 80.269 55.721"><g fill="none" fill-rule="none" stroke-miterlimit="10" stroke-width="none" data-paper-data="{&quot;isPaintingLayer&quot;:true}" font-family="none" font-size="none" font-weight="none" style="mix-blend-mode:normal" text-anchor="none"><path fill="#4e9a06" fill-rule="evenodd" stroke="#231f20" stroke-width="2.725" d="M78.906 27.86c0 14.635-17.359 26.498-38.772 26.498S1.363 42.495 1.363 27.86c0-14.634 17.358-26.497 38.771-26.497S78.906 13.226 78.906 27.86z" data-paper-data="{&quot;origPos&quot;:null}"/><path fill="#356804" fill-rule="nonzero" d="M47.69 2.894c1.263.334 2.514.703 3.763 1.09 1.37.4 2.732.853 4.036 1.446 1.674.683 3.277 1.559 4.88 2.4 1.66.927 3.309 1.891 4.88 2.971 1.489 1.117 2.955 2.255 4.309 3.545.995.85 1.861 1.85 2.727 2.836.99.994 1.816 2.127 2.672 3.244.64.892 1.566 1.613 1.963 2.672-.477.342-.57-.545-.79-.818-1.183-1.205-2.212-2.566-3.355-3.817a28 28 0 0 0-3.026-3.027c-2.041-1.636-4.007-3.376-6.217-4.771-.799-.543-1.629-.998-2.481-1.445a148 148 0 0 0-9.489-3.818c-1.7-.463-3.44-.895-5.153-1.308-2.18-.481-4.372-.881-6.599-1.036a13.2 13.2 0 0 0-4.471.409c-2.728.67-5.47 1.268-8.126 2.208-.907.238-1.702.784-2.535 1.2a158 158 0 0 0-6.08 3.435c-1.106.625-2.108 1.42-3.164 2.127-1.477.96-2.834 2.11-4.144 3.3-1.7 1.43-3.047 3.224-4.5 4.907-1.109 1.37-2.252 2.715-3.353 4.09q.038-.219.082-.436a66 66 0 0 1 3.299-4.58A22 22 0 0 1 9.136 17.1c1.95-1.88 3.94-3.723 6.08-5.372 1.845-1.356 3.793-2.58 5.644-3.926 1.363-.865 2.73-1.762 4.172-2.481a89 89 0 0 1 4.717-1.854 53.4 53.4 0 0 1 10.634-1.064c2.503 0 4.942.169 7.307.49m-9.57 2.754c.25-.014.51-.022.763 0 1.248.088 2.522.191 3.763.354 1.417.208 2.816.465 4.226.709 2.883.504 5.674 1.34 8.453 2.263 2.582.831 5.089 1.954 7.498 3.218 1.349.657 2.554 1.527 3.845 2.29 1.124.827 2.275 1.665 3.326 2.59 1.127.977 2.17 2.046 3.245 3.081.689.713 1.461 1.364 2.1 2.127.465.6 1.055 1.045 1.527 1.636-.094.806-1.053.17-1.2-.3-.894-1.092-2.012-1.935-3.054-2.863-.971-.765-1.843-1.664-2.836-2.4-1.523-1.215-3.135-2.318-4.853-3.217-2.464-1.402-5.11-2.452-7.771-3.38-2.041-.66-4.093-1.215-6.217-1.5-2.11-.361-4.222-.742-6.353-.955-1.182-.106-2.372-.282-3.545-.463-1.235-.233-2.466-.126-3.708-.027-1.665.25-3.346.406-4.99.79-1.59.365-3.218.571-4.798.982-1.735.438-3.404 1.185-5.017 1.963-2.614 1.153-5.179 2.386-7.662 3.817-.838.45-1.612 1.009-2.372 1.582-2.132 1.543-4.146 3.259-6.135 4.99a6.7 6.7 0 0 0-1.418 1.554.6.6 0 0 1-.218.327c.025-.012.057-.017.081-.027 2.684-1.97 5.415-3.905 8.126-5.835 1.065-.82 2.237-1.46 3.435-2.045 2.765-1.252 5.596-2.305 8.398-3.463 1.886-.731 3.903-1.006 5.863-1.445a116 116 0 0 1 5.998-1.2c.44-.015.869-.033 1.309-.027 2.118.028 4.215.313 6.326.463 1.5.09 3.012.305 4.499.519 2.215.282 4.39.717 6.571 1.2 1.88.445 3.749.987 5.535 1.744 2.268.974 4.637 1.772 6.68 3.218 1.377.924 2.74 1.857 4.063 2.863 1.565 1.097 3.01 2.401 4.58 3.49.426.1.395.46.164.6.515.496-.403.891-.763.436-.555-.419-1.205-.686-1.854-.9-1.614-.754-3.137-1.678-4.717-2.508-1.147-.636-2.298-1.286-3.49-1.827-1.14-.506-2.274-.992-3.463-1.364-1.26-.473-2.612-.629-3.927-.845-1.77-.22-3.53-.551-5.317-.572-2.171-.104-4.342-.19-6.516-.137-.933-.01-1.85-.025-2.781.055-1.212.099-2.446.11-3.654.245-1.7.146-3.404.37-5.099.573-2.886.363-5.768.528-8.643.981-1.172.22-2.381.361-3.545.627-1.926.39-3.783 1.002-5.617 1.718-1.475.761-2.938 1.619-4.444 2.318-1.657.827-3.374 1.499-5.126 2.072-.85.3-1.738.367-2.563.736-.42.189-1.26.438-1.446-.163.01-.334.224-.513.464-.655.062-.314.381-.564.682-.736-.303.117-.653.05-.682-.382.04-.597.691-.88 1.063-1.254 1.625-1.762 3.317-3.458 5.126-5.017a75 75 0 0 1 4.827-3.817c2.001-1.331 4.101-2.503 6.216-3.627 1.331-.755 2.742-1.317 4.145-1.908a66 66 0 0 1 4.28-1.473c2.074-.708 4.23-1.137 6.381-1.5.75-.088 1.483-.258 2.236-.3zM55.16 19.635c.725.01 1.433.045 2.154.082 1.5.133 3.017.273 4.5.546 1.316.213 2.512.789 3.735 1.308 2.3 1.088 4.52 2.393 6.898 3.3 1.658.548 3.373.865 5.072 1.254.004.045.023.09.027.136-1.11.058-2.218.1-3.326.082-1.47-.181-3.006-.105-4.418-.627-1.395-.469-2.682-1.13-4.008-1.772-.976-.41-1.926-1.006-2.999-1.091-.794-.134-1.606.004-2.4.082-1.298.174-2.615.182-3.899.463-1.426.175-2.816.534-4.199.927-.73.167-1.434.384-2.126.682-.842.26-1.72.45-2.482.927-.722.614-1.587 1.037-2.372 1.554-.592.29-1.151.648-1.8.79-1.444.133-2.886.307-4.335.383-2.228.066-4.45.208-6.68.163-2.052-.1-4.086-.325-6.135-.463-.674-.059-1.42-.05-2.018.327-.567.398-1.005 1.019-1.69 1.227-1.068.265-2.186.156-3.272.109-.668 0-1.308-.132-1.963-.245-1.764-.413-3.512-.961-5.29-1.31-2.142-.459-4.29-.662-6.462-.899-.407-.121-.959-.015-1.39-.082-.26-.04-.46-.135-.628-.382.078-.612.95-.346 1.39-.381.98-.09 1.94-.28 2.918-.382a20.7 20.7 0 0 0 5.617-1.472c1.306-.628 2.608-1.26 3.981-1.718 1.027-.44 2.133-.602 3.217-.818 1.401-.34 2.85-.521 4.281-.655 3.599-.247 7.198-.265 10.798-.49 2.837-.23 5.701-.505 8.534-.791 2.857-.42 5.706-.63 8.589-.736a51 51 0 0 1 2.181-.028M4.282 27.488c.595.138 1.194.367 1.8.464a21.3 21.3 0 0 1 4.472 1.227c1.934.7 3.804 1.61 5.726 2.345 2.535.877 5.097 1.641 7.689 2.317 1.276.27 2.574.436 3.871.546 2.328.262 4.658.408 6.98.709 1.67.294 3.393.324 5.072.109 1.577-.128 3.147-.269 4.717-.464 1.286-.263 2.601-.075 3.9-.082.86.002 1.798-.006 2.508-.572.668-.467 1.01-1.249 1.418-1.936.329-.57.829-1.032 1.472-1.173 1.172-.245 2.364-.371 3.518-.709.743-.078 1.25-.618 1.717-1.172.569-.569 1.164-1.134 1.69-1.745.737-.934 1.67-1.68 2.755-2.127.41-.07.854-.002 1.2.246 1.14.533 1.888 1.69 3.053 2.18.602.3 1.263.133 1.909.137 1.771-.225 3.584-.486 5.344-.79.6-.018 1.296-.652 1.8-.082q.04.136.027.245c.22-.123.436-.256.654-.382.002.027-.002.055 0 .082-.228.132-.455.274-.681.41-.125.31-.58.432-.955.544-.53.313-1.048.621-1.581.927-.254.174-.507.352-.764.519-.968.689-1.961 1.34-2.972 1.963-.678.584-1.279 1.267-1.935 1.881-1.045.966-2.088 1.933-3.245 2.754-.565.5-1.234.859-1.882 1.227-.978.563-2.039.924-3.08 1.336-1.789.61-3.567 1.271-5.427 1.609a56 56 0 0 1-4.69.627c-1.495.19-3.001.213-4.498.382-1.568.109-3.148.158-4.718.245-1.84.063-3.665.17-5.507.11-2.202-.278-4.378-.705-6.544-1.2-2.242-.59-4.517-1.12-6.735-1.8-1.798-.654-3.575-1.372-5.208-2.4-3.561-1.944-7.037-4.025-10.525-6.107-.744-.499-1.55-.929-2.345-1.336-.615.081-1.044-.954-.327-1.146.112.02.216.056.327.082m73.265 1.827c-.97 1.718-1.953 3.421-3.027 5.072-.866 1.464-1.91 2.798-2.999 4.09-.761.98-1.612 1.874-2.481 2.754-2.553 2.522-5.511 4.62-8.644 6.298-1.504.702-2.977 1.474-4.526 2.072-2.447.906-4.868 1.84-7.389 2.509-2.145.464-4.335.733-6.49 1.145-.099.014-.2.014-.3.027-.436.01-.867.027-1.308.027-2.811 0-5.547-.223-8.18-.627-2.305-.679-4.627-1.349-6.844-2.29-1.688-.835-3.31-1.802-4.908-2.808-1.448-.874-2.803-1.881-4.144-2.918-1.686-1.245-3.121-2.802-4.608-4.28a43 43 0 0 1-4.063-4.527c-1.53-1.833-2.856-3.826-4.117-5.862-.08-.161-.199-.31-.3-.464-.004-.006.004-.021 0-.027-.027-.29-.042-.58-.055-.873l2.127 2.264c3.014 3.274 6.286 6.328 9.625 9.243 1.953 1.435 4.03 2.665 6.135 3.844 1.348.711 2.64 1.515 3.981 2.236.975.451 2.033.743 3.054 1.064 1.977.531 3.933 1.088 5.944 1.472 1.435.246 2.9.573 4.363.518 1.887-.045 3.713-.412 5.59-.6a43 43 0 0 0 5.37-.9c3.058-.55 5.97-1.731 8.89-2.78 1.66-.544 3.186-1.42 4.717-2.264 1.634-.888 3.159-1.953 4.608-3.135.99-.738 1.855-1.631 2.726-2.509 1.188-1.372 2.363-2.767 3.545-4.144 1.264-1.5 2.51-3.02 3.763-4.527q-.016.452-.055.9"/><path fill="#bfef90" fill-rule="evenodd" d="M18.26 13.763c-3.384 1.922-4.953 4.865-6.18 3.416-1.228-1.448.52-4.178 3.905-6.1 3.383-1.92 7.12-2.305 8.347-.857 1.228 1.448-2.69 1.621-6.072 3.541"/></g></svg>