<svg xmlns="http://www.w3.org/2000/svg" width="76.568" height="90.261" viewBox="-0.146 0.225 76.568 90.261"><path fill="#e09d73" d="M40.608 89.986H54.5s-3.723-5.449-8.931-5.088c-4.968.345-4.961.702-4.961.702z"/><path fill="none" stroke="#362f52" stroke-width=".5" d="M40.608 89.986H54.5s-3.723-5.449-8.931-5.088c-4.968.345-4.961.702-4.961.702z"/><path fill="#e09d73" d="M36.237 89.986h13.892s-3.723-5.449-8.931-5.088c-4.968.345-4.961.702-4.961.702z"/><path fill="none" stroke="#362f52" stroke-width=".5" d="M36.237 89.986h14.57c-3.868-5.949-11.56-5.018-9.609-5.088 4.976-.177-4.961.702-4.961.702z"/><path fill="#c7b4b0" d="M67.642 43.599S86.405 95.116 4.508 88.736c0 0 25.028-52.083 46.604-52.083 14.371-.044 16.53 6.946 16.53 6.946"/><path fill="none" stroke="#362f52" stroke-width=".5" d="M67.642 43.599S86.405 95.116 4.508 88.736c0 0 25.028-52.083 46.604-52.083 14.371-.044 16.53 6.946 16.53 6.946Z"/><path fill="#a77e76" d="M67.524 43.286s-1.216-2.631-.368-4.144c1.879-3.356 3.929-5.549 3.929-13.976s-2.963-11.584-13.41-12.9c-9.393-1.183-18.082 1.33-19.589 6.33s.032 14.427 2.129 19.591 21.093 8.323 27.309 5.099"/><path fill="none" stroke="#362f52" stroke-width=".5" d="M67.524 43.286s-1.216-2.631-.368-4.144c1.879-3.356 3.929-5.549 3.929-13.976s-2.963-11.584-13.41-12.9c-9.393-1.183-18.082 1.33-19.589 6.33s.032 14.427 2.129 19.591 21.093 8.323 27.309 5.099Z"/><path fill="#4b3a42" d="M62.529.725s-.672 11.252 7.71 18.894z"/><path fill="none" stroke="#362f52" stroke-width=".5" d="M70.239 19.619 62.529.725s-.628 11.252 7.71 18.894Z"/><path fill="#4b3a42" d="M54.284 1.938s2.363 10.961 14.387 14.429z"/><path fill="none" stroke="#362f52" stroke-width=".5" d="M68.67 16.367 54.283 1.937s2.365 10.962 14.387 14.43Z"/><path fill="#e89b60" d="M68.868 34.503h7.054s-2.785-4.746-6.286-5.75c0 0-.377 2.803-.768 5.75"/><path fill="none" stroke="#362f52" stroke-width=".5" d="M68.868 34.503h7.054s-2.785-4.746-6.286-5.75c0 0-.377 2.803-.768 5.75Z"/><path fill="#615d7a" d="M71.089 32.458s.869-.379.819-1.66c0 0-.888.418-.819 1.66"/><path fill="#c4afad" d="M62.157 25.549c0-5.626 2.034-10.188 4.543-10.188s4.543 4.562 4.543 10.188-2.034 10.187-4.543 10.187-4.543-4.561-4.543-10.187"/><path fill="#fccf87" d="M64.73 25.779c0-2.386.862-4.321 1.926-4.321s1.927 1.935 1.927 4.321-.863 4.32-1.927 4.32-1.926-1.934-1.926-4.32"/><path fill="#362f52" d="M68.368 25.889c0-1.503-.543-2.72-1.212-2.72-.67 0-1.213 1.217-1.213 2.72 0 1.502.543 2.719 1.213 2.719.669 0 1.212-1.217 1.212-2.719"/><path fill="none" stroke="#605579" stroke-width=".5" d="M64.73 25.691c0-2.386.862-4.32 1.926-4.32s1.927 1.934 1.927 4.32-.863 4.321-1.927 4.321-1.926-1.934-1.926-4.321Z"/><path fill="none" stroke="#605579" stroke-width=".526" d="M62.131 25.58c0-5.632 2.036-10.198 4.546-10.198 2.513 0 4.549 4.566 4.549 10.198s-2.036 10.198-4.549 10.198c-2.51 0-4.546-4.566-4.546-10.198Z"/><path fill="#605579" d="M67.165 20.735s.068-.263.14-.661a19 19 0 0 0 .296-2.94c.009-.404-.006-.676-.006-.676s-.069.264-.141.661a19 19 0 0 0-.295 2.94c-.009.404.006.676.006.676M65.811 35.066s.065-.265.132-.666a19 19 0 0 0 .256-2.958c.003-.407-.015-.679-.015-.679s-.066.265-.132.666a19 19 0 0 0-.256 2.959c-.003.406.015.678.015.678M69.259 33.249s-.038-.227-.125-.555a13.329 13.329 0 0 0-.854-2.327c-.146-.306-.263-.503-.263-.503s.038.226.125.555c.087.327.217.76.373 1.183.154.423.336.837.481 1.143.146.306.263.504.263.504M70.353 30.302s-.08-.146-.223-.342a7 7 0 0 0-.567-.679 7 7 0 0 0-.651-.6c-.188-.153-.329-.24-.329-.24s.08.146.223.342a6.8 6.8 0 0 0 1.217 1.279c.189.152.33.24.33.24M70.922 26.873s-.112-.069-.287-.142a4.2 4.2 0 0 0-1.337-.308c-.189-.011-.32.003-.32.003s.111.069.287.142a4.17 4.17 0 0 0 1.337.307c.189.011.32-.002.32-.002M70.783 22.786s-.14.041-.334.128a5.2 5.2 0 0 0-1.291.833c-.159.141-.253.252-.253.252s.14-.04.333-.127a5.2 5.2 0 0 0 1.291-.834c.159-.141.254-.252.254-.252M69.636 18.865s-.121.186-.273.477a12.751 12.751 0 0 0-.907 2.227c-.094.316-.137.534-.137.534s.121-.186.274-.478a12.4 12.4 0 0 0 .905-2.226c.095-.316.138-.534.138-.534M65.44 16.779s-.004.267.021.662a18.5 18.5 0 0 0 .412 2.868c.088.386.167.641.167.641s.004-.267-.021-.662a18.246 18.246 0 0 0-.413-2.868 10 10 0 0 0-.166-.641M63.693 19.153s.061.187.179.453a9.836 9.836 0 0 0 1.067 1.83c.173.234.307.379.307.379s-.061-.188-.179-.453a9.8 9.8 0 0 0-1.068-1.831c-.173-.233-.306-.378-.306-.378M62.775 22.637s.088.127.24.293a6 6 0 0 0 1.261 1.04c.192.117.334.179.334.179s-.088-.128-.24-.294a6 6 0 0 0-1.261-1.039c-.192-.117-.334-.179-.334-.179M62.626 26.763s.122.042.306.074a4 4 0 0 0 1.343.005c.184-.031.306-.074.306-.074s-.122-.042-.305-.074a4 4 0 0 0-1.344-.004c-.184.031-.306.073-.306.073M63.12 30.761s.141-.098.327-.265a7.4 7.4 0 0 0 1.195-1.381 4 4 0 0 0 .216-.362s-.14.098-.327.265a7.3 7.3 0 0 0-1.195 1.381c-.139.209-.216.362-.216.362M67.524 35.082s.024-.274.028-.682-.005-.952-.042-1.494a19 19 0 0 0-.157-1.486c-.059-.405-.119-.673-.119-.673s-.024.274-.028.683a19.4 19.4 0 0 0 .199 2.98c.06.404.119.672.119.672M64.243 33.546s.109-.214.244-.543a15 15 0 0 0 .76-2.485c.074-.348.102-.587.102-.587s-.109.214-.243.543a14.7 14.7 0 0 0-.76 2.486c-.073.347-.103.586-.103.586"/><path fill="#fff" d="M68.116 25.134c-.028-.304-.145-.536-.262-.518s-.191.279-.162.584c.027.304.145.535.262.517s.19-.279.162-.583"/><path fill="#a77e76" d="m.354 87.559 27.867-40.334s11.362-17.347 27.396-10.6c16.26 6.842 10.428 24.213 6.03 30.496-4.621 6.6-19.974 25.877-61.293 20.438"/><path fill="#784451" d="M50.678 78.239c.178-.106 5.197-14.905-14.591-16.449-7.3-.57-17.471 2.45-23.584 8.184C8.734 75.056.945 87.079.354 87.559c0 0 30.263 5.234 50.324-9.32"/><path fill="none" stroke="#362f52" stroke-width=".5" d="m.354 87.559 27.867-40.334s11.362-17.347 27.396-10.6c16.26 6.842 10.428 24.212 6.03 30.495C57.026 73.721 41.673 92.997.354 87.559Z"/><path fill="none" stroke="#362f52" stroke-width=".5" d="M50.82 78.138c.178-.106 5.055-14.96-14.733-16.504-7.3-.569-17.791 2.876-23.3 7.93"/><path fill="#362f52" d="m19.315 65.359-2.537 3.554c-1.514 2.138-3.53 4.989-5.547 7.84a355 355 0 0 1-2.974 4.178l-1.383 1.91-1.257 1.698-1.084 1.419-.866 1.071c-.506.57-.797.895-.797.895s.316-.3.851-.847l.917-1.031c.34-.411.723-.874 1.142-1.378a134 134 0 0 0 2.734-3.548c.972-1.319 2-2.732 3.015-4.153l2.925-4.218c.929-1.349 1.766-2.629 2.493-3.719 1.443-2.188 2.368-3.671 2.368-3.671M25.605 62.727l-.722 1.15-1.94 3.006a283 283 0 0 1-2.803 4.206 156 156 0 0 1-3.323 4.743 131 131 0 0 1-3.469 4.634l-1.669 2.075-1.548 1.815-1.355 1.492c-.396.453-.775.814-1.08 1.12l-.96.956 1.003-.912c.318-.292.715-.635 1.132-1.071.421-.428.909-.902 1.413-1.446l1.599-1.779c.547-.65 1.13-1.331 1.714-2.05.569-.73 1.169-1.477 1.758-2.251.579-.782 1.187-1.561 1.759-2.366a158 158 0 0 0 3.29-4.782c1.027-1.541 1.931-3.016 2.713-4.274 1.538-2.533 2.488-4.266 2.488-4.266M32.418 61.773s-.266.462-.758 1.254c-.485.796-1.211 1.913-2.082 3.25a147 147 0 0 1-3.08 4.502c-.567.82-1.191 1.642-1.804 2.49-.636.832-1.276 1.682-1.936 2.515-.67.825-1.308 1.678-1.992 2.469-.68.795-1.326 1.599-2.006 2.327-.675.733-1.296 1.471-1.94 2.118-.64.651-1.216 1.298-1.8 1.84l-1.569 1.508c-.471.446-.909.803-1.255 1.113l-1.104.963 1.143-.915c.36-.295.814-.635 1.304-1.061l1.623-1.458c.599-.531 1.192-1.164 1.849-1.803.663-.634 1.307-1.356 1.985-2.091.689-.726 1.343-1.527 2.032-2.319.693-.79 1.34-1.639 2.018-2.463.656-.841 1.291-1.699 1.922-2.538.608-.856 1.227-1.685 1.79-2.511a109 109 0 0 0 2.993-4.574 86 86 0 0 0 1.962-3.331c.459-.812.705-1.285.705-1.285M40.281 62.53s-.307.482-.875 1.306c-.561.828-1.4 1.985-2.41 3.368-.515.684-1.059 1.436-1.669 2.205l-.928 1.19-.99 1.226c-.662.842-1.39 1.673-2.114 2.532-.729.854-1.509 1.686-2.267 2.539-.79.821-1.56 1.663-2.354 2.456-.811.773-1.575 1.574-2.379 2.278l-1.173 1.047c-.38.347-.753.685-1.14.985-.765.61-1.467 1.217-2.154 1.724l-1.892 1.364c-.559.414-1.096.699-1.513.972l-1.334.827 1.365-.773c.428-.257.979-.523 1.555-.915l1.941-1.308c.702-.494 1.419-1.086 2.202-1.683.786-.592 1.542-1.305 2.357-2.003.813-.702 1.585-1.5 2.407-2.271.803-.791 1.583-1.629 2.381-2.45.755-.861 1.532-1.703 2.257-2.566.72-.866 1.445-1.706 2.101-2.554l.98-1.241.904-1.214c.595-.783 1.123-1.55 1.624-2.246a84 84 0 0 0 2.294-3.456c.536-.845.824-1.339.824-1.339M46.243 65.063s-.302.428-.855 1.158c-.546.735-1.362 1.758-2.34 2.984-.497.606-1.025 1.272-1.612 1.953-.575.69-1.198 1.403-1.844 2.139-.635.746-1.333 1.48-2.024 2.241-.698.755-1.436 1.494-2.16 2.246-.749.727-1.478 1.475-2.231 2.174-.765.685-1.487 1.395-2.243 2.016l-1.101.928a18 18 0 0 1-1.068.873c-.715.54-1.371 1.08-2.012 1.528l-1.758 1.214c-.52.366-1.014.622-1.4.866l-1.234.739 1.264-.685c.397-.227.904-.463 1.441-.807l1.805-1.157c.655-.435 1.326-.959 2.057-1.486.737-.52 1.448-1.151 2.213-1.77.764-.618 1.494-1.325 2.269-2.007.762-.696 1.5-1.441 2.258-2.166.721-.761 1.456-1.509 2.151-2.272.687-.769 1.38-1.512 2.012-2.265.647-.74 1.25-1.474 1.811-2.179.572-.696 1.084-1.376 1.568-1.995a80 80 0 0 0 2.228-3.076c.522-.753.805-1.194.805-1.194M50.272 69.701s-.071.068-.191.213l-.53.624a89 89 0 0 1-1.921 2.188c-.399.45-.846.924-1.319 1.426-.472.502-.989 1.012-1.509 1.556-.538.523-1.075 1.085-1.657 1.619-.574.54-1.157 1.091-1.763 1.614l-.893.802-.909.768c-.595.517-1.208.993-1.799 1.456-.586.47-1.17.901-1.725 1.308-.55.414-1.077.796-1.581 1.124l-1.358.921-1.075.667-.934.589.971-.527 1.11-.612c.422-.249.889-.544 1.4-.865a28 28 0 0 0 1.622-1.078c.571-.392 1.174-.802 1.764-1.274.599-.458 1.22-.93 1.824-1.444l.922-.763.905-.797c.604-.533 1.184-1.092 1.756-1.642.578-.541 1.111-1.111 1.647-1.643a65 65 0 0 0 2.756-3.07c.783-.918 1.391-1.721 1.821-2.278l.486-.652c.11-.154.18-.23.18-.23"/></svg>