<svg xmlns="http://www.w3.org/2000/svg" xml:space="preserve" width="188.402" height="232.265" viewBox="12.8 42.95 188.402 232.265"><title>centaur-b</title><g fill-rule="nonzero"><path fill="#ffd0ae" d="M172.3 151.7c1-1.9 2.6-4.8 5.1-6.1l6 2.5s.6 3.4-.1 5.3c-.5 1.1-1.1 1.7-1.5 3.8-.3 1.9-4.1 4.7-5.3 3.5 0 0-1.7 1.3-2.6-.8 0 0-2 .2-2.8-1.5 0 0-1.2-.1-1.1-2.9 0-1.5.6-3.9 2.3-3.8"/><path fill="#ffd0ae" d="M172.3 154.5c.8-1.4 1.8-1.9 2.2-1.6.9.6-.4 2.8-.9 4.1s.1 1.4.1 1.4c.5-2.7 2.4-4.1 2.7-4 .8.2.8.8.7 1.2.7-1.1 1.7-.6 2-.3.7.8-1.3 4.8-1.3 4.8-.1.3-.4.5-.8.8-.3.1-.4-.1-.6-.3 0 0-1.7 1.3-2.6-.8 0 0-2 .2-2.8-1.5 0 0-1.2-.1-1.1-2.9 0-1.5.6-3.7 2.2-3.8.2.1.3.1.4.3.7.7.1 2-.2 2.6"/><path fill="#bf8865" d="M176.8 161s-.2 0-.5-.2-.5-.7-.5-1.3.1-1.2.3-1.9c.1-.3.2-.7.3-1 .2-.3.2-.7.5-1.1.3-.3.7-.5 1.1-.6s.9-.1 1.3.4c.2.2.2.5.1.7 0 .2-.1.3-.1.5l-.3.9c-.4 1-.7 1.7-.7 1.7s.1-.7.3-1.8c0-.3.1-.6.2-.9 0-.2 0-.3.1-.5 0-.1 0-.2-.1-.3s-.4-.2-.7-.1-.6.2-.8.4-.3.6-.4.9-.3.7-.4 1c-.2.6-.4 1.2-.4 1.7s0 1 .2 1.2c.3.3.5.3.5.3"/><path fill="#bf8865" d="M177.2 155.6s0-.2-.1-.4-.3-.5-.6-.5-.7.3-1 .6c-.2.2-.3.4-.5.6s-.3.5-.4.7-.3.5-.4.7-.2.5-.3.7c-.1.5-.2 1-.1 1.4 0 .4.2.7.3 1 .1.2.2.3.2.3l-.3-.3c-.2-.2-.4-.5-.5-1-.1-.4-.2-1-.1-1.5.1-.3.1-.6.2-.8.1-.3.2-.6.3-.8.3-.5.6-1 1-1.5.2-.2.4-.4.7-.5s.6-.2.9-.1.5.3.5.5c.1.2.1.4.1.5.2.2.1.4.1.4"/><path fill="#bf8865" d="M172.1 159.6s-.2-.1-.5-.3c-.3-.3-.7-.7-.8-1.5 0-.4 0-.7.1-1.1s.3-.8.5-1.1c.4-.7.9-1.5 1.4-2.2.3-.3.6-.8 1.3-.8.4 0 .6.2.8.4 0 .1.1.1.1.2s0 .1.1.2v.4c0 .5-.2.9-.4 1.2-.2.4-.3.7-.5 1-.7 1.2-1.2 1.9-1.2 1.9s.3-.8.8-2c.1-.3.2-.6.4-1 .1-.3.2-.7.2-1.1.1-.2-.3-.6-.4-.6-.2 0-.6.3-.8.6-.5.6-1 1.4-1.5 2.1-.2.4-.4.7-.5 1s-.2.7-.2 1c0 .6.2 1.1.5 1.4z"/><path fill="#bf8865" d="M172.4 153.9v-.5c0-.3 0-.7-.1-1.1 0-.1 0-.2-.1-.2 0-.1-.1-.1-.1-.1-.1-.1-.3-.1-.4-.1-.2 0-.3.1-.4.1h-.2l.1-.1.3-.3c.1 0 .2-.1.3-.1s.2-.1.4 0c.1 0 .3.1.4.2s.2.2.2.4c.2.5.2 1 .1 1.3 0 .3-.1.6-.1.6z"/><path fill="#ffd0ae" d="M178.3 155.1s2.4-6.5 4.8-2.9c.4.6 0 3.7-1.6 5.1-1.4 1.2-5.8 1.3-5.7-1.1 0-1 2.5-1.1 2.5-1.1"/><path fill="#bf8865" d="M176.4 157.6s-.1 0-.3-.1-.4-.3-.6-.5c-.1-.1-.2-.3-.2-.5s0-.5.2-.7c.1-.1.1-.2.2-.3s.2-.1.3-.2l.6-.3q1.35-.3 2.4 0c.3.1.6.2.7.3.2.1.2.2.2.2s-.4-.1-1-.1-1.4.1-2.1.3c-.2 0-.4.1-.5.2-.1 0-.1.1-.2.1l-.1.1c-.2.2-.2.5-.1.8s.3.5.4.6z"/><path fill="#bf8865" d="M183.4 150.8s.1.2.2.5.1.8.1 1.4-.1 1.2-.4 1.9c-.1.4-.2.7-.4 1s-.4.7-.6 1c-.1.2-.3.3-.4.5l-.5.4c-.1.1-.3.2-.5.3s-.3.2-.5.3c-.4.1-.7.2-1.1.2-.3 0-.7.1-.9 0-.3-.1-.6-.1-.8-.2s-.4-.2-.6-.2c-.3-.1-.5-.2-.5-.2s.2 0 .5.1c.2 0 .4.1.6.1h.7c.3 0 .6 0 .9-.1.3 0 .6-.2.9-.3s.6-.3.8-.5l.4-.3.3-.4.6-.9c.1-.3.3-.6.4-1 .3-.6.4-1.3.5-1.8s.2-1 .2-1.3c.2-.3.1-.5.1-.5M178.5 155.3s-.1 0-.2-.1-.2-.1-.4-.3c-.3-.3-.5-.7-.5-1.2-.1-.5 0-.9 0-1.3l.2-.6s.1.2.2.6c.1.3.1.8.2 1.2s.1.8.2 1.1z"/><path fill="#ccad87" d="M185.2 151.1s-6.7 1.9-9.9-5.3l1.3-2.7s-1.8-2.3-.6-4.9c1.1-2.7 3.2-3.9 3.6-5.7s5.4-10.7 6.9-13.5c4.6-8.7 14.1.2 14.2 4.1s-3.2 7.6-3.9 9.9-2.6 5.8-3.7 7.2-2.2 5.2-3.7 6.4-2.9 1.9-2.9 1.9z"/><path fill="#8c6c54" d="M181.6 146.4s-.5-.1-1.2-.5c-.7-.3-1.8-.8-3-1.7-.6-.4-1.1-1-1.6-1.7s-.8-1.6-.7-2.6c0-.5.1-.9.3-1.4.2-.4.4-.9.6-1.3.4-.8.9-1.6 1.4-2.4s1.1-1.5 1.5-2.3.8-1.6 1.1-2.4c.7-1.6 1.5-3.1 2.2-4.3s1.4-2.2 1.8-2.9c.5-.7.8-1.1.8-1.1s-.2.4-.6 1.1-1 1.7-1.6 3-1.3 2.8-2 4.4c-.3.8-.7 1.7-1.1 2.5-.4.9-1 1.6-1.5 2.4s-1 1.6-1.4 2.4c-.2.4-.5.8-.6 1.2q-.3.6-.3 1.2c-.1.8.2 1.6.6 2.3s.9 1.2 1.4 1.7c1 .9 2.1 1.5 2.8 1.9s1.1.5 1.1.5M184.3 147.8s.4.3 1.1.4c.4.1.8.1 1.3 0s1-.3 1.5-.7.9-.9 1.3-1.5.8-1.3 1.2-1.9c.4-.7.7-1.4 1-2.2s.8-1.6 1.3-2.3c.9-1.4 1.8-2.9 2.5-4.3.3-.7.7-1.4.9-2.1s.6-1.4.9-1.9c.6-1.2 1.2-2 1.6-2.7.4-.6.7-1 .7-1s-.2.4-.6 1c-.4.7-.9 1.6-1.4 2.8-.3.6-.5 1.2-.7 1.9s-.5 1.5-.9 2.2c-.7 1.5-1.5 3-2.5 4.5-.5.7-.9 1.4-1.3 2.2-.3.8-.7 1.5-1.1 2.3-.4.7-.9 1.4-1.3 2q-.6.9-1.5 1.5c-.5.4-1.1.6-1.7.7-.5.1-1 0-1.4-.1s-.6-.3-.8-.4c0-.3-.1-.4-.1-.4M185.3 151.1s-.2.1-.5.2-.8.2-1.4.2h-1c-.3 0-.7-.1-1.1-.1-.4-.1-.8-.2-1.1-.3-.4-.1-.7-.3-1.1-.5s-.7-.5-1-.7c-.3-.3-.6-.5-.9-.8-.2-.3-.5-.6-.7-.9s-.4-.6-.5-.8c-.3-.5-.5-1-.6-1.3s-.2-.5-.2-.5.1.2.3.5.4.7.8 1.2c.2.2.4.5.6.7s.5.5.7.8c.3.2.5.5.8.7l.9.6c.3.2.7.4 1 .5s.7.3 1 .4c.7.2 1.4.3 1.9.3h1.4c.5-.1.7-.2.7-.2M188.9 130.3s.3 0 .7-.1c.2 0 .5-.1.7-.1.3 0 .5-.1.8-.1q.9-.15 1.5-.3c.2 0 .4-.1.5-.1h.2s-.2.2-.6.4c-.2.1-.4.2-.7.3s-.6.1-.8.2c-.6.1-1.2.1-1.6 0s-.7-.2-.7-.2"/><path fill="#ccad87" d="M197.8 124.1c2-2.4.2-8-1.9-10s-6.9-12.7-9.3-15.8-8.9-10.6-17.3-6.5c-9.7 4.8 2.2 24.8 7.6 29.7 5.5 4.9 7.1 7.1 9.1 7.8s9.1-1.9 11.8-5.2"/><path fill="#8c6c54" d="M189.6 129.2s-.1 0-.4.1c-.2.1-.6.1-1 .2-.5.1-1 .1-1.7 0-.6-.1-1.4-.4-2-.8-1.4-.8-2.8-2.1-4.1-3.5-1.4-1.4-3-2.7-4.5-4.2-.7-.8-1.5-1.5-2.1-2.4q-1.05-1.2-1.8-2.4-.9-1.2-1.5-2.4c-.4-.8-.8-1.5-1.2-2.3-.4-.7-.6-1.4-.9-2q-.45-.9-.6-1.5c-.3-.9-.5-1.3-.5-1.3s.2.5.6 1.3c.2.4.4.9.8 1.5.3.6.6 1.2 1 1.9s.8 1.4 1.3 2.2 1 1.5 1.6 2.3l1.8 2.4c.7.8 1.4 1.5 2.1 2.3 1.4 1.5 3 2.9 4.4 4.3.7.7 1.3 1.4 1.9 2s1.3 1.2 1.9 1.6 1.3.7 1.9.9 1.2.2 1.6.1c.9-.3 1.4-.3 1.4-.3M197.8 124.1s0-.5.1-1.3.3-1.9.4-3.3c0-.7 0-1.4-.3-2.1s-.7-1.3-1.2-2c-1.1-1.4-2.1-2.9-3.1-4.4-1-1.6-1.9-3.2-2.6-4.7-.4-.8-.7-1.5-1.1-2.2s-.7-1.3-1.1-1.9c-1.4-2.4-2.3-4-2.3-4s.3.4.8 1c.5.7 1.1 1.6 1.9 2.7.4.6.8 1.2 1.2 1.9s.8 1.4 1.2 2.2c.8 1.5 1.7 3.1 2.7 4.6s1.9 3.1 3 4.4c.5.7 1 1.4 1.2 2.2s.3 1.6.2 2.3-.2 1.3-.3 1.9c-.1.5-.2 1-.3 1.4-.4.9-.4 1.3-.4 1.3"/><path fill="#73432d" d="M167.5 195.7c.1-.4 7.6-20.6 3-26.6-6.8-8.8-20.4-7.4-25-3.6s-3.1 13.7-.9 19.8c1.1 2.9 1.2 4.8 2.2 8.5s1.3 10.6 1.9 15.2c.9 6.3-.1 10.7-1.2 12.5s-2.2 5.9-.9 9.6c.9 2.3 4.4 9.6 2.7 21.4-.4 2.9 2.1 5.4 3.3 6.5 1.7 1.7 2.1 6.7 2.1 6.7 1.7 1.7 9.8.7 9.8.7.2-4.7 0-8-2.5-9.7-3.5-2.4-4.1-6.1-4.1-7.5.1-3.6.2-9.9 2.2-15.4 1.8-5 2.3-11.9 2.3-14.3.2-3.9 2.1-10.3 5.1-23.8"/><path fill="#543825" d="M149.1 215.3v-1.5c0-1-.1-2.3-.2-4-.1-1.6-.3-3.5-.6-5.6-.1-1-.3-2.1-.4-3.1-.1-1.1-.4-2.1-.5-3.2-.2-1.1-.4-2.1-.6-3.2s-.5-2.1-.7-3.1-.5-2-.7-2.9-.5-1.8-.7-2.6-.4-1.5-.6-2.2c-.2-.6-.3-1.2-.5-1.7-.3-.9-.4-1.5-.4-1.5s.2.5.5 1.4.8 2.2 1.3 3.8c.2.8.5 1.6.8 2.5s.5 1.9.8 2.9c.2 1 .5 2 .7 3.1s.4 2.1.6 3.2.4 2.2.5 3.2c.1 1.1.3 2.1.4 3.2.2 2 .3 4 .4 5.6v4c0 1.2-.1 1.7-.1 1.7M168 194.2s.1-.6.3-1.4c.2-.9.5-2 .8-3.1.6-2.2 1.3-4.5 1.3-4.5v1.5c-.1.9-.3 2-.6 3.2-.3 1.1-.7 2.2-1.1 3s-.7 1.3-.7 1.3M151.8 225.6s0 .3.1.8.2 1.1.4 1.7l.3.9c.1.3.3.5.4.7s.3.4.4.5l.2.2s-.1 0-.2-.1-.4-.1-.6-.3-.5-.4-.6-.7c-.2-.3-.3-.6-.5-1-.2-.7-.2-1.4-.1-1.9 0-.5.2-.8.2-.8"/><path fill="#b3927e" d="M155.8 269.9c3 .9 9.7.2 12.8-.8 0 0 .6-3.8-.4-6.9-3.5.9-10.6 1.7-13 1.7.8 2.3.6 6 .6 6"/><path fill="#d9c4b6" d="M147.2 231.7c.5 4.3 1.4 15.4-1.9 17.5 0 0 1.8-.2 3.2-2.1 0 0-1.8 1.4-1.8 5.7s-2.3 8-2.3 8 2.5-.9 3.4-2.5c0 0-1.6 4.6.9 7.7 0 0-.7-1.2 1.2-3.4 0 0-.3 5.4 4.9 6.1 0 0-1.2-1.5-.9-3.9 0 0 1 4 6.3 4-1.2-1.2-2.5-3.9-2.8-4.9.8 1.7 3.2 3.7 4 3.7-.5 0-1.4-3.1-.9-4.2 0 0 1.7 3.1 1.7 4.9 0 0 3.6-2 2.5-5.5 0 0 1.5 1.7 1.5 4.2.9-1 1.6-2.1 1.4-3.5.8.7 1.2.8 2.3 2.8 0 0 1.5-7.2-3.1-8.5 0 0 1.9.6 2.7-.7 0 0-4.7-1.8-6.5-4.8s-2.4-5-2.4-5 .1.7 1.9 2.9c0 0-.3-3-1.6-4.8-2.1-2.9-1.4-11.3-1.4-11.3s-3.1-2.1-4.7-1.4-2.5 2.3-4.1 1.1-3.5-2.1-3.5-2.1"/><path fill="#73432d" d="M105.1 168.4s-.9 27.6-14.7 37.4-15 20.8-14.6 29.6c.2 5.5.8 22.1 5.8 23.7 5.4 1.7 3.9 10.6 3.9 10.6-3 .9-9.2 1.4-12.2.5 0 0 .1-7.4-2.1-8s-5.1-2.4-3.9-5.7-.4-18.1-1.9-22.6c-1.4-4.6-6.1-12.9-2.6-17.7s11.6-17.9 9-26.2-16.7-40.2 2.8-44.9 32.6 2.9 30.5 23.3"/><path fill="#b3927e" d="M72.8 270.6c3 .9 9.7.2 12.8-.8 0 0 .6-3.8-.4-6.9-3.5.9-10.6 1.7-13 1.7.8 2.2.6 6 .6 6"/><path fill="#543825" d="M66.3 225.4s-.3-.4-.6-1.2c-.1-.4-.3-.8-.3-1.3-.1-.5-.1-1-.1-1.5.1-.3.1-.5.2-.8s.1-.5.3-.7c.1-.2.2-.4.4-.6.1-.2.3-.4.4-.5.3-.3.6-.5.8-.6s.3-.2.3-.2-.1.1-.2.3l-.3.3c-.1.1-.2.3-.3.4s-.2.3-.3.5l-.3.6c-.1.2-.1.4-.2.7-.1.2-.1.5-.1.7-.1 1 0 1.9.1 2.7 0 .7.2 1.2.2 1.2M67.8 208.1s.3-.6.9-1.7c.5-1.1 1.2-2.6 1.9-4.5s1.4-4.2 1.6-6.7c.1-1.2 0-2.5-.4-3.8s-.8-2.6-1.3-3.8c-.9-2.6-1.8-5.1-2.6-7.6-.8-2.4-1.3-4.8-1.8-6.7-.4-2-.7-3.7-.9-4.8l-.3-1.8s.1.7.4 1.8c.1.6.3 1.3.5 2.1s.4 1.7.7 2.7.5 2 .9 3.2c.3 1.1.7 2.3 1.1 3.5q1.2 3.6 2.7 7.5c.4 1.3.9 2.6 1.2 3.9.4 1.3.5 2.7.4 4s-.4 2.5-.7 3.6-.7 2.2-1.1 3.1c-.8 1.9-1.6 3.4-2.2 4.4s-1 1.6-1 1.6M92.2 204.5s.5-.4 1.2-1.2q.6-.6 1.2-1.5c.4-.6 1-1.3 1.5-2 .2-.4.5-.8.8-1.2.2-.4.5-.9.8-1.3.5-.9 1-1.9 1.5-2.9.4-1.1 1-2.1 1.4-3.3.4-1.1.8-2.3 1.2-3.5l.5-1.7c.2-.6.3-1.2.5-1.8.3-1.2.6-2.3.8-3.4s.5-2.2.6-3.3c.2-1 .3-2 .4-2.9.3-1.8.4-3.4.5-4.4.1-1.1.2-1.7.2-1.7s0 .6-.1 1.7c0 .5-.1 1.2-.1 1.9 0 .8-.1 1.6-.2 2.5q-.15 1.35-.3 3c-.1 1.1-.3 2.2-.5 3.3s-.5 2.3-.7 3.5c-.1.6-.3 1.2-.4 1.8l-.5 1.8c-.3 1.2-.8 2.3-1.2 3.5s-1 2.2-1.4 3.3c-.5 1-1 2-1.6 2.9-.3.5-.5.9-.8 1.3s-.6.8-.8 1.2c-.5.8-1.1 1.4-1.6 2s-.9 1-1.3 1.4c-1.1.7-1.6 1-1.6 1"/><path fill="#d9c4b6" d="M65 232.3c.5 4.3.5 15.3-2.7 17.5 0 0 1.8-.2 3.2-2.1 0 0-1.8 1.4-1.8 5.7s-2.3 8-2.3 8 2.5-.9 3.4-2.5c0 0-1.6 4.6.9 7.7 0 0-.7-1.2 1.2-3.4 0 0-.3 5.4 4.9 6.1 0 0-1.2-1.5-.9-3.9 0 0 1 4 6.3 4-1.2-1.2-2.5-3.9-2.8-4.9.8 1.7 3.2 3.7 4 3.7-.5 0-1.4-3.1-.9-4.2 0 0 1.7 3.1 1.7 4.9 0 0 3.6-2 2.5-5.5 0 0 1.5 1.7 1.5 4.2.9-1 1.6-2.1 1.4-3.5.8.7 1.2.8 2.3 2.8 0 0 1.5-7.2-3.1-8.5 0 0 1.9.6 2.7-.7 0 0-4.7-1.8-6.5-4.8s-2.4-5-2.4-5 .1.7 1.9 2.9c0 0-.3-3-1.6-4.8-2.1-2.9-2.3-10.6-2.3-10.6s-2.1-2.8-3.7-2.1-2.5 2.3-4.1 1.1c-1.4-1.2-2.8-2.1-2.8-2.1"/><path fill="#453027" d="M56.7 145c-9.9-3.4-11.5 15.3-8.7 27.3s-3 16.1-4.9 21.6 1.6 7.6 1.6 7.6c-2.7 1.1-4.4-1.4-4.4-1.4s2.7 8.2.3 12 .8 7.4.8 7.4c-3.5 0-3.8-4.4-3.8-4.4 0 7.9-7.1 10.6-7.1 10.6.5 10.1-9 11.5-9 11.5 3.8-2.7 2.2-7.4 2.2-7.4-2.2 7.4-9.8 4.6-9.8 4.6 5.7 1.1 8.5-7.9 3.5-10.9s.3-11.2.3-11.2c-2.5.8-4.4-1.1-4.4-1.1 7.4-1.1 3.3-10.1 3-17.5s6-9.6 6-9.6c-6 0-4.6-5.2-4.6-5.2s.3 4.4 6.6 1.6.3-19.7.3-28.1c0-8.5 6.3-17.5 17.2-20.7 10.9-3.3 17.5 8.7 17.5 8.7 2.9 5.6.5 5.7-2.6 4.6"/><path fill="#261a11" d="M44.7 201.5s-.1.1-.4.2c-.2.1-.6.3-1.1.3h-.8c-.3 0-.6-.2-.9-.3-.3-.2-.6-.3-.8-.6-.3-.2-.4-.5-.6-.8s-.3-.6-.5-.8l-.3-.9c-.2-.6-.2-1.1-.3-1.6-.1-.9-.1-1.6-.1-1.6s.2.6.4 1.5c.2.4.3.9.5 1.5.1.3.2.5.3.8.1.2.3.5.4.8.2.2.3.5.5.7s.4.4.6.5.4.3.7.3c.2.1.5.1.7.1.4 0 .8 0 1.1-.1zM41.4 219.5s-.2.1-.5.1h-.6c-.1 0-.2 0-.3-.1-.1 0-.2-.1-.4-.2s-.5-.3-.7-.5-.4-.5-.6-.8-.4-.6-.5-.9-.3-.7-.3-1c-.1-.3-.2-.7-.2-1s-.1-.7-.1-1v-1.7c.1-1 .1-1.7.1-1.7s.1.7.2 1.7c.1.5.2 1.1.3 1.7.1.3.1.6.2 1 .1.3.2.6.2 1l.3.9c.1.3.3.6.4.9.2.2.3.5.5.7s.4.4.6.5l.6.3c.2.1.4.1.5.1zM34.6 222.6c-.4.8-1 1.4-1.6 2-.3.3-.7.5-1.1.7s-.8.4-1.2.5c-.2.1-.4.1-.6.2s-.4.1-.6.1l-.7.1h-.7c-.4 0-.9-.1-1.3-.2-.2 0-.4-.1-.6-.2s-.4-.2-.6-.2c.7-.1 1.5-.4 2.1-.7l.9-.6c.3-.2.6-.5.8-.8.1-.1.2-.3.3-.4s.2-.3.3-.5l.3-.5.2-.5c.2-.3.2-.7.3-1.1s.1-.7.2-1.1v1.2c-.1.4-.1.8-.2 1.1l-.2.6-.3.5c-.2.3-.4.7-.7 1s-.6.5-.9.8l-.5.3-.5.3c-.7.3-1.5.5-2.2.5.4 0 .8.1 1.3.1H28c.4 0 .8 0 1.2-.1.2 0 .4-.1.6-.1s.4-.1.6-.1c.4-.1.8-.3 1.1-.4.4-.2.7-.4 1.1-.6.3-.2.7-.5 1-.7.4-.5.7-.8 1-1.2M13.9 234.5s.2 0 .7.1c.4.1 1 .1 1.7.1.4 0 .7 0 1.1-.1.4 0 .8-.1 1.2-.2s.8-.2 1.3-.4c.4-.2.8-.4 1.2-.7.4-.2.7-.6 1-.9s.5-.7.8-1.1c.2-.4.3-.8.5-1.1.1-.4.2-.8.3-1.1s.2-.7.2-.9c0-.3.1-.5.1-.7.1-.4.1-.7.1-.7v2c0 .2-.1.3-.1.5-.1.4-.1.8-.2 1.2s-.3.8-.5 1.3c-.3.4-.5.8-.8 1.2s-.7.8-1.1 1c-.4.3-.9.5-1.3.7-.5.2-.9.3-1.4.4s-.9.1-1.3.1h-1.2c-1.4-.3-2.3-.7-2.3-.7M13.3 211.3s.6.3 1.4.6c.2.1.5.1.7.2.3.1.5.1.8.1h.8c.3 0 .6-.1.8-.2.3-.1.5-.2.8-.4.2-.2.5-.3.7-.5l.6-.6c.2-.2.3-.4.5-.6q.45-.6.6-.9c.2-.2.2-.4.2-.4s0 .2-.1.4c-.1.3-.2.7-.4 1.1-.1.2-.2.4-.4.7-.2.2-.4.5-.6.7s-.5.4-.7.6c-.3.2-.6.3-.9.5-.3.1-.7.2-1 .2-.3.1-.7 0-1 0-.6-.1-1.2-.3-1.6-.5-.8-.5-1.2-1-1.2-1M17.7 179.1v.6c0 .4 0 .9.1 1.5 0 .3.2.6.3.9.1.1.2.3.2.4.1.2.2.3.3.4.1.2.3.2.4.4.1.1.3.2.5.3s.3.2.5.2l.6.1c.4.1.8 0 1.2.1.4 0 .8-.1 1.2-.1.8-.1 1.4-.3 2.1-.4l2-.5s-.7.4-1.9.9c-.3.1-.6.2-1 .3-.3.1-.7.2-1.1.3-.4 0-.8.2-1.2.2s-.9 0-1.3-.1l-.6-.1-.6-.3c-.2-.1-.4-.2-.5-.4-.2-.1-.3-.3-.5-.5-.1-.2-.3-.3-.3-.5-.1-.2-.2-.4-.2-.5-.1-.4-.2-.7-.2-1-.1-.6 0-1.2.1-1.5-.2-.5-.1-.7-.1-.7M57.8 141.5s-.5-.9-1.6-2c-.3-.3-.5-.6-.9-.9-.3-.3-.7-.6-1-.9-.4-.3-.8-.6-1.2-.8s-.9-.5-1.3-.6c-.4-.2-.9-.3-1.4-.4s-1-.1-1.4-.2h-1.3c-.4 0-.8.1-1.2.1-.4.1-.7.1-1 .2s-.6.1-.8.2c-.4.1-.7.2-.7.2l.6-.3c.2-.1.5-.2.8-.3s.6-.2 1-.3.8-.2 1.2-.2.9-.1 1.4-.1c.5.1 1 0 1.5.2.5.1 1 .2 1.5.4s1 .4 1.4.7q.75.45 1.2.9c.8.6 1.4 1.3 1.8 1.9 1.1 1.2 1.4 2.2 1.4 2.2M56.6 143s-.3-.2-.7-.6c-.5-.3-1.2-.8-2.1-1.2s-2-.8-3.2-.9-2.5.2-3.6.9c-.6.3-1 .8-1.5 1.2-.2.2-.4.5-.6.7-.2.3-.4.5-.6.8-.3.5-.7 1-.9 1.6-.3.5-.5 1-.7 1.5s-.4.9-.5 1.3c-.2.4-.3.7-.4 1l-.3.9s.1-.3.2-.9c.1-.3.1-.6.3-1 .1-.4.2-.9.4-1.3.4-1 .8-2.1 1.5-3.2.2-.3.4-.5.6-.8s.4-.5.6-.8c.5-.5 1-1 1.6-1.4 1.2-.8 2.7-1.1 4-.9 1.3.1 2.5.6 3.4 1.2.9.5 1.6 1.1 2 1.5.3.2.5.4.5.4"/><path fill="#261a11" d="M55.7 144.9s-.3-.1-.9-.2h-1c-.4.1-.8.1-1.2.3l-.6.3c-.2.1-.4.3-.6.4-.2.2-.4.3-.6.6-.2.2-.4.4-.5.7l-.9 1.5c-.2.6-.5 1.1-.7 1.7s-.4 1.2-.5 1.8-.3 1.2-.4 1.8-.2 1.1-.3 1.7c-.1.5-.2 1-.2 1.5-.2 1.9-.4 3.2-.4 3.2V157c0-.5.1-1 .1-1.5.1-.5.1-1.1.2-1.7s.2-1.2.4-1.8c.1-.6.3-1.2.5-1.9.2-.6.5-1.2.7-1.8.3-.6.6-1.1 1-1.6.2-.2.4-.5.6-.7s.5-.4.7-.6.5-.3.7-.4.5-.3.7-.3c.5-.2.9-.2 1.3-.2s.7 0 1 .1zM21.5 237.2s.2-.1.7-.2c.4-.1 1-.3 1.7-.7.7-.3 1.4-.8 2.1-1.3.4-.3.7-.6 1.1-.9s.6-.7.9-1.1.5-.8.8-1.2c.2-.4.4-.9.6-1.3.1-.4.3-.9.4-1.2l.3-1.2c.1-.4.2-.7.2-1s.1-.6.1-.8c.1-.4.1-.7.1-.7v1.5c0 .3 0 .7-.1 1-.1.4-.1.8-.2 1.2s-.2.9-.4 1.3-.4.9-.6 1.4c-.3.4-.5.9-.8 1.3s-.6.8-1 1.1c-.4.4-.8.7-1.1.9-.4.3-.8.5-1.2.7s-.8.4-1.1.5c-.7.3-1.3.4-1.8.4-.4.3-.7.3-.7.3M24.2 180.7s.2 0 .4-.2c.3-.2.6-.4.9-.9s.7-1 .9-1.8c.2-.7.4-1.6.5-2.6 0-.5.1-1 .1-1.5s0-1-.1-1.6c-.1-.5-.1-1.1-.2-1.7s-.2-1.2-.3-1.7c-.2-1.2-.4-2.4-.7-3.6s-.5-2.5-.8-3.8c-.2-1.3-.4-2.5-.6-3.8s-.3-2.5-.3-3.7 0-2.4.2-3.5c.1-.6.2-1.1.3-1.6.2-.5.3-1 .4-1.5.7-1.8 1.5-3.2 2.1-4.2.3-.5.6-.8.7-1.1.2-.3.3-.4.3-.4s-.3.6-.9 1.5c-.5 1-1.3 2.4-1.9 4.2-.2.5-.2.9-.4 1.4-.1.5-.2 1-.2 1.6-.1 1.1-.1 2.2-.1 3.4.1 1.2.2 2.4.4 3.7.2 1.2.4 2.5.6 3.8s.5 2.5.7 3.8c.3 1.2.5 2.5.7 3.7.1.6.2 1.2.2 1.8s.1 1.2.1 1.7v1.6c0 .5-.1 1-.1 1.5-.1.5-.1.9-.2 1.4-.1.4-.2.8-.4 1.2-.3.8-.7 1.3-1 1.8-.4.4-.7.7-1 .8-.1.3-.3.3-.3.3"/><path fill="#874e35" d="M174.1 148.6c5.4 10.7 6.4 23.6 2.4 33.9-8.4 21.3-43.3 21.5-67.9 12.1-10.3-3.9-20.6-.7-44.1-3.9-13.8-1.9-23.1-19.5-15.7-36.7s26.4-23.8 41.6-16c18.2 9.3 46.8-.3 53.5-4.2 6.1-3.6 24.8 4.1 30.2 14.8"/><path fill="#633c22" d="M91.4 138.4s.6.3 1.8.7q.9.3 2.1.6c.8.2 1.8.4 2.8.7 1 .2 2.1.4 3.3.5.6.1 1.2.2 1.8.2.6.1 1.3.1 1.9.2 1.3.1 2.7.1 4 .2 1.4 0 2.8 0 4.2-.1l4.2-.3c1.4-.2 2.7-.3 4-.5s2.5-.5 3.7-.7 2.3-.5 3.3-.8c1-.2 2-.4 2.8-.7q1.2-.3 2.1-.6c1.2-.3 1.9-.5 1.9-.5s-.7.2-1.8.6c-.6.2-1.3.4-2.1.7s-1.7.6-2.8.8q-1.5.45-3.3.9c-1.2.2-2.4.5-3.7.8-1.3.2-2.7.4-4 .6-1.4.2-2.8.2-4.2.4-1.4 0-2.8.1-4.2 0s-2.8-.1-4.1-.2c-.7-.1-1.3-.1-1.9-.2l-1.8-.3c-1.2-.2-2.3-.5-3.4-.7-1-.3-2-.5-2.8-.8-.8-.2-1.5-.5-2.1-.7-1.1-.4-1.7-.8-1.7-.8M114.4 196.5s.9.3 2.4.7 3.8.9 6.5 1.4c5.4 1 12.6 2 19.9 1.7 1.8 0 3.6-.2 5.4-.4s3.5-.5 5.2-.9l2.4-.6c.8-.2 1.6-.4 2.3-.7 1.5-.5 2.9-1 4.1-1.6l1.8-.9c.5-.3 1.1-.6 1.5-.9 1-.5 1.7-1.1 2.4-1.5 1.3-1 2-1.5 2-1.5s-.7.6-1.9 1.6c-.7.5-1.4 1.1-2.4 1.7l-1.5.9q-.75.45-1.8.9c-1.2.6-2.6 1.2-4.1 1.7s-3.1 1-4.8 1.4-3.4.7-5.2.9-3.6.4-5.5.4c-1.8.1-3.7 0-5.5-.1s-3.6-.2-5.3-.4c-3.4-.4-6.6-1-9.3-1.5-2.7-.6-4.9-1.2-6.4-1.7-1.3-.3-2.2-.6-2.2-.6"/><path fill="#874e35" d="M175.1 151.3s3.2 9 6 9.7c0 0-2.7-.1-3.5-2.1 0 0 3.7 3.4 3.7 6.3 0 0-.7-1.7-1.8-1.7 0 0 2.9 4.4-.7 7.6"/><path fill="#633c22" d="M178.3 167.2s.2.6.4 1.5.3 2.2.3 3.4-.2 2.5-.4 3.4c-.1.5-.3.8-.4 1.1s-.2.4-.2.4v-.4c0-.3.1-.7.1-1.1.1-.9.1-2.1.2-3.3v-5M181 160.9h-.3c-.2-.1-.5-.2-.8-.4-.6-.4-1.3-1.1-1.8-1.9s-.9-1.7-1.1-2.4c-.1-.3-.2-.6-.2-.8s-.1-.3-.1-.3.3.4.6 1c.4.6.8 1.4 1.3 2.2s1 1.5 1.5 2c.5.4.9.6.9.6M181.2 165.2s-.1-.3-.3-.8-.4-1.1-.7-1.6q-.45-.9-.9-1.5c-.1-.2-.2-.4-.3-.5s-.1-.2-.1-.2.1 0 .2.1.3.2.5.3l.6.6c.2.3.4.6.5.9.3.6.4 1.3.5 1.8s0 .9 0 .9M179.4 163.5s.3.3.6.8c.2.2.3.6.4.9s.2.7.3 1.1q.15.6 0 1.2c0 .4-.1.7-.2 1q-.15.45-.3.6c-.1.1-.1.2-.1.2v-.3c0-.2 0-.4.1-.7v-.9c0-.3 0-.7-.1-1.1-.1-.7-.3-1.4-.4-2-.2-.4-.3-.8-.3-.8"/><path fill="#874e35" d="M87.9 172.1s-.9 27.6-14.7 37.4-15 20.8-14.6 29.6c.2 5.5.8 22.1 5.8 23.7 5.4 1.7 3.9 10.6 3.9 10.6-3 .9-9.2 1.4-12.2.5 0 0 .1-7.4-2.1-8s-5.1-2.4-3.9-5.7-.4-18.1-1.9-22.6-6.1-12.9-2.6-17.7 11.6-17.9 9-26.2-16.7-40.2 2.8-44.9 32.5 2.9 30.5 23.3"/><path fill="#b3927e" d="M55.5 274.3c3 .9 9.7.2 12.8-.8 0 0 .6-3.8-.4-6.9-3.5.9-10.6 1.7-13 1.7.8 2.2.6 6 .6 6"/><path fill="#633c22" d="M49 229.1s-.3-.4-.6-1.2c-.1-.4-.3-.8-.3-1.3-.1-.5-.1-1-.1-1.5.1-.3.1-.5.2-.8s.1-.5.3-.7c.1-.2.2-.4.4-.6.1-.2.3-.4.4-.5.3-.3.6-.5.8-.6s.3-.2.3-.2-.1.1-.2.3l-.3.3c-.1.1-.2.3-.3.4s-.2.3-.3.5l-.3.6c-.1.2-.1.4-.2.7-.1.2-.1.5-.1.7-.1 1 0 1.9.1 2.7.1.7.2 1.2.2 1.2M50.5 211.8s.3-.6.9-1.7c.5-1.1 1.2-2.6 1.9-4.5s1.4-4.2 1.6-6.7c.1-1.2 0-2.5-.4-3.8s-.8-2.6-1.3-3.8c-.9-2.6-1.8-5.1-2.6-7.6-.8-2.4-1.3-4.8-1.8-6.7-.4-2-.7-3.7-.9-4.8l-.3-1.8s.1.7.4 1.8c.1.6.3 1.3.5 2.1s.4 1.7.7 2.7.5 2 .9 3.2c.3 1.1.7 2.3 1.1 3.5q1.2 3.6 2.7 7.5c.4 1.3.9 2.6 1.2 3.9.4 1.3.5 2.7.4 4s-.4 2.5-.7 3.6-.7 2.2-1.1 3.1c-.8 1.9-1.6 3.4-2.2 4.4s-1 1.6-1 1.6M74.9 208.2s.5-.4 1.2-1.2q.6-.6 1.2-1.5c.4-.6 1-1.3 1.5-2 .2-.4.5-.8.8-1.2.2-.4.5-.9.8-1.3.5-.9 1-1.9 1.5-2.9.4-1.1 1-2.1 1.4-3.3.4-1.1.8-2.3 1.2-3.5l.5-1.7c.2-.6.3-1.2.5-1.8.3-1.2.6-2.3.8-3.4s.5-2.2.6-3.3c.2-1 .3-2 .4-2.9.3-1.8.4-3.4.5-4.4.1-1.1.2-1.7.2-1.7s0 .6-.1 1.7c0 .5-.1 1.2-.1 1.9 0 .8-.1 1.6-.2 2.5q-.15 1.35-.3 3c-.1 1.1-.3 2.2-.5 3.3s-.5 2.3-.7 3.5c-.1.6-.3 1.2-.4 1.8l-.5 1.8c-.3 1.2-.8 2.3-1.2 3.5s-1 2.2-1.4 3.3c-.5 1-1 2-1.6 2.9-.3.5-.5.9-.8 1.3s-.6.8-.8 1.2c-.5.8-1.1 1.4-1.6 2s-.9 1-1.3 1.4c-1.1.7-1.6 1-1.6 1"/><path fill="#ebd4c5" d="M47.7 236c.5 4.3.5 15.3-2.7 17.5 0 0 1.8-.2 3.2-2.1 0 0-1.8 1.4-1.8 5.7s-2.3 8-2.3 8 2.5-.9 3.4-2.5c0 0-1.6 4.6.9 7.7 0 0-.7-1.2 1.2-3.4 0 0-.3 5.4 4.9 6.1 0 0-1.2-1.5-.9-3.9 0 0 1 4 6.3 4-1.2-1.2-2.5-3.9-2.8-4.9.8 1.7 3.2 3.7 4 3.7-.5 0-1.4-3.1-.9-4.2 0 0 1.7 3.1 1.7 4.9 0 0 3.6-2 2.5-5.5 0 0 1.5 1.7 1.5 4.2.9-1 1.6-2.1 1.4-3.5.8.7 1.2.8 2.3 2.8 0 0 1.5-7.2-3.1-8.5 0 0 1.9.6 2.7-.7 0 0-4.7-1.8-6.5-4.8s-2.4-5-2.4-5 .1.7 1.9 2.9c0 0-.3-3-1.6-4.8-2.1-2.9-2.3-10.6-2.3-10.6s-2.1-2.8-3.7-2.1-2.5 2.3-4.1 1.1c-1.4-1.2-2.8-2.1-2.8-2.1"/><path fill="#874e35" d="M153.7 200.1c.1-.4 7.6-20.6 3-26.6-6.8-8.8-20.4-7.4-25-3.6s-3.1 13.7-.9 19.8c1.1 2.9 1.2 4.8 2.2 8.5s1.3 10.6 1.9 15.2c.9 6.3-.1 10.7-1.2 12.5s-2.2 5.9-.9 9.6c.9 2.3 4.4 9.6 2.7 21.4-.4 2.9 2.1 5.4 3.3 6.5 1.7 1.7 2.1 6.7 2.1 6.7 1.7 1.7 9.8.7 9.8.7.2-4.7 0-8-2.5-9.7-3.5-2.4-4.1-6.1-4.1-7.5.1-3.6.2-9.9 2.2-15.4 1.8-5 2.3-11.9 2.3-14.3.2-3.9 2-10.3 5.1-23.8"/><path fill="#633c22" d="M135.3 219.7v-1.5c0-1-.1-2.3-.2-4-.1-1.6-.3-3.5-.6-5.6-.1-1-.3-2.1-.4-3.1-.1-1.1-.4-2.1-.5-3.2-.2-1.1-.4-2.1-.6-3.2s-.5-2.1-.7-3.1-.5-2-.7-2.9-.5-1.8-.7-2.6-.4-1.5-.6-2.2c-.2-.6-.3-1.2-.5-1.7-.3-.9-.4-1.5-.4-1.5s.2.5.5 1.4.8 2.2 1.3 3.8c.2.8.5 1.6.8 2.5s.5 1.9.8 2.9c.2 1 .5 2 .7 3.1s.4 2.1.6 3.2.4 2.2.5 3.2c.1 1.1.3 2.1.4 3.2.2 2 .3 4 .4 5.6v4c-.1 1.2-.1 1.7-.1 1.7M154.2 198.6s.1-.6.3-1.4c.2-.9.5-2 .8-3.1.6-2.2 1.3-4.5 1.3-4.5v1.5c-.1.9-.3 2-.6 3.2-.3 1.1-.7 2.2-1.1 3s-.7 1.3-.7 1.3M138 230s0 .3.1.8.2 1.1.4 1.7l.3.9c.1.3.3.5.4.7s.3.4.4.5l.2.2s-.1 0-.2-.1-.4-.1-.6-.3-.5-.4-.6-.7c-.2-.3-.3-.6-.5-1-.2-.7-.2-1.4-.1-1.9 0-.5.2-.8.2-.8"/><path fill="#b3927e" d="M142 274.3c3 .9 9.7.2 12.8-.8 0 0 .6-3.8-.4-6.9-3.5.9-10.6 1.7-13 1.7.8 2.2.6 6 .6 6"/><path fill="#ebd4c5" d="M133.4 236.1c.5 4.3 1.4 15.4-1.9 17.5 0 0 1.8-.2 3.2-2.1 0 0-1.8 1.4-1.8 5.7s-2.3 8-2.3 8 2.5-.9 3.4-2.5c0 0-1.6 4.6.9 7.7 0 0-.7-1.2 1.2-3.4 0 0-.3 5.4 4.9 6.1 0 0-1.2-1.5-.9-3.9 0 0 1 4 6.3 4-1.2-1.2-2.5-3.9-2.8-4.9.8 1.7 3.2 3.7 4 3.7-.5 0-1.4-3.1-.9-4.2 0 0 1.7 3.1 1.7 4.9 0 0 3.6-2 2.5-5.5 0 0 1.5 1.7 1.5 4.2.9-1 1.6-2.1 1.4-3.5.8.7 1.2.8 2.3 2.8 0 0 1.5-7.2-3.1-8.5 0 0 1.9.6 2.7-.7 0 0-4.7-1.8-6.5-4.8s-2.4-5-2.4-5 .1.7 1.9 2.9c0 0-.3-3-1.6-4.8-2.1-2.9-1.4-11.3-1.4-11.3s-3.1-2.1-4.7-1.4-2.5 2.3-4.1 1.1c-1.3-1.2-3.5-2.1-3.5-2.1"/><path fill="#ccad87" d="M171.8 146s6 6.1 6.6 8.1c0 0-9.7 8.6-21.8 7s-29.4-9.1-34.6-21l7.2-1.2s32.9 13 42.6 7.1"/><path fill="#8c6c54" d="m178.4 154.1-.5-.5c-.3-.3-.7-.8-1-1.3s-.6-1-.9-1.4c-.2-.4-.4-.7-.4-.7s.3.1.7.4.8.7 1.1 1.2.6 1 .8 1.4c.1.6.2.9.2.9"/><path fill="#633c22" d="M125.6 139.2s3.9 13.8 23.2 15.2c15 1.1 23 0 26.8-4.1l-1.2-2.5s-4.9 4.8-27.9 1.6c-9-1.3-18.2-10.5-18.2-10.5z"/><path fill="#633c22" d="M131 145.4c-2.9 1.4-5.6 10.1-5.2 13.9s9 8.5 13.8 5.8 5-12.4 3.1-14.5-10.2-5.9-11.7-5.2"/><path fill="#45281c" d="M130.2 146.5s.1.3.2.7.3 1.1.5 1.8.5 1.6 1 2.4c.2.4.5.8.8 1.1.4.3.7.5 1.2.4.5 0 1-.1 1.5-.1.5-.1 1-.1 1.5-.2q1.5-.15 2.7-.3c1.6-.2 2.6-.3 2.6-.3s-1 .3-2.5.7c-.8.2-1.7.4-2.6.5-.5.1-1 .1-1.5.2s-1.1.1-1.6.2h-.4c-.2 0-.3-.1-.5-.1-.1-.1-.3-.1-.4-.2l-.3-.3c-.4-.4-.7-.9-.9-1.3-.4-.9-.7-1.8-.8-2.6-.4-1.5-.5-2.6-.5-2.6"/><circle cx="8.9" cy="6.7" r="1" fill="#8c7539" transform="translate(125 145)"/><path fill="#45281c" d="m130.1 164.2 1 .5c.6.3 1.6.6 2.7.9s2.6.4 3.9 0c.7-.2 1.3-.6 1.9-1.1s1-1.1 1.4-1.8c.8-1.3 1.5-2.8 1.8-4.2.2-.7.3-1.4.4-2.1s.1-1.3.1-1.9c0-.3 0-.6-.1-.9 0-.3-.1-.5-.1-.8q-.15-.75-.3-1.2c-.2-.7-.3-1.1-.3-1.1s0 .1.1.3.2.4.3.8c.1.3.3.7.4 1.2s.2 1 .3 1.6.1 1.3 0 2c0 .7-.1 1.4-.3 2.2-.4 1.5-1 3-1.8 4.4-.4.7-.9 1.4-1.6 1.9-.6.5-1.4 1-2.1 1.2-.8.2-1.5.2-2.2.2-.7-.1-1.4-.2-1.9-.4-1.2-.3-2.1-.8-2.7-1.2-.3-.2-.5-.3-.7-.4-.1-.1-.2-.1-.2-.1"/><path fill="#ffd0ae" d="M145.6 79.8s-.3 8.4-5.4 10.2c-5.2 1.8-4.2 3.1-4.2 3.1s11.5 17.2 24.2 12.6c8.7-3.1 9.9-10.8 9.9-10.8s-3.1-2.4-4.8-4.6-3.2-10.4-3.2-10.4-6.5-11.7-16.5-.1"/><path fill="#ccad87" d="M144.5 85.6c2 2.4 14.3 20.4 14.3 20.4s5.1-16.8 5.8-17.5c0 0 2.8-1 8.6 1.1 3.9 1.4 5.1 5.3 5.1 5.3s-1.3 17-1.1 20.7-1.1 21.3-1.1 25.2c0 1.5.4 4.7-2.3 8.5s-9.5 2.4-18.3 2.4-25.4-5.8-27.6-10.5c-2-4.4 1.9-6.6 2.9-13.1s-5.3-35-5.3-35 .6-2.2 11.1-5.1c5.6-1.4 7.9-2.4 7.9-2.4"/><path fill="#8c5634" d="m156.5 105.6.7-.7c.4-.4 1-.9 1.7-1.4.6-.5 1.3-.9 1.8-1.1.5-.3.9-.4.9-.4l-.7.7c-.4.4-1.1.9-1.7 1.4s-1.3.9-1.9 1.1c-.4.3-.8.4-.8.4"/><path fill="#8c5634" d="M155.6 102.9s.4.1 1.1.2c.6.1 1.5.4 2.3.7s1.6.6 2.2.9l1 .5s-.4 0-1.1-.2c-.6-.1-1.5-.4-2.3-.7s-1.6-.6-2.2-.9c-.7-.2-1-.5-1-.5M152.9 101.4s.6-.4 1.6-1 2.4-1.3 3.7-2c1.4-.7 2.8-1.3 3.9-1.8 1.1-.4 1.8-.7 1.8-.7s-.6.4-1.6 1-2.4 1.3-3.7 2c-1.4.7-2.8 1.3-3.9 1.8s-1.8.7-1.8.7"/><path fill="#8c5634" d="m151 96.6 2 .5c1.2.3 2.7.8 4.2 1.3s3 1.1 4.2 1.6c1.1.5 1.8.8 1.8.8l-2-.5c-1.2-.3-2.7-.8-4.2-1.3s-3-1.1-4.2-1.6c-1.1-.4-1.8-.8-1.8-.8"/><path fill="#8c6c54" d="M169.4 151.5h.5c.3 0 .8-.1 1.4-.4.6-.2 1.2-.7 1.8-1.3s1.1-1.5 1.5-2.5c.8-2 1.2-4.5 1.3-7.2.1-1.3 0-2.7 0-4.1v-4.3c0-2.9.2-5.8.3-8.5s.3-5.2.4-7.4.2-4 .3-5.2v-2 .5c0 .3.1.8.1 1.5 0 1.3.1 3.1 0 5.2 0 2.2-.1 4.7-.2 7.4s-.2 5.6-.3 8.5c0 1.4-.1 2.9 0 4.3 0 1.4 0 2.8-.1 4.2-.2 2.7-.6 5.3-1.6 7.3-.5 1-1 1.9-1.7 2.5-.6.6-1.3 1-1.9 1.3-.6.2-1.1.3-1.4.3-.2 0-.4-.1-.4-.1M130.2 143.8s-.1-.1-.3-.2-.5-.4-.9-.7-.8-.7-1.2-1.3-.8-1.3-.9-2.1c-.2-.8-.1-1.8.3-2.7s.9-1.8 1.3-2.7c.9-1.8 1.6-3.9 1.8-6 .2-1.1.2-2.1.2-3.2s-.1-2.1-.2-3.1c-.2-2-.4-3.9-.7-5.6-.2-1.6-.4-3-.6-3.9s-.3-1.5-.3-1.5.2.5.4 1.5c.2.9.5 2.3.8 3.9s.6 3.5.9 5.5c.1 1 .2 2.1.3 3.2 0 1.1 0 2.2-.1 3.3-.3 2.2-1 4.4-2 6.2-.5.9-1 1.8-1.4 2.6s-.5 1.7-.4 2.4c.3 1.6 1.2 2.7 1.8 3.4l.8.8c.3.1.4.2.4.2"/><path fill="#ffd0ae" d="M123.6 144.5s3.9 2.7 5.8 8.4c.6 1.9 1.1 2.9-.6 3.3 0 0 .2 2.2-2.1 1.8 0 0-.9 1.8-2.8 1.5 0 0-1.3 1.7-3.6 0-1.3-.9-2.4-3.5-1.3-4.9-1-2.5-1.1-6-.7-7.5"/><path fill="#ffd0ae" d="M124.3 145.2s2.9 2.6 5 4.6c1.6 1.6 1.6 3.6-.8 2.7"/><path fill="#bf8865" d="M117.8 149.8s.1.5.3 1.4c.2.8.5 1.9.8 2.9l.6 1.5c.1.2.2.4.3.7l.3.6c.2.3.4.6.6.8s.2.3.2.3-.1-.1-.3-.2-.5-.4-.8-.7q-.45-.45-.9-1.2c-.3-.5-.5-1-.7-1.5-.4-1.1-.5-2.2-.6-3.1.2-1 .2-1.5.2-1.5M123.7 157s.1.2.3.5c.1.3.2.7.2 1.2 0 .2-.1.5-.2.7s-.2.4-.4.5c-.3.2-.6.2-.6.2s0-.1.1-.1c.1-.1.1-.2.2-.3.1-.3.2-.6.2-1s.1-.8.1-1.1c0-.4.1-.6.1-.6M126.4 155.8s.2.2.3.5.2.8.2 1.2c0 .5-.2.9-.5 1.2-.3.2-.5.3-.5.3s0-.1.1-.1c.1-.1.1-.2.2-.3 0-.1.1-.3.1-.5s.1-.4.1-.6c0-.4 0-.8.1-1.1-.1-.4-.1-.6-.1-.6M128.4 154.2s.2.2.3.5.3.7.3 1.2c0 .4 0 .9-.2 1.2q-.15.3-.3.3c-.1.1-.2.1-.2.1s0-.1.1-.1v-.4c0-.3 0-.7-.1-1.1 0-.4-.1-.8 0-1.2.1-.3.1-.5.1-.5"/><path fill="#bf8865" d="M120 156.2s.1.1.1.3v.5c0 .2-.1.4-.2.5l-.2.2s-.1-.1-.2-.3-.1-.4-.1-.6.2-.4.3-.5c.1 0 .3-.1.3-.1M129.9 154.6s-.1-.4-.4-.9-.6-1.2-.9-1.9-.7-1.4-.9-1.9-.3-.9-.3-.9.3.3.7.8.8 1.1 1.1 1.8.6 1.5.7 2.1c.1.3.1.6.1.7-.1.1-.1.2-.1.2"/><path fill="#ccad87" d="M115.3 150.3s6.7 2.6 10.3-4.4l-1.1-2.9s1.9-2.1.9-5c-1-2.8-3-4.3-3.3-6.2-.2-1.9-4.8-11.4-6.1-14.5-4.1-9.3-14.3-1.2-14.6 2.8-.4 4 2.7 8.1 3.3 10.5.6 2.5 2.2 6.1 3.3 7.7s1.9 5.5 3.3 7 2.8 2.2 2.8 2.2z"/><path fill="#8c6c54" d="M119.2 145.8s.5-.1 1.2-.5c.8-.3 1.9-.9 3-1.7.6-.4 1.1-1 1.6-1.6.4-.7.7-1.5.6-2.3 0-.9-.5-1.7-.9-2.5-.4-.9-.8-1.7-1.3-2.6-.4-.8-1-1.7-1.4-2.6q-.6-1.35-.9-2.7c-.6-1.7-1.1-3.3-1.7-4.6s-1-2.4-1.4-3.2l-.6-1.2s.3.4.7 1.1 1 1.8 1.6 3.1 1.3 2.9 1.9 4.6c.3.9.6 1.7 1 2.6.4.8.9 1.6 1.4 2.5s.9 1.7 1.3 2.6c.4.8.8 1.8.9 2.7.1 1-.3 1.9-.8 2.6s-1.1 1.2-1.7 1.7c-1.2.8-2.4 1.3-3.2 1.6-.9.3-1.3.4-1.3.4M116.3 147s-.1.1-.3.2q-.3.15-.9.3c-.4.1-.9.1-1.4 0s-1.1-.4-1.6-.9-1-1.1-1.4-1.7l-1.2-2.1c-.4-.8-.7-1.6-1-2.4s-.7-1.6-1.2-2.3c-.8-1.6-1.6-3.2-2.2-4.8-.3-.8-.5-1.6-.7-2.3s-.4-1.4-.6-2c-.5-1.2-.9-2.3-1.2-3s-.5-1.1-.5-1.1.2.4.6 1.1.9 1.7 1.5 2.9c.3.6.5 1.3.7 2s.5 1.5.8 2.2c.6 1.5 1.4 3.1 2.2 4.7.4.8.9 1.6 1.2 2.4l.9 2.4c.3.7.7 1.5 1.1 2.1.4.7.8 1.2 1.2 1.7s1 .8 1.5.9c.5.2 1 .2 1.3.1.8-.2 1.2-.4 1.2-.4M115.1 150.3s.2.1.5.1c.3.1.8.1 1.4.1s1.3 0 2-.1 1.4-.3 2.1-.7c.4-.1.7-.4 1-.5l.9-.6c.3-.2.5-.5.8-.7.2-.2.4-.5.6-.7.4-.4.7-.8.9-1.1s.3-.4.3-.4-.1.2-.2.5c-.2.3-.3.8-.7 1.3-.2.2-.3.5-.6.8-.2.3-.5.5-.7.8-.3.2-.6.5-.9.7-.4.2-.7.4-1.1.6s-.8.3-1.2.4-.8.2-1.2.2h-1.1c-.3 0-.7 0-1-.1-.6-.1-1.1-.3-1.4-.4zM110.2 129.7s-.3.1-.7.1-1-.1-1.6-.2c-.3-.1-.6-.2-.8-.3-.3-.1-.5-.2-.7-.3-.4-.2-.6-.4-.6-.4s.3.1.7.2.9.3 1.5.4c.3.1.5.1.8.2s.5.1.7.2c.4 0 .7.1.7.1"/><path fill="#ccad87" d="M102.2 122.3c-1.7-2.7 1-8.2 3.4-10s8.8-12.2 11.7-15.1 10.5-9.9 18.3-4.6c9 6-5.9 25.1-12.1 29.5-6.2 4.3-8.1 6.4-10.3 6.9s-8.7-3-11-6.7"/><path fill="#8c6c54" d="M109.7 128.4s.5.1 1.3.3c.4.1.9.2 1.5.1.6 0 1.2-.2 1.8-.5 1.3-.5 2.6-1.5 3.9-2.7.7-.6 1.4-1.2 2.1-1.7.7-.6 1.5-1.1 2.3-1.7.7-.6 1.5-1.1 2.2-1.7l2.1-1.8 1.8-1.8c.6-.6 1.1-1.2 1.5-1.7q1.35-1.65 2.1-2.7c.5-.7.8-1 .8-1s-.2.4-.6 1.1-1 1.7-1.9 2.9c-.4.6-.9 1.2-1.4 1.8s-1.1 1.3-1.8 1.9q-.9.9-2.1 1.8c-.7.6-1.5 1.2-2.2 1.7-.8.6-1.5 1.1-2.3 1.7-.7.5-1.5 1.1-2.1 1.7-1.4 1.1-2.8 2-4.2 2.6-.7.3-1.4.4-1.9.4-.6 0-1.1-.1-1.5-.2q-.6-.15-.9-.3c-.4-.1-.5-.2-.5-.2M102.2 122.3V121c0-.4-.1-.9-.1-1.5s-.1-1.2-.1-2c0-.7.2-1.5.6-2.3s.9-1.5 1.6-2.1q1.8-1.95 3.6-4.2c1.2-1.5 2.4-2.9 3.4-4.4l1.5-2.1 1.5-1.8c.9-1.1 1.7-1.9 2.3-2.6l.9-.9s-1.1 1.5-2.9 3.8c-.4.6-.9 1.2-1.3 1.8-.5.6-.9 1.4-1.4 2.1q-1.5 2.25-3.3 4.5c-1.2 1.5-2.5 2.9-3.7 4.2-.6.6-1.2 1.2-1.5 1.9q-.6 1.05-.6 2.1c-.1 1.4-.1 2.6-.1 3.4-.3.9-.4 1.4-.4 1.4"/><path fill="#bf7547" d="M171.3 100.6c1.5-.2 3.1.8 2.7 3.4s2 2.7 2.8 2.5c0 0-3.1 1.9-5.1-.8 0 0 .7 1.4 1.6 1.8 0 0-3.7-1.1-3.8-4.4-.1-1 .4-2.3 1.8-2.5"/><path fill="#8c5634" d="M176.8 106.5s-.1.1-.3.1c-.2.1-.6.1-1 0s-.9-.4-1.2-.8c-.2-.2-.3-.4-.4-.7-.1-.2-.2-.6-.2-.9 0-.6.1-1.1.1-1.6 0-.2 0-.4-.1-.6s-.2-.4-.3-.5c-.2-.3-.5-.5-.7-.6s-.3-.2-.3-.2.1 0 .4.1c.2.1.5.2.9.5.2.2.3.3.4.6.1.2.2.5.2.8.1.5 0 1.1 0 1.6 0 .3 0 .4.1.7l.3.6c.3.4.6.7.9.8.3.2.7.2.9.2.1 0 .3-.1.3-.1"/><path fill="#bf7547" d="M171.5 71.7s4.7 6.3-.2 11.2c0 0 3.5 2.2.5 7.6 0 0 3.1 2.3.1 6.2 0 0 2 1.9-.1 4.6 0 0-4.1-.1-3-4.9 0 0-2.1-2.9-.7-6 0 0-4.6-2.7-1.7-8.2 0 0-4.8-5.1-1.6-9.3s5.2-2.9 6.7-1.2"/><path fill="#8c5634" d="M169.3 74.8s-.2.3-.5.8c-.1.2-.3.5-.4.9-.1.3-.3.7-.4 1-.3.7-.4 1.4-.5 2-.1.3-.1.5-.1.7s-.1.3-.1.3 0-.1-.1-.3c0-.2-.1-.4-.1-.7v-1c0-.4.1-.8.3-1.1.3-.8.7-1.4 1.2-1.9.3-.5.7-.7.7-.7"/><path fill="#8c5634" d="m167.4 77.7-.4-.4c-.2-.2-.5-.6-.8-.9s-.6-.6-.8-.9l-.3-.3-.1-.1s.2 0 .6.2c.3.1.7.4 1 .8s.5.8.7 1.1c.1.3.1.5.1.5M169.2 84s-.2.3-.3.7q-.3.6-.6 1.5c-.2.5-.3 1.1-.3 1.5-.1.4-.1.8-.1.8s0-.1-.1-.2-.1-.3-.2-.5-.1-.5-.1-.8.1-.6.2-.9c.2-.6.6-1.2.9-1.5.3-.5.6-.6.6-.6"/><path fill="#8c5634" d="m167.1 85 .2.2c.1.1.2.3.3.4.1.2.1.4.1.5v.3l-.2-.2c-.1-.1-.2-.3-.3-.4-.1-.2-.1-.4-.1-.5zM170.9 91.1s-.1.3-.3.7-.4.9-.7 1.3c-.2.5-.4 1-.6 1.4-.1.2-.1.4-.2.5 0 .1-.1.2-.1.2s-.1-.3-.1-.7.1-1 .3-1.6c.3-.5.6-1 .9-1.3.6-.4.8-.5.8-.5M170.6 96.9v3.6s-.2-.1-.4-.5c-.1-.2-.2-.3-.2-.6-.1-.2-.1-.5-.1-.7 0-.5.1-1 .3-1.3.2-.4.4-.5.4-.5"/><g fill="#8c5634"><path d="M168.9 92.4s.1 0 .2.1l.3.3c.1.1.1.3.1.4s-.1.2-.1.2-.1-.1-.1-.2c-.1-.1-.2-.2-.2-.3s-.1-.1-.1-.2 0-.1-.1-.2zM169.4 97.7s.1 0 .2.1c.1 0 .2.1.4.2.1.1.2.2.2.4 0 .1.1.2.1.2s-.1 0-.2-.1c-.1 0-.2-.1-.4-.2-.1-.1-.2-.2-.2-.4-.1-.1-.1-.2-.1-.2"/></g><path fill="#8c5634" d="M171.9 72.3s.5.5 1 1.5 1 2.4.9 3.9c0 .4-.1.7-.1 1.1-.1.4-.2.7-.3 1s-.3.6-.4.9-.3.5-.5.7-.3.4-.5.6l-.4.4c-.2.2-.4.3-.4.3s.1-.2.3-.4c.1-.1.2-.3.3-.5l.3-.6c.1-.2.3-.5.4-.8l.3-.9c.1-.3.2-.6.2-1 0-.3.1-.7.1-1v-1c0-.3-.1-.7-.1-1-.1-.3-.1-.6-.2-.9s-.2-.6-.3-.8c-.2-.5-.3-.9-.5-1.2 0-.1-.1-.3-.1-.3M166.5 82.2s-.1.1-.2.4c-.1.2-.2.6-.3 1-.1.2-.1.4-.2.7-.1.2-.1.5-.1.8v.8c0 .3 0 .5.1.8 0 .3.2.5.2.8.1.3.2.5.3.7s.3.4.4.6.3.4.4.5c.3.4.5.6.7.8l.3.3s-.1-.1-.4-.2c-.2-.1-.6-.3-.9-.6-.2-.2-.4-.3-.5-.5-.2-.2-.3-.4-.5-.7-.1-.3-.3-.5-.4-.8l-.3-.9c-.1-.3-.1-.6-.1-.9s0-.6.1-.9.1-.6.2-.8c.1-.3.2-.5.3-.7.5-.8.9-1.2.9-1.2M171.8 90.4s.4.2.9.7c.2.3.4.6.6 1s.2.9.2 1.3c0 .2 0 .5-.1.7s-.1.4-.2.6c-.2.4-.4.7-.5 1-.2.3-.4.5-.5.6l-.2.2s0-.1.1-.3.2-.4.3-.7.2-.6.3-1c.1-.2.1-.4.1-.6.1-.2 0-.4.1-.6v-.6c0-.2 0-.4-.1-.6-.1-.4-.2-.7-.4-1-.3-.3-.6-.7-.6-.7M168.9 96.4v1c0 .3 0 .6.1 1 0 .2.1.3.1.5.1.2.1.4.2.5.1.2.2.3.3.5s.2.3.4.4c.1.1.3.2.4.3s.3.2.4.2c.3.2.5.2.7.3s.3.1.3.1h-.3c-.2 0-.5 0-.8-.1-.2 0-.3-.1-.5-.2s-.4-.1-.5-.3c-.2-.1-.4-.2-.5-.4-.2-.2-.3-.3-.4-.6-.2-.4-.3-.8-.4-1.3 0-.4 0-.8.1-1.1z"/><path fill="#bf7547" d="M134.9 103.1c-1.5-.1-3 .9-2.5 3.5s-1.9 2.8-2.7 2.7c0 0 3.1 1.8 5.1-1.1 0 0-.6 1.5-1.5 1.9 0 0 3.6-1.2 3.6-4.5-.1-1.1-.6-2.4-2-2.5"/><path fill="#8c5634" d="M129.6 109.3h.4c.2 0 .5-.1.9-.2q.45-.3.9-.9l.3-.6c.1-.2.1-.4.1-.7 0-.5-.1-1-.1-1.6 0-.3.1-.5.2-.8.1-.2.3-.4.4-.6.3-.3.6-.4.9-.5.2-.1.3-.1.3-.1s-.1.1-.3.2-.4.4-.6.7c-.1.2-.2.3-.2.5s-.1.4-.1.6c0 .5.2 1 .2 1.6 0 .3-.1.6-.2.9s-.2.5-.4.7c-.3.4-.8.8-1.2.9s-.8.1-1 0c-.3 0-.5-.1-.5-.1"/><path fill="#bf7547" d="M133.3 74.2s-4.4 6.5.7 11.2c0 0-3.4 2.3-.2 7.6 0 0-3 2.4.2 6.2 0 0-1.9 2 .3 4.6 0 0 4.1-.3 2.7-5 0 0 2-3 .4-6 0 0 4.4-2.9 1.3-8.3 0 0 4.6-5.4 1.2-9.4-3.2-4-5.1-2.6-6.6-.9"/><path fill="#8c5634" d="M135.7 77.2s.4.2.8.6.9 1.1 1.2 1.8c.1.4.3.8.3 1.1.1.4.1.7.1 1s-.1.5-.1.7-.1.3-.1.3 0-.1-.1-.3c0-.2-.1-.4-.2-.7-.1-.6-.3-1.3-.6-1.9-.1-.3-.3-.7-.5-1s-.3-.6-.5-.8c-.1-.5-.3-.8-.3-.8"/><path fill="#8c5634" d="M137.6 80.1s0-.2.1-.6c.1-.3.3-.8.6-1.1.3-.4.7-.7 1-.8.3-.2.6-.2.6-.2s0 .1-.1.1c-.1.1-.1.2-.2.3-.2.3-.5.6-.7.9-.3.3-.5.7-.8.9zM136.2 86.4s.3.1.7.4.8.8 1 1.4c.1.3.2.6.2.9v.8c0 .2-.1.4-.2.6-.1.1-.1.2-.1.2s0-.3-.1-.8c-.1-.4-.2-1-.4-1.5s-.5-1-.7-1.4zM134.8 93.6s.3.1.6.4.7.7 1 1.2.4 1.1.4 1.6-.1.7-.1.7 0-.1-.1-.2c0-.1-.1-.3-.2-.5-.2-.4-.4-.9-.6-1.3-.3-.5-.5-1-.7-1.3s-.3-.6-.3-.6M135.4 99.3s.2.2.4.5.4.8.4 1.2c0 .2 0 .5-.1.7 0 .2-.1.4-.2.6-.2.3-.4.5-.4.5V101c0-.4-.1-.8-.1-1.2z"/><g fill="#8c5634"><path d="M138.3 87.3v.3c0 .2 0 .3-.1.5s-.1.3-.2.5l-.2.2v-.3c0-.2 0-.3.1-.5s.1-.3.2-.5zM136.9 94.8v.4c0 .1-.1.1-.1.2-.1.1-.2.2-.2.3-.1.1-.1.2-.1.2s-.1-.1-.1-.2 0-.3.1-.5c.1-.1.2-.3.3-.3 0-.1.1-.1.1-.1M136.6 100.1v.2c0 .1-.1.2-.2.4-.1.1-.2.2-.4.2-.1.1-.2.1-.2.1v-.2c0-.1.1-.2.2-.4.1-.1.2-.2.4-.2.1-.1.2-.1.2-.1"/></g><path fill="#8c5634" d="M132.9 74.9s-.1.2-.2.5-.3.7-.4 1.2c-.1.3-.1.5-.2.8s-.1.6-.2.9c0 .3-.1.7-.1 1v1c0 .3.1.7.2 1s.2.6.3 1c.1.3.2.6.4.9.1.3.3.5.4.7s.2.5.4.6c.1.2.2.3.3.5.2.3.3.4.3.4s-.1-.1-.4-.3c-.1-.1-.3-.2-.4-.4-.2-.1-.3-.4-.5-.6s-.4-.4-.5-.7-.3-.6-.5-.9c-.1-.3-.3-.7-.3-1-.1-.4-.2-.7-.2-1.1-.2-1.5.2-3 .7-4 .4-1 .9-1.5.9-1.5M138.8 84.5s.5.4.9 1.2c.1.2.2.4.3.7.1.2.2.5.2.8s.1.6.1.9 0 .6-.1.9c0 .3-.2.6-.2.9-.1.3-.3.5-.4.8-.2.2-.3.5-.5.7l-.5.5c-.3.3-.7.5-.9.7-.2.1-.3.2-.3.2l.3-.3c.2-.2.4-.5.7-.8.1-.2.3-.4.4-.6s.2-.4.4-.7c.1-.2.2-.5.3-.7.1-.3.2-.5.2-.8.1-.3.1-.5.1-.8v-.8c-.1-.3-.1-.5-.1-.7-.1-.2-.1-.5-.2-.7-.1-.4-.3-.8-.4-1-.2-.3-.3-.4-.3-.4M133.8 93s-.3.3-.5.9c-.1.3-.2.6-.3 1 0 .2 0 .4-.1.6v.6c0 .2 0 .4.1.6s.1.4.2.6c.1.4.3.7.4 1s.2.5.3.7.1.3.1.3l-.2-.2c-.1-.1-.4-.3-.5-.6-.2-.3-.4-.6-.6-1-.1-.2-.2-.4-.2-.6-.1-.2-.1-.4-.1-.7 0-.5 0-.9.1-1.4.1-.4.3-.8.5-1 .4-.6.8-.8.8-.8M137 98.8s.2.4.4 1c.1.3.1.7.1 1.1s-.1.9-.3 1.3c-.1.2-.2.4-.4.6-.1.2-.3.3-.5.5-.2.1-.4.2-.5.3-.2.1-.3.1-.5.2-.3.1-.6.1-.8.1h-.3s.1-.1.3-.1c.2-.1.4-.2.7-.3.1-.1.3-.1.4-.2s.3-.2.4-.3.3-.2.4-.4c.1-.1.2-.3.3-.5s.1-.3.2-.5c0-.2.1-.4.1-.5.1-.4.1-.7.1-1 0-.9-.1-1.3-.1-1.3"/><path fill="#ffd0ae" d="M138.7 69.7c-1.6-7.6-1-23.7 13.1-25.4 9-1.1 20.1 4 17.5 21.5 0 0 1.7 6.6.1 11.5s-3.8 9.5-9.6 10c-8.4.7-18.8-6.8-21.1-17.6"/><path fill="#bf8865" d="M170.3 73.1s0 .5-.1 1.4-.2 2.2-.6 3.7-1 3.2-2.1 4.9c-1.1 1.6-2.7 3.2-4.7 3.9-1 .4-2.1.5-3.1.5q-1.5 0-3-.3c-1.9-.3-3.7-.8-5.2-1.4-1.4-.6-2.5-1.4-3.2-1.9-.4-.3-.6-.5-.8-.7l-.3-.3s.4.3 1.2.8 1.9 1.1 3.3 1.7c1.4.5 3.2 1 5.1 1.2 1 .1 1.9.2 3 .3 1 .1 2-.1 2.9-.4 1.9-.7 3.4-2.1 4.5-3.7s1.8-3.3 2.2-4.7c.4-1.5.7-2.8.8-3.6 0-.9.1-1.4.1-1.4"/><path fill="#bf7547" d="M173.7 77.3c-2.6-1.2-1.7-3.1-1.1-7.1.5-3.4-1.6-5.3-2.3-5.8 1 .7 2.6-.2 2.6-.2-2.9 0-2.7-6.2-3.2-9.6-.4-3.4-4.5-9.2-9.6-10.5s-7.4-.1-7.4-.1c-5-1.3-12.3 1.2-14.1 6.7s-5.7 7.8-5.7 7.8 1.5.5 2.7 0c0 0-2.2 1.8-3 4.9-.5 2 .5 5.2-1.6 5.9 0 0 1.8 1 3.1-.1 0 0-2.7 2.8-1.5 5.2 3.9 7.8 10.2 4.6 10.2 4.6-2.8-6.7 1.3-12.3 1.3-12.3.3.3.6 1.2.8 2 0 1.6-.1 3.9-.4 5.3-.6 2.4-5.5 11.5-.9 13.2 0 0-.2-1 .2-2.4 0 0 .2 7.7 8.1 9 0 0-1.2-1-1.2-1.8 0 0 1.8 2.2 5.1 2.5 3.4.3 3.5 2 3.5 2s2.3-1 2-3.4c0 0 3.8-.1 4.4-3.2 0 0 0 1.6-.6 2.3 0 0 2.7-1.3 2.3-4.8 0 0 .4 1.4 1.8 1.4 0 0-1.4-1.5-.6-2.9s1.6-4.5 1.3-6.3c0 0 .5 2 .5 3 0 0 1-2.1 1.2-5.1 1.1.2 2.1-.2 2.1-.2m-5.8-2.4c-2 1-13.8 1.9-18.4-2.1 0 0-.1.8 0 1.4-1.6-2-2.6-4.9-3.2-8.2-.1-1.2-.2-2.5-.4-3.9-.4-3.4 1.6-8.2 5.5-10.8 3.9-2.5 7.8.1 7.8.1s1.6-2.3 5.9-.6 4.1 11.1 4.2 14.9c.4 1.7.7 3.6.8 5.8-.1 1.2-.7 2.6-2.2 3.4"/><path fill="#8c5634" d="M173.7 77.3s-.2 0-.6-.2-1-.5-1.3-1.2c-.2-.4-.2-.8-.2-1.2s.2-.8.3-1.3c.2-.8.4-1.7.5-2.6s.1-1.8 0-2.6l-.3-1.2c-.1-.4-.3-.7-.5-1-.3-.6-.7-1-1-1.3s-.5-.4-.5-.4.2.1.5.4c.2.1.4.3.6.5l.7.7c.2.3.4.6.6 1 .1.2.2.4.2.6.1.2.1.4.2.6.1.4.2.9.2 1.4s0 1-.1 1.4c-.1.9-.3 1.9-.6 2.7-.1.4-.3.8-.3 1.2-.1.4-.1.7 0 1 .2.6.6 1 1 1.2zM172.9 64.3s-.1 0-.4-.1c-.2-.1-.6-.1-1-.4s-.6-.8-.8-1.4-.3-1.3-.4-2.1c-.2-1.5-.4-3.3-.9-5.2-.4-1.9-1.1-3.8-2.3-5.5-1.1-1.7-2.6-3.1-4.4-3.9-.9-.4-1.7-.7-2.6-1-.8-.3-1.7-.5-2.4-.6-1.5-.3-2.8-.4-3.7-.3s-1.4.3-1.4.3.4-.3 1.3-.5 2.2-.2 3.8 0c.8.1 1.6.3 2.5.5q1.35.3 2.7.9c1.8.8 3.5 2.3 4.6 4.1 1.2 1.8 1.9 3.8 2.3 5.7s.5 3.8.7 5.3q.15 1.2.3 2.1c.1.6.4 1.1.7 1.4s.7.4.9.5c.4.2.5.2.5.2"/><path fill="#8c5634" d="M159.2 51.5s-.2-.5-.5-1.1c-.3-.7-.8-1.5-1.5-2.2-.3-.4-.6-.7-1-1.1-.3-.3-.6-.6-.9-.8s-.5-.4-.7-.6c-.2-.1-.3-.2-.3-.2s.1 0 .3.1.5.2.8.4.7.4 1.1.7.7.7 1.1 1.1c.3.4.6.8.8 1.3.2.4.4.9.5 1.2.3.7.3 1.2.3 1.2M132.8 63.5s0-.6.2-1.4c.1-.4.3-.8.6-1.3s.6-.9 1-1.3c.7-.8 1.6-1.5 2.4-1.8.3-.2.7-.3.9-.4s.3-.1.3-.1-.1.1-.3.2-.5.3-.8.6c-.3.2-.7.5-1 .9l-.5.5c-.2.2-.4.4-.5.6-.4.4-.7.8-1 1.2s-.5.8-.7 1.1c-.5.6-.6 1.2-.6 1.2M131.2 69.4s.3 0 .8.1h.8c.3 0 .6-.1.9-.2s.6-.2.8-.4c.1-.1.2-.2.3-.2.1-.1.2-.2.3-.2l.4-.4.2-.2s0 .1-.1.2-.1.4-.3.6c-.1.1-.1.2-.3.4-.1.1-.2.3-.4.3-.1.1-.3.2-.4.3-.2.1-.3.2-.5.2-.4.1-.7.1-1.1.1-.3 0-.6-.1-.9-.2-.2-.2-.5-.4-.5-.4M137.6 53.4s.1-.2.2-.6l.5-1.5c.2-.6.5-1.4.8-2.1.2-.4.4-.8.7-1.1.2-.4.6-.7.8-1 .3-.3.6-.6 1-.9.3-.3.7-.5 1.1-.7s.7-.4 1.1-.5c.3-.2.7-.3 1-.4s.6-.2.9-.2.5-.1.7-.1c.4-.1.6-.1.6-.1s-.2.1-.6.2c-.2.1-.4.1-.6.2-.3.1-.5.2-.8.4-.3.1-.6.3-.9.5s-.7.3-1 .6c-.3.2-.7.5-1 .7s-.6.6-.9.9-.6.6-.8 1c-.3.3-.5.7-.7 1-.4.7-.7 1.4-1 2s-.5 1.1-.7 1.4c-.1.2-.2.3-.2.4-.2-.2-.2-.1-.2-.1"/><g fill="#8c5634"><path d="m159.5 96.5.7-.7c.2-.2.4-.5.6-.8s.4-.6.4-1c.1-.3.1-.7.1-1-.1-.3-.1-.7-.3-.9-.1-.3-.2-.5-.3-.7s-.1-.3-.1-.3l.2.2c.1.1.3.3.5.6s.4.6.5 1c0 .2.1.4.1.6s0 .5-.1.7q-.15.6-.6 1.2c-.3.3-.6.5-.8.7-.5.3-.9.4-.9.4"/><path d="M161.5 93.1s.4-.1 1-.4 1.3-.6 1.9-1.1c.1-.1.3-.2.4-.4l.4-.4c.1-.1.2-.3.3-.5.1-.1.2-.3.2-.4.1-.3.2-.5.2-.7.1-.2.1-.3.1-.3V90c0 .2-.1.3-.1.5-.1.2-.1.4-.2.6-.2.4-.5.7-.8 1-.4.3-.7.5-1.1.7s-.8.2-1.1.3zM169.3 88.8s-.2-.1-.4-.3-.5-.6-.6-1.1 0-1.2.3-1.8c.2-.6.4-1.2.6-1.9.4-1.3.6-2.6.6-3.6 0-.2 0-.5-.1-.7 0-.2-.1-.4-.1-.5-.1-.3-.2-.4-.2-.4s.1.1.3.4c.1.1.2.3.2.5.1.2.1.4.2.7.2 1.1 0 2.5-.4 3.8-.2.7-.4 1.3-.7 1.9s-.5 1.1-.4 1.6c0 .5.2.9.3 1.1.3.1.4.3.4.3M170.5 82.5s.1-.4.2-1 .3-1.4.4-2.1c.1-.8.2-1.5.2-2.1 0-.3 0-.5-.1-.7 0-.2-.1-.3-.1-.3l.2.2c.1.1.1.2.2.3s.1.2.2.4c.2.6.2 1.5.1 2.3s-.4 1.6-.7 2.1c-.3.6-.6.9-.6.9M165.2 92.2s.3-.2.6-.6c.4-.4.7-.9 1-1.5l.3-.9c.1-.3.1-.6.2-.9s.1-.5.1-.6v-.2s0 .1.1.2c0 .2.1.4.1.7v1c0 .4-.1.7-.3 1.1-.2.3-.4.7-.6.9-.2.3-.5.5-.7.6-.4.2-.8.2-.8.2M152.1 93.9h-.7c-.4 0-1-.1-1.7-.3-.4-.1-.7-.3-1.1-.4-.4-.2-.8-.4-1.1-.7-.4-.3-.7-.6-1.1-.9s-.6-.7-.9-1.1c-.2-.4-.5-.8-.7-1.3s-.4-.9-.5-1.3-.2-.9-.3-1.3c0-.4-.1-.8-.1-1.2-.1-.4 0-.7 0-1v-1.5s0 .2.1.7c.1.4.1 1 .2 1.7.1.3.1.7.2 1.1s.3.8.4 1.2.3.8.5 1.2.5.8.7 1.2c.3.4.5.8.8 1.1s.6.6 1 .9c.3.3.7.5 1 .7.4.2.7.4 1 .5.6.3 1.2.5 1.6.6.4 0 .7.1.7.1M143.8 87.2s-.1 0-.4-.1c-.2-.1-.5-.2-.9-.4-.2-.1-.3-.3-.5-.5-.1-.2-.3-.4-.4-.6s-.2-.5-.2-.7c-.1-.3-.1-.5-.1-.8v-.8c0-.3.1-.5.1-.7.1-.5.3-.9.4-1.3s.3-.6.4-.8.2-.3.2-.3-.1.5-.2 1.2c0 .4-.2.8-.2 1.3 0 .2-.1.5-.1.7v.7c0 .2 0 .5.1.7 0 .2.1.4.1.7.1.4.3.8.6 1 .2.3.5.5.6.6.4.1.5.1.5.1"/></g><path fill="#ffd0ae" d="M145.3 68.7s-1.4-5-4.8-3.6c-3.5 1.5-.5 6.7-.5 6.7s-.4 5.8 4 2.6c1-.7 1.8-3.6 1.3-5.7"/><path fill="#bf8865" d="M140.4 68.4V68c0-.3 0-.6.1-1.1.1-.2.1-.5.3-.7s.4-.4.8-.5c.3-.1.7 0 1 .1s.6.4.8.6c.4.5.7 1 .8 1.6q.3.75.3 1.5c.1.9-.1 1.5-.1 1.5s0-.6-.2-1.4-.6-1.9-1.3-2.7c-.2-.2-.3-.3-.5-.4s-.4-.1-.6-.1c-.4.1-.7.4-.9.8s-.3.7-.3 1c-.1 0-.2.2-.2.2"/><path fill="#bf8865" d="m143.6 68.1-.3.3c-.2.2-.4.4-.6.7-.4.5-.8 1.2-.8 1.2v-.5c0-.3.1-.7.4-1 .1-.2.3-.3.4-.4s.3-.2.4-.2c.3-.2.5-.1.5-.1"/><g fill="#4a311f"><ellipse cx="3.6" cy="3.3" rx="1.1" ry="2.1" transform="translate(150 63)"/><path d="M150.3 65.3s.2-.3.7-.7q.3-.3.9-.6c.3-.2.8-.3 1.2-.3h.6c.2 0 .4.1.6.2s.4.2.5.3c.2.1.3.2.4.3.2.2.3.4.4.6l.1.2-.2-.2-.2-.2c-.1-.1-.2-.1-.3-.2s-.2-.1-.4-.2c-.1-.1-.3-.1-.4-.2-.2-.1-.3-.1-.5-.1h-.5c-.7.1-1.4.3-1.9.6z"/></g><g fill="#4a311f"><ellipse cx="4" cy="3" rx="1.1" ry="2.1" transform="translate(161 63)"/><path d="M161.8 64.9s.2-.3.7-.7q.3-.3.9-.6c.3-.2.8-.3 1.2-.3h.6c.2 0 .4.1.6.2s.4.2.5.3c.2.1.3.2.4.3.2.2.3.4.4.6l.1.2-.2-.2-.2-.2c-.1-.1-.2-.1-.3-.2s-.2-.1-.4-.2c-.1-.1-.3-.1-.4-.2-.2-.1-.3-.1-.5-.1h-.5c-.7.1-1.4.3-1.9.6-.7.3-1 .5-1 .5"/></g><path fill="#bf7547" d="M151.2 61.2c-1.4-.4-2.4.4-.4 1.7 2.5 1.6 6.9 1.9 7 .5.2-1.4-1.9-.7-3.1-1s-2.4-.9-3.5-1.2M166.5 60.9c1.2-.4 2.1.4.5 1.7-2 1.6-5.7 1.8-6 .4-.2-1.4 1.6-.7 2.6-.9 1-.3 2-.9 2.9-1.2"/><g fill="#bf8865"><path d="M161.3 68.4s.5.2 1.1.8 1.3 1.4 1.7 2.6c.1.3.1.6.1.9v.4c0 .2-.1.3-.1.4-.2.5-.6.9-1 1.1-.7.5-1.2.6-1.2.6s.1-.1.3-.2.5-.3.7-.6c.3-.3.6-.6.7-1 0-.1.1-.2.1-.3v-.3c0-.2-.1-.5-.1-.7-.3-1-.9-1.8-1.3-2.5-.6-.7-1-1.2-1-1.2M159.6 74.7s.3-.4.7-.5c.4-.2.8-.1.9-.1l-.2.2c-.1.1-.3.2-.5.3-.5.2-.9.1-.9.1"/></g><path fill="#8c5634" d="M156.7 80.3s.5-.2 1.2-.5c.7-.2 1.7-.5 2.7-.6.5 0 1-.1 1.5-.1s.9.1 1.3.2q.6.15.9.3c.2.1.3.2.3.2h-.3c-.2 0-.5 0-.9-.1-.7 0-1.7.1-2.7.2s-2 .2-2.7.3c-.8 0-1.3.1-1.3.1"/><path fill="#bf7547" d="M158.5 74.4c-2.2.3-3.6 1-3.8 2.6 0 0 .6-.6 1.2-.8 0 0-1.6 1-.7 3 0 0 2.2-.6 2.9-1.8 0 0-.3 1 .2 1.7 0 0 2.5-.2 3-2.1 0 0 .4 1.3 2 1.3 0 0 .2-1.2-.4-2 0 0 1 1.1 1.4 1.8 0 0 .7-.7.3-1.3 0 0 .8.4 1 1.4 0 0 2.1-2.6-1.6-4.5-2.4 2.5-3.6 1.5-5.5.7"/><path fill="#8c5634" d="M155.2 79.3s.2-.1.5-.3.6-.4 1-.6.7-.4 1-.5c.1-.1.3-.1.3-.2l.1-.1s0 .2-.2.5-.5.6-.9.8-.8.3-1.2.4zM154.7 77s0-.2.2-.4c.1-.2.4-.4.6-.6.3-.2.6-.3.8-.3h.4l-.1.1c-.1 0-.1.1-.2.2-.2.2-.4.3-.7.5s-.5.3-.7.4c-.1.1-.3.1-.3.1M158.2 79.2s.2-.1.6-.2c.3-.1.7-.3 1.1-.6.4-.2.7-.5.9-.8l.3-.3.1-.1v.2c0 .1 0 .3-.1.5l-.3.6c-.1.2-.3.4-.5.5-.4.3-1 .5-1.4.4-.5-.1-.7-.2-.7-.2M165.4 78.3s0-.1.1-.2.1-.4.2-.6c.1-.5.2-1.1-.1-1.7-.1-.1-.1-.3-.2-.4s-.2-.3-.3-.4l-.3-.3-.3-.3c-.2-.2-.4-.3-.5-.4l-.2-.2s.1 0 .2.1.4.1.6.2.5.3.8.5.5.5.7.9.3.8.2 1.2c0 .4-.2.7-.3.9s-.3.4-.4.5c-.1.2-.2.2-.2.2M163.2 78.4s-.1-.1-.1-.3c0-.1-.1-.2-.1-.3s0-.2-.1-.4c-.1-.5-.1-1-.1-1s.1.1.3.2c.1.1.1.2.2.3 0 .1.1.3.1.4v.7c-.2.3-.2.4-.2.4M164.1 78.2V78c0-.1.1-.3.1-.4s0-.1.1-.2c0-.1 0-.1.1-.2 0-.1.1-.2.1-.2s.1.1.1.2c.1.1.1.3.1.5 0 .1-.1.2-.1.3s-.1.1-.2.2z"/><path fill="#bf8865" d="m157.9 64.1.3-.3c.1-.2.2-.4.3-.7s.1-.6.2-.8c0-.2.1-.4.1-.4s.1.1.2.4c.1.2.1.6 0 .9s-.3.7-.6.8c-.3.2-.5.1-.5.1"/></g></svg>