<svg xmlns="http://www.w3.org/2000/svg" width="149.715" height="153.668" viewBox="0.004 -0.304 149.715 153.668"><path fill="#780046" d="M78.399 66.799 56.053 77.413s5.307 3.493 12.08 3.493 5.52 1.329 12.709.42c7.19-.909 12.016-7.121 12.016-7.121z"/><path fill="#824600" d="m62.357 78.579.533 44.782.168 4.506 8.964-4.249s-.104-43.017-.152-43.093z"/><path fill="#ffdc00" d="m59.93 76.172-.324 27.964c.22-.176 15.144 0 15.144 0l-.068-27.964z"/><path fill="#fab414" d="m63.026 138.341-.136-14.976 9.132.257-.264 14.923z"/><path fill="#ffdc00" d="m56.638 151.662 6.625-.857 9.793.625-.241 1.302-16.494.132z"/><path fill="#aa3278" d="M57.823 150.373a27 27 0 0 0 3.561-.429l.401-12.564h10.874l.401 14.05-16.422.236q.237-.51.4-1.049a3.3 3.3 0 0 1 .785-.244"/><path fill="#ffdc00" d="M67.929 139.194c.85 0 1.62.345 2.177.903.558.557.903 1.327.903 2.177s-.345 1.62-.903 2.177a3.07 3.07 0 0 1-2.177.903 3.07 3.07 0 0 1-2.178-.903 3.07 3.07 0 0 1-.902-2.177c0-.85.345-1.62.902-2.177a3.07 3.07 0 0 1 2.178-.903"/><path fill="#780046" d="M67.929 140.812c.403 0 .769.164 1.033.429a1.455 1.455 0 0 1 0 2.066 1.459 1.459 0 0 1-2.495-1.033 1.459 1.459 0 0 1 1.462-1.462"/><path fill="#ffdc00" d="M60.671 139.594v.781h2.015l.252-.781z"/><path fill="#fab414" d="M60.671 141.417v.781h2.015l.252-.781z"/><path fill="#ffdc00" d="M60.671 143.239v.785h2.015l.252-.785z"/><path fill="#fab414" d="M60.671 145.062v.785h2.015l.252-.785z"/><path fill="#ffdc00" d="M60.671 146.888v.781h2.015l.252-.781z"/><path fill="#824600" d="M91.064 114.95c.348 2.845.392 5.718.132 8.571l3.813 2.111 5.636-2.111c.601-2.499 1.265-5.907 1.201-9.123-.068-4.807-1.846-10.378-1.846-10.378s-4.807-17.09-6.353-22.181c-2.163-.649-11.803.132-13.245.865.801 2.98 4.466 11.103 5.527 14.05.605 1.659 4.061 10.462 5.135 18.196"/><path fill="#ffdc00" d="M100.453 98.801c-1.054-4.406-8.997-25.782-8.997-25.782s-9.612-1.257-16.682-2.142L85.32 102.35s10.586-2.972 15.133-3.549"/><path fill="#fab414" d="M91.196 123.533a34 34 0 0 1-.701 4.466c-.356 1.538-.829 3.04-1.246 4.562-.885 3.204-3.937 9.777-5.283 12.817 2.616.449 4.17 1.077 6.781.633 1.559-2.403 4.683-7.234 6.866-12.284a38.4 38.4 0 0 0 2.042-6.32c.233-1.038.613-2.36.99-3.886z"/><path fill="#ffdc00" d="m95.386 151.662-6.625-.857-8.992.625.236 1.302 15.693.132z"/><path fill="#aa3278" d="M94.2 150.373a27 27 0 0 1-3.561-.429l6.409-12.564H85.769l-6.008 14.05 15.621.236a7.4 7.4 0 0 1-.401-1.049 3.3 3.3 0 0 0-.781-.244"/><path fill="#ffdc00" d="M93.679 140.375h3.061l.252-.781H93.82z"/><path fill="#fab414" d="M92.73 142.198h3.064l.253-.781H92.87z"/><path fill="#ffdc00" d="M91.781 144.024h3.064l.252-.785h-3.176z"/><path fill="#fab414" d="M90.836 145.847h3.06l.252-.785h-3.176z"/><path fill="#ffdc00" d="M89.886 147.669h3.064l.253-.781h-3.176zM87.968 139.194c.85 0 1.62.345 2.177.903.558.557.903 1.327.903 2.177s-.345 1.62-.903 2.177a3.07 3.07 0 0 1-2.177.903 3.07 3.07 0 0 1-2.178-.903 3.07 3.07 0 0 1-.902-2.177c0-.85.345-1.62.902-2.177a3.07 3.07 0 0 1 2.178-.903"/><path fill="#780046" d="M87.968 140.812c.403 0 .769.164 1.033.429a1.455 1.455 0 0 1 0 2.066 1.457 1.457 0 0 1-2.067 0 1.46 1.46 0 0 1 0-2.066c.265-.265.63-.429 1.034-.429"/><path fill="#824600" d="M90.487 75.106s-.188-5.078.028-5.283c2.604 1.37 6.881 5.023 8.307 7.61-.58.068-8.335-2.327-8.335-2.327M59.73 75.907s2.451-4.754 2.235-4.962c-2.604 1.374-9.144 4.702-10.57 7.277.58.08 8.335-2.315 8.335-2.315"/><path fill="#780046" d="m92.213 41.883-31.606-.357-2.183 6.28 2.183 6.773 17.824.028 13.782-.1 3.389-6.408z"/><path fill="#ffdc00" d="M67.148 70.08H85.42v8.475H67.148z"/><path fill="#aa3278" d="m63.323 39.84 3.977-.352s-.617 9.72 7.073 9.72 7.426-9.456 7.426-9.456l3.886.176s6.893 33.244 7.073 34.738c-2.519.721-34.046 4.153-34.046 4.153z"/><path fill="#a0640a" d="M123.776 43.657c-11.976-1.145-26.308-.869-26.308-.869l1.442 10.55 15.97.308c1.95.28 3.969.637 6.008 1.094 12.581 2.803 19.758 7.385 17.279 16.513-.917 3.381-9.32 8.055-16.45 9.396-4.879.918-17.091-2.491-20.692-3.648-2.034-.653-8.751-3.136-9.985-3.537-2.099-.681-4.526-1.23-4.867-.028.693 1.454 4.703 1.682 4.807 3.469.124 2.375-5.395.116-5.664 1.237-.268 1.122 4.342 1.202 5.175 3.016 1.174 2.547-2.852.909-3.677 1.838.208 1.374 3.661 2.147 4.678 2.524 2.199.801 4.382 1.698 6.617 2.403 4.334 1.374 5.828 2.752 18.882 4.229 7.446.842 20.936-2.779 27.376-9.969 4.855-5.419 5.207-13.257 4.659-16.862-.621-4.105-2.191-9.664-7.566-14.563-5.127-4.666-13.975-6.76-17.684-7.101"/><path fill="#780046" d="M99.619 74.698c2.484.665 5.083 1.261 7.386 2.435.253.597-1.762 6.224-2.042 7.013a56 56 0 0 1-2.107 5.431c-.801 1.686-1.538 1.79-3.605 1.534-1.602-.2-3.441-1.414-4.759-2.347-.092-.264.673-2.051 1.675-5.207a71 71 0 0 1 3.452-8.859M92.213 54.507l8.011-.06s-.376-12.496-1.382-12.496c-.224 0-3.028-.024-6.621-.064z"/><path fill="#a0640a" d="M25.961 43.257c11.976-1.146 30.657-.87 30.657-.87l.36 10.55-22.122.309a79 79 0 0 0-6.008 1.093c-12.576 2.804-19.754 7.786-17.275 16.914.917 3.381 9.321 8.055 16.45 9.396 4.879.918 18.693-2.491 22.29-3.648 2.039-.653 8.756-3.136 9.986-3.537 2.098-.681 4.53-1.23 4.866-.028-.689 1.454-4.698 1.682-4.806 3.469-.124 2.375 3.717.544 4.714.212.529.068.529.068.801.372-.897 2.087-4.21 1.863-5.039 3.669-1.173 2.547 2.848.909 3.677 1.838-.208 1.374-3.661 2.147-4.678 2.524-2.199.801-4.382 1.698-6.617 2.403-4.334 1.374-7.43 2.752-20.483 4.229-7.446.842-20.937-2.779-27.377-9.969C.502 76.764.15 68.926.695 65.321c.624-4.105 2.191-9.664 7.57-14.563 5.139-4.666 13.987-7.161 17.696-7.501"/><path fill="#780046" d="M51.719 74.698c-2.487.665-5.083 1.261-7.386 2.435-.252.597 1.759 6.224 2.043 7.013a55 55 0 0 0 2.103 5.431c.801 1.686 1.538 1.79 3.625 1.534 1.602-.2 3.44-1.414 4.758-2.347.088-.264-.673-2.051-1.674-5.207a72 72 0 0 0-3.469-8.859M60.771 41.55c-4.029-.044-7.254-.104-7.254-.104l-1.201 13.101 8.279.032z"/><path d="M87.743 5.411C82.937.809 74.974-1.097 68.73 1.121c-6.965 2.476-11.075 9.104-10.446 16.422.244 2.84.801 6.172 2.639 8.467 1.739 2.147 6.113 4.686 8.956 4.117l14.852-1.65c6.497-.272 8.844-17.499 3.012-23.066"/><path fill="#a0640a" d="M85.625 25.389c0-.304-.517-5.627-2.948-8.671-2.195-2.748-6.265-3.256-7.567-3.316-5.491-.249-9.693 3.44-10.133 6.536-.665 4.642.597 9.412 3.737 13.754 1.722 2.383 4.222 3.132 6.497 3.128 6.324-.008 10.686-5.327 10.414-11.431"/><path d="m65.389 24.396-.292-10.266-2.868 2.68 2.107 6.12zM85.681 22.93l2.111-6.12-4.438-3.084.821 9.665z"/><path fill="#a0640a" d="M83.057 29.062s2.804-1.17 4.406-3.4c1.033-1.442 1.41-3.902.765-4.847-.837-1.237-2.307-1.622-3.489-.553-.909.826-1.858 5.572-1.974 6.689.016.02.292 2.111.292 2.111M67.965 28.685s-3.016-.18-5.267-1.758c-1.454-1.017-2.624-3.204-2.331-4.317.4-1.446 1.642-2.295 3.108-1.675 1.133.477 3.605 4.638 4.085 5.656-.02.028.405 2.094.405 2.094"/><path d="M70.604 29.238a5.55 5.55 0 0 1 3.065.128c.596 1.326-3.653 1.278-3.065-.128"/><path fill="#824600" d="M77.017 26.755c-1.037.425-2.083.184-3.116-.072-.349-.889 1.017-3.236 1.954-3.268.898.925 1.511 1.922 1.162 3.34"/><path d="M69.903 23.367c.097.652.173 1.233-.204 1.766-.949.084-.661-1.602-.216-1.983zM81.135 23.423c.072.612.4 1.201-.089 1.798l-.676-.144c.036-.625-.209-1.246.264-1.795z"/></svg>