<svg xmlns="http://www.w3.org/2000/svg" width="53.152" height="80.07" viewBox="-0.471 0.36 53.152 80.07"><path fill="#ff9400" d="M48.076 4.966c-1.61 1.595-.765 5.644-.961 8.652-10.87.046-19.225 2.414-26.917.961-1.27 3.762-.535 8.04-.962 14.42 9.27.062 16.086-.817 25.956-1.922 2.024 2.137-1.013 4.635 0 8.651-10.548.495-17.578-.601-25.955.962 1.877 5.493.581 14.16.96 21.149 8.922-1.333 18.731-1.778 26.918-3.845.27 3.255 1.53 5.52.961 9.613-13.25.78-24.033.933-35.569 4.807-.51-21.212.73-40.776-2.884-61.525 11.915-4.333 22.672-.008 38.453-1.923"/><path fill="undefined" d="M42.308 1.12c3.202-.005 6.558-.626 9.614 0 .626 1.215 0 3.205 0 4.807h-.962c-1.44 3.046-.482 8.49-1.922 11.536-5.825-1.035-4.313 2.48-5.768 3.846L24.283 22.51c-1.959.439-.72-.876-2.163 2.644 9.123 2.294 16.058-3.051 25.956-1.923 2.372 8.062-1.635 15.682-4.806 21.15-7.948-.257-14.884.497-20.188 2.883v6.73c9.407-.847 19.267-1.241 26.917-3.846 3.022 10.729-2.496 14.903-1.923 22.11C33.97 74.816 16.702 74.21 5.778 79.95H3.855C1.041 53.475 9.518 35.307.01 13.618v-1.923c6.599.83 6.918-4.618 8.652-8.652 3.947-1.18 9.608-.751 13.458-1.922 7.753.574 13.97.056 20.188 0M9.623 6.89c3.615 20.749 2.375 40.313 2.884 61.524 11.536-3.873 22.32-4.025 35.57-4.806.567-4.093-.692-6.358-.962-9.613-8.187 2.067-17.996 2.512-26.917 3.845-.38-6.99.916-15.656-.962-21.15 8.378-1.562 15.408-.466 25.956-.96-1.013-4.017 2.024-6.514 0-8.652-9.87 1.105-16.686 1.984-25.955 1.922.426-6.38-.308-10.658.96-14.42 7.693 1.453 16.048-.915 26.918-.961.196-3.008-.649-7.057.961-8.652-15.78 1.915-26.538-2.41-38.453 1.923"/></svg>