<svg xmlns="http://www.w3.org/2000/svg" width="95.868" height="115.724" viewBox="-0.214 -0.114 95.868 115.724"><path fill="#006482" d="M73.047 66.323c4.602 3.801 9.621 7.303 13.272 9.983v3.126c-4.537-1.86-10.995-5.167-17.016-8.804-11.869-7.188-15.504-14.679-13.556-19.079s11.083 9.639 17.3 14.774"/><path fill="#008264" d="M2.827 102.177s4.169 4.504 3.644 4.883-1.447-.85-2.104-1.369a3.2 3.2 0 0 0-1.022-.615z"/><path fill="#00a08c" d="M3.008 109.216c.645.08-.325-3.909.862-2.535.232.267 0 2.659.881 2.496a83 83 0 0 1 .578-21.479c.489-3.099 1.687-7.16 4.81-16.611s-.261-8.545-2.209-6.473-4.125 10.721-4.874 13.245a47 47 0 0 0-1.603 8.074c-.401 3.502-.778 6.92-.886 10.458a63 63 0 0 0 .036 5.227c.048.914.108 6.62 1.022 7.127.333-1.561-.289-2.711.329-2.671.617.04.412 3.063 1.054 3.142"/><path fill="#006482" d="M28.373 92.853c-.721 4.432-1.844 10.182-2.289 11.951-.376 1.502-.825 3.007-1.23 4.5-.433 1.598-1.604 3.195-1.664 4.888.766.223 2.53-.232 2.53-.232s.629.583.16.799c-.553.263-2.265.172-2.918.18-.569 0-2.077-.1-2.077-.1s-2.176-26.39 3.279-27.293c5.456-.902 4.209 5.307 4.209 5.307M50.977 92.853c-1.944 5.167-4.065 10.665-4.702 12.211-1.203 2.911-3.207 5.702-4.065 8.713.529.199 2.866-.152 2.898.431.061 1.05-2.34.447-2.85.439-1.082 0-2.765.559-3.126-.267-.273-.631 3.167-14.839 4.569-21.531 0 0-.448-4.66 5.007-5.439 5.456-.778 2.269 5.443 2.269 5.443"/><path fill="#828278" d="m51.678 24.017 3.079 12.558 2.365-.12-5.267-15.737z"/><path fill="#008264" d="m16.308 65.708-3.291 31.433s17.469-.211 20.844-.447c-1.515-3.593-3.303-31.146-3.303-31.146z"/><path fill="#00a08c" d="M7.501 33.129c1.459 0 13.962-.491 13.962-.491l8.478 17.629c.493 1.493-16.928 46.874-16.928 46.874s-8.61-41.483-9.62-46.634c-.513-2.624-.902-5.271-1.395-7.895C1.449 39.697.286 36.535.286 33.56c2.189-.775 4.93-.439 7.215-.431"/><path fill="#78c8c8" d="m13.161 43.139 8.306-10.501 17.505-.26 3.154 6.361-8.249 57.955-2.217-3.761a49 49 0 0 1-2.072-3.993c-1.139-2.452-2.405-4.832-3.52-7.304-1.964-4.392-4.076-8.808-5.736-13.32-1.868-5.096-3.904-10.175-5.499-15.362-.73-2.368-1.78-4.735-2.273-7.163-.249-1.218-.156-1.581.601-2.652"/><path fill="#281446" d="M15.506 46.378c0 1.11.637 1.996 1.423 1.996s1.423-.898 1.423-1.996a2.3 2.3 0 0 0-.633-1.669 1.15 1.15 0 0 0-.802-.336c-.401 0-.954.555-1.202.919-.249.363-.209.531-.209 1.086"/><path fill="#828278" d="M13.225 11.498a162 162 0 0 1 17.85-.067c4.409.211 16.034-1.079 18.651 3.382 1.443 2.447 2.145 5.498 2.806 8.229.637 2.624 1.788 5.391 2.113 8.058-1.945-.219-2.005-3.494-2.494-5.151-.705-2.396-1.222-4.831-1.844-7.263-.505-1.997-1.038-4.532-3.062-5.427-1.948-.866-5.071-.479-7.167-.579-8.169-.399-18.631 0-26.793.076-1.431 0-3.278.132-3.727 1.941-.337 1.366 2.641 13.884 3.523 18.2.401 1.873.497 3.79.886 5.646.228 1.098.549 2.181.802 3.271.18.73.276 2.971.777 3.574.112.131.934.343 1.547.598.087.334.064.687-.068 1.007l-.208.06c-1.603.431-2.301-1.027-2.71-2.213-2.313-6.74-5.584-27.552-5.636-28.941-.088-3.147 1.948-4.229 4.754-4.401"/><path fill="#00a0b4" d="m38.968 32.378 33.935.092s-1.359 5.431-1.672 6.736c-.721 2.987-1.603 5.946-2.164 8.965-1.203 6.289-3.239 12.514-4.81 18.627-1.572 6.114-3.516 12.131-5.051 18.245-.661 2.631-2.978 10.617-2.978 10.617s-4.173.324-5.492.435c-3.058.264-6.072.46-9.139.535-1.627.04-3.255.116-4.878.104s-2.85-.04-2.85-.04z"/><path fill="#006482" d="m88.111 76.21.044.044c.341.363 2.978 2.591 1.668 5.894-1.419 3.573-2.963 3.993-2.963 3.993z"/><path fill="#828278" d="m86.331 109.931 2.369 3.798-.132 1.381-7.195-.096-.245-1.285z"/><path fill="#c8c8be" d="M88.7 113.729h-7.572s2.109-62.092 2.405-68.357c.113-2.54.369-5.068.493-7.615.069-1.398-.22-4.393.401-6.046h2.806c.569 1.33.473 3.518.581 4.676.261 2.795.253 5.642.429 8.449.373 5.611.457 68.893.457 68.893"/><path fill="#c8c8be" d="M78.439.386c.505 5.247.449 22.62 1.459 24.421.509.907 1.439.088 1.439.088S82.748 2.458 83.024.386h1.159c.348 2.2.048 20.149.228 21.778.084.771 1.034 3.662 2.682 1.945.826-.859.802-18.556 1.307-23.723h.617c.545 5.338-.481 24.162 2.084 24.198S92.821 5.613 93.422.386h.553c.361 3.781.706 14.842 1.079 20.664.4 6.013 0 16.036-8.867 16.523s-9.777-9.324-9.777-13.48c0-2.368.566-18.648 1.283-23.707z"/><path fill="#828278" d="M85.89 34.754c-3.162 0-4.974-1.122-5.046-2.12-.044-.595.829-2.284 5.255-2.189 4.425.096 4.862.919 5.006 1.458.305 1.142-2.052 2.851-5.215 2.851"/></svg>