<svg xmlns="http://www.w3.org/2000/svg" width="124.406" height="174.866" viewBox="-1.12 -0.789 124.406 174.866"><defs><linearGradient id="a" x1="34.137" x2="16.329" y1="117.154" y2="92.668" gradientUnits="userSpaceOnUse"><stop offset="0" stop-color="#ac7f2e"/><stop offset="1" stop-color="#d29839"/></linearGradient><linearGradient id="b" x1="101.256" x2="117.489" y1="117.1" y2="91.461" gradientUnits="userSpaceOnUse"><stop offset="0" stop-color="#ac7f2e"/><stop offset="1" stop-color="#d29839"/></linearGradient><linearGradient id="c" x1="47.157" x2="47.157" y1="83.747" y2="141.252" gradientUnits="userSpaceOnUse"><stop offset="0" stop-color="#9f7a29"/><stop offset="1" stop-color="#d29839"/></linearGradient><linearGradient id="d" x1="55.462" x2="55.462" y1="95.208" y2="133.061" gradientUnits="userSpaceOnUse"><stop offset="0" stop-color="#f3b271"/><stop offset="1" stop-color="#ffcb99"/></linearGradient><linearGradient id="e" x1="13.75" x2="40.25" y1="33.25" y2="33.25" gradientUnits="userSpaceOnUse"><stop offset="0" stop-color="#cbbd7c"/><stop offset="1" stop-color="#b4812d"/></linearGradient><linearGradient id="f" x1="95.5" x2="122" y1="33.5" y2="33.5" gradientUnits="userSpaceOnUse"><stop offset="0" stop-color="#b4812d"/><stop offset="1" stop-color="#cbbd7c"/></linearGradient><linearGradient id="g" x1="46.499" x2="46.499" y1="63.949" y2="86.117" gradientUnits="userSpaceOnUse"><stop offset="0" stop-color="#ffcb6b"/><stop offset="1" stop-color="#ffcb99"/></linearGradient><linearGradient id="h" x1="33" x2="45.5" y1="71.75" y2="71.75" gradientUnits="userSpaceOnUse"><stop offset="0" stop-color="#fe9e6c"/><stop offset="1" stop-color="#ffcb99"/></linearGradient><linearGradient id="i" x1="90.75" x2="103.25" y1="70.5" y2="70.5" gradientUnits="userSpaceOnUse"><stop offset="0" stop-color="#fe9e6c"/><stop offset="1" stop-color="#ffcb99"/></linearGradient></defs><path fill="#b4852d" d="M84.25 133.05c-4.167-.258-9.699 1.222-11.85 3.7-1.199 1.272 3.697 2.166 5.15 3.8 1.415 1.59 2.391 3.559 3.1 5.6.628 1.8.723 3.767.85 5.75.294 4.604-.468 9.309.35 13.85.147 1.149 1.376.852 2.15.9 1.694.105 4.585 1.218 5.25-.4 1.93-5.271 1.066-11.239 1.25-16.85.059-1.787-.312-3.508-.7-5.325-.469-2.186-1-4.408-1.95-6.425-.927-1.712-1.659-4.48-3.6-4.6"/><path fill="#fdcb96" d="M86.525 162.5c-1.754-.185-3.747.63-5.037 1.649-1.29 1.018-1.791 2.51-2.088 3.976-.239 1.183-.436 2.955.6 3.575 1.827 1.093 4.256.655 6.4.65 2.042.005 4.323.378 6.1-.65 1.264-.731 1.95-2.545 1.8-4-.129-1.216-1.479-1.996-2.5-2.7-1.603-1.095-3.313-2.292-5.275-2.5"/><path fill="#cc9832" d="M85.2 162.35c-1.319.071-2.788.027-3.888.733-.816.522-1.281 1.725-1.212 2.767.013.483.803.608 1.4.7 2.305.342 4.611.513 7 .4 1.073-.052 2.254-.206 3.1-.9.438-.361.102-1.153-.15-1.7-.324-.698-.881-1.455-1.6-1.65-1.495-.514-3.132-.431-4.65-.35"/><path fill="#a97a2a" d="M17.75 103.1c3.586 1.493 6.556 4.357 9.25 7.15 1.474 1.647 2.46 3.775 3 5.9.907 3.569.744 7.34 1.15 11 .371 3.339-.039 6.753 1.1 9.85.657 1.782 2.077 3.38 3.75 3.9 2.814.952 5.938.49 8.75.2 3.375-.345 6.762-.775 10-1.95 2.33-.845 4.045-3.523 6.4-3.8 3.629-.426 12.4.087 10.85 1.65-2.728 2.752-13.156 6.019-20.121 7.774-4.587 1.154-9.397 1.476-14.029 1.076-2.881-.324-6.068-1.174-8-3.2-2.079-2.18-2.583-5.532-3.1-8.5-.774-4.443-.021-8.925-.75-13.3-.44-2.638-1.067-5.61-2.85-7.75-2.281-2.692-5.451-4.68-8.8-6.1-4.287-1.816-9.493-.929-13.6-3.25-1.16-.656-.454-3.838.9-3.9 5.385-.246 11.051 1.148 16.1 3.25"/><path fill="#fccd97" d="M22.138 93.203c.86-.72 2.928-.342 3.17-1.379.168-1.818-1.284-3.543-2.279-4.834-.7-.911-1.788-1.626-2.907-1.819a4.3 4.3 0 0 0-3.278.753 4.3 4.3 0 0 0-1.725 2.886c-.162 1.124.19 2.377.834 3.326.908 1.342 2.11 3.262 3.896 3.658 1.058.094 1.41-1.854 2.289-2.591"/><path fill="url(#a)" d="M45.203 107.309c2.401-.14 4.927-1.406 6.598-3.254 1.184-1.31 2.134-4.307.827-5.238-1.59-1.124-4.429 1.284-6.672 1.452-2.971.091-5.995.113-8.84-.68-2.577-.724-5.11-2.53-7.39-4.21-2.462-1.814-3.842-6.075-7.058-6.304-2.313-.227-5.815 3.184-4.779 5.33 2.393 4.948 7.434 8.232 12.297 10.533 4.519 2.151 9.923 2.536 15.017 2.37"/><path fill="#cd9934" d="M22.63 93.732c1.059-.771 1.855-1.696 2.284-2.568.43-.872.492-1.69.087-2.248-.406-.558-1.204-.75-2.165-.61-.962.139-2.088.611-3.147 1.382-1.06.77-1.856 1.695-2.285 2.568-.43.871-.492 1.69-.086 2.247.406.558 1.203.751 2.165.61.962-.139 2.087-.611 3.147-1.382"/><path fill="#fccd97" d="M111.92 92.717c.985.534 1.397 2.596 2.45 2.44 1.752-.515 2.82-2.5 3.653-3.901.59-.987.853-2.262.619-3.374a4.3 4.3 0 0 0-1.908-2.769 4.3 4.3 0 0 0-3.319-.54c-1.104.264-2.14 1.054-2.784 2.002-.913 1.338-2.255 3.164-1.964 4.97.302 1.018 2.243.628 3.253 1.172"/><path fill="url(#b)" d="M91.505 107.352c-3.583-.154-7.408-.897-10.265-2.948-1.166-.978-.918-3.922.366-4.503 2.072-.931 4.502.996 6.751 1.02 2.972-.1 5.99-.273 8.78-1.248 2.524-.888 4.935-2.853 7.102-4.675 2.34-1.97 3.444-6.31 6.638-6.745 2.294-.376 5.967 2.764 5.112 5.012-1.994 5.231-6.94 9.066-11.777 11.776-3.869 2.17-8.418 2.487-12.707 2.311"/><path fill="#cd9934" d="M111.494 93.224c1.106.7 2.26 1.1 3.229 1.177.968.078 1.752-.165 2.121-.748.37-.583.254-1.396-.23-2.238-.485-.843-1.339-1.715-2.446-2.416s-2.26-1.1-3.229-1.177c-.968-.078-1.752.166-2.121.749-.37.583-.254 1.395.23 2.237.485.843 1.339 1.715 2.446 2.416"/><path fill="#b4852d" d="M52.25 133.15c4.167-.258 9.699 1.222 11.85 3.7 1.199 1.272-3.697 2.166-5.15 3.8-1.415 1.59-2.391 3.559-3.1 5.6-.628 1.8-.723 3.767-.85 5.75-.294 4.604.468 9.309-.35 13.85-.147 1.149-1.376.852-2.15.9-1.694.105-4.585 1.218-5.25-.4-1.93-5.271-1.066-11.239-1.25-16.85-.059-1.787.312-3.508.7-5.325.469-2.186 1-4.408 1.95-6.425.927-1.712 1.659-4.48 3.6-4.6"/><path fill="#fdcb96" d="M50.575 162.85c1.754-.185 3.747.63 5.037 1.649 1.29 1.018 1.791 2.51 2.088 3.976.239 1.183.436 2.955-.6 3.575-1.827 1.093-4.256.655-6.4.65-2.042.005-4.323.378-6.1-.65-1.264-.731-1.95-2.545-1.8-4 .129-1.216 1.479-1.996 2.5-2.7 1.603-1.095 3.313-2.292 5.275-2.5"/><path fill="#cc9832" d="M51.95 162.5c1.319.071 2.788.027 3.888.733.816.522 1.281 1.725 1.212 2.767-.013.483-.803.608-1.4.7-2.305.342-4.611.513-7 .4-1.073-.052-2.254-.206-3.1-.9-.438-.361-.102-1.153.15-1.7.324-.698.881-1.455 1.6-1.65 1.495-.514 3.132-.431 4.65-.35"/><path fill="url(#c)" d="M85.431 84.57c2.969.406 1.865.501 2.011 4.178.584 14.704 1.73 29.643 0 44.435-.428 3.538-3.163 5.525-6.033 6.836-3.635 1.66-7.962 1.14-12.068 1.14-4.637 0-9.753.577-14.078-1.14-3.14-1.264-6.302-3.52-6.838-7.216-2.142-14.786-1.067-29.803-.402-44.815.165-3.754-.071-3.181 2.815-3.418 11.55-.951 23.224-1.235 34.593 0"/><path fill="url(#d)" d="M79.25 95.75c1.845.267 1.159.33 1.25 2.75.363 9.679 1.075 19.513 0 29.25-.266 2.329-1.966 3.637-3.75 4.5-2.259 1.093-4.948.75-7.5.75-2.882 0-6.062.38-8.75-.75-1.952-.832-3.917-2.317-4.25-4.75-1.331-9.733-.663-19.618-.25-29.5.103-2.471-.044-2.094 1.75-2.25 7.178-.626 14.434-.813 21.5 0"/><path fill="#fccded" d="M68.25 126.25c.552 0 1.052.168 1.414.44.362.271.586.646.586 1.06s-.224.789-.586 1.06c-.362.272-.862.44-1.414.44s-1.052-.168-1.414-.44c-.362-.271-.586-.646-.586-1.06s.224-.789.586-1.06c.362-.272.862-.44 1.414-.44"/><g fill="#cd9934"><path d="M48.375 89.5c1.966 0 3.747.896 5.037 2.345 1.29 1.448 2.088 3.448 2.088 5.655s-.798 4.207-2.088 5.655-3.071 2.345-5.037 2.345-3.747-.896-5.037-2.345c-1.29-1.448-2.088-3.448-2.088-5.655s.798-4.207 2.088-5.655 3.071-2.345 5.037-2.345"/><path d="M60.975 89.25c1.966 0 3.747.896 5.037 2.345 1.29 1.448 2.088 3.448 2.088 5.655s-.798 4.207-2.088 5.655-3.071 2.345-5.037 2.345-3.747-.896-5.037-2.345c-1.29-1.448-2.088-3.448-2.088-5.655s.798-4.207 2.088-5.655 3.071-2.345 5.037-2.345"/><path d="M74.875 89.25c1.966 0 3.747.896 5.037 2.345C81.202 93.043 82 95.043 82 97.25s-.798 4.207-2.088 5.655-3.071 2.345-5.037 2.345-3.747-.896-5.037-2.345c-1.29-1.448-2.088-3.448-2.088-5.655s.798-4.207 2.088-5.655 3.071-2.345 5.037-2.345"/><path d="M88.625 89c1.966 0 3.747.896 5.037 2.345 1.29 1.448 2.088 3.448 2.088 5.655s-.798 4.207-2.088 5.655S90.591 105 88.625 105s-3.747-.896-5.037-2.345C82.298 101.207 81.5 99.207 81.5 97s.798-4.207 2.088-5.655S86.659 89 88.625 89"/><path d="M67.5 87.25c6.139 0 11.701.686 15.729 1.795s6.521 2.64 6.521 4.33-2.493 3.221-6.521 4.33S73.639 99.5 67.5 99.5s-11.701-.686-15.729-1.795-6.521-2.64-6.521-4.33 2.493-3.221 6.521-4.33 9.59-1.795 15.729-1.795"/></g><path fill="url(#e)" d="M27 33.25c3.656 0 6.968 1.401 9.367 3.664 2.398 2.262 3.883 5.387 3.883 8.836s-1.485 6.574-3.883 8.836C33.968 56.849 30.656 58.25 27 58.25s-6.968-1.401-9.367-3.664c-2.398-2.262-3.883-5.387-3.883-8.836s1.485-6.574 3.883-8.836c2.399-2.263 5.711-3.664 9.367-3.664"/><path fill="#fecc99" d="M26.125 37.988a8.23 8.23 0 0 1 5.744 2.307c1.471 1.426 2.381 3.395 2.381 5.567s-.91 4.142-2.381 5.568a8.23 8.23 0 0 1-5.744 2.307 8.23 8.23 0 0 1-5.744-2.307C18.91 50.004 18 48.035 18 45.862s.91-4.14 2.381-5.567a8.23 8.23 0 0 1 5.744-2.308"/><path fill="url(#f)" d="M108.75 33.5c3.656 0 6.968 1.401 9.367 3.664C120.515 39.426 122 42.551 122 46s-1.485 6.574-3.883 8.836c-2.399 2.263-5.711 3.664-9.367 3.664s-6.968-1.401-9.367-3.664C96.985 52.574 95.5 49.449 95.5 46s1.485-6.574 3.883-8.836c2.399-2.263 5.711-3.664 9.367-3.664"/><path fill="#fecc99" d="M110.125 38.238a8.23 8.23 0 0 1 5.744 2.307c1.471 1.426 2.381 3.395 2.381 5.567s-.91 4.142-2.381 5.568a8.23 8.23 0 0 1-5.744 2.307 8.23 8.23 0 0 1-5.744-2.307C102.91 50.254 102 48.285 102 46.112s.91-4.14 2.381-5.567a8.23 8.23 0 0 1 5.744-2.308"/><path fill="#cd9933" d="M68.322 8.11c11.19 0 21.332 4.481 28.675 11.722 7.343 7.242 11.888 17.242 11.888 28.277s-4.545 21.036-11.888 28.277S79.513 88.11 68.322 88.11 46.99 83.627 39.647 76.386 27.759 59.145 27.759 48.11c0-11.035 4.545-21.035 11.888-28.277C46.99 12.592 57.13 8.109 68.322 8.109"/><path fill="#ffcb99" d="M74.25 23.25c5.596-.34 11.535.977 16 4 5.06 3.503 9.031 8.849 11 14.5 1.763 5.024.269 10.585 0 16-.067 1.354-.928-.568-.5 0 1.71 2.271 4.302 4.118 5.75 6.75.96 2.101 1.644 4.665 1.25 7-.655 3.876-1.26 8.452-4.25 11-5.781 4.904-13.327 8.437-21 10-9.209 1.933-18.933 1.655-28.5.25-7.101-1.044-14.25-3.423-20.25-7.5-3.323-2.344-5.187-6.635-6.25-10.75-.837-3.249.031-6.694 1.25-10 .925-2.499 3.267-4.173 5-6.25.433-.519.865-.342 1-1.5.54-4.631-.796-9.519.5-14 1.439-4.959 3.764-10.518 8-14 4.149-3.298 9.873-4.899 15.5-5 3.283-.055 5.818 3.339 8.5 5 .671.415-1.04.465-.5 0 2.153-1.857 4.404-5.311 7.5-5.5"/><path fill="url(#g)" d="M68.504 64.067c4.78.007 9.86-.737 13.992 1.43 3.53 1.86 7.03 5.44 7.211 9.272.093 3.91-3.145 7.723-6.538 9.567-4.358 2.37-9.88 1.715-14.923 1.65-4.793.065-10.04.561-14.408-1.65-3.46-1.75-7.102-5.154-7.339-9.052-.007-3.815 3.352-7.704 6.753-9.5 4.524-2.389 10.144-1.723 15.252-1.717"/><path fill="url(#h)" d="M39.25 71.75c1.724 0 3.287.644 4.418 1.685S45.5 75.914 45.5 77.5s-.7 3.024-1.832 4.065c-1.131 1.041-2.694 1.685-4.418 1.685s-3.287-.644-4.418-1.685S33 79.086 33 77.5s.7-3.024 1.832-4.065c1.131-1.041 2.694-1.685 4.418-1.685"/><path fill="url(#i)" d="M97 70.5c1.724 0 3.287.644 4.418 1.685s1.832 2.479 1.832 4.065-.7 3.024-1.832 4.065C100.287 81.356 98.724 82 97 82s-3.287-.644-4.418-1.685-1.832-2.479-1.832-4.065.7-3.024 1.832-4.065C93.713 71.144 95.276 70.5 97 70.5"/><path fill="#cd9933" d="M62.5.5c.685-.011.597 3.136 1.5 4.5.891 1.257 2.578 1.756 3.75 2.75.944.799 2.395 1.274 2.75 2.5.32.743-.488 1.554-1.136 2.181-.74.71-1.67 1.319-2.739 1.319s-2.24-.438-2.739-1.319C62.55 9.912 61.507 7.44 61.25 4.75 61.105 3.149 61.94.385 62.5.5"/><path fill="#fff" d="M47.4 43.75c2.069 0 3.944 1.401 5.302 3.664S54.9 52.801 54.9 56.25s-.84 6.574-2.198 8.836-3.233 3.664-5.302 3.664-3.944-1.401-5.302-3.664S39.9 59.699 39.9 56.25s.84-6.574 2.198-8.836 3.233-3.664 5.302-3.664"/><path fill="#9a6732" d="M47.675 54.127c1.483 0 2.827.784 3.8 2.052.973 1.267 1.575 3.017 1.575 4.948s-.602 3.682-1.575 4.948c-.973 1.268-2.317 2.052-3.8 2.052s-2.827-.784-3.8-2.052c-.973-1.266-1.575-3.016-1.575-4.948 0-1.931.602-3.68 1.575-4.948s2.317-2.052 3.8-2.052"/><path fill="#fff" d="M88.15 44.25c2.069 0 3.944 1.401 5.302 3.664s2.198 5.387 2.198 8.836-.84 6.574-2.198 8.836-3.233 3.664-5.302 3.664-3.944-1.401-5.302-3.664-2.198-5.387-2.198-8.836.84-6.574 2.198-8.836 3.233-3.664 5.302-3.664"/><path fill="#9a6732" d="M87.975 54.627c1.483 0 2.827.784 3.8 2.052.973 1.267 1.575 3.017 1.575 4.948s-.602 3.682-1.575 4.948c-.973 1.268-2.317 2.052-3.8 2.052s-2.827-.784-3.8-2.052c-.973-1.266-1.575-3.016-1.575-4.948 0-1.931.602-3.68 1.575-4.948s2.317-2.052 3.8-2.052"/><path fill="#343432" d="M68.15 63c1.931 0 3.681.448 4.948 1.172S75.15 65.896 75.15 67s-.784 2.104-2.052 2.828C71.831 70.552 70.081 71 68.15 71s-3.681-.448-4.948-1.172S61.15 68.104 61.15 67s.784-2.104 2.052-2.828C64.469 63.448 66.219 63 68.15 63"/><path fill="none" stroke="#343432" stroke-linecap="round" stroke-width="2.572" d="M67.9 66.99v7.195"/><path fill="#343432" d="M67.908 76.841a37.4 37.4 0 0 1 7.32.718c.601.118.515.353.369.742-.714 1.565-1.284 3.373-2.641 4.417-1.339 1.027-3.18 1.451-4.866 1.421-1.686-.034-3.522-.598-4.844-1.68-1.268-1.037-1.83-2.727-2.504-4.189-.137-.41-.176-.605.382-.71 2.232-.421 4.524-.716 6.784-.719"/></svg>