<svg xmlns="http://www.w3.org/2000/svg" xml:space="preserve" width="69.845" height="77.205" viewBox="1.081 0.116 69.845 77.205"><title>Slice 1</title><g fill-rule="evenodd"><path fill="#458ef9" d="M7.51 62.72S5.925 46.73 24.731 36.719c18.803-10.015 29.25-20.08 30.688-21.968 1.094-1.435 3.397-6.68 6.024-3.864 2.642 2.812 2.642 13.529 0 24.6C58.817 46.553 65 53.41 64.281 61.669c0-.003-26.548-12.126-56.772 1.052"/><g fill="#1f1287"><path d="M8.791 54.285s25.772-14.089 54.655 0l-1.516-5.093s-22.252-11.648-50.823.004zM20.018 39.304s24.413-6.765 39.946 3.258l.928-4.144s-16.89-9.573-33.971-3.903zM44.268 25.548s12.725.1 16.812 7.519l1.576-3.761s-2.504-7.268-15.042-7.123l-3.775 3.68M55.42 14.75s6.212 1.09 7.838 4.926v-6.57l-6.64-1.739z"/></g><path fill-rule="nonzero" d="m6.748 64.017-.12-1.211c-.019-.163-1.421-16.695 17.686-26.87 19.011-10.126 29.3-20.276 30.398-21.721.188-.238.4-.592.651-.992 1.052-1.703 2.504-4.04 4.509-4.04.79 0 1.537.367 2.22 1.097 3.287 3.5 2.593 15.43.217 25.411-1.467 6.177-.096 10.972 1.232 15.612.995 3.495 1.945 6.793 1.626 10.44l-.11 1.25-1.14-.516c-.11-.05-11.178-5.012-26.846-5.012-10.143 0-19.971 2.044-29.208 6.067zm53.128-53.064c-1.024 0-2.31 2.083-3.01 3.202-.284.457-.532.857-.741 1.13-1.204 1.582-11.44 11.804-30.979 22.213C9.9 45.615 8.412 57.536 8.352 61.396c9.113-3.786 18.764-5.705 28.716-5.705 13.245 0 23.08 3.368 26.388 4.671.007-2.876-.79-5.652-1.618-8.574-1.328-4.632-2.83-9.881-1.254-16.508 2.822-11.832 2.309-21.561.216-23.789-.33-.357-.641-.538-.924-.538"/><path fill="#4a3ced" stroke="#000" stroke-width="1.771" d="M61.08 1.001c1.756 0 3.35.68 4.505 1.774 1.15 1.095 1.866 2.61 1.866 4.279 0 1.668-.715 3.184-1.866 4.278a6.54 6.54 0 0 1-4.505 1.774c-1.757 0-3.35-.68-4.505-1.774-1.151-1.094-1.867-2.61-1.867-4.278s.716-3.184 1.867-4.279a6.54 6.54 0 0 1 4.505-1.774Z"/><path fill="#4a3ced" d="M4.938 67.64s-2.483-2.649 0-4.923c2.486-2.27 16.04-8.606 30.862-8.432 14.818.173 19.695 1.934 23.498 3.69 3.797 1.757 11.22 6.325 8.033 10.366 0 0 4.501 7.43.485 7.43-.907 0-3.645-1.104-3.645-1.104s-22.503-12.65-56.07 0c0 .003-10.381 4.278-3.163-7.027"/><path fill-rule="nonzero" d="M68.308 68.352a3.83 3.83 0 0 0 .507-3.035c-.967-4.03-7.76-7.352-9.11-7.976-3.902-1.803-8.95-3.577-23.781-3.754l-.613-.004c-14.755 0-28.138 6.248-30.73 8.62-.847.776-1.294 1.676-1.329 2.671-.046 1.183.514 2.203.91 2.77-2 2.638-2.638 4.962-1.894 6.913 1.257 3.297 6.704.588 6.704.588 9.65-3.577 19.302-5.39 28.697-5.39 14.496 0 24.002 4.38 25.918 5.348 0 0 3.064 1.367 4.218 1.331 1.314-.042 1.86-.914 2.125-2.082.528-2.32-.974-4.98-1.622-6m.248 5.684c-.602 1.814-3.928.022-3.928.022-.414-.234-10.355-5.713-26.962-5.713-9.729 0-19.723 1.905-29.7 5.67l-.506.191s-3.199 1.633-3.882-.155c-.592-1.555.088-3.563 2.019-5.965l.382-.478s1.045-1.328 3.244-2.38c0 0-1.849.015-3.966 1.516-.28-.407-.638-1.07-.606-1.817.025-.616.308-1.168.875-1.685 2.17-1.99 15.268-8.256 29.781-8.256l.599.004c14.549.173 19.44 1.887 23.208 3.626 3.722 1.718 7.742 4.558 8.33 7.023.16.645.007 1.24-.312 1.82-1.99-1.296-3.694-1.313-3.694-1.313 2.2 1.052 3.245 2.383 3.245 2.383l.035-.003.166.233c.606.836 2.281 3.457 1.672 5.277"/></g></svg>