<svg xmlns="http://www.w3.org/2000/svg" width="89.853" height="77.726" viewBox="12.047 9.53 89.853 77.726"><path fill="#919191" stroke="#919191" stroke-width="3.019" d="M71.76 63.012c7.422-.032 14.143 1.213 19.007 3.25s7.87 4.865 7.86 8.002c-.01 3.136-3.033 5.99-7.91 8.07-4.877 2.078-11.606 3.38-19.03 3.413-7.422.031-14.143-1.213-19.007-3.25s-7.87-4.866-7.86-8.003c.01-3.136 3.034-5.99 7.911-8.07 4.877-2.078 11.606-3.38 19.029-3.412Z"/><path fill="#a85b00" d="M65.844 17.812c11.62 4.717 21.23 11.256 27.37 18.01 6.139 6.756 8.41 12.78 6.543 19.304-2.539 8.853-10.04 17.193-18.765 20.782-9.696 4.278-21.794 4.663-32.03.91-11.902-4.367-23.421-12.839-29.8-23.693-5.686-9.304-7.314-22.21-3.643-32.188 2.346-6.368 9.035-8.718 18.145-9.284 9.11-.565 20.56 1.443 32.18 6.16"/><path fill="#ef9300" stroke="#eac28e" stroke-linecap="round" stroke-width="1.903" d="M65.996 17.892c11.073 4.495 20.382 10.35 26.478 16.179 6.096 5.83 8.979 11.633 7.197 16.023s-7.894 6.543-16.328 6.475c-8.435-.069-19.191-2.357-30.264-6.851-11.073-4.495-20.382-10.35-26.479-16.18-6.096-5.829-8.978-11.632-7.197-16.022 1.782-4.39 7.894-6.543 16.328-6.475 8.435.069 19.192 2.357 30.265 6.851Z"/><path fill="none" stroke="#eac28e" stroke-linecap="round" stroke-width="1.379" d="M63.493 17.59s-4.305 12.608-8.08 17.977C52.622 39.538 44.26 44.95 44.26 44.95M56.955 32.688l35.296 1.609"/><path fill="none" stroke="#eac28e" stroke-linecap="round" stroke-width="1.379" d="M77.385 55.673 56.682 33.36 22.276 14.4M55.37 32.827l-29.11-.59M55.769 33.773 41.649 11.41M56.632 34.496l42.042 16.317"/></svg>