<svg xmlns="http://www.w3.org/2000/svg" viewBox="-9.31 0 121.03 121.03"><g data-name="Group 60" transform="translate(-122.305 -206.956)"><ellipse cx="51.203" cy="48.911" fill="#ec3d1e" data-name="Ellipse 43" rx="51.203" ry="48.911" transform="translate(122.305 230.163)"/><path d="M173.508 327.986c28.279 0 51.2-21.9 51.2-48.912a47.85 47.85 0 0 0-16.873-36.287 47.53 47.53 0 0 1 13.216 32.794c0 27.013-26.65 51.9-54.929 51.9" data-name="Path 55" opacity=".2" style="mix-blend-mode:darken;isolation:isolate"/><text fill="#f0f5f9" font-family="SegoeUI, Segoe UI" font-size="7.588" opacity=".5" transform="translate(192.057 230.629)">
<tspan x="-2.164" y="0">Z</tspan>
</text><text fill="#f0f5f9" data-name="Z" font-family="SegoeUI, Segoe UI" font-size="11.163" opacity=".4" transform="translate(197.441 225.181)">
<tspan x="-3.183" y="0">Z</tspan>
</text><text fill="#f0f5f9" data-name="Z" font-family="SegoeUI, Segoe UI" font-size="13.863" opacity=".3" transform="translate(203.482 221.956)">
<tspan x="-3.953" y="0">Z</tspan>
</text><path fill="none" stroke="#1c142a" stroke-linecap="round" stroke-miterlimit="10" stroke-width="1.806" d="M152.3 284.463a8.9 8.9 0 0 1 3.88-.583c3.035 0 3.881.583 3.881.583" data-name="Path 56"/><path fill="none" stroke="#1c142a" stroke-linecap="round" stroke-miterlimit="10" stroke-width="2.709" d="M180.517 304.9s-1.925 1.053-7.009 1.053c-5.48 0-7.008-1.053-7.008-1.053" data-name="Path 57"/><path fill="none" stroke="#1c142a" stroke-linecap="round" stroke-miterlimit="10" stroke-width="1.806" d="M186.957 284.463a8.9 8.9 0 0 1 3.881-.583c3.034 0 3.88.583 3.88.583" data-name="Path 58"/><g fill="#312449" data-name="Group 55" opacity=".8"><circle cx="3.77" cy="3.77" r="3.77" data-name="Ellipse 44" opacity=".1" style="mix-blend-mode:darken;isolation:isolate" transform="translate(154.188 242.043)"/><path d="M155.332 245.813a3.76 3.76 0 0 1 3.2-3.712 4 4 0 0 0-.572-.058 3.77 3.77 0 1 0 0 7.539 4 4 0 0 0 .572-.057 3.76 3.76 0 0 1-3.2-3.712" data-name="Path 59" opacity=".1" style="mix-blend-mode:darken;isolation:isolate"/></g><g fill="#312449" data-name="Group 56" opacity=".8"><circle cx="3.643" cy="3.643" r="3.643" data-name="Ellipse 45" opacity=".1" style="mix-blend-mode:darken;isolation:isolate" transform="translate(210.854 269.483)"/><path d="M211.96 273.125a3.63 3.63 0 0 1 3.089-3.587 3.6 3.6 0 0 0-.553-.055 3.643 3.643 0 0 0 0 7.285 3.6 3.6 0 0 0 .553-.056 3.63 3.63 0 0 1-3.089-3.587" data-name="Path 60" opacity=".1" style="mix-blend-mode:darken;isolation:isolate"/></g><g fill="#312449" data-name="Group 57" opacity=".8"><circle cx="3.643" cy="3.643" r="3.643" data-name="Ellipse 46" opacity=".1" style="mix-blend-mode:darken;isolation:isolate" transform="translate(146.903 299.668)"/><path d="M148.009 303.311a3.63 3.63 0 0 1 3.089-3.587 3.6 3.6 0 0 0-.553-.056 3.643 3.643 0 0 0 0 7.285 3.6 3.6 0 0 0 .553-.055 3.63 3.63 0 0 1-3.089-3.587" data-name="Path 61" opacity=".1" style="mix-blend-mode:darken;isolation:isolate"/></g><path fill="#312449" d="m183.988 247.054-5.868 5.417-.731 6.546 5.019 7.448 7.449-2.094 2.821 4.464s4.22-3.967 4.762-4.749 1.783-8.681 1.783-9.019-1.535-6.772-1.783-6.772-7.7.913-8.035.964-3.611.513-3.611 0a21 21 0 0 0-.339-2.205Z" data-name="Path 62" opacity=".1" style="mix-blend-mode:darken;isolation:isolate"/><g fill="#312449" data-name="Group 58"><path d="M191.286 249.259c.238-.036 3.973-.495 6.268-.767-.048-.117-.089-.2-.114-.2-.248 0-7.7.913-8.035.964-.14.022-.786.113-1.492.177a14.4 14.4 0 0 0 3.373-.174" data-name="Path 63" opacity=".1" style="mix-blend-mode:darken;isolation:isolate"/><path d="m179.27 259.017.731-6.546 5.517-5.093-.063-.324h-1.467l-5.868 5.417-.731 6.546 5.019 7.448 1.581-.445Z" data-name="Path 64" opacity=".1" style="mix-blend-mode:darken;isolation:isolate"/><path d="m191.737 264.371-1.6.449 2.538 4.015s.5-.471 1.175-1.116Z" data-name="Path 65" opacity=".1" style="mix-blend-mode:darken;isolation:isolate"/></g><path fill="#312449" d="m186.8 309.576-4.141 1.6-.516 1.934 3.542 2.2 5.255-.618 1.991 1.318s2.977-1.171 3.36-1.4a10 10 0 0 0 1.259-2.664 9.3 9.3 0 0 0-1.259-2c-.175 0-5.43.27-5.669.285a13 13 0 0 1-2.548 0 3 3 0 0 0-.239-.651Z" data-name="Path 66" opacity=".1" style="mix-blend-mode:darken;isolation:isolate"/><g fill="#312449" data-name="Group 59"><path d="M191.953 310.227c.168-.011 2.8-.147 4.422-.227-.034-.034-.062-.058-.08-.058-.175 0-5.43.27-5.669.285-.1.006-.555.033-1.053.052.527.058 2.18-.039 2.38-.052" data-name="Path 67" opacity=".1" style="mix-blend-mode:darken;isolation:isolate"/><path d="m183.474 313.109.516-1.934 3.893-1.5-.044-.1H186.8l-4.141 1.6-.516 1.934 3.542 2.2 1.115-.131Z" data-name="Path 68" opacity=".1" style="mix-blend-mode:darken;isolation:isolate"/><path d="m192.271 314.69-1.126.132 1.79 1.186s.354-.139.829-.329Z" data-name="Path 69" opacity=".1" style="mix-blend-mode:darken;isolation:isolate"/></g></g><path fill="#312449" d="m128.7 268.6-3.923 5.018-.488 6.063 3.355 6.9 4.978-1.94 1.886 4.136s2.82-3.675 3.183-4.4a79 79 0 0 0 1.192-8.355 62 62 0 0 0-1.192-6.272c-.166 0-5.144.845-5.371.893s-2.413.475-2.413 0-.227-2.043-.227-2.043Z" data-name="Path 70" opacity=".1" style="mix-blend-mode:darken;isolation:isolate" transform="translate(-122.305 -206.956)"/><g fill="#312449" data-name="Group 61"><path d="M133.576 270.644c.158-.034 2.655-.46 4.189-.711-.033-.109-.06-.182-.076-.182-.166 0-5.144.845-5.371.893-.093.019-.525.1-1 .163a7 7 0 0 0 2.258-.163" data-name="Path 71" opacity=".1" style="mix-blend-mode:darken;isolation:isolate" transform="translate(-122.305 -206.956)"/><path d="m125.544 279.682.489-6.063 3.687-4.718c-.024-.179-.042-.3-.042-.3h-.98l-3.923 5.018-.488 6.063 3.355 6.9 1.057-.412Z" data-name="Path 72" opacity=".1" style="mix-blend-mode:darken;isolation:isolate" transform="translate(-122.305 -206.956)"/><path d="m133.877 284.641-1.067.416 1.7 3.72s.335-.437.785-1.034Z" data-name="Path 73" opacity=".1" style="mix-blend-mode:darken;isolation:isolate" transform="translate(-122.305 -206.956)"/></g></svg>