<svg xmlns="http://www.w3.org/2000/svg" xml:space="preserve" viewBox="0 0 511.999 511.999"><path d="M67.673 447.928v28.462c0 14.812 12.008 26.82 26.82 26.82h324.232c14.812 0 26.82-12.008 26.82-26.82V35.608c0-14.812-12.008-26.82-26.82-26.82H94.495c-14.812 0-26.82 12.008-26.82 26.82v381.854" style="fill:#cfdce5"/><circle cx="256.614" cy="307.773" r="144.337" style="fill:#fff"/><path d="M298.947 307.769c0-25.359 9.982-48.372 26.206-65.378-17.255-18.086-41.574-29.372-68.544-29.372-52.329 0-94.751 42.422-94.751 94.752s42.421 94.752 94.751 94.752c26.97 0 51.289-11.288 68.544-29.372-16.224-17.01-26.206-40.023-26.206-65.382" style="fill:#415e72"/><circle cx="378.98" cy="59.368" r="22.848" style="fill:#fff"/><path d="M418.115 0H93.884c-19.635 0-35.61 15.973-35.61 35.608v381.854a8.789 8.789 0 0 0 17.576 0v-296.58h267.954a8.789 8.789 0 0 0 0-17.576H75.851V35.608c0-9.944 8.09-18.032 18.033-18.032h324.232c9.944 0 18.032 8.089 18.032 18.032v67.698H371.34a8.789 8.789 0 0 0 0 17.576h64.809V476.39c0 9.944-8.089 18.032-18.032 18.032H93.884c-9.944 0-18.032-8.089-18.032-18.032v-28.462a8.789 8.789 0 0 0-17.576 0v28.462c0 19.635 15.973 35.609 35.608 35.609h324.232c19.635 0 35.609-15.973 35.609-35.609V35.608C453.723 15.973 437.75 0 418.115 0"/><path d="M375.36 389.431a8.786 8.786 0 0 0 12.056-3.017c14.205-23.688 21.713-50.883 21.713-78.645 0-84.437-68.694-153.131-153.13-153.131s-153.13 68.694-153.13 153.131S171.563 460.899 256 460.899c40.463 0 78.624-15.636 107.449-44.026a8.789 8.789 0 0 0-12.333-12.523c-25.517 25.132-59.296 38.973-95.115 38.973-74.745 0-135.555-60.809-135.555-135.553s60.809-135.555 135.555-135.555 135.552 60.809 135.552 135.555c0 24.578-6.643 48.648-19.211 69.606-2.495 4.161-1.144 9.558 3.018 12.055"/><path d="M330.901 236.323c-19.745-20.697-46.346-32.094-74.902-32.094-57.091 0-103.539 46.447-103.539 103.54 0 57.091 46.447 103.539 103.539 103.539 28.556 0 55.157-11.399 74.902-32.094a8.786 8.786 0 0 0 0-12.132c-15.332-16.071-23.777-37.134-23.777-59.312s8.445-43.241 23.777-59.312a8.79 8.79 0 0 0 0-12.135m-41.352 71.446c0 23.781 8.057 46.496 22.852 64.852-15.636 13.669-35.382 21.112-56.401 21.112-47.4 0-85.962-38.563-85.962-85.962s38.563-85.964 85.962-85.964c21.019 0 40.765 7.443 56.401 21.112-14.795 18.353-22.852 41.068-22.852 64.85M410.005 59.369c0-17.444-14.192-31.636-31.636-31.636s-31.636 14.192-31.636 31.636 14.192 31.636 31.636 31.636c17.444.001 31.636-14.192 31.636-31.636m-45.696 0c0-7.752 6.308-14.06 14.06-14.06s14.06 6.308 14.06 14.06-6.308 14.06-14.06 14.06-14.06-6.307-14.06-14.06M144.614 36.52h-35.15a8.789 8.789 0 0 0 0 17.576h35.15a8.789 8.789 0 0 0 0-17.576M144.614 68.156h-35.15a8.789 8.789 0 0 0 0 17.576h35.15a8.789 8.789 0 0 0 0-17.576M209.061 36.52h-35.15a8.789 8.789 0 0 0 0 17.576h35.15a8.789 8.789 0 0 0 0-17.576M209.061 68.156h-35.15a8.789 8.789 0 0 0 0 17.576h35.15a8.789 8.789 0 0 0 0-17.576"/></svg>