<svg xmlns="http://www.w3.org/2000/svg" xml:space="preserve" width="146.7" height="144.1" viewBox="-0.3 0 146.7 144.1"><title>Slice 1</title><g fill-rule="evenodd"><g fill="#ffd499"><path d="M42.8 8C24 8 8.8 24.3 8.8 44.3c0 40.8 38.5 51.5 64.8 91.8 24.8-40.1 64.8-52.3 64.8-91.8 0-20-15.2-36.3-34-36.3-13.6 0-25.3 8.6-30.8 20.9C68.1 16.6 56.4 8 42.8 8"/><path fill-rule="nonzero" d="M73.6 143.6c-2.5 0-4.9-1.3-6.3-3.4-9.6-14.7-18.8-25.2-29.6-35.3C20 88.3 1.3 72.7 1.3 44.3 1.3 20.1 19.9.5 42.8.5c11.9 0 23 5.4 30.8 14.5C81.4 6 92.5.5 104.4.5c22.9 0 41.5 19.7 41.5 43.8 0 27.2-16.6 42.9-34.2 59.5-11.1 10.5-22.5 21.3-31.7 36.2-1.4 2.2-3.8 3.5-6.4 3.6M42.8 15.5c-14.6 0-26.5 12.9-26.5 28.8 0 21.9 12.4 33.5 29.7 49.6 8.8 8.2 18.5 17.3 27.5 29 8.9-12 18.9-21.5 27.9-30 16.5-15.6 29.5-27.9 29.5-48.6 0-15.9-11.9-28.8-26.5-28.8-10.1 0-19.5 6.5-23.9 16.5-1.2 2.7-3.9 4.5-6.9 4.5s-5.7-1.8-6.9-4.5c-4.4-10-13.8-16.5-23.9-16.5"/></g><path fill="#ffe9cc" d="M97.7 1.5c-11.1 0-21.6 5-29 13.4-7.4-8.4-17.8-13.4-29-13.4C17.9 1.5.2 20.2.2 43.2c0 26.9 15.8 41.7 32.5 57.3 10.2 9.5 20.7 19.3 29.6 33.1 1.4 2.1 3.8 3.4 6.3 3.4h.1c2.6 0 4.9-1.4 6.3-3.5 8.7-14 19.4-24.2 29.8-34 16.6-15.7 32.3-30.6 32.3-56.3.1-23-17.6-41.7-39.4-41.7"/><g fill="#ff9400"><path d="M34.1 46.2c1.2 1.2 1.9 2.6 2.1 4.1h-2.4c-.3-1.2-.8-2.1-1.6-2.8s-1.9-1-3.3-1c-1.7 0-3.1.6-4.2 1.9s-1.6 3.2-1.6 5.7c0 2.1.5 3.8 1.4 5.1s2.4 2 4.3 2c1.8 0 3.1-.7 4-2.1.5-.7.9-1.7 1.1-2.9h2.4q-.3 2.85-2.1 4.8c-1.4 1.5-3.3 2.3-5.7 2.3-2.1 0-3.8-.6-5.2-1.9-1.8-1.7-2.8-4.3-2.8-7.8 0-2.7.7-4.8 2.1-6.5 1.5-1.8 3.6-2.8 6.2-2.8 2.4.1 4.1.7 5.3 1.9"/><path fill-rule="nonzero" d="M54.4 47.4c1.2 1.6 1.8 3.6 1.8 6.1 0 2.7-.7 4.9-2 6.7-1.6 2.1-3.9 3.1-6.8 3.1-2.8 0-4.9-.9-6.5-2.7-1.4-1.8-2.1-4-2.1-6.7 0-2.4.6-4.5 1.8-6.2 1.6-2.2 3.8-3.3 6.9-3.3q4.5 0 6.9 3m-2.2 11.5c1-1.5 1.4-3.3 1.4-5.3 0-2.1-.6-3.8-1.7-5.1s-2.6-1.9-4.5-1.9-3.4.6-4.6 1.9Q41 50.45 41 54.2c0 2 .5 3.7 1.5 5s2.6 2.1 4.9 2.1c2.3-.1 3.8-.9 4.8-2.4M59.2 44.9h7.2c2.4 0 4.3.9 5.7 2.6 1.2 1.6 1.8 3.6 1.8 6.1 0 1.9-.4 3.6-1.1 5.2-1.2 2.7-3.4 4.1-6.4 4.1h-7.2zm6.7 15.9c.8 0 1.5-.1 2-.3.9-.3 1.7-.9 2.3-1.8.5-.7.8-1.7 1-2.8.1-.7.2-1.3.2-1.9 0-2.2-.4-4-1.3-5.2S67.8 47 65.8 47h-4.2v13.8z"/><path d="M77.4 44.9h13.1v2.2H79.8v5.5h9.9v2.1h-9.9v6.1h10.9v2.1H77.5v-18zM101.4 44.9h2.5v18h-2.5zM120.9 44.9V47h-6.1v15.8h-2.5V47h-6.1v-2.1z"/></g></g></svg>