<svg xmlns="http://www.w3.org/2000/svg" xml:space="preserve" style="fill-rule:evenodd;clip-rule:evenodd;stroke-linejoin:round;stroke-miterlimit:2" viewBox="0 -120 420 420"><path d="M1378 711h176v28h-176z" style="fill:#5b5e5e" transform="translate(-1603.56 -783.295)scale(1.27)"/><path d="M1486.5 718c-8.2 0-13.6 9.2-11.9 20.5s9.7 20.5 17.9 20.5h13c.5-2.6-.7-17.4-1.1-20.5-1.6-11.3-9.6-20.5-17.9-20.5" style="fill:#2a2b2a;fill-rule:nonzero" transform="translate(-1571.302 -783.886)scale(1.27)"/><path d="M1496.8 718c-8.2 0-15.6 9.2-16.6 20.5-.9 11.3 5 20.5 13.3 20.5h13c1.1-2.6 3.3-17.4 3.5-20.5 1-11.3-4.9-20.5-13.2-20.5" style="fill:#5b5e5e;fill-rule:nonzero" transform="translate(-1571.302 -783.886)scale(1.27)"/><ellipse cx="1508.7" cy="738.4" rx="20.6" ry="14.4" style="fill:#2a2b2a" transform="rotate(-81.222 673.294 1462.136)scale(1.27)"/><ellipse cx="1508.7" cy="738.4" rx="13.1" ry="9.2" style="fill:#f3f1ed" transform="rotate(-81.222 673.294 1462.136)scale(1.27)"/><path d="M1350.5 718c-8.2 0-13.6 9.2-11.9 20.5s9.7 20.5 17.9 20.5h13c.5-2.6-.7-17.4-1.1-20.5-1.6-11.3-9.6-20.5-17.9-20.5" style="fill:#2a2b2a;fill-rule:nonzero" transform="translate(-1571.302 -783.886)scale(1.27)"/><path d="M1360.8 718c-8.2 0-15.6 9.2-16.6 20.5-.9 11.3 5 20.5 13.3 20.5h13c1.1-2.6 3.3-17.4 3.5-20.5 1-11.3-4.9-20.5-13.2-20.5" style="fill:#5b5e5e;fill-rule:nonzero" transform="translate(-1571.302 -783.886)scale(1.27)"/><ellipse cx="1372.7" cy="738.4" rx="20.6" ry="14.4" style="fill:#2a2b2a" transform="rotate(-81.222 500.571 1462.135)scale(1.27)"/><ellipse cx="1372.7" cy="738.4" rx="13.1" ry="9.2" style="fill:#f3f1ed" transform="rotate(-81.222 500.571 1462.135)scale(1.27)"/><path d="M1415.9 718c-9.4 0-17 9.2-17.1 20.5 0 11.3 7.6 20.5 17.1 20.5h14.9c1-2.6 2.1-17.4 2.1-20.5.1-11.3-7.6-20.5-17-20.5" style="fill:#5b5e5e;fill-rule:nonzero" transform="translate(-1571.302 -783.886)scale(1.27)"/><path d="M1432.7 718c-9.1 0-17.2 9.2-18.2 20.5s5.5 20.5 14.6 20.5 17.2-9.2 18.2-20.5-5.5-20.5-14.6-20.5" style="fill:#2a2b2a;fill-rule:nonzero" transform="translate(-1571.302 -783.886)scale(1.27)"/><path d="M1282.7 718c-9.1 0-17.2 9.2-18.2 20.5s5.5 20.5 14.6 20.5h14.3c1.2-2.6 3.6-17.4 3.9-20.5 1-11.3-5.5-20.5-14.6-20.5" style="fill:#5b5e5e;fill-rule:nonzero" transform="translate(-1571.302 -783.886)scale(1.27)"/><path d="M1296.7 718c-9.1 0-17.2 9.2-18.2 20.5s5.5 20.5 14.6 20.5 17.2-9.2 18.2-20.5-5.5-20.5-14.6-20.5" style="fill:#2a2b2a;fill-rule:nonzero" transform="translate(-1571.302 -783.886)scale(1.27)"/><path d="m1561.1 681.5-48-41h-158l-56.3 37-58.4 12.3-2 7 8.7 42.7h106.2l7.7-24.5h25l7.1 24.5h96.7l7.2-23.5h24l7.3 23.5h29.8l7-43z" style="fill:#e3e1dc;fill-rule:nonzero" transform="translate(-1571.302 -783.886)scale(1.27)"/><path d="m1558.1 739.5 2.3-14L1404 675l-10 2h-9l-50 12 4 9 3.3 41.5h11l7.7-24.5h25l7.1 24.5h96.7l7.2-23.5h24l7.3 23.5z" style="fill:#f3f1ed;fill-rule:nonzero" transform="translate(-1571.302 -783.886)scale(1.27)"/><path d="M1456.4 677h-64l27-33h30zM1460.4 677h65l-25-33h-48zM1307.4 674h75.6l26.4-30h-57z" style="fill:#0d2241;fill-rule:nonzero" transform="translate(-1571.302 -783.886)scale(1.27)"/><g transform="translate(-1571.302 -783.886)scale(1.27)"><clipPath id="a"><path d="M1413.2 644h-57l-43.1 30h71z"/></clipPath><g clip-path="url(#a)"><path d="m1415 639-68 37h-7.4l64.3-36z" style="fill:#484a71;fill-rule:nonzero"/></g><clipPath id="b"><path d="M1411.2 644h-57l-41.1 30h71z"/></clipPath><g clip-path="url(#b)"><path d="m1324.6 675.3 66.6-36.8 14.6 1.3-75.3 42.2z" style="fill:#313155;fill-rule:nonzero"/></g></g><path d="m1513 646 31.5 21.3-25-21.3z" style="fill:#0d2241;fill-rule:nonzero" transform="translate(-1571.302 -783.886)scale(1.27)"/><g transform="translate(-1571.302 -783.886)scale(1.27)"><clipPath id="c"><path d="m1561.1 681.5-48-41h-158l-56.3 37-58.4 12.3-2 7 8.7 42.7h106.2l7.7-24.5h25l7.1 24.5h96.7l7.2-23.5h24l7.3 23.5h29.8l7-43z"/></clipPath><g clip-path="url(#c)"><path d="M1264 708h50l3-12h-58z" style="fill:#2a2b2a;fill-rule:nonzero"/></g></g><g transform="translate(-1571.302 -783.886)scale(1.27)"><clipPath id="d"><path d="m1561.1 681.5-48-41h-158l-56.3 37-58.4 12.3-2 7 8.7 42.7h106.2l7.7-24.5h25l7.1 24.5h96.7l7.2-23.5h24l7.3 23.5h29.8l7-43z"/></clipPath><g clip-path="url(#d)"><path d="M1549 691h18.4l-.7 5h-16.6z" style="fill:#ffedcc;fill-rule:nonzero"/></g></g><g transform="translate(-1571.302 -783.886)scale(1.27)"><clipPath id="e"><path d="m1561.1 681.5-48-41h-158l-56.3 37-58.4 12.3-2 7 8.7 42.7h106.2l7.7-24.5h25l7.1 24.5h96.7l7.2-23.5h24l7.3 23.5h29.8l7-43z"/></clipPath><g clip-path="url(#e)"><path d="M1550 696h20.2l-2 14H1553z" style="fill:#ad2024;fill-rule:nonzero"/></g></g><g transform="translate(-1571.302 -783.886)scale(1.27)"><clipPath id="f"><path d="m1561.1 681.5-48-41h-158l-56.3 37-58.4 12.3-2 7 8.7 42.7h106.2l7.7-24.5h25l7.1 24.5h96.7l7.2-23.5h24l7.3 23.5h29.8l7-43z"/></clipPath><g clip-path="url(#f)"><path d="M1320 710h38l1-14h-42z" style="fill:#ffedcc;fill-rule:nonzero"/></g></g><g transform="translate(-1571.302 -783.886)scale(1.27)"><clipPath id="g"><path d="m1561.1 681.5-48-41h-158l-56.3 37-58.4 12.3-2 7 8.7 42.7h106.2l7.7-24.5h25l7.1 24.5h96.7l7.2-23.5h24l7.3 23.5h29.8l7-43z"/></clipPath><g clip-path="url(#g)"><path d="m1260 710 5-2-6-12z" style="fill:#ee9b74;fill-rule:nonzero"/></g></g><g transform="translate(-1571.302 -783.886)scale(1.27)"><clipPath id="h"><path d="m1561.1 681.5-48-41h-158l-56.3 37-58.4 12.3-2 7 8.7 42.7h106.2l7.7-24.5h25l7.1 24.5h96.7l7.2-23.5h24l7.3 23.5h29.8l7-43z"/></clipPath><g clip-path="url(#h)"><path d="m1320 710-6-2 3-12z" style="fill:#ee9b74;fill-rule:nonzero"/></g></g><g transform="translate(-1571.302 -783.886)scale(1.27)"><clipPath id="i"><path d="m1561.1 681.5-48-41h-158l-56.3 37-58.4 12.3-2 7 8.7 42.7h106.2l7.7-24.5h25l7.1 24.5h96.7l7.2-23.5h24l7.3 23.5h29.8l7-43z"/></clipPath><g clip-path="url(#i)"><path d="M1222 710h38l-1-14h-40z" style="fill:#ffedcc;fill-rule:nonzero"/></g></g><g transform="translate(-1571.302 -783.886)scale(1.27)"><clipPath id="j"><path d="m1561.1 681.5-48-41h-158l-56.3 37-58.4 12.3-2 7 8.7 42.7h106.2l7.7-24.5h25l7.1 24.5h96.7l7.2-23.5h24l7.3 23.5h29.8l7-43z"/></clipPath><g clip-path="url(#j)"><path d="M1312 699.6h-47l1.8 4.4h44.1z" style="fill:#5b5e5e;fill-rule:nonzero"/></g></g><path d="m1410 677-5-12 11-3 10 3s0 8-3 8h-11l1 4z" style="fill:#e3e1dc;fill-rule:nonzero" transform="translate(-1571.302 -783.886)scale(1.27)"/><path d="M1408 673h4l-3.9-8.7-3.1.7z" style="fill:#c0bdba;fill-rule:nonzero" transform="translate(-1571.302 -783.886)scale(1.27)"/></svg>