<svg xmlns="http://www.w3.org/2000/svg" xml:space="preserve" width="225.658" height="214.019" viewBox="7.5 8.3 225.658 214.019"><title>mermain-swim-b</title><g fill-rule="nonzero"><g fill="#0a0806"><path d="M202.1 60.3c1.2-.1 2.3 1 2.3 2.5s-1 2.7-2 2.7-1.9-1.2-2.1-2.5.6-2.5 1.8-2.7"/><path d="M201.5 56.4c1.3-.3 2.6.7 2.7 2.3.1 1.5-.8 2.8-2 2.9s-2.3-1-2.5-2.3c-.3-1.4.5-2.7 1.8-2.9"/><path d="M200.4 52.2c.7-.2 1.4-.1 1.9.2.6.3 1 1 1.2 1.7.3 1.6-.6 3-1.8 3.2-1.3.2-2.5-.7-2.9-2-.2-.6-.1-1.3.2-1.8.2-.6.7-1 1.4-1.3"/><path d="M199.4 48.4c1.4-.3 2.8.6 3.1 1.9.1.7 0 1.3-.3 1.9s-.8 1.1-1.5 1.3-1.3.2-1.9-.2c-.6-.3-1.1-.9-1.3-1.7-.4-1.5.5-3 1.9-3.2M199.8 76.4c.2.1.2.5 0 .9s-.7 1-1.4 1.4c-1.3.8-2.6.9-2.6.9s.3-.1.7-.4.9-.7 1.3-1.2c.9-.9 1.6-1.8 2-1.6"/><path d="M201.4 72.8c.7.2.8 1.5 0 2.9s-2 2-2.2 1.8q-.15-.15 0-.9c.1-.5.3-1.1.5-1.7s.5-1.2.8-1.6c.2-.4.6-.6.9-.5"/><path d="M202.2 68.6c.9.1 1.5 1.4 1 2.9s-1.5 2.5-2.1 2.3-.8-1.5-.7-2.8c.1-1.5.8-2.5 1.8-2.4"/><path d="M202.4 64.6c1.1 0 1.9 1.2 1.7 2.7s-1.2 2.6-2 2.5-1.4-1.3-1.5-2.7.7-2.5 1.8-2.5M199.9 28.2c1.2.3 1.9 1.6 1.8 3-.2 1.4-1.3 2.4-2.7 2.2-1.3-.2-2.3-1.5-1.9-3s1.7-2.4 2.8-2.2"/><path d="M201 24.4c1 .3 1.6 1.7 1.3 3-.3 1.4-1.4 2.3-2.6 2-1.2-.2-1.9-1.6-1.5-3.1.5-1.4 1.8-2.2 2.8-1.9"/><path d="M202.9 20.6c.3.2.3.7.4 1.2 0 .5 0 1.2-.1 1.8q-.15.9-.9 1.5c-.4.4-1 .5-1.5.3-1-.3-1.6-1.6-.7-3.2.4-.7 1.1-1.2 1.7-1.5.4-.3.8-.3 1.1-.1"/><path d="M206.1 18.2s-.1 0-.2.1-.3.2-.4.4c-.3.4-.7 1-1 1.5-.4.6-.7 1-1.1 1.3-.4.2-.8.3-1.2.1s-.5-.7-.3-1.2.7-1.1 1.4-1.5 1.5-.5 2-.6c.5 0 .8-.1.8-.1M198.9 44.7c1.5-.1 2.8.8 3 2.2.2 1.3-.7 2.7-2.1 3s-2.9-.6-3.1-2.1c-.3-1.6.7-3 2.2-3.1"/><path d="M198.7 40.7c1.5 0 2.7 1.1 2.8 2.4s-1 2.6-2.4 2.8c-1.5.2-2.8-.9-3-2.4-.1-1.5 1.1-2.8 2.6-2.8"/><path d="M198.7 36.4c1.4.1 2.5 1.3 2.5 2.7s-1.1 2.5-2.6 2.6-2.7-1.1-2.7-2.7c.1-1.5 1.5-2.7 2.8-2.6"/><path d="M199.2 32.4c1.3.2 2.2 1.5 2.2 2.8-.1 1.4-1.2 2.4-2.7 2.4-1.4 0-2.6-1.3-2.3-2.9.1-1.4 1.5-2.5 2.8-2.3"/></g><g fill="#0a0806"><path d="M199.6 64.1c1.2-.1 2.2.7 2.2 1.8s-.9 2-2 2c-1 0-2-.8-2.1-1.8-.2-.9.7-1.9 1.9-2"/><path d="M199.3 61.2c1.3-.2 2.4.6 2.5 1.7 0 1.1-.9 2-2.1 2.1s-2.3-.6-2.4-1.7c-.3-1 .7-1.9 2-2.1"/><path d="M198.9 58.2c1.4-.2 2.6.5 2.7 1.6s-.9 2.1-2.2 2.2-2.5-.6-2.7-1.6c-.2-1.1.8-2.1 2.2-2.2"/><path d="M198.5 55.3c1.4-.2 2.7.5 2.8 1.5.1 1.1-.9 2.1-2.3 2.2-1.4.2-2.6-.5-2.8-1.5s.9-2 2.3-2.2M197.7 75.6c.4.2 0 1.2-1 1.7-.5.3-1 .4-1.4.5s-.6.1-.6.1.2 0 .5-.2.6-.6.9-.9c.6-.9 1.2-1.5 1.6-1.2"/><path d="M199.1 73.1c.7.3.7 1.3-.1 2.2s-1.7 1.3-1.9 1c-.2-.2 0-1.1.3-2 .3-1 1-1.5 1.7-1.2"/><path d="M199.8 70.1c.9 0 1.6 1 1.1 2.3-.3.7-.7 1-1.1 1.2s-.8.3-1 .1c-.3-.1-.4-.5-.5-.9 0-.2-.1-.4-.1-.7v-.6c0-.7.7-1.5 1.6-1.4"/><path d="M199.8 67.2c1.1-.1 1.9.8 1.8 1.9s-1.1 2-1.9 1.9-1.5-1-1.6-1.9c-.1-1 .6-1.9 1.7-1.9M196.8 40.7c1.2-.1 2.3.7 2.5 1.7s-.8 2-2.1 2.1c-1.4.1-2.5-.6-2.5-1.7-.1-1.1.9-2 2.1-2.1"/><path d="M196.6 37.8c1 0 2 .7 2.2 1.8.2 1-.7 1.9-2 2s-2.3-.7-2.2-1.8 1-2 2-2"/><path d="M196.6 34.7c.3 0 .7.2 1 .6.3.3.6.8.7 1.3.3 1-.5 1.9-1.7 1.9-1.1.1-2-.8-1.8-1.9.1-.5.4-1 .7-1.4.4-.3.7-.5 1.1-.5"/><path d="M196.7 31.8s0 .2.2.6.4.8.6 1.4c.2.5.2 1 0 1.3s-.5.6-1 .6c-.9 0-1.4-.9-.9-1.9.2-.5.5-1 .7-1.3.3-.5.4-.7.4-.7M198.2 52.6c1.5-.2 2.8.5 2.9 1.5s-1 2.1-2.4 2.2c-1.4.2-2.7-.5-2.9-1.5s.9-2 2.4-2.2"/><path d="M197.8 49.7c1.5-.2 2.8.5 2.9 1.5s-.9 2-2.4 2.2-2.8-.5-2.9-1.5c-.2-1 .9-2 2.4-2.2"/><path d="M197.4 46.7c1.4-.2 2.7.5 2.8 1.6.2 1-.9 2-2.4 2.2s-2.8-.5-2.9-1.6c0-1.1 1.1-2.1 2.5-2.2"/><path d="M197.1 43.8c1.3-.1 2.5.6 2.7 1.6s-.8 2-2.3 2.2c-1.4.2-2.7-.5-2.7-1.6-.1-1.1 1-2.1 2.3-2.2"/></g><g fill="#1c1411"><path d="M195.6 60.2c1.2-.1 2.3.8 2.4 2.1s-.6 2.5-1.6 2.7-2.2-.7-2.4-2.1c-.1-.7-.1-1.3.3-1.8.2-.5.7-.8 1.3-.9"/><path d="M195.3 56.4c1.3-.1 2.4.9 2.5 2.2s-.9 2.5-2 2.7c-1.2.2-2.3-.8-2.5-2.2-.3-1.4.7-2.6 2-2.7"/><path d="M195.1 52.4c1.4-.1 2.5 1 2.6 2.3 0 1.3-1 2.5-2.3 2.6s-2.5-.9-2.6-2.3c-.2-1.4.9-2.5 2.3-2.6"/><path d="M195 48.7c1.5 0 2.6 1 2.7 2.4 0 1.4-1.1 2.5-2.5 2.6s-2.6-1-2.7-2.4 1-2.6 2.5-2.6M199.6 75.1c.2-.1.5.1.8.4s.5.9.8 1.5.5 1.2.8 1.6c.2.4.4.6.4.6-.2-.2-.4-.3-.6-.5-.4-.3-.9-.7-1.3-1.2-1-1-1.3-2.2-.9-2.4"/><path d="M198.1 71.7c.7-.2 1.4.6 1.8 1.9.2.6.3 1.2.3 1.7.1.5 0 .8-.1.9-.3.2-1.2-.6-2-1.8-.3-.6-.6-1.2-.6-1.7.1-.5.3-.9.6-1"/><path d="M197 67.8c.9-.2 1.8.7 2 2s0 2.5-.5 2.8c-.3.1-.7 0-1.1-.4-.4-.3-.8-.9-1.1-1.5-.3-.7-.4-1.3-.2-1.8.1-.6.4-1 .9-1.1"/><path d="M196.2 64.1c1.1-.2 2.1.7 2.2 2 .2 1.3-.3 2.6-1.1 2.8s-1.8-.7-2.3-2 .1-2.6 1.2-2.8M195.5 29.6c1.2.2 2.1 1.4 2 2.7 0 1.3-1.2 2.3-2.5 2.2-1.4-.1-2.3-1.3-2.1-2.7.3-1.3 1.5-2.3 2.6-2.2"/><path d="M196.2 25.9c1 .2 1.7 1.5 1.6 2.8s-1.2 2.2-2.4 2.1-2.1-1.4-1.7-2.8c.1-.7.5-1.3 1-1.7.4-.3 1-.5 1.5-.4"/><path d="M197.3 22.1c.6.3 1 1.5.9 2.8-.1.6-.3 1.2-.7 1.5-.4.4-.9.5-1.5.4-1.1-.2-1.7-1.5-1.1-2.9.3-.7.8-1.2 1.2-1.5q.75-.45 1.2-.3"/><path d="M199 18.7c-.1 0-.3 1.2-.4 2.5-.1.7-.3 1.2-.6 1.6-.3.3-.7.5-1.1.4-.8-.2-1-1.6.1-2.7.2-.3.5-.5.7-.7.3-.2.5-.4.7-.5.5-.3.6-.6.6-.6M194.9 45.2c1.5 0 2.7 1.1 2.7 2.4s-1.2 2.5-2.6 2.5c-1.4.1-2.7-1-2.7-2.4-.1-1.4 1.1-2.5 2.6-2.5"/><path d="M194.8 41.4c1.5 0 2.7 1.1 2.7 2.4s-1.2 2.5-2.6 2.5c-1.5 0-2.7-1.1-2.7-2.4 0-1.4 1.2-2.5 2.6-2.5"/><path d="M194.9 37.4c1.4.1 2.6 1.2 2.6 2.5s-1.2 2.4-2.7 2.4-2.7-1.1-2.6-2.5 1.3-2.5 2.7-2.4"/><path d="M195.1 33.6c1.3.1 2.4 1.3 2.4 2.6s-1.2 2.4-2.6 2.3c-1.4 0-2.6-1.2-2.4-2.6.1-1.3 1.3-2.4 2.6-2.3"/></g><g fill="#261b17"><path d="M193.5 57.1c1.2-.3 2.4.6 2.5 2.1s-.8 2.7-1.8 2.7c-.5 0-1-.2-1.4-.6s-.8-.9-.9-1.5-.1-1.2.2-1.7c.4-.5.8-.9 1.4-1"/><path d="M192.5 53.5c.6-.2 1.3-.1 1.8.2.3.1.5.3.7.5.1.1.2.2.2.4.1.2.1.3.2.5.4 1.5-.4 2.9-1.6 3.1-.6.1-1.2 0-1.6-.4-.5-.3-.9-.8-1.1-1.3-.1-.1-.1-.3-.1-.4v-.5c0-.3.1-.7.2-.9.1-.6.6-1 1.3-1.2"/><path d="M191.7 49.6c.7-.1 1.4.1 1.9.4.5.4.8.9 1 1.5.2 1.2-.6 2.5-1.8 2.9s-2.7-.5-3-1.9c-.4-1.4.6-2.7 1.9-2.9"/><path d="M191.3 45.9c1.4-.1 2.7.9 2.8 2.1.1 1.3-.9 2.5-2.2 2.7s-2.7-.7-2.9-2.1.9-2.6 2.3-2.7M193.3 72.4c.5.1.4 1.2-.2 2.5l-.8 1.6-.3.6s.1-.3.1-.7c.1-.4.1-1.1.2-1.7.1-1.4.5-2.4 1-2.3"/><path d="M194 68.7c.7.1 1 1.3.5 2.6s-1.2 2.3-1.5 2.2c-.2 0-.3-.3-.3-.8-.1-.5-.1-1.1-.1-1.8.1-1.3.6-2.3 1.4-2.2"/><path d="M194.3 64.7c.9 0 1.5 1.2 1.2 2.6s-1.1 2.4-1.7 2.3-1-1.3-1.1-2.6c0-.7.1-1.2.4-1.6s.7-.7 1.2-.7"/><path d="M194.2 61c1.1-.1 2 1 1.9 2.4s-1 2.5-1.8 2.5c-.8-.1-1.5-1.2-1.7-2.4 0-.6 0-1.2.4-1.7.2-.4.7-.7 1.2-.8M192.5 27.1c1.2.3 2 1.5 1.9 2.8s-1.3 2.2-2.6 2.1c-1.4-.2-2.2-1.4-2-2.8.2-1.5 1.5-2.4 2.7-2.1"/><path d="M193.4 23.4c.5.2.9.5 1.2 1.1.3.5.4 1.2.3 1.8-.2 1.3-1.3 2.1-2.5 1.9s-2-1.5-1.6-2.9c.3-1.3 1.6-2.2 2.6-1.9"/><path d="M194.7 19.7c.6.3.9 1.6.7 2.8-.2 1.3-1.3 2-2.4 1.8-.5-.1-1-.5-1.1-1.1-.2-.5-.1-1.2.2-1.8s.9-1.1 1.3-1.4c.6-.3 1-.4 1.3-.3"/><path d="M196.8 16.6c-.1 0-.4 1.1-.6 2.5-.1.7-.4 1.1-.7 1.5-.3.3-.8.4-1.2.3-.4-.2-.6-.6-.6-1.1s.4-1.1.9-1.6 1.2-.9 1.6-1.1c.4-.3.6-.5.6-.5M191.2 42.4c1.5 0 2.7 1 2.7 2.3s-1 2.4-2.5 2.6c-1.4.2-2.8-.9-2.8-2.3-.1-1.4 1.1-2.6 2.6-2.6"/><path d="M191.2 38.7c1.5.1 2.6 1.1 2.7 2.4 0 1.3-1.2 2.4-2.6 2.5-1.5.1-2.7-1-2.7-2.4-.1-1.5 1.1-2.6 2.6-2.5"/><path d="M191.4 34.7c1.4.1 2.5 1.3 2.5 2.6s-1.2 2.3-2.7 2.3-2.7-1.2-2.6-2.6 1.4-2.4 2.8-2.3"/><path d="M191.8 31c.7.1 1.2.4 1.6.9s.7 1.1.6 1.8c-.1 1.3-1.3 2.3-2.7 2.2s-2.5-1.3-2.3-2.7 1.5-2.4 2.8-2.2"/></g><g fill="#30231d"><path d="M191.5 56.6c.9-.1 1.9.9 1.9 2.4.1 1.5-.7 2.7-1.5 2.7s-1.5-1.1-1.7-2.4c-.2-1.4.3-2.6 1.3-2.7"/><path d="M190.8 52.8c1-.3 2 .7 2.3 2.2.2 1.5-.5 2.7-1.4 2.8s-1.9-.9-2.1-2.2c-.4-1.3.1-2.6 1.2-2.8"/><path d="M189.9 48.7c1.1-.2 2.2.7 2.4 2 .3 1.3-.3 2.7-1.3 2.9s-2-.6-2.4-2c-.4-1.3.1-2.7 1.3-2.9"/><path d="M189.3 44.9c.6-.1 1.1.2 1.5.5.4.4.7 1 .8 1.6.2 1.3-.5 2.6-1.5 2.8-1.1.2-2.2-.7-2.5-2.2-.1-.7 0-1.4.3-1.9.3-.4.8-.7 1.4-.8M189.8 72.4c.3.1.1 1.3-.8 2.5-.4.6-.9 1.1-1.2 1.4-.1.1-.3.3-.5.6 0 0 .2-.2.4-.6s.5-1 .7-1.6c.5-1.5 1.1-2.5 1.4-2.3"/><path d="M191 68.7c.6.1.6 1.4 0 2.7-.3.7-.7 1.2-1 1.6s-.6.6-.7.5c-.2-.1 0-1.3.3-2.6.2-.7.4-1.2.6-1.6.3-.5.6-.7.8-.6"/><path d="M191.7 64.6c.3 0 .7.4.8.8.1.5.1 1.2-.1 1.9s-.5 1.3-.8 1.7-.6.6-.9.5c-.2-.1-.4-.4-.4-.9q-.15-.75 0-1.8c.1-1.2.7-2.3 1.4-2.2"/><path d="M191.9 60.7c.8 0 1.5 1.1 1.3 2.6-.1.7-.3 1.4-.6 1.8s-.7.7-1 .6c-.3 0-.6-.4-.8-.8-.2-.5-.4-1.1-.4-1.8 0-1.3.6-2.4 1.5-2.4M190.9 25.5c.9.3 1.3 1.6 1 2.9s-1.2 2.2-2.3 2c-1-.2-1.7-1.5-1.2-2.9.5-1.5 1.7-2.3 2.5-2"/><path d="M192.4 21.9c.4.2.6.6.7 1.1s.1 1.2-.1 1.8c-.4 1.3-1.4 2.1-2.3 1.8-1-.3-1.3-1.6-.7-3 .4-1.3 1.6-2.1 2.4-1.7"/><path d="M194.3 18.2c.2.1.3.5.3 1s-.1 1.2-.4 1.8c-.4 1.3-1.5 2-2.3 1.7s-.9-1.7-.1-2.9c.9-1.2 2.1-1.9 2.5-1.6"/><path d="M196.7 15.1s-.5 1.1-1 2.4c-.3.6-.6 1.2-.9 1.5-.4.3-.7.4-1 .2-.6-.3-.3-1.6.8-2.6.6-.5 1.1-.9 1.6-1.1.3-.2.5-.4.5-.4M189 41.3c1.2 0 2.1 1 2.3 2.3.1.7-.1 1.3-.4 1.8s-.8.8-1.3.9c-.6.1-1.1-.1-1.6-.5-.4-.4-.7-1.1-.8-1.8-.3-1.4.6-2.6 1.8-2.7"/><path d="M188.9 37.4c1.2 0 2 1.2 2.1 2.5s-.8 2.5-2 2.6-2.2-1-2.2-2.5 1-2.6 2.1-2.6"/><path d="M189.2 33.3c1.1.1 1.9 1.3 1.8 2.7-.1 1.3-1 2.4-2.2 2.4-1.1 0-2.1-1.2-2-2.7.3-1.5 1.3-2.6 2.4-2.4"/><path d="M189.9 29.5c1 .2 1.6 1.5 1.5 2.8-.1.7-.4 1.2-.8 1.6q-.6.6-1.5.6c-.6-.1-1-.4-1.4-.9-.3-.5-.4-1.2-.3-1.9s.5-1.3.9-1.7c.5-.5 1-.7 1.6-.5"/></g><g fill="#0a0806"><path d="M213.4 61.1c1.2.2 2 1.4 1.8 2.8s-1.2 2.5-2.2 2.5-1.9-1.3-1.9-2.8c0-1.6 1.1-2.7 2.3-2.5"/><path d="M214.2 57.2c1.3.3 2 1.6 1.7 3-.3 1.3-1.5 2.3-2.6 2.2-1.2-.1-2.1-1.5-1.9-3 .2-1.6 1.5-2.5 2.8-2.2"/><path d="M215.4 53.1c.7.2 1.2.7 1.4 1.3.3.6.3 1.2.1 1.8-.4 1.2-1.7 2.1-3 1.9-1.3-.3-2.1-1.7-1.7-3.2.2-.8.7-1.4 1.3-1.7.6-.2 1.3-.3 1.9-.1"/><path d="M216.6 49.3c1.4.3 2.3 1.8 1.8 3.3-.2.7-.8 1.3-1.4 1.6s-1.3.3-1.9.1c-.7-.2-1.1-.8-1.4-1.3-.3-.6-.4-1.2-.2-1.9.3-1.3 1.6-2.1 3.1-1.8M215.2 77.3c.4-.2 1.1.6 1.9 1.7.4.5.9 1 1.3 1.3s.7.4.7.4c0-.1-1.2-.1-2.5-1-.7-.4-1.1-1-1.3-1.4-.4-.5-.3-.9-.1-1"/><path d="M213.7 73.6c.3-.1.7.1 1 .5s.5 1 .7 1.6c.2.7.3 1.3.4 1.7.1.5.2.8 0 .9-.2.2-1.4-.5-2.2-1.9-.7-1.3-.6-2.7.1-2.8"/><path d="M213.1 69.4c.9-.1 1.6 1 1.7 2.4 0 1.4-.2 2.6-.8 2.8s-1.6-.8-2-2.3c-.4-1.6.2-2.9 1.1-2.9"/><path d="M213 65.4c1.1.1 1.8 1.2 1.7 2.6s-.8 2.6-1.6 2.7-1.8-1-1.9-2.6.8-2.8 1.8-2.7M216.8 29.2c1.2-.2 2.4.8 2.7 2.3s-.7 2.8-2 2.9c-1.4.1-2.5-.9-2.6-2.3s.7-2.7 1.9-2.9"/><path d="M215.9 25.2c1-.3 2.3.6 2.7 2.1s-.3 2.8-1.6 3-2.3-.8-2.6-2.1c-.1-1.3.5-2.7 1.5-3"/><path d="M214.1 21.4c.3-.2.7-.2 1.3.1.5.3 1.2.8 1.6 1.6.8 1.6.2 2.9-.9 3.2-.5.1-1.1 0-1.5-.4s-.7-.9-.8-1.5-.1-1.2-.1-1.8.1-1 .4-1.2"/><path d="M211 18.9s.3.1.8.1c.5.1 1.3.2 2 .7.7.4 1.2 1 1.4 1.5s0 1-.4 1.2-.8.1-1.2-.1-.7-.7-1-1.3-.6-1.2-1-1.6l-.4-.4c-.1-.1-.2-.1-.2-.1M217.2 45.6c1.5.2 2.5 1.6 2.2 3.1s-1.8 2.4-3.2 2-2.2-1.8-2-3.1 1.6-2.2 3-2"/><path d="M217.6 41.6c1.5.1 2.6 1.4 2.5 2.9-.2 1.5-1.6 2.6-3 2.3s-2.5-1.6-2.3-2.9c.1-1.3 1.4-2.3 2.8-2.3"/><path d="M217.7 37.4c1.4-.1 2.7 1.1 2.6 2.7 0 1.5-1.3 2.7-2.8 2.6s-2.6-1.3-2.5-2.7 1.3-2.6 2.7-2.6"/><path d="M217.4 33.4c1.3-.2 2.6.9 2.7 2.5.2 1.5-1 2.8-2.4 2.8-1.5 0-2.6-1.1-2.6-2.5s1-2.7 2.3-2.8"/></g><g fill="#0a0806"><path d="M215.8 65c1.2.2 2 1.1 1.8 2.1s-1.2 1.7-2.2 1.7c-1-.1-1.9-1-1.9-2.1.1-1.1 1.1-1.9 2.3-1.7"/><path d="M216.2 62.1c1.3.2 2.2 1.2 2 2.2s-1.3 1.7-2.5 1.6-2.1-1.1-2-2.2 1.2-1.8 2.5-1.6"/><path d="M216.7 59.1c1.4.2 2.3 1.3 2.1 2.3s-1.4 1.7-2.7 1.5-2.2-1.2-2.1-2.3 1.4-1.8 2.7-1.5"/><path d="M217.2 56.2c1.4.2 2.4 1.3 2.2 2.3s-1.5 1.7-2.9 1.4c-1.4-.2-2.4-1.3-2.2-2.3s1.5-1.6 2.9-1.4M217.4 76.6c.4-.3 1 .3 1.5 1.1.3.4.6.8.9 1s.5.2.5.2-.2 0-.6-.1-.9-.2-1.4-.5c-1-.6-1.3-1.5-.9-1.7"/><path d="M216 74c.7-.3 1.4.3 1.7 1.2.3 1 .5 1.8.2 2-.2.2-1.2-.2-1.9-1.1-.7-.8-.7-1.9 0-2.1"/><path d="M215.4 71c.9 0 1.6.8 1.6 1.6v.6c0 .2 0 .5-.1.7q-.15.6-.6.9c-.3.1-.7.1-1-.2-.4-.2-.8-.6-1-1.3-.5-1.4.2-2.3 1.1-2.3"/><path d="M215.5 68.1c1.1.1 1.8 1 1.7 1.9-.2 1-.9 1.8-1.7 1.9s-1.7-.8-1.8-1.9c-.2-1.2.7-2 1.8-1.9M219.5 41.7c1.2.1 2.1 1.1 2.1 2.2s-1.2 1.8-2.6 1.6-2.3-1.2-2.1-2.2 1.4-1.7 2.6-1.6"/><path d="M219.7 38.8c1 .1 1.9 1 1.9 2.1s-1.1 1.8-2.3 1.7c-1.2-.2-2.1-1.1-1.9-2.1.3-1 1.3-1.8 2.3-1.7"/><path d="M219.9 35.7c.3 0 .7.2 1 .6s.6.9.7 1.4c.2 1.1-.8 1.9-1.9 1.8s-1.9-1-1.6-2c.1-.5.5-1 .8-1.3s.7-.5 1-.5"/><path d="M219.9 32.8s0 .2.2.6c.2.3.5.8.7 1.4.4 1.1-.1 1.9-1 1.9-.4 0-.8-.2-.9-.6-.2-.3-.1-.8.1-1.3s.5-1 .7-1.3c.2-.5.2-.7.2-.7M217.7 53.6c1.5.2 2.5 1.3 2.3 2.3s-1.5 1.7-2.9 1.4c-1.4-.2-2.4-1.3-2.3-2.3.1-1.1 1.4-1.7 2.9-1.4"/><path d="M218.2 50.7c1.4.2 2.5 1.3 2.3 2.3s-1.5 1.7-3 1.4-2.5-1.3-2.3-2.3 1.5-1.6 3-1.4"/><path d="M218.7 47.6c1.4.2 2.4 1.2 2.3 2.3s-1.5 1.7-2.9 1.5c-1.5-.2-2.5-1.3-2.3-2.3s1.5-1.7 2.9-1.5"/><path d="M219.1 44.8c1.3.2 2.3 1.2 2.2 2.3s-1.4 1.7-2.8 1.5-2.4-1.2-2.2-2.3c.2-1 1.5-1.7 2.8-1.5"/></g><g fill="#1c1411"><path d="M219.9 61.2c.6.1 1.1.4 1.4 1 .3.5.4 1.2.2 1.9-.3 1.4-1.5 2.3-2.5 2-1-.2-1.6-1.5-1.5-2.8.2-1.3 1.2-2.3 2.4-2.1"/><path d="M220.4 57.5c1.3.1 2.3 1.4 2 2.8s-1.4 2.3-2.6 2.1c-1.1-.2-2-1.4-1.9-2.7.1-1.4 1.2-2.3 2.5-2.2"/><path d="M220.8 53.5c1.4.1 2.4 1.3 2.2 2.7s-1.4 2.4-2.7 2.2-2.3-1.3-2.2-2.7c.1-1.3 1.2-2.3 2.7-2.2"/><path d="M221 49.7c1.5.1 2.5 1.3 2.4 2.6-.1 1.4-1.4 2.4-2.8 2.3s-2.4-1.3-2.4-2.6c.1-1.3 1.4-2.4 2.8-2.3M215.4 76c.4.2.1 1.3-1 2.3-.5.5-1 .9-1.4 1.2-.2.1-.4.3-.6.4 0 0 .2-.2.5-.6s.5-.9.8-1.5q.45-.9.9-1.5c.4-.2.6-.4.8-.3"/><path d="M217 72.6c.3.1.5.5.5 1s-.3 1.1-.6 1.7c-.8 1.2-1.8 1.9-2 1.7-.1-.1-.1-.4-.1-.9.1-.5.2-1.1.4-1.7.4-1.2 1.2-2 1.8-1.8"/><path d="M218.3 68.8c.4.1.8.5.9 1s0 1.2-.3 1.8-.7 1.2-1.1 1.5-.8.5-1.1.3c-.6-.3-.7-1.5-.4-2.8.2-1.2 1.1-2 2-1.8"/><path d="M219.2 65.2c1.1.2 1.6 1.5 1.1 2.8s-1.6 2.2-2.4 1.9-1.2-1.5-1-2.8 1.3-2.2 2.3-1.9M221.1 30.7c1.2-.1 2.3.9 2.5 2.3s-.8 2.6-2.2 2.6-2.5-1-2.4-2.3c0-1.3.9-2.5 2.1-2.6"/><path d="M220.6 27c.5-.1 1 .1 1.5.5s.8 1 .9 1.7c.3 1.4-.6 2.6-1.8 2.7-1.3.1-2.3-.9-2.3-2.2-.1-1.3.7-2.5 1.7-2.7"/><path d="M219.6 23.1c.3-.1.7 0 1.2.4.5.3.9.9 1.2 1.6.6 1.4-.1 2.7-1.2 2.8-.5.1-1.1-.1-1.5-.5s-.6-.9-.7-1.6c0-1.2.4-2.5 1-2.7"/><path d="m218 19.7.5.5c.2.2.4.3.7.5.2.2.5.5.7.8 1 1.2.8 2.5 0 2.7-.4.1-.8 0-1.1-.4s-.4-.9-.5-1.6c0-1.4-.2-2.6-.3-2.5M221.2 46.2c1.5.1 2.6 1.3 2.5 2.6-.1 1.4-1.4 2.4-2.8 2.3s-2.5-1.3-2.5-2.6c.1-1.3 1.3-2.3 2.8-2.3"/><path d="M221.4 42.5c1.5 0 2.6 1.2 2.6 2.6-.1 1.4-1.3 2.4-2.8 2.3s-2.6-1.2-2.6-2.6c.1-1.3 1.3-2.4 2.8-2.3"/><path d="M221.5 38.5c1.4 0 2.6 1.1 2.6 2.5s-1.2 2.5-2.7 2.4-2.6-1.2-2.6-2.5c.1-1.3 1.2-2.4 2.7-2.4"/><path d="M221.4 34.7c1.3-.1 2.5 1 2.6 2.4s-1.1 2.5-2.5 2.5c-1.5 0-2.6-1.1-2.5-2.4 0-1.3 1.1-2.4 2.4-2.5"/></g><g fill="#261b17"><path d="M222.1 58.2c.6.2 1 .6 1.3 1.1s.3 1.1.2 1.7-.5 1.1-.9 1.5-.9.6-1.4.6c-1-.1-1.9-1.3-1.7-2.8.2-1.6 1.4-2.5 2.5-2.1"/><path d="M223.3 54.7c.6.2 1.1.6 1.4 1.2.1.3.2.6.2 1 0 .2 0 .3-.1.5 0 .1-.1.3-.1.4-.2.6-.7 1-1.2 1.3s-1.1.4-1.7.3c-1.1-.3-1.9-1.7-1.4-3.1.1-.2.1-.4.2-.5s.1-.2.2-.4c.2-.2.4-.4.7-.5.5-.3 1.2-.4 1.8-.2"/><path d="M224.2 50.8c1.4.2 2.3 1.6 1.9 3s-1.8 2.2-3.1 1.8c-1.2-.4-1.9-1.7-1.7-2.9.1-.6.5-1.1 1-1.5s1.2-.5 1.9-.4"/><path d="M224.7 47.1c1.5.1 2.5 1.4 2.2 2.8s-1.6 2.3-3 2c-1.3-.3-2.3-1.5-2.1-2.8s1.5-2.2 2.9-2M221.8 73.5c.5-.1.8.9.9 2.3.1.7.1 1.3.1 1.7s.1.7.1.7-.1-.3-.3-.7l-.8-1.6c-.4-1.2-.4-2.3 0-2.4"/><path d="M221.3 69.8c.7-.1 1.2 1 1.3 2.3 0 .7 0 1.3-.1 1.8s-.2.8-.4.8c-.3.1-1-.9-1.4-2.3s-.1-2.5.6-2.6"/><path d="M221.1 65.8c.4 0 .9.3 1.1.7.3.4.4 1 .4 1.7-.1 1.3-.6 2.4-1.2 2.5s-1.4-1-1.6-2.4c-.3-1.3.4-2.5 1.3-2.5"/><path d="M221.3 62.1c.5.1 1 .4 1.3.8.3.5.4 1 .3 1.7-.2 1.3-.9 2.3-1.8 2.4-.8 0-1.7-1.1-1.7-2.5-.1-1.5.9-2.6 1.9-2.4M224.3 28.2c1.2-.2 2.4.7 2.7 2.1.2 1.4-.7 2.6-2.1 2.7s-2.5-.9-2.6-2.2c-.1-1.1.8-2.4 2-2.6"/><path d="M223.5 24.6c1-.3 2.2.6 2.6 2s-.4 2.6-1.7 2.8-2.3-.7-2.5-2c-.1-.6.1-1.3.3-1.8.4-.5.8-.9 1.3-1"/><path d="M222.3 20.8q.45-.15 1.2.3c.4.3 1 .8 1.3 1.5s.3 1.3.1 1.8-.6.9-1.2 1c-1.1.2-2.2-.6-2.3-1.9-.1-1.1.3-2.4.9-2.7"/><path d="M220.4 17.6s.2.2.6.5 1.1.6 1.5 1.2c.5.6.9 1.1.8 1.6 0 .5-.2.9-.6 1s-.8 0-1.1-.3q-.45-.45-.6-1.5c-.2-1.4-.6-2.6-.6-2.5M225 43.6c1.5.1 2.6 1.3 2.5 2.7s-1.5 2.4-2.9 2.2-2.4-1.4-2.4-2.7c.1-1.3 1.3-2.3 2.8-2.2"/><path d="M225.1 39.9c1.5 0 2.7 1.1 2.6 2.6-.1 1.4-1.3 2.5-2.8 2.3-1.5-.1-2.6-1.3-2.6-2.6.2-1.3 1.4-2.3 2.8-2.3"/><path d="M225.1 35.9c1.4-.1 2.6 1 2.7 2.4 0 1.4-1.2 2.5-2.7 2.5s-2.6-1.1-2.6-2.4 1.2-2.4 2.6-2.5"/><path d="M224.8 32.2c1.3-.1 2.6.9 2.7 2.3.2 1.4-1 2.6-2.4 2.6-1.5 0-2.6-1-2.6-2.3 0-.7.3-1.3.7-1.7.4-.5.9-.9 1.6-.9"/></g><g fill="#30231d"><path d="M224.2 57.8c1 .2 1.4 1.4 1.2 2.7-.3 1.3-1 2.4-1.8 2.4s-1.5-1.2-1.4-2.7c.1-1.6 1.1-2.6 2-2.4"/><path d="M225.1 54c1 .3 1.5 1.6 1.1 2.8-.3 1.3-1.3 2.2-2.2 2.1s-1.5-1.4-1.3-2.9c.3-1.4 1.4-2.3 2.4-2"/><path d="M226.1 50c1.1.2 1.6 1.6 1.2 3s-1.5 2.2-2.5 2-1.5-1.7-1.2-3c.3-1.4 1.5-2.2 2.5-2"/><path d="M226.8 46.2c.6.1 1 .5 1.3 1s.3 1.2.2 1.9c-.3 1.4-1.5 2.3-2.5 2.1-1-.3-1.6-1.6-1.4-2.9.1-.7.5-1.2.9-1.6s1-.6 1.5-.5M225.3 73.6c.3-.1.9.9 1.3 2.2.2.7.5 1.3.7 1.7s.4.7.4.7c-.2-.2-.4-.4-.5-.6-.3-.4-.7-.8-1.1-1.5-.9-1.2-1.1-2.4-.8-2.5"/><path d="M224.2 69.9c.3-.1.5.2.8.6.2.4.4 1 .6 1.7.2 1.4.4 2.5.2 2.6-.1.1-.4-.2-.7-.5-.3-.4-.7-.9-.9-1.6-.6-1.5-.5-2.7 0-2.8"/><path d="M223.7 65.8c.7 0 1.3 1 1.3 2.4.1.7 0 1.3-.1 1.8s-.2.8-.5.9c-.2.1-.5-.2-.8-.6s-.6-1-.8-1.8c-.1-.7-.1-1.4 0-1.9.2-.5.5-.8.9-.8"/><path d="M223.7 61.9c.9.1 1.4 1.2 1.3 2.5 0 .7-.2 1.3-.4 1.8s-.5.8-.8.8-.7-.2-1-.7q-.45-.75-.6-1.8c-.1-1.5.6-2.7 1.5-2.6M225.9 26.7c.9-.3 2 .6 2.4 2.1.4 1.4-.3 2.7-1.3 2.9-1.1.2-2-.8-2.3-2.1-.2-1.4.3-2.6 1.2-2.9"/><path d="M224.6 23c.8-.3 1.9.5 2.5 1.9.5 1.4.1 2.7-.9 3-.9.2-2-.6-2.3-1.9-.2-.6-.2-1.3-.1-1.8.2-.6.4-1 .8-1.2"/><path d="M222.7 19.3c.4-.3 1.6.4 2.4 1.7s.6 2.6-.2 2.9-1.8-.5-2.2-1.8c-.2-.6-.3-1.3-.3-1.8s.1-.8.3-1"/><path d="M220.5 16.2s.2.2.6.5 1 .7 1.5 1.2c1.1 1 1.3 2.3.7 2.6-.3.2-.7 0-1-.3-.4-.3-.6-.9-.9-1.5-.4-1.5-.8-2.6-.9-2.5M227.3 42.6c1.2.1 2 1.4 1.8 2.8-.1.7-.4 1.3-.9 1.7s-1 .6-1.6.5-1-.5-1.3-1-.5-1.2-.4-1.8c.2-1.3 1.2-2.3 2.4-2.2"/><path d="M227.5 38.7c1.1 0 2.1 1.2 2 2.7s-1.2 2.6-2.3 2.4c-1.1-.1-2-1.3-1.9-2.7.1-1.3 1-2.4 2.2-2.4"/><path d="M227.3 34.6c1.1-.1 2.1 1 2.2 2.5s-.9 2.6-2.1 2.6-2-1.2-2.1-2.5c.1-1.4.9-2.5 2-2.6"/><path d="M226.8 30.7c.5-.1 1 .1 1.5.5.4.4.8 1 .9 1.8.1.7 0 1.4-.3 1.9s-.8.8-1.4.9q-.9 0-1.5-.6c-.4-.4-.7-1-.7-1.7-.2-1.4.5-2.6 1.5-2.8"/></g><path fill="#9b5c3d" d="M222.9 149.5s3.3.5 6.1 4.8c1.9 2.9 4.3 4.6 3.5 5.3-1.5 1.3-4.3-3.3-4.3-3.3s1.5 4.6 1.9 6.1.8 4.5.3 5c-.9.8-1.3-1-2.1-4.2 0 0 .4 2.7.2 4.2-.2 1.3-1.2 2.1-1.9.5 0 0-.2 2.7-2.1.1 0 0-1.4 1.8-2.5-4.9-.5-2.8-7.8-12.5.9-13.6"/><path fill="#75402c" d="M224.5 168.2s0-.5-.2-1.2c-.1-.7-.3-1.7-.5-2.7s-.4-1.9-.5-2.7c-.1-.7-.2-1.2-.2-1.2s.2.4.5 1.1.6 1.7.7 2.7c.2 1 .2 2 .2 2.8.1.7 0 1.2 0 1.2M226.8 168.4s-.1-.5-.2-1.3-.3-1.8-.5-2.8-.4-2.1-.6-2.8c-.1-.4-.1-.7-.2-.9 0-.2-.1-.4-.1-.4s.3.5.6 1.2.7 1.8.8 2.8c.2 1.1.3 2.1.2 2.9.1.8 0 1.3 0 1.3M228.6 165.3s-.1-.4-.3-1-.3-1.4-.5-2.2-.3-1.6-.4-2.2c-.1-.3-.1-.6-.1-.7v-.3s.3.3.5.9c.3.6.5 1.4.7 2.2s.2 1.6.2 2.2c0 .7-.1 1.1-.1 1.1M224 150s.1-.1.3-.1.5.1.8.2c.6.3 1.3.8 1.9 1.4s1.1 1.3 1.5 1.8c.3.6.5.9.5.9s-.3-.3-.8-.7-1-1-1.6-1.6-1.2-1.2-1.7-1.5c-.2-.2-.5-.3-.6-.4zM228.2 156.3s-.3.2-.9.3c-.5.1-1.3 0-2-.3-.3-.2-.7-.4-.9-.6-.3-.2-.5-.5-.7-.7s-.3-.4-.4-.6c-.1-.1-.1-.2-.1-.2s.1 0 .2.1.3.2.5.4.5.3.7.5c.3.2.6.3.9.4.6.3 1.2.4 1.7.5.7.2 1 .2 1 .2"/><path fill="#9b5c3d" d="M220.9 111.6c2.6 4.6 3.1 16.3 3.3 24.4.1 5.2.9 14.5.9 14.5-1.3 2-3.4 1.6-5.3 1 0 0-1.2-4.1-3.5-12-2.5-8.5-4.5-23.8-2.8-26.6 2-3.4 6.1-3.6 7.4-1.3"/><path fill="#75402c" d="M222.2 114.8s.4 1.5.9 3.8c.2 1.2.5 2.5.6 4 .2 1.5.4 3 .5 4.6s.2 3.1.2 4.6v4c0 1.2-.1 2.2-.2 2.8-.1.7-.1 1.1-.1 1.1s0-1.6-.1-3.9c0-1.2-.1-2.5-.2-4s-.2-3-.3-4.6-.2-3.1-.4-4.6-.3-2.8-.4-4c-.2-2.2-.5-3.8-.5-3.8M219.7 151s-.2-.5-.5-1.3c-.3-.9-.8-2.1-1.3-3.6s-1.1-3.3-1.6-5.2-1-4-1.5-6c-.4-2.1-.8-4.2-1.1-6.1-.2-1-.3-1.9-.4-2.8s-.2-1.8-.3-2.5c-.2-1.6-.2-2.9-.2-3.8v-1.5s.1.5.2 1.4c0 .5.1 1 .2 1.7.1.6.2 1.4.3 2.1.2 1.6.5 3.4.8 5.3s.7 4 1.2 6.1c.4 2.1.9 4.1 1.4 6s1 3.7 1.4 5.2c.8 3 1.4 5 1.4 5"/><path fill="#9b5c3d" d="M228.9 89.4c3-16.8-3.9-27-11.6-16.2-5.4 7.5-6.7 51.1.3 48.4 7.1-2.6 9.4-21.4 11.3-32.2"/><path fill="#75402c" d="M229.3 85.1s0 1.4-.1 3.4c-.1 1-.2 2.2-.3 3.4l-.6 3.9c-.2 1.3-.5 2.7-.8 3.9s-.6 2.4-.8 3.4c-.5 2-1 3.2-1 3.2s.1-.3.2-.9.3-1.4.4-2.4c.2-1 .4-2.1.6-3.4.2-1.2.5-2.6.7-3.9s.5-2.6.6-3.9c.2-1.2.4-2.4.5-3.4.4-2 .6-3.3.6-3.3M219.5 70.5s-.2 0-.4.2-.5.5-.8.9-.6 1-.9 1.7-.6 1.5-.9 2.3c-.2.9-.5 1.8-.7 2.8-.1.5-.2 1-.3 1.6-.1.5-.2 1.1-.3 1.7-.2 1.1-.4 2.3-.5 3.5-.2 1.2-.3 2.4-.4 3.6s-.3 2.4-.4 3.6-.2 2.4-.3 3.5c-.2 2.3-.3 4.4-.4 6.2-.2 3.7-.4 6.1-.4 6.1v-6.1c0-.9.1-1.9.1-3 0-1 .1-2.2.1-3.3.1-1.1.2-2.3.3-3.5l.3-3.6c.1-1.2.3-2.4.5-3.6s.3-2.4.6-3.5c.1-.6.2-1.1.3-1.7.1-.5.3-1.1.4-1.6.2-1 .6-2 .8-2.8.3-.9.6-1.7 1-2.3.3-.7.7-1.2 1-1.6s.7-.7.9-.8c.2-.3.4-.3.4-.3"/><path fill="#9b5c3d" d="M202.2 49.3s.8 9.1-2.3 11.2-17.1 4.3-17.1 4.3-9.5 3.1-5.7 23.7c.7 3.8 2.5 11.2.5 14.2-1.2 1.8-7.5 12.3-5.6 15.1 12.8 18.7 32.1 20.2 43.6 7.3 2.3-2.6.2-11.3-.2-16.3-.3-3.1 4.6-11.4 6.7-17.4 3.7-10.5 1.8-22.7 1.8-22.7s-8.4-2.8-9.9-4.6-.3-7.5-.3-7.5-4.6-9.1-11.5-7.3"/><path fill="#75402c" d="M202.1 54.4s0 .3-.1.8-.1 1.2-.3 2c-.1.4-.2.9-.4 1.3-.2.5-.3 1-.6 1.4-.2.2-.3.5-.6.7-.1.1-.1.1-.2.1l-.2.1c-.1.1-.2.1-.4.2-.5.2-1.1.4-1.6.6-1.1.3-2.2.6-3.2.9s-2 .5-2.8.6c-1.7.3-2.8.5-2.8.5s1.1-.3 2.7-.8c.8-.2 1.8-.5 2.8-.8s2.1-.6 3.2-1c.5-.2 1.1-.4 1.5-.6.2-.1.6-.2.7-.4.2-.1.3-.3.5-.5.5-.8.9-1.8 1.1-2.6s.4-1.5.5-2c.1-.2.2-.5.2-.5M204.8 68.2s-.5-.1-1.3-.3-1.7-.5-2.7-.8-2-.6-2.7-.9q-.6-.15-.9-.3c-.2-.1-.3-.1-.3-.1s.5 0 1.3.1 1.8.3 2.8.7c1 .3 2 .7 2.7 1.1.7.2 1.1.5 1.1.5M217.9 68.9s-.5.1-1.2.2-1.7.1-2.6.2h-3.8s.5-.2 1.2-.3 1.7-.3 2.6-.3c1 0 1.9 0 2.6.1.8-.1 1.2.1 1.2.1M172.2 112.8s.1-.4.3-1 .6-1.5 1.1-2.5 1.2-2.2 1.9-3.4c.3-.6.7-1.3 1-1.9.3-.7.7-1.3 1-2 .5-1.4.6-2.9.6-4.3s-.1-2.7-.2-3.8c-.2-2.3-.5-3.8-.5-3.8s.4 1.5.8 3.7c.2 1.1.4 2.4.4 3.9 0 1.4 0 3-.5 4.5-.3.8-.7 1.4-1 2.1-.4.6-.7 1.3-1.1 1.9-.7 1.2-1.4 2.3-2 3.3s-1.1 1.8-1.3 2.4c-.3.5-.5.9-.5.9M216.5 121.2v-1c-.1-.6-.2-1.5-.4-2.5s-.4-2.3-.7-3.6c-.2-1.3-.5-2.7-.5-4.2 0-.4 0-.7.1-1.1.1-.3.1-.7.2-1.1.2-.7.3-1.4.5-2 .4-1.3.9-2.4 1.3-3.4.9-2 1.8-3.1 1.8-3.1s-.7 1.2-1.5 3.2c-.4 1-.8 2.2-1.1 3.4-.2.6-.3 1.3-.5 2-.1.3-.1.7-.2 1v1c0 1.4.2 2.8.4 4.1s.3 2.6.5 3.6c.1 1.1.2 2 .2 2.6 0 .3 0 .6-.1.7zM206.4 120.9s-.1.2-.2.5-.3.6-.4 1-.3.7-.4 1c-.1.1-.1.3-.2.4 0 .1-.1.1-.1.1s-.1-.2-.1-.6c0-.3 0-.8.2-1.2s.5-.8.7-1c.2-.1.5-.2.5-.2M213.5 116.1s.3.8.5 2 .4 2.9.3 4.6c0 .4-.1.8-.2 1.3 0 .4-.2.8-.3 1.2s-.3.7-.4 1.1c-.2.3-.4.6-.5.9-.2.3-.4.5-.6.7s-.4.3-.5.4c-.3.2-.5.3-.5.3s.1-.2.4-.4c.1-.1.3-.3.4-.5s.3-.4.4-.7.3-.6.4-.9.2-.7.3-1c.2-.7.3-1.5.4-2.3s.1-1.6.1-2.4-.1-1.5-.1-2.1c0-1.4-.1-2.2-.1-2.2"/><path fill="#ed7d2d" d="M211.1 98.1c-4 1.5-11 8.8-33.5-5.2 0 0-1.2-1.6-1.3-7.1 0 0 39.6 0 47.7-4 0 0 .1 1.7-1 4s-7.9 10.8-11.9 12.3"/><path fill="#b05b1e" d="m183.5 96.2 1 .5c.6.3 1.5.7 2.6 1.2.6.2 1.1.5 1.8.7.6.2 1.3.5 2 .7s1.4.4 2.2.6c.7.2 1.5.3 2.3.5.8.1 1.5.3 2.3.4s1.5.2 2.3.2c.7 0 1.4.1 2.1 0s1.3-.1 1.9-.2 1.1-.2 1.6-.3q.75-.15 1.2-.3c.7-.2 1-.3 1-.3s-.4.2-1 .4c-.3.1-.7.3-1.2.5-.5.1-1 .3-1.6.4-.6.2-1.2.2-1.9.3s-1.4.1-2.2.1-1.5-.1-2.3-.1l-2.4-.3c-.8-.2-1.6-.3-2.3-.6-.8-.2-1.5-.4-2.2-.7-.7-.2-1.4-.5-2-.8s-1.2-.5-1.8-.8c-2.1-1.1-3.4-2.1-3.4-2.1"/><path fill="#ed9939" d="M223.7 83.9s4.7 7.8-2.9 15.1c-7.5 7.3-20.1-5.7-24.5-9.6s-15.2-3-20.1-3.4c0 0-.6-1.3-.2-3.4 0 0 11.1-5.2 23.7-1.9 7.4 2 24 3.2 24 3.2"/><path fill="#b05b1e" d="M223.6 95.3s-.3.6-.9 1.5c-.7.9-1.7 2.2-3.3 3.3-.8.5-1.8 1-3 1.1-1.1.2-2.4 0-3.5-.2-2.4-.5-4.8-1.6-7.1-3-2.2-1.4-4.3-3-6-4.8-.9-.9-1.6-1.8-2.4-2.6q-1.2-1.2-2.4-1.8c-1.7-1-3.2-1.5-4.3-1.7-1.1-.3-1.7-.4-1.7-.4s.6 0 1.8.2c1.1.2 2.7.6 4.4 1.5.9.5 1.8 1.1 2.6 1.8.8.8 1.5 1.7 2.4 2.5 1.7 1.7 3.7 3.3 5.9 4.6 2.2 1.4 4.5 2.5 6.8 3 1.2.3 2.3.5 3.4.3 1.1-.1 2-.5 2.9-1 1.6-1 2.7-2.2 3.4-3.1.7-.6 1-1.2 1-1.2M220.8 83.7s-1.3 0-3.3-.2c-1-.1-2.2-.1-3.4-.3-1.2-.1-2.6-.3-3.9-.4-1.3-.2-2.6-.4-3.9-.5-1.2-.2-2.4-.4-3.4-.6s-1.8-.4-2.3-.6c-.3-.1-.5-.2-.6-.2-.1-.1-.2-.1-.2-.1s.3.1.9.2 1.4.2 2.4.4c1 .1 2.1.3 3.4.4 1.2.2 2.6.3 3.9.4 1.3.2 2.6.3 3.9.5 1.2.1 2.4.3 3.4.4s1.8.3 2.4.4c.4.1.7.2.7.2"/><path fill="#9b5c3d" d="M203 36.7s-1-6.4-5.5-4.6-4.5 9.3 0 11.7"/><path fill="#75402c" d="M197 34.5s.1-.1.3-.2.5-.3.9-.3c.2 0 .4 0 .7.1.1.1.2.1.3.2l.3.3c.2.2.3.4.5.6.1.2.2.5.3.7.1.3.1.5.2.8 0 .2.1.5.1.7v1.3c-.1.7-.2 1.2-.2 1.2s-.1-.5-.2-1.2c-.1-.4-.1-.8-.2-1.2 0-.2-.1-.4-.1-.7 0-.2-.1-.5-.2-.7 0-.2-.1-.4-.2-.6s-.2-.4-.3-.5l-.2-.2-.2-.2c-.2-.1-.3-.1-.5-.2-.3 0-.6 0-.8.1-.4-.1-.5 0-.5 0"/><path fill="#75402c" d="M200 36.6s-.3 0-.6.1q-.6.15-1.2.6c-.2.1-.4.3-.5.4l-.5.5c-.1.1-.2.3-.3.3l-.1.1v-.2c0-.1 0-.3.1-.5.1-.4.5-.9.9-1.2.2-.2.5-.3.8-.4s.5-.1.7-.1c.5.3.7.4.7.4"/><path fill="#9b5c3d" d="M138.6 129s-.2 3.3-4.2 6.5c-2.7 2.2-4.2 4.7-5 4-1.5-1.3 2.9-4.6 2.9-4.6s-4.7 2-5.7 3.7c-.8 1.3-2.9 2.6-3.5 2.2s1.6-3.2 3-4.9c0 0-1.9 1.9-3.2 2.7-1.4.9-2.1.8-1.3-1 0 0-2.8.6.7-3.5 0 0-1-.6 1-2.6 2.1-1.9 13.4-11.1 15.3-2.5"/><path fill="#75402c" d="M123.2 140s0-.1.1-.4c.1-.2.2-.6.4-1s.5-.8.8-1.3c.3-.4.7-.9 1.2-1.3.9-.8 1.8-1.5 2.6-1.9.4-.2.7-.4.9-.5l.4-.2-.3.3c-.2.2-.5.4-.8.7s-.7.6-1.1 1-.8.7-1.2 1.1c-.8.8-1.6 1.6-2.1 2.3-.6.7-.9 1.2-.9 1.2M121.6 137.6s.2-.5.6-1.2c.2-.4.5-.8.8-1.1.3-.4.7-.8 1.1-1.2.8-.7 1.7-1.4 2.5-1.7.7-.4 1.2-.6 1.2-.6s-.1.1-.3.2c-.2.2-.4.4-.8.6-.3.3-.7.6-1.1.9s-.8.7-1.2 1c-.8.7-1.5 1.5-2.1 2.1-.4.6-.7 1-.7 1M122.3 134.1s.2-.4.6-.8c.4-.5.9-1.1 1.6-1.6.6-.5 1.3-1 1.9-1.3s1-.4 1-.4l-.2.2-.5.5c-.5.4-1 .9-1.7 1.5-.6.5-1.2 1-1.7 1.4zM138.2 130.1s.1.1.1.3 0 .5-.1.8c-.2.6-.7 1.4-1.2 2.1s-1.2 1.2-1.7 1.6-.9.6-.9.6.2-.4.6-.9q.6-.75 1.5-1.8c.5-.6 1-1.3 1.4-1.8.2-.3.3-.5.3-.7z"/><path fill="#9b5c3d" d="M165.9 102.9c-2 4.9-10.8 12.6-17 17.8-4 3.3-10.7 9.7-10.7 9.7-2.3.2-3.3-1.7-4.1-3.6 0 0 2.4-3.5 7.2-10.2 5.1-7.3 15.7-18.4 19-18.8 3.8-.5 6.6 2.7 5.6 5.1"/><path fill="#75402c" d="M164.2 105.9s-.9 1.3-2.4 3.1q-1.2 1.35-2.7 3c-1 1.1-2.1 2.2-3.3 3.2-1.2 1.1-2.3 2.1-3.5 3.1-.6.5-1.1.9-1.6 1.3l-1.5 1.2c-.9.7-1.8 1.3-2.3 1.7l-.9.6 3-2.5c.9-.7 1.9-1.7 3-2.6 1.1-1 2.3-2 3.4-3.1 1.2-1.1 2.3-2.1 3.3-3.2l2.8-2.8c1.7-1.9 2.7-3 2.7-3M134.4 126.5s.2-.5.7-1.3 1.1-1.9 2-3.3c.9-1.3 1.9-2.9 3.1-4.5s2.4-3.3 3.8-4.9c1.3-1.6 2.7-3.2 4.1-4.7.7-.7 1.3-1.4 2-2.1.6-.6 1.2-1.3 1.8-1.8 1.1-1.1 2.1-2 2.9-2.6.7-.6 1.1-.9 1.1-.9l-1 1-1.2 1.2c-.4.5-.9 1-1.5 1.6-1.1 1.1-2.3 2.5-3.7 4-1.3 1.5-2.7 3.1-4 4.7s-2.6 3.3-3.8 4.9-2.3 3.1-3.2 4.3c-2 2.7-3.1 4.4-3.1 4.4"/><path fill="#9b5c3d" d="M183.2 83c2.4-4.2 11.1-22.4-1.5-18-12.1 4.2-29.9 41.8-22.4 42.4s18.4-15 23.9-24.4"/><path fill="#75402c" d="M186.4 76.2s-.5 1.4-1.5 3.5c-.5 1-1.1 2.3-1.8 3.5-.7 1.3-1.5 2.6-2.3 3.9s-1.7 2.6-2.5 3.8-1.6 2.3-2.4 3.2q-1.05 1.35-1.8 2.1c-.4.5-.7.8-.7.8l.6-.9c.4-.5.9-1.3 1.6-2.3.7-.9 1.4-2.1 2.2-3.3s1.6-2.5 2.4-3.8 1.6-2.6 2.3-3.9c.7-1.2 1.4-2.4 2-3.4 1.2-1.8 1.9-3.2 1.9-3.2M186.9 64.8s-.1-.1-.4-.2q-.45-.15-1.2-.3c-.5 0-1.2 0-1.9.1-.4 0-.7.2-1.1.3s-.8.3-1.2.5c-.8.4-1.6 1-2.5 1.6-.4.3-.8.7-1.2 1.1-.2.2-.4.4-.6.5l-.6.6c-.8.8-1.7 1.7-2.4 2.6-.4.5-.8.9-1.2 1.4s-.7 1-1.1 1.5c-.7 1-1.5 2-2.1 3-.7 1-1.3 2-1.9 3s-1.2 2-1.7 2.9-1.1 1.8-1.5 2.6c-1.8 3.3-3 5.4-3 5.4s1-2.3 2.7-5.6c.4-.8.9-1.7 1.4-2.7.5-.9 1-1.9 1.6-2.9s1.3-2 1.9-3c.6-1.1 1.4-2 2.1-3.1.4-.5.7-1 1.1-1.5s.8-.9 1.2-1.4c.8-1 1.6-1.8 2.5-2.6l.6-.6c.2-.2.4-.4.7-.5.4-.4.9-.7 1.3-1 .9-.6 1.7-1.2 2.6-1.5.4-.2.8-.4 1.3-.5.4-.1.8-.3 1.2-.3.8-.1 1.4-.1 2 0 .5.1.9.2 1.2.4z"/><g fill="#3a2922"><path d="M226.9 59.4c1-.2 2 .9 2.3 2.5s-.1 3.1-.9 3.3-1.9-.9-2.4-2.5 0-3.1 1-3.3"/><path d="M226.2 54.9c1.1 0 2 1.1 2.2 2.6s-.3 3-1.3 3.2c-.9.2-2.1-.9-2.4-2.6s.4-3.2 1.5-3.2"/><path d="M226.9 50.1c.3.1.5.3.7.5.1.1.2.2.2.4.1.1.1.3.2.4q.3.75.3 1.8c-.1 1.3-.8 2.7-1.9 2.8-1 .1-2.2-1.2-2.1-3.1.1-1 .4-1.9 1-2.4.1-.1.3-.2.4-.3s.3-.1.4-.1c.2-.1.5-.1.8 0"/><path d="M228.1 45.8c1.2.2 1.8 1.8 1.3 3.5-.3.8-.8 1.5-1.3 1.9-.5.3-1.1.4-1.6.3-.6-.1-1-.6-1.1-1.3-.2-.6-.2-1.4 0-2.1.4-1.6 1.6-2.6 2.7-2.3M229.9 77.8c.4 0 .5 1.5-.4 3s-2.1 2.2-2 2.3c0 0 .2-.2.6-.7.1-.2.3-.5.5-.8.1-.3.3-.7.4-1.1.3-1.5.5-2.8.9-2.7"/><path d="M229.9 73.2c.6-.1 1.1 1.2 1 3-.2 1.7-.9 3-1.1 2.9-.1 0-.2-.4-.2-.9-.1-.5-.1-1.3-.2-2-.3-1.6-.1-2.9.5-3"/><path d="M229 68.5c.7-.2 1.6 1 1.7 2.7s-.3 3.1-.8 3.1-1.1-1.2-1.5-2.8c-.3-1.5-.1-2.9.6-3"/><path d="M228 64.1c.9-.2 1.8.9 2.1 2.6.3 1.6-.1 3.1-.8 3.2s-1.6-1-2-2.6c-.5-1.6-.2-3 .7-3.2M225.4 23.3c.5-.2 1-.1 1.6.4.5.4 1 1 1.3 1.8.6 1.6.1 3.2-1 3.4-1.1.3-2.3-.7-2.7-2.3-.2-.8-.2-1.5-.1-2.1.1-.5.4-1 .9-1.2"/><path d="M222.7 19.6c.3-.3.8-.4 1.5-.2.3.1.7.3 1 .5.3.3.7.6.9 1q.45.6.6 1.2c.1.4.1.8.1 1.1 0 .7-.4 1.1-.9 1.3s-1 0-1.5-.3c-.2-.2-.5-.4-.6-.6-.2-.2-.4-.5-.6-.8-.7-1.1-1-2.5-.5-3.2"/><path d="M218.7 17.1c.1-.3.5-.4 1.2-.4.6 0 1.5.2 2.3.6s1.4 1.1 1.6 1.7.2 1.1-.2 1.4-.9.3-1.4.2-1.1-.5-1.7-1c-1.1-.9-2-2-1.8-2.5"/><path d="M214.3 15.9h.9c.6 0 1.4-.1 2.2 0 .9.1 1.6.4 2.1.8.4.4.6.8.5 1.1-.4.6-1.6.4-3-.4-.7-.4-1.3-.8-1.8-1.1-.6-.4-.9-.4-.9-.4M228.7 41.6c.6 0 1.1.4 1.5 1 .3.6.5 1.4.3 2.3-.3 1.8-1.7 2.9-2.8 2.5-1.1-.3-1.7-1.8-1.5-3.3.1-.8.5-1.4.9-1.9.5-.4 1-.7 1.6-.6"/><path d="M228.7 37c1.2-.1 2.3 1.2 2.3 3s-1.2 3.1-2.4 2.9-2-1.5-2-3c0-1.4.9-2.7 2.1-2.9"/><path d="M228.1 32.3c1.1-.2 2.4.9 2.6 2.7.3 1.7-.7 3.2-1.9 3.2s-2.2-1.2-2.4-2.7.5-3 1.7-3.2"/><path d="M226.9 27.9c1-.3 2.3.7 2.8 2.4s-.3 3.2-1.4 3.4c-1.2.2-2.3-.9-2.6-2.4-.3-1.6.2-3.1 1.2-3.4"/></g><path fill="#0dd7de" d="M228 64.7c.7-.1 1-.5 1.1-.7.1.1.1.2.1.3.2.6.1 1.1-.9 1.3-.6.1-1.3.2-1.4-.4v-.6c.3.1.6.2 1.1.1"/><path fill="#9b5c3d" d="M219.7 12.4c12.9 5.1 9 25.4 9 25.4s3 7.6-3.3 15.2c-7.8 9.2-25.3 5.2-30.6-4.8C191.3 41.6 187 25 196 15c5.2-5.9 15-6.1 23.7-2.6"/><path fill="#75402c" d="M220.2 56.8s-.3.2-.8.4-1.3.5-2.2.7l-1.5.3c-.5.1-1.1.2-1.7.2s-1.2.1-1.8.1-1.3 0-1.9-.1-1.3-.2-1.9-.3-1.2-.3-1.8-.5c-.6-.1-1.1-.4-1.6-.6s-1-.4-1.4-.7c-.4-.2-.8-.4-1.1-.6s-.6-.4-.8-.6c-.4-.3-.7-.5-.7-.5s.3.1.8.4c.2.1.5.3.9.5.3.2.8.3 1.2.5s.9.4 1.4.6 1 .4 1.6.5 1.1.3 1.8.4c.6.1 1.2.2 1.8.2.6.1 1.2.1 1.9.1h1.8c.6-.1 1.2-.1 1.7-.1.5-.1 1-.1 1.5-.2 1.6-.3 2.8-.7 2.8-.7M228.8 37.8s.5.9.7 2.5c.1.8.2 1.7.1 2.6 0 .5-.1 1-.1 1.5s-.2 1-.3 1.5-.3 1-.4 1.5c-.2.5-.4.9-.5 1.4-.2.4-.4.9-.6 1.2-.2.4-.4.7-.6 1.1-.4.7-.8 1.1-1.1 1.5-.3.3-.4.5-.4.5l.3-.6c.2-.4.5-.9.9-1.6.2-.3.4-.7.5-1.1.2-.4.3-.8.5-1.2s.3-.9.5-1.4c.1-.5.3-1 .4-1.4l.3-1.5c.1-.5.1-1 .2-1.4.1-.9.1-1.8.1-2.6s-.1-1.4-.2-1.8c-.3-.5-.3-.7-.3-.7"/><g fill="#542e20"><path d="M220.8 40.7s.1 0 .3.1.5.2.8.4.6.5.8.9l.3.6c0 .1.1.2.1.3l.1.2v.2c0 .2.1.5 0 .8 0 .2-.1.5-.2.7-.2.4-.5.7-.8.9-.6.4-1 .6-1 .6s.4-.3.8-.8c.2-.3.4-.6.5-.9.1-.2.1-.4.1-.6v-.3c0-.1 0-.2-.1-.3v-.2l-.1-.1c0-.1-.1-.2-.1-.3-.1-.2-.2-.4-.3-.5l-.6-.9c-.2-.3-.4-.5-.5-.6 0-.1-.1-.2-.1-.2M218.3 45s-.1.1-.2.3c-.1.1-.2.3-.4.4s-.3.2-.5.2-.3.1-.3.1v-.3c.1-.2.2-.4.4-.5s.4-.2.6-.2c.2-.1.4 0 .4 0"/></g><path fill="#542e20" d="M221.6 50.1s-.1.1-.3.2-.5.3-1 .5c-.4.2-.9.3-1.5.4-.5.1-1.1.1-1.7.2-1.2 0-2.4-.2-3.2-.5-.4-.1-.8-.3-1-.4l-.4-.2h.4c.3 0 .6.1 1 .1s.9.1 1.5.1c.5 0 1.1.1 1.7 0 1.1 0 2.2-.1 3.1-.3.9.1 1.4-.1 1.4-.1"/><path fill="#30231d" d="M213.7 31.9s-.5-.1-1.2-.1c-.4 0-.8-.1-1.2-.1s-.9 0-1.3.1c-.4 0-.9.1-1.3.2s-.8.2-1.1.3c-.2.1-.3.1-.5.2-.1.1-.3.1-.4.1-.2.1-.3.1-.3.1s.1-.1.2-.3.3-.4.7-.7c.2-.1.3-.3.5-.4l.6-.3c.2-.1.5-.2.7-.2.3-.1.5-.1.8-.1h.8c.3 0 .5.1.7.1.5.1.9.2 1.3.4.7.3 1 .7 1 .7M226.6 31.4s-.4-.1-1.1-.2c-.3-.1-.7-.1-1-.2-.4 0-.8-.1-1.1 0-.4 0-.8.1-1.1.1-.2 0-.4.1-.5.1-.2 0-.3.1-.5.1-.3.1-.6.2-.7.2-.2.1-.3.1-.3.1s.1-.1.2-.3q.15-.3.6-.6c.1-.1.3-.2.5-.3l.6-.3c.2-.1.4-.2.7-.2.2 0 .5-.1.7-.1h.7c.2 0 .5.1.7.1.4.1.8.3 1.1.5z"/><g fill="#30231d"><ellipse cx="3.609" cy="2.902" rx="1" ry="2.5" transform="rotate(-.539 3615.138 -21985.505)"/><path d="M213.4 34.4s-.4-.2-1-.4-1.4-.4-2.2-.3c-.4 0-.8.2-1.1.3-.2.1-.3.2-.5.3s-.3.2-.4.3c-.3.2-.5.3-.6.5-.2.1-.3.2-.3.2s.1-.1.2-.3.2-.4.5-.7c.2-.3.5-.5.9-.8l.6-.3c.2-.1.4-.1.7-.2h.7c.2 0 .5.1.7.1.4.1.8.3 1.1.5.5.4.7.8.7.8"/><path d="M207.5 33.4s.2.2.5.3.5.1.5.1l-.2.6s-.1-.1-.2-.1l-.3-.3c-.2-.3-.3-.6-.3-.6"/></g><g fill="#30231d"><ellipse cx="3.41" cy="3.502" rx="1" ry="2.5" transform="rotate(-.539 3515.134 -23367.356)"/><path d="M226 34s-.1 0-.2-.1-.4-.2-.6-.3l-.9-.3c-.3-.1-.7-.1-1 0-.3 0-.7.2-1 .3-.1.1-.3.1-.4.2s-.3.2-.4.2c-.3.1-.4.3-.6.4-.1.1-.2.1-.2.1s0-.1.1-.2.2-.4.4-.6.5-.5.8-.7c.2-.1.4-.2.5-.3.2-.1.4-.1.6-.2.4 0 .9 0 1.2.1.4.1.7.3.9.5.7.5.8.9.8.9"/><path d="M226.1 32.5s0 .3-.1.6c0 .2-.1.3-.2.4s-.1.2-.1.2l-.4-.5s.2-.1.4-.3c.2-.1.4-.4.4-.4"/></g><g fill="#0a0806"><path d="M219.7 12.9c.2-.3.8-.3 1.4-.1.6.3 1.3.9 1.8 1.7q.45.6.6 1.2c.1.4.2.8.2 1.2v.8c0 .2.1.3.1.3s0-.1-.2-.2c-.1-.1-.4-.2-.7-.4s-.6-.3-.9-.6c-.3-.2-.6-.5-.9-.8-.6-.6-1.1-1.2-1.3-1.7-.4-.6-.4-1.1-.1-1.4"/><path d="M215.4 10.4c.1-.3.6-.5 1.2-.5.3 0 .7.1 1.2.2.4.1.9.3 1.3.6s.8.6 1.1.9.5.7.6 1c.3.6.3 1.1 0 1.4s-.8.2-1.3 0c-.3-.1-.6-.2-.9-.4s-.7-.4-1-.6-.6-.5-.9-.7-.5-.5-.7-.7q-.75-.75-.6-1.2"/><path d="M210 10.2s.1 0 .2-.1c.2-.1.4-.1.7-.3.3-.1.6-.3 1-.4s.9-.2 1.4-.3c.5 0 1 0 1.4.1s.8.3 1 .4c.6.3.8.8.6 1.1-.1.3-.6.4-1.1.4-.3 0-.6-.1-.9-.1-.4-.1-.7-.2-1.1-.3l-1.2-.3c-.4-.1-.7-.2-1-.2s-.5-.1-.7-.1-.3.1-.3.1"/></g><g fill="#1c1411"><path d="M218 11.6q-.3.6-1.2.6h-.9c-.3 0-.7-.1-1.1-.2s-.7-.1-1.1-.3c-.3-.1-.7-.2-1-.3s-.6-.2-.7-.2h-.3s.1 0 .2-.2c.1-.1.3-.3.6-.5s.6-.5 1-.6c.4-.2.9-.2 1.4-.2s1 .1 1.4.2.8.3 1 .5c.7.3.9.8.7 1.2"/><path d="M222 14.4c-.2.2-.7.1-1.3 0-.3-.1-.6-.2-.9-.4-.3-.1-.7-.3-1-.5s-.7-.4-.9-.6c-.3-.2-.5-.4-.7-.7-.4-.5-.6-.8-.5-1.2.1-.3.6-.6 1.2-.6.3 0 .8 0 1.2.2.4.1.9.3 1.3.6s.7.6 1 .9.5.7.6 1c.2.6.2 1.1 0 1.3"/><path d="M225.2 18.7s0-.1-.2-.2l-.5-.5c-.3-.3-.6-.5-.8-.7-.3-.3-.7-.5-1-.8l-.8-.8c-.2-.3-.4-.5-.6-.8-.2-.5-.3-1-.1-1.2s.7-.3 1.3.1c.3.2.5.4.8.7s.5.7.7 1.1.4.8.5 1.2.2.8.3 1c.1.3.2.5.2.7z"/></g><g fill="#261b17"><path d="M222.2 14.4c-.1.2-.3.2-.6.3-.3 0-.7 0-1.1-.1-.2 0-.4-.1-.7-.1-.2 0-.5-.1-.7-.1-.5-.2-1.1-.2-1.7-.4-.5-.1-1.1-.2-1.7-.4-.4-.1-.9-.2-1.5-.4-.4-.1-.8-.2-1.1-.2h-.4s.1 0 .4-.2c.4-.2.7-.4 1-.5.4-.2 1-.4 1.6-.5.3-.1.6-.1 1-.1h1.1c.7.1 1.4.2 2 .4.3.1.6.2.8.4s.5.3.7.5c.4.3.7.6.8.9.2.1.2.3.1.5"/><path d="M226.8 20c-.1.1-.3 0-.6-.2-.2-.2-.5-.4-.9-.7-.3-.3-.6-.7-1-1s-.8-.8-1.2-1.2l-.6-.6-.6-.6c-.4-.3-.7-.7-1-1s-.5-.6-.7-.8c-.2-.3-.2-.5-.2-.6.1-.4.8-.5 1.8-.3.5.1 1 .3 1.6.6q.45.15.9.6c.3.2.6.5.8.7.5.5.9 1.2 1.2 1.7.3.6.5 1.1.6 1.6s.2.9.2 1.2q0 .6-.3.6"/><path d="M228.6 28s0-.1-.1-.4c-.1-.2-.2-.6-.3-1-.2-.6-.3-1.1-.5-1.5-.2-.6-.5-1.1-.7-1.8-.2-.6-.4-1.2-.6-1.7s-.3-1-.4-1.4-.2-.8-.1-1c0-.3.1-.5.2-.6.2-.1.4 0 .6.1.2.2.6.4.8.8s.5.9.7 1.5c.3.6.3 1.2.4 1.9s.2 1.4.1 2c0 .4-.1 1-.1 1.6 0 .5-.1.8-.1 1.1.1.3.1.4.1.4"/></g><g fill="#30231d"><path d="M222.2 16.1q-.15.3-.6.3c-.3 0-.6.1-1 0-.2 0-.4-.1-.6-.1s-.4-.1-.7-.1c-.5-.1-1-.3-1.5-.4-.5-.2-1.1-.3-1.5-.5-.5-.2-.9-.4-1.3-.5s-.7-.3-.9-.3c-.2-.1-.4 0-.4 0s.1 0 .3-.1.5-.3.9-.4c.2-.1.5-.2.7-.3s.5-.1.8-.2c.6-.1 1.2-.1 1.9 0s1.3.2 1.8.5c.3.1.5.2.7.3s.4.3.6.4c.3.3.6.5.7.8.2.2.2.4.1.6"/><path d="M226.9 20.8c-.3.2-.8-.1-1.4-.5-.3-.2-.7-.5-1.1-.8s-.8-.7-1.2-1-.8-.7-1.2-1-.7-.7-.9-.9c-.5-.6-.9-1.1-.7-1.4.1-.4.7-.5 1.6-.3.5 0 .9.3 1.5.5s1.1.6 1.6 1.1c.5.4.9 1 1.2 1.4.3.5.5 1 .7 1.4.2.8.2 1.3-.1 1.5"/><path d="M229.4 27.7s0-.1-.1-.3-.2-.5-.4-.9c-.2-.5-.5-.9-.6-1.3-.3-.5-.6-.9-.9-1.5-.1-.2-.3-.5-.4-.8-.1-.2-.3-.5-.4-.7-.2-.4-.4-.9-.5-1.2-.3-.7-.3-1.3 0-1.5s.8 0 1.4.6c.3.3.5.7.8 1.2.1.2.3.5.4.8s.2.6.2.9c.1.6.3 1.2.3 1.8v1.5c0 .4 0 .7.1 1s.1.4.1.4"/></g><path fill="#3a2922" d="M214.8 15.8c.2-.1 1.3-.1 1.6-.2s.7-.2 1.1-.3.9-.1 1.4-.1.9.2 1.3.3c.2.1.4.2.5.3.2.1.3.2.4.3l.1.1h.2c.3 0 .7.1 1.1.3s.8.4 1.2.7c.2.2.4.3.5.5s.3.3.4.5c.2.4.4.7.5 1 .1.2.1.3.1.5.1.1.2.2.4.2.7.2 1.7 1.4 2 1.9s.5 1.1.6 1.6.2.9.2 1.2v.2c0 .1.1.1.1.2.2.3.4.7.6 1.1s.3.9.4 1.5c.2 1.1.1 2 0 2.8 0 .2-.1.4-.2.5.1.1.2.3.2.5q.15.45.3 1.2t0 1.5c0 .5-.1 1-.2 1.5s-.2.9-.2 1.2c-.1.3-.1.6-.1.8v.3s0-.1-.1-.3c0-.2-.1-.5-.2-.8-.1-.4-.3-.8-.4-1.2-.2-.4-.3-.9-.4-1.4-.2-1-.3-2-.2-2.7 0-.2.1-.4.1-.5-.1-.1-.2-.3-.3-.5-.2-.3-.3-.7-.5-1.1-.1-.4-.3-.9-.3-1.4-.1-.5-.1-1-.1-1.4v-1.4c0-.1-.2-.1-.2-.2-.2-.3-.6-.2-2-2.3-.5-.8-.6-2.2-.6-2.3-.1 0-.3-.1-.4-.2-.3-.1-.6-.3-.8-.5-.1-.1-.3-.2-.4-.3s-.3-.2-.4-.4c-.3-.3-.6-.5-.8-.8s-.4-.5-.6-.7c0-.1-.1-.1-.1-.1h-.2c-.1 0-.3-.1-.4-.1-.2 0-.3-.1-.5-.2-.3-.1-.7-.3-1-.4-.4-.2-.7-.4-1.1-.5-.3-.2-.7-.3-.9-.4-.3-.1-.5-.1-.7-.2h-.2s-1 .2-.8.2"/><g fill="#0a0806"><path d="M186.4 52.7c1.3.1 2.1 1.7 2 3.4-.2 1.8-1.2 3.2-2.3 3.2-.5 0-1-.4-1.4-1s-.7-1.5-.6-2.4c0-1.8 1.1-3.3 2.3-3.2"/><path d="M186.8 47.7c1.4.1 2.3 1.7 2.1 3.5s-1.4 3.2-2.6 3.1-2.2-1.7-2.1-3.5c0-1.9 1.3-3.3 2.6-3.1"/><path d="M187.4 42.3c1.5.2 2.4 1.8 2.2 3.6s-1.5 3.2-2.9 3.1c-1.3-.1-2.4-1.7-2.3-3.6.2-1.9 1.5-3.3 3-3.1"/><path d="M188 37.2c1.5.2 2.5 1.8 2.3 3.6-.3 1.8-1.6 3.1-3.1 3-1.4-.1-2.5-1.8-2.3-3.6.2-1.9 1.6-3.2 3.1-3M187.4 73.7c.5-.1 1 1.3 1.2 3.1.1.9.2 1.7.4 2.3.1.6.3.9.3.9s-.2-.3-.4-.9c-.3-.5-.7-1.3-1-2.2-.9-1.6-1-3.2-.5-3.2"/><path d="M186.6 68.6c.7-.1 1.4 1.3 1.5 3.1s0 3.4-.3 3.4c-.2 0-.4-.3-.7-.8-.3-.6-.7-1.4-.9-2.3s-.3-1.8-.2-2.4c0-.5.3-.9.6-1"/><path d="M186.2 63.2q.75 0 1.2.9c.3.6.4 1.4.5 2.3 0 1.8-.5 3.3-1.1 3.4-.3 0-.7-.3-1-.9s-.7-1.4-.8-2.3c-.4-1.8.2-3.3 1.2-3.4"/><path d="M186.2 58.1c.6 0 1.1.4 1.4 1s.5 1.4.4 2.3c-.1 1.8-.8 3.3-1.7 3.4-.4 0-.9-.3-1.2-.9-.4-.6-.7-1.4-.7-2.4-.3-1.9.6-3.4 1.8-3.4M196.4 13.4c.4.5.5 1.2.5 1.8 0 .3-.1.7-.2 1s-.3.7-.5 1c-.4.7-1 1.2-1.6 1.5-.7.3-1.4.4-2 .1-1.3-.6-1.7-2.5-.4-4.3.3-.4.7-.8 1.1-1.1q.6-.45 1.2-.6c.9-.1 1.5.1 1.9.6"/><path d="M200.9 11.1c.2.5-.1 1.1-.4 1.7-.2.3-.4.6-.7.8s-.5.5-.9.7c-.6.4-1.3.6-1.9.7-.3 0-.7 0-1-.1s-.6-.2-.8-.4-.4-.5-.5-.8 0-.7.1-1.1c.2-.8.9-1.6 1.9-2.1.5-.2 1-.4 1.5-.5s.9 0 1.3 0c.8.2 1.3.6 1.4 1.1"/><path d="M206.3 10.4c0 .4-.4.7-.9 1.1-.6.4-1.3.8-2.1 1-.8.3-1.5.3-2.2.1-.6-.2-1.1-.5-1.3-1.1-.2-.5 0-1.2.5-1.7s1.4-.9 2.4-1c2 0 3.6.9 3.6 1.6"/><path d="M211.4 10.7s-.4 0-1 .1-1.5.3-2.4.5-1.7.2-2.3.1c-.6-.2-1-.5-1-.9s.3-.9.9-1.1 1.5-.2 2.4 0c.9.3 1.8.7 2.3.9.3.1.5.2.7.3.3.1.4.1.4.1M188.7 32.6c1.5.3 2.5 1.9 2.2 3.7s-1.7 3.1-3.2 2.9-2.6-1.8-2.3-3.7 1.8-3.2 3.3-2.9"/><path d="M189.7 27.6c1.5.4 2.4 2 2.1 3.8s-1.8 3-3.4 2.7c-1.5-.2-2.5-1.9-2.2-3.8.4-1.9 2-3.1 3.5-2.7"/><path d="M191.2 22.3c1.4.5 2.1 2.2 1.7 3.9s-1.9 2.8-3.5 2.5c-1.5-.3-2.4-2.1-1.9-4 .6-1.7 2.3-2.8 3.7-2.4"/><path d="M193.2 17.7c.6.3 1 .9 1.2 1.7.2.7.2 1.5-.1 2.3s-.8 1.4-1.4 1.9c-.6.4-1.4.6-2.1.3-1.4-.4-2.2-2.3-1.4-4.1.7-1.9 2.5-2.8 3.8-2.1"/></g><g fill="#1c1411"><path d="M189.2 52.4c.6-.1 1.3.2 1.8.6.2.2.5.5.6.9.2.3.3.7.4 1.1s.1.8.1 1.2c0 .5-.1.9-.2 1.2-.2.7-.6 1.2-1.1 1.3s-1.1-.1-1.6-.5c-.3-.2-.5-.5-.7-.8s-.4-.8-.6-1.2c-.2-.5-.3-.9-.3-1.4 0-.4.1-.8.2-1.2.3-.6.8-1.1 1.4-1.2"/><path d="M188.7 47.4c.7 0 1.3.3 1.8.8s.8 1.3.8 2.1c.1 1.7-.6 3.2-1.9 3.5q-.9.15-1.8-.6c-.6-.5-1-1.4-1.1-2.3-.3-1.8.8-3.4 2.2-3.5"/><path d="M188.6 42.1c1.5.1 2.6 1.5 2.5 3.2s-1.1 3.2-2.4 3.3c-.7.1-1.3-.3-1.8-.9s-.9-1.4-.9-2.4c-.1-1.7 1.2-3.2 2.6-3.2"/><path d="M189 37.1c1.5.2 2.6 1.7 2.5 3.4s-1.4 3.1-2.8 3.1-2.6-1.5-2.6-3.4c0-1.8 1.3-3.2 2.9-3.1M190.2 72.7c.5.1.3 1.6-.5 3.3-.4.8-.8 1.5-1.1 2.1-.3.5-.5.8-.5.8l.3-.9c.2-.6.3-1.4.5-2.3s.4-1.7.6-2.2c.2-.6.5-.9.7-.8"/><path d="M191.1 67.8c.7.1 1 1.7.4 3.4-.6 1.8-1.5 3.1-1.8 3-.2-.1-.2-.5-.3-1.1 0-.6 0-1.4.1-2.3s.3-1.7.5-2.2c.4-.5.8-.9 1.1-.8"/><path d="M191.3 62.5c.9-.1 1.8 1.4 1.5 3.3s-1.2 3.3-1.8 3.2c-.3-.1-.6-.5-.8-1.1s-.3-1.4-.4-2.3c0-.4 0-.8.1-1.2 0-.4.1-.7.3-1 .2-.5.6-.9 1.1-.9"/><path d="M190.5 57.6c.5-.2 1.1.1 1.6.6s.8 1.4.9 2.4c.1 2-.8 3.5-1.6 3.5-.9 0-1.7-1.4-2-3-.2-.8-.2-1.6 0-2.2.1-.7.5-1.2 1.1-1.3M197.5 14.1c.4.5.4 1.2.3 1.8 0 .4-.1.7-.3 1-.1.2-.2.3-.3.5s-.2.3-.3.5c-.2.3-.5.5-.7.7-.3.2-.6.4-.9.5-.6.2-1.4.3-2-.1-.6-.3-1-.9-1.1-1.7 0-.4 0-.8.1-1.3.2-.4.5-.9.8-1.3l.6-.6c.2-.1.4-.3.6-.4.4-.2.8-.4 1.2-.4 1 0 1.6.3 2 .8"/><path d="M202 11.9c.2.5 0 1.1-.4 1.7-.2.3-.4.6-.7.8-.3.3-.6.5-.9.7s-.7.3-1 .5c-.3.1-.7.2-1 .2-.7 0-1.3-.2-1.7-.7s-.6-1.2-.3-1.9c.1-.4.4-.7.7-1.1q.45-.45 1.2-.9c.5-.3.9-.4 1.4-.4.5-.1.9-.1 1.3 0 .7.2 1.2.5 1.4 1.1"/><path d="M207.2 11c0 .4-.3.7-.9 1.1-.5.4-1.3.8-2 1-1.5.5-3 .2-3.5-.9-.2-.5 0-1.2.5-1.7.3-.3.6-.5 1-.7s.9-.3 1.4-.3c1.9 0 3.5.9 3.5 1.5"/><path d="M212.2 11.4s-.4 0-1 .1-1.4.3-2.3.5-1.6.2-2.2.1c-.6-.2-1-.5-1-.9s.3-.9.9-1.1 1.5-.2 2.4 0 1.7.7 2.3.9c.3.1.5.2.7.3.1.1.2.1.2.1M189.5 32.5c1.6.3 2.5 1.8 2.3 3.6-.2 1.7-1.6 3-3.1 2.9s-2.7-1.7-2.5-3.6c.3-1.8 1.8-3.1 3.3-2.9"/><path d="M190.5 27.6c1.5.4 2.4 2 2.1 3.7s-1.7 2.9-3.3 2.7c-1.5-.2-2.6-1.9-2.3-3.7.4-1.8 2-3 3.5-2.7"/><path d="M192 22.5c.7.2 1.2.8 1.5 1.5s.4 1.5.2 2.4c-.4 1.6-1.9 2.8-3.4 2.5s-2.4-2.1-1.9-3.9c.3-.9.8-1.7 1.5-2.1.6-.5 1.4-.6 2.1-.4"/><path d="M194 18c.6.4 1 1 1.1 1.7.2.7.2 1.5-.1 2.3-.5 1.6-2.1 2.5-3.5 2.1-1.5-.4-2.1-2.3-1.4-4.1.4-.9 1.1-1.6 1.8-1.9.8-.5 1.5-.5 2.1-.1"/></g><g fill="#261b17"><path d="M192.1 56.6c1.3-.1 2.4 1.3 2.4 3.1.1 1.7-.7 3.3-1.7 3.5-1.1.2-2.2-1.2-2.6-3.1-.3-1.9.6-3.5 1.9-3.5"/><path d="M191.9 51.5c1.4 0 2.5 1.4 2.5 3.2-.1 1.8-1 3.3-2.2 3.4-.6 0-1.2-.3-1.7-.9q-.75-.9-.9-2.4c-.1-1.7.9-3.3 2.3-3.3"/><path d="M192 46.2c1.5.1 2.6 1.5 2.5 3.3s-1.2 3.3-2.6 3.3c-1.3 0-2.6-1.5-2.6-3.3 0-1.9 1.2-3.4 2.7-3.3"/><path d="M192.2 41.1c1.5.1 2.6 1.6 2.5 3.4s-1.4 3.2-2.8 3.2-2.6-1.6-2.6-3.4c.1-1.9 1.4-3.3 2.9-3.2M197.1 76.6c.4-.3 1.3.9 2.3 2.4.5.8 1 1.4 1.4 1.9l.7.7c-.3-.2-.6-.4-.8-.5-.5-.3-1.2-.8-1.9-1.5-1.5-1.3-2.1-2.8-1.7-3"/><path d="M195 72c.7-.3 1.6.9 2.2 2.6s1.1 3.1.8 3.3c-.2.1-.5-.1-1-.5s-1.1-1.1-1.6-1.9-.8-1.6-.9-2.3c0-.6.1-1 .5-1.2"/><path d="M193.4 66.9c.5-.1 1 .2 1.4.7q.6.75.9 2.1c.3 1.7.3 3.3-.3 3.6q-.45.15-1.2-.6c-.5-.5-1-1.2-1.3-2.1-.8-1.8-.4-3.5.5-3.7"/><path d="M192.6 61.9c1.1-.1 2.1 1.2 2.3 2.9s-.2 3.3-1.1 3.6c-.4.1-.9-.1-1.4-.7-.5-.5-.9-1.3-1.2-2.2-.2-.9-.2-1.8 0-2.4.3-.7.8-1.1 1.4-1.2M198.9 16.9c.5.4.7 1.1.7 1.8 0 .6-.1 1.4-.5 2.1-.6 1.4-2.1 2.3-3.5 1.8-1.3-.5-1.8-2.4-.8-4.2.6-.9 1.3-1.6 2.1-1.8.9-.3 1.6-.2 2 .3"/><path d="M203 14c.4 1-.4 2.4-1.4 3.4-.5.5-1.2.8-1.8 1-.6.1-1.3.1-1.9-.3q-.9-.6-.6-1.8c.1-.8.7-1.6 1.5-2.3.4-.3.9-.5 1.3-.7.5-.1.9-.2 1.3-.2.8 0 1.4.4 1.6.9"/><path d="M208.2 12.5c0 .4-.3.7-.8 1.2-.5.4-1.2.9-1.9 1.2-.4.2-.7.3-1.1.4-.3.1-.7.1-1 .1-.6-.1-1.2-.3-1.5-.8s-.2-1.2.2-1.8c.2-.3.5-.6.9-.8s.8-.4 1.3-.5 1-.1 1.4-.1.9.1 1.2.2c.8.2 1.2.6 1.3.9"/><path d="M213.2 12.4h-.3c-.2 0-.4.1-.7.1-.6.2-1.4.5-2.3.7-.9.3-1.6.4-2.2.3s-1-.4-1.1-.8.2-.9.8-1.2 1.5-.4 2.4-.2c1 .2 1.8.5 2.4.7.6.4 1 .4 1 .4M192.7 36.4c1.5.2 2.6 1.8 2.5 3.5-.2 1.8-1.5 3.1-3 3.1-1.5-.1-2.7-1.7-2.6-3.5.1-1.9 1.5-3.2 3.1-3.1"/><path d="M193.4 31.4c1.5.3 2.5 1.9 2.3 3.6-.2 1.8-1.6 3.1-3.2 2.9-1.6-.1-2.7-1.8-2.4-3.7.2-1.7 1.7-3 3.3-2.8"/><path d="M194.5 26.2c.7.2 1.3.7 1.6 1.4q.6 1.05.3 2.4c-.3 1.7-1.8 2.9-3.3 2.7s-2.5-1.9-2.1-3.8c.5-1.9 2.1-3.1 3.5-2.7"/><path d="M196.1 21.4c1.3.6 1.8 2.3 1.4 3.9s-1.9 2.7-3.4 2.4-2.3-2.1-1.7-4c.3-.9.9-1.7 1.6-2.1s1.5-.5 2.1-.2"/></g><path fill="#ed7d2d" d="M193.6 67.6c.8-.1 1.1-.4 1.2-.8.1.1.1.2.1.3.1.7 0 1.2-1.1 1.4-.7.1-1.4.1-1.5-.5 0-.2 0-.4.1-.6.3.1.7.3 1.2.2"/><path fill="#7425cf" d="M191.8 42.2c1.2.1 1.7-.3 1.9-.6.1.1.1.3.1.4.1.9-.2 1.5-1.9 1.4-1.1 0-2.1-.2-2.1-1 0-.3.1-.5.2-.8q.75.6 1.8.6"/><g fill="#30231d"><path d="M196.8 56.2c1-.1 2 1.1 2.2 2.9.2 1.7-.3 3.3-1.2 3.4-.8.1-1.8-1.1-2.2-2.8-.4-1.8.2-3.3 1.2-3.5"/><path d="M196.1 51.5c1.1-.1 2.1 1.1 2.3 2.9.2 1.7-.4 3.2-1.4 3.4-.9.1-2-1.1-2.3-2.9s.3-3.3 1.4-3.4"/><path d="M195.6 46.4c1.2-.1 2.2 1.2 2.3 2.9.2 1.7-.6 3.2-1.6 3.4-1 .1-2.1-1.2-2.4-2.9-.2-1.8.5-3.3 1.7-3.4"/><path d="M195.3 41.6c1.2-.1 2.2 1.3 2.3 3s-.7 3.2-1.8 3.3-2.2-1.2-2.4-3 .7-3.3 1.9-3.3M197.7 75.8c.3.1-.1 1.6-1.5 2.9-.7.6-1.4 1.1-1.9 1.3s-.9.2-.9.2.1 0 .2-.1c.2-.1.4-.1.6-.3.5-.3 1-.9 1.5-1.6.9-1.4 1.6-2.6 2-2.4"/><path d="M198.8 71.2c.3 0 .5.4.7 1 .1.6.1 1.5-.3 2.4-.8 1.7-1.9 2.7-2.1 2.6s.3-1.5.7-3.1c.1-1.5.4-2.9 1-2.9"/><path d="M198.3 66.1c.8-.1 1.5 1.2 1.5 3 0 .5 0 .9-.1 1.3s-.2.8-.3 1.1c-.2.6-.5.9-.7.9-.3 0-.4-.4-.7-.9-.1-.3-.2-.6-.3-1l-.3-1.2c-.1-1.7.2-3.1.9-3.2"/><path d="M197.6 61.3c.9-.1 1.8 1.1 1.9 2.9.2 1.8-.3 3.3-1 3.3-.7.1-1.5-1.2-1.9-2.9-.3-1.7.1-3.2 1-3.3M200.4 18.5c.6.7.4 2.2-.4 3.5-.3.7-.9 1.1-1.4 1.5-.5.3-1.1.5-1.6.2q-.75-.3-.9-1.5c-.1-.7.3-1.6.8-2.4.2-.4.6-.7 1-1s.7-.4 1-.6c.5-.1 1.1 0 1.5.3"/><path d="M204.3 15.8c.2.4.1.9-.2 1.4s-.7 1.1-1.4 1.6c-.5.6-1.2.9-1.8 1-.6.2-1.1.1-1.5-.2s-.5-.9-.3-1.6.8-1.4 1.5-2c.8-.5 1.7-.8 2.3-.9.7.1 1.2.3 1.4.7"/><path d="M209.1 14.1c.1.3-.2.6-.7 1q-.75.6-1.8 1.2c-.4.2-.7.3-1.1.4-.3.1-.6.2-.9.2-.6 0-1.1-.2-1.3-.6s-.1-.9.3-1.4c.2-.3.5-.5.8-.7.4-.2.8-.4 1.2-.5 1.8-.5 3.4-.1 3.5.4"/><path d="M213.9 13.6s-.4 0-.9.2c-.6.2-1.3.5-2.1.8-1.6.6-3 .6-3.2-.1-.1-.3.2-.7.7-1s1.4-.4 2.3-.4 1.7.2 2.3.4c.6.1.9.1.9.1M195.1 37.1c1.2 0 2.2 1.4 2.2 3.1s-.9 3.2-2 3.2c-1.2.1-2.3-1.3-2.3-3.1-.1-1.8.9-3.2 2.1-3.2"/><path d="M195.2 32.3c1.2.1 2.1 1.5 2.1 3.2s-1 3.1-2.2 3.1-2.2-1.4-2.2-3.2c.1-1.8 1.1-3.2 2.3-3.1"/><path d="M195.8 27.2c.6.1 1 .6 1.3 1.2s.5 1.3.4 2.1c-.1 1.6-1.1 3-2.3 3s-2.2-1.5-2-3.3c.1-.9.5-1.8.9-2.3.5-.6 1.1-.8 1.7-.7"/><path d="M197.3 22.6c.5.2.8.8.9 1.4.1.3.1.7.1 1 0 .2 0 .3-.1.5 0 .2 0 .4-.1.6-.2.8-.6 1.4-1.1 1.8-.4.5-1 .7-1.6.6s-1.1-.5-1.4-1.2c-.2-.7-.2-1.6 0-2.5.1-.2.1-.5.2-.7s.2-.4.4-.6l.8-.8c.9-.2 1.5-.3 1.9-.1"/></g><g fill="#3a2922"><path d="M200.8 58.7c1-.2 2 1.1 2.1 2.9s-.6 3.3-1.5 3.3c-.8 0-1.6-1.3-1.9-2.9-.2-1.6.3-3.1 1.3-3.3"/><path d="M199.6 54.1c1-.4 2.3.8 2.6 2.6s-.3 3.4-1.3 3.5-2-1.1-2.4-2.7c-.3-1.5.1-3 1.1-3.4"/><path d="M198.4 49.2c.6-.1 1.1.1 1.6.6s.8 1.1 1 1.9.2 1.5 0 2.2-.5 1.2-1.1 1.3c-.5.1-1.1-.1-1.6-.5s-1-1.1-1.3-2c-.4-1.7.2-3.3 1.4-3.5"/><path d="M197.7 44.5c1.2-.1 2.3 1.2 2.5 2.8s-.4 3.1-1.5 3.4-2.4-.9-2.7-2.7c-.3-1.9.5-3.4 1.7-3.5M199.1 78c.3.1-.2 1.6-1.6 2.7-1.5 1.1-2.9 1.2-2.9 1.3 0 0 .3-.1.8-.4s1.1-.8 1.6-1.4c1.1-1.2 1.8-2.3 2.1-2.2"/><path d="M200.7 73.6c.6.1.7 1.6-.2 3.3-.8 1.7-2 2.6-2.2 2.5-.2-.2.3-1.4.8-3 .5-1.7 1.1-3 1.6-2.8"/><path d="M201.4 68.5c.8 0 1.2 1.5.8 3.3s-1.3 3-1.8 2.9-.6-1.6-.5-3.2c.1-1.7.7-3 1.5-3"/><path d="M201.4 63.8c.9-.1 1.7 1.3 1.5 3.1-.1 1.8-.9 3.2-1.6 3.1s-1.2-1.5-1.3-3.1c-.1-1.7.5-3.1 1.4-3.1M201.4 21c.4.3.6.8.7 1.4v.9c0 .3-.1.6-.2 1-.4 1.6-1.6 2.7-2.7 2.4-.5-.1-.9-.6-1.1-1.3-.2-.6-.1-1.5.1-2.3.1-.4.4-.9.7-1.2.3-.4.5-.7.9-.8.6-.4 1.2-.4 1.6-.1"/><path d="M204.9 17.8c.2.4.1.9-.1 1.4-.1.3-.3.5-.5.8s-.4.6-.6.8c-.4.6-1 .9-1.5 1.2s-1.1.3-1.6.1-.7-.7-.7-1.5c0-.7.5-1.6 1.2-2.3.4-.3.8-.6 1.2-.8s.8-.3 1.1-.3q1.05 0 1.5.6"/><path d="M209.6 15.9c.1.5-1 1.5-2.4 2.3-.7.4-1.3.6-1.9.7s-1.1-.1-1.3-.4c-.3-.4-.2-.9.2-1.5.4-.5 1.1-1.1 2-1.4s1.8-.3 2.4-.2c.5 0 .9.2 1 .5"/><path d="M214.3 15.3s-.4 0-.9.2c-.6.2-1.3.5-2.1.8-1.6.6-2.9.7-3.2 0-.1-.3.1-.7.7-1 .5-.3 1.3-.5 2.2-.4.9 0 1.7.2 2.3.3s1 .1 1 .1M197.5 40.1c1.2 0 2.2 1.4 2.3 3s-.7 3.1-1.9 3.2c-1.2.2-2.3-1.2-2.5-3-.1-1.8.9-3.3 2.1-3.2"/><path d="M197.7 35.3c.6.1 1.1.4 1.5 1s.6 1.3.5 2.2c0 1.6-1 3-2.2 3.1-1.2 0-2.3-1.4-2.2-3.2.1-1.9 1.2-3.2 2.4-3.1"/><path d="M198.4 30.3c1.2.2 1.8 1.7 1.7 3.4-.2 1.6-1.3 2.9-2.5 2.8s-2.1-1.6-1.8-3.4c.2-1.8 1.5-3 2.6-2.8"/><path d="M199.5 25.6c1 .3 1.6 1.8 1.3 3.5-.3 1.6-1.4 2.8-2.6 2.6s-1.9-1.8-1.5-3.5c.5-1.7 1.8-2.9 2.8-2.6"/></g><path fill="#66e9ed" d="M198.4 50.3c.9-.2 1.3-.5 1.4-.9.1.1.1.2.2.3.2.7.1 1.3-1.2 1.5-.8.2-1.7.2-1.8-.5V50c.4.3.8.4 1.4.3"/><path fill="#ed7d2d" d="M200.8 59.9c.8-.1 1.1-.5 1.3-.8.1.1.1.2.2.3.2.6.1 1.1-1.1 1.4-.7.1-1.5.2-1.6-.4v-.6c.3.1.7.2 1.2.1"/><path fill="#7425cf" d="M200.7 59.1c.8-.1 1.1-.5 1.3-.8.1.1.1.2.2.3.2.6.1 1.1-1.1 1.4-.7.1-1.5.2-1.6-.4V59c.3.1.7.2 1.2.1"/><path fill="#e3448b" d="M201.2 69.3c.7.1 1-.1 1.2-.3 0 .1.1.2.1.3 0 .5-.2.9-1.2.8-.6-.1-1.3-.2-1.2-.7 0-.2.1-.3.2-.5.2.2.5.3.9.4"/><path fill="#0dd7de" d="M200.5 74.3c.4.1.7 0 .8-.2v.2c-.1.4-.4.7-.9.6-.4-.1-.7-.3-.6-.7.1-.1.1-.3.2-.4.1.2.3.4.5.5"/><path fill="#ed9939" d="M198.7 78.7c.3.2.5.1.6.1 0 0 0 .1-.1.2-.2.3-.4.4-.8.2-.2-.2-.5-.3-.3-.6l.2-.2c.1.1.2.2.4.3"/><path fill="#66e9ed" d="M51.2 188.8c-1.9-4.4-1.2-15.6-7.4-21.4-6.1-5.9-19.5-10.4-21.7-7.8s2.3 5.5 2.3 5.5-1.9.3-2 1.7c-.3 2.3 2.3 3 .8 4.6s.7 4.2 2.3 5.2c0 0-2.6 1.9-.7 3 0 0-2.5 1.7-.1 3.2s3.4 1.2 3.9 4.2 2.6 2.4 2.6 2.4-4.5.9-4 4.1-5.3 2-6.1 3.2c-.7 1.2.4 1.9.4 1.9s-4 .4-2 2.7c0 0-3.9.1-3.3 3.1.5 2.9-.4 4.2-2.1 4s-3.9 2.1-2.2 3.1c0 0-3.1-1.1-3.6 2.1s8.2 5.5 13.9 5.6 16.2.3 23.6-15c3.4-7 14.6-6.6 14-9.7-.8-3.3-6.7-1.3-8.6-5.7"/><path fill="#35b7db" d="M56 197.3s-.8.2-2 .7c-.6.2-1.4.5-2.2.9s-1.8.9-2.7 1.6c-.5.3-.9.7-1.3 1.2s-.8 1-1.1 1.6c-.7 1.1-1.4 2.3-2.2 3.6-1.5 2.5-3.3 5.1-5.6 7.3-1.2 1.1-2.4 2-3.8 2.8-1.3.7-2.8 1.3-4.2 1.7-2.8.9-5.6 1-7.9 1-2.3-.1-4.3-.4-5.6-.7s-2.1-.6-2.1-.6.7.2 2.1.5c1.3.2 3.3.4 5.6.4s5-.3 7.7-1.2c1.4-.4 2.7-1 4.1-1.7 1.3-.7 2.5-1.7 3.6-2.7 2.3-2.1 4-4.6 5.5-7.1.8-1.2 1.5-2.4 2.2-3.6.4-.6.8-1.1 1.2-1.6s.9-.9 1.4-1.2c1-.7 1.9-1.1 2.8-1.5s1.7-.6 2.3-.8c1.4-.4 2.2-.6 2.2-.6M56.5 192.3s-.7-.1-1.8-.4c-.6-.2-1.2-.5-2-.9-.7-.5-1.5-1.1-1.8-2.2-.3-1-.6-2.1-.8-3.2s-.5-2.4-.7-3.6c-.5-2.5-1.1-5.2-1.9-7.7-.4-1.3-.9-2.5-1.6-3.7-.3-.6-.7-1.1-1.1-1.6l-.7-.7c-.2-.2-.5-.4-.7-.7-1.9-1.7-3.9-3-5.6-4-1.8-1-3.3-1.8-4.3-2.3-1.1-.5-1.7-.8-1.7-.8s.6.2 1.7.7 2.7 1.1 4.5 2.1 3.9 2.2 5.8 3.9c.5.4.9.9 1.4 1.4s.8 1.1 1.2 1.7c.7 1.2 1.2 2.5 1.6 3.8.9 2.6 1.4 5.3 1.9 7.8q.3 1.95.6 3.6c.2 1.1.4 2.2.7 3.2.3.9 1 1.6 1.6 2.1.7.5 1.3.8 1.9 1 1.2.3 1.8.5 1.8.5M34.3 189.9s-.5-.1-1.2-.1h-1.2c-.4 0-.9.1-1.3.1-.2 0-.4.1-.6.2s-.4.1-.6.2-.4.2-.5.3c-.2.1-.3.2-.5.3-.3.2-.5.4-.7.5s-.3.2-.3.2.1-.1.2-.3.3-.4.5-.7l.4-.4c.2-.1.4-.3.6-.4.4-.2.9-.4 1.4-.5s1-.1 1.5-.1.9.1 1.2.2c.7.2 1.1.5 1.1.5M21.6 160.3s-.1.4 0 .9.4 1.1.9 1.7c.4.6.9 1.1 1.3 1.5s.6.7.6.7-.3-.2-.8-.4c-.2-.2-.5-.3-.8-.6-.3-.2-.5-.5-.8-.8-.2-.3-.4-.7-.6-1-.1-.3-.2-.7-.2-1s.1-.5.2-.7.2-.3.2-.3M22.3 166.8v.5c.1.3.2.7.5 1.2.1.2.3.5.5.7.1.1.2.2.3.4.1.1.2.2.3.5.1.5-.1.8-.3 1.2-.2.3-.3.6-.5.9-.1.2-.1.2-.1.4v.4l.3.9q.45.9.9 1.5t.9.9c.2.2.4.3.4.3l-.4-.2c-.3-.2-.7-.4-1.1-.8s-.8-.9-1.1-1.5c-.2-.3-.3-.7-.4-1 0-.2-.1-.4 0-.6 0-.2.1-.5.2-.6.2-.4.4-.6.5-.9.2-.3.3-.6.3-.8 0 0-.1-.2-.2-.3s-.2-.3-.3-.4c-.2-.3-.3-.5-.4-.8-.2-.5-.3-1-.3-1.3-.1-.4 0-.6 0-.6M23.8 180.6s-.1.1-.1.3-.1.5.1.8c.1.3.5.6.8.7.4.2.9.4 1.3.7.5.3.9.5 1.3.9.4.3.7.7.9 1.1s.2.7.2 1v.4s0-.1-.1-.3c0-.1-.1-.2-.1-.4-.1-.1-.2-.3-.2-.4-.2-.3-.5-.6-.9-.8-.4-.3-.8-.5-1.2-.8s-.9-.5-1.3-.7c-.4-.3-.8-.7-.9-1.1s0-.8.1-1c0-.3.1-.4.1-.4M27.1 193.6s.1.1.1.4c0 .2 0 .6-.2 1s-.6.8-1.1 1c-.2.1-.5.2-.8.3s-.5.1-.8.1c-1 .2-2.1.1-2.8.3-.3.1-.6.3-.7.5s-.2.3-.2.3 0-.1.1-.4c.1-.2.2-.6.6-.8s.9-.3 1.3-.4c.5-.1 1-.1 1.5-.2s1-.1 1.4-.3c.4-.1.8-.4 1-.6.2-.3.3-.6.4-.8.2-.3.2-.4.2-.4M21.3 198.6s-.2.1-.5.2-.6.2-.9.4c-.3.1-.6.3-.8.5s-.4.3-.4.3v-.1c0-.1 0-.2.1-.4s.2-.3.3-.5.3-.3.5-.4c.4-.2.8-.2 1.2-.2.4.1.5.2.5.2M16.7 202.2s-.1.1-.1.3c-.1.2-.2.5-.3.8 0 .2-.1.3-.1.5s0 .3.1.6c.1.5.2 1 .2 1.5 0 .3 0 .5-.1.8 0 .3-.1.5-.3.7-.1.2-.3.4-.5.6q-.3.3-.6.3c-.4.1-.7.1-.9.1s-.3-.1-.3-.1.1 0 .3-.1c.2 0 .5-.1.8-.3.1-.1.3-.2.4-.3s.2-.3.3-.5.1-.4.2-.6v-.7c0-.5 0-.9-.1-1.3 0-.2-.1-.5 0-.7 0-.2.1-.4.2-.6.3-.7.8-1 .8-1M11.7 211.5h-.8c-.5 0-1.1.1-1.5.5-.2.1-.4.4-.6.6-.1.1-.1.2-.2.3s-.1.2-.2.3c-.1.2-.2.4-.2.5-.1.2-.2.3-.2.3v-.8q0-.45.3-.9c.2-.3.4-.6.7-.8.6-.4 1.4-.4 1.9-.3s.8.3.8.3"/><path fill="#0dd7de" d="M216.4 126.7s1.5 18.1-13.2 43.8c-10.2 18-35.1 47-52.8 49.8-18.6 3-30.8 2-61.4-14.4-8.7-4.7-40.1-11.6-40.1-11.6s9.3-5.2 42.4-3.1c10.9.7 39.1 10.6 47.4-13.3 7.9-22.8 13.2-60.4 37.8-71.6 0 0 3.3 22.9 31 24.7-.1.2 1.8.6 8.9-4.3"/><path fill="#35b7db" d="M176.3 204.5s-1.5 1.5-4.3 4c-1.4 1.2-3.2 2.7-5.2 4.3-2.1 1.6-4.5 3.3-7.3 4.8-1.4.8-2.9 1.5-4.6 2-.8.3-1.7.4-2.6.6s-1.8.3-2.7.5c-3.6.6-7.5 1-11.6 1.1-4 .1-8.2-.2-12.4-.8-4.2-.7-8.4-1.8-12.4-3.3s-7.9-3.5-11.6-5.4c-3.8-1.9-7.4-3.8-11.1-5.5-1.8-.8-3.6-1.6-5.4-2.3s-3.6-1.3-5.3-1.9c-3.5-1.2-6.8-2.1-9.9-3-6.2-1.8-11.4-3-15-3.9-3.7-.8-5.8-1.3-5.8-1.3s2.1.4 5.8 1.2 8.9 2 15.1 3.7c3.1.9 6.4 1.8 10 3 1.8.6 3.5 1.2 5.4 1.8 1.8.7 3.6 1.4 5.5 2.3 3.7 1.6 7.4 3.6 11.1 5.5 3.8 1.9 7.6 3.8 11.6 5.3 8 3 16.6 4.3 24.5 4.2 4-.1 7.9-.5 11.5-1.1.9-.1 1.8-.3 2.7-.5s1.7-.3 2.6-.6c1.6-.5 3.2-1.2 4.6-1.9 2.8-1.5 5.2-3.2 7.4-4.7 2.1-1.5 3.9-3 5.3-4.2 2.5-2.4 4.1-3.9 4.1-3.9M216.5 128.1s.1 1.3 0 3.5c-.1 1.1-.2 2.4-.4 4q-.3 2.25-.9 5.1c-.2.9-.4 1.9-.6 2.9s-.5 2-.8 3.1c-.6 2.1-1.3 4.3-2.1 6.5-.4 1.1-.8 2.2-1.3 3.4-.4 1.1-.9 2.3-1.4 3.4s-1 2.3-1.6 3.4c-.5 1.1-1.1 2.3-1.7 3.4-1.2 2.2-2.4 4.4-3.7 6.5-.7 1-1.3 2.1-2 3.1s-1.3 2-2 3-1.3 1.9-2 2.8-1.3 1.8-2 2.7c-1.3 1.7-2.6 3.3-3.8 4.8-2.4 2.9-4.5 5.3-5.9 6.9-1.5 1.6-2.4 2.5-2.4 2.5s.9-.9 2.3-2.6 3.4-4.1 5.7-7.1c1.2-1.5 2.4-3.1 3.7-4.8s2.6-3.6 3.9-5.5c.6-1 1.3-2 2-3 .6-1 1.3-2.1 1.9-3.1 1.3-2.1 2.5-4.3 3.7-6.5.6-1.1 1.1-2.2 1.7-3.4.6-1.1 1.1-2.2 1.6-3.4.5-1.1 1-2.2 1.4-3.4.5-1.1.9-2.2 1.3-3.3.8-2.2 1.5-4.4 2.2-6.4.3-1 .6-2 .8-3 .3-1 .5-1.9.7-2.8.4-1.8.7-3.5 1-5 .2-1.5.4-2.8.5-3.9.3-2.5.2-3.8.2-3.8M175 107.3s-.2.1-.5.2c-.3.2-.8.4-1.3.7-1.1.7-2.6 1.7-4.3 3.1-3.4 2.8-7.3 7.2-10.5 12.2-1.6 2.4-3 5-4.3 7.5-1.2 2.5-2.3 4.8-3.1 6.9-.8 2-1.5 3.8-1.9 5s-.7 1.9-.7 1.9.2-.7.6-1.9.9-3 1.7-5.1 1.7-4.5 2.9-7 2.6-5.1 4.2-7.6 3.4-4.8 5.3-6.9c1.8-2.1 3.8-3.8 5.5-5.2s3.3-2.3 4.5-2.9c.6-.3 1-.5 1.3-.7.4-.1.6-.2.6-.2M143 162.6s-.3.9-.6 2.5c-.4 1.6-.9 3.9-1.6 6.6s-1.7 5.8-3 9.1c-.7 1.6-1.5 3.3-2.5 4.8-.5.8-1.1 1.5-1.8 2.2-.7.6-1.4 1.3-2.1 1.8-1.5 1.2-3.2 2.1-4.9 2.8s-3.5 1-5.3 1.3c-.9.1-1.7.2-2.6.3-.8.1-1.7.1-2.5.1h-2.3c-.8 0-1.5 0-2.2-.1-1.4-.1-2.7-.2-3.8-.3s-2.1-.2-2.9-.3c-1.6-.2-2.5-.3-2.5-.3s.9.1 2.6.2c.8.1 1.8.1 2.9.2s2.4.1 3.8.2h4.5c.8 0 1.6-.1 2.4-.2s1.7-.2 2.5-.3c1.7-.3 3.5-.6 5.1-1.3 1.7-.7 3.3-1.6 4.7-2.7l2.1-1.8c.6-.6 1.2-1.3 1.7-2.1 1-1.5 1.8-3.1 2.5-4.7 1.4-3.2 2.4-6.3 3.2-9s1.4-4.9 1.9-6.5c.4-1.6.7-2.5.7-2.5"/><path fill="#66e9ed" d="M166.9 143.5s-8 1.7-11.2 5.1c-3.3 3.4-.5 4.2-.5 4.2s-3.9 1.9-3.8 3.2 1.4.7-.9 3.4-.5 4.2.4 4.2c0 0-2.7 4.1-.6 4.3s3.6-4.1 6.4-4c0 .1 6.4-15.8 10.2-20.4"/><path fill="#35b7db" d="M166.9 143.5s-.9.3-2.3.7c-.7.2-1.5.5-2.3.8s-1.7.7-2.6 1.1-1.7.9-2.4 1.4c-.4.2-.7.5-1 .8-.3.2-.6.5-.8.8-.3.2-.4.5-.6.7s-.3.4-.4.6l-.3.6s.1-.2.2-.6c.1-.2.2-.5.3-.7.2-.2.3-.6.6-.8.3-.3.5-.6.8-.9s.6-.6 1-.9c.7-.5 1.6-1.1 2.5-1.5s1.8-.8 2.7-1.1 1.7-.5 2.4-.7c1.2-.3 2.2-.3 2.2-.3M155.2 152.8s-.3.2-.7.5-1 .6-1.5 1c-.3.2-.5.3-.8.5-.2.2-.4.4-.6.5-.1.2-.2.3-.3.5v.2s0-.1-.1-.2v-.3c0-.1 0-.2.1-.4.1-.3.3-.5.5-.8.2-.2.5-.4.8-.6.6-.4 1.2-.6 1.7-.7.5-.2.9-.2.9-.2M151.2 158.4l-.6.9c-.2.3-.3.6-.5.9s-.3.7-.4 1c-.1.2-.1.3-.1.5s0 .3.1.5c0 .1.1.3.2.4s.2.3.3.4l.3.3c.1.1.2.1.3.2l.2.2s-.1 0-.3-.1c-.1 0-.2-.1-.3-.1s-.2-.1-.4-.2c-.1-.1-.3-.2-.4-.3s-.3-.3-.3-.5c-.1-.2-.1-.4-.1-.7 0-.2 0-.5.1-.7.2-.9.8-1.5 1.3-2 .2-.5.6-.7.6-.7M156.7 164h-.2c-.1 0-.3.1-.6.2-.4.2-1 .6-1.5 1s-1 .8-1.5 1.1c-.4.3-.7.5-.7.5s.2-.3.5-.8c.3-.4.8-.9 1.3-1.4.3-.2.6-.4.9-.5l.9-.3h.7z"/><g fill="#66e9ed"><path d="M157.6 170.5s-.2.6-.4 1.5c-.1.4-.2 1-.2 1.5s.1 1.1.4 1.4c.2.2.4.3.7.3.3.1.5.1.8.1.6 0 1.1-.1 1.5-.2s.8-.2 1.1-.2c.3-.1.4-.1.4-.1s-.5.3-1.4.7c-.4.2-1 .3-1.6.4h-1c-.3 0-.7-.2-1-.5s-.4-.6-.5-1c-.1-.3-.1-.7 0-1 .1-.6.3-1.2.4-1.6.4-.8.8-1.3.8-1.3M161.8 174.9s-.2.6-.4 1.5c-.1.4-.2 1-.2 1.5s.1 1.1.4 1.4c.2.2.4.3.7.3.3.1.5.1.8.1.6 0 1.1-.1 1.5-.2s.8-.2 1.1-.2c.3-.1.4-.1.4-.1s-.5.3-1.4.7c-.4.2-1 .3-1.6.4h-1c-.3 0-.7-.2-1-.5s-.4-.6-.5-1c-.1-.3-.1-.7 0-1 .1-.6.3-1.2.4-1.6.4-.8.8-1.3.8-1.3"/><path d="M161.2 179.9s-.2.6-.4 1.5c-.1.4-.2 1-.2 1.5s.1 1.1.4 1.4c.2.2.4.3.7.3.3.1.5.1.8.1.6 0 1.1-.1 1.5-.2s.8-.2 1.1-.2c.3-.1.4-.1.4-.1s-.5.3-1.4.7c-.4.2-1 .3-1.6.4h-1c-.3 0-.7-.2-1-.5s-.4-.6-.5-1c-.1-.3-.1-.7 0-1 .1-.6.3-1.2.4-1.6.4-.8.8-1.3.8-1.3M156.8 175.7s-.2.6-.4 1.5c-.1.4-.2 1-.2 1.5s.1 1.1.4 1.4c.2.2.4.3.7.3.3.1.5.1.8.1.6 0 1.1-.1 1.5-.2s.8-.2 1.1-.2c.3-.1.4-.1.4-.1s-.5.3-1.4.7c-.4.2-1 .3-1.6.4h-1c-.3 0-.7-.2-1-.5s-.4-.6-.5-1c-.1-.3-.1-.7 0-1 .1-.6.3-1.2.4-1.6.5-.8.8-1.3.8-1.3M204.4 164.9s-.3.4-1 1c-.3.3-.7.6-1.2.8-.2.1-.5.2-.8.3s-.6.1-1-.1c-.3-.2-.5-.5-.6-.8s-.1-.6-.1-.9c0-.5.1-1 .2-1.4.2-.8.4-1.3.4-1.3v.4c0 .2 0 .6-.1 1 0 .4-.1.9 0 1.4 0 .5.2 1 .5 1.2s.9 0 1.3-.1q.75-.3 1.2-.6c.7-.6 1.2-.9 1.2-.9"/><path d="M203.9 160.8s-.3.4-1 1c-.3.3-.7.6-1.2.8-.2.1-.5.2-.8.3s-.6.1-1-.1c-.3-.2-.5-.5-.6-.8s-.1-.6-.1-.9c0-.5.1-1 .2-1.4.2-.8.4-1.3.4-1.3v.4c0 .2 0 .6-.1 1 0 .4-.1.9 0 1.4 0 .5.2 1 .5 1.2s.9 0 1.3-.1q.75-.3 1.2-.6c.7-.6 1.2-.9 1.2-.9M196.1 164.4s-.3.4-1 1c-.3.3-.7.6-1.2.8-.2.1-.5.2-.8.3s-.6.1-1-.1c-.3-.2-.5-.5-.6-.8s-.1-.6-.1-.9c0-.5.1-1 .2-1.4.2-.8.4-1.3.4-1.3v.4c0 .2 0 .6-.1 1 0 .4-.1.9 0 1.4 0 .5.2 1 .5 1.2s.9 0 1.3-.1q.75-.3 1.2-.6c.7-.6 1.2-.9 1.2-.9"/><path d="M200 162.7s-.3.4-1 1c-.3.3-.7.6-1.2.8-.2.1-.5.2-.8.3s-.6.1-1-.1c-.3-.2-.5-.5-.6-.8s-.1-.6-.1-.9c0-.5.1-1 .2-1.4.2-.8.4-1.3.4-1.3v.4c0 .2 0 .6-.1 1 0 .4-.1.9 0 1.4 0 .5.2 1 .5 1.2s.9 0 1.3-.1q.75-.3 1.2-.6c.7-.6 1.2-.9 1.2-.9M171.8 135.7s-.1.1-.2.4c-.1.2-.2.6-.4 1-.1.4-.3.9-.3 1.5 0 .5.1 1.1.5 1.3.4.3 1 .4 1.5.4s1.1 0 1.5-.1c.9-.1 1.5-.2 1.5-.2s-.6.3-1.4.5c-.5.1-1 .2-1.6.3-.6 0-1.3 0-1.9-.5-.3-.2-.5-.6-.6-.9s-.1-.7 0-1c.1-.6.3-1.1.5-1.5.5-.8.9-1.2.9-1.2"/><path d="M172.7 131.2s-.1.1-.2.4c-.1.2-.2.6-.4 1-.1.4-.3.9-.3 1.5 0 .5.1 1.1.5 1.3.4.3 1 .4 1.5.4s1.1 0 1.5-.1c.9-.1 1.5-.2 1.5-.2s-.6.3-1.4.5c-.5.1-1 .2-1.6.3-.6 0-1.3 0-1.9-.5-.3-.2-.5-.6-.6-.9s-.1-.7 0-1c.1-.6.3-1.1.5-1.5.4-.7.9-1.2.9-1.2M175.4 200.5s-.3.4-.8 1c-.3.3-.6.6-1 .9-.2.1-.4.3-.7.4-.2.1-.6.2-.9 0s-.4-.6-.5-.8v-.8c.1-.5.2-.9.3-1.3.2-.7.5-1.2.5-1.2s0 .1-.1.3c0 .2-.1.5-.2.9s-.1.8-.1 1.3v.7c0 .2.1.4.2.4.1.1.3 0 .5 0l.6-.3c.4-.2.8-.5 1-.7.8-.5 1.2-.8 1.2-.8"/><path d="M175.1 196.5s-.3.4-.8 1c-.3.3-.6.6-1 .9-.2.1-.4.3-.7.4-.2.1-.6.2-.9 0s-.4-.6-.5-.8v-.8c.1-.5.2-.9.3-1.3.2-.7.5-1.2.5-1.2s0 .1-.1.3c0 .2-.1.5-.2.9s-.1.8-.1 1.3v.7c0 .2.1.4.2.4.1.1.3 0 .5 0l.6-.3c.4-.2.8-.5 1-.7.8-.5 1.2-.8 1.2-.8"/><path d="M175.1 192.4s-.3.4-.8 1c-.3.3-.6.6-1 .9-.2.1-.4.3-.7.4-.2.1-.6.2-.9 0s-.4-.6-.5-.8v-.8c.1-.5.2-.9.3-1.3.2-.7.5-1.2.5-1.2s0 .1-.1.3c0 .2-.1.5-.2.9s-.1.8-.1 1.3v.7c0 .2.1.4.2.4.1.1.3 0 .5 0l.6-.3c.4-.2.8-.5 1-.7.8-.5 1.2-.8 1.2-.8"/><path d="M178.6 190.6s-.3.4-.8 1c-.3.3-.6.6-1 .9-.2.1-.4.3-.7.4-.2.1-.6.2-.9 0s-.4-.6-.5-.8v-.8c.1-.5.2-.9.3-1.3.2-.7.5-1.2.5-1.2s0 .1-.1.3c0 .2-.1.5-.2.9s-.1.8-.1 1.3v.7c0 .2.1.4.2.4.1.1.3 0 .5 0l.6-.3c.4-.2.8-.5 1-.7.8-.5 1.2-.8 1.2-.8M134.9 203.6s-.7.2-1.7.4c-.5.1-1.1.1-1.8.1s-1.4-.1-2.1-.4c-.3-.2-.7-.6-.7-1s.1-.8.3-1.1.4-.6.6-.8l.6-.6c.8-.7 1.4-1 1.4-1s-.1.1-.3.4c-.2.2-.5.6-.8.9-.3.4-.7.9-1 1.4-.1.3-.2.5-.2.8 0 .2.2.4.4.5.5.3 1.2.4 1.8.4.6.1 1.2.1 1.7.1 1.1-.1 1.8-.1 1.8-.1"/><path d="M128.7 202.1s-.7.2-1.7.4c-.5.1-1.1.1-1.8.1s-1.4-.1-2.1-.4c-.3-.2-.7-.6-.7-1s.1-.8.3-1.1.4-.6.6-.8l.6-.6c.8-.7 1.4-1 1.4-1s-.1.1-.3.4c-.2.2-.5.6-.8.9-.3.4-.7.9-1 1.4-.1.3-.2.5-.2.8 0 .2.2.4.4.5.5.3 1.2.4 1.8.4.6.1 1.2.1 1.7.1 1.1 0 1.8-.1 1.8-.1M95.9 197.1s-.5.1-1.1.2c-.3.1-.7.2-1.1.3s-.8.2-1.1.5c-.2.1-.2.2-.3.3 0 .1 0 .3.1.4.2.3.5.6.7.9.2.2.4.5.6.6l.2.2s-.4-.2-1.1-.5c-.2-.1-.3-.2-.5-.3s-.3-.3-.5-.5c-.1-.2-.3-.5-.2-.8 0-.4.3-.6.5-.8.5-.3 1-.4 1.4-.5s.9-.1 1.2-.1c.8 0 1.2.1 1.2.1"/><path d="M94 194.8s-.5.1-1.1.2c-.3.1-.7.2-1.1.3s-.8.2-1.1.5c-.2.1-.2.2-.3.3 0 .1 0 .3.1.4.2.3.5.6.7.9.2.2.4.5.6.6l.2.2s-.4-.2-1.1-.5c-.2-.1-.3-.2-.5-.3s-.3-.3-.5-.5c-.1-.2-.3-.5-.2-.8 0-.4.3-.6.5-.8.5-.3 1-.4 1.4-.5s.9-.1 1.2-.1c.7 0 1.2.1 1.2.1M89.7 195.4s-.5.1-1.1.2c-.3.1-.7.2-1.1.3s-.8.2-1.1.5c-.2.1-.2.2-.3.3 0 .1 0 .3.1.4.2.3.5.6.7.9.2.2.4.5.6.6l.2.2s-.4-.2-1.1-.5c-.2-.1-.3-.2-.5-.3s-.3-.3-.5-.5c-.1-.2-.3-.5-.2-.8 0-.4.3-.6.5-.8.5-.3 1-.4 1.4-.5s.9-.1 1.2-.1c.8 0 1.2.1 1.2.1M182.1 164.9s-.5.5-1.3 1.1c-.4.3-.9.6-1.6.8-.3.1-.6.2-1 .2s-.8 0-1.1-.2c-.4-.2-.6-.6-.7-.9-.1-.4-.2-.7-.2-1 0-.7.1-1.3.2-1.8.2-1 .5-1.6.5-1.6v.5c0 .3-.1.7-.1 1.2v1.7c.1.6.3 1.2.7 1.5s1.1.2 1.7 0q.9-.3 1.5-.6c.8-.6 1.4-.9 1.4-.9M159.2 213.8s-.6.4-1.6.7c-.5.2-1.1.4-1.7.5-.3 0-.7.1-1.1 0-.4 0-.8-.2-1.1-.5s-.4-.8-.4-1.2.1-.7.2-1.1c.2-.6.6-1.2.8-1.6.6-.9 1.1-1.4 1.1-1.4s-.3.6-.7 1.6c-.1.2-.2.5-.3.8s-.2.6-.3.8c-.1.3-.1.6-.1.9s.1.6.2.7c.4.4 1.1.4 1.7.3.6 0 1.2-.1 1.7-.2 1-.1 1.6-.3 1.6-.3M111.4 208.1s-.5.1-1.3.4c-.4.1-.8.2-1.2.4s-.9.4-1 .7.2.7.6 1c.3.3.7.6 1 .8s.6.4.8.5.3.2.3.2-.5-.1-1.2-.4c-.4-.2-.8-.4-1.2-.7-.2-.2-.4-.3-.6-.6-.2-.2-.3-.6-.2-1s.4-.6.6-.7c.2-.2.5-.2.7-.3.5-.2 1-.2 1.4-.3z"/></g><path fill="#66e9ed" d="M207.2 132.2c-.1-2.8 2.8-4.2 4.9-4.9 3.7-1.3 5-7 5-7s10 12.2 4.6 12.6c0 0 .6 3.7-.9 3.5s-3.2-.7-3.3 2.4-2.3 1.3-2.8-.5c0 0-.5 3.3-2.3.2 0 0-.4 3.8-1.4 1.8s-1-6-2-3.6c-1 2.2-1.6-1.4-1.8-4.5"/><path fill="#35b7db" d="M217.2 120.3s.7.7 1.6 1.8c.4.6 1 1.2 1.5 2q.75 1.05 1.5 2.4c.5.8.9 1.7 1.3 2.6.2.4.3.9.4 1.3s.1.8.1 1.2-.2.7-.4 1c-.2.2-.5.3-.7.4s-.4 0-.5.1h-.2.2c.1 0 .3 0 .5-.1s.4-.2.6-.4.3-.5.3-.8c0-.7-.3-1.5-.6-2.3s-.8-1.6-1.3-2.5l-1.5-2.4c-.5-.7-1-1.4-1.3-2-1-1.5-1.5-2.3-1.5-2.3M220.9 136.3s-.5-.1-1.2-.1c-.3 0-.7.1-1.1.3-.3.2-.5.6-.6 1 0 .4-.1 1-.2 1.4-.1.5-.2.9-.4 1.2-.1.2-.2.3-.4.4s-.3 0-.4 0c-.2-.1-.3-.2-.3-.2s.1 0 .3.1c.1 0 .2 0 .3-.1s.2-.2.2-.3c.1-.3.2-.7.2-1.1s0-.9.1-1.4c0-.5.4-1.1.8-1.3.5-.3 1-.2 1.3-.2.4 0 .7.2.9.3zM214.7 138.2s.1.2 0 .6c0 .2-.1.4-.2.6l-.3.3c-.1.1-.3.1-.5.1s-.3-.1-.4-.2-.2-.2-.3-.2c-.2-.2-.3-.4-.4-.5-.2-.3-.2-.6-.2-.6s.2.1.5.4c.1.1.3.2.5.3s.3.2.5.2h.2c.1 0 .1-.1.2-.1.1-.1.2-.3.3-.4 0-.3.1-.5.1-.5M211 140.2s-.2-.3-.5-.8-.5-1.2-.7-1.9c-.1-.4-.1-.7-.2-1.1 0-.2 0-.3-.1-.4v-.1s.1 0 0 0-.2.1-.2.2l-.2.2-.2.2s0-.1.1-.2c.1-.2.1-.4.4-.6.1-.1.3-.1.4 0s.2.2.2.3c.1.2.1.3.1.5.1.3.1.7.2 1 .2.7.3 1.4.4 1.9.2.4.3.8.3.8M207.5 131s0-.2.1-.7c.1-.2.2-.5.4-.7s.4-.5.7-.7c.6-.4 1.4-.8 2.2-1.2s1.6-.8 2.4-1.4c1.6-1 2.7-2.6 3.2-3.9.3-.7.4-1.2.5-1.6s.1-.6.1-.6v.7c-.1.4-.1 1-.3 1.7s-.5 1.5-1.1 2.3c-.5.8-1.3 1.5-2.1 2-.8.6-1.7 1-2.5 1.4s-1.6.7-2.2 1.1c-.3.2-.5.4-.7.6s-.3.4-.4.6c-.3.2-.3.4-.3.4"/><path fill="#66e9ed" d="M207.2 131.8c.9-2.7-3.6-3.2-6.8-5.1s-10.6.3-16.3-6.5c-2-2.4-7.5-13.8-7.5-13.8s-4.8-1.4-5.8.9c-.5 1 1.5 1.3 2.5 2.8.5.7-4.2 1.9-2.3 4.6 1.6 2.2 3.3.3 3.8 4.1.2 1.3 3.2-.1 3.2.4.1 1.9-1.3 8.5 2.7 8.1 0 0-1.9 3.3.8 3.8s5.8.6 5.3 3.7 3.8 2.2 5.1.6c0 0 .1 3.4 4 1.1 0 0-.2 3.9 2.1 2.4 2.2-1.5 3.1-5.4 4.4-2.7 1.3 2.5 3.9-1.4 4.8-4.4"/><path fill="#35b7db" d="M176.6 106.4h-3.7c-.9 0-1.8.2-2 .7-.1.3 0 .6 0 .8.1.2.1.3.1.3s-.1-.1-.2-.3-.3-.4-.2-.9c0-.4.4-.9.9-1 .4-.2.9-.3 1.4-.3 1 0 1.9.1 2.6.3s1.1.4 1.1.4M178.1 119.1v1.6c0 .9 0 2.2.1 3.4.1.6.2 1.2.4 1.7s.5.9.8 1.1c.2.1.4.2.5.2.2.1.3.1.5.1h.4s-.1.1-.4.1c-.1 0-.3.1-.5 0-.2 0-.4 0-.7-.1-.5-.2-.9-.7-1.2-1.2-.3-.6-.4-1.2-.5-1.8-.1-1.3 0-2.5.2-3.5s.4-1.6.4-1.6M181.6 131s.7-.1 1.7 0q.75 0 1.8.3c.6.2 1.3.5 1.8 1.2.2.3.3.8.2 1.2 0 .3-.1.6-.1.9 0 .6 0 1.2.3 1.5s.7.5 1 .5c.3.1.5.1.5.1s-.2 0-.5.1c-.3 0-.8 0-1.2-.4s-.6-1.1-.6-1.8v-1c0-.3 0-.5-.2-.8-.3-.5-.9-.8-1.4-1-.6-.2-1.1-.4-1.6-.5-1.1-.2-1.7-.3-1.7-.3M192 135.3s0 .1.1.2c0 .1.1.3.3.5.1.1.1.2.2.3s.2.2.3.2c.1.1.2.1.3.1s.3.1.4.1h.8c.3 0 .6-.1.8-.1.5-.1.8-.1.8-.1s-.3.2-.7.5c-.2.1-.5.3-.8.3-.2 0-.3.1-.5.1h-.5c-.2 0-.4 0-.5-.1-.2 0-.3-.2-.5-.3-.3-.2-.4-.6-.5-.8-.2-.6 0-.9 0-.9M198.1 138.7s.3-.3.7-.8.9-1.1 1.3-1.7c.1-.2.2-.3.3-.5s.2-.3.3-.5.3-.4.6-.4q.45 0 .6.3c.2.3.3.5.4.7s.1.3.1.3l-.2-.2-.5-.5c-.1-.1-.2-.1-.3-.1s-.1.1-.2.2c-.1.2-.2.4-.3.5-.1.2-.2.4-.3.5-.5.7-1.1 1.3-1.6 1.7s-.9.5-.9.5M207.3 131.3s0-.2-.1-.5-.3-.7-.7-1.1-1-.8-1.7-1.1c-.7-.4-1.6-.7-2.5-1.1q-1.35-.6-3-.9c-1.1-.3-2.3-.5-3.5-.6-1.2-.2-2.5-.3-3.8-.6s-2.6-.8-3.8-1.4c-.6-.4-1.2-.7-1.7-1.1-.3-.2-.5-.4-.8-.6-.2-.2-.5-.4-.7-.7-.9-1-1.7-2-2.3-3.1-1.3-2.1-2.3-4.2-3.2-6-.8-1.8-1.5-3.3-2-4.4l-.8-1.6s.3.6.9 1.6c.5 1 1.3 2.5 2.2 4.3s2 3.8 3.3 5.9c.7 1 1.4 2.1 2.3 3 .2.2.5.4.7.7.2.2.5.4.8.6.5.4 1.1.7 1.7 1 1.1.6 2.4 1.1 3.6 1.4s2.5.5 3.7.6c1.2.2 2.4.4 3.6.7 1.1.3 2.2.6 3.1 1s1.8.8 2.5 1.2 1.3.8 1.7 1.3q.6.75.6 1.2c0 .2-.1.3-.1.3M173.3 110.5s-.1.1-.4.3-.6.5-1 .8c-.4.4-.8.8-1 1.4-.1.3-.1.5 0 .8v.1s0 .1.1.1l.1.2.3.3c.5.4 1.1.8 1.7 1.2s1.1.9 1.3 1.3c.2.2.2.5.3.7 0 .2.1.4.1.6v.5s0-.2-.1-.5-.3-.7-.6-1.1-.8-.8-1.3-1.1q-.9-.45-1.8-1.2c-.1-.1-.3-.3-.4-.5l-.1-.2c0-.1 0 0-.1-.1l-.1-.1c-.2-.4-.1-.9 0-1.2.3-.7.8-1.1 1.3-1.4 1-.7 1.7-.9 1.7-.9"/></g></svg>