<svg xmlns="http://www.w3.org/2000/svg" xml:space="preserve" width="61.557" height="151.021" viewBox="6.895 4.775 61.557 151.021"><title>brownie-c</title><g fill-rule="nonzero"><path fill="#a2b04a" d="M55.8 92.2s2.6.2 4.7 2.7c1.4 1.7 3.3 2.7 2.6 3.1-1.2.8-3.3-1.9-3.3-1.9s1 2.7 1.3 3.6c.2.9.5 2.7 0 2.9-.8.5-1-.6-1.5-2.4 0 0 .3 1.6 0 2.5-.3.8-1.1 1.2-1.5.3 0 0-.3 1.6-1.7.1 0 0-1.2 1.1-1.9-2.9-.3-1.7-5.8-7.3 1.3-8"/><path fill="#698237" d="M56.3 103.1s.2-.3.2-.7c.1-.5.1-1.1 0-1.7s-.3-1.2-.5-1.6-.4-.6-.4-.6 0 .3.1.7.1 1 .2 1.6q.15.9.3 1.5c.1.5.1.8.1.8M58.2 103.2s.1-.3.2-.8q.15-.75 0-1.8c-.1-.6-.4-1.2-.6-1.7-.2-.4-.5-.7-.5-.7v.2c0 .1.1.3.1.6.1.4.2 1 .3 1.6q.3 1.2.3 1.8c.1.5.2.8.2.8M59.8 101.4s.1-.2.1-.6 0-.9-.1-1.3c-.1-.5-.3-.9-.5-1.3-.2-.3-.4-.5-.4-.5v.2c0 .1 0 .3.1.4 0 .4.1.8.2 1.3q.15.75.3 1.2c.2.3.3.6.3.6M56.6 92.4s.3.1.6.3c.4.2.8.5 1.3.9.5.3.9.7 1.3.9s.7.4.7.4-.1-.3-.4-.6c-.3-.4-.7-.8-1.2-1.1-.5-.4-1-.6-1.5-.7-.5-.2-.8-.1-.8-.1M59.8 96.1s-.3 0-.7-.1-.9-.2-1.3-.3c-.5-.1-.9-.3-1.3-.5-.2-.1-.3-.1-.4-.2-.1 0-.2-.1-.2-.1s.1.3.4.6c.1.2.3.3.6.4.2.1.5.2.8.3.5.2 1.1.1 1.5 0 .4 0 .6-.1.6-.1"/><path fill="#d1c1b4" d="M48.4 75c1.5-.2 3.5.9 4.9 3 .5.7.5 2.1 1.3 2.8 3.1 2.8 2.4 8 2.1 9.6-.6 2.9-6.5 3.5-8.6-.9-.6-1.3-2.2-4.8-3.4-6.9-1.9-3.4-.6-6.9 3.7-7.6"/><path fill="#d1c1b4" d="m55.8 89.7 1.4 2.4s-2.8 2-5.2 1.6l-1.3-3"/><path fill="#9e8b7b" d="M53.1 92.3h-.6c-.4 0-.9 0-1.5-.3-.6-.2-1.1-.7-1.6-1.3-.2-.3-.5-.7-.7-1s-.4-.7-.6-1.1c-.8-1.5-1.5-3.1-2.2-4.2-.3-.6-.6-1-.8-1.3s-.4-.5-.4-.5.4.8.9 2 1.1 2.8 1.9 4.4c.2.4.4.8.7 1.1.2.4.5.7.8 1 .5.6 1.2 1.2 1.9 1.3.7.2 1.2.1 1.6 0 .4 0 .6-.1.6-.1M53.6 78.8v.6c0 .4.2 1 .8 1.5.2.2.4.5.6.8s.4.7.5 1c.3.8.6 1.6.8 2.4.1.4.1.8.1 1.3s.1.9.1 1.3c.1.8.2 1.6 0 2.2-.1.6-.5 1-.8 1.2s-.6.2-.6.2h.2c.1 0 .3 0 .5-.1.4-.1.9-.5 1.1-1.2s.2-1.5.2-2.4c0-.4 0-.8-.1-1.3 0-.4 0-.9-.1-1.4-.2-.9-.5-1.8-.9-2.6-.2-.4-.4-.7-.7-1.1-.2-.3-.5-.6-.8-.8-.5-.3-.8-.8-.9-1.2.1-.2 0-.4 0-.4"/><path fill="#d1c1b4" d="M52.1 66.8c-.1-4-3.6-12.7-7.6-12s-5.7 3.9-4.5 11.8c.6 3.9 1.4 7.1 2.4 9.4.3.8.1 2 .5 2.6 1.3 1.9 3.4 2.3 4.9 2 2.2-.4 4.2-1.3 4.9-3.1.9-2.3-.5-2.8-.6-10.7"/><path fill="#9e8b7b" d="M41.1 56.5s0 .1-.1.2c-.1.2-.2.4-.4.7-.3.6-.7 1.5-1 2.7s-.4 2.6-.3 4.1.3 3.1.7 4.6c.3 1.5.7 3.1 1.2 4.5.2.7.5 1.4.8 2 .1.3.3.6.3.9.1.3.1.6.1.9.1.6.2 1.1.4 1.6.2.4.5.8.8 1s.6.3.8.3.3.1.3.1-.1 0-.3-.1c-.2 0-.4-.2-.7-.4s-.5-.5-.7-1c-.2-.4-.2-1-.3-1.5 0-.3 0-.6-.1-.9 0-.3-.2-.7-.3-1-.2-.6-.4-1.3-.6-2-.4-1.4-.7-2.9-1.1-4.5-.3-1.5-.6-3.1-.7-4.5s-.1-2.8.1-3.9.5-2.1.7-2.7c.2-.8.4-1.1.4-1.1M51.5 79.2s.2-.1.6-.4c.3-.3.7-.8 1-1.6.1-.4.2-.8.2-1.2s0-.9-.1-1.4c-.2-.9-.3-1.9-.4-2.9s-.3-2-.3-2.9c-.1-.9-.2-1.8-.3-2.5s-.2-1.4-.3-1.8-.2-.7-.2-.7v2.5c0 .7 0 1.6.1 2.6.1.9.2 1.9.3 2.9.1.5.1 1 .2 1.5s.2 1 .3 1.4.1.9.1 1.3 0 .8-.1 1.2c-.2.7-.5 1.2-.7 1.6-.2.3-.4.4-.4.4"/><path fill="#a2b04a" d="M45.7 118.7c2.7.9.6 14.7.2 16.9-.4 2.3-7.8 4.5-8.3-3.2-.6-7.8-.7-16.8 8.1-13.7"/><path fill="#778c3a" d="M38.3 121.2s-.2.2-.3.6c-.2.4-.4.9-.5 1.6q-.3 1.05-.3 2.4v2.8c.1.9.1 1.9.2 2.8s.3 1.7.4 2.4.3 1.3.4 1.7.2.6.2.6 0-.9-.1-2.3-.3-3.3-.3-5.1c-.1-.9-.1-1.9-.1-2.7v-1.3c0-.4 0-.8.1-1.1.1-.7.2-1.3.3-1.7-.1-.5 0-.7 0-.7"/><path fill="#17110b" d="m54.2 149.9-.1.9s-4.1 1.4-7.2.7-4.6-1.2-5.4-1.2l-.1.4s-2.5 0-4-.9l-.1-2.8c.8-.2 13.5-3.3 16.9 2.9"/><path fill="#4f3b26" d="M46.3 133s-3 2.6-8.8-.1c0 0 .2 9.7.2 11.5s-1.8 4.1 2.5 4.6 2.7 1.3 7.2 1.5 6.8-.6 6.8-.6.3-2.6-1.6-3.6-4-1.1-5.6-3.1c-1.5-1.9-.7-10.2-.7-10.2"/><path fill="#1f180e" d="M54.2 149.9s.1-.3.1-.9c0-.3 0-.6-.1-1.1-.1-.4-.3-.9-.7-1.2-.4-.4-.9-.6-1.5-.8-.5-.2-1.1-.4-1.7-.6-1.1-.4-2.3-1-3-2-.4-.5-.5-1.1-.6-1.7s-.1-1.3-.2-1.9c-.1-1.2-.1-2.4-.2-3.4-.1-2-.1-3.3-.1-3.3s-.1 1.3-.2 3.3v3.4c0 .6.1 1.3.2 1.9s.3 1.4.7 2 .9 1.1 1.5 1.4 1.2.6 1.8.8 1.2.4 1.7.5c.5.2 1 .3 1.4.6.3.3.5.7.7 1.1.1.4.2.7.2 1 .1.6 0 .9 0 .9M45.6 133.4s-.1 0-.3.1-.5.1-.8.2-.8.1-1.2.1h-1.4c-.5 0-.9-.1-1.4-.1-.4-.1-.8-.1-1.2-.2s-.6-.1-.8-.2c-.2 0-.3-.1-.3-.1s.1.1.3.2.5.3.8.4.7.3 1.2.4c.4.1.9.2 1.4.2s1 0 1.4-.1q.75-.15 1.2-.3c.7-.3 1.1-.6 1.1-.6M37.6 134.2s-.1 1-.1 2.6v7.3c0 .5-.1 1-.2 1.5s-.1 1-.1 1.5q0 .75.6 1.2c.3.3.7.5 1 .5.3.1.6.1.8.2h.7s-.3 0-.7-.1c-.2-.1-.5-.1-.8-.3-.3-.1-.6-.3-.8-.6s-.4-.6-.4-1.1c0-.4.1-.9.2-1.3.1-.5.2-1 .2-1.5v-1.6c0-1 0-2.1-.1-3.1 0-1-.1-1.9-.1-2.7-.1-1.4-.2-2.5-.2-2.5"/><path fill="#1f180e" d="M50 145.5s-.2 0-.5.1-.6.3-.9.5-.5.5-.7.8l-.2.4.4-.2c.1-.1.3-.1.4-.2s.3-.2.4-.3c.3-.2.5-.5.7-.7.3-.2.4-.4.4-.4M47.1 143.3s-.2-.1-.4-.1c-.3 0-.6 0-.9.1-.2.1-.3.1-.4.2l-.3.3c-.2.2-.2.4-.2.4s.7-.1 1.2-.3c.1-.1.3-.1.4-.1s.3-.1.4-.2c0-.2.2-.3.2-.3M46.3 139.8h-1.5c-.7 0-1.4.1-1.4.1s.2.1.4.3c.3.1.6.2 1 .2.2 0 .4 0 .6-.1.2 0 .3-.1.5-.2.3-.1.4-.3.4-.3M46.2 135.8h-.9c-.2 0-.3 0-.5.1-.3 0-.7.1-.9.1h-.4s.1.2.4.3c.1.1.3.1.5.1h.6c.4 0 .7-.2 1-.4zM41.4 149s.1-.4.1-1c0-.3-.1-.7-.2-1.1s-.3-.8-.6-1.1c-.1-.2-.3-.3-.4-.5s-.3-.3-.5-.4-.4-.2-.5-.3c-.2-.1-.3-.1-.5-.2-.3-.1-.6-.1-.8-.1h-.3s.4.1.9.4c.1.1.3.1.4.2s.3.2.4.3c.3.2.6.5.8.8l.6.9c.2.3.3.6.4.9.2.8.2 1.2.2 1.2"/><path fill="#a2b04a" d="M48.8 109.4c-.6 4.7-.6 14-4.1 13.9-8.3-.1-9.5-12.5-6.8-18.5 2.6-6 11.9-4.3 10.9 4.6"/><path fill="#778c3a" d="M36.3 111.4s-.1.5 0 1.3c0 .8.1 1.8.4 2.9.2 1 .6 2 1 2.7.1.2.2.3.3.5l.3.3c.2.2.2.3.2.3s0-.1-.1-.3c-.1-.1-.1-.2-.2-.4 0-.2-.1-.3-.2-.5-.2-.7-.5-1.7-.7-2.7s-.5-2-.6-2.8c-.3-.8-.4-1.3-.4-1.3M48.6 110.7s-.1.7-.3 1.7-.3 2.4-.5 3.8c-.1.7-.2 1.4-.3 2s-.2 1.2-.3 1.7q-.15.75-.3 1.2c-.1.3-.2.4-.2.4s.1-.1.3-.4q.3-.45.6-1.2c.4-1 .6-2.4.8-3.7.2-1.4.2-2.8.2-3.8.1-1 0-1.7 0-1.7"/><path fill="#4f3b26" d="M52.5 113c.8-11-.6-22.3-5.8-24-10.8-3.4-13.8 5.9-14.4 23.4 5.4 1.8 14.6 2.1 20.2.6"/><path fill="#1f180e" d="M52.5 113s-1.3.2-3.2.4c-.9.1-2.1.1-3.2.2-1.2.1-2.5.1-3.7 0-.6 0-1.3-.1-1.9-.1s-1.2-.1-1.8-.2-1.2-.1-1.7-.2-1.1-.1-1.5-.2c-.9-.1-1.7-.3-2.3-.4s-.9-.2-.9-.2.3.1.8.3 1.3.4 2.2.6l1.5.3c.5.1 1.1.2 1.7.3s1.2.2 1.8.2 1.3.1 1.9.1c1.3 0 2.6 0 3.8-.1s2.3-.2 3.3-.4c1.9-.2 3.2-.6 3.2-.6M52.5 110.1s-1.2.3-3.1.5c-.9.1-2 .2-3.2.3s-2.4.1-3.7 0c-.6 0-1.3-.1-1.9-.1s-1.2-.1-1.8-.2-1.1-.2-1.7-.2l-1.5-.3c-.5-.1-.9-.2-1.3-.2-.4-.1-.7-.2-1-.2-.5-.1-.9-.2-.9-.2s.3.1.8.3 1.3.5 2.2.7c.5.1 1 .3 1.5.4s1.1.2 1.7.3 1.2.2 1.8.2 1.3.1 1.9.1c1.3 0 2.6 0 3.8-.1.6 0 1.2-.1 1.7-.2s1.1-.2 1.5-.3c2-.3 3.2-.8 3.2-.8"/><path fill="#25592d" d="M34.2 96.3s-.3.9-.6 2.2c-.3 1.4-.7 3.2-1 5s-.4 3.7-.4 5.1.1 2.3.1 2.3.1-.9.3-2.3.4-3.2.7-5 .5-3.7.7-5c.1-1.4.2-2.3.2-2.3"/><path fill="#1f180e" d="M52.5 112s.1-.6.2-1.4c.1-.9.2-2 .1-3.1 0-.6 0-1.1-.1-1.7 0-.5-.1-1-.2-1.5-.2-.9-.4-1.4-.4-1.4s.1.6.1 1.4v4.8c0 .5.1 1 .1 1.5.1.8.2 1.4.2 1.4"/><path fill="#4f3b26" d="M48.1 82.5c2.2 3.7 5.2 12.5 2.3 17.1-5.7 9.2-30.6 10.1-33.2-.4s3.4-17.8 3.4-17.8 22.8-7 27.5 1.1"/><path fill="#1f180e" d="M45.4 103.8s-.9.4-2.3.8c-.7.2-1.5.5-2.4.7s-1.8.5-2.8.6c-1 .2-1.9.4-2.9.5-.9.1-1.8.2-2.5.2s-1.4.1-1.8.1H30s.2 0 .7.1c.4.1 1.1.1 1.8.2h1.2c.4 0 .9 0 1.4-.1.9-.1 1.9-.2 2.9-.4s1.9-.5 2.8-.7q1.35-.45 2.4-.9c.7-.3 1.2-.6 1.6-.8zM50.1 87.3s-.5.3-1.3.6c-.8.4-2.1.8-3.6 1.2s-3.3.8-5.3 1.1c-1.9.3-4 .6-6.1.6-2.1.1-4.2 0-6.1-.3-1-.1-1.9-.4-2.8-.6-.9-.3-1.7-.5-2.4-.9-.7-.3-1.3-.7-1.9-1-.3-.2-.5-.4-.7-.5-.2-.2-.4-.3-.6-.5-.4-.3-.6-.6-.8-.8l-.3-.3s.1.1.2.3c.2.2.4.5.7.8l.5.5c.2.2.5.4.7.6q.75.6 1.8 1.2c.7.4 1.5.7 2.4 1s1.8.5 2.8.7c2 .3 4.1.4 6.2.4 2.1-.1 4.2-.4 6.2-.7 2-.4 3.7-.9 5.3-1.3 1.5-.5 2.7-1 3.6-1.4 1.1-.4 1.5-.7 1.5-.7"/><path fill="#d1c1b4" d="M47.6 68.2c.2 6.6 3.8 11.4 1.7 15.6s-23.3 7.4-29.4 1-2.3-24.9 1.4-28.6c4.8-4.8 25.7-6.8 26.3 12"/><path fill="#9e8b7b" d="M24.6 87.4s-.3-.1-.9-.4c-.3-.1-.7-.3-1-.5l-.6-.3c-.2-.1-.4-.2-.7-.4-.4-.3-.9-.7-1.3-1.1s-.8-1-1.1-1.5c-.1-.3-.3-.6-.4-.9s-.2-.7-.3-1-.2-.7-.2-1c-.1-.4-.1-.7-.2-1.1 0-.7-.2-1.4-.1-2.1 0-.7 0-1.4.1-2.1s.1-1.3.2-1.9.2-1.2.2-1.7c.1-1.1.3-2 .4-2.6s.2-1 .2-1-.1.3-.3 1c-.1.6-.5 1.5-.7 2.6-.1.5-.2 1.1-.3 1.7s-.2 1.3-.3 2-.1 1.4-.1 2.1.1 1.5.1 2.2c0 .4.1.7.2 1.1s.1.7.3 1.1c.1.3.2.7.4 1s.3.6.5 1c.4.6.8 1.2 1.2 1.6.5.4 1 .8 1.4 1.1.5.3 1 .5 1.4.6.4.2.8.3 1.1.4.4.1.8.1.8.1"/><path fill="#4f3b26" d="M31.2 90.5s3-31.8-4.2-36.9l-2.1.7s7.2 8.9 3.9 36zM49.1 86.9s2.1-25.5-5.7-29.6c0 0 4.2 5.3 3.1 30.4z"/><path fill="#a2b04a" d="M29.1 122.1c2.8 1 .2 14.8-.2 17.1s-7.8 4.5-8.3-3.2c-.6-7.8-.9-17.2 8.5-13.9"/><path fill="#778c3a" d="M21.3 124.5s-.2.2-.3.6c-.2.4-.4 1-.5 1.7s-.3 1.5-.3 2.4v2.8c.1 1 .1 1.9.2 2.8s.3 1.7.4 2.4.3 1.3.4 1.7.2.6.2.6 0-1-.1-2.4-.3-3.3-.3-5.2c0-.9-.1-1.9-.1-2.8s0-1.7.1-2.4.2-1.3.3-1.7c-.1-.3 0-.5 0-.5"/><path fill="#17110b" d="m37.2 153.5-.1.9s-4.1 1.4-7.2.7-4.6-1.2-5.4-1.2l-.1.4s-2.5 0-4-.9l-.1-2.8c.8-.2 13.5-3.3 16.9 2.9"/><path fill="#4f3b26" d="M29.3 136.6s-3 2.6-8.8-.1c0 0 .2 9.7.2 11.5s-1.8 4.1 2.5 4.6 2.7 1.3 7.2 1.5 6.8-.6 6.8-.6.3-2.6-1.6-3.6-4-1.1-5.6-3.1-.7-10.2-.7-10.2"/><path fill="#1f180e" d="M37.2 153.5s.1-.3.1-.9c0-.3 0-.6-.1-1.1-.1-.4-.3-.9-.7-1.2-.4-.4-.9-.6-1.5-.8-.5-.2-1.1-.4-1.7-.6-1.1-.4-2.3-1-3-2-.4-.5-.5-1.1-.6-1.7s-.1-1.3-.2-1.9c-.1-1.2-.1-2.4-.2-3.4-.1-2-.1-3.3-.1-3.3s-.1 1.3-.2 3.3c0 1-.1 2.1 0 3.4 0 .6.1 1.3.2 1.9s.3 1.4.7 2 .9 1.1 1.5 1.4 1.2.6 1.8.8 1.2.4 1.7.5c.5.2 1 .3 1.4.6.3.3.5.7.7 1.1.1.4.2.7.2 1zM28.6 137s-.1 0-.3.1-.5.1-.8.2-.8.1-1.2.1h-1.4c-.5 0-.9-.1-1.4-.1-.4-.1-.8-.1-1.2-.2s-.6-.1-.8-.2c-.2 0-.3-.1-.3-.1s.1.1.3.2.4.3.8.4c.3.1.7.3 1.2.4.4.1.9.2 1.4.2s1 0 1.4-.1q.75-.15 1.2-.3c.7-.3 1.1-.6 1.1-.6M20.6 137.8s-.1 1-.1 2.6v7.3c0 .5-.1 1-.2 1.5s-.1 1-.1 1.5.2.9.5 1.2.7.5 1 .5c.3.1.6.1.8.2h.7s-.3 0-.7-.1c-.2-.1-.5-.1-.8-.3-.3-.1-.6-.3-.8-.6s-.4-.6-.4-1.1c0-.4.1-.9.2-1.3.1-.5.2-1 .2-1.5v-1.6c0-1 0-2.1-.1-3.1 0-1-.1-1.9-.1-2.7 0-1.5-.1-2.5-.1-2.5"/><path fill="#1f180e" d="M33 149.1s-.2 0-.5.1-.6.3-.9.5-.5.5-.7.8l-.2.4.4-.2c.1-.1.3-.1.4-.2s.3-.2.4-.3c.3-.2.5-.5.7-.7zM30.1 146.8s-.2-.1-.4-.1c-.3 0-.6 0-.9.1-.2.1-.3.1-.4.2l-.3.3c-.2.2-.2.4-.2.4s.7-.1 1.2-.3c.1-.1.3-.1.4-.1s.3-.1.4-.2c0-.2.2-.3.2-.3M29.3 143.4h-1.5c-.7 0-1.4.1-1.4.1s.2.1.4.3c.3.1.6.2 1 .2.2 0 .4 0 .6-.1.2 0 .3-.1.5-.2.3-.1.4-.3.4-.3M29.2 139.4h-.9c-.2 0-.3 0-.5.1-.3 0-.7.1-.9.1h-.4s.1.2.4.3c.1.1.3.1.5.1h.6c.4 0 .7-.2 1-.4zM24.4 152.6s.1-.4.1-1c0-.3-.1-.7-.2-1.1s-.3-.8-.6-1.1c-.1-.2-.3-.3-.4-.5s-.3-.3-.5-.4-.4-.2-.5-.3c-.2-.1-.3-.1-.5-.2-.3-.1-.6-.1-.8-.1h-.3s.4.1.9.4c.1.1.3.1.4.2s.3.2.4.3c.3.2.6.5.8.8s.4.6.6 1c.1.3.3.6.4.9.2.7.2 1.1.2 1.1"/><path fill="#a2b04a" d="M31.8 113c-.6 4.7-.6 14-4.1 13.9-8.3-.1-9.5-12.5-6.8-18.5 2.6-6.1 12-4.3 10.9 4.6"/><path fill="#778c3a" d="M19.3 114.9s-.1.5 0 1.3c0 .8.1 1.8.4 2.9.2 1 .6 2 1 2.7.1.2.2.3.3.5l.3.3c.2.2.2.3.2.3s0-.1-.1-.3c-.1-.1-.1-.2-.2-.4 0-.2-.1-.3-.2-.5-.2-.7-.5-1.7-.7-2.7s-.5-2-.6-2.8c-.2-.7-.4-1.3-.4-1.3M31.6 114.2s-.1.7-.3 1.6c-.1 1-.3 2.3-.5 3.6-.1.6-.2 1.3-.2 1.9-.1.6-.2 1.2-.3 1.6-.1.5-.2.9-.3 1.1-.1.3-.2.4-.2.4l.3-.3c.2-.2.4-.6.5-1.1.4-.9.6-2.3.8-3.6s.2-2.6.2-3.6c.1-.9 0-1.6 0-1.6"/><path fill="#4f3b26" d="M35.5 116.6c.8-11-2.7-22.9-7.9-24.6-10.8-3.4-11.7 6.5-12.3 24 5.4 1.7 14.7 2.1 20.2.6"/><path fill="#1f180e" d="M35.5 116.6s-1.3.2-3.2.4c-.9.1-2.1.1-3.2.2h-3.7c-.6 0-1.3-.1-1.9-.1s-1.2-.1-1.8-.2-1.2-.1-1.7-.2-1.1-.1-1.5-.2c-.9-.1-1.7-.3-2.3-.4s-.9-.2-.9-.2.3.1.8.3 1.3.4 2.2.6l1.5.3c.5.1 1.1.2 1.7.3s1.2.2 1.8.2 1.3.1 1.9.1c1.3 0 2.6 0 3.8-.1s2.3-.2 3.3-.4c2-.2 3.2-.6 3.2-.6M35.5 113.7s-1.2.3-3.1.5c-.9.1-2 .2-3.2.3s-2.4.1-3.7 0c-.6 0-1.3-.1-1.9-.1s-1.2-.1-1.8-.2-1.1-.2-1.7-.2l-1.5-.3c-.5-.1-.9-.2-1.3-.2-.4-.1-.7-.2-1-.2-.5-.1-.9-.2-.9-.2s.3.1.8.3 1.3.5 2.2.7c.5.1 1 .3 1.5.4s1.1.2 1.7.3 1.2.2 1.8.2 1.3.1 1.9.1c1.3 0 2.6 0 3.8-.1.6 0 1.2-.1 1.7-.2s1.1-.2 1.5-.3c2-.3 3.2-.8 3.2-.8"/><path fill="#1f180e" d="M16.7 99.6s-.2.9-.5 2.3c-.1.7-.3 1.5-.4 2.4l-.3 2.7c-.1.9-.1 1.9-.2 2.8s-.1 1.7-.1 2.4c0 1.4.1 2.4.1 2.4s0-.2.1-.6c0-.4.1-1 .2-1.7.1-1.4.3-3.3.5-5.1.1-.9.2-1.9.2-2.7.1-.9.1-1.7.2-2.4.1-1.6.2-2.5.2-2.5M35.6 115.6s.1-.6.2-1.4c.1-.9.2-2 .1-3.1 0-.6 0-1.1-.1-1.7 0-.5-.1-1-.2-1.5-.2-.9-.4-1.4-.4-1.4s.1.6.1 1.4v4.8c0 .5.1 1 .1 1.5.1.8.2 1.4.2 1.4"/><path fill="#a2b04a" d="M13.9 95.7s1.9 1.4 1.8 4.6c-.1 2.1.6 3.8-.1 3.9-1.5.1-1.3-3.2-1.3-3.2s-1.2 2.9-.7 4.1c.4.9 0 2.4-.5 2.5-.6.1-1.1-2-1.4-3.4 0 0 .1 1.6 0 2.6-.2 1-.6 1.3-1.2.2 0 0-1.1 1.5-1.7-1.8 0 0-.9.2-1-1.5-.2-1.8.1-10.7 6.1-8"/><path fill="#698237" d="M12.7 107.2s-.1-.3-.2-.9c-.1-.5-.2-1.2-.3-1.9 0-.3 0-.7-.1-1v-1.9s-.2.3-.3.9c-.2.5-.3 1.3-.2 2 0 .4.1.7.2 1.1.1.3.2.6.4.9.2.6.5.8.5.8M10.4 107s-.1-.3-.1-.8c-.1-.5-.1-1.1-.1-1.8v-2.6s-.2.3-.3.8c-.2.5-.3 1.2-.3 1.9s.2 1.4.4 1.8.4.7.4.7M8.7 105.2s.1-.3.1-.6c.1-.4.1-.9.1-1.4v-2s-.2.2-.3.6-.2.9-.2 1.4.1 1 .2 1.4c-.1.4.1.6.1.6M14.5 96.3s.1 0 0 0c.2.2.2.3.3.5.1.4.2.8.4 1.3.1.5.2 1 .4 1.4.1.4.2.6.2.6s.1-.3.1-.7 0-1-.1-1.5-.4-1.1-.7-1.4c-.3-.2-.6-.2-.6-.2"/><path fill="#d1c1b4" d="M17.2 76.2c1.4.5 2.5 2.6 2.5 5.3 0 .9-.7 2.2-.4 3.3 1.1 4.2-2.4 8.7-3.5 10-2.1 2.4-7.5-.1-6.8-5.3.2-1.5.8-5.6 1-8.2.1-4.1 3.1-6.6 7.2-5.1"/><path fill="#d1c1b4" d="m15.3 93.7-.2 3s-3.6.4-5.4-1.2l.5-3.5"/><path fill="#9e8b7b" d="M11.6 94.7s-.2-.1-.5-.3-.8-.5-1.2-1.1c-.3-.5-.5-1.3-.6-2.1v-1.3c0-.4.1-.9.1-1.3.2-1.8.4-3.6.5-5 .1-.7 0-1.3 0-1.7s-.1-.6-.1-.6-.1.9-.3 2.2-.6 3.1-.8 5c0 .5-.1.9-.1 1.4v1.3c.1.9.4 1.7.8 2.3.5.6 1 .8 1.4 1 .5.1.8.2.8.2M19.6 82.5l-.3.6c-.2.4-.4 1-.1 1.8.1.3.1.7.1 1.1s-.1.8-.1 1.3c-.1.9-.4 1.8-.7 2.6-.2.4-.4.8-.6 1.3-.2.4-.4.9-.6 1.3-.4.8-.7 1.6-1.2 2.1-.4.5-1 .8-1.4.7-.4 0-.6-.1-.6-.1s.1 0 .2.1c.1 0 .3.1.5.1.4.1 1.1-.1 1.7-.6.5-.5 1-1.3 1.4-2.1.2-.4.4-.8.7-1.2.2-.4.5-.9.7-1.3.3-.9.5-1.9.7-2.8.1-.5.1-.9 0-1.3 0-.4-.1-.9-.2-1.2-.3-.6-.2-1.2-.1-1.6-.2-.6-.1-.8-.1-.8"/><path fill="#d1c1b4" d="M25 70.5c2.2-3.8 4-13.6.2-15s-7 .7-10.5 8.6c-1.7 3.9-2.8 7.3-3.2 10-.1.9-1.1 1.9-1.1 2.6 0 2.4 1.6 3.9 3.1 4.5 2.1.8 4.3.9 5.9-.4 2.2-1.7 1.3-2.9 5.6-10.3"/><path fill="#9e8b7b" d="M21.3 55.3s-.1.1-.3.2-.4.3-.7.5c-.6.4-1.5 1.1-2.3 2-.9.9-1.8 2.1-2.5 3.6-.8 1.4-1.4 3-2 4.6s-1.1 3.2-1.5 4.7c-.2.8-.4 1.5-.5 2.2-.1.4-.1.7-.2 1s-.3.6-.4.9c-.3.6-.5 1.1-.5 1.7-.1.5 0 1 .1 1.4.3.7.7.9.7.9s-.4-.3-.6-1c-.1-.3-.1-.8 0-1.3s.4-1 .6-1.6c.1-.3.3-.6.4-.9s.2-.7.3-1.1c.1-.7.4-1.4.6-2.2.4-1.5 1-3.1 1.6-4.7s1.2-3.1 1.9-4.5 1.5-2.6 2.3-3.6c.8-.9 1.6-1.7 2.1-2.2zM17.5 81.7s.3 0 .7-.1c.5-.1 1.1-.4 1.7-1 .3-.3.6-.6.9-1s.5-.8.7-1.3c.4-1 .8-1.9 1.2-2.9s.9-2 1.3-2.9.8-1.8 1.2-2.5c.3-.7.6-1.4.8-1.8s.2-.7.2-.7-.1.2-.3.7c-.2.4-.6 1-1 1.7s-.9 1.5-1.3 2.4c-.5.9-.9 1.9-1.4 2.8-.4 1-.8 2-1.2 2.9-.2.5-.4.9-.6 1.3s-.5.7-.7 1c-.5.6-1.1.9-1.5 1.1-.4.3-.7.3-.7.3"/><path fill="#7d543d" d="M39.9 56.6s-6.5 7.3-9.3 19.3c0 0-12-1.2-22.8-9.2 0 0 8.5-14.8 17.9-15.4-.1 0 5.4 1.4 14.2 5.3"/><path fill="#523219" d="M24.1 51.6s-.4 0-1 .2c-.3.1-.7.2-1.1.4s-.9.4-1.3.6c-.5.2-1 .6-1.5.9-.5.4-1.1.7-1.6 1.1s-1.1.9-1.6 1.3l-1.5 1.5c-.5.5-1 1.1-1.4 1.6-.5.5-.9 1.1-1.3 1.6-.9 1-1.5 2.1-2.1 3s-1 1.7-1.4 2.2c-.3.5-.5.8-.5.8s.2-.3.5-.8q.6-.75 1.5-2.1c.3-.4.7-.9 1.1-1.4l1.2-1.5c.4-.5.9-1 1.3-1.5.5-.5.9-1 1.4-1.5l1.5-1.5c.5-.5 1-.9 1.5-1.3l1.5-1.2c.5-.3 1-.7 1.4-.9.9-.6 1.7-.9 2.3-1.2.7-.3 1.1-.3 1.1-.3M38.5 58.3l-.6.6c-.3.4-.8 1-1.3 1.8s-1.1 1.7-1.6 2.7-1.1 2.1-1.6 3.2-.9 2.3-1.3 3.4-.6 2.1-.9 3-.4 1.6-.5 2.2c-.1.5-.2.8-.2.8s.1-.3.3-.8.4-1.2.7-2.1.7-1.9 1.1-2.9c.2-.5.4-1.1.6-1.6.2-.6.5-1.1.7-1.7.5-1.1 1-2.2 1.5-3.2s1-2 1.5-2.7c.5-.8.8-1.4 1.1-1.9.4-.6.5-.8.5-.8"/><path fill="#7d543d" d="M39.8 56.5s4.2 10.1 7 17.4c0 0 9.1-4 11.1-8.1 0 0-6.6-11.6-11-11.2 0 .1-5.4 1.9-7.1 1.9"/><path fill="#523219" d="M46.8 73.9s-.2-.9-.6-2.2-1-3.1-1.7-4.8-1.4-3.4-2.1-4.6c-.3-.6-.6-1.1-.9-1.4-.1-.2-.2-.3-.3-.4l-.1-.1.3.6q.3.6.6 1.5c.5 1.3 1.2 3 1.8 4.7.7 1.7 1.4 3.4 1.9 4.7.7 1.2 1.1 2 1.1 2M57.8 65.8s-.4-.9-1.1-2.3c-.4-.7-.8-1.4-1.4-2.2-.5-.8-1.2-1.6-1.8-2.4q-1.05-1.2-2.1-2.1c-.3-.3-.7-.6-1.1-.8-.4-.3-.7-.5-1.1-.6-.3-.2-.7-.3-1-.4s-.6-.2-.8-.2c-.4 0-.7-.1-.7-.1s.2.1.7.2c.2 0 .5.1.7.3.3.1.6.3.9.5s.7.4 1 .7.7.6 1 .9c.7.6 1.4 1.4 2 2.1.7.8 1.3 1.5 1.8 2.3q.9 1.2 1.5 2.1z"/><path fill="#a2b04a" d="M49.5 31.1c4.2-1.2 8.2 3 10.8 5.5s6.5 3 7.5 4.5-3.1-.3-7.1-.2-10.2 1.3-13.8-4.6c-1.6-2.5.7-4.6 2.6-5.2"/><path fill="#698237" d="m48.3 34.4.5.5c.4.3.9.7 1.8 1 .4.1.9.2 1.4.3h.8c.2 0 .5-.1.8-.1.5-.1.9 0 1.5.1q.75.15 1.5.6c1 .4 2 .9 2.9 1.4s1.8.9 2.5 1.3 1.4.6 1.9.8c.5.1.7.2.7.2s-.2-.1-.7-.3c-.4-.2-1-.6-1.7-1q-1.05-.6-2.4-1.5c-.9-.5-1.8-1.1-2.9-1.5-.5-.2-1.1-.4-1.6-.5-.3-.1-.6-.1-.8-.1h-.8l-.4.1-.4.1c-.2 0-.5.1-.7.1-.5 0-.9-.1-1.3-.1-.8-.2-1.4-.5-1.8-.8-.6-.4-.8-.6-.8-.6M49.4 31.1s.6-.2 1.5-.1q.75 0 1.5.3c.5.2 1.1.4 1.6.7s1.1.6 1.6.9.9.6 1.3.9q.6.45.9.6c.2.2.4.2.4.2l-.3-.3c-.2-.2-.4-.5-.8-.8-.3-.3-.8-.7-1.2-1-.5-.4-1-.7-1.6-1q-.9-.45-1.8-.6c-.6-.1-1.2-.2-1.7-.1-.5 0-.9.2-1.1.3z"/><path fill="#5c3e2c" d="M61 24c2.2 5.4 2 21.3-3.1 26.4s-15 8.1-19 6.7S21 41.7 26.6 25.2 57.5 15.3 61 24"/><path fill="#a2b04a" d="M29.8 47.6c1.8-4.5 11.1-4.9 12 2.6 0 0-.7 5.3.6 7.1-1.3.1-2.5 0-3.3-.3-2-.6-6.1-4.1-9.3-9.4"/><path fill="#a2b04a" d="M27.2 19.4c5.5-11.5 19-12 25.8-5.9 7.6 6.8 5.3 20.3 5.3 20.3s3.6 6.8-2.9 13.7c-3.3 3.6-7.6 5.4-13.3 5.1-4.7-.3-15.5-6.2-17-16.6-.7-4.6.1-12.4 2.1-16.6"/><ellipse cx="20.398" cy="23.798" fill="#382c18" rx="1.1" ry="2.5" transform="rotate(5.16 -90.283 694.2)scale(-1 1)"/><ellipse cx="7.899" cy="24.399" fill="#382c18" rx="1.1" ry="2.5" transform="rotate(5.16 -77.784 694.8)scale(-1 1)"/><path fill="#546626" d="M46.6 33.7s.4 1.1 1.1 2.7c.2.4.4.8.6 1.3.2.4.4.9.8 1.4.5.5.9.7 1.4 1s1 .6 1.4.9c.2.2.4.3.6.5.1.2.1.3.1.5-.1.1-.1.2-.2.3l-.3.3-.6.3c-1 .3-2 .2-2.8.2-.9 0-1.6-.1-2.1 0-.5 0-.8.1-.8.1h.8c.5 0 1.2.2 2.1.3.4.1.9.1 1.4.1s1.1 0 1.6-.1c.3-.1.6-.2.9-.4.2-.1.2-.2.3-.3.2-.1.2-.3.3-.4.2-.3.1-.8-.1-1.1s-.5-.5-.7-.7l-1.5-.9c-.5-.3-1-.5-1.3-.8-.3-.4-.6-.8-.8-1.3-.2-.4-.5-.8-.7-1.2-.9-1.7-1.5-2.7-1.5-2.7M45.8 42s-.1-.1-.3-.1-.4 0-.6.1c-.1 0-.2.1-.3.2s-.2.1-.2.2c-.1.1-.2.3-.2.3s.1 0 .3-.1c.2 0 .3-.1.5-.2.1 0 .2-.1.3-.1s.2-.1.2-.1c.2-.1.3-.2.3-.2M55.2 28.3h-1.1c-.6 0-1.4-.1-2.2-.4-.4-.1-.7-.3-1.1-.5-.2-.1-.3-.2-.5-.3s-.3-.2-.4-.3c-.5-.4-.8-.7-.8-.7s0 .1.1.3.2.4.4.7c.1.1.2.3.4.4.1.1.3.3.5.4s.3.3.5.3l.6.3c.8.3 1.8.3 2.4.2.8-.2 1.2-.4 1.2-.4M37.2 27.7s.4.2 1 .4 1.6.2 2.4-.1c.4-.1.8-.3 1.2-.5s.7-.4.9-.7c.3-.2.4-.4.5-.6l.2-.2s-.1 0-.3.1-.4.2-.7.4c-.5.3-1.3.6-2.1.8-1.4.6-3.1.4-3.1.4"/><path fill="#698237" d="M53.6 49.4s-.3.2-.8.4c-.5.3-1.2.6-2 1-.4.2-.9.4-1.4.6s-1 .4-1.6.5c-.6.2-1.1.3-1.7.4s-1.2.2-1.8.2h-1.8c-.6 0-1.2-.2-1.8-.2-.6-.2-1.1-.2-1.6-.4s-1-.3-1.4-.5-.8-.4-1.2-.5c-.3-.2-.6-.3-.9-.5-.5-.3-.8-.4-.8-.4s.3.2.7.5c.2.2.5.4.8.6s.7.4 1.1.6.9.4 1.4.6 1.1.3 1.6.5l1.8.3c.3 0 .6 0 1 .1h1c.6 0 1.3-.1 1.9-.2s1.2-.3 1.8-.4 1.1-.4 1.6-.6 1-.4 1.4-.7c.8-.4 1.5-.9 1.9-1.2.5-.5.8-.7.8-.7"/><path fill="#546626" d="M47.9 47.7s-.2-.3-.8-.7c-.3-.2-.6-.3-1-.4s-.8-.1-1.2-.1c-.8 0-1.6.2-2.2.5-.3.1-.5.3-.6.3l-.2.1h.3c.2 0 .4-.1.7-.1s.6-.1 1-.1H45c.7 0 1.5.1 2 .2s.9.3.9.3"/><path fill="#7d543d" d="M61 24c-2.2-5-11-6.1-14.1-5.8-3.2.3-12.2 4.2-14.7 11.7s-.5 23.7 6.7 27.2c0 0-18.6-7.8-20.3-10.8-2.2-3.9-1.5-17.2-1-21.4.4-2.9 4.2-10.2 4.2-10.2s-.1-7.4-2-8.9c0 0 5.1-.9 10.2.1s10.6-2 17.6 1.1C59.1 12.2 61 24 61 24"/><path fill="#523219" d="M24.6 11.8s-.4.3-1 .9-1.4 1.6-2.3 2.8c-.4.6-.9 1.3-1.3 2.1L18.8 20c-.4.9-.7 1.8-1 2.7s-.5 1.9-.7 2.9-.2 2-.3 3-.1 1.9-.1 2.9c0 1.9.1 3.6.2 5.1.2 3 .5 4.9.5 4.9s-.1-2-.2-5v-5.1c0-.9.1-1.9.1-2.9.1-1 .2-1.9.3-2.9s.4-1.9.6-2.9l.9-2.7c.7-1.7 1.5-3.3 2.2-4.5 1.9-2.2 3.3-3.7 3.3-3.7M56.7 19.9l-1.8-.6c-1.1-.4-2.8-1-4.9-1.2-1-.1-2.2-.2-3.4 0-1.2.1-2.4.5-3.6 1-2.4 1-4.8 2.6-6.8 4.5-1 1-1.9 2-2.7 3.2-.2.3-.4.6-.5.9s-.3.6-.4.9c-.2.6-.5 1.3-.6 1.9-.4 1.3-.5 2.5-.6 3.7s-.2 2.3-.2 3.4c0 2.1.2 3.8.3 5 .2 1.2.4 1.9.4 1.9s-.1-.7-.2-1.9-.2-2.9-.1-5 .3-4.5 1-6.9l.6-1.8.4-.9c.2-.3.3-.6.5-.9.7-1.1 1.7-2.1 2.6-3.1 1.9-1.9 4.3-3.4 6.6-4.4 1.2-.5 2.3-.9 3.5-1.1 1.1-.2 2.3-.2 3.3-.1 2 .2 3.7.6 4.9 1 1 .3 1.7.5 1.7.5M44.6 6.1s-.4-.1-1-.2c-.7-.1-1.6-.3-2.8-.4s-2.6-.1-4 .1c-.7.1-1.5.2-2.2.3s-1.5.1-2.3 0c-1.5-.1-3.1-.4-4.5-.5-1.5-.2-2.8-.1-4-.1-.6.1-1.1.1-1.6.2s-.9.1-1.2.2c-.7.2-1 .2-1 .2s.4 0 1.1-.1c.3 0 .7-.1 1.2-.1s1 0 1.6-.1h1.9c.7 0 1.3.1 2.1.2 1.4.2 2.9.5 4.5.6q1.2.15 2.4 0c.8-.1 1.5-.2 2.2-.3 1.4-.2 2.8-.3 3.9-.3 1.2 0 2.1.1 2.8.2.5 0 .9.1.9.1M18.7 46.3s.2.3.6.8c.2.3.5.5.8.8q.45.45 1.2.9c.9.7 1.9 1.4 3.1 2 1.2.7 2.5 1.3 3.8 2 1.3.6 2.6 1.2 3.9 1.7 1.2.5 2.4 1 3.5 1.4 2 .8 3.4 1.2 3.4 1.2s-1.3-.6-3.3-1.5c-1-.4-2.1-1-3.4-1.5-1.2-.6-2.5-1.2-3.8-1.8s-2.6-1.3-3.8-1.9-2.3-1.2-3.2-1.8c-.4-.3-.9-.6-1.2-.8-.3-.3-.7-.5-.9-.7-.4-.6-.7-.8-.7-.8"/><g fill="#523219"><path d="M29.2 16.3s-.4.3-.9.7c-.5.5-1.2 1.2-1.7 2s-1 1.6-1.2 2.3-.3 1.2-.3 1.2.1-.1.2-.3.3-.4.5-.7c.4-.6.9-1.3 1.4-2.1s1.1-1.5 1.5-2.1c.2-.6.5-1 .5-1M26.5 15s-.4.3-.9.7c-.5.5-1.2 1.2-1.7 2s-1 1.6-1.2 2.3-.3 1.2-.3 1.2.1-.1.2-.3.3-.4.5-.7c.4-.6.9-1.3 1.4-2.1s1.1-1.5 1.5-2.1c.2-.6.5-1 .5-1"/><path d="M29.8 20.5s-.3-.4-.7-.9c-.5-.5-1.2-1.2-2-1.7s-1.6-1-2.3-1.2-1.2-.3-1.2-.3.1.1.3.2.4.3.7.5c.6.4 1.3.9 2.1 1.4s1.5 1.1 2.1 1.5zM28.2 22.5s-.3-.4-.7-.9c-.5-.5-1.2-1.2-2-1.7s-1.6-1-2.3-1.2-1.2-.3-1.2-.3.1.1.3.2.4.3.7.5c.6.4 1.3.9 2.1 1.4s1.5 1.1 2.1 1.5c.6.2 1 .5 1 .5"/></g><path fill="#a2b04a" d="M27 33.2c-4-1.8-8.5 1.8-11.4 3.9s-6.9 2.1-8 3.4c-1.2 1.3 3.1.1 7.1.8S24.6 44 29 38.7c1.8-2.3-.2-4.8-2-5.5"/><path fill="#698237" d="M27.8 36.5s-.2.2-.7.4c-.4.2-1.1.4-1.9.5h-1.3c-.2 0-.4-.1-.7-.2l-.3-.1-.4-.1c-.2-.1-.5-.1-.8-.1h-.9c-.6.1-1.1.2-1.7.3-1.1.3-2.1.7-3.1 1.1s-1.8.8-2.6 1.1-1.4.6-1.9.7c-.5.2-.7.2-.7.2s.3 0 .7-.1c.5-.1 1.2-.2 1.9-.5q1.2-.45 2.7-.9c1-.4 2-.8 3-1q.75-.3 1.5-.3c.5 0 1-.1 1.5.1.2.1.5.1.7.2.3 0 .5.1.8.1.5 0 1 0 1.4-.1.8-.2 1.5-.5 1.9-.8.7-.3.9-.5.9-.5M27.1 33.2s-.1-.1-.4-.2c-.2-.1-.6-.3-1.1-.4s-1-.1-1.7-.1c-.6.1-1.2.2-1.8.4s-1.2.5-1.7.8-1 .6-1.4.9-.7.6-.9.7l-.3.3s.1-.1.4-.2l1-.5c.4-.2.9-.5 1.4-.7s1.1-.5 1.7-.7 1.2-.3 1.7-.4c.6-.1 1.1-.1 1.5-.1 1-.1 1.6.2 1.6.2"/><circle cx="3.5" cy="3.9" r="3.4" fill="#518237" transform="matrix(-1 0 0 1 45 54)"/><path fill="#1e4730" d="M43.7 58.9s.1-.1.1-.2q.15-.15.3-.6c.2-.5.1-1.3-.4-1.9-.4-.6-1.1-.9-1.7-1h-.8s.1 0 .2.1c.1 0 .3.1.5.2.4.2.9.5 1.2 1s.5 1 .5 1.5v.6c.1.2.1.3.1.3M39.4 56.6s-.1.1-.1.2q-.15.15-.3.6c-.2.5-.1 1.3.4 1.9.4.6 1.1.9 1.7 1h.8s-.1 0-.2-.1c-.1 0-.3-.1-.5-.2-.4-.2-.9-.5-1.2-1s-.5-1-.5-1.5v-.6z"/><circle cx="4" cy="2.8" r="1" fill="#1e4730" transform="matrix(-1 0 0 1 45 54)"/><circle cx="2.8" cy="4.6" r="1" fill="#1e4730" transform="matrix(-1 0 0 1 45 54)"/></g></svg>