<svg xmlns="http://www.w3.org/2000/svg" xml:space="preserve" width="800" height="800" viewBox="0 0 590.066 590.067"><path d="m364.492 414.101 36.433 66.938h72.866l-72.866-66.938zM268.752 414.101l-9.868 66.938h72.866l-11.38-66.938zM116.842 481.039h72.866l36.434-66.938h-36.434z"/><path fill="#c00" d="M583.039 505.265 323.646 54.154c-7.717-13.368-17.776-20.751-28.304-20.751-10.729 0-20.99 7.564-28.908 21.286L7.032 505.007c-7.908 13.692-9.208 27.138-3.586 36.873 5.508 9.533 16.935 14.783 32.207 14.783h518.766c15.31 0 26.756-5.23 32.245-14.717 5.573-9.667 4.254-23.026-3.625-36.681m-67.391 11.714H74.281c-15.591 0-21.979-11.053-14.197-24.562l220.957-383.579c7.781-13.509 20.507-13.505 28.278.011l220.547 383.556c7.771 13.516 1.374 24.574-14.218 24.574"/><circle cx="277.766" cy="217.117" r="22.836"/><path d="M370.425 462.59a8.2 8.2 0 0 1-4.738 1.513 8.2 8.2 0 0 1-6.721-3.479l-41.007-58.01-6.967-35.906-23.891 4.877-26.682 29.418-9.731 54.062a8.225 8.225 0 0 1-8.086 6.771c-.484 0-.97-.041-1.464-.133-4.466-.806-7.445-5.084-6.638-9.55l10.57-58.71 39.041-43.047-11.91-58.973-8.867 21.643-40.514 26.225a8.2 8.2 0 0 1-4.459 1.315 8.2 8.2 0 0 1-6.908-3.759c-2.493-3.784-1.399-8.876 2.409-11.352l36.179-23.412 19.03-46.448c.86-2.473 2.338-5.177 8.384-6.403l13.268-2.681c5.502-1.111 8.564.374 10.928 2.632l53.892 44.93 8.432 45.811a8.22 8.22 0 0 1-6.597 9.575 7.7 7.7 0 0 1-1.497.14c-3.891 0-7.354-2.772-8.078-6.737l-7.354-39.904-29.408-24.186 22.391 117.197 38.959 55.115a8.225 8.225 0 0 1-1.966 11.466"/></svg>