<svg xmlns="http://www.w3.org/2000/svg" width="115.713" height="102.497" viewBox="0.287 -0.065 115.713 102.497"><path fill="#00a08c" d="M14.332 78.766s-4.309 4.745-7.108.689a7.4 7.4 0 0 1-.399-1.02z"/><path fill="#006482" d="M73.006 76.583c-.575-2.124-1.346-5.116-2.464-9.188-2.248-8.172-10.322-19.48-6.652-22.225s4.616 2.068 5.107 2.697c.339.435 4.033 8.312 5.534 16.133 1.242 6.479 1.35 10.192 1.198 12.583zM17.375 92.341c0-.566.099-2.064.099-2.064s4.792 1.705 8.039-.088c1.996-1.103 1.892-4.781 1.665-7.199 0 0-.288-6.694 4.392-6.595s3.37 6.869 3.37 6.869c-.06 2.618-.399 6.806-1.996 9.268-2.081 3.188-8.446 2.088-9.939 1.686-1.597-.431-3.195-1.594-4.888-1.654-.223.761.232 2.514.232 2.514s-.583.626-.799.159c-.259-.557-.167-2.251-.175-2.896M48.393 74.869c2.547-5.693 7.642 3.762 7.642 3.762 2.871 5.446 4.66 10.024 5.515 11.785 1.365 2.829 2.108 6.176 3.781 8.814.503-.259 1.793-2.223 2.252-1.857.823.658-1.222 2.032-1.569 2.391-.731.797-1.425 2.418-2.28 2.135-.763-.243-17.889-21.336-15.341-27.03"/><path fill="#828278" d="m58.519 13.207 3.067 12.531 2.356-.119-5.247-15.703z"/><path fill="#008264" d="m23.284 54.808-3.278 31.365s17.402-.211 20.764-.446c-1.509-3.586-3.29-31.078-3.29-31.078z"/><path fill="#00a08c" d="M14.512 22.3c1.453 0 13.907-.491 13.907-.491L36.865 39.4c.491 1.491-16.863 46.773-16.863 46.773s-8.577-41.394-9.583-46.533c-.511-2.618-.899-5.26-1.39-7.878-.547-2.908-1.705-6.064-1.705-9.032 2.18-.773 4.912-.438 7.188-.43"/><path fill="#78c8c8" d="m20.15 32.288 8.273-10.479 17.438-.259 3.143 6.348-8.218 57.829-2.208-3.753a49 49 0 0 1-2.065-3.985c-1.134-2.446-2.395-4.821-3.506-7.287-1.956-4.383-4.06-8.79-5.714-13.292-1.86-5.084-3.889-10.152-5.478-15.328-.727-2.363-1.773-4.726-2.264-7.148-.248-1.215-.156-1.578.599-2.646"/><path fill="#281446" d="M22.486 35.52c0 1.107.635 1.992 1.417 1.992.783 0 1.418-.897 1.418-1.992a2.3 2.3 0 0 0-.631-1.666 1.14 1.14 0 0 0-.799-.334c-.399 0-.95.553-1.198.916-.247.363-.207.53-.207 1.084"/><path fill="#828278" d="M20.214.716A161 161 0 0 1 37.995.648C42.387.86 53.967-.427 56.574 4.023c1.438 2.443 2.137 5.487 2.796 8.212.635 2.618 1.781 5.379 2.104 8.04-1.937-.219-1.997-3.486-2.484-5.139-.702-2.391-1.218-4.821-1.837-7.248-.503-1.992-1.034-4.522-3.05-5.415-1.941-.864-5.051-.478-7.14-.577-8.138-.399-18.56 0-26.689.075-1.426 0-3.267.132-3.714 1.937-.335 1.362 2.631 13.853 3.51 18.16.399 1.869.495 3.782.882 5.634.228 1.096.547 2.176.799 3.264.18.729.276 2.964.775 3.566.112.131.93.342 1.541.597.087.333.063.686-.068 1.004l-.208.06c-1.597.43-2.292-1.024-2.699-2.207-2.304-6.726-5.562-27.492-5.614-28.879-.088-3.14 1.941-4.22 4.736-4.391"/><path fill="#00a0b4" d="m45.857 21.55 33.805.092s-1.353 5.419-1.665 6.722c-.719 2.98-1.597 5.932-2.156 8.945-1.198 6.275-3.226 12.487-4.792 18.587S67.547 68 66.018 74.1c-.659 2.626-2.967 10.595-2.967 10.595s-4.157.323-5.47.434c-3.047.263-6.05.458-9.104.534-1.622.04-3.243.116-4.86.104s-2.839-.04-2.839-.04z"/><path fill="#828278" d="M5.963 76.901 2.169 79.26l-1.382-.135.092-7.152 1.29-.239z"/><path fill="#c8c8be" d="M2.169 79.26v-7.526s62.092 2.095 68.357 2.39c2.54.112 5.067.367 7.615.49 1.398.068 4.392-.219 6.045.399v2.813c-1.329.566-3.517.47-4.675.578-2.796.258-5.643.251-8.45.426-5.61.342-68.892.43-68.892.43"/><path fill="#c8c8be" d="M115.5 69.06c-5.247.502-22.621.446-24.422 1.45-.906.506-.087 1.431-.087 1.431s22.449 1.402 24.509 1.677v1.14c-2.2.346-20.149.048-21.778.227-.771.084-3.662 1.028-1.945 2.665.859.821 18.556.797 23.723 1.299v.618c-5.339.542-24.162-.478-24.198 2.072s18.971 1.709 24.198 2.307v.55c-3.781.358-13.177 1.055-20.664 1.071-6.026 0-16.036 0-16.523-8.813s9.323-9.726 13.48-9.726c2.368 0 18.648.562 23.707 1.275z"/><path fill="#828278" d="M81.16 76.467c0-3.144 1.122-4.945 2.12-5.016.595-.044 2.284.825 2.188 5.223-.096 4.399-.918 4.833-1.457 4.977-1.162.299-2.851-2.04-2.851-5.184"/><path fill="#00a08c" d="m7.109 79.24 3.222 1.148s-.551-5.543 1.497-12.993c2.248-8.172 10.067-20.193 5.99-22.225S9.345 56.179 7.835 64c-2.276 11.889-.726 15.24-.726 15.24"/><path fill="#281446" d="M76.56 79.714s1.665-1.832 1.557-2.868c0 0-.172-.311-.451.067a7 7 0 0 1-1.422 1.036z"/><path fill="#006482" d="M71.756 79.196c-.088-1.785-.735-2.904-.076-3.036.659-.131.651 1.853 1.669 1.801.759-.04-.551-2.434.224-2.566s.663 3.742 1.949 2.351c.251-.275-.164-2.482.355-2.351s.591 2.67.719 4.295c0 0-.643.754-2.308.861a2.91 2.91 0 0 1-2.532-1.355"/></svg>