<svg xmlns="http://www.w3.org/2000/svg" width="90.461" height="94.385" viewBox="0.288 -0.054 90.461 94.385"><path fill="#d9824c" d="M28.285 92.681s-8.687-3.163-9.23-15.73C18.53 64.799 36.73 53.953 32.78 37.182c-2.227-9.458-8.175-21.165-31.05-18.604 0 0 16.85 2.385 11.25 19.909C9.077 50.701-1.62 60.381 1.28 74.24c2.505 11.969 12.45 19.537 28.35 19.537"/><path fill="#f5ceb8" d="M2.15 18.652c-.204.024 12.805 1.984 11.83 14.186l1.1-.891.9 1.356 1.707-1.789.806 1.412s1.05-1.77 1.2-1.77 1.481 1.77 1.481 1.77l.806-2.203 1.8 1.375.507-2.147s1.368 1.224 1.518 1.224.675-2.015.675-2.015l1.594.904.211-1.827 1.323.597S24.605 16.067 2.15 18.652"/><path fill="none" stroke="#80432f" stroke-width=".5" d="M28.73 92.881s-9.132-3.363-9.675-15.93C18.53 64.799 36.73 53.953 32.78 37.181c-2.227-9.457-8.175-21.165-31.05-18.604 0 0 16.85 2.386 11.25 19.91C9.077 50.701-1.62 60.38 1.28 74.24c2.505 11.969 12.45 19.537 28.35 19.537"/><path fill="#bf6c46" d="M63.15 56.367s2.333 5.537-.388 7.382l4.757 30.003h10.2s-1.697-3.343-3.269-3.955c-.984-.383-2.115.286-2.907.54l.185-43.403s-10.139-.829-8.574 9.358"/><path fill="none" stroke="#80432f" stroke-width=".5" d="M71.802 47.254c-.408 4.896-.308 43.184-.308 43.184s2.44-1.231 3.373-.428c1.854 1.331 2.85 3.792 2.85 3.792h-10.2l-4.755-30.053c2.721-1.846.388-7.382.388-7.382"/><path fill="#80432f" d="M75.039 93.796s-.007-.058-.025-.138a4.577 4.577 0 0 0-.543-1.383l-.163-.264c-.049-.091-.123-.161-.182-.238-.126-.148-.23-.305-.354-.402l-.39-.356.433.307c.139.083.262.226.41.362.07.071.156.136.218.221l.202.251c.27.34.48.725.614 1.027a4 4 0 0 1 .191.525z"/><path fill="none" stroke="#80432f" stroke-width=".5" d="M61.286 21.636s.069 2.005 3.845 2.361c1.766.167 4.343-.026 8.105-.955 11.799-2.912 14-3.715 14-3.715s3.649-1.457 2.599-5.323H78.936s-3.55-3.917-5.5-5.323h-9.401L62.336.446s-9.851 24.906-14.15 30.279"/><path fill="#d9824c" d="M30.388 65.36c-3.596 8.479-1.499 28.259-1.499 28.259h32.485c.898-.804-.388-22.998.533-24.088 10.182-12.055 5.151-43.262 8.056-45.672 1.465-.389 1.174-.352 3.166-.817 11.837-2.757 14.001-3.715 14.001-3.715s3.649-1.457 2.599-5.323h-10.9s-3.549-3.916-5.499-5.323h-9.401L62.336.446s-11.97 26.41-13.084 28.252C40.843 42.609 30.388 65.36 30.388 65.36"/><path fill="#aa5e3b" d="M50.63 89.985s1.317-4.14 1.636-7.165l5.114-4.856 2.565 11.667s-3.665.731-9.315.354"/><path fill="#f5ceb8" d="M46.963 87.113C83.68 58.979 70.38 25.86 70.069 23.859c-.023-.151-2.904.172-2.904.172-.082.394 1.714 31.264-22.104 42.48"/><path fill="none" stroke="#80432f" stroke-width=".5" d="M70.046 23.708S83.781 60.787 46.48 87.462"/><path fill="none" stroke="#80432f" stroke-width=".5" d="M67.061 24.036s1.47 32.231-22.08 42.475"/><path fill="none" stroke="#80432f" stroke-width=".5" d="M61.286 21.636s.069 2.005 3.845 2.361c1.766.167 4.343-.026 8.105-.955 11.799-2.912 14-3.715 14-3.715s3.649-1.457 2.599-5.323H78.936s-3.55-3.917-5.5-5.323h-9.401L62.336.446s-10.937 24.529-14.15 30.279C46.44 33.806 36.455 51.14 30.83 64.149c-3.695 8.543-2.1 18.694-2.081 29.628H43.28"/><path fill="none" stroke="#80432f" stroke-width=".5" d="m66.435 8.681 4.714-7.632v7.632"/><path fill="#d9824c" d="m66.435 8.681 4.714-7.632v7.632"/><path fill="#f5ceb8" d="M68.573 8.681c.05-.075 2.387-6.779 2.387-6.779l.189 6.779z"/><path fill="none" stroke="#80432f" stroke-width=".5" d="m68.573 8.681 2.359-6.992M66.435 8.681l4.714-7.632v7.632"/><path fill="#232020" d="M75.785 14.707s-1.624-1.532-2.2-1.933H70.31s.988 2.134 5.475 1.933M90.156 16.124c-.018.073-3.089-.259-3.089-2.318h2.9s.478 1.102.189 2.318"/><path fill="#80432f" d="M75.843 14.687a31 31 0 0 1-2.267-1.803l.097.037c-.8.008-1.6-.003-2.4-.022-.8-.029-1.6-.056-2.4-.125.8-.07 1.6-.097 2.4-.126.8-.019 1.6-.03 2.4-.021h.057l.04.036c.715.646 1.416 1.31 2.073 2.024"/><path fill="#d9824c" d="M54.493 56.392s2.625 5.537 0 7.382l6.338 30.003H71.03s-1.873-3.343-3.478-3.955c-1.003-.383-2.099.286-2.878.54l-2.1-43.403s-10.181-.829-8.081 9.358"/><path fill="none" stroke="#80432f" stroke-width=".5" d="M62.665 47.279c-.15 4.896 1.965 43.184 1.965 43.184s2.376-1.231 3.351-.428c1.924 1.331 3.049 3.792 3.049 3.792h-10.2l-6.337-30.053c2.625-1.846 0-7.382 0-7.382"/><path fill="#80432f" d="M68.352 93.831s-.009-.058-.032-.139a4 4 0 0 0-.108-.356 5 5 0 0 0-.511-1.037l-.177-.264c-.054-.091-.132-.16-.195-.238-.134-.149-.245-.304-.374-.401l-.406-.356.448.305c.143.084.273.224.429.36.073.072.162.134.228.22l.216.249c.287.337.518.722.668 1.023.073.152.132.281.167.38l.053.145z"/><path fill="#d9824c" d="m42.643 87.462-1.087 4.18s-1.126 2.185 1.724 2.185h21.788s-1.837-4.388-3.853-4.293c0 0-1.406.272-2.26.366-2.705.298-6.148.198-9.674.198"/><path fill="#d9824c" d="M50.73 90.102c4.751-21.24 3.851-24.922-.85-25.374-4.579-.44-13.837 8.913-13.837 8.913s7.012 9.867 6.825 13.821c-.188 3.955 7.762 4.519 7.875 2.524"/><path fill="none" stroke="#80432f" stroke-width=".5" d="m42.643 87.462-1.087 4.18s-.657 2.185 1.724 2.185h21.788s-1.837-4.388-3.853-4.293c0 0-1.406.272-2.26.366-2.705.298-6.148.198-9.674.198"/><path fill="none" stroke="#80432f" stroke-width=".5" d="M50.73 90.102c4.751-21.24 3.851-24.922-.85-25.374-4.579-.44-13.149 8.336-13.149 8.336"/><path fill="#80432f" d="M61.53 93.749s.003-.052-.001-.111c.002-.06-.02-.165-.038-.288-.04-.118-.062-.268-.137-.412l-.101-.229-.138-.22c-.05-.072-.087-.155-.147-.217l-.166-.194a2 2 0 0 0-.32-.327l-.339-.298.38.246c.119.069.247.164.372.283l.201.176c.072.057.123.136.187.205l.181.214.146.231c.104.146.156.308.22.44.044.141.086.253.098.352a1 1 0 0 1 .021.136z"/><path fill="#f5ceb8" d="M60.432 11.577 62.385 1.5l1.65 7.181z"/><path fill="none" stroke="#80432f" stroke-width=".5" d="m64.025 8.681-3.815 3.075 2.1-10.707"/></svg>