<svg xmlns="http://www.w3.org/2000/svg" width="91.87" height="83.78" viewBox="-0.5 -0.5 91.87 83.78"><path fill="#0cc" d="M90.87 15.31c0 6.5-3.87 11.71-9.88 13.28l-.58.15c-.2 1.6-.45 3.34-.74 5.24l-1.47 10.4c-.51 4.08-1.83 11.91-4.04 23.94-.01.04-.02.07-.02.11-.57 2.93-.85 4.03-1.28 5.13-.02.05-.04.09-.06.13-1.46 3.55-4.14 6.33-7.74 8.04-1.48.69-3.09 1.05-4.71 1.05-.31 0-.61-.01-.92-.03-.72-.06-1.42-.13-2.09-.19-.13-.01-.26-.02-.39-.04-4.32-.54-7.02-2.49-8.58-4.17-.44-.47-.85-.96-1.23-1.49-.89.79-1.78 1.38-2.6 1.83-.95.53-1.98.91-3.05 1.13-1.15.24-2.81.58-4.99 1-1.99.39-4.06.22-5.96-.49-1.97-.74-3.8-1.97-5.59-3.76a11 11 0 0 1-2.73-4.52c-1.89-6.1-4.33-15.06-7.46-27.38-.02-.11-.05-.21-.07-.32-.33-1.47-.84-3.65-1.53-6.52-.47-1.45-1.06-3.29-1.76-5.53-3.61-.88-6.1-2.76-7.7-4.42C2.18 26.31.37 23.63.04 19.55c-.03-.29-.04-.59-.04-.89 0-3.37 1.1-6.44 3.17-8.9 2.16-2.62 4.51-4.28 7.19-5.07 2.16-.69 4.66-1.08 7.61-1.16 1.53-.04 3.06-.03 4.55-.07 1.33-.17 3.09-.39 5.3-.65.31-.04.63-.06.95-.07.42-.02.83-.02 1.21-.02 2.64 0 4.76.29 6.66.93.06.01.11.03.17.05.97.34 1.88.78 2.72 1.29.9-.34 1.84-.6 2.83-.78.37-.06.74-.11 1.12-.13 1.77-.13 3.54.03 5.27.46C51.44 1.64 55.28 0 59.64 0c1.21 0 2.61.16 4.69.52.1.01.2.03.29.05h.01c1.32-.09 2.81-.03 5.06.17 1.6.12 3.22.23 4.86.34 3.12.19 5.79.73 8.08 1.64.2.08.39.16.58.25 4.8 2.24 7.66 6.86 7.66 12.34"/><path fill="#fff" d="M78.554 12.938q1.32.617 1.319 2.375 0 2.2-1.671 2.639-1.672.44-2.991.353-.176 0-2.287-.616-1.672-.438-2.814-.352-.088.089-.088 4.75-.264 3.958-1.231 10.291l-1.495 10.556q-.706 5.717-3.958 23.397-.529 2.724-.704 3.167-.617 1.495-2.287 2.286-1.055-.089-2.022-.176-1.408-.177-1.936-.791-.968-.968-1.407-3.255-.88-3.606-.88-3.694-.704-2.2-3.519-12.755-1.495-5.805-4.573-17.68-.617 3.167-1.231 8.092a269 269 0 0 1-1.584 12.667q-.44 3.782-1.495 10.556-.704 3.342-2.463 4.31-1.671.35-4.838.968-.704-.264-1.671-1.231-2.727-8.796-7.301-26.828-.529-2.374-1.671-7.125-1.145-3.517-3.343-10.556-.177-1.055-1.056-2.902-2.64.44-3.519.439-2.727 0-4.222-1.583-.53-.528-.616-1.583 0-1.142.616-1.848 1.142-1.406 1.935-1.583 1.76-.614 4.75-.704 2.55.001 5.102-.088 2.023-.263 5.718-.703 2.726-.087 4.046.352 1.76.617 1.76 2.551 0 .88-.353 1.319-1.056 1.144-2.99 1.407a55 55 0 0 1-3.255.265 23 23 0 0 0-1.583.352q-.705.44-.615 1.935.087 1.496 1.583 5.718.703 2.024 3.958 16.449 1.407 4.838 4.223 14.865-.09 0 .264.352 1.23-4.661 2.287-12.49l1.407-10.731q.175-1.67.527-4.926.35-1.934.88-6.069 0-2.725.615-8.093.35-1.582 2.375-1.935a6 6 0 0 1 2.463.352q1.584.617 1.584 1.76 0 3.255 1.055 7.564.88 2.551 2.111 7.213.264 1.407 6.597 25.772.175.528.528.967 1.23-4.573 1.759-7.828 1.583-9.322 4.135-28.939.087-.174-.089-4.749a.86.86 0 0 0-.439-.353 704 704 0 0 0-4.838-1.056q-3.166-.703-3.166-2.022 0-.35.264-.792.878-1.934 3.431-1.935.79 0 2.814.352 1.758.352 2.639.22.879-.132 3.694.132 2.461.177 5.014.352 2.987.173 4.748.876"/></svg>