<svg xmlns="http://www.w3.org/2000/svg" xml:space="preserve" width="62.544" height="95.479" viewBox="-0.421 -0.155 62.544 95.479"><title>Slice 1</title><g fill-rule="evenodd"><path fill="#82783c" d="M24.848 17.705c-1.576-4.18-3.072-11.364-.868-15.532 2.024-3.824 5.564-1.36 7.252 4.706 1.424 5.102 1.168 13.512 1.232 15.288.072 1.96-.164 3.88-.248 5.828-.068 1.643.52 4.381-.068 5.864-2.948-5.15-5.212-10.61-7.3-16.154"/><path fill="#a0aa1e" d="M32.184 33.78c-2.336.12-5.24-2.254-7.04-3.548-.96-.694-12.904-10.346-16.156-15.144-1.468-2.165-2.848-4.321-2.492-7.04.476-3.643 2.956-4.472 6.168-2.885 4.98 2.461 9.144 7.973 11.756 12.759 1.3 2.377 2.536 4.81 3.852 7.159 1.272 2.28 3.972 6.017 3.912 8.698"/><path fill="#a0aa1e" d="M31.744 33.65c-.152-1.687.972-3.943 1.356-5.587.4-1.76.8-3.491 1.368-5.21a95 95 0 0 1 3.828-10.39c1.328-2.923 2.748-6.166 4.892-8.607 1.828-2.084 5.304-4.285 7.82-1.768 2.172 2.177.8 6.674.032 9.22-1.064 3.415-2.928 6.205-5.056 9.019C44 22.948 34.436 32.757 31.744 33.65"/><path fill="#a0aa1e" d="M32.092 33.767c1.104-1.447 2.916-2.65 4.256-3.924 1.736-1.652 3.508-3.259 5.272-4.874 2.564-2.345 5.304-4.75 8.896-5.211 1.3-.165 3.664-.245 4.112 1.367.4 1.483-1.548 3.178-2.508 3.976a30 30 0 0 1-4.556 3.002c-.892.513-11.564 4.534-15.472 5.664M31.836 33.843c-.272-4.966.304-9.84.464-14.775.016-2.573.3-5.138.848-7.652.28-1.146 1.704-5.21 3.16-2.902.84 1.327.304 4.24.252 5.72-.076 2.14-.1 4.485-.828 6.534-.48 1.334-3.632 13.095-3.896 13.075"/><path fill="#f01446" d="M31.444 94.824a19.35 19.35 0 0 1-11.044-3.4c-2.16-1.503-3.864-3.768-5.324-5.932-2.18-3.235-4.32-6.538-6.332-9.885A66.6 66.6 0 0 1 .848 56.158C-.4 50.602-.792 40.353 4.964 36.918 7.912 35.15 12.28 34.14 15.62 33.45c2.892-.597 5.744-1.346 8.716-1.603 1.696-.136 3.408-.293 5.088-.028 1.292.204 1.92.918 2.852.926.18 0 1.352-.653 1.676-.734q.991-.194 2-.216c2.136-.124 4.144.216 6.24.533 5.412.802 11.12 2.87 15.356 6.442 5.284 4.453 4.424 11.267 2.96 17.396-1.6 6.75-7.316 22.095-12.8 29.534-5.484 7.44-13.016 9.14-16.264 9.124"/><path fill="#f00a78" d="M5.028 41.6s.572-1.512 3.1-2.842a17.97 17.97 0 0 1 10.3-1.676c8.188 1.263 7.168 28.304-2.592 28.304-5.288 0-8.864-2.281-10.54-7.456-1.416-4.377-2.432-11.127-.268-16.33"/><ellipse cx="26.208" cy="44.186" fill="#f04650" rx="1" ry="1.026" transform="translate(0 31)"/><ellipse cx="45.276" cy="15.815" fill="#f04650" rx="1" ry="1.026" transform="translate(0 31)"/><ellipse cx="42.136" cy="11.041" fill="#f04650" rx="1" ry="1.026" transform="translate(0 31)"/><ellipse cx="49.168" cy="11.518" fill="#f04650" rx="1" ry="1.026" transform="translate(0 31)"/><ellipse cx="37.76" cy="6.242" fill="#f04650" rx="1" ry="1.026" transform="translate(0 31)"/><ellipse cx="29.572" cy="8.816" fill="#f04650" rx="1" ry="1.026" transform="translate(0 31)"/><ellipse cx="22.856" cy="8.11" fill="#f04650" rx="1" ry="1.026" transform="translate(0 31)"/><ellipse cx="14.348" cy="7.918" fill="#f04650" rx="1" ry="1.026" transform="translate(0 31)"/><ellipse cx="20.376" cy="16.324" fill="#f04650" rx="1" ry="1.026" transform="translate(0 31)"/><ellipse cx="11.768" cy="15.827" fill="#f04650" rx="1" ry="1.026" transform="translate(0 31)"/><ellipse cx="36.488" cy="46.503" fill="#f04650" rx="1" ry="1.026" transform="translate(0 31)"/><ellipse cx="33.332" cy="14.756" fill="#f04650" rx="1" ry="1.026" transform="translate(0 31)"/><ellipse cx="35.612" cy="21.334" fill="#f04650" rx="1" ry="1.026" transform="translate(0 31)"/><ellipse cx="27.86" cy="16.404" fill="#f04650" rx="1" ry="1.026" transform="translate(0 31)"/><ellipse cx="19.276" cy="50.167" fill="#f04650" rx="1" ry="1.026" transform="translate(0 31)"/><ellipse cx="26.208" cy="22.773" fill="#f04650" rx="1" ry="1.026" transform="translate(0 31)"/><ellipse cx="14.384" cy="39.749" fill="#f04650" rx="1" ry="1.026" transform="translate(0 31)"/><ellipse cx="21.228" cy="29.519" fill="#f04650" rx="1" ry="1.026" transform="translate(0 31)"/><ellipse cx="13.936" cy="29.251" fill="#f04650" rx="1" ry="1.026" transform="translate(0 31)"/><ellipse cx="46.44" cy="27.764" fill="#f04650" rx="1" ry="1.026" transform="translate(0 31)"/><ellipse cx="52.764" cy="16.32" fill="#f04650" rx="1" ry="1.026" transform="translate(0 31)"/><ellipse cx="53.388" cy="26.425" fill="#f04650" rx="1" ry="1.026" transform="translate(0 31)"/><ellipse cx="56.772" cy="21.054" fill="#f04650" rx="1" ry="1.026" transform="translate(0 31)"/><ellipse cx="56.968" cy="11.437" fill="#f04650" rx="1" ry="1.026" transform="translate(0 31)"/><ellipse cx="45.152" cy="5.088" fill="#f04650" rx="1" ry="1.026" transform="translate(0 31)"/><ellipse cx="5.8" cy="12.163" fill="#f04650" rx="1" ry="1.026" transform="translate(0 31)"/><ellipse cx="4.068" cy="25.908" fill="#f04650" rx="1" ry="1.026" transform="translate(0 31)"/><ellipse cx="2.328" cy="19.582" fill="#f04650" rx="1" ry="1.026" transform="translate(0 31)"/><ellipse cx="32.4" cy="26.144" fill="#f04650" rx="1" ry="1.026" transform="translate(0 31)"/><ellipse cx="49.808" cy="35.312" fill="#f04650" rx="1" ry="1.026" transform="translate(0 31)"/><ellipse cx="38.305" cy="30.795" fill="#f04650" rx="1.024" ry="1" transform="rotate(-68.5 61.07 46.295)"/><ellipse cx="41.496" cy="19.582" fill="#f04650" rx="1" ry="1.026" transform="translate(0 31)"/><ellipse cx="29.016" cy="34.927" fill="#f04650" rx="1" ry="1.026" transform="translate(0 31)"/><ellipse cx="48.828" cy="21.631" fill="#f04650" rx="1" ry="1.026" transform="translate(0 31)"/><ellipse cx="50.08" cy="43.994" fill="#f04650" rx="1" ry="1.026" transform="translate(0 31)"/><ellipse cx="41.724" cy="38.398" fill="#f04650" rx="1" ry="1.026" transform="translate(0 31)"/><ellipse cx="16.712" cy="22.837" fill="#f04650" rx="1" ry="1.026" transform="translate(0 31)"/><ellipse cx="9.728" cy="21.422" fill="#f04650" rx="1" ry="1.026" transform="translate(0 31)"/></g></svg>