<svg xmlns="http://www.w3.org/2000/svg" xml:space="preserve" width="95.167" height="101.369" viewBox="17.25 -1.75 95.167 101.369"><title>butterfly-c</title><g fill-rule="evenodd"><path fill="#00b27b" d="M63.52 14.587 58.848 6.72l-3.471.262a7.52 7.52 0 0 0-6.808 6.015l-.88 4.362a7.52 7.52 0 0 1-3.532 4.983l-6.472 3.845a7.52 7.52 0 0 0-3.567 7.772l.506 2.882a7.5 7.5 0 0 1-.372 3.965l35.4 17.592.163-.648a57.24 57.24 0 0 0-6.295-43.162"/><path fill="#19242d" d="m34.624 36.84-.506-2.882a7.52 7.52 0 0 1 3.567-7.772l6.472-3.845a7.52 7.52 0 0 0 3.533-4.983l.879-4.362a7.52 7.52 0 0 1 6.808-6.015l3.471-.262-1.647-2.775A8.05 8.05 0 0 0 46.165 1.13a7.97 7.97 0 0 0-3.885 7.317l.258 4.423a4.225 4.225 0 0 1-3.913 4.461l-2.098.152a4.225 4.225 0 0 0-3.848 4.986 4.226 4.226 0 0 1-2.903 4.808l-2.478.768c-4.165 1.292-4.625 7.005-.72 8.946l7.674 3.814c.47-1.243.611-2.61.372-3.965"/><path fill="#f2f253" d="M34.287 40.701a7.5 7.5 0 0 1-2.39 3.332 7.525 7.525 0 0 0-1.215 10.56l2.297 2.902a15.8 15.8 0 0 1 3.305 11.622l-.506 4.364 2.23-1.324a4.494 4.494 0 0 1 6.16 1.57l25.786-15.51z"/><path fill="#19242d" d="m32.98 57.495-2.298-2.901a7.525 7.525 0 0 1 1.216-10.56 7.5 7.5 0 0 0 2.39-3.333l-3.2-1.572c-6.695-3.287-13.563 4.152-9.755 10.566l3.503 5.901c1.305 2.199.1 5.032-2.388 5.617l-1.678.394a2.296 2.296 0 0 0-1.75 2.534l.01.072a2.226 2.226 0 0 0 2.577 1.904 3.784 3.784 0 0 1 4.403 4.022l-.066.869c-.283 3.665 3.681 6.128 6.841 4.25l2.993-1.776.506-4.365a15.8 15.8 0 0 0-3.304-11.622M65.147 33.648a7.72 7.72 0 0 1-7.716 7.719 7.72 7.72 0 0 1-7.717-7.72 7.72 7.72 0 0 1 7.717-7.718 7.72 7.72 0 0 1 7.716 7.719"/><path fill="none" stroke="#f2f253" stroke-width="3.5" d="M65.147 33.648a7.72 7.72 0 0 1-7.716 7.719 7.72 7.72 0 0 1-7.717-7.72 7.72 7.72 0 0 1 7.717-7.718 7.72 7.72 0 0 1 7.716 7.719Z"/><path fill="none" stroke="#19242d" stroke-linecap="round" stroke-linejoin="round" stroke-width="1.05" d="m69.164 62.002 17.44 11.943V87.21l5.46 5.701"/><path fill="none" stroke="#19242d" stroke-linecap="round" stroke-linejoin="round" stroke-width="1.05" d="m72.246 60.05 17.44 11.943V85.26l5.461 5.7"/><path fill="none" stroke="#19242d" stroke-linecap="round" stroke-linejoin="round" stroke-width="1.05" d="m66.081 63.953 17.44 11.943v13.267l5.461 5.7"/><path fill="none" stroke="#19242d" stroke-linecap="round" stroke-linejoin="round" stroke-width="1.05" d="m63 65.905 17.44 11.942v13.267l5.46 5.701"/><path fill="none" stroke="#19242d" stroke-linecap="round" stroke-linejoin="round" stroke-width="1.05" d="m51.177 97.869 4.682-4.684V79.408L66.804 68.46"/><path fill="none" stroke="#19242d" stroke-linecap="round" stroke-linejoin="round" stroke-width="1.05" d="m47.366 97.869 5.684-5.66V78.433l9.943-9.973"/><path fill="none" stroke="#19242d" stroke-linecap="round" stroke-width="1.05" d="m96.62 20.165-.468 5.163c-.87 9.6-5.9 18.338-13.764 23.91l-4.856 3.44M110.667 32.477l-33.973 21.33"/><path fill="#19242d" d="M73.194 66.305c-12.532 7.444-38.637 21.231-40.342 18.143-1.73-3.132 21.8-19.553 34.333-26.997 3.972-2.36 9.639-2.338 11.05.039 1.41 2.376-1.673 6.814-5.04 8.815"/><path fill="#19242d" d="m71.27 55.687 10.954-6.438v5.028a2.96 2.96 0 0 1-2.962 2.963h-8.126z"/><path fill="#fbf4e9" d="M79.138 55.18a2.003 2.003 0 1 1-2.046-3.445 2.003 2.003 0 0 1 2.046 3.444"/><path fill="#19242d" d="M78.692 54.428a1.13 1.13 0 1 1-1.154-1.942 1.13 1.13 0 0 1 1.154 1.942M72.98 67.213c-4.668 2.774-9.75 2.837-11.35.14-1.602-2.695.886-7.128 5.555-9.902s9.751-2.837 11.351-.14c1.6 2.695-.887 7.129-5.555 9.902"/></g></svg>