<svg xmlns="http://www.w3.org/2000/svg" width="115.101" height="172.92" viewBox="0 0 115.101 172.92"><g fill="none" stroke-linecap="none" stroke-linejoin="none" stroke-miterlimit="10" stroke-width="none" data-paper-data="{&quot;isPaintingLayer&quot;:true}" font-family="none" font-size="none" font-weight="none" style="mix-blend-mode:normal" text-anchor="none"><g data-paper-data="{&quot;index&quot;:null}"><path fill="#f05822" d="m73.82 172.38-2.19-13.05h19.56l2.67 13.05z"/><path fill="#ffb5a4" d="m71.63 159.33-9.48-5.58h19.8l9.24 5.58z"/><path fill="#dd3627" d="M62.15 165.03v-11.28l9.48 5.58 2.19 13.05z"/><path stroke="#5e154d" stroke-linecap="round" stroke-linejoin="round" stroke-width="1.08" d="m81.95 153.75 9.24 5.58 2.67 13.05H73.82l-11.67-7.35v-11.28z"/><path fill="#b6bbde" d="M72.41 132.84h6.39c3 0 5.67 3.6 5.67 8.01s-2.55 8.01-5.67 8.01h-6.39z"/><path fill="#fff" d="M80.81 156.54h-6.33v-7.74h6.33z"/><path fill="#c172c1" d="M76.389 135.188c1.027 1.45 1.662 3.452 1.662 5.662s-.635 4.212-1.662 5.662-2.444 2.348-4.008 2.348-2.982-.898-4.008-2.348c-1.027-1.45-1.662-3.452-1.662-5.662s.635-4.212 1.662-5.662 2.444-2.348 4.008-2.348 2.982.898 4.008 2.348"/><path fill="#ffdb48" d="M70.31 154.29v-5.43l4.17-.06v7.74z"/><path stroke="#5e154d" stroke-linecap="round" stroke-linejoin="round" stroke-width="1.08" d="M72.38 132.84h6.42c3 0 5.67 3.6 5.67 8.01s-2.55 8.01-5.67 8.01h-6.42c-3 0-5.67-3.57-5.67-8.01s2.52-8.01 5.67-8.01"/><path stroke="#5e154d" stroke-linecap="round" stroke-linejoin="round" stroke-width="1.08" d="m70.34 148.86 4.14-.06h6.33v7.74h-6.33l-4.17-2.25z"/></g><g data-paper-data="{&quot;index&quot;:null}"><path fill="#5e154d" stroke="#5e154d" stroke-linecap="round" stroke-linejoin="round" stroke-width="1.08" d="m100.61 127.71-.21-1.62h4.8a10.14 10.14 0 0 1 7.32 5.1 16.65 16.65 0 0 1 1.65 7.95h-4.14l-3.81-7.59a5 5 0 0 0-1.14-.33h-.93c-1.5.18-3.24 1.41-3.24 4.86h-4.14a10.26 10.26 0 0 1 3.84-8.37"/><path fill="#b6bbde" stroke="#5e154d" stroke-linecap="round" stroke-linejoin="round" stroke-width="1.08" d="M92.45 135.12a8.308 8.308 0 0 1 8.61-9 9.66 9.66 0 0 1 7.32 5.1 17.1 17.1 0 0 1 1.65 7.95l-4.8-1.29a8.6 8.6 0 0 0-.78-3.99 4.68 4.68 0 0 0-3.54-2.67 4.32 4.32 0 0 0-4.14 4.86z"/><path fill="#9f509e" d="M104.39 126.63v-6.3l3.36.3v5.82z"/><path fill="#b6bbde" d="m98.72 125.97-.03-5.61 5.7-.03v6.3z"/><path stroke="#5e154d" stroke-linecap="round" stroke-linejoin="round" stroke-width="1.08" d="m104.39 120.33 3.36.3v5.82l-3.36.18h0l-5.67-.66-.03-5.61z"/><path fill="#5e154d" stroke="#5e154d" stroke-linecap="round" stroke-linejoin="round" stroke-width="1.08" d="M101.78 95.55h4.68c4.44 0 8.1 4.65 8.1 12s-3.42 12.93-7.38 13.35l-5.37.27z"/><path fill="#9f509e" d="M104.39 95.22v-7.47l3.36.06v7.41z"/><path fill="#b6bbde" d="m98.72 95.25-.03-7.5h5.7v7.47z"/><path stroke="#5e154d" stroke-linecap="round" stroke-linejoin="round" stroke-width="1.08" d="m104.39 87.75 3.36.06v7.41h-3.36 0l-5.67.03-.03-7.5z"/><path fill="#b6bbde" stroke="#5e154d" stroke-linecap="round" stroke-linejoin="round" stroke-width="1.08" d="M101.24 95.25c4.83 0 8.79 5.37 8.79 12.45s-3.93 13.08-8.79 13.08-8.79-5.85-8.79-13.08 3.96-12.45 8.79-12.45"/><path fill="#5e154d" stroke="#5e154d" stroke-linecap="round" stroke-linejoin="round" stroke-width="1.08" d="M101.78 62.16h5.19c4.14.69 7.44 6.21 7.44 13.02s-3.45 13.11-7.95 13.11h-4.68z"/><path fill="#b6bbde" stroke="#5e154d" stroke-linecap="round" stroke-linejoin="round" stroke-width="1.08" d="M107.455 65.753c1.59 2.368 2.576 5.638 2.576 9.247s-.985 6.879-2.576 9.247c-1.591 2.367-3.79 3.833-6.214 3.833s-4.623-1.466-6.214-3.833S92.45 78.609 92.45 75s.985-6.879 2.576-9.247c1.59-2.367 3.789-3.833 6.214-3.833s4.623 1.466 6.214 3.833"/><path stroke="#9f509e" stroke-linecap="round" stroke-linejoin="round" stroke-width="1.08" d="M104.443 70.228c.82 1.222 1.328 2.91 1.328 4.772s-.508 3.55-1.328 4.772-1.952 1.978-3.202 1.978-2.382-.756-3.202-1.978S96.71 76.862 96.71 75s.508-3.55 1.328-4.772 1.952-1.978 3.202-1.978 2.382.756 3.202 1.978M104.443 103.228c.82 1.222 1.328 2.91 1.328 4.772s-.508 3.55-1.328 4.772-1.952 1.978-3.202 1.978-2.382-.756-3.202-1.978-1.328-2.91-1.328-4.772.508-3.55 1.328-4.772 1.952-1.978 3.202-1.978 2.382.756 3.202 1.978"/></g><g data-paper-data="{&quot;index&quot;:null}"><path fill="#f05822" d="m41.48 172.38-2.19-13.05h19.56l2.31 13.05z"/><path fill="#ffb5a4" d="m39.29 159.33-9.51-5.58 19.8-.03 9.27 5.61z"/><path fill="#dd3627" d="M29.78 165.03v-11.28l9.51 5.58 2.19 13.05z"/><path stroke="#5e154d" stroke-linecap="round" stroke-linejoin="round" stroke-width="1.08" d="m49.58 153.72 9.27 5.61 2.31 13.05H41.48l-11.7-7.35v-11.28z"/><path fill="#b6bbde" d="M40.22 132.84h6.39c3 0 5.67 3.6 5.67 8.01s-2.55 8.01-5.67 8.01h-6.39z"/><path fill="#ffdb48" d="M48.62 156.54h-6.33v-7.74h6.33z"/><path fill="#c172c1" d="M44.199 135.188c1.027 1.45 1.662 3.452 1.662 5.662s-.635 4.212-1.662 5.662-2.444 2.348-4.008 2.348-2.982-.898-4.008-2.348c-1.027-1.45-1.662-3.452-1.662-5.662s.635-4.212 1.662-5.662 2.444-2.348 4.008-2.348 2.982.898 4.008 2.348"/><path fill="#fff" d="m38.12 154.29.03-5.46h4.14v7.71z"/><path stroke="#5e154d" stroke-linecap="round" stroke-linejoin="round" stroke-width="1.08" d="M40.19 132.84h6.42c3 0 5.67 3.6 5.67 8.01s-2.55 8.01-5.67 8.01h-6.42c-3 0-5.67-3.57-5.67-8.01s2.55-8.01 5.67-8.01"/><path fill="#fff" d="M48.62 156.54h-6.33v-7.74h6.33z"/><path fill="#ffdb48" d="m38.12 154.29.03-5.46h4.14v7.71z"/><path stroke="#5e154d" stroke-linecap="round" stroke-linejoin="round" stroke-width="1.08" d="M38.15 148.83h4.14v-.03h6.33v7.74h-6.33l-4.17-2.25z"/></g><g data-paper-data="{&quot;index&quot;:null}"><path fill="#9f509e" d="M11.51 116.94V58.83l13.71-.06v64.92z"/><path fill="#b6bbde" d="M101.33 123.72H25.22V58.77h76.11z"/><path fill="#d2a6cc" stroke="#5e154d" stroke-linecap="round" stroke-linejoin="round" stroke-width="1.08" d="M41.48 128.07v-4.38l43.56-.03.03 4.41z"/><path fill="#c172c1" stroke="#5e154d" stroke-linecap="round" stroke-linejoin="round" stroke-width="1.08" d="M30.92 123.69h10.56v4.38z"/><path fill="#cad0ef" d="M58.82 124.08H47.75V59.13h11.07z"/><path fill="#b6bbde" d="M101.09 124.08H58.82V59.13h42.27zM43.76 124.08H40.4V59.13h3.36z"/><path fill="#e8ecf9" d="M47.75 124.08h-5.46V59.13h5.46z"/><path fill="#d4daf4" d="M42.35 124.08h-5.46V59.13h5.46z"/><path fill="#b6bbde" d="M36.2 124.08H24.98V59.13H36.2z"/><path fill="#b6bbde" stroke="#5e154d" stroke-linecap="round" stroke-linejoin="round" stroke-width="1.08" d="M41.48 128.07h43.59l4.71 4.35v4.38H36.83v-4.38z"/><path fill="#f05822" d="M76.028 78.463A18 18 0 0 1 81.32 91.23c0 4.983-2.024 9.498-5.293 12.767a18 18 0 0 1-12.767 5.293 18 18 0 0 1-12.767-5.293A18 18 0 0 1 45.2 91.23c0-4.983 2.024-9.498 5.293-12.767A18 18 0 0 1 63.26 73.17c4.983 0 9.498 2.024 12.767 5.293"/><path stroke="#fff" stroke-linecap="round" stroke-linejoin="round" stroke-width="1.44" d="M71.235 83.256a11.25 11.25 0 0 1 3.306 7.974c0 3.112-1.264 5.932-3.306 7.974a11.25 11.25 0 0 1-7.974 3.306 11.25 11.25 0 0 1-7.974-3.306 11.25 11.25 0 0 1-3.306-7.974c0-3.112 1.264-5.932 3.306-7.974a11.25 11.25 0 0 1 7.974-3.306c3.112 0 5.932 1.264 7.974 3.306"/><path fill="#9f509e" stroke="#9f509e" stroke-linecap="round" stroke-linejoin="round" stroke-width=".72" d="M97.182 63.249a3 3 0 0 1 .879 2.121 3 3 0 0 1-.88 2.121 3 3 0 0 1-2.12.879 3 3 0 0 1-2.121-.879 3 3 0 0 1-.88-2.121c0-.828.337-1.578.88-2.121a3 3 0 0 1 2.12-.879 3 3 0 0 1 2.122.879M97.182 115.449a3 3 0 0 1 .879 2.121 3 3 0 0 1-.88 2.121 3 3 0 0 1-2.12.879 3 3 0 0 1-2.121-.879 3 3 0 0 1-.88-2.121c0-.828.337-1.578.88-2.121a3 3 0 0 1 2.12-.879 3 3 0 0 1 2.122.879M33.762 115.449a3 3 0 0 1 .879 2.121 3 3 0 0 1-.88 2.121 3 3 0 0 1-2.12.879 3 3 0 0 1-2.121-.879 3 3 0 0 1-.88-2.121c0-.828.337-1.578.88-2.121a3 3 0 0 1 2.12-.879 3 3 0 0 1 2.122.879M33.762 63.249a3 3 0 0 1 .879 2.121 3 3 0 0 1-.88 2.121 3 3 0 0 1-2.12.879 3 3 0 0 1-2.121-.879 3 3 0 0 1-.88-2.121c0-.828.337-1.578.88-2.121a3 3 0 0 1 2.12-.879 3 3 0 0 1 2.122.879"/><path stroke="#fff" stroke-linecap="round" stroke-linejoin="round" stroke-width=".72" d="M85.07 132.42H41.48M28.55 128.64l5.97 2.73"/><path stroke="#fff" stroke-linecap="round" stroke-linejoin="round" stroke-width="2.16" d="M30.89 92.79v2.64M30.89 73.17v15.72"/><path stroke="#9f509e" stroke-linecap="round" stroke-linejoin="round" stroke-width="1.08" d="M81.32 117.57H45.29M45.41 65.37h36.03"/><path stroke="#5e154d" stroke-linecap="round" stroke-linejoin="round" stroke-width="1.44" d="M56.51 52.2h17.28v6.57H48.02V52.2z"/><path fill="#d2a6cc" d="M73.79 58.77H56.51V52.2h17.28z"/><path fill="#c172c1" d="M56.51 58.77h-8.49V52.2h8.49z"/><path stroke="#5e154d" stroke-linecap="round" stroke-linejoin="round" stroke-width="1.44" d="M25.22 58.77h76.11v64.92H25.22l-13.71-6.75V58.83z"/><path fill="#9f509e" stroke="#5e154d" stroke-linecap="round" stroke-linejoin="round" stroke-width="1.08" d="m30.95 123.69 10.53 4.38-4.65 4.35v4.38s-10.11-4.71-10.11-4.8v-4.17z"/></g><g data-paper-data="{&quot;index&quot;:null}"><path fill="#f05822" d="M80.3 9.12H47.63V.72H80.3z"/><path fill="#dd3627" d="M41.51 9.12V2.94L47.66.72v8.4z"/><path fill="#9f509e" d="M26.45 52.17V12.78l11.19-3.66v43.05z"/><path fill="#cad0ef" d="M53.66 52.17h-5.19V9.12h5.19z"/><path fill="#b6bbde" d="M48.44 52.17h-3V9.12h3zM90.32 52.17H53.66V9.12h36.66z"/><path fill="#f5f7ff" d="M48.41 52.17h-3V9.12h3z"/><path fill="#b6bbde" d="M46.1 52.17h-8.46V9.12h8.46z"/><path fill="#d4daf4" d="M46.13 52.68h-3V9.63h3z"/><path stroke="#5e154d" stroke-linecap="round" stroke-linejoin="round" stroke-width="1.44" d="M47.66.72H80.3v8.4H41.51V2.94z"/><path stroke="#5e154d" stroke-linecap="round" stroke-linejoin="round" stroke-width="1.44" d="M37.64 9.12h52.68v43.05H26.45V12.78z"/></g><g stroke-linecap="butt" stroke-linejoin="miter" stroke-width="3" data-paper-data="{&quot;index&quot;:null}"><path fill="#d2a6cc" stroke="#9f509e" d="M82.673 24.658a8.46 8.46 0 0 1 2.488 6.002 8.46 8.46 0 0 1-2.488 6.002 8.46 8.46 0 0 1-6.002 2.488 8.46 8.46 0 0 1-6.002-2.488 8.46 8.46 0 0 1-2.488-6.002c0-2.342.95-4.465 2.488-6.002a8.46 8.46 0 0 1 6.002-2.488c2.342 0 4.465.951 6.002 2.488z"/><path stroke="#fff" d="M79.66 27.67a4.21 4.21 0 0 1 1.24 2.99 4.21 4.21 0 0 1-1.24 2.99 4.21 4.21 0 0 1-2.99 1.24 4.21 4.21 0 0 1-2.99-1.24 4.21 4.21 0 0 1-1.24-2.99c0-1.167.475-2.225 1.24-2.99a4.21 4.21 0 0 1 2.99-1.24c1.168 0 2.226.474 2.99 1.24z"/><path fill="#d2a6cc" stroke="#9f509e" d="M60.563 24.658a8.46 8.46 0 0 1 2.488 6.002 8.46 8.46 0 0 1-2.488 6.002 8.46 8.46 0 0 1-6.002 2.488 8.46 8.46 0 0 1-6.002-2.488 8.46 8.46 0 0 1-2.488-6.002c0-2.342.95-4.465 2.488-6.002a8.46 8.46 0 0 1 6.002-2.488c2.342 0 4.465.951 6.002 2.488z"/><path stroke="#fff" d="M57.55 27.67a4.21 4.21 0 0 1 1.24 2.99 4.21 4.21 0 0 1-1.24 2.99 4.21 4.21 0 0 1-2.99 1.24 4.21 4.21 0 0 1-2.99-1.24 4.21 4.21 0 0 1-1.24-2.99c0-1.167.475-2.225 1.24-2.99a4.21 4.21 0 0 1 2.99-1.24c1.168 0 2.226.474 2.99 1.24z"/></g><g data-paper-data="{&quot;index&quot;:null}"><path fill="#5e154d" stroke="#5e154d" stroke-linecap="round" stroke-linejoin="round" stroke-width="1.08" d="m9.05 127.74-.21-1.62h4.8a9.57 9.57 0 0 1 7.32 5.13 16.65 16.65 0 0 1 1.65 7.95h-4.44l-3.51-7.65a4.8 4.8 0 0 0-1.17-.33h-.93c-1.5.21-3.21 1.41-3.21 4.86H4.91c0-3.274 1.533-6.36 4.14-8.34"/><path fill="#9f509e" d="M12.53 126.63v-6.21l3.36-.03v6.24z"/><path fill="#b6bbde" d="m6.86 125.97-.03-5.58 5.7-.03v6.27zM4.91 96.93v22.02a8 8 0 0 1-.87-.87V97.74c.26-.3.553-.572.87-.81M.56 107.7a15.7 15.7 0 0 1 2.16-8.31v16.89a17.06 17.06 0 0 1-2.16-8.58M4.91 63.78v22.47a4.8 4.8 0 0 1-.87-.87V64.65c.252-.326.545-.619.87-.87M.56 75a16.95 16.95 0 0 1 2.16-8.55v17.1A17 17 0 0 1 .56 75M4.91 127.14v9l-.87-.18v-8.25q.42-.311.87-.57M.56 135.15a9 9 0 0 1 2.16-6.24v6.72z"/><path fill="#e8ecf9" d="M2.78 99.39a12 12 0 0 1 2.01-1.65v20.34a13 13 0 0 1-2.01-1.8zM2.78 66.45a13 13 0 0 1 2.01-1.8v20.73a13 13 0 0 1-2.01-1.8zM4.79 127.71v8.22l-2.01-.3v-6.72c.63-.463 1.304-.865 2.01-1.2"/><path fill="#9f509e" d="M12.53 95.22v-7.44l3.36.03v7.41z"/><path stroke="#5e154d" stroke-linecap="round" stroke-linejoin="round" stroke-width="1.08" d="M12.53 120.36v.06l3.36-.03v6.24h-3.36 0l-5.67-.66-.03-5.58z"/><path fill="#b6bbde" d="m6.86 95.25-.03-7.47h5.7v7.44z"/><path stroke="#5e154d" stroke-linecap="round" stroke-linejoin="round" stroke-width="1.08" d="m12.53 87.78 3.36.03v7.41h-3.36 0l-5.67.03-.03-7.47z"/><path fill="#5e154d" stroke="#5e154d" stroke-linecap="round" stroke-linejoin="round" stroke-width="1.08" d="M9.56 95.22h4.8c4.44 0 8.1 4.77 8.1 12 0 7.65-3.45 12.93-7.41 13.35l-5.37.3zM9.56 61.95h5.34c4.11.72 7.41 6.21 7.41 13.02s-3.45 13.11-7.95 13.11h-4.8z"/><path fill="#b6bbde" d="M9.38 95.25c4.83 0 8.79 5.22 8.79 12.45s-3.96 13.08-8.79 13.08h-.81V95.31zM9.38 61.92c4.83 0 8.79 6 8.79 13.08s-3.96 13.11-8.79 13.11h-.81V61.98z"/><path fill="#cad0ef" d="M8.57 95.31v25.41a7 7 0 0 1-3.66-1.77V96.93a6.96 6.96 0 0 1 3.66-1.62M4.91 63.78a6.8 6.8 0 0 1 3.66-1.8v26.07a6.8 6.8 0 0 1-3.66-1.8z"/><path stroke="#9f509e" stroke-linecap="round" stroke-linejoin="round" stroke-width="1.08" d="M12.07 70.258c.803 1.222 1.3 2.91 1.3 4.772s-.497 3.55-1.3 4.772c-.804 1.222-1.914 1.978-3.14 1.978-1.224 0-2.334-.756-3.138-1.978S4.49 76.892 4.49 75.03s.498-3.55 1.3-4.772c.805-1.222 1.915-1.978 3.14-1.978s2.335.756 3.139 1.978M12.07 103.258c.803 1.222 1.3 2.91 1.3 4.772s-.497 3.55-1.3 4.772c-.804 1.222-1.914 1.978-3.14 1.978-1.224 0-2.334-.756-3.138-1.978s-1.301-2.91-1.301-4.772.498-3.55 1.3-4.772c.805-1.222 1.915-1.978 3.14-1.978s2.335.756 3.139 1.978"/><path stroke="#5e154d" stroke-linecap="round" stroke-linejoin="round" stroke-width="1.08" d="M4.91 96.93a6.96 6.96 0 0 1 3.66-1.62h.81c4.83 0 8.79 5.22 8.79 12.45s-3.96 13.08-8.79 13.08h-.81a7 7 0 0 1-3.66-1.77A15 15 0 0 1 .56 107.7a13.68 13.68 0 0 1 4.35-10.77M9.38 88.11h-.81a6.8 6.8 0 0 1-3.66-1.8c-5.76-6.383-5.76-16.087 0-22.47a6.8 6.8 0 0 1 3.66-1.8h.81c4.83 0 8.79 6 8.79 13.08s-3.96 12.99-8.79 12.99"/><path fill="#b6bbde" d="M9.2 126.18a9.57 9.57 0 0 1 7.32 5.07 16.65 16.65 0 0 1 1.65 7.95l-4.8-1.29a8.6 8.6 0 0 0-.81-3.99 4.56 4.56 0 0 0-3.54-2.64h-.48v-5.16z"/><path fill="#cad0ef" d="M8.57 126.12v5.13a4.47 4.47 0 0 0-3.66 4.86v-9a7.7 7.7 0 0 1 3.66-.99"/><path stroke="#5e154d" stroke-linecap="round" stroke-linejoin="round" stroke-width="1.08" d="M4.91 127.14a7.7 7.7 0 0 1 3.66-1.02h.63a9.57 9.57 0 0 1 7.32 5.07 16.65 16.65 0 0 1 1.65 7.95l-4.8-1.29a8.64 8.64 0 0 0-.81-3.93 4.56 4.56 0 0 0-3.54-2.64h-.48a4.47 4.47 0 0 0-3.66 4.86l-4.32-.99a8.67 8.67 0 0 1 4.35-8.01"/></g></g></svg>