<svg xmlns="http://www.w3.org/2000/svg" xml:space="preserve" width="226.09" height="158.58" viewBox="18.4 15.9 226.09 158.58"><title>bear-walk-h</title><g fill-rule="nonzero"><g fill="#856045"><path d="M168.4 88.7c1.6 22.8-3.1 29.7-2.5 36.2.7 6.5 6.5 29.9 8.5 32.4s6.7 3.7 8.1 6.7-22.8 6.8-26 5.6-26.9-37.6-30.7-60.3c-5-46.7 41-43.4 42.6-20.6"/><path d="M128.5 87.4s-4.7 11.9-7 12.4c0 0 2.7 1.1 3.9-.9 0 0-3.7 3-3.5 7.5l2.5-1.8s-2.1 7.2-.5 11.3l1.8-3.8s-1.4 7.1 3.7 9.4"/></g><path fill="#59402f" d="M121.6 99.7s.2 0 .5-.2.7-.5 1-.9c.8-.9 1.6-2.1 2.3-3.5.3-.7.7-1.4.9-2 .3-.7.5-1.3.7-1.8.4-1.1.6-1.8.6-1.8s-.4.7-.9 1.7-1.2 2.3-1.9 3.7c-.3.7-.7 1.3-1 1.9s-.7 1.2-1 1.6c-.3.5-.6.8-.8 1.1zM122.1 106.3s.1-.5.2-1.1c.2-.6.4-1.5.7-2.3.1-.4.3-.8.5-1.2s.4-.7.5-1c.2-.3.3-.5.4-.7s.2-.3.2-.3-.1.1-.3.2-.4.3-.7.5-.5.6-.8.9l-.6 1.2c-.1.4-.3.9-.3 1.3-.1.4-.1.8-.1 1.2.1.9.3 1.3.3 1.3M124 115.5s-.3-.6-.4-1.6c-.1-.5-.1-1.1-.1-1.7s0-1.3.1-2 .1-1.3.2-2c.1-.6.2-1.2.3-1.7s.1-.9.2-1.2c0-.3.1-.5.1-.5l-.2.4c-.1.3-.3.7-.4 1.2-.2.5-.3 1.1-.5 1.7s-.2 1.3-.3 2q-.15 1.05 0 2.1c0 .7.2 1.3.3 1.8s.3.9.5 1.2c.1.1.2.3.2.3M157.6 169.6s-.2.1-.7 0c-.4-.1-1-.5-1.6-1-.6-.6-1.3-1.4-1.9-2.4s-1.3-2.1-2.1-3.4c-1.6-2.5-3.4-5.3-5.3-8.4s-4-6.4-5.9-9.8c-1-1.7-1.9-3.4-2.8-5.1s-1.7-3.4-2.5-5c-.7-1.7-1.4-3.3-2-4.8-.6-1.6-1.2-3-1.7-4.4-1-2.7-1.9-5-2.4-6.6s-.8-2.6-.8-2.6.2 1 .7 2.6 1.2 4 2.2 6.7c.5 1.4 1 2.9 1.6 4.4.6 1.6 1.2 3.2 1.9 4.9s1.6 3.4 2.4 5.1c.9 1.7 1.8 3.4 2.8 5.1 1.9 3.4 4 6.7 6 9.8s3.9 5.9 5.5 8.3c.8 1.2 1.5 2.3 2.2 3.3s1.4 1.7 2 2.3c.7.6 1.3.9 1.7 1s.7 0 .7 0M129.3 121.3s-.6-.3-1.2-1c-.3-.4-.6-.8-.8-1.3s-.4-1.1-.6-1.7c-.1-.3-.1-.6-.2-.9s-.1-.6-.2-.9c-.1-.6-.1-1.1-.2-1.6s-.1-.9-.1-1.1c0-.3-.1-.4-.1-.4s0 .2-.1.4c0 .3-.1.7-.1 1.2s-.1 1 0 1.6c0 .3 0 .6.1.9s.1.6.2 1c.2.6.4 1.3.7 1.8.1.3.3.5.5.7l.6.6c.4.3.7.5 1 .6s.5.1.5.1M175.7 167.1s0-.3-.2-.8-.6-1-1.1-1.5-1.1-.8-1.5-1c-.5-.2-.8-.2-.8-.2l.2.2c.1.1.3.2.4.4.4.3.8.7 1.3 1.1l1.2 1.2c.3.3.5.6.5.6M181.1 165.4s-.1-.4-.4-.9-.8-1.1-1.4-1.6c-.3-.2-.6-.5-1-.6-.3-.2-.7-.3-.9-.3-.3-.1-.5-.1-.7-.1h-.3s.1.1.2.1q.15.15.6.3c.5.3 1.1.7 1.6 1.1.6.4 1.1.9 1.5 1.3.5.4.8.7.8.7M178.2 160.2l-.6-.3c-.4-.2-1-.5-1.6-1.1-.6-.5-1.4-1.3-2-2.3s-1-2.2-1.3-3.7c-.7-2.8-1.7-6.1-2.7-9.6s-2-7.2-2.7-11c-.4-1.9-.7-3.8-.8-5.7s-.1-3.8.1-5.6c.3-3.6.9-7 1.3-9.8.4-2.9.7-5.3.7-7v-2.7.7c0 .5 0 1.1-.1 2-.1.8-.2 1.9-.3 3q-.3 1.8-.6 3.9c-.5 2.9-1.2 6.2-1.5 9.8-.2 1.8-.3 3.7-.1 5.6.1 1.9.4 3.9.8 5.8.8 3.8 1.8 7.6 2.8 11.1s2.1 6.7 2.9 9.5c.2.7.4 1.4.6 2s.5 1.2.9 1.7c.7 1 1.4 1.7 2.1 2.3.7.5 1.3.8 1.7 1 .2.3.4.4.4.4"/><path fill="#6c5f57" d="M175 168.6c-.1-.6-1.5-3.1-2.6-2.8s-.1 1.2.5 1.8c.7.6 2.2 1.4 2.1 1M180.3 167c-.1-.6-1.5-3.1-2.6-2.8s-.1 1.2.5 1.8c.7.6 2.2 1.4 2.1 1M183.5 165.4c-.1-.6-1.5-3.1-2.6-2.8s-.1 1.2.5 1.8c.7.6 2.2 1.4 2.1 1"/><path fill="#856045" d="M94.7 87.4s12.3 24.9-1.8 51.9c-7.1 13.5-14.3 20.3-12.3 22.7 1.9 2.5 4.7 3.8 3.3 5.5s-8.8 3.5-24.9-1.2c-1.9-.6-5.6-14.3-.6-29.9 3.9-12.3 1-19.6-.6-28.7s-10-26.3-7.3-33.7 8.1-20.7 24.9-15.6 19.1 22.7 19.3 29"/><path fill="#59402f" d="M75.8 169.1s0-.3-.1-.8-.4-1.1-.9-1.6c-.4-.5-1-.9-1.4-1.2-.4-.2-.8-.3-.8-.3s0 .1.1.2.2.3.4.4c.3.4.7.8 1.1 1.3s.8 1 1 1.4c.4.3.6.6.6.6M81.3 168.5s-.1-.4-.3-.9-.7-1.2-1.2-1.8c-.3-.3-.6-.5-.9-.7s-.6-.4-.9-.5-.5-.2-.7-.2H77l.2.2c.1.1.3.2.5.4.4.3 1 .8 1.5 1.3s1 1.1 1.4 1.5z"/><path fill="#665a52" d="M75 170.5c-.1-.6-1.2-3.2-2.3-3.1s-.3 1.2.3 1.8c.6.7 2 1.7 2 1.3M80.4 169.6c-.1-.6-1.2-3.2-2.3-3.1s-.3 1.2.3 1.8c.6.7 2 1.7 2 1.3M83.8 169.1c-.1-.6-1.2-3.2-2.3-3.1s-.3 1.2.3 1.8 2 1.6 2 1.3"/><path fill="#59402f" d="M57.6 137.7s-.6 2.1-1.1 5.4c-.3 1.6-.5 3.6-.7 5.6-.2 2.1-.3 4.3-.2 6.5 0 1.1.1 2.2.2 3.3s.3 2.2.6 3.2.6 2 1.1 2.8c.2.4.5.8.8 1.2.4.2.8.3 1.2.5 1.6.5 2.9.9 3.9 1.1.9.2 1.5.4 1.5.4s-.5-.2-1.5-.4c-.9-.3-2.3-.7-3.8-1.2-.4-.1-.8-.3-1.2-.5-.2-.3-.5-.7-.7-1.1-.4-.9-.7-1.8-.9-2.8-.4-2-.6-4.2-.6-6.4s0-4.4.2-6.5c.1-2.1.3-4 .5-5.6.4-3.3.7-5.5.7-5.5M98.6 100.5s-.1 4.3-.6 10.8c-.2 3.2-.5 7-1 11.1-.5 4-1 8.4-2.3 12.5-.3 1-.7 2-1.2 2.9s-1.1 1.9-1.6 2.8c-1.1 1.8-2.3 3.6-3.4 5.2-2.3 3.4-4.5 6.5-6.2 9.3-.8 1.4-1.6 2.7-2.1 4-.3.6-.4 1.3-.3 1.9s.4 1.1.7 1.5c.6.7 1.3 1.1 1.7 1.4s.7.4.7.4-.2-.2-.6-.5-1-.7-1.6-1.5c-.3-.4-.5-.8-.6-1.4 0-.5.1-1.1.4-1.7.5-1.2 1.3-2.5 2.1-3.9 1.7-2.7 4-5.8 6.3-9.2 1.2-1.7 2.3-3.4 3.5-5.2.6-.9 1.1-1.9 1.6-2.8.5-1 .9-2 1.3-3.1.6-2.1 1-4.3 1.4-6.4.3-2.1.6-4.2.8-6.2.4-4.1.6-7.9.8-11.1.2-6.4.2-10.8.2-10.8"/><path fill="#8d674a" d="M41.1 53.8S30.7 50.1 20 65.6c0 0 3.1-2.5 5-2.5 0 0-4.9 1.7-6.1 10 0 0 1.9-3.3 3.3-3.6 0 0-6.9 9.3 3.2 11.1 10 1.8 18.1-24.5 15.7-26.8"/><path fill="#59402f" d="M19.9 65.6s.2-.3.6-.8 1-1.2 1.7-2 1.6-1.7 2.6-2.7c.5-.5 1-.9 1.5-1.4s1.1-.9 1.7-1.3l1.8-1.2c.6-.3 1.2-.7 1.8-1 .6-.2 1.2-.6 1.8-.7.6-.2 1.1-.4 1.7-.5.5-.1 1-.2 1.4-.3s.8 0 1.1-.1h1s-.4 0-1-.1c-.3 0-.7-.1-1.2-.1-.4 0-.9.1-1.5.1-.5.1-1.1.3-1.7.4s-1.2.4-1.9.7c-.6.3-1.2.6-1.9 1l-1.8 1.2c-.6.5-1.2.9-1.7 1.4s-1.1 1-1.5 1.5c-1 1-1.8 2-2.4 2.8-1.4 1.8-2.1 3.1-2.1 3.1M24.9 63.1s-.7.3-1.6 1c-.5.4-.9.8-1.4 1.3s-1 1.1-1.4 1.8-.8 1.3-1 2c-.1.3-.2.7-.3 1s-.2.6-.2.9c-.1.6-.1 1-.1 1.4v.5s0-.2.1-.5c0-.2.1-.4.1-.6.1-.2.2-.5.2-.7.1-.3.2-.5.3-.8s.2-.6.4-.9c.1-.3.3-.6.5-.9l.6-.9c.8-1.2 1.8-2.4 2.5-3.2.8-.9 1.3-1.4 1.3-1.4M22.1 69.5s-.5.4-1 1.1c-.3.4-.6.8-.8 1.3-.3.5-.5 1.1-.6 1.7s-.2 1.2-.1 1.8c0 .3.1.6.2.8.1.3.1.5.2.7l.5 1c.1.2.2.3.2.3s0-.1-.1-.4c0-.1-.1-.3-.2-.4 0-.2-.1-.4-.1-.6-.1-.2-.1-.4-.1-.7 0-.2-.1-.5-.1-.8v-.8c0-.3.1-.6.1-.8.1-.6.3-1.1.5-1.6s.4-1 .6-1.4c.4-.7.8-1.2.8-1.2"/><path fill="#8d674a" d="M184.4 84s0 7.8-3.5 10.9l-.2-2.8s-1.1 8.8-7.6 11.3l.8-2.6s-7.4 4.5-7.4 7.9l-1.2-2s-6.8 5.7-9.8 3.7"/><path fill="#8d674a" d="M162.2 29c-18.8-6.4-43 3-54.4 7.1C91.3 42 71.7 25.8 44.6 47.5s-22.2 54.6-2.2 71c22.3 18.3 101.8 19.2 116.2-9 0 0 26.4-9.9 27.9-37.2"/><path fill="#59402f" d="M184.6 84.1s-.2.7-.4 1.7-.5 2.4-.8 3.8c-.1.3-.2.7-.3 1s-.2.7-.3 1c-.2.6-.4 1.2-.6 1.7-.1.2-.2.5-.3.6-.1.2-.2.4-.3.4-.2.2-.3.4-.3.4s.1-.1.4-.3c.1-.1.3-.2.4-.4.2-.2.3-.4.5-.6.3-.4.6-1 .9-1.6s.5-1.3.6-2c.3-1.4.5-2.8.6-3.9-.1-1.1-.1-1.8-.1-1.8M180.7 92.1s-.2.9-.7 2.1c-.2.6-.5 1.4-.8 2.1-.2.4-.4.8-.5 1.1-.2.4-.4.8-.6 1.1-.2.4-.5.7-.7 1.1-.3.3-.5.7-.8 1s-.5.6-.8.9c-.3.2-.5.5-.8.7s-.5.4-.7.6c-.2.1-.4.3-.6.4-.3.2-.5.3-.5.3s.2-.1.6-.2c.2-.1.4-.2.7-.3.2-.1.5-.3.8-.4l.9-.6c.3-.2.6-.5.9-.8s.6-.6.9-1c.3-.3.5-.7.8-1.1q.75-1.2 1.2-2.4c.3-.8.5-1.6.7-2.2zM173.9 101s-.7.2-1.6.7c-.5.3-1 .6-1.5 1s-1.1.8-1.6 1.3-1 1-1.4 1.6c-.4.5-.7 1.1-.9 1.6-.1.3-.2.5-.2.7-.1.2-.1.4-.1.5-.1.3-.1.5-.1.5l.2-.4c.1-.1.1-.3.2-.5s.2-.4.4-.6c.1-.2.3-.4.5-.7.2-.2.4-.5.6-.7.4-.5.9-1 1.4-1.4.5-.5 1-.9 1.5-1.3s1-.8 1.4-1.1c.6-.8 1.2-1.2 1.2-1.2M165.3 106.9l-1.5 1c-.5.3-1 .6-1.6.9s-1.2.7-1.8 1-1.3.6-1.9.8l-.9.3c-.3.1-.6.1-.8.2-.3 0-.5.1-.7.1H155s.2 0 .5.1c.2 0 .3.1.6.1h.7c.5 0 1.2-.1 1.8-.3.7-.2 1.3-.4 2-.7.6-.3 1.3-.7 1.8-1.1.6-.4 1.1-.8 1.5-1.1.9-.8 1.4-1.3 1.4-1.3M141.2 27.2s-3.1.2-7.7 1c-2.3.4-5 .9-7.8 1.6s-5.8 1.5-8.8 2.5-5.8 2.3-8.5 3.3c-1.4.5-2.7.9-4 1.1-.6.1-1.3.2-1.9.3s-1.2.1-1.8.2c-1.1.1-2.2.1-3.1.2h-4.5s.8.1 2.1.2c.7.1 1.5.1 2.4.1h3.2c.6 0 1.2-.1 1.8-.1.6-.1 1.3-.2 1.9-.3 1.3-.2 2.7-.6 4.1-1s2.8-1 4.2-1.6 2.8-1.1 4.3-1.6 2.9-.9 4.4-1.3 2.9-.8 4.3-1.2c2.8-.7 5.4-1.3 7.7-1.8s4.2-.8 5.5-1.1c1.5-.4 2.2-.5 2.2-.5M67.2 36.4s-1.2.2-3.2.8-4.9 1.6-8.3 3.1c-3.3 1.5-7.1 3.5-10.8 6.3-3.7 2.7-7.3 6.2-10.1 10.2-1.4 2-2.6 4.2-3.7 6.3s-2 4.3-2.8 6.5-1.5 4.3-1.9 6.3c-.4 2.1-.7 4.1-.7 5.9-.1 3.7.5 6.7.9 8.8s.6 3.3.6 3.3-.2-1.2-.4-3.3c-.3-2.1-.7-5.1-.6-8.8.1-1.8.3-3.8.8-5.8s1.2-4.1 2-6.2c.9-2.1 1.8-4.3 2.9-6.4 1-2.2 2.2-4.2 3.6-6.2 2.8-4 6.3-7.4 9.9-10.1s7.3-4.9 10.6-6.4c3.3-1.6 6.1-2.7 8.2-3.3 1.8-.7 3-1 3-1M153.1 116.7s-.4.3-1 .7c-.7.4-1.7 1.1-3 1.8-.7.4-1.4.8-2.2 1.2s-1.7.8-2.7 1.3c-1 .4-2 .9-3.1 1.4-1.1.4-2.3.9-3.5 1.4s-2.5.9-3.8 1.4-2.7.8-4.1 1.3c-2.9.8-5.9 1.6-9.1 2.2-.8.2-1.6.3-2.4.5-.8.1-1.6.2-2.5.4-.8.1-1.7.2-2.5.4-.8.1-1.7.2-2.5.2-.8.1-1.7.1-2.6.2s-1.7.2-2.6.2c-1.7 0-3.5.1-5.2.1-3.5-.1-6.9-.1-10.3-.4-3.4-.2-6.8-.6-10-.9l-4.8-.6c-1.6-.2-3.1-.5-4.5-.7-2.9-.5-5.7-1-8.2-1.6s-4.8-1.2-6.8-1.9c-1-.3-1.9-.7-2.8-1-.8-.4-1.6-.6-2.3-1-1.4-.6-2.4-1.2-3.1-1.7s-1-.8-1-.8.3.3 1 .8 1.7 1.1 3.1 1.8c.7.4 1.5.7 2.3 1 .9.3 1.8.7 2.8 1.1 2 .7 4.3 1.4 6.8 2s5.3 1.2 8.3 1.7c1.5.2 3 .5 4.5.7 1.6.2 3.1.4 4.8.6 3.2.3 6.6.7 10 .9 3.4.3 6.9.3 10.4.5 1.7-.1 3.5-.1 5.2-.2.9 0 1.7-.1 2.6-.2s1.7-.2 2.6-.2c.9-.1 1.7-.1 2.5-.3.8-.1 1.7-.2 2.5-.4.8-.1 1.7-.2 2.5-.4.8-.1 1.6-.3 2.4-.5 3.2-.6 6.3-1.4 9.1-2.3 1.4-.5 2.8-.9 4.1-1.3 1.3-.5 2.6-.9 3.8-1.4s2.4-1 3.4-1.5q1.65-.75 3-1.5c.9-.5 1.8-1 2.6-1.4.8-.5 1.5-.9 2.2-1.3 1.3-.8 2.3-1.4 3-1.9.7-.1 1.1-.4 1.1-.4"/><path fill="#856045" d="M69.5 108.3s-8.9 9.3-11.2 8.8c0 0 2 2.1 4 .7 0 0-4.6 1.3-6.1 5.7l3-.7s-4.7 5.9-4.7 10.2l3.2-2.8s-4 6-.1 10.1"/><path fill="#59402f" d="M58.5 117.1h.5c.3-.1.8-.2 1.3-.5 1.1-.5 2.3-1.4 3.5-2.3.6-.5 1.1-1 1.6-1.5s1-1 1.3-1.4c.7-.9 1.2-1.5 1.2-1.5s-.6.5-1.5 1.2-2 1.7-3.2 2.7c-.6.5-1.1 1-1.7 1.4-.5.4-1.1.8-1.5 1.1-.5.3-.9.6-1.2.7-.1.1-.3.1-.3.1M56.4 123.5s.3-.4.6-.9c.4-.5.9-1.2 1.5-1.9l.9-.9c.3-.3.6-.5.9-.7s.5-.4.7-.4c.2-.1.3-.2.3-.2H61c-.2 0-.5.1-.8.2s-.7.3-1 .6c-.4.2-.7.6-1 .9s-.6.7-.8 1.1-.4.7-.5 1.1c-.5.6-.5 1.1-.5 1.1M54.7 132.6s0-.7.3-1.7c.1-.5.3-1 .6-1.6.2-.6.5-1.2.8-1.8s.6-1.2 1-1.7q.45-.9.9-1.5c.3-.4.5-.8.6-1.1.2-.3.2-.4.2-.4l-.3.3-.9.9c-.3.4-.7.9-1.1 1.4s-.7 1.1-1.1 1.8c-.3.6-.6 1.3-.8 1.9s-.3 1.2-.4 1.8c-.1.5 0 1 0 1.3.2.3.2.4.2.4M56.5 139s-.1-.1-.2-.3-.2-.6-.2-1c-.1-.8.1-1.9.3-2.9.2-1.1.6-2.1.8-2.9s.4-1.3.4-1.3-.1.1-.2.3-.3.5-.5.9-.4.8-.6 1.3c-.1.3-.2.5-.3.8s-.2.5-.2.8c-.1.6-.2 1.1-.2 1.7 0 .5.1 1.1.2 1.5s.3.7.5.9z"/><path fill="#8d674a" d="M72.3 127.8c-6.2 6.4-30.2 23.5-29.6 26.5s5 8 3 8.9c-1.2.5-5.9 1.6-12.1-1.1-4.4-1.9-10.6-6.9-11.9-8.4-1.4-1.5-1.9-17.5 10.7-33.1 8-9.9 6.4-24.7 3.7-36.7-2-9 26.4-24.2 31.2-11.5 9.2 24.4 10.8 49.4 5 55.4"/><path fill="#8d674a" d="M46 99.1s-10.3 7.6-12.6 6.8c0 0 1.7 2.4 3.8 1.4 0 0-4.7.5-7 4.5l3.1-.1s-5.6 5-6.4 9.3l3.6-2.2s-4.9 5.3-1.8 9.9"/><path fill="#59402f" d="M33.6 105.8s.2.1.5.1.8-.1 1.4-.2c1.1-.3 2.5-1 3.8-1.7.7-.4 1.3-.8 1.9-1.2s1.1-.8 1.6-1.2c.9-.7 1.4-1.2 1.4-1.2s-.7.3-1.7.9-2.3 1.3-3.6 2.1c-.6.4-1.3.7-1.9 1.1-.6.3-1.2.6-1.7.9-.5.2-.9.4-1.3.5-.2 0-.4-.1-.4-.1M30.5 111.7l.8-.8c.5-.5 1.1-1.1 1.8-1.6.3-.3.7-.5 1-.7s.7-.4 1-.5.5-.3.7-.3c.2-.1.3-.1.3-.1h-.3c-.2 0-.5 0-.8.1s-.7.2-1.1.4-.8.4-1.2.7-.7.6-1 .9-.5.7-.7 1c-.4.5-.5.9-.5.9M27.3 120.5s.1-.7.6-1.6c.2-.5.5-1 .8-1.5s.7-1.1 1.1-1.6.8-1.1 1.2-1.6.8-.9 1.1-1.3.6-.7.8-.9.3-.4.3-.4-.1.1-.4.3c-.2.2-.6.4-1 .8-.4.3-.9.7-1.3 1.2-.5.5-.9 1-1.3 1.5-.4.6-.8 1.1-1.1 1.7s-.5 1.2-.7 1.7-.2 1-.2 1.3c0 .2.1.4.1.4M28 127s-.1-.1-.1-.4c0-.2-.1-.6 0-1 .1-.8.4-1.8.8-2.8s.9-2 1.3-2.7.6-1.3.6-1.3l-.3.3c-.2.2-.4.4-.7.8-.2.3-.6.7-.8 1.2-.1.2-.3.5-.4.7-.1.3-.2.5-.4.8-.2.5-.4 1.1-.5 1.6s-.1 1-.1 1.5c0 .4.2.8.3 1s.3.3.3.3"/><path fill="#59402f" d="M31.4 122s-1.7 1.7-3.6 4.7c-1 1.5-2 3.3-3 5.3-.5 1-.9 2.1-1.3 3.2s-.8 2.2-1.1 3.4c-.3 1.1-.6 2.3-.8 3.5s-.4 2.3-.5 3.4-.2 2.2-.2 3.2 0 2 .1 2.9c0 .4.1.9.1 1.3.1.5.3.8.5 1.1.5.6 1 1 1.4 1.3.8.6 1.3.9 1.3.9s-.5-.3-1.3-1c-.4-.3-.9-.7-1.3-1.3-.2-.3-.4-.6-.5-1v-1.3c0-.9 0-1.8.1-2.8 0-1 .1-2.1.3-3.2.1-1.1.3-2.2.5-3.3s.5-2.3.8-3.4c.6-2.3 1.4-4.5 2.3-6.5q1.35-3 2.7-5.4c2-3.1 3.5-5 3.5-5M74.1 93.8s.6 4.9 1 12.2c.2 3.7.3 8-.2 12.5-.2 2.3-.6 4.6-1.4 6.9-.4 1.1-1 2.1-1.9 2.9-.8.9-1.7 1.7-2.6 2.5-3.7 3.3-7.6 6.2-11.2 9-3.7 2.8-7.1 5.4-9.9 7.8-1.4 1.2-2.6 2.4-3.7 3.4-.5.5-1 1.1-1.3 1.7q-.45.9-.3 1.8c.2 1.1.6 1.8.9 2.3s.4.8.4.8-.1-.3-.4-.8c-.2-.5-.6-1.3-.8-2.3 0-.5 0-1.1.4-1.7.3-.5.8-1 1.3-1.5 1.1-1 2.3-2.2 3.7-3.3 2.8-2.3 6.3-4.9 10-7.6 1.8-1.4 3.7-2.8 5.6-4.3s3.8-3 5.7-4.7c.9-.8 1.8-1.7 2.7-2.6s1.6-2 2-3.2c.9-2.3 1.2-4.7 1.4-7s.2-4.5.2-6.7c0-2.1-.1-4.1-.2-6-.2-3.7-.6-6.7-.9-8.9-.3-2-.5-3.2-.5-3.2M38.1 164s.1-.3 0-.8-.3-1.1-.7-1.7-.8-1-1.3-1.3c-.4-.3-.7-.4-.7-.4s0 .1.1.2.2.3.3.5c.3.4.6.9 1 1.4.3.5.6 1.1.9 1.5.3.3.4.6.4.6M43.8 164.1s0-.4-.2-1-.5-1.3-1-1.9c-.2-.3-.5-.6-.8-.8s-.6-.4-.8-.6c-.3-.1-.5-.2-.7-.3s-.3-.1-.3-.1l.2.2.5.5c.4.4.9.9 1.3 1.5s.9 1.2 1.2 1.6c.3.6.6.9.6.9"/><path fill="#6c5f57" d="M37.2 165.3c0-.6-.8-3.3-1.9-3.4-1.1 0-.4 1.1.1 1.9s1.8 1.9 1.8 1.5M42.7 165c0-.6-.8-3.3-1.9-3.4s-.4 1.1.1 1.9 1.8 1.9 1.8 1.5M46.1 165c0-.6-.8-3.3-1.9-3.4-1.1 0-.4 1.1.1 1.9.5.7 1.8 1.8 1.8 1.5"/><g fill="#8d674a"><path d="M158.2 99.5c-7.4 21.7-14.4 26.2-16.4 32.4-1.9 6.2-5.3 29.4-4.4 32.5s6 3.8 6.1 7.1-25.5 0-28-2.3-10.5-42.8-4.6-67.2c13.6-45.1 54.7-24.2 47.3-2.5"/><path d="M121.5 82.2s-9 9.2-11.3 8.7c0 0 2 2.1 4 .7 0 0-4.6 1.3-6.1 5.6l3-.6s-4.7 5.9-4.8 10.2l3.2-2.8s-4 6-.2 10.1"/></g><g fill="#59402f"><path d="M109.5 91.2h.5c.3-.1.8-.2 1.3-.5 1-.5 2.3-1.4 3.4-2.4.6-.5 1.1-1 1.6-1.5s.9-1 1.3-1.4c.7-.9 1.2-1.5 1.2-1.5s-.6.5-1.5 1.2-2 1.8-3.1 2.7c-.6.5-1.1 1-1.7 1.4-.5.4-1.1.8-1.5 1.2-.5.3-.9.6-1.2.7-.1.1-.3.1-.3.1M107.5 97.5s.2-.4.6-.9.9-1.3 1.4-1.9l.9-.9c.3-.3.6-.5.8-.7.3-.2.5-.4.7-.5s.3-.2.3-.2-.1 0-.3.1c-.2 0-.5.1-.8.2s-.7.3-1 .6c-.4.2-.7.6-1 .9-.3.4-.6.7-.8 1.1s-.4.7-.5 1.1c-.3.7-.3 1.1-.3 1.1M106 106.7s0-.7.2-1.7c.1-.5.3-1 .5-1.6s.5-1.2.8-1.8l.9-1.8q.45-.9.9-1.5c.3-.4.5-.8.6-1.1s.2-.4.2-.4l-.3.3c-.2.2-.5.5-.8.9s-.7.9-1.1 1.4-.7 1.1-1 1.8c-.3.6-.6 1.3-.8 1.9s-.3 1.2-.4 1.8c-.1.5 0 1 0 1.3.2.4.3.5.3.5M108.7 114.1s-.4-.5-.7-1.4c-.1-.4-.2-1-.3-1.5 0-.6 0-1.2.1-1.8 0-.3.1-.6.1-.9s.1-.6.2-.9c.1-.6.3-1.1.4-1.6s.2-.8.3-1.1.1-.4.1-.4-.1.1-.2.4c-.1.2-.4.6-.6 1s-.4 1-.6 1.5c-.1.3-.2.6-.2.9-.1.3-.1.6-.2 1-.1.7-.1 1.3 0 1.9 0 .3.1.6.2.9s.2.5.3.7c.2.4.5.8.7 1 .3.3.4.3.4.3"/></g><path fill="#59402f" d="M141.3 168.1s-.2-.1-.6-.4-.9-.6-1.5-1.2-1.2-1.4-1.7-2.5q-.3-.75-.3-1.8c0-.6.1-1.3.2-2 .3-2.9.8-6.2 1.3-9.8s1.1-7.4 1.9-11.1c.4-1.9.9-3.7 1.4-5.5q.9-2.7 2.1-5.1c1.6-3.2 3.3-6.1 4.8-8.6s2.6-4.7 3.2-6.2c.3-.8.6-1.4.8-1.8l.3-.6-.3.6c-.2.4-.5 1-.8 1.8-.4.8-.9 1.7-1.4 2.7-.6 1-1.3 2.1-2 3.4-1.5 2.5-3.4 5.3-5 8.6-.8 1.6-1.6 3.4-2.2 5.2s-1.1 3.7-1.5 5.6c-.8 3.8-1.4 7.6-1.9 11.2s-.8 6.9-1.1 9.8c-.1.7-.2 1.4-.1 2.1 0 .7.2 1.3.4 1.9.5 1.1 1.2 1.9 1.8 2.5s1.2.9 1.6 1.2c.4-.1.6 0 .6 0M135.6 172.6s.1-.3 0-.8-.3-1.1-.6-1.7c-.4-.6-.8-1.1-1.2-1.4s-.7-.4-.7-.4 0 .1.1.2.2.3.3.5c.3.4.6.9.9 1.4s.6 1.1.9 1.5c.1.4.3.7.3.7M141.2 172.3s0-.4-.2-1-.5-1.3-1-1.9c-.2-.3-.5-.6-.8-.8s-.6-.4-.8-.6q-.45-.15-.6-.3c-.2-.1-.3-.1-.3-.1l.2.2.5.5c.4.4.9.9 1.3 1.5s.8 1.2 1.1 1.7c.4.5.6.8.6.8"/><path fill="#6c5f57" d="M134.6 173.9c0-.6-.7-3.3-1.8-3.4s-.5 1.1 0 1.9c.5.7 1.7 1.9 1.8 1.5M140.1 173.7c0-.6-.7-3.3-1.8-3.4s-.5 1.1 0 1.9c.5.7 1.8 1.9 1.8 1.5M143.6 173c0-.6-.7-3.3-1.8-3.4s-.5 1.1 0 1.9c.5.7 1.7 1.9 1.8 1.5"/><path fill="#59402f" d="M116.5 169.6h-.2c-.1 0-.3-.1-.4-.3-.3-.3-.7-.9-1.1-1.6-.7-1.5-1.3-3.9-1.8-6.8-.6-2.9-1.2-6.2-1.7-9.8-.6-3.6-1.1-7.5-1.5-11.4-.2-1.9-.4-3.9-.5-5.8s-.2-3.8-.3-5.6V123c0-1.7.1-3.3.1-4.7.1-2.9.2-5.4.4-7.1.1-1.7.3-2.7.3-2.7s-.2 1-.4 2.7-.4 4.1-.6 7.1c-.1 1.5-.2 3.1-.3 4.7-.1 1.7-.2 3.5-.1 5.3 0 1.8.1 3.7.2 5.7.1 1.9.3 3.9.5 5.8.4 3.9 1 7.8 1.6 11.4s1.3 7 2 9.8c.6 2.9 1.3 5.2 2.1 6.8.4.8.8 1.3 1.2 1.6.2.1.3.2.5.2"/><path fill="#8d674a" d="M173.2 23.7c20.3-2.8 43.1 9.1 46.2 14.7s3.7 18.8 3.7 18.8 20.5 10.7 20.1 15-7 14.1-15.3 14.7-15.4 1.5-25.1 1-27.1 1.6-35.9-8.2c0 0 1.2 4.3 2.9 5.5 0 0-11.4-2.6-8.4-13.5 0 0-2 1.8-1.4 7.5 0 0-6.1-6.2-2.2-15.2 0 0-2.7 4.9-5.4 4.9 0 0 2.6-3.8 2.5-10.3.1-6.4 1.3-32.5 18.3-34.9"/><path fill="#8d674a" d="M176.3 22.8c20.4-2 40.1 9.9 43.2 15.6s3.7 18.8 3.7 18.8 20.4 10.7 20 15-7 14.1-15.3 14.7-16.9 3.5-26.5 2.9-25.6-.2-34.4-10c0 0 1.2 4.3 2.9 5.5 0 0-11.4-2.6-8.4-13.5 0 0-2 1.8-1.4 7.5 0 0-6.1-6.2-2.2-15.2 0 0-2.7 4.9-5.4 4.9 0 0-4.5-15.2-4.6-21.7s14-23.1 28.4-24.5"/><path fill="#9e7b5c" d="M243.2 72.2c-.4 4-6.1 12.7-13.6 14.4-2.5-1.4-5.3-3.4-5.5-6.1 0 0-16.1-11.1-1.1-23.3.1 0 20.6 10.7 20.2 15"/><path fill="#332721" d="M242.3 75.4c.9-1.6 2.3-3.2 1.4-4.6-.5-.8-1.7-2.3-2.7-2.3s-2.5 3 .5 4.5c-.4 1.6.2 2.1.8 2.4"/><path fill="#59402f" d="M236.9 82.2s-.5-.3-1.3-.7c-.4-.2-.9-.3-1.4-.5-.5-.1-1.1-.3-1.7-.3-.6-.1-1.2-.1-1.8-.1s-1.1.1-1.5.2-.8.2-1 .3l-.4.2h.4c.3 0 .6-.1 1-.1h1.5c.5 0 1.1.1 1.7.1 1.1.1 2.3.3 3.1.5.8.3 1.4.4 1.4.4"/><ellipse cx="30.901" cy="34.601" fill="#332010" rx="1.7" ry="2.6" transform="rotate(5.264 -148.205 2699.7)scale(-1 1)"/><path fill="#9e7b5c" d="M209.9 49.8c-.1 1.1 3 1.8 4.4 1.9s2.7-.6 2.8-1.7-1-2-2.4-2.2c-1.5-.1-4.7.9-4.8 2"/><path fill="#59402f" d="M223.1 57.2v-2.3c-.1-1.4-.1-3.5-.4-6-.1-1.2-.3-2.6-.6-4s-.6-2.9-1.2-4.3c-.3-.7-.6-1.5-1-2.2-.5-.7-.9-1.3-1.5-2-1.1-1.2-2.3-2.4-3.6-3.4s-2.7-1.9-4.1-2.7-2.8-1.6-4.2-2.2c-1.4-.7-2.8-1.2-4.1-1.7s-2.6-.9-3.8-1.3q-1.8-.6-3.3-.9c-1-.2-1.8-.5-2.5-.6-1.4-.3-2.2-.5-2.2-.5s.8.2 2.2.6 3.4 1 5.7 1.7c1.2.4 2.4.8 3.7 1.4 1.3.5 2.7 1.1 4.1 1.8s2.8 1.4 4.2 2.2 2.7 1.8 4 2.7q1.95 1.5 3.6 3.3c.5.6 1 1.2 1.4 1.9s.7 1.4 1 2.1c1.1 2.9 1.6 5.7 1.9 8.1.6 5 .7 8.3.7 8.3M169.9 85.3s-.3-.1-.7-.2c-.5-.1-1.1-.4-1.9-.8-.4-.2-.8-.4-1.2-.7-.4-.2-.8-.6-1.2-.9s-.8-.7-1.2-1.1-.7-.8-1-1.3c-.3-.4-.5-1-.8-1.4-.2-.5-.3-1-.5-1.5-.1-.5-.1-1-.2-1.5s0-.9 0-1.4c0-.4 0-.8.1-1.2 0-.3.1-.6.1-.9.1-.5.1-.8.1-.8s-.1.3-.2.8c-.1.2-.2.5-.2.9-.1.3-.2.7-.2 1.2 0 .4-.1.9-.1 1.4s0 1 .1 1.6c.2.5.2 1.1.5 1.6.2.5.4 1.1.8 1.6.3.5.7.9 1.1 1.4.4.4.9.8 1.3 1.1.9.6 1.8 1.1 2.6 1.4 1.5.6 2.7.7 2.7.7M160.1 79.3s-.7-.7-1.5-2.1c-.2-.3-.4-.7-.6-1.1s-.4-.8-.5-1.3c-.1-.2-.2-.4-.2-.7-.1-.2-.1-.5-.2-.7l-.3-1.5c-.1-.5-.1-1-.1-1.5s0-1 .1-1.5.1-.9.2-1.4l.3-1.2c.1-.4.2-.7.3-1s.2-.6.2-.8c.1-.4.2-.7.2-.7l-.3.6c-.1.2-.2.5-.4.7-.2.3-.3.6-.4 1s-.3.8-.4 1.2-.2.9-.3 1.4c0 .5-.1 1-.1 1.5s0 1 .1 1.6l.3 1.5c.1.2.1.5.2.7s.2.5.3.7c.2.5.4.9.6 1.3s.5.7.7 1.1c.5.6.9 1.1 1.3 1.4.3.6.5.8.5.8M152.6 68.9s.2-.2.4-.5c.2-.4.6-.9.9-1.6s.6-1.5.8-2.4.4-1.9.5-2.8c.1-.5.1-1 .1-1.5s.1-1 .1-1.4c.1-.9 0-1.8 0-2.5s-.1-1.3-.1-1.8c0-.4-.1-.7-.1-.7s0 .2-.1.7c0 .4-.1 1-.1 1.8 0 .7-.1 1.6-.2 2.5s-.2 1.9-.3 2.8c-.1 1-.2 1.9-.4 2.8q-.3 1.35-.6 2.4c-.2.7-.4 1.2-.6 1.6zM179 22.8s-.4-.1-1.1-.2h-1.2c-.5 0-1 .1-1.6.2s-1.2.2-1.9.4c-.6.2-1.3.3-2 .6-.7.2-1.4.5-2.1.8s-1.4.7-2.1 1-1.4.8-2 1.1c-.7.4-1.3.8-1.9 1.2-1.2.8-2.3 1.6-3.2 2.3-.5.3-.9.7-1.2 1-.4.3-.7.6-.9.8-.5.4-.8.7-.8.7l.9-.6c.3-.2.6-.4 1-.7s.8-.6 1.3-.9 1-.7 1.6-1c.5-.4 1.2-.7 1.8-1.1s1.2-.8 1.9-1.1c.7-.4 1.3-.8 2-1.1s1.4-.7 2.1-1 1.4-.6 2-.9c1.3-.5 2.6-.9 3.8-1.2.6-.1 1.1-.2 1.6-.3s.9-.1 1.2-.1c.4 0 .8.1.8.1"/><path fill="#8d674a" d="M192 25.6s-1.7-8.2-6.3-8.8-15.3 3.9-7.2 16.6"/><path fill="#59402f" d="M185.5 19.3s-.4.6-.7 1.5c-.2.5-.4 1-.5 1.6-.2.6-.3 1.3-.3 2v1c.1.3.1.7.2 1l.3.9c.1.3.2.5.4.7.3.4.5.7.8.9l.3.3s-.1-.1-.2-.4c-.1-.1-.2-.3-.3-.4l-.3-.6c-.1-.2-.2-.5-.2-.7-.1-.3-.1-.5-.2-.8s-.1-.6-.1-.9v-.9c0-.6.1-1.3.2-1.8.1-.6.2-1.1.3-1.6.1-1.1.3-1.8.3-1.8"/><g fill="#59402f"><path d="M183.2 28.4s0 .2.1.3c.1.2.2.4.4.6s.4.4.6.5.3.1.3.1 0-.2-.1-.3c-.1-.2-.2-.4-.4-.6s-.4-.4-.6-.5c-.1-.1-.3-.1-.3-.1M182 29.7s0 .1.1.3.2.3.3.5c.1.1.3.3.5.3.2.1.3.1.3.1s0-.1-.1-.3-.2-.3-.3-.5c-.1-.1-.3-.3-.5-.3-.1-.1-.3-.1-.3-.1"/></g><path fill="#59402f" d="M179.1 18.5s.3-.1.7-.4c.5-.2 1.2-.5 2-.7.2-.1.4-.1.7-.2.2 0 .5-.1.7-.1h1.6c.3 0 .5.1.8.1.3.1.5.2.8.2.3.1.5.2.8.3.2.1.5.2.7.4.3.6.8.9 1.1 1.3.4.4.7.8 1 1.3.2.5.6.9.7 1.4.2.5.4.9.6 1.3s.3.8.4 1.1l.3.9c.2.5.3.8.3.8s0-.3-.1-.8c0-.3-.1-.6-.2-.9-.1-.4-.1-.8-.3-1.2-.1-.4-.3-.9-.5-1.4-.1-.5-.4-1-.7-1.5-.2-.5-.6-1-1-1.5-.3-.5-.9-.9-1.3-1.3-.2-.2-.5-.3-.8-.5-.3-.1-.5-.3-.8-.4s-.6-.2-.9-.2-.6-.1-.9-.1h-.8c-.3 0-.5 0-.8.1s-.5.1-.7.2c-.4.3-.6.3-.8.4-.4.1-.8.3-1.1.5s-.6.3-.8.5c-.5.2-.7.4-.7.4"/><path fill="#8d674a" d="M173.2 23.7c20.3-2.8 43.1 9.1 46.2 14.7s3.7 18.8 3.7 18.8 20.5 10.8 20.1 15-7 14.1-15.3 14.7-15.4 1.5-25.1 1c-9.6-.5-27.1 1.6-35.9-8.2 0 0 1.2 4.3 2.9 5.5 0 0-11.4-2.6-8.4-13.5 0 0-2 1.8-1.4 7.5 0 0-6.1-6.2-2.2-15.2 0 0-2.7 4.9-5.4 4.9 0 0 2.6-3.8 2.5-10.3.1-6.4 1.3-32.5 18.3-34.9"/><path fill="#8d674a" d="M176.3 22.8c20.4-2 40.1 9.9 43.2 15.6s3.7 18.8 3.7 18.8 20.4 10.8 20 15-7 14.1-15.3 14.7-16.9 3.5-26.5 2.9-25.6-.2-34.4-10c0 0 1.2 4.3 2.9 5.5 0 0-11.4-2.6-8.4-13.5 0 0-2 1.8-1.4 7.5 0 0-6.1-6.2-2.2-15.2 0 0-2.7 4.9-5.4 4.9 0 0-4.5-15.2-4.6-21.7s14-23.1 28.4-24.5"/><path fill="#9e7b5c" d="M243.2 72.2c-.4 4-6.1 12.7-13.6 14.4-2.5-1.4-5.3-3.4-5.5-6.1 0 0-16.1-11.1-1.1-23.3.1 0 20.6 10.8 20.2 15"/><path fill="#332721" d="M242.3 75.4c.9-1.6 2.3-3.2 1.4-4.6-.5-.8-1.7-2.3-2.7-2.3s-2.5 3 .5 4.5c-.4 1.6.2 2.1.8 2.4"/><path fill="#59402f" d="M236.9 82.2s-.5-.3-1.3-.7c-.4-.2-.9-.3-1.4-.5-.5-.1-1.1-.3-1.7-.3-.6-.1-1.2-.1-1.8-.1s-1.1.1-1.5.2-.8.2-1 .3l-.4.2h.4c.3 0 .6-.1 1-.1h1.5c.5 0 1.1.1 1.7.1 1.1.1 2.3.3 3.1.5.8.3 1.4.4 1.4.4"/><ellipse cx="30.901" cy="34.601" fill="#332010" rx="1.7" ry="2.6" transform="rotate(5.264 -148.205 2699.7)scale(-1 1)"/><path fill="#9e7b5c" d="M209.9 49.8c-.1 1.1 3 1.8 4.4 1.9s2.7-.6 2.8-1.7-1-2-2.4-2.2c-1.5-.1-4.7.9-4.8 2"/><path fill="#59402f" d="M223.1 57.2v-2.3c-.1-1.4-.1-3.5-.4-6-.1-1.2-.3-2.6-.6-4s-.6-2.9-1.2-4.3c-.3-.7-.6-1.5-1-2.2-.5-.7-.9-1.3-1.5-2-1.1-1.2-2.3-2.4-3.6-3.4s-2.7-1.9-4.1-2.7-2.8-1.6-4.2-2.2c-1.4-.7-2.8-1.2-4.1-1.7s-2.6-.9-3.8-1.3q-1.8-.6-3.3-.9c-1-.2-1.8-.5-2.5-.6-1.4-.3-2.2-.5-2.2-.5s.8.2 2.2.6 3.4 1 5.7 1.7c1.2.4 2.4.8 3.7 1.4 1.3.5 2.7 1.1 4.1 1.8s2.8 1.4 4.2 2.2 2.7 1.8 4 2.7q1.95 1.5 3.6 3.3c.5.6 1 1.2 1.4 1.9s.7 1.4 1 2.1c1.1 2.9 1.6 5.7 1.9 8.1.6 5 .7 8.3.7 8.3M169.9 85.3s-.3-.1-.7-.2c-.5-.1-1.1-.4-1.9-.8-.4-.2-.8-.4-1.2-.7-.4-.2-.8-.6-1.2-.9s-.8-.7-1.2-1.1-.7-.8-1-1.3c-.3-.4-.5-1-.8-1.4-.2-.5-.3-1-.5-1.5-.1-.5-.1-1-.2-1.5s0-.9 0-1.4c0-.4 0-.8.1-1.2 0-.3.1-.6.1-.9.1-.5.1-.8.1-.8s-.1.3-.2.8c-.1.2-.2.5-.2.9-.1.3-.2.7-.2 1.2 0 .4-.1.9-.1 1.4s0 1 .1 1.6c.2.5.2 1.1.5 1.6.2.5.4 1.1.8 1.6.3.5.7.9 1.1 1.4.4.4.9.8 1.3 1.1.9.6 1.8 1.1 2.6 1.4 1.5.7 2.7.7 2.7.7M160.1 79.3s-.7-.7-1.5-2.1c-.2-.3-.4-.7-.6-1.1s-.4-.8-.5-1.3c-.1-.2-.2-.4-.2-.7-.1-.2-.1-.5-.2-.7l-.3-1.5c-.1-.5-.1-1-.1-1.5s0-1 .1-1.5.1-.9.2-1.4l.3-1.2c.1-.4.2-.7.3-1s.2-.6.2-.8c.1-.4.2-.7.2-.7l-.3.6c-.1.2-.2.5-.4.7-.2.3-.3.6-.4 1s-.3.8-.4 1.2-.2.9-.3 1.4c0 .5-.1 1-.1 1.5s0 1 .1 1.6l.3 1.5c.1.2.1.5.2.7s.2.5.3.7c.2.5.4.9.6 1.3s.5.7.7 1.1c.5.6.9 1.1 1.3 1.4.3.6.5.8.5.8M152.6 69s.2-.2.4-.5c.2-.4.6-.9.9-1.6s.6-1.5.8-2.4.4-1.9.5-2.8c.1-.5.1-1 .1-1.5s.1-1 .1-1.4c.1-.9 0-1.8 0-2.5s-.1-1.3-.1-1.8c0-.4-.1-.7-.1-.7s0 .2-.1.7c0 .4-.1 1-.1 1.8 0 .7-.1 1.6-.2 2.5s-.2 1.9-.3 2.8c-.1 1-.2 1.9-.4 2.8q-.3 1.35-.6 2.4c-.2.7-.4 1.2-.6 1.6zM179 22.8s-.4-.1-1.1-.2h-1.2c-.5 0-1 .1-1.6.2s-1.2.2-1.9.4c-.6.2-1.3.3-2 .6-.7.2-1.4.5-2.1.8s-1.4.7-2.1 1-1.4.8-2 1.1c-.7.4-1.3.8-1.9 1.2-1.2.8-2.3 1.6-3.2 2.3-.5.3-.9.7-1.2 1-.4.3-.7.6-.9.8-.5.4-.8.7-.8.7l.9-.6c.3-.2.6-.4 1-.7s.8-.6 1.3-.9 1-.7 1.6-1c.5-.4 1.2-.7 1.8-1.1s1.2-.8 1.9-1.1c.7-.4 1.3-.8 2-1.1s1.4-.7 2.1-1 1.4-.6 2-.9c1.3-.5 2.6-.9 3.8-1.2.6-.1 1.1-.2 1.6-.3s.9-.1 1.2-.1c.4 0 .8.1.8.1"/><path fill="#8d674a" d="M192 25.6s-1.7-8.2-6.3-8.8-15.3 3.9-7.2 16.6"/><path fill="#59402f" d="M185.5 19.4s-.4.6-.7 1.5c-.2.5-.4 1-.5 1.6-.2.6-.3 1.2-.3 1.9v1c.1.3.1.7.2 1l.3.9c.1.3.2.5.4.7.3.4.5.7.8.9l.3.3s-.1-.1-.2-.4c-.1-.1-.2-.3-.3-.4l-.3-.6c-.1-.2-.2-.5-.2-.7-.1-.3-.1-.5-.2-.8s-.1-.6-.1-.9v-.9c0-.6.1-1.3.2-1.8 0-.7.1-1.3.2-1.8.2-.9.4-1.5.4-1.5"/><g fill="#59402f"><path d="M183.2 28.4s0 .2.1.3c.1.2.2.4.4.6s.4.4.6.5.3.1.3.1 0-.2-.1-.3c-.1-.2-.2-.4-.4-.6s-.4-.4-.6-.5c-.1-.1-.3-.1-.3-.1M182 29.7s0 .1.1.3.2.3.3.5c.1.1.3.3.5.3.2.1.3.1.3.1s0-.1-.1-.3-.2-.3-.3-.5c-.1-.1-.3-.3-.5-.3-.1-.1-.3-.1-.3-.1"/></g><path fill="#59402f" d="M179.1 18.5s.3-.1.7-.4c.5-.2 1.2-.5 2-.7.2-.1.4-.1.7-.2.2 0 .5-.1.7-.1h1.6c.3 0 .5.1.8.1.3.1.5.2.8.2.3.1.5.2.8.3.2.1.5.2.7.4.3.6.8.9 1.1 1.3.4.4.7.8 1 1.3.2.5.6.9.7 1.4.2.5.4.9.6 1.3s.3.8.4 1.1l.3.9c.2.5.3.8.3.8s0-.3-.1-.8c0-.3-.1-.6-.2-.9-.1-.4-.1-.8-.3-1.2-.1-.4-.3-.9-.5-1.4-.1-.5-.4-1-.7-1.5-.2-.5-.6-1-1-1.5-.3-.5-.9-.9-1.3-1.3-.2-.2-.5-.3-.8-.5-.3-.1-.5-.3-.8-.4s-.6-.2-.9-.2-.6-.1-.9-.1h-.8c-.3 0-.5 0-.8.1s-.5.1-.7.2c-.4.3-.6.3-.8.4-.4.1-.8.3-1.1.5s-.6.3-.8.5c-.5.2-.7.4-.7.4"/></g></svg>