<svg xmlns="http://www.w3.org/2000/svg" width="113.345" height="190.331" viewBox="0 0 113.345 190.331"><g fill="none" stroke-miterlimit="10" data-paper-data="{&quot;isPaintingLayer&quot;:true}" font-family="none" font-size="none" font-weight="none" style="mix-blend-mode:normal" text-anchor="none"><path fill="#fff" d="m37.993 151.24-.75 2.479-1.95 7.508.225 3.829.75.976h3.375l2.925.525 2.174.826.9 3.228-.6 4.205-2.625 4.955-5.925 4.355-3.525.826-2.025-1.127-1.275-1.501-5.85 5.255-3.525 1.352-3.525-.526-2.55-1.276-2.175-2.027-.6-1.802v-2.853l-2.025.826h-3.15l-2.842-2.103-1.733-3.153-.675-3.003.6-2.703 2.775-3.68.825-.975s-2.7-2.552-2.7-2.778v-2.552l2.175-3.53 4.725-2.702 3.45-.375 3.225 1.05 2.063-2.702 3.413-1.426 3.525.75 3.825 6.457.975 1.05 7.35-7.507z"/><path fill="#30419a" d="M29.445 183.836c-.161.106-.33.184-.457.306-1.397 1.343-2.693 2.81-4.202 4.01-1.58 1.254-3.43 2.063-5.517 2.169-2.737.138-4.773-1.186-6.651-3-1.357-1.312-2.434-2.715-2.604-4.711-1.162-.062-2.312-.056-3.441-.201-1.642-.212-2.91-1.085-3.898-2.42-1.143-1.541-2.292-3.076-2.566-5.045-.281-2.02-.023-3.973.85-5.823.284-.597.633-1.17 1.012-1.713.484-.695 1.258-.925 1.746-1.566-1.882-.56-2.977-3.107-2.586-4.908.685-3.151 2.504-5.502 5.43-6.812 1.779-.796 3.56-1.848 5.645-1.59 1.042.129 2.065.407 3.109.619 1.106-.876 2.288-1.961 3.617-2.821 1.423-.922 3.106-.795 4.69-.524 1.955.334 3.48 3.044 4.35 4.569.572 1 1.157 2.269 1.926 3.125 1.038-.587 1.735-1.78 2.577-2.606.903-.888 1.857-1.743 2.753-2.65.664-.674 1.249-1.406 2.067-1.868.14-.08 1.933-.927 1.96-.397.062 1.214-.553 2.3-1.024 3.376-.446 1.018-.788 2.124-1.137 3.186-.788 2.399-1.152 4.947-.515 7.427.194.752.312 1.478 1.6 1.365 1.77-.156 3.649-.075 5.362.366 1.827.47 2.882 2.004 2.96 3.945.146 3.554-1.066 6.695-2.705 9.832-.98 1.873-2.755 2.495-4.031 3.823-.102.106-.286.14-.37.254-1.28 1.708-3.35 1.81-5.126 2.396-2.295.757-3.423-.05-4.558-1.864-.054-.085-.152-.145-.266-.25m6.523-29.446c-1.651 1.74-3.082 3.356-4.634 4.847-1.26 1.212-2.46.832-3.111-.756-.561-1.365-1.092-2.783-1.908-3.992-1.046-1.552-2.127-3.12-4.497-2.95-1.755.127-4.03 1.839-4.27 3.564-.06.436-.458.946-.847 1.175-.32.188-1.032.192-1.265-.036-1.234-1.208-2.492-1.87-4.35-1.471-3.251.697-6.037 1.873-7.397 5.214-.55 1.347-.505 2.597.16 3.887.533 1.036 1.517.782 2.356.956.325.067.665.063.995.115 1.064.17 1.383.8.954 1.763s-1.332.722-2.058.796c-1.208.124-2.18.47-2.874 1.577-1.786 2.846-1.543 5.716.183 8.35 1.605 2.45 3.068 4.274 6.985 2.683.65-.263 1.152-.876 1.79-1.188.408-.2 1.03-.328 1.398-.153.516.246.738.778.2 1.374-.333.37-.464.919-.778 1.314-1.184 1.486-.56 2.62.392 3.63a15 15 0 0 0 1.903 1.729c1.386 1.04 3.015 1.54 4.684 1.168 1.068-.237 2.064-.931 3.01-1.546 2.233-1.448 4.285-3.071 5.403-5.635.223-.513.924-.988 1.487-1.114.319-.071.936.526 1.184.957.362.628.414 1.436.779 2.06.438.752 1.082 1.448 2.094 1.215 2.856-.66 5.225-2.212 7.27-4.251 1.64-1.634 2.497-3.725 3.008-5.943.307-1.33.657-2.702.62-4.047-.04-1.567-1.407-2.63-2.96-2.465-1.102.117-2.18.5-3.26.79-1.123.302-2.546-.226-3.068-1.242-1.11-2.154-1.425-4.453-.954-6.816.355-1.784.868-3.537 1.376-5.56"/><path fill="#ef463c" d="m55.168 126.472 1.875 9.31-.45 1.35-13.65-.675-2.1-.976-.75-1.426 6.42-9.16z"/><path fill="#afd7f2" d="m92.293 33.975 1.575 2.252 1.05 42.42-.75 3.904-24.525 7.358-.825 2.402 2.475 2.328 3.283 2.552 4.742 2.027 4.275.9 2.85.527 3.3.375 1.204 3.679-.53 2.252-3.974.826-6.675-1.201-5.706-2.478-4.044-2.552-1.95 7.733-2.475 6.682-5.1 7.658-5.475 2.327-5.025-.45-3.6-1.802-3.375-4.655-.9-6.081.75-4.28.15-2.027-6.9 2.102-9.375 1.652-2.925-1.276 3.525-5.481h3.45l7.05-1.201 7.875-5.256 1.8-3.078.15-1.577-16.35-7.658-2.475-1.501-.6-1.051V35.477l16.35-5.106 27.75-3.604z"/><path fill="#f7ec1e" d="m5.218 72.19 1.05-2.177 10.575-7.303 11.175-7.338 5.025-1.801 6.375 1.2 3.375 4.055 1.35 7.808-2.175 6.907-4.575 3.154h-8.7l-20.85-3.078zM56.593 2.742l1.793-1.501 12.607 22.824 3.256 7.432-2.206 2.403-6.45 2.327-7.207.9s-6.668-1.951-6.743-1.951-2.325-2.477-2.85-3.604c-.525-1.126.675-4.805.675-4.805zM94.018 44.486l9.15 1.05 9.15 2.779-2.55 3.454-14.85 12.162zM69.493 99.744v4.204l-1.5 2.928-3 .6-2.7-.9-1.8-3.078v-3.078l2.85-2.328 3.375-.976z"/><path fill="#fff" d="m69.193 57.639-3.45 2.764s-5.1 1.426-6.32 1.426-2.68-2.778-3.28-3.604c-.6-.825-.15-3.904 0-4.654.15-.751 11.175-3.304 11.175-3.304zM88.768 53.12s-5.55 3.078-5.775 2.928-3.825.6-3.825.6l-1.777-1.276-.773-2.777.773-2.93 3.727-2.551 4.575-.751z"/><path fill="#fcf6b6" d="m88.093 78.872-24.6 6.832s-1.575-.375-1.575-.6c0-.226-1.425-13.59-1.425-13.59l27-7.057z"/><path fill="#ef463c" d="M26.893 99.594v3.528l-.825 3.304-2.25 2.177-3.9 1.727h-4.8l-3.675-.676-2.025-3.078v-1.99c0-.04 1.575-1.39 1.575-1.39h1.95s6.15 1.653 6.45 1.353 1.2 0 1.2 0l.9-1.276s-.225-1.427-.45-1.652-1.725-1.802-1.725-1.802-3.75-3.304-3.9-3.53c-.15-.224-.825-2.476-.825-2.476l.975-1.727h3.75l5.85 3.453zM96.943 102.297l.975 2.552 2.175 1.05 3.075.452 2.925.45 2.175 2.102-.75 2.328-2.325 1.2h-4.35l-3.9-.975-3.375-2.327-2.621-4.205v-4.955l1.12-2.778 4.05-3.078 4.426-.601 2.625 1.727.375 1.877-3.15 1.952s-2.55 1.502-2.85 1.802z"/><path fill="#30419a" d="M28.219 102.306c7.547 1.03 16.22-3.177 18.718-8.754-1.41-.718-2.81-1.473-4.244-2.15-1.438-.68-2.926-1.254-4.368-1.925a133 133 0 0 1-5.097-2.482c-1.128-.583-2.197-1.281-3.305-1.905-.487-.274-1.02-.465-1.505-.74-1.09-.618-.847-1.768-1.016-2.734-.252-1.447-.294-2.901-.371-4.37-3.056-.432-6.325-.727-9.436-1.01a39 39 0 0 1-4.503-.686c-1.127-.233-12.465-1.961-9.016-4.72 1.498-1.198 3.026-2.4 4.449-3.686 1.149-1.038 2.484-1.675 3.712-2.6 3.36-2.53 7.016-4.767 10.625-6.93 1.1-.66 2.213-1.28 3.265-1.985.326-.22 1.125-.505 1.313-.84.244-.434-.147-.937-.166-1.383-.022-.502.116-1.024.083-1.56a414 414 0 0 1-.256-4.453c-.121-2.347-.14-4.7-.276-7.047-.08-1.364-.3-2.72-.464-4.08-.174-1.435.323-1.991 1.743-2.334 3.219-.777 6.416-1.651 9.626-2.468.538-.137 1.113-.131 1.643-.288 2.885-.86 5.754-2.123 8.734-2.617-.204.034.494-2.77.574-3.018.349-1.076.318-2.238.688-3.311 1.483-4.295 2.6-8.787 4.204-13.017.429-1.13.62-2.343 1.008-3.5.39-1.172.74-2.344 1.099-3.517.279-.908.867-1.766 1.79-2.114.349-.131.874-.103 1.2.072 1.09.587 1.71 1.553 2.22 2.7.613 1.377 1.477 2.648 2.285 3.93 1.89 3.002 3.193 6.21 4.823 9.345.995 1.915 2.009 3.82 2.947 5.765.598 1.238 1.37 3.413 2.502 4.195.806.557 1.894.687 2.792 1.053 1.16.473 2.292.905 3.476 1.257 3.934 1.17 7.77 2.83 11.633 4.243.803.294 1.813.356 2.37.895.634.609 1.132 1.61 1.217 2.486.203 2.086.128 4.198.163 6.3.007.409 0 .819 0 1.058.805.1 1.516.185 2.226.28 1.977.262 3.965.457 5.926.814 1.54.28 3.046.76 4.567 1.155q1.935.502 3.869 1.01c1.812.479 2.149 1.737.966 3.23-1.026 1.294-2.178 2.413-3.28 3.63-1.088 1.206-2.195 2.329-3.452 3.375-2.807 2.334-5.708 4.555-8.591 6.795-.412.32-.951.478-1.574.78 0 2.345.016 4.856-.008 7.368-.01 1.044-.138 2.086-.146 3.128-.006.746.137 1.492.146 2.238.017 1.293-.03 2.59-.002 3.882.015.773.313 1.719-.526 2.16-.485.255-.837.404-1.295.696-.568.363-1.254.619-1.875.882-3.62 1.538-7.474 2.517-11.32 3.462-1.25.308-2.475.642-3.75.854-1.19.198-2.346.51-3.514.793-.757.184-1.933.28-2.598.674-.622.367-.541.716-.4 1.497.175.973 1.21 1.766 1.912 2.377.694.606 1.487 1.132 2.257 1.633 1.498.975 3.097 1.799 4.785 2.393 3.228 1.136 6.98 1.585 10.387 1.394.16-1.532 1.914-3.22 2.897-4.293 1.477-1.612 3.067-3.008 5.347-3.493 2.868-.61 6.222 1.305 6.837 4.168.09.424-.064 1.139-.368 1.364-.88.65-1.864 1.183-2.861 1.647-1.384.642-2.943 1.016-3.407 2.779-.271 1.03.437 2.527 1.44 2.798.749.202 1.54.26 2.316.333 1.589.148 3.21.119 4.763.436 1.085.222 1.94.924 2.27 2.22.289 1.134.57 2.087-.251 3.136-.714.91-1.507 1.525-2.604 1.959-2.243.889-4.527 1.09-6.812.55-1.561-.366-3.184-.801-4.411-1.992-.698-.677-1.4-1.394-2.137-2.026-.157-.135-1.735-1.443-1.664-1.483-1.524.853-4.223.728-5.912.645-2.191-.108-4.357-.545-6.445-1.208-1.886-.6-3.602-1.744-5.373-2.684-.788-.417-1.521-.933-2.492-1.538-.208.833-.47 1.52-.542 2.227-.347 3.372-1.356 6.639-2.797 9.698-.628 1.335-1.471 2.473-2.174 3.735-.832 1.49-1.57 2.849-2.852 4.027-1.011.929-1.935 2.045-3.186 2.664-.386.19-3.778 1.597-3.813 1.476.747 2.58 1.47 5.194 2.308 7.776.647 1.993-.271 3.614-2.318 3.674-2.7.079-5.402.136-8.08-.52-1.125-.275-2.352-.151-3.533-.178-1.763-.04-3.206-.628-4.443-1.983-.781-.854-.487-1.647-.203-2.366.322-.817.96-1.52 1.509-2.236 1.272-1.66 2.57-3.298 3.86-4.943.138-.176.273-.37.45-.498.753-.553.658-.982.074-1.711-.966-1.207-1.931-2.502-2.5-3.92-.684-1.704-1.106-3.554-1.36-5.38-.273-1.963.076-3.928.785-5.805.074-.195.064-.422.099-.671-1.323.417-2.58.864-3.865 1.207-1.792.478-3.59.964-5.412 1.289-2.69.478-5.474.795-8.073-.072-1.143-.382-1.911-.091-2.876.084-1.597.29-3.213.486-4.827.668-2.395.269-4.578-.35-6.648-1.571-2.443-1.44-2.822-5.367-.615-7.106.878-.693 1.9-.842 2.944-.5 1.406.46 2.756 1.122 4.187 1.459.774.182 1.713.009 2.489-.26 1.053-.362 1.273-1.165.462-1.962-1.24-1.216-2.554-2.432-4.038-3.308-2.163-1.277-3.056-5.24-1.147-6.813.775-.64 2.192-.951 3.19-.758 1.504.289 2.964 1.03 4.323 1.795 3.757 2.113 5.542 5.384 5.9 9.889M52.49 45.838c.1 8.1.079 15.75.322 23.393.246 7.72.755 15.43 1.156 23.274.449-.065 1.009-.083 1.53-.234 1.705-.493 3.378-1.108 5.097-1.54 3.585-.901 7.19-1.713 10.788-2.565 4.422-1.05 8.862-2.034 13.259-3.182a56 56 0 0 0 7.202-2.391c1.288-.53 2.142-1.687 2.004-3.282-.061-.698-.113-1.401-.098-2.1.034-1.507.188-3.014.158-4.518-.063-3.06-.241-6.12-.32-9.18-.046-1.834.005-3.671.02-5.507.008-.94.11-1.884.033-2.814-.14-1.667-.58-3.33-.55-4.987.08-4.71-.198-9.397-.644-14.076-.027-.282-.588-.771-.83-.732a48 48 0 0 0-4.362.938c-1.857.483-3.68 1.1-5.544 1.549-2.663.64-5.32 1.202-7.972 1.868-.94.236-1.868.49-2.804.736-1.938.51-3.76 1.318-5.683 1.868-2.118.607-4.26 1.128-6.391 1.685-.574.15-1.154.28-1.725.445-1.668.478-3.333.969-4.646 1.352M29.26 77.96c0 1.154-.025 2.198.007 3.24.03 1.05.322 1.889 1.419 2.415 2.835 1.36 5.564 2.95 8.43 4.239 4.04 1.817 8.169 3.446 12.478 5.247 0-2.641.063-4.974-.018-7.302-.072-2.11-.358-4.21-.442-6.32-.104-2.585-.087-5.175-.138-7.764a296 296 0 0 0-.153-5.58c-.056-1.444-.206-2.886-.224-4.33-.016-1.36.158-2.724.117-4.082-.072-2.44-.303-4.874-.352-7.313-.05-2.466-.254-2.808-2.454-3.814a883 883 0 0 1-12.594-5.87c-1.346-.64-2.613-1.446-3.933-2.143-.784-.414-1.602-.764-2.606-1.236l.429 16.42c1.605-.66 3.059-1.423 4.838-1.317 2.278.136 4.58.42 6.3 1.94 1.34 1.187 2.463 2.593 3.41 4.108 1.048 1.669 1.289 3.277 1.493 5.238.13 1.253.283 2.587.158 3.854-.138 1.399-.723 2.765-1.223 4.067-.568 1.48-1.466 2.763-2.541 3.919-1.098 1.18-2.017 1.704-3.511 2.25-2.79 1.02-5.99.373-8.89.134M6.568 71.55q.061.221.125.44c1.202.349 2.39.356 3.618.624 1.356.295 2.673.755 4.044.98 1.678.277 3.402.634 5.099.714 1.025.049 2.022.209 3.018.367 1.493.237 2.903.605 4.413.715 2.56.19 5.119.47 7.683.566 4.283.159 7.739-2.974 8.28-7.185.19-1.483.17-2.958.17-4.467 0-3.408-1.49-7.674-4.667-9.367-2.875-1.533-6.352-.176-9.081 1.035-.84.373-1.52 1.112-2.361 1.48-2.651 1.163-5.173 2.523-7.49 4.272-1.966 1.483-4.008 2.868-5.963 4.366-2.326 1.782-4.595 3.638-6.888 5.46m52-68.92-.477-.007c-.464.965-1.04 1.894-1.371 2.902a374 374 0 0 0-1.988 6.273c-1.043 3.366-1.965 6.774-2.667 10.229-.59 2.905-1.84 5.67-1.937 8.668-.086 2.612 2.502 3.57 4.586 4.525 3.07 1.406 6.292 1.282 9.494.449a51 51 0 0 0 4.49-1.401c1.339-.485 2.759-.817 3.83-1.895.543-.547.578-1.101.297-1.715-.401-.88-.871-1.727-1.284-2.603a1206 1206 0 0 1-3.89-8.31c-1.387-3-2.625-6.077-4.168-8.993-1.477-2.792-3.264-5.421-4.914-8.122M30.217 35.72c.074.138.09.23.145.263 3.548 2.075 7.164 3.954 11.1 5.262 2.608.866 5.03 2.297 7.52 3.505.774.376 1.44.65 2.096-.223.22-.294.663-.477 1.039-.586 1.655-.474 3.332-.866 4.982-1.355 3.099-.917 6.172-1.926 9.282-2.81 1.973-.56 4.007-.906 5.984-1.455 1.912-.531 3.775-1.23 5.677-1.794 1.623-.482 3.27-.884 4.909-1.311 1.552-.404 3.108-.795 4.662-1.192l-.025-.336c-4.438-1.688-8.57-4.147-13.522-5.472.22.059.782 1.585.883 1.852.3.792.312 1.415.02 2.216-.506 1.403-.97 2.152-2.335 2.792-5.138 2.409-10.985 4.102-16.656 2.729-1.63-.394-3.461-1.28-4.943-2.088-1.532-.836-3.16-1.79-3.398-3.863-.028-.242-.1-.48-.17-.803zM55.59 95.254a3 3 0 0 0-.093.449 7.7 7.7 0 0 1-.755 2.468c-1.193 2.347-2.933 3.843-4.921 5.48-.456.375-.907.832-1.394 1.185-.887.64-1.818 1.21-2.833 1.62-1.04.42-1.994.9-1.425 2.172.95 2.125 2.613 3.66 4.425 4.97 2.019 1.462 4.42 2.236 6.874 2.517.86.099 1.805-.026 2.659-.083 1.35-.09 2.579-.252 3.888-.617 1.935-.54 3.943-1.588 4.665-3.598.34-.95.97-2.118.818-3.141-.976-.02-1.942.447-2.951.404-2.784-.118-4.196-2.068-5.138-4.37-.525-1.28-.614-2.682.079-4.007 1.163-2.222 2.848-3.794 5.31-4.52 1.057-.311 1.982-.208 2.89.332.376.22.724.487 1.108.749-.196-.134 0-2.086 0-2.387 0-.783.063-1.595 0-2.376-.072-.884-.085-.838-.892-.726-.597.082-1.2.219-1.798.31-1.703.26-3.328.894-5.007 1.352-1.36.37-2.72.836-4.033 1.188-.897.24-1.281.016-1.476.629m39.472-49.994.655 16.648c5.809-3.751 10.789-7.924 15.537-12.88-5.226-2.188-10.584-2.69-16.192-3.768m-30.821 71.72c-8.431 3.22-15.275 1.45-20.85-5.415 0 1.446-.208 2.842.042 4.152.628 3.29 2.152 6.055 5.066 7.978 2.558 1.689 5.248 1.717 7.999.89 2.93-.88 4.888-3.026 6.499-5.52.41-.635.777-1.298 1.244-2.085m40.584-4.996c1.044-.26 1.812-.894 2.02-2.104.322-1.868-1.073-2-2.43-2.145-1.836-.196-3.663.016-5.521-.648-2.532-.906-3.35-4.57-2.25-6.444.615-1.043 1.503-1.858 2.527-2.49.91-.558 2.278-.733 3.084-1.354 1.817-1.402-2.308-2.503-3.285-2.37-1.651.225-3.042 1.107-4.305 2.146-.936.77-2.262 1.5-2.763 2.664-.406.939-.19 2.716-.066 3.729.336 2.72 1.904 5.38 4.22 6.872 1.468.946 6.052 2.818 8.769 2.144M16.59 109.33c1.39-.253 2.81-.394 4.16-.784 2.418-.697 4.134-2.34 4.836-4.72 1-3.39-.21-6.253-2.737-8.572a10.07 10.07 0 0 0-5.06-2.517c-.856-.157-1.79-.21-2.162.877-.338.987.079 1.75.87 2.322.577.418 1.147.896 1.796 1.15 2.085.82 3.09 2.525 3.833 4.462.636 1.656-.066 3.288-1.652 4.052-1.275.613-2.611.562-3.897.24-1.476-.368-2.892-.973-4.345-1.438-.774-.247-1.487-.223-1.86.7-.386.963-.135 2.047.677 2.56 1.68 1.06 3.472 1.747 5.54 1.668m44.578-6.485c.459.88.792 1.864 1.405 2.62 1.108 1.367 3.206 2.166 4.939.287 2.066-2.242 1.216-5.421-.643-7.15-.267-.25-.766-.411-1.13-.368-1.716.203-4.541 2.516-4.571 4.61m-12.456-8.578c-.636 1.26-1.176 2.654-1.998 3.854-.572.836-.258 1.323.236 1.828 1.689 1.732 2.063 1.747 3.59-.093 1.056-1.271 2.013-2.641 2.229-3.997zm-13.886 13.789c.93.297 2.532-.43 3.22-.6.9-.22 2.359-.49 3.094-1.056-.467-.48-1.304-3.471-2.1-3.391l-5.247 1.553c-.206.062.35 2.852.528 3.12a.92.92 0 0 0 .505.374m50.019-2.06c.285-.126.45-.412.493-1.008.099-1.354-.06-3.414-1.688-3.751-1.052-.218-2.343-.264-3.423-.206.07-.004-.362 2.219-.417 2.419-.267.969-.908 1.604.2 1.933 1.142.34 2.323.537 3.508.645.577.053 1.02.104 1.327-.031m-59.22 2.538c2.189.77 4.364.406 6.563-.107l-.4-3.725h-3.895zm17.565 27.102c.654.037.765-.25 1.019-.821.865-1.951 2.015-3.826 3.027-5.721.265-.498 1.362-1.853 1.04-2.415-.584-1.026-1.511.547-1.836.923-.863.999-1.715 2.008-2.511 3.062-.56.742-2.543 3.29-2.217 4.165.175.47.82.73 1.279.789q.108.013.199.018m34.43-31.291a.5.5 0 0 0 .088-.021c.573-.194.687-1.644.77-2.18.078-.504.105-1.312-.184-1.525-.973-.72-2.096-1.234-3.11-1.797-.145-.031-1.897 2.43-1.885 2.668.032.62 1.597 1.539 2.077 1.844.43.275 1.64 1.1 2.245 1.01m-27.01 23.22c-.461-.333-1.12.548-1.283.903-.582 1.259-1.113 2.59-1.726 3.87a21 21 0 0 0-1.03 2.568c-.066.205.17.727.324.75 1.065.167 2.146.24 3.146.337-.066-.716-.215-1.291-.152-1.844.146-1.263.354-2.517.515-3.778.066-.518.669-2.388.249-2.772a.3.3 0 0 0-.043-.034m2.087 8.186c.107.485.24.592.96.663.982.096 2.115.01 2.138-1.218.025-1.411-.886-3.354-1.316-4.703-.32-1.001-.736-1.971-1.11-2.954-.442.336-.71.674-.737 1.03-.11 1.426-.3 2.957-.275 4.429.013.802.118 1.569.264 2.356.028.155.05.286.076.397M46.7 103.217c.09-.703-.748-1.187-1.168-1.702l-1.247-1.527-3.145 2.226c.384.777.644 1.495 1.072 2.093.2.28.884 1.113 1.195 1.202.42.12 1.022-.386 1.367-.57.595-.318 1.752-.901 1.914-1.65zm39.91-.744c.219 1.366.109 3.41 1.146 3.854.69.293 1.857-.092 2.177-.761.317-.663-.023-1.564-.1-2.246-.23-2.012-1.796-1.772-3.46-1.688.113.219.185.51.238.84m-15.544-1.766c2.387-2.742 2.339-3.73 0-4.574z" data-paper-data="{&quot;origPos&quot;:null}"/><path fill="#30419a" d="M60.069 82.783c-.068-.895-.11-1.8-.21-2.742-.187-1.774-.126-3.594-.116-5.391.005-.926-.37-1.825-.314-2.76.077-1.312.826-1.376 1.926-1.688 3.22-.914 6.429-1.868 9.648-2.784 1.93-.55 3.862-1.094 5.812-1.568 2.057-.501 4.144-.874 6.198-1.383 1.15-.286 2.249-.777 3.394-1.09.628-.171 1.33-.3 1.946-.177 1.028.207.574 5.356.594 6.26.042 1.919.045 3.823.046 5.755 0 .767.067 1.508.075 2.27.017 1.704.114 2.34-1.55 2.85-1.874.574-3.774 1.048-5.661 1.577-2.588.725-5.153 1.536-7.761 2.175-2.76.674-5.568 1.144-8.334 1.795-1.22.287-2.414.735-3.568 1.229-.908.39-1.315-.107-1.52-.762-.378-1.221-.516-2.386-.605-3.566m10.17-12.905c.075.569.222 1.089.195 1.597-.196 3.544.602 6.983 1.092 10.452.029.209.373.56.52.535.899-.148 1.783-.386 2.674-.593l-.838-13.064zm10.81 10.358c.24-.052.522-.152.844-.272 1.149-.426 1.196-.924 1.095-2.165-.15-1.827-.2-3.661-.358-5.487-.157-1.811-.392-3.615-.6-5.485-.45.102-.663.172-.883.198-1.071.125-1.762.517-1.548 1.8.11.65.035 1.336.01 2.004-.05 1.438-.023 2.85.284 4.23.296 1.324.03 2.629.1 3.968.059 1.136.409 1.349 1.057 1.209m-16.892-8.441a.69.69 0 0 0-.5-.28c-.643-.047-1.673.19-2.176.462-.084 1.48.232 2.912.36 4.374.18 2.063.335 4.128.483 6.193.162 2.259.376 2.396 2.526 1.406.33-.152-.276-5.57-.306-6.181-.046-.925.489-4.88-.387-5.974m4.426-1.236c-.618.029-1.277-.011-1.903.116-.351.07-.933.436-.92.639.105 1.74.314 3.477.51 5.212.092.816.222 1.627.335 2.44l.674 4.894 1.876-.762zm16.892 8.172c.295-.072.556-.138.622-.172.49-.256.7-.536.67-1.12-.032-.692.16-1.392.164-2.09.02-3.137.009-6.274.009-9.708-1.07.326-1.94.57-2.79.87-.148.054-.31.353-.297.527.263 3.95.785 8.01.57 11.972.003-.035.574-.164 1.052-.28M77.89 67.92c-1.862.268-2.313.648-2.26 1.558.234 3.924.2 7.699.999 11.559.01.053 1.148-.165 1.244-.225.516-.32.427-.515.355-1.165-.154-1.39-.29-2.763-.322-4.162-.057-2.481-.016-4.963-.016-7.565M68.295 48.892c1.88-.164 3.225.622 4.2 2.125.957 1.472 2.169 2.98 1.227 4.84-.537 1.058-1.36 2.08-2.296 2.804-2.202 1.706-4.77 2.716-7.464 3.429-1.54.408-3.018.746-4.668.573-1.727-.18-2.885-1.007-3.615-2.39-1.013-1.917-1.575-3.967-.671-6.134.496-1.187 1.209-2.045 2.57-2.398 1.674-.435 3.26-1.206 4.933-1.65 1.899-.504 3.853-.808 5.784-1.2m-2.515 10.6c-2.135-2.865-1.196-5.395-.047-7.934-.213-.085-.365-.21-.471-.18-2.023.594-4.04 1.207-6.058 1.812-2.127.638-2.61 2.11-2.208 4.61.226 1.409 2.352 2.97 3.784 2.743 1.577-.251 3.13-.651 5-1.051M79.72 57.639c-1.945.004-3.32-1.195-3.781-3.162-.335-1.424-.538-2.72.048-4.128.876-2.105 2.462-3.526 4.463-4.294 1.735-.665 3.646-.912 5.5-1.21 1.762-.285 4.029 1.492 4.626 3.343.668 2.068.463 4.049-.871 5.689-.764.939-1.974 1.554-3.063 2.174-.864.49-1.823.906-2.79 1.108-1.352.28-2.753.33-4.131.48m4.405-10.318q-.135-.092-.266-.184c-.766.258-1.537.502-2.296.776-2.255.81-3.69 2.334-4.122 4.74-.255 1.429.98 3.179 2.386 3.048 1.619-.151 3.209-.617 5.039-.994-1.807-2.485-2.145-4.865-.741-7.386M75.816 63.466c-.604-.138-1.166-.571-1.234-1.22-.09-.864.69-1.473 1.539-1.34.502.08 1.204.849 1.26 1.37.113 1.039-.763 1.374-1.565 1.19"/></g></svg>