<svg xmlns="http://www.w3.org/2000/svg" xml:space="preserve" style="fill-rule:evenodd;clip-rule:evenodd;stroke-linejoin:round;stroke-miterlimit:2" viewBox="0 -120 420 420"><path d="m353.871 587.353-10.835-27.004h-34.915l-11.413 26.336M162.371 587.353l-10.835-27.004h-34.915l-11.413 26.336" style="fill:#5c5f60;fill-rule:nonzero" transform="translate(-62.708 -597.24)scale(1.27)"/><path d="m353.871 588.852-10.835-27.003h-34.915l-11.413 26.336M162.371 588.852l-10.835-27.003h-34.915l-11.413 26.336" style="fill:#5c5f60;fill-rule:nonzero" transform="translate(-62.708 -597.24)scale(1.27)"/><path d="m367.746 592.98 9.375-51.38-75.511-12.25-65.332-37.585H79.008L52.371 534.35l9.375 58.577 42.938.008 10.937-25.772h34.625l10.541 25.855 134.5-.001 11.25-25.667 34.834-.25 10.668 25.834z" style="fill:#e4e2dc;fill-rule:nonzero" transform="translate(-62.708 -597.24)scale(1.27)"/><path d="m350.375 588.84 17.48 3.557-.125.593-15.774.009M295.289 593.027l-136.354.072-8.501-25.937h-34.813l-11.188 25.776-42.687-.008-9.406-58.674 29.656-.032 219.626 44.694z" style="fill:#f3f2ec;fill-rule:nonzero" transform="translate(-62.708 -597.24)scale(1.27)"/><path d="m52.387 534.24 2.234 14.391 21.934.013 5.426-14.529z" style="fill:#ad2125;fill-rule:nonzero" transform="translate(-62.708 -597.24)scale(1.27)"/><path d="m343.777 545.985 1.083 14.458 28.823.014 2.625-14.511z" style="fill:#f6f1e1;fill-rule:nonzero" transform="translate(-62.708 -597.24)scale(1.27)"/><path d="m52.356 534.178.619 4.026 27.506-.042 1.516-4.062z" style="fill:#fec;fill-rule:nonzero" transform="translate(-62.708 -597.24)scale(1.27)"/><path d="m291.36 529.103-56.751-33.504H120.467l-19.346 32.837zM76.623 495.602l17.094-.002-36.764 31.375z" style="fill:#313156;fill-rule:nonzero" transform="translate(-62.708 -597.24)scale(1.27)"/><path d="m192.913 493.224-3.778 1.172 7.58 44.669 4.006-.834z" style="fill:#e4e2dc;fill-rule:nonzero" transform="translate(-62.708 -597.24)scale(1.27)"/><path d="m265.871 524.725-.396 4.292-5.021-.021.501-4.977z" style="fill:#c0bdba;fill-rule:nonzero" transform="translate(-62.708 -597.24)scale(1.27)"/><path d="m265.871 524.725.75-7.875-14.75-2.75-1.875 10.75z" style="fill:#e4e2dc;fill-rule:nonzero" transform="translate(-62.708 -597.24)scale(1.27)"/><path d="M310.453 591.643c0 7.801 6.324 14.125 14.125 14.125s14.125-6.324 14.125-14.125-6.324-14.125-14.125-14.125-14.125 6.324-14.125 14.125" style="fill:#e3e1db;fill-rule:nonzero" transform="translate(-62.708 -597.24)scale(1.27)"/><path d="M311.324 591.501c0-7.021 5.691-12.712 12.712-12.712 7.02 0 12.712 5.691 12.712 12.712 0 7.02-5.692 12.711-12.712 12.711-7.021 0-12.712-5.691-12.712-12.711m-7.788-.001c0 11.321 9.178 20.5 20.5 20.5s20.5-9.179 20.5-20.5-9.178-20.5-20.5-20.5-20.5 9.179-20.5 20.5" style="fill:#2a2b2a;fill-rule:nonzero" transform="translate(-62.708 -597.24)scale(1.27)"/><path d="M118.788 591.643c0 7.801 6.324 14.125 14.125 14.125s14.125-6.324 14.125-14.125-6.324-14.125-14.125-14.125-14.125 6.324-14.125 14.125" style="fill:#e3e1db;fill-rule:nonzero" transform="translate(-62.708 -597.24)scale(1.27)"/><path d="M119.659 591.501c0-7.021 5.691-12.712 12.712-12.712 7.02 0 12.712 5.691 12.712 12.712 0 7.02-5.692 12.711-12.712 12.711-7.021 0-12.712-5.691-12.712-12.711m-7.788-.001c0 11.321 9.178 20.5 20.5 20.5s20.5-9.179 20.5-20.5-9.178-20.5-20.5-20.5-20.5 9.179-20.5 20.5" style="fill:#2a2b2a;fill-rule:nonzero" transform="translate(-62.708 -597.24)scale(1.27)"/></svg>