<svg xmlns="http://www.w3.org/2000/svg" xml:space="preserve" width="512" height="512" viewBox="0 0 442.727 442.727"><path d="m394.592 118.217 9.56 20.49-55.04 25.66-71.75 33.47-55.04 25.66-9.56-20.5c-16.99-36.43-10.19-77.85 14-106.78l-12.01-25.76a42.3 42.3 0 0 1-3.99-17.94c0-16 9.08-31.33 24.54-38.54 21.28-9.92 46.56-.71 56.48 20.56l12.01 25.76c37.72.06 73.81 21.48 90.8 57.92" style="fill:#ff7124"/><path d="M349.112 164.367c9.24 19.82.67 43.37-19.14 52.61-19.82 9.24-43.37.67-52.61-19.14z" style="fill:#8ecac1"/><path d="M282.762 427.187v5.54H99.282v-5.54c0-20.34 16.49-36.83 36.83-36.83h109.83c20.34 0 36.82 16.49 36.82 36.83" style="fill:#e6b263"/><path d="m85.072 263.327 127.02 127.03h-41.58v-.19l-111.38-111.38.01-.36c7.24 1.05 14.86-1.21 20.44-6.78 2.45-2.45 4.26-5.3 5.42-8.35z" style="fill:#f2d59f"/><path d="M131.212 94.837c-2.77-6.67-2.52-14.51 1.37-21.25 6.64-11.5 21.34-15.44 32.83-8.8 11.5 6.64 15.43 21.33 8.8 32.83-3.87 6.71-10.51 10.85-17.63 11.8a23.88 23.88 0 0 1-15.2-3 23.84 23.84 0 0 1-10.17-11.58" style="fill:#e6b263"/><path d="m156.582 109.417-75.22 130.23c-.55-.69-1.14-1.35-1.78-1.99-6.75-6.75-16.5-8.65-24.94-5.69l-1.12-2.57 77.69-134.56c1.95 4.71 5.41 8.84 10.17 11.58a23.88 23.88 0 0 0 15.2 3" style="fill:#f2d59f"/><path d="M81.362 239.647c5.44 6.79 6.65 15.84 3.64 23.65-1.16 3.05-2.97 5.9-5.42 8.35-5.58 5.57-13.2 7.83-20.44 6.78-4.96-.71-9.73-2.97-13.55-6.78-9.38-9.39-9.38-24.61 0-33.99a23.84 23.84 0 0 1 9.05-5.69c8.44-2.96 18.19-1.06 24.94 5.69.64.64 1.23 1.3 1.78 1.99" style="fill:#e6b263"/><path d="M282.763 442.727H99.283c-5.523 0-10-4.477-10-10v-5.54c0-25.822 21.008-46.83 46.83-46.83h109.83c25.817 0 46.82 21.008 46.82 46.83v5.54c0 5.523-4.478 10-10 10m-173.11-20h162.739c-2.129-12.679-13.179-22.37-26.45-22.37h-109.83c-13.275 0-24.329 9.69-26.459 22.37M177.432 94.627c-5.521 0-9.998-4.474-10-9.996s4.473-10.002 9.996-10.004l43.67-.02h.004c5.521 0 9.998 4.474 10 9.996s-4.473 10.002-9.996 10.004l-43.67.02zM62.538 288.671c-1.608 0-3.223-.115-4.831-.348-7.293-1.044-13.93-4.363-19.176-9.596-13.274-13.288-13.272-34.878-.009-48.142 3.661-3.66 7.974-6.372 12.82-8.058 12.261-4.295 26.12-1.133 35.312 8.058.897.897 1.748 1.85 2.529 2.83 7.513 9.376 9.493 22.212 5.15 33.479-1.682 4.423-4.271 8.415-7.68 11.825-6.411 6.398-15.162 9.952-24.115 9.952m.094-48.071c-1.561 0-3.141.263-4.68.803l-.028.01a13.8 13.8 0 0 0-5.26 3.315c-5.47 5.469-5.468 14.374.003 19.852a13.9 13.9 0 0 0 7.892 3.948c4.442.641 8.793-.8 11.958-3.958a13.7 13.7 0 0 0 3.137-4.826c1.808-4.692.999-9.98-2.097-13.843a14 14 0 0 0-1.047-1.172c-2.694-2.696-6.236-4.129-9.878-4.129" style="fill:#5e2a41"/><path d="M170.513 400.167a9.97 9.97 0 0 1-7.071-2.929l-111.38-111.38c-3.905-3.905-3.905-10.237 0-14.143 3.905-3.904 10.237-3.905 14.143 0l111.38 111.38c3.905 3.905 3.905 10.237 0 14.143a9.98 9.98 0 0 1-7.072 2.929M212.093 400.357a9.97 9.97 0 0 1-7.071-2.929l-127.02-127.03c-3.905-3.905-3.905-10.237.001-14.142s10.238-3.905 14.142 0l127.02 127.03c3.905 3.905 3.905 10.237 0 14.142a9.98 9.98 0 0 1-7.072 2.929M81.343 249.657a9.9 9.9 0 0 1-4.37-1.013c-4.964-2.421-7.03-8.398-4.608-13.362.103-.21.222-.436.338-.637l75.22-130.23c2.762-4.782 8.878-6.42 13.661-3.658s6.42 8.878 3.658 13.661L90.061 244.58a10.02 10.02 0 0 1-8.718 5.077M53.513 239.398a9.96 9.96 0 0 1-4.991-1.341c-4.783-2.761-6.422-8.877-3.66-13.66l77.73-134.633c2.713-4.811 8.812-6.512 13.623-3.797 4.811 2.713 6.511 8.812 3.797 13.622l-.09.16-.05.087-77.69 134.56a9.99 9.99 0 0 1-8.669 5.002" style="fill:#5e2a41"/><path d="M153.291 119.642c-5.908 0-11.682-1.547-16.909-4.565-6.535-3.762-11.521-9.44-14.409-16.414-4.096-9.871-3.386-20.832 1.948-30.074 4.548-7.876 11.888-13.509 20.669-15.863 8.783-2.354 17.956-1.145 25.826 3.403 16.24 9.376 21.831 30.229 12.459 46.482-5.314 9.216-14.416 15.309-24.97 16.718a34 34 0 0 1-4.614.313m.129-48.083c-1.218 0-2.444.16-3.652.484a13.96 13.96 0 0 0-8.525 6.544c-2.199 3.809-2.489 8.335-.795 12.414l.004.01a13.8 13.8 0 0 0 5.92 6.739c2.721 1.571 5.785 2.178 8.865 1.757 4.375-.583 8.125-3.093 10.313-6.887 3.866-6.705 1.562-15.306-5.137-19.174a13.95 13.95 0 0 0-6.993-1.887M313.316 230.682c-18.688.001-36.612-10.601-45.016-28.619-2.335-5.005-.17-10.955 4.835-13.289 5.004-2.333 10.955-.17 13.29 4.835 6.895 14.781 24.535 21.197 39.323 14.304 14.779-6.893 21.195-24.534 14.301-39.321-2.333-5.006-.168-10.956 4.838-13.289s10.955-.167 13.289 4.838c11.553 24.781.797 54.343-23.976 65.898a49.3 49.3 0 0 1-20.884 4.643" style="fill:#5e2a41"/><path d="M222.329 233.499a10 10 0 0 1-9.069-5.776l-9.56-20.5c-17.097-36.658-12.517-80.056 11.402-112.354l-9.413-20.188c-3.268-7.008-4.926-14.466-4.926-22.165 0-20.33 11.899-39.015 30.313-47.603 26.238-12.231 57.534-.837 69.769 25.396l9.412 20.187c40.11 2.435 76.302 26.825 93.399 63.494l9.559 20.488a10.004 10.004 0 0 1-4.836 13.292l-55.038 25.659-71.75 33.47-55.041 25.661a10 10 0 0 1-4.221.939m30.881-213.5c-4.592 0-9.253.977-13.682 3.042-11.399 5.316-18.765 16.887-18.765 29.477 0 4.757 1.027 9.371 3.052 13.713l12.011 25.761a10 10 0 0 1-1.392 10.64c-22.402 26.792-27.351 64.529-12.608 96.139l5.334 11.438 117.725-54.904.002-.001 45.974-21.433-5.331-11.425c-14.745-31.624-46.834-52.092-81.754-52.148a10 10 0 0 1-9.047-5.774l-12.01-25.76c-5.509-11.813-17.261-18.765-29.509-18.765" style="fill:#5e2a41"/><path d="M356.561 132.287a9.99 9.99 0 0 1-8.094-4.117c-10.404-14.298-27.132-22.849-44.749-22.874-5.523-.008-9.994-4.492-9.986-10.014.008-5.518 4.484-9.986 10-9.986h.015c23.98.035 46.744 11.663 60.892 31.106 3.25 4.466 2.264 10.72-2.202 13.97a9.96 9.96 0 0 1-5.876 1.915" style="fill:#5e2a41"/></svg>