<svg xmlns="http://www.w3.org/2000/svg" width="97.004" height="190.382" viewBox="0.074 0.476 97.004 190.382"><path fill="#371e10" d="M62.261 10.903c-1.682-1.218-2.918-1.452-4.983-1.563-2.297-.124-5.215.59-6.914 1.624-1.128.688-2.328 1.754-2.429 3.25-.082 1.204.385 2.467.774 3.578.382 1.088 1.268 2.119 1.32 3.29.053 1.221-.7 2.758-1.297 3.181-.309-.788-.284-1.692-.796-2.502a9.5 9.5 0 0 0-.807-1.113c-.33-.387-.606-.448-1.05-.742-.568-.377-.5-.406-.784-1.002-.217-.459-.368-.808-.434-1.316-.138-1.057-.715-2.425-.7-3.524.008-.639.114-.23.024-.858-.105-.747.084-1.73.434-2.464.248-.518.328-1.43.75-1.815.515-.47.67-.495 1.075-1.1.703-1.056 1.75-1.699 2.758-2.436 1.068-.782 2.258-1.772 3.583-2.089 2.41-.575 5.61.376 7.627 1.711 1.725 1.14 2.222 3.827 1.92 5.825M46.483 1.25c-.345.176-1.52-.15-1.981-.106-1.073.102-1.908.058-2.984.21-2.305.33-4.726 1.094-6.913 1.959-3.285 1.296-6.611 3.746-7.62 7.254-.258.896.121 3.415 1.41 3.087.016.495-.508.902-.796 1.261-.408.51-.569.318-.662.961-.14.99-.9 2.923-.019 3.822 1.874 1.91 4.155-2.227 5.856-2.764-.195.705-1.386 1.62-1.753 2.322-.316.61-.692.973-.968 1.583-.582 1.296-1.155 2.443-1.61 3.807-.316.953-.7 2.782-.04 3.777 1.029 1.55 2.123.267 2.791-.44-.526.907-.336 2.32-.513 3.267-.163.89.435 1.647 1.365 1.758.422.05 1.065.071 1.394-.251.355-.347.527-.685.771-1.107.495-.86 1.036-1.682 1.714-2.35-.031 1.155-1.335 1.925-.405 3.635.685 1.256 2.286.624 3.18-.273-.071 1.151-.843 2.494.82 2.788 1.34.237 2.651-.462 3.272-1.41.657-1.005 1.526-1.96 1.76-3.16.211-1.076.479-2.503.534-3.599.04-.844-.84-1.184-1.295-1.772-.605-.783-.785-1.151-.962-2.076-.125-.65-.309-1.196.063-1.812.504-.836.153-1 .627-1.543-.441-.584-.973-1.083-1.282-1.805-.285-.67-.911-1.07-1.153-1.753-.2-.566-.464-1.019-.716-1.564-.326-.7-.42-1.542-.609-2.26-.333-1.272-.183-2.83.224-4.118.34-1.07 1.432-2.714 2.3-3.742 1.268-1.503 2.401-2.55 4.127-3.52"/><path fill="#bd5da4" d="M53.425 2.888c-.075.045.007.178-.073.214-.66.291-1.615.575-2.245.94-.468.272-.86.558-1.28.89-.449.35-.869.474-1.312.843-.464.386-.845.761-1.26 1.196-.862.9-1.9 1.674-2.38 2.877-.216.54-.285 1.102-.504 1.63-.208.491-.279 1.075-.27 1.605.011.55.083 1.062.093 1.604.012.572.235 1.163.326 1.69.184 1.08.663 1.792.825 2.884-.444.11-.751-.006-1.151.27-.123.085-.403.427-.536.434-.227.01-.516-.302-.584-.439-.22-.432-.375-.636-.654-1.045-.284-.417-.606-.8-.892-1.211-.65-.934-1.119-2.105-1.45-3.191-.348-1.149-.739-2.378-.528-3.615.114-.663.27-1.358.427-2.016.175-.737.56-1.343 1.015-1.933.393-.51.734-1.052 1.058-1.618.334-.585.851-1.044 1.336-1.523.57-.56 1.22-.953 1.81-1.445.416-.348.862-.634 1.405-.676.614-.046 1.258.014 1.866.064.709.058 1.442.057 2.123.265.488.148 1.011.313 1.485.516.258.11.43.285.67.421.238.136.4.227.68.369"/><path fill="#a16235" d="M41.84 37.439c.378.311-1.211-.217-.223.704.592.55 1.04.836 1.516 1.071.357.177.316.194.762.264.377.061.54.192.921.25.709.1.654.24 1.315.543.654.3.676.423 1.266.816.4.267.26.442.676.685.355.207.569.616.811.912-.01.046.257.527.24.578.02-.361.402.811.421.45-.01.175.33.298.551.476.037.029.684.426.738.455.736.39.963.116 1.017.263-.38-.518-.186-5.574-.131-5.86-.185-.151.125-.607.197-.567.057-.283.242-.1.285-.385a.6.6 0 0 0 .026.106c.029-.3.214-.31.258-.608.23-.062.209-.353.438-.36.04-.29.017-.293.057-.584.233-.005.302-.117.474-.328.12-.145 1.77.496 1.876.596 1.451.352 3.752 1.552 4.85-.365.5-.876.082-1.976.875-2.751.448-.436 1.135-.178 1.617-.6.358-.311.489-1.14.07-1.519.453-.108 1.006-.53 1.071-1.124.049-.446-.23-.793-.314-1.2-.075-.363-.15-.54-.015-.888.176-.461.585-.46 1.03-.586.315-.09.662-.368.873-.645.17-.22.398-.507.43-.795.072-.68-.8-.981-1.211-1.413-.223-.233-.461-.642-.678-.882-.22-.247-.309-.64-.506-.914-.436-.601-.579-1.11-.61-1.852-.03-.74.3-1.393.506-2.049.129-.403.155-.841.267-1.244.057-.203.185-.398.265-.591.07-.165-.07-.314-.014-.472.27-.757.142-1.78 0-2.552-.082-.438-.167-.848-.427-1.19-.155-.202-.207-.476-.295-.716a5 5 0 0 0-.376-.743c-.199-.328-.233-.9-.531-1.161-.495-.436-.96-.505-1.534-.787a3 3 0 0 0-.822-.286c-.349-.067-.818-.269-1.163-.273-.931-.014-2.096-.047-3.029.059-.634.07-1.07-.03-1.702.06-.405.058-1.036.165-1.414.317-.425.168-1.059.4-1.44.622-.332.193-.51.356-.853.543-.28.153-.321.372-.614.511-.104.05-.873 1.383-.757.86-.036.551-.61.344-.609.896-.046-.047.023.364-.03.408.145.259-.163.498-.136.8.023-.014-.31.77 0 .396-.01.302.077.233.103.534-.321-.002.018.415.099.505.022.3-.067.313-.047.614.075.247.464.8.609 1.123.062.14.26.444.273.595.153.018.185.224.322.269.01.31.1.465.095.777.01-.008.09.013.101.009.005.299.159.37.186.67.239.072.026 1.146.022 1.283-.005.162.09.34-.093.424-.033.787-.135 1.974-.799 2.537-.31-.307-.416-.951-.494-1.362-.09-.474-.618-.92-.786-1.375-.267-.72-1.091-1.274-1.716-1.68-.405-.263-.856-.488-1.36-.417-.64.092-.618.184-.96.676-.354.507-.635.907-.77 1.537-.116.548-.077 1.14.059 1.677.15.602.098 1.348.515 1.814.348.39.663.743.99 1.142 1.256 1.535.545 3.384.03 4.833-.264.738-.156 1.358-.416 2.089-.121.346-.372 1.219-.535 1.53-.168.317-.291.484-.34.848-.088.634-.27.961-.795 1.379-.462.376-.024.369-.557.617"/><path fill="#fff" d="M61.273 20.093c-.151.12-.29.202-.477.266-.155.054-.304.12-.456.179-.088.034-.15.06-.21.14-.062.082-.07.237-.108.34-.046.128-.017.221-.011.354.01.218.105.414.15.622.023.113.06.19.126.29.059.088.118.158.192.233.046.046.077.09.137.122.04.02.138.025.157.07.044.097-.222.051-.267.05-.35-.018-.682-.094-1.019-.176-.197-.047-.51-.21-.7-.27-.203-.063-.492-.196-.7-.268-.245-.085-.258-.02-.477-.159-.073-.046-.167-.11-.172-.207-.004-.073.042-.103.082-.16.041-.058-.14-.18-.098-.235.072-.1.42-.125.527-.176.369-.179.768-.298 1.159-.411.371-.105.749-.19 1.116-.305.214-.067.435-.103.65-.17.131-.04.263-.102.395-.134"/><path fill="#371e10" d="M60.106 20.593a.7.7 0 0 0-.116.268c-.09.354.036.758.122 1.101.022.09.065.179.1.263.034.083.068.09.14.135.116.071.185.187.314.241.085.036.168.061.258.065.273.014.45-.063.6-.298.166-.258.327-.516.327-.83 0-.13.013-.265-.015-.393-.03-.136-.092-.249-.144-.376-.064-.159-.165-.281-.26-.421-.061-.09-.12-.113-.223-.104a3 3 0 0 0-.585.098 1.2 1.2 0 0 0-.28.11c-.082.048-.158.136-.256.149"/><path fill="#a17456" d="M55.205 94.303c.761 1.092 1.145 2.116 1.886 3.46.75 1.359.746 2.693 1.534 4.45.591 1.318 1.025 2.095 1.201 3.558.166 1.366.769 3.368 1.067 4.715.598 2.679.388 5.595.891 8.184.6 3.086.365 4.117 1.117 6.986.619 2.356 2.753 2.58 2.702 8.18.275 2.138 1.089 7.142 1.085 8.453-.007 2.538.562 3.452.806 5.641.132 1.195.177 4.14.773 5.25.516.961.907.935 1.749 1.654.844.725 2.108.776 2.537 1.826.384.941-.419 2.592.225 3.35.528.615.911-.3 1.436.276.462.511.996 3.874 1.23 4.512.47 1.283.867 1.494.74 2.713-.156 1.502-.062 1.143-.564 2.535-.65 1.802-1.872 2.641-2.18 3.738-1.117.679-.886 1.964-2.51 2.468-.202 1.285-4.24 3.584-5.526 3.759-2.846.383-5.754-.178-7.533.624-1.775.799-2.535 1.85-4.342 1.693-1.38-.122-2.56-8.283-3.833-8.363.29-2.498 1.37-.938 1.165-2.928-.127-1.216-.9-2.473-1.43-4.177-.344-1.11-.876-3.27-.877-4.59-.002-2.508-.408-3.877-.253-6.814.076-1.441.345-2.481.064-3.913-.234-1.202.041-2.326-.015-3.515-.206-4.404-1.41-1.786-1.91-4.189-.192-.92.719-1.287.406-1.958-.493-1.06-1.266-1.696-1.548-2.99-.074-.035-1.972-4.638-2.154-4.509-.203.143.018 1.962-.164 2.352-.387.815-.111 1.723-.159 2.672-.052 1.037-.024 2.178-.268 3.186-.22.919-1.732 2.034-2.256 2.813-.628.935-1.501 1.562-2.224 2.4-.444.516-.323.672-.691 1.238-.28.428-1.304 1.474-1.524 1.795-1.482 2.145-3.351 4.812-5.304 6.624-1.457 1.351-2.675 2.829-1.775 6.43.45 1.803 1.906 2.023-.49 4.933-.936 1.137-.45.698-1.367 2.052-.681 1.007-.97 2.289-6.482 3.382-1.088.218-1.126.093-2.162.093-1.06 0-1.06 0-2.402-.163-.676.294-.521.03-1.246-.135-2.966-.666 1.93.29-2.8-.711-1.294-.275-1.248-.579-2.536-1.643-1.169-.964.078-.881-1.146-1.5-2.08-1.053.11-.851-1.877-1.44-1.591-1.423-4.32-.992-4.503-2.516-.064-.546.19-.446.273-.998.075-.511.18-.531.31-.756.39-.672 1.385-3.239 2.05-3.455.002-.541 0-1.93 1.869-3.22 1.035-.714-.945-.987.352-2.536 1.47-1.753 2.239-2.326 3.87-3.958.927-.93 2.33-1.5 3.277-2.499.96-1.01 1.892-1.47 2.862-2.483a98 98 0 0 0 1.967-2.12c.314-.347 1.372-1.452 2.134-2.052.296.064-.942-1.53.57-3.272 1.31-2.056.82-2.725 1.735-4.92 1.085-2.6 1.536-5.66 2.202-8.42.668-2.77 1.347-7.76 1.533-11.686.128-2.76.654-5.135.734-7.936.069-2.41-.182-3.658.76-5.934.47-1.134.29-3.865.848-4.968.692-1.372 1.686-2.015 1.662-3.14.793.208 1.286.854 2 1.246 1.524.837 2.125.81 3.323 1.38 1.585.755 3.229.909 4.85 1.343.85.229 5.444.279 6.371.213 3.74-.265 4.608-1.026 7.66-2.178"/><path fill="#4e3a78" d="M52.698 97.91c-.295.197-.074 1.327-.075 1.683 0 .891-.743 1.704-1.104 2.492-.417.912-.806 1.557-1.521 2.276a10 10 0 0 0-.962 1.09c-.352.471-.785.721-1.242 1.053-.664.484-1.28.905-2.014 1.273-.48.242-1.01.4-1.486.634-.687.337-1.443.536-2.11.89-.552.293-1.162.383-1.737.614.011.93.82 1.671.782 2.641.893-.1 1.812-.057 2.691-.34.643-.207 1.201-.284 1.839-.519.31-.114.783-.295 1.088-.42.427-.174 1.01-.548 1.393-.808.247-.168.439-.088.674-.276.28-.222.664-.448.958-.653.4-.279.563-.303.867-.698.204-.264.706-.64.927-.896.517-.6.846-1.163 1.412-1.713.488-.473.923-1.33 1.252-1.908.372-.651.705-1.377.993-2.078.27-.656.21-1.2.255-1.906.03-.487.177-.63-.262-.928-.264-.179-.585-.325-.86-.5-.555-.357-1.132-.786-1.756-.965M82.839 172.904c-.01-.003.188.093.19.097.165.173.042.67-.022.886-.073.243-.225.312-.36.523-.133.206-.167.472-.277.69-.319.626-.772 1.287-1.165 1.86-.97 1.417-2.533 2.482-4.064 3.225-1.265.612-1.857 1.116-3.215 1.54-1.188.374-2.175.586-3.384.841-1.323.278-2.768.423-4.072.76-.679.174-2.19.392-2.833.667-.43.184-.529.031-.815.434.008.037-.217.185-.209.227-.296.384-.735.671-1.173.89-.317.16-.79.605-1.09.785-.534.321-1.272.58-1.879.742-1.538.412-2.231-1.49-2.531-2.439-.244-.766-.025-1.44.02-2.203.02-.35-.127-.82.267-1.032.257-.137 1.064-.6 1.36-.62.953-.069.853-.298 1.81-.516 1.24-.283 2.437.196 3.701.067 1.022-.103 1.988-.174 2.938-.563.908-.375 1.753-.612 2.273-1.363.27-.391 1.19-.653 1.428-1.066.214-.377.79-.495 1.012-.835.225-.342.527-.492.863-.781.313-.271.692-.735.961-1.048 1.267-1.485 1.747-.321 4.583-.625a22.5 22.5 0 0 0 3.038-.534c.504-.13 1.035-.19 1.527-.335.378-.112.851-.33 1.25-.247"/><path fill="#bfb3d8" d="M83.548 173.612c-.076.02-.537-.107-.613-.07.062.548-.371.997-.514 1.498-.165.574-.142.891-.581 1.373a20.7 20.7 0 0 1-2.718 2.49c-1.726 1.33-3.742 2.352-5.857 2.819-.657.145-1.223.494-1.888.67-.538.143-1.091.227-1.628.36-1.265.31-2.6.456-3.891.663-.882.142-2.249.587-3.038 1.008-.82.44-1.224.682-1.799 1.396-.722.899-2.046.963-2.917 1.306-.928.367-.054.777.322 1.472.245.455.233 1.395.753 1.455.327.04.728-.19 1.042-.257.453-.095.873-.166 1.311-.297 1.92-.57 3.664-1.566 5.43-2.571 2.134-1.213 3.564-2.369 5.932-3.121 1.037-.33 2.23-.575 3.287-.783 1.32-.258 2.657-.41 3.865-1.014 1.05-.526 2.236-1.024 3.085-1.864.293-.294.827-.826.895-1.242.058-.347.248-.655.34-1.014.112-.421.193-.704.215-1.15.02-.41-.298-1.338-.408-1.732-.243-.872-.648-.862-1.14-1.616"/><path fill="#4e3a78" d="M20.44 174.262c-1.699-.09-2.574.39-4.223 0-1.418-.337-2.85-.343-4.61-.997-.716-.265-1.307-.564-1.769-1.147-.323-.407-.806-.886-1.113-1.31-.315-.43-.636-.726-1.01-1.08-.378-.36-.704-.792-1.185-1.049-.479-.255-.775-.215-1.279-.442-.637-.286-.095-.253-.853 0a2.65 2.65 0 0 0-1.207.835c-.282.361-.687.463-.617.917.13.851-.262.126.178.857.903 1.501 1.61 2.327 2.909 3.504 1.526 1.382 2.577 2.544 4.32 3.647.72.456 2.226 1.31 2.994 1.687.76.376 1.707.872 2.518 1.11 1.258.368 2.071.402 3.344.785.735.221 1.668.142 2.427.228.985.111 1.768.285 2.74.159.853-.108 1.702-.32 2.552-.563.58-.164 1.15-.514 1.683-.812.33-.185 1.15-.696 1.091-1.184-.034-.292-.053-.362-.32-.493-.966-.466-2.124-.72-3.057-1.257-.732-.42-2.127-.727-2.822-1.189-.549-.365-1.73-.852-2.287-1.833"/><path fill="#bfb3d8" d="M29.527 179.545c.212.173.117.832.057 1.11-.093.431-.212.87-.413 1.265-.305.597-.723 1.214-1.12 1.751-.603.813-1.613.899-2.587.979-1.717.14-3.768.344-5.479.166-1.757-.183-4.014-.487-5.713-.954-1.619-.445-2.554-.94-3.935-1.888-.51-.346-.795-.61-1.088-1.183-.263-.52-1.14-.974-1.452-1.49-.734-1.216-1.37-1.671-2.45-2.562-.659-.545-1.38-1.29-2.003-1.926-.336-.346-.76-.821-1.132-1.124-.32-.26-.27-.288-.568-.578-.843-.82-.707-.378-.71-1.485 0-.45.066-.333.296-.722.264-.447.285-1.393.621-.817.186.32.304-.764.421-.397.16.493 0 0 .333.38.412.48.205 1.115.62 1.587.377.429 1.052 1.32 1.453 1.725.468.473.955.932 1.396 1.418.407.445 1.166.92 1.573 1.38 1.806 2.03 3.732 2.645 6.12 3.9.749.394 2.367.968 3.244 1.207 1.188.323 2.426.426 3.662.561 1.944.209 4.08.263 5.92-.525.42-.18.832-.46 1.266-.66.28-.129.521-.279.792-.438.373-.219.67-.122.947-.476"/><path fill="#4e3a78" d="M31.355 77.215c-1.577.676-3.764.63-5.494.46-2.478-.242-3.704-.654-5.557-3.321-1.045-1.501-1.78-2.412-1.261-4.868.209-1 .642-1.898.782-2.882.167-1.184-.127-1.983 1.019-2.73.93-.606 1.967-.495 2.666-1.465.534-.742.467-1.784.69-2.679.495-1.985 1.163-3.673 2.425-5.356s3.607-1.669 4.097-5.62c.263-2.105.858-3.228 2.431-4.949.833-.909.914-1.41 1.809-2.253.831-.783 2.385-1.695 3.305-2.222.47-.27.655-.503 1.1-.848.21-.163 1.07-1.212 1.271-1.206.648.023 1.08 1.08 1.955 1.59 1.48.861 3.76 1.078 5.047 2.496a21 21 0 0 1 1.627 1.998c.934 1.267 1.956 1.389 2.735 1.54-.385-.314-.275-.775-.326-1.33 1.992-.137 1.992 3.314 3.146 2.84 2.175.69 3.533 1.682 4.067 3.82.551 2.196 1.246 4.304 1.356 6.594.099 2.047.761 3.956 1.2 6.016.328 1.526 3.224 2.293 5.026 3.136 2.162 1.012 4.019 1.662 5.2 3.69.541.928.62 1.595.684 2.701.073 1.282.463 1.867.75 3.02.586 2.371-1.915 3.173-3.503 4.576-1.819 1.609-4.739 2.085-6.253.213-.576-.713-1.609-1.458-2.41-1.579-1.243-.187-1.823-.995-2.595-1.553-1.495-1.082-2.882-2.861-4.21-4.04-.177 3.446.218 6.783.215 10.212-.002 1.115-.12 2.839-.067 3.952.065 1.386.973 1.996 1.632 3.061 1.287 2.08-.23 3.539-2.411 4.283-5.025 1.714-10.438 2.436-15.205.745-2.28-.81-3.578-1.092-5.626-2.357-.618-.38-2.11-1.076-2.46-1.703-.517-.93.262-1.91.725-2.72 1.192-2.085-1.618-2.866-.678-5.06.423-.983.65-1.94.763-3.182.118-1.321-.5-1.765.333-3.02"/><path fill="#a16235" d="M73.34 76.672c-.412-.083-.807.639-1.022.93a6.5 6.5 0 0 1-1.156 1.179c-.435.355-.854.734-1.287 1.088-.196.16-1.22.614-1.215.868.005.243 1.43.575 1.643.658 1.082.416 2.16 1.02 3.135 1.643 1.599 1.018 3.478 1.84 4.882 3.067.508.444.94.923 1.123 1.583.23.836.725 1.386 1.503 1.736 1.466.663 2.82.574 4.437.574 1.016 0 2.091-.085 3.068.19.428.119.89.255 1.286.46.308.16.731.44.989.043.445-.69-.715-1.24-1.196-1.445-.387-.165-.734-.389-1.115-.573-.475-.228-1.01-.337-1.474-.583.86.14 1.805-.067 2.661-.106 1.052-.047 1.626.46 2.376 1.089.504.422 1.376.782 2.014.98.308.098 1.994.235 1.94-.379-.015-.18-.465-.479-.586-.6-.307-.306-.679-.559-1.015-.832-.69-.56-1.438-1.055-2.096-1.643-.328-.293-.706-.529-1.048-.816-.26-.218-.4-.443-.584-.704-.053-.073-.1-.183-.173-.229-.205-.129-.777-.152-1.025-.188-.522-.075-1.031-.107-1.55-.214-2.026-.419-4.026-.875-6.036-1.312-.762-.167-1.26-.446-1.906-.924-.898-.665-1.61-1.47-2.417-2.212-.753-.692-1.682-1.225-2.449-1.88-.316-.27-.708-.698-1.065-.894-.26-.141-.772-.37-.774-.69M20.635 74.827c.002.248-.355.561-.517.765-.323.408-.818.76-1.08 1.2-.361.602-.368 1.448-.464 2.113-.117.8-.357 1.608-.528 2.41-.242 1.129-.136 2.34-.244 3.492-.113 1.189-.283 2.394-.335 3.585-.027.56.01 1.09-.086 1.642-.113.66-.31 1.303-.346 1.969-.052.98-.034 2.028-.493 2.923-.455.883-1.39 1.514-2.097 2.206-.675.66-1.332 1.35-1.81 2.158-.472.797-.802 1.592-1.212 2.395-.408.802-.573 1.607-.77 2.446-.17.721-.547 1.329-.43 2.114.063.421.263.693.156 1.104-.101.388-.279.737-.358 1.14-.184.934.106 1.164 1.028 1.128.114-.006.16-.06.275-.053.082.006.199.149.29.172.193.05.441.007.625-.027.503-.092.937-.33 1.26-.716a88 88 0 0 1 2.158-2.45c.708-.783 1.58-1.352 2.29-2.131.22-.243.748-.773 1.154-.7.39.072.354.654.335.999-.047.851-.48 1.577-.48 2.446 0 .39-.079.863.156 1.2.11.163.535.577.703.66.507.255.57-.11.589-.517.025-.492.115-.876.266-1.357.274-.874.423-1.55.924-2.337.9-1.404 1.137-3.19 1.053-4.846-.045-.892-.39-1.764-.528-2.637-.13-.815.058-1.598.097-2.398.09-1.923 1.112-3.75 1.811-5.528.909-2.309 1.704-3.713 2.728-6.792.29-.88.481-1.36.739-2.225.11-.366.694-1.165.811-1.523.137-.422.657-.714.568-1.195-1.029-.053-2.073.148-3.11.042-.75-.077-1.455-.344-2.148-.637-1.272-.538-2.621-1.034-3.128-2.387"/><path fill="#010101" d="M45.996 19.836c.083.068.462.092.297-.043-.773-.641-1.831-.95-2.616-.094-1.272 1.39-1.46 3.205-.645 4.87.92 1.877 3.856 4.414 5.196 1.623.046-.095-.322-.219-.379-.101-.392.818-.98 1.674-2.079.98a6.5 6.5 0 0 1-.948-.725c-.707-.663-1.424-1.45-1.71-2.403-.248-.83-.332-1.74-.007-2.565.409-1.038 1.364-2.808 2.891-1.542m1.765 6.356c-.044.095.324.219.38.103.28-.589-.134-.903-.704-.975-1.175-.149-2.568.288-3.063-1.196-.04-.115-.416-.167-.378-.056a2.13 2.13 0 0 0 1.775 1.419c.56.066 2.472-.303 1.99.705m-4.2-4.507c-.018.127.363.21.378.101.138-1.06 1.534-.97 2.105-.297.534.633.904 1.383 1.462 1.999.073.082.448.117.35.006-.833-.922-1.237-2.27-2.528-2.632-.72-.201-1.657-.039-1.768.823m18.768-10.63c-.061-.091-.44-.139-.348-.008.718 1.077 1.37 2.28 1.616 3.567.284 1.477-.032 2.801-.437 4.216-.424 1.48-.817 3.316.2 4.659.065.088.444.13.349.005-1.463-1.927 0-4.404.297-6.435.321-2.208-.462-4.186-1.678-6.004m1.344 12.396c-.05-.113-.421-.155-.377-.055.463 1.07 3.776 3.598 1.378 4.304-.261.076-1.18.05-1.316.491-.14.463-.06.94-.02 1.415.009.113.389.19.377.056-.043-.498-.324-1.536.529-1.64.228-.028.52-.047.733-.152.406-.198.99-.553.98-1.088-.025-1.348-1.767-2.137-2.284-3.331m-.038 4.087c.14-.04-.2-.2-.305-.171-.346.096-.68.288-1.04.332-.67.08-.774-.534-.442-.958.081-.105-.283-.233-.355-.142-.394.505-.214 1.018.377 1.23.616.22 1.184-.13 1.765-.291m-3.363 3.18c-.084.102.279.231.354.142.696-.842 1.94-1.078 2.978-1.13.256-.014-.024-.2-.154-.193-1.096.056-2.438.286-3.178 1.181m3.444-1.057c-.06-.108-.426-.142-.377-.056 1.431 2.589-3.026 2.434-4.255 1.387-.082-.07-.459-.093-.298.044 1.318 1.123 6.525 1.507 4.93-1.375m-.739 1.986c-.059-.109-.424-.142-.377-.056.36.659.388 1.42-.431 1.706-.63.22-1.44.217-2.034-.112-.11-.06-.452-.033-.229.09 1.268.703 4.171.395 3.071-1.628m-1.377 2c.143-.059-.204-.212-.306-.17-1.322.527-.537 2.4-1.362 3.29-1.374 1.483-3.746.379-5.322-.211-3.863-1.448-8.025-4.619-8.157-9.156-.002-.134-.38-.197-.377-.1.137 4.79 4.557 7.95 8.604 9.465 1.313.492 3.021 1.243 4.454.838.668-.19 1.32-.612 1.476-1.34.176-.81.07-2.25.99-2.617m-16.198-6.604c-.004-.135-.382-.198-.382-.101.05 2.051-.602 4.394-1.216 6.346-.615 1.967-1.49 3.84-3.158 5.126-.09.068.256.217.355.14 1.663-1.28 2.602-3.186 3.185-5.165.584-1.982 1.267-4.273 1.216-6.346m6.208 17.313c.019.115.399.183.376.055-.248-1.47-.517-3.041-.212-4.522.303-1.475 1.106-2.361 1.9-3.58.075-.115-.295-.234-.354-.14-.798 1.226-1.708 2.088-1.925 3.618-.218 1.546-.043 3.039.215 4.57m3.873-25.124c-.086.052.248.206.354.141 1.102-.674 2.326-1.601 3.701-1.512.908.059 1.791.208 2.701.186.257-.006-.025-.196-.154-.193-1.152.028-2.456-.402-3.6-.11-1.11.282-2.034.896-3.002 1.488"/><path fill="#010101" d="M53.57 3.174c.07.053.416.09.341.034-2.256-1.678-4.85-2.006-7.591-2.03-.181-.001.174.147.248.147 2.523.021 4.91.293 7.002 1.849m-8.386 16.012c.035.092.396.13.374.07-.883-2.42-1.882-6.023-.816-8.54 1.328-3.134 4.488-5.32 7.285-7.045.041-.027-.27-.183-.358-.127-2.677 1.653-6.18 3.94-7.304 7.07-.95 2.637-.107 6.038.819 8.572m-1.91.786c.07.085.39.09.373.07-2.389-2.84-4.772-6.776-3.708-10.646.86-3.135 3.56-6.893 6.687-8.081.024-.01-.258-.165-.36-.127-2.99 1.137-6.024 5.021-6.708 8.106-.887 3.993 1.22 7.713 3.715 10.678"/><path fill="undefined" d="M62.088 11.051c.077.104.46.132.356-.013-1.07-1.461-3.203-1.737-4.883-1.797-2.146-.078-4.617 0-6.55 1.05-1.959 1.063-3.998 3.212-3.083 5.641 1.13 3.005 3.211 5.951.317 8.713-.108.102.252.249.351.152 1.815-1.731 1.86-3.93.93-6.156-.937-2.236-2.298-4.368-.33-6.53 1.668-1.832 3.937-2.48 6.337-2.62 2.027-.117 5.205-.284 6.555 1.56m-15.823 8.702c-.126-.086-.45-.023-.239.123 1.62 1.118 2.596 2.685 2.375 4.694-.018.15.364.236.379.1.236-2.118-.816-3.745-2.515-4.917m5.304-14.332c-.165.069.18.24.298.19 2.28-.967 5.437-.782 7.569.487 1.022.61 2.246 1.455 2.477 2.728.135.732.002 1.465.16 2.196.03.136.413.196.38.044-.295-1.359.025-2.347-.85-3.55-.639-.877-1.764-1.553-2.751-1.952-2.248-.905-5.018-1.106-7.283-.143m.128-1.91c-.164.07.18.24.3.188 2.3-.967 5.789-.331 7.802 1.069 1.097.764 2.25 1.865 2.33 3.29.06 1.06-.131 2.103-.039 3.16.012.135.394.208.38.045-.136-1.556.467-3.357-.517-4.747a7.17 7.17 0 0 0-2.612-2.279c-2.194-1.104-5.307-1.707-7.644-.726m-22.98 9.926c.112-.09-.24-.24-.353-.151-1.48 1.186-1.33-2.587-1.232-2.976a6.8 6.8 0 0 1 1.712-3.076c1.734-1.802 3.916-3.111 6.227-4.042 1.637-.66 3.353-1.234 5.093-1.569 1.147-.218 2.331-.428 3.502-.432.73-.002 1.744-.144 2.42.167.173.08.393-.058.153-.168-.706-.324-1.73-.226-2.487-.223-1.366.004-2.77.208-4.104.502-2.605.573-5.238 1.479-7.544 2.832-2.687 1.577-5.35 3.774-5.482 7.117-.049 1.206.72 3.122 2.096 2.019M44.91 26.396c-.05-.13-.43-.176-.378-.044.627 1.619.462 2.77-.122 4.372-.39 1.067-.85 2.185-1.614 3.043-.776.87-3.967 2.866-3.996.297-.018-1.432.732-2.44 1.694-3.431.103-.11-.256-.251-.352-.151-.948.98-2.434 2.843-1.53 4.32.575.937 1.629.825 2.562.535 1.465-.455 2.487-1.89 3.09-3.222.402-.894.8-1.856 1.012-2.817.248-1.133.05-1.833-.366-2.902m-4.373 4.233c.095-.127-.27-.26-.353-.153-.546.725-1.053 1.505-1.709 2.138-.564.543-1.599 1.505-2.459.612-.458-.472-.692-1.071-.573-1.73.318-1.786 1.721-3.488 3.186-4.51.157-.109-.193-.264-.3-.19-1.656 1.154-4.391 4.166-2.83 6.28 1.718 2.323 4.107-1.216 5.038-2.447m-5.83-14.945c.16-.094-.188-.255-.3-.187-1.622.948-3.205 2.07-4.504 3.43-.415.436-.894.97-1.527 1.067-1.518.227-1.77-.732-1.68-1.682.097-.977.328-1.937.763-2.823 1.725-3.508 5.352-6.86 9.285-7.557.22-.038-.104-.236-.23-.215-2.513.445-4.598 1.852-6.35 3.636-1.836 1.866-3.76 4.077-3.848 6.857-.056 1.685 1.021 2.395 2.614 1.892.884-.28 1.454-1.244 2.124-1.821a25 25 0 0 1 3.652-2.596m.628 8.004c.106-.114-.256-.255-.35-.15-.55.602-1.215 1.02-1.706 1.685-.653.89-1.232 1.838-1.975 2.656-.619.679-1.99 1.773-2.732.566a2.2 2.2 0 0 1-.336-.974c-.065-.794.06-1.588.277-2.352.938-3.326 2.852-7.457 5.982-9.187.163-.09-.184-.253-.298-.19-2.154 1.19-3.661 3.549-4.69 5.724-.803 1.697-1.829 3.79-1.671 5.722.11 1.31 1.409 2.72 2.79 1.764 1.07-.74 1.775-1.85 2.514-2.898.661-.932 1.448-1.543 2.195-2.366m2.344 4.09c.162-.058-.18-.233-.304-.19-1.796.65-2.332 2.561-3.31 4.013-.254.376-.526.782-.894 1.059-.928.697-2.148.14-2.234-1.001-.09-1.222.201-2.447.739-3.539.059-.119-.313-.239-.38-.102-.736 1.502-1.58 5.66 1.324 5.285 1.07-.14 1.816-1.527 2.272-2.351.695-1.257 1.344-2.653 2.787-3.173M53.168 8.57c-.218.037.104.236.231.215 2.968-.496 6.22-.375 8.534 1.784.096.089.47.082.306-.07-2.454-2.29-5.914-2.457-9.07-1.93M36.982 19.136c-.1.125.267.26.352.15 1.073-1.367 2.452-1.906 4.161-2.054.258-.022.007-.238-.144-.224-1.78.155-3.246.695-4.37 2.128m.724-11.852c-.109.087.243.237.352.152.757-.595 1.657-.57 2.534-.27.228.078.274-.126.056-.202-1.011-.346-2.073-.363-2.942.32m-1.49 7.143c-.059.117.311.237.377.1.578-1.157 1.659-2.041 3.02-1.77.229.046.289-.154.054-.203-1.533-.305-2.774.511-3.451 1.873m7.444 10.734c.023-.149-.357-.24-.379-.103-.177 1.073-.558 2.224-1.59 2.751-.163.083.185.248.3.19 1.07-.547 1.486-1.72 1.67-2.838M40.279 109.915c-.12.042.221.186.31.155 2.967-1.018 6.052-2.048 8.317-4.328 1.985-2 4.118-4.694 4.035-7.66-.002-.117-.38-.17-.378-.1.081 2.92-2.013 5.688-4.014 7.626-2.313 2.239-5.284 3.284-8.27 4.307m15.675-9.997c-.004-.116-.382-.169-.38-.099.097 3.108-2.346 6.433-4.469 8.498-2.717 2.64-6.328 3.92-10.05 4.255-.194.02.158.173.244.163 3.698-.335 7.5-1.58 10.163-4.287 2.112-2.146 4.59-5.366 4.492-8.53m-2.968-1.94c-.071-.05-.453-.095-.293.02.954.688 2.165 1.037 2.986 1.901.065.07.43.113.344.023-.84-.885-2.064-1.242-3.037-1.944m-12.32 12.09c-.052-.1-.409-.128-.373-.063.39.753.809 1.646.736 2.514-.008.11.374.18.38.1.074-.885-.345-1.784-.742-2.551M62.269 19.641c.055-.047-.283-.193-.358-.127-1.052.93-2.544.927-3.837 1.3-.317.09-1.39.306-.91.773.062.06.42.105.342.03-.469-.457 2.37-.989 2.505-1.021.845-.21 1.59-.364 2.258-.955m-.314 2.968c.046-.025-.265-.181-.359-.128-1.184.688-2.96-.327-4.028-.92-.067-.038-.45-.081-.29.008 1.203.667 3.3 1.84 4.677 1.04m-.755.184c.186-.004-.17-.153-.247-.152-.568.017-.76-.774-.758-1.202 0-.347.06-.69.257-.98.029-.042-.318-.194-.38-.1-.646.958-.119 2.47 1.128 2.434m.345-2.616c-.07-.087-.397-.096-.377-.068.633.806.733 1.997-.272 2.545-.044.023.261.18.358.128 1.021-.558.938-1.78.29-2.605m-2.946.778c.075.002.08-.045.02-.082a.53.53 0 0 0-.267-.07c-.3-.012-.56-.16-.811-.308a.5.5 0 0 0-.268-.071c-.07.002-.083.043-.021.08.42.248.852.433 1.347.451m.776-.159c.087-.014-.022-.083-.048-.096a.5.5 0 0 0-.266-.05c-.267.042-.645-.145-.874-.27a.54.54 0 0 0-.267-.07c-.069.001-.087.043-.021.079.411.224.997.483 1.476.407m-.886 1.316c.189-.017-.168-.157-.247-.15-.583.049-1.178-.323-1.528-.77-.02.014-.044.026-.064.041.425-.034.847-.094 1.271-.13.188-.015-.168-.158-.247-.15-.424.034-.848.094-1.27.128-.012.001-.092.008-.064.042.482.617 1.356 1.058 2.15.99m-1.19-.59c-.065-.062-.422-.106-.35-.031a2.65 2.65 0 0 0 1.051.613c.156.047.291-.017.081-.1l-.288-.108c-.05-.02-.371-.042-.212.045l.242.13c.066.036.45.08.29-.008a3 3 0 0 0-.241-.119l-.124.08.169.05c.086.031.391.026.173-.064a2.2 2.2 0 0 0-.397-.124c-.165-.037-.189.057-.027.108q.142.048.286.094c.084.029.39.043.175-.062a3 3 0 0 0-.265-.116c-.05-.02-.361-.062-.21.044q.064.05.138.089l.254-.027-.16-.093-.28.008q.14.068.272.155l.254-.028c-.114-.059-.227-.126-.342-.186q-.086.031-.174.064c.155.06.311.12.464.19.086.038.444.065.218-.047-.197-.099-.42-.158-.573-.325l-.316-.012c.331.225.699.38 1.046.577l.16-.059a4.4 4.4 0 0 1-1.535-.803c-.06-.048-.427-.112-.342-.03.301.292.677.421 1.055.586.086.037.447.06.218-.046-.265-.124-.528-.243-.76-.425l-.317-.011c.218.129.45.23.667.36l.255-.026c-.264-.116-.531-.23-.76-.41l-.316-.01c.201.107.41.203.592.343l.316.012c-.246-.155-.508-.282-.755-.436-.067-.041-.449-.093-.29.008.177.112.362.186.556.263.049.02.368.052.21-.045-.148-.091-.3-.167-.422-.293l-.28.009.212.122.317.012a2 2 0 0 1-.285-.188l-.317-.011.097.087.316.01a2 2 0 0 1-.224-.145c-.047-.034-.402-.105-.316-.013q.091.106.196.199l.316.013c-.107-.064-.218-.12-.328-.178q-.087.03-.175.063c.141.056.284.108.423.165.088.036.387.038.175-.063l-.167-.139-.15.034.183.05-.018-.115-.152-.025.018.115c.126.013.246.025.371.025.186.002-.143-.146-.207-.15a3 3 0 0 1-.316-.032c.063.047.13.094.191.14.194-.032.374-.073.555-.146.06-.024-.273-.146-.336-.137-.167.02-.324.057-.485.1-.12.033.219.155.28.149.222-.023.444-.062.665-.084q-.139-.073-.279-.147a6 6 0 0 0-.695.222l.358.128a5.6 5.6 0 0 1 1.548-.503c.104-.017-.229-.156-.312-.144-.591.076-1.153.297-1.747.343-.189.015.168.158.247.151.617-.048 1.198-.271 1.811-.35l-.311-.144c-.55.09-1.095.273-1.594.521-.049.024.267.163.358.128.215-.081.428-.15.65-.207.12-.028-.217-.154-.279-.148-.221.024-.444.062-.667.084l.28.148c.162-.044.32-.082.486-.102l-.336-.138c-.17.07-.33.1-.509.131-.123.021.164.137.192.14.139.02.273.035.413.045l-.208-.15a3 3 0 0 1-.29-.022c-.164-.018-.086.083.02.115.149.048.291.077.447.094.165.017.086-.082-.018-.115a3 3 0 0 0-.385-.104c-.012-.003-.19-.02-.15.034a.7.7 0 0 0 .322.252c.06-.02.115-.042.174-.062q-.211-.084-.422-.166c-.088-.035-.382-.045-.174.063q.13.066.256.14c.046.027.409.098.317.011-.07-.06-.136-.13-.196-.198l-.317-.012q.107.08.225.145c.043.028.406.109.316.013a.7.7 0 0 0-.15-.125c-.058-.04-.402-.078-.316-.013.109.085.217.157.337.226.054.03.408.08.316.011a1.5 1.5 0 0 0-.336-.198c-.03-.012-.376-.09-.28.008.138.144.306.228.477.331l.21-.045a2.2 2.2 0 0 1-.397-.19l-.29.009c.247.155.509.281.755.435.056.035.405.08.316.012-.2-.154-.422-.262-.646-.381-.048-.027-.41-.085-.316-.013.27.21.575.349.885.487.053.021.418.07.255-.027-.218-.13-.45-.232-.667-.361-.053-.031-.408-.083-.317-.011.272.212.574.357.887.5l.218-.046c-.331-.143-.666-.253-.93-.51l-.343-.03a5.2 5.2 0 0 0 1.847.944c.047.015.309.025.16-.059-.347-.196-.714-.353-1.046-.577-.047-.031-.404-.107-.316-.011.19.21.449.277.697.4l.217-.046c-.18-.084-.367-.152-.552-.225-.089-.035-.382-.047-.175.064.115.06.227.127.343.186.055.03.41.08.253-.026-.11-.075-.224-.132-.344-.193-.042-.02-.376-.06-.28.009.107.077.166.115.287.17.053.023.417.067.254-.027a1 1 0 0 1-.139-.088q-.105.021-.21.044.087.04.178.081.087-.032.173-.063-.142-.047-.285-.095l-.03.11q.054.015.108.033.086-.031.174-.063a3 3 0 0 0-.267-.081c-.09-.022-.319-.004-.125.08q.084.039.17.08l.29-.009q-.12-.064-.24-.13l-.21.045.287.11q.04-.05.08-.099c-.287-.09-.532-.273-.743-.472m1.781.873c.185.002-.17-.15-.248-.15-.14-.002-.32-.033-.467-.05l.165.15q.234.018.462.063l-.119-.141q-.208-.03-.42-.057c.057.05.11.099.168.148q.22.023.44.066c.223.044.134-.086-.02-.125a11 11 0 0 1-.38-.102c-.154-.045-.294.02-.08.098q.223.082.455.138-.055-.065-.108-.132-.161-.018-.322-.036l.02.115a2.3 2.3 0 0 1 .35.051l-.118-.141c-.7-.026-1.264-.369-1.723-.878-.06-.066-.42-.116-.343-.03a3.14 3.14 0 0 0 2.233 1.056c.239.01-.03-.123-.118-.14a4 4 0 0 0-.446-.064c-.168-.018-.083.078.018.115.232.085.451.115.697.104.17-.006-.059-.12-.108-.133a3 3 0 0 1-.353-.106q-.04.049-.08.099.188.055.38.102l-.021-.126a6 6 0 0 0-.534-.079c-.252-.023.073.138.166.148q.21.03.42.058c.234.029-.03-.125-.12-.142a5 5 0 0 0-.555-.078c-.251-.02.071.138.165.149.181.019.358.05.544.05m-1.616-.812c-.05-.062-.147-.088-.222-.1-.008-.003-.193-.02-.15.034.029.037.067.064.095.1.034.045.37.18.376.087q.006-.055.014-.11l-.205.005c.064.017.106.095.131.15l.333.028c-.11-.072-.225-.131-.265-.266-.028-.094-.395-.14-.374-.068.049.168.212.252.35.343.032.02.372.111.332.029-.093-.19-.282-.276-.475-.33-.023-.007-.2-.05-.206.005-.002.037-.01.073-.015.11l.377.086c-.03-.037-.067-.066-.096-.103m1.902.983c.143.048.388.002.13-.081-.514-.169-1.064-.238-1.57-.428-.507-.19-.756-.566-1.163-.879-.07-.053-.421-.089-.343-.03.394.301.678.687 1.136.899.568.263 1.218.326 1.81.52M31.257 92.091c.063-.066-.395-.254-.477-.168-1.57 1.634-2.258 3.892-2.437 6.115-.128 1.585-.23 3.522.373 5.04 1.412 3.566 2.666 7.195 4.068 10.765 1.014 2.578 2.163 5.104 3.535 7.51 1.343 2.348 2.848 4.603 4.14 6.98 2.432 4.473 3.907 9.348 6.143 13.91.06.122.523.153.497.096-2.238-4.559-3.676-9.455-6.145-13.909-2.643-4.778-5.6-9.213-7.611-14.328-1.388-3.532-2.431-7.294-4.047-10.726-.661-1.405-.598-3.384-.475-4.889.188-2.317.784-4.676 2.436-6.396m23.973 1.853c-.064-.123-.525-.148-.498-.097 2.77 5.348 5.033 10.84 5.91 16.829.39 2.655.631 5.33.927 7.997.188 1.683.377 3.364.624 5.039.138.941.438 1.75.455 2.711.002.135.507.197.506.138-.02-1.112-.37-2.07-.518-3.17a203 203 0 0 1-.603-4.96c-.288-2.641-.518-5.294-.93-7.92-.927-5.891-3.142-11.291-5.873-16.567m-3.066 48.46c.021-.024-.407-.248-.505-.135-1.107 1.258-3.601 1.462-4.567-.054-.075-.12-.521-.136-.495-.097 1.114 1.755 4.253 1.78 5.567.286m-.64 3.676c.329.041-.106-.17-.224-.183-1.1-.143-2.35-.11-3.363-.605-.608-.296-1.069-.745-1.25-1.405-.092-.336-.224-1.394.46-1.324.331.035-.105-.17-.225-.183-.75-.077-.883.56-.785 1.213.096.633.545 1.21 1.094 1.524 1.311.747 2.837.774 4.293.963m-.528 25.573c.075.12.523.136.497.097-1.068-1.719-1.646-3.922-2.096-5.881-.58-2.528-.793-5.11-.836-7.699-.07-4.21.284-8.438-.166-12.634-.015-.141-.511-.182-.506-.137.468 4.363.043 8.75.177 13.123.075 2.426.24 4.887.834 7.25.495 1.969 1.016 4.14 2.096 5.88m2.088 10.63c.06.123.525.152.497.096-.545-1.108-1.195-2.225-1.521-3.424-.239-.882-.283-1.836-.615-2.692-.297-.771-.719-1.4-1.273-2.012-.634-.7 1.02-2.295 1.425-2.69.062-.06-.39-.252-.478-.167-.736.718-1.286 1.524-1.736 2.45q.001.03.025.044c1.215 1.227 1.598 2.388 1.937 4.049.317 1.555 1.043 2.932 1.739 4.346m23.35-13.946c.032-.072-.456-.247-.508-.134-1.128 2.51-1.975 5.02-4.034 6.968-1.735 1.64-3.72 3.432-5.92 4.425-1.672.755-3.24.625-5.02.503-.867-.058-1.954-.1-2.78.21-.733.275-1.418.673-2.12 1.017-.375.182-2.16 1.236-2.54.893-.086-.077-.551-.138-.456-.052.968.875 2.871-.372 3.731-.805 1.218-.614 2.224-1.122 3.643-1.102 1.41.019 2.915.359 4.317.062 2.807-.59 5.337-2.826 7.368-4.745 2.178-2.059 3.117-4.568 4.32-7.24m-6.334-8.776c-.33-.04.105.17.224.182 1 .12 1.997.273 2.991.426.914.139.843.47 1.113 1.38.635 2.153.905 4.411 1.641 6.528.042.12.523.17.496.096-.534-1.542-.744-3.166-1.147-4.743-.227-.883-.378-2.495-1.034-3.165-.21-.218-.793-.204-1.044-.241-1.078-.164-2.156-.333-3.24-.463m-1.566-6.292c-.083-.079-.55-.138-.453-.05.664.632 1.35 1.242 2.08 1.797.55.42 2.04 1.118 2.258 1.79.355 1.09-.494 2.128-.04 3.225.05.122.524.16.496.096-.41-.993.729-2.723-.137-3.487-1.35-1.188-2.888-2.122-4.204-3.37m-7.022-28.382c-.081-.08-.55-.142-.455-.051 1.736 1.695 3.93 3.419 4.128 5.99.21 2.75.32 5.496.662 8.236.336 2.655 1.1 5.245 1.325 7.92.097 1.174.24 2.333.284 3.508.033.895.172 1.91.603 2.705.065.122.524.146.498.096-.692-1.274-.416-2.683-.662-4.045-.234-1.305-.277-2.649-.469-3.965-.391-2.674-1.002-5.283-1.257-7.98-.137-1.455-.294-2.899-.36-4.36-.05-1.056-.041-2.162-.331-3.188-.54-1.92-2.573-3.506-3.966-4.866m11.622 37.469c.033-.016-.347-.224-.479-.165-2.422 1.078-3.48 3.653-5.4 5.323-.499.435-3.387 2.401-3.366.76.017-1.152.801-2.154 1.56-2.95.062-.066-.396-.254-.479-.167-.648.68-2.074 2.27-1.511 3.343.276.529.984.708 1.547.6 3.799-.73 4.802-5.261 8.128-6.744M28.644 99.39c.021-.108-.488-.225-.504-.137-1.133 5.927-1.26 11.998-1.786 17.993-.644 7.312-2.71 14.678-5.139 21.575-.03.088.47.24.505.137 2.42-6.867 4.567-14.28 5.137-21.574.47-5.993.656-12.075 1.787-17.994m-3.238 43.073c.243-.013-.236-.196-.335-.19-1.563.09-3.108-1.797-2.733-3.31.027-.102-.482-.234-.505-.139-.484 1.946 1.767 3.74 3.573 3.639m-3.163 1.878c.088.116.519.123.495.093-.587-.784-1.308-1.535-1.715-2.439-.234-.52-.466-1.162-.267-1.735.07-.2.658-1.467 1.002-1.09.098.11.51.112.495.095-.732-.805-1.819-.098-2.004.86-.32 1.652 1.086 3.009 1.994 4.216M6.17 158.106c.027.117.519.184.497.095-.904-3.713 3.32-6.088 5.782-7.984 3.077-2.37 6.051-5.286 8.535-8.267.024-.03-.41-.25-.506-.138a56.6 56.6 0 0 1-9.513 8.991c-2.306 1.718-5.606 3.98-4.795 7.303m-4.715 8.23c-.03.086.468.24.503.133.338-.947.629-1.939 1.095-2.83.384-.731.913-1.34 1.326-2.046.335-.575.622-1.186.71-1.856.085-.646-.066-1.183.922-1.378.6-.118 1.19-.178 1.802-.163.24.006-.237-.187-.333-.19-.974-.022-1.875.137-2.8.437l-.014.016c-.03 1.367-.38 2.515-1.209 3.616-.972 1.287-1.465 2.755-2.002 4.261m24.555 6.273c.024-.01-.341-.217-.48-.167-2.395.868-4.612 1.918-7.23 1.796-2.59-.12-6.254-.231-8.237-2.11-1.224-1.16-2.18-3.02-3.805-3.697-.891-.368-4.184-.98-4.237-2.08-.007-.138-.51-.193-.507-.137.058 1.167 3.133 1.767 3.939 2.062 1.53.564 2.382 1.892 3.427 3.055.792.878 1.644 1.512 2.746 1.945 2.154.85 4.716 1.078 7.006 1.152 2.684.088 4.918-.928 7.378-1.819m1.888-9.551c-.09-.116-.52-.123-.5-.098.568.749 1.11 1.512 1.656 2.276.466.654.545.797.133 1.545-1.072 1.947-2.486 3.698-3.49 5.676-.032.065.448.25.507.136 1.065-2.101 2.786-3.876 3.697-6.06.236-.567 0-.707-.35-1.2a80 80 0 0 0-1.653-2.275m.858 1.83c.022.144.511.173.506.137-.255-1.549-.442-3.095-.455-4.666-.002-.133-.507-.198-.507-.138.013 1.572.2 3.117.456 4.668m15.008-30.436c.033-.061-.446-.248-.505-.137-.846 1.594-.647 3.834-.708 5.585-.04 1.15.001 2.28-.692 3.266-.886 1.256-2.035 2.283-3.033 3.447-1.993 2.321-3.699 4.782-5.553 7.202-.873 1.14-1.8 2.23-2.7 3.345-.8.993-1.874 1.794-2.273 3.061-.028.093.474.24.506.138.4-1.275 1.526-2.02 2.274-3.062.831-1.16 1.836-2.204 2.698-3.345 1.84-2.433 3.517-4.919 5.553-7.202.994-1.116 2.247-2.161 3.034-3.447.637-1.041.653-2.082.693-3.266.055-1.748-.137-3.994.706-5.585m-11.299 14.784c-.05.033.365.24.479.167 2.413-1.593 4.889-3.112 7.666-3.971.019-.007-.338-.211-.477-.167-2.78.86-5.255 2.38-7.668 3.97m2.324-5.026c.075.12.523.138.498.096-.65-1.046-1.149-2.438-.796-3.678.13-.467.798-1.525 1.218-.61.242.53.384 1.038.466 1.627.17 1.243.162 3.367 1.398 4.096.083.049.591.124.383.001-1.284-.755-1.062-3.175-1.357-4.422-.153-.662-.378-1.725-1.17-1.917-2.487-.604-1.298 3.744-.64 4.807"/><path fill="#010101" d="M57.982 187.391c.316.073.418-.296.099-.368-2.005-.457-2.478-3.767-1.785-5.427.098-.232-.407-.375-.505-.136-.814 1.947-.105 5.41 2.191 5.931m25.433-14.538c-.112-.21-.625-.192-.487.07 1.183 2.236 2.315 4.784-.043 6.688-.235.189.2.454.385.302 2.48-2 1.419-4.654.145-7.06m.279 6.74c.18-.199-.297-.41-.462-.23-1.65 1.828-3.978 3.095-6.433 3.385-2.136.249-4.188.75-6.076 1.81-2.085 1.172-4.075 2.535-6.219 3.602-.997.497-2.019.961-3.088 1.286-.694.212-1.629.247-2.265.592.136.02.27.046.407.067-.737-.901-1.126-1.718-1.27-2.88-.028-.245-.547-.304-.514-.032.152 1.232.574 2.123 1.357 3.08.1.123.273.14.407.067.468-.254 1.225-.253 1.754-.414a18 18 0 0 0 1.613-.553 26 26 0 0 0 2.669-1.267c2.104-1.156 4.091-2.63 6.28-3.625 1.34-.61 2.748-1.048 4.21-1.236.986-.127 1.985-.23 2.927-.566 1.798-.64 3.419-1.666 4.703-3.086m-.652-6.91c-.208-.164-.612.038-.34.252.51.4-.862 2.867-1.08 3.184a10.1 10.1 0 0 1-2.07 2.217c-1.651 1.296-3.537 2.265-5.503 2.995-2.334.867-4.779 1.303-7.23 1.702-1.508.246-3.242.438-4.456 1.458-.23.193.202.458.386.303.996-.837 2.363-1.065 3.611-1.271 1.343-.22 2.69-.446 4.023-.715 2.25-.46 4.452-1.177 6.495-2.235 1.78-.923 3.586-2.059 4.809-3.682.617-.82 1.125-1.719 1.371-2.724.124-.499.46-1.11-.016-1.484m.113.244c.338-.066.093-.44-.17-.387-2.995.58-6.224 1.885-9.294 1.168-.316-.074-.417.297-.1.372 3.195.744 6.452-.548 9.564-1.153m-20.142 11.745c.25-.158-.185-.43-.386-.303-1.498.947-2.785 2.285-4.608 2.557-.34.051-.093.425.17.386 1.916-.285 3.248-1.641 4.824-2.64M4.486 168.43c.334-.077.09-.447-.168-.386-.974.22-1.604 1.246-1.998 2.087-.105.225.397.37.505.137.314-.67.88-1.66 1.66-1.838m12.341 12.938c.316.078.416-.292.101-.37-3.41-.84-6.6-2.67-9.2-5.023-1.794-1.623-4.656-3.654-4.964-6.234-.029-.244-.548-.303-.514-.031.322 2.68 3.234 4.857 5.134 6.514 2.727 2.38 5.911 4.275 9.443 5.144m9.178 3.48c.337-.065.093-.438-.17-.39-2.632.496-5.468.308-8.115-.065-2.178-.306-5.285-.734-6.954-2.298-.912-.855-1.624-1.884-2.497-2.776a131 131 0 0 0-2.813-2.763c-1.154-1.104-2.318-2.2-3.427-3.351-.745-.773-1.066-1.209-.474-2.23.316-.543.673-.96 1.211-1.3.251-.159-.185-.432-.386-.303-.782.495-1.925 1.813-1.824 2.842.041.422 1.086 1.204 1.384 1.503q.705.712 1.424 1.407c1.496 1.45 3.032 2.86 4.477 4.362.885.922 1.603 2.037 2.585 2.86 1.845 1.55 4.685 2.069 7.006 2.396 2.805.393 5.776.633 8.573.105m3.769-5.479c.023-.256-.485-.381-.508-.134-.211 2.327-.614 4.968-3.43 5.225-.34.03-.091.41.17.387 2.984-.27 3.536-2.94 3.768-5.478m-.204-.317c-.077-.229-.584-.217-.488.069.218.643-2.3 1.902-2.699 2.049a10.3 10.3 0 0 1-3.135.623c-2.142.083-4.254-.26-6.323-.797-.316-.083-.414.289-.099.37 2.573.672 5.412 1.168 8.058.654 1.185-.23 2.405-.604 3.376-1.354.42-.325 1.527-.975 1.31-1.614m-.164.237c.267.11.55-.188.23-.321-3.008-1.242-6.675-2.285-8.981-4.701-.17-.174-.652-.066-.428.165 2.385 2.499 6.072 3.574 9.18 4.857"/><path fill="undefined" d="M29.335 77.786c.153-.2-.332-.392-.464-.219-1.839 2.401-2.378 5.492-3.483 8.25-.67 1.67-1.57 3.265-2.154 4.965-.462 1.341-1.302 2.585-1.405 4.025-.017.236.491.355.506.138.102-1.408.888-2.735 1.405-4.027.608-1.522 1.36-2.983 1.969-4.505 1.143-2.856 1.732-6.153 3.626-8.627m-10.652-.808c-.05.228.456.359.504.134.203-.932 1.047-1.447 1.48-2.26.12-.227-.365-.406-.464-.217-.45.841-1.31 1.372-1.52 2.343m-2.341 17.978c-.05.23.457.36.503.138 1.287-6.006.796-12.216 2.342-18.168.059-.225-.446-.359-.504-.137-1.548 5.955-1.057 12.161-2.341 18.167m5.913 8.005c-.03.234.478.357.506.138.185-1.494.201-3.049-.08-4.533-.291-1.52-.812-3.123-.08-4.6.097-.196-.401-.348-.506-.136-.616 1.241-.377 2.65-.08 3.95.386 1.701.456 3.452.24 5.181m-1.933 5.894c-.033.233.475.358.507.137.163-1.2.03-2.533.684-3.612.468-.773 1.063-1.454 1.222-2.366.041-.232-.466-.359-.505-.137-.178 1.025-.966 1.679-1.345 2.606-.45 1.096-.406 2.218-.563 3.372m.468.303c.296-.116-.091-.409-.294-.33-1.115.43-1.633-1.096-1.433-1.876.135-.523.335-1.023.48-1.542.185-.665.444-1.545-.235-2.002-.197-.133-.619.023-.335.216.697.47-.055 2.007-.241 2.593-.19.598-.276 1.048-.12 1.668.257 1.028 1.17 1.663 2.178 1.273m-1.477-5.393c.299-.11-.092-.406-.296-.33-1.417.52-2.416 1.686-3.345 2.827-.506.62-1.036 1.221-1.546 1.837-.347.42-.737.971-1.23 1.23-.116.06-1.682.55-1.46-.281.059-.225-.448-.36-.506-.136-.372 1.388 2.041.929 2.636.496 2.175-1.581 3.07-4.66 5.747-5.643m-8.942 1.185c-.003.215.507.3.511.042.032-2.14.896-4.28 2.27-5.924 1.154-1.381 2.567-2.514 3.674-3.935.154-.198-.326-.391-.463-.218-1.356 1.738-3.276 3.035-4.388 4.96-.933 1.614-1.578 3.186-1.604 5.075m.516 3.974c-.059.225.447.36.503.136.18-.677.785-1.251 1.206-1.795.54-.694 1.092-1.377 1.643-2.061 1.141-1.413 2.294-2.808 3.225-4.372.13-.22-.354-.405-.465-.217-1.003 1.686-2.265 3.186-3.494 4.709-.82 1.015-2.278 2.31-2.618 3.6m.796.743c.245-.115-.204-.373-.393-.283-1.938.912-1.059-1.282-.823-1.666q.25-.41.52-.806c.467-.672.862-1.382 1.296-2.076 1.116-1.79 2.31-3.529 3.455-5.3.14-.215-.345-.402-.463-.22-1.808 2.799-3.822 5.536-5.423 8.459-.761 1.391.42 2.556 1.831 1.892m-1.435-2.323c.095.191.607.204.48-.05-.78-1.568.812-3.595 1.63-4.84.585-.889 1.024-1.822 1.674-2.67.153-.198-.328-.393-.461-.218-.972 1.267-1.845 2.761-2.614 4.159-.6 1.09-1.317 2.4-.71 3.62"/><path fill="#010101" d="M31.594 77.421c.045-.09-.442-.267-.506-.137-.744 1.513.38 3.518-.326 5.037-.35.75-1.195 1.192-.815 2.173.367.94 1.029 1.682 1.177 2.71.018.126.52.219.5.086-.15-1.041-.929-1.733-1.177-2.71-.297-1.16.776-1.477.91-2.48.19-1.425-.409-3.367.237-4.679m-.438 14.77c.124.063.594.075.293-.077-2.556-1.302.064-3.112.178-4.942.009-.146-.5-.235-.506-.136-.073 1.187-1.078 2.01-1.297 3.14-.198 1.032.48 1.583 1.332 2.015m17.952-49.206c-.08-.095-.568-.163-.459-.034.625.743 1.365 1.51 2.307 1.842.23.08.452.143.69.188.078.016.507.09.276 0 .025.01.4.088.338-.02-.285-.518-.486-.845-.11-1.422q-.172 0-.34-.004c1.618.638 1.744 2.149 2.11 3.595.458 1.812 1.009 3.638 1.716 5.369 1.497 3.669 3.403 7.746 2.228 11.786-.988 3.394-3.816 6.117-4.162 9.712-.17 1.764-.028 3.58.09 5.346.121 1.828.596 3.46.339 5.315-.02.139.492.246.506.136.297-2.148-.307-4.065-.374-6.203-.06-1.918-.354-3.885.182-5.766 1.083-3.788 4.24-6.666 4.263-10.802.026-4.339-2.29-8.058-3.504-12.106-.45-1.5-.693-3.166-1.273-4.614-.38-.952-1.005-1.52-1.946-1.89-.076-.03-.282-.096-.341-.006-.388.596-.198.901.117 1.471l.338-.02c-.17-.066-.29-.045-.467-.063-1.06-.115-1.883-1.047-2.524-1.81m5.56 41.575c.02-.138-.492-.247-.508-.135-.146 1.014-.052 2.125.084 3.136.06.45.107.97.402 1.339.411.512.923.918 1.128 1.571.818 2.607-1.995 3.924-4.034 4.57-6.654 2.112-14.756.992-20.527-3.044-.093-.065-.602-.125-.39.023 5.623 3.93 13.756 5.36 20.337 3.52 1.75-.489 5.098-1.417 5.281-3.674.044-.532-.02-1.114-.28-1.592-.295-.539-.961-.99-1.166-1.546-.446-1.216-.512-2.888-.327-4.168M50 45.772c-.023-.13-.523-.217-.497-.087.815 4.552-2.305 9.273-5.58 12.07-1.525 1.3-3.916 2.75-3.502 5.056.297 1.664-.58 1.832-1.585 2.806-.665.644-.828 1.322-.795 2.238.006.155.509.223.506.136-.05-1.343.462-2 1.538-2.76.707-.499 1.061-1.063.899-1.971-.283-1.576.252-2.597 1.445-3.647.97-.85 1.992-1.649 2.929-2.54C48.23 54.35 50.733 49.862 50 45.772m-11.455 22.04c.033-.118-.47-.257-.505-.135-.268.905-.041 2.014-.45 2.865-.376.781-.978 1.424-1.773 1.792-1.913.88-4.456.808-6.054-.673-.09-.085-.573-.138-.459-.032 1.359 1.26 3.474 1.715 5.275 1.405 1.178-.202 2.232-.648 3.034-1.559.908-1.028.572-2.44.932-3.662m-8.724-16.331c-.027.129.482.251.507.133.838-4.083 2.138-8.513 5.991-10.752 2.688-1.562 6.032-2.105 8.97-.868 1.242.523 2.422 1.282 3.072 2.513.533 1.015.758 2.107 1.139 3.18.046.134.536.19.498.087-.463-1.303-.671-2.716-1.568-3.822-.705-.867-1.55-1.444-2.557-1.91-2.194-1.018-4.865-1.243-7.19-.569-5.701 1.654-7.762 6.653-8.862 12.008M19.804 65.518c-.01.145.5.236.507.137.117-1.778 1.657-2.329 3.209-2.54.028-.004.08-.005.09-.04.596-2.226 1.007-4.587 2.06-6.656 1.09-2.13 2.704-3.646 4.704-4.901.078-.05-.35-.256-.476-.177-3.164 1.984-4.943 4.624-5.917 8.216-.27.985-.503 1.977-.767 2.963-.169.633-1.107.529-1.587.72-1.079.43-1.744 1.08-1.823 2.278m4.262 1.344c.091.122.54.14.497.087-.956-1.281-1.364-2.587-.716-4.114.043-.1-.45-.266-.505-.138-.654 1.548-.25 2.86.724 4.165m12.775-26.625c-.087.092.386.274.475.177 1.124-1.227 2.642-1.934 3.863-3.046l-.488-.13c.786 1.21 1.814 1.9 3.174 2.32.296.09.337-.079.046-.17-1.236-.381-2.036-1.015-2.72-2.066-.064-.1-.385-.226-.487-.131-1.221 1.112-2.738 1.819-3.863 3.046m17.458 6.107c-.355-.063-.115.161.093.2 2.118.377 3.774 1.792 4.298 3.905a82 82 0 0 1 1.374 6.748q.284 1.743.52 3.494c.11.836.18 1.766.662 2.49.518.778 1.218 1.221 2.062 1.59 2.517 1.098 5.621 2.148 7.542 4.18.808.857 2.066 3.054.736 4.036-.907.67-1.967.902-2.778 1.745-.086.089.381.273.475.176.534-.554 1.138-.907 1.832-1.222.424-.193.98-.401 1.23-.829.668-1.153.014-2.76-.827-3.65-1.893-2.003-4.764-3.225-7.278-4.253-.769-.313-1.66-.608-2.197-1.28-.686-.857-.816-1.843-.962-2.899-.362-2.651-.779-5.3-1.353-7.915-.395-1.804-.703-3.866-2.227-5.111-.944-.772-2.007-1.191-3.202-1.405m14.611 30.81c.087-.084-.377-.272-.477-.176-1.988 1.938-6.065 2.467-8.416 1.048-2.015-1.214-4.213-2.911-5.423-4.978-.075-.13-.543-.16-.5-.086.806 1.373 2.067 2.524 3.3 3.508 1.084.868 2.275 1.791 3.605 2.252 2.375.824 6.093.202 7.911-1.569m-35.408-.677c.07-.04-.345-.247-.478-.175-3.498 1.881-9.942 2.233-12.268-1.551-.914-1.485-2.03-3.588-1.529-5.38.24-.854.573-1.672.851-2.513.12-.362.353-.844.23-1.231-.044-.133-.536-.196-.5-.086.223.698-.512 1.927-.731 2.568-.28.812-.614 1.662-.446 2.533.394 2.058 1.475 4.75 3.38 5.876 3.23 1.91 8.24 1.709 11.49-.041m-.205-3.43c-.04-.134-.535-.196-.498-.086.366 1.168.135 2.262.118 3.454-.002.152.505.23.506.136.012-1.214.246-2.319-.126-3.504m38.87-.174c-.085-.125-.54-.147-.5-.085.504.738 1.959 2.839 1.206 3.741-.767.919-1.557 1.844-2.478 2.615-.996.83-2.126 1.612-3.413 1.898-2.361.523-3.268-.71-4.578-2.112-.084-.092-.57-.152-.458-.033.833.892 1.668 2.043 2.92 2.357 1.245.312 2.523.137 3.685-.418 1.703-.814 3.075-2.101 4.29-3.529.615-.724.906-.833.615-1.788a9.6 9.6 0 0 0-1.288-2.646"/><path fill="#010101" d="M78.279 86.086c.086.062.593.134.388-.012a43.4 43.4 0 0 0-10.255-5.378c-.192-.069-.514-.013-.175.111 3.581 1.299 6.933 3.082 10.042 5.28m2.964-2.862c.09.05.602.105.387-.014-1.654-.92-2.98-2.192-4.371-3.447-1.257-1.133-2.574-2.195-3.903-3.242-.094-.073-.563-.124-.457-.04 1.577 1.243 3.116 2.514 4.586 3.884 1.156 1.08 2.371 2.087 3.758 2.859m9.21 1.74c.332.038-.093-.186-.221-.2-2.989-.336-5.867-1.236-8.824-1.753-.356-.062-.104.148.096.182 2.998.525 5.917 1.431 8.95 1.771m-.019 5.981c.117.056.594.077.29-.063-1.676-.772-3.638-.943-5.456-.962-1.74-.017-4.32.128-5.34-1.574-.442-.74-.598-1.612-1.179-2.26-.08-.09-.56-.156-.457-.042.781.874.8 2.221 1.79 2.962a4.3 4.3 0 0 0 1.638.77c2.858.654 5.98-.091 8.714 1.17m-4.724-3.372c-.087-.082-.563-.14-.458-.041.805.752 6.778 1.612 5.189 3.265-.076.079.386.264.477.172 1.771-1.844-4.525-2.758-5.208-3.396m4.724.555c.118.051.597.067.293-.063-.475-.203-.957-.162-1.46-.099-1.12.139-2.187-.169-3.302-.174-.247-.002.226.204.33.204.86.004 1.705.262 2.566.24.448-.01 1.176-.278 1.573-.108M96 90.165c.143-.038-.3-.224-.417-.194-1.924.498-3.382-.732-4.69-1.934-.088-.081-.564-.138-.458-.04 1.557 1.43 3.35 2.741 5.565 2.168m-5.454-5.404c-.09-.118-.53-.132-.498-.092.907 1.17 1.986 2.18 3.147 3.094q.825.653 1.68 1.272c.248.18 1.478.792.696.886-.132.015.297.208.416.194l.574-.068c.088-.01.019-.08-.015-.102-2.154-1.528-4.37-3.078-6-5.184M56.564 20.509c-.02-.147-.513-.185-.505-.136.137 1.024.418 1.983.92 2.89.07.125.53.152.498.094-.496-.894-.776-1.836-.913-2.848m6.667 2.242c.062-.043-.368-.247-.479-.169-1.517 1.1-3.746 1.103-5.507.719-.354-.077-.095.132.098.174 1.868.408 4.273.445 5.888-.724m-7.063-2.47c-.134.027.303.213.416.19 2.078-.442 4.182-1.325 6.308-1.403.245-.008-.231-.2-.332-.196-2.161.08-4.28.96-6.392 1.41m6.812-1.242c-.025-.15-.514-.18-.506-.136.204 1.191.348 2.388.297 3.599-.007.134.502.213.506.137.05-1.21-.092-2.409-.297-3.6"/><path fill="#010101" d="M56.25 20.923c.683-.002-.043-.545-.402-.545-1.612.002-3.226.046-4.838.02-1.591-.028-3.097-.55-4.68-.577-.683-.013.045.537.401.543 1.713.029 3.351.57 5.087.58 1.478.012 2.953-.02 4.432-.021"/></svg>