<svg xmlns="http://www.w3.org/2000/svg" width="98.681" height="149.475" viewBox="-0.496 -0.111 98.681 149.475"><path fill="#780046" d="M58.605 63.027 36.38 73.613s5.278 3.484 12.014 3.484c6.737 0 5.49 1.326 12.641.419s11.951-7.103 11.951-7.103z"/><path fill="#824600" d="M71.201 111.051c.346 2.837.39 5.702.132 8.548l3.792 2.106 5.605-2.106c.598-2.492 1.259-5.892 1.196-9.099-.068-4.794-1.837-10.35-1.837-10.35s-4.78-17.046-6.318-22.123c-2.151-.647-11.74.132-13.174.863.796 2.972 4.442 11.073 5.497 14.013.602 1.654 4.04 10.434 5.107 18.148"/><path fill="#ffdc00" d="M81.268 97.07c-1.047-4.394-9.676-27.839-9.676-27.839S62.031 67.977 55 67.094L65.333 97.07s11.414.579 15.935 0"/><path fill="#fab414" d="M71.333 119.611a34 34 0 0 1-.697 4.454c-.355 1.534-.825 3.032-1.239 4.55-.881 3.196-3.916 9.751-5.255 12.783 2.602.448 4.147 1.075 6.745.631 1.549-2.396 4.657-7.214 6.828-12.251a38.5 38.5 0 0 0 2.032-6.304c.231-1.034.609-2.353.983-3.875z"/><path fill="#ffdc00" d="m75.5 147.666-6.589-.855-8.944.623.235 1.298 15.609.132z"/><path fill="#aa3278" d="M74.321 146.38a27 27 0 0 1-3.542-.428l6.374-12.531H65.935l-5.976 14.013 15.537.236a7.5 7.5 0 0 1-.399-1.047 3.2 3.2 0 0 0-.776-.243"/><path fill="#ffdc00" d="M73.803 136.409h3.043l.255-.779h-3.159z"/><path fill="#fab414" d="M72.859 138.226h3.047l.251-.778h-3.159z"/><path fill="#ffdc00" d="M71.914 140.048h3.048l.251-.783h-3.159z"/><path fill="#fab414" d="M70.974 141.866h3.044l.251-.783H71.11z"/><path fill="#ffdc00" d="M70.03 143.683h3.048l.251-.779H70.17zM68.122 135.23a3.068 3.068 0 0 1 3.063 3.072 3.07 3.07 0 0 1-3.063 3.072 3.069 3.069 0 0 1-3.064-3.072 3.07 3.07 0 0 1 3.064-3.072"/><path fill="#780046" d="M68.122 136.844a1.455 1.455 0 0 1 1.028 2.489 1.447 1.447 0 0 1-2.056 0 1.456 1.456 0 0 1 0-2.061 1.45 1.45 0 0 1 1.028-.428"/><path fill="#824600" d="M38.845 75.567 20.871 119.44l1.761 4.494 9.712-4.239s21.771-42.742 21.723-42.822z"/><path fill="#ffdc00" d="M27.886 99.067c.251-.176 17.13.799 17.13.799l14.246-33.219c-7.115-.895-17.317-1.147-17.365-1.243z"/><path fill="#fab414" d="m14.632 134.38 6.239-14.936 11.473.255-7.549 14.884z"/><path fill="#ffdc00" d="m3.111 147.666 6.589-.855 9.741.623-.239 1.298-16.405.132z"/><path fill="#aa3278" d="M4.29 146.38a27 27 0 0 0 3.542-.428l6.374-12.531h11.613l-6.374 14.013-16.334.236q.236-.51.399-1.047.375-.17.78-.243"/><path fill="#ffdc00" d="M19.122 135.23a3.068 3.068 0 0 1 3.063 3.072 3.07 3.07 0 0 1-3.063 3.072 3.069 3.069 0 0 1-3.064-3.072 3.07 3.07 0 0 1 3.064-3.072"/><path fill="#780046" d="M19.122 136.844a1.455 1.455 0 0 1 1.028 2.489 1.447 1.447 0 0 1-2.056 0 1.456 1.456 0 0 1 0-2.061 1.45 1.45 0 0 1 1.028-.428"/><path fill="#ffdc00" d="M12.055 136.409h3.043l.251-.779h-3.155z"/><path fill="#fab414" d="M11.298 138.226h3.043l.251-.778h-3.159z"/><path fill="#ffdc00" d="M10.139 140.048h3.047l.251-.783h-3.159z"/><path fill="#fab414" d="M9.382 141.866h3.047l.251-.783H9.521z"/><path fill="#ffdc00" d="M8.226 143.683h3.048l.251-.779H8.366zM47.414 66.299h18.174v8.453H47.414z"/><path fill="#780046" d="M71.815 49.605c-6.725-4.581-20.249-12.627-27.516-17.536L42.2 39l2.099 7.006 14.298 10.318 13.25 9.38 2.498-2.737z"/><path fill="#aa3278" d="m49.729 34.138 3.036 2.165s-3.319 8.249 2.266 11.049c5.586 2.801 8.454-3.934 8.454-3.934l1.51.986s7.808 24.527 7.967 26.005c-2.506.72-31.567 4.61-36.602 3.196 2.035-5.233 13.369-39.467 13.369-39.467"/><path fill="#824600" d="M35.75 74.895s2.789-4.222 3.087-4.266c1.307 2.625 2.65 8.073 2.311 10.985-.514-.267-5.398-6.719-5.398-6.719M27.775 59.304c-.845.604-6.084.256-7.119 0-.399-.799-.849-1.633-1.283-2.472.892-1.55 7.609 1.158 8.402 2.472"/><path fill="#e6781e" d="M40.634 72.958c-.593-10.078-6.481-12.331-8.684-13.39-.694-.332-4.821-1.885-7.657-1.618-2.311.22-7.812 1.962-10.326 5.225-2.948 3.827-2.745 9.252-2.745 9.252-.235 6.911 5.207 11.56 11.461 13.138a18.7 18.7 0 0 0 7.92.304c.645-.124 3.032-.464 5.597-3.168 2.044-2.145 4.701-5.281 4.434-9.743"/><path fill="none" stroke="#824600" stroke-linecap="round" stroke-width=".5" d="M32.109 59.292c-4.032 8.449-8.211 17.217-12.099 25.734M40.005 78.291l-27.62-12.983M29.296 86.172c-3.075-5.644-.944-13.246 3.072-17.86a12.08 12.08 0 0 1 6.131-3.886M12.437 78.323c6.605-.551 11.434-7.091 12.748-13.182.54-2.465.393-5.032-.426-7.418"/><path fill="#a0640a" d="M97.315 83.412c-1.259-8.189-7.127-16.166-12.804-22.146a84 84 0 0 0-8.21-7.402v14.992a77 77 0 0 1 4.222 4.394c8.545 9.587 7.506 23.312.215 29.268-2.705 2.209-12.202 1.111-18.743-1.945-4.478-2.089-16.576-14.98-18.819-18.008-1.267-1.714-5.255-7.63-6.02-8.668-1.298-1.774-2.944-3.631-3.916-2.856-.283 1.597 2.825 4.098 1.865 5.592-1.279 1.997-3.319-1.722-3.932-2.572-.47-.248-.47-.248-.873-.168-.49 2.213 2.319 3.955 1.944 5.9-.529 2.748-2.832-.915-4.039-.643-.626 1.234 1.713 3.867 2.318 4.761 1.311 1.934 2.558 3.923 3.952 5.801 2.705 3.635 7.322 8.644 17.019 17.428 5.529 5.013 18.528 9.915 27.906 7.834 7.063-1.57 11.891-7.718 13.545-10.962 3.649-7.198 5.605-12.571 4.37-20.6"/><path fill="#780046" d="M43.367 79.893c1.625 1.997 3.378 3.994 4.557 6.267-.119.612-5.027 3.999-5.696 4.478a56 56 0 0 1-4.853 3.196c-1.629.891-2.278.555-3.816-.867-1.195-1.094-1.964-3.144-2.486-4.666.08-.267 1.733-1.27 4.382-3.239a71.5 71.5 0 0 1 7.912-5.169M71.815 49.605l.032 16.099 4.454 3.747V52.765c-.1-.08-4.486-3.16-4.486-3.16"/><path fill="#a0640a" d="M14.74 41.672c-1.558-4.094-2.414-9.283-2.167-9.923 1.772-4.565 9.668-1.837 13.357.472 2.064 1.29 8.29 5.193 14.075 9.355l.215-11.952c-2.482-1.705-5.482-4.026-7.908-5.42-6.007-3.452-12.748-8.158-20.01-7.267C5.024 17.738-.364 24.098.024 31.43A33.7 33.7 0 0 0 2.39 41.984c1.271 3.287 10.677 23.384 10.677 23.384 1.693 2.816 3.86 5.741 4.84 4.818.032-1.199-2.717-4.546-.861-5.193 1.562-.559 3.1 2.588 4.163 3.435 2.267-.799-2.693-5.281-.478-6.755 1.574-1.046 3.454 2.533 4.721 3.072 1.195-.579-2.514-5.952-3.055-6.791-.052-.259-4.749-8.652-7.657-16.282"/><path fill="#780046" d="M19.214 48.671c1.314 2.197 2.756 4.426 3.585 6.866-.231.6-5.577 3.24-6.31 3.596a56 56 0 0 1-5.259 2.432c-1.745.647-2.338.216-3.649-1.414-1.012-1.254-1.733-3.355-2.028-4.937.12-.252 2.148-1.047 5.036-2.609a70 70 0 0 1 8.625-3.934M44.299 32.069c-2.183-1.478-4.135-3.352-4.78-3.795l.04 14.313 4.736 3.419z"/><path fill="#824600" d="M71.189 31.414s2.789-1.167 4.383-3.396c1.027-1.438 1.398-3.89.76-4.833-.836-1.234-2.298-1.618-3.469-.551-.905.823-1.853 5.56-1.968 6.675.016.016.294 2.105.294 2.105"/><path d="M73.874 5.592c-4.78-4.593-12.7-6.495-18.91-4.278-6.928 2.469-11.015 9.08-10.39 16.378.243 2.836.797 6.16 2.625 8.445 1.729 2.141 6.08 4.674 8.904 4.106l18.15-5.748c3.032-4.226 5.422-13.37-.379-18.903"/><path fill="#a0640a" d="M57.366 29.417s-3.004-.18-5.243-1.75c-1.446-1.019-2.605-3.196-2.314-4.31.398-1.442 1.633-2.289 3.091-1.67 1.123.475 3.585 4.626 4.063 5.64-.047.028.403 2.09.403 2.09"/><path fill="#a0640a" d="M74.894 26.129c0-.304-.514-5.613-2.932-8.648-2.179-2.741-6.226-3.248-7.521-3.308-5.466-.248-9.641 3.431-10.083 6.519-.657 4.63.598 9.388 3.717 13.718 1.717 2.377 4.203 3.124 6.462 3.12 6.306-.008 10.644-5.313 10.357-11.401"/><path d="M63.62 29.56a14.16 14.16 0 0 1 7.012 1.143c1.035 2.904-8.729 1.594-7.012-1.143"/><path fill="#824600" d="M71.787 27.563c-1.032.423-2.072.18-3.099-.072-.347-.887 1.012-3.228 1.948-3.26.872.935 1.502 1.91 1.151 3.332"/><path d="M64.863 24.152c.092.651.168 1.234-.207 1.761-.944.088-.657-1.598-.211-1.973zM74.098 24.815c.059.475.314.922-.068 1.398l-.522-.112c.028-.487-.163-.967.203-1.394zM51.637 17.576l1.936 6.472 1.502-.603 1.542-10.802z"/></svg>