<svg xmlns="http://www.w3.org/2000/svg" width="800" height="800" viewBox="0 -0.09 62.208 62.208"><defs><clipPath id="a"><circle cx="30.955" cy="30.955" r="30.955" fill="none" data-name="Ellipse 12" transform="translate(591.796 432.345)"/></clipPath><clipPath id="b"><circle cx="3.522" cy="3.522" r="3.522" fill="none" data-name="Ellipse 15" transform="translate(619.23 473.682)"/></clipPath></defs><g transform="translate(-591.499 -432.345)"><circle cx="30.955" cy="30.955" r="30.955" fill="#f0f5f9" data-name="Ellipse 1" transform="translate(591.796 432.345)"/><path fill="#312449" d="M622.752 494.256a30.954 30.954 0 0 0 20.754-53.921 30.84 30.84 0 0 1 7.99 20.754c0 17.1-16.112 32.847-33.208 32.847" data-name="Path 8" opacity=".1" style="mix-blend-mode:darken;isolation:isolate"/><g data-name="Group 8"><circle cx="1.946" cy="1.946" r="1.946" fill="#312449" data-name="Ellipse 2" transform="translate(613.46 465.998)"/><circle cx="1.444" cy="1.444" r="1.444" fill="#e6a3d0" data-name="Ellipse 3" opacity=".3" style="mix-blend-mode:darken;isolation:isolate" transform="translate(611.254 471.014)"/><circle cx="1.444" cy="1.444" r="1.444" fill="#e6a3d0" data-name="Ellipse 4" opacity=".3" style="mix-blend-mode:darken;isolation:isolate" transform="translate(631.361 471.014)"/><circle cx="1.946" cy="1.946" r="1.946" fill="#312449" data-name="Ellipse 5" transform="translate(628.151 465.998)"/></g><g fill="#312449" data-name="Group 9"><circle cx="3.16" cy="3.16" r="3.16" data-name="Ellipse 6" opacity=".1" style="mix-blend-mode:darken;isolation:isolate" transform="translate(622.5 442.577)"/><path d="M623.459 445.737a3.15 3.15 0 0 1 2.68-3.111 3 3 0 0 0-.48-.049 3.161 3.161 0 1 0 .48 6.272 3.15 3.15 0 0 1-2.68-3.112" data-name="Path 9" opacity=".1" style="mix-blend-mode:darken;isolation:isolate"/></g><g fill="#312449" data-name="Group 10" opacity=".7"><circle cx="1.632" cy="1.632" r="1.632" data-name="Ellipse 7" opacity=".1" style="mix-blend-mode:darken;isolation:isolate" transform="translate(612.517 441.096)"/><path d="M613.012 442.728a1.63 1.63 0 0 1 1.384-1.607 2 2 0 0 0-.248-.025 1.632 1.632 0 0 0 0 3.263 1.6 1.6 0 0 0 .248-.025 1.63 1.63 0 0 1-1.384-1.606" data-name="Path 10" opacity=".1" style="mix-blend-mode:darken;isolation:isolate"/></g><g fill="#312449" data-name="Group 11" opacity=".4"><circle cx="5.643" cy="5.643" r="5.643" data-name="Ellipse 8" opacity=".1" style="mix-blend-mode:darken;isolation:isolate" transform="translate(597.371 459.289)"/><path d="M599.084 464.932a5.63 5.63 0 0 1 4.786-5.556 5.5 5.5 0 0 0-.857-.087 5.645 5.645 0 1 0 .857 11.2 5.63 5.63 0 0 1-4.786-5.557" data-name="Path 11" opacity=".1" style="mix-blend-mode:darken;isolation:isolate"/></g><g fill="#312449" data-name="Group 12" opacity=".4"><circle cx="5.643" cy="5.643" r="5.643" data-name="Ellipse 9" opacity=".1" style="mix-blend-mode:darken;isolation:isolate" transform="translate(635.998 472.973)"/><path d="M637.711 478.616a5.63 5.63 0 0 1 4.786-5.557 5.644 5.644 0 1 0 0 11.113 5.63 5.63 0 0 1-4.786-5.556" data-name="Path 12" opacity=".1" style="mix-blend-mode:darken;isolation:isolate"/></g><g fill="#312449" data-name="Group 13" opacity=".8"><circle cx="3.643" cy="3.643" r="3.643" data-name="Ellipse 10" opacity=".1" style="mix-blend-mode:darken;isolation:isolate" transform="translate(638.854 454.54)"/><path d="M639.96 458.183a3.63 3.63 0 0 1 3.09-3.587 3.644 3.644 0 1 0 0 7.173 3.63 3.63 0 0 1-3.09-3.586" data-name="Path 13" opacity=".1" style="mix-blend-mode:darken;isolation:isolate"/></g><g data-name="Group 16"><g clip-path="url(#a)" data-name="Group 15"><g fill="#312449" data-name="Group 14" opacity=".6"><circle cx="5.643" cy="5.643" r="5.643" data-name="Ellipse 11" opacity=".1" style="mix-blend-mode:darken;isolation:isolate" transform="translate(598.574 480.134)"/><path d="M600.287 485.777a5.63 5.63 0 0 1 4.787-5.557 5.634 5.634 0 1 0-.857 11.2 5.5 5.5 0 0 0 .857-.087 5.63 5.63 0 0 1-4.787-5.556" data-name="Path 14" opacity=".1" style="mix-blend-mode:darken;isolation:isolate"/></g></g></g><path fill="#f0f5f9" d="M593.367 457.841a12 12 0 0 0-1.538-2.81c-.216-.189-.4-.406-.3-.675l1.229-3.2a.523.523 0 0 1 .674-.3l2.557.013a.524.524 0 0 1 .3.675l-2.248 6a.524.524 0 0 1-.674.297" data-name="Path 15"/><path fill="#f0f5f9" d="M618.113 492.374a12 12 0 0 0-2.746 1.649c-.18.223-.389.419-.662.327l-3.251-1.1a.524.524 0 0 1-.327-.662l-.089-2.555a.524.524 0 0 1 .662-.328l6.086 2.006a.524.524 0 0 1 .327.663" data-name="Path 16"/><path fill="#f0f5f9" d="M632.995 435.132a12 12 0 0 0 3.08-.877c.232-.169.486-.3.724-.144l5.717 3.362a.524.524 0 0 1 .144.725l-.578 2.49a.525.525 0 0 1-.725.144l-8.219-4.975a.525.525 0 0 1-.143-.725" data-name="Path 17"/><path fill="#312449" d="M636.8 434.111a7.5 7.5 0 0 0 2.271 2 12.7 12.7 0 0 0 3.446 1.366" data-name="Path 18" opacity=".1" style="mix-blend-mode:darken;isolation:isolate"/><g data-name="Group 19"><circle cx="3.522" cy="3.522" r="3.522" fill="#312449" data-name="Ellipse 13" transform="translate(619.23 473.682)"/><g data-name="Group 18"><g clip-path="url(#b)" data-name="Group 17"><path d="m624.6 473.3-1.027.3a1.477 1.477 0 0 1 1.827 1l.042.145a6.346 6.346 0 0 1-3.844 7.679q.26-.05.52-.124a6.345 6.345 0 0 0 4.351-7.849l-.041-.146a1.48 1.48 0 0 0-1.828-1.005" data-name="Path 19" opacity=".2" style="mix-blend-mode:darken;isolation:isolate"/><ellipse cx="4.134" cy="3.241" fill="#fd1a16" data-name="Ellipse 14" rx="4.134" ry="3.241" transform="translate(618.617 478.837)"/></g></g></g><circle cx=".32" cy=".32" r=".32" fill="#fff" data-name="Ellipse 16" transform="translate(614.184 466.656)"/><circle cx=".32" cy=".32" r=".32" fill="#fff" data-name="Ellipse 17" transform="translate(628.874 466.656)"/></g></svg>