<svg xmlns="http://www.w3.org/2000/svg" width="141.782" height="104.692" viewBox="-22.06 -23.936 141.782 104.692"><path fill="#74bf44" stroke="#000" stroke-width="2.321" d="M26.966 9.822s-2.316-6.023-6.305-6.167c-3.99-.144-11.208 4.66-9.002 6.674 2.209 2.015 7.448-1.889 8.415-1.816s4.14 4.72 4.14 4.72l2.752-3.411ZM20.66 20.146s-5.957-6.258-9.412-5.464-11.68 13.444-6.843 14.701c4.836 1.258 6.48-8.318 7.931-8.318s6.77 4.685 6.77 4.685l1.555-5.604ZM22.446 34.335s-4.125-3.587-8.078-2.948C10.416 32.026-1.37 43.866 2.92 46.67s10.965-8.705 12.996-8.802 11.051 5.39 11.051 5.39l-.412-4.046-4.11-4.877ZM70.696 9.822S73.012 3.799 77 3.655s11.208 4.66 9.002 6.674c-2.209 2.015-7.448-1.889-8.415-1.816s-4.142 4.72-4.142 4.72l-2.75-3.411ZM77.002 20.146s5.956-6.258 9.412-5.464c3.455.793 11.68 13.444 6.843 14.701-4.836 1.258-6.48-8.318-7.93-8.318-1.452 0-6.771 4.685-6.771 4.685l-1.554-5.604ZM75.217 34.555s4.125-3.586 8.077-2.947S99.033 44.085 94.742 46.89c-4.29 2.805-10.964-8.705-12.995-8.801s-11.051 5.39-11.051 5.39l.411-4.047 4.11-4.877Z"/><path fill="#a6479a" d="m49.112 25.784-.882-24.48 1.23.028a30 30 0 0 1 3.757.327c2.254.336 4.493.928 6.655 1.757 3.965 1.523 7.63 3.837 10.601 6.691 1.974 1.897 3.602 3.99 4.842 6.221 1.78 3.206 2.683 6.53 2.683 9.88 0 .426-.02.882-.06 1.392a17.9 17.9 0 0 1-1.757 6.468c-.876 1.804-2.063 3.514-3.53 5.084-.46.533-1.227 1.266-2.262 2.158q.005.155.005.31c0 .787-.09 1.569-.27 2.325l-.096.407-.334.252c-.438.33-.925.674-1.493 1.049-3.665 2.432-8.011 4.14-12.567 4.94a36 36 0 0 1-5.332.532l-1.19.031z"/><path fill="undefined" d="M49.434 2.492c1.214.026 2.42.136 3.612.314 2.204.33 4.355.905 6.409 1.693 3.863 1.484 7.373 3.715 10.213 6.445 1.865 1.791 3.437 3.797 4.63 5.947 1.613 2.902 2.537 6.063 2.537 9.315q-.002.659-.055 1.304a16.7 16.7 0 0 1-1.644 6.05c-.842 1.735-1.971 3.34-3.335 4.798-.638.74-1.763 1.732-2.61 2.446q.04.404.041.816-.001 1.061-.239 2.058c-.463.35-.945.684-1.435 1.009-3.48 2.309-7.609 3.97-12.126 4.763a35 35 0 0 1-5.161.515V25.784zM47.026.117l.088 2.457.837 23.25v26.523l2.38-.061a38 38 0 0 0 5.504-.55c4.712-.827 9.21-2.596 13.008-5.115a31 31 0 0 0 1.55-1.091l.667-.503.192-.814c.184-.775.284-1.573.3-2.377.859-.758 1.521-1.402 1.975-1.923 1.534-1.646 2.778-3.442 3.698-5.339a19.1 19.1 0 0 0 1.87-6.884c.042-.54.062-1.026.062-1.482 0-3.55-.95-7.063-2.828-10.443-1.295-2.332-2.994-4.517-5.051-6.494-3.081-2.961-6.882-5.36-10.99-6.938a32.8 32.8 0 0 0-6.9-1.822 31 31 0 0 0-3.903-.339zl2.408 2.373Z"/><path fill="#f4eb43" d="M54.646 11.473c.745 0 1.42.318 1.908.833.49.515.792 1.226.792 2.01 0 .785-.302 1.496-.791 2.01a2.63 2.63 0 0 1-1.91.834c-.745 0-1.42-.319-1.908-.833a2.9 2.9 0 0 1-.792-2.01c0-.785.303-1.496.792-2.01a2.63 2.63 0 0 1 1.909-.834M65.835 22.692c.745 0 1.42.319 1.91.833a2.9 2.9 0 0 1 .79 2.01 2.9 2.9 0 0 1-.79 2.01 2.63 2.63 0 0 1-1.91.834c-.745 0-1.42-.319-1.909-.833a2.9 2.9 0 0 1-.791-2.01c0-.785.302-1.496.791-2.01a2.63 2.63 0 0 1 1.91-.834M55.814 9.459c2.083 0 3.772-1.78 3.772-3.972 0-.343-.054-.67-.131-.988a30.4 30.4 0 0 0-6.409-1.693 4.06 4.06 0 0 0-1.004 2.68c0 2.194 1.689 3.973 3.772 3.973M62.999 16.235c0 2.97 2.54 5.378 5.673 5.378 2.898 0 5.285-2.061 5.627-4.721-1.194-2.15-2.766-4.156-4.63-5.948a6 6 0 0 0-.997-.088c-3.133 0-5.673 2.408-5.673 5.379M59.585 34.873c-4.559 0-8.253 3.503-8.253 7.823 0 2.885 1.65 5.398 4.101 6.755 4.518-.793 8.646-2.455 12.127-4.764a7.4 7.4 0 0 0 .28-1.99c0-4.32-3.696-7.824-8.255-7.824M73.284 25.803c-2.378 0-4.304 1.826-4.304 4.08s1.926 4.08 4.304 4.08c.663 0 1.291-.147 1.853-.403.91-1.874 1.478-3.9 1.644-6.05-.781-1.032-2.054-1.707-3.497-1.707M56.346 19.279c1.188 0 2.264.457 3.043 1.195a3.96 3.96 0 0 1 1.261 2.884 3.96 3.96 0 0 1-1.261 2.884 4.4 4.4 0 0 1-3.043 1.195 4.4 4.4 0 0 1-3.042-1.195 3.96 3.96 0 0 1-1.261-2.884c0-1.126.482-2.146 1.26-2.884a4.4 4.4 0 0 1 3.043-1.195"/><path fill="#a6479a" d="M47.145 51.073c-7.336-.441-14.224-3.102-19.397-7.49l-.347-.293-.054-.452c-.054-.443-.08-.842-.08-1.217q0-.221.012-.46c-.28-.258-.57-.528-.855-.797l-.083.256-1.332-1.468q-.462-.496-.887-1.014c-1.974-2.382-3.312-5.028-3.976-7.868a18 18 0 0 1-.484-4.062c0-5.085 2.06-10.091 5.954-14.474 3.786-4.262 9.021-7.522 14.74-9.18A30.6 30.6 0 0 1 48.2 1.331l1.23-.027-.883 24.52-.18 25.32z"/><path fill="undefined" d="m48.226 2.493-.48 13.29-.256 7.125-.104 2.876-.042 5.841-.114 16.035-.016 2.253c-7.317-.44-13.884-3.116-18.715-7.214a9 9 0 0 1-.072-1.079c0-.313.022-.624.054-.934a87 87 0 0 1-1.586-1.475c-.36-.342-.707-.675-.998-.955-.011.034-.028.069-.04.103a21 21 0 0 1-.843-.962v-.001c-1.81-2.184-3.102-4.67-3.738-7.39a16.6 16.6 0 0 1-.453-3.798c0-4.983 2.156-9.76 5.66-13.703 3.599-4.05 8.622-7.22 14.196-8.837a29.5 29.5 0 0 1 7.546-1.175M50.634.119l-2.459.053a31.8 31.8 0 0 0-8.141 1.266c-5.927 1.719-11.356 5.102-15.285 9.525-4.086 4.6-6.246 9.87-6.246 15.245 0 1.414.174 2.87.515 4.328.706 3.014 2.122 5.82 4.21 8.341l.065.079.002.002c.313.375.59.69.868.987l1.954 2.09c.012.298.038.609.078.942l.11.903.694.59c5.362 4.548 12.492 7.304 20.077 7.76l2.443.148.017-2.448.017-2.253.114-16.035.04-5.808.103-2.842.257-7.125.478-13.29zl-2.409 2.374Z"/><path fill="#f4eb43" d="M45.533 15.199c-2.378 0-4.304 1.826-4.304 4.08 0 2.252 1.926 4.079 4.304 4.079.705 0 1.37-.164 1.957-.45l.256-7.125a4.47 4.47 0 0 0-2.213-.585M39.64 24.595c.745 0 1.42.318 1.909.833a2.9 2.9 0 0 1 .791 2.01 2.9 2.9 0 0 1-.791 2.01 2.63 2.63 0 0 1-1.91.834c-.745 0-1.42-.319-1.908-.834a2.9 2.9 0 0 1-.792-2.01c0-.784.303-1.496.792-2.01a2.63 2.63 0 0 1 1.909-.834M33.829 37.475c.745 0 1.42.319 1.908.833.49.515.792 1.226.792 2.01 0 .785-.303 1.496-.792 2.01a2.63 2.63 0 0 1-1.909.834c-.745 0-1.42-.319-1.908-.833a2.9 2.9 0 0 1-.792-2.01c0-.785.303-1.496.792-2.01a2.63 2.63 0 0 1 1.908-.834M29.622 19.28c1.187 0 2.263.457 3.042 1.195a3.96 3.96 0 0 1 1.261 2.884 3.96 3.96 0 0 1-1.261 2.884 4.4 4.4 0 0 1-3.043 1.195 4.4 4.4 0 0 1-3.042-1.195 3.96 3.96 0 0 1-1.261-2.884c0-1.126.482-2.146 1.261-2.884a4.4 4.4 0 0 1 3.043-1.196M28.652 33.85c-.638-2.95-3.434-4.849-6.246-4.24-.4.087-.777.223-1.129.396.637 2.72 1.928 5.207 3.738 7.39v.002c.272.326.55.649.844.962.011-.035.028-.069.04-.104.29.281.637.614.997.955 1.46-1.24 2.206-3.283 1.756-5.36M33.829 16.51c4.7 0 8.511-3.611 8.511-8.068 0-1.79-.621-3.436-1.66-4.774-5.575 1.617-10.597 4.786-14.196 8.837 1.476 2.394 4.208 4.006 7.344 4.006M39.714 39.652c0 4.137 3.285 7.54 7.517 8.009l.114-16.035c-4.288.418-7.631 3.851-7.631 8.025"/><path fill="#74bf44" stroke="#000" stroke-width="2.321" d="M39.067 28.634s-2.163-4.57-1.873-8.245-.358-6.837-2.839-6.562c-2.48.276-4.985 3.925-4.028 8.643s4.266 7.888 4.266 7.888l4.474-1.724ZM58.595 28.634s2.163-4.57 1.873-8.245.358-6.837 2.839-6.562c2.48.276 4.985 3.925 4.028 8.643s-4.266 7.887-4.266 7.887l-4.475-1.723Z"/><path fill="#74bf44" d="M48.83 55.541c-12.292 0-21.562-5.984-21.562-13.92 0-8.274 9.672-15.005 21.562-15.005s21.564 6.73 21.564 15.005c0 7.936-9.27 13.92-21.564 13.92"/><path fill="undefined" d="M48.83 27.777c11.122 0 20.403 6.298 20.403 13.844 0 7.543-9.28 12.76-20.403 12.76s-20.402-5.216-20.402-12.76c0-7.546 9.28-13.844 20.402-13.844m0-2.321c-12.53 0-22.723 7.25-22.723 16.165 0 8.597 9.769 15.08 22.723 15.08 12.955 0 22.724-6.483 22.724-15.08 0-8.914-10.194-16.165-22.724-16.165v2.321Z"/><path fill="#fff" d="M41.578 32.528c-2.396-.36-4.695 1.698-5.054 4.103-.358 2.403 1.234 5.057 3.631 5.415s4.695-1.713 5.055-4.117c.36-2.406-1.234-5.044-3.632-5.4"/><path fill="#231f20" d="M40.84 35.574c.503 0 .958.216 1.287.567.33.35.533.833.533 1.367s-.204 1.018-.533 1.367c-.33.35-.784.568-1.287.568s-.957-.217-1.286-.568a2 2 0 0 1-.533-1.367c0-.534.204-1.017.533-1.367s.784-.567 1.286-.567"/><path fill="#231f20" d="M41.775 30.43c-3.664-.547-7.096 2.067-7.659 5.84-.563 3.776 1.951 7.28 5.615 7.828 3.665.547 7.093-2.068 7.657-5.843s-1.947-7.278-5.613-7.825m3.435 7.498c-.36 2.404-2.659 4.475-5.055 4.117-2.398-.358-3.989-3.012-3.631-5.415.36-2.404 2.658-4.463 5.054-4.103 2.398.358 3.992 2.996 3.632 5.401"/><path fill="#fff" d="M57.732 32.528c-2.396-.36-4.694 1.698-5.054 4.103-.358 2.403 1.234 5.057 3.631 5.415s4.696-1.713 5.055-4.117c.36-2.406-1.234-5.044-3.632-5.4"/><path fill="#231f20" d="M56.995 35.574c.502 0 .957.216 1.287.567.328.35.533.833.533 1.367s-.205 1.018-.533 1.367c-.33.35-.785.568-1.287.568s-.957-.217-1.287-.568a2 2 0 0 1-.533-1.367c0-.534.204-1.017.533-1.367s.785-.567 1.287-.567"/><path fill="#231f20" d="M57.93 30.43c-3.665-.547-7.097 2.067-7.66 5.84-.563 3.776 1.951 7.28 5.615 7.828 3.665.547 7.093-2.068 7.657-5.843s-1.946-7.278-5.613-7.825m3.434 7.498c-.36 2.404-2.658 4.475-5.055 4.117-2.398-.358-3.989-3.012-3.631-5.415.36-2.404 2.659-4.463 5.054-4.103 2.398.358 3.992 2.996 3.632 5.401M48.721 45.731c2.049 0 3.904.338 5.248.877 1.344.547 2.176 1.297 2.176 2.121s-.832 1.574-2.176 2.121c-1.344.54-3.2.877-5.248.877s-3.903-.337-5.247-.876c-1.345-.548-2.176-1.297-2.176-2.122 0-.824.831-1.574 2.176-2.12 1.344-.54 3.199-.878 5.247-.878"/></svg>