<svg xmlns="http://www.w3.org/2000/svg" width="305" height="198" viewBox="0 0 305 198"><title>Slice 1</title><g fill="none" fill-rule="evenodd"><path fill="#a1af93" d="M227.749 167.263s-.824-2.247.225-2.098c.6.075.45.525.225.974-.3.3-.45.45-.45 1.124"/><path fill="#69b229" d="M237.866 168.087c-.15 1.498.75 2.621.225 3.895-1.05 2.547-1.65 4.27-1.05 6.067.6 1.723-3.222 3.595-3.747 2.322-.45-1.198 0-1.498.675-2.547 0 0-.9.824-1.724.9-1.049.149-1.573-.75-1.723-1.649-.075-.973.75-1.872.75-1.872s-1.275.45-1.95-.6c-.824-1.198-.299-1.273.675-2.546.75-1.049 1.2-2.322.824-3.67-.45-1.649.075-2.847-.524-4.27-.3-.824-1.274 2.097-1.948 1.797-.975-.449-1.2-1.273-.675-2.172.974-1.648 1.649-2.172 2.623-2.846 1.499-.899 2.323-5.393 4.271-3.296 2.099 2.247 3.597 7.79 3.298 10.487"/><path fill="#519b3d" d="M233.145 178.573c.15-.15.45-.3.674-.599q.337-.45.45-1.123v-.675c0-.3-.075-.524-.075-.824 0-1.123.45-2.097.899-2.771.225-.375.525-.6.674-.75.15-.149.3-.224.3-.224s-.075.15-.225.3c-.15.225-.3.45-.45.824-.299.674-.674 1.648-.674 2.621 0 .225.075.45.075.75s0 .599-.075.823c0 .3-.15.525-.225.75-.074.224-.224.374-.374.524-.375.3-.675.374-.9.45-.224.074-.374.074-.374.074zM231.87 174.529c.45-.375.9-1.124 1.125-1.873.15-.75.374-1.648.6-2.247.074-.3.299-.525.374-.674l.225-.225s-.225.374-.3.974c0 .3-.075.674-.15 1.048 0 .225 0 .375-.075.6-.075.15-.075.374-.15.599-.15.45-.374.824-.6 1.198-.224.375-.524.6-.824.824-.524.375-.974.45-.974.45s.375-.225.75-.674"/><path fill="#a1af93" d="M229.548 173.555c.45-.6 1.049-1.049 1.348-.075.45 1.573-2.772 1.198-2.772 1.198.824-.3.974-.524 1.424-1.123M231.121 177.6c.3-.675.825-1.199 1.274-.3.75 1.423-2.473 1.648-2.473 1.648.825-.45.9-.674 1.2-1.348M233.22 180.596c.074-.75.374-1.423 1.124-.75 1.199 1.124-1.799 2.398-1.799 2.398.675-.674.6-.974.675-1.648"/><path fill="#69b229" d="M221.979 121.72c3.297 8.015.075 22.172-10.342 31.685-3.522 3.146-2.922 4.57-2.922 4.57s4.196-.525 11.465.3c5.62.673 10.941-2.023 13.414-1.35 2.623.675 4.946 7.117-11.615 9.738-28.927 4.645-34.097-3.82-28.477-12.584 6.145-9.587 1.2-16.104 1.799-26.291.6-10.187 21.057-19.625 26.678-6.067"/><path fill="#519b3d" d="M194.177 152.506c.074-.224.224-.524.374-.823.15-.3.3-.675.45-1.05.15-.374.3-.823.45-1.273s.224-.973.374-1.498c.15-.524.225-1.123.3-1.648s.15-1.048.15-1.647c0-.6.075-1.199.075-1.723-.075-.6 0-1.124-.075-1.648-.075-.525-.15-.974-.15-1.498 0-.45-.075-.9-.15-1.349-.075-.824-.225-1.498-.3-2.022-.075-.45-.15-.75-.15-.75s.075.3.225.75l.225.899c.15.3.225.674.3 1.123.15.375.225.9.3 1.349 0 .524.075 1.048.15 1.573.074.524.074 1.048.074 1.648.075.599 0 1.123 0 1.722 0 .6-.075 1.124-.15 1.723-.074.6-.15 1.124-.3 1.648-.15.525-.299 1.049-.449 1.498s-.375.9-.524 1.274a9.7 9.7 0 0 1-.975 1.797c-.224.375-.45.6-.45.6s.15-.225.226-.675M231.271 157.076c-.375.15-.9.224-1.424.374l-.899.225c-.3 0-.6.075-.974.15-.675.15-1.424.224-2.173.3-.75.074-1.574.224-2.473.224a65 65 0 0 1-5.396 0c-1.873-.075-3.672-.15-5.396-.15-1.723-.075-3.372-.075-4.72-.075h-1.874c-.525 0-1.05.075-1.424.075-.824.075-1.274.075-1.274.075s.45-.075 1.274-.15c.75-.075 1.948-.15 3.297-.224 1.35 0 2.998-.075 4.721-.075 1.724 0 3.598.075 5.396.075 1.874.075 3.672.15 5.396.075.899-.075 1.723-.075 2.473-.15a206 206 0 0 0 2.173-.225c.674-.075 1.349-.225 1.873-.3.525-.075 1.05-.224 1.424-.3.75-.224 1.2-.299 1.2-.299s-.45.15-1.2.375M215.834 167.562c-1.424.15-3.148.3-5.021.45-1.874.075-3.822.225-5.845.15-1.949-.075-3.972-.3-5.77-.75-1.8-.449-3.523-1.123-4.722-2.022q-1.012-.675-1.573-1.348a5.4 5.4 0 0 1-.825-1.348c-.15-.375-.225-.75-.3-.974-.074-.225-.074-.375-.074-.375s0 .525.45 1.274a7 7 0 0 0 2.472 2.471c1.274.824 2.848 1.424 4.646 1.873.9.225 1.799.375 2.773.524s1.948.225 2.923.3c.974.15 1.948.075 2.922.075.974-.075 1.949-.075 2.848-.15 1.798-.075 3.522-.225 5.02-.3 2.998-.224 4.947-.374 4.947-.374s-1.949.225-4.871.524M222.278 134.604c.15-.674.225-1.573.375-2.472s.225-1.872.3-2.846c.075-.45.075-.974.075-1.423.075-.525 0-.974 0-1.423 0-.525-.075-.9-.075-1.349-.075-.45-.15-.824-.225-1.198 0-.375-.15-.674-.225-.974-.075-.15-.075-.225-.15-.375-.075-.074-.075-.224-.15-.3-.224-.374-.3-.598-.3-.598s.15.224.375.599c.075.075.15.225.225.3s.075.224.15.374c.15.3.3.6.375.974s.225.749.3 1.198c.075.45.15.9.15 1.349.074.449.074.898.074 1.423 0 .524-.074.974-.074 1.498-.075 1.049-.225 2.022-.375 2.921s-.375 1.723-.525 2.472c-.374 1.498-.75 2.397-.75 2.397s.226-.974.45-2.547"/><path fill="#69b229" d="M87.764 184.49c-.9 1.2-2.548 4.345-2.623 5.694 0 1.348 1.349 1.423.974 3.295-.375 1.798-2.023 2.023-2.997 1.199-.975-.824-.9-1.124-.9-1.798 0 0-.674.225-1.424-.15-.974-.449-1.124-1.423-.749-2.247s.15-1.273.15-1.273-1.274.374-2.023-.375c-1.05-.973-.75-2.022.45-3.146 1.123-1.123 1.273-2.621 1.198-5.018-.075-1.723 2.923-3.221 5.32-6.817 2.624-3.895 4.872-2.172 6.67.15 3.298 4.12-.674 6.292-4.046 10.487"/><path fill="#519b3d" d="M82.518 192.73c.15-.15.45-.3.675-.599.15-.15.224-.3.3-.524 0-.15.074-.375.074-.6s0-.449-.075-.674c0-.224-.075-.449-.15-.749-.075-.524 0-1.048.075-1.573.075-.449.3-.898.45-1.273s.375-.674.525-.824l.224-.225s-.075.075-.15.3c-.15.15-.224.45-.374.824s-.225.824-.3 1.273c0 .45-.075.974 0 1.424 0 .224.075.449.15.749s.075.524.075.824c-.075.524-.3.973-.6 1.273-.15.15-.3.225-.45.3s-.3.15-.374.15c-.225.074-.375.074-.375.074s.15 0 .3-.15M80.42 189.135c.225-.075.374-.225.6-.45.449-.374.749-1.123.824-1.872.075-.824.15-1.648.3-2.247.074-.3.224-.525.3-.674.074-.15.149-.225.149-.225s-.15.374-.15.974c-.075.599-.075 1.423-.15 2.247-.075.15-.075.374-.15.6a5 5 0 0 1-.224.598c-.225.375-.45.674-.75.824-.524.375-.974.375-.974.375s.15-.075.225-.15"/><path fill="#a1af93" d="M78.396 188.236c.375-.6.825-1.123 1.274-.225.675 1.499-2.548 1.573-2.548 1.573.825-.374.9-.674 1.274-1.348M80.495 192.131c.3-.674.674-1.273 1.274-.45.974 1.274-2.248 1.948-2.248 1.948.749-.524.749-.824.974-1.498M82.968 194.753c0-.75.225-1.423 1.049-.824 1.274.974-1.499 2.622-1.499 2.622.525-.75.45-1.05.45-1.798"/><path fill="#69b229" d="M159.03 116.477c3.747 13.483-7.868 36.704-18.51 37.528-16.186 1.273-26.153 3.745-31.399 4.27-5.096.598-6.444 2.396-16.561 20.598-2.548 4.57-11.241 9.663-8.019-.899.6-2.097 5.47-18.127 9.293-22.696 7.119-8.464 11.09-6.142 15.137-7.79 5.096-2.023 11.466-7.34 9.443-19.625-3.822-23.22 31.399-44.719 40.616-11.386"/><path fill="#a1c380" d="M134.45 5.094c47.437-8.54 59.801 20.898 59.801 20.898-20.458 24.12-2.922 71.16-2.922 71.16-22.856-28.464-67.145-3.596-67.145-3.596 3.222-32.583-27.053-19.7-27.053-19.7 11.016-31.31-11.615-31.685-18.735-28.838 0 0 33.798-35.88 56.054-39.924"/><path fill="#69b229" d="M193.127 102.844c-2.697-11.46-11.016-16.628-13.938-33.557-2.623-15.206 6.894-34.68 6.894-34.68s-13.264 2.47-27.877 9.212c-15.213 7.041-35.746 54.232-35.746 54.232s6.145-24.494 16.562-45.168c10.416-20.674 47.885-25.767 47.885-25.767s-29.525-6.667-43.09-2.098c-13.563 4.57-49.084 52.883-49.084 52.883 16.936-35.355 35.071-51.684 46.162-59.924s47.286 2.098 47.286 2.098c-2.772-7.64-31.474-13.558-48.934-12.435C121.86 8.764 73.75 49.362 73.75 49.362s40.542-45.916 63.848-48.164c29.6-2.846 59.8 12.734 59.8 12.734 1.35-7.94-7.868-9.737-7.868-9.737 7.57-.9 13.414 6.067 15.138 14.98s-13.864 26.292-16.861 41.573c-2.998 15.28 20.008 40 20.008 40 .975 6.291-12.89 9.437-14.688 2.096"/><path fill="#519b3d" d="M203.993 96.328c-1.199-1.423-2.922-3.446-4.796-5.993a106 106 0 0 1-5.995-9.063c-1.948-3.446-3.896-7.266-5.02-11.386-.6-2.022-.9-4.194-.75-6.292s.675-4.045 1.2-5.992c1.123-3.82 2.622-7.266 3.97-10.112 1.35-2.847 2.699-5.169 3.598-6.742a47 47 0 0 1 1.499-2.472s-2.174 3.596-4.871 9.364c-1.274 2.92-2.698 6.292-3.822 10.112-.525 1.872-1.05 3.895-1.2 5.917-.074 2.023.226 4.12.75 6.142 1.124 4.045 2.998 7.865 4.946 11.311a91 91 0 0 0 5.845 9.064c3.672 5.168 6.445 8.389 6.445 8.389s-.75-.824-1.799-2.247M187.957 27.116c-1.05.15-2.548.449-4.272.824-1.723.3-3.747.823-5.92 1.348-2.173.6-4.496 1.198-6.744 1.947-2.249.75-4.497 1.498-6.595 2.322s-3.972 1.573-5.62 2.322c-1.65.675-2.998 1.349-3.897 1.798-.974.45-1.5.75-1.5.75s.526-.3 1.425-.825 2.173-1.273 3.822-2.022c1.648-.75 3.522-1.648 5.62-2.472a135 135 0 0 1 6.595-2.397c2.248-.674 4.57-1.348 6.744-1.873s4.197-.973 5.995-1.273c1.724-.375 3.223-.524 4.272-.674 1.049-.075 1.648-.15 1.648-.225 0 .075-.6.15-1.573.45M188.781 20.3c-1.05-.3-2.548-.675-4.421-1.124-1.874-.525-4.047-.974-6.37-1.424a186 186 0 0 0-7.344-1.273c-1.274-.225-2.548-.374-3.747-.524-1.274-.15-2.473-.225-3.672-.375s-2.398-.224-3.447-.3c-1.124-.074-2.099-.15-3.073-.15-.974-.074-1.873-.149-2.623-.149h-3.747s.6-.075 1.724-.075c.6 0 1.274-.075 2.023-.075.825-.075 1.649 0 2.623 0s1.949 0 3.073.075 2.248.075 3.447.225 2.398.225 3.672.374c1.199.15 2.473.225 3.747.45 2.548.374 5.02.899 7.344 1.348 1.199.225 2.323.524 3.372.75 1.05.224 2.098.523 2.998.748 1.873.524 3.372.974 4.421 1.348s1.649.6 1.649.6-.6-.225-1.649-.45M195.3 12.884c-1.498-.6-3.522-1.498-6.07-2.472-1.273-.45-2.697-.974-4.121-1.498a334 334 0 0 0-4.646-1.573c-1.574-.45-3.223-1.049-4.946-1.498-1.649-.45-3.447-.974-5.17-1.349-.9-.224-1.725-.45-2.624-.674-.899-.15-1.723-.374-2.623-.524-.824-.15-1.723-.375-2.548-.525-.899-.15-1.723-.3-2.547-.449-.825-.075-1.65-.225-2.473-.374-.825-.075-1.65-.225-2.398-.3-.75-.15-1.5-.225-2.249-.3s-1.423-.075-2.098-.15c-1.349-.15-2.548-.224-3.672-.3-1.124 0-2.023-.074-2.848-.074-1.573-.075-2.473-.075-2.473-.075h5.321c1.05.075 2.323.15 3.672.225.675.075 1.349.075 2.098.15l2.249.224c.824.075 1.573.15 2.398.225.824.075 1.648.225 2.473.375.824.074 1.723.224 2.547.374.9.15 1.724.375 2.623.524s1.724.375 2.623.525 1.724.374 2.623.599c1.724.45 3.447.974 5.17 1.423 1.724.524 3.373 1.049 5.022 1.573 1.573.6 3.147 1.124 4.57 1.648q2.137.786 4.048 1.573c1.199.45 2.398.974 3.372 1.423s1.873.824 2.548 1.199a49 49 0 0 1 2.248 1.123s-.824-.45-2.098-1.048M192.153 100.522q0-.45-.225-1.348a16 16 0 0 0-.674-2.022c-.3-.75-.75-1.573-1.2-2.472-.524-.899-1.048-1.873-1.648-2.847a190 190 0 0 0-1.948-3.07c-1.424-2.098-2.698-4.57-3.747-7.042-1.124-2.546-1.948-5.093-2.623-7.565-.674-2.472-1.124-4.794-1.349-6.816-.3-1.948-.3-3.67-.225-4.87.075-.599.075-1.048.15-1.348s.075-.449.075-.449-.075.15-.075.45c-.075.3-.075.748-.075 1.348-.075 1.198.075 2.846.375 4.869s.824 4.344 1.499 6.741a59 59 0 0 0 2.623 7.49 47 47 0 0 0 3.672 6.967c.749 1.123 1.349 2.172 1.948 3.146a60 60 0 0 1 1.574 2.92 24.3 24.3 0 0 1 1.723 4.57q.225.9.225 1.348v.45s0-.225-.075-.45M187.132 33.333c-.45.899-1.049 2.022-1.573 3.22-.525 1.2-1.05 2.398-1.424 3.296-.15.45-.3.824-.45 1.05-.15.224-.225.374-.225.374s0-.15.075-.45c.075-.225.15-.674.3-1.123.3-.974.75-2.173 1.274-3.371a17.4 17.4 0 0 1 1.798-3.146c.3-.375.525-.674.75-.899.15-.225.3-.3.3-.3s-.375.6-.825 1.349"/><path fill="#519b3d" d="M187.957 19.325c-.15-.15-.3-.374-.525-.599s-.45-.524-.75-.749-.599-.524-.974-.749c-.3-.225-.749-.45-1.124-.749-.374-.225-.824-.524-1.274-.749l-1.348-.674-1.35-.674c-.449-.225-.899-.375-1.348-.6-.9-.374-1.724-.674-2.473-.973a200 200 0 0 1-2.398-.9s.225.076.674.15c.45.15 1.05.3 1.799.525.674.3 1.573.524 2.473.899.45.15.974.3 1.424.524s.974.45 1.423.674.9.525 1.35.75c.449.299.899.524 1.273.823.375.3.75.525 1.124.824.375.225.675.525.974.824.225.3.525.525.675.824q.337.338.45.674c.224.375.224.675.224.675s-.075-.3-.3-.75M197.624 11.16q.225.675.225 1.574c0 .6-.075 1.273-.375 1.872-.075.15-.15.3-.3.45-.075.15-.225.3-.3.374-.15.15-.3.45-.374.675a2.25 2.25 0 0 0 .075 1.423c.15.374.374.674.6.824.224.15.374.15.374.15s-.225.074-.45-.075c-.3-.15-.6-.375-.824-.824-.225-.45-.375-1.049-.225-1.648.075-.3.15-.6.375-.9.075-.149.225-.224.3-.374.074-.075.15-.15.224-.3.225-.524.375-1.123.375-1.647s0-1.049-.075-1.498a10 10 0 0 0-.225-1.498s.3.524.6 1.423"/><path fill="#7d9950" d="M171.92 85.092c-.375-.15-.9-.225-1.574-.375s-1.499-.3-2.473-.374c-.45-.075-.974-.075-1.499-.15-.524-.075-1.049-.15-1.648-.15-.525 0-1.2-.075-1.799-.075h-1.948c-1.35 0-2.698.15-4.197.225-.75 0-1.499.15-2.248.225s-1.499.15-2.248.3c-.824.074-1.574.224-2.323.374l-1.124.225-1.124.224c-1.574.375-3.073.675-4.572 1.124-.674.225-1.423.375-2.173.6-.3.074-.674.224-1.049.299-.375.15-.674.225-1.05.374q-2.135.675-4.046 1.349c-1.274.524-2.398.973-3.522 1.423-.525.225-1.05.374-1.574.6-.524.224-.974.374-1.423.598-.825.375-1.65.675-2.249.974-1.199.6-1.948.899-1.948.899l1.948-.974q1.012-.45 2.249-1.123c.374-.225.899-.45 1.348-.674l1.574-.675c1.124-.45 2.248-.973 3.522-1.498 1.2-.45 2.548-.974 3.972-1.423.375-.15.674-.225 1.05-.374.299-.075.674-.225 1.048-.3l2.248-.674c1.5-.45 3.073-.75 4.572-1.124l1.124-.225 1.199-.224c.824-.15 1.573-.225 2.323-.375.824-.15 1.574-.224 2.323-.3l2.248-.224c1.499-.075 2.923-.225 4.272-.15.674 0 1.349-.075 1.948 0 .674.075 1.274.15 1.873.15 1.2.075 2.249.225 3.223.374.9.15 1.723.3 2.398.45.674.225 1.199.3 1.574.45.374.074.524.15.524.15s-.225-.076-.75.074"/><path fill="#519b3d" d="M159.105 43.37c-.45.225-1.049.45-1.798.899-1.499.899-3.447 2.472-5.546 4.569-.974 1.049-2.098 2.247-3.147 3.595a70 70 0 0 0-3.222 4.27 267 267 0 0 0-3.148 4.794l-1.574 2.472c-.524.824-.974 1.723-1.498 2.547-1.05 1.647-2.024 3.37-2.998 5.093a373 373 0 0 0-2.773 5.019c-1.798 3.296-3.447 6.367-4.796 8.988-2.772 5.319-4.571 8.84-4.571 8.84s.45-.9 1.199-2.473 1.799-3.82 3.147-6.516a574 574 0 0 1 4.647-9.064c.899-1.648 1.798-3.296 2.772-5.019a90 90 0 0 1 2.923-5.168c.525-.824 1.05-1.723 1.574-2.547l1.573-2.472a133 133 0 0 1 3.223-4.794c1.124-1.498 2.173-2.92 3.297-4.27 1.05-1.347 2.173-2.546 3.222-3.595a32 32 0 0 1 3.073-2.696c.974-.75 1.873-1.274 2.623-1.723.824-.45 1.424-.674 1.873-.824s.675-.15.675-.15-.3 0-.75.225"/><path fill="#7d9950" d="M98.78 52.733c-.15-.3-.3-.674-.525-1.049-.15-.374-.45-.824-.75-1.273-.224-.45-.674-.899-1.048-1.423-.45-.45-.9-.899-1.424-1.348-.525-.525-1.124-.9-1.724-1.274-.3-.225-.674-.374-.974-.524s-.6-.3-.974-.45l-1.05-.374a5.5 5.5 0 0 0-1.048-.3c-.375-.075-.675-.15-1.05-.224l-.524-.075c-.15-.075-.375-.075-.525-.075-.75 0-1.349-.15-2.023-.15-.6.075-1.274.075-1.799.075h-.824c-.3 0-.525.075-.75.075-.449.075-.899.15-1.198.15-.675 0-1.05.074-1.05.074s.3-.074.975-.224c.374-.075.75-.15 1.199-.225.225-.075.524-.075.75-.15.299-.075.524-.075.823-.075.525-.075 1.125-.075 1.799-.15.6 0 1.349 0 2.023.075h.525l.524.075 1.125.225c.374.075.749.15 1.124.3l1.049.374c.374.15.674.375 1.049.524.3.15.674.3.974.525.675.45 1.274.824 1.799 1.348.524.45.974 1.049 1.423 1.498.375.525.75.974 1.05 1.498.374.45.524.9.749 1.349q.337.674.45 1.123a7 7 0 0 1 .3.974s-.076-.375-.45-.899M122.985 79.1q-.225-.45-.675-1.124l-.45-.674c-.224-.225-.374-.45-.599-.674-.225-.3-.45-.525-.674-.75s-.45-.524-.75-.748l-.899-.674c-.3-.225-.674-.45-.974-.675-.225-.075-.375-.224-.525-.3l-.524-.299c-.375-.15-.75-.374-1.124-.524s-.825-.225-1.2-.375l-.599-.224c-.15-.075-.374-.075-.6-.15-.824-.15-1.648-.375-2.472-.375-.9-.075-1.649-.15-2.473-.075-.45.075-.825.075-1.2.075-.374 0-.749 0-1.123.075-.675.075-1.424.225-2.024.3-.674 0-1.199.15-1.723.3-.525.15-.974.224-1.35.299-.674.15-1.123.225-1.123.225s.374-.15 1.124-.375c.375-.075.75-.225 1.274-.374.524-.15 1.049-.375 1.723-.45.6-.15 1.274-.224 2.024-.374s1.499-.15 2.323-.225 1.649 0 2.473.075c.824 0 1.723.225 2.548.374.15.075.374.075.6.15l.599.225c.374.15.824.3 1.199.45.374.224.75.449 1.124.599.15.15.375.224.524.3.15.149.375.224.525.374.3.224.674.45.974.674.225.225.525.524.825.749s.524.524.749.749.524.45.674.749c.15.3.375.524.525.75.15.299.3.523.45.748.224.45.45.824.6 1.199.299.674.374 1.123.374 1.123s-.15-.374-.15-1.123"/><path fill="#519b3d" d="M149.363 23.97c-.899.15-2.173.449-3.672.824-.75.15-1.573.374-2.398.749q-1.236.562-2.473 1.348c-1.648.974-3.297 2.322-4.87 3.67-1.574 1.349-3.073 2.847-4.497 4.195a193 193 0 0 0-3.822 3.745 343 343 0 0 0-3.747 3.67s1.349-1.573 3.522-3.895a161 161 0 0 1 3.747-3.895 124 124 0 0 1 4.497-4.27c1.573-1.348 3.222-2.696 4.945-3.67.825-.449 1.65-.973 2.548-1.273.9-.374 1.724-.6 2.473-.749 1.574-.375 2.848-.524 3.747-.674.9-.15 1.424-.15 1.424-.15s-.524.075-1.424.375M75.324 48.089c.974-.824 2.473-2.097 4.271-3.595a400 400 0 0 1 6.145-5.02c2.324-1.797 4.722-3.744 7.195-5.617a931 931 0 0 1 7.269-5.468 138 138 0 0 1 6.52-4.57c.973-.673 1.873-1.273 2.697-1.722.824-.524 1.499-.974 2.098-1.273a452 452 0 0 1 1.874-1.05s-.675.45-1.799 1.124c-.6.375-1.199.824-2.023 1.349-.824.524-1.649 1.123-2.623 1.797-1.948 1.274-4.122 2.922-6.445 4.645a931 931 0 0 0-7.269 5.468c-2.473 1.872-4.87 3.745-7.194 5.543-2.248 1.797-4.421 3.445-6.22 4.868-3.597 2.847-6.07 4.794-6.07 4.794s.6-.524 1.574-1.273"/><path fill="#7cbf2e" d="M233.22 131.084c-18.06 23.52-25.93 27.565-48.71 28.164-20.534.524-31.475-26.442-51.783-21.797s-36.645 3.22-37.844-11.91c-1.499-18.577 14.463-33.633 32.898-40.898s46.837-4.645 59.276 5.842c12.365 10.487 15.887 8.09 27.053 11.31 10.791 3.072 26.079 20.075 19.11 29.289"/><path fill="#b4d189" d="M180.987 146.364c18.06 6.068 40.018-13.857 50.434-30.786 3.522 5.393 5.02 11.161 1.799 15.356-18.06 23.595-25.93 27.64-48.71 28.164-20.534.524-31.55-26.741-51.783-21.797-17.536 4.27-23.53 2.322-30.05.3 26.678-20.824 57.777 1.947 78.31 8.763"/><path fill="#7d9950" d="M223.178 142.919c-.375.45-.9 1.123-1.649 1.872-1.499 1.573-3.672 3.746-6.594 5.993a45 45 0 0 1-5.021 3.295 32.3 32.3 0 0 1-6.145 2.622c-2.174.75-4.497 1.274-6.895 1.723-2.323.45-4.796.674-7.269.824s-4.946.15-7.344-.075a30.4 30.4 0 0 1-6.969-1.498c-2.173-.75-4.197-1.798-5.995-2.921-1.799-1.124-3.372-2.248-4.871-3.371-2.998-2.172-5.32-4.12-7.044-5.468a124 124 0 0 0-2.623-2.098s.974.75 2.698 2.023 4.121 3.146 7.119 5.318c1.499 1.049 3.147 2.247 4.946 3.296a29 29 0 0 0 5.92 2.846c2.173.824 4.496 1.274 6.894 1.498 2.398.225 4.796.15 7.27 0 2.472-.15 4.87-.449 7.268-.823 2.398-.375 4.721-.974 6.895-1.648a36.7 36.7 0 0 0 6.07-2.472 36 36 0 0 0 5.02-3.146c2.923-2.172 5.171-4.345 6.67-5.843.75-.749 1.349-1.348 1.724-1.798.374-.449.6-.674.6-.674s-.226.225-.675.525"/><path fill="#519b3d" d="M173.493 83.669c-2.248-.674-5.545-1.573-9.592-2.172a79.3 79.3 0 0 0-13.863-.824c-5.096.15-10.492.898-15.737 2.247-2.623.674-5.246 1.498-7.72 2.472a69 69 0 0 0-7.118 3.295c-4.422 2.397-8.318 5.244-11.316 7.94-3.072 2.772-5.32 5.319-6.744 7.191-1.424 1.873-2.099 3.071-2.099 3.071s.6-1.198 2.024-3.146 3.597-4.569 6.594-7.34a58 58 0 0 1 11.316-8.165 56.4 56.4 0 0 1 7.12-3.37c2.472-1.05 5.095-1.873 7.718-2.547a73 73 0 0 1 15.812-2.248c5.17-.15 9.892.3 13.938.974a63 63 0 0 1 9.593 2.397c2.248.75 3.522 1.348 3.522 1.348s-1.2-.524-3.448-1.123"/><path fill="#7cbf2e" d="M124.484 120.222c-4.497 10.038-6.145 14.532-27.952 16.854-16.637 1.723-26.08 21.722-65.122 11.16-39.043-10.56-29.676-29.961-29.676-29.961-3.372 11.385 12.14 24.12 35.446 22.771 23.456-1.348 62.724-44.419 75.538-44.868 14.164-.524 16.487 13.258 11.766 24.044"/><path fill="#b4d189" d="m114.442 131.533 5.395 7.79c-3.297.9-14.762-.599-20.158 0-16.561 1.723-29.226 19.55-68.27 8.989-4.72-1.274-8.767-2.697-12.214-4.195 14.013 3.146 33.797 5.468 47.886-1.798 23.98-12.434 47.36-10.786 47.36-10.786"/><path fill="#519b3d" d="M9.903 134.604c.6.375 1.348.75 2.248 1.199.899.45 1.873.899 2.997 1.348.525.225 1.124.45 1.724.674s1.199.45 1.873.674c1.35.375 2.773.824 4.197 1.124 1.499.374 2.997.6 4.571.824 1.499.224 3.148.374 4.721.374 1.574.075 3.148 0 4.721-.15 1.574-.15 3.148-.374 4.572-.749 1.423-.3 2.847-.749 4.121-1.198.675-.225 1.274-.45 1.874-.674.6-.3 1.199-.525 1.723-.75a39 39 0 0 0 2.998-1.348c.9-.374 1.649-.823 2.248-1.123 1.274-.674 1.948-1.049 1.948-1.049s-.674.375-1.873 1.124c-.674.3-1.349.749-2.248 1.198-.375.225-.9.525-1.35.75-.524.224-1.048.524-1.573.748-.524.225-1.124.525-1.723.75-.6.224-1.2.524-1.874.748-1.349.45-2.698.974-4.196 1.274a29 29 0 0 1-4.572.824c-1.573.225-3.147.225-4.796.225-1.648 0-3.222-.15-4.796-.375-1.574-.15-3.072-.45-4.571-.824-1.499-.3-2.923-.749-4.197-1.198a52 52 0 0 1-1.873-.675c-.6-.3-1.2-.524-1.724-.749a100 100 0 0 1-2.922-1.498 43 43 0 0 1-2.173-1.273c-1.2-.75-1.799-1.273-1.799-1.273s.674.449 1.724 1.048"/><path fill="#7d9950" d="M75.024 148.087c-.674.225-1.574.524-2.548.824q-.675.225-1.573.45l-1.799.449c-.6.225-1.274.3-1.948.45-.675.074-1.35.299-2.099.374-1.423.225-2.997.524-4.57.6-.825.074-1.65.224-2.474.224-.9 0-1.723.075-2.548.075h-2.548c-.824-.075-1.723-.075-2.548-.075-1.723-.075-3.372-.225-5.095-.375q-2.586-.337-4.946-.674c-1.574-.3-3.148-.674-4.572-.974-.749-.15-1.423-.3-2.098-.524-.674-.15-1.349-.374-1.948-.524-1.274-.375-2.398-.674-3.373-1.049-.974-.3-1.873-.674-2.547-.899a631 631 0 0 0-2.249-.824s.825.3 2.249.75c.674.224 1.573.524 2.547.823.975.375 2.099.6 3.373.974.6.15 1.274.375 1.948.524.675.225 1.349.375 2.098.525 1.5.3 2.998.599 4.572.899 1.573.224 3.222.449 4.87.674 1.724.15 3.373.3 5.096.374.825 0 1.724.075 2.548.075s1.724.075 2.548 0c.825 0 1.649-.075 2.473-.075.825 0 1.574-.075 2.398-.15 1.574-.15 3.148-.3 4.572-.524.749-.075 1.423-.3 2.098-.374.674-.15 1.349-.225 1.948-.375 1.2-.3 2.398-.524 3.372-.824 1.05-.225 1.874-.524 2.623-.749 1.424-.524 2.248-.824 2.248-.824s-.824.375-2.098.75"/><path fill="#7cbf2e" d="M273.761 78.65c-6.52 1.798-8.768 16.779-12.74 26.367s-14.987 32.883-35.295 37.977c-25.854 6.516-31.924-16.704-28.702-27.715 3.223-11.011 0-18.427 20.309-13.109 13.414 3.52 25.853 5.843 31.624-15.88 4.346-16.179 19.484-29.063 26.978-27.565 10.716 2.173 4.346 18.127-2.174 19.925"/><path fill="#b4d189" d="M200.247 135.278c17.385-.15 36.794-7.415 43.989-14.381 11.84-11.61 16.786-35.13 21.732-36.254 1.124-.225 1.648-.225 1.873.749-2.548 5.618-4.346 13.557-6.82 19.55-3.971 9.663-9.966 26.366-28.476 36.179-20.608 11.01-19.409 11.385-32.298-5.843"/><path fill="#519b3d" d="M227.524 104.118c.375.075.974.15 1.799.15h1.274c.45 0 .974 0 1.498-.075 1.125-.075 2.324-.3 3.598-.75 1.273-.449 2.622-1.048 3.896-1.947 1.2-.899 2.473-2.022 3.522-3.296 1.125-1.273 2.024-2.771 2.848-4.344.75-1.573 1.424-3.296 1.874-5.019a68 68 0 0 1 3.672-9.962c1.423-3.146 3.072-5.843 4.72-8.015.825-1.049 1.724-1.947 2.474-2.771q1.123-1.237 2.023-2.023c1.199-1.049 1.873-1.648 1.873-1.648s-.674.6-1.798 1.723c-.525.6-1.2 1.273-1.948 2.097a53 53 0 0 0-2.399 2.847c-1.573 2.172-3.147 4.944-4.57 8.015-1.425 3.07-2.624 6.516-3.598 9.962a23 23 0 0 1-1.948 5.094c-.825 1.647-1.799 3.146-2.923 4.419-1.124 1.348-2.398 2.397-3.672 3.296s-2.698 1.498-3.972 1.947c-.6.225-1.274.375-1.873.525-.6.074-1.199.224-1.724.224-.6.075-1.124.075-1.573.075-.525 0-.975 0-1.35-.075q-1.123-.113-1.798-.224c-.45-.075-.674-.075-.674-.075s.225 0 .75-.15"/><path fill="#7d9950" d="M226.55 144.567a103 103 0 0 0 6.22-3.371c2.548-1.498 5.395-3.37 8.168-5.768s5.546-5.168 7.944-8.24c2.473-3.07 4.57-6.366 6.37-9.587 1.723-3.221 3.147-6.367 4.346-9.064a129 129 0 0 0 2.698-6.591c.524-1.648.899-2.547.899-2.547s-.3.899-.824 2.547a84 84 0 0 1-2.473 6.666c-1.124 2.697-2.548 5.918-4.272 9.139-1.798 3.22-3.897 6.591-6.37 9.662s-5.245 5.918-8.093 8.24-5.77 4.195-8.318 5.693a130 130 0 0 1-6.37 3.22c-1.574.675-2.473 1.124-2.473 1.124s.9-.45 2.548-1.123"/><path fill="#69b229" d="M270.764 48.688c.824-1.498 5.395 1.199 8.468 1.124 3.072-.075 6.295 4.644 4.496 6.442-6.07 5.992-13.864-5.993-12.964-7.566"/><path fill="#f1f2dc" d="M281.555 56.104s-4.197-6.966-11.466-8.989c-4.346-1.123-6.594-6.142-6.594-6.142 4.946 4.12 7.793 2.247 12.964 3.446 5.096 1.198 10.716 8.09 10.716 8.09-3.522-.15-5.62 3.595-5.62 3.595"/><path fill="#7cbf2e" d="M281.255 57.003c-1.274-.525-1.574-2.847-1.574-2.847.825-2.996 5.696-3.595 5.696-3.595 1.648.15 2.623 2.472 2.623 2.472"/><path fill="#519b3d" d="M286.65 51.385a1.6 1.6 0 0 0-.374-.3c-.15-.15-.375-.15-.6-.225h-.749c-.225 0-.524.075-.824.15s-.6.15-.9.3l-.899.45c-.3.074-.524.299-.824.449s-.525.3-.75.524c-.449.375-.824.75-.974 1.199s-.15.824-.075 1.123.15.45.15.45-.075-.075-.224-.375-.225-.749-.075-1.273c.15-.45.524-.974.974-1.424.225-.224.45-.374.75-.599.299-.15.599-.374.898-.524l.9-.45c.3-.15.6-.224.899-.3.3-.074.6-.149.9-.149.299 0 .599 0 .824.075.3.075.524.15.674.3s.3.224.375.374c.224.3.224.45.224.45s-.074-.15-.3-.225"/><path fill="#c9bd9b" d="M276.534 50.935c-.824-.524-1.798-1.273-2.923-1.872-.6-.375-1.124-.674-1.648-.9a8.5 8.5 0 0 0-1.499-.673c-.45-.225-.75-.375-1.05-.45-.224-.075-.374-.15-.374-.15s.15 0 .45.075q.45 0 1.124.225c.225.075.524.15.75.225.299.075.524.15.824.3.6.224 1.199.524 1.723.823 1.124.675 2.173 1.424 2.848 2.098.75.599 1.124 1.123 1.124 1.123s-.45-.374-1.349-.824M271.588 44.119c-.524 0-1.124 0-1.724-.075-.674-.075-1.273-.225-1.948-.374-.375-.075-.674-.15-.974-.3s-.6-.225-.9-.375-.599-.3-.824-.449l-.674-.45c-.375-.299-.675-.599-.9-.823l-.3-.3s.15.075.376.225c.15.075.3.224.45.3.224.074.374.15.599.299.15.15.45.225.674.374.3.15.525.225.824.375.3.075.6.225.9.3.3.15.6.224.899.3 1.274.299 2.548.524 3.522.598.974.15 1.649.15 1.649.15s-.675.15-1.649.225"/><path fill="#7cbf2e" d="M278.108 51.385c6.07-.674 9.667-.674 13.489 4.719 3.822 5.318 4.271 10.636 9.067 13.483 4.796 2.846 3.747 8.314 3.073 10.187h-2.024s0 1.048-1.274 1.498-7.568-1.723-10.866-1.948-16.561 1.873-20.908-7.64c-4.346-9.513.675-19.325 9.443-20.3"/><path fill="#46893d" d="M298.566 74.605c.974.075 1.199 1.498.75 1.498-.975-.074-1.724-1.647-.75-1.498"/><path fill="#34662d" d="M299.39 75.804c0-.225-.075-.375-.15-.525s-.224-.3-.374-.449l-.15-.15-.075-.075h.3c.224.075.524.15.674.45.075.15.075.3.075.45-.075.149-.075.299-.15.374-.075.15-.225.224-.225.224s0-.15.075-.3"/><path fill="#283f1f" d="M282.525 68.99c-.28-.779-.19-1.524.2-1.663.39-.14.932.379 1.21 1.157.28.78.19 1.524-.199 1.663-.39.14-.932-.378-1.211-1.157"/><path fill="#f1f2dc" d="M287.4 77.302c-.15-.375-.15-.974-.075-1.498 0-.375.525-.525.75-.225.524.75.824 1.423.824 1.423z"/><path fill="#519b3d" d="M299.016 79.699c-.75-.15-1.724-.3-2.698-.6-.525-.15-.974-.374-1.499-.599-.3-.15-.525-.3-.75-.449l-.674-.524a1.3 1.3 0 0 0-.6-.375c-.224-.075-.524-.15-.749-.15a5 5 0 0 0-1.498 0q-1.462.225-2.698.45c-.45.075-.825.15-1.124.15-.3.074-.6.074-.825 0-.224-.075-.374-.075-.524-.15-.075-.075-.15-.075-.15-.075s.075.075.225.075c.075.075.3.075.524.075s.525 0 .825-.075.674-.15 1.049-.225c.75-.15 1.648-.45 2.698-.6.45-.074 1.049-.15 1.573-.074.3 0 .525.075.825.15.224.15.6.3.749.45l.6.523c.224.15.45.3.674.375.45.3.974.45 1.424.6.899.299 1.798.524 2.623.673 1.573.3 2.622.45 2.622.45s-1.124 0-2.622-.075M284.927 67.939a8.3 8.3 0 0 0-2.098-.3c-.375 0-.75.075-1.124.075-.375.075-.675.075-.974.15-.3.075-.6.15-.75.15-.225.075-.3.075-.3.075s.075-.075.225-.15.375-.225.675-.3c.225-.15.6-.225.974-.3.375-.074.75-.15 1.199-.15.375 0 .824.076 1.199.15.375.075.674.225.974.375.525.3.824.6.824.6s-.3-.225-.824-.375M286.201 66.44q-.225-.449-.674-.898c-.075-.15-.3-.3-.45-.375a4 4 0 0 1-.525-.224c-.15-.075-.3-.15-.374-.15-.075-.075-.15-.075-.15-.075h.15c.15-.075.3-.075.45-.075s.374.075.599.15c.075.075.225.075.3.15.075.074.224.15.3.224.374.375.599.824.599 1.199.075.374 0 .599 0 .599s-.075-.225-.225-.524M284.253 69.961c-.15.15-.45.375-.75.525s-.674.224-.899.224c-.3 0-.45-.075-.45-.075l.075-.075c.075 0 .225-.074.3-.15.225-.074.525-.224.824-.374.3-.075.6-.225.825-.3.3-.074.45-.15.45-.15s-.076.15-.375.375"/><path fill="#f1f2dc" d="M273.986 58.95s-4.646-6.666-11.99-8.24c-4.346-.898-6.97-5.767-6.97-5.767 5.246 3.82 8.02 1.723 13.19 2.622 5.246.898 11.24 7.415 11.24 7.415-3.521.075-5.47 3.97-5.47 3.97"/><path fill="#7cbf2e" d="M273.761 59.774c-1.274-.45-1.723-2.771-1.723-2.771.674-2.997 5.47-3.895 5.47-3.895 1.649.075 2.773 2.322 2.773 2.322"/><path fill="#519b3d" d="M278.782 53.857c-.15-.15-.3-.225-.45-.3a1.4 1.4 0 0 0-.599-.15c-.225 0-.45 0-.75.075s-.524.15-.824.225c-.224.075-.524.225-.824.374-.3.075-.525.3-.824.45-.3.15-.525.3-.825.524-.224.225-.45.375-.674.6-.375.374-.75.823-.9 1.273s-.074.824 0 1.123c.15.225.225.375.225.375s-.15-.075-.3-.375c-.15-.224-.299-.674-.15-1.198.076-.524.45-1.049.9-1.498.225-.225.525-.45.75-.674s.524-.45.824-.6l.9-.45c.299-.149.599-.299.898-.374q.45-.224.9-.224c.3-.075.6-.075.824 0 .3.075.524.15.674.3s.3.224.375.374c.15.225.225.374.225.374s-.075-.15-.375-.224"/><path fill="#c9bd9b" d="M268.815 54.081c-.749-.45-1.873-1.123-2.997-1.648-.525-.3-1.124-.524-1.649-.749s-1.049-.449-1.499-.599-.824-.3-1.124-.374-.45-.15-.45-.15.15.075.45.075c.225 0 .675.075 1.124.15.225 0 .45.074.75.15.3 0 .524.15.824.224.525.225 1.124.45 1.724.75 1.199.523 2.248 1.273 2.997 1.872.75.599 1.2 1.048 1.2 1.048s-.525-.3-1.35-.749M263.345 47.49h-1.724c-.6 0-1.274-.075-1.948-.225-.3-.075-.675-.15-.974-.225-.3-.075-.6-.15-.9-.3s-.6-.224-.824-.374c-.225-.15-.45-.225-.674-.374-.45-.3-.75-.525-.975-.75a.9.9 0 0 0-.3-.299s.15.075.375.225c.15.075.3.224.45.3.15.074.375.224.6.299s.524.15.749.3.524.224.824.3l.9.224.899.225c1.274.224 2.548.3 3.522.374s1.648.075 1.648.075-.674.225-1.648.225"/><path fill="#519b3d" d="M288.974 60.298c-.45-.898-1.05-1.947-1.799-2.92-.225-.226-.374-.45-.6-.675-.224-.225-.374-.45-.599-.674-.225-.15-.374-.375-.6-.524-.224-.15-.374-.3-.599-.45-.15-.075-.374-.225-.524-.3l-.45-.224c-.225-.075-.375-.15-.375-.15s.15 0 .45.075.674.15 1.124.374c.225.075.45.225.675.375.224.15.45.374.674.524.45.375.9.824 1.274 1.349.15.224.375.449.525.749s.3.524.45.824c.299.524.524 1.048.674 1.498.374.899.45 1.498.45 1.498s-.226-.6-.75-1.349M282.979 79.549c-.525 0-1.2 0-1.874-.075s-1.424-.15-2.173-.3l-1.124-.224c-.375 0-.674-.15-1.05-.225a23 23 0 0 1-1.798-.674c-.224-.15-.45-.3-.674-.375-.225-.074-.375-.224-.525-.3-.3-.224-.45-.299-.45-.299l.45.225c.15.075.3.15.525.225.15.075.45.15.674.224.525.225 1.124.375 1.799.525.375.075.674.15 1.049.224.3 0 .674.075 1.05.15.674.15 1.423.225 2.097.3.675.075 1.35.15 1.874.225 1.124.15 1.873.224 1.873.224s-.75.075-1.723.15"/><path fill="#519b3d" d="M303.962 74.83c-.15-.524-.3-1.124-.6-1.798s-.674-1.348-1.274-2.022l-.45-.45c-.15-.15-.374-.3-.524-.449-.375-.225-.824-.524-1.274-.749-.9-.6-1.649-1.423-2.323-2.322-.675-.899-1.274-1.948-1.799-2.996l-1.573-3.146-.9-1.573c-.3-.525-.524-1.049-.824-1.573-.6-1.049-1.199-1.948-1.948-2.772a10.3 10.3 0 0 0-2.398-2.097c-.45-.225-.825-.524-1.274-.674-.45-.225-.825-.45-1.274-.525-.825-.3-1.649-.374-2.323-.524-.75 0-1.35-.075-1.874-.075-1.049.075-1.649.075-1.649.075s.6-.075 1.65-.15c.524-.075 1.123 0 1.873 0 .674.075 1.573.15 2.398.45q.675.112 1.348.45c.45.149.9.449 1.35.673.449.225.824.6 1.273.9.375.299.825.673 1.2 1.123.749.899 1.423 1.797 2.023 2.846.3.524.524 1.049.824 1.573.225.524.6 1.049.9 1.573.599 1.124 1.048 2.172 1.573 3.221s1.05 2.022 1.724 2.921c.674.9 1.348 1.648 2.173 2.247.45.3.824.6 1.274.824.225.15.45.3.6.45.15.225.299.374.449.524.6.674.974 1.423 1.274 2.098s.45 1.273.524 1.797c.225 1.049.225 1.648.225 1.648s0-.6-.374-1.498"/><path fill="#7cbf2e" d="M259.673 60.823c-2.098-1.199-2.773-3.67-1.424-3.296 1.349.45 3.597-.45 7.869-1.648 4.271-1.273 6.67 2.547 4.72 5.618-2.397 3.745-9.142.524-11.165-.674"/><path fill="#519b3d" d="M270.764 61.122a3 3 0 0 1-1.574-.15c-.674-.224-1.274-.674-1.873-1.198l-.075-.075-.15-.075c-.075-.075-.15-.15-.225-.15-.15 0-.3-.074-.525-.074-.374 0-.824 0-1.199.075-.824.074-1.648.224-2.473.3h-1.124c-.374 0-.75-.076-1.049-.15-.3-.076-.6-.225-.824-.3-.225-.075-.45-.225-.6-.3-.3-.225-.45-.374-.45-.374s.226.074.525.224c.15.075.375.15.6.225s.524.075.824.15.6.075.974.075c.375 0 .75 0 1.124-.075.75-.075 1.574-.225 2.398-.375.375-.075.825-.075 1.274-.075.225 0 .45.075.675.15.15 0 .225.075.3.15l.15.075.15.15c.524.524 1.123 1.048 1.648 1.273s1.05.3 1.424.3h.6s-.225.075-.525.224M269.04 62.995c-.524.3-1.349.45-2.173.45-.225.074-.375 0-.6 0s-.374-.075-.6-.075c-.149-.075-.374-.075-.524-.15-.15 0-.3-.075-.45-.15-.299-.075-.524-.225-.674-.3s-.225-.15-.225-.15.15 0 .3.075.375.075.675.15c.524.15 1.349.225 2.098.225.375 0 .75-.075 1.124-.075.375-.075.674-.075.974-.15.6-.075.974-.224.974-.224s-.3.224-.899.374M270.764 57.377c-.15-.225-.45-.524-.825-.824s-.899-.524-1.498-.674c-.3-.075-.6-.075-.9-.075-.3.075-.674.075-.974.15-1.349.3-2.623.749-3.597.974s-1.649.3-1.649.3.6-.15 1.574-.525c.974-.374 2.248-.899 3.597-1.198.3-.075.675-.15 1.05-.15.374 0 .749.075 1.049.15.674.15 1.199.524 1.573.898.375.3.6.75.75.974l.224.45s-.074-.15-.374-.45"/><path fill="#7cbf2e" d="M73.975 184.566c-.9 1.198-2.548 4.344-2.623 5.693 0 1.348 1.35 1.423.974 3.295-.374 1.798-2.023 2.023-2.997 1.199s-.9-1.124-.9-1.798c0 0-.674.225-1.423-.15-.974-.45-1.124-1.423-.75-2.247s.15-1.273.15-1.273-1.274.374-2.023-.375c-1.05-.973-.75-2.022.45-3.146 1.124-1.123 1.274-2.621 1.199-5.018-.075-1.723 2.922-3.221 5.32-6.817 2.623-3.895 4.871-2.172 6.67.15 3.372 4.12-.675 6.292-4.047 10.487"/><path fill="#519b3d" d="M68.73 192.805c.15-.15.449-.3.674-.599.15-.15.225-.3.3-.524 0-.15.074-.375.074-.6s0-.449-.074-.674c0-.224-.075-.45-.15-.749-.075-.524 0-1.048.075-1.573.075-.45.3-.899.45-1.273.15-.375.374-.674.524-.824l.225-.225s-.075.075-.15.3c-.15.15-.225.45-.375.824s-.225.824-.3 1.273c0 .45-.075.974 0 1.423 0 .225.075.45.15.75s.075.524.075.823c-.075.525-.3.974-.6 1.274-.15.15-.3.225-.449.3s-.3.15-.375.15c-.225.074-.374.074-.374.074s.15 0 .3-.15M66.706 189.21c.225-.075.375-.225.6-.45.45-.374.749-1.123.824-1.872.075-.824.15-1.648.3-2.247.075-.3.224-.525.3-.674a1 1 0 0 1 .15-.225s-.15.374-.15.974c-.076.599-.076 1.423-.15 2.247-.075.15-.075.374-.15.599s-.15.45-.225.6c-.225.374-.45.673-.75.823-.524.375-.974.375-.974.375s.075-.075.225-.15"/><path fill="#a1af93" d="M64.683 188.311c.374-.6.824-1.124 1.274-.225.674 1.498-2.548 1.573-2.548 1.573.824-.374.899-.599 1.274-1.348M66.781 192.206c.3-.674.674-1.273 1.274-.45.974 1.274-2.248 1.948-2.248 1.948.674-.524.75-.824.974-1.498M69.254 194.828c0-.75.225-1.423 1.05-.824 1.273.974-1.5 2.621-1.5 2.621.525-.749.45-1.048.45-1.797"/><path fill="#7cbf2e" d="M145.242 116.552c3.747 13.483-7.869 36.704-18.51 37.527-16.187 1.274-26.154 3.746-31.4 4.27-5.095.6-6.444 2.397-16.56 20.599-2.549 4.57-11.242 9.663-8.02-.899.6-2.097 5.471-18.127 9.293-22.696 7.12-8.464 11.091-6.142 15.138-7.79 5.095-2.023 11.465-7.34 9.442-19.625-3.747-23.22 31.474-44.719 40.617-11.386"/><path fill="#89ce30" d="M115.94 108.013c.975-5.019 9.443-5.318 14.614-3.67 5.17 1.722 2.098 6.067-1.799 8.838-3.897 2.772-13.714 0-12.814-5.168M119.912 116.777c4.272.3 8.169 4.494 3.897 4.569-6.744.15-8.093-4.944-3.897-4.57M132.877 116.178c3.147-.15 1.648 3.22-.6 3.82-2.173.674-3.147-3.67.6-3.82"/><path fill="#519b3d" d="M143.518 134.904c-.45 1.123-1.05 2.771-1.948 4.719-.9 1.947-1.949 4.12-3.448 6.367a34 34 0 0 1-2.472 3.296 16.4 16.4 0 0 1-3.148 2.846c-1.199.824-2.548 1.348-3.897 1.723-1.349.374-2.698.524-4.046.674-1.35.15-2.623.225-3.822.3-1.2.074-2.323.224-3.373.3-2.098.224-3.896.449-5.095.598-1.274.225-1.949.3-1.949.3s.675-.15 1.874-.375a73 73 0 0 1 5.096-.749c2.098-.3 4.57-.524 7.194-.749 1.274-.15 2.623-.3 3.971-.674a13.1 13.1 0 0 0 3.747-1.723 15 15 0 0 0 3.073-2.696c.9-1.049 1.723-2.098 2.473-3.221a46.5 46.5 0 0 0 3.597-6.217c1.873-3.745 2.848-6.442 2.848-6.442s-.15.674-.675 1.723M102.976 141.346c.225-.45.525-1.049.75-1.798.3-.75.45-1.648.674-2.622.075-.45.15-.974.225-1.498s.15-1.049.15-1.573c.075-.524.075-1.049.075-1.573v-2.996c0-.45-.075-.899-.075-1.273-.075-.824-.15-1.499-.15-1.948-.075-.45-.075-.749-.075-.749s.075.3.15.749c.075.45.225 1.124.3 1.948.075.374.075.824.15 1.273 0 .45.074.899.074 1.423v1.573c0 .6 0 1.124-.074 1.648 0 .524-.075 1.049-.15 1.573s-.225 1.049-.3 1.573-.225.974-.375 1.423c-.15.375-.3.824-.45 1.199-.3.749-.599 1.348-.899 1.723-.225.374-.45.599-.45.599zM97.281 158.124q-.9.113-2.473.45c-.525.15-1.124.3-1.649.45-.3.149-.6.224-.824.374-.225.075-.525.3-.75.524-1.049.824-1.948 1.873-2.772 2.996-.9 1.124-1.649 2.247-2.398 3.371a40 40 0 0 0-1.949 2.996l-1.873 2.996s.15-.3.45-.824.674-1.348 1.199-2.247c.45-.899 1.124-1.947 1.798-3.07.675-1.124 1.499-2.323 2.323-3.446.825-1.124 1.799-2.173 2.848-2.997.3-.224.525-.45.824-.599.3-.225.6-.3.9-.374.524-.225 1.124-.3 1.648-.375 1.05-.15 1.949-.15 2.548-.225.6-.075.974-.075.974-.075s-.3.075-.824.075"/><path fill="#b4d189" d="M116.765 6.292c46.837-11.386 60.925 17.303 60.925 17.303-18.96 25.318 1.274 71.235 1.274 71.235-24.505-27.116-67.22.374-67.22.374 1.274-32.733-28.177-18.052-28.177-18.052 9.068-31.91-13.489-30.86-20.458-27.64 0 0 31.624-37.827 53.656-43.22"/><path fill="#7cbf2e" d="M181.287 100.223c-3.372-11.31-12.065-15.88-15.962-32.659-3.522-15.056 4.796-35.055 4.796-35.055s-13.114 3.22-27.277 10.861c-14.763 7.94-32.449 56.254-32.449 56.254s4.721-24.794 13.864-46.067c9.142-21.273 46.237-28.539 46.237-28.539s-29.9-4.869-43.165.525C114.067 30.936 81.47 81.272 81.47 81.272c14.763-36.329 31.924-53.632 42.49-62.546 10.566-8.913 47.286-.749 47.286-.749-3.222-7.415-32.223-11.535-49.609-9.438-17.31 2.172-62.948 45.542-62.948 45.542s37.694-48.238 60.85-51.834c29.376-4.57 60.475 9.139 60.475 9.139.824-7.94-8.468-9.214-8.468-9.214 7.569-1.348 13.789 5.244 16.037 14.082 2.248 8.84-12.215 27.041-14.313 42.546C171.17 74.23 195.6 97.526 195.6 97.526c1.35 6.142-12.29 10.187-14.313 2.697"/><path fill="#519b3d" d="M191.404 93.332c-1.274-1.349-3.073-3.221-5.096-5.693s-4.346-5.393-6.52-8.69c-2.173-3.37-4.346-7.04-5.695-11.085-.674-2.023-1.124-4.195-1.124-6.292.075-2.097.45-4.12.9-6.067.898-3.895 2.172-7.416 3.371-10.337 1.2-2.922 2.398-5.319 3.223-6.966s1.349-2.547 1.349-2.547-2.024 3.745-4.347 9.662c-1.124 2.922-2.323 6.442-3.222 10.262-.45 1.948-.75 3.97-.824 5.993 0 2.097.45 4.12 1.124 6.142 1.274 3.97 3.372 7.715 5.545 11.011a96 96 0 0 0 6.37 8.764c3.972 4.944 6.97 7.94 6.97 7.94s-.75-.75-2.024-2.097M171.47 25.018c-1.049.225-2.473.6-4.196 1.049-1.724.45-3.747 1.049-5.846 1.723-2.098.674-4.346 1.423-6.594 2.322-2.248.824-4.422 1.798-6.445 2.696-2.023.974-3.897 1.873-5.47 2.697-1.574.899-2.923 1.573-3.822 2.097-.9.525-1.424.824-1.424.824l1.349-.899c.824-.599 2.098-1.348 3.672-2.247a180 180 0 0 1 5.47-2.771c2.024-.974 4.197-1.873 6.445-2.772a140 140 0 0 1 6.67-2.247c2.173-.6 4.196-1.123 5.92-1.573 1.723-.45 3.147-.674 4.196-.899.974-.224 1.574-.3 1.574-.374zM171.92 18.277c-1.05-.225-2.623-.525-4.497-.9a97 97 0 0 0-6.444-1.048c-2.398-.3-4.871-.599-7.42-.824-1.273-.15-2.472-.224-3.746-.3-1.274-.074-2.473-.074-3.672-.15-1.2-.074-2.323-.074-3.447-.074h-5.696c-.824 0-1.498.075-2.023.075-1.124.075-1.724.075-1.724.075s.6-.075 1.724-.15c.6 0 1.274-.075 2.023-.15.825-.075 1.649-.075 2.623-.15s1.949-.075 3.073-.075 2.248-.074 3.447 0c1.199.075 2.398.075 3.672.15 1.199.15 2.473.15 3.747.3 2.548.225 5.096.524 7.419.899 1.199.224 2.323.45 3.372.599 1.05.225 2.098.375 2.998.6 1.873.374 3.447.748 4.496 1.048s1.648.45 1.648.45-.599-.15-1.573-.375M177.915 10.337a174 174 0 0 0-6.145-2.097c-1.274-.45-2.698-.824-4.197-1.274-1.498-.45-3.072-.824-4.72-1.273-1.65-.375-3.373-.824-5.097-1.199-1.723-.374-3.447-.749-5.245-1.048-.825-.15-1.724-.3-2.623-.45s-1.724-.225-2.623-.374c-.9-.15-1.799-.3-2.623-.375-.824-.15-1.723-.225-2.548-.3l-2.473-.224c-.824-.075-1.648-.075-2.398-.15s-1.499-.075-2.248-.15-1.424-.075-2.098-.075c-1.35 0-2.548-.075-3.672-.075s-2.024.075-2.848.075c-1.574.075-2.473.075-2.473.075s.9-.075 2.473-.15c.824 0 1.724-.075 2.848-.15h5.77c.75 0 1.499.075 2.248.075.825.075 1.574.075 2.398.15l2.473.225c.825.075 1.649.15 2.548.225.9.15 1.724.224 2.623.374.824.15 1.724.225 2.623.375l2.698.45c1.723.299 3.522.748 5.245 1.123 1.799.374 3.447.899 5.096 1.273q2.474.675 4.721 1.348c1.424.45 2.848.9 4.122 1.349 1.274.45 2.398.899 3.447 1.273.974.375 1.874.75 2.623 1.049 1.424.599 2.248.974 2.248.974s-.824-.3-2.173-1.05M179.938 98.125c0-.3-.075-.823-.3-1.348-.224-.524-.45-1.198-.824-1.947-.375-.75-.824-1.498-1.349-2.397a84 84 0 0 0-1.798-2.697c-.675-.899-1.424-1.873-2.174-2.921-1.498-2.023-2.922-4.42-4.121-6.817-1.2-2.396-2.173-4.943-2.998-7.34-.824-2.397-1.349-4.72-1.723-6.742s-.525-3.67-.525-4.868c0-.6.075-1.05.075-1.349.075-.3.075-.45.075-.45v1.799c0 1.123.225 2.846.674 4.793.375 2.023 1.05 4.27 1.874 6.667a60 60 0 0 0 3.072 7.266c1.2 2.397 2.548 4.719 4.047 6.741.75 1.049 1.424 2.023 2.098 2.996.675.974 1.2 1.873 1.724 2.772 1.05 1.798 1.724 3.37 2.023 4.494.225.6.3 1.049.3 1.348v.45s0-.15-.15-.45M170.946 31.385c-.45.899-.975 2.098-1.424 3.296a41 41 0 0 0-1.274 3.37c-.15.45-.3.825-.375 1.124s-.15.45-.15.45 0-.15.075-.45.075-.749.225-1.198c.225-.974.6-2.247 1.05-3.446.524-1.198 1.123-2.397 1.648-3.22.225-.45.524-.75.674-.974.15-.225.3-.3.3-.3s-.3.524-.75 1.348"/><path fill="#519b3d" d="M171.095 17.453c-.15-.15-.3-.375-.524-.6s-.525-.449-.824-.674c-.375-.224-.675-.449-1.05-.674-.374-.224-.824-.45-1.199-.674l-1.348-.674c-.45-.225-.975-.374-1.424-.6-.45-.224-.975-.374-1.424-.598-.525-.225-.974-.375-1.424-.525-.9-.3-1.724-.599-2.473-.824-1.499-.45-2.473-.749-2.473-.749s.225.075.675.15c.374.075 1.049.225 1.798.375.75.224 1.649.449 2.548.749.45.15.974.3 1.424.449s.974.375 1.424.524c.45.225.974.45 1.423.675.45.3.9.524 1.35.749.449.224.824.449 1.198.749.375.224.675.524.975.749s.524.524.749.749l.45.674c.224.45.3.674.3.674s-.076-.3-.15-.674M179.938 8.614c.15.45.225.974.3 1.573 0 .6 0 1.273-.3 1.873-.075.15-.225.3-.3.45-.074.149-.15.224-.224.374-.15.224-.225.524-.3.749-.15.524 0 1.048.15 1.423.225.374.45.674.674.824s.375.15.375.15-.225 0-.45-.075-.6-.3-.824-.75a2.96 2.96 0 0 1-.3-1.647c0-.3.15-.6.3-.9.15-.149.225-.224.3-.374s.15-.224.225-.374c.224-.524.3-1.124.3-1.648s-.076-1.049-.15-1.498c-.15-.899-.3-1.498-.3-1.498s.3.524.524 1.348"/><path fill="#7d9950" d="M158.806 83.669c-.375-.15-.9-.225-1.574-.3a75 75 0 0 0-2.473-.225c-.45-.074-.974-.074-1.499-.074h-3.447c-.6 0-1.274.074-1.949.15-1.348.074-2.772.299-4.196.449-.675.075-1.424.225-2.173.374l-2.248.45c-.75.15-1.5.374-2.249.524l-1.124.3-1.124.3c-1.499.449-3.072.823-4.496 1.348-.75.224-1.424.524-2.173.749-.375.15-.675.224-1.05.374-.374.15-.674.3-1.049.45a210 210 0 0 0-3.896 1.573c-1.2.524-2.398 1.048-3.448 1.573-.524.224-1.049.45-1.498.674l-1.35.674c-.824.45-1.573.824-2.172 1.124-1.274.599-1.949.973-1.949.973s.675-.374 1.874-1.048c.6-.3 1.349-.75 2.173-1.199.45-.225.9-.45 1.349-.749.45-.225.974-.524 1.499-.749 1.124-.524 2.248-1.049 3.447-1.648 1.199-.524 2.548-1.049 3.896-1.648.375-.15.675-.3 1.05-.45.3-.149.674-.224 1.049-.374.75-.224 1.424-.524 2.173-.749 1.424-.599 2.998-.974 4.496-1.423l1.124-.3 1.124-.224c.75-.15 1.5-.375 2.249-.525s1.498-.224 2.248-.374 1.499-.3 2.248-.375c1.499-.15 2.923-.374 4.271-.374.675 0 1.35-.075 1.949-.075h1.873c1.2.075 2.248.15 3.223.225.974.074 1.798.15 2.473.3.674.074 1.199.224 1.573.299.375.075.525.15.525.15s-.15 0-.75-.15"/><path fill="#519b3d" d="M143.593 42.995c-.45.225-1.05.525-1.799 1.05a25 25 0 0 0-2.547 2.022c-.975.898-1.949 1.872-2.923 3.07-2.023 2.398-4.047 5.394-5.995 8.69a159 159 0 0 0-2.923 5.168c-.974 1.798-1.948 3.595-2.847 5.468a359 359 0 0 0-5.321 10.861 415 415 0 0 0-4.421 9.588 447 447 0 0 1-2.998 6.817c-.674 1.647-1.124 2.621-1.124 2.621s.375-.974 1.05-2.621c.674-1.648 1.648-4.045 2.847-6.892.6-1.423 1.274-2.921 1.948-4.569a97 97 0 0 1 2.248-5.093 239 239 0 0 1 5.246-10.937c.45-.973.974-1.872 1.424-2.771.524-.899.974-1.798 1.499-2.697.974-1.797 2.023-3.52 2.997-5.168 1.05-1.723 2.024-3.296 3.073-4.72.974-1.497 2.023-2.77 3.072-3.97 2.098-2.321 4.047-3.969 5.62-4.943a7.5 7.5 0 0 1 1.874-.974l.674-.224z"/><path fill="#7d9950" d="M84.167 55.88c-.15-.3-.375-.675-.6-1.05-.225-.374-.45-.824-.824-1.273-.375-.45-.75-.899-1.2-1.348-.449-.375-.898-.9-1.498-1.274-.524-.45-1.199-.749-1.798-1.123-.3-.225-.675-.3-.975-.45-.374-.075-.674-.3-1.049-.374l-1.049-.3c-.3-.075-.674-.225-1.05-.225-.374-.074-.674-.074-1.048-.15l-.525-.074h-.524c-.75 0-1.35-.075-2.024-.075-.674.075-1.274.075-1.798.15-.3 0-.6.075-.825.075-.3.074-.524.074-.749.15-.45.074-.9.15-1.199.224-.674.075-1.05.15-1.05.15s.376-.075.975-.225c.3-.075.675-.225 1.124-.3.225 0 .45-.074.675-.15.3-.074.524-.074.824-.149q.787-.112 1.798-.225h2.548l.525.075c.375.075.75.075 1.124.15.375 0 .75.15 1.124.225l1.124.3c.375.15.675.299 1.05.449.374.15.749.224 1.048.45.675.374 1.35.748 1.874 1.198.6.45 1.05.973 1.499 1.423.374.45.824.974 1.124 1.423.375.45.6.974.824 1.348.225.375.375.75.525 1.049a7 7 0 0 1 .3.974s-.15-.375-.3-1.049M109.271 80.972c-.225-.3-.45-.749-.75-1.123-.15-.225-.374-.45-.524-.674s-.375-.45-.6-.675c-.224-.224-.524-.449-.749-.674-.3-.224-.524-.45-.824-.674l-.9-.674c-.3-.225-.599-.375-.974-.6-.15-.074-.374-.224-.524-.299s-.3-.15-.525-.225l-1.124-.45c-.374-.074-.824-.224-1.199-.299l-.6-.15c-.15 0-.374-.074-.599-.074-.824-.075-1.648-.225-2.473-.225-.899 0-1.648-.075-2.473.075-.45.075-.824.075-1.199.15-.374.075-.75.075-1.124.15q-1.125.225-2.023.449c-.675.15-1.2.3-1.724.45-.45.15-.899.299-1.274.374-.75.15-1.124.3-1.124.3s.45-.15 1.124-.45c.375-.15.75-.3 1.274-.45.45-.15 1.05-.374 1.649-.524.6-.15 1.274-.374 2.023-.524s1.499-.225 2.323-.3c.75-.075 1.649-.075 2.473-.075.825 0 1.724.15 2.548.225.225 0 .45 0 .675.075l.6.15c.449.15.898.225 1.273.374.45.225.824.375 1.2.525.224.075.374.15.599.224.15.075.374.225.524.3.375.225.75.375 1.05.6l.899.673c.3.225.6.525.824.75.225.299.45.524.674.748.225.225.375.45.6.675l.45.674c.3.45.524.899.674 1.198.3.674.45 1.049.45 1.049s-.15-.375-.6-1.049"/><path fill="#519b3d" d="M132.802 24.194c-.9.225-2.173.525-3.672 1.049-.75.225-1.499.524-2.323.899-.825.374-1.574.974-2.398 1.498-1.574 1.123-3.148 2.472-4.646 3.97-1.424 1.423-2.848 2.996-4.197 4.42a134 134 0 0 0-3.597 3.97l-3.522 3.894s1.274-1.648 3.297-4.045c.974-1.273 2.173-2.621 3.447-4.12 1.274-1.497 2.698-2.996 4.197-4.494s3.072-2.846 4.721-3.97c.824-.524 1.649-1.048 2.473-1.423a19 19 0 0 1 2.398-.899c1.499-.45 2.773-.749 3.672-.899.9-.15 1.424-.224 1.424-.224s-.525.15-1.274.374M60.186 52.733c.975-.899 2.323-2.247 4.047-3.82s3.672-3.446 5.845-5.393c2.173-1.948 4.497-4.045 6.82-6.068q3.596-3.033 6.969-5.842a177 177 0 0 1 6.22-4.944c.9-.674 1.798-1.348 2.548-1.872q1.125-.787 2.023-1.349c1.124-.674 1.799-1.123 1.799-1.123s-.6.45-1.724 1.198c-.525.375-1.199.899-1.948 1.423-.75.525-1.574 1.199-2.473 1.948-1.874 1.423-3.897 3.146-6.145 5.019-2.248 1.872-4.572 3.895-6.895 5.917s-4.646 4.045-6.82 5.992c-2.172 1.948-4.196 3.67-5.92 5.244a745 745 0 0 1-5.77 5.093z"/><path fill="#a1af93" d="M212.986 176.251s-.674-2.322.375-2.097c.6.15.45.6.15.974-.375.374-.525.45-.525 1.123"/><path fill="#7cbf2e" d="M223.028 177.824c-.225 1.498.6 2.697 0 3.895-1.2 2.472-1.949 4.12-1.499 5.993.45 1.798-3.447 3.37-3.897 2.022-.374-1.198.075-1.498.9-2.472 0 0-.975.75-1.799.75-1.05.074-1.574-.825-1.574-1.798s.825-1.798.825-1.798-1.274.3-1.949-.75c-.75-1.272-.225-1.272.825-2.546.824-.974 1.348-2.247 1.049-3.595-.3-1.648.3-2.847-.225-4.27-.3-.824-1.424 2.023-2.098 1.648-.975-.524-1.124-1.348-.45-2.247 1.124-1.573 1.799-2.097 2.848-2.622 1.573-.824 2.697-5.243 4.496-2.921 1.798 2.322 2.998 8.015 2.548 10.711"/><path fill="#519b3d" d="M217.557 188.086c.225-.075.525-.224.75-.524.3-.3.45-.674.524-1.124.075-.224.075-.449.075-.674v-.824a4.72 4.72 0 0 1 1.124-2.771c.225-.3.525-.525.675-.674s.3-.225.3-.225-.075.15-.225.3-.3.449-.525.749c-.375.674-.824 1.648-.9 2.621v.75c0 .299 0 .599-.074.823-.075.225-.15.45-.3.674s-.3.375-.45.525c-.3.225-.674.3-.899.374h-.374s.15-.075.3 0M216.733 183.892c.45-.375.974-1.049 1.2-1.798.224-.824.449-1.648.748-2.247q.225-.45.45-.674l.225-.225s-.225.374-.375.974c-.075.3-.15.674-.225 1.048-.075.225-.075.375-.15.6a5 5 0 0 0-.224.599c-.15.374-.375.824-.675 1.123s-.6.6-.899.75c-.6.3-1.05.374-1.05.374s.45-.15.975-.524"/><path fill="#a1af93" d="M214.26 182.618c.525-.599 1.124-.974 1.349 0 .375 1.648-2.848 1.049-2.848 1.049.9-.225 1.05-.45 1.5-1.049M215.684 186.813c.375-.674.9-1.124 1.274-.225.6 1.498-2.623 1.498-2.623 1.498.824-.374.9-.674 1.349-1.273M217.482 189.884c.15-.674.525-1.348 1.2-.6 1.124 1.2-1.949 2.248-1.949 2.248.674-.6.6-.899.75-1.648"/><path fill="#7cbf2e" d="M210.513 130.484c2.773 8.24-1.499 22.172-12.59 30.861-3.746 2.922-3.297 4.345-3.297 4.345s4.197-.225 11.39 1.123c5.546 1.049 11.017-1.198 13.49-.374 2.548.824 4.421 7.415-12.29 8.839-29.226 2.546-33.723-6.292-27.503-14.607 6.82-9.138 2.398-15.955 3.672-26.067 1.35-10.112 22.482-18.127 27.128-4.12"/><path fill="#519b3d" d="M180.837 159.023c.15-.15.3-.45.45-.749.15-.3.3-.674.525-1.049.15-.374.374-.823.524-1.273s.3-.899.45-1.423.225-1.049.375-1.573c.075-.524.15-1.049.224-1.648 0-.524.15-1.124.15-1.648 0-.6.075-1.123.075-1.648v-1.573c0-.45-.075-.899-.075-1.348a41 41 0 0 0-.225-2.023c-.074-.449-.074-.749-.074-.749s.074.225.15.75c0 .224.074.524.15.898.074.3.074.674.15 1.124 0 .374.074.824.149 1.348 0 .524.075 1.049.075 1.573.075.525 0 1.049 0 1.648 0 .6-.075 1.124-.15 1.723-.075.6-.225 1.198-.3 1.723-.15.599-.3 1.123-.45 1.648s-.3 1.048-.524 1.498-.375.899-.6 1.273a9.8 9.8 0 0 1-1.123 1.723c-.3.374-.525.6-.525.6s.225-.226.6-.825M217.108 166.289c-.375.15-.9.225-1.424.3-.3.074-.6.074-.9.15-.3 0-.599.074-.974.074-.674.075-1.423.075-2.248.15-.75 0-1.573.075-2.473 0-1.723-.075-3.597-.225-5.395-.374-1.874-.15-3.672-.375-5.396-.525-1.648-.15-3.297-.3-4.646-.374-.674 0-1.349-.075-1.874-.075-.524-.075-1.049-.075-1.423-.075-.825-.075-1.274-.075-1.274-.075s.45-.075 1.274-.075h3.297q2.136 0 4.721.225c1.724.15 3.597.374 5.396.524q2.81.338 5.395.45c.825.074 1.724.074 2.473.074.825 0 1.574 0 2.248-.074.675 0 1.35-.075 1.874-.15.524 0 1.049-.075 1.424-.15.824-.15 1.274-.225 1.274-.225s-.45.15-1.35.225M200.921 175.652c-1.499.075-3.222.075-5.096.075-1.873 0-3.897 0-5.845-.225-1.948-.224-3.897-.599-5.695-1.198-1.799-.6-3.373-1.348-4.572-2.322-.6-.525-1.049-.974-1.423-1.498-.375-.45-.6-.974-.75-1.349-.15-.374-.225-.749-.225-.973v-.375s0 .524.375 1.273c.375.75 1.124 1.798 2.323 2.622a16.7 16.7 0 0 0 4.496 2.172c.825.3 1.724.525 2.698.75s1.949.374 2.923.524c.974.224 1.948.224 2.922.3.975 0 1.949.074 2.848.074a124 124 0 0 0 5.096.075c2.997-.075 4.946-.075 4.946-.075s-1.949.15-5.021.15M209.764 143.443c.225-.75.374-1.573.6-2.472.224-.899.374-1.873.524-2.846.075-.45.15-.974.15-1.423.075-.525.075-.974.075-1.424v-1.348c.075-.45-.075-.824-.075-1.198-.075-.375-.15-.675-.225-.974 0-.075-.075-.225-.075-.375-.075-.075-.075-.224-.15-.3-.15-.374-.225-.599-.225-.599s.075.225.3.6c0 .075.075.15.15.3.075.074.075.224.15.374.075.3.225.599.3.974.074.374.224.749.224 1.198 0 .45.075.899.075 1.348s0 .9-.075 1.424c0 .524-.075.973-.15 1.498-.074.973-.3 1.947-.524 2.846-.15.899-.45 1.798-.675 2.472-.45 1.423-.899 2.322-.899 2.322s.3-.974.525-2.397"/></g></svg>