<svg xmlns="http://www.w3.org/2000/svg" xml:space="preserve" width="137.644" height="138.419" viewBox="18.856 10.5 137.644 138.419"><title>wizard-toad-b</title><g fill-rule="nonzero"><circle cx="9.668" cy="9.336" r="7.9" fill="#a3b339" transform="rotate(79.74 44.07 107.742)scale(-1 1)"/><path fill="#687a27" d="M137.7 32.7s-.2-.3-.5-.8-.8-1.2-1.6-1.8c-.4-.3-.9-.6-1.4-.9-.6-.2-1.2-.4-1.8-.5-.7-.1-1.3-.1-2 0s-1.3.2-2 .5c-.3.1-.6.2-.9.4s-.7.4-1 .6-.6.4-.8.7-.5.5-.7.7c-.8 1-1.3 2.2-1.5 3.2s-.2 1.8-.2 2.4.1.9.1.9.1-.3.2-.9c.1-.5.4-1.3.8-2.1.2-.4.4-.9.7-1.3s.6-.8 1-1.2l.6-.6c.2-.2.5-.3.7-.5l.7-.4.9-.3c.5-.2 1.1-.3 1.7-.4s1.1-.1 1.7-.1c.5 0 1.1.1 1.6.2s.9.3 1.3.5c.8.4 1.4.9 1.9 1.2.2.3.5.5.5.5"/><path fill="#6d4b9b" d="M126.7 35.4S111.2 19.7 95 11c0 0 5.3 31.7 7.8 36.8 0 0 7.7-11 23.9-12.4"/><path fill="#4a3369" d="M102.8 47.8s-.3-2.2-.9-5.5c-.3-1.7-.6-3.6-1.1-5.6-.2-1-.4-2.1-.6-3.2s-.5-2.2-.7-3.3-.5-2.2-.7-3.3-.5-2.1-.7-3.1c-.5-2-.9-3.9-1.3-5.6-.4-1.6-.8-3-1-3.9-.3-.9-.4-1.5-.4-1.5s.1 2.3.5 5.6q.3 2.55.9 5.7c.3 2.1.8 4.3 1.3 6.5s1 4.4 1.5 6.4 1 3.9 1.5 5.5c.9 3.2 1.7 5.3 1.7 5.3"/><path fill="#e0c448" d="M113.1 28.8c-.1 1.4-2.6 5.4-2.6 5.4-1.2-1.2-1.5-5.1-1.5-5.1-1.7 1-7-.5-7-.5 1.3-1.6 5.7-3.7 5.7-3.7-.9-.9-.9-5.7-.9-5.7 1.3.8 4.7 3.2 4.7 3.2.1-.1.1-.2.2-.3 1.3 1 2.5 2 3.6 2.9-.1.3-.2.4-.2.4 1.4.9 3.7 3.9 3.7 3.9-3.6.1-5.7-.5-5.7-.5"/><path fill="#4a3369" d="M126.7 35.4s-1.6-1.9-4.3-4.6c-1.3-1.3-2.9-2.9-4.7-4.4L115 24c-1-.8-1.9-1.6-2.9-2.4-2-1.6-4-3.1-5.9-4.5-1-.7-1.9-1.3-2.8-1.9s-1.8-1.1-2.6-1.6-1.6-.9-2.3-1.2-1.3-.6-1.8-.8c-1.1-.4-1.7-.6-1.7-.6l1.5.9c.5.3 1 .7 1.7 1.1q.9.6 2.1 1.5c1.5 1.1 3.3 2.4 5.1 3.8.9.7 1.9 1.5 2.8 2.2 1 .8 1.9 1.6 2.9 2.3 2 1.6 3.9 3.2 5.7 4.6 1.8 1.5 3.5 2.9 5 4.1 2.9 2.4 4.9 3.9 4.9 3.9M85.1 79.9c8.3 8.9 35.6 18.5 35.6 18.5 2.6-3.4 7.3-21 7.3-21 .2.1 5.3-6.7 5.3-6.7s-24-22.5-39.7-19.6c0 0-1.1 7.3 2.6 9.9z"/><g fill="#a3b339"><path d="M44.5 101.5c-4-6.5-14.2 1.5-17.9 8-3.7 6.4 4.2 9.1 8.7 4.7 4.5-4.5 13-6.7 9.2-12.7"/><path d="M35.3 114.1c-2.5 1.5-5.3 4.3-4 6s3.4 6.3 1.4 6.2c-2-.2-4.2-7.5-4.2-7.5s1.5 8.7-.5 8.6c-2-.2-1.7-9.8-1.7-9.8s-1.1 7.7-2.4 6.3 1.6-8 .5-9.1-4.3 4.6-5 1.9 7.1-10.2 8.9-10.7"/></g><path fill="#a3b339" d="M67.6 104.8c-2 6.4-14.1 8.5-27.5 2.8-11-4.7-5.9-10.3 4.7-10 10.7.2 24.4 2 22.8 7.2"/><path fill="#a3b339" d="M79.6 94.7c-4.6 10.6-21.3 22.5-26.9 12.9-5.4-9 6.6-34.6 13.1-36.5s20.9 7 13.8 23.6"/><path fill="#687a27" d="M82.1 90.6c0 .2-.1.3-.1.5-.2.3-.4.8-.8 1.3-.7 1.1-1.9 2.7-3.3 4.5s-3.2 3.8-5.3 5.8c-1 1-2.1 2-3.3 2.9s-2.4 1.8-3.7 2.5-2.6 1.3-4 1.6c-.7.2-1.3.2-2.1.2h-6.3c-1.3 0-2.5-.1-3.7-.2-1.1-.1-2.2-.2-3.1-.3s-1.7-.3-2.4-.4c-.6-.2-1.2-.3-1.5-.4s-.5-.2-.5-.2.6.5 1.9 1c.6.3 1.4.5 2.3.8.9.2 2 .5 3.1.7 2.3.4 5 .6 7.9.7h2.2c.8 0 1.6-.1 2.4-.2 1.6-.4 3.1-1 4.4-1.8 1.4-.8 2.6-1.8 3.8-2.8s2.3-2.1 3.3-3.1c2-2.1 3.7-4.3 5-6.2s2.3-3.6 2.9-4.8c.3-.6.5-1.1.6-1.4.1-.2.1-.3.1-.4zM51.4 97.9s-.5-.1-1.4-.3-2.2-.4-3.8-.5-3.4-.2-5.5 0c-2 .2-4.2.7-6.1 1.9-.5.3-.9.7-1.3 1-.4.4-.8.7-1.1 1.1-.8.7-1.5 1.4-2.2 2.1-1.4 1.3-2.7 2.6-3.9 3.7-1.1 1.1-2 2.1-2.6 2.7-.3.3-.6.6-.7.8l-.2.2v-.1s-.1 0 0 .1c.1 0 .2-.1.3-.1q.3-.15.9-.6c.8-.5 1.9-1.3 3.1-2.2 1.2-1 2.7-2.1 4.1-3.5.7-.7 1.5-1.3 2.2-2.1l1.1-1.1c.4-.4.7-.7 1.1-.9 1.6-1.1 3.6-1.7 5.5-2s3.7-.4 5.3-.5c3.1.1 5.2.3 5.2.3M24.4 114.7s0 .2-.1.4-.2.6-.3 1-.3.9-.5 1.4-.3 1.1-.5 1.7c-.3 1.2-.3 2.4-.1 3.4.1.5.3.9.5 1.1s.4.2.4.2l-.1-.1c0-.1-.1-.2-.1-.3 0-.2 0-.6.1-1 .2-.8.5-1.9.7-3 .1-.6.2-1.1.3-1.7s.1-1.1 0-1.6c0-.5-.1-.9-.3-1.1.1-.2 0-.4 0-.4M26.2 117.6s-.3.6-.5 1.6c-.1.5-.2 1.1-.3 1.7v1.9c.1.7.2 1.3.4 1.9s.4 1.2.8 1.6c.1.2.3.4.5.6.2.1.3.3.4.3.3.1.4.2.4.2l-.2-.4c-.1-.1-.1-.3-.2-.5s-.1-.4-.2-.6-.1-.5-.1-.7c-.1-.2-.1-.5-.1-.8-.1-.6-.1-1.2-.2-1.8-.1-1.2-.2-2.5-.4-3.5-.1-.9-.3-1.5-.3-1.5M32.6 126.4l-.3-.3c-.1-.2-.3-.5-.4-.8-.3-.7-.6-1.7-1.1-2.7-.4-1-.9-1.9-1.4-2.6-.4-.7-.9-1.2-.9-1.2s-.1.6 0 1.4.3 1.9.8 3c.2.5.5 1 .8 1.5.3.4.6.8 1 1.1.3.3.7.5 1 .6s.5 0 .5 0M42.4 108.9s-1 .3-2.2 1c-.7.3-1.4.8-2.2 1.3s-1.6 1.1-2.3 1.7c-.4.3-.8.6-1.1.9-.4.3-.7.7-1 1-.7.7-1.2 1.3-1.7 1.9-.4.6-.7 1.2-.8 1.7 0 .2 0 .4.1.5l.1.1v-.2c0-.1 0-.3.1-.4.2-.3.7-.7 1.2-1.2 1.1-.9 2.6-2.1 4.2-3.3.7-.6 1.5-1.2 2.2-1.8s1.3-1.2 1.9-1.7c.8-.7 1.5-1.5 1.5-1.5"/><path fill="#a3b339" d="M141.4 80.9c1.7-1.3 9.8-1.7 11.7-2.2 1.9-.6 5.4.9-1.1 1.9 0 0 4.9 1.8 3.3 2.7s-4.3-.5-4.3-.5 3.4 5 1.9 5.3-3.9-3-3.9-3 2.1 4.3.4 4.1c-.8-.1-1.6-3.3-5-2.7"/><path fill="#a3b339" d="M114.8 76.3c.3 7.6 3.7 13.6 9.2 15.3 5.6 1.7 16-2.8 20.3-4.2 5-1.7 5.6-6.8 1.1-7.1s-14.6 1.3-16.9-1.2-2.6-3.7-3.8-7.5c-1.3-3.9-10.2-3.1-9.9 4.7"/><path fill="#687a27" d="M148.5 88.6s-.1-.1-.2-.4-.3-.7-.7-1.1c-.2-.2-.4-.5-.8-.6-.3-.2-.8-.3-1.3-.2-.4.1-.9.3-1.2.5s-.7.3-1.2.5c-1.7.6-3.8 1.3-6 1.9-1.1.3-2.3.6-3.4.9-1.2.3-2.4.5-3.6.7q-1.8.3-3.6.3c-.6 0-1.2 0-1.7-.1-.3 0-.5-.1-.8-.2s-.6-.2-.8-.3c-1-.4-1.9-.9-2.7-1.6-.8-.6-1.5-1.3-2.1-2-1.2-1.4-1.9-2.8-2.3-3.8s-.6-1.6-.6-1.6 0 .2.1.4q0 .45.3 1.2c.3 1.1.8 2.6 1.9 4.2.5.8 1.2 1.6 2 2.4s1.8 1.4 3 2c.3.1.5.2.8.3s.6.2 1 .3c.6.1 1.3.2 1.9.2 1.3 0 2.6-.1 3.8-.3 1.3-.2 2.5-.5 3.7-.8s2.4-.6 3.5-1c2.2-.7 4.3-1.5 6-2.3.4-.2.9-.4 1.3-.6s.7-.4.9-.5c.6-.2 1.1 0 1.5.3.5.4.8.7 1 1zM144 80h-3.8c-1.1 0-2.5 0-3.9-.1s-2.9-.2-4.3-.4c-.7-.1-1.4-.3-2-.5-.6-.3-1.1-.6-1.6-1.1-.4-.4-.8-1-1.2-1.5s-.6-1-.9-1.5l-1.2-2.4c-.3-.6-.4-1-.4-1s.1 1.6.8 3.8c.2.6.4 1.2.7 1.8s.6 1.2 1.2 1.9c.1.2.3.3.4.4l.2.1c.1.1.2.2.3.2.3.3.7.5 1.1.6.8.3 1.6.5 2.3.7 1.6.3 3.1.3 4.6.2.7 0 1.4-.1 2.1-.2q1.05-.15 1.8-.3c2.4-.2 3.8-.7 3.8-.7M155.8 79.1s0 .1-.1.2-.2.1-.4.1c-.3 0-.8 0-1.3.2-.5.1-1 .3-1.4.6-.4.1-.6.4-.6.4s.3.3.7.4 1 .2 1.6 0c.3-.1.6-.2.8-.4.3-.2.5-.4.6-.7.3-.1.3-.4.3-.6-.1-.2-.2-.2-.2-.2M155.2 83.3s-.3-.2-.8-.3c-.4-.1-.9-.2-1.4-.3h-1.4c-.2 0-.4 0-.6.1h-.2s0 .1.1.2.2.3.3.5c.2.2.4.4.7.5l.9.3c.6.1 1.3-.1 1.7-.4.5-.3.7-.6.7-.6M152.8 88.2l-.2-.2c-.1-.1-.2-.3-.4-.4l-1.1-1.1c-.2-.2-.4-.4-.7-.5-.2-.2-.5-.3-.7-.4-.3-.4-.7-.5-.7-.5s0 .4.1.9.5 1.1 1 1.6l.9.6c.3.1.6.2.9.2s.5 0 .7-.1z"/><path fill="#a3b339" d="M147.8 47.7c-.8-4.2-8.6-13.4-20-11.8s-21.1 3.7-25.9 13C97 58.4 73.6 65.7 64.2 71.7s-15 28.2-8.3 38.2c6.6 10 48.7 7.1 60.1-15.2s11.2-21.7 17.3-25.9c12.8-9 15.1-17.7 14.5-21.1"/><path fill="#687a27" d="M143.1 40.6s-.1-.1-.4-.3c-.2-.2-.6-.5-1.1-.9s-1.1-.8-1.8-1.3-1.6-.9-2.5-1.3c-1-.4-2-.8-3.2-1.1s-2.5-.5-3.8-.6-2.7-.1-4.1.1c-1.4.1-2.8.5-4.1.7-2.7.6-5.4 1.2-7.9 1.9-1.3.4-2.5.8-3.6 1.3s-2.1 1.1-3 1.7c-.4.3-.8.6-1.2 1l-1 1c-.3.3-.5.6-.8.9-.2.3-.4.6-.6.8-.4.5-.5.9-.7 1.2s-.2.4-.2.4.1-.1.3-.4c.2-.2.5-.6.9-1.1.2-.2.4-.5.7-.7s.5-.5.8-.8c.6-.5 1.4-1.1 2.2-1.6.9-.5 1.8-1 2.9-1.4s2.2-.8 3.5-1.1c1.2-.3 2.5-.6 3.8-.9s2.7-.6 4-.9c1.4-.3 2.6-.6 4-.8 1.3-.2 2.6-.3 3.8-.3s2.5.1 3.6.3c1.4.6 2.4.9 3.4 1.2s1.8.7 2.6 1 1.4.7 1.9 1c1 .6 1.6 1 1.6 1M147.6 52.4s-1.9.5-4.7 1.7c-1.4.6-3 1.3-4.6 2.1-.8.4-1.7.9-2.5 1.4-.9.5-1.7 1-2.6 1.5-.8.5-1.7 1.1-2.5 1.6s-1.6 1.1-2.4 1.6-1.5 1-2.3 1.3c-.7.4-1.4.8-2.1 1.1-1.3.6-2.5 1-3.3 1.2s-1.3.2-1.3.2.5.1 1.4 0 2.1-.3 3.6-.7c1.4-.5 3.1-1.2 4.7-2.1.9-.4 1.6-1 2.5-1.5.8-.5 1.7-1 2.5-1.5 3.4-2 6.8-4 9.4-5.5 2.5-1.3 4.2-2.4 4.2-2.4M136.8 47.2V47c0-.1 0-.3-.1-.5s-.3-.4-.5-.6-.5-.3-.8-.4q-.45-.15-.9 0c-.2 0-.3.1-.5.2-.1.1-.2.3-.2.5s.1.3.1.4.1.1.2.2.2.1.2.1v-.2c0-.1 0-.3.1-.3h.5c.1 0 .2 0 .3.1.2 0 .4.1.6.2s.3.1.5.2c.1.1.3.1.5.3M144.9 57.6s-.2.3-.6.8-1.1 1.2-1.9 2c-.9.9-1.9 1.9-3.2 3s-2.7 2.4-4.3 3.6c-1.7 1.1-3.7 2.3-5.5 3.9-1.9 1.6-3.5 3.6-4.9 5.9-1.4 2.2-2.7 4.7-3.8 7.2s-2.3 5-3.6 7.4-2.8 4.7-4.5 6.8-3.5 4-5.5 5.7c-3.9 3.3-8.2 5.6-12 7.1-1.9.7-3.7 1.4-5.3 1.8-1.6.5-3 .8-4.2 1.1s-2.1.5-2.8.6c-.6.1-1 .2-1 .2s.3 0 1-.1c.6-.1 1.6-.2 2.8-.4s2.7-.4 4.3-.8c1.7-.3 3.5-.9 5.5-1.6 4-1.4 8.5-3.5 12.6-6.9 2-1.7 4-3.6 5.8-5.8 1.7-2.2 3.3-4.5 4.7-7s2.5-5 3.6-7.5 2.3-4.9 3.6-7.1c.7-1.1 1.4-2.1 2.1-3.1.8-1 1.6-1.8 2.4-2.6 1.7-1.6 3.6-2.8 5.3-4.1s3-2.7 4.2-3.9 2.2-2.3 3-3.2 1.4-1.7 1.8-2.2c.2-.5.4-.8.4-.8"/><path fill="#a3b339" d="M129.2 101.2c4.4-1.4 8.6-.9 10.3-2.2s-4.6-.7-4.6-.7 8.1-5.3 7.7-7.2c-.4-2-5.1 2.9-7.1 3.3 0 0 5.3-4.3 3.1-4.9-1.3-.4-2.5 3.1-5.3 4.4 0 0 2.1-3.1.1-3-1.2.1-1.4 3.6-4.5 3.7"/><path fill="#a3b339" d="M101.3 86.5c-.7 7.6 1.9 14 7.2 16.3s16.2-.7 20.7-1.6c5.2-1.1 6.4-6.1 1.9-6.9s-14.6-.5-16.6-3.3-2.1-4-2.9-7.9-9.6-4.3-10.3 3.4"/><path fill="#687a27" d="M137.3 99.8h-1.9c-1.2.1-2.9.2-4.9.5-.5.1-1 .2-1.6.3-.5.1-1 .2-1.6.4-1.1.2-2.3.4-3.5.7-1.2.2-2.5.4-3.8.6s-2.6.3-3.9.4-2.6.1-3.9.1c-1.2-.1-2.5-.3-3.5-.6-.3-.1-.6-.3-.8-.4s-.5-.3-.7-.4c-.5-.3-.9-.6-1.3-1-.8-.7-1.5-1.5-2-2.3-1.1-1.6-1.7-3.2-2-4.3-.2-.6-.3-1-.3-1.3-.1-.3-.1-.5-.1-.5v.5c0 .3 0 .8.1 1.4.2 1.2.6 2.9 1.5 4.7.5.9 1.1 1.9 2 2.7.4.4.9.8 1.4 1.2.3.2.6.4.8.6.3.1.5.3.8.4 1.3.6 2.7.8 4 .9 1.4.1 2.7.1 4.1 0s2.7-.3 4-.5 2.6-.5 3.8-.7c1.2-.3 2.4-.6 3.5-.9.5-.2 1.1-.3 1.6-.5s1-.3 1.5-.4c1.9-.5 3.6-.9 4.7-1.1 1.4-.4 2-.5 2-.5M128.9 93.7s-1.5-.2-3.6-.5c-1.1-.1-2.3-.3-3.7-.5-1.3-.2-2.7-.5-4-1-.6-.2-1.3-.5-1.8-.8-.3-.2-.5-.4-.7-.5l-.4-.4-.3-.4c-.3-.5-.7-1.1-.9-1.6-.3-.5-.5-1.1-.7-1.6-.4-1-.7-1.9-.9-2.5s-.3-1-.3-1-.1 1.5.3 3.7c.1.6.2 1.2.5 1.8.2.6.5 1.3.9 1.9l.3.5.4.5c.3.4.6.6.9.9.7.5 1.4.8 2.1 1.1 1.5.5 3 .8 4.4.9s2.7.1 3.8.1c2.3-.2 3.7-.6 3.7-.6M135 98.3s.7-.1 1.7-.5 2.1-1.1 3.2-2c.5-.4 1-.9 1.5-1.4.4-.5.8-1 1-1.5.1-.3.2-.5.3-.7s.1-.4.1-.6v-.5s-.1.2-.3.4l-.4.4c-.1.1-.3.3-.5.4-.2.2-.4.3-.6.5s-.4.4-.7.5l-1.5 1.2c-1 .8-2 1.7-2.7 2.4-.7.8-1.1 1.4-1.1 1.4M138.7 89.5s.1.1.1.2v.2c0 .1-.1.2-.2.2l-.3.3-.3.3-.8.8-.4.4c-.1.1-.2.3-.4.4l-.6.9c-.3.5-.5 1-.5 1s.5-.1 1.1-.3c.3-.1.6-.3 1-.5.3-.2.6-.5.9-.8s.5-.7.7-1.1c.1-.2.2-.4.2-.6.1-.2.1-.4.1-.6s-.1-.4-.2-.6-.2-.3-.4-.2c.1 0 0 0 0 0M133.5 90.9l.2.2c.1.1.2.2.2.4 0 .1 0 .1-.1.1 0 0-.1 0-.1.1s0 .1-.1.2l-.1.2c-.1.3-.2.8-.2 1.2s.1.7.1.7.4-.1.7-.3c.4-.2.8-.6.9-1.2 0-.1.1-.3.1-.5v-.5c-.1-.2-.1-.4-.3-.5-.1-.2-.3-.3-.5-.3-.3-.1-.5 0-.6.1-.2 0-.2.1-.2.1"/><g fill="#a3b339"><path d="M43.3 118.1c-5.9-4.9-14.1 6-16.1 13.4s6.8 7.4 10.2 1.7 11.4-10.5 5.9-15.1"/><path d="M37.4 133.3c-2.1 2.3-4.3 5.8-2.4 7.1 1.8 1.2 5.2 5 3.1 5.5s-6.3-5.9-6.3-5.9 3.9 7.9 1.8 8.4-4.5-8.9-4.5-8.9 1 7.8-.7 6.8c-1.8-.9-.6-8.2-2-9-1.4-.7-3.1 5.8-4.5 3.4s4.4-12.1 6.1-13.2"/></g><path fill="#a3b339" d="M67.8 114c-.2 6.8-12 12.7-27.3 11.4-12.6-1-8.9-8.1 2.1-11.2s25.4-5.7 25.2-.2"/><path fill="#a3b339" d="M77.3 100.4c-1.8 11.7-15.5 28.4-23.9 21.1-8-7-2.8-35.5 3.3-39.3s23.3 0 20.6 18.2"/><path fill="#687a27" d="M78.7 95.7s.1.2 0 .6-.2.9-.5 1.6c-.4 1.3-1.2 3.2-2.2 5.4s-2.3 4.7-3.8 7.3c-.8 1.3-1.6 2.6-2.6 3.8-.9 1.3-2 2.5-3.1 3.6s-2.3 2.1-3.7 2.8c-.3.2-.7.3-1 .5l-.5.2-.6.2c-.7.2-1.5.5-2.2.7-1.4.4-2.8.9-4.2 1.3-1.3.4-2.6.7-3.8 1s-2.3.5-3.2.7c-1 .2-1.8.3-2.5.4s-1.3.1-1.6 0c-.4 0-.6-.1-.6-.1s.8.3 2.2.4h2.6c1 0 2.1-.2 3.3-.4s2.5-.4 3.9-.7 2.8-.7 4.3-1.1c.7-.2 1.5-.4 2.2-.7l.6-.2.6-.2c.4-.2.8-.3 1.2-.5 1.5-.8 2.8-1.9 4-3.1s2.2-2.5 3.2-3.8c.9-1.3 1.8-2.7 2.5-4.1 1.5-2.7 2.6-5.3 3.5-7.6.8-2.3 1.4-4.3 1.7-5.7.2-.7.2-1.3.3-1.6.1-.5 0-.7 0-.7M49.4 112.5s-.6 0-1.5.2c-1 .1-2.4.3-4 .7s-3.5.9-5.5 1.7c-1.9.8-4 2-5.7 3.7-.4.4-.8.9-1.1 1.4s-.6.9-.9 1.4c-.6.9-1.2 1.8-1.7 2.7-1.1 1.8-2.1 3.4-2.9 4.9-.8 1.4-1.5 2.7-2 3.5l-.5 1c-.1.1-.1.2-.2.2v-.1s-.1 0 0 .1c.1 0 .1-.1.2-.2l.8-.8c.7-.7 1.6-1.8 2.6-3.1s2.2-2.9 3.3-4.7c.6-.9 1.2-1.8 1.7-2.7.3-.5.6-.9.9-1.4s.5-.9.9-1.2c1.4-1.6 3.2-2.7 5.1-3.6 1.8-.9 3.6-1.6 5.2-2.1 3.1-1.1 5.3-1.6 5.3-1.6M26.4 137.3v1.5c0 .4-.1.9-.1 1.5v1.7c.1 1.2.3 2.4.8 3.3.2.4.6.8.8.9.3.1.5.1.5.1l-.1-.1c-.1 0-.1-.1-.2-.2-.1-.2-.1-.5-.2-1 0-.8 0-2-.1-3.1 0-.6-.1-1.2-.2-1.7-.1-.6-.2-1.1-.4-1.5s-.4-.8-.6-1c0-.3-.2-.4-.2-.4M29.1 139.4s-.1.7-.1 1.7c0 .5.1 1.1.2 1.7s.3 1.3.6 1.9l.9 1.8c.2.3.4.5.6.7l.6.6c.2.2.4.3.6.4s.4.2.5.2h.5l-.3-.3c-.1-.1-.2-.2-.3-.4-.1-.1-.2-.3-.3-.5l-.3-.6c-.1-.2-.2-.5-.3-.7-.2-.5-.4-1.1-.7-1.7-.4-1.2-.9-2.3-1.4-3.2-.4-1-.8-1.6-.8-1.6M38 146s-.2 0-.3-.2c-.2-.1-.4-.4-.7-.7s-.5-.7-.9-1c-.3-.4-.7-.8-1-1.2-.7-.8-1.5-1.6-2.1-2.1-.6-.6-1.2-.8-1.2-.8s.1.6.4 1.4.9 1.8 1.7 2.6l1.2 1.2c.4.3.9.6 1.3.8s.8.2 1.1.2c.4-.1.6-.2.5-.2M43.2 126s-.9.6-2 1.7c-.6.5-1.2 1.2-1.9 1.9s-1.3 1.5-2 2.4c-.6.9-1.2 1.7-1.7 2.6q-.75 1.35-1.2 2.4c-.3.8-.5 1.4-.4 1.9 0 .3.1.5.2.6s.2.1.2.1 0-.1-.1-.1v-.2c0-.1 0-.2.1-.3.1-.4.5-.9.9-1.5.5-.6 1-1.3 1.6-2.1l.9-1.2.9-1.2.9-1.2.9-1.2c.6-.8 1.1-1.6 1.5-2.2.8-1.4 1.2-2.4 1.2-2.4"/><path fill="#687a27" d="M55.9 82.4s-.3.5-.9 1.3c-.5.8-1.3 2-2.1 3.5-.4.8-.8 1.6-1.2 2.5s-.8 1.8-1.1 2.8c-.4 1-.7 2-1 3.1s-.6 2.2-.7 3.3c-.2 1.1-.3 2.2-.5 3.4-.1.6-.1 1.1-.1 1.7 0 .5-.1 1.1 0 1.6 0 .5 0 1.1.1 1.6 0 .5.1 1 .2 1.5.1 1 .3 1.9.5 2.7.1.8.4 1.6.6 2.2l.3.9c.1.3.2.5.3.7.4.9.7 1.4.7 1.4s-.1-.5-.4-1.5c-.1-.2-.1-.5-.2-.8 0-.3-.1-.6-.2-.9-.1-.7-.3-1.4-.3-2.2-.1-.8-.2-1.7-.2-2.7-.1-.9 0-1.9 0-3 0-1 .2-2.1.2-3.2.1-1.1.3-2.2.5-3.2.2-1.1.4-2.2.7-3.2s.5-2.1.8-3.1.6-1.9.9-2.8.6-1.7.9-2.5.6-1.5.8-2.1c.3-.6.5-1.2.7-1.6.4-.9.7-1.4.7-1.4"/><circle cx="9.645" cy="9.809" r="8.3" fill="#a3b339" transform="rotate(79.74 33.6 101.735)scale(-1 1)"/><circle cx="9.645" cy="9.809" r="6.3" fill="#e7ffbd" transform="rotate(79.74 33.6 101.735)scale(-1 1)"/><path fill="#2b3021" d="M121 42.1c.5 2.8-8.1 4.6-9.7 2.1-1.5-2.5 9-6.1 9.7-2.1"/><path fill="#687a27" d="M124.2 40s-.1-.4-.5-1-.9-1.5-1.8-2.4c-.4-.4-1-.9-1.6-1.3s-1.3-.7-2.2-.9c-.4-.1-.8-.1-1.2-.2h-1.3c-.4.1-.9.1-1.3.2l-.6.1-.6.2c-.8.3-1.6.7-2.3 1.2s-1.2 1.2-1.7 1.8c-.4.7-.8 1.4-1 2.1s-.3 1.4-.4 2v1.7c0 .5.1.9.2 1.3.2.7.3 1.1.3 1.1s0-.4-.1-1.1c0-.4-.1-.8 0-1.3 0-.5.1-1.1.1-1.7.1-.6.2-1.2.5-1.9.2-.7.6-1.3 1-1.9.5-.6 1-1.2 1.6-1.6.6-.5 1.3-.8 2.1-1.1l.6.1.6-.2c.4-.1.7-.1 1.1-.2s.8 0 1.1-.1c.4 0 .8 0 1.1.1 1.4.3 2.7 1 3.6 1.8s1.6 1.6 2 2.2c.5.6.7 1 .7 1"/><path fill="#687a27" d="M122.8 42.9s0-.4-.1-1-.3-1.5-.8-2.4-1.2-2.1-2.5-2.8c-.6-.4-1.3-.6-2.1-.7-.7-.1-1.5 0-2.2.1s-1.4.4-2.1.7-1.2.8-1.7 1.3c-1 1-1.4 2.3-1.5 3.4s0 2 .2 2.6.4.9.4.9-.1-.3-.2-.9-.1-1.5.1-2.5.7-2.1 1.6-2.9c.4-.4 1-.8 1.6-1.1s1.2-.5 1.9-.6c.6-.1 1.3-.2 1.9-.1s1.2.2 1.8.5c1.1.6 1.9 1.5 2.4 2.3.5.9.9 1.7 1.1 2.2.2.7.2 1 .2 1"/><g fill="#969330"><path d="M68.2 81.8c2.9-2.9.4-9.1-3.8-6.1s-3.5 13.5 3.8 6.1M60.5 84.3c3.4 1.9 3 7.6 0 6.1-3-1.4-3-7.8 0-6.1M71.3 84.7c5 1.3 4.6 8.6.2 8.2-4.5-.3-5.4-9.5-.2-8.2"/></g><path fill="#6d4b9b" d="M128 77.5s-4.7-1.9-5.9-6.5c0 0-20.5-1.3-28.5-19.8l-.9 5.6S69 61.3 55.1 80.9c0 0 13.8 29.7 44.8 24.9z"/><path fill="#e0c448" d="M69.6 83.6s1-2.9.9-4.7c0 0-3.2 1.2-3.8 2.2 0 0-2.7-2-3.7-2.6 0 0 0 3.8.7 4.5 0 0-3.5 1.7-4.5 2.9 0 0 4.2 1.2 5.6.4 0 0 .3 3.1 1.2 4 0 0 2-3.2 2-4.3 0 0 1.6.5 4.5.5 0 .1-1.8-2.3-2.9-2.9M94.9 94.4s-1.1-2.9-2.4-4.1c0 0-1.6 3-1.5 4.2 0 0-3.4.3-4.5.4 0 0 2.5 2.9 3.5 3 0 0-1.6 3.5-1.5 5.1 0 0 4-1.8 4.5-3.3 0 0 2.2 2.2 3.5 2.3 0 0-.5-3.7-1.2-4.6 0 0 1.5-.7 3.8-2.5 0 0-2.9-.7-4.2-.5M87.6 72.9s.6-3 .1-4.8c0 0-2.9 1.7-3.4 2.8 0 0-3-1.5-4.1-2 0 0 .6 3.8 1.4 4.4 0 0-3.2 2.2-4 3.6 0 0 4.3.5 5.6-.5 0 0 .7 3 1.8 3.8 0 0 1.5-3.5 1.4-4.6 0 0 1.7.2 4.5-.2 0 .1-2.1-2-3.3-2.5M110.4 78.5s3-.9 4.3-2.1c0 0-2.9-1.8-4.1-1.7 0 0-.1-3.4-.2-4.5 0 0-3.1 2.3-3.2 3.3 0 0-3.4-1.8-5-1.8 0 0 1.6 4.1 3 4.7 0 0-2.3 2.1-2.5 3.4 0 0 3.8-.3 4.7-1 0 0 .6 1.6 2.3 3.9 0 0 .8-2.9.7-4.2M91.4 58.8c-1.3 1.2-4.3 2.1-4.3 2.1.1 1.3-.7 4.2-.7 4.2-1.7-2.3-2.3-3.9-2.3-3.9-.9.6-4.7 1-4.7 1 0-.3.2-.6.4-1 3.8-1.7 7.1-2.8 9.5-3.5 1.1.5 2.1 1.1 2.1 1.1M109.1 96.1c-1.5-.6-3-4.7-3-4.7 1.6.1 5 1.8 5 1.8.1-1 3.2-3.3 3.2-3.3 0 .3.1.8.1 1.4l-7.7 7.7c.6-1.3 2.4-2.9 2.4-2.9"/><path fill="#4a3369" d="M128 77.5s-.7.1-1.9.1-3 0-5.1-.1c-2.1-.2-4.5-.5-7-1.1-1.3-.3-2.5-.7-3.8-1.1-1.3-.5-2.5-1-3.7-1.7-1.2-.6-2.4-1.4-3.5-2.1-1.1-.8-2.1-1.7-3-2.6s-1.7-1.9-2.4-2.8-1.3-1.9-1.9-2.8c-.3-.5-.5-.9-.7-1.3l-.6-1.2c-.3-.8-.7-1.4-.9-2-.4-1.2-.7-1.8-.7-1.8s.1.7.4 1.9c.1.6.4 1.3.6 2.2.2.8.6 1.7 1.1 2.7.2.5.5 1 .8 1.5l.9 1.5c.7 1 1.5 2.1 2.4 3.1s1.9 2 3.1 2.9c1.2.8 2.4 1.7 3.7 2.3 1.3.7 2.6 1.2 4 1.7 1.4.4 2.7.8 4 1.1s2.6.4 3.8.5 2.4.1 3.5.1c2.1 0 3.9-.3 5.1-.5 1.2-.4 1.8-.5 1.8-.5M91.4 57.4s-2.8.2-6.8 1.5c-1 .3-2.1.7-3.2 1.1-1.1.5-2.3.9-3.5 1.5s-2.4 1.1-3.6 1.8c-1.2.6-2.4 1.4-3.6 2.1s-2.3 1.6-3.4 2.4c-.6.4-1.1.8-1.6 1.3-.5.4-1 .9-1.5 1.3-1 .8-1.9 1.8-2.7 2.6-.9.8-1.6 1.7-2.3 2.5s-1.3 1.5-1.8 2.2-.9 1.3-1.3 1.8c-.7 1-1.1 1.6-1.1 1.6s.5-.5 1.3-1.4c.4-.4.9-1 1.5-1.6s1.3-1.2 2-2c.7-.7 1.5-1.5 2.4-2.2s1.8-1.6 2.8-2.4 2-1.6 3.1-2.4 2.2-1.6 3.4-2.3c1.1-.7 2.3-1.5 3.5-2.1 1.2-.7 2.3-1.3 3.4-1.9s2.3-1.1 3.3-1.6c1.1-.5 2.1-1 3-1.3 4-1.8 6.7-2.5 6.7-2.5M100 105.8s-.8.1-2.3.1h-2.6c-1 0-2.1-.1-3.4-.2-2.5-.3-5.3-.7-8.3-1.6-1.5-.4-3-1-4.5-1.5-1.5-.6-3-1.3-4.4-2.1s-2.8-1.6-4.2-2.6c-.7-.5-1.3-1-1.9-1.4L66.6 95c-1.1-1-2.3-2-3.2-3-.5-.5-1-1-1.4-1.5s-.9-1-1.3-1.4c-.8-1-1.5-1.8-2.1-2.6S57.4 85 57 84.4c-.8-1.2-1.3-1.9-1.3-1.9s.4.7 1.1 2c.3.7.8 1.4 1.3 2.3s1.2 1.8 1.9 2.9c.7 1 1.6 2.1 2.5 3.2s2 2.2 3.2 3.3 2.4 2.1 3.8 3.1 2.8 1.9 4.3 2.7 3 1.5 4.6 2.1 3.1 1.1 4.7 1.5c1.5.4 3.1.7 4.5.9s2.8.3 4.1.3c2.5.1 4.6-.2 6.1-.4 1.4-.4 2.2-.6 2.2-.6M126.8 78.8s-1.7 1.4-4.2 3.6c-1.2 1.1-2.7 2.4-4.2 3.8s-3.1 3-4.6 4.5c-.8.8-1.5 1.6-2.3 2.3-.8.8-1.5 1.6-2.2 2.3-1.4 1.5-2.7 2.9-3.8 4.2-2.2 2.5-3.6 4.2-3.6 4.2s1.7-1.4 4.2-3.6c1.2-1.1 2.7-2.4 4.2-3.8.7-.7 1.5-1.4 2.3-2.2s1.6-1.5 2.3-2.3c1.5-1.6 3.1-3.1 4.5-4.6s2.7-2.9 3.8-4.2c2.3-2.5 3.6-4.2 3.6-4.2"/><ellipse cx="2.699" cy="27.996" fill="#bdabd6" rx="2" ry="3.9" transform="rotate(-170.212 69.08 20.208)scale(1 -1)"/></g></svg>