<svg xmlns="http://www.w3.org/2000/svg" xml:space="preserve" width="107.368" height="109.318" viewBox="0.241 -0.095 107.368 109.318"><title>Slice 1</title><g fill-rule="evenodd"><path fill="#df6530" d="M107.1 54c-.1-2.5-1-5-2.6-6.9-2.5-3.1-6.2-4.3-6.6-8.8-.6-6 3.8-12.6-1-17.6-1.7-1.7-5-2.8-7.4-2.9-2-.1-2.7-.2-4.2-1.8-1.1-1.2-1.6-2.3-2-3.9-1-4.2-5.1-7-10-6.4-4 .5-8 4.2-11.3-.1-1.6-2.1-2-4.3-4.8-5-2.9-.7-6.4.6-8.8 2.1C46.2 4 44.9 6 42.2 6.3c-2.6.3-4.5-.9-7-1.7-6.6-2-10.6 1.3-11.8 7.7-.4 2.1-.4 2.7-2.3 4-1.5 1-3.8.9-5.5.7-5.7-.6-4.9 7.7-5.1 10.3-.5 6.8-8.1 10.4-8.8 13-1.1 4.1 3.8 6.2 1.8 10.4C.8 56.4-1 61.8 3.4 67.3c1.7 2.2 3.2 4 4.7 6.4 2 3.2 1.5 7 1.6 10.5 0 5.4 3.5 10 8.7 10.3 4.6.3 8 0 11 4.1 2 2.7 3.3 5.5 5.9 7.8 4.9 4.3 11.8 2 16.5-1.8 3.5-2.9 2.9-3.4 7.8-2.4 3.3.7 5.8 1.7 9.2 2.4 6.3 1.1 8.9-1.6 10.5-3.2 2.6-2.5 3.1-6.9 5.6-9.5 3-2.9 2.8-2.9 6.4-3.3 2.6-.3 5.3-1.4 7.3-3.2 4.2-3.7 5.5-9.7 3.5-14.9-.9-2.4-.9-4.3.7-6.4.7-.9 1.7-1.6 2.3-2.5 1.4-2.2 2.1-4.9 2-7.6"/><path fill="#ea9b1f" d="M104 49.8c-.7-2.2-2.4-3.8-3.4-5.9-1.2-2.6-.2-5.3-.9-8.1-1.3-5.8-6.1-6.3-9.7-10.5C86.4 21 84.2 12.2 79.3 11c-2.6-.6-4.1.3-6.6-.5-2.6-.8-5-2.5-7.6-3.5-5.7-2.2-10.5.4-16.3.2-5.2-.2-10.2-3.7-14.2.3-6.2 6.1-14.3 8.9-14.5 9-2.6 1.2-4.1 3.2-5.2 5.7-.9 2-1.2 4.3-2.4 6.2-1.1 1.7-2.9 2.5-4.3 3.8C6 34.4 5 36.7 4.9 39.8c-.2 4.4.8 7.8 0 12.1-.7 3.4-2.2 6.6-1.2 9.9.5 1.9.7 3.1.7 4.9 0 1.7.6 2.9.7 4.6.4 5.8 3.1 6.8 5.3 9 .9.9 1.7 1.1 2.7 1.8 2 1.3 2.2 2.8 3.2 4.8 1.1 2.4 2.4 4.1 4.6 5.5 2.8 1.8 4.4 4.9 7.4 6.5 2.8 1.5 6 1.1 8.9 2.2 2.8 1.1 4.7 3.6 8 3.3 2.2-.3 3.1-1.5 5.7-1.2 1.7.2 3.4 1.1 5.1 1.4 3.8.6 6.7-1.6 10.4-1.9 4.9-.4 10.7-1.2 12.1-6.2.2-1.3 1.8-1.6 2.1-1.6 3.2-.2 8.6-.6 10.3-3.2 3-4.6.6-9.8 3.9-13.4 1.3-1.4 3.1-1.3 4.4-3.1 2.2-3.1 1.9-6.9 1.1-10.4-.9-3.4 5.2-10.1 3.7-15"/><path fill="#f3bb1b" d="M53.1 9.4c5.1 0 10.9 3.3 15.5 5 4.9 1.7 9.1 1.3 13.1 4.5 3.7 3 3.3 6.9 5.9 11 1.8 2.8 6.7 5 8.4 8.6 2.4 5 1.4 11.5 1.4 16.5 0 3.4 1.4 9.9.7 13.1-1.7 7.4-9.3 9.7-14.1 15.2-3.9 4.4-6.4 9.1-11.7 11.6-5.8 2.8-10.7 6.8-17.6 6.8-3.7 0-8.9-5-12.3-5.9-4.6-1.1-13.6 1.1-15.8-3-7.4-14-9.8-12.1-13.3-17.3-4.7-7-3.1-11.9-3.1-21 0-4.7-2.6-9.2-1.2-13.4 1.7-5.3 6.4-9.7 9.8-13.9 4.8-6 13.7-8.5 20.9-11.4 4.8-1.9 7.7-6.4 13.4-6.4"/><circle cx="40.1" cy="40" r="39.9" fill="#f9d20d" transform="translate(13 15)"/></g></svg>