<svg xmlns="http://www.w3.org/2000/svg" xml:space="preserve" width="114.7" height="253.812" viewBox="18.5 14.4 114.7 253.812"><title>fairy-a</title><g fill-rule="nonzero"><path fill="#c68652" d="M103.3 192.1c4.9-12.4 11-57-2.4-59.4-13.5-2.4-24 18-16.7 54.1 5.4 26.5 16.2 12.8 19.1 5.3"/><path fill="#8c5734" d="M82.2 172.4s.1 1.5.4 3.9c.1 1.2.3 2.5.5 3.9s.5 3 .8 4.5c.2.8.3 1.5.5 2.3.2.7.3 1.5.5 2.2s.3 1.4.5 2 .4 1.2.5 1.8c.2.5.4 1.1.5 1.5.2.4.3.8.4 1.1.2.6.4 1 .4 1s-.2-.3-.5-.9-.7-1.5-1.2-2.6c-.2-.5-.4-1.1-.7-1.8-.2-.6-.4-1.3-.6-2s-.4-1.4-.6-2.2c-.2-.7-.3-1.5-.5-2.3-.3-1.5-.5-3.1-.7-4.5s-.3-2.8-.3-4c0-2.3.1-3.9.1-3.9M107.9 142.3s.1.6.3 1.7.4 2.7.6 4.6.3 4.2.4 6.6c0 1.2.1 2.4 0 3.7 0 1.3 0 2.5-.1 3.8s-.2 2.6-.3 3.8c-.1 1.3-.3 2.5-.4 3.7s-.3 2.3-.5 3.4q-.3 1.65-.6 3c-.2.9-.4 1.8-.6 2.6s-.4 1.4-.5 2c-.3 1.1-.5 1.7-.5 1.7s.1-.6.4-1.7c.1-.5.3-1.2.4-2s.3-1.6.5-2.6c.2-.9.3-2 .5-3.1.1-1.1.3-2.2.4-3.4s.3-2.4.4-3.7.2-2.5.2-3.8c.1-1.3.1-2.5.1-3.8v-3.7c0-2.4-.1-4.6-.2-6.5-.2-3.8-.5-6.3-.5-6.3"/><path fill="#c68652" d="M85 197.1c-2.6 5.1-2.4 10.5-.9 21.8.9 7.4 4.2 19.8 5.6 30 .6 4.8 3.1 5 4.8 5.1 4.5.3 2-5 2.8-12 1.3-12.5 2.1-20.9 3.6-29.5 3.5-20.7 2.2-25.2-4-24.5-6.3.6-9.3 3.9-11.9 9.1"/><path fill="#8c5734" d="M86.5 194.7s-.3.3-.6.9q-.3.45-.6 1.2c-.2.5-.4 1-.6 1.6s-.4 1.2-.5 1.9-.3 1.4-.4 2.2-.2 1.5-.2 2.3c-.1.8-.1 1.6-.1 2.4v2.4c0 .8.1 1.6.1 2.4s.1 1.5.2 2.2.1 1.4.2 2c0 .6.1 1.2.2 1.7s.1.9.1 1.3c.1.7.1 1.1.1 1.1s-.1-.4-.2-1.1c-.1-.4-.2-.8-.3-1.3s-.2-1-.3-1.7c-.2-1.2-.4-2.7-.5-4.2-.1-.8-.1-1.6-.2-2.4 0-.8-.1-1.6 0-2.5.1-.8 0-1.7.1-2.5s.1-1.6.3-2.4c.1-.8.3-1.5.5-2.2s.4-1.3.6-1.9.5-1.1.7-1.6c.2-.4.5-.8.7-1.1.3-.4.7-.7.7-.7M102.1 204.2s-.2 1.8-.6 4.6c-.2 1.4-.4 3-.6 4.7s-.5 3.5-.7 5.4c-.3 1.8-.5 3.7-.7 5.4s-.4 3.3-.6 4.7c-.4 2.8-.6 4.6-.6 4.6v-1.3c0-.8.1-2 .2-3.4s.2-3 .4-4.7.4-3.6.6-5.4c.3-1.8.5-3.7.8-5.4s.6-3.3.8-4.7c.5-2.7 1-4.5 1-4.5"/><path fill="#c68652" d="M95.7 249.4c2.2.6 8.4 5.9 11.5 6.4 3.1.6 6.4 1.3 6.2 3.4s-5.3 3.5-7.1 3.5c-4.2.2-5.8-2.2-13.1-3.1-1.8-.2-3.9-.3-4.9-2.6s1.4-9.1 7.4-7.6"/><path fill="#f29c11" d="M106.2 262.7c-4.2.2-5.8-2.2-13.1-3.1-1.8-.2-3.9-.3-4.9-2.6-.3-.7-.3-1.7 0-2.7 3.6 3.2 10.5 4.1 15 4.8 4.9.7 6.5-1.4 6.8-2.6 1.9.5 3.4 1.3 3.3 2.7-.3 2.1-5.3 3.5-7.1 3.5"/><path fill="#e17522" d="M113.3 259.2s0 .1-.1.3-.2.5-.5.8c-.6.6-1.6 1.3-3 1.7-.7.2-1.5.4-2.3.5s-1.7.2-2.6.2-1.9-.1-2.8-.4-1.8-.6-2.7-1c-1.8-.7-3.6-1.3-5.3-1.6-.9-.1-1.7-.1-2.6-.3-.8-.2-1.6-.5-2.2-.9s-1.1-1-1.2-1.6c-.2-.6-.2-1.1-.1-1.5 0-.4.1-.7.2-1 .1-.2.1-.3.1-.3s0 .1-.1.3c0 .2-.1.5-.1 1 0 .4 0 .9.2 1.4s.6 1 1.2 1.4 1.3.6 2.1.8c.8.1 1.7.1 2.6.2 1.8.3 3.6.9 5.4 1.5.9.3 1.8.7 2.6 1 .9.3 1.8.4 2.6.4.9 0 1.7-.1 2.5-.1.8-.1 1.6-.2 2.2-.4q2.1-.6 3-1.5c.3-.3.5-.6.6-.8.3 0 .3-.1.3-.1"/><path fill="#8c5734" d="M108.9 256.2s-.8 0-1.9-.2c-.6-.1-1.2-.3-1.9-.5s-1.4-.7-2-1.1c-1.2-.9-2.4-1.8-3.3-2.4-.9-.7-1.5-1.2-1.5-1.2s.7.3 1.7.8 2.3 1.3 3.5 2.2l.9.6c.3.2.6.3.9.5.6.3 1.2.5 1.8.7 1 .4 1.8.6 1.8.6"/><path fill="#e17522" d="M110 256.5v.4c0 .1-.1.3-.1.4-.1.2-.1.4-.3.5-.2.4-.6.8-1.1 1-.2.1-.5.3-.8.3-.3.1-.6.1-.9.2-.3 0-.6.1-.9.1h-.8c-.5 0-1-.1-1.5-.2-.4-.1-.8-.2-1-.3s-.4-.1-.4-.1h2.8c.5 0 1.1-.1 1.6-.1.3-.1.5-.1.8-.2.2-.1.5-.1.7-.3.5-.2.8-.5 1.1-.7l.4-.4c.1-.1.2-.3.2-.4.2-.1.2-.2.2-.2"/><path fill="#ffe7ab" d="M82.3 95.1c-4.7-10.5-37.3 7.5-39 25.6-1.8 18 55.1 10 39-25.6"/><path fill="#ffd878" d="M81.4 93.7s-.2-.1-.5-.2c-.3-.2-.8-.3-1.3-.5-.6-.2-1.3-.4-2.2-.5-.8-.1-1.8-.1-2.9 0-1 .1-2.2.3-3.3.6-1.2.4-2.4.8-3.6 1.3s-2.5 1.1-3.7 1.7c-.6.3-1.2.7-1.8 1s-1.2.7-1.8 1.1l-1.8 1.2c-.6.4-1.1.8-1.7 1.2s-1.1.9-1.6 1.3-1 .9-1.5 1.4l-1.4 1.4c-.4.5-.9.9-1.3 1.4-.8.9-1.5 1.8-2.2 2.6q-1.95 2.55-3 4.2c-.7 1-1 1.7-1 1.7s.3-.7.8-1.8c.6-1.1 1.4-2.7 2.7-4.4.6-.9 1.3-1.8 2.1-2.8s1.6-2 2.6-2.9c.5-.5 1-1 1.5-1.4.5-.5 1-.9 1.6-1.4.5-.5 1.1-.9 1.7-1.3s1.2-.9 1.8-1.2c1.2-.7 2.5-1.4 3.8-2.1 1.3-.6 2.5-1.2 3.8-1.7 1.2-.5 2.5-.9 3.7-1.2s2.4-.5 3.5-.5c1.1-.1 2.1 0 3 .2s1.6.4 2.2.7 1 .5 1.3.7c.3.1.5.2.5.2M84.3 100.7s.2.5.4 1.5c.1.5.2 1.1.3 1.7.1.7.2 1.4.2 2.3.1.8 0 1.7 0 2.7-.1 1-.2 2-.4 3-.1.3-.1.5-.2.8s-.2.5-.2.8c-.2.5-.3 1.1-.6 1.6-.2.5-.5 1-.7 1.5l-.9 1.5c-.3.5-.7.9-1 1.4-.4.4-.7.9-1.1 1.3-.8.8-1.5 1.6-2.4 2.2-.4.3-.8.7-1.2 1s-.8.5-1.3.8c-.4.3-.8.5-1.2.7l-1.2.6c-.7.4-1.4.7-2.1 1-.6.2-1.2.4-1.6.6-.9.3-1.4.5-1.4.5s.5-.3 1.4-.7l1.6-.8c.6-.3 1.2-.7 1.9-1.1.4-.2.7-.4 1.1-.6.4-.3.7-.5 1.1-.8s.8-.6 1.2-.8c.4-.3.8-.6 1.1-1 .8-.6 1.5-1.4 2.2-2.2.4-.4.7-.8 1-1.2s.7-.8.9-1.3l.8-1.4c.2-.5.5-1 .7-1.4.3-.5.4-1 .6-1.5l.3-.7c.1-.2.1-.5.2-.7.3-1 .4-2 .6-2.9.1-.9.2-1.8.1-2.6 0-1.6-.1-3-.2-4z"/><path fill="#ffe7ab" d="M84.2 83.3C81 66.4 56.3 28.4 19 16.7c0 0 17.8 70.1 34.5 82.4s35.3 8.6 30.7-15.8"/><path fill="#ffd878" d="M84.9 90.6s0-.4.1-1.2c0-.4-.1-.8-.1-1.4-.1-.5-.2-1.2-.3-1.9-.3-1.4-.7-3.1-1.3-4.9-.6-1.9-1.4-3.9-2.4-6.2-1-2.2-2.2-4.6-3.5-7s-2.8-5-4.5-7.5-3.4-5.1-5.4-7.7c-1.9-2.5-4-5-6.1-7.5l-3.3-3.6c-1.1-1.2-2.2-2.3-3.4-3.4-1.1-1.1-2.3-2.1-3.5-3.2-1.2-1-2.4-2-3.5-3-2.4-1.9-4.7-3.6-7.1-5.1-2.3-1.5-4.6-2.9-6.7-4.1-1.1-.6-2.1-1.1-3.1-1.6s-2-.9-2.8-1.3c-1.8-.8-3.4-1.4-4.7-2-2.8-.8-4.3-1.3-4.3-1.3s.4.1 1.1.3 1.8.5 3.2 1c1.3.5 3 1 4.8 1.8.9.4 1.9.8 2.9 1.2 1 .5 2 1 3.1 1.6 2.2 1.1 4.5 2.4 6.8 3.9 1.2.7 2.4 1.6 3.6 2.4s2.4 1.8 3.6 2.7c1.2 1 2.4 1.9 3.6 3s2.4 2.1 3.5 3.2c1.2 1.1 2.3 2.2 3.5 3.4 1.2 1.1 2.2 2.4 3.3 3.6 2.1 2.5 4.2 5 6.1 7.6s3.7 5.2 5.3 7.8c3.3 5.2 5.9 10.3 7.7 14.8 1 2.2 1.7 4.4 2.3 6.3s.9 3.6 1.2 5c.1.7.2 1.3.2 1.9v1.4c.1.5.1 1 .1 1M74.4 105.6s-.9.1-2.5.1h-2.8c-.6 0-1.1-.1-1.8-.1-.6 0-1.3-.2-1.9-.3-.7-.1-1.4-.3-2.1-.5-.4-.1-.7-.2-1.1-.3s-.7-.3-1.1-.4-.7-.3-1.1-.4-.7-.4-1.1-.6-.7-.4-1.1-.6l-.6-.3-.5-.4-2.1-1.5c-.7-.6-1.3-1.2-2-1.8s-1.3-1.3-1.9-1.9c-.6-.7-1.3-1.3-1.8-2s-1.1-1.5-1.6-2.2l-.8-1.1-.7-1.1c-.9-1.5-1.9-3-2.7-4.5s-1.6-2.9-2.2-4.3-1.2-2.8-1.8-4c-.3-.6-.6-1.2-.8-1.8-.1-.6-.3-1.1-.5-1.6-.4-1-.7-1.9-1-2.7-.5-1.5-.8-2.3-.8-2.3s.4.8 1 2.3c.3.7.7 1.6 1.1 2.6q.6 1.5 1.5 3.3c.6 1.2 1.2 2.5 1.9 3.9s1.5 2.8 2.3 4.2c.8 1.5 1.8 2.9 2.7 4.4l.7 1.1.8 1.1c.5.7 1.1 1.4 1.6 2.1s1.2 1.3 1.7 2c.6.7 1.2 1.3 1.8 1.9s1.3 1.2 1.9 1.7c.7.5 1.4 1 2 1.5l.5.4.5.3c.4.2.7.4 1 .6s.7.4 1 .6c.4.2.7.3 1.1.5.3.2.7.3 1 .5.3.1.7.2 1 .3.7.2 1.3.4 2 .6 1.3.3 2.5.4 3.6.6 1.1.1 2 .1 2.8.2 2-.1 2.9-.1 2.9-.1"/><path fill="#ffe7ab" d="M89.6 93.4c3.2-10.5 25.5 7.5 26.6 25.6s-37.6 10-26.6-25.6"/><path fill="#ffd878" d="m90.2 91.9.3-.3c.2-.2.5-.4.9-.7s1-.5 1.7-.7q1.05-.3 2.4 0c1.7.3 3.6 1.2 5.4 2.4.9.6 1.8 1.2 2.7 1.9.5.3.9.7 1.3 1.1l1.2 1.2c.4.4.8.8 1.2 1.3.4.4.7.9 1.1 1.3.7.9 1.3 1.8 1.9 2.7 1.1 1.8 2 3.6 2.7 5.2 1.4 3.1 2 5.3 2 5.3s-.2-.5-.6-1.4c-.2-.5-.4-1-.7-1.6s-.7-1.3-1-2.1c-.8-1.5-1.7-3.2-2.9-5-.6-.9-1.2-1.8-1.9-2.7-.3-.4-.7-.9-1.1-1.3s-.7-.8-1.1-1.2l-1.2-1.2c-.4-.4-.8-.8-1.3-1.1-.9-.7-1.7-1.4-2.6-2s-1.8-1.1-2.6-1.6c-.9-.4-1.7-.8-2.5-.9-.8-.2-1.6-.2-2.2-.1-.7.1-1.2.3-1.7.5-.4.2-.8.4-1 .6-.3.4-.4.4-.4.4M88.3 99s0 .5-.1 1.4-.1 2.1-.1 3.6c0 .7 0 1.5.1 2.4 0 .8.2 1.7.2 2.6.2.9.3 1.8.5 2.8.2.9.5 1.9.8 2.8.4.9.7 1.8 1.2 2.7.4.9.9 1.6 1.4 2.4.5.7 1.1 1.4 1.6 2.1.6.6 1.1 1.2 1.7 1.7s1.1.9 1.5 1.3c.5.4.9.7 1.3.9.7.5 1.1.8 1.1.8s-.4-.2-1.2-.7c-.4-.2-.9-.5-1.3-.8-.5-.4-1.1-.8-1.6-1.2-.6-.5-1.2-1.1-1.8-1.6q-.9-.9-1.8-2.1c-.5-.8-1.1-1.6-1.5-2.5-.5-.9-.9-1.8-1.3-2.7-.3-1-.6-1.9-.8-2.9s-.3-1.9-.5-2.9c-.1-.9-.2-1.8-.1-2.7 0-.9 0-1.7.1-2.4.1-1.5.3-2.7.4-3.6s.2-1.4.2-1.4"/><path fill="#ffe7ab" d="M88.3 81.5c2.2-16.9 19-54.8 44.4-66.6 0 0-12.1 70.1-23.5 82.4s-24 8.7-20.9-15.8"/><path fill="#ffd878" d="M87.8 88.8s0-.4-.1-1c0-.7 0-1.6.1-2.9.1-1.2.3-2.7.6-4.4s.7-3.6 1.3-5.6c1.1-4.1 2.6-8.8 4.6-13.7s4.4-10 7.1-14.9c1.4-2.4 2.9-4.9 4.4-7.2s3.2-4.5 4.8-6.6q2.55-3.15 5.1-5.7l2.5-2.5c.4-.4.8-.8 1.2-1.1.4-.4.8-.7 1.3-1 .8-.7 1.6-1.3 2.4-1.9s1.5-1.1 2.3-1.5c.7-.5 1.4-.9 2-1.3.7-.4 1.3-.7 1.8-1 1.1-.6 2-.9 2.6-1.2s.9-.4.9-.4-.3.2-.9.4c-.6.3-1.5.7-2.5 1.3-.5.3-1.1.7-1.8 1-.6.4-1.3.9-2 1.3-.7.5-1.4 1-2.2 1.6l-1.2.9c-.4.3-.8.7-1.2 1s-.8.7-1.2 1c-.4.4-.8.8-1.2 1.1L116 27q-2.25 3-4.8 6c-1.6 2.1-3.2 4.3-4.7 6.6s-3 4.7-4.4 7.1c-5.5 9.8-9.7 20.3-12 28.4-.6 2-1 3.9-1.4 5.6s-.6 3.1-.8 4.4c-.1 1.2-.2 2.2-.2 2.8.1.6.1.9.1.9M95 103.9s.8 0 2.1-.1q1.05 0 2.4-.3c.5-.1.9-.2 1.4-.4q.75-.15 1.5-.6c.3-.1.5-.2.8-.4.2-.2.5-.3.8-.5s.5-.3.8-.5c.2-.2.5-.4.7-.6s.5-.4.7-.6l.7-.7c.4-.5 1-1 1.4-1.6s.9-1.1 1.3-1.7.8-1.2 1.2-1.9c.8-1.2 1.5-2.6 2.2-4l.5-1 .5-1 .9-2.1c.6-1.4 1.1-2.8 1.6-4.1.3-.7.5-1.3.7-2s.4-1.3.6-1.9c.4-1.2.8-2.4 1.2-3.5 1.4-4.4 2.3-7.3 2.3-7.3s-.2.7-.5 2c-.2.7-.3 1.4-.6 2.3-.2.9-.4 1.9-.8 3-.3 1.1-.7 2.3-1.1 3.6-.2.6-.4 1.3-.6 1.9-.2.7-.5 1.3-.7 2-.5 1.3-.9 2.8-1.6 4.1l-.9 2.1-.5 1.1-.5 1c-.7 1.4-1.4 2.8-2.2 4-.4.6-.8 1.3-1.2 1.9-.5.6-.9 1.2-1.3 1.8s-1 1.1-1.5 1.6c-.3.2-.5.5-.7.7-.3.2-.5.4-.8.6s-.5.4-.8.6-.6.3-.8.5c-.3.2-.5.3-.8.5s-.6.2-.8.4c-.5.2-1.1.4-1.6.5s-1 .3-1.5.3c-.9.1-1.8.1-2.4.1-1.4.3-2.1.2-2.1.2"/><path fill="#c68652" d="M77.9 197.1c4.9-12.4 11-57-2.4-59.4-13.5-2.4-24 18-16.7 54.1 5.4 26.5 16.1 12.8 19.1 5.3"/><path fill="#8c5734" d="M56.8 177.4s.1 1.5.4 3.9c.1 1.2.3 2.5.5 3.9s.5 3 .8 4.5c.2.8.3 1.5.5 2.3.2.7.3 1.5.5 2.2s.3 1.4.5 2 .4 1.2.5 1.8c.2.5.4 1.1.5 1.5.2.4.3.8.4 1.1.2.6.4 1 .4 1s-.2-.3-.5-.9-.7-1.5-1.2-2.6c-.2-.5-.4-1.1-.7-1.8-.2-.6-.4-1.3-.6-2s-.4-1.4-.6-2.2c-.2-.7-.3-1.5-.5-2.3-.3-1.5-.5-3.1-.7-4.5s-.3-2.8-.3-4c0-2.3.1-3.9.1-3.9M82.5 147.3s.1.6.3 1.7.4 2.7.6 4.6.3 4.2.4 6.6c0 1.2.1 2.4 0 3.7 0 1.3 0 2.5-.1 3.8s-.2 2.6-.3 3.8c-.1 1.3-.3 2.5-.4 3.7s-.3 2.3-.5 3.4q-.3 1.65-.6 3c-.2.9-.4 1.8-.6 2.6s-.4 1.4-.5 2c-.3 1.1-.5 1.7-.5 1.7s.1-.6.4-1.7c.1-.5.3-1.2.4-2s.3-1.6.5-2.6c.2-.9.3-2 .5-3.1.1-1.1.3-2.2.4-3.4s.3-2.4.4-3.7.2-2.5.2-3.8c.1-1.3.1-2.5.1-3.8v-3.7c0-2.4-.1-4.6-.2-6.5-.2-3.8-.5-6.3-.5-6.3"/><path fill="#c68652" d="M59.6 202.1c-2.6 5.1-2.4 10.5-.9 21.8.9 7.4 4.2 19.8 5.6 30 .6 4.8 3.1 5 4.8 5.1 4.5.3 2-5 2.8-12 1.3-12.5 2.1-20.9 3.6-29.5 3.5-20.7 2.2-25.2-4-24.5-6.3.6-9.3 3.9-11.9 9.1"/><path fill="#8c5734" d="M61 199.7s-.3.3-.6.9q-.3.45-.6 1.2c-.2.5-.4 1-.6 1.6s-.4 1.2-.5 1.9c-.1.3-.1.7-.2 1.1s-.1.7-.2 1.1c-.1.8-.2 1.6-.2 2.4-.1.8-.1 1.6-.1 2.5v2.5c0 .8.1 1.6.1 2.4s.1 1.5.1 2.2c.1.7.1 1.4.2 2s.1 1.2.2 1.7.1.9.1 1.3c.1.7.1 1.1.1 1.1s-.1-.4-.2-1.1c-.1-.4-.2-.8-.3-1.3s-.2-1.1-.3-1.7-.2-1.3-.3-2-.2-1.5-.2-2.3-.1-1.6-.1-2.4-.1-1.7 0-2.5c0-.8 0-1.7.1-2.5s.1-1.6.3-2.4c.1-.4.1-.8.2-1.1.1-.4.2-.7.3-1.1.2-.7.4-1.4.6-2s.4-1.1.7-1.6c.2-.5.5-.8.7-1.1.4-.5.7-.8.7-.8M76.7 209.2s-.2 1.8-.6 4.6c-.2 1.4-.4 3-.6 4.7s-.5 3.5-.7 5.4c-.3 1.8-.5 3.7-.7 5.4s-.4 3.3-.6 4.7c-.4 2.8-.6 4.6-.6 4.6v-1.3c0-.8.1-2 .2-3.4s.2-3 .4-4.7.4-3.6.6-5.4c.3-1.8.5-3.7.8-5.4s.6-3.3.8-4.7c.5-2.7 1-4.5 1-4.5"/><path fill="#c68652" d="M70.2 254.4c2.2.6 8.4 5.9 11.5 6.4s6.4 1.3 6.2 3.4-5.3 3.5-7.1 3.5c-4.2.2-5.8-2.2-13.1-3.1-1.8-.2-3.9-.3-4.9-2.6s1.5-9.1 7.4-7.6"/><path fill="#f29c11" d="M80.8 267.7c-4.2.2-5.8-2.2-13.1-3.1-1.8-.2-3.9-.3-4.9-2.6-.3-.7-.3-1.7 0-2.7 3.6 3.2 10.5 4.1 15 4.8 4.9.7 6.5-1.4 6.8-2.6 1.9.5 3.4 1.3 3.3 2.7-.3 2.1-5.4 3.5-7.1 3.5"/><path fill="#e17522" d="M87.9 264.2s0 .1-.1.3-.2.5-.5.8c-.6.6-1.6 1.3-3 1.7-.7.2-1.5.4-2.3.5s-1.7.2-2.6.2-1.9-.1-2.8-.4-1.8-.6-2.7-1c-1.8-.7-3.6-1.3-5.3-1.6-.9-.1-1.7-.1-2.6-.3-.8-.2-1.6-.5-2.2-.9s-1.1-1-1.2-1.6c-.2-.6-.2-1.1-.1-1.5 0-.4.1-.7.2-1 .1-.2.1-.3.1-.3s0 .1-.1.3c0 .2-.1.5-.1 1 0 .4 0 .9.2 1.4s.6 1 1.2 1.4 1.3.6 2.1.8c.8.1 1.7.1 2.6.2 1.8.3 3.6.9 5.4 1.5.9.3 1.8.7 2.6 1 .9.3 1.8.4 2.6.4.9 0 1.7-.1 2.5-.1.8-.1 1.6-.2 2.2-.4q2.1-.6 3-1.5c.3-.3.5-.6.6-.8.2 0 .3-.1.3-.1"/><path fill="#8c5734" d="M83.4 261.2s-.8 0-1.9-.2c-.6-.1-1.2-.3-1.9-.5s-1.4-.7-2-1.1c-1.2-.9-2.4-1.8-3.3-2.4-.9-.7-1.5-1.2-1.5-1.2s.7.3 1.7.8 2.3 1.3 3.5 2.2l.9.6c.3.2.6.3.9.5.6.3 1.2.5 1.8.7 1.1.4 1.8.6 1.8.6"/><path fill="#e17522" d="M84.6 261.5v.4c0 .1-.1.3-.1.4-.1.2-.1.4-.3.5-.2.4-.6.8-1.1 1-.2.1-.5.3-.8.3-.3.1-.6.1-.9.2-.3 0-.6.1-.9.1h-.8c-.5 0-1-.1-1.5-.2-.4-.1-.8-.2-1-.3s-.4-.1-.4-.1h2.8c.5 0 1.1-.1 1.6-.1.3-.1.5-.1.8-.2.2-.1.5-.1.7-.3.5-.2.8-.5 1.1-.7l.4-.4c.1-.1.2-.3.2-.4.2-.1.2-.2.2-.2"/><path fill="#c68652" d="M99.5 84.4c3.8-1.5 8.5 3.6 10.9 19.5s4.8 28.8-1.2 28.3c-5.7-.5-20.9-43.4-9.7-47.8"/><path fill="#8c5734" d="M103.1 85.1s.1 0 .3.1.4.3.7.5l1 1c.3.4.7.9 1.1 1.5s.7 1.2 1 1.9c.4.7.6 1.5 1 2.2.3.8.6 1.6.8 2.5s.5 1.7.7 2.6.4 1.8.6 2.6c.1.9.3 1.7.4 2.5.2.8.2 1.6.3 2.4q.15 1.2.3 2.1c.1 1.3.2 2.5.2 3.2 0 .8.1 1.2.1 1.2s-.3-1.8-.7-4.4c-.2-1.3-.5-2.9-.8-4.5-.2-.8-.3-1.7-.5-2.5-.2-.9-.4-1.7-.6-2.6s-.4-1.7-.7-2.6c-.2-.8-.5-1.7-.8-2.4-.3-.8-.5-1.5-.9-2.2-.3-.7-.6-1.4-.9-1.9-.1-.3-.3-.6-.5-.8-.2-.3-.3-.5-.5-.7-.3-.4-.6-.8-.9-1.1s-.5-.5-.7-.6c.1 0 0 0 0 0M96 99.8s.3 1.6.8 3.9c.2 1.2.6 2.5.9 4l1.2 4.5c.4 1.5.9 3.1 1.4 4.5s1 2.7 1.4 3.8q.3.9.6 1.5c.2.4.4.8.5 1.2.3.6.4 1 .4 1s-.2-.3-.5-1c-.3-.6-.8-1.5-1.3-2.6-.3-.5-.5-1.1-.8-1.8-.3-.6-.6-1.3-.8-2q-.75-2.1-1.5-4.5c-.4-1.5-.8-3.1-1.2-4.6-.3-1.5-.6-2.9-.7-4.1-.2-1.2-.3-2.2-.4-2.9z"/><path fill="#c68652" d="M111.7 121.6c2.7 4.7 11.3 34.1 10 38.5-2 7.1-15.2-23.5-16.3-28.5-1.8-8.4 3.7-14.4 6.3-10"/><path fill="#8c5734" d="m105.2 130.5.3 1.2c.2.8.6 1.9 1 3.2s1.1 2.8 1.7 4.4c.7 1.6 1.4 3.3 2.2 4.9.8 1.7 1.6 3.3 2.3 4.9.8 1.5 1.5 3 2.1 4.2 1.3 2.5 2.1 4.1 2.1 4.1s-.2-.4-.7-1.1c-.4-.7-1.1-1.6-1.8-2.8s-1.5-2.6-2.3-4.1-1.6-3.2-2.4-4.8c-.8-1.7-1.5-3.4-2.1-5q-.9-2.4-1.5-4.5c-.4-1.3-.7-2.5-.8-3.2-.1-.9-.1-1.4-.1-1.4M113.3 125.3s.6 1.5 1.4 3.9c.4 1.2.9 2.6 1.4 4 .5 1.5.9 3.1 1.4 4.7.4 1.6.9 3.2 1.3 4.7s.7 2.9 1 4.2c.5 2.4.8 4.1.8 4.1s-.5-1.6-1.2-4-1.6-5.6-2.5-8.8-1.8-6.4-2.5-8.8c-.7-2.3-1.1-4-1.1-4"/><path fill="#c68652" d="M127.5 164.2c-1.1-2.2-4.4-6.1-6.8-6.8-2.3-.7-3 1.4-3.3 3.6s1.1 12.9 2.3 11 .1-7.6 1.3-4.8c.4.8 1 2.2 2.1 3.3 1.8 2.3 4.2 4.8 4.8 4.9.3 0 .2-.4 0-1.1.9.7 1.7 1.1 2.2 1.2 1.1.1.1-3.6-1-6.9.9 1.4 1.9 2.5 2.4 2.5.9-.2-4-6.9-4-6.9"/><path fill="#8c5734" d="m124.4 168.3.8.8c.4.5 1 1.2 1.4 2 .5.8.8 1.6 1 2.2s.3 1.1.3 1.1-.1-.1-.2-.3-.3-.4-.4-.7c-.4-.6-.8-1.3-1.2-2s-.9-1.5-1.2-2.1zM126.6 167.8s.4.4.9 1 1.1 1.6 1.5 2.5l.6 1.5c.2.5.3.9.4 1.3.2.8.2 1.3.2 1.3s-.1-.1-.2-.3-.2-.5-.4-.9c-.3-.7-.7-1.7-1.2-2.6-.4-1-.9-1.9-1.3-2.6-.3-.8-.5-1.2-.5-1.2M128 167c.2 0 .3.1.3.2.2.2.4.5.6.8s.3.6.4.9.1.4.1.4-.1-.1-.3-.4c-.2-.2-.3-.5-.5-.8s-.3-.6-.4-.8c-.1-.1-.1-.3-.2-.3M121.5 157.8s.1 0 .4.1c.2.1.6.3.9.5.7.5 1.6 1.3 2.4 2.2s1.4 1.9 1.9 2.7c.2.4.4.7.5.9l.2.4s-.4-.4-1-1.1-1.3-1.6-2.1-2.4c-.7-.9-1.5-1.7-2.1-2.3-.6-.7-1.1-1-1.1-1M119.7 172s0-.1.1-.2c0-.1 0-.4.1-.6 0-.5.1-1.2.2-1.9s.2-1.4.3-1.9.2-.9.2-.9.1.4.1.9.1 1.3 0 2-.2 1.4-.5 1.9c-.2.5-.5.7-.5.7"/><path fill="#f29c11" d="M94.1 121.2c3.4 2.7 12.9 10.2 22.1 28.7s5.2 33.7 2.8 34.8c-2.4 1-15.9-6.9-22-21.6s-9-35.2-8.7-38.1c.3-2.8 2.5-6.5 5.8-3.8"/><path fill="#e17522" d="M88.7 123.5s-.1.3-.1.8c-.1.5-.1 1.2-.1 2.2 0 1.9.3 4.6.9 7.8s1.4 6.9 2.3 10.8 2 8.1 3.3 12.2 3 8.1 5.1 11.6c1 1.7 2.2 3.3 3.3 4.8s2.4 2.7 3.5 3.8c1.2 1.1 2.3 2.1 3.4 2.9 1 .8 2 1.5 2.8 2s1.4.9 1.9 1.2c.4.3.7.4.7.4s-.2-.1-.7-.4c-.4-.3-1.1-.6-1.9-1.1s-1.8-1.1-2.8-1.9c-1.1-.8-2.2-1.7-3.4-2.8s-2.4-2.4-3.6-3.8-2.3-3-3.4-4.8c-2.1-3.5-3.8-7.5-5.2-11.6-1.3-4.1-2.4-8.3-3.3-12.3s-1.6-7.7-2.2-10.9-.8-5.9-.8-7.8c0-.9.1-1.7.1-2.2.1-.7.2-.9.2-.9M121.6 166.9s-.1-.8-.4-2.3-.8-3.5-1.6-5.9-1.9-5.2-3.2-8.1c-1.4-2.8-3-5.9-4.7-8.8-.9-1.5-1.8-2.9-2.7-4.3s-1.9-2.7-2.8-4c-1-1.3-1.9-2.5-2.9-3.6-.9-1.1-1.9-2.1-2.8-3s-1.7-1.7-2.5-2.4-1.4-1.3-2-1.8c-1.1-1-1.8-1.5-1.8-1.5s.7.5 1.8 1.5c.6.5 1.2 1.1 2 1.8s1.6 1.5 2.5 2.4 1.9 1.9 2.8 3c1 1.1 2 2.3 2.9 3.6 1 1.3 1.9 2.6 2.9 4 .9 1.4 1.9 2.8 2.7 4.3 1.7 2.9 3.3 6 4.7 8.8 1.4 2.9 2.4 5.7 3.2 8.1 1.6 4.8 1.9 8.2 1.9 8.2"/><path fill="#f29c11" d="M93.5 125.8c3.2 3.2 12.2 12 18.8 32s-.8 34.7-3.6 35.4-16.2-9.2-20.1-24.8-3.2-36.6-2.2-39.6c.8-2.8 3.9-6.2 7.1-3"/><path fill="#e17522" d="M87 127.3s-.1.2-.3.7-.3 1.2-.5 2.2c-.3 1.9-.5 4.7-.4 8s.3 7.2.5 11.3c.3 4.1.6 8.5 1.4 12.9.7 4.3 1.8 8.6 3.5 12.4.8 1.9 1.8 3.6 2.7 5.2.5.8 1 1.5 1.5 2.3.6.7 1 1.4 1.6 2 .5.6 1 1.2 1.6 1.8q.75.9 1.5 1.5c1 1 1.8 1.7 2.6 2.3.7.6 1.4 1.1 1.8 1.4s.6.5.6.5-.2-.2-.6-.5-1.1-.7-1.8-1.3c-.8-.6-1.7-1.3-2.7-2.2s-2.1-2-3.2-3.2c-.6-.6-1.1-1.3-1.7-2-.5-.7-1.1-1.5-1.6-2.3-1.1-1.6-2-3.4-2.9-5.3-1.7-3.8-2.9-8.2-3.6-12.5-.7-4.4-1.1-8.8-1.3-13-.1-2.1-.2-4.1-.2-6s-.1-3.7-.1-5.4c0-3.3.3-6.1.7-8 .2-1 .4-1.7.6-2.2.2-.3.3-.6.3-.6M115 175.6s0-.9-.1-2.4-.3-3.7-.7-6.2c-.2-1.3-.5-2.7-.9-4.1-.3-1.4-.8-2.9-1.3-4.5-1-3.1-2.2-6.3-3.6-9.5-.7-1.6-1.4-3.2-2.1-4.7-.4-.8-.8-1.5-1.2-2.2s-.8-1.5-1.2-2.2-.8-1.4-1.2-2c-.4-.7-.8-1.3-1.2-1.9-.8-1.2-1.7-2.4-2.4-3.4-.8-1-1.5-2-2.2-2.8q-1.05-1.2-1.8-2.1c-1-1.1-1.6-1.8-1.6-1.8l1.7 1.7c.6.5 1.2 1.2 1.9 2s1.5 1.7 2.3 2.7 1.7 2.1 2.5 3.4c.4.6.9 1.2 1.3 1.9s.9 1.3 1.3 2 .8 1.4 1.2 2.2c.4.7.8 1.5 1.2 2.3.8 1.5 1.5 3.1 2.2 4.7 1.3 3.2 2.5 6.5 3.5 9.6.5 1.6.9 3.1 1.2 4.6s.5 2.9.7 4.2c.4 2.6.4 4.8.5 6.3z"/><path fill="#f29c11" d="M69.2 122.2c-3.3 2.8-12.6 10.5-21.3 29.2s-4.4 33.8-2 34.8 15.7-7.3 21.5-22.2 8.1-35.4 7.7-38.4c-.4-2.5-2.6-6.1-5.9-3.4"/><path fill="#e17522" d="M74.7 124.4s.1.3.2.8.2 1.2.2 2.2c0 1.9-.1 4.6-.6 7.8s-1.2 6.9-1.9 10.9c-.8 4-1.7 8.2-3 12.4-1.2 4.2-2.9 8.2-4.9 11.7-1 1.8-2.1 3.4-3.2 4.9s-2.3 2.8-3.5 3.9-2.3 2.1-3.3 2.9-2 1.5-2.8 2-1.4.9-1.9 1.2c-.4.3-.7.4-.7.4s.2-.1.7-.4c.4-.3 1.1-.6 1.8-1.2.8-.5 1.7-1.2 2.7-2q1.5-1.2 3.3-3c1.1-1.2 2.3-2.4 3.4-3.9s2.2-3.1 3.2-4.9c2-3.5 3.6-7.6 4.8-11.7 1.3-4.1 2.2-8.3 3-12.3s1.5-7.7 2-10.9.8-5.9.7-7.8c0-.9-.1-1.7-.2-2.2zM42.8 168.6s.3-3.4 1.7-8.3c.7-2.5 1.7-5.3 3-8.2s2.8-6 4.5-8.9c.8-1.5 1.7-2.9 2.6-4.4.9-1.4 1.8-2.8 2.8-4.1.9-1.3 1.9-2.5 2.8-3.6s1.9-2.1 2.7-3.1c.9-.9 1.7-1.8 2.5-2.5s1.4-1.3 2-1.8c1.1-1 1.8-1.5 1.8-1.5s-.6.6-1.8 1.5c-.6.5-1.2 1.1-1.9 1.8s-1.5 1.6-2.4 2.5-1.8 2-2.7 3.1-1.9 2.3-2.8 3.6-1.9 2.7-2.7 4.1c-.9 1.4-1.7 2.9-2.6 4.4-1.6 3-3.2 6-4.5 8.9s-2.3 5.7-3 8.1-1.2 4.5-1.5 6c-.4 1.5-.5 2.4-.5 2.4"/><path fill="#f29c11" d="M87.3 128.1c2.4 4 9.1 15 11 36.1s-8.6 33.4-11.4 33.3c-2.9-.1-13.6-13.4-13.9-29.6s5.2-36.4 6.8-39c1.4-2.3 5.1-4.8 7.5-.8"/><path fill="#e17522" d="M80.7 127.8s-.2.2-.5.7c-.3.4-.6 1.1-1 2-.7 1.8-1.5 4.5-2.2 7.7-.7 3.3-1.4 7.1-2.1 11.2s-1.3 8.5-1.6 12.9-.1 8.9.6 12.9c.4 2 .9 4 1.5 5.8s1.3 3.5 2.1 4.9c.4.7.7 1.5 1.1 2.1.4.7.7 1.3 1.1 1.9.7 1.2 1.4 2.1 1.9 2.9.6.8 1.1 1.4 1.4 1.8s.5.6.5.6-.2-.2-.5-.6-.8-1-1.4-1.7c-.6-.8-1.3-1.7-2.1-2.8l-1.2-1.8c-.4-.6-.8-1.4-1.2-2.1-1.6-3-3-6.6-3.8-10.8-.8-4.1-1-8.6-.7-13.1s.9-8.9 1.7-13c.7-4.1 1.6-7.9 2.3-11.2s1.7-5.9 2.5-7.7c.4-.9.8-1.6 1.1-2s.5-.6.5-.6M96.9 182.2s.2-.9.5-2.4.5-3.7.7-6.3c.1-1.3.1-2.7.1-4.2s-.1-3.1-.2-4.7c-.3-3.3-.7-6.8-1.3-10.2-.3-1.7-.6-3.4-1-5.1s-.8-3.3-1.3-4.9c-.2-.8-.5-1.6-.7-2.3-.2-.8-.5-1.5-.8-2.2-.5-1.4-1.1-2.7-1.6-3.9-.6-1.2-1-2.3-1.5-3.3s-.9-1.8-1.3-2.5c-.7-1.3-1.2-2.1-1.2-2.1s.5.7 1.3 2.1c.4.6.8 1.5 1.4 2.4.5.9 1.1 2 1.6 3.2s1.1 2.5 1.7 3.9 1.1 2.9 1.6 4.5 1 3.2 1.4 4.9.8 3.4 1.1 5.2c.6 3.5 1 7 1.2 10.3.1 1.7.2 3.3.1 4.8 0 1.5-.1 2.9-.2 4.3-.2 2.6-.7 4.8-1 6.3-.3 1.4-.6 2.2-.6 2.2"/><path fill="#f29c11" d="M72 126.7c-3 3.4-11.7 12.7-17.2 33s2.4 34.6 5.2 35.1c2.8.6 15.8-10.1 18.9-26s1.4-36.8.4-39.7c-1.1-2.5-4.3-5.8-7.3-2.4"/><path fill="#e17522" d="M78.5 127.9s.2.2.4.7.5 1.2.7 2.1c.5 1.9.9 4.6 1.1 8 .1 1.7.1 3.5.2 5.4 0 1.9.1 3.9.1 6 0 4.2-.2 8.6-.7 13s-1.5 8.8-3 12.7c-.7 2-1.6 3.8-2.6 5.4-1 1.7-2 3.1-3.1 4.4-1 1.3-2.1 2.4-3 3.4s-1.8 1.7-2.6 2.4c-.7.6-1.3 1.1-1.7 1.4s-.6.5-.6.5.2-.2.6-.5 1-.8 1.7-1.5 1.6-1.5 2.5-2.5c.5-.5.9-1 1.4-1.6l1.5-1.8c1-1.3 2-2.8 2.9-4.5.9-1.6 1.8-3.5 2.5-5.4 1.5-3.9 2.4-8.2 2.9-12.6s.7-8.8.8-13c.1-4.1 0-8 0-11.3-.1-3.3-.4-6.1-.8-8-.2-.9-.4-1.7-.6-2.2-.5-.3-.6-.5-.6-.5M52.8 177.7s-.1-.9-.2-2.4c0-1.5-.1-3.7.2-6.3.1-1.3.3-2.7.5-4.2s.6-3 1-4.6c.9-3.2 1.9-6.5 3.1-9.8.6-1.6 1.3-3.3 2-4.8.3-.8.7-1.6 1.1-2.3.4-.8.7-1.5 1.1-2.2l1.2-2.1c.4-.7.8-1.3 1.2-2 .8-1.3 1.6-2.4 2.4-3.5.8-1 1.5-2 2.2-2.8q1.05-1.2 1.8-2.1c1-1.1 1.6-1.8 1.6-1.8s-.6.7-1.5 1.8c-.5.6-1 1.3-1.7 2.2-.7.8-1.3 1.8-2.1 2.9-.7 1.1-1.5 2.3-2.3 3.6-.4.6-.8 1.3-1.1 2-.4.7-.8 1.4-1.1 2.1-.4.7-.8 1.5-1.1 2.2-.4.8-.7 1.5-1.1 2.3-.7 1.6-1.3 3.2-1.9 4.8-1.2 3.3-2.2 6.6-3.1 9.7-.4 1.6-.8 3.1-1.1 4.6s-.5 2.9-.7 4.1c-.3 2.6-.4 4.8-.5 6.3.1 1.4.1 2.3.1 2.3"/><path fill="#e17522" d="M100.7 125.7s-10 3.4-18.7 3.1-17.3-3-17.3-3-.6.5-.4 1.2c.2.6 11.9 3.3 21.2 2.9s15.3-2.9 15.3-2.9.4-1.3-.1-1.3"/><path fill="#cf5619" d="M100.8 127s-2.1 1.1-5.5 2c-1.7.4-3.7.9-5.9 1.2-1.1.1-2.2.3-3.4.3-1.1.1-2.3.1-3.5.1-1.2-.1-2.3-.1-3.5-.2-1.1-.1-2.3-.2-3.3-.4-1.1-.1-2.1-.3-3.1-.5s-1.9-.4-2.8-.5c-1.7-.4-3.1-.8-4.1-1.1s-1.5-.6-1.5-.6.5.2 1.5.5 2.4.6 4.1.9 3.7.6 5.9.8l3.3.3c1.1.1 2.3.2 3.4.2h3.4c1.1 0 2.3-.1 3.3-.2 2.2-.2 4.1-.6 5.8-1s3.1-.8 4-1.1c1.4-.5 1.9-.7 1.9-.7"/><path fill="#c68652" d="M75.8 69.9c.1 4.8 0 10.1-2.6 11.2S60.6 84.4 60 87.5c-3.6 17.8 6 35.3 36.9 23 12.6-5 10.6-25.4 4.7-26.4-10.9-1.9-12-2.3-11.9-7.8.3-9.6-14.1-12-13.9-6.4"/><path fill="#8c5734" d="M75.7 70.6s.2 1 .2 2.6c0 .8 0 1.7-.1 2.7s-.2 2-.6 3c-.2.5-.4 1-.8 1.4-.2.2-.5.4-.7.5s-.4.3-.7.4c-.9.4-1.7.8-2.5 1-1.5.4-2.6.4-2.6.4s.2-.1.7-.2c.4-.1 1-.3 1.7-.6s1.5-.6 2.3-1.1c.4-.2.9-.5 1.2-.8s.5-.8.7-1.2c.4-.9.5-1.9.7-2.9.1-.9.2-1.8.2-2.6.3-1.5.3-2.6.3-2.6M90 78.7s.1.3.2.7.2.9.3 1.4.2 1 .3 1.4c.1.2.1.4.2.5 0 .1.1.2.1.2s-.3-.1-.5-.5c-.3-.3-.5-.9-.6-1.4-.1-.6-.1-1.1 0-1.6-.2-.4 0-.7 0-.7"/><path fill="#8c5734" d="M95.3 82.7s-.4 0-1-.1-1.4-.3-2.1-.6c-.4-.2-.7-.4-1-.6s-.6-.5-.7-.7c-.4-.5-.5-.9-.5-.9l.2.2c.1.1.3.3.5.4.2.2.5.3.8.5s.6.3 1 .5c.7.3 1.4.6 1.9.9.6.3.9.4.9.4"/><path fill="#ffc943" d="M62 105.5c1.8 1.2 6.3 2.3 7.6-2.6 2.6-9.8-2.9-19.9-2.9-19.9 1.7-.7 3.8-1.1 3.8-1.1 2 3.6 3.3 8.2 4.2 12.6 0 0 5.4.1 9.4 2.1 3.1 1.5 5.3 4.2 5.3 4.2s1.7-3.4 4.2-5.2c2.6-1.9 4.5-1.9 4.5-1.9-.2-3.4-.1-7.1-1.8-11 0 0 3.4.1 3.9.7 0 0 2.7 13.2 4.4 19.5 2.5 9.2-3.7 22.9-3.7 22.9s-15.2 7.7-36 .2z"/><path fill="#e38d32" d="M101.5 124.4s.7-2 1.6-5.1c.5-1.5.9-3.4 1.3-5.3.2-1 .4-2 .5-3s.2-2.1 0-3.1c-.2-2.1-.6-4.2-.9-6.2q-.6-3-1.2-5.4c-.4-1.6-.6-2.9-.8-3.8-.1-.5-.2-.8-.2-1.1V91v.4c.1.2.2.6.3 1.1.3.9.6 2.2 1.1 3.7.4 1.6.9 3.4 1.4 5.3.4 2 .8 4.1 1 6.3.1 1.1 0 2.2-.1 3.3s-.3 2.1-.6 3.1c-.5 2-1 3.8-1.5 5.3-1 3-1.9 4.9-1.9 4.9"/><g fill="#f29c11"><path d="M92.2 107.4s-.4-.1-1-.3-1.4-.5-2.2-.9-1.5-.8-2.1-1.1c-.5-.3-.9-.6-.9-.6s.4.1 1 .3 1.4.5 2.2.9 1.5.8 2.1 1.1.9.6.9.6"/><path d="M92.4 103.9s-.3.3-.8.7-1.1.9-1.8 1.4-1.4.9-2 1.2-1 .4-1 .4.3-.3.8-.7 1.1-.9 1.8-1.4 1.4-.9 2-1.2c.6-.2 1-.4 1-.4"/></g><g fill="#f29c11"><path d="M92 114.1s-.4-.1-1-.3-1.4-.5-2.2-.9-1.5-.8-2.1-1.1c-.5-.3-.9-.6-.9-.6s.4.1 1 .3 1.4.5 2.2.9 1.5.8 2.1 1.1.9.6.9.6"/><path d="M92.2 110.6s-.3.3-.8.7-1.1.9-1.8 1.4-1.4.9-2 1.2-1 .4-1 .4.3-.3.8-.7 1.1-.9 1.8-1.4 1.4-.9 2-1.2c.6-.2 1-.4 1-.4"/></g><path fill="#c68652" d="M65.2 84.9c-3.8-1.7-8.6 3.6-11.3 20.4s-5.4 30.4.6 30c5.7-.4 21.8-45.5 10.7-50.4"/><path fill="#8c5734" d="M61.6 85.5s-.1 0-.3.2c-.2.1-.4.3-.7.6s-.6.7-.9 1.1c-.3.5-.7 1-1 1.6s-.6 1.3-1 2c-.3.7-.6 1.5-.9 2.3s-.6 1.7-.8 2.6-.5 1.8-.7 2.7l-.6 2.7c-.2.9-.4 1.8-.5 2.6-.2.9-.3 1.7-.5 2.5-.1.8-.3 1.5-.4 2.2-.4 2.8-.7 4.6-.7 4.6s0-.5.1-1.3.1-2 .3-3.4c.1-.7.2-1.5.3-2.3s.2-1.6.4-2.5.3-1.8.5-2.7l.6-2.7c.2-.9.5-1.8.8-2.7s.6-1.7.9-2.6c.3-.8.6-1.6 1-2.4.4-.7.7-1.4 1.1-2 .3-.6.7-1.1 1.1-1.6s.7-.8 1-1.1c.5-.2.9-.4.9-.4M60.6 127.1s.2-.4.5-1.1c.1-.3.3-.7.5-1.2s.4-1 .6-1.6c.5-1.2 1-2.6 1.5-4 .5-1.5 1-3.1 1.5-4.7s.9-3.2 1.3-4.8c.4-1.5.7-3 1-4.2.6-2.5.9-4.1.9-4.1s-.1 1.7-.5 4.2c-.2 1.3-.5 2.7-.8 4.3-.4 1.5-.8 3.2-1.2 4.8-.5 1.6-1 3.2-1.6 4.7-.3.7-.6 1.5-.9 2.1-.3.7-.6 1.3-.8 1.9-.5 1.2-1 2.1-1.4 2.7s-.6 1-.6 1"/><path fill="#c68652" d="M52.3 124c-2.8 4.9-11.9 35.8-10.8 40.5 1.8 7.5 15.7-24.5 16.9-29.8 1.9-8.8-3.5-15.3-6.1-10.7"/><path fill="#8c5734" d="M58.5 133.7s-.1.5-.2 1.3c-.2.8-.4 2-.9 3.4-.4 1.4-.9 3-1.6 4.7s-1.4 3.5-2.2 5.2-1.7 3.5-2.5 5.1-1.7 3.1-2.4 4.3c-.7 1.3-1.4 2.3-1.8 3-.5.7-.7 1.1-.7 1.1s.9-1.7 2.2-4.3c.7-1.3 1.4-2.8 2.2-4.4q1.2-2.4 2.4-5.1c.8-1.7 1.6-3.5 2.3-5.2s1.3-3.2 1.8-4.6.9-2.5 1.1-3.3zM50.8 127.7s-.5 1.7-1.2 4.3-1.7 6-2.7 9.4c-.5 1.7-1 3.4-1.5 5s-.9 3.1-1.3 4.4c-.8 2.6-1.3 4.2-1.3 4.2s.4-1.7 1-4.3c.3-1.3.7-2.8 1.1-4.4.5-1.6.9-3.3 1.4-5s1.1-3.4 1.5-5c.5-1.6 1-3.1 1.5-4.3.8-2.7 1.5-4.3 1.5-4.3"/><path fill="#c68652" d="M36.2 167.6c1.1-2.3 4.5-6.4 6.9-7.1s3 1.6 3.2 3.9-1.4 13.6-2.5 11.6 0-8-1.2-5.2c-.4.9-1.1 2.3-2.1 3.5-1.8 2.4-4.3 5-4.9 5-.3 0-.2-.4 0-1.2-1 .7-1.8 1.1-2.2 1.2-1.1.1 0-3.9 1.1-7.3-.9 1.4-2 2.6-2.4 2.6-1-.1 4.1-7 4.1-7"/><path fill="#8c5734" d="m39.2 171.9-.5 1c-.3.6-.8 1.4-1.2 2.2-.5.8-.9 1.5-1.3 2.1-.2.3-.3.5-.4.7s-.2.3-.2.3.1-.5.3-1.1c.2-.7.6-1.5 1.1-2.3s1-1.5 1.5-2c.3-.6.7-.9.7-.9M37.1 171.3s-.2.5-.6 1.3c-.4.7-.9 1.7-1.3 2.7-.5 1-.9 2-1.2 2.8-.2.4-.3.7-.4.9l-.2.4s0-.6.2-1.4c.1-.4.2-.9.4-1.4l.6-1.5c.5-1 1.1-2 1.6-2.7s.9-1.1.9-1.1M35.6 170.5s-.1.1-.2.4c-.1.2-.3.6-.4.9-.2.3-.4.6-.5.8s-.3.4-.3.4 0-.2.1-.5.2-.6.4-.9.4-.6.6-.8zc-.1 0 0 0 0 0M42.3 160.9s-.5.3-1.1 1c-.6.6-1.4 1.5-2.2 2.4-.4.5-.8.9-1.1 1.3-.4.4-.7.8-1 1.2-.6.7-1 1.1-1 1.1s.1-.1.2-.4l.5-1c.4-.8 1.1-1.8 1.9-2.7s1.7-1.8 2.4-2.3c.4-.3.7-.4 1-.6zM43.8 176s-.3-.3-.5-.8-.3-1.2-.4-1.9 0-1.4 0-2c.1-.5.2-.9.2-.9s.1.4.2.9.2 1.2.2 1.9.1 1.4.1 1.9v.6c.2.2.2.3.2.3"/><path fill="#c68652" d="M94.5 37.4c5 3.1 8.3 12.6 7.2 20.8 0 0 2.1 5.6.3 10.6s-9.4 15.3-19.7 9.1-21.5-30-10.3-38.5 19.1-4.1 22.5-2"/><path fill="#8c5734" d="M101.6 58.2s.2.6.5 1.6.6 2.5.7 4.4c0 .9 0 1.9-.2 3s-.5 2.1-1 3.2c-1 2.1-2.4 4.1-4.2 5.9-1.8 1.7-3.9 3.1-6.2 3.6-1.1.3-2.3.3-3.3.3-1.1-.1-2-.3-2.9-.6-1.7-.6-3-1.5-3.9-2.1-.4-.3-.7-.6-1-.8l-.3-.3s.1.1.4.3c.2.2.6.4 1 .7s1 .6 1.6 1c.7.3 1.4.7 2.3.9s1.8.5 2.8.5 2.1-.1 3.2-.3c2.1-.6 4.2-1.9 5.9-3.6s3.1-3.7 4.1-5.7c.5-1 .8-2 1-3s.3-2 .3-2.9c0-1.8-.2-3.3-.4-4.3-.2-1.2-.4-1.8-.4-1.8"/><ellipse cx="17.6" cy="23.7" fill="#3b2919" rx="1" ry="2.1" transform="translate(67 34)"/><ellipse cx="29.7" cy="23.1" fill="#3b2919" rx="1" ry="2.1" transform="translate(67 34)"/><path fill="#664228" d="M93.3 61s.4.3.9.9c.2.3.5.6.7 1s.5.9.6 1.3c.1.2.1.5.1.8s0 .5-.1.8c-.1.5-.5.9-.7 1.1-.3.2-.6.4-.8.5s-.3.1-.3.1.1-.1.3-.2q.3-.15.6-.6c.2-.3.4-.6.5-1s0-.8-.2-1.2l-.6-1.2c-.2-.4-.5-.7-.6-1.1-.3-.7-.4-1.2-.4-1.2M95.4 71.3s-.5.3-1.3.6-2 .6-3.1.6c-.6 0-1.2 0-1.7-.1s-1-.2-1.4-.3-.7-.3-1-.3l-.4-.2h.4c.2 0 .6.1 1 .1.8.1 1.9.1 3 .1.6 0 1.1 0 1.6-.1.5 0 1-.1 1.4-.2.9 0 1.5-.2 1.5-.2M87.2 53.8s-.5-.1-1.2-.1-1.6 0-2.5.1c-.5.1-.9.2-1.3.3l-1.2.3c-.3.1-.6.2-.8.2-.2.1-.3.1-.3.1s.1-.1.3-.2.4-.3.7-.5.7-.4 1.1-.5c.4-.2.9-.3 1.4-.3.5-.1 1-.1 1.4-.1.5 0 .9.1 1.2.2.8.2 1.2.5 1.2.5M99.3 53.1s-.4-.1-.9-.1c-.5-.1-1.2-.1-1.9-.1s-1.4.1-1.9.2c-.3 0-.5.1-.7.1h-.3l.2-.2c.1-.1.3-.2.6-.4l.9-.3c.3-.1.7-.1 1.1-.2.8 0 1.5.2 2 .4z"/><path fill="#3b2919" d="M86.4 56.9s-.3-.3-.8-.5c-.2-.1-.5-.3-.9-.3-.2-.1-.3 0-.5-.1h-.5c-.2 0-.4 0-.5.1-.2 0-.3.1-.5.1l-.9.3q-.45.15-.6.3c-.2.1-.3.1-.3.1l.2-.2.5-.5c.2-.2.5-.4.9-.5.3-.2.8-.3 1.2-.3s.9 0 1.2.2c.4.1.7.4.9.6.5.3.6.7.6.7M99.5 56s-.3-.3-.8-.5-1.1-.3-1.8-.2c-.2 0-.3.1-.5.1s-.3.1-.5.2l-.9.3q-.45.15-.6.3l-.2.1.2-.2.5-.5c.2-.2.5-.4.8-.5.3-.2.7-.3 1.1-.4h.6c.2 0 .4 0 .6.1.4.1.7.3.9.5.5.3.6.7.6.7"/><path fill="#8c5734" d="M76.8 72.8s-.5-.4-1.3-1.1c-.7-.7-1.6-1.7-2.3-2.8s-1.3-2.3-1.7-3.2c-.2-.5-.3-.9-.3-1.1-.1-.3-.1-.4-.1-.4s.1.1.2.4.3.6.6 1c.5.8 1.1 1.9 1.9 3 .7 1.1 1.5 2.1 2 2.9.6.8 1 1.3 1 1.3"/><path fill="#664228" d="M96.5 39.5s.8-8.3-13.5-7.7c-11.1.4-13.4 6.9-13.4 6.9s0-2.9-2.7-3.3c0 0 2 1.2 1.6 4.1 0 0-.5-1.2-2.5-1.5 0 0 .3 1.6 1.9 2.8 0 0-5.3 7.7-.2 17.2 0 0 3.9-1 5.1.8-.1 0 1.2-23.8 23.7-19.3"/><path fill="#402919" d="M67.8 40.9s-.5.9-1 2.4c-.3.7-.5 1.6-.7 2.5s-.3 2-.3 3v1.5c0 .5.1 1 .1 1.5.1.5.1.9.2 1.4 0 .4.2.8.3 1.2s.2.7.3 1 .2.6.2.8c.1.4.2.7.2.7l-.3-.6c-.1-.2-.2-.5-.4-.7-.2-.3-.3-.6-.4-1s-.3-.8-.4-1.2-.2-.9-.3-1.4-.1-1-.2-1.5c0-.5-.1-1.1 0-1.6.1-1.1.2-2.1.5-3.1.1-.5.3-.9.4-1.4.2-.4.3-.8.5-1.2.3-.7.7-1.3.9-1.7s.4-.6.4-.6M68.4 39.5s-.2-.1-.4-.3-.5-.4-.8-.5c-.3-.2-.6-.4-.8-.5L66 38s.2-.1.5-.1h.5c.2 0 .4.1.6.2.4.2.6.6.7.9s.1.5.1.5M69.5 38.7s-.1-.3-.3-.7c-.1-.2-.2-.4-.3-.7-.1-.2-.2-.5-.4-.7-.1-.1-.2-.2-.2-.3L68 36c-.2-.2-.4-.3-.6-.4s-.4-.2-.5-.2-.2-.1-.2-.1.1 0 .2-.1c.1 0 .3-.1.6-.1.2 0 .5.1.8.3s.5.4.7.7c.4.6.5 1.2.5 1.7.1.6 0 .9 0 .9M95.3 36s-.2-.3-.7-.8c-.2-.2-.5-.5-.9-.8s-.8-.5-1.3-.8-1.1-.5-1.7-.7c-.3-.1-.6-.2-1-.3-.3-.1-.7-.2-1-.2-.7-.1-1.4-.2-2.2-.3-.7 0-1.5-.1-2.3-.1s-1.5 0-2.3.1-1.5.1-2.2.2c-1.4.2-2.7.5-3.8.9s-1.9.8-2.5 1.2-.8.6-.8.6.2-.3.8-.7c.5-.4 1.4-1 2.4-1.4q.75-.3 1.8-.6c.6-.2 1.3-.4 2.1-.5.7-.1 1.5-.2 2.2-.3.8-.1 1.5-.1 2.3-.1s1.6.1 2.3.1c.8.1 1.5.2 2.2.3.4.1.7.2 1.1.3.3.1.7.2 1 .3.6.2 1.2.5 1.7.8 1 .6 1.7 1.3 2.2 1.8.5.7.6 1 .6 1"/><path fill="#c68652" d="M74.6 61.5c-.7-1.8-3-5.1-10.2-7.7 0 0 1.3 12.7 8.4 12.4 2-.1 2.2-3.5 1.8-4.7"/><path fill="#8c5734" d="M64.3 53.8s.9.2 2.2.6c.6.2 1.4.5 2.1.9l1.2.6c.4.2.8.5 1.1.7.4.3.7.6 1.1.9s.6.6 1 .9c.3.3.5.7.8 1 .2.3.4.7.5 1l.3.9c.1.3.1.5.1.7 0 .4.1.6.1.6s-.1-.2-.2-.6c-.1-.2-.1-.4-.2-.7-.1-.2-.3-.5-.4-.8l-.6-.9c-.3-.3-.5-.6-.8-.9s-.6-.6-.9-.8c-.3-.3-.7-.6-1-.8-.7-.5-1.5-1-2.2-1.4s-1.4-.8-2-1.1c-1.4-.4-2.2-.8-2.2-.8"/><path fill="#8c5734" d="M65.7 55.5s.7.2 1.8.7c.5.2 1.1.5 1.7.9l.9.6c.3.2.6.5.9.8.1.1.2.3.4.5.1.2.2.3.2.6.1.4.1.8.1 1.2 0 .7-.1 1.3.1 1.8s.6.7.9.8.5.2.5.2-.2 0-.5-.1c-.2 0-.4-.1-.6-.2q-.3-.15-.6-.6c-.3-.6-.3-1.3-.3-2 0-.3-.1-.7-.1-1 0-.1-.1-.3-.2-.5-.1-.1-.2-.3-.3-.4-.2-.3-.5-.5-.7-.7-.3-.2-.5-.4-.8-.6-.6-.4-1.1-.8-1.6-1.1-1.2-.5-1.8-.9-1.8-.9"/><path fill="#8c5734" d="M70.4 58.5s-.1.2-.3.4c-.1.2-.3.5-.4.8s-.3.6-.4.9c-.1.1-.1.2-.2.3 0 .1-.1.1-.1.1s-.1-.2-.1-.5 0-.7.2-1.1.5-.7.8-.9zM73.7 65.8s-.1.1-.4.3c-.3.1-.7.3-1.2.4h-.9c-.3-.1-.6-.1-.9-.3-.3-.1-.6-.3-.9-.5s-.5-.5-.8-.7c-.3-.3-.5-.5-.7-.8s-.4-.6-.6-.8c-.4-.5-.6-1.1-.8-1.6s-.3-.9-.4-1.2-.1-.5-.1-.5.4.6.9 1.5c.3.4.6.9 1 1.4l1.2 1.5c.2.2.5.5.7.6.3.2.5.4.8.5.3.2.5.2.8.3s.5.1.8.1h.7c.2 0 .4-.1.5-.1s.3-.1.3-.1"/><g fill="#664228"><path d="M87.5 35.7c8.6-2.5 12.1 4.2 13.3 5.5 1.1 1.3 3.8 1.6 3.8 1.6-1.1.7-3 1-3 1 .6.6.8 2.1 1.8 3.6s3.4 1.5 3.4 1.5c-.3.2-.8.3-1.3.3.9.4 1.7.6 1.7.6-.7 1-3.4 1.5-3.4 1.5.3 6.7-2.7 7.8-3.2 8 1.7-.5.8-8 .8-8s-.8.1-3.2-1.8-3.3-5.7-3.3-5.7c-.6 2.6 1 3.7 1 3.7-1.3 0-2.9-1.8-2.9-1.8.3.8 1.7 2.2 1.7 2.2-5.2-1.4-6.3-5.1-6.3-5.1-.2 2.4 2.1 4.5 2.1 4.5-5.4-.2-7.2-3.4-7.2-3.4.5 1.7 3.1 3.4 3.1 3.4-5.7-.8-5.9-4.2-6.1-5.1-.2-1.4-.1-4.4 7.2-6.5M100.5 59.2s-.1 0 0 0"/></g><path fill="#664228" d="M80.6 40.3c2.9 2.3 0 7.1-2.3 9.6-2.2 2.5.1 5.2.1 5.2s-3.6-.1-3.6-3.2c0 0-.5 4.8 2.7 5.8 0 0-1.1.4-2-.2 0 0 1.1 1.5 2.5 1.5 0 0-2.1 1.2-3.1 0 0 0 2.2 3.8.2 5 0 0-.4-2.6-2.2-3.5-2.8-1.4-6.5-6.6-2.5-13.5 2.9-4.8 7-9.3 10.2-6.7"/><path fill="#402919" d="M78.5 55.1s-.1 0-.3.1h-.9c-.4-.1-.8-.2-1.2-.5-.4-.2-.8-.7-1-1.1-.1-.2-.2-.5-.3-.7s-.1-.5-.2-.7c-.1-.5-.1-.9 0-1.3 0-.4.1-.7.2-.9 0-.2.1-.3.1-.3v.3c0 .2 0 .5.1.8 0 .2.1.4.1.5 0 .2.1.4.1.6s.1.4.2.6l.3.6c.1.2.2.4.4.5l.4.4c.3.3.6.4 1 .6.3.1.6.2.8.3zM78.1 58.9s-.3.4-.9.6c-.3.1-.7.2-1.2.2-.2 0-.5-.1-.7-.1-.2-.1-.5-.2-.7-.3-.4-.3-.8-.6-1-.9-.1-.2-.3-.3-.4-.5s-.2-.3-.3-.5c-.2-.3-.2-.6-.3-.8s-.1-.3-.1-.3l.2.2c.1.2.3.4.5.6.1.1.2.3.3.4l.4.4c.1.2.3.3.4.4s.3.2.5.3.4.2.5.3c.2 0 .4.1.5.1.4.1.7.1 1 0 .3 0 .6-.1.8-.2.4.1.5.1.5.1M73.1 60.3s-.6-.1-1.3-.7c-.4-.3-.8-.6-1.2-1s-.7-.9-1-1.5c-.3-.5-.5-1.1-.6-1.7s-.2-1.1-.2-1.5v-1.5s0 .1.1.4.1.6.2 1c.1.2.1.4.2.7.1.2.1.5.2.7l.6 1.5c.3.5.5 1 .9 1.4.3.4.6.8.9 1.1.7.8 1.2 1.1 1.2 1.1"/><g fill="#402919"><path d="M104.6 42.8h-.8c-.5-.1-1.2-.2-2-.6-.4-.2-.8-.4-1.2-.8-.4-.3-.8-.7-1-1.2-.1-.2-.3-.5-.4-.7-.2-.2-.3-.4-.5-.6-.3-.4-.7-.8-1.1-1.2s-.8-.7-1.3-1-.9-.5-1.4-.7-.9-.3-1.4-.5c-.5-.1-.9-.2-1.3-.3-.4 0-.8-.1-1.1-.1h-1.7s.3 0 .8-.1c.2 0 .5-.1.9-.1h1.2c.4 0 .9.1 1.4.2s1 .2 1.5.4 1 .4 1.5.7 1 .6 1.4 1 .8.8 1.2 1.3c.2.2.3.5.5.7.1.2.3.5.4.7.5.9 1.2 1.5 1.9 1.9s1.4.7 1.8.8.7.2.7.2M105.1 50.9s-.2.1-.5.2-.7.2-1.3.3c-.3 0-.6.1-.9.1s-.7 0-1-.1-.7-.1-1-.2c-.4-.1-.7-.3-1-.4l-.9-.6c-.3-.2-.5-.5-.8-.7-.2-.3-.4-.5-.6-.8-.2-.2-.3-.5-.5-.7-.3-.5-.4-.9-.6-1.2-.1-.3-.2-.5-.2-.5s.1.1.3.4c.2.2.4.6.8 1 .2.2.3.4.6.6l.7.7c.3.2.5.4.8.6s.6.4.9.5c.6.3 1.2.5 1.9.7.6.1 1.2.2 1.8.2h1.3c0-.1.2-.1.2-.1M86.4 47s-.6.1-1.4 0c-.4-.1-.9-.2-1.4-.3-.5-.2-1-.5-1.5-.8-.5-.4-.8-.8-1.1-1.3-.2-.2-.2-.5-.3-.7s-.2-.4-.2-.7c0-.2-.1-.4-.1-.6v-.8s.1.1.1.4c0 .1.1.2.1.4s.2.3.2.5l.3.6c.1.2.2.4.4.6.1.2.3.4.5.6s.4.4.6.5c.2.2.4.3.6.4s.4.3.7.4c.4.2.9.4 1.2.5.7.2 1.3.3 1.3.3M90.5 47s-.6.1-1.5.1c-.9-.1-2.2-.4-3.3-1-.3-.1-.5-.3-.8-.5s-.5-.4-.7-.6l-.6-.6c-.2-.2-.3-.4-.4-.6-.3-.4-.4-.7-.5-1l-.2-.4.3.3c.2.2.4.5.7.8l.5.5c.2.2.4.4.6.5.4.3.9.7 1.4.9.5.3 1 .5 1.6.7.5.2 1 .3 1.5.5.8.3 1.4.4 1.4.4M94.7 47.7s-.6 0-1.6-.3c-.9-.3-2.1-.9-3-1.8-.2-.2-.4-.5-.6-.7s-.4-.5-.5-.8c-.2-.3-.3-.5-.4-.8-.1-.2-.2-.5-.3-.7s-.1-.4-.2-.6c0-.2 0-.4-.1-.5v-.4s.1.1.2.4c0 .1.1.3.2.5l.3.6c.1.2.2.4.3.7.1.2.3.5.4.7.2.2.3.5.5.7s.4.5.6.7c.4.4.9.8 1.4 1.1.2.1.5.3.7.4s.4.3.6.4l1 .5c.4-.2.5-.1.5-.1M95.9 47.3s-.3.1-.8 0c-.2 0-.5-.1-.8-.3-.3-.1-.5-.3-.8-.6-.5-.5-.8-1-1-1.5-.1-.2-.1-.4-.2-.6v-.2l.2.2.4.4c.2.2.3.4.5.6l.6.6c.4.4.9.7 1.2 1 .4.3.7.4.7.4M103.6 43.2s-.4.3-1 .6c-.3.1-.8.2-1.2.3-.5 0-1 0-1.4-.1-.2 0-.5-.1-.7-.2s-.4-.2-.7-.3c-.2-.1-.4-.2-.6-.4-.2-.1-.3-.3-.5-.4-.3-.2-.4-.5-.6-.7-.1-.2-.2-.3-.2-.3s.1.1.3.2.4.3.7.4c.2.1.3.2.5.3s.4.2.6.2c.4.1.8.3 1.2.4 1.7.6 3.6 0 3.6 0"/></g><path fill="#402919" d="M106.8 48.9s-.2.2-.6.4-.9.4-1.5.4c-.3 0-.6 0-.9-.1s-.5-.2-.7-.3-.3-.3-.4-.4-.1-.2-.1-.2h.2c.1 0 .3.1.5.1.4.1.9.1 1.4.1s1-.1 1.4-.1c.4.1.7.1.7.1"/><path fill="#664228" d="M92.8 66.3s-.3.4-.6.6c-.1.1-.3.2-.3.3l-.2.2s-.1-.1-.1-.3.1-.5.3-.6c.4-.3.9-.2.9-.2"/><path fill="#efcc20" d="M73.2 45.3c-1.7-1.2-4-3.2-2.3-4.2 1.9-1.1 2.9 2.9 3.2 4.3 0-2 .2-5.8 2.2-4.9 1.9.9-.4 3.7-1.6 4.9 1.7-1.2 4.6-2.8 5-.8.3 1.9-2.7 1.8-4.5 1.6 1.7 1.2 4 3.2 2.3 4.1-1.8 1.1-2.8-2.3-3.2-4 0 2.1-.5 5.2-2.2 4.3s.1-3.3 1.3-4.6c-1.7 1.2-4.5 2.6-4.8.7s2.8-1.7 4.6-1.4"/><circle cx="6.162" cy="5.821" r="1.1" fill="#fffffb" transform="rotate(-63.097 72.737 -29.557)"/></g></svg>