<svg xmlns="http://www.w3.org/2000/svg" viewBox="0 0 265.2 188.9"><g transform="translate(-10 -10)"><path d="m260.8 10 5.4 5.4v40.5l9 9V181l-9 9v5.4c0 2-1.6 3.5-3.5 3.5H35.8c-2 0-3.5-1.6-3.5-3.5V13.5c0-2 1.6-3.5 3.5-3.5h225.1m-.4 63c0 3.1 2.5 5.7 5.7 5.7 3.1 0 5.7-2.5 5.7-5.7s-2.5-5.7-5.7-5.7c-3.1 0-5.7 2.5-5.7 5.7m0 99c0 3.1 2.5 5.7 5.7 5.7 3.1 0 5.7-2.5 5.7-5.7s-2.5-5.7-5.7-5.7c-3.1 0-5.7 2.5-5.7 5.7M80.5 19c0 3.1 2.5 5.7 5.7 5.7 3.1 0 5.7-2.5 5.7-5.7s-2.5-5.7-5.7-5.7c-3.1 0-5.7 2.5-5.7 5.7M76 190c0 3.1 2.5 5.7 5.7 5.7s5.7-2.5 5.7-5.7c0-3.1-2.5-5.7-5.7-5.7S76 186.8 76 190m134.7 0c0 .8.7 1.5 1.5 1.5s1.5-.7 1.5-1.5-.7-1.5-1.5-1.5-1.5.7-1.5 1.5m9 0c0 .8.7 1.5 1.5 1.5s1.5-.7 1.5-1.5-.7-1.5-1.5-1.5-1.5.7-1.5 1.5m9 0c0 .8.7 1.5 1.5 1.5s1.5-.7 1.5-1.5-.7-1.5-1.5-1.5-1.5.7-1.5 1.5m9 0c0 .8.7 1.5 1.5 1.5s1.5-.7 1.5-1.5-.7-1.5-1.5-1.5-1.5.7-1.5 1.5m9 0c0 .8.7 1.5 1.5 1.5s1.5-.7 1.5-1.5-.7-1.5-1.5-1.5-1.5.7-1.5 1.5m9 0c0 .8.7 1.5 1.5 1.5s1.5-.7 1.5-1.5-.7-1.5-1.5-1.5-1.5.7-1.5 1.5m.3-99c0 .9.8 1.7 1.7 1.7s1.7-.8 1.7-1.7-.8-1.7-1.7-1.7-1.7.8-1.7 1.7m9 0c0 .9.8 1.7 1.7 1.7s1.7-.8 1.7-1.7-.8-1.7-1.7-1.7-1.7.8-1.7 1.7m-9 9c0 .9.8 1.7 1.7 1.7s1.7-.8 1.7-1.7-.8-1.7-1.7-1.7-1.7.8-1.7 1.7m9 0c0 .9.8 1.7 1.7 1.7s1.7-.8 1.7-1.7-.8-1.7-1.7-1.7-1.7.8-1.7 1.7m-9 9c0 .9.8 1.7 1.7 1.7s1.7-.8 1.7-1.7-.8-1.7-1.7-1.7-1.7.7-1.7 1.7m9 0c0 .9.8 1.7 1.7 1.7s1.7-.8 1.7-1.7-.8-1.7-1.7-1.7-1.7.7-1.7 1.7M104.3 30.7c0 .9.8 1.7 1.7 1.7s1.7-.8 1.7-1.7-.8-1.7-1.7-1.7-1.7.8-1.7 1.7m0 9c0 .9.8 1.7 1.7 1.7s1.7-.8 1.7-1.7-.8-1.7-1.7-1.7-1.7.8-1.7 1.7m-9-9c0 .9.8 1.7 1.7 1.7s1.7-.8 1.7-1.7S97.9 29 97 29s-1.7.8-1.7 1.7m0 9c0 .9.8 1.7 1.7 1.7s1.7-.8 1.7-1.7S97.9 38 97 38s-1.7.8-1.7 1.7m-9-9c0 .9.8 1.7 1.7 1.7s1.7-.8 1.7-1.7S88.9 29 88 29s-1.7.8-1.7 1.7m0 9c0 .9.8 1.7 1.7 1.7s1.7-.8 1.7-1.7S88.9 38 88 38s-1.7.8-1.7 1.7m92-20.7c0 .8.7 1.5 1.5 1.5s1.5-.7 1.5-1.5-.7-1.5-1.5-1.5-1.5.7-1.5 1.5m-9 0c0 .8.7 1.5 1.5 1.5s1.5-.7 1.5-1.5-.7-1.5-1.5-1.5-1.5.7-1.5 1.5m-9 0c0 .8.7 1.5 1.5 1.5s1.5-.7 1.5-1.5-.7-1.5-1.5-1.5-1.5.7-1.5 1.5m-9 0c0 .8.7 1.5 1.5 1.5s1.5-.7 1.5-1.5-.7-1.5-1.5-1.5-1.5.7-1.5 1.5m-9 0c0 .8.7 1.5 1.5 1.5s1.5-.7 1.5-1.5-.7-1.5-1.5-1.5-1.5.7-1.5 1.5m-9 0c0 .8.7 1.5 1.5 1.5s1.5-.7 1.5-1.5-.7-1.5-1.5-1.5-1.5.7-1.5 1.5m-9 0c0 .8.7 1.5 1.5 1.5s1.5-.7 1.5-1.5-.7-1.5-1.5-1.5-1.5.7-1.5 1.5m-9 0c0 .8.7 1.5 1.5 1.5s1.5-.7 1.5-1.5-.7-1.5-1.5-1.5-1.5.7-1.5 1.5m-9 0c0 .8.7 1.5 1.5 1.5s1.5-.7 1.5-1.5-.7-1.5-1.5-1.5-1.5.7-1.5 1.5m-9 0c0 .8.7 1.5 1.5 1.5s1.5-.7 1.5-1.5-.7-1.5-1.5-1.5-1.5.7-1.5 1.5m158.4 0c0 .8.7 1.5 1.5 1.5s1.5-.7 1.5-1.5-.7-1.5-1.5-1.5-1.5.7-1.5 1.5m-9 0c0 .8.7 1.5 1.5 1.5s1.5-.7 1.5-1.5-.7-1.5-1.5-1.5-1.5.7-1.5 1.5m-9 0c0 .8.7 1.5 1.5 1.5s1.5-.7 1.5-1.5-.7-1.5-1.5-1.5-1.5.7-1.5 1.5m-9 0c0 .8.7 1.5 1.5 1.5s1.5-.7 1.5-1.5-.7-1.5-1.5-1.5-1.5.7-1.5 1.5m-9 0c0 .8.7 1.5 1.5 1.5s1.5-.7 1.5-1.5-.7-1.5-1.5-1.5-1.5.7-1.5 1.5m-9 0c0 .8.7 1.5 1.5 1.5s1.5-.7 1.5-1.5-.7-1.5-1.5-1.5-1.5.7-1.5 1.5m-9 0c0 .8.7 1.5 1.5 1.5s1.5-.7 1.5-1.5-.7-1.5-1.5-1.5-1.5.7-1.5 1.5m-9 0c0 .8.7 1.5 1.5 1.5s1.5-.7 1.5-1.5-.7-1.5-1.5-1.5-1.5.7-1.5 1.5m-54 171c0 .8.7 1.5 1.5 1.5s1.5-.7 1.5-1.5-.7-1.5-1.5-1.5-1.5.7-1.5 1.5m-9 0c0 .8.7 1.5 1.5 1.5s1.5-.7 1.5-1.5-.7-1.5-1.5-1.5-1.5.7-1.5 1.5m18 0c0 .8.7 1.5 1.5 1.5s1.5-.7 1.5-1.5-.7-1.5-1.5-1.5-1.5.7-1.5 1.5m9 0c0 .8.7 1.5 1.5 1.5s1.5-.7 1.5-1.5-.7-1.5-1.5-1.5-1.5.7-1.5 1.5m9 0c0 .8.7 1.5 1.5 1.5s1.5-.7 1.5-1.5-.7-1.5-1.5-1.5-1.5.7-1.5 1.5m9 0c0 .8.7 1.5 1.5 1.5s1.5-.7 1.5-1.5-.7-1.5-1.5-1.5-1.5.7-1.5 1.5m9 0c0 .8.7 1.5 1.5 1.5s1.5-.7 1.5-1.5-.7-1.5-1.5-1.5-1.5.7-1.5 1.5m9 0c0 .8.7 1.5 1.5 1.5s1.5-.7 1.5-1.5-.7-1.5-1.5-1.5-1.5.7-1.5 1.5" style="fill:#0f7391"/><circle cx="110.5" cy="26.2" r=".9" style="stroke-width:.9px"/><text style="font-size:4.7px" transform="rotate(-90 84.25 -52.55)"><tspan x="0" y="0">13</tspan></text><text style="font-size:4.7px" transform="rotate(-90 88.75 -57.05)"><tspan x="0" y="0">12</tspan></text><text style="font-size:4.7px" transform="rotate(-90 93.25 -61.55)"><tspan x="0" y="0">11</tspan></text><text style="font-size:4.7px" transform="rotate(-90 97.75 -66.05)"><tspan x="0" y="0">10</tspan></text><text style="font-size:4.7px" transform="rotate(-90 100.6 -72.2)"><tspan x="0" y="0">9</tspan></text><text style="font-size:4.7px" transform="rotate(-90 105.1 -76.7)"><tspan x="0" y="0">8</tspan></text><text style="font-size:4.7px" transform="rotate(-90 112.3 -83.9)"><tspan x="0" y="0">7</tspan></text><text style="font-size:4.7px" transform="rotate(-90 116.8 -88.4)"><tspan x="0" y="0">6</tspan></text><text style="font-size:4.7px" transform="rotate(-90 121.3 -92.9)"><tspan x="0" y="0">5</tspan></text><text style="font-size:4.7px" transform="rotate(-90 125.8 -97.4)"><tspan x="0" y="0">4</tspan></text><text style="font-size:4.7px" transform="rotate(-90 130.3 -101.9)"><tspan x="0" y="0">3</tspan></text><text style="font-size:4.7px" transform="rotate(-90 134.8 -106.4)"><tspan x="0" y="0">2</tspan></text><text style="font-size:5.8px" transform="translate(120.2 55.2)"><tspan x="0" y="0">L</tspan></text><text style="font-size:4.2px" transform="rotate(-90 176.35 7.35)"><tspan x="0" y="0">5V</tspan></text><text style="font-size:4.2px" transform="rotate(-90 198.75 -15.05)"><tspan x="0" y="0">A0</tspan></text><text style="font-size:4.6px" transform="translate(229.3 173.5)"><tspan x="0" y="0">ANALOG IN</tspan></text><text style="font-size:4.7px" transform="rotate(-90 78.5 -39.9)"><tspan x="0" y="0">AREF</tspan></text><text style="font-size:5.2px" transform="translate(248.7 90.8)"><tspan x="0" y="0">1</tspan></text><text style="font-size:4.7px" transform="rotate(-90 81.55 -46.35)"><tspan x="0" y="0">GND</tspan></text><text style="font-size:5.8px" transform="translate(115.5 71.6)"><tspan x="0" y="0">TX</tspan></text><text style="font-size:5.8px" transform="translate(115.6 80.2)"><tspan x="0" y="0">RX</tspan></text><text style="font-size:4.2px" transform="rotate(-90 166.7 16.6)"><tspan x="0" y="0">RESET</tspan></text><text style="font-size:4.2px" transform="rotate(-90 171.85 11.85)"><tspan x="0" y="0">3V3</tspan></text><text style="font-size:4.2px" transform="rotate(-90 203.25 -19.55)"><tspan x="0" y="0">A1</tspan></text><text style="font-size:4.2px" transform="rotate(-90 207.75 -24.05)"><tspan x="0" y="0">A2</tspan></text><text style="font-size:4.2px" transform="rotate(-90 212.25 -28.55)"><tspan x="0" y="0">A3</tspan></text><text style="font-size:4.2px" transform="rotate(-90 216.75 -33.05)"><tspan x="0" y="0">A4</tspan></text><text style="font-size:4.2px" transform="rotate(-90 221.25 -37.55)"><tspan x="0" y="0">A5</tspan></text><text style="font-size:4.2px" transform="rotate(-90 189.85 -6.15)"><tspan x="0" y="0">VIN</tspan></text><text style="font-size:4.2px" transform="rotate(-90 180.85 2.85)"><tspan x="0" y="0">GND</tspan></text><text style="font-size:4.2px" transform="rotate(-90 185.2 -1.5)"><tspan x="0" y="0">GND</tspan></text><text style="font-size:4.6px" transform="translate(191.2 44.1)"><tspan x="0" y="0">DIGITAL (PWM=</tspan></text><text style="font-size:4.6px" transform="translate(237.3 44.1)"><tspan x="0" y="0">)</tspan></text><g class="st15"><path d="M162.8 36.4c-.6 0-.9-.3-.9-.7s0-.5.3-.9c.2-.3.3-.5.3-.8s-.2-.3-.5-.3v-.4c.7 0 .9.3.9.7s0 .5-.3.9c-.1.3-.3.5-.3.8s.2.4.5.4v.4Z" class="st3"/></g><g class="st15"><path d="M153.5 36.4c-.6 0-.9-.3-.9-.7s0-.5.3-.9c.2-.3.3-.5.3-.8s-.2-.3-.5-.3v-.4c.7 0 .9.3.9.7s0 .5-.3.9c-.1.3-.3.5-.3.8s.2.4.5.4v.4Z" class="st3"/></g><g class="st15"><path d="M212.7 32.6c-.6 0-.9-.3-.9-.7s0-.5.3-.9c.2-.3.3-.5.3-.8s-.2-.3-.5-.3v-.4c.7 0 .9.3.9.7s0 .5-.3.9c-.1.3-.3.5-.3.7s.2.4.5.4z" class="st3"/></g><g class="st15"><path d="M230.7 32.6c-.6 0-.9-.3-.9-.7s0-.5.3-.9c.2-.3.3-.5.3-.8s-.2-.3-.5-.3v-.4c.7 0 .9.3.9.7s0 .5-.3.9c-.1.3-.3.5-.3.8s.2.4.5.4v.4Z" class="st3"/></g><g class="st15"><path d="M204.2 32.6c-.6 0-.9-.3-.9-.7s0-.5.3-.9c.2-.3.3-.5.3-.8s-.2-.3-.5-.3v-.4c.7 0 .9.3.9.7s0 .5-.3.9c-.1.3-.3.5-.3.7s.2.4.5.4z" class="st3"/></g><g class="st15"><path d="M171.3 32.6c-.6 0-.9-.3-.9-.7s0-.5.3-.9c.2-.3.3-.5.3-.8s-.2-.3-.5-.3v-.4c.7 0 .9.3.9.7s0 .5-.3.9c-.1.3-.3.5-.3.8s.2.4.5.4v.4Z" class="st3"/></g><text style="font-size:7.7px" transform="translate(146 79)"><tspan x="0" y="0">Arduino</tspan></text><text style="font-size:2.8px" transform="translate(183.5 74.5)"><tspan x="0" y="0">TM</tspan></text><text style="font-size:4.2px" transform="rotate(-90 162.9 20.4)"><tspan x="0" y="0">IOREF</tspan></text><text style="font-size:5.2px" transform="rotate(-90 182.95 -69.05)"><tspan x="0" y="0">ICSP</tspan></text><text style="font-size:5.2px" transform="translate(84 50.1)"><tspan x="0" y="0">ICSP2</tspan></text><text style="font-size:5.8px" transform="translate(248.2 71.7)"><tspan x="0" y="0">ON</tspan></text><rect x="94" y="67.3" style="fill:#333"/><rect x="130.8" y="131" style="fill:#333"/><circle cx="212.2" cy="190" r="2" style="stroke-width:1px"/><path d="M210.2 185.4h4v9.3h-4zm0 4.6c0 1.1.9 2 2 2s2-.9 2-2-.9-2-2-2-2 .9-2 2" style="fill:#9a916c"/><circle cx="221.2" cy="190" r="2" style="stroke-width:1px"/><path d="M219.2 185.4h4v9.3h-4zm0 4.6c0 1.1.9 2 2 2s2-.9 2-2-.9-2-2-2-2 .9-2 2" style="fill:#9a916c"/><circle cx="230.2" cy="190" r="2" style="stroke-width:1px"/><path d="M228.2 185.4h4v9.3h-4zm0 4.6c0 1.1.9 2 2 2s2-.9 2-2-.9-2-2-2-2 .9-2 2" style="fill:#9a916c"/><circle cx="239.2" cy="190" r="2" style="stroke-width:1px"/><path d="M237.2 185.4h4v9.3h-4zm0 4.6c0 1.1.9 2 2 2s2-.9 2-2-.9-2-2-2-2 .9-2 2" style="fill:#9a916c"/><circle cx="248.2" cy="190" r="2" style="stroke-width:1px"/><path d="M246.2 185.4h4v9.3h-4zm0 4.6c0 1.1.9 2 2 2s2-.9 2-2-.9-2-2-2-2 .9-2 2" style="fill:#9a916c"/><circle cx="257.2" cy="190" r="2" style="stroke-width:1px"/><path d="M255.2 185.4h4v9.3h-4zm0 4.6c0 1.1.9 2 2 2s2-.9 2-2-.9-2-2-2-2 .9-2 2" style="fill:#9a916c"/><circle cx="257.7" cy="91" r="2.2" style="stroke-width:1.1px"/><circle cx="266.7" cy="91" r="2.2" style="stroke-width:1.1px"/><circle cx="257.7" cy="100" r="2.2" style="stroke-width:1.1px"/><circle cx="266.7" cy="100" r="2.2" style="stroke-width:1.1px"/><circle cx="257.7" cy="109" r="2.2" style="stroke-width:1.1px"/><circle cx="266.7" cy="109" r="2.2" style="stroke-width:1.1px"/><circle cx="106" cy="30.7" r="2.2" style="stroke-width:1.1px"/><circle cx="106" cy="39.7" r="2.2" style="stroke-width:1.1px"/><circle cx="97" cy="30.7" r="2.2" style="stroke-width:1.1px"/><circle cx="97" cy="39.7" r="2.2" style="stroke-width:1.1px"/><circle cx="88" cy="30.7" r="2.2" style="stroke-width:1.1px"/><circle cx="88" cy="39.7" r="2.2" style="stroke-width:1.1px"/><circle cx="179.8" cy="19" r="2" style="stroke-width:1px"/><path d="M177.8 14.4h4v9.3h-4zm0 4.6c0 1.1.9 2 2 2s2-.9 2-2-.9-2-2-2-2 .9-2 2" style="fill:#9a916c"/><circle cx="170.8" cy="19" r="2" style="stroke-width:1px"/><path d="M168.8 14.4h4v9.3h-4zm0 4.6c0 1.1.9 2 2 2s2-.9 2-2-.9-2-2-2-2 .9-2 2" style="fill:#9a916c"/><circle cx="161.8" cy="19" r="2" style="stroke-width:1px"/><path d="M159.8 14.4h4v9.3h-4zm0 4.6c0 1.1.9 2 2 2s2-.9 2-2-.9-2-2-2-2 .9-2 2" style="fill:#9a916c"/><circle cx="152.8" cy="19" r="2" style="stroke-width:1px"/><path d="M150.8 14.4h4v9.3h-4zm0 4.6c0 1.1.9 2 2 2s2-.9 2-2-.9-2-2-2-2 .9-2 2" style="fill:#9a916c"/><circle cx="143.8" cy="19" r="2" style="stroke-width:1px"/><path d="M141.8 14.4h4v9.3h-4zm0 4.6c0 1.1.9 2 2 2s2-.9 2-2-.9-2-2-2-2 .9-2 2" style="fill:#9a916c"/><circle cx="134.8" cy="19" r="2" style="stroke-width:1px"/><path d="M132.8 14.4h4v9.3h-4zm0 4.6c0 1.1.9 2 2 2s2-.9 2-2-.9-2-2-2-2 .9-2 2" style="fill:#9a916c"/><circle cx="125.8" cy="19" r="2" style="stroke-width:1px"/><path d="M123.8 14.4h4v9.3h-4zm0 4.6c0 1.1.9 2 2 2s2-.9 2-2-.9-2-2-2-2 .9-2 2" style="fill:#9a916c"/><circle cx="116.8" cy="19" r="2" style="stroke-width:1px"/><path d="M114.8 14.4h4v9.3h-4zm0 4.6c0 1.1.9 2 2 2s2-.9 2-2-.9-2-2-2-2 .9-2 2" style="fill:#9a916c"/><circle cx="107.8" cy="19" r="2" style="stroke-width:1px"/><path d="M105.8 14.4h4v9.3h-4zm0 4.6c0 1.1.9 2 2 2s2-.9 2-2-.9-2-2-2-2 .9-2 2" style="fill:#9a916c"/><circle cx="98.8" cy="19" r="2" style="stroke-width:1px"/><path d="M96.8 14.4h4v9.3h-4zm0 4.6c0 1.1.9 2 2 2s2-.9 2-2-.9-2-2-2-2 .9-2 2" style="fill:#9a916c"/><circle cx="257.2" cy="19" r="2" style="stroke-width:1px"/><path d="M255.2 14.4h4v9.3h-4zm0 4.6c0 1.1.9 2 2 2s2-.9 2-2-.9-2-2-2-2 .9-2 2" style="fill:#9a916c"/><circle cx="248.2" cy="19" r="2" style="stroke-width:1px"/><path d="M246.2 14.4h4v9.3h-4zm0 4.6c0 1.1.9 2 2 2s2-.9 2-2-.9-2-2-2-2 .9-2 2" style="fill:#9a916c"/><circle cx="239.2" cy="19" r="2" style="stroke-width:1px"/><path d="M237.2 14.4h4v9.3h-4zm0 4.6c0 1.1.9 2 2 2s2-.9 2-2-.9-2-2-2-2 .9-2 2" style="fill:#9a916c"/><circle cx="230.2" cy="19" r="2" style="stroke-width:1px"/><path d="M228.2 14.4h4v9.3h-4zm0 4.6c0 1.1.9 2 2 2s2-.9 2-2-.9-2-2-2-2 .9-2 2" style="fill:#9a916c"/><circle cx="221.2" cy="19" r="2" style="stroke-width:1px"/><path d="M219.2 14.4h4v9.3h-4zm0 4.6c0 1.1.9 2 2 2s2-.9 2-2-.9-2-2-2-2 .9-2 2" style="fill:#9a916c"/><circle cx="212.2" cy="19" r="2" style="stroke-width:1px"/><path d="M210.2 14.4h4v9.3h-4zm0 4.6c0 1.1.9 2 2 2s2-.9 2-2-.9-2-2-2-2 .9-2 2" style="fill:#9a916c"/><circle cx="203.2" cy="19" r="2" style="stroke-width:1px"/><path d="M201.2 14.4h4v9.3h-4zm0 4.6c0 1.1.9 2 2 2s2-.9 2-2-.9-2-2-2-2 .9-2 2" style="fill:#9a916c"/><circle cx="194.2" cy="19" r="2" style="stroke-width:1px"/><path d="M192.2 14.4h4v9.3h-4zm0 4.6c0 1.1.9 2 2 2s2-.9 2-2-.9-2-2-2-2 .9-2 2" style="fill:#9a916c"/><circle cx="140.2" cy="190" r="2" style="stroke-width:1px"/><circle cx="131.2" cy="190" r="2" style="stroke-width:1px"/><path d="M138.2 185.4h4v9.3h-4zm0 4.6c0 1.1.9 2 2 2s2-.9 2-2-.9-2-2-2-2 .9-2 2M129.2 185.4h4v9.3h-4zm0 4.6c0 1.1.9 2 2 2s2-.9 2-2-.9-2-2-2-2 .9-2 2" style="fill:#9a916c"/><circle cx="149.2" cy="190" r="2" style="stroke-width:1px"/><path d="M147.2 185.4h4v9.3h-4zm0 4.6c0 1.1.9 2 2 2s2-.9 2-2-.9-2-2-2-2 .9-2 2" style="fill:#9a916c"/><circle cx="158.2" cy="190" r="2" style="stroke-width:1px"/><path d="M156.2 185.4h4v9.3h-4zm0 4.6c0 1.1.9 2 2 2s2-.9 2-2-.9-2-2-2-2 .9-2 2" style="fill:#9a916c"/><circle cx="167.2" cy="190" r="2" style="stroke-width:1px"/><path d="M165.2 185.4h4v9.3h-4zm0 4.6c0 1.1.9 2 2 2s2-.9 2-2-.9-2-2-2-2 .9-2 2" style="fill:#9a916c"/><circle cx="176.2" cy="190" r="2" style="stroke-width:1px"/><path d="M174.2 185.4h4v9.3h-4zm0 4.6c0 1.1.9 2 2 2s2-.9 2-2-.9-2-2-2-2 .9-2 2" style="fill:#9a916c"/><circle cx="185.2" cy="190" r="2" style="stroke-width:1px"/><path d="M183.2 185.4h4v9.3h-4zm0 4.6c0 1.1.9 2 2 2s2-.9 2-2-.9-2-2-2-2 .9-2 2" style="fill:#9a916c"/><circle cx="194.2" cy="190" r="2" style="stroke-width:1px"/><path d="M192.2 185.4h4v9.3h-4zm0 4.6c0 1.1.9 2 2 2s2-.9 2-2-.9-2-2-2-2 .9-2 2" style="fill:#9a916c"/><path d="M125.7 46.4h133.7M209.8 167.8h49.6" style="stroke-linecap:round;stroke-width:1.1px"/><text style="font-size:4.6px" transform="translate(182.2 173.5)"><tspan x="0" y="0">POWER</tspan></text><path d="M153.7 167.8h44.9" style="stroke-linecap:round;stroke-width:1.1px"/><text style="font-size:4.7px" transform="rotate(-90 143.9 -115.5)"><tspan x="0" y="0">0</tspan></text><text style="font-size:4.7px" transform="rotate(-90 139.4 -111)"><tspan x="0" y="0">1</tspan></text><text style="font-size:4.7px" transform="rotate(-90 147.35 -103.05)"><tspan x="0" y="0">TX0</tspan></text><text style="font-size:4.7px" transform="rotate(-90 151.85 -107.55)"><tspan x="0" y="0">RX0</tspan></text><path d="M249.9 32.5h-2.4c-.2 0-.3 0-.4-.2v-.4l1.2-1.8c.2-.2.5-.2.7 0l1.2 1.7s.1.2.1.3c0 .2-.2.4-.4.4M256.5 29.8h2.4c.2 0 .3 0 .4.2v.4l-1.2 1.8c-.2.2-.5.2-.7 0l-1.2-1.7s-.1-.2-.1-.3c0-.2.2-.4.4-.4M234.6 42.7c0-.7.3-1 .8-1s.5 0 1 .3q.45.3.9.3c.45 0 .4-.2.4-.6h.4c0 .8-.4 1-.8 1s-.5 0-1-.3c-.3-.2-.6-.3-.8-.3s-.4.2-.4.6h-.4ZM167.1 56.3c1.1-1.2 1.9-2.2 2.9-3.1 3.7-3.3 7.9-4.6 12.7-2.5 4.5 1.9 7 6.6 6 11.4-.9 4.4-5.2 7.8-9.8 8-4.3.1-7.6-1.8-10.3-4.9-.4-.5-.8-1-1.3-1.6-.4.4-.7.8-.9 1.1-2.9 3.6-6.5 5.7-11.3 5.4-4.7-.3-9.1-4.7-9.4-9.4-.4-6 4.2-10.9 10.5-11 4.2 0 7.5 2.1 10.1 5.4.3.4.6.7.9 1.2Z" class="st3"/><path d="M156.7 53.1c-4.4 0-7.6 2.8-7.9 6.4-.3 3.2 2.2 6.4 5.7 7.2 3.5.7 6.2-.7 8.3-3.2 3.2-3.8 3.1-3.2 0-7-1.7-2.1-4-3.3-6.2-3.4ZM178.4 53h-1.3c-3.7.7-6 3.2-7.8 6.4-.1.2-.1.7 0 .9 1.6 2.7 3.5 5.1 6.7 6.1 3 1 5.7.2 7.8-2.2 1.9-2.1 2.3-4.6 1.1-7.1-1.3-2.7-3.7-3.9-6.5-4.1" style="fill:#0f7391"/><path d="M159.8 60.7s0 .2-.2.2h-6.5s-.2 0-.2-.2v-2s0-.2.2-.2h6.5s.2 0 .2.2zM181.2 58.8s0-.2-.2-.2h-1.9s-.2 0-.2-.2v-1.9s0-.2-.2-.2h-2s-.2 0-.2.2v1.9s0 .2-.2.2h-1.9s-.2 0-.2.2v2s0 .2.2.2h1.9s.2 0 .2.2v1.9s0 .2.2.2h2s.2 0 .2-.2v-1.9s0-.2.2-.2h1.9s.2 0 .2-.2z" class="st3"/><circle cx="225.2" cy="50.7" r=".7" class="st3"/><circle cx="223.5" cy="50.7" r=".7" class="st3"/><circle cx="221.7" cy="50.7" r=".7" class="st3"/><circle cx="219.9" cy="50.7" r=".7" class="st3"/><circle cx="218.2" cy="50.7" r=".7" class="st3"/><circle cx="216.4" cy="50.7" r=".7" class="st3"/><circle cx="214.6" cy="50.7" r=".7" class="st3"/><circle cx="212.8" cy="50.7" r=".7" class="st3"/><circle cx="211.1" cy="50.7" r=".7" class="st3"/><circle cx="209.3" cy="50.7" r=".7" class="st3"/><circle cx="207.5" cy="50.7" r=".7" class="st3"/><circle cx="205.8" cy="50.7" r=".7" class="st3"/><circle cx="204" cy="50.7" r=".7" class="st3"/><circle cx="202.2" cy="50.7" r=".7" class="st3"/><circle cx="225.3" cy="69.3" r=".7" class="st3"/><circle cx="227" cy="68.9" r=".7" class="st3"/><circle cx="228.6" cy="68.3" r=".7" class="st3"/><circle cx="230" cy="67.4" r=".7" class="st3"/><circle cx="231.3" cy="66.2" r=".7" class="st3"/><circle cx="232.3" cy="64.8" r=".7" class="st3"/><circle cx="233.1" cy="63.3" r=".7" class="st3"/><circle cx="233.5" cy="61.6" r=".7" class="st3"/><circle cx="233.7" cy="59.9" r=".7" class="st3"/><circle cx="233.5" cy="58.2" r=".7" class="st3"/><circle cx="233" cy="56.5" r=".7" class="st3"/><circle cx="232.3" cy="55" r=".7" class="st3"/><circle cx="231.2" cy="53.6" r=".7" class="st3"/><circle cx="230" cy="52.5" r=".7" class="st3"/><circle cx="228.5" cy="51.6" r=".7" class="st3"/><circle cx="226.9" cy="51" r=".7" class="st3"/><circle cx="225.2" cy="50.7" r=".7" class="st3"/><circle cx="223.5" cy="50.7" r=".7" class="st3"/><circle cx="200.3" cy="69.1" r=".7" class="st3"/><circle cx="198.6" cy="68.8" r=".7" class="st3"/><circle cx="197" cy="68.1" r=".7" class="st3"/><circle cx="195.6" cy="67.2" r=".7" class="st3"/><circle cx="194.4" cy="66" r=".7" class="st3"/><circle cx="193.4" cy="64.7" r=".7" class="st3"/><circle cx="192.6" cy="63.1" r=".7" class="st3"/><circle cx="192.2" cy="61.5" r=".7" class="st3"/><circle cx="192.1" cy="59.8" r=".7" class="st3"/><path d="M192.3 57.4c.4 0 .7.4.6.8 0 .4-.4.7-.8.6-.4 0-.7-.4-.6-.8 0-.4.4-.7.8-.6M192.9 55.8c.4.1.6.5.5.9s-.5.6-.9.5-.6-.5-.5-.9.5-.6.9-.5" class="st3"/><circle cx="193.5" cy="54.9" r=".7" class="st3"/><circle cx="194.5" cy="53.6" r=".7" class="st3"/><circle cx="195.8" cy="52.5" r=".7" class="st3"/><circle cx="197.3" cy="51.6" r=".7" class="st3"/><circle cx="198.8" cy="51" r=".7" class="st3"/><circle cx="200.5" cy="50.7" r=".7" class="st3"/><circle cx="202.2" cy="50.7" r=".7" class="st3"/><circle cx="225.2" cy="69.3" r=".7" class="st3"/><circle cx="223.5" cy="69.3" r=".7" class="st3"/><circle cx="221.7" cy="69.3" r=".7" class="st3"/><circle cx="219.9" cy="69.3" r=".7" class="st3"/><circle cx="218.2" cy="69.3" r=".7" class="st3"/><circle cx="216.4" cy="69.3" r=".7" class="st3"/><circle cx="214.6" cy="69.3" r=".7" class="st3"/><circle cx="212.8" cy="69.3" r=".7" class="st3"/><circle cx="211.1" cy="69.3" r=".7" class="st3"/><circle cx="209.3" cy="69.3" r=".7" class="st3"/><circle cx="207.5" cy="69.3" r=".7" class="st3"/><circle cx="205.8" cy="69.3" r=".7" class="st3"/><circle cx="204" cy="69.3" r=".7" class="st3"/><circle cx="202.2" cy="69.3" r=".7" class="st3"/><path d="M202.5 65.7c-1.2 0-2.2-.3-2.8-.8q-.9-.75-1.2-1.8c0-.3-.1-.7-.2-1.1v-7.8h1.2v6.5c0 1.5.2 2.6.7 3.1s1.2.7 2.1.7 1.9-.2 2.3-.7c.5-.5.7-1.6.7-3.1v-6.5h1.2v6.5c0 1.4-.2 2.4-.5 3-.6 1.3-1.7 1.9-3.5 1.9ZM217.6 65.5h-1.2l-5.9-9.3v9.3h-1V54.2h1.1l5.8 9.3v-9.3h1.2zM224.6 53.9c.7 0 1.4.1 2 .4s1.1.7 1.6 1.2c.4.5.8 1.2 1 1.9s.4 1.6.4 2.5-.1 1.7-.4 2.5c-.2.7-.6 1.4-1 1.9s-1 .9-1.6 1.2-1.3.4-2 .4-1.4-.1-2-.4-1.1-.7-1.6-1.2c-.4-.5-.8-1.2-1-1.9s-.4-1.6-.4-2.5.1-1.7.4-2.5.6-1.4 1-1.9 1-.9 1.6-1.2 1.3-.4 2-.4m0 10.7c.5 0 1-.1 1.4-.3s.8-.5 1.1-.9.6-.9.7-1.5c.2-.6.3-1.2.3-2s0-1.4-.3-2c-.2-.6-.4-1.1-.7-1.5s-.7-.7-1.1-.9-.9-.3-1.4-.3-1 .1-1.4.3-.8.5-1.1.9-.6.9-.7 1.5c-.2.6-.3 1.2-.3 2s0 1.4.3 2c.2.6.4 1.1.7 1.5s.7.7 1.1.9.9.3 1.4.3" class="st3"/><rect x="207.7" y="185.5" style="fill:#404040"/><rect x="210.5" y="188.3"/><path d="m209.2 187 1.3 1.3h3.5l1.2-1.3z" style="fill:#2a2a29"/><path d="m215.2 187-1.2 1.3v3.4l1.2 1.3z" style="fill:#474747"/><path d="m215.2 193-1.2-1.3h-3.5l-1.3 1.3z" style="fill:#595959"/><path d="m209.2 193 1.3-1.3v-3.4l-1.3-1.3z" style="fill:#373737"/><rect x="219.5" y="188.3"/><path d="m218.2 187 1.3 1.3h3.5l1.2-1.3z" style="fill:#2a2a29"/><path d="m224.2 187-1.2 1.3v3.4l1.2 1.3z" style="fill:#474747"/><path d="m224.2 193-1.2-1.3h-3.5l-1.3 1.3z" style="fill:#595959"/><path d="m218.2 193 1.3-1.3v-3.4l-1.3-1.3z" style="fill:#373737"/><rect x="228.5" y="188.3"/><path d="m227.2 187 1.3 1.3h3.5l1.2-1.3z" style="fill:#2a2a29"/><path d="m233.2 187-1.2 1.3v3.4l1.2 1.3z" style="fill:#474747"/><path d="m233.2 193-1.2-1.3h-3.5l-1.3 1.3z" style="fill:#595959"/><path d="m227.2 193 1.3-1.3v-3.4l-1.3-1.3z" style="fill:#373737"/><rect x="237.5" y="188.3"/><path d="m236.2 187 1.3 1.3h3.5l1.2-1.3z" style="fill:#2a2a29"/><path d="m242.2 187-1.2 1.3v3.4l1.2 1.3z" style="fill:#474747"/><path d="m242.2 193-1.2-1.3h-3.5l-1.3 1.3z" style="fill:#595959"/><path d="m236.2 193 1.3-1.3v-3.4l-1.3-1.3z" style="fill:#373737"/><rect x="246.5" y="188.3"/><path d="m245.2 187 1.3 1.3h3.5l1.2-1.3z" style="fill:#2a2a29"/><path d="m251.2 187-1.2 1.3v3.4l1.2 1.3z" style="fill:#474747"/><path d="m251.2 193-1.2-1.3h-3.5l-1.3 1.3z" style="fill:#595959"/><path d="m245.2 193 1.3-1.3v-3.4l-1.3-1.3z" style="fill:#373737"/><rect x="255.5" y="188.3"/><path d="m254.2 187 1.3 1.3h3.5l1.2-1.3z" style="fill:#2a2a29"/><path d="m260.2 187-1.2 1.3v3.4l1.2 1.3z" style="fill:#474747"/><path d="m260.2 193-1.2-1.3h-3.5l-1.3 1.3z" style="fill:#595959"/><path d="m254.2 193 1.3-1.3v-3.4l-1.3-1.3z" style="fill:#373737"/><path d="M269.2 86.6h-14l-1.9 1.9v4.9l1.9 1.9h14l1.9-1.9v-4.9zM269.2 95.6h-14l-1.9 1.9v4.9l1.9 1.9h14l1.9-1.9v-4.9zM269.2 104.6h-14l-1.9 1.9v4.9l1.9 1.9h14l1.9-1.9v-4.9z" style="fill:#404040"/><path d="M269.2 86.6h-14l-1.9 1.9v4.9l1.9 1.9h14l1.9-1.9v-4.9zM269.2 95.6h-14l-1.9 1.9v4.9l1.9 1.9h14l1.9-1.9v-4.9zM269.2 104.6h-14l-1.9 1.9v4.9l1.9 1.9h14l1.9-1.9v-4.9z" style="fill:#404040"/><rect x="256.3" y="107.3" style="fill:#8d8c8c"/><rect x="265.3" y="107.3" style="fill:#8d8c8c"/><rect x="256.3" y="98.3" style="fill:#8d8c8c"/><rect x="265.3" y="98.3" style="fill:#8d8c8c"/><rect x="256.3" y="89.3" style="fill:#8d8c8c"/><rect x="265.3" y="89.3" style="fill:#8d8455"/><rect x="266" y="90" style="fill:#8c8663"/><path d="m265.3 89.3.7.7h1.5l.7-.7z" style="fill:#b8af82"/><path d="M267.5 91.5V90l.7-.7v2.9z" style="fill:#80795b"/><path d="M266 91.5h1.5l.7.7h-2.9z" style="fill:#5e5b43"/><path d="m265.3 89.3.7.7v1.5l-.7.7z" style="fill:#9a916c"/><rect x="257" y="90" style="fill:#8c8663"/><path d="m256.3 89.3.7.7h1.5l.7-.7z" style="fill:#b8af82"/><path d="M258.5 91.5V90l.7-.7v2.9z" style="fill:#80795b"/><path d="M257 91.5h1.5l.7.7h-2.9z" style="fill:#5e5b43"/><path d="m256.3 89.3.7.7v1.5l-.7.7z" style="fill:#9a916c"/><rect x="266" y="99" style="fill:#8c8663"/><path d="m265.3 98.3.7.7h1.5l.7-.7z" style="fill:#b8af82"/><path d="M267.5 100.5V99l.7-.7v2.9z" style="fill:#80795b"/><path d="M266 100.5h1.5l.7.7h-2.9z" style="fill:#5e5b43"/><path d="m265.3 98.3.7.7v1.5l-.7.7z" style="fill:#9a916c"/><rect x="257" y="99" style="fill:#8c8663"/><path d="m256.3 98.3.7.7h1.5l.7-.7z" style="fill:#b8af82"/><path d="M258.5 100.5V99l.7-.7v2.9z" style="fill:#80795b"/><path d="M257 100.5h1.5l.7.7h-2.9z" style="fill:#5e5b43"/><path d="m256.3 98.3.7.7v1.5l-.7.7z" style="fill:#9a916c"/><rect x="266" y="108" style="fill:#8c8663"/><path d="m265.3 107.3.7.7h1.5l.7-.7z" style="fill:#b8af82"/><path d="M267.5 109.5V108l.7-.7v2.9z" style="fill:#80795b"/><path d="M266 109.5h1.5l.7.7h-2.9z" style="fill:#5e5b43"/><path d="m265.3 107.3.7.7v1.5l-.7.7z" style="fill:#9a916c"/><rect x="257" y="108" style="fill:#8c8663"/><path d="m256.3 107.3.7.7h1.5l.7-.7z" style="fill:#b8af82"/><path d="M258.5 109.5V108l.7-.7v2.9z" style="fill:#80795b"/><path d="M257 109.5h1.5l.7.7h-2.9z" style="fill:#5e5b43"/><path d="m256.3 107.3.7.7v1.5l-.7.7z" style="fill:#9a916c"/><path d="M83.7 28.2v14l1.9 1.9h4.9l1.9-1.9v-14l-1.9-1.9h-4.9zM92.7 28.2v14l1.9 1.9h4.9l1.9-1.9v-14l-1.9-1.9h-4.9zM101.6 28.2v14l1.9 1.9h5l1.8-1.9v-14l-1.8-1.9h-5z" style="fill:#404040"/><path d="M83.7 28.2v14l1.9 1.9h4.9l1.9-1.9v-14l-1.9-1.9h-4.9zM92.7 28.2v14l1.9 1.9h4.9l1.9-1.9v-14l-1.9-1.9h-4.9zM101.6 28.2v14l1.9 1.9h5l1.8-1.9v-14l-1.8-1.9h-5z" style="fill:#404040"/><rect x="104.4" y="38.2" style="fill:#8d8c8c"/><rect x="104.4" y="29.2" style="fill:#8d8c8c"/><rect x="95.4" y="38.2" style="fill:#8d8c8c"/><rect x="95.4" y="29.2" style="fill:#8d8c8c"/><rect x="86.4" y="38.2" style="fill:#8d8c8c"/><rect x="86.4" y="29.2" style="fill:#8d8455"/><rect x="87.1" y="29.9" style="fill:#8c8663"/><path d="m86.4 32.1.7-.7v-1.5l-.7-.7z" style="fill:#b8af82"/><path d="M88.6 29.9h-1.5l-.7-.7h2.9z" style="fill:#80795b"/><path d="M88.6 31.4v-1.5l.7-.7v2.9z" style="fill:#5e5b43"/><path d="m86.4 32.1.7-.7h1.5l.7.7z" style="fill:#9a916c"/><rect x="87.1" y="38.9" style="fill:#8c8663"/><path d="m86.4 41.1.7-.7v-1.5l-.7-.7z" style="fill:#b8af82"/><path d="M88.6 38.9h-1.5l-.7-.7h2.9z" style="fill:#80795b"/><path d="M88.6 40.4v-1.5l.7-.7v2.9z" style="fill:#5e5b43"/><path d="m86.4 41.1.7-.7h1.5l.7.7z" style="fill:#9a916c"/><rect x="96.1" y="29.9" style="fill:#8c8663"/><path d="m95.4 32.1.7-.7v-1.5l-.7-.7z" style="fill:#b8af82"/><path d="M97.6 29.9h-1.5l-.7-.7h2.9z" style="fill:#80795b"/><path d="M97.6 31.4v-1.5l.7-.7v2.9z" style="fill:#5e5b43"/><path d="m95.4 32.1.7-.7h1.5l.7.7z" style="fill:#9a916c"/><rect x="96.1" y="38.9" style="fill:#8c8663"/><path d="m95.4 41.1.7-.7v-1.5l-.7-.7z" style="fill:#b8af82"/><path d="M97.6 38.9h-1.5l-.7-.7h2.9z" style="fill:#80795b"/><path d="M97.6 40.4v-1.5l.7-.7v2.9z" style="fill:#5e5b43"/><path d="m95.4 41.1.7-.7h1.5l.7.7z" style="fill:#9a916c"/><rect x="105.1" y="29.9" style="fill:#8c8663"/><path d="m104.4 32.1.7-.7v-1.5l-.7-.7z" style="fill:#b8af82"/><path d="M106.6 29.9h-1.5l-.7-.7h2.9z" style="fill:#80795b"/><path d="M106.6 31.4v-1.5l.7-.7v2.9z" style="fill:#5e5b43"/><path d="m104.4 32.1.7-.7h1.5l.7.7z" style="fill:#9a916c"/><rect x="105.1" y="38.9" style="fill:#8c8663"/><path d="m104.4 41.1.7-.7v-1.5l-.7-.7z" style="fill:#b8af82"/><path d="M106.6 38.9h-1.5l-.7-.7h2.9z" style="fill:#80795b"/><path d="M106.6 40.4v-1.5l.7-.7v2.9z" style="fill:#5e5b43"/><path d="m104.4 41.1.7-.7h1.5l.7.7z" style="fill:#9a916c"/><rect x="189.7" y="14.5" style="fill:#404040"/><rect x="192.5" y="17.3"/><path d="m191.2 16 1.3 1.3h3.5l1.2-1.3z" style="fill:#2a2a29"/><path d="m197.2 16-1.2 1.3v3.4l1.2 1.3z" style="fill:#474747"/><path d="m197.2 22-1.2-1.3h-3.5l-1.3 1.3z" style="fill:#595959"/><path d="m191.2 22 1.3-1.3v-3.4l-1.3-1.3z" style="fill:#373737"/><rect x="201.5" y="17.3"/><path d="m200.2 16 1.3 1.3h3.5l1.2-1.3z" style="fill:#2a2a29"/><path d="m206.2 16-1.2 1.3v3.4l1.2 1.3z" style="fill:#474747"/><path d="m206.2 22-1.2-1.3h-3.5l-1.3 1.3z" style="fill:#595959"/><path d="m200.2 22 1.3-1.3v-3.4l-1.3-1.3z" style="fill:#373737"/><rect x="210.5" y="17.3"/><path d="m209.2 16 1.3 1.3h3.5l1.2-1.3z" style="fill:#2a2a29"/><path d="m215.2 16-1.2 1.3v3.4l1.2 1.3z" style="fill:#474747"/><path d="m215.2 22-1.2-1.3h-3.5l-1.3 1.3z" style="fill:#595959"/><path d="m209.2 22 1.3-1.3v-3.4l-1.3-1.3z" style="fill:#373737"/><rect x="219.5" y="17.3"/><path d="m218.2 16 1.3 1.3h3.5l1.2-1.3z" style="fill:#2a2a29"/><path d="m224.2 16-1.2 1.3v3.4l1.2 1.3z" style="fill:#474747"/><path d="m224.2 22-1.2-1.3h-3.5l-1.3 1.3z" style="fill:#595959"/><path d="m218.2 22 1.3-1.3v-3.4l-1.3-1.3z" style="fill:#373737"/><rect x="228.5" y="17.3"/><path d="m227.2 16 1.3 1.3h3.5l1.2-1.3z" style="fill:#2a2a29"/><path d="m233.2 16-1.2 1.3v3.4l1.2 1.3z" style="fill:#474747"/><path d="m233.2 22-1.2-1.3h-3.5l-1.3 1.3z" style="fill:#595959"/><path d="m227.2 22 1.3-1.3v-3.4l-1.3-1.3z" style="fill:#373737"/><rect x="237.5" y="17.3"/><path d="m236.2 16 1.3 1.3h3.5l1.2-1.3z" style="fill:#2a2a29"/><path d="m242.2 16-1.2 1.3v3.4l1.2 1.3z" style="fill:#474747"/><path d="m242.2 22-1.2-1.3h-3.5l-1.3 1.3z" style="fill:#595959"/><path d="m236.2 22 1.3-1.3v-3.4l-1.3-1.3z" style="fill:#373737"/><rect x="246.5" y="17.3"/><path d="m245.2 16 1.3 1.3h3.5l1.2-1.3z" style="fill:#2a2a29"/><path d="m251.2 16-1.2 1.3v3.4l1.2 1.3z" style="fill:#474747"/><path d="m251.2 22-1.2-1.3h-3.5l-1.3 1.3z" style="fill:#595959"/><path d="m245.2 22 1.3-1.3v-3.4l-1.3-1.3z" style="fill:#373737"/><rect x="255.5" y="17.3"/><path d="m254.2 16 1.3 1.3h3.5l1.2-1.3z" style="fill:#2a2a29"/><path d="m260.2 16-1.2 1.3v3.4l1.2 1.3z" style="fill:#474747"/><path d="m260.2 22-1.2-1.3h-3.5l-1.3 1.3z" style="fill:#595959"/><path d="m254.2 22 1.3-1.3v-3.4l-1.3-1.3z" style="fill:#373737"/><path d="M126.2 55.1h9" class="st26"/><rect x="126.2" y="50.3" class="st39"/><path d="M132.1 55.1s.8-.6 1.1-.5c.3 0 .7-.2.8 0v.5z" style="fill:#22b573;fill-opacity:.7"/><rect x="130.2" y="52.1" class="st3"/><rect x="130.2" y="53.2" style="fill:#b3b3b3"/><path d="m132.9 54.6 1.2.1v-.9l-1.2.1z" style="fill:#d1c690"/><path d="M132.9 54.3c-.3 0-.6-.1-.7-.2-.3 0-.7-1-1-.9.4-.1.8.8 1.1.9.2 0 .4.2.7.2ZM128.6 51l-1.2-.2v.9l1.2-.1z" style="fill:#d1c690"/><path d="M130.6 52.9c0-.4-1.4-1.4-2.4-1.4.9 0 2.4 1 2.5 1.6ZM131.2 52.9s-.4 0-.5.4h.5z" style="fill:#d1c690"/><path d="M130.7 52.5s.2.4 0 .4h-.3c0-.1.2-.4.2-.4Z" style="fill:#d1c690"/><path d="M131.1 53.3c.3-.1.8.8 1 .9.2 0 .4.2.7.2-.3-.1-.6-.2-.7-.3-.3 0-.7-1-1-.9ZM128.6 51.7l-1.2.1v-.1l1.2-.1z" style="fill:#9d956c"/><path d="M130.6 52.9c0-.4-1.3-1.5-2.4-1.4 1.1-.1 2.3 1 2.4 1.4M130.8 53.3h.5z" style="fill:#9d956c"/><path d="M130.5 52.9h.3c-.1 0-.2 0-.3-.1Z" style="fill:#9d956c"/><rect x="128" y="50.3" class="st8"/><path d="M127.4 50.3v4.8h6.6v-4.8z" style="opacity:.5"/><path d="M127.5 51.1v-.3c0-.2 0-.3.1-.3h6.1q.3 0 0 0h-5.4c-.6 0-.6.1-.6.2v.3q0 .3 0 0Z" style="opacity:.6"/><path d="M126.2 55.1h1v-.7c0-.2.1-.3.2-.3v-3.8h-1.3V55" style="fill:#d1c690"/><rect x="126.1" y="50.3" class="st8"/><path d="M135.4 55.1v-4.8h-1.3v4.3c.1 0 .2.2.2.3s1 .1 1 .1" style="fill:#d1c690"/><rect x="134" y="50.3" class="st8"/><path d="M237.8 71.9h9.1" class="st26"/><rect x="237.8" y="67.1" class="st39"/><path d="M243.8 71.9s.8-.6 1.1-.5c.3 0 .7-.2.8 0v.5z" style="fill:#22b573;fill-opacity:.7"/><rect x="241.8" y="68.9" class="st3"/><rect x="241.8" y="70.1" style="fill:#b3b3b3"/><path d="m244.5 71.4 1.2.1v-.9l-1.2.1z" style="fill:#d1c690"/><path d="M244.6 71.2c-.3 0-.6-.1-.8-.2-.3 0-.7-1-1-.9.4-.1.8.8 1.1.9.2 0 .4.2.7.2M240.2 67.8l-1.2-.1v.9l1.2-.2z" style="fill:#d1c690"/><path d="M242.3 69.7c0-.4-1.4-1.4-2.4-1.4.9 0 2.4 1 2.5 1.6ZM242.9 69.7s-.4 0-.5.4h.5z" style="fill:#d1c690"/><path d="M242.3 69.3s.2.4 0 .4h-.3c0-.1.2-.4.2-.4Z" style="fill:#d1c690"/><path d="M242.8 70.1c.3-.1.8.8 1 .9.2 0 .4.2.8.2-.3-.1-.6-.2-.8-.3-.3 0-.7-1-1-.9ZM240.2 68.5l-1.2.1 1.2-.2z" style="fill:#9d956c"/><path d="M242.2 69.7c0-.4-1.3-1.5-2.4-1.4 1.1-.1 2.3 1 2.4 1.4M242.4 70.2h.5zM242.1 69.8h.3c-.1 0-.2 0-.3-.1Z" style="fill:#9d956c"/><rect x="239.7" y="67.1" class="st8"/><path d="M239 67.1v4.8h6.6v-4.8z" style="opacity:.5"/><path d="M239.1 68v-.3c0-.2 0-.3.1-.3h6.1q.3 0 0 0h-5.4c-.6 0-.7.1-.7.2v.3q0 .3 0 0Z" style="opacity:.6"/><path d="M237.8 71.9h1v-.7c0-.2.1-.3.2-.3v-3.8h-1.3v4.7" style="fill:#d1c690"/><rect x="237.8" y="67.1" class="st8"/><path d="M247 71.9v-4.8h-1.3v4.3c.1 0 .2.2.2.3s1 .1 1 .1" style="fill:#d1c690"/><rect x="245.7" y="67.1" class="st8"/><rect x="121.9" y="178.1" class="st55"/><rect x="121.9" y="153.8" class="st55"/><rect x="123.2" y="178.1" class="st16"/><rect x="123.2" y="153.8" class="st16"/><rect x="121.9" y="178.1" style="opacity:.2"/><rect x="121.9" y="153.8" style="opacity:.2"/><path d="M111.2 159.9v16.4c0 1 .8 1.7 1.7 1.7h19.5c1 0 1.7-.8 1.7-1.7v-16.4l-4.8-4.8h-13.4l-4.8 4.8Z" style="fill:#1a1a1a"/><circle cx="122.7" cy="166.6" r="10.9" style="fill:#e6e6e6"/><path d="M111.2 159.9v16.4c0 1 .8 1.7 1.7 1.7h19.5c1 0 1.7-.8 1.7-1.7v-16.4l-4.8-4.8h-13.4l-4.8 4.8Z" style="fill:#333"/><path d="m129.1 155.1 4.8 4.8v16.4c0 1-.8 1.7-1.7 1.7h.2c1 0 1.7-.8 1.7-1.7v-16.4l-4.8-4.8z"/><path d="M113.2 178.1c-1 0-1.7-.8-1.7-1.7V160l4.8-4.8h-.2l-4.8 4.8v16.4c0 1 .8 1.7 1.7 1.7z" style="opacity:.1"/><path d="M133.7 166.6c0 2.4-.8 4.5-2 6.3-2 2.8-5.2 4.6-8.9 4.6s-6.9-1.8-8.9-4.6c-1.3-1.8-2-3.9-2-6.3 0-6 4.9-10.9 10.9-10.9s10.9 4.9 10.9 10.9" style="fill:#e6e6e6"/><path d="M122.7 177.5c3.7 0 6.9-1.8 8.9-4.6h-17.7c2 2.8 5.2 4.6 8.9 4.6Z"/><path d="M123 155.7c-6 0-10.9 4.9-10.9 10.9s.8 4.5 2 6.3c2 2.8 5.2 4.6 8.9 4.6h-.3c-3.7 0-6.9-1.8-8.9-4.6-1.3-1.8-2-3.9-2-6.3 0-6 4.9-10.9 10.9-10.9z" style="opacity:.3"/><path d="M122.4 177.5c3.7 0 6.9-1.8 8.9-4.6h.3c-2 2.8-5.2 4.6-8.9 4.6z" class="st8"/><path d="M131.2 172.9c1.3-1.8 2-3.9 2-6.3 0-6-4.9-10.9-10.9-10.9h.3c6 0 10.9 4.9 10.9 10.9s-.8 4.5-2 6.3z" class="st18"/><rect x="96.7" y="178.1" class="st55"/><rect x="96.7" y="153.8" class="st55"/><rect x="98" y="178.1" class="st16"/><rect x="98" y="153.8" class="st16"/><rect x="96.7" y="178.1" style="opacity:.2"/><rect x="96.7" y="153.8" style="opacity:.2"/><path d="M86 159.9v16.4c0 1 .8 1.7 1.7 1.7h19.5c1 0 1.7-.8 1.7-1.7v-16.4l-4.8-4.8H90.7l-4.8 4.8Z" style="fill:#1a1a1a"/><circle cx="97.5" cy="166.6" r="10.9" style="fill:#e6e6e6"/><path d="M86 159.9v16.4c0 1 .8 1.7 1.7 1.7h19.5c1 0 1.7-.8 1.7-1.7v-16.4l-4.8-4.8H90.7l-4.8 4.8Z" style="fill:#333"/><path d="m103.9 155.1 4.8 4.8v16.4c0 1-.8 1.7-1.7 1.7h.2c1 0 1.7-.8 1.7-1.7v-16.4l-4.8-4.8z"/><path d="M88 178.1c-1 0-1.7-.8-1.7-1.7V160l4.8-4.8h-.2l-4.8 4.8v16.4c0 1 .8 1.7 1.7 1.7z" style="opacity:.1"/><path d="M108.5 166.6c0 2.4-.8 4.5-2 6.3-2 2.8-5.2 4.6-8.9 4.6s-6.9-1.8-8.9-4.6c-1.3-1.8-2-3.9-2-6.3 0-6 4.9-10.9 10.9-10.9s10.9 4.9 10.9 10.9" style="fill:#e6e6e6"/><path d="M97.5 177.5c3.7 0 6.9-1.8 8.9-4.6H88.7c2 2.8 5.2 4.6 8.9 4.6Z"/><path d="M97.8 155.7c-6 0-10.9 4.9-10.9 10.9s.8 4.5 2 6.3c2 2.8 5.2 4.6 8.9 4.6h-.3c-3.7 0-6.9-1.8-8.9-4.6-1.3-1.8-2-3.9-2-6.3 0-6 4.9-10.9 10.9-10.9z" style="opacity:.3"/><path d="M97.2 177.5c3.7 0 6.9-1.8 8.9-4.6h.3c-2 2.8-5.2 4.6-8.9 4.6z" class="st8"/><path d="M106 172.9c1.3-1.8 2-3.9 2-6.3 0-6-4.9-10.9-10.9-10.9h.3c6 0 10.9 4.9 10.9 10.9s-.8 4.5-2 6.3z" class="st18"/><rect x="126.7" y="185.5" style="fill:#404040"/><rect x="129.5" y="188.3"/><path d="m128.2 187 1.3 1.3h3.5l1.2-1.3z" style="fill:#2a2a29"/><path d="m134.2 187-1.2 1.3v3.4l1.2 1.3z" style="fill:#474747"/><path d="m134.2 193-1.2-1.3h-3.5l-1.3 1.3z" style="fill:#595959"/><path d="m128.2 193 1.3-1.3v-3.4l-1.3-1.3z" style="fill:#373737"/><rect x="138.5" y="188.3"/><path d="m137.2 187 1.3 1.3h3.5l1.2-1.3z" style="fill:#2a2a29"/><path d="m143.2 187-1.2 1.3v3.4l1.2 1.3z" style="fill:#474747"/><path d="m143.2 193-1.2-1.3h-3.5l-1.3 1.3z" style="fill:#595959"/><path d="m137.2 193 1.3-1.3v-3.4l-1.3-1.3z" style="fill:#373737"/><rect x="147.5" y="188.3"/><path d="m146.2 187 1.3 1.3h3.5l1.2-1.3z" style="fill:#2a2a29"/><path d="m152.2 187-1.2 1.3v3.4l1.2 1.3z" style="fill:#474747"/><path d="m152.2 193-1.2-1.3h-3.5l-1.3 1.3z" style="fill:#595959"/><path d="m146.2 193 1.3-1.3v-3.4l-1.3-1.3z" style="fill:#373737"/><rect x="156.5" y="188.3"/><path d="m155.2 187 1.3 1.3h3.5l1.2-1.3z" style="fill:#2a2a29"/><path d="m161.2 187-1.2 1.3v3.4l1.2 1.3z" style="fill:#474747"/><path d="m161.2 193-1.2-1.3h-3.5l-1.3 1.3z" style="fill:#595959"/><path d="m155.2 193 1.3-1.3v-3.4l-1.3-1.3z" style="fill:#373737"/><rect x="165.5" y="188.3"/><path d="m164.2 187 1.3 1.3h3.5l1.2-1.3z" style="fill:#2a2a29"/><path d="m170.2 187-1.2 1.3v3.4l1.2 1.3z" style="fill:#474747"/><path d="m170.2 193-1.2-1.3h-3.5l-1.3 1.3z" style="fill:#595959"/><path d="m164.2 193 1.3-1.3v-3.4l-1.3-1.3z" style="fill:#373737"/><rect x="174.5" y="188.3"/><path d="m173.2 187 1.3 1.3h3.5l1.2-1.3z" style="fill:#2a2a29"/><path d="m179.2 187-1.2 1.3v3.4l1.2 1.3z" style="fill:#474747"/><path d="m179.2 193-1.2-1.3h-3.5l-1.3 1.3z" style="fill:#595959"/><path d="m173.2 193 1.3-1.3v-3.4l-1.3-1.3z" style="fill:#373737"/><rect x="183.5" y="188.3"/><path d="m182.2 187 1.3 1.3h3.5l1.2-1.3z" style="fill:#2a2a29"/><path d="m188.2 187-1.2 1.3v3.4l1.2 1.3z" style="fill:#474747"/><path d="m188.2 193-1.2-1.3h-3.5l-1.3 1.3z" style="fill:#595959"/><path d="m182.2 193 1.3-1.3v-3.4l-1.3-1.3z" style="fill:#373737"/><rect x="192.5" y="188.3"/><path d="m191.2 187 1.3 1.3h3.5l1.2-1.3z" style="fill:#2a2a29"/><path d="m197.2 187-1.2 1.3v3.4l1.2 1.3z" style="fill:#474747"/><path d="m197.2 193-1.2-1.3h-3.5l-1.3 1.3z" style="fill:#595959"/><path d="m191.2 193 1.3-1.3v-3.4l-1.3-1.3z" style="fill:#373737"/><path d="M135.2 75h-9" class="st26"/><rect x="126.1" y="75" class="st39"/><path d="M129.3 75s-.8.6-1.1.5c-.3 0-.7.2-.8 0V75z" style="fill:#22b573;fill-opacity:.7"/><rect x="130.2" y="76.8" class="st3"/><rect x="130.2" y="76.8" style="fill:#b3b3b3"/><path d="m128.6 75.5-1.2-.1v.9l1.2-.2z" style="fill:#d1c690"/><path d="M128.5 75.7c.3 0 .6.1.7.2.3 0 .7 1 1 .9-.4.1-.8-.8-1.1-.9-.2 0-.4-.2-.7-.2ZM132.9 79.1l1.2.1v-.9l-1.2.1z" style="fill:#d1c690"/><path d="M130.8 77.2c0 .4 1.4 1.4 2.4 1.4-.9 0-2.4-1-2.5-1.6ZM130.2 77.2s.4 0 .5-.4h-.5z" style="fill:#d1c690"/><path d="M130.8 77.6s-.2-.4 0-.4h.3c0 .1-.2.4-.2.4Z" style="fill:#d1c690"/><path d="M130.3 76.7c-.3.1-.8-.8-1-.9-.2 0-.4-.2-.7-.2.3.1.6.2.7.3.3 0 .7 1 1 .9ZM132.9 78.4l1.2-.2v.1z" style="fill:#9d956c"/><path d="M130.9 77.2c0 .4 1.3 1.5 2.4 1.4-1.1.1-2.3-1-2.4-1.4M130.7 76.7h-.5zM131 77.1h-.3c.1 0 .2 0 .3.1Z" style="fill:#9d956c"/><rect x="128.1" y="79.7" class="st8"/><path d="M134 79.8V75h-6.6v4.8z" style="opacity:.5"/><path d="M134 78.9v.3c0 .2 0 .3-.1.3h-6.1q-.3 0 0 0h5.4c.6 0 .6-.1.6-.2V79q0-.3 0 0Z" style="opacity:.6"/><path d="M135.2 75h-1v.7c0 .2-.1.3-.2.3v3.8h1.3v-4.7" style="fill:#d1c690"/><rect x="134.1" y="79.7" class="st8"/><path d="M126.1 75v4.8h1.3v-4.3c-.1 0-.2-.2-.2-.3s-1-.1-1-.1" style="fill:#d1c690"/><rect x="126.1" y="79.7" class="st8"/><path d="M135.2 66.9h-9" class="st26"/><rect x="126.1" y="66.9" class="st39"/><path d="M129.3 66.9s-.8.6-1.1.5c-.3 0-.7.2-.8 0v-.5z" style="fill:#22b573;fill-opacity:.7"/><rect x="130.2" y="68.7" class="st3"/><rect x="130.2" y="68.7" style="fill:#b3b3b3"/><path d="m128.6 67.4-1.2-.1v.9l1.2-.2z" style="fill:#d1c690"/><path d="M128.5 67.6c.3 0 .6.1.7.2.3 0 .7 1 1 .9-.4.1-.8-.8-1.1-.9-.2 0-.4-.2-.7-.2ZM132.9 71l1.2.1v-.9l-1.2.1z" style="fill:#d1c690"/><path d="M130.8 69.1c0 .4 1.4 1.4 2.4 1.4-.9 0-2.4-1-2.5-1.6ZM130.2 69.1s.4 0 .5-.4h-.5z" style="fill:#d1c690"/><path d="M130.8 69.5s-.2-.4 0-.4h.3c0 .1-.2.4-.2.4Z" style="fill:#d1c690"/><path d="M130.3 68.6c-.3.1-.8-.8-1-.9-.2 0-.4-.2-.7-.2.3.1.6.2.7.3.3 0 .7 1 1 .9ZM132.9 70.3l1.2-.2v.1z" style="fill:#9d956c"/><path d="M130.9 69.1c0 .4 1.3 1.5 2.4 1.4-1.1.1-2.3-1-2.4-1.4M130.7 68.6h-.5zM131 69h-.3c.1 0 .2 0 .3.1Z" style="fill:#9d956c"/><rect x="128.1" y="71.6" class="st8"/><path d="M134 71.7v-4.8h-6.6v4.8z" style="opacity:.5"/><path d="M134 70.8v.3c0 .2 0 .3-.1.3h-6.1q-.3 0 0 0h5.4c.6 0 .6-.1.6-.2v-.3q0-.3 0 0Z" style="opacity:.6"/><path d="M135.2 66.9h-1v.7c0 .2-.1.3-.2.3v3.8h1.3V67" style="fill:#d1c690"/><rect x="134" y="71.6" class="st8"/><path d="M126.1 66.9v4.8h1.3v-4.3c-.1 0-.2-.2-.2-.3s-1-.1-1-.1" style="fill:#d1c690"/><rect x="126.1" y="71.6" class="st8"/><rect x="65.7" y="143.4" style="fill:#999"/><rect x="65.7" y="135.2" style="fill:#999"/><rect x="65.7" y="127" style="fill:#999"/><rect x="71.6" y="143.4" style="opacity:.2"/><rect x="71.6" y="135.2" style="opacity:.2"/><rect x="71.6" y="127" style="opacity:.2"/><rect x="46.6" y="131" style="fill:#999"/><rect x="46.6" y="131" style="opacity:.2"/><rect x="53.2" y="125.4" style="fill:#303030"/><path d="M53.2 149.3v-23.9l.9.9v22.1zM65.7 149.3v-23.9l-.9.9v22.1z" style="fill:#1f1f1f"/><path d="M53.2 149.3h12.5l-.9-.9H54.1z"/><path d="M53.2 125.4h12.5l-.9.9H54.1z" style="fill:#3d3d3d"/><circle cx="63" cy="146.6" r=".9" style="fill:#1f1f1f"/><rect x="31.8" y="156.5" style="fill:#232323"/><rect x="32.5" y="157.2" style="fill:#494949"/><rect x="32.5" y="159.3" style="fill-opacity:.3"/><rect x="31.2" y="183.5"/><rect x="31.2" y="176.3" style="fill:#0f0f0f;fill-opacity:.4"/><rect x="72.3" y="156.5" class="st18"/><path d="M69.5 186.2v-29.7" style="stroke:#000"/><rect x="34.6" y="156.5" style="opacity:.2"/><path d="M34.9 161.9v18.8h16.6c5.2 0 9.4-4.2 9.4-9.4s-4.2-9.4-9.4-9.4z" style="stroke:#565656"/><path d="M34.9 161.9v18.8h16.6c5.2 0 9.4-4.2 9.4-9.4s-4.2-9.4-9.4-9.4z" style="fill:#232323"/><rect x="26.2" y="155.4" style="fill:#232323"/><rect x="73" y="167.8" style="fill:#6d6d6d"/><rect x="73" y="164.3" style="fill:#494949"/><rect x="27.1" y="155.9" style="fill:#494949"/><rect x="27.1" y="185.5"/><path d="M34.3 38.6H38v5.1h-6.1v-4c0-.6.5-1.1 1.1-1.1z" style="fill:#999"/><path d="M32.9 38.6v5.1h-1v-4.1c0-.5.7-.9 1-.9Z" style="fill:gray"/><rect x="19.5" y="43.7" style="fill:#b3b3b3"/><rect x="10" y="43.7" style="fill:#999"/><rect x="10" y="81.7" style="fill:#ccc"/><rect x="10" y="43.7" class="st18"/><path d="M34.3 89.4H38v-5.1h-6.1v4c0 .6.5 1.1 1.1 1.1z" style="fill:#b3b3b3"/><path d="M32.9 89.4v-5.1h-1v4.1c0 .5.7.9 1 .9Z" style="fill:#e6e6e6"/><path d="M66.4 34.4V14.5H40.5v19.9h7.8V34h10.3v.4z" class="st55"/><path d="M40.5 11.3v19.8h25.9V11.3h-7.8v.4H48.3v-.4z" class="st55"/><circle cx="53.4" cy="22.9" r="6.4" style="fill:#641d1c"/><path d="M59.8 22.5c0-3.5-2.9-6.4-6.4-6.4S47 19 47 22.5v.3c0-3.5 2.9-6.4 6.4-6.4s6.4 2.9 6.4 6.4z" class="st18"/><circle cx="53.4" cy="22.8" r="6.2" style="fill:#852725"/><circle cx="53.4" cy="23" r="6.2" style="fill:#852725"/><path d="M53.6 29c3.4 0 6.2-2.8 6.2-6.2s-2.8-6.2-6.2-6.2h-.3c3.4 0 6.2 2.8 6.2 6.2S56.7 29 53.3 29z" class="st16"/><path d="M53.6 16.7c-3.4 0-6.2 2.8-6.2 6.2s2.8 6.2 6.2 6.2h-.3c-3.4 0-6.2-2.8-6.2-6.2s2.8-6.2 6.2-6.2z" style="opacity:.2"/><rect x="40.5" y="34" style="opacity:.2"/><rect x="58.6" y="34" style="opacity:.2"/><rect x="48.3" y="33.5" style="opacity:.2"/><rect x="40.5" y="11.3" class="st18"/><rect x="58.6" y="11.3" class="st18"/><rect x="48.3" y="11.7" class="st18"/><rect x="66.4" y="29.1" style="fill:#e6e6e6"/><rect x="66.4" y="13.8" style="fill:#e6e6e6"/><rect x="37.2" y="20.6" style="fill:#e6e6e6"/><rect x="37.2" y="29.1" style="fill:#e6e6e6"/><rect x="37.2" y="13.8" style="fill:#e6e6e6"/><rect x="37.2" y="20.6" style="opacity:.2"/><rect x="37.2" y="29.1" style="opacity:.2"/><rect x="37.2" y="13.8" style="opacity:.2"/><rect x="69.8" y="29.1" class="st18"/><rect x="69.8" y="13.8" class="st18"/><rect x="66.5" y="29.1" class="st16"/><rect x="66.5" y="13.8" class="st16"/><text style="font-size:5.2px" transform="translate(44.1 39.3)"><tspan x="0" y="0">RESET</tspan></text><rect x="94.2" y="14.5" style="fill:#404040"/><rect x="97" y="17.3"/><path d="m95.7 16 1.3 1.3h3.5l1.3-1.3z" style="fill:#2a2a29"/><path d="m101.8 16-1.3 1.3v3.4l1.3 1.3z" style="fill:#474747"/><path d="m101.8 22-1.3-1.3H97L95.7 22z" style="fill:#595959"/><path d="m95.7 22 1.3-1.3v-3.4L95.7 16z" style="fill:#373737"/><rect x="106" y="17.3"/><path d="m104.7 16 1.3 1.3h3.5l1.3-1.3z" style="fill:#2a2a29"/><path d="m110.8 16-1.3 1.3v3.4l1.3 1.3z" style="fill:#474747"/><path d="m110.8 22-1.3-1.3H106l-1.3 1.3z" style="fill:#595959"/><path d="m104.7 22 1.3-1.3v-3.4l-1.3-1.3z" style="fill:#373737"/><rect x="115" y="17.3"/><path d="m113.7 16 1.3 1.3h3.5l1.3-1.3z" style="fill:#2a2a29"/><path d="m119.8 16-1.3 1.3v3.4l1.3 1.3z" style="fill:#474747"/><path d="m119.8 22-1.3-1.3H115l-1.3 1.3z" style="fill:#595959"/><path d="m113.7 22 1.3-1.3v-3.4l-1.3-1.3z" style="fill:#373737"/><rect x="124" y="17.3"/><path d="m122.7 16 1.3 1.3h3.5l1.3-1.3z" style="fill:#2a2a29"/><path d="m128.8 16-1.3 1.3v3.4l1.3 1.3z" style="fill:#474747"/><path d="m128.8 22-1.3-1.3H124l-1.3 1.3z" style="fill:#595959"/><path d="m122.7 22 1.3-1.3v-3.4l-1.3-1.3z" style="fill:#373737"/><rect x="133" y="17.3"/><path d="m131.7 16 1.3 1.3h3.5l1.3-1.3z" style="fill:#2a2a29"/><path d="m137.8 16-1.3 1.3v3.4l1.3 1.3z" style="fill:#474747"/><path d="m137.8 22-1.3-1.3H133l-1.3 1.3z" style="fill:#595959"/><path d="m131.7 22 1.3-1.3v-3.4l-1.3-1.3z" style="fill:#373737"/><rect x="142" y="17.3"/><path d="m140.7 16 1.3 1.3h3.5l1.3-1.3z" style="fill:#2a2a29"/><path d="m146.8 16-1.3 1.3v3.4l1.3 1.3z" style="fill:#474747"/><path d="m146.8 22-1.3-1.3H142l-1.3 1.3z" style="fill:#595959"/><path d="m140.7 22 1.3-1.3v-3.4l-1.3-1.3z" style="fill:#373737"/><rect x="151" y="17.3"/><path d="m149.7 16 1.3 1.3h3.5l1.3-1.3z" style="fill:#2a2a29"/><path d="m155.8 16-1.3 1.3v3.4l1.3 1.3z" style="fill:#474747"/><path d="m155.8 22-1.3-1.3H151l-1.3 1.3z" style="fill:#595959"/><path d="m149.7 22 1.3-1.3v-3.4l-1.3-1.3z" style="fill:#373737"/><rect x="160" y="17.3"/><path d="m158.7 16 1.3 1.3h3.5l1.3-1.3z" style="fill:#2a2a29"/><path d="m164.8 16-1.3 1.3v3.4l1.3 1.3z" style="fill:#474747"/><path d="m164.8 22-1.3-1.3H160l-1.3 1.3z" style="fill:#595959"/><path d="m158.7 22 1.3-1.3v-3.4l-1.3-1.3z" style="fill:#373737"/><rect x="169" y="17.3"/><path d="m167.7 16 1.3 1.3h3.5l1.3-1.3z" style="fill:#2a2a29"/><path d="m173.8 16-1.3 1.3v3.4l1.3 1.3z" style="fill:#474747"/><path d="m173.8 22-1.3-1.3H169l-1.3 1.3z" style="fill:#595959"/><path d="m167.7 22 1.3-1.3v-3.4l-1.3-1.3z" style="fill:#373737"/><rect x="178" y="17.3"/><path d="m176.7 16 1.3 1.3h3.5l1.3-1.3z" style="fill:#2a2a29"/><path d="m182.8 16-1.3 1.3v3.4l1.3 1.3z" style="fill:#474747"/><path d="m182.8 22-1.3-1.3H178l-1.3 1.3z" style="fill:#595959"/><path d="m176.7 22 1.3-1.3v-3.4l-1.3-1.3z" style="fill:#373737"/><rect x="127.2" y="50.3" style="fill:#ff0"/><rect x="239" y="67.2" style="fill:#0f0"/></g></svg>