<svg xmlns="http://www.w3.org/2000/svg" width="61.615" height="61.672" viewBox="-0.119 0.147 61.615 61.672"><path fill="#dcd2b4" d="M5.224 55.667c-.498-.167 0 2.387-.62 2.261-.175-.036-.356-2.699-.538-4.941-.462-5.671-.828-22.059-.828-22.059s-.718-4.58 2.237-5.243 2.153 11.941 2.153 11.941-.271 17.322-.579 20.261c-.414-.402-.414-2.05-.663-2.094s-.084 2.513-.454 2.469c-.371-.044-.23-2.428-.708-2.595M38.685 39.754c-3.868-3.195-3.411-6.778-5.15-9.102 0 0-2.871-1.738-3.928.579-1.058 2.316 3.167 6.361 3.167 6.361.177.16 3.514 4.077 6.88 5.749a10.44 10.44 0 0 0 6.253.847s-3.354-1.236-7.222-4.434"/><path fill="#aaa082" d="M14.06 37.36c-3.437.082-2.739 4.454-2.739 4.454.12.833 3.438 17.709 3.517 18.614-.656.153-1.23-.334-1.897-.091l-.079.505a.88.88 0 0 0 .78.281c.478 0 .956.015 1.449.029.797.022.751.051 1.548.073q.14-.015.273-.061c.079-.169.586-23.886-2.852-23.804M26.638 60.562a4 4 0 0 1 .132-.422c.495-1.128 3.397-18.474 3.409-18.818 0 0 1.066-2.389-2.696-3.962s-3.634 2.856-3.634 2.856c0 .211.605 20.818.823 20.99.299.137 2.392-.187 3.11.113.32-.053.612-.118.61-.537-.158-.116-1.28.058-1.754-.22"/><path d="M33.992 15.216c-.063-.392-.307-2.358-.307-2.358l-6.698-.077s-.433-1.174-.901-2.784c-.173-.591-.783-2.697-.783-2.697l-3.203.535-3.547-6.751a10 10 0 0 0-2.29-.433 12.4 12.4 0 0 0-2.753.242s-2.225 1.978-2.239 2.22l-.914 14.698s12.997 9.665 14.241 10.595c.581.436 1.854 1.825 2.593 1.915.622.075.598-.15 1.236-.656 1.39-1.099 2.613-2.537 3.883-3.777.517-.503 2.794-2.776 2.794-2.776s-.77-5.744-1.112-7.896"/><path fill="#f0e6d2" d="m35.104 23.105-1.854.145-2.485 1.007-6.574-.528-3.634-5.942-.717-5.159h-6.198L13.479.862s-3.297.774-3.794.99A11.2 11.2 0 0 0 5.649 4.94C1.343 9.917.083 17.581.437 24.02c.39 7.082 2.672 14.015 7.432 19.365 2.469 2.776 5.263 4.064 8.612 5.463.562.242 4.167 1.152 6.861.705 3.863-.644 7.155-2.92 7.958-4.045a43 43 0 0 0 2.237-3.525 15.1 15.1 0 0 0 1.816-5.144c1.062-6.264-.249-13.734-.249-13.734"/><path fill="linen" d="M6.032 37.365c1.435 2.822 3.706 6.034 6.459 6.891.689.213 1.572.46 2.234.242.4-.163.76-.41 1.058-.726.435-.687.801-1.417 1.093-2.178.478-2.046.284-4.142.287-6.079a28 28 0 0 0-.457-4.434c-.17-1.034-.419-2.305-.885-3.244-1.139-2.297-3.323-3.851-5.423-3.953a6.9 6.9 0 0 0-2.679.17 9 9 0 0 0-2.297 1.21C3.508 27.2 3.96 30.831 4.14 31.8a21.2 21.2 0 0 0 1.892 5.565"/><path fill="#ffdc00" d="M20.557 17.787s.082 2.962.189 6.514c.153 5.063.299 7.155.299 12.175s4.244 6.536 4.718 1.07c.473-5.466.325-5.265.325-8.639s.698-3.74 1.304-3.704c.605.037 1.267.485 1.504 2.179.479 3.355.445 4.58 2.723 4.58s1.633-8.7 1.633-8.7l-3.179-.022-2.325-6.187z"/><path d="m51.116 14.247-.225 5.853-5.502 4.192.692 5.142-4.629 3.657 1.552 6.64s5.263 3.977 9.313-2.575c4.05-6.553 2.828-16.519 2.828-16.519z"/><path fill="#f0e6d2" d="m38.739 40.891 5.981-4.132-1.036-7.63 4.21-2.44-.22-7.262 4.741-1.569s-.99-2.904-1.294-3.611c1.007-.47 7.009 1.263 9.471 8.545.861 2.549.38 8.472-1.792 12.722-2.213 4.326-6.543 7.066-8.547 7.657-7.574 2.237-11.514-2.28-11.514-2.28"/><path fill="#dcd2b4" d="M46.505 42.31c.191.165-1.256.995-.928 1.189.328.193 1.61-.969 1.801-.746s-1.337.884-1.009 1.104c.196.131.923-.09 1.478-.291.378-.135.677-.264.677-.264s-.543.792-2.019 1.078c-1.409.273-3.72.055-5.131-.526a26 26 0 0 0 2.892-.689c.828-.255 2.048-1.022 2.239-.855"/></svg>