<svg xmlns="http://www.w3.org/2000/svg" xml:space="preserve" width="173.329" height="262.625" viewBox="-0.099 1.548 173.329 262.625"><title>Slice 1</title><g fill-rule="evenodd"><path fill="#624b59" d="m66.867 259.474.656 4.2h11.14l-2.528-3.84-3.822-.601s-5.145-.302-5.54-.825c-.394-.523.094 1.066.094 1.066"/><path fill="#debb9b" d="M81.003 136.763s-1.635 30.794-3.838 44.021c-2.902 17.421-5.145 20.98-5.145 26.038s.651 14.143-.753 23.509-4.774 23.79-5.897 25.756c-.397.943.374.8 1.404 2.321 1.03 1.52 6.927.677 6.927.677.137-1.028-.842-1.64.562-4.121.95-1.679-1.25-2.99.983-20.56 1.404-11.05 1.657-12.053 3.51-17.28 1.1-3.1 3.651-6.65 3.651-9.365 0-2.25-1.404-7.306 2.154-22.385s18.629-57.415 18.629-57.415"/><path fill="#af7444" d="M65.65 255.46c.155-.187 3.651.16 4.775-1.527 1.123-1.685 1.063-3.371 2.216-4.12s1.695-5.99 1.695-5.99-2.682.343-4.287.744c-1.604.402-2.523 4.485-2.898 5.796-.374 1.311-1.5 5.097-1.5 5.097M74.444 242.182s-3.707-.47-4.956.154c-1.248.624-.057-1.67.505-4.231s1.058-5.088 2.648-5.65 2.782.562 2.782.562-.859 8.103-.98 9.165M75.23 228.895s-1.257.438-1.751-.624c-.495-1.062-.38-3.435 0-6.681.379-3.247.753-4.683 1.752-6.12.998-1.435 1.497-2.373 1.997-1.748.499.625.437 1.56.686 2.06s-1.747 5.12-1.935 6.932c-.187 1.81-.748 6.181-.748 6.181M80.488 212.41s-6.995.219-7.723-2.029-1.049-4.392-.55-6.14c.5-1.748.956-1.572 2.204-2.258s6.116-2.685 6.49-2.872.25-.25.313 2.123c.062 2.373 1.68 5.631 1.118 7.317s-.79 3.298-1.852 3.86M73.249 199.461s6.1-1.162 7.099-2.349c.999-1.186 1.997-.812 1.436-2.06s-1.374-3.996-2.06-5.12c-.687-1.124-.25-1.499-1.186-1.311-.936.187-2.377.068-2.927.609s-.896 5.31-1.395 6.308c-.895 1.79-.593 2.07-.967 3.923M82.829 192.726c-.125-.187-4.416-7.228-3.979-8.414s1.56-1.373 2.933-.999c1.373.375 3.09.78 3.09.78s-.964 3.061-1.027 4.482c-.062 1.42-1.017 4.15-1.017 4.15M77.933 178.88s2.478 3.31 4.537 3.06c2.06-.25 3.072-.382 3.072-.382l.794-2.822s-1.414-5.538-4.45-6.849-2.1-.312-2.536 1.748c-.437 2.06-1.417 5.245-1.417 5.245M84.227 171.825c-.009-.005-4.128-2.248-4.379-3.122-.249-.875-.436-1.624 0-3.372.437-1.748 1.597-6.743 1.673-8.305.075-1.561.262-.937 1.573-1.936s4.12-2.685 4.43-3.371c.313-.687.126-1.437.75.936s2.808 2.186 1.747 4.059-3.495 7.805-3.557 9.74-.939 6.113-2.237 5.37M97.683 143.749c-.187.062-6.6 2.35-7.973 2.974s-2.747 1.936-1.311 3.248c1.436 1.31 2.808 2.185 2.933 3.371s-.75 2.747-.124 2.872c.623.126 1.96 1.205 2.958-2.104s3.517-10.362 3.517-10.362M79.736 156.151c.25-.187 3.563-3.434 4.49-3.996.928-.562 2.176-.812 1.864-2.248-.312-1.435-2.56-.562-3.37-2.81-.812-2.247-.17-2.309-.834-2.559s-1.59 2.35-1.59 3.786c0 1.437-.56 7.827-.56 7.827"/><path fill="#af7444" d="M83.032 142.602c.006.25-.045 3.684 1.195 3.871 1.239.188 2.113.5 4.11-.749s1.824-1.123 3.783-1.748 2.832-1.125 3.518-1.374c.687-.25.998-.812.811-1.748-.187-.937.562-1.999-1.684-1.25s-2.549 3.248-4.458 2.561c-1.908-.687-.348-1.998-3.593-1.748s-3.702 1.37-3.682 2.185"/><path fill="none" stroke="#533d37" stroke-width=".563" d="M81.003 136.763s-1.635 30.794-3.838 44.021c-2.902 17.421-5.145 20.98-5.145 26.038s.651 14.143-.753 23.509-4.774 23.79-5.897 25.756c-.397.943.374.8 1.404 2.321 1.03 1.52 6.927.677 6.927.677.137-1.028-.842-1.64.562-4.121.95-1.679-1.25-2.99.983-20.56 1.404-11.05 1.657-12.053 3.51-17.28 1.1-3.1 3.651-6.65 3.651-9.365 0-2.25-1.404-7.306 2.154-22.385s18.629-57.415 18.629-57.415"/><path fill="#624b59" d="M51.765 259.474s1.622 2.514 1.622 4.2h9.642l-1.404-3.372s-2.146-.974-4.228-1.883c-.44-.085-4.602.306-5.632 1.055"/><path fill="#debb9b" d="M50.017 160.553s1.123 10.678 0 18.639c-1.124 7.961-5.71 21.542-5.71 21.542s-1.499 4.87-.562 8.898c.936 4.027 12.918 46.08 12.918 46.08s.656 1.874 1.405 2.342c.749.469-5.083.75-7.316 1.78 0 0-2.26-19.013-8.505-35.779 0 0-3.37-8.616-6.179-11.988-2.808-3.372-2.434-2.529-2.715-4.309s7.677-18.45-4.212-50.39"/><path fill="#af7444" d="M48.626 247.15c.047.22 2.953-1.21 3.14-2.52.186-1.312.8-3.342.8-3.342l-1.402-4.952s-2.271 1.488-2.957 2.424c-.687.937-.896 2.378-.896 2.378s1.127 5.139 1.315 6.012M44.973 232.296c.019.197 2.093-.03 2.664-.342.57-.312 1.63-2.333 1.63-2.333s-1.06-2.662-1.965-4.098c-.905-1.437-2.028-2.373-3.339-2.436s-1.606 1.266-1.606 1.266 2.49 6.632 2.616 7.943M40.194 219.29c.187 0 2.395-.823 2.52-1.51.126-.687 2.123-2.06 2.248-2.248.124-.187-.826-4.37-.826-4.37s-1.796-.626-3.418.186-2.787 3.507-2.787 3.507zM35.306 211.162s1.418 0 1.792-.875c.375-.874 2.496-4.558 3.558-4.683 1.06-.125 2.803.19 2.803.19s.272-3.873.847-5.06c.576-1.187-1.148-4.183-2.836-3.934-1.688.25-2.749.812-4.247 2.435-1.498 1.624-2.542 2.293-2.542 2.293s-1.265 5.481-1.327 6.23 1.29 3.078 1.952 3.404M45.96 195.551s-4.68-.374-5.305-1.436c-.624-1.061.062-3.622 0-6.119s-.5-4.996.562-4.996c1.061 0 3.315.563 3.315.563s1.74.624 1.74-.562c0-1.187.936-6.245 2.185-8.243 1.247-1.997 1.99-.556 1.99-.556s-1.679 15.48-4.487 21.35M35.306 196.175s3.103-1.435 3.103-2.621c0-1.187-.874-2.936-.5-6.245.375-3.309 2.185-6.806.5-6.431-1.685.374-3.103.75-3.103.75s.922 12.263 0 14.547"/><path fill="#af7444" d="M34.818 178.75s4.527.879 6.025 1.191c1.497.313 2.723 1.249 2.952.25s1.229-6.556 2.04-8.554c.812-1.998 1.498-2.81.936-3.56-.562-.749-.95.624-1.598-1.56-.649-2.186-1.023-2.311-2.27-2.249-1.25.063-6.492 3.685-6.492 3.685s-.063.312-1.061-.188-1.193-.063-1.19 1.749c.004 1.81-.514 2.934-.514 2.934zM30.732 157.369l3.429 1.467s-1.057.562-.87 2.248 2.364 2.435.87 3.934l-1.495 1.498s-2.932-7.867-1.934-9.147M37.223 165.83c-.122-.143-2.247-1.968-1.873-3.888.375-1.92 1.393-2.169 2.132-3.73.739-1.562 1.085-2.872 2.91-3.56 1.824-.686 5.568 4.559 5.568 4.559s.562 1.436 0 2.373c-.562.936-3.668.749-5.391 2.06-1.724 1.311-2.887 2.727-3.346 2.185"/><path fill="#af7444" d="M48.83 162.457s-2.495.227-2.371 1.8 1.498 1.697 1.436 2.821-.562 4.745-.562 4.745.936 2.123 1.498 0c.561-2.122 1.123-3.496 1.123-3.496s.935-6.73-1.123-5.87"/><path fill="none" stroke="#533d37" stroke-width=".563" d="M50.017 160.553s1.123 10.678 0 18.639c-1.124 7.961-5.71 21.542-5.71 21.542s-1.499 4.87-.562 8.898c.936 4.027 12.918 46.08 12.918 46.08s.656 1.874 1.405 2.342c.749.469-5.083.75-7.316 1.78 0 0-2.26-19.013-8.505-35.779 0 0-3.37-8.616-6.179-11.988-2.808-3.372-2.434-2.529-2.715-4.309s7.677-18.45-4.212-50.39"/><path fill="#af7444" d="M23.694 137.294s2.42 33.156-8.69 39.337c0 0 12.545-7.867 10.492-32.25"/><path fill="none" stroke="#533d37" stroke-width=".563" d="M23.694 137.294s2.42 33.156-8.69 39.337c0 0 12.545-7.867 10.492-32.25"/><g fill="none" stroke="#533d37" stroke-width=".563"><path d="M10.973 173.096s.25 4.433 4.369 3.372"/><path d="M9.45 175.57c.188.063 3.555 2.744 5.555 1.062"/><path d="M9.45 177.943c.25 0 4.057 1.56 5.243-1.311"/><path d="M11.95 179.41c.186-.124 2.495.687 3.182-2.778"/></g><path fill="#fadab9" d="M145.057 30.146s1.17 1.889 4.002 3.676 7.325 3.473 13.972 3.067c0 0 .81 2.935 2.87 3.622s4.931.749 6.553 0c.438-.25.348-.465-.374-3.934-.811-3.902-7.239-7.367-14.51-23.477 0 0-2.403-4.433-10.547-2.154-6.538 1.436-13.98 15.344-18.148 21.469-4.5 6.668-18.69 32.194-41.063 41.092 0 0-4.572 2.049-8.114 2.974-1.505.393-6.006.808-7.645 2.54-1.638 1.733-7.395 8.477-8.612 9.694s-5.282 5.79-9.736 9.32c-6.974 5.525-15.4 7.118-20.69 14.704-6.1 8.752-9.876 14.798-9.267 27.162s13.304 23.724 25.323 22.807c16.57-1.265 37.902-19.48 42.75-23.54 5.247-4.392 15.663-10.244 14.682-17.484-.749-5.526-1.525-10.415-1.946-12.804 0 0-1.097-3.68 3.959-9.862 0 0 10.641-13.175 18.067-27.536s14.59-31.743 16.524-35.615c0 0 2.785.726 6.093-1.957"/><path fill="#af7444" d="M37.236 159.909s-2.198-3.695-2.01-3.695c.187 0 3.12-2.747 2.87-5.931s1.436-3.31 2.684-5.121c1.248-1.81 3.494-6.556 3.432-.562s.002 15.236.002 15.236zM50.08 152.03s-1.686-9.24-1.499-9.303c.188-.062 7.302 1 7.302 1l-1.31 8.304z"/><path fill="#af7444" d="M51.203 155.09s4.493-.499 4.93-3.06.561-6.18 1.81-5.68c1.248.498 4.306 1.685 4.306 1.685s3.37-1.687 4.369-2.685c.999-1 .936 3.434 1.123 6.244s-6.366 6.432-11.109 8.242c-2.246.75-6.469-4.555-5.43-4.746"/><path fill="#af7444" d="M45.523 161.772c-.244-.052 0-14.924 0-14.924h1.872s2.002 11.351 4.83 13.06c2.828 1.71-4.642 2.3-6.702 1.864M35.975 147.66c-.16.115 0-7.056 0-7.056s.561-2.123-.437-2.747c-1-.625-3.12-.687-2.372-2.373s.625-2.123 2.56-3.247c1.934-1.124 6.802-5.307 6.802-5.307s.748-.313 2.059 3.372c1.31 3.684 3.154 3.747.828 6.306s-7.693 9.804-9.44 11.052"/><path fill="#af7444" d="M34.26 149.562c.5-.187 0-8.492 0-8.492s.56-1.124-1.156-1.748c-1.715-.625-2.838-1.374-2.838-1.374v-8.991s-.25-.312-2.56 2.248c-2.308 2.56-3.865 4.055-3.865 4.055s-.88 10.731 4.138 16.222c.796.798 5.781-1.733 6.28-1.92"/><path fill="#af7444" d="M31.855 132.986c-.062-.187 0-8.928 0-8.928s-.561-1.436.811-3.372c1.374-1.936 5.493-8.242 5.493-8.242s.945-1.799.25 8.304c-.696 10.103-.25 6.744-.25 6.744s-.687 1.623-3.932 4.059-2.372 1.435-2.372 1.435M40.53 123.558V111.07s-.551-.937 5.996-4.184c6.549-3.246 9.794-4.746 9.794-3.497v12.489s.063.687-2.746 2.06c-2.808 1.374-11.171 6.057-11.171 6.057s-1.872 1.498-1.872-.437M46.896 131.8c-.284-.25-2.112-3.372-.37-5.557 1.743-2.185 4.515-5.058 4.515-5.058s.91-1.749 2.783 2.06 4.431 8.555 4.431 8.555 1.622 1.686 0 3.56c-1.623 1.872-3.183 4.931-3.183 4.931s-.188 1.5-3.245.938-5.3-1.249-5.3-1.249-.87 0 0-1.249c.869-1.249 2.04-3.934 2.04-3.934s-.11-1.623-1.67-2.997"/><path fill="#af7444" d="m55.134 118.75 2.185-1.499.624-5.556s-.095-1.062 1.45-1.25 4.354-.687 4.354-.687 1.31-.186 1.934 1.937c.625 2.122 2.065 6.493 2.065 6.493s1.368 1.124-.941 2.873c-2.31 1.748-3.932 2.934-3.932 2.934s-1.278 1.311-1.232 2.06-.39 1.062-1.264 1.437c-.874.374-1.935 1.373-2.496 0-.562-1.374-3.183-7.43-3.183-7.43s-.361-.765.436-1.312M58.976 107.261c.016-.296-.284-4.31-.284-4.31s0-1.123.998-1.247c.999-.125 2.122-.188 2.247-.937l1.186-7.118s-.062-.687 1.373-.937 4.307-.999 4.307-.999 1.622-.437 1.31 1.499c-.312 1.935.04 10.303.04 10.303s.272 1.31-2.661 2.684c-2.934 1.374-8.669 3.872-8.516 1.062"/><path fill="#af7444" d="M50.783 100.105c-.031.018.794 2.91 2.604 2.036s6.803-2.685 6.803-2.685.874-.436.936-2.372c.062-1.937.256-6.203.256-6.203s-6.766 7.014-10.599 9.224M47.958 101.779c-.313-.256.197 3.359-1.432 4.108-1.627.75-7.862 4.309-7.862 4.309s-2.056-.06-2.742-.805 9.976-7.384 12.036-7.612M33.388 112.719s1.66 1.597 1.094 2.285c-.567.687-5.185 7.118-5.81 10.24-.623 3.122-.998 4.093-1.934 3.7-.936-.39-1.928-.75-1.928-.75s1.807-7.921 8.578-15.475M58.976 142.04s-1.782-1.686-1.345-2.623c.437-.936 2.933-4.683 2.933-4.683s.75-1.028.375-1.545c-.375-.515-1.374-1.602-.625-2.12s2.31-2.042 2.31-2.042.998-.35 1.123-1.098c.125-.75-.624-1.998 1.56-3.06 2.185-1.061 3.183-1.623 3.183-1.623s.375.312 1.249 1.998c.873 1.686 1.185 2.31.748 2.685-.437.374-.811 3.247-.062 6.119s.561 2.31.561 2.31.125 1.061-1.622 2.498c-1.748 1.436-5.867 5.994-5.867 5.994s-1.172 1.649-2.115.356-2.406-3.166-2.406-3.166M70.16 154.888l-1.358-11.849s-.749-1.999.998-2.747c1.748-.75 6.679-2.248 6.679-2.248s2.06-.687 1.497 2.935c-.561 3.622-2.434 3.933-2.62 5.87-.188 1.935-.305 5.006-.305 5.006M68.148 110.196c-.112-.154-1.029-1.436 0-2.186 1.029-.749 2.964-1.749 3.15-2.685.188-.937-.249-4.183.687-4.183.937 0 7.115 13.237 8.613 15.173s1.997 2.31 1.248 3.122-6.054 7.486-6.054 7.486-.437.18-1.061 0-3.714-3.036-4.571-4.168c-.859-1.133-.92-1.257-.484-1.882s3.56-3.621-1.528-10.677M74.927 97.333s-.802-1.187 0-1.624 4.11-3.746 4.11-3.746-.187-6.807.687-7.118c.873-.312 4.306 3.184 4.306 3.184s4.493.25 4.743.25.5.313.624 1.499c.125 1.186 1.124 6.815 1.124 6.815s.811 1.114-1.81 2.3c-2.621 1.188-9.361 5.246-9.361 5.246s-.937.749-1.81-.562c-.874-1.311-2.613-6.244-2.613-6.244"/><path fill="#af7444" d="M62.429 89.78c.382.185 7.31-2.376 8.058-.627.75 1.749 1.248 5.058 1.248 5.058s-.25 2.247 2.31 0c2.558-2.248 3.432-2.998 3.432-2.998s.187.125.312-2.997.88-3.684.284-4.87-4.337-3.131-7.708-2.44M79.287 106.512c.227-.137 5.804-3.31 5.804-3.31s.998-.936 1.56 0c.562.937 1.124 3.31 3.37 3.746 2.247.437 3.433.436 3.87 1.592.436 1.156.5 6.526.5 6.526s.249 1.06-1.187 1.873-2.565 2.036-2.565 2.036-1.242.462-2.365-1.037-.998-2.31-3.932-2.622c-2.933-.313-1.623 0-2.434-.687-.81-.687-2.746-5.995-2.995-6.682-.25-.686-.775-.745.374-1.435M88.836 101.766c.177-.971 1.185-1.685 2.184-2.373.999-.687 1.997-.998 1.685-2.435-.312-1.436-1.31-2.248-.5-2.685.812-.437 5.618 1.81 6.554 2.622.936.813.624 1.112.936 3.21s1.373 1.952 1.872 2.68c.5.73.188.168-.561 1.291-.75 1.125-.937 2.998-2.123 3.06-1.185.062-2.4-.749-4.476-.437s-1.64.312-3.012-1.062c-1.374-1.373-2.934-1.81-2.56-3.871M74.927 77.977s-1.569 1.497.802 1.248 3.308-.757 4.931.028c1.623.784 3.245 4.865 3.682 5.572s.864 1.83 2.148.956 3.095-2.185 4.468-2.56c1.373-.374.998.062 1.56-2.123s1.373-2.122.936-3.496-2.448-1.423-5.138-4.296M93.017 70.937l2.278 5.041s.094 1.561 1.966 1c1.872-.563 3.87-1.124 5.118-1.062 1.247.063 1.185.313.624-2.06-.562-2.373-1.819-8.105-1.819-8.105M91.769 88.591c-.117-.22-2.06-2.662 0-3.766s3.744-2.416 4.431-3.727.624-1.373 1.622.687c1 2.06 2.747 4.934 2.809 5.932.063 1-.124 1.936-1.81 2.685s-5.18 2.436-6.241 2.186-1.31.124-1.186-1.437.977-1.42.375-2.56M106.747 77.1s-4.162-.81-6.106.315c-1.945 1.124-1.488 1.497 0 3.87s2.112 5.309 2.05 7.244-.687 5.433 1.997 3.684c2.683-1.749 4.368-3.52 6.615-4.227 2.247-.706 4.057-.768 3.433-2.33-.625-1.56-5.18-4.37-6.242-6.431-1.06-2.06-.307-1.927-1.747-2.126M114.601 90.881s-5.607 2.71-8.727 3.707-3.683 1.078-3.62 2.005.25 3.237.25 3.237 2.06 1.311 4.406 1.378M117.994 85.935c.062-.187-.013-2.339-1.636-3.4-1.622-1.062-4.93-1.623-4.181-3.185.749-1.561 5.055-6.868 6.802-9.179 1.748-2.31 1.685-3.06 2.622-2.185.936.874 3.098 4.837 3.016 7.164M106.747 74.979s-1.872 1.312-2.121-.874c-.25-2.186-1.748-6.205-.562-6.475s4.243-1.205 5.367-2.267 3.308-4.434 3.931 0c.625 4.434.917 4.78 1.24 5.574.321.795.134 2.605-3.174 3.105s-3.26.601-4.68.937"/><path fill="#af7444" d="M116.047 67.63s-1.296-4.577-1.335-5.202c-.038-.624-.101-.374.149-1.31.25-.937 2.184-1.811 2.496-4.559.312-2.747.1-3.246.987-3.746.885-.5 4.567-2.623 5.816-3.185s2.31-.935 3.682 6.12c1.373 7.055.687 5.619 0 6.868s-1.81 4.809-2.808 4.371c-.999-.437-2.56-2.436-4.245-1.749s-3.37 3.727-4.056 3.06zM111.83 55.84s1.782 3.404 1.158 4.028c-.624.625-6.678 3.871-7.926 4.62s-1.776.426-1.45-.692M133.77 56.678s-2.495-.244-2.746-2.18c-.249-1.935-2.246-6.993 0-7.68s7.205-2.771 8.953-3.991M117.845 48.63c.324 0 5.984-1.375 6.773-4.185.79-2.81.12-4.79.416-6.05M126.906 47.068c-.566-.162-.062-1.186 0-2.872s-.125-4.87 1.123-6.182c1.249-1.311 4.993-4.62 6.678-5.745s1.623-1.372 2.434-1.06c.811.311 1.685 3.683 2.184 5.12.5 1.436 1.061 1.386.438 2.066-.625.68-7.543 4.74-9.795 6.488s-2.188 2.434-3.062 2.185M128.09 33.624c.189 0 2.623-1.73 4.682-2.916s2.621-1.311 3.12-3.372 2.123-3.31 1.061-4.12c-1.06-.812-1.892-.397-1.98-.264M138.14 27.275c.091-.165 1.747-2.123 1.435-4.87-.312-2.748-1.005-3.998.402-5.309s1.207-1.872 2.025.438 1.817 5.682 1.817 5.682.812 1.436-1.06 2.373c-1.873.936-5.77 3.755-4.62 1.686M142.36 37.47c-.18-.124-2.605-2.764-2.383-6.386s-.153-2.95.596-3.067c.75-.118 2.347.756 3.42 1.443 1.074.686-.175 1.293 1.136 2.832 1.31 1.54 2.453 2.706 2.453 2.706s-3.588.78-4.465.869c-.383.039-.757 1.603-.757 1.603M148 21.986c-.826-.765-2.372.332-2.309 1.905s.705 6.628 2.31 8.442c1.603 1.814 3.682 1.291 3.682 1.291s-.063-3.29-.687-4.976-1.56-5.33-2.996-6.662M154.241 28.176s-2.746-1.089-2.559-2.712c.188-1.624 1.187-.126 3.246 0 2.06.125 2.371.437 1.622 1.436s-1.343 1.771-2.309 1.276M153.929 32.956c-1.409-1.701-2.371-3.558-.624-3.059 1.747.5 2.488-.373 3.616 1.187 1.127 1.56 2.633 2.123-.71 2.185s-1.556.564-2.282-.313M158.255 36.016s-.893-1.873.604-2.06c1.498-.188 2.247-.937 2.622.312.374 1.249 1 1.315.25 1.998s-3.476-.25-3.476-.25M164.04 31.084s1.248.438 1.497 0-.062-1.492-1.498-3.369-2.87-3.563-5.43-3.563c-2.558 0-2.043.185-.428.56 1.614.377 1.66.502 3.042 2.625 1.38 2.122 2.255 3.31 2.816 3.747"/><path fill="#af7444" d="M161.223 32.738c.858.018 1.506.094 1.131-.78-.374-.875-1.498-3.123-2.621-4.621-1.124-1.499-1.108-1.686-1.553-.562s-1.255.239-.756 1.555c.5 1.317 2.292 4.378 3.798 4.408M158.255 18.97s-3.216-.033-3.958-3.013c-.742-2.982.631-1.733.506-2.482s.593-.999 1.014.562 1.435 3.184 2.364 3.621c.928.438 1.03.999.074 1.311M150.434 18.97c.878-1.268 2.56-.562 2.87-1.374.313-.811.375-2.998-1.434-2.373-1.81.625-2.185 1.311-2.434 2.56s.436 1.998.998 1.186M146.814 15.113s-2.958 1.273-2.82 2.097c.137.822.695 3.258 1.695 2.759s1.474.124 1.892-1.562c.419-1.686 1.282-4.409-.767-3.294M148.123 13.662c-.836.388-.853-.366 1.26-.776s4.67-.249 2.3.388c-2.373.638-2.75.014-3.56.388M159.546 21.788c-1.308-.474-1.74-1.82-.62-1.32s3.876 2.499.62 1.32M163.041 35.828c-.446-.223-.062-1.209.312-2.134.375-.925 1.872-2.673 1.06-.55-.81 2.122-.748 2.996-1.372 2.684M105.116 104.682l-6.904 5.514s-1.825.675-1.575 2.523c.25 1.847.25 3.595.25 3.595s.374 1.061 1.747.437 1.997-1.249 2.372-.75 5.46 7.554 5.507 5.683c.047-1.873-1.975-13.144-1.975-13.144s.141-1.829.578-3.858M106.06 124.548l-4.25 1.195s-.742.438-.742 1.811v4.34s3.174-2.937 3.985-4.51c.812-1.572 1.008-2.836 1.008-2.836M99.695 123.808l1.373-.562s.672.187.742-.75c.07-.936-.43-1.873-2.115-2.997s-1.56-1.373-4.4 0c-2.839 1.374-3.464.748-3.65 1.685-.188.938.923 1.874-1.006 2.624-1.928.749-2.427.935-2.74 1.56-.311.625-.561 2.66-.561 5.7 0 3.042.137 3.23 1.442 2.793 1.304-.438 4.49-.812 6.954-.438s3.642-.374 3.614-1.53c-.027-1.155-.402-6.462.347-8.085"/><path fill="#af7444" d="M82.19 122.309c1.2-1.529.592-4.871 1.903-4.246s2.621-.188 3.245 1.249c.625 1.436.45 1.748 1.442 2.31s2.365.641.868 1.133c-1.498.49-3.559 2.052-4.993 1.178-1.436-.875-3.494-.313-2.465-1.624M74.107 134.037s3.432-8.357 4.743-8.856c1.31-.499 3.745-.436 4.431-.311.687.124 1.685-.514 1.249 1.428-.437 1.943 0 8.375.686 9.436.687 1.061.874 1.582-.686 2.258s-3.62 1.737-4.182 2.3-.811-4.184-3.307-3.497-5.18-.896-2.934-2.758M84.127 145.394c0-.25-2.22-3.79-.596-4.415 1.623-.625 3.433-.813 4.182-1.437s.012-.815 1.066-2.25c1.055-1.434-1.017-2.058 1.86-1.684 2.878.375 4.731.706 4.888.706.156 0-11.4 9.08-11.4 9.08M77.04 149.47s.437-4.62 2.122-5.994 2.192-.437 2.75.812 1.025 1.846 1.025 1.846l-5.897 4.394zM29.132 153.029s1.912-.973 4.221-1.391c2.31-.42 3.576-1.043 1.85 1.954s-1.73 3.815-1.73 3.815-3.767-2.853-4.341-4.378M155.817 11.425s-11.499-7.066-18.18 3.097c-6.26 9.522-10.641 16.873-12.603 19.383-15.872 20.297-23.055 30.989-35.512 35.329 3.183.5 3.045.98 3.495 1.704.45.723 18.433-10.806 32.226-32.866 13.792-22.059 17.952-30.529 30.574-26.647"/><path fill="none" stroke="#533d37" stroke-width=".563" d="M145.067 30.146s1.17 1.889 4.002 3.676 7.325 3.473 13.972 3.067c0 0 .81 2.935 2.87 3.622s4.931.749 6.553 0c.438-.25.348-.465-.374-3.934-.811-3.902-7.24-7.367-14.51-23.477 0 0-2.403-4.433-10.547-2.154-6.538 1.436-13.98 15.344-18.148 21.469-4.5 6.668-18.69 32.194-41.063 41.092 0 0-4.572 2.049-8.114 2.974-1.505.393-6.006.808-7.645 2.54-1.638 1.733-7.396 8.477-8.613 9.694s-5.281 5.79-9.736 9.32c-6.973 5.525-15.399 7.118-20.688 14.704-6.102 8.752-9.877 14.798-9.268 27.162s13.304 23.724 25.323 22.807c16.57-1.265 37.902-19.48 42.75-23.54 5.247-4.392 15.663-10.244 14.682-17.484-.749-5.526-1.525-10.415-1.946-12.804 0 0-1.097-3.68 3.959-9.862 0 0 10.64-13.175 18.067-27.536s14.59-31.743 16.524-35.615c0 0 2.785.726 6.093-1.957"/><path fill="none" stroke="#533d37" stroke-width=".563" d="M156.211 11.685s-12.111-8.95-20.938 6.275c0 0-8.161 13.383-14.202 21.584-6.126 8.311-20.877 27.068-31.549 29.69 0 0 3.015.504 3.754 1.703"/><path fill="#fadab9" d="M158.142 14.3c-.062-.88.26-8.592-.28-8.717-.733-.17-2.934 4.839-3.62 6.15"/><path fill="none" stroke="#533d37" stroke-width=".563" d="M158.142 14.324c-.062-.88.26-8.592-.28-8.717-.733-.17-2.934 4.84-3.62 6.15"/><path fill="#fadab9" d="M151.69 9.94c.063-.094.195-3.66-1.396-6.83l1.341.843.344-1.561.936.968 1.06-1.312s-.717 5.963 1.842 10.147"/><path fill="none" stroke="#533d37" stroke-width=".563" d="M151.675 9.94c.062-.094.195-3.66-1.397-6.83l1.341.843.344-1.561.936.968 1.06-1.312s-.717 5.963 1.843 10.147"/><path fill="#fadab9" d="M153.055 11.633s-4.4-4.152-2.995-9.585l-1.061 1.186-1.248-.624-.562.985-2.06-.548s4.993 4.777 2.933 9.304"/><path fill="none" stroke="#533d37" stroke-width=".563" d="M153.055 11.633s-4.4-4.152-2.995-9.585l-1.061 1.186-1.248-.624-.562.985-2.06-.548s4.993 4.777 2.933 9.304"/><path fill="#fadab9" d="M142.633 16.285s-.998-12.24 0-12.676c.998-.437 4.743 9.43 4.743 9.43"/><path fill="none" stroke="#533d37" stroke-width=".563" d="M142.446 16.285s-.998-12.24 0-12.676c.998-.437 4.743 9.43 4.743 9.43"/><path fill="#a67c9f" d="M144.38 15.928s-.844-4.675-.936-8.01c-.063-2.34 2.48 3.107 2.612 5.297s.259 2.355-1.676 2.713M157.424 22.155s-3.348 4.486-6.99-1.156c0 0 2.2-1.692 3.904-1.42 2.166.346 2.872 2.21 3.086 2.576M169.532 38.889s-1.587-.875-2.243-3.98c0 0 1.135.342 1.673 1.418.98 1.964.355 2.195.57 2.562"/><path fill="#1b110f" d="M155.224 23.891s-2.37-.377-2.169-2.61c.157-1.732 2.169-1.593 2.169-1.593l2.2 2.467z"/><path fill="none" stroke="#533d37" stroke-width=".5" d="M150.434 21s4.213-3.934 6.99 1.155c0 0-2.996 4.589-6.99-1.156ZM169.532 38.889s-2.122-1.343-2.247-4.06c0 0 2.59 1.188 2.247 4.06Z"/><path fill="#624b59" d="M112.645 259.474v4.2h12.732l-2.497-3.597-4.244-1.67h-5.897z"/><path fill="#fadab9" d="M71.194 131.706s2.528.562 1.966 9.366-.374 12.55-.374 12.55-.656 2.436 2.808 5.526c3.464 3.091 12.45 13.862 18.162 29.202 0 0 4.96 11.26 5.242 13.602.28 2.341-.656 4.683 0 6.65.655 1.966 4.774 8.054 6.365 15.64 0 0 4.868 20.7 4.307 31.096 2.153.75 1.591 2.486 2.995 3.07s4.494.26 5.898 0c0 0 2.621-1.197.418-7.097-2.778-7.438-5.262-13.068-6.69-21.168-1.404-7.96-2.61-12.75-2.34-15.454.186-1.872.633-5.604.561-7.773-.125-3.793-3.089-5.433-6.178-13.394s-7.677-26.787-8.238-30.534c-.562-3.746-.469-7.773.561-11.52s3.932-16.11 3.464-24.914c0 0-12.783 12.551-12.284 7.212 1.297-13.871-15.346-3.225-16.643-2.06"/><path fill="#af7444" d="M118.735 258.408c-.256.016-1.747-.624-1.685-1.499.062-.874 1.061-2.685.5-4.059-.562-1.373-1.502-3.62-.502-4.058s2.685 3.871 2.717 5.557c.031 1.686-.094 3.997-1.03 4.059M111.677 257.804s3.683-1.749 3.121-3.247c-.562-1.499-1.314-4.308-1.53-5.37-.218-1.061-.155-2.248-1.31-1.936s-2.34 1.531-2.34 1.531l.25 6.15s1.855 1.771 1.81 2.872M116.608 245.373s-5.615.277-6.114-.223c-.5-.5-1.748-8.929-1.748-8.929s-.25-2.31.562-2.373c.811-.062 4.422 2.256 4.424 2.381.024 1.616.927 1.518 2.876 9.144M112.645 232.141s-3.712.084-4.273-1.727c-.562-1.811 0-9.99 0-11.24s.936-1.589 1.498-2.025c.561-.437.888 4.476 1.699 8.66.81 4.183 1.076 6.332 1.076 6.332M107.186 228.354c.067.24.25-5.683 0-6.87-.25-1.185-.749-.498-1.436-.623s1.124 6.369 1.436 7.493M104.517 220.774c.125-.374 3.605-4.659 3.605-4.659s1.124-.375.999-1.561-.75-5.182-1-6.431c-.249-1.25-.962-2.123-1.666-1.748-.704.374-1.766 1.498-2.702 1.124-.936-.375-1.56-1.187-2.246-.438-.687.75-1.328 2.704-1.702 3.141s2.091 3.165 2.903 5.85a35 35 0 0 0 1.81 4.722M109.87 206.287s-3.43-.6-4.274-1.91c-.844-1.312-.283-.945 1.216-1.773 1.498-.829 1.58.724 2.319 1.841s.739 1.842.739 1.842M107.802 200.45s-3.799 2.678-6.357 2.74c-2.56.062-3.831-5.733-3.831-5.733l5.862-6.517s3.14 8.578 4.326 9.51M95.765 191.451c-.098-.366-.187-7.306.687-8.492.873-1.186 3.12-2.185 3.12-2.185s1.185 4.433 1.997 6.493c.811 2.06-.811 4.808-2.184 5.62s-2.934 1.125-3.62-1.436M100.04 179.324s-4.462 1.637-5.773.076-.124-2.372.25-2.872c.375-.5 3.946-2.617 4.07-2.804s1.453 5.226 1.453 5.6M94.34 189.524s1.05-6.066.364-7.315c-.686-1.248-2.309-1.997-2.808-4.183-.5-2.186-1.124-4.222-1.873-2.892s-1.08 2.381-1.08 2.381 5.622 10.55 5.398 12.009M98.075 172.51s-2.764 1.136-3.13 1.702c-.365.567-.927 1.628-1.676 1.379-.749-.25-4.244-2.497-4.431-4.058-.188-1.562 1.124-5.87 1.81-8.368.686-2.497.561-3.621 2.06-4.308 1.497-.687 2.246.312 2.683.937.437.624 2.105 11.064 2.684 12.716M95.705 157.65s-2.922-1.603-3.49-2.54c-.569-.936-1.755-2.904-1.88-3.855-.124-.953-.499-1.456 0-2.297.5-.84 5.93-2.59 6.803-3.151.874-.562 1.249-.25.5 1.873s-1.529 6.79-1.529 6.79zM85.288 171.256s1.178.026 1.427-1.16-.311-3.558.812-6.43c1.123-2.874 3.745-5.309 3.37-6.308-.374-.998-1.435-3.121-1.748-3.995-.311-.875-.463-1.124-1.074-1.062-.61.062-2.545 3.184-3.606 3.247s-2.185-.063-2.622 1.249c-.436 1.31-1.56 6.93-1.56 6.93s4.377 6.094 5 7.53M77.332 160.794c.126-.187 3.704-5.184 4.39-5.996.687-.811 1-1.89 1.062-2.506s-.686-1.057-2.06-3.334c-1.373-2.277-1.185-3.027-2.121-2.902-.937.125-5.804 6.494-4.432 4.808 1.373-1.685-2.07 4.086-.385 6.146a43 43 0 0 0 3.546 3.784M82.788 143.559s-.878 5.678.807 5.4c1.685-.28 6.74-2.59 8.987-4.432s5.359-2.841 5.457-3.84-.035-1.873 0-2.248.098-.937-.838-1.062c-.936-.124-5.93-.811-5.93-.811s-1.185 0-1.809.437c-.625.437.062 2.622-1.872 3.684-1.936 1.062-3.37 1.249-3.932 1.624-.562.374-.819.872-.87 1.248M74.42 146.432s6.292-3.997 8.14-5.495c1.846-1.5 2.632-1.56 3.05-2.56.42-1 .916-2.02.792-6.203-.125-4.183-.94-3.576-1.626-3.826s-4.503-1.231-4.503-1.231-2.35 2.656-2.849 3.28-1.755 3.672-2.629 5.045-.187 4.183-.374 5.807-.517 4.632-.081 4.794"/><path fill="none" stroke="#533d37" stroke-width=".563" d="M71.267 131.706s2.528.562 1.966 9.366-.374 12.55-.374 12.55-.656 2.436 2.808 5.526c3.464 3.091 12.45 13.862 18.162 29.202 0 0 4.961 11.26 5.242 13.602.28 2.341-.656 4.683 0 6.65.655 1.966 4.774 8.054 6.366 15.64 0 0 4.868 20.7 4.306 31.096 2.153.75 1.591 2.486 2.996 3.07 1.404.583 4.493.26 5.897 0 0 0 2.621-1.197.418-7.097-2.778-7.438-5.262-13.068-6.69-21.168-1.404-7.96-2.61-12.75-2.34-15.454.186-1.872.633-5.604.561-7.773-.125-3.793-3.089-5.433-6.178-13.394s-7.677-26.787-8.238-30.534c-.562-3.746-.468-7.773.561-11.52s3.932-16.11 3.464-24.914"/><path fill="#fadab9" d="M24.273 143.32c.093 10.396 7.02 16.484 4.774 28.941-2.247 12.457-14.697 25.007-14.697 25.007s.28 16.86-3.745 34.093S.4 258.429.4 258.429c3.65 1.873 8.144.656 8.144.656-.842-1.78 1.873-11.895 1.873-11.895s8.706-29.597 11.046-37.184 2.34-9.928 17.974-31.47 11.89-35.216 11.89-35.216-3.745-4.59-13.013 4.87c-7.435 7.59-14.042-4.87-14.042-4.87"/><path fill="#af7444" d="m4.105 251.105 5.533-.77 1.56-6.953-4.467 1.132zM7.592 242.033c.094-.188 2.073-6.916 2.073-6.916s3.468-1.414 4.263-1.227c.796.187-1.759 7.353-1.759 7.353zM15.226 230.893s-3.591-.469-4.485-.12l1.08-5.273 5.903-3.034zM12.343 222.463c-.05.107 3.738-2.622 4.674-3.043s2.013-4.778 2.013-4.778.702-2.856-.561-2.575c-1.264.28-2.669 1.459-2.528-.02.14-1.479.608-9.58.608-9.58s-1.794-1.858-2.075-1.765c-.28.094-1.314 19.982-2.131 21.761"/><path fill="#af7444" d="M21.246 210.719c-.14 0-3.854-.244-3.9-1.603-.048-1.357.28-7.118.28-7.258s-.14-1.733.842-2.06c.983-.329 8.793-3.446 8.793-3.446s-2.9 5.005-3.46 6.644c-.563 1.64-2.555 7.723-2.555 7.723M14.35 197.268s4.774-.514 8.331-2.341c3.558-1.826 5.055-2.107 5.477-3.372.42-1.265 2.2-6.696 2.2-6.696s.28-1.359-.936-.89c-1.218.468-6.127 1.859-6.127 1.859s-6.464 10.176-8.945 11.44M24.814 183.276c.281-.233 4.654-2.164 6.105-2.304 1.451-.141 1.779-.094 2.2-.89s.515-2.295 1.591-2.201 4.35 1.177 4.35 1.177 5.812-8.606 6.42-10.105c.126-.656-1.361-4.278-2.625-4.372s-4.072 2.013-5.336 2.763c-1.264.749-1.628.702-2.148.515s-1.269-.89-1.69.656c-.421 1.545-.608 3.605-.608 3.605s-2.583 4.808-4.073 5.62c-1.983 1.08-4.186 5.536-4.186 5.536M29.411 169.465c-1.415.764 4.176-2.736 3.989-4.887-.187-2.152-1.544-3.744-1.544-3.744s-1.265-.89-1.03-1.78c.234-.889 3.464-4.916 3.464-4.916s.889-.656.561-1.359c-.328-.702-8.238 1.552-8.238 1.552s1.775 5.359 2.42 8.204c.701 3.09.378 6.93.378 6.93"/><path fill="#af7444" d="M36.349 165.236s-1.732-4.402-2.06-5.947 0-2.482 1.03-3.231c1.03-.75 2.528-1.078 2.809-2.623.28-1.545.702-3.418 2.012-3.84s4.166-2.2 4.728-1.78c.562.422.702 7.54.562 10.022s-1.545 4.169-4.822 5.714c-3.276 1.545-3.136 2.716-4.26 1.685M47.03 165.863s-.498-1.377-.529-1.546c-.18-.994-.692-4.679.707-8.4 1.638-4.355 3.651-7.68 3.604-4.776s-.05 4.543-.475 5.84c-1.621 4.933-3.31 8.77-3.805 7.505"/><path fill="#624b59" d="m2.367 259.474-1.03 4.2h11.796l-1.217-2.1s-2.34-.961-3.932-2.1-4.75.584-5.617 0"/><path fill="none" stroke="#533d37" stroke-width=".563" d="M24.273 143.32c.093 10.396 7.02 16.484 4.774 28.941-2.247 12.457-14.697 25.007-14.697 25.007s.28 16.86-3.745 34.093S.4 258.429.4 258.429c3.65 1.873 8.144.656 8.144.656-.842-1.78 1.873-11.895 1.873-11.895s8.706-29.597 11.046-37.184 2.34-9.928 17.974-31.47 11.89-35.216 11.89-35.216"/></g></svg>