<svg xmlns="http://www.w3.org/2000/svg" xml:space="preserve" width="91.875" height="80.73" viewBox="0.57 0.165 91.875 80.73"><title>Slice 1</title><g fill-rule="evenodd"><path fill="#ffee26" fill-rule="nonzero" d="M71.37 49.995c-.195-9.48-1.89-22.035-1.89-32.64a27.57 27.57 0 0 1 4.5-13.785 32 32 0 0 0-6-1.755c-1.5 4.095-7.17 15.51-21.24 15.51S27.135 5.91 25.5 1.815a26.2 26.2 0 0 0-8.7 3.135c.81 4.815 4.17 20.04 3 35.655a272 272 0 0 0-.555 35.895c4.335 1.8 17.58 3.6 27.555 3.6a120.8 120.8 0 0 0 24.255-2.595c.165-6.435.465-20.34.315-27.51"/><path fill="#fff8bb" fill-rule="nonzero" d="M76.755 4.95a17.3 17.3 0 0 0-2.775-1.38 27.57 27.57 0 0 0-4.5 13.785c0 10.605 1.695 23.16 1.89 32.64.15 7.17-.15 21-.315 27.435a22 22 0 0 0 3.3-1.005 274 274 0 0 0-.66-35.82c-1.125-15.615 2.25-30.84 3.06-35.655"/><path fill="#ff7bd0" fill-rule="nonzero" d="M46.8 17.355c14.07 0 19.68-11.43 21.24-15.525-1.335-.27-4.08-.615-5.715-.75 0 0-2.61 10.995-15.525 10.995S31.395.975 31.395.975c-1.65.15-4.5.585-5.835.855C27.135 6 32.745 17.355 46.8 17.355"/><path fill="none" stroke="#db20a5" stroke-linecap="round" stroke-linejoin="round" stroke-width="1.2" d="M76.755 4.95a26.4 26.4 0 0 0-8.715-3.135c-1.335-.27-4.065-.615-5.7-.75 0 0-2.61 10.995-15.525 10.995S31.41.96 31.41.96c-1.635.15-4.5.585-5.82.855a26.2 26.2 0 0 0-8.7 3.135c.81 4.815 4.17 20.04 3 35.655a272 272 0 0 0-.645 35.895c4.335 1.8 17.58 3.6 27.555 3.6s23.235-1.8 27.555-3.6a274 274 0 0 0-.66-35.82c-1.125-15.69 2.25-30.915 3.06-35.73"/><path fill="#fff" fill-rule="nonzero" stroke="#db20a5" stroke-linecap="round" stroke-linejoin="round" stroke-width="1.2" d="M16.86 4.965c-6.465 3-8.865 9.39-10.5 15C4.5 27.18 1.365 40.92 1.365 40.92c6.05 1.247 12.2 1.955 18.375 2.115 0 0 2.07-21.69 1.305-27.39a24.5 24.5 0 0 0-4.185-10.68M76.74 4.965c6.45 3 8.85 9.39 10.41 15 1.995 7.155 4.5 20.895 4.5 20.895a94 94 0 0 1-17.775 2.115s-2.085-21.69-1.32-27.39a24.4 24.4 0 0 1 4.185-10.62"/><path fill="#14be48" fill-rule="nonzero" stroke="#14601e" stroke-width=".795" d="M37.62 58.59h3s.12-.87.36-2.4a1.502 1.502 0 0 1 3 .135c-.135 1.62-.195 2.265-.195 2.265H49.5s0-.375.33-2.175c.36-2.265 3.165-2.115 3 0-.135 1.32-.18 2.19-.18 2.19h6.75c.51-4.095 1.605-9.315 1.935-16.5s-2.07-11.64-5.535-14.7-9.66-3.63-13.8-2.295a21 21 0 0 0-9.78 6.66c-1.935 2.265-1.875 4.965 0 6.45.405.323.895.52 1.41.57 1.14-1.11 3.33-3.87 3.72-4.365l-.735 3.93a10.7 10.7 0 0 0 3.585-3c1.77-2.19 2.07-4.005 6-4.005a7.005 7.005 0 0 1 7.5 6.75c.311 2.524.06 5.085-.735 7.5a7.2 7.2 0 0 0-1.41-1.5 2.82 2.82 0 0 1-2.415 1.395 2.775 2.775 0 0 1-2.64-3.69 14 14 0 0 0-2.37-.27v.225a2.79 2.79 0 0 1-5.535.525 16 16 0 0 0-2.025.825 2.79 2.79 0 0 1-4.395 3.39 10.2 10.2 0 0 0-1.23 1.95A2.805 2.805 0 1 1 30.12 54h-.225a10.8 10.8 0 0 0 7.35 10.125c3.555 1.29 6.495 1.83 8.355 3.63s1.995 3.42 3.6 3.42c2.13 0 1.5-3.405.225-5.43-1.965-3-5.28-4.26-10.11-6a6.38 6.38 0 0 1-3.855-4.89"/><path fill="#14601e" fill-rule="nonzero" stroke="#14601e" stroke-width=".795" d="M32.91 51.165a2.79 2.79 0 0 0-1.965-2.67 10.7 10.7 0 0 0-1.08 4.77v.66h.225a2.79 2.79 0 0 0 2.82-2.76ZM36.93 44.55a2.8 2.8 0 0 0-.42-1.5 12.7 12.7 0 0 0-4.335 3.45 2.805 2.805 0 0 0 4.755-1.995zM41.28 44.55a2.79 2.79 0 0 0 2.79-2.79v-.225h-.57a16.5 16.5 0 0 0-4.935.765 2.805 2.805 0 0 0 2.715 2.25ZM49.065 45.48a2.82 2.82 0 0 0 2.415-1.395 11.2 11.2 0 0 0-4.98-2.28 2.775 2.775 0 0 0 2.64 3.675z"/><circle cx="5.325" cy="10.425" r="1.5" fill="#14601e" fill-rule="nonzero" stroke="#14601e" stroke-width=".6" transform="translate(28.5 24)"/><path fill="none" stroke="#d3ff7d" stroke-width="1.59" d="M58.83 40.71q.05.795 0 1.59M53.16 28.95a12 12 0 0 1 5.07 7.2c.165.66.3 1.29.39 1.905"/></g></svg>