<svg xmlns="http://www.w3.org/2000/svg" width="95.996" height="58.906" viewBox="0.833 -1.043 95.996 58.906"><path fill="#74bf44" stroke="#000" stroke-width="2.321" d="M26.966 9.822s-2.316-6.023-6.305-6.167c-3.99-.144-11.208 4.66-9.002 6.674 2.209 2.015 7.448-1.889 8.415-1.816s4.14 4.72 4.14 4.72l2.752-3.411ZM20.66 20.146s-5.957-6.258-9.412-5.464-11.68 13.444-6.843 14.701c4.836 1.258 6.48-8.318 7.931-8.318s6.77 4.685 6.77 4.685l1.555-5.604ZM22.446 34.335s-4.125-3.587-8.078-2.948C10.416 32.026-1.37 43.866 2.92 46.67s10.965-8.705 12.996-8.802 11.051 5.39 11.051 5.39l-.412-4.046-4.11-4.877ZM70.696 9.822S73.012 3.799 77 3.655s11.208 4.66 9.002 6.674c-2.209 2.015-7.448-1.889-8.415-1.816s-4.142 4.72-4.142 4.72l-2.75-3.411ZM77.002 20.146s5.956-6.258 9.412-5.464c3.455.793 11.68 13.444 6.843 14.701-4.836 1.258-6.48-8.318-7.93-8.318-1.452 0-6.771 4.685-6.771 4.685l-1.554-5.604ZM75.217 34.555s4.125-3.586 8.077-2.947S99.033 44.085 94.742 46.89c-4.29 2.805-10.964-8.705-12.995-8.801s-11.051 5.39-11.051 5.39l.411-4.047 4.11-4.877Z"/><path fill="#a6479a" d="m49.159 25.784-.881-24.48 1.23.028a30 30 0 0 1 3.757.327c2.254.336 4.492.928 6.654 1.757 3.966 1.523 7.631 3.837 10.602 6.691 1.974 1.897 3.602 3.99 4.841 6.221 1.78 3.206 2.683 6.53 2.683 9.88 0 .426-.019.882-.059 1.392a17.9 17.9 0 0 1-1.757 6.468c-.876 1.804-2.064 3.514-3.53 5.084-.46.533-1.227 1.266-2.263 2.158q.005.155.006.31c0 .787-.09 1.569-.27 2.325l-.097.407-.333.252c-.438.33-.926.674-1.493 1.049-3.665 2.432-8.012 4.14-12.568 4.94a36 36 0 0 1-5.332.532l-1.19.031z"/><path fill="undefined" d="M49.482 2.492c1.214.026 2.42.136 3.612.314 2.203.33 4.355.905 6.408 1.693 3.864 1.484 7.374 3.715 10.214 6.445 1.864 1.791 3.436 3.797 4.63 5.947 1.612 2.902 2.537 6.063 2.537 9.315 0 .44-.022.873-.055 1.304a16.7 16.7 0 0 1-1.644 6.05c-.842 1.735-1.972 3.34-3.335 4.798-.639.74-1.764 1.732-2.61 2.446q.038.404.04.816 0 1.061-.239 2.058c-.463.35-.944.684-1.434 1.009-3.48 2.309-7.61 3.97-12.127 4.763a35 35 0 0 1-5.16.515V25.784zM47.074.117l.088 2.457.836 23.25v26.523l2.381-.061a38 38 0 0 0 5.503-.55c4.713-.827 9.21-2.596 13.008-5.115a31 31 0 0 0 1.551-1.091l.666-.503.193-.814c.183-.775.284-1.573.3-2.377.858-.758 1.52-1.402 1.975-1.923 1.534-1.646 2.778-3.442 3.698-5.339a19.1 19.1 0 0 0 1.87-6.884c.042-.54.062-1.026.062-1.482 0-3.55-.951-7.063-2.828-10.443-1.296-2.332-2.995-4.517-5.051-6.494-3.082-2.961-6.882-5.36-10.991-6.938A32.8 32.8 0 0 0 53.436.512a31 31 0 0 0-3.903-.339zl2.409 2.373Z"/><path fill="#f4eb43" d="M54.693 11.473c.745 0 1.42.318 1.909.833s.792 1.226.792 2.01c0 .785-.303 1.496-.792 2.01a2.63 2.63 0 0 1-1.909.834c-.745 0-1.42-.319-1.909-.833a2.9 2.9 0 0 1-.791-2.01c0-.785.302-1.496.791-2.01a2.63 2.63 0 0 1 1.91-.834M65.883 22.692c.745 0 1.42.319 1.909.833a2.9 2.9 0 0 1 .791 2.01 2.9 2.9 0 0 1-.791 2.01 2.63 2.63 0 0 1-1.91.834c-.744 0-1.42-.319-1.908-.833a2.9 2.9 0 0 1-.792-2.01c0-.785.303-1.496.792-2.01a2.63 2.63 0 0 1 1.909-.834M55.862 9.459c2.082 0 3.772-1.78 3.772-3.972 0-.343-.054-.67-.132-.988a30.4 30.4 0 0 0-6.408-1.693 4.06 4.06 0 0 0-1.005 2.68c0 2.194 1.69 3.973 3.773 3.973M63.046 16.235c0 2.97 2.54 5.378 5.673 5.378 2.899 0 5.285-2.061 5.627-4.721-1.194-2.15-2.766-4.156-4.63-5.948a6 6 0 0 0-.997-.088c-3.133 0-5.673 2.408-5.673 5.379M59.633 34.873c-4.56 0-8.253 3.503-8.253 7.823 0 2.885 1.65 5.398 4.1 6.755 4.518-.793 8.647-2.455 12.128-4.764a7.4 7.4 0 0 0 .279-1.99c0-4.32-3.696-7.824-8.254-7.824M73.331 25.803c-2.378 0-4.304 1.826-4.304 4.08s1.926 4.08 4.304 4.08c.664 0 1.292-.147 1.853-.403.91-1.874 1.478-3.9 1.645-6.05-.782-1.032-2.055-1.707-3.498-1.707M56.394 19.279c1.188 0 2.263.457 3.042 1.195a3.96 3.96 0 0 1 1.262 2.884 3.96 3.96 0 0 1-1.262 2.884 4.4 4.4 0 0 1-3.042 1.195 4.4 4.4 0 0 1-3.043-1.195 3.96 3.96 0 0 1-1.26-2.884c0-1.126.481-2.146 1.26-2.884a4.4 4.4 0 0 1 3.043-1.195"/><path fill="#a6479a" d="M47.192 51.073c-7.335-.441-14.224-3.102-19.396-7.49l-.348-.293-.054-.452c-.053-.443-.08-.842-.08-1.217q0-.221.013-.46c-.281-.258-.57-.528-.856-.797l-.083.256-1.332-1.468q-.46-.496-.887-1.014c-1.974-2.382-3.311-5.028-3.976-7.868a18 18 0 0 1-.483-4.062c0-5.085 2.059-10.091 5.953-14.474 3.786-4.262 9.022-7.522 14.74-9.18a30.6 30.6 0 0 1 7.845-1.222l1.229-.027-.883 24.52-.18 25.32z"/><path fill="undefined" d="m48.273 2.493-.479 13.29-.257 7.125-.103 2.876-.042 5.841-.114 16.035-.016 2.253c-7.317-.44-13.884-3.116-18.716-7.214a9 9 0 0 1-.071-1.079c0-.313.022-.624.053-.934a87 87 0 0 1-1.586-1.475c-.36-.342-.706-.675-.997-.955-.012.034-.029.069-.04.103a21 21 0 0 1-.843-.962v-.001c-1.81-2.184-3.102-4.67-3.739-7.39a16.6 16.6 0 0 1-.453-3.798c0-4.983 2.156-9.76 5.66-13.703 3.6-4.05 8.622-7.22 14.196-8.837a29.5 29.5 0 0 1 7.547-1.175M50.681.119l-2.46.053a31.8 31.8 0 0 0-8.14 1.266c-5.928 1.719-11.356 5.102-15.285 9.525-4.087 4.6-6.246 9.87-6.246 15.245 0 1.414.173 2.87.514 4.328.706 3.014 2.123 5.82 4.21 8.341l.066.079.002.002c.312.375.59.69.867.987l1.954 2.09c.012.298.039.609.079.942l.109.903.694.59c5.362 4.548 12.493 7.304 20.077 7.76l2.443.148.018-2.448.016-2.253.114-16.035.041-5.808.102-2.842.257-7.125.478-13.29zl-2.408 2.374Z"/><path fill="#f4eb43" d="M45.58 15.199c-2.378 0-4.303 1.826-4.303 4.08 0 2.252 1.925 4.079 4.303 4.079.706 0 1.37-.164 1.957-.45l.257-7.125a4.47 4.47 0 0 0-2.214-.585M39.687 24.595c.745 0 1.42.318 1.91.833a2.9 2.9 0 0 1 .79 2.01 2.9 2.9 0 0 1-.79 2.01 2.63 2.63 0 0 1-1.91.834c-.745 0-1.42-.319-1.909-.834a2.9 2.9 0 0 1-.791-2.01c0-.784.302-1.496.791-2.01a2.63 2.63 0 0 1 1.91-.834M33.876 37.475c.745 0 1.42.319 1.909.833.489.515.792 1.226.792 2.01 0 .785-.303 1.496-.792 2.01a2.63 2.63 0 0 1-1.909.834c-.745 0-1.42-.319-1.909-.833a2.9 2.9 0 0 1-.791-2.01c0-.785.302-1.496.791-2.01a2.63 2.63 0 0 1 1.909-.834M29.669 19.28c1.188 0 2.263.457 3.043 1.195a3.96 3.96 0 0 1 1.26 2.884 3.96 3.96 0 0 1-1.26 2.884 4.4 4.4 0 0 1-3.043 1.195 4.4 4.4 0 0 1-3.043-1.195 3.96 3.96 0 0 1-1.26-2.884c0-1.126.481-2.146 1.26-2.884a4.4 4.4 0 0 1 3.043-1.196M28.7 33.85c-.638-2.95-3.435-4.849-6.247-4.24-.4.087-.776.223-1.128.396.636 2.72 1.928 5.207 3.738 7.39v.002q.405.49.843.962c.012-.035.029-.069.04-.104.291.281.638.614.998.955 1.46-1.24 2.205-3.283 1.755-5.36M33.876 16.51c4.7 0 8.512-3.611 8.512-8.068 0-1.79-.622-3.436-1.66-4.774-5.575 1.617-10.598 4.786-14.197 8.837 1.477 2.394 4.209 4.006 7.345 4.006M39.761 39.652c0 4.137 3.286 7.54 7.518 8.009l.113-16.035c-4.287.418-7.63 3.851-7.63 8.025"/><path fill="#74bf44" stroke="#000" stroke-width="2.321" d="M39.067 28.634s-2.163-4.57-1.873-8.245-.358-6.837-2.839-6.562c-2.48.276-4.985 3.925-4.028 8.643s4.266 7.888 4.266 7.888l4.474-1.724ZM58.595 28.634s2.163-4.57 1.873-8.245.358-6.837 2.839-6.562c2.48.276 4.985 3.925 4.028 8.643s-4.266 7.887-4.266 7.887l-4.475-1.723Z"/><path fill="#74bf44" d="M48.877 55.541c-12.292 0-21.562-5.984-21.562-13.92 0-8.274 9.672-15.005 21.562-15.005s21.564 6.73 21.564 15.005c0 7.936-9.27 13.92-21.564 13.92"/><path fill="undefined" d="M48.877 27.777c11.123 0 20.403 6.298 20.403 13.844 0 7.543-9.28 12.76-20.403 12.76s-20.401-5.216-20.401-12.76c0-7.546 9.279-13.844 20.401-13.844m0-2.321c-12.529 0-22.723 7.25-22.723 16.165 0 8.597 9.77 15.08 22.723 15.08 12.955 0 22.725-6.483 22.725-15.08 0-8.914-10.195-16.165-22.725-16.165v2.321Z"/><path fill="#231f20" d="M42.514 44.99c3.903 1.9 6.934-1.333 10.444.463 3 1.534 6.355-2.968 8.745 1.241.848 1.492-.406 3.463-2.166 4.013-2.343.731-5.03-.914-7.006.454-2.146 1.484-2.441 1.922-5.054.965-1.525-.56-2.536-1.94-4.208-2.24-1.664-.302-3.472 1.208-5.087.23-3.999-2.426 1.925-6.3 4.332-5.127"/><path fill="#fff" d="M41.626 32.528c-2.397-.36-4.695 1.698-5.055 4.103-.357 2.403 1.234 5.057 3.632 5.415 2.397.358 4.695-1.713 5.055-4.117.36-2.406-1.235-5.044-3.633-5.4"/><path fill="#231f20" d="M40.888 35.574c.502 0 .957.216 1.287.567.329.35.533.833.533 1.367s-.204 1.018-.533 1.367c-.33.35-.785.568-1.287.568s-.957-.217-1.287-.568a2 2 0 0 1-.533-1.367c0-.534.204-1.017.533-1.367s.785-.567 1.287-.567"/><path fill="#231f20" d="M41.823 30.43c-3.665-.547-7.097 2.067-7.66 5.84-.562 3.776 1.952 7.28 5.615 7.828 3.665.547 7.094-2.068 7.658-5.843s-1.947-7.278-5.613-7.825m3.435 7.498c-.36 2.404-2.66 4.475-5.056 4.117-2.398-.358-3.988-3.012-3.63-5.415s2.658-4.463 5.054-4.103c2.397.358 3.991 2.996 3.632 5.401"/><path fill="#fff" d="M57.78 32.528c-2.397-.36-4.695 1.698-5.055 4.103-.357 2.403 1.234 5.057 3.632 5.415 2.397.358 4.695-1.713 5.055-4.117.36-2.406-1.234-5.044-3.632-5.4"/><path fill="#231f20" d="M57.042 35.574c.502 0 .957.216 1.287.567.329.35.533.833.533 1.367s-.204 1.018-.533 1.367c-.33.35-.785.568-1.287.568s-.957-.217-1.287-.568a2 2 0 0 1-.533-1.367c0-.534.205-1.017.533-1.367.33-.35.785-.567 1.287-.567"/><path fill="#231f20" d="M57.977 30.43c-3.665-.547-7.096 2.067-7.659 5.84-.563 3.776 1.95 7.28 5.615 7.828 3.664.547 7.093-2.068 7.657-5.843s-1.947-7.278-5.613-7.825m3.435 7.498c-.36 2.404-2.659 4.475-5.055 4.117-2.398-.358-3.99-3.012-3.632-5.415.36-2.404 2.66-4.463 5.055-4.103 2.398.358 3.992 2.996 3.632 5.401"/></svg>