<svg xmlns="http://www.w3.org/2000/svg" xml:space="preserve" width="64.133" height="201.112" viewBox="0.136 0.48 64.133 201.112"><title>Slice 1</title><g fill-rule="evenodd"><path fill="#2fa64a" d="M34.4 180.3c-.4-.1-.6.7-.8.9-.5.6-.5 1.9-.4 2.6s.4 1.4.7 2c.2.4.4.7.7 1 .4.4 1.3.8 1.9.9 1.9.2 3.5.4 5.3-.1 2.2-.6 4.4-.8 6.6-.4 1.8.3 3.9.9 5.7 1.1 2.1.3 4.1.1 6.2-.3 1.4-.3 2.7-1.9 3.2-3.2.2-.5-.1-1.3-.3-1.8-.3-.9-1-.9-1.8-.9-2.3 0-5-.1-7.1-1-.8-.4-1.7-.9-2.4-1.3s-.8-.7-1.6-.9c-.2 0 1.9-1.5 1.7-1.4 1-.9.3 0-.1-1.3-.1-.3-.6-.3-.8-.4-.3-.2-.4-.2-.8-.3-.8-.2-1.6-.9-1.7.2 0 .7.5 1.5.4 2.3-.1.7-1.3 1.6-1.9 1.8-1.7.6-3.3 1.6-5.1 1.7-1.3.1-2.9.5-4.1.2-.5-.1-1.5-.2-2-.4-.3-.1-.6-.4-1.1-.6"/><path fill="#a9d7aa" d="M33.9 185.3c.2-.4 2.3.8 2.7.7 1-.1 2.1.1 3.1-.1.9-.2 1.6 0 2.4-.2 1.1-.3 2.1-.2 3.1-.1 1.1.1 2.2.4 3.3.6 1.3.1 2.8.4 4.1.5 2.2.2 4.1.3 6.2-.4 3.3-1.1 3.3-3.8 3.6-4.1 1.4 1.1 1.4 2.8-.1 4.7-1.3 1.6-4 1.2-5.9 1.4-2.2.2-4.4-.6-6.5-.9-1-.1-1.9-.2-2.9-.3-1.4-.1-3 0-4.4.3-1.6.4-3 .3-4.7.4-1 0-1.6.3-2.4-.4-.5-.4-.3-.1-.7-.5 0-.1-.4-.5-.4-.6"/><path fill="#1d241c" fill-rule="nonzero" d="M33.9 180.3c-.8 1.2-1.3 2.4-1.2 3.8.1 1.6 1.6 2.9 2.8 3.7.2.1.7-.1.4-.3-1.2-.8-2.3-1.8-2.6-3.3-.4-1.4.4-2.8 1.1-3.9.2-.2-.4-.2-.5 0m1.8 7.5c1.5.1 3 .2 4.5.1.9-.1 1.8-.3 2.7-.5 1.7-.4 3.3-.4 5-.2 2.1.3 4.1.9 6.2 1.2 1.9.3 3.7 0 5.5-.3.3 0 .4-.4.1-.3-2.3.3-4.4.5-6.7 0-1.9-.4-3.9-.9-5.8-1.1-2.1-.2-3.9.3-5.9.7-1.8.3-3.6.1-5.4 0-.2.1-.6.4-.2.4m14.4-8.7c1.4.7 2.7 1.7 4.2 2.3 1.9.8 3.7.8 5.7.9.9 0 1.8 0 2.6.5 1.1.6.6 2.2.2 3.1-1.3 2.4-4.2 2.4-6.6 2.3-.2 0-.6.4-.2.4 2 .1 3.9.1 5.7-.9 1.5-.8 2.6-2.9 1.8-4.5-.7-1.5-3.6-1.1-4.8-1.1-3.2 0-5.4-1.7-8.1-3.1-.2-.3-.7 0-.5.1m11.8 3.2c-.3 5.4-7.4 4.4-11 3.9-2.1-.3-4.3-.6-6.4-.7-1.8-.1-3.6 0-5.4.2s-3.7.2-5.2-.9c-.2-.1-.7.1-.4.3 1.1.8 2.5 1.1 3.8 1.1 2.2 0 4.3-.4 6.6-.3 2.7.1 5.4.6 8.1.9 3.8.4 10.3.7 10.6-4.5-.1-.3-.7-.2-.7 0m-13.4-1.9c.7-1 1.8-1.5 2.7-2.2.3-.2 1.3-.9 1.3-1.3.1-1.3-2.7-2.2-3.7-2-.2.1-.2.2.1.2.8-.2 1.9.5 2.6.9 1 .7.4 1.2-.2 1.8-1 .9-2.4 1.4-3.2 2.6-.1.2.3.1.4 0m3.9-3.8c-1.6-.5-3.1 1.1-4 2.2-.1.1.2 0 .2 0 .8-.9 2.1-2.5 3.5-2.1.1 0 .4-.1.3-.1m-4.3 3.8c-.2.2-.5 0-.6-.1q-.3-.15-.3-.6c0-.1-.4 0-.4.1.1.7 1.2 1.2 1.8.6 0-.1-.4-.1-.5 0m2.7-.6c-.6.5-1.3 1-1.4 1.8-.1.3 1 .1 1.1-.2.2-.7.8-1.2 1.4-1.7.2-.2-.2-.2-.3-.2-.3 0-.6.1-.8.3m1.5.7c-.5.5-1 1-1.1 1.7-.1.5 1 .3 1.1-.1.1-.6.5-1 .9-1.4.2-.2.1-.4-.1-.4-.3-.1-.7 0-.8.2m1.4.8c-.4.3-.9.7-.9 1.3 0 .4 1.1.2 1.1-.1 0-.5.4-.7.7-1 .2-.1.1-.3-.1-.4-.3-.1-.6 0-.8.2"/><path fill="#2fa64a" d="M4.7 187c-.8 0-1.4 0-1.6.5-.3.6-.1 1.8-.1 2.5 0 .9-.1 1.6.3 2.4s1.8 1.2 2.6 1.6c1.6.9 3 1.1 4.5 2.2 1.4 1 2.9 2 3.9 3.3 1.2 1.7 4.2 1 6.1.9.9 0 1.7-.4 2.6-.5s1.7-.5 2.5-.9c.7-.3 1.4-.7 2.1-1.1.6-.3 1.1-.8 1.5-1.3.9-1 1.6-2.2.1-2.8 0-.6-.9-.9-1.4-1s-1.6-.4-2.1-.5c-1.1-.2-.6-.3-1.5-.7-.7-.3-1.2-.8-1.7-1.5-.5-.6-1.1-1.1-1.5-1.8-.2-.3-.7-.4-.9-.7-.3-.3-.8-.2-.9-.6-.1-.7-.5-2.4-1.2-2.6-1-.2-2.1-.1-3 .1-.8.2-2.1.5-2.9.9-.5.2-1 .7-1.5.9 0 .4.3.9.2 1.3-1.3.1-1.1.1-2.4.3-.7.1-2.3-.4-3.1-.7-.3 0-.3-.2-.7-.5"/><path fill="#a9d7aa" d="M2.9 191.9c2 .3 4.2 1.7 6.1 2.4 2.1.9 3.8 2.4 6 3.2 2.4.9 5.4.6 7.8-.3 1.1-.4 2.3-.7 3.2-1.3.5-.4 1.2-.6 1.4-1.2.2-.4-.1-.7 0-1 0-.1-.2-.4-.2-.5 1.2-.1 1.6.5 2.2 1.5.7 1.1 0 1.8-.5 2.6-1.1 2-4.3 2.5-6.4 3.1s-5.4 1.1-7.5.2c-.6-.3-.6-.6-1-1-.3-.3-.8-.6-1.2-.9-.5-.4-.8-.9-1.2-1.3-.4-.3-.7-.5-1.2-.8-1.4-.7-3-1.5-4.4-2.1-.6-.2-1.7-.7-2.2-1-.7-.5-.4-1.1-.9-1.6"/><path fill="#1d241c" fill-rule="nonzero" d="M19 187.5c1.3.8 2.1 1.8 3.1 2.9.7.8 1.4 1.5 2.3 2 .8.4 1.9.5 2.8.7 1.2.3 2 .9 2.3 2.1s-.8 2-1.6 2.6c-2.4 1.7-5.3 2.4-8.2 2.7-1.5.2-3.1.2-4.4-.6-.8-.4-1.4-1.3-2-2-1.5-1.6-3.6-2.5-5.6-3.4-1.4-.7-3.2-.9-4-2.3-.4-.8-.3-1.9-.3-2.7 0-.6.1-1.2.1-1.7 0-.3 1.1-1.4.2-.9-.3.2.2.2.3.1.1 0 .1-.1.2-.1.3-.2-.2-.2-.3-.1-1.4.7-1.1 2.5-1.1 3.8.1 2.4 1.3 3.1 3.4 3.8 2.4.9 5 2.3 6.8 4.1.8.8 1.4 1.6 2.5 2 1.2.5 2.6.3 3.9.2 2.4-.2 4.8-.8 7-1.8 1.4-.7 3.6-1.8 3.7-3.5.2-2.9-4.2-2.6-5.8-3.7-1.8-1.2-2.7-3.3-4.7-4.5-.2 0-.6.3-.6.3m8.1 5.6c1.4 3-6.1 4.4-7.9 4.6-1.6.2-3.2.1-4.7-.6-1.2-.6-2.2-1.5-3.3-2.1-2.4-1.4-5.1-2.3-7.7-3.3-.1-.1-.6.2-.4.2 3.3 1.4 6.7 2.5 9.6 4.6 2.5 1.7 4.9 1.8 7.8 1.3 1.8-.3 8.5-1.9 7.1-4.8 0-.2-.6 0-.5.1M12.5 190c-.3-.8-.8-1.5-1.3-2.3-.4-.6-.8-.9 0-1.3l2.1-.9c1.2-.4 2.6-.6 3.9-.7 1.6-.1 2.1 2.4 1.3 3.5-.2.3.3.4.5.2.7-1 .6-3.8-1-4-2.6-.3-5.5.9-7.8 2.1-.1.1-.2.2-.1.3.7 1.1 1.5 2.1 2 3.3 0 .2.5 0 .4-.2m6.2-1.9c-1.4 1.7-4.2 2-6.2 1.8-.2 0-.6.3-.3.3 2.3.2 5.5-.2 7.1-2.1 0-.1-.5-.1-.6 0m2.9 1.6c-1.1.1-2.2.6-3.2 1-.9.3-1.8.8-2.2 1.7-.3.6.8.6 1 .1.3-.6 1-.9 1.6-1.2.9-.3 1.7-.8 2.6-.9.7.1.9-.7.2-.7m-.8-1.1c-1.2.1-2.3.6-3.4 1-.9.3-1.8.8-2.2 1.7-.1.3.9.1 1.1-.2.3-.6.9-.9 1.6-1.2.8-.3 1.6-.8 2.5-.8.3 0 1.1-.6.4-.5m2 2.4c-1.2.1-2.3.6-3.4 1.1-.8.3-1.7.8-2 1.6-.1.3.9.2 1.1-.1.3-.7 1.1-1 1.8-1.2.8-.3 1.6-.7 2.5-.8.4-.1.8-.7 0-.6"/><path fill="#536aa4" d="M48.8 172.1c-.1.5-.1.6-.2.8-.2.5.4 1 .3 1.5-.2 1 .2 3.5-.4 3.9-1.5 1.1-3.4 2.2-5.8 2.6-.5.1-1.1.2-1.6.4-.6.2-1.3.2-1.9.2-.5 0-.5.1-1 0s-.1-.2-.7-.1c-.6-.1.2.1-.9-.1-.7-.1-2.1-.7-1.3-.7-1.2-.2-4-1.6-3.6-2.5.1-.4 1.6-1.7.4-3.9-.4-.7-.4-2 .3-2.7.8-.7.3-.4.3-1.5s-1.4-3.1-1.3-4.2c.2-1.2.2-.7.8-2 .3-.7 1.2-3.1.5-4.2s-.4-3.1-.8-4.3c-1-2.6-.6-5.8-.7-8.6-.1-2.4.3-4.6 1-6.9.2-.8.5-1.6.7-2.5.3-.9.6-1.7.7-2.7.2-2.5.3-4.8-.1-7.3-.2-.9-.6-1.8-.7-2.7-.2-1-.3-2-.4-3 0-.9-.1-2-.6-2.8-1 .8-1 3.1-1.8 4.2s-1.4 2.3-2 3.5c-1.1 2.1-2.1 4.3-3.3 6.4-.7 1.4 0 4.5.1 5.4.1.7-.2 1.1-.4 1.8-.1.7-.2 1.5-.7 2-.4.4-.4.8-.4 1.4-.2 1.4-.4 2.1-.6 3.5-.3 1.6-.5 3.3-.9 4.8-.4 1.4-.9 3.3-1.1 4.7s-.7 2.9-.8 5.7c-.1 1.9-.5 2-.5 3.9 0 .7-.3.8-.3 1.5 0 .9-.1.1-.2.7.3 1.1-.2 2.1-.3 3.2s0 .2-.2 1.2c.1.8.3 1.9.3 2.5-1.2 2.2.3 1.7.8 2.1-.8 2.2-.3 2.1-1.6 4.1-.5 1.5.6 2.5-.2 2.6-1.9.3-4.8.7-6.4 1.6-1.1.7.1 1.8-1.3 1.8-.6 0-2 .4-2.5.2-1-.4-.5-.1-1.7-.6-1.3-.6-2.6-1.2-2-1 1.4.7-1.1-.1-1.5-1s-.5-6-.2-7.4c.1-.6.9-1.6.7-2.2-.1-.3-.3-1.3-.1-1.7.3-.5-.5-.4-.1-1 .3-.5.1-1.1.2-1.7.1-.5-.4-1.5-.2-2s0-1.1 0-1.7c.1-1 .5-2.1.7-3.3.5-2.5 1.6-4.8 2-7.5.5-2.4.7-5.1 1.1-7.4.4-2.1.4-4 1.2-6.1.4-1 .3-2.6.8-3.6.4-.9 1.7-4.1 1.6-3.1 0 .1 2.2-3.4 1.7-2.7-.4.7.4-2.6.7-4.1.2-1.4.3-2.9.6-4.2.3-1.1.3-2.3.5-3.5.4-2.4 1-4.7 1.1-7.1.1-2.8.6-5.3.5-8.1 0-1.3.9-9.1.9-9.1 4 1.2 8.7.3 12.8-.3 3.8-.6 7.4-.8 11.1-2.1 2.5-.9 4.7-2.4 7.2-3 .2.3.3 0 .4.4.2.4.5 1 .6 1.5.2 1 .5 2.2.6 3.2.3 2 .3 3.7.4 5.8.1 2.4.3 4.8.1 7.1s0 4.7-.7 6.9c-.3 1.1-.5 2.1-.7 3.3-.2 1-.4 2.2-.7 3.2s-1 2.2-1.1 3.1c-.1 1 .1 2.5-.6 3.3-.5.6-.3.8-.4 1.6-.1.7-.4 1.2-.4 1.9 0 .5.5 1.6.5 1.9.1.6.1.7 0 1.4-.1 1.4-.9 2.4-1.4 3.6-.4 1 .2 2.1 0 3.2-.4 2.2.4 4.5.6 6.7.4 4.7 1.3 10.4 1.6 12.8.2 1.4.4.7.7 2.2.4 2 .8 2.1 1.8 2.3.2 0-.2 1.8.2 1.9 0 0 .3.2.6 1.2.3.9.6.2 0 .9"/><path fill="#1d241c" fill-rule="nonzero" d="M33.1 107.2c.2-.3 7.5-3.2 7.5-3.1-.1-.1-7.2 3.2-7.3 3.5-.2.1-.5.1-.5 0-.1-.1.1-.3.3-.4m13.6-14.5c1.3 2.7 1.5 5.7 1.7 8.6.2 3.7.4 7.4.2 11.1-.2 3.6-.8 7.2-1.8 10.7-.9 3.5-1.8 7-3.1 10.4-.1.2.5.1.5-.1 1.3-3.4 2.1-6.9 3.1-10.4 1-3.7 1.6-7.5 1.8-11.3.2-3.4-.1-6.8-.2-10.2-.1-3.1-.4-6.3-1.7-9.1 0-.1-.5.1-.5.3m-10.6 13.4c-1.3 5.1-3.2 10-5.3 14.8-2.2 4.9-5.2 9.4-7 14.4-.1.2.5.1.5-.1 1.8-4.9 4.7-9.3 6.8-14 2.2-4.9 4.1-10 5.5-15.2 0-.2-.5-.1-.5.1m-20.4-8c-.5 2.9-.8 5.9-1 8.8-.2 3.2-.1 6.3-.4 9.5-.3 3.3-1.2 6.4-1.8 9.6-.4 2.6-.6 5.3-1.2 7.9 0 .1.5 0 .5-.1.6-2.5.8-5 1.1-7.5.4-3 1.3-5.9 1.7-9 .4-3 .5-6 .5-9.1 0-3.5.4-6.9 1-10.3.2 0-.4.1-.4.2m27.5 42.4c.1-.1-.2 0 .8-1.7 1.4-1.7.2-4.1.3-5.6.1-.7.1-.5.1.2 0 .8.5 1.9.7 3.4.1 3.2-2.9 5.5-2.9 5.6-1.2 1-.1.1-.3-.2.4-.4 1.1-1.5 1.3-1.7m.2.8c-.9 5.7.6 10.2 1.2 15.9.3 3.5.9 7.3 2 10.7.1.2.6 0 .5-.1-1.1-3.4-1.5-7-1.9-10.5-.6-5.7-1.9-11.3-1-16.9-.1.1-.2.4-.4.5zm-9.8-1.9c-.2-3.6.4-7.2.2-10.8-.3-3.4-1.3-6.8-1.5-10.2 0-.1-.6 0-.5.1.2 3.4 1.2 6.8 1.5 10.2.3 3.6-.4 7.2-.2 10.8 0 .1.5 0 .5-.1m-.4-5c-.1 2.6-1.4 5-1.7 7.5-.3 2.9-.3 5.8-.2 8.7.1 2.8.2 5.5 1 8.2.4 1.4 1.8 3.2 1.5 4.7 0 .1.5 0 .5-.1.3-1.3-.8-3-1.2-4.2-1-2.4-1.1-5.2-1.1-7.7-.1-3.1-.2-6.2.1-9.3.3-2.8 1.6-5.3 1.8-8.1-.2.1-.7.1-.7.3m-17.4 11.9c-.1.1-1.6-1-1.9-2.5-.5-1.5-.2-2.9-.2-2.9s-.1 1.5.5 2.8c.5 1.4 1.8 2.1 1.9 2.1.2.1.2.3.2.4s-.3.2-.5.1m5.8-1.3c0-.1.4-.9 1.1-1.8.7-1 1.6-2.2 1.8-3.7.1-1.5-.4-3-.5-4.1-.2-1.1 0-1.9 0-1.9s-.1.8.1 1.9.8 2.5.7 4.1-1 3-1.7 3.9c-.6 1-1 1.7-1 1.8q-.3.6-.6.6c-.1 0-.1-.4.1-.8m-10.7 42.6c-1.1.2-2.1.5-3.2.4-1.3-.1-2.5-.8-3.6-1.4-.2-.1-.6.2-.3.4 1.2.6 2.4 1.2 3.7 1.4 1.1.2 2.4-.1 3.5-.4.4-.1.2-.5-.1-.4m7.2-3c-.1-1.3-.2-2.4.4-3.6.4-.7.8-1.3 1-2.1.3-.9.1-1.6-1-1.7-1.2-.1-2.4 1.3-3.5 1.5-2.3.4-4.8.2-7.2-.3-.2 0-.6.3-.3.3 1.6.3 3.2.5 4.8.5 1.3 0 2.8 0 3.9-.6.7-.4 1.7-1.3 2.5-.9 1 .4-.1 2.1-.4 2.6-.9 1.5-.9 2.7-.8 4.4 0 .2.6.1.6-.1m-8.3-.5c.2 0 3.2-.3 5.7-1.8 2.7-1.4 3.7-4.4 3.6-4.3.1 0-.8 3-3.5 4.6-2.5 1.7-5.6 2.1-5.8 2.2-.4 0-.7-.1-.8-.2.1-.3.4-.4.8-.5m-5-.7s.3-.1.7-.3c.2-.1.4-.2.6-.4.1 0 .3-.5.2 0l-.4-.2c-1-.5-2-1.1-2-1 0 0 1 .4 2.1.8l.4.1c.3.6-.1.4-.1.6-.2.2-.4.4-.6.5-.4.3-.7.4-.7.4-.2.1-.3 0-.4-.2 0-.1.1-.3.2-.3m18.6-40.8L19.9 158l-1.8 16zM4.1 177.3c-1.8.2-3 .8-2.9 2.8.1 1.4.2 2.8.2 4.3 0 1.6 1.4 2.1 2.6 2.8.1.1.6-.1.5-.2-.9-.5-2-.9-2.5-1.9-.4-.7-.1-2-.1-2.7 0-2.3-1.1-4.4 2-4.8.4 0 .6-.3.2-.3m-1.7.7c.9-2.8.4-5.8.5-8.6 0-1.7.4-3.4.7-5 .3-2.1 1.5-3.9 1.9-5.9 1.5-8.1 1.3-17.6 6.4-24.5.2-.2-.4-.2-.5 0-2.4 3.2-3.5 7-4.3 10.8-.4 2-.7 4-1 5.9-.4 2.5-.9 4.9-1.1 7.4-.2 2.1-1.3 3.9-1.9 5.9-.4 1.6-.7 3.5-.8 5.2-.2 3 .4 6.1-.5 9 0 .1.5 0 .6-.2m46.1-1.3c1.6 2.4-4.6 3.9-6.1 4.3-3.8 1.1-7.8.1-10.5-2.7-.1-.1-.6.1-.5.2 2.9 3.1 7.1 3.7 11.1 2.7 1.5-.4 8.3-2 6.6-4.7-.1-.1-.6.1-.6.2m-16.6 1.7c.7-.8 1.1-1.2 1-2.3 0-.7-.2-1.3-.5-1.9-.3-.5-.8-2 .2-2.3.3-.1.3-.4-.1-.3-.8.2-1.1 1-1 1.8 0 .7.7 1.4.9 2.2.3 1.1-.1 2-.9 2.8-.3.1.3.1.4 0m15.8-9.1c-3 1.6-6.3 2.1-9.7 2.2-1.5.1-3 0-4.4 0-.6 0-1.1 0-1.7.3-.3.2.2.2.3.1.6-.3 1.4-.2 2.1-.2h2.5c1.3 0 2.7-.1 4-.2 2.5-.3 4.9-1 7.2-2.2.4-.1-.1-.1-.3 0m-.1 0c.4.9 1.7 2.2.9 3.1-.7.7 0 1.1-.1 1.9 0 .3.5.2.6 0 0-.5-.4-1.1-.1-1.6.2-.2.4-.4.5-.7.1-1.1-.8-1.9-1.2-2.8-.1-.3-.7-.2-.6.1m-15.2-9.8c.7 1.3.5 2.8 0 4.2-.3.9-1 1.3-1.1 2.2-.2 1.9 1.3 3.8 1 5.7 0 .3.5.2.6 0 .3-2-1.2-3.9-1-5.9.1-.9 1.1-1.7 1.4-2.6.3-1.2.3-2.5-.2-3.7-.3-.3-.8-.2-.7.1m14.2 8.4c.4.2.8.1 1.1.2.5.2-.2 1.1-.3 1.3s.5.1.5-.1c.2-.5.7-1 .3-1.4-.3-.3-.9-.1-1.3-.3 0 0-.5.2-.3.3m2 5.1c0 .4-2.3 1.6-4.7 2-2.4.7-4.8.3-4.7.2 0 .2 2.4.4 4.6-.4 2.4-.6 4.4-1.9 4.3-2.1.2-.2.4-.4.5-.3.3-.1.3.3 0 .6m-30.7.6c-.1.6.1 1.1.3 1.7.2.8-.2 1.4-.6 2-.1.2.4.2.5 0 .3-.5.7-.9.7-1.5 0-.8-.5-1.5-.4-2.3.1-.2-.5-.1-.5.1m31.2 3c-.7-.7-.1-1.5-.1-2.4 0-.1-.5 0-.5.1 0 .9-.5 1.7.1 2.4.1.2.6 0 .5-.1"/><path fill="#deb252" d="M19.2 13.7c-.1.1-.8-.3-.8-.2.7.1 1.1.1 1.8.3 0 .1.5-.2.5-.2 1.5.2 3-.4 4.5-.5 1.4-.1 2.8-.6 4.2-.9 2.5-.5 6.4-1 7.8 1.2.5.7.8 1.5 1.4 2.4.8 1.4.2 1.5.4 3 0 .3.3 1.5.3 1.8-.1.5.4.6.2 1s-.1 1.1.1 1.5c.2.5.4 1.3.7 1.7.3.5.6 1 .8 1.5.7 1.8 1.1 3.8-.2 5.5-.3.4-.6 1-.8 1.5s-.6.9-.9 1.3c-.7.9-1.3 1.6-2.1 2.4s-1 1.4-2.1 1.9c-.5.3-1.2.8-1.7 1.1-.4.3-1 .5-1.4.7-.3.2-.7 0-.9.3s.1 1.6.1 1.9c0 .9.3 1.8.5 2.6.7 0 2.6.3 3.3.3.4 0 .3 1.3.4 1.7.2.5.3 1 .3 1.6 0 1.9-.6 3.8-2 5.2-1.6 1.5-4.3 1.5-6.3.8-1.2-.4-2.4-1-3.4-1.8-.5-.4-.9-.8-1.4-1.1-.9-.4-.5-.5-.5-1.1 0-.8.2-1.4-.1-2.1-.3-.6-.4-1.1-.7-1.7-.5-1.2-1.9-1.7-2.7-2.7 2.3-.2 3.5 1.5 5.3 2.3-.4-.7-.7-1.2-1.3-1.8-.5-.2-1-.8-1.3-1.6.4-.2.5-.7.7-1.1.2-.5.2-1 .3-1.5.3-1 .5-2.4.5-3.5 0 .1.2.3.2.4.1-.2 0-.1 0-.3-.9-.4-2.7-1.4-3.5-2.1-.7-.7-2.1-1.4-2.5-2.3-.5.1-.3.2-.9.2s-1.2.2-1.7-.1c-.8-.6-2.2-1.2-2.7-2.1s-1-2.4-.7-3.4c.2-.5.2-1 .8-1.3.3-.2 1.1-.2 1.5-.1.4.2.9.7 1.1 1 .3.3 1 .4 1.3.6.8.4 1.3.5 2.2.5-2-1.4-2.9-4.4-3.1-6.8q-.15-1.65.6-3c.3-.5.5-1.2.9-1.8.3-.6.6-.9.9-1.3s.8-1 .8-1.7c-.3-2.6-.2 0 .7-.6M6.1 59.8c0 3.2-.2 6.5-.2 9.8 0 1-.2 1.6-.4 2.5s0 1.8-.1 2.7c-.2 1.5-.6 3-.8 4.5-.5 3.2-.1 5.6.4 8.6.3 1.8.9 4.4 1.3 6.1.4 1.6 1 3.2 1.1 4.8.2 2.9-.7 5.9-2 8.4-.8 1.5-.9 2.6-.9 4.4v2.3c0 .4-.4.6-.2.9.1.1.6.1.7.3.1.1.4.7.4.7.8.4 2.4 1.6 3.5 1.7.8.1 1.8-2 2.6-2.7.4.4.3 2.4 2.2 2.2.2-.6-.7-2.3-.6-3 0-.7-.1-1.2 0-1.9.3-1.4.4-3 .4-4.4 0-1.3.1-3.2-.1-4.5-.1-1.6-.5-3-.7-4.6-.3-3.2.5-5.2.7-8.4.1-1.6.1-3.8-.2-5.3-.4-1.6-1-3.1-1-4.8 0-1.6.4-2.6.6-4.1.3-1.8.9-4.1.9-6 0-1.7.1-3.7.4-5.4.2-.8.5-1.5-.2-2.1-.5-.5-1.7-.9-2.3-1.3-1.7-1.1-3.9-1.5-5.9-1.5M42.8 61.8c1.2-.8 2-2.3 2.7-3.3.4 1.5.6 2.9.8 4.4.3 1.6.6 3.1.8 4.6.3 1.4.3 3.2.8 4.5s1.2 2.6 1.8 3.9c.7 1.4 1.3 2.4 1.5 4 .1 1.5.5 2.9.8 4.3.5 3.1-.2 5.9-.2 9v2.3c0 .8.1 1.7.1 2.5-.1 1.7-.2 2.7 1.1 3.8 1.1.9 1.8 2.2 2.4 3.5.4 1 .9 3.2.6 4.3-.3.8-.7 1.2-.8 2.1-.1.4.5 1.6.3 2-.6.8-1.4-.2-1.7-.6-.3-.3-.3-.5-.6-.8-.5-.4 0-.5-.9-.3-.7.2-1.8.4-2.5.1-.8-.3-.6-.9-.7-1.8-.1-1.4-.4-5.7-.3-7.1.1-1.8.2-1.4.1-3.5-.1-1.1-.4-2-.5-3.1 0-1-.4-1.8-.6-2.6-.3-.8-.7-1.4-1-1.8 1.1-.4 2.5-.4 2.6-1.8.1-.6-1.2-2.2-2-2.2 0-.8-.5-1.5-.7-2.2s-.4-1.2-.7-1.9c-.6-1.3-1.2-2.5-1.7-3.9-.4-1.2-1-2.6-1.2-3.9-.1-.8 0-1.5-.3-2.3-.2-.7-.4-1.3-.3-2.1.2-1.7-.6-3.7-.9-5.5-.1-1.3.7-2.8 1.2-4.6"/><path fill="#2fa64a" fill-rule="nonzero" d="M5.9 62.7c.4.2-1.8-1.9-2.9-3.4 1-1.6 1.4-2.8 2.2-4.5 1-2.2 2-6.4 4.5-7.1 2-.6 4.8-1.6 6.7-.3.7.5.3.5 1.3.9.7.3 1.9 1.3 2.4 1.9-.1 0 .2 1.1.6 1.5 1.4.5 1.8 1.1 3.1 1.8 1.2.7 2.5 1.6 3.7 2 2.8 1 5.5 0 6.4-1.3.4-.6 1-2.2 1.2-2.7.2-.6.2-3 0-3.8-.1-.5-1-1.8-.7-2.2s-1-.2-.5-.2c1.5 0 2.3-.6 3.8-.3 1.4.3 3 .6 3.9 1.5 1 1 1.3 2.3 2.1 3.5.6 1 .5 1.8 1.1 2.4.5 1.4 3.2 3.7 2.6 3-.5-.6.1-.6-.3.1-.9 1.6-1.3 3-2.1 4 0 .2-1.1 1.5-1 1.5-.9.2-.3.9-1.1.5.1.5-.3 1.5-.2 2 .1.6-.2.7-.2 1-.2.7-.4 2.2-.1 3.2.6 2.4.1 3.6.7 5.6.4 1.4 0 2.3.4 3.6.4 1.2.3 1.8.8 2.9 1 2.2 2.2 4.5 2.8 6.9.3 1 .7 1.7 1.5 2 2.2 1.1.9 3.9-.5 5.4-1.1.1-.2-2.5-.9-1.6-.8 1.1-3.9 3.6-5.2 4.2-2.9 1.3-5.6 2.2-8.9 2.6-3.6.5-7.4.4-10.7.2-.8 0-2.2-.5-3-.5-.7 0-2.8-1-3.3-1.5-2-1.6-.3-2.8.1-3.9s.9-1.2.4-1.7c-.5-.4 1.1-.8.9-1.5-.1-.7-.5-.5-.4-1.3 0-.4 0-.4.4-.9s.2-.2.7-.8.5-.2.7-.9c.2-.5.3-.6.4-1.2s.2-1.1.2-1.7c.1-.7.2-1.7.2-2.4-.1-1.2 0-2.4-.3-3.5-.6-2.2-1.5-3.7-2.5-6.5-.2-.6-1-1.4-1.1-2-.2-.5.1-.4-.4-.8-.9-.2-.3-1-1-1.6-.3-.3.3.2.2-1.4-.1-.6.2-2.1.1-2.5-.8-1.4-3.3-2.9-4.5-2.9-.5 0-1.7-.6-2.5-.6-1.7 0-1.6-.1-1.6-.1-.1 1.1.6 3.4-.2 2.9m25.3-17.3c.3 0 .6.2.8.3s.4.1.6.2c.3.1.6.1.9.1.2 0 .4-.1.6 0 .3.1.3.4.1.5-.3.1-.8 0-1.1 0-.5 0-1.2 0-1.6-.2-.3-.2-.4-.5-.4-.8"/><path fill="#fff" fill-rule="nonzero" d="M20.1 24.1c1-.1 1.2-.4 2.1-.4.5 0 1.4-.1 1.9 0 .6.2.8 0 1.2.3.3.2.8.6 1.1.9.1.1.6.8.7.9.3.5-.4.8-.5.8-.5.3-.7.3-1.3.5-.5.2-1.6.7-2.2.6S21 26.6 20.6 26c-.2-.2-.8-1.4-.4-1.6m14.4-.5c0-.2.2-.1.3-.2s.4-.3.6-.4c.2-.2.7-.4 1.1-.5.6-.2 1.2-.3 1.8-.2.7 0 .7 0 1 .4.2.2-.1 1.4-.2 1.7s-.2.6-.4.9c-.7.7-1.9 1.1-2.6 1-.4 0-1.9-.6-2.2-.7-.4-.1.1-.6.2-1 .1-.2.1-.4.3-.5"/><path fill="#613d27" d="M12 5.5c0-.9-.1-1.3.7-1.8.6-.4 1.3-.6 2-.9 1.5-.7 3.1-.9 4.7-1.3 3.4-.9 7.4-.5 10.8.2s7.1 2.7 9.5 5.3c1.2 1.4 2 2.7 2.6 4.4.6 1.6 1.5 2.9 1.8 4.6.6 3.2.7 6.6.6 9.9-.1 1.7-.3 2.9-.9 4.5s-1.7 3.1-2.8 4.5c-.4.8 0 1.4 0 2.5 0 1.2.9 2.6 1.3 3.7.3.9 1 1.4 1.3 2.4.3 1.2-.6 2-.6 3.1.1-1-1.2-2.3-2.1-2.6 0 .6.4 1.7-.6 1.9-.5.1-1.7-.7-2.3-.7-1.6-.2-3 .3-4.6.2-2.3-.3-2.5.2-2.8-2.1-.1-.8-.2-1.7.4-2.2.5-.4 1.5-.5 2-.8 1.4-.7 2.2-1.7 3.3-2.6 1.1-1 2-2.5 2.9-3.6 2-2.6 2.3-5.6 1-8.3-.3-.7-.7-1.3-.9-2s-.1-1.5-.2-2.3c-.2-1.6-.3-3-.5-4.6-.2-1.7-1-2.9-2.5-4.1-1-.9-3-1-4.3-1-2.6.3-5 1-7.6 1.7-2.4.7-6.6.3-6.7-.6.4 2.6-.8 2.8-1.4 3.7-.4.6-.5 1.2-.9 1.9-.4.6-.5 1.2-.6 1.9-.3 1.6-.1 2.7.3 4.2.2.8.2 1.3.7 2.1.3.4 1.4 1.3 1.5 1.8l.2.2c-.7 0-1.5-.3-2.1-.5-.3-.1-.4-.2-.7-.3-.5-.2-.8-.3-1.1-.6-.5-.5-1-1-1.8-.7s-.8 1.3-.9 1.9c-.2 1.5.1 2.9 1.3 3.9.6.4 1.1.8 1.8 1 .9.3 1.6-.1 2.4 0 .1 0 .3-.1.5-.1.3 1.2 1.4 1.7 2.2 2.4.7.6 2.6 1.4 2.9 2.2.2.4-.2 1.2-.2 1.6 0 .6-.1 1.5-.1 2.1-.1 1-.2 2-1 2.8 1.1.7 2.8 2.2 2.3 2.7-.5-.6-3.5-1.8-5.2-2.2 2 .7 3.8 3.4 3.9 5.4 0 1.2-.2 2.5-.9 3.5-.6 1-1.8 1.8-1.8 3-.6-.4-.4-.9-.8-1.4-.5-.7-.9-1.2-1.6-1.6-1.3-.8-2.5-1.7-3.8-2.5-2.1-1.4-5.4-2.8-6.3-5.2-.2-.4-.2-1.4-.8-1-.3.2-.8 1.2-.8 1.5 0 1.1.7 2.1 1.5 2.6-1.7-.2-2.2-1.4-3.3-2.6-.9-1-1.6-2.1-2-3.4s-.3-2.6 0-4c.2-.7.5-1.8.9-2.4.6-.8.7-1.9 1.1-2.8.6-1.5 1-2.2 1.3-3.8.2-.8.3-1.9.5-2.7s.2-1.9.2-2.6c.3-3.1.4-6.5.3-9.9.2-5.1 2.3-9 6.8-9.5"/><path fill="#1d241c" fill-rule="nonzero" d="M7.8 116.7c-.3 0-.7-.2-.9-.5-.1-.1-.5.1-.4.1.3.3.7.5 1.1.5.2.1.3.1.2-.1.2 0 .1 0 0 0m-1.4-57c-.1-.3-.5-.2-.6.1-.2.9 0 1.9 0 2.7 0 1.6-.1 3.2-.2 4.7-.3 4.4-.7 8.8-1.6 13.2-.1.3.5.2.6 0 .8-4.2 1.2-8.4 1.5-12.7.1-1.6.2-3.3.3-5 0-.9-.2-2 0-3-.2 0-.4.1-.6.1.1.3.7.2.6-.1m8.2 3.5c-.8 5.5-1.5 11.1-2.3 16.6 0 .3.5.2.6 0 .9-5.5 1.5-11.1 2.3-16.6-.1-.3-.6-.2-.6 0m-2.4 16.7c.1 1.6.5 3.2.8 4.8.4 1.7.4 3.5.3 5.2-.2 3-.7 6-.6 9.1 0 .2.6.1.5-.1-.1-3.2.4-6.3.6-9.4.1-1.5.1-2.9-.2-4.4-.3-1.8-.8-3.5-.9-5.3.1-.3-.5-.1-.5.1m-8.1.6c0 1.4.1 2.9.2 4.3.1 2 .8 4 1.3 6 .4 1.2.6 2.5.8 3.7.2 1.5.7 2.9 1 4.4 0 .2.6.1.5-.1-.2-1.4-.7-2.7-.9-4-.2-1.2-.4-2.4-.7-3.7-.5-1.8-1.1-3.6-1.4-5.5-.3-1.7-.2-3.5-.3-5.2 0-.2-.5-.1-.5.1m4.1-3.1c.5.9 1.1 1.5 2.2 1.6.2 0 .4-.2.2-.3-1-.1-1.5-.7-2-1.5-.1-.1-.5.1-.4.2m4.7 21.2c.5 4.8.9 9.9.1 14.6 0 .2.4.1.4 0 .8-4.8.4-9.9-.1-14.7 0-.2-.4-.1-.4.1m-5.5.3c0 1.2-.2 2.4-.3 3.6 0 1.4-.6 2.5-1.3 3.8-.6 1.2-1.2 2.3-1.6 3.6 0 .2 0 .3.1.5.1.6.1 1.3.1 2 0 .8-.1 1.7-.1 2.5 0 .2.4.1.4 0 .1-1.4.2-2.7.1-4.1-.1-1.7.8-3.3 1.6-4.8.5-1 1-1.9 1.1-3.1.1-1.4.2-2.7.3-4.1 0-.1-.4 0-.4.1m5.6 14.3c.2 1.4.5 2.7.8 4 .1 0 .1-.1.2-.1-1.2.3-1.9-1.4-1.9-2.3 0-.1-.4 0-.4.1 0 1.3 1 2.7 2.4 2.3l.2-.1c-.3-1.3-.6-2.7-.8-4-.1-.1-.5 0-.5.1m-.1-.1c-1.1 1.6-2.5 3-3.8 4.5-.2.2.2.3.3.1 1.2-1.5 2.7-2.9 3.8-4.5.2-.2-.2-.3-.3-.1m-2.9-.2c-.4 1.5-1.4 2.8-2.3 4 0 0 .3 0 .4-.1.9-1.2 1.9-2.5 2.3-4 0 0-.4 0-.4.1m-2.1-.1c0 .6-.3 1.2-.5 1.8s-.5 1.2-.9 1.6c-.2.2.2.3.3.1.5-.5.7-1.1 1-1.7.2-.6.5-1.2.5-1.9 0-.1-.4 0-.4.1m-.5 4.2c.5.3 1.1.7 1.8.8.1 0 .5-.2.2-.2-.6-.1-1.2-.4-1.7-.8-.1-.1-.5 0-.3.2m-.8-.8c-.8-.4-1-.6-.7-1.5s.6-1.9.8-2.8c0-.2-.4-.2-.4 0-.2 1.2-.7 2.3-1 3.5-.1.6.6.9 1.1 1.1.1 0 .4-.2.2-.3M4.3 115c.3.1.5.1.8.3h.3s.2-.1.1-.1c-.3-.1-.5-.2-.8-.3-.1 0-.2 0-.3.1-.1-.1-.2 0-.1 0M45.5 58.3c.4 3.1 1 6.1 1.5 9.2.4 2.1.4 4.3 1.4 6.3.4.8.9 1.5 1.4 2.3.6.9.9 2 1.2 3 1.2 3.8.9 7.9.9 11.8 0 3.3-.1 6.6-.2 9.9 0 .1.5 0 .5-.1.1-3.2.1-6.3.2-9.5.1-4 .2-8.4-.9-12.2-.5-1.8-1.4-3.3-2.4-4.9-1.1-1.8-1.2-4.1-1.5-6.1-.5-3.3-1.3-6.5-1.7-9.8.1-.3-.3-.2-.4.1m3.3 42.3c-.6 1.8-.6 4 .5 5.6.7.9 1.6 1.5 2.4 2.3 1 .9.8 2.3 1.1 3.6.1.2.6 0 .5-.1-.3-1-.2-2-.7-2.9-.4-.9-1.4-1.4-2.1-2-1.8-1.6-2-4.3-1.3-6.4.2-.4-.3-.3-.4-.1m2.9.3c1.6 1.2 2.6 2.8 3.3 4.6.3.8.5 1.7.7 2.6.1.6.1 1.2.1 1.7-.1.5-.6 1.1-.9 1.5-.1.2.4.2.5 0 .4-.6 1-1.2.9-2 0-1.1-.2-2.2-.6-3.2-.6-2.1-1.8-4.1-3.6-5.4-.1-.2-.6 0-.4.2m1.1 11c-1.2.5-2.5.1-3.7-.1-.2 0-.6.3-.3.3 1.4.2 2.9.6 4.3 0 .3-.1 0-.3-.3-.2m.1-2c-1.2-.4-2.9-.4-4 .4-.3.2.1.4.4.3.8-.6 2.3-.6 3.3-.3.2 0 .6-.3.3-.4m-.2-.3c-.3-.6-1.3-.6-1.8-.6-.7 0-1.5.2-2.1.7-.1.1.4.1.5 0 .5-.5 1.2-.5 1.8-.4.3 0 .9.2 1 .5.2.1.7-.1.6-.2m-.1 1.3c.4 1.1 1 3.8 2.7 3.3.6-.2.5-.7.4-1.2-.3-1.5-.8-2.9-.7-4.5 0-.2-.5-.1-.5.1-.2 1.7.4 3.3.8 4.9.2 1-.8.1-1-.2-.6-.6-.7-1.7-1-2.5-.2-.2-.8-.1-.7.1"/><path fill="#1d241c" fill-rule="nonzero" d="M48.4 91.9c-1.4 0-2.4 1.5-3.4 2.3-1.4 1.2-2.8 2.3-4.4 3.1-2.9 1.4-6.3 1.8-9.4 2.1-3.5.3-7.1.3-10.5-.2-1.4-.2-2.8-.6-4-1.2-.5-.3-.9-.6-1.2-1.1-.6-.9.5-2.2 1-2.9.1-.2-.4-.2-.5 0-.8 1.3-1.8 2.3-.6 3.6.8.9 2.1 1.3 3.1 1.6 3.4 1 7.1.9 10.5.8 3.3-.1 6.6-.6 9.8-1.5q2.25-.75 4.2-2.1c.7-.5 1.4-1.1 2.2-1.7.7-.6 2.1-2.4 3.1-2.3.1-.2.5-.5.1-.5m-.5-3.6c-1.3-3.4-2.8-6.9-4-10.4-1.1-3.5-.7-7.4-1.7-11-.1-.2-.6-.1-.5.1.9 3.5.7 7.2 1.6 10.8.4 1.7 1.3 3.4 1.9 5 .7 1.9 1.4 3.7 2.1 5.6.1.3.6.1.6-.1M34.3 45.8c1.7-.5 3.6-.7 5.3.1.2.1.7-.2.4-.3-1.8-.9-3.9-.7-5.8-.2-.3.2-.3.5.1.4m-19 19.8s.8 0 1.1-1c.3-.9.5-2.2.3-3.5-.7-2.6-3.3-3.8-3.2-3.8-.1 0 2.6 1.1 3.4 3.7.3 1.3.2 2.7-.1 3.7-.3 1.1-1.4 1.3-1.4 1.3-.4 0-.7-.2-.6-.3-.1-.1.2-.1.5-.1m32.8 28.6c.4-1.1 1.2-2.2 1.6-3.3.5-1.3-1.1-2.1-2-2.7-.7-.9-.7.1-.5.2 1 .7 2.4 1.3 1.9 2.7-.4 1.1-1.1 2-1.5 3.1-.1.2.5.2.5 0m-.4-6c.1.3-1.5 2.2-1.4 2.2-.1 0 1-2.3.8-2.3 0-.1.2-.1.3-.1s.3.1.3.2M34 45.7c.9 1.5 1.2 2.6 1.1 4.4-.1 1.6-.6 3.3-1.8 4.5-1.8 1.9-5 1.1-7.1.2-1.6-.7-3.1-1.8-4.5-2.8-.1-.1-.5.1-.3.2 2.9 2.2 7.6 5.3 11.4 3.1 1.5-.9 2.2-2.4 2.6-4.1.5-2.1.2-3.8-.9-5.7-.2-.1-.6.1-.5.2m13.2 10c.1-.2-.4-.2-.5 0-.5 1-1 2.1-1.6 3.1s-1.3 2.5-2.5 2.9c.1.3 0 .3.2.2 1-.4 1.7-1.4 2.3-2.3zm-9.3-10.2c1.4.2 2.8.6 3.7 1.7.8.9 1.1 2.1 1.6 3.2.4 1 1 1.8 1.6 2.6.7.9 2.2 1.8 1.8 3.1-.1.2.5.1.5-.1.3-1-.5-1.7-1.1-2.4-1.1-1.1-1.9-2.3-2.5-3.8-.5-1.1-.9-2.2-1.7-3.1-.8-1-2.5-1.3-3.7-1.5-.1-.1-.6.2-.2.3M14.5 67.4c-.2-.1-.7 0-.5.2.4.6.8 1 1.2 1.6.8 1.1 1.3 2.6 1.9 3.8 1.2 2.6 2.1 5.1 2.3 8 .1 1.5-.1 3-.5 4.4-.2.7-.5 1.4-.8 2-.3.5-.8.8-1 1.3s-.3.8-.2 1.4c.2.8.6 1.2-.3 1.6-.1 0-.3.2-.3.3-.2.9.4 1.4-.5 2.2-.2.2.3.2.4.1.3-.3.5-.5.7-.8.3-.6-.3-1.4.4-1.7.9-.3.5-1.1.2-1.7-.5-1.1 1.2-2.6 1.7-3.6.6-1.3.8-2.9.8-4.3.1-3.2-.8-5.9-2.1-8.8-.6-1.4-1.2-2.8-2-4.1-.5-.8-1-1.3-1.4-1.9-.2 0-.4.1-.5.2.1.1.6-.1.5-.2m26.9-.9c-.1-.1 0-1 .4-2s.8-2.3.5-3.6c-.7-2.7-2.9-4.5-2.6-4.7-.3.2 2.1 1.9 2.9 4.6.4 1.4.1 2.9-.3 3.9-.3 1-.4 1.7-.3 1.7 0 .3 0 .7-.2.7-.1 0-.3-.1-.4-.6M31 45.1c1.4.6 3.2.7 4.7.3.3-.1.2-.5-.1-.4-1.4.3-3 .3-4.3-.3-.2 0-.6.3-.3.4m-22.3 3c-1.6.7-2.1 2.9-2.8 4.3-1.1 2.3-2.1 4.6-3.3 6.9-.1.1.5.1.5-.1.9-1.8 1.8-3.6 2.6-5.5.4-1 .9-1.9 1.3-2.8.4-.8.8-2.3 1.8-2.6.5-.2.1-.3-.1-.2M2.6 59.3c.5 1.5 1.8 2.6 3 3.5.1.1.6-.1.5-.2-1.2-.9-2.4-2-2.9-3.5-.1 0-.6.1-.6.2m12 4c.1-.2-2-2-4.7-2.8-2.6-1-5.3-.6-5.3-.6 0-.1 2.7-.6 5.4.3 2.7.7 5 2.4 5.1 2.8.2.4 0 .7-.2.7.2-.2-.1-.1-.3-.4"/><path fill="#1d241c" fill-rule="nonzero" d="M28.9 40.7c.7.2 1.5.3 2.3.3.2 0 .6-.3.2-.3q-1.05 0-2.1-.3c-.3 0-.7.2-.4.3m2.2.7c-.1.1-.5 1.8 0 3.5.4 1.7 1.1 3.3 1.1 3.3s-.8-1.5-1.4-3.2c-.7-1.7-.5-3.6-.3-3.7.1-.2.3-.4.4-.3.2-.1.2.2.2.4m-9.2-3.7c.1 2.3-.3 4.3-1.3 6.4-.1.3.4.2.5 0 1-2.1 1.4-4.1 1.3-6.5 0-.2-.5-.1-.5.1m16.9-14.4c.8 1.4 1.7 2.7 2.1 4.2.6 2-.2 4.1-1.2 5.8-.9 1.6-2.3 3-3.6 4.3s-3.1 2.8-4.9 3.2c-.3.1-.3.3.1.3 3.4-.8 6.5-4.3 8.5-7 1-1.4 1.9-3.2 1.9-4.9 0-2.3-1.2-4.1-2.3-6-.1-.2-.7-.1-.6.1M16.5 33.4c1.5 2.3 4.3 3.7 6.6 4.9 2.4 1.2 5.3 2.7 8 2.7.2 0 .6-.3.2-.3-2.8-.1-5.7-1.6-8.2-2.8-2.2-1.1-4.8-2.6-6.2-4.7 0-.2-.5 0-.4.2m13.7-2.2c0-.1 1-.2 1-.2s-.8.4-.8.5c0 0-.1 0-.1-.1-.1-.1-.2-.2-.1-.2m4.3-.8c0 .1-.6 1.1-1.5 1.1s-1.6-.4-1.6-.4c0-.1.8.2 1.6.1s1-1 1-.9c0-.1.2-.1.3-.1.1-.1.2 0 .2.2m-.6-1.1c-1-.3-2 0-3 .4-.2.1 0 .2.1.1.9-.4 1.8-.6 2.7-.4.2.1.4 0 .2-.1m-17 2.5c-.1 1.5-.9 1.8-2.2 1.4-.8-.3-1.6-.7-2.3-1.2s-1.1-1.3-1.3-2.1c-.3-1.1-.1-3.7 1.8-3.1.1 0 .6-.2.4-.2-.9-.3-2.1-.2-2.5.8-.7 1.6-.3 3.4.9 4.6 1.5 1.6 5.7 3 5.9-.3-.2-.2-.7-.1-.7.1m-3.8-.4c0 .1 1 .8 2.1.2.5-.2 1.1-.5 1.5-.4.4.2.2.6.3.6-.1 0 .1-.4-.3-.6-.4-.1-1 .2-1.5.5-1.1.7-2.4 0-2.4-.1-.1-.1-.2-.3-.1-.3.2-.1.4 0 .4.1m2.4-2c-.1.1-1.1-1-2.3-1.3-.6-.1-1.3.1-1.5.5-.3.4-.1.8-.1.7 0 0-.2-.3.1-.8.3-.4.9-.7 1.6-.6 1.3.4 2.3 1.3 2.4 1.2.1.1.2.2.2.3-.1.1-.3.1-.4 0m23.9-6.2c0-4.1.2-9.3-4.2-11.3-.2-.1-.6.2-.3.4 4.3 1.8 3.9 7 4 10.9-.1.3.5.3.5 0m-8 22.7c1.1.2 1.9.5 3 .1.4-.1 0-.2-.2-.1-.8.3-1.6 0-2.4-.2-.1 0-.6.2-.4.2"/><path fill="#1d241c" fill-rule="nonzero" d="M30.4 35.9c0 .1.9.4 1.9.2 1-.1 1.7-.9 1.6-.9.1.1-.5.9-1.5 1.1-1 .3-2 .1-2.1-.1-.1-.1-.2-.2-.1-.2 0-.2.1-.2.2-.1m4.7-2.1c-2.4 1.3-4.8 1.2-7.4.7-.1 0-.6.2-.3.3 2.8.5 5.4.5 8-.9.4-.2-.1-.2-.3-.1M27.6 26c-1.2-3-5.4-2.7-7.9-2l-.3.1c.3 1.8 1.8 3.8 3.8 3.6 1.6-.1 3.2-.7 4.4-1.7.1 0-.4 0-.5.1-1.5 1.1-3.5 1.9-5.2.9-1.1-.6-1.7-1.8-1.9-3-.1.1-.2.1-.3.2 2.4-.6 6.2-.7 7.3 2 .1.1.7-.1.6-.2m6.2-.4c.4-2.1 2.4-3.1 4.4-3.1.3 0 .6.1.9.2.5.3-.5 2.1-.6 2.3-1 1.7-3.3 1.3-4.7.6-.2-.1-.5 0-.4.1 1.3.7 3.1 1 4.4.3.8-.4 2.6-3 1.3-3.6-2.3-1-5.4.9-5.8 3.2.1.2.5.2.5 0M22 23.7c-1.4-.4-2.4 1.5-1.5 2.5.1.1.4-.1.4-.1-.4-.7-.7-1.2-.7-2-.1 0-.3.1-.4.1.1.3.1.6.1.8 0 .1.4 0 .4-.1q0-.45.3-.9h-.4c-.1.2-.2.3-.4.5h.4q.15-.45.6-.6h-.3c-.2.1-.4.2-.7.2l.1.1c.1-.1.3-.1.4-.2l-.1-.1c-.1.1-.2.1-.3.2-.2.1.2.1.3 0 .1 0 .2-.1.2-.1.2-.1 0-.1-.1-.1-.3.1-.5.2-.7.4-.1.1.1.1.1.1.4 0 .8-.1 1.1-.4.2-.1-.2-.1-.3 0-.3.1-.7.3-.7.7 0 .1.3 0 .4 0 .2-.2.4-.3.5-.6 0-.1-.3 0-.4 0q-.45.45-.3.9c.1 0 .3-.1.4-.1 0-.3 0-.6-.1-.8 0-.1-.4 0-.4.1-.1.8.3 1.4.7 2 .1 0 .3-.1.4-.1-.5-.6-.3-2.5.8-2.2-.1 0 .3-.2.2-.2m15.4-1.1c.6-.1 1.1.2 1.5.6.1-.1.2-.1.4-.2-.4-.3-.8-.5-1.4-.6-.1.1-.1.2-.2.2.5 0 .8.3 1.1.6.1-.1.2-.1.4-.2l-.1-.1c-.1-.1-.5.1-.4.2.3.4.3.8.3 1.2 0 .1.4 0 .4-.1.1-.3.1-.6 0-1 0-.1-.5 0-.4.1.1.3 0 .6 0 .9.1 0 .3-.1.4-.1 0-.5 0-.9-.3-1.3-.1.1-.2.1-.4.2l.1.1c.1.1.5-.1.4-.2-.4-.4-.8-.6-1.3-.6-.1 0-.4.2-.2.2.5.1.9.3 1.3.6.1.1.5-.1.4-.2-.6-.5-1.2-.8-1.9-.6-.4.1-.4.3-.1.3"/><path fill="#1d241c" fill-rule="nonzero" d="M23.3 24.1c.7 0 1.3.6 1.3 1.3s-.6 1.3-1.3 1.3-1.3-.6-1.3-1.3c0-.8.6-1.3 1.3-1.3m13.5-.8c.6 0 1.1.5 1.1 1.1s-.5 1.1-1.1 1.1-1.1-.5-1.1-1.1.5-1.1 1.1-1.1M19.4 22.1c1.7-1.8 5.4-2.2 7.4-.6.1.1.6-.1.5-.2-2.3-1.8-6.5-1.2-8.4.8-.2.2.4.1.5 0m19.7-1.6c-1.6-1.1-4-1-5.3.5-.2.3.3.3.5.1 1-1.4 3.1-1.3 4.4-.4.1.2.6 0 .4-.2"/><path fill="#1d241c" fill-rule="nonzero" d="M1.8 37.5c-.3 1.4-.9 2.6-.8 4.1 0 1.2.5 2.4 1.1 3.4.9 1.7 2.6 3.9 4.5 4.6.1 0 .5-.1.3-.2-1.7-.9-1.9-3.5-.6-4.7h-.4c.3 2.8 2.9 4.4 5.2 5.7 3.2 1.8 6 3.5 8 6.6.1.1.4 0 .4-.1 0-1.3 1.2-2.3 1.8-3.4.5-1 .8-2.4.6-3.5-.3-2.4-2-4.3-4.1-5.4-.1.1-.2.2-.3.2 1.1.4 2.2.6 3.2 1.1.8.4 2 1 2.6 1.7.1.1.5 0 .4-.1-.5-1.4-1.6-2.1-2.6-3.2-.5-.5-.8-1.1-1.2-1.7 0 0-1.3-2.3-.6-2.2.2 0 .4-.2.1-.3-1.3-.2-.6 1.4-.3 2 .4.8 1 1.6 1.6 2.3.9 1.1 2 1.8 2.5 3.1.1 0 .3-.1.4-.1-.7-.8-1.8-1.2-2.6-1.8-1-.6-2.2-.8-3.3-1.1-.1 0-.5.1-.3.2 2.3 1.2 4.1 3.4 4 6.1-.1 1.4-.6 2.8-1.4 3.9-.5.7-.9 1.3-1 2.2.1 0 .3-.1.4-.1-1.7-2.7-4.1-4.6-6.9-6.1-2.5-1.4-5.9-3-6.3-6.2 0-.2-.3-.1-.4 0-1.4 1.4-1.3 4.1.6 5.1.1-.1.2-.2.3-.2-1.8-.7-3.4-2.9-4.3-4.6-.7-1.1-1-2.4-1.1-3.7 0-1.2.6-2.4.8-3.6.2-.2-.2-.1-.3 0m15.3-24.8q.3.75.3 1.5c.1.8-.6 1.3-1 1.9-.9 1.4-1.6 2.9-1.9 4.5-.6 3 .4 6.3 3 8.1.1-.1.2-.1.3-.2-1.8-.2-3.8-.8-4.9-2.5-.1-.1-.5 0-.4.1 1.1 1.7 3.1 2.3 5 2.5 0 0 .4-.1.3-.2-2.8-2-3.5-5.7-2.7-8.9.4-1.6 1.3-3.2 2.3-4.4.7-.8.5-1.8.1-2.7 0 .1-.4.2-.4.3m18.2-.7c-2.5-1-5.7 0-8.2.5-1.7.4-3.5.8-5.2 1-1.5.2-3.3.2-4.3-1-.1-.1-.6.1-.5.2 1.7 2 5.3 1 7.4.6l5.4-1.2c1.6-.3 3.4-.6 4.9.1.2.1.7-.1.5-.2M8.4 7.3c1.2-.7 2-1.4 3.5-1.6.1 0 .3-.1.3-.2.3-1.6 1.5-2.1 3-2.5 1.3-.4 2.6-.8 3.9-1.1 3.1-.6 6.3-.7 9.4-.2 5.1.7 9.7 3.4 12.4 7.8 2.7 4.2 3.7 9.5 3.6 14.4-.1 3.6-.8 8.5-3.9 10.9-.3.2.2.4.4.2 3.6-2.8 4.1-8.5 4.1-12.6-.1-6-2-12.5-6.5-16.7S27.5.6 21.6 1.2c-1.8.2-3.6.6-5.4 1.1-1.1.4-2.2.6-3.2 1.2-.9.5-.9 1.7-1.8 1.9-1.1.3-2 1-3 1.6-.5.2 0 .4.2.3M2.3 37.5c.9-2.9 2.3-5.6 2.9-8.5.3-1.4.3-2.9.4-4.4.1-1.1.3-2.3.3-3.4.4-4.9-1.4-10.2 2.5-14.1.1-.1-.4-.1-.5 0-3.6 3.6-2.4 8.3-2.5 12.9 0 1.4-.2 2.8-.4 4.2s-.2 2.9-.4 4.3c-.4 3.1-2 6-3 9 .1.2.7.1.7 0m38.2-2.7c-.1 1.9.1 3.7 1 5.5.5 1 1 1.9 1.5 2.9.6 1.4.4 2.4-.4 3.7h.4c-.2-1.5-1-2.4-2.1-3.4-.1-.1-.4 0-.3.2.6 1 .2 1.7-.3 2.5-.1.2.3.2.4 0 .6-1 .8-1.7.3-2.7-.1.1-.2.1-.3.2 1 .9 1.8 1.8 2 3.2 0 .2.3.1.4 0 1.1-1.8.8-3.2-.1-5-1.2-2.4-2.1-4.3-1.9-7.1-.2-.3-.6-.2-.6 0"/><path fill="#4c2c03" stroke="#000" d="M23.1 24.2c.3 0 .7.1.9.4.2.2.4.5.4.9 0 .3-.1.7-.4.9s-.5.4-.9.4-.7-.1-.9-.4-.4-.5-.4-.9c0-.3.1-.7.4-.9.3-.3.6-.4.9-.4ZM36.4 23.4c.3 0 .6.1.9.4.2.2.4.5.4.9s-.1.6-.4.9-.5.4-.9.4-.6-.1-.9-.4-.4-.5-.4-.9.1-.6.4-.9.6-.4.9-.4Z"/></g></svg>