<svg xmlns="http://www.w3.org/2000/svg" xml:space="preserve" width="88.536" height="127.487" viewBox="-0.338 -0.383 88.536 127.487"><title>Slice 1</title><g fill-rule="evenodd"><path fill="#828278" d="M59.822 80.735c2.915 7.296 8.953 23.54 8.953 23.54s-3.326 2.207-5.465 3.414c-4.003-5.404-18.868-28.07-12.59-31.723s9.102 4.77 9.102 4.77"/><path d="M68.77 101.663c.172.117 6.08 17.384 6.35 18.18.068.208.167.406.28.676q.241-.165.451-.369a52 52 0 0 0 1.224-1.563 1.56 1.56 0 0 1 1.123-.738l.158.572q.045.316.176.608c.24.378.533.72.79 1.09.257.369.451.612.257 1.022-.514 0-.695-.077-.87-.613a4.1 4.1 0 0 0-.904-1.234l-.676.554q.181.437.41.852.276.398.591.765l.1-.099c.248.617.22.698-.339.937-.194-.275-.383-.577-.604-.851a14 14 0 0 0-.709-.797l-.618.486c.496.856 1.115 1.5 1.417 2.324a.62.62 0 0 1-.835.135 6.9 6.9 0 0 0-1.097-1.874l-.735.586c.284.428.537.792.771 1.17.195.307.538.555.384 1.077l-.6.117c-.357-.567-.451-1.26-1.196-1.517l-.212.594.302.216.289.198c.027.167.063.343.081.518.068.595-.185.757-.803.496-.24-.536-.302-1.23-.903-1.442-.275-.418-.5-.76-.722-1.103-.45-.725-.902-1.46-1.353-2.184-.375-.59-.8-1.149-1.138-1.761-.496-.9-8.001-11.871-8.213-12.16.28-.27 7.266-4.75 7.374-4.868"/><path fill="#fff" d="m68.639 100.675-8.223 5.285 1.1 1.713 8.224-5.285zM70.493 104.004l-8.223 5.285 1.1 1.713 8.223-5.285zM72.08 107.288l-8.222 5.285 1.1 1.713L73.183 109z"/><path fill="#828278" d="m36.486 107.689-7.793-.077a39 39 0 0 0-.226-6.656c-.397-2.914-2.193-7.287-2.324-7.93 0 0-1.575-2.905 4.179-3.802 3.262-.509 5.022 3.725 5.749 9.007.35 3.14.488 6.3.415 9.458"/><path d="M28.43 115.376a40.6 40.6 0 0 0-.157-8.435h8.732c-.203 5.634-2.184 11.295-4.964 16.15 1.354.059 3.746-.243 4.883.608l-.248.509c-1.354.333-.145 1.801-1.354 2.121-.357-.617.27-2.95-1.354-2.121.036.59.307 1.743-.221 2.252l-.496-.113c-.154-.793.243-1.58-.145-2.292a1.3 1.3 0 0 0-1.255.17l.145 2.063-.848.212v-1.846c-.474-.045-.646-.563-1.174-.45-.045.751.311 2.364-.902 1.958-.05-.644.343-1.35-.203-1.968h-.858c-.27.297-.086 1.847-.086 2.045l-.492.365-.45-.266c-.073-.788 1.267-9.282 1.448-10.962"/><path fill="#fff" d="M37.547 106.45h-9.703v2.036h9.703zM37.095 110.094H28.29v2.036h8.805zM36.279 113.354h-8.073v1.955h8.073z"/><path fill="#3c3c32" d="m85.053 12.623-.185 8.72-3.741-2.095-.7-5.589z"/><path fill="#ffc800" d="M77.26.716S84.029.545 87.395.685c.095 3.517.303 15.676.303 15.676l-10.529-.148z"/><path fill="#828278" d="M76.267 62.149c.203-6.242 3.836-48.233 3.75-48.94-.04-.31-.04-.662.383-.824.321.116.578.36.709.675.347 1.04.713 2.076.523 3.207a3.5 3.5 0 0 0 0 .527c2.085.243 3.304 1.157 3.304 3.436s-.077 42.13-.307 51.3c0 0-.226 9.286-5.226 7.052S76.267 62.15 76.267 62.15"/><path d="M.167 68.738c1.76-11.993 10.258-26.405 23.75-24.941q1.13.126 2.257.347c-3.222-5.31-6.742-10.489-9.639-15.844-2.54-4.692-9.694-16.37-9.694-16.37L11.571.67l5.64 3.639S38.36 37.79 44.497 47.85c4.888 7.994 9.572 15.569 10.732 25.188.966 7.994-1.228 15.385-7.88 20.267-3.352 2.463-6.89 3.048-10.898 4.053-6.905 1.729-14.057 2.986-20.393 0C3.94 91.66 0 80.69.167 68.738"/><path d="m72.205 42.955 7.085 14.893-27.997 1.18-6.828-15.821z"/><path fill="#a0640a" d="M55.57 57.227c.452 4.25 4 6.755 8.413 6.449 2.996-.208 5.763-2.531 5.844-5.72.077-3.067-3.231-5.647-5.98-6.273-3.068-.694-7.757.274-8.276 5.544"/><path fill="#828278" d="m45.751 47.846 24.441-.014 4.527 10.444 5.113-.568-6.702-15.757-30.218-.906z"/><path fill="#3c3c32" fill-rule="nonzero" d="M48.468 1.351c3.88 5.855 9.996 15.078 13.809 21.014.799 1.234 10.596 15.06 14.838 23.297 6.77 13.15 8.805 23.31 8.448 30.173-.104 1.964-1.25 10.61-4.77 14.641-5.388 6.17-13.922 7.868-13.922 7.868l-38.977.608s15.027-3.747 19.274-10.309a29.46 29.46 0 0 0 4.373-14.037c.248-9.07-4.486-17.866-8.786-25.517-4.513-8.057-27.899-44.675-30.9-47.814zm2.486 54.25 25.092.05s-3.295-7.909-4.32-9.494l-25.722.027z"/><path d="M10.989.117c.902.077 37.826.122 38.747.225a2.3 2.3 0 0 1 1.552.662l.212.55-.08.58a2.06 2.06 0 0 1-1.693.6c-.903-.117-35.706-.117-36.626-.077zM13.087 2.657 7.825 13.704s-1.304.383-1.841-.423a3.1 3.1 0 0 1-.5-1.684L10.988.117z"/><path fill="#3c3c32" d="M10.83 75.993a17.07 17.07 0 0 0 6.165 8.557c3.367 2.413 7.487 3.292 11.35 2.03a12.21 12.21 0 0 0 7.054-6.214 16.63 16.63 0 0 0 .758-12.687 16.87 16.87 0 0 0-7.14-9.214c-3.158-1.919-6.444-2.837-9.928-1.693-7.017 2.306-10.966 11.074-8.258 19.22"/><path fill="#828278" d="M15.217 74.516a11.15 11.15 0 0 0 4.03 5.598 8.26 8.26 0 0 0 7.415 1.324 7.98 7.98 0 0 0 4.607-4.054 10.86 10.86 0 0 0 .492-8.286 11.02 11.02 0 0 0-4.666-6.021c-2.071-1.252-4.21-1.856-6.494-1.108-4.562 1.495-7.13 7.223-5.384 12.547"/><path fill="#3c3c32" d="M22.442 112.377s1.133 4.504 1.156 5.341-.361.838-.682-.067a7.5 7.5 0 0 0-1.223-1.946z"/><path fill="#828278" d="M19.446 72.957s-.849-4.503 3.858-4.503 4.062 4.751 4.062 4.751c-.402 4.675-5.163 46.954-5.592 46.887s-.383-3.153-.902-3.153c-.52 0-.66 3.53-1.178 3.576-.519.045-.27-3.576-.75-3.666-.477-.09-.667 2.927-.902 2.918-.568-.058 1.404-46.81 1.404-46.81"/><path fill="#f01446" d="M17.483 112.048v-1.41c.834-.08 3.222-.103 4.061-.189.04.199-.104 1.392-.072 1.63-.117-.022-2.45-.022-3.99-.03"/><path d="M19.748 109.301c-.695 1.473-1.065 3.283.451 4.296a2.26 2.26 0 0 0 3.16-.504c1.15-1.567.902-3.229-.393-3.9a4.1 4.1 0 0 0-3.218.108"/><path fill="#3c3c32" d="M20.628 110.314c-.37.784-.569 1.752.248 2.293a1.193 1.193 0 0 0 1.693-.27c.613-.838.478-1.72-.208-2.081-.56-.22-1.188-.2-1.733.058"/></g></svg>