<svg xmlns="http://www.w3.org/2000/svg" xml:space="preserve" width="236.955" height="179.18" viewBox="0.3 0.423 236.955 179.18"><title>Slice 1</title><g fill-rule="evenodd"><path fill="#d4dbe7" d="M114.9 116c-12.3 11.4-11.7 22-11.7 22s10.4 15.6 19 24.9c4.3 6.4 5.8 8.6 3.6 10.1-1 .6-5 .2-6.9-.7-2.9-1.4-2.6-5.9-3-7.2-1.3-4.1-31.6-23.9-28.5-28.3 3.1-4.3 2.3-10.6 1.1-15.4-2-8.1-6.7-38.3 11.1-42.7 17.8-4.3 26.5 26.9 15.3 37.3"/><path fill="#a7b2c4" d="M117.6 175.5c2.4 1.4 5.7 3.7 8.7 3.6 0 0 .8-3.4.6-6.4-3.2-.1-7-.9-9.2-1.4.3 2.1-.1 4.2-.1 4.2"/><path fill="#d4dbe7" d="M116.9 169.7s.6 2.9-.9 4.6c0 0 1.5-.1 2.1-1.6 0 0-.1 1.9 1.3 2.3 0 0 .1-1.7.9-2.3 0 0 .2 2.2 1.4 2.5 0 0 0-2.4.7-3.1 0 0 1.6 1.7 1.1 3.5 0 0 1.2-1.1 1-2.2 0 0 1.5 1.1 1.2 2.2 0 0 1-1.6.3-3.2 0 0 .7 2.2 2.8 1.9 0 0-1.9-1.1-2.4-3.6"/><path fill="#a7b2c4" d="M195.8 141.2c-1.1 2.3 4.9 11.3 4.9 11.3 5.6-6.1 3.3-7.8 4.2-9-3.2-.5-5-2.6-6.1-4.2-1 .6-3 1.9-3 1.9"/><path fill="#d4dbe7" d="M201.3 137.7s-5 2.6-6.3 1.8c0 0 1.2 1.5 3.4.6 0 0-2.3.6-1.6 2.3 0 0 1.6-1 3.7-1.7 0 0-3 1.9-1.8 4.5 0 0 .3-1.3 1.8-2.1 0 0-.2 1.5.5 3 0 0 .7-1.1 1.5-2.3 0 0-.9 2.7-.1 4.2 0 0 1.2-.6 1.4-2 0 0 .5 1 1.5 1.7 0 0 .9-5.5 1.9-7.6"/><path fill="#d4dbe7" d="M172.6 80c5.8 2.3 15.1 14.5 15.3 27.7 0 0 17.5 2.3 19.7 3.1s2.9 21.9 1.6 24.2c-1.3 2.4-2.5 7.5-2.5 7.5l-6.4-4s2-2.7 3.1-4.7c0 0-.7-8.4-1.9-11.7 0 0-23.1 8.8-26.4 5-5.9-6.9-17.8-25.8-17.8-25.8"/><path fill="#fcccba" d="M89.1 66.4c-11.9-.3-21.6-3.9-30.5-8s-19-2.4-19-2.4 4.1 0 5.6 1.8c0 0-25.2-2.4-44.4 5.6 0 0 8.3.3 10.7 1.2 0 0-5.3-.3-8.9 3 0 0 5.6-1.2 10.7.6S25.4 75 34.9 75c0 0-5.9 1.8-12.1-.3 0 0 9.5 5.6 20.4 2.1 0 0-3.6 3.3-7.1 3.3 0 0 15.1 1.2 23.4-2.4s25.2-7.1 25.2-7.1"/><path fill="#e0a0a0" d="M84 65.8s-.7-.1-2-.2c-1.2-.2-3-.5-5.1-.9s-4.5-1.1-7.1-2c-1.3-.5-2.5-1-3.8-1.6l-3.9-1.8c-1.3-.6-2.7-1.1-4-1.6s-2.7-.9-4-1.3c-.7-.2-1.3-.3-1.9-.5-.6-.1-1.3-.2-1.9-.3s-1.2-.1-1.8-.2c-.6 0-1.1-.1-1.7-.1h-1.6c-.5 0-1 .1-1.4.1-.9 0-1.6.2-2.3.3-1.2.2-1.9.4-1.9.4s.7-.1 2-.3c.6 0 1.4-.1 2.3-.1s1.9 0 2.9.1c.5.1 1.1.1 1.7.2l1.8.3c1.2.2 2.5.5 3.8.9s2.6.8 3.9 1.3 2.6 1 4 1.6c1.3.6 2.6 1.1 3.9 1.7s2.6 1.2 3.9 1.6c2.6.9 5 1.4 7.2 1.8 2.1.4 3.9.5 5.2.7 1.1-.1 1.8-.1 1.8-.1M45.3 57.8s-2.8-.3-7.1-.5c-1.1 0-2.2 0-3.4-.1H31c-2.7.1-5.5.2-8.3.5-1.4.1-2.8.3-4.2.5s-2.7.4-4 .6-2.6.6-3.7.8q-1.8.45-3.3.9c-1 .3-1.9.7-2.7 1s-1.5.6-2 .9c-1.1.5-1.7.9-1.7.9s.7-.3 1.8-.8c.6-.2 1.2-.6 2.1-.8.8-.2 1.7-.6 2.7-.9s2.1-.5 3.3-.8c1.2-.2 2.4-.5 3.7-.7s2.7-.4 4-.6c1.4-.1 2.8-.4 4.2-.4 2.8-.3 5.6-.5 8.3-.5 2.6-.1 5.1-.2 7.2-.2h5.1c1.1.2 1.8.2 1.8.2M2.6 67.6s2.1-1.1 4.3-1.8c.5-.2 1.1-.3 1.6-.5.5-.1 1-.3 1.5-.3.4-.1.8-.2 1.1-.2s.4-.1.4-.1h-.4c-.3 0-.6-.1-1.1 0h-.7c-.3 0-.5 0-.8.1s-.6.1-.9.2l-.9.3c-1.2.4-2.2 1-3 1.5-.7.3-1.1.8-1.1.8M34.9 75h-.8c-.5 0-1.2-.1-2-.2-1.7-.2-3.9-.6-6-1.3-.5-.2-1.1-.3-1.6-.5l-1.5-.6c-.5-.2-1-.4-1.4-.6q-.75-.3-1.2-.6c-.4-.2-.7-.3-1-.5s-.6-.3-.8-.4c-.4-.2-.7-.3-.7-.3s.2.2.6.4c.4.3 1 .7 1.7 1.1.4.2.8.5 1.2.7s.9.5 1.4.7l1.5.6c.5.2 1.1.4 1.6.5.6.1 1.1.3 1.7.4.5.1 1.1.2 1.6.3 1.1.2 2.1.2 2.9.3 1.7.2 2.8 0 2.8 0M22.8 74.7s1.1.8 2.9 1.6c.9.4 2 .8 3.2 1.1.6.2 1.2.3 1.9.4.6.1 1.3.2 2 .3s1.3.1 2 .1 1.3 0 1.9-.1c.6 0 1.2-.1 1.8-.2s1.1-.2 1.6-.3.9-.2 1.3-.3.7-.2 1-.3l.9-.3s-.3.1-.9.1c-.3.1-.6.1-1 .2s-.8.1-1.3.2c-.5 0-1 .2-1.6.2s-1.2.1-1.8.1h-1.9c-.6 0-1.3-.1-1.9-.1-.6-.1-1.3-.1-1.9-.2s-1.3-.2-1.9-.3c-1.2-.3-2.3-.6-3.2-.9-2-.7-3.1-1.3-3.1-1.3M36.1 80s2.7.4 6.7.5c2 0 4.4 0 6.9-.2 2.5-.3 5.2-.7 7.8-1.6 1.3-.4 2.5-1 3.7-1.5s2.4-1 3.6-1.4 2.3-.8 3.4-1.1 2.1-.7 3.1-.9c3.9-1.1 6.5-1.5 6.5-1.5s-.7.1-1.8.3q-1.8.3-4.8.9c-2 .5-4.2 1.1-6.6 1.9-1.2.4-2.4.9-3.6 1.4s-2.4 1-3.7 1.4c-2.5.8-5.1 1.3-7.6 1.6s-4.8.4-6.8.4c-4.1.1-6.8-.2-6.8-.2M82.1 67.6s-1.3 0-3.2-.2c-1-.1-2.1-.2-3.2-.4-1.2-.2-2.4-.4-3.7-.6-.6-.1-1.2-.2-1.8-.4s-1.2-.3-1.8-.5-1.1-.3-1.6-.5-1-.3-1.4-.6c-.4-.2-.8-.4-1.2-.5-.4-.2-.6-.3-.9-.5-.5-.3-.8-.4-.8-.4s.3.2.7.5c.5.3 1.1.8 2 1.2.4.2.9.4 1.4.7.5.2 1.1.4 1.6.6l1.8.6c.6.2 1.2.3 1.9.5 1.3.2 2.5.4 3.7.6 1.2.1 2.3.2 3.3.2 2-.1 3.2-.3 3.2-.3M78.5 70.7s-1-.1-2.5 0c-.7 0-1.6 0-2.5.1s-1.9.2-2.9.3-2 .3-2.9.5-1.7.5-2.5.7c-.4.1-.7.3-1 .4s-.5.2-.7.3l-.6.3s.2-.1.7-.2c.2-.1.5-.1.7-.2.3-.1.6-.2 1-.2.7-.2 1.6-.3 2.5-.5s1.9-.3 2.9-.4c1-.2 1.9-.3 2.9-.4.9-.1 1.8-.2 2.5-.3 1.4-.3 2.4-.4 2.4-.4"/><path fill="#eff4f9" d="M187.2 72.6c4.8 9.8 5.9 21.5 2.2 30.8-7.6 19.4-39.4 19.6-61.8 11-9.4-3.6-18.8-.6-40.2-3.6-12.6-1.7-21-17.8-14.3-33.5 6.8-15.7 24.1-21.6 37.9-14.6 16.5 8.4 42.6-.3 48.7-3.8 5.5-3.1 22.6 3.9 27.5 13.7"/><path fill="#eff4f9" d="M188.1 75.1s2.9 8.2 5.4 8.8c0 0-2.5-.1-3.2-1.9 0 0 3.4 3.1 3.4 5.7 0 0-.6-1.5-1.6-1.5 0 0 2.6 4-.6 6.9"/><path fill="#d4dbe7" d="M127.5 114.4s.8.3 2.2.8 3.4 1.2 5.8 1.9c1.2.3 2.5.7 3.9 1 .7.2 1.4.3 2.2.5.7.2 1.5.3 2.3.4 1.5.3 3.2.5 4.8.7 1.7.1 3.3.4 5 .4.8 0 1.7 0 2.5.1.8 0 1.7-.1 2.5-.1h1.2c.4 0 .8-.1 1.2-.1.8-.1 1.6-.2 2.4-.2 1.6-.2 3.1-.5 4.5-.8 1.4-.4 2.7-.7 3.9-1.1s2.3-.8 3.2-1.2c.5-.2.9-.4 1.3-.6s.8-.4 1.1-.5c1.3-.6 2.1-1 2.1-1s-.8.3-2.1.9c-.3.1-.7.3-1.1.5s-.8.4-1.3.5c-1 .3-2.1.7-3.3 1.1q-1.8.45-3.9.9c-1.4.2-2.9.5-4.5.7-.8.1-1.6.1-2.4.2-.4 0-.8.1-1.2.1h-1.2c-.8 0-1.6 0-2.5.1-.8 0-1.7-.1-2.5-.1-1.7 0-3.3-.2-5-.3-1.6-.2-3.2-.4-4.8-.7-1.5-.3-3-.5-4.4-.8q-2.1-.45-3.9-.9c-2.4-.6-4.4-1.2-5.8-1.7-1.4-.4-2.2-.7-2.2-.7M191.1 89.2s.2.9.2 2.3c0 .7.1 1.5 0 2.3 0 .8-.1 1.7-.2 2.6 0 .4-.1.9-.2 1.3s-.2.9-.3 1.3l-.3 1.2c-.1.4-.2.7-.3 1l-.3.9c-.1.3-.2.5-.3.7-.1.4-.2.6-.2.6s.1-.2.3-.5.5-.8.8-1.5c.1-.3.3-.7.4-1 .1-.4.3-.8.4-1.2s.2-.8.3-1.3c.1-.4.2-.9.2-1.4.1-.9.2-1.8.1-2.7 0-.9-.1-1.7-.2-2.4 0-1.3-.4-2.2-.4-2.2"/><path fill="#d4dbe7" d="M191.4 93.1s.5-.2 1-.7c.2-.3.5-.7.7-1.1s.3-1 .3-1.5-.1-1-.2-1.5-.3-.8-.5-1.2c-.1-.3-.4-.6-.5-.8s-.2-.3-.2-.3 0 .1.1.3.2.5.2.8c.1.3.2.7.2 1.2.1.2 0 .4.1.7v1.4c-.1.2-.1.4-.1.6-.1.4-.3.8-.4 1.1-.4.6-.7 1-.7 1M193.6 87.7s.1-.3.1-.7c0-.5-.1-1.1-.4-1.6s-.6-1-1-1.3-.6-.4-.6-.4 0 .1.1.2.2.3.3.5c.2.4.5.8.7 1.3s.4 1 .6 1.4zM193.5 83.9s-.3-.3-.7-.8-1-1.2-1.5-1.9-1-1.4-1.3-2c-.2-.3-.3-.5-.4-.7s-.2-.3-.2-.3v.3c0 .2.1.5.2.8s.2.7.4 1.1.4.8.7 1.1c.5.7 1.2 1.4 1.7 1.8.7.4 1.1.6 1.1.6M110.9 62.8l1.5.6c.9.4 2.3.9 3.9 1.4.8.3 1.7.5 2.7.8.9.3 2 .5 3 .7 1.1.2 2.2.3 3.3.4.6.1 1.1.1 1.7.1h1.7c1.1 0 2.3-.1 3.4-.2s2.2-.2 3.3-.4c2.1-.3 4.1-.7 5.8-1.1 1.7-.3 3.1-.7 4-1 1-.3 1.5-.4 1.5-.4s-.6.1-1.5.3c-1 .2-2.4.4-4.1.7s-3.7.6-5.8.9c-1.1.2-2.2.2-3.3.4-1.1.1-2.2.2-3.4.1h-1.7c-.6 0-1.1 0-1.7-.1-1.1-.1-2.2-.2-3.2-.3-1-.2-2.1-.4-3-.6-1-.2-1.8-.5-2.7-.7-1.6-.5-3-.9-3.9-1.2-.9-.2-1.5-.4-1.5-.4"/><path fill="#fcccba" d="M202.1 16.1s-12.8-1.6-20.3 3.4c0 0 5.5-.9 7.5-.1 0 0-5.5.9-8.7 3s-9.8 1.8-9.8 1.8 3.2 2.3 7.9 2.2c0 0-4.6.4-10.1 3.9-3.1 2-9.6 1.8-9.6 1.8s5.8 2.6 10.5 1.4c0 0-3.5 2.6-7.8 2.1 0 0 2.9 2.9 6.4 2.8 0 0-7.5 1.2-11 8.2-3.4 7-8.7 8.7-13.1 8.7 0 0 5 3.3 9.1 2.3 0 0-3.7 1.4-8.5 2 0 0 4.1 3.5 21.4-2 7.7-2.3 36.1-41.5 36.1-41.5"/><path fill="#e0a0a0" d="M144.6 59.8s.6.1 1.4.1 2-.1 3.1-.4c1.1-.2 2.2-.6 2.9-1 .8-.4 1.2-.7 1.2-.7s-.1 0-.4.1c-.2.1-.6.2-1 .3-.8.2-1.9.5-2.9.7-1.1.2-2.2.5-3 .6-.8.2-1.3.3-1.3.3M144 55.4h1.3c.9 0 2.1-.1 3.5-.4.7-.2 1.5-.4 2.3-.7s1.6-.9 2.2-1.6c1.2-1.4 2.4-3 3.5-4.6s2.2-3.2 3.3-4.7c.6-.7 1.1-1.4 1.7-1.9.6-.6 1.2-1 1.8-1.4 1.2-.7 2.4-1.1 3.2-1.3s1.3-.3 1.3-.3h-.3c-.2 0-.6.1-1 .1-.8.2-2 .4-3.4 1.1-1.3.7-2.6 1.9-3.8 3.3s-2.2 3.1-3.4 4.6c-1.1 1.6-2.2 3.1-3.4 4.6-.5.7-1.2 1.2-2 1.5-.7.4-1.5.6-2.2.8-1.4.4-2.6.6-3.4.7-.7.2-1.2.2-1.2.2M161.7 35.6s.5.1 1.3.1 1.8-.1 2.8-.3 2-.6 2.7-1 1-.8 1-.8-.1 0-.3.1q-.3.15-.9.3c-.4.1-.8.3-1.2.4-.5.1-.9.3-1.4.4-1 .2-2 .4-2.7.6-.8.1-1.3.2-1.3.2M159 32.2h.9c.6 0 1.4 0 2.4-.1s2.1-.2 3.3-.5 2.4-.8 3.6-1.3c1.2-.6 2.3-1.4 3.3-1.9 1.1-.5 2.1-.9 3.1-1.2 1.9-.6 3.1-.8 3.1-.8s-1.3 0-3.2.4c-1 .2-2.1.5-3.2 1s-2.2 1.3-3.4 1.8c-1.1.6-2.3 1-3.5 1.4-1.2.3-2.3.6-3.2.7-1 .1-1.8.2-2.3.3s-.9.2-.9.2M170.9 24.2s1.2.1 3 .1c.9 0 2-.1 3.1-.2l1.8-.3c.6-.1 1.2-.4 1.7-.7 2.1-1.2 4.3-2.2 6-2.8q1.35-.45 2.1-.6c.5-.1.8-.2.8-.2h-.8c-.5.1-1.3.2-2.2.4s-1.9.6-3 1c-1 .5-2.1 1-3.2 1.6-.5.3-1 .6-1.6.7-.6.2-1.1.3-1.7.4-1.1.2-2.2.3-3.1.4-1.7.1-2.9.2-2.9.2M181.9 19.5s.2-.1.7-.4c.4-.2 1-.5 1.8-.8.7-.3 1.6-.6 2.6-.9s2-.5 3.1-.7c.5-.1 1.1-.2 1.6-.3s1-.2 1.5-.2 1-.1 1.4-.2c.5 0 .9-.1 1.3-.1 1.6-.1 2.7-.2 2.7-.2s-.3 0-.7-.1c-.5 0-1.2-.1-2-.1s-1.8 0-2.8.1c-.5 0-1 .1-1.6.2-.5.1-1.1.2-1.6.3-1.1.2-2.1.5-3.1.8s-1.9.7-2.6 1.1-1.3.7-1.7 1-.6.5-.6.5"/><path fill="#eff4f9" d="M195 22.3s-23.2 17.1-34.9 36.3 21.7 32.7 28.2 26.1 14.6-24.5 14.6-34.5-.9-30.7-7.9-27.9"/><path fill="#d4dbe7" d="M198.8 23s-2.1-5.3 4.7-12.7c4.2-4.5 3.6-10.1 5.7-9.3 2.1.9 7.2 17-1.2 22.6-5.1 3.4-7.6 3.9-9.2-.6"/><path fill="#bcc4d4" d="M209 3.7s0 .3.1.8.1 1.3.2 2.2c0 .4.1.9.1 1.4v1.6c0 1.1 0 2.3-.1 3.5 0 .6-.1 1.2-.2 1.7-.1.6-.2 1.1-.4 1.7-.1.5-.3 1-.5 1.5s-.4.9-.7 1.2-.5.7-.8.9-.5.5-.7.6c-.4.3-.7.4-.7.4s.3-.1.8-.3c.3-.1.5-.3.8-.5q.45-.3.9-.9c.3-.4.6-.8.8-1.3.1-.2.2-.5.4-.7.1-.3.2-.5.3-.8.2-.5.3-1.1.4-1.7s.2-1.2.2-1.8q.15-1.8 0-3.6c-.1-1.1-.2-2.2-.3-3.1-.3-1.6-.6-2.8-.6-2.8"/><path fill="#eff4f9" d="M222.2 28.3c2.4 4.4 17 15.7 14.2 23.7-2 5.8-6.3 5-14.1 3.3-.7-.2-4.6.8-8.5.7-21.1-.4-25.1-7.3-27.3-17.4s4.2-20 14.3-22.2c10-2.1 16.3 2.4 21.4 11.9"/><path fill="#9098a4" d="M215.7 35.2c-.7-.2-1.3-.3-1.3-.3s.6.2 1.3.3c.7.2 1.3.3 1.3.3s-.6-.1-1.3-.3"/><path fill="#d4dbe7" d="M233.2 51.1c-.8-.4-.8-2.4.8-1.5s.8 2.3-.8 1.5"/><path fill="#9098a4" d="M215.2 33.8s.2 0 .5-.1.6-.4.9-.7.4-.7.5-1v-.5s-.1.2-.3.4-.4.5-.6.8-.4.6-.6.8c-.3.1-.4.3-.4.3"/><path fill="#bcc4d4" d="M232.8 49.7s-.1.2-.2.5 0 .8.3 1.1q.3.3.6.3h.5c.3-.1.4-.2.4-.2s-.2-.1-.5-.1c-.3-.1-.5-.2-.7-.3s-.3-.4-.4-.7zM233.4 56s-.5-.3-1.2-.6-1.7-.7-2.7-1-2.1-.5-2.8-.5c-.8-.1-1.3 0-1.3 0s.1 0 .3.1q.3.15.9.3c.7.2 1.7.5 2.7.8s2 .5 2.8.7c.7.1 1.3.2 1.3.2"/><path fill="#d4dbe7" d="M213.8 56s-1-.1-2.5-.2c-.7 0-1.6-.1-2.5-.1s-1.9-.1-2.9-.2-2-.2-2.9-.4q-1.35-.3-2.4-.6c-.7-.2-1.3-.4-1.7-.6-.4-.1-.6-.2-.6-.2l.6.3c.2.1.4.2.7.4.3.1.6.3.9.4.7.3 1.5.6 2.5.8.9.2 1.9.4 2.9.5s2 .1 2.9.2c.9 0 1.8 0 2.6-.1 1.5-.1 2.4-.2 2.4-.2"/><path fill="#fcccba" d="M206 14s6.8-1.5 11.1 2.6 7.4 2.7 7.4 2.7-4 2.4-6.2.7c0 0 5.5 2.4 6 7l-2.9-2.4s3.4 3.9 1.7 6.2c0 0-2.6-5.3-5.5-6.8 0 0 1.6 2.6 1.8 3.6 0 0-7.6-.7-10-6.5-2.4-5.7-5.7-3.9-5.7-3.9s-1.3-2.1 2.3-3.2"/><path fill="#e0a0a0" d="M219.3 27.6s-.6-.2-1.4-.4c-.9-.3-2-.7-3.1-1.1-.5-.2-1.1-.5-1.6-.8-.2-.1-.5-.3-.7-.4s-.4-.3-.6-.4c-.4-.3-.7-.5-.8-.7l-.3-.3s.1.1.2.4c.1.2.4.5.7.9.3.3.7.7 1.2 1s1 .6 1.6.9c.6.2 1.1.4 1.7.6s1.1.2 1.5.3zM217.5 24l1 1c.6.6 1.3 1.4 2 2.3.3.4.7.9 1 1.3s.6.8.8 1.2c.2.3.4.6.6.8.1.2.2.3.2.3s0-.1-.1-.4c-.1-.2-.2-.6-.4-.9-.2-.4-.4-.8-.6-1.3-.3-.5-.6-.9-.9-1.4-.4-.4-.7-.9-1.1-1.2-.4-.4-.8-.7-1.1-.9-.8-.6-1.4-.8-1.4-.8M224.2 27s.1-.7-.1-1.7c-.1-.5-.3-1.1-.6-1.6-.3-.6-.7-1.1-1.2-1.6-.3-.2-.5-.5-.8-.7s-.5-.4-.8-.5c-.5-.3-1.1-.6-1.6-.7-.5-.2-.9-.2-1.2-.3s-.4-.1-.4-.1.1.1.4.2.6.3 1 .5c.2.1.4.2.7.4.2.2.5.3.7.5.5.3 1 .7 1.4 1.2.2.2.4.5.6.7s.4.5.5.7c.3.5.6 1 .8 1.4.5.9.6 1.6.6 1.6M224.4 19.3s-.2.1-.6.1h-1.5c-.3-.1-.6-.1-.9-.2s-.7-.2-1-.4-.7-.4-1-.6-.7-.5-1-.7c-1.3-1-2.6-2.2-3.7-2.7-.6-.3-1.1-.4-1.5-.4h-.6s.2 0 .6.1.8.3 1.3.6c1 .6 2.2 1.8 3.5 2.9.3.3.7.5 1 .8.3.2.7.4 1.1.6.7.3 1.5.5 2.2.5.6 0 1.2-.1 1.5-.2.4-.3.6-.4.6-.4"/><path fill="#eff4f9" d="M208.7 17.8c-1.7-.4-.5-2.9 1.5-3.1 0 0-.6-1.8 1.8-3.1 0 0 .2-2.6 1.9-2.9 0 0-.4-1.8 1.9-2.6 0 0 .1-1.5 1.9-2.2 0 0 1.1-1.8 2.2-2.2.9-.3-.6 2.3-.6 2.3s-.1 2-1.1 2.3c0 0 .7 1.2-1.4 2.7 0 0 .6 1.5-1.7 2.8 0 0 1.3.6-1.3 3.1 0 0 .3 2.9-1.9 2.9-2.2.1-2.9.1-3.2 0"/><path fill="#fcccba" d="M207.8 15.1s4.6 2.7 7.7 3.3c0 0-4.4 2.2-7.2-.1-.9-.8-1.8-.8-.5-3.2"/><path fill="#e0a0a0" d="M207.3 15.2s.4.2 1 .6c.6.3 1.5.7 2.3 1.1.9.4 1.7.7 2.3 1 .3.2.6.3.8.4s.3.2.3.2-.3-.4-.8-.9c-.6-.5-1.4-.9-2.3-1.3s-1.8-.7-2.5-.8c-.6-.3-1.1-.3-1.1-.3"/><path fill="#eff4f9" d="M190.7 23.6s-2.1-5.3 4.7-12.7c4.2-4.5 3.6-10.1 5.7-9.3 2.1.9 7.2 16.9-1.2 22.5-5.1 3.5-7.6 4-9.2-.5"/><path fill="#d4dbe7" d="M200.9 4.3s0 .3.1.8.1 1.3.2 2.2c0 .4.1.9.1 1.4v1.6c0 1.1 0 2.3-.1 3.5 0 .6-.1 1.2-.2 1.7-.1.6-.2 1.1-.4 1.7-.1.5-.3 1-.5 1.5s-.4.9-.7 1.2-.5.7-.8.9-.5.5-.7.6c-.4.3-.7.4-.7.4s.3-.1.8-.3c.3-.1.5-.3.8-.5q.45-.3.9-.9c.3-.4.6-.8.8-1.3.1-.2.2-.5.4-.7.1-.3.2-.5.3-.8.2-.5.3-1.1.4-1.7s.2-1.2.2-1.8q.15-1.8 0-3.6c-.1-1.1-.2-2.2-.3-3.1-.3-1.6-.6-2.8-.6-2.8"/><ellipse cx="20.7" cy="35.6" fill="#9098a4" rx="1.3" ry="2.7" transform="rotate(.345 97.8 39446.826)scale(-1 1)"/><path fill="#bcc4d4" d="M144.7 138.8c-2.2-1.1-11.3 4.9-11.3 4.9 6.1 5.7 7.8 3.3 9 4.3.6-3.2 2.7-5 4.2-6.1-.7-1.1-1.9-3.1-1.9-3.1"/><path fill="#eff4f9" d="M148.1 144.3s-2.6-5-1.8-6.3c0 0-1.5 1.2-.6 3.4 0 0-.6-2.3-2.3-1.6 0 0 1 1.6 1.7 3.7 0 0-1.9-3.1-4.5-1.8 0 0 1.3.3 2.1 1.9 0 0-1.5-.2-3.1.4 0 0 1.1.7 2.3 1.5 0 0-2.7-.9-4.2-.1 0 0 .6 1.2 2 1.4 0 0-1 .5-1.7 1.5 0 0 5.5.9 7.6 1.9"/><path fill="#eff4f9" d="M174.4 79c.8 6.2 2.1 29.9-7.5 39.5 0 0 6.3 16.4 6.7 18.8.4 2.3-17.8 13-20.5 13h-7.8l1.4-7.8s2.3 2 4.7 2c0 0 7-4.6 9.3-7.3 0 0-18.8-16.1-17-20.8 3.3-8.5 3.7-23.8 3.7-23.8"/><path fill="#d4dbe7" d="M150.2 127.3s-1.1-1.6-2.9-3.8c-.9-1.1-2-2.4-3-3.9-.4-.7-.8-1.6-.7-2.5s.4-1.8.8-2.7c.6-1.9 1.1-3.7 1.5-5.5s.7-3.4.9-4.9c.5-2.9.6-4.8.6-4.8s-.4 1.9-1 4.7c-.3 1.4-.7 3.1-1.1 4.8q-.6 2.7-1.5 5.4c-.3.9-.7 1.8-.8 2.9-.1 1 .3 2 .8 2.8s1.1 1.5 1.6 2.1c.6.6 1.1 1.2 1.6 1.8 1.9 2.2 3.2 3.6 3.2 3.6M167.3 118.9s1-1.3 2.2-3.4c.3-.5.6-1.1.9-1.7s.7-1.3 1-2c.6-1.4 1.2-2.9 1.8-4.4.3-.8.5-1.5.7-2.3s.4-1.5.6-2.2.3-1.5.5-2.1c.1-.7.2-1.3.3-1.9.2-1.2.3-2.2.3-2.9.1-.7.1-1.1.1-1.1s-.1.4-.2 1.1c-.1.3-.1.8-.2 1.2-.1.5-.2 1-.3 1.6s-.3 1.2-.4 1.9c-.2.7-.3 1.4-.5 2.1s-.4 1.5-.6 2.2c-.3.7-.5 1.5-.8 2.3-.5 1.5-1.1 3-1.7 4.4s-1.2 2.7-1.7 3.7z"/><path fill="#eff4f9" d="M114.2 107.8c-12.3 11.4-20.9 19.7-20.9 19.7s19.4 11.7 23.9 13.2c2.4.8 5.6 6.8 3.4 8.3-1 .6-4.1 2.2-6.1 1.3-2.9-1.4-2.9-2.6-3.3-3.9-1.3-4.1-36.9-15.6-33.8-20 3.1-4.3 5.1-8.5 1.1-15.4-4.2-7.2-16.7-31.9 1.1-36.3s45.8 22.7 34.6 33.1"/><path fill="#d4dbe7" d="M93.7 127.4s2.2-2.1 5.5-5.2c1.7-1.6 3.6-3.4 5.7-5.3 1.1-1 2.1-2 3.2-3s2.3-2 3.4-3c1.2-1 2.3-2 3.3-3.2s1.8-2.5 2-4 0-2.9-.3-4.2c-.4-1.3-.9-2.4-1.4-3.5-1-2.1-2.1-3.6-2.9-4.7s-1.2-1.7-1.2-1.7.4.6 1.1 1.8c.3.6.8 1.3 1.2 2.1s.9 1.7 1.4 2.8c.5 1 .9 2.2 1.3 3.4.3 1.2.5 2.6.3 3.9-.2 1.4-1 2.6-1.9 3.7-1 1.1-2.1 2.1-3.2 3.1s-2.3 2-3.4 3-2.2 2.1-3.2 3c-2.1 2-4 3.8-5.6 5.5-3.2 3.3-5.3 5.5-5.3 5.5M79.1 129.4l-.3-.3c-.2-.2-.5-.5-.8-.9s-.7-1-.5-1.6.8-1.3 1.3-2 1.1-1.6 1.5-2.5c.4-1 .7-2.1.8-3.2v-1.8c-.1-.6-.2-1.2-.4-1.8-.3-1.2-.8-2.3-1.3-3.4-1.9-4.4-4.4-8.6-5.9-11.8-.8-1.6-1.4-3-1.7-4-.2-.5-.2-.9-.3-1.2v-.4.4c0 .3.1.7.2 1.2.2 1 .8 2.5 1.5 4.1s1.7 3.5 2.7 5.6c1 2 2.1 4.2 3 6.4q.75 1.65 1.2 3.3c.3 1.1.5 2.2.4 3.3s-.3 2.1-.7 3.1c-.4.9-.9 1.8-1.4 2.5s-1.1 1.4-1.3 2.2c-.1.4 0 .8.2 1.1s.3.5.5.7c.4.4.7.6.9.8z"/><path fill="#bcc4d4" d="M112.3 151.4c2.4 1.4 5.7 3.7 8.7 3.6 0 0 .8-3.4.6-6.4-3.2-.1-7-.9-9.2-1.4.2 2.1-.1 4.2-.1 4.2"/><path fill="#eff4f9" d="M111.6 145.6s.6 2.9-.9 4.6c0 0 1.5-.1 2.1-1.6 0 0-.1 1.9 1.3 2.3 0 0 .1-1.7.9-2.3 0 0 .2 2.2 1.4 2.5 0 0 0-2.4.7-3.1 0 0 1.6 1.7 1.1 3.5 0 0 1.2-1.1 1-2.2 0 0 1.5 1.1 1.2 2.2 0 0 1-1.6.3-3.2 0 0 .7 2.2 2.8 1.9 0 0-1.9-1.1-2.4-3.6"/></g></svg>