<svg xmlns="http://www.w3.org/2000/svg" xml:space="preserve" width="130.211" height="146.101" viewBox="18.994 6.249 130.211 146.101"><title>rabbit-c</title><g fill-rule="nonzero"><ellipse cx="15.061" cy="15.23" fill="#b5c5c1" rx="10.653" ry="10.635" transform="rotate(-59.53 94.419 38.569)"/><g fill="#cbd7d4"><path d="M31.73 100.089h1.624c.813 0 .813-1.262 0-1.262H31.73c-.722 0-.722 1.262 0 1.262M31.639 103.514c.542-.18 1.083-.27 1.625-.451.722-.27.451-1.442-.361-1.172l-1.625.541c-.813.09-.452 1.262.36 1.082M30.826 94.772c.723.54 1.716 1.081 2.618 1.352.813.18 1.084-.992.362-1.172-.362-.09-.723-.27-1.084-.45-.18-.09-.36-.181-.632-.361-.09-.09-.18-.09-.27-.18 0 0-.181-.18-.181-.09-.27-.18-.632-.271-.903 0-.09.18-.18.72.09.9M33.625 92.068c.542.45 1.174.991 1.806 1.442.27.18.722 0 .812-.18.18-.36 0-.631-.18-.811-.542-.361-.994-.812-1.535-1.262-.271-.18-.632-.27-.903 0-.18.18-.27.63 0 .81M36.965 89.364c.18.721.632 1.352 1.174 1.893s1.444-.36.903-.901c-.361-.36-.723-.812-.813-1.352-.27-.721-1.444-.45-1.264.36M40.576 91.167c.18.54.452 1.081.723 1.622.36.72 1.444.09 1.083-.631-.27-.45-.451-.901-.632-1.352-.18-.72-1.354-.36-1.174.36M25.861 96.304c.813.36 1.625.54 2.438.9.27.091.722-.18.722-.45.09-.36-.09-.63-.452-.72-.722-.271-1.444-.451-2.166-.722-.632-.36-1.264.631-.542.992M26.313 92.068c.541.36 1.173.811 1.715 1.262.27.18.632.27.903 0 .18-.18.27-.631 0-.902-.632-.45-1.264-.991-1.987-1.442-.27-.18-.722-.09-.812.18-.18.361-.09.722.18.902M29.201 89.004c.813.81 1.535 1.622 2.438 2.253.632.45 1.264-.631.632-1.082-.813-.54-1.445-1.352-2.167-2.072-.632-.541-1.535.27-.903.9M32.813 86.66l.541.541c.542.541 1.445-.27.903-.901-.18-.18-.361-.36-.451-.54-.632-.541-1.535.36-.993.9M26.132 101.53h1.986c.813 0 .813-1.26 0-1.26h-1.986c-.813 0-.813 1.26 0 1.26M35.882 99.728c.632 0 1.264.09 1.806.18.36.09.631-.09.722-.45.09-.27-.09-.721-.452-.721l-2.166-.27c-.723 0-.723 1.171.09 1.261M36.243 103.153c.361 0 .632-.09.993-.18.27-.09.542-.45.452-.721s-.452-.54-.723-.45c-.18.09-.451.18-.632.18-.902 0-.902 1.261-.09 1.171M36.243 95.763c.451.63.993 1.262 1.625 1.802.542.541 1.444-.36.903-.9a7.2 7.2 0 0 1-1.354-1.533.59.59 0 0 0-.813-.18c-.451.18-.632.54-.36.811M39.042 94.501c.18.27.36.541.451.811.451.721 1.444.09 1.083-.63l-.541-.812c-.361-.72-1.445-.09-.993.631"/></g><path fill="#b5c5c1" d="M106.57 85.128c-3.792-.54-7.313-2.072-10.834-3.785-7.674-3.785 5.868-28.479 13.903-28.028 8.576.45 6.23 8.381 9.208 12.797 2.438 3.605 16.43 2.974 16.43 2.974s9.119 4.056 10.383 4.957c6.048 4.146 1.715 7.75-1.264 5.858 2.889 2.794-1.354 1.983-3.16.811 0 0-5.597-3.965-7.042-3.514-4.152 1.171-19.41 9.012-27.625 7.93M69.826 127.757c-4.694-4.777 2.167-5.588 1.896-10.184-.541-8.562-16.701-15.772-15.347-26.677 1.264-10.184 18.688-12.527 25.73-12.076 9.478.63 18.326 9.643 25.909 16.132 5.507 4.776 6.59 11.986 1.174 16.853-5.056 4.596-9.84 6.579-15.077 10.634 3.792 2.073 10.472-.72 14.896-.63 1.444 0 3.882-.721 5.958-.27 2.347.45 4.153 2.252 5.417 3.514 3.34 3.154-3.16 3.335-5.417 3.605 13.361 4.146-18.687 4.146-22.75 3.154-.09.09-20.403-2.073-22.389-4.055"/><path fill="#cbd7d4" d="M110 98.917c-2.528 7.841-16.611 22.802-23.562 26.406-11.376 6.039-37.014 7.751-46.403-13.788-7.764-17.755 26.27-36.05 35.118-45.513 5.055-5.407 13.18-12.978 13.27-20.999 0-2.523 1.264-12.977 1.355-15.32.18-4.056-2.257-8.652 1.444-9.914 8.577-2.884 16.882-5.588 31.146 11.986 12.82 15.772.09 39.655-5.597 54.074z"/><path fill="#b5c5c1" d="M67.57 98.196c8.576 1.262 19.048 9.914 26.09 16.853-6.68-11.445-20.132-18.565-29.972-18.024-3.612.18-6.5.45-8.848.9 4.785-.54 9.66-.18 12.73.271"/><path fill="#cbd7d4" d="M52.403 144.16c-4.334-5.138 2.618-5.408 2.708-10.004.18-8.562-15.347-17.034-13.18-27.849 2.076-10.093 18.687-9.192 25.548-8.11 9.39 1.351 20.854 11.445 27.806 18.565 5.055 5.227 5.597 12.437-.18 16.853-5.418 4.145-12.64 3.605-18.237 7.21 3.611 2.343 10.472.09 14.896.63 1.444.18 3.972-.36 5.958.18 2.257.632 3.882 2.614 5.146 3.966 3.07 3.425-3.43 3.155-5.687 3.155 13 5.137-18.959 2.613-22.931 1.351.09 0-20.042-3.785-21.847-5.948"/><path fill="#b5c5c1" d="M95.104 148.125c1.806.36 3.16.991 4.243 2.433.452.63 1.535 0 1.084-.63-.632-.812-1.264-1.623-2.167-2.074s-1.896-.72-2.799-.9c-.812-.181-1.083.99-.36 1.17"/><path fill="#cbd7d4" d="M103.139 88.643c-3.16-2.163-5.597-5.137-7.945-8.291-5.055-6.85 18.237-22.621 25.188-18.566 7.403 4.326 1.625 10.275 2.347 15.592C123.271 81.704 136 87.472 136 87.472s6.23 7.84 6.951 9.102c3.521 6.489-1.986 7.66-3.791 4.596 1.264 3.786-2.077 1.172-3.16-.72 0 0-3.16-6.039-4.604-6.31-4.333-.72-21.486-.81-28.257-5.497"/><path fill="#b5c5c1" d="M139.792 102.612c.27-1.982-.632-4.145-2.077-5.587-.541-.541-1.444.36-.903.9 1.264 1.172 1.896 2.975 1.716 4.687-.09.812 1.173.721 1.264 0M109.278 13.3c-7.674-7.66-32.68-6.94-43.785-5.948-12.097 1.172-33.132 10.544-33.132 10.544-.09 5.948 30.063 5.047 39.542 5.047 13.993.09 30.153 1.262 43.965-2.433z"/><path fill="#c9d8d5" d="M101.333 21.772C96.007 35.29 77.32 44.122 63.597 49.079c-9.389 3.425-25.639 3.965-34.937 2.704C20.354 50.61 47.889 31.595 57.278 27.9c15.889-6.218 35.118-15.05 51.639-13.428z"/><path fill="#b5c5c1" d="M85.174 23.484c-3.34 11.536 4.423 24.694 14.805 28.118-9.028-5.767-16.882-17.664-14.805-28.118"/><path fill="#c9d8d5" d="M104.944 54.036c-14.625-5.318-29.791-29.02-12.187-41.727 16.16-11.626 36.833 5.677 40.174 20.638 0 0 1.805 12.167-5.146 17.664-9.39 7.39-11.466 7.57-22.84 3.425"/><ellipse cx="9.292" cy="8.571" fill="#3c4f45" rx="1.986" ry="2.614" transform="rotate(-32.404 90.296 -144.856)"/><g fill="#b5c5c1"><path d="M108.646 38.084a12.16 12.16 0 0 0-4.243 3.154c-.542.631.36 1.442.903.901a10.5 10.5 0 0 1 3.972-2.883c.632-.451 0-1.532-.632-1.172M108.014 42.5c-.993.901-1.986 1.893-2.708 2.974-.452.63.632 1.262 1.083.63.722-.99 1.625-1.892 2.528-2.703.541-.63-.271-1.442-.903-.901M111.806 41.87c-.632 1.351-1.264 2.703-1.806 4.145-.27.72.903 1.081 1.174.36.541-1.261 1.083-2.523 1.715-3.785.361-.811-.722-1.442-1.083-.72"/></g><path fill="#b5c5c1" d="M97 24.746c-.09-.902 1.083-1.713 1.715-2.163.813-.541 1.716-1.082 2.709-1.262.812-.09.451-1.352-.362-1.172-1.263.18-2.527.992-3.61 1.803-.813.63-1.896 1.622-1.716 2.794.18.81 1.354.81 1.264 0"/><g fill="#3c4f45"><path d="M124.625 31.235c.813 0 1.986-.09 2.618-.721.361-.36.632-.721.632-1.262 0-.36-.09-.811-.09-1.082-.09-.9-1.445-.9-1.354 0 0 .36.36.992-.09 1.262-.452.27-1.265.36-1.716.36-.903.09-.903 1.443 0 1.443"/><path d="M126.25 30.514a14.5 14.5 0 0 1 2.257 3.785c.27.81 1.625.45 1.354-.36-.542-1.623-1.535-3.065-2.618-4.417-.542-.63-1.535.36-.993.992"/><path d="M126.882 39.526c-.18-.721 1.354-5.047 2.257-5.858.993-.901 1.986 1.442 2.167 2.523 0 1.082-4.334 3.966-4.424 3.335"/></g></g></svg>