<svg xmlns="http://www.w3.org/2000/svg" xml:space="preserve" width="133.215" height="89.009" viewBox="-1.75 9.424 133.215 89.009"><title>butterfly-b</title><g fill-rule="evenodd"><path fill="#00b27b" d="m11.433 45.399 3.303 2.956a7.43 7.43 0 0 1 2.48 5.534v7.464c0 3.101 1.936 5.878 4.863 6.975l2.737 1.026a7.5 7.5 0 0 1 3.22 2.325l33.216-21.277-.474-.467C50.054 39.381 35.554 33.458 20.44 33.458h-9.154L9.738 36.55a7.41 7.41 0 0 0 1.695 8.849"/><path fill="#19242d" d="M0 41.442a7.89 7.89 0 0 0 4.307 7.016l3.937 2.019a4.17 4.17 0 0 1 1.838 5.593l-.941 1.865c-1.128 2.235-.044 4.943 2.322 5.805 2.012.733 3.151 2.843 2.651 4.908l-.605 2.502c-1.017 4.204 3.662 7.488 7.326 5.14l7.2-4.611a7.5 7.5 0 0 0-3.219-2.325l-2.737-1.026c-2.927-1.097-4.863-3.874-4.863-6.975V53.89c0-2.11-.9-4.12-2.48-5.534L11.433 45.4a7.41 7.41 0 0 1-1.695-8.85l1.548-3.092H8.058C3.608 33.457 0 37.032 0 41.442"/><path fill="#f2f253" d="m38.07 81.701 3.67-.49c4.151-.554 8.354.549 11.684 3.065l3.495 2.64v-2.57c0-2.462 2.014-4.458 4.497-4.458l-.163-29.834-33.288 21.542a7.4 7.4 0 0 1 1.644 3.724c.562 4.076 4.348 6.93 8.462 6.381"/><path fill="#19242d" d="M29.082 87.193h6.864c2.558 0 4.38 2.461 3.61 4.879L39.04 93.7a2.27 2.27 0 0 0 1.285 2.775l.066.028c1.16.493 2.5-.067 2.956-1.233.886-2.276 3.694-3.122 5.708-1.719l.713.497c3.009 2.095 7.152-.037 7.152-3.681v-3.451l-3.495-2.64A15.9 15.9 0 0 0 41.74 81.21l-3.67.49c-4.113.55-7.899-2.306-8.46-6.381a7.4 7.4 0 0 0-1.645-3.724l-2.987 1.933c-6.248 4.043-3.358 13.664 4.104 13.664M39.01 48.086c0 4.226-3.457 7.651-7.721 7.651s-7.721-3.425-7.721-7.651 3.457-7.652 7.72-7.652c4.265 0 7.722 3.426 7.722 7.652"/><path fill="none" stroke="#f2f253" stroke-width="3.5" d="M39.01 48.086c0 4.226-3.457 7.651-7.721 7.651s-7.721-3.425-7.721-7.651 3.457-7.652 7.72-7.652c4.265 0 7.722 3.426 7.722 7.652Z"/><path fill="#00b27b" d="m104.9 69.354 2.736-1.026c2.927-1.097 4.863-3.874 4.863-6.975V53.89c0-2.11.901-4.12 2.48-5.534l3.303-2.956a7.41 7.41 0 0 0 1.696-8.85l-1.549-3.091h-9.154c-15.114 0-29.614 5.923-40.338 16.477l-.474.467 33.217 21.276a7.5 7.5 0 0 1 3.22-2.324"/><path fill="#19242d" d="m116.206 71.15-.605-2.502c-.5-2.065.64-4.175 2.652-4.908 2.365-.862 3.449-3.57 2.322-5.805l-.941-1.865a4.17 4.17 0 0 1 1.837-5.593l3.937-2.02a7.89 7.89 0 0 0 4.307-7.015c0-4.41-3.607-7.984-8.057-7.984h-3.23l1.55 3.092a7.41 7.41 0 0 1-1.696 8.849l-3.302 2.956a7.43 7.43 0 0 0-2.48 5.534v7.464c0 3.101-1.937 5.878-4.864 6.975l-2.737 1.026a7.5 7.5 0 0 0-3.22 2.325l7.201 4.612c3.664 2.347 8.344-.937 7.326-5.141"/><path fill="#f2f253" d="m87.975 81.211 3.67.49c4.113.55 7.9-2.305 8.461-6.38a7.4 7.4 0 0 1 1.644-3.725L68.463 50.054 68.3 79.888c2.484 0 4.497 1.996 4.497 4.457v2.572l3.495-2.641a15.9 15.9 0 0 1 11.684-3.065"/><path fill="#19242d" d="m79.948 94.049.713-.497c2.014-1.403 4.823-.557 5.709 1.719a2.234 2.234 0 0 0 2.955 1.233l.066-.028a2.27 2.27 0 0 0 1.285-2.775l-.517-1.63c-.77-2.417 1.053-4.878 3.61-4.878h6.864c7.463 0 10.352-9.62 4.104-13.664l-2.987-1.933a7.4 7.4 0 0 0-1.644 3.724c-.562 4.076-4.348 6.93-8.461 6.381l-3.67-.49a15.9 15.9 0 0 0-11.684 3.065l-3.494 2.64v3.452c0 3.644 4.143 5.777 7.151 3.68M90.705 48.086c0 4.226 3.457 7.651 7.721 7.651s7.721-3.425 7.721-7.651-3.457-7.652-7.72-7.652c-4.265 0-7.722 3.426-7.722 7.652"/><path fill="none" stroke="#f2f253" stroke-width="3.5" d="M90.705 48.086c0 4.226 3.457 7.651 7.721 7.651s7.721-3.425 7.721-7.651-3.457-7.652-7.72-7.652c-4.265 0-7.722 3.426-7.722 7.652Z"/><path fill="none" stroke="#19242d" stroke-linecap="round" stroke-width="1.05" d="m46.637 11.174 4.201 3.012c7.813 5.6 12.758 14.311 13.532 23.837l.477 5.88M83.057 12.111l-4.201 3.012c-7.812 5.6-12.758 14.312-13.531 23.836l-.478 5.88"/><path fill="#19242d" d="M64.856 47.269a1.7 1.7 0 0 1-1.703-1.688v-7.636a1.7 1.7 0 0 1 1.703-1.688 1.7 1.7 0 0 1 1.704 1.688v7.636a1.7 1.7 0 0 1-1.704 1.688"/><path fill="#19242d" d="M69.863 51.385c0 14.452-2.242 43.577-5.007 43.577S59.85 65.837 59.85 51.385c0-4.58 2.242-8.759 5.006-8.759s5.007 4.875 5.007 8.759"/><path fill="#19242d" d="M70.535 52.027c0 5.384-2.542 9.749-5.679 9.749-3.136 0-5.678-4.365-5.678-9.75 0-5.383 2.542-9.748 5.678-9.748s5.679 4.365 5.679 9.749"/><path fill="#fcf6ed" d="M63.865 41.13a1.996 1.996 0 0 1-2.004 1.988 1.996 1.996 0 0 1-2.005-1.987c0-1.097.898-1.987 2.005-1.987s2.004.89 2.004 1.987M69.838 41.13a1.996 1.996 0 0 1-2.004 1.988 1.996 1.996 0 0 1-2.005-1.987c0-1.097.898-1.987 2.005-1.987s2.004.89 2.004 1.987"/><path fill="#19242d" d="M62.991 41.13c0 .62-.506 1.121-1.13 1.121-.625 0-1.131-.501-1.131-1.12s.506-1.12 1.13-1.12c.625 0 1.131.501 1.131 1.12M68.964 41.13c0 .62-.506 1.121-1.13 1.121-.625 0-1.131-.501-1.131-1.12s.506-1.12 1.13-1.12c.625 0 1.131.501 1.131 1.12"/><path fill="none" stroke="#19242d" stroke-linecap="round" stroke-linejoin="round" stroke-width="1.05" d="M64.856 59.28 53.482 48.01v11.445l-11.959 7.747"/><path fill="none" stroke="#19242d" stroke-linecap="round" stroke-linejoin="round" stroke-width="1.05" d="m64.856 63.545-8.431-8.355-.015 6.284-14.887 9.644M64.856 59.28l11.375-11.27v11.445l11.958 7.747"/><path fill="none" stroke="#19242d" stroke-linecap="round" stroke-linejoin="round" stroke-width="1.05" d="m64.856 63.545 8.432-8.355.015 6.284 14.886 9.644M64.856 60.283l-8.197 5.686v9.707l-3.235 3.205"/><path fill="none" stroke="#19242d" stroke-linecap="round" stroke-linejoin="round" stroke-width="1.05" d="m64.847 60.283 8.211 5.686v9.707l3.24 3.205"/></g></svg>