<svg xmlns="http://www.w3.org/2000/svg" width="118.594" height="131.919" viewBox="0 0 118.594 131.919"><g fill="none" stroke-miterlimit="10" data-paper-data="{&quot;isPaintingLayer&quot;:true}" font-family="none" font-size="none" font-weight="none" style="mix-blend-mode:normal" text-anchor="none"><path fill="#897ab8" d="m56.447 90.84 1.13 13.288-10.112-1.07-13.818-3.086-6.888-2.729-1.654-9.237v-4.85l7.475 3.591 14.507 3.423s8.166.985 8.396.922zM68.82 90.966l3.391.126 6.156-1.197 6.218-1.952 4.648-2.393 3.391-1.952 2.261-2.268.88 13.604-6.532 4.534-10.49 3.15-9.175 1.888-4.328-.378 1.067-13.036z" data-paper-data="{&quot;origPos&quot;:null}"/><path fill="#c1b4d8" d="m95.137 80.827-3.14 3.023-6.47 3.274-8.73 3.527-7.726.44H66.81l.398-13.035V70.94l-1.934-4.98-2.42-2.2-2.388-.609-2.889 2.246-1.445 2.457-.565 5.92.44 7.179.314 10.139h-2.45l-9.734-1.323-12.75-3.463-4.963-2.897-1.444-1.89-.691-13.602 1.13-21.035 1.633-12.784 4.46-12.784 3.203-6.108 2.952-4.66L43.13 6.2l1.8 1.784 3.955 1.207 7.56 1.04 6.846-1.135 5.402-1.952 1.947-1.56 5.465 5.024 5.652 7.306 4.397 9.634 2.584 8.691 1.75 9.058 1.318 9.06L93.17 65.96z" data-paper-data="{&quot;origPos&quot;:null}"/><path fill="#ef463c" d="m68.631 6.557-3.684 2.015-7.37 1.176h-6.866l-5.779-1.764-1.115-1.763V5.046l4.169-2.52s5.823-1.26 6.074-1.091c.25.167 8.04 0 8.04 0l5.275 1.847 2.93 1.764zM26.76 97.243l-3.937 1.595-2.345 3.78-.753 4.617.419 5.123 1.674 10.16.587 4.534-.838.504-1.423-1.176-3.183-3.778-3.308-6.214-5.066-8.145-4.522-10.496-2.513-10.916-1.005-9.404.838-5.207 1.256-4.786 2.847-4.283 3.769-2.35 6.448-1.546 8.877 1.965v17.885l1.089 13.352zM63.942 63.992l1.591 2.35 1.34 3.78.335 7.725-.92 10.327-1.006 11.924-1.34 15.786-2.261 12.176-1.173 1.511-1.34-7.809-1.088-11.252-.503-8.985-.754-11-.669-9.487-.67-6.886.585-4.2.838-3.106 2.115-2.351 2.324-1.344zM93.17 62.144l3.935-2.889 6.28-.04 6.198 1.754 5.526 4.991 1.843 5 .838 7.81-1.34 9.153-3.434 13.267-4.355 11.084-2.26 4.45-1.34.924v-12.26l-1.34-4.198-2.596-3.443-2.513-1.763-3.182-.924v-6.634l-.502-8.984-.754-7.39z" data-paper-data="{&quot;origPos&quot;:null}"/><path fill="#30419a" d="M118.591 77.238c.02.947-.092 1.883-.087 2.83.003.468-.065.904-.125 1.362-.139 1.074-.323 2.097-.415 3.17-.119 1.36-.619 2.679-.844 4.025-.21 1.263-.499 2.42-.828 3.66-.08.303-.117.617-.189.922-.162.692-.31 1.388-.508 2.07-.195.671-.46 1.323-.66 1.993-.106.358-.105.75-.213 1.108-.21.694-.514 1.363-.683 2.065-.308 1.28-.77 2.498-1.24 3.724-.517 1.348-.89 2.752-1.328 4.131q-.038.115-.096.22c-.335.618-.687 1.226-1 1.854-.182.366-.231.814-.464 1.135-.46.634-.66 1.324-.854 2.074-.177.689-.673 1.302-1.302 1.756-.176.128-.183.472-.304.696-.49.907-.995 1.805-1.49 2.71-.125.228-.22.476-.363.693-.09.136-.244.23-.373.34-.044.037-.13.05-.144.093-.215.652-.454 1.299-.613 1.964-.058.24.045.478-.345.466-.112-.003-.261.147-.34.261-.273.396-.573.463-.952.15-.337-.279-.376-.786-.157-1.119.167-.252.249-.57.332-.867.078-.284.088-.588.169-.871.117-.414.304-.809.403-1.226.279-1.177.555-2.358.778-3.546.091-.486.053-.997.057-1.497.009-.815.016-1.631.001-2.446a30 30 0 0 0-.095-2.206 47 47 0 0 0-.352-2.938c-.213-1.375-.493-2.734-1.159-3.983-.174-.328-.225-.72-.394-1.053-.14-.272-.353-.517-.563-.744-.693-.748-1.324-1.583-2.12-2.198-.997-.77-1.968-1.648-3.302-1.945-.101.124-.214.257-.321.394-.191.245-.4.38-.701.156-.273-.2-.464-.13-.699.133a7.8 7.8 0 0 1-2.297 1.79c-.914.466-1.75 1.087-2.667 1.54-.7.345-1.475.54-2.219.793-1.207.412-2.49.56-3.622 1.258-.6.369-1.38.445-2.08.645-.947.27-1.892.55-2.847.789-.671.169-1.36.266-2.035.416-.428.094-.844.256-1.275.335q-1.456.27-2.923.483c-.92.135-1.843.264-2.77.34-.74.062-1.49.023-2.233.066-.364.021-.724.127-1.086.196-.02.004-.036.028-.053.028-.266.003-.721-.08-.763.017-.17.39-.241.833-.293 1.262a100 100 0 0 0-.32 3.09c-.101 1.126-.172 2.256-.27 3.381-.04.456-.135.908-.177 1.364-.193 2.04-.353 4.085-.576 6.123-.078.723-.302 1.43-.458 2.145-.284 1.285-.658 2.56-.821 3.859-.161 1.275-.305 2.528-.868 3.702-.156.324-.2.707-.377 1.018-.129.225-.461.565-.582.521-.381-.138-.88-.359-1.017-.683-.316-.74-.459-1.557-.643-2.35-.13-.555-.217-1.12-.31-1.684-.24-1.45-.516-2.898-.7-4.357-.18-1.442-.25-2.897-.4-4.343q-.241-2.295-.538-4.584c-.151-1.17-.406-2.33-.5-3.503-.145-1.792-.192-3.593-.28-5.39-.005-.077-.028-.151-.04-.22-1.132-.126-2.234-.289-3.342-.363-1.01-.067-2.04.054-3.039-.077-1.399-.184-2.775-.53-4.164-.795-.509-.098-1.025-.166-1.54-.239-.685-.097-1.374-.17-2.057-.28-.567-.09-1.14-.174-1.69-.333-1.418-.41-2.82-.874-4.239-1.288-.475-.138-.994-.136-1.463-.292-1.006-.333-1.975-.79-2.991-1.08-1.49-.424-2.909-1.021-4.354-1.561-.513-.192-1.208-.015-1.79.124-.684.164-1.41.36-1.978.748-.517.35-.863.965-1.258 1.484-.762 1.006-1.13 2.211-1.485 3.382-.308 1.017-.328 2.122-.477 3.188-.214 1.526.05 3.02.26 4.524.138.986.072 1.998.152 2.995.056.692.214 1.376.308 2.066.062.464.07.935.142 1.397.082.528.203 1.05.317 1.573.33 1.513.708 3.018.981 4.54.166.916.183 1.86.244 2.794.029.449.01.9.003 1.351-.006.365-.478.777-.819.653a3.5 3.5 0 0 1-.949-.557c-.256-.203-.454-.48-.674-.727-1.26-1.41-2.605-2.755-3.753-4.253-.918-1.198-1.601-2.577-2.378-3.882-.672-1.128-1.301-2.283-2-3.394-.83-1.318-1.77-2.568-2.556-3.91-.734-1.256-1.318-2.601-1.99-3.895-.42-.805-.918-1.572-1.316-2.387-.408-.832-.741-1.701-1.1-2.556-.628-1.488-1.302-2.958-1.86-4.47-.514-1.398-.893-2.844-1.348-4.263-.293-.909-.717-1.787-.903-2.714-.344-1.719-.547-3.464-.83-5.195-.098-.604-.332-1.194-.38-1.8-.083-1.04-.06-2.092-.098-3.137a18 18 0 0 0-.112-1.414c-.229-2.023-.198-4.033.216-6.037.19-.912.22-1.857.397-2.773.175-.914.383-1.832.686-2.709.356-1.03.738-2.072 1.278-3.011.753-1.308 1.495-2.697 2.553-3.729.944-.92 1.92-1.98 3.353-2.305.46-.103.845-.5 1.298-.672.794-.302 1.621-.517 2.425-.798 1.595-.558 3.171-.541 4.813-.121 1.907.488 3.858.805 5.789 1.199.213.044.42.107.765.195.026-.81.03-1.578.08-2.343.1-1.585.227-3.167.335-4.752.052-.753.064-1.51.128-2.262.124-1.448.25-2.897.416-4.34.243-2.12.49-4.242.796-6.353.27-1.873.576-3.744.957-5.597.367-1.79.782-3.577 1.302-5.327.514-1.727 1.145-3.42 1.805-5.099.374-.952.918-1.837 1.364-2.762.19-.395.528-.738.382-1.268-.049-.174.163-.428.275-.635.43-.805.844-1.62 1.31-2.405.653-1.1 1.355-2.17 2.02-3.264.218-.36.372-.758.58-1.126.31-.553.583-1.141.976-1.63.51-.636 1.107-1.205 1.694-1.772 1.044-1.006 2.117-1.98 3.162-2.986.38-.366.71-.787 1.078-1.169.09-.092.239-.124.357-.19.756-.418 1.514-.832 2.264-1.26.721-.412 1.414-.881 2.157-1.25a49 49 0 0 1 3.14-1.401c.34-.14.736-.159 1.11-.203 1.8-.214 3.596-.532 5.401-.589 1.428-.045 2.898-.01 4.275.576.265.113.64-.064.936.01 1.051.26 2.111.508 3.126.879.925.34 1.792.837 2.688 1.256.639.299 1.3.554 1.918.887.32.17.572.468.85.712.132.117.249.256.388.365.536.421 1.124.79 1.61 1.262 1.004.98 1.94 2.028 2.933 3.02.991.99 1.978 1.993 3.036 2.909 1.26 1.09 1.97 2.523 2.712 3.956.178.343.513.602.71.94.332.573.597 1.185.92 1.766.375.677.838 1.312 1.16 2.012.431.939.751 1.928 1.144 2.884.177.432.447.827.617 1.261.424 1.077.84 2.158 1.21 3.253a147 147 0 0 1 1.434 4.49c.295.971.531 1.959.794 2.94.347 1.297.723 2.588 1.032 3.895.272 1.15.464 2.317.708 3.473.038.18.127.442.258.493.561.213.676.696.813 1.179.07.248.078.525.192.75.31.61.147 1.06-.367 1.457-.11.084-.214.268-.206.4.081 1.295.102 2.602.311 3.878.2 1.22.625 2.4.91 3.607.135.572.198 1.164.252 1.752.096 1.054.154 2.112.247 3.167.018.206.12.404.208.692.976-.554 1.856-1.122 2.797-1.56.564-.262 1.22-.34 1.841-.465.796-.161 1.602-.411 2.4-.4 1.345.021 2.709-.073 4.034.32 1.337.394 2.742.614 4.017 1.149.795.334 1.538.776 2.266 1.238.563.359 1.226.667 1.749 1.072 1.24.959 2.316 2.564 3.108 3.9.349.588.466 1.223.765 1.831.333.682.712 1.35.905 2.09.21.803.442 1.584.689 2.363.27.854.225 1.869.28 2.755.061.947.096 1.875.117 2.81M44.642 6.503c.835.45 1.426 1.265 2.475 1.42 1.31.192 2.577.706 3.889.85 2.215.245 4.451.308 6.613.443.168-.062.258-.111.353-.128.768-.133 1.532-.312 2.304-.378 1.49-.126 2.915-.484 4.306-1.023.754-.294 1.54-.504 2.297-.793.378-.144.732-.366 1.075-.585.226-.145.423-.34.617-.529.107-.104.277-.275.248-.355-.047-.134-.216-.254-.36-.322-1.066-.503-2.16-.949-3.207-1.492-1.377-.715-2.864-.935-4.364-1.137-.85-.114-1.705-.202-2.557-.305-.71-.085-1.42-.267-2.127-.246-1.319.042-2.64.16-3.951.323a9 9 0 0 0-2.17.525c-.86.335-1.627.963-2.504 1.185-1.16.294-1.985 1.044-2.906 1.68-.364.252-.44.648-.03.867M27.304 48.13a28.5 28.5 0 0 0 3.695 1.648c1.542.55 3.131.977 4.71 1.419 1.073.3 2.154.594 3.25.784 1.555.27 3.183.173 4.612 1.028.18.108.419.154.634.164 2.223.099 4.447.197 6.67.268 1.025.033 2.051-.015 3.075.015.503.015 1.003.178 1.506.181.94.007 1.88-.074 2.82-.082 1.81-.014 3.62.04 5.43-.012 2.044-.06 4.08-.176 6.121-.416 2.397-.282 4.78-.596 7.117-1.193 1.432-.365 2.827-.893 4.267-1.215 1.924-.43 3.62-1.36 5.35-2.23.264-.13.565-.216.784-.4a54 54 0 0 0 2.011-1.796c.455-.423.787-.88.431-1.564-.119-.23-.053-.55-.098-.826-.137-.821-.26-1.647-.439-2.458-.218-.988-.495-1.963-.736-2.946-.208-.852-.352-1.721-.608-2.558-.517-1.691-1.087-3.365-1.641-5.044-.411-1.245-.816-2.492-1.254-3.728-.29-.818-.625-1.62-.955-2.425-.347-.847-.691-1.695-1.073-2.525-.273-.592-.61-1.153-.913-1.73-.36-.688-.703-1.385-1.082-2.062-.241-.431-.54-.831-.806-1.249-.243-.38-.419-1.025-.728-1.094-.614-.14-.659-.593-.892-.972-.327-.53-.611-1.106-1.03-1.555A239 239 0 0 0 72.6 8.434c-.594-.6-1.277-1.114-1.937-1.682-.202.295-.335.707-.61.85-1.002.524-2.016 1.076-3.091 1.394-1.328.395-2.72.563-4.083.838-.954.192-1.904.404-2.857.599-.66.134-1.318.296-1.987.366-.479.052-.971-.043-1.457-.048-1.081-.011-2.165.047-3.24-.027-.9-.061-1.79-.28-2.687-.41-1.31-.193-2.624-.367-3.934-.556-.112-.017-.215-.098-.32-.151-.396-.2-.775-.445-1.19-.587-.453-.154-.97-.142-1.4-.335-.301-.136-.647-.354-.648-.844-.001-.26-.232-.517-.36-.775-.209.117-.45.199-.622.356-.964.87-1.93 1.742-2.86 2.65-.78.764-1.575 1.528-2.248 2.383-.547.694-.951 1.508-1.37 2.295a102 102 0 0 0-1.841 3.647c-.925 1.924-1.85 3.851-2.722 5.8a46 46 0 0 0-1.57 3.923 41 41 0 0 0-1.225 4.235c-.52 2.31-.993 4.634-1.38 6.969-.258 1.552-.335 3.135-.485 4.705-.057.597-.052 1.203-.15 1.792-.165 1.013.076 1.834.978 2.31m-1.387 48.488c-.13-.335-.29-.603-.332-.888q-.328-2.269-.608-4.542c-.213-1.693-.436-3.385-.598-5.083-.126-1.33-.159-2.67-.248-4.003-.145-2.176-.323-4.35-.447-6.525-.071-1.263-.062-2.531-.09-3.797-.008-.396-.021-.792-.028-1.19-.018-.974-.063-1.948-.044-2.92.032-1.772.114-3.542.138-5.313.002-.19-.209-.488-.387-.554-.536-.198-1.1-.314-1.658-.444-1.3-.307-2.614-.563-3.903-.912-1.327-.358-2.646-.665-4.02-.34-.803.19-1.603.406-2.397.637-.686.2-1.383.384-2.035.67-.894.392-1.598 1.07-2.37 1.659-1.255.957-2.063 2.212-2.752 3.516-.716 1.352-1.14 2.866-1.637 4.326-.647 1.906-.892 3.911-.978 5.892-.098 2.236.135 4.488.24 6.732.03.616.083 1.236.19 1.841.236 1.31.583 2.606.758 3.923a29 29 0 0 0 1.518 6.251c.46 1.248.899 2.504 1.377 3.744.632 1.635 1.243 3.28 1.955 4.882.574 1.29 1.3 2.512 1.928 3.78.25.504.403 1.056.629 1.573.11.253.313.465.425.716.359.798.642 1.607 1.241 2.306.603.703 1.018 1.563 1.468 2.394.657 1.214 1.475 2.34 2.277 3.475q.04.15.127.285c.411.62.623 1.3.983 1.947.256.834.746 1.56 1.239 2.254.634.896 1.516 1.614 2.21 2.474.394.49.845.737 1.51.824-.148-.882-.243-1.714-.431-2.524-.431-1.854-.978-3.684-1.342-5.55-.338-1.734-.538-3.5-.726-5.259-.132-1.22-.18-2.453-.197-3.68-.018-1.185-.036-2.38.104-3.552.271-2.265 1.195-4.305 2.345-6.26.34-.58.742-1.076 1.29-1.398.685-.4 1.432-.696 2.165-1.007.383-.162.792-.26 1.11-.36m5.014-9.34c-1.373-.33-2.545-1.058-3.695-1.835l-1.443-.979c.202 4.17.633 8.133 1.38 12.082 1.432 0 2.481 1.215 4.018 1.537 0-1.505.022-2.935-.006-4.365-.026-1.3-.13-2.596-.147-3.894-.005-.408.134-.827.26-1.224.194-.617.059-1.22-.367-1.321m13.462 13.258c-.103-1.23-.292-2.456-.339-3.688a84 84 0 0 1-.024-5.133c.015-.657-.166-.947-.83-1.106-2.376-.572-4.735-1.216-7.102-1.827-.129-.032-.292-.063-.4-.011-.577.27-1.096.054-1.627-.144-.483-.18-.972-.341-1.526-.534 0 1.077-.024 2.054.006 3.03.036 1.169.12 2.336.177 3.505.005.099-.024.198-.031.298-.028.337-.077.676-.071 1.012.008.51.121 1.024.074 1.526-.086.917.153 1.384.994 1.636 1.104.33 2.223.612 3.316.976 2.005.67 4.019 1.295 6.104 1.666.397.07.795.136 1.284.22 0-.563.031-.997-.005-1.426m12.29 1.06c-.146-2.268-.316-4.534-.485-6.8-.064-.864-.15-1.725-.225-2.579-.41.034-.767.109-1.117.085-1.218-.084-2.441-.146-3.647-.323-.998-.146-1.966-.5-2.963-.654-.908-.14-1.838-.148-2.76-.174-.093-.003-.274.264-.28.41-.023.678.165 1.335.27 1.991.228 1.449.119 2.952.14 4.433.003.193-.072.39-.055.582.068.809.21 1.615.228 2.424.018.802.277 1.279 1.025 1.437 1.105.234 2.211.475 3.328.63 1.11.154 2.233.21 3.352.297.77.06 1.544.087 2.314.158.443.04.806.044.812-.553.005-.455.093-.913.062-1.364m9.247-17.918c.098-1.674.187-3.348.278-5.023.008-.14-.001-.28-.001-.42.001-.473-.027-.95.012-1.42.04-.474.218-.94.21-1.409-.016-.835-.104-1.671-.203-2.503-.112-.943-.181-1.906-.433-2.815-.256-.924-.765-1.776-1.066-2.691-.43-1.308-1.126-2.349-2.428-2.903-.09-.038-.203-.087-.245-.163-.294-.546-.673-.536-1.142-.229-.143.094-.364.063-.511.152-.608.37-1.29.676-1.78 1.17-1.125 1.131-1.63 2.64-2.043 4.13-.241.87-.186 1.831-.206 2.754-.03 1.354-.182 2.707.147 4.06.179.737.233 1.512.278 2.275.06.985.035 1.976.084 2.962.051 1.02.163 2.036.22 3.055.058 1.048.087 2.099.118 3.149.015.532-.002 1.065.009 1.597.005.26.03.52.062.78.126 1.066.307 2.129.38 3.2.132 1.924.203 3.852.294 5.78.081 1.716.154 3.434.228 5.15.018.457-.039.929.053 1.37.085.412.135.735-.216.862.215 1.143.483 2.224.61 3.322.206 1.793.303 3.6.483 5.396.084.84.28 1.666.386 2.504.16 1.277.238 2.566.435 3.836.289 1.857.652 3.703.983 5.554l.178.013c.07-.234.165-.464.206-.702.053-.31.027-.633.097-.936.355-1.531.844-3.04 1.068-4.587.305-2.109.415-4.246.607-6.372.049-.544.076-1.091.14-1.635.154-1.315.32-2.629.489-3.941.174-1.359.367-2.714.53-4.072q.153-1.275.234-2.555c.023-.375-.07-.757-.062-1.135.017-.712.075-1.424.103-2.137.024-.563-.005-1.129.049-1.688.136-1.412.316-2.82.456-4.233.042-.42-.032-.851.02-1.268.214-1.744.479-3.483.68-5.229.115-.996.15-2.002.209-3.005m9.142 17.067c-.051-1.294-.144-2.587-.214-3.88-.06-1.112-.137-2.225-.154-3.338-.011-.664.078-1.327.124-2.004-.197-.028-.274-.051-.35-.046q-2.64.17-5.278.346a.55.55 0 0 0-.282.08c-.589.454-1.196.35-1.86.056-.117.307-.23.562-.31.828-.166.55-.383 1.098-.452 1.661-.119.984-.135 1.98-.21 2.97-.068.898-.24 1.796-.22 2.69.024 1.127.178 2.253.322 3.375.019.142.31.347.484.355.449.022.905-.037 1.355-.089 2.1-.241 4.197-.505 6.3-.73.54-.058.61-.424.66-.811.06-.484.104-.977.085-1.463m10.541-2.59c-.057-.681-.142-1.36-.18-2.042-.035-.626.003-1.256-.04-1.881-.048-.725-.228-1.449-.207-2.169.033-1.25.162-2.497-.354-3.775-.335.159-.613.32-.911.426-1.968.708-3.937 1.418-5.916 2.095-.468.161-.985.18-1.466.313-.145.04-.342.243-.346.378-.018.569.041 1.14.044 1.713.005.478-.02.956-.05 1.433-.023.38-.076.756-.112 1.135-.014.137-.056.287-.022.413.5 1.87.606 3.78.6 5.702-.002.387.169.522.511.458.628-.12 1.247-.28 1.877-.387.51-.088 1.045-.061 1.539-.198.724-.2 1.416-.515 2.13-.756.709-.24 1.437-.42 2.134-.683.321-.12.794-.334.841-.576.102-.508-.026-1.064-.072-1.598m.42-11.777c1.843-.699 3.35-2 5.075-2.907.955-.504 1.67-1.232 2.325-2.04.266-.329.6-.75.598-1.128-.013-1.843-.12-3.687-.215-5.528-.029-.541-.124-1.08-.195-1.618-.16-1.239-.333-2.476-.484-3.716-.138-1.132-.239-2.268-.382-3.4-.073-.578-.26-1.146-.298-1.725-.065-.996-.002-2.001-.09-2.994-.131-1.485-.35-2.962-.521-4.444-.041-.352.013-.723-.072-1.061-.206-.828-.524-1.63-.693-2.464-.176-.872-.23-1.769-.337-2.655l-.29-2.41c-.757.48-1.49.836-2.086 1.352-.67.582-1.38 1.031-2.206 1.334-.894.329-1.758.746-2.665 1.031-.92.29-1.876.473-2.819.69-1.04.24-2.087.453-3.125.698-1.388.328-2.761.732-4.161.997-1.245.235-2.514.354-3.779.474-1.065.102-2.14.097-3.205.197-2.185.204-4.367.451-6.561.142-.276-.04-.555-.098-.83-.094-1.519.02-3.037.12-4.552.076-2.491-.075-4.98-.249-7.471-.363-.991-.044-1.963-.061-2.945-.343-.772-.221-1.694.16-2.385-.535-.047-.048-.153-.035-.232-.05-1.48-.288-2.96-.579-4.441-.862-.252-.048-.516-.04-.764-.103-.512-.125-1.014-.287-1.525-.421-.61-.161-1.242-.256-1.83-.472-.85-.312-1.654-.744-2.505-1.055-.762-.277-1.571-.427-2.337-.7-.338-.119-.623-.392-.925-.607-.323-.23-.637-.472-1.04-.773-.075.339-.142.527-.154.72-.077 1.131-.139 2.264-.207 3.397-.066 1.079-.144 2.156-.2 3.236-.05 1-.067 2.002-.123 3.002-.042.746-.243 1.499.166 2.213.04.07-.008.195-.02.294-.151 1.172-.327 2.343-.446 3.52-.066.66-.06 1.33-.047 1.995.024 1.243.099 2.486.11 3.729.007.726-.109 1.454-.094 2.18.02.953.113 1.906.178 2.858.088 1.264.25 2.528.25 3.793.003 1.222.53 2.14 1.328 2.972.635.663 1.37 1.144 2.214 1.52 1.04.458 1.99 1.127 3.037 1.56 1.139.471 2.33.84 3.527 1.14 2 .5 4.023.902 6.033 1.363.935.215 1.854.504 2.793.702 1.113.233 2.237.411 3.359.598.354.059.72.04 1.071.108.782.154 1.55.443 2.335.49 1.239.075 2.487.017 3.73-.028.529-.02.774-.383.724-.89-.017-.178.004-.362.013-.542.028-.608.109-1.218.08-1.822-.076-1.54-.266-3.075-.287-4.614-.027-2.048-.085-4.085-.428-6.11-.158-.935-.199-1.898-.203-2.848-.004-.793.096-1.59.2-2.38.121-.921.254-1.845.462-2.748.134-.58.328-1.178.643-1.674 1.067-1.68 2.538-2.964 4.21-4.02.123-.077.302-.067.458-.094 1.011-.176 1.847.3 2.733.68 1.186.513 1.94 1.365 2.438 2.528.205.48.546.899.826 1.346.133.215.182.5.292.761.121.285.368.53.436.823.184.812.304 1.638.45 2.459l.004.06c.062 1.257.154 2.512.179 3.77.019.914.009 1.834-.095 2.739-.146 1.275-.435 2.532-.218 3.831.076.454.078.932.033 1.391-.096 1.007-.269 2.007-.357 3.015-.028.318.208.664.164.974-.155 1.06-.373 2.112-.581 3.165-.068.338.012.492.382.477.683-.028 1.369.001 2.049-.052 2.096-.164 4.201-.288 6.284-.57.968-.131 1.878-.653 2.84-.896 1.564-.396 3.071-.917 4.49-1.687.158-.085.337-.132.509-.186.8-.256 1.613-.474 2.398-.771m8.878 7.523c-.033-.906-.076-1.813-.119-2.72-.032-.712-.071-1.424-.104-2.137-.04-.873-.061-1.748-.122-2.619-.044-.616-.166-1.226-.203-1.842-.036-.58-.008-1.162-.008-1.815-.8.349-1.263.89-1.549 1.528-.33.738-.888 1.172-1.568 1.5-.772.374-1.555.725-2.334 1.084-.072.032-.166.083-.228.062-.73-.254-1.262.22-1.846.495-.44.209-.607.633-.366 1.053.297.519.448 1.045.42 1.655a30 30 0 0 0 .007 2.518c.027.73.124 1.456.167 2.186.08 1.307.136 2.614.217 3.92.012.203.103.401.176.674 1.34-.72 2.838-.914 3.925-1.967.1-.095.223-.178.352-.228 1.435-.56 2.252-1.775 3.105-2.948.073-.1.083-.265.078-.4m21.925-13.952c-.006-1.17-.034-2.34-.056-3.509q0-.372-.003-.743c-.002-.85.135-1.735-.054-2.543-.418-1.785-.964-3.543-1.543-5.284a2.7 2.7 0 0 0-.383-.714c-.334-.842-.84-1.614-1.396-2.38-.147-.2-.33-.362-.533-.472-.136-.156-.272-.314-.42-.456-.046-.046-.096-.078-.145-.115-.466-.525-1.056-.908-1.691-1.283-1.481-.877-2.872-1.9-4.62-2.209-.719-.127-1.428-.348-2.151-.411-1.071-.095-2.152-.065-3.226-.128-1.548-.092-2.97.358-4.353.97-.703.312-1.387.67-1.903.922-.11.596-.202 1.078-.285 1.56a1.8 1.8 0 0 0-.02.41c.106 1.659.185 3.32.334 4.976.138 1.525.355 3.044.532 4.566.05.416.078.835.132 1.251.095.728.236 1.452.3 2.183.103 1.185.156 2.376.235 3.563.113 1.724.232 3.446.345 5.17.04.608.064 1.217.099 1.825.082 1.427.162 2.855.25 4.282.052.848.1 1.698.19 2.542.02.169.195.394.352.459.435.18.941.211 1.343.439.953.537 1.893 1.11 2.778 1.752 1.023.744 1.984 1.522 2.583 2.745.76 1.553 1.263 3.186 1.791 4.81.278.856.326 1.79.442 2.693.092.733.164 1.473.18 2.21.013.524-.137 1.053-.117 1.575.024.625.202 1.244.223 1.869.039 1.127.011 2.259.011 3.585.59-1.043 1.148-1.958 1.636-2.91.525-1.023.985-2.08 1.471-3.123.41-.877.835-1.746 1.216-2.634.275-.637.488-1.301.73-1.952.351-.95.757-1.883 1.047-2.851.386-1.294.665-2.619 1.025-3.92.445-1.61.998-3.192 1.375-4.816.584-2.518 1.088-5.056 1.565-7.596.092-.486.135-.982.166-1.48.063-.127.113-.264.134-.424.06-.473.09-.903.074-1.354l.001-.035c.178-.991.345-1.972.34-3.015" data-paper-data="{&quot;origPos&quot;:null}"/><path fill="#30419a" d="M47.087 57.831c.007-.405.158-.798.694-.882.529-.084.82.215.967.688.053.17.1.347.127.523.078.526-.293 1.029-.792 1.09-.456.055-.863-.285-.945-.8-.028-.178-.03-.359-.051-.619M88.739 53.736c-.003.698-.353 1.116-.918 1.098-.53-.018-.86-.438-.864-1.097-.004-.684.349-1.134.891-1.136.543-.003.893.444.89 1.135M30.707 54.384c-.003.676-.317 1.082-.85 1.097-.562.016-.903-.401-.905-1.103-.002-.695.344-1.146.881-1.144.538 0 .878.446.874 1.15M71.811 59.212c-.499-.03-.842-.46-.803-1.008.034-.494.45-.894.901-.868.473.026.886.508.857.997-.03.511-.462.91-.955.88" data-paper-data="{&quot;origPos&quot;:null}"/><g data-paper-data="{&quot;origPos&quot;:null}"><path fill="#ef463c" d="m49.08 21.588 1.658-1.848 5.192-1.343 6.867.924 5.946 3.462 2.457 4.178L73.6 32l-.638 4.534-1.372 3.023-4.187 3.527-5.694 1.091-5.528-.42-4.103-2.435-4.796-4.87-2.155-6.97v-1.847l.926-4.17z" data-paper-data="{&quot;origPos&quot;:null}"/><g data-paper-data="{&quot;origPos&quot;:null}"><path fill="#fff" d="m67.068 26.982 1.695 5.164-.44 4.093s-4.207 2.078-4.395 1.952c-.189-.125-6.156 0-6.156 0l-5.778-4.03-1.193-5.542 1.444-3.274 3.706-2.079 7.034 1.386z" data-paper-data="{&quot;origPos&quot;:null}"/><g fill="#30419a" data-paper-data="{&quot;origPos&quot;:null}"><path d="M62.762 45.26c-.957 0-1.916.034-2.871-.013-.642-.032-1.274-.2-1.916-.269-.523-.056-1.066.014-1.574-.096-.481-.104-.96-.25-1.18-.865-.092-.251-.635-.33-.963-.508-1.635-.883-3.179-1.903-4.512-3.208-1.006-.984-2.003-1.983-2.935-3.036-.368-.416-.574-.987-.809-1.508-.366-.814-.748-1.629-1.025-2.475-.376-1.148-.815-2.31-.934-3.495-.097-.972.037-2.004.376-2.985.474-1.369 1.105-2.64 1.96-3.802.846-1.15 1.73-2.264 2.874-3.137.5-.38.983-.803 1.534-1.089 1.612-.834 3.298-1.409 5.14-1.55 1.195-.093 2.384-.152 3.562.004 1.4.184 2.711.72 4.049 1.17 1.266.425 2.368 1.12 3.434 1.846.973.663 1.773 1.58 2.644 2.391.336.314.724.599.97.975.453.697.85 1.437 1.216 2.185.588 1.202 1.1 2.441 1.702 3.634.668 1.323.889 2.748.916 4.185.034 1.813-.6 3.457-1.485 5.037-.931 1.666-2.251 2.976-3.679 4.156-1.164.963-2.588 1.53-4.076 1.882-.556.131-1.098.32-1.651.468-.248.067-.506.097-.76.142zm-17.01-16.215.18.036c-.104 1.868.462 3.57 1.186 5.262.889 2.076 2.511 3.542 4.043 5.068 1.247 1.238 2.749 2.17 4.272 3.07 1.02.603 2.04.962 3.208.946 1.306-.018 2.612-.018 3.917-.036.644-.008 1.336.107 1.92-.09 1.162-.391 2.4-.777 3.358-1.498 1.432-1.08 2.664-2.43 3.945-3.703.235-.234.31-.637.436-.971.099-.26.119-.557.25-.796a5.05 5.05 0 0 0 .613-2.928c-.122-1.413-.265-2.819-.977-4.092-.376-.67-.797-1.327-1.078-2.037-.66-1.664-1.803-2.947-3.084-4.128-1.543-1.423-3.277-2.543-5.299-3.156-1.043-.316-2.101-.762-3.165-.8-1.6-.057-3.213.174-4.818.314-1.907.168-3.476 1.108-4.877 2.326-.663.577-1.223 1.282-1.779 1.971-.574.711-1.243 1.408-1.584 2.231-.388.935-.459 2.002-.668 3.011" data-paper-data="{&quot;origPos&quot;:null}"/><path d="M63.715 39.574c-.935.129-1.868.323-2.807.364-.66.029-1.375-.032-1.984-.265-1.35-.517-2.662-1.145-3.968-1.772-1.378-.661-2.54-1.676-3.274-2.97-.68-1.202-1.326-2.468-1.548-3.908-.2-1.3-.284-2.502.31-3.755.418-.881.608-1.892 1.436-2.494.743-.543 1.573-.967 2.365-1.442.034-.02.08-.02.113-.04.945-.573 1.979-.495 3.024-.463 1.16.034 2.322-.046 3.483-.045.197 0 .391.165.59.242 1.135.44 2.267.888 3.407 1.31.733.271 1.265.765 1.82 1.307a9 9 0 0 1 2.142 3.267c.462 1.206 1.05 2.43.921 3.797-.084.901-.057 1.833-.289 2.694-.301 1.116-1.197 1.886-2.075 2.562-.744.574-1.616.987-2.45 1.434-.36.193-.77.293-1.156.435zm4.154-5.798c-.07-2.211-.65-3.805-1.516-5.31-.212-.37-.353-.82-.653-1.09-.492-.444-1.064-.81-1.642-1.14-1.937-1.107-4.146-1.312-6.25-1.876-1.407-.377-2.658.081-3.883.597-.483.204-.898.691-1.213 1.142-.405.579-.68 1.252-1.006 1.886-.108.208-.311.43-.294.63.068.758.22 1.507.318 2.263.16 1.25.94 2.201 1.59 3.19.454.691 1.058 1.354 1.744 1.801 1.215.794 2.401 1.71 3.956 1.81.809.051 1.622.316 2.415.253 1.185-.094 2.422-.133 3.454-.894.526-.389 1.083-.732 1.593-1.138.823-.655 1.392-1.466 1.387-2.124" data-paper-data="{&quot;origPos&quot;:null}"/></g></g></g></g></svg>