<svg xmlns="http://www.w3.org/2000/svg" width="800" height="800" viewBox="0 -31.13 159.345 159.345"><defs><clipPath id="a"><circle cx="48.548" cy="48.548" r="48.548" fill="none" data-name="Ellipse 39" transform="translate(566.856 220.497)"/></clipPath><clipPath id="b"><path fill="none" d="M605.846 292.497h20.987a3.185 3.185 0 0 1 3.185 3.185v.326a13.68 13.68 0 0 1-13.678 13.679 13.68 13.68 0 0 1-13.679-13.679v-.326a3.185 3.185 0 0 1 3.185-3.185" data-name="Rectangle 9"/></clipPath></defs><g data-name="Group 46" transform="translate(-535.731 -220.497)"><circle cx="48.548" cy="48.548" r="48.548" fill="#fac731" data-name="Ellipse 38" transform="translate(566.856 220.497)"/><g data-name="Group 45"><g clip-path="url(#a)" data-name="Group 44"><path fill="#312449" d="M564.616 294.154s69.518 7.222 102.923 0-3.588 16.552-3.588 16.552-42.49-3.01-97.095 8.727-2.24-25.279-2.24-25.279" data-name="Path 39" opacity=".2" style="mix-blend-mode:darken;isolation:isolate"/><path fill="#f0f5f9" d="M565.73 234.629s68.7 11.786 102.435 10.019-4.7 11.153-4.7 11.153-42.084-6.228-97.227-3.387-.508-17.785-.508-17.785" data-name="Path 40" opacity=".4"/></g></g><path d="M615.4 317.592a48.547 48.547 0 0 0 32.55-84.565 48.08 48.08 0 0 1 12.53 32.55c-.131 26.882-25.572 51.676-52.08 51.514" data-name="Path 41" opacity=".1" style="mix-blend-mode:darken;isolation:isolate"/><path fill="#f0f5f9" d="M663.7 272.951c4.228 1.151 6.63 2.47 6.63 3.872 0 4.486-24.592 8.123-54.928 8.123s-54.928-3.637-54.928-8.123c0-1.39 2.36-2.7 6.52-3.842l-.14-5.5c-18.928 2.154-31.125 5.538-31.125 9.343 0 6.507 35.671 11.782 79.673 11.782s79.672-5.275 79.672-11.782c0-3.8-12.2-7.189-31.125-9.343" data-name="Path 42"/></g><g data-name="Group 49"><path fill="#3a2a57" d="M70.115 72h20.987a3.185 3.185 0 0 1 3.185 3.185v.326A13.68 13.68 0 0 1 80.609 89.19 13.68 13.68 0 0 1 66.93 75.511v-.326A3.185 3.185 0 0 1 70.115 72" data-name="Rectangle 8"/><path d="M626.834 292.5h-2.3a3.185 3.185 0 0 1 3.184 3.185v.326a13.677 13.677 0 0 1-12.526 13.627c.38.031.764.051 1.152.051a13.68 13.68 0 0 0 13.678-13.678v-.326a3.184 3.184 0 0 0-3.188-3.185" data-name="Path 43" opacity=".2" style="mix-blend-mode:darken;isolation:isolate" transform="translate(-535.731 -220.497)"/><g data-name="Group 48"><g clip-path="url(#b)" data-name="Group 47" transform="translate(-535.731 -220.497)"><ellipse cx="8.911" cy="6.986" fill="#fd1a16" data-name="Ellipse 40" rx="8.911" ry="6.986" transform="translate(607.429 302.701)"/></g></g></g><path fill="none" stroke="#312449" stroke-linecap="round" stroke-miterlimit="10" stroke-width="1.806" d="M60.098 54.15s1.066-1.486 3.881-1.486c3.034 0 3.881 1.486 3.881 1.486" data-name="Path 44"/><path fill="none" stroke="#312449" stroke-linecap="round" stroke-miterlimit="10" stroke-width="1.806" d="M93.358 54.441s1.066-1.485 3.881-1.485c3.034 0 3.881 1.485 3.881 1.485" data-name="Path 45"/></svg>