<svg xmlns="http://www.w3.org/2000/svg" xml:space="preserve" width="109.775" height="76.6" viewBox="8.2 6.8 109.775 76.6"><title>fish-c</title><g fill-rule="nonzero"><path fill="#f7e37c" d="M109.4 49.6c3-4.2 5.7-4.7 6.7-5.8.9-1.2.4-1.4-.4-2.9-1.3-2.4-4-3.8-6.3-5-3.3-1.8-6.4-4.3-9.8-5.8-2.2-1-7.8-2.5-7.8-2.5s-3-3.4-4.3-4.8c-2.8-3.2-5.6-6.4-9.3-8.6-2.7-1.6-9.8-5.5-12.8-3.8 9 6.5 18.8 17.8 18.8 17.8L74.3 27s-2.5-3.2-3.3-4.3c-1.4-1.7-2.8-3.2-4.5-4.6-3.6-2.9-8.4-6.1-12.7-8-2.4-1-6.1-2.5-8.7-2.6-2.7-.1-5.9-.4-8.5 1.2 0 0 12.1 5.9 14.8 7.7 6.6 4.2 10.4 7.4 12.7 13.3 0 0-7.8 3.2-10 6.6 0 0-9 2-16.6.5-5.3-1.1-10.8-2.9-16.1-4.1C20 32.2 8.7 32 8.7 32s4.4.9 5.8 1.7c4.3 2.5 9.3 4.9 14.1 5.5 2.3.3 21.6 4.1 14.4 9.3-3.9 2.8-9 4.1-13.1 6.5-3.3 1.9-8.4 4-10.4 7.4 9.2-.3 16.7-5.5 25.1-8.8 2.9-1.1 5.8-2.3 8.8-3.1 1.3-.4 2.7 2.2 5.5 4.9s7.8 5.5 7.8 5.5c.7 5.3-1.2 12.1-2.8 17.1-.4 1.4-1.6 3.1-1 4.5 4-3.5 7.3-7.8 9.2-12.8.6-1.6 2.4-8.3 2.4-8.3s2.1.1 3.8.3c3.7.4 7.9-.4 12-1.4-1.8 4.9-2.4 10.2-5.7 14.8-1.4 2-3.3 3.7-4.8 5.5 4.9-4.3 10.4-7.2 13.8-13.2 1.3-2.3 2.8-5.7 2.9-8.8 1.1-.3 2.2-.5 3.2-.8 12.9-2.7 18.5-11.9 17.7-12.7s-6.6 3.7-8 4.5"/><path fill="#f7e37c" d="M67.6 26.3C64 17.9 52.1 9.7 50.7 9.1c-2.5-1.1-5-1.8-7.8-1.8 0 0-4.6 1.2-4.5 1.3.2.1 7.2 4.5 9.1 5.5-1-.1-2-.2-3.1-.2.3.3.6.6.8.9l4.2.3c.8.5 1.5.9 2 1.1.1 0 .1.1.2.1-1.7 0-3.3 0-5-.2-.1 0-.2 0-.2.1.2.3.4.6.7.9 2 .2 4 .2 5.9.2 1 .7 2 1.3 2.8 2q-3.45.45-6.9.3c.2.3.5.6.7.9 2.4.1 4.8-.1 7.2-.5.6.5 1.1.9 1.6 1.4-2.4.4-4.8.6-7.2 1 .2.2.3.5.5.8 2.5-.4 5-.6 7.5-1l.9.9c-.7.3-1.4.6-1.8.8-1.7.8-3.5 1.4-5.2 1.9.1.3.2.5.4.8q2.85-.9 5.7-2.1c.4-.2 1-.4 1.7-.7.5.6.9 1.2 1.3 1.8-2.5 1.3-5 2.6-7.6 3.5.1.3.2.5.3.8 2.7-.9 5.2-2.3 7.8-3.6.3.5.5.9.8 1.4-1.2.8-2.4 1.5-3.6 2.2-1.4.7-2.9 1.2-4.4 1.5.1.2.2.5.2.7 2.9-.8 5.5-2.1 8.1-3.7.2.4.3.8.5 1.2 0 0-4.3 1.8-7.5 4.1-.2.1 11.1-1.5 12.3-3.1.1-.1.1-.2.1-.2 0-.6-.8-2.4-1.6-4.1M69.6 49.5c3.6 8.4.9 18.8.4 20.1-1 2.5-7.7 13.3-7.7 13.3 0-.2 1.7-8.3 2.3-10.3-.6.8-1.3 1.6-1.9 2.4 0-.4-.1-.8-.1-1.2l2.7-3.3c.3-.9.4-1.7.5-2.2v-.2c-1.1 1.2-2.2 2.4-3.3 3.7-.1.1-.1.1-.2.1-.1-.4-.1-.7-.2-1.1 1.2-1.5 2.6-3 4-4.4.2-1.2.4-2.3.5-3.4-1.8 1.4-3.5 3-5 4.8-.1-.4-.1-.8-.2-1.2 1.6-1.8 3.4-3.4 5.3-4.8.1-.7.1-1.4.1-2.1-2 1.4-3.8 3.1-5.7 4.6-.1-.3-.1-.6-.2-.9 2-1.6 3.9-3.2 5.9-4.7v-1.3c-.7.3-1.4.6-1.8.8-1.8.7-3.4 1.5-5 2.5-.1-.3-.2-.5-.3-.8 1.7-1 3.5-1.9 5.5-2.6.4-.2 1-.4 1.7-.7-.1-.7-.2-1.5-.4-2.2-2.7.9-5.3 1.8-7.8 3.1-.1-.3-.2-.5-.4-.8 2.6-1.3 5.3-2.2 8-3.1-.1-.5-.3-1-.5-1.6-1.4.3-2.7.6-4.1 1.1-1.5.5-2.9 1.3-4.2 2.1l-.3-.6c2.6-1.6 5.3-2.5 8.3-3.3-.2-.4-.3-.8-.5-1.2 0 0-4.3 1.9-8.1 2.6-.2.1 8.8-7 10.7-6.8.1 0 .2 0 .3.1.3-.1 1.1 1.7 1.7 3.5"/><path fill="#3e3d44" d="M91.6 33.5c-.1-2 .3-4.7-.5-6.6 0-.1-.1-.2-.1-.3-1-1.1-2.6-2.9-3.4-3.9-2.8-3.2-5.6-6.4-9.3-8.6-2.7-1.6-9.8-5.5-12.8-3.8 5.9.1 17.4 11.3 20.7 17.8.7 1.4.5.9.5 1.2 0 1.2.1 2.4.1 3.7.2 5.9.7 11.6 2.2 17.3.7 2.6 1.5 5.2 2.3 7.8.2.7.6 1.5.7 2.3.1.7 0 .8-.2 1.7-.9 4.4-3.2 8.1-6.4 11.8-.3.4-.5.9-.8 1.3-1.4 2-3.3 3.7-4.8 5.5 4.9-4.3 10.4-7.2 13.8-13.2 1.3-2.3 2.8-5.7 2.9-8.8.1 0 .2 0 .2-.1-.6-2-1.3-4-1.9-6-2-6.4-2.9-12.5-3.2-19.1"/><path fill="#fff" d="M46.4 45.6h.3c1.6 0 1.6-2.5 0-2.5h-.3c-1.6 0-1.6 2.5 0 2.5M52.5 46.1c1.6 0 1.6-2.5 0-2.5-1.6.1-1.6 2.5 0 2.5"/><path fill="#3e3d44" d="M69.2 46.4c-.1-3.8.1-7.6 1-11.3.3-1.4 1-2.8 1.2-4.2.3-1.7-1-3.6-1.7-5.1-1-1.9-2.1-3.7-3.4-5.4-2.3-3-5-5.4-8-7.5-3.4-2.4-7.2-4.2-11.1-5.2-.7-.2-1.5-.3-2.1-.3-2.6-.1-5.7-.4-8.2 1 11.9 1 24.7 12 29.6 21.9-3 8.1-2.5 17.6-.9 25.9.3 1.6.7 3.1 1.1 4.7h.1v.4c0 .1 0 .2.1.2 0 .2.1.3.1.4 0 0-.1.1-.1.2.3 5.1-1.5 11.3-2.9 15.9-.4 1.4-1.6 3.1-1 4.5 1.7-1.5 3.2-3.1 4.6-4.8 1.8-4.4 3-9.1 4-13.8.5-2.5.1-3.7-.5-6.1-1.1-3.8-1.7-7.6-1.9-11.4"/><path fill="#f7e37c" d="M54 44.9c0-5-21.7-7.1-21.7-7.1l-7.5-1.3-8-1.4c1.4.7 3.8 2 3.6 2 .7.3 1.4.7 2 1 .5 0 .9.1 1.4.1 1.6.5 3.2.9 4.8 1.1.1 0-2.3.3-3.4.3.4.3.9.5 1.3.8 1.1 0 2.2-.1 3.3-.2.6-.1 1.3-.2 1.9-.3 1.4.3 3 .7 4.6 1.2-2.7.4-5.5.5-8.3.4l1.2.9c2.4 0 4.8-.1 7.2-.4.6-.1 1.2-.2 1.7-.3 1.2.4 2.4.9 3.4 1.4-3.5.4-7.1.7-10.6 1 .2.3.5.6.7.8 3.8-.3 7.5-.7 11.3-1.1.8.6 1.4 1.2 1.6 1.8-4.1.8-8.2 1-12.3.2.2.3.3.6.4 1 4 .7 8 .5 12-.3q-.15.9-1.2 1.8c-3.5.6-7 1-10.6 1.2l-.3.9c3.1-.2 6.1-.5 9.2-1-1.8 1.1-3.9 2-5.9 2.8-1.6.3-3.3.4-4.9.5l-.9.9c1 0 2-.1 3-.2l-3 1.5c-.7.4-1.4.8-2.2 1.2-.4 0-.7.1-1 .2l-1.2 1.2c-.8.9-1.4 1.8-1.8 2.9-.1.3-.2.6-.3 1C27.5 61.5 54 50 54 44.9"/><path fill="#3e3d44" d="M53.3 50.6c.3-.1.7 0 1 .2-4.8-3.4-10.1-1.7-15.1.6-6.6 3.1-11.8 6.8-18.1 9.1-.7.6-1.2 1.3-1.7 2 3.9-.1 7.5-1.1 11-2.5 2.7-1.2 5.4-2.5 8.1-3.8.5-.3 1.3-.5 2.2-.8 1.3-.6 2.6-1.1 3.9-1.6 2.8-1.2 5.7-2.4 8.7-3.2M48.9 39.6c2.6-.2 4.3-1.2 5.1-3.4-2.3.4-10.1 1.6-16.5.4-5.3-1.1-10.8-2.9-16.1-4.1C20 32.2 8.7 32 8.7 32c10.4 1 18.7 6.1 29.1 7.4 3.5.4 7.5.5 11.1.2"/><g fill="#fff"><path d="M73.3 36.1c1.6 0 1.6-2.5 0-2.5s-1.6 2.5 0 2.5M77.2 33.1c1.6 0 1.6-2.5 0-2.5s-1.6 2.5 0 2.5M78.9 38c1.6 0 1.6-2.5 0-2.5-1.6.1-1.6 2.5 0 2.5M76.9 47.5c1.6 0 1.6-2.5 0-2.5-1.6.1-1.6 2.5 0 2.5M73.9 42.3c1.6 0 1.6-2.5 0-2.5-1.6.1-1.6 2.5 0 2.5M73.3 52.8c1.6 0 1.6-2.5 0-2.5s-1.6 2.5 0 2.5M79.2 56.7c1.6 0 1.6-2.5 0-2.5-1.6.1-1.6 2.5 0 2.5M83.6 48.8c1.6 0 1.6-2.5 0-2.5-1.6.1-1.6 2.5 0 2.5M83.6 43.1c1.6 0 1.6-2.5 0-2.5s-1.6 2.5 0 2.5M85.2 56.7c1.6 0 1.6-2.5 0-2.5-1.6.1-1.6 2.5 0 2.5M100 52.8c1.6 0 1.6-2.5 0-2.5s-1.6 2.5 0 2.5M57.5 44.6c1.6 0 1.6-2.5 0-2.5-1.5 0-1.5 2.5 0 2.5M62.1 55.9c1.6 0 1.6-2.5 0-2.5s-1.6 2.5 0 2.5M64.2 62.7c1.6 0 1.6-2.5 0-2.5-1.6.1-1.6 2.5 0 2.5M64.2 66.8c1.6 0 1.6-2.5 0-2.5s-1.6 2.5 0 2.5M57.5 39.3c1.6 0 1.6-2.5 0-2.5-1.5 0-1.5 2.5 0 2.5M59.8 51.1c1.6 0 1.6-2.5 0-2.5-1.5.1-1.5 2.5 0 2.5M62.8 36.1c1.6 0 1.6-2.5 0-2.5s-1.6 2.5 0 2.5M60.1 28.4c1.6 0 1.6-2.5 0-2.5-1.6.1-1.6 2.5 0 2.5M56.6 22.6c1.6 0 1.6-2.5 0-2.5s-1.6 2.5 0 2.5M62.1 44.3c1.6 0 1.6-2.5 0-2.5s-1.6 2.5 0 2.5"/></g><path fill="#030000" d="M96.1 36c1.7-1.8 4.6-1.6 6.7-.6.6.3 1.1-.6.5-.9-2.5-1.2-5.8-1.4-7.9.8-.4.4.3 1.1.7.7"/><path fill="#fff" d="M96.5 43.4c-1.1-4.5 3.3-6.7 6.2-5.7 3.8 1.2 3.2 5.9.4 7.7-3.4 2.2-6.3-.9-6.6-2"/><path fill="#3f669e" d="M103.5 38.1c-2.6-.8-4.3 1-4.1 3.4.3-.1.7-.1 1 0 1.1.4 1 1.7.2 2.3.9.7 2.1 1.2 3.4.2 1.7-1.3 1.8-5.2-.5-5.9"/><path fill="#030000" d="M101.7 41.8c-.5-2.3 1.5-3.5 2.7-3 1.7.6 1.4 3.1.2 4-1.5 1.2-2.8-.4-2.9-1"/><path fill="#030000" d="M105.5 39.5c-1-2.5-4.1-3.1-6.4-2.2-2.6 1-3.6 3.5-3.1 6.1.7 2.2 3.5 3.6 5.7 3 2.9-.6 5-4.1 3.8-6.9m-4.1 6.1c-1.6.4-3.9-.6-4.5-2.3-.4-2 .3-3.9 2.2-4.8 1.7-.8 4.2-.7 5.3 1.1 1.3 2.2-.6 5.4-3 6"/></g></svg>