<svg xmlns="http://www.w3.org/2000/svg" width="51.464" height="76.809" viewBox="0.44 0.241 51.464 76.809"><g stroke="#000" stroke-linecap="round" stroke-width="1.033"><g fill="none"><path d="m31.593 72.66.155 3.874M29.527 71.73l.155 4.132M27.203 70.18v4.03M25.137 69.458l-.104 3.615M22.812 68.115l.155 3.512M20.746 66.565v3.77M18.835 65.842v3.1M16.873 64.293v3.615M15.22 63.776v3.72"/></g><path fill="#c9f" d="m27.203 15.226-13.326-4.39.413 51.907L33.504 73.59l-.259-17.045z"/><path fill="#7f00ff" d="M24.403 20.157C17.494 16.52 11.337 10.898 3.485 9.052 1.5 8.586.223 13.117 1.419 14.734c1.767 2.37 5.733 1.29 8.264 2.582 2.91 1.588 5.098 4.133 7.85 5.94 3.869 2.545 7.47 5.724 11.88 7.23 3.337 1.299 7.11 1.583 10.754.962 2.56-.435 7.046-3 6.806-3.802-.242-.83-5.477.59-8.005-.259-4.963-1.665-9.658-4.762-14.565-7.23Z"/><path fill="#c9f" d="M29.618 17.594c-5.965-1.415-11.058-5.669-17.045-6.972-1.5-.327-.309 2.314.259 3.099 2.05 2.627 4.685 4.82 7.23 6.662 3.752 2.715 7.47 5.725 11.88 7.231 3.337 1.299 7.204 1.519 10.754.962 2.884-.455 5.875-2.04 7.84-4.267.952-1.084 1.4-4.147-.259-4.649-6.608-1.968-13.936-.44-20.66-2.066Z"/><path fill="#7f00ff" d="M34.24 16.22c-6.202-.968-11.077-6.07-16.785-8.006C13.33 6.816 8.799 5.56 4.542 6.148 2.89 6.376.176 9.463 1.702 10.28c4.689 2.46 11.202.951 16.27 2.582 4.384 1.437 8.29 4.251 12.395 6.198 4.102 1.947 7.931 5.91 12.396 5.682 3.3-.17 6.264-3.646 7.489-6.457.513-2.232-1.253-5.14-3.357-5.423-4.462-.601-8.433 4.036-12.654 3.357Z"/><path fill="#666" d="M40.218 6.704c-.226-.225 2.201.631 1.446.207-3.285-1.706-6.5-3.751-9.968-4.7-.867-.238.587 1.418.62 2.169.022.512-.341 1.015-.62 1.498-.497 1.086-2.408 2.173-1.705 3.202 1.638 2.39 4.747 3.243 7.316 4.714.983.563 2.026 1.297 3.195 1.174 1.098-.11 1.3-1.64 2.092-2.22 1.372-.42 3.982.357 4.132-.62.178-1.194-2.225-2.477-3.512-3.513-.937-.758-2.35-1.282-2.996-1.91Z"/><path fill="#c9f" d="M26.557 7.995c-4.983-1.85-8.935-6.822-14.23-7.23-2.644-.197-6.62 3.715-5.68 5.164 1.247 1.926 7.112.449 10.329 1.808 4.219 1.781 7.563 5.53 11.88 7.231 2.973 1.228 5.728 1.916 8.676 1.808 3.218-.134 6.972-.277 9.297-2.48 1.32-1.252.123-4.176-1.188-5.526-1.615-1.663-4.154-2.509-6.456-2.48-1.854.025-3.149 2.267-5.01 2.48-2.517.38-5.186.128-7.618-.775Z"/></g></svg>