<svg xmlns="http://www.w3.org/2000/svg" xml:space="preserve" width="29.64" height="16.179" viewBox="0.68 0.411 29.64 16.179"><title>bowtie [fashion]</title><g fill-rule="evenodd"><path fill="#14e148" d="M19.673 7.213v3.716q.027.175 0 .352c.596.619 4.77 4.784 8.847 4.784A18.8 18.8 0 0 0 29.808 8.5a23.6 23.6 0 0 0-.513-5.04 54.4 54.4 0 0 0-9.622 3.753"/><path fill="#acff74" d="M19.673 7.213a54.4 54.4 0 0 1 9.539-3.752 12.4 12.4 0 0 0-.787-2.55c-4.066 0-8.251 4.165-8.847 4.784q.027.177 0 .352z"/><path fill="none" stroke="#149948" stroke-width=".96" d="M28.46.91c-4.387 0-8.93 4.858-8.93 4.858v5.464s4.543 4.857 8.93 4.857A18.8 18.8 0 0 0 29.808 8.5 18.8 18.8 0 0 0 28.46.91Z"/><g fill="none" stroke="#00b82b" stroke-linecap="round" stroke-linejoin="round" stroke-width=".768"><path d="M24.693 12.993a20.3 20.3 0 0 1-3.339-2.247M26.97 14.037s-.381-.133-.978-.376"/></g><path fill="#acff74" d="M11.327 6.071a1.2 1.2 0 0 1 0-.352C10.73 5.1 6.557.935 2.48.935a13 13 0 0 0-.775 2.429A38.7 38.7 0 0 1 11.244 7.2z"/><path fill="#14e148" d="M11.327 7.2c-3-1.699-6.208-2.989-9.538-3.836A24.2 24.2 0 0 0 1.192 8.5a18.8 18.8 0 0 0 1.3 7.59c4.066 0 8.25-4.166 8.847-4.785a1.2 1.2 0 0 1 0-.352z"/><path fill="none" stroke="#149948" stroke-width=".96" d="M2.54.91c4.387 0 8.93 4.858 8.93 4.858v5.464S6.927 16.09 2.54 16.09A18.8 18.8 0 0 1 1.192 8.5 18.8 18.8 0 0 1 2.54.91Z"/><g fill="none" stroke="#00b82b" stroke-linecap="round" stroke-linejoin="round" stroke-width=".768"><path d="M8.465 11.67q.48-.358.918-.766M3.923 14.037a18.6 18.6 0 0 0 3.457-1.64"/></g><path fill="#14e148" d="M19.53 11.232V7.286h-8.06v3.946l-.084.073c.148.435.55.728 1.002.729h6.224c.452-.001.854-.294 1.002-.729z"/><path fill="#acff74" d="M11.47 5.768v1.518h8.06V5.768l.083-.073a1.06 1.06 0 0 0-1.001-.729h-6.224c-.452.001-.854.294-1.001.729z"/><rect width="8.358" height="7.067" x=".327" y=".966" fill="none" stroke="#149948" stroke-width=".96" rx=".924" transform="translate(11 4)"/></g></svg>