<svg xmlns="http://www.w3.org/2000/svg" xml:space="preserve" width="162.178" height="183.116" viewBox="-1 -0.016 162.178 183.116"><title>Slice 1</title><g fill-rule="evenodd"><path fill="#964197" d="M4.5 8.2c-.3 0-.8 0-1.2.1s-.8.3-1.1.4c.8 4.7 1.7 9.8 2.4 13.5C5.8 29.6 7 37.1 8.4 44.5h1c.5-.1.8-.3 1.2-.5C8.8 33.2 6.7 19.8 4.5 8.2"/><path fill="#fff" d="M2.2 8.7c.3-.1.7-.3 1.1-.4.5-.1.9-.1 1.2-.1q-.6-3.3-1.2-6.3c-.3 0-.6-.1-.9 0-.5 0-1 .1-1.4.4.4 1.8.8 4.1 1.2 6.4"/><path fill="#20221d" fill-rule="nonzero" d="M.1 2.1c-.1.1-.1.3-.1.4C2.6 15.4 5.3 32 7.8 44.8c.2.6 1.4.5 1.8.4.6-.1 1.7-.4 1.8-1.1V44c-1.1-7.6-2.3-15.1-3.6-22.6C6.8 16 5.3 7 4.2 1.6c0-.3-.2-.4-.5-.4C3.3.9 2.6 1 2.3 1c-.8.1-1.7.5-2.2 1.1m3.2-.2c.4 2 .8 4.2 1.2 6.4C6.7 19.8 8.7 33.2 10.6 44c-.4.2-.7.4-1.2.5-.3.1-.7.1-1 0C7 37.1 5.8 29.6 4.6 22.2 3.9 18.6 3 13.4 2.2 8.7 1.8 6.4 1.4 4.1 1 2.3c.4-.3.9-.4 1.4-.5.3 0 .6 0 .9.1"/><path fill="#985b05" d="M14.2 42.4c-.3-2.4 2.6-5.2-.1-6.9-1.4-.8-2.6-1-3.6-2.5-1.8-.7-3.2 0-2.3 2 .5.7 1.2 1.4 1.9 1.9.5.4.9 1.1.6 1-.7.5-1 1.8-1 2.7 0 .5-1.6.8-1.5.4.1-.3-.3-.7-.5-.9-.4-.4-.8-1.3-1.2-1.9.3-.1.6-.2.9-.4 1.3-.9-.3-2.1-2.1-3 0-.5-.1-1 0-1 .8.1 2.5.2 1.7-1.3-.4-.8-1.3-2-2.1-2.4s-2.4-.6-3.4-.3c-1.4.4.1 3.6 0 3.6-1.4 1.4-.4 2.8.9 3.6-.9 2.5.2 3.7.7 4.3.2.2.2 2.4 1.7 3.8 1 1.2 2.7 1.5 4.2 1.9 1.2.3 2.8.8 4 1.7.6-1.3 1.6-2.3 2.6-3.3-.9-.7-1.3-1.7-1.4-3"/><path fill="#231f20" fill-rule="nonzero" d="M16 44.6c0-.1-.1-.1-.1-.2-1.9-2.1-.3-4 .4-6.3.3-.9-.1-2.1-.8-2.6-1.3-1-3.7-1.3-4.5-2.7-.3-.6-.6-1.1-1.3-1.3s-1.3.3-1.6.9C7.7 31.1 6 30 4.9 29.5c-1.3-.5-3.1-.9-4.2.2-.9.9-.3 2.2.4 3.1-2 1.1-.8 3.8.7 4.8-.7 1-.3 2.5.5 3.4.1.2.3.3.4.4-.2 1.8.9 3.7 2.3 4.7 1.8 1.2 4.5 1.3 6.5 2.5.8.1 1.5.4 2.2.8.9-1.4 2-2.8 3.2-3.8-.3-.2-.6-.6-.9-1m-11.2.2c-.7-.8-1-1.7-1.4-2.6 1.1.7 2.4 1 3.7.7.8-.2 1.8-.7 2-1.5.2.7.7 1.4 1.3 1.9.2.2.5.1.7 0 0 0 .4-.4.3-.7-.1-.6-.6-.6-1-.9s-.7-.8-.7-1.3c0-.9.3-1.7 1-2.2.3.2.5.4.8.5.1.3.3.6.7.4.1 0 .1 0 .2-.1.4-.2.6-.6.3-1-.4-.5-1.3-.7-1.9-1.1q-1.05-.75-1.8-1.8c-.8-2-.4-2.6 1.3-2 .9 1.3 2.1 1.6 3.4 2.4 2.7 1.6-.1 4.3.1 6.6.1 1.3.5 2.1 1.3 3-1 .8-1.9 1.8-2.6 2.9-1.1-.8-2.7-1.3-3.8-1.6-1.3-.2-2.9-.5-3.9-1.6M1.7 30.1c.9-.3 2 .1 2.8.5s1.7 1 2.2 1.8c.7 1.4-2 1.2-2.1 1.3l-2.4-.9c-.5-.5-1.8-2.3-.5-2.7M9.1 39c-.1.4-.2.7-.2 1.1v.1-.1c-.2-.4-.7-.9-1.2-1.3.9-.5 1.1-1.6.7-2.5l.3.3c.4.4.9.7 1.4 1-.5.5-.8 1-1 1.4m-7.5-5.4c0-.1 3.2 1.4 3.3 1.4 1.6.9 3.1 2 2.2 2.7-1 .9-3.1 0-4.1-.4-1.4-.7-2.9-2.3-1.4-3.7m1.1 4.7c1 .5 2.1.9 3.2.9.4.4 1.1.6 1.5 1 .2.2.6.6.5.9-.2.5-1.2.6-1.6.6-1.2.1-2.4-.3-3.2-1.2-.5-.6-.8-1.5-.4-2.2m5.1-2.7-.3-.3c-.2-.1-.4-.3-.6-.4.2-.1.4-.2.6-.4.1.5.2.8.3 1.1"/><path fill="#985b05" d="M141.5 108.6c-1.1 0-2.1-.4-2.9-1.3-1.7-1.9-2.7-3.7-2.1-6.5.3-1.2.4-1.9.5-2.3l-3.4-.9 2.3-6.3.6.5s2.1 1.5 3.7 1.5h.3c.7-.1 1.9-.5 3.3-1 2.4-.9 5.5-1.9 7.6-2h.7c2.4 0 4.6.8 5.4 1.8.3.4.3.8.2 1.2-.1.3-.3.9-4.4 1.5 2.5.5 5 1.4 5.5 3 .7 1 .8 2.1.4 2.8-.2.4-.7 1-2 1-1.2 0-2.6-.8-4-1.6-1-.6-2-1.2-2.7-1.2-.5-.1-1.2-.1-1.9-.2 1.1.6 2.2 1.3 2.9 2 .3.3 3 3.1 2.9 4.8 0 .4-.2.8-.5 1s-.6.3-1 .3c-1.5 0-3.7-1.5-5.7-3-1.2-.9-3.5-1.9-4.6-1.9-.2 0-.4 0-.4.1-.3 1.1.5 2 .9 2.2.1 0 1.7 1.1 1.8 2.2 0 .4-.1.7-.4 1-.5.8-1.7 1.3-3 1.3"/><path fill-rule="nonzero" d="M152.2 90.9c3 0 5.4 1.3 5.1 2.2-.3 1-9.1 1.7-9.1 1.7s9.4.4 10.3 3.3c1 1.4.8 3-1 3s-4.9-2.6-6.6-2.8c-1.6-.2-4.7-.3-4.7-.3s3.8 1.8 5.1 3.1 3.5 4.1 2.4 5c-.2.1-.4.2-.6.2-1.4 0-3.9-1.8-5.4-2.9-1.3-.9-3.6-2-5-2-.5 0-.9.2-1 .5-.4 1.4.5 2.5 1.2 2.9s2.1 1.6 1.3 2.3c-.4.4-1.5.9-2.7.9-.8 0-1.7-.3-2.4-1.1-1.7-1.9-2.5-3.5-1.9-5.9.5-2.4.5-2.9.5-2.9l-3.3-.9 1.8-4.9s2.2 1.6 4.1 1.6h.4c1.9-.3 7.5-2.9 10.8-3.1.3.1.5.1.7.1m0-1.2h-.7c-2.2.1-5.3 1.2-7.8 2.1-1.3.5-2.6.9-3.2 1h-.2c-1.2 0-2.9-1-3.4-1.4l-1.3-.9-.6 1.5-1.8 4.9-.4 1.2 1.3.3 2.2.6c-.1.4-.2 1-.4 1.7-.7 3.2.6 5.3 2.2 7 .9.9 2 1.5 3.3 1.5 1.5 0 2.9-.7 3.5-1.3q.6-.6.6-1.5c-.1-1.4-1.9-2.5-2.1-2.7-.2-.1-.7-.6-.7-1.2 1 .1 3 .9 4.2 1.8 2.2 1.6 4.4 3.1 6.1 3.1.5 0 1-.2 1.4-.5.4-.4.7-.9.7-1.5.1-2-2.5-4.8-3-5.3-.1-.1-.3-.3-.5-.4.5.2 1 .5 1.5.8 1.5.8 3 1.7 4.2 1.7h.1c1.6 0 2.2-.9 2.5-1.4.5-.9.3-2.2-.4-3.4-.5-1.2-1.8-2.1-3.4-2.6 2-.5 2.1-1 2.3-1.4.2-.6.1-1.2-.3-1.7-.9-1.2-3.3-2-5.9-2"/><path fill="#fff" d="M55.8 178.2c-.9 0-1.8 0-2.7-.1-4.4-.4-7.3-1.4-7.5-1.5l-.9-.3.7-.7c.6-.6 1.7-1.4 3.5-2.3.9-.5 1.9-1 3.1-1.5.5-.2 1-.5 1.5-.7 1-.5 2.2-.9 3.4-1.4.6-.2 1.1-.4 1.6-.6 1.3-.5 2.4-1 3.1-1.2l.3-.1 1.2-5.5.1-.1c.1-.1.1-.2.2-.2l.1-.1c1.4-2.1 2.8-3.1 4-3.1 2.5 0 3.3 3.9 3.4 4.3v.2l-.1.2-.3.6c-.3.6-.6 1.3-.8 2-.3.9-.4 2-.6 3.2-.1.6-.1 1.2-.1 1.8-.1 2 .1 3.5.1 3.6v.4l-.4.2c-.4.2-.9.4-1.4.7-.7.3-1.4.6-2.1.8q-2.4.75-4.8 1.2c-.7.1-1.5.2-2.2.2z"/><path fill-rule="nonzero" d="M67.4 159.3c2.1 0 2.8 3.8 2.8 3.8-.1.2-.3.4-.4.6-.3.6-.6 1.4-.8 2.1q-.45 1.65-.6 3.3c-.1.6-.1 1.3-.1 1.8-.1 2.1.1 3.6.1 3.6-.5.2-.9.4-1.4.6-.7.3-1.3.5-2 .8-1.6.5-3.2.9-4.7 1.1-.7.1-1.5.2-2.2.2-.8.1-1.6.1-2.3.1-.9 0-1.8 0-2.7-.1-4.3-.4-7.3-1.4-7.3-1.4.6-.6 1.8-1.4 3.3-2.1.9-.5 2-1 3.1-1.5.5-.2 1-.5 1.5-.7 1.1-.5 2.3-1 3.4-1.4.6-.2 1.1-.4 1.6-.6 1.3-.5 2.4-.9 3.1-1.2.4-.2.6-.2.6-.2l.3-1.6.5-2.5.3-1.6c.1-.1.1-.2.2-.3 1.6-2 2.8-2.8 3.7-2.8m0-1.2c-1.5 0-2.9 1.1-4.5 3.3l-.1.1c-.1.1-.1.2-.2.2l-.1.2v.2l-.3 1.6-.5 2.5-.2 1c-1 .4-2.1.8-3.1 1.2-.5.2-1 .4-1.6.6-1.2.5-2.4 1-3.4 1.4-.5.2-1 .5-1.5.7-1.2.5-2.2 1-3.1 1.5-1.8.9-2.9 1.7-3.6 2.4l-1.3 1.3 1.8.6c.1 0 3.2 1.2 7.6 1.5.9.1 1.8.1 2.8.1.8 0 1.6 0 2.4-.1s1.5-.1 2.2-.2c1.7-.3 3.3-.6 4.9-1.2.7-.2 1.4-.5 2.1-.8.6-.2 1-.5 1.5-.7l.7-.4-.1-.8s-.1-1.5-.1-3.5c0-.6.1-1.2.1-1.8.1-1.2.3-2.2.5-3.1.2-.7.4-1.4.7-1.9.1-.2.2-.4.3-.5l.3-.4-.1-.5c-.2-.2-1.1-4.5-4.1-4.5"/><g fill="#ed1d43"><path d="m63.3 164.1 5.7 1.8c.2-.8.5-1.5.8-2.1l-6-1.7c-.1.1-.1.2-.2.3zM62.4 168.2s-.2.1-.6.2l6.6 2.6c0-.6.1-1.2.1-1.8l-5.7-2.7zM57.1 170.3l7.9 5.8c.7-.2 1.3-.5 2-.8l-8.3-5.7c-.5.3-1 .5-1.6.7M45.8 176s2.9 1.1 7.3 1.4l-4-3.6c-1.4.9-2.6 1.6-3.3 2.2M52.2 172.4l5.9 5.1c.7-.1 1.4-.1 2.2-.2l-6.6-5.5z"/></g><path fill="#fff" stroke="#000" stroke-linecap="round" stroke-linejoin="round" stroke-width="2" d="m61.2 167.6-3.3 1.2s3 2 .5 3.6c-2.4 1.6-5.2-2.8-5.2-2.8s-8.6 3.8-9.8 6.8c0 0 19.3 7.1 28.7-3l-1.8-2.5c.2.1-6.1 3-9.1-3.3"/><path fill="#fff" d="M128.5 181.4h-.7c-1.7 0-3.4-.2-5.1-.5-.7-.1-1.5-.3-2.2-.5-1.6-.4-3.2-1-4.7-1.6-.7-.3-1.3-.6-2-1-.5-.3-1-.6-1.4-.8l-.3-.2.1-.4s.3-1.5.4-3.5c0-.6.1-1.2.1-1.8 0-1.2-.1-2.3-.2-3.3q-.15-1.2-.6-2.1l-.3-.6-.1-.2.1-.2c.1-.4 1.3-4 3.6-4 1.3 0 2.6 1.1 3.9 3.5l.2.5.6 5.6c.1 0 .2.1.3.2.6.3 1.7.8 2.9 1.5.5.3 1 .5 1.5.8 1.2.6 2.2 1.2 3.2 1.8.5.3 1 .6 1.5.8 1.1.6 2.1 1.3 2.9 1.8 1.6 1.1 2.7 1.9 3.2 2.6l.6.7-.9.2c.1 0-2.6.7-6.6.7"/><path fill-rule="nonzero" d="M115.3 161.2c.9 0 2.1.8 3.4 3.2.1.1.1.2.2.3l.2 1.7.3 2.5.2 1.7.6.3c.6.3 1.7.8 2.9 1.5.5.3 1 .5 1.5.8 1 .5 2.1 1.1 3.2 1.8.5.3 1 .6 1.4.8 1 .6 2 1.2 2.9 1.8 1.4.9 2.5 1.8 3.1 2.5 0 0-2.7.7-6.7.7h-.7c-1.5 0-3.2-.2-5-.5-.7-.1-1.4-.3-2.1-.5-1.5-.4-3-.9-4.6-1.6-.6-.3-1.3-.6-1.9-1-.4-.2-.9-.5-1.3-.8 0 0 .3-1.5.5-3.6 0-.6.1-1.2.1-1.8 0-1.1 0-2.3-.2-3.4-.1-.8-.3-1.5-.6-2.2-.1-.2-.2-.5-.3-.7-.1.1 1-3.5 2.9-3.5m0-1.2c-2.8 0-4.1 3.9-4.2 4.4l-.1.5.2.4c.1.2.2.3.2.6.2.6.4 1.2.5 2 .2.9.2 2 .2 3.2 0 .6 0 1.2-.1 1.8-.1 2-.4 3.4-.4 3.5l-.2.8.7.4c.4.3.8.5 1.4.8.7.4 1.3.7 2 1 1.5.7 3.1 1.3 4.8 1.7.7.2 1.5.3 2.2.5 1.7.3 3.4.5 5.2.5h.8c4.1 0 6.9-.7 7-.7l1.8-.5-1.2-1.5q-.9-1.05-3.3-2.7c-.8-.6-1.8-1.2-2.9-1.8-.5-.3-1-.6-1.5-.8-1-.6-2.1-1.2-3.2-1.8-.5-.3-1-.6-1.5-.8-1.2-.6-2.3-1.2-2.9-1.5l-.1-1-.3-2.5-.2-1.7v-.2l-.1-.2c0-.1-.1-.2-.1-.2l-.1-.1c-1.6-2.8-3-4.1-4.6-4.1"/><g fill="#ed1d43"><path d="m119.1 166.4-5.9 1.2c-.1-.8-.3-1.5-.6-2.2l6.1-1c.1.1.1.2.2.3zM119.5 170.6l.6.3-6.8 2c0-.6.1-1.2.1-1.8l5.9-2.1zM124.6 173.2l-8.5 5c-.6-.3-1.3-.6-1.9-1l8.9-4.8c.4.3 1 .5 1.5.8M135.2 180.1s-3 .8-7.4.7l4.3-3.2c1.4 1 2.6 1.8 3.1 2.5M129.2 175.8l-6.4 4.5c-.7-.1-1.4-.3-2.1-.5l7.1-4.8c.5.3 1 .6 1.4.8"/></g><path fill="#fff" stroke="#000" stroke-linecap="round" stroke-linejoin="round" stroke-width="2" d="m120.7 170.2 3.1 1.5s-3.2 1.7-.9 3.5 5.4-2.2 5.4-2.2 8.2 4.7 9.1 7.8c0 0-19.9 5.1-28.3-5.9l2-2.3c.1-.1 6.1 3.4 9.6-2.4"/><path fill="#964197" d="M112.9 174.3c-8.8 0-16.4-1.8-22.7-5.3-10.4-5.9-21-6.8-26.4-6.8-2.4 0-3.9.2-3.9.2h-.1c-.2 0-.4-.1-.6-.2-.2-.2-.3-.4-.3-.7 0 0 .2-3.4.1-8s-.4-11.2-1.5-16.9c-.8-4-1.9-7-3.2-8.9-2.8-4-3.3-12.6-3.1-19.1.1-3.7.4-7.7.8-11.6.6-5.1 1.7-11.3 2.9-14.3-1.2 0-2.9-.2-5.1-.4h-.2c-1.7-.2-3.4-.4-5.1-.7-3.5-.6-7-1.4-10.4-2.4-3.6-1.1-7.1-2.3-10.3-3.8-3.8-1.7-7.4-3.8-10.7-6-1.9-1.3-3.7-2.7-5.3-4.2-.2-.2-.3-.5-.3-.8.1-.6 1.6-15.6 9.8-20.8.1-.1.3-.1.5-.1s.5.1.7.3c0 0 1.8 2 5 4.8 1.8 1.6 3.6 3.1 5.5 4.5 5 3.8 10.1 7 15.2 9.4 1.5.7 2.8 1.3 4.2 1.9.7.2 7.4 1.7 13 2.3.3 0 .6.1.9.1h.1c.5 0 1.1.1 1.6.1h2.6c.4 0 .8.3.9.6 0 0 1.2 4.2 2.9 8.6.6 1.6 1.2 3 1.8 4.3 1.1 2.3 2 3.9 2.9 5 .3-.3.6-.7 1-1.2s.7-.9 1.1-1.4c2.2-3 4.7-7.6 4.1-11.9 0-.3.1-.6.3-.8.2-.1.4-.2.6-.2h.3s2.7.8 6.8 2.1c1.6.5 3.3 1.1 5.2 1.7l1.2.4c1.2.4 2.4.8 3.7 1.2l1.2.4c1.3.4 2.6.9 4 1.3 0 0 1.7.6 2.5.8 2.6.9 5 1.7 7.2 2.5 1.3.5 2.6.9 3.8 1.4 4.7 1.8 8.7 3.3 11.9 4.7 3.3 1.5 5.6 2.7 7.1 3.7.3.2.5.7.3 1.1l-8.2 19.6c-.1.3-.3.5-.6.5h-.2c-.2 0-.4-.1-.6-.2 0 0-2.1-1.6-5.1-4-3.7-2.8-9.2-6.8-14.6-10.2-1-.7-2-1.3-3-1.9-4.1-2.4-7.3-4-9.6-4.6-.7 2-2.6 8.3-1.6 18.4.1.5.1 1.1.2 1.6.7 5.4 2.2 11.2 4.4 17.1 1.2 3.2 2.7 6.6 4.3 9.9 1.1 2.2 2.2 4.4 3.5 6.5 1.8 3.1 3.8 6.3 5.9 9.5 2.3 3.5 4.9 7 7.7 10.6 1.9 2.5 4 5 6 7.4.2.2.3.6.2.9q-.15.45-.6.6c-.3.2-5.4 1.4-12.6 1.4"/><path fill-rule="nonzero" d="M17.7 44.3s1.8 2 5.1 4.8c1.6 1.4 3.4 2.9 5.6 4.6 4.2 3.2 9.5 6.7 15.4 9.5 1.4.7 2.9 1.3 4.3 1.9 0 0 7.1 1.7 13.2 2.4.3 0 .7.1 1 .1.5 0 1.1.1 1.6.1h2.6s1.2 4.1 3 8.6c.6 1.5 1.2 2.9 1.8 4.4 1.2 2.5 2.5 4.8 3.7 6 0 0 .7-.7 1.7-1.9.4-.4.7-.9 1.1-1.4 2.3-3.1 5-7.9 4.2-12.6 0 0 2.7.8 6.8 2.1 1.6.5 3.3 1 5.2 1.7.4.1.8.3 1.2.4 1.2.4 2.4.8 3.7 1.2.4.1.8.3 1.2.4 1.3.4 2.6.9 4 1.3.8.3 1.6.6 2.5.8 2.4.8 4.8 1.7 7.2 2.5 1.3.5 2.5.9 3.8 1.4 4.4 1.6 8.5 3.2 11.8 4.7 3 1.3 5.4 2.6 6.9 3.6l-8.2 19.6s-2-1.6-5.2-4c-3.8-2.9-9.3-6.9-14.7-10.3-1-.6-2-1.3-3-1.9-4.1-2.4-7.9-4.3-10.6-4.9 0 0-3.3 6.8-1.9 19.6.1.5.1 1.1.2 1.7.7 4.9 2 10.7 4.5 17.3 1.2 3.2 2.6 6.5 4.4 10 1.1 2.1 2.2 4.3 3.5 6.6 1.7 3.1 3.7 6.2 5.9 9.5 2.3 3.4 4.9 7 7.7 10.6 1.9 2.4 3.9 4.9 6.1 7.4 0 0-5.2 1.2-12.3 1.2-6.6 0-14.9-1.1-22.3-5.2-10.5-6-21.2-6.9-26.8-6.9-2.5 0-4 .2-4 .2s.2-3.4.1-8.1c-.1-5-.5-11.4-1.6-17-.7-3.7-1.8-7.1-3.3-9.3-2.4-3.4-3.1-10.8-3-18.6.1-3.9.4-7.8.8-11.5.9-7.7 2.3-14 3.6-15.3-.3 0-2.7 0-6.5-.4h-.3c-1.5-.2-3.2-.4-5-.7-3.1-.5-6.6-1.3-10.3-2.4-3.3-1-6.7-2.2-10.2-3.7-3.6-1.6-7.1-3.6-10.6-6-1.8-1.2-3.6-2.6-5.3-4.1.3.1 1.8-15 9.7-20m0-1.8c-.3 0-.7.1-1 .3C8.1 48.2 6.6 63.6 6.5 64.2s.2 1.1.6 1.5q2.55 2.25 5.4 4.2c3.3 2.3 7 4.4 10.9 6.1 3.3 1.5 6.8 2.8 10.4 3.8q5.1 1.5 10.5 2.4c1.7.3 3.4.5 5.1.7h.3c1.6.2 2.9.3 4 .3-1.4 4.2-2.3 11-2.6 13.4-.5 3.9-.7 8-.8 11.7-.1 6.6.3 15.4 3.3 19.7 1.3 1.8 2.3 4.7 3.1 8.6 1.1 5.6 1.4 12.2 1.5 16.7.1 4.6-.1 7.9-.1 7.9 0 .5.2 1 .6 1.4.3.3.8.5 1.2.5h.2s1.4-.2 3.8-.2c5.3 0 15.7.9 25.9 6.6 6.4 3.6 14.2 5.5 23.1 5.5 7.2 0 12.5-1.2 12.7-1.3.6-.1 1.1-.6 1.3-1.2s.1-1.3-.3-1.7c-2.1-2.4-4.1-4.9-6-7.3-2.8-3.5-5.3-7.1-7.7-10.5-2.1-3.2-4.1-6.3-5.9-9.4-1.2-2.2-2.4-4.3-3.5-6.5-1.7-3.4-3.1-6.7-4.3-9.9-2.2-5.8-3.6-11.5-4.4-16.9-.1-.6-.1-1.1-.2-1.6-.9-8.8.4-14.7 1.2-17.2 2.1.7 5 2.1 8.5 4.3l3 1.8c5.4 3.4 10.9 7.4 14.6 10.2 3.1 2.3 5.1 3.9 5.1 3.9.3.3.7.4 1.1.4.1 0 .3 0 .4-.1.5-.1 1-.5 1.2-1.1l8.2-19.6c.3-.8.1-1.7-.6-2.2-1.5-1.1-3.9-2.3-7.2-3.8-3.2-1.4-7.2-3-11.9-4.8-1.2-.5-2.5-.9-3.8-1.4-2.2-.8-4.7-1.7-7.2-2.5-.8-.3-1.6-.6-2.5-.8-1.4-.5-2.7-.9-4-1.3l-1.2-.4c-1.3-.4-2.5-.8-3.7-1.2l-1.2-.4c-1.9-.6-3.7-1.2-5.3-1.7-4.1-1.3-6.8-2.1-6.9-2.1-.2-.1-.3-.1-.5-.1-.4 0-.9.2-1.2.4-.5.4-.7 1-.6 1.6.6 4-1.8 8.3-3.9 11.2-.3.5-.7.9-1.1 1.4l-.3.3c-.6-.9-1.3-2.1-2.2-4-.6-1.2-1.2-2.7-1.8-4.2-1.7-4.4-2.9-8.4-2.9-8.5-.2-.8-.9-1.3-1.7-1.3h-2.5c-.5 0-1-.1-1.5-.1h-.1c-.3 0-.6 0-.8-.1-5.5-.6-11.9-2.1-12.9-2.3-1.3-.5-2.7-1.1-4.1-1.8-5.1-2.4-10.1-5.6-15.1-9.3-1.9-1.4-3.7-2.9-5.5-4.5-2.9-2.4-4.7-4.3-4.7-4.3-.3-.4-.8-.6-1.3-.6"/><path fill="#f6ec50" d="m30 57.9-2.3 11 11.1-5.7 5.8 5.7-.8-5.7c-5.9-2.8-11.2-6.3-15.4-9.5l-4.7 1.4zM56 90.3l10 .5-9.3-7.5L58 78l-.9-.5-7.2 3.7c4.1.4 6.6.4 6.6.4-1.2 1.3-2.7 7.7-3.6 15.3l1.5 1.1zM114.1 94.8l8.6 5.2-2.6-7 7.7-4.6-8.9-1.4-1.2-4.6c-1.2-.5-2.5-.9-3.8-1.4l-3.2 3.9-8.3 1.1 7.2 4.7-4.2 3.5c1 .6 2 1.2 3 1.9zM89.3 99.5l-7.7 8.6-7.8-2.1 5.5 8.1-5.5 7.5 10-3.9 8.7 5-3.2-8.6 3.8-3.3c-.1-.6-.1-1.1-.2-1.7h-4.2zM72.8 131.8l-10.1-10.2 6.6-10.5-11 3.9-6.3-6.4c-.2 7.8.6 15.2 3 18.6 1.5 2.2 2.6 5.5 3.3 9.3l2.6-7.3zM73.9 144l10.9 4.9-1.8 10.9 5.1 2.1 4.9-3 7.7 6.7 7.3 1-5-10.6 8.4-1.8c-2.2-3.3-4.2-6.5-5.9-9.5l-2.5-.5-1-6.1c-1.7-3.5-3.2-6.9-4.4-10l-5.2 11.5zM24.2 74.5c3.5 1.6 6.9 2.8 10.2 3.7l.8-7.1zM44.9 76l-.3 4.5c1.8.3 3.5.5 5 .7z"/><path fill="#dba0c7" d="M119.1 164.8c-3 .1-7.4.1-12.1-.3-3.2-.3-6.5-.8-9.5-1.6-2.5-.7-4.8-1.5-6.7-2.7-.1-.1-.2-.1-.4-.2-2-1.2-4.4-2.2-7.1-3.1-8.4-2.6-18.9-3.3-23.5-3.5.1 4.7-.1 8.1-.1 8.1s15.6-1.9 30.8 6.7 34.5 4 34.5 4c-1.9-2.5-4-5-5.9-7.4M136.5 90.9c-1.5-1.1-3.9-2.3-6.9-3.6-.8 3.7-2.9 12.8-6.4 19.3 3.1 2.3 5.2 4 5.2 4zM17.7 44.3c-7.9 5-9.4 20.1-9.4 20.1 1.7 1.5 3.5 2.9 5.3 4.1 1.7-8.6 6.8-16.2 9.2-19.4-3.3-2.8-5.1-4.8-5.1-4.8M88.9 72.8c-4.2-1.3-6.8-2.1-6.8-2.1 1.2 7.8-7.1 15.9-7.1 15.9-4.1-3.9-8.5-18.9-8.5-18.9-1.5.1-3.3 0-5.2-.2 1.7 5.5 6.4 20 12.4 26.4 0 0 12.5-7.9 15.2-21.1"/><path fill="#5f2e00" d="M106.4 77.4c2-.9.2-3.5.5-5.8.1-.9 1.1-1.6 1.7-2.2.7-.6 1.7-1.9.4-2.2-.2-.1-.4-.2-.7-.3-1.9-1-2-4.7-2.2-6.5-.3-2.2-.3-4.6-2.6-5.8-1.4-.8-2.3-1.6-3.3-2.8-1.1-1.3-2-2.9-3.2-4.1-1.5-1.5-3.2-1.2-5.1-1.7-3-.9-3.5-3.4-5.7-5.3-3.2-2.6-8-3.7-11.9-2.7-3.9.9-8 3.5-9.9 7.1-2.1 3.9-.8 7.4-1.2 11.5-.2 1.8-.7 3.4-1 5.1-.4 2.2.2 3.6 1.4 5.4l.3.6c.9 0 1.8.1 2.6 0 0 0 1.2 4.1 3 8.6 1.3 1 2.3 2.2 3.1 3.7 1.2 2.4 2.9 3.5 5.3 3.3 2.3-3.1 5-7.9 4.2-12.6 0 0 2.7.8 6.8 2.1 1.6.5 14 4.7 15.4 5.1"/><path d="M106.2 77.4c.4-.8.3-1.9-.5-3.2-.4-.6-.9-1.2-1.3-1.8-1.2-1.9.7-2.7 1.8-3.5.9-.6.2-1.9-.4-2.5-.8-.7-1.7-1.3-2.5-2-1.8-1.6-.4-4.8-.6-6.8-.1-1.1-1.2-2-2.2-2.3-1.2-.4-2.9-.6-3.4-2-.4-1.1-.5-2.2-.9-3.3-.6-1.6-1.8-2.3-3.4-2.5-.8-.1-.8 1.1 0 1.2 2.8.4 2.5 3.4 3.3 5.4.3.9 1.2 1.3 2 1.7.5.2 1 .3 1.5.5 2.3.7 2 2.5 1.7 4.4-.2 1.3-.3 2.9.6 4 .4.4.7.8 1.1 1.2 1.4 1 2.9 1.8 1.1 2.8-.8.4-1.3 1.2-1.5 2.1-.6 2.7 4.7 5.2 1.5 7h.3c.9-.1 1.4-.2 1.8-.4"/><path d="M100.1 71c-.7-1.3 1.5-2.1 1-3.3-.9-2.4-4.6-2.3-3.9-5.5.4-1.9.4-2.7-1.5-3.6-.7-.3-1.3.7-.6 1 1.6.8.6 3.8 1 5.3.2.9 1.1 1.3 1.8 1.6 2.6 1 .9 2.5.8 4.3 0 .6.8 1.9.9 2.1.5 1.3.1 2.3-.6 3.1.4.1.8.3 1.2.4.4-.6.7-1.4.8-2.3.2-1-.4-2.2-.9-3.1M95.8 72.9c.4-1.3.5-2.5-.2-3.7-.8-1.3-2.7-1.6-2.8-3.3 0-.8-1.2-.8-1.2 0 0 1.7 1.3 2.4 2.5 3.4 1.6 1.3.4 3.5.1 5.2.4.1.8.3 1.2.4 0-.7.2-1.3.4-2"/><path d="M63.6 67.1c-1.2-1.8-1.8-3.2-1.4-5.4.3-1.7.8-3.4 1-5.1.4-4.1-.9-7.7 1.2-11.5 1.9-3.6 6-6.2 9.9-7.1s8.7.1 11.8 2.7c2.2 1.9 2.7 4.4 5.7 5.3 1.9.5 3.5.2 5.1 1.7 1.2 1.2 2.1 2.8 3.2 4.1 1 1.3 1.9 2.1 3.3 2.8 2.2 1.2 2.3 3.5 2.6 5.8.2 1.8.3 5.5 2.2 6.5.2.1.4.2.7.3 1.3.3.3 1.6-.4 2.2-.6.6-1.6 1.3-1.7 2.2-.4 2.3 1.5 4.8-.5 5.8-.4.2-.9.3-1.6.4h-.3c.8.3 1.6.6 2.5.8 1.2-.4 1.8-1.3 1.8-2.8 0-1.8-1.4-3.5.3-5.1.6-.6 1.6-1.2 1.9-2.1.2-.5.4-1.1 0-1.6-.2-.3-.3-.5-.6-.6-2-.7-2.4-2.4-2.8-4.2-.5-2.5-.2-5.9-2.2-7.8-1.1-1.1-2.6-1.5-3.7-2.7-1.3-1.5-2.4-3.3-3.8-4.8-.8-1-1.9-1.4-3.1-1.7-2.8-.7-4.2-.6-6-3.1-1.9-2.7-4.1-4.3-7.4-5-6.5-1.5-12.6.8-16.8 5.9-1.8 2.1-2.6 4.8-2.6 7.5 0 2.1.3 4.1.2 6.2-.1 2.3-1 4.5-1.2 6.8-.1 1.6.8 2.8 1.5 4.2.5 0 1.1.1 1.6.1-.2-.3-.3-.5-.4-.7"/><path fill="#985b05" d="M74.9 87.2c-.1-.1-2.8-3-4.3-5.5s-2.7-6.5-2.8-6.7v-.1l.2-1.2c-.1-.5-.2-1-.3-1.3h-.3c-2.1 0-2.5-1.2-3-4.1-.2-1.1 0-2 .5-2.6s1.2-.9 2.2-.9h.1c-3.3-8.1-3.8-14.4-1.6-18.8q2.55-5.1 9.9-6.9c1-.3 2.1-.4 3.1-.4 6.3 0 9.6 5 10.2 6l.1.2c8.9 14.8 6.5 22.4 4.3 25.6-.6 1-1.4 1.8-2.4 2.5-4.2 2.8-7.7 4.1-8.5 4.4l-6.8 10.2z"/><path fill-rule="nonzero" d="M78.5 39.4c6.5 0 9.8 5.8 9.8 5.8 8.9 14.9 6.2 22.3 4.4 25-.5.9-1.3 1.7-2.3 2.4-4.7 3.2-8.6 4.4-8.6 4.4l-6.5 9.7s-2.8-2.9-4.3-5.4c-1.5-2.4-2.7-6.5-2.7-6.5l.2-1.1-.4-1.9h-.8c-1.5 0-1.9-.5-2.4-3.6-.4-2.3 1-2.7 2.1-2.7.6 0 1.1.1 1.1.1C60.6 48 67 41.9 75.5 39.8c1.1-.3 2.1-.4 3-.4m0-1.2c-1 0-2.1.1-3.2.4-5 1.2-8.5 3.7-10.2 7.2-2.2 4.5-1.8 10.6 1.3 18.5-.8.1-1.5.5-1.9 1-.6.7-.8 1.8-.6 3 .5 2.8.9 4.5 3.4 4.6 0 .2.1.5.1.7l-.1.9v.3l.1.3c.1.2 1.3 4.3 2.8 6.8s4.3 5.4 4.4 5.6l1 1.1.8-1.3 6.2-9.4c1.1-.4 4.5-1.7 8.5-4.4 1.1-.7 2-1.6 2.6-2.7 2.3-3.3 4.7-11.2-4.4-26.2v-.1l-.1-.2c-.9-1.3-4.4-6.1-10.7-6.1"/><path fill="#f17fb1" d="M78 70.4c1.1.6 3-.6 3.8-1.5-.3-.1-3.2-2.5-3.2-2.5-1.3.3-1.9 3.2-.6 4"/><g fill="#231f20"><path d="m80.2 68-.6-.6c-.3.4-.7.8-.5 1.1.3.3.8-.2 1.1-.5"/><path d="m81.8 69-.6-.3h-.1c-.2-.1-.4-.2-.5-.4.3.2.5.4.8.5-.8.9-2.1 1.9-3.2 1.3-1.3-.8-.6-3.1.6-3.5-.1-.2-.2-.3-.3-.4s-.1-.3-.2-.4l-.2-.4c-.8.6-1.4 1.6-1.6 2.3-.2 1.1-.2 2.4.7 3.1 1.6 1.4 4.1 0 5.2-1.5-.1-.1-.4-.2-.6-.3"/></g><path fill="#231f20" d="M87.5 68.6c-2.1.4-4.3.2-6-1.2-1.4-1.1-1.8-2.6-2.9-3.8-.4-.4-1.1-.1-1.1.5 0 .4.1.8.3 1.3 0 0 .1.1.2.4.1.2.3.5.5.8s.5.6.8.9c.2.2.9.8 1 .8.4.3.8.5 1.2.7.2.1.5.2.7.3 1.9.7 3.8.8 5.8.5.6-.2.3-1.3-.5-1.2"/><path fill="#985b05" d="M84.9 61.5c.4 1 .9 1.7 1.9 2.3 1.1.6 2.8.5 3.5-.7.9-1.3-1.9-3.9-2.6-4.9-.1-.2-.1-.4.1-.5-2.9-.5-3.6 2-3.7 3.2.3.1.7.2.8.6"/><path fill="#231f20" d="M88.3 57.8c-.1-.1-.4-.1-.5 0s-.2.3-.1.5c.7 1 3.5 3.5 2.6 4.9-.7 1.1-2.4 1.3-3.5.7-1-.6-1.4-1.3-1.9-2.3-.1-.5-.5-.6-.9-.6-.6.1-1.1.6-.9 1.2 1.1 2.7 5.2 4.9 7.6 2.4 2.3-2.3-.8-5.2-2.4-6.8"/><g fill="#231f20"><ellipse cx="4.1" cy="6.1" rx="1.5" ry="1.8" transform="translate(74 49)"/><path d="M79.3 50.3c-1.5-1.7-5.9.3-4.6 2.6.3.5 1 .2.8-.4-.4-1.3 2.3-2.6 3.1-1.6.4.5 1.1-.2.7-.6"/></g><g fill="#231f20"><ellipse cx="3" cy="5.3" rx="1.2" ry="1.4" transform="translate(87 49)"/><path d="M92.7 52c.2-2.3-4.2-4.2-5-1.6-.2.5.6.8.8.4.7-1.2 3.5 0 3.3 1.2 0 .5.9.6.9 0"/></g><path fill="#5f2e00" d="M71.5 39.6c-2.6.6-5.6 1.4-7.7 3-3.6 2.8-2.3 7-2.5 10.6-.1 2.1-2.1 3.3-3.6 4.4-2 1.5-.7 4.6-3.4 5.4-1.1.3-3.1.2-4.2.2-2-.1-2.1 3.4-2.5 4.8-.3 1.3-.7 2.6-1.4 3.7-.4.6-1.4 1.7-1.3 2.5.8 2 3 3.6 4.6 2.9 2-.6 4.3-1.6 6.4-.6 1.2.6 3.6 3 5.1 1.9 1.1-.8 1.9-1.9 3.1-2.5.7-.4 4.9-1.3 4.2-3.1-.3-.9-.9-1.8-1.2-2.7-.5-1.6-.4-2.9.7-4.2.5-.6 1.4-.8 2.1-1 2.3-.7.8-2.7.5-4.1-.4-2 .3-3.4 1.1-5.2 1.1-2.6-2.2-5.2-1.6-8 .8-4.3 2.8-4.6 6.2-4.6-.1-.1.9-.2.9-.3-.9-2.1-3.4-3.6-5.5-3.1M78.5 42.9c.1 0 .1.1 0 0 .7-.1 1.4-1 1.8-1.2 1-.4 1.9-.2 2.9.1s2.1.9 3 1.5c.6.4 1.3.8 1.9 1.1 1.4.2 1.4-.3.1-1.6-1.6-1.4-3.4-5.1-5.5-5-1.4.1-3.6.1-4.8 1-.6.4-1 .8-1.6 1.1.8 1 .8 2.3 2.2 3"/><path fill="#231f20" d="M59.8 67c-.1 1.5 3 7.1-1.3 6.2-1-.2-1.5 1.4-.4 1.6 2 .4 4.4-.2 4.5-2.7 0-1.5-.6-2.7-1-4.1-.6-1.8 2.2-1.9 3.4-2.3 2.3-.6 2.9-2.8 2.1-5-.8-1.9 1-3 1.7-4.6.4-.8 0-1.8-.3-2.6-.1-.2-.4-.2-.4.1-.1 1.6-.5 2.4-1.4 3.6-.5.6-1.1 1.4-1.1 2.2-.1 1 .2 2 .2 3-.1 1.8-2 1.8-3.1 2.2S60 65.7 59.8 67M59.6 63.9c0-.7-1.1-.7-1.1 0-.1 1.5-2.7.9-3.3 2.3-.5 1.2-.2 2 .4 3.1 1.4 2.5-2.2 2.6-3.7 3.2-1.1.5-2.1 1-2.7 2.1-.5.9.8 1.6 1.3.8 1.4-2.6 7.2-1.4 6.9-5.2-.1-.7-.6-1.3-.9-1.9-.9-1.6.3-2 1.5-2.2 1.1-.2 1.6-.9 1.6-2.2"/><path fill="#231f20" d="M54 67.8c-.4-.8-1.6-1.9-.1-2.4.5-.1.3-.8-.2-.7-.9.2-1.7.5-1.7 1.5 0 .9.9 1.6 1.1 2.5.1.9-2.2 1-2.7 1.2-.9.4-1.5.9-1.7 1.9-.2.8 1 1.1 1.2.3.5-1.8 3.4-.9 4.4-2.5.2-.4 0-1.2-.3-1.8"/><path fill="none" d="M71.5 40.6c-2.6.6-5.6 1.4-7.7 3-3.6 2.8-1.3 6-1.5 9.6-.1 2.1-2.1 3.3-3.6 4.4-2 1.5-1.7 5.6-4.4 6.4-1.1.3-2.1.2-3.2.2-2-.1-2.1 2.4-2.5 3.8-.3 1.3-.7 2.6-1.4 3.7-.4.6-1.4 1.7-1.3 2.5.8 2 2 2.6 3.6 1.9 2-.6 4.3-1.6 6.4-.6 1.2.6 3.6 3 5.1 1.9 1.1-.8 1.9-1.9 3.1-2.5.7-.4 3.9-.3 3.2-2.1-.3-.9-.9-1.8-1.2-2.7-.5-1.6-.4-2.9.7-4.2.5-.6 1.4-.8 2.1-1 2.3-.7.8-2.7.5-4.1-.4-2 .3-3.4 1.1-5.2 1.1-2.6-2.2-5.2-1.6-8 .8-4.3 3.8-4.6 7.2-4.6-.1-.1-.1-.2-.1-.3-.9-2.1-2.4-2.6-4.5-2.1"/><path fill="#231f20" fill-rule="nonzero" d="M79.1 45c.5-.1.9-.6 1.2-.9 1.4-1.4 3.6 0 5 .8 1.1.6 6.2 3.5 5.7-.2-.3-1.8-1-2.9-2.4-4-1.6-1.3-1.3-3.2-3.2-4.2-1.2-.7-3.2-.5-4.6-.3q-1.5.15-3 .6c-1 .3-1.7 1.1-2.6 1.6-.2.1-.3.2-.5.2 0 0-.1 0-.1.1h-.1c-2.6-.6-5.8.7-8.1 1.6-2.4.9-4.6 2.1-6 4.3-2.2 3.3 1.5 7.3-1 10.2-.8.9-2.2 1.6-3.1 2.4s-1.2 2.1-1.4 3.3c-1 4.1-5.5.2-6.9 3.1-.6 1.3-.9 2.7-1.2 4-.4 1.9-1.4 3.3-2.3 5-.8 1.4-.4 4.1 1.1 5 2.3 1.3 4.5.3 6.8-.4 3.4-1 5.2 2.8 8.5 2.3 1.1-.2 2.2-1.4 2.9-2.2 1-1 2.9-.9 4.2-1.7 1.4-.8 1.2-2.6.6-3.9-.7-1.6-2.1-4.1.6-4.9 1-.3 1.8-.6 2.5-1.4.5-.5.6-1.5.4-2.1-.5-1.8-1.5-3.1-.9-5.1.7-2.4 2-3.7.6-6.2-1.5-2.6-2.1-6.7 1.9-7.2 1.3-.1 2.7.1 4 .1.1 0 .2.1.3.1zm-10.3 2.6c-.6 2.9 2.7 5.4 1.6 8-.8 1.8-1.5 3.2-1.1 5.2.3 1.4 1.8 3.4-.5 4.1-.6.2-1.6.4-2.1 1-1.1 1.3-1.2 2.6-.7 4.2.3.9.8 1.8 1.2 2.7.7 1.8-2.4 1.7-3.2 2.1-1.2.6-2 1.7-3.1 2.5-1.5 1.1-3.9-1.4-5.1-1.9-2.1-1-4.4 0-6.4.6-1.6.7-2.8 0-3.6-1.9-.1-.8.8-1.9 1.3-2.5.7-1.1 1.1-2.4 1.4-3.7.4-1.4.5-3.9 2.5-3.8 1.1 0 2.1.1 3.2-.2 2.7-.7 2.4-4.9 4.4-6.4 1.5-1.1 3.5-2.3 3.6-4.4.2-3.6-2.1-6.8 1.5-9.6 2.1-1.6 5.1-2.4 7.7-3 2.1-.5 3.7 0 4.4 2.1 0 .1.1.2.1.3-3.3 0-6.3.4-7.1 4.6m9.2-8.8c1.2-.9 3.4-.9 4.8-1 2.1-.1 4 3.6 5.5 5 1.3 1.3 1.2 1.9-.1 1.6-.7-.3-1.3-.8-1.9-1.1-.9-.6-2-1.2-3-1.5s-1.9-.5-2.9-.1c-.4.2-1.1 1-1.7 1.2 0 0-.1 0-.1-.1-1.4-.7-1.5-2-2.1-3.1.4-.1.9-.5 1.5-.9"/><path fill="#964197" d="M59.6 62.4c-.4 0-.8-.2-.9-.6-.1-.2-.2-.5-.5-1.3-.5-1.3-1.4-3.6-2.6-6.3-1.8-4.2-3.9-8-6-11.2q-.9-1.5-2.4-2.7c-5.9-5.2-15.4-5.4-16.5-5.4h-.1q-.6 0-.9-.6c-.1-.4 0-.8.3-1 .1-.1 2.3-1.6 6.8-3.2 1-.3 2.1-.7 3.2-.9.2-.1.4-.1.7-.2 1.3-.3 2.6-.6 4-.8 3.7-.6 7.7-.9 11.8-.9 2.2 0 4.5.1 6.8.3 7.8.6 14.4 2.8 19.6 6.6 4.5 3.3 6.9 7 7.8 9 .5 1 .7 1.7.8 1.7.1.3 0 .5-.1.8s-.4.4-.7.4c0 0-.4 0-1.2.1q-1.05.15-2.7.3c-2.2.2-4.3.5-6.1.7-4.8.7-11.2 4.7-14.2 7.3-1.6 1.4-3.2 3.7-4.3 5.4-1.3 1.7-1.8 2.5-2.6 2.5"/><path fill-rule="nonzero" d="M56.6 28c2.1 0 4.4.1 6.8.3 8.8.7 14.9 3.4 19.1 6.5 4.3 3.2 6.6 6.7 7.6 8.6.5 1 .7 1.6.7 1.6s-.4 0-1.2.1q-1.05.15-2.7.3c-1.8.2-4 .4-6.1.7-5 .7-11.4 4.7-14.7 7.5-3 2.6-5.6 7.8-6.3 7.8-.1 0-.1 0-.1-.1-.2-.5-1.3-3.5-3.1-7.6-1.5-3.4-3.5-7.4-6.1-11.3-.7-1.1-1.6-2.1-2.5-2.9-6.2-5.5-16.1-5.6-17.1-5.6h-.1s2.1-1.5 6.6-3c.9-.3 2-.6 3.1-.9.2-.1.4-.1.7-.2 1.2-.3 2.5-.6 3.9-.8 3.1-.6 7-1 11.5-1m0-1.8c-4.2 0-8.2.3-12 1-1.4.2-2.7.5-4 .8-.2.1-.5.1-.7.2-1.1.3-2.2.6-3.2 1-4.7 1.6-7 3.2-7.1 3.3-.6.5-.9 1.3-.7 2s.9 1.2 1.7 1.2c.4 0 10.2.1 15.9 5.1.9.8 1.6 1.6 2.2 2.5 2.1 3.2 4.1 7 5.9 11.1 1.2 2.7 2 5 2.6 6.3.3.8.4 1.2.6 1.4.3.7 1 1.1 1.7 1.1 1.3 0 1.9-1 3.3-3.1 1.1-1.6 2.6-3.9 4.2-5.2 2.9-2.6 9.1-6.4 13.8-7.1 1.8-.3 3.9-.5 6.1-.7q1.65-.15 2.7-.3c.7-.1 1.2-.1 1.2-.1.5 0 1-.3 1.3-.8s.4-1 .2-1.6c0-.1-.3-.8-.8-1.8-1-2-3.4-5.8-8.1-9.3-5.3-3.9-12.1-6.2-20-6.8-2.3-.1-4.6-.2-6.8-.2"/><path fill="#f6ec50" d="M90 43.4c-1-2-3.2-5.5-7.6-8.6l-5.9 6.3h9.3l.9 4.3q1.65-.15 2.7-.3zM57.3 49.1 67.6 45 56 42.8l-1.2-8.6-4.6 6.3-2.4-.9c.9.8 1.8 1.8 2.5 2.9 2.6 3.9 4.6 8 6.1 11.3l4 1.3zM44.9 32v-3c-1.4.2-2.7.5-3.9.8zM40.4 29.9c-1.1.3-2.2.6-3.1.9l1.1 2.2z"/></g></svg>