<svg xmlns="http://www.w3.org/2000/svg" width="58.881" height="84.505" viewBox="0 0 58.881 84.505"><g fill="none" stroke-miterlimit="10" data-paper-data="{&quot;isPaintingLayer&quot;:true}" font-family="none" font-size="none" font-weight="none" style="mix-blend-mode:normal" text-anchor="none"><g data-paper-data="{&quot;origPos&quot;:null}"><path fill="#ff9cd1" d="M31.755 79.66c2.635-2.743 11.015-8.374 14.368-10.404-.478-1.21-1.3-1.354-1.3-2.671 1.318 0 1.283-1.195 2.498-1.714 1.983-.854 4.414-.64 6.568-.32 1.933.282 2.121.392 3.32 1.996 1.076 1.46-.241 3.208-1.574 4.418-1.815 1.64-12.043 4.633-16.696 7.127-2.394 1.996-4.84 3.187-7.184 1.568" data-paper-data="{&quot;origPos&quot;:null}"/><path fill="#272525" d="M54.334 63.697c1.087.822 5.199 2.566 4.459 4.992-.742 2.429-18.097 8.566-18.896 9.153 1.785.583 6.172 2.845 7.114 4.596.166.309.306.93-.046 1.139-3.374 1.997-16.5-.092-17.94-1.68 2.148-4.09 16.55-12.854 16.55-12.854l-2.257-2.352 1.906-.126 2.675 2.304s-13.424 8.984-14.708 9.935c1.906.965 3.294.97 4.772-.374 1.078-.979 19.195-9.115 19.175-10.314-.02-1.2-2.46-2.93-3.936-3.631z" data-paper-data="{&quot;origPos&quot;:null}"/><path fill="#ff5ba1" d="M38.975 78.61c-.926 3.757 2.7 4.184 4.275 2.189.958.286 2.805 1.568 1.983 1.995-3.967 1.14-13.673-1.002-14.436-1.424.24-.41.754-1.142 1.71-1.71 2.815 1.148 4.315 1.358 6.468-1.05" data-paper-data="{&quot;origPos&quot;:null}"/><path fill="#ff9cd1" d="M39.658 79.02c.721.275 2.84 1.424 2.84 1.424-1.439 1.425-3.491.476-2.84-1.425" data-paper-data="{&quot;origPos&quot;:null}"/></g><g data-paper-data="{&quot;origPos&quot;:null}"><path fill="#ff9cd1" d="M1.934 66.66c.362-.485.703-.916 1.076-1.314 1.26.65 2.647 1.152 4.03.534.797-.307 2.034-.264 2.917.052.223.087.439.196.642.319 1.268.796 1.27 1.52 2.502 1.827.185.043.398.077.661.084-.276.362-.553.723-.744 1.205 3.353 2.03 11.734 7.66 14.368 10.404-2.343 1.62-4.79.427-7.183-1.568C15.55 75.71 5.32 72.716 3.508 71.076 2.173 69.867.856 68.12 1.934 66.66" data-paper-data="{&quot;origPos&quot;:null}"/><path fill="#272525" d="m11.24 68.98 1.322-1.14c.502.26 1.047.403 1.84.44l-.837.873s13.478 8.05 16.548 12.855c-1.44 1.587-14.565 3.676-17.94 1.679-.351-.208-.212-.828-.045-1.138.941-1.751 5.328-4.013 7.115-4.596-.8-.588-18.156-6.725-18.896-9.152-.437-1.428.807-2.62 2.127-3.526.148.336.272.676.426.965.032.06.068.116.068.116L2.9 66.24c-.44.865-.89 1.474-.9 1.986-.02 1.2 18.097 9.336 19.176 10.314 1.479 1.342 2.866 1.338 4.771.373-1.28-.95-14.708-9.933-14.708-9.933" data-paper-data="{&quot;origPos&quot;:null}"/><path fill="#ff5ba1" d="M26.632 79.771c.958.568 1.47 1.3 1.71 1.71-.762.422-10.466 2.565-14.435 1.424-.82-.427 1.026-1.71 1.985-1.995 1.573 1.995 5.199 1.568 4.273-2.19 2.155 2.409 3.653 2.2 6.467 1.051" data-paper-data="{&quot;origPos&quot;:null}"/><path fill="#ff9cd1" d="M16.643 80.555s2.118-1.15 2.84-1.424c.65 1.9-1.403 2.849-2.84 1.424" data-paper-data="{&quot;origPos&quot;:null}"/></g><path fill="#ff5ba1" d="M45.648 50.944c1.386 1.3 3.285 1.674 4.038 3.49.7 1.694.377 2.978 1.368 4.49.974 1.479 3.013.357 4.038 1.782.976 1.371-.171 3.402-1.713 4.061-1.538.66-1.776.284-3.42 0-1.058-.178-2.666.178-3.556.785-.753.515-.839 1.404-1.71 1.638-1.693.462-2.55-1.017-4.173-1.712-1.455-.625-2.72-.693-4.038.214-1.658 1.14-1.76 2.635-3.557 3.562-1.677.874-2.992.303-4.31-1.07-2.738-2.848-6.022-.675-9.784.144-2.002.427-3.352.962-5.2 0-1.728-.891-2.6-2.21-4.516-2.067-2.035.16-3.455.909-5.2-.143-1.197-.714-1.556-2.389-.82-3.636.957-1.62 2.462-2.386 2.257-4.274-.188-1.726.907-3.19 2.532-3.562 3.916-.926 6.26-.055 10.262-.428 1.334-.123 1.693-1.494 2.19-2.778.77-1.959-.309-11.9-1.095-16.033-.274-1.46-1.215-3.83.205-3.774 1.35.053 2.413.793 2.805 2.136 1.163 3.991 4.344 5.665 7.253 4.062 1.522-.837 2.188-2.958 2.531-4.704.137-.711-.17-1.316.275-1.852.598-.713 1.402-.57 2.326-.57 0 2.656 1.37 15.678 2.806 20.736 3.387.499 5.695-2.866 8.206-.497" data-paper-data="{&quot;origPos&quot;:null}"/><path fill="#cf8c6e" d="M31.833 31.418c0 3.278-1.78 7.055-4.926 6.698-3.046-.357-5.474-2.671-5.474-5.843 3.66 1.889 6.67.748 10.4-.855" data-paper-data="{&quot;origPos&quot;:null}"/><path fill="#272525" d="M22.426 48.867c-.777-.262-.449-.961.135-.89 4.903.622 11.264-.669 12.146-.669.88 0 .92.706.13 1.015-1.743.675-8.289 1.928-12.411.544M34.501 52.902c.534 0 .686.847-.052.847s-10.614.153-11.273.153c-.66 0-.855-1.106-.137-1.106.719 0 10.928.106 11.462.106" data-paper-data="{&quot;origPos&quot;:null}"/><path fill="#cf8c6e" d="M34.294 31.845s.221-1.318.957-1.604c1.132-.442 3.069.145 4.104.748 4.858 2.817 8.722 4.598 10.297 10.227 1.265 4.49-2.088 8.552-6.054 10.724-.95.523-1.855.449-2.6.892-1.186.705-1.59 1.992-3.25 2.386-1.915.463-2.839 2.53-4.79 2.387 0-.868.93-2.487.686-3.243-.097-.298-1.055.372-1.333.178-.514-.215-1.233-.286-1.3-.89-.136-1.213 1.436-1.319 2.463-1.854-1.231-.249-2.805-.71-2.6-1.994.24-1.604 2.907-.82 4.379-.284 2.565.96 4.858.82 6.568-1.427 1.368-1.78 2.975-3.776 2.155-5.877-1.367-3.457-5.474-5.133-8.996-4.24-.343-2.139-.686-6.129-.686-6.129M19.243 38.399c-4.003.322-7.662 1.782-8.62 5.845-.48 1.996.512 3.277 1.641 4.988 1.78 2.67 3.763 3.115 6.808 2.512 2.463-.501 3.455-3.048 6.74-2.372-.172 1.247-.959 1.815-1.917 2.565 1.745.073 2.6-.569 3.968.143-.855 1.568-2.326 1.641-3.694 2.71.82.496 2.036 1.687 1.094 1.78-3.267.322-5.61-.393-8.894-.641-4.823-.393-9.544-.89-11.083-5.7-2.703-8.479 5.234-19.88 12.486-18.74 2.67 1.14 1.95 3.884 1.47 6.91" data-paper-data="{&quot;origPos&quot;:null}"/><path fill="#272525" d="M41.205 53.151c-.77.88-1.162 2.529-3.454 2.35-1.779.82-3.73 3.637-5.407 2.137-.568-.507-.418-1.633.503-2.512-.787-.163-2.345-.043-2.561-1.14-.155-.794 1.756-2.34 1.756-2.34-1.271-.023-2.236-.772-1.75-1.912.488-1.142 3.374-1.51 5.575-.82 1.185.37 2.432 1.083 3.696.462 2.476-1.213 5.47-5.212 3.01-8.04-1.717-1.974-4.173-2.436-6.757-2.723-.774-.088-.1-1.044-.427-1.637 2.885-.462 8.6 2.111 9.46 5.182 1.271 4.53-5.36 10.069-7.75 8.625-.878-.532-4.77-1.903-5.173-.712-.403 1.19 2.641.548 3.947 1.06-.827.096-4.35 1.538-4.195 2.597.154 1.062 3.062-.614 4.634-.66-1.95 1.15-3.104 2.981-2.77 3.682.333.698 2.99-1.881 3.551-2.02 1.024-.255 2.189-.261 2.365-1.767 3.699-2.027 7.085-2.248 9.15-6.607 3.698-7.806-6.312-14.779-13.816-15.496l.05-1.439c19.358 3.58 17.594 17.84 12.236 21.29-1.717 1.103-3.82 1.515-5.873 2.44M19.517 30.705c.28.361-.065.943-.273 1.141-17.138 1.5-18.816 24.726-1.702 23.465 1.155.619 2.538 1.34 3.719.355 1.126.41 4.14 1.227 3.934.444-.205-.785-1.95-1.284-3.183-1.596 1.2-1.075 4.907-1.05 5.407-1.932.495-.871-4.148.214-5.467-.033.951-1.32 4.378-2.192 3.45-2.932-.925-.74-3.224.816-5.024 2.35-2.061 1.758-7.255-.093-8.996-1.725-1.753-1.645-1.825-4.8-1.067-6.936 1.32-3.705 5.872-5.683 8.859-5.827.009.67.411.911.16 1.57-3.626.854-6.819 2.734-7.348 5.67-.944 5.254 3.26 6.633 7.326 6.555 2.633-3.073 7.028-3.532 7.25-2.359.224 1.171-1.068 2.122-1.82 2.75 1.436.034 3.976-.462 3.976.81 0 1.854-3.591 1.598-3.968 1.96.82.57 2.01 1.254 1.428 2.11-.933 1.366-3.23-.061-4.712.315-1.13.285-3.254.388-4.175-.287-3.179.359-3.852.244-6.327-.495-12.813-3.84-6.979-25.727 8.553-25.373" data-paper-data="{&quot;origPos&quot;:null}"/><path fill="#272525" d="M35.058 30.497c.48 5.605 1.342 13.265 2.588 18.593a.93.93 0 0 1-.746 1.022c-.249-.096-.624-.152-.694-.547-1.353-4.679-2.197-18.41-2.08-18.92.074-.323.312-.458.932-.148M19.717 32.95c.617 5.348 1.362 12.105 1.853 17.494-.358.642-1.184.305-1.606.375-.575-2.857-1.5-15.47-1.168-17.903.178-.297.764-.275.921.035M8.023 56.074c-3.284 0-1.94 3.068-2.616 4.863-.128.345-4.727 3.387-.788 4.776 1.89.665 3.99-2.13 6.349-.6.753.49.68 1.437 2.357 2.182 2.051.912 5.709-.14 6.76-.366 2.466-.526 5.393-2.445 7.63-.027.751.812 1.964 2.165 3.153 2.21 2.116.076 4.702-3.37 6.393-4.395 2.433-1.477 4.61 1.081 6.863 1.6 1.843.428 1.491-2.35 3.739-2.7 1.611-.249 3.1.725 4.602.168.66-.245 1.603-.596 1.848-1.374.194-.605-.12-1.233-.445-1.717-1.111-1.66-3.495.159-4.242-2.25-.354-1.145.114-2.42-.81-3.35-.635-.637-5.854-4.17-2.89-4.006 5.198.284 3.698 5.695 5.337 6.696 1.545.943 4.791 1.545 5.22 3.746.294 1.508-1.224 4.105-2.508 4.754-2.605 1.32-4.513-3.404-8.393 1.119-1.71 1.994-6.14-2.437-7.39-1.924-2.393.982-5.698 8.046-10.877 3.848-1.241-1.006-1.574-2.198-3.374-1.868-5.213.95-8.693 4.002-13.32-.27-2.8-2.585-7.686 3.356-9.44-2.422-1.036-3.41 3.216-2.887 3.01-6.27-.048-.78-.863-2.184-.328-2.768 1.383-1.502 4.84-.611 4.16.345M40.32 13.176c-2.75-3.277 2.446-2.765 2.105-4.847-.169-1.031-.632-1.638-.449-2.668.231-1.298 1.414-1.485 2.477-2.175C46.539 2.128 45.806-.72 49.926.169c1.164.25 1.533 1.65 1.32 2.864-.136.803-.724 1.183-.605 1.991.174 1.133 1.321 1.336 1.533 2.446.262 1.31-.437 2.573-1.649 3.028-.806.308-1.405.117-2.166.526-.954.521-.363 1.753-.483 2.882-.161 1.478-1.912 1.735-3.364 1.652-.786-.038-1.204-.545-1.982-.462-.722.08-.786 1.144-1.509 1.143-1.077-.002-1.303-2.131-.701-3.063M8.88 16.994c-1.029.324-1.968.393-2.759-.348-.79-.742-.377-1.71-.553-2.824-.335-2.213-4.562-.804-4.675-3.028-.053-1.068.887-1.796.41-2.734C.716 6.897-.226 6.217.05 4.919c.386-1.86 2.374-3.2 4.057-2.434 1.122.509 1.167 1.755 2.298 2.086 1.182.363 1.96-.5 3.203-.318 1.122.172 1.887 1.075 1.895 2.251 0 1.052-.687 2 .068 2.708.72.674 1.645.695 1.935 1.68.332 1.158-.13 2.218-1.086 2.912-.827.599-.463 1.703-1.18 2.42-.687.678-1.45.489-2.36.77M39.71 24.788c-.678-.971-.36-2.416.71-3.224 1.07-.81 2.488-.678 3.165.291.676.973.357 2.416-.712 3.224-1.07.81-2.486.68-3.163-.29" data-paper-data="{&quot;origPos&quot;:null}"/><path fill="#cf8c6e" d="M40.419 22.534c.703-.531 1.606-.484 2.018.104.41.589.174 1.496-.531 2.03-.702.53-1.604.484-2.016-.105-.41-.589-.175-1.497.529-2.03" data-paper-data="{&quot;origPos&quot;:null}"/><path d="M39.71 24.788c-.678-.971-.36-2.416.71-3.224 1.07-.81 2.488-.678 3.165.291.676.973.357 2.416-.712 3.224-1.07.81-2.486.68-3.163-.29" data-paper-data="{&quot;origPos&quot;:null}"/><path d="M39.71 24.788c-.678-.971-.36-2.416.71-3.224 1.07-.81 2.488-.678 3.165.291.676.973.357 2.416-.712 3.224-1.07.81-2.486.68-3.163-.29" data-paper-data="{&quot;origPos&quot;:null}"/><path fill="#272525" d="M9.72 26.889c-1.144-.688-1.606-2.09-1.03-3.129s1.973-1.324 3.118-.635 1.606 2.091 1.03 3.13c-.576 1.04-1.972 1.326-3.117.634" data-paper-data="{&quot;origPos&quot;:null}"/><path fill="#cf8c6e" d="M12.634 26.05c-.35.632-1.243.774-1.994.323-.754-.452-1.08-1.33-.73-1.96.349-.63 1.243-.775 1.995-.322.752.451 1.08 1.33.73 1.959" data-paper-data="{&quot;origPos&quot;:null}"/><path d="M9.72 26.889c-1.144-.688-1.606-2.09-1.03-3.129s1.973-1.324 3.118-.635 1.606 2.091 1.03 3.13c-.576 1.04-1.972 1.326-3.117.634" data-paper-data="{&quot;origPos&quot;:null}"/><path d="M9.72 26.889c-1.144-.688-1.606-2.09-1.03-3.129s1.973-1.324 3.118-.635 1.606 2.091 1.03 3.13c-.576 1.04-1.972 1.326-3.117.634" data-paper-data="{&quot;origPos&quot;:null}"/><path fill="#272525" d="M38.137 15.484c-.175-.897 1.515-2.87 2.24-3.002.917-.166 3.443 2.349 3.169 3.435-.226.909-2.494 2.24-3.148 2.209-.995-.046-2.192-2.293-2.26-2.642" data-paper-data="{&quot;origPos&quot;:null}"/><path fill="#ff9cd1" d="M38.674 15.47c-.062-.322 1.187-1.955 1.604-2.03s2.38 1.977 2.27 2.419-1.968 1.615-2.352 1.597c-.38-.02-1.456-1.664-1.522-1.986" data-paper-data="{&quot;origPos&quot;:null}"/><path fill="#272525" d="M11.431 20.031c-.653.02-2.898-1.352-3.11-2.266-.255-1.09 2.311-3.562 3.225-3.378.723.147 2.38 2.149 2.19 3.043-.075.347-1.31 2.574-2.305 2.601" data-paper-data="{&quot;origPos&quot;:null}"/><path fill="#ff9cd1" d="M11.643 19.363c-.382.01-2.22-1.196-2.322-1.639-.104-.443 1.894-2.46 2.309-2.377s1.637 1.739 1.569 2.06-1.173 1.946-1.556 1.956" data-paper-data="{&quot;origPos&quot;:null}"/><path fill="#272525" d="M11.482 22.203a2.86 2.86 0 0 1-1.071-2.867c.254-1.191 1.671-.662 1.98-1.82.252-.941-.07-1.673.252-2.582.467-1.292 1.51-1.689 2.6-1.426 2.14.524 1.34-2.055 3.333-3.108 1.806-.955 2.654.73 3.53.806 1.136.1 1.44-1.72 3.398-1.826 1.957-.107 2.347 1.673 3.467 1.451.864-.172 1.539-1.94 3.43-1.185 2.087.83 1.552 3.483 3.628 2.727 1.058-.379 2.136-.098 2.728 1.136.413.87.165 1.632.51 2.54.425 1.118 1.78.438 2.152 1.594.356 1.141-.023 2.25-.779 2.968z" data-paper-data="{&quot;origPos&quot;:null}"/><path fill="#272525" d="M11.118 24.722c-.263-5.227 6.284-9.833 14.623-10.289 8.34-.455 15.312 3.414 15.576 8.64.262 5.227-6.284 9.834-14.624 10.289-8.339.454-15.313-3.414-15.575-8.64" data-paper-data="{&quot;origPos&quot;:null}"/><path fill="#cf8c6e" d="M39.743 23.159c.185 3.672-4.833 8.755-13.1 9.206-8.267.452-13.767-4.058-13.95-7.73-.187-3.67 4.863-8.112 13.13-8.563 8.268-.45 13.735 3.416 13.92 7.087" data-paper-data="{&quot;origPos&quot;:null}"/><path fill="#272525" d="m26.018 24.956.042-.003c1.228-.084 1.43-.867 1.494-1.211.066-.348.884-.5.974-.043.045.233-.37 2.14-2.418 2.273l-.039.002c-2.054.094-2.656-1.761-2.634-1.999.042-.46.873-.399.973-.062.1.335.379 1.094 1.608 1.043M19.134 21.596c-.04-.785.433-1.45 1.055-1.484.623-.033 1.16.576 1.2 1.361.039.787-.434 1.452-1.057 1.485s-1.158-.575-1.198-1.362M30.406 20.98c-.038-.785.433-1.45 1.057-1.484.622-.033 1.16.577 1.199 1.362.04.787-.433 1.452-1.056 1.485-.622.034-1.16-.576-1.2-1.363M20.75 27.236c3.55 1.639 7.615 1.425 10.83-.569.219-.135.708.279.55.566-1.616 2.939-9.553 3.122-11.812.802-.251-.258.15-.93.431-.8M32.503 31.846c.178 2.551.268 5.311-2.832 6.712-1.314.591-3.712.629-5.065.065-2.099-.875-2.91-3.745-3.092-5.463.115-.28.989-.697 1.278-.204-.866 4.802 9.12 8.191 8.55-1.219.382-.124.8-.012 1.16.11" data-paper-data="{&quot;origPos&quot;:null}"/><g fill="#272525"><path d="M46.274 59.717c1.143-.184 3.635-.018 4.062 1.371 1.062 3.466-3.276-.088-4.6-.341-1.226-.238-3.598.075-4.096-1.546-.306-.991.318-2.058-1.567-3.289 2.525-.84 3.216 4.287 6.201 3.805M28.457 66.053c1.003-3.055-4.436-1.403-.783-6.62.806-1.153.669-1.578.593-2.683.647.808 1.586 1.817 1.116 2.965-.324.79-1.802 1.519-1.218 2.575.72 1.3 3.896 2.153 2.788 4.38-.582 1.166-2.134.324-2.496-.617M22.761 58.425c.076.843-3.054.726-3.47 2.276-.357 1.325.26 2.424-.836 3.636-.562.62-3.099 2.081-3.325.404-.198-1.461 2.473-2.715 2.677-4.835.205-2.122 3.234-1.586 4.954-1.48M37.19 63.14c-.883-.239-1.99-3.15-2.17-4.05-.085-.414.615-.309.802-.19.963.615 3.158 3.392 1.368 4.24M16.045 58.706c-.611 2.526-3.847 1.993-4.36 3.815-.515 1.817-3.468 2.66-4.774 1.092-.359-1.358 2.46-.689 3.14-1.153.584-.397.62-1.364.904-1.933.628-1.259 3.43-.25 5.09-1.821" data-paper-data="{&quot;origPos&quot;:null}"/></g></g></svg>