<svg xmlns="http://www.w3.org/2000/svg" width="92.508" height="128.129" viewBox="0.078 0.418 92.508 128.129"><path fill="#be0a3c" d="M74.618 75.318c2.76-2.285 6.8-5.295 7.544-5.851 2.604-1.929 4.976-4.106 7.572-6.039.8.629-1.508 1.965-1.48 2.474.064 1.224 2.292-1.145 2.676-.845s-1.648 1.753-1.456 2.445c.752.228 2.4-1.096 2.608-.756s-7.956 7.431-13.34 11.874c-.936.772-7.388 7.103-9.236 4.61s4.492-7.396 5.112-7.912"/><path fill="#82001e" d="M85.19 68.695s-1.104-1.041-.576-2.922c.12-.42.904-2.133 1.392-1.88.488.252-.304 1.036-.264 1.72.04.685 1.048.285 2 1.309s-.772 4.406-2.552 1.773"/><path fill="#be0a3c" d="M15.85 73.869c-2.348-2.001-4.8-4.002-5.348-4.402-2.604-1.929-4.976-4.106-7.572-6.039-.8.629 1.508 1.965 1.48 2.474-.064 1.224-2.292-1.145-2.676-.845s1.648 1.753 1.456 2.445c-.752.228-2.4-1.096-2.608-.756s7.808 7.303 13.2 11.75c.996.824 5.396 6.002 8.208 3.601s-4.652-6.975-6.14-8.228"/><path fill="#82001e" d="M7.482 68.695s1.104-1.041.576-2.922c-.12-.42-.904-2.133-1.392-1.88-.488.252.304 1.036.264 1.72-.04.685-1.048.285-2 1.309s.776 4.406 2.552 1.773M66.366 103.5c2.652-2.734 7.864 5.094 7.864 5.094l11.2 16.244 1.432-1.201s.684-.24.4.504c-.088.233-3.696 2.758-3.696 2.758s-10.696-9.809-15.68-16.808c-2.22-3.126-2.34-5.743-1.52-6.591M27.942 99.398c-3.056-4.423-6.744 2.641-6.744 2.641-2.052 4.622-10.376 22.767-11.6 23.811-.532-.228-.8-.8-1.364-.928-.276.132-.528.248-.428.66.16.116 2.988 2.285 3.104 2.465.304 0 11.252-11.841 15.836-20.53 1.764-3.353 2.048-6.883 1.196-8.119M43.794 13.756s14.144 14.343 14.288 15.608c-1.484.044-24.456 4.122-24.456 4.122L13.73 28.247z"/><path fill="#be0a3c" d="M58.478 1.319 32.322.918c0 .332-.252 5.603.152 6.091.692.801 12.028 1.297 15.036 1.505 1.4.1 11.2-1.425 11.2-1.425s-.092-5.114-.232-5.77"/><path fill="#ffc800" d="m13.73 28.247 18.744-21.21s12.692 3.602 15 6.123C43.266 15.958 13.73 28.247 13.73 28.247"/><path fill="#f01446" d="M76.618 29.188c-1.348.184-15.456 2.257-15.456 2.257l-8.424-2.429S38.25 13.38 32.406 7.005c2-.704 26.304.084 26.304.084s15.612 18.325 17.908 22.099"/><path fill="#be0a3c" d="m76.274 111.755-22.672.501L42.226 74.49l10.512-45.474 23.88.172s.312 52.653.12 62.106z"/><path fill="#f01446" d="M52.738 29.016s-34-.865-39.008-.769c-.256 4.675 2.088 59.385 2.6 69.05.128 2.401.136 4.778.204 7.167.036 1.273.336 6.803.336 6.803s2.736.06 3.924.108c2.264.088 4.524.292 6.8.352 4.58.117 9.148.181 13.728.361 2.12.084 12.288.176 12.288.176z"/><path fill="#fff" d="M45.578 37.304s-21.5-.621-24.672-.552c-.164 3.349 1.504 61.585 2 62.429s1.728.541 2.48.573c1.432.064 2.86.212 4.296.252 2.896.084 5.788.128 8.684.26 1.34.06 7.772.128 7.772.128z"/></svg>