<svg xmlns="http://www.w3.org/2000/svg" xml:space="preserve" width="69.863" height="58.012" viewBox="0.553 0.467 69.863 58.012"><title>Slice 1</title><g fill-rule="evenodd"><g fill-rule="nonzero"><path fill="#24ce48" d="M6.313 19.004a172 172 0 0 1 4.445-17.079 41 41 0 0 1-2.392-.59S7.3 4.145 6.05 8.648a109 109 0 0 0-2.963 14.936v.373a206 206 0 0 0-.834 27.947l2.377.264c-.123-8.555 0-24.407 1.683-33.164"/><path fill="#4bf970" d="M68.052 23.631v-.388A106.5 106.5 0 0 0 64.965 8.43c-1.281-4.534-2.392-7.344-2.392-7.344q-1.112.463-2.285.73a174 174 0 0 1 4.476 17.187c1.606 8.664 1.729 24.268 1.606 32.885l2.793-.326c.262-9.325-.11-18.658-1.111-27.932"/><path fill="#14e148" d="M64.687 19.004a174 174 0 0 0-4.491-17.187 49 49 0 0 1-6.082 1.04c-5.078.605-13.304 1.071-18.691 1.102a145 145 0 0 1-18.676-.854c-2.5-.372-4.63-.792-5.989-1.102a172 172 0 0 0-4.445 17.079C4.63 27.762 4.507 43.613 4.63 52.168a263 263 0 0 0 27.891 1.677c-.16-4.069-.083-8.144.232-12.203.37-3.416.756-6.646 2.84-6.661 2.083-.016 2.377 3.23 2.778 6.63.352 4.057.466 8.132.34 12.203 9.247-.15 18.48-.793 27.659-1.925.123-8.617 0-24.221-1.683-32.885"/></g><path fill="none" stroke="#149948" stroke-linecap="round" stroke-linejoin="round" stroke-width="1.24" d="M68.006 23.29a9.24 9.24 0 0 1-6.715-3.339c-2.423-3.105-3.086-9.828-3.086-9.828l6.621-1.692c-1.281-4.534-2.392-7.344-2.392-7.344a29.6 29.6 0 0 1-8.366 1.77c-5.078.605-13.305 1.071-18.691 1.102-6.222.116-12.445-.17-18.63-.854a75 75 0 0 1-8.381-1.692S7.3 4.223 6.05 8.726l6.962 1.646s-.664 6.707-3.01 9.812a9.24 9.24 0 0 1-6.915 3.4v.373a206 206 0 0 0-.834 27.947 283 283 0 0 0 30.33 1.957c-.16-4.07-.083-8.144.231-12.204.37-3.416.757-6.645 2.84-6.66 2.084-.016 2.377 3.229 2.779 6.63.352 4.057.466 8.132.34 12.203a289 289 0 0 0 30.452-2.252c.263-9.33-.109-18.668-1.111-27.947z"/><path fill="#fff" fill-rule="nonzero" stroke="#149948" stroke-linecap="round" stroke-linejoin="round" stroke-width="1.24" d="M1.173 50.088v5.108s4.43 1.553 15.142 2.22c11.56.637 17.117.326 17.117.326v-5.558s-8.798.28-17.117-.233a105 105 0 0 1-15.142-1.863M69.796 49.684v5.108a98 98 0 0 1-15.126 2.376A94.5 94.5 0 0 1 38 57.71v-5.62s8.366.124 16.67-.482c5.079-.306 10.132-.949 15.126-1.925"/><g stroke="#149948" stroke-linecap="round" stroke-linejoin="round"><path fill="#14e148" fill-rule="nonzero" stroke-width="1.24" d="m35.593 34.98-.155-31.052h4.63s.279 15.092-.123 20.448c-.401 5.357-4.352 6.428-4.352 6.428"/><path fill="none" stroke-width="1.24" d="M10.002 20.184c2.392-3.105 3.087-9.843 3.087-9.843L6.128 8.695a109 109 0 0 0-3.041 14.89 9.24 9.24 0 0 0 6.915-3.4M61.292 19.905a9.24 9.24 0 0 0 6.714 3.384 106.5 106.5 0 0 0-3.087-14.812l-6.684 1.646s.633 6.676 3.057 9.782"/><path fill="none" stroke-dasharray="1.643" stroke-width=".822" d="M15.049 12.825s-.71 12.871-11.977 13.01M56.183 12.685s.71 12.871 11.977 13.011"/></g><g fill-rule="nonzero" stroke="#149948" stroke-linecap="round" stroke-linejoin="round"><path fill="#149948" stroke-width="1.24" d="M64.286 3.26a80.7 80.7 0 0 1-14.54 2.671c-3.966.404-10.079.481-14.292.512-4.214.032-10.326 0-14.293-.372A79.7 79.7 0 0 1 6.591 3.54L4.708 9.316a102 102 0 0 0 16.222 2.98c7.717.606 14.555.451 14.555.451s6.914.093 14.555-.605a102 102 0 0 0 16.19-3.106z"/><path fill="#acff74" stroke-width=".992" d="M16.423 2.174s-.865 5.838-1.374 10.65l3.519.358s1.096-8.586 1.235-10.869zM54.7 1.987s.927 5.823 1.544 10.636l-3.503.388s-1.189-8.57-1.343-10.775z"/></g><g fill="none" stroke="#24ce48" stroke-linecap="round" stroke-linejoin="round" stroke-width=".822"><path d="m15.265 28.957 2.053 1.242M17.426 38.35l2.145-1.04M23.847 42.822l2.114 1.102M26.749 32.745l.956 2.205M24.958 25.339l-.68 2.298M22.072 18.989l-2.362.403M29.974 18.399l1.189 2.08M12.904 45.834l.216-2.391M8.505 37.279l1.11-2.127M56.337 29.748 54.3 30.975M53.327 38.723l-2.16-1.04M47.77 43.598l-2.114 1.118M44.005 33.568l-.957 2.205M46.644 26.115l.679 2.314M52.262 22.342l2.346.404M45.64 16.815l-1.188 2.08M58.714 46.626l-.216-2.392M63.097 38.07l-1.11-2.127"/></g></g></svg>