<svg xmlns="http://www.w3.org/2000/svg" xml:space="preserve" width="114.75" height="164.85" viewBox="0.7 1.15 114.75 164.85"><title>Slice 1</title><g fill-rule="evenodd"><g fill-rule="nonzero"><path fill="#ffff4f" d="M80.65 67.45 58 69.85 31 67c-7.5 10.5-13.65 21.9-18.3 34.05C4.9 121.3 1.3 148.3 1.3 148.3c3.9 1.65 7.95 2.85 12.15 3.45v3.75c7.8 1.95 15.9 3.15 24 3.45v3.6c6.6 1.8 13.5 2.7 20.4 2.85h.45c6.9-.15 13.8-1.05 20.4-2.85v-3.6c8.1-.3 16.2-1.35 24-3.45v-3.75c2.4-.45 4.95-.9 7.2-1.65-1.5-9.9-5.85-34.65-11.7-48.75-4.8-11.85-10.8-23.1-17.55-33.9"/><path fill="#fff" d="M103.3 101.05A152 152 0 0 0 85 67l-4.5.45c6.75 10.8 12.75 22.05 17.7 33.75 5.85 14.1 10.05 39 11.7 48.75 1.65-.45 3.3-1.05 4.8-1.8 0 .15-3.75-26.85-11.4-47.1M86.5 3.25c-1.05-.3-2.1-.6-3.15-.75.3 8.85.6 22.95.15 32.85-.45 10.8-1.95 23.7-3 31.65 2.7-.45 4.2-.75 4.2-.75s2.7-24.6 2.7-36.9c.3-11.85-.9-26.1-.9-26.1"/><path fill="#ffff4f" d="M83.65 3.55c-3.3-.6-11.25-1.2-11.25-1.2-.6 2.55-1.95 4.95-3.9 6.75-2.85 2.4-5.7 3.15-10.5 3.15-6.75 0-9.3-1.8-11.55-3.9-1.65-1.8-2.55-4.05-3-6.3 0 0-10.95 1.2-14.25 2.25 0 0-1.05 14.4-1.05 26.1C28.3 42.7 31 67.3 31 67.3c8.85 1.65 17.85 2.7 26.85 2.85h.45c7.5-.15 15-.75 22.5-1.95 1.05-8.1 2.55-20.85 3-31.65.45-10.05.15-24.15-.15-33"/></g><g fill-rule="nonzero"><path fill="#ff7bd0" d="M43.3 66.7c.3 1.8 1.35 3.3 3 4.2 0-2.85.75-5.85 2.1-8.4 1.5-2.7 3.6-5.25 6-7.05-.45 0-.9-.15-1.35-.15-1.95 0-3.9.6-5.55 1.65-3.15 2.1-4.8 6-4.2 9.75"/><path fill="#ff7bd0" d="M55.45 55.6c-1.5 1.05-2.85 2.4-4.05 3.75 2.1.9 3.9 2.1 5.7 3.75 1.8 1.5 3.3 3.3 4.35 5.4 0-.15.15-.3.15-.45 1.05-3.45.15-7.35-2.25-10.05-1.05-1.2-2.4-2.1-3.9-2.4"/><path fill="#ff7bd0" d="M56.35 63.7c-1.5 3-3.45 5.7-5.7 8.25.6 0 1.35.15 1.95.15 4.35 0 6.9-.9 8.25-2.85-1.05-2.1-2.55-3.9-4.5-5.55M49.75 71.95c1.35-1.5 2.7-3.3 3.75-4.95-1.95-.15-3.9-.6-5.7-1.2-.6 1.8-.75 3.6-.75 5.4.9.3 1.8.6 2.7.75M48.1 65.05c1.05.3 2.25.6 3.3.75.3-1.65.6-3.3 1.2-4.95l-1.8-.9-1.8 2.7c-.3.9-.6 1.65-.9 2.4M54.1 66.25c.6-1.05 1.2-1.95 1.65-3-.75-.6-1.65-1.2-2.55-1.8-.45 1.5-.9 3-1.2 4.65.75 0 1.5 0 2.1.15"/><path fill="#c2e203" d="M64.45 52.9c0-.15-.15-.3-.3-.3-1.5-.6-3.15-.6-4.65 0-1.2.6-2.25 1.5-2.85 2.55 1.2.45 2.25 1.05 3.15 2.1.45.6.9 1.2 1.2 1.8 1.35-.6 2.4-1.8 3-3.15.45-.9.6-1.95.45-3"/></g><g fill-rule="nonzero"><path fill="#ff7bd0" d="M20.95 91.15q-.675 2.025-.9 4.05c1.2-.15 2.25-.3 3.45-.6-.15-.9-.6-1.95-.9-3.3-.6 0-1.05-.15-1.65-.15M17.35 90.85c.3 1.5.6 3 .9 4.35h1.05c.15-1.5.45-2.85.9-4.2-.9-.15-1.95-.15-2.85-.15"/><path fill="#ff7bd0" d="M17.95 96.1h-.3c-.9 0-1.8 0-2.7-.15-.6 1.35-1.05 2.7-1.5 3.9 2.4 1.2 5.7 1.2 8.55 0 2.7-1.2 4.65-3.15 5.55-5.7-3.15 1.2-6.45 1.8-9.6 1.95M15.25 95.2c.75 0 1.5.15 2.25.15-.3-1.2-.6-2.4-.75-3.6-.6 1.2-1.05 2.4-1.5 3.45M21.55 88.75c-.6-1.2-1.2-2.4-2.1-3.6L17.2 90.1h.75c1.35 0 2.85.15 4.2.3-.15-.3-.3-.6-.3-.9zM25.75 84.25c-1.35-1.35-2.85-1.95-4.5-2.4-.45.75-.9 1.65-1.2 2.4.9 1.35 1.65 2.7 2.4 4.05.75 1.95 1.5 3.9 1.95 6 1.2-.3 2.25-.6 3.3-1.05 0-.15.15-.45.15-.6.6-3.6-.15-6.45-2.1-8.4"/><path fill="#c2e203" d="M26.95 96.55c-.9 1.35-2.1 2.55-3.45 3.3.15.45.3 1.05.6 1.5.75 1.35 2.1 2.4 3.75 2.85.45.15 1.05.15 1.5.15.6 0 1.05 0 1.65-.15.15 0 .3-.15.3-.3.6-3.15-1.2-6.3-4.35-7.35M13.15 100.6c.3-.75-1.95 5.1-2.55 7.05 1.5-.15 2.85-.75 3.9-1.95s1.5-2.7 1.5-4.2a9 9 0 0 1-2.85-.9"/></g><g fill-rule="nonzero"><path fill="#ff7bd0" d="M41.8 48.4c.45-1.05.75-2.1.75-3.3.15-3.45-1.8-6.6-4.95-7.95.6 1.8 1.05 3.75 1.05 5.7 0 1.8-.3 3.75-.75 5.4 1.35.15 2.7.15 3.9.15M37.3 48.25c.15-.75.3-1.65.45-2.4-1.35-.3-2.55-.6-3.9-1.05.3 1.05.75 2.1 1.2 3.15.75.15 1.5.3 2.25.3"/><path fill="#ff7bd0" d="m33.7 43.9 1.35.45c.9-.9 1.95-1.65 3-2.4 0-.3 0-.75-.15-1.05-1.65 0-3.15.15-4.65.6 0 .6.15 1.5.45 2.4M37.9 42.85c-.75.45-1.5 1.05-2.1 1.65.6.15 1.35.3 1.95.45.15-.6.15-1.35.15-2.1M35.35 53.65c2.55-.6 4.65-2.25 6-4.35-3 .15-6-.3-9-1.05-1.05-.45-2.1-.9-3.15-1.5.15 2.25.3 4.65.6 6.75 1.5.45 3.3.6 5.55.15M36.7 36.7c-.6-.15-1.05-.3-1.65-.3-2.25-.3-4.65.45-6.45 1.8.15 1.35.15 2.7.3 4.05 1.05-.6 2.25-1.2 3.3-1.5 1.8-.45 3.6-.75 5.4-.75-.15-1.05-.6-2.1-.9-3.3"/><path fill="#ff7bd0" d="M32.35 41.65c-1.2.45-2.25.9-3.3 1.65 0 .75.15 1.65.15 2.4 1.05.75 2.25 1.35 3.45 1.65.45.15.9.3 1.5.45-.9-2.1-1.5-4.05-1.8-6.15"/><path fill="#c2e203" d="M32.5 35.95c.9-.15 1.95-.3 2.85-.15.45 0 1.05.15 1.5.3.3-.45.6-.75.9-1.35.75-1.5.75-3.15.3-4.65-.3-1.05-.9-1.95-1.8-2.55q-.225-.225-.45 0c-1.5.6-2.7 1.65-3.45 3.15s-.75 3.15-.3 4.65c.15.15.3.45.45.6M47.95 44.65c-1.35-.9-3-1.2-4.5-.9h-.3q.225.9 0 1.8c0 1.05-.45 2.1-.9 3.15.3.15.45.45.75.6 1.05.6 2.1 1.05 3.3 1.05.45 0 .9 0 1.2-.15 1.05-.15 2.1-.75 2.85-1.5.15-.15.15-.3.15-.45-.3-1.35-1.2-2.7-2.55-3.6"/></g><g fill-rule="nonzero"><path fill="#ff7bd0" d="M85 143.2c.9 1.95 1.5 4.05 1.95 6.15 1.05-1.05 1.8-2.4 1.95-3.9.15-2.1-.6-4.05-2.1-5.55s-3.3-2.4-5.4-2.55h-.3c1.65 1.65 3 3.6 3.9 5.85"/><path fill="#ff7bd0" d="M84.4 143.95c-1.5 1.05-3.15 2.1-4.5 3h.15c.15 0 .3.15.45.15 1.65.45 3.45.6 5.1.6-.15-1.2-.6-2.55-1.2-3.75M80.95 140.95l-.6.45c.15.3.15.75.3 1.05 1.05-.15 1.95-.3 3-.6-.45-.75-.75-1.35-1.35-1.95-.45.3-.9.6-1.35 1.05M80.8 143.2c.15.6.45 1.2.75 1.8l2.7-1.8c-.15-.15-.15-.45-.3-.6-1.05.3-2.1.45-3.15.6"/><path fill="#c2e203" d="M90.4 130.45c0-.15-.15-.15-.3-.15-1.65 0-3.15.45-4.35 1.65s-1.8 2.55-1.95 4.2v.9c1.2.45 2.4 1.05 3.3 1.95 1.2-.45 2.4-1.35 3-2.4 1.2-1.95 1.35-4.2.3-6.15M88.3 152.8c-.3-1.05-.9-1.8-1.8-2.4-1.05.9-2.4 1.35-3.75 1.65 0 .9.3 1.65.75 2.4.75 1.2 2.1 2.1 3.6 2.1h.6c.15 0 .3-.15.3-.15.6-1.2.75-2.4.3-3.6"/><path fill="#ff7bd0" d="M77.95 142.6c.15-.15.15-.3.3-.3q1.575-1.575 3.6-3.15c-.45-.6-1.05-1.35-1.65-1.95h-.45c-.75.15-1.5.45-2.1.75.15 1.5.15 3 .3 4.65M79.6 142c-.3.3-.6.6-.9.75-.3.3-.6.6-.75.9 0 .75.15 1.5.15 2.25l.9.45 1.8-1.2c-.45-.9-.9-1.95-1.2-3.15M85.9 148.6c-1.8.15-3.75-.15-5.55-.6l-2.25-.9c0 1.35.15 2.7.15 3.75 1.2.6 2.55.9 4.05.75 1.35-.15 2.85-.75 3.9-1.65 0-.45-.15-.9-.3-1.35"/></g><g fill-rule="nonzero"><path fill="#c2e203" d="M63.4 122.65s0-.15 0 0c1.2-.6 2.25-.9 3.15-1.2.6-1.05 1.5-1.95 2.4-2.7-.15-2.1-1.2-4.2-3.15-5.55-1.05-.75-2.4-1.35-3.75-1.5-.15 0-.3 0-.3.15-1.2 1.65-1.65 3.75-1.35 5.7.3 2.1 1.35 3.9 3 5.1"/><path fill="#ff7bd0" d="M73.15 136c-3.3.45-6.75.3-10.05-.6-.3 1.05-.6 2.1-.75 3.15.9.75 1.95 1.35 3 1.8 2.55 1.05 5.4 1.5 8.1 1.2.3-1.8.15-3.75-.3-5.55M63.4 134.65c.9.3 1.95.45 2.85.6 1.2-1.95 2.7-3.6 4.5-5.1-.75-1.2-1.65-2.4-2.7-3.45l-2.7 3.6c-.75 1.5-1.35 2.85-1.95 4.35M71.2 130.9c-1.5 1.35-3 2.85-4.05 4.5 1.95.3 3.9.15 5.85-.15-.15-.6-.3-1.2-.6-1.8-.3-.9-.6-1.8-1.2-2.55M67.3 121.45h.9c1.05 0 2.1.15 3.15.3 1.35.3 2.7.75 3.9 1.5l-.9-5.85c-2.85.3-5.4 1.8-7.05 4.05"/><path fill="#ff7bd0" d="M75.7 124.75c-.3-.3-.6-.6-.9-.75-.9-.6-1.8-.9-2.85-1.2-1.2 1.05-2.4 2.25-3.45 3.45 1.95 2.1 3.6 4.35 4.65 7.05.9 2.7 1.35 5.55 1.2 8.4 1.05-.15 2.1-.3 3-.45-.45-6.45-1.05-12.15-1.65-16.5"/><path fill="#ff7bd0" d="M77.5 141.85c-2.7.45-8.1 1.05-12.3-.75-3.45-1.65-6.15-4.2-7.95-7.5-.6 4.05 0 7.65 1.95 10.2 1.65 2.25 4.65 3.75 7.95 4.2 3.6.45 7.95-.6 10.8-2.7z"/><path fill="#ff7bd0" d="M59.5 127.15c-.9 1.65-1.65 3.3-2.1 5.1 1.05 2.1 2.55 4.05 4.35 5.7.45-2.85 1.5-5.55 3-7.95 1.8-2.7 4.05-5.25 6.45-7.5-4.5-1.35-9.3.6-11.7 4.65"/><path fill="#ff7bd0" d="M56.65 132.25c.45-1.95 1.2-3.9 1.8-4.95.75-1.35 2.55-3.45 4.35-4.35v-.15c-.15-.15-5.85.45-8.4 4.05-1.35 1.95-1.8 4.5-1.35 7.2.45 2.55 1.8 4.65 3.6 5.85-1.05-3.9 0-7.5 0-7.65"/><path fill="#c2e203" d="M58.9 144.7c-1.05-1.2-1.65-2.55-2.25-4.2-3-.45-6.15.9-7.8 3.75-.75 1.2-1.05 2.55-1.05 3.9 0 .15.15.3.15.3 1.35.75 2.85 1.2 4.35 1.05.45 0 1.05-.15 1.5-.3 1.95-.45 3.6-1.8 4.65-3.6zc.15.15 0 0 0 0M70.45 148.9c-.6 0-1.05.15-1.65.15s-1.2 0-1.8-.15-1.2-.15-1.8-.45c-1.95 1.95-2.7 4.8-1.8 7.5.45 1.35 1.2 2.55 2.1 3.45 0 0 .15.15.3.15h.15c1.95-.6 3.6-1.95 4.5-3.75 1.05-1.8 1.2-3.9.6-5.85-.3-.3-.45-.75-.6-1.05"/></g><g fill="none" stroke="#db20a5" stroke-linecap="round" stroke-linejoin="round" stroke-width="1.2"><path d="M13.3 151.75c.75-13.05 3.6-27.6 7.8-43.05M37.3 158.95c.3-15.45 1.95-30.75 4.8-45.9M102.7 151.75c-.6-13.05-3.6-27.6-7.8-43.05M73.9 112.9c3.45 17.25 4.8 42.3 4.8 49.5M86.8 4c-3.45-1.05-14.25-2.25-14.25-2.25-.6 2.4-1.8 4.65-3.45 6.6-2.4 2.4-5.55 3.75-11.1 3.75s-9.6-1.35-11.85-4.2c-1.35-1.8-2.25-3.9-2.7-6 0 0-10.95 1.2-14.25 2.25 0 0-1.05 14.4-1.05 26.1C28.3 42.55 31 67 31 67c8.85 1.65 17.85 2.7 26.85 2.85h.45c9-.15 17.85-1.05 26.7-2.85 0 0 2.7-24.6 2.7-36.9C88 18.25 86.8 4 86.8 4"/><path d="M103.3 101.05A152 152 0 0 0 85 67l-27 2.85L31 67c-7.5 10.5-13.65 21.9-18.3 34.05C4.9 121.3 1.3 148.3 1.3 148.3c3.9 1.65 7.95 2.85 12.15 3.45v3.75c7.8 1.95 15.9 3.15 24 3.45v3.6c6.6 1.8 13.5 2.7 20.4 2.85h.45c6.9-.15 13.8-1.05 20.4-2.85v-3.6c8.1-.3 16.2-1.35 24-3.45v-3.75c4.2-.6 8.25-1.8 12.15-3.45 0 0-3.9-27-11.55-47.25"/></g><path fill="#db20a5" fill-rule="nonzero" stroke="#db20a5" stroke-linecap="round" stroke-linejoin="round" stroke-width="1.2" d="M58.15 72.4c17.4 0 28.2-3.6 28.2-3.6l-.9-5.1c-4.05 1.05-8.25 1.95-12.6 2.4-4.95.75-9.75 1.05-14.7 1.05H58c-4.95 0-9.9-.45-14.7-1.05-4.2-.45-8.4-1.2-12.6-2.4l-.75 5.1s10.8 3.6 28.2 3.6"/><g fill-rule="nonzero" stroke="#db20a5" stroke-linecap="round" stroke-linejoin="round" stroke-width=".96"><path fill="#ff7bd0" d="M61.75 72.25c.75 6.75 4.65 12.45 9 17.25h-4.8l-1.2 4.5s-10.5-10.65-10.5-21.75z"/><path fill="#fff" d="M54.25 67h7.5v5.25h-7.5z"/><path fill="#ffc0ec" d="M61.75 72.25c1.95.75 3.9 1.2 6 1.5 3.9.6 8.85.45 8.85-1.35v-5.55L61.75 67z"/><path fill="#ff7bd0" d="M61.75 67c2.85-1.05 5.85-1.8 8.85-2.4 4.8-.45 6 .6 6 2.25s-4.2 2.1-7.8 1.8c-2.4-.3-4.65-.9-7.05-1.65"/><path fill="#ffc0ec" d="M54.25 72.25c-1.95.75-3.9 1.2-6 1.5-3.9.6-8.85.45-8.85-1.35v-5.55l14.85.15z"/><path fill="#ff7bd0" d="M54.25 67c-2.85-1.05-5.85-1.8-8.85-2.4-4.8-.45-6 .6-6 2.25s4.2 2.1 7.8 1.8c2.4-.3 4.8-.9 7.05-1.65"/><path fill="#ffc0ec" d="M54.25 72.25c-.75 6.75-4.65 12.45-9 17.25h5.25l1.65 4.5s9.75-10.65 9.75-21.75z"/></g></g></svg>