<svg xmlns="http://www.w3.org/2000/svg" xml:space="preserve" viewBox="0 0 512 512"><path d="M344.472 53.552c-.016 0-.033.007-.049.008l3.397 15.422.011-.002c.153 0 .306-.077.459-.077a296 296 0 0 1 26.044-2.751h.459V50.345h-.001c-10.081.533-20.315 1.68-30.32 3.207M408.627 50.345h-.013v15.808h.471c8.707.535 17.49 1.452 26.044 2.751.153 0 .305.077.458.077l3.398-15.422c-.012-.001-.024-.006-.036-.006-10.006-1.528-20.241-2.675-30.322-3.208" style="fill:none"/><path d="m459.548 350.359-7.591 1.109-25.074 3.497-7.59 1.109v-.256c-1.279-10.916-3.071-21.833-5.544-32.494-.085-.256-.171-.427-.256-.598v-.17c-2.217-9.211-4.691-18.165-7.59-27.035l-.085-.085c0-.171 0-.171-.085-.171-1.876-5.97-4.179-11.77-6.397-17.484-1.877-4.435-3.753-8.87-5.799-13.134 0-.255-.171-.426-.171-.597v-.17c-3.411-6.994-7.079-14.159-10.917-20.896 0-.171 0-.256-.171-.426-5.373-9.468-11.429-18.849-17.825-27.718-.17-.085-.17-.256-.256-.341-2.729-3.668-5.459-7.336-8.358-11.002-3.497-4.35-6.994-8.614-10.832-12.708v-.085l-.256-.171c-1.876-2.218-3.923-4.35-5.885-6.397-1.791-1.961-3.582-3.752-5.458-5.628-3.923-3.924-7.847-7.762-12.026-11.429l-.256-.256c-7.505-6.822-15.608-13.135-23.71-19.19-.171-.085-.256-.085-.426-.171-2.132-1.535-4.264-3.069-6.397-4.519-2.303-1.621-4.691-3.241-7.164-4.777-1.705-1.023-3.411-2.217-5.202-3.241-2.9-1.876-5.97-3.667-8.955-5.372-.085-.085-.256-.085-.341-.085l-.085-.085c-6.823-3.924-13.987-7.592-21.066-10.917-.085 0-.341-.085-.512-.171-4.35-2.047-8.784-3.923-13.134-5.799-5.714-2.218-11.599-4.435-17.484-6.397-.085 0-.171 0-.256-.085-8.784-2.9-17.91-5.46-27.207-7.677-.17-.085-.341-.085-.682-.17-9.296-2.132-18.848-3.924-28.315-5.117-1.45-.171-2.815-.341-4.18-.512h-.256l.512-3.412.682-4.094 3.497-25.075 1.023-7.59a320 320 0 0 1 33.348 5.628c.256 0 .512.085.597.085 11.769 2.559 23.454 5.885 34.882 9.723h.171c6.311 2.132 12.622 4.606 18.934 7.164 4.179 1.706 8.273 3.327 12.537 5.289v.085c.085 0 .341.171.512.171 5.288 2.473 10.661 4.945 15.778 7.76 4.179 2.132 8.273 4.264 12.281 6.567.085.085.256.085.256.171l.085.085c9.808 5.628 19.275 11.599 28.401 18.251.171.171.256.171.341.256.085 0 .085.085.17.171 6.567 4.691 12.964 9.723 19.104 14.84 1.109.939 2.217 1.791 3.326 2.73 2.559 2.132 4.947 4.35 7.335 6.482l.341.34a311 311 0 0 1 12.281 11.599 225 225 0 0 1 11.599 12.282l.256.255c8.614 9.468 16.887 19.617 24.307 29.936.085.085.085.256.171.342l4.349 6.14c4.947 7.25 9.467 14.669 13.902 22.346l.085.085s0 .17.171.255c5.202 8.955 9.978 18.508 14.328 27.974q.128.383.256.511c1.877 4.264 3.668 8.358 5.373 12.622 2.474 6.227 4.947 12.623 7.079 18.935.085.085 0 .085.085.17 3.753 11.429 7.079 22.943 9.637 34.883.085 0 .085.341.171.512 2.39 11.002 4.267 22.259 5.631 33.347" style="fill:#d7ddc0"/><path d="M446.329 318.12a285 285 0 0 0-9.552-34.029v-.085c-2.132-6.226-4.35-12.537-6.908-18.677-1.706-4.264-3.582-8.529-5.458-12.708l-.085-.085c-4.264-9.381-8.87-18.507-13.987-27.377-4.264-7.336-8.784-14.669-13.56-21.663-1.535-2.218-3.07-4.52-4.691-6.738l-.085-.085c-7.335-10.149-15.181-19.957-23.625-29.253-3.838-4.179-7.591-8.187-11.684-12.197v-.084c-4.009-4.009-8.017-7.848-12.196-11.6-1.791-1.705-3.667-3.325-5.629-4.946l-.426-.427c-7.505-6.481-15.266-12.537-23.283-18.252l-.085-.085c-.256-.171-.512-.34-.768-.597-8.784-6.311-18.081-12.282-27.633-17.654-2.729-1.621-5.543-3.242-8.443-4.777a354 354 0 0 0-18.934-9.296c-4.264-1.963-8.443-3.753-12.793-5.544-6.141-2.559-12.452-4.691-18.678-6.909-11.173-3.752-22.516-7.078-34.029-9.551-11.002-2.388-22.175-4.264-33.348-5.545l-3.497 25.075c11.173 1.28 22.26 3.241 33.347 5.715 9.637 2.132 19.19 4.861 28.742 8.102a380 380 0 0 1 17.911 6.653c4.605 1.876 9.04 3.838 13.56 5.799 7.676 3.582 15.181 7.506 22.516 11.685 1.706 1.022 3.582 1.962 5.202 3.069 6.226 3.498 12.111 7.421 17.825 11.429.341.171.682.427 1.023.682 1.535.938 2.985 2.048 4.35 3.07 8.699 6.226 16.972 13.049 25.159 20.214 4.094 3.752 8.188 7.59 12.197 11.598l.085.085c4.009 4.008 7.761 8.018 11.599 12.197 5.202 5.971 10.234 11.94 15.01 18.166a1450 1450 0 0 0 5.203 6.994c6.567 9.04 12.708 18.507 18.251 28.4 4.18 7.249 8.017 14.755 11.6 22.431 2.047 4.521 3.923 9.04 5.885 13.56 2.388 6.056 4.605 12.026 6.567 17.995a289 289 0 0 1 8.188 28.742c2.388 11.002 4.264 22.089 5.714 33.177v.171l25.074-3.497v-.17c-1.367-11.087-3.243-22.261-5.631-33.178" style="fill:#d7ddc0"/><path d="M403.771 358.121v.171l-4.009.511-3.496.427-.085.085-25.245 3.581h-.085l-7.505 1.025v-.085l-.085-.171c-1.194-10.832-3.071-21.749-5.715-32.239-.085-.256-.17-.598-.256-.853v-.085c-1.28-5.117-2.729-10.32-4.521-15.436v-.341c-3.496-10.405-7.505-20.64-12.281-30.448-.085-.171-.17-.427-.256-.682-1.791-3.412-3.497-6.823-5.373-10.15-.085-.171-.171-.256-.171-.426-5.373-9.638-11.343-18.849-17.739-27.634-.171-.084-.171-.34-.341-.426l-.085-.085c-3.582-4.775-7.42-9.552-11.513-14.073v-.085c0-.085-.171-.256-.256-.426-3.582-4.009-7.249-7.932-11.257-11.855v-.085c-3.923-3.923-7.847-7.676-11.94-11.173-.085-.171-.256-.34-.426-.34-4.435-3.924-9.297-7.847-14.158-11.514l-.085-.085c-.085-.085-.256-.171-.426-.256a261 261 0 0 0-27.548-17.74c-.171-.085-.256-.085-.426-.17-3.412-1.962-6.823-3.668-10.235-5.373-.256-.085-.426-.256-.682-.341-9.723-4.691-19.957-8.87-30.448-12.195-.085 0-.17-.085-.256-.085-5.117-1.621-10.405-3.242-15.608-4.52-.255-.085-.512-.256-.767-.256-10.576-2.559-21.492-4.435-32.239-5.714l-.341-.085 1.023-7.506 3.667-25.33 1.023-7.504c11.173 1.193 22.516 3.24 33.432 5.799.171 0 .426.085.597.171a302 302 0 0 1 23.028 6.482c.085.085.256.085.256.085 10.661 3.581 21.322 7.846 31.471 12.537.171.085.427.256.597.341 5.715 2.729 11.514 5.714 16.972 8.785q.256.127.512.255c9.723 5.544 19.36 11.77 28.401 18.422.085 0 .256.085.341.256 6.993 5.032 13.816 10.661 20.383 16.374l.342.342a265 265 0 0 1 12.366 11.599 392 392 0 0 1 11.514 12.282l.426.34c1.45 1.706 2.9 3.241 4.264 5.032 2.815 3.327 5.629 6.738 8.188 10.15 1.364 1.706 2.644 3.497 3.923 5.202.085.171.171.342.256.427a278 278 0 0 1 18.336 28.4c.085.171.085.256.256.426 3.07 5.374 6.056 11.258 8.784 17.057.085.171.256.256.341.512a295 295 0 0 1 12.537 31.47c.085.085 0 .171.085.171a310 310 0 0 1 6.567 23.114c.085.17.085.511.085.596v.085c2.645 10.914 4.606 22.087 5.886 33.26" style="fill:#d7ddc0"/><path d="M390.38 325.967c-1.877-7.591-4.009-15.096-6.397-22.345l-.085-.085c-3.582-10.832-7.676-21.151-12.538-31.47-2.644-5.544-5.458-11.173-8.529-16.461-5.543-9.894-11.684-19.36-18.337-28.486-5.032-6.823-10.32-13.476-16.034-19.787-3.667-4.264-7.591-8.273-11.599-12.281-4.009-4.094-8.102-8.017-12.281-11.599-6.397-5.8-12.964-11.002-19.787-16.034l-.085-.085a248 248 0 0 0-10.917-7.591c-2.047-1.365-4.094-2.729-6.226-4.008-3.667-2.303-7.505-4.521-11.258-6.653-5.373-3.07-11.002-5.971-16.546-8.614-10.319-4.861-20.639-8.955-31.471-12.537h-.085a31 31 0 0 0-2.985-.938c-5.032-1.705-10.32-3.157-15.522-4.435-1.279-.427-2.473-.683-3.753-1.023-11.087-2.643-22.174-4.521-33.347-5.885l-3.667 25.33c11.258 1.195 22.431 3.157 33.347 5.971a208 208 0 0 1 17.228 4.861l.085.085c10.576 3.497 21.066 7.762 31.3 12.622 3.923 1.877 7.846 3.924 11.684 5.971v.085c9.808 5.459 19.36 11.514 28.486 18.252 5.288 4.008 10.49 8.102 15.522 12.622 4.18 3.667 8.358 7.42 12.367 11.514 4.009 4.009 7.847 8.188 11.514 12.367 4.435 4.946 8.529 10.234 12.622 15.436 6.737 9.211 12.793 18.678 18.166 28.486l.085.085c2.132 3.752 4.008 7.676 5.97 11.6l.085.084c4.861 10.15 9.04 20.64 12.623 31.301v.085c1.876 5.714 3.497 11.343 4.861 17.143 2.814 11.002 4.776 22.089 5.97 33.261v.085h.085l25.245-3.581c-1.276-11.259-3.237-22.345-5.796-33.348" style="fill:#d7ddc0"/><path d="m202.237 4.69-.597 4.265-5.032 36.161-1.791 12.879-1.023 7.506-3.497 25.245-1.109 7.589-2.132 15.608-.768 5.203-.341 2.388-3.667 25.416-1.024 7.59-10.661 75.65-.085.255-9.552 67.719v.256l-4.606 33.262-.597 4.008-1.876 13.135-.085.085-.171 1.961-.511 3.326-.683 5.289-1.194 8.016-.682 4.606-.938 6.652-.085.171-1.109 8.444-.171 1.363-.171.427v1.279l-.426 2.559-.171 1.365-.17 1.108-9.723 69.168-16.375-2.388h-.085l-17.058-2.387 1.792-12.453 2.814-20.298 1.45-10.064.085-.085v-.085l1.791-13.135.683-4.521 3.581-26.267.086-.086.255-1.45.512-4.521.085-.169.171-1.024v-.171l.086-1.194.255-1.45-6.055-6.055 8.017-8.016 1.024-6.568.597-4.691 4.52-31.812 1.449-10.661 20.64-146.608 1.024-7.506 3.667-25.33 1.023-7.504 2.132-15.609.512-3.411.683-4.094 3.496-25.075 1.024-7.59 1.023-7.25.171-1.108L168.889 0z" style="fill:#faf8f0"/><path d="m511.863 342.996-52.331 7.4-7.56 1.079-25.113 3.511-7.561 1.08-15.553 2.16-7.561 1.08-25.274 3.564-7.561 1.08-193.718 27.273-22.142 3.133-1.134.162h-.217l-1.134.162-4.536.648-1.512.215-7.561 1.081h-.108l-18.685 2.592-4.483.702-13.286 1.837-10.045 1.404-20.252 2.862h-.108l-12.475 1.782-2.376-17.066-2.376-16.418 69.234-9.72 1.081-.216 1.296-.108.054-.055h.216l3.943-.594h.216l1.295-.215 8.371-1.135h.108l6.697-.972 7.345-1.08 7.939-7.939 5.995 5.995 1.943-.216.054-.054 17.228-2.43 31.863-4.537 1.458-.162h.109l67.776-9.559 75.878-10.747 7.615-1.026 25.437-3.618 7.56-1.08 15.608-2.215 7.615-1.026 25.22-3.51 7.561-1.08 53.195-7.507z" style="fill:#faf8f0"/><path d="m279.166 33.433-4.265 11.683-12.963 35.14v.085l-2.644 7.164-8.785 23.794-2.729 7.165-5.373 14.755-2.644 7.249-8.87 24.05-2.644 7.165-18.677 50.489-32.666 88.87v.085l-11.087 30.107-1.279 3.241-1.621 4.435v.085l-3.07 8.188-4.861 13.305-.171.596-5.799 15.608v.085l-.768 1.961-.171.427-.511 1.45-1.109 3.156-.256.767-24.989 67.718-2.132 5.8-21.407-7.847-7.932-2.985-2.473-.938.17-.511 4.436-11.856 7.334-20.042 6.482-17.654.085-.171h.086v-.085l2.302-6.056 7.079-19.445 3.326-8.956 1.194-3.24v-.085l.939-2.474-.854-.853h-.085l-.512-.597-.255-.17-2.303-2.388h-.086l-.17-.256 9.296-9.297 2.73-7.419 9.722-26.611 4.52-12.024 27.804-75.651.085-.255 26.269-71.129 2.644-7.25 8.784-23.88 2.644-7.249 5.459-14.67 2.643-7.164 8.785-23.796 2.644-7.249 8.358-22.687 8.529-23.283z" style="fill:#fff"/><path d="m490.058 264.49-45.833 16.885-.181.061-7.237 2.653-23.822 8.745-6.934 2.593-.182.06-14.534 5.367-.181.061-7.236 2.653-23.883 8.805-7.055 2.593-.181.061-70.861 26.113-.422.181h-.121l-87.686 32.325-26.536 9.769-10.674 3.92-8.442 3.136-.483.121-3.859 1.447-3.258 1.206-9.046 3.378-.12-.001-19.299 7.117-6.09 2.231-.061.06-17.911 6.574-19.841 7.297-12.061 4.463-.543.18-.965-2.532-2.895-7.84-7.84-21.349 5.79-2.171 67.785-24.967.724-.241 1.689-.604 3.195-1.145.061-.06 2.11-.784 15.258-5.609.422-.181.181-.06 9.348-9.348 4.342 4.342 8.202-3.015.06-.061 4.403-1.628 3.196-1.145 30.214-11.157 89.013-32.808 50.417-18.574.06-.06 7.056-2.594 24.063-8.865 7.236-2.653.061-.06 14.654-5.368 7.237-2.653 23.761-8.805.06.06 7.177-2.714.06-.06 46.738-17.188 11.64 31.783z" style="fill:#fff"/><path d="m345.519 72.323-.852 1.28-2.389 3.752-23.027 35.991-4.179 6.482-11.685 18.337-1.961 3.07-4.009 6.397-8.528 13.39-4.094 6.397-13.731 21.407-4.18 6.396-45.457 71.386-.086.084-42.217 66.097-8.614 13.391-1.621 2.645-5.884 9.21-.086.086-7.931 12.367-.256.426v.085l-5.117 7.761-.085.171-9.041 14.328-1.45 2.303-2.217 3.325-.085.171-.939 1.45-29.935 46.908-8.188 12.793-.938 1.45-6.994-4.435-2.303-1.449-4.52-2.9h-.085l-10.491-6.653-.255-.171-3.667-2.473-.086.085-.085-.085-.086-.085.086-.085.426-.853 19.275-29.936 6.823-10.831h.085v-.086l15.352-23.881 1.023-1.62 5.885-9.297.085-.169.854-1.28.767-1.194.171-.17-1.28-1.195-1.109-1.193h.086l10.575-10.661 2.9-4.606 14.243-22.09 8.359-13.133 8.187-12.793v-.086l48.614-76.162 28.912-45.116 4.094-6.482v-.085l13.731-21.407 4.179-6.482 8.444-13.134 4.093-6.482 5.203-8.273 8.443-13.134 4.179-6.482 13.305-20.81 12.878-20.213 22.516 14.413z" style="fill:#faf8f0"/><path d="m457.793 194.835-40.888 26.173-.06-.06-.121.121-6.393 4.101-21.409 13.69-6.332 4.04-.181.06-13.087 8.383-.121.121-6.392 4.1-21.53 13.69-6.332 4.04-.121.121-44.749 28.586-.18.06-.121.121-76.226 48.728-25.993 16.585-22.133 14.172-8.925 5.669-8.805 5.668-1.267.784-1.388.905h-.12l-9.107 5.85-1.688 1.086-23.942 15.258-10.976 6.996-29.972 19.238-.844.482-.06.06-.06-.06-.06-.181-2.412-3.739-6.815-10.674-2.955-4.644-1.508-2.352-4.342-6.875 1.447-.964 12.846-8.142.06-.06 46.678-29.791 1.629-1.026 3.438-2.231 2.291-1.447 14.354-9.167h.12l6.453-4.161 10.674-10.674 2.292 2.292 1.327-.844.06-.06 9.227-5.85 2.714-1.749 13.327-8.503 3.318-2.111 62.78-40.104 71.403-45.592.121-.121 6.332-4.041 21.409-13.69 6.392-4.101 13.328-8.503 6.452-4.04 21.409-13.69 6.453-4.161.121-.121 40.949-26.113z" style="fill:#faf8f0"/><path d="M1.385 262.77h461.659v33.774H1.385z" style="fill:#fff" transform="rotate(-45 232.215 279.657)"/><path d="M212.727 428.994c-.512 2.388-1.194 4.691-1.876 6.994-.682 2.388-1.536 4.691-2.388 6.909-.853 2.302-1.876 4.605-2.9 6.737a94 94 0 0 1-3.326 6.567c-1.194 2.217-2.474 4.264-3.838 6.311-1.194 1.876-2.303 3.582-3.582 5.373a122 122 0 0 1-5.97 7.249c-1.45 1.706-3.07 3.412-4.691 5.032l-.085.085a73 73 0 0 1-5.458 4.947c-.256.427-.682.767-1.109 1.023-1.876 1.62-3.838 3.241-5.885 4.69h-.085c-1.791 1.45-3.753 2.73-5.714 4.008-.597.341-1.023.598-1.45.854a92 92 0 0 1-6.311 3.581 99.5 99.5 0 0 1-17.654 7.421c-2.047.597-4.094 1.193-6.141 1.705a144 144 0 0 1-8.273 1.791c-1.962.341-3.923.597-5.97.854-2.132.255-4.35.426-6.482.511h-.085c-1.109.085-2.047.085-3.156.085h-3.156c-.041 0-.084-.005-.125-.005-3.627.006-7.273-.133-10.877-.591-9.467-.939-18.763-3.242-27.718-6.823-1.62-.598-3.326-1.279-4.947-2.047s-3.326-1.536-4.947-2.388a4 4 0 0 0-.853-.427 58 58 0 0 1-5.032-2.814c-.426-.256-.853-.511-1.279-.853-7.079-4.264-13.731-9.468-19.787-15.523-6.396-6.397-11.94-13.56-16.375-21.066-3.241-5.373-5.885-10.917-8.102-16.545-9.467-24.819-9.467-52.452 0-77.185a108.1 108.1 0 0 1 24.477-37.611c14.669-14.67 32.494-24.308 51.258-28.743l38.465 38.465 7.164 7.165z" style="fill:#faf8f0"/><path d="M215.712 403.749a142 142 0 0 1-.256 8.529c-.512 5.544-1.365 11.173-2.644 16.631l-.085.085-84.264-84.263-7.164-7.165-38.465-38.465c11.087-2.559 22.43-3.496 33.773-2.559l98.763 98.763.256 3.581c.086 1.622.171 3.243.086 4.863" style="fill:#bbb790"/><path d="m333.92 201.79-.085.085.426.34zm0 0-.085.085.426.34zm-.085.085.426.34-.341-.426zm173.389 107.546-2.303.256-50.831 7.25c-.085-.171-.256-.427-.256-.598-2.644-11.77-5.799-23.454-9.637-34.797v-.256l45.799-16.887h.171l-11.77-31.728-46.738 17.143c0-.085-.17-.34-.255-.511a298 298 0 0 0-14.328-27.974c-.085-.17-.085-.255-.171-.34l40.852-26.184h.085l-13.987-22.004-4.179-6.567-.085.171-1.279.853-35.48 22.601-4.179 2.643c-.17-.171-.17-.256-.256-.342-7.42-10.319-15.608-20.468-24.222-29.936l-.341-.34 29.594-29.51 3.923-4.008.171-.085-11.94-11.939-.085.171-4.008 3.923-29.339 29.338-5.458 5.458-17.825 17.91-5.458 5.374-11.088 11.087-5.458 5.459-17.911 17.91-5.458 5.458-114.37 114.369-13.134 13.135-2.9 2.9-10.661 10.661-4.605 4.606-35.138 35.137-6.653 6.653-.17.171-36.844 36.845-.597.682-.085.084-34.371 34.286-2.217 2.217a113.7 113.7 0 0 0 14.414 12.197 109 109 0 0 0 5.202 3.412c.341.256.682.427 1.023.596 1.791 1.109 3.497 2.132 5.288 3.07.256.085.597.256.853.427 1.62.853 3.326 1.62 4.947 2.388s3.326 1.449 4.947 2.047a133 133 0 0 0 13.646 4.35c1.62.342 3.156.767 4.691 1.023s3.071.597 4.606.767c.767.085 1.535.256 2.388.341s1.62.256 2.388.342c1.535.17 3.156.255 4.691.34 2.132.256 4.264.256 6.311.256h3.156c1.109 0 2.047 0 3.156-.085h.085a83 83 0 0 0 6.482-.511c2.047-.256 4.008-.512 5.97-.854a144 144 0 0 0 8.273-1.791c2.047-.512 4.094-1.109 6.141-1.705 1.535-.512 2.985-1.024 4.52-1.536 4.435-1.706 8.87-3.668 13.135-5.885a93 93 0 0 0 6.311-3.581 74 74 0 0 1 1.45-.854c1.961-1.278 3.923-2.558 5.714-4.008h.085c2.047-1.449 4.009-3.07 5.885-4.69.426-.256.853-.596 1.109-1.023a74 74 0 0 0 5.458-4.947l.085-.085c1.621-1.62 3.241-3.325 4.691-5.032a122 122 0 0 0 5.97-7.249c1.279-1.791 2.388-3.497 3.582-5.373 1.364-2.047 2.644-4.094 3.838-6.311a95 95 0 0 0 3.326-6.567c1.024-2.132 2.047-4.435 2.9-6.737.853-2.218 1.706-4.52 2.388-6.909.682-2.303 1.364-4.606 1.876-6.994l.085-.085a102.3 102.3 0 0 0 2.644-16.631 142 142 0 0 0 .256-8.529c.085-1.62 0-3.241-.085-4.862 0-1.193-.085-2.387-.171-3.667l-9.211-9.126h-.085v-.084l157.184-22.174h.171l7.335-1.024h.171l25.16-3.496.085-.085 7.505-1.109h.085l15.437-2.132h.17l7.42-1.194h.085l24.989-3.496h.085l7.505-.939.085-.085 45.287-6.397 6.908-1.023h.17zM333.92 201.79l11.087-11.002v-.085l.171-.085c3.753 4.179 7.335 8.443 10.916 12.878 2.729 3.581 5.544 7.164 8.188 10.917l-.085.085-13.219 8.358c-.085 0-.085-.256-.256-.342-1.279-1.705-2.559-3.411-4.008-5.117a133 133 0 0 0-8.188-10.15c-1.364-1.791-2.815-3.325-4.264-5.032zm44.52 66.95c-2.815-5.8-5.714-11.599-8.87-17.057-.085-.085-.085-.256-.256-.342l13.134-8.358.17-.085c3.838 6.737 7.505 13.902 10.832 20.981h-.085l-14.669 5.457c-.171-.17-.171-.427-.256-.596m-43.582 4.69.085-.171c1.876 3.327 3.582 6.823 5.288 10.32l-50.149 18.422zm17.91 41.536.171-.085v.085c1.791 5.116 3.156 10.405 4.435 15.522h-.085l-75.309 10.661-.426.085zm60.725 7.59-15.522 2.217c.085-.256 0-.512-.085-.682-1.877-7.761-4.094-15.607-6.567-23.113v-.085l-.085-.085 14.584-5.372.17-.085.085.085c2.9 8.87 5.373 17.91 7.591 27.121zm-108.314-91.94c3.923 4.435 7.846 9.297 11.514 14.158l.085.085-.171.085-.085-.085-71.129 45.543zm28.741-28.826-.085.085.426.34zm-28.912 28.911v.085l.085-.085zm28.912-28.911-.085.085.426.34zm0 0-.085.085.426.34z" style="opacity:.1;fill:#040000"/></svg>