<svg xmlns="http://www.w3.org/2000/svg" xml:space="preserve" width="800" height="800" viewBox="0 0 512 512"><path d="M248 240V112H80c-8.836 0-16 7.164-16 16v128h168c8.837 0 16-7.163 16-16M432 112H264v128c0 8.837 7.163 16 16 16h168V128c0-8.836-7.164-16-16-16" style="fill:#3cb44a"/><path d="M264 240V112h-16v128c0 8.837-7.163 16-16 16H64v40c0 8.837 7.163 16 16 16h352c8.837 0 16-7.163 16-16v-40H280c-8.837 0-16-7.163-16-16" style="fill:#0e9247"/><path d="M496 200h-32c-8.837 0-16 7.163-16 16v80c0 8.837-7.163 16-16 16H80c-8.837 0-16-7.163-16-16v-80c0-8.837-7.163-16-16-16H16c-8.837 0-16 7.163-16 16v152c0 8.837 7.163 16 16 16h480c8.837 0 16-7.163 16-16V216c0-8.837-7.163-16-16-16" style="fill:#3f556b"/><path d="M460.422 392.845C462.39 396.78 467.6 400 472 400h16c4.4 0 8-3.6 8-8v-8h-40zM16 384v8c0 4.4 3.6 8 8 8h16c4.4 0 9.609-3.22 11.578-7.155L56 384z" style="fill:#35495c"/><circle cx="328" cy="160" r="8" style="fill:#73ae43"/><circle cx="392" cy="160" r="8" style="fill:#73ae43"/><circle cx="328" cy="208" r="8" style="fill:#73ae43"/><circle cx="392" cy="208" r="8" style="fill:#73ae43"/><circle cx="328" cy="160" r="8" style="fill:#0e9247"/><circle cx="392" cy="160" r="8" style="fill:#0e9247"/><circle cx="328" cy="208" r="8" style="fill:#0e9247"/><circle cx="392" cy="208" r="8" style="fill:#0e9247"/><circle cx="128" cy="160" r="8" style="fill:#0e9247"/><circle cx="192" cy="160" r="8" style="fill:#0e9247"/><circle cx="128" cy="208" r="8" style="fill:#0e9247"/><circle cx="192" cy="208" r="8" style="fill:#0e9247"/><path d="M432 312H80c-8.837 0-16-7.163-16-16v88h16v-40c0-8.837 7.163-16 16-16h320c8.837 0 16 7.163 16 16v40h16v-88c0 8.837-7.163 16-16 16" style="fill:#35495c"/><path d="M448 256c-8.837 0-16 7.163-16 16v16.001a8 8 0 0 1-8 8L64 296c0 8.837 7.163 16 16 16h352c8.837 0 16-7.163 16-16z" style="fill:#04803d"/></svg>