<svg xmlns="http://www.w3.org/2000/svg" width="119.418" height="126.462" viewBox="-0.42 0.427 119.418 126.462"><path fill="#006482" d="M42.418 67.947 26.505 80.604s.367 2.881 3.798 4.414c3.49 1.568 20.302 3.113 36.794 2.407s23.7-6.119 23.7-6.119z"/><path fill="#281446" d="M74.424 84.616H43.277l-3.993-16.452h39.134z"/><path fill="#dc785a" d="m68.89 89.199.399 14.971 10.259.353s.423-14.754.555-15.673z"/><path fill="linen" d="m68.698 110.466-.004-6.994 11.601.209-.276 6.508z"/><path fill="#00a0dc" d="m67.82 108.917.052 11.397 8.665 5.421 6.357-.446c.232-.939-2.995-.83-2.995-.83l.871-15.249z"/><path fill="#006482" d="M72.068 111.225a2.562 2.562 0 0 1 2.552 2.564 2.56 2.56 0 0 1-2.552 2.564 2.561 2.561 0 0 1-2.551-2.564 2.56 2.56 0 0 1 2.551-2.564"/><path fill="linen" d="M78.478 111.241c-.128.285-.268.562-.4.838h2.796l.399-.838z"/><path fill="#f0e6d2" d="M78.474 113.66q-.085.213-.188.402l-.212.425h3.171v-.843z"/><path fill="linen" d="M81.245 116.718v-.65h-3.171c-.135.281-.263.562-.399.843h3.474a1 1 0 0 0 .096-.193"/><path fill="#f0e6d2" d="M81.145 118.7q.053-.096.1-.192h-3.37a3 3 0 0 0-.08.184q-.146.33-.292.659h3.335c.1-.225.199-.438.307-.651"/><path fill="linen" d="M77.619 121.77h3.231c.135-.277.263-.558.399-.838h-3.378c-.088.276-.168.557-.252.838"/><path fill="#281446" d="M75.183 125.145c-.491-5.538-7.292-4.847-7.292-4.847v6.091h14.875l.144-1.116zM85.718 94.708l.443-19.995-21.304.028.059 19.987z"/><path fill="#dc785a" d="m48.975 89.199-.399 14.971-10.259.353s-.423-14.754-.559-15.673z"/><path fill="linen" d="m49.171 110.466.004-6.994-11.605.209.28 6.508z"/><path fill="#00a0dc" d="m50.065 108.917-.051 11.397-8.666 5.421-6.357-.446c-.232-.939 2.995-.83 2.995-.83l-.867-15.249z"/><path fill="#006482" d="M45.801 111.225a2.562 2.562 0 0 1 2.551 2.564 2.56 2.56 0 0 1-2.551 2.564 2.561 2.561 0 0 1-2.552-2.564 2.56 2.56 0 0 1 2.552-2.564"/><path fill="linen" d="M39.387 111.241c.128.285.268.562.4.838h-2.796l-.399-.838z"/><path fill="#f0e6d2" d="M39.395 113.66q.082.213.188.402l.208.425H36.62v-.843z"/><path fill="linen" d="M36.62 116.718v-.65h3.175q.196.422.399.843h-3.47z"/><path fill="#f0e6d2" d="m36.72 118.7-.1-.192h3.374c.024.06.052.12.076.184q.145.33.296.659h-3.339a13 13 0 0 0-.307-.651"/><path fill="linen" d="M40.238 121.77h-3.235c-.135-.277-.263-.558-.399-.838h3.378c.1.276.18.557.256.838"/><path fill="#281446" d="M42.686 125.145c.487-5.538 7.288-4.847 7.288-4.847v6.091H35.115l-.144-1.116zM32.383 94.708l-.679-19.995 21.308.028-.063 19.987z"/><path fill="#dc5050" d="M25.902 87.594c1.398 4.895 6.266 10.032 4.457 13.125-.895.121-1.598-.317-2.185-.75-1.106-1.408-1.941-2.624-2.46-4.334-.127-.06-1.042-1.685-2.611-.618s-3.966 2.456-7.743.245c-3.466-2.034-5.938-5.393-5.695-9.631.216-3.719 2.129-7.259 5.938-8.025 2.919-.602 5.475-.285 7.731 1.156 3.127 1.974 1.174 3.94 2.568 8.832"/><path fill="#dc785a" d="M3.268 111.177c1.961.654 0-8.889 3.622-9.194s2.608 5.161 3.119 7.625c.359 1.721.159 4.297 2.396 4.698 2.24-1.894.463-11.974 3.933-12.816s3.195 6.657 4.245 8.322c2.652 4.274 2.44-8.158 2.368-8.94-.671-7.026 2.568-21.99 8.015-27.287 5.446-5.297 15.106-6.625 15.106-6.625l-6.597-22.234c-3.454 2.166-19.415 1.167-32.657 22.25-11.193 17.829-5.507 43.542-3.55 44.201"/><path fill="#dc5050" d="m94.471 98.304-.459.277c.063 1.464-1.294 6.994-3.646 6.572-2.049-.369.215-6.372.531-7.624.691-2.781 1.429-5.216 1.134-8.089s.052-6.168 2.332-8.106 11.061-2.757 12.779 5.329c1.693 7.985-4.725 15.308-12.671 11.641"/><path fill="#dc785a" d="M94.012 92.2c2.152 12.813.69 17.203 1.373 19.314.879 2.724 2.356 1.545 3.195-.43.567-1.312 1.793-11.259 5.047-7.275.975 1.204 1.402 3.138 1.522 4.551.192 2.203-.579 5.26.934 7.05 3.059.823 2.584-3.439 3.111-5.867.284-1.304-.052-8.527 3.546-8.19s1.597 9.872 4.852 9.583c.495-.04 1.901-17.616-.268-28.089-2.851-13.724-9.983-21.545-14.499-25.048C89.954 47.831 79.476 46.042 76.96 45.4l-3.969 21.644c2.631.354 8.062 2.681 13.521 7.942 4.916 4.735 6.481 11.151 7.5 17.214M71.126 44.87l-2.424 10.666-27.302.052 2.248-10.878z"/><path fill="#006482" d="m72.767 43.899 4.605.233 10.414 30.934zM42.79 43.61l-5.176.177-7.711 28.735z"/><path fill="#00a0dc" d="m90.797 81.306-16.556-38.96-6.258.169s.987 9.309-10.678 9.341c-8.358.024-9.667-9.173-9.667-9.173l-7.017-.602-14.116 38.523z"/><path fill="#dc785a" d="M66.837 33.329c-.12-.192.567-5.256 1.33-6.753.675-1.324 2.644-2.681 4.037-1.866 1.725 1.015 1.17 3.531.4 4.892-1.127 2.01-3.614 3.073-5.767 3.727M48.512 33.329c.124-.192-.567-5.256-1.33-6.753-.675-1.324-2.643-2.681-4.037-1.866-1.725 1.015-1.17 3.531-.399 4.892 1.142 2.01 3.63 3.073 5.766 3.727"/><path fill="#ffc800" d="M65.951 15.1c1.645 2.576 10.71-5.759 11.98-6.906-.895-3.532-3.594-5.43-7.021-6.276a23 23 0 0 0-3.274 6.673c-.659 2.038-1.629 4.35-1.685 6.509"/><path fill="#006482" d="m61.714 15.348 5.107 4.816s3.059-2.476.256-5.217-5.363.401-5.363.401"/><path fill="#ffc800" d="M49.235 14.831c-2.117 2.203-9.388-7.753-10.423-9.129 1.566-3.287 4.565-4.623 8.103-4.775a23 23 0 0 1 1.952 7.19c.228 2.127.731 4.583.368 6.714"/><path fill="#006482" d="m53.34 15.906-5.946 3.728s-2.52-3.026.767-5.176 5.179 1.448 5.179 1.448"/><path fill="#ffc800" d="m69.425 20.469-23.433-.057s.184-6.127 12.28-6.051c9.512.076 11.153 6.108 11.153 6.108"/><path fill="#dc785a" d="M46.831 22.756c-.172.341-.268 3.972-.439 4.318-.048.955-.468 1.829.239 4.165a35 35 0 0 0 2.432 5.421c1.046 1.481 2.684 3.118 4.393 3.796 3.306 1.324 7.507.963 10.286-1.011 3.315-2.356 4.445-6.421 4.976-10.365.244-1.818 1.198-4.647.915-6.473z"/><path fill="#dc5050" d="M59.649 27.234c-.072 1.798-4.428 2.576-4.304-.309s-.044-4.791 1.968-4.815 2.4 3.314 2.336 5.124"/><path fill="#ffc800" d="m65.551 24.06 3.399 5.024.814-4.928zM49.638 24.06l-3.394 5.024-.819-4.928z"/><path fill="#00a0dc" d="M70.551 26.05c.399-1.693.799-5.116-.284-6.268h-24.51c-1.122.903-1.35 4.94-1.25 6.553z"/><path d="M60.3 31.106s-.615 1.204-2.931 1.116-2.767-1.076-2.767-1.076zM64.693 28.498c-.687.955-1.418-.626-.655-1.308.495.044.667.401.655 1.308M51.12 28.55c-.499-.212-.46-.658-.543-1.059l.65-.498c.727.241.576 1.397-.107 1.557"/><path fill="#006482" d="m70.902 24.558-26.619-.008.348-3.279 26.271-.104z"/></svg>