<svg xmlns="http://www.w3.org/2000/svg" width="60.607" height="109.677" viewBox="0 0 60.607 109.677"><g fill="none" stroke-miterlimit="10" data-paper-data="{&quot;isPaintingLayer&quot;:true}" font-family="none" font-size="none" font-weight="none" style="mix-blend-mode:normal" text-anchor="none"><path fill="#ff9cd1" d="M24.632 72.811c-1.516 7.279-1.482 11.826-.135 19.07.773 4.104 1.616 6.801 3.905 9.905 1.073 1.456-1.92 3.028-3.637 2.81-1.212-.147-2.492-2.589-.472-3.623-.639-2.105-2.155-2.662-3.097-4.582-2.255-4.619-3.367-7.393-3.703-12.641-.235-3.809.775-12.418 1.75-13.307 1.382-1.255 3.874 1.257 5.39 2.368"/><path fill="#272525" d="M25.646 101.555c-.515.159-2.073.858-2.073.858s.036.67.57 1.229c1.095 1.146 3.557-.063 3.544-1.609-7.703-10.1-5.368-29.9-3.146-29.23.626.801.38.695.224 1.635-1.808 10.822-.938 22.177 6.474 30.158-.883 4.831-16.263 6.344-15.9 3.99.741-4.803 7.204-7.168 8.448-7.863-8.117-7.408-7.252-25.949-5.276-30.439l1.426-.463c-2.835 17.506-.608 23.861 5.71 31.734"/><path fill="#ff5ba1" d="m28.604 103.579 1.053 1.285c-3.506 3.339-12.864 3.885-12.568 2.688.16-.643 1.29-1.44 1.715-1.905 3.188 1.39 3.613.72 3.887-2.722 2.194 4.905 4.707 1.059 5.913.654"/><path fill="#ff9cd1" d="M21.796 103.508c.02 1.646-.842 1.551-1.952 1.111.675-.327 1.202-.973 1.952-1.111"/><path fill="#ff9cd1" d="M41.335 70.443c1.23-.334 1.984 9.498 1.75 13.307-.336 5.248-1.447 8.022-3.702 12.641-.945 1.92-2.457 2.477-3.098 4.582 2.018 1.034.74 3.476-.472 3.623-1.717.218-4.71-1.354-3.638-2.81 2.29-3.104 3.132-5.801 3.904-9.905 1.346-7.244 1.383-11.791-.134-19.07 1.517-1.111 4.307-2.072 5.39-2.368" data-paper-data="{&quot;origPos&quot;:null}"/><path fill="#272525" d="m40.792 70.446 1.274-.162c1.978 4.49 2.843 23.031-5.275 30.439 1.243.695 7.708 3.06 8.45 7.863.361 2.354-15.018.841-15.902-3.99 7.411-7.981 8.283-19.336 6.474-30.158-.155-.94-.4-.834.223-1.635 2.222-.67 4.558 19.13-3.145 29.23-.013 1.546 2.45 2.755 3.545 1.609a2.13 2.13 0 0 0 .568-1.229s-1.556-.699-2.072-.858c6.317-7.873 8.694-13.602 5.86-31.109"/><path fill="#ff5ba1" d="M37.886 102.925c.274 3.442.7 4.112 3.887 2.722.427.465 1.556 1.262 1.715 1.905.298 1.197-9.06.651-12.568-2.688l1.053-1.285c1.207.405 3.718 4.251 5.913-.654"/><path fill="#ff9cd1" d="M40.732 104.619c-1.109.44-1.972.535-1.953-1.111.752.138 1.28.784 1.953 1.111"/><path fill="#272525" d="M14.666 8.351c-.15 1.165-1.042 1.756-2.086 1.996-1.919.462-1.128 4.158-3.097 4.361-1.01.112-1.549-.61-2.559-.443-1.228.204-1.094 1.978-2.289 2.366-1.095.351-2.492.443-2.829-.739-.27-.961.202-1.57.337-2.587-.186-.998-1.314-.813-1.887-1.626-.605-.869-.049-2.014.742-2.661 1.128-.925 2.744-.167 3.367-1.552.235-.517.033-.943.202-1.479.658-2.088 3.316-1.847 5.116-.813.776.445 1.28-.629 2.155-.739.96-.129 2.003.277 2.155 1.331.151 1.052.807 1.552.673 2.585"/><path fill="#272525" d="M15.956 10.704c-.575.316-3.125.051-3.68-.711-.66-.908.641-4.403 1.53-4.647.703-.193 2.98.934 3.167 1.861.072.361-.14 3.016-1.017 3.497"/><path fill="#ff9cd1" d="M15.88 9.979c-.339.186-2.459-.11-2.728-.479-.269-.372.707-3.18 1.111-3.291.403-.111 2.155.887 2.222 1.22.066.332-.27 2.365-.606 2.55"/><path fill="#272525" d="M46.252 6.471c0-1.129.643-2.176 1.67-2.226.863-.032 1.223.9 2.086.851.73-.049.941-.701 1.61-1.047 1.966-1.02 3.353-.229 3.516 1.375.194 1.93 3.608 1.341 3.4 3.273-.075.719-.747.981-.656 1.702.06.572.655.572 1.072.916.596.49 1.344 1.239 1.39 2.074-.357 1.178-.836 1.963-1.908 2.356-1.046.376-2.195-.945-3.179-1.421-.804-.391-1.235.688-2.087.917-1.206.328-2.727.082-2.979-1.244-.166-.867.117-1.897-.658-2.16-.908-.294-1.997-.146-2.207-1.177-.13-.704.478-1.277.062-1.833-.4-.54-1.327 0-1.55-.654-.207-.638.418-1.014.418-1.702"/><path fill="#272525" d="M42.813 7.207c.187-.928 2.461-2.055 3.166-1.861.888.244 2.191 3.739 1.53 4.647-.556.762-3.107 1.027-3.68.711-.878-.481-1.09-3.136-1.016-3.497"/><path fill="#ff9cd1" d="M43.3 7.429c.066-.333 1.817-1.331 2.222-1.22s1.381 2.919 1.112 3.291c-.27.369-2.393.665-2.729.479-.337-.185-.673-2.218-.606-2.55"/><path fill="#272525" d="M13.59 17.247c-1.09-.778-1.475-2.257-.858-3.301.618-1.043 2.004-1.259 3.096-.48 1.09.778 1.474 2.257.857 3.3-.618 1.044-2.004 1.26-3.095.481" data-paper-data="{&quot;origPos&quot;:null}"/><path fill="#cf8c6e" d="M16.496 16.543c-.375.634-1.26.732-1.978.221-.716-.512-.996-1.44-.62-2.072.374-.633 1.26-.733 1.977-.221.718.51.995 1.438.621 2.072" data-paper-data="{&quot;origPos&quot;:null}"/><g data-paper-data="{&quot;origPos&quot;:null}"><path fill="#272525" d="M43.165 16.766c-.617-1.043-.23-2.522.858-3.3 1.092-.779 2.478-.563 3.095.48.618 1.044.233 2.523-.857 3.301-1.092.779-2.477.563-3.096-.481"/><path fill="#cf8c6e" d="M43.976 14.471c.717-.512 1.603-.412 1.98.221.372.632.094 1.561-.623 2.072s-1.603.413-1.978-.221c-.376-.634-.098-1.562.621-2.072"/><path d="M43.165 16.766c-.617-1.043-.23-2.522.858-3.3 1.092-.779 2.478-.563 3.095.48.618 1.044.233 2.523-.857 3.301-1.092.779-2.477.563-3.096-.481"/><path d="M43.165 16.766c-.617-1.043-.23-2.522.858-3.3 1.092-.779 2.478-.563 3.095.48.618 1.044.233 2.523-.857 3.301-1.092.779-2.477.563-3.096-.481"/></g><path fill="#ff5ba1" d="m23.016 50.189-.404-22.767 3.097-1.331c-1.144 3.03.875 6.505 3.771 7.392 3.1.924 5.15-3.29 5.388-6.8 2.423 1.109 2.354.591 2.558 3.474.268 3.697-1.09 19.163.81 19.441 2.02.295 3.937-.333 6.06.887 2.187 1.256 3.096 2.882 5.52 3.252 3.638.592 4.344 4.324 6.733 7.393 2.054 2.623 4.074 7.872 1.077 8.871-2.93.996-5.588-1.221-7.943 1.033-2.693 2.589-5.96-1.59-9.156.148-1.482.812-2.258 1.885-3.906 1.773-1.717-.148-2.456-1.626-4.174-1.479-2.729.222-4.208 3.179-6.734 2.07-2.457-1.109-3.534-3.438-6.193-3.253-1.785.11-2.896 1.071-4.58.44-1.414-.516-1.75-2.104-3.23-2.362-1.65-.297-2.627.664-4.31.591-1.988-.074-1.482-3.068-2.29-5.025-.708-1.738-2.626-2.219-2.426-4.141.27-2.699 2.66-3.807 5.117-3.99 3.468-.261 4.208-5.026 7.676-5.026 2.994.003 4.744.927 7.54-.591"/><path fill="#272525" d="M17.105 66.469c.098-3.571 4-2.821 5.52-4.1 1.237-1.041.071-2.862.18-4.09.158-1.78 1.748-2.55 2.91-3.23-.72 1.404-1.113 1.887-.914 3.867.907 8.979-3.974 3.621-4.662 8.213-.93 1.017-3.082 1.211-3.034-.66M35.284 56.435c6.403 1.745 2.495 3.793 2.942 6.188 1.477.999 3.541.863 4.551 2.65.5.887 1.3 3.972-.7 3.42-.399-.108-.847-.675-.909-1.112-.377-2.579-1.902-2.78-3.607-4.037-2.69-1.985 2.164-4.125-2.277-7.109M9.553 62.838c5.87-.322 3.923-5.544 8.621-6.634.6.019.993-.116.963.601-.057 1.346-2.11.954-2.78 2.016-.964 1.529-1.43 5.134-5.744 6.195-2.123.522-2.542-2.098-1.06-2.178"/><path fill="#cf8c6e" d="M28.538 22.916c.925-.02 1.43-.389 2.356-.444 1.077-.054 2.323-.701 2.761.37.438 1.072-.604 1.848-.402 3.031 4.174 0 5.571 3.955 8.348 7.392 1.686 2.088 2.813 9.629 2.561 11.458-.674 4.657-1.889 7.762-4.512 11.014-1.324 1.637.96 3.251 1.414 5.396.182.924.182 2.289-.674 2.289-.927 0-1.095-1.051-1.886-1.623-.084 1.254.05 2.585-1.01 3.028-1.06.445-1.009-1.753-1.952-2.438-.758.832-1.533 2.531-2.289 1.7-.76-.832-.17-1.94.2-3.03.405-1.183 1.432-2.239.674-3.179-.674-.831-1.685-1.09-1.685-2.219 1.514-.277 2.76.63 3.904-.44 1.296-1.222 1.65-2.128 2.356-3.846 1.297-3.104 1.314-5.895.674-9.239-.3-1.607-.757-2.162-1.817-3.326-1.144-1.257.436-8.021-.27-10.349-.336-1.109-1.43-1.018-2.357-1.627-.354 1.609-.199 2.569-.673 4.14-.607 2.033-2.339 3.234-4.24 2.809-3.166-.722-5.118-3.567-5.118-7.097l-2.222.666c-.253 3.64.521 9.775.336 10.57-.287 1.182-2.76 4.139-3.77 7.317-1.11 3.493.151 6.376 2.422 9.165 1.247 1.535 2.09 2.256 3.435 3.623 1.23 1.257 2.542-1.034 4.242-1.034.185 1.701-.169 2.421-1.078 3.769 1.213 1.184 2.694 1.479 2.762 3.254.05 1.495-2.205-.224-3.569-.224.455 1.014 1.027 3.456 0 3.401-1.213-.076-1.499-1.44-1.953-2.662-.758.924-1.028 2.218-2.155 2.144-1.48-.591.067-2.384.404-3.844.152-.665.536-1.449 0-1.772-3.164-1.924-6.53-6.358-7.406-8.132-1.213-2.478-2.07-4.047-2.155-6.875-.167-5.451.893-8.944 3.973-13.305 1.498-2.125 2.356-3.381 4.443-4.804 1.617-1.11 4.747-1.904 3.637-3.549-.303-1.036 1.297-1.442 2.291-1.478" data-paper-data="{&quot;origPos&quot;:null}"/><path fill="#272525" d="M34.146 25.249c6.481 3.084 9.668 9.549 10.248 13.642 1.155 8.183-.896 11.272-4.715 18.251.811 2.024 2.521 4.148 1.547 6.479-.736.405-1.873-.31-2.369-1.078-.37 2.83-1.979 4.437-3.237.979-.704.592-.729 1.439-1.763 1.439-3.042.004-.526-4.954-.188-6.445-1.01-.675-3.13-2.555-1.42-3.979 1.46-1.216 2.642 2.595 4.485-.604 3.388-5.865 3.574-11.067 1.121-13.354-.076 2.368.537 10.217.444 11.162-.093.942-1.354 1.108-1.413.258-.06-.853-.212-22.468-.174-23.215s.777-.899.896.279c.117 1.177.018 6.416.23 9.225 4.982 2.952 1.993 14.429-1.902 18.351-.71-.102-2.475-1.256-3.066-.434.261 1.093 1.662.977 2.3 1.99-.497 1.656-1.189 3.256-1.437 4.992 0 0 .09.953.48.39.925-1.353 1.376-2.481 2.27-4.28 0 0-.256 3.801.574 5.17.955.18.625-4.646.623-5.266.473.451 1.834 3.152 2.713 3.734 1.646-1.312-2.334-4.431-1.565-6.133 1.912-4.234 3.218-3.564 4.405-8.33 1.23-4.931-.107-18.789-10.455-22.347-.168-1.036-.125-3.104-.125-3.104l1.336.184z"/><path fill="#272525" d="M27.046 26.109c-4.95 1.417-8.83 6.719-10.755 11.709-3.625 9.394.184 18.502 8.407 23.536-.538 1.328-1.479 2.871-1.422 4.724 0 0 .185.504.488.165.856-.958 1.654-3.529 1.654-3.529.182.621 1.261 3.484 1.634 3.809.16.14.411.252.386-.295-.063-1.396-.523-2.785-.799-4.088 0 0 2.9 2.127 3.297 1.92 1.128-.586-2.134-2.97-2.445-3.267.272-.996 1.454-1.384 1.525-2.541.03-.478-.55-.577-.55-.577-1.365.707-1.549 2.764-3.15 1.135-4.585-4.66-7.886-6.547-6.397-13.77.46-2.232 1.61-5.503 3.446-6.674-.02-1.292-.108-10.293-.022-10.57.18-.572.893-.466 1.04.09 0 0 .477 24.156.41 24.913-.069.759-1.196.415-1.314-.237-.12-.656-.06-12.502-.06-12.502-4.37 5.938-2.396 14.596 3.897 17.971 2.425-2.534 5.121-1.647 2.598 2.395 3.352 2.289 4.136 7.065-.853 3.725-.02.867.97 3.182-.58 3.806-1.233.498-1.827-2.116-2.168-2.706-.818 1.611-1.787 2.35-2.296 2.021-.732-.473-1.144-2.735.811-5.824-13.46-8.79-14.04-25.286-.858-34.66.94-.667 1.93-1.062 2.924-1.598.197-.851.05-1.851.05-1.851l1.371-.244z"/><path fill="#272525" d="M24.795 47.151c-.803 0-.68-1.32-.102-1.32s9.917-.24 10.786-.24c.87 0 .883 1.543.051 1.543-.833.001-9.932.017-10.735.017M36.011 51.041c.525 0 .677.877-.05.877-.725 0-10.446.158-11.094.158s-.84-1.146-.134-1.146c.705 0 10.75.111 11.278.111"/><path fill="#272525" d="M11.244 52.111c.224-1.293 2.196-1.697 3.676-1.782 0 0 1.117 1.996 1.625 2.071-1.408-.656-2.913-1.202-3.426-.215-1.347 2.588-3.01 3.978-4.835 4.016-2.543.053-5.243 2.674-3.932 5.395.766 1.59 2.461 1.969 2.147 4.293-.472 3.495 5.395.281 7.164 2.135 1.137 1.189 2.462 2.328 4.162 1.873 1.856-.5 3.313-.846 5.157.068 1.121.555 1.947 2.189 3.14 2.582 3.211 1.055 4.412-3.433 9.051-1.109 2.472 1.233 5.39-2.649 7.915-1.496 2.062.944 3.152 2.113 5.49.859 1.498-.799 2.527-2.547 4.344-1.926.98.337 3.086.605 3.967-.088 3.786-2.979-1.822-7.723-3.298-9.57-.876-1.099-.598-2.693-2.016-3.605-2.538-1.631-4.104-.198-6.36-3.401-1.056-1.498-1.908-.418-2.933-.699.286-.612.61-1.174.92-1.741 4.054.055 4.39 3.528 5.353 3.401 1.924-.249 4.323-.465 5.535 1.634.67 1.163.574 2.78 1.221 3.877 2.027 3.457 6.42 2.812 5.03 8.764-1.368 5.855-5.907 1.933-9.276 3.186-1.219 1.873-3.553 3.977-5.81 3.244-1.782-.576-3.043-4.039-5.233-1.934-4.08 3.923-5.91-.52-7.858.318-2.395 1.03-2.23 3.405-5.79 2.795-3.05-.525-5.077-5.008-6.912-3.979-4.603 2.585-6.458-2.635-8.447-2.026-1.143.351-2.072 1.554-3.702.896-3.683-1.487-.865-3.641-4.063-6.01-1.076-.797-1.675-3.41-1.374-4.648 2.213-9.172 8.165-1.342 9.368-7.178"/><path fill="#272525" d="M45.893 57.16c.284 7.557 8.412 4.461 8.51 8.514.006.256-.389 1.338-.568 1.508-2.018 1.916-1.782-3.629-3.904-3.805-1.654-.137-3.058.34-4.404-1.115-1.465-1.58.791-2.498-2.21-5.563-1.557-1.587 2.53-.719 2.576.461" data-paper-data="{&quot;origPos&quot;:null}"/><path fill="#272525" d="M15.552 12.492a3.07 3.07 0 0 1-.91-3.03c.307-1.22 1.675-.592 2.036-1.773.295-.962.014-1.738.375-2.663.522-1.312 1.567-1.663 2.626-1.331 2.077.666 1.418-2.051 3.43-3.03 1.821-.886 2.571.906 3.428 1.036C27.65 1.867 28.038 0 29.967 0s2.225 1.867 3.336 1.7c.857-.13 1.608-1.921 3.43-1.036 2.013.98 1.354 3.696 3.432 3.031 1.06-.332 2.104.019 2.624 1.331.362.924.081 1.7.376 2.662.361 1.182 1.73.554 2.036 1.773a3.07 3.07 0 0 1-.91 3.03z"/><path d="M13.59 17.247c-1.09-.778-1.475-2.257-.858-3.301.618-1.043 2.004-1.259 3.096-.48 1.09.778 1.474 2.257.857 3.3-.618 1.044-2.004 1.26-3.095.481"/><path d="M13.59 17.247c-1.09-.778-1.475-2.257-.858-3.301.618-1.043 2.004-1.259 3.096-.48 1.09.778 1.474 2.257.857 3.3-.618 1.044-2.004 1.26-3.095.481"/><path fill="#272525" d="M15.071 15.08c0-5.43 6.662-9.831 14.88-9.831s14.88 4.401 14.88 9.831-6.662 9.831-14.88 9.831-14.88-4.401-14.88-9.831" data-paper-data="{&quot;origPos&quot;:null}"/><path fill="#cf8c6e" d="M43.28 15.08c0 3.814-5.185 8.796-13.329 8.796-8.147 0-13.33-4.982-13.33-8.796s5.182-8.128 13.33-8.128c8.146 0 13.328 4.315 13.328 8.128"/><path fill="#272525" d="M35.65 26.524c-.213 3.159-.543 6.558-3.767 7.658-1.364.466-3.699.034-4.93-.926-1.907-1.487-2.26-5.164-2.179-7.301.155-.32 1.066-.66 1.272.002-1.483 6.566 7.623 11.839 8.49.202.394-.075.784.146 1.114.365"/><g fill="#272525" data-paper-data="{&quot;origPos&quot;:null}"><path d="M29.703 16.277h.04c1.212-.018 1.447-.818 1.53-1.17.081-.358.893-.469.957.008.033.245-.47 2-2.488 2.022h-.037c-2.023-.02-2.523-1.777-2.49-2.022.065-.477.877-.366.96-.009.08.352.318 1.152 1.528 1.171M23.44 17.935s2.318 1.11 6.35 1.11 6.353-1.11 6.353-1.11c0 1.062-2.318 4.897-6.353 4.897-4.032 0-6.35-3.836-6.35-4.897M23.125 11.808c0-.816.498-1.478 1.111-1.478.614 0 1.111.662 1.111 1.478s-.497 1.478-1.11 1.478-1.112-.662-1.112-1.478M34.235 11.808c0-.816.498-1.478 1.111-1.478.614 0 1.111.662 1.111 1.478s-.497 1.478-1.11 1.478-1.112-.662-1.112-1.478" data-paper-data="{&quot;origPos&quot;:null}"/></g></g></svg>