<svg xmlns="http://www.w3.org/2000/svg" width="68.697" height="66.176" viewBox="-0.03 -0.219 68.697 66.176"><path fill="#272525" d="M34.319.096c9.39 0 17.898 3.672 24.059 9.605 6.16 5.933 9.974 14.126 9.974 23.168s-3.814 17.234-9.974 23.168c-6.161 5.932-14.67 9.605-24.06 9.605s-17.897-3.673-24.058-9.605C4.099 50.103.285 41.91.285 32.869.285 23.827 4.1 15.634 10.26 9.7S24.93.096 34.319.096"/><path fill="#fff" d="M2.758 33.02c0-16.45 14.393-29.786 32.15-29.786 17.755 0 30.932 13.196 30.932 29.647 0 16.45-13.177 29.924-30.933 29.924-17.755 0-32.149-13.335-32.149-29.785"/><path fill="red" d="M20.767 30.144c2.918 0 5.563 1.203 7.477 3.146a10.78 10.78 0 0 1 3.1 7.589c0 2.961-1.185 5.645-3.1 7.588-1.914 1.943-4.559 3.147-7.477 3.147-2.92 0-5.564-1.204-7.478-3.147a10.78 10.78 0 0 1-3.1-7.588c0-2.962 1.185-5.646 3.1-7.59 1.914-1.942 4.559-3.146 7.478-3.146M35.65 8.946c2.191 0 4.177.857 5.614 2.24 1.438 1.385 2.328 3.297 2.328 5.407s-.89 4.021-2.328 5.405a8.07 8.07 0 0 1-5.614 2.241A8.07 8.07 0 0 1 30.037 22c-1.438-1.385-2.328-3.297-2.328-5.406 0-2.11.89-4.022 2.328-5.406a8.07 8.07 0 0 1 5.613-2.241"/><path fill="#ffac00" d="M17.299 10.543c1.718 0 3.275.724 4.402 1.894a6.57 6.57 0 0 1 1.825 4.57c0 1.783-.697 3.4-1.825 4.569-1.127 1.17-2.684 1.894-4.402 1.894s-3.275-.724-4.402-1.894a6.57 6.57 0 0 1-1.826-4.57c0-1.783.698-3.399 1.826-4.569 1.127-1.17 2.684-1.894 4.402-1.894M46.837 6.396c1.018 0 1.94.398 2.607 1.04a3.48 3.48 0 0 1 1.08 2.511c0 .98-.413 1.868-1.08 2.51a3.75 3.75 0 0 1-2.607 1.041 3.75 3.75 0 0 1-2.606-1.04 3.48 3.48 0 0 1-1.081-2.51c0-.98.413-1.868 1.08-2.511a3.75 3.75 0 0 1 2.607-1.04M50.399 20.062c1.895 0 3.612.7 4.856 1.829s2.014 2.69 2.014 4.412-.77 3.283-2.014 4.413-2.96 1.829-4.856 1.829-3.613-.7-4.856-1.83c-1.244-1.13-2.014-2.69-2.014-4.412s.77-3.282 2.014-4.412 2.96-1.829 4.856-1.829"/><path fill="red" d="M58.592 32.798c1.513 0 2.883.591 3.876 1.547a5.17 5.17 0 0 1 1.607 3.732 5.17 5.17 0 0 1-1.608 3.732 5.57 5.57 0 0 1-3.875 1.548 5.57 5.57 0 0 1-3.875-1.548 5.17 5.17 0 0 1-1.607-3.732c0-1.456.614-2.776 1.607-3.732a5.57 5.57 0 0 1 3.875-1.547"/><path fill="#ffac00" d="M45.511 43.212c-5.835.06-10.521 4.408-10.467 9.711.033 3.095 1.673 5.826 4.192 7.554q.15.105.306.203c.712.805 1.85.866 2.645 1.3q.133.014.25.05.158-.052.344-.061.23-.133.544-.151c.69-.24 1.352-.495 2.064-.628a.9.9 0 0 1 .411-.178l.051-.01c.179-.14.412-.228.696-.24.192-.135.424-.219.673-.252a1 1 0 0 1 .17-.106q.314-.14.63-.271l.033-.014.223-.095c.295-.134.579-.278.847-.46.157-.106.334-.159.513-.171.085-.067.171-.132.279-.173q.128-.064.278-.098a1.1 1.1 0 0 1 .565-.322c.12-.092.254-.171.422-.21.092-.068.187-.133.304-.173.119-.118.265-.213.444-.27q.088-.064.192-.112.118-.132.28-.223c.135-.164.326-.28.555-.348q.15-.152.364-.239c.023-.013.041-.03.066-.039.102-.096.208-.176.316-.25q.135-.17.335-.28c.011-.011.018-.023.03-.033.107-.134.24-.248.406-.323a1.1 1.1 0 0 1 .501-.357q.14-.201.362-.329a1 1 0 0 1 .205-.175 1.1 1.1 0 0 1 .349-.409c.052-.239.1-.507.165-.813q.026-.147.044-.297.081-.594.077-1.211c-.052-5.306-4.827-9.558-10.664-9.497"/></svg>