<svg xmlns="http://www.w3.org/2000/svg" xml:space="preserve" width="87.083" height="270.972" viewBox="6.552 4.7 87.083 270.972"><title>elf-c</title><g fill-rule="nonzero"><path fill="#d9c2b1" d="M69.7 73.8c-5.2-6.4-11.9-7.1-12.8-.4-.7 5.9 3.5 26.1 9.5 40.1.3.8.7 2 1 2.8 1 2.2-.1 2.7.8 4 1.2 1.9 4.7 4.9 8.9 3.8 1.3-.3 3-4.8 3.5-7.1.4-1.8-.7-1.3-.7-3.9 0-1.1.8-2 .2-3.4-5.2-12.7-6.7-31.3-10.4-35.9"/><path fill="#a68f81" d="M72.5 80.5s.5 2.1 1.3 5.2c.4 1.6.8 3.4 1.3 5.3s.9 4 1.4 6.1c.3 1 .5 2.1.8 3.1.2 1 .6 2 .9 2.9.6 1.9 1.3 3.7 1.8 5.2.1.4.2.7.4 1.1.1.4.1.8.1 1.1-.1.7-.2 1.2-.3 1.7-.2.9-.2 1.5-.2 1.5s-.1-.5-.1-1.5c0-.5.1-1 .1-1.7 0-.6-.3-1.2-.5-2-.5-1.5-1.2-3.3-1.8-5.2-.3-.9-.7-1.9-.9-3-.2-1-.5-2.1-.7-3.1-.5-2.1-.9-4.2-1.3-6.1-.4-2-.8-3.8-1.1-5.4-.9-3.1-1.2-5.2-1.2-5.2"/><path fill="#17110b" d="m81.3 266.6-.2 1.6s-8.8 1.8-13.6.5-10.9-3.6-12.1-3.6v1.3s-4 0-6.2-1.6l-.2-5.1c.1 0 27.9-2.4 32.3 6.9"/><path fill="#3d241b" d="M63.1 234.6s-4.6 4.7-13.8-.2c0 0 .3 17.6.3 20.8s-2.8 7.4 4 8.3 10 3.8 17 4.2 10.7-1.1 10.7-1.1.3-3.8-2.6-5.6-12-4.3-14.5-7.9-1.1-18.5-1.1-18.5"/><path fill="#241510" d="M81.3 266.6s0-.7-.2-1.8c-.1-.6-.3-1.2-.7-1.9s-1-1.4-1.8-1.7c-1.8-.7-4-1.4-6.3-2.4-1.1-.5-2.3-1-3.4-1.6s-2.3-1.3-3.3-2.2-1.9-2-2.3-3.3c-.3-1.3-.4-2.6-.5-3.8-.2-2.5-.1-4.8-.1-6.7.1-3.9.3-6.5.3-6.5s0 2.6.1 6.5c0 2 .1 4.2.3 6.7.1 1.2.2 2.5.5 3.7s1.2 2.2 2.1 3c2 1.6 4.3 2.8 6.5 3.8 1.1.5 2.2 1 3.3 1.4 1 .4 2 .8 2.9 1.2s1.6 1.2 1.9 2c.4.7.5 1.4.6 2s.1 1 .1 1.3c.1.2 0 .3 0 .3M62 235.3s-.1.1-.4.3q-.45.3-1.2.6c-.5.2-1.2.4-1.9.5s-1.5.1-2.3.1c-.4 0-.8-.1-1.1-.1-.4-.1-.7-.1-1.1-.2-.7-.2-1.3-.4-1.9-.6-.5-.2-.9-.5-1.2-.6-.3-.2-.5-.2-.5-.2s.2 0 .5.1.8.2 1.3.4c.3.1.6.1.9.2s.6.1 1 .2c.3.1.7.1 1.1.2s.7.1 1.1.1c.7.1 1.5 0 2.2 0 .7-.1 1.3-.2 1.9-.3.5-.1 1-.3 1.3-.4.1-.2.3-.3.3-.3M49.5 236.8s.1 1.8.3 4.6c0 1.4.1 3 .2 4.7 0 1.7.1 3.6.1 5.4v2.8c0 .9-.1 1.9-.3 2.7q-.3 1.35-.3 2.4c0 .8.1 1.5.4 2.1.1.3.4.5.6.7s.5.4.7.5c.5.3 1 .4 1.3.5.4.1.7.1.9.2.2 0 .3.1.3.1h-.3c-.2 0-.5 0-.9-.1s-.9-.2-1.4-.4c-.3-.1-.5-.3-.8-.5-.2-.2-.5-.5-.7-.8-.4-.6-.6-1.4-.6-2.2s.1-1.7.2-2.5c.2-.9.3-1.7.3-2.6v-12.9c-.1-2.8 0-4.7 0-4.7"/><path fill="#241510" d="M74.6 259.5s-.2.1-.5.4c-.3.2-.7.6-1.1.9s-.8.7-1.1.9l-.6.4s.1-.3.3-.6c.2-.4.6-.8 1-1.1s.9-.6 1.3-.7c.4-.3.7-.2.7-.2M69 256.9s-.2.2-.6.4c-.3.2-.8.5-1.2.8l-1.2.9c-.2.1-.3.2-.4.3s-.2.1-.2.1.1-.3.3-.7.6-.8 1.1-1.2c.5-.3 1-.6 1.4-.7.5.1.8.1.8.1M64.3 253.2s-.2.1-.6.2-.8.3-1.3.5c-.4.2-.9.3-1.2.5-.2.1-.3.1-.4.2-.1 0-.2.1-.2.1s.1-.2.4-.5.7-.6 1.2-.8 1-.3 1.4-.2c.4-.1.7 0 .7 0M63.1 246.9s-.2.2-.6.4-1 .4-1.6.4-1.2-.1-1.6-.3-.7-.3-.7-.3h2.2c.5 0 1.1-.1 1.5-.1.5 0 .8-.1.8-.1M63 239.6s-.2.2-.6.5q-.6.45-1.5.6c-.3 0-.6.1-.9 0-.3 0-.5-.1-.8-.2-.2-.1-.4-.2-.5-.2-.1-.1-.2-.1-.2-.1h.7c.4 0 .9 0 1.5-.1.5-.1 1.1-.2 1.5-.3.5-.1.8-.2.8-.2M55.5 263.5s-.1-.7-.3-1.7c-.1-.5-.3-1.1-.5-1.7-.1-.3-.2-.6-.4-.9-.1-.3-.3-.6-.5-.9s-.3-.6-.6-.8c-.2-.2-.4-.5-.6-.7l-.3-.3c-.1-.1-.2-.2-.4-.3-.2-.2-.5-.3-.7-.4l-.6-.3c-.2-.1-.4-.1-.5-.2-.3-.1-.4-.2-.4-.2s.2 0 .5.1c.2 0 .3 0 .6.1.2 0 .4.1.7.2s.5.2.8.4c.1.1.3.2.4.2.1.1.3.2.4.3.3.2.5.5.8.7.3.3.4.6.6.9.4.6.7 1.3.8 1.9.2.6.3 1.3.3 1.8 0 1.1-.1 1.8-.1 1.8"/><path fill="#396e4c" d="M69.2 202s1.5 3.6.8 10.2c-.8 6.7-.4 16-2.3 20.4s-15.8 10.7-20 .9S45 203.8 50 202s17.3-6.7 19.2 0"/><path fill="#1f453b" d="M64.5 235.9s-.6.3-1.6.9c-.5.3-1.1.6-1.9.9-.7.3-1.6.6-2.6.9-.5.2-1 .2-1.5.3s-1.1.1-1.7.1c-1.2 0-2.4-.2-3.6-.7-.3-.1-.6-.3-.8-.5l-.4-.3-.4-.3-.7-.7-.6-.8c-.4-.5-.7-1.1-1-1.7s-.5-1.2-.8-1.8c-.4-1.2-.8-2.6-1.1-3.8-.3-1.3-.5-2.6-.6-3.8s-.2-2.4-.2-3.6c0-1.1 0-2.2.1-3.2.1-2 .3-3.6.5-4.8.2-1.1.3-1.8.3-1.8s-.4 2.6-.5 6.6c0 2 0 4.3.3 6.7s.8 5 1.7 7.5c.3.6.4 1.3.7 1.8.3.6.5 1.2 1 1.6l.6.8.7.6.3.3.4.2c.3.2.5.3.8.5 1.1.5 2.2.7 3.4.7.6 0 1.1 0 1.6-.1s1-.1 1.5-.3c1-.2 1.8-.5 2.6-.8s1.4-.6 1.9-.8c1-.3 1.6-.6 1.6-.6"/><path fill="#396e4c" d="M71 180.6c1.1-18.3 3.9-48.7-7.7-53.3s-20.1 9-19.4 27.4c.4 9.5 3.2 31.9 2.1 35.4s-2.8 6.3-1.1 8.1c1.8 1.8-1.6 3.8-.1 5.6 1.6 1.8 5.7 5.6 14.4 4.9 4.7-.4 11-4.3 12.4-7.2 1.1-2.4-2.5-2.2.4-8.2 1.3-2.5-1.4-6.2-1-12.7"/><path fill="#1f453b" d="M44.9 203.8s.5.3 1.4.8c.8.4 1.9 1 3.1 1.5.6.2 1.2.5 1.7.7.6.2 1.1.4 1.5.5.4.2.8.3 1.1.4s.4.1.4.1h-.4c-.3 0-.7 0-1.1-.1-.5-.1-1-.2-1.6-.3l-1.8-.6c-.6-.3-1.2-.5-1.7-.8s-1-.6-1.4-.9c-.8-.8-1.2-1.3-1.2-1.3M46.3 199.4l.6.6c.2.2.4.4.7.6s.6.4 1 .6.8.4 1.3.6l1.5.6c.5.2 1.1.3 1.6.5.6.2 1.1.3 1.7.4s1.2.2 1.7.4c.6.1 1.1.2 1.7.3 1.1.2 2.1.3 3 .4s1.6.2 2.1.2c.5.1.8.1.8.1h-3c-.9-.1-2-.1-3.1-.2-.6-.1-1.1-.1-1.7-.2l-1.8-.3c-.6-.2-1.2-.3-1.7-.5-.6-.2-1.1-.3-1.6-.6-.5-.2-1-.4-1.5-.7-.5-.2-.9-.5-1.3-.7-.4-.3-.7-.5-1-.8-.3-.2-.5-.5-.7-.7-.2-.3-.3-.6-.3-.6M44.6 148.7s-.3 2.7-.3 6.7c0 2 .1 4.4.3 6.9.3 2.5.6 5.2.9 7.9s.5 5.4.8 7.9c.2 2.5.3 4.9.3 6.9s-.2 3.7-.4 4.9c-.1.6-.3 1-.4 1.3s-.2.4-.2.4.3-.6.4-1.8c.2-1.2.2-2.8.2-4.9-.1-2-.3-4.4-.5-6.9s-.5-5.2-.8-7.9-.6-5.4-.8-7.9-.2-4.9-.1-6.9.3-3.7.4-4.9c0-1.1.2-1.7.2-1.7M67.7 198.7s.1-.2.3-.5q.3-.45.9-1.2c.4-.5.9-1.1 1.6-1.7.6-.7 1.3-1.4 1.7-2.4.3-1 0-2.2-.3-3.4s-.7-2.5-.9-3.9-.3-2.8-.3-4.3c.1-1.5.2-2.9.2-4.4.3-5.9.6-11.8.8-16.2.1-2.2.2-4.1.3-5.3.1-1.3.1-2 .1-2s.1 3 0 7.4c0 2.2-.1 4.8-.2 7.6s-.2 5.7-.4 8.7c-.1 1.5-.2 2.9-.3 4.4-.1 1.4 0 2.8.2 4.2s.5 2.6.8 3.9c.2 1.2.5 2.5.2 3.6-.4 1.1-1.2 1.8-1.8 2.5-.7.6-1.2 1.2-1.6 1.6q-.6.75-.9 1.2c-.3 0-.4.2-.4.2"/><path fill="#396e4c" d="M24.7 122.9S9.3 140 16 153.8s54 7.5 54-7.7-6.4-26.1-15.1-27.6-26.4 0-30.2 4.4"/><path fill="#1f453b" d="M23.7 123.9s-.2.2-.4.6c-.3.4-.7.9-1.1 1.6-.5.7-.9 1.5-1.5 2.3-.5.9-1.1 1.8-1.6 2.8-.5.9-1 1.9-1.4 2.8s-.9 1.8-1.2 2.5-.6 1.4-.8 1.8-.3.7-.3.7.1-.3.2-.7c.1-.5.3-1.1.6-1.9s.6-1.7 1-2.6.9-1.9 1.4-2.9 1.1-1.9 1.6-2.7c.5-.9 1.1-1.6 1.6-2.3 1.1-1.3 1.9-2 1.9-2M52.7 159.1s-1 .5-2.7 1c-.8.2-1.8.5-2.8.8l-3.3.6c-1.1.1-2.3.2-3.4.1-.5 0-1.1-.1-1.6-.1-.5-.1-1-.2-1.4-.2-.4-.1-.8-.2-1.1-.3s-.6-.2-.8-.3c-.5-.2-.7-.3-.7-.3s.3.1.8.2c.2.1.5.2.9.2.3.1.7.1 1.1.2.4 0 .9.1 1.4.1h1.5c1.1 0 2.2-.1 3.3-.2s2.2-.3 3.3-.5c1-.2 2-.4 2.9-.6.8-.2 1.5-.3 2-.5z"/><path fill="#3d241b" d="M63.2 118.3s1.1 3 .6 5.4c0 0-7.9 3.6-18.2 4.3-7.3.5-16.2-.1-21.3-4.3 0 0-.8-3.8.8-4.4 1.5-.6 20-5.6 38.1-1"/><path fill="#c29356" d="m43.6 123.8.1 4.3c2.8.9 7.9-.6 7.9-.6v-4.4c-2.6.4-8 .7-8 .7m1.6 1.2c2.2.3 5.2-.1 5.2-.1l.1 1.9c-1.8.4-5.3.3-5.3.3z"/><path fill="#241510" d="M30 126.5s-.4-.2-.9-.6c-.3-.2-.5-.4-.8-.7-.1-.2-.3-.3-.4-.5s-.3-.4-.2-.8c.1-.2.3-.4.4-.4l.3-.1c.2-.1.4-.2.6-.2.4-.1.7-.2 1.1-.3.6-.1 1.1-.2 1.1-.2s-.4.2-.9.5c-.3.1-.6.3-1 .5-.2.1-.4.2-.5.3l-.3.1c-.1.1-.1 0-.1 0s0 .2.1.3c.1.2.2.3.3.5.2.3.4.6.6.8z"/><path fill="#bd8962" d="M26 70.1c3.2-1.5 9.2-4.3 10.5-5.8 1.8-2.1 2.2-3.7 1.2-8.8-.8-4.1 11.9-3.5 12.7.9.4 2.3 1.1 7.9 2.5 8.5 1.4.5 10.8 4.8 10.8 4.8s-2.8 13.5-18 12.4c-6.9-.5-11.9-2.4-15.5-5.2S26 70.1 26 70.1"/><path fill="#d9c2b1" d="M51.9 74s-5.6 2.2-12.5.3l8.2 21.3z"/><path fill="#82654f" d="M52 63.2s1.8 4.6-2.8 5.3l-2.5 15.3-4-15s-5.6-.8-5.8-5.6c0 0-6.3 2.8-16.5 5.7 0 0 4.4.9 5.2 18 .4 8.7-1.3 15.8-6.9 13.1 0 0 1.5 14.5 6 20.2s36.3 4.9 39.1-3 1.1-13 1-20.6c-.2-7.6 1.5-22.4 0-27.6-.1 0-10.8-3.9-12.8-5.8"/><path fill="#d9c2b1" d="M25.4 100.4c5.9-4 1.1-29.2-3.6-30.9s-7.8 6.7-7 12.1c.8 5.3.8 25.5 10.6 18.8"/><path fill="#5e3829" d="M42.7 68.9s.7 1.7 1.5 4.4c.4 1.3.9 2.9 1.3 4.6s.8 3.5 1.2 5.3c.3 1.8.6 3.7.9 5.4.2 1.7.4 3.4.5 4.7.1 1.4.2 2.6.2 3.4s.1 1.3.1 1.3-.3-1.8-.6-4.6c-.2-1.4-.5-3-.7-4.7-.3-1.7-.6-3.5-1-5.4-.3-1.8-.7-3.6-1.1-5.3s-.7-3.3-1.1-4.6c-.7-2.7-1.2-4.5-1.2-4.5"/><circle cx="36.202" cy="19.003" r="1" fill="#5e3829" transform="rotate(-2.864 1083.167 -234.987)"/><circle cx="35.802" cy="25.004" r="1" fill="#5e3829" transform="rotate(-2.864 1082.767 -228.987)"/><circle cx="30.802" cy="34.904" r="1" fill="#5e3829" transform="rotate(-2.864 1077.767 -219.086)"/><circle cx="31.802" cy="40.304" r="1" fill="#5e3829" transform="rotate(-2.864 1078.767 -213.686)"/><circle cx="35.202" cy="30.904" r="1" fill="#5e3829" transform="rotate(-2.864 1082.167 -223.086)"/><path fill="#5e3829" d="M63.8 117.2s.2-.6.5-1.8q.15-.9.3-2.1c.1-.8.2-1.7.2-2.7.1-2 .1-4.3-.1-6.8-.1-1.3-.2-2.5-.4-3.9-.2-1.3-.2-2.7-.2-4 0-2.7.2-5.4.4-7.9s.4-4.8.5-6.9c.1-2 .2-3.7.2-4.9v-1.8s0 .7.1 1.8c0 1.2.1 2.9 0 4.9s-.2 4.4-.3 6.9c-.2 2.5-.3 5.2-.3 7.9 0 1.3 0 2.7.2 4 .1 1.3.3 2.6.3 3.9.1 1.3.1 2.5.1 3.6 0 1.2-.1 2.3-.2 3.3-.2 2-.5 3.7-.8 4.8-.2 1.1-.5 1.7-.5 1.7"/><path fill="#17110b" d="m51.6 272.6-.2 1.6s-8.8 1.8-13.6.5-10.9-3.6-12.1-3.6v1.3s-4 0-6.2-1.6l-.2-5.1c.1.1 27.8-2.4 32.3 6.9"/><path fill="#3d241b" d="M33.4 240.6s-4.6 4.7-13.8-.2c0 0 .3 17.6.3 20.8s-2.8 7.4 4 8.3 10 3.8 17 4.2 10.7-1.1 10.7-1.1.3-3.8-2.6-5.6-12-4.3-14.5-7.9c-2.3-3.4-1.1-18.5-1.1-18.5"/><path fill="#241510" d="M51.6 272.6s0-.7-.2-1.8c-.1-.6-.3-1.2-.7-1.9s-1-1.4-1.8-1.7c-1.8-.7-4-1.4-6.3-2.4-1.1-.5-2.3-1-3.4-1.6s-2.3-1.3-3.3-2.2-1.9-2-2.3-3.3c-.3-1.3-.4-2.6-.5-3.8-.2-2.5-.1-4.8-.1-6.7.1-3.9.3-6.5.3-6.5s0 2.6.1 6.5c0 2 .1 4.2.3 6.7.1 1.2.2 2.5.5 3.7s1.2 2.2 2.1 3c2 1.6 4.3 2.8 6.5 3.8 1.1.5 2.2 1 3.3 1.4 1 .4 2 .8 2.9 1.2s1.6 1.2 1.9 2c.4.7.5 1.4.6 2s.1 1 .1 1.3zM32.2 241.3s-.1.1-.4.3q-.45.3-1.2.6c-.5.2-1.2.4-1.9.5s-1.5.1-2.3.1c-.4 0-.8-.1-1.1-.1-.4-.1-.7-.1-1.1-.2-.7-.2-1.3-.4-1.9-.6-.5-.2-.9-.5-1.2-.6-.3-.2-.5-.2-.5-.2s.2 0 .5.1.8.2 1.3.4c.3.1.6.1.9.2s.6.1 1 .2c.3.1.7.1 1.1.2s.7.1 1.1.1c.7.1 1.5 0 2.2 0 .7-.1 1.3-.2 1.9-.3.5-.1 1-.3 1.3-.4zM19.8 242.8s.1 1.8.3 4.6c0 1.4.1 3 .2 4.7 0 1.7.1 3.6.1 5.4v2.8c0 .9-.1 1.9-.3 2.7q-.3 1.35-.3 2.4c0 .8.1 1.5.4 2.1.1.3.4.5.6.7s.5.4.7.5c.5.3 1 .4 1.3.5.4.1.7.1.9.2.2 0 .3.1.3.1h-.3c-.2 0-.5 0-.9-.1s-.9-.2-1.4-.4c-.3-.1-.5-.3-.8-.5-.2-.2-.5-.5-.7-.8-.4-.6-.6-1.4-.6-2.2s.1-1.7.2-2.5c.2-.9.3-1.7.3-2.6v-12.9c-.1-2.8 0-4.7 0-4.7"/><path fill="#241510" d="M44.8 265.5s-.2.1-.5.4c-.3.2-.7.6-1.1.9s-.8.7-1.1.9l-.6.4s.1-.3.3-.6c.2-.4.6-.8 1-1.1s.9-.6 1.3-.7c.4-.3.7-.2.7-.2M39.2 262.9s-.2.2-.6.4c-.3.2-.8.5-1.2.8l-1.2.9c-.2.1-.3.2-.4.3s-.2.1-.2.1.1-.3.3-.7.6-.8 1.1-1.2c.5-.3 1-.6 1.4-.7.5.1.8.1.8.1M34.6 259.2s-.2.1-.6.2-.8.3-1.3.5c-.4.2-.9.3-1.2.5-.2.1-.3.1-.4.2-.1 0-.2.1-.2.1s.1-.2.4-.5.7-.6 1.2-.8 1-.3 1.4-.2c.4-.1.7 0 .7 0M33.4 252.9s-.2.2-.6.4-1 .4-1.6.4-1.2-.1-1.6-.3-.7-.3-.7-.3h2.2c.5 0 1.1-.1 1.5-.1.5 0 .8-.1.8-.1M33.2 245.6s-.2.2-.6.5q-.6.45-1.5.6c-.3 0-.6.1-.9 0-.3 0-.5-.1-.8-.2-.2-.1-.4-.2-.5-.2-.1-.1-.2-.1-.2-.1h.7c.4 0 .9 0 1.5-.1.5-.1 1.1-.2 1.5-.3.6-.1.8-.2.8-.2M25.8 269.5s-.1-.7-.3-1.7c-.1-.5-.3-1.1-.5-1.7-.1-.3-.2-.6-.4-.9-.1-.3-.3-.6-.5-.9s-.3-.6-.6-.8c-.2-.2-.4-.5-.6-.7l-.3-.3c-.1-.1-.2-.2-.4-.3-.2-.2-.5-.3-.7-.4l-.6-.3c-.2-.1-.4-.1-.5-.2-.3-.1-.4-.2-.4-.2s.2 0 .5.1c.2 0 .3 0 .6.1.2 0 .4.1.7.2s.5.2.8.4c.1.1.3.2.4.2.1.1.3.2.4.3.3.2.5.5.8.7.3.3.4.6.6.9.4.6.7 1.3.8 1.9.2.6.3 1.3.3 1.8 0 1.2-.1 1.8-.1 1.8"/><path fill="#396e4c" d="M39.4 208s1.5 3.6.8 10.2-.4 16-2.3 20.4-15.8 10.7-20 .9-2.7-29.8 2.3-31.5 17.3-6.7 19.2 0"/><path fill="#1f453b" d="M34.8 241.9s-.6.3-1.6.9c-.5.3-1.1.6-1.9.9-.7.3-1.6.6-2.6.9-.5.2-1 .2-1.5.3s-1.1.1-1.7.1c-1.2 0-2.4-.2-3.6-.7-.3-.1-.6-.3-.8-.5l-.4-.3-.4-.3-.7-.7-.6-.8c-.4-.5-.7-1.1-1-1.7s-.5-1.2-.8-1.8c-.4-1.2-.8-2.6-1.1-3.8-.3-1.3-.5-2.6-.6-3.8s-.2-2.4-.2-3.6c0-1.1 0-2.2.1-3.2.1-2 .3-3.6.5-4.8.2-1.1.3-1.8.3-1.8s-.4 2.6-.5 6.6c0 2 0 4.3.3 6.7s.8 5 1.7 7.5c.3.6.4 1.3.7 1.8.3.6.5 1.2 1 1.6l.6.8.7.6.3.3.4.2c.3.2.5.3.8.5 1.1.5 2.2.7 3.4.7.6 0 1.1 0 1.6-.1s1-.1 1.5-.3c1-.2 1.8-.5 2.6-.8s1.4-.6 1.9-.8c1-.3 1.6-.6 1.6-.6"/><path fill="#396e4c" d="M41.2 186.6c1.1-18.3 4.2-49.1-7.4-53.6-11.6-4.6-21.9 1.3-19.7 27.7.8 9.4 3.2 31.9 2.1 35.4s-2.8 6.3-1.1 8.1c1.8 1.8-1.6 3.8-.1 5.6s5.7 5.6 14.4 4.9c4.7-.4 11-4.3 12.4-7.2 1.1-2.4-2.5-2.2.4-8.2 1.4-2.5-1.3-6.2-1-12.7"/><path fill="#1f453b" d="M15.2 209.8s.5.3 1.4.8c.8.4 1.9 1 3.1 1.5.6.2 1.2.5 1.7.7.6.2 1.1.4 1.5.5.4.2.8.3 1.1.4s.4.1.4.1H24c-.3 0-.7 0-1.1-.1-.5-.1-1-.2-1.6-.3l-1.8-.6c-.6-.3-1.2-.5-1.7-.8s-1-.6-1.4-.9c-.8-.8-1.2-1.3-1.2-1.3M16.5 205.4l.6.6c.2.2.4.4.7.6s.6.4 1 .6.8.4 1.3.6l1.5.6c.5.2 1.1.3 1.6.5.6.2 1.1.3 1.7.4s1.2.2 1.7.4c.6.1 1.1.2 1.7.3 1.1.2 2.1.3 3 .4s1.6.2 2.1.2c.5.1.8.1.8.1h-3c-.9-.1-2-.1-3.1-.2-.6-.1-1.1-.1-1.7-.2l-1.8-.3c-.6-.2-1.2-.3-1.7-.5-.6-.2-1.1-.3-1.6-.6-.5-.2-1-.4-1.5-.7-.5-.2-.9-.5-1.3-.7-.4-.3-.7-.5-1-.8-.3-.2-.5-.5-.7-.7-.1-.3-.3-.6-.3-.6M14.5 154.7s-.2 2.7-.1 6.8c0 2 .1 4.4.4 6.9s.6 5.2.9 7.9.5 5.4.7 7.9.3 4.9.3 6.9-.1 3.7-.4 4.9c-.1.6-.3 1-.4 1.3s-.2.4-.2.4.3-.6.5-1.8.2-2.9.1-4.9-.3-4.4-.5-6.9-.5-5.2-.8-7.9-.6-5.4-.8-7.9-.2-4.9-.2-7c.1-3.9.5-6.6.5-6.6M38 204.7s.1-.2.3-.5q.3-.45.9-1.2c.4-.5.9-1.1 1.6-1.7.6-.7 1.3-1.4 1.7-2.4.2-.5.2-1 .1-1.6l-.3-1.8c-.3-1.2-.7-2.5-.9-3.9s-.3-2.8-.3-4.3c.1-1.4.2-2.9.2-4.4.3-5.9.7-11.7.9-16.1.1-2.2.2-4 .3-5.3s.1-2 .1-2 .1 2.9-.1 7.3c-.1 2.2-.1 4.8-.2 7.5s-.3 5.7-.4 8.6c-.1 1.5-.2 2.9-.3 4.4-.1 1.4 0 2.8.2 4.2.2 1.3.5 2.6.8 3.9.2 1.2.5 2.5.1 3.6s-1.2 1.8-1.8 2.4c-.7.6-1.2 1.2-1.6 1.6q-.6.75-.9 1.2c-.3.4-.4.5-.4.5"/><path fill="#bd8962" d="M15.7 153.2s2.5 1.8 2.9 6.6c.3 3.2 1.5 5.7.6 5.9-1.8.5-2.1-4.6-2.1-4.6s-.9 4.6-.1 6.3c.6 1.3.5 3.6-.1 3.8-.6.3-1.6-2.8-2.3-4.8 0 0 .4 2.4.4 3.9s-.5 2-1.4.5c0 0-1 2.5-2.4-2.3 0 0-1 .5-1.5-2.1s-1.6-16.1 6-13.2"/><path fill="#824d39" d="m16.4 170.7-.3-.3c-.1-.2-.4-.5-.6-.8-.2-.4-.4-.8-.6-1.3s-.3-1-.4-1.6c-.2-1.1-.2-2.2-.2-3 0-.4.1-.7.1-1 0-.2.1-.4.1-.4s0 .1.1.4c0 .2.1.6.1 1s.1.9.2 1.3c.1.5.1 1 .2 1.5.2 1 .4 2 .7 2.8.4 1 .6 1.4.6 1.4M13.7 170.8s-.3-.4-.7-1.1c-.2-.3-.3-.8-.5-1.2l-.3-1.5c-.1-1-.2-2-.1-2.8s.2-1.2.2-1.2v.3c0 .2.1.5.1.9s.1.8.1 1.3c.1.5.1.9.2 1.4.1 1 .3 1.9.5 2.7.3.7.5 1.2.5 1.2M11.3 168.4s-.2-.3-.4-.9c-.2-.5-.4-1.3-.5-2q-.15-1.2 0-2.1c.1-.6.2-.9.2-.9v.3c0 .2.1.4.1.7.1.6.2 1.3.3 2s.2 1.5.2 2c.2.5.1.9.1.9M16.4 154.1s.1 0 .3.1.4.3.6.5c.4.5.7 1.2 1 2 .2.8.3 1.5.4 2.1v1s-.2-.4-.4-.9c-.2-.6-.4-1.3-.6-2s-.4-1.5-.7-2q-.15-.45-.3-.6c-.2-.2-.3-.2-.3-.2"/><path fill="#d9c2b1" d="M18.8 119.7c2.3 5.5-.3 14.2-.5 19.6s.2 15 .2 15-7.1 3.7-10.1-.7c0 0-.5-20-.9-24.6s.2-7.4 2.2-10c2.1-2.5 6.5-5.7 9.1.7"/><path fill="#d9c2b1" d="M26.7 79.4c-2.2-7.9-6.8-13.1-10.3-7.3-3 5.1-8 27.3-8.2 42.4 0 .9-.2 2.1-.2 2.9 0 2.4-1.2 2.4-.9 4 .4 2.3 1.3 3.4 5.6 4.1 1.3.2 5.7-.1 7.1-2.1 1.1-1.5-.1-1.5.9-3.8.4-1 1.5-1.5 1.5-3 .4-13.7 6.1-31.5 4.5-37.2"/><path fill="#a68f81" d="M27.2 86.5s-.5 2.7-1.2 6.7c-.4 2-.8 4.3-1.3 6.8-.2 1.2-.5 2.5-.8 3.8-.2 1.3-.5 2.7-.7 4-.3 2.7-.5 5.4-.7 7.9 0 .3-.1.6-.1 1-.1.3-.2.7-.4.9-.3.6-.6 1-.9 1.5s-.6 1-.6 1.5 0 1.1-.1 1.6c-.2 1.1-1 1.8-1.7 2.2s-1.5.6-2 .7c-.6.1-1 .2-1.4.2h-.5s.2 0 .5-.1.8-.1 1.3-.3c.6-.2 1.3-.4 2-.8s1.3-1.1 1.5-2.1c.1-.5 0-1 .1-1.6 0-.6.3-1.1.6-1.7.3-.5.6-1 .9-1.6.1-.3.2-.5.3-.8 0-.3.1-.6.1-.9.2-2.5.4-5.2.6-7.9.2-1.4.5-2.7.7-4 .3-1.3.5-2.6.8-3.8.5-2.5 1.1-4.8 1.5-6.8.9-3.7 1.5-6.4 1.5-6.4"/><path fill="#a68f81" d="M18.8 120.4s-.4.3-1 .6-1.4.6-2.3.9c-.9.2-1.7.4-2.4.4s-1.1-.1-1.1-.1.1 0 .3-.1c.2 0 .5-.1.8-.2.6-.2 1.5-.4 2.3-.6s1.7-.5 2.3-.6c.7-.2 1.1-.3 1.1-.3M14.9 120.1s-.4.2-1 .3-1.5.2-2.4 0c-.2 0-.4-.1-.6-.2l-.6-.3c-.4-.2-.6-.5-.8-.8-.4-.6-.4-1-.4-1l.2.2c.1.2.3.3.5.5.1.1.2.2.4.3.1.1.3.2.5.2.3.1.7.3 1.1.3.8.2 1.6.2 2.2.3.5.2.9.2.9.2"/><path fill="#3d241b" d="M66.7 31.6c-.5 5-2.3 9.3.4 12.8 2.2 2.9 2.8 8 .4 9.2 0 0 .6-3.7-.7-4.8 0 0 .8 1.8-.2 3 0 0-1.1-3.3-2.5-4.8-2.7-2.8-3.6-6.1-2-11.9s4.9-6.8 4.6-3.5M23.3 83.4c-1.9-.4-3.9.6-3.7 3.9s-2.8 3.1-3.8 2.8c0 0 3.6 2.7 6.5-.4 0 0-1 1.7-2.2 2.1 0 0 4.7-.9 5.3-5 .1-1.3-.4-3-2.1-3.4"/><path fill="#241510" d="M15.8 90.1s.2.1.4.1c.3 0 .7 0 1.1-.1s.9-.5 1.3-.9c.2-.2.4-.5.5-.7s.2-.5.3-.8c.1-.6 0-1.3.2-1.9.1-.7.5-1.3.9-1.6s.8-.4 1.1-.5.5-.1.5-.1-.1.1-.4.2-.6.4-.9.7-.6.8-.6 1.4c-.1.6 0 1.2-.1 2-.1.4-.2.7-.3 1.1-.2.3-.4.6-.6.8-.5.5-1.1.8-1.6.9s-1 0-1.3-.1z"/><path fill="#3d241b" d="M26.6 47.3s-6.6 7.2-1.2 14c0 0-4.7 2.3-1.6 9.4 0 0-4.2 2.5-.9 7.7 0 0-2.7 2.1-.5 5.7 0 0 5.1.3 4.3-5.7 0 0 3-3.4 1.6-7.4 0 0 6-2.8 3.2-10 0 0 6.6-5.8 3.2-11.4s-6-4.1-8.1-2.3"/><path fill="#241510" d="M29 51.5s.4.3.9.9.9 1.5 1.2 2.5c.1.5.2 1 .2 1.5s0 .9-.1 1.3c0 .4-.2.7-.2.9-.1.2-.1.3-.1.3v-1.2c0-.7-.1-1.6-.4-2.5-.1-.5-.2-.9-.4-1.3-.1-.4-.3-.8-.5-1.1-.3-.9-.6-1.3-.6-1.3"/><path fill="#241510" d="M30.9 55.4s.1-.3.3-.7.5-.9 1-1.3c.4-.4.9-.7 1.4-.9.4-.2.7-.2.7-.2l-.1.1-.4.4c-.3.3-.7.6-1.1 1s-.8.7-1.1 1c-.5.4-.7.6-.7.6M28 62.9s.3.2.7.7.8 1.2.9 1.9c.1.4.1.8.1 1.2 0 .2 0 .4-.1.5 0 .2-.1.3-.1.5-.1.3-.2.5-.3.7l-.1.2v-.9c0-.6 0-1.3-.2-2-.1-.7-.4-1.4-.6-1.9-.1-.5-.3-.9-.3-.9"/><path fill="#241510" d="M30.4 64.4v.3c0 .1 0 .2-.1.3 0 .1-.1.2-.1.3-.1.1-.1.2-.2.3s-.1.2-.2.2l-.2.2v-.3c0-.1 0-.2.1-.3 0-.1.1-.2.1-.3.1-.1.1-.2.2-.3s.1-.2.2-.2zM24.9 71.6s.3.2.6.7c.2.2.3.5.5.8s.3.6.4 1c.1.3.2.7.3 1s.1.7 0 .9c0 .3-.1.5-.1.6s-.1.2-.1.2v-.2c0-.2 0-.4-.1-.6 0-.3-.1-.5-.2-.9-.1-.3-.2-.6-.3-1-.2-.6-.5-1.3-.7-1.7-.1-.5-.3-.8-.3-.8"/><path fill="#241510" d="M27.3 73.4s0 .1-.1.3c0 .1-.1.2-.1.2 0 .1-.1.2-.1.2l-.2.2c0 .1-.1.1-.2.2l-.2.2s-.1-.1 0-.3c0-.1 0-.2.1-.3 0-.1.1-.2.1-.3l.2-.2.2-.2zM24.6 78.8s.2.2.3.7c.1.4.2 1 .2 1.6 0 .3-.1.6-.2.8-.1.3-.2.5-.3.7s-.2.3-.3.4l-.1.1s0-.1.1-.2c0-.1.1-.3.2-.5s.1-.4.2-.7c.1-.2.1-.5.1-.8v-1.5c-.2-.3-.2-.6-.2-.6"/><path fill="#241510" d="M26 79.9s0 .1-.1.2c0 .1-.1.1-.1.2l-.2.2c-.1.1-.2.1-.2.2-.1.1-.2.1-.2.1-.1 0-.3.1-.3.1s0-.1.1-.2c0-.1.1-.1.1-.2l.2-.2c.1-.1.2-.1.2-.2.1 0 .2-.1.2-.1.2-.1.3-.1.3-.1M26 48.1s-.1.2-.3.5-.5.8-.8 1.4c-.1.3-.3.6-.4 1-.2.3-.2.7-.4 1.1l-.3 1.2-.1.6v.6c-.1.4 0 .9 0 1.3s.1.8.2 1.2.2.8.3 1.1c.1.4.3.7.4 1s.2.6.4.8l.3.6.3.6s-.1-.2-.4-.5c-.1-.2-.3-.3-.4-.6-.2-.2-.3-.5-.5-.8s-.4-.6-.5-1-.3-.8-.4-1.2-.2-.9-.2-1.3c0-.5-.1-.9 0-1.4v-.7l.1-.7c.1-.5.2-.9.3-1.3.2-.4.3-.8.5-1.1.2-.4.4-.7.5-1 .4-.6.7-1 1-1.3.2 0 .4-.1.4-.1M31.5 61s.5.6.8 1.7c.1.3.2.6.2.9.1.3.1.7.1 1v1.1l-.1.6-.2.6c-.1.4-.3.7-.4 1.1l-.6.9c-.2.3-.5.5-.7.7s-.5.4-.7.6c-.4.4-.9.5-1.2.7-.3.1-.5.2-.5.2s.1-.1.4-.3c.2-.2.6-.5 1-.9l.6-.6c.2-.2.4-.5.6-.8s.4-.6.5-.9.3-.6.4-1l.2-.5.1-.5c.1-.3.1-.7.1-1v-1c0-.3-.1-.6-.1-.9-.1-.5-.2-1-.3-1.3zM23.9 70.6s-.4.4-.9 1q-.3.45-.6 1.2c-.1.2-.1.5-.2.7 0 .2-.1.5-.1.7v.8c0 .2 0 .5.1.7s.1.5.1.7c.1.2.1.4.2.6q.15.6.3.9c.1.2.1.4.1.4s-.1-.1-.2-.3-.4-.5-.5-.8c-.2-.4-.4-.8-.5-1.3-.1-.2-.1-.5-.2-.8s0-.6 0-.9c0-.6.2-1.1.4-1.6s.5-.9.8-1.2c.6-.6 1.2-.8 1.2-.8"/><path fill="#241510" d="M26.8 78.4s.2.5.3 1.3c0 .4 0 .9-.1 1.4 0 .3-.1.5-.2.8-.1.2-.2.5-.4.7s-.3.4-.6.6c-.2.2-.4.3-.7.5-.2.1-.5.2-.7.3-.2 0-.4 0-.6.1-.4.1-.7 0-1 0h-.4s.1 0 .3-.1.5-.1.9-.3c.2-.1.4-.1.6-.2l.6-.3c.2-.1.4-.3.5-.4.2-.2.3-.3.4-.5.2-.2.2-.4.4-.6.1-.2.2-.4.2-.7.1-.4.2-.9.3-1.2.2-.9.2-1.4.2-1.4"/><path fill="#bd8962" d="M61.4 17.7c4.5 6.9 3.8 21 3.8 21S70 55 54.2 60.9c-8 3-16.1-.5-20.6-6.7-4.9-6.8-7.7-13.4-7.7-22.1 0-3.9 1.4-11.2 5-15.8 6.5-8.5 22.4-10.9 30.5 1.4"/><g fill="#633b2c"><path d="M53.4 41.2s.4.3.9 1c.5.6 1.1 1.6 1.2 2.7v.8c-.1.3-.2.6-.3.8s-.3.4-.5.6-.4.3-.6.4c-.8.4-1.3.4-1.3.4s.1-.1.3-.2.5-.3.8-.5.6-.5.8-.9c.1-.2.2-.4.2-.6V45c0-.5-.2-1-.4-1.4s-.3-.9-.5-1.2c-.4-.7-.6-1.2-.6-1.2M51 46.5s-.1.1-.3.1c-.1 0-.2.1-.3.1s-.2.1-.3.1c-.2.1-.4.2-.5.3l-.2.2v-.4c0-.1.1-.2.2-.3l.3-.3c.1-.1.3-.1.4-.1h.4c.2.3.3.3.3.3"/></g><g fill="#3d241b"><ellipse cx="3.819" cy="3.729" rx="2.5" ry="1.3" transform="rotate(-88.305 47.815 -7.582)"/><path d="M60.9 35.7s-.4-.3-1-.6c-.3-.2-.7-.3-1.1-.4s-.8-.2-1.2-.2c-.2 0-.4 0-.6.1-.2 0-.4.1-.6.2s-.4.2-.5.2c-.2.1-.3.2-.5.3-.3.2-.5.4-.7.5s-.3.2-.3.2.1-.1.2-.3.3-.4.5-.7l.4-.4c.2-.1.4-.3.6-.4s.4-.2.7-.3c.2 0 .5-.1.8-.1.5 0 1 .1 1.4.3s.8.4 1.1.7c.6.4.8.9.8.9"/></g><g fill="#3d241b"><ellipse cx="3.909" cy="3.723" rx="2.5" ry="1.3" transform="rotate(-88.305 40.404 .137)"/><path d="M45.8 35.9s-.4-.3-1-.7c-.3-.2-.6-.4-1-.5-.2-.1-.4-.1-.6-.2-.2 0-.4-.1-.6-.1H42c-.2 0-.4.1-.6.2s-.4.2-.5.3c-.2.1-.3.2-.5.3-.3.2-.5.4-.7.5s-.3.2-.3.2.1-.1.2-.3.2-.5.5-.7l.4-.4c.2-.1.4-.3.6-.4s.4-.2.7-.3c.3 0 .5-.1.8-.1s.5.1.8.1c.2.1.5.2.7.3.4.2.7.5 1 .8.5.6.7 1 .7 1"/></g><path fill="#3d241b" d="M46.7 32.4s-.1-.1-.4-.1c-.2-.1-.6-.2-1-.4s-.9-.3-1.5-.4c-.3 0-.6-.1-.9-.1s-.6-.1-.9-.1c-.6-.1-1.2 0-1.8 0-.3 0-.6.1-.8.1-.3 0-.5.1-.8.1-.5.1-.9.2-1.1.3-.3.2-.4.2-.4.2s.1-.1.4-.3c.2-.2.6-.4 1-.7.2-.1.5-.3.7-.4.3-.1.5-.3.9-.3.6-.2 1.3-.3 2-.4h2c.6.1 1.2.2 1.7.3s.9.3 1.2.4.5.2.5.2c.4.2.6.7.4 1.1-.3.6-.8.8-1.2.5M54.5 30.7s.1-.1.4-.1c.2-.1.6-.2 1-.2.4-.1.9-.1 1.5-.1.5 0 1.1 0 1.7.1s1.1.2 1.6.4c.3.1.5.2.7.3l.6.3c.4.2.6.5.8.6l.3.3s-.1 0-.4-.1c-.1 0-.2-.1-.4-.1s-.3-.1-.5-.1c-.4-.1-.8-.2-1.3-.2q-.75-.15-1.5 0c-.5 0-1 .1-1.5.1-.5.1-.9.1-1.3.2s-.7.1-.9.2-.3.1-.3.1c-.4.1-.9-.1-1.1-.5-.1-.5.2-1 .6-1.2"/><path fill="#633b2c" d="M57.4 51.7s-.7.5-1.7 1.1c-.5.3-1.2.6-1.9.8l-1.2.3c-.4.1-.8.1-1.2.1s-.8 0-1.2-.1c-.4 0-.8-.1-1.2-.2-.8-.2-1.4-.5-2-.7-.5-.3-1-.6-1.3-.8s-.5-.3-.5-.3.2.1.5.2c.3.2.8.3 1.4.5s1.2.4 1.9.5c.4.1.7.1 1.1.1h1.2c1.6-.1 3.1-.5 4.2-.9 1.1-.3 1.9-.6 1.9-.6"/><path fill="#824d39" d="M64.1 52.7s-.2.4-.7 1.1q-.3.45-.9 1.2c-.4.4-.7 1-1.2 1.5l-1.6 1.6c-.6.5-1.3 1.1-2 1.6s-1.5.9-2.4 1.4c-.9.3-1.7.7-2.7.9-.9.3-1.9.3-2.8.5h-1.4c-.5 0-.9 0-1.3-.1-.9-.1-1.7-.2-2.5-.5-.8-.2-1.5-.4-2.2-.7-.6-.3-1.2-.5-1.8-.8-.5-.3-.9-.5-1.3-.7-.7-.4-1.1-.7-1.1-.7s.4.2 1.2.5c.4.2.8.4 1.3.6s1.1.4 1.8.7c.6.3 1.4.4 2.1.6.8.2 1.6.3 2.4.4.4.1.9.1 1.3.1h1.3c.9-.1 1.8-.2 2.7-.5.9-.2 1.7-.6 2.6-.9.8-.4 1.6-.8 2.3-1.3.7-.4 1.4-1 2-1.4.6-.5 1.2-1 1.7-1.5 1-1 1.8-1.8 2.3-2.5.6-.8.9-1.1.9-1.1"/><path fill="#3d241b" d="M32.9 53.2C19.1 44.6 21.6 30 23.4 21.8c1.9-8.3 12.3-10.6 12.3-10.6.5-1.4-.1-4.1-.1-4.1 1.7 1 1.6 3.6 1.6 3.6s2.9-2.9 6.5-2.8 6.9-2.7 6.9-2.7c-.6 2-1.6 3-1.6 3 5.6-1.1 9 3 11.6 5.3s5.7 2 5.7 2c-3.1 1.2-4.5.5-4.5.5s4 4.3 4.9 11.5-1.6 11.1-1.6 11.1c0-4-.6-9.8-.6-9.8-16.3-1.2-17.7-10.3-17.7-10.3-.1 4.4 2.9 7.9 2.9 7.9-6.1-1.8-6.5-10.1-6.5-10.1s.1 5.4 1.3 6.6c0 0-5.1-2-5-5.5 0 0 .1 11.6-4.1 15.2-9.7 8.6-2.5 20.6-2.5 20.6"/><path fill="#241510" d="M64.6 28.9s-1.4.1-3.4-.1c-.5-.1-1.1-.1-1.7-.2s-1.2-.2-1.8-.4c-.6-.1-1.3-.4-1.9-.6-.7-.2-1.3-.5-1.9-.8s-1.2-.7-1.8-1c-.5-.4-1.1-.8-1.6-1.2-.5-.5-1-.9-1.3-1.4s-.7-.9-1-1.4-.5-.9-.7-1.3c-.1-.4-.2-.7-.3-1l-.3-.9s.1.3.4.9c.1.3.3.6.4 1 .2.3.5.7.8 1.2.2.4.7.8 1 1.3s.8.8 1.3 1.3c.4.5 1 .8 1.5 1.2.6.4 1.2.7 1.7 1 .6.3 1.2.6 1.8.8s1.2.5 1.9.6c1.2.4 2.4.6 3.4.8.5.1 1 .2 1.4.2.4.1.8.1 1.1.1.6-.1 1-.1 1-.1M49.8 26.6s-.2 0-.5-.1c-.2 0-.4-.1-.6-.2s-.5-.2-.7-.4c-.5-.3-1-.7-1.6-1.3-.2-.3-.5-.6-.7-.9s-.4-.6-.6-1c-.2-.3-.4-.7-.5-1-.2-.3-.3-.7-.4-1s-.2-.7-.3-1-.2-.6-.2-.9c-.1-.6-.2-1-.2-1.4 0-.3-.1-.5-.1-.5s.1.2.2.5.3.8.5 1.3l.3.9c.1.3.3.6.4.9s.3.7.5 1 .3.7.5 1c.3.7.8 1.3 1.2 1.8s.9 1 1.3 1.3c.8.8 1.5 1 1.5 1M44.7 23.1s-.5 0-1.2-.3q-.6-.15-1.2-.6l-1.2-.9q-.6-.6-.9-1.2l-.3-.6c-.1-.2-.1-.4-.2-.6-.1-.4-.1-.7-.1-.9v-.3s.1.1.1.3c.1.2.2.5.3.8s.4.7.6 1c.2.4.5.7.9 1.1.6.7 1.4 1.2 2 1.6.7.4 1.2.6 1.2.6M32.9 53.2s-.8-.3-2-1.1-2.8-2.1-4.4-4-3.1-4.5-3.9-7.5c-.9-3-1.3-6.3-1.1-9.6.1-1.6.3-3.3.5-4.9.3-1.6.6-3.2 1.2-4.6.3-.7.6-1.4 1-2.1s.8-1.2 1.3-1.8c.9-1.1 1.9-2.1 2.8-2.8 1-.8 1.9-1.4 2.8-1.8.9-.5 1.7-.8 2.4-1 1.4-.5 2.2-.6 2.2-.6s-.8.2-2.1.7-3.2 1.5-5 3.1c-.9.8-1.9 1.7-2.7 2.8s-1.6 2.4-2.1 3.8-.9 3-1.1 4.5c-.2 1.6-.4 3.2-.5 4.8-.2 3.2.1 6.5 1 9.4.8 2.9 2.2 5.5 3.7 7.4s3 3.3 4.2 4.2c1.1.8 1.8 1.1 1.8 1.1M66.3 15.6s-.5.4-1.3.7c-.9.3-2.1.5-3.3.4-.3 0-.6-.1-.9-.2-.3 0-.6-.2-.8-.3-.3-.1-.5-.2-.8-.3-.2-.1-.4-.2-.6-.4-.4-.2-.7-.5-.9-.7l-.3-.3s.1.1.4.2c.1.1.3.1.4.2.2.1.4.1.5.2.2.1.4.2.7.3.2.1.5.2.7.2.5.1 1.1.3 1.6.3 1.1.1 2.3 0 3.1-.1.9 0 1.5-.2 1.5-.2M50.6 5.3s0 .5-.2 1.2-.7 1.6-1.5 2.3c-.2.2-.4.3-.6.4-.2.2-.5.2-.7.3s-.5.1-.7.2-.4.1-.6.1c-.4.1-.7 0-.9 0h-.3s.1 0 .3-.1c.1 0 .2-.1.4-.1.1 0 .3-.1.5-.1.2-.1.4-.1.5-.2.2-.1.4-.1.6-.3l.6-.3c.2-.1.4-.2.5-.4.7-.6 1.2-1.3 1.6-1.9.3-.6.5-1.1.5-1.1"/><path fill="#bd8962" d="M32.6 41.3s-.4-6.6-8.8-9.3c0 0-1.1 12.8 7.3 14.3"/><path fill="#824d39" d="M24.6 33.4s.8.3 1.8 1q.75.45 1.8 1.2c.6.5 1.3 1.1 1.8 1.8.2.4.5.8.6 1.3V40c0 .8-.1 1.5 0 2.1 0 .3.1.6.2.8s.3.4.4.5c.3.2.5.2.5.2s-.2 0-.6-.1c-.2-.1-.4-.2-.5-.4-.2-.2-.3-.5-.4-.8-.2-.6-.2-1.4-.2-2.2V39c0-.3-.2-.6-.5-1-.5-.6-1.1-1.2-1.6-1.7-.6-.5-1.1-1-1.6-1.4-1-1-1.7-1.5-1.7-1.5"/><path fill="#824d39" d="M29.7 37.6s-.2.2-.4.5-.5.7-.7 1.1c-.1.2-.2.4-.3.7-.1.2-.2.4-.2.6-.1.2-.1.3-.2.5 0 .1-.1.2-.1.2s-.1-.3-.1-.7v-.7c0-.3.1-.5.3-.8.1-.2.3-.5.5-.7s.4-.3.6-.5c.3-.2.6-.2.6-.2"/><path fill="#3d241b" d="M37.5 29.3c-1.3 4.9-3.7 8.8-1.7 12.7 1.7 3.2 1.5 8.4-1 9.1 0 0 1.2-3.5.1-4.9 0 0 .5 1.9-.6 2.9 0 0-.5-3.5-1.7-5.2-2.2-3.2-2.6-6.6-.1-12s5.8-5.8 5-2.6"/><path fill="#241510" d="M34.8 51.1s.4-.1.9-.7c.2-.3.5-.7.6-1.2.2-.5.2-1.1.3-1.7 0-.6 0-1.3-.2-2.1-.1-.7-.3-1.5-.6-2.3-.2-.8-.5-1.6-.7-2.4-.2-.9-.3-1.8-.4-2.7 0-1.8.4-3.6 1-5.2s1.3-2.9 1.8-4.1.9-2.2 1.1-3c.2-.7.3-1.2.3-1.2s-.1 1.8-1.1 4.3c-.5 1.2-1.1 2.7-1.6 4.2s-.9 3.2-.9 5c0 .9.1 1.7.3 2.5s.5 1.6.7 2.4.4 1.6.5 2.4.1 1.5.1 2.2c0 .3-.1.7-.1 1-.1.3-.1.6-.3.8-.2.5-.5.9-.8 1.2s-.6.4-.7.5-.2.1-.2.1M31.5 42.1s-.1-.1-.3-.4c-.1-.3-.3-.6-.5-1.1s-.3-1.1-.3-1.7c-.1-.6 0-1.3.1-2s.2-1.3.5-1.9c.2-.6.4-1.1.7-1.6.2-.5.5-.8.6-1 .2-.2.3-.4.3-.4s0 .2-.1.4c-.1.3-.2.7-.4 1.1-.1.2-.1.5-.2.8s-.1.6-.2.8c-.1.3-.1.6-.2.9s-.1.6-.2.9c-.2 1.3-.2 2.5 0 3.5.1.5.2.9.3 1.1-.2.4-.1.6-.1.6"/><path fill="#a68f81" d="M89.9 87.8S87.2 85 80 85.9l3.9 3.4z"/><path fill="#bd8962" d="M82.6 88s-1.9-2.1-1.6-7c.2-3.3-.7-6 .3-6.1 1.9-.2 1.5 5 1.5 5s1.4-4.4 2-5.8c.5-1.3 1.9-4 2.6-4 1.1-.1.4 1.5-.7 4.5 0 0 1.2-2.4 2.3-3.4.9-.9 2.1-.9 1.7.7 0 0 1.7-1.9 1.7 1.1 0 0 2.1-.6-.8 5.3-1.4 2.3-1.6 13.8-9 9.7"/><path fill="#824d39" d="M92.2 72.8s-.2.4-.6 1.1c-.3.6-.7 1.5-1.1 2.3s-.8 1.7-1.1 2.3-.6 1-.6 1 .1-.5.2-1.2c.2-.7.5-1.6.9-2.5s.9-1.7 1.4-2.2.9-.8.9-.8M90.6 71.4s-.2.5-.6 1.1c-.3.7-.8 1.6-1.2 2.5s-.8 1.8-1.2 2.5c-.2.3-.3.6-.4.8s-.2.3-.2.3 0-.5.2-1.3q.3-1.2.9-2.7c.4-.9 1-1.8 1.5-2.4.6-.5 1-.8 1-.8M87.5 72.7s-.1.4-.3.9-.5 1.3-.8 2-.7 1.4-.9 1.9q-.15.45-.3.6c-.2.2-.2.3-.2.3s0-.4.1-1 .4-1.3.7-2.1c.3-.7.7-1.4 1.1-1.9.3-.4.6-.7.6-.7M82.1 87.2s-.1 0-.2-.2c-.1-.1-.3-.4-.4-.6-.3-.6-.5-1.4-.6-2.2s-.1-1.6 0-2.2.1-1 .1-1 .1.4.2 1 .2 1.4.3 2.2.2 1.6.3 2.1c0 .3.1.5.2.7 0 .2.1.2.1.2M82.7 79.9s.4 0 .8.3c.5.2 1 .7 1.4 1.3.2.3.3.6.4 1 .1.3.1.6.1.9v.8s0-.1-.1-.2c0-.1-.1-.3-.2-.6-.1-.2-.2-.5-.3-.8s-.3-.6-.4-.8c-.3-.5-.7-1-1.1-1.4-.3-.3-.6-.5-.6-.5"/><path fill="#d9c2b1" d="M81.3 121.3c3.6-4.7 3.4-13.8 4.6-19s4-14.5 4-14.5-4.8 1.3-9.9-1.9c0 0-5.6 19.2-7.2 23.5-1.5 4.3-1.7 7.3-.4 10.2 1.2 3 4.7 7.2 8.9 1.7"/><path fill="#a68f81" d="M70.1 120.7s-.2-.4-.3-1.1-.2-1.6-.1-2.6c.1-.9.4-1.9.7-2.5.2-.3.3-.6.4-.7.1-.2.2-.3.2-.3s0 .1-.1.3-.1.5-.2.8c-.2.7-.3 1.6-.4 2.4-.1.9-.2 1.8-.2 2.5zM76.3 98.5s-.5 1.5-1.2 3.7c-.4 1.1-.7 2.4-1.1 3.8s-.8 2.9-1.1 4.4c-.4 1.5-.6 3-.8 4.4-.1.7-.1 1.4-.2 2 0 .7 0 1.3.1 1.8.1 1.1.5 2 .9 2.5l.3.3c.1.1.2.2.3.2l.2.2s-.1-.1-.2-.1-.2-.1-.3-.2l-.3-.3c-.2-.3-.5-.6-.7-1s-.4-1-.5-1.5c-.1-.6-.2-1.2-.2-1.9s0-1.4.1-2.1c.1-1.5.4-3 .7-4.5.4-1.5.8-3 1.2-4.4s.9-2.6 1.3-3.7c.8-2.3 1.5-3.6 1.5-3.6"/></g></svg>