<svg xmlns="http://www.w3.org/2000/svg" width="91.755" height="255.814" viewBox="0 0 91.755 255.814"><g stroke-miterlimit="10" data-paper-data="{&quot;isPaintingLayer&quot;:true}" style="mix-blend-mode:normal"><g data-paper-data="{&quot;origPos&quot;:null}"><path fill="#ebebeb" d="m54.703 255.814.9-9.7 14.8.6 9.4 2.3 7.4 6.8z"/><path fill="#1b82c2" d="m53.903 247.514-3.7-50.4-6.4-62h30l.7 62.3v50.1z"/></g><g data-paper-data="{&quot;origPos&quot;:null}"><path fill="#ebebeb" d="m16.803 255.814.9-9.7 14.8.6 9.4 2.3 7.4 6.8z"/><path fill="#1b82c2" d="m18.303 247.514.5-52.3.7-60.1h29.1l-6.6 61.8-4.7 50.6z"/></g><g data-paper-data="{&quot;origPos&quot;:null}"><path fill="#dbae76" d="M80.103 114.459c-3.2.4-8.6-1.3-8.6-1.3s-8.1-46.9-1.1-48.6c12.6-3.4 14.9 46.6 14.9 46.6s-2.1 2.9-5.2 3.3"/><path fill="#45b1b1" d="M65.703 96.159s-9-32.9 2.5-35.1c10.1-2 21.6 29 21.6 29z"/></g><g fill="#dbae76" data-paper-data="{&quot;origPos&quot;:null}"><path d="m88.103 137.814-8.2 2.4-8.8-27.1s3.1-4.2 6.7-3.9c2.7.2 7.3 1 7.3 1z" data-paper-data="{&quot;origPos&quot;:null}"/><path d="M84.619 160.387c-1.884.27-1.113-8.75-2.878-8.912-1.353-.14.26 5.453-.175 6.354-.532.92-3.273-.578-3.273-.578s-2.535-5.106-2.96-7.774c-1.061-5.907 4.604-11.813 4.604-11.813l7.276-.313s4.395 6.268 4.54 10.622c.087 4.06-3.008 9.563-3.008 9.563s-2.302 2.797-4.126 2.851" data-paper-data="{&quot;origPos&quot;:null,&quot;index&quot;:null,&quot;origRot&quot;:0}"/></g><path fill="#afe1c6" d="m17.103 140.214-.2-76.3s15.2-7.9 28.2-8.1 23.933 4.011 26.333 5.311c2.3 1.2 3.067 81.29 3.067 81.29s-17.1 2.8-28.7 2.7c-11.8-.2-28.7-4.9-28.7-4.9" data-paper-data="{&quot;origPos&quot;:null}"/><path fill="#dbae76" d="M6.703 116.514c-2.5-.2-6.3-2.2-6.3-2.2s5.6-50.6 19.9-50.3c11.2-.3-7.2 51.3-7.2 51.3s-3.9 1.4-6.4 1.2"/><path fill="#45b1b1" d="M.603 90.614s11.4-29 18.4-28.2c16.6 1.8 3.9 36.9 3.9 36.9z"/><g fill="#dbae76"><path d="m2.403 141.214-2.1-27.7s4-1.2 6.3-1.6c3.2-.6 6.7 3.3 6.7 3.3l-3.2 27.7z"/><path d="M4.903 160.314s-4.1-4.8-4.8-8.8c-.7-4.3 2.4-11.3 2.4-11.3l7.2-1.1s6.7 4.7 6.8 10.7c.1 2.7-1.4 8.2-1.4 8.2s-2.4 2-3.1 1.2c-.6-.8-.1-6.6-1.4-6.2-1.7.5.8 9.2-1.1 9.3-1.8.3-4.6-2-4.6-2"/></g><path fill="#0a0500" d="M45.803.114c6.8-1.1 13.9 6.1 13.9 6.1s4 .4 5.1 2.4 1.5 5.3 2 10.3c1.2 13.7-9.6 34.4-20.4 35-7.2-7-9.5-.2-11.9-3.6-5-7.2-8-11.3-9.9-20.4-1.6-8.1-2.5-12.5.8-19.2 3.3-6.8 10.5-6.7 10.5-6.7l-2.9-1.7s6.4-1.5 9-1.3c2.2.1 6.2 1.5 6.2 1.5z" data-paper-data="{&quot;origPos&quot;:null}"/><g fill="#cca168"><path d="m37.603 46.214 15.2 3.4-.1 9.1s4.9.9 4.8 3.7c-.1 4.5-18.9 6.9-22.8 0-1.5-3.4 2-4.6 2-4.6zM33.003 35.114c.8 2.4.3 4.7-1 5.1-1.4.5-3.2-1-4-3.4s-.3-4.7 1-5.1c1.4-.5 3.2 1.1 4 3.4" data-paper-data="{&quot;origPos&quot;:null}"/><path d="M64.503 32.914c0 12.8-7.9 19.6-14.7 19.9-11.8.2-19.4-9.5-19.4-22.3s2.2-22.4 17.2-23.1c11.4-.6 18.883 11.5 16.883 25.2z" data-paper-data="{&quot;origPos&quot;:null}"/></g><path d="M52.903 45.614c0 .7-2 2.2-3.7 2.2s-3.5-1.9-3.5-2.7c0-.7 2.2 0 4 0s3.2-.2 3.2.5"/><path fill="#0a0500" d="M26.403 25.371S23.589-3.7 53.903 4.314c6.9 1.9 11.4 7.8 11.9 11.7.464 3.69-1.105 10.065-1.105 10.065l-6.395-7.965s-5 2.6-8.2 3.4c-4.9 1.3-12.5 2-12.5 2l.9-5-8.055 13.495-.688-8.795z" data-paper-data="{&quot;origPos&quot;:null}"/><path fill="none" stroke="#000" stroke-linecap="round" stroke-width="1.278" d="M52.303 38.214s-.3 1-2.2 1c-1.4 0-2.2-.8-2.2-.8"/><path fill="none" stroke="#000" stroke-linecap="round" stroke-width="1.46" d="M38.803 26.414s2.9-.8 4.4-.8c1.7-.1 3.7.8 3.7.8M38.703 30.014s2.2-1.2 4.5-1c2.5.2 2.9 1.1 2.9 1.1"/><path d="M42.003 31.514c0-1.2.9-2.2 2.1-2.2s2.1 1 2.1 2.2-.9 2.2-2.1 2.2c-1.1 0-2.1-1-2.1-2.2"/><path fill="none" stroke="#000" stroke-linecap="round" stroke-width="1.46" d="M54.203 26.314s2.3-.8 4-.8c1.5.1 3.2.5 3.2.5M54.203 30.314s1-1.1 2.9-1.3c2.3-.2 4.5.4 4.5.4"/><path d="M59.103 33.414c-1.2 0-2.1-1-2.1-2.2s.9-2.2 2.1-2.2 2.1 1 2.1 2.2c.1 1.2-.9 2.2-2.1 2.2"/></g></svg>