<svg xmlns="http://www.w3.org/2000/svg" width="192.308" height="170.15" viewBox="-0.758 0 192.308 170.15"><path fill="#174832" d="m137.45 72.3-11.3 15-85 23.05c-13 3.5-26.85 1.6-38.35-5.4l-1.3-.7c-1-.6-1.3-1.9-.7-2.85.1-.15.25-.35.4-.45l17.3-15.7L132.55 54.3z"/><g fill="none" stroke="#151b22" stroke-width=".5"><path d="m120.2 57.15 7.55 28.05M109.2 60.65l7.9 29.1M97.85 64.25l7.8 28.65M86.3 66.85 94.2 96M74.85 69.95l7.9 29.2M63.5 73.5l7.8 28.7M51.9 76.2l7.95 29.2M40.9 80.9l6.75 24.85M29 82.4l7.5 27.5M17.9 87l6 23.6M7.9 95.2l3.5 12.9"/></g><path fill="#00b694" d="m120.2 57.15-109 29.6c-4.05 1.1-3.25 7.1.95 7.05l47.9-.35c17.2-.15 33.85-5.75 47.65-16.05l17.65-13.2z"/><path fill="none" stroke="#1b7e64" stroke-width=".5" d="M122.2 59.9 9.75 90.4M117.6 68.9 27.75 93.3M101.95 80.65l-46.1 12.3"/><path fill="none" stroke="#151b22" stroke-linecap="round" stroke-width="1.5" d="m82 168.8 13.2.1-69.7-57.25"/><path fill="#ecf135" d="M95.35 79.5 23.9 110.6c-1.15.45-1.75 1.75-1.3 2.9.45 1.1 1.65 1.7 2.8 1.35l75.7-20.65c4.2-1.15 6.7-5.5 5.6-9.7-1.15-4.2-5.5-6.7-9.7-5.6-.55.1-1.1.35-1.65.6"/><path fill="none" stroke="#151b22" stroke-linecap="round" stroke-width="1.5" d="m67.7 145.3 12.8.2.95-50.3"/><path fill="#151b22" d="M81.55 92.05a2.246 2.246 0 0 1 2.25 2.25 2.246 2.246 0 0 1-2.25 2.25 2.246 2.246 0 0 1-2.25-2.25 2.246 2.246 0 0 1 2.25-2.25M124.35 77.6c1.379 0 2.629.56 3.535 1.465a5 5 0 0 1 1.465 3.535c0 1.379-.56 2.629-1.465 3.535a5 5 0 0 1-3.535 1.465 5 5 0 0 1-3.535-1.465 5 5 0 0 1-1.465-3.535c0-1.379.56-2.629 1.465-3.535a5 5 0 0 1 3.535-1.465"/><path fill="none" stroke="#151b22" stroke-width="2.5" d="m125.05 82.6-44.2 11.8"/><path fill="#54923a" d="m112.25 57.2 29.3-7.95 7.8 28.75c.7 2.45-.75 5-3.2 5.7-1.45.4-2.95.1-4.1-.85l-30.1-23.9c-.45-.35-.5-.95-.15-1.4.05-.15.25-.25.45-.35"/><path fill="#174832" d="M126.15 56.35c.993 0 1.893.403 2.545 1.055a3.6 3.6 0 0 1 1.055 2.545c0 .993-.403 1.893-1.055 2.545a3.6 3.6 0 0 1-2.545 1.055 3.6 3.6 0 0 1-2.545-1.055 3.6 3.6 0 0 1-1.055-2.545c0-.993.403-1.893 1.055-2.545a3.6 3.6 0 0 1 2.545-1.055M138.9 60.35c.993 0 1.893.403 2.545 1.055a3.6 3.6 0 0 1 1.055 2.545c0 .993-.403 1.893-1.055 2.545a3.6 3.6 0 0 1-2.545 1.055 3.6 3.6 0 0 1-2.545-1.055 3.6 3.6 0 0 1-1.055-2.545c0-.993.403-1.893 1.055-2.545a3.6 3.6 0 0 1 2.545-1.055M141.35 82.45c1.15.9 3.3 1.65 4.75 1.25 2.45-.7 3.9-3.25 3.2-5.7l-1-3.75-12.95 3.35zM130.8 74c1.1-.6 1.9-1.8 1.9-3.15 0-2-1.6-3.6-3.6-3.6-1.65 0-3.05 1.1-3.45 2.65zM146.9 72.6c.35 0 .65-.05.95-.15l-1.85-6.9c-1.55.4-2.65 1.8-2.65 3.45-.05 2 1.55 3.6 3.55 3.6M113 57.05c.45 1.5 1.8 2.6 3.45 2.6 2 0 3.6-1.6 3.6-3.6 0-.3-.05-.6-.1-.9-2.6.7-4.95 1.35-6.95 1.9M138.2 50.25c-1.7.45-3.65 1-5.65 1.55-.15.4-.2.8-.2 1.2 0 2 1.6 3.6 3.6 3.6s3.6-1.6 3.6-3.6c-.05-1.1-.55-2.1-1.35-2.75"/><path fill="none" stroke="#151b22" stroke-linecap="round" d="M172.1 1.25 158.85 48.7 190.3 12"/><path fill="#00c0a5" d="m143.95 44.8 7.35-2c3.95-1.05 8 1.25 9.05 5.2.35 1.25.35 2.6 0 3.85L155.3 70.4c-.6 2.2-2.9 3.5-5.1 2.9-1.4-.4-2.5-1.5-2.9-2.9l-5.8-21.3c-.5-1.85.6-3.75 2.45-4.3"/><path fill="none" stroke="#174832" stroke-width=".5" d="m152.15 73.4.65-20.1"/><path fill="#ecf135" d="M152.7 45c1.504 0 2.866.611 3.853 1.597a5.44 5.44 0 0 1 1.597 3.853 5.44 5.44 0 0 1-1.597 3.853A5.44 5.44 0 0 1 152.7 55.9a5.44 5.44 0 0 1-3.853-1.597 5.44 5.44 0 0 1-1.597-3.853c0-1.504.611-2.866 1.597-3.853A5.44 5.44 0 0 1 152.7 45"/><path fill="#151b22" d="M152.7 47.1c.924 0 1.762.375 2.368.982.607.606.982 1.444.982 2.368s-.375 1.762-.982 2.368a3.34 3.34 0 0 1-2.368.982 3.34 3.34 0 0 1-2.368-.982 3.34 3.34 0 0 1-.982-2.368c0-.924.375-1.762.982-2.368a3.34 3.34 0 0 1 2.368-.982"/><path fill="none" stroke="#151b22" stroke-linecap="round" stroke-width="1.5" d="m136.4 140.25 4.95-12.9 9.5-25.9-5.7-21.95"/><path fill="#151b22" d="M144.85 74.75c1.242 0 2.367.504 3.181 1.319a4.48 4.48 0 0 1 1.319 3.181 4.48 4.48 0 0 1-1.319 3.181 4.48 4.48 0 0 1-3.181 1.319 4.48 4.48 0 0 1-3.181-1.319 4.48 4.48 0 0 1-1.319-3.181c0-1.242.504-2.367 1.319-3.181a4.48 4.48 0 0 1 3.181-1.319"/></svg>