<svg xmlns="http://www.w3.org/2000/svg" width="78.35" height="83.2" viewBox="-0.5 -0.5 78.35 83.2"><path fill="#0cc" d="M77.35 13.76c0 3.64-1.44 7.16-4.06 9.89l-1.02 1.07a11.02 11.02 0 0 1-8.47 3.37l-.5-.02c-1.67 3.7-3.26 6.87-4.8 9.59-1.26 2.24-2.35 4.49-3.22 6.66-.15.36-.31.72-.49 1.06l-.15.3v.01c.27 1.96.42 3.2.5 4.02.01.1.02.21.02.31.11 1.74.18 3.39.21 4.93 3.84 1.59 6.71 4.64 8 8.69.46 1.43.62 2.95.47 4.45-.14 1.37-.48 2.88-1.07 4.75-.22.68-.5 1.33-.84 1.96-2 3.66-5.57 6.11-9.84 6.75-1.83.29-3.86.36-6.24.2-1.23-.03-2.23-.05-2.75-.02-1.21.09-3.04.2-5.55.33-.15.01-.3.01-.45.01-.19.01-.52.03-.98.05-1.08.06-1.87.08-2.4.08-5.96 0-11.01-2.88-13.57-7.73-1.47-2.72-1.85-5.9-1.06-9.03l.09-.33c1.02-3.59 3.65-7.35 8.2-9.38v-1.67c-.12-1.62-.27-3.09-.45-4.39-1.27-1.26-2.34-2.55-3.23-3.89-2-2.79-4.03-5.62-6.08-8.47-.03-.04-.05-.07-.07-.1-1-1.41-1.89-2.75-2.69-4.02-1.17-.06-2.3-.22-3.37-.49-.21-.06-.41-.11-.61-.18C1.79 29.66.3 22.87.06 20.26c-.04-.44-.06-.87-.06-1.31 0-4.87 2.41-9.31 6.61-12.04.11-.07.22-.13.32-.2 1.85-1.11 3.8-1.6 6.34-2.03 2.05-.35 4.66-.51 8.22-.51 3.59 0 4.98-.13 5.41-.18 3.52-.42 6.47-.43 9.1-.07.08.01.17.02.25.04a13.25 13.25 0 0 1 5.78-2.6l.54-.09C46.04.82 50.38.53 55.82.4l3.89-.33c.05 0 .09 0 .14-.01C60.48.02 61.1 0 61.68 0c2.51 0 4.83.4 6.92 1.18 5.41 2.05 8.75 6.87 8.75 12.58"/><path fill="#fff" d="m65.339 16.05-1.012 1.056-3.606-.176q-.176 0-4.134.176-.616.265-1.144 1.407-3.52 8.445-6.51 13.722a66.5 66.5 0 0 0-3.87 8.005q-.791 1.496-1.759 4.134 0 .617.439 2.815.35 2.551.439 3.518.264 4.224.176 7.478a62 62 0 0 0 .089 5.629q.087.616.703.792 1.584.09 4.574.176 2.55.265 3.167 2.199-.09.881-.616 2.551-.528.966-1.847 1.144-1.584.264-4.047.088-3.08-.09-4.134 0-1.672.124-5.278.314-.264 0-1.451.063-1.188.061-1.803.062-2.904 0-3.87-1.935-.264-.44-.088-1.144.878-3.078 5.805-2.903h1.231q.88.178 1.363-.174.483-.35.572-1.578.087-.875 0-2.365a87 87 0 0 1-.088-2.058q0-.219-.132-1.402t-.132-1.621v-2.365q-.44-6.045-1.315-9.9-.351-.173-.965-.612-2.194-1.84-3.332-3.593a3131 3131 0 0 0-6.225-8.673q-3.946-5.608-5.349-9.198-.79-.088-2.543.176-2.017.352-2.893.352-.877 0-1.578-.176-3.071-.967-3.157-2.727-.177-2.023 1.584-3.167.438-.264 2.507-.615 2.066-.351 6.377-.353 4.661 0 6.772-.264 3.694-.439 6.245-.088 1.32.264 1.584 1.495.528 2.728-2.639 3.606-1.32.441-5.454.616 0 .88-.088.703 1.934 4.31 3.606 6.598 1.143 1.584 4.222 5.189 1.143 1.76 3.783 4.574 1.142-1.495 2.814-4.926 1.934-4.134 2.727-5.542 1.758-2.813 4.574-9.588l-.176-.176q-5.542.352-6.729-.176t-1.188-1.759q0-1.056.748-2.067.746-1.01 1.715-1.188 4.661-.614 12.403-.792 2.11-.174 4.222-.352 2.461-.175 4.09.439 1.628.617 1.628 2.287c.005.824-.334 1.585-1.007 2.289"/></svg>