<svg xmlns="http://www.w3.org/2000/svg" width="141.24" height="180.829" viewBox="0 0 141.24 180.829"><g fill="none" fill-rule="none" stroke-linecap="none" stroke-linejoin="none" stroke-miterlimit="10" stroke-width="none" data-paper-data="{&quot;isPaintingLayer&quot;:true}" font-family="none" font-size="none" font-weight="none" style="mix-blend-mode:normal" text-anchor="none"><g data-paper-data="{&quot;index&quot;:null}"><path fill="#c9e2b3" fill-rule="nonzero" d="M123.72 165.68c3 0 5.43 3.24 5.43 7.2s-2.43 7.23-5.43 7.23h-5.4v-14.43z"/><path fill="#61bb4e" fill-rule="nonzero" d="M118.32 180.11c-2.982 0-5.4-3.237-5.4-7.23s2.418-7.23 5.4-7.23 5.4 3.236 5.4 7.23c0 3.993-2.418 7.23-5.4 7.23"/><path fill="#c9e2b3" fill-rule="nonzero" d="M74.16 165.68c3 0 5.43 3.24 5.43 7.2s-2.43 7.23-5.43 7.23h-5.4v-14.43z"/><path fill="#61bb4e" fill-rule="nonzero" d="M68.76 180.11c-2.982 0-5.4-3.237-5.4-7.23s2.418-7.23 5.4-7.23 5.4 3.236 5.4 7.23c0 3.993-2.418 7.23-5.4 7.23"/><path fill="#c9e2b3" fill-rule="nonzero" d="M19.62 152.6c3 0 5.43 3.24 5.43 7.23s-2.43 7.2-5.43 7.2h-5.4V152.6z"/><path fill="#61bb4e" fill-rule="nonzero" d="M14.13 167.06c-2.982 0-5.4-3.237-5.4-7.23s2.418-7.23 5.4-7.23 5.4 3.236 5.4 7.23c0 3.993-2.418 7.23-5.4 7.23"/><path stroke="#5e154d" stroke-linecap="round" stroke-linejoin="round" stroke-width="1.44" d="M118.32 165.68h5.4c3 0 5.43 3.24 5.43 7.2s-2.43 7.23-5.43 7.23h-5.4c-3 0-5.43-3.24-5.43-7.23s2.43-7.2 5.43-7.2M68.76 165.68h5.4c3 0 5.43 3.24 5.43 7.2s-2.43 7.23-5.43 7.23h-5.4c-3 0-5.43-3.24-5.43-7.23s2.43-7.2 5.43-7.2M14.13 152.6h5.49c3 0 5.43 3.24 5.43 7.23s-2.43 7.2-5.43 7.2h-5.4c-3 0-5.43-3.21-5.43-7.2s2.34-7.23 5.34-7.23"/></g><g data-paper-data="{&quot;index&quot;:null}"><path fill="#61bb4e" fill-rule="nonzero" d="m119.73 104.81 3.54-2.43c7.41-1.65 14.49 5.4 16.38 11.43l-3 3c-.93-4.11-7.68-6-11.34-5.31a6 6 0 0 0-5.19 6.99l-3.57 2.79c-1.65-6.75 3.18-16.47 3.18-16.47"/><path fill="#c9e2b3" fill-rule="nonzero" d="M119.73 104.81c7.94-1.268 15.424 4.078 16.8 12l-6.78 1.5a6.87 6.87 0 1 0-13.32 3l-6.78 1.5c-2.139-7.749 2.356-15.775 10.08-18"/><path fill="#61bb4e" fill-rule="nonzero" stroke="#5e154d" stroke-linecap="round" stroke-linejoin="round" stroke-width="1.44" d="M121.41 112.43a5.5 5.5 0 0 1 1.71 0 5.67 5.67 0 0 0-3 6.27l-3.57 2.79a7.26 7.26 0 0 1 4.86-9.06"/><path stroke="#5e154d" stroke-linecap="round" stroke-linejoin="round" stroke-width="1.44" d="m119.73 104.81 3.54-2.43c7.41-1.65 14.49 5.4 16.38 11.43l-3 3-6.78 1.5a7.53 7.53 0 0 0-6.63-6 5.5 5.5 0 0 0-1.71 0 7.26 7.26 0 0 0-4.98 9l-6.78 1.5c-2.148-7.713 2.285-15.724 9.96-18"/><path fill="#c9e2b3" fill-rule="nonzero" d="m116.068 105.965-1.564-5.575 4.795-1.345 1.564 5.575z"/><path fill="#61bb4e" fill-rule="nonzero" d="m119.31 99.05 3.36-.93 1.14 4.05-2.94 2.46zM101.04 40.19l5.1-1.44c6-1.201 11.847 2.653 13.11 8.64l12.66 45-4.29 4.26z"/><path fill="#c9e2b3" fill-rule="nonzero" d="M101.07 40.19c5.996-1.184 11.833 2.662 13.11 8.64l13.44 47.82-19.74 5.55-13.47-47.82c-2.034-5.756.933-12.078 6.66-14.19"/><path stroke="#5e154d" stroke-linecap="round" stroke-linejoin="round" stroke-width="1.44" d="m101.04 40.19 5.1-1.44c6-1.201 11.847 2.653 13.11 8.64l12.66 45-4.29 4.26-19.74 5.55-13.47-47.82c-2.02-5.747.926-12.053 6.63-14.19"/><path stroke="#149948" stroke-linecap="round" stroke-linejoin="round" stroke-width="1.08" d="M114.96 95.84a3 3 0 1 1 0-6 3 3 0 0 1 0 6"/></g><g data-paper-data="{&quot;index&quot;:null}"><path fill="#dd3627" fill-rule="nonzero" d="m.72 126.59 52.44 17.25v29.04L.72 155.03z"/><path fill="#f05822" fill-rule="nonzero" d="m53.16 143.84-11.46-25.8h84.03l14.79 25.8z"/><path fill="#dd3627" fill-rule="nonzero" d="M53.16 143.84.72 126.59l15.45-17.22 25.53 8.67z"/><path fill="#61bb4e" fill-rule="nonzero" stroke="#5e154d" stroke-linecap="round" stroke-linejoin="round" stroke-width="1.44" d="M16.17 109.37h83.19l26.37 8.67H41.7z"/><path fill="#f05822" fill-rule="nonzero" d="M53.16 172.91v-29.07h87.36v29.07z"/><path stroke="#5e154d" stroke-linecap="round" stroke-linejoin="round" stroke-width="1.44" d="m16.17 109.37 25.53 8.67h84.03l14.79 25.8H53.16L.72 126.59z"/><path stroke="#5e154d" stroke-linecap="round" stroke-linejoin="round" stroke-width="1.44" d="M53.16 143.84h87.36v29.04H53.16L.72 155.03v-28.44z"/><g fill-rule="evenodd" stroke="#dd3627" stroke-linecap="round" stroke-linejoin="round" stroke-width="1.08"><path d="m118.32 124.73-1.83 1.86M125.73 133.85l1.89 2.67M112.89 135.2l3.24-.39M105.39 129.2l-1.2-2.61M95.28 122.87h-3.3M96.84 134.99l2.64 1.74M82.89 139.16l2.88-.96M85.05 127.79l-1.08 2.58M71.46 125.24l2.7-1.71M70.5 133.22h2.34M59.43 136.52l2.4 2.16M57.27 126.59l-.39-2.94M134.49 150.56l-1.95 2.49M132.87 162.95v2.73M127.2 157.61l-2.76.75M115.53 150.47l1.83 2.13M119.16 164.42l-1.35 2.4M106.44 164.3l-2.61.12M105.15 155.18l-.03-2.34M94.56 157.58l-2.52.96M86.55 165.2l1.41 1.74M87.39 149.84l-.99 2.4M77.25 156.35l-2.04-1.05M73.17 165.08l1.86-1.35M65.64 152.24l-2.61-.45M62.25 164.27l1.08 2.31"/></g></g><g data-paper-data="{&quot;index&quot;:null}"><path fill="#dcefca" fill-rule="nonzero" d="M82.92 12.05A46 46 0 0 0 77.67.83c1.772.17 3.527.481 5.25.93a48 48 0 0 1 4.65 10.29c3 9.9 3 23.07 3 31.68v69.18c-1.47.27-3 .51-4.65.69V43.73c.12-8.61.12-21.78-3-31.68"/><path fill="#c9e2b3" fill-rule="nonzero" d="M87.57 12.05a48 48 0 0 0-4.65-10.29 34.26 34.26 0 0 1 25.05 27.54 33.7 33.7 0 0 1 .45 5.52v68.37c0 4.17-7.17 7.83-17.73 9.72V43.73c0-8.61 0-21.78-3.12-31.68M40.62 29.3C43.06 14.41 54.97 2.877 69.93.92a48 48 0 0 1 5.19 11.13c3 9.9 3 23.07 3 31.68v70.47h-3.9c-18.87 0-34.17-4.98-34.17-11.1V34.82a33.7 33.7 0 0 1 .57-5.52"/><path fill="#dcefca" fill-rule="nonzero" d="M75 12.05A48 48 0 0 0 69.81.92c1.463-.18 2.936-.27 4.41-.27a46.9 46.9 0 0 1 5.4 11.4c3 9.9 3 23.07 3 31.68v70.2c-1.5 0-3 .21-4.62.27V43.73c.12-8.61.12-21.78-3-31.68"/><path fill="#f3ffe6" fill-rule="nonzero" d="M79.62 12.05A46.9 46.9 0 0 0 74.28.65a32 32 0 0 1 3.42.18 46 46 0 0 1 5.25 11.22c3 9.9 3 23.07 3 31.68v69.87l-3.3.33v-70.2c-.03-8.61-.03-21.78-3.03-31.68"/><path fill="#ffdb48" fill-rule="nonzero" stroke="#f05822" stroke-linecap="round" stroke-linejoin="round" stroke-width="1.08" d="M87.63 27.35a6.99 6.99 0 1 1 0-13.98 6.99 6.99 0 0 1 0 13.98"/><path stroke="#61bb4e" stroke-linecap="round" stroke-linejoin="round" stroke-width="1.08" d="M87.63 23.84a3.48 3.48 0 1 1 0-6.96 3.48 3.48 0 0 1 0 6.96"/><path fill="#ffdb48" fill-rule="nonzero" stroke="#f05822" stroke-linecap="round" stroke-linejoin="round" stroke-width="1.08" d="M66 27.35a6.99 6.99 0 1 1 0-13.98 6.99 6.99 0 0 1 0 13.98"/><path stroke="#61bb4e" stroke-linecap="round" stroke-linejoin="round" stroke-width="1.08" d="M66 23.84a3.48 3.48 0 1 1 0-6.96 3.48 3.48 0 0 1 0 6.96"/><path stroke="#5e154d" stroke-linecap="round" stroke-linejoin="round" stroke-width="1.44" d="M40.62 29.3C43.368 12.807 57.636.72 74.355.72s30.987 12.088 33.735 28.58a33.7 33.7 0 0 1 .45 5.52v68.37c0 6-15.3 11.1-34.2 11.1s-34.17-4.98-34.17-11.1V34.82a33.7 33.7 0 0 1 .45-5.52"/><path stroke="#61bb4e" stroke-linecap="round" stroke-linejoin="round" stroke-width="1.44" d="M104.7 32.57s-9.39 6.15-30.48 6.15-30.75-6.15-30.75-6.15"/></g><path fill="#61bb4e" fill-rule="nonzero" stroke="#61bb4e" stroke-linecap="round" stroke-linejoin="round" stroke-width="1.44" d="M97.62 47.96v50.55s-4.41 2.7-18 3.54a70.5 70.5 0 0 1-23.31-1.71v-51a122 122 0 0 0 20.73 1.29 95.8 95.8 0 0 0 20.58-2.67" data-paper-data="{&quot;index&quot;:null}"/><g fill-rule="nonzero" stroke="#5e154d" stroke-linecap="round" stroke-linejoin="round" stroke-width=".72" data-paper-data="{&quot;index&quot;:null}"><path fill="#5e154d" d="M91.98 69.68a54 54 0 0 1-5.55 1.14V59.75c2.28-.3 4.2-.63 5.55-.87z"/><path fill="#c9e2b3" d="M91.98 54.71v4.17c-1.35.24-3.27.57-5.55.87v-4.26c3.27-.42 5.55-.78 5.55-.78"/><path fill="#5e154d" d="M83.91 71.15c-1.62.18-3.45.36-5.43.48v-7.89c1.89 0 3.72-.3 5.43-.51z"/><path fill="#c9e2b3" d="M83.91 55.76v7.62c-1.71.21-3.54.36-5.43.51v-7.5c1.86-.27 3.72-.45 5.43-.63M70.62 61.97v-5.64h5.43v5.64c-1.92.09-3.78.06-5.43 0"/><path fill="#5e154d" d="M75.93 62v9.72H70.5v-9.75c1.77.06 3.63.09 5.43.03"/><path fill="#c9e2b3" d="M62.58 55.85s2.25.21 5.4.39v11.55c-2.13 0-4.02-.33-5.4-.48z"/><path fill="#5e154d" d="M67.98 67.79v3.81c-3.42-.21-5.4-.54-5.4-.54v-3.75c1.38.15 3.27.36 5.4.48"/></g><g fill="#ffdb48" fill-rule="nonzero" stroke="#f05822" stroke-linecap="round" stroke-linejoin="round" stroke-width=".72" data-paper-data="{&quot;index&quot;:null}"><path d="m80.67 85.46-3.39-1.83-5.52 5.07-4.71-8.31-4.47 8.16V76.19c4.986.455 9.998.575 15 .36 7.29-.48 14.55-1.8 14.55-1.8v12.78l-6.66-6.15z"/><path d="m67.05 80.39 4.71 8.31 5.52-5.07 3.39 1.83 4.8-4.08 6.51 6.18v6.27a61.7 61.7 0 0 1-14.28 2.25c-5.01.362-10.047.12-15-.72v-6.81z"/></g><g data-paper-data="{&quot;index&quot;:null}"><path fill="#61bb4e" fill-rule="nonzero" d="m28.29 104.69 4.17-.9c7.5 1.23 11.46 10.41 10.98 16.71l-4.05 1.65c.69-4.17-4.83-8.55-8.55-9a6 6 0 0 0-7.41 4.56l-4.35 1.26c1.14-7.08 9.21-14.28 9.21-14.28"/><path fill="#dcefca" fill-rule="nonzero" d="M28.29 104.69c.664.095 1.317.256 1.95.48l-1.26 7.86a6 6 0 0 0-1.92-.66h-.75l1.26-7.71q.361-.03.72.03"/><path fill="#c9e2b3" fill-rule="nonzero" d="m39.39 122.15-6.84-1.14a7.62 7.62 0 0 0-3.57-7.98l1.26-7.86a15 15 0 0 1 9.15 16.98"/><path fill="#dcefca" fill-rule="nonzero" d="m25.35 104.57-1.32 8.07a6.7 6.7 0 0 0-2.82 1.86l1.41-9.45a10.8 10.8 0 0 1 2.73-.48"/><path fill="#c9e2b3" fill-rule="nonzero" d="M12.24 117.71a15.6 15.6 0 0 1 10.38-12.66l-1.41 9.33a8.2 8.2 0 0 0-2.13 4.32z"/><path fill="#f3ffe6" fill-rule="nonzero" d="m27.57 104.6-1.26 7.71a6 6 0 0 0-2.28.33l1.32-8.07a11 11 0 0 1 2.22.03"/><path fill="#61bb4e" fill-rule="nonzero" stroke="#5e154d" stroke-linecap="round" stroke-linejoin="round" stroke-width="1.44" d="M27.06 112.37a6 6 0 0 1 1.62.51 5.76 5.76 0 0 0-5.25 4.68l-4.35 1.26a7.29 7.29 0 0 1 7.98-6.45"/><path stroke="#5e154d" stroke-linecap="round" stroke-linejoin="round" stroke-width="1.44" d="m28.29 104.69 4.17-.9c7.5 1.23 11.46 10.41 10.98 16.71l-4.05 1.65-6.84-1.14a7.56 7.56 0 0 0-3.93-8.13 6 6 0 0 0-1.62-.51 7.29 7.29 0 0 0-7.98 6.45l-6.84-1.11a14.64 14.64 0 0 1 16.11-13.02"/><path fill="#61bb4e" fill-rule="nonzero" d="m39.36 38.51 5.22.87c5.943 1.438 9.622 7.39 8.25 13.35l-7.32 46.14-5.7 2.07z"/><path fill="#dcefca" fill-rule="nonzero" d="M39.39 38.51c.647.116 1.28.296 1.89.54L31.17 99.53l-2.76-.42 10.14-60.66z"/><path fill="#c9e2b3" fill-rule="nonzero" d="m47.64 51.86-7.8 49.05-8.67-1.38 10.11-60.48a11.58 11.58 0 0 1 6.36 12.81"/><path fill="#f3ffe6" fill-rule="nonzero" d="M38.55 38.45 28.41 99.11l-2.13-.36 10.08-60.18a7.6 7.6 0 0 1 2.19-.12"/><path fill="#dcefca" fill-rule="nonzero" d="M33.6 39.53a10 10 0 0 1 2.76-.96L26.28 98.75l-2.52-.39z"/><path fill="#c9e2b3" fill-rule="nonzero" d="m19.62 97.7 7.8-49.05a12.48 12.48 0 0 1 6.24-9l-9.84 58.83z"/><path stroke="#149948" stroke-linecap="round" stroke-linejoin="round" stroke-width="1.08" d="M30.87 95.06a3 3 0 1 1 0-6 3 3 0 0 1 0 6"/><path fill="#c9e2b3" fill-rule="nonzero" d="m25.794 104.518.915-5.718 4.918.787-.915 5.717z"/><path fill="#61bb4e" fill-rule="nonzero" d="m31.62 99.59 3.45.54-.66 4.17-3.72 1.02z"/><path stroke="#5e154d" stroke-linecap="round" stroke-linejoin="round" stroke-width="1.44" d="M27.36 48.65c.572-6.084 5.906-10.592 12-10.14l5.22.87c5.943 1.438 9.622 7.39 8.25 13.35l-7.32 46.14-5.7 2.07-20.19-3.24z"/><path stroke="#5e154d" stroke-linecap="round" stroke-linejoin="round" stroke-width="1.44" d="m26.7 98.81 4.92.78 3.45.54-.66 4.17-3.72 1.02-4.92-.81z"/></g><path stroke="#5e154d" stroke-linecap="round" stroke-linejoin="round" stroke-width="1.44" d="m119.31 99.05 3.36-.93 1.14 4.05-2.94 2.46-4.8 1.35-1.59-5.58z" data-paper-data="{&quot;index&quot;:null}"/><g fill-rule="evenodd" stroke="#fff" stroke-linecap="round" stroke-linejoin="round" stroke-width="2.16" data-paper-data="{&quot;index&quot;:null}"><path d="M45.06 27.62c.185-.96.445-1.903.78-2.82M47.13 21.38a22.56 22.56 0 0 1 6.69-9"/></g></g></svg>