<svg xmlns="http://www.w3.org/2000/svg" width="86.622" height="80.804" viewBox="-0.14 -0.314 86.622 80.804"><path fill="#828278" d="M84.037 33.082H64.995c2.207 2.46 5.871 7.582 5.885 7.603.198.256 3.42 2.385 6.328 15.757s-6.749 19.278-6.967 19.41c1.395.084 4.832.069 7.537-1.287 1.195-.601 2.772-2.644 3.076-3.056.896-1.188 1.538-2.595 2.21-3.909 1.421-2.788 1.89-6.175 2.311-9.242a67.3 67.3 0 0 0-.209-19.468 108 108 0 0 0-1.129-5.808"/><path fill="#64645a" d="m68.71 38.661 15.327-5.579a78 78 0 0 0-4.282-13.293c-1.329-3.083-2.511-6.015-4.27-8.899-.8-1.311-3.906-7.357-5.924-6.617-1.037 2.106 0 4.719-.072 6.975a19.2 19.2 0 0 1-1.329 6.571c-.725 1.805-1.63 4.277-3.311 5.414a5.96 5.96 0 0 1-2.616.902c-.526.045-9.807-1.534-10.153-.999 2.505 1.898 7.516 4.689 12.216 9.231.131.105 4.264 6.132 4.414 6.294"/><path fill="#3c3c32" d="M76.859 60.478s-.397-7.218-8.992-12.842c-2.12-1.39-8.931-2.406-12.18-2.806l-7.31-20.039s12.864 1.979 19.249 9.72c2.783 3.371 9.836 13.892 10.412 19.819.747 7.673-1.179 6.148-1.179 6.148M8.769 59.933s1.634-12.944 18.057-14.971l9.855-20.18s-19.41-1.766-23.889 9.323c-2.389 5.892-6.853 11.41-6.271 17.91.513 5.765 2.248 7.918 2.248 7.918"/><path fill="#828278" d="M12.251 46.06c.827-3.91 3.13-8.824 5.644-12.978H.898a76 76 0 0 0-.538 9.194c0 5.194.654 10.283 1.425 15.408.313 2.081 1.057 10.848 4.607 15.477 1.574 2.051 4.166 2.706 6.773 2.938.042-.09-2.09-5.281-2.508-7.856-.917-5.615-.374-12.905 1.594-22.183"/><path fill="#64645a" d="M14.556 40.409c1.156-1.883 5.871-11.227 6.982-12.608 3.303-4.096 5.82-4.92 5.787-5.043 0-.031-9.308 3.69-11.759 2.866-2.21-.743-2.912-2.439-3.816-4.394.149-1.318-.317-2.927-.269-4.331s.158-2.818-.371-4.211c-2.406-.902-4.368 3.008-5.345 4.668a32 32 0 0 0-3.234 7.519 56.4 56.4 0 0 0-1.633 8.192z"/><path fill="#c8c8be" d="M20.442 31.729s4.112-3.008 7.2-4.259 5.207-.818 9.633-.273l.179-6.256s-12.422.274-16.743 5.621-.269 5.167-.269 5.167M65.795 36.613s-3.756-6.18-15.755-8.671L47.568 20.3s6.068 1.621 9.869 4.015 5.426 6.779 5.426 6.779z"/><g fill="#c8c8be"><path d="M35.202 78.947c-.513-2.406-3.204-20.346-3.204-20.346s-7.787-1.762-8.913-2.481c-.063.301 3.882 11.398 5.24 14.382s2.882 5.931 4.36 8.896c-.534.214-1.039-.024-1.583.081l.102.388c1.063.163 3.243.241 4.201-.273-.074-.253-.158-.455-.203-.647"/><path d="M33.208 77.991s-2.894.568-3.16.652c-.018.069-.038.136-.065.229.424.219 2.669.033 3.123.111q.102-.49.102-.992M34.11 76.884s-3.205.752-3.47.836a6 6 0 0 0-.072.328s2.986-.25 3.437-.172q.105-.49.105-.992"/></g><g fill="#c8c8be"><path d="M59.241 56.021c-.183.111-5.988.3-8.32.601-.015.418.448 22.893.857 23.203 1.332-.138 2.807-.087 4.106-.367-.349-.67-1.215-.171-1.791-.4 2.018-5.113 3.022-10.397 4.076-15.765-.027-.406 1.131-6.875 1.072-7.272"/><path d="M52.686 79.299s2.894-.578 3.156-.665c.021-.066.039-.132.066-.225-.424-.22-2.484-.286-2.938-.361q-.175.617-.284 1.251M52.507 77.885s2.947.067 3.225.039c.033-.06.066-.12.11-.207-.367-.301-2.6-.602-3.025-.776a4.6 4.6 0 0 0-.31.944"/></g><path fill="#64645a" d="M38.81 3.097c-4.862-.216-27.06.112-27.06.112s.382.875 3.305 1.503c6.31 1.318 17.875 2.9 24.259 2.855z"/><path fill="#828278" d="M56.222.234c-6.331.193-43.577.06-47.417 1.167-.103.315-.083.659.057.96.206.219 1.159.902 1.445.944 4.211.52 23.537-.147 24.731 1.543.744 1.052 2.126 3.609 2.437 6.015a7 7 0 0 1-.164 2.34c-.129.529-15.528 43.389-15.528 43.389s6.271 6.517 7.379 7.257a23.35 23.35 0 0 0 13.822 4.048c4.912-.084 10.84-3.332 14.444-6.815 1.741-1.681 3.252-5.04 3.252-5.04S48.413 19.461 48.096 13.455c-.179-3.398 1.252-6.439 4.441-8.496 2.445-1.576 6.53-2.541 8.062-2.83 2.3-.433 6.167-.929 6.364-1.462A69.6 69.6 0 0 0 56.222.234"/><path d="M41.918 4.851c.278-.331.568-.484.944-.301.454.737.358 1.302-.341 1.907-.54-.358-.671-.966-.603-1.606M12.669 1.933a.73.73 0 0 1 .717-.141c.343.355.272.629-.26.92a.66.66 0 0 1-.457-.779M10.403 1.973a.73.73 0 0 1 .716-.142c.347.355.272.629-.256.921a.67.67 0 0 1-.46-.779"/><path fill="#c8c8be" d="M69.528 35.389c-3.906-4.965-7.128-9.001-15.319-12.719.511 1.065-.711 2.13.272 4.987.481 1.398 6.035 3.061 9.089 6.8 2.422 2.962 5.426 7.588 6.035 8.586 1.479 2.424 2.855 4.788 3.799 7.474 1.538 4.391 4.96 15.865-.472 18.391-4.93 2.292-8.66-8.078-10.878-11.128-.577-2.063-2.285-4.21-3.509-5.94a59 59 0 0 0-5.091-6.295 48 48 0 0 0-5.638-5.338c-1.595-1.239-4.052-3.564-6.247-2.325.412.924 2.198.403 2.422 1.579-.699 1.155-1.87-.225-2.664.635.755.445 2.12.559 2.577 1.41-.433.337-2.09.253-2.066.903 1.708 1.368 4.207 1.684 6.064 2.932 1.655 1.11 2.906 2.565 4.115 4.138 2.565 3.339 4.327 7.426 6.128 11.221 1.878 3.955 3.619 8.304 6.178 11.871a7.95 7.95 0 0 0 4.646 3.203c1.914.511 5.988.208 10.084-5.14 2.389-3.125 1.084-14.135-2.158-22.667-2.324-6.088-6.627-11.622-7.367-12.578M29.714 23.666c-.191.902-3.306 3.007-6.752 6.71-1.415 1.503-3.144 3.909-5.13 7.798-1.887 3.693-4.061 8.89-4.464 10.584-.872 3.651-1.72 7.437-1.917 11.194-.123 2.312-.726 8.033 2.051 9.236 2.843 1.236 4.354-4.861 4.918-6.65a62.6 62.6 0 0 1 3.882-9.765c1.753-3.42 3.972-7.008 6.492-9.907a14.2 14.2 0 0 1 4.133-3.345c1.12-.571 4.121-2.345 5.318-1.419.066.601-1.14.683-1.493.767a1.29 1.29 0 0 0-.621.773l.143.349c.553.333 1.729-.154 2.353-.136l.081.301c-.597.523-1.478.472-2.108 1.053-.49.73-.502.962.021 1.464a55 55 0 0 0 1.678-.791c.349.073.666.085.914.328.062 1.017-2.306 1.922-3.052 2.319a18 18 0 0 0-4.416 3.104c-2.013 1.988-4.077 3.928-5.656 6.315-1.672 2.527-3.139 5.113-4.008 8.052s-1.346 6.147-2.523 9.004c-.997 2.406-2.645 4.668-5.375 5.095-3.583.559-5.169-3.444-5.835-6.28-.818-3.486-1.119-10.571.203-17.916.977-5.413 3.384-11.542 4.312-13.57 2.422-5.287 6.316-10.081 7.866-11.774 1.959-2.15 9.066-3.278 8.985-2.893"/></svg>