<svg xmlns="http://www.w3.org/2000/svg" aria-hidden="true" class="iconify iconify--noto" viewBox="0 0 128 128"><path fill="#d06f1d" d="m66.65 45.55 5.25-6.89s1.05-1.62 2.04-1.51c.98.11 2.58 3.23 6.52 2.92 4.16-.33 8.08-1.41 8.08-1.41l3.28 4.6-.56 3.02s-1.24 3.72-.54 6.19c.61 2.17 2.74 3.53 2.77 4.52.05 1.31-63.05 63.62-63.71 64.06s-7.22-.44-7.88-.77-11.38-12.58-11.38-12.58-.45-5.4.1-6.38c.07-.12.47-.52.79-.77 4.56-3.55 21.78-10.45 35-23.48 5.69-5.62 20.24-31.52 20.24-31.52"/><path fill="#af570c" d="M111.76 16.54v-4.66s2.07-4.34 2.57-4.98 4.57-1.43 7.43 1.64 2.34 6.06 2.07 6.5c-.31.5-5.47 3.67-5.47 3.67z"/><path fill="#eb8b34" d="M71.91 38.65c.41-.2 2.89 3.58 5.88 3.73s7.98-.15 7.98-.15l2.53 3.91-.15 2.68s-.61 2.91 0 4.75 1.69 2.76 1.84 3.45-59.59 60.88-60.12 61.04c-.54.15-6.82.08-7.28-.3s-9.17-10.17-9.55-10.86-1.8-5.47-1.64-6.32c.13-.83 59.99-61.67 60.51-61.93"/><path fill="#474c4f" d="M84.17 39.46c0-.23 27.13-27.06 27.13-27.06l6.6 6.9-26.96 27.45s-8.4 1.39-8.32 1.01c.08-.39 1.55-8.3 1.55-8.3"/><path fill="#e0e0e0" d="m98.9 24.69 3.13-3.12 6.9 6.87-3.21 3.27zM104.97 18.67l6.81 6.85 6.98-7.03s-6.72-7.01-6.91-6.81c-.16.16-6.88 6.99-6.88 6.99"/><path fill="#af570c" d="M56.39 73.69c.59.64 2.28-.77 3.46-1.69.49-.38 8.97-7.14 16.61-13.61s14.72-11.43 14.77-12.02-6.41-6.87-7.06-6.91c-.66-.04-6.28 6.34-12.24 13.62-6.63 8.1-13.49 16.57-13.72 16.86-1.18 1.56-2.28 3.25-1.82 3.75"/></svg>