<svg xmlns="http://www.w3.org/2000/svg" xml:space="preserve" width="263.111" height="43.8" viewBox="3.4 3.4 263.111 43.8"><title>broom</title><g fill-rule="nonzero"><path fill="#f2c063" d="M7.3 18.4c2.3-.8 15.3-2.3 15.3-2.3-5.7-1-15.6.3-15.6.3 8.8-8.3 25.1-7.3 25.1-7.3-5.7-2.1-20.7 1-20.7 1 20.2-8.8 43.8-.8 43.8-.8C46.7 6 35.9 4 35.9 4c34.5 2.6 41.4 11.8 41.4 11.8 9.6-7.8 18.9-.5 18.9-.5-1.8-3.4-9.8-5.7-9.8-5.7 16.1 2.3 19.2 15.6 19.2 15.6.5 6.7-8.3 20-26.2 11.9 0 0-19.2 15.3-54.2 6.7 0 0 7.5 1 13.5-.5 0 0-21.8-1-30.3-7.8 0 0 10.6 4.9 25.4 4.7 0 0-20-2.9-27.2-9.6 0 0 3.9 1.6 8 1.6 0 0-7.5-2.3-10.6-6.2 0 0 7.3 1.8 11.7 1.8 0 0-9.1-2.1-11.1-4.1 0 0 9.8-2.1 15.8-1 0 0-11.7-1.3-14.8-1.3 0 0 5.2-1.3 7.8-1.3z"/><path fill="#d18b44" d="M79.3 37.1s.4.2 1.1.6 1.7.8 3 1.3c.6.2 1.4.4 2.1.6.8.2 1.6.3 2.4.4.9.1 1.7.1 2.6.1q1.35 0 2.7-.3l1.3-.4c.4-.2.8-.3 1.3-.5l1.2-.6c.4-.2.8-.4 1.1-.6.7-.5 1.4-1 2-1.5s1.1-1.1 1.6-1.6.8-1 1.1-1.5.5-.9.7-1.2c.4-.7.5-1.1.5-1.1s-.2.4-.6 1.1-1.1 1.6-2 2.5c-.5.5-1 1-1.6 1.5s-1.3.9-2 1.4c-.4.2-.7.4-1.1.6s-.8.3-1.2.5c-.4.1-.8.3-1.3.4l-1.3.3c-.9.2-1.7.3-2.6.3h-2.6c-1.7-.1-3.2-.4-4.5-.8-2.2-.7-3.9-1.5-3.9-1.5M96.2 15.3s-.2-.2-.7-.6c-.5-.3-1.1-.8-2-1.2-.4-.2-.9-.4-1.4-.6s-1.1-.4-1.7-.5l-1.8-.3c-.6-.1-1.3-.1-1.9-.1s-1.3.1-1.9.2-1.2.3-1.8.4c-.6.2-1.1.4-1.6.6s-1 .5-1.4.7-.8.4-1.1.7c-.3.2-.6.4-.8.6-.4.3-.7.5-.7.5s.3-.1.8-.4c.2-.1.5-.3.9-.5q.45-.3 1.2-.6c.4-.2.9-.4 1.4-.6s1-.3 1.6-.5c.6-.1 1.2-.3 1.8-.4.6 0 1.2-.2 1.8-.2s1.2-.1 1.8 0c.6 0 1.2.1 1.8.2s1.1.3 1.6.4c.5.2 1 .3 1.4.5.9.3 1.6.7 2.1 1 .3.5.6.7.6.7"/><path fill="#d18b44" d="M86.3 9.6s1.5.1 3.5.8c.5.1 1.1.4 1.7.6s1.2.5 1.8.8 1.2.6 1.8 1c.6.3 1.2.8 1.8 1.2s1.1.9 1.7 1.3c.5.5 1 1 1.5 1.4.5.5.9 1 1.3 1.4s.7 1 1.1 1.4l.9 1.2c.2.4.4.7.6 1 .3.5.5.8.5.8s-.2-.3-.4-.9c-.1-.3-.3-.6-.5-1s-.5-.8-.8-1.3-.6-1-1-1.5-.8-1-1.3-1.5L99 14.8c-.6-.5-1.1-1-1.7-1.4s-1.2-.8-1.9-1.2c-.6-.4-1.3-.7-1.9-1s-1.3-.5-1.9-.7-1.2-.4-1.7-.5c-1.1-.3-2-.4-2.6-.4zM75.1 14.1s-.2-.1-.4-.3-.6-.5-1-.8c-.5-.3-1-.7-1.7-1.1s-1.5-.8-2.3-1.2c-.9-.4-1.8-.8-2.9-1.2-1-.4-2.1-.7-3.3-1.1-1.2-.3-2.4-.7-3.6-1s-2.5-.6-3.7-.9c-1.3-.2-2.5-.5-3.8-.7-1.2-.2-2.5-.4-3.7-.6-2.4-.4-4.6-.5-6.5-.8-1.9-.2-3.5-.3-4.6-.4s-1.8-.1-1.8-.1 2.5.4 6.4.8c1.9.3 4.1.6 6.5 1l3.6.6c1.2.2 2.5.5 3.7.7 1.2.3 2.5.5 3.7.8l3.6.9c1.1.4 2.3.6 3.3 1 1 .3 2 .7 2.9 1.1s1.7.7 2.4 1.1c.7.3 1.3.7 1.7 1 .5.3.8.6 1.1.8zM101.7 23.2l-.3-.6c-.2-.4-.5-.9-1-1.5-.2-.3-.5-.6-.8-.9s-.6-.6-1-.9-.8-.5-1.2-.8c-.4-.2-.9-.5-1.3-.7-.5-.2-.9-.4-1.4-.5s-.9-.3-1.4-.3c-.5-.1-.9-.1-1.3-.2-.4 0-.8 0-1.2-.1-.7-.1-1.4.1-1.8.1s-.7.1-.7.1.2 0 .7.1c.4 0 1 .1 1.8.2.4 0 .7.1 1.2.2.4.1.8.2 1.3.3.4.1.9.2 1.3.4.5.1.9.3 1.3.5s.9.4 1.3.6.8.5 1.2.7c.4.3.7.5 1 .8s.6.5.9.8c.5.5.9 1 1.1 1.3.1.2.3.4.3.4M92.8 20s-.3-.2-.8-.4-1.3-.5-2.2-.8l-1.5-.3c-.5-.1-1.1-.2-1.7-.2s-1.2-.1-1.9 0c-.6 0-1.3 0-1.9.1-.3.1-.6.1-1 .2-.3.1-.6.2-.9.2-.6.1-1.2.4-1.8.6s-1.1.5-1.6.8c-.5.2-.9.5-1.3.8s-.8.5-1.1.8l-.7.7-.6.6s.3-.2.7-.5c.2-.2.5-.4.8-.6s.7-.4 1.1-.7.8-.5 1.3-.7 1-.5 1.6-.7 1.1-.4 1.7-.5c.3-.1.6-.1.9-.2l.9-.1c.6-.1 1.2-.1 1.9-.2h1.8c.6.1 1.2.1 1.7.1.5.1 1 .1 1.5.2.9.2 1.7.4 2.2.5zM76.8 32.6s.1.2.4.5.7.8 1.2 1.2c.3.2.6.4 1 .6.3.2.7.4 1.1.6s.8.4 1.3.5c.4.1.9.3 1.4.4s.9.2 1.4.2c.5.1.9.1 1.4.1h1.3c.4 0 .8 0 1.1-.1.7 0 1.3-.2 1.7-.2.4-.1.6-.1.6-.1h-3.4c-.4 0-.8-.1-1.2-.1s-.9-.1-1.3-.2c-.5-.1-.9-.1-1.3-.2-.5-.1-.9-.2-1.3-.3s-.8-.3-1.3-.4c-.4-.2-.8-.3-1.1-.5-.4-.2-.7-.3-1-.5-1.4-.7-2-1.5-2-1.5M101.1 27.6s-.2.1-.6.4c-.4.2-1 .5-1.7.8s-1.5.6-2.5.9c-.9.3-1.9.5-2.9.7-.5.1-1 .2-1.5.2s-1 .1-1.5.1h-2.6c-.8 0-1.4-.1-1.9-.1h-.7s.3.1.7.2 1.1.3 1.9.4 1.7.2 2.7.2c.5 0 1 0 1.5-.1.5 0 1-.1 1.6-.2 1-.2 2.1-.4 3-.8.5-.1.9-.3 1.3-.5s.8-.4 1.1-.6c.7-.4 1.2-.8 1.6-1.1zM93.2 27.4s-1.2.1-3.1.1c-.9 0-2 .1-3.1.1-1.1.1-2.4.1-3.6.1s-2.4.1-3.6 0c-1.1 0-2.2-.1-3.1-.2-.5-.1-.9-.1-1.2-.2-.4-.1-.7-.1-.9-.2-.5-.1-.8-.2-.8-.2s.3.1.8.3c.2.1.6.2.9.3l1.2.3c.9.2 2 .3 3.1.4 1.2.1 2.4.1 3.6.1s2.5-.1 3.6-.2 2.2-.2 3.1-.3c1.8-.1 3.1-.4 3.1-.4M75.1 31.6s-1.6.5-3.9 1c-1.2.3-2.6.6-4.1.9s-3.1.6-4.7.8l-2.4.3c-.8.1-1.6.1-2.3.2-.8.1-1.5.1-2.2.1-.7.1-1.4.1-2 .1h-4.1s.4 0 1.1.1 1.7.2 3 .2h2c.7 0 1.5 0 2.2-.1.8-.1 1.6-.1 2.4-.2s1.6-.1 2.4-.3c1.6-.2 3.2-.5 4.7-.8s2.9-.7 4.1-1.1c2.3-.6 3.8-1.2 3.8-1.2M77.5 38.4s-.7.5-2 1.1c-.7.3-1.5.8-2.4 1.2s-2 .9-3.2 1.3c-1.2.5-2.5.9-3.9 1.3s-2.8.8-4.4 1.2c-.8.2-1.5.4-2.3.5s-1.6.3-2.4.4l-1.2.2-1.2.1c-.8.1-1.7.2-2.5.3-1.7.2-3.4.2-5 .3-1.7 0-3.3 0-4.9-.1s-3.1-.2-4.5-.4c-.7 0-1.4-.1-2.1-.2s-1.3-.2-1.9-.3c-1.2-.2-2.4-.3-3.4-.6-1-.2-1.9-.4-2.6-.6-1.4-.3-2.3-.5-2.3-.5s.8.2 2.2.6c.7.2 1.6.4 2.6.7s2.1.5 3.4.7c.6.1 1.3.2 2 .3l2.1.3c1.4.1 3 .3 4.6.4 1.6 0 3.2.1 4.9.1 1.7-.1 3.4-.1 5.1-.3.8-.1 1.7-.2 2.5-.3L56 46l1.2-.2c.8-.1 1.6-.3 2.4-.4l2.4-.6c1.6-.3 3-.8 4.4-1.3s2.7-.9 3.8-1.4c.6-.3 1.1-.5 1.7-.7.5-.3 1-.5 1.5-.7.9-.4 1.7-.9 2.4-1.3 1-.5 1.7-1 1.7-1"/><path fill="#d18b44" d="M8.3 35.5s.6.5 1.7 1.2c.6.3 1.3.8 2.1 1.2.8.5 1.8.9 2.8 1.4 1.1.4 2.2.9 3.5 1.3 1.2.4 2.6.8 4 1.1s2.9.6 4.4.8 3 .4 4.6.5c.8 0 1.5.1 2.3.1l1.1.1h1.1c1.5 0 3 0 4.4-.1s2.8-.2 4.1-.4 2.5-.4 3.7-.6c.6-.1 1.1-.2 1.6-.3l1.5-.3c.9-.2 1.7-.4 2.4-.5 1.3-.3 2-.5 2-.5s-.8.1-2.1.4c-.7.1-1.5.3-2.4.4-.5.1-.9.2-1.5.2-.5.1-1.1.1-1.6.2-1.1.1-2.4.3-3.7.5-1.3.1-2.7.2-4.1.3s-2.9 0-4.4.1h-1.1l-1.1-.1c-.8 0-1.5-.1-2.3-.1-1.5-.1-3-.3-4.5-.4-1.5-.3-2.9-.5-4.3-.8s-2.7-.6-4-1c-1.3-.3-2.4-.8-3.5-1.2-1-.4-2-.8-2.9-1.2-.8-.4-1.6-.8-2.1-1.1-1-.7-1.7-1.2-1.7-1.2M6.5 30.6s1.3.5 3.3 1.1c1 .3 2.2.6 3.4.9 1.3.3 2.6.6 4 .9s2.7.5 4 .7 2.5.3 3.6.4c.5.1 1 0 1.4.1h1.1c.6 0 1-.1 1-.1s-.3 0-1-.1c-.3 0-.7 0-1.1-.1s-.9-.1-1.4-.2-1.1-.1-1.7-.2l-1.8-.3c-1.3-.2-2.6-.5-4-.8s-2.7-.6-4-.8c-1.3-.3-2.5-.5-3.5-.8-1.9-.4-3.3-.7-3.3-.7M3.9 25.9s2.1.5 5.2 1.1c1.6.3 3.4.6 5.3.9 2 .3 4.1.6 6.2.9 2.1.2 4.2.5 6.2.6 2 .2 3.8.2 5.4.3h2.2c.6 0 1.2 0 1.7-.1.9-.1 1.5-.1 1.5-.1h-1.5c-.5 0-1 0-1.7-.1-.6 0-1.4-.1-2.2-.1-1.6-.1-3.4-.3-5.4-.5s-4.1-.4-6.2-.7c-2.1-.2-4.2-.5-6.2-.8s-3.8-.5-5.4-.7c-3-.4-5.1-.7-5.1-.7M4.4 23.6s3.3-.5 8.2-.9c2.5-.2 5.4-.4 8.5-.5 1.6 0 3.2-.1 4.8-.1h4.9c1.7 0 3.3.1 4.9.1s3.2.2 4.8.3 3 .2 4.5.3c.7.1 1.4.1 2.1.2s1.3.2 1.9.2c1.2.1 2.4.3 3.4.4 1 .2 1.9.3 2.6.4 1.4.2 2.3.3 2.3.3s-.8-.2-2.2-.4c-.7-.1-1.6-.3-2.6-.5s-2.1-.3-3.4-.5c-.6-.1-1.3-.2-1.9-.3-.7-.1-1.4-.2-2.1-.2-1.4-.2-2.9-.4-4.5-.4l-4.8-.3c-1.6-.1-3.3-.1-5-.2h-5c-1.6 0-3.2.1-4.8.2-3.1.2-6 .4-8.5.7s-4.5.6-6 .8c-1.2.2-2.1.4-2.1.4M7.3 18.4s2.3-.5 5.8-1c1.7-.3 3.8-.5 5.9-.7 2.2-.2 4.5-.4 6.8-.5 1.2-.1 2.3-.1 3.5-.1h3.4c1.1 0 2.2.1 3.2.1s2 .1 2.8.1c.9.1 1.7.1 2.4.2s1.3.1 1.8.2c1 .1 1.6.1 1.6.1s-.6-.1-1.6-.3q-.75-.15-1.8-.3t-2.4-.3c-.9-.1-1.8-.2-2.8-.3s-2.1-.2-3.2-.2-2.2-.1-3.4 0c-1.2 0-2.3 0-3.5.1-2.3.1-4.7.3-6.9.6s-4.2.6-5.9.9c-3.5.7-5.7 1.4-5.7 1.4"/><path fill="#d18b44" d="M7 16.4s.1-.2.4-.4c.3-.3.7-.7 1.3-1.1.6-.5 1.4-.9 2.3-1.4.9-.4 2-1 3.2-1.4 1.2-.5 2.5-.8 3.9-1.3.7-.1 1.4-.3 2.2-.5.4-.1.7-.2 1.1-.2.4-.1.8-.1 1.2-.2l2.4-.3c.8 0 1.6-.1 2.5-.1 1.7-.1 3.4 0 5.1 0s3.4.2 5.1.3 3.3.4 4.9.6c1.6.3 3.1.4 4.5.8 1.4.3 2.8.6 4 .8 1.3.2 2.4.6 3.4.8 1 .3 1.9.5 2.6.7 1.4.4 2.3.6 2.3.6s-.8-.3-2.2-.7c-.7-.2-1.6-.5-2.6-.8s-2.1-.7-3.4-1c-1.2-.3-2.6-.6-4-1s-3-.6-4.5-.9c-1.6-.3-3.2-.6-4.9-.7s-3.4-.4-5.1-.4-3.4-.1-5.1.1c-.8.1-1.7.1-2.5.2l-2.4.3c-.4.1-.8.1-1.2.2s-.8.2-1.1.3c-.8.2-1.5.4-2.2.5-1.4.5-2.7.8-3.9 1.4-1.2.5-2.2 1.1-3.1 1.6-.9.6-1.6 1.1-2.2 1.5-.6.5-1 .9-1.3 1.2-.5.3-.7.5-.7.5M74.2 19.1s-.4-.5-1.2-1c-.8-.6-1.9-1.2-3-1.7-.6-.2-1.2-.5-1.8-.6-.6-.2-1.1-.3-1.6-.3-.5-.1-.9-.1-1.1-.1h-.4s.2.1.4.1c.3.1.6.2 1.1.3.9.3 2.1.7 3.2 1.2s2.3 1 3.1 1.4 1.3.7 1.3.7M70.3 21.8s-1.1-.5-2.8-1c-.9-.3-1.9-.6-2.9-.9-1.1-.3-2.2-.6-3.4-.9s-2.3-.5-3.4-.8q-1.65-.3-3-.6c-1.8-.3-3-.4-3-.4s1.2.3 2.9.8c.9.2 1.9.5 3 .7 1.1.3 2.2.5 3.4.8 2.3.5 4.6 1.1 6.4 1.5 1.6.6 2.8.8 2.8.8"/><path fill="#db4570" d="M79.3 37.1C75.2 33 71 22.8 77.2 15.8c-8.1 6.9-4.4 16.2 2.1 21.3"/><path fill="#694932" d="M100.4 29.2s11.9 1 28.3 1.3c32.8.6 82.6.6 88.2.3 7.4-.4 19.1-.6 25.1-1.1 6-.6 23.6-1.1 23.6-1.1s1.1-4.6-.3-4.8c-1.4-.3-25.3 1.1-28.2 1.1s-17.9-1.2-22.4-.2c-2.8.6-40.6-.3-71-.6-6.5-.1-9.9.7-15.6.6-15.6-.2-27.1-.3-27.1-.3s-1.7 2.5-.6 4.8"/><path fill="#4f3726" d="M192 27.7s.7.1 1.8.3 2.8.4 4.7.6c2 .2 4.3.5 6.7.7 2.5.2 5.1.5 7.8.4 5.3-.2 10.5-.5 14.5-.7 3.9-.3 6.6-.5 6.6-.5s-10.5.4-21.1.7c-1.3 0-2.6 0-3.9-.1s-2.6-.2-3.8-.3c-2.5-.2-4.8-.4-6.7-.6-3.9-.3-6.6-.5-6.6-.5"/><path fill="#4f3726" d="M203.5 27.7s.7.1 1.7.3c1 .1 2.4.2 3.7.2 1.4 0 2.7-.1 3.7-.3s1.7-.4 1.7-.4-.7 0-1.7.1c-1 0-2.3.1-3.7.1h-5.4M218.5 26.4s1 0 2.5.1h5.4c3.9 0 7.9-.1 7.9-.1s-1-.2-2.5-.3c-.7 0-1.6-.1-2.5-.1h-2.9c-1 0-2 0-2.9.1-.9 0-1.8.1-2.5.1-1.5.1-2.5.2-2.5.2M229.6 27.3s1.8.1 4.5.3c2.7.1 6.4.2 10 0 1.8-.1 3.6-.2 5.3-.3s3.3-.1 4.6-.2c2.7-.1 4.5-.2 4.5-.2s-1.8-.1-4.5-.1-6.4 0-10 .2c-1.8.1-3.6.2-5.3.2h-4.6c-2.7.1-4.5.1-4.5.1M262.3 25.3s-1.1-.1-2.7-.1h-6c-1.1 0-2.2.1-3.2.1s-2 .1-2.8.2-1.5.2-2 .2c-.5.1-.7.1-.7.1h5.6c1 0 2.1 0 3.2-.1 1.1 0 2.2-.1 3.2-.1s2-.1 2.8-.1c1.5-.1 2.6-.2 2.6-.2M239.9 28.6s-.2 0-.6-.1c-.3 0-.8-.1-1.2-.1-.5 0-.9 0-1.2.1-.3 0-.6.1-.6.1s.2.1.6.1c.3 0 .8.1 1.2.1.5 0 .9 0 1.2-.1.4-.1.6-.1.6-.1M241.6 26s-.2 0-.5-.1c-.3 0-.6-.1-1-.1s-.7 0-1 .1c-.3 0-.5.1-.5.1s.2.1.5.1.6.1 1 .1.7 0 1-.1c.3 0 .5-.1.5-.1M221.1 27.7s-.3 0-.7-.1c-.4 0-1-.1-1.6-.1s-1.2 0-1.6.1c-.4 0-.7.1-.7.1s.3.1.7.1 1 .1 1.6.1 1.2 0 1.6-.1.7-.1.7-.1M200.6 27.5s-.2-.1-.4-.1c-.2-.1-.5-.1-.9-.2-.3 0-.6-.1-.9-.1h-.4s.2.1.4.1c.2.1.5.1.9.2.3 0 .6.1.9.1zM191.7 26.4s.2.1.5.2q.45.15 1.2.3c.4.1.9.1 1.2.1h.6s-.2-.1-.5-.2q-.45-.15-1.2-.3c-.4-.1-.9-.1-1.2-.1zM263.3 27.1s-.1 0-.4-.1h-.7c-.3 0-.6 0-.8.1-.2 0-.4.1-.4.1s.1.1.4.1c.2 0 .5.1.8.1s.6 0 .8-.1.3-.2.3-.2M203.1 26.4s.9.2 2.2.3 3.1.2 4.9.1c.9-.1 1.8-.2 2.6-.3s1.6-.3 2.2-.4c.7-.1 1.2-.3 1.6-.4s.6-.2.6-.2-.2 0-.6.1-.9.1-1.6.2c-1.3.2-3.1.4-4.8.5-1.8.1-3.5.2-4.8.2-1.4-.1-2.3-.1-2.3-.1M227.2 24.4s1.6.1 3.9.2c1.2 0 2.6.1 4 .1 1.5 0 3.1 0 4.6.1 1.6 0 3.2 0 4.6-.1 1.5 0 2.9-.1 4-.2.6 0 1.1-.1 1.6-.2s.9-.1 1.2-.2c.9 0 1.3-.1 1.3-.1s-.4 0-1.1.1c-.7 0-1.7.1-2.8.1-1.2 0-2.6 0-4 .1h-13.3c-2.4.1-4 .1-4 .1M193.8 29.7s-.9-.1-2.5-.3-3.9-.5-6.6-.8-5.9-.5-9.4-.6c-1.7-.1-3.5 0-5.3.1s-3.6.1-5.5.1c-3.7 0-7.3-.1-10.8-.1-3.4-.1-6.7-.1-9.4-.2-5.5-.1-9.2-.2-9.2-.2s3.7.2 9.2.5c5.5.2 12.8.5 20.2.5 1.8 0 3.7 0 5.5-.1s3.6-.2 5.3-.2c3.4.1 6.6.3 9.4.5 5.5.4 9.1.8 9.1.8M150.3 27.1s-2.6-.2-6.4-.5c-3.9-.2-9-.4-14.2-.2-1.3.1-2.6.2-3.9.4s-2.5.7-3.6.8c-2.4.4-4.6.4-6.5.4-3.9 0-6.4-.3-6.4-.3s.6.1 1.8.2c1.1.1 2.7.3 4.7.3 1.9.1 4.2.1 6.6-.3 1.2-.2 2.4-.6 3.6-.8s2.5-.3 3.8-.3c1.3-.1 2.6-.1 3.8-.1h3.7c2.4 0 4.7.1 6.6.1 3.8.2 6.4.3 6.4.3M131.7 28.5h-2.5c-.5 0-1 .1-1.4.1-.5 0-1 .1-1.4.1-.5 0-.9.1-1.3.2-.7.1-1.2.2-1.2.2s.5.1 1.2.1h1.3c.5 0 1-.1 1.5-.1.5-.1 1-.1 1.4-.2.5-.1.9-.1 1.3-.2.6-.1 1.1-.2 1.1-.2M120.8 26.2s-1.2-.1-3-.2c-.9 0-1.9-.1-3-.1h-3.5c-1.2 0-2.4.1-3.5.1s-2.2.1-3 .2q-1.35.15-2.1.3c-.5.1-.8.2-.8.2s.3 0 .8-.1c.5 0 1.3-.1 2.1-.1h13c1.8-.2 3-.3 3-.3M152.1 25.2s1 .1 2.5.3c.8.1 1.6.2 2.6.2.9.1 2 .1 3 .2 1 0 2 .1 3 .1h2.6c1.5 0 2.5-.1 2.5-.1s-1-.1-2.5-.2c-.8 0-1.6-.1-2.6-.1-.9 0-2-.1-3-.1s-2-.1-3-.1c-.9 0-1.8 0-2.6-.1-1.4-.1-2.5-.1-2.5-.1M166.9 27.1s1 0 2.5-.1c.7 0 1.6-.1 2.5-.1.9-.1 1.9-.1 2.9-.1s2-.1 2.9-.1h3.5c.3 0 .6 0 .8.1.4.1.7.1.7.1s-.2-.1-.7-.2c-.2-.1-.5-.1-.8-.1-.3-.1-.6-.1-1-.1-.7-.1-1.6-.1-2.5-.1h-2.9c-1 .1-2 .1-2.9.2s-1.8.2-2.5.3c-1.5 0-2.5.2-2.5.2M173.5 25.6s-.2 0-.5-.1c-.3 0-.7-.1-1-.1-.4 0-.8 0-1 .1-.3 0-.5.1-.5.1s.2 0 .5.1c.3 0 .7.1 1 .1.4 0 .8 0 1-.1.3-.1.5-.1.5-.1M174 29.9s-.2 0-.5-.1c-.3 0-.7-.1-1.1-.1s-.8 0-1.1.1c-.3 0-.5.1-.5.1s.2 0 .5.1h1.1c.4 0 .8 0 1.1-.1zM157 26.9s-.2 0-.5-.1c-.3 0-.7-.1-1-.1-.4 0-.8 0-1 .1-.3 0-.5.1-.5.1s.2 0 .5.1c.3 0 .7.1 1 .1.4 0 .8 0 1-.1.3-.1.5-.1.5-.1M125.6 25.9s-.2 0-.5-.1c-.3 0-.7-.1-1-.1-.4 0-.8 0-1 .1-.3 0-.5.1-.5.1s.2 0 .5.1c.3 0 .7.1 1 .1.4 0 .8 0 1-.1.3-.1.5-.1.5-.1M153.8 29.9s-1.2-.2-3-.3c-.9-.1-1.9-.2-3.1-.2-1.1-.1-2.3-.1-3.5-.2-1.2 0-2.4-.1-3.5-.1h-3.1c-1.8 0-3 .1-3 .1s4.8.2 9.6.5c1.2 0 2.4.1 3.5.1s2.2.1 3.1.1zM190 26.9s-.6-.3-1.7-.5c-1-.3-2.4-.6-3.8-.8-.7-.1-1.4-.2-2-.2-.7 0-1.3 0-1.8-.1-1 0-1.7.1-1.7.1s.2 0 .5.1c.3 0 .7.1 1.3.1 1 .1 2.4.3 3.8.5 2.6.4 5.4.8 5.4.8M150.3 25.9s-.7-.1-1.7-.3c-1-.1-2.4-.3-3.7-.3-1.4-.1-2.7-.1-3.8 0-1 .1-1.7.2-1.7.2s.7.1 1.7.1c1 .1 2.4.2 3.7.2 1.4.1 2.7.1 3.7.1zM111.9 29.1s-.6-.2-1.5-.3c-.9-.2-2-.4-3.2-.5s-2.4-.2-3.3-.2h-1.5s.6.1 1.5.2 2 .3 3.2.4 2.4.2 3.2.3c1 .1 1.6.1 1.6.1"/></g></svg>