<svg xmlns="http://www.w3.org/2000/svg" width="139.836" height="112.968" viewBox="0 0 139.836 112.968"><g stroke-miterlimit="10" data-paper-data="{&quot;isPaintingLayer&quot;:true}" style="mix-blend-mode:normal"><path fill="#22383f" d="M99.283 72.065c-.495-5.385 0 0 0 0-.618-6.732 11.526-4.893 15.52-5.342 3.993-.45 5.671-2.78 11.147-2.922 5.076-.131 13.87 2.451 13.5 5.894-.408 3.778-4.266 5.637-9.159 7.385-5.454 1.949-9.493.99-13.99.817-7.43-.286-16.524-.447-17.018-5.832M99.658 41.915c.494-5.386 9.587-5.546 17.018-5.832 4.496-.173 8.536-1.132 13.99.817 4.893 1.748 8.75 3.607 9.158 7.385.372 3.443-8.423 6.025-13.5 5.894-5.475-.142-7.154-2.473-11.147-2.922s-16.138 1.39-15.52-5.342c0 0-.494 5.385 0 0" data-paper-data="{&quot;origPos&quot;:null,&quot;index&quot;:null}"/><path fill="#e6b88e" d="M130.249 62.318" data-paper-data="{&quot;index&quot;:null}"/><path fill="#98c2d3" d="M83.273 17.394c11.875 0 19.16 2.429 27.583 10.498.976.935-5.904 3.425-5.904 3.425s9.296.132 9.884.856c4.306 5.302 7.26 14.092 7.26 24.097 0 25.048-18.743 41.71-39.247 41.71S47.845 80.508 47.845 55.46c0-25.05 14.924-38.066 35.428-38.066" data-paper-data="{&quot;origPos&quot;:null,&quot;origRot&quot;:0,&quot;index&quot;:null}"/><path fill="#b0845d" d="M70.789 9.295c.34-7.55 13.08-10.78 23.32-6.752 9.097 3.338 18.209 7.03 17.095 10.458-2.03 6.244-12.644 4.621-18.51 6.148-5.865 1.527-22.245-2.303-21.905-9.854M92.759 94.6c5.717 2.007 16.675.032 18.17 6.422.822 3.508-7.983 6.996-17.33 9.568-11.983 3.105-21.246.537-20.947-7.015.311-7.88 14.39-10.983 20.107-8.976" data-paper-data="{&quot;origPos&quot;:null,&quot;origRot&quot;:0,&quot;index&quot;:null}"/><path fill="#b0845d" d="M115.217 91.873c-2.078 3.35 1.017 2.905 2.132 2.342 1.267-.64-.55-4.37 1.955-4.534 1.716-.112 2.106 5.311.732 9.062-2.08 5.42-27.242 9.188-15.803-.52 2.142-6.6 15.57-13.74 10.984-6.35" data-paper-data="{&quot;origPos&quot;:null,&quot;origRot&quot;:0,&quot;index&quot;:null}"/><path fill="#913653" d="M93.743 95.438s-2.36 17.246-11.944 17.524c-14.833.431-30.14-25.94-30.182-56.124.291-29.07 13.28-55.614 30.461-56.83C91.105-.43 95.253 19.26 95.253 19.26s13.573 8.938 14.307 37.261c.685 26.44-15.817 38.916-15.817 38.916" data-paper-data="{&quot;origPos&quot;:null,&quot;index&quot;:null}"/><path fill="#b0845d" d="M114.912 21.233c4.592 7.386-8.842.258-10.99-6.34-11.449-9.696 13.716-5.952 15.803-.534 1.377 3.749.992 9.172-.724 9.062-2.505-.162-.692-3.894-1.96-4.532-1.115-.562-4.21-1.005-2.129 2.344" data-paper-data="{&quot;origPos&quot;:null,&quot;origRot&quot;:0,&quot;index&quot;:null}"/><path fill="#b0845d" d="M97.346 34.612c3.621 3.959 6.33 8.516 6.804 15.743.196 2.996 5.072 3.504 5.072 6.418 0 2.541-4.636 4.196-4.834 5.784-.795 6.376-3.094 11.337-5.566 14.522-6.208 6.544-12.944 6.538-21.79 8.302-3.6 2.547-10.843 6.834-11.855 4.42-1.012-3.68 8.807-6.025-4.275-2.826-8.06 1.971-31.613-1.02-31.382-30.708.232-29.688 22.687-32.14 30.494-30.402 12.76 2.84 1.356-.027 4.849-2.26 1.899-1.134 5.846 1.048 11.07 4.484 5.798 2.392 16.048.658 21.413 6.523" data-paper-data="{&quot;origPos&quot;:null,&quot;index&quot;:null}"/><g data-paper-data="{&quot;origPos&quot;:null,&quot;index&quot;:null}"><path d="M92.756 75.758s1.36-9.03 1.32-11.906c.724-1.854 3.686-2.252 3.686-2.252s-.795.919-1.663 3.14c-.548 14.077-7.32 15.607-7.32 15.607zM88.932 33.607s6.772 1.53 7.32 15.606c.868 2.222 1.663 3.14 1.663 3.14s-2.962-.397-3.687-2.252c.042-2.875-1.319-11.905-1.319-11.905z" data-paper-data="{&quot;origPos&quot;:null,&quot;index&quot;:null}"/><path d="M94.703 74.436s2.693-4.31 2.754-6.425c.078-2.73-.306-4.13-.306-4.13s2.532.256 2.447 3.977-4.895 6.578-4.895 6.578" data-paper-data="{&quot;origPos&quot;:null}"/><path d="M99.598 46.137c.085 3.721-2.447 3.977-2.447 3.977s.384-1.4.306-4.13c-.061-2.116-2.754-6.424-2.754-6.424s4.81 2.856 4.895 6.577" data-paper-data="{&quot;origPos&quot;:null,&quot;index&quot;:null}"/></g><g data-paper-data="{&quot;origPos&quot;:null,&quot;index&quot;:null}"><g data-paper-data="{&quot;origPos&quot;:null,&quot;origRot&quot;:0}"><path fill="#cddfee" d="M104.722 70.808c-.52 5.718-2.156 6.958-2.156 6.958s-.222-3.727.033-7.171c.28-3.775.787-6.622.787-6.622s1.794 1.326 1.336 6.835" data-paper-data="{&quot;noHover&quot;:false,&quot;origItem&quot;:[&quot;Path&quot;,{&quot;applyMatrix&quot;:true,&quot;segments&quot;:[[[578.27643,391.05421],[0,0],[0.2114,-11.15892]],[574.88741,377.52559],[[574.25435,390.89083],[0.0778,-7.64064],[-0.071,6.97198]],[575.00367,405.22339],[[578.27643,391.05423],[-0.3085,11.58632],[0,0]]],&quot;closed&quot;:true,&quot;strokeWidth&quot;:null,&quot;strokeCap&quot;:null}],&quot;origRot&quot;:0,&quot;origPos&quot;:null}"/><path fill="#4c2774" d="M105.307 71.28c-.454 4.43-1.587 7.342-3.256 8.452.072.884-1.826 1.776-1.68.26.117-1.202-.809 1.119-.275-9.898.553-11.433 1.147-8.531 1.447-10.085.179-.925 1.494-.43 1.954.242 1.378 2.016 2.264 6.596 1.81 11.028m-.635-.715c.458-5.51-1.284-6.79-1.284-6.79s-.46 2.812-.74 6.587c-.256 3.444-.073 7.107-.073 7.107s1.577-1.186 2.097-6.904" data-paper-data="{&quot;origPos&quot;:null,&quot;origRot&quot;:0,&quot;index&quot;:null}"/><path fill="#4c2774" d="M102.482 61.198c-1.002.04-.905-1.574-.936-4.5-.046-4.356-.035-4.44.967-4.455 1.33-.018 1.03 1.649 1.098 4.543.067 2.894.378 4.353-1.129 4.412" data-paper-data="{&quot;origPos&quot;:null}"/><path fill="#4c2774" d="M102 33.35c1.682 1.06 2.853 3.939 3.367 8.36s-.31 9.032-1.66 11.09c-.45.686-1.757 1.222-1.947.302-.321-1.546-.875 1.375-1.583-10.048-.682-11.01.275-8.715.142-9.915-.168-1.512 1.74-.676 1.68.21m.281 2.283s.154 3.917.456 7.356c.33 3.768.428 7.578.428 7.578s2.11-2.624 1.577-8.124c-.597-5.706-2.46-6.81-2.46-6.81" data-paper-data="{&quot;origPos&quot;:null,&quot;origRot&quot;:0,&quot;index&quot;:null}"/><path fill="#cddfee" d="M104.785 42.418c.533 5.5-1.624 8.199-1.624 8.199s-.144-3.863-.474-7.632c-.302-3.438-.415-7.4-.415-7.4s1.916 1.127 2.513 6.833" data-paper-data="{&quot;noHover&quot;:false,&quot;origItem&quot;:[&quot;Path&quot;,{&quot;applyMatrix&quot;:true,&quot;segments&quot;:[[573.08707,319.71313],[[573.28217,334.59151],[-0.2663,-6.96446],[0.29184,7.63238]],[573.40141,349.91765],[[577.29621,333.68195],[0.52396,11.1425],[-0.63296,-11.56534]]],&quot;closed&quot;:true,&quot;strokeWidth&quot;:null,&quot;strokeCap&quot;:null}],&quot;origPos&quot;:null,&quot;origRot&quot;:0}"/></g><path fill="#4c2774" d="M61.136 26.47c.033-.887 7.187.341 20.197 2.39 19.377 3.053 19.751 3.124 19.604 3.993-.196 1.154-7.542-.286-20.42-2.282-12.879-1.997-19.43-2.766-19.38-4.1" data-paper-data="{&quot;origPos&quot;:null,&quot;origRot&quot;:0}"/><path fill="#4c2774" d="M61.81 86.9c-.05-1.335 6.502-2.104 19.38-4.1 12.88-1.996 20.225-3.437 20.42-2.283.149.87-.226.94-19.603 3.992-13.01 2.05-20.163 3.278-20.197 2.39" data-paper-data="{&quot;origPos&quot;:null,&quot;origRot&quot;:0,&quot;index&quot;:null}"/></g><g stroke-width="0" data-paper-data="{&quot;origPos&quot;:null,&quot;index&quot;:null}"><path d="M61.82 23.138c17.016-.27 38.902 1.873 21.957 20.546 19.162 42.255-.698 47.715-17.716 47.715-27.447-.614-38.177-15.82-38.177-34.577 0-18.758 12.917-33.351 33.936-33.684" data-paper-data="{&quot;origPos&quot;:null}"/><path d="M37.77 59.813c2.623 7.835 2.634 21.338-9.674 24.65-11.768 3.168-18.69-9.623-16.379-17.694-6.393-2.576-8.896-18.958 3.411-22.27 11.228-3.022 19.033 4.537 22.642 15.314m-19.784 6.603c-1.671 1.316-3.13-1.42-3.59-2.953-.824-2.742.233-4.968 1.447-5.29 1.844-.488 5.158 1.316 6.244 4.729 1.418 5.355-1.423 9.17-3.596 9.755-3.719 1.21-5.997-6.041-5.997-6.041s2.655 10.511 8.031 9.21c2.835-.764 4.011-7.629 2.594-12.778-1.104-4.008-4.403-9.312-8.3-7.865-2.262.84-1.808 6.124-.848 8.339.907 2.089 2.18 5.064 4.261 4.943 1.502-.087 1.186-3.274.395-4.554-.895-1.448-1.609-1.459-1.609-1.459s3.01 2.357.968 3.964" data-paper-data="{&quot;origPos&quot;:null,&quot;origRot&quot;:0}"/><path d="M21.945 26.104c5.952-.752 12.759 7.794 14.139 17.388s.339 15.782.339 15.782S32.417 47.81 23.9 45.213c-4.343-1.324-12.887 8.114-20.317 5.19C-.834 48.664.078 43.51.078 43.51s2.634 7.355 6.844 3.844C2.197 48.796 3.45 42.06 3.45 42.06s.383 2.967 2.78.665c2.398-2.302 3.55-15.083 15.715-16.62" data-paper-data="{&quot;origPos&quot;:null,&quot;origRot&quot;:0}"/><path fill="#d12a57" d="M85.027 87.396s8.825 7.091 10.767-1.995C98.23 72.59 84.128 44.59 84.128 44.59s16.661 26.402 14.32 39.37c-2.182 9.739-13.421 3.437-13.421 3.437" data-paper-data="{&quot;origPos&quot;:null}"/><path fill="#d12a57" d="M28.93 24.236c9.85 8.756 7.763 22.883 7.763 22.883S36.51 34.78 26.685 26.206s-11.08 1.13-11.08 1.13 5.596-9.412 13.326-3.1" data-paper-data="{&quot;origPos&quot;:null,&quot;index&quot;:null,&quot;origRot&quot;:0}"/><path fill="#d12a57" d="M82.164 44.077s8.656 15.34 8.116 32.09C89.471 101.29 68.404 91.72 68.404 91.72s6.457 8.06 12.845-4.465c6.387-12.524.915-43.178.915-43.178" data-paper-data="{&quot;origPos&quot;:null}"/></g></g></svg>