<svg xmlns="http://www.w3.org/2000/svg" width="63.532" height="75" viewBox="-0.5 -0.5 63.532 75"><path fill="#0cc" d="M62.015 50.91q-.015.225-.06.45c-.29 2.04-1.07 3.82-2.4 6.39-2.72 5.41-7.08 9.65-12.96 12.6-4.45 2.23-9.01 3.44-13.56 3.62-.62.02-1.16.03-1.7.03-14.81 0-22.99-6.97-27.24-12.82a10.8 10.8 0 0 1-1.68-3.45C.775 54.24.045 50.77.245 47.39c.08-1.42.33-3.02.78-4.91.02-1.42.32-2.82.88-4.13.6-1.41 1.25-2.75 1.94-4.03-1-1.26-1.82-2.63-2.45-4.1l-.09-.21c-1.74-4.27-1.74-8.78 0-13.05.03-.08.07-.16.1-.23 2.07-4.75 5.68-8.78 10.74-11.96C17.005 1.71 21.825.1 26.465 0h5.08c5.13 0 9.78 1.07 13.82 3.19 5.76 3 9.68 7.81 11.31 13.91.67 2.41 1.29 5.58.32 8.96-.18.68-.4 1.34-.65 1.99 5.06 5.4 6.22 10.82 6.18 14.77.03 1.3-.02 3.48-.51 8.09"/><path fill="#fff" d="M51.516 42.891q.087 1.851-.439 6.873-.09.617-1.32 2.995-2.464 4.934-8.092 7.755-4.574 2.291-9.061 2.467-13.282.441-19.615-8.269 0-.263-.088-.616-1.847-3.34-1.671-6.068.087-1.67.968-4.838a2.6 2.6 0 0 1-.176-.527q3.077-7.213 7.74-10.645-6.598-2.285-8.269-6.156-.969-2.376 0-4.75 1.76-4.046 6.509-7.037t8.709-3.078h4.838q5.013 0 8.708 1.938 4.572 2.38 5.806 7.049.613 2.205.352 3.084-1.233 4.494-6.422 7.931 1.055.441 2.814 1.233 1.32.353 3.52 1.498 5.364 4.404 5.189 9.161m-6.066 6.104q.7-4.133.701-5.277-.001-3.519-2.369-5.629-3.508-2.99-11.574-4.047a11 11 0 0 0-1.491-.879q-1.58-.175-2.018-.088-3.51.44-7.365 4.838-4.299 4.838-4.298 9.676-.001 5.191 4.735 8.18 4.122 2.64 9.646 2.639 1.667 0 3.157-.264 2.98-.264 6.489-2.99 3.86-2.992 4.387-6.159m-5.545-30.41q-.968-1.328-3.606-2.436-2.639-1.104-4.485-1.019-1.496.089-3.87.442-.706.178-3.519 1.062-1.937.71-4.311 2.744-2.816 2.392-2.639 4.074.528 4.958 9.852 5.135 4.222-.088 6.861-.885 1.405-.354 3.43-1.062 3.254-2.123 3.255-5.225-.001-1.503-.968-2.83"/></svg>