<svg xmlns="http://www.w3.org/2000/svg" xml:space="preserve" width="32" height="47" viewBox="-0.5 -0.5 32 47"><title>Slice 1</title><g fill="#fff4e3" fill-rule="nonzero"><path d="M31 29.954c0-2.702-.499-6.08-1.386-9.579l-3.569 6.948-4.828-7.76-4.446 8.287-5.464-8.155-5.209 8.155-4.71-7.484C.497 23.867 0 27.25 0 29.954 0 38.816 6.939 46 15.5 46S31 38.816 31 29.954"/><path d="M15.753 0C9.428 0 3.983 10.68 1.524 20.43l4.75 7.593 5.252-8.273 5.509 8.273 4.482-8.407 4.868 7.874 3.598-7.05C27.527 10.686 22.081 0 15.753 0"/></g></svg>