<svg xmlns="http://www.w3.org/2000/svg" width="66.19" height="79.83" viewBox="-0.5 -0.5 66.19 79.83"><path fill="#0cc" d="M61.36 49.73c-.79.8-1.85 1.66-3.23 2.4.2 1.58.43 3.39.7 5.42.4 1.04.83 2.26 1.29 3.74.19.63.33 1.27.41 1.93.59 4.76-1.34 9.39-5.17 12.36-2.73 2.12-6.02 3.25-9.52 3.25-2.67 0-5.14-.67-7.24-1.92-2.96 1.09-6.16 1.65-9.57 1.65-4.94 0-9.78-1.19-14.36-3.55-4.17-2.06-7.57-5.44-10.12-10.03C1.53 59.53 0 52.97 0 45.48c0-2.18.12-4.1.38-5.86.17-1.2.39-2.91.68-5.13.12-.95.37-1.88.73-2.76.39-1.88.98-4.21 1.79-7.08.11-.4.25-.79.4-1.18 3.41-8.36 8.3-14.39 14.54-17.91C23.28 2.87 28.39 1.5 33.7 1.5c2.09 0 4.12.21 6.09.64C41.83.84 44.44 0 47.68 0c1.82 0 3.56.37 5.19 1.09 4.2 1.79 7.1 5.49 7.79 9.99l.06.42c.28 2.42.14 5.42-.45 9.66-.04 1.96-.39 4.04-1.07 6.34q-.195.66-.48 1.29.99.585 1.86 1.38c2.97 2.73 4.61 6.39 4.61 10.3 0 3.5-1.36 6.79-3.83 9.26"/><path fill="#fff" d="M53.575 41.965q-.88.88-2.727.967 1.23-.087-2.991-.176-.264 2.463-1.144 6.686.44 3.783 1.407 10.995.615 1.32 1.496 4.134.174 1.409-1.012 2.331-1.188.924-2.771.924-1.496 0-2.199-.88-.09-.878-.528-2.727-.88-2.463-.791-3.079.088.001-.177-.352-4.926 6.774-13.105 6.773-4.839 0-9.412-2.375-3.255-1.584-5.453-5.542-3.167-5.718-3.167-14.162 0-2.462.264-4.31t.704-5.277q.174-.176.352-.704.439-2.55 1.848-7.564 3.694-9.059 9.763-12.49 4.662-2.64 9.764-2.639 6.156.001 11.084 4.046.087-.086.176-.792-.177-1.142 0-3.342.351-1.408 2.727-1.408.44 0 .792.177 1.142.44 1.319 1.583.264 2.288-.528 7.652.088 1.584-.615 3.958-.969 1.056-2.199 1.056-1.936 0-2.814-1.671 0-.615-.264-1.584-1.407-2.462-3.255-3.87-2.376-1.847-6.51-2.11-7.124-.615-11.347 5.365-2.99 4.398-4.222 10.468-.264.792-.704 2.463-.968 5.366-.968 9.675 0 6.07 1.936 11.611 1.142 3.256 4.662 5.277 3.253 1.936 6.685 1.936 2.286 0 4.574-.968 1.583-.613 4.838-5.718.703-1.142 1.144-2.639.527-2.022.703-2.551.703-1.67.748-4.266.043-2.594.396-3.738-2.2-.176-5.981.352-5.102.79-5.189.791-2.902 0-4.134-2.286a2.7 2.7 0 0 1-.176-1.672q.35-1.055 1.495-1.847 1.757-1.319 5.894-.968 6.244.616 10.027.615.528.001 2.902-.088 2.111-.087 3.167 0 1.319-.087 3.079.265 1.055.968 1.055 2.198a2.06 2.06 0 0 1-.618 1.497"/></svg>