<svg xmlns="http://www.w3.org/2000/svg" width="52.045" height="80.595" viewBox="0.354 0.011 52.045 80.595"><path fill="undefined" d="M10.756 1.575C16.68.09 19.9.57 21.534.595c.756.784 2.453.814 3.92.98-.63 21.872 1.492 32.238 2.939 50.952 5.549-.785 13.293.24 21.556-1.96 2.603 2.297-.724 10.523 1.96 12.739v5.879c-2.453 1.861-3.848-.814-6.859.98-.711 2.997 1.691 2.881.98 5.879-14.137 1.98-24.206-1.775-35.274 3.919-.98 0-2.032.346-2.94 0-2.91-5.616-3.39-12.45-5.88-17.637-.686-22.168-.084-36.574-.979-49.972-.055-3.083-.225-2.109 0-2.94 2.239-.225 4.698.357 6.859 0 .327-3.347.844-6.171 2.94-7.839m0 2.94c-.117 19.871 1.868 50.011 3.919 65.65 9.822-2.59 22.201-2.622 33.315-3.92.375-5.41.375-5.368 0-10.778-4.855-.98-18.26 3.415-22.537-1.96-1.71-21.124-3.444-27.57-2.94-48.992-3.73-1.986-6.492.8-11.758 0"/><path fill="#ff9400" d="M22.514 4.515c-.505 21.421 1.23 27.868 2.94 48.992 4.275 5.375 17.68.98 22.536 1.96.375 5.41.375 5.369 0 10.778-11.114 1.298-23.493 1.33-33.315 3.92-2.051-15.639-4.036-45.779-3.92-65.65 5.266.8 8.028-1.986 11.759 0"/></svg>