<svg xmlns="http://www.w3.org/2000/svg" xml:space="preserve" width="70.946" height="22.001" viewBox="1.469 1.499 70.946 22.001"><title>bread</title><g fill-rule="nonzero"><path fill="#e8ae68" d="M36.1 22.5C14.8 21-.5 21.5 2.3 11.6S33.3 2 45.7 2s27.7 5.6 25.9 15c-1.1 5-28.4 6-35.5 5.5"/><path fill="#d69a51" d="M71.7 15.5c-2.2.6-6 2.5-7.4 2.5-1.7 0-3.1.1-4.6.8s-9-.9-10.9.2c-2 1.1-5.8.6-7.1.4s-2.6 0-4.7.5-9.1-2-11.4-2c-2.4 0-2.5.6-4.6.6s-3.3-1.2-6.7-.2-6.9-1.4-8.3-2.5c-1.2-1-2.3-.7-3.9-.5 1.9 6.1 15.7 5.9 33.8 7.2 7.3.5 34.6-.5 35.6-5.5.1-.5.2-1 .2-1.5"/><path fill="#f2c083" d="M20.8 3.1c-1 1.7-1.6 4.1-.7 7.6 0 0 2.3-4.6 5.9-8.1-1.8.1-3.5.2-5.2.5M39.8 2c-1.6 0-3.4 0-5.2.1-1.3 1.7-2.4 4.4-1.3 8.5 0 0 2.5-5.1 6.5-8.6M52.2 2.5c-1.6-.2-3.2-.4-4.7-.4-1.5 1.6-3 4.4-1.8 9.1 0-.1 2.6-5.2 6.5-8.7"/><path fill="#ad7939" d="M9.1 20s1.2.2 3.4.5c2.1.3 5.2.6 8.9.9s8 .5 12.6.7c2.3.1 4.7.2 7.1.2s4.9-.1 7.3-.2c4.9-.2 9.8-.7 14.4-1.5 2.3-.4 4.4-.9 6.4-1.7.9-.4 1.9-1 2.2-1.8.1-.9.1-1.9 0-2.8-.2-1.8-1.1-3.3-2.1-4.4s-2-1.9-2.9-2.5-1.6-1-2.1-1.3-.8-.4-.8-.4.3.1.8.4 1.3.6 2.2 1.2 2 1.3 3 2.4 2 2.6 2.3 4.5c.1.9.2 1.9 0 3-.2.6-.6 1-1 1.3s-.9.6-1.4.8c-2 .9-4.2 1.4-6.5 1.9-4.6.9-9.5 1.3-14.4 1.6-2.5.1-5 .2-7.5.2-2.4 0-4.8-.1-7.1-.2-4.6-.2-8.9-.5-12.6-.9s-6.7-.8-8.9-1.2c-2.1-.4-3.3-.7-3.3-.7"/><path fill="#d69a51" d="M47.2 18.5c-1.3.1-2-1.1-.9-1.2s2.5 1.1.9 1.2M36 19c-1.3.1.1-.8 1.1-.7s.1.6-1.1.7M58.8 18.3c-1.1.1-.9-1.8 1.4-1.8s.3 1.7-1.4 1.8M57.1 17.3c-1.2.6-1.5.4-1.2-.1s1.8-.2 1.2.1M12.2 17.5c-1.8.1-3.5-1.3-1.9-1.4s3.1 1.3 1.9 1.4M14.1 17.5c-.9-.2-1.2-1.4-.4-1.4s1.4 1.6.4 1.4M30.5 18.4c-.9.3-1.3-.9-.3-.9s.9.7.3.9M69.1 15.4c-1.2 0-.6-1.3.5-1.3s.7 1.3-.5 1.3M45.7 11.1s.3-.6.7-1.5c.2-.4.5-1 .9-1.5.3-.5.7-1.1 1.1-1.7.8-1.1 1.7-2.1 2.5-2.8s1.4-1.1 1.4-1.1-.1.1-.3.4c-.2.2-.5.6-.8.9-.3.4-.7.9-1.1 1.4s-.8 1-1.2 1.6c-.8 1.1-1.6 2.2-2.2 3s-1 1.3-1 1.3"/><g fill="#d69a51"><path d="M33.3 10.6s.3-.6.7-1.5c.5-.9 1.2-2.1 2-3.2s1.7-2.2 2.4-2.9c.8-.6 1.4-1 1.4-1s-.1.1-.3.4c-.2.2-.5.5-.8.9-.6.8-1.4 1.9-2.2 3s-1.6 2.2-2.2 3-1 1.3-1 1.3M20.1 10.6s.2-.6.7-1.4c.4-.8 1.1-1.9 1.8-3 .7-1 1.5-2 2.2-2.7s1.2-1 1.2-1l-.3.3c-.2.2-.4.5-.7.9-.5.8-1.3 1.8-2 2.8s-1.4 2-2 2.8c-.5.8-.9 1.3-.9 1.3"/></g></g></svg>