<svg xmlns="http://www.w3.org/2000/svg" xml:space="preserve" width="46.506" height="55.05" viewBox="-0.506 -0.45 46.506 55.05"><path fill="#53ad4e" d="M45.3 1.2c0-.6-.2-.9-.9-.9-2 0-3.9-.1-5.9-.2-2.7-.1-5.3-.1-7.9.5-.2 0-.4.1-.5.2-1.3 1.6-2.7 3.3-3.8 5-.4.6-.2 1.6 0 2.3s1 .4 1.5.4h2.8c-2.3 4.1-4.4 8-6.7 12-.2-.4-.4-.7-.5-1-2.6-4.7-5.1-9.4-7.7-14.1q-.45-.75.3-1.2c.8-.4 1.7-.7 2.6-1 .6-.2.9-.4.7-1.1-.1-.3 0-.7 0-1.1.1-.5-.1-.6-.5-.6-.5 0-1 .1-1.6.1H4.6c-.2 0-.4.1-.5.2C3 1.9 1.9 3.1.8 4.2c-1 1-.9 2.1-.6 3.2 0 .2.4.4.6.4 1.1.2 2.3.3 3.4.5.9.2 1.3.8 1.6 1.7.1.3.2.5.3.8 1.2 2.3 2.5 4.6 3.7 6.9 1.4 2.8 2.8 5.7 4.2 8.5 1 2 2.2 3.9 2.2 6.4 0 4.2.2 8.4.5 12.5.1 1.7-.4 3-1.7 4.1-1.2 1-2.5 2.2-1.9 4.1.2.6.2 1 1 .6.2-.1.5 0 .7 0 4.3.1 8.5.1 12.8.2.3 0 .6-.1.8-.3 1.1-1.2 2.2-2.5 3.3-3.8.6-.6.7-1.1.6-1.9-.2-1.5-.1-1.5-1.6-1.5-1.2 0-1.9-.5-2.1-1.7-.1-1 0-2 0-3-.1-5.2-.3-10.4-.4-15.6 0-.3.1-.7.3-1 1.1-2 2.3-3.9 3.4-5.9 2.2-4.1 4.3-8.2 6.6-12.3.5-.9 1.3-1.7 2-2.5 1.1-1.2 2.5-1.4 4.1-1.2.7.1.9-.1.9-.8-.2-.3-.2-.9-.2-1.4M26.6 7c.1-.3.1-.6.2-.8 1-1.5 2.1-2.9 3.2-4.4.4.7.4 1.1-.1 1.7-1 1.2-2 2.5-3 3.7-.1-.2-.2-.2-.3-.2m-5.4 25.5c.6 4.2-.1 8.5-.1 12.7 0 .9-.6 1.3-1.3 1.6-.4.2-.9.2-1.3.2-.7 0-1-.2-1-1-.2-5-.4-9.9-.5-14.9 0-.4.2-.9.5-1.1 1.2-.8 2.4-1.5 3.8-2.3-.1 1.7-.3 3.3-.1 4.8M1 5.2c.7-.9 1.4-1.7 2.1-2.6.3-.4.7-.8 1-1.2h.2c0 .5.1 1.1-.1 1.5C3.2 4.1 2 5.3.9 6.6.4 6 .8 5.5 1 5.2m14 21.1c-1.6-3.1-3.1-6.3-4.7-9.4-1.1-2.1-2.2-4.2-3.4-6.2-.2-.3-.4-.6-.5-1-.8-1.9-2.1-2.6-4.2-2.5h-.9c1.2-1.3 2.3-2.5 3.4-3.6.6-.6 2.4-.3 3 .5.9 1.1 1.7 2.3 2.4 3.5 2.3 4.1 4.5 8.2 6.7 12.2 1.2 2.1 2.4 4.3 3.6 6.4.3.5.2.8-.3 1.1-1.1.7-2.2 1.5-3.4 2.3-.5-1.1-1.1-2.2-1.7-3.3m-1.3 26.4c-.1-.1-.1-.2-.2-.4l.2-.2c0-.2 0-.3.1-.4 1.1-1.4 2.3-2.7 3.6-4.1.3.9-.1 1.5-.5 1.9-1 .9-2.1 1.7-3.1 2.6-.1.3 0 .5-.1.6m17.2-3.3c0 .1 0 .2.1.3-.9 1.2-1.8 2.3-2.7 3.5-.2.2-.7.3-1 .3-3.6 0-7.2-.1-10.8-.1h-2c.9-.9 1.7-1.7 2.3-2.5.9-1.1 1.9-1.5 3.3-1.4 3.6 0 7.2-.1 10.8-.1M35.3 6c-.4.5-.7 1.1-1.1 1.6-1.5 2.4-3.1 4.8-4.5 7.2-1.4 2.5-2.6 5-3.9 7.5-.1.2-.2.3-.3.5-1.2-1.2-1.2-1.7-.3-3.2 1.9-3.3 3.7-6.5 5.6-9.8.1-.2.2-.5.3-.7.2-.7-.2-1.3-.9-1.3-.7-.1-1.5 0-2.2 0-.2 0-.3 0-.7-.1.5-.6 1-1.2 1.4-1.7.6-.7 1.1-1.4 1.7-2 .2-.2.6-.5.9-.5 1.1.1 2.2.1 3.3.4 1.2.4 1.6 1 .7 2.1"/><path fill="#fff" d="M4.2 2.8C3.2 4.1 2 5.3.9 6.6.4 6 .8 5.5 1 5.2c.7-.9 1.4-1.7 2.1-2.6.3-.4.7-.8 1-1.2h.2c0 .5.2 1.1-.1 1.4M29.9 3.4c-1 1.2-2 2.5-3 3.7-.1-.1-.2-.1-.3-.1.1-.3.1-.6.2-.8 1-1.5 2.1-2.9 3.2-4.4.4.6.4 1-.1 1.6M35.3 6c-.4.5-.7 1.1-1.1 1.6-1.5 2.4-3.1 4.8-4.5 7.2-1.4 2.5-2.6 5-3.9 7.5-.1.2-.2.3-.3.5-1.2-1.2-1.2-1.7-.3-3.2 1.9-3.3 3.7-6.5 5.6-9.8.1-.2.2-.5.3-.7.2-.7-.2-1.3-.9-1.3-.7-.1-1.5 0-2.2 0-.2 0-.3 0-.7-.1.5-.6 1-1.2 1.4-1.7.6-.7 1.1-1.4 1.7-2 .2-.2.6-.5.9-.5 1.1.1 2.2.1 3.3.4 1.2.4 1.6 1 .7 2.1M16.9 49.6c-1 .9-2.1 1.7-3.1 2.6 0-.2 0-.3.1-.4 1.1-1.4 2.3-2.7 3.6-4.1.2 1-.2 1.5-.6 1.9M31 49.7c-.9 1.2-1.8 2.3-2.7 3.5-.2.2-.7.3-1 .3-3.6 0-7.2-.1-10.8-.1h-2c.9-.9 1.7-1.7 2.3-2.5.9-1.1 1.9-1.5 3.3-1.4 3.6.1 7.2 0 10.8 0 0 0 .1.1.1.2M21.1 45.2c0 .9-.6 1.3-1.3 1.6-.4.2-.9.2-1.3.2-.7 0-1-.2-1-1-.2-5-.4-9.9-.5-14.9 0-.4.2-.9.5-1.1 1.2-.8 2.4-1.5 3.8-2.3 0 1.7-.2 3.3 0 4.9.6 4.2-.2 8.4-.2 12.6M20.2 27.4c-1.1.7-2.2 1.5-3.4 2.3L15 26.4c-1.6-3.1-3.1-6.3-4.7-9.4-1.1-2.1-2.2-4.2-3.4-6.2-.2-.3-.4-.6-.5-1-.8-2-2.1-2.7-4.2-2.6h-.9c1.2-1.3 2.3-2.5 3.4-3.6.6-.6 2.4-.3 3 .5.9 1.1 1.7 2.3 2.4 3.5 2.3 4.1 4.5 8.2 6.7 12.2 1.2 2.1 2.4 4.3 3.6 6.4.4.6.3.8-.2 1.2"/></svg>