<svg xmlns="http://www.w3.org/2000/svg" width="149.248" height="155.613" viewBox="-0.344 0.107 149.248 155.613"><defs><linearGradient id="a" x1="1081.712" x2="1088.186" y1="-1185.175" y2="-1227.032" gradientUnits="userSpaceOnUse"><stop offset="0" stop-color="#f90"/><stop offset="1" stop-color="#fc9"/></linearGradient></defs><path fill="#f90" d="M121.989 60.726c-4.004 7.018-2.695 14.47-2.084 21.866-1.004 5.21-2.54 9.885-3.85 14.786.463 7.598 5.098 11.458 8.12 16.764-1.378 8.992-3.067 17.877-8.018 25.613l1.562 5.937c-7.735 5.447-14.187 1.313-17.596-1.251l-3.54-44.877c-7.81 1.066-15.62.779-23.43-.313-5.356 8.467-10.37 17.166-11.222 25.289-1.104 10.534 2.932 19.802 3.1 23.234-1.888 3.046-4.876 2.794-7.704 3.02l-1.56 2.601c-5.137 2.229-10.275 1.342-15.411-.73-5.573-11.16-.09-53.511 9.267-49.77C44.368 90.33 44.108 77.09 54.1 65.828c-3.522-1.578-9.496-2.675-10.724 17.493l-1.146-2.188c-1.328 7.898-.998 16.236-4.997 23.532l-1.25-1.876c-2.522 2.823-7.493 18.149-25.822 9.373l3.019-.416C1.49 106.665 1.54 100.37.893 94.15c3.125 4.484 15.498 13.018 24.678 4.269l-4.998.103c4.635-1.11 10.21-9.153 12.823-27.558l-2.828.07c9.05-14.718 18.474-15.46 28.112-8.227 4.547-1.81 9.093-1.663 13.64-1.562 6.244 2.152 12.435 5.201 19.056.938l-.625-2.395-1.665 2.083c-.815-8.712.126-17.423 3.748-26.135l-3.54 2.083c2.013-5.381 3.969-10.799 7.602-15.099.09-6.894-.79-12.83 7.08-21.657 2.81 1.56 4.721 4.555 6.144 8.33l8.851-5.414-1.04 2.707c5.978-1.533 9.815-5.575 24.884 3.436l-3.228-.104c7.756 7.444 7.496 15.196 8.329 22.908l-6.663-2.292c.443 6.18.985 12.336-.73 19.055 7.549 10.655-13.212 11.366-18.534 11.037"/><path fill="#fff" d="M125.477 39.538c-.186-5.535-2.927-8.312-6.56-8.851-3.544-.527-8.412 2.853-8.642 6.403-.397 6.113 4.375 11.81 10.725 10.62 4.324-.81 4.617-3.982 4.477-8.172"/><path fill="#fff" d="M141.884 53.936c-2.61 5.845-8.89 7.486-17.18 6.82-4.721-1.196-17.326 1.005-15.047-8.798 1.516-6.517 17.413-7.65 25.094-.053zM99.759 98.577c-.797-3.783-.929-7.815-5.986-9.998-8.085-2.614-15.066-1.661-19.419-1.041-.687 3.702-2.713 7.071-5.05 10.36 10.816 2.801 20.738 2.14 30.455.678M32.523 107.632c-3.838 3.931-8.973 10.55-22.238 4.491l2.726-.221C6.088 108.512.334 104.104.79 94.307c3.84 5.34 17.392 11.932 24.444 4.124l-4.317.31 5.348-4.361h1.768l-.166 1.675 2.741-1.748-2.134 7.067 5.817-2.577zM141.465 32.028c-1.69-.235-4.352 1.203-4.724 5.908-.15 6.39.694 10.956 4.334 9.619.97-5.176 1.139-10.352.39-15.527"/><path fill="undefined" d="M112.987 32.329c-1.482 1.206-2.62 2.81-3.122 4.382l.597.186c.456-1.428 1.522-2.946 2.914-4.08 1.391-1.133 3.09-1.875 4.804-1.81 1.537.058 3.132.494 4.401 1.751 1.271 1.257 2.248 3.363 2.476 6.828.21 2.892-.233 4.797-.998 6.006-2.035 3.904-8.572 2.166-11.417-.925 1.217 1.673 3.412 2.837 4.58 3.166s2.554.535 3.884.322c1.33-.212 2.618-.865 3.483-2.23.864-1.366 1.301-3.404 1.085-6.379-.234-3.566-1.246-5.838-2.651-7.23-1.405-1.389-3.171-1.873-4.812-1.936-1.907-.072-3.745.74-5.224 1.949"/><path fill="undefined" d="M120.597 43.789a1.143 1.143 0 0 1 2.283.028 1.141 1.141 0 1 1-2.283 0M138.433 43.18a1.141 1.141 0 1 1 0 .029"/><path fill="undefined" d="M140.267 31.69a2.96 2.96 0 0 0-1.556.598c-.975.732-1.732 2.135-1.985 4.372v.01l-.01.01c-.3 2.943-.701 5.948.498 9.108l.011.01.012.02c.457.948.976 1.716 1.691 2.112.717.396 1.572-.005 2.518-.635-2.346.929-3.118.094-3.835-1.826-1.044-2.959-.609-5.749-.267-8.74v-.02c.244-2.114.964-3.33 1.751-3.923.79-.593 1.668-.603 2.397-.234l.283-.558a2.87 2.87 0 0 0-1.508-.303M137.738 55.52c1.656-.144 3.516-.454 4.554-3.073.206-1.7-2.279-1.56-4.633-1.51-2.855-.196-4.728.176-4.816 1.64-.042 1.69 3.017 2.673 4.895 2.942"/><path fill="none" stroke="#000" stroke-width=".429" d="M127.768 58.904c-2.648-.7-2.316-2.827-2.239-4.113 0 0 7.55 1.666 8.07 1.77-1.293 2.016-3.15 2.962-5.831 2.343Z"/><path fill="none" stroke="#000" stroke-linecap="round" stroke-width=".857" d="M114.856 51.25s6.665 2.134 7.028 2.134M113.633 57.368s8.019-1.093 8.383-1.093M141.226 55.858l4.478 1.562M142.084 53.073l4.322-.834"/><path fill="undefined" d="M110.145 36.38c-1.313.631-2.7.312-3.853-.702.475.957 1.903 2.276 4.171 1.213zM110.9 35.033c-1.463.096-2.95-.433-4.139-1.092.814.95 2.176 1.692 3.827 1.756zM111.759 33.732c-1.44-.145-2.706-1.053-3.462-2.109.458 2.052 1.781 2.354 3.072 2.708zM141.839 33.51c1.782-.106 2.897-.17 3.68-1.676-1.431.79-1.837 1.258-3.864.847zM140.918 31.743c1.534.215 2.949-.398 3.94-1.73-.743 2.1-2.026 2.389-3.443 2.429zM121.77 60.441c-3.23 4.349-3.653 10.287-2.593 18.204.653 4.89-.19 8.35-1.213 11.153s-2.277 4.938-2.28 7.209c-.006 4.554 1.979 8.336 3.922 11.346.973 1.507 1.931 2.82 2.641 3.944.712 1.123 1.142 2.06 1.145 2.68.048 7.424-2.321 14.894-5.283 20.494-1.48 2.798-3.112 5.133-4.636 6.748-1.524 1.617-2.964 2.464-3.883 2.476-2.428.031-4.266-1.697-5.508-3.903s-1.817-4.868-1.722-6.262c.042-.61.55-1.88 1.32-3.336.773-1.455 1.788-3.143 2.8-4.803s2.022-3.294 2.778-4.665c.378-.687.695-1.305.919-1.84s.373-.967.362-1.39c-.012-.41-.214-.712-.481-1.086a13 13 0 0 0-1.056-1.263c-.858-.93-1.994-2.048-3.169-3.268-2.349-2.436-4.83-5.3-5.468-7.561-.377-1.336-.027-2.796-.03-4.918 0-2.125-.657-5.419-2.862-9.222.96 2.363 2.086 5.854 1.924 9.222.003 2.01-.392 3.538.069 5.174.747 2.651 3.323 5.505 5.693 7.963 1.185 1.23 2.318 2.343 3.15 3.248.416.451.764.858.988 1.173.226.316.304.567.304.567.003.132-.09.516-.295.998-.203.482-.5 1.081-.871 1.75-.737 1.34-1.746 2.966-2.758 4.627-1.014 1.663-2.038 3.363-2.829 4.853-.789 1.492-1.36 2.738-1.427 3.707-.117 1.708.504 4.417 1.84 6.79 1.336 2.372 3.459 4.42 6.34 4.38 1.418-.016 2.953-1.066 4.558-2.767 1.603-1.698 3.26-4.095 4.772-6.955 3.025-5.72 5.448-13.315 5.4-20.942-.005-.993-.554-2.004-1.29-3.17-.737-1.167-1.698-2.475-2.652-3.951-1.908-2.954-3.771-6.55-3.766-10.83.003-1.912 1.168-4.016 2.22-6.897 1.052-2.88 1.948-6.546 1.27-11.6-1.045-7.825-.6-13.459 2.41-17.51z"/><path fill="none" stroke="#000" stroke-width="1.286" d="m96.264 99.792 3.875 44.482c.163 1.912 9.091 5.497 16.384 2.623 1.958-1.033 1.137-3.409-.469-6.828"/><path fill="none" stroke="#000" stroke-width="1.286" d="M69.336 97.472c1.25 2.407 23.591 4.013 30.775 1.032"/><path fill="none" stroke="#000" stroke-width="1.286" d="M56.768 150.702c1.699.065 3.387.162 5.228-.296 1.263-.58 4.438-1.474 2.725-6.48-7.768-20.183.41-30.36 8.466-45.133"/><path fill="undefined" d="M68.496 60.627c-10.311-.34-17.214 5.37-20.63 13.17-3.8 8.668-3.38 19.867 1.008 28.398-1.4-.03-2.662.364-3.678 1.262-1.213 1.071-2.085 2.767-2.652 5.096-3.117 12.45-7.33 26.115-4.128 41.212v.01c.219.957.45 1.745.833 2.417.382.67.933 1.21 1.721 1.593 1.579.769 4.041 1.038 8.482 1.292h.038c1.458-.023 3.527-.05 5.204-.764.838-.359 1.583-.91 2.054-1.733.47-.818.64-1.88.41-3.198v-.01c-.917-6.005-5.994-15.05-2.612-27.634 1.894-7.041 7.77-14.617 15.994-24.984l.02-.02c3.766-4.245 4.231-9.77 4.567-15.142-.523 4.392-1.803 11.183-5.291 14.537l-.01.01v.01c-8.237 10.38-14.214 17.996-16.19 25.345-3.476 12.927 1.736 22.41 2.591 28.026v.012c.205 1.163.053 1.978-.293 2.582s-.905 1.028-1.614 1.332c-1.41.602-3.367.672-4.814.694h-.039c-4.389-.25-6.802-.566-8.091-1.193-.646-.315-1.019-.686-1.32-1.214-.3-.527-.513-1.23-.724-2.154v-.01c-3.14-14.816.991-28.309 4.118-40.791.54-2.216 1.35-3.737 2.358-4.627 1.007-.89 2.217-1.204 3.746-.988l.93.136-.45-.83c-4.582-8.322-5.083-19.684-1.31-28.29 3.77-8.608 11.686-14.488 24.22-12.103h.012c3.301.675 12.278 5.28 18.841.352l-.558-.743c-6.01 4.511-14.363.234-18.108-.529h-.01c-1.61-.307-3.15-.48-4.625-.529"/><path fill="undefined" d="M104.279.75c-.008 0-.013.01-.019.009-.644-.023-1.216.372-1.83.978-.62.612-1.283 1.481-1.936 2.572-1.308 2.182-2.595 5.255-3.377 8.834a31.7 31.7 0 0 0-.625 9.195c-3.608 3.974-5.775 9.676-7.786 15.75l-.49 1.486 1.234-.968 2.19-1.732c-1.096 2.692-2.208 6.77-2.867 11.425-.66 5.138-.878 13.763 1.427 18.597-.177-1.991-.12-2.867-.008-4.579.026-.752.164-1.381.41-1.83 1.423 4.245 4.23 9.81 10.926 13.353l1.107.588-.441-1.164c-1.697-4.466-2.919-8.987-2.61-13.832 1.23 1.48 2.394 2.07 3.462 2.827l.987.695-.264-1.184c-.82-3.783-3.305-7.303-4.16-10.995 1.365 1.604 2.654 2.995 3.845 3.962 1.51 1.226 2.91 1.933 4.236 1.928h.822l-.422-.703c-3.394-5.69-6.701-11.353-7.844-18.558l2.631.41 1.204.196-.765-.95c-6.34-7.86-6.8-16.767-5.283-23.721.758-3.477 2.02-6.459 3.268-8.54.624-1.04 1.243-1.856 1.78-2.387.54-.531 1.003-.73 1.146-.724h.02c.077 0 .36.097.705.372s.765.7 1.202 1.242c.879 1.086 1.853 2.65 2.72 4.461 2.101 4.658 2.893 7.793 2.232 14.71 2.753-6.31.037-11.544-1.38-15.12-.896-1.87-1.909-3.476-2.847-4.637-.468-.58-.913-1.051-1.34-1.39-.418-.332-.81-.557-1.262-.567V.75zm-2.359 35.96-2.18-.342-.616-.098.077.626c1.018 7.355 4.257 13.094 7.582 18.684-.799-.231-1.713-.742-2.73-1.566-1.423-1.157-3.027-2.883-4.794-5.086l-.968-1.203.127 1.535c.357 4.201 2.948 7.892 4.097 11.505-.957-.62-1.885-1.26-2.923-2.847l-.704-1.076-.157 1.282c-.59 5.058.536 9.723 2.152 14.232-5.972-3.616-8.437-8.955-9.664-12.913l-.197-.607-.518.362c-.587.401-.866 1.038-1.037 1.741-.504-4.05-.338-8.46.235-12.51.625-4.311 1.85-10.178 4.373-14.59-1.166 1.063-3.063 2.493-3.952 3.037 1.753-5.13 3.69-9.837 6.524-13.255.543 4.34 2.12 8.84 5.273 13.089"/><path fill="undefined" d="M118.806 3.432c-3.234 1.41-6.138 3.476-8.913 5.77l.607.725c2.42-2.004 4.926-3.777 7.62-5.107l-.812 2.104-.499 1.282 1.174-.705c3.528-2.12 8.346-2.685 12.971-2.005 3.758.55 7.332 1.947 10.028 3.902a6.4 6.4 0 0 0-1.663.03l-.93.146.677.656c6.365 6.18 8.108 14.086 8.227 21.98-9.708-3.378-15.459-4.336-22.464-10.56 2.75 3.082 6.197 6.539 9.327 9.632-4.84-.596-9.489-3.526-14.058-8.56l-.811-.9v3.601c-2.652-2.338-5.285-4.886-7.034-8.277l-.832.43c2.015 3.907 5.1 6.71 8.02 9.245l.784.676v-3.298c4.82 5.042 9.847 7.967 15.182 8.159l1.194.039-.85-.841-5.195-5.205c2.41 2.231 10.824 5.024 17.079 6.955l.626.215-.01-.655c-.031-7.947-1.684-16.115-7.876-22.588 1.301-.083 2.782.383 4.09 1.207-.194-.332-.483-.734-1.067-1.335-2.938-2.917-7.516-4.882-12.307-5.586-4.335-.636-8.838-.22-12.462 1.546l.802-2.083.411-1.047z"/><path fill="none" stroke="#000" stroke-width="1.286" d="M140.458 49.963c1.458-4.431 2.519-10.386.7-19.417"/><path fill="undefined" d="M137.88 47.792c1.826 1.674 2.444 2.277 3.405 4.178.379.733.429 1.38.283 2.006-.286 1.239-1.449 2.427-2.65 3.394q-.01.004-.019.01l-.01.01c-3.698 2.49-8.269 3.021-12.786 2.954-3.459-.068-10.75-.6-15.279-1.828 5.282 1.841 9.582 2.684 15.272 2.768 4.612.069 9.404-.467 13.352-3.14l.01-.01.019-.01c1.263-1.014 2.632-2.299 3.013-3.944.19-.822.1-1.731-.373-2.64-.472-.911-1.316-1.822-2.622-2.76zM47.67 57.761c-3.837-.083-7.876 1.072-10.935 4.308l-.01.018-.01.01c-2.206 2.751-4.462 6.45-7.044 9.714q1.485-.21 2.974-.401c-1.493 6.836-2.612 12.912-4.295 17.52-1.74 4.765-4.03 7.949-7.963 9.147l-1.194.361 1.134.518c1.346.609 2.593.73 3.795.304-.852.787-1.643 1.325-2.396 1.662-1.626.73-3.151.659-4.999.617-6.893-.108-12.162-2.907-15.486-8.109l-.763-1.195-.109 1.41c-.473 6.41 1.475 10.831 4.374 13.773 1.917 1.942 4.232 3.201 6.516 4.058l-1.242-.038-1.554-.058 1.27.91c5.75 4.09 12.534 3.842 17.246 1.213 3.978-2.22 6.893-6.378 8.92-10.163l.911 1.897.363.764.46-.713c3.248-5.106 4.467-12.9 4.233-17.355v-.021c-.276-3.286.106-4.76.471-6.026.223.378.401.775.47 1.242l.215 1.418.665-1.263c1.096-2.083.875-4.455 1.135-7.13.258-2.676.938-5.683 3.706-9.196l.011-.01.01-.011c.843-1.184 1.89-1.476 2.914-1.429 1.025.048 2.02.49 2.437.764l.509-.782a6.07 6.07 0 0 0-2.906-.92c-1.247-.056-2.684.375-3.707 1.8q-.006.01-.01.018c-2.876 3.656-3.627 6.912-3.895 9.675-.211 2.191-.178 4.04-.606 5.595a6.3 6.3 0 0 0-.803-1.194l-.578-.673-.234.848c-.371 1.37-1.095 3.15-.743 7.339v.022c.206 4.016-.925 11.174-3.667 16.012l-.91-1.887-.412-.862-.432.852c-1.988 3.898-5.017 8.347-8.987 10.564-4.004 2.234-9.65 2.618-14.74-.245 1.827.06 3.429.038 5.452-.145-4.611-.976-8.063-2.13-11.813-5.527-2.512-2.552-4.256-6.267-4.146-11.7 3.517 4.717 8.818 7.31 15.436 7.413h.01c1.829.043 3.549.132 5.39-.694 2.414-1.191 6.222-5.02 7.308-8.297-1.54 2.109-2.987 3.777-5.43 4.842-.678.281-1.344.32-2.084.158 3.53-1.572 5.723-4.852 7.327-9.244 2.018-5.66 2.932-12.554 4.626-18.939l-2.124.284c1.838-2.527 3.586-5.278 5.684-7.875l.018-.019c3.266-3.428 7.693-4.351 11.759-3.893 4.074.459 7.75 2.357 9.322 4.353l.743-.578c-1.823-2.313-5.666-4.222-9.956-4.705a19 19 0 0 0-1.632-.106M116.076 94.709l.88.322c2.567-6.967.04-12.833-1.713-16.228 1.196 2.944 3.502 11.676.833 15.906M102.614 11.844c-1.804 3.663-1.248 7.887-.037 11.928-2.094-3.926-2.937-8 .037-11.928"/><path fill="#fff" d="M57.917 91.915c-.8 3.185-5.802 2.781-6.355-.178-.102-3.443.381-7.603 1.785-10.651.77-1.667.516-3.898.863-6.63.295-.92.032-9.42 6.937-6.829 1.15.634 2.441.135 3.443.236 7.264.732 3.661 9.168 3.697 12.653-.175.748.237 1.093.932 1.927 2.716 3.245 1.934 12.907-11.302 9.472"/><path fill="url(#a)" d="M57.324 89.273c.136.217-.208 3.437-1.987 3.011-.471-.112-1.254-.083-1.524-.416-.616-.758-.355-2.106-.355-2.106l1.465-6.888c.288-1.383.982-1.53 1.798-1.309 1.12.242 1.917.875 1.768 2.646.268 5.678 6.785 4.338 7.402 2.25.044-.837.928-2.255-4.702-4.499-2.582-1.119-6.388-1.78-5.434-7.17.37-1.525.775-3.023 1.272-4.463.505-2.313 6.233-.773 7.14 1.227.202-1.095.632-1.945 2.118-1.642.636.13 1.253 1.365 1.172 2.6 0 0 .14 8.108-.792 8.102-1.01-.007-2.318-.237-2.583-1.092-.537-1.712-1.186-4.633-2.055-6.37-.185-.385-1.586-2.062-2.325.14-.59 1.68-.92 4.766-.485 4.94l6.786 2.694c1.702.661 5.44 6.535 1.49 8.668-2.39 1.056-8.111 2.607-10.169-.323"/></svg>