<svg xmlns="http://www.w3.org/2000/svg" width="81" height="187" viewBox="-0.5 -0.5 81 187"><path fill="#824600" d="M59.768 85.924c-2.344 3.606-16.787 8.051-20.274 10.49l7.973 14.782a19.4 19.4 0 0 0 8.245-4.683c2.456-2.244 6.613-7.808 6.836-8.199.968-1.673 2.015-3.31 2.578-5.179.133-.438.24-.881.357-1.325s.239-.939.34-1.341c-.516-.686-4.545-3.838-6.055-4.545"/><path fill="#f01446" d="M58.734 86.804c0-.547 7.046-15.89 7.183-16.043 0 .235 3.956 6.377 3.956 6.377s-3.517 13.048-4.099 14.851c-.64-.049-5.818-4.3-7.04-5.185M51.088 93s-4.832 2.203-5.518 2.612l.104 15.584 5.972-.156z"/><path fill="#be0a3c" d="M56.286 151.689a104 104 0 0 1-4.175-10.122c-.63-1.943-9.643-29.424-9.899-30.371l-9.807 43.492c.816 1.082 14.442 13.673 15.316 14.127l11.013-11.177c-.165-.347-2.069-5.099-2.448-5.949"/><path fill="#6e1e3c" d="M79.147 180.946h.806c0-.38-.032-.759 0-1.138.106-3.387 0-6.81 0-10.202-3.084-1.036-6.285-.956-9.427-2.233-2.952-1.196-8.23-3.921-9.957-6.645-.392.337-5.739 5.411-8.876 7.906-.345.486-.652.902-1.06 1.356 8.913 4.199 18.663 7.767 28.355 6.869.461 1.127.17 2.847.159 4.087"/><path fill="#f0e6d2" d="m59.236 156.685 3.549 5.531-9.852 10.643s-5.166-2.696-6.351-3.774c1.927-2.534 10.786-11.532 12.654-12.4M55.684 173.385l8.832-10.592 1.294 1.051-8.296 10.069z"/><path fill="#be0a3c" d="M49.53 115.239c.239-1.109.07-8.844-1.326-16.584-1.049-5.796-3.419-12.264-3.359-12.302-2.989-6.706-9.049-9.453-16.212-8.236-3.5.593-7.81 3.652-10.549 7.256a12.4 12.4 0 0 0-1.929 3.614l.109 14.419-3.881 3.635s-.456 6.852-.087 8.198z"/><g fill="#ffc800"><path d="M73.907 79.969c.07.466-.076.94-.392 1.269a3.9 3.9 0 0 1-2.271 1.342q-.686.043-1.357.208a2.33 2.33 0 0 1-1.839-.202.58.58 0 0 1-.197-.392.6.6 0 0 1 .123-.425c.25-.36.548-.676.886-.94a3.45 3.45 0 0 1 1.266-.549c1.039-.189 2.089-.299 3.134-.421q.33.011.647.11M70.886 76.805q-1.853-6.615-3.701-13.241C66.031 59.401 49.968 5.415 48.218 1.091c-2.71-1.937-8.302-1.696-9.717 4.045-.807 1.518 22.647 55.579 23.845 58.476q2.77 6.589 5.489 13.214z"/></g><path fill="#824600" d="M73.924 75.379c-.687 3.522-1.643 4.713-5.345 5.365-3.28.58-4.495-.868-4.753-4.025-.222-2.691.866-4.288 3.359-5.294 4.125-1.664 6.021-.149 6.739 3.954"/><path fill="#824600" d="M65.823 72.463s-2.588-2.675-2.721-2.713c-.974 1.243-14.152 15.293-24.082 18.946-2.662.971-13.79 1.443-13.79 1.443l-.926 14.87c1.597.657 12.459-1.503 15.696-2.898 7.502-3.256 14.679-8.683 19.167-15.841 1.848-2.106 6.656-13.807 6.656-13.807"/><path fill="#824600" d="m71.42 71.489-5.922 2.304c-2.351-.585-4.244-2.237-5.053-4.41-1.133-2.658-.908-4.238.83-6.568q.605-.196 1.166-.49c1.501-.777 2.958-.573 4.288-.662 3.816 1.428 6.252 5.979 4.691 9.826"/><path fill="#6e1e3c" d="M33.418 107.138s-21.13.032-21.247 0c-.276-3.029 2.47-15.222 3.718-18.069.314 0 17.077-.112 17.077-.112z"/><path d="M1.895 94.693c-4.445-4.044 0-11.378 2.459-15.255 3.249-5.139 17.582-16.791 17.902-16.764.384.507-4.229 18.004-6.98 22.944-2.112 3.817-8.182 11.027-13.381 9.075"/><path fill="#824600" d="M44.105 50.309 18.447 46.5c-1.73 5.386-4.014 12.189-.054 19.983 2.316 4.565 6.539 7.756 8.991 8.129 6.642 1.001 11.14-2.008 14.544-6.67 1.967-2.701 1.864-5.109 2.031-8.284.124-2.589 1.185-6.856.146-9.349"/><path fill="#642800" d="M25.316 57.728a26 26 0 0 1 6.076.156 14.7 14.7 0 0 1-1.06 3.005c-.659.799-1.692 1.003-2.542.502-.602-.369-2.284-2.751-2.474-3.663"/><path d="M28.588 64.017c1.872-1.468 7.868-2.068 7.868-.046s-6.444 4.458-8.102 1.034zM37.33 60.574c-.272.143-.58.087-.813-.149-.037-.554-.187-1.163.184-1.761l.416-.034c.373.524.458 1.302.213 1.944M22.76 61.663c-.57-.493-.6-.711-.268-1.792q.113-.105.239-.185a.6.6 0 0 1 .212-.045c.328.163.311.56.337.868.042.516-.013.969-.52 1.154"/><path fill="#be0a3c" d="M13.863 52.565s-8.992 4.571-2.23 6.398 24.91-.591 31.911-.779l-15.045-5.522z"/><path fill="#f01446" d="M48.602 56.856c-.185-10.479-4.087-14.691-9.967-17.278-3.805-1.689-13.485-1.873-18.621 1.7-4.424 3.074-5.744 9.743-5.837 11.405 4.56.541 23.637 4.395 28.153 5.792.604 3.323 1.81 11.275 1.81 11.275s4.647-2.409 4.462-12.894"/><path fill="#be0a3c" d="M25.596 52.565c-1.873 0-3.144-.623-3.944-2.135a3.1 3.1 0 0 1-.374-1.776c.096-2.202 1.764-3.986 3.891-4.159 1.009-.127 1.777.502 2.514 1.103.422.369.782.807 1.067 1.296.975 1.475.777 3.462-.469 4.7-.305.3-.669.526-1.068.662q-.799.209-1.617.309"/><path fill="#6e1e3c" d="M47.484 60.163c.138-1.18.147-2.372.027-3.554a3.284 3.284 0 0 0-2.944 3.089c-.044.47.058.943.291 1.353a3.52 3.52 0 0 0 2.157 1.623q.303-1.243.469-2.511"/><path fill="#f01446" d="m49.493 114.669-36.328-.441c.626 7.279 7.479 38.787 7.479 38.787l23.152.637s5.001-33.207 5.281-35.232c.141-1.013.821-2.765.416-3.751"/><path fill="#ffc800" d="M28.511 117.261h3.368c1.071 5.967.186 12.706.125 18.764-.065 6.434.262 13.119-.502 19.51l-1.936.139c-1.216-.997-.528-6.643-.573-8.213a323 323 0 0 1-.171-10.321c-.005-6.535-.794-13.403-.311-19.879"/><path fill="#6e1e3c" d="m22.278 157.534 9.112 27.352-3.129.281-.071.833 8.765-.206s4.207-19.746 5.577-30.12z"/><path fill="#f0e6d2" d="M18.228 150.62c.58 2.143 1.985 7.286 2.692 8.838l21.562.259c.26-.894 1.729-6.805 2.075-8.76zM21.266 161.739c.188 1.07.537 2.096 1.032 3.033h19.704c.239-.957.416-1.933.53-2.919z"/><path fill="#6e1e3c" d="M11.139 114.228h39.494v4.044H11.139z"/><path fill="#f01446" d="M36.456 114.228h3.038v5.055h-3.038zM15.19 114.228h10.126v5.055H15.19z"/></svg>