<svg xmlns="http://www.w3.org/2000/svg" width="115.784" height="124.68" viewBox="0.162 -0.383 115.784 124.68"><path fill="#828278" d="M67.322 63.474c15.694 1.258 28.412 2.385 35.898 3.01 7.486.624 12.176.925 12.226 1.685.031.588-3.978.148-5.863.247.032.224-.122.705-.185 1.307-.221 2.103-4.212 2.507-7.076 2.592-5.93.176-20.528.05-36.475-.328 0 0-7.45.364-7.694-4.744s9.169-3.769 9.169-3.769"/><path fill="#3c3c32" d="M109.921 66.012c.767-.045.542.449-.302.741a8.4 8.4 0 0 1-1.804.387s.406 2.493-2.53 1.851c-1.353-.297-1.159-1.865.104-2.489 1.461-.71 4.122-.459 4.532-.49"/><path fill="#828278" d="M69.888 82.936c2.913 7.278 7.757 19.872 7.757 19.872s-3.324 2.201-5.462 3.405c-4-5.391-10.963-17.557-10.963-17.557s-5.985-8.878-.487-13.029c5.497-4.152 9.155 7.309 9.155 7.309"/><path d="M77.64 100.188c.172.117 6.075 17.342 6.345 18.138.068.206.167.404.28.674a3.3 3.3 0 0 0 .451-.369 52 52 0 0 0 1.222-1.559c.246-.387.65-.647 1.105-.71l.158.571c.03.209.089.414.176.606.239.378.532.719.789 1.088.257.368.451.611.257 1.02-.514 0-.694-.077-.87-.611a4.1 4.1 0 0 0-.902-1.232l-.677.553q.181.436.411.849.276.398.59.764l.1-.099c.248.616.221.697-.339.935-.193-.274-.383-.575-.604-.849a14 14 0 0 0-.708-.796l-.618.486c.496.853 1.114 1.496 1.416 2.318a.62.62 0 0 1-.834.135 6.9 6.9 0 0 0-1.096-1.869l-.735.584c.284.426.537.79.771 1.168.194.305.537.552.384 1.074l-.6.116c-.357-.566-.451-1.258-1.195-1.514l-.212.593.302.216.288.198c.028.166.064.341.082.516.067.593-.185.755-.803.495-.239-.535-.302-1.227-.902-1.438-.275-.418-.501-.759-.722-1.101-.451-.723-.902-1.456-1.353-2.179-.374-.588-.798-1.146-1.136-1.757-.496-.898-7.996-11.842-8.208-12.13.298-.283 7.283-4.731 7.387-4.884"/><path fill="#fff" d="m77.5 99.212-8.217 5.282 1.097 1.707 8.218-5.282zM79.323 102.296l-8.205 5.274 1.097 1.706 8.204-5.274zM80.873 105.594l-8.204 5.274 1.096 1.706 8.205-5.275z"/><path fill="#828278" d="M24.465 82.33c-2.913 7.278-7.806 20.217-7.806 20.217s3.323 2.202 5.461 3.406c4-5.392 9.425-14.732 9.425-14.732s7.451-10.828 2.075-15.572-9.155 6.681-9.155 6.681"/><path d="M16.663 99.932c-.171.117-6.075 17.342-6.345 18.138-.068.206-.167.404-.28.673a3.5 3.5 0 0 1-.451-.368 52 52 0 0 1-1.222-1.559 1.56 1.56 0 0 0-1.123-.737l-.158.571a2.2 2.2 0 0 1-.176.606c-.239.378-.532.719-.789 1.088-.257.368-.451.611-.257 1.019.514 0 .695-.076.871-.611.22-.463.526-.88.902-1.231l.676.553a9 9 0 0 1-.41.849q-.276.398-.591.764l-.099-.099c-.248.616-.221.696.338.935.194-.274.383-.575.604-.85.221-.274.451-.521.708-.795l.659.49c-.496.854-1.114 1.496-1.416 2.318a.62.62 0 0 0 .834.135 6.9 6.9 0 0 1 1.096-1.869l.735.584c-.284.427-.537.791-.771 1.168-.194.306-.537.553-.384 1.074l.6.117c.356-.566.451-1.258 1.195-1.514l.212.593-.302.215-.289.198c-.027.166-.063.342-.081.517-.067.593.185.755.803.494.239-.535.302-1.227.902-1.438.275-.418.501-.759.721-1.1.451-.724.902-1.456 1.353-2.179.375-.589.799-1.146 1.137-1.757.496-.899 7.996-11.843 8.208-12.131-.32-.278-7.306-4.721-7.41-4.861"/><path fill="#fff" d="m15.707 100.638 8.218 5.282 1.098-1.707-8.218-5.282zM13.864 103.946l8.217 5.281 1.099-1.708-8.218-5.282zM12.268 107.204l8.218 5.282 1.098-1.709-8.218-5.282z"/><path d="M.667 68.573c1.759-11.964 10.251-26.341 23.735-24.881q1.128.126 2.255.346c-3.22-5.297-6.738-10.464-9.633-15.806-2.539-4.681-9.687-16.331-9.687-16.331L12.063.669 17.7 4.3s21.133 33.399 27.267 43.436c4.884 7.974 9.565 15.531 10.724 25.127.965 7.975-1.227 15.348-7.874 20.218-3.351 2.457-6.887 3.041-10.891 4.043-6.9 1.726-14.048 2.979-20.38 0C4.437 91.441.5 80.497.667 68.573"/><path d="m72.657 42.852 7.08 14.857-27.979 1.178-6.823-15.784z"/><path fill="#824600" d="M52.268 44.451c.451 4.241 3.996 6.739 8.406 6.434 2.995-.207 5.759-2.525 5.841-5.706.076-3.059-3.23-5.634-5.976-6.258-3.067-.697-7.752.274-8.271 5.53"/><path fill="#a0640a" d="M50.672 56.263c.324 3.091 2.908 4.906 6.124 4.686 2.183-.153 4.194-1.838 4.253-4.156.054-2.246-2.354-4.102-4.352-4.556-2.233-.507-5.647.193-6.025 4.026"/><path fill="#824600" d="M64.774 52.417c.126 1.186 1.118 1.882 2.349 1.797a1.706 1.706 0 0 0 1.633-1.595c0-.853-.902-1.572-1.669-1.748-.861-.193-2.169.077-2.313 1.546"/><path fill="#a0640a" d="M47.673 50.287c.126 1.186 1.118 1.883 2.349 1.797a1.706 1.706 0 0 0 1.633-1.594c0-.854-.902-1.573-1.669-1.748-.861-.193-2.169.076-2.313 1.545M68.81 55.966c.126 1.186 1.118 1.883 2.35 1.797a1.706 1.706 0 0 0 1.632-1.604c0-.853-.902-1.572-1.668-1.747-.857-.184-2.17.085-2.314 1.554M69.554 49.506c.212 2.003 1.89 3.185 3.973 3.041a2.89 2.89 0 0 0 2.76-2.695c.036-1.447-1.524-2.66-2.823-2.957-1.448-.328-3.662.126-3.91 2.611"/><path fill="#828278" d="m46.22 47.731 24.425-.013 4.524 10.418 5.109-.566-6.697-15.72-30.197-.903z"/><path fill="#3c3c32" d="M48.935 1.348c3.879 5.84 9.99 15.042 13.8 20.963.799 1.231 10.589 15.024 14.829 23.241 6.764 13.119 8.798 23.255 8.442 30.101-.104 1.959-1.249 10.585-4.767 14.606-5.385 6.155-13.913 7.849-13.913 7.849l-38.951.607s15.018-3.738 19.261-10.284a29.34 29.34 0 0 0 4.37-14.004c.249-9.048-4.482-17.823-8.78-25.456-4.51-8.038-27.88-44.568-30.879-47.7zm2.485 54.12 25.075.049s-3.292-7.889-4.316-9.471l-25.706.027z"/><path d="M11.481.117c.902.076 37.802.121 38.722.224a2.32 2.32 0 0 1 1.551.661l.212.548-.081.58a2.06 2.06 0 0 1-1.691.597c-.902-.117-35.682-.117-36.602-.076zM13.578 2.651 8.32 13.671s-1.303.382-1.84-.422a3.1 3.1 0 0 1-.501-1.68L11.481.117z"/><path fill="#3c3c32" d="M11.324 75.811a17.03 17.03 0 0 0 6.16 8.536c3.364 2.408 7.482 3.284 11.342 2.026a12.2 12.2 0 0 0 7.049-6.2 16.57 16.57 0 0 0 .758-12.656 16.84 16.84 0 0 0-7.135-9.192c-3.157-1.914-6.44-2.831-9.922-1.689-7.012 2.3-10.958 11.047-8.252 19.175"/><path fill="#828278" d="M15.707 74.337a11.13 11.13 0 0 0 4.027 5.585 8.26 8.26 0 0 0 7.41 1.32 7.96 7.96 0 0 0 4.604-4.043 10.82 10.82 0 0 0 .492-8.267 11 11 0 0 0-4.663-6.006c-2.07-1.249-4.208-1.852-6.49-1.106-4.559 1.492-7.125 7.207-5.38 12.517"/><path d="m97.214 49.373-6.908 1.098.157.987 6.908-1.098zM94.166 56.595l-6.404-2.812-.402.916 6.404 2.811zM92.438 42.28l-5.062 4.827.69.723 5.062-4.825z"/><path fill="#3c3c32" d="M94.412 75.312s4.51-1.289 5.304-1.348c.793-.058.852.333-.045.679a7.5 7.5 0 0 0-1.904 1.285z"/><path fill="#828278" d="M28.492 78.43s-5.862.732-6.832-4.861c-.97-5.594 6.715-3.891 6.715-3.891 3.27.162 51.412 3.873 66.096 5.104 6.381.535 10.372.786 10.399 1.433s-4.888.611-4.888.611a3.1 3.1 0 0 1-2.345 2.642s0 .022-.059.036q-1.926.23-3.865.229c-11.207.337-65.221-1.303-65.221-1.303"/><path fill="#f01446" d="m94.259 80.259-1.412.049c-.108-.827-.221-3.203-.333-4.044.193-.049 1.398.054 1.632 0-.013.14.068 2.463.113 3.995"/><path d="M91.427 78.102c1.497.642 3.323.944 4.284-.62a2.24 2.24 0 0 0-.618-3.145c-1.61-1.087-3.265-.782-3.887.53a4.05 4.05 0 0 0 .221 3.235"/><path fill="#3c3c32" d="M92.41 77.19c.798.341 1.772.503 2.282-.332a1.185 1.185 0 0 0-.329-1.676c-.857-.58-1.741-.418-2.075.283a2.16 2.16 0 0 0 .122 1.725"/></svg>