<svg xmlns="http://www.w3.org/2000/svg" xml:space="preserve" width="119.504" height="126.579" viewBox="-0.149 -0.102 119.504 126.579"><title>Slice 1</title><g fill-rule="evenodd"><path fill="#281446" d="M79.604 112.225c-.187-.7-.337-1.406-.552-2.058s-2.437-6.413-2.721-7.094c-2.437-4.432 6.092-8.962 6.904-1.187.435 1.487.35 9.602.06 10.61-.324-.182-3.59-.27-3.69-.27"/><path fill="#f01446" d="M78.792 111.93c.211 3.451.727 6.425-.638 9.723h1.13c2.501-2.69 4.516-6.029 4.934-9.724a12.35 12.35 0 0 0-5.426 0"/><path fill="#f04650" d="M84.567 112.014a28 28 0 0 0 .126-1.499h-6.307l.089 1.5z"/><path fill="#281446" d="M83.597 122.204s-2.653.283-3.81 0c0-.037.54-.863.954-1.564H77.92c-.098.263-.195.527-.3.782-.075.21-.183.408-.322.583-.524.576-.45.665-.093 1.24l-.183 1.888c-.028 0 .065.284.13.405.48 0 .638-.089.63-.486 0-.58-.061-1.159-.102-1.795a5.6 5.6 0 0 1 .991-.304c.223.349.309.767.24 1.175a.81.81 0 0 0 .406 1.03l.406-.252c-.057-.373-.134-.705-.154-1.041s0-.693.02-1.037c1.044.036 1.174.21 1.048 1.142a9 9 0 0 0 0 1.102l.406.166c.329-.198.243-.45.235-.688-.024-.535-.195-1.09.232-1.564h.837c.138.72-.078 1.438.134 2.18l.572-.065v-2.163h.613zM82.207 116.159h-3.496l-.009-1.155h3.505z"/><path fill="#be0a3c" d="M82.256 119.376c-2.697.356-2.36-2.366-1.982-3.646.492-1.641.634-3.432 3.2-3.469 1.32 0 1.593 1.986 1.114 3.748-.451 1.677-1.593 3.103-2.332 3.367"/><path fill="#281446" d="M37.004 107.185c0 .101-.025.199-.029.308.014 1.574.2 3.142.557 4.675h4.837v-.077c.049-.522 2.733-10.36 3.062-11.664 0 0 1.19-4.38-3.614-3.35s-4.813 10.108-4.813 10.108"/><path fill="#f01446" d="M44.193 121.916c-1.093-2.836-.922-6.62-.695-9.541-2.77-.847-3.984-.628-6.844 0 .342 1.02 1.328 3.78 2.539 5.672 1.657 2.573 3.724 4.299 5.052 5.02l.272-.065c-.215-.32-.329-.7-.325-1.086"/><path fill="#281446" d="M40.403 115.004h3.505v1.151h-3.505z"/><path fill="#f04650" d="M44.188 112.553c.082-.911.2-1.989.203-2.106l-8.744-.187c.13.535.195 1.657.406 2.293z"/><path fill="#281446" d="M45.082 122.65c0-.041-.207-.625-.224-.66l-2.574.06q.43.522.727 1.13l-4.265.13s.04.482.061.603l.715.094c.406.587-.167 1.098.036 1.62l.378.154c.406-.142.358-.441.305-.733a1.66 1.66 0 0 1 .048-1.021l1.15-.122c.406.507-.207.98.101 1.524l.297.194c.406-.239.455-.316.353-.713a1.07 1.07 0 0 1 .094-.984h1.137l-.11 1.71c.138.275.309.429.654.287.158-.587-.134-1.41.158-2.026.321.077.732-.024 1.012.04-.037.317-.24 1.338-.268 1.621q.079.1.17.187.075.052.159.085c.47-.13.528-.203.52-.624v-1.499c.052-.012-.52-.827-.634-1.057"/><path fill="#be0a3c" d="M41.285 116.97c-.687-2.229-1.097-4.482-3.656-3.586v-.033c-1.515 1.362-.934 4.619.37 6.078 1.92 2.114 4.118.234 3.285-2.46"/><path fill="#281446" d="M97.414 104.155c-.634 1.11-1.288 3.326-3.412 2.507-4.695-1.806-6.498-15.561-6.608-15.52 0 0-1.194-1.305-2.266.79s.743 6.627.743 6.627l1.218 3.772c1.856 5.523 3.481 6.365 6.434 7.463 4.467 1.694 6.47-3.411 6.555-3.492z"/><path fill="#f04650" d="M103.234 87.28c-3.802 4.7-9.277 15.736-9.277 15.736l10.36 5.733c1.244-1.3 2.661-2.982 3.876-4.343a75 75 0 0 0 5.166-6.199c.812-1.13 4.033-4.643 2.94-6.199-1.564-2.228-5.357 4.61-6.283 4.105-.926-.507 4.244-6.637 2.697-8.103-2.437-2.346-6.259 4.8-7.4 4.642-.63-1.073 2.94-4.306 3.038-5.992.231-4.124-3.887-.899-5.117.62"/><path fill="#f01446" d="M95.253 86.883c-4.468-.13-.837 13.536-.46 15.756l6.88 4.457c1.78-1.896 3.656-4.457 3.81-7.11.244-3.955-2.843-5.291-6.035-6.312.134-2.573-1.161-6.702-4.195-6.79"/><path fill="#be0a3c" d="M94.376 101.469c2.469 1.215 4.601 2.868 6.94 4.314 1.73 1.07 5.443 2.468 2.632 4.647-2.631-.656-5.007-2.066-7.237-3.573-2.03-1.373-5.585-3.05-2.335-5.388"/><path fill="#281446" d="M18.504 104.155c.633 1.11 1.287 3.326 3.412 2.507 4.694-1.806 7.424-10.533 7.521-10.497 0 0 1.475-4.01 3.128-1.96s-.407 5.343-.407 5.343-2.55 3.776-4.613 6.413a14.6 14.6 0 0 1-5.158 3.845c-4.468 1.694-6.47-3.411-6.555-3.492z"/><path fill="#f04650" d="M23.524 102.607c-2.705-4.355-7.31-13.674-7.31-13.71-1.272-1.807-2.77-4.457-4.874-5.316s-2.823.231-2.494 2.196a9.2 9.2 0 0 0 1.308 2.921c-.139-.214 2.242 1.941.467 1.597S7.103 85.4 4.626 87.21c-.114 2.65 1.218 4.457 2.843 6.426-.045.405-.22.547-.585.527-1.186-1.118-3.4-4.21-5.28-4.117-3.322.163 1.012 6.552 1.012 6.552s5.775 9.504 9.97 11.866z"/><path fill="#f01446" d="M18.683 92.64c-.78-2.025-.143-6.3 2.307-6.352 2.936-.061 2.64 4.315 2.579 6.482-.106 3.646.345 8.82-3.022 10.939-1.316.834-3.132 2.601-4.634 2.933-1.678.369-2.388-1.54-3.168-2.994-1.251-2.337-1.479-4.643-.366-7.094 1.43-3.136 3.432-2.909 6.304-3.914"/><path fill="#be0a3c" d="M23.231 100.561c.91 1.54 1.88 2.43.569 4.116-1.056 1.386-7.684 5.04-9.297 5.522-2.351.697-2.843-.433-3.72-2.463q.355-.195.678-.437a132 132 0 0 1 5.954-3.712c1.674-.972 3.948-2.759 5.816-3.026"/><path fill="#f04650" d="M98.843 16.498c-.475-5.178-.881-10.972-6.389-13.29-5.746-2.43-9.373.811-11.315 6.171-1.722 4.769-2.286 10.007-3.066 14.99-.366 2.342-1.803 13.22-4.93 15.157-2.572-1.037-1.747-14.905-1.99-18.446-.472-6.888.34-16.785-7.234-19.852C60.243-.267 55.414.304 52.14 2.573c-3.51 2.43-3.842 7.499-3.964 11.425-.207 6.737 1.218 13.775 2.27 20.423.223 1.438 1.328 7.09-1.625 7.066-1.929 0-6.29-15.926-7.347-19.127-1.02-3.083-2.388-7.163-4.617-9.578-6.328-6.85-14.622.624-16.035 7.743-1.547 7.855 1.137 16.485 2.806 24.094 1.889 8.617 3.339 17.295 5.28 25.88 1.036 4.623 2.592 19.253 3.327 21.27l49.744 2.836c.979-2.256 1.17-5.23 1.698-7.616l3.655-16.547c1.75-7.965 2.924-16.371 5.337-24.166 1.66-5.365 3.326-10.514 4.313-16.068.698-4.177 2.25-9.477 1.86-13.71"/><path fill="#f01446" d="M118.74 43.865c-.081-.652-.382-2.123-.3-2.24-2.669-11.652-14.565-5.697-19.455.632-2.62 3.387-7.055 7.543-11.323 8.532-4.72 1.094-10.032-.405-14.885.028-10.49.96-18 7.941-20.754 17.883-1.397 5.049-1.706 10.404-1.942 15.619-.117 2.637-.954 6.235-.576 8.8l33.125.226c6.876-6.255 13.646-12.43 20.128-19.086 4.021-4.133 7.44-8.82 10.719-13.552 3.175-4.595 5.986-11.162 5.263-16.842"/><path fill="#be0a3c" d="M88.426 89.679s-27.647-.353-35.006-.381v18.418c11.97.053 34.413-.758 34.413-.758z"/><path fill="#281446" d="M41.865 108.737c-3.598-.13-7.656.134-11.124-.912-.28-2.621-.69-19.6-.69-19.6s19.933.506 20.104.25c5.641 0 16.164.098 17.277 7.484.516 3.431-.707 7.855-3.338 10.185-2.876 2.544-6.828 2.495-10.426 2.836-.02.004-7.88-.101-11.803-.243"/><path fill="#f01446" d="M52.32 106.014c-3.055-.142-6.093-.117-9.147-.215-2.798-.093-11.664-.275-14.365-1.012-.22-1.844-.208-13.536-.208-13.536s20.889.462 21.023.283c4.39 0 12.59.07 13.443 5.267.406 2.431-.552 5.534-2.6 7.171-2.237 1.791-5.312 1.755-8.122 1.998z"/></g></svg>