<svg xmlns="http://www.w3.org/2000/svg" width="89.052" height="138.403" viewBox="0 0 89.052 138.403"><g fill="none" stroke-miterlimit="10" data-paper-data="{&quot;isPaintingLayer&quot;:true}" font-family="none" font-size="none" font-weight="none" style="mix-blend-mode:normal" text-anchor="none"><g data-paper-data="{&quot;origPos&quot;:null}"><path fill="#ff9cd1" d="M29.673 85.086c2.046.666 2.832 3.3 2.183 5.48-1.637 5.372-1.501 8.78-2.32 14.37-.818 5.593-2.217 9.925-.545 15.26.785 2.559 3.276 2.964 2.456 5.48-.717 2.298-3.071 2.593-5.323 2.372-1.09-11.704-4.81-16.184-3.411-28.89.34-3.26-1.194-8.925.409-11.701 1.433-2.483 3.991-3.221 6.55-2.37" data-paper-data="{&quot;origPos&quot;:null}"/><path fill="#272525" d="M24.42 88.64c-.134 2.598-.92 6.59-1.111 9.193-.686 9.312 1.088 17.39 3.007 26.35.17.797-.145 2.113.794 2.401 1.797.557 3.228-3.072 2.715-4.58-4.47-2.42.001-27.697 1.027-32.279.623-.355 1.212.119 1.797.318-1.04 3.628-4.988 27.032-3.033 30.42 1.257.624 4.249.975 4.667 2.617 1.774 6.962-5.939 17.203-10.183 15.025-1.375-.708.998-9.623 1.137-11.17.506-5.632-1.851-9.795-2.641-15.408-.875-6.222-1.113-12.891-.43-22.301.208-1.756-.513-1.36 2.253-.586" data-paper-data="{&quot;origPos&quot;:null}"/><path fill="#ff5ba1" d="M25.207 137.01c-.321-1.01.393-2.725.522-3.709 2.508 1.428 5.17-4.653.878-5.216v-.637c2.519.968 5.363-1.526 4.513-5.034.607.115 2.036.82 2.206 1.558.768 3.333-1.773 12.074-8.12 13.039" data-paper-data="{&quot;origPos&quot;:null}"/><path fill="#ff9cd1" d="m26.023 132.12.501-2.631c1.737-.514 1.727 2.957-.5 2.63" data-paper-data="{&quot;origPos&quot;:null}"/></g><path fill="#ff9cd1" d="M49.463 81.83c2.423-.115 3.752 1.406 5.458 3.256 4.266 4.631 5.799 8.115 9.964 12.888 2.457 2.814 8.12 9.111 10.988 10.815 3.705 2.204 4.912 4.852 2.865 5.482-2.287.703-4.641.886-7.166-.444.89-3.336-3.513-5.816-6.55-8.741-2.491-2.371-13.851-13.556-21.154-17.334-1.264-2.74 2.83-5.779 5.595-5.921" data-paper-data="{&quot;origPos&quot;:null}"/><path fill="#272525" d="M54.87 84.365c4.516 5.205 18.646 24.593 24.892 25.904 2.411.504 6.655 2.051 8.837 4.165 2.733 2.647-7.367 8.722-17.548 2.403-1.562-.969-.505-3.833-.294-5.67C65.382 105.6 50.668 92.05 44.55 88.489c1.004-.304 1.544-1.245 2.59-.545 5.616 3.759 18.65 16.083 23.408 21.135.703.745 2.377 1.637 2.13 2.857 2.353 1.352 4.072 3.551 5.099-.68-.54-.499-1.201-.694-1.796-1.088-6.891-4.584-16.98-19.71-23.493-25.399.001.005 1.595-.202 2.383-.403" data-paper-data="{&quot;origPos&quot;:null}"/><path fill="#ff5ba1" d="M80.993 115.84c2.863.796 2.794-1.352 3.218-2.266 1.078.471 3.925 1.217 3.3 1.88-5.323 5.629-11.26 2.516-14.746.612-.518-.794-.701-1.759-.585-2.722 2.306 1.896 6.714 2.673 6.894-1.722 1.621.864-1.678 3.213 1.92 4.218" data-paper-data="{&quot;origPos&quot;:null}"/><path fill="#ff9cd1" d="M83.242 113.084c-.682 1.999-1.57 1.777-2.455 1.259-.628-.728-.086-1.316-.086-2.178z" data-paper-data="{&quot;origPos&quot;:null}"/><path fill="#ff5ba1" d="M27.765 45.383c0-2.776 3.309-3.073 5.867-3.258 2.969-.221 4.64-.593 7.61-.593v19.59c3.445 1.223 5.97.37 8.903 2.63 1.879 1.443 2.695 2.851 4.915 3.556 2.83.89 5.05 1.889 6.005 4.89.92 2.85-1.878 4.368-2.185 7.405-.616 6-8.36 3.444-12.285 7.703-1.943 2.114-4.809-1.108-7.572-.739-2.868.372-3.448 2.703-6.211 3.483-2.56.74-3.616-1.704-6.278-1.704-2.73 0-4.266.74-6.96.296-2.867-.442-2.697-4.406-4.778-6.665-2.08-2.261-5.356-.15-7.097-2.668-2.223-3.217-1.56-8.281 1.228-11.185 1.192-1.241 3.411-1.456 4.913-2 1.118-.402 2.722-.251 3.617-.887 1.508-1.074 2.17-3.022 3.617-3.706 1.659-.783 3.6-.444 5.87-.444 0-6.11.819-9.592.82-15.704" data-paper-data="{&quot;origPos&quot;:null}"/><path fill="#cf8c6e" d="M27.217 49.532c-3.343-.37-6.142-4.555-7.916-9.037-1.98-4.925-4.13-6.814-5.118-12.073-.58-3-1.228-4.703-1.433-7.777-.103-1.63.069-3.037-.82-4.296-1.535-2.186-2.387-2.742-3.274-5.333-.342-1.036-.887-3.332.137-3.332.955 0 1.16.814 1.91 1.407.956-2.113.205-4.297 1.912-5.778 1.023.89 1.638 2.037 1.843 3.482.99-.78 2.253-2.236 2.253-.89 0 .89-.138 2.852-.616 4.148.902 0 2.336-.207 2.388.518.125 1.715-2.184 4.793-2.184 7.112 0 3.85.444 6.259 2.184 9.628C22.1 34.348 25.956 40.2 33.36 40.2c7.37 0 12.728-6.11 13.92-13.999.546-3.63.614-6.962.206-10.666-.273-2.556-3.004-1.63-4.436-3.63-.374-.517.129-1.482 1.092-1.777.62-.19 1.644.15 2.047.223.545-1.777-1.434-3.519-1.775-5.333-.204-1.074.102-2.111 1.091-1.851.715.186.852.926 1.228 1.629 0-1.666-.035-4.223 1.503-3.998 1.33.185 1.74 2.258 1.842 3.703 1.092-.926.956-1.926 2.389-1.926.34 4.778-2.185 7.074-2.047 11.852.136 4.85.68 7.592.68 12.444 0 9.778-1.978 17.333-9.553 22.814.648-2.185.138-3.592-.136-5.889-1.682.518-1.87 2.515-2.661 4.038-.911 1.752-2.41 3.027-4.436 3.185-2.678.21-3.89-2.815-4.777-6.147-.591-.922-1.21-.981-2.32-1.112.647 2.143 0 3.512 0 5.773" data-paper-data="{&quot;origPos&quot;:null}"/><path fill="#272525" d="M50.382 3.052c.352-.717 1.265-1.962 2.29-.852 1.032 1.122-.546 7.888-2.206 10.738 1.72 9.29 2.342 30.593-7.687 36.915-.068 3.075.655 14.298-.501 16.417-.218.403-.772.445-1.127.634-1.361-.278-.797-2.378-.71-3.445.629-7.84 1.013-13.823.5-21.767.264-.514.774-.243.919.18.13.382.666 5.003.71 5.67 7.781-5.047 8.872-25.195 6.963-34.898.954-2.334 3.475-8.096 2.145-8.639-1.327-.545-.68 2.993-2.076 4.826-.045-2.336.252-7.344-1.308-7.32-1.558.024.847 7.105-.332 8.07-.376-.339-.854-5.909-2.507-5.44-1.651.467 2.052 4.602 1.63 7.165-1.088.39-3.033-1.845-3.3.318.263.711 1.057.992 1.672 1.225 1.227.466 1.628-1.12 2.236.76 2.299 7.09-.763 19.919-5.245 25.68l-.501-.226c-.316-2.583 7.881-12.35 4.826-24.786-2.29-.639-5.425-1.557-3.822-4.466.304-.553.956-.793 2.339-.227.21-2.175-2.533-4.07-1.004-6.439.779-1.206 1.701-.562 2.382.317.034-1.152.398-3.233 1.712-3.446 1.618-.266 1.682 2.857 2.002 3.036M14.593 6.127c.58-1.557 2.269-1.573 2.614-.582.215.611-.171 2.653-.669 3.803.614-.48 1.118-.94 1.673-.627 2.678 1.51-1.412 6.206-1.505 7.71-.345 5.635 2.59 12.393 6.016 16.416 1.287 1.512 2.963 2.723 4.094 4.354.05.478.033 1.057-.416 1.315-.618-.15-1.382-.888-1.882-1.315-6.061-5.194-9.16-14.135-9.149-22.312.92-1.025 3.23-3.672 2.13-4.217-1.099-.546-1.472 1.814-2.215 2.72-1.276-.216 2.103-7.6.585-7.21-1.517.39-2.281 4.848-2.37 5.723 0 0 .878-8.369-.72-7.128-1.6 1.241-.25 6.932-.587 7.619 0 0-2.13-4.914-2.956-3.786-.828 1.126 2.19 6.21 4.127 7.686.286 10.267 5.8 28.497 13.37 31.926.26-2.653.267-5.318.377-7.98.22-.165.301-.564.626-.409 1.341 4.445.65 20.758-.71 25.441-1.154-.112-1.282-.784-1.129-1.815.56-3.748.97-8.868.835-12.653-8.112-5.545-14.598-23.284-14.456-33.514-2.67-2.26-4.807-5.728-4.22-9.57.22-1.44 1.264-2.568 2.299-.997l.62 1.141c.035-1.851.54-3.82 1.01-4.406.63-.788 1.974-.671 2.298.363.168.538.412 1.192.31 2.304M40.27 42.96c-.254 3.344-.63 6.947-3.927 8.3-1.397.573-3.772.258-5.014-.68-1.925-1.453-2.243-5.308-2.133-7.566.16-.348 1.094-.76 1.296-.073-1.664 6.113 7.629 12.023 8.652-.296.398-.106.793.102 1.126.316" data-paper-data="{&quot;origPos&quot;:null}"/><path fill="#272525" d="M25.103 60.828c.12 2.314-2.524.137-3.801 1.86-3.818 5.145-6.314 2.326-10.236 5.124-1.702 1.214-3.101 3.203-3.301 5.442-.223 2.501.714 5.13 2.715 6.531 1.514 1.062 4.137.02 5.223 1.952 1.042 1.851 2.897 5.859 5.098 5.985 2.645.15 5.17-2.202 7.728-.451 1.872 1.275 2.877 2.287 5.224 1.541 2.326-.739 3.945-4.095 6.602-2.857 1.897.885 3.504 1.77 5.43.362 1.136-.83 1.75-2.236 3.094-2.722 2.71-.976 8.227.381 8.314-2.722.071-2.546 2.618-3.378 3.007-5.987.388-2.586-.503-4.405-2.38-5.985-2.164-1.822-5.385-.68-7.329-2.636-.433-.437-.559-.952-.9-1.401-1.04-1.361-4.076-2.24-5.642-2.177-.382-.428.03-.993.209-1.405 1.801-.995 4.26-.097 5.933.862 1.862 1.069.808 3.238 6.016 4.218 3.12.587 7.073 3.094 6.894 7.3-.136 3.192-3.665 3.219-3.801 7.3-.047 1.388-1.298 3.476-2.591 3.811-2.92.756-5.6-.374-8.25 1.978-.586.523-.893 1.21-1.402 1.738-2.314 2.407-5.79-2.691-8.397-.996-1.452.945-2.107 2.078-3.803 2.631-3.45 1.122-3.695.081-6.726-1.089-1.96-.756-9.058 3.198-12.66-2.402-.856-1.332.354-3.963-1.587-4.671-1.902-.692-3.88 1.015-5.809-.684-4.87-4.281-2.239-14.497 3.72-16.096 1.682-.453 3.367.345 4.89 0 1.734-.395 1.972-3.778 4.135-4.582.75-.277 3.962-.565 4.383.228M20.2 32.939a3.05 3.05 0 0 1-.924-3.037c.312-1.222 1.696-.593 2.064-1.777.298-.964.013-1.741.38-2.667.53-1.315 1.589-1.667 2.66-1.333 2.105.667 1.439-2.056 3.477-3.037 1.846-.888 2.606.908 3.475 1.038 1.127.166 1.52-1.705 3.475-1.705s2.254 1.871 3.382 1.705c.868-.13 1.63-1.926 3.475-1.038 2.038.98 1.371 3.704 3.477 3.037 1.071-.333 2.129.018 2.66 1.333.365.927.081 1.704.38 2.667.366 1.185 1.751.556 2.064 1.777a3.06 3.06 0 0 1-.923 3.037zM48.184 37.223c-.625-1.048-.236-2.528.87-3.307 1.106-.78 2.51-.564 3.136.482.627 1.048.236 2.527-.87 3.307s-2.51.563-3.136-.482" data-paper-data="{&quot;origPos&quot;:null}"/><path d="M48.184 37.223c-.625-1.048-.236-2.528.87-3.307 1.106-.78 2.51-.564 3.136.482.627 1.048.236 2.527-.87 3.307s-2.51.563-3.136-.482M18.21 37.705c-1.107-.78-1.496-2.26-.87-3.307.627-1.046 2.03-1.262 3.136-.482s1.495 2.26.87 3.307c-.626 1.045-2.03 1.262-3.136.482" data-paper-data="{&quot;origPos&quot;:null}"/><path d="M18.21 37.705c-1.107-.78-1.496-2.26-.87-3.307.627-1.046 2.03-1.262 3.136-.482s1.495 2.26.87 3.307c-.626 1.045-2.03 1.262-3.136.482" data-paper-data="{&quot;origPos&quot;:null}"/><path fill="#272525" d="M47.827 27.644c.19-.928 2.5-2.057 3.21-1.864.902.243 2.221 3.747 1.548 4.656-.561.762-3.146 1.029-3.728.713-.89-.484-1.105-3.144-1.03-3.505" data-paper-data="{&quot;origPos&quot;:null}"/><path fill="#272525" d="M51.647 26.718c1.707-2.963 3.429.184 5.186-1.11 1.006-.742 2.064-1.02 3.138-.371.802.482 1.057 1.223 1.98 1.408 2.388.517 3.05-1.374 5.05.074 1.024.74 1.415 3.813.478 4.37-.939.555-2.186.686-2.186 1.85 0 .926.293 1.631-.204 2.372a2.692 2.692 0 0 1-4.025.52c-1.246-1.095-.87-2.964-2.32-3.704-.718-.351-4.095 4.294-6.075-.224-.3-.687.308-1.184.136-1.925-.153-.703-1.925-1.278-2.183-1.926-.254-.612.411-1.186 1.025-1.334" data-paper-data="{&quot;origPos&quot;:null}"/><path fill="#ff9cd1" d="M48.321 27.866c.068-.333 1.842-1.333 2.252-1.221.41.11 1.4 2.925 1.125 3.295-.273.37-2.422.667-2.762.483-.342-.187-.684-2.225-.615-2.557" data-paper-data="{&quot;origPos&quot;:null}"/><path fill="#272525" d="M16.027 29.828c.205 1.222.852 2.406-.069 3.11-1.552 1.185-3.002 0-4.913 0-2.491 0-3.036 3.481-5.528 3.481-.683 0-1.4-.185-1.57-.888-.188-.777.187-1.461-.273-2.074-.443-.573-1.074-.147-1.774-.147C.723 33.05-.25 31.848.057 30.57c.307-1.277 1.297-1.702 2.457-2.073 1.212-.389 2.116.166 3.207-.519 1.144-.722 1.43-1.641 2.32-2.665 1.16-1.334 2.44-1.334 3.822-.667.785.37 1.194.888 2.048.814 1.858-.147 4.06-.055 4.435 1.925.205 1.13-2.509 1.315-2.319 2.444" data-paper-data="{&quot;origPos&quot;:null}"/><path fill="#272525" d="M20.607 31.149c-.583.316-3.167.049-3.729-.713-.672-.91.647-4.413 1.548-4.656.714-.193 3.02.936 3.21 1.864.076.36-.14 3.021-1.029 3.505" data-paper-data="{&quot;origPos&quot;:null}"/><path fill="#ff9cd1" d="M20.529 30.423c-.341.184-2.492-.112-2.765-.483-.272-.37.718-3.185 1.127-3.295.41-.112 2.183.888 2.251 1.22.068.333-.273 2.37-.613 2.558" data-paper-data="{&quot;origPos&quot;:null}"/><path fill="#cf8c6e" d="M49.004 34.921c.727-.513 1.627-.413 2.004.221.38.635.099 1.566-.627 2.077-.73.513-1.625.414-2.004-.22-.38-.637-.1-1.566.627-2.078" data-paper-data="{&quot;origPos&quot;:null}"/><path d="M48.184 37.223c-.625-1.048-.236-2.528.87-3.307 1.106-.78 2.51-.564 3.136.482.627 1.048.236 2.527-.87 3.307s-2.51.563-3.136-.482" data-paper-data="{&quot;origPos&quot;:null}"/><path fill="#272525" d="M18.21 37.705c-1.107-.78-1.496-2.26-.87-3.307.627-1.046 2.03-1.262 3.136-.482s1.495 2.26.87 3.307c-.626 1.045-2.03 1.262-3.136.482" data-paper-data="{&quot;origPos&quot;:null}"/><path fill="#cf8c6e" d="M21.155 36.998c-.38.635-1.277.734-2.004.221-.726-.511-1.008-1.442-.63-2.077.38-.634 1.28-.734 2.005-.22.727.511 1.008 1.44.629 2.076" data-paper-data="{&quot;origPos&quot;:null}"/><path fill="#272525" d="M19.71 35.532c0-5.44 6.752-9.85 15.081-9.85s15.082 4.41 15.082 9.85-6.752 9.851-15.082 9.851c-8.329 0-15.081-4.41-15.081-9.85" data-paper-data="{&quot;origPos&quot;:null}"/><path fill="#cf8c6e" d="M48.301 35.532c0 3.822-5.251 8.814-13.51 8.814-8.255 0-13.508-4.992-13.508-8.814s5.253-8.145 13.508-8.145c8.257 0 13.51 4.324 13.51 8.145" data-paper-data="{&quot;origPos&quot;:null}"/><g fill="#272525" data-paper-data="{&quot;origPos&quot;:null}"><path d="M34.582 35.333h-.042c-1.228.017-1.468.82-1.55 1.174-.083.358-.906.468-.971-.01-.035-.245.474-2.003 2.524-2.026h.037c2.052.021 2.558 1.78 2.524 2.027-.066.477-.89.367-.973.009-.083-.355-.322-1.158-1.549-1.174M30.199 38.137c2.685 1.942 5.887 1.995 8.526.144.18-.127.539.335.398.623-1.442 2.94-7.677 2.594-9.311.035-.182-.285.175-.955.387-.802M43.631 32.369c-1.371 1.64-3.922 2.467-5.244.775-.588-.754.451-1.711 1.041-.958.947 1.21 2.804.95 3.785-.227.251-.303.669.106.418.41M25.978 31.96c.983 1.175 2.838 1.437 3.785.226.588-.752 1.63.204 1.04.958-1.32 1.692-3.872.865-5.242-.775-.253-.304.165-.713.417-.41" data-paper-data="{&quot;origPos&quot;:null}"/></g><g fill="#272525"><path d="M39.367 62.765c.363.016.578.21.402.877-1.721 1.862-9.508.354-11.657-.544-.17-.248-.236-.582-.084-.862 2.473.56 9.356 1.148 11.339.529M39.143 66.814c.417 0 .96-.046 1.128.453.042.634-.46.952-.92 1.179-4.177.407-8.69.499-12.116-1.723 0-.361 0-.816.376-.907 3.51 1.543 7.604 1.543 11.532.998M25.103 67.45c-.748.65-1.901.126-2.59.907-1.639 1.86-1.156 5.84-4.43 5.986-1.528.067-2.625-1.855-4.219-1.224-1.511.594-2.228 5.068-4.095 3.584-.457-.365-.501-1.463-.208-1.952 3.265-5.451 8.018-1.107 9.818-3.901 2.856-4.431 4.78-5.392 5.724-3.4M43.654 67.903c2.938-.783 2.258 4.729 4.012 5.351 1.487.527 3.175-.475 5.306.406 3.398 1.407 2.368 7.618 0 5.034-.651-.711.246-3.03-1.17-3.627-1.729-.73-6.14 1.654-6.936-1.18-.472-1.683 1.048-3.763-1.212-5.984M18.88 83.234c.952-3.387 6.052-3.624 6.517-6.94.21-1.508.181-5.8 5.012-6.757-.668.216-2.814 2.537-3.3 4.262-.527 1.862 1.101 4.109-.878 5.444-1.426.962-3.126.756-4.01 2.586-.456.934-.416 2.434-1.504 2.855-.53.205-2.235-.044-1.838-1.45M38.933 84.456c-2.082-1.146 1.203-2.796-.167-4.036-.968-.879-3.867-2.272-2.924-4.125.706-1.389 1.535-3.347.919-5.036-.119-.32-.365-.465-.418-.862.153-.281.455-.252.71-.315 5.28 3.202-1.557 6.622 2.506 8.93 2.736 1.561 2.655 5.196-.626 5.444" data-paper-data="{&quot;origPos&quot;:null}"/></g></g></svg>