<svg xmlns="http://www.w3.org/2000/svg" width="212.615" height="147.24" viewBox="0.235 0.01 212.615 147.24"><path fill="#fcf6ec" d="m112.95 37.2 87.8-36c9.4-3.9 15.8 9.8 6.8 14.5l-63 33.2c-9.9 5.2-22 2.2-28.3-7z"/><path fill="#e1d9ca" d="m124.65 44.3-.6 4.6.5.2.7-4.8 6.9-2.8 5.9 4.6-.7 5.1c.2 0 .3 0 .5-.1l.7-5 7-2.8 3.9 3.1.5-.3-4.2-3.1 1-7.5 6.9-2.8 5.9 4.6-.5 4 .5-.3.5-3.7 7-2.9 2 1.5.5-.3-2.1-1.7 1-7.5 6.9-2.8 5.9 4.6-.2 1.3.5-.3.1-.9 7.2-3 1.1-7.7 7-2.9 4.9 3.8.5-.3-5.1-4 .9-6.9 7.3-3v.2l5.6 4.3-.4 4.2c.3-.4.5-.8.7-1.3l.4-3.1-6-4.7.4-2.9-.5-.1-.4 2.8-7.1 2.9-3.3-2.6-.9.4 3.9 3-1 7.1-6.9 2.8-5.8-4.5.6-4.7-.7.3-.6 4.2-7 2.9-3.4-2.6-.9.4 3.9 3-1 7.1-7 2.8-5.9-4.6.6-4.5-12 4.9 3.6 2.8-1 7.5-6.9 2.8-5.7-4.6.6-4.7-.6.3-.6 4.3-7 2.9-3.4-2.6-.9.4 3.9 3.1-1 7.1-6.9 2.8-5.9-4.6.6-4.6-.5.1-.6 4.6zm52-27.8 7.3-3v-.1l5.6 4.3-1 7.5-6.9 2.8-5.9-4.6zm-21.6 8.3 6.9-2.8 5.9 4.6-1 7.5-6.9 2.8-5.9-4.6zm-21.7 9.4 7.3-3v-.1l5.6 4.3-1 7.5-6.9 2.8-5.9-4.6z"/><path fill="#758a72" d="m112.95 37.2 87.8-36c3.5-1.4 6.6-.4 8.6 1.7l-93.6 38.3z"/><path fill="#1a252e" d="m198.35 7.3-.5.3-1.9-4.4.5-.2zM185.85 12.5l-.5.2-1.9-4.4.5-.2z"/><path fill="#fcf6ec" d="m102.65 36.6-91.8-24C.95 10-3.55 24.4 6.05 27.9l66.8 24.5c10.5 3.8 22.1-.8 27.2-10.8z"/><path fill="#e1d9ca" d="m78.95 48.8 5.3-5.4 7.3 1.9 1.2 4.7.4-.3-1.2-4.5 5.5-5.6-1.3-4.6-.6-.1 1.3 4.6-5.3 5.3-7.2-1.8-1.9-6.9 3.6-3.7-.9-.2-3.1 3.2-7.3-1.9-1.2-4.3-.7-.2 1.3 4.7-5.1 5.3-7.3-1.9-2-7.3 3.3-3.4-12.7-3.3 1.3 4.6-5.3 5.3-7.2-1.9-1.9-6.9 3.6-3.7-.9-.2-3.2 3.2-7.3-1.9-1.2-4.3-.7-.2 1.3 4.7-5.1 5.3-7.2-1.9-1.9-6.9 3.6-3.6-.9-.2-3.1 3.2-7.5-2-.8-2.8c-.1.1-.3.1-.5.2l.8 2.9-5.3 5.4.8 3.1c.2.4.5.8.8 1.2l-1.1-4.1 5-5v.1l7.7 2 1.8 6.7-4.5 4.6.5.2 4.3-4.4 7.3 1.9 2.1 7.5 7.5 2 .2.9.6.2-.3-1.3 5.3-5.4 7.3 1.9 2 7.3-1.9 1.9.5.2 1.8-1.8 7.3 1.9 1 3.6.6.2-1.1-3.9 5.3-5.4 7.3 1.9 2 7.3-3.7 3.7.5.2 3.5-3.5 7.3 1.9 1.3 4.9h.5zm-45.6-12.2-7.3-1.9-2-7.3 5-5v.1l7.7 2 1.8 6.7zm22.6 5.9-7.2-1.8-2-7.3 5.3-5.3 7.3 1.9 2 7.3zm15.4 4.1-2-7.3 5-5v.1l7.7 2 1.8 6.7-5.3 5.4z"/><path fill="#758a72" d="m102.65 36.6-91.8-24c-3.7-1-6.6.5-8.4 2.8l98 25.6z"/><path fill="#1a252e" d="m15.35 13.7.5.2-1.3 4.6-.5-.2zM28.35 17.1l.5.2-1.3 4.6-.5-.2z"/><path fill="#fbf4e9" d="m112.25 74.85 1.6-17.7 92 8.3c8.6.8 8.7 13.4.1 14.3l-80.5 8.3c-3.6.4-7.1-.9-9.7-3.4s-3.9-6.2-3.5-9.8"/><path fill="#e1d9ca" d="M209.85 67.05c-.1-.1-.3-.2-.4-.3l-2.4 3.4-7.5-.7-2.2-4.8h-.6l2.3 5-4.3 6.2-7.4-.7-3.2-6.8 3.2-4.5h-.6l-3 4.3-7.5-.7-2.2-4.8-.6-.1 2.3 5-4.3 6.2-7.5-.7-3.2-6.8 3.2-4.5-.6-.1-3 4.3-7.5-.7-2.1-4.8-.6-.1 2.3 5-4.3 6.2-7.4-.6-3.2-6.8 3.2-4.6-.6-.1-3 4.3-7.5-.6-1.7-3.8h-.5l1.8 3.9-4.3 6.2-7.5-.7-3.2-6.7 1.3-1.8h-.6l-1.2 1.7 3.3 7.1-4.5 6.4 3.2 7.1-.8 1.2.4.4.9-1.3 7.5.7 2.1 4.5.5-.1v-.1l-2.1-4.6 4.3-6.2 7.5.7 3.2 6.8-1.5 2.1.7-.1 1.2-1.7 7.5.7.1.2.5-.1-.1-.3 4.3-6.2 7.5.7 2 4.4.5-.1v-.1l-2.1-4.5 4.3-6.2 7.5.7 3.2 6.8-1.4 2 .7-.1v-.1l1.1-1.6 7.5.7v.1l.5-.1v-.1l-.1-.2 4.3-6.2 7.5.7 2 4.2.5-.1-2-4.4 4.3-6.2 7.5.7 3.2 6.8-.3.5c.3-.2.5-.5.7-.8l-3.1-6.7zm-81.8 9.8-4.3 6.2-7.4-.7-3.2-6.8 4.3-6.2 7.5.7zm12.2-5.7-4.3 6.2-7.5-.7-3.1-6.8 4.3-6.2 7.5.7zm11 7.8-4.3 6.2-7.5-.7-3.2-6.8 4.3-6.2 7.5.7zm12.3-5.7-4.3 6.2-7.5-.7-3.2-6.8 4.3-6.2 7.5.7zm23.3 2.1-4.3 6.2-7.5-.7-3.2-6.8 4.4-6.2 7.5.7z"/><path fill="#758a72" d="m205.75 65.35-92-8.2-.4 5 98.8 8.9c-.6-3.1-3.2-5.5-6.4-5.7"/><path fill="#1a252e" d="M197.75 64.65h.4l-.4 5h-.5zM182.85 63.35h.5l-.5 5h-.4z"/><path fill="#fbf4e9" d="m103.55 74.85-1.6-17.7-92 8.3c-8.6.7-8.7 13.3-.1 14.2l80.4 8.3c3.6.4 7.1-.9 9.7-3.4s3.9-6.1 3.6-9.7"/><path fill="#e1d9ca" d="m8.25 70.45-3.1 6.7c.2.3.5.5.7.8l-.3-.5 3.2-6.8 7.5-.7 4.3 6.2-2 4.4.5.1 2-4.2 7.5-.7 4.3 6.2-.1.2v.1l.5.1v-.1l7.5-.7 1.1 1.6v.1l.7.1-1.4-2 3.2-6.8 7.5-.7 4.3 6.2-2.1 4.5v.1l.5.1 2-4.4 7.5-.7 4.3 6.2-.2.3.5.1.1-.2 7.5-.7 1.2 1.7.7.1-1.5-2.5 3.2-6.8 7.5-.7 4.3 6.2-2.1 4.6v.1l.5.1 2.1-4.5 7.5-.7.9 1.3.3-.4-.8-1.2 3.3-7.1-4.5-6.4 3.3-7.1-1.2-1.7h-.6l1.3 1.8-3.4 6.7-7.5.7-4.3-6.2 1.8-3.9h-.5l-1.7 3.8-7.5.7-3-4.3-.6.1 3.2 4.5-3.2 6.8-7.4.6-4.3-6.2 2.3-5-.6.1-2.2 4.8-7.5.7-3-4.3-.6.1 3.2 4.5-3.2 6.8-7.4.6-4.3-6.2 2.3-5-.6.1-2.2 4.8-7.5.7-3-4.3-.6.1 3.2 4.5-3.2 6.8-7.5.7-4.2-6.3 2.3-5h-.5l-2.2 4.8-7.5.7-2.4-3.4c-.1.1-.3.2-.4.3zm82.6-.4 7.5-.7 4.3 6.2-3.2 6.8-7.5.7-4.3-6.2zm-12.2-5.7 7.5-.7 4.3 6.2-3.2 6.8-7.5.7-4.3-6.2zm-11.1 7.8 7.5-.7 4.3 6.2-3.1 6.8-7.5.7-4.3-6.2zm-12.2-5.7 7.5-.7 4.3 6.2-3.2 6.8-7.5.7-4.3-6.2zm-23.3 2.1 7.5-.7 4.3 6.2-3.2 6.8-7.5.7-4.3-6.2z"/><path fill="#758a72" d="m9.95 65.35 92-8.3.4 5-98.7 8.9c.5-3.1 3.2-5.4 6.3-5.6"/><path fill="#1a252e" d="M18.45 69.65h-.4l-.5-5h.4zM33.25 68.35h-.4l-.4-5h.4z"/><path fill="#0c5a43" d="M107.95 47.45c-3.3 0-6 2.7-6 6v87.3c0 3.3 2.7 6 6 6 0 0 6 0 6-6v-87.3c0-3.3-2.7-6-6-6"/><path fill="#5cbcc5" d="M101.95 128.9h12v11.5h-12z"/><path fill="#eee75a" d="M101.95 99.3h12v17.9h-12zM101.95 72.4h12v13.5h-12z"/><path fill="#1c252e" d="M108.05 12.2c1.3 0 2.4 1.1 2.4 2.4v13h-4.8v-13c0-1.3 1.1-2.4 2.4-2.4"/><path fill="#758a72" d="m108.05 22.6-2.5 3.7h5z"/><path fill="#fcf6ec" d="M104.25 15.6c.993 0 1.893.403 2.545 1.055a3.6 3.6 0 0 1 1.055 2.545c0 .993-.403 1.893-1.055 2.545a3.6 3.6 0 0 1-2.545 1.055 3.6 3.6 0 0 1-2.545-1.055 3.6 3.6 0 0 1-1.055-2.545c0-.993.403-1.893 1.055-2.545a3.6 3.6 0 0 1 2.545-1.055"/><path fill="#1c252e" d="M104.25 17.3c.524 0 .999.213 1.343.557a1.894 1.894 0 0 1 0 2.686 1.894 1.894 0 0 1-2.686 0 1.894 1.894 0 0 1 0-2.686 1.9 1.9 0 0 1 1.343-.557"/><path fill="#fcf6ec" d="M111.85 15.6c.993 0 1.893.403 2.545 1.055a3.6 3.6 0 0 1 1.055 2.545c0 .993-.403 1.893-1.055 2.545a3.6 3.6 0 0 1-2.545 1.055 3.6 3.6 0 0 1-2.545-1.055 3.6 3.6 0 0 1-1.055-2.545c0-.993.403-1.893 1.055-2.545a3.6 3.6 0 0 1 2.545-1.055"/><path fill="#1c252e" d="M111.85 17.3c.524 0 .999.213 1.343.557a1.894 1.894 0 0 1 0 2.686 1.894 1.894 0 0 1-2.686 0 1.894 1.894 0 0 1 0-2.686 1.9 1.9 0 0 1 1.343-.557"/><path fill="#115c40" d="M107.95 40.7c2.787 0 5.312 1.132 7.14 2.96a10.07 10.07 0 0 1 2.96 7.14c0 2.787-1.132 5.312-2.96 7.14a10.07 10.07 0 0 1-7.14 2.96 10.07 10.07 0 0 1-7.14-2.96 10.07 10.07 0 0 1-2.96-7.14c0-2.787 1.132-5.312 2.96-7.14a10.07 10.07 0 0 1 7.14-2.96"/><path fill="#1c252e" d="M101.945 49.853a6.48 6.48 0 0 1 3.518-3.517 6.48 6.48 0 0 1 4.974-.001 6.48 6.48 0 0 1 3.517 3.518 6.48 6.48 0 0 1 .001 4.975 6.48 6.48 0 0 1-3.519 3.517 6.48 6.48 0 0 1-4.974.001 6.48 6.48 0 0 1-3.516-3.518 6.48 6.48 0 0 1-.001-4.975"/><path fill="#008e77" d="m107.85 52-5 4.6h10.1z"/><path fill="#1c252e" d="M106.324 25.758a10.07 10.07 0 0 1 7.522 1.778 10.07 10.07 0 0 1 4.065 6.573 10.07 10.07 0 0 1-1.778 7.522 10.07 10.07 0 0 1-6.573 4.066 10.07 10.07 0 0 1-7.522-1.778 10.07 10.07 0 0 1-4.066-6.574 10.07 10.07 0 0 1 1.778-7.522 10.07 10.07 0 0 1 6.574-4.065"/><path fill="#1c252e" d="M107.95 40.7c-5.2 0-9.6 4-10 9.3h20.1c-.5-5.3-4.9-9.3-10.1-9.3"/></svg>