<svg xmlns="http://www.w3.org/2000/svg" width="123.537" height="110.62" viewBox="0 0 123.537 110.62"><g stroke-miterlimit="10" data-paper-data="{&quot;isPaintingLayer&quot;:true}" style="mix-blend-mode:normal"><g stroke-linejoin="round" data-paper-data="{&quot;index&quot;:null,&quot;origPos&quot;:null,&quot;origRot&quot;:0}"><path fill="#fff" stroke="#627191" stroke-width=".25" d="M111.942 50.157c-4.846.12-4.135-1.785-11.963-2.15-5.361-.25-15.17 2.205-15.211-5.508-.168-8.298 8.866-6.756 15.961-6.933 3.226-.416 6.801-1.68 10.36-1.526 10.49.453 12.46 5.478 12.299 9.2-.193 4.44-6.601 6.797-11.446 6.917z" data-paper-data="{&quot;origPos&quot;:null,&quot;index&quot;:null,&quot;origRot&quot;:0}"/><path fill="#627191" d="M99.768 47.556c-5.347-.529-15.095 2.028-15-5.057-.188-6.869 8.866-6.756 15.961-6.933 3.226-.416 6.861-.785 10.42-.631 8.03.49 11.585 4.117 11.423 7.838-.193 4.441-6.205 6.272-11.05 6.393s-6.892-1.13-11.754-1.61" data-paper-data="{&quot;origPos&quot;:null,&quot;index&quot;:null,&quot;origRot&quot;:0}"/><path fill="none" stroke="#fff" stroke-linecap="round" d="m109.078 37.935-2.92 8.483-1.922-8.804-3.012 8.596-1.982-8.663s.837 2.144.7 4.309c-.143 2.234-1.12 4.203-1.12 4.203l3.15-8.46 1.493 8.615 3.167-8.524 2.198 8.767 2.702-8.365s1.085 2.322.965 4.123-1.218 4.172-1.218 4.172z" data-paper-data="{&quot;origPos&quot;:null,&quot;origRot&quot;:0}"/><path fill="#fff" d="M116.932 42.063c.058-2.051.276-5.257.276-5.257s4.862 2.512 4.86 5.545c-.002 4.103-5.157 5.004-5.157 5.004s-.037-3.227.021-5.292" data-paper-data="{&quot;origPos&quot;:null,&quot;origRot&quot;:0}"/></g><g stroke-linejoin="round" data-paper-data="{&quot;origPos&quot;:null,&quot;origRot&quot;:0,&quot;index&quot;:null}"><path fill="#fff" stroke="#627191" stroke-width=".25" d="M111.957 60.416c4.845.12 11.253 2.477 11.446 6.918.162 3.721-1.81 8.746-12.299 9.199-3.558.153-7.134-1.11-10.36-1.526-7.095-.177-16.129 1.365-15.96-6.933.04-7.713 9.85-5.258 15.21-5.508 7.829-.365 7.118-2.27 11.963-2.15z" data-paper-data="{&quot;origPos&quot;:null,&quot;index&quot;:null,&quot;origRot&quot;:0}"/><path fill="#627191" d="M111.537 61.407c4.845.12 10.857 1.952 11.05 6.393.162 3.721-3.393 7.348-11.423 7.838-3.559.154-7.194-.215-10.42-.631-7.095-.177-16.149-.064-15.96-6.933-.096-7.085 9.652-4.528 15-5.057 4.861-.48 6.908-1.73 11.753-1.61" data-paper-data="{&quot;origPos&quot;:null,&quot;index&quot;:null,&quot;origRot&quot;:0}"/><path fill="none" stroke="#fff" stroke-linecap="round" d="M111.295 64.186s1.098 2.37 1.217 4.172c.12 1.801-.964 4.123-.964 4.123l-2.703-8.365-2.197 8.767-3.167-8.524-1.494 8.614-3.149-8.46s.977 1.97 1.118 4.204c.138 2.165-.698 4.309-.698 4.309l1.98-8.663 3.013 8.596 1.923-8.804 2.92 8.483z" data-paper-data="{&quot;origPos&quot;:null,&quot;origRot&quot;:0}"/><path fill="#fff" d="M116.926 63.218s5.155.901 5.158 5.004c.002 3.033-4.86 5.545-4.86 5.545s-.219-3.206-.276-5.257c-.059-2.065-.022-5.292-.022-5.292" data-paper-data="{&quot;origPos&quot;:null,&quot;origRot&quot;:0}"/></g><g stroke-width="0" data-paper-data="{&quot;origPos&quot;:null,&quot;origRot&quot;:0,&quot;index&quot;:null}"><path fill="#5083ab" d="m89.823 85.442-.957-58.705 15.482 10.345s8.232 5.556.537 11.048c-3.355.505-6.182-.687-6.182-.687l-.154 18.063s4.217-2.008 6.378-2.056c6.353 4.63.112 10.821.112 10.821z" data-paper-data="{&quot;origPos&quot;:null}"/><path fill="#cddce7" d="M103.847 36.413s11.701 6.014 1.295 12.288c-.79.118-1.1-.934-3.43-.562 4.605-4.807 4.85-7.68.15-13.782zM104.365 62.737c9.288 5.296.532 12.148.532 12.148l-2.958 2.48c3.484-5.489 4.568-8.905-.256-14.143 2.59.323 2.123-.472 2.682-.485" data-paper-data="{&quot;origPos&quot;:null}"/></g><path fill="#9383d1" d="M88.077 50.36q-.021.015 0 0" data-paper-data="{&quot;origPos&quot;:null,&quot;origRot&quot;:0,&quot;index&quot;:null}"/><path fill="#a69bd1" d="M95.177 24.603c2.718.257 12.215 10.087 11.43 34.61-1.263 18.52-5.583 26.647-11.072 27.909-5.963.048 4.509-.48 3.67 9.148-.838 9.628-7.017 12.21-10.83 10.584-3.11 1.227-11.048 3.716-14.381 3.762-6.939.105-27.334-1.928-28.05-54.252C45.175-.021 69.57-.372 76.148.06c3.117.323 8.593 1.606 11.492 2.821 5.248-2.21 9.75 5.267 9.971 9.574.402 7.825-6.878 13.892-2.433 11.695zm-23.106 8.38c-11.642 0-20.6 11.288-20.6 22.334s10.56 23 22.202 23 10.283-18.62 22.93-23c-11.112-2.712-12.89-22.333-24.532-22.333" data-paper-data="{&quot;origPos&quot;:null,&quot;index&quot;:null,&quot;origRot&quot;:0}"/><g fill="#9383d1" stroke-width=".5" data-paper-data="{&quot;origPos&quot;:null,&quot;origRot&quot;:0,&quot;index&quot;:null}"><path d="M97.606 50.565c-.271 0-.491-.725-.491-1.62 0-.894.22-1.619.49-1.619.272 0 .491.725.491 1.62 0 .894-.22 1.62-.49 1.62" data-paper-data="{&quot;origPos&quot;:null}"/><path d="m97.974 50.05-7.498-.51s-.984-.068-.966-1.565c.018-1.498.996-.917.996-.917 2.487.17 4.868.464 7.377 1.187 1.301.374 2.153 1.945.091 1.804" data-paper-data="{&quot;origPos&quot;:null,&quot;origRot&quot;:0}"/></g><g fill="#9383d1" stroke-width=".5" data-paper-data="{&quot;origPos&quot;:null,&quot;origRot&quot;:0,&quot;index&quot;:null}"><path d="M97.694 63.346c-.256 0-.463-.802-.463-1.792s.207-1.792.463-1.792.464.802.464 1.792-.208 1.792-.464 1.792" data-paper-data="{&quot;origPos&quot;:null}"/><path d="M97.995 62.43c-1.706.935-4.755 2.098-6.53 2.264 0 0-.747.235-.765-1.21-.018-1.447.83-1.526.83-1.526 2.409-.225 5.39-.974 6.169-1.068.259-.032.405-.047.664-.066 1.018-.074.723 1.008-.368 1.606" data-paper-data="{&quot;origPos&quot;:null,&quot;origRot&quot;:0}"/></g><g data-paper-data="{&quot;origPos&quot;:null,&quot;origRot&quot;:0,&quot;index&quot;:null}"><path fill="#f6dbc4" d="M102.17 89.638c-2.564 7.916-8.573 16.557-13.66 10.093-4.06-5.16-3.124-7.916.788-14.476s11.937-18.135 14.359-15.381c4.411 5.016 1.199 11.468-1.488 19.764" data-paper-data="{&quot;origPos&quot;:null,&quot;origRot&quot;:0,&quot;index&quot;:null}"/><g stroke-width=".5" data-paper-data="{&quot;origPos&quot;:null,&quot;origRot&quot;:0}"><path fill="#d1b29b" d="M89.706 90.07c-.333-.147-.471-.564-.309-.93s.564-.544.896-.397.472.564.31.93c-.163.367-.564.544-.897.397M94.675 96.253c-.287-.127-.407-.486-.267-.802s.486-.469.773-.342.406.486.266.802-.485.47-.772.342M89.124 96.757c-.333-.147-.471-.563-.309-.93.162-.366.564-.544.897-.397.332.148.47.564.309.93-.163.367-.564.545-.897.397M97.407 84.34c-.198-.088-.28-.335-.184-.553s.336-.324.534-.237.28.336.183.554c-.096.218-.335.323-.533.236M90.769 91.394c-.198-.088-.28-.335-.184-.553s.335-.324.533-.237.28.336.184.554-.335.324-.533.236M88.14 91.105c-.198-.087-.28-.335-.184-.553s.336-.324.534-.236c.198.087.28.335.183.553-.096.218-.335.324-.533.236M94.891 89.32c-.198-.089-.28-.336-.183-.554.096-.218.335-.324.533-.236.198.087.28.335.184.553s-.336.324-.534.236M93.01 91.454c-.199-.087-.281-.335-.185-.553s.336-.324.534-.236.28.335.183.553c-.096.218-.335.324-.533.236" data-paper-data="{&quot;origPos&quot;:null}"/><path fill="#bda18b" d="M88.393 92.9c-.247-.11-.35-.418-.229-.69s.418-.404.665-.294c.247.109.35.418.23.69-.121.272-.419.403-.666.294M90.744 95.018c-.373-.165-.528-.632-.346-1.043.181-.41.631-.61 1.004-.445.374.166.529.632.347 1.043s-.632.61-1.005.445M93.982 86.962c-.356-.158-.504-.603-.33-.995.173-.391.602-.581.958-.424.356.158.504.603.33.995-.173.391-.602.581-.958.424" data-paper-data="{&quot;origPos&quot;:null}"/><path fill="#d1b29b" d="M87.43 96.032c-.173.002-.303-.147-.292-.33s.16-.334.332-.335.302.147.291.33-.16.334-.332.335M95.651 80.526c-.172.001-.302-.147-.291-.33.011-.185.16-.335.332-.336.172 0 .302.147.29.331-.01.184-.159.334-.33.335M94.27 79.257c-.172.001-.302-.147-.29-.33.01-.184.16-.334.331-.336.172 0 .302.147.291.331s-.16.334-.331.335M92.598 83.82c-.172.001-.302-.147-.291-.33s.16-.334.332-.336c.172 0 .302.147.29.331-.01.184-.159.334-.331.335" data-paper-data="{&quot;origPos&quot;:null,&quot;origRot&quot;:0}"/><path fill="#d1b29b" d="M97.214 78.364c-.31-.137-.439-.525-.288-.866s.525-.506.835-.37c.31.138.438.526.287.867-.15.341-.524.506-.834.37" data-paper-data="{&quot;origPos&quot;:null}"/><path fill="#bda18b" d="M88.837 94.4c-.264-.117-.374-.448-.245-.738.129-.291.447-.432.711-.315s.374.447.245.738c-.128.29-.447.432-.71.315" data-paper-data="{&quot;origPos&quot;:null}"/></g></g><g data-paper-data="{&quot;origPos&quot;:null,&quot;origRot&quot;:0,&quot;index&quot;:null}"><path fill="#f6dbc4" d="M105.432 39.86c-2.185 2.946-10.439-6.611-14.882-12.825s-5.653-10.942-1.899-15.922c3.676-4.876 10.046-.64 13.258 7.036 3.365 8.044 7.504 16.347 3.523 21.712" data-paper-data="{&quot;origPos&quot;:null,&quot;origRot&quot;:0,&quot;index&quot;:null}"/><g stroke-width=".5" data-paper-data="{&quot;origPos&quot;:null,&quot;origRot&quot;:0}"><path fill="#d1b29b" d="M90.235 12.267c-.327.16-.735-.003-.91-.363-.177-.36-.054-.782.273-.941.327-.16.735.002.91.362.177.36.054.782-.273.942M100.446 33.613c-.327.16-.735-.003-.911-.363s-.053-.781.274-.941.734.003.91.363.054.781-.273.941M96.827 29.271c-.282.138-.633-.002-.785-.313-.151-.31-.046-.674.236-.811.282-.138.634.002.785.312s.046.674-.236.812M97.5 33.384c-.327.16-.735-.002-.91-.363-.177-.36-.054-.781.273-.94.327-.16.735.002.91.362.177.36.054.781-.273.941M93.336 19.05c-.195.095-.437-.001-.542-.216-.104-.214-.032-.465.163-.56s.437.002.542.216c.104.214.031.465-.163.56M91.654 25.56c-.195.096-.437 0-.542-.215-.105-.214-.032-.465.163-.56.194-.095.437.002.542.216.104.214.031.465-.163.56M95.097 22.005c-.194.095-.437-.001-.541-.215-.105-.215-.032-.465.163-.56.194-.095.437.001.541.216.105.214.032.464-.163.56M95.524 24.182c-.194.095-.437-.002-.541-.216s-.032-.465.163-.56c.194-.095.437.002.541.216s.032.465-.163.56M95.946 26.997c-.195.095-.438-.002-.542-.216s-.032-.465.163-.56c.194-.095.437.002.541.216s.032.465-.162.56" data-paper-data="{&quot;origPos&quot;:null}"/><path fill="#bda18b" d="M99.655 30.443c-.243.118-.545-.002-.676-.27-.13-.267-.04-.58.203-.698s.545.002.676.27c.13.267.04.58-.203.698M97.208 24.973c-.366.179-.823-.003-1.02-.407s-.06-.876.306-1.055c.367-.179.824.003 1.021.407s.06.876-.307 1.055M90.405 18.342c-.35.17-.785-.003-.973-.388s-.057-.835.292-1.006c.35-.171.786.003.974.388s.057.835-.293 1.006" data-paper-data="{&quot;origPos&quot;:null}"/><path fill="#d1b29b" d="M97.635 26.704c-.11.133-.307.137-.44.01-.134-.127-.153-.337-.043-.47s.307-.136.44-.01c.134.128.153.338.043.47M88.389 17.866c-.11.132-.307.136-.44.01-.134-.128-.153-.338-.043-.47.11-.133.307-.137.44-.01.134.127.153.337.043.47" data-paper-data="{&quot;origPos&quot;:null,&quot;origRot&quot;:0}"/><path fill="#d1b29b" d="M88.64 15.35c-.304.148-.684-.003-.848-.338-.163-.336-.05-.728.255-.877.305-.148.684.003.848.338s.05.728-.255.876M88.743 20.075c-.254.124-.57-.002-.707-.281-.136-.28-.041-.606.213-.73.253-.124.57.002.706.281.137.28.042.606-.212.73" data-paper-data="{&quot;origPos&quot;:null}"/><path fill="#bda18b" d="M93.729 23.04c-.26.127-.584-.002-.723-.288-.14-.286-.043-.62.217-.747s.583.002.723.288.042.62-.217.747" data-paper-data="{&quot;origPos&quot;:null}"/></g></g><path fill="#9383d1" d="M110.92 56.78c-.085 16.93-7.754 29.77-7.754 29.77s.034-6.018-2.13-8.163c-3.18-3.15-5.265-3.255-5.265-3.255s4.12-13.516 4.1-20.578c-.015-5.432-3.355-16.036-3.355-16.036s.747-.072 4.83-4.48c1.604-1.535 4.025-6.015 4.025-6.015s5.669 9.162 5.55 28.758" data-paper-data="{&quot;origPos&quot;:null,&quot;origRot&quot;:0,&quot;index&quot;:null}"/><path fill="#ab7b70" d="M51.826 96.576c-36.276-.1-55.291-32.807-45.24-47.614C-.167 32.22 31.709 15.354 54.487 15.428c26.276.069 20.618 7.734 32.666 13.869 6.817 3.471 13.158 2.261 13.407 16.094-1.203-1.882-5.11-3.234-5.11-3.234s5.823 4.393 5.037 8.843c-3.8-12.811-45.067-24.488-45.14 6.888-.059 24.825 43.534 23.379 44.395 8.228.494 2.183-3.231 7.584-3.231 7.584s1.961-1.045 3.03-3.239c-.389 5.143-5.357 8.49-5.357 8.49s3.341-1.76 4.971-4.955c-1.548 11.693-8.362 10.087-17.353 12.957s-7.393 9.686-29.976 9.623" data-paper-data="{&quot;origPos&quot;:null,&quot;index&quot;:null}"/><path fill="#f6dbc4" d="M87.583 74.386c-4.618 6.166-11.862 6.741-19.271 8.282-5.916 3.115-12.959 7.797-15.347 5.83-2.59-2.133 8.383-5.698-1.099-3.408s-42.89 6.743-42.67-29.82C9.905 17.96 42.065 22.259 49.322 24.38c16.098 3.357 3.208 1.634 6.31-2.71 2.643-.985 8.739 2.28 13.487 6.498 6.368 1.046 14.602 3.387 18.547 8.645 4.147 5.527 2.472 13.089 4.404 14.57 2.062 1.581 3.94 4.754.832 6.707-2.412 1.516-1.086 10.646-5.318 16.297" data-paper-data="{&quot;origPos&quot;:null,&quot;index&quot;:null}"/><g stroke-width=".5" data-paper-data="{&quot;origPos&quot;:null,&quot;index&quot;:null}"><path fill="#d1b29b" d="M87.402 46.01c-.364 0-.659-.325-.659-.725 0-.401.295-.726.66-.726.363 0 .658.325.658.726s-.295.725-.659.725M86.543 41.452c-.304 0-.55-.27-.55-.605s.246-.604.55-.604c.303 0 .549.27.549.604s-.246.605-.55.605M86.062 71.626c-.314 0-.569-.28-.569-.626 0-.345.255-.626.569-.626s.568.28.568.626-.255.626-.568.626M84.694 75.617c-.364 0-.659-.325-.659-.726s.295-.726.66-.726c.363 0 .658.325.658.726s-.295.726-.659.726M87.41 60.91c-.216 0-.392-.194-.392-.432 0-.239.176-.432.392-.432s.392.193.392.432c0 .238-.175.431-.392.431M87.696 64.338c-.217 0-.392-.193-.392-.432 0-.238.175-.431.392-.431.216 0 .392.193.392.431 0 .239-.176.432-.392.432M86.958 66.48c-.217 0-.392-.192-.392-.43 0-.24.175-.432.392-.432.216 0 .392.193.392.431 0 .239-.176.432-.392.432M86.267 69.195c-.216 0-.392-.193-.392-.431 0-.239.176-.432.392-.432s.392.193.392.432c0 .238-.175.431-.392.431M83.44 51.105c-.339 0-.613-.302-.613-.675s.274-.676.613-.676c.34 0 .614.303.614.676s-.275.675-.614.675" data-paper-data="{&quot;origPos&quot;:null}"/><path fill="#bda18b" d="M87.957 68.098c-.408 0-.739-.365-.739-.814 0-.45.33-.813.739-.813.408 0 .739.364.739.813 0 .45-.331.814-.74.814M87.167 43.167c-.196 0-.356-.176-.356-.392s.16-.393.356-.393c.197 0 .357.176.357.393 0 .216-.16.392-.357.392M87.405 40.024c-.196 0-.356-.176-.356-.392s.16-.392.356-.392c.197 0 .357.175.357.392 0 .216-.16.392-.357.392M87.81 41.595c-.197 0-.356-.175-.356-.392 0-.216.16-.392.356-.392.197 0 .356.176.356.392s-.16.392-.356.392M85.088 58.987c-.39 0-.705-.347-.705-.776 0-.428.316-.776.705-.776.39 0 .705.348.705.776s-.316.776-.705.776M84.3 36.602c-.383 0-.693-.342-.693-.764 0-.421.31-.763.693-.763s.693.342.693.763c0 .422-.31.764-.693.764" data-paper-data="{&quot;origPos&quot;:null}"/><path fill="#d1b29b" d="M79.687 57.312c-.314 0-.569-.28-.569-.625 0-.346.255-.626.569-.626s.568.28.568.626c0 .345-.255.625-.568.625" data-paper-data="{&quot;origPos&quot;:null}"/><path fill="#d1b29b" d="M81.057 53.96c-.157.07-.337-.012-.4-.185-.065-.173.01-.37.167-.44s.336.011.4.184-.01.37-.167.44M81.057 49.96c-.157.07-.337-.012-.4-.185-.065-.173.01-.37.167-.44s.336.011.4.184-.01.37-.167.44M85.914 52.531c-.157.07-.336-.012-.4-.185-.065-.172.01-.37.167-.44s.336.012.4.184c.065.173-.01.37-.167.441" data-paper-data="{&quot;origPos&quot;:null,&quot;origRot&quot;:0}"/><path fill="#bda18b" d="M86.342 43.388c-.157.07-.336-.012-.4-.185-.064-.172.011-.37.168-.44s.336.012.4.185c.064.172-.011.37-.168.44" data-paper-data="{&quot;origPos&quot;:null,&quot;origRot&quot;:0}"/><path fill="#d1b29b" d="M87.914 69.674c-.157.07-.336-.012-.4-.185-.065-.173.01-.37.167-.44s.336.012.4.184c.065.173-.01.37-.167.44M81.485 56.245c-.157.071-.336-.012-.4-.184-.064-.173.01-.37.168-.441.157-.07.336.012.4.185.064.172-.011.37-.168.44M83.485 57.674c-.157.07-.336-.012-.4-.185s.01-.37.168-.44c.157-.071.336.012.4.184.064.173-.011.37-.168.44M82.485 57.531c-.157.07-.336-.012-.4-.185-.064-.172.01-.37.168-.44.157-.07.336.012.4.184.064.173-.011.37-.168.441M85.914 38.674c-.157.07-.336-.012-.4-.185-.065-.173.01-.37.167-.44s.336.012.4.184c.065.173-.01.37-.167.44M88.342 65.817c-.157.07-.336-.012-.4-.185s.011-.37.168-.44.336.012.4.184c.064.173-.011.37-.168.44" data-paper-data="{&quot;origPos&quot;:null,&quot;origRot&quot;:0}"/><path fill="#d1b29b" d="M84.815 55.523c-.339 0-.613-.302-.613-.675s.274-.676.613-.676c.34 0 .614.303.614.676s-.275.675-.614.675M82.833 59.815c-.282 0-.511-.252-.511-.563s.229-.563.511-.563.512.252.512.563-.23.563-.512.563M82.486 53.8c-.304 0-.55-.27-.55-.605s.246-.604.55-.604c.303 0 .549.27.549.604s-.246.605-.55.605" data-paper-data="{&quot;origPos&quot;:null}"/><path fill="#bda18b" d="M82.69 55.686c-.351 0-.636-.313-.636-.7 0-.388.285-.701.636-.701s.637.313.637.7c0 .388-.285.701-.637.701M86.012 64.667c-.289 0-.523-.258-.523-.576s.234-.576.523-.576.523.258.523.576-.234.576-.523.576" data-paper-data="{&quot;origPos&quot;:null}"/></g><path fill="#ab7b70" d="M43.565 52.636c9.119 2.452 29.262 3.421 33.82-4.45 1.068 8.904.824 15.413-.208 19.893-5.223 8.719-23.084 5.48-23.084 5.48s16.795 4.285 21.725-.08C74.05 79.754 69.15 89.9 58.993 91.326 19.233 93.348 1.535 74.52 7.086 51.13c-1.17-27.242 27.54-33.988 51.568-31.2 7.396.857 12.844 2.37 14.916 9.521 2.157 12.903-25.006 16.766-25.006 16.766s11.632-.539 19.22-3.773c4.386-1.869 7.568-3.364 7.443-8.129.895 4.214 2.597 7.286 1.088 11.322-3.749 10.03-32.75 7-32.75 7" data-paper-data="{&quot;origPos&quot;:null,&quot;index&quot;:null}"/><g fill="#ab7b70" data-paper-data="{&quot;origPos&quot;:null,&quot;index&quot;:null}"><g data-paper-data="{&quot;origPos&quot;:null}"><path d="M84.25 43.266c.098 4.3-2.561 4.845-2.561 4.845s-.056-1.618-.147-4.772c-.32-3.695-3.93-7.173-3.93-7.173s6.54 2.8 6.638 7.1M81.058 49.08s-3.46.136-4.297-2.006c-.434-5.037-.68-6.468-1.932-10.83-.475-1.653-1.092-4.223-1.092-4.223s2.901 2.224 3.615 4.424c.85 2.619 2.14 8.674 2.14 8.674z" data-paper-data="{&quot;origPos&quot;:null,&quot;index&quot;:null}"/></g><g data-paper-data="{&quot;origPos&quot;:null}"><path d="M77.861 74.44s3.611-3.478 3.931-7.173c.091-3.154.147-4.772.147-4.772s2.659.546 2.56 4.845c-.098 4.3-6.638 7.1-6.638 7.1" data-paper-data="{&quot;origPos&quot;:null}"/><path d="M73.737 78.335s.45-2.57.925-4.224c1.251-4.362 1.665-5.792 2.1-10.83.836-2.142 4.296-2.005 4.296-2.005l-1.565 3.96s-1.292 6.056-2.141 8.675c-.85 2.618-3.615 4.424-3.615 4.424" data-paper-data="{&quot;origPos&quot;:null,&quot;index&quot;:null}"/></g></g><path fill="#a69bd1" d="M56.993 98.326C25.722 97.656-.289 76.52.003 54.546c.36-30.4 36.123-40.525 58.9-40.451 3.2.01 4.64 1.846 4.64 1.846S50.222 27.978 50.18 54.22c-.533 22.336 13.36 41.724 13.36 41.724s-.048 2.52-6.547 2.381" data-paper-data="{&quot;origPos&quot;:null,&quot;index&quot;:null}"/><g fill="#9383d1" stroke-width="0"><path d="M45.765 68.762s1.405 8.495 4.389 14.643c2.357 4.858 5.761 8.13 5.761 8.13s-12.805 4.94-14.087 1.084c-2.118-6.367 3.937-23.857 3.937-23.857" data-paper-data="{&quot;origPos&quot;:null,&quot;origRot&quot;:0,&quot;index&quot;:null}"/><path d="M41.637 18.54c1.283-3.855 14.088 1.084 14.088 1.084s-4.668 4.261-6.645 8.19c-3.05 6.06-3.505 14.582-3.505 14.582s-6.055-17.49-3.938-23.857" data-paper-data="{&quot;origPos&quot;:null,&quot;index&quot;:null,&quot;origRot&quot;:0}"/></g></g></svg>