<svg xmlns="http://www.w3.org/2000/svg" xml:space="preserve" width="207.491" height="85.328" viewBox="-0.218 0.688 207.491 85.328"><title>Slice 1</title><g fill-rule="evenodd"><path fill="#e2ddc9" fill-rule="nonzero" d="M60.928 31.28s18.044 15.068 16.79 26.402c-.417 3.666-13.783 22.666-13.783 22.666s6.266 2.333 8.855 5.167H47.98l-26.814-37.5"/><path fill="#4d4f68" fill-rule="nonzero" d="M66.024 85.515s.168-3.038 1.492-3.584c.473-.194 5.274 3.584 5.274 3.584z"/><path fill="none" stroke="#7593b1" stroke-width=".5" d="M60.928 31.28s18.044 15.068 16.79 26.402c-.417 3.666-13.783 22.666-13.783 22.666s6.266 2.333 8.855 5.167H47.98l-26.814-37.5"/><path fill="none" stroke="#7593b1" stroke-width=".5" d="M66.024 85.515c.084-.25-.334-2 1.492-3.584"/><path fill="#e2ddc9" fill-rule="nonzero" d="M107.04 40.432v23.166s15.955 11.667 23.556 21.917h22.64s-1.087-3.333-5.097-3.583c0 0-4.43-3.043-7.518-7l-5.59-14.394s.828-5.023 1.998-7.815"/><path fill="#4d4f68" fill-rule="nonzero" d="M144.798 85.39s1.931-3.625 3.34-3.459c4.43.525 5.097 3.584 5.097 3.584z"/><path fill="none" stroke="#7593b1" stroke-width=".5" d="M107.04 40.432v23.166s15.955 11.667 23.556 21.917h22.64s-1.087-3.333-5.097-3.583c0 0-4.43-3.043-7.518-7l-5.59-14.394s.828-5.023 1.998-7.815"/><path fill="none" stroke="#7593b1" stroke-width=".5" d="M144.798 85.515s.668-2.5 3.34-3.584"/><path fill="#e2ddc9" fill-rule="nonzero" d="m179.925 34.14-.335-3.584s-.25-.957.335-.666a992 992 0 0 0 3.759 1.834s.292.125.333 1.041c.043.916.418 2.875.418 2.875"/><path fill="none" stroke="#7593b1" stroke-width=".5" d="m179.924 34.14-.334-3.584s-.25-.957.333-.666c.586.291 3.76 1.834 3.76 1.834s.292.125.334 1.041.417 2.875.417 2.875"/><path fill="#4d4f68" fill-rule="nonzero" d="m180.93 33.911-.397-1.729s-.291-1.146.398-.855c.689.292 1.858.771 1.858.771s.293.167.355.792c.063.625.356 1.813.356 1.813z"/><path fill="#fbf8ea" fill-rule="nonzero" d="M30.063 16.974c1.42-1.459 21.468-12.459 32.119-15.209s33.804 5.099 47.168 7.27c20.675 3.36 26.807 3.262 29.893 4.605 1.542.758 5.889 5.375 10.901 8.5s8.152 4.313 12.53 6c12.03 4.313 13.721 3.625 18.608 5 2.815.93 11.904 4.938 11.904 4.938s5.763 5 12.66 7.155c0 0 1.499.314.684 1.97-.814 2.187-5.701 7.624-7.518 8.75 0 0-1.712-1.646-9.606.062-6.214 1.344-6.924 2.448-14.254 3.167s-65.188 9.458-70.66 10.5-8.019 1.75-9.272 1.791c-1.253.042-27.692-4.624-39.387-7.208-11.694-2.583-29.446-8.416-33.455-14.583 0 0-1.588 3.583-2.954 3.637-1.17.046-3.02-3.804-3.061-5.596-.042-1.791-.126-2.708 1.796-7.583s8.771-20 11.904-23.166"/><path fill="#e0dac5" fill-rule="nonzero" d="M190.533 55.744s-3.676-1.479 2.214-7.646c1.421-1.489 3.948-3.187 5.703-3.682 1.117-.316 3.173-1.275 4.235-.359 1.547 1.334 5.9.181 3.215 4.416-2.085 3.292-6.888 7.48-6.888 7.48s-1.922-1.522-8.479-.209"/><path fill="none" stroke="#7593b1" stroke-width=".5" d="M30.062 16.974c1.42-1.459 21.469-12.459 32.12-15.209s33.804 5.099 47.168 7.27c20.674 3.36 26.807 3.262 29.892 4.605 1.542.758 5.89 5.375 10.902 8.5s8.151 4.313 12.53 6c12.029 4.313 13.72 3.625 18.607 5 2.816.93 11.904 4.938 11.904 4.938s5.764 5 12.66 7.155c0 0 1.5.314.685 1.97-.815 2.187-5.702 7.624-7.518 8.75 0 0-1.713-1.646-9.607.062-6.214 1.344-6.923 2.448-14.254 3.167s-65.187 9.458-70.659 10.5-8.019 1.75-9.272 1.791c-1.253.042-27.692-4.624-39.387-7.208-11.695-2.583-29.446-8.416-33.456-14.583 0 0-1.587 3.583-2.954 3.637-1.169.046-3.019-3.804-3.06-5.596-.042-1.791-.126-2.708 1.795-7.583 1.922-4.875 8.772-20 11.904-23.166Z"/><path fill-rule="nonzero" d="M203.914 46.937c-.313-.438-.88-1.386-.034-1.49 1.193-.146 2.494.042 2.494.042s.67.656.232 1.547-1.402 2.385-1.402 2.385l.323-1.36s.204-.562-.36-.577c-.237-.007-.746.161-1.253-.547"/><path fill="none" stroke="#7593b1" stroke-width=".5" d="M190.533 52.265s.71.916 2.256.916c1.544 0 9.388-.133 9.388-.133M114.517 15.765c.125-.042 6.515-3.708 11.151-2.917s12.948 7.583 12.948 7.583"/><path fill="#4d6e8c" fill-rule="nonzero" d="m186.857 41.807 4.553-1.375s.627 1.125.209 1.958-4.762-.583-4.762-.583"/><path fill-rule="nonzero" d="M190.82 42.538s-.642-.195-.752-.914c-.109-.713.486-.934.486-.934l.856-.258s.33.348.327.98c-.003.63-.274 1.126-.274 1.126z"/><path fill="none" stroke="#000" stroke-width=".5" d="m186.857 41.807 4.553-1.375s.627 1.125.209 1.958-4.762-.583-4.762-.583Z"/><path fill="#fbf8ea" fill-rule="nonzero" d="m172.949 41.057-1.003-5.917s-.167-.25.501-.875c.67-.625 3.384-3.167 3.384-3.167s.376-.375.835.25c.46.625 2.924 3.834 2.924 3.834"/><path fill="none" stroke="#7593b1" stroke-width=".5" d="m172.949 41.057-1.003-5.917s-.167-.25.501-.875c.67-.625 3.384-3.167 3.384-3.167s.376-.375.835.25c.46.625 2.924 3.834 2.924 3.834"/><path fill="#4d4f68" fill-rule="nonzero" d="m174.064 40.111-.586-2.521s-.634-2.325.77-3.628c1.22-1.13 1.979-2.343 2.698-.684.558 1.289 1.223 2.133 1.223 2.133s.752.459-.97 1.89c-1.26 1.048-3.006 3.56-3.135 2.81"/><path fill="#fbf8ea" fill-rule="nonzero" d="M23.087 85.515H.282L20.08 38.182s25.144 4.712 25.478 4.355c.334-.355 10.024 13.161 10.024 13.161s-27.4 21.734-37.841 26.234c0 0 2.505.583 5.346 3.583"/><path fill="#4d4f68" fill-rule="nonzero" d="M19.532 85.515s-.141-1.969-.752-3.031c.799-.389 4.307 3.031 4.307 3.031z"/><path fill="none" stroke="#7593b1" stroke-width=".5" d="M23.087 85.515H.282L20.08 38.182s25.144 4.712 25.478 4.355c.334-.355 10.024 13.161 10.024 13.161s-27.4 21.734-37.841 26.234c0 0 2.505.583 5.346 3.583Z"/><path fill="none" stroke="#7593b1" stroke-width=".5" d="M18.242 82.095s1.42 1.086 1.253 3.42"/><path fill="#fbf8ea" fill-rule="nonzero" d="M107.04 85.515H85.32l7.435-17.333 25.19-3.5-14.831 17.917s2.672.5 3.925 2.916"/><path fill="#4d4f68" fill-rule="nonzero" d="M102.91 85.515s-.238-3.123.809-2.825c2.35.669 3.32 2.825 3.32 2.825z"/><path fill="none" stroke="#7593b1" stroke-width=".5" d="M107.04 85.515H85.32l12.325-30.732 9.182-9.391 15.043 1.456 13.967 9.765-17.893 8.069-14.83 17.917s2.672.5 3.925 2.916ZM138.616 58.015s-1.39-2.062-2.779-1.402M105.37 42.538c.25.416 1.67.644 1.457 2.854"/><path fill="none" stroke="#7593b1" stroke-width=".5" d="M103.114 85.515s-.646-2.242.356-2.825"/><path fill="#fbf8ea" fill-rule="nonzero" d="m106.312 46.542-.203.473s3.314 5.167 3.648 5.25 25.061 4.218 25.061 4.218.139.7 2.409-.884 2.52-8.167 2.352-8.584c-.166-.416-30.072-5.473-30.072-5.473zM57.633 55.953h-3.509L20.934 42.32l-1.425-4.123s1.368-4.324 5.21-4.846c3.843-.52 39.43 7.65 39.43 7.65z"/></g></svg>