<svg xmlns="http://www.w3.org/2000/svg" width="89.162" height="191.244" viewBox="-0.438 -0.492 89.162 191.244"><path fill="#eaa06d" d="M58.774 172.438c-.512.587-1.048.745-1.765 1.122-.798.421-1.484.735-2.332 1.083-1.785.735-3.744 1.5-5.642 1.4-1.283-.067-4.846-.03-6.091.259-1.425.33 3.07 2.062 3.874 2.158 2.57 1.291 4.873 1.364 7.654 1.893 1.308.252 4.427.158 5.81.093 1.624-.078 1.527-.356 3.108-.681a16 16 0 0 0 4.276-1.532c.958-.504 1.808-1.246 2.803-1.634.034-.138.053-.414.019-.554-.155-.635-1.243-1.851-1.84-2.11-.928-.403-2.108-.571-3.165-.563-1.19.006-3.019.44-4.25.3-.464-.055-2.342-.447-2.067-1.04"/><path fill="#bc7240" d="M70.67 176.55c.244.913.294 1.859.324 2.854.013.487-.107.85-.166 1.266-.06.455.106.89.044 1.344-1.012.4-1.894 1.01-2.95 1.356-1.138.375-2.322.664-3.47 1.024-2.698.85-5.755.687-8.478.055-1.084-.25-2.11-.64-3.138-1.055-.992-.403-1.728-.94-2.83-1.033-1.123-.097-2.207.235-3.342.155-1.059-.072-2.263-.145-3.248-.523-2.099-.805-.647-3.974-.706-5.512.423.251 1.253.705 1.669.996.898.618 1.637.753 2.678 1.049 1.11.317 2.008.708 3.115 1.01 2.393.654 4.889.886 7.383 1.024 2.4.133 4.709-.004 6.932-.858 1.239-.475 2.428-1.081 3.605-1.696.72-.376 1.717-1.564 2.514-1.576"/><path fill="undefined" d="M70.264 176.268c.051.154.528.22.477.061-.678-2.091-2.275-3.201-4.46-3.238-1.104-.02-2.192.138-3.282.278-.572.073-1.152.163-1.727.156-1.017-.007-1.6-.377-2.276-1.09-.1-.103-.576-.137-.443.003.658.693 1.128 1.15 2.099 1.288.88.126 1.767.01 2.64-.107 2.864-.38 5.896-.677 6.972 2.649m.624.061c-.025-.156-.506-.24-.477-.062.32 1.936.22 3.888.26 5.839.003.147.482.253.476.062-.04-1.953.062-3.905-.26-5.839m-10.112 8.696c.325-.008-.019-.261-.19-.258-2.08.047-4.151-.068-6.127-.778-1.537-.552-3.032-1.537-4.673-1.746-.745-.095-1.46.001-2.202.116-1.479.23-2.91-.03-4.329-.46-1.592-.486-.256-4.055-.308-5.388-.007-.147-.484-.249-.477-.06.07 1.786-.693 3.475-.348 5.26.02.084.145.123.21.142 1.653.526 3.302.964 5.049.827 1.093-.084 2.06-.367 3.155-.03.832.26 1.587.661 2.388.996 2.564 1.068 5.082 1.44 7.852 1.379m10.327-2.778c.19-.086-.25-.284-.38-.222-3.277 1.48-6.538 2.599-10.133 2.745-.322.013.016.264.188.258 3.669-.148 6.979-1.272 10.325-2.781m-.379-5.856c.122-.103-.32-.288-.447-.185-3.578 3.086-8.774 4.508-13.413 4.246-2.673-.153-5.33-.645-7.906-1.377-1.31-.37-2.91-.703-4.065-1.458-.682-.449-1.3-.95-2.042-1.3-.205-.099-.482.04-.183.18 1.279.605 2.229 1.471 3.585 1.956 1.158.416 2.329.784 3.522 1.083 2.533.632 5.122 1.136 7.739 1.198 4.62.102 9.646-1.265 13.21-4.343"/><path fill="#eaa06d" d="M36.118 182.703c.007.69-.464 2.024-.999 2.372-.724.467-2.038.968-2.874 1.138-3.662.75-8.925.78-12.57-.138-.836-.21-1.654-.66-1.866-1.327-.11-.352-.37-1.793-.317-2.114.093-.594 1.366-1.351 1.742-1.88.404-.567 1.248-1.024 1.81-1.476 1.13-.915 2.87-1.192 4.294-1.405 1.627-.245 3.068-.023 4.748.456 1.304.376 2.363.965 3.527 1.63.56.323 1.07.575 1.408 1.174.279.492.575 1.274 1.097 1.57"/><path fill="#bc7240" d="M35.78 184.063c-.046-.045-.177.538-.26.517-.233.329-.47.507-.822.824-.35.315-1.088.43-1.502.603-1.4.585-2.991.634-4.513.839-2.694.365-5.023.25-7.796-.474-1.06-.276-2.834-.55-3.079-1.63-.15-.67-.02-2.378-.87-2.032-.865.354-.638 1.723-.52 2.529.16 1.083.564 2.095 1.327 2.987.634.743 1.639.891 2.567 1.087 1.12.234 2.31.494 3.458.542 1.39.059 2.406.185 3.792.185 1.524 0 3.062-.22 4.528-.575.744-.18 1.522-.204 2.174-.614.45-.285 1.364-.436 1.499-.945.277-1.05.838-2.87.46-3.859"/><path fill="undefined" d="M35.852 182.68c.025.155.505.242.476.062-.199-1.222-2.642-2.296-3.572-2.791a10.3 10.3 0 0 0-4.739-1.186c-1.91-.01-4.124.035-5.957.607-1.947.61-3.491 1.77-4.869 3.25-.119.124.336.297.447.18 1.16-1.244 2.502-2.399 4.127-2.98 1.718-.613 3.633-.725 5.447-.783 1.72-.057 3.403.131 4.967.901.895.443 3.488 1.612 3.673 2.74m-18.124.146c-.009-.154-.488-.251-.469-.06.06.828-.035 1.977.654 2.59.527.468 1.17.758 1.852.935 1.856.495 3.88.743 5.8.774 2.413.043 4.94-.137 7.276-.79.857-.241 1.804-.523 2.494-1.126.802-.698.738-1.403.997-2.369-.16-.036-.318-.066-.477-.099a10.5 10.5 0 0 1-.139 4.109c-.165.696-.04 1.06-.769 1.484-.348.202-.707.419-1.088.556-2.58.915-5.454 1.18-8.172 1.13-1.41-.026-2.83-.114-4.214-.383-1.424-.276-3.168-.576-3.979-1.926-.625-1.038-1.763-4.783.266-5.102.266-.042-.153-.27-.296-.252-2.076.327-1.274 3.929-.567 5.104 1.406 2.344 4.756 2.553 7.2 2.748 3.244.257 6.858.075 9.946-1.02.543-.194 1.11-.464 1.571-.813.49-.377.365-.52.5-1.084.347-1.469.457-2.992.213-4.484-.022-.137-.436-.254-.477-.1-.23.855-.165 1.733-.965 2.317-.797.58-1.719.922-2.675 1.138-1.939.438-3.933.701-5.918.702-1.78.003-3.57-.166-5.323-.491-.831-.152-2.355-.361-2.813-1.182-.397-.717-.371-1.511-.428-2.306"/><path fill="#3d6767" d="M60.871 173.326c.817-1.203 1.331-2.689 1.552-4.12.295-1.893-1.11-2.455-2.445-3.299-1.179-.741-1.127-1.797-.643-3.017.256-.642.561-1.228.674-1.918.13-.787-.256-1.41-.835-1.858l-.203-.142a4 4 0 0 0-2.01-.636c-.1.001-.544-.198-.309-.193.338.006.674.052 1.004.122-1.103-1.077-1.135-2.872-1.184-4.317-.092-2.535-.432-5.006-.81-7.514-.376-2.485-.793-4.988-1.014-7.496-.236-2.656-.1-5.207-.662-7.847 0-.003.008-.003.009-.006-.002-.006-.013-.01-.013-.016.2-7.816-.324-15.615-.332-23.427 0-.005.015-.005.02-.009l-1.153-15.536s-13.181-.119-29.154 2.553l-1.115 12.855s.132.268-.021.22c-.965 10.233-1.934 20.474-2.9 30.71q.002 0 .003.004c-.401 6.539-1.721 13.053-3.324 19.395-.726 2.87-1.912 5.99-1.327 8.98.12.619.356.741-.254 1.224-.976.774-.223 1.175.566 1.793.016.015.02.028.02.05-.612.986-1.44 1.794-2.133 2.716a5.4 5.4 0 0 0-.733 1.386c-.337.894.106 1.524.573 2.252a16.8 16.8 0 0 0 2.907 3.409c.976.88-.104 1.97 2.112 2 .066.004.304.102.357.16 1.386-1.006 2.463-3.303 4.582-3.497 2.361-.638 3.888-.575 5.983-.271 2 .292 2.416.296 4.088 1.365.812.306 2.717 2.236 3.164 2.186.737-.085 1.492-1.065.7-3.547-.414-1.295.225-.761 1.195-1.995.516 1.257 2.876 2.855 4.87 1.609-.083-.388-.81-1.61 1.948-1.61 2.586.023 4.136.015 6.84-.223 1.461-.129 3.237-1.136 4.612-1.694 1.2-.489 1.017-1.048 2.224-1.404.696-.271 2.15 1.258 2.75.726-.108-.039-.197-.095-.179-.123"/><path fill="undefined" d="M62.847 168.095c-.568-1.744-3.704-1.92-3.363-3.944.242-1.427 1.833-3.314.502-4.65-.483-.487-1.074-.822-1.707-1.046q-.035-.014-.07-.026c-.053-.046-.087-.102-.136-.15-1.321-1.317-1.085-3.664-1.16-5.376-.116-2.6-.618-5.164-.97-7.735-.357-2.61-.893-5.226-.905-7.868-.01-2.073-.147-4.072-.58-6.106.201-7.812-.323-15.607-.332-23.418l-1.135-16.151c-12.172-.416-30.044 2.553-30.044 2.553L21.77 107.38l-1.366 14.46-.234 2.474-1.322 14.001.002.003c-.361 5.903-1.479 11.804-2.867 17.543-.65 2.673-1.618 5.379-1.874 8.132-.094.972-.178 2.032.218 2.932.29.658-.335.856-.717 1.24-.287.292-.32.616 0 .914.414.383 1.045.58.574 1.213-.31.417-.649.807-.986 1.2-.535.625-1.129 1.29-1.42 2.071-.098.254-.466 1.075-.314 1.331.252.427.504.855.78 1.268.65.978 1.36 1.925 2.198 2.752.635.626.852.987 1.207 1.754.156.334.37.57.621.744q.009.007.018.013c.453.307 1.027.402 1.634.42q.059.001.116.004h.007c.06-.002.067-.017.047-.04a.4.4 0 0 0-.096-.06l.163-.057c.023.08.402.22.47.111 3.185-5.803 13.097-4.727 16.842-.094.07.086.342.16.442.1.512-.326 1.519-.753 1.484-1.511-.053-1.123-.675-1.92-.501-3.08.337-.263.646-.573.936-.906 1.32 1.653 2.935 2.192 5.043 1.417.144-.052-.284-.226-.39-.186-.93.345-2.059.666-2.97.059-.604-.403-1.048-.933-1.465-1.52-.002-.004-.01-.005-.013-.008 1.272-1.59 1.966-3.76 1.528-5.735-.218-1-.712-1.52-1.523-2.102-.361-.26-1.297-.795-1.035-1.39.137-.303.314-.532.486-.812.413-.665.253-1.317.142-2.022 1.673 1.976 3.858 3.903 6.584 3.623.24-.025-.207-.21-.31-.197-2.692.278-4.786-2.046-6.323-3.978-.165-8.151-.856-16.353.423-24.45.016-.006.04-.006.044-.02 1.304-4.65 2.03-9.425 2.593-14.215.263-2.238.615-4.502.703-6.758.078-2.001.147-3.876.988-5.733.038-.082-.426-.244-.475-.132-.908 2-.87 3.993-1.008 6.136-.143 2.28-.463 4.554-.739 6.82-.553 4.538-1.255 9.059-2.47 13.472-.04.004-.074.014-.078.035-1.335 8.168-.63 16.44-.462 24.66-.036.008-.053.025-.027.058l.03.037q0 .055.003.11c-.001.003-.01.002-.01.005.002.034.009.068.012.102v.024q.002 0 .003.004c.1.782.39 1.6-.104 2.294-.374.533-.696.947-.298 1.539.591.881 1.842 1.113 2.212 2.2.87 2.557-.34 5.621-2.36 7.293-1.03-1.227-3.298-1.609-4.714-1.951-2.487-.6-4.998-1.13-7.542-1.418-.312-.036.083.18.205.193 2.023.23 4.024.62 6.008 1.076.864.196 1.733.388 2.583.646.551.169 1.077.368 1.617.556q.533.166 1.01.465l-.147.69c-3.226-.01-6.297-1.262-9.523-1.18-.237.008.209.201.308.2 2.093-.059 4.057.527 6.104.854 1.24.2 2.67.49 3.929.23-.075.882.263 1.406.445 2.334.2 1.019-.431 1.408-1.17 1.866-3.97-4.525-13.939-5.724-17.362-.085l-.58.23c-2.217-.03-1.136-1.121-2.113-2a16.9 16.9 0 0 1-2.907-3.409c-.466-.728-.91-1.358-.573-2.252.184-.495.415-.962.733-1.386.693-.923 1.522-1.73 2.133-2.716a.06.06 0 0 0-.02-.05c-.789-.617-1.542-1.018-.566-1.793.61-.483.375-.605.254-1.224l-.004-.03c2.523.779 4.755 2.375 7.448 2.56 2.748.192 5.416-1.237 8.033-1.955.14-.04-.282-.218-.396-.186-2.434.669-4.94 1.969-7.512 1.95-2.727-.02-5.047-1.763-7.594-2.538-.495-2.93.643-5.976 1.353-8.781 1.603-6.342 2.922-12.857 3.324-19.395l-.002-.004c.965-10.236 1.934-20.477 2.899-30.71.153.048.02-.22.02-.22l1.116-12.855C39.334 91.982 52.517 92.1 52.517 92.1l1.152 15.536c-.004.004-.019.004-.019.008.008 7.814.532 15.613.332 23.427 0 .006.011.01.013.017-.001.002-.01.002-.009.006.563 2.638.426 5.191.663 7.847.22 2.507.638 5.01 1.012 7.496.378 2.509.72 4.979.81 7.514.05 1.445.082 3.24 1.185 4.317a5.3 5.3 0 0 0-1.004-.123c-.236-.004.21.195.31.194a4 4 0 0 1 2.212.778c.579.448.965 1.071.835 1.858-.113.69-.418 1.275-.674 1.918-.484 1.22-.536 2.276.643 3.017 1.336.844 2.74 1.405 2.445 3.298-.22 1.432-.734 2.918-1.552 4.12l-.281.196.003.009a.4.4 0 0 0-.13-.027c-.293.024-.963-.935-1.302-1.098a.8.8 0 0 0-.583-.059c-.782.22-1.642 1.066-2.373 1.457-1.05.56-2.13 1.077-3.265 1.445-2.301.748-4.503.761-6.896.749-1.755-.009-3.51.05-5.133.793-.06.026.32.223.449.16 2.054-.94 4.353-.753 6.552-.739 2.014.013 3.912-.202 5.814-.918a23.8 23.8 0 0 0 5.011-2.598c.49-.334 1.206.887 1.9.988l.014.045s.546-.097.601-.242c.039-.002.079-.005.096-.03.883-1.301 2.02-3.757 1.499-5.364"/><path fill="#a86c35" d="M39.284 39.34c4.136-.208 5.014-2.527 5.202-3.565-.437.099-2.322.396-2.343-1.786-.587.357-1.207.648-1.855.8h-.002a.4.4 0 0 1-.089.008c-2.609-.05-5.546-1.3-7.858-2.426q-.09-.045-.18-.095l-.07.923-.208 2.736c.788 1.033 3.19 3.615 7.403 3.404"/><path fill="undefined" d="m32.09 33.199.07-.924.02-.264-.237-.06-.149.891-.237 2.753.122.174.194.28zM44.58 35.752l-.003-.035-.017-.182c-2.435.455-2.178-1.841-2.178-1.841h-.237c-.007.106-.002.197-.001.294.023 2.47 2.436 1.764 2.436 1.764"/><path fill="#c0e1e1" d="M21.833 106.622c.336.998 1.142 1.6 2.127 1.986.758.262 1.603.442 2.418.582.869.126 1.714.198 2.395.302 3.776.584 7.56 1.053 11.389.895-.001-.008-.012-.015-.01-.024.093-.777.359-1.52.458-2.305.11-.867.258-1.727.383-2.593.228-1.577.685-3.102.923-4.666.023-.153.338-.058.36.063.326 1.92.68 3.857.62 5.814-.025.78-.368 2.855.316 3.475 3.143-.33 6.263-.824 9.228-1.958.316-.12 4.47-2.151 4.765-3.34.003-.027.01-.056.011-.082a.4.4 0 0 0-.037-.223c-.057-.022-.106-.055-.117-.101q-.007-.037-.018-.072v-.002c-.076-.06-.065-.105-.03-.139-.556-2.284-.902-4.602-1.219-6.933-.146-1.073-.335-2.147-.423-3.226-.068-.832-.05-1.77-.343-2.562-2.536.863-5.088 2.75-7.62 3.618-3.19 1.093-5.493 2.034-8.86 2.44-2.892.35-5.563.383-8.475.383-1.255 0-2.958-.38-4.167-.672a36 36 0 0 1-2.058-.574c-.37-.116-.497-.667-.713-.416-.27.315-.331-.126-.302.19-.032.62-.085 1.117-.183 1.632-.217 2.84-.785 5.65-.82 8.505q.001.002.002.003"/><path fill="undefined" d="M57.395 104.358c-.641-2.61-1-5.27-1.363-7.93-.215-1.555-.107-3.527-.681-4.997-.053-.134-.41-.155-.338.027.007.018.01.037.017.055.292.793.274 1.73.342 2.562.089 1.08.277 2.154.423 3.226.317 2.331.663 4.65 1.218 6.933-.034.033-.045.079.03.139l.001.002q.01.035.018.072c.01.047.06.079.117.101a.4.4 0 0 1 .037.223q-.002.04-.011.082c-.295 1.189-4.449 3.22-4.765 3.34-2.965 1.133-6.085 1.628-9.228 1.959-.684-.62-.34-2.697-.317-3.477.06-1.957-.293-3.894-.62-5.813-.02-.121-.336-.217-.36-.063-.237 1.564-.693 3.09-.922 4.666-.125.866-.272 1.726-.383 2.593-.1.784-.366 1.527-.459 2.305 0 .01.01.016.011.024-3.828.158-7.613-.31-11.389-.895-.68-.104-1.526-.177-2.395-.302-.828-.119-1.674-.29-2.418-.582-.985-.387-1.792-.988-2.127-1.986l-.002-.002c.034-2.855.602-5.665.819-8.505a25 25 0 0 0 .086-2.201c-.002-.145-.366-.208-.364-.034.018 1.68-.17 3.344-.379 5.005-.19 1.517-.393 3.034-.48 4.56-.021.381-.04.763-.044 1.146q.002.002.003.006c.786 2.319 3.882 2.653 5.954 2.935 4.354.592 8.644 1.299 13.056 1.09.159-.008.118-.107.03-.175.092-.773.356-1.512.455-2.291.11-.867.252-1.728.382-2.593.183-1.207.486-2.387.725-3.575l.01-.055.01.059c.273 1.818.449 3.612.41 5.475-.014.74-.191 2.128.399 2.756-.042.075.107.206.23.192 3.827-.394 8.042-.915 11.427-2.893.668-.386 3.708-2.132 2.835-3.164"/><path fill="#302d63" d="M77.948 56.572c-1.012-1.388-.011 5.006-6.607 3.287-1.155-.298-3.046-1.964-3.646-3.288-.812-1.792.356-3.385 1.91-4.968a1 1 0 0 0 .176-.27c2.654-.616 4.92 1.08 5.85 1.928a19 19 0 0 0-1.145-1.42c-2.257-2.523-4.692-2.166-5.017-2.018 0 0-.203.053-.113-.128-.032.005-.061.004-.096.009l.048.222c-3.088 1.002-2.82 5.596-6.081 6.223-.13.024-.557-.184-.296-.237 1.118-.215 1.791-1.011 2.327-1.93-2.49-.33-4.75 2.796-5.052 4.964-.018.137-.498.03-.478-.129.355-2.537 2.883-5.5 5.644-5.035l.032-.06a.4.4 0 0 1-.153-.024c-2.75-1.095-5.246.425-6.432 2.936-.07.148-.535-.008-.478-.129 1.313-2.782 4.061-4.098 6.958-3.017-.752-1.394-1.688-2.67-2.547-4-.938-1.459-1.585-3.072-2.479-4.556-1.398-2.307-3.285-4.295-5.466-5.869a19.4 19.4 0 0 0-5.066-2.597 15 15 0 0 0-1.493-.418l-3.39-.454s-.119 3.8-5.62 4.077c-5.503.277-7.759-3.681-7.917-3.84l-3.6 1.029s-.146.08-.26.076c-4.72 1.427-10.188.851-12.703 6.016l.001.002c-1.334 2.473-2.878 4.819-4.351 7.207-1.54 2.501-2.97 5.073-4.469 7.597-1.16 1.953-2.032 4.082-3.235 5.998C1.876 65.08.254 67.06.59 68.736v.001c.545 2.144 1.622 4.03 2.922 5.799 1.504 2.051 2.765 4.274 4.018 6.479 1.82 3.196 4.25 8.745 8.552 8.9.021 0 .026-.008.054-.004 2.698.373 4.586-2.579 5.55-4.668.237-.517.433-1.053.595-1.6l.255.678-.218 5.758c-.233.107-.43.199-.545.258.42.36-.707 1.569-.44 2.011.047 1.091.171 2.258 0 2.658-.276.64 1.239.811 1.808 1.288 1.252 1.057 2.74.95 3.78 1.28 2.825.89 5.37.133 8.403.133 1.883 0 4.018-.008 5.797-.617 1.701-.581 3.162-.838 4.887-1.362 1.643-.495 3.585-1.415 5.14-2.119 1.562-.707 2.952-1.513 4.41-2.409.38-.237 1.249-.37 1.487-.674.273-.35.07-1.445-.003-1.857-.102-.575-.75-.907-.455-1.459.287-.537.877-.956 1.207-1.544.74-1.316 1.186-1.864 1.027-3.452-.07-.706-.518-1.965-.851-2.62-.408-.798-.849-1.92-1.168-2.76-.331-.864-2.176-5.354-2.508-6.516-.175-.615-1.133-5.258-1.296-5.836-.114-.41.218-5.059.183-5.45.601-.008 2.012 5.45 3.186 6.061.505.263.867 2.123 2.505 3.233.93.628 1.991 1.602 3.101 1.908 1.158.322 1.183.467 2.395.58.926.09 0 0 1.303-.358.682.02.682.02 1.758-.623.66-.396 1.967-1.087 2.464-1.534 1.19-1.086 11.81-6.583 8.056-11.728M22.701 79.827q-.002-.022-.003-.043c-.064-.486-.105-1.26-.285-1.68-.057-.125.416-.072.474.07.08.187.126.402.163.625zm-7.305-11.541c.341-.125.104-.038-.026.083-.025-.035-.025-.064.026-.083m5.592 6.366c-.055.005-.895-.074-.947-.104-.199-.124-.235-.378-.455-.429-.269.002-.143-.218-.408-.237-.463.036.02-.216-.408-.427-.617-.309.158.13-.31-.373-.12-.125-.139-.165-.238-.302-.128.02-.358-.383-.393-.545-.1-.477-.063-.122-.396-.606-.066-.013-.269-.514-.32-.581-.195-.265-.32-.637-.411-.97-.108-.064-.286-.455-.388-.531-.212-.153-.087-.075-.058-.334-.084-.058-.096-.181-.18-.244-.04.025-.05-.126-.108-.126-.35 0-.466-.1-.149-.144-.085-.073-.232-.156-.338-.232.197.08.52.26.771.386.111.042.203.076.211.07-.002-.016.021.01.022.033.052.018.093.025.104.01.056-.076.053-.193.11-.266.066-.189-.134-.774 0-.926 0-.003-.538.254.653-.334.343-.252.414-.12.76-.635.01-.038.592-.695.602-.733.132-.48.192-.013.331-.495a8 8 0 0 1 .191-.318c.03-.085.307-.272.344-.352.084-.215.151-.195.251-.403.005-.034-.046-.3-.027-.337l.05-.086c.065-.149.1-.282.185-.427.086-.318.067-.631.086-.318.106.033.138-.382.156-.245.045.702.325-.795 1.092 1.691.229.737.643 1.15.684 1.918.02.435.274.663.266 1.113.107.02.198.43.195.585-.006.48.175.453.125.928.006.188.147.776.123.959.116.536.07.26.097.805 0 .004.14.724.14 1.143 0 .55-.133.19-.107.99.089.228-.095.854.005 1.08.199.28-.121.754 0 1.05.14.337-.311.072-.63-.258a5.2 5.2 0 0 0-1.283-.443"/><path fill="#c0e1e1" d="M72.903 57.412c-1.796-.691-3.994-2.555-3.012-4.696.066-.15.532.004.477.126-.75 1.635.483 3.145 1.817 3.987 1.74 1.101 3.726.653 5.132-.675a12 12 0 0 0-.94-1.805l.008.017c-3.03-3.236-6.416-2.784-6.416-2.784-1.337.97-2.455 2.309-2.291 4.054.099 1.049.697 1.964 1.451 2.69l.065.062q.372.347.771.632c.655.466 1.42.811 2.218.986.438.096.884.137 1.328.118a4.5 4.5 0 0 0 1.15-.19c1.483-.454 2.282-1.799 2.653-3.215-1.26.953-2.866 1.287-4.411.693"/><path fill="undefined" d="m77.847 56.325-.03-.039q.034-.029.066-.058c.07-.073-.1-.167-.254-.196-.62-.977-.123-1.924-2.878-4.517-3.028-2.85-5.302-1.962-5.302-1.962a4.2 4.2 0 0 0-1.104.372c-.24.121-.46.266-.668.429-.599.467-1.077 1.09-1.474 1.822-.193.358-.379.744-.574 1.127-.723-1.285-1.594-2.47-2.378-3.719l-.06-.092c-.266-.428-.51-.87-.745-1.316-.628-1.188-1.188-2.413-1.925-3.542-.13-.198-.279-.383-.414-.577q-.244-.354-.5-.697c-1.305-1.731-2.849-3.279-4.644-4.506-1.613-1.103-3.522-2.165-5.483-2.736-.378-.11-.758-.208-1.138-.277l.04-.09c-.753-.197-3.84-.475-3.84-.475 0 .025-.003.218-.055.5-.188 1.037-1.066 3.356-5.202 3.563-4.213.211-6.615-2.37-7.402-3.404-.196-.257-.296-.421-.296-.421l-.208-.06-4.042 1.19c-.104.034-.21.06-.316.09-2.343.691-4.818.784-7.157 1.492-2.516.762-4.422 2.21-5.585 4.6l.001.002c-1.405 2.593-3.047 5.042-4.571 7.565a395 395 0 0 0-4.688 7.98c-1.114 1.944-2.015 3.993-3.2 5.89-.756 1.208-2.014 2.891-1.714 4.406 0 .002.005.003.006.005.636 2.497 2.002 4.444 3.427 6.526.31.452.604.914.898 1.376a95 95 0 0 1 2.189 3.645q.698 1.216 1.398 2.43l.36.622c1.092 1.882 2.377 4.018 4.104 5.408 1.018.819 2.193 1.37 3.57 1.463h.022c.11.008.217.023.33.024.024 0 .038-.003.055-.005 2.439.169 4.271-1.996 5.302-4 .242-.47.456-.96.653-1.457l-.437 5.477c-.814.647-.918 1.634-.891 2.613.024.762.372 1.778.096 2.514-.037.094.186.188.34.185 1.491 1.202 3.563 1.858 5.401 2.189 3.523.634 7.106.326 10.65.043 3.7-.297 6.96-1.29 10.394-2.681 1.57-.636 3.224-1.17 4.674-2.06 1.364-.834 2.599-1.612 4.15-1.982.1.037.214.06.274.024 1.068-.632-.077-2.996-.467-3.796 1.604-1.66 3.082-3.338 2.227-5.947-1.264-3.86-3.262-7.445-4.444-11.344-1.041-3.442-1.39-6.763-1.033-10.3 1.214 2.444 2.262 5.066 3.942 7.214 1.646 2.103 3.829 3.345 6.378 4.06.045.013.073.008.105.008a.3.3 0 0 0 .067.006c2.188-.278 4.238-.988 5.997-2.35a25 25 0 0 0 1.498-1.266q.007 0 .013-.002c2.648-1.313 5.021-3.343 6.611-5.842 1.03-1.62 1.659-3.829-.12-5.145m-.529-.172c-1.406 1.328-3.392 1.777-5.132.676-1.334-.843-2.566-2.353-1.817-3.987.055-.122-.411-.277-.477-.127-.982 2.142 1.216 4.007 3.012 4.697 1.544.594 3.152.26 4.413-.692-.371 1.416-1.169 2.76-2.654 3.215a4.5 4.5 0 0 1-1.15.19 5.3 5.3 0 0 1-1.328-.118 6.1 6.1 0 0 1-2.217-.986 7.5 7.5 0 0 1-.771-.632l-.065-.062c-.754-.726-1.354-1.642-1.451-2.69-.164-1.745.954-3.084 2.291-4.054 0 0 3.387-.453 6.415 2.784l-.007-.017c.532.858.816 1.498.938 1.803m-.325 5.918a17.2 17.2 0 0 1-4.466 4.138c.883-.846 1.754-1.706 2.673-2.51.113-.096-.33-.278-.447-.174-1.662 1.45-3.149 3.11-4.868 4.494-1.859 1.494-3.886 2.344-6.244 2.658-2.748-.79-4.984-2.288-6.536-4.721-1.424-2.231-2.443-4.7-3.676-7.039.41-3.336.813-6.625.565-9.993-.01-.139-.488-.24-.475-.068.247 3.362-.202 6.612-.573 9.926-.004.009-.02.012-.016.022l.011.02q-.045.394-.087.788a24.3 24.3 0 0 0 .93 9.817c1.147 3.782 2.916 7.29 4.294 10.98.7 1.878.752 3.656-.585 5.251-.416.496-.873.956-1.33 1.414-.01.002-.007.01-.014.014-.526.526-1.051 1.05-1.524 1.623-.103.127.352.293.444.179a23 23 0 0 1 1.243-1.354c.42.905 1.055 2.513.46 3.159-2.663.529-4.799 2.373-7.292 3.373-3.162 1.27-6.416 2.819-9.834 3.22-3.393.4-6.96.725-10.375.467-2.53-.191-5.48-.71-7.492-2.413a.3.3 0 0 0-.088-.04c.162-.603-.046-1.36-.09-1.952-.08-1.072-.091-2.261.831-2.989l.137-2.913 4.056 2.262c3.33 1.998 7.009 3.987 10.951 4.312 3.845.32 7.377-.9 10.71-2.74.179-.1-.263-.281-.383-.217-3.168 1.75-6.713 3.119-10.4 2.726-3.849-.413-7.314-2.233-10.588-4.194l-4.332-2.442.147-3.134c2.105-3.009 1.802-6.732 1.802-6.732a5.16 5.16 0 0 0-1.422-1.784c.013-2.324.238-4.804-.384-7.07-.493-1.808-1.063-3.84-2.002-5.476q.046.006.076-.002c2.058-.633 3.146-2.942 4.002-4.74.056-.122-.408-.276-.476-.127-.787 1.65-1.78 3.746-3.57 4.505.14-.356.278-.705.413-1.033.485-1.169.948-2.355 1.499-3.496.535-1.105 1.207-2.728 2.457-3.184.179-.066-.257-.262-.38-.218-.934.34-1.524 1.324-1.98 2.157-.667 1.22-1.189 2.5-1.72 3.78-.993 2.376-1.903 5.957-4.507 7.044-.109-.156-.223-.299-.314-.416a19 19 0 0 0-1.145-1.308c-.092-.1-.565-.143-.44-.008.598.642 1.75 1.614 1.82 2.542.056.732-.76-.08-.951-.276a6.3 6.3 0 0 0-.99-.843c-.65-.446-1.41-.697-2.166-.904-.284-.078-.338.129-.056.205.798.218 1.615.501 2.254 1.049.377.32.705.75 1.1 1.065.928.999 1.232 2.456 2.03 3.572.554.779 1.16 1.513 1.934 2.072-.598-.005-1.19.094-1.394.476-.06.113.4.277.479.13.27-.51 1.673-.351 2.09-.278 1.495.261 2.606 1.146 3.267 2.498.022.047.097.08.176.102-.023.057-.038.108-.038.108-.04 2.724-.73 4.51-1.19 5.413a9 9 0 0 0 .172-1.016c.06-.577.103-1.173.025-1.754-.042-.323-.065-.688-.11-1.043-.04-.307-.096-.606-.203-.858-.059-.143-.53-.196-.474-.07.179.418.22 1.194.285 1.679a7 7 0 0 1 0 1.92 12.6 12.6 0 0 1-1.016 3.54c-.964 2.089-2.852 5.04-5.55 4.667-.028-.004-.033.005-.053.005-4.302-.157-6.733-5.705-8.553-8.9-1.253-2.206-2.514-4.429-4.018-6.48C2.21 72.765 1.133 70.88.587 68.735c-.335-1.678 1.286-3.658 2.116-4.98 1.203-1.918 2.075-4.047 3.234-5.999 1.498-2.524 2.93-5.096 4.47-7.597 1.473-2.388 3.016-4.734 4.35-7.207v-.002c2.513-5.165 7.982-4.589 12.702-6.016.114.005.26-.076.26-.076l3.6-1.029c.159.159 2.415 4.117 7.917 3.84s5.62-4.077 5.62-4.077l3.39.454q.758.172 1.493.418a19.4 19.4 0 0 1 5.066 2.597c2.182 1.574 4.068 3.562 5.467 5.87.894 1.483 1.54 3.096 2.478 4.555.858 1.33 1.796 2.606 2.547 4-2.896-1.082-5.645.236-6.958 3.017-.058.12.409.277.478.13 1.186-2.512 3.682-4.032 6.433-2.937.049.02.103.026.153.025l-.033.06c-2.76-.465-5.288 2.497-5.644 5.034-.02.16.46.266.478.129.302-2.168 2.562-5.294 5.052-4.963-.536.918-1.21 1.715-2.327 1.93-.26.052.166.26.296.236 3.357-.646 2.964-5.502 6.348-6.312.059-.014.111-.037.173-.048.052-.01.07-.027.077-.047.82-.104 2.8.016 4.662 2.099.448.5.816.97 1.144 1.419-.95-.867-3.288-2.621-6.013-1.894v.022c-.035 0-.073 0-.096.015-1.47 1.068-2.776 2.735-2.225 4.66.43 1.502 1.62 2.715 2.986 3.434 1.322.694 2.942 1.13 4.428.744 1.757-.458 2.715-1.872 3.118-3.55 1.457 1.517.263 3.923-.834 5.382M16.72 67.93q.037.002.063-.007c1.918-.717 2.91-2.7 3.683-4.603.31.65.483 1.296.744 1.986.385 1.001.785 2.01 1.039 3.057.535 2.228.404 4.535.385 6.81a4.8 4.8 0 0 0-1.703-.644 10 10 0 0 0-.85-.11c-1.114-.732-2.16-2.083-2.702-3.28-.33-.725-.583-1.444-1.048-2.07.256.035.511-.013.585-.27.076-.277-.033-.583-.196-.87"/><path fill="#c0e1e1" d="M43.16 34.731c-.556.701-1.004 1.482-1.47 2.249q-.11.179-.22.356c-.404.646-.832 1.272-1.367 1.82-.693.713-.424.988.182 1.613.42.431.83.872 1.24 1.313.8.862 1.592 1.73 2.396 2.586.968-3.014 2.526-5.893 3.834-8.767-1.412-1.14-3.388-1.757-5.107-2.203-.05-.012-.073-.038-.102-.06l-.017.01c-.506.203.088 1.608.084.93 0-.032 0 .064-.002.096.037-.05.07-.102.108-.15.131-.162.585.02.441.207M32.984 43.143c.922.782 1.883 1.53 2.768 2.315.658-1.03 1.032-2.216 1.63-3.284.372-.664.765-1.316 1.158-1.966.547-.91-.25-1.17-.936-1.648-1.29-.894-2.583-1.859-3.747-2.948-.091-.086-.185-.168-.276-.255-.39-.378-.756-.777-1.106-1.188a14 14 0 0 1-.702-.89q-.01-.014-.02-.026c-1.395.824-2.974 1.684-3.904 3.031q-.016.019-.038.032c-.574.447 2.508 4.136 2.874 4.582.577.701 1.256 1.332 1.959 1.944l.023.014a.8.8 0 0 1 .317.287"/><path fill="undefined" d="M48.266 35.935a.1.1 0 0 0-.015-.074.15.15 0 0 0-.053-.06l-.011-.014c-1.18-.996-2.763-1.617-4.29-2.073a31 31 0 0 0-1.162-.325c-.247-.063-.332.135-.188.248.029.022.054.048.102.06 1.719.447 3.695 1.063 5.107 2.203-1.308 2.874-2.867 5.752-3.834 8.767-.805-.855-1.597-1.724-2.396-2.586-.41-.44-.819-.881-1.24-1.313-.607-.625-.875-.9-.182-1.613.535-.548.963-1.174 1.366-1.82q.113-.179.221-.356c.466-.767.913-1.547 1.47-2.249.143-.186-.31-.368-.44-.207-.039.048-.072.1-.108.15q-.15.199-.292.403c-.515.749-.954 1.547-1.45 2.31-.304.463-.61.955-.999 1.355-.153.154-.42.364-.587.598-2.583-1.936-5.388-3.656-7.252-6.372l-.006-.009c-.084-.124-.274-.19-.413-.108-1.48.882-3.203 1.776-4.205 3.226-.006.01-.005.02-.01.03-.647.739 1.868 3.624 2.27 4.133 1.687 2.158 3.97 3.76 5.982 5.601.09.085.32.176.416.04.614-.877.913-1.867 1.388-2.813.52-1.034 1.134-2.022 1.74-3.01.223.712 1.177 1.332 1.634 1.824 1.005 1.086 1.994 2.183 3.015 3.252.083.102.281.137.383.058q.049-.021.062-.06c.963-3.164 2.616-6.172 3.981-9.176.002-.007-.006-.013-.005-.02m-17.581 4.962c-.366-.446-3.449-4.136-2.874-4.583.014-.01.029-.017.038-.032.93-1.346 2.509-2.206 3.904-3.031l.02.026q.332.458.702.89c.35.411.717.81 1.106 1.188.09.088.185.17.276.255 1.165 1.089 2.456 2.054 3.747 2.948.687.477 1.483.738.936 1.648a70 70 0 0 0-1.159 1.966c-.597 1.068-.97 2.254-1.629 3.285-.885-.786-1.846-1.534-2.768-2.316-.116-.098-.225-.202-.34-.302-.704-.61-1.382-1.241-1.96-1.942"/><path fill="#a86c35" d="M49.023 18.258c-.003.006-.017.004-.02.009-.029.42-.032.834.024 1.207.002.011-.016.012-.02.02.2.92.315 1.85.34 2.779.223-.52.453-1.039.645-1.572.164-.46.227-.93.251-1.413a4 4 0 0 0-.059-.733q-.077-.772-1.161-.297"/><path fill="#a86c35" d="M45.135 30.96q.365-.409.74-.801a21 21 0 0 0 1.449-1.86c1.801-2.644 1.867-6.164 1.15-9.187-.008-.032.018-.05.06-.059-.094-1.114.131-2.44.635-3.39.002-.003.01-.001.012-.004.238-.875 3.227-12.833-10.423-13.753C24.656.956 22.963 9.18 23.833 18.685c.085.049.168.086.256.147.203.14-.276.095-.374.028-.42-.293-.783-.388-1.096-.345l-.055.01c-1.347.26-1.712 3.171-1.459 4.18.198.79.73 1.463 1.274 2.039.326.345.712.628 1.089.916 1.048.81 1.8.378 2.383-.482.086-.128.526.057.475.128q-.105.153-.22.294c.005.024.016.054.023.08.095.021.188.057.207.111 1.015 2.947 3.325 4.956 6.026 6.364 2.156 1.128 5.11 2.36 7.584 2.424 1.412-.347 2.621-1.337 3.721-2.243.512-.424.997-.891 1.468-1.375"/><g fill="undefined"><path d="M50.49 18.157c-.232-.533-.86-.656-1.36-.484-.023.007-.05.007-.072.017.103-.684.302-1.358.588-1.897.004-.007-.013-.016-.014-.024l.026-.023c1.181-3.738.244-11.788-6.495-13.421-.19-.046-.373-.085-.56-.129-2.808-.647-5.252-.947-7.512-.809-2.92.179-5.54 1.085-8.256 2.926-4.708 3.193-3.43 13.21-3.29 14.211-.087-.039-.169-.056-.253-.083-2.345-.73-3.475 3.183-2.245 5.127.726 1.15 1.868 2.24 3.152 2.745.714.281 1.27-.006 1.715-.48 1.001 2.77 3.183 4.786 5.725 6.168q-.01.002-.02.005.235.089.43.222l-.003-.012c.099.05.193.107.293.155 2.313 1.127 5.25 2.375 7.858 2.426q.06.002.09-.007h.001c.663-.157 1.298-.457 1.898-.826q.202-.165.46-.273-.01-.006-.023-.01a17 17 0 0 0 1.492-1.176c1.271-1.112 2.51-2.355 3.465-3.758 1.088-1.596 1.615-3.398 1.74-5.252.036-.006.071-.014.08-.04.57-1.661 1.878-3.495 1.09-5.298m-3.166 10.14a20.4 20.4 0 0 1-2.189 2.662c-.47.485-.956.952-1.468 1.376-1.1.907-2.31 1.896-3.722 2.243-2.473-.064-5.428-1.295-7.584-2.424-2.701-1.408-5.01-3.418-6.026-6.363-.02-.055-.111-.09-.207-.113-.024-.005-.046-.015-.07-.018q.023-.03.047-.061a5 5 0 0 0 .22-.294c.236-.626-.132-1.1-.707-1.14-1.15-.084-2.456.533-3.068-.893-.059-.132-.516-.177-.473-.078.342.802 1.08 1.193 1.92 1.293.538.067 2.232-.319 1.851.69l.001.003c-.581.86-1.334 1.29-2.381.48-.377-.288-.763-.572-1.09-.916-.543-.576-1.075-1.25-1.273-2.039-.253-1.009.112-3.92 1.46-4.18q.026-.006.054-.01c.313-.043.676.053 1.096.345.098.066.576.112.374-.028-.087-.061-.17-.098-.256-.147-.87-9.504.823-17.73 14.925-16.78 13.651.92 10.66 12.879 10.423 13.754-.002.003-.01 0-.012.005-.504.95-.729 2.275-.636 3.39-.042.008-.067.026-.06.058.718 3.022.652 6.542-1.149 9.186m2.668-7.596c-.192.533-.421 1.052-.645 1.572a15 15 0 0 0-.34-2.778c.005-.009.022-.01.02-.021a5.6 5.6 0 0 1-.024-1.207c.004-.005.018-.003.02-.009q1.085-.474 1.16.296.063.366.06.733c-.024.484-.087.955-.251 1.414"/><path d="M21.45 20.873c-.007.147.471.232.477.13.048-.99 1.332-1.147 1.96-.518.577.58 1.004 1.29 1.603 1.854.09.084.55.132.435.024-.878-.825-1.385-2.081-2.634-2.399-.753-.188-1.793-.023-1.841.91"/></g><g fill="undefined"><path d="M36.913 26.047c.338-.216.727-.26 1.105-.362.046.048.129.099.216.112.882.14 1.613.493 2.536.385.811-.094 1.566-.751 1.71-1.554.024-.134-.455-.245-.477-.127-.147.817-.95 1.484-1.79 1.5-.727.012-1.324-.272-2.005-.392.003-.072-.32-.2-.42-.166-.452.149-.915.173-1.326.431-.085.057.326.25.451.173M38.077 24.003c1.16-.455 2.42-.732 3.638-.332.192.063.495-.026.172-.132-1.415-.463-2.827-.27-4.198.266-.16.062.275.242.388.198"/></g><path fill="#fff" d="M35.63 19.875c-.146-.682-.705-1.097-1.03-1.674-.297-.534-.816-.85-1.391-1.118-1.445-.682-2.74.181-3.59 1.352-.26.36-.516.78-.448 1.25.11.762.705 1.036 1.373 1.184.899.202 2.004.319 2.885.079.455-.124 1.896-.568 2.009-1.134a.4.4 0 0 1 .154-.037"/><path fill="undefined" d="M35.323 20.122c.053.142.526.205.475.07-.543-1.531-1.372-3.177-3.137-3.44-1.178-.174-2.383.612-3.148 1.438-.382.415-.8.837-.565 1.445.23.599.693.988 1.31 1.172 1.7.51 3.932.313 5.494-.542.179-.098-.264-.277-.383-.213-1.275.698-3.364 1.06-4.775.636-1.713-.515-1.318-1.716-.401-2.553.574-.53 1.308-1.071 2.117-1.145 1.73-.16 2.541 1.797 3.013 3.132"/><path fill="#42210b" stroke="#010101" stroke-width=".237" d="M32.01 17.905a1.039 1.039 0 0 1 .737 1.78 1.04 1.04 0 0 1-1.474 0 1.04 1.04 0 0 1 0-1.474c.189-.19.45-.306.737-.306Z"/><path fill="undefined" d="M28.754 16.031c.834-2.104 3.303-2.396 5.271-1.96.28.062.333-.107.047-.172-2.111-.469-4.882-.304-5.796 2.005-.042.107.426.257.478.127"/><path fill="#fff" d="M47.362 17.974v.032c0 .62-.407 1.04-1 1.325-.763.374-1.192.523-2.04.564-.85.043-1.637.064-2.435-.175-.372-.11-.391-.146-.355-.52.031-.319.145-.486.285-.773.133-.273.153-.6.324-.84.15-.216.099-.54.28-.732.455-.488 1.075-.636 1.761-.654.606-.015 1.327.065 1.822.386.353.226 1.45.87 1.425 1.417"/><path fill="undefined" d="M41.281 19.604c-.026.153.455.266.478.127.194-1.146.54-2.82 1.748-3.345.87-.377 1.781-.113 2.553.372.841.528 1.691 1.556.446 2.339-1.307.823-3.443.986-4.894.493-.2-.07-.496.051-.179.16 1.61.552 3.741.447 5.265-.316.478-.238 1.32-1.207.834-1.805a4 4 0 0 0-.891-.788c-.803-.534-1.858-1.038-2.858-.86-1.721.302-2.247 2.12-2.502 3.623"/><path fill="#42210b" stroke="#010101" stroke-width=".237" d="M43.773 16.936a1.04 1.04 0 0 0-1.081 1.003 1.043 1.043 0 1 0 2.085.079 1.044 1.044 0 0 0-1.004-1.082Z"/><path fill="undefined" d="M42.262 13.8c1.814-.685 4.213-.896 5.323 1.038.072.125.52.159.473.078-1.255-2.185-4.104-2.099-6.187-1.315-.16.06.275.24.39.199"/><path fill="#700f10" d="M35.198 28.033c-.166.67.112 1.134.623 1.451.09.172.177.349.298.515.4.535 1.004.761 1.573 1.054.67.342 1.43.532 2.201.425.479-.062 1.26-.27 1.561-.65.343-.435.376-.86.376-1.387l.002-.073c.031-.037.068-.073.075-.11.159-.871 1.228-1.564 1.228-1.564-6.294 1.467-7.937.339-7.937.339"/><path fill="#fff" d="M35.262 28.196q.006.068.016.134c2.045.934 5.24 1.118 7.084-.296q.008-.003.017-.003c.02-.02.035-.041.055-.06-2.31.522-4.933.997-7.172.225"/><path fill="undefined" d="M42.965 27.286c-.059.008-.128.045-.116.112.002.011.013.016.017.026-.024.02-.047.04-.042.078s.032.061.06.082c-2.334.539-5.193 1.209-7.52.392q.023-.005.044-.008c.06-.007.128-.045.119-.112-.013-.075-.09-.113-.15-.136a.7.7 0 0 0-.34-.02c-.298-.012-.597.179-.513.492-.016.033-.036.064-.046.099h.005l-.001.003c-.027.164.312.257.36.097.003-.01.013-.016.017-.027.02-.013.038-.026.04-.055q0-.006.003-.011.01-.018.02-.034c.23 1.652 2.314 3.247 3.884 3.32.99.047 2.022-.058 2.842-.657.362-.264.24-.79.317-1.187.168-.846.471-1.46 1.211-1.922.007.02.02.043.023.062.017.129.294.206.348.076.043-.01.077-.033.084-.077.077-.418-.282-.636-.666-.593m-1.786 3.58c-.472.263-.994.42-1.535.454-1.163.076-2.133-.168-2.985-.992-.537-.525-1.187-1.157-1.366-1.918.207.093.417.182.643.26.116.039.239.068.358.103 1.21.351 2.596.459 3.86.234.247.153.53.295.736.507.23.235.428.507.64.76-.06.258-.16.485-.35.591m.936-2.548c-.215.29-.366.627-.444 1.018-.038.19-.054.472-.098.746-.15-.19-.3-.378-.469-.546-.228-.219-.527-.373-.793-.54-.006-.004-.022-.008-.036-.011.62-.122 1.21-.317 1.726-.616q.076-.045.151-.091-.018.02-.037.04m.265-.287q-.01 0-.017.003c-1.845 1.414-5.039 1.23-7.084.296-.009-.044-.011-.09-.016-.134 2.238.771 4.863.296 7.172-.225q-.028.03-.055.06"/><path fill="#301113" d="M50.17 14.163c-.035-.05-.051-.109-.018-.173.317-.616.257-1.421-.012-2.042-.036-.084-.008-.139.046-.173 0-.018-.018-.03-.012-.05a4.5 4.5 0 0 0-.238-3.032c-.038-.08-.013-.133.038-.168.441-1.043-.375-2.1-1.076-2.825-.062-.033-.115-.079-.128-.144-.14-.71-.661-1.232-1.114-1.762a.17.17 0 0 1-.045-.101c-.009-.01-.02-.018-.025-.027-.39-.655-.889-1.349-1.669-1.524-.12.05-.331.007-.39-.122-.376-.83-1.733-.878-2.513-.96-.013-.002-.018-.011-.029-.014-.014-.001-.02.007-.036.004C42.3.906 41.388.276 40.75.688c-.08.052-.198.035-.292-.013a.2.2 0 0 1-.138.032c-.442-.051-.886-.09-1.33-.126a.25.25 0 0 1-.196-.019h-.01c-.013-.002-.018-.011-.03-.013-.55-.268-1.223-.147-1.801-.062-.496.074-.98.086-1.48.054-.035-.001-.058-.022-.086-.035-.019.005-.02.02-.044.02a26 26 0 0 0-2.138.22c-.028.016-.067.014-.107.014l-.04.005c-.008 0-.013-.005-.021-.004-.01-.002-.014.004-.024 0-.79-.246-1.452-.11-2.013.516-.074.083-.217.08-.327.033q-.893.278-1.752.656c.013.055-.01.106-.105.133-.77.22-2.293.2-2.287 1.307 0 .158-.171.188-.312.143a11.3 11.3 0 0 0-1.47 1.346l-.019.018v.001a.2.2 0 0 1-.06.046c-.333.17-.89.417-.97.82-.027.135.002.282-.018.419-.014.107-.081.188-.16.258-.004.017-.006.034-.017.051-.304.473-.57.963-.81 1.47.01.027.032.051.024.085-.082.39-.431.627-.495 1.022-.056.352.043.714-.224 1.001a.2.2 0 0 1-.08.048q-.19.754-.277 1.527c.038.041.059.093.046.152-.083.43-.424.842-.238 1.245.075.033.139.081.144.16q.003.035.007.072.028.054.01.096.047.655.188 1.3c.189.27.211.574.297.897.05.18.098.428.245.557.1.092.143.185.139.32-.001.018-.017.021-.022.036.394.758.901 1.44 1.531 2.017a.3.3 0 0 1 .055.069c.08.004.159.028.207.084.767.872 1.277 1.794 1.765 2.82.41-.261.889-.607.703-1.096-.16-.417-.468-.797-.655-1.208-.534-1.141-1.102-2.321-1.564-3.493-.762-1.93-.245-4.507.6-6.317.855-1.837 3.031-3.168 4.822-3.943 2.737-1.184 5.934-1.191 8.864-1.048 1.588.078 3.183.303 4.763.51 1.016.135 2.002.418 2.888.947 3.305 1.964 3.458 6.526 3.223 9.907-.019.197-.296.207-.426.104-.135 1.03-.284 1.837-.333 1.986l.092-.096c.208-.288.448-.555.669-.845.565-.749.51-1.835.508-2.731"/><path fill="undefined" d="M50.605 11.902c.016-.018.04-.022.048-.048a4.8 4.8 0 0 0-.232-3.152c.006-.009.019-.009.023-.019.52-1.166-.412-2.394-1.19-3.19-.012-.012-.026-.018-.04-.027-.185-.722-.678-1.268-1.156-1.828l-.002-.001c-.005-.012-.004-.022-.012-.036-.485-.818-1.119-1.66-2.117-1.831-.022-.004-.035.007-.056.007-.554-.866-1.91-.986-2.845-1.083-.848-.191-1.78-.824-2.62-.304-.037-.024-.073-.05-.122-.057a33 33 0 0 0-1.423-.13c-1.045-.45-2.337.033-3.426-.036-.054-.003-.081.017-.114.032a.3.3 0 0 0-.14-.04c-.505.03-1.009.08-1.51.14-.225.026-.449.052-.672.086q-.121-.037-.241-.061c-.71-.139-1.358.002-1.909.463-.03.026-.06.057-.09.084q-.037-.002-.071.006c-.182.052-.357.12-.535.178a16 16 0 0 0-1.96.769c-.02.01-.031.023-.046.034-.624.134-1.35.257-1.767.666a1 1 0 0 0-.13.158q-.114.165-.162.388l-.005.002a11.7 11.7 0 0 0-1.758 1.589c-.343.17-.817.391-1.003.725-.097.173-.087.385-.12.57a.6.6 0 0 1-.074.193c-.03.05-.06.1-.12.133-.088.053-.088.122-.04.182a14 14 0 0 0-.831 1.55c-.023.05-.01.096.019.134-.13.237-.348.43-.393.709-.038.241 0 .534-.07.774q-.006.02-.016.04c-.005.014-.017.026-.023.04-.078.006-.148.033-.168.112a11.5 11.5 0 0 0-.347 1.908c-.003.035.021.06.036.089-.08.26-.225.503-.265.771-.038.286.042.51.21.725q.049.644.183 1.277c-.028.04-.028.095.03.16.229.255.242.653.328.974.033.132.076.261.14.381.04.07.136.165.175.252-.032.034-.04.082-.008.146.432.85 1 1.602 1.705 2.243.048.046.11.065.17.067l.006.008q.299.342.552.697c.035.049.064.1.098.15.466.677.838 1.392 1.196 2.166.069.145.282.198.416.11.273-.182.633-.396.878-.67q.034-.036.066-.074c.154-.197.243-.424.195-.692-.124-.688-.772-1.5-1.046-2.148-.434-1.035-1.16-2.105-1.38-3.208a8.5 8.5 0 0 1 .005-3.317c.502-2.52 1.897-4.215 4.14-5.479 2.723-1.533 5.94-1.755 9.007-1.644 1.765.063 3.51.308 5.266.505.93.105 1.874.301 2.7.762 3.346 1.867 3.462 6.376 3.226 9.73-.004.056.024.102.066.136.13.102.408.092.426-.104.235-3.38.083-7.942-3.223-9.907-.886-.53-1.872-.812-2.888-.946-1.58-.207-3.175-.433-4.764-.51-2.93-.144-6.126-.137-8.863 1.047-1.79.776-3.967 2.107-4.821 3.943-.846 1.81-1.364 4.387-.6 6.317.461 1.17 1.03 2.351 1.563 3.493.187.41.495.79.656 1.208.185.49-.293.835-.703 1.096-.489-1.026-.999-1.947-1.766-2.82-.049-.055-.128-.08-.207-.084a.3.3 0 0 0-.055-.07 7.2 7.2 0 0 1-1.531-2.016c.005-.014.02-.02.022-.035a.37.37 0 0 0-.14-.32c-.146-.13-.195-.377-.244-.558-.086-.323-.108-.628-.297-.897a9 9 0 0 1-.189-1.3q.02-.041-.01-.096c0-.024-.005-.048-.006-.073-.006-.077-.07-.126-.144-.16-.186-.401.155-.812.238-1.244a.17.17 0 0 0-.046-.152q.087-.773.277-1.527a.2.2 0 0 0 .08-.048c.267-.287.169-.649.224-1.001.063-.395.413-.633.495-1.022.008-.034-.014-.058-.025-.086.24-.506.507-.996.81-1.468.012-.019.014-.035.018-.052.079-.07.146-.15.16-.258.02-.138-.01-.285.018-.42.08-.402.637-.65.97-.819.027-.013.043-.03.06-.046q.01-.009.018-.019c.449-.494.943-.938 1.47-1.346.142.044.313.015.313-.143-.006-1.106 1.518-1.086 2.287-1.306.094-.027.118-.08.105-.134a16 16 0 0 1 1.752-.656c.11.047.253.05.327-.033.56-.625 1.224-.762 2.013-.516.01.003.014-.002.024 0 .008 0 .013.005.02.004l.04-.005c.04 0 .08.003.107-.013q1.063-.155 2.138-.22c.024 0 .026-.015.044-.02.029.013.05.034.086.035.5.032.984.02 1.48-.053.578-.085 1.251-.206 1.802.062.011.002.018.011.03.012l.01.001c.07.038.138.036.197.02.443.035.887.073 1.329.125a.2.2 0 0 0 .138-.032c.094.047.212.065.292.013.637-.413 1.55.218 2.198.363.016.002.022-.005.036-.004.012.002.017.011.029.013.779.083 2.137.131 2.514.96.059.13.268.172.39.123.779.175 1.279.868 1.668 1.524q.012.014.025.026c.002.03.012.064.046.102.452.53.972 1.052 1.113 1.762.012.062.064.109.128.142.701.726 1.518 1.782 1.078 2.824-.05.035-.076.088-.038.169.424.923.516 2.055.238 3.032-.006.019.011.032.012.05-.054.034-.082.089-.046.172.268.62.33 1.426.012 2.042-.033.064-.018.122.017.173.002.896.057 1.982-.508 2.73-.221.292-.46.558-.669.846a3 3 0 0 0-.301.497c-.099.216.376.35.477.13.288-.626.905-1.03 1.168-1.668.335-.81.318-1.725.319-2.585 0-.015-.016-.023-.02-.037.296-.682.255-1.494-.032-2.173"/><path fill="#a86c35" d="M23.575 78.494c-.126.158-.236.31-.391.453-.13.116-.154.072-.211.24-.035.104 0 .276 0 .388 0 .541.051 1.049.051 1.584 0 .654.006 1.324-.117 1.96-.106.543-.34.975-.565 1.476-.274.619-.405 1.055-.687 1.682-.269.603-.655 1.378-1.173 1.801-.26.217-.47.468-.75.655-.257.172-.345.243-.142.537.359.526 1.143.7 1.707.93.616.25.903.382 1.514-.017.576-.375 1.3-.973 1.84-1.393-.526.78.09 1.238.817 1.415.218.05.448.179.685.106.262-.08.6-.735.8-.926.451-.42.785-.678 1.032-1.232.22-.495.714-.897.788-1.47.089-.658-.623-.738-.987-.994.057-.155.375-.238.512-.348.158-.124.297-.272.407-.434.22-.326.374-.745.511-1.105.1-.255.029-.292.009-.501-.02-.16-.367-.156-.282-.338.144-.314.574-.714.554-1.073.476-.039 1.104-.131 1.406-.553.44-.615-.072-1.032-.512-1.426-.942-.843-1.796-1.754-2.909-2.378a2.2 2.2 0 0 0-.723-.27c-.304-.067-.291-.143-.427-.42-.22-.46-.783-.673-1.283-.742-.565-.08-.578.719-.744 1.104-.184.434-.484.896-.757 1.288"/><path fill="undefined" d="M27.024 77.395c.21-.074-.075-.274-.212-.223-1.309.462-2.51 1.141-3.78 1.691-.205.09.076.284.211.225 1.268-.551 2.473-1.23 3.781-1.693m-2.149 2.444c-.24.035-.03.263.13.24.316-.044.828.183 1.135.258q.68.166 1.361.339c.257.064 1.782.29 1.801.609.04.638-.102 1.207-.579 1.649-.117.11.222.252.33.151.557-.52.706-1.248.574-1.983-.012-.07-.092-.11-.149-.13a63 63 0 0 0-3.276-.857c-.383-.09-.93-.334-1.327-.276m-.534 1.91c-.174-.067-.38.097-.154.189 1.338.528 2.72.915 4.13 1.193.293.058.828-.034.749.437-.037.23-.075.465-.167.684-.288.698-.73 1.235-1.535 1.288-.244.018-.027.25.133.24 1.345-.09 1.939-1.374 1.956-2.593.002-.087-.138-.13-.2-.138a21.6 21.6 0 0 1-4.912-1.3m.145 3.027c-.247-.028-.153.217.037.24.998.124 1.939.447 2.874.796.682.251 1.38.276.954 1.14-.35.71-.852 1.28-1.287 1.933-.196.3-.378.65-.629.909-.87.91-2.052-.289-1.498-1.151l-.342-.126c-.015.022-.023.046-.039.067-.15.122.17.284.28.194.073-.06.088-.074.117-.165.05-.139-.272-.232-.34-.124-.32.498-.663 1.12-.006 1.535.411.262 1.084.519 1.572.326.732-.29 1.057-1.11 1.508-1.707.547-.733 1.134-1.484 1.232-2.424.01-.09-.076-.134-.15-.158-1.413-.484-2.788-1.1-4.283-1.285m.585 3.774c.166-.1-.158-.268-.281-.194-.674.416-1.116 1.247-1.832 1.563-1.393.614-2.274-.129-3.358-.86-.133-.091-.433.005-.23.142.784.533 1.776 1.425 2.825 1.244 1.341-.237 1.793-1.226 2.876-1.895m1.921-11.362c-.172-.081-.374.083-.153.188.99.465 1.684 1.247 2.511 1.93.43.355.903.688 1.271 1.112.622.733-.792 1.303-1.19 1.36-.242.034-.03.26.13.24.492-.067 1.086-.273 1.362-.72.326-.526.246-.754-.209-1.172-1.12-1.038-2.324-2.282-3.722-2.938m-1.196 2.281c-.073-.043-.178-.072-.255-.025-.075.044-.036.13.022.168.362.23.77.447 1.058.771.097.11.44.078.296-.089-.307-.348-.737-.579-1.12-.825m-2.799-.73c-.157.118.166.28.28.193.569-.426.99-1.09 1.284-1.73.094-.203.186-.408.244-.623.069-.276.097-.371.427-.33.7.093 1.088.471 1.04 1.195-.014.162.345.243.357.098.08-1.228-.937-1.566-1.996-1.537-.036 0-.106.024-.114.072-.096.947-.756 2.085-1.522 2.662"/><path fill="#a86c35" d="M77.627 56.098c-.228.461-1.4 1.144-1.916 1.293-.798.231-2.103.213-2.838-.114-.612-.273-1.13-.715-1.462-.999-.618-.533-.79-.654-1.16-1.33-.194-.357-.48-.939-.383-1.39.07-.326.497-.557.376-.956-.074-.244-.288-.192-.385-.373-.073-.134-.05-.378-.084-.538-.077-.364-.136-.643-.138-1.052-.008-.805-.1-1.655.226-2.395.336-.767.394-1.48.574-2.252.09-.383.274-.747.345-1.148.075-.404.021-.83.06-1.247.032-.393.111-.78.085-1.196-.024-.365-.312-.833-.193-1.197.209-.647 1.753-.354 2.004.192.114.25.161.91.2 1.197a2.3 2.3 0 0 1-.145 1.188c-.319.759-.608 1.463-.478 2.355.059.4.162.794.633.684.136-.032.282-.235.417-.298.172-.083.22-.543.409-.67.296-.2.572-.058.692-.38.167-.444.255-.783.47-1.212.187-.375.178-.801.354-1.183.18-.392.263-.627.325-1.053.139-.921.814-1.649 1.304-2.38.553-.822.892-1.637 1.665-2.277.614-.507.936-1.56 1.917-1.042 1.034.545.879 1.311.383 2.047-.766 1.147-.78 1.376-1.246 2.19-.218.387-.632.632-.91.99-.404.519-.938 1.603-.91 2.39.241-.483.87-1.35 1.246-1.74 1.142-1.175 1.93-2.921 3.101-3.865.286-.23.566-.422.825-.666.367-.344.227-.455.802-.326 1.018.228 1.06.75.975 1.709.42-.089.65-.275 1.09-.09.609.256.86 1.056.566 1.664-.214.434-.698.645-1.042.967-.391.368-.63.862-.996 1.246-.25.265-.585.534-.812.827-.348.452-.676.997-.823 1.523-.144.497-.362.63-.693 1.006-.255.29-.053.659.174 1.045.064.011.117.005.182 0 .179-.01.431-.37.574-.468.212-.147.459-.263.681-.382.444-.237.878-.468 1.292-.754.72-.496 1.359-1.358 2.287-1.354.483.002.605.18.584.672-.017.44-.242.629-.584.946-.381.349-.854.606-1.284.917-.404.296-.732.725-1.108 1.055-.78.69-1.574 1.284-2.197 2.112-.653.873-.986 2.253-1.512 3.205-.218.4-.654 1.07-.851 1.483-.23.486-.297.094-.713.469-.588.523-1.447.849-2.155 1.015"/><path fill="undefined" d="M74.769 44.863c.06-.112-.398-.274-.478-.127-.476.875-.847 1.935-1.89 2.242l.429.141c-.717-1.43.399-3.234.376-4.731-.023-1.425-1.449-1.742-2.61-1.786-.04 0-.129.005-.14.059-.259 1.07.103 2.17.011 3.276-.13 1.538-.638 2.885-.942 4.373-.418 2.047-.019 4.368 1.534 5.853.099.096.573.129.376-.058-1.604-1.537-1.966-4.207-1.263-6.248.654-1.898 1.042-4.057.68-6.051-.275-1.506 1.763-.842 1.863.303.052.601-.067 1.193-.202 1.778-.229.993-.647 2.188-.156 3.163.069.137.295.18.43.14 1.088-.319 1.485-1.41 1.982-2.327m-.478-.127c-.044.14.431.277.477.128 1.003-3.118 2.44-6.167 4.916-8.388.112-.1-.33-.281-.446-.178-2.49 2.23-3.938 5.301-4.947 8.438m4.928-8.342c-.109.1.333.28.448.178.228-.21.623-.38.918-.195.335.212.335.614.218.951-.047.139.426.278.479.129.419-1.221-1.255-1.8-2.063-1.063m-2.376 8.4c-.057.121.41.276.48.13.527-1.12 1.049-2.237 1.647-3.319.402-.73.789-1.48 1.23-2.187.411-.66.86-1.207 1.083-1.96.04-.144-.434-.276-.48-.128-.256.872-.863 1.58-1.31 2.367-.376.664-.76 1.327-1.122 1.999-.546 1.015-1.035 2.054-1.528 3.097m.213.017c-.102.137.358.296.446.177 1.959-2.626 3.187-5.91 6.036-7.747.108-.071-.312-.263-.447-.179-2.845 1.836-4.078 5.127-6.035 7.749m6.508-7.721c-.048-.008-.232-.016-.202.083.032.098.19.14.275.151.63.095 1.088.656.725 1.252-.06.104.39.274.48.129.53-.873-.532-1.502-1.278-1.615m-4.194 8.705c-.06.105.394.274.478.127.742-1.28 1.611-2.478 2.345-3.763.746-1.31 1.874-2.28 2.668-3.55.063-.1-.386-.27-.478-.127-.524.839-1.254 1.49-1.85 2.272-.468.616-.8 1.3-1.232 1.943a53 53 0 0 0-1.93 3.098m-.432.614c-.099.137.36.295.448.179 1.96-2.627 3.187-5.913 6.037-7.75.11-.071-.314-.263-.446-.179-2.849 1.838-4.08 5.127-6.039 7.75m6.51-7.721c-.05-.009-.234-.016-.202.082.03.1.186.14.275.15.629.096 1.088.657.725 1.255-.061.104.39.273.478.128.531-.875-.53-1.502-1.276-1.615m-3.813 8.644c-.007.167.472.256.477.127.044-1.393 1.222-2.573 1.937-3.687.811-1.263 1.897-2.298 2.69-3.563.064-.103-.383-.272-.477-.13-.525.84-1.252 1.491-1.847 2.273-.41.533-.72 1.119-1.1 1.668-.667.954-1.642 2.095-1.68 3.312m.197.058c-.104.128.35.293.446.18.664-.793 1.587-1.145 2.417-1.721.891-.617 1.753-1.438 2.87-1.587.261-.035-.165-.256-.297-.237-.988.133-1.766.745-2.551 1.314-.96.695-2.109 1.127-2.885 2.05m5.43-3.33c-.067-.003-.193.032-.123.118.07.091.21.119.316.125.274.016.315.376.266.587a1.15 1.15 0 0 1-.375.628c-.112.097.33.28.445.179.284-.249.524-.693.398-1.08-.128-.4-.541-.537-.927-.558m-4.209 4.907c-.112.092.326.277.447.178a295 295 0 0 1 4.294-3.45c.112-.087-.323-.275-.445-.178a290 290 0 0 0-4.296 3.45m.461.155c.06-.12-.403-.279-.478-.13-.993 2.036-1.985 4.949-3.863 6.375-1.613 1.226-3.699.178-5.332-.495-.201-.084-.492.038-.18.167 1.634.67 3.79 1.722 5.527.8.831-.442 1.422-1.314 1.902-2.09.909-1.487 1.66-3.065 2.424-4.627m-8.572-3.708c-.331-.066-.138.19.074.233 1.81.372 5.671 1.083 6.442 3.11.056.143.527.203.475.067-.38-1.004-1.42-1.556-2.355-1.965-1.502-.659-3.03-1.116-4.636-1.445m-1.883 2.242c-.1-.095-.572-.132-.378.055 1.028.993 1.817 1.82 1.675 3.337-.083.887-.285 1.801-1.033 2.365-.111.084.32.272.446.178.886-.668 1.133-1.928 1.076-2.985-.078-1.367-.856-2.053-1.786-2.95"/></svg>