<svg xmlns="http://www.w3.org/2000/svg" xml:space="preserve" width="146.7" height="144.1" viewBox="-0.3 0 146.7 144.1"><title>Slice 1</title><g fill-rule="evenodd"><path fill="#ffd499" d="M42.8 8C24 8 8.8 24.3 8.8 44.3c0 40.8 38.5 51.5 64.8 91.8 24.8-40.1 64.8-52.3 64.8-91.8 0-20-15.2-36.3-34-36.3-13.6 0-25.3 8.6-30.8 20.9C68.1 16.6 56.4 8 42.8 8"/><path fill="#fff0b3" fill-rule="nonzero" d="M73.6 143.6c-2.5 0-4.9-1.3-6.3-3.4-9.6-14.7-18.8-25.2-29.6-35.3C20 88.3 1.3 72.7 1.3 44.3 1.3 20.1 19.9.5 42.8.5c11.9 0 23 5.4 30.8 14.5C81.4 6 92.5.5 104.4.5c22.9 0 41.5 19.7 41.5 43.8 0 27.2-16.6 42.9-34.2 59.5-11.1 10.5-22.5 21.3-31.7 36.2-1.4 2.2-3.8 3.5-6.4 3.6M42.8 15.5c-14.6 0-26.5 12.9-26.5 28.8 0 21.9 12.4 33.5 29.7 49.6 8.8 8.2 18.5 17.3 27.5 29 8.9-12 18.9-21.5 27.9-30 16.5-15.6 29.5-27.9 29.5-48.6 0-15.9-11.9-28.8-26.5-28.8-10.1 0-19.5 6.5-23.9 16.5-1.2 2.7-3.9 4.5-6.9 4.5s-5.7-1.8-6.9-4.5c-4.4-10-13.8-16.5-23.9-16.5"/><path fill="#ffc" d="M97.7 1.5c-11.1 0-21.6 5-29 13.4-7.4-8.4-17.8-13.4-29-13.4C17.9 1.5.2 20.2.2 43.2c0 26.9 15.8 41.7 32.5 57.3 10.2 9.5 20.7 19.3 29.6 33.1 1.4 2.1 3.8 3.4 6.3 3.4h.1c2.6 0 4.9-1.4 6.3-3.5 8.7-14 19.4-24.2 29.8-34 16.6-15.7 32.3-30.6 32.3-56.3.1-23-17.6-41.7-39.4-41.7"/><g fill="#c9f"><path fill-rule="nonzero" d="M52.2 42.9h4.4v4.6h-4.4zm0 17.8h4.4v4.6h-4.4z"/><path d="M61.3 51.2h10.6v3.9H61.3zM75.4 74.1c2.2-4.4 3.7-7.6 4.3-9.6 1-3 1.5-6.6 1.5-10.7s-.6-7.8-1.7-11.2q-1.05-3.15-4.2-9h2.6c2.2 3.5 3.5 5.6 4 6.4s1 1.9 1.5 3.4c.7 1.8 1.2 3.5 1.5 5.2s.4 3.4.4 5c0 4.2-.7 7.9-2 11.2-.8 2.1-2.6 5.2-5.2 9.3z"/></g></g></svg>