<svg xmlns="http://www.w3.org/2000/svg" width="155.588" height="120.761" viewBox="-0.154 0.461 155.588 120.761"><path fill="#e6be6e" d="M154.932 48.212c-.128-1.36-6.296-.399-6.276-2.532s5.569-1.594 4.794-2.368c-.443-.454-29.306-.586-53.807-.769v10.405c19.759.347 40.88.602 41.211.606 2.829 0 12.42-.024 12.153-.746-.268-.721-4.535-.725-4.207-2.443.328-1.719 6.26-.79 6.132-2.153"/><path fill="#be965a" d="M144.482 43.105c.283-.419.667-.399 1.03-.594 1.414-.798 2.964-1.742 2.956-2.392 0-.798-10.218 1.072-8.788 6.897 1.162 4.744 5.668 2.583 5.397-1.846-.04-.566-.863-1.643-.595-2.065"/><path fill="#e6be6e" d="M60.957 41.705c-25.419.208-58.644.323-59.123.798-.767.797 4.793.219 4.793 2.368S.475 46.043.348 47.402c-.128 1.36 5.8.431 6.128 2.153.327 1.723-3.943 1.719-4.211 2.444-.268.726 9.324.758 12.152.746.364 0 25.444-.311 46.524-.702z"/><path fill="#be965a" d="M10.818 42.307c-.284-.418-.671-.398-1.035-.594-1.41-.797-2.964-1.742-2.956-2.392 0-.797 10.219 1.073 8.789 6.897-1.163 4.745-5.665 2.584-5.397-1.845.04-.567.879-1.643.599-2.066"/><path fill="#006482" d="m65.404 72.878-7.079 3.986c.739 5.183 13.514 8.34 24.324 9.03s21.001-4.971 21.001-4.971z"/><path fill="#281446" d="M67.589 70.521h25.779v11.965H67.589z"/><path fill="#e6be6e" d="m108.66 94.509 6.224-2.348s-.991-4.871-4.626-7.762-11.473-5.948-11.473-5.948l-12.76 3.385 17.545 10.796z"/><path fill="linen" d="m104.593 106.063 10.67-14.129-12.196.435-7.766 13.511 5.309 1.487z"/><path fill="#281446" d="m108.208 79.97-17.209-8.591-9.388 10.198 17.285 11.489z"/><path fill="#00a0dc" d="m105.28 119.53-6.607-.857-11.366.622.236 1.296 18.049.131z"/><path fill="#281446" d="M104.098 118.242a27 27 0 0 1-3.556-.426l5.194-12.507H94.49l-7.191 13.986 17.977.235a8 8 0 0 1-.399-1.044 3.2 3.2 0 0 0-.779-.244"/><path fill="#00a0dc" d="M96.931 107.849a3.07 3.07 0 0 1 3.072 3.066 3.07 3.07 0 0 1-5.244 2.167 3.05 3.05 0 0 1-.9-2.167c0-.846.344-1.612.9-2.167a3.07 3.07 0 0 1 2.172-.899"/><path fill="#006482" d="M102.032 108.292h3.052l.256-.778h-3.168z"/><path fill="#00a0dc" d="M101.685 110.109h3.056l.252-.781h-3.168z"/><path fill="#006482" d="M101.337 111.923h3.056l.252-.781h-3.168z"/><path fill="#00a0dc" d="M100.994 113.737h3.052l.251-.781h-3.163z"/><path fill="#006482" d="M100.646 115.551h3.056l.252-.777h-3.168z"/><path fill="#e6be6e" d="m52.672 94.509-6.224-2.348s1.458-4.871 5.078-7.762 10.997-5.948 10.997-5.948l12.76 3.385-17.549 10.796z"/><path fill="linen" d="M56.731 106.063 46.057 91.934l12.196.435 7.766 13.511-5.305 1.487z"/><path fill="#281446" d="m53.115 79.97 18.041-8.827 8.553 10.434-17.286 11.489z"/><path fill="#00a0dc" d="m56.044 119.53 6.607-.857 11.365.622-.239 1.296-18.049.131z"/><path fill="#281446" d="M57.226 118.242a27 27 0 0 0 3.552-.426l-5.194-12.507h11.25l7.19 13.986-17.976.235q.236-.508.399-1.044.375-.17.779-.244"/><path fill="#00a0dc" d="M64.393 107.849a3.07 3.07 0 0 1 3.072 3.066 3.07 3.07 0 0 1-5.244 2.167 3.05 3.05 0 0 1-.9-2.167c0-.846.344-1.612.9-2.167a3.07 3.07 0 0 1 2.172-.899"/><path fill="#006482" d="M59.291 108.292h-3.056l-.251-.778h3.168z"/><path fill="#00a0dc" d="M59.635 110.109h-3.052l-.252-.781h3.168z"/><path fill="#006482" d="M59.983 111.923h-3.052l-.256-.781h3.168z"/><path fill="#00a0dc" d="M60.33 113.737h-3.056l-.252-.781h3.168z"/><path fill="#006482" d="M60.678 115.551h-3.056l-.252-.777h3.168z"/><path fill="#00a0dc" d="M106.994 41.223s-50.842-.506-54.114-.43V53.04c2.644.175 6.859.191 10.858.151-2.457 10.15-5.413 23.661-5.413 23.661 2.568.969 6.511.399 9.256.455 3.927.068 7.862 0 11.781.119 7.654.256 16.85.495 24.504.08-.511-1.196-5.161-14.822-8.03-23.246 3.68.127 7.922.323 11.158.311z"/><path fill="#642800" d="M70.309 30.535s-1.953-1.073-2.948-5.299c-.715-3.049-.887-8.962.324-11.509 2.892-6.084 5.82-9.289 5.82-9.289l4.426 15.847zM91.055 30.539s3.127-11.733.399-17.462-5.789-6.702-5.789-6.702l-3.048 9.305z"/><path fill="#e6be6e" d="M89.413 33.186a43 43 0 0 0 .799-6.59c2.193-3.413 7.941-4.744 7.386.961-.411 4.094-3.987 7.1-8.185 5.629M71.256 33.206a15.4 15.4 0 0 1-5.125-.562 5.74 5.74 0 0 1-3.196-2.791c-.695-1.22-1.043-3.664 1.258-5.019 2.301-1.356 4.794.271 5.593 1.594.731 1.232 1.214 5.311 1.47 6.778"/><path fill="#e6be6e" d="m86.88 17.371-14.214-.056c-1.29 1.686-3.595 5.266-3.895 8.372 0 .135-.263 5.438 1.69 9.117 1.091 2.054 3.555 3.19 5.473 3.636 4.55 1.085 10.718.204 13.71-3.891 1.163-1.594 1.287-3.165 1.395-4.485.759-9.38-2.469-11.473-4.159-12.693"/><path fill="#642800" d="M89.485 19.488c-1.774.59-17.49 1.251-19.332.98C69.754 17.957 79.741.961 79.741.961s9.744 16.047 9.744 18.527"/><path fill="#be965a" d="M80.444 28.334a10 10 0 0 1 2.03 3.987c-1.494.51-3.692.729-5.194.227-.016-1.471.719-4.258 3.164-4.214"/><path d="M78.511 35.434c.06.174.156.333.283.467a17 17 0 0 1 2.142.099.524.524 0 0 0 .255-.566c-.871-.032-1.797 0-2.68 0M73.365 29.203c-.982 0-.599-1.391-.351-1.905a.544.544 0 0 1 .771.107 2.08 2.08 0 0 1-.42 1.798M86.456 29.339c-.974.127-.799-1.292-.619-1.838a.55.55 0 0 1 .779 0c.239.604.18 1.284-.16 1.838"/></svg>