<svg xmlns="http://www.w3.org/2000/svg" width="79.713" height="139.316" viewBox="-0.306 -0.094 79.713 139.316"><path fill="#764e2a" stroke="#000" stroke-width=".278" d="M47.6 134.002a3.333 3.333 0 0 0 3.332 3.332h2.874a3.333 3.333 0 0 0 3.332-3.332v-25.07a3.33 3.33 0 0 0-3.332-3.332h-2.874a3.33 3.33 0 0 0-3.332 3.332z"/><path fill="#010101" stroke="#010101" stroke-width=".278" d="M52.37 131.642c1.94 0 3.7.396 4.973 1.037s2.061 1.526 2.061 2.503c0 .976-.788 1.86-2.061 2.502-1.274.641-3.033 1.038-4.974 1.038s-3.7-.397-4.973-1.038c-1.274-.641-2.063-1.526-2.063-2.502 0-.977.79-1.862 2.063-2.503 1.273-.64 3.032-1.037 4.973-1.037Z"/><path fill="#764e2a" stroke="#000" stroke-width=".278" d="M31.823 134.002a3.33 3.33 0 0 1-3.332 3.332h-2.875a3.333 3.333 0 0 1-3.332-3.332v-25.07a3.33 3.33 0 0 1 3.332-3.332h2.875a3.33 3.33 0 0 1 3.332 3.332z"/><path fill="#010101" stroke="#010101" stroke-width=".278" d="M27.054 131.642c1.94 0 3.7.396 4.973 1.037 1.274.641 2.062 1.526 2.062 2.503 0 .976-.788 1.86-2.062 2.502s-3.033 1.038-4.974 1.038c-1.94 0-3.7-.397-4.973-1.038-1.274-.641-2.062-1.526-2.062-2.502 0-.977.788-1.862 2.062-2.503 1.274-.64 3.033-1.037 4.974-1.037Z"/><path fill="#603a17" stroke="#010101" stroke-width=".278" d="M13.795 96.629c.47 1.946-.402 3.98-2.147 4.568l-1.842.62c-1.744.587-3.811-.818-4.38-3.167C1.752 80.608 6.659 63.805 19.47 50.58c1.743-1.674 4.241-1.745 5.396-.311l1.219 1.514c1.153 1.433.793 3.617-.652 5.005-10.618 11.127-14.599 24.746-11.638 39.84ZM65.308 96.629c-.472 1.946.4 3.98 2.144 4.568l1.842.62c1.743.587 3.81-.818 4.379-3.167C77.35 80.607 72.44 63.807 59.63 50.58c-1.745-1.674-4.243-1.745-5.396-.311l-1.218 1.514c-1.154 1.433-.794 3.617.65 5.005 10.622 11.13 14.595 24.744 11.64 39.84Z"/><g fill="#010101"><path d="M29.448 16.52c-1.158-.776-1.553-1.735-1.692-3.132-.138-1.393-.253-2.771-.45-4.159-.3-2.12-1.803-5.043-4.481-4.018-2.205.843-1.292 3.585-.78 5.238.048.156.159.555.22.765-.04.065-.084.553-.104.621a6 6 0 0 1-.303.848c-.587 1.279-2.111.17-2.05-.935.09-1.648.243-2.82-.363-4.416-.356-.937-.742-2.005-1.478-2.72-1.601-1.555-2.951.438-3.272 1.899-.248 1.129-.283 2.485-.559 3.693-3.03-2.807-3.897-8.18-8.139-9.435C4.151.224 1.824.075.664 1.912c-.928 1.472-.293 3.56.293 5.027a19.7 19.7 0 0 0 2.607 4.628c1.632 2.139 4.059 3.729 6.327 5.119 5.773 3.538 12.592 5.74 19.339 6.247.578.044.966-.218 1.17-.596.22-.052.44-.168.644-.365 2.226-2.155.4-4.117-1.596-5.452M49.652 16.52c1.158-.776 1.554-1.735 1.693-3.132.138-1.393.253-2.771.45-4.159.3-2.12 1.802-5.043 4.48-4.018 2.205.843 1.292 3.585.78 5.238-.048.156-.159.555-.22.765.041.065.085.553.104.621.08.29.177.575.303.848.587 1.279 2.112.17 2.051-.935-.092-1.648-.244-2.82.363-4.416.355-.937.74-2.005 1.477-2.72 1.602-1.555 2.951.438 3.273 1.899.248 1.129.284 2.485.56 3.693 3.029-2.807 3.896-8.18 8.138-9.435 1.846-.545 4.174-.694 5.332 1.143.93 1.472.293 3.56-.293 5.027a19.6 19.6 0 0 1-2.607 4.628c-1.631 2.139-4.059 3.729-6.326 5.119-5.773 3.538-12.592 5.74-19.338 6.247-.58.044-.967-.218-1.17-.596a1.37 1.37 0 0 1-.644-.365c-2.227-2.155-.4-4.117 1.594-5.452"/></g><path fill="#764e2a" stroke="#000" stroke-width=".278" d="M39.56 41.954c8.339 0 15.894 4.327 21.367 11.316 5.47 6.991 8.859 16.644 8.859 27.297s-3.388 20.307-8.859 27.296c-5.473 6.99-13.028 11.317-21.367 11.317s-15.896-4.327-21.368-11.317c-5.47-6.99-8.858-16.643-8.858-27.296s3.387-20.306 8.859-27.297S31.22 41.954 39.56 41.954Z"/><path fill="#c2b59c" d="M20.043 97.344c0 5.933 1.332 11.43 3.6 15.931 4.654 3.74 10.163 5.906 16.068 5.906s11.413-2.165 16.069-5.906c2.267-4.501 3.6-9.998 3.6-15.931 0-15.256-8.806-27.623-19.669-27.623-10.862 0-19.668 12.367-19.668 27.623"/><path fill="#764e2a" stroke="#000" stroke-width=".278" d="M52.223 29.882q.069-.894.07-1.812c0-4.472-1.227-8.55-3.242-11.627.92-.221 1.875-.748 2.694-1.554 1.827-1.803 2.276-4.31 1.003-5.6s-3.786-.876-5.612.926c-.772.76-1.293 1.645-1.548 2.51-1.755-1.28-3.754-2.01-5.877-2.01-2.225 0-4.315.801-6.128 2.2-.231-.926-.773-1.885-1.6-2.7-1.826-1.803-4.34-2.217-5.612-.926s-.823 3.797 1.004 5.6c.898.885 1.961 1.433 2.96 1.61-1.992 3.071-3.206 7.125-3.206 11.57q.001.92.07 1.812c-2.6 2.143-4.191 4.948-4.191 8.026 0 3.353 1.871 6.39 4.896 8.59 3.023 2.2 7.2 3.561 11.808 3.561s8.784-1.361 11.807-3.561c3.024-2.2 4.896-5.237 4.896-8.59 0-3.078-1.593-5.882-4.192-8.025Z"/><path fill="#010101" d="M34.65 20.26c.438 0 .836.195 1.124.51.288.313.466.747.466 1.226s-.178.913-.466 1.227a1.52 1.52 0 0 1-1.124.508c-.44 0-.837-.194-1.125-.508a1.8 1.8 0 0 1-.466-1.227c0-.479.178-.913.466-1.227a1.52 1.52 0 0 1 1.125-.508M45.496 20.26c.439 0 .837.195 1.124.51.29.313.467.747.467 1.226s-.178.913-.467 1.227a1.52 1.52 0 0 1-1.124.508 1.52 1.52 0 0 1-1.124-.508 1.8 1.8 0 0 1-.466-1.227c0-.479.177-.913.466-1.227a1.52 1.52 0 0 1 1.124-.508"/><path fill="#c2b59c" d="M39.711 35.86c-6.99 0-12.657 4.282-12.657 9.565q.001.207.013.413c3.063 2.58 7.59 4.215 12.644 4.215s9.581-1.636 12.645-4.215q.012-.205.013-.413c0-5.283-5.667-9.564-12.658-9.564"/><path fill="#ec2227" stroke="#ed1c24" stroke-width=".278" d="M39.711 29.517c1.038 0 1.98.47 2.661 1.229.682.759 1.103 1.807 1.103 2.965s-.421 2.205-1.103 2.964c-.681.76-1.623 1.23-2.66 1.23-1.04 0-1.98-.47-2.662-1.23-.68-.759-1.102-1.807-1.102-2.964s.421-2.206 1.102-2.965c.682-.76 1.623-1.23 2.661-1.23Z"/><path fill="#fff" stroke="#010101" stroke-width=".278" d="M47.6 43.114c0 2.611-3.532 4.728-7.889 4.728s-7.888-2.116-7.888-4.728 3.531-2.231 7.888-2.231 7.889-.381 7.889 2.23Z"/></svg>