<svg xmlns="http://www.w3.org/2000/svg" xml:space="preserve" width="800" height="800" viewBox="0 0 512 512"><path d="M346.548 150.057c-36.217-25.543-63.38 8.516-90.543 8.516s-54.325-34.059-90.543-8.516c-46.381 32.713-63.38 221.385-63.38 221.385h307.845c.001-.001-16.999-188.673-63.379-221.385" style="fill:#707487"/><path d="M108.385 320.134c-4.354 29.758-6.302 51.308-6.302 51.308h307.845s-1.949-21.549-6.302-51.308z" style="fill:#464655"/><path d="M511.162 359.334c-1.964-3.956-6.769-5.575-10.732-3.626-.157.077-15.957 7.716-39.195 7.716H417.18c-1.616-15.309-5.974-52.625-13.683-91.949-13.744-70.117-31.35-113.172-52.328-127.968-27.274-19.235-50.721-8.979-69.562-.738-9.154 4.004-17.802 7.787-25.601 7.787-7.8 0-16.446-3.783-25.601-7.787-18.841-8.242-42.288-18.5-69.562.738-20.978 14.797-38.584 57.851-52.329 127.968-7.708 39.325-12.066 76.642-13.683 91.949H50.775c-23.238 0-39.038-7.638-39.171-7.705a8.017 8.017 0 0 0-7.17 14.341c.767.384 19.108 9.398 46.341 9.398h410.46c27.234 0 45.574-9.014 46.341-9.398 3.951-1.975 5.548-6.768 3.586-10.726M170.083 156.608c19.888-14.027 35.647-7.134 53.894.849 10.263 4.489 20.874 9.132 32.027 9.132s21.765-4.642 32.028-9.132c18.247-7.982 34.008-14.875 53.894-.849 25.504 17.988 42.914 94.631 52.432 155.508H117.65c9.519-60.877 26.93-137.521 52.433-155.508M115.267 328.15h281.474c1.871 13.267 3.318 25.323 4.349 35.274H110.918c1.032-9.95 2.48-22.006 4.349-35.274"/></svg>