<svg xmlns="http://www.w3.org/2000/svg" width="121.697" height="126.223" viewBox="0.502 0.09 121.697 126.223"><path fill="#78c8c8" d="M120.713 39.271c1.609-4.285 1.223-9.018-.966-13.048-2.124-3.773-4.634-6.076-5.47-10.553-.515-2.558-.258-5.053.064-7.611.129-1.215 1.158-4.541-.064-5.437-1.416-.256-2.446 4.222-2.704 5.053l-.45.448c-3.862 1.343-1.995-5.82-2.446-7.228a.8.8 0 0 0-.901-.255c-1.673 2.366-.901 5.564-2.703 7.803l-.708.255a3.55 3.55 0 0 1-2.381-1.407c-.258-1.215.707-4.988-.451-5.948-3.347-.064-3.154 7.419-3.089 9.53.193 3.71.836 7.291 3.153 10.298 4.827 6.395 7.917 10.489 2.768 17.652-2.188 3.07-4.57 5.821-4.699 9.722-.128 4.03 2.189 7.228 3.798 10.745 1.287 2.815 1.931 7.164-.837 9.338-2.059 1.599-7.916 1.408-11.971 1.471v13.176c5.149 0 10.941-.512 15.575-1.919 3.605-1.151 6.694-3.517 8.625-6.779 2.188-3.454 2.446-8.507 1.416-12.408-1.094-4.094-3.669-7.292-2.768-11.769s5.6-6.972 7.209-11.129"/><path fill="#aadcdc" d="M101.469 74.449c-3.798.192-4.055 5.692-.129 5.5s3.411-5.692.129-5.5M104.687 46.051c-2.124.128-2.317 3.198-.065 3.134s1.867-3.198.065-3.134M112.346 64.087c-2.124.128-2.317 3.198-.065 3.134s1.867-3.198.065-3.134M102.756 12.344c-2.124.128-2.317 3.198-.065 3.134s1.931-3.198.065-3.134"/><path fill="#78c8c8" d="M29.062 68.756c-3.926-.128-9.719-.575-11.006-2.046-3.283-3.838-1.48-11.321.386-15.479 1.352-2.942 1.995-5.5.837-8.634-1.03-2.878-3.218-4.925-4.506-7.675-1.48-3.134-1.673-6.076.065-9.082 1.866-3.198 4.376-4.605 4.376-8.571 0-3.326-.708-6.652-2.124-9.722-.514-1.087-2.96-6.332-4.827-5.372-.257 1.343 3.025 5.564.837 6.46-2.896.575-3.347-6.396-6.694-5.117-1.802 1.663 4.506 5.692.901 7.099-2.381-.575-3.411-3.07-5.985-3.518-1.609.96 3.347 7.164 3.797 8.571 1.48 4.221-.45 7.675-1.802 11.577-1.352 3.901-1.094 7.419 1.159 10.873 2.317 3.582 4.376 6.076 4.054 10.617-.579 7.739-6.243 14.519-3.668 22.45 1.223 3.582 3.99 6.46 7.53 7.867 5.342 1.791 10.942 2.814 16.605 2.942z"/><path fill="#aadcdc" d="M6.149 29.677c-2.124.128-2.317 3.198-.064 3.134 2.252-.064 1.93-3.262.064-3.134"/><path fill="#00a0b4" d="M11.555 50.656c-2.124.128-2.317 3.198-.064 3.134s1.866-3.198.064-3.134"/><path fill="#aadcdc" d="M14.516 42.341c-4.57.256-4.956 6.908-.193 6.716s4.183-6.908.193-6.716"/><g fill="#00a0b4"><path d="M59.312 116.982c-.58 5.756-2.382 7.675-5.922 8.506-1.802.448-3.539.512-5.149-.319-3.411-1.791-4.119-6.78-5.856-10.042-3.476-.959-3.025 2.686-7.981 2.686-8.625 0-8.56-4.541-10.169-17.525s33.854-8.954 33.854-8.954 1.802 19.955 1.223 25.648M65.233 114.168c-1.223-3.262.257-19.188.257-19.188l25.552 2.878s.901 8.379 1.03 11.001c.322 11.896-3.54 13.367-6.179 13.431-11.842.448-8.817-11.065-11.971-12.728-5.535-2.878-6.372 1.408-8.689 4.606"/></g><path fill="#006482" d="M38.652 35.242H82.16v33.131H38.652z"/><path fill="#fff" d="M61.307 37.736s-.708 3.902 1.158 4.605c1.867.704 3.412.768 4.12-.703s.514-4.669.514-4.669z"/><path d="M63.366 57.372c-7.916-1.152-15.06.511-19.308 4.221v6.012h33.726v-6.524c-2.768-1.919-7.66-2.686-14.418-3.709"/><path fill="#aadcdc" d="M96.191 78.414c-1.545-16.373 1.416-32.235-3.604-48.225C88.21 16.182 80.809 7.547 66.263 4.605 52.232 1.791 34.983 9.274 29.19 21.938c-6.371 13.943-4.955 29.997-6.05 44.772-.643 8.378-.064 16.373.322 24.816.322 7.931 2.703 22.705 10.556 21.298 3.604-.639 5.277-5.692 10.426-5.116 5.149.575 3.797 7.035 5.149 8.89 2.51 3.454 8.56 6.332 12.679 4.733 8.432-3.326 2.189-17.717 9.333-18.292s8.174 8.314 10.555 11.001c2.896 3.325 8.11 4.029 10.684 0 2.575-4.03 2.317-10.746 2.51-15.351.322-6.651 1.416-13.687.837-20.275M75.08 52.383c-.321 9.082-8.367 11.704-15.833 11.704S45.41 60.314 44.509 52.575c-.902-7.739 5.342-14.327 15.768-13.688 9.783.576 15.125 4.35 14.803 13.496"/><path fill="#78c8c8" d="M84.928 105.917c.193 2.174 1.094 4.029 4.376 4.221 3.798.192 2.768-15.67-1.223-15.926s-3.54 6.588-3.153 11.705M74.887 98.242c.193 1.087 1.094 1.982 4.377 2.11 3.797.064 2.767-7.803-1.223-7.995s-3.54 3.326-3.154 5.885"/><path fill="#00a0b4" d="M83.319 81.292c-3.798.384-4.055 11.001-.129 10.682 3.926-.32 3.411-11.001.129-10.682"/><path fill="#006482" d="M43.093 98.945c-3.798.192-4.055 5.693-.129 5.501s3.411-5.629.129-5.501"/><path fill="#78c8c8" d="M90.27 64.599c-3.798.192-4.055 5.692-.129 5.5 3.926-.191 3.411-5.692.129-5.5M41.612 14.135c-3.218-1.983-11.006 7.227-7.659 9.338s10.427-7.611 7.659-9.338M42.449 92.229c-2.703.128-2.961 4.094-.129 3.966s2.446-4.093.129-3.966M59.054 80.653c-2.703.128-2.96 4.093-.128 3.965s2.445-4.093.128-3.965M53.905 110.714c-2.703.128-2.96 4.093-.128 3.965s2.445-4.093.128-3.965"/><path fill="#00a0b4" d="M68.837 91.462c-2.703.128-2.96 4.093-.128 3.965s2.445-4.093.128-3.965"/><path fill="#78c8c8" d="M27.71 101.312c.258 3.262 1.738 5.948 6.822 6.204 5.922.32 4.313-23.09-1.866-23.473-6.179-.384-5.535 9.721-4.956 17.269"/><path d="M79.328 48.481c1.352.64 2.446 1.599 3.862 1.791.386.064.708.128.901.576l-.193.256c-.515.064-.966 0-1.416-.256-1.223-.64-2.446-1.216-3.669-1.855-.257-.128-.579-.256-.901-.384l-.193-.512 4.892-2.622.901.128-.065.448c-2.059.959-3.411 1.663-4.119 2.43M37.236 48.609c-.966-1.087-2.06-2.047-3.154-3.006-.193-.256-.129-.576.129-.767h.064c.064 0 .193 0 .257.063.129.064.194.128.322.256a16.2 16.2 0 0 0 3.411 3.198c.322.192.708.448.58 1.024l-.58.128c-.193 0-.386.064-.579.127-.901.384-1.738.832-2.639 1.216l-1.029.447c-.451-.064-.644-.191-.58-.575a181 181 0 0 0 3.54-1.727c.065-.128.129-.256.258-.384"/></svg>