<svg xmlns="http://www.w3.org/2000/svg" xml:space="preserve" width="89.917" height="58.227" viewBox="0.542 0.875 89.917 58.227"><title>Slice 1</title><g fill-rule="evenodd"><path fill="#efe930" fill-rule="nonzero" d="M9.028 35.401c1.197-8.664 10.585-13.46 25.313-16.264 8.31-1.583 22.582-2.682 31.275-3.25A86 86 0 0 0 45.5 13.59c-24.546 0-44.458 9.497-44.458 21.206 0 7.927 9.148 14.838 22.678 18.476C13.818 48.487 8.034 42.433 9.028 35.4"/><path fill="#ffff4f" fill-rule="nonzero" d="M65.616 15.887c-8.693.568-22.966 1.667-31.275 3.25-14.728 2.803-24.08 7.6-25.313 16.264-.994 7.033 4.79 13.086 14.692 17.871a84.8 84.8 0 0 0 21.78 2.731c24.546 0 44.458-9.497 44.458-21.206 0-8.253-9.902-15.406-24.342-18.91"/><path fill="none" stroke="#db20a5" stroke-width=".96" d="M65.616 15.887A86 86 0 0 0 45.5 13.59c-24.546 0-44.458 9.497-44.458 21.206 0 7.927 9.148 14.838 22.678 18.476a84.8 84.8 0 0 0 21.78 2.73c24.546 0 44.458-9.497 44.458-21.206 0-8.253-9.902-15.406-24.342-18.91Z"/><path fill="#db20a5" fill-rule="nonzero" stroke="#db20a5" stroke-width=".96" d="M45.5 34.048c-14.656 0-23.157-4.423-26.773-6.888a24 24 0 0 0-.767 6.393c7.185 6.041 16.464 7.817 27.54 7.817s20.355-1.824 27.54-7.817a24.2 24.2 0 0 0-.719-6.393c-3.664 2.465-12.165 6.888-26.821 6.888Z"/><path fill="#fff" fill-rule="nonzero" d="M57.57 4.287a23.7 23.7 0 0 0-7.82-2.598 30 30 0 0 0-4.106-.29 24.84 24.84 0 0 0-12.118 2.9A27.2 27.2 0 0 0 45.5 6.849c4.164.085 8.292-.79 12.07-2.562"/><path fill="#ffff4f" fill-rule="nonzero" d="M72.285 27.16c-.108-.531-.24-1.075-.371-1.63-1.676-6.925-5.628-16.507-14.369-21.243A27.1 27.1 0 0 1 45.5 6.848c-4.13.072-8.224-.8-11.974-2.55C24.797 9.06 20.87 18.63 19.158 25.53c-.132.556-.264 1.1-.371 1.631 3.592 2.417 12.13 6.888 26.785 6.888 10.56 0 17.96-2.296 22.558-4.507a31 31 0 0 0 4.155-2.38"/><path fill="none" stroke="#db20a5" stroke-width=".96" d="M71.914 25.53c-2.12-8.75-7.867-21.75-22.307-23.865a30 30 0 0 0-4.107-.29c-17.494 0-24.103 14.62-26.414 24.166-.132.556-.263 1.1-.36 1.631C22.32 29.59 30.845 34.06 45.5 34.06c10.56 0 17.96-2.296 22.558-4.507 1.47-.693 2.883-1.5 4.227-2.417-.108-.507-.24-1.051-.371-1.607Z"/><path fill="#ff7bd0" fill-rule="nonzero" stroke="#db20a5" stroke-width=".768" d="M65.628 35.401a26.3 26.3 0 0 0 4.61 6.972 71 71 0 0 0 9.71 7.335l-5.987 3.625a24.8 24.8 0 0 1-8.609-6.416 44 44 0 0 1-6.058-9.74z"/><path fill="#ffc0ec" fill-rule="nonzero" stroke="#db20a5" stroke-width=".768" d="M57.641 37.588a34.1 34.1 0 0 1-.658 8.459c-1.33 5.763-5.64 12.554-5.64 12.554l7.95-.713a28.8 28.8 0 0 0 4.347-10.56c.605-3.8.713-7.664.323-11.492zM72.465 21.76c-4.526 2.766-9.268 10.004-9.268 10.004l.647 2.417.646 2.416s7.723 3.819 13.016 3.88c1.197 0 .072-5.535-1.066-9.728s-2.922-9.63-3.975-8.99Z"/><path fill="#ffc0ec" fill-rule="nonzero" stroke="#db20a5" stroke-width=".768" d="M44.458 29.456c5.293.073 13.016 3.891 13.016 3.891l.634 2.417.647 2.416s-4.79 7.25-9.268 10.005c-1.041.64-2.837-4.736-3.963-8.93-1.126-4.192-2.287-9.81-1.066-9.799Z"/><path fill="none" stroke="#ff7bd0" stroke-width=".96" d="m53.87 34.87 3.005.145M54.84 38.591l2.562-1.619M64.957 32.791l2.658-1.812M65.484 34.749l3.077.048"/><rect width="8.324" height="7.139" x="13.19" y="9.606" fill="#ff7bd0" fill-rule="nonzero" stroke="#db20a5" stroke-width=".764" rx="2.304" transform="rotate(-15.154 119.876 -138.079)"/></g></svg>