<svg xmlns="http://www.w3.org/2000/svg" width="273.27" height="118.68" viewBox="0 0 273.27 118.68"><g fill="none" stroke-linecap="none" stroke-linejoin="none" stroke-miterlimit="10" stroke-width="none" data-paper-data="{&quot;isPaintingLayer&quot;:true}" font-family="none" font-size="none" font-weight="none" style="mix-blend-mode:normal" text-anchor="none"><g data-paper-data="{&quot;index&quot;:null}"><path fill="#f7c1d8" d="M234.365 96.565a8.55 8.55 0 0 1 2.515 6.065 8.55 8.55 0 0 1-2.515 6.065 8.55 8.55 0 0 1-6.065 2.515 8.55 8.55 0 0 1-6.065-2.515 8.55 8.55 0 0 1-2.515-6.065 8.55 8.55 0 0 1 2.515-6.065 8.55 8.55 0 0 1 6.065-2.515 8.55 8.55 0 0 1 6.065 2.515"/><path fill="#5e154d" stroke="#5e154d" stroke-linecap="round" stroke-linejoin="round" stroke-width="1.44" d="M228.3 87.96c8.284 0 15 6.716 15 15s-6.716 15-15 15-15-6.716-15-15 6.716-15 15-15m0 22.38a7.47 7.47 0 1 0-.361-14.935 7.47 7.47 0 0 0 .361 14.935"/><path fill="#fff" stroke="#da53d6" stroke-linecap="round" stroke-linejoin="round" stroke-width="1.08" d="M231.015 100.155a3.83 3.83 0 0 1 1.125 2.715c0 1.059-.43 2.019-1.125 2.715a3.83 3.83 0 0 1-2.715 1.125 3.83 3.83 0 0 1-2.715-1.125 3.83 3.83 0 0 1-1.125-2.715c0-1.059.43-2.019 1.125-2.715a3.83 3.83 0 0 1 2.715-1.125c1.059 0 2.019.43 2.715 1.125"/></g><g data-paper-data="{&quot;index&quot;:null}"><path fill="#f7c1d8" d="M98.88 90.9c6.627 0 12 5.373 12 12s-5.373 12-12 12-12-5.373-12-12 5.373-12 12-12"/><path fill="#5e154d" stroke="#5e154d" stroke-linecap="round" stroke-linejoin="round" stroke-width="1.44" d="M98.88 87.96c8.284 0 15 6.716 15 15s-6.716 15-15 15-15-6.716-15-15 6.716-15 15-15m0 22.38a7.47 7.47 0 1 0-7.47-7.47 7.44 7.44 0 0 0 7.47 7.47"/><path fill="#fff" stroke="#da53d6" stroke-linecap="round" stroke-linejoin="round" stroke-width="1.08" d="M101.595 100.155a3.83 3.83 0 0 1 1.125 2.715c0 1.059-.43 2.019-1.125 2.715a3.83 3.83 0 0 1-2.715 1.125 3.83 3.83 0 0 1-2.715-1.125 3.83 3.83 0 0 1-1.125-2.715c0-1.059.43-2.019 1.125-2.715a3.83 3.83 0 0 1 2.715-1.125c1.059 0 2.019.43 2.715 1.125"/></g><g data-paper-data="{&quot;index&quot;:null}"><path fill="#f7c1d8" d="M55.65 90.9c6.627 0 12 5.373 12 12s-5.373 12-12 12-12-5.373-12-12 5.373-12 12-12"/><path fill="#5e154d" stroke="#5e154d" stroke-linecap="round" stroke-linejoin="round" stroke-width="1.44" d="M55.65 87.96c8.284 0 15 6.716 15 15s-6.716 15-15 15-15-6.716-15-15a15 15 0 0 1 15-15m0 22.38a7.47 7.47 0 0 0 7.47-7.47 7.47 7.47 0 0 0-7.47-7.47 7.47 7.47 0 0 0-7.47 7.47 7.47 7.47 0 0 0 7.47 7.47"/><path fill="#fff" stroke="#da53d6" stroke-linecap="round" stroke-linejoin="round" stroke-width="1.08" d="M58.455 100.155a3.83 3.83 0 0 1 1.125 2.715c0 1.059-.43 2.019-1.125 2.715a3.83 3.83 0 0 1-2.715 1.125 3.83 3.83 0 0 1-2.715-1.125 3.83 3.83 0 0 1-1.125-2.715c0-1.059.43-2.019 1.125-2.715a3.83 3.83 0 0 1 2.715-1.125c1.059 0 2.019.43 2.715 1.125"/></g><g stroke="#5e154d" stroke-linejoin="miter" data-paper-data="{&quot;index&quot;:null}"><path fill="#fdbb38" stroke-linecap="butt" stroke-width="1.44" d="M159.9 105.51h-28.08V92.34h28.08z"/><path stroke-linecap="round" stroke-width="1.08" d="M151.62 92.34v13.17M140.07 105.51V92.34"/><path fill="#fff" stroke-linecap="round" stroke-width="1.44" d="M185.19 92.34H.72v-9.39h184.47z"/><path fill="#fdbb38" stroke-linecap="butt" stroke-width="1.44" d="M185.19 102.87H6.99V92.34h178.2z"/></g><g data-paper-data="{&quot;index&quot;:null}"><path fill="#25b0b7" d="m261.9 65.88-20.25-11.4-.93-4.41s18.27 10.11 22.2 12.33c4.47 2.49 4.44 4.65 4.44 9.96v30.51h-3.18V72.06c-.06-2.7-.15-4.92-2.28-6.18"/><path fill="#43c3d7" d="M225.69 10.5c4.35 0 6.21 1.17 7.23 5.73.21 1.08.72 3.24 1.32 6h-3.69a2.28 2.28 0 0 0-2.25 2.25v21.33a2.28 2.28 0 0 0 2.25 2.28h9.63l.48 1.98.99 4.41 20.31 11.4c2.13 1.2 2.22 3.48 2.22 6.18v30.81h-16.89c0-10.306-8.354-18.66-18.66-18.66s-18.66 8.354-18.66 18.66h-24.72V10.5z"/><path stroke="#009cc6" stroke-linecap="round" stroke-linejoin="round" stroke-width="1.08" d="M203.94 57.48h-9.36v-3.54h9.36z"/><path stroke="#5e154d" stroke-linecap="round" stroke-linejoin="round" stroke-width="1.44" d="M256.83 92.37h-6v-3.33h6z"/><path stroke="#009cc6" stroke-linecap="round" stroke-linejoin="round" stroke-width="1.08" d="M192.87 17.19h27.78a2.61 2.61 0 0 1 2.58 2.58v59.7a21 21 0 0 0-17.31 16.71h-13.08a2.61 2.61 0 0 1-2.58-2.58V19.77a2.61 2.61 0 0 1 2.61-2.58"/><path stroke="#009cc6" stroke-linecap="round" stroke-linejoin="round" stroke-width="1.08" d="M219.12 62.82h-3.48v-6.45h3.48z"/><path fill="#f7c1d8" d="M194.55 22.23h2.85l9.03 25.86h-11.88zM219 22.23v25.86h-3.66l-9.03-25.86z"/><path fill="#ffeef6" d="m206.31 22.23 9.03 25.86h-4.53l-9.06-25.86z"/><path fill="#f7c1d8" d="M230.55 22.14h3.69c1.83 8.01 4.83 21 6 25.86h-3.42l-8.43-24a2.31 2.31 0 0 1 2.16-1.86M234.24 48.09h-3.69a2.28 2.28 0 0 1-2.25-2.28V30.48z"/><path fill="#ffeef6" d="M228.3 24.48q-.023-.225 0-.45l8.43 24h-2.52l-6-17.61z"/><path fill="#f7c1d8" d="m201.75 22.23 9.06 25.86h-2.37l-9.03-25.86z"/><path fill="#ffeef6" d="m199.41 22.23 9.03 25.86h-2.01l-9.03-25.86z"/><path fill="#43c3d7" stroke="#5e154d" stroke-linecap="round" stroke-linejoin="round" stroke-width="1.08" d="M239.88 16.32c1.26 0 1.56 1.32 2.28 3.72.99 3.33 2.67 9.72 2.67 9.72h-4.65l-3.3-13.44z"/><path fill="#43c3d7" stroke="#5e154d" stroke-linecap="round" stroke-linejoin="round" stroke-width="1.08" d="m236.88 16.32.87 3.48h-4.05l-.78-3.48z"/><path stroke="#5e154d" stroke-linecap="butt" stroke-linejoin="round" stroke-width="1.44" d="M225.69 10.5c4.35 0 6.21 1.17 7.23 5.73.21 1.08.72 3.24 1.32 6 1.83 8.01 4.83 21 6 25.86l.48 1.98s18.27 10.11 22.2 12.33c4.47 2.49 4.44 4.65 4.44 9.96v30.51h-20.07c0-10.306-8.354-18.66-18.66-18.66s-18.66 8.354-18.66 18.66h-24.72V10.5z"/><path stroke="#5e154d" stroke-linecap="round" stroke-linejoin="round" stroke-width="1.08" d="M219 48.09h-24.45V22.23H219z"/><path stroke="#5e154d" stroke-linecap="round" stroke-linejoin="round" stroke-width="1.44" d="M225.69 10.5c4.35 0 6.21 1.17 7.23 5.73.21 1.08.72 3.24 1.32 6 1.83 8.01 4.83 21 6 25.86l.48 1.98s18.27 10.11 22.2 12.33c4.47 2.49 4.44 4.65 4.44 9.96v30.51h-20.07c0-10.306-8.354-18.66-18.66-18.66s-18.66 8.354-18.66 18.66h-24.72V10.5z"/><path stroke="#5e154d" stroke-linecap="round" stroke-linejoin="round" stroke-width="1.08" d="M228.33 24.03a2.31 2.31 0 0 1 2.22-1.8h3.69c1.83 8.01 4.83 21 6 25.86h-9.69a2.28 2.28 0 0 1-2.25-2.28V24.48a2.3 2.3 0 0 1 .03-.45"/><path fill="#00828c" stroke="#5e154d" stroke-linecap="round" stroke-linejoin="round" stroke-width="1.08" d="M269.55 94.8v2.79h-13.23l-.6-2.79zM269.55 100.05h-12.72l-.51-2.46h13.23zM255.21 92.34h14.34v2.46h-13.83z"/><path fill="#fdbb38" d="M267.3 77.1h2.25c1.74 0 2.49 2.55 2.79 5.13h-5.04z"/><path fill="#fff" d="M272.34 82.14c.201 1.702.271 3.417.21 5.13h-5.25v-5.13z"/><path stroke="#5e154d" stroke-linecap="round" stroke-linejoin="round" stroke-width="1.44" d="M269.55 77.1c1.74 0 2.49 2.55 2.79 5.13.201 1.702.271 3.417.21 5.13h-5.25V77.1z"/></g><g data-paper-data="{&quot;index&quot;:null}"><path fill="#da53d6" d="M5.43 11.91C5.43 3.72 9.09.72 14.88.72h166.35v81.81H5.43z"/><path stroke="#5e154d" stroke-linecap="round" stroke-linejoin="round" stroke-width="1.44" d="M5.43 11.91C5.43 3.72 9.09.72 14.88.72h166.35v81.81H5.43z"/><path stroke="#fc9fe4" stroke-linecap="butt" stroke-linejoin="round" stroke-width="1.44" d="M5.43 16.77h175.8M5.43 33.51h175.8M181.23 50.25H5.43M181.23 66.99H5.43"/><path stroke="#fff" stroke-linecap="round" stroke-linejoin="round" stroke-width="1.8" d="M10.11 12.72v-2.34a4.89 4.89 0 0 1 5.58-5.34h3.21"/><path fill="#5e154d" stroke="#5e154d" stroke-linecap="round" stroke-linejoin="round" stroke-width="1.08" d="M185.19 82.53h-3.96V14.7h3.96z"/></g></g></svg>