<svg xmlns="http://www.w3.org/2000/svg" width="127.736" height="125.405" viewBox="-0.492 0.258 127.736 125.405"><path fill="#281446" d="M44.086 111.815c-.186-.702-.336-1.408-.55-2.062S40.955 100.5 39.944 98.3s-2.426-4.87 4.065-6.306c6.492-1.437 4.045 19.074 3.77 20.093-.328-.171-3.58-.272-3.693-.272"/><path fill="#f01446" d="M43.305 111.535c.211 3.458.724 6.437-.635 9.74h1.125c2.491-2.695 4.497-6.039 4.914-9.74a12.2 12.2 0 0 0-5.404 0"/><path fill="#f04650" d="M49.041 111.616c.056-.499.101-1.063.125-1.502h-6.293l.089 1.502z"/><path fill="#281446" d="M48.074 121.823s-2.641.284-3.794 0c0-.036.538-.864.951-1.567H42.42c-.097.264-.195.528-.3.784a2 2 0 0 1-.319.584c-.522.576-.449.666-.093 1.242l-.182 1.891c-.029 0 .064.284.129.406.477 0 .635-.089.627-.487 0-.58-.061-1.161-.101-1.798q.48-.198.987-.304c.222.349.307.768.238 1.177a.813.813 0 0 0 .405 1.031l.404-.252c-.056-.373-.133-.706-.153-1.043-.021-.337 0-.694.02-1.039 1.039.037 1.169.211 1.043 1.145a9 9 0 0 0 0 1.103l.405.167c.328-.199.243-.451.234-.69-.024-.536-.194-1.092.231-1.567h.833c.138.723-.077 1.441.134 2.184l.57-.065v-2.167h.599zM46.691 115.768h-3.483l-.008-1.153h3.491z"/><path fill="#be0a3c" d="M46.739 119.006c-2.685.358-2.35-2.37-1.974-3.652.49-1.644.631-3.438 3.188-3.474 1.314 0 1.585 1.989 1.108 3.754-.445 1.668-1.586 3.084-2.322 3.372"/><path fill="#281446" d="M55.322 102.744s-2.427-.844-3.41 1.141 1.776 2.841 1.776 2.841c.243.081 12.312 3.246 12.51 3.084.194-.365.246-2.488.404-2.821-.073-.32-11.098-4.314-11.28-4.245"/><path fill="#f04650" d="M85.919 108.524c-5.464-2.549-17.472-5.191-17.472-5.191l-3.062 11.432c1.557.893 3.531 1.855 5.14 2.707a75 75 0 0 0 7.248 3.511c1.295.519 5.469 2.788 6.71 1.355 1.78-2.053-5.755-4.078-5.488-5.097s7.45 2.512 8.518.649c1.686-2.942-6.156-4.906-6.277-6.051.869-.876 4.873 1.81 6.532 1.486 4.044-.763-.085-3.978-1.849-4.801"/><path fill="#f01446" d="M84.455 103.101c-.263-4.439-13.537.362-15.705.934l-3.058 7.488c2.022 1.623 4.012 2.987 6.654 2.918 3.951-.11 5.015-3.279 5.747-6.563 2.548-.089 6.54-1.737 6.362-4.777"/><path fill="#be0a3c" d="M70.04 103.365c-.59 2.691-1.67 5.159-2.512 7.772-.622 1.936-1.084 5.873-3.87 3.677 0-2.711.809-5.357 1.723-7.881.845-2.297 1.614-6.153 4.659-3.568"/><path fill="#281446" d="M18.985 70.22c.105-.162-1.957-3.616-2.831-6.753-.963-3.47-.76-6.664-.942-7.208l-3.43-.049c0 .09.327 5.621 1.327 9.018a15.2 15.2 0 0 0 2.976 5.763s.712 3.17 2.686 2.317.214-3.088.214-3.088"/><path fill="#f04650" d="M20.437 56.722c0-5.134 1.618-20.471.259-22.322s-3.098-1.599-3.854.244a9.2 9.2 0 0 0-.405 3.177c0-.255.878 2.841-.441 1.624s-.404-6.019-3.454-5.779c-1.488 2.195-1.298 4.464-.966 6.972-.247.321-.474.349-.773.138-.404-1.575-.663-5.373-2.317-6.291-2.896-1.623-2.589 6.112-2.589 6.112S5.788 51.73 8.101 55.95z"/><path fill="#f01446" d="M21.574 45.687c.404-2.119 3.191-5.439 5.294-4.197 2.52 1.494-.032 5.065-1.213 6.875-2.022 3.068-4.344 7.711-8.32 7.744-1.553 0-4.016.568-5.468.061-1.618-.569-1.214-2.569-1.108-4.217.169-2.65 1.189-4.732 3.417-6.234 2.86-1.936 4.429-.686 7.398-.032"/><path fill="#be0a3c" d="M21.262 54.826c-.036 1.79.312 3.06-1.682 3.807-1.638.613-9.153.248-10.771-.195-2.358-.641-2.164-1.858-1.852-4.058q.404.029.809 0 3.49-.105 6.989-.029c1.913.037 4.788-.28 6.507.475"/><path fill="#281446" d="M15.644 79.295c-.097.032-.19.065-.291.105a21.5 21.5 0 0 0-4 2.476l2.022 4.383.073-.028c.487-.212.996-.37 1.517-.471.231-.029 6.471-.378 7.802-.625 0 0 5.456-.357 4.045-6.015s-11.168.175-11.168.175"/><path fill="#f01446" d="M5.323 92.026c2.091-2.179 5.61-3.628 8.348-4.655-.405-2.869-1.104-3.876-2.872-6.201-.781.738-2.864 2.8-4.045 4.687-1.617 2.589-2.329 5.191-2.426 6.697l.17.223c.194-.327.481-.589.825-.751"/><path fill="#281446" d="m9.95 85.672 1.47 3.165-1.044.485-1.47-3.165z"/><path fill="#f04650" d="M13.796 88.073c.862-.312 1.885-.657 1.994-.706l-3.503-8.003c-.428.345-1.419.876-1.909 1.331z"/><path fill="#281446" d="M5.036 93.154c.028-.032.477-.45.505-.483l-1.136-2.309a5.7 5.7 0 0 1-.72 1.136l-1.909-3.81s-.405.239-.518.308l.214.686c-.364.609-1.063.312-1.464.722v.406c.303.325.55.138.809-.032.265-.233.596-.375.946-.406l.595.99c-.295.568-.975.227-1.339.735l-.052.353c.404.272.477.276.809 0 .238-.255.585-.378.93-.329l.477 1.031-1.593.621c-.191.239-.263.458 0 .714.598-.106 1.213-.718 1.888-.706.065.32.332.649.405.933-.304.102-1.311.349-1.569.435a2 2 0 0 0-.098.235 1 1 0 0 0 0 .179c.316.373.405.405.781.211.311-.151.995-.467 1.31-.613l.049-.021c.016.065.498-.795.68-.986"/><path fill="#be0a3c" d="M8.583 87.306c1.731-1.562 3.595-2.886 1.715-4.817h.024c-1.869-.812-4.575 1.104-5.335 2.897-1.116 2.61 1.484 3.807 3.596 1.92"/><path fill="#f04650" d="M121.702 52.959c3.122-4.159 6.706-8.733 4.198-14.147-2.617-5.654-7.446-5.702-12.486-3.016-4.449 2.383-8.396 5.889-12.316 9.067-1.84 1.493-10.196 8.6-13.804 7.934-1.213-2.496 8.708-12.232 10.921-15.016 4.263-5.418 11.511-12.224 7.988-19.594-1.711-3.576-5.663-6.396-9.594-6.9-4.219-.552-7.863 2.983-10.589 5.816-4.671 4.87-8.311 11.039-12.024 16.68-.809 1.218-3.778 6.153-5.946 4.148-1.424-1.311 6.027-16.063 7.398-19.168 1.314-2.955 3.041-6.899 3.017-10.187-.077-9.334-11.212-9.363-17.02-5.02-6.41 4.789-10.216 12.987-14.087 19.761-4.388 7.662-9.137 15.073-13.472 22.727-2.334 4.127-11.002 16.027-11.811 18.015l34.804 35.483c2.237-1.014 4.372-3.096 6.362-4.513l13.784-9.833c6.633-4.733 13.133-10.187 20.142-14.351 4.821-2.865 9.505-5.568 13.958-9.026 3.337-2.565 8.024-5.459 10.577-8.86"/><path fill="#f01446" d="M118.021 86.62c.376-.54 1.141-1.83 1.282-1.863 5.845-10.438-6.924-14.001-14.775-12.581-4.202.755-10.261.861-14.075-1.27-4.214-2.358-7.122-7.046-10.997-9.972-8.385-6.331-18.605-6.193-27.305-.661-4.417 2.804-8.235 6.574-11.907 10.284-1.857 1.875-4.886 3.985-6.326 6.144l24.267 22.403c9.267-.029 18.403-.061 27.649-.649 5.739-.366 11.402-1.551 16.987-2.841 5.453-1.303 11.928-4.294 15.2-8.994"/><path fill="#be0a3c" d="M64.936 100.269S44.782 81.45 39.37 76.486L27.018 90.155c8.781 8.056 25.885 22.533 25.885 22.533z"/><path fill="#281446" d="M17.796 83.15c-2.564-2.512-5.735-5.04-7.596-8.145 1.55-2.135 12.64-15.016 12.64-15.016S37.206 73.747 37.501 73.67c4.162 3.786 11.859 10.925 7.726 17.151-1.922 2.893-5.792 5.353-9.303 5.316-3.826-.04-6.71-2.731-9.594-4.894-.004.016-5.703-5.353-8.534-8.093"/><path fill="#f01446" d="M27.345 88.162c-2.159-2.155-4.416-4.176-6.6-6.298-2.023-1.948-8.421-8.036-9.918-10.394 1.076-1.518 8.927-10.187 8.927-10.187s15.102 14.363 15.317 14.323c3.235 2.946 9.229 8.494 6.382 12.934-1.323 2.061-4.117 3.734-6.726 3.579-2.852-.17-5.096-2.26-7.321-3.965z"/></svg>