<svg xmlns="http://www.w3.org/2000/svg" xml:space="preserve" width="106.911" height="141.853" viewBox="-0.363 1.273 106.911 141.853"><title>Slice 1</title><g fill-rule="evenodd"><g fill-rule="nonzero"><path fill="#005a61" d="M.267 68.73c0-17.67 14.224-31.994 31.768-31.994 17.545 0 31.767 14.324 31.767 31.993v23.096h-27.35V69.138c0-2.457-1.978-4.449-4.417-4.449s-4.417 1.992-4.417 4.45v30.456H.267z"/><path fill="#17242d" d="M32.035 45.89c12.41 0 22.507 10.169 22.507 22.667v23.269h-.839V68.557c0-12.033-9.72-21.822-21.668-21.822s-21.668 9.79-21.668 21.822v31.038h-.84V68.557c0-12.498 10.097-22.667 22.508-22.667"/><path fill="#17242d" d="M17.835 99.595V69.32c0-7.886 6.37-14.3 14.2-14.3s14.2 6.414 14.2 14.3v22.505h-.84V69.32c0-7.419-5.994-13.455-13.36-13.455-7.367 0-13.36 6.036-13.36 13.455v30.274z"/></g><path fill="none" stroke="#ffdb5d" stroke-width="1.26" d="m56.764 120.08 14.137 12.047c2.918 2.487 3.103 6.954.4 9.674"/><path fill="#751d18" fill-rule="nonzero" d="M75.29 120.287c4.047-1.848 5.84-6.652 4.004-10.728s-6.605-5.881-10.653-4.031a8 8 0 0 0-2.764 2.091l-.003-.005-9.639 11.023c-.814.93-.156 2.393 1.074 2.39l14.603-.023a7.95 7.95 0 0 0 3.379-.717"/><path fill="#17242d" fill-rule="nonzero" d="M36.432 91.849c0-7.796 6.274-14.117 14.017-14.117l3.299-.001c.047-.003.1-.011.144-.011h50.554s.009 8.485.009 9.61c0 3.726-1.564 10.13-6.618 14.462-11.267 9.654-24.598 22.155-24.598 22.155z"/><path fill="none" stroke="#ffdb5d" stroke-width="1.26" d="m76.6 125.829 19.557 16.667M85.136 142.46c2.598 0 2.598-2.537 5.195-2.537s2.597 2.537 5.194 2.537 2.598-2.537 5.196-2.537c2.599 0 2.599 2.537 5.197 2.537"/><path fill="#751d18" fill-rule="nonzero" d="M63.374 114.377c-1.748-4.114.148-8.877 4.233-10.638s8.815.148 10.563 4.264a8.1 8.1 0 0 1 .638 3.421h.006l-.271 14.685c-.023 1.24-1.487 1.872-2.395 1.034l-10.763-9.941a8.1 8.1 0 0 1-2.01-2.825"/><g fill-rule="nonzero"><path fill="#de7732" d="M80.244 25.363q.048-.045.097-.088a35 35 0 0 1 2.516-2.093q.127-.096.256-.191.54-.402 1.098-.787.111-.077.222-.154.615-.415 1.248-.805.2-.124.405-.246c.136-.082.274-.157.41-.238a36.38 36.38 0 0 1 18.044 31.48v35.375c0 10.04-8.077 18.176-18.043 18.181-9.967-.005-18.043-8.142-18.043-18.18V52.24a36.38 36.38 0 0 1 11.79-26.877"/><path fill="#e8441d" d="M92.513 88.835V25.163a36.36 36.36 0 0 1 12.027 27.079v18.302c0 8.22-4.958 15.272-12.027 18.291M80.486 25.142a36.3 36.3 0 0 1 6.002-4.386 36.3 36.3 0 0 1 6.025 4.407v45.38c0 8.221-4.958 15.273-12.027 18.292zM68.457 88.506V50.96c.354-10.258 4.93-19.426 12.029-25.817v45.4c0 8.212-4.95 15.258-12.006 18.282q-.012-.16-.023-.32"/></g><path fill="#ad2c24" fill-rule="nonzero" d="M77.12 26.32c0 5.215 4.196 9.442 9.376 9.442 5.178 0 9.376-4.227 9.376-9.442s-4.198-9.442-9.376-9.442c-5.18 0-9.377 4.227-9.377 9.442"/><path fill="#ce2235" fill-rule="nonzero" d="m77.78 29.383 1.036-1.407 3.009-.67h7.417l3.141 1.419c4.135.09 7.459 3.487 7.459 7.673 0 4.242-3.415 7.68-7.626 7.68a7.58 7.58 0 0 1-5.669-2.554 7.57 7.57 0 0 1-5.667 2.554c-4.213 0-7.627-3.438-7.627-7.68a7.68 7.68 0 0 1 4.528-7.015"/><path fill="#fff4e3" fill-rule="nonzero" d="M88.234 26.355c0 2.507 2.017 4.538 4.506 4.538s4.506-2.03 4.506-4.538c0-2.506-2.017-4.538-4.506-4.538s-4.506 2.032-4.506 4.538"/><path fill="#17242d" fill-rule="nonzero" d="M89.665 26.355c0 1.71 1.376 3.098 3.075 3.098 1.698 0 3.076-1.388 3.076-3.098s-1.378-3.097-3.076-3.097-3.075 1.386-3.075 3.097"/><path fill="#fff4e3" fill-rule="nonzero" d="M75.779 26.39c0 2.507 2.017 4.538 4.506 4.538s4.506-2.031 4.506-4.538c0-2.506-2.017-4.538-4.506-4.538s-4.506 2.032-4.506 4.538"/><path fill="#17242d" fill-rule="nonzero" d="M77.21 26.39c0 1.712 1.376 3.098 3.075 3.098s3.075-1.386 3.075-3.098c0-1.71-1.376-3.097-3.075-3.097S77.21 24.68 77.21 26.39"/><path fill="#ffdb5d" fill-rule="nonzero" d="M88.333 28.751h-3.674v-1.85c0-1.02.822-1.85 1.837-1.85 1.014 0 1.837.83 1.837 1.85z"/><path fill="none" stroke="#ce2235" stroke-linecap="round" stroke-width="1.26" d="M86.513 1.903V18.81"/><path fill="#b85c39" fill-rule="nonzero" d="M34.437 42.819c18.758-.008 33.969 15.3 33.976 34.19v.748l-11.615.005c-19.168.008-34.713-15.635-34.72-34.938z"/><path fill="#ad2c24" fill-rule="nonzero" d="M22.078 42.824h.017l17.13 9.682.008 20.454a34.98 34.98 0 0 1-17.155-30.136"/><path fill="none" stroke="#751d18" stroke-width=".6" d="m22.759 47.61 16.247 9.214M23.723 52.385l15.284 8.667M25.803 57.79l13.206 7.49M29.76 64.262l9.25 5.246"/><path fill="#573a3c" fill-rule="nonzero" d="M52.793 64.56a6.626 6.626 0 0 1-4.96-6.423c0-3.667 2.95-6.64 6.59-6.642 1.668 0 3.184.632 4.344 1.661a34.2 34.2 0 0 1 9.646 23.853v.748l-11.615.005c-.843.001-1.676-.04-2.504-.1l.003-.047c-3.577-.072-6.457-3.01-6.458-6.628a6.63 6.63 0 0 1 4.954-6.428"/></g></svg>