<svg xmlns="http://www.w3.org/2000/svg" width="59.862" height="79.224" viewBox="-0.5 -0.5 59.862 79.224"><path fill="#0cc" d="M58.862 33.884v4.84c0 2.87-.5 6.95-1.57 12.84-.44 2.74-1.28 5.56-2.49 8.39-.02.04-.04.07-.05.11-2.15 4.85-5.69 9.08-10.53 12.57-5.16 3.71-10.5 5.59-15.89 5.59-2.18 0-4.26-.34-6.21-1-6.91-2.23-12.37-6.47-16.22-12.6-.83-1.35-1.65-3.02-2.67-5.46a1 1 0 0 0-.07-.17c-1.26-3.16-1.93-5.69-2.11-7.97-.03-.39-.14-1.33-.5-3.17-.13-.69-.2-1.39-.2-2.09v-4.28c-.44-1.69-.48-3.5-.05-5.29.16-.69.39-1.36.67-1.98 0-1.22.21-2.44.61-3.6.11-.5.26-.99.44-1.48.01-.01.19-.52.44-1.93.3-1.73.86-3.96 1.7-6.77l.03-.1c1.63-5.24 4.92-10.21 10.06-15.19.04-.04.07-.07.11-.1 2.6-2.46 5.6-4.02 8.92-4.66.6-.11 1.21-.17 1.83-.19.38-.01 1.39-.07 3.04-.16.06 0 .12-.01.18-.01 4.87-.2 9.48.84 13.75 3.07 4.93 2.52 8.83 6.31 11.6 11.27 1.31 2.35 2.43 5.2 3.43 8.74 1.17 4.01 1.75 7.54 1.75 10.78"/><path fill="#fff" d="M47.859 38.725q-.001 3.256-1.408 10.995-.439 2.816-1.76 5.894-2.024 4.575-6.904 8.093-4.882 3.518-9.456 3.518-1.495 0-2.727-.439-6.685-2.11-10.379-8.005-.706-1.142-1.848-3.87-1.231-3.078-1.363-4.75-.132-1.67-.66-4.397v-6.51q.351-.174-.352-.527h.528q-.001-.44.352-1.671.35-1.231.352-1.848 0-.527-.264-.968a.85.85 0 0 0 .615-.264q-.089-.176-.439-.176.087-.087.308-.264.219-.175.309-.264a.6.6 0 0 0-.221-.133.5.5 0 0 1-.22-.132q.528-1.407.968-3.87.351-2.022 1.407-5.541 1.584-5.1 7.213-10.556 1.583-1.494 3.431-1.847.264 0 3.431-.177 4.397-.175 8.268 1.848 4.487 2.288 7.037 6.861 1.32 2.375 2.463 6.421 1.32 4.486 1.32 7.74zm-5.805-9.763q-.526-1.23-1.227-3.167-.879-3.957-5.217-7.301-4.339-3.341-8.021-2.99-1.665.178-5.612 5.542-1.929 2.552-3.856 10.203-1.754 7.125-1.665 10.995.174 4.926.526 6.86a16.65 16.65 0 0 0 2.629 6.598q1.93 2.638 2.981 3.431 3.943 2.815 7.451 2.814.788 0 1.49-.176 1.665-.263 3.944-2.199 1.928-1.759 2.894-3.255 1.315-2.198 2.455-6.597 1.753-6.42 1.754-13.634.002-3.869-.526-7.124"/></svg>