<svg xmlns="http://www.w3.org/2000/svg" xml:space="preserve" width="72.752" height="282.017" viewBox="0.359 0.387 72.752 282.017"><title>Slice 1</title><g fill-rule="evenodd"><path fill="#c38f4e" d="M65.5 177.6c-2.1-.5-2.6-2-2.4-3.6-.2 3.1-.3 6 0 8.4v.8c-.1 1.2-.8 2.2-2.1 2.4-.4.1-.8-.1-1.1-.3v.4c-.1 1.2-1.1 2.2-2.3 2.2-.8 0-1.4-.5-1.6-1.2-.2-.5-.4-1.1-.5-1.6-1 1-2.7.5-3-.9-.6-2.6-1.6-8-1.5-10.1.2-4.3 3.5-8.9 3.5-8.9l-.9-5.8 9 .8-.9 2.9c3.6 2.4 4.8 4.4 4.9 8.3 0 0 1.6 2.9 1.7 4.3-.1 1.9-2.1 2.2-2.8 1.9"/><path fill="none" stroke="#000" stroke-linecap="round" stroke-linejoin="round" d="M61.8 171.5v-.4c.3 2.2.3 6 3.6 6.5.7.3 2.8-.1 2.5-1.7-.2-1.4-1.7-4.3-1.7-4.3-.1-3.9-1.3-5.9-4.9-8.3l.3-2.2M55.3 185.2q0 0 0 0c-1 1-2.7.5-3.1-.8-.6-2.6-1.6-8-1.5-10.1.2-4.3 3.5-8.9 3.5-8.9l-.9-5.8"/><path fill="none" stroke="#000" stroke-linecap="round" stroke-linejoin="round" d="M54.6 175.9c-.6 3.4-.1 7.4 1.3 10.9.3.7.9 1.3 1.6 1.2 1.4-.1 2.5-1.3 2.3-2.7"/><path fill="none" stroke="#000" stroke-linecap="round" stroke-linejoin="round" d="M58.2 175.7c0 3.1.2 6 .8 8.5.2.9 1.1 1.6 2 1.4 1.5-.2 2.3-1.7 2.1-3.2-.2-1.9-.3-4.1-.1-6.4"/><path fill="#c38f4e" d="M57.3 126.3c3.3 5 2.5 14 3.3 19.3s1.2 15.4 1.2 15.4-4.3 4.3-8.1.6c0 0-4.4-19.5-5.6-24-1.3-4.4-1.2-7.3.2-10.2 1.5-2.9 5.2-6.9 9-1.1"/><path fill="none" stroke="#000" stroke-linecap="round" d="M58.9 130.1c1.4 5 1 11.3 1.6 15.5.8 5.3 1.1 15.8 1.1 15.8M53.9 162.1c-1.4-2.6-4.8-20.1-5.9-24.5-.6-2.3-.9-4.2-.9-5.8"/><path fill="#c38f4e" d="M46.4 125c-.2 1.5.1 7.6 1 9.2 1.2 2.1 7.5 2 8.8 2 4.4-.2 3.1-5.5 3.4-7.9.1-.8 0-2 .1-2.9 1.4-15-1.2-31.6-3.6-37-2.9-6.1-8-1.5-11 6.2-2.2 5.3 2.4 16.7 1.3 30.4"/><path fill="none" stroke="#000" stroke-linecap="round" d="M59.2 134c.7-1.8.3-4.3.4-5.8.1-.8 0-2 .1-2.9 1.4-15-1.2-31.6-3.6-37-.9-1.9-2-2.8-3.2-2.8M52.6 85.4c-2.6.2-5.5 3.9-7.5 9-2.2 5.5 1.4 12.8 1.5 27.1-.2 1.5.3 8.2.5 12.4"/><path fill="#540096" stroke="#000" stroke-linecap="round" stroke-linejoin="round" d="M58.3 90.5c.4 1.4.8 2.7 1.3 4.1 2.5 7 4.6 14.6 3.5 22.1-.5 3.7-5.4 4.3-8.7 5.3-2.7.8-7.4 2.6-8.5-.4-3.6-9.4-3.1-38.5-1.7-39.8 3.4-3.3 12 2.1 14.1 8.7"/><path fill="#c38f4e" stroke="#000" d="m39.2 80.3.9 3.4-6.3.8-1 .1-1-.1-6.3-.8.9-3.4c1.4-5.3.8-11-1.5-15.9l8 .6 8-.6c-2.6 5.3-3.8 11.2-1.7 15.9Z"/><path fill="#c38f4e" stroke="#000" stroke-linecap="round" d="M9.7 171.6c-12.4-21.9.2-86.7 4.9-90.1 3.3-2.3 7.2-2.7 9.3-2.7.8 0 1.6.3 2.2.8 2.9 2.4 12.2 3.8 14.4.9 0 0 .2-.1.4-.1 3.1-.8 6.4.3 8.4 2.8 0 .1.1.1.1.1 4.9 6.9 8.1 16.1 7.4 23-2.1 20.1 3.2 37.2-.1 62.1-1.5 4.5-44.4 8.3-47 3.2Z"/><path fill="#c38f4e" stroke="#000" d="M39.5 12.5c-6.7.4-15.7 3.1-20.4 8.1s-5.7 12.1-5.7 19.7 3.3 14.3 7.7 19.7c3.9 4.9 9.6 9.1 15.7 9.6 7.2.6 17-.5 20.5-6.7 5.7-10.5 6.3-21.5 6.4-33.2.1-4.4-1.3-8.7-4.2-12-1.1-1.3-2.2-2.3-3.1-2.7-5.6-2.6-10.6-3-16.9-2.5Z"/><path fill="#fff" stroke="#000" d="M42.4 41.2c.1 2.4-.8 3.8-2.4 4.5-1.1.5-2.4.7-4 .8-2.1.1-3.8 0-5-.5-1.3-.5-2.1-1.3-2.6-2.6v-.1c-.2-.6-.4-1.3-.5-2.2-.4-4.1 3.2-5.9 7.1-5.9h1.7c3.1.4 5.5 1.3 5.7 6Z"/><path d="M39 39.7c.1 3.3-2.3 4.2-5.8 4.4-2.1.1-3.6 0-4.7-.5v-.1c-.2-.6-.4-1.3-.5-2.2-.4-4.1 3.2-5.9 7.1-5.9h1.6c1.3.6 2.2 1.8 2.3 4.3"/><ellipse cx="4" cy="4" fill="#fff" rx="1.3" ry="1.6" transform="translate(27 35)"/><path fill="#fff" stroke="#000" d="M61.6 41.1c.1 4-1.7 5-4.4 5.2-3.1.3-4.6-.6-5.3-3v-.1q-.3-.9-.3-2.1c-.3-4.1 2.2-5.8 4.9-5.8h1.2c2.1.3 3.8 1.2 3.9 5.8Z"/><path d="M59.3 39.6c.1 3.3-1.6 4.1-4 4.3-1.4.1-2.5 0-3.3-.4v-.1q-.3-.9-.3-2.1c-.3-4.1 2.2-5.8 4.9-5.8h1.1c.9.5 1.5 1.7 1.6 4.1"/><ellipse cx="2.9" cy="4" fill="#fff" rx="1.2" ry="1.6" transform="translate(51 35)"/><path fill="none" stroke="#000" stroke-linecap="round" stroke-linejoin="round" stroke-width=".872" d="M46.3 61.4c-3.6-.2-8.2-1.9-10.9-4.3"/><path d="M41.1 32.8c-5.9-.6-11.2.2-15.9 2.6-1.5-2 9.3-6 13.8-5.2 3.8.6 2.4 2.4 2.1 2.6M50.6 33.3c4.9-.6 7.7-1.3 12.1.8-.1-3-6.6-4.2-10.3-3.4-3.1.6-2 2.4-1.8 2.6"/><g fill="none" stroke="#000" stroke-linecap="round" stroke-linejoin="round"><path d="m47.8 41.3.7 5.9"/><path stroke-width=".992" d="M47.5 47c1.8-.1 3.4 1.4 3.4 3.2.1 1.9-1.4 3.3-3.2 3.5-.8.1-1.5-.1-2.2-.4"/></g><path fill="#c38f4e" stroke="#000" d="M15.8 36.3c-1-.6-2.4-.9-4.2-.2-5 1.9-1 10.9-1 10.9s-.7 3.5 2.9 4.3 3.2-.4 3.2-.4"/><g stroke="#000" stroke-linecap="round"><path d="M70.1 48.1c.1-4-1.9-5.8-3-8 3.2 17.7-6.5 25.6-9.4 31.4-.3.5-.4 1.1-.4 1.7 0 .8.3 1.6.8 2.3-6.9.9-13.5.5-20-.6 0-1.6.2-3.3.7-5 6.9.2 15.3-1.2 18.5-6.8 5.7-10.5 6.3-21.5 6.4-33.2 0-2.3-.4-4.7-1.2-6.8l3.7.3c-.1 6.7 6.8 12.3 3.9 24.7ZM27 72.9c-4.1-1.8-8.8-3.6-11.7-5.9C5.6 59.1 1.9 47.1 1.9 34.6c0-3.2.4-6.3 1.1-9.5 2.4-8.4 7.6-12.5 14.7-13.7l2.9 10.2c-.1 9.9-1.8 20.1-4.6 30.7 1.3 2.8 3 5.4 4.9 7.8 1.2 1.6 3.7 4.3 3.7 4.3 1.5 2.7 2.2 5.6 2.4 8.5Z"/><path d="M14.5 15c-.3-1-1.1-2.2-2-3.4-.1-.2.1-.4.3-.3 1.3.5 2.5 1.2 3.4 2-1-1.4-1.4-3-1.5-4.6 0-.2.3-.3.4-.1.6.8 1.3 1.5 2.1 2 1.7-3.6 5-7.5 11.4-9 11-2.7 42.1 1.5 40.9 26-.1 1.9.4 3.7 1.6 5.1v.1c-1.4-.2-3.6-.8-4.8-1.5-6-3.7-16-5.4-23.1-5.5-9.5-.1-18.5-1.1-27.1-4.1M15.2 54.7l.9-2.4"/></g><path fill="#c38f4e" d="M39.7 164.4c2.8-3.8 7.8-6.1 11.7-2 11.7 12.3 7.7 48.7-.7 58-.9 1-5.9 3.8-8.3 1.3-7.7-8-7.7-50.4-2.7-57.3"/><path fill="none" stroke="#000" stroke-linecap="round" d="M38.8 213c-3.9-16.9-3.1-43 1-48.6 2.8-3.8 7.8-6.1 11.7-2C61.6 173.1 60 200 53.9 215"/><path fill="#c38f4e" d="m53.7 214.1-.1 1.3-3.7 33.3c-.2 1.8-.1 3.7.3 5.5.6 2.6-.7 5.4-3.2 6.4h-.1c-3.9 1.5-7.9-1.8-7.5-5.9l.4-4c.1-1.3.1-2.5 0-3.8l-2.4-25.1q-.15-4.35 1.2-8.4c0-.1.1-.2.1-.3.7-1.8 1.6-3.6 2.7-5.2 1-1.5 2.6-2.5 4.4-2.7 3.6-.5 6.9 2 7.4 5.6z"/><path fill="none" stroke="#000" stroke-linecap="round" d="m53.6 215.1-3.7 33.5c-.2 1.8-.1 3.7.3 5.5M39.4 255.6v-.9l.4-4c.1-1.3.1-2.5 0-3.8l-2.4-25.1c-.2-3 .3-6 1.3-8.8"/><path fill="#c38f4e" d="M39.8 258.5c3 7.3 9 12.7 20.6 14.5 3 .3 5.4-.2 6.7-2.1s.8-4.5-.8-6.1c-4.7-4.6-10.1-8.1-16-10.7l-9 1.8c-1.2.3-1.9 1.5-1.5 2.6"/><path fill="none" stroke="#000" stroke-linecap="round" d="M39.4 255.9c1.5 8.5 9.4 15.3 21 17.2 3 .3 5.4-.2 6.7-2.1s.8-4.5-.8-6.1c-4.7-4.6-10.1-8.1-16-10.7"/><path fill="#ccd8ff" stroke="#000" stroke-linecap="round" d="M34.5 173.1c1 0 1.9 7.8 1.7 10.6 7.3 2.2 15.1 2.2 23.3 0l-1-29.3-23.7 1.3"/><path fill="#333" stroke="#000" stroke-linecap="round" d="M36.1 150.7c-2.4 23.1-2.2 45.4.7 59.8-2.4 9-1.1 25.1 1.4 41.6 0 .2.3.4.5.4l11.3-.7c.2 0 .4-.2.4-.4 2.3-13 4.6-25.5 4.8-36.4 5.3-19.6 3.9-42 2-66z"/><path stroke="#000" stroke-linecap="round" stroke-linejoin="round" d="M58.5 271.2c-7.9-2.7-14.5-7.3-20.1-13.2l-1-5.8c-.1-.7.6-1.3 1.3-1l2.1 1c1.7-2.3 5.2-4.5 8.7-4.1 4.7.4 1 3.7 1 3.7l15.9 9.9-.8 5.8-6.7 4.2"/><path stroke="#000" stroke-linecap="round" stroke-linejoin="round" d="m66.4 261.7-1.6 1.6L54 255l-3.5-3.2zM62.3 266.3l-3.4 4.4c-7.3-2.7-15.3-7.1-20.6-12.6l-1-5.8c-.1-.7.6-1.3 1.3-1l2.1 1 1.9 4c4.7 4.5 12.9 7.2 19.7 10"/><path fill="#fff" stroke="#000" stroke-linecap="round" stroke-linejoin="round" d="M57 273.4c.1-.6.4-1.6.7-2.2.2-.4.8.2 1-.2 1.5-3.1 4.2-7.7 7.7-9.3 0 0 8.1 3.7 5.8 9.8-1 2.6-3.6 4.5-6.9 4.4-3.6 0-8.1-2-8.3-2.5"/><path fill="#fff" stroke="#000" stroke-linecap="round" stroke-linejoin="round" d="M59 270.7c.5-3.7 2.7-6.8 7.4-9 0 0 8.6 3.9 4.2 9s-11.6 0-11.6 0M37.7 261.1c4.1 5 12.8 9.7 20.1 12.7 0 0 1.3-2.9 1-3.1-7.3-3.1-16.3-7.7-20.5-12.8z"/><g transform="translate(45 253)"><circle cx="1.1" cy="6.7" r="1"/><circle cx="9.1" cy="1.9" r="1"/><circle cx="16.6" cy="6.5" r="1"/><circle cx="12.6" cy="4.2" r="1"/><circle cx="9.6" cy="11.2" r="1"/><circle cx="5.1" cy="8.9" r="1"/></g><g fill="none" stroke="#fff" stroke-linecap="round" stroke-linejoin="round"><path d="M46.2 259.7c4.1-1.7 6.8-3.3 7.8-4.7M54.7 264.2c3.1-1.2 5.7-2.6 6.7-4.5M50.2 261.8c3.6-1.8 6.7-3.4 7.2-4.5"/></g><path fill="#c38f4e" d="M14.7 163.4c2.8-3.8 7.8-6.1 11.7-2 11.7 12.3 7.7 55.7-.7 65-.9 1-5.9 3.8-8.3 1.3-7.7-8-7.7-57.4-2.7-64.3"/><path fill="none" stroke="#000" stroke-linecap="round" d="M13.7 219c-3.9-16.9-3.1-50 1-55.6 2.8-3.8 7.8-6.1 11.7-2 10.1 10.7 8.5 44.7 2.4 59.6"/><path fill="#c38f4e" d="m28.7 220.1-.1 1.3-3.7 33.3c-.2 1.8-.1 3.7.3 5.5.6 2.6-.7 5.4-3.2 6.4h-.1c-3.9 1.5-7.9-1.8-7.5-5.9l.4-4c.1-1.3.1-2.5 0-3.8l-2.4-25.1q-.15-4.35 1.2-8.4c0-.1.1-.2.1-.3.7-1.8 1.6-3.6 2.7-5.2 1-1.5 2.6-2.5 4.4-2.7 3.6-.5 6.9 2 7.4 5.6z"/><path fill="none" stroke="#000" stroke-linecap="round" d="m28.6 221.1-3.7 33.5c-.2 1.8-.1 3.7.3 5.5M14.4 261.6v-.9l.4-4c.1-1.3.1-2.5 0-3.8l-2.4-25.1c-.2-3 .3-6 1.3-8.8"/><path fill="#c38f4e" d="M14.8 264.5c3 7.3 9 12.7 20.6 14.5 3 .3 5.4-.2 6.7-2.1s.8-4.5-.8-6.1c-4.7-4.6-10.1-8.1-16-10.7l-9 1.8c-1.3.3-1.9 1.5-1.5 2.6"/><path fill="none" stroke="#000" stroke-linecap="round" d="M14.4 261.9c1.5 8.5 9.4 15.3 21 17.2 3 .3 5.4-.2 6.7-2.1s.8-4.5-.8-6.1c-4.7-4.6-10.1-8.1-16-10.7"/><path fill="#ccd8ff" stroke="#000" stroke-linecap="round" d="m34.8 155.7-23.6 1.1-1 27c7.7 2.5 15.5 2.7 23.7.3-.6-2.8-.3-10.9.7-11"/><path fill="#333" stroke="#000" stroke-linecap="round" d="M11.1 156.7c-2.4 23.1-2.2 45.4.7 59.8-2.4 9-1.1 25.1 1.4 41.6 0 .2.3.4.5.4l11.3-.7c.2 0 .4-.2.4-.4 2.3-13 4.6-25.5 4.8-36.4 5.3-19.6 5.9-42 4-66z"/><path stroke="#000" stroke-linecap="round" stroke-linejoin="round" d="M33.5 277.2c-7.9-2.7-14.5-7.3-20.1-13.2l-1-5.8c-.1-.7.6-1.3 1.3-1l2.1 1c1.7-2.3 5.2-4.5 8.7-4.1 4.7.4 1 3.7 1 3.7l15.9 9.9-.8 5.8-6.7 4.2"/><path stroke="#000" stroke-linecap="round" stroke-linejoin="round" d="m41.4 267.7-1.6 1.6L29 261l-3.5-3.2zM37.3 272.3l-3.4 4.4c-7.3-2.7-15.3-7.1-20.6-12.6l-1-5.8c-.1-.7.6-1.3 1.3-1l2.1 1 1.9 4c4.7 4.5 12.9 7.2 19.7 10"/><path fill="#fff" stroke="#000" stroke-linecap="round" stroke-linejoin="round" d="M32 279.4c.1-.6.4-1.6.7-2.2.2-.4.8.2 1-.2 1.5-3.1 4.2-7.7 7.7-9.3 0 0 8.1 3.7 5.8 9.8-1 2.6-3.6 4.5-6.9 4.4-3.6 0-8.1-2-8.3-2.5"/><path fill="#fff" stroke="#000" stroke-linecap="round" stroke-linejoin="round" d="M34 276.7c.5-3.7 2.7-6.8 7.4-9 0 0 8.6 3.9 4.2 9s-11.6 0-11.6 0M12.7 267.2c4.1 5 12.8 9.7 20.1 12.7 0 0 1.3-2.9 1-3.1-7.3-3.1-16.3-7.7-20.5-12.8z"/><g transform="translate(20 259)"><circle cx="1.1" cy="6.7" r="1"/><circle cx="9.2" cy="1.9" r="1"/><circle cx="16.6" cy="6.5" r="1"/><circle cx="12.6" cy="4.2" r="1"/><circle cx="9.6" cy="11.2" r="1"/><circle cx="5.1" cy="8.9" r="1"/></g><g fill="none" stroke="#fff" stroke-linecap="round" stroke-linejoin="round"><path d="M21.2 265.7c4.1-1.7 6.8-3.3 7.8-4.7M29.7 270.2c3.1-1.2 5.7-2.6 6.7-4.5M25.2 267.8c3.6-1.8 6.7-3.4 7.2-4.5"/></g><path fill="#540096" stroke="#000" stroke-linecap="round" stroke-linejoin="round" d="M60.7 168.3c-.6 1.8-8 3.5-17.1 4.5-.9.1-1.9.2-2.9.3-.8.1-1.6.2-2.4.2-.9.1-1.9.1-2.8.2-12.2.9-24.6.5-25.9-2-12.4-21.9.2-86.7 4.9-90.1 3.3-2.3 7.2-2.7 9.3-2.7.8 0 1.6.3 2.2.8 2.9 2.4 12.2 3.8 14.4.9 0 0 .2-.1.4-.1 3.1-.8 6.4.3 8.5 2.8l.1.1c4.9 6.9 8.1 16.1 7.4 23-2.1 20.1 7.2 37.2 3.9 62.1"/><path fill="#c38f4e" d="M19.3 185c-2.2-.1-3.2-3.3-4.8-5l-.4.4c-.1 3.7 0 7.1.5 10 0 .2.1.4.1.6 0 1.3-.6 2.4-1.9 2.7-.4.1-.8 0-1.1-.2v.3c0 1.2-.9 2.3-2.2 2.5-.8.1-1.4-.4-1.7-1.1-.2-.5-.5-1-.7-1.6-.9 1.1-2.7.7-3.1-.7-.8-2.5-2.1-7.9-2.1-10 0-3.6 2.1-7.6 2.7-8.8l.1.5.1-.8-1.3-5.7c2.6-2.7 5.3-3.4 8.1.8l.1 3.2 1.8.4.3.5c2.6 1.3 3.8 2.9 4.7 6 0 0 2.2 2.4 2.8 3.7.7 1.6-1.2 2.4-2 2.3"/><g fill="none" stroke="#000" stroke-linecap="round" stroke-linejoin="round"><path d="m14.3 180.1-.1-.4c1.8 1.6 2.8 5.3 5.2 5.4.8.1 2.6-.8 2-2.3-.5-1.3-2.8-3.7-2.8-3.7-1.1-3.8-2.8-5.4-6.8-6.8l-.1-3.2M7.2 193.6q-.15 0 0 0c-1 1.1-2.7.7-3.1-.6-.8-2.5-2.1-7.9-2.1-10 0-4.3 2.9-9.1 2.9-9.1l-1.3-5.7"/><path d="M5.8 184.4c-.4 3.4.4 7.4 2 10.8.3.7 1 1.2 1.7 1.1 1.4-.1 2.4-1.5 2.1-2.9"/><path d="M9.4 184c.2 3.1.5 6 1.3 8.4.3.9 1.2 1.5 2.1 1.3 1.5-.3 2.2-1.8 1.9-3.3-.6-3-.6-6.8-.5-10.7"/></g><path fill="#c38f4e" d="M13.1 134c2.4 5.4.1 14.2 0 19.6s-1.4 15.3-1.4 15.3-5 3.5-8.1-.8c0 0-1-20-1.5-24.6s0-7.4 1.9-10.1c2-2.4 6.3-5.7 9.1.6"/><path fill="none" stroke="#000" stroke-linecap="round" d="M14.1 138.1c.5 5.1-.9 11.4-1 15.6-.1 5.4-1.4 15.6-1.4 15.6M3.7 168.7c-.9-2.8-1.3-20.6-1.7-25.1-.2-2.4-.2-4.2.1-5.9"/><path fill="#c38f4e" d="M19.9 93.5c-2.4-7.8-7.1-12.9-10.5-7-2.9 5.2-7.3 27.5-7.1 42.6 0 .9-.1 2.1-.1 2.9.1 2.4-1.6 7.5 2.7 8.1 1.3.2 7.6.8 9-1.2 1.1-1.5 1.8-7.5 1.8-9 0-13.8 6-30.7 4.2-36.4"/><path fill="none" stroke="#000" stroke-linecap="round" d="M12.9 83.9c-1.2-.1-2.4.7-3.5 2.6-2.9 5.2-7.3 27.5-7.1 42.6 0 .9-.1 2.1-.1 2.9 0 1.5-.6 4-.1 5.8M14.1 138.7c.6-4.2 1.6-10.9 1.6-12.4 1.3-14.2 6-27.2 4.2-32.8-1.6-5.2-4.2-9.2-6.8-9.6"/><path fill="#540096" stroke="#000" stroke-linecap="round" stroke-linejoin="round" d="M13.5 81.4c3.4-.4 6.9 4.6 7.4 8.6 1.4 9.9 1.2 20.7-2.2 30.2-1.1 3-5.8 1.4-8.5.7-3.4-.9-8.3-1.3-8.9-5-1.5-8.4 1.1-17 3.7-24.7 1.7-4.6 4.7-9.4 8.5-9.8"/></g></svg>