<svg xmlns="http://www.w3.org/2000/svg" width="74.595" height="110.864" viewBox="-0.224 -0.17 74.595 110.864"><path fill="#82001e" d="M65.209 96.669s-.985-3.304-1.11-3.076l-1.206 5.219s-.366 1.634-.045 1.931c.218.201 1.122-1.204 1.677-2.553l.025-.06z"/><path fill="#be0a3c" d="M62.877 63.231c.301 6.749.888 31.41 1.363 37.826.108 1.457 0 2.589.306 2.585.305-.004.546-.947.683-1.827.085-.542.173-.955.33-.987.402-.081.237 3.187.861 3.103.623-.084.253-3.063 1.077-3.36.825-.297.153 2.81 1.207 2.585.294-.068.434-3.356.639-7.078.254-4.504.362-25.127.403-32.843 0 0 .221-4.817-3.399-4.922s-3.47 4.918-3.47 4.918"/><path fill="#82001e" d="M62.72 74.556c-.161-.08 1.809-8.992-5.092-8.992s-6.837 38.785-5.546 43.285c.503 1.766 1.207 1.204 2.478 1.297 1.27.092 2.067.136 1.608-.695-.092-.169-1.705.072-1.705.072s2.876-7.824 3.986-11.811c.551-1.979 1.081-3.982 1.528-5.989.241-1.056 3.012-16.107 2.743-17.167M24.927 74.966c.105.076 3.487 19.804 3.789 21 .402 1.566.752 3.111 1.118 4.681.595 2.549 2.316 5.845 2.18 8.455-.37.024-1.975-.145-2.18.028-1.259 1.064.479.803.877.867 1.048.09 2.103.074 3.149-.048 1.431-.169 1.15-.149 1.516-1.63.611-2.477 2.682-40.27-4.782-40.146s-5.57 6.696-5.667 6.793"/><path fill="#be0a3c" d="m20.688 68.767-.9-.55c-3.391-2.027-4.859-3.774-6.93-7.058s-3.133-6.981-4.283-10.606C7.34 46.655 6.186 37.265 5.229 37.341s.732 3.766-.278 3.978c-1.009.213-1.347-3.737-2.135-3.797s.249 4.283-.877 4.239c-.615-.024-1.094-3.32-1.584-3.119-.491.2 1.319 17.194 5.091 23.537s7.239 9.659 11.884 12.397c2.993 1.759 6.753 2.056 9.11 2.489 0 0 3.704-.321 3.024-4.275s-8.776-4.023-8.776-4.023"/><path fill="#82001e" d="M7.891 40.356c-.643-.217-1.118 2.184-1.118 2.184-.712.233-2.497.955-2.369 2.36.161 1.751 2.361 3.614 3.27 1.534 0-.016.865-5.861.217-6.078"/><path fill="#82783c" d="M36.904 17.718c-1.584-4.188-3.089-11.382-.873-15.557 2.035-3.83 5.595-1.361 7.292 4.713 1.432 5.111 1.174 13.533 1.239 15.312.072 1.963-.165 3.886-.25 5.837-.068 1.646.523 4.388-.068 5.873-2.972-5.142-5.241-10.634-7.34-16.178"/><path fill="#a0aa1e" d="M44.28 33.82c-2.349.121-5.268-2.256-7.078-3.553-.965-.71-12.974-10.345-16.24-15.163-1.476-2.168-2.864-4.328-2.506-7.05.479-3.649 2.972-4.48 6.202-2.89 5.007 2.465 9.194 7.985 11.82 12.778 1.307 2.381 2.55 4.818 3.873 7.17 1.275 2.277 3.989 6.018 3.929 8.708"/><path fill="#a0aa1e" d="M43.838 33.688c-.153-1.691.977-3.951 1.363-5.597.402-1.762.804-3.496 1.375-5.219a95 95 0 0 1 3.849-10.406c1.339-2.934 2.763-6.194 4.923-8.627 1.838-2.088 5.333-4.292 7.862-1.77 2.184 2.18.805 6.684.032 9.233-1.057 3.401-2.943 6.211-5.079 9.021-2.011 2.65-11.619 12.469-14.325 13.365"/><path fill="#a0aa1e" d="M44.188 33.808c1.109-1.449 2.931-2.654 4.279-3.93 1.745-1.654 3.527-3.264 5.3-4.882 2.578-2.349 5.333-4.757 8.945-5.219 1.307-.165 3.684-.245 4.134 1.369.402 1.485-1.556 3.184-2.522 3.982a30 30 0 0 1-4.58 3.007c-.897.51-11.611 4.541-15.556 5.673M43.93 33.884c-.273-4.974.306-9.856.467-14.798.016-2.577.301-5.145.852-7.663.282-1.149 1.713-5.219 3.177-2.907.845 1.329.306 4.248.254 5.729-.077 2.144-.101 4.492-.833 6.544-.482 1.333-3.651 13.111-3.917 13.095"/><path fill="#f01446" d="M43.536 94.958a19.5 19.5 0 0 1-11.112-3.408c-2.172-1.505-3.885-3.774-5.353-5.942-2.192-3.239-4.344-6.547-6.366-9.9a66.5 66.5 0 0 1-7.939-19.478c-1.255-5.565-1.649-15.83 4.138-19.271 2.964-1.77 7.356-2.782 10.714-3.472 2.908-.598 5.775-1.349 8.763-1.606 1.706-.136 3.427-.293 5.116-.028 1.299.205 1.93.919 2.867.927.181 0 1.36-.654 1.686-.734.662-.13 1.335-.203 2.01-.217 2.148-.125 4.167.217 6.274.534 5.442.803 11.181 2.874 15.44 6.451 5.313 4.46 4.448 11.285 2.976 17.424-1.609 6.76-7.356 22.128-12.87 29.579s-13.078 9.157-16.344 9.141"/><path fill="#f00a78" d="M16.976 41.649s.576-1.514 3.117-2.847a18.12 18.12 0 0 1 10.356-1.678c8.233 1.265 7.207 28.347-2.606 28.347-5.317 0-8.912-2.284-10.597-7.467-1.424-4.384-2.445-11.145-.27-16.355"/><path fill="#f04650" d="M38.272 74.259c.275 0 .525.115.706.301s.294.443.294.727c0 .283-.113.54-.294.726a.98.98 0 0 1-.706.302.98.98 0 0 1-.707-.302 1.04 1.04 0 0 1-.293-.726c0-.284.112-.541.293-.727a.98.98 0 0 1 .707-.301M57.443 45.844c.276 0 .526.115.707.301s.293.443.293.727c0 .283-.112.54-.293.726a.984.984 0 0 1-1.414 0 1.04 1.04 0 0 1-.293-.726c0-.284.112-.541.293-.727a.98.98 0 0 1 .707-.301M54.286 41.062c.276 0 .526.116.707.302s.293.443.293.726c0 .284-.112.541-.293.727a.984.984 0 0 1-1.414 0 1.04 1.04 0 0 1-.293-.727c0-.283.112-.54.293-.726a.98.98 0 0 1 .707-.302M61.356 41.54c.276 0 .526.115.707.301s.293.443.293.727c0 .283-.112.54-.293.726a.98.98 0 0 1-.707.302.98.98 0 0 1-.707-.302 1.04 1.04 0 0 1-.293-.726c0-.284.112-.541.293-.727a.98.98 0 0 1 .707-.301M49.886 36.261c.276 0 .526.115.707.301s.293.443.293.727c0 .283-.112.54-.293.726a.984.984 0 0 1-1.414 0 1.04 1.04 0 0 1-.293-.726c0-.284.112-.541.293-.727a.98.98 0 0 1 .707-.301M41.654 38.834a.98.98 0 0 1 .707.302c.181.186.293.442.293.726s-.112.541-.293.727a.984.984 0 0 1-1.414 0 1.04 1.04 0 0 1-.293-.727c0-.284.112-.54.293-.726a.98.98 0 0 1 .707-.302M34.901 38.128c.276 0 .526.115.707.301s.293.443.293.726c0 .284-.112.541-.293.727a.984.984 0 0 1-1.414 0 1.04 1.04 0 0 1-.293-.727c0-.283.112-.54.293-.726a.98.98 0 0 1 .707-.301M26.347 37.935c.276 0 .526.115.707.301s.293.443.293.727c0 .283-.112.54-.293.726a.98.98 0 0 1-.707.302.98.98 0 0 1-.707-.302 1.04 1.04 0 0 1-.293-.726c0-.284.112-.541.293-.727a.98.98 0 0 1 .707-.301M32.408 46.354c.276 0 .526.115.707.301s.293.443.293.726c0 .284-.112.541-.293.727a.984.984 0 0 1-1.414 0 1.04 1.04 0 0 1-.293-.727c0-.283.112-.54.293-.726a.98.98 0 0 1 .707-.301M23.753 45.856c.276 0 .526.115.707.301s.293.443.293.727c0 .283-.112.54-.293.726a.984.984 0 0 1-1.414 0 1.04 1.04 0 0 1-.293-.726c0-.284.112-.541.293-.727a.98.98 0 0 1 .707-.301M48.607 76.58c.276 0 .526.115.707.301s.293.443.293.726c0 .284-.112.541-.293.727a.984.984 0 0 1-1.414 0 1.04 1.04 0 0 1-.293-.727c0-.283.112-.54.293-.726a.98.98 0 0 1 .707-.301M45.434 44.784c.276 0 .526.115.707.301s.293.443.293.727c0 .283-.112.54-.293.726a.984.984 0 0 1-1.414 0 1.04 1.04 0 0 1-.293-.726c0-.284.112-.541.293-.727a.98.98 0 0 1 .707-.301M47.727 51.372c.276 0 .526.115.707.301s.293.443.293.727c0 .283-.112.54-.293.726a.984.984 0 0 1-1.414 0 1.04 1.04 0 0 1-.293-.726c0-.284.112-.541.293-.727a.98.98 0 0 1 .707-.301M39.937 46.438c.275 0 .525.115.706.301s.294.443.294.727c0 .283-.113.54-.294.726a.983.983 0 0 1-1.413 0 1.04 1.04 0 0 1-.293-.726c0-.284.112-.541.293-.727a.98.98 0 0 1 .707-.301M31.302 80.249c.276 0 .526.115.707.301s.293.443.293.727c0 .283-.112.54-.293.726a.984.984 0 0 1-1.414 0 1.04 1.04 0 0 1-.293-.726c0-.284.112-.541.293-.727a.98.98 0 0 1 .707-.301M38.272 52.813c.275 0 .525.115.706.301s.294.443.294.727c0 .283-.113.54-.294.726a.98.98 0 0 1-.706.302.98.98 0 0 1-.707-.302 1.04 1.04 0 0 1-.293-.726c0-.284.112-.541.293-.727a.98.98 0 0 1 .707-.301M26.383 69.815c.276 0 .526.115.707.301s.293.443.293.727c0 .283-.112.54-.293.726a.984.984 0 0 1-1.414 0 1.04 1.04 0 0 1-.293-.726c0-.284.112-.541.293-.727a.98.98 0 0 1 .707-.301M33.264 59.57c.276 0 .526.115.707.301s.293.443.293.726c0 .284-.112.541-.293.727a.984.984 0 0 1-1.413 0 1.04 1.04 0 0 1-.294-.727c0-.283.113-.54.294-.726a.98.98 0 0 1 .706-.301M25.933 59.305c.276 0 .526.115.707.301s.293.443.293.726c0 .284-.112.541-.293.727a.984.984 0 0 1-1.414 0 1.04 1.04 0 0 1-.293-.727c0-.283.112-.54.293-.726a.98.98 0 0 1 .707-.301M58.613 57.811a.98.98 0 0 1 .707.302c.181.186.293.443.293.726 0 .284-.112.541-.293.727a.984.984 0 0 1-1.413 0 1.04 1.04 0 0 1-.294-.727c0-.283.113-.54.294-.726a.98.98 0 0 1 .706-.302M64.972 46.354c.276 0 .526.115.707.301s.293.443.293.726c0 .284-.112.541-.293.727a.984.984 0 0 1-1.414 0 1.04 1.04 0 0 1-.293-.727c0-.283.112-.54.293-.726a.98.98 0 0 1 .707-.301M65.599 56.47c.276 0 .526.116.707.302s.293.443.293.726c0 .284-.112.541-.293.727a.984.984 0 0 1-1.414 0 1.04 1.04 0 0 1-.293-.727c0-.283.112-.54.293-.726a.98.98 0 0 1 .707-.302M69.002 51.091c.276 0 .526.115.707.301s.293.443.293.727c0 .283-.112.54-.293.726a.984.984 0 0 1-1.414 0 1.04 1.04 0 0 1-.293-.726c0-.284.112-.541.293-.727a.98.98 0 0 1 .707-.301M69.199 41.464c.276 0 .526.115.707.301s.293.443.293.727c0 .283-.112.54-.293.726a.984.984 0 0 1-1.414 0 1.04 1.04 0 0 1-.293-.726c0-.284.112-.541.293-.727a.98.98 0 0 1 .707-.301M57.318 35.101c.276 0 .526.115.707.301s.293.443.293.726c0 .284-.112.541-.293.727a.984.984 0 0 1-1.413 0 1.04 1.04 0 0 1-.294-.727c0-.283.113-.54.294-.726a.98.98 0 0 1 .706-.301M17.753 42.186c.276 0 .526.116.707.302s.293.443.293.726c0 .284-.112.541-.293.727a.984.984 0 0 1-1.414 0 1.04 1.04 0 0 1-.293-.727c0-.283.112-.54.293-.726a.98.98 0 0 1 .707-.302M16.011 55.953c.276 0 .526.115.707.301s.293.443.293.726c0 .284-.112.541-.293.727a.984.984 0 0 1-1.414 0 1.04 1.04 0 0 1-.293-.727c0-.283.112-.54.293-.726a.98.98 0 0 1 .707-.301M14.266 49.622c.276 0 .526.115.707.301s.293.443.293.726c0 .284-.112.541-.293.727a.984.984 0 0 1-1.414 0 1.04 1.04 0 0 1-.293-.727c0-.283.112-.54.293-.726a.98.98 0 0 1 .707-.301M44.497 56.193c.276 0 .526.116.707.302s.293.443.293.726c0 .284-.112.541-.293.727a.984.984 0 0 1-1.414 0 1.04 1.04 0 0 1-.293-.727c0-.283.112-.54.293-.726a.98.98 0 0 1 .707-.302M62 65.371c.276 0 .526.115.707.301s.293.443.293.727c0 .283-.112.54-.293.726a.984.984 0 0 1-1.414 0 1.04 1.04 0 0 1-.293-.726c0-.284.112-.541.293-.727a.98.98 0 0 1 .707-.301M49.477 61.5c.104-.263.302-.462.539-.57a.984.984 0 0 1 1.316.52c.1.24.11.52.005.784a1.04 1.04 0 0 1-.54.57.99.99 0 0 1-.768.022.98.98 0 0 1-.547-.54c-.1-.24-.11-.52-.005-.785M53.647 49.622c.276 0 .526.115.707.301s.293.443.293.726c0 .284-.112.541-.293.727a.984.984 0 0 1-1.414 0 1.04 1.04 0 0 1-.293-.727c0-.283.112-.54.293-.726a.98.98 0 0 1 .707-.301M41.095 64.985c.276 0 .526.116.707.302s.293.443.293.726c0 .284-.112.541-.293.727a.984.984 0 0 1-1.414 0 1.04 1.04 0 0 1-.293-.727c0-.283.112-.54.293-.726a.98.98 0 0 1 .707-.302M61.014 51.669c.276 0 .526.115.707.301s.293.443.293.727c0 .283-.112.54-.293.726a.984.984 0 0 1-1.413 0 1.04 1.04 0 0 1-.294-.726c0-.284.113-.541.294-.727a.98.98 0 0 1 .706-.301M62.273 74.066c.276 0 .526.116.707.302s.293.443.293.726c0 .284-.112.541-.293.727a.984.984 0 0 1-1.414 0 1.04 1.04 0 0 1-.293-.727c0-.283.112-.54.293-.726a.98.98 0 0 1 .707-.302M53.872 68.462c.276 0 .526.115.707.301s.293.443.293.727c0 .283-.112.54-.293.726a.98.98 0 0 1-.707.302.98.98 0 0 1-.707-.302 1.04 1.04 0 0 1-.293-.726c0-.284.112-.541.293-.727a.98.98 0 0 1 .707-.301M28.724 52.877c.276 0 .526.116.707.302s.293.443.293.726c0 .284-.112.541-.293.727a.984.984 0 0 1-1.414 0 1.04 1.04 0 0 1-.293-.727c0-.283.112-.54.293-.726a.98.98 0 0 1 .707-.302M21.702 51.46c.276 0 .526.115.707.301s.293.443.293.727-.112.54-.293.726a.98.98 0 0 1-1.414 0 1.04 1.04 0 0 1-.293-.726c0-.284.112-.541.293-.727a.98.98 0 0 1 .707-.301"/></svg>