<svg xmlns="http://www.w3.org/2000/svg" width="109.934" height="179.149" viewBox="0 0.154 109.934 179.149"><g fill="#c8bea0"><path d="M45.619 152.742a4.01 4.01 0 0 0 3.436-2.632c.198-.658.66-4.014-.529-5.265-2.18-2.171-6.804-1.974-7.597.263-.462 1.317-.661 3.488.396 4.87s3.237 2.172 4.294 2.764M39.608 149.32l-1.718.527-4.69 1.382c-1.387.395-2.642 1.053-3.832 1.842-1.056.724-1.123 1.317-.528 2.567.33.263.727.066 1.057 0a18.3 18.3 0 0 0 4.822-2.04c.925-.592 1.916-1.119 2.907-1.711a27 27 0 0 0 1.453-.987c.463-.395.661-.987.529-1.58M28.708 150.242c1.916.263 8.522-1.514 10.57-2.764.066-.198.066-.395.066-.593 0-.263-.066-.46-.066-.658-.265-.066-.595-.066-.859-.066-.397.066-.859.132-1.255.264-1.586.394-3.171.724-4.757 1.184-.991.329-1.915.724-2.84 1.251-.529.131-.925.723-.859 1.382M44.1 152.94l-1.123-.856a18.4 18.4 0 0 0-4.096 1.645c-1.321.724-2.708 1.448-4.162 2.04-.991.395-1.717 1.119-2.18 2.106.265.132.529.329.793.329a2.7 2.7 0 0 0 1.057-.197c3.237-1.316 6.342-3.027 9.381-4.672.066-.066.132-.198.33-.395M41.788 158.862c.528.264 1.189.264 1.651-.131l1.784-1.185c.661-.526 1.255-1.118 1.916-1.645a7.1 7.1 0 0 0 1.585-2.106 6.6 6.6 0 0 0 .331-1.053 2.2 2.2 0 0 0-.925 0c-2.18.79-4.162 2.04-5.814 3.62-.792.592-.991 1.645-.528 2.5M51.301 146.819l-1.057-.723c-.925-10.267 7.266-19.677 13.08-27.509 3.699-4.738 6.606-10.002 8.786-15.596.594-1.514 2.51-12.438 11.692-9.345s-1.915 14.807-3.501 17.373c-2.906 4.607-5.879 9.214-8.984 13.755-5.285 7.765-9.447 20.598-20.016 22.045m23.98-40.472c-1.718.263-4.559 5.067-5.483 6.384a70.5 70.5 0 0 0-5.351 8.489c-1.718 3.159-3.369 6.318-5.285 9.411-1.52 2.5-4.096 5.462-5.021 8.16.132.526.264 1.119.331 1.645.396.395.66.856 1.321.987 5.681-4.409 8.191-10.661 11.891-16.518 1.981-3.093 3.765-6.252 5.747-9.345 1.255-1.974 5.285-6.449 2.642-8.884z"/></g><path fill="#aaa082" d="M85.652 47.448c1.453.395 3.501 4.475 4.228 6.186 0 11.583-.991 24.284-1.453 26.653-.727 4.08-2.775 16.913-7.399 18.295-1.85-1.119-.463-5.265 0-6.91 4.228-15.202 3.699-37.775 3.237-38.893-.463-1.119-1.652-1.975-1.982-3.225.066-1.777 2.114-1.777 3.369-2.106"/><path fill="#aaa082" d="M85.058 96.673c-.199 2.501-2.048 4.344-4.228 4.278-1.916 0-3.435-1.58-3.369-3.422v-.198c.132-1.184.924-2.237 1.981-2.83.265-.131.595-.263.859-.329.397-.065.859-.131 1.255-.065a7.18 7.18 0 0 1 3.502 2.566"/><path fill="#c8bea0" d="M76.205 44.224c-.264.263-3.897.592-6.473 2.434-.925 3.686 5.152 4.87 7.464 4.146 2.312-.723 4.162-2.237 4.03-3.619-.132-1.448-2.576-2.764-5.021-2.961"/><path fill="#aaa082" d="M78.848 130.17c-2.643.79-3.369.987-5.813-2.83-1.85-2.961-1.982-8.029-2.18-11.451-.199-3.553-.265-7.173-2.775-9.937-2.642-2.895-2.708-5.791-1.321-8.687.726-1.513 5.681-3.224 9.314-.197 3.303 2.764 5.351 10.003 5.946 13.359 1.057 5.594-.529 19.019-3.171 19.743"/><path fill="#dcd2b4" d="M73.959 98.779c1.586 1.448.859 3.356-.528 4.343a2.77 2.77 0 0 1-3.898-.592c0-.066-.066-.066-.066-.131-.462-.856-.528-1.909-.066-2.764a6 6 0 0 1 .397-.659c.198-.263.462-.46.792-.658.793-.329 1.784-.987 3.369.461"/><g fill="#aaa082"><path d="M84.661 131.091c1.454 2.106.991 4.541-.925 5.923-1.585 1.053-4.161 1.053-5.351-.79-.66-1.053-.66-2.435-.066-3.553.133-.264.331-.593.595-.79.33-.329.661-.592 1.057-.856 1.057-.526 3.303-1.382 4.69.066M76.073 131.683c.727.066 1.189.724 1.123 1.448v.066c-.132.658-.726 1.053-1.387.987-.396-.066-.661-.395-.793-.79 0-.065-.066-.197-.066-.329 0-.131 0-.263.066-.394.132-.395.463-1.053 1.057-.988"/><path d="m103.951 175.315-1.321.592s-21.14-38.432-19.818-40.604c1.123-.197 2.312-.395 3.765 1.25 6.87 7.766 17.374 38.762 17.374 38.762M76.404 139.844l.858-.132c4.691 4.014 9.183 15.728 12.684 20.796l11.098 15.925-1.321 1.382-2.841-1.513c0 .066-23.385-30.864-20.478-36.458"/><path d="M108.443 171.564s-7.663 4.804-8.191 5.199c0 .197-1.454-2.699-1.52-2.699-.66.79-1.255 1.58-1.85 2.369l2.313 2.37a9.2 9.2 0 0 0 3.369-1.514c.66-.066 6.87-4.87 6.87-4.87z"/></g><path fill="#dcd2b4" d="M64.711 102.399c-.463 4.606-6.87 3.751-10.306 3.751-3.633 0-8.852-.066-11.758-2.633-3.369-2.895-.397-7.634-2.973-10.858-2.973-3.685-7.927-1.316-11.627-2.303-.198-6.055 14.666-2.435 17.837-2.238 7.002.461 13.938-.066 20.875-.658 2.576-.197 6.011-.856 8.522-.132 2.51.724 4.36 4.212 1.123 5.528-1.916.79-5.351-1.119-7.597-.724-3.832.593-4.096 3.028-4.096 10.267m-18.563-9.016c-.396 1.184-.198 5.462 1.453 6.975.991.922 2.907.988 4.691 1.317 3.633.658 6.011.197 6.804-2.764.528-1.975.396-2.633.462-4.87s-2.312-2.106-3.237-1.777-.132 1.711-1.057 2.369c-.66.461-3.765.856-4.558-.066s.066-1.777-1.585-2.171c-1.652-.395-2.577-.198-2.973.987"/><path fill="#c8bea0" d="M22.234 52.515s1.519 23.823 7.531 24.81l4.888-1.25-2.774-22.638z"/><path fill="#aaa082" d="m68.807 54.556-1.189 21.98 7.993.789s6.011-17.242 2.642-23.691z"/><path fill="#dcd2b4" d="M20.252 55.279a5.3 5.3 0 0 1 .529-3.882c2.246-2.304 9.909-.395 12.617-.132 4.096.329 8.192.856 12.287 1.645.397.395.529.987.331 1.514-3.039 1.974-8.324 1.579-11.891 1.777-3.832.197-10.702 1.777-13.873-.922M21.705 63.637c-.594-1.316-.924-2.501-.264-3.817 7.003-1.382 15.723-2.106 22.857-1.382 1.057 1.316 1.123 1.514 1.057 2.698-6.936 3.488-16.251 5.002-23.65 2.501M24.546 69.955a91 91 0 0 1 12.618-2.435c2.18-.329 7.597-2.633 9.446-1.053.331 2.566-11.825 5.857-13.608 6.449s-5.615 1.777-7.465 1.185c-2.246-.724-1.519-2.238-.991-4.146M27.651 78.642c3.039-1.843 6.936-2.501 10.305-3.752 2.907-1.053 6.012-2.895 9.183-2.764-1.255 3.225-18.431 11.583-19.488 6.516"/><path fill="#dcd2b4" d="m23.423 52.713-3.237 1.974s1.982 20.401 7.861 24.547l2.577.329c-2.18-5.396-4.03-10.924-5.616-16.518a68.6 68.6 0 0 1-1.585-10.332M57.51 62.518l-.726-1.316c.132-.46.33-.921.528-1.382 2.444-1.908 9.315-.066 12.155.132 3.171.197 6.21.329 9.315 1.119.594.921.925 1.974 1.057 3.093-1.387 3.224-7.861 1.513-10.438 1.25-4.096-.329-8.059-1.316-11.891-2.896M57.18 54.687c.925-3.225 7.201-2.04 9.513-1.974 3.963.131 7.861.197 11.825.329 3.963 4.212-6.673 4.343-7.994 4.343-2.576-.066-12.749 1.053-13.344-2.698M58.567 66.664c6.738.527 13.741 2.435 20.413 3.883l.661.987c.066.856-.133 1.711-.529 2.501-2.444.263-22.857-4.409-20.545-7.371M58.832 73.706c.66-2.896 15.722 3.159 18.1 3.948l.463 1.317c-1.123 4.343-16.78-2.567-18.563-5.265"/><path fill="#dcd2b4" d="m73.761 79.76 3.039.066s2.114-2.303 3.237-7.831c1.123-5.791.793-15.268-1.123-18.229l-3.105-.066c.859 1.514 1.453 3.225 1.652 4.936.396 2.303.066 5.199-.265 8.621-.396 4.014-3.038 10.99-3.435 12.503"/><path fill="#c8bea0" d="M50.904 52.055c-.462 4.541-.66 9.016-.594 13.556-.066 2.83.066 5.66 0 8.49-.066 2.237-.397 4.935.264 6.91.793.46 1.321.197 1.982-.987.792-9.016.594-18.69.066-27.903z"/><path fill="#c8bea0" d="M46.478 80.221c.397-3.685 6.54-1.974 9.117-1.777 2.51 6.449-8.787 5.725-9.117 1.777M47.535 72.982c.33-3.619 5.747-1.974 7.993-1.777 2.247 6.384-7.729 5.726-7.993 1.777M48.328 66.401c.33-3.685 5.417-3.817 6.672-1.053 1.916 4.475-6.408 5.002-6.672 1.053"/><path fill="#c8bea0" d="M47.799 59.491c.331-3.619 5.417-3.817 6.673-1.053 1.915 4.475-6.408 4.936-6.673 1.053M48.46 53.305c.264-2.961 4.36-3.093 5.351-.855 1.519 3.619-5.153 4.014-5.351.855"/><path fill="#dcd2b4" d="M52.754 80.089c.132.658-.33 1.317-.991 1.448h-.066c-.661.066-1.255-.329-1.387-.987 0-.395.132-.79.462-.987a.5.5 0 0 1 .264-.132c.132-.066.265-.066.397-.066.462.066 1.189.132 1.321.724M52.952 72.85c.132.658-.33 1.317-.991 1.448h-.132c-.661.066-1.255-.329-1.387-.987 0-.395.198-.79.528-.987a.5.5 0 0 1 .265-.132c.132-.066.264-.066.396-.066.462 0 1.189.132 1.321.724M53.084 65.94c.132.659-.33 1.382-1.057 1.448h-.066c-.66.066-1.255-.329-1.387-.987 0-.395.132-.79.462-.987a.5.5 0 0 1 .265-.132c.132-.065.264-.065.396-.065.528 0 1.255.131 1.387.723M52.754 58.899c.132.658-.33 1.382-1.057 1.448h-.066c-.661.066-1.255-.329-1.387-.987 0-.395.132-.79.462-.988a.5.5 0 0 1 .264-.131c.132-.066.265-.066.397-.066.528.066 1.255.132 1.387.724M52.688 52.844c.132.659-.33 1.382-1.057 1.448h-.066c-.661.066-1.255-.329-1.387-.987 0-.395.198-.79.462-.987a.5.5 0 0 1 .264-.132c.132-.065.264-.065.397-.065.462.065 1.189.131 1.387.723M46.016 45.54c.132-1.053.462-1.711 1.057-1.843a6.8 6.8 0 0 1 1.651-.395c1.586-.197 3.237.066 4.823.066 1.453-.066 2.906 0 4.426 0h.726c.859 1.382.265 3.488-.528 4.014-.198.066-.33.198-.529.264-.99.329-2.047.46-3.038.394-1.85 0-3.7-.065-5.616-.197-.594 0-1.189-.132-1.783-.329-.595-.263-1.057-.79-1.189-1.974"/><path fill="#c8bea0" d="M38.287 97.594c-1.982-3.027-6.672-4.08-9.909-2.434-2.775 1.382-3.766 6.909-1.256 8.555 2.643 2.5.925 4.541-.462 7.239-1.585 2.895-2.576 5.988-3.832 9.081-.99 2.304-2.444 5.133-2.246 7.766.133 1.842 1.322 2.895 2.841 3.422.396.131 3.105-.263 5.285-2.567 3.369-3.488 6.804-9.871 7.795-12.701 2.048-6.318 3.699-15.399 1.784-18.361"/><path fill="#f0e6d2" d="M30.095 97.924c-1.189 1.579-1.123 3.422.198 4.54 1.189.987 2.907.856 3.898-.329 0-.066.066-.066.066-.131.528-.856.661-1.843.264-2.764-.066-.264-.198-.461-.396-.658-.198-.264-.463-.461-.727-.658-.859-.659-2.576-.79-3.303 0"/><g fill="#c8bea0"><path d="M25.339 138.462c.066-.198.264-.461.33-.724.793-2.303.33-3.422-1.916-4.738a4.02 4.02 0 0 0-3.369-.329c-2.378 1.053-1.982 4.54 0 5.725l1.454.921c1.189.066 2.444.132 3.501-.855M18.865 130.038c-.33.593-.198 1.382.462 1.711 0 0 .066 0 .066.066a1.2 1.2 0 0 0 1.652-.461c.132-.329.132-.789-.132-1.118-.066-.066-.132-.132-.198-.264-.133-.065-.199-.197-.331-.197-.462-.066-1.123-.197-1.519.263M25.405 143.463c-.066-.724 0-1.316-.463-1.842-.594-.264-1.123 0-1.783.131-7.333 8.819-13.939 23.889-19.356 33.958l1.189.394c3.633-3.29 8.588-13.425 10.966-17.636 3.501-6.055 6.408-8.621 9.447-15.005"/><path d="M7.172 176.565c.727.263 2.114.592 2.51 1.316l-.33.395c-1.585.263-4.228-.921-5.747-1.316C1.821 176.433.5 175.841.5 175.381c0-.724.33-1.448.859-1.975-.132.132 2.048 1.777 2.048 1.777s3.633 1.316 3.765 1.382"/><path d="M17.279 138.922c-1.255-.789-3.501 5.265-4.756 7.897-1.453 3.028-1.85 2.962-3.171 6.121-1.321 3.356-7.993 20.4-7.993 20.4l.33 2.106 1.453.329 14.005-32.378c.066.066 1.388-3.685.132-4.475"/></g><path fill="#c8bea0" d="M66.561 31.851c1.849-.065 5.284-.789 7.134-.921.066.329.661 7.371-1.717 8.16-.727.659-2.445.066-3.303-.131-1.388-1.053-2.379-5.133-2.114-7.108"/><path fill="#f0e6d2" d="M56.189 38.103c-.859-.987-1.123-7.107-.991-8.292 1.123.066 4.823 2.962 5.681 3.291.463.526.133 4.738-.132 5.199-1.849.658-2.84.592-4.558-.198"/><path fill="#aaa082" d="M74.752 32.444a20 20 0 0 0 .198 4.87c1.586.724 2.378.724 3.7 0 .396-.527.528-6.713.462-9.016z"/><path fill="#f0e6d2" d="M66.362 33.233c.397.724-.198 4.475-.396 5.199-.264.922-1.189 1.448-2.048 1.185-.132-.066-.264-.132-.462-.198-.132-.065-.264-.197-.397-.263-.528-.987-1.453-5.593-1.123-6.646.925-.264 3.568.46 4.426.723"/><path fill="#dcd2b4" d="M74.884 4.014C70.722 1.579 65.372 1.382 60.747.79c-7.002-.922-24.706 2.895-29.199 9.937-2.048 3.159-2.18 8.818 0 11.977 2.577 3.817 6.805 5.002 11.165 5.66 5.351.855 9.314 0 12.948 4.606 1.915 2.435 4.558 3.356 7.398 3.488 1.652.066 7.862-.197 9.183-.526 3.171-.856 5.747-3.028 7.068-5.989 6.078-14.083-.594-23.691-4.426-25.929"/><path fill="#c8bea0" d="M72.506 16.452c-.793-.066-1.453.461-1.651 1.185-.529 1.25-.925 2.5-1.123 3.817-.133 1.382-.529 2.698-.793 4.014-.198.921-.595 2.896.991 2.896s1.783-2.172 2.84-2.37.859 1.317 2.378 2.172 1.586-.526 1.718-.79c.066-2.829-1.718-10.595-4.36-10.924"/><path fill="#fff" d="M65.504 15.926c2.048 3.29-.199 7.107-3.7 8.423-2.774 1.053-6.672-.131-7.663-3.553-.528-1.843 0-4.41 1.321-5.726.331-.395.727-.789 1.19-1.053.594-.395 1.255-.724 1.915-.855 1.982-.461 4.889-.593 6.937 2.764"/><path d="M63.258 17.439c.528.198.858.658.924 1.185-.132.79-.198 1.645-1.321 1.777-.793-.527-.594-1.316-.528-2.04 0-.527.396-.922.925-.922"/><path fill="#fff" d="M89.616 15.992c2.048 3.29-.198 7.107-3.7 8.423-2.774 1.053-6.672-.132-7.663-3.554-.528-1.842 0-4.409 1.322-5.725.33-.395.726-.724 1.189-1.053.594-.395 1.255-.724 1.915-.855 1.982-.461 4.889-.527 6.937 2.764"/><path d="M86.313 17.505c.528.198.859.658.925 1.185-.133.789-.199 1.645-1.322 1.777-.792-.527-.528-1.317-.528-2.041 0-.526.396-.921.925-.921"/><path fill="#aaa082" d="M62.002 138.725c-.858-.658-1.519-1.448-1.915-2.435a4.4 4.4 0 0 1 0-3.422c.33-.921 1.189-1.382 1.981-1.777.331-.131.661-.066.925.066.793.329 1.586.724 2.312 1.25 1.19.987 1.718 2.633 1.322 4.146-.066.132-.066.264-.132.329-.727.856-1.52 1.646-2.511 2.238-.594.395-1.189.197-1.982-.395"/><path fill="#c8bea0" d="m80.301 142.147-.991 1.119c-.528.066-1.123 0-1.585-.329a294 294 0 0 0-6.21-3.488c-.925-.461-1.783-1.119-2.51-1.843-.397-.329-.661-.724-.661-1.25.132-.395.463-.461.859-.395 1.057 0 2.18.263 3.105.79 1.255.724 2.642 1.25 3.897 1.974 1.123.658 2.18 1.448 3.171 2.237.265.33.595.724.925 1.185M78.319 147.346c-.66.329-1.453.197-2.047-.197-.793-.461-1.586-.988-2.379-1.448-1.717-.987-3.369-2.04-4.888-3.291a17 17 0 0 1-1.982-1.711c-.462-.329-.661-.921-.396-1.448.198 0 .33 0 .528.066.529.264 1.057.461 1.652.527.264.066.462.131.726.263 1.718.987 3.634 1.777 5.219 2.961a16.8 16.8 0 0 1 2.841 2.435c.462.461.726 1.119.726 1.843M74.356 148.07c-2.444-.329-8.522-4.475-9.843-6.647.66-.263 1.387-.131 1.982.263l3.567 2.567c.726.526 1.453.987 2.18 1.448.991.46 1.717 1.316 2.114 2.369M74.356 132.407c-.595.461-1.388.658-2.114.461-.397-.066-.727-.132-1.057-.263a47 47 0 0 0-6.144-1.777c-.198-.066-.396-.132-.528-.197.132-.264.264-.461.396-.659a3.24 3.24 0 0 1 2.51-.921c1.982.263 4.03.329 5.88 1.119 1.123.461 1.321.79 1.057 2.237"/><path fill="#dcd2b4" d="M60.087 130.367c-4.823.461-7.597-3.553-10.834-6.712a71 71 0 0 1-9.645-11.714c-2.51-3.817-5.021-7.502-7.795-11.122-1.388-1.777-2.775-3.883-4.691-5.133-2.047-1.316-9.578-5.528-4.492-11.78 5.087-6.252 11.825 8.424 12.75 9.872 2.973 4.475 7.002 8.752 10.305 12.964 3.37 4.277 7.333 7.568 10.702 11.648s6.871 7.107 3.7 11.977M28.906 92.001c-1.057 2.106 3.369 7.634 4.624 9.279 2.246 3.093 4.757 6.054 7.201 9.016 2.114 2.5 4.03 5.133 6.011 7.699 1.784 2.238 4.691 7.371 7.928 7.568l1.915-1.316c-.528-3.159-4.227-5.989-6.143-8.489-2.312-2.962-4.492-6.055-6.804-9.082-1.982-2.501-11.693-16.518-14.732-14.675"/><path fill="#c8bea0" d="m25.669 87.723-.793.263c-4.558-3.553-6.143-11.319-7.993-16.386-1.387-3.751-2.841-7.436-4.162-11.187-.991-2.764-2.51-6.713-2.246-9.806.066-.79 1.387-3.817 2.577-1.908 3.963 6.317 11.956 28.692 12.617 39.024"/><path fill="#c8bea0" d="M26.528 84.893c1.519 1.053 1.982 3.159 1.057 4.804a2.767 2.767 0 0 1-3.832.724c-.066 0-.066-.065-.132-.065-.793-.659-1.123-1.646-1.057-2.633 0-.263.066-.526.198-.724.133-.329.265-.592.529-.855.925-.79 2.048-1.185 3.237-1.251"/><path fill="#dcd2b4" d="M18.733 47.909c-.066-.395-3.039-2.567-4.228-5.462 1.255-3.62 7.002-1.382 8.522.46 1.519 1.843 2.378 4.08 1.519 5.199s-3.633.922-5.813-.197"/></svg>