<svg xmlns="http://www.w3.org/2000/svg" width="71.441" height="83.56" viewBox="-0.5 -0.5 71.441 83.56"><path fill="#0cc" d="M70.109 20.47c-.05.65-.08 1.2-.1 1.66.19.78.32 1.66.32 2.64 0 .22.02.52.04.91.12 1.62-.13 3.25-.73 4.77-.48 1.23-1.14 2.39-2.09 3.67-.82 1.11-1.84 2.06-3.01 2.79-2.52 1.57-5.44 2.37-8.69 2.37-.57 0-1.14-.03-1.69-.09-.08 1.01-.28 1.98-.58 2.9-.15.44-.32.88-.52 1.3.04.66.11 1.52.21 2.62.96 7.29-3.09 11.05-4.91 12.35-.38.26-.76.52-1.16.75 1.48 2.57 1.83 4.95 1.83 6.6 0 4.6-2.46 8.69-6.74 11.21-.24.14-.49.27-.74.4-.47.23-.97.49-1.49.76-1.6.86-3.38 1.31-5.2 1.31h-6.63c-.29.05-1.31.25-3.48.99-4.45 1.53-7.48 2.18-10.12 2.18-2.11 0-4.13-.38-6.02-1.14-.54-.21-1.06-.47-1.56-.77-.81-.49-1.62-1.07-2.47-1.79-2.59-2.19-4.2-5.34-4.51-8.87-.25-2.69.18-5.18 1.28-7.38.05-.1.1-.2.15-.29 1.98-3.69 5.14-6.3 9.01-7.54.02-.57.04-1.17.07-1.81v-.07c-4.16-2.25-6.78-6.66-6.78-12.02 0-4.22 1.82-7.97 5.01-10.41a14.2 14.2 0 0 1-5.43-4.94c-1.45-2.1-2.21-4.53-2.21-7.1 0-5.32 3.21-9.93 8.61-12.37 2.54-1.19 5.05-1.82 7.47-1.88.53-.03 1.63-.13 3.61-.46 2.73-.48 4.49-.78 5.28-.91l.26-.03c2.83-.37 6.92-.82 12.49-1.36.24-.03.47-.04.71-.05 3.18-.11 7.7-.46 13.45-1.05 1.27-.22 2.44-.32 3.56-.32 2.02 0 3.9.36 5.6 1.06.04.02.08.03.13.05 4.28 1.84 7.22 5.71 7.92 10.39.21 1.25.21 2.55.14 4.48-.01.6-.06 1.63-.29 4.49"/><path fill="#fff" d="M59.399 26.437q-.173.44-.692 1.144-1.127.704-2.858.703-1.82 0-2.037-1.407-.218-1.407-.041-4.046.35-3.517.352-4.223-.001-1.67-.529-2.551-3.617.264-11.471.792-10.764.528-16.322 2.111a5.6 5.6 0 0 1-.44 1.759v5.277q0 5.015 1.407 10.644 3.254.177 9.323-.527 0-1.406-.176-3.959-.264-2.989-.308-4.046a15 15 0 0 0-.22-2.023q-.09-1.23.264-2.022.35-.791 2.023-.88 1.582-.176 2.287.352.703.53.791 1.628.087 1.1.176 2.066.264 2.991.353 8.093 1.934.527 1.935 2.639 0 .44-.088.704-.44.44-1.144 1.495-.089.177 0 1.407 0 1.847.353 5.718.264 1.671-.353 2.11-1.496 1.056-3.254 1.056-1.76 0-2.023-1.407V43.15q-.09-.704-.267-2.022-.621-.351-2.84-.176a55 55 0 0 1-3.283.439q-1.244-.087-3.549.703-.09-.527-.089 5.19v7.213q0-.088-.132 2.595t-.132 4.09v2.287l.262.264q2.094 0 6.46-.352.173 0 1.484-.264.872-.264 1.396-.088.697.26 1.353 1.125.655.866.655 1.558 0 .953-1.319 1.73-.88.432-1.848.952h-6.861q-2.2 0-6.817 1.583-4.618 1.584-6.553 1.584-1.057 0-1.936-.353a8 8 0 0 1-1.011-.747q-.574-.485-.66-1.451-.088-.968.176-1.496 1.32-2.461 4.486-2.551 5.101-.263 5.189-.308.087-.042.439-.484-.089-1.582.265-10.995v-9.675h-4.75q-2.024-.173-2.023-2.618 0-1.223.781-1.747.52-.349 1.646-.96 1.212-.173 3.554-.786-.309-2.268-.616-6.634 0-.872.309-3.709.307-2.837.308-4.148 0-1.831-.527-2.443-.706 0-2.331.308-1.629.308-2.419.308-2.025 0-2.991-1.671a1.52 1.52 0 0 1-.352-.968q0-1.407 2.199-2.375 1.846-.878 3.254-.879 1.935-.089 5.103-.616 3.958-.703 5.102-.88 4.044-.527 12.139-1.319 5.277-.174 14.601-1.144 2.376-.438 3.431 0 1.23.53 1.407 2.023.087.352 0 2.463 0 .705-.264 3.958-.177 2.64-.176 4.223 0 .176.183.483.184.309.185.396-.001.616.071 1.671"/></svg>