<svg xmlns="http://www.w3.org/2000/svg" width="95.066" height="245.797"><defs><linearGradient id="a" x1="239.214" x2="239.214" y1="58.838" y2="70.891" gradientUnits="userSpaceOnUse"><stop offset="0" stop-color="#1d140d"/><stop offset="1" stop-color="#1d140d" stop-opacity="0"/></linearGradient></defs><g stroke-miterlimit="10" data-paper-data="{&quot;isPaintingLayer&quot;:true}" style="mix-blend-mode:normal"><path d="M36.245 28.82c.873.004 1.568.616 1.656 1.525.089.909-.069 14.788-.069 14.788-.004.838-.752 1.515-1.67 1.511-.873-.003-1.585-.619-1.65-1.4l-.006-.124.07-14.788c.003-.838.75-1.515 1.67-1.511M58.662 29.139c.872.003 1.567.615 1.656 1.524s-.07 14.788-.07 14.788c-.004.838-.751 1.515-1.67 1.511-.872-.003-1.585-.62-1.65-1.4l-.006-.124.07-14.788c.004-.838.751-1.515 1.67-1.511" data-paper-data="{&quot;origPos&quot;:null}"/><g stroke-width="0"><g data-paper-data="{&quot;origPos&quot;:null}"><path fill="#755135" d="M61.164 51.93c-4.722 8.228-20.899 8.586-27.529.45 2.746-.966 6.59-2.371 6.59-2.371l.637-8.213 12.99-.187.769 7.878s5.866 2.115 6.543 2.443" data-paper-data="{&quot;origPos&quot;:null}"/><path fill="#4c392b" d="m40.953 41.822 12.99-.187.695 7.793c-3.523.04-11.581-.283-14.156-2.288z" data-paper-data="{&quot;origPos&quot;:null}"/></g><path fill="#755135" d="M63.193 20.217c.071-.007 1.812-1.455 2.652.693.652 1.67-.984 6.637-2.88 7.973-1.544 10.443-2.784 17.54-15.361 17.405-12.009.223-13.793-7.713-15.778-16.783-2.047-2.86-2.635-4.336-3.075-6.63-.395-1.857.96-3.766 2.807-2.701.222-13.186 6.576-18.402 16.416-18.785s15.766 8.882 15.22 18.828" data-paper-data="{&quot;origPos&quot;:null}"/></g><g stroke-width="0" data-paper-data="{&quot;origPos&quot;:null}"><path fill="#755135" d="M65.686 52.08c2.807.508 3.925.077 6.89 3.038 8.823 8.811 11.853 36.081 12.992 40.61-.055 2.113.383 5.75-2.964 6.528-3.305.768-6.101-.807-7.192-3.26-1.014-3.54-4.491-16.611-5.906-20.886" data-paper-data="{&quot;origPos&quot;:null,&quot;origRot&quot;:0,&quot;index&quot;:null}"/><path fill="#eba15b" d="M64.771 52.095c3.26.481 6.012.169 9.594 3.637 7.172 6.944 9.515 16.279 11.274 25.42-2.358 1.13-14.72 4.404-17.219 5.301" data-paper-data="{&quot;origPos&quot;:null,&quot;index&quot;:null}"/></g><g stroke-width="0" data-paper-data="{&quot;origPos&quot;:null}"><path fill="#755135" d="M25.56 78.192c-1.414 4.274-4.892 17.346-5.906 20.885-1.09 2.454-3.887 4.028-7.192 3.26-3.347-.777-2.908-4.414-2.964-6.527 1.14-4.529 4.169-31.8 12.993-40.61 2.964-2.961 4.082-2.53 6.89-3.038" data-paper-data="{&quot;origPos&quot;:null,&quot;origRot&quot;:0,&quot;index&quot;:null}"/><path fill="#eba15b" d="M27.706 86.523c-2.499-.897-15.495-4.451-17.853-5.583 1.76-9.14 4.103-18.476 11.274-25.42 3.583-3.467 6.335-3.155 9.595-3.636" data-paper-data="{&quot;origPos&quot;:null,&quot;index&quot;:null}"/></g><path fill="#47646d" d="M20.768 138.594c1.158-17.17 4.542-27.08 4.542-27.08l23.539.247s1.298 11.107-1.13 26.725c-1.115 7.177-4.287 34.996-4.287 34.996-.682 6.631-4.748 11.771-12.149 11.388-9.64-.498-10.55-8.277-10.724-12.275.1-7.72-.702-20.495.209-34.001" data-paper-data="{&quot;origPos&quot;:null,&quot;origRot&quot;:0}"/><path fill="#47646d" d="M73.375 137.936c1.131 13.49 1.1 26.264 1.327 33.981-.11 4-1.458 11.524-11.09 12.18-7.393.504-10.984-4.86-11.761-10.635 0 0-4.194-28.036-5.426-35.193-2.682-15.576-2.14-26.512-2.14-26.512l25.498-.846s2.153 9.877 3.592 27.025" data-paper-data="{&quot;origPos&quot;:null,&quot;origRot&quot;:0,&quot;index&quot;:null}"/><path fill="none" stroke="#000" stroke-linecap="round" stroke-width="2" d="M35.043 17.021c2.719-.7 6.35-.341 8.406.524" data-paper-data="{&quot;origPos&quot;:null,&quot;origRot&quot;:0}"/><path fill="none" stroke="#000" stroke-linecap="round" stroke-width="2" d="M51.37 17.54c2.023-.937 5.64-1.425 8.382-.821" data-paper-data="{&quot;origPos&quot;:null,&quot;origRot&quot;:0,&quot;index&quot;:null}"/><g data-paper-data="{&quot;origPos&quot;:null}"><path fill="#523825" d="M45.776 33.826c.75.086 1.451.39 2.007.868a3.72 3.72 0 0 1 2.013-.868c1.045.148 2.06.44 3.013.868 0 0-.173 2.699-2.18 3.568-1.604.645-3.335.73-4.94.085-1.256-.576-2.22-1.656-2.933-2.784 0 0 2.014-1.737 3.02-1.737" data-paper-data="{&quot;origPos&quot;:null}"/><path fill="none" stroke="#241b15" stroke-linecap="round" stroke-width="1.5" d="M53.533 35.343c-2.927 1.038-7.793 1.369-11.021.107" data-paper-data="{&quot;origPos&quot;:null,&quot;origRot&quot;:0,&quot;index&quot;:null}"/></g><g fill="none" stroke="#4c392b" stroke-linecap="round" stroke-width="1.5" data-paper-data="{&quot;origPos&quot;:null}"><path d="M44.894 29.434s1.736-.424 2.1.46M49.09 29.928c.23-.866 1.714-.641 1.714-.641" data-paper-data="{&quot;origPos&quot;:null}"/></g><path fill="#f2dbc6" d="M48.788 124.166c-12.972.138-25.949-4.38-25.949-4.38l1.924-66.96s8.863-2.113 12.562-2.368c2.376 8.85 18.174 9.317 21.096-.088 1.29.468 11.253 2.093 11.253 2.093l2.593 66.157s-12.642 5.342-23.479 5.546" data-paper-data="{&quot;origPos&quot;:null}"/><path fill="#fff" d="M38.415 24.378c-2.281-.338-3.841-2.074-3.543-3.243.3-1.168 2.343-1.326 4.625-.989s3.937 1.652 3.638 2.82c-.299 1.169-2.438 1.75-4.72 1.412" data-paper-data="{&quot;origPos&quot;:null,&quot;origRot&quot;:0}"/><path d="M38.07 22.671c-.112-1.605.845-2.314 2.336-2.278 3.011.512 3.923 3.27.928 3.96-1.652.375-3.155.182-3.265-1.682" data-paper-data="{&quot;origPos&quot;:null,&quot;origRot&quot;:0}"/><path fill="none" stroke="#000" stroke-linecap="round" stroke-width="1.5" d="M34.885 20.68c2.635-1.007 6.281-.364 8.108 1.015" data-paper-data="{&quot;origPos&quot;:null,&quot;origRot&quot;:0}"/><path fill="#fff" d="M59.991 21.048c.407 1.106-1.269 2.683-3.518 3.163-2.25.48-4.391.004-4.784-1.064s1.112-2.323 3.361-2.803c2.25-.481 4.548-.364 4.941.704" data-paper-data="{&quot;origPos&quot;:null,&quot;origRot&quot;:0}"/><path d="M57.183 19.916c3.074-.108 3.838 1.872 1.527 3.441-1.278.862-2.73.907-3.411-.653-1.051-2.404.414-2.691 1.884-2.788" data-paper-data="{&quot;origPos&quot;:null,&quot;origRot&quot;:0}"/><path fill="none" stroke="#000" stroke-linecap="round" stroke-width="1.5" d="M51.495 21.905c2.056-1.755 5.837-2.104 8.109-1.403" data-paper-data="{&quot;origPos&quot;:null,&quot;origRot&quot;:0}"/><g stroke-linecap="round" data-paper-data="{&quot;origPos&quot;:null,&quot;origRot&quot;:0,&quot;index&quot;:null}"><path fill="#fff" d="M34.288 227.8s3.463 5.163 6.329 7.304 11.667 1.139 7.783 6.349c-2.655 3.56-7.308 2.85-11.834 2.223-3.825-.53-4.177-4.49-8.038-4.518-4.095-.03-7.974.556-10.308-2.1-.83-.945 2.93-10.048 2.93-10.048s4.13 1.984 6.282 2.037c2.661.066 6.856-1.247 6.856-1.247" data-paper-data="{&quot;origPos&quot;:null}"/><path fill="#a5a5a5" d="M19.602 240.327c-1.955-1.032-1.858-1.74-1.534-3.432 2.954 1.845 2.4 2.329 10.277 1.806 2.819.281 4.41 3.34 7.933 4.46 9.366 1.907 11.799-1.673 13.132-3.094-.03 1.096-.302 2.238-.79 2.894-2.655 3.56-7.176 3-11.703 2.372-6.443-1.535-5.036-4.259-8.897-4.288-4.096-.03-5.74.697-8.418-.718" data-paper-data="{&quot;origPos&quot;:null}"/><path fill="none" stroke="#000" stroke-width="1.5" d="m37.829 236.83 2.298-2.038M38.195 232.742l-2.178 2.045M36.384 230.7l-2.29 1.917" data-paper-data="{&quot;origPos&quot;:null}"/></g><path fill="#47646d" d="M20.514 174.798c.928-8.946 5.518-14.557 11.949-13.956 6.463-.456 10.472 4.191 10.72 14.348l-2.096 55.653s-6.277 2.323-10.528 2.015c-3.94-.286-12.381-2.925-12.381-2.925s2.207-54.81 2.336-55.135" data-paper-data="{&quot;origPos&quot;:null,&quot;origRot&quot;:0}"/><g stroke-linecap="round" data-paper-data="{&quot;origPos&quot;:null,&quot;origRot&quot;:0}"><path fill="#fff" d="M82.044 235.12c2.935 2.046 11.698.754 7.988 6.088-2.537 3.647-7.21 3.09-11.755 2.612-3.84-.405-4.322-4.35-8.182-4.251-4.094.104-7.952.817-10.372-1.76-.86-.917 2.599-10.139 2.599-10.139s3.549 1.65 7.25 1.75c1.234.033 5.906-1.392 5.906-1.392s3.632 5.046 6.566 7.092" data-paper-data="{&quot;origPos&quot;:null,&quot;index&quot;:null}"/><path fill="#a5a5a5" d="M59.566 237.65c3.013 1.748 2.475 2.25 10.33 1.468 2.828.188 4.519 3.192 8.077 4.197 9.423 1.598 11.737-2.061 13.023-3.525.005 1.097-.228 2.247-.695 2.918-2.536 3.647-7.073 3.235-11.618 2.756-6.49-1.321-5.174-4.09-9.034-3.992-4.094.104-5.713.885-8.436-.44-1.988-.968-1.915-1.68-1.647-3.381" data-paper-data="{&quot;origPos&quot;:null,&quot;index&quot;:null}"/><path fill="none" stroke="#000" stroke-width="1.5" d="m81.544 234.824-2.23 2.112M77.437 234.954l2.11-2.115M75.442 232.848l2.227-1.991" data-paper-data="{&quot;origPos&quot;:null,&quot;index&quot;:null}"/></g><path fill="#47646d" d="M67.066 233.58c-4.23.514-11.74-1.486-11.74-1.486l-3.104-55.52c-.246-10.157 4.377-14.736 10.854-14.595 6.394-.911 10.126 4.217 11.487 13.108.144.317 4.448 54.68 4.448 54.68s-8.023 3.336-11.945 3.813" data-paper-data="{&quot;origPos&quot;:null,&quot;origRot&quot;:0,&quot;index&quot;:null}"/><g data-paper-data="{&quot;origPos&quot;:null,&quot;origRot&quot;:0}"><path d="M54.095 2.719c.399-.713 1.288-.96 1.986-.55 0 0 2.953 2.102 3.783 2.879 1.249 1.166 2.278 2.403 3.009 3.71 1.663 2.977 3.1 7.589 4.36 13.442.782 3.633 2.649 16.519 2.649 16.519l.012.11c.086.818-.493 1.55-1.292 1.637-.76.082-1.446-.45-1.586-1.204l-.022-.164s-1.84-12.71-2.605-16.264c-1.2-5.58-2.564-9.954-4.044-12.602-.563-1.007-1.402-2.015-2.443-2.988-.724-.677-3.266-2.493-3.266-2.493a1.51 1.51 0 0 1-.541-2.032" data-paper-data="{&quot;origPos&quot;:null,&quot;origRot&quot;:0}"/><path fill="#bd8838" d="M66.476 35.368s-.802-1.157-.902-1.95c-.081-.637.34-1.908.34-1.908l2.79-.406s.816.97.994 1.819c.137.649-.321 2.093-.321 2.093z" data-paper-data="{&quot;origPos&quot;:null,&quot;origRot&quot;:0,&quot;index&quot;:null}"/></g><g data-paper-data="{&quot;origPos&quot;:null}"><path d="M56.475 2.52a26 26 0 0 1 2.65 3.157c1.415 1.981 3.312 6.796 3.312 6.796.82 3.027 1.506 8.486 2.092 15.776.02.245 1.05 17.897 1.05 17.897.03.826-.599 1.522-1.405 1.553s-1.485-.613-1.515-1.44l-1.163-19.22c-.569-6.67-1.233-11.625-1.969-14.098-.573-1.925-1.528-3.77-2.76-5.496a23 23 0 0 0-2.35-2.799c-.278-.282-1.022-.963-1.022-.963-.63-.517-.82-1.541-.225-2.105 1.434-1.359 2.865.495 3.305.941" data-paper-data="{&quot;origPos&quot;:null}"/><path fill="#bd8838" d="M62.389 43.157s-.659-1.24-.665-2.04c-.005-.64.564-1.856.564-1.856l2.818-.092s.696 1.056.773 1.918c.059.66-.568 2.044-.568 2.044z" data-paper-data="{&quot;origPos&quot;:null,&quot;origRot&quot;:0,&quot;index&quot;:null}"/></g><g data-paper-data="{&quot;origPos&quot;:null}"><path d="M42.284 2.431c.228.769-.217 1.028-1.262 1.992-1.458 1.344-3.11 2.55-4.257 4.17-3.465 4.894-3.991 10.553-4.312 13.184-.78 6.422.415 23.48.415 23.48.097.812-.5 1.548-1.336 1.642-.835.095-1.59-.487-1.688-1.3 0 0-1.22-17.54-.414-24.17.334-2.749.622-7.897 4.142-13.271 1.522-2.324 3.502-4.757 6.324-6.185 1.34-.678 2.12-.446 2.388.458" data-paper-data="{&quot;origPos&quot;:null,&quot;origRot&quot;:0}"/><path fill="#bd8838" d="M29.6 42.184s-.714-1.35-.698-2.012c.022-.866.648-1.956.648-1.956l2.817-.054s.647 1.184.683 1.825c.045.8-.532 2.072-.532 2.072z" data-paper-data="{&quot;origPos&quot;:null,&quot;origRot&quot;:0}"/></g><g data-paper-data="{&quot;origPos&quot;:null,&quot;origRot&quot;:0}"><path d="M41.706 2.222c.6.838.014 1.716-.58 2.202-.678.554-5.354 4.354-7.49 8.044-2.134 3.69-3.245 6.307-4.21 11.142-.655 3.28-1.223 6.81-1.7 10.345l-.201 1.54-.12.967-.168 1.422-.085.779a1.494 1.494 0 0 1-1.64 1.33 1.493 1.493 0 0 1-1.346-1.512l.013-.167.143-1.284.17-1.411q.121-.984.267-2.062c.485-3.592 1.062-7.18 1.73-10.53.948-4.747 1.905-7.95 4.493-12.28 2.588-4.328 7.758-8.479 8.533-8.762 0 0 1.433-.82 2.191.237" data-paper-data="{&quot;origPos&quot;:null,&quot;origRot&quot;:0}"/><path fill="#bd8838" d="M24.516 35.74s-.503-1.432-.386-2.085c.152-.852.937-1.844.937-1.844l2.8.336s.46 1.26.4 1.899c-.077.796-.842 1.974-.842 1.974z" data-paper-data="{&quot;origPos&quot;:null,&quot;origRot&quot;:0}"/></g><path fill="url(#a)" d="M240.13 58.838c6.863.145 10.752 3.502 12.703 7.969-8.719-.02-19.048-.048-26.847.011 2.316-4.42 6.721-7.672 14.144-7.98" data-paper-data="{&quot;origPos&quot;:null}" transform="translate(-191.992 -57.55)"/><path d="M44.884.59c.932.602.673 1.412.18 1.944s-1.044 1.453-1.396 2.69c-.209.734-.618 3.28-.618 3.28-.08.792-.765 1.366-1.53 1.283-.763-.084-1.318-.793-1.237-1.585 0 0 .472-2.87.716-3.727.49-1.723.944-2.465 1.85-3.28S44.225.165 44.885.59M47.5 0c.758 0 1.38.56 1.44 1.273l.004.114v7.158c0 .766-.646 1.387-1.444 1.387-.757 0-1.378-.56-1.439-1.273l-.004-.114V1.387C46.057.621 46.703 0 47.5 0M51.96.71c.807.78 1.398 2.09 1.91 3.859.241.831.823 3.742.83 3.781.117.792-.403 1.534-1.163 1.657s-1.47-.42-1.588-1.212l-.877-3.829c-.318-.999-.439-1.664-1.003-2.209a1.497 1.497 0 0 1-.075-2.051c.522-.589 1.402-.54 1.966.004" data-paper-data="{&quot;origPos&quot;:null}"/><path fill="#755135" d="M93.837 131.298s1.18 3.03 1.23 4.24c-.052.384.16 3.444-1.07 3.234-1.1-.08-.671-1.335-.947-2.441-.27-1.082-.996-3.264-.996-3.264s.454 2.616.488 4.165c-.22 1.526.185 4.616-1.357 4.41-1.284-.4-.71-2.923-.835-3.501-.285-1.318-.451-3.446-.99-3.631.178 1.327.33 2.972.328 4.298-.003 1.113-.205 3.454-.852 4.408-.515.76-1.528.837-1.83-.014-.24-.499.24-3.03.206-3.567-.105-1.61-.08-3.346-.652-4.225a32 32 0 0 1-.247 5.432c-.263 1.929-1.114 4.689-1.982 4.402-2.339-.387-.318-3.34-.456-5.717-.155-2.664-.643-3.342-1.487-5.877-.574 1.308.084 3.015-.973 4.224-1.365 1.242-1.96.006-1.945-.514.055-1.83-.864-5.118-.218-6.87.553-1.816 1.049-4.171 1.794-6.123-.159-2.048-5.043-18.58-5.749-25.529-.005-.048.097-5.016 3.87-5.5 3.766-.727 6.059 2.431 6.384 3.68 2.71 5.755 3.662 26.184 3.662 26.184zM5.854 123.284s.952-20.43 3.66-26.185c.326-1.248 2.62-4.406 6.386-3.68 3.773.484 3.874 5.452 3.869 5.5-.706 6.95-5.59 23.482-5.749 25.53.745 1.951 1.241 4.307 1.794 6.123.646 1.751-.273 5.039-.217 6.87.013.519-.58 1.756-1.946.514-1.057-1.21-.399-2.917-.973-4.224-.843 2.535-1.332 3.212-1.486 5.877-.138 2.376 1.882 5.33-.457 5.717-.868.286-1.72-2.473-1.982-4.403a32 32 0 0 1-.247-5.432c-.572.88-.547 2.615-.651 4.226-.035.536.445 3.068.205 3.567-.302.851-1.315.773-1.83.013-.646-.953-.85-3.294-.851-4.407-.003-1.327.15-2.971.326-4.299-.537.185-.704 2.313-.989 3.631-.125.578.45 3.102-.835 3.501-1.541.207-1.137-2.883-1.357-4.41.034-1.548.488-4.165.488-4.165s-.726 2.182-.996 3.264c-.276 1.106.154 2.362-.946 2.441-1.232.21-1.02-2.849-1.07-3.233.049-1.21 1.23-4.24 1.23-4.24z" data-paper-data="{&quot;origPos&quot;:null,&quot;origRot&quot;:0,&quot;index&quot;:null}"/></g></svg>