<svg xmlns="http://www.w3.org/2000/svg" width="64.25" height="80.315" viewBox="0.14 0.119 64.25 80.315"><path fill="#ff9400" d="M51.286 57.186c2.438 3.762 7.732 4.667 7.609 10.99-2.116-.144-2.647 1.299-3.382 2.536-4.319-.19-3.756-5.261-6.763-6.763-9.001-.966-9.04 4.691-15.217 5.073-9.654.596-19.967-8.347-22.826-16.909C5.74 37.24 12.565 14.008 22.543 7.308c6.45-4.331 18.658-5.394 26.207 0 5.827 4.164 9.404 17.597 9.3 27.053-.111 9.928-2.347 15.138-6.764 22.826m-16.908 3.382c2.241-.301 4.961-1.749 5.918-5.073-.828-3.118-3.702-4.188-5.072-6.763 5.26-6.484 6.52 1.27 12.68 2.536 4.86-10.711 2.274-28.15-2.536-38.043C14.617-5.912 7.722 64.15 34.378 60.568"/><path fill="undefined" d="M45.368 13.225c4.81 9.892 7.395 27.332 2.537 38.043-6.162-1.266-7.42-9.02-12.681-2.536 1.37 2.575 4.244 3.645 5.072 6.763-.957 3.324-3.677 4.772-5.918 5.073-26.656 3.581-19.761-66.48 10.99-47.343m-12.68 43.116c-5.774-3.623 5.373-20.368 10.99-12.681-.667-13.3-3.133-27.813-17.754-24.517-8.141 10.487-7.303 36.069 6.763 37.197"/><path fill="undefined" d="M63.967 66.485v7.609c-4.332.459-5.423 4.157-8.454 5.918h-4.227c-.794-3.715-3.645-5.373-6.763-6.763-18.975 12.8-42.144-3.6-43.96-23.672V33.515C6.034 17.008 15.993 4.987 33.532.545h2.536c25.324-.33 28.877 35.393 19.444 54.95 2.524 3.958 4.882 8.08 8.454 10.99M58.05 34.36c.105-9.456-3.472-22.889-9.299-27.053-7.549-5.394-19.757-4.331-26.207 0-9.978 6.7-16.803 29.933-11.836 44.807 2.86 8.56 13.172 17.504 22.826 16.908 6.177-.382 6.216-6.04 15.217-5.073 3.007 1.502 2.444 6.574 6.763 6.763.735-1.237 1.266-2.68 3.382-2.536.123-6.323-5.172-7.228-7.609-10.99 4.417-7.688 6.653-12.898 6.763-22.826"/></svg>