<svg xmlns="http://www.w3.org/2000/svg" width="80.736" height="51.231" viewBox="0.099 -0.189 80.736 51.231"><path fill="#b38a00" d="M73.924 13.7h6.411v2.076h-3.34v2.798h3.34v2.349h-3.34v2.797h3.34v4.063h-6.41zM20.182 33.76a3.918 3.918 0 1 0 0-7.837 3.918 3.918 0 0 0 0 7.836m-12.278 0a3.918 3.918 0 1 0 0-7.837 3.918 3.918 0 0 0 0 7.836m18.668 4.97c0-1.018-.23-1.981-.64-2.84a8.32 8.32 0 0 1-5.82 2.365 8.32 8.32 0 0 1-6.025-2.572 6.613 6.613 0 0 0 5.871 9.662 6.616 6.616 0 0 0 6.614-6.615m-.541-14.705a6.614 6.614 0 1 0-12.685-2.628c0 1.092.264 2.12.629 2.86a8.32 8.32 0 0 1 6.139-2.694c2.312 0 4.406.942 5.917 2.462m2.103 2.833c.516 1.647.697 4.401 0 6.246l3.224-3.09zm-17.955-5.53c0-5.439 4.41-9.848 9.85-9.848 5.438 0 9.848 4.409 9.848 9.848 0 1.927 3.829 6.725 5.725 8.983-1.987 1.625-5.725 6.411-5.725 8.35 0 5.44-4.41 9.849-9.849 9.849-5.44 0-9.849-4.41-9.849-9.848q.002-.999.192-1.944a7.3 7.3 0 0 1-2.466.427A7.304 7.304 0 0 1 .599 29.84a7.305 7.305 0 0 1 7.306-7.305c.843 0 1.653.143 2.407.405a10 10 0 0 1-.133-1.61"/><path fill="#b38a00" d="M31.765 26.384h48.57v7.403h-48.57z"/><path fill="#b38a00" d="M32.307 26.564c0-.697.525-1.264 1.173-1.264.649 0 1.174.566 1.174 1.264v7.043c0 .698-.526 1.264-1.174 1.264s-1.173-.566-1.173-1.264zM34.924 26.564c0-.697.526-1.264 1.174-1.264s1.174.566 1.174 1.264v7.043c0 .698-.526 1.264-1.174 1.264s-1.174-.566-1.174-1.264zM65.485 18.078h3.7v8.667h-3.7z"/><path fill="none" d="m53.31 9.637 14.18-2.756"/><path fill="none" stroke="#d9c400" stroke-width=".386" d="m53.31 9.637 14.18-2.756"/><path fill="none" d="M62.096 13.15 59.6.31"/><path fill="none" stroke="#f4e400" stroke-width=".386" d="M62.096 13.15 59.6.31"/><path fill="none" d="m65.707 11.257-9.9-6.678"/><path fill="none" stroke="#d9c400" stroke-width=".322" d="m65.707 11.257-9.9-6.678"/><path fill="none" d="m64.217 3.595-7.335 10.866"/><path fill="none" stroke="#c19e00" stroke-width=".322" d="m64.217 3.595-7.335 10.866"/><path fill="none" d="m68.358 42.771 11.387 2.839"/><path fill="none" stroke="#c19e00" stroke-width=".386" d="m68.358 42.771 11.387 2.839"/><path fill="none" d="m73.494 50.542 3.165-12.69"/><path fill="none" stroke="#f4e400" stroke-width=".386" d="m73.494 50.542 3.165-12.69"/><path fill="none" d="m77.025 47.837-5.322-8.86"/><path fill="none" stroke="#d9c400" stroke-width=".322" d="m77.025 47.837-5.322-8.86"/><path fill="none" d="M79.74 41.641 68.5 48.39"/><path fill="none" stroke="#d9c400" stroke-width=".322" d="M79.74 41.641 68.5 48.39"/><path fill="none" d="m35.584 40.293 6.325 1.578"/><path fill="none" stroke="#d9c400" stroke-width=".215" d="m35.584 40.293 6.325 1.578"/><path fill="none" d="m37.663 44.416 1.756-7.048"/><path fill="none" stroke="#f4e400" stroke-width=".215" d="m37.663 44.416 1.756-7.048"/><path fill="none" d="m39.622 42.912-2.956-4.92"/><path fill="none" stroke="#c19e00" stroke-width=".179" d="m39.622 42.912-2.956-4.92"/><path fill="none" d="m41.13 39.471-6.243 3.749"/><path fill="none" stroke="#d9c400" stroke-width=".179" d="m41.13 39.471-6.243 3.749"/></svg>