<svg xmlns="http://www.w3.org/2000/svg" xml:space="preserve" viewBox="0 0 504.123 504.123"><path d="M252.058 498.527a38.27 38.27 0 0 1-34.028-20.779L4.226 61.318a38.25 38.25 0 0 1 1.371-37.4 38.28 38.28 0 0 1 32.65-18.314h427.63c13.32 0 25.695 6.94 32.65 18.314a38.27 38.27 0 0 1 1.371 37.408L286.07 477.755a38.24 38.24 0 0 1-34.012 20.772M100.876 82.089l151.182 294.463L403.24 82.089z" style="fill:#cc092e"/><path d="M331.993 388.321 499.889 61.318a38.27 38.27 0 0 0-1.371-37.408 38.28 38.28 0 0 0-32.65-18.314h-323.41l37.88 76.485h222.909L289.78 303.084z" style="fill:#a50231"/></svg>