<svg xmlns="http://www.w3.org/2000/svg" xml:space="preserve" viewBox="0 0 511.999 511.999"><path d="M390.207 175.973c-8.953 0-16.205 7.264-16.205 16.205 0 8.953 7.252 16.205 16.205 16.205 8.942 0 16.205-7.252 16.205-16.205 0-8.941-7.264-16.205-16.205-16.205m40.122-100.85c19.124 45.731 30.663 105.046 30.663 169.877 0 57.476-23.538 174.877-35.168 229.388l-1.402-.31H286.069c12.24-57.246 37.708-183.715 37.708-245.352 0-56.775-8.332-109.574-22.641-153.603z" style="fill:#f7b239"/><g style="opacity:.25"><path d="M430.329 75.123h-44.82c19.124 45.731 30.663 105.046 30.663 169.877 0 57.369-23.449 174.434-35.102 229.078h43.353l1.402.31c11.631-54.511 35.168-171.912 35.168-229.388-.001-64.832-11.54-124.147-30.664-169.877" style="fill:#4d4d4d"/></g><path d="m424.295 48.333 6.034 26.779H301.136c-3.046-9.401-6.367-18.412-9.953-26.962v-.011l-2.299-10.206h122.412a13.324 13.324 0 0 1 12.999 10.4M424.421 474.078l1.402.31c-3.827 17.883-6.356 28.997-6.356 28.997H279.644v-.012s2.551-11.183 6.425-29.296z" style="fill:#3a88d6"/><path d="M248.533 155.366c-9.516 0-17.228 7.712-17.228 17.216 0 9.516 7.712 17.228 17.228 17.228s17.228-7.712 17.228-17.228c0-9.504-7.712-17.216-17.228-17.216m-122.274 0c-9.516 0-17.228 7.712-17.228 17.216 0 9.516 7.712 17.228 17.228 17.228 9.505 0 17.216-7.712 17.216-17.228.001-9.504-7.711-17.216-17.216-17.216m174.877-80.243c14.309 44.03 22.641 96.828 22.641 153.603 0 61.637-25.468 188.105-37.708 245.352H89.999l-1.218.264c-12.217-57.12-37.766-183.887-37.766-245.616 0-68.912 12.263-131.962 32.583-180.577h207.585c3.586 8.551 6.907 17.561 9.953 26.962z" style="fill:#f7b239"/><g style="opacity:.25"><path d="M301.136 75.123v-.011c-3.046-9.401-6.367-18.412-9.953-26.962h-70.678c3.586 8.551 6.907 17.561 9.953 26.962v.011c7.909 24.339 13.982 51.367 17.842 80.255.078-.001.155-.011.233-.011 9.516 0 17.228 7.712 17.228 17.216 0 8.42-6.041 15.417-14.024 16.919a569 569 0 0 1 1.362 39.224c0 61.637-25.468 188.105-37.708 245.352h70.678c12.24-57.246 37.708-183.715 37.708-245.352 0-56.775-8.332-109.574-22.641-153.603M88.781 474.342l1.218-.264h-1.275z" style="fill:#4d4d4d"/></g><path d="M90.238 343.711a8.62 8.62 0 0 1-8.497-7.234c-7.805-47.874-11.762-84.126-11.762-107.751 0-10.129.283-20.356.84-30.4.264-4.753 4.339-8.386 9.084-8.128a8.62 8.62 0 0 1 8.128 9.084 534 534 0 0 0-.814 29.444c0 22.699 3.881 58.018 11.538 104.977a8.618 8.618 0 0 1-8.517 10.008M102.549 84.351a8.4 8.4 0 0 1-1.689-.172 8.6 8.6 0 0 1-1.609-.483 9.3 9.3 0 0 1-1.494-.793 9 9 0 0 1-1.31-1.08 9 9 0 0 1-1.069-1.31 8.7 8.7 0 0 1-1.287-3.092 9.4 9.4 0 0 1-.161-1.689c0-.563.057-1.126.161-1.689a8.748 8.748 0 0 1 1.287-3.092 9 9 0 0 1 1.069-1.31 9 9 0 0 1 1.31-1.08c.471-.31.977-.575 1.494-.793a8.7 8.7 0 0 1 1.609-.483c2.804-.563 5.781.345 7.781 2.356.402.391.759.839 1.069 1.31a8 8 0 0 1 .793 1.483c.218.517.391 1.069.494 1.609a8.4 8.4 0 0 1 0 3.378 8 8 0 0 1-.494 1.609 8 8 0 0 1-.793 1.483c-.31.471-.667.919-1.069 1.31a8.67 8.67 0 0 1-6.092 2.528M82.85 170.107q-.55 0-1.109-.071a8.62 8.62 0 0 1-7.451-9.648c2.646-20.584 6.49-40.474 11.426-59.116a8.62 8.62 0 0 1 16.665 4.412c-4.743 17.918-8.442 37.063-10.992 56.902a8.62 8.62 0 0 1-8.539 7.521" style="fill:#fff"/><path d="m288.885 37.931 2.299 10.206H83.598l6.413-28.457a14.174 14.174 0 0 1 13.826-11.056h167.108c6.631 0 12.378 4.586 13.826 11.056zM89.999 474.078h196.07c-3.873 18.113-6.425 29.296-6.425 29.296H95.148s-2.528-11.068-6.367-29.031z" style="fill:#3a88d6"/><path d="M107.744 37.368a8.2 8.2 0 0 1-1.678-.172 8.7 8.7 0 0 1-1.621-.483 8.553 8.553 0 0 1-2.793-1.873 8.5 8.5 0 0 1-2.356-4.402 8.4 8.4 0 0 1 0-3.378c.103-.54.276-1.092.483-1.609a8.553 8.553 0 0 1 1.873-2.793 8.5 8.5 0 0 1 4.414-2.356 8.3 8.3 0 0 1 3.367 0c.54.103 1.092.276 1.609.483a8.553 8.553 0 0 1 2.793 1.873c.402.391.759.839 1.08 1.31.31.46.575.965.782 1.483.218.517.391 1.069.494 1.609a8.4 8.4 0 0 1 0 3.378 8 8 0 0 1-.494 1.609 8 8 0 0 1-.782 1.483 8.6 8.6 0 0 1-1.08 1.31 8.5 8.5 0 0 1-4.402 2.356 8.4 8.4 0 0 1-1.689.172" style="fill:#fff"/><path d="M390.207 175.973c8.942 0 16.205 7.264 16.205 16.205 0 8.953-7.264 16.205-16.205 16.205-8.953 0-16.205-7.252-16.205-16.205 0-8.941 7.252-16.205 16.205-16.205M248.533 155.366c9.516 0 17.228 7.712 17.228 17.216 0 9.516-7.712 17.228-17.228 17.228s-17.228-7.712-17.228-17.228c0-9.504 7.712-17.216 17.228-17.216M126.259 155.366c9.505 0 17.216 7.712 17.216 17.216 0 9.516-7.712 17.228-17.216 17.228-9.516 0-17.228-7.712-17.228-17.228 0-9.504 7.712-17.216 17.228-17.216" style="fill:#cc582f"/><path d="M438.409 72.102c-.033-.09-5.706-25.666-5.706-25.666-2.269-10.086-11.071-17.13-21.408-17.13H295.778l-2.596-11.526C290.823 7.312 281.68 0 270.949 0h-167.11C93.107 0 83.964 7.312 81.606 17.782l-6.25 27.747C54.096 96.737 42.39 161.756 42.39 228.728c0 81.175 42.541 268.626 44.351 276.567a8.62 8.62 0 0 0 8.404 6.703h150.721l.033.001h173.567a8.62 8.62 0 0 0 8.405-6.703c1.703-7.472 41.739-183.874 41.739-260.302.001-63.243-11.079-124.626-31.201-172.892m-19.523 393.351H296.707c3.904-18.537 8.704-42.072 13.474-67.375 14.742-78.188 22.217-135.164 22.217-169.349 0-51.246-6.859-101.343-19.601-144.991h60.516l7.627 85.419c-9.11 3.68-15.56 12.61-15.56 23.024 0 13.688 11.136 24.824 24.824 24.824s24.825-11.136 24.825-24.824c0-10.887-7.049-20.154-16.82-23.493l-7.585-84.951h33.908c17.978 45.431 27.842 102.416 27.842 161.258-.003 54.021-21.51 163.611-33.488 220.458m-21.098-273.272c0 4.182-3.403 7.584-7.585 7.584s-7.584-3.402-7.584-7.584 3.402-7.584 7.584-7.584 7.585 3.401 7.585 7.584m18.096-141.959 3.664 16.264H307.336a352 352 0 0 0-7.489-19.94h111.448a4.68 4.68 0 0 1 4.589 3.676M103.839 17.239h167.11a5.52 5.52 0 0 1 5.415 4.331l4.042 17.946H94.381l4.042-17.946a5.52 5.52 0 0 1 5.416-4.331m-14.446 39.53h37.012l-8.147 91.247c-10.347 3.377-17.846 13.112-17.846 24.571 0 14.25 11.593 25.844 25.844 25.844s25.844-11.594 25.844-25.844c0-10.984-6.891-20.384-16.574-24.118l8.188-91.7h87.361l8.188 91.7c-9.684 3.734-16.575 13.134-16.575 24.118 0 14.25 11.593 25.844 25.844 25.844 14.25 0 25.844-11.594 25.844-25.844 0-11.46-7.499-21.195-17.846-24.571l-8.146-91.247h37.012c19.219 48.434 29.763 109.219 29.763 171.96 0 58.197-23.453 176.977-36.083 236.724H95.712c-12.631-59.747-36.083-178.527-36.083-236.724 0-62.742 10.545-123.527 29.764-171.96m36.863 107.214c4.744 0 8.605 3.859 8.605 8.605s-3.859 8.605-8.605 8.605c-4.745 0-8.605-3.86-8.605-8.605s3.861-8.605 8.605-8.605m130.881 8.605c0 4.744-3.859 8.605-8.605 8.605-4.745 0-8.605-3.86-8.605-8.605s3.859-8.605 8.605-8.605c4.745 0 8.605 3.859 8.605 8.605M99.404 482.693h175.98a2516 2516 0 0 1-2.646 12.066H102.049c-.683-3.08-1.581-7.163-2.645-12.066m190.993 12.068a2849 2849 0 0 0 2.633-12.068h122.174a2542 2542 0 0 1-2.642 12.068z" style="fill:#333"/></svg>