<svg xmlns="http://www.w3.org/2000/svg" width="85.029" height="114.534" viewBox="0.11 -1.131 85.029 114.534"><g stroke="#000"><path fill="#0cc" stroke-linecap="round" stroke-width="1.324" d="m1.74 12.994 65.35 1.142-5.131 97.635-48.986-2.944z"/><path fill="#099" stroke-linecap="round" stroke-width=".967" d="M67.196 12.888 83.508.985l-8.141 99.294-12.988 11.132 4.832-97.351z"/><path fill="#666" stroke-width="3.262" d="M37.204 65.96c4.948 0 9.433 2.01 12.682 5.259A17.88 17.88 0 0 1 55.144 83.9c0 4.949-2.009 9.434-5.258 12.683a17.88 17.88 0 0 1-12.682 5.258c-4.949 0-9.434-2.01-12.683-5.258A17.88 17.88 0 0 1 19.263 83.9c0-4.948 2.01-9.433 5.258-12.682a17.88 17.88 0 0 1 12.683-5.258Z"/><path fill="#dddfea" stroke-width="1.462" d="M37.111 75.534c2.218 0 4.227.9 5.683 2.356a8.01 8.01 0 0 1 2.356 5.683c0 2.217-.9 4.227-2.356 5.683a8.01 8.01 0 0 1-5.683 2.356c-2.217 0-4.227-.9-5.683-2.356a8.01 8.01 0 0 1-2.356-5.683c0-2.218.9-4.227 2.356-5.683a8.01 8.01 0 0 1 5.683-2.356Z"/><path fill="#0ff" stroke-linecap="round" stroke-width=".95" d="M23.044.503 83.226.5 66.7 13.75l-64.497-1z"/><path fill="#666" stroke-width="3.262" d="M36.104 21.56c4.948 0 9.433 2.01 12.682 5.259A17.88 17.88 0 0 1 54.044 39.5c0 4.949-2.009 9.434-5.258 12.683a17.88 17.88 0 0 1-12.682 5.258c-4.949 0-9.434-2.01-12.683-5.258A17.88 17.88 0 0 1 18.163 39.5c0-4.948 2.01-9.433 5.258-12.682a17.88 17.88 0 0 1 12.683-5.258Z"/><path fill="#dddfea" stroke-width="1.462" d="M36.011 31.134c2.217 0 4.227.9 5.683 2.356a8.01 8.01 0 0 1 2.356 5.683c0 2.217-.9 4.227-2.356 5.682a8.01 8.01 0 0 1-5.683 2.357c-2.217 0-4.227-.9-5.683-2.357a8.01 8.01 0 0 1-2.356-5.682c0-2.218.9-4.227 2.356-5.683a8.01 8.01 0 0 1 5.683-2.356Z"/></g></svg>