<svg xmlns="http://www.w3.org/2000/svg" width="56.19" height="121.398" viewBox="-0.463 -0.13 56.19 121.398"><path fill="#3c3c32" d="m27.319 92.716-12.585-1.505c.061.24 8.25 28.594 8.25 28.594l-1.746.181s.18.421.12.481l4.877-.18c0-.06 1.084-27.03 1.084-27.571M34.304 120.768c.061-.18.061-.361.181-.481-.482 0-.963-.121-1.445-.241 0-.361.301-.843 1.264-3.492 3.011-8.307 9.635-25.524 9.996-26.728l-16.077-.481c0 .602.602 8.488.481 9.09 0 0-.421-.602-.421-.542.12 1.023 1.565 22.635 1.565 22.635s4.095.24 4.456.24"/><g fill="#64645a"><path d="m18.997 6.922-.361-.241c0-.24.06-.421.06-.602.06-.541.06-1.143.06-1.685 0-.422 0-.422.241-.723.301.121.362.181.362.422 0 .481-.061.903-.121 1.384-.06.362-.06.723-.12 1.084 0 .06-.06.181-.121.361M18.034 7.464l-.422-.181c0-.24-.06-.421-.06-.602-.12-.541-.18-1.143-.301-1.685-.12-.241-.06-.542.121-.783.361.06.421.06.481.301.06.482.121.903.241 1.325.121.421.06.722.121 1.083-.121.241-.121.361-.181.542M19.419 7.344l.482-.061c.06-.18.12-.421.18-.602.181-.541.422-1.083.602-1.565a.74.74 0 0 0 .061-.782c-.302 0-.422 0-.542.24-.181.422-.301.843-.482 1.265s-.241.722-.361 1.083c0 .121 0 .241.06.422"/></g><path fill="#64645a" d="M5.683 62.967s-.663-15.772.241-23.477c.722-6.321 2.348-12.522 4.094-18.602 1.144-3.913 4.155-14.628 9.273-15.11 5.54 3.071 4.637 19.384 4.396 24.501-.301 6.682-1.626 23.659-2.77 30.22-3.251 1.024-15.234 2.468-15.234 2.468"/><path fill="#3c3c32" d="M8.754 52.854s.903-15.17 3.372-26.849c1.746-8.066 4.275-13.304 5.54-13.364 3.131-.12 2.769 13.003 2.589 16.374-.181 4.335-1.506 18.18-2.228 22.454-2.047.663-9.273 1.385-9.273 1.385"/><g fill="#64645a"><path d="m36.508 3.681-.422-.24v-.602c-.06-.542-.06-1.144-.12-1.686a.91.91 0 0 1 .18-.783c.362.061.422.121.422.362.06.481.06.903.06 1.384 0 .361.06.723 0 1.084 0 .18-.06.361-.12.481M35.665 4.344l-.482-.121c-.06-.18-.06-.421-.121-.602l-.542-1.625a.9.9 0 0 1 0-.783c.362 0 .422 0 .482.241.121.421.301.843.422 1.324.12.482.18.723.241 1.084.06.181.06.361 0 .482M36.989 4.043l.482-.121c.06-.241.06-.421.12-.602.121-.542.241-1.083.362-1.685a.74.74 0 0 0-.061-.783c-.361 0-.421.06-.481.301-.121.421-.181.903-.301 1.324-.121.422-.121.723-.181 1.084 0 .181.06.361.06.482"/></g><path fill="#64645a" d="M50.854 67.793c-2.891-3.672-17.041-12.04-17.944-12.943-1.686-6.14-5.48-51.71 2.89-52.132 7.045-.361 8.611 13.003 9.815 17.638 1.746 6.622 5.179 39.25 5.239 47.437"/><path fill="#3c3c32" d="M45.856 58.101c-.662-12.28-1.746-27.451-2.409-31.664-.722-4.515-3.853-20.649-6.985-17.157-3.131 3.491-.06 37.504.542 48.821z"/><path fill="#64645a" d="M50.906 59.703c-.481-5.297-2.83-11.197-6.683-14.929-4.818-4.515-11.261-6.983-17.884-6.742-9.936.24-13.308 2.227-18.366 9.571-4.636 6.743-3.131 18.06-2.649 25.765.481 8.248 4.636 19.324 11.681 24.14 7.347 5.057 18.065 5.84 24.809-.542 6.082-5.779 10.176-25.343 9.092-37.263"/><path fill="#828278" d="m25.977 75.656 1.686-.12 1.927 7.585s-.18 3.01-2.649 3.311-3.673-4.214-3.673-4.214z"/><path fill="#c8c8be" d="M49.911 54.041c5.359 9.571 5.179 25.283 3.011 35.638s-9.213 19.805-18.606 26.848c-2.228-4.394-6.624-41.055-6.624-41.055s18.125-7.766 22.219-21.431"/><path fill="#f0e6d2" d="M27.632 75.532s20.533-.542 22.942-.422 4.335-.18 4.636 2.168c.301 2.347-3.372 2.046-3.372 2.046s-16.74-.18-24.206-3.792"/><path fill="#f0e6d2" d="M49.128 98.528S33.533 83.599 27.692 75.532c0 0 9.634 21.912 19.209 28.173 0 0 1.384 1.625 3.191-.903s-.964-4.274-.964-4.274"/><path fill="#c8c8be" d="M21.96 116.17c-5.419-1.144-9.694-8.187-12.223-12.16-2.831-4.334-4.878-9.15-6.082-14.147-1.204-5.237-2.349-10.896-2.469-16.254C.885 62.232 5.642 52.66 5.642 52.66s1.987 8.609 6.323 13.545c5.359 6.08 14.09 9.451 14.09 9.451a136.5 136.5 0 0 0-1.987 24.26c0 2.649-.121 5.298-.482 7.947-.421 2.588-.301 5.959-1.626 8.307"/><path fill="#f0e6d2" d="M25.995 75.656S8.051 74.332 5.1 74.392s-5.178 1.023-5.058 2.95c.12 1.926 1.626 1.986 4.456 2.167s14.211-.241 21.497-3.853M6.967 97.388c1.505-1.625 13.307-12.642 19.088-21.732 0 0-4.697 10.234-9.755 18.18-2.168 3.371-6.262 7.465-7.045 8.308-2.589 2.829-3.372 3.07-4.637 1.264s.843-4.455 2.349-6.02"/><path fill="#f01446" d="M35.853 52.911c-1.144-3.07-3.071-2.95-6.021-3.311-2.891.12-6.805-.241-9.273 1.686-2.469 1.926-3.011 6.019-.603 8.006 2.831 2.348 11.742 3.251 15.054-.241 1.205-1.264 1.686-3.913.843-6.14"/><path fill="#6e1e3c" d="M32.662 52.55c1.565-.121 1.686 1.986 1.565 2.95-.12.963-.12 2.588-1.505 2.468s-1.626-1.626-1.566-2.468c.061-.843-.06-2.89 1.506-2.95M22.064 52.55c1.566-.121 1.686 1.986 1.566 2.95-.121.963-.121 2.588-1.506 2.468s-1.626-1.626-1.565-2.468-.061-2.89 1.505-2.95"/><path d="m44.259 53.453.783.12c-.06 1.264-.783 2.348-1.927 2.95a1.6 1.6 0 0 1-.723.18c-.421 0-.843 0-1.264-.12-1.325-.181-2.228-1.384-2.108-2.709v-.18c0-.061.061-.121.181-.241.121.06.241.12.301.241.121.24.241.541.361.782.422.903 1.325 1.445 2.289 1.264.963-.06 1.686-.782 1.926-1.685.061-.121.061-.241.181-.602M15.717 53.814l.482.181c.06.12.06.24.06.361a2.77 2.77 0 0 1-2.107 2.227c-1.144.361-2.349-.241-2.77-1.384v-.061a10 10 0 0 1-.181-.662q-.09-.541-.181-1.264c.241.06.542.06.603.12.18.241.301.482.421.723.121.361.181.782.301 1.204l.903.541a2.93 2.93 0 0 0 2.469-1.986M31.322 65.553c-.963-.361-2.649-.903-3.974-.903-1.265 0-2.77.542-3.673.903-.964.843-1.686 1.806-.964 3.311 3.854 3.251 8.37 2.588 10.237-2.288a18 18 0 0 0-1.626-1.023"/><path fill="#fff" d="M24.217 65.312c.421.602 1.866 2.288 2.228 2.228.361-.061.542-1.927.602-2.89-.903.06-1.987.361-2.83.662M27.89 64.65c.12.482.482 2.528.783 2.709.903.181 1.746-1.385 2.047-1.987-.843-.301-1.867-.602-2.83-.722"/></svg>