<svg xmlns="http://www.w3.org/2000/svg" xml:space="preserve" width="138.825" height="191.429" viewBox="0.087 -0.756 138.825 191.429"><title>Slice 1</title><g fill-rule="evenodd"><path fill="#ce8049" fill-rule="nonzero" d="M60 156.25 30.5 57.5l-1 6.5s24 93.75 23.5 93.5l.25.5a3.21 3.21 0 0 0 2.5 2.5c1.25.25 2.5 0 3.5-1 1-.75 1.25-2 .75-3.25"/><path fill="#db9463" fill-rule="nonzero" d="M54.75 157.75c1.5-.75 2.25-2.5 1.75-4L29.5 64 28 74.25l25 83.25c.5.25 1.25.5 1.75.25"/><path fill="none" stroke="#8e4639" stroke-linecap="round" stroke-linejoin="round" stroke-width="1.2" d="M60 156.25 30.5 57.5 28 74.25l25 83.25.25.5c.5 2 2.5 3 4.5 2.5 1.75-.5 3-2.5 2.25-4.25"/><g fill-rule="nonzero"><path fill="#fff" stroke="#8e4639" stroke-linecap="round" stroke-linejoin="round" stroke-width="4.825" d="m13 162.25 33.25-36.75"/><path fill="#ce8049" d="M37.5 1.75c-1-.25-2 0-2.75.75q-1.125 1.125-1.5 2.25l-.25 2C33.5 6.25 7.25 184 7 183.5v.5c-.25 1.75 1.25 3.5 3 3.75s3.5-1 4-2.75L40.5 6c.25-1 0-2-.75-2.75Q39 2.125 37.5 1.75"/><path fill="#db9463" d="M8.5 184.25c1.75 0 3-1.25 3.25-3L37 10c.5-1.75-.5-3.25-2.25-3.75-.5 0-1.25 0-1.75.5L7 183.25c.25.5 1 .75 1.5 1"/></g><path fill="none" stroke="#8e4639" stroke-linecap="round" stroke-linejoin="round" stroke-width="1.2" d="M37.5 1.75c-1-.25-2 0-2.75.75q-1.125 1.125-1.5 2.25l-.25 2L7 183.5v.5c-.25 1.75 1.25 3.5 3 3.75s3.5-1 4-2.75L40.5 6c.25-1 0-2-.75-2.75S38.5 2 37.5 1.75"/><g stroke="#8e4639" stroke-linecap="round" stroke-linejoin="round"><path fill="#ffdb48" fill-rule="nonzero" stroke-width="1.2" d="M2.5 123.75h86.25l11-6.75H13.5zM2.5 123.75h86.25v6.5H2.5z"/><g fill="none" stroke-width=".6"><path d="M6 130.25c1-2.5 2.5-4.75 4.25-6.75 2.75-2.75 6.25-4.25 10.25-4.25 3.75-.25 7.25 1.5 9.25 4.5 1.5 2.25 3.25 4.5 5.25 6.5"/><path d="M11.5 130.25c.75-2.5 2-4.75 3.75-6.5 2.5-2 6.5-2.5 8.75 0 1.5 2.25 3 4.5 4.5 6.5"/><path d="M15.75 130.25s.75-4 3.5-4 2.5 2 4.5 4M32.25 120.25c.25 1.25 1 2.5 1.75 3.5 2.5 2.75 5.5 4.75 9 6.5h33.75c3-1.75 5.75-4 8.25-6.5.75-1 1.25-2.25 1.5-3.25"/><path d="M39.25 120.5c.5 1.25 1 2.25 1.75 3.25 2.25 2.5 5 4.75 8 6.5h19.75c3.5-1.75 6.75-4 9.75-6.5.75-1 1.25-2.25 1.5-3.25"/><path d="M45.75 120.5c0 1.25.5 2.5 1.25 3.25 1.25 1.5 6.5 3.75 11.75 3.75 4.5.25 9.25-1.25 12.75-4 1-.75 1.75-2 2.25-3.25"/><path d="M51.25 120.5s1.75 1.75 8 1.75c3 .25 6-.25 8.75-1.5"/></g><path fill="#ffdb48" fill-rule="nonzero" stroke-width="1.2" d="M88.75 123.75v6.5l11-7V117z"/></g><path fill="#fbd6cc" fill-rule="nonzero" stroke="#fbd6cc" stroke-linecap="round" stroke-linejoin="round" stroke-width=".6" d="M27.25 22 13 119.75h77.5L105 22z"/><path fill="#ffa6b9" fill-rule="nonzero" d="M12.75 121h76.5L92 103.25 15.25 103z"/><path fill="#ff8aae" fill-rule="nonzero" stroke="#ff8aae" stroke-width=".6" d="M20.5 107.25c3.25-1 2.75 2 7 1.75 5.5 0 6.25 2.75 5.5 5s-7 3-11.5-.5c-2.5-2-4.25-5.25-1-6.25Z"/><path fill="none" stroke="#ff8aae" stroke-width="1.2" d="M34.25 106.5c1.25.5 2 1.5 2.75 2.5.5 1 .75 2.25.25 3.5M80 108.5c1-.5 2.25-.75 3.25-.75 1.25.25 2.25.75 3 1.75M55 117c0-1.25.5-2.25 1.25-3.25s1.75-1.5 3-1.75M53.5 107c-.75.75-2 1.25-3 1.5-1.25 0-2.25-.25-3.25-1"/><path fill="#ff8aae" fill-rule="nonzero" stroke="#ff8aae" stroke-width="1.2" d="M62.75 114c-1-1.5 1-2.75 2.75-3.5.75-.25 1.25-.75 1.75-1.5q.375-1.125 0-2.25c-.5-1.25 1.5-2 2.25.5.5 2 0 4-1.5 5.5-1.75 1.75-4.5 2.5-5.25 1.25ZM71.75 114.75c.5-2 3.5-3.25 5.75-3.25 2.25.25 3.5 2 3 3.5s-3.25 1.75-4.75 2c-1.75.25-4.25-.75-4-2.25Z"/><path fill="#ff8aae" fill-rule="nonzero" stroke="#ff8aae" stroke-width=".6" d="M50.5 116.5c-1.25 1-2.75 0-4-.5-2-.5-2.75 1.25-5 0-1.5-.75-2-3.75 1-5 4.5-1.5 10.25 3.5 8 5.5Z"/><path fill="none" stroke="#ffe4de" stroke-width="1.2" d="m30 81.5 3.75 5.25M75 98.5l4-3.25M86.25 66.5l3 4M97.75 34.25l-3.5 3.5M78.75 27.25l4.25 2.5M63.75 29.25l-3.5 3.5M39.25 52.25 34.75 50M51.5 45l.5-5M48.5 62.5 52 59M63 73.5l-1.25-5M48.5 74.25h-5M66.5 88.75l-4-3M49.5 92.25l.5-5M68.25 52l-4.75-2M77.75 75.75l-1.25 5M83 50.25 81 55M75.5 41.75 72 38M42.25 28.5l.5 5M29.75 40.25 34 38.5M28.75 67.25l-2 5.5M29 95.5l-5.75 1.75"/><path fill="#5e154d" fill-rule="nonzero" d="M110.25 25 105 21H27.25c-.25 0-.5.25-.5.5l-14.5 99c0 .25 0 .25.25.5s.25.25.5.25h77.5l7-4.25c.25 0 .25-.25.25-.5l13.5-90.75c-.75-.5-.75-.75-1-.75M27.5 22H104l-6 39-9 58.75H13z"/><g fill-rule="nonzero"><path fill="#ce8049" d="m136.25 156.25-29.5-98.75-1 6.5s24 93.75 23.5 93.5l.25.5a3.21 3.21 0 0 0 2.5 2.5c1.25.25 2.5 0 3.5-1 1-.75 1.25-2.25.75-3.25"/><path fill="#db9463" d="M131 157.75c1.5-.75 2.25-2.5 1.75-4l-27-89.75-1.5 10.25 25 83.25c.5.25 1.25.5 1.75.25"/><path fill="#fff" stroke="#8e4639" stroke-linecap="round" stroke-linejoin="round" stroke-width="4.825" d="m91.25 164.5 30-33.25"/></g><path fill="none" stroke="#8e4639" stroke-linecap="round" stroke-linejoin="round" stroke-width="1.2" d="m136.25 156.25-29.5-98.75-2.5 16.75 25 83.25.25.5a3.21 3.21 0 0 0 2.5 2.5c1.25.25 2.5 0 3.5-1s1.25-2.25.75-3.25"/><path fill="#ce8049" fill-rule="nonzero" d="M114.25 1.75c-1-.25-2 0-2.75.75-.75.5-1.25 1.5-1.5 2.25l-.25 2c.5-.5-25.75 177.25-26 176.75v.5c-.25 1.25.25 2.75 1.25 3.5s2.5 1 3.75.5 2-1.75 2.25-3L117.25 6c.25-1 0-2-.75-2.75q-.75-1.125-2.25-1.5"/><path fill="#db9463" fill-rule="nonzero" d="M85.25 184.25c1.75 0 3-1.25 3.25-3L113.75 10c.25-.75 0-1.75-.25-2.25s-1-1.25-2-1.5c-.5 0-1.25 0-1.75.5l-26 176.5c.25.5.75.75 1.5 1"/><path fill="none" stroke="#8e4639" stroke-linecap="round" stroke-linejoin="round" stroke-width="1.2" d="M114.25 1.75c-1-.25-2 0-2.75.75-.75.5-1.25 1.5-1.5 2.25l-.25 2-26 176.75v.5c-.25 1.25.25 2.75 1.25 3.5s2.5 1 3.75.5 2-1.75 2.25-3L117.25 6c.25-1 0-2-.75-2.75q-.75-1.125-2.25-1.5"/><path fill="#fff" fill-rule="nonzero" d="M66.8 94.575a25 25 0 0 0 .2-3.425 26.5 26.5 0 0 0-3.375-11.675h-14.4A26.5 26.5 0 0 0 45.85 91.15c.009 1.148.11 2.293.3 3.425a30.5 30.5 0 0 0 10.325 1.75c3.517.023 7.012-.57 10.325-1.75"/><path fill="#f05822" fill-rule="nonzero" d="M56.475 96.325a30.5 30.5 0 0 1-10.325-1.75 88 88 0 0 0 3.35 13.15 22.1 22.1 0 0 0 6.825 1.25h.275a21.9 21.9 0 0 0 6.825-1.25 90 90 0 0 0 3.375-13.15 30.2 30.2 0 0 1-10.325 1.75"/><path fill="none" stroke="#f05822" stroke-linecap="round" stroke-linejoin="round" stroke-width=".9" d="M63.7 79.475H49.225A26.5 26.5 0 0 0 45.85 91.15c.009 1.148.11 2.293.3 3.425a88 88 0 0 0 3.35 13.15 15.4 15.4 0 0 0 7.1 1.25 13.5 13.5 0 0 0 6.825-1.25 90 90 0 0 0 3.375-13.15 25 25 0 0 0 .2-3.425 26.5 26.5 0 0 0-3.3-11.675"/><path fill="#ffac33" fill-rule="nonzero" stroke="#5e154d" stroke-linecap="round" stroke-linejoin="round" stroke-width=".6" d="M49.975 75.275A9.18 9.18 0 0 0 46.45 81.4c-.8 4 .475 8.2 1.2 8.2s1.025-2.2 2.125-4.175c.875-1.575 1.975-2.75 3.25-4.65 1.8-2.625 1.525-4.25.775-5.175a2.85 2.85 0 0 0-3.825-.325"/><path fill="#ffac33" fill-rule="nonzero" stroke="#5e154d" stroke-linecap="round" stroke-linejoin="round" stroke-width=".6" d="M50.65 72.5c-1.925-1.15-4.45-.475-7.5 3.075-2.7 3.025-3.7 7.675-3.225 7.65s2.7-1.325 5.375-2.5a13.08 13.08 0 0 0 5.8-4.35c.9-1.75.9-3.175-.45-3.875M53.45 77.1c-2.275 2.5-.75 11.775.35 11.775s4.1-6.85 3.5-10.275c-.3-2.425-2.475-3.1-3.85-1.5"/><path fill="#ffac33" fill-rule="nonzero" stroke="#5e154d" stroke-linecap="round" stroke-linejoin="round" stroke-width=".6" d="M57.25 76.6c1.525-.675 3.875.925 4.25 5.55a11.48 11.48 0 0 1-1.85 7.5c-.525 0-1-3.425-2.5-6.325-1.025-2.5-1.825-5.825.1-6.725"/><path fill="#ffac33" fill-rule="nonzero" stroke="#5e154d" stroke-linecap="round" stroke-linejoin="round" stroke-width=".6" d="M60.725 75.25c-1.2.65-1.95 2.5-.275 4.725s4.05 2.5 5.2 5.875c.375 1.025 1.775-2.8.625-6.5s-3.825-5.025-5.55-4.1"/><path fill="#ffac33" fill-rule="nonzero" stroke="#5e154d" stroke-linecap="round" stroke-linejoin="round" stroke-width=".6" d="M62.3 73.575a3.875 3.875 0 0 0 1.9 3.925 45 45 0 0 1 3.975 2.1c1.15.925 2.1 3.35 2.5 3.15a10.75 10.75 0 0 0-.325-6.825A6.7 6.7 0 0 0 66.1 71.9c-2-.65-3.725.35-3.8 1.675"/><path fill="#ffac33" fill-rule="nonzero" stroke="#5e154d" stroke-linecap="round" stroke-linejoin="round" stroke-width=".6" d="M62.4 71.425c-.3-1.725 1.225-3.35 3.775-3.35a6.575 6.575 0 0 1 6.25 4.125c0 .375-2.775.175-4.7.8s-4.9.775-5.325-1.575"/><path fill="#ffac33" fill-rule="nonzero" stroke="#5e154d" stroke-linecap="round" stroke-linejoin="round" stroke-width=".6" d="M61.025 68.65c-1.05-1.1-.375-3.525 2.5-5a9.15 9.15 0 0 1 5.7-1.025c.325.35-1.025 3.325-2.7 5s-4.05 2.575-5.5 1.025"/><path fill="#ffac33" fill-rule="nonzero" stroke="#5e154d" stroke-linecap="round" stroke-linejoin="round" stroke-width=".6" d="M58.45 66.675c-1.475-.5-2.2-2.275-1.5-5a7.05 7.05 0 0 1 5-4.65c.75 0-.5 1.825-.2 4.225a6.9 6.9 0 0 1 0 3.975 2.5 2.5 0 0 1-3.3 1.45"/><path fill="#ffac33" fill-rule="nonzero" stroke="#5e154d" stroke-linecap="round" stroke-linejoin="round" stroke-width=".6" d="M54.25 55.3c.275-.15 0 2.15.85 3.95a14.2 14.2 0 0 1 2.275 4.725 2.5 2.5 0 0 1-2.5 3.3c-1.925-.2-3.2-1.925-3.475-4.75a7.68 7.68 0 0 1 2.85-7.225"/><path fill="#ffac33" fill-rule="nonzero" stroke="#5e154d" stroke-linecap="round" stroke-linejoin="round" stroke-width=".6" d="M46.625 57.5c.3-.15 1.225 1.475 3.175 2.75a8.73 8.73 0 0 1 3.4 3.425c.75 1.65.95 3.375-.225 4.35s-4.075.55-5.8-2.65a10.25 10.25 0 0 1-.55-7.875"/><path fill="#ffac33" fill-rule="nonzero" stroke="#5e154d" stroke-linecap="round" stroke-linejoin="round" stroke-width=".6" d="M40.825 62.3c.275-.125 2.1.675 5 .975a7.35 7.35 0 0 1 6.175 3.8 2.85 2.85 0 0 1-1.075 3.6 6.85 6.85 0 0 1-7.3-2.225 8.48 8.48 0 0 1-2.8-6.15"/><path fill="#ffac33" fill-rule="nonzero" stroke="#5e154d" stroke-linecap="round" stroke-linejoin="round" stroke-width=".6" d="M36.5 72.775a23.6 23.6 0 0 1 4.275-2.1 14.2 14.2 0 0 1 6.5-1.775c2.3 0 3.275 1.125 3.275 2.85s-2.5 3.15-5.575 3.25c-4.375.125-8.65-1.575-8.475-2.225"/><path fill="#ce8049" fill-rule="nonzero" stroke="#5e154d" stroke-linecap="round" stroke-linejoin="round" stroke-width=".6" d="M63.3 71.9a6.825 6.825 0 0 1-7.2 6.35c-4.25 0-7.5-2.325-7.175-6.575A6.875 6.875 0 0 1 56.1 65.55a6.7 6.7 0 0 1 7.2 6.35"/><path fill="none" stroke="#5e154d" stroke-linecap="round" stroke-linejoin="round" stroke-width=".6" d="M48.925 71.675A26.8 26.8 0 0 1 55.95 69.5a28.7 28.7 0 0 1 6.675-.35M49.775 75.3a69 69 0 0 1 6.825-1.675c3.575-.65 6.7-1.075 6.7-1.075"/><path fill="none" stroke="#5e154d" stroke-linecap="round" stroke-linejoin="round" stroke-width=".6" d="M50.45 68.025A30.4 30.4 0 0 1 52 72.5c.422 1.751.715 3.53.875 5.325M54.075 65.875A28 28 0 0 1 56.2 71.9c.47 2.06.737 4.162.8 6.275M58.375 65.875a31.7 31.7 0 0 1 1.75 5 35.5 35.5 0 0 1 .7 5.525"/><path fill="none" stroke="#fff" stroke-linecap="round" stroke-linejoin="round" stroke-width="1.2" d="M62.95 104.05c0 .275 0 .25-.175.7"/><path fill="none" stroke="#ffdb48" stroke-linecap="round" stroke-linejoin="round" stroke-width=".6" d="M44.75 64.325c1.762.201 3.464.763 5 1.65M41.475 71.675A15.2 15.2 0 0 1 46.2 70M54.5 60.55a6.3 6.3 0 0 1 1.7 3.375M63.85 67.8a6.6 6.6 0 0 0 2.325-2.025"/><path fill="none" stroke="#ef9426" stroke-linecap="round" stroke-linejoin="round" stroke-width=".6" d="M45.125 79.3a11 11 0 0 0 3.025-1.975M55.675 82.5a23 23 0 0 1-.925 2.925M62.75 80.625a7.8 7.8 0 0 1 2.1 2.025M66.025 72.175a8.4 8.4 0 0 1 2.925-.65"/></g></svg>