<svg xmlns="http://www.w3.org/2000/svg" xml:space="preserve" width="46.371" height="46.397" viewBox="0.005 -0.105 46.371 46.397"><title>Slice 1</title><g fill-rule="evenodd"><path fill="#e6781e" d="M45.857 23.136A22.676 22.676 0 1 0 4.535 35.977c3.285 6.038 9.07 9.019 15.316 9.557 6.18.919 12.464-.758 17.364-4.633.382-.259.758-.531 1.12-.81a14.44 14.44 0 0 0 4.691-6.038 22.6 22.6 0 0 0 2.831-10.917"/><g fill="#824600"><path d="M23.868.505h-.648c-.097 13.314-.214 29.861-.09 45.288h.647c-.123-15.44-.006-31.974.091-45.288"/><path d="M.596 22.326v.687h45.28v-.693z"/><path d="M32.239 14.137A19.64 19.64 0 0 1 37.13 5.28c-.175-.136-.356-.278-.537-.408a20.34 20.34 0 0 0-4.976 9.07c-2.313 8.65-1.004 20.253 5.643 26.946.194-.13.376-.272.564-.408-5.145-5.209-8.52-15.348-5.585-26.343M14.901 30.334a33.9 33.9 0 0 0 .46-15.744 23.1 23.1 0 0 0-4.936-10.152l-.545.389a22.36 22.36 0 0 1 4.853 9.919c2.43 11.312-1.296 20.998-6.634 25.818q.252.246.524.467c2.89-2.566 5.04-6.207 6.278-10.697"/></g></g></svg>