<svg xmlns="http://www.w3.org/2000/svg" width="91.755" height="252.9" viewBox="0 0 91.755 252.9"><g stroke-miterlimit="10" data-paper-data="{&quot;isPaintingLayer&quot;:true}" style="mix-blend-mode:normal"><g data-paper-data="{&quot;origPos&quot;:null}"><path fill="#ebebeb" d="m54.703 252.9.9-9.7 14.8.6 9.4 2.3 7.4 6.8z"/><path fill="#a4bdda" d="m55.403 244.6-3.7-50.4-7.9-62h30l.7 62.3v50.1z"/></g><path fill="#ebebeb" d="m16.803 252.9.9-9.7 14.8.6 9.4 2.3 7.4 6.8z"/><path fill="#a4bdda" d="m18.303 244.6.5-52.3.7-60.1h29.1l-8 61.8-4.7 50.6z"/><g data-paper-data="{&quot;origPos&quot;:null}"><path fill="#d1a56b" d="M80.103 111.656c-3.2.4-8.6-1.3-8.6-1.3s-8.1-46.9-1.1-48.6c12.6-3.4 14.9 46.6 14.9 46.6s-2.1 2.9-5.2 3.3"/><path fill="#744" d="M65.703 93.356s-9-32.9 2.5-35.1c10.1-2 21.6 29 21.6 29z"/></g><g fill="#d1a56b" data-paper-data="{&quot;origPos&quot;:null}"><path d="m88.103 135.456-8.2 2.4-8.8-27.1s3.1-4.2 6.7-3.9c2.7.2 7.3 1 7.3 1z" data-paper-data="{&quot;origPos&quot;:null}"/><path d="M84.619 158.028c-1.884.27-1.113-8.75-2.878-8.911-1.353-.141.26 5.452-.175 6.353-.532.92-3.273-.578-3.273-.578s-2.535-5.106-2.96-7.774c-1.061-5.906 4.604-11.813 4.604-11.813l7.276-.313s4.395 6.269 4.54 10.623c.087 4.06-3.008 9.562-3.008 9.562s-2.302 2.798-4.126 2.851" data-paper-data="{&quot;origPos&quot;:null,&quot;index&quot;:null,&quot;origRot&quot;:0}"/></g><path fill="#925353" d="m17.103 137.3-.2-76.3s15.2-7.9 28.2-8.1 23.933 4.011 26.333 5.311c2.3 1.2 3.067 81.289 3.067 81.289s-17.1 2.8-28.7 2.7c-11.8-.2-28.7-4.9-28.7-4.9" data-paper-data="{&quot;origPos&quot;:null}"/><g data-paper-data="{&quot;origPos&quot;:null}"><path fill="#d1a56b" d="M6.703 113.6c-2.5-.2-6.3-2.2-6.3-2.2s5.6-50.6 19.9-50.3c11.2-.3-7.2 51.3-7.2 51.3s-3.9 1.4-6.4 1.2"/><path fill="#744" d="M.603 87.7s12.5-28.3 19.5-27.5c16.6 1.8 2.8 36.2 2.8 36.2z"/></g><g fill="#d1a56b"><path d="m2.403 138.3-2.1-27.7s4-1.2 6.3-1.6c3.2-.6 6.7 3.3 6.7 3.3l-3.2 27.7z"/><path d="M4.903 157.4s-4.1-4.8-4.8-8.8c-.7-4.3 2.4-11.3 2.4-11.3l7.2-1.1s6.7 4.7 6.8 10.7c.1 2.7-1.4 8.2-1.4 8.2s-2.4 2-3.1 1.2-.1-6.6-1.4-6.2c-1.7.5.8 9.2-1.1 9.3-1.8.3-4.6-2-4.6-2"/></g><path fill="#1f1307" d="M28.703 39.5c0 9.3-5.4 19.7-7.5 17.5-2.7-2.7-5.7-11.2-5.7-20.4s4.6-13.9 7.7-13.9 5.367 1.433 5.767 1.733c1.3.9-.267 5.767-.267 15.067" data-paper-data="{&quot;origPos&quot;:null}"/><path fill="#1f1307" d="M66.603 23.8c0 13.1-10.1 23.8-22.5 23.8s-22.5-10.7-22.5-23.8S31.703 0 44.103 0s22.5 10.6 22.5 23.8"/><g fill="#cca168"><path d="m37.603 43.3 15.2 3.4-.1 9.1s4.9.9 4.8 3.7c-.1 4.5-18.9 6.9-22.8 0-1.5-3.4 2-4.6 2-4.6zM33.003 32.2c.8 2.4.3 4.7-1 5.1-1.4.5-3.2-1-4-3.4s-.3-4.7 1-5.1c1.4-.5 3.2 1.1 4 3.4" data-paper-data="{&quot;origPos&quot;:null}"/><path d="M64.503 30c0 12.8-7.9 19.6-14.7 19.9-11.8.2-19.4-9.5-19.4-22.3s2.2-22.4 17.2-23.1c11.4-.6 18.862 11.5 16.862 25.2z" data-paper-data="{&quot;origPos&quot;:null}"/></g><path d="M52.903 42.7c0 .7-2 2.2-3.7 2.2-1.8 0-3.5-1.9-3.5-2.7 0-.7 2.2 0 4 0 1.7.1 3.2-.2 3.2.5"/><path fill="none" stroke="#000" stroke-linecap="round" stroke-width="1.46" d="M52.703 36.2s-1.2.7-2.3.7c-1.3 0-2.5-.5-2.5-.5M38.803 23.5s2.9-.8 4.4-.8c1.7-.1 3.7.8 3.7.8M38.703 26.9s2.2-1 4.5-.8c2.5.2 2.9 1.5 2.9 1.5"/><path d="M42.003 28.6c0-1.2.9-2.2 2.1-2.2s2.1 1 2.1 2.2-.9 2.2-2.1 2.2c-1.1 0-2.1-1-2.1-2.2"/><path fill="none" stroke="#000" stroke-linecap="round" stroke-width="1.46" d="M54.203 23.4s2.3-.8 4-.8c1.5.1 3.2.5 3.2.5M54.203 27.5s.5-1.3 2.9-1.5c2.3-.2 4.5.3 4.5.3"/><path d="M59.103 30.5c-1.2 0-2.1-1-2.1-2.2s.9-2.2 2.1-2.2 2.1 1 2.1 2.2-.9 2.2-2.1 2.2"/><g data-paper-data="{&quot;origPos&quot;:null}"><path fill="#1f1307" d="M29.803 6.5c5.4-4 16.1-7.2 19.2-3s-4.3 13.4-9.7 17.4-9.3 11.4-12.5 7.2c-3-4.1-2.3-17.5 3-21.6"/><path fill="#2c1b0a" d="M67.703 28c-3.1 4.2-4.6-7.3-8.3-12.8-3.9-5.8-13-7.8-9.9-12s10.2-.7 15.6 3.3c5.4 4.1 5.8 17.3 2.6 21.5"/></g></g></svg>