<svg xmlns="http://www.w3.org/2000/svg" width="61.563" height="80.594" viewBox="-0.008 -0.194 61.563 80.594"><path fill="#ff9400" d="M57.433 2.834c-.19 4.382.014 8.371.838 11.74-5.048 1.661-12.925.491-19.287.838-.73 14.13.996 33.27 1.678 52.83-4.088-2.289-10.028 2.565-13.417.838-.212-18.618-.284-29.847-.839-51.152-5.024-3.42-10.88 1.554-17.61-1.677-1.157-4.23.052-10.164-.838-12.578 14.285-.545 34.759-1.357 49.475-.839"/><path fill="undefined" d="M5.442.318c9.279.077 13.845.521 17.61 0 12.57 0 25.167-.208 37.735 0 .783.681 0 1.678 0 2.516h-.838v15.094c-1.945-.267-3.22.135-4.193.839-.52 2.276 1.065 6.655-.839 7.547-3.737-.713-7.934-.21-13.417-.839.888 13.048.302 31.694 3.354 46.12-2.067-.11-4.04-.126-5.03.84-.879 2.372 1.383 5.752 0 5.87-5.393.197-11.977-.796-15.095 1.676h-4.193c-4.413-15.638.896-37.553-2.515-52.829-4.392-2.432-9.266-.97-15.933-.838.971-4.52-.56-13.275-1.677-18.449V6.188h4.193c.008-2.227-.595-4.913.838-5.87m2.516 3.355c.89 2.414-.319 8.348.838 12.578 6.73 3.231 12.586-1.743 17.61 1.677.555 21.305.627 32.534.839 51.152 3.39 1.727 9.329-3.127 13.417-.838-.682-19.56-2.408-38.7-1.678-52.83 6.362-.347 14.24.823 19.287-.838-.824-3.369-1.028-7.358-.838-11.74-14.716-.518-35.19.294-49.475.839"/></svg>