<svg xmlns="http://www.w3.org/2000/svg" width="60.91" height="79.647" viewBox="-0.5 -0.5 60.91 79.647"><path fill="#0cc" d="M59.88 14.117c-.29 3.45-1.77 6.5-4.13 8.8 1.16 4.71 1.7 8.39 1.7 11.48v8c0 5.36-.37 9.24-1.16 12.23-1.41 5.31-1.8 6.49-2.05 7.18-1.76 4.89-4.43 8.76-7.92 11.46-3.55 2.74-7.65 4.47-12.2 5.16-.19.03-.39.06-.58.08-.95.09-1.96.14-3.01.14-6.55 0-12.89-1.91-18.82-5.67C1.63 66.547-.04 58.427.06 53.427c-.04-.49-.06-.99-.06-1.53 0-2.65.53-5.37 1.59-8.07 1.86-4.81 4.89-7.31 7.1-8.55 4.78-2.63 8.42-3.79 11.9-3.79s6.8 1.24 9.5 3.53c-.12-1.38-.36-2.85-.73-4.41-2.57-.09-5-.82-7.06-2.12-2.75-1.76-4.67-3.91-5.79-6.45-1.65-3.68-1.28-6.88-.63-8.99 1.69-5.6 6.32-9.65 12.74-11.1.34-.08.69-.14 1.04-.19 1.7-.22 3.43-.44 5.18-.66C36.36.817 39.1.467 45.9.027c.7-.05 1.4-.03 2.09.06 1.95.24 4.87 1.09 7.68 3.75 3.69 3.48 4.24 7.36 4.24 9.36 0 .31-.01.62-.03.92"/><path fill="#fff" d="M48.914 13.198q-.177 2.111-2.639 2.814l-3.871.88q1.144 2.551 2.463 7.828 1.584 6.246 1.584 9.676V42.4q0 6.422-.792 9.412-1.408 5.279-1.759 6.245-1.584 4.4-4.311 6.51-3.08 2.374-7.124 2.99-.88.088-1.936.088-6.686 0-12.931-3.958-7.036-4.486-6.509-10.644a6 6 0 0 1-.088-1.144q-.001-1.933.836-4.09.835-2.155 2.243-2.947 4.308-2.375 6.509-2.375 1.495 0 2.683 1.188t1.188 2.684q0 1.232-1.056 2.11-.353.265-1.583.353-1.408.177-1.716-.309-.308-.482-1.363-1.363-.352-.174-1.056.176-1.144.442-1.319 2.111.088.881.088 2.551-.088 2.904 2.375 5.981.265.265 2.903 1.936 5.188 3.166 9.06 3.166.968 0 1.848-.176 1.318-.175 3.43-1.319 2.99-3.166 4.135-8.796.614-3.166.967-9.939V36.86q0-5.54-2.022-12.139v-.792q-.352-.263-.616-1.319-.441-1.406-.527-1.583a31 31 0 0 0-.264-1.803q-.177-1.012-.968-1.276-.44-.086-2.99.792-2.816.88-3.871.88t-1.759-.44q-1.233-.79-1.583-1.583-.353-.792-.176-1.319.79-2.725 4.661-3.606 2.725-.35 5.542-.703 2.022-.44 10.027-.968.704.089 1.495.836t.792 1.361"/></svg>