<svg xmlns="http://www.w3.org/2000/svg" xml:space="preserve" width="266.031" height="89" viewBox="17.495 16.4 266.031 89"><title>shark-a</title><g fill-rule="nonzero"><path fill="#608899" d="M199.5 70.9c4.9 2.2 5.2 23.2 5.2 29.2 0 .7.8.8 1.4.3 22.3-19.8 18.8-44.2 18.8-44.2-9.4-.4-17.9 3.8-25.4 14.7"/><path fill="#4e6f7d" d="M199.7 70.8s.4.3.8 1c.5.7 1 1.7 1.4 3.1.9 2.7 1.3 6.4 1.6 10.2.2 1.9.3 3.8.4 5.5.1 1.8.3 3.4.4 4.8.2 2.8.4 4.7.4 4.7v-4.7c0-1.4-.1-3.1-.2-4.8-.1-1.8-.2-3.7-.4-5.5-.1-.9-.2-1.9-.3-2.8s-.2-1.8-.4-2.7c-.1-.9-.3-1.7-.5-2.5s-.4-1.5-.7-2.2c-.5-1.3-1.1-2.4-1.6-3-.5-.8-.9-1.1-.9-1.1M224.9 56.2s.1.8.2 2.1v2.4c0 .9-.1 2-.2 3.1s-.3 2.4-.5 3.7c-.3 1.3-.5 2.7-.9 4.1-.2.7-.3 1.4-.6 2.1-.2.7-.5 1.4-.7 2.1-.1.4-.2.7-.4 1.1l-.4 1.1-.9 2.1c-.6 1.4-1.3 2.8-2 4.1-.8 1.3-1.5 2.6-2.3 3.8s-1.6 2.3-2.4 3.4c-.7 1.1-1.6 2-2.3 2.9s-1.4 1.7-2 2.4-1.2 1.3-1.7 1.8c-.9 1-1.5 1.5-1.5 1.5s.7-.4 1.7-1.4c.5-.5 1.1-1 1.8-1.7.7-.6 1.4-1.4 2.2-2.3.7-.9 1.6-1.8 2.4-2.9s1.6-2.2 2.5-3.4c.8-1.2 1.5-2.5 2.3-3.8.7-1.4 1.4-2.7 2.1-4.2.3-.7.6-1.4.9-2.2l.4-1.1c.1-.4.2-.7.4-1.1.2-.7.5-1.5.7-2.2s.4-1.4.5-2.1c.4-1.4.6-2.8.8-4.1s.3-2.6.4-3.7c0-.6.1-1.1.1-1.7v-1.5c0-.9-.1-1.8-.1-2.4-.3-1.3-.5-2-.5-2"/><path fill="#6da3b2" d="M67.8 61.3c-5.4 0-9.6-2.2-15.4-10.6-5.5-8.1-15.9-21.9-32.9-27.4-1-.3-1.8.7-1.4 1.6 1.2 2.7 5.7 8.6 8.5 12.5 7.2 9.9 7.1 16.7 7.4 22.8.4 7.5-6.8 22.4-11.7 29.3-.6.9.2 1.9 1.3 1.7 7.7-1.7 15.8-4.9 23.1-11.1 9.3-7.8 14.4-10.7 20.7-10.6"/><path fill="#4e6f7d" d="M63.6 60.7s-.8-.4-2.3-1.1c-.7-.4-1.5-.9-2.3-1.6-.4-.4-.8-.8-1.2-1.3s-.9-.9-1.3-1.5c-.4-.5-.9-1.1-1.2-1.7-.4-.6-.8-1.3-1.2-2-.8-1.4-1.7-2.8-2.8-4.2-1-1.4-2.1-2.9-3.3-4.3l-3.6-4.2c-1.3-1.3-2.6-2.7-4-3.9-1.3-1.2-2.7-2.4-4.1-3.5-2.8-2.1-5.6-3.8-8.1-5.1s-4.7-2.1-6.2-2.6c-.8-.3-1.4-.4-1.8-.5s-.6-.2-.6-.2.2.1.6.2 1 .4 1.7.7c1.5.6 3.5 1.7 5.9 3.1 1.2.7 2.5 1.5 3.8 2.4q1.95 1.35 3.9 3c1.3 1.1 2.7 2.2 4 3.5q1.95 1.8 3.9 3.9c2.5 2.7 4.8 5.5 6.9 8.2 1 1.4 2 2.7 2.9 4 .4.7.9 1.3 1.3 1.9s.9 1.2 1.4 1.7c1 1 1.9 1.9 2.8 2.6s1.8 1.2 2.6 1.5q1.2.45 1.8.6c.3.3.5.4.5.4M20.2 28.1s.1.2.4.6c.2.4.6 1 1.1 1.8 1 1.5 2.4 3.6 4.2 6.1.9 1.3 1.8 2.6 2.7 4.1s1.8 3.1 2.5 4.8 1.3 3.6 1.7 5.5.6 3.9.7 5.9q.15 3-.3 6T32 68.6c-1 3.6-2.4 7-3.7 9.7-1.3 2.8-2.5 5-3.3 6.6-.9 1.6-1.4 2.5-1.4 2.5s.1-.2.4-.6.7-1 1.2-1.7c1-1.5 2.4-3.7 3.8-6.4s3-6 4.1-9.7c.6-1.8 1.1-3.8 1.3-5.9.3-2 .4-4.1.4-6.2-.1-2.1-.3-4.2-.8-6.2-.4-2-1.1-3.9-1.9-5.7s-1.7-3.4-2.8-4.9c-1-1.5-2-2.8-3-4-1.9-2.4-3.5-4.4-4.6-5.8-.9-1.3-1.5-2.2-1.5-2.2M62.2 70s-.2 0-.5.1-.8.2-1.3.4c-1.1.4-2.7 1.1-4.5 2.1s-3.7 2.4-5.8 3.9-4.2 3.1-6.4 4.7c-1.1.8-2.2 1.5-3.3 2.3-1.1.7-2.2 1.4-3.3 2s-2.2 1.2-3.2 1.7-2 1-2.9 1.4-1.8.7-2.5 1c-.8.3-1.4.5-2 .7-1.1.3-1.8.6-1.8.6s.7-.1 1.8-.3c.6-.1 1.3-.3 2.1-.5s1.7-.4 2.7-.8c1-.3 2-.7 3.1-1.2.5-.2 1.1-.5 1.6-.7.6-.3 1.1-.6 1.7-.8 1.1-.6 2.3-1.2 3.4-2 1.1-.7 2.3-1.5 3.4-2.2 2.2-1.6 4.3-3.3 6.3-4.8 2-1.6 3.9-3 5.5-4.2s3.1-2.1 4.1-2.5c1.2-.7 1.8-.9 1.8-.9"/><path fill="#aedeeb" d="M118.8 85c-7.4 0-14.5 3-17.8 3.4s.7-5.7-1-8.4"/><path fill="#648f9e" d="M114 85.3h-.9q-.9 0-2.4.3c-1 .2-2.1.4-3.4.6-1.2.3-2.5.6-3.8.9-.6.2-1.3.3-1.9.5s-1.3.3-1.4.1c-.1 0-.2-.5-.1-1s.2-1.1.2-1.6c.2-2 .1-3.4.1-3.4s-.3 1.3-.8 3.2c-.1.5-.3 1-.5 1.5-.1.3-.1.6-.1 1s.2 1 .7 1.3.9.3 1.3.3.7-.1 1.1-.2c.6-.1 1.3-.3 2-.4 1.3-.3 2.6-.7 3.8-1.1s2.3-.7 3.2-1 1.7-.6 2.3-.8z"/><path fill="#aedeeb" d="M96.2 79c-5.6 0-10.9 2.3-13.5 2.5-2.5.3.5-4.3-.8-6.4"/><path fill="#648f9e" d="M92.9 79.2h-.8c-.5 0-1.2.1-2 .3-.8.1-1.8.3-2.7.6-1 .2-2 .5-3.1.7-.5.1-1 .2-1.5.2h-.4l.1.1-.1-.1v-.1c-.1-.3 0-.8 0-1.3.1-.5.1-.9.1-1.3.1-.8-.1-1.6-.2-2.1-.2-.5-.4-.7-.4-.7s.1.3.1.7c0 .5-.1 1.1-.3 1.9-.1.4-.2.8-.4 1.3-.1.5-.3 1-.2 1.6 0 .1.1.4.2.6 0 .1.1.1.1.2l.1.1.2.2c.5.3.8.3 1.1.3.6 0 1.2-.1 1.7-.2 2.2-.4 4.3-1.2 5.8-1.8.8-.3 1.4-.6 1.8-.8z"/><path fill="#6da3b2" d="M100.6 52.7c-4.4.2-10.4-5.5-14-5.1-2.2.2-.2 1.7-.2 3.9s-1.7 5.8-5.1 7"/><path fill="#4e6f7d" d="M99 52.6s-.2-.1-.5-.2-.8-.4-1.4-.7c-1.1-.6-2.6-1.3-4.1-2.1-.7-.4-1.5-.8-2.2-1.1s-1.4-.5-2.1-.7c-.6-.2-1.2-.2-1.5-.2h-.6s.9 0 2 .4c1.2.4 2.7 1.1 4.1 2 1.5.8 3 1.5 4.2 1.9.6.2 1.1.4 1.4.5.5.2.7.2.7.2M84.3 56.5s.4-.3.8-.9c.5-.6 1-1.4 1.3-2.4.1-.2.1-.5.1-.7v-.7c0-.5-.1-.9-.2-1.3s-.2-.6-.3-.8-.1-.3-.1-.3v.3c.1.2.1.5.1.9v1.2c0 .4-.1.9-.2 1.3-.2.9-.7 1.7-1 2.4-.2.6-.5 1-.5 1"/><path fill="#6da3b2" d="M190.4 37.3c-3 .4-6.4.3-9.2-3.9s-19-19.7-33.8-15.6c-1.9.5 1.2.4 4.2 6.2s2.6 14.7-3.5 17.5"/><path fill="#4e6f7d" d="M187 37.1s-.2 0-.5-.1-.8-.1-1.3-.4c-.5-.2-1.1-.6-1.7-1.2q-.9-.9-1.8-2.1c-.6-.8-1.3-1.7-2-2.6-.8-.9-1.6-1.9-2.5-2.8-1.8-1.8-4-3.6-6.3-5.2-1.2-.8-2.3-1.5-3.5-2.1-1.2-.7-2.4-1.2-3.6-1.7-2.4-1-4.8-1.5-6.9-1.8-1-.1-2-.2-2.8-.2s-1.6 0-2.2.1c-.6 0-1.1.1-1.4.2-.3 0-.5.1-.5.1h1.9c1.2 0 2.9.2 4.9.6s4.2 1.1 6.5 2.1 4.7 2.3 6.9 3.8 4.3 3.2 6.2 4.9c.9.9 1.8 1.7 2.6 2.6s1.5 1.7 2.2 2.5c1.4 1.5 2.8 2.7 4 3 .6.2 1.1.2 1.4.2.2.1.4.1.4.1M149.9 40.3s.1 0 .2-.1.4-.2.6-.4.5-.5.9-.8q.45-.45.9-1.2c.6-1 1.1-2.2 1.4-3.6.1-.7.2-1.4.2-2.2 0-.7-.1-1.5-.1-2.2-.2-1.5-.5-3-1-4.3s-1.2-2.5-1.9-3.3c-.7-.9-1.4-1.5-1.9-1.9s-.8-.6-.8-.6.2.3.6.8q.6.75 1.5 2.1c.5.9 1.1 2 1.4 3.3.2.6.3 1.3.5 2l.3 2.1c.1.7.2 1.4.2 2.1s0 1.4-.1 2-.2 1.3-.4 1.8c-.2.6-.3 1.1-.6 1.6-.4 1-.9 1.7-1.3 2.2-.3.4-.6.6-.6.6"/><path fill="#6da3b2" d="M283 59.5c1.2-5.6-39.7-23.4-94-22.6-54.4.8-101 21.2-123.8 24.6-7.9 1.2-9.1 6 1.2 7.9s36.5 19 87.7 21.4c51.1 2.4 102.3-7.5 105.9-19 0 0 22-8 23-12.3"/><path fill="#aedeeb" d="M71.8 70.1c5.4-.5 4.6 3.5 9.8 2.4s9 1.9 13.3 3.3 8.7-.8 13.3-.8 5.4 4.1 9 4.1c3.5 0 9 3 13.3 4.3 4.3 1.4 12.8-5.2 15.5-6.2 2.7-1.1 6.8-.3 9.8.5s7.1-3.5 14.9-1.4c7.9 2.2 29.1 14.9 33.9 6.8s16-11.7 19.3-11.7 3.3-.8 5.2-1.9 6 4.1 8.1.3c2.2-3.8 6.2-1.4 8.7-1.1 2.4.3 6.5-5.4 13.3-6.2s13 .5 16.8-1.4c2.3-1.2 4.2-2.1 6.8-2.7.2.4.2.8.2 1.1-1 4.3-23 12.3-23 12.3-3.6 11.5-54.8 21.4-105.9 19C108 88.7 82.2 74.6 70 70.4c.5-.1 1.1-.3 1.8-.3"/><path fill="#4e6f7d" d="M278.7 54.8s-.4-.2-1-.6c-.7-.4-1.7-1-3-1.7s-3-1.5-4.9-2.3-4.1-1.7-6.5-2.6q-3.6-1.35-7.8-2.7c-2.8-.9-5.8-1.7-8.9-2.5-1.6-.4-3.1-.7-4.8-1.1-1.6-.3-3.2-.7-4.9-1-3.3-.6-6.7-1.2-10.1-1.7s-6.8-.8-10.1-1.1c-3.4-.3-6.7-.5-9.9-.7s-6.3-.2-9.2-.2-5.7 0-8.3.1-4.9.2-7 .3-3.9.3-5.4.4c-3 .3-4.7.5-4.7.5s1.7-.1 4.7-.3 7.2-.2 12.3-.3c2.6 0 5.3 0 8.2.1s6 .3 9.2.4c3.2.2 6.5.4 9.8.8 3.3.3 6.7.7 10.1 1.2 3.4.4 6.7 1 10 1.6 1.6.3 3.3.7 4.9 1 1.6.4 3.2.7 4.7 1.1 3.1.8 6.1 1.5 8.9 2.3s5.5 1.6 7.9 2.4q3.6 1.2 6.6 2.4c1.9.7 3.6 1.5 5 2.1s2.4 1.1 3.1 1.5 1.1.6 1.1.6M160.2 39.1h-.8c-.5 0-1.2 0-2.2.1-1.9.1-4.6.4-7.7.9-3.2.5-6.9 1.1-10.8 1.9s-8.1 1.7-12.3 2.7c-2.1.5-4.2 1-6.2 1.5q-3.15.75-6 1.5c-3.9 1-7.5 2.1-10.6 3.1-3.1.9-5.6 1.9-7.4 2.5s-2.8 1-2.8 1 1-.3 2.8-.8 4.4-1.2 7.5-2 6.7-1.7 10.6-2.6 8.1-1.9 12.3-2.8c4.2-1 8.3-1.9 12.3-2.8 3.9-.9 7.6-1.7 10.7-2.3s5.8-1.1 7.6-1.4c2-.4 3-.5 3-.5"/><path fill="#648f9e" d="M242.8 82.3s-.5.1-1.5.4c-1 .2-2.3.6-4.1 1s-3.9.9-6.4 1.4c-1.2.3-2.6.5-4 .7s-2.9.5-4.4.8c-3.1.5-6.5 1-10 1.4-3.6.4-7.3.8-11.2 1.1-7.8.7-16.2 1.1-24.5 1.3-8.3.3-16.7 0-24.5-.4-3.9-.2-7.7-.5-11.3-.8s-7-.6-10.1-1c-1.6-.2-3-.4-4.5-.6-1.4-.2-2.8-.4-4-.6-1.3-.2-2.4-.4-3.5-.6q-1.65-.3-3-.6c-.9-.2-1.7-.4-2.4-.5-.7-.2-1.3-.3-1.7-.5-.9-.3-1.5-.4-1.5-.4s.5.2 1.4.5c.5.2 1 .3 1.7.6q1.05.3 2.4.6c.9.3 1.9.5 3 .7 1.1.3 2.2.5 3.5.8s2.6.5 4 .8 2.9.5 4.5.7c3.1.5 6.5.9 10.1 1.3s7.4.7 11.3 1c7.8.5 16.2.8 24.6.6 8.4-.3 16.8-.7 24.6-1.5 3.9-.4 7.7-.8 11.3-1.3s6.9-1 10-1.6 5.9-1.1 8.4-1.8c2.5-.6 4.6-1.2 6.4-1.6 1.8-.5 3.1-.9 4.1-1.2.8-.6 1.3-.7 1.3-.7M103.8 82.6s-1-.3-2.4-.8c-.7-.2-1.5-.5-2.4-.8s-1.9-.6-2.8-.9c-1-.3-1.9-.6-2.8-.9s-1.8-.5-2.5-.7c-1.5-.4-2.4-.7-2.4-.7s.9.4 2.3 1q1.05.45 2.4.9c.9.3 1.9.6 2.8 1 1 .3 1.9.6 2.8.9s1.8.5 2.5.6c1.5.2 2.5.4 2.5.4M84.8 76.5s-1-.5-2.5-1.2c-.7-.3-1.6-.8-2.6-1.2-.9-.4-2-.8-3-1.3l-3-1.2q-1.5-.6-2.7-.9c-.8-.3-1.4-.4-1.9-.6-.5-.1-.7-.2-.7-.2s.3.1.7.3 1.1.5 1.8.8c.8.3 1.6.7 2.6 1.1.9.4 2 .8 3 1.3l3 1.2c1 .4 1.9.7 2.6 1 1.7.6 2.7.9 2.7.9M279.4 63s-.7.3-1.9.9-2.9 1.4-5 2.4-4.5 2-7.2 3.1c-1.3.5-2.7 1-4.1 1.4s-2.9.8-4.3.9c-.7.1-1.5.1-2.2.1-.8 0-1.5-.1-2.3-.1-1.6 0-3 .1-4.5.3-1.4.1-2.8.4-4.1.6s-2.5.5-3.7.7c-2.3.5-4.1 1-5.4 1.3-1.3.4-2 .6-2 .6s.8-.1 2.1-.3 3.2-.5 5.5-.8 4.9-.6 7.8-.8c1.4-.1 2.9-.2 4.4-.1.7 0 1.5.1 2.3.1.8.1 1.6 0 2.4-.1 3.2-.4 6.1-1.5 8.8-2.6s5.1-2.4 7.1-3.5 3.6-2.2 4.8-2.9c.9-.7 1.5-1.2 1.5-1.2"/><ellipse cx="49.7" cy="24.5" fill="#212f33" rx="1.2" ry="2.1" transform="matrix(-1 0 0 1 284 36)"/><path fill="#4e6f7d" d="M212.3 59.6s-.2.3-.4.8c-.1.2-.3.6-.4.9-.1.4-.3.8-.4 1.2-.1.5-.3 1-.4 1.5s-.2 1.1-.3 1.7c0 .6-.1 1.2 0 1.9 0 .6.1 1.3.2 1.9s.3 1.3.4 1.9.4 1.2.7 1.8c.2.6.6 1.1.8 1.5.3.5.6.9.9 1.3s.6.7.9 1l.7.7c.4.4.7.6.7.6s-.2-.3-.5-.7c-.1-.2-.3-.5-.5-.8s-.4-.7-.6-1.1-.5-.8-.7-1.3-.5-1-.6-1.5c-.2-.5-.4-1.1-.5-1.7-.2-.6-.3-1.1-.4-1.7s-.2-1.2-.2-1.8c-.1-.6 0-1.2-.1-1.7 0-.6 0-1.1.1-1.6 0-.5.1-1 .1-1.5.1-.9.2-1.7.4-2.2 0-.8.1-1.1.1-1.1M208.4 59.6s-.2.3-.4.8c-.1.2-.3.6-.4.9-.1.4-.3.8-.4 1.2-.1.5-.3 1-.4 1.5s-.2 1.1-.3 1.7c0 .6-.1 1.2 0 1.9 0 .6.1 1.3.2 1.9s.3 1.3.4 1.9.4 1.2.7 1.8c.2.6.6 1.1.8 1.5.3.5.6.9.9 1.3s.6.7.9 1l.7.7c.4.4.7.6.7.6s-.2-.3-.5-.7c-.1-.2-.3-.5-.5-.8s-.4-.7-.6-1.1-.5-.8-.7-1.3-.5-1-.6-1.5c-.2-.5-.4-1.1-.5-1.7-.2-.6-.3-1.1-.4-1.7s-.2-1.2-.2-1.8c-.1-.6 0-1.2-.1-1.7 0-.6 0-1.1.1-1.6 0-.5.1-1 .1-1.5.1-.9.2-1.7.4-2.2 0-.8.1-1.1.1-1.1M203.4 59.6s-.2.3-.4.8c-.1.2-.3.6-.4.9-.1.4-.3.8-.4 1.2-.1.5-.3 1-.4 1.5s-.2 1.1-.3 1.7c0 .6-.1 1.2 0 1.9 0 .6.1 1.3.2 1.9s.3 1.3.4 1.9.4 1.2.7 1.8c.2.6.6 1.1.8 1.5.3.5.6.9.9 1.3s.6.7.9 1l.7.7c.4.4.7.6.7.6s-.2-.3-.5-.7c-.1-.2-.3-.5-.5-.8s-.4-.7-.6-1.1-.5-.8-.7-1.3-.5-1-.6-1.5c-.2-.5-.4-1.1-.5-1.7-.2-.6-.3-1.1-.4-1.7s-.2-1.2-.2-1.8c-.1-.6 0-1.2-.1-1.7 0-.6 0-1.1.1-1.6 0-.5.1-1 .1-1.5.1-.9.2-1.7.4-2.2 0-.8.1-1.1.1-1.1M260.9 64.8s.3-.2.3-.8c0-.5-.2-1.2-.6-1.7-.2-.2-.4-.5-.7-.6-.2-.2-.5-.3-.7-.4-.4-.2-.8-.1-.8-.1s.1.3.3.7.5.8.8 1.2c.2.2.3.4.5.5.1.2.3.3.4.5.1.1.3.3.3.4z"/><path fill="#6da3b2" d="M172.3 75.7c2.6 5.2-11.4 22.8-15.4 27.8-.5.6.1 1.2 1 1.2 32-1.4 45.6-24.1 45.6-24.1-7.6-6.7-17.6-9-31.2-4.9"/><path fill="#4e6f7d" d="M172.5 75.7s.1.5 0 1.4-.5 2.1-1 3.4c-.3.7-.6 1.4-1.1 2.2-.4.8-.9 1.5-1.4 2.3s-1 1.6-1.6 2.4-1.1 1.7-1.7 2.5c-1.1 1.7-2.3 3.3-3.3 4.9-1.1 1.6-2 3-2.9 4.3-.8 1.3-1.5 2.3-2 3.1-.5.7-.7 1.2-.7 1.2s.4-.4.9-1c.6-.7 1.4-1.6 2.4-2.8s2.1-2.6 3.2-4.1c.6-.8 1.2-1.5 1.7-2.4.6-.8 1.2-1.6 1.7-2.5.6-.8 1.1-1.7 1.6-2.5s1-1.7 1.5-2.5.9-1.7 1.2-2.5c.4-.8.6-1.6.9-2.3.4-1.5.6-2.8.6-3.7.3-.9 0-1.4 0-1.4M203.4 80.6s-.1.2-.3.5-.6.8-1 1.3c-.5.6-1 1.3-1.7 2-.3.4-.7.8-1.1 1.2s-.8.8-1.2 1.3c-.4.4-.9.9-1.4 1.3s-1 .9-1.5 1.4c-1.1.9-2.2 1.9-3.5 2.7-.6.4-1.2.9-1.9 1.4-.7.4-1.3.8-2 1.3-.3.2-.7.4-1 .6l-1.1.6c-.7.4-1.4.8-2.2 1.2-1.5.7-3 1.4-4.4 2.1-1.5.6-3 1.1-4.4 1.7-1.5.4-2.9.9-4.3 1.3-.7.2-1.4.3-2 .5-.6.1-1.3.3-1.9.4-1.2.3-2.3.6-3.3.7-1 .2-1.9.3-2.6.4-1.4.2-2.3.4-2.3.4s.8 0 2.3-.1c.7 0 1.6-.1 2.6-.2 1 0 2.1-.2 3.4-.4 1.2-.2 2.6-.3 4-.7s2.9-.7 4.4-1.1c1.5-.5 3-1.1 4.6-1.6 1.5-.7 3-1.3 4.6-2.1.7-.4 1.5-.8 2.2-1.2l1.1-.6c.4-.2.7-.5 1-.7.7-.5 1.4-.9 2-1.4.7-.5 1.3-1 1.9-1.4 1.3-.9 2.4-2 3.4-2.9 1-1 2-2 2.8-2.9.4-.5.8-.9 1.2-1.4.3-.5.7-.9 1-1.3.6-.8 1.1-1.6 1.5-2.2.8-1.4 1.1-2.1 1.1-2.1"/></g></svg>