<svg xmlns="http://www.w3.org/2000/svg" width="103.221" height="129.296" viewBox="-0.787 -0.787 103.221 129.296"><path fill="none" stroke="#ffdb5d" stroke-width="1.575" d="M43.025 107.724v19.148M56.212 126.872c-3.252 0-3.252-3.148-6.505-3.148-3.252 0-3.252 3.148-6.504 3.148-3.254 0-3.254-3.148-6.508-3.148s-3.254 3.148-6.508 3.148"/><path fill="#fff4e3" d="M44.733 98.019v11.824c0 1.638-1.985 2.458-3.145 1.3L29.223 98.806z"/><path fill="none" stroke="#ffdb5d" stroke-width="1.575" d="m14.281 99.173 10.298 10.274a12.67 12.67 0 0 1 3.723 8.967v5.064"/><path fill="#fff4e3" d="M12.879 87.019v11.824c0 1.638 1.985 2.458 3.146 1.3L28.39 87.806z"/><path fill="#fff4e3" d="M83.173 88.775c-19.027 18.984-49.876 18.984-68.903 0-19.026-18.984-19.026-49.763 0-68.748z"/><path fill="#fff4e3" d="M22.365 39.847 41.64 54.065c0-1.836-.019-18.978-.019-20.666C41.621 14.953 26.635 0 8.147 0c-1.874 0-3.71.161-5.501.456l10.846 10.823H2.539l8.632 8.611H2.364zM78.047 114.302 43.042 86.633l39.696 1.836s10.318 8.263 11.213 22.052z"/><path fill="#f3e4ce" d="M70.781 76.41c-12.184 12.156-31.935 12.156-44.118 0-8.809-8.789-11.249-21.526-7.319-32.502l13.317 13.287L27.5 33.227z"/><path fill="#ce2235" d="M75.506 124.696c-3.656 0-6.621-2.958-6.621-6.607s2.965-6.606 6.621-6.606c3.658 0 6.622 2.958 6.622 6.606 0 3.649-2.964 6.607-6.622 6.607M94.725 123.123c.437.097.9.125 1.378.07 1.813-.21 3.31-1.659 3.564-3.463a4.08 4.08 0 0 0-2.176-4.217q.033.001.065.003a4.086 4.086 0 0 0 4.091-4.082 4.07 4.07 0 0 0-2.151-3.589.92.92 0 0 1-.407-1.206 4.1 4.1 0 0 0 .357-1.677c-.007-2.156-1.787-3.992-3.947-4.067a4.086 4.086 0 0 0-4.221 3.782l.01 1.681s-2.588.174-2.654.601c-.053.346-.82 8.49-1.108 11.544a4.08 4.08 0 0 0-2.366 4.308c.251 1.787 1.715 3.228 3.509 3.457A4.09 4.09 0 0 0 92.888 124a1.65 1.65 0 0 1 1.837-.877"/><path fill="#ce2235" d="M99.787 114.519s1.052-.407.112.259c-.94.667-1.252 1.443-.701 2.387.551.945-2.584-.282-2.584-.282l-.129-1.697.692-1.055z"/><path fill="#ffdb5d" d="M80.945 127.721c2.826-1.644 4.732-4.689 4.732-8.189s-1.906-6.545-4.732-8.188z"/><path fill="#e8441d" d="M84.867 120.27c-4.979 0-9.015-4.027-9.015-8.995s4.036-8.994 9.015-8.994 9.014 4.027 9.014 8.994c0 4.968-4.035 8.995-9.014 8.995"/><path fill="#fff4e3" d="M84.867 115.362a4.09 4.09 0 0 1-4.096-4.087 4.09 4.09 0 0 1 4.096-4.087 4.09 4.09 0 0 1 4.095 4.087 4.09 4.09 0 0 1-4.095 4.087"/><path fill="#17242d" d="M84.867 113.942a2.67 2.67 0 0 1-2.673-2.667 2.67 2.67 0 0 1 2.673-2.667 2.67 2.67 0 0 1 2.673 2.667 2.67 2.67 0 0 1-2.673 2.667"/></svg>