<svg xmlns="http://www.w3.org/2000/svg" width="73.475" height="68.442" viewBox="-0.168 -0.157 73.475 68.442"><path fill="#1f519b" d="m7.644 17.128 2.224 38.363 22.77 11.26 27.84-12.25 2.646-37.373-29.745-8.042z"/><path fill="#3579bc" d="m7.644 17.128 25.571 8.209 30.111-8.209L33.38 9.086z"/><path fill="#2964aa" d="m33.215 25.337-.578 41.414 27.842-12.25 2.847-37.373z"/><path fill="undefined" d="M32.625 67.296 9.391 55.804 7.13 16.772 33.37 8.57l30.277 8.187-2.695 38.074zm-22.28-12.122 22.304 11.03 27.359-12.037 2.595-36.669L33.39 9.6 8.161 17.484z"/><path fill="#cecece" stroke="#000" stroke-width=".99" d="m17.54 13.871 26.426 8.538s-1.182 40.416-1.3 40.47c-.12.053 9.77-3.986 9.77-3.986L54.2 19.617l-27.934-8.658z"/><path fill="#cecece" stroke="#000" stroke-width=".99" d="m43.032 11.56-27.23 8.187.641 39.546 7.813 3.864-.127-40.737 28.307-8.262-9.404-2.598"/><path fill="#cecece" d="M51.48 19.72c-7.941 0-15.081-1.333-17.334-1.8l1.124-1.546c1.984.105 3.938.158 5.817.158 18.281 0 26.688-4.879 29.317-6.829-.485 2.267-2.5 4.909-2.522 4.94l-.436.564.683.21a12 12 0 0 0 2.436.478c-4.738 2.538-11.15 3.825-19.085 3.825"/><path fill="undefined" d="M69.492 10.913c-.593 1.412-1.531 2.813-2.004 3.427l-.867 1.13 1.362.42q.494.152.962.252c-4.504 2.047-10.36 3.083-17.465 3.083-7.157 0-13.66-1.09-16.479-1.638l.513-.704c1.9.095 3.774.144 5.575.144 16.196-.002 24.75-3.835 28.403-6.114m1.506-2.342S63.5 16.037 41.09 16.037c-1.91 0-3.926-.053-6.06-.172l-1.733 2.38s8.43 1.972 18.182 1.972c7.177 0 15.067-1.067 20.839-4.776 0 0-.212.018-.574.018-.721 0-2.044-.073-3.471-.513.002-.004 2.89-3.756 2.726-6.375"/><path fill="#cecece" d="M15.932 20.235c-5.74 0-10.366-1.287-13.776-3.834a7 7 0 0 0 1.79-.489l.507-.216-.27-.48c-.015-.03-1.381-2.501-1.797-4.739 2.233 2.129 8.407 6.566 21.08 6.566 1.327 0 2.709-.05 4.106-.15l.824 1.56c-1.665.475-6.781 1.782-12.464 1.782"/><path fill="undefined" d="M3.273 11.885c3 2.33 9.2 5.655 20.193 5.655a59 59 0 0 0 3.82-.129l.383.729c-2.065.548-6.676 1.598-11.739 1.598-5.124 0-9.333-1.04-12.554-3.095q.371-.11.762-.275l1.014-.432-.537-.962a20 20 0 0 1-1.342-3.089m-1.495-2.8c-.12 2.62 1.976 6.374 1.976 6.374a6.6 6.6 0 0 1-2.517.513c-.261 0-.416-.018-.416-.018 4.186 3.708 9.908 4.776 15.113 4.776 7.07 0 13.185-1.973 13.185-1.973l-1.256-2.38c-1.546.12-3.01.173-4.393.173-16.255.002-21.692-7.465-21.692-7.465"/><path fill="#cecece" stroke="#000" stroke-width=".99" d="M32.637 13.168s7.053-5.544 9.652-8.514c2.6-2.97 8.698-5.678 9.502-2.15s.77 3.241 2.934 4.974c2.164 1.732 3.651 6.249-3.156 8.662s-13.198 2.889-17.097 2.332c-3.898-.556-3.082-4.312-1.835-5.304ZM28.739 12.457S25.13 8.55 23.274 7.395s-4.001-4.25-5.776-1.857c-1.774 2.391-4.248 2.97-5.98 4.66-1.733 1.691.411 2.929 3.587 4.332s10.804 2.434 13.632 2.598 1.465-3.526.002-4.67Z"/><path fill="#cecece" stroke="#000" stroke-width=".99" d="M28.265 18.655c1.246.697 1.96 1.443 5.695.378.697-.198.82-1.121-.169-3.1-.99-1.98 1.321-3.054-1.237-3.549s-4.786-.25-4.702 1.485c.083 1.734-1.412 3.766.413 4.785Z"/></svg>