<svg xmlns="http://www.w3.org/2000/svg" xml:space="preserve" width="228.906" height="159.685" viewBox="16.584 14.4 228.906 159.685"><title>bear-walk-a</title><g fill-rule="nonzero"><path fill="#856045" d="M71.1 93.2s4.8 22.9-14.3 46.5c-9.6 11.9-16.4 22.4-15 25.1 1.4 2.8 6.8 5.4 5.1 6.8s-21.3 1-25.5-1.6c-1.7-1.1-2.9-24.8.1-37.1s7.4-19 7.6-28.2-2.7-26.8 1.4-33.5 12-18.7 27.5-10.4 14.2 26.3 13.1 32.4"/><path fill="#59402f" d="M38.7 172.2s0-.3-.1-.8-.4-1.1-.7-1.7c-.4-.6-.9-1-1.3-1.3s-.7-.4-.7-.4 0 .1.1.2.2.3.3.5c.3.4.7.9 1 1.4.4.5.7 1 .9 1.4.3.4.5.7.5.7M44.3 172.1s0-.4-.2-.9c-.2-.6-.5-1.2-1.1-1.8-.3-.3-.5-.6-.8-.8s-.6-.4-.8-.5c-.3-.1-.5-.2-.7-.2s-.3-.1-.3-.1l.2.2.5.5 1.4 1.4c.5.5.9 1.1 1.2 1.6.4.2.6.6.6.6"/><path fill="#665a52" d="M37.8 173.5c0-.6-.9-3.3-2-3.3s-.4 1.1.1 1.9c.6.7 1.9 1.8 1.9 1.4M43.3 173c0-.6-.9-3.3-2-3.3s-.4 1.1.1 1.9c.5.7 1.9 1.8 1.9 1.4M46.7 172.8c0-.6-.9-3.3-2-3.3s-.4 1.1.1 1.9c.6.6 1.9 1.8 1.9 1.4"/><path fill="#856045" d="M29.9 106s-8 10-10.4 9.8c0 0 2.2 1.9 4 .3 0 0-4.4 1.8-5.5 6.2l2.9-.9s-4.1 6.3-3.8 10.6l2.9-3.1s-3.4 6.4.8 10.1"/><path fill="#59402f" d="M19.7 115.8s.2 0 .5-.1.8-.3 1.3-.6c1-.6 2.2-1.6 3.2-2.7.5-.5 1-1.1 1.5-1.7.5-.5.9-1.1 1.2-1.5.7-.9 1.1-1.6 1.1-1.6s-.6.5-1.4 1.3-1.8 1.9-2.9 3c-.5.5-1.1 1.1-1.6 1.5-.5.5-1 .9-1.4 1.3s-.8.6-1.1.8c-.2.3-.4.3-.4.3M18.2 122.3s.2-.4.6-1c.3-.6.8-1.3 1.3-2 .3-.3.5-.7.8-1s.5-.6.8-.8c.2-.2.5-.4.6-.5.2-.1.2-.2.2-.2s-.1 0-.3.1-.5.1-.8.3-.7.4-1 .7-.6.6-.9 1-.5.8-.7 1.2-.3.8-.4 1.1c-.2.6-.2 1.1-.2 1.1M17.3 131.8s-.1-.7.2-1.7c.1-.5.2-1.1.4-1.7s.4-1.3.7-1.9.5-1.3.8-1.9.5-1.1.8-1.6c.2-.5.4-.9.6-1.1.1-.3.2-.4.2-.4s-.1.1-.3.4c-.2.2-.5.6-.8 1s-.7.9-1 1.5-.6 1.2-.9 1.9c-.5 1.3-.9 2.7-.9 3.8 0 .5 0 1 .1 1.3 0 .2.1.4.1.4M19.8 137.7s-.1-.1-.2-.3q-.15-.3-.3-.9c-.1-.8-.1-1.9 0-2.9.1-1.1.4-2.1.5-3 .2-.8.2-1.4.2-1.4s-.1.1-.2.3-.3.5-.4.9-.3.9-.5 1.4c-.1.3-.2.5-.2.8s-.1.6-.1.8c-.1.6-.1 1.1 0 1.7 0 .5.2 1 .3 1.4.2.4.4.7.5.9.3.3.4.3.4.3M21.2 132.9s-.4 2.5-.8 6.3c-.2 1.9-.4 4.1-.6 6.5s-.3 4.9-.4 7.4-.1 5.1 0 7.5.4 4.6.8 6.5c.2.9.5 1.8.8 2.5.1.2.2.3.3.5s.2.3.4.4c.3.2.6.3.9.4 1.1.3 1.7.5 1.7.5s-.6-.2-1.6-.6c-.3-.1-.5-.2-.8-.4-.3-.1-.4-.5-.5-.8-.3-.7-.5-1.5-.7-2.5-.3-1.9-.5-4.1-.5-6.4-.1-2.4 0-4.9.1-7.4s.2-5.1.3-7.4c.1-2.4.3-4.6.4-6.5 0-4 .2-6.5.2-6.5M72.4 107s-1.4 4.2-3.8 10.3c-1.2 3.1-2.6 6.6-4.3 10.4-.8 1.9-1.8 3.8-2.8 5.7-.5.9-1.1 1.9-1.7 2.8s-1.3 1.7-2 2.6c-2.8 3.4-5.5 6.8-8 10.1s-4.7 6.5-6.3 9.4c-.4.7-.8 1.4-1.1 2.1q-.45 1.05-.6 2.1c-.1.7-.3 1.3-.2 1.9 0 .6.3 1.1.7 1.5.6.7 1.2 1.2 1.6 1.6s.6.5.6.5l-.6-.6c-.4-.4-.9-.9-1.5-1.6-.3-.4-.6-.8-.6-1.4q0-.9.3-1.8c.2-.6.4-1.3.7-2s.7-1.4 1.1-2.1c1.7-2.8 4-5.9 6.4-9.2 2.5-3.3 5.3-6.7 8.1-10.1.7-.8 1.4-1.7 2-2.6s1.2-1.9 1.7-2.8c1-1.9 1.9-3.9 2.8-5.7 1.6-3.8 3-7.4 4.2-10.5 1.1-3.1 2-5.7 2.6-7.5.3-2.1.7-3.1.7-3.1"/><path fill="#856045" d="M173.1 92.5c-3.2 22.6-9.3 28.4-10.1 34.9s0 30.6 1.4 33.4c1.4 2.9 5.8 5 6.5 8.3.7 3.2-23.7 1.8-26.6 0S126 126.7 127 103.7c5.1-46.8 49.3-33.9 46.1-11.2"/><path fill="#8d674a" d="M134.3 82.7s-7.1 10.7-9.5 10.7c0 0 2.4 1.7 4 0 0 0-4.3 2.1-5 6.6l2.8-1.2s-3.6 6.6-2.8 10.9l2.6-3.3s-2.8 6.6 1.7 10"/><path fill="#59402f" d="M125 93.3s.2 0 .5-.1.8-.3 1.2-.7c1-.7 2-1.8 3-2.9.5-.6.9-1.2 1.4-1.8.4-.6.8-1.1 1.1-1.6.6-1 .9-1.7.9-1.7s-.5.6-1.2 1.4c-.7.9-1.7 2-2.6 3.2-.5.6-1 1.1-1.4 1.7-.5.5-.9 1-1.3 1.4s-.8.7-1 .9c-.4.1-.6.2-.6.2M124.1 99.9l.5-1c.3-.6.7-1.4 1.1-2.1.2-.4.5-.7.7-1s.5-.6.7-.8l.6-.6.2-.2s-.1 0-.3.1-.5.2-.8.4-.6.4-.9.7-.6.7-.8 1.1l-.6 1.2c-.2.4-.3.8-.3 1.1-.1.6-.1 1.1-.1 1.1M124.1 109.2s-.1-.7 0-1.7c0-.5.1-1.1.3-1.7.1-.6.3-1.3.5-1.9s.4-1.3.6-1.9.4-1.2.6-1.6c.2-.5.3-.9.4-1.2s.2-.4.2-.4-.1.1-.3.4-.4.6-.7 1.1-.6 1-.8 1.6c-.3.6-.5 1.2-.7 1.9s-.4 1.4-.4 2c-.1.7-.1 1.3-.1 1.8s.1 1 .2 1.3c.1.1.2.3.2.3M145.8 169.6s-.2 0-.7-.2c-.4-.2-1.1-.5-1.5-1.2q-.75-1.05-1.5-2.7c-.5-1.1-.9-2.4-1.4-3.8-1-2.8-2.2-6-3.5-9.4-1.3-3.5-2.6-7.1-3.7-10.9-.6-1.9-1.2-3.7-1.7-5.6-.3-.9-.5-1.8-.7-2.8l-.6-2.7c-.4-1.8-.7-3.5-1-5.2s-.5-3.2-.7-4.7c-.4-2.9-.8-5.3-1-7s-.2-2.7-.2-2.7 0 1 .1 2.7.3 4.2.7 7.1c.2 1.5.4 3 .6 4.7s.5 3.4.9 5.2l.6 2.7c.2.9.5 1.9.7 2.8.5 1.9 1.1 3.8 1.7 5.6 1.2 3.7 2.5 7.4 3.8 10.9 1.3 3.4 2.6 6.6 3.7 9.4.5 1.4 1 2.7 1.5 3.7.5 1.1 1.1 2 1.6 2.7s1.2 1 1.6 1.2c.5.1.7.2.7.2"/><path fill="#59402f" d="M127.9 116s-.5-.4-.9-1.2c-.2-.4-.4-.9-.5-1.5s-.2-1.2-.2-1.8v-1.8c0-.6.1-1.1.1-1.6s.1-.9.1-1.1v-.4s-.1.1-.2.4-.3.6-.4 1.1-.3 1-.3 1.6c0 .3-.1.6-.1.9v1c0 .7.1 1.3.3 1.9.1.3.2.6.3.8.1.3.3.5.4.7.3.4.6.7.9.8.4.2.5.2.5.2M163.6 170.6v-.8c-.1-.5-.3-1.1-.7-1.7s-.9-1-1.3-1.3-.7-.4-.7-.4 0 .1.1.2.2.3.3.5c.3.4.7.9 1 1.4s.7 1 .9 1.4.4.7.4.7M169.2 170.1s0-.4-.2-.9c-.2-.6-.5-1.3-1-1.9-.3-.3-.5-.6-.8-.8s-.6-.4-.8-.5c-.3-.1-.5-.2-.7-.3-.2 0-.3-.1-.3-.1l.2.2.5.5c.4.4.9.9 1.4 1.5.5.5.9 1.1 1.2 1.6.3.4.5.7.5.7M167.6 164.4s-.7-.6-1.8-2c-.3-.3-.6-.7-.8-1.1-.3-.4-.5-.9-.7-1.5-.4-1.1-.6-2.4-.7-3.8-.2-2.9-.4-6.3-.6-9.9s-.3-7.5-.2-11.3c.1-1.9.1-3.9.4-5.7.2-1.9.6-3.7 1.1-5.4 1-3.5 2.3-6.6 3.3-9.3 1.1-2.7 1.8-5 2.3-6.7.2-.8.4-1.5.4-1.9.1-.4.1-.7.1-.7s-.1.2-.2.7c-.1.4-.3 1.1-.5 1.9s-.6 1.8-1 2.9-.9 2.3-1.5 3.7c-1.1 2.7-2.6 5.8-3.6 9.3-.5 1.8-.9 3.6-1.2 5.5s-.4 3.8-.4 5.8c-.1 3.9 0 7.8.3 11.4.2 3.6.6 7 .8 9.9.1 1.4.4 2.8.8 3.9.2.6.5 1.1.7 1.5.3.4.6.8.9 1.1 1.3 1.1 2.1 1.7 2.1 1.7"/><path fill="#665a52" d="M162.7 171.9c0-.6-.9-3.3-2-3.3s-.4 1.1.1 1.9c.5.7 1.9 1.8 1.9 1.4M168.2 171.5c0-.6-.9-3.3-2-3.3s-.4 1.1.1 1.9 1.9 1.8 1.9 1.4M171.6 170.6c0-.6-.9-3.3-2-3.3s-.4 1.1.1 1.9c.6.7 1.9 1.8 1.9 1.4"/><path fill="#8d674a" d="M42 55.2s-10.4-3.6-21 12.1c0 0 3.1-2.6 5-2.6 0 0-4.9 1.8-6 10.1 0 0 1.8-3.3 3.2-3.6 0 0-6.8 9.4 3.4 11.1C36.7 83.9 44.4 57.5 42 55.2"/><path fill="#59402f" d="M21 67.3s.2-.3.6-.8 1-1.2 1.7-2 1.6-1.7 2.5-2.7c.5-.5 1-1 1.5-1.4.5-.5 1.1-.9 1.7-1.3s1.2-.8 1.7-1.2c.6-.3 1.2-.7 1.8-1 .6-.2 1.2-.6 1.8-.8s1.1-.4 1.7-.5c.5-.1 1-.2 1.4-.3s.8-.1 1.1-.1c.6 0 1-.1 1-.1s-.4 0-1-.1c-.3 0-.7-.1-1.2 0-.4 0-.9.1-1.5.1-.5.1-1.1.3-1.7.4s-1.2.4-1.9.7c-.6.3-1.2.7-1.9 1l-1.8 1.2c-.6.5-1.2.9-1.7 1.4l-1.5 1.5c-1 1-1.7 2-2.4 2.9-1.2 1.8-1.9 3.1-1.9 3.1M26 64.7s-.7.3-1.6 1.1c-.5.4-.9.8-1.4 1.4-.5.5-1 1.1-1.4 1.8s-.8 1.3-1 2c-.1.3-.2.7-.3 1s-.2.6-.2.9c-.1.6-.1 1-.1 1.4v.5s0-.2.1-.5c0-.2.1-.4.1-.6.1-.2.1-.5.2-.7.1-.3.2-.5.3-.8s.2-.6.4-.9c.1-.3.3-.6.5-1l.6-.9c.8-1.3 1.7-2.4 2.5-3.2.7-1 1.3-1.5 1.3-1.5M23.2 71.1s-.5.4-1 1.1c-.3.4-.6.8-.8 1.4-.2.5-.4 1.1-.6 1.7-.1.6-.2 1.2-.1 1.8 0 .3.1.6.2.8.1.3.1.5.2.7.2.4.4.7.5 1 .2.2.2.3.2.3s0-.1-.1-.4c0-.1-.1-.3-.2-.4 0-.2-.1-.4-.1-.6-.1-.2-.1-.4-.1-.7 0-.2-.1-.5-.1-.8v-.8c0-.3.1-.6.1-.8.1-.6.3-1.1.4-1.6.2-.5.4-1 .6-1.4.6-.7.9-1.3.9-1.3"/><path fill="#8d674a" d="M185.7 83.8s0 7.8-3.3 11l-.2-2.8s-1 8.8-7.5 11.4l.8-2.6s-7.4 4.6-7.3 8l-1.2-2s-6.8 5.8-9.8 3.8"/><path fill="#8d674a" d="M161.6 28.8c-18-5.6-41.7 3.8-53 8-16.4 6.1-36.2-9.9-63.1 12.1s-21.5 54.9-1.4 71c22.5 18 102 18.1 116.1-10.3 0 0 26.3-10.2 27.5-37.5"/><path fill="#59402f" d="M185.9 83.9s-.2.7-.4 1.7-.5 2.4-.8 3.8c-.1.3-.2.7-.2 1-.1.3-.2.7-.3 1-.2.6-.4 1.2-.6 1.7-.1.2-.2.5-.3.6-.1.2-.2.4-.3.5-.2.2-.3.4-.3.4s.1-.1.4-.3c.1-.1.3-.2.4-.4.2-.2.3-.4.5-.6.3-.4.6-1 .8-1.7.3-.6.4-1.3.6-2 .3-1.4.5-2.8.5-3.9zM182.1 91.9s-.2.9-.6 2.1c-.2.6-.5 1.4-.8 2.1-.1.4-.4.8-.5 1.2-.2.4-.4.8-.6 1.1-.2.4-.4.8-.7 1.1s-.5.7-.8 1-.5.6-.8.9c-.3.2-.5.5-.8.7s-.5.4-.7.6c-.2.1-.4.3-.6.4-.3.2-.5.3-.5.3s.2-.1.6-.2c.2-.1.4-.2.7-.3.2-.1.5-.3.8-.5l.9-.6c.3-.2.6-.5.9-.8s.6-.7.9-1c.3-.4.5-.8.8-1.1.4-.8.8-1.6 1.1-2.4s.5-1.6.6-2.2c.1-1.5.1-2.4.1-2.4M175.4 100.9s-.7.2-1.6.8c-.5.3-1 .6-1.5 1s-1.1.8-1.6 1.3-1 1-1.4 1.6c-.4.5-.7 1.1-.9 1.6-.1.3-.2.5-.2.7-.1.2-.1.4-.1.5-.1.3-.1.5-.1.5l.2-.4c.1-.1.1-.3.2-.5l.3-.6c.1-.2.3-.4.5-.7.2-.2.4-.5.6-.7.4-.5.9-1 1.4-1.5s1-.9 1.5-1.4c.5-.4 1-.8 1.4-1.1.7-.6 1.3-1.1 1.3-1.1M166.8 106.9l-1.5 1-1.5.9c-.6.3-1.2.7-1.8 1s-1.3.6-1.9.8l-.9.3c-.3.1-.6.1-.8.2-.3 0-.5.1-.7.1h-1.1s.2 0 .5.1c.2 0 .3.1.6.1h.7c.5 0 1.2-.1 1.8-.3.7-.2 1.3-.5 2-.8.6-.3 1.3-.7 1.8-1.1.6-.4 1-.8 1.5-1.1.9-.6 1.3-1.2 1.3-1.2M141.9 27.5s-3.1.2-7.7 1.1c-2.3.4-5 1-7.8 1.8-1.4.4-2.9.8-4.3 1.2-1.5.4-3 .9-4.4 1.4-2.9 1.1-5.8 2.4-8.5 3.3-1.4.5-2.7.9-4 1.2s-2.5.5-3.7.6-2.2.2-3.2.2h-2.4c-1.4-.1-2.1-.1-2.1-.1s.8.1 2.1.2c.7.1 1.5.1 2.5.1.9 0 2 0 3.2-.1s2.4-.3 3.7-.5c1.3-.3 2.7-.6 4.1-1.1 2.8-.9 5.6-2.2 8.5-3.2 1.4-.5 2.9-.9 4.4-1.4 1.5-.4 2.9-.8 4.3-1.2 2.8-.8 5.4-1.4 7.7-1.9s4.2-.9 5.5-1.2 2.1-.4 2.1-.4M67.9 37.6s-1.2.3-3.2.9-4.9 1.6-8.2 3.2-7.1 3.6-10.7 6.4c-3.7 2.8-7.2 6.2-10 10.3-1.4 2-2.6 4.2-3.6 6.4s-2 4.4-2.8 6.5c-.8 2.2-1.4 4.3-1.8 6.4s-.6 4.1-.6 5.9c0 3.7.6 6.7 1 8.8s.6 3.3.6 3.3-.2-1.2-.5-3.3-.8-5.1-.7-8.8c.1-1.8.3-3.8.7-5.8s1.1-4.1 1.9-6.3c.8-2.1 1.7-4.3 2.8-6.4q1.5-3.3 3.6-6.3c2.7-4 6.2-7.4 9.8-10.2s7.3-4.9 10.5-6.5c3.3-1.6 6.1-2.7 8.1-3.4 1.9-.8 3.1-1.1 3.1-1.1M154.7 116.9s-.3.3-1 .7c-.7.5-1.7 1.1-3 1.9-.7.4-1.4.8-2.2 1.2s-1.7.9-2.6 1.3c-1 .4-2 .9-3.1 1.4s-2.2.9-3.4 1.4-2.5.9-3.8 1.4-2.7.9-4.1 1.3c-2.9.8-5.9 1.6-9.1 2.3-.8.2-1.6.4-2.4.5s-1.6.3-2.5.4c-.8.1-1.7.3-2.5.4s-1.7.2-2.5.3-1.7.2-2.6.2c-.9.1-1.7.2-2.6.2-1.7.1-3.5.1-5.2.2-3.5-.1-6.9 0-10.3-.3-3.4-.2-6.8-.5-10-.8-1.6-.2-3.2-.4-4.8-.5q-2.4-.3-4.5-.6c-2.9-.4-5.7-.9-8.3-1.5q-3.75-.9-6.9-1.8c-1-.3-1.9-.6-2.8-1-.8-.4-1.6-.6-2.3-1-1.4-.6-2.4-1.2-3.1-1.6-.7-.5-1-.7-1-.7s.3.3 1 .8c.7.4 1.7 1.1 3.1 1.7.7.4 1.5.6 2.3 1 .9.3 1.8.7 2.8 1 2 .7 4.3 1.3 6.9 1.9 2.5.6 5.3 1.1 8.3 1.6 1.5.2 3 .5 4.6.7l4.8.6c3.3.3 6.6.6 10 .8 3.4.3 6.9.3 10.4.3 1.7-.1 3.5-.2 5.2-.2.9 0 1.7-.1 2.6-.2s1.7-.2 2.6-.3 1.7-.2 2.5-.3 1.7-.3 2.5-.4 1.7-.3 2.5-.4 1.6-.3 2.4-.5c3.2-.6 6.3-1.5 9.1-2.4 1.4-.5 2.8-.9 4.1-1.4s2.6-1 3.8-1.5 2.4-1 3.4-1.5q1.65-.75 3-1.5c.9-.5 1.8-1 2.6-1.4.8-.5 1.5-.9 2.2-1.3 1.3-.8 2.3-1.5 3-1.9.6-.2.9-.5.9-.5"/><path fill="#8d674a" d="M78.1 80.2s11.3 33.6 7.9 42.6c-1.5 3.9-2.4 6.6-4.4 11.3-6.1 14-5.9 18.7-3.8 21s9.3 5.9 8.1 7.7-21.7 4.2-26.4 2.8c-1.9-.6-11.5-23.8-11.9-36.5s.8-17.1-1.3-26.1c-7.6-33 31.2-29 31.8-22.8"/><path fill="#59402f" d="M78.7 164.6s0-.3-.3-.8c-.2-.5-.6-1-1.2-1.4-.5-.4-1.1-.7-1.6-.9s-.8-.2-.8-.2l.2.2c.1.1.3.2.5.4.4.3.9.7 1.3 1.1.5.4.9.8 1.3 1.1.4.2.6.5.6.5M84.1 163s-.1-.4-.5-.9c-.3-.5-.9-1.1-1.5-1.5-.3-.2-.7-.4-1-.5s-.7-.2-1-.3-.5-.1-.7-.1h-.3s.1.1.2.1l.6.3c.5.3 1.1.6 1.7 1s1.2.9 1.6 1.2c.6.4.9.7.9.7"/><path fill="#6c5f57" d="M78.2 166.1c-.2-.6-1.7-2.9-2.8-2.6s-.1 1.2.6 1.7c.7.6 2.3 1.3 2.2.9M83.3 164.2c-.2-.6-1.7-2.9-2.8-2.6s-.1 1.2.6 1.7c.8.5 2.4 1.2 2.2.9M86.6 163c-.2-.6-1.7-2.9-2.8-2.6s-.1 1.2.6 1.7c.7.6 2.3 1.3 2.2.9"/><path fill="#8d674a" d="M47.3 105.7s-3.9 12.2-6.2 12.9c0 0 2.7.9 3.9-1.1 0 0-3.5 3.2-3 7.8l2.4-1.9s-1.6 7.4.3 11.3l1.6-3.9s-.9 7.2 4.3 9.1"/><path fill="#59402f" d="M41.3 118.5s.2 0 .5-.3c.3-.2.6-.5 1-1 .7-.9 1.5-2.2 2.1-3.6.3-.7.6-1.4.8-2.1s.4-1.3.6-1.9c.3-1.1.4-1.8.4-1.8s-.3.7-.8 1.7-1 2.4-1.7 3.8c-.3.7-.6 1.4-.9 2s-.6 1.2-.9 1.7-.5.9-.7 1.1zM42.2 125.1s.1-.5.2-1.1c.1-.7.3-1.5.5-2.3.1-.4.3-.8.4-1.2s.3-.7.5-1 .3-.5.4-.7.2-.3.2-.3-.1.1-.3.2q-.3.15-.6.6c-.2.3-.5.6-.7 1s-.4.8-.5 1.3c-.1.4-.2.9-.2 1.3v1.2c-.1.6.1 1 .1 1M44.7 134.3s-.3-.6-.5-1.7c-.1-.5-.2-1.1-.2-1.7s-.1-1.3 0-2c0-.7 0-1.4.1-2 0-.6.1-1.3.1-1.8s.1-1 .1-1.3v-.5s-.1.2-.2.5-.3.7-.4 1.2-.3 1.1-.4 1.8-.2 1.4-.2 2.1c0 1.4.2 2.9.5 3.9q.3.75.6 1.2c.4.2.5.3.5.3M49.1 139s-.1-.1-.3-.2c-.2-.2-.4-.4-.6-.8-.4-.7-.8-1.7-1-2.8-.3-1.1-.4-2.1-.6-3-.1-.8-.3-1.4-.3-1.4s0 .1-.1.4c0 .2-.1.6-.1 1v1.4c0 .3 0 .5.1.8s.1.6.2.8c.2.6.3 1.1.6 1.6.2.5.5.9.8 1.2s.6.5.8.7c.4.3.5.3.5.3M47.9 133.6s.5 2.3 1.4 5.7c.5 1.7 1 3.7 1.6 5.8q.9 3.15 2.1 6.6c.8 2.2 1.6 4.4 2.4 6.4.4 1 .8 2 1.3 2.9.4.9.9 1.8 1.3 2.5.4.8.9 1.4 1.4 2 .1.1.2.3.4.3.2.1.3.1.5.1.3 0 .6.1.8.1 1 .1 1.6 0 1.6 0s-.6 0-1.6-.2c-.3 0-.5-.1-.8-.1-.3-.1-.6-.1-.8-.4-.5-.5-.9-1.2-1.3-2-.8-1.5-1.6-3.4-2.4-5.5-.8-2-1.6-4.2-2.3-6.4-.8-2.2-1.5-4.4-2.1-6.5q-1.05-3.15-1.8-5.7c-1-3.3-1.7-5.6-1.7-5.6M81.5 90.9s.3 1.1.8 2.9c.5 1.9 1.1 4.5 1.8 7.7.3 1.6.7 3.4 1 5.2.3 1.9.6 3.8.8 5.8q.3 3 .3 6.3c0 2.1-.5 4.2-1.2 6.3-1.3 4.2-3.1 8.2-4.7 11.9-.8 1.9-1.5 3.7-2.2 5.5-.6 1.8-1.1 3.5-1.4 5.1-.1.8-.2 1.6-.2 2.4 0 .7 0 1.5.1 2.1q.15 1.05.6 1.8c.3.5.6.9 1 1.3.7.7 1.3 1.1 1.8 1.4.4.3.7.4.7.4s-.2-.2-.6-.5-1-.7-1.7-1.4-1.3-1.7-1.4-3c-.1-.7 0-1.4 0-2.1s.1-1.5.2-2.3c.6-3.2 2.1-6.7 3.7-10.5s3.4-7.8 4.8-12c.6-2.1 1.1-4.3 1.1-6.5.1-2.2-.1-4.3-.3-6.4s-.5-4-.9-5.9c-.3-1.9-.7-3.6-1.1-5.2-.7-3.2-1.5-5.8-2-7.7-.7-1.6-1-2.6-1-2.6"/><path fill="#8d674a" d="M174.2 22.1c20.3-2.8 43.1 9.1 46.2 14.7s3.7 18.8 3.7 18.8 20.5 10.8 20.1 15-7 14.1-15.3 14.7c-8.3.7-15.4 1.5-25.1 1s-27 1.7-35.8-8.1c0 0 1.2 4.3 2.9 5.5 0 0-11.4-2.6-8.4-13.5 0 0-2 1.8-1.4 7.5 0 0-6.1-6.2-2.2-15.2 0 0-2.7 4.9-5.4 4.9 0 0 2.6-3.8 2.5-10.3 0-6.5 1.2-32.6 18.2-35"/><path fill="#8d674a" d="M177.3 21.3c20.4-2 40.1 9.9 43.2 15.6s3.7 18.8 3.7 18.8 20.4 10.7 20 14.9-7 14.1-15.3 14.7c-8.3.7-16.9 3.5-26.5 2.9s-25.6-.2-34.4-10c0 0 1.2 4.3 2.9 5.5 0 0-11.4-2.6-8.4-13.5 0 0-2 1.8-1.4 7.5 0 0-6.1-6.2-2.2-15.2 0 0-2.7 4.9-5.4 4.9 0 0-4.5-15.2-4.6-21.7s14-23 28.4-24.4"/><path fill="#9e7b5c" d="M244.2 70.6c-.4 4-6.1 12.7-13.6 14.4-2.5-1.4-5.3-3.4-5.5-6.1 0 0-16.1-11.1-1.1-23.3.1.1 20.6 10.8 20.2 15"/><path fill="#332721" d="M243.3 73.9c.9-1.6 2.3-3.2 1.4-4.6-.5-.9-1.7-2.4-2.7-2.3-1 0-2.5 3 .5 4.5-.4 1.5.2 2 .8 2.4"/><path fill="#59402f" d="M237.9 80.6s-.5-.3-1.3-.7c-.4-.2-.9-.3-1.4-.5-.5-.1-1.1-.3-1.7-.3-.6-.1-1.2-.1-1.8-.1s-1.1.1-1.5.2-.8.2-1 .3l-.4.2h.4c.3 0 .6-.1 1-.1h1.5c.5 0 1.1.1 1.7.1 1.1.1 2.3.3 3.1.5.8.3 1.4.4 1.4.4"/><ellipse cx="30.901" cy="34" fill="#332010" rx="1.7" ry="2.6" transform="rotate(-174.736 124.546 6.29)scale(1 -1)"/><path fill="#9e7b5c" d="M210.9 48.2c-.1 1.1 3 1.8 4.4 1.9s2.7-.6 2.8-1.7-1-2-2.4-2.2c-1.5 0-4.7.9-4.8 2"/><path fill="#59402f" d="M224.1 55.7v-2.3c-.1-1.4-.1-3.5-.4-6-.1-1.2-.3-2.6-.6-4s-.6-2.9-1.2-4.3c-.3-.7-.6-1.5-1-2.2-.5-.7-.9-1.3-1.5-2-1.1-1.2-2.3-2.4-3.6-3.4s-2.7-1.9-4.1-2.7-2.8-1.6-4.2-2.2c-1.4-.7-2.8-1.2-4.1-1.7q-2.1-.75-3.9-1.2-1.8-.6-3.3-.9c-1-.2-1.8-.5-2.5-.6-1.4-.3-2.2-.5-2.2-.5s.8.2 2.2.6 3.4 1 5.7 1.7c1.2.4 2.4.8 3.7 1.4 1.3.5 2.7 1.1 4.1 1.8s2.8 1.4 4.2 2.2 2.7 1.8 4 2.7q1.95 1.5 3.6 3.3c.5.6 1 1.2 1.4 1.9s.7 1.4 1 2.1c1.1 2.9 1.6 5.7 1.9 8.1.7 4.9.8 8.2.8 8.2M170.9 83.8s-.3-.1-.7-.2c-.5-.1-1.1-.4-1.9-.8-.4-.2-.8-.4-1.2-.7-.4-.2-.8-.6-1.2-.9s-.8-.7-1.2-1.1-.7-.8-1-1.3c-.3-.4-.5-1-.8-1.4-.2-.5-.3-1-.5-1.5-.1-.5-.1-1-.2-1.5s0-.9 0-1.4c0-.4 0-.8.1-1.2 0-.3.1-.6.1-.9.1-.5.1-.8.1-.8s-.1.3-.2.8c-.1.2-.2.5-.2.9-.1.3-.2.7-.2 1.2 0 .4-.1.9-.1 1.4s0 1 .1 1.6c.2.5.2 1.1.5 1.6.2.5.4 1.1.8 1.6.3.5.7.9 1.1 1.4.4.4.9.8 1.3 1.1.9.6 1.8 1.1 2.6 1.4 1.5.6 2.7.7 2.7.7M161.1 77.7s-.7-.7-1.5-2.1c-.2-.3-.4-.7-.6-1.1s-.4-.8-.5-1.3c-.1-.2-.2-.4-.2-.7-.1-.2-.1-.5-.2-.7l-.3-1.5c-.1-.5-.1-1-.1-1.5s0-1 .1-1.5.1-.9.2-1.4l.3-1.2c.1-.4.2-.7.3-1s.2-.6.2-.8c.1-.4.2-.7.2-.7l-.3.6c-.1.2-.2.5-.4.7-.2.3-.3.6-.4 1s-.3.8-.4 1.2-.2.9-.3 1.4c0 .5-.1 1-.1 1.5s0 1 .1 1.6l.3 1.5c.1.2.1.5.2.7s.2.5.3.7c.2.5.4.9.6 1.3s.5.7.7 1.1c.5.6.9 1.1 1.3 1.4.3.7.5.8.5.8M153.6 67.4s.2-.2.4-.5c.2-.4.6-.9.9-1.6s.6-1.5.8-2.4.4-1.9.5-2.8c.1-.5.1-1 .1-1.5s.1-1 .1-1.4c.1-.9 0-1.8 0-2.5s-.1-1.3-.1-1.8c0-.4-.1-.7-.1-.7s0 .2-.1.7c0 .4-.1 1-.1 1.8 0 .7-.1 1.6-.2 2.5s-.2 1.9-.3 2.8c-.1 1-.2 1.9-.4 2.8q-.3 1.35-.6 2.4c-.2.7-.4 1.2-.6 1.6zM180 21.2s-.4-.1-1.1-.2h-1.2c-.5 0-1 .1-1.6.2s-1.2.2-1.9.4c-.6.2-1.3.3-2 .6-.7.2-1.4.5-2.1.8s-1.4.7-2.1 1-1.4.8-2 1.1c-.7.4-1.3.8-1.9 1.2-1.2.8-2.3 1.6-3.2 2.3-.5.3-.9.7-1.2 1-.4.3-.7.6-.9.8-.5.4-.8.7-.8.7l.9-.6c.3-.2.6-.4 1-.7s.8-.6 1.3-.9 1-.7 1.6-1c.5-.4 1.2-.7 1.8-1.1s1.2-.8 1.9-1.1c.7-.4 1.3-.8 2-1.1s1.4-.7 2.1-1 1.4-.6 2-.9c1.3-.5 2.6-.9 3.8-1.2.6-.1 1.1-.2 1.6-.3s.9-.1 1.2-.1c.4 0 .8.1.8.1"/><path fill="#8d674a" d="M193 24.1s-1.7-8.2-6.3-8.8-15.3 3.9-7.2 16.6"/><path fill="#59402f" d="M186.5 17.8s-.4.6-.7 1.5c-.2.5-.4 1-.5 1.6-.2.6-.3 1.2-.3 1.9v1c.1.3.1.7.2 1l.3.9c.1.3.2.5.4.7.3.4.5.7.8.9l.3.3s-.1-.1-.2-.4c-.1-.1-.2-.3-.3-.4l-.3-.6c-.1-.2-.2-.5-.2-.7-.1-.3-.1-.5-.2-.8s-.1-.6-.1-.9v-.9c0-.6.1-1.3.2-1.8.1-.6.2-1.1.3-1.6.1-1.1.3-1.7.3-1.7"/><g fill="#59402f"><path d="M184.2 26.8s0 .2.1.3c.1.2.2.4.4.6s.4.4.6.5.3.1.3.1 0-.2-.1-.3c-.1-.2-.2-.4-.4-.6s-.4-.4-.6-.5c-.1 0-.3-.1-.3-.1M183 28.1s0 .1.1.3.2.3.3.5c.1.1.3.3.5.3.2.1.3.1.3.1s0-.1-.1-.3-.2-.3-.3-.5c-.1-.1-.3-.3-.5-.3-.1-.1-.3-.1-.3-.1"/></g><path fill="#59402f" d="M180.1 17s.3-.1.7-.4c.5-.2 1.2-.5 2-.7.2-.1.4-.1.7-.2.2 0 .5-.1.7-.1h1.6c.3 0 .5.1.8.1.3.1.5.2.8.2.2.1.4.2.6.4.2.1.5.2.7.4.4.4.9.7 1.2 1.1.4.4.7.8 1 1.3.2.5.6.9.7 1.4.2.5.4.9.6 1.3s.3.8.4 1.1l.3.9c.2.5.3.8.3.8s0-.3-.1-.8c0-.3-.1-.6-.2-.9-.1-.4-.1-.8-.3-1.2-.1-.4-.3-.9-.5-1.4-.1-.5-.4-1-.7-1.5-.2-.5-.6-1-1-1.5-.3-.5-.9-.9-1.3-1.3-.2-.2-.5-.3-.8-.5-.3-.1-.5-.3-.8-.4s-.6-.2-.9-.2c-.3.2-.6.1-.9.1h-.8c-.3 0-.5 0-.8.1s-.5.1-.7.2-.5.2-.7.2c-.4.1-.8.3-1.1.5s-.6.3-.8.5c-.5.3-.7.5-.7.5"/><path fill="#8d674a" d="M147.3 92.4c-2.6 16.3-7.2 21.8-7.2 21.8s17.1 16.4 17.9 19.5c2.1 8-13.4 29.6-18.3 24.6-4.7-4.8-.2-13.6-.2-13.6s-16.7-14-18.1-14.9c-2.9-1.8-21.3-3.1-20.2-26.2 5.1-46.8 49.7-33.8 46.1-11.2"/><path fill="#8d674a" d="M108.6 82.6s-7.1 10.7-9.5 10.7c0 0 2.4 1.7 4 0 0 0-4.3 2.1-5 6.6l2.8-1.2s-3.6 6.6-2.8 10.9l2.6-3.3s-2.8 6.6 1.7 10"/><path fill="#59402f" d="M99.3 93.2s.2 0 .5-.1.8-.3 1.2-.7c1-.7 2-1.8 3-2.9.5-.6.9-1.2 1.4-1.8.4-.6.8-1.1 1.1-1.6.6-1 .9-1.7.9-1.7s-.5.6-1.2 1.4c-.7.9-1.7 2-2.6 3.2-.5.6-1 1.1-1.4 1.7-.5.5-.9 1-1.3 1.4s-.8.7-1 .9c-.5.2-.6.2-.6.2M98.1 100s.2-.4.5-1.1c.3-.6.7-1.4 1.2-2.2.2-.4.5-.7.7-1.1.1-.2.2-.3.4-.5.1-.1.2-.3.4-.4.2-.2.4-.5.6-.6s.2-.2.2-.2-.1 0-.3.1-.5.2-.8.4c-.2.1-.3.2-.5.3s-.3.3-.5.4c-.3.3-.6.7-.9 1.1-.5.8-.8 1.7-1 2.4zM98 109.6s-.1-.7.1-1.8c.1-1.1.4-2.4.9-3.8.2-.7.4-1.4.7-2 .2-.6.5-1.2.6-1.7.2-.5.4-.9.5-1.2s.2-.5.2-.5-.1.1-.3.4-.4.6-.7 1.1c-.6.9-1.2 2.3-1.6 3.7-.2.7-.4 1.4-.5 2.1s-.1 1.3-.1 1.9.1 1 .2 1.3c-.1.4 0 .5 0 .5M139.3 144.4s-2.5-2.2-6.1-5.4c-1.8-1.6-4-3.5-6.3-5.6-1.2-1-2.4-2.1-3.7-3s-2.9-1.7-4.5-2.1c-.8-.2-1.6-.4-2.3-.7-.8-.3-1.5-.6-2.2-.9-1.4-.7-2.7-1.6-4-2.4-.6-.5-1.2-.9-1.8-1.3s-1.1-.9-1.6-1.4c-1-1-1.7-2.1-2.3-3.2-1.2-2.1-1.8-4.1-2.1-5.5s-.4-2.2-.4-2.2 0 .8.3 2.2.8 3.4 1.9 5.7c.6 1.1 1.3 2.3 2.2 3.3.9 1.1 2.2 2 3.4 2.9 1.3.9 2.6 1.8 4.1 2.6s3.1 1.2 4.7 1.6c3.1.8 5.8 2.8 8.2 4.7 2.3 2 4.5 3.9 6.4 5.5 3.6 3.1 6.1 5.2 6.1 5.2M102 116s-.5-.4-.9-1.3c-.2-.4-.4-.9-.5-1.5-.1-.3-.1-.6-.1-.9-.1-.3-.1-.6-.1-.9v-1.8c0-.6.1-1.1.1-1.6s.1-.9.1-1.1v-.4s-.1.1-.2.4-.3.6-.4 1.1-.3 1-.3 1.6c0 .3-.1.6-.1.9v1c0 .7.1 1.3.3 1.9.1.3.2.6.3.8.1.3.3.5.4.7.3.4.6.7.8.9.4.2.6.2.6.2M156.9 141.7c.4-.6.7-1.3.9-2s.4-1.4.5-2.1.1-1.5.2-2.2v-1.1c0-.4-.2-.8-.4-1.1-.7-1.3-1.6-2.5-2.4-3.7-.9-1.2-1.8-2.3-2.8-3.4-1.9-2.2-4-4.3-6-6.4s-4.1-4.1-6.3-6.1v.4c1.3-2 2.3-4.1 3.1-6.3.4-1.1.8-2.2 1.1-3.4.2-.6.3-1.1.4-1.7s.2-1.2.3-1.7c-.3 1.1-.6 2.3-1 3.4l-1.2 3.3c-.4 1.1-1 2.1-1.5 3.2-.5 1-1.1 2.1-1.7 3l-.1.2.2.2c2.1 2 4.2 4.1 6.2 6.1 2.1 2.1 4.1 4.1 6 6.3 1 1.1 1.9 2.2 2.9 3.3.9 1.1 1.8 2.3 2.5 3.5.2.3.3.6.3 1v1.1c0 .7 0 1.4-.1 2.2l-.3 2.1c-.2.6-.4 1.3-.8 1.9M138 151.4h.8c.5-.1 1.1-.3 1.7-.7s1-.9 1.3-1.3.4-.7.4-.7-.1 0-.2.1-.3.2-.5.3c-.4.3-.9.7-1.4 1-.5.4-1 .7-1.4.9s-.7.4-.7.4M138.5 157s.4 0 .9-.2c.6-.2 1.3-.5 1.9-1.1.3-.3.6-.5.8-.8s.4-.6.5-.8c.1-.3.2-.5.3-.7 0-.2.1-.3.1-.3l-.2.2-.5.5-1.4 1.4c-.5.5-1.1.9-1.6 1.2-.5.4-.8.6-.8.6"/><path fill="#6c5f57" d="M136.6 150.4c.6 0 3.3-.9 3.3-2s-1.1-.4-1.9.1-1.8 1.9-1.4 1.9M137.1 155.9c.6 0 3.3-.9 3.3-2s-1.1-.4-1.9.1c-.7.6-1.8 1.9-1.4 1.9M138 159.4c.6 0 3.3-.9 3.3-2s-1.1-.4-1.9.1c-.7.6-1.8 1.9-1.4 1.9"/><path fill="#59402f" d="M142.4 116.3s-.1-.4-.5-1c-.2-.3-.5-.6-.8-.9s-.7-.6-1.1-.8l-1.2-.6c-.4-.1-.8-.2-1.1-.3s-.6 0-.8-.1h-.3s.1.1.3.1c.2.1.4.2.7.3s.7.3 1 .5c.4.2.7.4 1.1.6.7.4 1.4.9 1.9 1.4.5.4.8.8.8.8"/></g></svg>