<svg xmlns="http://www.w3.org/2000/svg" width="99.9" height="256.48" viewBox="0 0 99.9 256.48"><g stroke-miterlimit="10" data-paper-data="{&quot;isPaintingLayer&quot;:true}" style="mix-blend-mode:normal"><path fill="none" stroke="#e6b55b" stroke-width="1.46" d="M64.9 44.08c0 2.1-.7 3.8-1.6 3.8s-1.6-1.7-1.6-3.8.7-3.8 1.6-3.8c.8 0 1.6 1.7 1.6 3.8z" data-paper-data="{&quot;origPos&quot;:null}"/><path fill="#a7a7a7" d="M18.2 42.38c.5-.8-1.5-2.3.3-4.1 1.7-1.7 4.2-1 4.2-1s-1.9-2.8 1.1-3.6c2.3-.6 4.5.8 4.5.8s-1.1-3.2 1.9-2.5c.8.2 1.4 1.2 2.2.9 1-.3 1.5-2.3 2.5-1.9.9.3 1.7 1.4 1.6 2.1-.2 1.1 2.4 0 3.5.6 1.6.8 1.1 1.8 1.1 1.8s.9-.9 3.2.7c1.5 1.1.2 2.3.2 2.3s2.3-.1 3.5.5c1.2.7-.1 1.7.7 2.9.7 1.1 1.9.5 2.5 1.6s-.7 2.6-.7 2.6 1.9 2.3 1.6 3.5-1.9 2.1-2.4 3.2c-.8 1.8.4 3.3-1.9 3.2-1.5-.1-3-1.8-2.6-.4.1.3-.3 3-1.8 2.9-1.1-.1-1.2-1.5-2.3-1.4-1.2.1.6 2.2-2.4 2.7-1 .4-1.3-.9-2.3-.7-.4.4 1.3 1.8-2.6 2.7-1.7.3-3.2-1.2-2.9-.7-1.4 1.1-.5 1.4-3.2 1.5-1.5 0-.8-1.6-2.3-2.1 0 0-2.6 2-4.5-1.2-.6-.9 1.7-2.2 1-3-1.2-1.2-2.8-.5-3.7-2-1.5-2.8-.2-3.4-.2-5-.1-2.3-2.6-.6-1.9-4.1.2-2.4 1.6-2 2.1-2.8" data-paper-data="{&quot;origPos&quot;:null}"/><path fill="#a7a7a7" d="M69 27.18c-.1 1.3-1.2 2.5-1.6 4.5-.3 1.9.6 2.5 0 4.3-.3.7-1.4 2.1-1.4 2.1s.8 1.9-.1 2.5c-.8.6-3.5-.3-3.2.6.4 1.3.9 2.7-.2 3.6-1 .8-2.1-.6-3 .3-.3.3-.1 2.8-1.8 2.9-2.7.3-1.9-1.2-3.1-1.6-.5-.2-.2 2.6-2 2.9-3 .5-2.8-1.9-3.8-1.5-2.2.8 1.2 2.8-4.2 3-3 .1-2.5-2.2-2.5-2.2s-.7 2-3 2c-4.7-.2-1.6-1.4-4.1-3.1-1.2-.8-2.1.6-3.1-.5-1.4-1.4-1.1-1.5-1.4-3.5-.4-2.5-1.5.1-3.2-1.8-1.2-1.4-.2-2.8-1.4-4.2-1.5-1.8-2.9-1.6-3.4-3.9-.4-1.6.2-3.5.2-5.1 0-1.4-1.9-3.9-1.8-5.4.1-1.8 2-2.1 2.7-3.8.3-.7-2.5-3-2.2-3.7.5-1.2 2.2-2.6 3-3.6 1.1-1.4 0-3.1 1.3-4.3 1.6-1.6 2-.4 4.1-1.1s-.7-2.3 2.7-3.3c.6-.2.9.4 1.5.1 1.1-.6 1.7-1.8 3-1.8s1.5 1.5 2.7 1.5c0 0 1.9-1.6 3.5-1.9 2.8-.5 2.4 2.6 4.5.8 1.9-1.7 3.4-3.3 6.3-.3 1.4 1.4 3 1.5 3.5 3.3.4 1.3 4.5.5 5.4 2.5.5 1.1-.4 1.7.3 2.6.6.7 2.2.7 2.8 1.9s-.6 1.6-.3 3.3c0 0 2.2 1 2.6 2.3s-1.4.8-1.3 2c0 0 1.4 1.6 1.6 2.8.3 1.2-.6 1-.7 2-.1.8 1.1 1.6 1.1 2.8" data-paper-data="{&quot;origPos&quot;:null}"/><path fill="#a2723c" d="M86 114.28c-3.4.8-9.3-.4-9.3-.4s-9.8-46.3-2.3-48.7c13.6-4.7 17.2 45.3 17.2 45.3s-2.1 3.1-5.6 3.8"/><path fill="#f29f1f" d="M70.2 89.18s-12.2-22.9.2-26.4c11-3.1 19.2 19.8 19.2 19.8z"/><path fill="#5a3820" d="m19.7 256.18.8-11 14.3.7 9.1 2.6 7.2 7.7zM57.3 256.48l.8-10.8 14 .7 8.9 2.5 7 7.5H57.3z"/><g fill="#a2723c" data-paper-data="{&quot;origPos&quot;:null}"><path d="m95.8 137.48-8.8 3.3-10.2-26.3s3.3-4.6 7.2-4.7c2.9-.1 7.9.2 7.9.2z" data-paper-data="{&quot;origPos&quot;:null}"/><path d="M92.7 159.638c-1.8 0-.8-8.5-2.6-8.9-1.3-.3.2 5.3-.3 6.1s-3.1-.9-3.1-.9-2.3-5.1-2.7-7.8c-.9-5.9 4.7-10.9 4.7-10.9l7 .4s4.2 6.5 4.2 10.7c0 3.8-3.1 8.8-3.1 8.8s-2.2 2.5-4.1 2.5" data-paper-data="{&quot;origPos&quot;:null}"/></g><path fill="#f2c11f" d="m5.3 248.28 6.4-53.8 5.4-60.1 61.4 1.7 8.6 56.5 3.1 53.5z"/><path fill="#f2c11f" d="m17.2 141.68-.1-77.4s14.2-8.1 29.3-8.3c15.2-.2 30.3 7.6 30.3 7.6l1.9 78.6s-17.9 4.6-31.4 4.5c-13.8-.1-30-5-30-5"/><g fill="#a2723c"><path d="M34.4 35.08c.8 2.4.3 4.7-1 5.1-1.4.5-3.2-1-4-3.4s-.3-4.7 1-5.1c1.4-.5 3.2 1.1 4 3.4M39 46.18l15.2 3.4-.1 9.1s4.9.9 4.8 3.7c-.1 4.5-18.9 6.9-22.8 0-1.5-3.4 2-4.6 2-4.6z" data-paper-data="{&quot;origPos&quot;:null}"/><path d="M65.9 32.88c0 12.8-7.9 19.6-14.7 19.9-11.8.2-19.4-9.5-19.4-22.3S34 8.08 49 7.38c11.4-.6 18.898 11.5 16.898 25.2z" data-paper-data="{&quot;origPos&quot;:null}"/></g><path fill="none" stroke="#000" stroke-linecap="round" stroke-width="1.46" d="M52.9 46.48c-3.3.8-5.8-1.2-5.8-1.2M54.1 39.08s-1.2.7-2.3.7c-1.3 0-2.5-.5-2.5-.5M55.6 26.28s2.3-.8 4-.8c1.5.1 3.2.5 3.2.5M55.6 30.38s.5-1.3 2.9-1.5c2.3-.2 4.5.7 4.5.7"/><path d="M60.5 33.38c-1.2 0-2.1-1-2.1-2.2s.9-2.2 2.1-2.2 2.1 1 2.1 2.2-.9 2.2-2.1 2.2"/><path fill="none" stroke="#000" stroke-linecap="round" stroke-width="1.46" d="M40.2 26.38s2.9-.8 4.4-.8c1.7-.1 3.7.8 3.7.8M40.1 30.68s2.2-1.9 4.5-1.7c2.5.2 2.9 1.5 2.9 1.5"/><path d="M43.4 31.48c0-1.2.9-2.2 2.1-2.2s2.1 1 2.1 2.2-.9 2.2-2.1 2.2c-1.1 0-2.1-1-2.1-2.2"/><g data-paper-data="{&quot;origPos&quot;:null}"><path fill="#a2723c" d="M7.8 117.18c-2.9-.3-7.6-2.4-7.6-2.4s5.6-50.7 22.6-49.9c13.4.1-7.5 51.3-7.5 51.3s-4.6 1.3-7.5 1"/><path fill="#f29f1f" d="M4.4 79.78s8.4-17.7 16.8-16.7c19.8 2.4 5.4 28.7 5.4 28.7z"/></g><g fill="#a2723c" data-paper-data="{&quot;origPos&quot;:null}"><path d="M3.1 141.78 0 113.88s4.7-1 7.5-1.4c3.8-.5 8.1 3.6 8.1 3.6l-3.2 27.7z"/><path d="M6.3 160.28s-4.2-4.6-4.9-8.5c-.8-4.1 2.5-11 2.5-11l7.4-1s6.9 4.5 7 10.4c.1 2.6-1.4 8-1.4 8s-2.5 1.9-3.2 1.2c-.7-.8-.1-6.4-1.4-6-1.8.5.8 8.9-1.1 9-2 .2-4.9-2.1-4.9-2.1"/></g><path fill="none" stroke="#e6b55b" stroke-width="1.46" d="M33.9 44.08c0 2.1-.7 3.8-1.6 3.8s-1.6-1.7-1.6-3.8.7-3.8 1.6-3.8c.8 0 1.6 1.7 1.6 3.8z" data-paper-data="{&quot;origPos&quot;:null}"/><path fill="#a7a7a7" d="M38 5.88c2.3-1.1-.2-2.2 2.3-2.9 1.1-.3 3 1.3 3.9.9 1.4-.7 1.2-1.4 2.8-1.6 1-.1 2.6 1.3 3.6 1.3 1.3 0 1.8-1.3 3.1-1.1 2.6.4 2.3 2.4 3.4 4.8.7 1.5-2.9 1.9-3.9 3.2-1.5 2 .4 3.5-1.8 4.6-1.3.7-2.9-1.2-3.9-.1-1.6 1.9 1 2.6-2 4.7-1.8 1.3-2.5.1-4.4 1.2-3.1 1.7 1.6 3.1-2.7 5.2-1.8.9-4 .2-5.5 1.5-1.1.9 0 3.3-.7 4.5-.4.7-1.9-.5-2.5.1-1.6 1.6-3.1-.4-4-2.4-2.2-4.7.9-3 .3-4.5s-3-1.6-2.8-3.2c.1-.9 2.4-1.6 2.4-2.5 0-1.7-1.9-2.2-1.2-3.8.3-.7 3.7-1.3 4-2.1.7-1.7-.9-2.7.2-4.2.6-.8 2.8.1 3.4-.7 1.4-1.7.4-2.2 2.3-3.5 3.2-2.1 1.4 1.6 3.7.6" data-paper-data="{&quot;origPos&quot;:null}"/></g></svg>