<svg xmlns="http://www.w3.org/2000/svg" width="153.05" height="225.958" viewBox="0 0 153.05 225.958"><defs><linearGradient id="a" x1="223.049" x2="223.049" y1="58.836" y2="128.875" gradientUnits="userSpaceOnUse"><stop offset="0" stop-color="#563408"/><stop offset="1" stop-color="#e5ba5e"/></linearGradient><linearGradient id="b" x1="223.053" x2="223.053" y1="65.041" y2="135.08" gradientUnits="userSpaceOnUse"><stop offset="0" stop-color="#563408"/><stop offset="1" stop-color="#e5ba5e"/></linearGradient><linearGradient id="c" x1="217.213" x2="217.213" y1="61.391" y2="131.43" gradientUnits="userSpaceOnUse"><stop offset="0" stop-color="#563408"/><stop offset="1" stop-color="#e5ba5e"/></linearGradient><linearGradient id="d" x1="219.182" x2="219.182" y1="52.203" y2="122.241" gradientUnits="userSpaceOnUse"><stop offset="0" stop-color="#563408"/><stop offset="1" stop-color="#e5ba5e"/></linearGradient><linearGradient id="e" x1="228.889" x2="228.889" y1="55.186" y2="125.225" gradientUnits="userSpaceOnUse"><stop offset="0" stop-color="#563408"/><stop offset="1" stop-color="#e5ba5e"/></linearGradient><linearGradient id="f" x1="228.893" x2="228.893" y1="61.391" y2="131.43" gradientUnits="userSpaceOnUse"><stop offset="0" stop-color="#563408"/><stop offset="1" stop-color="#e5ba5e"/></linearGradient><linearGradient id="g" x1="228.903" x2="228.903" y1="69.056" y2="139.095" gradientUnits="userSpaceOnUse"><stop offset="0" stop-color="#563408"/><stop offset="1" stop-color="#e5ba5e"/></linearGradient><linearGradient id="h" x1="236.635" x2="236.635" y1="51.536" y2="121.575" gradientUnits="userSpaceOnUse"><stop offset="0" stop-color="#563408"/><stop offset="1" stop-color="#e5ba5e"/></linearGradient><linearGradient id="i" x1="236.631" x2="236.631" y1="57.741" y2="127.78" gradientUnits="userSpaceOnUse"><stop offset="0" stop-color="#563408"/><stop offset="1" stop-color="#e5ba5e"/></linearGradient><linearGradient id="j" x1="244.194" x2="244.194" y1="65.727" y2="135.766" gradientUnits="userSpaceOnUse"><stop offset="0" stop-color="#563408"/><stop offset="1" stop-color="#e5ba5e"/></linearGradient><linearGradient id="k" x1="244.204" x2="244.204" y1="58.062" y2="128.101" gradientUnits="userSpaceOnUse"><stop offset="0" stop-color="#563408"/><stop offset="1" stop-color="#e5ba5e"/></linearGradient><linearGradient id="l" x1="236.621" x2="236.621" y1="65.406" y2="135.445" gradientUnits="userSpaceOnUse"><stop offset="0" stop-color="#563408"/><stop offset="1" stop-color="#e5ba5e"/></linearGradient><linearGradient id="n" x1="243.843" x2="243.843" y1="51.857" y2="121.896" gradientUnits="userSpaceOnUse"><stop offset="0" stop-color="#5c3300"/><stop offset="1" stop-color="#e6bb5f"/></linearGradient><linearGradient id="o" x1="242.459" x2="242.459" y1="50.5" y2="120.539" gradientUnits="userSpaceOnUse"><stop offset="0" stop-color="#5c3300"/><stop offset="1" stop-color="#e6bb5f"/></linearGradient><linearGradient id="p" x1="242.386" x2="242.386" y1="56.705" y2="126.744" gradientUnits="userSpaceOnUse"><stop offset="0" stop-color="#5c3300"/><stop offset="1" stop-color="#e6bb5f"/></linearGradient><linearGradient id="q" x1="243.302" x2="243.302" y1="64.025" y2="134.064" gradientUnits="userSpaceOnUse"><stop offset="0" stop-color="#5c3300"/><stop offset="1" stop-color="#e6bb5f"/></linearGradient><linearGradient id="r" x1="221.373" x2="221.373" y1="49.243" y2="119.282" gradientUnits="userSpaceOnUse"><stop offset="0" stop-color="#492800"/><stop offset="1" stop-color="#e6bb5f"/></linearGradient><linearGradient id="s" x1="222.926" x2="222.926" y1="54.758" y2="124.796" gradientUnits="userSpaceOnUse"><stop offset="0" stop-color="#492800"/><stop offset="1" stop-color="#e6bb5f"/></linearGradient><linearGradient id="t" x1="225.687" x2="225.687" y1="60.869" y2="130.907" gradientUnits="userSpaceOnUse"><stop offset="0" stop-color="#492800"/><stop offset="1" stop-color="#e6bb5f"/></linearGradient></defs><g stroke-miterlimit="10" data-paper-data="{&quot;isPaintingLayer&quot;:true}" style="mix-blend-mode:normal"><g data-paper-data="{&quot;origPos&quot;:null}"><path fill="url(#a)" d="M233.7 69.95c.8 1.8-15.9 1.3-15.9 28s-1.3 31.6-3.6 30.8c-3.5-1.1-.4-3.8-.4-30.5-.1-17.6 11.5-36.7 19.9-28.3" transform="translate(-174.275 -59.33)"/><path fill="url(#b)" d="M231.8 73.05c.8 1.8-12.3 4.4-12.3 31.1s-1.3 31.6-3.6 30.8c-3.5-1.1-.4-3.8-.4-30.5 0-17.6 8-39.8 16.3-31.4" transform="translate(-174.275 -59.33)"/><path fill="url(#c)" d="M226 69.45c.8 1.8-12.3 4.4-12.3 31.1s-1.3 31.6-3.6 30.8c-3.5-1.1-.4-3.8-.4-30.5 0-17.7 8-39.8 16.3-31.4" transform="translate(-174.275 -59.33)"/><path fill="url(#d)" d="M213 91.35c0 26.7 6.9 27.2 4.6 26.5-3.5 1-5.5-.1-8-26.7-1.7-18.4 5.9-31.8 19.3-27.8.8 1.8-15.9 1.3-15.9 28" transform="translate(-174.275 -59.33)"/><path fill="url(#e)" d="M239.5 66.35c.8 1.8-15.9 1.3-15.9 28s-1.3 31.6-3.6 30.8c-3.5-1.1-.4-3.8-.4-30.5-.1-17.7 11.6-36.7 19.9-28.3" transform="translate(-174.275 -59.33)"/><path fill="url(#f)" d="M237.7 69.45c.8 1.8-12.3 4.4-12.3 31.1s-1.3 31.6-3.7 30.8c-3.5-1.1-.4-3.8-.4-30.5.1-17.7 8-39.8 16.4-31.4" transform="translate(-174.275 -59.33)"/><path fill="url(#g)" d="M235.1 71.25c.8 1.8-7.2 10.2-7.2 36.9s-1.3 31.6-3.6 30.8c-3.5-1.1-.4-3.8-.4-30.5 0-17.6 6.5-47.8 11.2-37.2" transform="translate(-174.275 -59.33)"/><path fill="url(#h)" d="M226 62.65c8.3-8.4 20 10.7 20 28.3 0 26.7 3.1 29.4-.4 30.5-2.3.7-3.6-4.1-3.6-30.8s-16.8-26.2-16-28" transform="translate(-174.275 -59.33)"/><path fill="url(#i)" d="M227.8 65.75c8.3-8.4 16.3 13.8 16.3 31.5 0 26.7 3.1 29.4-.4 30.5-2.3.7-3.6-4.1-3.6-30.8s-13-29.4-12.3-31.2" transform="translate(-174.275 -59.33)"/><path fill="url(#j)" d="M238 67.95c4.7-10.6 11.2 19.6 11.2 37.3 0 26.7 3.1 29.4-.4 30.5-2.3.7-3.7-4.1-3.7-30.8s-7.9-35.3-7.1-37" transform="translate(-174.275 -59.33)"/><path fill="url(#k)" d="M235.4 66.15c8.3-8.4 16.3 13.8 16.3 31.5 0 26.7 3.1 29.4-.4 30.5-2.3.7-3.6-4.1-3.6-30.8s-13.1-29.5-12.3-31.2" transform="translate(-174.275 -59.33)"/><path fill="url(#l)" d="M230.4 67.65c4.7-10.6 11.2 19.6 11.2 37.3 0 26.7 3.1 29.4-.4 30.5-2.3.7-3.7-4.1-3.7-30.8s-7.9-35.3-7.1-37" transform="translate(-174.275 -59.33)"/></g><g fill="none" stroke-width="5.475" data-paper-data="{&quot;origPos&quot;:null}"><path stroke="#23262b" d="M51.425 173.82c0-27.3 16.5-49.4 36.8-49.4s36.8 22.1 36.8 49.4-16.5 49.4-36.8 49.4-36.8-22.1-36.8-49.4z"/><path stroke="#6c7585" d="M54.825 173.82c0-24.8 14.9-44.8 33.4-44.8s33.4 20.1 33.4 44.8c0 24.8-14.9 44.8-33.4 44.8s-33.4-20.1-33.4-44.8z"/></g><g fill="none" data-paper-data="{&quot;origPos&quot;:null}"><g data-paper-data="{&quot;origPos&quot;:null}"><path stroke="#23262b" stroke-width="5.475" d="M118.992 213.72c0-5.2 3.6-9.5 8-9.5s8 4.2 8 9.5-3.6 9.5-8 9.5-8-4.3-8-9.5z"/><path stroke="#6c7585" stroke-width="4.745" d="M121.892 213.72c0-3.3 2.3-6 5-6s5 2.7 5 6-2.3 6-5 6-5-2.7-5-6z"/></g><path stroke="#000" stroke-width="3.65" d="M86.125 217.02v-66.4h38.7v66.4z" data-paper-data="{&quot;origPos&quot;:null}"/><g data-paper-data="{&quot;origPos&quot;:null}"><path stroke="#23262b" stroke-width="5.475" d="M78.958 213.72c0-5.2 3.6-9.5 8-9.5s8 4.2 8 9.5-3.6 9.5-8 9.5-8-4.3-8-9.5z"/><path stroke="#6c7585" stroke-width="4.745" d="M81.858 213.72c0-3.3 2.3-6 5-6 2.8 0 5 2.7 5 6s-2.3 6-5 6-5-2.7-5-6z"/></g></g><g fill="none" stroke="#000" stroke-linecap="round" stroke-width="3.65" data-paper-data="{&quot;origPos&quot;:null}"><path d="m151.225 212.62-26.3-.2-27-53.3M122.025 212.62l-26.3-.2-27-53.3" data-paper-data="{&quot;origPos&quot;:null}"/></g><g data-paper-data="{&quot;origPos&quot;:null}"><path fill="none" stroke="#000" stroke-linecap="round" stroke-width="3.65" d="M125.025 117.32h-58.4"/><path fill="#282c2c" d="M74.825 158.22v-27.7h42.4v27.7z"/><path fill="none" stroke="#000" stroke-width="3.65" d="M74.825 159.72v-41.8h43.1v41.8z"/></g><path fill="none" stroke="#000" stroke-width="3.65" d="M23.425 189.72v-50.9h75.6v50.9z" data-paper-data="{&quot;origPos&quot;:null}"/><g data-paper-data="{&quot;origPos&quot;:null}"><path fill="#4d535e" stroke="#000" stroke-width="3.65" d="M23.425 160.82v-21.9h101.8v21.9z" data-paper-data="{&quot;origPos&quot;:null}"/><g data-paper-data="{&quot;origPos&quot;:null}"><path fill="#4d535e" d="M23.025 137.07v-35.75h42.7v35.75z" data-paper-data="{&quot;origPos&quot;:null}"/><path fill="none" stroke="#000" stroke-linecap="round" stroke-width="3.65" d="M45.325 93.62s12.4-8.8 16.8.6c5.6 11.7 4.7 45 4.7 45M1.825 93.62s12.4-8.8 16.8.6c5.6 11.7 4.7 45 4.7 45" data-paper-data="{&quot;origPos&quot;:null}"/></g></g><g data-paper-data="{&quot;origPos&quot;:null}"><path fill="#72471e" d="m104.425 122.22-4.7 5.1-18.6-21s.3-4.9 3-5.9c2-.8 5.6-1.7 5.6-1.7z"/><path fill="#764a21" d="M113.825 141.42c-1.3.8-5.2-7.1-6.7-6.7-1.1.3 3 4.5 3.1 5.5.1.9-2.8.6-2.8.6s-4.5-3.5-6.2-5.6c-3.8-4.8-2.4-11.7-2.4-11.7l5.4-2.8s6.6 3.8 8.9 7.5c2.1 3.4 2.5 9.2 2.5 9.2s-.4 3.1-1.8 4"/></g><path fill="#a6bac7" d="m121.825 201.62-9.1-51.6s-28.3 7.9-41.1 1.7c-13.5-6.6-16.3-22.7-16.3-22.7h25.6l48.1 8.2 7.1 64.5h-14.3z" data-paper-data="{&quot;origPos&quot;:null}"/><path fill="#d6d6d6" d="m123.425 210.92.7-9.7 12.6.6 8.1 2.3 6.3 6.8z" data-paper-data="{&quot;origPos&quot;:null}"/><g data-paper-data="{&quot;origPos&quot;:null}"><path fill="#72471e" d="M87.725 107.92c-2.5.4-6.8-1.3-6.8-1.3s-6.4-46.9-.9-48.6c10-3.4 11.8 46.6 11.8 46.6s-1.6 2.9-4.1 3.3"/><path fill="#c09898" d="M76.225 90.82s-7.2-34.1 2-36.3c8.1-2 17.2 30.2 17.2 30.2z"/></g><path fill="#a6bac7" d="m94.525 201.52-5.1-48.7s-37.1 4.6-44.5.6c-19-10.1-13.2-24.5-13.2-24.5h26.2l50.8 13.5v58.9z" data-paper-data="{&quot;origPos&quot;:null}"/><path fill="#d6d6d6" d="m95.825 211.42.2-10.2 12.6.6 8.1 2.3 6.3 6.8z" data-paper-data="{&quot;origPos&quot;:null}"/><path fill="#d0a5a5" d="m29.125 132.02 2.7-76.9s11.3-5 23.8-5.2 25.8 3.6 25.8 3.6l-3.2 77.5z" data-paper-data="{&quot;origPos&quot;:null}"/><g data-paper-data="{&quot;origPos&quot;:null}"><g data-paper-data="{&quot;origPos&quot;:null}"><path fill="none" stroke="#000" stroke-linecap="round" stroke-width="3.65" d="M15.525 117.32h58.4"/><path fill="#282c2c" d="M23.725 158.22v-27.7h42.3v27.7z"/><path fill="none" stroke="#000" stroke-width="3.65" d="M23.725 159.72v-41.8h43.1v41.8z"/></g><g fill="none" stroke-width="5.475" data-paper-data="{&quot;origPos&quot;:null}"><path stroke="#23262b" d="M5.525 173.82c0-27.3 16.5-49.4 36.8-49.4s36.8 22.1 36.8 49.4-16.5 49.4-36.8 49.4-36.8-22.1-36.8-49.4z"/><path stroke="#6c7585" d="M8.525 174.32c0-24.8 14.9-44.8 33.4-44.8s33.4 20.1 33.4 44.8-15 44.8-33.4 44.8-33.4-20.1-33.4-44.8z"/></g></g><g data-paper-data="{&quot;origPos&quot;:null}"><path fill="#764a21" d="M11.125 106.02c-2.1-.7-5-3.4-5-3.4s17.2-49.2 29.5-46.2c9.7 1.9-18.8 49.6-18.8 49.6s-3.6.7-5.7 0"/><path fill="#c09898" d="M11.625 79.62s17.3-26.3 23.1-24.2c13.8 5-5.9 37-5.9 37z"/></g><g fill="#764a21" data-paper-data="{&quot;origPos&quot;:null}"><path d="m48.725 40.12 15.2 3.4-.1 9.1s4.9.9 4.8 3.7c-.1 4.5-18.9 6.9-22.8 0-1.5-3.4 2-4.6 2-4.6zM44.125 29.02c.8 2.4.3 4.7-1 5.1-1.4.5-3.2-1-4-3.4s-.3-4.7 1-5.1c1.4-.5 3.2 1.1 4 3.4" data-paper-data="{&quot;origPos&quot;:null}"/><path d="M75.625 26.82c0 12.8-7.9 19.6-14.7 19.9-11.8.2-19.4-9.5-19.4-22.3s2.2-22.4 17.2-23.1c11.4-.6 18.883 11.5 16.883 25.2z" data-paper-data="{&quot;origPos&quot;:null}"/></g><path fill="#38220f" d="M67.925 9.92c-2.5-.5-15-.1-17.3 1-5.7 2.9-7.1 15.9-7.1 15.9l-2.6-.8s-3.5-24.9 17.9-24.7c11.4-.6 16.3 10.2 16.8 16.7 0-.1.4-6.5-7.7-8.1" data-paper-data="{&quot;origPos&quot;:null}"/><path d="M64.025 39.52c0 .7-2 2.2-3.7 2.2-1.8 0-3.5-1.9-3.5-2.7 0-.7 2.2 0 4 0 1.7.1 3.2-.2 3.2.5"/><path fill="none" stroke="#000" stroke-linecap="round" stroke-width="1.46" d="M63.225 32.62s-.7.7-2.2.6c-.7-.1-1.6-.6-1.6-.6"/><g data-paper-data="{&quot;origPos&quot;:null}"><path fill="none" stroke="#000" stroke-linecap="round" stroke-width="1.46" d="M49.925 20.32s2.9-.8 4.4-.8c1.7-.1 3.7.8 3.7.8M49.825 24.62s2.2-1.9 4.5-1.7c2.5.2 2.9 1.5 2.9 1.5"/><path d="M53.125 25.42c0-1.2.9-2.2 2.1-2.2s2.1 1 2.1 2.2-.9 2.2-2.1 2.2c-1.1 0-2.1-1-2.1-2.2"/></g><g data-paper-data="{&quot;origPos&quot;:null}"><path fill="none" stroke="#000" stroke-linecap="round" stroke-width="1.46" d="M65.325 20.22s2.3-.8 4-.8c1.5.1 3.2.5 3.2.5M65.325 24.32s.5-1.3 2.9-1.5c2.3-.2 4.5 1.7 4.5 1.7"/><path d="M70.025 27.32c-1.2 0-2.1-1-2.1-2.2s.9-2.2 2.1-2.2 2.1 1 2.1 2.2-1 2.2-2.1 2.2"/></g><g data-paper-data="{&quot;origPos&quot;:null}"><g data-paper-data="{&quot;origPos&quot;:null}"><path fill="url(#n)" d="M233.2 63.05c8.3-8.4 20 10.7 20 28.3 0 26.7 3.1 29.4-.4 30.5-2.3.7-3.6-4.1-3.6-30.8s-16.7-26.3-16-28" transform="translate(-174.275 -59.33)"/><path fill="url(#o)" d="M231.2 61.65c8.3-8.4 22.6 7.4 22.6 25.1 0 26.7.6 32.7-3 33.8-2.3.7-1.2-5.3-1.2-32.1s-19.2-25.1-18.4-26.8" data-paper-data="{&quot;origPos&quot;:null}" transform="translate(-174.275 -59.33)"/><path fill="url(#p)" d="M233 64.75c8.3-8.4 18.7 9.4 18.7 27.1 0 26.7.7 33.7-2.8 34.8-2.3.7-.2-6.7-.2-33.4s-16.5-26.7-15.7-28.5" transform="translate(-174.275 -59.33)"/><path fill="url(#q)" d="M234.9 66.25c4.7-10.6 16.9 11.1 16.9 28.8 0 26.7-5.7 35.9-8.4 31.5-1.6-2.6 4.6-5 4.6-31.7s-13.9-26.9-13.1-28.6" transform="translate(-174.275 -59.33)"/></g><g data-paper-data="{&quot;origPos&quot;:null}"><path fill="url(#r)" d="M216 88.35c0 26.7-1.3 31.6-3.6 30.8-3.5-1.1-.4-3.8-.4-30.5 0-17.7 6.6-32.3 20-28.3.8 1.8-16 1.3-16 28" transform="translate(-174.275 -59.33)"/><path fill="url(#s)" d="M216.8 93.85c0 26.7-1.3 31.6-3.6 30.8-3.5-1.1-.4-3.8-.4-30.5 0-17.7 13.1-39.2 21.5-30.8.8 1.9-17.5 3.8-17.5 30.5" transform="translate(-174.275 -59.33)"/><path fill="url(#t)" d="M219.4 99.95c1.6 26.7-1.3 31.6-3.6 30.8-3.5-1.1-.4-3.8-.4-30.5 0-17.7 2.7-40 21.9-35.3 1.4 8-20.3-4.6-17.9 35" transform="translate(-174.275 -59.33)"/></g></g><g fill="#764a21" data-paper-data="{&quot;origPos&quot;:null,&quot;origRot&quot;:0}"><path d="M26.785 121.755 6.313 102.989s1.766-3.214 2.96-5.056c1.62-2.32 6.594-1.667 6.594-1.667l17.004 21.994z" data-paper-data="{&quot;origPos&quot;:null}"/><path d="M41.575 134.123s-5.746-1.194-8.925-3.659c-3.369-2.675-6.318-9.634-6.318-9.634l3.555-4.925s7.231-.433 11.517 3.89c1.9 2 4.862 6.756 4.862 6.756s-.042 2.802-1.036 2.651c-.888-.245-4.565-4.738-5.115-3.765-.67 1.368 6.79 6.254 5.731 7.401-.97 1.353-4.27 1.285-4.27 1.285" data-paper-data="{&quot;origPos&quot;:null}"/></g></g></svg>