<svg xmlns="http://www.w3.org/2000/svg" xml:space="preserve" width="50.519" height="52.419" viewBox="-0.519 -0.419 50.519 52.419"><path fill="#f7941e" d="M48.9 45.5c-.7 0-1.3-.1-2-.2s-1-.5-1.1-1.2c0-1-.1-2-.1-3.1 0-1.4-.1-2.9-.1-4.3 0-5.4-.1-10.8-.1-16.2 0-3.8.1-7.6.2-11.5 0-1.4.1-2.8.2-4.2 0-.6.2-1.2.9-1.4s1.3-.6 2-.7c.6-.1.7-.4.7-.9V1q0-1.05-.9-.9c-1.7 0-3.4 0-5.1.1-1.2 0-2.4.1-3.5.1-.9 0-1.7-.1-2.6 0-.8 0-1.5.1-2.2.4-.6.3-1.1.8-1.5 1.4-.9 1-2 1.9-1.8 3.6.1.6.3.9.9 1h.8c1.3 0 2.1.8 2.1 2.1-.1 2.3-.2 4.6-.2 6.9v7.4H14.6c0-2.3.1-4.6 0-6.9-.2-3.6-.7-7.3-.1-10.9.2-1.5.4-1.7 1.8-2 .2 0 .4 0 .5-.1 1.6-.2 1.6-.2 1.8-1.7.1-1.1 0-1.2-1.1-1.2-1.6.1-3.2.2-4.7.2-2.5 0-4.9 0-7.3-.2C4.1.2 3.1.7 2.4 1.8c-.5.8-1 1.6-1.6 2.2S.1 5.3 0 6.1c-.1.7.2 1 .9 1 1 0 2 .1 3 .1.6 0 .8.2.8.8 0 1-.1 1.9-.1 2.9.1 4.6.2 9.2.2 13.8v14.9c0 .8-.1 1.5-.2 2.3-.1 1.2-.1 2.4-.2 3.6 0 .1-.2.3-.3.4-1.1.9-2.2 1.8-3.3 2.8-.4.3-.5 2.2-.1 2.5.2.1.4.2.6.2.8 0 1.7-.2 2.5-.2l10.8.3c1 0 1.6-.2 1.9-1.2.1-.4.4-.7.7-1 .9-.8 1-1.8 1.2-2.9.1-.6-.2-.9-.8-.9-.7-.1-1.4-.1-2-.2-.5-.1-.8-.3-.8-1v-2.8c-.1-3.1-.1-6.1-.2-9.2v-.7h20.9v4c0 1.3-.1 2.6-.1 3.9 0 2 .2 3.9.2 5.9 0 .2-.1.5-.3.7-.6.5-1.3 1.1-1.9 1.6-.9.7-1.3 1.6-1 2.8.1.5.3.6.8.6h9.5c1.6 0 3.2.1 4.7.2.6 0 .9-.2 1.2-.8.8-1.4.8-3 .8-4.5.1-.3-.1-.5-.5-.5m-.2 2.2H36.9c-.5 0-1.1 0-.9-.8.1-.3.4-.5.7-.6.6-.2 1.2-.2 1.8-.4.7-.2 1.1-.6 1.1-1.4.1-3 .3-5.9.3-8.9 0-2.7-.2-5.5-.2-8.2 0-.7-.3-.9-1-.9-5.7.1-11.4.3-17.1.4-2.3 0-4.6.1-6.9.1-.2 0-.5-.1-.7-.1 0 .8-.1 1.7-.1 2.5.1 5 .1 10.1.2 15.2 0 .8.4 1.1 1.1 1.2.8.2 1.6.3 2.6.4-.1.5-.1 1-.2 1.4H5.1v-1.3l1.8-.3c1.2-.3 1.7-.9 1.7-2.2v-5.4c0-5.4-.2-10.7-.1-16.1 0-3.8.3-7.7.4-11.5V4.7c0-1-.8-2-2-2.3-.6-.1-1.2-.1-1.9-.1 0-.5 0-.9-.1-1.5 4.4.5 8.7.2 13 0 0 .1.1.1.1.2-.1 1.4-.1 1.4-1.5 1.6-.2 0-.5.1-.7.1-1.5.3-1.9.8-1.9 2.4 0 .9-.3 1.9-.3 2.8 0 2.3.1 4.6.2 6.8.1 2.8.1 5.5.2 8.3 0 .5.3.5.7.5H31c2.6 0 5.1.1 7.7.2 1.1 0 1.2-.1 1.2-1.2-.1-2.5-.4-5-.4-7.6 0-1.7.3-3.4.4-5.1.1-1 0-2.1-.1-3.1 0-.8-.1-1.6-.1-2.4s-.3-1.3-.9-1.4c-.9-.2-1.8-.4-2.8-.6V.8h12.9c.2.6.2 1.1-.7 1.3-.6.1-1.1.4-1.7.7-.7.3-1 .9-1.1 1.6-.4 2.5-.4 5-.3 7.5.1 2.3-.2 4.5-.2 6.8 0 6 0 11.9.1 17.8 0 2.5.1 4.9.2 7.4.1 1.3.5 1.7 1.8 1.9.2 0 .4.1.6.1 1.4.2 1.5.4 1.1 1.8"/><path fill="#fff" d="M47.5 45.9c-.2 0-.4-.1-.6-.1-1.3-.1-1.7-.5-1.8-1.9-.1-2.5-.2-4.9-.2-7.4-.1-5.9-.1-11.9-.1-17.8 0-2.3.3-4.5.2-6.8-.1-2.5-.1-5 .3-7.5.1-.7.4-1.3 1.1-1.6.6-.2 1.1-.5 1.7-.7.8-.2.9-.6.7-1.3H36c0 .7 0 1.2.1 1.5 1 .2 1.9.3 2.8.6.7.2 1 .7.9 1.4 0 .8.1 1.6.1 2.4 0 1 .1 2 .1 3.1-.1 1.7-.4 3.4-.4 5.1 0 2.5.2 5 .4 7.6 0 1.1-.1 1.2-1.2 1.2-2.6 0-5.2-.1-7.7-.2H14.8c-.4 0-.7 0-.7-.5 0-2.8-.1-5.5-.2-8.3-.1-2.3-.2-4.6-.2-6.8 0-.9.3-1.9.3-2.8 0-1.6.3-2.1 1.9-2.4.2 0 .5-.1.7-.1C18 2.4 18 2.4 18.1 1c0 0 0-.1-.1-.2-4.3.2-8.6.5-13 0v1.5c.7 0 1.3 0 2 .2 1.1.3 2 1.3 2 2.3v3.7c0 .8.1 1.6 0 2.4-.1 3.8-.4 7.7-.4 11.5 0 5.4.1 10.7.1 16.1v5.4c0 1.3-.5 1.9-1.7 2.2l-1.8.3v1.3h12.5c.1-.4.1-.9.2-1.4-.9-.2-1.7-.3-2.6-.4-.6-.1-1.1-.4-1.1-1.2 0-5-.1-10.1-.2-15.2 0-.8.1-1.7.1-2.5.3 0 .5.1.7.1 2.3 0 4.6 0 6.9-.1 5.7-.1 11.4-.2 17.1-.4.7 0 .9.2 1 .9 0 2.7.2 5.5.2 8.2 0 3-.2 5.9-.3 8.9 0 .8-.4 1.2-1.1 1.4-.6.2-1.2.2-1.8.4-.3.1-.7.4-.7.6-.2.8.4.8.9.8h11.8c.3-1.5.2-1.7-1.3-1.9m-37-32.7c0-1.6.1-3.3.1-4.9 0-.1 0-.3.1-.4h.3c.1.7.3 1.5.3 2.2 0 3.9-.1 7.7-.2 11.6 0 .2-.2.4-.4.6-.1-.2-.3-.4-.3-.6 0-2.9.1-5.7.1-8.5m.4 10.7c.3 0 .5.4.8.6-.2.2-.5.6-.8.7-.1.1-.5-.3-.9-.6.5-.4.7-.8.9-.7m.7 14.2c0 1.3-.3 2.7-.4 4 0 .1-.1.2-.2.5-.1-.3-.2-.5-.2-.6 0-4.1.1-8.2.1-12.4 0-.8.1-1.7.2-2.5 0-.2.3-.3.4-.5.1.2.3.3.3.5 0 3.7-.1 7.4-.2 11M41.7 5h.3c0 .3.1.6.1 1 .1 2.6.1 5.1.2 7.7 0 2.4.1 4.8.2 7.3v.5c-.1.2-.2.3-.4.5-.1-.2-.3-.3-.3-.5-.1-1.4-.1-2.8-.1-4.3-.1-3.2-.1-6.5-.1-9.7-.1-.9.1-1.7.1-2.5m-.5 20.1c0-.2.3-.4.6-.8.3.5.6.7.7 1 0 .1-.4.5-.6.5-.5.1-.8-.2-.7-.7m1.2 18.3c0 .3-.1.5-.1.8H42c-.1-.9-.4-1.9-.4-2.8 0-2.3.2-4.6.2-6.9 0-1.9-.1-3.7-.1-5.6 0-.2.2-.4.3-.6.1.2.4.4.4.6.1 2.2.2 4.4.1 6.6 0 2.6-.1 5.3-.1 7.9"/><path fill="#f7941e" d="M42.4 21.4c-.1.2-.2.3-.4.5-.1-.2-.3-.3-.3-.5-.1-1.4-.1-2.8-.1-4.3-.1-3.2-.1-6.5-.1-9.7 0-.8.2-1.6.2-2.4h.3c0 .3.1.6.1 1 .1 2.6.1 5.1.2 7.7 0 2.4.1 4.8.2 7.3-.1.1 0 .3-.1.4M42.6 35.5c0 2.7-.1 5.3-.2 8 0 .3-.1.5-.1.8H42c-.1-.9-.4-1.9-.4-2.8 0-2.3.2-4.6.2-6.9 0-1.9-.1-3.7-.1-5.6 0-.2.2-.4.3-.6.1.2.4.4.4.6.1 2.1.2 4.3.2 6.5M11.8 27.2c0 3.6-.1 7.3-.2 11 0 1.3-.3 2.7-.4 4 0 .1-.1.2-.2.5-.1-.3-.2-.5-.2-.6 0-4.1.1-8.2.1-12.4 0-.8.1-1.7.2-2.5 0-.2.3-.3.4-.5.1.1.3.3.3.5M11.2 10c0 3.9-.1 7.7-.2 11.6 0 .2-.2.4-.4.6-.1-.2-.3-.4-.3-.6 0-2.8.1-5.6.2-8.4 0-1.6.1-3.3.1-4.9 0-.1 0-.3.1-.4h.3c.1.7.2 1.4.2 2.1M11.7 24.5c-.2.2-.5.6-.8.7-.1.1-.5-.3-.9-.6.4-.4.7-.7.9-.7.3 0 .5.4.8.6M42.5 25.3c0 .1-.4.5-.6.5-.5.1-.8-.3-.7-.8 0-.2.3-.4.6-.8.4.5.7.8.7 1.1"/></svg>