<svg xmlns="http://www.w3.org/2000/svg" width="96.077" height="250.184" viewBox="0 0 96.077 250.184"><g stroke-miterlimit="10" data-paper-data="{&quot;isPaintingLayer&quot;:true}" style="mix-blend-mode:normal"><path d="M65.557 23.796c0 11.665-7.084 18.95-17.698 18.95-10.613 0-18.566-7.937-18.566-19.601 0-11.665 7.954-21.512 18.566-21.338 13.22.218 17.698 10.325 17.698 21.99" data-paper-data="{&quot;origPos&quot;:null}"/><g stroke-width="0" data-paper-data="{&quot;origPos&quot;:null}"><g data-paper-data="{&quot;origPos&quot;:null}"><path fill="#b5875c" d="M60.75 56.918c-4.467 8.466-19.772 8.834-26.044.464 2.597-.995 6.234-2.441 6.234-2.441l.603-8.45 12.29-.193.727 8.107s5.55 2.176 6.19 2.513" data-paper-data="{&quot;origPos&quot;:null}"/><path fill="#755135" d="m41.63 46.347 12.29-.193.656 8.018c-3.333.041-10.956-.29-13.393-2.354z" data-paper-data="{&quot;origPos&quot;:null}"/></g><path fill="#b5875c" d="M48.033 50.918c-9.948.086-14.822-8.077-16.461-16.73-2.536-.98-4.046-5.995-3.1-7.775 1.046-2.168 2.422-.324 2.386-.858-.263-7.942 2.556-19.734 18.388-19.9 12.925.543 15.054 13.84 14.952 19.633 0 0 1.19-1.038 2.428-.005 1.324 2.163-.894 7.254-3.14 8.136-1.137 9.23-5.148 17.532-15.453 17.499" data-paper-data="{&quot;origPos&quot;:null}"/></g><path fill="#3c64ce" d="M77.086 175.134c-.56 5.735-2.633 12.311-9.21 13.283s-11.492-3.293-13.638-10.53c-1.515-8.502-6.32-28.813-6.851-36.745-1.122-16.791-.853-34.03-.853-34.03s18.673-.48 18.816-.408c2.274 1.111 9.533 15.591 10.974 31.183 1.028 11.131 1.262 27.345.762 37.247" data-paper-data="{&quot;origPos&quot;:null,&quot;origRot&quot;:0,&quot;index&quot;:null}"/><path fill="#3c64ce" d="M20.014 138.092c1.229-15.61 8.347-30.193 10.626-31.337.144-.074 19.274.14 19.274.14s.264 17.232-.626 34.038c-.42 7.939-4.99 28.9-6.396 37.422-2.062 7.267-6.967 11.018-13.62 10.141-6.654-.877-8.841-7.423-9.489-13.15-.648-9.893-.647-26.109.23-37.254" data-paper-data="{&quot;origPos&quot;:null,&quot;origRot&quot;:0,&quot;index&quot;:null}"/><path fill="#ffd16d" d="M28.866 82.26c-1.902 4.718-5.71 14.738-7.101 18.65-1.95 6.451-13.904 6.66-11.472-6.244C12.714 84.1 15.159 67.034 24.799 58.62c3.652-3.189 4.133-2.349 7.463-2.804M64.144 55.544c3.212.448 4.177.184 7.708 3.364 9.318 8.393 11.725 25.452 14.09 36.014 2.382 12.897-9.45 12.137-11.35 5.69-1.351-3.908-4.103-13.637-5.951-18.35" data-paper-data="{&quot;origPos&quot;:null,&quot;origRot&quot;:0}"/><path fill="#ffd16d" d="M79.948 155.581s-15.503 7.472-31.747 7.63c-14.806-.267-31.378-6.951-31.378-6.951s5.45-43.212 7.454-53.068c-.173-9.29 4.94-47.232 4.94-47.232s6.815-1.092 9.825-1.134c2.34 6.89 15.006 7.167 17.883-.154 1.27.364 10.238 1.31 10.238 1.31l4.26 46.24z" data-paper-data="{&quot;origPos&quot;:null}"/><path fill="none" stroke="#000" stroke-linecap="round" stroke-width="2" d="M35.482 21.613c2.62-1.419 6.15-.926 8.164.574" data-paper-data="{&quot;origPos&quot;:null,&quot;origRot&quot;:0}"/><path fill="none" stroke="#000" stroke-linecap="round" stroke-width="2" d="M51.593 22.28c2.014-1.5 5.545-1.994 8.165-.575" data-paper-data="{&quot;origPos&quot;:null,&quot;origRot&quot;:0,&quot;index&quot;:null}"/><g data-paper-data="{&quot;origPos&quot;:null}"><path fill="#fff" d="M38.362 29.574c-2.36-.349-3.972-2.144-3.663-3.352s2.422-1.371 4.781-1.022 4.07 1.707 3.761 2.915c-.308 1.208-2.52 1.808-4.88 1.46" data-paper-data="{&quot;origPos&quot;:null,&quot;origRot&quot;:0}"/><path d="M38.004 27.81c-.115-1.66.874-2.392 2.416-2.355 3.113.529 4.056 3.381.96 4.093-1.709.388-3.263.19-3.376-1.738" data-paper-data="{&quot;origPos&quot;:null,&quot;origRot&quot;:0}"/><path fill="none" stroke="#000" stroke-linecap="round" stroke-width="1.5" d="M34.712 25.75c2.724-1.04 6.494-.375 8.383 1.051" data-paper-data="{&quot;origPos&quot;:null,&quot;origRot&quot;:0}"/></g><g data-paper-data="{&quot;origPos&quot;:null}"><path fill="#fff" d="M57.032 29.402c-2.326.497-4.54.005-4.947-1.1-.406-1.104 1.15-2.402 3.476-2.899s4.702-.376 5.108.729-1.312 2.773-3.637 3.27" data-paper-data="{&quot;origPos&quot;:null,&quot;origRot&quot;:0}"/><path d="M57.765 24.961c3.179-.112 3.968 1.936 1.58 3.558-1.322.891-2.823.937-3.528-.675-1.086-2.486.429-2.782 1.948-2.883" data-paper-data="{&quot;origPos&quot;:null,&quot;origRot&quot;:0}"/><path fill="none" stroke="#000" stroke-linecap="round" stroke-width="1.5" d="M51.885 27.018c2.126-1.815 6.035-2.175 8.383-1.45" data-paper-data="{&quot;origPos&quot;:null,&quot;origRot&quot;:0}"/></g><g fill="none" stroke="#866143" stroke-linecap="round" stroke-width="1.5" data-paper-data="{&quot;origPos&quot;:null}"><path d="M44.749 35.007s1.74-.426 2.104.46M48.954 35.502c.231-.869 1.718-.643 1.718-.643" data-paper-data="{&quot;origPos&quot;:null}"/></g><g fill="#3c64ce" stroke-width="0" data-paper-data="{&quot;origPos&quot;:null}"><path d="M53.966 89.59s1.064-7.681 1.188-12.597c.214-8.474-.319-21.712-.319-21.712l10.857-2.172 1.738 40.824s-4.27-2.82-7.281-3.792c-2.243-.723-6.183-.551-6.183-.551" data-paper-data="{&quot;origPos&quot;:null}"/><path d="M67.224 42.071c-3.717 10.058 2.378 7.858 3.629 14.953-4.54 5.648-15.423 10.963-21.812 10.84-13.91-.27-12.538-6.373-21.91-6.852-3.993-.203-8.019 3.522-7.825 2.574C23.05 51.988 29.444 53.25 29.43 48.95c-1.46-4.227-4.502-16.663-3.842-25.7.66-9.039 6.384-21.477 16.405-22.903C49.373-.703 57.38.38 62.78 7.048c7.5 9.276 7.618 26.744 4.443 35.023m-12.725-30.61c-8.146-5.452-12.906-2.739-16.26 1.15-6.502 7.546-4.357 19.02-2.64 28.837.93 5.281 5.373 8.252 9.69 9.242 2.311.528 8.002.165 11.369-3.004s5.373-8.107 5.941-17.263c0 0 2.211-12.062-8.1-18.961" data-paper-data="{&quot;origPos&quot;:null}"/></g><g fill="none" stroke="#f2c86c" stroke-width="1.5" data-paper-data="{&quot;origPos&quot;:null}"><path d="M33.752 30.701c-1.505-1.26-1.735-3.954-1.735-5.776 0-2.212 11.237-2.1 12.814-.538.689.682.731 4.34-.868 6.056-1.6 1.714-8.876 1.377-10.21.258z" data-paper-data="{&quot;origPos&quot;:null}"/><path d="M63.238 25.113c0 1.822-.23 4.516-1.735 5.776-1.335 1.12-8.922 1.093-10.41-.503-1.6-1.715-1.52-4.769-.892-5.922 1.011-1.854 13.037-1.563 13.037.65z" data-paper-data="{&quot;origPos&quot;:null,&quot;index&quot;:null}"/><path stroke-linecap="round" d="M45.193 24.645s1.486-.598 2.488-.564 2.211.725 2.211.725" data-paper-data="{&quot;origPos&quot;:null}"/></g><g data-paper-data="{&quot;origPos&quot;:null}"><g stroke-linecap="round" data-paper-data="{&quot;origPos&quot;:null,&quot;origRot&quot;:0,&quot;index&quot;:null}"><path fill="#fff" d="M39.36 239.195c2.945 2.2 11.99 1.17 7.998 6.524-2.728 3.66-7.51 2.93-12.162 2.285-3.93-.546-4.292-4.613-8.26-4.643-4.208-.032-8.195.57-10.593-2.159-.853-.97 3.012-10.325 3.012-10.325s4.243 2.039 6.455 2.093c2.735.068 7.045-1.281 7.045-1.281s3.56 5.306 6.505 7.506" data-paper-data="{&quot;origPos&quot;:null}"/><path fill="#a5a5a5" d="M17.764 244.563c-2.01-1.061-1.91-1.79-1.577-3.528 3.035 1.896 2.466 2.393 10.561 1.856 2.897.29 4.532 3.432 8.153 4.584 9.624 1.96 12.125-1.72 13.495-3.18-.032 1.127-.31 2.3-.813 2.974-2.728 3.659-7.374 3.083-12.025 2.437-6.622-1.576-5.176-4.376-9.144-4.406-4.209-.031-5.898.716-8.65-.737" data-paper-data="{&quot;origPos&quot;:null}"/><path fill="none" stroke="#000" stroke-width="1.5" d="m36.494 240.968 2.362-2.093M34.633 238.87l2.238-2.102M35.01 234.669l-2.354 1.97" data-paper-data="{&quot;origPos&quot;:null}"/></g><path fill="#3c64ce" d="M19.373 181c1.078-11.886 7.174-14.69 13.854-14.129s10.194 6.743 9.154 15.884c-.499 11.459-5.957 49.513-5.957 49.513s-6.088 2.522-9.714 2.192c-3.789-.344-9.223-3.051-9.224-3.052s.9-40.573 1.887-50.408" data-paper-data="{&quot;origPos&quot;:null,&quot;origRot&quot;:0,&quot;index&quot;:null}"/></g><g stroke-linecap="round" data-paper-data="{&quot;origPos&quot;:null,&quot;origRot&quot;:0}"><path fill="#fff" d="M82.241 238.864c3.016 2.102 12.022.775 8.208 6.257-2.606 3.747-7.409 3.175-12.08 2.683-3.945-.415-4.44-4.47-8.407-4.368-4.208.107-8.172.84-10.66-1.81-.883-.94 2.671-10.418 2.671-10.418s3.647 1.695 7.45 1.798c1.269.035 6.07-1.43 6.07-1.43s3.732 5.185 6.748 7.288" data-paper-data="{&quot;origPos&quot;:null,&quot;index&quot;:null}"/><path fill="#a5a5a5" d="M59.141 241.465c3.097 1.795 2.544 2.31 10.617 1.507 2.905.194 4.643 3.281 8.3 4.314 9.683 1.642 12.06-2.118 13.382-3.623.005 1.128-.234 2.31-.714 3-2.607 3.746-7.269 3.323-11.94 2.831-6.669-1.358-5.316-4.203-9.283-4.103-4.207.107-5.871.91-8.67-.452-2.042-.995-1.967-1.726-1.692-3.474" data-paper-data="{&quot;origPos&quot;:null,&quot;index&quot;:null}"/><path fill="none" stroke="#000" stroke-width="1.5" d="m79.435 240.73 2.292-2.17M79.674 236.52l-2.168 2.174M75.456 236.53l2.289-2.047" data-paper-data="{&quot;origPos&quot;:null,&quot;index&quot;:null}"/></g><path fill="#3c64ce" d="M78.684 230.79c-.002 0-5.854 3.747-9.69 4.013-3.672.255-8.621-2.368-8.621-2.368s-5.64-38.17-5.923-49.637c-.874-9.16 2.502-15.282 9.265-15.705s12.87 2.505 13.73 14.41c.807 9.854 1.239 49.287 1.239 49.287" data-paper-data="{&quot;origPos&quot;:null,&quot;origRot&quot;:0,&quot;index&quot;:null}"/><g data-paper-data="{&quot;origPos&quot;:null}"><path fill="#755135" d="M45.716 39.676a3.73 3.73 0 0 1 2.016.88 3.73 3.73 0 0 1 2.022-.88c1.05.15 2.07.446 3.026.88 0 0-.173 2.73-2.189 3.61-1.611.653-3.35.74-4.962.086-1.262-.584-2.23-1.676-2.946-2.817 0 0 2.022-1.759 3.033-1.759" data-paper-data="{&quot;origPos&quot;:null}"/><path fill="none" stroke="#4c392b" stroke-linecap="round" stroke-width="1.5" d="M53.316 40.674c-2.88 1.487-7.668 1.961-10.844.153" data-paper-data="{&quot;origPos&quot;:null,&quot;origRot&quot;:0,&quot;index&quot;:null}"/></g><g stroke="none" stroke-width="0" data-paper-data="{&quot;origPos&quot;:null}"><path fill="#b5875c" d="M5.65 121.404s.902-3.274 2.178-3.59c1.277-.317 4.915.646 5.482 1.691.609 1.122-.324 2.237-.453 3.507.602 2.078 1.204 4.561 1.638 6.49.52 1.864-.432 5.265-.449 7.185-.006.546-.588 1.813-1.777.45-.911-1.317-.254-3.075-.725-4.47-.855 2.615-1.321 3.303-1.559 6.087-.212 2.483 1.506 5.67-.622 5.967-.795.26-1.464-2.67-1.63-4.704a38.6 38.6 0 0 1-.025-5.701c-.55.894-.59 2.713-.743 4.396-.051.56.29 3.234.055 3.746-.304.878-1.217.749-1.655-.07-.55-1.03-.647-3.491-.608-4.657.046-1.39.244-3.105.453-4.488-.493.169-.722 2.39-1.027 3.758-.134.6.292 3.27-.884 3.628-1.4.145-.922-3.073-1.064-4.682.087-1.62.593-4.34.593-4.34s-.736 2.252-1.02 3.372c-.29 1.146.053 2.482-.944 2.514-1.121.162-.817-3.032-.849-3.438.088-1.264 1.267-4.384 1.267-4.384z" data-paper-data="{&quot;origPos&quot;:null,&quot;origRot&quot;:0,&quot;index&quot;:null}"/><path fill="#ffd16d" d="M9.799 96.81c.74-.856 1.263-4.286 8.023-3.181 5.66 2.592 3.846 7.453 3.834 7.524-1.791 9.908-3.243 19.24-5.47 24.642-5.559.98-13.554-4.235-13.554-4.235s5.613-20.07 7.167-24.75" data-paper-data="{&quot;origPos&quot;:null,&quot;origRot&quot;:0}"/></g><g stroke="none" stroke-width="0" data-paper-data="{&quot;origPos&quot;:null}"><path fill="#b5875c" d="M94.781 128.652s1.187 3.117 1.279 4.381c-.031.405.281 3.6-.84 3.44-.997-.03-.659-1.366-.951-2.511-.287-1.12-1.03-3.37-1.03-3.37s.514 2.718.606 4.34c-.139 1.608.349 4.825-1.052 4.684-1.177-.356-.758-3.027-.893-3.626-.31-1.367-.544-3.588-1.037-3.755.212 1.382.414 3.097.464 4.486.042 1.166-.049 3.628-.596 4.658-.435.82-1.348.952-1.654.075-.237-.51.098-3.185.045-3.746-.157-1.682-.203-3.501-.755-4.394a38.6 38.6 0 0 1-.01 5.702c-.16 2.033-.821 4.965-1.617 4.708-2.13-.292-.42-3.483-.638-5.966-.245-2.783-.713-3.47-1.575-6.083-.468 1.397.194 3.154-.713 4.472-1.185 1.367-1.77.1-1.779-.444-.022-1.92-.982-5.32-.467-7.185.428-1.93 1.024-4.414 1.62-6.494-.133-1.27-1.068-2.382-.462-3.505.564-1.047 4.2-2.02 5.477-1.707s2.188 3.585 2.188 3.585z" data-paper-data="{&quot;origPos&quot;:null,&quot;origRot&quot;:0,&quot;index&quot;:null}"/><path fill="#ffd16d" d="M79.03 124.949c-2.24-5.397-3.126-13.857-4.944-23.76-.013-.071-1.84-4.927 3.814-7.535 6.757-1.123 7.291 2.598 8.034 3.45 1.567 4.678 7.81 24.145 7.81 24.145s-9.152 4.664-14.713 3.7" data-paper-data="{&quot;origPos&quot;:null,&quot;origRot&quot;:0}"/></g></g></svg>