<svg xmlns="http://www.w3.org/2000/svg" width="46.326" height="56.29" viewBox="0.281 0.076 46.326 56.29"><defs><linearGradient id="a" x1="-426.438" x2="-471.605" y1="-102.756" y2="-102.789" gradientUnits="userSpaceOnUse"><stop offset="0" stop-color="#ee2a7b"/><stop offset="1" stop-color="#811150"/></linearGradient></defs><path fill="url(#a)" stroke="#fff" stroke-width="1.158" d="M18.443 17.507s-.026 22.926-.034 33.338a4.939 4.939 0 0 0 9.876.007c.006-8.73.035-33.31.035-33.31s1.669 1.65 9.276 9.27a4.938 4.938 0 0 0 6.988-6.978C38.416 13.654 26.88 2.103 26.88 2.103a4.94 4.94 0 0 0-6.983-.005L2.31 19.66a4.936 4.936 0 0 0-.005 6.984 4.936 4.936 0 0 0 6.983.005c6.18-6.169 9.156-9.142 9.156-9.142Z"/></svg>