<svg xmlns="http://www.w3.org/2000/svg" width="78.137" height="40.2" viewBox="0.391 -0.095 78.137 40.2"><path fill="#ffd524" d="M17.555 13.829c.209 4.846 1.139 8.739 4.203 10.597 2.727 1.616 5.903 1.616 9.031 1.616 1.636.039 3.257.316 4.813.823a6.41 6.41 0 0 0-6.93-3.893c-6.417.469-7.877-2.197-9.032-8.077-.738-3.78 1.605-14.215.851-14.344a2.38 2.38 0 0 0-1.99.84 104 104 0 0 0-.946 12.438"/><path fill="#e69724" d="M30.789 26.09c-3.128 0-6.304 0-9.031-1.615-3.064-1.858-3.994-5.767-4.203-10.597.083-4.168.415-8.327.995-12.455a8.6 8.6 0 0 0-2.102 4.362c-.353 2.326-2.518 2.455-3.353.549a7.3 7.3 0 0 0-6.577-4.265c-2.582-.129-5.069.485-4.812 1.809a57.5 57.5 0 0 1 1.171 12.924c0 3.683-1.749 8.319-1.187 13.763 2.454.242 12.4 1.276 14.197 1.615 2.197.339 2.759.905 4.604 2.892 1.508 1.615 4.523 1.615 9.625 1.453 2.24.017 4.474-.266 6.641-.84.37-2.947 0-5.94-1.075-8.707a16.9 16.9 0 0 0-4.893-.888"/><path fill="#723e0a" stroke="#723e0a" stroke-linecap="round" stroke-linejoin="round" stroke-width="1.28" d="M1.112 30.5s12.705 1.308 14.759 1.615c2.053.307 2.759.905 4.604 2.892 1.508 1.615 4.523 1.615 9.625 1.454 6.047-.146 7.475-1.212 7.475-1.212l.16 3.021a21.4 21.4 0 0 1-7.86 1.115c-2.588.174-5.188.05-7.748-.372-2.759-.436-3.866-3.021-5.759-3.231a39 39 0 0 0-4.011-.339l.193 3.538H2.925c-.61-2.585-1.925-4.653-1.893-8.384"/><path fill="none" stroke="#723e0a" stroke-linecap="round" stroke-linejoin="round" stroke-width=".848" d="M2.732 11.552s.273.807.995 2.73c.931 2.455 1.46 6.768 4.444 6.8 3.304 0 3.384-4.119 5.181-7.22 1.604-2.827 4.011-3.78 6.208-1.616"/><path fill="none" stroke="#723e0a" stroke-linecap="round" stroke-linejoin="round" stroke-width=".848" d="M2.604 19.774s1.155 5.573 5.535 5.654c3.817 0 6.063-3.716 7.138-6.995 1.203-3.651 3.401-4.087 4.732-2.229"/><path fill="none" stroke="#723e0a" stroke-linecap="round" stroke-linejoin="round" stroke-width=".848" d="M7.705 11.648a65 65 0 0 1 .466 9.434c0 5.266-.097 10.145-.097 10.145"/><path fill="none" stroke="#723e0a" stroke-linecap="round" stroke-linejoin="round" stroke-width="1.28" d="M1.674 30.565c2.454.242 12.4 1.276 14.197 1.615 2.197.339 2.759.905 4.604 2.892 1.508 1.615 4.523 1.615 9.625 1.453 2.24.017 4.474-.266 6.641-.84.529-6.009-.77-13.133-8.021-12.6-6.417.469-7.876-2.197-9.031-8.077-.738-3.78 1.604-14.215.85-14.344-1.909-.307-3.754 2.875-4.091 5.201-.337 2.327-2.518 2.456-3.353.55A7.3 7.3 0 0 0 6.518 2.15c-2.582-.129-5.069.485-4.812 1.809a57.5 57.5 0 0 1 1.171 12.923c-.064 3.603-1.765 8.239-1.203 13.683"/><path fill="none" stroke="#fff" stroke-linecap="round" stroke-linejoin="round" stroke-width="1.28" d="m33.083 28.335.722.13M28.014 28.077h3.112"/><path fill="#e69724" stroke="#723e0a" stroke-linecap="round" stroke-linejoin="round" stroke-width="1.28" d="M3.855 1.439c-.192-.888 4.524-1.034 5.278 0a77 77 0 0 1 .562 9.466c0 .695-3.979 1.131-4.3.194s-1.187-8.254-1.54-9.66"/><path fill="#ffd524" d="M56.889 13.926c.353 4.846 1.396 8.707 4.492 10.468 2.791 1.615 5.951 1.421 9.095 1.421a16.1 16.1 0 0 1 5.038.727 6.41 6.41 0 0 0-7.139-3.796c-6.417.679-8.021-1.954-9.288-7.867-.786-3.747 1.267-14.264.465-14.264a2.37 2.37 0 0 0-1.989.937c-.468 4.108-.693 8.24-.674 12.374"/><path fill="#e69724" d="M70.476 25.815c-3.208 0-6.304.178-9.095-1.421-3.096-1.761-4.139-5.654-4.492-10.468-.022-4.161.203-8.32.674-12.454a8.5 8.5 0 0 0-1.941 4.377c-.273 2.343-2.438 2.536-3.321.663a7.31 7.31 0 0 0-6.705-4.071c-2.599 0-5.069.646-4.813 1.954a56.7 56.7 0 0 1 1.605 12.923c0 3.684-1.476 8.368-.754 13.796 2.454.178 12.432.904 14.245 1.114 2.197.275 2.775.824 4.668 2.747 1.604 1.615 4.588 1.421 9.625 1.163a25.5 25.5 0 0 0 6.609-1.05 17.9 17.9 0 0 0-1.283-8.546 16 16 0 0 0-5.022-.727"/><path fill="#723e0a" stroke="#723e0a" stroke-linecap="round" stroke-linejoin="round" stroke-width="1.28" d="M41.104 31.082s12.721.904 14.807 1.146c2.085.243 2.775.824 4.668 2.747 1.604 1.615 4.588 1.421 9.625 1.163 6.031-.323 7.443-1.454 7.443-1.454l.241 3.085a21.3 21.3 0 0 1-7.764 1.406c-2.585.253-5.19.21-7.765-.13-2.775-.355-3.962-2.907-5.839-3.117s-4.042-.21-4.042-.21l.305 3.537-9.625.21c-.642-2.633-2.054-4.652-2.054-8.383"/><path fill="none" stroke="#723e0a" stroke-linecap="round" stroke-linejoin="round" stroke-width=".848" d="M42.099 12.085s.289.791 1.075 2.697c1.01 2.423 1.604 6.72 4.652 6.656 3.304 0 3.208-4.216 4.94-7.383 1.605-2.875 3.915-3.893 6.16-1.793"/><path fill="none" stroke="#723e0a" stroke-linecap="round" stroke-linejoin="round" stroke-width=".848" d="M42.179 20.307s1.331 5.541 5.695 5.476c3.834 0 5.951-3.893 6.93-7.205 1.091-3.683 3.208-4.183 4.668-2.374"/><path fill="none" stroke="#723e0a" stroke-linecap="round" stroke-linejoin="round" stroke-width=".848" d="M47.056 12.02c.482 3.116.739 6.264.77 9.418.112 5.282.208 10.144.208 10.144"/><path fill="none" stroke="#723e0a" stroke-linecap="round" stroke-linejoin="round" stroke-width="1.28" d="M41.618 31.114c2.454.178 12.432.904 14.245 1.114 2.197.275 2.775.824 4.668 2.747 1.604 1.615 4.588 1.421 9.625 1.163a25.5 25.5 0 0 0 6.609-1.05c.353-6.026-1.171-13.101-8.374-12.342-6.417.679-8.021-1.954-9.288-7.867-.802-3.747 1.251-14.264.449-14.264-1.909-.258-3.657 2.989-3.93 5.315s-2.438 2.536-3.321.662a7.31 7.31 0 0 0-6.705-4.07c-2.599 0-5.069.646-4.813 1.954a56.7 56.7 0 0 1 1.605 12.923c.064 3.603-1.492 8.287-.77 13.715"/><path fill="none" stroke="#fff" stroke-linecap="round" stroke-linejoin="round" stroke-width="1.28" d="m72.995 28.077.722.129M67.958 27.818h3.208"/><path fill="#e69724" stroke="#723e0a" stroke-linecap="round" stroke-linejoin="round" stroke-width="1.28" d="M42.917 1.94c-.225-.888 4.476-1.163 5.262-.129a80 80 0 0 1 .946 9.45c0 .694-3.946 1.26-4.315.323s-1.556-8.239-1.893-9.644"/></svg>