<svg xmlns="http://www.w3.org/2000/svg" width="72.588" height="59.674" viewBox="0.674 0.237 72.588 59.674"><path fill="#284a00" d="M70.4 3.069A8.64 8.64 0 0 0 64.264.537a8.65 8.65 0 0 0-6.173 2.567L22.896 38.49l-6.961-7.208a8.64 8.64 0 0 0-6.263-2.657 8.66 8.66 0 0 0-6.045 2.443C.174 34.403.078 39.925 3.412 43.377L16.5 56.926a8.7 8.7 0 0 0 1.695 1.355l.083.05c.129.078.258.157.375.219a8.7 8.7 0 0 0 4.174 1.062h.001c2.332 0 4.521-.91 6.165-2.563l41.442-41.67c3.384-3.402 3.37-8.925-.034-12.31"/><path fill="#3cf300" d="M69.133 4.342a6.906 6.906 0 0 0-9.768.028L22.878 41.056l-8.236-8.526a6.908 6.908 0 1 0-9.938 9.6L17.79 55.676c.372.385.78.712 1.21.991.057.038.115.07.174.107.112.068.223.137.338.199a6.91 6.91 0 0 0 8.205-1.19l41.443-41.67a6.91 6.91 0 0 0-.027-9.772"/></svg>