<svg xmlns="http://www.w3.org/2000/svg" width="83.124" height="41.875" viewBox="0.158 0.156 83.124 41.875"><path fill="#fff" stroke="#db20a5" stroke-width=".848" d="M33.838 34.081c2.395-.318 4.789-1.274 6.704-2.866-.798-3.026-3.671-5.256-6.704-7.008-.798.956-1.755 1.593-2.873 2.071-1.277.478-2.553.796-3.83.796a15.5 15.5 0 0 0-.958 5.415v.637c2.394.796 5.108 1.115 7.661.955Z"/><path fill="#ffc0ec" stroke="#db20a5" stroke-width="1.28" d="M33.679 24.207c-3.352-1.911-6.225-4.14-6.544-6.688-.32-2.549-.958-10.83-.958-10.83-2.714-.319-5.427-.319-8.3 0-7.023.637-10.215 2.707-10.215 2.707-.32 2.867-.639 5.734-.639 8.76l.16.159c1.436.478 5.267 1.592 9.257 3.344 3.672 1.593 7.183 3.345 10.535 5.574 1.277 0 2.713-.318 3.831-.796 1.277-.637 2.234-1.274 2.873-2.23Z"/><path fill="#fff" stroke="#db20a5" stroke-width=".848" d="M40.542 31.215q-2.873 2.388-6.704 2.866a22 22 0 0 1-7.821-.955c0 .796 0 1.752.16 2.548 2.713.796 5.586 1.115 8.46.796 2.234-.159 4.469-1.114 6.065-2.707 0-.796-.16-1.593-.319-2.548z"/><path fill="#ff7bd0" stroke="#db20a5" stroke-width="1.28" d="M26.017 32.489c0-1.752.479-3.663 1.118-5.415-3.352-2.07-6.864-3.981-10.535-5.415-3.99-1.592-7.821-2.866-9.258-3.344l-.638-.159v12.581s4.788 1.115 8.779 2.07c3.99.956 10.854 3.026 10.854 3.026-.16-1.114-.32-2.229-.32-3.344Z"/><g fill="#ffff4f" stroke="#db20a5" stroke-width=".848"><path d="M17.398 25.641s-2.075 3.185-8.3 3.185-8.3-3.185-8.3-4.937 1.437-2.708 3.192-1.752c2.714 1.593 5.587 3.026 8.62 4.141"/><path d="M13.248 25.959c-2.554 0-4.948-.637-7.342-1.592-3.352-1.593-5.268-4.3-4.948-6.211.159-1.593 1.915-2.389 3.511-1.115 2.394 2.07 4.948 3.822 7.821 5.574"/><path d="M10.535 22.456c-2.554-1.115-4.948-2.549-7.023-4.46-2.554-2.707-2.714-5.415-2.075-6.529.798-1.434 2.553-1.274 3.671.318 1.755 2.548 3.671 4.937 5.586 7.167"/><path d="M9.577 18.156c-2.075-1.434-3.831-3.026-5.108-5.097-2.075-3.026-1.915-5.574-.957-6.529.957-.956 2.713-.797 3.511.955 1.277 2.708 2.554 5.415 4.15 8.122"/><path d="M10.694 15.926C8.779 13.059 7.023 9.874 5.746 6.53 4.629 2.867 5.427.796 7.183.796c1.436 0 2.234 1.911 3.352 4.619 1.436 2.707 3.032 5.415 4.788 7.963"/><path d="M11.492 21.341s-1.436-.956-2.394 0c-.958.955.319 4.778 4.469 6.052 2.714.955 5.746-.16 7.023-2.708 1.118-2.389.639-5.415-1.117-7.326-1.915-2.707-3.352-5.255-4.629-7.166-1.915-2.549-3.99-1.434-4.15.318-.159 1.433.479 3.185 3.352 6.53l-2.234-2.389c-1.437-1.752-4.47-1.115-3.512 2.707.958 3.345 5.108 5.415 5.108 5.415"/></g><path fill="#fff" stroke="#db20a5" stroke-width=".848" d="M23.144 26.756a1.594 1.594 0 0 1 1.596 1.592 1.595 1.595 0 0 1-2.724 1.126 1.585 1.585 0 0 1 0-2.252 1.6 1.6 0 0 1 1.128-.466Z"/><path fill="none" stroke="#db20a5" stroke-width="1.024" d="M27.135 17.996c-1.118 1.593-1.916 3.185-2.714 4.937-.638 1.752-1.117 3.504-1.277 5.415 1.916-2.548 4.31-4.778 7.023-6.37"/><path fill="none" stroke="#db20a5" stroke-width="1.024" d="M21.229 22.456c2.554-.797 4.948-1.275 7.502-1.752"/><path fill="none" stroke="#db20a5" stroke-width="1.28" d="M40.542 31.374v-.159c-.798-3.026-3.671-5.256-6.704-7.008-.798.956-1.755 1.593-2.873 2.071-1.277.478-2.553.796-3.83.796a15.5 15.5 0 0 0-.958 5.415v.637c0 .796 0 1.752.16 2.548 2.713.796 5.586 1.115 8.459.796 2.235-.159 4.469-1.114 6.066-2.707 0-.637-.16-1.593-.32-2.389Z"/><path fill="#fff" stroke="#fff" stroke-width=".5" d="M16.919 10.352c2.235-.637 4.629-.956 6.864-1.115l.479 4.141-5.108 1.433z"/><path fill="#8b49d4" stroke="#8b49d4" stroke-width=".848" d="m27.773 10.67.16 5.574c-1.916.319-3.831.956-5.427 1.912-2.235 1.592-3.352 3.025-5.108 3.025s-3.511-2.548-1.117-5.414c3.192-2.867 7.182-4.778 11.492-5.097Z"/><path fill="none" stroke="#ffc0ec" stroke-width="1.28" d="m21.867 31.852 1.277.318M15.802 30.259l3.99 1.115"/><path fill="#fff" stroke="#db20a5" stroke-linecap="round" stroke-linejoin="round" stroke-width=".848" d="M74.821 33.561c2.394-.478 4.629-1.592 6.385-3.344-.958-2.867-3.991-4.937-7.183-6.53a6.23 6.23 0 0 1-2.713 2.23c-1.118.637-2.554.955-3.831 1.114A15.6 15.6 0 0 0 67 32.446v.637c2.554.637 5.108.797 7.821.478"/><path fill="#ffc0ec" stroke="#db20a5" stroke-linecap="round" stroke-linejoin="round" stroke-width="1.28" d="M74.023 23.846c-3.511-1.592-6.544-3.822-7.183-6.211-.638-2.389-1.755-10.67-1.755-10.67-2.714-.159-5.587.159-8.3.637-6.864 1.115-9.897 3.344-9.897 3.344a81 81 0 0 0 0 8.76l.16.159c1.437.318 5.427 1.274 9.417 2.707a67.7 67.7 0 0 1 11.014 4.778c1.277-.159 2.554-.478 3.831-1.115 1.117-.637 2.075-1.433 2.713-2.389"/><path fill="#fff" stroke="#db20a5" stroke-linecap="round" stroke-linejoin="round" stroke-width=".848" d="M81.206 30.217c-1.756 1.752-3.991 2.866-6.385 3.344-2.554.319-5.267.159-7.821-.318 0 .796.16 1.751.319 2.548 2.873.637 5.746.796 8.619.159 2.235-.319 4.31-1.433 5.906-3.026 0-.796-.159-1.593-.479-2.548-.159 0-.159-.159-.159-.159"/><g fill="#db20a5"><path d="M40.823 33.269c-.16 0-.319 0-.479.159-1.596 1.433-3.511 2.389-5.746 2.548-2.713.318-5.586 0-8.3-.796 0 0-6.863-1.911-10.854-3.026-3.99-.956-8.779-2.071-8.779-2.071-.159 0-.319 0-.478.16-.16.159-.16.318-.16.477v5.893c0 .318.16.478.479.637 0 0 3.671.956 7.502 1.593l2.554.477c3.192.637 6.065 1.115 9.417 1.593q2.634.478 5.267.478t5.267-.478c1.756-.319 3.352-1.115 4.789-2.23 0-.159.16-.318.16-.477v-4.3c0-.319-.32-.637-.639-.637M82.483 32.95c0-.319-.32-.637-.639-.637-.159 0-.319 0-.479.159-1.436 1.593-3.352 2.548-5.586 2.867-2.714.478-5.587.478-8.3-.159 0 0-7.023-1.434-11.014-2.23-3.99-.637-8.938-1.433-8.938-1.433-.16 0-.319 0-.479.159s-.16.318-.16.478l.479 5.892c0 .319.32.478.479.637 0 0 3.831.637 7.502 1.115l2.873.319c3.033.318 5.906.637 9.258.955.958.159 1.915.159 2.873.159 2.554 0 5.108-.318 7.502-.955 1.756-.478 3.352-1.433 4.629-2.548.159-.159.159-.319.159-.478z"/></g><path fill="#ff7bd0" stroke="#db20a5" stroke-linecap="round" stroke-linejoin="round" stroke-width="1.28" d="M67 32.606c-.16-1.752.16-3.663.638-5.415a67.6 67.6 0 0 0-11.013-4.778c-3.99-1.433-7.981-2.389-9.417-2.707l-.639-.16.958 12.423s4.788.637 8.938 1.433c3.991.637 11.014 2.229 11.014 2.229A10 10 0 0 1 67 32.606"/><g fill="#ffff4f" stroke="#db20a5" stroke-width=".848"><path d="M57.937 26.235s-1.756 3.345-7.981 3.822c-6.225.478-8.46-2.707-8.619-4.459-.16-1.752 1.276-2.707 3.192-1.911 2.873 1.433 5.746 2.548 8.938 3.504"/><path d="M53.627 26.872c-2.394.159-4.948-.159-7.342-1.115-3.352-1.274-5.587-3.822-5.427-5.892.159-1.593 1.755-2.548 3.352-1.274 2.553 1.911 5.267 3.663 8.14 5.096"/><path d="M50.754 23.528c-2.714-.797-5.108-2.23-7.342-3.982-2.714-2.389-3.033-5.096-2.554-6.37.798-1.433 2.394-1.433 3.671 0 1.915 2.389 3.99 4.618 6.065 6.848"/><path d="M49.477 19.387c-2.075-1.274-3.99-2.867-5.587-4.778-2.234-2.866-2.075-5.415-1.277-6.529.799-1.115 2.554-.956 3.512.637 1.437 2.707 3.033 5.255 4.788 7.803"/><path d="M50.435 16.998c-2.235-2.867-3.991-5.733-5.587-8.918-1.436-3.663-.638-5.893 1.117-6.052 1.277-.159 2.395 1.752 3.672 4.3a65 65 0 0 0 5.267 7.644"/><path d="M51.552 22.413s-1.596-.956-2.394.159.638 4.778 4.788 5.734c2.714.796 5.746-.478 6.864-3.186a6.92 6.92 0 0 0-1.597-7.326c-2.234-2.548-3.671-4.937-5.107-6.848-1.916-2.229-3.991-.955-4.15.797 0 1.433.638 3.026 3.831 6.37l-2.235-2.389c-1.596-1.593-4.469-.796-3.192 2.867 1.117 3.344 5.427 5.096 5.427 5.096"/></g><path fill="#fff" stroke="#db20a5" stroke-linecap="round" stroke-linejoin="round" stroke-width=".848" d="M63.648 26.872a1.594 1.594 0 0 1 1.128 2.719 1.6 1.6 0 0 1-1.128.466 1.593 1.593 0 1 1 0-3.185"/><path fill="none" stroke="#db20a5" stroke-linecap="round" stroke-linejoin="round" stroke-width="1.024" d="M67 17.954c-.958 1.592-1.756 3.344-2.394 5.096-.479 1.752-.798 3.663-.958 5.415 1.756-2.708 3.99-5.096 6.544-6.848"/><path fill="none" stroke="#db20a5" stroke-linecap="round" stroke-linejoin="round" stroke-width="1.024" d="M61.413 22.731c2.395-.955 4.949-1.751 7.502-2.229"/><path fill="none" stroke="#db20a5" stroke-linecap="round" stroke-linejoin="round" stroke-width="1.28" d="M81.685 32.924c0-.796-.16-1.593-.479-2.548v-.159c-.958-2.867-3.991-4.937-7.183-6.53a6.23 6.23 0 0 1-2.713 2.23c-1.118.637-2.554.955-3.831 1.114-.479 1.752-.639 3.504-.639 5.415v.637c0 .797.16 1.752.32 2.548 2.873.638 5.746.797 8.619.16a8.73 8.73 0 0 0 5.906-2.867"/><path fill="#fff" stroke="#fff" stroke-linecap="round" stroke-linejoin="round" stroke-width=".5" d="M56.146 10.787c2.235-.796 4.469-1.115 6.864-1.274l.478 4.141-4.948 1.433z"/><path fill="#8b49d4" stroke="#8b49d4" stroke-linecap="round" stroke-linejoin="round" stroke-width=".848" d="m67 10.628.638 5.415q-2.873.477-5.267 2.388c-2.075 1.593-3.192 3.186-4.948 3.345-2.075.159-3.671-2.23-1.436-5.256C58.86 13.335 62.85 11.265 67 10.628"/><path fill="none" stroke="#ffc0ec" stroke-linecap="round" stroke-linejoin="round" stroke-width="1.28" d="m62.69 32.446 1.277.319M56.625 31.013l3.99.796"/></svg>