<svg xmlns="http://www.w3.org/2000/svg" xml:space="preserve" width="149.21" height="119.837" viewBox="6.854 3.582 149.21 119.837"><title>toucan-b</title><g fill-rule="evenodd"><path fill="#8088ad" d="M97.145 88.367c-.136.053-4.983 3.234-8.365 7.41-3.383 4.175-3.351 5.055-3.351 5.055s-.028 2.925 1.504 5.287c1.438 2.217 5.88 5.497 9.045 7.552.327.194.74.284.64 2.162-.098 1.877-.115 3.564-.115 3.564s.012 1.361-1.02.025c-1.513-1.958-10.142-12.575-10.142-12.575l-.525-2.516c.626 5.126 4.221 10.731 5.438 11.823 1.132 1.016.399 1.879.264 2.2-.136.32-.915 1.952-1.54 3.604-.797 2.1-1.322.103-1.322.103-3.932-16.125-3.84-15.74-5.583-19.112-1.756-3.4-4.889-6.44-4.889-6.44 2.696-.334 6.332 3.322 6.332 3.322 4.54-4.162 5.001-9.15 5.001-9.15s6.176-2.327 8.628-2.314"/><path fill="none" stroke="#2e4166" stroke-width=".5" d="M97.145 88.367c-.136.053-4.983 3.234-8.365 7.41-3.383 4.175-3.351 5.055-3.351 5.055s-.028 2.925 1.504 5.287c1.438 2.217 5.88 5.497 9.045 7.552.327.194.74.284.64 2.162-.098 1.877-.115 3.564-.115 3.564s.012 1.361-1.02.025c-1.513-1.958-10.142-12.575-10.142-12.575l-.525-2.516c.626 5.126 4.221 10.731 5.438 11.823 1.132 1.016.399 1.879.264 2.2-.136.32-.915 1.952-1.54 3.604-.797 2.1-1.322.103-1.322.103-3.932-16.125-3.84-15.74-5.583-19.112-1.756-3.4-4.889-6.44-4.889-6.44 2.696-.334 6.332 3.322 6.332 3.322 4.54-4.162 5.001-9.15 5.001-9.15s6.176-2.327 8.628-2.314"/><path fill="#8088ad" d="M88.744 93.051c-.146 0-5.818 1.173-10.493 3.81-4.674 2.638-4.967 3.47-4.967 3.47s-1.096 2.71-.535 5.47c.526 2.592 3.457 7.28 5.648 10.357.234.302.584.537-.195 2.247s-1.412 3.273-1.412 3.273-.487 1.27-.958-.353c-.69-2.378-4.831-15.432-4.831-15.432l.433-2.534c-1.294 4.997-.002 11.537.73 13 .682 1.362-.316 1.894-.56 2.143-.242.249-1.564 1.478-2.75 2.785-1.51 1.66-1.267-.391-1.267-.391 2.245-16.447 2.188-16.056 1.802-19.833-.39-3.81-2.191-7.791-2.191-7.791 2.63.682 4.674 5.421 4.674 5.421 5.746-2.198 8-6.668 8-6.668s6.596.11 8.872 1.026"/><path fill="none" stroke="#2e4166" stroke-width=".5" d="M88.744 93.051c-.146 0-5.818 1.173-10.493 3.81-4.674 2.638-4.967 3.47-4.967 3.47s-1.096 2.71-.535 5.47c.526 2.592 3.457 7.28 5.648 10.357.234.302.584.537-.195 2.247s-1.412 3.273-1.412 3.273-.487 1.27-.958-.353c-.69-2.378-4.831-15.432-4.831-15.432l.433-2.534c-1.294 4.997-.002 11.537.73 13 .682 1.362-.316 1.894-.56 2.143-.242.249-1.564 1.478-2.75 2.785-1.51 1.66-1.267-.391-1.267-.391 2.245-16.447 2.188-16.056 1.802-19.833-.39-3.81-2.191-7.791-2.191-7.791 2.63.682 4.674 5.421 4.674 5.421 5.746-2.198 8-6.668 8-6.668s6.596.11 8.872 1.026"/><path fill="#2e4166" d="M124.545 65.084s6.167-21.681-14.367-37.095C89.647 12.575 58.772 5.548 40.486 4.082L58.765 18.15s-5.51.522-12.075-3.587c.34.207-.113 4.143 10.877 11.497 0 0-2.932-.166-6.814-3.17 0 0 2.932 7.02 14.687 15.035l-4.877-1.106S85.98 53.692 94.801 68.394"/><path fill="none" stroke="#5f6484" stroke-width=".5" d="M124.545 65.084s6.167-21.681-14.367-37.095C89.647 12.575 58.772 5.548 40.486 4.082L58.765 18.15s-5.51.522-12.075-3.587c.34.207-.113 4.143 10.877 11.497 0 0-2.932-.166-6.814-3.17 0 0 2.932 7.02 14.687 15.035l-4.877-1.106S85.98 53.692 94.801 68.394"/><path fill="#353c62" d="M155.046 59.692s1.968-8.125-2.722-13.029c-4.06-4.245-21.911-17.757-48.71-15.285-9.77.824-9.865 7.403-9.855 8.328.011.925 2.01 9.929 2.01 9.929s-.208 16.389-21.159 21.63c-14.212 3.556-26.208 12.627-26.208 12.627s-4.053-4.217-7.236-6.264c-3.36-2.162-6.587-3.89-7.627-3.262-1.191.716-1.57 3.444-1.57 3.444s-10.408-2.573-10.153.073c.255 2.644 13.992 7.203 27.144 9.843 13.008 2.611 38.463 8.42 61.069 3.841 19.06-4.012 21.82-12.255 17.239-24.785-3.201-8.752-12.69-19.05-12.69-19.05s19.476.412 35.313 5.861c0 0 3.683 1.134 5.155 6.099"/><path fill="#faf1e8" d="M101.85 38.086s-3.674 3.023-.523 7.671c3.15 4.65 17.597 13.851 21.5 22.879 4.897 11.323-.948 18.274-2.821 19.73 0 0 9.82-4.745 9.044-13.876-1.23-14.482-16.973-30.263-22.524-33.386-5.55-3.123-4.676-3.018-4.676-3.018"/><path fill="#ffa364" d="M109.135 42.999s2.058-.225 2.397-2.425c.27-1.774-.152-6.065.23-7.332.383-1.268.87-1.98.87-1.98s21.985-.568 39.692 15.401c4.548 4.101 2.722 13.03 2.722 13.03s-.806-4.034-5.27-6.139c-4.658-2.196-29.626-6.446-35.197-5.82z"/><path fill="#ff7664" d="m114.58 47.733-5.243-4.63s30.336 3.33 41.074 10.497c0 0-16.985-5.485-35.832-5.867"/><path fill="#353c62" d="M155.023 60.008s3.53-10.868-7.455-17.188c-4.882-2.808-10.298-3.24-11.115-.069-.542 2.107 1.15 5.52 9.966 8.718 4.539 1.645 8.054 4.861 8.604 8.54"/><path fill="none" stroke="#1e223d" stroke-width=".5" d="M155.046 59.692s1.968-8.125-2.722-13.029c-4.06-4.245-21.911-17.757-48.71-15.285-9.77.824-9.91 7.405-9.855 8.328.183 3.005 2.01 9.929 2.01 9.929s.917 15.679-18.882 20.92c-5.734 1.519-18.442 5.936-28.485 13.337 0 0-4.675-4.69-7.236-6.264-3.945-2.426-6.587-3.89-7.627-3.262-1.191.716-1.57 3.444-1.57 3.444s-10.408-2.573-10.153.073c.255 2.644 11.862 6.57 24.979 9.38 14.135 3.027 26.66 5.8 46.38 5.788 25.052-.146 33.136-7.23 35.132-12.97 4.687-13.477-13.728-32.348-13.728-32.348s19.475.411 35.312 5.86c0 0 3.683 1.134 5.155 6.099Z"/><path fill="#ffd5a3" d="M111.636 34.181s-9.761-3.067-10.621 1.019 5.17 6.67 8.029 7.755c0 0 2.1-.242 2.516-2.525s-.13-4.414.076-6.249"/><path fill="none" stroke="#1e223d" stroke-width=".5" d="M112.76 31.13s-1.331 1.121-1.127 4.379c.205 3.259.492 7.082-2.498 7.49 0 0 5.046 4.305 5.61 4.939"/><path fill="none" stroke="#1e223d" stroke-width=".5" d="M109.135 42.999s41.97 4.885 45.075 14.623"/><path fill="none" stroke="#1e223d" stroke-width=".5" d="M147.59 42.71s-9.262-4.712-11.024-.294c-1.642 4.112 5.893 7.283 7.536 8.118"/><path fill="#1e223d" d="M104.719 36.631a2.118 2.118 0 1 1 4.15.853 2.12 2.12 0 0 1-2.5 1.656 2.125 2.125 0 0 1-1.65-2.509"/><path fill="#495aa9" d="M105.684 36.83a1.339 1.339 0 1 1 2.624.539 1.34 1.34 0 1 1-2.624-.54"/><path fill="#1e223d" d="M106.155 36.927a.859.859 0 1 1 1.683.346.86.86 0 1 1-1.683-.346"/><path fill="#353c62" d="M106.996 64.18s-3.01-22.178-27.552-27.942c-24.541-5.764-55.072.244-72.09 6.253l21.985 5.447s-4.747 2.686-12.27 1.587c.386.052 1.533 3.81 14.315 6.082 0 0-2.702 1.026-7.377-.146 0 0 5.405 5.202 19.137 7.767l-4.821.952s29.508 5.13 43.24 14.949"/><path fill="none" stroke="#5f6484" stroke-width=".5" d="M106.996 64.18s-3.01-22.178-27.552-27.942c-24.541-5.764-55.072.244-72.09 6.253l21.985 5.447s-4.747 2.686-12.27 1.587c.386.052 1.533 3.81 14.315 6.082 0 0-2.702 1.026-7.377-.146 0 0 5.405 5.202 19.137 7.767l-4.821.952s29.508 5.13 43.24 14.949"/><path fill="#1e223d" d="M100.932 69.383s-.11-.356-.36-1.008c-.261-.647-.645-1.6-1.242-2.762a43 43 0 0 0-2.37-4.072c-1.013-1.511-2.212-3.191-3.716-4.862-.356-.435-.768-.834-1.164-1.264-.401-.424-.804-.862-1.251-1.272L89.49 52.87q-.713-.613-1.446-1.24c-1.99-1.631-4.179-3.267-6.641-4.63-1.196-.745-2.503-1.33-3.785-1.999-.658-.301-1.33-.58-2-.872-.67-.295-1.345-.587-2.045-.82l-2.089-.754c-.7-.25-1.424-.43-2.137-.648-.72-.198-1.427-.446-2.159-.603l-2.189-.5-1.096-.241-1.109-.177-2.212-.347c-.733-.134-1.475-.185-2.212-.26l-2.205-.216c-1.465-.13-2.926-.139-4.364-.213-.72-.045-1.436-.023-2.146-.013l-2.115.03c-1.4-.009-2.77.114-4.112.212l-1.99.15c-.655.05-1.297.155-1.933.228l-3.7.468-3.43.599c-2.207.338-4.193.842-5.958 1.247-.882.209-1.71.387-2.47.582l-2.075.576-3.928 1.113 3.983-.892 2.094-.481c.765-.161 1.6-.302 2.487-.47 1.777-.322 3.772-.733 5.974-1.025l3.425-.502 3.685-.364c.632-.055 1.27-.143 1.921-.174l1.975-.095c1.332-.049 2.689-.186 4.073-.156l2.09-.01c.703-.004 1.41-.02 2.12.032 1.42.086 2.863.107 4.305.249l2.17.231c.725.081 1.456.138 2.177.276l2.173.361 1.087.184 1.076.244 2.154.471c.72.148 1.416.386 2.123.573.701.21 1.415.379 2.103.618l2.055.72c.69.223 1.353.504 2.012.787.66.281 1.322.547 1.969.837 1.262.645 2.55 1.206 3.728 1.926 2.413 1.331 4.61 2.857 6.607 4.409l1.454 1.18 1.348 1.217c.451.391.86.812 1.266 1.22.4.412.82.794 1.18 1.213 1.516 1.615 2.773 3.217 3.844 4.667a43 43 0 0 1 2.528 3.932c1.278 2.262 1.801 3.663 1.801 3.663"/></g></svg>