<svg xmlns="http://www.w3.org/2000/svg" xml:space="preserve" width="110.808" height="110.808" viewBox="-0.5 -0.5 110.808 110.808"><title>Slice 1</title><g fill-rule="evenodd"><circle cx="54.904" cy="54.904" r="54.904" fill="#0077b8"/><path fill="#74b140" d="M2.03 44.162c.066-.312-.178-.652-.4-.842a1.3 1.3 0 0 0-.36-.218q-.135.617-.258 1.24v.012q-.12.62-.228 1.248a4 4 0 0 1 .436-.6c.25-.27.732-.468.81-.84M8.03 27.4c.08-.218.206-.415.37-.578.308-.226.64.036.942.138.832.282 1.486-.282 1.8-1.03.366-.906.066-2.638 1.48-2.6 1.458.032 1.952 1.616 2.288 2.762.096.33.274.658.1.984-.21.317-.523.553-.886.666-.692.258-1.462.242-2.174.43a.318.318 0 0 0 0 .6 6.86 6.86 0 0 1 3.904 4.174.316.316 0 0 0 .46.188c.6-.446.614-1.128.47-1.79.283-.048.573-.041.854.02a.318.318 0 0 0 .354-.46 8.1 8.1 0 0 1-.708-2.48c.306.14.614.612.828.774.303.269.734.337 1.106.176 1-.502.354-2 .014-2.692l-1.188-2.426c-.374-.764-.702-1.58-1.216-2.262-.316-.42-.728-.828-1.248-.974a1.6 1.6 0 0 0-.8 0 2.8 2.8 0 0 1-.678.172c.252-.4.316-.654-.076-1.132a1.98 1.98 0 0 0-.988-.638q-.47.556-.926 1.122a55 55 0 0 0-5.672 8.544c.354-.137.678-.34.956-.6.302-.308.452-.704.634-1.088M26.172 78.912c-.3-.056-.6-.052-.85-.248a4 4 0 0 1-.362-.372 2.1 2.1 0 0 0-.898-.556c-.906-.262-1.782-.106-2.668-.53-.43-.2-.85-.436-1.272-.656-.506-.262-1.088-.482-1.556-.8s-.304-.582-.35-1.05a1.95 1.95 0 0 0-.318-.878c-.4-.558-.952-.99-1.59-1.242-.758-.332-1.6-.428-2.37-.714a2.8 2.8 0 0 1-1.218-.782c-.262-.316-.4-.718-.67-1.03-.63-.726-1.8-.672-2.684-.784l-3.2-.41q.074-.165.148-.328a.32.32 0 0 0-.188-.462c-1.872-.518-2.624 1.504-3.836 2.492l-.022-.012A54.6 54.6 0 0 0 9.72 86.096a55 55 0 0 0 4.108 5.232 55 55 0 0 0 2.868 2.988c.6.582 1.2 1.154 1.834 1.708.788-1.528 1.278-3.344 2.474-4.518.654-.642 1.476-.82 2.286-1.182a2.84 2.84 0 0 0 1.486-1.46c.732-1.624.088-3.476.746-5.098.538-1.332 2.314-2.2 1.836-3.864-.158-.588-.598-.88-1.186-.99"/><path fill="#74b140" d="M.778 56.672c.03.4-.134.8-.102 1.214.059.682.328 1.328.77 1.85a.318.318 0 0 0 .494-.064c1.152-1.692-.656-4.23 1.278-5.508.818-.542 1.814-.8 2.458-1.586.261-.3.424-.674.466-1.07.034-.4-.106-.822-.122-1.228v.02c.074.2.36.342.524.14a4.48 4.48 0 0 1 3.098-1.698.32.32 0 0 0 .272-.474c-.344-.728.368-1.312.986-1.52.438-.148.89-.2 1.222-.55a1.4 1.4 0 0 0 .2-.272c.148.312.306.662.574.864.24.16.54.198.812.102.532-.128 1.056-.328 1.578-.492a.318.318 0 0 0 .14-.524 2.73 2.73 0 0 1-.87-2.57.32.32 0 0 0-.304-.4l-1.914-.044a2.86 2.86 0 0 1 1.42-.862c.786-.2 1.448.03 2.2.25.586.172 1.138.214 1.704-.044.492-.224 1.23-.988 1.8-.684a.316.316 0 0 0 .43-.43 21.3 21.3 0 0 1-2-6.964.32.32 0 0 0-.536-.222c-.614.484-1.442 1.126-2.262.748-.692-.32-.458-1.222-.724-1.83-.468-1.08-1.644-1.648-2.664-2.084a.32.32 0 0 0-.472.272 3.42 3.42 0 0 1-2.092 2.716.314.314 0 0 0-.064.492 1.652 1.652 0 0 1-1.308 2.896.318.318 0 0 0-.302.4c.132.562.302 1.186.13 1.756-.136.444-.5.816-.948.816.4-1.966-.834-3.854-2.338-5.048a30 30 0 0 0-.456-.346q-.077.198-.154.4-.132.34-.26.68l-.19.52-.2.562q-.198.571-.384 1.148l-.094.29q-.123.388-.24.778l-.064.214a56 56 0 0 0-.714 2.654 4 4 0 0 1 .692.044c.64.1.966.428 1.23 1 .193.472.548.86 1 1.094 1.44.816.088 1.714-.784 2.428.094-.365.14-.74.136-1.116-.032-.496-.33-1.25-.97-1.088-.778.2-.91 1.464-1.11 2.076-.104.32-.236.67-.542.852s-.518.126-.654-.034q-.188 1.336-.31 2.688L.2 50.2c-.02.246-.042.492-.058.74-.022.304-.042.6-.058.914 0 .178-.018.358-.026.538q-.02.433-.034.866v.4Q0 54.282 0 54.904c0 .446 0 .888.016 1.332a.526.526 0 0 1 .762.436M4.388 63.468c.618-.054 1.144-.476 1.6-.86.224-.188.026-.518-.222-.536-.478-.03-.954-.05-1.432-.046s-1 .104-1.44-.118c-.33-.168-.612-.468-.92-.676a7 7 0 0 0-1.1-.6c-.176-.076-.384-.17-.6-.242q.063.623.138 1.24c.382.124.558.438.846.694.434.388.974.434 1.514.582.582.166.976.616 1.616.562M5.854 63.456c-.282.08-.486.364-.674.6a.36.36 0 0 0-.2.302.346.346 0 0 0 .292.4c.26.16.57.214.868.152.624-.102 1.148-.292 1.8-.25a.31.31 0 0 0 .272-.154c.376-.716-.38-1.03-.968-1.046-.418-.012-.982-.122-1.39-.004M14.116 18.726c.674 0 1.15-.512.85-1.178a1.2 1.2 0 0 0-.112-.2q-.615.654-1.2 1.332.23.04.462.046M16.442 16.622c0-.26.018-.518.026-.778v-.148q-.462.456-.914.918.183.1.346.23a.318.318 0 0 0 .542-.222M17.72 15.264a.83.83 0 0 0 .6-.4c.246-.432 0-.768.69-.78.334 0 .662.064.986-.062.386-.148.502-.534.842-.74.376-.23.876-.298 1.296-.414l1.6-.446a.32.32 0 0 0 .138-.526c-.544-.634-1.372-.61-2.106-.776q-.6.456-1.188.928l-.122.098q-.534.438-1.056.878l-.16.136a60 60 0 0 0-1.144 1.002q-.577.525-1.142 1.062c.246 0 .508.094.766.04"/><path fill="#74b140" d="M37.948 27.2a.29.29 0 0 0-.036-.35.26.26 0 0 0 .244-.092 1.974 1.974 0 0 0-.18-2.734l.24-.334a1.02 1.02 0 0 0 1.344-.464c.58-1.09-.324-2.53.306-3.574.248-.355.416-.758.494-1.184.072-.458.022-1.042.322-1.426.506-.65 1.656-.328 1.894-1.292a.31.31 0 0 0-.082-.306 3.06 3.06 0 0 0-1.8-.7 2.9 2.9 0 0 0-.978.12c-.3.092-1.2.444-.616-.158a.32.32 0 0 0-.138-.526 1.8 1.8 0 0 0-.6-.084.76.76 0 0 0 .216-.63c-.13-1.098-1.812-.8-2.814-.6a1.2 1.2 0 0 0-.344-.836c-.496-.518-1.27-.448-1.892-.228-.412.146-.8.378-1.22.488-.48.122-.94-.034-1.42.024s-.984.37-1.032.898c-.01.098.076.328.044.4q.081.192-.162 0l-.18-.2a2.8 2.8 0 0 0-.84-.584 5 5 0 0 0-1.924-.352c-.738-.016-1.528-.03-2.22.256-.986.4-1.8.752-2.898.63a.316.316 0 0 0-.302.4l.26.976-1.968.01a.316.316 0 0 0-.314.314c.006.452.201.88.538 1.182a1.8 1.8 0 0 0-.45.4.318.318 0 0 0 .138.524l.74.242a1.26 1.26 0 0 0-.186 1 .316.316 0 0 0 .46.188 2.03 2.03 0 0 1 2.264.502c.624.672.452 1.674.952 2.432.578.872 1.2 1.73 1.182 2.83-.018.938-.444 1.824-.8 2.666-.31.712-.626 1.438-.722 2.216-.1.8.108 1.492.456 2.212.248.514.47.964.438 1.544-.02.33-.106.62.142.894.2.232.528.264.8.378.532.227.894.73.94 1.306a.318.318 0 0 0 .474.272c1.024-.638 1.49-1.72 1.916-2.8.494-1.254 1.2-2.814 2.774-2.74.636.03 1.118 0 1.6-.448.254-.238.45-.52.748-.71a3.5 3.5 0 0 1 1.086-.4c1.146-.27 2.464-.394 3.106-1.552M40.846 33.2c.62-.412.786-1.256.924-1.942.102-.502.178-1-.442-1.114-.834-.146-1.45.524-2.2.724-.556.148-.768-.06-1.11-.456a1.47 1.47 0 0 0-.75-.474c-.334-.086-.75-.256-1.076.304a.68.68 0 0 0 0 .8c.59.454.224 1.414.624 1.986.358.51 1.18.64 1.756.686a3.73 3.73 0 0 0 2.274-.514M53.01 19.642c.162-.162.36-.326.506-.504l.016-.018a.6.6 0 0 0 .142.544c.296.324.81.23 1.13 0 .536-.388.644-1.05.634-1.668 0-.312-.118-.4.186-.576.238-.132.344-.058.578 0 .346.094.71.22 1.074.112S58 17 57.92 16.58c-.104-.512-.684-.638-1.114-.746-.6-.15-1.256-.254-1.866-.092a2.2 2.2 0 0 0-.8.416c-.2.158-.51.532-.83.662a.26.26 0 0 0-.2-.16c-.686-.118-1.36.2-1.486.946-.148.854.72 1.168.872 1.896a.316.316 0 0 0 .514.14M77.542 68.172c-.64-.258-1.282-.102-1.9.142-.652.258-1.466.778-2.2.562-.826-.246-1.12-1.3-1.6-1.922-.616-.8-1.412-1.358-1.894-2.274-.46-.874-.8-1.8-1.288-2.664a24 24 0 0 0-1.716-2.558c-.566-.75-1.122-1.568-1.788-2.232s-1.704-.862-2.61-1.13l-1.782-.524c-.494-.146-1.066-.4-1.6-.34-.588.062-1.042.634-.824 1.182-.182.294-.726.39-1.024.326-.588-.128-1.038-.686-1.488-1.048a3.5 3.5 0 0 0-1.122-.618c-.6-.2-1.122-.284-1.446-.88-.38-.696-.632-1.52-1.59-1.5-.45 0-.87.228-1.258.428a5 5 0 0 1-2.038.624c-1.884.132-4.154-.468-5.694.99-.62.588-.8 1.378-.972 2.178-.086.386-.162.826-.4 1.15-.316.426-.77.352-1.228.48a.91.91 0 0 0-.722.75c-.062.372 0 .664-.302.974-.218.224-.494.388-.716.614a4.09 4.09 0 0 0-1.13 3.042.32.32 0 0 0 .156.272c.388.18.632.573.624 1-.016.4-.298.64-.5.958a1.1 1.1 0 0 0 .056 1.358c.4.496 1.01.72 1.2 1.37.2.714.182 1.312.684 1.912.55.66 1.186 1.266 1.786 1.884.458.472.96.974 1.614 1.156.572.16 1.126 0 1.648-.238.316-.146.618-.33.946-.448.494-.178.988-.128 1.5-.092.66.044 1.272.014 1.832-.376.256-.178.496-.436.8-.508.444-.104.836.218 1.158.472.422.332.816.698 1.328.886.39.144.89.134 1.05.6.146.424-.046.906-.2 1.3-.242.644-.5 1.304-.2 1.978s.984 1.122 1.382 1.742c.444.693.718 1.481.8 2.3.094.974-.172 1.91-.31 2.866-.246 1.698.096 3.384.582 5.01s.902 3.23 1.348 4.852c.183.695.426 1.373.726 2.026.2.434.452 1.13.926 1.34.712.316 1.758.16 2.506.1.842-.07 1.828-.124 2.554-.6 1.132-.736 1.754-2.128 2.566-3.17.902-1.156 1.914-2.358 2.434-3.746.238-.632.25-1.268.306-1.93.034-.4.076-.856.362-1.164s.68-.364 1.022-.532c1.354-.66 1.494-2.298 1.292-3.618-.164-1.06-.432-2.072-.244-3.152a7.5 7.5 0 0 1 1.022-2.57c1.8-2.968 5-5.072 5.772-8.618a.326.326 0 0 0-.196-.372M76.8 83.168a.316.316 0 0 0-.586-.16c-.288.566-.582 1.166-1.068 1.6s-1.032.63-1.426 1.14a3.06 3.06 0 0 0-.51 2.652c-.708.714-.872 1.92-.528 2.866.4 1.086 1.69.4 2.114-.258.344-.536.434-1.17.572-1.778.184-.812.644-1.418 1.014-2.142.325-.58.566-1.204.718-1.852.134-.752-.338-1.35-.3-2.068M42.452 39.772c-.122.177-.19.385-.2.6q.025.288.014.578c-.065.196-.182.37-.338.504-.278.274-.56.6-.41 1.032s.552.494.938.442a9 9 0 0 0 1.916-.454c.432-.17.352-.54.292-.926-.076-.496-.086-1.056-.428-1.454a1.8 1.8 0 0 0-.636-.454.3.3 0 0 0-.2-.2.8.8 0 0 0-.426-.022.28.28 0 0 0-.342.172 1 1 0 0 0-.18.182M45.752 39.836c.386.526.2.898-.084 1.434-.24.472-.748 1.476-.4 2 .388.566 1.474.2 1.962.02.572-.216.932-.368.86-1.048-.036-.352-.122-.646-.052-1 .038-.2.106-.368.126-.564a2.4 2.4 0 0 0-.174-1.136c-.288-.744-.924-1.252-1.214-1.984-.274-.69-.418-.904-1.128-.864-.366.02-.538.26-.612.6a2.8 2.8 0 0 0 .16 1.744q.232.43.556.798M94.376 69.91a.3.3 0 0 0-.082.184.3.3 0 0 0-.038.146c0 .474-.014.948 0 1.42 0 .316.024.646.248.892.428.472 1.06.2 1.2-.356.064-.34.088-.688.07-1.034a2.1 2.1 0 0 0-.126-1c-.236-.48-.892-.676-1.272-.252M104.722 72.912c-.522-.572-1.11-1.042-1.904-.908a.3.3 0 0 0-.084.016h-.024c-.364.086-.248.61.082.614.51.19.784.676 1.07 1.108l.936 1.418q.356.54.708 1.08.203-.481.4-.968c.132-.324.24-.614.358-.922a17 17 0 0 1-1.542-1.438M69.74 24.042c.488.47.562.486 1.2.64-.03.076.906.166 1.078-.2.23-.082.616-1.318.23-1.758-1.068-1.218 1.482-3.484 2.422-4.142.54-.378.966-1.022.672-1.694s-1.066-.632-1.6-.258c-.4.282-.698.698-1.014 1.06l-1.2 1.36c-.8.908-1.622 1.8-2.4 2.724-.622.764-.006 1.674.612 2.268"/><path fill="#74b140" fill-rule="nonzero" d="M109.8 53.48c0-.116-.01-.234-.014-.352 0-.354-.022-.708-.04-1.062 0-.142-.018-.282-.026-.424-.02-.328-.038-.656-.064-.98q-.02-.23-.04-.46-.037-.469-.084-.938-.025-.225-.052-.45-.05-.468-.108-.936-.029-.218-.06-.436-.065-.471-.132-.94-.035-.207-.07-.414-.075-.478-.158-.95l-.074-.388c-.062-.324-.122-.646-.188-.968q-.037-.176-.078-.356-.103-.495-.216-.986l-.08-.33q-.118-.502-.246-1-.04-.151-.082-.3c-.09-.342-.18-.682-.278-1.02q-.038-.132-.078-.266c-.102-.346-.2-.694-.312-1.038q-.037-.119-.078-.238a75 75 0 0 0-.344-1.054l-.074-.21a48 48 0 0 0-.38-1.068q-.034-.093-.068-.182-.202-.544-.416-1.082l-.062-.156q-.22-.549-.45-1.092l-.056-.128q-.24-.556-.488-1.106-.025-.05-.05-.104-.255-.558-.524-1.114l-.04-.082q-.276-.562-.56-1.118l-.034-.062-.6-1.122-.026-.044c-.2-.376-.418-.752-.632-1.122l-.018-.028q-.328-.564-.668-1.122v-.014q-.345-.562-.704-1.116a55 55 0 0 0-7.528-9.258c-.134-.134-.27-.264-.4-.4a60 60 0 0 0-.894-.848l-.022-.02q-.45-.416-.908-.822l-.022-.018q-.462-.4-.932-.8-.479-.4-.962-.8a.68.68 0 0 0-.65.378c-.2.326-.12.728-.13 1.088-.014.456-.344.62-.752.776q-.472.183-.942.374c-1.014.422-2.19.906-2.952 1.73-.456.492-.678 1.236-.388 1.818-.746.184-1.502.558-1.6 1.4-.102.952.752 1.438 1.35 2.034-.782.026-1.514-.386-2.19-.782a.318.318 0 0 0-.472.272c-.019.27.008.54.078.8-.63.184-.768.906-.708 1.57a4.4 4.4 0 0 1-.734-.382c-.444-.296-.646-.676-.884-1.134-.292-.562-.928-1.2-1.6-.756-.61.4-.51 1.166-.256 1.742.362.82.784 1.622 1.2 2.424l-1.268-.308a6.6 6.6 0 0 0-1.368-.306c-.626-.022-1.144.36-1.156.962-1.4.218-2.92.38-4.236.888-.44.147-.826.42-1.11.786a2.5 2.5 0 0 0-.304.656q-.048.237-.156.454-.06.093-.118.186-.773.023-.628-.388v-.014q.015-.038.032-.074c.126-.33-.42-.562-.574-.242l-.91 1.912c-.188.4-.336.786-.8.904a2.2 2.2 0 0 1-.86.034 2.72 2.72 0 0 1-2.118-1.636c.934.2 1.8.744 2.776.342.348-.125.626-.392.766-.734.15-.432-.24-.8-.562-1.054-.886-.678-2.134-.772-3.168-1.092-1.2-.374-2.366-1.236-3.634-1.35-1.18-.108-1.878.692-2.454 1.6a40 40 0 0 1-2.6 3.568c-.842 1.058-1.658 1.88-2.856 2.52-.944.504-1.476 1.252-1.222 2.354.212.922.87 2.286 1.97 2.322 1.014.034 1.4-.982 1.948-1.672.175.315.31.651.4 1 .104.4.094.842.272 1.216.276.574.906.704 1.454.426.718-.364.872-1.08 1-1.814.13-.812.498-1.364.066-2.134-.314-.558-.364-1.018-.026-1.588.246-.416.612-.75.898-1.138q.343-.523.6-1.094c.104-.245.279-.454.502-.6.428-.226.748.2.668.6s-.484.778-.744 1.114c-.231.294-.419.62-.556.968-.252.636-.336 1.39-.036 2.026.127.318.365.58.67.736.362.148.65-.06.964-.218.934-.464 2-.59 3.016-.356-.33.358-.742.633-1.2.8-.576.2-1.174.15-1.766.26-.932.17-1.532.8-1.366 1.772.128.742-.016 1.38-.8 1.656-.464.164-.978.16-1.462.224-.42.034-.825.16-1.19.37-.158.102-.264.26-.41.366-.422.3-.768.102-1.144-.172a.26.26 0 0 0-.254-.04c-1.46-.41-2.752.454-3.372 1.8-.412.89-.868 1.544-1.836 1.86-.812.266-1.686.282-2.532.282a.318.318 0 0 0-.222.536l1.332 1.312c.436.428 1.042.962.4 1.542-.412.376-1.114.478-1.648.568a9.5 9.5 0 0 1-2 .11c-.4-.016-.4.612 0 .628h.178c-.264.95-.478 1.968-.098 2.912.338.84 1.058 1.42 1.982 1.4.756-.01 2-.258 2.33-1.048.214-.53.27-1.022.646-1.49a7.5 7.5 0 0 1 1.328-1.2.318.318 0 0 0 0-.542l-.2-.11a.8.8 0 0 0 .23-.044.78.78 0 0 0 .36-.296c.222-.326.2-.768.2-1.144 0-.066.05-.708.166-.648.16.086.092.898.108 1.068.038.416.214.922.624 1.106.45.2.758-.092 1.032-.4.2-.228.298-.48.656-.384.194.07.367.19.5.348a2.8 2.8 0 0 1 .494.892c.2.474.428.986.878 1.278.228.146.664.122.84.274l.168.516a.76.76 0 0 1-.486.312q-.306.075-.622.082a.318.318 0 0 0-.222.536 1.814 1.814 0 0 0 2.166.344 1.8 1.8 0 0 0 .758-.854c.186-.4.3-1.048.8-1.142a.318.318 0 0 0 .074-.574 8.2 8.2 0 0 1-2.754-2.05c-.116-.136-.548-.486-.158-.614.102-.034.634.45.73.52l1.57 1.136c.478.346.962.672 1.226 1.222.248.518.316 1.108.524 1.642s.694 1.264 1.372.89c.578-.318.582-1.082.522-1.64-.02-.188-.112-.6 0-.772.356-.6.776.082.886.372.138.36.146.762.28 1.124.318.856 1 .984 1.836 1 1.188.034 2.376.062 3.564.094a4.1 4.1 0 0 1-.622 1.694c-.3.456-.824.832-1 1.36-.35 1.036.816 1.552 1.044 2.424.05.164.22.26.386.22.926-.166 1.842 1.424 2.21 2.08.446.8.66 1.674 1.056 2.488.654 1.35 2.344 2.276 2.49 3.846a.32.32 0 0 0 .4.304c3.528-.77 7.584-1.856 9.072-5.554a.316.316 0 0 0-.22-.386c-1.292-.258-1.51-1.934-2.238-2.93q.192.04.37.122c.37.178.6.544.93.788.55.42 1.2.4 1.86.338 1.036-.102 2.07-.222 3.104-.332l.05-.01c.462.8.904 1.61 1.416 2.368.368.544.8.936 1.488.842a.3.3 0 0 0 .22-.22q.048-.271.1-.542c.52 1.25.566 2.738 1 4 .552 1.62 1.352 3.138 2.152 4.648.09.146.28.195.43.112 1.908-.914 1.8-3.264 2.138-5.034a4.4 4.4 0 0 1 .524-1.502c.332-.534.868-.8 1.306-1.232a4.6 4.6 0 0 0 1.096-1.944c.175.209.404.365.662.452.39.128.64-.01 1.014-.056.646-.08.986.572 1.312 1.052q.433.638.772 1.332c.184.38.284.864.56 1.188.38.448.88.272 1.264-.038.462.892.574 1.892.718 2.884.128.983.38 1.945.752 2.864a10.6 10.6 0 0 0 1.488 2.514q.21-.6.412-1.2v-.016q.2-.6.384-1.2.346-1.125.642-2.266l.084-.34q.1-.394.2-.8a32 32 0 0 0 .3-1.342c.04-.2.08-.388.118-.582q.047-.231.09-.466.105-.552.2-1.108.022-.123.04-.246.122-.749.226-1.5.076-.556.138-1.116.084-.727.148-1.464c0-.05 0-.098.014-.148a59 59 0 0 0 .114-1.62c0-.168.018-.338.026-.508q.025-.53.04-1.062v-.268q.015-.623.016-1.244zm-39.724-3.73c-.6.272-1.528.318-2.056-.1-.48-.38-.978-.364-1.552-.2-.502.146-.856.49-1.324.68-.646.264-1.22-.118-1.154-.812.102-1.058.6-2.19.966-3.178a.32.32 0 0 1 .518-.114q.684-.139 1.37-.262c.432-.078.966-.262 1.4-.2.8.126.27.854.164 1.292a.266.266 0 0 0 0 .4c.14.117.302.204.476.258.222.082.454.13.674.212.321.098.607.288.822.546.39.506.292 1.204-.304 1.478m4.768-.37c.076-.4-.718-.97-.932-1.25-.826-1.09-.776-2.832.756-3.26.546-.152 1.25 0 1.504.55a.86.86 0 0 1-.23 1.05c-.046.52.08 1.042.36 1.484.29.412.732.428 1.074.73.203.192.28.482.2.75a1.05 1.05 0 0 1-.2.378c-.046.058-.162.126-.2.19-.116.25-.04.114.098.284.35.434.732.918.294 1.468s-1.152.42-1.662.116c-.59-.352-1.218-.918-1.29-1.638-.03-.358.168-.542.228-.852m2.884 9.324c-.828-.034-1.502-.584-2-1.2q-.39-.51-.684-1.08c-.09-.17-.39-.628-.114-.782.238-.134.54.19.676.336.534.572.938 1.112 1.674 1.454.658.278 1.37.403 2.084.364h.056c-.276.638-.998.936-1.692.908"/></g></svg>