<svg xmlns="http://www.w3.org/2000/svg" xml:space="preserve" width="235.256" height="158.918" viewBox="14.234 15.6 235.256 158.918"><title>bear-walk-b</title><g fill-rule="nonzero"><path fill="#856045" d="M73.5 95s2.3 23.2-19.3 44.7c-10.8 10.8-18.8 20.4-17.6 23.4 1.1 2.9 6.1 6.1 4.3 7.3s-11.2 4-25.1-5.4c-1.7-1.1-.2-23.9 4.1-35.8 4.3-12 9.4-18.1 10.6-27.2 1.2-9.2.2-26.9 5-33.2s14-17.3 28.5-7.4S75.2 89 73.5 95"/><path fill="#59402f" d="M33.9 171.5s.1-.3.1-.7c0-.5-.2-1.1-.5-1.6s-.7-1-1.1-1.2c-.4-.3-.6-.4-.6-.4s0 .1.1.2.1.3.3.5c.2.4.5.8.8 1.3s.5.9.7 1.3c.1.4.2.6.2.6M38.5 171.1s.1-.3.1-.8-.2-1.2-.6-1.7c-.2-.3-.4-.5-.6-.8-.2-.2-.5-.4-.7-.5s-.4-.2-.6-.2c-.1-.1-.2-.1-.2-.1s0 .1.1.2.2.3.4.4c.3.4.7.8 1 1.3s.6 1 .8 1.5c.2.3.3.7.3.7"/><path fill="#665a52" d="M32.1 172.3c.1-.6-.5-3.4-1.6-3.5s-.5 1.1-.1 1.9 1.6 2 1.7 1.6M37.6 172.4c.1-.6-.5-3.4-1.6-3.5s-.5 1.1-.1 1.9c.5.7 1.7 2 1.7 1.6M40.6 171.4c.1-.6-.5-3.4-1.6-3.5s-.5 1.1-.1 1.9c.5.8 1.7 2 1.7 1.6"/><path fill="#856045" d="M31.1 103.2s-9 9.1-11.4 8.6c0 0 2 2.1 4 .8 0 0-4.6 1.3-6.2 5.6l3-.6s-4.8 5.8-4.9 10.2l3.2-2.8s-4.1 6-.3 10.1"/><path fill="#59402f" d="M19.9 111.9h.5c.3-.1.8-.2 1.3-.4 1.1-.5 2.3-1.3 3.5-2.3.6-.5 1.2-1 1.7-1.5l1.4-1.4c.8-.9 1.2-1.5 1.2-1.5s-.6.4-1.5 1.2c-.9.7-2 1.7-3.2 2.6-.6.5-1.2.9-1.7 1.4-.6.4-1.1.8-1.6 1.1s-.9.5-1.2.7c-.2.1-.4.1-.4.1M17.6 118.2s.3-.4.7-.9 1-1.2 1.6-1.9l.9-.9c.3-.3.6-.5.9-.7s.5-.4.7-.4c.2-.1.3-.2.3-.2h-.3c-.2 0-.5.1-.8.2s-.7.3-1.1.6c-.4.2-.7.6-1.1.9-.3.3-.6.7-.8 1.1s-.4.7-.6 1c-.3.7-.4 1.2-.4 1.2M15.8 127.5s0-.7.4-1.7c.2-.5.4-1 .6-1.6l.9-1.8c.3-.6.7-1.2 1-1.8s.7-1.1.9-1.5c.3-.4.5-.8.7-1.1s.2-.4.2-.4-.1.1-.4.3l-.9.9c-.3.4-.7.9-1.1 1.4s-.8 1.1-1.1 1.8c-.7 1.2-1.2 2.6-1.3 3.7-.1.5-.1 1-.1 1.3.1.4.2.5.2.5M17.6 133.7s-.1-.1-.2-.3-.1-.6-.2-1c0-.8.1-1.9.3-2.9.2-1.1.6-2.1.8-2.9.3-.8.4-1.3.4-1.3s-.1.1-.2.3-.3.5-.5.9-.4.8-.6 1.3c-.1.2-.2.5-.3.8s-.2.5-.2.8c-.1.6-.2 1.1-.2 1.7 0 .5.1 1.1.2 1.5s.3.7.4 1c.2 0 .3.1.3.1M19.5 129s-.7 2.4-1.5 6c-.4 1.8-.9 3.9-1.3 6.2q-.6 3.45-1.2 7.2c-.3 2.5-.6 4.9-.7 7.3-.1 2.3-.1 4.5.1 6.4.1.9.3 1.8.6 2.5.1.2.1.3.3.5.1.2.3.2.4.3.3.2.5.3.8.5 1 .5 1.5.8 1.5.8l-1.5-.9c-.2-.1-.5-.3-.7-.5-.1-.1-.3-.2-.4-.3s-.1-.3-.2-.5c-.2-.7-.4-1.5-.5-2.5-.2-1.8-.1-4 .1-6.3s.5-4.8.8-7.2c.3-2.5.7-4.9 1.1-7.2s.8-4.4 1.1-6.3c.8-3.6 1.2-6 1.2-6M73.2 108.8s-1.9 4-4.9 9.8c-1.5 2.9-3.3 6.3-5.4 9.9-1 1.8-2.2 3.6-3.4 5.3-.6.9-1.3 1.7-2 2.6-.7.8-1.5 1.5-2.3 2.3-3.2 3.1-6.3 6.2-9.1 9.2s-5.4 5.9-7.3 8.6c-.5.7-.9 1.3-1.3 2s-.6 1.4-.8 2-.5 1.2-.5 1.9c0 .6.3 1.1.5 1.5.5.8 1.1 1.3 1.5 1.7l.6.6s-.2-.2-.5-.6-.9-.9-1.4-1.8c-.2-.4-.4-.9-.4-1.5s.3-1.1.5-1.7c.3-.6.5-1.3.9-1.9s.8-1.3 1.3-2c2-2.6 4.6-5.5 7.4-8.5s6-6.1 9.1-9.2c.8-.8 1.6-1.5 2.3-2.4s1.4-1.7 2-2.6c1.2-1.8 2.3-3.6 3.4-5.4 2.1-3.6 3.8-7 5.3-10s2.6-5.5 3.4-7.2c.7-1.6 1.1-2.6 1.1-2.6"/><path fill="#856045" d="M176.2 94.3c-5.3 22.3-11.9 27.4-13.3 33.8-1.3 6.4-2.8 30.4-1.7 33.4s5.3 3.5 5.7 6.8-23.8 1.6-26.5-.5-14.3-43.9-11.1-66.7c9.4-46 52.3-29 46.9-6.8"/><path fill="#8d674a" d="M138.6 81s-8.1 10-10.4 9.7c0 0 2.2 1.9 4 .4 0 0-4.4 1.7-5.6 6.2l2.9-.9s-4.2 6.3-3.8 10.6l2.9-3.1s-3.4 6.3.7 10.1"/><path fill="#59402f" d="M141.1 168.2s-.2-.1-.5-.4-.7-.9-1-1.7c-.4-.8-.7-1.7-1.1-2.8-.3-1.1-.7-2.4-1.1-3.8-.8-2.8-1.7-6-2.6-9.5s-1.8-7.3-2.6-11c-.8-3.8-1.5-7.6-1.9-11.2s-.6-7-.8-9.9-.3-5.3-.3-7v-2.7s-.1 1-.2 2.7c0 1.7-.1 4.1 0 7 .1 1.4.1 3 .2 4.7s.2 3.4.4 5.2c.4 3.6 1 7.4 1.8 11.2.4 1.9.8 3.8 1.3 5.6.4 1.9.9 3.7 1.4 5.4.9 3.5 1.9 6.7 2.8 9.5.8 2.8 1.6 5.1 2.4 6.6.4.8.8 1.3 1.1 1.6.4.5.7.5.7.5M164 164.4s-.2-.1-.6-.4-.9-.7-1.3-1.4c-.5-.7-.9-1.6-1.1-2.7s-.1-2.4 0-3.9c.3-5.8.2-13.4 1.1-21 .2-1.9.5-3.8 1-5.6s1.1-3.5 1.8-5.2c1.4-3.3 2.9-6.3 4.2-8.9s2.2-4.8 2.7-6.4c.3-.8.5-1.4.6-1.9.1-.4.2-.7.2-.7s-.1.2-.2.7c-.1.4-.4 1-.7 1.8s-.7 1.7-1.2 2.8c-.5 1-1.1 2.2-1.8 3.5-1.3 2.5-3 5.5-4.4 8.8-.7 1.7-1.4 3.4-1.9 5.3-.5 1.8-.8 3.8-1 5.7-.4 3.8-.6 7.7-.7 11.3s0 7-.1 9.8c0 1.4-.1 2.8.1 3.9.2 1.2.7 2.1 1.2 2.8s1.1 1.1 1.4 1.3c.5.4.7.4.7.4M159.6 170.7s0-.3-.1-.8-.4-1.1-.8-1.7c-.4-.5-.9-1-1.4-1.2-.4-.3-.8-.4-.8-.4s0 .1.1.2.2.3.4.5c.3.4.7.9 1.1 1.3.4.5.7 1 1 1.4s.5.7.5.7M165.1 170s0-.4-.2-.9-.6-1.2-1.1-1.8c-.3-.3-.6-.6-.9-.8s-.6-.4-.9-.5-.5-.2-.7-.2-.3-.1-.3-.1l.2.2c.1.1.3.3.5.4l1.4 1.4c.5.5.9 1.1 1.3 1.5.5.5.7.8.7.8"/><path fill="#665a52" d="M158.7 172.1c0-.6-1-3.3-2.1-3.2-1.1 0-.3 1.1.2 1.8s1.9 1.8 1.9 1.4M164.2 171.4c0-.6-1-3.3-2.1-3.2-1.1 0-.3 1.1.2 1.8s1.9 1.8 1.9 1.4M167.6 170.4c0-.6-1-3.3-2.1-3.2-1.1 0-.3 1.1.2 1.8s1.9 1.8 1.9 1.4"/><path fill="#8d674a" d="M46.1 53.2s-10.3-3.8-21.2 11.7c0 0 3.1-2.5 5-2.5 0 0-4.9 1.7-6.2 10 0 0 1.9-3.3 3.3-3.6 0 0-6.9 9.3 3.2 11.1 10.1 1.9 18.3-24.4 15.9-26.7"/><path fill="#59402f" d="M24.9 64.9s.2-.3.6-.8 1-1.2 1.7-2 1.6-1.7 2.6-2.6c.5-.5 1-.9 1.5-1.4s1.1-.9 1.7-1.3l1.8-1.2c.6-.3 1.2-.7 1.8-1 .6-.2 1.2-.6 1.8-.7.6-.2 1.1-.4 1.7-.5.5-.1 1-.2 1.4-.2.4-.1.8 0 1.1-.1h1s-.4 0-1-.1c-.3 0-.7-.1-1.2-.1-.4 0-.9.1-1.5.1-.5.1-1.1.2-1.7.4-.6.1-1.2.4-1.9.7-.6.3-1.3.6-1.9 1l-1.8 1.2c-.6.5-1.2.9-1.7 1.4s-1.1 1-1.5 1.4c-1 1-1.8 2-2.4 2.8-1.4 1.7-2.1 3-2.1 3M29.9 62.4s-.7.3-1.6 1c-.5.3-1 .8-1.4 1.3-.5.5-1 1.1-1.4 1.8s-.8 1.3-1 2c-.1.3-.3.7-.3 1-.1.3-.2.6-.2.9-.1.6-.1 1-.1 1.4v.5s.1-.2.1-.5c0-.2.1-.4.1-.6.1-.2.2-.5.2-.7.1-.3.2-.5.3-.8s.2-.6.4-.9c.1-.3.3-.6.5-.9l.6-.9c.8-1.2 1.8-2.4 2.5-3.2.8-.9 1.3-1.4 1.3-1.4M27 68.8s-.5.4-1 1.1c-.3.4-.6.8-.8 1.3-.3.5-.5 1.1-.6 1.7s-.2 1.2-.1 1.8c0 .3.1.6.1.8.1.3.1.5.2.7l.5 1c.1.2.2.3.2.3s0-.1-.1-.4c0-.1-.1-.3-.1-.4 0-.2-.1-.4-.1-.6-.1-.2-.1-.4-.1-.7 0-.2-.1-.5 0-.8v-.8c0-.3.1-.6.1-.8.1-.6.3-1.1.5-1.6s.4-1 .6-1.4c.4-.7.7-1.2.7-1.2"/><path fill="#8d674a" d="M189.3 84.1s-.1 7.8-3.5 10.9l-.2-2.8s-1.1 8.8-7.7 11.3l.8-2.6s-7.4 4.5-7.5 7.9l-1.2-2s-6.8 5.7-9.8 3.7"/><path fill="#8d674a" d="M167.4 28.6c-17.9-5.9-43.1 3.1-54.4 7.2-16.5 5.8-36.1-10.5-63.3 11.1s-22.4 54.5-2.5 71c22.2 18.4 101.7 19.7 116.2-8.4 0 0 26.5-9.8 28.1-37.1"/><path fill="#59402f" d="M189.5 84.1s-.2.7-.4 1.7-.5 2.4-.9 3.8c-.1.3-.2.7-.3 1s-.2.7-.3 1c-.2.6-.4 1.2-.6 1.6-.1.2-.2.5-.3.6-.1.2-.2.4-.3.4-.2.2-.3.4-.3.4s.1-.1.4-.3c.1-.1.3-.2.4-.4.2-.2.3-.4.5-.6.3-.4.6-1 .9-1.6s.5-1.3.7-2c.3-1.4.5-2.8.6-3.9-.1-.9-.1-1.7-.1-1.7M185.6 92.1s-.2.9-.7 2.1c-.2.6-.5 1.4-.8 2.1-.2.4-.4.8-.6 1.1-.2.4-.4.8-.6 1.1-.2.4-.5.7-.7 1.1-.3.3-.5.7-.8 1s-.5.6-.8.8-.5.5-.8.7-.5.4-.7.5-.4.3-.6.4c-.3.2-.5.3-.5.3s.2-.1.6-.2c.2-.1.4-.2.7-.3.2-.1.5-.3.8-.4l.9-.6c.3-.2.6-.5.9-.8s.6-.6.9-1c.3-.3.5-.7.8-1.1q.75-1.2 1.2-2.4c.3-.8.5-1.6.7-2.2.1-1.3.1-2.2.1-2.2M178.7 101s-.7.2-1.6.7c-.5.3-1 .6-1.5 1s-1.1.8-1.6 1.3-1 1-1.4 1.6c-.4.5-.7 1.1-.9 1.6-.1.3-.2.5-.2.7-.1.2-.1.4-.1.5-.1.3-.1.5-.1.5l.2-.4c.1-.1.1-.3.2-.5s.2-.4.4-.6c.1-.2.3-.4.5-.7.2-.2.4-.5.6-.7.4-.5.9-1 1.4-1.4.5-.5 1-.9 1.5-1.3s1-.8 1.4-1.1c.7-.8 1.2-1.2 1.2-1.2M170.1 106.9l-1.5 1c-.5.3-1 .6-1.6.9s-1.2.7-1.8.9c-.6.3-1.3.6-1.9.8l-.9.3c-.3.1-.6.1-.8.2-.3 0-.5.1-.7.1h-1.1s.2 0 .5.1c.2 0 .3.1.6.1h.7c.5 0 1.2-.1 1.8-.3.7-.2 1.3-.4 2-.7s1.3-.7 1.8-1.1c.6-.4 1.1-.8 1.5-1.1.9-.7 1.4-1.2 1.4-1.2M146.4 27s-3.1.1-7.7.9c-1.1.2-2.4.4-3.7.7s-2.7.6-4.1.9-2.9.7-4.3 1.1c-1.5.4-3 .9-4.4 1.4-2.9 1-5.7 2.3-8.5 3.3-1.4.5-2.7.8-4 1-1.3.3-2.5.4-3.7.5-1.1.1-2.2.1-3.2.2h-2.4c-1.4 0-2.1-.1-2.1-.1s.8.1 2.1.2c.7.1 1.5.1 2.4.1h3.2c1.2-.1 2.4-.2 3.7-.4s2.7-.5 4.1-1c2.8-.8 5.6-2.2 8.5-3.2 1.5-.5 2.9-.9 4.4-1.3s2.9-.8 4.3-1.2c2.8-.7 5.4-1.3 7.7-1.8s4.2-.8 5.5-1c1.4-.1 2.2-.3 2.2-.3M72.3 36s-1.2.2-3.2.8-5 1.6-8.3 3.1-7.1 3.5-10.8 6.2-7.3 6.1-10.2 10.1c-1.4 2-2.7 4.2-3.7 6.3-1.1 2.1-2 4.3-2.9 6.5-.8 2.1-1.5 4.3-1.9 6.3-.4 2.1-.7 4-.7 5.9-.1 3.7.5 6.7.8 8.8.4 2.1.6 3.3.6 3.3s-.2-1.2-.4-3.3c-.3-2.1-.7-5.1-.5-8.8.1-1.8.4-3.8.8-5.8.5-2 1.2-4.1 2-6.2.9-2.1 1.8-4.2 2.9-6.4 1-2.2 2.2-4.2 3.7-6.2 2.8-3.9 6.3-7.3 10-10.1 3.6-2.7 7.4-4.8 10.6-6.4 3.3-1.6 6.1-2.6 8.2-3.3 1.8-.6 3-.8 3-.8M157.8 116.6s-.4.3-1 .7c-.7.4-1.7 1.1-3 1.8-.7.4-1.4.8-2.2 1.2s-1.7.8-2.7 1.3c-1 .4-2 .9-3.1 1.4-1.1.4-2.3.9-3.5 1.4s-2.5.9-3.8 1.4-2.7.8-4.2 1.3c-2.9.8-5.9 1.5-9.1 2.1-.8.1-1.6.3-2.4.5-.8.1-1.6.2-2.5.3-.8.1-1.7.2-2.5.3s-1.7.2-2.5.2c-.8.1-1.7.1-2.6.2s-1.7.1-2.6.1c-1.7 0-3.5.1-5.2.1-3.5-.1-6.9-.1-10.3-.5-3.4-.2-6.8-.6-10-.9l-4.8-.6c-1.6-.2-3.1-.5-4.5-.7-2.9-.5-5.7-1-8.2-1.6s-4.8-1.3-6.8-1.9c-1-.3-1.9-.7-2.8-1-.8-.4-1.6-.6-2.3-1-1.4-.6-2.4-1.3-3.1-1.7-.7-.5-1-.8-1-.8s.3.3 1 .8 1.7 1.1 3.1 1.8c.7.4 1.5.7 2.3 1.1.9.3 1.8.7 2.8 1.1 2 .7 4.3 1.4 6.8 2s5.3 1.2 8.2 1.8c1.5.2 3 .5 4.5.8 1.6.2 3.1.4 4.8.6 3.2.3 6.6.7 10 1s6.9.4 10.4.5c1.7 0 3.5-.1 5.2-.1.9 0 1.7-.1 2.6-.2s1.7-.1 2.6-.2 1.7-.1 2.5-.2 1.7-.2 2.5-.4c.8-.1 1.7-.2 2.5-.4.8-.1 1.6-.3 2.4-.5 3.2-.6 6.3-1.4 9.1-2.2 1.4-.5 2.8-.8 4.2-1.3 1.3-.5 2.6-.9 3.8-1.4s2.4-1 3.5-1.4c1.1-.5 2.1-1 3.1-1.4.9-.5 1.8-.9 2.6-1.4s1.5-.9 2.2-1.2c1.3-.8 2.3-1.4 3-1.9.7-.6 1-.9 1-.9M128.3 90.7s.2 0 .5-.1.8-.3 1.3-.6c1-.6 2.2-1.6 3.3-2.6.5-.5 1.1-1.1 1.5-1.6.5-.5.9-1.1 1.2-1.5.7-.9 1.1-1.6 1.1-1.6s-.6.5-1.4 1.3l-2.9 2.9c-.5.5-1.1 1.1-1.6 1.5-.5.5-1 .9-1.4 1.3s-.8.6-1.1.8c-.3.1-.5.2-.5.2M126.8 97.2s.2-.4.6-1c.3-.6.8-1.3 1.3-2 .3-.3.5-.7.8-1s.6-.5.8-.8c.2-.2.5-.4.6-.5.2-.1.2-.2.2-.2s-.1 0-.3.1c-.2 0-.5.1-.8.3s-.7.4-1 .7-.7.6-.9 1c-.3.4-.5.8-.7 1.2s-.3.8-.4 1.1c-.2.6-.2 1.1-.2 1.1M125.9 106.4s-.1-.7.1-1.7c.1-.5.2-1.1.4-1.7s.4-1.2.7-1.9c.3-.6.5-1.2.8-1.8s.5-1.1.8-1.6c.2-.5.4-.8.6-1.1.1-.3.2-.4.2-.4s-.1.1-.3.4c-.2.2-.5.6-.8 1s-.6.9-1 1.5l-.9 1.8c-.3.6-.5 1.3-.6 2-.2.6-.2 1.3-.2 1.8s.1 1 .1 1.3.1.4.1.4M129.1 113.6s-.5-.5-.8-1.3c-.2-.4-.3-.9-.4-1.5s-.1-1.2-.1-1.8c0-.3 0-.6.1-.9 0-.3.1-.6.1-.9.1-.6.2-1.1.3-1.6s.2-.9.2-1.1c.1-.3.1-.4.1-.4s-.1.1-.2.4-.3.6-.5 1.1-.4 1-.5 1.6c-.1.3-.2.6-.2.9s-.1.6-.1 1c0 .7 0 1.3.2 1.9 0 .3.2.6.3.9s.2.5.4.7c.3.4.6.7.8.9.1.1.3.1.3.1"/><path fill="#8d674a" d="M91 82.6s4.3 30.7 2.7 43.8c-.5 4.2-1.5 7.2-2.1 12.3-2 18.1-2 22 .1 24.3s9.3 5.9 8.1 7.7-21.7 4.2-26.4 2.8c-1.9-.6-20.5-33.1-23.3-49.8-2.1-12.5 2.6-11.7.3-20.7s-10.2-23.6-8-31.2S52.5 51.1 69.7 55 90.3 76.4 91 82.6"/><path fill="#59402f" d="M92.5 172.4s0-.3-.3-.8c-.2-.5-.6-1-1.2-1.4-.5-.4-1.1-.7-1.6-.9s-.8-.2-.8-.2l.2.2c.1.1.3.2.5.4.4.3.9.7 1.3 1.1.5.4.9.8 1.3 1.1.3.2.6.5.6.5M97.9 170.8s-.1-.4-.5-.9c-.3-.5-.9-1.1-1.5-1.5-.3-.2-.7-.4-1-.5s-.7-.2-1-.3-.5-.1-.7-.1h-.3s.1.1.2.1l.6.3c.5.3 1.1.6 1.7 1s1.2.9 1.6 1.2c.6.5.9.7.9.7"/><path fill="#6c5f57" d="M91.9 173.9c-.2-.6-1.7-2.9-2.8-2.6s-.1 1.2.6 1.7c.8.6 2.4 1.3 2.2.9M97.1 172c-.2-.6-1.7-2.9-2.8-2.6s-.1 1.2.6 1.7 2.3 1.3 2.2.9M100.4 170.8c-.2-.6-1.7-2.9-2.8-2.6s-.1 1.2.6 1.7c.7.6 2.3 1.3 2.2.9"/><path fill="#8d674a" d="M50.1 109.4s-2.7 12.5-4.9 13.4c0 0 2.8.7 3.7-1.5 0 0-3.2 3.6-2.2 8l2.2-2.2s-.8 7.5 1.4 11.2l1.2-4.1s-.2 7.2 5.2 8.6"/><path fill="#59402f" d="M45.4 122.7s.2-.1.4-.3.6-.6.9-1.1c.6-1 1.2-2.4 1.7-3.8.2-.7.4-1.5.6-2.1.2-.7.3-1.3.4-1.9.2-1.1.2-1.9.2-1.9s-.3.7-.6 1.8c-.4 1.1-.8 2.5-1.3 3.9-.2.7-.5 1.4-.7 2.1s-.5 1.3-.7 1.8q-.3.75-.6 1.2zM46.9 129.2s0-.5.1-1.1q0-1.05.3-2.4l.3-1.2c.1-.4.2-.7.4-1 .1-.3.2-.6.3-.7.1-.2.1-.3.1-.3l-.2.2q-.3.15-.6.6c-.2.3-.4.6-.6 1s-.3.9-.4 1.3c-.1.5-.1.9-.1 1.4 0 .4.1.8.1 1.2.1.6.3 1 .3 1M50.4 138.2s-.4-.6-.7-1.6c-.2-.5-.3-1.1-.4-1.7s-.2-1.3-.3-2-.1-1.4-.1-2v-3.6s0 .2-.1.5-.2.7-.2 1.3c-.1.5-.2 1.2-.2 1.8v2.1c.1.7.2 1.4.4 2.1s.4 1.3.6 1.7c.2.5.5.9.7 1.1zM55.2 142.3s-.1-.1-.3-.2-.4-.4-.7-.7c-.5-.6-.9-1.6-1.3-2.6s-.6-2.1-.9-2.9c-.2-.8-.4-1.3-.4-1.3v1.4c0 .4.1.9.2 1.4.1.3.1.5.2.8s.2.5.2.8c.2.5.4 1.1.7 1.5q.45.75.9 1.2c.3.3.7.5.9.6zM54.1 138.2s1.1 2.5 2.8 6.2c.9 1.8 1.9 4 3 6.2 1.1 2.3 2.4 4.7 3.6 7.1 1.3 2.4 2.6 4.8 3.8 7s2.5 4.2 3.7 5.9c.6.8 1.1 1.6 1.7 2.2.3.3.5.6.8.8.4.1.7.1 1 .2h1.9s-.7 0-1.9-.1c-.3 0-.6-.1-.9-.2-.2-.2-.5-.5-.7-.8-.5-.6-1-1.4-1.6-2.3-1.1-1.7-2.2-3.8-3.5-6-1.2-2.2-2.5-4.6-3.7-7-5-9.7-10-19.2-10-19.2M92.4 97.8s.4 4.3.9 10.7c.2 3.2.4 7 .4 11 0 2 0 4.1-.3 6.2-.2 2.1-.7 4.2-1 6.3-.7 4.3-1.2 8.6-1.6 12.6s-.6 7.8-.7 11c0 1.6-.1 3.1.1 4.4q.15 1.05.6 1.8c.3.5.6.9 1 1.2.7.7 1.3 1.1 1.7 1.4s.6.4.6.4-.2-.2-.6-.5-1-.7-1.6-1.4-1.3-1.7-1.4-3 0-2.8 0-4.4c.1-3.2.5-7 .9-11s.9-8.3 1.6-12.5c.3-2.1.8-4.2 1-6.4.2-2.1.2-4.2.2-6.3-.1-4.1-.4-7.8-.6-11.1-.3-3.2-.6-5.9-.9-7.8-.2-1.6-.3-2.6-.3-2.6"/><path fill="#8d674a" d="M152.4 87.4c1.1 16.4-2.2 22.8-2.2 22.8s20.9 6.7 22.4 9.6c3.9 7.3-6.5 31.8-12.4 28-5.6-3.6-3.2-13.2-3.2-13.2s-19.9-4.5-21.5-5c-3.2-1.1-21.5 1.7-25.6-21-5.4-46.8 41-44.1 42.5-21.2"/><path fill="#8d674a" d="M112.4 86.4s-4.6 12-6.9 12.5c0 0 2.7 1.1 3.9-.9 0 0-3.7 3-3.4 7.6l2.5-1.8s-2 7.3-.4 11.3l1.8-3.8s-1.3 7.1 3.8 9.3"/><path fill="#59402f" d="M105.7 98.8s.2 0 .5-.2.7-.5 1-.9c.8-.9 1.6-2.2 2.3-3.5.3-.7.7-1.4.9-2 .3-.7.5-1.3.7-1.8.3-1.1.5-1.8.5-1.8s-.4.7-.9 1.7-1.2 2.4-1.9 3.7c-.3.7-.7 1.3-1 1.9s-.7 1.2-1 1.6c-.3.5-.6.8-.8 1.1-.1.2-.3.2-.3.2M106.1 105.7s.1-.5.3-1.1c.2-.7.4-1.6.7-2.4.1-.4.3-.8.5-1.2.1-.2.2-.4.3-.5.1-.2.2-.3.3-.5.2-.3.3-.5.5-.7.1-.2.2-.3.2-.3s-.1.1-.3.2-.4.3-.7.5l-.4.4c-.1.2-.3.3-.4.5-.2.4-.4.8-.6 1.3-.3.9-.4 1.9-.4 2.6-.1.8 0 1.2 0 1.2M108.1 115.2s-.2-.7-.3-1.8-.1-2.5 0-3.9c0-.7.1-1.4.2-2.1q.15-1.05.3-1.8c.1-.5.1-1 .2-1.3 0-.3.1-.5.1-.5s-.1.2-.2.5-.3.7-.4 1.2c-.3 1-.6 2.5-.8 3.9-.1.7-.1 1.5 0 2.2s.2 1.3.3 1.9c.1.5.3 1 .5 1.3 0 .2.1.4.1.4M156.9 134.5s-3.1-.9-7.7-2.1c-2.3-.6-5.1-1.3-8-2s-6.1-1.3-9.3-1.6c-1.6-.2-3.2-.2-4.7-.5s-2.9-.9-4.3-1.6c-.7-.3-1.3-.7-1.9-1l-.9-.6c-.3-.2-.6-.4-.8-.6-1.1-.8-2-1.7-2.8-2.6-1.6-1.8-2.6-3.5-3.3-4.7s-1-2-1-2 .2.8.9 2c.6 1.3 1.6 3 3.1 4.9.8.9 1.7 1.9 2.8 2.8l.9.6.9.6c.6.4 1.3.7 2 1.1 1.3.7 2.8 1.3 4.4 1.7 1.6.3 3.2.4 4.8.5s3.2.3 4.7.6c1.6.2 3.1.5 4.6.8.7.1 1.5.3 2.2.4.7.2 1.4.3 2.1.5 1.3.3 2.6.6 3.8.9 4.4 1.2 7.5 1.9 7.5 1.9M113.4 120.5s-.6-.3-1.1-1c-.3-.4-.6-.8-.8-1.3-.1-.3-.2-.5-.3-.8l-.3-.9c-.1-.3-.1-.6-.2-.9s-.1-.6-.2-.9c-.1-.6-.2-1.1-.2-1.6-.1-.5-.1-.9-.1-1.1 0-.3-.1-.4-.1-.4s0 .2-.1.4c0 .3-.1.7-.1 1.2v1.6c0 .3 0 .6.1.9s.1.6.2.9c.2.6.4 1.3.7 1.8.1.3.3.5.5.7s.4.4.5.6c.4.3.7.5 1 .6.4.2.5.2.5.2M173.1 128c.3-1.3.4-2.7.3-4.1 0-.7-.1-1.4-.2-2 0-.3-.1-.7-.2-1 0-.2-.1-.4-.1-.5-.1-.2-.2-.3-.3-.5-.4-.6-1-1-1.6-1.4s-1.1-.8-1.7-1.1c-1.2-.7-2.4-1.3-3.7-1.9-2.5-1.1-5-2.2-7.6-3.1-2.5-1-5.1-1.9-7.7-2.7l.3.3c.8-2.2 1.3-4.5 1.6-6.9.2-1.2.3-2.3.3-3.5v-1.8c0-.6 0-1.2-.1-1.8 0 1.2-.1 2.3-.2 3.5s-.3 2.3-.5 3.5c-.2 1.1-.5 2.3-.8 3.4s-.6 2.2-1 3.3l-.1.3.3.1c2.6.9 5.1 1.8 7.7 2.7 2.5.9 5.1 1.9 7.5 3 1.2.6 2.5 1.1 3.7 1.8.6.3 1.2.7 1.7 1 .6.4 1.1.8 1.5 1.3.1.1.2.3.2.4.1.2.1.3.1.5.1.3.2.7.2 1 .1.7.2 1.3.3 2 .3 1.4.3 2.8.1 4.2M157.1 141.8s.3 0 .8-.2 1-.6 1.5-1.1.8-1.1 1-1.6.2-.8.2-.8l-.2.2c-.1.1-.2.3-.4.4-.3.4-.7.8-1.1 1.3s-.9.9-1.2 1.2zM158.8 147.1s.4-.1.9-.4 1.1-.8 1.6-1.4c.2-.3.4-.6.6-1 .2-.3.3-.7.3-.9.1-.3.1-.5.1-.7v-.3s-.1.1-.1.2c-.1.1-.2.4-.3.6-.3.5-.7 1.1-1.1 1.6-.4.6-.9 1.1-1.3 1.5-.4.5-.7.8-.7.8"/><path fill="#6c5f57" d="M155.6 141.1c.6-.1 3-1.6 2.8-2.7s-1.2-.1-1.8.5-1.4 2.3-1 2.2M157.3 146.4c.6-.1 3-1.6 2.8-2.7s-1.2-.1-1.8.5-1.4 2.3-1 2.2M158.9 149.6c.6-.1 3-1.6 2.8-2.7s-1.2-.1-1.8.5c-.6.7-1.4 2.3-1 2.2"/><path fill="#59402f" d="m152.2 110.7-.2-.2c-.1-.1-.3-.3-.6-.4-.5-.3-1.3-.6-2-.7-.8-.1-1.6-.1-2.1 0-.3 0-.5.1-.7.1s-.3.1-.3.1.1 0 .3.1c.2 0 .4.1.7.1.6.1 1.3.2 2 .3s1.5.2 2 .4c.5 0 .9.2.9.2"/><path fill="#8d674a" d="M178.2 23.5c20.3-2.8 43.1 9.1 46.2 14.7s3.7 18.8 3.7 18.8 20.5 10.8 20.1 15.1-7 14.1-15.3 14.7-15.4 1.5-25.1 1-27.1 1.6-35.9-8.2c0 0 1.2 4.3 2.9 5.5 0 0-11.4-2.6-8.4-13.5 0 0-2 1.8-1.4 7.5 0 0-6.1-6.2-2.2-15.2 0 0-2.7 4.9-5.4 4.9 0 0 2.6-3.8 2.5-10.3.1-6.5 1.3-32.6 18.3-35"/><path fill="#8d674a" d="M181.3 22.7c20.4-2 40.1 9.9 43.2 15.6s3.7 18.8 3.7 18.8 20.4 10.7 20 15-7 14.1-15.3 14.7-16.9 3.5-26.5 2.9-25.6-.3-34.4-10.1c0 0 1.2 4.3 2.9 5.5 0 0-11.4-2.6-8.4-13.5 0 0-2 1.8-1.4 7.5 0 0-6.1-6.2-2.2-15.2 0 0-2.7 4.9-5.4 4.9 0 0-4.5-15.2-4.6-21.7s14-23 28.4-24.4"/><path fill="#9e7b5c" d="M248.2 72.1c-.4 4-6.1 12.7-13.6 14.4-2.5-1.4-5.3-3.4-5.5-6.1 0 0-16.1-11.1-1.1-23.3.1 0 20.6 10.7 20.2 15"/><path fill="#332721" d="M247.3 75.3c.9-1.6 2.3-3.2 1.4-4.6-.5-.9-1.7-2.3-2.7-2.3s-2.5 3 .5 4.5c-.4 1.5.2 2 .8 2.4"/><path fill="#59402f" d="M241.9 82.1s-.5-.3-1.3-.7c-.4-.2-.9-.3-1.4-.5-.5-.1-1.1-.3-1.7-.3-.6-.1-1.2-.1-1.8-.1s-1.1.1-1.5.2-.8.2-1 .3l-.4.2h.4c.3 0 .6-.1 1-.1h1.5c.5 0 1.1.1 1.7.1 1.1.1 2.3.3 3.1.5s1.4.4 1.4.4"/><ellipse cx="30.901" cy="34.501" fill="#332010" rx="1.7" ry="2.6" transform="rotate(-174.736 126.592 6.698)scale(1 -1)"/><path fill="#9e7b5c" d="M214.9 49.6c-.1 1.1 3 1.8 4.4 1.9s2.7-.6 2.8-1.7-1-2-2.4-2.2c-1.5 0-4.7 1-4.8 2"/><path fill="#59402f" d="M228.1 57.1v-2.3c-.1-1.4-.1-3.5-.4-6-.1-1.2-.3-2.6-.6-4s-.6-2.9-1.2-4.3c-.3-.7-.6-1.5-1-2.2-.5-.7-.9-1.3-1.5-2-1.1-1.2-2.3-2.4-3.6-3.4s-2.7-1.9-4.1-2.7-2.8-1.6-4.2-2.2c-1.4-.7-2.8-1.2-4.1-1.7s-2.6-.9-3.8-1.3q-1.8-.6-3.3-.9c-1-.2-1.8-.5-2.5-.6-1.4-.3-2.2-.5-2.2-.5s.8.2 2.2.6 3.4 1 5.7 1.7c1.2.4 2.4.8 3.7 1.4 1.3.5 2.7 1.1 4.1 1.8s2.8 1.4 4.2 2.2 2.7 1.8 4 2.7q1.95 1.5 3.6 3.3c.5.6 1 1.2 1.4 1.9s.7 1.4 1 2.1c1.1 2.9 1.6 5.7 1.9 8.1.6 5 .7 8.3.7 8.3M174.9 85.2s-.3-.1-.7-.2c-.5-.1-1.1-.4-1.9-.8-.4-.2-.8-.4-1.2-.7-.4-.2-.8-.6-1.2-.9s-.8-.7-1.2-1.1-.7-.8-1-1.3c-.3-.4-.5-1-.8-1.4-.2-.5-.3-1-.5-1.5-.1-.5-.1-1-.2-1.5s0-.9 0-1.4c0-.4 0-.8.1-1.2 0-.3.1-.6.1-.9.1-.5.1-.8.1-.8s-.1.3-.2.8c-.1.2-.2.5-.2.9-.1.3-.2.7-.2 1.2 0 .4-.1.9-.1 1.4s0 1 .1 1.6c.2.5.2 1.1.5 1.6.2.5.4 1.1.8 1.6.3.5.7.9 1.1 1.4.4.4.9.8 1.3 1.1.9.6 1.8 1.1 2.6 1.4 1.5.6 2.7.7 2.7.7M165.1 79.1s-.7-.7-1.5-2.1c-.2-.3-.4-.7-.6-1.1s-.4-.8-.5-1.3c-.1-.2-.2-.4-.2-.7-.1-.2-.1-.5-.2-.7l-.3-1.5c-.1-.5-.1-1-.1-1.5s0-1 .1-1.5.1-.9.2-1.4l.3-1.2c.1-.4.2-.7.3-1s.2-.6.2-.8c.1-.4.2-.7.2-.7l-.3.6c-.1.2-.2.5-.4.7-.2.3-.3.6-.4 1s-.3.8-.4 1.2-.2.9-.3 1.4c0 .5-.1 1-.1 1.5s0 1 .1 1.6l.3 1.5c.1.2.1.5.2.7s.2.5.3.7c.2.5.4.9.6 1.3s.5.7.7 1.1c.5.6.9 1.1 1.3 1.4.3.7.5.8.5.8M157.6 68.8s.2-.2.4-.5c.2-.4.6-.9.9-1.6s.6-1.5.8-2.4.4-1.9.5-2.8c.1-.5.1-1 .1-1.5s.1-1 .1-1.4c.1-.9 0-1.8 0-2.5s-.1-1.3-.1-1.8c0-.4-.1-.7-.1-.7s0 .2-.1.7c0 .4-.1 1-.1 1.8 0 .7-.1 1.6-.2 2.5s-.2 1.9-.3 2.8c-.1 1-.2 1.9-.4 2.8q-.3 1.35-.6 2.4c-.2.7-.4 1.2-.6 1.6zM184 22.6s-.4-.1-1.1-.2h-1.2c-.5 0-1 .1-1.6.2s-1.2.2-1.9.4c-.6.2-1.3.3-2 .6-.7.2-1.4.5-2.1.8s-1.4.7-2.1 1-1.4.8-2 1.1c-.7.4-1.3.8-1.9 1.2-1.2.8-2.3 1.6-3.2 2.3-.5.3-.9.7-1.2 1-.4.3-.7.6-.9.8-.5.4-.8.7-.8.7l.9-.6c.3-.2.6-.4 1-.7s.8-.6 1.3-.9 1-.7 1.6-1c.5-.4 1.2-.7 1.8-1.1s1.2-.8 1.9-1.1c.7-.4 1.3-.8 2-1.1s1.4-.7 2.1-1 1.4-.6 2-.9c1.2-.5 2.4-.9 3.6-1.1.6-.1 1.1-.2 1.6-.3s.9-.1 1.2-.1z"/><path fill="#8d674a" d="M197 25.5s-1.7-8.2-6.3-8.8-15.3 3.9-7.2 16.6"/><path fill="#59402f" d="M190.5 19.2s-.4.6-.7 1.5c-.2.5-.4 1-.5 1.6-.2.6-.3 1.3-.3 1.9v1c.1.3.1.7.2 1l.3.9c.1.3.2.5.4.7.3.4.5.7.8.9l.3.3s-.1-.1-.2-.4c-.1-.1-.2-.3-.3-.4l-.3-.6c-.1-.2-.2-.5-.2-.7-.1-.3-.1-.5-.2-.8s-.1-.6-.1-.9v-.9c0-.6.1-1.3.2-1.8.1-.6.2-1.1.3-1.6.1-1.1.3-1.7.3-1.7"/><g fill="#59402f"><path d="M188.2 28.2s0 .2.1.3c.1.2.2.4.4.6s.4.4.6.5.3.1.3.1 0-.2-.1-.3c-.1-.2-.2-.4-.4-.6s-.4-.4-.6-.5c-.1 0-.3-.1-.3-.1M187 29.6s0 .1.1.3.2.3.3.5c.1.1.3.3.5.3.2.1.3.1.3.1s0-.1-.1-.3-.2-.3-.3-.5c-.1-.1-.3-.3-.5-.3-.1-.1-.3-.1-.3-.1"/></g><path fill="#59402f" d="M184.1 18.4s.3-.1.7-.4c.5-.2 1.2-.5 2-.7.2-.1.4-.1.7-.2.2 0 .5-.1.7-.1h1.6c.3 0 .5.1.8.1.3.1.5.2.8.2.3.1.5.2.8.3.2.1.5.2.7.4.4.4.9.7 1.2 1.1.4.4.7.8 1 1.3.2.5.6.9.7 1.4.2.5.4.9.6 1.3s.3.8.4 1.1l.3.9c.2.5.3.8.3.8s0-.3-.1-.8c0-.3-.1-.6-.2-.9-.1-.4-.1-.8-.3-1.2-.1-.4-.3-.9-.5-1.4-.1-.5-.4-1-.7-1.5-.2-.5-.6-1-1-1.5-.3-.5-.9-.9-1.3-1.3-.2-.2-.5-.3-.8-.5-.3-.1-.5-.3-.8-.4s-.6-.2-.9-.2-.6-.1-.9-.1h-.8c-.3 0-.5 0-.8.1s-.5.1-.7.2-.5.2-.7.2c-.4.1-.8.3-1.1.5s-.6.3-.8.5c-.7.6-.9.8-.9.8"/></g></svg>