<svg xmlns="http://www.w3.org/2000/svg" xml:space="preserve" width="57" height="57" viewBox="-0.5 -0.5 57 57"><title>Slice 1</title><g fill-rule="nonzero"><path fill="linen" d="M28 0c7.7 0 14.7 3.1 19.8 8.2S56 20.3 56 28s-3.1 14.7-8.2 19.8S35.7 56 28 56s-14.7-3.1-19.8-8.2S0 35.7 0 28 3.1 13.3 8.2 8.2 20.3 0 28 0"/><path fill="#f0e6d2" d="M56 28.1c0-6.3-2.1-12.1-5.7-16.7-3.2 2.3-9.9 8.3-13.3 19 0 0-4 12 1.9 23.4C49.1 49.4 56 39.6 56 28.1"/><g fill="#f01446"><path d="m44.9 15.3.8-4.4.7.2-.5 3.5 3.7.1v.8zM41 20.6l-.2-4.5.8-.1.3 3.6 3.6-.7.1.8zM38.5 26.2 37 22l.9-.2 1.1 3.3 3.3-1.2.2.7zM35.6 38.5 33 35l.6-.5 2.1 2.9 2.8-2.3.5.6zM35.8 45.4l-3.2-3.2.7-.6 2.4 2.5 2.4-2.5.7.6zM37.5 51.4l-3.7-2.5.4-.6 3 1.9 1.8-3 .8.4zM36.6 32l-1.8-3.9.8-.4 1.4 3.2 3.2-1.6.3.7z"/><path d="M50.2 11c-3.7 2.2-6.8 5.3-9 8.9-5.9 9.5-8.5 23.8-2.7 34.2.2-.1.6-.2.8-.3-4.4-8-4.9-21.2 2.6-33.4 2.2-3.6 5.2-6.5 8.8-8.6-.2-.4-.4-.5-.5-.8"/></g><g fill="#f01446"><path d="m11.6 41.1-.7 4.4-.8-.1.5-3.5-3.5-.1.1-.8zM15.2 36l.3 4.4h-.8l-.2-3.4-3.5.6-.1-.8zM17.7 30.4l1.3 4.1-.8.2-1-3.2-3.1 1.2-.4-.7zM20.3 18.3l2.5 3.4-.6.5-2-2.8-2.5 2.2-.5-.6zM20.2 11.5l2.9 3.1-.5.5-2.4-2.5-2.2 2.5-.7-.5zM18.6 5.5l3.5 2.4-.4.7-2.9-1.9-1.7 2.8-.6-.4zM19.4 24.7l1.7 3.9-.7.3-1.4-3.2-3 1.7-.3-.7z"/><path d="M14.4 36.2c-2 3.7-5.1 6.7-8.7 8.8.2.2.3.5.5.6 3.7-2.2 6.7-5.3 8.8-9 5.6-9.5 8.1-24 2.3-34.2-.2.1-.5.2-.8.3 4.5 7.9 5.2 21.3-2.1 33.5"/></g></g></svg>