<svg xmlns="http://www.w3.org/2000/svg" xml:space="preserve" viewBox="0 0 512 512"><path d="M503.172 141.241H308.966a8.829 8.829 0 0 1 0-17.656h194.207a8.83 8.83 0 0 1 8.828 8.828 8.83 8.83 0 0 1-8.829 8.828M203.034 141.241H8.828a8.829 8.829 0 0 1 0-17.656h194.207a8.829 8.829 0 0 1-.001 17.656" style="fill:#c7cfe2"/><path d="M105.931 105.931a8.83 8.83 0 0 0-8.828 8.828v44.138h17.655v-44.138a8.827 8.827 0 0 0-8.827-8.828M406.069 105.931a8.83 8.83 0 0 0-8.828 8.828v44.138h17.655v-44.138a8.827 8.827 0 0 0-8.827-8.828" style="fill:#959cb3"/><path d="M225.103 282.483c-7.313 0-13.241-5.929-13.241-13.241v-26.483c0-7.313 5.929-13.241 13.241-13.241 7.313 0 13.241 5.929 13.241 13.241v26.483c.001 7.312-5.928 13.241-13.241 13.241M286.897 282.483c-7.313 0-13.241-5.929-13.241-13.241v-26.483c0-7.313 5.929-13.241 13.241-13.241 7.313 0 13.241 5.929 13.241 13.241v26.483c0 7.312-5.929 13.241-13.241 13.241" style="fill:#464655"/><path d="M238.345 247.172h35.31v88.276h-35.31z" style="fill:#5b5d6e"/><path d="M150.069 406.069a8.83 8.83 0 0 1-8.828-8.828c0-78.634 14.418-115.302 23.009-130.155 2.272-3.927 3.474-8.452 3.474-13.086v-24.483a8.829 8.829 0 0 1 17.656 0V254c0 7.737-2.022 15.319-5.849 21.927-6.202 10.723-20.633 44.021-20.633 121.314a8.83 8.83 0 0 1-8.829 8.828M361.931 406.069a8.83 8.83 0 0 1-8.828-8.828c0-77.293-14.431-110.591-20.638-121.319-3.823-6.603-5.845-14.185-5.845-21.922v-24.483a8.829 8.829 0 0 1 17.656 0V254c0 4.633 1.203 9.16 3.47 13.081 8.595 14.858 23.012 51.526 23.012 130.159a8.827 8.827 0 0 1-8.827 8.829" style="fill:#c7cfe2"/><path d="M176.552 220.69h-8.828v8.828a8.83 8.83 0 0 0 8.828 8.828h26.483V220.69zM335.448 220.69h-26.483v17.655h26.483a8.83 8.83 0 0 0 8.828-8.828v-8.828h-8.828z" style="fill:#afb9d2"/><path d="M132.414 167.724H79.448l6.388-12.776a8.83 8.83 0 0 1 7.895-4.879h24.398c3.343 0 6.4 1.889 7.895 4.879z" style="fill:#82889d"/><path d="M79.448 167.724h52.966v17.655H79.448z" style="fill:#5b5d6e"/><path d="M432.552 167.724h-52.966l6.388-12.776a8.83 8.83 0 0 1 7.895-4.879h24.398c3.343 0 6.4 1.889 7.895 4.879z" style="fill:#82889d"/><path d="M379.586 167.724h52.966v17.655h-52.966z" style="fill:#5b5d6e"/><path d="M441.379 203.034H70.621a8.829 8.829 0 0 1 0-17.656H441.38a8.83 8.83 0 0 1 8.828 8.828 8.83 8.83 0 0 1-8.829 8.828" style="fill:#e4eaf6"/><path d="m334.869 166.784-34.951-3.495a441.3 441.3 0 0 0-87.838 0l-34.951 3.495a26.48 26.48 0 0 0-16.09 7.625l-10.97 10.97h211.862l-10.97-10.97a26.5 26.5 0 0 0-16.092-7.625M123.586 203.034l9.899 9.899a26.48 26.48 0 0 0 18.727 7.756h19.926a26.49 26.49 0 0 1 21.186 10.593l7.945 10.593a35.3 35.3 0 0 0 28.248 14.124h52.966a35.31 35.31 0 0 0 28.248-14.124l7.945-10.593a26.49 26.49 0 0 1 21.186-10.593h19.927c7.023 0 13.76-2.791 18.727-7.756l9.898-9.899z" style="fill:#d7deed"/><path d="M196.414 348.69h29.793v26.483h-29.793z" style="fill:#5b5d6e"/><path d="M317.793 397.241h-88.276a8.83 8.83 0 0 1-8.828-8.828v-52.966a8.83 8.83 0 0 1 8.828-8.828h88.276a8.83 8.83 0 0 1 8.828 8.828v52.966a8.83 8.83 0 0 1-8.828 8.828" style="fill:#959cb3"/><path d="M194.207 379.586h-8.828a8.83 8.83 0 0 1-8.828-8.828v-17.655a8.83 8.83 0 0 1 8.828-8.828h8.828a8.83 8.83 0 0 1 8.828 8.828v17.655a8.83 8.83 0 0 1-8.828 8.828" style="fill:#c5d0e4"/><circle cx="291.31" cy="361.931" r="26.483" style="fill:#464655"/><circle cx="291.31" cy="361.931" r="8.828" style="fill:#e4eaf6"/><circle cx="242.759" cy="375.172" r="8.828" style="fill:#e4eaf6"/><path d="M247.172 357.517h-8.828a4.414 4.414 0 0 1-4.414-4.414v-8.828a4.414 4.414 0 0 1 4.414-4.414h8.828a4.414 4.414 0 0 1 4.414 4.414v8.828a4.414 4.414 0 0 1-4.414 4.414" style="fill:#789178"/><path d="M150.069 203.034h-8.828a8.83 8.83 0 0 1-8.828-8.828v-8.828h26.483v8.828a8.827 8.827 0 0 1-8.827 8.828M379.586 203.034h-8.828a8.83 8.83 0 0 1-8.828-8.828v-8.828h26.483v8.828a8.827 8.827 0 0 1-8.827 8.828" style="fill:#ff6464"/><path d="m229.71 166.783 11.65-3.495c2.4-.721 16.639-1.262 36.834-1.626a441.4 441.4 0 0 0-66.113 1.626l-34.951 3.495a26.5 26.5 0 0 0-16.092 7.625l-10.97 10.972h70.621l3.657-10.97c1.442-4.324 3.336-7.018 5.364-7.627M237.757 241.876l-2.648-10.593c-1.667-6.668-4.284-10.593-7.062-10.593h-6.643c-2.342 0-4.586-2.791-6.242-7.757l-3.299-9.898h-88.276l9.899 9.898a26.48 26.48 0 0 0 18.726 7.757h19.927a26.49 26.49 0 0 1 21.186 10.593l7.945 10.593A35.3 35.3 0 0 0 229.518 256h17.655c-3.705 0-7.194-5.233-9.416-14.124" style="fill:#c7cfe2"/></svg>