<svg xmlns="http://www.w3.org/2000/svg" xml:space="preserve" width="136.523" height="123.622" viewBox="0.089 -0.053 136.523 123.622"><title>Slice 1</title><g fill-rule="evenodd"><path fill="#dcaa78" d="M130.8 39.9c.1-.7 4.3-.6 4.4-1s-45.9-1.7-47.7-2.2l.5 8.5c8.5.5 46.9-.5 47.2-1.3.4-.8-4 .2-4.2-1.1-.2-1.4 4.8-1 5.1-1.8s-5.5-.3-5.3-1.1"/><path fill="#be8c64" d="M129.9 35.8c.1.7-3.1 1.7-3.6 2.6s1 3.4-1.9 3.7-3.1-2.9-2.8-3.9c.4-.9 7.5-3 8.3-2.4"/><path fill="#008264" d="M75.7 46.2c3.6 0 13.5.1 13.5.1l-.7-10.5H79c-2.8.1-7.4-.5-7.4 5.1 0 5.4 3.9 5.3 4.1 5.3"/><path fill="#f01446" d="M86 34.8h4.7V47H86z"/><path fill="#dcaa78" d="M89.5 88.3c-.3-1.6-2.1-5-5.7-4.8s-3.1 2.5-2.9 4.7c0 .8 2.6 10.5 3 11.2h6.4c0-1.2-.7-9.9-.8-11.1"/><path fill="#f01446" d="M73.6 79.5 77.8 91H92c-.8-3.5-1.6-7.7-2.4-11.5 0 0-.6-7.9-9.4-7.7-8.9.2-6.6 7.7-6.6 7.7"/><path d="m94.8 120.5-4 1.3s.4.9.7 1.2c.4.2 8.1-.1 8.1-.1.2 0 .6 0 .8-.1l.2-.9c-1.1 0-4.9-1.2-5.8-1.4"/><path fill="#00a08c" d="M92.1 97.5c-3.4-.3-6.8-.3-10.2.1 2.4 7.9 8.1 22.4 8.8 24.3l4-1.3c.1-.1-2.5-22.6-2.6-23.1"/><path fill="#008264" d="M81.1 96.6h11.5l.4 2.8H81.7z"/><path fill="#dcaa78" d="M42.8 100.7h6.3c.3-.5 4-8.7 4.9-11 .2-.4 1.8-5.7-3.3-6.6-2.2-.4-3.9 2.6-5.2 6.2-1.7 4.9-2.6 10.9-2.7 11.4"/><path fill="#f01446" d="M45.2 79.5c-1.3 3.9-2.5 7.7-3.8 11.5H57l3.5-11.5s2.5-7.4-6.3-7.1c-7.1.3-9 7.1-9 7.1"/><path d="m32.2 119.6.3 1s8.8-.1 10.3-.1l.4-1.2-4.5-1.4c.1 0-6.4 1.2-6.5 1.7"/><path fill="#00a08c" d="m42.3 98.4-3.5 19.5 4.5 1.4c1.2-3.3 5.6-15.3 7.7-20.9z"/><path fill="#008264" d="M41.9 96.6h10.6l-.8 2.8H41.4z"/><path fill="#dcaa78" d="M79.1 16.6c.9-1.5 1.9-3.6 4.1-3 1.7.4 2.4 2.6 2.1 4.2s-2.1 3.1-3.8 3.1c-2.9-.1-2.7-2.2-2.4-4.3"/><path fill="#dcaa78" d="M80.5 9.4 66.3 7.1l-8.6-1.4c-2.1-.3-2.2-.6-3.3 1.6-1.8 3.9-1.1 9.5.1 13.6C55.3 23.5 60 32 67.7 32s12.7-8.8 13-10.8c.5-3.9.4-7.9-.2-11.8"/><path d="M52.6 6.6s-3.9 1.3-5.6 3.6c-2 2.9-2.4 6.2-3.2 9.5-.8 3-2.3 5.8-5.3 7.1s-6.7.4-8.2-2.7C27.5 18.8 30 9.3 35.1 6c2.8-1.8 6.2-1.9 9.4-1.5 2.7.3 5.5 1 8.1 2.1M54.4 6.9c3-5.6 10.4-7.4 16.8-6 8 1.7 10.7 7.3 10.1 14.1-4.4.2-26.7-7.4-26.9-8.1"/><path fill="#dcaa78" d="M55.7 14.3s2.1 4.4 2.2 6.3c-1.1 0-4 .8-5.4.4-1.1-.3-2.3-1.1-2.6-2.3-.2-1.1-.8-3.3-.4-4.2 1.7-3.7 6.2-.2 6.2-.2"/><path fill="#f01446" d="M53.5 10.8c-1.3-.9-1.7-2.5-1.1-3.9 1-2.5 3.5-1.5 3.5-1.5z"/><path fill="#be8c64" d="M67.5 14q.6 1.05.9 2.1c.1.6.4 1.3-.2 1.9-.3.4-.9.5-1.4.3-.4-.2-.5-.5-.6-1 0-.9.2-1.9.7-2.7z"/><path d="M69.5 21.5c-.9-.1-1.7-.3-2.6-.4-.7-.1-1.7-.4-2.3-.4-1.6.1-1.1 2.1-.4 3 1.6 2 6.6.9 7.2-1.6-.7-.3-1.3-.5-1.9-.6M60.8 14.5c.4-.1.7 0 .8.2.1.4.1 1.7-.3 2l-.5-.2zM74.3 16.6c-.5-.1-.8-1-.5-1.5.1-.2.2-.3.4-.3.1 0 .3.2.3.4.1.4.1 1-.2 1.4M63.7 6.4 53.3 19S48.2 2.8 63.9.7z"/><path d="m58.6 5.3-2 15.4 6.2-13.9z"/><path fill="#f01446" d="M73.4 79h15.9c-1.1-5-2.1-9.3-2.6-10.6l-28.6-.6c-1.9 0-9.3.1-9.3.1S45.5 78.6 45.4 79z"/><path fill="#dcaa78" d="M5.9 39.9c-.1-.7-4.3-.6-4.4-1s45.9-1.7 47.7-2.2l-.5 8.5c-8.5.5-46.9-.5-47.2-1.3-.4-.8 4 .2 4.2-1.1.2-1.4-4.8-1-5.1-1.8s5.4-.3 5.3-1.1"/><path fill="#be8c64" d="M6.7 35.8c-.1.7 3.1 1.7 3.6 2.6s-1 3.4 1.9 3.7 3.1-2.9 2.8-3.9c-.4-.9-7.4-3-8.3-2.4"/><path fill="#00a08c" d="M59.7 46.2c-3.6 0-13.5.1-13.5.1l.7-10.5h9.5c2.8.1 7.4-.5 7.4 5.1-.1 5.4-3.9 5.3-4.1 5.3"/><path fill="#f01446" d="M45.5 34.8h4.7V47h-4.7z"/><path fill="#008264" d="M79 35.7H68.4l-7.6 18.1 3.8 10.3 3.8 11.4 21.3-.9c-1-4-7.6-27.5-10.7-38.9"/><path fill="#00a08c" d="M56.4 35.7c-3.1 11.4-9.4 34.4-11 40.5l22.9-.7V35.7zM77.7 41.7c1.1 1 1.8 2.4 1.8 2.8.1 1-.1 2.1-.6 3-.7.9-1.7 1.6-2.8 1.7-1.1.2-2.3-.2-3.2-.9-4.4-3.4.7-9.6 4.8-6.6"/></g></svg>