<svg xmlns="http://www.w3.org/2000/svg" width="179.99" height="120.342" viewBox="-0.606 -1.185 179.99 120.342"><path fill="undefined" d="M102.542 54.948c-1.334 2.384-4.566 4.68-6.864 4.98-.875 2.507-2.473 4.64-4.477 5.883-.786.486-1.456 1.062-2.065 1.584-1.161 1-2.262 1.943-3.762 1.776q-.076-.007-.156-.022c-1.184 2.264-4.263 6.97-9.288 7.217l-.839.041-.472-.708a31 31 0 0 1-.74-1.168c-2.036 3.021-5.01 6.37-8.567 7.184l-1.15.264-.534-1.095c-.056-.116-.45-.939-.967-2.273-2.838 4.082-8.787 10.994-16.36 10.646l-2.549-.116 1.376-2.382c-9.746 5.953-18.366 5.239-18.755 5.202l-5.183-.46 4.08-2.219c-11.061 4.236-13.562 4.258-14.098 4.133l-4.933-1.17L10.97 90.4c.025-.012 1.77-.712 4.833-2.54-7.236 1.73-9.993.847-10.33.72l-4.69-1.751 4.832-1.262c.167-.045 16.86-4.635 35.005-24.37l14.53-7.041-.238 1.092 2.343-1.414c.35-.25.689-.453.958-.584l1.818-1.073-.156.653q.146.013.28.05c.315-.4.61-.767.868-1.072 1.478-1.74 2.798-2.593 4.018-2.588 3.532-4.33 5.264-5.49 6.787-4.604.414.236.706.6.878 1.078a8.14 8.14 0 0 1 3.385-1.687c1.103-.258 2.379-.233 3.657.064q.058-.145.133-.283c.587-1.045 3.066-4.244 10.538-1.565 9.196 5.08 13.442 8.979 12.62 11.594a6 6 0 0 1-.498 1.13M81.197 44.577c-.064.114-.103.275-.19.642l-.194.794-.756-.236c-1.723-.539-3.012-.38-3.63-.236-1.97.456-3.242 1.717-3.328 2.176l-.02.964-1.987.195.195-1.087c.172-.972.103-1.626-.192-1.798-.659-.386-2.387 1.148-5.141 4.558l-.284.347-.433-.08c-.761-.142-1.826.558-3.074 2.031a36 36 0 0 0-1.19 1.5l-.56.534-.592-.461c-.061-.022-.25-.059-.681.117l-.214.105c-.261.13-.528.29-.859.523l-5.416 3.276.333-1.5-11.49 5.516C23.198 82.429 6.154 87.05 5.988 87.095c.036.014 3.68 1.279 14.373-2.156l.644 1.406c-5.772 4.007-9.306 5.455-9.495 5.53.341.022 3.548-.02 20.017-6.772l.717 1.375c-2.663 1.962-4.902 3.452-5.744 3.91.408.037 10.079.837 20.411-6.7l1.098 1.031c-.411.765-.784 1.448-1.042 1.912q-.002.005-.003.006l-.603 1.045.008-.003c7.637.353 13.631-7.7 15.855-11.18l.828-1.298.517 1.462c.739 2.104 1.389 3.46 1.411 3.513 3.646-.837 6.759-5.075 8.287-7.523l.656-1.053.628 1.07a46 46 0 0 0 1.309 2.123c4.677-.228 7.403-5.1 8.29-6.923l.308-.639.64.256q.236.095.436.12c.825.091 1.537-.481 2.654-1.44.63-.542 1.348-1.16 2.234-1.707 1.82-1.128 3.263-3.176 3.974-5.516l.172-.567.575.014c1.801.05 5.722-2.67 6.456-5.063.42-1.334-3.093-4.852-11.777-9.663-6.272-2.242-8.187.13-8.626.912"/><path fill="#e5e5e5" d="M39.737 76.752C13.46 89.877 5.986 87.092 5.986 87.092s16.974-4.407 35.277-24.466l11.716-5.677c.002-.003-3.257 14.815-13.242 19.803"/><path fill="#ccc" d="M49.61 67.595c-2.631 4.697-5.844 8.017-9.545 9.871C13.806 90.583 6.047 87.954 5.73 87.835l-2.345-.876 2.418-.63c.169-.045 16.999-4.611 35.143-24.417l13.125-6.361-.347 1.57c-.048.214-1.176 5.23-4.113 10.474 0 0 .002-.003 0 0m2.202-9.218-10 4.794C28.78 77.455 16.266 83.908 10.117 86.445c4.518-.425 13.467-2.493 29.29-10.399 3.421-1.709 6.417-4.821 8.893-9.246 1.848-3.293 2.962-6.552 3.513-8.423"/><path fill="#e5e5e5" d="M42.44 80.479c-27.836 12.13-30.935 11.396-30.935 11.396s15.401-5.952 35.013-29.724l11.174-6.761c0-.003-5.033 20.634-15.251 25.089"/><path fill="#ccc" d="M52.345 71.102c-2.912 5.197-6.144 8.593-9.61 10.105-27.278 11.885-31.058 11.516-31.4 11.435l-2.467-.586 2.37-.92c.156-.061 15.474-6.194 34.899-29.669l12.733-7.706-.444 1.815c-.081.342-2.06 8.348-6.08 15.526m4.102-14.056-9.351 5.616C34.59 77.822 23.872 85.748 17.613 89.555c4.402-1.462 11.906-4.297 24.536-9.802 3.157-1.373 6.144-4.552 8.887-9.443 2.78-4.963 4.588-10.466 5.41-13.264"/><path fill="#e5e5e5" d="M55.352 57.694c.083-.025-7.017 10.424-9.826 16.096-2.81 5.669-16.713 15.34-19.028 16.598 0 0 12.81 1.148 24.58-10.196s9.173-22.718 9.06-25.144c-.114-2.432-4.786 2.646-4.786 2.646"/><path fill="#ccc" d="M57.734 72.948c-1.54 2.748-3.608 5.38-6.14 7.822-11.877 11.45-24.621 10.452-25.158 10.402l-2.59-.23 2.302-1.251c2.248-1.226 15.454-10.443 18.53-15.935l.172-.33c2.22-4.466 7.134-11.973 9.03-14.868.224-.34.405-.62.544-.828l-.07-.095.45-.489c1.707-1.85 4.008-3.96 5.283-3.465.284.11.767.428.806 1.325.011.223.045.52.084.89.3 2.829 1.011 9.457-3.243 17.052m1.653-17.705c-.675.3-2.137 1.54-3.424 2.926-.108.172-.403.622-.83 1.278-1.876 2.862-6.742 10.285-8.935 14.704l-.211.397c-2.663 4.747-12.006 11.805-16.73 15.001 4.313-.33 13.103-2.037 21.304-9.94 2.423-2.335 4.394-4.844 5.858-7.46 4.005-7.144 3.335-13.408 3.049-16.084-.03-.303-.059-.564-.08-.822"/><path fill="#e5e5e5" d="M63.467 74.393s-7.048 13.75-17.1 13.283c0 0 7.09-12.127 7.87-18.344.779-6.217 4.689-12.67 7.924-16.485 3.237-3.816 3.951-1.181 3.951-1.181s.487 16.488-2.645 22.727"/><path fill="#ccc" d="M63.856 75.28c-1.279 2.278-8.126 13.619-17.522 13.188l-1.278-.058 1.256-2.179c1.523-2.72 6.544-11.983 7.175-16.999.409-3.276 1.715-6.95 3.774-10.624a40.3 40.3 0 0 1 4.333-6.28c1.517-1.793 2.781-2.544 3.86-2.288 1.045.248 1.359 1.295 1.42 1.6.02.684.456 16.77-2.735 23.122zm1.525-23.397c0-.003-.094-.264-.27-.303-.071-.017-.766-.117-2.386 1.795-1.045 1.231-2.615 3.282-4.158 6.028-1.959 3.496-3.196 6.964-3.582 10.035-.636 5.09-5.23 13.767-7.278 17.427 7.87-.662 13.698-10.35 14.834-12.38l.25-.457c3.002-5.972 2.571-22.11 2.59-22.145"/><path fill="#e5e5e5" d="M74.524 70.446s-4.174 8.493-9.546 9.727c0 0-8.517-17.55.209-28.685 8.729-11.133 5.686-2.104 5.686-2.104z"/><path fill="#ccc" d="M74.702 71.741c-1.353 2.418-5 8.16-9.557 9.204l-.575.134-.267-.548c-.311-.644-7.584-15.907-1.228-27.245.447-.8.961-1.573 1.525-2.293 4.341-5.538 5.845-6.286 6.862-5.691 1.056.611.706 2.551.194 4.144l3.66 21.125-.116.237s-.173.355-.498.933m-.97-1.422-3.607-20.793.034-.403c.288-.853.477-1.817.475-2.315-.484.264-1.798 1.276-4.858 5.18-7.45 9.505-1.717 24.16-.378 27.251 3.832-1.312 7.064-6.628 7.995-8.29.148-.266.261-.483.34-.63"/><path fill="#e5e5e5" d="M84.487 67.117s-2.879 7.392-8.629 7.67c0 0-10.466-15.573-5.858-24.185 4.608-8.613 13.917 14.103 14.487 16.515"/><path fill="#ccc" d="M84.306 69.224c-1.278 2.284-4.07 6.141-8.412 6.352l-.416.023-.24-.359c-.439-.65-10.682-16.082-5.824-25.16 1.153-2.057 2.55-2.316 3.515-2.174 5.608.842 12.03 17.902 12.297 19.022l-.033.484c-.003.002-.297.758-.887 1.812m-.622-2.165c-.84-2.818-6.898-16.977-10.972-17.594-.478-.067-1.2 0-2.048 1.514l-.002.006c-3.944 7.37 4.062 20.604 5.577 22.982 4.452-.533 6.936-5.752 7.445-6.908"/><path fill="#e5e5e5" d="M94.578 58.266s-.8 4.119-4.158 6.192c-3.357 2.073-4.307 5.144-7.133 1.378-2.83-3.763-10.602-17.483-10.352-18.127.25-.645 4.332-4.544 9.835-.592 5.505 3.951 11.808 11.149 11.808 11.149"/><path fill="#ccc" d="M94.091 61.604c-.856 1.525-1.956 2.712-3.279 3.529-.845.522-1.54 1.123-2.156 1.65-1.082.932-2.015 1.737-3.202 1.604-.914-.106-1.767-.74-2.762-2.065-1.387-1.845-11.016-17.471-10.38-19.07.32-.566 1.751-1.97 3.95-2.48 1.578-.368 4.065-.37 6.941 1.7 5.514 3.954 11.68 10.966 11.939 11.266l.26.292-.077.397c-.014.056-.308 1.523-1.234 3.177m-.347-3.118c-1.27-1.418-6.675-7.329-11.402-10.719-1.932-1.387-3.846-1.881-5.697-1.47-1.515.339-2.554 1.2-2.896 1.573.756 2.026 7.364 13.784 10.14 17.48.693.925 1.276 1.417 1.732 1.47.55.06 1.22-.517 2.073-1.25.656-.565 1.4-1.207 2.346-1.79 1.1-.678 2.023-1.679 2.745-2.971.528-.95.823-1.843.959-2.323"/><path fill="#e5e5e5" d="M89.709 43.615s12.733 7.028 11.888 9.71c-.844 2.682-5.088 5.358-6.683 5.074S81.703 48.114 80.999 46.436c-.703-1.681 1.398-5.428 8.71-2.82"/><path fill="#ccc" d="M101.886 54.553c-1.4 2.499-5.182 4.96-7.1 4.625-1.873-.337-13.65-10.436-14.481-12.43-.326-.765-.237-1.73.233-2.566.514-.914 2.704-3.704 9.526-1.264 3.997 2.206 13.195 7.664 12.253 10.651-.1.323-.247.654-.43.984M81.85 44.974c-.27.478-.253.917-.159 1.145.64 1.448 11.875 11.122 13.35 11.5.96.169 4.258-1.587 5.534-3.863.13-.234.233-.464.3-.681.305-.97-4.558-4.922-11.414-8.72-4.463-1.587-6.86-.72-7.611.62"/><path fill="#fff" d="M74.524 30.92s7.187-3.581 12.484 1.449c5.294 5.032 5.502 12.897 1.183 13.267-4.32.37-33.47 11.674-40.676 17.685s-32.909 22.71-44.2 19.178c0 0 15.574-3.907 26.984-14.098 11.414-10.19 23.833-19.43 28.735-23.874 4.902-4.438 15.49-13.606 15.49-13.606"/><path fill="undefined" d="M6.856 83.335c-1.356 0-2.582-.17-3.646-.503l-1.176-.366 1.195-.3c.156-.04 15.624-4.008 26.84-14.02 6.714-5.998 13.775-11.661 19.45-16.216 3.902-3.13 7.27-5.833 9.282-7.656C63.65 39.88 74.19 30.75 74.296 30.66c.178-.1 2.663-1.32 5.828-1.32 2.782 0 5.18.933 7.12 2.778 3.885 3.697 4.952 8.627 3.985 11.392-.517 1.475-1.584 2.353-3.01 2.476-4.596.392-33.406 11.702-40.484 17.607-6.964 5.808-28.624 19.742-40.88 19.742m-2.16-.864q1.005.168 2.16.17c12.075 0 33.526-13.82 40.437-19.584 7.14-5.955 36.227-17.369 40.87-17.766 1.454-.125 2.115-1.164 2.413-2.015.909-2.596-.267-7.292-3.807-10.655-1.81-1.72-4.047-2.59-6.645-2.59-2.996 0-5.422 1.187-5.444 1.2-.033.045-10.569 9.169-15.412 13.557-2.029 1.84-5.406 4.546-9.316 7.684-5.669 4.546-12.722 10.207-19.422 16.19-9.437 8.426-21.837 12.614-25.834 13.81"/><path fill="undefined" d="M76.236 54.075a6.3 6.3 0 0 1-.5-1.134c-.825-2.615 3.424-6.514 12.62-11.594 7.47-2.678 9.948.52 10.535 1.565.055.092.097.186.136.284 1.28-.298 2.556-.323 3.657-.064a8.2 8.2 0 0 1 3.385 1.687c.172-.479.464-.843.878-1.079 1.526-.886 3.254.278 6.786 4.605 1.22-.005 2.54.845 4.019 2.587.258.306.553.676.867 1.073q.135-.033.283-.05l-.158-.653 1.817 1.073c.272.13.609.333.962.583l2.34 1.415-.24-1.092 14.532 7.041c18.144 19.731 34.84 24.322 35.007 24.37l4.833 1.261-4.691 1.751c-.34.128-3.093 1.012-10.333-.72 3.066 1.829 4.805 2.53 4.833 2.54l4.738 1.84-4.932 1.17c-.537.125-3.04.105-14.101-4.133l4.082 2.218-5.183.461c-.391.037-9.009.754-18.755-5.202l1.376 2.382-2.552.116c-7.572.348-13.52-6.564-16.36-10.646a32 32 0 0 1-.967 2.273l-.53 1.095-1.154-.264c-3.557-.817-6.53-4.163-8.567-7.183a31 31 0 0 1-.74 1.167l-.472.708-.842-.041c-5.024-.245-8.1-4.95-9.287-7.217q-.079.014-.153.022c-1.504.17-2.604-.776-3.766-1.776-.608-.522-1.278-1.1-2.062-1.584-2.006-1.242-3.604-3.376-4.477-5.883-2.3-.292-5.53-2.587-6.864-4.972m21.346-10.37c-.44-.782-2.357-3.158-8.626-.918-8.685 4.808-12.2 8.329-11.778 9.663.737 2.39 4.655 5.113 6.456 5.063l.572-.014.173.567c.711 2.34 2.15 4.39 3.974 5.516.883.548 1.6 1.165 2.234 1.707 1.114.958 1.828 1.53 2.654 1.44q.2-.025.436-.12l.64-.256.308.64c.886 1.822 3.615 6.694 8.287 6.922.097-.145.614-.931 1.309-2.124l.63-1.07.656 1.054c1.526 2.448 4.638 6.686 8.285 7.522.025-.052.675-1.406 1.411-3.512l.517-1.462.828 1.298c2.224 3.476 8.22 11.533 15.855 11.18l.008.003-.603-1.045q0 0-.003-.006c-.258-.464-.634-1.145-1.045-1.912l1.098-1.03c10.332 7.533 20.003 6.735 20.414 6.7-.844-.46-3.082-1.949-5.747-3.91l.717-1.376c16.472 6.75 19.678 6.791 20.018 6.772-.187-.075-3.724-1.52-9.494-5.53l.645-1.406c10.694 3.435 14.337 2.173 14.373 2.156-.17-.044-17.207-4.666-35.502-24.638l-11.49-5.517.33 1.5-5.416-3.276a6 6 0 0 0-.859-.522l-.211-.106c-.434-.175-.623-.141-.684-.116l-.592.461-.558-.534a40 40 0 0 0-1.19-1.5c-1.247-1.473-2.312-2.173-3.073-2.032l-.434.081-.283-.347c-2.754-3.41-4.483-4.944-5.142-4.558-.294.172-.364.825-.191 1.798l.191 1.087-1.986-.195-.023-.964c-.086-.459-1.356-1.72-3.326-2.176-.62-.142-1.91-.3-3.632.236l-.756.236-.195-.794c-.078-.362-.114-.523-.18-.637"/><path fill="#e5e5e5" d="M139.039 75.88c26.275 13.124 33.75 10.34 33.75 10.34s-16.97-4.407-35.273-24.466l-11.72-5.678s3.26 14.815 13.243 19.803"/><path fill="#ccc" d="M129.168 66.723c0-.003 0 0 0 0-2.938-5.244-4.066-10.26-4.11-10.472l-.348-1.57 13.125 6.361c18.144 19.806 34.971 24.375 35.144 24.417l2.417.63-2.348.876c-.317.12-8.076 2.748-34.332-10.371-3.704-1.854-6.917-5.175-9.548-9.871m-2.201-9.218c.55 1.87 1.664 5.13 3.51 8.42 2.478 4.424 5.471 7.537 8.895 9.246 15.821 7.906 24.77 9.97 29.288 10.399-6.147-2.537-18.66-8.99-31.694-23.274z"/><path fill="#e5e5e5" d="M136.338 79.606c27.84 12.13 30.938 11.397 30.938 11.397s-15.404-5.953-35.015-29.724l-11.175-6.762c-.002-.003 5.03 20.634 15.252 25.089"/><path fill="#ccc" d="M126.43 70.23c-4.018-7.179-5.997-15.182-6.08-15.521l-.445-1.815L132.64 60.6c19.425 23.475 34.743 29.608 34.901 29.669l2.368.92-2.465.586c-.342.08-4.121.45-31.4-11.438-3.465-1.515-6.697-4.913-9.613-10.107m-4.096-14.057c.82 2.799 2.63 8.301 5.41 13.262 2.741 4.89 5.731 8.07 8.885 9.443 12.634 5.505 20.134 8.34 24.539 9.801-6.258-3.807-16.977-11.733-29.483-26.892z"/><path fill="#e5e5e5" d="M123.426 56.821c-.083-.025 7.014 10.424 9.827 16.096 2.812 5.67 16.713 15.34 19.028 16.599 0 0-12.811 1.148-24.58-10.196-11.77-11.344-9.174-22.719-9.06-25.145.117-2.431 4.785 2.646 4.785 2.646"/><path fill="#ccc" d="M121.048 72.075c-4.255-7.595-3.547-14.223-3.246-17.052q.063-.555.086-.89c.039-.897.522-1.214.803-1.325 1.275-.495 3.576 1.615 5.283 3.465l.447.49-.067.094c.14.211.32.49.545.828 1.895 2.896 6.806 10.4 9.026 14.868l.173.33c3.076 5.492 16.282 14.71 18.53 15.935l2.301 1.25-2.59.231c-.534.05-13.278 1.045-25.158-10.401-2.526-2.443-4.597-5.075-6.133-7.823M119.39 54.37c-.022.261-.05.522-.08.825-.29 2.676-.96 8.94 3.045 16.085 1.468 2.615 3.438 5.125 5.861 7.459 8.196 7.9 16.988 9.61 21.301 9.94-4.724-3.198-14.067-10.257-16.73-15l-.208-.4c-2.192-4.42-7.058-11.84-8.934-14.704-.43-.656-.725-1.104-.834-1.279-1.284-1.39-2.748-2.626-3.42-2.926"/><path fill="#e5e5e5" d="M115.309 73.52s7.05 13.75 17.1 13.284c0 0-7.093-12.128-7.868-18.345-.778-6.216-4.691-12.67-7.926-16.485s-3.952-1.18-3.952-1.18-.483 16.487 2.646 22.726"/><path fill="#ccc" d="m114.923 74.407-.281-.517c-3.188-6.353-2.754-22.438-2.735-23.122.062-.305.376-1.353 1.42-1.6 1.076-.256 2.34.494 3.86 2.287a40 40 0 0 1 4.333 6.28c2.06 3.674 3.365 7.35 3.771 10.624.63 5.016 5.65 14.279 7.175 17l1.256 2.178-1.278.059c-9.398.43-16.243-10.91-17.521-13.19m-1.526-23.397c.02.039-.409 16.174 2.587 22.146l.25.456c1.14 2.031 6.967 11.719 14.835 12.38-2.046-3.66-6.64-12.336-7.276-17.427-.386-3.07-1.623-6.539-3.582-10.035a38.7 38.7 0 0 0-4.155-6.028c-1.623-1.912-2.314-1.812-2.387-1.795-.178.04-.272.3-.272.303"/><path fill="#e5e5e5" d="M104.254 69.574s4.174 8.492 9.546 9.726c0 0 8.517-17.55-.209-28.684-8.728-11.133-5.683-2.104-5.683-2.104z"/><path fill="#ccc" d="M104.076 70.869c-.325-.578-.5-.934-.5-.934l-.117-.236 3.66-21.126c-.514-1.593-.861-3.532.195-4.144 1.017-.594 2.52.153 6.861 5.692.564.72 1.078 1.492 1.529 2.292 6.352 11.339-.918 26.601-1.229 27.246l-.27.547-.575-.133c-4.552-1.048-8.198-6.786-9.554-9.204m.97-1.42c.075.147.189.361.342.628.93 1.662 4.163 6.978 7.992 8.29 1.34-3.088 7.073-17.747-.378-27.251-3.06-3.902-4.374-4.916-4.857-5.18-.006.494.186 1.461.475 2.315l.033.403z"/><path fill="#e5e5e5" d="M94.291 66.245s2.88 7.392 8.626 7.67c0 0 10.469-15.574 5.861-24.186-4.605-8.612-13.917 14.103-14.487 16.516"/><path fill="#ccc" d="M94.472 68.351c-.592-1.053-.884-1.81-.884-1.81l-.033-.483c.267-1.12 6.686-18.18 12.294-19.022.967-.142 2.365.117 3.518 2.173 4.858 9.08-5.385 24.508-5.824 25.161l-.24.359-.416-.022c-4.344-.214-7.134-4.072-8.415-6.356m.623-2.165c.508 1.156 2.992 6.375 7.444 6.909 1.515-2.38 9.524-15.61 5.58-22.982l-.005-.006c-.848-1.515-1.567-1.581-2.045-1.515-4.08.617-10.135 14.78-10.975 17.594"/><path fill="#e5e5e5" d="M84.198 57.393s.803 4.119 4.157 6.192 4.31 5.144 7.131 1.378c2.83-3.762 10.605-17.482 10.352-18.127-.25-.645-4.332-4.544-9.835-.592-5.497 3.952-11.805 11.15-11.805 11.15"/><path fill="#ccc" d="M84.687 60.731c-.925-1.656-1.217-3.12-1.231-3.182l-.075-.397.261-.292c.259-.297 6.425-7.312 11.939-11.266 2.873-2.07 5.363-2.068 6.939-1.7 2.2.51 3.632 1.914 3.952 2.48.636 1.601-8.993 17.228-10.38 19.07-.995 1.326-1.848 1.96-2.762 2.065-1.187.133-2.12-.672-3.199-1.603-.62-.529-1.314-1.129-2.156-1.651-1.329-.812-2.432-1.995-3.288-3.524m.347-3.118c.137.48.428 1.373.965 2.323.725 1.292 1.648 2.293 2.745 2.971.942.584 1.69 1.225 2.346 1.79.853.733 1.523 1.311 2.07 1.25.456-.053 1.042-.544 1.732-1.47 2.779-3.696 9.384-15.454 10.14-17.48-.344-.375-1.381-1.236-2.896-1.573-1.85-.408-3.765.084-5.7 1.47-4.726 3.39-10.132 9.299-11.402 10.719"/><path fill="#e5e5e5" d="M89.067 42.743s-12.73 7.028-11.886 9.71c.845 2.681 5.086 5.357 6.68 5.074 1.596-.284 13.212-10.285 13.918-11.964.703-1.681-1.395-5.427-8.712-2.82"/><path fill="#ccc" d="M76.892 53.68a5.5 5.5 0 0 1-.433-.983c-.94-2.988 8.256-8.445 12.255-10.652 6.82-2.44 9.01.35 9.526 1.264.467.84.556 1.801.234 2.566-.831 1.992-12.609 12.094-14.482 12.43-1.917.336-5.7-2.126-7.1-4.624m20.034-9.578c-.75-1.34-3.146-2.207-7.61-.617-6.858 3.796-11.72 7.75-11.412 8.72.064.217.17.448.297.68 1.276 2.274 4.574 4.03 5.536 3.864 1.473-.378 12.708-10.052 13.347-11.5.097-.23.114-.667-.158-1.148"/><path fill="#fff" d="M105.846 30.918s-9.295-2.885-14.59 2.148c-5.293 5.033-4.985 11.327-.67 11.7 4.322.37 33.471 11.674 40.677 17.685 7.209 6.011 32.912 22.71 44.203 19.178 0 0-15.574-3.907-26.987-14.098-11.413-10.19-23.833-19.43-28.735-23.874-4.902-4.441-13.898-12.74-13.898-12.74"/><path fill="undefined" d="M171.923 82.463c-12.256 0-33.915-13.934-40.885-19.742-7.075-5.906-35.885-17.216-40.482-17.608-1.606-.139-2.779-1.036-3.304-2.529-.811-2.312.039-6.228 3.763-9.768 2.14-2.034 5.135-3.065 8.901-3.065 3.293 0 5.922.803 6.03.836.134.078 9.13 8.376 14.029 12.814 2.015 1.826 5.386 4.533 9.293 7.667 5.672 4.552 12.728 10.213 19.439 16.207 11.222 10.016 26.687 13.982 26.84 14.02l1.197.3-1.178.368c-1.062.33-2.287.5-3.643.5m-72.007-52.02c-3.582 0-6.414.967-8.423 2.876-3.499 3.326-4.321 6.934-3.585 9.034.425 1.218 1.39 1.954 2.707 2.068 4.643.398 33.731 11.81 40.868 17.766 6.911 5.764 28.362 19.581 40.44 19.584.767 0 1.49-.059 2.156-.17-3.996-1.195-16.393-5.383-25.833-13.809-6.698-5.98-13.748-11.638-19.412-16.182-3.913-3.14-7.295-5.852-9.323-7.692-4.85-4.393-13.71-12.564-13.898-12.739-.017.017-2.57-.736-5.697-.736"/><path fill="#fff" d="m80.163 110.67-.225.033-10.922-.597-1.592-7.418-5.358-1.848-.52-8.231.476-.69c5.577-6.219 12.73-20.728 17.746-31.805a846 846 0 0 0 5.2-22.04l.058-.275 3.28.01.044.204.542-.006.32-.197 2.992-.028.061.272c.017.073 1.799 7.798 4.439 18.075 4.52 10.255 13.097 28.62 19.525 35.79l.389.434.055.834-.478 7.648-5.816 2.003-1.56 7.26-10.267.563-7.954 6.675z"/><path fill="undefined" d="M91.93 38.132c.044.19 1.833 7.926 4.44 18.086 4.847 11.005 13.234 28.83 19.606 35.935l.389.434-.036.58-.406 6.492-.058.926-.876.3-4.905 1.69-1.32 6.152-.222 1.04-1.059.058-8.945.492-7.962 6.594-10.224-6.536-.395-.022-9.598-.525-1.06-.059-.222-1.04-1.356-6.31-4.446-1.534-.875-.3-.059-.926-.411-6.492-.036-.58.389-.434C67.92 85.864 75.138 71.18 80.088 60.26a816 816 0 0 0 5.222-22.11l2.718.008c.013.067.024.142.038.209l1.115-.014c.01-.064.022-.134.036-.195zm.553-.7-.558.005-2.716.026-.555.005-.034.156-.036-.162h-.555l-2.718-.008h-.564l-.12.55c-.02.092-2.179 9.963-5.216 22.088-4.966 10.935-12.1 25.411-17.647 31.6l-.389.433-.194.217.016.29.036.58.412 6.492.058.925.03.464.437.15.875.3 4.077 1.406 1.273 5.928.222 1.037.111.52.531.027 1.059.058 9.599.526.21.01 10.07 6.437.427.275.392-.325 7.784-6.447 8.715-.478 1.059-.059.53-.027.112-.52.222-1.04 1.237-5.769 4.532-1.561.875-.3.44-.15.03-.465.058-.925.406-6.492.04-.58.016-.29-.192-.216-.389-.434c-6.397-7.136-14.954-25.464-19.486-35.752-2.602-10.168-4.383-17.888-4.4-17.96z"/><path fill="#e5e5e5" d="m63.064 100.079-.462-7.245.195-.217c9.549-10.649 23.519-44.992 23.658-45.336l1.336.22c1.226 20.467-13.58 54.115-14.211 55.538l-.259.58z"/><path fill="#ccc" d="M87.102 47.54c1.228 20.533-14.153 55.212-14.153 55.212l-9.221-3.179-.411-6.492c9.74-10.863 23.785-45.542 23.785-45.542m-1.287-.52c-.139.345-14.067 34.577-23.532 45.134l-.39.434.037.58.411 6.492.059.926.875.3 9.22 3.179 1.207.414.517-1.164c.633-1.429 15.506-35.227 14.27-55.861z"/><path fill="#e5e5e5" d="m69.867 109.105-1.732-8.062.103-.214c7.462-15.493 17.65-62.063 17.75-62.533l1.359.003c4.871 23.013-6.525 70.356-6.642 70.831l-.136.561z"/><path fill="#ccc" d="M86.669 38.443c4.896 23.125-6.637 70.523-6.637 70.523l-9.598-.525-1.57-7.309c7.583-15.749 17.804-62.689 17.804-62.689m-1.358-.294c-.103.467-10.272 46.96-17.697 62.38l-.206.428.1.464 1.57 7.309.223 1.04 1.059.058 9.598.525 1.154.064.272-1.123c.472-1.948 11.55-47.971 6.645-71.14z"/><path fill="#e5e5e5" d="M104.68 103.036c-.632-1.423-15.438-35.071-14.213-55.539l1.337-.22c.14.348 14.11 34.691 23.655 45.337l.192.217-.453 7.245-10.26 3.538z"/><path fill="#ccc" d="M91.16 47.54s14.042 34.678 23.782 45.541l-.406 6.492-9.22 3.18c-.003 0-15.388-34.68-14.157-55.214m1.287-.52-2.673.44c-1.237 20.634 13.636 54.429 14.27 55.86l.517 1.165 1.206-.414 9.22-3.18.876-.3.058-.925.406-6.492.036-.58-.389-.434c-9.465-10.563-23.385-44.795-23.527-45.14"/><path fill="#e5e5e5" d="M97.134 109.138c-.122-.475-12.11-47.82-7.239-70.84l1.356-.01c.108.467 10.885 47.046 18.344 62.541l.103.214-1.728 8.062-10.697.586z"/><path fill="#ccc" d="M90.576 38.443s10.816 46.94 18.397 62.686l-1.568 7.31-9.596.524c-.002.003-12.13-47.393-7.233-70.52m1.353-.31-2.715.024c-4.908 23.177 6.748 69.206 7.245 71.154l.283 1.106 1.14-.064 9.596-.525 1.059-.059.222-1.04 1.567-7.308.1-.464-.206-.428c-7.425-15.429-18.182-61.93-18.29-62.397"/><path fill="#e5e5e5" d="m80.73 109.794 9.79 6.258 7.962-6.594-9.799-71.015z"/><path fill="#ccc" d="m90.573 116.911-10.582-6.767 8-71.778 1.379-.017 9.851 71.398zm-9.104-7.47 8.998 5.753 7.276-6.022-8.985-65.115z"/><path fill="#ffd18f" d="M81.9 85.859c-.364 0-.737-.19-.995-.506-.242-.295-.345-.656-.278-.984.297-1.445 1.048-2.448 1.845-3.515 0 0 .364-.49.37-.5q-.045.03-.086.06c-.212.148-.425.354-.648.568-.553.528-1.178 1.125-1.942 1.153-.578 0-.95-.367-.967-.912-.042-1.759 1.912-3.143 3.598-3.796l.323-.12c.617-.224 1.314-.477 1.62-.958.278-.44.158-.69-.136-1.209l-.192-.35c-.353-.703-.556-1.226-.153-2.054a.83.83 0 0 1 .742-.472c.297 0 .559.167.692.447.117.248.247.498.38.75.298.573.601 1.16.779 1.737.289.545.447 1.232.417 1.874.153.811.108 1.845-.14 2.995-.083.414-.208.831-.33 1.248-.005.395-.07.761-.214 1.131q.008-.01.011-.011c.025 0 .028.15-.02.314-.057.275-.107.578-.15.88l-.005.054-.067.183c-.036.595-.472 1.003-1.078 1.003-.367 0-.728-.158-.967-.425-.244-.211-.37-.558-.328-.947a7 7 0 0 1 .02-.35c-.17.408-.337.82-.467 1.239-.225.734-.52 1.206-1.354 1.437z"/><path fill="undefined" d="M85.001 72.611c.15 0 .295.078.378.248.375.792.89 1.62 1.14 2.44a3.5 3.5 0 0 1 .402 1.756c.173.964.07 1.998-.13 2.94-.092.453-.23.9-.364 1.348.016.347-.045.667-.167.975a.9.9 0 0 1-.02.334c-.066.305-.116.62-.16.93-.012.09-.05.154-.081.226.003-.006.005-.006.005-.009-.008.495-.358.723-.733.723a.97.97 0 0 1-.709-.309c-.172-.15-.275-.372-.242-.677l.017-.117v-.006c.005-.464.075-.853.214-1.273.142-.589.317-1.167.492-1.761.028-.098.041-.195.066-.295-.358.536-.705 1.059-.883 1.553-.317.887-.75 1.746-1.031 2.643-.203.656-.434 1.017-1.115 1.206a.7.7 0 0 1-.186.025c-.52 0-1.036-.561-.93-1.075.322-1.568 1.216-2.599 2.133-3.85.331-.444.643-.919.934-1.4-.497.303-.997.6-1.484.945-.708.503-1.48 1.623-2.4 1.656h-.029c-.35 0-.572-.21-.58-.572-.042-1.684 2.017-2.937 3.376-3.463.706-.272 1.681-.539 2.112-1.217.49-.772.02-1.245-.311-1.9-.336-.668-.48-1.068-.153-1.746a.5.5 0 0 1 .44-.278M85 71.916c-.445 0-.859.264-1.056.673-.467.967-.22 1.615.159 2.36.063.127.133.25.2.366.291.514.305.595.144.85-.242.381-.88.615-1.445.818l-.328.122c-1.881.725-3.871 2.19-3.824 4.127.022.739.548 1.25 1.276 1.25a2.25 2.25 0 0 0 .98-.267 6.6 6.6 0 0 0-.819 2.082c-.089.436.039.9.347 1.276.325.397.798.633 1.265.633q.192 0 .375-.053c.975-.27 1.34-.861 1.59-1.67q.002-.008.005-.017.1.147.236.267c.245.28.703.484 1.168.484.76 0 1.336-.52 1.417-1.256.03-.078.06-.173.075-.281.041-.295.086-.59.15-.875.039-.131.047-.267.044-.387.112-.322.162-.644.162-.98.15-.504.263-.901.347-1.304.247-1.159.294-2.212.144-3.126a4.2 4.2 0 0 0-.483-2.03c-.142-.505-.453-1.1-.753-1.678-.13-.247-.259-.494-.373-.739a1.11 1.11 0 0 0-1.003-.645"/><path fill="#fff" d="M77.134 62.587s4.38 12.384 7.359 12.592 1.503-3.16 1.409-4.285c-.09-1.126-4.739-10.235-8.768-8.307"/><path fill="undefined" d="m84.748 75.535-.28-.011c-3.118-.217-7.206-11.53-7.662-12.823l-.106-.294.281-.134c.417-.2.859-.3 1.314-.3 4.013 0 7.873 7.895 7.954 8.893.017.206.083.486.158.811.234 1.018.556 2.41-.1 3.235-.328.414-.853.623-1.559.623m-7.175-12.75c1.756 4.885 4.969 11.91 6.945 12.047l.23.355v-.347c.49 0 .823-.12 1.017-.361.448-.564.17-1.768-.033-2.649-.083-.36-.156-.68-.172-.908-.078-.94-4.463-9.307-7.987-8.137"/><path fill="#ffd18f" d="M97.493 85.2c-.84-.189-1.165-.667-1.418-1.376-.15-.414-.336-.817-.525-1.222q.015.13.025.266c.075.476-.036.829-.297 1.084-.214.264-.587.44-.976.44-.586 0-1.008-.384-1.067-.965l-.08-.214a12 12 0 0 0-.195-.906 1.1 1.1 0 0 1-.044-.445c-.136-.197-.214-.558-.214-.942a10 10 0 0 1-.414-1.247c-.298-1.137-.39-2.168-.273-3.06-.058-.567.067-1.259.353-1.873.128-.525.403-1.12.676-1.706.12-.259.241-.517.347-.77a.76.76 0 0 1 .703-.478c.303 0 .584.17.73.445.44.808.262 1.336-.06 2.053l-.178.361c-.272.531-.38.787-.08 1.212.327.467 1.039.692 1.67.887l.32.102c1.717.576 3.731 1.87 3.767 3.627.009.564-.364.945-.925.956-.775 0-1.423-.564-1.995-1.062a6 6 0 0 0-.673-.539l-.092-.058.392.478c.845 1.028 1.643 2 2.004 3.43.086.338-.006.71-.25 1.022-.256.328-.631.525-1 .525z"/><path fill="undefined" d="M94.097 72.133c.164 0 .333.092.422.261.359.662.234 1.068-.072 1.748-.3.673-.753 1.165-.228 1.915.459.656 1.448.881 2.165 1.12 1.384.464 3.493 1.62 3.532 3.304.006.37-.214.595-.584.6h-.01c-.915 0-1.732-1.078-2.46-1.544-.5-.326-1.014-.598-1.523-.879.314.467.645.926.995 1.356.972 1.21 1.915 2.199 2.307 3.75.13.519-.384 1.114-.915 1.114a.7.7 0 0 1-.156-.017c-.689-.156-.936-.506-1.167-1.153-.322-.884-.792-1.723-1.147-2.596-.2-.486-.573-.992-.954-1.512.031.1.048.198.081.292.203.587.403 1.159.57 1.74.158.414.244.8.272 1.259v.008c.008.039.011.075.022.117.047.303-.047.528-.21.689a.96.96 0 0 1-.735.342c-.36 0-.694-.214-.725-.692 0 .003.006.005.008.01-.036-.069-.072-.132-.091-.219-.056-.31-.12-.622-.2-.925a.8.8 0 0 1-.034-.33 2.3 2.3 0 0 1-.208-.965c-.153-.442-.311-.884-.425-1.331-.242-.931-.392-1.96-.264-2.932a3.53 3.53 0 0 1 .322-1.773c.214-.83.692-1.681 1.028-2.49a.41.41 0 0 1 .384-.267m0-.694c-.453 0-.845.264-1.026.692-.105.25-.222.502-.341.758-.276.59-.559 1.198-.72 1.826-.259.528-.395 1.248-.348 1.928-.108.92-.01 1.968.29 3.124.105.417.247.834.394 1.25l.011.031c.011.334.078.653.203.976.003.12.02.266.072.42.064.241.122.533.175.825.023.116.059.208.09.28.11.709.666 1.192 1.403 1.192.489 0 .964-.222 1.27-.594a1 1 0 0 0 .172-.211q.003.006.005.013c.284.793.676 1.368 1.668 1.593.097.022.203.036.308.036.476 0 .95-.245 1.273-.659.309-.397.423-.878.314-1.32a6.6 6.6 0 0 0-.909-2.034c.284.13.587.217.915.217.78-.014 1.3-.55 1.29-1.306-.042-1.94-2.096-3.313-4.005-3.955l-.328-.105c-.578-.181-1.229-.384-1.49-.753-.164-.253-.155-.334.114-.86q.094-.18.184-.377c.341-.761.56-1.417.05-2.365a1.18 1.18 0 0 0-1.034-.623"/><path fill="#fff" d="M101.483 61.765S97.668 74.33 94.7 74.676s-1.642-3.087-1.604-4.216c.042-1.13 4.275-10.44 8.387-8.695"/><path fill="undefined" d="M94.308 75.046c-.642 0-1.134-.198-1.453-.581-.665-.8-.409-2.187-.226-3.199.062-.328.117-.614.123-.82.039-1.039 3.607-9.245 7.684-9.245.405 0 .806.083 1.186.244l.29.123-.092.297c-.398 1.309-3.972 12.797-7.078 13.153q-.234.029-.434.028m6.125-13.15c-3.516 0-6.956 7.667-6.99 8.575-.008.231-.063.553-.133.92-.16.878-.38 2.082.075 2.63.234.28.648.38 1.273.31 1.968-.228 4.86-7.389 6.395-12.35a2.2 2.2 0 0 0-.62-.086"/><path fill="#fff" d="M89.928 70.377c-5.08 0-8.968-1.754-11.555-5.21-5.725-7.648-3.401-21.646-2.137-25.945.436-1.484 1.081-3.4 1.81-5.567 2.156-6.417 5.113-15.2 5.63-21.665.58-7.284 4.477-8.906 5.891-9.26a1.92 1.92 0 0 1 .008-1.383c.178-.44.503-.734.865-.79h.147l.372.178c.167.17.264.461.323.77a.67.67 0 0 1 .442-.189h.2l.302.32c.231.397.176.828.081 1.13 4.263 1.487 4.416 6.473 4.527 10.139l.042 1.178c.144 3.176 3.204 19.039 4.355 25.01l.447 2.332c1.04 5.489 2.776 18.461-2.665 25.028-2.154 2.604-5.21 3.924-9.085 3.924"/><path fill="undefined" d="M90.531.9c.523 0 .484 1.739.484 1.739.07-.278.417-.973.709-.973.072 0 .141.045.202.147.306.52-.086 1.173-.086 1.173 4.864 1.39 4.516 7.295 4.691 11.116s4.46 25.478 4.808 27.39S107.233 70.03 89.93 70.03c-19.008 0-15.095-24.803-13.359-30.708 1.737-5.906 6.759-18.62 7.454-27.304s6.08-9.032 6.08-9.032c-.65-.867-.172-1.998.392-2.084q.017-.004.033-.003m0-.695h-.053l-.088.009c-.484.075-.906.45-1.131 1a2.23 2.23 0 0 0-.12 1.262c-1.712.514-5.241 2.426-5.805 9.485-.514 6.422-3.463 15.184-5.614 21.581-.736 2.193-1.373 4.088-1.812 5.58-1.278 4.341-3.618 18.49 2.193 26.25 2.657 3.55 6.636 5.35 11.833 5.35 3.982 0 7.128-1.361 9.351-4.046 5.536-6.68 3.788-19.778 2.78-25.097l-.04-.214c-.058-.311-.217-1.142-.447-2.337-1.15-5.964-4.207-21.81-4.35-24.958-.016-.373-.027-.767-.041-1.173-.114-3.688-.264-8.668-4.466-10.346.05-.325.03-.714-.189-1.087-.18-.31-.475-.492-.803-.492a.8.8 0 0 0-.22.028 1.4 1.4 0 0 0-.294-.503.96.96 0 0 0-.684-.292"/><path fill="#597a54" d="M134.356 32.346s-2.426-10.11-9.568-8.806c-.492-.614-.984-1.231-1.503-1.787 4.866 1.253 10.101-3.902 10.101-3.902-6.647-4.65-11.758-.459-13.236 1.014-1.812-1.414-3.763-2.515-5.786-3.404 4.521-.861 7.64-6.511 7.64-6.511-7.868-2.64-11.578 3.151-12.47 4.844-2.598-.631-5.297-.917-8.037-.931 3.63-1.937 3.546-8.026 3.546-8.026-6.308 1.242-6.689 6.483-6.655 8.098-10.4.717-21.124 5.186-29.25 10.819-.058.041.009.12.067.086 7.12-4.43 15.693-8.004 24.25-9.288.103.281 2.134 5.575 8.112 3.972 0 0-1.584-3.34-4.18-4.397a38.7 38.7 0 0 1 6.798.167c-.484 2.357-.934 8.39 6.094 11.469 0 0 1.723-7.298-2.02-10.76a28.7 28.7 0 0 1 6.622 2.506c-.984 2.185-2.768 7.987 3.43 12.542 0 0 2.614-5.408 1.089-9.554q2.319 1.885 4.365 4.407c.645 2.351 2.98 7.86 10.591 7.442"/><path fill="#7ca075" d="M100.441 12.668s3.227-3.187 3.88-6.494c0-.003.839 3.498-3.88 6.494M113.961 14.658s4.177-1.77 6.005-4.605c0 0-.51 3.566-6.005 4.605M123.34 21.436s4.516-.436 7.109-2.593c0 .003-1.56 3.249-7.109 2.593M126.728 24.09s3.799 2.479 5.097 5.591c0-.003.127-3.601-5.097-5.591M118.035 20.233s1.442 4.302.53 7.547c0 0 2.332-2.748-.53-7.547M107.778 15.067s2.134 4.004 1.776 7.355c0 0 1.842-3.095-1.776-7.356M100.36 17.754s-1.522-2.404-3.462-3.246c.003-.003 2.26-.047 3.463 3.246"/><path fill="undefined" d="M105.04 4.837s.084 6.089-3.546 8.026c2.74.016 5.439.3 8.037.93.7-1.328 3.135-5.182 7.957-5.502 1.322-.086 2.823.092 4.513.659 0 0-3.118 5.652-7.64 6.511 2.026.89 3.974 1.99 5.786 3.404.925-.922 3.274-2.91 6.536-3.126 1.943-.128 4.216.375 6.7 2.112 0 0-3.865 3.807-8.042 4.082a6.5 6.5 0 0 1-2.06-.177c.523.553 1.012 1.172 1.504 1.787q.418-.075.812-.103c6.516-.431 8.756 8.91 8.756 8.91-7.611.413-9.946-5.092-10.593-7.443q-2.047-2.522-4.366-4.407c1.528 4.146-1.09 9.554-1.09 9.554-6.196-4.555-4.415-10.36-3.429-12.542a28.8 28.8 0 0 0-6.622-2.507c3.74 3.463 2.02 10.76 2.02 10.76-7.028-3.079-6.578-9.112-6.094-11.468a38.7 38.7 0 0 0-6.797-.167c2.595 1.056 4.18 4.396 4.18 4.396a8.8 8.8 0 0 1-1.677.287c-4.69.31-6.344-4.005-6.436-4.258-8.556 1.284-17.13 4.86-24.25 9.288a.05.05 0 0 1-.024.008c-.05.003-.092-.058-.042-.095 8.126-5.633 18.85-10.101 29.249-10.818-.028-1.618.353-6.861 6.658-8.101m.687-.842-.817.161c-6.125 1.206-7.095 5.925-7.206 8.134-9.576.798-20.095 4.747-28.96 10.891 0 0-.464.375-1.206 1.181-1.056 1.145-1.034 1.465-1.034 1.465l1.512-.681c.344-.156 1.045-.445 1.381-.62.286-.15 1.109-.67 1.109-.67 7.475-4.649 14.848-7.3 22.532-8.542.64 1.292 2.651 4.463 6.9 4.182a9.4 9.4 0 0 0 1.81-.308l.805-.217-.355-.753c-.053-.111-.979-2.026-2.593-3.482 1.261-.006 2.52.05 3.768.164-.417 2.92-.189 8.506 6.628 11.49l.761.337.192-.811c.064-.27 1.326-5.786-.853-9.677 1.337.434 2.637.965 3.89 1.587-1.064 2.726-2.164 8.312 3.908 12.778l.67.495.367-.754c.094-.194 1.953-4.101 1.59-7.94.905.86 1.78 1.802 2.609 2.822.753 2.606 3.307 8.242 11.26 7.808l.834-.044-.195-.811c-.097-.406-2.46-9.905-9.479-9.438a6 6 0 0 0-.475.047q-.059-.075-.12-.15.22 0 .431-.016c4.383-.29 8.315-4.116 8.482-4.28l.594-.586-.683-.478c-2.349-1.643-4.75-2.396-7.142-2.238-3.063.203-5.378 1.87-6.54 2.91a26.4 26.4 0 0 0-3.857-2.373c3.802-1.718 6.25-6.086 6.367-6.297l.406-.731-.79-.264c-1.667-.559-3.276-.792-4.78-.695-4.696.311-7.294 3.768-8.264 5.4a35 35 0 0 0-5.786-.778c2.37-2.657 2.343-7.162 2.337-7.387z"/><path fill="#ffd18f" d="M88.597 11.162s2.432-2.318 4.169 0c0 0-1.968 4.674-2.549 5.639.003 0-.925-1.01-1.62-5.639"/><path fill="undefined" d="m90.279 17.376-.315-.342c-.102-.111-1.02-1.217-1.709-5.822l-.027-.178.13-.122c.05-.047 1.198-1.126 2.557-1.126.83 0 1.548.395 2.131 1.168l.12.16-.078.184c-.08.192-1.984 4.708-2.57 5.683zm-1.31-6.078c.426 2.743.929 4.14 1.234 4.788.65-1.32 1.843-4.115 2.162-4.868-1.064-1.254-2.89-.331-3.395.08M86.733 6.813c.294 0 .56.172.753.453.194.28.314.667.314 1.095s-.12.814-.314 1.095c-.192.28-.459.453-.754.453-.294 0-.56-.173-.753-.453-.194-.281-.314-.667-.314-1.095s.12-.814.314-1.095c.192-.28.459-.453.754-.453"/><path fill="#fff" d="M86.469 7.466a.45.45 0 0 1 .319.136c.08.083.13.2.13.328s-.05.245-.13.328a.45.45 0 0 1-.32.136.45.45 0 0 1-.32-.136.47.47 0 0 1-.13-.328c0-.128.05-.244.13-.328a.45.45 0 0 1 .32-.136"/><path fill="undefined" d="M94.43 6.813c.295 0 .562.172.753.453.195.28.314.667.314 1.095s-.12.814-.314 1.095c-.191.28-.458.453-.753.453-.294 0-.561-.173-.753-.453-.194-.281-.314-.667-.314-1.095s.12-.814.314-1.095c.192-.28.459-.453.753-.453"/><path fill="#fff" d="M94.166 7.466a.45.45 0 0 1 .32.136c.08.083.13.2.13.328s-.05.245-.13.328a.45.45 0 0 1-.32.136.45.45 0 0 1-.32-.136.47.47 0 0 1-.13-.328c0-.128.05-.244.13-.328a.45.45 0 0 1 .32-.136"/></svg>