<svg xmlns="http://www.w3.org/2000/svg" xml:space="preserve" viewBox="0 0 428.348 428.348"><path d="M124.926 315.896h21.807v40.332h-21.807z" style="fill:#5c6670"/><path d="M124.926 356.228h21.807v8.666h-21.807z" style="fill:#2d3740"/><path d="M104.387 258.125c0-17.365 14.078-31.441 31.443-31.441s31.441 14.076 31.441 31.441v37.232c0 17.365-14.076 31.441-31.441 31.441s-31.443-14.076-31.443-31.441z" style="fill:#c8c9c9"/><path d="M280.49 315.896h21.807v40.332H280.49z" style="fill:#5c6670"/><path d="M280.49 356.228h21.807v8.666H280.49z" style="fill:#2d3740"/><path d="M259.951 258.125c0-17.365 14.078-31.441 31.443-31.441s31.441 14.076 31.441 31.441v37.232c0 17.365-14.076 31.441-31.441 31.441s-31.443-14.076-31.443-31.441z" style="fill:#c8c9c9"/><path d="M85.367 315.896h21.807v40.332H85.367z" style="fill:#7d868c"/><path d="M85.367 356.228h21.807v8.666H85.367z" style="fill:#333e48"/><path d="M64.828 258.125c0-17.365 14.077-31.441 31.442-31.441s31.442 14.076 31.442 31.441v37.232c0 17.365-14.077 31.441-31.442 31.441s-31.442-14.076-31.442-31.441z" style="fill:#dadbdc"/><path d="M240.932 315.896h21.807v40.332h-21.807z" style="fill:#7d868c"/><path d="M240.932 356.228h21.807v8.666h-21.807z" style="fill:#333e48"/><path d="M220.393 258.125c0-17.365 14.077-31.441 31.442-31.441s31.442 14.076 31.442 31.441v37.232c0 17.365-14.077 31.441-31.442 31.441s-31.442-14.076-31.442-31.441z" style="fill:#dadbdc"/><path d="M363.014 214.971c0-8.082-3.428-15.359-8.904-20.471-.824-36.938-20.643-69.186-50.075-87.369.206-1.367.313-2.766.313-4.191 0-15.463-12.536-28-28-28-2.433 0-4.793.313-7.043.895-5.129-5.787-12.615-9.439-20.957-9.439-8.904 0-16.832 4.16-21.96 10.639-8.49-8.395-20.157-13.58-33.04-13.58a46.78 46.78 0 0 0-27.523 8.912c-5.111-5.48-12.391-8.912-20.477-8.912-12.553 0-23.176 8.262-26.73 19.643a46.8 46.8 0 0 0-22.347-5.643c-17.181 0-32.202 9.221-40.398 22.983a17.07 17.07 0 0 0-9.128-2.646c-2.074 0-4.053.387-5.893 1.061-2.463-3.594-6.595-5.955-11.28-5.955a13.64 13.64 0 0 0-10.563 4.995 18 18 0 0 0-1.834-.101C7.689 97.791 0 105.48 0 114.965s7.689 17.174 17.174 17.174c2.561 0 4.979-.578 7.158-1.588a27.86 27.86 0 0 0-3.149 12.557c-10.39 8.621-17.009 21.629-17.009 36.185 0 12.426 4.832 23.719 12.707 32.123a46.8 46.8 0 0 0-3.707 18.326c0 24.064 18.092 43.893 41.412 46.658 18.527 16.152 42.749 25.938 69.259 25.938h.979c3.47 1.541 7.309 2.404 11.35 2.404s7.88-.863 11.35-2.404h8.961c9.014 8.406 21.104 13.559 34.4 13.559 13.299 0 25.387-5.152 34.401-13.559h23.411c16.447 0 32.014-3.768 45.887-10.484a47.2 47.2 0 0 0 10.242 1.133c25.957 0 47-21.043 47-47 0-2.77-.254-5.477-.713-8.113 7.196-5.067 11.901-13.435 11.901-22.903" style="fill:#dadbdc"/><path d="M386.346 92.971c23.197 0 42.002 18.805 42.002 42.004 0 23.195-18.805 42-42.002 42h-49.733c-23.196 0-42.001-18.805-42.001-42 0-23.199 18.805-42.004 42.001-42.004z" style="fill:#5c6670"/><circle cx="367.015" cy="124.453" r="6.487" style="fill:#333e48"/><path d="M353.49 70.43a19.95 19.95 0 0 0-14.151 5.863c-5.103-6.869-13.276-11.322-22.491-11.322-15.464 0-28 12.537-28 28 0 .154.01.305.012.457-22.885 3.162-40.512 22.789-40.512 46.543 0 25.957 21.043 47 47 47 3.945 0 7.774-.492 11.436-1.408 3.217 6.748 10.08 11.424 18.053 11.424 11.053 0 20.012-8.961 20.012-20.012 0-6.365-2.982-12.025-7.615-15.689a46.8 46.8 0 0 0 5.115-21.314c0-9.412-2.777-18.17-7.542-25.521a28.1 28.1 0 0 0 6.625-8.066c3.357 2.543 7.525 4.07 12.06 4.07 11.052 0 20.012-8.961 20.012-20.012S364.542 70.43 353.49 70.43" style="fill:#dadbdc"/><path d="m318.014 128.896 4.334 19.998a9.21 9.21 0 1 1-18 3.9 9.4 9.4 0 0 1 0-3.9l4.334-19.998a4.774 4.774 0 0 1 9.332 0" style="fill:#5c6670"/></svg>