<svg xmlns="http://www.w3.org/2000/svg" width="218.222" height="126.162" viewBox="0 0 218.222 126.162"><g fill="none" stroke-linecap="none" stroke-linejoin="none" stroke-miterlimit="10" stroke-width="none" data-paper-data="{&quot;isPaintingLayer&quot;:true}" font-family="none" font-size="none" font-weight="none" style="mix-blend-mode:normal" text-anchor="none"><g fill="#fc9fe4" stroke="#ea3681" stroke-linecap="butt" stroke-linejoin="miter" stroke-width=".902" data-paper-data="{&quot;index&quot;:null}"><path d="M179.749 34.708s-.501-5.1-.827-6.983 6.739-.226 7.19 2.763l.626 4.244zM145.83 34.732s-.501-5.098-.827-6.982 6.764-.126 7.19 2.763c.425 2.889.6 4.22.6 4.22zM111.459 34.732s-.501-5.098-.827-6.982 6.739-.126 7.19 2.763.626 4.22.626 4.22zM77.64 34.732s-.501-5.098-.827-6.982 6.764-.126 7.19 2.763.602 4.22.602 4.22zM44.622 34.708s-.501-5.1-.826-6.983c-.326-1.884 6.739-.226 7.189 2.763l.627 4.244z"/></g><g stroke="#5e154d" stroke-linecap="butt" stroke-linejoin="miter" data-paper-data="{&quot;index&quot;:null}"><path stroke-width="2.405" d="M202.584 20.93H9.839"/><path stroke-width="3.607" d="M204.412 5.408H11.668"/><path fill="#5e154d" stroke-width=".835" d="M173.5 34.72h-3.483V9.503h3.483zM139.88 34.72h-3.482V5.409h3.483zM105.936 34.72h-3.483V5.409h3.483zM71.966 34.72h-3.481V5.409h3.481zM37.997 34.72h-3.483V5.409h3.483z"/></g><path fill="#ea3681" d="M4.935.601h10.522v8.967h-5.01v25.118h191.341c1.904 0 2.781-.803 2.506-3.114s-2.957-18.839-3.357-20.647c-.401-1.81-.2-1.407-2.23-1.407h-30.061V.601h38.153c2.38 0 3.256.854 3.733 2.813.475 1.96 5.786 33.232 6.287 36.522.513 3.325.781 6.683.802 10.048v60.534a4.364 4.364 0 0 1-4.334 4.345h-51.08a13.7 13.7 0 0 0-4.509-10.047 13.5 13.5 0 0 0-18.112 0 14 14 0 0 0-2.705 3.366 13.4 13.4 0 0 0-1.804 6.757H58.02a13.64 13.64 0 0 0-1.779-6.757 14.1 14.1 0 0 0-2.73-3.366 13.5 13.5 0 0 0-18.112 0 14.7 14.7 0 0 0-2.706 3.366 13.67 13.67 0 0 0-1.803 6.757H4.935a4.365 4.365 0 0 1-4.334-4.346V5.097a4.38 4.38 0 0 1 1.223-3.162A4.35 4.35 0 0 1 4.935.6" data-paper-data="{&quot;index&quot;:null}"/><g fill="#5e154d" stroke="#5e154d" stroke-linecap="butt" stroke-linejoin="miter" stroke-width="1.202" data-paper-data="{&quot;index&quot;:null}"><path d="M135.077 114.788H58.02c.004-2.37-.61-4.698-1.779-6.757h80.64a13.4 13.4 0 0 0-1.803 6.757zM217.595 110.443a4.365 4.365 0 0 1-4.333 4.345h-51.055a13.4 13.4 0 0 0-1.803-6.757h57.191zM32.692 108.031a13.67 13.67 0 0 0-1.803 6.757H4.935a4.366 4.366 0 0 1-4.334-4.345v-2.512z"/></g><g fill="#fc9fe4" stroke="#fc9fe4" stroke-linecap="butt" stroke-linejoin="miter" stroke-width="1.202" data-paper-data="{&quot;index&quot;:null}"><path d="M217.595 108.111h-57.191a13.4 13.4 0 0 0-2.706-3.366h59.897zM136.88 108.111H56.24a14.1 14.1 0 0 0-2.73-3.366h86.076a14 14 0 0 0-2.705 3.366zM35.398 104.745a14.6 14.6 0 0 0-2.706 3.366H.602v-3.366z"/></g><path fill="#fde982" stroke="#5e154d" stroke-linecap="butt" stroke-linejoin="round" stroke-width=".902" d="M63.205 62.92h37.577v51.918H63.205V62.92M167.743 62.944h37.578v51.894h-37.578V62.944" data-paper-data="{&quot;index&quot;:null}"/><g data-paper-data="{&quot;index&quot;:null}"><path fill="#fde982" d="M153.807 109.79a7.17 7.17 0 0 1 2.1 5.078 7.17 7.17 0 0 1-2.1 5.079 7.13 7.13 0 0 1-5.065 2.105 7.13 7.13 0 0 1-5.065-2.105 7.17 7.17 0 0 1-2.1-5.079 7.17 7.17 0 0 1 2.1-5.078 7.13 7.13 0 0 1 5.065-2.106c1.976 0 3.768.805 5.065 2.106"/><path fill="#5e154d" stroke="#5e154d" stroke-linecap="round" stroke-linejoin="round" stroke-width=".835" d="M148.642 104.745c5.783 0 10.47 4.701 10.47 10.5s-4.687 10.5-10.47 10.5-10.471-4.701-10.471-10.5 4.687-10.5 10.47-10.5m0 16.478a5.99 5.99 0 0 0 5.533-3.712 6.01 6.01 0 0 0-1.308-6.545 5.97 5.97 0 0 0-6.534-1.285 6 6 0 0 0-3.679 5.564c.014 3.305 2.69 5.978 5.988 5.978"/><path fill="#fff" stroke="#a170e0" stroke-linecap="round" stroke-linejoin="round" stroke-width=".902" d="M150.749 113.132c.54.541.874 1.288.874 2.113 0 .824-.334 1.572-.874 2.113a2.97 2.97 0 0 1-2.107.876 2.97 2.97 0 0 1-2.108-.876 2.98 2.98 0 0 1-.873-2.113c0-.825.334-1.572.873-2.113a2.97 2.97 0 0 1 4.215 0"/></g><g data-paper-data="{&quot;index&quot;:null}"><path fill="#fde982" d="M49.565 109.79a7.17 7.17 0 0 1 2.1 5.078 7.17 7.17 0 0 1-2.1 5.079 7.14 7.14 0 0 1-5.065 2.105 7.14 7.14 0 0 1-5.065-2.105 7.17 7.17 0 0 1-2.1-5.079c0-1.982.803-3.778 2.1-5.078a7.13 7.13 0 0 1 5.065-2.106c1.976 0 3.767.805 5.065 2.106"/><path fill="#5e154d" stroke="#5e154d" stroke-linecap="round" stroke-linejoin="round" stroke-width=".835" d="M44.5 104.745c5.776.028 10.439 4.74 10.421 10.533s-4.712 10.475-10.488 10.466c-5.777-.009-10.455-4.707-10.455-10.5 0-2.793 1.11-5.47 3.085-7.441a10.46 10.46 0 0 1 7.437-3.058m0 16.478a5.99 5.99 0 0 0 5.552-3.694 6.02 6.02 0 0 0-1.294-6.554 5.98 5.98 0 0 0-6.536-1.297 6 6 0 0 0-3.685 5.567c.015 3.296 2.675 5.964 5.963 5.978"/><path fill="#fff" stroke="#a170e0" stroke-linecap="round" stroke-linejoin="round" stroke-width=".902" d="M46.607 113.132c.54.541.874 1.288.874 2.113a2.987 2.987 0 0 1-2.981 2.989 2.986 2.986 0 0 1-2.98-2.989 2.985 2.985 0 0 1 2.98-2.99 2.97 2.97 0 0 1 2.107.877"/></g><g stroke-linecap="butt" stroke-linejoin="miter" data-paper-data="{&quot;index&quot;:null}"><path fill="#8b49d4" d="M208.036 62.882h4.31v19.642l-4.31-11.328zM212.346 88.226v4.621a4.25 4.25 0 0 1-1.193 3.16 4.23 4.23 0 0 1-3.117 1.287V76.948z"/><path fill="#b388ed" d="m208.036 71.196 4.31 11.328v5.702l-4.31-11.353z"/><path stroke="#5e154d" stroke-width=".902" d="M208.036 62.882h4.31v30.142a4.25 4.25 0 0 1-1.193 3.16 4.23 4.23 0 0 1-3.117 1.285z"/></g><g fill="#fff" stroke="#fff" stroke-linecap="butt" stroke-linejoin="miter" stroke-width=".835" data-paper-data="{&quot;index&quot;:null,&quot;origPos&quot;:null}"><path d="M53.18 46.184c-1.085-.022-2.17.079-3.232.3-1.277.302-1.653 1.358-.225 2.01a5.5 5.5 0 0 1 3.532 4.045 3.115 3.115 0 0 1-2.23 3.566 17.7 17.7 0 0 1-6.087.352v-3.04c1.275.12 2.558.12 3.832 0 .878-.175.953-1.28 0-1.657-1.903-.754-4.684-2.361-3.431-5.627.852-2.185 3.732-3.466 7.766-3.09zM174.98 47.314a10.3 10.3 0 0 0-2.506.226c-.952.226-1.227 1.03-.15 1.532a4.07 4.07 0 0 1 2.655 3.064 2.36 2.36 0 0 1-1.678 2.713c-1.511.346-3.07.431-4.61.252V52.79c.967.094 1.94.094 2.906 0 .676-.126.727-.955 0-1.256-1.353-.553-3.457-1.734-2.505-4.245.651-1.683 2.83-2.638 5.887-2.336zM63.852 44.777v2.512a6.05 6.05 0 0 0-4.209 1.607c-1.127 1.306-.676 3.09.702 3.29a5.7 5.7 0 0 0 3.331-.502v2.512a6.93 6.93 0 0 1-5.01.804 3.8 3.8 0 0 1-2.446-1.715 3.83 3.83 0 0 1-.46-2.957 6.28 6.28 0 0 1 3.457-4.647 9 9 0 0 1 4.635-.904zM103.658 44.777v2.512a6.08 6.08 0 0 0-4.208 1.607c-1.127 1.306-.676 3.09.7 3.29a5.7 5.7 0 0 0 3.333-.502v2.512a6.93 6.93 0 0 1-5.01.804 3.8 3.8 0 0 1-2.394-1.797c-.52-.9-.651-1.976-.362-2.975a6.28 6.28 0 0 1 3.457-4.647 9 9 0 0 1 4.484-.804zM70.44 44.702l-.35 3.365a13.7 13.7 0 0 1 4.584-1.934v2.512a9.73 9.73 0 0 0-4.359 2.286 12 12 0 0 0-1.127 4.37h-2.706l1.403-10.55zM162.428 44.702l-.35 3.365a13.7 13.7 0 0 1 4.61-1.934v2.512a10 10 0 0 0-4.384 2.286 12 12 0 0 0-1.128 4.37h-2.706l1.353-10.55zM85.972 54.297l-1.979 1.005a8.5 8.5 0 0 1-1.127-1.583 3.45 3.45 0 0 1-3.783 1.532c-3.081-.452-3.357-5.852-1.252-8.214a6.83 6.83 0 0 1 6.212-2.285 29.4 29.4 0 0 0 .15 4.546c.29 1.76.891 3.453 1.779 4.999zm-3.858-3.265a13 13 0 0 1-.375-3.015 2.76 2.76 0 0 0-2.305 1.482c-.476.93-.326 2.336.676 2.512 1.052.15 2.004-.98 2.004-.98zM86.699 44.752h7.94v2.512H86.7zM126.555 41.612H136.6v2.512h-10.045z"/><path d="M92.21 41.537s-1.954 10.348-1.002 10.926c.951.578 2.88-.327 2.88-.327v2.362a7.2 7.2 0 0 1-3.106.603 2.5 2.5 0 0 1-1.869-.68 2.51 2.51 0 0 1-.786-1.832c.14-3.693.6-7.365 1.378-10.977zM106.59 41.612h2.103l-1.052 13.589h-2.104l1.053-13.589M130.337 44.099h2.355l-1.026 11.203h-2.38l1.051-11.203"/><path d="M108.368 45.405a2.9 2.9 0 0 1 1.954-.527c1.603 0 2.906 1.13 3.106 3.516.214 1.985.92 3.885 2.054 5.526l-2.254 1.28c-.658-.9-1.166-1.9-1.503-2.963-.752-2.311-.276-3.567-1.403-4.22s-2.155.377-2.155.377zM144.852 46.757a4.36 4.36 0 0 1 .592 3.596 5.244 5.244 0 0 1-5.01 5.024c-2.355 0-3.959-2.135-3.532-5.476a5.34 5.34 0 0 1 4.834-5.023 4.33 4.33 0 0 1 3.116 1.879zm-1.879 1.526a2.13 2.13 0 0 0-1.562-.919 2.51 2.51 0 0 0-2.38 2.512c-.226 1.658.575 2.713 1.728 2.713a2.51 2.51 0 0 0 2.506-2.512 2.14 2.14 0 0 0-.292-1.794zM148.45 45.204h2.104s-1.052 5.4 0 6.807 2.63.301 3.557-.553v2.512a3.48 3.48 0 0 1-2.88 1.256c-2.054 0-3.207-1.934-3.207-4.672.015-1.791.157-3.579.426-5.35z"/><path d="M156.216 45.204a40 40 0 0 0-.601 5.828c.04 1.441.24 2.873.6 4.27h-1.928a9.4 9.4 0 0 1-.677-3.995c.114-2.046.348-4.084.702-6.103z"/></g><g data-paper-data="{&quot;index&quot;:null}"><path fill="#8b49d4" stroke="#fff" stroke-linecap="round" stroke-linejoin="round" stroke-width=".902" d="M188.611 67.196h12.65v37.527h-12.65z"/><path fill="#b388ed" d="m179.442 67.196 5.01 13.262v3.969l-6.563-17.23z"/><path fill="#8b49d4" d="M184.503 67.196v13.262l-5.01-13.262zM173.254 67.196l11.249 29.463v8.064h-12.526V67.196z"/><path fill="#b388ed" d="m176.486 67.196 8.017 21.074v8.44l-11.249-29.463z"/><path fill="#8b49d4" d="m177.94 67.196 6.563 17.231v3.843l-8.017-21.023z"/><path stroke="#fff" stroke-linecap="round" stroke-linejoin="round" stroke-width=".902" d="M184.503 67.196v37.527h-12.526V67.196z"/></g><g data-paper-data="{&quot;index&quot;:null}"><path fill="#b388ed" d="m150.063 62.907 9.62 25.319h-3.657l-9.595-25.118z"/><path fill="#8b49d4" d="M162.188 62.907v25.319h-2.505l-9.62-25.118z"/><path fill="#b388ed" d="m143.45 62.907 9.594 25.319h-1.503l-9.594-25.118z"/><path fill="#8b49d4" d="m146.431 62.907 9.595 25.319h-2.982l-9.594-25.118zM106.123 62.907h35.824l9.594 25.319h-45.418z"/><path stroke="#5e154d" stroke-linecap="round" stroke-linejoin="round" stroke-width=".902" d="M106.123 62.907h56.065v25.319h-56.065z"/><path fill="#5e154d" stroke="#5e154d" stroke-linecap="round" stroke-linejoin="round" stroke-width=".835" d="M135.709 88.1h-3.482V62.882h3.482z"/></g><g data-paper-data="{&quot;index&quot;:null}"><path fill="#8b49d4" stroke="#fff" stroke-linecap="round" stroke-linejoin="round" stroke-width=".902" d="M67.203 67.196h12.526v37.527H67.203z"/><path fill="#b388ed" d="m89.023 67.196 7.515 19.617v8.44L85.842 67.196z"/><path fill="#8b49d4" d="M96.538 67.196v19.617l-7.515-19.617zM85.917 67.196l10.621 28.057v9.47H84.013V67.196z"/><path stroke="#fff" stroke-linecap="round" stroke-linejoin="round" stroke-width=".902" d="M84.013 67.196h12.525v37.527H84.013z"/></g><g data-paper-data="{&quot;index&quot;:null}"><path fill="#b388ed" d="M34.982 62.882 44.577 88h-4.534l-9.595-25.118z"/><path fill="#8b49d4" d="M30.448 62.882 40.043 88h-3.107L27.34 62.882zM58.004 62.882V88H44.577l-9.595-25.118z"/><path fill="#b388ed" d="M27.341 62.882 36.936 88h-2.054l-9.595-25.118z"/><path fill="#8b49d4" d="M11.409 62.882h13.903L34.907 88H11.409z"/><path stroke="#5e154d" stroke-linecap="round" stroke-linejoin="round" stroke-width=".902" d="M11.66 62.882h46.62V88H11.66z"/><path fill="#5e154d" stroke="#5e154d" stroke-linecap="round" stroke-linejoin="round" stroke-width=".835" d="M49.888 88.1h-3.483V62.882h3.483zM23.558 88.1h-3.481V62.882h3.481z"/></g><g stroke-linecap="butt" stroke-linejoin="miter" stroke-width="1.336" data-paper-data="{&quot;index&quot;:null}"><path stroke="#fff" d="M3.5 11.832v-4.37c0-3.09 1.128-4.07 4.21-4.07h.8M11.116 3.392h1.704"/><path stroke="#f48cc5" d="M177.883 3.392h10.672M171.796 3.392h3.306"/></g><g stroke="#d81d7b" stroke-linecap="butt" stroke-linejoin="miter" stroke-width="1.202" data-paper-data="{&quot;index&quot;:null}"><path d="m206.475 41.592 1.403-3.064M196.806 45.988l-1.428 3.24M188.965 40.813l-2.53.88M165.617 59.225l-3.633.2M175.913 40.235l2.68 2.085M153.242 41.969l1.753-2.26M141.442 40.788l-2.73-1.582M118.746 39.633l3.357.15M96.7 55.884l1.905-2.486M123.38 59.652l3.508-.578M101.536 44.983l-2.956-1.055M76.51 58.823l-3.207-1.13M39.684 57.893l-2.806-2.185M75.808 41.416l2.705-2.386M59.3 40.135l4.384.201M38.206 42.22l2.856-1.985M22.45 43.602l-1.804-2.01M8.47 45.46l2.856.528M10.65 55.809l-1.528 2.637M21.121 54.151l.551 3.29M33.32 48.8h-2.93M184.33 49.981l.25 3.14M147.73 59.45l-2.179-2.888M194.025 58.245l3.056-1.934M208.53 53.171l-3.332-1.03"/></g><path stroke="#5e154d" stroke-linecap="round" stroke-linejoin="round" stroke-width="1.202" d="M4.935.601h10.522v8.967h-5.01v25.118h191.341c1.904 0 2.781-.803 2.506-3.114s-2.957-18.839-3.357-20.647c-.401-1.81-.2-1.407-2.23-1.407h-30.061V.601h38.153c2.38 0 3.256.854 3.733 2.813.475 1.96 5.786 33.232 6.287 36.522.513 3.325.781 6.683.802 10.048v60.534a4.364 4.364 0 0 1-4.334 4.345h-51.08a13.7 13.7 0 0 0-4.509-10.047 13.5 13.5 0 0 0-18.112 0 14 14 0 0 0-2.705 3.366 13.4 13.4 0 0 0-1.804 6.757H58.02a13.64 13.64 0 0 0-1.779-6.757 14.1 14.1 0 0 0-2.73-3.366 13.5 13.5 0 0 0-18.112 0 14.7 14.7 0 0 0-2.706 3.366 13.67 13.67 0 0 0-1.803 6.757H4.935a4.365 4.365 0 0 1-4.334-4.346V5.097a4.38 4.38 0 0 1 1.223-3.162A4.35 4.35 0 0 1 4.935.6" data-paper-data="{&quot;index&quot;:null}"/></g></svg>