<svg xmlns="http://www.w3.org/2000/svg" xml:space="preserve" style="fill-rule:evenodd;clip-rule:evenodd;stroke-linejoin:round;stroke-miterlimit:2" viewBox="0 -120 420 420"><path d="m443.59 587.353 10.835-27.004h34.915l11.413 26.336M635.09 587.353l10.835-27.004h34.915l11.413 26.336" style="fill:#5c5f60;fill-rule:nonzero" transform="translate(-529.961 -597.24)scale(1.27)"/><path d="m443.59 588.852 10.835-27.003h34.915l11.413 26.336M635.09 588.852l10.835-27.003h34.915l11.413 26.336" style="fill:#5c5f60;fill-rule:nonzero" transform="translate(-529.961 -597.24)scale(1.27)"/><path d="m429.563 592.98-9.375-51.38 75.51-12.25 65.333-37.585H718.3l26.638 42.585-9.375 58.577-42.652.008-11.223-25.772h-34.625l-10.541 25.855-134.5-.001-11.25-25.667-34.834-.25-10.668 25.834z" style="fill:#e4e2dc;fill-rule:nonzero" transform="translate(-529.961 -597.24)scale(1.27)"/><path d="m447.086 588.84-17.48 3.557.125.593 15.774.009" style="fill:#f3f2ec;fill-rule:nonzero" transform="translate(-529.961 -597.24)scale(1.27)"/><path d="m735.703 592.922-42.656.01-11.172-25.744-34.832-.062-8.418 25.817-136.877.03-11.08-25.64-34.667-.248-10.751 26.251-15.583-.083L420.5 541.5l75.625-12.375 35.836-.125 206.117 49.313z" style="fill:#f3f2ec;fill-rule:nonzero" transform="translate(-529.961 -597.24)scale(1.27)"/><path d="m745.074 534.24-2.234 14.391-21.934.013-5.426-14.529z" style="fill:#ad2125;fill-rule:nonzero" transform="translate(-529.961 -597.24)scale(1.27)"/><path d="m453.684 545.985-1.083 14.458-28.823.014-2.625-14.511z" style="fill:#f6f1e1;fill-rule:nonzero" transform="translate(-529.961 -597.24)scale(1.27)"/><path d="m745.106 534.178-.62 4.026-27.505-.042-1.516-4.062z" style="fill:#fec;fill-rule:nonzero" transform="translate(-529.961 -597.24)scale(1.27)"/><path d="m506.101 529.103 56.751-33.504h114.142l19.346 32.837zM720.838 495.602l-17.094-.002 36.764 31.375z" style="fill:#313156;fill-rule:nonzero" transform="translate(-529.961 -597.24)scale(1.27)"/><path d="m604.548 493.224 3.778 1.172-7.58 44.669-4.006-.834z" style="fill:#e4e2dc;fill-rule:nonzero" transform="translate(-529.961 -597.24)scale(1.27)"/><path d="m531.59 524.725.396 4.292 5.021-.021-.501-4.977z" style="fill:#c0bdba;fill-rule:nonzero" transform="translate(-529.961 -597.24)scale(1.27)"/><path d="m531.59 524.725-.75-7.875 14.75-2.75 1.875 10.75z" style="fill:#e4e2dc;fill-rule:nonzero" transform="translate(-529.961 -597.24)scale(1.27)"/><path d="M487.008 591.643c0 7.801-6.324 14.125-14.125 14.125s-14.125-6.324-14.125-14.125 6.324-14.125 14.125-14.125 14.125 6.324 14.125 14.125" style="fill:#e3e1db;fill-rule:nonzero" transform="translate(-529.961 -597.24)scale(1.27)"/><path d="M473.425 604.212c-7.021 0-12.712-5.691-12.712-12.711s5.691-12.712 12.712-12.712 12.712 5.692 12.712 12.712-5.691 12.711-12.712 12.711m0-33.212c-11.322 0-20.5 9.179-20.5 20.5s9.178 20.5 20.5 20.5 20.5-9.179 20.5-20.5-9.178-20.5-20.5-20.5" style="fill:#2a2b2a;fill-rule:nonzero" transform="translate(-529.961 -597.24)scale(1.27)"/><path d="M678.673 591.643c0 7.801-6.324 14.125-14.125 14.125s-14.125-6.324-14.125-14.125 6.324-14.125 14.125-14.125 14.125 6.324 14.125 14.125" style="fill:#e3e1db;fill-rule:nonzero" transform="translate(-529.961 -597.24)scale(1.27)"/><path d="M665.09 604.212c-7.021 0-12.712-5.691-12.712-12.711s5.691-12.712 12.712-12.712 12.712 5.692 12.712 12.712-5.691 12.711-12.712 12.711m0-33.212c-11.322 0-20.5 9.179-20.5 20.5s9.178 20.5 20.5 20.5 20.5-9.179 20.5-20.5-9.178-20.5-20.5-20.5" style="fill:#2a2b2a;fill-rule:nonzero" transform="translate(-529.961 -597.24)scale(1.27)"/></svg>