<svg xmlns="http://www.w3.org/2000/svg" width="86.696" height="127.793" viewBox="-0.338 -0.383 86.696 127.793"><path fill="#828278" d="M50.242 93.998s-2.186-5.449 4.146-5.449c6.333 0 5.794 9.525 5.269 12.88a29.5 29.5 0 0 1-1.96 6.656h-6.916c1.652-7.183-.539-14.087-.539-14.087"/><path d="M50.242 107.68h7.921c-2.39 8.84-7.871 15.708-8.075 16.28.675.068 1.295.131 1.915.185s1.281.09 1.91.135l.145.743-.738.45c-.394.212 0 .847-.579 1.023l-.34-.199-.303-1.175-.453-.086c-.452.352 0 1.063-.719 1.32l-.498-.239c.022-.5.185-.936-.113-1.31l-1.182-.09c-.041.216-.09.45-.122.644a4.4 4.4 0 0 1-.059.585c-.095.333-.253.396-.683.311-.159-.509.154-1.126-.372-1.653l-.959-.221a2.52 2.52 0 0 0-.186 1.712.65.65 0 0 1-.326.815c-.393-.023-.488-.248-.479-.59v-1.919l-.788.28h-.869c.05.324.077.585.136.846.059.262.14.509.222.802l-.621.32a5.6 5.6 0 0 1-.52-2.648c.371-.334 6.061-11.764 6.735-16.321"/><path fill="#fff" d="M59.096 106.617h-9.804v2.036h9.804zM57.955 110.265h-9.614v2.035h9.614zM56.86 113.485h-9.614v2.035h9.614z"/><path fill="#828278" d="m36.595 107.689-7.817-.077a39 39 0 0 0-.226-6.656c-.398-2.914-2.2-7.287-2.331-7.931 0 0-1.58-2.905 4.191-3.801 3.273-.509 5.038 3.725 5.767 9.007.35 3.14.49 6.3.416 9.458"/><path d="M28.516 115.376a40.5 40.5 0 0 0-.159-8.435h8.759c-.204 5.634-2.191 11.295-4.979 16.15 1.358.058 3.757-.243 4.897.608l-.249.509c-1.358.333-.144 1.801-1.358 2.121-.357-.617.272-2.95-1.357-2.121.036.59.307 1.743-.222 2.252l-.498-.113c-.154-.793.244-1.581-.145-2.292a1.31 1.31 0 0 0-1.258.171l.145 2.062-.851.212v-1.846c-.476-.045-.648-.563-1.177-.451-.045.752.312 2.365-.905 1.959-.05-.644.344-1.351-.204-1.968h-.86c-.272.298-.086 1.847-.086 2.045l-.494.365-.452-.266c-.073-.788 1.272-9.282 1.453-10.962"/><path fill="#fff" d="M37.659 106.45h-9.732v2.036h9.732zM37.206 110.094h-8.831v2.035h8.831zM36.387 113.354h-8.098v1.955h8.098z"/><path fill="#3c3c32" d="M64.038 112.093s-1.697 4.346-1.81 5.152.253.874.683 0a7.6 7.6 0 0 1 1.462-1.779z"/><path fill="#828278" d="M70.013 94.273s1.408-13.718-3.096-13.718-3.621 39.266-3.191 39.253c.43-.014.783-3.094 1.304-3.031.52.063.208 3.603.724 3.693s.719-3.513 1.204-3.544c.484-.032.299 2.985.511 3.008.589.049 2.544-25.661 2.544-25.661"/><path d="M.167 68.738c1.766-11.993 10.289-26.405 23.822-24.941q1.132.126 2.264.347c-3.232-5.31-6.763-10.489-9.669-15.844-2.548-4.692-9.722-16.37-9.722-16.37L11.605.671l5.658 3.639s21.211 33.479 27.366 43.54c4.902 7.994 9.601 15.569 10.764 25.189.969 7.993-1.231 15.384-7.903 20.265-3.363 2.464-6.912 3.049-10.931 4.054-6.925 1.729-14.099 2.986-20.454 0C3.951 91.661 0 80.69.167 68.738"/><path d="m72.421 42.955 7.106 14.893-28.081 1.18-6.848-15.821z"/><path fill="#a0640a" d="M55.737 57.227c.453 4.251 4.01 6.755 8.437 6.449 3.006-.208 5.78-2.531 5.862-5.72.077-3.067-3.241-5.647-5.998-6.273-3.078-.694-7.78.274-8.301 5.544"/><path fill="#828278" d="m45.888 47.846 24.514-.014 4.54 10.444 5.129-.568-6.722-15.757-30.308-.906z"/><path fill="#3c3c32" d="M48.613 1.351c3.892 5.855 10.025 15.078 13.85 21.014.801 1.234 10.628 15.059 14.883 23.296 6.789 13.151 8.831 23.311 8.473 30.174-.104 1.964-1.254 10.611-4.784 14.641-5.405 6.17-13.964 7.868-13.964 7.868l-39.094.608s15.073-3.747 19.332-10.309a29.4 29.4 0 0 0 4.386-14.037c.249-9.07-4.499-17.866-8.813-25.517-4.526-8.057-27.981-44.676-30.991-47.814zm2.494 54.25 25.166.049s-3.304-7.908-4.332-9.493l-25.8.027z"/><path d="M11.022.117c.905.077 37.939.122 38.863.225.584.018 1.14.254 1.557.662l.212.55-.081.581a2.07 2.07 0 0 1-1.698.599c-.905-.117-35.812-.117-36.735-.077zM13.126 2.657 7.849 13.704s-1.308.383-1.847-.423a3.1 3.1 0 0 1-.503-1.684L11.022.117z"/><path fill="#3c3c32" d="M10.863 75.993a17.07 17.07 0 0 0 6.183 8.557c3.377 2.413 7.509 3.292 11.384 2.031a12.24 12.24 0 0 0 7.074-6.215 16.6 16.6 0 0 0 .761-12.687 16.88 16.88 0 0 0-7.161-9.214c-3.168-1.918-6.463-2.837-9.958-1.693-7.038 2.306-10.999 11.074-8.283 19.221"/><path fill="#828278" d="M15.263 74.516a11.15 11.15 0 0 0 4.042 5.598 8.3 8.3 0 0 0 7.436 1.324 8 8 0 0 0 4.622-4.054 10.83 10.83 0 0 0 .493-8.286 11.03 11.03 0 0 0-4.68-6.021c-2.078-1.252-4.223-1.856-6.513-1.108-4.576 1.495-7.152 7.223-5.4 12.547"/><path fill="#3c3c32" d="M22.509 112.377s1.136 4.504 1.159 5.341-.362.838-.683-.067a7.6 7.6 0 0 0-1.227-1.946z"/><path fill="#828278" d="M19.504 72.957s-.851-4.503 3.87-4.503 4.074 4.751 4.074 4.751c-.403 4.675-5.179 46.954-5.609 46.887s-.384-3.153-.905-3.153c-.52 0-.661 3.531-1.181 3.576-.521.045-.272-3.576-.752-3.666-.479-.09-.669 2.927-.905 2.918-.57-.058 1.408-46.81 1.408-46.81"/><path fill="#f01446" d="M17.535 112.048v-1.409c.837-.081 3.232-.104 4.074-.19.04.199-.104 1.392-.073 1.631-.117-.023-2.458-.023-4.001-.032"/><path d="M19.807 109.301c-.697 1.473-1.068 3.283.453 4.296a2.27 2.27 0 0 0 3.168-.504c1.154-1.567.905-3.229-.394-3.9a4.12 4.12 0 0 0-3.227.108"/><path fill="#3c3c32" d="M20.69 110.314c-.371.784-.571 1.752.249 2.293a1.2 1.2 0 0 0 1.697-.271c.616-.837.48-1.72-.208-2.08a2.2 2.2 0 0 0-1.738.058"/></svg>