<svg xmlns="http://www.w3.org/2000/svg" width="185.528" height="139.454" viewBox="-0.11 -0.432 185.528 139.454"><path fill="#008264" d="M125.25 92.5s-4.725 35.055-5.595 44.17c1.5.455 11.56.185 13.08.05 2.05-5.115 8.92-45.83 8.92-45.83zM76.55 92.5s-2.635 35.385-3.5 44.5c1.5.45 11.08-.15 12.6-.285 2.055-5.12 5.74-45.615 5.74-45.615z"/><path fill="#005a5a" d="M2.783 44.32c5.705-1.155 12.32-.92 15.82 4.46 3.43 5.265 3.215 13.325 2.93 19.325-.3 6.22-.91 12.325-1.71 18.5-.31 2.375-1.635 15.62 0 24.675 1.26 6.945 5.12 10.5 7.395 10.5 5.24 0 10.53-3.03 12.19-7.075s2-8.255 2.215-12.545c.2-4.13.5-8.22.665-12.345s1.475-18.785 2.035-22.89c.125 3.965 9.475 15.5 15.41 20.185-1.195 10.3-1.39 42.445-12.065 48.14-8.855 4.725-24.57 4.54-32.315-1.915-7.915-6.595-9.325-17.065-8.77-27.37a313 313 0 0 1 4.29-36.665c.8-4.63 1.815-11.385-.645-15.645-1.55-2.685-4-3.725-6.81-4.425-1.375-.34-2.785-.35-3-1.855C.178 46 1.498 44.58 2.783 44.32"/><path fill="#00a08c" d="M54.513 46.025c8.135-8.315 18.585-14.105 30.415-13.76 13.43.39 27.065 5.925 29.835 3.765 4.31-3.36 5.34-15.655 6.68-16.86l16.8 12.795c2.21 18.59 5.115 42.535 5.145 45.235.155 7.87-1.2 19.395-6.045 24.915s-10.235 5.72-13.195 6.73c-3.47 1.185-37.29 1.875-43.22 1.18-.14-.12-21.525 1.245-29.065-8.72S43.303 79.7 43.308 75.61c.015-10.92 3.425-21.61 11.205-29.585"/><path fill="#00a08c" d="M101.48 92.5s-2.635 35.385-3.5 44.5c1.5.45 11.08-.15 12.6-.285 2.05-5.115 5.735-45.61 5.735-45.61zM53.84 92.5s-2.635 35.385-3.5 44.5c1.5.45 11.08-.15 12.6-.285 2.055-5.115 5.735-45.61 5.735-45.61zM152.32 117.09c-.105.255-.615 2.645-.665 2.77 1.175 7.38 9.55 6.895 15.425 5.82 7.465-1.365 11.93-6.56 14.825-13.26z"/><path d="M153.051 116.185c.09.615-1.165 3.68 1.83 5.25a10.95 10.95 0 0 0 8.725.61c2.91-1.06 5.265-3.825 6.42-6.785z"/><path fill="#fff" d="M152.038 116.875s.5 2.08 1.025 2.695a2.16 2.16 0 0 0 2.865.32c1.29-.905 1.085-2.925 1.085-2.925z"/><path fill="#00a08c" d="M163.298 85.85a20.8 20.8 0 0 1-1.65 6.365c-1.255 2.835-3.665 6.085-6.395 7.67-2.54 1.5-5.73 1.28-7.6 3.865-3.335 4.62-1.095 12.5 4.175 14.575 2.36.93 5.365 1.135 7.865.945 1.72-.135 7.855-.65 13.385-3.155 3.88-1.755 5.61-1.805 8.865-3.695 3.29-7.805 3.38-17.785 2.5-26.57z"/><path fill="#00a08c" d="M142.57 75.58h-23.275c1.15-1.255 2-3.025 2.5-5.45 1.15-5.22.455-11.33-.03-16.62-.545-5.91-1.69-10.765-1.81-16.7s-.165-11.815 1.5-17.64c1.785-6.24 6.77-12.36 12.295-15.5 10.605-6.065 23.575-4.135 33 3.275 9.09 7.14 14.775 19.405 16.325 30.705a118 118 0 0 1 1.075 18.8c-.135 5.5.365 35.19.7 39.315l-21.225-1.875c.15-1.42-1.27-34.67-1.46-45.76-.095-5.455-.84-11.735-3.06-16.775-1.905-4.335-7.04-8.79-11.755-5.43-3.885 2.77-5.62 8.565-6.47 13-1.18 6.185-1.14 12.425-.455 18.67.47 3.85 1.25 10.455 2.145 17.985"/><path fill="#005a5a" d="M159.646 113.385c-.27-1.97 1.75-3.25 2.45-.54.735 2.87-2.18 2.515-2.45.54M148.639 111.705c-.265-1.97 1.755-3.255 2.45-.54.74 2.87-2.18 2.51-2.45.54"/><path d="m143.754 108.65-.78-.18a3.68 3.68 0 0 1 .175-3.545l.575.115c.895.75.92 2.755.03 3.61M177.86 108.47l-.785-.18a3.69 3.69 0 0 1 .175-3.545l.575.115c.89.75.915 2.755.035 3.61"/></svg>