<svg xmlns="http://www.w3.org/2000/svg" width="69" height="77.125" viewBox="-0.5 -0.5 69 77.125"><path fill="#0cc" d="M67.299 59.225c.85 3.81.01 6.71-1.05 8.65-2.71 5.17-7.69 8.25-13.39 8.25-1.09 0-2.23-.11-3.46-.35h-4.47c-1.17 0-3.37-.07-8.85-.68-3.25-.37-6-.55-8.16-.55h-5.44c-.14.01-.63.04-1.8.16-1.83.19-3.22.28-4.39.28-3.4 0-6.44-.7-9.03-2.07-.17-.09-.33-.19-.5-.28-1.74-1.05-5.79-4.18-5.79-10.76 0-3.55 1.32-6.83 3.71-9.24 1.16-1.18 2.5-2.14 3.97-2.87-3.31-3.62-4.31-8.75-2.52-13.6.7-1.85 1.73-3.47 3.05-4.84-6-2.02-8.89-7.09-9.08-11.99-.51-3.77.96-7.6 4.01-10.05 3.02-2.43 6.66-3.85 10.52-4.13.25-.01.51-.02.77-.02h3.07c6.61-.12 17.83-1.75 33.34-4.85 2-.45 4.07-.37 6.27.26 1.02.29 3.33.96 5.4 2.99.44.43.83.89 1.19 1.38 1.38 1.9 2.33 4.04 2.83 6.36.21 1.01.28 2.03.21 3.05-.12 1.89-.05 3.98.21 6.21a11 11 0 0 1-1.92 7.65c-2.39 3.38-6.04 5.52-10.24 6.04.01.18.02.37.02.55v.85c3.09.29 5.93 1.6 8.1 3.76 3.57 3.59 3.6 8.03 3.44 10.32.18 1.2.24 1.98.24 2.75 0 .93-.09 1.95-.29 3.33-.02.15-.04.27-.06.39v2.67z"/><path fill="#fff" d="M57.002 21.849q-1.056 1.496-3.254 1.496-1.145 0-2.023-.44-.089-2.374-.439-7.037-7.478 1.408-23.837 4.135-.792.089-1.32.439.44 8.094.44 15.833.891.177 5.618-.792 2.32-.35 7.136-1.671.087-1.407-.352-4.706-.44-3.298-.352-4.882-.001-1.67 2.287-1.671 2.638 0 2.814 2.199.35 3.343 1.056 10.027v13.634q.263.353.352.527-.264 1.056-1.495 1.804-1.233.748-2.463.747-1.584 0-2.111-1.407.175-.878.264-2.727v-8.092q-5.581.176-12.578 2.286 0 1.584-.088 8.093-.09 5.366 0 7.301-.001.441.704 1.583 1.846.089 5.717.353l8.972.879q5.364.618 8.973.44.087-1.144.439-3.606v-5.19q-.528-.879-.528-1.671 0-1.32 1.1-2.243t2.419-.924q1.056.001 1.672.616.35.353.176 2.287-.09.441.088 1.539.176 1.101.176 1.451 0 .529-.176 1.716-.177 1.188-.176 1.275v5.277q-.001.089.352.88.175.79 0 1.056-1.236 2.464-3.701 2.463-.617 0-1.499-.176t-1.058-.176h-5.376q-2.115 0-7.624-.616-5.509-.614-9.386-.615h-5.552q-.706 0-2.82.22-2.116.22-3.262.22-2.38 0-3.877-.792-.441-.263-.441-1.319 0-.968.523-1.495 1.133-1.142 3.138-1.319h2.702q.957.177 2.614-.176.524-.264.61-1.231.087-.614 0-1.848a55 55 0 0 1-.087-1.583q0-9.148-.087-10.468-1.556-.174-4.323-1.144-1.22-.967-.604-2.639.528-1.407 2.375-2.023a45 45 0 0 1 2.639-.791q.263-.968.088-2.375a36 36 0 0 1-.264-2.375q-.177-3.781-.616-11.611-.352 0-2.375.221-2.025.22-3.166.22-4.047 0-4.047-2.422 0-.344.088-.778-.087-.173-.176-.173a7.74 7.74 0 0 1 4.398-1.729h3.166q10.995-.175 35.624-5.102.264-.088.88.088.615.177.703.264.704.968.968 2.199-.265 3.87.262 8.267"/></svg>