<svg xmlns="http://www.w3.org/2000/svg" width="212.323" height="85.347" viewBox="0.06 0.168 212.323 85.347"><path fill="#e09d73" d="M106.406 85.015h13.052s-2.878-2.981-6.877-4.322c0 0-1.582 1.572-5.823 1.572 0 0-.352.858-.352 2.75"/><path fill="none" stroke="#362f52" stroke-width=".5" d="M106.406 85.015h13.052s-2.703-3.024-6.877-4.322c0 0-1.582 1.572-5.823 1.572 0 0-.352.858-.352 2.75Z"/><path fill="#a77e76" d="M126.595 71.244s-2.373-23.098-15.513-37.089c0 0 35.487-20.854 59.482-28.641 0 0 21.292-7.391 41.288 12.143 0 0-7.559-.22-15.425 0 0 0 9.405 9.371 8.35 22.217 0 0-6.755-6.062-14.854-11.967 0 0 4.482 11.88-3.999 21.823 0 0-2.417-1.936-4.966-3.74 0 0-2.681 4.575-8.35 8.051l-.835-3.651s-4.835 5.983-11.075 8.535l-1.01-2.244s-10.987 7.875-33.093 14.563"/><path fill="#784451" d="m126.626 71.244-.255-1.81c10.257-3.747 26.594-12.985 29.853-17.724 0 0 2.39 1.628 3.485 5.004 0 0-12.912 8.635-33.083 14.53M171.747 49.719s4.22-2.324 5.365-5.744c0 0 2.629.863 3.868 2.048.395.198-5.046 6.404-8.342 8.019-.22-.396-.891-4.323-.891-4.323M203.11 38.389c-.06-.078-1.335-12.466-7.104-20.914 0 0 9.872 9.058 8.802 22.399 0 0-1.435-1.149-1.698-1.485"/><path fill="#784451" d="M159.223 55.372c2.481-1.727 6.764-4.498 10.509-10.258 0 0 1.323 1.32 2.119 5.068.127.494-5.509 6.459-11.131 8.776-.108.045-1.497-3.586-1.497-3.586M199.556 8.749c-.072-.054 7.46 3.711 12.206 8.792.112.149-1.88.082-1.88.082s-2.257-2.837-10.326-8.874M183.149 47.567c5.986-8.281 4.222-20.622 2.618-22.244-.315-.318 3.45 1.655 4.178 2.617.909 1.202 3.273 14.958-3.921 21.708-.244.13-2.621-1.892-2.875-2.081"/><path fill="none" stroke="#362f52" stroke-width=".5" d="M126.626 71.244s-2.373-23.098-15.514-37.089c0 0 35.487-20.854 59.482-28.641 0 0 21.293-7.391 41.289 12.143 0 0-7.559-.22-15.425 0 0 0 9.404 9.371 8.349 22.217 0 0-6.755-6.062-14.854-11.967 0 0 4.483 11.88-3.999 21.823 0 0-2.417-1.936-4.966-3.74 0 0-2.681 4.575-8.35 8.051l-.835-3.651s-4.834 5.983-11.075 8.535l-1.01-2.244s-10.987 7.875-33.092 14.563Z"/><path fill="#362f52" d="m125.219 43.306 2.356-1.776c1.504-1.124 3.673-2.7 6.288-4.574 2.615-1.875 5.7-4.014 9.035-6.259a252 252 0 0 1 10.612-6.782c3.665-2.223 7.398-4.338 10.997-6.121 3.596-1.783 7.049-3.268 10.123-4.198 1.535-.466 2.97-.804 4.26-.988 1.289-.185 2.432-.216 3.364-.129.933.09 1.643.299 2.116.467.463.192.705.311.705.311s-.239-.123-.699-.326a8.8 8.8 0 0 0-2.116-.514c-.936-.107-2.086-.1-3.388.059-1.302.156-2.754.465-4.301.92-3.098.906-6.592 2.333-10.206 4.11-3.617 1.775-7.366 3.879-11.045 6.093a252 252 0 0 0-10.601 6.833 306 306 0 0 0-8.977 6.356c-2.598 1.901-4.719 3.544-6.204 4.693zM171.988 50.35s-.043-.262-.135-.645c-.087-.385-.233-.89-.402-1.387-.096-.244-.177-.492-.28-.716-.105-.222-.193-.432-.286-.605l-.328-.563.276.588c.077.178.145.395.229.622.081.228.14.481.213.728.122.502.22 1.008.272 1.391.057.382.075.636.075.636zM190.41 28.049l-.263-.199a25.724 25.724 0 0 0-2.949-1.878c-.43-.21-.842-.451-1.257-.621l-.593-.254c-.189-.077-.362-.165-.535-.213l-1.132-.37 1.11.423c.17.056.338.153.523.239l.577.28c.401.188.801.449 1.215.677a25 25 0 0 1 2.15 1.465c.569.425.92.737.92.737zM190.476 41.875c0-.001-.053-.378-.176-.931a21 21 0 0 0-.54-2.005c-.132-.353-.242-.714-.384-1.037l-.205-.467c-.069-.146-.118-.292-.191-.413l-.456-.821.403.845c.066.124.106.273.165.422l.174.474c.121.329.208.694.316 1.05.184.724.331 1.455.411 2.008.088.552.117.921.117.92zM187.986 47.237s-.037-.329-.13-.812a18 18 0 0 0-.416-1.75c-.105-.31-.192-.625-.305-.909l-.166-.41c-.055-.128-.095-.255-.155-.362l-.375-.721.322.743c.051.111.083.24.128.371l.135.416c.092.288.156.607.237.918.133.633.237 1.27.287 1.75.058.48.071.8.071.8zM191.279 34.227s-.12-.309-.332-.751a18 18 0 0 0-.845-1.589c-.181-.272-.344-.555-.526-.801l-.264-.354c-.086-.111-.157-.223-.241-.312l-.547-.603.501.638c.077.094.14.211.218.327l.235.367c.162.256.305.548.462.829.289.578.55 1.168.721 1.62.177.45.271.755.271.755zM181.147 45.891s-.236-.172-.604-.399c-.366-.232-.87-.513-1.385-.768-.265-.115-.52-.247-.773-.34l-.363-.135c-.117-.041-.222-.091-.328-.114l-.69-.188.671.242c.101.031.203.09.315.139l.347.163c.242.112.484.263.733.397a16 16 0 0 1 1.297.862c.343.251.555.434.555.434zM166.853 55.256s-.038-.324-.132-.799a18 18 0 0 0-.418-1.721c-.105-.305-.192-.615-.305-.895l-.165-.402c-.056-.126-.095-.25-.155-.355l-.373-.709.321.731c.051.108.081.235.127.364l.134.409c.092.284.156.597.237.903a18 18 0 0 1 .362 2.508zM151.41 61.534l-.017-.202a9 9 0 0 0-.066-.535c-.026-.22-.082-.473-.13-.746-.066-.267-.125-.556-.21-.838-.096-.279-.16-.566-.275-.818-.109-.253-.188-.497-.294-.69l-.342-.646.289.669c.09.198.149.448.237.705.092.255.134.545.205.824.063.283.097.571.142.837.024.269.061.52.069.735a9 9 0 0 1 .023.716zM156.012 59.072s-.038-.323-.132-.798a18 18 0 0 0-.418-1.721c-.105-.306-.192-.615-.305-.895l-.165-.402c-.055-.126-.095-.25-.155-.355l-.372-.709.32.731c.051.108.081.235.127.364l.134.409c.092.284.156.597.238.903a18 18 0 0 1 .361 2.508zM145.815 64.293s.006-.058.009-.177c.006-.118 0-.278-.008-.471-.001-.096-.018-.199-.028-.308-.014-.108-.018-.224-.045-.34-.047-.234-.081-.486-.16-.727a5 5 0 0 0-.235-.702c-.089-.219-.16-.426-.259-.587l-.296-.55.243.573c.082.167.135.38.202.601.075.22.123.462.165.705.055.24.066.487.09.715.015.114.008.225.012.33 0 .105.007.203 0 .294-.01.182-.018.333-.033.433-.01.099-.023.164-.023.164zM177.468 50.426s-.053-.21-.153-.516a13 13 0 0 0-.412-1.101c-.094-.193-.178-.388-.272-.565-.1-.173-.186-.338-.27-.473l-.304-.435.253.463c.069.142.136.314.215.494.073.183.135.384.205.582.252.804.376 1.626.376 1.627zM140.284 66.545s-.004-.209-.034-.517a11 11 0 0 0-.159-1.117c-.048-.2-.083-.402-.138-.586-.058-.184-.103-.356-.156-.499l-.193-.471.137.487c.037.147.061.323.097.508.034.185.046.387.071.587.07.805.006 1.599.006 1.599zM135.387 68.485s-.036-.612-.158-1.2a7 7 0 0 0-.221-.797l-.146-.344.091.359c.04.219.077.511.093.805a9 9 0 0 1-.028 1.169zM131.152 69.923l-.003-.228c-.005-.139-.01-.322-.036-.505a2.3 2.3 0 0 0-.088-.492l-.056-.217-.002.225a2.2 2.2 0 0 1-.038.482c-.021.174-.061.345-.09.472l-.052.214zM204.775 34.433s-.12-.309-.332-.752a18 18 0 0 0-.845-1.588c-.18-.273-.344-.556-.526-.802l-.264-.354c-.086-.11-.157-.223-.241-.312l-.546-.602.5.637c.078.094.14.211.218.327l.236.368c.161.255.304.547.462.828.289.578.55 1.168.72 1.62.178.45.271.755.271.755zM202.904 27.46s-.154-.217-.405-.523c-.122-.156-.274-.33-.434-.517-.161-.188-.346-.376-.523-.57-.189-.183-.375-.369-.557-.535-.19-.158-.363-.309-.516-.432l-.54-.369.503.414c.141.135.3.299.471.471.165.179.332.378.501.574.158.207.323.407.464.605s.275.381.38.543c.218.322.348.544.348.544zM159.951 56.731s-.125-.301-.347-.732a18 18 0 0 0-.874-1.54c-.186-.264-.354-.537-.541-.775l-.268-.341c-.089-.106-.161-.215-.247-.3l-.553-.578.508.615c.079.09.144.204.223.315l.242.355c.166.248.314.532.476.804.3.561.572 1.135.752 1.575.186.439.286.737.286.737z"/><path fill="#c7b4b0" d="M85.842 83.773s39.263 4.62 44.757-21.778c4.516-21.701-3.36-27.453-4.395-29.169-.882-1.463-31.862-2.596-31.862-2.596s-10.962 17.335-8.5 53.543"/><path fill="none" stroke="#362f52" stroke-width=".5" d="M85.842 83.773s39.263 4.62 44.757-21.778c4.516-21.701-3.36-27.453-4.395-29.169-.882-1.463-31.861-2.596-31.861-2.596S83.38 47.565 85.842 83.773Z"/><path fill="#362f52" d="M125.39 62.721s-.054.39-.212 1.058c-.087.332-.18.739-.33 1.193l-.233.723-.294.79c-.199.552-.472 1.128-.748 1.739-.315.594-.614 1.236-1.003 1.857-.19.312-.368.64-.575.954l-.651.939-.33.474-.368.451-.738.907c-.508.59-1.06 1.144-1.58 1.709l-1.676 1.513-1.673 1.289c-.53.414-1.088.724-1.574 1.054-.495.315-.935.629-1.364.842l-1.086.593-.945.525.977-.46 1.12-.538c.443-.19.901-.48 1.407-.784.499-.317 1.072-.612 1.62-1.011s1.131-.816 1.721-1.263l1.713-1.513c.533-.566 1.099-1.121 1.62-1.716l.74-.928.367-.461.33-.485.649-.958c.207-.321.384-.654.573-.973.392-.631.671-1.295.969-1.905.26-.627.516-1.216.699-1.78l.268-.807.197-.74c.126-.464.198-.878.268-1.215.12-.68.142-1.073.142-1.073"/><path fill="#a77e76" d="M85.825 71.531s2.373-23.098 15.513-37.089c0 0-35.487-20.854-59.482-28.641 0 0-21.292-7.391-41.288 12.143 0 0 7.559-.22 15.425 0 0 0-9.405 9.371-8.35 22.218 0 0 6.756-6.063 14.854-11.967 0 0-4.482 11.879 3.999 21.822 0 0 2.417-1.936 4.967-3.74 0 0 2.68 4.576 8.349 8.052l.835-3.652s4.835 5.983 11.075 8.535l1.011-2.244s10.986 7.875 33.092 14.563"/><path fill="#784451" d="m85.816 71.498.255-1.81c-10.256-3.746-26.594-12.985-29.852-17.724 0 0-2.391 1.628-3.486 5.004 0 0 12.912 8.635 33.083 14.53M40.695 49.974s-4.219-2.324-5.364-5.745c0 0-2.629.863-3.869 2.048-.395.198 5.046 6.404 8.342 8.019.221-.396.891-4.322.891-4.322M9.332 38.643c.06-.077 1.336-12.466 7.104-20.913 0 0-9.872 9.057-8.801 22.398 0 0 1.434-1.148 1.697-1.485"/><path fill="#784451" d="M53.219 55.626c-2.48-1.727-6.764-4.498-10.509-10.258 0 0-1.323 1.32-2.118 5.069-.128.493 5.508 6.458 11.13 8.775.108.045 1.497-3.586 1.497-3.586M12.886 9.003c.073-.054-7.459 3.711-12.206 8.792-.112.15 1.88.083 1.88.083s2.257-2.838 10.326-8.875M29.293 47.821c-5.985-8.281-4.222-20.622-2.618-22.244.315-.318-3.45 1.656-4.178 2.617-.909 1.202-3.273 14.958 3.922 21.708.243.13 2.621-1.891 2.874-2.081"/><path fill="none" stroke="#362f52" stroke-width=".5" d="M85.816 71.498S88.19 48.4 101.33 34.409c0 0-35.487-20.854-59.482-28.641 0 0-21.292-7.391-41.288 12.143 0 0 7.558-.22 15.425 0 0 0-9.405 9.371-8.35 22.218 0 0 6.755-6.063 14.854-11.967 0 0-4.482 11.879 3.999 21.822 0 0 2.417-1.936 4.966-3.74 0 0 2.681 4.576 8.35 8.052l.835-3.652s4.835 5.983 11.075 8.535l1.01-2.244s10.987 7.875 33.092 14.563Z"/><path fill="#362f52" d="m87.223 43.56-2.318-1.825c-1.485-1.149-3.607-2.792-6.204-4.693a306 306 0 0 0-8.978-6.356c-3.33-2.26-6.93-4.603-10.6-6.833-3.679-2.214-7.429-4.318-11.045-6.093-3.614-1.777-7.109-3.204-10.206-4.11-1.548-.455-3-.764-4.302-.92-1.302-.159-2.452-.166-3.388-.059a8.8 8.8 0 0 0-2.115.514c-.461.203-.699.326-.699.326s.241-.119.704-.311a8.8 8.8 0 0 1 2.116-.467c.933-.087 2.075-.056 3.364.13 1.29.183 2.726.521 4.26.987 3.074.93 6.527 2.415 10.124 4.198 3.599 1.783 7.332 3.898 10.996 6.121a251 251 0 0 1 10.612 6.782 375 375 0 0 1 9.035 6.259 416 416 0 0 1 6.288 4.574zM40.82 50.653s.018-.254.076-.636c.051-.383.15-.889.272-1.391.072-.247.131-.5.212-.728.085-.226.153-.444.23-.622l.275-.588-.328.564c-.092.172-.181.382-.287.605-.102.223-.183.472-.28.716a15 15 0 0 0-.4 1.386c-.093.383-.135.646-.135.646zM52.919 56.959s.077-.253.223-.627c.14-.376.357-.866.596-1.347.131-.233.248-.477.383-.688.138-.21.257-.415.376-.578l.414-.532-.46.497c-.133.153-.269.347-.427.548-.155.203-.294.436-.447.662-.283.465-.545.944-.721 1.314a9 9 0 0 0-.283.623zM22.266 28.59c0-.001.352-.312.92-.737a25 25 0 0 1 2.15-1.466c.414-.228.814-.488 1.216-.676l.576-.281c.185-.085.354-.182.523-.239l1.11-.423-1.131.37c-.173.048-.346.137-.536.214l-.593.254c-.414.17-.827.41-1.256.62a26 26 0 0 0-2.95 1.878l-.263.199zM22.333 42.174a20.305 20.305 0 0 1 .527-2.928c.109-.356.195-.721.316-1.05l.174-.474c.059-.149.099-.298.164-.421l.404-.846-.455.822c-.074.121-.123.266-.192.412l-.204.467c-.143.323-.252.684-.384 1.038a21 21 0 0 0-.54 2.004c-.124.553-.177.93-.177.931zM24.824 47.525s.012-.319.071-.8c.049-.48.153-1.117.286-1.749.081-.312.145-.63.237-.919l.135-.416c.046-.13.077-.26.128-.371l.322-.744-.375.722c-.059.108-.099.234-.155.363l-.166.409c-.113.284-.2.599-.305.909-.179.628-.33 1.266-.416 1.75-.093.483-.13.812-.13.812zM21.511 34.607s.093-.305.271-.755c.169-.452.431-1.042.72-1.62.158-.281.3-.573.462-.828l.236-.368c.078-.115.141-.233.217-.327l.5-.637-.545.603c-.085.088-.156.201-.242.311l-.264.354c-.181.246-.345.529-.526.802-.332.563-.64 1.141-.845 1.588-.212.443-.331.752-.331.752zM31.521 46.438c-.001 0 .211-.183.555-.434.338-.255.809-.57 1.296-.862.249-.134.491-.285.733-.397l.348-.163c.111-.048.213-.108.315-.139l.671-.242-.691.188c-.105.023-.211.074-.327.114l-.364.135c-.253.093-.508.226-.772.34-.516.255-1.02.536-1.385.768-.369.227-.604.399-.605.399zM45.957 55.545s.014-.314.073-.786c.05-.474.155-1.1.288-1.722.081-.307.146-.62.237-.904l.134-.408c.046-.129.077-.257.128-.365l.32-.731-.373.709c-.059.105-.099.229-.155.356l-.164.402c-.114.279-.201.589-.306.894-.18.617-.331 1.245-.417 1.721-.095.475-.133.799-.133.799zM61.401 61.799l.001-.198a10 10 0 0 1 .022-.518c.009-.215.045-.465.07-.735.045-.266.079-.554.141-.837.072-.279.113-.569.206-.824.087-.257.146-.507.236-.705l.289-.668-.341.645c-.107.193-.186.438-.295.69-.115.252-.179.54-.274.818-.086.282-.144.571-.211.839-.047.272-.104.525-.13.745-.032.219-.054.404-.066.535l-.016.202zM56.798 59.362s.013-.314.072-.786c.051-.474.155-1.1.289-1.723.081-.306.145-.619.237-.903l.134-.409c.046-.128.077-.256.128-.364l.319-.732-.373.709c-.059.106-.098.23-.154.357l-.165.402c-.113.279-.2.589-.305.893-.18.618-.331 1.246-.418 1.722-.094.475-.132.799-.132.799zM66.994 64.5s-.013-.064-.024-.164a5 5 0 0 1-.032-.433c-.008-.09 0-.189 0-.294.003-.105-.003-.216.012-.33.024-.228.034-.475.09-.715.041-.242.09-.485.164-.704.068-.222.12-.434.202-.602l.244-.574-.296.551c-.099.161-.171.369-.261.587a5 5 0 0 0-.233.702c-.079.242-.115.492-.161.727-.027.116-.03.232-.045.34-.009.11-.026.213-.028.309-.007.192-.014.352-.007.47.002.119.009.177.009.177zM35.336 50.756c0-.001.124-.823.377-1.627.07-.197.131-.399.205-.582.078-.179.146-.352.214-.494l.253-.463-.303.435c-.085.135-.171.3-.271.474-.094.176-.178.372-.271.565-.166.393-.318.794-.413 1.101-.1.305-.153.515-.153.515zM72.527 66.79s-.064-.794.007-1.599c.024-.199.036-.402.07-.587.036-.185.06-.361.097-.508l.137-.487-.192.471c-.054.143-.099.316-.156.5-.056.183-.091.385-.139.585a11 11 0 0 0-.192 1.635zM77.424 68.732s-.056-.579-.028-1.17a7 7 0 0 1 .094-.804l.091-.36-.146.344a7 7 0 0 0-.221.797c-.123.588-.159 1.2-.159 1.2zM81.656 70.128l-.054-.214c-.027-.127-.068-.298-.089-.472a2.3 2.3 0 0 1-.038-.482l-.002-.225-.055.217a2.2 2.2 0 0 0-.089.493c-.026.182-.031.365-.036.504l-.003.228zM8.014 34.813s.094-.306.271-.756c.17-.452.432-1.042.721-1.62.158-.281.3-.573.462-.828l.236-.368c.078-.115.14-.232.217-.326l.5-.638-.546.603c-.084.089-.155.201-.241.311l-.264.354c-.181.246-.346.529-.526.802-.332.563-.64 1.141-.845 1.588-.212.443-.332.752-.332.752zM9.846 27.919s.13-.222.348-.543c.105-.163.239-.346.381-.544.14-.198.305-.398.463-.605.169-.195.336-.395.501-.574.172-.172.33-.336.471-.471l.504-.414-.541.369c-.153.123-.326.274-.516.432-.182.166-.368.352-.557.535-.177.194-.362.382-.523.57-.16.187-.312.361-.434.517-.25.306-.404.523-.404.523z"/><path fill="#e09d73" d="M101.146 85.015h13.053s-2.571-2.618-5.625-3.806c0 0-2.835 1.056-7.076 1.056 0 0-.352.858-.352 2.75"/><path fill="none" stroke="#362f52" stroke-width=".5" d="M101.146 85.015h13.053s-2.571-2.618-5.625-3.806c0 0-2.835 1.056-7.076 1.056 0 0-.352.858-.352 2.75Z"/><path fill="#a77e76" d="M125.62 9.28s-4.987-2.078-11.429-2.345c-7.136-.296-17.017 3.13-18.292 5.141-1.275 2.01-2.625 5.17-2.625 9.207 0 4.036 1.027 6.15 1.027 7.682 0 1.531-2.057.25 2.528 3.907 3.106 2.477 13.486 6.633 23.99 5.643 6.099-.575 6.797-1.92 7.647-2.667l-1.417-1.971c.88-1.025 5.391-6.446 5.391-12.795 0-6.347-2.722-10.087-6.82-11.802"/><path fill="none" stroke="#362f52" stroke-width=".5" d="M127.148 33.722c1.627-1.529 5.461-7.524 5.296-11.791-.176-4.535-1.151-8.776-4.19-11.098-3.039-2.321-8.444-3.905-14.773-3.905-9.242 0-15.715 3.036-17.57 5.148s-2.646 6.29-2.646 10.338 1.89 5.984.659 7.348 11.083 9.78 26.409 8.755c6.651-.445 8.133-2.669 8.133-2.669-.435-.647-1.318-2.126-1.318-2.126Z"/><path fill="#4b3a42" d="M96.342 1.175s6.152 10.543 16.628 10.691z"/><path fill="none" stroke="#362f52" stroke-width=".526" d="M116.215 13.81c.136.025-20.304-13.067-20.304-13.067s5.757 10.427 20.304 13.067Z"/><path fill="#4b3a42" d="M124.194 11.791 133.237 1.1s-3.346 10.543-9.043 10.691"/><path fill="none" stroke="#362f52" stroke-width=".526" d="M122.429 13.735c-.074.025 11.042-13.067 11.042-13.067s-3.131 10.427-11.042 13.067"/><path fill="#c4afad" d="M120.645 21.052c0-5.643 2.641-10.218 5.9-10.218 3.258 0 5.899 4.575 5.899 10.218s-2.641 10.218-5.899 10.218-5.9-4.576-5.9-10.218"/><path fill="#fccf87" d="M123.985 21.283c0-2.394 1.121-4.334 2.502-4.334 1.382 0 2.503 1.94 2.503 4.334s-1.121 4.333-2.503 4.333c-1.381 0-2.502-1.94-2.502-4.333"/><path fill="#362f52" d="M128.03 21.393c0-1.507-.705-2.728-1.574-2.728s-1.575 1.221-1.575 2.728c0 1.506.705 2.727 1.575 2.727.869 0 1.574-1.221 1.574-2.727"/><path fill="none" stroke="#605579" stroke-width=".5" d="M123.985 21.195c0-2.393 1.121-4.334 2.502-4.334 1.382 0 2.503 1.941 2.503 4.334s-1.121 4.334-2.503 4.334c-1.381 0-2.502-1.941-2.502-4.334Z"/><path fill="none" stroke="#605579" stroke-width=".526" d="M120.61 21.083c0-5.649 2.644-10.229 5.905-10.229s5.906 4.58 5.906 10.229-2.644 10.229-5.906 10.229-5.905-4.58-5.905-10.229Z"/><path fill="#605579" d="M127.148 16.223s.077-.263.161-.661a19.366 19.366 0 0 0 .384-2.949c.021-.406.014-.68.014-.68s-.077.263-.162.661c-.083.398-.18.931-.249 1.467a20 20 0 0 0-.135 1.482c-.02.406-.013.68-.013.68M125.39 30.598s.072-.265.149-.666a20 20 0 0 0 .333-2.968c.013-.408.002-.682.002-.682s-.073.265-.15.666a19 19 0 0 0-.332 2.968c-.014.408-.002.682-.002.682M129.868 28.775s-.063-.231-.186-.562a14.5 14.5 0 0 0-1.109-2.334c-.179-.305-.319-.5-.319-.5s.063.232.186.564a14.4 14.4 0 0 0 1.109 2.333c.18.305.319.499.319.499M131.288 25.819s-.117-.149-.312-.349a9.086 9.086 0 0 0-1.581-1.284c-.235-.15-.405-.233-.405-.233s.116.149.312.349a9 9 0 0 0 1.58 1.283c.236.15.406.234.406.234M132.027 22.38s-.15-.07-.381-.143a6.8 6.8 0 0 0-1.736-.309c-.243-.011-.408.003-.408.003s.15.07.382.144a6.893 6.893 0 0 0 1.736.308c.242.01.407-.003.407-.003M131.846 18.281s-.171.038-.414.124-.56.213-.864.366a8 8 0 0 0-.813.47c-.214.142-.348.257-.348.257s.172-.039.414-.124a7.6 7.6 0 0 0 1.677-.837c.215-.142.348-.256.348-.256M130.358 14.347s-.144.184-.333.473a14 14 0 0 0-1.177 2.233c-.132.319-.201.542-.201.542s.144-.183.333-.472a14.07 14.07 0 0 0 1.176-2.234c.132-.319.202-.542.202-.542M124.907 12.255s.008.269.049.668a19 19 0 0 0 .536 2.876c.105.387.195.641.195.641s-.007-.27-.049-.668a18.5 18.5 0 0 0-.536-2.877 10 10 0 0 0-.195-.64M122.639 14.636s.093.193.255.462a11.667 11.667 0 0 0 1.387 1.836c.215.231.375.373.375.373s-.092-.193-.256-.462a11.472 11.472 0 0 0-1.387-1.836c-.214-.231-.374-.373-.374-.373M121.447 18.132s.126.129.333.298c.206.169.49.382.788.571.297.191.61.356.85.472s.412.174.412.174-.126-.131-.333-.299a8 8 0 0 0-1.638-1.042c-.241-.116-.412-.174-.412-.174M121.254 22.27s.159.042.396.075a6.8 6.8 0 0 0 1.745.004c.238-.032.397-.074.397-.074s-.158-.042-.396-.075a6.6 6.6 0 0 0-1.746-.004c-.237.031-.396.074-.396.074M121.896 26.28s.168-.095.401-.26a9.6 9.6 0 0 0 1.552-1.384c.19-.214.303-.37.303-.37s-.169.094-.402.259a9.4 9.4 0 0 0-1.552 1.385c-.19.212-.302.37-.302.37M127.615 30.614s.019-.275.015-.686a19.4 19.4 0 0 0-.259-2.989c-.067-.405-.133-.673-.133-.673s-.018.275-.014.685.023.957.072 1.5c.045.544.121 1.085.187 1.49.067.404.132.673.132.673M123.354 29.073s.128-.211.293-.539a15.578 15.578 0 0 0 .987-2.492c.105-.352.156-.594.156-.594s-.129.21-.293.539c-.165.328-.37.771-.548 1.225-.181.453-.334.916-.44 1.267a8 8 0 0 0-.155.594"/><path fill="#e89b60" d="M119.975 23.316s3.23 3.15 4.136 5.6c.148.109-7.558 0-7.558 0l1.477-4.796s.23 1.841 1.945-.804"/><path fill="none" stroke="#615d7a" stroke-width=".5" d="M119.975 23.316s3.23 3.15 4.136 5.6c.148.109-7.558 0-7.558 0l1.477-4.796s.23 1.841 1.945-.804Z"/><path fill="#615d7a" d="M119.682 26.503s.874-.38.824-1.665c0 0-.894.42-.824 1.665"/><path fill="#c4afad" d="M99.045 21.194c0-5.643 4.569-10.218 10.206-10.218s10.207 4.575 10.207 10.218-4.57 10.218-10.207 10.218-10.206-4.576-10.206-10.218"/><path fill="#fccf87" d="M104.824 21.424a4.33 4.33 0 0 1 4.328-4.333 4.33 4.33 0 0 1 4.329 4.333 4.33 4.33 0 0 1-4.329 4.334 4.33 4.33 0 0 1-4.328-4.334"/><path fill="#362f52" d="M112.735 21.534a2.726 2.726 0 1 0-5.45 0 2.726 2.726 0 0 0 2.725 2.728 2.726 2.726 0 0 0 2.725-2.728"/><path fill="none" stroke="#605579" stroke-width=".5" d="M104.824 21.336a4.33 4.33 0 0 1 4.328-4.333 4.33 4.33 0 0 1 4.329 4.333 4.33 4.33 0 0 1-4.329 4.334 4.33 4.33 0 0 1-4.328-4.334Z"/><path fill="none" stroke="#605579" stroke-width=".526" d="M98.984 21.225c0-5.65 4.574-10.23 10.217-10.23s10.218 4.58 10.218 10.23c0 5.649-4.574 10.229-10.218 10.229-5.643 0-10.217-4.58-10.217-10.229Z"/><path fill="#605579" d="M110.295 16.365s.101-.258.223-.654a20 20 0 0 0 .665-2.949 10 10 0 0 0 .079-.686s-.102.258-.224.653a20 20 0 0 0-.664 2.949c-.059.41-.079.687-.079.687M107.254 30.74s.094-.261.204-.66a20.19 20.19 0 0 0 .575-2.968c.047-.41.058-.689.058-.689s-.094.262-.204.66a20 20 0 0 0-.575 2.969c-.047.41-.058.688-.058.688M115.001 28.916s-.142-.238-.379-.577a20 20 0 0 0-1.919-2.334 9 9 0 0 0-.494-.483s.142.239.379.577a19.5 19.5 0 0 0 1.92 2.334c.286.298.493.483.493.483M117.459 25.961s-.231-.155-.59-.359a19.664 19.664 0 0 0-2.735-1.283c-.386-.146-.653-.224-.653-.224s.231.155.591.359a19.5 19.5 0 0 0 2.734 1.282c.386.147.653.225.653.225M118.738 22.521s-.269-.07-.675-.143a19.647 19.647 0 0 0-3.005-.308c-.412-.011-.69.003-.69.003s.269.071.675.144a20 20 0 0 0 3.004.308c.413.01.691-.004.691-.004M118.424 18.422s-.275.036-.68.12a20 20 0 0 0-2.901.836c-.388.145-.64.261-.64.261s.276-.035.68-.119a19.6 19.6 0 0 0 2.902-.836c.386-.145.639-.262.639-.262M115.848 14.489s-.216.175-.516.457a20 20 0 0 0-2.036 2.234c-.254.326-.407.557-.407.557s.216-.174.517-.457a20.116 20.116 0 0 0 2.035-2.234c.253-.326.407-.557.407-.557M106.419 12.397s.044.275.14.677a19.45 19.45 0 0 0 .928 2.876c.156.382.281.631.281.631s-.044-.275-.14-.677a20 20 0 0 0-.409-1.456 21 21 0 0 0-.519-1.42c-.157-.382-.281-.631-.281-.631M102.494 14.778s.192.2.5.476a20 20 0 0 0 2.399 1.836c.346.225.59.358.59.358s-.192-.2-.5-.476a19.5 19.5 0 0 0-2.399-1.836c-.347-.225-.59-.358-.59-.358M100.432 18.273s.243.134.619.306a20 20 0 0 0 2.834 1.043c.398.112.67.167.67.167s-.243-.135-.618-.307a19.55 19.55 0 0 0-2.835-1.041c-.397-.113-.67-.168-.67-.168M100.098 22.411s.274.043.686.075a20 20 0 0 0 3.019.004c.412-.031.686-.073.686-.073s-.274-.043-.686-.075a20 20 0 0 0-3.019-.004c-.412.032-.686.073-.686.073M101.208 26.421s.263-.088.644-.249c.38-.16.881-.387 1.368-.641.489-.25.965-.527 1.316-.744s.576-.38.576-.38-.264.089-.644.249c-.38.161-.881.388-1.369.641-.488.251-.963.527-1.315.744s-.576.38-.576.38M111.104 30.756s.001-.278-.029-.691-.084-.96-.166-1.503a19 19 0 0 0-.282-1.486 10 10 0 0 0-.175-.668s-.001.278.028.69a20 20 0 0 0 .449 2.989c.093.403.175.669.175.669M103.731 29.215s.19-.203.449-.524c.259-.323.592-.761.902-1.214s.599-.921.806-1.279c.206-.358.327-.609.327-.609s-.19.203-.45.525a21 21 0 0 0-.901 1.213c-.311.453-.598.922-.806 1.28-.206.357-.327.608-.327.608"/><path fill="#fff" d="M111.89 20.668a.556.556 0 1 0-1.112 0 .556.556 0 0 0 1.112 0M127.703 20.635c-.036-.304-.189-.537-.341-.518-.153.017-.248.279-.211.584.036.305.189.538.342.52.152-.019.246-.281.21-.586"/></svg>