<svg xmlns="http://www.w3.org/2000/svg" xml:space="preserve" width="76.956" height="268.672" viewBox="9.878 7.1 76.956 268.672"><title>elf-d</title><g fill-rule="nonzero"><path fill="#bd8962" d="M78.9 150.9s3 1.1 4.9 5.6c1.3 3.1 3.2 5.1 2.3 5.6-1.6 1-3.4-3.9-3.4-3.9s.6 4.6.7 6.1c.1 1.4-.1 4.4-.7 4.7-1 .6-1-1.2-1.2-4.4 0 0-.1 2.6-.6 4-.5 1.2-1.5 1.7-1.8.1 0 0-.7 2.4-2-.3 0 0-1.7 1.4-1.5-5.1 0-2.6-5.1-13 3.3-12.4"/><path fill="#824d39" d="M77 168.6s0-.5.1-1.2c0-.7 0-1.6.1-2.6 0-.9 0-1.9.1-2.6 0-.7.1-1.2.1-1.2s.1.5.3 1.2c.1.7.2 1.7.2 2.6 0 1-.1 1.9-.3 2.6zM79.1 169.3s0-.5.1-1.3c0-.8.1-1.8.1-2.8v-4.1s.2.5.4 1.2c.2.8.3 1.8.3 2.8s-.2 2.1-.4 2.8c-.3.9-.5 1.4-.5 1.4M81.4 166.7s-.1-.4-.1-1-.1-1.4-.1-2.1v-3.1s.2.4.3.9c.1.6.2 1.4.2 2.1 0 .8-.1 1.6-.2 2.1 0 .8-.1 1.1-.1 1.1M79.9 151.5h.3c.2 0 .4.1.7.3.5.3 1.1 1 1.6 1.7s.8 1.4 1 2 .3 1 .3 1-.3-.3-.6-.8c-.4-.5-.8-1.2-1.2-1.8-.4-.7-.9-1.3-1.3-1.7l-.5-.5c-.2-.2-.3-.2-.3-.2M82.7 158.2s-.3.1-.9.1c-.5 0-1.2-.2-1.8-.6-.3-.2-.6-.5-.8-.7-.2-.3-.4-.5-.5-.8-.1-.2-.2-.5-.2-.6s-.1-.2-.1-.2l.2.2c.1.1.2.3.4.4l.6.6c.2.2.5.4.7.6.5.4 1.1.6 1.5.8.5.1.9.2.9.2"/><path fill="#d9c2b1" d="M66.6 120.2c-1.3 5.8 2.8 13.9 3.8 19.2 1.1 5.3 2.4 14.8 2.4 14.8s7.6 2.4 9.8-2.5c0 0-3-19.8-3.4-24.4s-1.5-7.3-3.9-9.4-7.1-4.4-8.7 2.3"/><path fill="#d9c2b1" d="M73.9 77c-4.2-7.1-10.7-8.8-12.6-2.3-1.6 5.7-.4 26.4 3.4 41 .2.8.4 2.1.6 2.9.7 2.3-.5 2.6.2 4.1.9 2.1 2.2 2.9 6.5 2.4 1.3-.1 5.5-1.6 6.3-3.9.6-1.7-.5-1.4-.2-3.9.1-1.1 1-1.9.7-3.3-3.1-13.3-1.8-32-4.9-37"/><path fill="#a68f81" d="M75.9 83.7s.2 2.1.5 5.4c.2 3.2.6 7.5.9 11.8.1 1.1.2 2.1.3 3.2s.3 2.1.4 3.1c.4 2 .7 3.8 1 5.4.1.4.1.8.2 1.2s0 .8-.1 1.1c-.2.7-.4 1.2-.5 1.6-.3.9-.4 1.4-.4 1.4s0-.5.1-1.5c.1-.5.2-1 .3-1.7.1-.6-.1-1.3-.2-2.1-.3-1.6-.7-3.4-1.1-5.4-.2-1-.4-2-.5-3.1s-.2-2.1-.2-3.2c-.1-2.2-.3-4.3-.4-6.3s-.2-3.9-.2-5.5c-.1-3.2-.1-5.4-.1-5.4M76.7 118.6s-.3.4-.8.8c-.5.5-1.2 1-2 1.5s-1.6.8-2.2 1c-.7.2-1.1.2-1.1.2s.1-.1.3-.1c.2-.1.4-.2.7-.4.6-.3 1.3-.8 2-1.2s1.5-.9 2.1-1.2c.6-.4 1-.6 1-.6M72.9 119.4s-.3.3-.9.6-1.4.6-2.3.6H69c-.2 0-.4-.1-.6-.1-.4-.1-.8-.3-1-.5-.5-.5-.6-.9-.6-.9l.2.2c.1.1.4.3.6.4.1.1.3.1.4.2.2 0 .3.1.5.1.4 0 .7.1 1.1 0 .8 0 1.6-.2 2.2-.3.7-.3 1.1-.3 1.1-.3"/><path fill="#17110b" d="m81.4 266.6-.2 1.6s-8.8 1.8-13.6.5-10.9-3.6-12.1-3.6v1.3s-4 0-6.2-1.6l-.2-5.1c.1 0 27.8-2.4 32.3 6.9"/><path fill="#3d241b" d="M63.1 234.6s-4.6 4.7-13.8-.2c0 0 .3 17.6.3 20.8s-2.8 7.4 4 8.3 10 3.8 17 4.2 10.7-1.1 10.7-1.1.3-3.8-2.6-5.6-12-4.3-14.5-7.9-1.1-18.5-1.1-18.5"/><path fill="#241510" d="M81.4 266.6s0-.7-.2-1.8c-.1-.6-.3-1.2-.7-1.9s-1-1.4-1.8-1.7c-1.8-.7-4-1.4-6.3-2.4-1.1-.5-2.3-1-3.4-1.6s-2.3-1.3-3.3-2.2-1.9-2-2.3-3.3c-.3-1.3-.4-2.6-.5-3.8-.2-2.5-.1-4.8-.1-6.7.1-3.9.3-6.5.3-6.5s0 2.6.1 6.5c0 2 .1 4.2.3 6.7.1 1.2.2 2.5.5 3.7s1.2 2.2 2.1 3c2 1.6 4.3 2.8 6.5 3.8 1.1.5 2.2 1 3.3 1.4 1 .4 2 .8 2.9 1.2s1.6 1.2 1.9 2c.4.7.5 1.4.6 2s.1 1 .1 1.3zM62 235.3s-.1.1-.4.3q-.45.3-1.2.6c-.5.2-1.2.4-1.9.5s-1.5.1-2.3.1c-.4 0-.8-.1-1.1-.1-.4-.1-.7-.1-1.1-.2-.7-.2-1.3-.4-1.9-.6-.5-.2-.9-.5-1.2-.6-.3-.2-.5-.2-.5-.2s.2 0 .5.1.8.2 1.3.4c.3.1.6.1.9.2s.6.1 1 .2c.3.1.7.1 1.1.2s.7.1 1.1.1c.7.1 1.5 0 2.2 0 .7-.1 1.3-.2 1.9-.3.5-.1 1-.3 1.3-.4.1-.2.3-.3.3-.3M49.5 236.8s.1 1.9.3 4.6c0 1.4.1 3 .2 4.7 0 1.7.1 3.6.1 5.4v2.8c0 .9-.1 1.9-.3 2.7q-.3 1.35-.3 2.4c0 .8.1 1.5.4 2.1.1.3.4.5.6.7s.5.4.7.5c.5.3 1 .4 1.3.5.4.1.7.1.9.2.2 0 .3.1.3.1h-.3c-.2 0-.5 0-.9-.1s-.9-.2-1.4-.4c-.3-.1-.5-.3-.8-.5-.2-.2-.5-.5-.7-.8-.4-.6-.6-1.4-.6-2.2s.1-1.7.2-2.5c.2-.9.3-1.7.3-2.6v-17.6"/><path fill="#241510" d="M74.6 259.5s-.2.1-.5.4c-.3.2-.7.6-1.1.9s-.8.7-1.1.9l-.6.4s.1-.3.3-.6c.2-.4.6-.8 1-1.1s.9-.6 1.3-.7c.4-.3.7-.2.7-.2M69 256.9s-.2.2-.6.4c-.3.2-.8.5-1.2.8l-1.2.9c-.2.1-.3.2-.4.3s-.2.1-.2.1.1-.3.3-.7.6-.8 1.1-1.2c.5-.3 1-.6 1.4-.7.5.1.8.1.8.1M64.3 253.2s-.2.1-.6.2-.8.3-1.3.5c-.4.2-.9.3-1.2.5-.2.1-.3.1-.4.2-.1 0-.2.1-.2.1s.1-.2.4-.5.7-.6 1.2-.8 1-.3 1.4-.2c.5-.1.7 0 .7 0M63.1 246.9s-.2.2-.6.4-1 .4-1.6.4-1.2-.1-1.6-.3-.7-.3-.7-.3h2.2c.5 0 1.1-.1 1.5-.1.5 0 .8-.1.8-.1M63 239.6s-.2.2-.6.5q-.6.45-1.5.6c-.3 0-.6.1-.9 0-.3 0-.5-.1-.8-.2-.2-.1-.4-.2-.5-.2-.1-.1-.2-.1-.2-.1h.7c.4 0 .9 0 1.5-.1.5-.1 1.1-.2 1.5-.3.5-.1.8-.2.8-.2M55.5 263.5s-.1-.7-.3-1.7c-.1-.5-.3-1.1-.5-1.7-.1-.3-.2-.6-.4-.9-.1-.3-.3-.6-.5-.9s-.3-.6-.6-.8c-.2-.2-.4-.5-.6-.7l-.3-.3c-.1-.1-.2-.2-.4-.3-.2-.2-.5-.3-.7-.4l-.6-.3c-.2-.1-.4-.1-.5-.2-.3-.1-.4-.2-.4-.2s.2 0 .5.1c.2 0 .3 0 .6.1.2 0 .4.1.7.2s.5.2.8.4c.1.1.3.2.4.2.1.1.3.2.4.3.3.2.5.5.8.7.3.3.4.6.6.9.4.6.7 1.3.8 1.9.2.6.3 1.3.3 1.8 0 1.1-.1 1.8-.1 1.8"/><path fill="#396e4c" d="M69.2 202s1.5 3.6.8 10.2-.4 16-2.3 20.4-15.8 10.7-20 .9S45 203.7 50 202s17.3-6.7 19.2 0"/><path fill="#1f453b" d="M64.5 235.9s-.6.3-1.6.9c-.5.3-1.1.6-1.9.9-.7.3-1.6.6-2.6.9-.5.2-1 .2-1.5.3s-1.1.1-1.7.1c-1.2 0-2.4-.2-3.6-.7-.3-.1-.6-.3-.8-.5l-.4-.3-.4-.3-.7-.7-.6-.8c-.4-.5-.7-1.1-1-1.7s-.5-1.2-.8-1.8c-.4-1.2-.8-2.6-1.1-3.8-.3-1.3-.5-2.6-.6-3.8s-.2-2.4-.2-3.6c0-1.1 0-2.2.1-3.2.1-2 .3-3.6.5-4.8.2-1.1.3-1.8.3-1.8s-.4 2.6-.5 6.6c0 2 0 4.3.3 6.7s.8 5 1.7 7.5c.3.6.4 1.3.7 1.8.3.6.5 1.2 1 1.6l.6.8.7.6.3.3.4.2c.3.2.5.3.8.5 1.1.5 2.2.7 3.4.7.6 0 1.1 0 1.6-.1s1-.1 1.5-.3c1-.2 1.8-.5 2.6-.8s1.4-.6 1.9-.8c1-.3 1.6-.6 1.6-.6"/><path fill="#396e4c" d="M71 180.6c1.1-18.3 3.9-48.7-7.7-53.3s-20.1 9-19.4 27.4c.4 9.5 3.2 31.9 2.1 35.4s-2.8 6.3-1.1 8.1c1.8 1.8-1.6 3.8-.1 5.6 1.6 1.8 5.7 5.6 14.4 4.9 4.7-.4 11-4.3 12.4-7.2 1.1-2.4-2.5-2.2.4-8.2 1.3-2.5-1.4-6.2-1-12.7"/><path fill="#1f453b" d="M44.9 203.8s.5.3 1.4.8c.8.4 1.9 1 3.1 1.5.6.2 1.2.5 1.7.7.6.2 1.1.4 1.5.5.4.2.8.3 1.1.4s.4.1.4.1h-.4c-.3 0-.7 0-1.1-.1-.5-.1-1-.2-1.6-.3l-1.8-.6c-.6-.3-1.2-.5-1.7-.8s-1-.6-1.4-.9c-.8-.8-1.2-1.3-1.2-1.3M46.3 199.4l.6.6c.2.2.4.4.7.6s.6.4 1 .6.8.4 1.3.6l1.5.6c.5.2 1.1.3 1.6.5.6.2 1.1.3 1.7.4s1.2.2 1.7.4c.6.1 1.1.2 1.7.3 1.1.2 2.1.3 3 .4s1.6.2 2.1.2c.5.1.8.1.8.1h-3c-.9-.1-2-.1-3.1-.2-.6-.1-1.1-.1-1.7-.2l-1.8-.3c-.6-.2-1.2-.3-1.7-.5-.6-.2-1.1-.3-1.6-.6-.5-.2-1-.4-1.5-.7-.5-.2-.9-.5-1.3-.7-.4-.3-.7-.5-1-.8-.3-.2-.5-.5-.7-.7-.2-.3-.3-.6-.3-.6M44.6 148.7s-.3 2.7-.3 6.7c0 2 .1 4.4.3 6.9.3 2.5.6 5.2.9 7.9s.5 5.4.8 7.9c.2 2.5.3 4.9.3 6.9s-.2 3.7-.4 4.9c-.1.6-.3 1-.4 1.3s-.2.4-.2.4.3-.6.4-1.8c.2-1.2.2-2.8.2-4.9-.1-2-.3-4.4-.5-6.9s-.5-5.2-.8-7.9-.6-5.4-.8-7.9-.2-4.9-.1-6.9.3-3.7.4-4.9c.1-1 .2-1.7.2-1.7M67.8 198.7s.1-.2.3-.5.4-.7.8-1.2.9-1.1 1.5-1.7 1.3-1.4 1.7-2.3c.3-1 .1-2.2-.2-3.4s-.7-2.5-.9-3.8c-.2-1.4-.4-2.8-.3-4.2s.2-2.9.2-4.3c.3-5.8.6-11.6.8-16 .1-2.2.2-4 .3-5.3s.1-2 .1-2 .1 2.9 0 7.3c-.1 2.2-.1 4.7-.2 7.5-.1 2.7-.2 5.6-.4 8.5-.1 1.4-.2 2.9-.3 4.3s.1 2.8.3 4.1.5 2.6.8 3.8c.2 1.2.5 2.5.1 3.6s-1.2 1.8-1.8 2.4-1.2 1.1-1.6 1.6q-.6.75-.9 1.2c-.2.3-.3.4-.3.4"/><path fill="#396e4c" d="M24.7 122.9S9.3 140 16 153.8s54 7.5 54-7.7-6.4-26.1-15.1-27.6c-8.6-1.5-26.3 0-30.2 4.4"/><path fill="#1f453b" d="M23.8 123.9s-.2.2-.4.6c-.3.4-.7.9-1.1 1.6-.5.7-.9 1.5-1.5 2.3-.5.9-1.1 1.8-1.6 2.8-.5.9-1 1.9-1.4 2.8s-.9 1.8-1.2 2.5-.6 1.4-.8 1.8-.3.7-.3.7.1-.3.2-.7c.1-.5.3-1.1.6-1.9s.6-1.7 1-2.6.9-1.9 1.4-2.9 1.1-1.9 1.6-2.7c.5-.9 1.1-1.6 1.6-2.3 1.1-1.2 1.9-2 1.9-2M52.7 159.2s-1 .5-2.7 1c-.8.2-1.8.5-2.8.8l-3.3.6c-1.1.1-2.3.2-3.4.1-.5 0-1.1-.1-1.6-.1-.5-.1-1-.2-1.4-.2-.4-.1-.8-.2-1.1-.3s-.6-.2-.8-.3c-.5-.2-.7-.3-.7-.3s.3.1.8.2c.2.1.5.2.9.2.3.1.7.1 1.1.2.4 0 .9.1 1.4.1h1.5c1.1 0 2.2-.1 3.3-.2s2.2-.3 3.3-.5c1-.2 2-.4 2.9-.6.8-.2 1.5-.3 2-.5.3-.2.6-.2.6-.2"/><path fill="#3d241b" d="M63.6 118.6s.8 2.7.2 5.1c0 0-7.9 3.6-18.2 4.3-7.3.5-16.2-.1-21.3-4.3 0 0-.8-3.8.8-4.4 1.5-.6 20.4-5.3 38.5-.7"/><path fill="#c29356" d="m43.6 123.8.1 4.3c2.8.9 7.9-.6 7.9-.6l-.1-4c-2.6.5-7.9.3-7.9.3m1.6 1.2c2.2.3 5.2-.1 5.2-.1l.1 1.9c-1.8.4-5.3.3-5.3.3z"/><path fill="#241510" d="M30 126.5s-.4-.2-.9-.6c-.3-.2-.5-.4-.8-.7-.1-.2-.3-.3-.4-.5s-.3-.4-.2-.8c.1-.2.3-.4.4-.4l.3-.1c.2-.1.4-.2.6-.2.4-.1.7-.2 1.1-.3.6-.1 1.1-.2 1.1-.2s-.4.2-.9.5c-.3.1-.6.3-1 .5-.2.1-.4.2-.5.3l-.3.1c-.1.1-.1 0-.1 0s0 .2.1.3c.1.2.2.3.3.5.2.3.4.6.6.8.4.4.6.8.6.8"/><path fill="#bd8962" d="M30.7 68.9c3.4-1.2 9.6-3.4 10.9-4.8 1.9-1.9 2.5-3.5 2-8.7-.4-4.2 12.2-2.4 12.6 2.1.2 2.4.4 8 1.7 8.7 1.4.7 10.3 5.7 10.3 5.7s-4.1 13.2-19.1 10.7c-6.8-1.1-11.7-3.5-14.9-6.6-3.3-3-3.5-7.1-3.5-7.1"/><path fill="#d9c2b1" d="M56.1 75.2s-5.8 1.7-12.4-.9l6.3 22z"/><path fill="#82654f" d="M57.2 64.5s1.4 4.7-3.2 5l-3.9 15-2.6-15.3s-5.5-1.3-5.3-6.1c0 0-6.5 2.2-17 4.2 0 0 4.3 1.3 3.5 18.4-.4 8.7-2.7 15.6-8.1 12.4 0 0 .2 14.6 4.1 20.6s35.7 8.2 39.2.6 2.3-12.8 2.8-20.4 3.5-22.2 2.5-27.5c.2 0-10.2-4.9-12-6.9"/><path fill="#d9c2b1" d="M27.4 99.1c6.2-3.5 3.8-29-.7-31.1-4.5-2.2-8.4 6-8.1 11.4.2 5.4-1.6 25.5 8.8 19.7"/><path fill="#5e3829" d="M47.5 69.3s.5 1.8 1.1 4.5c.3 1.4.6 3 .8 4.7.3 1.7.5 3.6.7 5.4.2 1.9.3 3.7.4 5.5.1 1.7.1 3.4.1 4.8s-.1 2.6-.1 3.4-.1 1.3-.1 1.3-.1-1.9-.2-4.6c0-1.4-.2-3-.3-4.8-.1-1.7-.3-3.6-.5-5.4s-.4-3.7-.6-5.4-.4-3.3-.6-4.7c-.3-2.9-.7-4.7-.7-4.7"/><circle cx="36.685" cy="19.153" r="1" fill="#5e3829" transform="rotate(-87.617 73.31 36.27)"/><circle cx="35.876" cy="25.097" r="1" fill="#5e3829" transform="rotate(-87.617 72.501 42.214)"/><circle cx="29.952" cy="34.306" r="1" fill="#5e3829" transform="rotate(-87.617 66.577 51.424)"/><circle cx="30.427" cy="39.894" r="1" fill="#5e3829" transform="rotate(-87.617 67.053 57.012)"/><circle cx="34.676" cy="30.782" r="1" fill="#5e3829" transform="rotate(-87.617 71.302 47.9)"/><path fill="#5e3829" d="M64 119.3s.3-.6.6-1.7c.2-.6.4-1.2.5-2 .2-.8.3-1.7.5-2.7.3-2 .5-4.3.5-6.8v-3.9c0-1.3.1-2.7.2-4 .3-2.7.7-5.3 1.1-7.8s.9-4.8 1.1-6.8c.3-2 .5-3.7.6-4.8.1-1.2.2-1.8.2-1.8s0 .7-.1 1.8c-.1 1.2-.2 2.9-.4 4.9s-.6 4.3-1 6.8-.8 5.1-1.1 7.8c-.1 1.3-.2 2.6-.2 4v3.9q0 1.95-.3 3.6c-.1 1.2-.3 2.2-.5 3.2-.4 2-.9 3.6-1.2 4.7-.1 1-.5 1.6-.5 1.6"/><path fill="#17110b" d="m51.6 272.7-.2 1.6s-8.8 1.8-13.6.5-10.9-3.6-12.1-3.6v1.3s-4 0-6.2-1.6l-.2-5.1c.1 0 27.9-2.4 32.3 6.9"/><path fill="#3d241b" d="M33.4 240.6s-4.6 4.7-13.8-.2c0 0 .3 17.6.3 20.8s-2.8 7.4 4 8.3 10 3.8 17 4.2 10.7-1.1 10.7-1.1.3-3.8-2.6-5.6-12-4.3-14.5-7.9-1.1-18.5-1.1-18.5"/><path fill="#241510" d="M51.6 272.7s0-.7-.2-1.8c-.1-.6-.3-1.2-.7-1.9s-1-1.4-1.8-1.7c-1.8-.7-4-1.4-6.3-2.4-1.1-.5-2.3-1-3.4-1.6s-2.3-1.3-3.3-2.2-1.9-2-2.3-3.3c-.3-1.3-.4-2.6-.5-3.8-.2-2.5-.1-4.8-.1-6.7.1-3.9.3-6.5.3-6.5s0 2.6.1 6.5c0 2 .1 4.2.3 6.7.1 1.2.2 2.5.5 3.7s1.2 2.2 2.1 3c2 1.6 4.3 2.8 6.5 3.8 1.1.5 2.2 1 3.3 1.4 1 .4 2 .8 2.9 1.2s1.6 1.2 1.9 2c.4.7.5 1.4.6 2s.1 1 .1 1.3c.1.1 0 .3 0 .3M32.3 241.3s-.1.1-.4.3q-.45.3-1.2.6c-.5.2-1.2.4-1.9.5s-1.5.1-2.3.1c-.4 0-.8-.1-1.1-.1-.4-.1-.7-.1-1.1-.2-.7-.2-1.3-.4-1.9-.6-.5-.2-.9-.5-1.2-.6-.3-.2-.5-.2-.5-.2s.2 0 .5.1.8.2 1.3.4c.3.1.6.1.9.2s.6.1 1 .2c.3.1.7.1 1.1.2s.7.1 1.1.1c.7.1 1.5 0 2.2 0 .7-.1 1.3-.2 1.9-.3.5-.1 1-.3 1.3-.4.1-.2.3-.3.3-.3M19.8 242.8s.1 1.8.3 4.6c0 1.4.1 3 .2 4.7 0 1.7.1 3.6.1 5.4v2.8c0 .9-.1 1.9-.3 2.7q-.3 1.35-.3 2.4c0 .8.1 1.5.4 2.1.1.3.4.5.6.7s.5.4.7.5c.5.3 1 .4 1.3.5.4.1.7.1.9.2.2 0 .3.1.3.1h-.3c-.2 0-.5 0-.9-.1s-.9-.2-1.4-.4c-.3-.1-.5-.3-.8-.5-.2-.2-.5-.5-.7-.8-.4-.6-.6-1.4-.6-2.2s.1-1.7.2-2.5c.2-.9.3-1.7.3-2.6v-12.9c-.1-2.8 0-4.7 0-4.7"/><path fill="#241510" d="M44.9 265.5s-.2.1-.5.4c-.3.2-.7.6-1.1.9s-.8.7-1.1.9l-.6.4s.1-.3.3-.6c.2-.4.6-.8 1-1.1s.9-.6 1.3-.7c.4-.2.7-.2.7-.2M39.3 262.9s-.2.2-.6.4c-.3.2-.8.5-1.2.8l-1.2.9c-.2.1-.3.2-.4.3s-.2.1-.2.1.1-.3.3-.7.6-.8 1.1-1.2c.5-.3 1-.6 1.4-.7.5.1.8.1.8.1M34.6 259.2s-.2.1-.6.2-.8.3-1.3.5c-.4.2-.9.3-1.2.5-.2.1-.3.1-.4.2-.1 0-.2.1-.2.1s.1-.2.4-.5.7-.6 1.2-.8 1-.3 1.4-.2c.4-.1.7 0 .7 0M33.4 252.9s-.2.2-.6.4-1 .4-1.6.4-1.2-.1-1.6-.3-.7-.3-.7-.3h2.2c.5 0 1.1-.1 1.5-.1.5 0 .8-.1.8-.1M33.3 245.6s-.2.2-.6.5q-.6.45-1.5.6c-.3 0-.6.1-.9 0-.3 0-.5-.1-.8-.2-.2-.1-.4-.2-.5-.2-.1-.1-.2-.1-.2-.1h.7c.4 0 .9 0 1.5-.1.5-.1 1.1-.2 1.5-.3.5-.1.8-.2.8-.2M25.8 269.6s-.1-.7-.3-1.7c-.1-.5-.3-1.1-.5-1.7-.1-.3-.2-.6-.4-.9-.1-.3-.3-.6-.5-.9s-.3-.6-.6-.8c-.2-.2-.4-.5-.6-.7l-.3-.3c-.1-.1-.2-.2-.4-.3-.2-.2-.5-.3-.7-.4l-.6-.3c-.2-.1-.4-.1-.5-.2-.3-.1-.4-.2-.4-.2s.2 0 .5.1c.2 0 .3 0 .6.1.2 0 .4.1.7.2s.5.2.8.4c.1.1.3.2.4.2.1.1.3.2.4.3.3.2.5.5.8.7.3.3.4.6.6.9.4.6.7 1.3.8 1.9.2.6.3 1.3.3 1.8 0 1.1-.1 1.8-.1 1.8"/><path fill="#396e4c" d="M39.5 208s1.5 3.6.8 10.2c-.8 6.7-.4 16-2.3 20.4s-15.8 10.7-20 .9-2.7-29.8 2.3-31.5 17.3-6.6 19.2 0"/><path fill="#1f453b" d="M34.8 242s-.6.3-1.6.9c-.5.3-1.1.6-1.9.9-.7.3-1.6.6-2.6.9-.5.2-1 .2-1.5.3s-1.1.1-1.7.1c-1.2 0-2.4-.2-3.6-.7-.3-.1-.6-.3-.8-.5l-.4-.3-.4-.3-.7-.7-.6-.8c-.4-.5-.7-1.1-1-1.7s-.5-1.2-.8-1.8c-.4-1.2-.8-2.6-1.1-3.8-.3-1.3-.5-2.6-.6-3.8s-.2-2.4-.2-3.6c0-1.1 0-2.2.1-3.2.1-2 .3-3.6.5-4.8.2-1.1.3-1.8.3-1.8s-.4 2.6-.5 6.6c0 2 0 4.3.3 6.7s.8 5 1.7 7.5c.3.6.4 1.3.7 1.8.3.6.5 1.2 1 1.6l.6.8.7.6.3.3.4.2c.3.2.5.3.8.5 1.1.5 2.2.7 3.4.7.6 0 1.1 0 1.6-.1s1-.1 1.5-.3c1-.2 1.8-.5 2.6-.8s1.4-.6 1.9-.8c1-.4 1.6-.6 1.6-.6"/><path fill="#396e4c" d="M41.3 186.6c1.1-18.3 4.2-49.1-7.4-53.6-11.6-4.6-21.9 1.3-19.7 27.7.8 9.4 3.2 31.9 2.1 35.4s-2.8 6.3-1.1 8.1c1.8 1.8-1.6 3.8-.1 5.6 1.6 1.8 5.7 5.6 14.4 4.9 4.7-.4 11-4.3 12.4-7.2 1.1-2.4-2.5-2.2.4-8.2 1.3-2.4-1.4-6.2-1-12.7"/><path fill="#1f453b" d="M15.2 209.8s.5.3 1.4.8c.8.4 1.9 1 3.1 1.5.6.2 1.2.5 1.7.7.6.2 1.1.4 1.5.5.4.2.8.3 1.1.4s.4.1.4.1H24c-.3 0-.7 0-1.1-.1-.5-.1-1-.2-1.6-.3l-1.8-.6c-.6-.3-1.2-.5-1.7-.8s-1-.6-1.4-.9c-.8-.8-1.2-1.3-1.2-1.3M16.6 205.4l.6.6c.2.2.4.4.7.6s.6.4 1 .6.8.4 1.3.6l1.5.6c.5.2 1.1.3 1.6.5.6.2 1.1.3 1.7.4s1.2.2 1.7.4c.6.1 1.1.2 1.7.3 1.1.2 2.1.3 3 .4s1.6.2 2.1.2c.5.1.8.1.8.1h-3c-.9-.1-2-.1-3.1-.2-.6-.1-1.1-.1-1.7-.2l-1.8-.3c-.6-.2-1.2-.3-1.7-.5-.6-.2-1.1-.3-1.6-.6-.5-.2-1-.4-1.5-.7-.5-.2-.9-.5-1.3-.7-.4-.3-.7-.5-1-.8-.3-.2-.5-.5-.7-.7-.2-.3-.3-.6-.3-.6M14.6 154.7s-.2 2.7-.1 6.8c0 2 .1 4.4.4 6.9s.6 5.2.9 7.9.5 5.4.7 7.9.3 4.9.3 6.9-.1 3.7-.4 4.9c-.1.6-.3 1-.4 1.3s-.2.4-.2.4.3-.6.5-1.8.2-2.9.1-4.9-.3-4.4-.5-6.9-.5-5.2-.8-7.9-.6-5.4-.8-7.9-.2-4.9-.2-7c.1-3.9.5-6.6.5-6.6M38 204.7s.1-.2.3-.5q.3-.45.9-1.2c.4-.5.9-1.1 1.6-1.7.6-.7 1.3-1.4 1.7-2.4.2-.5.2-1 .1-1.6l-.3-1.8c-.3-1.2-.7-2.5-.9-3.9s-.3-2.8-.3-4.3c.1-1.4.2-2.9.2-4.4.3-5.9.7-11.7.9-16.1.1-2.2.2-4 .3-5.3s.1-2 .1-2 .1 2.9-.1 7.3c-.1 2.2-.1 4.8-.2 7.5s-.3 5.7-.4 8.6c-.1 1.5-.2 2.9-.3 4.4-.1 1.4 0 2.8.2 4.2.2 1.3.5 2.6.8 3.9.2 1.2.5 2.5.1 3.6s-1.2 1.8-1.8 2.4c-.7.6-1.2 1.2-1.6 1.6q-.6.75-.9 1.2c-.3.4-.4.5-.4.5"/><path fill="#bd8962" d="M18.6 152.3s2.5 1.9 2.8 6.6c.3 3.2 1.4 5.7.5 5.9-1.8.4-2-4.6-2-4.6s-.9 4.6-.2 6.3c.6 1.3.4 3.6-.2 3.8-.6.3-1.6-2.9-2.2-4.9 0 0 .4 2.4.4 3.9s-.5 2-1.4.5c0 0-1 2.5-2.3-2.4 0 0-1 .5-1.4-2.2s-1.6-15.9 6-12.9"/><path fill="#824d39" d="M19 169.8s-.1-.1-.2-.3-.3-.5-.5-.8c-.2-.4-.4-.8-.6-1.3s-.3-1-.4-1.6c-.2-1.1-.2-2.2-.1-3 0-.4.1-.7.1-1 0-.2.1-.4.1-.4s0 .1.1.4c0 .2.1.6.1 1s.1.9.2 1.3c.1.5.1 1 .2 1.5.2 1 .4 2.1.6 2.8.2 1 .4 1.4.4 1.4M16.3 169.8s-.3-.4-.7-1.1c-.2-.3-.3-.8-.5-1.2l-.3-1.5c-.1-1-.1-2 0-2.8s.2-1.2.2-1.2v.3c0 .2.1.5.1.9s.1.8.1 1.3c.1.5.1.9.2 1.4.1 1 .3 1.9.5 2.7.3.7.4 1.2.4 1.2M14 167.5s-.2-.3-.4-.9c-.2-.5-.3-1.3-.4-2q-.15-1.2 0-2.1c.1-.6.2-.9.2-.9v.3c0 .2.1.4.1.7.1.6.2 1.3.3 2s.1 1.5.2 2zM19.3 153.2s.1 0 .3.1.4.3.6.5c.4.5.7 1.2 1 2 .2.8.3 1.6.4 2.1v1s-.2-.4-.3-.9c-.2-.6-.4-1.3-.6-2s-.4-1.5-.7-2q-.15-.45-.3-.6c-.3-.1-.4-.2-.4-.2"/><path fill="#d9c2b1" d="M22.2 118.8c2.2 5.6-.5 14.2-.7 19.6s-.1 15-.1 15-7.1 3.6-10.1-.9c0 0-.2-20-.5-24.6s.3-7.4 2.3-9.9 6.5-5.6 9.1.8"/><path fill="#d9c2b1" d="M30.6 78.6c-2.1-8-6.6-13.2-10.2-7.5-3.1 5-8.4 27.1-8.8 42.3 0 .9-.2 2.1-.2 2.9 0 2.4-1.2 2.4-1 4 .3 2.3 1.3 3.4 5.6 4.1 1.3.2 5.7 0 7.1-2 1.1-1.5-.1-1.5.9-3.8.4-1 1.5-1.5 1.6-3 .6-13.5 6.5-31.2 5-37"/><path fill="#a68f81" d="M31.1 85.8s-.5 2.7-1.3 6.7c-.4 2-.9 4.3-1.4 6.8-.3 1.2-.5 2.5-.8 3.8s-.5 2.6-.8 3.9c-.3 2.7-.5 5.4-.8 7.9 0 .3-.1.6-.1 1-.1.3-.2.6-.4.9-.3.6-.7 1-.9 1.5-.3.5-.6 1-.6 1.5-.1.5 0 1.1-.2 1.6-.2 1.1-1 1.8-1.7 2.2-.8.4-1.5.5-2.1.7-.6.1-1.1.2-1.4.2h-.5s.2 0 .5-.1c.3 0 .8-.1 1.3-.3.6-.1 1.3-.3 2-.7s1.4-1.1 1.5-2.1c.1-.5.1-1 .1-1.6s.3-1.1.6-1.7l.9-1.5c.1-.3.2-.5.3-.8 0-.3.1-.6.1-.9.3-2.5.4-5.2.7-7.9.2-1.4.5-2.7.8-4s.6-2.6.8-3.8c.5-2.5 1.1-4.8 1.6-6.8 1.1-3.9 1.8-6.5 1.8-6.5"/><path fill="#a68f81" d="M22.2 119.5s-.4.3-1 .6-1.4.6-2.3.9c-.9.2-1.7.4-2.4.3-.7 0-1.1-.1-1.1-.1s.1 0 .3-.1c.2 0 .5-.1.8-.2.6-.1 1.5-.4 2.3-.6s1.7-.4 2.3-.6c.6-.1 1.1-.2 1.1-.2M18.3 119.2s-.4.2-1 .3-1.5.2-2.4-.1c-.2 0-.4-.1-.6-.2l-.6-.3c-.4-.2-.6-.5-.8-.8-.4-.6-.3-1-.4-1l.2.2c.1.2.3.3.5.5.1.1.2.2.4.3.1.1.3.2.4.3.3.1.7.3 1.1.4.8.2 1.6.3 2.2.3.6.1 1 .1 1 .1"/><path fill="#3d241b" d="M35.1 80.9c-1.9-.2-3.9.9-3.3 4.2.5 3.3-2.5 3.4-3.6 3.2 0 0 3.8 2.4 6.4-1 0 0-.9 1.8-2 2.2 0 0 4.6-1.3 4.8-5.4.1-1.3-.5-2.9-2.3-3.2"/><path fill="#241510" d="M28.2 88.3h.5c.3 0 .7 0 1.1-.2s.8-.5 1.2-1c.2-.2.3-.5.4-.8.1-.2.2-.5.2-.9 0-.6-.1-1.3 0-1.9 0-.7.4-1.3.8-1.7s.8-.5 1.1-.6.4-.1.4-.1-.1.1-.4.3c-.2.2-.6.4-.9.8s-.5.9-.5 1.4c0 .6.1 1.2.1 2 0 .4-.1.7-.3 1.1q-.15.45-.6.9c-.4.5-1 .9-1.5 1s-1 .1-1.3 0z"/><path fill="#3d241b" d="M35.1 44.7s-6 7.8.1 14c0 0-4.4 2.7-.7 9.5 0 0-3.9 2.8-.2 7.7 0 0-2.5 2.3 0 5.8 0 0 5.1-.1 3.7-6 0 0 2.7-3.6.9-7.5 0 0 5.7-3.3 2.2-10.2 0 0 6-6.4 2.1-11.6s-6.2-3.7-8.1-1.7"/><path fill="#241510" d="M37.8 48.6s.4.2 1 .8c.5.5 1.1 1.4 1.4 2.3.2.5.3 1 .3 1.4 0 .5.1.9 0 1.3 0 .4-.1.7-.1.9s-.1.3-.1.3 0-.1-.1-.3c0-.2-.1-.5-.1-.9-.1-.7-.3-1.6-.6-2.5-.1-.4-.3-.9-.5-1.3s-.4-.8-.6-1.1c-.3-.5-.6-.9-.6-.9"/><path fill="#241510" d="M40.1 52.3s0-.3.2-.7.5-.9.8-1.4c.4-.4.9-.8 1.3-1s.7-.2.7-.2 0 .1-.1.2-.2.2-.3.4c-.3.3-.6.7-1 1.1s-.7.8-1 1.1c-.4.3-.6.5-.6.5M37.9 60.2s.4.2.8.6.9 1.1 1.1 1.9c.1.4.2.8.2 1.2v.5c0 .2 0 .3-.1.5-.1.3-.2.5-.2.7l-.1.2s0-.4-.1-.9c0-.6-.2-1.3-.4-1.9-.2-.7-.5-1.3-.8-1.8-.2-.7-.4-1-.4-1"/><path fill="#241510" d="M40.4 61.4v.6c0 .1-.1.2-.1.3-.1.1-.1.2-.2.3 0 .1-.1.2-.2.3l-.2.2v-.6c0-.1.1-.2.1-.3.1-.1.1-.2.2-.3 0-.1.1-.2.2-.3zM35.6 69s.3.2.7.6c.2.2.4.4.6.7s.4.6.5.9.3.7.3 1c.1.3.1.6.1.9v.8-.2c0-.2-.1-.4-.1-.6-.1-.3-.2-.5-.3-.8s-.2-.6-.4-.9c-.3-.6-.6-1.2-.9-1.7-.3-.4-.5-.7-.5-.7"/><path fill="#241510" d="M38.2 70.6v.3c0 .1 0 .2-.1.2 0 .1-.1.2-.1.3-.1.1-.1.2-.2.2 0 .1-.1.1-.2.2l-.2.2s-.1-.1-.1-.3v-.3c0-.1.1-.2.1-.3.1-.1.1-.2.2-.2l.2-.2c.3 0 .4-.1.4-.1M36 76.2s.2.2.4.6.3 1 .3 1.6c0 .3 0 .6-.1.8-.1.3-.2.5-.2.7-.1.2-.2.3-.3.4s-.1.2-.1.2v-.2c0-.1.1-.3.1-.5.1-.2.1-.4.1-.7v-1.6c0-.3 0-.5-.1-.7-.1-.3-.1-.6-.1-.6"/><path fill="#241510" d="M37.5 77.3s0 .1-.1.3c0 .1-.1.2-.1.2l-.2.2c-.1.1-.2.1-.2.2-.1.1-.2.1-.2.1-.1.1-.3.1-.3.1s0-.1.1-.3c0-.1.1-.2.1-.2l.2-.2c.1-.1.2-.1.2-.2.1-.1.2-.1.2-.1.1-.1.3-.1.3-.1M34.5 45.5s-.1.2-.3.5-.4.9-.6 1.5c-.1.3-.2.6-.3 1s-.2.8-.3 1.1c0 .4-.1.8-.2 1.2V52c0 .4.1.9.1 1.3l.3 1.2c.1.4.3.7.4 1.1s.3.7.5 1 .3.6.4.8.3.4.4.6c.2.3.3.5.3.5l-.4-.4-.5-.5c-.2-.2-.4-.5-.6-.7l-.6-.9c-.2-.4-.4-.7-.5-1.1s-.3-.8-.4-1.3c-.1-.4-.2-.9-.2-1.4v-.7l.1-.7c0-.5.2-.9.2-1.3.1-.4.2-.8.4-1.2.1-.4.3-.7.5-1 .3-.6.6-1.1.9-1.4.3-.2.4-.4.4-.4M41.2 57.9s.5.5 1 1.6c.1.3.2.5.3.9.1.3.2.6.2 1s.1.7.1 1.1v.6l-.1.6c-.1.4-.2.7-.3 1.1-.1.3-.4.7-.5 1-.2.3-.4.6-.6.8-.2.3-.5.4-.7.6-.4.4-.8.6-1.1.8s-.4.3-.4.3l.4-.4c.2-.2.6-.5.9-1 .2-.2.4-.4.5-.7.2-.3.3-.5.5-.8.1-.3.3-.6.4-.9s.3-.6.3-1l.1-.5v-1.5c-.1-.3-.1-.6-.1-.9-.1-.3-.1-.6-.2-.8-.1-.5-.3-1-.4-1.2-.2-.5-.3-.7-.3-.7M34.5 68.2s-.4.4-.8 1.1c-.2.3-.4.8-.5 1.2-.1.2-.1.5-.1.7v.7c0 .3 0 .5.1.7s.1.5.2.7.1.5.2.7.2.4.2.6c.1.4.3.7.4.9s.1.3.1.3l-.3-.3c-.1-.2-.4-.4-.6-.8-.2-.3-.5-.8-.7-1.3-.1-.2-.2-.5-.2-.8-.1-.3-.1-.6-.1-.8 0-.6.1-1.2.3-1.7s.4-.9.7-1.3c.6-.4 1.1-.6 1.1-.6"/><path fill="#241510" d="M38.1 75.7s.2.5.4 1.3c.1.4.1.9 0 1.4 0 .3-.1.5-.1.8-.1.3-.2.5-.3.8s-.3.5-.5.7-.4.4-.6.5c-.2.2-.5.2-.7.3s-.4.1-.6.2c-.4.1-.7.1-1 .1h-.4s.1-.1.3-.1q.3-.15.9-.3c.2-.1.4-.1.5-.3.2-.1.4-.2.5-.4l.5-.5c.2-.2.3-.4.4-.6l.3-.6c.1-.2.2-.4.2-.7.1-.4.1-.9.2-1.3z"/><path fill="#3d241b" d="M78.3 39.3c-1.8 4.7-4.6 8.4-3 12.4 1.4 3.4.6 8.5-2 9 0 0 1.6-3.4.6-4.8 0 0 .3 1.9-.9 2.8 0 0-.2-3.5-1.2-5.3-1.9-3.4-1.9-6.8 1.1-12 3.1-5.1 6.6-5.2 5.4-2.1"/><path fill="#bd8962" d="M76.8 24.5c2.6 7.9-1.8 21.2-1.8 21.2s.4 17-16.4 18.6c-8.5.8-15.4-4.7-18.1-11.9-2.9-7.8-3.9-14.9-1.7-23.4 1-3.8 4.3-10.4 8.9-14 8.5-6.3 24.5-4.4 29.1 9.5"/><g fill="#633b2c"><path d="M63 45.1s.3.4.6 1.2c.3.7.6 1.8.4 2.9 0 .3-.1.6-.2.8-.1.3-.3.5-.5.7s-.4.3-.7.4c-.2.1-.4.2-.6.2-.8.1-1.3 0-1.3 0s.1 0 .4-.1q.3 0 .9-.3c.3-.1.7-.4 1-.7.2-.2.3-.3.3-.5.1-.3.1-.4.2-.7.1-.5.1-1 0-1.4 0-.5-.1-.9-.2-1.3-.2-.6-.3-1.2-.3-1.2M59.3 49.7h-.6c-.1 0-.2 0-.3.1-.2 0-.4.1-.6.2s-.3.2-.3.2 0-.1.1-.3c.1-.1.1-.2.3-.3.1-.1.3-.1.4-.2h.4c.1 0 .2.1.3.1.2.1.3.2.3.2"/></g><g fill="#3d241b"><path d="M71.7 41.7s-.4.3-1 .3-1.5-.1-2.3-.3-1.6-.6-2.1-.9-.9-.6-.9-.6.4.1 1 .2 1.4.4 2.2.6 1.5.5 2.1.6c.3.1.5.1.7.1.2.1.3 0 .3 0"/><path d="M68.1 41.3c1 .4 1.7.6 2.3.7 0 .2-.1.4-.1.7-.4 1.3-1.3 2.3-2 2.1s-.9-1.5-.5-2.8c.1-.3.2-.5.3-.7"/></g><g fill="#3d241b"><path d="M57.8 37.9s-.4.3-1 .3-1.5-.1-2.3-.3-1.6-.6-2.1-.9-.9-.6-.9-.6.4.1 1 .2 1.4.4 2.2.6 1.5.5 2.1.6c.3.1.5.1.7.1.2.1.3 0 .3 0"/><path d="M54.2 37.5c1 .4 1.7.6 2.3.7 0 .2-.1.4-.1.7-.4 1.3-1.3 2.3-2 2.1s-.9-1.5-.5-2.8c.1-.3.2-.5.3-.7"/></g><path fill="#3d241b" d="M60.6 35.2s-.2.1-.6.1c-.3 0-.8.1-1.4 0-.6 0-1.2-.1-1.9-.2s-1.4-.3-2-.5c-.7-.2-1.3-.5-1.9-.8s-1.1-.6-1.6-.8-.8-.5-1.1-.7-.4-.3-.4-.3.2 0 .5.1q.45.15 1.2.3c.5.1 1.1.3 1.7.4s1.3.3 2 .4 1.3.2 1.9.3c.6 0 1.2.1 1.7.1h1.5c.5-.1.9.2 1 .6.2.5-.1.9-.6 1M66.4 35.7c.1 0 .1.1.2.1.1.1.4.3.7.5q.45.3 1.2.6c.4.2.9.5 1.4.7 1 .5 2 .9 2.8 1.3.8.3 1.3.6 1.3.6s-.6 0-1.4-.1c-.4-.1-.9-.1-1.4-.2s-1.1-.2-1.6-.3c-.6-.2-1.1-.3-1.6-.5s-1-.4-1.4-.6-.7-.4-1-.6c-.1-.1-.2-.2-.3-.2l-.1-.1c-.3-.3-.3-.9.1-1.2.2-.4.7-.4 1.1 0"/><path fill="#633b2c" d="M60.2 58.3s-.1-.1-.2-.3c-.2-.2-.4-.4-.8-.6l-.6-.3c-.2-.1-.5-.2-.7-.3-.5-.2-1-.3-1.6-.5-.5-.1-1.1-.3-1.6-.4s-1-.2-1.4-.3c-.8-.2-1.4-.3-1.4-.3s.6-.1 1.4-.1c.4 0 .9 0 1.5.1.5.1 1.1.2 1.7.3s1.1.3 1.6.6c.5.2.9.5 1.3.8.3.3.6.6.7.8.1.4.1.5.1.5"/><path fill="#824d39" d="m70.3 59-.9.9q-.45.45-1.2.9c-.5.3-1 .7-1.6 1.1s-1.3.7-2 1.1c-.7.3-1.5.7-2.4 1-.8.3-1.7.5-2.6.7-.9.1-1.9.3-2.8.2-1 0-1.9-.2-2.8-.3-.5-.1-.9-.2-1.3-.4-.4-.1-.9-.2-1.3-.4-.8-.3-1.6-.7-2.3-1.1s-1.4-.8-1.9-1.3q-.9-.6-1.5-1.2c-.4-.4-.7-.8-1-1.1l-.9-.9s.4.3 1 .8c.3.3.7.6 1.1 1 .5.3 1 .7 1.5 1.1s1.2.8 1.9 1.1c.7.4 1.5.7 2.3 1 .4.2.8.3 1.2.4s.9.2 1.3.3c.9.1 1.8.3 2.7.2.9.1 1.8-.1 2.7-.2.9-.2 1.8-.3 2.6-.6.8-.2 1.6-.6 2.3-.9s1.4-.7 2-1c1.2-.7 2.2-1.3 2.8-1.8.8-.4 1.1-.6 1.1-.6"/><path fill="#3d241b" d="M40.1 51.4c-11.1-11.9-5-25.4-1-32.8s14.6-7 14.6-7c.8-1.2 1-4 1-4 1.3 1.4.6 3.9.6 3.9s3.5-2 7-1 7.3-.8 7.3-.8c-1.1 1.8-2.3 2.4-2.3 2.4 5.7.4 7.9 5.2 9.9 8.1 1.9 2.9 4.9 3.4 4.9 3.4-3.3.3-4.5-.7-4.5-.7s2.7 5.2 1.8 12.4S75 45.8 75 45.8c1-3.9 2-9.6 2-9.6-15.4-5.4-14.4-14.5-14.4-14.5-1.3 4.2.7 8.4.7 8.4-5.4-3.3-3.6-11.4-3.6-11.4s-1.3 5.2-.4 6.7c0 0-4.4-3.3-3.4-6.6 0 0-2.9 11.2-7.9 13.6-11.7 5.5-7.9 19-7.9 19"/><path fill="#241510" d="M77 36.2s-1.4-.2-3.3-.9l-1.5-.6c-.5-.3-1.1-.5-1.7-.8s-1.1-.7-1.7-1.1-1.1-.8-1.7-1.3L65.6 30c-.4-.6-.9-1-1.2-1.6s-.7-1.1-.9-1.7-.5-1.1-.6-1.6-.2-1-.3-1.4c0-.4 0-.8-.1-1.1v-.9s.1.3.2.9c0 .3.1.6.2 1.1.1.4.3.8.4 1.3s.4 1 .6 1.5.6 1 .9 1.5c.3.6.8 1 1.2 1.5s.9.9 1.4 1.4c.5.4 1 .9 1.6 1.2.5.4 1.1.8 1.6 1.1 1.1.7 2.1 1.2 3.1 1.6.5.2.9.4 1.3.6s.7.3 1 .4c.6.3 1 .4 1 .4M63.3 30.1s-.2-.1-.5-.2c-.1-.1-.3-.2-.5-.3s-.4-.3-.6-.5c-.4-.4-.8-1-1.2-1.6-.2-.3-.3-.7-.5-1-.1-.4-.3-.7-.4-1.1s-.2-.8-.2-1.1c-.1-.4-.1-.8-.1-1.1 0-.4-.1-.7 0-1v-.9c0-.6.1-1.1.1-1.4s.1-.5.1-.5 0 .2.1.5c0 .3.1.8.1 1.4 0 .3.1.6.1.9s.1.7.1 1c0 .4.1.7.2 1.1s.1.7.2 1.1c.2.7.4 1.4.7 2.1.3.6.6 1.2.9 1.6.7.6 1.4 1 1.4 1M59.2 25.4s-.5-.2-1.1-.6c-.3-.2-.7-.5-1-.9-.3-.3-.6-.8-.9-1.2-.2-.5-.4-.9-.5-1.4-.1-.2-.1-.5-.1-.7V20c0-.4.1-.7.1-.9.1-.2.1-.3.1-.3v.3c0 .2 0 .5.1.9l.3 1.2q.15.6.6 1.2c.4.8 1.1 1.6 1.5 2.1.6.5.9.9.9.9M40.1 51.4s-.6-.5-1.6-1.6c-.9-1.1-2.2-2.8-3.2-5-1-2.3-1.8-5.1-1.9-8.2s.4-6.4 1.4-9.6c.5-1.6 1.1-3.1 1.8-4.6s1.4-2.9 2.3-4.2c.5-.6.9-1.2 1.5-1.8.6-.5 1.1-1 1.7-1.4 1.1-.9 2.3-1.5 3.5-2 1.1-.5 2.2-.8 3.2-1s1.9-.3 2.6-.4c1.4-.1 2.3 0 2.3 0s-.8 0-2.2.1c-1.5.2-3.5.6-5.7 1.7-1.1.5-2.3 1.2-3.3 2-1.1.9-2.1 1.9-3 3.1s-1.6 2.6-2.2 4.1-1.2 3-1.7 4.6c-1 3.1-1.6 6.3-1.5 9.4.1 3 .7 5.9 1.6 8.1.9 2.3 2 4 2.9 5.1s1.5 1.6 1.5 1.6M82.1 23.8s-.6.2-1.5.3-2.1 0-3.3-.5c-.3-.1-.6-.2-.8-.4-.3-.1-.5-.3-.8-.5-.2-.1-.4-.4-.6-.5l-.5-.5c-.3-.3-.5-.7-.7-.9-.1-.2-.2-.3-.2-.3l.3.3.3.3c.1.1.3.2.5.4.2.1.4.3.6.4s.4.3.7.4c.5.3 1 .5 1.5.7 1.1.4 2.2.6 3.1.7.8.1 1.4.1 1.4.1M69.6 9.8s-.1.5-.5 1.1-1.1 1.4-2.1 1.8c-.2.1-.5.2-.7.3s-.5.1-.7.1h-.7c-.2 0-.4 0-.6-.1-.4 0-.7-.2-.9-.3s-.3-.1-.3-.1h1.8c.2 0 .4 0 .6-.1s.4-.1.6-.2.4-.1.6-.3c.8-.4 1.5-1 2-1.5.6-.3.9-.7.9-.7"/><path fill="#bd8962" d="M42.9 39.8s1.3-6.4-6-11.2c0 0-4.4 12.1 3.3 15.7"/><path fill="#824d39" d="M37.2 30.1s.7.5 1.5 1.4c.4.5.9 1 1.4 1.6s.9 1.3 1.3 2.2c.1.4.3.9.2 1.4 0 .3-.1.4-.2.6s-.1.4-.2.6c-.2.7-.5 1.4-.5 2v.8c0 .2.2.4.3.5.2.3.4.4.4.4s-.2 0-.5-.3c-.1-.1-.3-.3-.4-.6-.1-.2-.2-.6-.2-.9q0-1.05.3-2.1c.1-.2.1-.4.2-.6s.1-.4.1-.5c0-.3-.1-.7-.2-1-.3-.7-.7-1.4-1.1-2.1-.4-.6-.8-1.2-1.2-1.7-.7-1-1.2-1.7-1.2-1.7"/><path fill="#824d39" d="M41 35.5s-.2.1-.5.4c-.3.2-.7.6-1 .9-.2.2-.3.4-.5.6-.1.2-.3.4-.4.5-.1.2-.2.3-.3.4s-.1.2-.1.2 0-.3.1-.7c0-.2.1-.4.2-.7.1-.2.3-.5.5-.7s.4-.4.6-.5.5-.2.7-.3c.4-.1.7-.1.7-.1"/><path fill="#3d241b" d="M50.7 29.5c-2.5 4.4-5.9 7.6-4.9 11.8.8 3.6-.7 8.5-3.4 8.5 0 0 2.1-3.1 1.3-4.7 0 0 0 2-1.4 2.6 0 0 .4-3.5-.3-5.4-1.3-3.6-.8-7.1 3-11.7 3.9-4.4 7.4-4 5.7-1.1"/><path fill="#241510" d="M42.4 49.9s.5 0 1.1-.5c.3-.2.6-.5.9-1 .3-.4.5-1 .7-1.6s.3-1.3.4-2.1c.1-.7.1-1.5.1-2.3s-.1-1.7-.1-2.6.1-1.8.4-2.7c.4-1.8 1.3-3.4 2.3-4.7 1-1.4 2-2.5 2.8-3.5s1.5-1.9 1.9-2.6.6-1 .6-1-.6 1.7-2.2 3.8c-.8 1.1-1.7 2.3-2.6 3.6s-1.7 2.9-2.1 4.6c-.2.8-.3 1.7-.4 2.5v2.5c0 .8 0 1.6-.1 2.4s-.3 1.5-.5 2.1c-.1.3-.3.6-.4.9-.2.3-.3.5-.5.7-.3.4-.7.7-1.1.9-.3.2-.6.3-.8.3-.3.3-.4.3-.4.3M41.6 40.3s-.1-.1-.2-.4-.2-.7-.2-1.2 0-1.1.1-1.7.3-1.3.6-1.9.6-1.2.9-1.7.7-1 1-1.4.7-.6.9-.8l.3-.3s-.1.1-.2.4c-.2.2-.4.6-.6 1-.1.2-.3.4-.4.7-.1.2-.3.5-.4.8-.2.3-.3.5-.4.8-.2.3-.3.6-.4.9-.5 1.2-.8 2.4-.9 3.4 0 .5-.1.9 0 1.2-.1 0-.1.2-.1.2"/></g></svg>