<svg xmlns="http://www.w3.org/2000/svg" width="63.553" height="74.25" viewBox="-0.79 -0.44 63.553 74.25"><path fill="none" stroke="#e54529" stroke-linecap="round" stroke-width="1.44" d="M23.585 72.37V51.13M32.569 72.37V51.13"/><path fill="none" stroke="#e54529" stroke-linecap="round" stroke-width="2.88" d="M55.788 24.258h5.535"/><path fill="#ffdb5d" d="M55.947 22.165c0 7.556-6.034 13.681-13.478 13.681-7.443 0-13.478-6.125-13.478-13.681S35.026 8.484 42.469 8.484c7.444 0 13.478 6.125 13.478 13.681"/><path fill="#fff4e3" d="M47.996 22.165c0 3.097-2.475 5.609-5.527 5.609s-5.525-2.512-5.525-5.609 2.473-5.609 5.525-5.609 5.527 2.511 5.527 5.609"/><path fill="#17242d" d="M46.075 22.165c0 2.022-1.614 3.66-3.606 3.66s-3.606-1.638-3.606-3.66 1.615-3.66 3.606-3.66c1.992 0 3.606 1.638 3.606 3.66"/><path fill="none" stroke="#ffdb5d" stroke-width="1.44" d="M45.011 9.64c-2.35 0-4.255-1.934-4.255-4.32S42.661 1 45.011 1"/><path fill="#ffdb5d" d="M50.981 32.289c0 14.108-11.267 25.545-25.166 25.545C11.917 57.834.65 46.397.65 32.289z"/><path fill="#fecb43" d="M33.929 32.32c0 6.511-5.2 11.79-11.615 11.79s-11.615-5.279-11.615-11.79z"/><path fill="#ffdb5d" d="M.65 32.394v-11.19h12.49a8.18 8.18 0 0 1 5.375 2.02l10.566 9.2z"/></svg>