<svg xmlns="http://www.w3.org/2000/svg" width="84.375" height="213.546" viewBox="-2.197 0.784 84.375 213.546"><path fill="#fff" d="M.979 4.122h77.047v207.033H.979z"/><path fill="#c3e8f3" d="M8.309 40.12h8.796v157.19H8.309zM26.227 40.12h8.796v157.19h-8.796zM43.982 40.12h8.796v157.19h-8.796zM61.737 40.12h8.796v157.19h-8.796z"/><path fill="#d1e6bb" d="M72.487 31.488H7.495V12.104h64.992zm-61.572-3.421h58.152V15.525H10.915zM2.934 37.678h76.232v3.42H2.934z"/><path fill="#d1e6bb" d="M6.843 38.98h3.42v172.175h-3.42zM15.802 38.98h3.42v172.175h-3.42zM24.598 38.98h3.42v172.175h-3.42zM33.557 38.98h3.42v172.175h-3.42zM42.353 38.98h3.42v172.175h-3.42zM51.312 38.98h3.42v172.175h-3.42zM60.108 38.98h3.42v172.175h-3.42zM69.067 38.98h3.42v172.175h-3.42zM76.234 4.122h3.42v207.684h-3.42zM.327 4.122h3.421v207.684H.328z"/><path fill="none" stroke="#d1e6bb" stroke-width="5.048" d="M.816 3.308h78.839"/></svg>