<svg xmlns="http://www.w3.org/2000/svg" xml:space="preserve" width="480" height="360" viewBox="0 0 480 360"><title>baseball-a</title><g fill="none" fill-rule="nonzero"><path fill="#008cb4" d="M-21.267-11.419h532.423v117.144H-21.267z"/><path fill="#00a0b4" d="m474.588-13.695-76.085 94.159 182.08 27.895 5.978-122.054zM-103.834-14.922-97.8 108.36 82.21 80.254 10.183-14.922z"/><g opacity=".4"><path fill="#006482" d="M29.801 48.879c1.136 2.208 2.839 3.451 5.37 3.372h.568a7.74 7.74 0 0 0 4.655-1.368c.233-.154.471-.313.715-.449a3.8 3.8 0 0 0 1.289-1.266 9.3 9.3 0 0 0 1.55-5.739 5.29 5.29 0 0 0-1.942-4.059 8.8 8.8 0 0 0-6.556-1.992c-1.414.096-2.589.778-3.77 1.459a4.28 4.28 0 0 0-1.646 1.703c-1.47 2.73-1.709 5.495-.233 8.339"/><path fill="#78c8c8" d="M60.251 82.303c.97-4.467-.034-9.486 6.341-10.116s7.067 5.229 7.147 10.145c.068 4.268-.29 11.762-5.995 12.488-6.738.858-7.01-8.129-7.493-12.517"/><path fill="#00a0b4" d="M129.552 52.677c-.284 6.42-4.121 8.804-7.663 9.037-4.03.238-8.203-4.02-7.863-9.469.296-4.763 3.815-8.203 7.318-8.555 4.132-.437 8.458 2.572 8.208 8.987"/><path fill="#006482" d="M102.974 75.906c-.193 4.734-3.026 6.494-5.643 6.653-2.974.176-6.057-2.97-5.807-6.988.221-3.52 2.838-6.057 5.404-6.319 3.054-.323 6.245 1.896 6.046 6.654"/><path fill="#78c8c8" d="M137.153 43.923c.199-4.734 3.032-6.494 5.677-6.647 2.975-.182 6.057 2.963 5.807 6.988-.221 3.514-2.838 6.051-5.404 6.312-3.082.307-6.273-1.919-6.08-6.653"/><path fill="#006482" d="M96.548 48.72c-.358 8.617-5.506 11.819-10.264 12.103-5.415.317-11.018-5.393-10.564-12.71.397-6.404 5.11-11.013 9.832-11.49 5.546-.562 11.354 3.485 10.996 12.097"/><path fill="#aadcdc" d="M24.999 58.813c-.267 6.432-4.116 8.822-7.67 9.032-4.041.244-8.225-4.025-7.884-9.492.295-4.78 3.826-8.22 7.34-8.56 4.144-.437 8.48 2.583 8.214 9.02"/><path fill="#00a0b4" d="M169.29.405c1.327-6.09-.046-12.937 8.65-13.794s9.65 7.13 9.742 13.834c.09 5.802-.398 16.026-8.175 16.99-9.19 1.193-9.565-11.097-10.218-17.03"/><path fill="#78c8c8" d="M204.768 22.868c.09.546.5.983 1.04 1.107.664.102 15.843-.199 16.638-.306.5-.724.745-1.592.698-2.47V6.854a1.86 1.86 0 0 0-.715-1.703c-2.106-.602-16.582.21-17.564.75-.233.59-.38 15.86-.097 16.967M361.684 89.666c.087.545.5.982 1.039 1.101.664.102 15.843-.193 16.632-.3.503-.725.75-1.595.704-2.476V73.646a1.87 1.87 0 0 0-.732-1.714c-2.112-.602-16.582.21-17.564.75-.215.6-.397 15.871-.08 16.984"/><path fill="#006482" d="M257.528 91.744c.057-15.657.074-48.326 0-49.388-.068-.692-.205-1.271-.432-1.373-2.298.003-4.595.13-6.88.38a13 13 0 0 0-.295 3.07v47.305z"/><path fill="#78c8c8" d="M21.275 28.71a10.1 10.1 0 0 1-.068-5.11c.397-2.162 2.225-3.894 4.32-3.894 1.674 0 2.838.92 3.77 2.118a5.59 5.59 0 0 1 .306 6.199c-.182.272-.324.567-.489.857a5.07 5.07 0 0 1-3.973 2.554 3.21 3.21 0 0 1-3.02-1.436c-.312-.403-.562-.851-.846-1.289"/><path fill="#006482" d="M202.685 83.342a10.1 10.1 0 0 1-.068-5.109c.397-2.168 2.225-3.9 4.32-3.906 1.675 0 2.838.92 3.77 2.118a5.59 5.59 0 0 1 .306 6.204c-.182.267-.324.568-.488.852a5.05 5.05 0 0 1-3.974 2.554 3.22 3.22 0 0 1-3.02-1.43c-.312-.397-.562-.846-.846-1.283M199.302 23.975c-.267 6.42-4.104 8.788-7.647 9.015-4.03.238-8.203-4.02-7.862-9.469.295-4.763 3.815-8.203 7.317-8.555 4.133-.414 8.459 2.594 8.192 9.01M170.027 55.157l19.993-14.97-20.356-.885zM63.475 37.514c-.153 3.707-2.372 5.11-4.416 5.206-2.327.136-4.74-2.317-4.541-5.467.17-2.753 2.202-4.734 4.223-4.939 2.39-.244 4.888 1.499 4.734 5.2"/><path fill="#00a0b4" d="M191.996 73.504c-.153 3.707-2.367 5.11-4.41 5.206-2.334.136-4.74-2.316-4.542-5.467.176-2.753 2.208-4.734 4.229-4.939 2.39-.244 4.888 1.5 4.723 5.2"/><path fill="#006482" d="M273.411 35.85c-.159 3.708-2.373 5.11-4.416 5.206-2.333.137-4.74-2.316-4.542-5.466.176-2.754 2.209-4.735 4.23-4.94 2.384-.243 4.881 1.5 4.728 5.2M291.145 79.46c-.153 3.706-2.373 5.108-4.416 5.205-2.328.136-4.74-2.316-4.542-5.467.17-2.753 2.203-4.734 4.23-4.939 2.384-.244 4.881 1.499 4.728 5.2M294.977 31.525c-.153 3.707-2.367 5.11-4.41 5.206-2.334.136-4.74-2.316-4.542-5.467.176-2.753 2.208-4.734 4.229-4.939 2.384-.244 4.882 1.499 4.723 5.2M310.281 16.226c-.153 3.707-2.373 5.11-4.416 5.206-2.328.136-4.74-2.322-4.542-5.467.17-2.753 2.203-4.74 4.224-4.944 2.39-.239 4.888 1.499 4.734 5.205M332.37 67.958c-.154 3.707-2.374 5.11-4.417 5.206-2.328.136-4.74-2.322-4.542-5.473.17-2.747 2.203-4.734 4.224-4.938 2.39-.239 4.888 1.498 4.734 5.205M166.53 25.73c-.153 3.706-2.373 5.108-4.416 5.205-2.328.142-4.74-2.316-4.542-5.467.17-2.753 2.203-4.734 4.224-4.939 2.384-.255 4.888 1.499 4.734 5.2M237.46 45.91c-.153 3.701-2.372 5.109-4.416 5.2-2.327.142-4.74-2.316-4.541-5.467.17-2.753 2.202-4.734 4.223-4.939 2.413-.244 4.888 1.499 4.735 5.206M251.84 23.856c-.154 3.707-2.373 5.109-4.417 5.205-2.327.137-4.74-2.316-4.541-5.466.17-2.753 2.202-4.735 4.229-4.939 2.384-.244 4.882 1.499 4.729 5.2M15.28 12.985c-.267 6.415-4.104 8.799-7.646 8.992-4.03.238-8.209-4.013-7.868-9.463.3-4.769 3.82-8.203 7.323-8.555 4.132-.403 8.458 2.611 8.191 9.026"/><path fill="#78c8c8" d="M456.269 56.752c.261-6.392 4.104-8.804 7.64-9.014 4.031-.239 8.21 4.019 7.869 9.469-.296 4.762-3.815 8.202-7.323 8.554-4.127.415-8.447-2.594-8.186-9.009"/><path fill="#aadcdc" d="M402.84 27.824c-1.3 5.966.045 12.67-8.47 13.51s-9.44-6.982-9.542-13.55c-.097-5.677.386-15.713 8.004-16.684 9.003-1.146 9.366 10.877 10.008 16.724"/><path fill="#006482" d="M354.491 22.692c.267-6.414 4.105-8.799 7.647-9.009 4.03-.238 8.203 4.014 7.862 9.463-.295 4.769-3.815 8.203-7.317 8.555-4.133.42-8.458-2.588-8.192-9.009M420.716 28.54c.267-6.415 4.104-8.8 7.646-9.01 4.03-.244 8.209 4.014 7.868 9.463-.3 4.769-3.815 8.203-7.323 8.555-4.132.42-8.458-2.594-8.191-9.009"/><path fill="#aadcdc" d="M449.61 28.789c.273-8.697 4.161-11.921 7.755-12.205 4.087-.324 8.316 5.427 7.947 12.795-.267 6.438-3.843 11.081-7.397 11.558-4.19.568-8.577-3.502-8.305-12.148"/><path fill="#00a0b4" d="M316.015 33.694c.267-6.415 4.104-8.8 7.646-9.01 4.03-.238 8.203 4.014 7.862 9.464-.295 4.768-3.814 8.203-7.317 8.555-4.132.42-8.458-2.595-8.191-9.01"/><path fill="#aadcdc" d="M273.65 66.13c-.142 4.678-2.243 6.415-4.178 6.568-2.209.17-4.49-2.929-4.303-6.897.164-3.474 2.089-5.978 4.002-6.244 2.259-.296 4.626 1.896 4.479 6.573"/><path fill="#006482" d="M389.63 53.766c-.267 6.415-4.104 8.8-7.646 9.01-4.03.238-8.203-4.014-7.863-9.47.296-4.762 3.815-8.197 7.318-8.554 4.132-.409 8.458 2.6 8.191 9.014M307.517 56.236c-.267 6.414-4.105 8.799-7.647 9.009-4.03.238-8.203-4.014-7.868-9.469.301-4.763 3.82-8.197 7.323-8.555 4.133-.414 8.476 2.572 8.192 9.015M432.353 70.286c-.267 6.42-4.104 8.804-7.646 9.014-4.031.239-8.203-4.019-7.863-9.469.295-4.762 3.815-8.197 7.318-8.554 4.132-.415 8.458 2.594 8.191 9.009"/><path fill="#00a0b4" d="M107.016 22.63c-.267 6.414-4.105 8.799-7.647 9.009-4.036.238-8.208-4.014-7.868-9.463.296-4.769 3.815-8.203 7.323-8.555 4.133-.42 8.453 2.594 8.192 9.009"/><path fill="#aadcdc" d="M317.621 82.252c-.267 6.415-4.104 8.799-7.646 9.009-4.03.238-8.203-4.013-7.868-9.469.3-4.762 3.82-8.197 7.323-8.554 4.132-.415 8.458 2.594 8.191 9.014M168.318 72.318c-.26 5.177-4.098 7.101-7.64 7.272-4.037.193-8.209-3.242-7.868-7.641.295-3.843 3.814-6.613 7.323-6.903 4.132-.335 8.452 2.095 8.185 7.272"/><path fill="#78c8c8" d="M74.267 15.057c-.267 5.177-4.099 7.102-7.641 7.272-4.059.216-8.208-3.242-7.868-7.641.295-3.843 3.81-6.613 7.317-6.903 4.139-.335 8.459 2.095 8.192 7.272"/><path fill="#aadcdc" d="M55.363 67.669c-.38 6.414-5.824 8.799-10.848 9.009-5.722.238-11.648-4.014-11.166-9.47.426-4.762 5.416-8.196 10.389-8.554 5.864-.414 12.017 2.594 11.625 9.015M242.462 69.894c-.375 6.415-5.825 8.799-10.848 9.009-5.723.238-11.643-4.014-11.16-9.463.42-4.769 5.415-8.203 10.388-8.555 5.864-.42 12 2.594 11.62 9.009"/><path fill="#006482" d="M136.364 14.32c.977-4.469-.034-9.487 6.341-10.111s7.068 5.228 7.147 10.138c.068 4.27-.29 11.763-5.994 12.49-6.767.856-7.04-8.153-7.494-12.518"/><path fill="#aadcdc" d="M199.33 53.687c.977-4.462-.034-9.486 6.347-10.139 6.38-.652 7.062 5.229 7.141 10.145.068 4.269-.29 11.762-5.995 12.488-6.738.88-7.01-8.129-7.493-12.494"/><path fill="#006482" d="M128.485 77.926c.97-4.467-.034-9.485 6.34-10.115 6.376-.63 7.063 5.228 7.142 10.144.068 4.269-.29 11.762-5.989 12.489-6.744.857-6.993-8.158-7.493-12.518M444.2 83.99c.977-4.463-.034-9.48 6.347-10.111 6.38-.63 7.062 5.228 7.118 10.144.069 4.27-.29 11.762-5.994 12.489-6.716.857-6.988-8.157-7.47-12.523"/><path fill="#aadcdc" d="M341.327 49.225c.977-4.467-.034-9.486 6.341-10.11 6.375-.625 7.068 5.228 7.147 10.138.068 4.27-.29 11.763-5.995 12.49-6.738.862-7.01-8.147-7.493-12.518"/></g><g transform="translate(-79.902 77.229)"><path fill="#64645a" d="M563.128 9.713c-23.2-2.038-52.571-4.36-84.707-6.29l-5.45 54.496h90.157z"/><path fill="#3c3c32" d="M478.42 47.684V3.406C428.677.431 360.46-.448 308.989.914c-24.506.653-52.333-.704-78.037 0a6720 6720 0 0 0-68.824 2.27l-3.548 44.5z"/><path fill="#64645a" d="M162.127 51.09V3.213c-17.03.653-33.107 1.334-47.89 2.004-15.667.715-30.137 1.43-42.71 2.078V51.09z"/><path fill="#828c00" d="M322.175 37.676 59.038 46.594v153.3h516.58V45.72z"/><path fill="#82783c" d="M524.805 78.503c-.096-1.555-.244-2.787.176-4.116l.891.091v3.628zM522.58 77.55h-.835c-.346-1.005.17-1.976-.08-3.015l.96-.335c.301 1.215-.13 2.242-.045 3.35"/><path fill="#a0aa1e" d="M563.128 138.563 315.08 110.429l-242.417 32.22v143.457h490.466z"/><path fill="#82783c" d="m232.075 200.348.908.306c.08 1.618.148 3.128.216 4.604-.12.102-.193.216-.284.227a4.4 4.4 0 0 1-.687 0q-.178-.556-.244-1.135c0-1.25.051-2.487.09-4.002M229.64 205.326c-.239-.278-.472-.426-.489-.567a24 24 0 0 1-.113-2.447q.086-.692.3-1.357l.773.403c.187 3.054.187 3.054-.472 3.968M236.19 205.377l-.999.21c-.653-1.3-.09-2.537-.198-3.809l.704-.204c.533 1.254.34 2.503.493 3.803"/><ellipse cx="320.103" cy="115.47" fill="#a0640a" rx="180.65" ry="36.501"/><ellipse cx="315.823" cy="287.837" fill="#a0640a" rx="116.037" ry="41.048"/><path fill="#a0640a" d="M316.584 90.021 3.134 136.706l4.064 25.83 306.69-47.583 316.97 42.468L635 133.6z"/><path fill="#fff" d="m316.306 110.429-10.621 2.583-.188 5.779 23.945.215-.335-6.392z"/><path fill="#a0aa1e" d="M602.621 47.747c-46.832-5.96-142.076-14.192-277.108-15.05-116.372-.726-166.895 6.972-294.223 13.347l4.15 15.174a1196 1196 0 0 1 34.758-3.974c73.723-7.448 184.34-13.624 246.272-13.119 42.956.34 136.485 3.202 194.189 8.748 42.643 4.104 65.673 8.702 95.368 13.136z"/><path fill="#fff" d="m631.499 148.031-209.25-30.262v-3.764l209.204 30.671zM.295 150.103l209.249-30.262v-3.764L.341 146.748z"/><path fill="#82783c" d="m481.038 251.086.914.307c.073 1.617.147 3.127.215 4.603-.124.097-.198.216-.29.227a5 5 0 0 1-.68 0c-.12-.369-.204-.75-.25-1.135 0-1.249.051-2.475.09-4.002M478.608 256.059c-.238-.273-.471-.42-.488-.568q-.124-1.22-.114-2.446.084-.686.301-1.34l.767.403c.187 3.043.187 3.043-.466 3.95M485.159 256.11l-1.005.216c-.653-1.306-.09-2.538-.193-3.81l.704-.21c.534 1.255.34 2.51.494 3.804M171.533 74.932l.908.307c.08 1.618.148 3.128.216 4.604-.12.102-.193.215-.284.233a5 5 0 0 1-.687 0q-.178-.556-.244-1.136c-.006-1.277.051-2.515.09-4.008M169.097 79.888c-.238-.278-.47-.42-.488-.567a23 23 0 0 1-.113-2.441q.087-.685.3-1.34l.773.403c.164 3.031.164 3.031-.472 3.945M175.648 79.94l-.999.21c-.653-1.3-.09-2.538-.198-3.804l.704-.21c.533 1.254.34 2.503.493 3.803M149.802 164.863l-.783-.318c.13-2.044.483-4.093.193-6.245l.976-.221a47 47 0 0 1-.386 6.784M147.174 161.003c.142 1.214.273 2.344.42 3.621h-1.05c-.08-1.294-.148-2.475-.221-3.797zM530.448 196.278l-.784-.318c.13-2.044.483-4.093.193-6.245l.977-.221a47 47 0 0 1-.386 6.784M527.82 192.44l.42 3.622h-1.05c-.08-1.294-.148-2.475-.222-3.798z"/><path fill="#fff" d="m423.272 104.15-83.743-.062.568 22.343 84.407-.085zm-77.89 19.256-.647-16.338 74.268-.125.54 16.599zM207.597 126.346l84.407.085.567-22.343-83.742.062zm4.973-2.804.539-16.599 74.268.125-.647 16.338z"/><path fill="#fff" d="m358.427 105.013 4.973.193-3.123-15.673-97.372-.511-2.066 16.184 6.46.057.596-12.148 88.67-.102z"/><path fill="#828c00" d="m495.542 135.753.914.306c.073 1.618.142 3.128.215 4.604-.125.102-.198.216-.29.227a4.4 4.4 0 0 1-.68 0q-.182-.556-.25-1.135c0-1.244.051-2.487.09-4.002M493.112 140.731c-.238-.278-.477-.426-.488-.568a21 21 0 0 1-.114-2.446q.086-.681.296-1.334l.772.403c.187 3.031.187 3.031-.466 3.945M499.657 140.782l-.999.21c-.653-1.3-.09-2.537-.198-3.803l.703-.21c.54 1.254.341 2.503.494 3.803"/><path fill="#fff" d="M290.221 257.296v5.115l49.212-.074v-4.7z"/></g></g></svg>