<svg xmlns="http://www.w3.org/2000/svg" width="61.218" height="76.92" viewBox="-0.5 -0.5 61.218 76.92"><path fill="#0cc" d="M57.36 61.07c-1.64 4.61-5.25 8.32-11.05 11.38-.05.02-.1.05-.14.07-4.43 2.26-9.07 3.4-13.79 3.4-6.53 0-12.76-2.2-18.5-6.53l-.12-.09c-1.36-1.06-2.62-2.39-6.08-7.11-.32-.42-.6-.87-.85-1.34l-.97-1.84c-.67-.88-1.3-1.9-1.94-3.1-.34-.64-.61-1.3-.81-1.99-.6-1.98-1.34-4.82-2.27-8.67-.05-.2-.09-.41-.13-.61C.23 42.03 0 39.02 0 35.45c0-4.9.07-5.88.2-6.83.04-.23.08-.47.13-.7.29-1.39.87-3.44 3.16-8.92.27-.66.61-1.29 1.01-1.89q.435-.645 1.2-1.83c2.56-4.55 6.36-8.29 11.28-11.1C21.24 1.78 25.66.4 30.18.04c.29-.03.59-.04.88-.04.62 0 1.13.02 5.17.4.38.04.75.09 1.12.17.46.09 1.05.23 4.44 1.09l.12.03c3.01.81 5.71 2.55 8.01 5.18 3.32 3.77 4.01 7.53 4.01 10.02 0 3.02-1.04 5.95-2.94 8.29 2.53 2.4 4.56 5.1 6.03 8.04.44.77.94 1.74 1.56 3.04.23.49.43 1 .59 1.52.52 1.71.81 3.62.91 6.01v.13c.04 1.3.07 2.24.08 2.82.3 3.58-.56 7.93-2.8 14.33"/><path fill="#fff" d="M49.178 47.417q.352 2.727-2.198 10.027-.969 2.726-5.806 5.277-4.311 2.198-8.796 2.199-6.158 0-11.875-4.311-.792-.614-3.958-4.926l-1.496-2.814q-.615-.614-1.407-2.111-.791-2.637-2.11-8.092-.529-2.904-.528-7.213 0-4.661.088-5.277.35-1.671 2.551-6.949.528-.79 1.495-2.287 2.376-4.398 7.301-7.213 4.222-2.375 8.62-2.727.44 0 4.135.352.44.09 3.87.968 1.32.351 2.595 1.804 1.275 1.451 1.275 2.77 0 .793-.527 1.408-.792.88-2.287.967-1.408.177-2.199-.352-.441-.967-2.375-2.463-2.2-.879-4.31-.879-6.247 0-10.907 7.037-4.135 6.333-3.519 11.609 5.893-5.717 14.865-5.717a25 25 0 0 1 2.902.176q.087 0 .528.264 3.342.001 7.125 3.167 3.43 2.816 5.102 6.333.439.705 1.319 2.551.35 1.145.439 3.255.087 2.903.088 3.167m-5.366.047q.264-5.823-2.551-9.266-4.222-5.382-10.644-5.383-5.982 0-12.49 7.501a21 21 0 0 0-.968.529q1.846 10.15 5.63 14.472 4.221 4.766 9.411 4.502 2.023.264 4.618-.574 2.594-.837 3.827-2.338 2.904-3.441 3.167-9.443"/></svg>