<svg xmlns="http://www.w3.org/2000/svg" xml:space="preserve" width="81.079" height="80.681" viewBox="-0.179 0.513 81.079 80.681"><title>Slice 1</title><g fill-rule="evenodd"><path fill="#d9e2f3" fill-rule="nonzero" d="M61.41 51.733c-1.551 3.225-6.368 5.226-6.368 5.226L64.037 76.5s2.762-.528 4.572-.143c1.067.227 1.075 3.864 1.075 3.864l-7.918.28-17.38-23.788s5.7-3.96 4.45-6.45"/><path fill="none" stroke="#738cb5" stroke-width=".5" d="M61.41 51.733c-1.33 2.894-6.368 5.226-6.368 5.226L64.037 76.5s2.446-.524 4.273-.231c1.827.291 1.347 4.233 1.347 4.233h-7.89l-17.381-23.79s5.7-3.96 4.45-6.45"/><path fill="#738cb5" fill-rule="nonzero" d="M66.4 77.49c-.007-.008.094.16.18.406.051.12.083.27.13.424.026.162.067.328.076.5 0 .173.028.342-.004.5-.028.158-.022.306-.072.424l-.13.394.054-.406c.026-.118-.006-.264-.007-.412.004-.15-.055-.305-.082-.458-.037-.153-.104-.299-.153-.435-.07-.132-.12-.258-.186-.354-.117-.204-.211-.304-.215-.314zM68.21 77.236l.04.15c.028.102.059.245.083.413.06.337.081.794.04 1.243-.046.222-.049.449-.129.648-.076.196-.113.39-.204.531l-.282.473.211-.502c.068-.146.077-.343.124-.536.05-.194.02-.414.036-.623a4.6 4.6 0 0 0-.322-1.493c-.03-.08-.056-.133-.056-.134z"/><path fill="#d9e2f3" fill-rule="nonzero" d="M6.097 27.44s22.237.368 24.55 14.072c2.36 11.604-12.513 13.708-12.513 13.708l10.788 10.063s4.285 3.72-.655 6.023l-14.6-17.24s4.832-4.17 3.046-8.244c-.904-2.063-3.517-7.093-3.517-7.093"/><path fill="none" stroke="#738cb5" stroke-width=".5" d="M6.097 27.44s22.237.368 24.55 14.072c2.36 11.604-12.513 13.708-12.513 13.708l10.788 10.063s4.285 3.72-.655 6.023l-14.6-17.24s3.792-3.35 3.394-6.675c-.392-3.268-3.92-9.382-3.92-9.382"/><path fill="#fffef9" fill-rule="nonzero" d="M66.157 30.789s-6.241-4.412-11.665-13.147c-5.425-8.736-3.638-15.04-3.068-16.628 0 0 15.622 9.105 16.454 28.238"/><path fill="none" stroke="#738cb5" stroke-width=".5" d="M66.157 30.789s-6.241-4.412-11.665-13.147c-5.425-8.736-3.638-15.04-3.068-16.628 0 0 15.622 9.105 16.454 28.238"/><path fill="#fffef9" fill-rule="nonzero" d="M5.09 29.95c.045-.195-4.758-2.687-.868-6.605 3.744-3.77 7.201 1.611 7.201 1.611"/><path fill="none" stroke="#738cb5" stroke-width=".5" d="M5.09 29.95c.045-.195-4.758-2.687-.868-6.605 3.744-3.77 7.201 1.611 7.201 1.611"/><path fill="#fffef9" fill-rule="nonzero" d="M43.684 31.556c6.95 6.23 11.133 5.922 11.133 5.922s3.104.664 2.21-5.375c-.347-2.34 4.529-5.828 9.46-4.875 3.205.62 6.558 1.272 7.928 2.726.498.529.33 1.43.498 2.408.291 1.705 2.876 2.108 4.728 3.276 2.518 1.589-2.039 5.016-2.039 5.016s-3.29.968-4.884 1.4c-.43.118-2.072.905-3.957.822-1.549-.069-2.532-.372-2.532-.372S61.71 60.738 48.687 60.038c-14.502-.78-14.278-14.341-24.166-19.33-3.343-1.686-16.34-.151-19.555-6.15-5.036-9.398 15.392-14.026 20.96-13.493 4.281.41 6.57.462 17.758 10.491"/><path fill="#d9e2f3" fill-rule="nonzero" d="m66.23 42.504-.794-.328C49.087 74.255 30.19 36.79 22.129 38.75c.124.187-.558 1.246-.558 1.246s4.174 1.27 6.43 3.349c6.553 6.034 6.532 13.24 17.567 16.377 16.518 2.81 20.661-17.218 20.661-17.218"/><path fill="none" stroke="#738cb5" stroke-width=".5" d="M62.846 39.935c.438.442 1.778 2.272 3.866 2.706 2.963.615 4.117-.093 6.694-.777 3.103-.825 4.036-1.072 4.405-1.323 1.364-.934 1.796-4.908 1.796-4.908s-2.286-.801-3.702-1.905c-1.86-1.45-.784-3.082-1.524-3.778-.566-.533-4.658-2.024-5.886-2.319-2.761-.665-5.266-.87-6.972-.108-1.99.888-5.06 1.97-4.488 6.096.852 6.152-4.88 3.104-4.88 3.104s-4.47-1.335-11.705-7.89c-7.235-6.556-11.254-8.042-17.29-7.802-6.036.239-20.15 4.235-18.908 11.584 1.243 7.348 14.165 6.809 18.561 7.541s8.78 7.32 11.48 11.522c2.699 4.201 14.051 14.398 25.554 3.584 0 0 5.117-5.475 6.349-12.763"/><path fill="#0f233a" fill-rule="nonzero" d="M79.25 38.009s-.39-.706-1.08-1.157c-.688-.45-.98-.72-.623-1.177.287-.368 1.386.02 1.386.02l.572.2z"/><path fill="#d9e2f3" fill-rule="nonzero" d="M67.703 31.695s2.537-1.306 3.919-.076c1.381 1.231 1.307 2.81 1.307 2.81s-1.45 1.115-2.995.14c-1.545-.973-2.23-2.874-2.23-2.874"/><path fill="#0f233a" fill-rule="nonzero" d="M71.357 31.422s-1.22-.204-1.657 1.51c-.423 1.656.801 1.91.801 1.91s1.11.434 1.62-1.087c.466-1.39-.13-2.052-.764-2.333"/><path fill="none" stroke="#0f233a" stroke-width=".5" d="M67.703 31.695s2.537-1.306 3.919-.076c1.381 1.231 1.307 2.81 1.307 2.81s-1.45 1.115-2.995.14c-1.545-.973-2.23-2.874-2.23-2.874Z"/><path fill="#fffef9" fill-rule="nonzero" d="M62.29 31.428s-6.858-3.837-13.556-12.342c-6.7-8.504-5.878-15.387-5.552-17.135 0 0 16.87 7.564 20.583 27.632"/><path fill="#d9e2f3" fill-rule="nonzero" d="M61.502 29.211S44.974 17.55 44.682 4.841c0 0 16.634 11.636 16.82 24.37"/><path fill="none" stroke="#738cb5" stroke-width=".5" d="M62.29 31.428s-6.858-3.837-13.556-12.342c-6.7-8.504-5.878-15.387-5.552-17.135 0 0 16.87 7.564 20.583 27.632"/><path fill="#fffef9" fill-rule="nonzero" d="M54.676 51.733c-1.552 3.225-6.37 5.226-6.37 5.226L57.303 76.5s2.763-.528 4.572-.143c1.067.227 1.075 3.864 1.075 3.864l-7.917.28-17.38-23.788s5.7-3.96 4.449-6.45"/><path fill="none" stroke="#738cb5" stroke-width=".5" d="M54.676 51.733c-1.332 2.894-6.37 5.226-6.37 5.226L57.303 76.5s2.447-.524 4.274-.231c1.826.291 1.347 4.233 1.347 4.233h-7.891l-17.38-23.79s5.7-3.96 4.449-6.45"/><path fill="#738cb5" fill-rule="nonzero" d="M59.666 77.49c-.008-.008.093.16.178.406.053.12.084.27.13.424.027.162.068.328.077.5 0 .173.029.342-.004.5-.028.158-.022.306-.072.424l-.13.394.054-.406c.026-.118-.006-.264-.007-.412.004-.15-.055-.305-.082-.458-.037-.153-.104-.299-.153-.435-.07-.132-.12-.258-.186-.354-.117-.204-.211-.304-.214-.314zM61.476 77.236l.04.15c.027.102.058.245.082.413.06.337.081.794.04 1.243-.046.222-.049.449-.129.648-.076.196-.113.39-.203.531l-.283.473.211-.502c.068-.146.078-.343.124-.536.05-.194.02-.414.036-.623a4.6 4.6 0 0 0-.322-1.493c-.029-.08-.056-.133-.056-.134z"/><path fill="#fffef9" fill-rule="nonzero" d="M10.964 27.794s14.535-.034 12.194 13.664c-1.602 11.733-19.001 8.755-19.001 8.755l6.861 13.06s2.818 4.926-2.606 5.47L.32 47.649s7.848-2.964 6.62-6.173c-.804-2.103-2.403-7.778-2.403-7.778"/><path fill="none" stroke="#738cb5" stroke-width=".5" d="M13.142 27.44s11.649 2.902 10.015 14.018c-1.601 11.733-19 8.755-19 8.755l6.86 13.06s2.818 4.925-2.605 5.47L.322 47.649s7.967-2.6 6.74-5.81c-.806-2.103-2.603-8.372-2.603-8.372"/><path fill="#738cb5" fill-rule="nonzero" d="M8.035 67.491s.178-.032.454-.13c.27-.095.623-.261.901-.516.139-.128.253-.28.319-.445.069-.162.095-.334.084-.48-.006-.296-.11-.484-.095-.486l.056.126c.04.08.09.198.116.352.033.15.036.341-.014.537-.046.196-.15.392-.284.56-.271.339-.634.579-.913.729-.276.15-.488.224-.488.224z"/></g></svg>