<svg xmlns="http://www.w3.org/2000/svg" width="127.564" height="105.963" viewBox="0.1 -0.98 127.564 105.963"><path fill="#b2b2b2" stroke="#b2b2b2" stroke-width="1.629" d="M63.882 76.225c17.303 0 32.982 1.552 44.336 4.058 11.353 2.507 18.38 5.969 18.38 9.789s-7.027 7.282-18.38 9.789c-11.354 2.506-27.033 4.057-44.336 4.057-17.304 0-32.983-1.551-44.336-4.057S1.165 93.892 1.165 90.07s7.027-7.28 18.38-9.788c11.354-2.506 27.033-4.058 44.337-4.058Z"/><g stroke-linecap="round"><path fill="#600" stroke="#703d00" stroke-width="2.13" d="M62.5 39.749c11.55 0 20.124 2.9 29.596 7.887 4.501 2.375 8.425 7.021 11.292 12.7 2.258 4.48 3.922 10.225 3.666 15.57-.49 6.013.465 14.363-5.702 15.44-24.663 4.309-49.787 4.138-74.527-.762-6.185-1.225-4.851-10.307-5.702-15.886-.614-4.527-.943-9.984.652-13.916 2.51-6.066 6.59-10.619 11.13-13.146 9.417-5.215 18.045-7.888 29.595-7.888Z"/><path fill="#ff99e5" stroke="#ff00bf" stroke-width="1.653" d="M63.312 39.137c9.896-.31 19.825-.138 29.526 1.34 5.6 1.161 13.055 1.535 15.883 6.494 3.674 6.431.894 14.594.407 22.414-.213 2.082-.955 6.315-2.85 5.698-4.304-2.003-5.8-11.12-10.141-12.569-2.25-.748-.357 6.439-2.933 7.793-3.502 1.821-9.81-3.828-11.77-.88-2.22 3.347 4.344 8.82 2.933 12.987-.695 2.705-6 4.397-7.575 2.179-3-4.231.44-11.056-2.118-15.585-1.343-2.384-5.58-2.493-7.574-.88-3.748 3.043-3.314 9.75-7.127 12.569-2.04 1.505-5.28.452-7.168-.88-4.773-4.15-5.968-13.566-11.77-14.705-4.377-.866-6.696 10.854-9.692 9.51-3.386-1.535.418-14.997-2.525-16.004-2.764-.92-6.022 13.492-8.471 12.82-2.804-.857-2.266-10.785-2.036-15.878.187-4.182-.972-10.831 2.85-12.234 13.298-4.849 28.061-3.748 42.151-4.19Z"/><path fill="none" stroke="#9b4976" stroke-width="1.625" d="m41.69 48.704 4.194-.814M55.129 58.804h5.05M88.36 54.202v-3.787M71.949 42.84l4.235 2.525M103.103 61.777v-4.643M95.529 47.442h3.38M29.472 53.754l3.788-3.787"/><path fill="none" stroke="#fff" stroke-width="1.625" d="m34.115 58.804 3.34-.814M53.46 42.84l3.38 2.932M55.577 71.877l3.34-2.973M73.211 64.302l3.38 2.525M83.759 67.234l.407-2.525ZM84.573 44.102h3.788M95.121 56.727l3.34-.855M24.83 47.89l4.642-1.71M36.192 44.102l1.262 2.933ZM71.949 54.202l.448 2.077Z"/><path fill="none" stroke="#6148a4" stroke-width="1.625" d="m45.03 59.66 2.524-5.458M62.297 41.985h5.05M64.822 65.117l5.05-1.67M79.523 57.134l4.643 1.67M34.522 65.972l4.195-1.67M24.015 52.492v3.38M44.215 41.577l3.787-.407M108.153 58.804v4.643M79.971 50.822h3.788M79.116 41.17h2.525Z"/></g><path fill="#fff" d="M34.078 48.42c.421-.416.984-.83 1.57-.83.66-.002 1.293.256 1.73.488a7085 7085 0 0 0-.28-31.176c-.414-.397-.836-.939-1.244-.958-.638-.027-1.406.108-2.009 1.145.094 8.966.17 19.838.233 31.331"/><path fill="#42b5e8" d="M33.54 30.397c.044.675.013 1.423.017 1.95.01 1.068-.237 2.158-.067 3.223l.075.003c.564.014 1.148.02 1.736.018.805-.004 1.471-.02 2.15-.044-.02-1.562.395-3.494.185-5.17-.542-.005-1.325-.011-2.144-.01-.726.002-1.427.016-1.952.03M33.74 20.797c.043.675.013 1.423.017 1.95.01 1.068-.237 2.159-.067 3.223l.076.003c.563.014 1.147.02 1.735.018.805-.004 1.471-.02 2.15-.044-.02-1.562.394-3.494.185-5.17-.542-.005-1.325-.011-2.144-.01-.726.002-1.427.016-1.952.03M33.39 40.797c.044.675.013 1.423.017 1.95.01 1.068-.237 2.159-.067 3.223l.075.003c.564.014 1.148.02 1.736.018.805-.004 1.471-.02 2.15-.044-.02-1.562.395-3.495.185-5.17-.542-.005-1.325-.011-2.144-.01-.726.002-1.427.016-1.952.03"/><path fill="#231f20" d="M38.329 16.411c.181.086.208.188.145.277-.511 9.527-.218 21.648-.617 31.13 0 .011-.007.019-.01.028v.017c-.092.485-1.75.501-2.358.505-.803.004-2.377-.07-2.69-.602-.004-.005-.002-.013-.003-.02-.013-.015-.03-.03-.031-.046-.211-5.53-.435-11.027-.41-16.534.019-4.022-.017-10.59.171-14.61.011-.224.286-.346.585-.37.53-.208 1.536-.256 2.002-.268 1.102-.027 2.38.098 3.216.493m-4.456.23c-.08 1.5-.135 3.07-.173 4.685-.198 8.502.102 18.303.06 26.234a9 9 0 0 0 1.732.202c.475.008.945-.031 1.4-.108q.03-.007.06-.015c.155-5.405-.024-10.939.002-16.357.012-2.673 0-6.471.048-9.899.023-1.727.061-3.36.125-4.708-.607-.157-1.375-.178-2.014-.176-.407.003-.828.084-1.24.143"/><path fill="#ff9400" stroke="#ff9400" stroke-linecap="round" stroke-width="2.063" d="M34.887 3.01c.017-.262-.248-.704.117 0 1.483 2.83 3.172 5.761 4.101 8.778.249.798-.174 1.724-.703 2.52-.526.694-1.169 1.762-2.343 1.783-1.233.02-2.18-1.044-2.636-1.87-.745-1.03-.999-2.27-.762-3.389.307-1.454 1.714-2.813 2.109-4.129.363-1.205.06-2.659.117-3.694Z"/><path fill="#ff9" d="M35.522 12.15c.12-.134.129-.206.203-.122.32.607.655 1.228.733 1.768.052.373-.19.736-.286 1.1-.11.437.068 1.446-.243 1.483-.349-.037-.877-1.016-1.139-1.484-.193-.342-.368-.728-.287-1.1.126-.534.593-1.143 1.019-1.646"/><path fill="#fff" d="M50.572 46.72c-.421-.416-.985-.83-1.57-.83-.66-.002-1.293.256-1.73.489.075-10.75.166-21.195.28-31.177.414-.397.836-.939 1.244-.958.638-.027 1.406.108 2.009 1.145a6537 6537 0 0 0-.233 31.331"/><path fill="#42b5e8" d="M51.16 28.647c-.043.675-.013 1.423-.017 1.95-.01 1.068.237 2.158.067 3.223l-.075.003c-.564.014-1.148.02-1.735.018a67 67 0 0 1-2.15-.044c.019-1.562-.395-3.494-.186-5.17.542-.005 1.325-.011 2.144-.01.726.002 1.427.016 1.952.03M50.91 19.197c-.043.675-.013 1.423-.017 1.95-.01 1.068.237 2.159.067 3.223l-.075.003c-.564.014-1.148.02-1.735.018a67 67 0 0 1-2.15-.044c.019-1.562-.395-3.495-.186-5.17.542-.005 1.325-.011 2.144-.01.726.002 1.427.016 1.952.03M51.16 39.047c-.043.675-.013 1.423-.017 1.95-.01 1.068.237 2.159.067 3.223l-.075.003c-.564.014-1.148.02-1.735.018a67 67 0 0 1-2.15-.044c.019-1.562-.395-3.495-.186-5.17.542-.005 1.325-.011 2.144-.01.726.002 1.427.016 1.952.03"/><path fill="#231f20" d="M52.079 14.761c.181.086.208.188.145.277-.511 9.527-.218 21.648-.617 31.13 0 .011-.007.019-.01.028v.017c-.092.485-1.75.501-2.358.505-.803.004-2.377-.07-2.69-.602-.004-.005-.002-.013-.003-.02-.013-.015-.03-.03-.031-.046-.211-5.53-.435-11.027-.41-16.534.019-4.022-.017-10.59.171-14.61.011-.224.286-.346.585-.37.53-.208 1.536-.256 2.002-.268 1.102-.027 2.38.098 3.216.493m-4.456.23c-.08 1.5-.135 3.07-.173 4.685-.198 8.502.102 18.303.06 26.234a9 9 0 0 0 1.732.202c.475.008.945-.031 1.4-.108q.03-.007.06-.015c.155-5.405-.024-10.939.002-16.357.012-2.673 0-6.471.048-9.899.023-1.727.061-3.36.125-4.708-.607-.157-1.375-.178-2.014-.176-.407.003-.828.083-1.24.143"/><path fill="#ff9400" d="M49.91 1.162c-.017-.268.255-.722-.12 0-1.523 2.909-3.26 5.921-4.215 9.022-.255.82.18 1.77.723 2.59.54.712 1.202 1.81 2.408 1.83 1.267.022 2.24-1.072 2.71-1.92.764-1.058 1.025-2.332.782-3.483-.316-1.494-1.762-2.89-2.167-4.243-.374-1.238-.062-2.732-.12-3.796"/><path fill="#ff9" d="M49.179 10.5c-.12-.134-.13-.206-.204-.122-.32.607-.655 1.228-.733 1.768-.052.373.19.736.287 1.1.109.437-.069 1.446.242 1.483.349-.037.877-1.015 1.139-1.484.193-.342.368-.728.287-1.1-.126-.534-.593-1.143-1.019-1.646"/><path fill="#fff" d="M62.328 46.07c.421-.416.984-.83 1.57-.83.66-.002 1.293.256 1.73.488a7085 7085 0 0 0-.28-31.176c-.414-.397-.836-.939-1.244-.958-.638-.027-1.406.108-2.009 1.145.094 8.966.17 19.838.233 31.331"/><path fill="#42b5e8" d="M61.79 28.047c.044.675.013 1.423.017 1.95.01 1.068-.237 2.159-.067 3.223l.075.003c.564.014 1.148.02 1.736.018.805-.004 1.471-.02 2.15-.044-.02-1.563.395-3.495.185-5.17-.542-.005-1.325-.011-2.144-.01-.726.002-1.427.016-1.952.03M62.04 18.447c.044.675.013 1.423.017 1.95.01 1.068-.237 2.159-.067 3.223l.075.003c.564.014 1.148.02 1.736.018.805-.004 1.471-.02 2.15-.044-.02-1.562.395-3.495.185-5.17-.542-.005-1.325-.011-2.144-.01-.726.002-1.427.016-1.952.03M61.74 38.447c.043.675.013 1.423.017 1.95.01 1.068-.237 2.159-.067 3.223l.076.003c.563.014 1.147.02 1.735.018.805-.004 1.471-.02 2.15-.044-.02-1.562.395-3.495.185-5.17-.542-.005-1.325-.011-2.144-.01-.726.002-1.427.016-1.952.03"/><path fill="#231f20" d="M66.679 14.061c.181.086.208.188.145.277-.511 9.527-.218 21.648-.617 31.13 0 .011-.007.019-.01.028v.017c-.092.485-1.75.501-2.358.505-.803.004-2.377-.07-2.69-.602-.004-.005-.002-.013-.003-.02-.013-.015-.03-.03-.031-.046-.211-5.53-.435-11.027-.41-16.534.019-4.022-.017-10.59.171-14.61.012-.224.286-.346.585-.37.53-.208 1.536-.256 2.002-.268 1.102-.027 2.38.098 3.216.493m-4.457.23c-.079 1.5-.134 3.07-.172 4.685-.198 8.502.102 18.303.06 26.234a9 9 0 0 0 1.732.202c.475.008.945-.031 1.4-.108q.03-.007.06-.015c.155-5.405-.024-10.939.002-16.357.012-2.673 0-6.471.048-9.899.023-1.727.061-3.36.125-4.708-.607-.156-1.375-.178-2.014-.176-.407.003-.828.084-1.24.143"/><path fill="#ff9400" d="M63.087.485c.017-.276-.262-.743.124 0 1.564 2.988 3.348 6.083 4.33 9.268.261.842-.185 1.82-.743 2.661-.555.732-1.234 1.86-2.474 1.881-1.301.022-2.302-1.102-2.783-1.973-.786-1.087-1.054-2.396-.804-3.578.324-1.536 1.81-2.97 2.226-4.36.384-1.272.063-2.806.124-3.9"/><path fill="#ff9" d="M63.722 9.9c.12-.134.129-.206.203-.122.32.607.655 1.228.733 1.768.052.373-.19.736-.287 1.1-.109.437.069 1.446-.242 1.483-.349-.037-.877-1.015-1.139-1.484-.193-.342-.368-.728-.287-1.1.126-.534.592-1.143 1.018-1.646"/><path fill="#fff" d="M77.278 47.12c.421-.416.984-.83 1.57-.83.66-.002 1.293.256 1.73.489a7085 7085 0 0 0-.28-31.177c-.414-.397-.836-.939-1.244-.958-.638-.027-1.406.108-2.009 1.145.094 8.966.17 19.838.233 31.331"/><path fill="#42b5e8" d="M76.64 29.047c.043.675.013 1.423.017 1.95.01 1.068-.237 2.159-.067 3.223l.075.003c.564.014 1.147.02 1.735.018.806-.004 1.472-.02 2.15-.044-.019-1.562.395-3.495.186-5.17-.542-.005-1.325-.011-2.144-.01-.726.002-1.427.016-1.952.03M76.89 19.547c.043.675.013 1.423.017 1.95.01 1.068-.237 2.159-.067 3.223l.075.003c.564.014 1.147.02 1.735.018.806-.004 1.472-.02 2.15-.044-.019-1.562.395-3.494.186-5.17-.542-.005-1.325-.011-2.144-.01-.726.002-1.427.016-1.952.03M76.64 39.447c.043.675.013 1.423.017 1.95.01 1.068-.237 2.159-.067 3.223l.075.003c.564.014 1.147.02 1.735.018.806-.004 1.472-.02 2.15-.044-.019-1.562.395-3.495.186-5.17-.542-.005-1.325-.011-2.144-.01-.726.002-1.427.016-1.952.03"/><path fill="#231f20" d="M81.579 15.161c.181.086.208.188.145.277-.511 9.527-.218 21.648-.617 31.13 0 .011-.007.019-.01.028v.017c-.092.485-1.75.501-2.358.505-.803.004-2.377-.07-2.69-.602-.004-.005-.002-.013-.003-.02-.013-.015-.03-.03-.031-.046-.211-5.53-.435-11.027-.41-16.534.019-4.022-.017-10.59.171-14.61.011-.224.286-.346.585-.37.53-.208 1.536-.256 2.002-.268 1.102-.027 2.38.098 3.216.493m-4.456.23c-.08 1.5-.135 3.07-.173 4.685-.198 8.502.102 18.303.06 26.234a9 9 0 0 0 1.732.202c.475.008.945-.031 1.4-.108q.03-.007.06-.015c.155-5.405-.024-10.939.002-16.357.012-2.673 0-6.471.048-9.899.023-1.727.061-3.36.125-4.708-.607-.157-1.375-.178-2.014-.176-.407.003-.828.083-1.24.143"/><path fill="#ff9400" d="M77.798 2.314c.016-.26-.248-.701.117 0 1.478 2.824 3.164 5.748 4.09 8.758.249.796-.173 1.72-.7 2.515-.525.69-1.167 1.756-2.338 1.777-1.23.02-2.175-1.041-2.63-1.864-.743-1.028-.996-2.265-.76-3.382.306-1.45 1.71-2.806 2.104-4.119.362-1.202.06-2.652.117-3.685"/><path fill="#ff9" d="M78.572 10.9c.12-.134.129-.206.203-.122.32.607.655 1.228.733 1.768.052.373-.19.736-.286 1.1-.11.437.068 1.446-.243 1.483-.349-.037-.877-1.015-1.139-1.484-.193-.342-.368-.728-.287-1.1.126-.534.593-1.143 1.019-1.646"/><path fill="#fff" d="M93.822 48.22c-.421-.416-.984-.83-1.57-.83-.66-.002-1.293.256-1.73.489.075-10.75.166-21.195.28-31.177.414-.397.836-.939 1.244-.958.638-.027 1.406.108 2.009 1.145a6537 6537 0 0 0-.233 31.331"/><path fill="#42b5e8" d="M94.36 30.197c-.043.675-.013 1.423-.017 1.95-.01 1.068.237 2.159.067 3.223l-.075.003c-.564.014-1.147.02-1.735.018a67 67 0 0 1-2.15-.044c.019-1.562-.395-3.495-.186-5.17.542-.005 1.325-.011 2.144-.01.726.002 1.427.016 1.952.03M94.11 20.647c-.043.675-.013 1.423-.017 1.95-.01 1.068.237 2.159.067 3.223l-.075.003c-.564.014-1.147.02-1.735.018a67 67 0 0 1-2.15-.044c.019-1.562-.395-3.495-.186-5.17.542-.005 1.325-.011 2.144-.01.726.002 1.427.016 1.952.03M94.51 40.547c-.044.675-.013 1.423-.017 1.95-.01 1.068.237 2.159.067 3.223l-.076.003c-.563.014-1.146.02-1.734.018a67 67 0 0 1-2.15-.044c.019-1.562-.395-3.495-.186-5.17.542-.005 1.325-.011 2.144-.01.726.002 1.427.016 1.952.03"/><path fill="#231f20" d="M95.329 16.261c.181.086.208.188.145.277-.511 9.527-.218 21.648-.617 31.13 0 .011-.007.019-.01.028v.017c-.092.485-1.75.501-2.358.505-.803.004-2.377-.07-2.69-.602-.004-.005-.002-.013-.003-.02-.013-.015-.03-.03-.031-.046-.211-5.53-.435-11.027-.41-16.534.019-4.022-.017-10.59.171-14.61.011-.224.286-.346.585-.37.53-.208 1.536-.256 2.002-.268 1.102-.027 2.38.098 3.216.493m-4.456.23c-.08 1.5-.135 3.07-.173 4.685-.198 8.502.102 18.303.06 26.234a9 9 0 0 0 1.732.202c.475.008.945-.031 1.4-.108q.03-.007.06-.015c.155-5.405-.024-10.939.002-16.357.012-2.673 0-6.471.048-9.899.023-1.727.061-3.36.125-4.708-.607-.156-1.375-.178-2.014-.176-.407.003-.828.084-1.24.142"/><path fill="#ff9400" d="M91.881 3.489c.017-.26-.247-.702.117 0 1.479 2.822 3.164 5.746 4.09 8.755.248.796-.174 1.72-.7 2.514-.525.691-1.167 1.757-2.338 1.778-1.23.02-2.175-1.042-2.63-1.864-.742-1.028-.995-2.265-.759-3.381.306-1.45 1.71-2.806 2.103-4.118.363-1.202.06-2.652.117-3.684"/><path fill="#ff9" d="M92.572 11.9c.12-.134.129-.206.203-.122.32.607.655 1.228.733 1.768.052.373-.19.736-.286 1.1-.11.437.068 1.446-.243 1.483-.349-.037-.877-1.016-1.139-1.484-.193-.342-.368-.728-.287-1.1.126-.534.593-1.143 1.019-1.646"/></svg>