<svg xmlns="http://www.w3.org/2000/svg" xmlns:xlink="http://www.w3.org/1999/xlink" xml:space="preserve" width="480.24" height="360" viewBox="0 0 480.24 360"><defs><path id="a" d="M0 0h480.24v360H0z"/></defs><clipPath id="b"><use xlink:href="#a" overflow="visible"/></clipPath><g fill="#cbc39d" fill-rule="evenodd" clip-path="url(#b)" clip-rule="evenodd"><path d="M235.885-162.485h-8.66l11.908 336.736zM206.057-160.829l-8.629.754 41.215 334.418zM176.485-156.581l-8.53 1.504 70.203 329.555zM147.396-149.771l-8.367 2.241 98.66 322.185zM119.01-140.452l-8.139 2.963 126.367 312.361zM91.545-128.694l-7.85 3.66 153.114 300.16zM65.209-114.587l-7.501 4.33L236.4 175.417zM40.204-98.239l-7.096 4.968 202.913 269.016zM16.717-79.772l-6.635 5.568L235.67 176.103zM-5.07-59.329l-6.125 6.125 246.547 229.693zM-24.993-37.065l-5.568 6.636 265.629 207.332zM-42.9-13.149l-4.969 7.095 282.693 183.395zM-58.654 12.237l-4.331 7.502 297.602 158.057zM-72.136 38.899l-3.661 7.852 310.248 131.518zM-83.243 66.636l-2.962 8.14 320.531 103.979zM-91.89 95.235l-2.242 8.368 328.376 75.646zM-98.011 124.478l-1.504 8.531 333.722 46.74zM-101.561 154.146l-.755 8.628 336.527 17.475zM-102.511 184.009l.001 8.662 336.772-11.924zM-100.855 213.841l.755 8.629 334.454-41.231zM-96.605 243.415l1.505 8.531 329.588-70.222zM-89.793 272.507l2.243 8.369 322.214-98.686zM-80.472 300.896l2.963 8.138 312.39-126.39zM-68.712 328.362l3.662 7.852 300.187-153.139zM-54.603 354.7l4.332 7.504 285.699-178.723zM-38.251 379.71l4.968 7.096 269.039-202.944zM-19.783 403.198l5.57 6.635 250.326-225.621zM.663 424.987l6.127 6.125L236.5 184.53zM22.931 444.911l6.637 5.568 207.346-265.666zM46.85 462.819l7.098 4.969L237.352 185.06zM72.24 478.573l7.503 4.332 158.066-297.64zM98.905 492.058l7.853 3.66 131.521-310.285zM126.645 503.163l8.142 2.963 103.979-320.57zM155.248 511.812l8.369 2.24 75.643-328.414zM184.496 517.933l8.532 1.504 46.732-333.762zM222.797 522.235l17.465-336.564-26.096 335.808zM244.031 522.431l8.664-.002-11.937-336.807zM273.867 520.772l8.631-.755-41.246-334.489zM303.445 516.521l8.532-1.504-70.243-329.623zM332.541 509.708l8.367-2.244-98.705-322.246zM360.932 500.384l8.14-2.963-126.418-312.42zM388.4 488.622l7.852-3.662-153.166-300.215zM414.742 474.511l7.502-4.334-178.752-285.725zM439.752 458.157l7.096-4.97-202.975-269.061zM463.242 439.685l6.637-5.571-225.656-250.345zM485.033 419.235l6.125-6.127-246.617-229.726zM504.959 396.966l5.568-6.639-265.703-207.359zM522.867 373.042l4.969-7.098L245.07 182.53zM538.623 347.649l4.332-7.503-297.678-158.071zM552.107 320.981l3.661-7.853-310.325-131.525zM563.213 293.237l2.963-8.142-320.61-103.979zM571.861 264.632l2.241-8.369-328.454-75.641zM577.982 235.38l1.502-8.531-333.796-46.727zM581.529 205.708l.754-8.633-336.601-17.455zM582.479 175.837l-.002-8.664-336.844 11.949zM580.82 145.999l-.756-8.633-334.523 41.264zM576.566 116.417l-1.505-8.531-329.657 70.261zM569.752 87.319l-2.244-8.369-322.279 98.729zM560.426 58.927l-2.965-8.143-312.449 126.442zM548.662 31.454l-3.664-7.853-300.242 153.195zM534.547 5.11l-4.332-7.502-285.75 178.78zM518.191-19.901l-4.97-7.098-269.084 203.008zM499.717-43.394l-5.572-6.636-250.366 225.687zM479.264-65.187l-6.127-6.126-229.744 246.652zM456.99-85.112l-6.638-5.571-207.373 265.739zM433.064-103.024l-7.099-4.969-183.422 282.805zM407.668-118.78l-7.504-4.332-158.078 297.715zM380.996-132.263l-7.853-3.662-131.53 310.363zM353.25-143.37l-8.145-2.963-103.978 320.646zM316.27-154.259l-75.637 328.49 84.008-326.25zM295.387-158.138l-8.535-1.504-46.719 333.836zM257.076-162.44 239.631 174.2l26.078-335.887z"/></g></svg>