<svg xmlns="http://www.w3.org/2000/svg" xml:space="preserve" width="800" height="800" viewBox="0 0 512.006 512.006"><path d="M298.617 188.868c-12.815-67.956-52.258-107.966-118.242-135.144-9.13-3.761-17.146 7.132-10.902 14.781 19.864 24.333 31.253 55.742 29.885 89.596-.417 10.342-1.991 20.055-4.591 29.105v56.863h103.85z" style="fill:#3cc247"/><path d="M295.152 173.626a191 191 0 0 0-21.645 7.601c-5.264 2.212-11.152-.999-12.43-6.564l-.026-.115c-12.615-54.511-43.66-90.139-93.08-115.59-1.205 2.945-.984 6.501 1.501 9.546 19.864 24.333 31.253 55.742 29.885 89.596-.417 10.342-1.991 20.055-4.591 29.105v51.368h35.538v5.495h68.315v-55.2a212 212 0 0 0-3.467-15.242" style="fill:#2da85f"/><path d="M337.197 290.676v137.379H249.01V216.649c57.427-44.505 133.843-51.887 197.498-22.957 9.978 4.534 7.356 19.348-3.569 20.216-28.045 2.229-55.535 13.727-77.512 34.624-13.434 12.773-22.722 27.074-28.23 42.144" style="fill:#fc4c59"/><path d="M331.155 216.983c-5.781 2.665-11.617 5.855-17.189 9.522-11.387 7.493-26.516 5.156-35.592-5.014a157.5 157.5 0 0 0-15.149-14.829c-4.846 3.099-9.599 6.411-14.216 9.989v199.5h29.721v11.905h58.467V290.675c5.508-15.069 14.796-29.37 28.23-42.142 21.977-20.896 49.467-32.393 77.512-34.624 4.552-.362 7.657-3.148 9.014-6.6-42.637-12.782-84.232-7.177-120.798 9.674" style="fill:#e83a64"/><path d="M303.908 308.183c-8.313-40.515-31.947-77.752-69.169-102.029-56.886-37.102-128.331-33.626-180.591 3.01-7.676 5.381-3.07 17.463 6.255 16.498 23.123-2.391 47.185 2.736 68.287 16.243 18.575 11.89 30.757 27.649 37.056 45.315l2.14 26.137v114.697h136.023z" style="fill:#fd4dd7"/><path d="M296.76 283.479a153.8 153.8 0 0 0-36.802 32.695c-3.009 3.693-8.268 4.624-12.387 2.23a9.7 9.7 0 0 1-4.669-6.652c-4.996-27.605-19.072-53.704-40.059-75.778-38.866-40.88-104.093-37.533-152.093-16.616 1.232 3.778 4.801 6.807 9.65 6.305 23.123-2.391 47.185 2.736 68.287 16.243 18.575 11.89 30.756 27.65 37.056 45.315l2.14 26.137v114.697h136.023V308.183a163 163 0 0 0-7.146-24.704" style="fill:#e846aa"/><path d="M155.237 428.055h100.385v-22.772c0-65.705-52.54-120.128-118.243-120.689-47.244-.402-88.204 26.664-107.879 66.191-3.987 8.008 5.295 16.265 12.769 11.348 12.418-8.166 27.28-12.918 43.253-12.918 43.542 0 69.715 35.298 69.715 78.84" style="fill:#674799"/><path d="M112.326 324.98c-30.521-.261-61.057 15.923-82.287 34.545 2.498 3.72 7.694 5.591 12.229 2.608 12.418-8.166 27.28-12.918 43.253-12.918 43.542 0 69.714 35.297 69.714 78.84h50.63c4.879-63.958-35.541-102.581-93.539-103.075" style="fill:#7c54b8"/><path d="M355.492 428.055h-100.12v-22.772c0-65.705 52.54-120.128 118.243-120.689 47.244-.402 88.204 26.664 107.879 66.191 3.987 8.008-5.295 16.265-12.769 11.348-12.418-8.166-27.28-12.918-43.253-12.918-43.542 0-69.98 35.298-69.98 78.84" style="fill:#3cc247"/><path d="M388.855 321.219c-60.298 11.886-83.624 47.505-90.391 106.836h57.028c0-43.542 26.437-78.84 69.979-78.84 15.973 0 30.837 4.752 43.253 12.918 3.652 2.401 7.732 1.654 10.488-.668-22.063-24.921-55.06-47.203-90.357-40.246" style="fill:#2da85f"/><circle cx="18.814" cy="375.14" r="18.814" style="fill:#ffdb6c"/><circle cx="32.714" cy="224.67" r="18.814" style="fill:#ffdb6c"/><path d="M32.886 205.855c5.082 3.369 8.437 9.133 8.437 15.687 0 10.39-8.423 18.814-18.814 18.814-.058 0-.115-.008-.172-.009a18.7 18.7 0 0 0 10.377 3.127c10.39 0 18.814-8.423 18.814-18.814-.001-10.333-8.331-18.712-18.642-18.805M18.985 356.322c5.082 3.369 8.437 9.133 8.437 15.686 0 10.39-8.423 18.814-18.814 18.814-.058 0-.115-.008-.172-.009a18.7 18.7 0 0 0 10.377 3.127c10.39 0 18.814-8.423 18.814-18.814-.001-10.332-8.332-18.71-18.642-18.804" style="fill:#ffb966"/><circle cx="152.851" cy="47.463" r="18.814" style="fill:#ffdb6c"/><path d="M153.033 28.645c5.082 3.369 8.437 9.133 8.437 15.687 0 10.39-8.423 18.814-18.814 18.814-.058 0-.115-.008-.172-.009a18.7 18.7 0 0 0 10.377 3.127c10.39 0 18.814-8.423 18.814-18.814-.001-10.333-8.332-18.712-18.642-18.805" style="fill:#ffb966"/><circle cx="471.547" cy="205.86" r="18.814" style="fill:#ffdb6c"/><path d="M471.716 187.051c5.082 3.369 8.437 9.133 8.437 15.687 0 10.39-8.423 18.814-18.814 18.814-.058 0-.115-.008-.172-.009a18.7 18.7 0 0 0 10.377 3.127c10.39 0 18.814-8.423 18.814-18.814 0-10.333-8.332-18.712-18.642-18.805" style="fill:#ffb966"/><circle cx="493.192" cy="374.131" r="18.814" style="fill:#ffdb6c"/><path d="M493.359 355.33c5.082 3.369 8.437 9.133 8.437 15.686 0 10.39-8.423 18.814-18.814 18.814-.058 0-.115-.008-.172-.009a18.7 18.7 0 0 0 10.377 3.127c10.39 0 18.814-8.423 18.814-18.814-.001-10.332-8.331-18.711-18.642-18.804" style="fill:#ffb966"/><path d="M363.989 426.921H146.657c-6.707 0-12.143 5.437-12.143 12.143v32.153c0 6.707 5.437 12.143 12.143 12.143H363.99c6.707 0 12.143-5.437 12.143-12.143v-32.153c-.001-6.706-5.437-12.143-12.144-12.143" style="fill:#ffdb6c"/><path d="M363.989 426.921h-35.432c6.707 0 12.143 5.437 12.143 12.143v32.153c0 6.707-5.437 12.143-12.143 12.143h35.432c6.707 0 12.143-5.437 12.143-12.143v-32.153c0-6.706-5.436-12.143-12.143-12.143" style="fill:#ffb966"/><circle cx="168.056" cy="455.143" r="8.504" style="fill:#7c54b8"/><circle cx="202.241" cy="455.143" r="8.504" style="fill:#7c54b8"/><circle cx="236.426" cy="455.143" r="8.504" style="fill:#7c54b8"/><circle cx="270.611" cy="455.143" r="8.504" style="fill:#7c54b8"/><circle cx="304.795" cy="455.143" r="8.504" style="fill:#7c54b8"/><circle cx="338.98" cy="455.143" r="8.504" style="fill:#7c54b8"/></svg>