<svg xmlns="http://www.w3.org/2000/svg" width="81.957" height="99.493" viewBox="-0.181 0.179 81.957 99.493"><path d="M50.548 15.058H24.539c-.627 1.093-.867 2.682-.245 5.949.852 4.46 1.464 8.792-3.334 13.488-9.664 9.428-6.122 21.506-7.276 23.053.132.575 8.293 5.185 8.74 5.553l34.077-8.919c1.323-.321 5.124-5.37 4.144-9.207-.433-1.702-4.639-4.404-6.4-7.741-5.039-9.551-2.614-19.715-3.697-22.176"/><path fill="#a06446" d="M47.04 25.16c.438-1.965.57-3.997 1.003-5.935 1.606-2.084 4.445-.443 4.408 1.843-.052 2.853-2.845 4.314-5.411 4.092M28.462 24.736c-.443-1.966-.575-4.002-1.008-5.94-1.606-2.079-4.446-.443-4.408 1.843.052 2.857 2.849 4.319 5.416 4.097"/><path fill="#be8264" d="m49.112 15.157-22.572-.264c-.64 8.476 1.074 19.078 11.34 19.55 5.369.231 8.331-3.814 10.163-8.34a18.2 18.2 0 0 0 1.271-6.798c.019-1.027.401-3.248-.202-4.148"/><path fill="#a06446" d="M36.99 15.425h2.086c1.065 2.226 1.164 4.342-.066 6.398a1.72 1.72 0 0 1-2.053-.679 6.9 6.9 0 0 1 .033-5.719"/><path d="M34.207 25.007s6.466-.367 7.252.536c-.471 2.363-3.414 2.795-5.142 2.042-.947-.373-1.723-1.321-2.11-2.578M33.294 18.915c1.085 1.401.878 2.061-.754 2.824-.836 0-1.167-.316-1.373-.695-.403-.757-.165-1.388.857-2.295zM44.747 21.636c.179-.811-.993-1.748.965-2.533l1.09.069c1.007.469.979 1.97 0 2.856-.841.184-1.434-.051-2.055-.392"/><path fill="#008264" d="M50.176 12.521C49.084 8.882 45.938 2.258 37.64 2.659c-9.951.472-11.985 7.948-12.343 9.862z"/><path fill="#f0e6d2" d="m44.388 7.487.239 5.657a8.6 8.6 0 0 0 2.546 0c.119-.722.175-3.253.202-5.657zM29.893 7.487l.231 5.657c.833.126 1.72.126 2.553 0 .12-.722.175-3.253.203-5.657z"/><path fill="#f01446" d="M52.526 11.381c.84.06 1.638.39 2.275.942a2.65 2.65 0 0 1 .862 1.886 3.2 3.2 0 0 1-1.008 2.895c-1.559 0-3.108.471-4.71.122-.315-.07-24.86-.254-26.098-.292a11.5 11.5 0 0 1-2.379-1.117 3 3 0 0 1-.254-.651q-.129-.92-.132-1.848a2.24 2.24 0 0 1 1.884-2.027c1.954-.311 28.105.052 29.56.09"/><path fill="#f0e6d2" d="M52.131.726 23.569.679v8.104s19.736.09 28.58 0zM50.35 6.709c-8.321-.062-16.812 0-25.091.075V2.617c7.62.146 16.813.146 25.087.099z"/><path fill="#be0a3c" d="M66.16 55.888c-.566.825-11.92 1.249-13.121.82-.4-.99.858-11.682.942-13.61.123.095 4.54 1.49 7.855 4.927 2.656 2.729 4.394 7.632 4.324 7.863"/><path fill="#f01446" d="M54.928 43.56c-2.246-1.343-8.119-3.521-8.901-3.54 0 .287-16.779-.472-19.209.702a12 12 0 0 0-4.182 3.3c-.395.472-3.687 4.738-4.483 7.303-1.554 5.035-.754 9.758-.429 10.036l20.048 9.429 23.075-6.548c-.098-.764-5.919-20.465-5.919-20.682"/><path fill="#6e1e3c" d="M50.506 40.538c-3.348-2.38-8.067-3.606-12.715-3.54-4.483.066-8.901 1.334-11.948 3.932-.07.905-4.158 26.56-4.238 27.418l35.404.283c-.033-.481-4.163-25.735-6.503-28.093"/><path fill="#a06446" d="m7.703 21.083 5.581.113c.593-.868 1.186-1.74 1.766-2.612.838-1.683.988-2.612 1.262-4.455.146-1.004.555-11.182-.471-11.206s0 6.129-2.355 5.407c-1.606-1.051-.942-6.529-1.968-6.515s-.514 5.035-1.559 6.926c-2.355 1.037-1.955-3.88-2.741-3.932s-.301 4.922-.127 8.344c.174 3.423.07 5.813.612 7.93"/><path fill="#be8264" d="M18.93 50.66c-2.713.132-5.411-.627-7.978-.702-.819-.774-1.817-8.095-2.058-9.141a46 46 0 0 1-.777-4.686 106 106 0 0 1-.649-11.018c-.085-3.988-.858-7.543 1.714-10.531 1.596-1.858 3.857-2.042 5.816-2.768s3.197-5.93 4.073-4.672c.66.943-2.034 6.351-2.317 7.991a77 77 0 0 0-.942 10.324c-.207 6.506 2.266 18.825 3.118 25.203"/><path fill="#be0a3c" d="M8.395 43.871c.829 5.95 2.553 16.444 2.642 17.311 0 .208 11.124.099 11.124.099s-2.058-10.843-3.226-17.617z"/><path fill="#be8264" d="M65.288 57.5c-.108-.037-17.401-5.275-17.664-5.28-.193.943-3.085 11.659-3.085 11.659l16.049 1.414c.194-1.15 5.313-7.566 4.7-7.793"/><path fill="#008264" d="m73.534 59.947-2.458-11.644c-2.585-.472-6.499 3.012-8.397 4.45-1.516 1.146-8.702 6.129-14.443 10.004-2.826 1.909-9.923 2.475-12.847 1.367-7.469-2.829-9.39-5.704-10.968-7.439-7.836-8.623-15.376-7.628-15.376-7.628L6.789 71.356s4.418 12.662 32.523 12.662 30.318-11.074 31.722-12.46c3.202-3.172-.405-8.193 2.5-11.611"/><path fill="#824600" d="M44.068 47.044c.033-.424-3.885-3.771-3.861-4.427-.909.378-3.768.943-4.451 1.391-.414.269-.847.509-1.271.764l-.791.471a10.8 10.8 0 0 0-1.95 1.844 13.4 13.4 0 0 0-2.826 4.544c-.565 1.414-.635 2.956-.767 4.465q-.01.472.037.942c0 .156.029.307.038.472.033.801.061 1.603.104 2.404 0 .137 1.464 2.937 1.53 3.145l9.923-5.045s4.238-10.371 4.285-10.97"/><path fill="#642800" d="M41.271 47.643c-1.719.613-4.653 3.012-5.731 4.309-1.371 1.654-1.714 3.663-1.71 5.794.099.221.217 2.988.349 3.3.212.113 5.387 3.328 5.387 3.328l8.637-12.022z"/><path fill="#a0640a" d="M38.888 43.4a2.46 2.46 0 0 1 1.319-.773c5.458.471 10.958 3.983 12.103 9.334 1.017 4.766.777 9.287-2.826 12.729-6.07 5.812-15.046 3.055-19.6-.877-.57-1.462-.702-2.211-.561-3.083a4.96 4.96 0 0 1 3.664-1.801q1.063.364 2.157.613c3.485.943 7.483.514 8.34-3.979s-5.736-7.977-4.596-12.163"/><path fill="#00a08c" d="M9.045 49.057c-.287.241-2.825.344-5.142 4.243S.955 61.262 2.188 70.187l12.273-.472S9.135 49.552 9.045 49.057"/><path fill="#f01446" d="M17.06 83.354c-.706-2.499-1.313-4.96-1.921-7.496-.179-.764-.871-2.546-1.304-4.163H2.377c.862 4.366 1.818 8.566 3.631 12.729 1.078 2.475 2.185 4.931 3.466 7.307 1.012 1.886 3.117 4.309 3.574 6.35-.287 0-2.826.179-2.826.179l-.065.684s9.39.679 10.497-.307c-.099-.858-.387-1.697-.533-2.555a123 123 0 0 0-3.061-12.728"/><path fill="#6e1e3c" d="m1.586 75.071 14.768-.378-1.38-6.128H.319zM17.428 79.762l-.537-2.99H2.231l.466 2.99zM18.52 83.779l-.537-2.99H3.323l.471 2.99z"/><path fill="#00a08c" d="M80.622 58.787c-.843-5.449-3.857-9.56-9.546-10.484-1.238 4.681-5.868 21.799-6.244 25.561l14.471-1.085c.947-4.431 2.021-9.471 1.319-13.992"/><path fill="#f01446" d="m65.058 70.271-.269.642c-2.26 9.386-4.573 18.885-7.718 27.979 2.039 0 3.329.174 4.921 0 .998-.104 2.331 0 3.489-.156 0-.259.066-.518.109-.778h-2.421c.994-2.027 3.636-3.813 5.016-5.657a144 144 0 0 0 5.293-7.585c2.858-4.38 4.709-9.353 6.056-14.463z"/><path fill="#6e1e3c" d="m79.85 75.071-16.676-.378 1.554-6.128h16.548zM61.507 79.762l.617-2.99h16.708l-.527 2.99zM60.264 83.779l.612-2.99h16.713l-.532 2.99z"/></svg>