<svg xmlns="http://www.w3.org/2000/svg" width="124.019" height="196.482" viewBox="0 0 124.019 196.482"><g fill="none" stroke-miterlimit="10" data-paper-data="{&quot;isPaintingLayer&quot;:true}" font-family="none" font-size="none" font-weight="none" style="mix-blend-mode:normal" text-anchor="none"><path fill="#ef463c" d="m119.933 91.474-1.702 3.932-4.207 3.278h-3.505l-3.406-1.382-7.512-8.708-1.703-5.962s2.103-2.868 2.204-3.53 2.704-3.157 2.704-3.157 2.304-.299 2.504 0c.2.3.801 1.498.801 1.498l.4 2.894-.3 3.094.1 2.453-.4 2.237 1.202 1.787s1.803.627 2.504.767c.7.14 3.606-.767 3.606-.767l2.804-4.024h2.204l1.702 1.365c0-.002.562 2.928 0 4.225"/><path fill="#afd7f2" d="m106.01 97.102-4.306 3.793-5.51 3.094s-5.408.2-5.708 0c-.301-.2-6.31-1.597-6.31-1.597l-5.81-3.709-3.504-3.775-2.688-3.37-.619-4.083V84.53l2.304-1.098 3.005 1.397 1.001 3.094 1.603 3.552 3.707 2.935L89.785 98l5.008-.898 3.605-1.795 3.306-3.833z"/><path fill="#30419a" d="M76.475 88.59c-.086-.21-.098-.542-.063-.768.08-.515.774-.58 1.205-.472.607.154 1.086.605 1.377 1.145.147.274.19.558.296.843.093.251.283.47.42.705 1.087 1.872 2.595 2.996 4.252 4.316 1.225.974 3.05 2.044 4.567 2.456 1.313.357 3.08.324 4.424.102 2.09-.345 3.731-1.198 5.292-2.571.449-.395.844-.787 1.25-1.221.482-.517 1.352-1.068 1.024-1.769-.357-.765-.94-1.47-1.369-2.2-.837-1.426-1.54-2.945-1.74-4.601-.423-3.504.784-6.428 3.215-8.804 1.333-1.303 3.22-1.385 4.981-.923 1.551.408 2.063 1.41 1.904 3.03-.265 2.733-.54 5.467-.74 8.206-.105 1.433 1.07 2.946 2.454 3.364 1.266.382 2.984-.488 3.928-1.886.706-1.045 1.454-2.074 2.292-3.014.986-1.107 3.296-.824 4.377.513 1.131 1.398 1.812 2.941 1.502 4.83-.478 2.92-1.567 5.539-3.55 7.77-2.26 2.545-7.698 3.213-10.474 1.28-.074-.051-.562-.512-.598-.514-.288-.016-.596.708-.777.932-1.995 2.47-5.63 3.848-8.454 5.081-2.185.954-4.493.9-6.837.707-1.37-.113-2.706-.47-3.99-.945-.607-.225-1.233-.434-1.828-.654-.62-.229-1.129-.686-1.75-.922-.799-.303-1.555-.754-2.296-1.185-.96-.558-1.92-1.2-2.79-1.882-.427-.335-.768-.791-1.206-1.085-.523-.35-.87-.882-1.359-1.272-.33-.263-.658-.492-.96-.802-.313-.321-.594-.702-.878-1.048-.634-.773-.968-1.598-1.34-2.516-.148-.365-.104-.887-.061-1.278.04-.367.027-.751.425-.798.267-.032.648.004.872.158.538.368.643 1.147.947 1.674.43.748.932 1.451 1.391 2.182.377.602.846 1.155 1.254 1.713.512-.581 1.01-1.004 1.296-1.737.2-.513.815-1.207.777-1.773-.037-.54-.783-1.4-1.057-1.874q-.513-.89-1.04-1.773c-.154-.259-.451-.437-.565-.72m24.655.323c.633.745 1.267 1.467 1.909 2.211 1.154 1.337 2.198 2.631 3.508 3.826q.1.091.197.188c.638.638 1.186 1.423 1.998 1.84 2.4 1.227 6.008.568 7.722-1.514.842-1.023 1.585-2.22 2.013-3.461.508-1.47.867-3.065-.046-4.603-.538-.908-1.165-.984-1.84-.263-.697.742-1.312 1.562-1.935 2.37-1.623 2.099-4.092 3.151-6.378 2.344-1.759-.622-3.27-1.637-3.63-3.825-.517-3.15-.082-6.202.512-9.266.254-1.305-.187-1.805-1.481-1.562a4.2 4.2 0 0 0-1.465.575c-2.53 1.645-3.174 5.517-2.492 8.222.288 1.142.636 2.005 1.408 2.918m-2.477 7.637c-.02.262.316.4.432.582.153.24.233.558.335.823.205.535.377 1.084.59 1.615.073.182.104.302.157.364.062.072.154.067.382-.009.36-.12.912-.543 1.24-.761.772-.515 1.835-1.032 2.448-1.722.752-.848-.112-2.072-.74-2.72-.252-.26-1.075-1.17-1.445-1.116-.23.035-.62.635-.762.802-.508.592-1.196.992-1.856 1.447-.168.115-.765.483-.781.695m-8.845 6.404c.746.47 2.248.298 3.087.252a17 17 0 0 0 3.053-.454c.54-.13.962-.257 1.448-.57.22-.143.551-.276.714-.491.18-.238.11-.045.126-.38a2 2 0 0 0-.009-.33c-.085-.894-.627-2.145-1.304-2.596-.797-.533-1.98.201-2.823.276-.64.056-1.273.19-1.914.228-.648.038-1.293.043-1.94.066-.151.005-.574 1.91-.62 2.085-.165.618-.487 1.492.182 1.914m-10.3-4.698c.303.794 1.728 1.353 2.413 1.729.914.502 1.851.95 2.809 1.366.712.309 1.42.796 2.215.846q.186.011.38-.012c.478-1.179.925-2.524 1.001-3.779-1.502-.064-3.14-.998-4.386-1.776-.891-.556-1.845-1.055-2.735-1.595-.38.533-.707 1.149-1.046 1.715-.19.315-.804 1.099-.65 1.506"/><path fill="#ef463c" d="m21.075 78.34 1.602 1.297 1.603 2.994-.5 4.616-1.403 3.428-4.307 4.032-2.955 2.395-3.806-.599-3.856-1.297L5.35 92.71l-.2-2.037-.601-2.854 1.202-1.937s1.101-.956 1.802-1.056 1.503 1.056 1.503 1.056l2.704 1.838 3.355 1.597h1.653l1.302-1.397V78.34c1.803-1.197 3.005 0 3.005 0"/><path fill="#afd7f2" d="m21.175 92.552 1.102 1.203 5.71 2.75h4.855L37 95.207l3.406-1.996 2.204-2.536 1.802-2.082 1.002-2.168 1.302-2.195s.601-1.797.701-2.296 1.803 0 1.803 0l3.105.799.613 2.565-2.114 3.295-2.157 7.213L45.814 98l-5.408 3.395-6.01 1.996-8.224-.4-5.098-2.095-3.505-3.794z"/><path fill="#30419a" d="M47.564 95.586c.205-.089.522-.208.76-.156.47.102.352 1.08.238 1.42-.269.802-.899 1.531-1.632 1.946-.364.206-.78.358-1.122.597-.285.201-.541.45-.836.648-.91.61-1.814 1.237-2.788 1.743-1.317.684-2.707 1.28-4.13 1.702-2.442.726-4.953 1.326-7.52 1.094-2.216-.2-4.311-.205-6.42-1.026a15.9 15.9 0 0 1-5.433-3.539 9.6 9.6 0 0 1-1.332-1.634c-.431-.678-.553-.698-1.294-.357-1.88.866-4.31.525-6.165-.245-2.181-.906-3.96-2.637-5.108-4.675-1.5-2.66-1.491-5.584.149-8.319.705-1.174 3.11-1.46 4.48-.464.881.64 1.703 1.412 2.387 2.256.9 1.111 2.069 1.603 3.397 1.696 1.836.129 2.55-1.114 2.2-3.398-.29-1.88-.542-3.776-.626-5.672-.078-1.752 1.49-2.64 3.221-2.46 2.653.274 3.767 2.133 4.65 4.133.505 1.146.653 2.552.581 3.82-.092 1.615-.45 3.244-.927 4.796-.272.886-1.01 1.63-1.619 2.558 1.452 1.758 3.205 3.16 5.604 3.49 2.406.329 4.452-.207 6.737-.705.61-.133 1.189-.436 1.748-.702 1.428-.679 2.806-1.508 3.994-2.558.71-.627 1.36-1.286 1.938-2.032.775-1 1.615-1.851 2.046-3.052.174-.486.203-1.04.816-1.142.325-.054.767.016.944.318.184.312.157.964.048 1.295-.068.21-.227.312-.334.497-.148.257-.224.546-.389.8-.252.388-.443.819-.698 1.209-.5.763-1.08 1.47-1.667 2.167-.495.588-.71.807-.193 1.474.5.646 1.053 1.192 1.636 1.754.436.42.833.925 1.374 1.218.273.148.446.135.59.052.217-.125.37-.407.695-.547m-28.42-3.15q.199-.22.38-.435c.582-.69 1.26-1.298 1.806-2.018.543-.717.775-1.479 1.054-2.311.692-2.067.352-4.125-.135-6.198-.188-.802-1.097-1.486-1.792-2.092-.249-.217-.857-.113-1.259-.004-.103.028-.115.641-.057.967.232 1.318.516 2.628.763 3.944.46 2.45-.892 5.478-2.735 6.15-1.644.6-3.71.084-5.232-.635-.769-.363-1.487-.852-2.067-1.472-.626-.668-.845-1.72-1.628-2.244-.721-.484-1.463-.423-1.933.335-.823 1.326-.388 3.171.1 4.554.415 1.177 1.48 2.363 2.464 3.101.744.558 1.612.958 2.448 1.381 2.945 1.487 5.937-.917 7.824-3.023m7.245 5.04c-.09-.128-.72-.298-.894-.4-.663-.39-1.264-.893-1.903-1.318-.468-.31-.98-.55-1.45-.858-.333-.22-.73-.844-1.197-.758-.615.115-1.341 1.196-1.838 1.585-.533.416-.546.848-.344 1.267.245.504.804.987 1.152 1.394.318.372.76.699 1.16.983.67.476 1.317 1.026 2.079 1.355.556.24 1.59.772 2.098.274.59-.576.744-1.861.976-2.613.066-.212.323-.678.16-.911m10.222 3.957c-.333-.614-.615-1.366-.912-2.025-.342-.758-.8-1.59-1.01-2.402-.744.114-1.478.297-2.206.435-1.325.25-2.703.173-4.037.066-.025 1.184-.508 2.251-.707 3.4-.035.197-.157.538-.221.823a1 1 0 0 0-.034.36c.194 1.157 3.954.61 4.763.603 1.39-.012 3.392-.032 4.364-1.26m7.65-3.419c.08-.491-.96-1.12-1.215-1.509-.278-.423-.531-.784-.889-1.161-.356-.376-.556-.955-.953-1.267-1.01.542-1.912 1.24-2.938 1.766-.525.268-1.22.891-1.81.816-.074-.01.079.306.271.656.224.408.5.865.529.917.784 1.389 1.472 3.102 3.338 2.253.617-.281 1.16-.684 1.736-1.048.429-.271 1.839-.859 1.93-1.423"/><path fill="#fff" d="m53.227 149.297-4.007 17.265-.553 5.389 1.455-.998 2.404-.898 2.804.499 3.656 2.694s.85 3.693 1.145 3.992c.294.3-3.8 5.389-3.8 5.389l-3.805 1.996-1.302 6.786-3.406 2.795-4.608.698s-3.305-.499-3.605-.997c-.301-.5-1.566-1.198-1.566-1.198l-5.145 1.198h-3.306c-.3 0-3.416-2.695-3.416-2.695l-2.494-3.493-.4-3.294 1.001-2.195h-3.105l-2.804-2.794-2.304-4.69.801-4.706 2.604-2.58 3.706-1.696 3.406.498v-4.191s1.502-2.495 1.803-2.595c.3-.099 2.804-1.397 2.804-1.397l3.907.2 3.706 2.096.901 2.694 13.622-17.864z"/><path fill="#30419a" d="M58.97 172.054c4.1 4.529.504 9.899-3.255 12.202a2.3 2.3 0 0 1-.33.164c-1.74.698-2.263 1.947-2.217 3.814.117 4.72-4.243 7.78-8.087 8.183-2.592.27-4.986-.273-6.946-2.118-.797-.75-1.652-.253-2.291.07-2.351 1.189-5.635 1.47-7.918-.03-.966-.637-1.941-.96-2.769-1.86-.744-.81-1.322-1.758-1.899-2.69-.53-.856-.83-1.858-1.007-2.843-.06-.33-.082-3.01-.188-3.063-4.865-2.438-7.292-6.409-6.68-11.863.26-2.313 1.923-4.066 3.73-5.576 1.865-1.557 4.21-1.304 6.338-1.792.555-4.683 2.07-6.746 5.48-7.508 3.903-.871 7.375.44 9.5 3.777.609-.995 1.036-1.874 1.626-2.627 2.418-3.09 4.903-6.126 7.322-9.213.769-.98 1.37-2.09 2.122-3.084.609-.807 1.271-1.594 2.02-2.27.504-.454 1.582.352 1.468 1.176-.38 2.73-.832 5.45-1.294 8.168-.184 1.079-.45 2.146-.706 3.21-.598 2.486-1.215 4.968-1.822 7.45-.504 2.062-1.005 4.124-1.56 6.406 1.267-.324 2.224-.637 3.206-.805 2.25-.386 4.166.256 5.654 2.025.183.219.31.487.503.697m-1.664 1.768c-1.122-1.835-2.974-2.762-5.052-2.076-1.311.432-2.476 1.29-3.74 1.89-.516.246-1.358.611-1.625.396-.41-.332-.714-1.167-.607-1.699.527-2.605.901-5.304 1.905-7.735 1.259-3.049 1.808-6.238 2.672-9.365.548-1.982 1.11-3.96 1.665-5.94l-.404-.199c-.268.288-.557.56-.8.868-2.017 2.565-4.05 5.119-6.03 7.713-1.185 1.553-2.469 3.079-3.354 4.797-.577 1.119-1.136 2.128-2.2 2.758-.387.23-1.042.352-1.401.174-.258-.127-.375-.862-.296-1.277.23-1.216-.093-2.233-.788-3.212-.966-1.359-2.457-1.475-3.9-1.73-2.08-.368-3.956.394-4.887 1.993-.83 1.424-.592 4.331.458 5.595.822.99.711 1.762-.361 2.51-.801.558-1.536.261-2.188-.742-.369-.567-.809-1.27-1.38-1.49-2.317-.888-6.065.956-6.88 3.351-1.34 3.929.103 8.926 4.056 11.116.709.393 1.082.224 1.703-.182a12.3 12.3 0 0 1 3.166-1.467c.794-.237 1.622.094 1.616 1.143-.005.995-.2 1.963-1.357 2.332-.66.21-1.346.367-1.967.661-.34.161-.834.583-.808.843.335 3.328 2.228 7.59 5.996 8.215 2.045.338 3.648.066 5.558-.683.184-.072.363-.326.416-.53.483-1.832.929-3.676 1.405-5.51.266-1.021 1.03-1.592 1.737-1.233.85.432.93 1.125.693 2.065-.355 1.413-.482 2.884-.661 4.336-.03.248.097.575.26.78 1.206 1.505 4.213 2.462 6.054 1.808 4.395-1.56 5.072-3.137 5.436-7.143.154-1.685-.322-2.488-1.992-2.798-.99-.184-1.348-.683-1.653-1.443 1.204-1.58 1.308-1.604 3.215-.636.503.255.968.61 1.495.779.43.137 1.006.238 1.38.063 2.233-1.05 3.567-2.942 4.45-5.15.6-1.505-.25-2.71-1.005-3.946"/><path fill="#ef463c" d="m67.85 135.424-5.826 1.397h-8.597l-3.306-1.597 5.209-12.873h9.815z"/><path fill="#afd7f2" d="M54.209 80.736h10.426l4.016 1.497 2.904 3.65s.902 3.136.578 3.635c-.323.5 1.07 6.687 1.07 6.687v10.878l-2.148 9.38-5.003 4.292s-5.314 1.597-5.914 1.595-4.308-.398-4.308-.398l-4.006-2.594-4.107-5.49-.8-3.791v-5.448l1.201-6.915 2.705-10.467z"/><path fill="#f7ec1e" d="m63.314 93.755 1.32 2.35V99.6l-1.32 3.792-2.526 1.239-3.05-1.24-2.408-4.19v-3.394l2.303-2.051 2.513-1.204z"/><path fill="#30419a" d="M54.22 98.664c.147-2.351.71-4.58 2.603-6.256 1.258-1.113 2.247-1.11 3.916-.62 1.28.375 2.434.675 3.339 1.753 1.397 1.666 1.712 3.636 1.974 5.84-.174 1.096-.283 2.365-.59 3.584-.398 1.579-3.168 3.213-4.908 2.886-3.322-.627-6.555-3.669-6.335-7.187m2.409.485c.232.56.464 1.335.855 2.02.77 1.349 3.143 2.2 4.203 1.583 1.663-.97 2.528-4.198 1.735-5.965-.592-1.317-1.683-1.888-2.871-2.446-.78-.366-1.4-.17-2.021.323-1.377 1.094-1.56 2.69-1.901 4.485"/><path fill="#30419a" d="M73.636 91.205c.131.552.274 1.081.352 1.646.1.726.285 1.464.3 2.196.018.833.122 1.677.17 2.512.034.603.113 1.165.17 1.763.135 1.39.277 2.784.225 4.182-.086 2.367-.421 4.721-.89 7.041-.31 1.541-.886 3.03-1.198 4.57-.49 2.424-2.133 3.952-3.947 5.383-.384.303-.754.653-1.189.86-1.174.558-1.155 1.542-.967 2.561a1021 1021 0 0 0 1.84 9.595c.442 2.261.295 2.95-1.307 3.649-1.036.452-2.24.516-3.362.78-3.237.763-6.472-.181-9.72-.028-1.355.064-2.793-.496-4.107-.998-1.087-.415-1.191-1.53-.903-2.513.255-.869.785-1.654 1.153-2.494.75-1.711 1.49-3.427 2.2-5.157.552-1.35 1.05-2.722 1.594-4.139-2.962-1.89-5.383-4.297-6.928-7.396-.74-1.485-1.08-3.207-1.388-4.862-.313-1.685-.377-3.407-.272-5.116.09-1.476.349-2.909.689-4.35.19-.81.33-1.63.553-2.433.29-1.036.55-2.088.941-3.094.232-.598.432-1.218.627-1.828.192-.604.36-1.211.564-1.81.222-.645.305-1.329.532-1.972.178-.506.335-1.01.481-1.521.15-.526.131-1.11.394-1.602.246-.462.906-.903 1.455-.691.526.203.424 1.09.38 1.517-.04.387-.165.72-.258 1.089-.148.583-.247 1.172-.47 1.734-1.066 2.686-1.99 5.408-2.456 8.27-.353 2.168-.765 4.328-1.051 6.505-.111.843.15 1.63.927 2.235 1.904 1.481 4.004 2.606 6.342 3.087 2.18.447 4.442.488 6.65.826 2.833.433 5.46-.148 7.855-1.588.865-.52 2.132-.849 2.277-2.162.209-1.895.635-3.82.477-5.691-.108-1.27-.163-2.543-.25-3.815-.146-2.16-.134-4.342-.438-6.484-.062-.435-.168-.861-.273-1.288-.093-.38-.132-.823-.28-1.182-.241-.586-.33-1.113-.25-1.758.022-.179.095-.389.269-.487.157-.089.635-.114.8-.044.599.256.597 1.128.845 1.626.167.336.186.675.29 1.018.04.132.095.256.155.378.233.481.275.976.397 1.48m-16.724 36.187q.35-1.435.702-2.87c.12-.49.33-.84-.305-.955-.317-.058-.859.034-1.122.23-.364.272-.481.849-.668 1.236-.29.595-.642 1.158-.928 1.756-.574 1.198-.99 2.463-1.575 3.658a27 27 0 0 0-.715 1.631c-.243.592-.765 1.493-.717 2.15a1 1 0 0 0 .025.143c.225.808 1.783 1.391 2.47 1.403.575.01.738-.207.886-.724.167-.58.361-1.193.504-1.773q.724-2.943 1.443-5.885m4.37 5.557-.306-4.207-.23-3.163c-.025-.33.077-1.33-.126-1.588-.098-.122-.976-.141-.976-.137.037.431-.226.932-.304 1.356-.079.43-.147.856-.255 1.28-.297 1.178-.667 2.431-.85 3.66-.222 1.5-.909 2.886-1.08 4.406-.213 1.905 3.041 2.044 4.031 1.02.601-.622.151-1.88.097-2.627m4.817-2.447c-.395-1.467-.965-2.928-1.243-4.42-.117-.628-.138-2.058-.59-2.538-.29-.308-1.21-.264-1.564-.038-.078.595.043 1.335.086 1.938.073.991.259 2 .256 2.994-.004 1.627-.064 3.274-.002 4.9.035.952-.1 1.956 1 2.311.769.248 1.594.057 2.154-.404.53-.436.823-1.114.606-1.89-.261-.93-.447-1.904-.703-2.853m4.715-18.387c-3.774 2.187-7.682 1.75-11.563 1.297-3.872-.452-7.636-1.308-10.916-3.53-.48 4.785 4.572 9.864 10.371 10.842 5.936 1 11.427-4.303 12.108-8.61"/><path fill="#afd7f2" d="M91.688 31.935V83.83l-2.003 2.994H54.209l-26.223-2.396.601-12.275-.6-42.114.4-3.094 61.298 3.094z"/><path fill="#fff" d="m81.772 46.366-.5 4.73-6.811 2.395-6.11-.929-3.105-2.464s-.5-2.595-.601-3.05.6-2.75.6-2.75 1.904-2.483 2.204-3.082 3.806-.399 4.207-.499 7.012.499 7.012.499zM50.823 49.4s-6.711 3.393-7.112 3.163-4.406.03-4.362 0-3.85-1.965-3.85-1.965-1.102-3.094-1.102-3.499.7-3.587.7-3.587 1.503-1.597 1.804-1.896c.3-.3 5.408-1.896 5.408-1.896l8.013.498z"/><path fill="#f9f5b5" d="m83.175 61.874-.802 15.568-41.166-.722-.8-16.842h41.966z"/><path fill="#f7ec1e" d="m27.485 42.314.902 22.853-25.542-9.369-1-2.307 24.327-11.676zM58.135 6.886l3.655-5.39 1.524.6 7.24 15.369 4.7 11.846-27.136-1.867zM121.836 49.898l.702 1.897L99.6 62.473l-7.712 3.094-.201-25.848z"/><g fill="#30419a"><path d="M93.352 65.974c-.302.342-.148 1.573-.163 2.085-.066 2.206-.045 4.395-.14 6.597-.075 1.784-.038 3.57-.084 5.355-.043 1.662-.272 3.305-.346 4.964-.067 1.496-2.493 3.529-4.005 3.524-1.904-.006-3.808.016-5.71.043-.667.01-1.357-.082-2.016-.002-.56.067-1.076-.048-1.634-.046-.39.002-.78-.01-1.168.006-1.292.05-2.6.045-3.892.044-1.143-.001-2.287.022-3.43.043-1.129.02-2.25-.023-3.371-.03a161 161 0 0 1-4.427-.077 514 514 0 0 1-5.105-.2c-1.165-.05-2.32-.094-3.482-.213-1.874-.194-3.753-.333-5.635-.478-.682-.053-1.364-.088-2.046-.143-.891-.071-1.768-.275-2.663-.318-.85-.041-1.712-.03-2.561-.107q-.989-.091-1.976-.171c-2.518-.201-5.04-.37-7.556-.585-1.045-.088-2.094-.197-3.12-.403-1.255-.252-1.432-1.317-1.454-2.334-.044-2.036.161-4.087-.018-6.107-.29-3.276.138-6.516.23-9.772.03-1.104-.38-1.533-1.387-1.891-3.792-1.348-7.53-2.844-11.314-4.212-2.228-.806-4.522-1.433-6.758-2.22-1.717-.604-3.446-1.223-5.06-2.048a8.4 8.4 0 0 1-2.7-2.212c-.434-.55-.64-1.589.343-2.15 2.11-1.205 4.204-2.445 6.357-3.57 2.938-1.536 5.74-3.325 8.971-4.31 1.934-.59 3.723-1.648 5.585-2.477.517-.23 1.087-.346 1.589-.6 1.021-.518 2.094-.992 2.975-1.696.354-.283.35-1.122.353-1.709.01-2.638-.087-5.279-.044-7.916.023-1.42.191-2.847.43-4.247.051-.3.693-.714 1.058-.71 3.253.04 6.505.183 9.758.253 1.915.04 3.831.051 5.747.075.807.01 1.557.07 2.344.174.58.077 1.564.048 2.04-.338.293-.237.356-.738.523-1.048.386-.718.743-1.445 1.117-2.17 1.54-2.987 3.123-5.952 4.525-9.028 1.163-2.551 2.217-5.152 3.365-7.71a109 109 0 0 1 2.47-5.144c.622-1.21 3.454-.889 4.195.548 1.52 2.948 2.919 5.958 4.384 8.932.288.583.744 1.092.975 1.69 1.088 2.818 2.11 5.66 3.185 8.482.817 2.148 1.643 4.295 2.554 6.403.192.445.734.963 1.18 1.033 1.364.212 2.758.23 4.142.309 2.66.15 5.326.241 7.981.454 1.128.09 2.99.07 3.794 1.017.503.592.286 1.77.369 2.525.144 1.335.272 2.672.296 4.015.026 1.524.34 2.546 1.895 3.08 2.153.74 4.198 1.915 6.4 2.356 3.347.67 6.37 2.151 9.563 3.194 2.365.772 4.698 1.65 7.03 2.52 1.663.62 3.343 1.216 4.939 1.982 1.47.704 1.708 2.795.487 3.946-.607.572-1.378.99-2.116 1.403-1.387.779-2.758 1.611-4.218 2.23-3.84 1.627-7.697 3.218-11.596 4.699-2.112.803-4.246 1.55-6.381 2.291q-1.632.564-3.262 1.135c-.635.224-1.837.452-2.311.985m-66.21-2.52c-.15-.054-.09-2.445-.1-2.718q-.05-1.397-.102-2.794l-.2-5.462-.194-5.32-.097-2.616c-.036-.993-.379-.873-1.269-.635-1.452.39-2.75.999-4.176 1.5a82 82 0 0 0-4.524 1.745 74 74 0 0 0-8.474 4.212c-1.47.856-2.88 1.815-4.674 2.952.985.7 1.638 1.261 2.38 1.66.59.316 1.293.422 1.94.64 2.556.863 5.117 1.712 7.662 2.608 3.85 1.355 7.69 2.746 11.828 4.228m23.81-37.347 21.708 1.285c-.732-2.22-1.297-4.207-2.041-6.125A442 442 0 0 0 66.016 9.91a61 61 0 0 0-2.54-5.308c-.325-.604-1.019-1.009-1.517-1.479-2.791 3.596-4.64 7.378-6.264 11.282-1.61 3.868-3.532 7.617-4.743 11.702M90.687 75.85c-.046-3.551-.198-7.1-.215-10.652-.016-3.316.106-6.633.135-9.95.037-4.298.106-8.596.039-12.891-.035-2.254-.13-4.508-.37-6.75a49 49 0 0 1-.202-2.724c-.053-1.034-.253-1.257-1.224-1.343-1.125-.1-2.256-.098-3.382-.182-.919-.07-1.872-.387-2.784-.352-2.791.107-5.622-.443-8.406-.706-5.274-.5-10.544-1.23-15.829-1.363-4.998-.126-9.983-.645-14.974-.645-.914 0-1.794-.1-2.704-.1-1.016 0-2.023-.05-3.041-.05-.645 0-1.275-.02-1.917-.062-1.355-.085-2.731-.04-4.085-.106A7.7 7.7 0 0 0 29 28.34c-.15.049.083 1.252.133 1.924.012.162.006.326.003.49-.08 3.571-.252 7.143-.218 10.714.044 4.56.41 9.123.344 13.68-.058 4.029.944 7.967.632 12.022-.28 3.646-.159 7.326-.123 10.99.018 1.878.234 3.753.368 5.746 3.546.237 6.748.48 9.953.657 2.733.152 5.474.172 8.204.354 3.62.24 7.23.677 10.852.854 4.53.22 9.07.363 13.604.357 5.091-.005 10.182-.208 15.272-.337.903-.023 2.112-1.176 2.171-2.095.11-1.722.158-3.448.259-5.171.052-.894.246-1.785.234-2.675m2.478-12.898c.404 0 .626.056.805-.007 4.025-1.431 8.064-2.82 12.056-4.333a273 273 0 0 0 10.86-4.383c1.456-.624 2.786-1.538 4.173-2.32l-.062-.545c-.516-.29-1.007-.64-1.552-.851-.872-.338-1.802-.531-2.67-.878-1.89-.755-3.743-1.601-5.636-2.346-1.851-.727-3.727-1.391-5.604-2.051-2.135-.751-4.286-1.465-6.428-2.199-.722-.246-1.423-.582-2.162-.738-1.258-.265-2.473-1.172-3.78-.446z"/><path d="M84.683 72.685c.03 1.152.098 4.226-.654 5.144-.183.224-.409.388-.663.507-1.094.515-2.716.199-3.783.212-1.98.026-4.008.066-5.997.155-1.438.065-2.867.324-4.306.393-.847.042-1.704-.17-2.556-.176-.973-.006-1.947.153-2.917.125-1.05-.03-2.094-.252-3.144-.29-5.378-.2-10.757-.374-16.136-.533a14 14 0 0 0-2.323.142c-2.058.29-2.724-.4-2.612-2.443.078-1.395-.19-2.805-.191-4.208-.003-2.018.127-4.035.139-6.053.006-1.092-.15-2.183-.175-3.276-.024-1.052-.036-2.112.063-3.157.07-.724.523-1.046 1.353-.998 1.982.115 3.971.094 5.957.158 1.703.055 3.405.19 5.108.218 1.945.032 3.891-.035 5.837-.019 1.531.013 3.064.085 4.596.132 1.353.042 2.707.144 4.058.116 1.91-.039 3.82-.257 5.729-.241 1.783.015 3.561.298 5.344.348a36 36 0 0 0 4.524-.162c.755-.074 1.19.111 1.421.784.249.722.605 1.447.662 2.19.282 3.64.568 7.285.666 10.932M47.027 62.433c-.16-1.572-.365-1.708-2.017-1.5-.641.08-1.298.085-1.944.054-1.407-.068-1.722.263-1.672 1.635.127 3.564.26 7.129.298 10.694.026 2.45-.043 2.45 2.444 2.485.164.002.327.013.544.023 2.057-.064 2.055-.064 2.068-2.254.01-1.708-.251-3.477.109-5.11.45-2.041.377-4.011.17-6.027m6.911-1.263c-1.557-.079-2.776-.174-3.994-.171-.236 0-.647.362-.675.593-.14 1.168-.146 2.35-.26 3.523a39 39 0 0 0-.133 5.467c.06 1.392-.082 3.358.47 4.66.452 1.065 2.13.901 3.11.72.997-.185 1.106-.803 1.12-1.745.029-1.779.296-3.553.345-5.334.069-2.549.016-5.101.017-7.713m6.85-.034c-1.528 0-2.739.018-3.95-.007-.721-.017-1.074.082-1.053 1.005q.141 5.963.069 11.928c-.025 2.043.228 1.985 2.192 2.173 1.826.174 1.963-.062 1.964-1.895 0-2.241.125-4.485.259-6.724.125-2.093.331-4.182.518-6.48m6.48.129h-4.176c-.141.667-.359 1.294-.396 1.932q-.233 4.035-.37 8.074c-.048 1.455-.06 2.916.03 4.367.018.306.555.825.855.826 1.363.007 2.725-.137 4.058-.225zm8.032.204a.4.4 0 0 0-.125-.08c-.457-.197-1.7-.13-2.101-.139-.684-.014-3.539-.453-3.621.513-.39 4.591-.292 9.178.31 13.747.042.316.478.783.78.825.794.11 1.62.072 2.424.007 2.144-.172 2.14-.19 2.095-2.374-.003-.157.07-.315.076-.474.071-2.03.162-4.06.196-6.09.018-1.109.018-2.217.015-3.325-.001-.546.38-2.166-.049-2.61m7.2 10.36c-.017-1.785-.101-3.568-.201-5.35-.051-.921-.094-1.845-.164-2.766-.043-.569.05-1.504-.213-2.014-.24-.468-.53-.375-1.122-.374-.96.001-2.739-.362-3.276.388-.573.802-.24 2.361-.236 3.294.011 2.743.026 5.485.08 8.228.045 2.388.09 2.387 2.37 2.584.487.032.976.11 1.459.078.23-.016.608-.203.645-.373.272-1.223.669-2.464.657-3.695M35.754 52.476c-1.815-1.192-2.851-3.245-2.909-6.232-.03-1.582.296-2.682 1.322-3.938.99-1.21 2.32-2.452 3.799-3.049 1.452-.585 3.05-.721 4.596-.858 2.764-.247 5.546.078 8.258.615 2.915.578 4.795 2.22 5.974 4.799.2.437.245 1.027.146 1.502-.337 1.615-.636 3.259-1.201 4.8-.375 1.02-1.201 1.796-2.141 2.309-.787.43-1.823.623-2.67.958-1.51.596-2.98.73-4.578.877-3.673.336-7.422.303-10.596-1.783m7.3-.688c-2.117-3.552-3.404-7.063-1.004-10.97-4.783 1.32-6.882 3.017-6.508 5.343.664 4.129 2.306 5.466 7.513 5.627M87.192 47.161c.052 3.159-1.173 5.717-4.04 7.062-1.342.629-3.06.475-4.61.638-.844.09-1.696.102-2.7.159-2.378-.354-4.951.08-7.46-.84-4.299-1.578-6.734-6.535-3.747-11.172 1.594-2.475 3.915-3.276 6.587-3.636 3.677-.495 7.34-.43 10.893.664 3.218.992 5.004 2.75 5.077 7.125M73.91 52.545c-2.56-3.492-3.55-6.987-1.157-10.773-.897-.326-2.648-.018-4.077.628-2.988 1.352-3.722 6.108-1.639 8.004 1.872 1.703 4.216 2.032 6.873 2.14M58.787 53.374a2 2 0 0 1 .37-.425c.91-.797 1.588-.247 2.133.614.278.439.317 1.17.167 1.679-.085.29-.825.625-1.178.544-1.203-.277-2.124-1.399-1.492-2.412"/></g></g></svg>