<svg xmlns="http://www.w3.org/2000/svg" width="121.633" height="259.408" viewBox="0 0 121.633 259.408"><g fill="none" fill-rule="evenodd" stroke-linecap="none" stroke-linejoin="none" stroke-miterlimit="10" stroke-width="none" data-paper-data="{&quot;isPaintingLayer&quot;:true}" font-family="none" font-size="none" font-weight="none" style="mix-blend-mode:normal" text-anchor="none"><g stroke-linecap="butt" stroke-linejoin="miter" stroke-width="1"><path fill="#dbb297" d="M76.085 59.32c6.276 1.376-12.287 16-25.468 16S21.6 59.896 27.907 58.776C35.881 57.384 48.137 52 52.14 52c5.35 0 16.067 5.6 23.945 7.32"/><path fill="#dbb297" d="M59.157 58.28c.303 2.4-5.414 4.496-7.806 4.496-1.938-.024-6.643-1.448-6.938-3.376l.558-16.064h14.082z"/><path fill="#bf9682" d="m44.597 52.432.374-10.712h14.114v5.6c-5.302.68-11.785 2.712-14.488 5.112"/></g><g stroke-linecap="butt" stroke-linejoin="miter" stroke-width="1"><path fill="#dbb297" d="M72.083 59.512s7.758-1.048 10.669 4.592L94.56 99.88c.638 1.528-1.029 4.984-3.557 6.088 0 0-5.581 2.304-7.009-.304l-15.293-35.08c-1.723-3.384-.375-9.4 3.38-11.072"/><path fill="#e38d6f" d="M89.585 79.096 77.417 92.984l-11.833-25.6s3.19-17.6 17-5.6z"/><path fill="#d67858" d="M92.833 83.017 76.731 93.844l-3.454-5.17L89.38 77.846z"/></g><g stroke-linecap="butt" stroke-linejoin="miter" stroke-width="1"><path fill="#ed9d80" d="m28.019 111.408-3.94-51.72 16.93-6.296 2.655-4.8 12.487 2.024 4.226-2.024 2.863 4.8 16.003 5.832-.136 51.584z"/><path fill="#e38d6f" d="m61.414 60.496-4.681-7.272.24 60.24-1.492-.08.39-60.152-3.508 7.544-11.355-7.384 2.584-3.616 12.559.84 4.744-1.144 2.345 3.92z"/><path fill="#d67858" d="m43.664 48.592 12.487 2.024-5.16 10.536-9.983-7.76z"/><path fill="#d67858" d="m62.187 60.384-6.036-9.768 4.226-2.024 2.863 4.8z"/></g><g stroke-linecap="butt" stroke-linejoin="miter" stroke-width="1"><path fill="#c282ac" d="m65.01 72.576 6.793-9.352 2.895 5.176 2.647 4.736-5.534-.248-3.82-.176z"/><path fill="#5297a1" d="m73.215 65.752-4.968 6.968-3.237-.144 6.793-9.352z"/><path fill="#c7c7c7" d="m77.345 73.136-5.534-.248 2.887-4.488z"/><path fill="#ffabe2" d="m63.51 72.552 6.794-9.344 2.895 5.176 2.647 4.728-5.534-.248-3.82-.176z"/><path fill="#7be3f2" d="m71.716 65.736-4.968 6.968-3.237-.152 6.793-9.344z"/><path fill="#fff" d="m75.846 73.112-5.534-.248 2.887-4.48z"/><path fill="#d67858" d="M63.24 74.624v-3.008h14.105v3.008z"/></g><path fill="#3f4058" d="M76.093 193.328s-10.501 1.336-11.426-3.64l-8.429-39.056c-.797-9.688 11.858-11.816 11.858-11.816 4.96-.928 13.978-1.136 14.903 3.832l1.738 42.816c-.167 5.352-3.684 6.936-8.644 7.864" data-paper-data="{&quot;origPos&quot;:null}"/><path fill="#3f4058" d="m24.176 178.992 2.328-31.92c-.909-4.976 6.092-8.616 13.037-9.472 0 0 20.039-.912 19.464 9.6l-12.901 38.88c-4.306 6.464-13.077 3.688-13.077 3.688-4.322-1.192-7.982-5.768-8.851-10.776" data-paper-data="{&quot;origPos&quot;:null}"/><g stroke-linecap="butt" stroke-linejoin="miter" stroke-width="1"><path fill="#3f4058" d="M83.094 149.424c0 4.448-24.934-2.624-30.77-2.664-6.1 0-19.816 2.104-25.852.296-2.743-12-2.392-22.952 1.14-33.56a10.2 10.2 0 0 1 .248-4.464h51.63c.152 1.328.455 4.608.455 4.608 2.838 19.664 3.165 26.84 3.15 35.784"/><g fill="#5f6085" opacity=".64"><path d="M58.822 137.6v.576h-2.56a1.52 1.52 0 0 1-1.082-.445 1.53 1.53 0 0 1-.449-1.083v-24.92h.439l.447 24.72c0 .442.357.8.797.8zM58.854 136.248l-.47-3.064v-21.432h.47z"/></g><path fill="#5f6085" d="M34.813 113.288v11.272c0 5.064-10.143 5.2-10.143 5.2v-.72s9.473-.136 9.473-5.2v-12.08h.542q.13.759.128 1.528M81.858 128.432c-2.79-1.392-4.584-3.424-4.584-7.864v-7.272q0-.77.135-1.528h.542v8.072c.016 4.656 1.81 6.4 3.852 7.736z"/></g><path fill="#64bcbd" stroke="#529c9c" stroke-linecap="round" stroke-linejoin="round" stroke-width=".8" d="M80.758 115.72H26.225l.486-4.592h53.776z"/><path fill="#529c9c" d="M69.084 111.32q.174-.038.351-.048a2.22 2.22 0 0 1 2.203 2.136 2.22 2.22 0 0 1-2.027 2.304 2.5 2.5 0 0 1-.351 0 2.345 2.345 0 0 0 1.411-2.24 2.35 2.35 0 0 0-1.587-2.152"/><path fill="#dbb297" d="M55.72 46.08h-2.472c-2.878 0-13.324-5.736-14.424-12.368l-2.847-13.376c0-6.8 9.13-12.336 15.908-12.336h.414c6.778 0 15.948 5.6 15.948 12.368l-2.065 13.344C65.058 39.768 59.077 46.08 55.72 46.08"/><path fill="#211207" d="M52.252 22.744a.577.577 0 0 1-.543.608l-5.94.336a.575.575 0 0 1-.064-1.144l5.964-.608c.311-.016.567.464.583.808M65.077 22.797a.577.577 0 0 1-.657.787l-5.997-.136a.576.576 0 0 1-.478-.656c.048-.312.343-.8.654-.752l5.988.408c.216.015.405.15.49.349"/><path stroke="#b2836d" stroke-linecap="round" stroke-linejoin="round" stroke-width=".768" d="m58.4 34.552-1.101.544a2.06 2.06 0 0 1-1.786 0l-1.093-.544M60.449 37.536c-3.397 3.416-7.663.744-7.663.744"/><path fill="#211207" d="M64.133 18.248s-4.378-4.96-6.842-.456c0 0-10.366-6.344-16.06 3.304a10.3 10.3 0 0 0-.565 5.4l-3.987 2.032-.885-5.328-.638-4.624s-2.026-9.6 8.643-14.296c0 0 12.591-2.704 13.492-4.28 0 0-.582 2.888 3.987 5.952 0 0 1.858.2 2.312-1.128 0 0 6.746 6.208 4.785 15 0 0-.798 3.592-1.069 5.368 0 0 .558-3.152.104-4.536-.016 0-.479-3.856-3.277-2.408"/><path fill="#dbb297" d="M33.888 24.224a2.72 2.72 0 0 1 2.244-.147 2.73 2.73 0 0 1 1.591 1.595l1.06 3.592c.503 1.76.431 2.672-.079 3.072-1.212.72-2.934.064-3.835-1.448l-1.54-2.592c-.9-1.52-.637-3.352.559-4.072"/><g stroke-linecap="butt" stroke-linejoin="miter" stroke-width="1"><path fill="#fff" d="M52.4 25.369c.074.086.107.2.09.311a3.065 3.065 0 0 1-3.005 2.488 3.065 3.065 0 0 1-3.007-2.488.385.385 0 0 1 .375-.448h5.255a.4.4 0 0 1 .293.137"/><path fill="#4f5838" d="M52.397 25.36a.39.39 0 0 1 .094.304 2.97 2.97 0 0 1-1.906 2.288 1.81 1.81 0 0 1-1.268-1.6 1.75 1.75 0 0 1 .295-1.12h2.496c.11 0 .216.046.29.129"/></g><g stroke-linecap="butt" stroke-linejoin="miter" stroke-width="1"><path fill="#fff" d="M64.995 25.267a.4.4 0 0 1 .086.317 3.065 3.065 0 0 1-3.006 2.488 3.065 3.065 0 0 1-3.006-2.488.385.385 0 0 1 .375-.456h5.255a.4.4 0 0 1 .296.14"/><path fill="#4f5838" d="M65.002 25.273a.4.4 0 0 1 .08.327 2.95 2.95 0 0 1-1.914 2.256 1.805 1.805 0 0 1-.973-2.728h2.504a.39.39 0 0 1 .303.145"/></g><g stroke-linecap="butt" stroke-linejoin="miter" stroke-width="1"><path fill="#dbb297" d="m83.286 187.024 3.987 56.24c-.088 1.888-2.289 3.456-4.155 3.752h.742a5.525 5.525 0 0 1-6.14-3.816l-10.868-50.88c-.479-2.96 3.333-7.376 6.291-7.808 3.03-.44 9.848-.512 10.143 2.512"/><path fill="#3f4058" d="m87.528 226.24.534 3.696c.263 1.808-3.038 3.776-7.296 4.4s-7.982-.328-8.245-2.136c0-.112-.797-3.6-.797-3.6-.072-.464.183-.584.662-.512l-7.759-38.4c-.478-2.984 3.094-9.632 8.827-11.784 4.792-1.832 10.7-.096 10.988 2.968l2.392 45.12c.43-.232.702-.208.694.248"/></g><path fill="#00bcbd" d="m107.917 249.032.407 1.744s.43 2.168-.184 2.312l-27.11 6.304a1.42 1.42 0 0 1-1.285-1.008c-.366-1.016-2.12-12.52-2.12-12.52l-2.106-5.248 7.464-1.6 1.148 1.696c.04-1.912 1.092-3.36 2.751-3.584 0 0 2.177-.352 1.276 3.144l.797 4.72.957 2.8 12.55-1.448s3.669-.376 5.455 2.688"/><path fill="#cfd6d4" d="m108.236 253.08-18.635 4.352-8.58 1.976a1.44 1.44 0 0 1-1.3-1.008c-.175-.512-.39-1.648-.661-2.648l9.768-1.968 19.137-4.8.407 1.752s.558 2.144-.136 2.344"/><path fill="#e5e8e9" d="m107.965 249-5.646 1.32-.893-3.832.997-.152s3.7-.376 5.542 2.664"/><path fill="#545c59" d="m108.132 249.456-19.368 4.52-9.704 2.24-.12-.488 9.712-2.24 19.369-4.52z"/><path stroke="#e6e6e6" stroke-linecap="round" stroke-linejoin="round" stroke-width=".5" d="m88.158 240.272-1.683 5.504 3.533 1.896 1.459 1.656 2.918-1.728 2.552.864 2.464-1.648.295 1.272-2.783-.888-2.735 1.736-1.977-1.256-3.868 2.04.622-4.728-4.808-4.048"/><path fill="#008f8f" d="m83.724 238.824 4.697 10.648 13.276-1.832.176.76-13.81 1.872-5.36-11.192z"/><g stroke-linecap="butt" stroke-linejoin="miter" stroke-width="1"><path fill="#dbb297" d="M18.602 235.808c-1.196 2.112-2.998 3.768-5.279 2.912h-.056c-1.77-.664-3.548-2.744-3.253-4.616l15.804-54.056c.885-2.96 8.134-3.416 10.948-2.4s8.413 4.992 7.344 7.8z"/><path fill="#3f4058" d="M27.517 224.264s-1.547 3.248-1.547 3.352c-.614 1.72-4.418 1.912-8.5.432-4.083-1.48-6.882-4.072-6.268-5.792l1.268-3.512c.16-.432.39-.44.726-.192l11.29-40.72c.894-2.968 10.39-4.96 16.108-2.4 2.727 1.224 6.714 5.68 5.51 10.648l-19.042 37.552c.423.04.606.216.455.632"/></g><path fill="#00bcbd" d="m29.502 256.176-1.14 1.6s-1.475 1.944-2.05 1.544l-8.85-3.152-16.116-11.016a1.6 1.6 0 0 1-.12-1.808c.607-1.056 6.986-9.6 6.986-9.6l1.595-6.608 7.176 4.848-.654 2.96c2.018-1.824 3.884-1.696 4.92-.576 0 0 2.225 2.304-1.762 4.272l-1.946 2.64-.757 2.888 3.9 6.568 5.493 1.816s4.49-.144 3.325 3.624"/><path fill="#cfd6d4" d="M1.179 243.304c.287-.528 1.06-1.544 1.69-2.504l15.494 14.232 11.163 1.152-1.148 1.6s-.774 1.472-2.05 1.552l-10.047-.384L1.3 245.112a1.6 1.6 0 0 1-.12-1.808"/><path stroke="#e6e6e6" stroke-linecap="round" stroke-linejoin="round" stroke-width=".5" d="m19.894 238.464-5.47 2.2 2.36 3.504-.91 2.856 3.446 1.416.829 4.12 4.64-.464-1.188 1.936-2.4-3.128-3.516-1.544.151-3.424-3.915-1.728 3.604-2.928-2.001-5.336"/><path fill="#008f8f" d="m16.967 231.984-2.743 11.992 6.124 8.256 5.303 2.08-.495.704-5.278-2.08-6.587-8.672 2.959-12.768z"/><path fill="#e5e8e9" d="m29.51 256.168-5.199-.048 1.866-3.568 1.037-.2s3.46.04 2.296 3.816"/><path fill="#545c59" d="m29.263 256.648-11.195-1.2L2.495 241.2l.319-.464 15.58 14.256 11.188 1.192z"/><g stroke-linecap="butt" stroke-linejoin="miter" stroke-width="1"><path fill="#dbb297" d="m32.62 74.216-14.648 33.16c-2.121 4.08-7.647 2.352-7.647 2.352-2.631-1.152-5.422-4.296-4.362-6.968l12.535-35.52c1.212-4.224 8.939-4.224 8.939-4.224 3.915 1.784 5.534 4.704 5.183 11.2"/><path fill="#e38d6f" d="M19.71 63.056a10.77 10.77 0 0 1 10.295-4.336c8.149 1.52 5.318 15.12 5.318 15.12l-8.668 17.536-14.823-12.064z"/><path fill="#d67858" d="M26.121 94.824 9.336 83.992l2.4-6.16L28.57 88.696z"/></g><g fill="#dbb297" stroke-linecap="butt" stroke-linejoin="miter" stroke-width="1"><path d="M13.251 99.992c2.704.624 5.574 3.632 5.096 6.4l-7.974 32.456c-.28 1.136-2.504 1.784-3.676 1.6a3.07 3.07 0 0 1-2.584-3.32l1.555-33.072c.774-2.776 4.88-4.688 7.583-4.064"/><path d="M8.448 134.47a3.13 3.13 0 0 1 2.164 2.738c.518 3.336-2.392 7.544-2.392 7.544-.742 1.2-.47 1.552-.47 1.552.023 1.112-.327 5.056-.327 5.056 1.116.776 1.196 1.464 1.196 1.464 2.145 1.224 1.092 2.552 1.092 2.552a10 10 0 0 1-2.273-.8 2.72 2.72 0 0 1-2.04 0 10.7 10.7 0 0 1-3.645-2.136c-3.78-7.232-.271-10.84-.271-10.84l3.62-6.16a3.12 3.12 0 0 1 3.346-.97"/><path d="M9.615 150.176c-1.515.216-1.85-1.536-1.905-2.632l-.535-11.152a2.3 2.3 0 0 1 2.664-1.032 6.12 6.12 0 0 1 1.594 4.704l-1.315 7.04a3.32 3.32 0 0 0-.144 2.656c.104.2-.151.408-.359.416"/></g><g fill="#dbb297" stroke-linecap="butt" stroke-linejoin="miter" stroke-width="1"><path d="m94.314 99.2 16.027 28.048a2.95 2.95 0 0 1-.797 4c-.925.664-3.11 1.08-3.852.216L84.81 107.152c-1.595-2.168-2.727-6.264 2.48-8.848 2.695-1.344 5.207-1.136 7.025.896M111.035 135.352l5.39 8.248a1.06 1.06 0 0 1-.295 1.456 1.05 1.05 0 0 1-1.443-.296l-5.845-7.8c-.311-.472.112-1.44.59-1.76a1.22 1.22 0 0 1 1.603.152M114.153 134.776l5.773 8.24c.364.515.247 1.23-.263 1.6a1.137 1.137 0 0 1-1.595-.264l-6.284-7.88c-.366-.512.208-1.504.718-1.872a1.21 1.21 0 0 1 1.65.176"/><path d="m107.335 133.848 4.465 8.752a.866.866 0 0 1-.287 1.184.86.86 0 0 1-1.18-.296l-5.103-8.44a.874.874 0 0 1 .295-1.184c.399-.264 1.563-.424 1.81-.016M115.939 133.28l5.494 7.384a.96.96 0 0 1-.168 1.344.947.947 0 0 1-1.34-.168l-5.844-7.152c-.32-.44.103-1.28.518-1.6a.963.963 0 0 1 1.34.192"/><path d="M120.532 133.736c-.327.688-2.09.8-2.99.352l-7.743-3.896a1.4 1.4 0 0 1-.798-1 2.13 2.13 0 0 1 .367-1.512c.151-.224.36-.401.606-.512.566-.256 1.595-.576 3.19.496l4.968 4.152q.127.101.223.232a3.07 3.07 0 0 0 1.985 1.192c.224.016.28.312.192.496"/><path d="M106.952 127.952c2.257-1.6 5.797-1.36 7.408.904l.734 1.016a5.09 5.09 0 0 1-1.165 7.056l-.797.56a5.053 5.053 0 0 1-7.033-1.168l-.726-1.024c-1.594-2.264-.677-5.696 1.58-7.344"/></g></g></svg>