<svg xmlns="http://www.w3.org/2000/svg" width="115.1" height="52.574" viewBox="0 0.244 115.1 52.574"><path fill="#7f7f7f" stroke="#000" d="M73.4 38.9s-1.8 5.8-3.7 6.2-3.6 1.5-3.5 2.2c.3 1.4 2.7.8 2.7.8s-1.8 3.3-.4 4.1c1.5.8 4-2.7 4-2.7s1.5 3.4 3.6 2.1-2.3-5.7-2.3-5.7 1.9-3.8 3-5.3c1.7-2.2-2.9-3.8-3.4-1.7ZM54.9 38.6s-2.3 5.6-4.2 5.9c-1.9.2-3.7 1.2-3.7 1.9.2 1.4 2.7 1 2.7 1s-2.1 3.2-.7 4c1.4.9 4.2-2.3 4.2-2.3s1.2 3.5 3.4 2.4c2.2-1.2-1.8-5.9-1.8-5.9s2.2-3.6 3.4-5c1.9-2-2.6-4.1-3.3-2ZM59.1 11.7S55 7.2 55.6 5.4s.5-3.9-.2-4.1c-1.3-.4-2.1 2-2.1 2S51.4 0 50 .9s.3 4.8.3 4.8-3.7-.4-3.6 2c.1 2.5 6.1.9 6.1.9s2.3 3.5 3 5.3c1.1 2.4 4.9-.7 3.3-2.2ZM76.8 15.1S74.4 9.5 75.6 8s1.8-3.5 1.2-3.9c-1.1-.8-2.6 1.2-2.6 1.2s-.8-3.7-2.4-3.3-1.3 4.6-1.3 4.6-3.4-1.6-4.1.7c-.7 2.4 5.5 2.9 5.5 2.9s1 4.1 1.1 6c.2 2.5 4.8.8 3.8-1.1Z"/><path fill="#7f7f7f" stroke="#000" d="M85.6 35.3c-3 3.6-11.1 8.6-26.9 7.4S39.3 31.7 41.2 22 52 7.5 65.1 10.2c12.3 3.6 13.5 3.8 17.8 6 9.9 5.2 6 15.1 2.7 19.1Zm-26.8 7.4C43 41.5 39.4 31.7 41.3 22S52.1 7.5 65.2 10.2"/><path fill="none" stroke="#000" stroke-linecap="round" d="M107.5 36.4s.6 2.6 3.4 4.2M109.3 35.1s1.5 2.2 4.7 2.7M108.2 19.5s.6-2.6 3.4-4.3M109.9 21.5s1.4-2.2 4.7-2.8"/><path fill="#7f7f7f" stroke="#000" d="M96.2 39.8s4.5 1 10.4-2.5c2.7-1.6 5.3-4.3 5.2-9.1-.1-7.1-4.9-10.2-7.3-11.6-5.1-3.1-9.2-1.2-9.2-1.2-3.8 0-11.4 5.7-11.1 12.3s5.7 11.4 12 12.1Z"/><path fill="undefined" stroke="#000" d="M109.7 28.3c0-.9.2-1.7.6-2.3s1-1 1.6-1 1.2.4 1.6.9c.4.6.7 1.4.7 2.3s-.2 1.7-.6 2.3-1 1-1.6 1-1.2-.4-1.6-.9-.7-1.4-.7-2.3Z"/><path fill="#fff" stroke="#000" d="M97.7 22.5c0-.9.3-1.7.9-2.3s1.4-1 2.3-1 1.7.3 2.3.9 1 1.4 1 2.3-.3 1.7-.9 2.3-1.4 1-2.3 1-1.7-.3-2.3-.9-1-1.4-1-2.3Z"/><path fill="undefined" d="M99.6 21.7q0-.9.6-1.5c.4-.4.9-.6 1.4-.6s1.1.2 1.5.6.6.9.6 1.4q0 .9-.6 1.5c-.4.4-.9.6-1.4.6s-1.1-.2-1.5-.6c-.4-.3-.6-.8-.6-1.4"/><path fill="#58595b" d="M98 26.1s-5.2-3.2-.1-7.3c.1 0 1.7 4 .1 7.3"/><path fill="undefined" d="M99.2 22.7c0 2.7-.8 4-.9 4-.2.2-.5.3-.7.1s-.3-.5-.1-.7c0 0 .8-1.2.7-3.9-.1-2.6-.6-3.2-.6-3.2-.2-.2-.2-.5 0-.7s.5-.2.8 0c.2.2.8 1 .9 3.9-.1.1-.1.3-.1.5"/><path fill="#fff" stroke="#000" d="M97.7 34c0-.9.3-1.7.9-2.3s1.4-1 2.3-1 1.7.3 2.3.9 1 1.4 1 2.3-.3 1.7-.9 2.3-1.4 1-2.3 1-1.7-.3-2.3-.9c-.7-.5-1-1.3-1-2.3Z"/><path fill="undefined" d="M99.4 33.2q0-.9.6-1.5c.4-.4.9-.6 1.4-.6q.9 0 1.5.6c.4.4.6.9.6 1.4q0 .9-.6 1.5c-.4.4-.9.6-1.4.6q-.9 0-1.5-.6c-.3-.3-.6-.8-.6-1.4"/><path fill="#58595b" d="M98.4 37.9s-5.5-2.7-.8-7.2c-.1 0 2 3.8.8 7.2"/><path fill="undefined" d="M99.2 34.4c.3 2.7-.4 4-.5 4.1-.1.3-.5.3-.7.2s-.3-.5-.2-.7c0 0 .7-1.3.3-4-.4-2.6-1-3.2-1-3.2-.2-.2-.3-.5-.1-.7s.5-.3.7-.1.9.9 1.3 3.8c.1.3.1.5.2.6"/><path fill="#57595b" stroke="#000" d="M92.3 33.2s-4.3-.2-7.7 1.7c-4.3 2.4-5.4 7.8-2.8 11s8 3.9 11 1.4c4.1-3.4 4-9.1 4-9.1M96.5 19s-.1-4.3-2.3-7.6C91.4 7.3 86 6.6 83 9.4c-3 2.9-3.3 8.2-.5 11 3.7 3.8 9.4 3.3 9.4 3.3"/><path fill="#58595b" stroke="#000" stroke-linejoin="round" d="M43.8 28.7c-4.9 1.7-12.1 1-22.5-4C8.9 18.6.5 9.7.5 9.5c0 0 11.9 9.1 21.2 13.4 9.8 4.4 16.7 4.7 21.3 3.1 2.3.8.9 2.6.9 2.6l-.1.1Z"/></svg>