<svg xmlns="http://www.w3.org/2000/svg" width="126.556" height="96.406" viewBox="0.17 -0.248 126.556 96.406"><path d="m81.796 16.943 11.529-2.149c1.486 3.156 2.534 6.877 6.437 8.251 12.774 4.519 14.454 23.482 16.106 24.48.104.589-5.951 1.007-6.229 1.516l-5.503 2.618c-5.998-5.703-13.619-11.748-15.327-13.178-10.274-8.621-6.154-17.622-7.013-21.538"/><path fill="#be8264" d="M75.019 26.894c-3.303-4.843-2.638-8.046-2.166-13.597 0 0 1.723-10.127 9.745-10.151L88.327 9.8s5.342 5.151 1.888 15.949c-1.01 3.156-4.998 5.356-6.852 5.727-5.385 1.074-7.381-3.166-8.344-4.582"/><path fill="#a06446" d="M74.641 20.911c.256-6.354-1.146-4.962-2.436-4.753-.624 1.298-.614 2.98-.378 4.886.209.138.409.39.588.361.757-.109 1.504-.314 2.226-.494"/><path d="M81.093 16.287s.444 9.452 13.525 12.988l3.992-3.925-8.631-10.095z"/><path fill="#008264" d="M71.947 13.497c3.842.09 18.051 2.267 21.977 2.229 1.213-6.397-3.728-14.457-12.109-14.348-10.915.148-9.835 12.119-9.868 12.119M87.837 16.187l8.999 3.669-2.789-3.793z"/><path fill="#be0a3c" d="m74.387 12.941 20.292-.784s.378 3.802.085 4.662c-2.204.475-19.688.689-20.646.413z"/><path fill="#f01446" d="M71.98 32.136c-.674-3.802-.877-21.757-.882-23.049 0-2.049.137-7.799.632-8.246 2.223-1.026 5.262-.399 5.262-.399s.562 7.476.651 10.013c.104 2.961.123 14.144-.089 16.463-.17 1.901.25 4.995-1.091 6.411-1.16.566-2.359.314-3.548.166a2.08 2.08 0 0 1-.935-1.359"/><path fill="#f0e6d2" d="M67.724 26.552c-.051-3.175-.043-8.122-.043-8.122h2.993l-.282 8.122zM67.753 12.779c-.052-3.174-.043-8.122-.043-8.122h2.992l-.282 8.127z"/><path fill="#f0e6d2" d="M63.859 19.176c9.306.086 3.232.148 11.665 0v-7.927l-11.656-.19zm10.051-6.035c0 1.169.048 4.196.048 4.196l-8.547.181.114-4.373s2.807.114 8.385-.004"/><path fill="#be8264" d="M81.253 21.386c-2.284-1.316-2.831-2.742.109-6.074 1.741-1.986 4.337-1.112 4.639 1.174.377 2.852-2.171 4.734-4.748 4.9M65.945 51.469l-5.243-5.845a89.5 89.5 0 0 1-17.277 12.157c-2.454 1.283-8.334 3.355-13.067 4.657-3.45.951-6.413 1.326-6.404 1.483 0 .37 2.473-.338 2.666.351s-2.477.742-2.869.837v.109l2.44.224c.241.18.387.366.25.703-.746.295-1.543 0-2.36.1.09.104.133.185.199.223q1.656.95 3.303 1.868.252.12.514.214c1.416.603 2.964.618 4.474.546a44.24 44.24 0 0 0 19.896-5.014c13.331-6.962 12.312-12.18 13.478-12.613"/><path fill="#be0a3c" d="M69.578 37.017s-8.584 5.133-12.958 9.144l8.055 10.455z"/><path fill="#f01446" d="M103.65 40.705s-29.56-6.549-31.995-5.385a12 12 0 0 0-4.191 3.327c-.396.475-6.054 29.29-5.729 29.57l20.896-2.571 15.838-7.666 9.91-7.737z"/><path fill="#6e1e3c" d="M95.392 35.135c-3.355-2.4-8.084-3.636-12.742-3.569-4.492.066-8.919 1.345-11.972 3.964-.071.912-4.167 26.775-4.247 27.64l35.478.285c-.033-.485-4.172-25.944-6.517-28.32"/><path fill="#00a08c" d="m41.415 81.543-.198-2.253 17.536-6.639-2.94 12.466z"/><path fill="#f01446" d="M95.666 94.194c-2.605-.247-8.495-6.287-8.495-6.287l-23.879-5.703-.854 11.824s19.74-.195 29.608-.195c.203-.124 2.728.988 3.303 1.193l.392-.233z"/><path fill="#00a08c" d="M41.415 81.543c.16.342-.401 2.828 2.765 6.131s6.923 4.966 15.866 6.116l2.751-12.081s-20.887-.123-21.382-.166"/><path fill="#6e1e3c" d="m64.595 95.658 3.502-14.486-6.282-.271-3.836 14.277zM72.707 81.305l-2.459-.104-3.836 14.276 2.44.176zM76.869 81.296l-2.458-.105-3.837 14.277 2.44.176z"/><path fill="#008264" d="m118.468 54.701-2.463-11.739c-2.591-.475-6.513 3.037-8.414 4.487-1.52 1.155-8.721 6.178-14.474 10.084-1.416.951-3.865 1.574-6.352 1.821-3.553-.043-7.13-.091-10.641.047-4.545.186-9.198-.437-13.686.589-5.79 1.322-12.269 4.601-16.686 9.349-3.842 4.111-4.545 9.951-4.545 9.951l42.944-.318c28.168 0 30.381-11.164 31.788-12.561 3.232-3.203-.382-8.264 2.529-11.71"/><path fill="#00a08c" d="M125.57 53.532c-.844-5.494-3.864-9.638-9.565-10.57-1.241 4.72-5.88 21.976-6.258 25.768l14.502-1.093c.949-4.467 2.025-9.547 1.321-14.105"/><path fill="#f01446" d="m109.974 65.109-.269.646c-2.265 9.462-4.582 19.039-7.735 28.206 2.044 0 3.337.176 4.932 0 1-.104 2.336 0 3.497-.157 0-.261.066-.522.108-.784h-2.426c.996-2.043 3.644-3.845 5.026-5.703a145 145 0 0 0 5.305-7.647c2.864-4.415 4.719-9.428 6.068-14.58z"/><path fill="#6e1e3c" d="m124.797 69.947-16.711-.38 1.557-6.178h16.583zM106.416 74.677l.618-3.014h16.743l-.528 3.014zM105.17 78.726l.613-3.014h16.748l-.533 3.014z"/><path fill="#be8264" d="m20.906 31.96 69.276-2.214-.156 10.118-70.154-.884z"/><path fill="#be0a3c" d="M103.65 40.705c-5.413.176-13.893.252-19.287.038-.472-1.046.661-12.09.661-12.09s7.437-.537 11.887 2.086c4.889 2.89 6.824 9.006 6.739 9.966"/><path fill="#824600" d="M14.152 24.713c-.169-.475-5.861-2.044-6.134-2.719-.755.832-3.422 2.814-3.927 3.631-.302.476-.627.951-.943 1.426l-.59.884c-.576.879-.784 1.901-1.119 2.875a15.5 15.5 0 0 0-.717 6.088c.108 1.759.783 3.389 1.378 5.024q.204.49.472.95c.085.157.179.304.259.475.43.818.845 1.64 1.279 2.453.076.137 2.945 2.343 3.115 2.528l7.834-10.075s-.652-12.932-.907-13.54"/><path fill="#642800" d="M11.576 26.661c-1.482 1.483-3.351 5.413-3.832 7.295-.618 2.4 0 4.658 1.048 6.873.202.18 1.675 3.003 1.963 3.26.269 0 7.192.822 7.192.822l3.067-16.748z"/><path fill="#a0640a" d="M7.017 23.43a2.85 2.85 0 0 1 .986-1.45c5.885-2.172 13.28-1.226 17.065 3.802 3.374 4.463 5.323 9.287 3.303 14.619-3.454 9.029-14.082 10.555-20.707 8.697-1.303-1.245-1.808-1.958-2.081-2.942a5.7 5.7 0 0 1 2.916-3.664c.307.066 2.444-.442 2.525-.423 4.063-.737 8.022-3.137 6.696-8.231-1.302-5.043-9.839-5.485-10.703-10.408"/></svg>