<svg xmlns="http://www.w3.org/2000/svg" width="58.705" height="79.548" viewBox="9.431 4.549 58.705 79.548"><g fill="#530063"><path d="M9.93 81.19 20.504 70.96l1.719-.088-9.11 12.068zM18.07 82.343l8.794-11.51 1.702-.327-7.02 13.091zM27.626 81.553l7.486-12.205 1.665-.489-5.524 13.597zM34.985 79.845l10.009-10.69 1.715-.168-8.433 12.444zM42.07 78.691l12.241-8.523 1.687.185-11.166 10.583zM50.084 79.431 60.09 68.743l1.719-.17-8.436 12.443zM57.027 80.4l3.737.547 2.538-8.914-2.39.23z"/></g><path fill="#530063" d="M41.107 25.225c-2.198 7.003-9.85 6.884-15.336 3.073 5.797.352 8.632-.38 13.728-3.152-5.896 1.655-10.567-3.81-11.21-8.736 0 0 9.319 5.327 11.98 3.962-4.64-3.7-1.093-11.538 3.918-15.323-1.742 5.508 1.694 13.773 1.694 13.773 2.037-6.16 8.68-10.64 14.178-10.489C56.472 11.9 53 15.165 50.034 20.417c3.173.344 4.96 5.008 2.907 9.034-3.52-3.88-8.262-1.385-11.834-4.226"/><path fill="#008dcd" d="m63.676 70.718-.99-2.164L41.67 22.679l-27.438 54.09 46.68-4.506 2.389-.23.935-.09z"/><path fill="#9b0096" d="M41.468 23.28c-6.424 9.06-14.681 5.53-18.169.083 5.131 2.236 8.752 1.226 14.475.238-6.012-.344-8.379-9.235-6.75-12.04 0 0 6.377 8.155 9.333 7.72-2.764-5.063 3.552-11.413 9.6-13.398-3.754 4.708-3.885 13.75-3.885 13.75 4.279-5.235 12.083-7.351 17.018-5.407-4.661 2.241-9.107 4.237-13.874 8.294 2.748 1.37 5.417 4.014 1.96 7.198-2.64-2.877-7.58-2.547-9.708-6.438"/><path fill="#80d3f4" d="M50.579 67.107c1.341-.598 1.066-1.776 1.8-2.897.974-1.525 4.697.884 5.866-.49 1.047-1.201-.197-3.481-2.269-5.094-2.27-1.762-3.886-3.5-6.341-3.852-2.418-.345-1.29 2.41-2.73 3.464-1.513 1.132-4.05-.301-5.975.405-1.812.687-1.694 3.087.339 5.094 3.21 2.495 6.804 4.43 9.31 3.37M28.306 70.958c1.87 1.31 4.665.542 6.236-1.258 1.294-1.46-1.8-2.617-1.462-4.455.374-1.9 2.035-2.742 2.03-4.616-.017-2.412-3.166-4.243-5.722-3.255-1.707 1.547-1.914 2.948-3.664 4.362-1.692 1.377-3.86 1.819-5.306 2.839l-1.514 2.984c.324 3.424 6.897 6.23 9.402 3.398M42.266 35.18c-.304.94-.586 2.115-.583 3.108 1.037.383 1.87 1.122 2.316 2.057 1.7-.099 3.158-.572 3.93-2.088.298-.438.371-.843.314-1.235l-.614-1.34c-.42-.629-.942-1.286-1.22-2.06a12 12 0 0 1-.449-1.582l-3.123-6.817c-.766-.262-1.72-.097-2.621.324l-2.697 5.314c.622 1.933 2.51 3.198 4.747 4.319"/><path fill="#80d3f4" d="M43.998 40.345c-.446-.933-1.278-1.674-2.316-2.056a4.76 4.76 0 0 0-2.337-.234c-3.618 1.187-6.847 3.232-6.792 6.66.057 1.859 1.29 2.562 2.083 4.24 1.086 2.26-2.646 4.038-1.778 6.37.745 2.062 3.406 2.697 5.744 1.93 2.555-.839 4.84-1.036 6.119-3.238 1.257-2.168-1.813-3.317-2.27-5.658-.505-2.481 1.838-3.865 1.902-6.409a3.6 3.6 0 0 0-.355-1.605"/><path fill="#9b0096" d="M11.91 78.221c-1.277-.384-.763-2.778.545-3.208 1.399-.459 3.6.465 5.041.128 2.367-.555 4.062-3.16 6.416-2.997 2.617.211 4.026 2.064 6.6 1.22 2.887-.948 5.04-2.769 7.664-1.624 3.442 1.497 6.044-1.537 9.936-2.014 2.015-.259 2.354 1.99 4.23 2.535 2.711.8 4.23-2.191 7.116-2.692 1.227-.226 1.644 1.198 2.854 1.38 1.856.326 2.881-.815 4.797-1.22.488 1.489 1.07 3.26-.463 4.073-3.187 1.715-6.143-1.503-9.276.372-2.054 1.21-2.964 3.156-5.355 3.183-4.634.05-7.687-3.314-11.714-.967-3.36 1.95-5.889-1.186-9.827-.694-2.059.273-2.278 2.349-4.219 2.986-2.437.8-4.326-1.088-6.539.186-5.043 2.903-7.857 1.332-7.807-.647"/></svg>