<svg xmlns="http://www.w3.org/2000/svg" width="68.115" height="80.214" viewBox="-0.237 0.282 68.115 80.214"><path fill="undefined" d="M28.565 1.172c2.874-.55 5.961-.51 8.868 0l13.302 3.695c4.49 1.275 12.11 15.692 14.78 24.88 2.26 8.284 2.892 18.294-.493 25.618-8.556 11.5-15.114 24.956-35.471 24.633h-6.897C12.094 76.105 9.167 64.58.977 58.32V47.482c0-12.335-1.621-12.937 0-15.765C6.153 17.82 18.168 10.136 28.565 1.172M7.874 50.438C15.604 59.263 18.366 69.5 29.55 71.13c13.438 1.958 27.83-7.458 31.53-15.765 10.048-22.56-7.104-56.4-28.574-51.237-17.339 7.306-24.013 24.736-24.633 46.31"/><path fill="#ff9400" d="M32.507 4.128c21.47-5.164 38.622 28.677 28.574 51.237-3.7 8.307-18.092 17.723-31.53 15.765C18.366 69.5 15.605 59.263 7.874 50.438c.62-21.574 7.294-39.004 24.633-46.31m-14.78 41.384c1.355 7.224 9.51 18.093 17.736 18.72 21.256 1.622 22.315-24.951 17.735-42.368C34.736.006 13.44 22.662 17.727 45.512"/><path fill="undefined" d="M53.198 21.864c4.58 17.417 3.52 43.99-17.735 42.369-8.227-.628-16.381-11.497-17.736-18.721C13.44 22.662 34.737.006 53.198 21.864M22.654 50.438c1.729 3.37 9.48 9.938 12.809 9.853 5.462-.14 11.59-9.83 11.823-18.72.382-14.553-5.594-24.736-20.691-21.678-3.226 6.494-9.135 20.428-3.941 30.545"/></svg>