<svg xmlns="http://www.w3.org/2000/svg" xml:space="preserve" width="155.585" height="135.76" viewBox="-0.151 -0.288 155.585 135.76"><title>Slice 1</title><g fill-rule="nonzero"><path fill="#e6be6e" d="M154.932 46.89c-.128-1.367-6.296-.401-6.276-2.544s5.569-1.603 4.794-2.38c-.435-.449-28.659-.585-52.972-.765v10.476c19.515.336 40.049.588 40.376.592 2.829 0 12.42-.024 12.153-.749-.268-.725-4.535-.729-4.207-2.455.328-1.727 6.26-.805 6.132-2.175"/><path fill="#be965a" d="M144.482 41.758c.283-.42.667-.4 1.03-.597 1.414-.801 2.964-1.75 2.956-2.404 0-.8-10.218 1.078-8.788 6.93 1.162 4.768 5.668 2.596 5.397-1.854-.04-.569-.863-1.65-.595-2.075"/><path fill="#e6be6e" d="M57.97 40.776c-24.957.193-55.677.32-56.132.802-.767.8 4.793.22 4.793 2.38 0 2.158-6.152 1.177-6.28 2.543-.127 1.366 5.801.433 6.129 2.163s-3.943 1.727-4.21 2.456c-.269.729 9.323.76 12.151.749.348 0 23.147-.285 43.544-.65z"/><path fill="#be965a" d="M10.818 41.357c-.284-.42-.671-.4-1.035-.597-1.41-.8-2.964-1.75-2.956-2.403 0-.801 10.219 1.077 8.789 6.93-1.163 4.767-5.665 2.596-5.397-1.855.04-.569.879-1.65.599-2.075"/><path fill="#006482" d="m65.404 72.475-7.08 4.006c.74 5.208 13.515 8.38 24.325 9.074s21.001-4.996 21.001-4.996z"/><path fill="#281446" d="M67.589 70.108h25.779V82.13H67.589z"/><path fill="#e6be6e" d="m91.514 108.116 5.669-6.67-.204-9.542-10.63-.489.767 10.408z"/><path fill="linen" d="m97.37 123.45-.187-22.004-10.191.28.81 20.884z"/><path fill="#281446" d="m99.871 96.33.248-21.808-16.59-.032 1.721 22.093z"/><path fill="#00a0dc" d="m105.28 133.774-6.607-.861-11.366.625.236 1.302 18.049.132z"/><path fill="#281446" d="M104.098 132.48a27 27 0 0 1-3.556-.428l-2.796-12.567H87.299v14.053l17.977.236a8 8 0 0 1-.4-1.05 3.2 3.2 0 0 0-.778-.244"/><ellipse cx="9.165" cy="51.438" fill="#00a0dc" rx="3.072" ry="3.081" transform="translate(83 74)"/><path fill="#006482" d="M99.108 122.481h-3.056l-.252-.78h3.168z"/><path fill="#00a0dc" d="M99.452 124.308H96.4l-.252-.785h3.164z"/><path fill="#006482" d="M99.8 126.13h-3.057l-.252-.784h3.168z"/><path fill="#00a0dc" d="M100.147 127.954H97.09l-.252-.786h3.168z"/><path fill="#006482" d="M100.49 129.776h-3.052l-.251-.78h3.168z"/><path fill="#e6be6e" d="m62.731 107.159-3.87-7.86 2.528-9.202 10.426 2.136-3.283 9.898z"/><path fill="linen" d="m53.311 120.59 5.55-21.29 9.814 2.771-5.88 20.05z"/><path fill="#00a0dc" d="m43.128 128.659 6.616.789 10.87 3.393-.548 1.202-17.533-4.299z"/><path fill="#281446" d="M44.59 127.697q1.76.345 3.548.457l5.792-11.501 5.849 1.482 4.278 1.082-3.431 13.62-17.482-4.178q.35-.439.636-.922c.267-.046.54-.06.81-.04"/><ellipse cx="15.877" cy="51.795" fill="#00a0dc" rx="3.072" ry="3.081" transform="translate(42 72)"/><path fill="#006482" d="m51.865 119.229 2.964.749.436-.701-3.072-.777z"/><path fill="#00a0dc" d="m51.086 120.911 2.96.75.436-.698-3.072-.777z"/><path fill="#006482" d="m50.307 122.594 2.96.749.436-.697-3.072-.777z"/><path fill="#00a0dc" d="m49.524 124.276 2.964.75.436-.698-3.072-.777z"/><path fill="#006482" d="m48.745 125.959 2.96.749.436-.697-3.072-.777z"/><path fill="#281446" d="m57.502 93.683 5.081-21.208 16.091 4.034-7.054 21z"/><path fill="#00a0dc" d="M106.994 53.68V40.268s-50.842-.51-54.114-.433v12.306c2.644.177 6.859.193 10.858.152l.52.02-5.933 24.156c2.568.974 6.511.4 9.256.457 3.927.068 7.862 0 11.78.12 7.655.257 16.635 3.918 24.29 3.501-.536-1.262-5.47-17.878-8.222-27.192h.4c3.687.14 7.93.325 11.165.325"/><path fill="#be965a" d="M73.166 32.088a15.2 15.2 0 0 1-5.122-.577 5.76 5.76 0 0 1-3.196-2.805c-.69-1.221-1.038-3.68 1.263-5.043 2.3-1.362 4.793.276 5.593 1.627.727 1.225 1.21 5.323 1.462 6.797"/><path fill="#642800" d="M70.31 29.928s-1.954-1.077-2.949-5.323c-.715-3.065-.887-9.006.324-11.566 2.892-6.113 5.82-9.333 5.82-9.333l4.426 15.923zM91.055 29.932s3.127-11.79.399-17.546-5.788-6.734-5.788-6.734l-3.049 9.35z"/><path fill="#e6be6e" d="M89.413 32.592c.437-2.183.704-4.397.799-6.621 2.193-3.43 7.941-4.768 7.386.965-.411 4.114-3.987 7.135-8.185 5.656"/><path fill="#e6be6e" d="m86.88 16.7-14.214-.055c-1.29 1.694-3.595 5.291-3.895 8.412 0 .136-.263 5.464 1.69 9.162 1.09 2.063 3.555 3.204 5.473 3.653 4.55 1.09 10.718.204 13.71-3.91 1.163-1.602 1.287-3.18 1.394-4.506.76-9.426-2.468-11.53-4.158-12.755"/><path fill="#642800" d="M89.485 18.828c-1.774.593-17.49 1.258-19.332.985-.399-2.523 9.588-19.6 9.588-19.6s9.743 16.123 9.743 18.615"/><path fill="#be965a" d="M78.419 26.5a10 10 0 0 1 2.025 4.005c-1.494.509-3.691.73-5.193.225-.016-1.487.719-4.29 3.168-4.23"/><path d="M76.485 33.65c.058.175.153.335.28.468q1.074-.016 2.141.105l.072-.048a.54.54 0 0 0 .184-.525c-.863-.052-1.794-.028-2.677 0M71.34 27.369c-.987 0-.6-1.395-.356-1.915a.546.546 0 0 1 .771.108 2.1 2.1 0 0 1-.415 1.806M83.616 27.56c-.975.133-.799-1.293-.62-1.842a.543.543 0 0 1 .8 0 2.08 2.08 0 0 1-.18 1.843"/><path fill="#642800" d="m84.647 17.454 6.46 10.03.559-8.288z"/></g></svg>