<svg xmlns="http://www.w3.org/2000/svg" width="65.4" height="316.3" viewBox="0.3 0.2 65.4 316.3"><path fill="#40b4e5" d="m.8.7 64.4 57.7V316H.8z"/><path fill="#79cef3" d="M15.6 49.1H19v7h-3.4zM15.6 61.3H19v7h-3.4zM15.6 72.2H19v7h-3.4zM15.6 83.8H19v7h-3.4zM15.6 96.6H19v7h-3.4zM8.3 103.6h3.4v7H8.3zM8.3 90.6h3.4v7H8.3zM8.3 77.6h3.4v7H8.3zM8.3 67h3.4v7H8.3zM8.3 139.3h3.4v7H8.3zM8.3 126.3h3.4v7H8.3zM8.3 115.7h3.4v7H8.3zM8.3 55.8h3.4v7H8.3zM42.6 64.7H46v7h-3.4zM42.6 76.9H46v7h-3.4zM42.6 87.8H46v7h-3.4zM42.6 99.4H46v7h-3.4zM42.6 112.3H46v7h-3.4zM35.3 119.3h3.4v7h-3.4zM35.3 106.3h3.4v7h-3.4zM35.3 93.2h3.4v7h-3.4zM35.3 82.6h3.4v7h-3.4zM35.3 71.4h3.4v7h-3.4zM49.4 119.3h3.4v7h-3.4zM49.4 106.3h3.4v7h-3.4zM49.4 93.2h3.4v7h-3.4zM49.4 82.6h3.4v7h-3.4zM49.4 71.4h3.4v7h-3.4zM29.1 90.7h3.4v7h-3.4zM29.1 102.9h3.4v7h-3.4zM29.1 113.9h3.4v7h-3.4zM29.1 138.3h3.4v7h-3.4zM22.1 145.3h3.4v7h-3.4zM22.1 119.3h3.4v7h-3.4zM22.1 108.7h3.4v7h-3.4z"/></svg>