<svg xmlns="http://www.w3.org/2000/svg" xml:space="preserve" width="114.7" height="253.812" viewBox="18.5 14.4 114.7 253.812"><title>fairy-d</title><g fill-rule="nonzero"><path fill="#c68652" d="M103.3 192.1c4.9-12.4 11-57-2.4-59.4-13.5-2.4-24 18-16.7 54.1 5.4 26.5 16.2 12.8 19.1 5.3"/><path fill="#8c5734" d="M82.2 172.4s.1 1.5.4 3.9c.1 1.2.3 2.5.5 3.9s.5 3 .8 4.5c.2.8.3 1.5.5 2.3.2.7.3 1.5.5 2.2s.3 1.4.5 2 .4 1.2.5 1.8c.2.5.4 1.1.5 1.5.2.4.3.8.4 1.1.2.6.4 1 .4 1s-.2-.3-.5-.9-.7-1.5-1.2-2.6c-.2-.5-.4-1.1-.7-1.8-.2-.6-.4-1.3-.6-2s-.4-1.4-.6-2.2c-.2-.7-.3-1.5-.5-2.3-.3-1.5-.5-3.1-.7-4.5s-.3-2.8-.3-4c0-2.3.1-3.9.1-3.9M107.9 142.3s.1.6.3 1.7.4 2.7.6 4.6.3 4.2.4 6.6c0 1.2.1 2.4 0 3.7 0 1.3 0 2.5-.1 3.8s-.2 2.6-.3 3.8c-.1 1.3-.3 2.5-.4 3.7s-.3 2.3-.5 3.4q-.3 1.65-.6 3c-.2.9-.4 1.8-.6 2.6s-.4 1.4-.5 2c-.3 1.1-.5 1.7-.5 1.7s.1-.6.4-1.7c.1-.5.3-1.2.4-2s.3-1.6.5-2.6c.2-.9.3-2 .5-3.1.1-1.1.3-2.2.4-3.4s.3-2.4.4-3.7.2-2.5.2-3.8c.1-1.3.1-2.5.1-3.8v-3.7c0-2.4-.1-4.6-.2-6.5-.2-3.8-.5-6.3-.5-6.3"/><path fill="#c68652" d="M85 197.1c-2.6 5.1-2.4 10.5-.9 21.8.9 7.4 4.2 19.8 5.6 30 .6 4.8 3.1 5 4.8 5.1 4.5.3 2-5 2.8-12 1.3-12.5 2.1-20.9 3.6-29.5 3.5-20.7 2.2-25.2-4-24.5-6.3.6-9.3 3.9-11.9 9.1"/><path fill="#8c5734" d="M86.5 194.7s-.3.3-.6.9q-.3.45-.6 1.2c-.2.5-.4 1-.6 1.6s-.4 1.2-.5 1.9-.3 1.4-.4 2.2-.2 1.5-.2 2.3c-.1.8-.1 1.6-.1 2.4v2.4c0 .8.1 1.6.1 2.4s.1 1.5.2 2.2.1 1.4.2 2c0 .6.1 1.2.2 1.7s.1.9.1 1.3c.1.7.1 1.1.1 1.1s-.1-.4-.2-1.1c-.1-.4-.2-.8-.3-1.3s-.2-1-.3-1.7c-.2-1.2-.4-2.7-.5-4.2-.1-.8-.1-1.6-.2-2.4 0-.8-.1-1.6 0-2.5.1-.8 0-1.7.1-2.5s.1-1.6.3-2.4c.1-.8.3-1.5.5-2.2s.4-1.3.6-1.9.5-1.1.7-1.6c.2-.4.5-.8.7-1.1.3-.4.7-.7.7-.7M102.1 204.2s-.2 1.8-.6 4.6c-.2 1.4-.4 3-.6 4.7s-.5 3.5-.7 5.4c-.3 1.8-.5 3.7-.7 5.4s-.4 3.3-.6 4.7c-.4 2.8-.6 4.6-.6 4.6v-1.3c0-.8.1-2 .2-3.4s.2-3 .4-4.7.4-3.6.6-5.4c.3-1.8.5-3.7.8-5.4s.6-3.3.8-4.7c.5-2.7 1-4.5 1-4.5"/><path fill="#c68652" d="M95.7 249.4c2.2.6 8.4 5.9 11.5 6.4 3.1.6 6.4 1.3 6.2 3.4s-5.3 3.5-7.1 3.5c-4.2.2-5.8-2.2-13.1-3.1-1.8-.2-3.9-.3-4.9-2.6s1.4-9.1 7.4-7.6"/><path fill="#f29c11" d="M106.2 262.7c-4.2.2-5.8-2.2-13.1-3.1-1.8-.2-3.9-.3-4.9-2.6-.3-.7-.3-1.7 0-2.7 3.6 3.2 10.5 4.1 15 4.8 4.9.7 6.5-1.4 6.8-2.6 1.9.5 3.4 1.3 3.3 2.7-.3 2.1-5.3 3.5-7.1 3.5"/><path fill="#e17522" d="M113.3 259.2s0 .1-.1.3-.2.5-.5.8c-.6.6-1.6 1.3-3 1.7-.7.2-1.5.4-2.3.5s-1.7.2-2.6.2-1.9-.1-2.8-.4-1.8-.6-2.7-1c-1.8-.7-3.6-1.3-5.3-1.6-.9-.1-1.7-.1-2.6-.3-.8-.2-1.6-.5-2.2-.9s-1.1-1-1.2-1.6c-.2-.6-.2-1.1-.1-1.5 0-.4.1-.7.2-1 .1-.2.1-.3.1-.3s0 .1-.1.3c0 .2-.1.5-.1 1 0 .4 0 .9.2 1.4s.6 1 1.2 1.4 1.3.6 2.1.8c.8.1 1.7.1 2.6.2 1.8.3 3.6.9 5.4 1.5.9.3 1.8.7 2.6 1 .9.3 1.8.4 2.6.4.9 0 1.7-.1 2.5-.1.8-.1 1.6-.2 2.2-.4q2.1-.6 3-1.5c.3-.3.5-.6.6-.8.3 0 .3-.1.3-.1"/><path fill="#8c5734" d="M108.9 256.2s-.8 0-1.9-.2c-.6-.1-1.2-.3-1.9-.5s-1.4-.7-2-1.1c-1.2-.9-2.4-1.8-3.3-2.4-.9-.7-1.5-1.2-1.5-1.2s.7.3 1.7.8 2.3 1.3 3.5 2.2l.9.6c.3.2.6.3.9.5.6.3 1.2.5 1.8.7 1 .4 1.8.6 1.8.6"/><path fill="#e17522" d="M110 256.5v.4c0 .1-.1.3-.1.4-.1.2-.1.4-.3.5-.2.4-.6.8-1.1 1-.2.1-.5.3-.8.3-.3.1-.6.1-.9.2-.3 0-.6.1-.9.1h-.8c-.5 0-1-.1-1.5-.2-.4-.1-.8-.2-1-.3s-.4-.1-.4-.1h2.8c.5 0 1.1-.1 1.6-.1.3-.1.5-.1.8-.2.2-.1.5-.1.7-.3.5-.2.8-.5 1.1-.7l.4-.4c.1-.1.2-.3.2-.4.2-.1.2-.2.2-.2"/><path fill="#ffe7ab" d="M82.3 95.1c-4.7-10.5-37.3 7.5-39 25.6-1.8 18 55.1 10 39-25.6"/><path fill="#ffd878" d="M81.4 93.7s-.2-.1-.5-.2c-.3-.2-.8-.3-1.3-.5-.6-.2-1.3-.4-2.2-.5-.8-.1-1.8-.1-2.9 0-1 .1-2.2.3-3.3.6-1.2.4-2.4.8-3.6 1.3s-2.5 1.1-3.7 1.7c-.6.3-1.2.7-1.8 1s-1.2.7-1.8 1.1l-1.8 1.2c-.6.4-1.1.8-1.7 1.2s-1.1.9-1.6 1.3-1 .9-1.5 1.4l-1.4 1.4c-.4.5-.9.9-1.3 1.4-.8.9-1.5 1.8-2.2 2.6q-1.95 2.55-3 4.2c-.7 1-1 1.7-1 1.7s.3-.7.8-1.8c.6-1.1 1.4-2.7 2.7-4.4.6-.9 1.3-1.8 2.1-2.8s1.6-2 2.6-2.9c.5-.5 1-1 1.5-1.4.5-.5 1-.9 1.6-1.4.5-.5 1.1-.9 1.7-1.3s1.2-.9 1.8-1.2c1.2-.7 2.5-1.4 3.8-2.1 1.3-.6 2.5-1.2 3.8-1.7 1.2-.5 2.5-.9 3.7-1.2s2.4-.5 3.5-.5c1.1-.1 2.1 0 3 .2s1.6.4 2.2.7 1 .5 1.3.7c.3.1.5.2.5.2M84.3 100.7s.2.5.4 1.5c.1.5.2 1.1.3 1.7.1.7.2 1.4.2 2.3.1.8 0 1.7 0 2.7-.1 1-.2 2-.4 3-.1.3-.1.5-.2.8s-.2.5-.2.8c-.2.5-.3 1.1-.6 1.6-.2.5-.5 1-.7 1.5l-.9 1.5c-.3.5-.7.9-1 1.4-.4.4-.7.9-1.1 1.3-.8.8-1.5 1.6-2.4 2.2-.4.3-.8.7-1.2 1s-.8.5-1.3.8c-.4.3-.8.5-1.2.7l-1.2.6c-.7.4-1.4.7-2.1 1-.6.2-1.2.4-1.6.6-.9.3-1.4.5-1.4.5s.5-.3 1.4-.7l1.6-.8c.6-.3 1.2-.7 1.9-1.1.4-.2.7-.4 1.1-.6.4-.3.7-.5 1.1-.8s.8-.6 1.2-.8c.4-.3.8-.6 1.1-1 .8-.6 1.5-1.4 2.2-2.2.4-.4.7-.8 1-1.2s.7-.8.9-1.3l.8-1.4c.2-.5.5-1 .7-1.4.3-.5.4-1 .6-1.5l.3-.7c.1-.2.1-.5.2-.7.3-1 .4-2 .6-2.9.1-.9.2-1.8.1-2.6 0-1.6-.1-3-.2-4z"/><path fill="#ffe7ab" d="M84.2 83.3C81 66.4 56.3 28.4 19 16.7c0 0 17.8 70.1 34.5 82.4s35.3 8.6 30.7-15.8"/><path fill="#ffd878" d="M84.9 90.6s0-.4.1-1.2c0-.4-.1-.8-.1-1.4-.1-.5-.2-1.2-.3-1.9-.3-1.4-.7-3.1-1.3-4.9-.6-1.9-1.4-3.9-2.4-6.2-1-2.2-2.2-4.6-3.5-7s-2.8-5-4.5-7.5-3.4-5.1-5.4-7.7c-1.9-2.5-4-5-6.1-7.5l-3.3-3.6c-1.1-1.2-2.2-2.3-3.4-3.4-1.1-1.1-2.3-2.1-3.5-3.2-1.2-1-2.4-2-3.5-3-2.4-1.9-4.7-3.6-7.1-5.1-2.3-1.5-4.6-2.9-6.7-4.1-1.1-.6-2.1-1.1-3.1-1.6s-2-.9-2.8-1.3c-1.8-.8-3.4-1.4-4.7-2-2.8-.8-4.3-1.3-4.3-1.3s.4.1 1.1.3 1.8.5 3.2 1c1.3.5 3 1 4.8 1.8.9.4 1.9.8 2.9 1.2 1 .5 2 1 3.1 1.6 2.2 1.1 4.5 2.4 6.8 3.9 1.2.7 2.4 1.6 3.6 2.4s2.4 1.8 3.6 2.7c1.2 1 2.4 1.9 3.6 3s2.4 2.1 3.5 3.2c1.2 1.1 2.3 2.2 3.5 3.4 1.2 1.1 2.2 2.4 3.3 3.6 2.1 2.5 4.2 5 6.1 7.6s3.7 5.2 5.3 7.8c3.3 5.2 5.9 10.3 7.7 14.8 1 2.2 1.7 4.4 2.3 6.3s.9 3.6 1.2 5c.1.7.2 1.3.2 1.9v1.4c.1.5.1 1 .1 1M74.4 105.6s-.9.1-2.5.1h-2.8c-.6 0-1.1-.1-1.8-.1-.6 0-1.3-.2-1.9-.3-.7-.1-1.4-.3-2.1-.5-.4-.1-.7-.2-1.1-.3s-.7-.3-1.1-.4-.7-.3-1.1-.4-.7-.4-1.1-.6-.7-.4-1.1-.6l-.6-.3-.5-.4-2.1-1.5c-.7-.6-1.3-1.2-2-1.8s-1.3-1.3-1.9-1.9c-.6-.7-1.3-1.3-1.8-2s-1.1-1.5-1.6-2.2l-.8-1.1-.7-1.1c-.9-1.5-1.9-3-2.7-4.5s-1.6-2.9-2.2-4.3-1.2-2.8-1.8-4c-.3-.6-.6-1.2-.8-1.8-.1-.6-.3-1.1-.5-1.6-.4-1-.7-1.9-1-2.7-.5-1.5-.8-2.3-.8-2.3s.4.8 1 2.3c.3.7.7 1.6 1.1 2.6q.6 1.5 1.5 3.3c.6 1.2 1.2 2.5 1.9 3.9s1.5 2.8 2.3 4.2c.8 1.5 1.8 2.9 2.7 4.4l.7 1.1.8 1.1c.5.7 1.1 1.4 1.6 2.1s1.2 1.3 1.7 2c.6.7 1.2 1.3 1.8 1.9s1.3 1.2 1.9 1.7c.7.5 1.4 1 2 1.5l.5.4.5.3c.4.2.7.4 1 .6s.7.4 1 .6c.4.2.7.3 1.1.5.3.2.7.3 1 .5.3.1.7.2 1 .3.7.2 1.3.4 2 .6 1.3.3 2.5.4 3.6.6 1.1.1 2 .1 2.8.2 2-.1 2.9-.1 2.9-.1"/><path fill="#ffe7ab" d="M89.6 93.4c3.2-10.5 25.5 7.5 26.6 25.6s-37.6 10-26.6-25.6"/><path fill="#ffd878" d="m90.2 91.9.3-.3c.2-.2.5-.4.9-.7s1-.5 1.7-.7q1.05-.3 2.4 0c1.7.3 3.6 1.2 5.4 2.4.9.6 1.8 1.2 2.7 1.9.5.3.9.7 1.3 1.1l1.2 1.2c.4.4.8.8 1.2 1.3.4.4.7.9 1.1 1.3.7.9 1.3 1.8 1.9 2.7 1.1 1.8 2 3.6 2.7 5.2 1.4 3.1 2 5.3 2 5.3s-.2-.5-.6-1.4c-.2-.5-.4-1-.7-1.6s-.7-1.3-1-2.1c-.8-1.5-1.7-3.2-2.9-5-.6-.9-1.2-1.8-1.9-2.7-.3-.4-.7-.9-1.1-1.3s-.7-.8-1.1-1.2l-1.2-1.2c-.4-.4-.8-.8-1.3-1.1-.9-.7-1.7-1.4-2.6-2s-1.8-1.1-2.6-1.6c-.9-.4-1.7-.8-2.5-.9-.8-.2-1.6-.2-2.2-.1-.7.1-1.2.3-1.7.5-.4.2-.8.4-1 .6-.3.4-.4.4-.4.4M88.3 99s0 .5-.1 1.4-.1 2.1-.1 3.6c0 .7 0 1.5.1 2.4 0 .8.2 1.7.2 2.6.2.9.3 1.8.5 2.8.2.9.5 1.9.8 2.8.4.9.7 1.8 1.2 2.7.4.9.9 1.6 1.4 2.4.5.7 1.1 1.4 1.6 2.1.6.6 1.1 1.2 1.7 1.7s1.1.9 1.5 1.3c.5.4.9.7 1.3.9.7.5 1.1.8 1.1.8s-.4-.2-1.2-.7c-.4-.2-.9-.5-1.3-.8-.5-.4-1.1-.8-1.6-1.2-.6-.5-1.2-1.1-1.8-1.6q-.9-.9-1.8-2.1c-.5-.8-1.1-1.6-1.5-2.5-.5-.9-.9-1.8-1.3-2.7-.3-1-.6-1.9-.8-2.9s-.3-1.9-.5-2.9c-.1-.9-.2-1.8-.1-2.7 0-.9 0-1.7.1-2.4.1-1.5.3-2.7.4-3.6s.2-1.4.2-1.4"/><path fill="#ffe7ab" d="M88.3 81.5c2.2-16.9 19-54.8 44.4-66.6 0 0-12.1 70.1-23.5 82.4s-24 8.7-20.9-15.8"/><path fill="#ffd878" d="M87.8 88.8s0-.4-.1-1c0-.7 0-1.6.1-2.9.1-1.2.3-2.7.6-4.4s.7-3.6 1.3-5.6c1.1-4.1 2.6-8.8 4.6-13.7s4.4-10 7.1-14.9c1.4-2.4 2.9-4.9 4.4-7.2s3.2-4.5 4.8-6.6q2.55-3.15 5.1-5.7l2.5-2.5c.4-.4.8-.8 1.2-1.1.4-.4.8-.7 1.3-1 .8-.7 1.6-1.3 2.4-1.9s1.5-1.1 2.3-1.5c.7-.5 1.4-.9 2-1.3.7-.4 1.3-.7 1.8-1 1.1-.6 2-.9 2.6-1.2s.9-.4.9-.4-.3.2-.9.4c-.6.3-1.5.7-2.5 1.3-.5.3-1.1.7-1.8 1-.6.4-1.3.9-2 1.3-.7.5-1.4 1-2.2 1.6l-1.2.9c-.4.3-.8.7-1.2 1s-.8.7-1.2 1c-.4.4-.8.8-1.2 1.1L116 27q-2.25 3-4.8 6c-1.6 2.1-3.2 4.3-4.7 6.6s-3 4.7-4.4 7.1c-5.5 9.8-9.7 20.3-12 28.4-.6 2-1 3.9-1.4 5.6s-.6 3.1-.8 4.4c-.1 1.2-.2 2.2-.2 2.8.1.6.1.9.1.9M95 103.9s.8 0 2.1-.1q1.05 0 2.4-.3c.5-.1.9-.2 1.4-.4q.75-.15 1.5-.6c.3-.1.5-.2.8-.4.2-.2.5-.3.8-.5s.5-.3.8-.5c.2-.2.5-.4.7-.6s.5-.4.7-.6l.7-.7c.4-.5 1-1 1.4-1.6s.9-1.1 1.3-1.7.8-1.2 1.2-1.9c.8-1.2 1.5-2.6 2.2-4l.5-1 .5-1 .9-2.1c.6-1.4 1.1-2.8 1.6-4.1.3-.7.5-1.3.7-2s.4-1.3.6-1.9c.4-1.2.8-2.4 1.2-3.5 1.4-4.4 2.3-7.3 2.3-7.3s-.2.7-.5 2c-.2.7-.3 1.4-.6 2.3-.2.9-.4 1.9-.8 3-.3 1.1-.7 2.3-1.1 3.6-.2.6-.4 1.3-.6 1.9-.2.7-.5 1.3-.7 2-.5 1.3-.9 2.8-1.6 4.1l-.9 2.1-.5 1.1-.5 1c-.7 1.4-1.4 2.8-2.2 4-.4.6-.8 1.3-1.2 1.9-.5.6-.9 1.2-1.3 1.8s-1 1.1-1.5 1.6c-.3.2-.5.5-.7.7-.3.2-.5.4-.8.6s-.5.4-.8.6-.6.3-.8.5c-.3.2-.5.3-.8.5s-.6.2-.8.4c-.5.2-1.1.4-1.6.5s-1 .3-1.5.3c-.9.1-1.8.1-2.4.1-1.4.3-2.1.2-2.1.2"/><path fill="#c68652" d="M77.9 197.1c4.9-12.4 11-57-2.4-59.4-13.5-2.4-24 18-16.7 54.1 5.4 26.5 16.1 12.8 19.1 5.3"/><path fill="#8c5734" d="M56.8 177.4s.1 1.5.4 3.9c.1 1.2.3 2.5.5 3.9s.5 3 .8 4.5c.2.8.3 1.5.5 2.3.2.7.3 1.5.5 2.2s.3 1.4.5 2 .4 1.2.5 1.8c.2.5.4 1.1.5 1.5.2.4.3.8.4 1.1.2.6.4 1 .4 1s-.2-.3-.5-.9-.7-1.5-1.2-2.6c-.2-.5-.4-1.1-.7-1.8-.2-.6-.4-1.3-.6-2s-.4-1.4-.6-2.2c-.2-.7-.3-1.5-.5-2.3-.3-1.5-.5-3.1-.7-4.5s-.3-2.8-.3-4c0-2.3.1-3.9.1-3.9M82.5 147.3s.1.6.3 1.7.4 2.7.6 4.6.3 4.2.4 6.6c0 1.2.1 2.4 0 3.7 0 1.3 0 2.5-.1 3.8s-.2 2.6-.3 3.8c-.1 1.3-.3 2.5-.4 3.7s-.3 2.3-.5 3.4q-.3 1.65-.6 3c-.2.9-.4 1.8-.6 2.6s-.4 1.4-.5 2c-.3 1.1-.5 1.7-.5 1.7s.1-.6.4-1.7c.1-.5.3-1.2.4-2s.3-1.6.5-2.6c.2-.9.3-2 .5-3.1.1-1.1.3-2.2.4-3.4s.3-2.4.4-3.7.2-2.5.2-3.8c.1-1.3.1-2.5.1-3.8v-3.7c0-2.4-.1-4.6-.2-6.5-.2-3.8-.5-6.3-.5-6.3"/><path fill="#c68652" d="M59.6 202.1c-2.6 5.1-2.4 10.5-.9 21.8.9 7.4 4.2 19.8 5.6 30 .6 4.8 3.1 5 4.8 5.1 4.5.3 2-5 2.8-12 1.3-12.5 2.1-20.9 3.6-29.5 3.5-20.7 2.2-25.2-4-24.5-6.3.6-9.3 3.9-11.9 9.1"/><path fill="#8c5734" d="M61 199.7s-.3.3-.6.9q-.3.45-.6 1.2c-.2.5-.4 1-.6 1.6s-.4 1.2-.5 1.9c-.1.3-.1.7-.2 1.1s-.1.7-.2 1.1c-.1.8-.2 1.6-.2 2.4-.1.8-.1 1.6-.1 2.5v2.5c0 .8.1 1.6.1 2.4s.1 1.5.1 2.2c.1.7.1 1.4.2 2s.1 1.2.2 1.7.1.9.1 1.3c.1.7.1 1.1.1 1.1s-.1-.4-.2-1.1c-.1-.4-.2-.8-.3-1.3s-.2-1.1-.3-1.7-.2-1.3-.3-2-.2-1.5-.2-2.3-.1-1.6-.1-2.4-.1-1.7 0-2.5c0-.8 0-1.7.1-2.5s.1-1.6.3-2.4c.1-.4.1-.8.2-1.1.1-.4.2-.7.3-1.1.2-.7.4-1.4.6-2s.4-1.1.7-1.6c.2-.5.5-.8.7-1.1.4-.5.7-.8.7-.8M76.7 209.2s-.2 1.8-.6 4.6c-.2 1.4-.4 3-.6 4.7s-.5 3.5-.7 5.4c-.3 1.8-.5 3.7-.7 5.4s-.4 3.3-.6 4.7c-.4 2.8-.6 4.6-.6 4.6v-1.3c0-.8.1-2 .2-3.4s.2-3 .4-4.7.4-3.6.6-5.4c.3-1.8.5-3.7.8-5.4s.6-3.3.8-4.7c.5-2.7 1-4.5 1-4.5"/><path fill="#c68652" d="M70.2 254.4c2.2.6 8.4 5.9 11.5 6.4s6.4 1.3 6.2 3.4-5.3 3.5-7.1 3.5c-4.2.2-5.8-2.2-13.1-3.1-1.8-.2-3.9-.3-4.9-2.6s1.5-9.1 7.4-7.6"/><path fill="#f29c11" d="M80.8 267.7c-4.2.2-5.8-2.2-13.1-3.1-1.8-.2-3.9-.3-4.9-2.6-.3-.7-.3-1.7 0-2.7 3.6 3.2 10.5 4.1 15 4.8 4.9.7 6.5-1.4 6.8-2.6 1.9.5 3.4 1.3 3.3 2.7-.3 2.1-5.4 3.5-7.1 3.5"/><path fill="#e17522" d="M87.9 264.2s0 .1-.1.3-.2.5-.5.8c-.6.6-1.6 1.3-3 1.7-.7.2-1.5.4-2.3.5s-1.7.2-2.6.2-1.9-.1-2.8-.4-1.8-.6-2.7-1c-1.8-.7-3.6-1.3-5.3-1.6-.9-.1-1.7-.1-2.6-.3-.8-.2-1.6-.5-2.2-.9s-1.1-1-1.2-1.6c-.2-.6-.2-1.1-.1-1.5 0-.4.1-.7.2-1 .1-.2.1-.3.1-.3s0 .1-.1.3c0 .2-.1.5-.1 1 0 .4 0 .9.2 1.4s.6 1 1.2 1.4 1.3.6 2.1.8c.8.1 1.7.1 2.6.2 1.8.3 3.6.9 5.4 1.5.9.3 1.8.7 2.6 1 .9.3 1.8.4 2.6.4.9 0 1.7-.1 2.5-.1.8-.1 1.6-.2 2.2-.4q2.1-.6 3-1.5c.3-.3.5-.6.6-.8.2 0 .3-.1.3-.1"/><path fill="#8c5734" d="M83.4 261.2s-.8 0-1.9-.2c-.6-.1-1.2-.3-1.9-.5s-1.4-.7-2-1.1c-1.2-.9-2.4-1.8-3.3-2.4-.9-.7-1.5-1.2-1.5-1.2s.7.3 1.7.8 2.3 1.3 3.5 2.2l.9.6c.3.2.6.3.9.5.6.3 1.2.5 1.8.7 1.1.4 1.8.6 1.8.6"/><path fill="#e17522" d="M84.6 261.5v.4c0 .1-.1.3-.1.4-.1.2-.1.4-.3.5-.2.4-.6.8-1.1 1-.2.1-.5.3-.8.3-.3.1-.6.1-.9.2-.3 0-.6.1-.9.1h-.8c-.5 0-1-.1-1.5-.2-.4-.1-.8-.2-1-.3s-.4-.1-.4-.1h2.8c.5 0 1.1-.1 1.6-.1.3-.1.5-.1.8-.2.2-.1.5-.1.7-.3.5-.2.8-.5 1.1-.7l.4-.4c.1-.1.2-.3.2-.4.2-.1.2-.2.2-.2"/><path fill="#c68652" d="M102.8 85.7c3.9-1.2 8.2 4.3 9.3 20.3s2.6 29.1-3.4 28.1c-5.6-.9-17.4-44.8-5.9-48.4"/><path fill="#8c5734" d="M106.3 86.7s.1 0 .3.2c.2.1.4.3.7.6s.6.6.9 1.1.6 1 .9 1.6.6 1.3.9 2 .5 1.5.8 2.3c.2.8.4 1.7.6 2.5.2.9.4 1.7.5 2.6s.2 1.8.4 2.6c.1.9.2 1.7.2 2.6.1.8.1 1.6.1 2.4s.1 1.5.1 2.2v4.4s-.2-1.8-.3-4.4c-.1-1.3-.2-2.9-.4-4.5-.1-.8-.2-1.7-.3-2.6s-.3-1.7-.4-2.6-.3-1.7-.5-2.6-.4-1.7-.6-2.5c-.3-.8-.4-1.6-.7-2.3-.2-.7-.5-1.4-.8-2-.1-.3-.3-.6-.4-.9s-.3-.5-.4-.8c-.3-.5-.5-.8-.8-1.1l-.6-.6zM98.1 100.9l.5 4c.1 1.2.4 2.6.6 4.1s.5 3.1.9 4.6c.3 1.6.7 3.1 1.1 4.6.4 1.4.7 2.8 1.1 3.9.2.6.3 1.1.5 1.6s.3.9.4 1.2c.2.7.4 1 .4 1l-.5-1c-.3-.6-.7-1.6-1.1-2.7-.2-.6-.4-1.2-.7-1.8-.2-.7-.5-1.3-.7-2.1-.4-1.4-.8-3-1.1-4.6s-.6-3.2-.8-4.7-.3-2.9-.4-4.1-.1-2.2-.1-2.9c-.1-.7-.1-1.1-.1-1.1"/><path fill="#c68652" d="M112.3 124c1.7 5.1 4.2 35.6 2.1 39.7-3.4 6.5-10.2-26.1-10.2-31.2-.1-8.6 6.5-13.3 8.1-8.5"/><path fill="#8c5734" d="M104.2 131.4s0 .5.1 1.3.2 1.9.4 3.3.5 2.9.8 4.6.7 3.5 1.2 5.3c.4 1.8.9 3.6 1.3 5.2.4 1.7.9 3.2 1.2 4.5.8 2.7 1.3 4.4 1.3 4.4s-.2-.4-.5-1.2-.7-1.8-1.1-3.1-1-2.8-1.4-4.5c-.5-1.7-1-3.4-1.4-5.2s-.8-3.6-1.1-5.3-.5-3.3-.6-4.7-.2-2.5-.2-3.3c-.1-.8 0-1.3 0-1.3M113.1 128s.3 1.6.6 4.1c.2 1.2.4 2.7.5 4.2.1 1.6.3 3.2.5 4.9.1 1.7.2 3.3.3 4.9s.1 3 .1 4.3v4.2s-.2-1.7-.4-4.1c-.2-2.5-.5-5.8-.7-9.1-.3-3.3-.5-6.6-.7-9.1-.1-2.6-.2-4.3-.2-4.3"/><path fill="#c68652" d="M117.2 170.4c0-2.4-1.1-7.5-2.9-9.2s-3.4-.1-4.6 1.7-4.8 12-2.9 10.8 3.5-6.7 3.3-3.7c-.1.9-.1 2.4.3 3.9.5 2.9 1.5 6.2 2.1 6.5.2.2.4-.3.5-1 .5 1 1.1 1.8 1.4 2 .9.6 1.7-3.2 2.3-6.6.1 1.6.6 3.1 1 3.3.9.5-.5-7.7-.5-7.7"/><path fill="#8c5734" d="M112.6 172.6s.2.4.3 1.1c.2.6.3 1.5.4 2.4s0 1.8-.1 2.4c-.1.7-.3 1.1-.3 1.1v-.3c0-.2 0-.5-.1-.8-.1-.7-.1-1.5-.2-2.4s-.1-1.7-.1-2.4c.1-.6.1-1.1.1-1.1M114.7 173.1s.2.5.3 1.3c.2.8.2 1.9.2 3 0 .5-.1 1.1-.1 1.6-.1.5-.2 1-.3 1.4-.2.8-.4 1.3-.4 1.3v-.4c0-.2 0-.6.1-1 .1-.8.1-1.8.1-2.9 0-1 .1-2.1.1-2.9zM116.4 173.2s.1 0 0 0c.1.2.2.3.2.4.1.3.1.6.2.9 0 .3 0 .7-.1 1s-.1.4-.1.4 0-.2-.1-.4c0-.3-.1-.6-.1-.9v-.9c0-.4.1-.5 0-.5M114.8 161.9l.3.3q.3.3.6.9c.4.8.9 1.9 1.1 3.1.3 1.2.4 2.3.5 3.2v1.5s-.2-.6-.4-1.4c-.2-.9-.4-2-.7-3.1s-.6-2.2-.8-3.1c-.4-.8-.6-1.4-.6-1.4M106.7 173.8l.2-.2c.1-.1.2-.3.4-.5.3-.4.7-1 1-1.6.4-.6.8-1.2 1.1-1.6s.6-.7.6-.7-.1.4-.3.9-.5 1.1-.9 1.7-.9 1.2-1.3 1.5c-.4.4-.8.5-.8.5"/><path fill="#f29c11" d="M94.1 121.2c3.4 2.7 12.9 10.2 22.1 28.7s5.2 33.7 2.8 34.8c-2.4 1-15.9-6.9-22-21.6s-9-35.2-8.7-38.1c.3-2.8 2.5-6.5 5.8-3.8"/><path fill="#e17522" d="M88.7 123.5s-.1.3-.1.8c-.1.5-.1 1.2-.1 2.2 0 1.9.3 4.6.9 7.8s1.4 6.9 2.3 10.8 2 8.1 3.3 12.2 3 8.1 5.1 11.6c1 1.7 2.2 3.3 3.3 4.8s2.4 2.7 3.5 3.8c1.2 1.1 2.3 2.1 3.4 2.9 1 .8 2 1.5 2.8 2s1.4.9 1.9 1.2c.4.3.7.4.7.4s-.2-.1-.7-.4c-.4-.3-1.1-.6-1.9-1.1s-1.8-1.1-2.8-1.9c-1.1-.8-2.2-1.7-3.4-2.8s-2.4-2.4-3.6-3.8-2.3-3-3.4-4.8c-2.1-3.5-3.8-7.5-5.2-11.6-1.3-4.1-2.4-8.3-3.3-12.3s-1.6-7.7-2.2-10.9-.8-5.9-.8-7.8c0-.9.1-1.7.1-2.2.1-.7.2-.9.2-.9M121.6 166.9s-.1-.8-.4-2.3-.8-3.5-1.6-5.9-1.9-5.2-3.2-8.1c-1.4-2.8-3-5.9-4.7-8.8-.9-1.5-1.8-2.9-2.7-4.3s-1.9-2.7-2.8-4c-1-1.3-1.9-2.5-2.9-3.6-.9-1.1-1.9-2.1-2.8-3s-1.7-1.7-2.5-2.4-1.4-1.3-2-1.8c-1.1-1-1.8-1.5-1.8-1.5s.7.5 1.8 1.5c.6.5 1.2 1.1 2 1.8s1.6 1.5 2.5 2.4 1.9 1.9 2.8 3c1 1.1 2 2.3 2.9 3.6 1 1.3 1.9 2.6 2.9 4 .9 1.4 1.9 2.8 2.7 4.3 1.7 2.9 3.3 6 4.7 8.8 1.4 2.9 2.4 5.7 3.2 8.1 1.6 4.8 1.9 8.2 1.9 8.2"/><path fill="#f29c11" d="M93.5 125.8c3.2 3.2 12.2 12 18.8 32s-.8 34.7-3.6 35.4-16.2-9.2-20.1-24.8-3.2-36.6-2.2-39.6c.8-2.8 3.9-6.2 7.1-3"/><path fill="#e17522" d="M87 127.3s-.1.2-.3.7-.3 1.2-.5 2.2c-.3 1.9-.5 4.7-.4 8s.3 7.2.5 11.3c.3 4.1.6 8.5 1.4 12.9.7 4.3 1.8 8.6 3.5 12.4.8 1.9 1.8 3.6 2.7 5.2.5.8 1 1.5 1.5 2.3.6.7 1 1.4 1.6 2 .5.6 1 1.2 1.6 1.8q.75.9 1.5 1.5c1 1 1.8 1.7 2.6 2.3.7.6 1.4 1.1 1.8 1.4s.6.5.6.5-.2-.2-.6-.5-1.1-.7-1.8-1.3c-.8-.6-1.7-1.3-2.7-2.2s-2.1-2-3.2-3.2c-.6-.6-1.1-1.3-1.7-2-.5-.7-1.1-1.5-1.6-2.3-1.1-1.6-2-3.4-2.9-5.3-1.7-3.8-2.9-8.2-3.6-12.5-.7-4.4-1.1-8.8-1.3-13-.1-2.1-.2-4.1-.2-6s-.1-3.7-.1-5.4c0-3.3.3-6.1.7-8 .2-1 .4-1.7.6-2.2.2-.3.3-.6.3-.6M115 175.6s0-.9-.1-2.4-.3-3.7-.7-6.2c-.2-1.3-.5-2.7-.9-4.1-.3-1.4-.8-2.9-1.3-4.5-1-3.1-2.2-6.3-3.6-9.5-.7-1.6-1.4-3.2-2.1-4.7-.4-.8-.8-1.5-1.2-2.2s-.8-1.5-1.2-2.2-.8-1.4-1.2-2c-.4-.7-.8-1.3-1.2-1.9-.8-1.2-1.7-2.4-2.4-3.4-.8-1-1.5-2-2.2-2.8q-1.05-1.2-1.8-2.1c-1-1.1-1.6-1.8-1.6-1.8l1.7 1.7c.6.5 1.2 1.2 1.9 2s1.5 1.7 2.3 2.7 1.7 2.1 2.5 3.4c.4.6.9 1.2 1.3 1.9s.9 1.3 1.3 2 .8 1.4 1.2 2.2c.4.7.8 1.5 1.2 2.3.8 1.5 1.5 3.1 2.2 4.7 1.3 3.2 2.5 6.5 3.5 9.6.5 1.6.9 3.1 1.2 4.6s.5 2.9.7 4.2c.4 2.6.4 4.8.5 6.3z"/><path fill="#f29c11" d="M69.2 122.2c-3.3 2.8-12.6 10.5-21.3 29.2s-4.4 33.8-2 34.8 15.7-7.3 21.5-22.2 8.1-35.4 7.7-38.4c-.4-2.5-2.6-6.1-5.9-3.4"/><path fill="#e17522" d="M74.7 124.4s.1.3.2.8.2 1.2.2 2.2c0 1.9-.1 4.6-.6 7.8s-1.2 6.9-1.9 10.9c-.8 4-1.7 8.2-3 12.4-1.2 4.2-2.9 8.2-4.9 11.7-1 1.8-2.1 3.4-3.2 4.9s-2.3 2.8-3.5 3.9-2.3 2.1-3.3 2.9-2 1.5-2.8 2-1.4.9-1.9 1.2c-.4.3-.7.4-.7.4s.2-.1.7-.4c.4-.3 1.1-.6 1.8-1.2.8-.5 1.7-1.2 2.7-2q1.5-1.2 3.3-3c1.1-1.2 2.3-2.4 3.4-3.9s2.2-3.1 3.2-4.9c2-3.5 3.6-7.6 4.8-11.7 1.3-4.1 2.2-8.3 3-12.3s1.5-7.7 2-10.9.8-5.9.7-7.8c0-.9-.1-1.7-.2-2.2zM42.8 168.6s.3-3.4 1.7-8.3c.7-2.5 1.7-5.3 3-8.2s2.8-6 4.5-8.9c.8-1.5 1.7-2.9 2.6-4.4.9-1.4 1.8-2.8 2.8-4.1.9-1.3 1.9-2.5 2.8-3.6s1.9-2.1 2.7-3.1c.9-.9 1.7-1.8 2.5-2.5s1.4-1.3 2-1.8c1.1-1 1.8-1.5 1.8-1.5s-.6.6-1.8 1.5c-.6.5-1.2 1.1-1.9 1.8s-1.5 1.6-2.4 2.5-1.8 2-2.7 3.1-1.9 2.3-2.8 3.6-1.9 2.7-2.7 4.1c-.9 1.4-1.7 2.9-2.6 4.4-1.6 3-3.2 6-4.5 8.9s-2.3 5.7-3 8.1-1.2 4.5-1.5 6c-.4 1.5-.5 2.4-.5 2.4"/><path fill="#f29c11" d="M87.3 128.1c2.4 4 9.1 15 11 36.1s-8.6 33.4-11.4 33.3c-2.9-.1-13.6-13.4-13.9-29.6s5.2-36.4 6.8-39c1.4-2.3 5.1-4.8 7.5-.8"/><path fill="#e17522" d="M80.7 127.8s-.2.2-.5.7c-.3.4-.6 1.1-1 2-.7 1.8-1.5 4.5-2.2 7.7-.7 3.3-1.4 7.1-2.1 11.2s-1.3 8.5-1.6 12.9-.1 8.9.6 12.9c.4 2 .9 4 1.5 5.8s1.3 3.5 2.1 4.9c.4.7.7 1.5 1.1 2.1.4.7.7 1.3 1.1 1.9.7 1.2 1.4 2.1 1.9 2.9.6.8 1.1 1.4 1.4 1.8s.5.6.5.6-.2-.2-.5-.6-.8-1-1.4-1.7c-.6-.8-1.3-1.7-2.1-2.8l-1.2-1.8c-.4-.6-.8-1.4-1.2-2.1-1.6-3-3-6.6-3.8-10.8-.8-4.1-1-8.6-.7-13.1s.9-8.9 1.7-13c.7-4.1 1.6-7.9 2.3-11.2s1.7-5.9 2.5-7.7c.4-.9.8-1.6 1.1-2s.5-.6.5-.6M96.9 182.2s.2-.9.5-2.4.5-3.7.7-6.3c.1-1.3.1-2.7.1-4.2s-.1-3.1-.2-4.7c-.3-3.3-.7-6.8-1.3-10.2-.3-1.7-.6-3.4-1-5.1s-.8-3.3-1.3-4.9c-.2-.8-.5-1.6-.7-2.3-.2-.8-.5-1.5-.8-2.2-.5-1.4-1.1-2.7-1.6-3.9-.6-1.2-1-2.3-1.5-3.3s-.9-1.8-1.3-2.5c-.7-1.3-1.2-2.1-1.2-2.1s.5.7 1.3 2.1c.4.6.8 1.5 1.4 2.4.5.9 1.1 2 1.6 3.2s1.1 2.5 1.7 3.9 1.1 2.9 1.6 4.5 1 3.2 1.4 4.9.8 3.4 1.1 5.2c.6 3.5 1 7 1.2 10.3.1 1.7.2 3.3.1 4.8 0 1.5-.1 2.9-.2 4.3-.2 2.6-.7 4.8-1 6.3-.3 1.4-.6 2.2-.6 2.2"/><path fill="#f29c11" d="M72 126.7c-3 3.4-11.7 12.7-17.2 33s2.4 34.6 5.2 35.1c2.8.6 15.8-10.1 18.9-26s1.4-36.8.4-39.7c-1.1-2.5-4.3-5.8-7.3-2.4"/><path fill="#e17522" d="M78.5 127.9s.2.2.4.7.5 1.2.7 2.1c.5 1.9.9 4.6 1.1 8 .1 1.7.1 3.5.2 5.4 0 1.9.1 3.9.1 6 0 4.2-.2 8.6-.7 13s-1.5 8.8-3 12.7c-.7 2-1.6 3.8-2.6 5.4-1 1.7-2 3.1-3.1 4.4-1 1.3-2.1 2.4-3 3.4s-1.8 1.7-2.6 2.4c-.7.6-1.3 1.1-1.7 1.4s-.6.5-.6.5.2-.2.6-.5 1-.8 1.7-1.5 1.6-1.5 2.5-2.5c.5-.5.9-1 1.4-1.6l1.5-1.8c1-1.3 2-2.8 2.9-4.5.9-1.6 1.8-3.5 2.5-5.4 1.5-3.9 2.4-8.2 2.9-12.6s.7-8.8.8-13c.1-4.1 0-8 0-11.3-.1-3.3-.4-6.1-.8-8-.2-.9-.4-1.7-.6-2.2-.5-.3-.6-.5-.6-.5M52.8 177.7s-.1-.9-.2-2.4c0-1.5-.1-3.7.2-6.3.1-1.3.3-2.7.5-4.2s.6-3 1-4.6c.9-3.2 1.9-6.5 3.1-9.8.6-1.6 1.3-3.3 2-4.8.3-.8.7-1.6 1.1-2.3.4-.8.7-1.5 1.1-2.2l1.2-2.1c.4-.7.8-1.3 1.2-2 .8-1.3 1.6-2.4 2.4-3.5.8-1 1.5-2 2.2-2.8q1.05-1.2 1.8-2.1c1-1.1 1.6-1.8 1.6-1.8s-.6.7-1.5 1.8c-.5.6-1 1.3-1.7 2.2-.7.8-1.3 1.8-2.1 2.9-.7 1.1-1.5 2.3-2.3 3.6-.4.6-.8 1.3-1.1 2-.4.7-.8 1.4-1.1 2.1-.4.7-.8 1.5-1.1 2.2-.4.8-.7 1.5-1.1 2.3-.7 1.6-1.3 3.2-1.9 4.8-1.2 3.3-2.2 6.6-3.1 9.7-.4 1.6-.8 3.1-1.1 4.6s-.5 2.9-.7 4.1c-.3 2.6-.4 4.8-.5 6.3.1 1.4.1 2.3.1 2.3"/><path fill="#e17522" d="M100.7 125.7s-10 3.4-18.7 3.1-17.3-3-17.3-3-.6.5-.4 1.2c.2.6 11.9 3.3 21.2 2.9s15.3-2.9 15.3-2.9.4-1.3-.1-1.3"/><path fill="#cf5619" d="M100.8 127s-.5.3-1.5.6c-1 .4-2.3.9-4 1.3-.8.2-1.8.5-2.7.7-1 .2-2 .4-3.1.5-1.1.2-2.2.3-3.4.3-1.1.1-2.3.1-3.5.1s-2.3-.1-3.5-.2c-1.1-.1-2.3-.2-3.3-.4-2.2-.3-4.2-.7-5.9-1.1s-3.1-.8-4.1-1.2c-1-.3-1.5-.6-1.5-.6s.5.2 1.5.5 2.4.6 4.1.9 3.7.6 5.9.9l3.3.3c1.1.1 2.3.1 3.4.2h3.4c1.1-.1 2.3-.1 3.3-.3 1.1-.1 2.1-.3 3.1-.4q1.5-.3 2.7-.6c3.7-.7 5.8-1.5 5.8-1.5"/><path fill="#c68652" d="M80.1 69.4c-.3 4.8-.8 10.1-3.4 11-2.7.9-12.9 2.3-13.7 5.3-5 17.5 3.2 35.7 35 25.8 12.9-4 12.5-24.5 6.7-26-10.7-2.8-11.8-3.2-11.2-8.7 1-9.5-13.1-13-13.4-7.4"/><path fill="#8c5734" d="M79.9 70.2s.1 1 0 2.6q0 1.2-.3 2.7c-.1 1-.4 2-.8 3-.2.5-.5 1-.9 1.4-.2.2-.5.4-.7.5s-.4.2-.7.3c-.9.4-1.8.7-2.6.8-1.5.3-2.6.2-2.6.2s.3-.1.7-.1c.4-.1 1.1-.3 1.8-.5.7-.3 1.6-.5 2.4-.9.4-.2.9-.4 1.2-.7s.6-.7.8-1.2c.4-.9.7-1.9.9-2.8s.3-1.8.4-2.6c.4-1.7.4-2.7.4-2.7M93.6 79.3s0 .3.1.7c0 .4.1.9.2 1.5.1.5.1 1 .2 1.4.1.2.1.4.1.5s.1.2.1.2-.3-.2-.6-.6-.5-.9-.5-1.5c-.1-.6 0-1.1.1-1.6.1-.3.3-.6.3-.6"/><path fill="#8c5734" d="M98.6 83.8s-.4 0-1-.1-1.3-.4-2-.8c-.3-.2-.7-.4-1-.7s-.5-.5-.7-.8c-.3-.5-.4-.9-.4-.9l.2.2.5.5c.2.2.5.4.8.6l.9.6c.6.4 1.3.7 1.8 1 .6.2.9.4.9.4"/><path fill="#ffc943" d="M63.6 103.9c1.7 1.3 6.1 2.8 7.7-2 3.3-9.6-1.3-20.1-1.3-20.1 1.8-.5 4-.8 4-.8 1.8 3.7 2.6 8.4 3.2 12.9 0 0 5.3.5 9.2 2.8 3 1.7 5 4.6 5 4.6s1.9-3.3 4.6-4.9c2.7-1.7 4.6-1.5 4.6-1.5.1-3.4.5-7.1-.9-11.1 0 0 3.4.3 3.8 1 0 0 1.7 13.4 2.9 19.8 1.8 9.4-5.4 21.4-5.4 21.4s-16 7.2-36.2-.3z"/><path fill="#e38d32" d="M101.1 125.8s.9-2 2.1-5c.6-1.5 1.3-3.3 1.9-5.2.3-1 .6-2 .8-3s.4-2.1.3-3.1c0-2.1-.2-4.3-.5-6.3s-.5-3.9-.7-5.5-.4-2.9-.5-3.9c-.1-.5-.1-.8-.1-1.1v-.4s-.1.1 0 .4c0 .3.1.6.2 1.1.2.9.5 2.3.8 3.8.3 1.6.7 3.5.9 5.5.3 2 .5 4.2.5 6.4 0 1.1-.2 2.2-.4 3.3-.2 1-.5 2.1-.9 3-.7 1.9-1.4 3.7-2.1 5.1-1.2 3.1-2.3 4.9-2.3 4.9"/><g fill="#f29c11"><path d="M93.6 108.1s-.4-.1-1-.4c-.6-.2-1.4-.6-2.1-1s-1.5-.9-2-1.3-.8-.7-.8-.7.4.1 1 .4c.6.2 1.4.6 2.1 1s1.5.9 2 1.3.8.7.8.7"/><path d="M94 104.7s-.3.3-.8.7-1.2.8-1.9 1.3c-.7.4-1.5.8-2.1 1s-1 .4-1 .4.3-.3.8-.7 1.2-.8 2-1.3c.7-.4 1.5-.8 2.1-1 .5-.3.9-.4.9-.4"/></g><g fill="#f29c11"><path d="M92.8 114.8s-.4-.1-1-.4c-.6-.2-1.4-.6-2.1-1s-1.5-.9-2-1.3-.8-.7-.8-.7.4.1 1 .4c.6.2 1.4.6 2.1 1s1.5.9 2 1.3.8.7.8.7"/><path d="M93.3 111.4s-.3.3-.8.7-1.2.8-1.9 1.3c-.7.4-1.5.8-2.1 1s-1 .4-1 .4.3-.3.8-.7 1.2-.8 1.9-1.3c.7-.4 1.5-.8 2.1-1 .5-.3 1-.4 1-.4"/></g><path fill="#c68652" d="M67.8 83.4c-3.9-1.6-8.4 3.9-10.6 20.7s-4.5 30.6 1.5 30c5.7-.5 20.5-46 9.1-50.7"/><path fill="#8c5734" d="M64.3 84.2s-.1.1-.3.2-.4.4-.7.6q-.45.45-.9 1.2c-.3.5-.6 1-.9 1.7q-.45.9-.9 2.1c-.3.7-.5 1.6-.8 2.4-.2.8-.5 1.7-.7 2.6l-.6 2.7-.6 2.7c-.2.9-.3 1.8-.4 2.7-.2.9-.3 1.7-.4 2.5s-.2 1.5-.3 2.2c-.3 2.8-.6 4.6-.6 4.6s0-.5.1-1.3c0-.8.1-2 .2-3.4.1-.7.1-1.5.2-2.3s.1-1.7.3-2.5c.1-.9.3-1.8.4-2.7.2-.9.3-1.8.5-2.8.2-.9.5-1.8.7-2.7s.5-1.8.8-2.6l.9-2.4c.3-.7.6-1.4 1-2.1.3-.6.7-1.2 1-1.6.3-.5.7-.8 1-1.1.6-.5 1-.7 1-.7M64.5 125.8s.2-.4.4-1.1c.1-.3.3-.8.5-1.2.2-.5.4-1 .6-1.6.4-1.2.9-2.6 1.4-4.1s.9-3.1 1.4-4.7c.4-1.6.8-3.3 1.2-4.8.3-1.5.7-3 .9-4.2.5-2.5.7-4.2.7-4.2s-.1 1.7-.4 4.2c-.2 1.3-.4 2.7-.7 4.3s-.7 3.2-1.1 4.9c-.4 1.6-.9 3.3-1.4 4.8-.2.8-.5 1.5-.8 2.1-.3.7-.5 1.3-.8 1.9-.5 1.2-1 2.1-1.3 2.8-.4.5-.6.9-.6.9"/><path fill="#c68652" d="M55.7 123.3c-1.8 5.3-4.8 37.4-2.7 41.9 3.3 7 10.6-27.1 10.7-32.5.2-9.1-6.3-14.4-8-9.4"/><path fill="#8c5734" d="M63.7 131.6v1.3c0 .8 0 2-.2 3.5-.1 1.4-.3 3.1-.7 4.9-.3 1.8-.7 3.7-1.1 5.5-.5 1.9-1 3.7-1.5 5.5-.5 1.7-1.1 3.3-1.5 4.7s-.9 2.5-1.2 3.3-.5 1.2-.5 1.2.5-1.8 1.3-4.6c.4-1.4.8-3 1.3-4.7s1-3.6 1.4-5.5c.5-1.9.9-3.7 1.2-5.5s.7-3.4.8-4.8c.2-1.4.4-2.6.4-3.5.2-.8.3-1.3.3-1.3M54.9 127.2s-.1 1.8-.3 4.4c-.2 2.7-.5 6.2-.9 9.7-.2 1.8-.3 3.5-.5 5.2s-.3 3.2-.4 4.5c-.3 2.7-.5 4.4-.5 4.4s0-1.8.1-4.4c.1-1.3.1-2.9.3-4.6.1-1.7.3-3.4.4-5.2.2-1.8.4-3.5.6-5.2q.3-2.55.6-4.5c.3-2.5.6-4.3.6-4.3"/><path fill="#c68652" d="M50.7 170.7c-.2-2.5.7-7.8 2.4-9.6s3.4-.1 4.8 1.8c1.3 1.9 5.6 12.5 3.6 11.3s-4-6.9-3.6-3.9c.1.9.2 2.6-.1 4.1-.4 3-1.2 6.4-1.7 6.8-.2.2-.4-.3-.6-1-.5 1.1-1 1.9-1.3 2.1-.9.6-2-3.3-2.7-6.9 0 1.7-.4 3.2-.8 3.4-.9.5 0-8.1 0-8.1"/><path fill="#8c5734" d="M55.5 173s0 .5.1 1.1v2.5c0 .9 0 1.8-.1 2.5v1.1s-.2-.4-.3-1.1-.2-1.6-.2-2.5.1-1.8.2-2.5.3-1.1.3-1.1M53.4 173.6s0 .6.1 1.4.1 1.9.2 3 .2 2.2.3 3c0 .4.1.8.1 1v.4s-.3-.5-.5-1.3c-.1-.4-.3-.9-.4-1.4s-.2-1.1-.2-1.6c-.1-1.1-.1-2.3 0-3.1.2-.9.4-1.4.4-1.4M51.7 173.6v.4c0 .3 0 .6.1 1v1.5l-.2-.4c-.1-.3-.1-.6-.1-1s0-.7.1-1c0-.1.1-.2.1-.3-.1-.2 0-.2 0-.2M52.7 161.9s-.3.6-.5 1.4c-.2.9-.5 2-.7 3.2-.1.6-.2 1.2-.3 1.7-.1.6-.2 1.1-.2 1.5-.1.9-.3 1.5-.3 1.5v-.4c0-.3-.1-.6-.1-1.1 0-.9.1-2.1.3-3.3s.6-2.4 1-3.2c.2-.4.4-.7.6-1 .1-.2.2-.3.2-.3M61.5 174.2s-.4-.1-.8-.4c-.4-.4-.9-.9-1.3-1.5s-.7-1.2-.9-1.7-.3-.8-.3-.8.3.3.6.7.8 1 1.2 1.5c.4.6.8 1.2 1 1.6.1.2.3.4.5.6M81.2 70.5s-.4-.5-.9-1.3-1-1.9-1.4-3.1-.7-2.4-.7-3.4v-1.5s0 .2.1.4c0 .3.2.6.3 1.1.2.9.6 2.1 1 3.2.4 1.2.8 2.3 1.2 3.2.2.8.4 1.4.4 1.4"/><path fill="#c68652" d="M106.9 41.6c4.1 4.3 4.7 14.3 1.4 22 0 0 .5 5.9-2.5 10.3s-13.1 12.3-21.4 3.6-12.9-34.5.2-39.8 19.6 1.1 22.3 3.9"/><path fill="#8c5734" d="M108.3 63.6s.1.6.1 1.7-.1 2.6-.5 4.4c-.2.9-.5 1.9-.9 2.8-.4 1-1 1.9-1.8 2.8-1.5 1.8-3.4 3.4-5.6 4.6s-4.6 1.9-6.9 1.9c-1.2 0-2.3-.3-3.3-.6s-1.9-.9-2.6-1.4c-1.5-1.1-2.5-2.2-3.2-3.1-.3-.4-.6-.8-.7-1-.2-.2-.3-.4-.3-.4l.3.3c.2.2.4.5.8.9s.8.9 1.3 1.4 1.2 1 1.9 1.5c.8.5 1.6.9 2.6 1.2s2 .5 3.1.5c2.2 0 4.6-.7 6.6-1.9 2.1-1.2 3.9-2.7 5.4-4.4q1.05-1.2 1.8-2.7c.4-.9.8-1.8 1-2.7.5-1.7.7-3.2.8-4.3.1-.9.1-1.5.1-1.5"/><path fill="#664228" d="M99.5 64.2s.3.4.6 1.1c.2.3.3.7.5 1.2.1.4.3 1 .3 1.5 0 .3 0 .5-.1.8s-.2.5-.3.7c-.3.4-.7.7-1 .9-.4.1-.7.2-.9.2h-.3s.1 0 .3-.1.5-.2.8-.4.6-.5.7-.8c.2-.4.2-.8.2-1.2 0-.5-.1-.9-.3-1.3l-.3-1.2c-.2-.9-.2-1.4-.2-1.4M97.4 75.9s-.4-.3-1-.6-1.5-.5-2.4-.7-1.8-.3-2.5-.4-1.2-.2-1.2-.2.1 0 .3-.1c.2 0 .5-.1.9-.1s.8-.1 1.2 0c.4 0 .9.1 1.4.1.5.1.9.2 1.4.4.4.2.8.4 1.1.6s.5.5.6.6c.2.3.2.4.2.4M95.9 54.4s-.5.1-1.2.1c-.7.1-1.7.2-2.7.2s-1.9 0-2.6-.1-1.2-.1-1.2-.1.5-.1 1.2-.2 1.7-.2 2.6-.2c1 0 1.9.1 2.7.2.7 0 1.2.1 1.2.1M107.4 58.1s-.4 0-1-.2q-.9-.3-2.1-.9c-.7-.4-1.4-.9-1.8-1.3-.5-.4-.7-.7-.7-.7s.1 0 .3.1.4.2.7.3c.5.3 1.2.6 1.9 1s1.4.8 1.9 1.1c.4.4.8.6.8.6"/><path fill="#3b2919" d="M94 58.4s-.3-.2-.8-.3-1.1-.3-1.8-.4-1.3-.3-1.8-.4-.8-.3-.8-.3.4-.1.9-.1 1.2 0 1.9.2 1.4.4 1.8.7c.2.2.4.3.5.4s.1.2.1.2M106.9 61s-.3-.1-.8-.3-1.1-.3-1.7-.4-1.3-.2-1.8-.3c-.2 0-.5-.1-.6-.1h-.2s.3-.2.8-.3c.3-.1.6-.1.9-.1s.7 0 1 .1c.7.1 1.3.4 1.8.8.4.3.6.6.6.6"/><path fill="#3b2919" d="M91.5 57.3c.7.2 1.3.3 1.6.5 0 .3 0 .7-.1 1.1-.3 1.1-1 1.9-1.5 1.8s-.7-1.2-.4-2.3c0-.4.2-.8.4-1.1M103.4 59.8q.9 0 1.5.3c.1.4 0 .9-.1 1.4-.3 1.1-1 1.9-1.5 1.8s-.7-1.2-.4-2.3c.1-.5.3-.9.5-1.2"/><path fill="#664228" d="M97.6 69.1s-.4.3-.7.4c-.2.1-.3.1-.4.2l-.2.2s-.1-.1 0-.3c0-.2.2-.4.4-.5.5-.2.9 0 .9 0M108.2 44.3s2.9-7.8-11-11c-10.8-2.5-14.7 3.1-14.7 3.1s.8-2.8-1.8-3.9c0 0 1.6 1.7.5 4.4 0 0-.2-1.3-2-2.1 0 0-.1 1.7 1 3.2 0 0-7.2 6.1-4.7 16.6 0 0 4 .1 4.7 2.1 0-.1 7.5-22.8 28-12.4"/><path fill="#402919" d="M80.2 38s-.7.7-1.6 2c-.5.6-.9 1.4-1.3 2.3-.4.8-.8 1.8-1.1 2.8-.2.5-.3 1-.4 1.5l-.3 1.5c-.1.5-.1.9-.2 1.4-.1.4 0 .9-.1 1.2v2.6s-.1-.3-.1-.7c0-.2-.1-.5-.2-.8s-.1-.7-.1-1.1-.1-.8-.1-1.3 0-.9.1-1.4.1-1 .2-1.5.2-1 .4-1.5c.3-1 .8-2 1.2-2.9.2-.4.5-.8.8-1.2s.5-.7.8-1c.5-.6 1-1 1.3-1.4.5-.4.7-.5.7-.5M81.2 36.9s-.1-.2-.3-.4-.4-.5-.6-.7c-.2-.3-.5-.5-.7-.7s-.4-.3-.4-.3.2-.1.5 0c.2 0 .3.1.5.2s.3.2.5.4c.3.3.5.7.5 1zM82.5 36.4s0-.3-.1-.7c0-.2-.1-.5-.1-.7 0-.3-.1-.5-.2-.8 0-.1-.1-.2-.1-.4-.1-.1-.1-.2-.2-.3-.1-.2-.3-.4-.4-.5-.2-.1-.3-.3-.4-.3-.1-.1-.2-.1-.2-.1h.2c.1 0 .3 0 .6.1.2.1.5.2.7.5.2.2.4.5.5.8.2.6.2 1.3.1 1.7-.3.4-.4.7-.4.7M108 40.6s-.1-.4-.4-1c-.2-.3-.4-.6-.7-1s-.7-.7-1.1-1.1-.9-.8-1.5-1.1c-.3-.2-.6-.4-.9-.5-.3-.2-.6-.3-.9-.5-.6-.3-1.3-.6-2-.9-.7-.2-1.4-.5-2.2-.7-.7-.2-1.5-.4-2.2-.5-.7-.2-1.5-.3-2.2-.3-1.4-.2-2.8-.2-3.9-.1-1 .1-2 .2-2.6.4s-1 .4-1 .4.3-.2.9-.5 1.6-.6 2.7-.7c.6-.1 1.2-.1 1.9-.1s1.4 0 2.1.1 1.5.2 2.2.3 1.5.3 2.3.5 1.5.5 2.2.7l2.1.9c.3.2.6.3.9.5l.9.6c.6.4 1 .8 1.4 1.2.8.8 1.3 1.7 1.6 2.3.4.7.4 1.1.4 1.1"/><path fill="#c68652" d="M81.3 59.7c-.2-1.9-1.6-5.7-7.9-10.1 0 0-2.1 12.6 4.9 14.2 2 .4 3.1-2.8 3-4.1"/><path fill="#8c5734" d="M73.5 49.6s.8.4 1.9 1.2c.6.4 1.2.9 1.8 1.4.3.3.7.6 1 .9s.6.7.9 1 .6.7.8 1.1c.3.4.5.8.7 1.2s.3.8.5 1.2c.1.4.2.8.3 1.1s0 .7.1.9c0 .3 0 .5-.1.7-.1.4-.1.6-.1.6v-.6c0-.2 0-.4-.1-.7s-.1-.6-.2-.9-.2-.6-.4-1c-.2-.3-.3-.7-.5-1.1-.2-.3-.4-.7-.7-1.1s-.5-.7-.8-1c-.5-.7-1.2-1.3-1.7-1.9-.6-.6-1.2-1.1-1.7-1.6-1-.9-1.7-1.4-1.7-1.4"/><path fill="#8c5734" d="M74.3 51.6s.6.4 1.5 1.1c.4.4.9.8 1.4 1.3.2.3.5.5.7.8s.4.6.6 1c.1.2.1.4.2.6 0 .2.1.4.1.6 0 .4-.1.8-.2 1.1-.2.7-.4 1.3-.4 1.8s.4.8.6 1c.3.2.4.3.4.3s-.2-.1-.5-.2c-.1-.1-.3-.2-.5-.4s-.3-.4-.4-.7c-.1-.6.1-1.3.2-2 .1-.3.1-.7.1-1v-.5c-.1-.2-.1-.3-.2-.5-.1-.3-.3-.6-.5-.9s-.4-.6-.6-.8c-.4-.5-.9-1-1.2-1.4-.8-.7-1.3-1.2-1.3-1.2"/><path fill="#8c5734" d="M78.1 55.7s-.2.1-.4.3-.4.4-.6.7-.4.5-.6.8c-.1.1-.2.2-.2.3l-.1.1v-.5c0-.3.2-.7.5-1s.7-.6 1-.6c.2-.1.4-.1.4-.1M79.3 63.6l-.4.2c-.3.1-.7.1-1.3 0-.3 0-.6-.1-.8-.3-.3-.1-.6-.3-.8-.5-.3-.2-.5-.5-.7-.7l-.6-.9c-.2-.3-.3-.6-.5-1-.1-.3-.2-.7-.3-1-.2-.6-.3-1.2-.4-1.7s-.1-1-.1-1.3v-.5s.2.7.5 1.6c.2.5.3 1.1.6 1.6.2.6.5 1.2.8 1.8.2.3.3.6.5.8.2.3.4.5.6.7s.5.4.7.5.5.3.7.3c.2.1.5.1.6.2h.5c.2.2.4.2.4.2"/><g fill="#664228"><path d="M100.6 38.2c9-.1 10.6 7.3 11.4 8.8s3.2 2.5 3.2 2.5c-1.3.4-3.1.2-3.1.2.4.7.2 2.3.8 4s2.9 2.3 2.9 2.3c-.3.1-.8.1-1.3-.1.7.6 1.5 1 1.5 1-.9.8-3.7.6-3.7.6-1.5 6.5-4.6 6.8-5.2 6.8 1.8 0 2.9-7.5 2.9-7.5s-.8-.1-2.6-2.6-1.7-6.4-1.7-6.4c-1.2 2.4 0 3.8 0 3.8-1.2-.3-2.3-2.5-2.3-2.5.1.9 1.1 2.5 1.1 2.5-4.7-2.7-4.7-6.6-4.7-6.6-.9 2.3.8 4.8.8 4.8-5.1-1.6-6.1-5.2-6.1-5.2 0 1.8 2.1 4.1 2.1 4.1-5.3-2.3-4.6-5.6-4.5-6.6 0-.9.9-3.8 8.5-3.9M107 64.3s-.1 0 0 0c-.1 0 0 0 0 0"/></g><path fill="#664228" d="M92.8 40.8c2.2 3-1.9 6.9-4.7 8.7s-1.2 5.1-1.2 5.1-3.4-1.1-2.6-4.1c0 0-1.7 4.5 1.1 6.3 0 0-1.2.1-1.8-.8 0 0 .7 1.7 2 2.1 0 0-2.4.6-3-.8 0 0 1.1 4.3-1.1 4.8 0 0 .3-2.7-1.2-4C78 56 75.7 50 81.4 44.5c3.8-3.8 8.9-7 11.4-3.7"/><path fill="#402919" d="M86.8 54.5h-.3c-.2 0-.5-.1-.8-.3s-.7-.4-1-.8c-.3-.3-.6-.8-.7-1.3 0-.3-.1-.5-.1-.8v-.7c0-.5.2-.9.3-1.2s.3-.6.4-.8.2-.3.2-.3v.3c0 .2-.1.5-.1.8 0 .2 0 .4-.1.6v1.2c0 .2.1.4.1.6.1.2.1.4.2.6s.2.4.3.5c.2.3.5.6.8.8s.5.4.7.5c0 .3.1.3.1.3M85.4 58.1s-.4.3-1.1.4c-.3 0-.8 0-1.2-.1l-.6-.3c-.2-.1-.4-.3-.6-.5-.3-.4-.6-.8-.8-1.2-.1-.2-.2-.4-.2-.6s-.1-.4-.1-.5c-.1-.3 0-.6-.1-.8v-.3s.1.1.1.3c.1.2.2.4.3.7.1.1.1.3.2.5s.2.3.3.5.2.3.3.5.2.3.4.5c.1.2.3.3.4.4.2.1.3.2.5.3.3.2.7.2 1 .3.3 0 .6.1.8 0 .3-.1.4-.1.4-.1M80.2 58.2s-.5-.3-1.1-1c-.3-.3-.6-.8-.8-1.3-.3-.5-.4-1.1-.6-1.7-.1-.6-.2-1.2-.1-1.8 0-.6.1-1.1.2-1.5s.2-.8.3-1 .1-.4.1-.4v.4c0 .3-.1.6 0 1.1v1.5c0 .5.1 1.1.2 1.6s.3 1.1.5 1.6.4.9.6 1.3c.3.7.7 1.2.7 1.2"/><g fill="#402919"><path d="M115.2 49.5s-.3 0-.7-.2c-.5-.2-1.1-.5-1.8-1.1-.3-.3-.6-.6-.9-1.1-.3-.4-.5-.9-.7-1.4-.1-.3-.1-.5-.2-.8-.1-.2-.2-.5-.3-.7-.2-.5-.5-1-.8-1.4s-.6-.9-1-1.3-.8-.7-1.2-1-.8-.6-1.2-.8l-1.2-.6c-.4-.1-.7-.3-1.1-.4-.3-.1-.6-.2-.8-.3-.5-.1-.7-.2-.7-.2s.3 0 .8.1c.2 0 .5.1.9.1.3.1.7.2 1.1.3s.8.3 1.3.5c.4.2.9.5 1.3.8s.9.7 1.3 1.1.8.9 1.1 1.3c.3.5.6 1 .8 1.5.1.3.2.5.3.8s.1.5.2.8c.2 1 .7 1.8 1.3 2.4s1.1 1 1.6 1.2c.3.3.6.4.6.4M113.6 57.5s-.2 0-.5.1h-1.3c-.3 0-.6-.1-.9-.2l-.9-.3c-.3-.1-.6-.3-.9-.5s-.6-.4-.9-.7c-.3-.2-.5-.5-.8-.8l-.6-.9c-.1-.3-.3-.6-.4-.9s-.2-.6-.3-.8c-.2-.5-.2-1-.2-1.3s-.1-.5-.1-.5.1.2.2.5.2.7.5 1.2c.1.2.2.5.4.8s.3.5.5.8.4.5.6.8c.2.2.4.5.7.7.5.5 1.1.9 1.6 1.2.6.3 1.1.5 1.6.7q.75.3 1.2.3c.3-.2.5-.2.5-.2M96.5 48.8s-.6-.1-1.3-.4c-.4-.2-.8-.4-1.3-.7-.4-.3-.9-.7-1.2-1.2s-.6-1-.8-1.5c-.1-.3-.1-.5-.2-.8-.1-.2 0-.5 0-.7v-.6c0-.2.1-.3.1-.4.1-.2.1-.4.1-.4v.8c0 .2.1.3.1.5s.1.4.1.6c.1.2.1.4.2.7.1.2.2.4.3.7.1.2.3.4.4.6s.3.4.5.6l.5.5c.4.3.7.6 1.1.8.9.7 1.4.9 1.4.9M100.5 49.9s-.6 0-1.5-.3-2-.9-2.9-1.8c-.2-.2-.4-.5-.6-.7s-.4-.5-.5-.7c-.2-.2-.3-.5-.4-.8-.1-.2-.2-.5-.3-.7-.2-.4-.2-.8-.3-1.1 0-.3-.1-.4-.1-.4s.1.1.2.4l.5 1c.1.2.2.4.4.6.1.2.3.4.4.7.3.4.7.9 1.1 1.3s.9.8 1.3 1.1c.5.3.9.6 1.3.8.8.3 1.4.6 1.4.6M104.4 51.7s-.6-.2-1.4-.7-1.8-1.4-2.4-2.6c-.2-.3-.3-.6-.4-.9l-.3-.9c-.1-.3-.1-.6-.2-.9s0-.5 0-.8v-.7c0-.2.1-.4.1-.5 0-.3.1-.4.1-.4s0 .2.1.4v.5c0 .2.1.4.1.6s.1.5.2.7.1.5.2.8.2.5.3.8.2.5.4.8c.3.5.7 1 1 1.5l.6.6.5.5c.3.3.6.6.9.7.1.4.2.5.2.5"/><path d="M105.6 51.6s-.3 0-.8-.2c-.2-.1-.5-.3-.7-.5s-.4-.5-.6-.7c-.3-.6-.5-1.2-.5-1.7v-.8s0 .1.1.2.1.3.2.5.2.4.3.7c.1.2.3.5.4.7.3.5.6.9.9 1.3.4.3.7.5.7.5M114.1 49.7s-.4.2-1.2.3h-1.2c-.5-.1-.9-.2-1.4-.4-.2-.1-.4-.2-.6-.4-.2-.1-.4-.3-.6-.4-.2-.2-.3-.3-.4-.5-.1-.1-.2-.3-.3-.5-.2-.3-.3-.6-.4-.8s-.1-.3-.1-.3l.2.2q.15.3.6.6c.1.1.2.3.4.4s.3.3.5.4c.3.2.7.5 1.1.7 1.5.7 3.4.7 3.4.7"/></g><path fill="#402919" d="M115.8 56s-.3.2-.7.3-1 .1-1.6 0c-.3-.1-.6-.2-.8-.3s-.4-.3-.6-.5c-.1-.2-.2-.3-.3-.4s-.1-.2-.1-.2.1 0 .2.1.3.1.4.2c.4.2.8.3 1.3.4s1 .2 1.4.3c.5.1.8.1.8.1"/><path fill="#efcc20" d="M84.3 43.7c-1.3-1.6-3-4.2-1.1-4.7 2.2-.6 2.1 3.5 2 5 .5-1.9 1.8-5.5 3.4-4.1s-1.4 3.5-2.8 4.3c1.9-.7 5.2-1.5 5 .5-.2 1.9-3.1 1-4.7.3 1.3 1.6 3 4.1 1.1 4.6-2 .6-2.1-3-2-4.7-.6 2-1.8 4.9-3.3 3.6-1.4-1.3 1-3.1 2.5-4.1-2 .7-5.1 1.4-4.8-.6 0-1.8 3-.8 4.7-.1"/><circle cx="5.979" cy="6.507" r="1.1" fill="#fffffb" transform="rotate(-47.878 88.277 -63.467)"/></g></svg>