<svg xmlns="http://www.w3.org/2000/svg" xml:space="preserve" width="137.194" height="119.897" viewBox="11.874 12.132 137.194 119.897"><title>rabbit-d</title><g fill-rule="nonzero"><ellipse cx="16.222" cy="16.304" fill="#b5c5c1" rx="11.267" ry="11.279" transform="rotate(-38.806 90.491 23.314)"/><path fill="#cbd7d4" d="M24.168 68.391c.54.18 1.081.451 1.622.632.36.09.721-.18.811-.452.09-.36-.09-.721-.45-.812-.541-.18-1.082-.45-1.623-.631-.36-.09-.72.18-.81.45-.181.452.09.723.45.813M22.636 71.73c.63.09 1.171.09 1.802.09.811 0 .811-1.264 0-1.354-.63 0-1.172-.09-1.802-.09-.361 0-.631.36-.631.631 0 .452.27.722.63.722M25.16 62.887c.54.812 1.261 1.715 2.072 2.256.27.18.721.09.902-.27.18-.362.09-.723-.27-.903l-.091-.09-.27-.271-.541-.541c-.27-.271-.54-.632-.721-.903-.36-.721-1.532 0-1.082.722M28.945 61.263c.36.632.72 1.263 1.171 1.895.451.722 1.623.09 1.172-.632-.36-.631-.811-1.263-1.172-1.894-.45-.722-1.622-.09-1.171.631M33.18 59.82c-.09.812.091 1.624.452 2.345.18.361.63.361.9.271.361-.18.361-.541.271-.902a2.9 2.9 0 0 1-.27-1.715c.09-.812-1.262-.812-1.352 0M36.155 62.977c0 .632 0 1.264.09 1.895.09.361.451.541.812.451.36-.09.54-.45.45-.812-.09-.541-.09-.992-.09-1.534.09-.812-1.262-.812-1.262 0M19.661 62.526c.631.632 1.352 1.083 1.983 1.715.631.541 1.532-.361.901-.903-.63-.631-1.352-1.082-1.983-1.714-.54-.632-1.532.27-.9.902M21.644 58.376c.45.632.901 1.353 1.262 1.985.45.722 1.532.09 1.172-.632-.451-.721-.902-1.353-1.262-1.985-.541-.721-1.623-.09-1.172.632M25.7 56.481c.45.993.901 2.075 1.442 2.978.45.721 1.623.09 1.172-.632-.631-.902-.992-1.985-1.442-2.977-.36-.722-1.532-.09-1.172.631M30.116 55.579c.09.27.18.451.27.722.181.36.632.36.902.27.36-.18.36-.54.27-.902-.09-.27-.18-.451-.27-.722-.18-.36-.63-.36-.901-.27-.36.18-.36.631-.27.902M18.039 67.76c.63.27 1.352.45 1.983.721.36.09.72-.18.81-.45.091-.362-.09-.723-.45-.813-.63-.27-1.352-.451-1.983-.722-.36-.09-.72.18-.81.451-.181.451.09.722.45.812M28.314 69.654c.63.27 1.171.632 1.712.902.721.361 1.442-.721.631-1.172-.72-.361-1.352-.722-2.073-.993-.36-.09-.72.18-.811.451 0 .361.27.632.54.812M27.322 73.263c.36.09.721.18 1.082.18.811 0 .811-1.353 0-1.353-.27 0-.45 0-.721-.09-.36-.09-.721.09-.811.451s.18.632.45.812M30.026 65.865c.18.812.541 1.624.902 2.346.36.721 1.532.09 1.171-.632-.27-.632-.63-1.353-.81-2.075s-1.443-.451-1.263.36M33.361 65.684c.09.361.09.632.18.993.09.36.451.541.812.45.36-.09.54-.45.45-.811s-.09-.632-.18-.993c-.09-.36-.45-.541-.811-.45-.36.09-.54.45-.45.811"/><path fill="#cbd7d4" d="M82.753 68.21C75.813 64.602 53.1 54.948 39.4 60.723c-11.987 4.872-23.254 20.12-15.773 42.406 6.129 18.406 43.173 14.887 55.791 14.797 7.21-.09 18.027-.993 23.344 4.601 1.623 1.715 7.752 5.324 11.447 5.865 3.696.541 30.735-8.842 29.383-32.12-1.262-20.842-21.632-24-34.97-22.376-13.34 1.534-25.869-5.684-25.869-5.684"/><path fill="#cbd7d4" d="M26.782 122.165c-4.417-5.594 2.884-5.684 3.064-10.466s-17.125-4.24-10.545-26.616c3.605-12.361 17.305-13.985 24.606-12.722 9.824 1.714 24.155 11.368 27.49 20.39 2.613 7.219 4.596 16.873-1.532 21.384-5.86 4.24-11.357 3.158-16.945 5.233 3.695 2.617 11.086.361 15.683.993 1.442.18 4.146-.27 6.219.36 2.433.723 4.056 2.888 5.317 4.332 3.155 3.699-3.695 3.248-6.129 3.248 13.61 5.774-20.099 2.346-24.245.812-.09-.09-21.18-4.602-22.983-6.948"/><g fill="#b5c5c1"><path d="M43.907 72.27c9.824 1.715 24.155 11.37 27.49 20.392a65 65 0 0 1 1.532 4.962c-.09-.541-.09-1.173-.18-1.804C71.307 80.39 51.207 70.556 39.85 70.827c-4.327.09-7.752 1.263-10.546 3.068 5.048-2.075 10.726-2.256 14.602-1.624M71.938 127.85c1.892.45 3.334.992 4.506 2.616.54.632 1.622 0 1.172-.631-.631-.903-1.352-1.715-2.344-2.256-.9-.541-1.983-.722-2.974-.992-.811-.181-1.172 1.082-.36 1.263"/></g><path fill="#b5c5c1" d="M92.307 102.496c-8.382 4.06-13.52 12.27-4.777 19.58-6.49-7.038-2.073-14.798 4.777-19.58"/><path fill="#cbd7d4" d="M103.754 129.835c-3.966-.722-7.751-1.805-11.267-3.88-21.09-12.902 4.507-30.587 15.773-28.06 8.833 1.985 6.22 9.203 9.194 13.895 2.434 3.88 11.176 3.518 11.176 3.518s15.593 3.88 16.855 4.872c6.219 4.692 1.622 9.294-1.532 7.128 2.974 3.068-1.533 2.075-3.335.722 0 0-10.095-3.248-11.717-2.797-4.507 1.173-16.494 6.135-25.147 4.602"/><path fill="#b5c5c1" d="M145.395 127.128c-.992-1.895-2.975-3.338-5.138-3.61-.81-.09-1.172 1.174-.36 1.264 1.802.27 3.515 1.353 4.326 2.977.45.722 1.532.09 1.172-.631M130.613 77.143c2.704-10.647-10.725-32.03-17.305-41.143-7.21-9.925-26.228-23.368-26.228-23.368-5.228 2.977 10.996 28.782 15.863 36.992 7.12 12.18 14.33 26.887 24.696 36.993z"/><path fill="#c9d8d5" d="M120.789 77.504C106.278 79.85 87.35 65.234 75.993 55.85c-7.75-6.406-16.584-20.21-20.28-29.053-3.244-7.76 27.4 6.316 35.422 12.632 13.7 10.736 29.023 21.293 36.053 36.45z"/><path fill="#b5c5c1" d="M141.79 100.962c-6.31 5.233-16.585 4.512-24.877 2.978-16.764-3.068-24.876-32.21-4.326-42.045 18.927-9.113 35.512 15.79 34.52 29.503-.72 9.745-5.317 9.564-5.317 9.564"/><path fill="#c9d8d5" d="M115.2 103.038c-13.159-8.662-21.27-30.316-2.253-41.233 18.838-10.918 34.881 14.165 34.701 29.684 0 0-.811 10.285-9.193 13.534-9.825 3.789-16.765 2.255-23.254-1.985"/><g fill="#3c4f45"><path d="M139.266 91.489c.901.27 2.073.541 2.974.09.811-.451.811-1.173.992-1.985.18-.902-1.082-1.263-1.352-.36-.09.36 0 .901-.36 1.172-.542.27-1.443 0-1.894-.18-.81-.361-1.171.902-.36 1.263"/><path d="M140.978 91.218c.541 1.444.902 2.977.902 4.511 0 .903 1.352.903 1.352 0 0-1.624-.36-3.338-.992-4.872-.18-.812-1.532-.451-1.262.361"/><path d="M139.176 96.993c1.983 1.263 6.219-.361 6.309-2.888 0-.902-1.352-.902-1.352 0 0 1.444-3.155 2.346-4.236 1.624-.721-.36-1.442.812-.721 1.264"/></g><path fill="#b5c5c1" d="M128.45 90.406a13.7 13.7 0 0 0-4.867 2.075c-.631.451 0 1.534.63 1.083 1.353-.993 2.975-1.624 4.597-1.985.812-.09.451-1.263-.36-1.173M126.918 94.647c-1.172.721-2.344 1.353-3.425 2.255-.631.542.27 1.444.901.903.991-.812 2.073-1.444 3.155-2.076.72-.45.09-1.534-.631-1.082M130.703 95.008c-.901 1.172-1.802 2.345-2.614 3.518-.45.632.631 1.264 1.082.632.811-1.173 1.713-2.346 2.614-3.519.45-.632-.631-1.263-1.082-.632"/><path fill="#3c4f45" d="M116.643 85.083c2.073 1.263 4.597 1.714 6.309-.361.54-.632-.36-1.624-.992-.993-1.351 1.534-3.154 1.083-4.686.18-.631-.45-1.352.723-.631 1.174"/><path fill="#b5c5c1" d="M113.668 79.579c1.352-.451 2.885-.27 4.327-.27.81 0 .81-1.264 0-1.264-1.532 0-3.155-.18-4.597.27-.901.362-.54 1.535.27 1.264"/></g></svg>