<svg xmlns="http://www.w3.org/2000/svg" xml:space="preserve" width="800" height="800" viewBox="0 0 490 490"><path d="M480 210v70c0 5.5-4.5 10-10 10h-35.4c-4.9 20.5-13 39.8-23.8 57.2l25.1 25.1c3.9 3.9 3.9 10.2 0 14.1l-49.5 49.5c-3.9 3.9-10.2 3.9-14.1 0l-25.1-25.1c-17.4 10.8-36.7 18.9-57.2 23.8V470c0 5.5-4.5 10-10 10h-70c-5.5 0-10-4.5-10-10v-35.4c-20.5-4.9-39.8-13-57.2-23.8l-25.1 25.1c-3.9 3.9-10.2 3.9-14.1 0l-49.5-49.5c-3.9-3.9-3.9-10.2 0-14.1l25.1-25.1c-10.8-17.4-18.9-36.7-23.8-57.2H20c-5.5 0-10-4.5-10-10v-70c0-5.5 4.5-10 10-10h35.4c4.9-20.5 13-39.8 23.8-57.2l-25.1-25.1c-3.9-3.9-3.9-10.2 0-14.1l49.5-49.5c3.9-3.9 10.2-3.9 14.1 0l25.1 25.1c17.4-10.8 36.7-18.9 57.2-23.8V20c0-5.5 4.5-10 10-10h70c5.5 0 10 4.5 10 10v35.4c20.5 4.9 39.8 13 57.2 23.8l25.1-25.1c3.9-3.9 10.2-3.9 14.1 0l49.5 49.5c3.9 3.9 3.9 10.2 0 14.1l-25.1 25.1c10.8 17.4 18.9 36.7 23.8 57.2H470c5.5 0 10 4.5 10 10" style="fill:#919698"/><path d="M245 135c60.8 0 110 49.2 110 110s-49.2 110-110 110-110-49.2-110-110 49.2-110 110-110" style="fill:#e7eced"/><path d="M245 195c27.6 0 50 22.4 50 50s-22.4 50-50 50-50-22.4-50-50 22.4-50 50-50" style="fill:#afb6bb"/><path d="M470 190h-27.664a203.4 203.4 0 0 0-18.972-45.622l19.608-19.607c7.784-7.787 7.784-20.456-.001-28.242l-49.501-49.5c-7.785-7.787-20.455-7.785-28.242 0l-19.606 19.606A203.5 203.5 0 0 0 300 47.664V20c0-11.028-8.972-20-20-20h-70c-11.028 0-20 8.972-20 20v27.664a203.4 203.4 0 0 0-45.623 18.972l-19.606-19.607c-7.787-7.786-20.456-7.785-28.242 0l-49.5 49.5c-7.786 7.786-7.786 20.456 0 28.243l19.606 19.606A203.4 203.4 0 0 0 47.664 190H20c-11.028 0-20 8.972-20 20v70c0 11.028 8.972 20 20 20h27.664a203.4 203.4 0 0 0 18.972 45.623l-19.607 19.606c-7.786 7.787-7.786 20.456 0 28.242l49.5 49.5c7.787 7.786 20.456 7.786 28.243 0l19.606-19.606a203.4 203.4 0 0 0 45.623 18.972V470c0 11.028 8.972 20 20 20h70c11.028 0 20-8.972 20-20v-27.664a203.4 203.4 0 0 0 45.622-18.972l19.607 19.607c7.785 7.787 20.455 7.785 28.242 0l49.5-49.5c7.785-7.786 7.785-20.455 0-28.242l-19.607-19.606a203.4 203.4 0 0 0 18.972-45.622H470c11.028 0 20-8.972 20-20v-70c0-11.029-8.972-20.001-20-20.001m0 90h-35.4c-4.628 0-8.65 3.175-9.727 7.675-4.612 19.301-12.206 37.554-22.569 54.251a10 10 0 0 0 1.425 12.345l25.101 25.057-49.458 49.5-25.1-25.1a10 10 0 0 0-12.345-1.426c-16.696 10.363-34.949 17.957-54.252 22.571a10 10 0 0 0-7.675 9.726V470h-70v-35.4a10 10 0 0 0-7.675-9.726c-19.302-4.614-37.555-12.208-54.251-22.571a9.996 9.996 0 0 0-12.345 1.426l-25.057 25.1-49.5-49.458 25.1-25.1a10 10 0 0 0 1.426-12.345c-10.363-16.696-17.957-34.949-22.571-54.251A10 10 0 0 0 55.4 280H20v-70h35.4a10 10 0 0 0 9.726-7.675c4.614-19.302 12.208-37.555 22.571-54.251a10 10 0 0 0-1.426-12.345l-25.1-25.057 49.458-49.5 25.1 25.1a10 10 0 0 0 12.345 1.426c16.696-10.363 34.949-17.957 54.251-22.571A10 10 0 0 0 210 55.401V20h70v35.4a10 10 0 0 0 7.675 9.726c19.303 4.614 37.556 12.208 54.252 22.571a10 10 0 0 0 12.345-1.426l25.058-25.1 49.5 49.458-25.101 25.1a10 10 0 0 0-1.425 12.345c10.363 16.698 17.957 34.951 22.569 54.251A10 10 0 0 0 434.6 210H470z" style="fill:#231f20"/><path d="M245 125c-66.168 0-120 53.832-120 120s53.832 120 120 120 120-53.832 120-120-53.832-120-120-120m0 220c-55.14 0-100-44.86-100-100s44.86-100 100-100 100 44.86 100 100-44.859 100-100 100" style="fill:#231f20"/><path d="M245 185c-33.084 0-60 26.916-60 60s26.916 60 60 60 60-26.916 60-60-26.916-60-60-60m0 100c-22.056 0-40-17.944-40-40s17.944-40 40-40 40 17.944 40 40-17.944 40-40 40" style="fill:#231f20"/></svg>