<svg xmlns="http://www.w3.org/2000/svg" width="44.8" height="77.053" viewBox="-0.5 -0.5 44.8 77.053"><path fill="#0cc" d="M41.515 69.653c-.72 1.07-1.62 2.02-2.67 2.78-1.43 1.05-3.16 1.96-5.45 2.86-1.28.5-2.65.76-4.02.76-.21 0-.41 0-.62-.01l-6-.34h-6.35c-.23 0-.47-.01-.7-.02-1.37-.09-2.23-.14-2.56-.16-.53-.02-1.07-.08-1.59-.17-5.15-.93-9.08-4.12-10.8-8.75a3 3 0 0 1-.12-.34c-.8-2.38-1.54-7.12 2.41-12.24 1.92-2.49 4.06-3.91 5.9-4.72v-9.59c-.06-1.98-.06-3.98 0-5.96v-6.03c-2.47-1.04-4.6-2.69-6.24-4.89a10.7 10.7 0 0 1-1.63-3.1c-.5-1.48-.75-2.98-.75-4.46 0-3.14 1.23-13.52 17.04-15.08 2.93-.31 6.06-.25 8.97.21q2.31.24 4.71.48c9.42.78 11.82 7.48 12.33 9.52.04.19.08.37.12.55.19 1 .29 2 .29 3 0 5.38-2.93 9.87-7.74 12.2v23.19c.62.27 1.21.58 1.78.94.18.11.35.22.52.34 2.09 1.48 4.71 4.32 5.36 9.45.02.22.05.44.06.66.27 4.16-1.08 7.14-2.25 8.92"/><path fill="#fff" d="M32.7 13.071q.087.44.088.88 0 2.111-2.814 2.727a117 117 0 0 0-4.662.439q-.705.09-.615.88.086.704.176 1.407 0 2.2.176 6.421v33.073q.8.177 3.647.177 2.313-.088 3.292.527.623.441.801 1.848.087 1.319-.438 2.11-.964.705-2.978 1.496l-6.308-.353h-6.66a178 178 0 0 0-2.89-.176q-1.93-.35-2.453-1.759-.265-.791.687-2.023.951-1.23 1.986-1.495 2.416.088 6.211-.528V39.547a88 88 0 0 1 0-5.63v-10.82q.087-2.11-.44-5.629-3.08.527-3.958.527-2.726.001-4.046-1.759a3 3 0 0 1-.176-.968q0-3.43 7.125-4.135 3.341-.351 6.421.177 2.551.264 5.189.527 2.376.18 2.639 1.234"/></svg>