<svg xmlns="http://www.w3.org/2000/svg" width="210.513" height="33.221" viewBox="-0.229 0.079 210.513 33.221"><path fill="#fff" stroke="#e3deee" stroke-width=".452" d="M1.198 32.8c4.88-.316 204.774 0 207.214 0 3.117 0 .632-4.563-4.519-7.274-8.45-4.428-15.408-1.808-15.86-2.44-.36-.497 1.989-10.573-16.401-13.691-13.194-2.214-23.631-1.31-41.253 4.654C125.906 11.067 109.73.855 84.969.584c-28.285-.361-49.476 18.932-51.6 20.74-3.208.135-8.675.813-15.588 2.665-6.235 1.672-11.974 4.473-15.77 6.597-2.033 1.13-2.258 2.214-.813 2.214Z"/><path fill="#e3deee" d="M95 25.797c11.341-.543 22.366-7.591 35.379-11.748C125.906 11.067 109.73.855 84.969.584c-28.285-.361-49.476 18.932-51.6 20.74 19.79-.543 47.172 5.15 61.631 4.473"/></svg>