<svg xmlns="http://www.w3.org/2000/svg" width="155.33" height="117.682" viewBox="0 0 155.33 117.682"><g stroke-miterlimit="10" data-paper-data="{&quot;isPaintingLayer&quot;:true}" style="mix-blend-mode:normal"><g stroke-linejoin="round" data-paper-data="{&quot;index&quot;:null,&quot;origPos&quot;:null,&quot;origRot&quot;:0}"><path fill="#fff" stroke="#627191" stroke-width=".25" d="M143.75 55.864c-4.846.12-4.135-1.785-11.963-2.15-5.361-.25-15.17 2.205-15.211-5.508-.168-8.298 8.865-6.756 15.961-6.933 3.226-.416 6.801-1.68 10.36-1.526 10.49.453 12.46 5.478 12.299 9.2-.193 4.44-6.601 6.796-11.446 6.917z" data-paper-data="{&quot;origPos&quot;:null,&quot;index&quot;:null,&quot;origRot&quot;:0}"/><path fill="#627191" d="M131.576 53.263c-5.347-.529-15.095 2.028-15-5.057-.188-6.87 8.865-6.756 15.961-6.933 3.226-.416 6.861-.785 10.42-.631 8.03.49 11.585 4.116 11.423 7.838-.193 4.441-6.205 6.272-11.05 6.393s-6.892-1.13-11.754-1.61" data-paper-data="{&quot;origPos&quot;:null,&quot;index&quot;:null,&quot;origRot&quot;:0}"/><path fill="none" stroke="#fff" stroke-linecap="round" d="m140.886 43.642-2.92 8.482-1.922-8.803-3.012 8.595-1.982-8.662s.837 2.144.7 4.309c-.143 2.234-1.12 4.203-1.12 4.203l3.15-8.46 1.493 8.614 3.167-8.523 2.198 8.767 2.702-8.366s1.085 2.323.965 4.124c-.12 1.802-1.218 4.172-1.218 4.172z" data-paper-data="{&quot;origPos&quot;:null,&quot;origRot&quot;:0}"/><path fill="#fff" d="M148.74 47.77c.058-2.052.276-5.257.276-5.257s4.862 2.512 4.86 5.544c-.002 4.104-5.157 5.004-5.157 5.004s-.037-3.226.021-5.291" data-paper-data="{&quot;origPos&quot;:null,&quot;origRot&quot;:0}"/></g><path fill="#f6dbc4" d="M20.336 12.819c-1.256.619-.875-.75-3.384-.554-1.72.134-3.747-4.496-2.463-8.022 1.953-5.098 25.398-6 18.872-.285-10.636 8.262-11.77 8.242-13.025 8.86" data-paper-data="{&quot;origPos&quot;:null,&quot;origRot&quot;:0,&quot;index&quot;:null}"/><g data-paper-data="{&quot;origPos&quot;:null,&quot;origRot&quot;:0,&quot;index&quot;:null}"><path fill="#f6dbc4" d="M29.595.695c6.512.282 12.739 3.95 11.643 7.974s-4.092 8.748-11.029 6.5c-7.27-2.355-12.381-5.244-14.003-10.258C15.208 1.199 23.083.414 29.595.695" data-paper-data="{&quot;origPos&quot;:null,&quot;origRot&quot;:0,&quot;index&quot;:null}"/><g stroke-width=".5" data-paper-data="{&quot;origPos&quot;:null,&quot;origRot&quot;:0}"><path fill="#d1b29b" d="M39.02 11.754c-.333-.101-.549-.485-.482-.858.066-.372.39-.591.723-.49.333.102.549.486.482.858-.066.373-.39.592-.723.49M18.917 4.698c.066-.372.39-.591.723-.49.333.102.549.486.482.858-.066.373-.39.592-.723.49s-.549-.485-.482-.858M23.723 4.714c.058-.32.337-.51.624-.422.287.087.473.418.415.74-.057.32-.336.51-.623.422s-.473-.419-.416-.74M21.11 3.332c-.333-.101-.55-.486-.483-.858s.39-.592.723-.49.55.486.483.858-.39.592-.724.49M32.379 8.81c.04-.22.232-.351.43-.29.198.06.326.288.287.51-.04.221-.232.352-.43.291-.198-.06-.327-.289-.287-.51M28.931 3.046c.04-.221.232-.352.43-.291.198.06.327.288.287.51-.04.221-.232.352-.43.291-.198-.06-.327-.289-.287-.51M29.478 8.234c.04-.222.233-.352.43-.292.199.06.327.289.287.51s-.232.352-.43.292-.326-.289-.287-.51M28.09 7.616c-.199-.06-.327-.289-.287-.51s.232-.352.43-.292.326.29.287.51c-.04.222-.232.353-.43.292M25.705 5.541c.04-.221.232-.352.43-.292s.326.29.287.51c-.04.222-.233.353-.43.292-.199-.06-.327-.289-.287-.51" data-paper-data="{&quot;origPos&quot;:null}"/><path fill="#bda18b" d="M21.805 6.842c-.247-.076-.407-.36-.358-.637.05-.276.29-.439.537-.364s.407.36.357.637c-.049.276-.29.439-.536.364M26.385 7.93c.075-.417.438-.663.81-.549.374.114.616.545.541.962s-.437.663-.81.55c-.374-.115-.616-.545-.541-.963M34.916 7.84c-.356-.108-.587-.52-.516-.917.072-.398.418-.633.774-.524s.587.52.515.917c-.07.398-.417.633-.773.524" data-paper-data="{&quot;origPos&quot;:null}"/><path fill="#d1b29b" d="M25.006 7.103c-.03-.178.071-.34.226-.362s.306.105.336.283c.03.179-.072.34-.227.363-.155.021-.305-.105-.335-.284M35.784 5.616c-.03-.178.072-.34.227-.362s.305.105.335.283c.03.179-.071.34-.226.363s-.306-.105-.336-.284" data-paper-data="{&quot;origPos&quot;:null,&quot;origRot&quot;:0}"/><path fill="#d1b29b" d="M37.328 7.522c.062-.346.363-.55.673-.456s.511.452.45.799c-.063.346-.364.55-.674.456s-.511-.452-.45-.799M34.686 4.027c.259.078.426.376.375.665-.052.29-.303.46-.562.38-.258-.078-.426-.376-.374-.665s.303-.46.561-.38" data-paper-data="{&quot;origPos&quot;:null}"/><path fill="#bda18b" d="M29.513 6.428c.053-.296.31-.47.574-.39.264.082.436.386.383.682-.053.295-.31.47-.574.389s-.436-.386-.383-.681" data-paper-data="{&quot;origPos&quot;:null}"/></g></g><path fill="#9383d1" d="M76.675 53.88q-.02.015 0-.001z" data-paper-data="{&quot;origPos&quot;:null,&quot;origRot&quot;:0,&quot;index&quot;:null}"/><g stroke-width="0" data-paper-data="{&quot;index&quot;:null,&quot;origPos&quot;:null}"><path fill="#5083ab" d="m78.829 28.793 45.045 12.797s10.649 6.556 1.94 12.048c-3.795.505-23.349 3.313-23.349 3.313L90.613 74.423z" data-paper-data="{&quot;origPos&quot;:null}"/><path fill="#cddce7" d="M127.022 41.255s13.962 6.347.531 12.62c-1.02.12-3.32.4-6.328.772 5.943-4.807 6.26-8.347.192-14.448z" data-paper-data="{&quot;origPos&quot;:null}"/></g><path fill="#f6dbc4" d="M135.826 98.455c5.099-.508 8.873-5.801 10.552-3.657 1.157 1.478-6.33 7.026-8.299 9.326-22.443 4.49-22.067-2.437-17.028-6.66 6.237-5.19 5.764-2.78 10.58-4.135 3.592-1.01 3.786-1.444 4.839-.18.657.958-2.394 1.535-5.57 4.355z" data-paper-data="{&quot;origPos&quot;:null,&quot;origRot&quot;:0,&quot;index&quot;:null}"/><g data-paper-data="{&quot;index&quot;:null}"><path fill="#f6dbc4" d="M128.331 101.853c1.604 3.327-14.438 6.258-21.675 7.51-7.236 1.252-10.027 1.108-13.201-4.674-3.976-7.243 5.857-8.344 13.829-7.81 8.353.561 18.125-1.087 21.047 4.974" data-paper-data="{&quot;origPos&quot;:null,&quot;origRot&quot;:0,&quot;index&quot;:null}"/><g stroke-width=".5" data-paper-data="{&quot;origPos&quot;:null,&quot;origRot&quot;:0}"><path fill="#d1b29b" d="M111.714 105.634c.4-.051.76.206.807.574.045.368-.241.708-.64.759-.4.051-.762-.206-.807-.574s.24-.708.64-.76M107.107 99.078c.344-.044.655.178.695.495s-.208.61-.552.654-.656-.177-.695-.494c-.04-.318.207-.61.552-.655M105.109 104.245c.4-.05.76.206.806.574s-.24.708-.64.76c-.4.05-.76-.206-.807-.574-.045-.369.241-.708.64-.76M118.811 100.55c-.027-.219.144-.421.382-.451.237-.03.452.122.48.34.026.22-.144.422-.382.452s-.452-.122-.48-.34M110.106 104.968c-.027-.219.143-.421.38-.452.239-.03.453.123.48.342.028.219-.143.42-.38.451-.238.03-.453-.122-.48-.341M110.007 107.167c.237-.03.452.123.48.342s-.144.42-.382.451c-.237.03-.452-.122-.48-.341s.144-.421.382-.452M113.673 101.098c.238-.03.453.123.48.342s-.143.42-.38.451c-.239.03-.453-.122-.48-.341-.028-.22.143-.421.38-.452M111.075 102.311c.238-.03.452.123.48.342s-.144.42-.381.451c-.238.03-.453-.122-.48-.341s.143-.421.381-.452" data-paper-data="{&quot;origPos&quot;:null}"/><path fill="#bda18b" d="M107.97 106.847c-.033-.273.18-.526.476-.563.296-.038.564.152.598.425s-.179.525-.475.563c-.297.038-.564-.152-.598-.425M107.328 103.08c.448-.056.853.232.904.644s-.27.794-.718.851-.853-.23-.904-.643.27-.794.718-.851M115.984 102.316c.427-.055.813.22.862.613.05.394-.257.757-.685.812-.427.055-.813-.22-.862-.614-.049-.393.258-.757.685-.811" data-paper-data="{&quot;origPos&quot;:null}"/><path fill="#d1b29b" d="M104.677 106.871c.051-.167.238-.268.419-.225.18.042.285.213.234.38-.05.168-.238.27-.418.227s-.285-.214-.235-.382M121.976 103.38c.05-.167.238-.268.418-.225s.286.213.235.38c-.05.168-.238.27-.418.227s-.286-.214-.235-.381M123.218 104.874c.18.043.285.213.234.38-.05.169-.238.27-.418.227s-.285-.214-.235-.381c.051-.168.238-.269.419-.226M117.924 105.398c.051-.168.238-.269.419-.226.18.043.285.213.234.38-.05.169-.238.27-.418.227s-.285-.214-.235-.381" data-paper-data="{&quot;origPos&quot;:null,&quot;origRot&quot;:0}"/><path fill="#d1b29b" d="M124.508 102.487c-.043-.343.225-.659.597-.707s.708.192.75.535c.043.342-.224.659-.596.706-.372.048-.708-.191-.75-.534" data-paper-data="{&quot;origPos&quot;:null}"/><path fill="#bda18b" d="M106.655 105.975c-.036-.292.191-.562.508-.603.318-.04.604.164.64.456s-.19.562-.508.602c-.317.04-.604-.163-.64-.455" data-paper-data="{&quot;origPos&quot;:null}"/></g></g><g data-paper-data="{&quot;index&quot;:null}"><path fill="#9383d1" d="M77.156 57.839q-.02.015 0-.002z" data-paper-data="{&quot;origPos&quot;:null,&quot;origRot&quot;:0,&quot;index&quot;:null}"/><path fill="#a69bd1" d="M57.811 9.407c9.222 5.305 10.329 9.314 17.187 17.742 24.219 5.808 33.75 43.32 24.084 64.364-2.29 5.356-13.104 1.67-21.575 3.549 10.972-2.999 24.367-14.017 26.225 10.281.105 5.967-2.3 12.04-9.071 12.331-5.774.249-2.19-5.477-27.64-3.706-10.773.105-28.873 1.776-43.08-48.586-4.593-17.854 3.606-48.054 3.606-48.054s-3.927-1.779-3.783-4.946c-.68-10.514 18.619-17.425 21.867-7.765 0 0 2.959-.514 12.18 4.79" data-paper-data="{&quot;origPos&quot;:null,&quot;index&quot;:null,&quot;origRot&quot;:0}"/><g fill="#9383d1" stroke-width=".5" data-paper-data="{&quot;origPos&quot;:null,&quot;origRot&quot;:0,&quot;index&quot;:null}"><path d="M83.186 67.725c-.282 0-.51-.64-.51-1.431s.228-1.432.51-1.432.51.64.51 1.432c0 .79-.228 1.431-.51 1.431" data-paper-data="{&quot;origPos&quot;:null}"/><path d="M83.517 66.993c-1.879.748-5.237 1.677-7.191 1.81 0 0-.825.187-.844-.968s.913-1.219.913-1.219c2.654-.18 5.939-.778 6.796-.854.285-.025.446-.037.732-.052 1.12-.06.796.805-.406 1.283" data-paper-data="{&quot;origPos&quot;:null,&quot;origRot&quot;:0}"/></g><g fill="#9383d1" stroke-width=".5" data-paper-data="{&quot;origPos&quot;:null,&quot;origRot&quot;:0,&quot;index&quot;:null}"><path d="M83.503 59.536c-.265 0-.48-.58-.48-1.295 0-.716.215-1.296.48-1.296.266 0 .481.58.481 1.296 0 .715-.215 1.295-.48 1.295" data-paper-data="{&quot;origPos&quot;:null}"/><path d="m83.864 59.015-7.35-.409s-.964-.053-.946-1.251c.017-1.198.976-.734.976-.734 2.438.136 4.771.372 7.232.95 1.275.3 2.11 1.556.088 1.444" data-paper-data="{&quot;origPos&quot;:null,&quot;origRot&quot;:0}"/></g><path fill="#9383d1" d="M77.556 28.253s14.446 3.701 21.534 23.845c7.136 20.283 1.282 34.98 1.282 34.98l-7.74-8.207s-.877-12.725-3.895-20.255c-2.884-7.197-10.029-17.002-10.029-17.002z" data-paper-data="{&quot;origPos&quot;:null,&quot;origRot&quot;:0,&quot;index&quot;:null}"/></g><path fill="#ab7b70" d="M51.826 102.972c-36.249-1.396-55.291-32.806-45.24-47.614-6.753-16.742 25.123-33.607 47.901-33.534 21.276.07 20.368 6.734 32.416 12.869 4.15 2.805 6.491-1.905 8.74 9.927-1.203-1.881-3.86-2.15-3.86-2.15s5.907 6.643 5.121 11.093c-3.8-12.811-41.484-20.655-41.557 10.722-.059 24.824 39.2 19.045 40.062 3.894.493 2.183-2.731 8.5-2.731 8.5s2.21-2.461 3.28-4.655c-.39 5.143-5.358 9.906-5.358 9.906s3.842-2.426 5.472-5.621c-1.215 9.36-5.28 13.92-14.27 16.79-7.292 2.327-9.231 10.672-29.976 9.873" data-paper-data="{&quot;origPos&quot;:null}"/><path fill="#f6dbc4" d="M87.383 80.782c-4.618 6.167-11.862 6.742-19.271 8.282-5.916 3.115-12.959 7.797-15.347 5.831-2.59-2.133 8.383-5.699-1.099-3.408s-42.89 6.742-42.67-29.82c.708-37.312 32.868-33.012 40.125-30.892 16.098 3.357 3.208 1.634 6.31-2.71 2.643-.985 8.738 2.28 13.487 6.498 6.368 1.046 14.602 3.388 18.547 8.645 4.147 5.527 2.143 11.59 3.804 13.37 1.786 1.914 3.199 2.89 3.083 4.395-.106 1.741-1.92 3.34-2.85 4.112-.932.773.113 10.046-4.119 15.697" data-paper-data="{&quot;origPos&quot;:null}"/><g stroke-width=".5" data-paper-data="{&quot;origPos&quot;:null}"><path fill="#d1b29b" d="M87.402 52.407c-.364 0-.659-.325-.659-.726s.295-.726.66-.726c.363 0 .658.325.658.726s-.295.726-.659.726M86.543 47.849c-.304 0-.55-.271-.55-.605s.246-.605.55-.605c.303 0 .549.27.549.605s-.246.605-.55.605M86.062 78.022c-.314 0-.569-.28-.569-.626 0-.345.255-.625.569-.625s.568.28.568.625c0 .346-.255.626-.569.626M84.694 82.013c-.364 0-.66-.325-.66-.726s.296-.725.66-.725.66.325.66.725c0 .401-.296.726-.66.726M87.41 67.306c-.216 0-.392-.193-.392-.432 0-.238.176-.431.392-.431s.392.193.392.431c0 .239-.175.432-.392.432M87.696 70.734c-.217 0-.392-.193-.392-.431 0-.239.175-.432.392-.432.216 0 .392.193.392.432 0 .238-.176.431-.392.431M86.958 72.877c-.217 0-.392-.193-.392-.431 0-.239.175-.432.392-.432.216 0 .392.193.392.432 0 .238-.176.431-.392.431M86.267 75.592c-.216 0-.392-.194-.392-.432s.176-.432.392-.432.392.193.392.432c0 .238-.175.432-.392.432M83.44 57.502c-.339 0-.613-.303-.613-.676s.274-.676.613-.676c.34 0 .614.303.614.676s-.275.676-.614.676" data-paper-data="{&quot;origPos&quot;:null}"/><path fill="#bda18b" d="M87.957 74.494c-.408 0-.739-.364-.739-.814s.33-.813.739-.813c.408 0 .739.364.739.813 0 .45-.331.814-.74.814M87.167 49.563c-.196 0-.356-.175-.356-.392s.16-.392.356-.392c.197 0 .356.175.356.392s-.159.392-.356.392M87.405 46.42c-.196 0-.356-.175-.356-.392 0-.216.16-.392.356-.392.197 0 .357.176.357.392s-.16.392-.357.392M87.81 47.992c-.197 0-.356-.176-.356-.392s.16-.393.356-.393c.197 0 .356.176.356.393 0 .216-.16.392-.356.392M85.088 65.383c-.39 0-.705-.347-.705-.775s.316-.776.705-.776c.39 0 .705.347.705.776 0 .428-.316.775-.705.775M84.3 42.998c-.383 0-.693-.342-.693-.763 0-.422.31-.764.693-.764s.693.342.693.764c0 .421-.31.763-.693.763" data-paper-data="{&quot;origPos&quot;:null}"/><path fill="#d1b29b" d="M79.687 63.709c-.314 0-.569-.28-.569-.626 0-.345.255-.625.569-.625s.568.28.568.625c0 .346-.255.626-.569.626" data-paper-data="{&quot;origPos&quot;:null}"/><path fill="#d1b29b" d="M81.056 60.356c-.156.07-.336-.012-.4-.185-.064-.172.011-.37.168-.44s.336.012.4.184c.064.173-.01.37-.168.441M81.056 56.356c-.156.07-.336-.012-.4-.185-.064-.172.011-.37.168-.44s.336.012.4.184c.064.173-.01.37-.168.441M85.914 58.927c-.157.071-.336-.012-.4-.184-.065-.173.01-.37.167-.441.157-.07.336.012.4.185.065.172-.01.37-.167.44" data-paper-data="{&quot;origPos&quot;:null,&quot;origRot&quot;:0}"/><path fill="#bda18b" d="M86.342 49.785c-.157.07-.336-.013-.4-.185-.064-.173.01-.37.168-.44.157-.071.336.011.4.184s-.011.37-.168.44" data-paper-data="{&quot;origPos&quot;:null,&quot;origRot&quot;:0}"/><path fill="#d1b29b" d="M87.914 76.07c-.157.07-.336-.012-.4-.185-.065-.172.01-.37.167-.44s.336.012.4.185c.065.172-.01.37-.167.44M81.485 62.642c-.157.07-.336-.012-.4-.185s.01-.37.168-.44c.157-.071.336.011.4.184s-.011.37-.168.44M83.485 64.07c-.157.07-.336-.012-.4-.185-.064-.172.01-.37.168-.44.157-.07.336.012.4.185.064.172-.011.37-.168.44M82.485 63.927c-.157.071-.336-.012-.4-.184-.064-.173.01-.37.168-.441.157-.07.336.012.4.185.064.172-.011.37-.168.44M85.914 45.07c-.157.07-.336-.012-.4-.185-.065-.172.01-.37.167-.44s.336.012.4.185c.065.172-.01.37-.167.44M88.342 72.213c-.157.07-.336-.012-.4-.185-.064-.172.01-.37.168-.44.157-.07.336.012.4.185.064.172-.011.37-.168.44" data-paper-data="{&quot;origPos&quot;:null,&quot;origRot&quot;:0}"/><path fill="#d1b29b" d="M84.815 61.92c-.339 0-.613-.303-.613-.676s.274-.676.613-.676c.34 0 .614.303.614.676s-.275.676-.614.676M82.833 66.211c-.282 0-.511-.252-.511-.563s.229-.563.511-.563.511.252.511.563-.228.563-.51.563M82.486 60.196c-.304 0-.55-.27-.55-.604s.246-.605.55-.605c.303 0 .549.27.549.605s-.246.604-.55.604" data-paper-data="{&quot;origPos&quot;:null}"/><path fill="#bda18b" d="M82.69 62.083c-.351 0-.637-.314-.637-.701s.286-.701.637-.701.637.314.637.7c0 .388-.285.702-.637.702M86.012 71.063c-.289 0-.523-.258-.523-.576s.234-.576.523-.576.523.258.523.576-.234.576-.523.576" data-paper-data="{&quot;origPos&quot;:null}"/></g><path fill="#ab7b70" d="M43.565 59.365c9.119 2.453 29.262.422 33.82-7.449 1.068 8.904.824 16.08-.208 20.56-5.223 8.718-23.084 7.812-23.084 7.812s16.795 1.952 21.725-2.413c-1.769 6.275-6.669 18.756-16.825 20.18-39.76 2.023-57.458-16.806-51.907-40.197-1.17-27.242 27.54-33.988 51.568-31.2 7.396.858 12.844.037 14.916 7.188 2.157 12.904-25.006 19.1-25.006 19.1s11.632-1.54 19.22-4.773c4.386-1.869 7.568-4.697 7.443-9.463.895 4.215 2.597 7.286 1.088 11.322-3.749 10.03-32.75 9.333-32.75 9.333" data-paper-data="{&quot;origPos&quot;:null}"/><g fill="#ab7b70" data-paper-data="{&quot;origPos&quot;:null}"><g data-paper-data="{&quot;origPos&quot;:null}"><path d="M84.25 49.662c.098 4.3-2.561 4.845-2.561 4.845s-.056-1.618-.147-4.772c-.32-3.694-3.931-7.173-3.931-7.173s6.54 2.8 6.639 7.1M81.058 55.476s-3.46.137-4.297-2.006c-.434-5.037-.681-6.467-1.932-10.83-.475-1.652-1.092-4.223-1.092-4.223s2.901 2.224 3.615 4.424c.85 2.619 2.14 8.674 2.14 8.674z" data-paper-data="{&quot;origPos&quot;:null,&quot;index&quot;:null}"/></g><g data-paper-data="{&quot;origPos&quot;:null}"><path d="M77.861 80.836s3.611-3.478 3.931-7.173c.091-3.154.147-4.772.147-4.772s2.659.546 2.56 4.846-6.638 7.1-6.638 7.1" data-paper-data="{&quot;origPos&quot;:null}"/><path d="M73.737 84.731s.45-2.57.925-4.223c1.251-4.362 1.665-5.793 2.1-10.83.836-2.142 4.296-2.006 4.296-2.006l-1.565 3.96s-1.292 6.056-2.141 8.675c-.85 2.619-3.615 4.424-3.615 4.424" data-paper-data="{&quot;origPos&quot;:null,&quot;index&quot;:null}"/></g></g><path fill="#a69bd1" d="M56.993 104.722c-31.271-.67-57.282-21.806-56.99-43.78.36-30.4 36.123-40.525 58.9-40.45 3.2.01 4.64 1.845 4.64 1.845S50.222 34.375 50.18 60.618c-.533 22.335 13.36 41.724 13.36 41.724s-.048 2.52-6.547 2.38" data-paper-data="{&quot;origPos&quot;:null}"/><g fill="#9383d1" stroke-width="0"><path d="M47.626 47.15s-3.167-17.49-1.574-23.858c.964-3.855 10.594 1.085 10.594 1.085s-4.256 4.272-6.029 9.13c-2.244 6.148-2.99 13.642-2.99 13.642" data-paper-data="{&quot;origPos&quot;:null,&quot;origRot&quot;:0,&quot;index&quot;:null}"/><path d="M45.908 97.372c-1.592-6.367 1.575-23.857 1.575-23.857s.785 7.522 3.079 13.583c1.487 3.928 5.941 9.19 5.941 9.19s-9.63 4.94-10.595 1.084" data-paper-data="{&quot;origPos&quot;:null,&quot;index&quot;:null,&quot;origRot&quot;:0}"/></g></g></svg>