<svg xmlns="http://www.w3.org/2000/svg" width="88.742" height="97.872" viewBox="-0.137 -0.5 88.742 97.872"><path fill="#281446" d="M60.616 84.653s-2.129 5.749-1.498 5.9c.63.152 1.004-1.337 1.406-2.067.175-.361.416-.686.711-.958z"/><path fill="#006482" d="M59.986 71.544s-.531-5.009 2.39-5.117 2.034 11.389 2.034 11.389c0 1.197-.161 6.071-.225 7.269-.049.914-.109 6.618-1.025 7.125-.334-1.561.289-2.711-.33-2.671-.618.04-.429 3.042-1.076 3.122s.325-3.908-.864-2.535c-.233.268 0 2.659-.884 2.495.269-2.575.281-16.634-.02-21.077"/><path fill="#008264" d="M24.625 84.653s2.129 5.749 1.499 5.9c-.631.152-1.017-1.337-1.423-2.067a3.2 3.2 0 0 0-.711-.958z"/><path fill="#00a08c" d="M25.424 72.866s1.274-5.8-1.804-6.12c-3.078-.319-2.527 12.551-2.527 12.551 0 1.197-.101 4.59-.036 5.788.048.914.108 6.618 1.024 7.125.334-1.561-.289-2.711.33-2.671s.43 3.042 1.077 3.122-.326-3.908.864-2.535c.233.268 0 2.659.884 2.495-.274-2.575-.113-15.312.188-19.755"/><path fill="#006482" d="M55.103 73.987s-2.688 18.929-3.544 21.955c.531.2 2.873-.152 2.905.431a.87.87 0 0 1-.144.499h-5.654a3 3 0 0 1-.193-.327c-.289-.667-.84-22.542-.84-22.542s-1.261-5.548 3.54-6.295 3.93 6.279 3.93 6.279M29.648 73.987s2.688 18.929 3.544 21.955c-.531.2-2.873-.152-2.905.431a.87.87 0 0 0 .144.499h5.654a3 3 0 0 0 .193-.327c.289-.667.84-22.542.84-22.542s.546-5.696-4.26-6.143-3.21 6.127-3.21 6.127"/><path fill="#281446" d="M58.917 1.202 42.052 14.155l35.349 6.203L88.105 1.597z"/><path fill="#828278" d="M2.227 49.318q.037-.066.08-.131c2.62-.104 12.682-.268 16.845-.268l-.056 1.178s-13.405.467-16.853.267a.45.45 0 0 1-.165-.167c-.144-.264.028-.635.149-.879"/><path fill="#008264" d="m24.388 47.873-3.299 31.424s17.511-.212 20.895-.448c-1.519-3.592-3.311-31.135-3.311-31.135z"/><path fill="#281446" d="m8.331 15.736 15.076-2.543-5.252 18.266-17.792.635z"/><path fill="#00a08c" d="M15.564 15.304c1.462 0 13.995-.491 13.995-.491l8.499 17.624c.494 1.493-16.969 46.86-16.969 46.86s-8.632-41.471-9.644-46.62c-.514-2.623-3.114-16.941-3.114-16.941s4.938-.44 7.233-.432"/><path fill="#78c8c8" d="m21.233 25.312 8.326-10.499 17.548-.259 3.162 6.359L42 78.849s-1.728-2.922-2.222-3.76a49 49 0 0 1-2.078-3.992c-1.141-2.451-2.411-4.83-3.528-7.301-1.969-4.39-4.086-8.805-5.75-13.316-1.872-5.094-3.914-10.171-5.513-15.356-.731-2.368-1.784-4.735-2.278-7.162-.245-1.217-.153-1.58.602-2.65"/><path fill="#00a0b4" d="m27.976 0 19.131 14.554-38.776 1.182-7.277-13.74z"/><path fill="#281446" d="M23.588 28.549c0 1.11.639 1.996 1.427 1.996.787 0 1.426-.898 1.426-1.996a2.3 2.3 0 0 0-.635-1.668 1.15 1.15 0 0 0-.803-.336c-.402 0-.957.555-1.206.918-.249.364-.209.531-.209 1.086"/><path fill="#828278" d="M2.38 50.296a.45.45 0 0 1-.237 0c-.29-.096-.402-.483-.495-.742 0-.048-.02-.1-.032-.148 1.837-1.86 6.586-6.483 6.586-6.483s12.622-12.059 15.957-14.53q.222-.166.47-.327a.575.575 0 0 1 .703.607.9.9 0 0 1-.052.283c-.515.356-7.892 7.413-9.274 8.742C13.141 40.449 4.445 47.901 2.38 50.296"/><path fill="#00a0b4" d="m47.107 14.554 34.019.092s-1.363 5.429-1.676 6.734c-.723 2.986-5.417 21.472-6.988 27.583s-3.524 12.127-5.063 18.238c-.663 2.631-2.985 10.615-2.985 10.615s-4.183.323-5.505.435c-3.066.263-6.088.459-9.162.535-1.631.039-3.263.115-4.89.103-1.628-.012-2.857-.04-2.857-.04z"/><path fill="#78c8c8" d="m63.69 30.844 24.166-.65-6.73-15.548-34.019-.092z"/></svg>