<svg xmlns="http://www.w3.org/2000/svg" width="106.462" height="194.798" viewBox="0.267 0.316 106.462 194.798"><path fill="#a0640a" d="M9.3.818c1.968-.152.62 6.848 2.868 6.068 1.688-.584 1.372-5.6 2.644-5.6s.744 2.512.672 4.716c-.04 1.288-.56 8.4-.624 10.556-.108 3.776.448 57.976 2.68 62.4 3.268 6.472 10.16 12.436 13.58 13.2 2.148.468 11.124.672 11.124.672l-.308 10.628s-13.5.608-19.6-2.332c-8.684-4.188-15.9-16.124-17.156-23.5-2.2-12.936-1.74-56.288-1.6-60.828.024-.896-.728-13.228-.184-13.576.884-.556 2.448 6.224 4.572 4.4C9.448 6.298 7.328.97 9.3.818"/><path fill="#824600" d="M9.984 19.95c-1.728-2.46-1.304-5.812.256-7.812s2.732-.188 4.748-1.788 2.668-3.352 3.648-3.02c.64.216-1.956 11.004-3.528 12.364s-3.408 2.728-5.124.256"/><path fill="#780046" d="M16.668 18.578c.048 2.568.196 5.224-.292 7.764-.5.4-6.46.036-7.296 0a55 55 0 0 1-5.78-.532c-1.84-.308-2.144-.98-2.476-3.048-.256-1.6.4-3.696.932-5.2.228-.16 2.152.076 5.448.164a71 71 0 0 1 9.464.852"/><path fill="#a0640a" d="M103.3 12.526c.232-3.712.848-8.572.304-8.92-.884-.556-2.448 6.224-4.568 4.4-1.504-1.3.616-6.628-1.352-6.8s-.62 6.844-2.864 6.068c-1.688-.584-1.376-5.6-2.644-5.6s-.748 2.512-.676 4.716c.044 1.288.56 8.4.624 10.556.068 2.4 1.712 29.544 1.348 45.48-.208 9.276-.148 12.548-1.784 16.184-4.448 9.88-7.972 12.428-11.392 13.172-.936.204-7.6 1.1-9.812 1.2v10.184c4.452-.12 12.8-.056 16.376-1.78 8.688-4.188 12.064-6.68 16.512-23.152s.184-56.536.064-61.076a33 33 0 0 1-.136-4.632"/><path fill="#824600" d="M97.484 19.95c1.724-2.46 1.304-5.812-.256-7.812S94.5 11.95 92.5 10.35s-2.668-3.352-3.648-3.02c-.64.216 1.956 11.004 3.528 12.364s3.376 2.728 5.104.256"/><path fill="#780046" d="M90.332 18.978c-.052 2.568-.2 5.224.288 7.764.5.4 6.46.036 7.296 0a55 55 0 0 0 5.784-.532c1.836-.308 2.14-.98 2.472-3.048.256-1.6-.4-3.696-.932-5.2-.228-.16-2.152.076-5.448.164a71 71 0 0 0-9.46.852M57.744 116.662l-19.644 12s2.628 2.08 9.392 2.08 5.512 1.328 12.692.42 11.916-6.644 11.916-6.644z"/><path fill="#824600" d="M70.392 156.75c.347 2.841.392 5.71.132 8.56l3.808 2.108 5.628-2.108c.6-2.496 1.264-5.9 1.2-9.112-.068-4.8-.4-9.688-3.888-17.088s-13.068-3.476-12-.532c.4 1.152 2.32 5.024 3.736 10.368a73 73 0 0 1 1.384 7.804"/><path fill="#ffdc00" d="M79.768 140.622c-1.052-4.4-8.984-17.748-8.984-17.748s-9.6-1.256-16.66-2.14l10.532 23.432s10.572-2.968 15.112-3.544"/><path fill="#fab414" d="M70.524 165.322c-.135 1.5-.368 2.99-.7 4.46-.356 1.536-.828 3.036-1.244 4.556-.884 3.2-3.932 9.764-5.276 12.8 2.612.448 4.164 1.076 6.772.632 1.556-2.4 4.676-7.224 6.856-12.268a38.4 38.4 0 0 0 2.04-6.312c.232-1.036.612-2.356.988-3.88z"/><path fill="#ffdc00" d="m74.708 193.414-6.616-.856-8.98.624.236 1.3 15.672.132z"/><path fill="#aa3278" d="M73.524 192.126a27 27 0 0 1-3.556-.428l6.4-12.548H65.104l-6 14.032 15.6.236a7.5 7.5 0 0 1-.4-1.048 3.3 3.3 0 0 0-.78-.244"/><path fill="#ffdc00" d="M73.004 182.142h3.056l.252-.78h-3.168z"/><path fill="#fab414" d="M72.056 183.962h3.06l.252-.78h-3.172z"/><path fill="#ffdc00" d="M71.108 185.786h3.06l.252-.784h-3.172z"/><path fill="#fab414" d="M70.164 187.606h3.056l.252-.784H70.3z"/><path fill="#ffdc00" d="M69.216 189.426h3.06l.252-.78h-3.172zM67.3 180.962c.849 0 1.618.345 2.174.902.557.556.902 1.325.902 2.174s-.345 1.618-.902 2.174a3.06 3.06 0 0 1-2.174.902 3.06 3.06 0 0 1-2.174-.902 3.06 3.06 0 0 1-.902-2.174c0-.849.345-1.618.902-2.174a3.06 3.06 0 0 1 2.174-.902"/><path fill="#780046" d="M67.3 182.578c.403 0 .768.164 1.032.428a1.456 1.456 0 0 1 0 2.064 1.456 1.456 0 0 1-2.064 0 1.456 1.456 0 0 1 0-2.064 1.46 1.46 0 0 1 1.032-.428"/><path fill="#824600" d="M41.3 156.75a40.4 40.4 0 0 0-.132 8.56l-3.808 2.108-5.628-2.108c-.6-2.496-1.432-5.908-1.2-9.112 1.144-17.088 7.324-22.836 7.324-22.836s9.632 2.272 8.572 5.2c-.592 1.672-4.048 10.464-5.128 18.188"/><path fill="#ffdc00" d="M31.936 140.622c1.052-4.4 8.984-17.748 8.984-17.748s9.6-1.256 16.66-2.14l-10.532 23.432s-10.572-2.968-15.112-3.544"/><path fill="#fab414" d="M41.18 165.322c.135 1.5.368 2.99.7 4.46.356 1.536.828 3.036 1.244 4.556.88 3.2 3.932 9.764 5.276 12.8-2.612.448-4.164 1.076-6.772.632-1.556-2.4-4.676-7.224-6.856-12.268a38 38 0 0 1-2.04-6.312c-.236-1.036-.612-2.356-.988-3.88z"/><path fill="#ffdc00" d="m36.996 193.414 6.616-.856 8.98.624-.24 1.3-15.668.132z"/><path fill="#aa3278" d="M38.18 192.126a27 27 0 0 0 3.556-.428l-6.4-12.548h11.256l6 14.032-15.6.236q.237-.51.4-1.048.378-.171.788-.244"/><path fill="#ffdc00" d="M38.7 182.142h-3.06l-.252-.78h3.172z"/><path fill="#fab414" d="M39.648 183.962h-3.06l-.252-.78h3.172z"/><path fill="#ffdc00" d="M40.596 185.786h-3.06l-.252-.784h3.172z"/><path fill="#fab414" d="M41.54 187.606h-3.056l-.256-.784H41.4z"/><path fill="#ffdc00" d="M42.488 189.426h-3.06l-.252-.78h3.172zM44.404 180.962c.849 0 1.618.345 2.174.902.557.556.902 1.325.902 2.174s-.345 1.618-.902 2.174a3.06 3.06 0 0 1-2.174.902 3.06 3.06 0 0 1-2.174-.902 3.06 3.06 0 0 1-.902-2.174c0-.849.345-1.618.902-2.174a3.06 3.06 0 0 1 2.174-.902"/><path fill="#780046" d="M44.404 182.578c.403 0 .768.164 1.032.428a1.456 1.456 0 0 1 0 2.064 1.456 1.456 0 0 1-2.064 0 1.456 1.456 0 0 1 0-2.064 1.46 1.46 0 0 1 1.032-.428"/><path fill="#ffdc00" d="M46.508 119.938h18.248v8.464H46.508z"/><path fill="#780046" d="M71.412 91.51H36.236l-4.128 13.316 43.504-.072z"/><path fill="#aa3278" d="m42.688 89.738 3.972-.352s-.616 9.708 7.064 9.708 7.416-9.444 7.416-9.444l3.88.176s6.884 33.2 7.064 34.692c-2.516.72-34 4.148-34 4.148z"/><path d="M67.076 55.354c-4.8-4.596-12.752-6.5-18.988-4.284-6.956 2.472-11.06 9.092-10.432 16.4.244 2.836.8 6.164 2.636 8.456 1.736 2.144 6.424 6 14.704 5.428s11.496-3.744 12.428-4.92c3.74-4.716 4.304-16.628-.348-21.08"/><path fill="#a0640a" d="M64.96 75.306c0-.304-.516-5.62-2.944-8.66-2.192-2.744-6.256-3.252-7.556-3.312-5.484-.248-9.68 3.436-10.12 6.528-.664 4.636.596 9.4 3.732 13.736 1.72 2.38 4.216 3.128 6.488 3.124 6.316-.008 10.672-5.32 10.4-11.416"/><path d="m44.752 74.314-.292-10.252-2.864 2.676L43.7 72.85zM65.016 72.85l2.108-6.112-4.432-3.08.82 9.652z"/><path fill="#a0640a" d="M62.396 78.974s2.8-1.168 4.4-3.396c1.032-1.44 1.408-3.896.764-4.84-.836-1.236-2.304-1.62-3.484-.552-.908.824-1.856 5.564-1.972 6.68.016.02.292 2.108.292 2.108M47.324 78.598s-3.012-.18-5.26-1.756c-1.452-1.016-2.62-3.2-2.328-4.312.4-1.444 1.64-2.292 3.104-1.672 1.132.476 3.6 4.632 4.08 5.648-.02.028.404 2.092.404 2.092"/><path d="M52.304 79.55a8.7 8.7 0 0 1 4.82.204c.94 2.072-5.748 2-4.82-.204"/><path fill="#824600" d="M55.964 76.67c-1.036.424-2.08.184-3.112-.072-.348-.888 1.016-3.232 1.952-3.264.896.924 1.508 1.92 1.16 3.336"/><path d="M49.26 73.286c.096.652.172 1.232-.204 1.764-.948.084-.66-1.6-.216-1.98zM60.476 73.342c.072.612.4 1.2-.088 1.796l-.676-.144c.036-.624-.208-1.244.264-1.792z"/></svg>