<svg xmlns="http://www.w3.org/2000/svg" width="247.846" height="135.152" viewBox="0.151 -0.516 247.846 135.152"><path fill="#174832" d="m166.687 78.292-18.538 3.012-77.558-42.209C58.767 32.621 50.05 21.629 46.543 8.58l-.451-1.405a2.09 2.09 0 0 1 1.453-2.56c.2-.05.4-.1.601-.05l23.397.653 104.062 56.613z"/><g fill="none" stroke="#151b22" stroke-width=".5"><path d="m165.134 56.042-14.73 26.399M154.663 50.32l-14.73 26.45M144.241 44.649l-14.729 26.399M133.77 38.978l-14.73 26.399M123.299 33.306l-14.73 26.4M112.878 27.585l-14.73 26.449M102.406 21.914l-14.73 26.399M91.985 16.242l-14.73 26.4M81.514 10.521 66.784 36.97M70.642 5.703 57.615 28.99"/><path stroke-linecap="round" d="m56.964 5.05-6.563 13.049"/></g><path fill="#00b694" d="M164.714 55.306 65.211 1.203c-3.707-2.008-7.264 2.911-4.158 5.771l34.921 32.924c12.525 11.794 28.508 19.323 45.593 21.38l21.944 2.66z"/><g fill="none" stroke="#1b7e64" stroke-width=".5"><path stroke-linecap="round" d="M164.212 58.713 60.551 2.301"/><path d="M155.795 62.678 71.473 16.806"/><path stroke-linecap="round" d="M134.702 59.767 93.418 37.283"/></g><path fill="none" stroke="#151b22" stroke-linecap="round" d="m241.036 50.7-42.487 25.245 48.198-4.768"/><path fill="#00c0a5" d="m190.433 62.796 6.713 3.663c3.608 1.958 4.91 6.475 2.956 10.038a7.65 7.65 0 0 1-2.705 2.811l-16.484 9.937c-1.954 1.205-4.509.552-5.711-1.405-.752-1.255-.802-2.861-.1-4.116l10.571-19.473c.952-1.756 3.056-2.359 4.76-1.455"/><path fill="none" stroke="#174832" stroke-linecap="round" stroke-width=".5" d="m176.583 88.643 14.451-13.551"/><path fill="#ecf135" stroke="#979797" stroke-linecap="round" stroke-width=".5" d="M192.888 67.463c1.506 0 2.872.613 3.86 1.604a5.46 5.46 0 0 1 1.601 3.867 5.46 5.46 0 0 1-1.601 3.867 5.44 5.44 0 0 1-3.86 1.603 5.44 5.44 0 0 1-3.861-1.603 5.46 5.46 0 0 1-1.6-3.867c0-1.51.612-2.877 1.6-3.867a5.44 5.44 0 0 1 3.861-1.604Z"/><path fill="#151b22" d="M192.888 69.571c.926 0 1.765.377 2.373.986a3.36 3.36 0 0 1-2.373 5.739 3.34 3.34 0 0 1-2.373-.985 3.36 3.36 0 0 1-.984-2.377c0-.928.376-1.769.984-2.377a3.34 3.34 0 0 1 2.373-.986"/><path fill="none" stroke="#151b22" stroke-linecap="round" stroke-width="1.5" d="M1.401 104.78h16.383l15.181-86.576"/><path fill="#ecf135" d="M106.214 44.302 32.915 17.301c-1.152-.502-2.455.05-2.956 1.204-.251.653-.251 1.356.1 1.958.251.401.601.753 1.002.953l69.141 37.491c3.857 2.108 8.667.703 10.772-3.111 2.104-3.815.701-8.683-3.107-10.791-.501-.351-1.052-.552-1.653-.703"/><path fill="none" stroke="#151b22" stroke-linecap="round" stroke-width="1.5" d="M85.051 109.35h16.734l5.962-50.289"/><path fill="#151b22" d="M108.498 56.25a2.256 2.256 0 0 1 1.594 3.855 2.245 2.245 0 0 1-3.187 0 2.256 2.256 0 0 1 1.593-3.855M147.578 74.669c1.382 0 2.635.563 3.542 1.471a5 5 0 0 1 1.468 3.548c0 1.385-.561 2.64-1.468 3.548a5 5 0 0 1-3.542 1.471 5 5 0 0 1-3.542-1.471 5 5 0 0 1-1.468-3.548 5 5 0 0 1 1.468-3.548 5 5 0 0 1 3.542-1.471"/><path fill="none" stroke="#151b22" stroke-width="2.5" d="m148.079 80.19-40.182-22.083"/><path fill="#54923a" d="m158.903 49.802 26.755 14.555-14.229 26.249a4.567 4.567 0 0 1-6.263 1.857A4.7 4.7 0 0 1 162.761 89l-5.311-38.244c-.1-.552.301-1.054.852-1.154.2.1.401.15.601.2"/><g fill="#174832"><path d="M167.058 57.851a3.6 3.6 0 0 1 2.55 1.059 3.6 3.6 0 0 1 1.057 2.554c0 .997-.404 1.901-1.057 2.555a3.6 3.6 0 0 1-2.55 1.059 3.6 3.6 0 0 1-2.55-1.059 3.6 3.6 0 0 1-1.058-2.555c0-.997.405-1.9 1.058-2.554a3.6 3.6 0 0 1 2.55-1.059M173.521 69.595c.995 0 1.897.405 2.55 1.059a3.6 3.6 0 0 1 1.057 2.554c0 .997-.404 1.901-1.057 2.555a3.6 3.6 0 0 1-2.55 1.059 3.6 3.6 0 0 1-2.55-1.059 3.6 3.6 0 0 1-1.058-2.555c0-.997.405-1.9 1.058-2.554a3.6 3.6 0 0 1 2.55-1.059"/></g><path fill="#174832" d="M162.711 89.05a4.69 4.69 0 0 0 2.405 3.463c2.254 1.205 5.06.402 6.263-1.857l2.254-4.166-12.225-6.625zM161.659 67.82a3.6 3.6 0 0 0-1.804.502l.902 6.575c.301.05.601.1.902.1a3.595 3.595 0 0 0 3.607-3.613c0-2.008-1.653-3.564-3.607-3.564M177.391 59.89c-1.203.603-2.054 1.807-2.054 3.263a3.595 3.595 0 0 0 3.607 3.613 3.595 3.595 0 0 0 3.607-3.613c0-.151 0-.301-.05-.452zM159.555 50.204a3.34 3.34 0 0 0-.451 1.706 3.595 3.595 0 0 0 3.607 3.614 3.6 3.6 0 0 0 3.156-1.857zM177.541 79.263a3.33 3.33 0 0 0-1.703-.451 3.596 3.596 0 0 0-3.608 3.613 3.56 3.56 0 0 0 1.904 3.162z"/><path fill="none" stroke="#151b22" stroke-linecap="round" stroke-width="1.5" d="m222.372 133.236-18.037.15-33.568-21.982-3.707-22.736"/><path fill="#151b22" d="M167.06 84.151c1.244 0 2.371.506 3.187 1.324a4.5 4.5 0 0 1 1.322 3.193 4.5 4.5 0 0 1-1.322 3.193 4.5 4.5 0 0 1-3.187 1.324 4.5 4.5 0 0 1-3.188-1.324 4.5 4.5 0 0 1-1.321-3.193c0-1.246.505-2.375 1.321-3.193a4.5 4.5 0 0 1 3.188-1.324"/></svg>