<svg xmlns="http://www.w3.org/2000/svg" xml:space="preserve" width="98.283" height="98.681" viewBox="17.739 4.659 98.283 98.681"><title>hedgehog-d</title><g fill-rule="nonzero"><path fill="#3e5360" d="M114.964 53.283c-9.56-1.195-9.72-1.594-.16-3.665v-.319c-9.72-.876-9.56-2.39-.716-5.657-.08-.318-.08-.557-.16-.876-8.286.08-8.604-.638-1.274-5.02-.08-.398-.24-.717-.319-1.035-8.207.876-8.047.239-1.912-5.02-.16-.319-.24-.558-.399-.876-6.931 2.948-7.09 2.47-1.195-2.31-.08-.16-.16-.24-.239-.4-5.896 3.427-6.294 2.71-1.275-2.23-.159-.319-.398-.558-.557-.877-5.418 2.63-7.091.638-3.187-4.302a5.6 5.6 0 0 1-.638-.797c-5.816 4.143-6.533 4.064-1.593-1.753-.08-.08-.08-.159-.16-.159-5.895 5.179-6.772 3.506-2.788-2.55a5.6 5.6 0 0 0-.797-.637c-5.02 4.223-6.852 3.426-3.904-2.868-.16-.08-.239-.16-.398-.24v.08c-5.737 6.135-7.41 6.454-4.621-2.55-.32-.159-.558-.238-.877-.398-4.063 6.534-4.621 5.737-2.63-1.035-.158-.08-.398-.16-.557-.24-3.904 7.57-4.462 7.65-2.39-.716-.08 0-.24-.08-.319-.08-4.541 8.525-5.896 7.09-5.896-1.195-.239 0-.478-.08-.717-.08-2.071 8.366-2.55 8.605-1.673-.16h-.239c-2.63 9.562-3.824 8.924-4.462-.159h-.398c-1.594 9.72-2.47 10.199-3.825.24h-.159c-1.593 9.321-2.151 8.445-5.338.796-.319.08-.717.16-1.036.24-.319 9.4-.398 9.72-5.1 1.433-.158.08-.397.16-.557.24 1.434 7.967.717 8.046-3.027 1.194-.24.08-.479.24-.638.32 1.833 7.568.877 7.409-3.187 1.593l-.478.239c2.709 7.011 1.673 7.648-2.868 1.832-.16.08-.24.16-.399.24 3.187 6.612 2.152 8.206-3.505 2.628a.96.96 0 0 0-.399.399c3.984 7.09 3.187 7.888-3.187 2.948l-.318.319c5.577 7.648 4.62 8.684-3.426 3.904l-.16.159c6.454 7.41 5.498 8.605-3.426 4.86-.08.16-.159.24-.239.398 6.295 5.657 5.418 7.012-2.948 5.418-.159.24-.239.558-.398.797 7.17 5.1 6.693 6.852-2.63 6.693-.079.16-.079.318-.159.478 8.047 4.143 7.65 4.7-1.593 5.975-.08.32-.16.558-.16.877 7.092 1.195 7.25 1.992-.557 3.426-.08.319-.08.637-.16.956 6.613 1.195 6.295 3.745-.398 6.613v1.593c5.816.08 5.976 1.275.398 4.064l.24 1.434c6.055-.637 6.294.558.956 3.984.08.398.239.717.398 1.115 6.693-1.673 7.25-.398 1.673 4.143.16.399.398.797.558 1.195 7.41-2.23 8.286-.796 2.788 4.542.16.239.32.478.478.637 7.33-3.983 8.048-3.107 2.71 3.267l.477.478c7.171-4.86 8.048-3.984 3.187 3.028.16.159.399.318.558.478 6.773-5.418 7.968-4.701 4.143 3.107l.717.478c5.418-5.577 6.215-4.78 3.506 2.072.239.159.478.239.717.398 4.303-5.896 5.259-4.94 2.789 1.354.239.08.478.24.796.32 3.825-5.498 3.745-5.18 2.39.955.479.16.877.319 1.355.478 2.789-4.86 3.426-4.78 2.47.797l.717.24c2.71-6.295 3.506-5.498 3.347.876l1.195.239c2.23-5.737 3.744-5.657 4.302.717.319.08.717.08 1.036.159 1.354-5.657 1.912-5.577 3.027.239.399 0 .877.08 1.275.08 1.195-5.976 3.745-5.737 5.896-.16.478 0 .877-.08 1.355-.159.318-5.816 1.832-5.816 4.063-.558.16 0 .319-.08.478-.08.16-.08.399-.08.558-.159-.24-6.852 2.071-7.17 5.02-1.195.238-.08.398-.08.637-.16-1.355-7.25 0-7.728 4.143-1.354.16-.08.319-.16.478-.16-2.31-7.01-.24-7.648 4.78-2.07.32-.16.638-.32 1.036-.479-2.39-6.931-1.434-8.206 4.78-2.948.24-.159.399-.318.638-.478-4.462-7.011-3.028-9.959 4.143-3.744l.24-.24c-4.861-6.533-5.737-8.604 3.186-4.063l.478-.717c-7.41-5.577-8.366-8.764 2.231-4.063.16-.319.24-.558.398-.877-7.09-6.533-7.887-6.852 1.833-5.179.08-.159.08-.318.16-.478-8.287-5.02-7.968-5.657 1.194-5.179 0-.159.08-.398.08-.557-8.764-2.869-8.286-5.338.638-4.143v-.24c-8.765-2.549-8.605-3.664.318-3.107 0-.239.08-.557.08-.796-8.127-3.586-7.729-3.108.239-5.1-.558-.557-.558-.876-.558-1.115"/><g fill="#dbccb6"><path d="M64.37 56.072c.24.318 1.355 1.513 1.036 1.991-.239.478-1.354 0-1.832.32.239.398 1.195 1.274.956 1.832-.398 1.115-1.593-1.036-2.31-.24-.399.479.796 1.355.239 1.913-.638.637-2.63-1.833-3.028-2.39-.956-1.435-1.275-2.231.478-3.984 1.673-1.833 7.49.398 4.462.557M72.577 54.08c-.398 0-1.992-.24-2.23.318-.24.478.796 1.116.876 1.673-.478.08-1.753-.238-2.072.32-.637.955 1.753.637 1.514 1.752-.16.638-1.514.16-1.673.956-.16.877 3.027 1.036 3.745 1.036 1.752-.08 2.55-.24 2.948-2.709s-4.78-5.896-3.108-3.346M42.859 75.194c-2.231-4.144-5.418-8.446-4.223-9.323 1.195-.876 1.354.638 1.912.877.08-1.116-.478-3.028.319-3.346.796-.32.876 1.195 1.514 1.593.239-.797-.479-2.151.398-2.55.797-.318.876 1.116 1.275 1.753.478-.717-.399-2.15.956-2.47 1.354-.398 1.673 4.701 3.107 9.482.877 2.868 2.55 6.932-.319 8.366-2.629 1.195-4.94-4.382-4.94-4.382M92.177 76.468c2.231-4.143 5.418-8.445 4.223-9.322s-1.355.638-1.912.877c-.08-1.116.478-3.028-.319-3.347s-.876 1.195-1.514 1.594c-.239-.797.478-2.151-.398-2.55-.797-.318-.877 1.116-1.275 1.753-.478-.717.398-2.151-.956-2.47-1.355-.398-1.673 4.701-3.107 9.482-.877 2.868-2.55 6.931.318 8.365 2.63 1.196 4.94-4.382 4.94-4.382"/></g><path fill="#dbccb6" d="M52.5 34.56c2.31-2.232-1.435-10.279-4.94-9.96-4.462.398-2.869 7.011.557 8.047zM84.688 34.161c-2.231-2.31 1.912-10.198 5.338-9.72 4.382.557 2.55 7.17-.876 7.967z"/><path fill="#dbccb6" d="M86.361 32.727c-2.789-1.833-11.712 5.338-18.166 5.338-6.453 0-15.297-7.17-18.166-5.338-4.302 2.868.877 10.119 2.55 13.146 1.832 3.267 8.047 5.259 15.536 4.86 7.49.399 13.705-1.593 15.537-4.86 1.833-3.027 7.011-10.358 2.709-13.146"/><circle cx="8.127" cy="9.481" r="1.275" fill="#3e5360" transform="translate(48.276 28.106)"/><circle cx="31.392" cy="9.481" r="1.275" fill="#3e5360" transform="translate(48.276 28.106)"/><path fill="#65746f" d="M66.124 46.67s1.115 2.151 2.31 2.072c1.195-.08 2.072-2.311 2.072-2.311-.08-1.195-1.116-1.673-2.31-1.594-1.196.08-2.152.638-2.072 1.833"/><path fill="#c6a87b" d="M54.65 30.098c.877.239 1.435.956 2.072 1.593.637.558 1.354 1.116 2.151 1.354.717.24.956-.876.319-1.115-1.673-.558-2.55-2.47-4.303-2.948-.637-.16-.956.956-.239 1.116M76.242 33.444c1.673-.876 2.71-2.47 4.303-3.586.557-.398 0-1.354-.558-.956-1.514 1.116-2.55 2.71-4.302 3.586-.638.319-.08 1.275.557.956" opacity=".6"/></g></svg>