<svg xmlns="http://www.w3.org/2000/svg" width="95.066" height="248.781" viewBox="0 0 95.066 248.781"><g stroke-miterlimit="10" data-paper-data="{&quot;isPaintingLayer&quot;:true}" style="mix-blend-mode:normal"><g data-paper-data="{&quot;origPos&quot;:null}"><path fill="#b5875c" d="M32.679 232.021s-3.273 1.25-5.667 1.143c-1.653-.074-4.702-1.605-4.702-1.605s-1.99-22.717-1.488-36.984c.062-3.901 3.077-16.002 9.996-15.483 7.132.536 8.189 5.287 7.544 15.431z" data-paper-data="{&quot;origPos&quot;:null,&quot;origRot&quot;:0}"/><g stroke-linecap="round" data-paper-data="{&quot;origPos&quot;:null,&quot;origRot&quot;:0,&quot;index&quot;:null}"><path fill="#fff" d="M33.813 230.784s3.463 5.163 6.329 7.304 11.667 1.139 7.783 6.348c-2.655 3.561-7.308 2.851-11.834 2.223-3.825-.53-4.177-4.489-8.038-4.518-4.095-.03-7.974.556-10.308-2.1-.83-.944 2.93-10.047 2.93-10.047s4.13 1.983 6.282 2.037c2.661.065 6.856-1.247 6.856-1.247" data-paper-data="{&quot;origPos&quot;:null}"/><path fill="#a5a5a5" d="M19.127 243.311c-1.955-1.032-1.858-1.741-1.534-3.433 2.954 1.846 2.4 2.33 10.277 1.806 2.819.282 4.41 3.34 7.933 4.461 9.366 1.907 11.799-1.674 13.132-3.095-.03 1.097-.302 2.238-.79 2.894-2.655 3.561-7.176 3-11.703 2.372-6.443-1.534-5.036-4.258-8.897-4.287-4.096-.031-5.74.696-8.418-.718" data-paper-data="{&quot;origPos&quot;:null}"/><path fill="none" stroke="#000" stroke-width="1.5" d="m37.354 239.814 2.298-2.038M35.542 237.77l2.178-2.044M33.618 235.6l2.291-1.917" data-paper-data="{&quot;origPos&quot;:null}"/></g></g><g data-paper-data="{&quot;origPos&quot;:null}"><path fill="#b5875c" d="M73.83 231.916s-3.076 1.678-5.462 1.894c-1.648.149-4.876-.959-4.876-.959s-5.023-22.244-6.443-36.449c-.461-3.874.9-16.27 7.826-16.685 7.14-.427 8.825 4.139 9.549 14.278z" data-paper-data="{&quot;origPos&quot;:null,&quot;origRot&quot;:0}"/><g stroke-linecap="round" data-paper-data="{&quot;origPos&quot;:null,&quot;origRot&quot;:0}"><path fill="#fff" d="M81.57 238.103c2.934 2.046 11.697.755 7.987 6.09-2.537 3.645-7.21 3.09-11.755 2.61-3.84-.404-4.322-4.349-8.182-4.25-4.094.103-7.952.817-10.372-1.76-.86-.917 2.599-10.14 2.599-10.14s3.549 1.65 7.25 1.75c1.234.034 5.906-1.392 5.906-1.392s3.632 5.046 6.566 7.092" data-paper-data="{&quot;origPos&quot;:null,&quot;index&quot;:null}"/><path fill="#a5a5a5" d="M59.091 240.635c3.013 1.747 2.475 2.248 10.33 1.466 2.828.189 4.519 3.193 8.077 4.198 9.423 1.598 11.737-2.061 13.023-3.525.005 1.097-.228 2.247-.695 2.918-2.536 3.646-7.073 3.235-11.618 2.756-6.49-1.322-5.174-4.09-9.034-3.993-4.094.104-5.713.885-8.436-.44-1.988-.968-1.915-1.68-1.647-3.38" data-paper-data="{&quot;origPos&quot;:null,&quot;index&quot;:null}"/><path fill="none" stroke="#000" stroke-width="1.5" d="m81.069 237.808-2.23 2.112M76.962 237.938l2.11-2.116M74.967 235.832l2.227-1.992" data-paper-data="{&quot;origPos&quot;:null,&quot;index&quot;:null}"/></g></g><g stroke-width="0"><path fill="#b5875c" d="M71.211 139.213s1.439 8.636 2.101 15.933c1.414 15.57-.179 29.001-.179 29.001-.35 10.972-13.145 13.021-16.775 1.21-1.402-4.562-4.102-14.258-5.325-23.634s-.236-19.008-.236-19.008z" data-paper-data="{&quot;origPos&quot;:null,&quot;origRot&quot;:0}"/><path fill="#616e47" d="M68.62 115.274s4.246 10.433 5.78 26.528c1.525 15.989 3.952 37.451 3.952 37.451s-8.396 3.84-12.174 4.18c-5.745.514-14.317-.328-14.317-.328s-2.625-18.346-4.608-33.145-2.047-33.31-2.047-33.31z" data-paper-data="{&quot;origPos&quot;:null,&quot;index&quot;:null,&quot;origRot&quot;:0}"/></g><g stroke-width="0" data-paper-data="{&quot;origPos&quot;:null}"><path fill="#b5875c" d="M45.737 140.415s-.053 8.754-.643 16.058c-1.258 15.584-5.114 28.548-5.114 28.548-2.213 10.75-15.171 10.592-16.737-1.664-.605-4.735-1.615-14.749-1.223-24.196s3.004-18.77 3.004-18.77z" data-paper-data="{&quot;origPos&quot;:null,&quot;origRot&quot;:0}"/><path fill="#616e47" d="M18.017 179.485s1.45-19.823 2.58-36.528c1.133-16.704 5.198-26.719 5.198-26.719l24.582.688s-.868 22.743-1.744 32.736l-2.904 33.14s-5.48.705-10.605.63c-5.362-.078-17.107-3.947-17.107-3.947" data-paper-data="{&quot;origPos&quot;:null,&quot;origRot&quot;:0}"/></g><g stroke-width="0"><path fill="#b5875c" d="M65.686 55.3c2.807.508 3.925.078 6.89 3.038 8.823 8.812 11.853 36.082 12.992 40.61-.055 2.114.383 5.75-2.964 6.528-3.305.768-6.101-.806-7.192-3.26-1.014-3.539-4.491-16.611-5.906-20.886" data-paper-data="{&quot;origPos&quot;:null,&quot;origRot&quot;:0,&quot;index&quot;:null}"/><path fill="#b54753" d="M64.771 55.515c3.26.482 6.012.17 9.594 3.638 7.172 6.943 9.515 16.278 11.274 25.419-2.358 1.131-14.72 4.405-17.219 5.301" data-paper-data="{&quot;origPos&quot;:null,&quot;index&quot;:null}"/></g><g stroke-width="0"><path fill="#b5875c" d="M25.56 81.612c-1.414 4.274-4.892 17.347-5.906 20.886-1.09 2.453-3.887 4.028-7.192 3.26-3.347-.778-2.908-4.415-2.964-6.528 1.14-4.529 4.169-31.799 12.993-40.61 2.964-2.96 4.082-2.53 6.89-3.038" data-paper-data="{&quot;origPos&quot;:null,&quot;origRot&quot;:0,&quot;index&quot;:null}"/><path fill="#b54753" d="M27.706 89.944c-2.499-.897-15.495-4.452-17.853-5.583 1.76-9.141 4.103-18.476 11.274-25.42 3.583-3.468 6.335-3.156 9.595-3.637" data-paper-data="{&quot;origPos&quot;:null,&quot;index&quot;:null}"/></g><g stroke-width="0" data-paper-data="{&quot;origPos&quot;:null}"><g data-paper-data="{&quot;origPos&quot;:null}"><path fill="#b5875c" d="M61.053 55.285c-4.709 8.204-20.837 8.56-27.448.45a723 723 0 0 0 6.57-2.366l.636-8.188 12.951-.187.767 7.855s5.848 2.109 6.524 2.436" data-paper-data="{&quot;origPos&quot;:null}"/><path fill="#755135" d="m40.902 45.446 12.952-.187.692 7.77c-3.513.04-11.547-.281-14.114-2.28z" data-paper-data="{&quot;origPos&quot;:null}"/></g><path fill="#b5875c" d="M62.977 23.858c.071-.007 1.815-1.458 2.657.694.654 1.672-.986 6.649-2.885 7.988-1.547 10.462-2.79 17.573-15.39 17.437-12.031.224-13.82-7.727-15.807-16.814-2.052-2.865-2.64-4.344-3.08-6.642-.397-1.86.96-3.774 2.811-2.706.222-13.211 6.588-18.437 16.447-18.82 9.859-.385 15.795 8.898 15.247 18.863" data-paper-data="{&quot;origPos&quot;:null}"/></g><path fill="none" stroke="#000" stroke-linecap="round" stroke-width="2" d="M35.318 19.852c2.602-.484 5.979.125 7.839 1.112" data-paper-data="{&quot;origPos&quot;:null,&quot;origRot&quot;:0}"/><path fill="none" stroke="#000" stroke-linecap="round" stroke-width="2" d="M51.473 21.138c1.845-1.015 5.212-1.676 7.82-1.23" data-paper-data="{&quot;origPos&quot;:null,&quot;origRot&quot;:0,&quot;index&quot;:null}"/><g fill="none" stroke="#755135" stroke-linecap="round" stroke-width="1.5" data-paper-data="{&quot;origPos&quot;:null}"><path d="M44.552 33.164s1.686-.412 2.04.446M48.627 33.644c.224-.842 1.665-.623 1.665-.623" data-paper-data="{&quot;origPos&quot;:null}"/></g><path d="M33.14 5.602C42.293-1.447 49.227.96 59.61 1.922c5.894.548 5.478-5.599 6.646 1.613.486 4.702-1.273 17.142-3.054 19.377-.702.677-.72-7.751-2.047-8.885-6.173-5.272-19.752-4.272-27.315-.563-1.136.557-2.049 9.467-2.586 8.836 0 0-2.818-13.089 1.886-16.698" data-paper-data="{&quot;origPos&quot;:null,&quot;index&quot;:null}"/><g data-paper-data="{&quot;origPos&quot;:null}"><path fill="#fff" d="M56.172 28.91c-2.302.277-4.36-.67-4.599-2.116-.238-1.445 1.435-2.84 3.737-3.117 2.301-.276 4.446.766 4.684 2.21.239 1.446-1.52 2.747-3.822 3.023" data-paper-data="{&quot;origPos&quot;:null,&quot;origRot&quot;:0}"/><path d="M55.087 27.03c-.653-1.4.117-3.014 1.539-3.41 3.067-.287 4.804 2.728 2.287 4.406-1.391.92-3.184.377-3.826-.997" data-paper-data="{&quot;origPos&quot;:null,&quot;origRot&quot;:0}"/><path fill="none" stroke="#000" stroke-linecap="round" stroke-width="1.5" d="M51.65 24.8c2.291-1.499 5.746-1.554 7.901-.591" data-paper-data="{&quot;origPos&quot;:null,&quot;origRot&quot;:0}"/></g><g data-paper-data="{&quot;origPos&quot;:null}"><path fill="#fff" d="M38.56 28.796c-2.309-.22-4.027-1.576-3.836-3.026.19-1.45 2.218-2.446 4.528-2.225s4.083 1.686 3.892 3.136c-.19 1.45-2.273 2.337-4.583 2.115" data-paper-data="{&quot;origPos&quot;:null,&quot;origRot&quot;:0}"/><path d="M38.058 26.744c-.224-1.494.992-2.893 2.485-2.974 3.054.373 3.858 3.661.93 4.752-1.615.595-3.194-.31-3.415-1.778" data-paper-data="{&quot;origPos&quot;:null,&quot;origRot&quot;:0}"/><path fill="none" stroke="#000" stroke-linecap="round" stroke-width="1.5" d="M35.068 24.353c2.538-1.173 5.96-.765 7.911.475" data-paper-data="{&quot;origPos&quot;:null,&quot;origRot&quot;:0}"/></g><path fill="#f2dee7" d="M48.788 127.586c-12.972.138-25.949-4.38-25.949-4.38l1.924-66.959s8.863-2.113 12.562-2.37c2.376 8.852 18.174 9.318 21.096-.087 1.29.468 11.253 2.094 11.253 2.094l2.593 66.156s-12.642 5.342-23.479 5.546" data-paper-data="{&quot;origPos&quot;:null}"/><g data-paper-data="{&quot;origPos&quot;:null}"><path fill="#916c4a" d="M42.776 39.733s1.854-1.592 2.78-1.592c.69.079 1.336.357 1.847.796a3.44 3.44 0 0 1 1.853-.796c.962.136 1.897.404 2.774.796 0 0-.159 2.472-2.006 3.268-1.477.591-3.07.67-4.547.078-1.157-.528-2.044-1.517-2.7-2.55" data-paper-data="{&quot;origPos&quot;:null}"/><path fill="none" stroke="#4d3321" stroke-linecap="round" stroke-width="1.5" d="M52.493 39.328c-2.638 1.122-7.027 1.48-9.937.116" data-paper-data="{&quot;origPos&quot;:null,&quot;origRot&quot;:0,&quot;index&quot;:null}"/></g><path fill="#b5875c" d="M93.837 134.518s1.18 3.031 1.23 4.24c-.052.385.16 3.444-1.07 3.234-1.1-.079-.671-1.335-.947-2.44-.27-1.083-.996-3.265-.996-3.265s.454 2.617.488 4.166c-.22 1.526.185 4.615-1.357 4.409-1.284-.4-.71-2.923-.835-3.5-.285-1.319-.451-3.447-.99-3.632.178 1.328.33 2.972.328 4.299-.003 1.113-.205 3.454-.852 4.407-.515.76-1.528.838-1.83-.014-.24-.499.24-3.03.206-3.567-.105-1.61-.08-3.346-.652-4.225a32 32 0 0 1-.247 5.432c-.263 1.93-1.114 4.689-1.982 4.403-2.339-.388-.318-3.34-.456-5.717-.155-2.665-.643-3.342-1.487-5.877-.574 1.307.084 3.015-.973 4.224-1.365 1.242-1.96.005-1.945-.515.055-1.83-.864-5.118-.218-6.87.553-1.815 1.049-4.17 1.794-6.122-.159-2.048-5.043-18.58-5.749-25.53-.005-.048.097-5.016 3.87-5.5 3.766-.727 6.059 2.432 6.384 3.68 2.71 5.755 3.662 26.185 3.662 26.185zM5.854 126.704s.952-20.43 3.66-26.185c.326-1.248 2.62-4.406 6.386-3.68 3.773.485 3.874 5.453 3.869 5.501-.706 6.949-5.59 23.481-5.749 25.53.745 1.95 1.241 4.306 1.794 6.122.646 1.751-.273 5.04-.217 6.87.013.52-.58 1.756-1.946.514-1.057-1.209-.399-2.916-.973-4.224-.843 2.535-1.332 3.213-1.486 5.877-.138 2.377 1.882 5.33-.457 5.717-.868.287-1.72-2.473-1.982-4.402a32 32 0 0 1-.247-5.432c-.573.879-.547 2.614-.651 4.225-.035.537.445 3.068.205 3.567-.302.851-1.315.773-1.83.014-.646-.954-.85-3.295-.851-4.408-.003-1.326.149-2.97.326-4.298-.537.185-.704 2.313-.989 3.63-.125.579.45 3.102-.835 3.501-1.541.207-1.137-2.883-1.357-4.409.034-1.549.488-4.165.488-4.165s-.726 2.182-.996 3.264c-.276 1.106.154 2.361-.946 2.44-1.232.21-1.02-2.849-1.07-3.233.049-1.21 1.23-4.24 1.23-4.24z" data-paper-data="{&quot;origPos&quot;:null,&quot;origRot&quot;:0,&quot;index&quot;:null}"/></g></svg>