<svg xmlns="http://www.w3.org/2000/svg" xml:space="preserve" width="57.346" height="58.147" viewBox="42.776 40.32 57.346 58.147"><linearGradient id="a" x1="43.277" x2="99.622" y1="717.394" y2="717.394" gradientTransform="translate(0 -648)" gradientUnits="userSpaceOnUse"><stop offset="0" style="stop-color:#6d6e71"/><stop offset="1" style="stop-color:#414042"/></linearGradient><path fill="url(#a)" d="M83.121 69.479 97.2 55.322c3.242-3.259 3.227-8.547-.031-11.788a8.28 8.28 0 0 0-5.877-2.425 8.28 8.28 0 0 0-5.911 2.458L71.538 57.485l-13.64-14.12a8.27 8.27 0 0 0-5.997-2.545 8.3 8.3 0 0 0-5.79 2.339c-3.306 3.194-3.397 8.48-.205 11.787l13.872 14.362-14.08 14.157c-3.241 3.258-3.228 8.546.031 11.787a8.28 8.28 0 0 0 5.877 2.427 8.28 8.28 0 0 0 5.91-2.459L71.36 81.3 85 95.422a8.26 8.26 0 0 0 5.994 2.545 8.3 8.3 0 0 0 5.792-2.339c3.307-3.194 3.396-8.481.203-11.787z"/><linearGradient id="b" x1="71.45" x2="71.45" y1="690.54" y2="744.246" gradientTransform="translate(0 -648)" gradientUnits="userSpaceOnUse"><stop offset="0" style="stop-color:#58595b"/><stop offset="1" style="stop-color:#000"/></linearGradient><path fill="url(#b)" d="m80.712 69.461 15.27-15.353a6.615 6.615 0 1 0-9.38-9.329L71.519 59.943 56.661 44.56a6.614 6.614 0 1 0-9.515 9.191l15.042 15.575-15.269 15.353a6.616 6.616 0 0 0 9.379 9.33L71.38 78.844l14.859 15.384a6.614 6.614 0 1 0 9.514-9.191z"/></svg>