<svg xmlns="http://www.w3.org/2000/svg" fill="none" viewBox="0 0 24 24"><path fill="url(#a)" d="M18.473 9.383a4.806 4.806 0 1 0 0 9.61 4.806 4.806 0 0 0 0-9.61m0 8.726a3.92 3.92 0 0 1-3.92-3.92 3.92 3.92 0 0 1 3.92-3.92 3.92 3.92 0 0 1 3.92 3.92 3.92 3.92 0 0 1-3.92 3.92"/><path fill="#ffbf00" d="M18.473 10.029a4.154 4.154 0 1 0 0 8.309 4.154 4.154 0 0 0 0-8.31m0 8.097a3.937 3.937 0 1 1 0-7.875 3.937 3.937 0 0 1 0 7.875"/><path fill="url(#b)" d="M18.473 18.68a5.05 5.05 0 0 1-4.434-2.64 4.81 4.81 0 0 0 8.869 0 5.04 5.04 0 0 1-4.435 2.64"/><path fill="url(#c)" d="M10.176 13.023h.794c.097 0 .183.08.183.178s-.08.182-.177.182h-.795a.183.183 0 0 1-.182-.177.18.18 0 0 1 .177-.183"/><path fill="#939fa1" d="m18.473 14.19 3.771-.03v.058zM14.701 14.16l3.772.03-3.772.028z"/><path fill="#939fa1" d="m18.473 14.189.029 3.771h-.058zM18.502 10.418l-.03 3.77-.028-3.77zM18.473 14.189l2.685 2.646-.04.04z"/><path fill="#939fa1" d="m15.827 11.503 2.646 2.686-2.686-2.646zM18.473 14.189l-2.646 2.686-.04-.04zM21.158 11.543l-2.685 2.646 2.645-2.686zM18.473 14.19l3.474-1.47.017.052zM14.976 15.606l3.497-1.417-3.475 1.469z"/><path fill="#939fa1" d="m18.473 14.189 1.468 3.468-.051.023zM17.056 10.692l1.417 3.497-1.469-3.474zM18.473 14.189l3.491 1.417-.017.052zM14.998 12.72l3.475 1.47-3.497-1.418z"/><path fill="#939fa1" d="m18.473 14.189-1.417 3.491-.052-.017zM19.941 10.715l-1.468 3.474 1.417-3.497zM18.473 14.189l3.691-.766.011.057zM14.77 14.898l3.703-.709-3.692.76zM18.473 14.189l.765 3.691-.057.012zM17.764 10.486l.709 3.703-.766-3.692zM18.473 14.189l3.148 2.069-.028.051zM15.353 12.069l3.12 2.12-3.149-2.074zM18.473 14.189l-2.069 3.148-.051-.028zM20.593 11.069l-2.12 3.12 2.068-3.149zM18.473 14.189l3.12-2.12.028.046zM15.324 16.258l3.149-2.069-3.12 2.12zM18.473 14.189l2.12 3.12-.052.028z"/><path fill="#939fa1" d="m16.404 11.034 2.069 3.154-2.12-3.12zM18.473 14.189l3.703.709-.012.051zM14.781 13.423l3.692.766-3.703-.709zM18.473 14.189l-.71 3.703-.056-.012zM19.238 10.497l-.765 3.692.708-3.703zM5.553 14.19l3.765-.03v.058zM1.781 14.16l3.772.03-3.772.028z"/><path fill="#939fa1" d="m5.553 14.189.029 3.771h-.058zM5.582 10.418l-.029 3.77-.029-3.77zM5.553 14.189l2.685 2.646-.04.04zM2.907 11.503l2.646 2.686-2.692-2.646zM5.553 14.189l-2.646 2.686-.046-.04z"/><path fill="#939fa1" d="m8.238 11.543-2.685 2.646 2.645-2.686zM5.553 14.19l3.468-1.47.023.052zM2.056 15.606l3.497-1.417-3.474 1.469z"/><path fill="#939fa1" d="m5.553 14.189 1.468 3.468-.057.023zM4.136 10.692l1.417 3.497-1.475-3.474zM5.553 14.189l3.491 1.417-.023.052zM2.079 12.72l3.474 1.47-3.497-1.418z"/><path fill="#939fa1" d="M5.553 14.189 4.136 17.68l-.058-.017zM7.021 10.715l-1.468 3.474 1.411-3.497zM5.553 14.189l3.691-.766.012.057zM1.844 14.898l3.709-.709-3.697.76zM5.553 14.189l.76 3.691-.057.012zM4.844 10.486l.709 3.703-.766-3.692zM5.553 14.189l3.149 2.069-.035.051zM2.433 12.069l3.12 2.12-3.155-2.074zM5.553 14.189l-2.074 3.148-.046-.028zM7.667 11.069l-2.114 3.12 2.069-3.149zM5.553 14.189l3.114-2.12.035.046zM2.398 16.258l3.155-2.069-3.12 2.12zM5.553 14.189l2.114 3.12-.045.028z"/><path fill="#939fa1" d="m3.479 11.034 2.074 3.154-2.12-3.12zM5.553 14.189l3.703.709-.012.051zM1.856 13.423l3.697.766-3.709-.709zM5.553 14.189l-.709 3.703-.057-.012zM6.313 10.497l-.76 3.692.703-3.703z"/><path fill="url(#d)" d="M5.553 9.383a4.806 4.806 0 1 0 0 9.611 4.806 4.806 0 1 0 0-9.611m0 8.726a3.92 3.92 0 0 1-3.92-3.92 3.92 3.92 0 0 1 3.92-3.92 3.919 3.919 0 1 1 0 7.84"/><path fill="#ffbf00" d="M5.553 10.029a4.154 4.154 0 1 0 0 8.309 4.154 4.154 0 0 0 0-8.31m0 8.097a3.937 3.937 0 1 1 0-7.875 3.937 3.937 0 0 1 0 7.875"/><path fill="url(#e)" d="M5.553 10.212a3.98 3.98 0 0 0-3.977 3.977 3.98 3.98 0 0 0 3.977 3.977 3.976 3.976 0 1 0 0-7.954m0 7.749a3.771 3.771 0 1 1 3.771-3.772 3.78 3.78 0 0 1-3.771 3.771"/><path fill="url(#f)" d="M5.553 18.68a5.05 5.05 0 0 1-4.434-2.64 4.81 4.81 0 0 0 8.869 0 5.04 5.04 0 0 1-4.435 2.64"/><path fill="#ffbf00" d="M18.473 10.029a4.154 4.154 0 1 0 0 8.309 4.154 4.154 0 0 0 0-8.31m0 8.097a3.937 3.937 0 1 1 0-7.875 3.937 3.937 0 0 1 0 7.875"/><path fill="url(#g)" d="M18.473 10.212a3.98 3.98 0 0 0-3.977 3.977 3.98 3.98 0 0 0 3.977 3.977 3.976 3.976 0 1 0 0-7.954m0 7.749a3.772 3.772 0 1 1 0-7.544 3.772 3.772 0 0 1 0 7.544"/><path fill="url(#h)" d="m11.364 15.269-.954-1.96a.15.15 0 0 1 .074-.206.15.15 0 0 1 .206.075l.954 1.96z"/><path fill="url(#i)" d="M10.547 13.355a.103.103 0 1 0 0-.206.103.103 0 0 0 0 .206"/><path fill="#fb9261" d="M11.559 15.434a.109.109 0 1 0 0-.217.109.109 0 0 0 0 .217"/><path fill="url(#j)" d="m11.679 15.486-.538-.469L15.667 7.2l.537.474z"/><path fill="url(#k)" d="M11.21 15.149 8.827 7.418l.617-.115 2.377 7.732z"/><path fill="#0083d4" d="M7.616 5.8a.32.32 0 0 0-.137.28c0 .086.188.28.417.28s.474-.114.514-.343c.046-.222-.794-.217-.794-.217"/><path fill="#b34f20" d="m9.501 15.983-.525-.137-.052.109.526.137a.5.5 0 0 0 .051-.109"/><path fill="#fb9261" d="M11.564 16.503q-.05.001-.103-.006-.076-.006-.154-.023l.04-.194c.04.012.086.017.126.017.028 0 .057.006.086.006a.99.99 0 0 0 .982-.897.988.988 0 0 0-.897-1.069l.017-.194a1.174 1.174 0 0 1 1.069 1.28 1.166 1.166 0 0 1-1.166 1.08"/><path fill="#8ea5a8" d="m11.907 16.457-.451-.051a22.6 22.6 0 0 1-5.932-1.514l-.017-.006-.126-.12.12-.126.103.097a22.4 22.4 0 0 0 5.875 1.497l.45.052zM5.548 13.5l-.018.171 6.46.692.018-.17z"/><path fill="url(#l)" d="M5.553 14.892a.703.703 0 1 0 0-1.406.703.703 0 0 0 0 1.406"/><path fill="#fb9261" d="M5.553 14.429a.24.24 0 1 0 0-.48.24.24 0 0 0 0 .48"/><path fill="#2684ff" d="M5.553 14.32a.131.131 0 1 0 0-.262.131.131 0 0 0 0 .262"/><path fill="#0083d4" d="m8.758 7.263-.377-1.468.6-.109.463 1.783zM15.616 6.874a.2.2 0 0 1-.189-.131l-.377-1.12s-.034-.126.143-.177c.166-.046.229.051.229.051l.377 1.12a.203.203 0 0 1-.126.252c-.011 0-.034.005-.057.005M16.404 5.412h-.783a.18.18 0 0 1-.177-.177c0-.097.08-.177.177-.177h.783c.098 0 .177.08.177.177s-.08.177-.177.177"/><path fill="url(#m)" d="M7.204 5.68c0-.126.052-.326.286-.326.84 0 .914.063 1.166.063 1.074 0 1.343-.063 1.874-.063.274 0 .514.098.549.326 0 0-.595.115-.852.292-.251.177-.771.457-1.228.457-.458 0-.858-.452-1.286-.537-.417-.086-.509-.212-.509-.212"/><path fill="url(#n)" d="M8.124 7.223h-.137v.766h.137z"/><path fill="url(#o)" d="M16.85 7.223h-.137v.766h.137z"/><path fill="#f1f1f1" d="M11.564 15.486a.166.166 0 1 1 .166-.166c-.006.091-.074.166-.166.166m0-.309a.15.15 0 0 0-.148.149c0 .08.068.148.148.148s.149-.068.149-.148a.15.15 0 0 0-.149-.149"/><path fill="url(#p)" d="M6.056 14.018c-.189-.115-.217-.189-.217-.206v-.006l.022-.028.046-.12L9.57 7.589l-.514-.4-3.869 6.394c-.131.137-.16.417-.166.537 0 .332.275.463.423.486l6.56 1.08.126-.686z"/><path fill="url(#q)" d="M5.553 14.309a.12.12 0 1 0 0-.24.12.12 0 0 0 0 .24"/><path fill="url(#r)" d="m18.73 14.023-.114-.109c-.029-.034-.035-.045-.035-.051a.5.5 0 0 0-.057-.12c-.309-.497-.863-1.423-1.091-2.063-.092-.257-.212-.771-.343-1.314-.177-.743-.377-1.583-.56-2.023l-.029-.074-.748.245.028.086c.149.411.377 1.2.577 1.897.137.474.269.92.349 1.172.154.462.909 1.782 1.274 2.422l.052.092a.64.64 0 0 0 .4.297s.051.011.102.011c.023 0 .04 0 .063-.005a.29.29 0 0 0 .212-.223.28.28 0 0 0-.08-.24"/><path fill="url(#s)" d="M18.473 14.32a.132.132 0 1 0 0-.263.132.132 0 0 0 0 .263"/><path fill="#0083d4" d="M15.244 6.029s-.091.548.023.783.48-.115.48-.115l.108-.085-.388-.64z"/><path fill="url(#t)" d="m15.913 6.509-.846.246.326.84h.057c.217 0 .44.017.714.062l.137.023z"/><path fill="url(#u)" d="m16.244 7.497-.051-.005a5 5 0 0 0-.743-.063h-.126l.486 1.257.748-.252z"/><path fill="#0083d4" d="M15.861 5.972h-.017c-.045-.012-.074-.052-.063-.098.046-.228.257-.428.406-.554l-.074-.011c-.046-.006-.075-.046-.069-.092.006-.045.046-.074.092-.068l.28.04c.034.005.063.028.068.063.006.034-.006.068-.04.085-.005 0-.445.28-.503.566-.005.046-.04.069-.08.069"/><path fill="#0083d4" d="M15.267 5.812a.163.163 0 0 1-.074-.309l.857-.417a.162.162 0 0 1 .143.292l-.857.417a.15.15 0 0 1-.069.017"/><path fill="url(#v)" d="M11.564 16.509a1.189 1.189 0 1 0 0-2.377 1.189 1.189 0 0 0 0 2.377"/><path fill="url(#w)" d="M11.564 16.258a.937.937 0 1 0 0-1.875.937.937 0 0 0 0 1.875"/><path fill="#2684ff" d="M11.564 15.497a.177.177 0 1 0 0-.354.177.177 0 0 0 0 .354"/><path fill="url(#x)" d="M16.713 7.223H8.124v.766h8.589z"/><path fill="url(#y)" d="M15.616 5.492H14.37c-.097 0-.177-.114-.177-.257s.08-.257.177-.257h1.246c.097 0 .177.114.177.257s-.074.257-.177.257"/><path fill="#000" d="M14.37 4.972c-.097 0-.177.114-.177.257s.08.257.177.257.177-.114.177-.257-.08-.257-.177-.257"/><path fill="url(#z)" d="m12.707 17.372-.977-2.109a.2.2 0 0 0-.097-.108.176.176 0 0 0-.235.091.19.19 0 0 0 .012.166l.977 2.103z"/><path fill="url(#A)" d="m12.947 17.623-.794.006a.183.183 0 0 1-.183-.177c0-.097.08-.183.177-.183l.794-.006c.098 0 .183.08.183.177a.18.18 0 0 1-.177.183"/><path fill="url(#B)" d="M12.547 17.549a.103.103 0 1 0 0-.206.103.103 0 0 0 0 .206"/><path fill="url(#C)" d="M2.37 11.012a5.04 5.04 0 0 0-1.269 5 4.81 4.81 0 0 1 1.052-5.223 4.815 4.815 0 0 1 5.223-1.052 5.06 5.06 0 0 0-5.006 1.275"/><path fill="url(#D)" d="M21.867 10.789a4.8 4.8 0 0 0-4.954-1.149c0 .011.006.017.006.029a5.05 5.05 0 0 1 4.731 1.337 5.04 5.04 0 0 1 1.269 5 4.8 4.8 0 0 0-1.052-5.217"/><defs><linearGradient id="a" x1="18.473" x2="18.473" y1="24.432" y2="9.945" gradientUnits="userSpaceOnUse"><stop stop-color="#a3541e"/><stop offset="1" stop-color="#ff8000"/></linearGradient><linearGradient id="c" x1="11.024" x2="10.252" y1="12.201" y2="13.915" gradientUnits="userSpaceOnUse"><stop/><stop offset="1" stop-color="#a9bcbe"/></linearGradient><linearGradient id="d" x1="5.55" x2="5.55" y1="24.432" y2="9.945" gradientUnits="userSpaceOnUse"><stop stop-color="#a3541e"/><stop offset="1" stop-color="#ff8000"/></linearGradient><linearGradient id="e" x1="5.55" x2="5.55" y1="10.414" y2="20.719" gradientUnits="userSpaceOnUse"><stop stop-color="#8ea5a8"/><stop offset="1" stop-color="#dee7e8"/></linearGradient><linearGradient id="g" x1="18.472" x2="18.472" y1="10.414" y2="20.719" gradientUnits="userSpaceOnUse"><stop stop-color="#8ea5a8"/><stop offset="1" stop-color="#dee7e8"/></linearGradient><linearGradient id="h" x1="11.28" x2="10.451" y1="14.791" y2="12.906" gradientUnits="userSpaceOnUse"><stop/><stop offset="1" stop-color="#a9bcbe"/></linearGradient><linearGradient id="i" x1="10.572" x2="10.276" y1="13.353" y2="12.162" gradientUnits="userSpaceOnUse"><stop stop-color="#8ea5a8"/><stop offset="1" stop-color="#cfdcde"/></linearGradient><linearGradient id="j" x1="14.325" x2="15.447" y1="9.858" y2="7.299" gradientUnits="userSpaceOnUse"><stop offset=".254" stop-color="#17bbfe"/><stop offset="1" stop-color="#3640ff"/></linearGradient><linearGradient id="k" x1="10.158" x2="9.56" y1="10.121" y2="6.181" gradientUnits="userSpaceOnUse"><stop offset=".254" stop-color="#17bbfe"/><stop offset="1" stop-color="#3640ff"/></linearGradient><linearGradient id="l" x1="5.893" x2="5.44" y1="16.288" y2="13.512" gradientUnits="userSpaceOnUse"><stop/><stop offset="1" stop-color="#a9bcbe"/></linearGradient><linearGradient id="m" x1="9.251" x2="9.069" y1="8.354" y2="3.832" gradientUnits="userSpaceOnUse"><stop stop-color="#3c2200"/><stop offset="1" stop-color="#ff9d00"/></linearGradient><linearGradient id="n" x1="7.925" x2="8.118" y1="8.387" y2="7.237" gradientUnits="userSpaceOnUse"><stop stop-color="#bd2719"/><stop offset="1" stop-color="#ff8000"/></linearGradient><linearGradient id="o" x1="16.782" x2="16.782" y1="7.297" y2="8.003" gradientUnits="userSpaceOnUse"><stop stop-color="#fff"/><stop offset=".184" stop-color="#f9fafa"/><stop offset=".44" stop-color="#e6ecec"/><stop offset=".738" stop-color="#c9d5d6"/><stop offset="1" stop-color="#a9bcbe"/></linearGradient><linearGradient id="p" x1="6.947" x2="13.659" y1="17.672" y2="5.28" gradientUnits="userSpaceOnUse"><stop offset=".254" stop-color="#17bbfe"/><stop offset=".362" stop-color="#19b4fe"/><stop offset=".516" stop-color="#1da2fe"/><stop offset=".697" stop-color="#2583fe"/><stop offset=".897" stop-color="#3059ff"/><stop offset="1" stop-color="#3640ff"/></linearGradient><linearGradient id="q" x1="5.55" x2="5.55" y1="15.993" y2="13.257" gradientUnits="userSpaceOnUse"><stop stop-color="#8ea5a8"/><stop offset="1" stop-color="#cfdcde"/></linearGradient><linearGradient id="r" x1="16.194" x2="19.279" y1="8.589" y2="17.131" gradientUnits="userSpaceOnUse"><stop offset=".254" stop-color="#17bbfe"/><stop offset="1" stop-color="#3640ff"/></linearGradient><linearGradient id="s" x1="18.472" x2="18.472" y1="15.993" y2="13.257" gradientUnits="userSpaceOnUse"><stop stop-color="#8ea5a8"/><stop offset="1" stop-color="#cfdcde"/></linearGradient><linearGradient id="t" x1="15.669" x2="15.717" y1="6.818" y2="7.856" gradientUnits="userSpaceOnUse"><stop offset=".254" stop-color="#17bbfe"/><stop offset="1" stop-color="#3640ff"/></linearGradient><linearGradient id="u" x1="16.088" x2="15.917" y1="8.688" y2="7.788" gradientUnits="userSpaceOnUse"><stop offset=".254" stop-color="#17bbfe"/><stop offset="1" stop-color="#3640ff"/></linearGradient><linearGradient id="v" x1="8.647" x2="12.799" y1="21.341" y2="12.77" gradientUnits="userSpaceOnUse"><stop/><stop offset="1" stop-color="#a9bcbe"/></linearGradient><linearGradient id="w" x1="11.517" x2="11.594" y1="16.137" y2="14.807" gradientUnits="userSpaceOnUse"><stop stop-color="#8ea5a8"/><stop offset="1" stop-color="#cfdcde"/></linearGradient><linearGradient id="x" x1="12.419" x2="12.419" y1="7.198" y2="8.689" gradientUnits="userSpaceOnUse"><stop offset=".254" stop-color="#17bbfe"/><stop offset="1" stop-color="#3640ff"/></linearGradient><linearGradient id="y" x1="15.024" x2="14.968" y1="6.398" y2="4.231" gradientUnits="userSpaceOnUse"><stop stop-color="#3c2200"/><stop offset="1" stop-color="#ff9d00"/></linearGradient><linearGradient id="z" x1="11.226" x2="12.52" y1="14.703" y2="17.325" gradientUnits="userSpaceOnUse"><stop/><stop offset="1" stop-color="#a9bcbe"/></linearGradient><linearGradient id="A" x1="12.597" x2="12.484" y1="18.086" y2="16.598" gradientUnits="userSpaceOnUse"><stop/><stop offset="1" stop-color="#a9bcbe"/></linearGradient><linearGradient id="B" x1="12.573" x2="12.276" y1="17.546" y2="16.356" gradientUnits="userSpaceOnUse"><stop stop-color="#8ea5a8"/><stop offset="1" stop-color="#cfdcde"/></linearGradient><radialGradient id="b" cx="0" cy="0" r="1" gradientTransform="translate(18.472 13.992)scale(5.18065)" gradientUnits="userSpaceOnUse"><stop offset=".917" stop-color="#7a4400" stop-opacity="0"/><stop offset=".996" stop-color="#975500"/></radialGradient><radialGradient id="f" cx="0" cy="0" r="1" gradientTransform="translate(5.55 13.992)scale(5.18064)" gradientUnits="userSpaceOnUse"><stop offset=".917" stop-color="#7a4400" stop-opacity="0"/><stop offset=".996" stop-color="#975500"/></radialGradient><radialGradient id="C" cx="0" cy="0" r="1" gradientTransform="translate(5.53 14.212)scale(4.91462)" gradientUnits="userSpaceOnUse"><stop offset=".917" stop-color="#ff9d00" stop-opacity="0"/><stop offset=".998" stop-color="#fc8d41"/></radialGradient><radialGradient id="D" cx="0" cy="0" r="1" gradientTransform="translate(18.445 14.202)scale(4.85807)" gradientUnits="userSpaceOnUse"><stop offset=".917" stop-color="#ff9d00" stop-opacity="0"/><stop offset=".998" stop-color="#fc8d41"/></radialGradient></defs></svg>