<svg xmlns="http://www.w3.org/2000/svg" width="117.464" height="259.377" viewBox="0 0 117.464 259.377"><g fill="none" fill-rule="evenodd" stroke-linecap="none" stroke-linejoin="none" stroke-miterlimit="10" stroke-width="none" data-paper-data="{&quot;isPaintingLayer&quot;:true}" font-family="none" font-size="none" font-weight="none" style="mix-blend-mode:normal" text-anchor="none"><path fill="#705347" d="M72.301 57.248s7.385-1.344 10.034 4.72l10.082 36.384c.883 2.736-1.34 5.68-4.013 6.656 0 0-4.873 1.336-6.72-2.88L67.919 66.64a7.07 7.07 0 0 1 .149-5.643 7.11 7.11 0 0 1 4.234-3.749M34.12 60.997c.83 1.78.884 3.822.148 5.643l-13.767 35.488c-1.854 4.216-6.718 2.88-6.718 2.88-2.681-.976-4.897-3.92-4.014-6.656l10.074-36.384c2.633-6.064 10.042-4.72 10.042-4.72a7.11 7.11 0 0 1 4.234 3.75"/><g stroke-linecap="butt" stroke-linejoin="miter" stroke-width="1"><path fill="#705347" d="M75.19 58c6.326 1.376-12.361 16-25.638 16s-30.006-15.432-23.64-16.544c7.979-1.4 21.143-6.784 25.181-6.784 5.386 0 16.175 5.6 24.098 7.328"/><path fill="#705347" d="M58.19 56.96c.304 2.4-5.451 4.488-7.86 4.488-1.958-.016-6.686-1.448-6.983-3.368l.53-16.064h14.168z"/><path fill="#49352c" d="M43.5 52.712 43.876 42h14.2v5.6c-5.338.672-11.856 2.712-14.578 5.112"/></g><g stroke-linecap="butt" stroke-linejoin="miter" stroke-width="1"><path fill="#3259e4" d="m72.245 76.336 3.853 33.776H26L29.082 76l-6.96-18.096 9.89-2.336c1.91 4.432 9.368 7.776 18.27 7.776 8.903 0 16.344-3.344 18.27-7.776l9.89 1.536z"/><path fill="#fff49a" d="M32.064 72.112a1 1 0 1 1 2 0 1 1 0 0 1-2 0M65.016 99.952a1 1 0 1 1 2 0 1 1 0 0 1-2 0M59.694 70.088a1 1 0 1 1 2 0 1 1 0 0 1-2 0M52.99 83.872a1 1 0 1 1 2 0 1 1 0 0 1-2 0M39.481 88.168a1 1 0 1 1 2 0 1 1 0 0 1-2 0M70.635 64.8a1 1 0 1 1 2 0 1 1 0 0 1-2 0M39.481 67.248a1 1 0 1 1 2 0 1 1 0 0 1-2 0M30.161 81.352a1 1 0 1 1 2 0 1 1 0 0 1-2 0M31.117 58.936a1 1 0 1 1 2 0 1 1 0 0 1-2 0M67.215 81.072a1 1 0 1 1 2 0 1 1 0 0 1-2 0M50.23 74.016a1 1 0 1 1 2 0 1 1 0 0 1-2 0M31.582 98.368a1 1 0 1 1 2 0 1 1 0 0 1-2 0M49.282 97.824a1 1 0 1 1 2 0 1 1 0 0 1-2 0"/><path fill="#fff" d="M54.44 66.12a.56.56 0 0 1-.327.917.56.56 0 0 1-.532-.189 1.61 1.61 0 0 0-1.757-.536c-.628.272-1 .923-.916 1.6a3.02 3.02 0 0 1-2.745 3.2h-.176a3.61 3.61 0 0 1-3.268-2.064.565.565 0 0 1 1.036-.448 2.47 2.47 0 0 0 2.336 1.384 1.9 1.9 0 0 0 1.278-.71 1.9 1.9 0 0 0 .4-1.402 2.64 2.64 0 0 1 1.605-2.624 2.77 2.77 0 0 1 3.066.872M64.995 87.333a.56.56 0 0 1-.384-.197 1.61 1.61 0 0 0-1.758-.536 1.54 1.54 0 0 0-.915 1.6 3.02 3.02 0 0 1-2.745 3.2h-.145a3.61 3.61 0 0 1-3.267-2.064.564.564 0 0 1 1.036-.44 2.5 2.5 0 0 0 2.32 1.384 1.913 1.913 0 0 0 1.677-2.12 2.65 2.65 0 0 1 1.662-2.624 2.77 2.77 0 0 1 2.994.864.567.567 0 0 1-.475.933M72.783 74.72l-.378 1.176a3.1 3.1 0 0 1-2.063-3.096 1.535 1.535 0 0 0-.923-1.6 1.61 1.61 0 0 0-1.71.528.563.563 0 0 1-.802.064.567.567 0 0 1-.065-.8 2.76 2.76 0 0 1 2.995-.856 2.64 2.64 0 0 1 1.605 2.616 1.93 1.93 0 0 0 1.34 1.968M39.886 76.813a.567.567 0 0 1-.48-.933 2.775 2.775 0 0 1 2.994-.864 2.655 2.655 0 0 1 1.661 2.624 1.9 1.9 0 0 0 .405 1.41 1.92 1.92 0 0 0 1.289.71 2.41 2.41 0 0 0 2.312-1.36.563.563 0 0 1 .995.416 3.59 3.59 0 0 1-3.21 2.056h-.145a3.02 3.02 0 0 1-2.762-3.2 1.55 1.55 0 0 0-.923-1.6 1.61 1.61 0 0 0-1.75.536.56.56 0 0 1-.386.205M27.236 56.72l1.252-.304a3.57 3.57 0 0 1-1.894 2.4.7.7 0 0 1-.217 0 .56.56 0 0 1-.233-1.072c.455-.23.834-.586 1.092-1.024M56.255 75.584a2.73 2.73 0 0 1 .867-2.984.565.565 0 0 1 .92.327.56.56 0 0 1-.19.529 1.6 1.6 0 0 0-.538 1.752c.273.625.927.997 1.606.912a3.023 3.023 0 0 1 3.21 2.736 3.58 3.58 0 0 1-2.062 3.4.6.6 0 0 1-.225 0 .55.55 0 0 1-.514-.336.56.56 0 0 1 .289-.736 2.46 2.46 0 0 0 1.389-2.312 1.91 1.91 0 0 0-2.111-1.672 2.65 2.65 0 0 1-2.641-1.616M38.82 61.24c.345.144.69.28 1.043.408a3.04 3.04 0 0 1-3.01 1.872 1.55 1.55 0 0 0-1.606.92c-.205.635.006 1.33.53 1.744a.559.559 0 0 1-.361.992.56.56 0 0 1-.361-.136 2.72 2.72 0 0 1-.867-2.984A2.66 2.66 0 0 1 36.82 62.4c.849.091 1.659-.379 1.998-1.16M50.154 89.448a3.03 3.03 0 0 1-3.211 2.752 1.55 1.55 0 0 0-1.605.912 1.6 1.6 0 0 0 .537 1.752.56.56 0 0 1-.36.992.56.56 0 0 1-.37-.128 2.75 2.75 0 0 1-.867-2.984 2.66 2.66 0 0 1 2.633-1.656 1.925 1.925 0 0 0 2.127-1.688 2.45 2.45 0 0 0-1.397-2.296.562.562 0 1 1 .45-1.032 3.59 3.59 0 0 1 2.063 3.376M27.003 66.4c0 .636-.178 1.259-.513 1.8l-.634-1.936a2.62 2.62 0 0 1 1.653-2.512 2.77 2.77 0 0 1 2.994.864.559.559 0 0 1-.265 1.006.56.56 0 0 1-.562-.286 1.61 1.61 0 0 0-1.757-.536 1.54 1.54 0 0 0-.916 1.6M27.06 98.224l.104-1.208a1.935 1.935 0 0 0 1.172-1.976 2.65 2.65 0 0 1 1.662-2.624 2.74 2.74 0 0 1 2.994.864.56.56 0 0 1-.065.8.57.57 0 0 1-.802-.064 1.61 1.61 0 0 0-1.75-.536 1.54 1.54 0 0 0-.923 1.6 3.026 3.026 0 0 1-2.392 3.144M70.64 97.288c.96.032 1.85-.496 2.28-1.352a.565.565 0 0 1 1.035.448 3.61 3.61 0 0 1-3.211 2.056h-.145a3.02 3.02 0 0 1-2.761-3.2 1.54 1.54 0 0 0-.915-1.6 1.65 1.65 0 0 0-1.758.536.563.563 0 0 1-.803.064.567.567 0 0 1-.064-.8 2.78 2.78 0 0 1 2.994-.864 2.65 2.65 0 0 1 1.662 2.624 1.92 1.92 0 0 0 1.685 2.088M46.558 101.232a3.6 3.6 0 0 1-3.211 2.064h-.12a3.027 3.027 0 0 1-2.762-3.2 1.54 1.54 0 0 0-.915-1.6 1.61 1.61 0 0 0-1.758.536.563.563 0 0 1-.803.064.567.567 0 0 1-.064-.8 2.77 2.77 0 0 1 2.97-.864 2.65 2.65 0 0 1 1.662 2.624 1.9 1.9 0 0 0 .405 1.41 1.92 1.92 0 0 0 1.288.71 2.46 2.46 0 0 0 2.304-1.384.553.553 0 0 1 .739-.288c.273.13.39.454.265.728M74.372 57.088a1.7 1.7 0 0 0-.16-.568l1.244.208q.01.156 0 .312a3.58 3.58 0 0 1-2.047 3.392.554.554 0 0 1-.739-.296.567.567 0 0 1 .29-.736 2.46 2.46 0 0 0 1.412-2.312M63.783 61.617a1.9 1.9 0 0 0-1.412-.393q-.256 0-.505-.048a19 19 0 0 0 1.766-.856 2.93 2.93 0 0 1 1.982 2.52 3.58 3.58 0 0 1-2.063 3.392.554.554 0 0 1-.739-.296.567.567 0 0 1 .29-.736 2.4 2.4 0 0 0 1.388-2.304 1.89 1.89 0 0 0-.707-1.279M32.743 86.856c-.204.636.01 1.331.538 1.744a.567.567 0 0 1-.37 1 .56.56 0 0 1-.369-.16 2.74 2.74 0 0 1-.867-2.984 2.66 2.66 0 0 1 2.633-1.656 1.9 1.9 0 0 0 2.103-1.672 2.47 2.47 0 0 0-1.388-2.296.56.56 0 0 1 .45-1.024 3.56 3.56 0 0 1 2.062 3.376 3.015 3.015 0 0 1-3.21 2.752 1.55 1.55 0 0 0-1.582.92M73.192 84.8l.12 1.128h-.072a1.55 1.55 0 0 0-1.605.92c-.204.636.01 1.331.538 1.744a.567.567 0 0 1-.731.864 2.74 2.74 0 0 1-.803-2.984 2.66 2.66 0 0 1 2.553-1.672M61.047 101.768a3.59 3.59 0 0 1-2.071 3.392.561.561 0 0 1-.771-.394.56.56 0 0 1 .321-.63 2.46 2.46 0 0 0 1.389-2.312 1.89 1.89 0 0 0-.708-1.279 1.9 1.9 0 0 0-1.411-.393 2.66 2.66 0 0 1-2.633-1.664 2.74 2.74 0 0 1 .867-2.984.563.563 0 0 1 .803.064.567.567 0 0 1-.065.8 1.6 1.6 0 0 0-.538 1.744c.275.625.926.998 1.606.92a3.03 3.03 0 0 1 3.21 2.736"/><path fill="#fff49a" d="M71.635 56.088q.058.159.064.328a.949.949 0 0 1-1.738.53.94.94 0 0 1 .068-1.13z"/></g><path fill="#00bcbd" d="M32.398 192.328s-8.42-.576-9.585-7.28l-1.35-40.936c.754-13.408 17.077-12.872 17.077-12.872 5.066.344 12.601 0 17.723 9.056l-12.844 47.04c-.875 5.312-5.956 5.336-11.021 4.992" data-paper-data="{&quot;origPos&quot;:null}"/><path fill="#00bcbd" d="m64.137 193.504-9.215-49.76c-.803-5 6.221-7.696 11.238-8.496 0 0 16.52-2.736 17.837 7.2v47.616c.802 8.448-9.633 10.448-9.633 10.448-5.017.776-9.344-3.336-10.227-7.008" data-paper-data="{&quot;origPos&quot;:null}"/><g stroke-linecap="butt" stroke-linejoin="miter" stroke-width="1"><path fill="#00bcbd" d="M84.053 142.448c-.16 4.448-26.907-1.768-32.783-1.808-6.133-.04-23.355 4.072-29.432 2.256-4.908-10.424-.759-28.12 4.555-37.92a10.2 10.2 0 0 1 .25-4.464h48.765c.152 1.328.465 4.608.465 4.608 5.844 11.592 8.308 33.536 8.18 37.328" data-paper-data="{&quot;origPos&quot;:null}"/><path fill="#269b9e" d="M35.24 104.8v13.6c-.014 5.075-4.14 9.187-9.232 9.2l-6.134.053c.04-.24.027-.48.075-.72l5.4-.053c5.094-.013 9.219-4.125 9.232-9.2V103.2h.546q.123.796.112 1.6" data-paper-data="{&quot;origPos&quot;:null}"/><path fill="#269b9e" d="M74.155 103.2h.546v14.48c.112 5.928 4.287 8.856 7.538 9.04l.16.88c-4.756-.444-8.381-4.44-8.348-9.2v-13.6q-.015-.804.104-1.6"/><g fill="#269b9e" opacity=".64"><path d="M57.844 131.432v.624h-2.577a1.54 1.54 0 0 1-1.541-1.536V103.2h.442l.417 27.128c0 .442.36.8.803.8zM57.844 130.128l-.466-3.064v-23.832h.466z"/></g></g><path fill="#fff49a" stroke="#f8b900" stroke-linecap="round" stroke-linejoin="round" stroke-width=".768" d="M76.491 105.6H25.807l.33-3h49.92z"/><path fill="#412d20" d="M36.026 29.928c-.65-4.184-3.259-12.184-3.259-12.184a9.74 9.74 0 0 1 1.814-8.064c-.096-5.32 6.422-5.896 6.422-5.896 7.08-7.056 14.906-2.016 14.906-2.016C65.173-.392 64.804 5.6 64.804 5.6c10.186 0 10.274 11.208 8.492 13.048s-1.252 5.816.113 9.232c1.854 4.64-2.224 6.096-2.224 6.096-1.774.488-.971 3.136-.971 3.136.265 5.608-4.816 4.856-4.816 4.856-2.047.16-1.245 3.456-1.245 3.456-2.376-3.2-.337-4.8-.337-4.8a2.125 2.125 0 0 0 1.084-2.64c-2.625-6.688.803-13.688.803-13.688 2.408-7.904-1.534-7.56-1.534-7.56-3.66 1.872-7.674-3.6-7.674-3.6-6.076-3.888-9.07 1.44-9.07 1.44-1.421 3.456-6.06 3.024-6.06 3.024-5.612 1.992-4.994 8.44-4.994 8.44.377 1.416-.337 3.864-.345 3.888"/><path fill="#705347" d="M55.283 46.448h-2.48c-2.898 0-15.027-5.736-16.127-12.368l-2.07-13.376c0-6.8 9.19-12.368 16.054-12.368h.417c6.823 0 16.054 5.6 16.054 12.368l-2.11 13.376c-.908 4.6-6.35 12.368-9.738 12.368"/><path fill="#412d20" d="M51.92 23.696a.577.577 0 0 1-.578.576h-5.988a.574.574 0 1 1 0-1.144l6.02-.272c.289 0 .514.528.546.84M64.17 23.112a.578.578 0 0 1 .394.917.58.58 0 0 1-.531.227l-6.037.048a.58.58 0 0 1-.505-.64c.04-.344.32-.8.634-.8l6.044.216z"/><path stroke="#523a30" stroke-linecap="round" stroke-linejoin="round" stroke-width=".8" d="m57.17 34.728-1.044.648a2.08 2.08 0 0 1-1.79.176l-1.156-.432"/><g stroke-linecap="butt" stroke-linejoin="miter" stroke-width="1"><path fill="#fff" d="M51.353 25.812c.073.09.101.21.077.324a3.09 3.09 0 0 1-3.03 2.475 3.09 3.09 0 0 1-3.03-2.475.39.39 0 0 1 .385-.456l5.298-.016a.4.4 0 0 1 .3.148"/><path fill="#472f1b" d="M51.34 25.795a.4.4 0 0 1 .098.301 2.96 2.96 0 0 1-1.918 2.288 1.825 1.825 0 0 1-1.285-1.6c-.028-.396.077-.79.297-1.12h2.52c.111.002.216.05.289.131"/></g><g stroke-linecap="butt" stroke-linejoin="miter" stroke-width="1"><path fill="#fff" d="M64.03 25.737a.38.38 0 0 1 .083.319 3.09 3.09 0 0 1-3.03 2.475 3.09 3.09 0 0 1-3.03-2.475.39.39 0 0 1 .385-.456h5.29a.39.39 0 0 1 .301.137"/><path fill="#472f1b" d="M64.014 25.732a.38.38 0 0 1 .091.3 2.95 2.95 0 0 1-1.91 2.288 1.83 1.83 0 0 1-1.285-1.6c-.027-.396.078-.79.297-1.12h2.52c.11.001.215.05.287.132"/></g><path fill="#412d20" d="M36.026 29.904c-.65-4.184-3.259-12.184-3.259-12.184a9.74 9.74 0 0 1 1.814-8.064c-.096-5.32 6.422-5.896 6.422-5.896 7.08-7.056 14.906-2.016 14.906-2.016 9.264-2.16 8.895 3.832 8.895 3.832 10.186.056 2.576 11.136 2.576 11.136-3.66 1.872-7.674-3.6-7.674-3.6-6.076-3.888-9.07 1.44-9.07 1.44-1.421 3.456-6.061 3.024-6.061 3.024-4.495.464-4.993 6.064-4.993 6.064-1.052 4.76-3.548 6.264-3.556 6.264"/><path fill="#705347" d="M32.51 24.592a2.76 2.76 0 0 1 2.258-.143 2.75 2.75 0 0 1 1.603 1.591l1.06 3.56c.513 1.76.433 2.672-.072 3.072-1.22.72-2.955.072-3.862-1.448l-1.549-2.56c-.907-1.52-.642-3.352.562-4.072"/><g fill="#00bcbd" stroke-linecap="butt" stroke-linejoin="miter" stroke-width="1"><path d="m43.443 19.056-.706.864-4.487-3.144.457-.568zM42.167 20.616l-.707.872-4.101-3.696.433-.536z"/></g><path stroke="#523a30" stroke-linecap="round" stroke-linejoin="round" stroke-width=".8" d="M58.406 37.808c-3.412 3.416-7.706.744-7.706.744"/><g fill="#705347" stroke-linecap="butt" stroke-linejoin="miter" stroke-width="1"><path d="m91.51 96.456 16.167 28.92c.828 1.4.416 3.2-.94 4.104a2.64 2.64 0 0 1-3.339-.288L82.287 103.2a5.866 5.866 0 0 1 1.212-7.608c2.248-1.816 6.109-1.32 8.011.864"/><path d="m105.75 127.12 6.59 7.896c.387.46.33 1.145-.128 1.536a1.094 1.094 0 0 1-1.541-.136l-7.016-7.368c-.401-.464-.056-1.512.402-1.904a1.29 1.29 0 0 1 1.693-.024"/><path d="m108.93 126.192 6.99 7.84c.44.49.403 1.24-.08 1.688-.492.44-1.249.4-1.693-.088l-7.482-7.4c-.441-.488.033-1.584.522-2.024a1.263 1.263 0 0 1 1.742-.016M101.697 126.04l5.69 8.528a.9.9 0 0 1-.16 1.256.91.91 0 0 1-1.268-.16l-6.293-8.136a.9.9 0 0 1 .168-1.256c.386-.304 1.582-.624 1.863-.232"/><path d="m110.567 124.4 6.606 6.992a1 1 0 0 1 0 1.408 1.006 1.006 0 0 1-1.413 0l-6.943-6.704c-.386-.392-.04-1.32.353-1.704a1.014 1.014 0 0 1 1.397.008"/><path d="M115.768 124.408c-.249.752-2.07 1.096-3.066.736l-9.079-3.28a2.226 2.226 0 0 1 .064-2.768c.442-.256 1.517-1.176 3.693-.064l5.804 3.768a3.22 3.22 0 0 0 2.327 1.12c.225-.016.322.288.257.488"/><path d="M100.621 120c2.151-1.936 5.876-2.096 7.826.048l.875.976a5.275 5.275 0 0 1-.369 7.44l-.746.664a5.32 5.32 0 0 1-7.466-.368l-.875-.976c-1.934-2.184-1.404-5.856.755-7.784"/></g><g fill="#705347" stroke-linecap="butt" stroke-linejoin="miter" stroke-width="1"><path d="M8.629 127.922a3.14 3.14 0 0 1 2.184 2.766c.449 3.336-2.53 7.52-2.53 7.52-.754 1.192-.48 1.544-.48 1.544.015 1.112-.378 5.056-.378 5.056 1.116.792 1.188 1.472 1.188 1.472 2.143 1.248 1.068 2.56 1.068 2.56a9.7 9.7 0 0 1-2.272-.8 2.75 2.75 0 0 1-2.055 0 10.7 10.7 0 0 1-3.652-2.176c-3.733-7.264-.16-10.848-.16-10.848l3.7-6.096a3.15 3.15 0 0 1 3.387-.998"/><path d="M9.633 143.704c-1.526.2-1.847-1.56-1.887-2.656l-.417-11.152a2.324 2.324 0 0 1 2.689-1.008 6.08 6.08 0 0 1 1.565 4.72l-1.389 7.024a3.34 3.34 0 0 0-.176 2.664c.096.192-.16.392-.385.408"/><path d="M16.913 95.128a5.88 5.88 0 0 1 3.757 6.736L9.81 133.496a2.644 2.644 0 0 1-3.043 1.408 3.056 3.056 0 0 1-2.296-3.528L9.713 98.68c1.011-2.68 4.463-4.472 7.2-3.552"/></g><g stroke-linecap="butt" stroke-linejoin="miter" stroke-width="1"><path fill="#705347" d="M84.478 244.024a3.99 3.99 0 0 1-.553 3.279 4.02 4.02 0 0 1-2.85 1.729h-.032c-1.887.216-4.431-.832-5.017-2.632l-11.118-55.056c-.538-3.024 5.747-6.736 8.734-7.112s9.833 1.584 10.154 4.568z"/><path fill="#00bcbd" d="M84.655 231.088c.032 2.632-2.585 3.832-4.993 4.112 0 0-5.908.544-7.104-2.4l-8.517-39.504c-.546-3.024 3.476-10.264 9.705-11.2 5.498-.824 10.074 2.12 10.395 5.104z"/></g><path fill="#ffc724" d="M76.836 256.448s-.738-9.024-1.38-10.048a8.03 8.03 0 0 0 5.033-2.832c.329-.4.923.232.923.232 1.55-.4 14.77 2.536 16.729 3.856a2.52 2.52 0 0 1 1.605.368 42 42 0 0 1 4.68-.848c1.718-.176 2.504-.168 3.524.96l.401.64c.209.24.554 2.864 0 3.248-7.369 5.184-13.148 4-14.714 4.288-.73.088-16.303.944-16.8.136"/><path fill="#8967e3" d="M108.295 248.752c.787 1.928 1.172 3.784-1.373 5.384a22.7 22.7 0 0 1-12.193 3.032c-.69-.008-14.69 2.032-15.252 2.12-1.164.12-2.047.352-2.328-1.176l-.337-1.92 18.037-2.024c2.216 1.144 13.077-3.336 13.446-5.416M95.997 249.544l-14.617-5.768c.875-2.8 2.304-5.376 4.342-4.992 1.766.328.635 3.896.635 3.896 3.676 1.12 6.742 2.712 11.751 4.952z"/><path stroke="#00bcbd" stroke-linecap="round" stroke-linejoin="round" stroke-width=".768" d="m91.927 247.936-.521-3.344-4.897 1.208-.152-3.12-2.962 1.8 5.322-.992.425 3.344 5.306-.872 1.55 3.584 2.11-1.912z"/><path fill="#fe7e5b" d="M99.674 248.04a27 27 0 0 1 4.712-.888s2.665 1.4-2.601 3.848a17.5 17.5 0 0 1-6.085 1.352s-.297-.984 2.04-1.544c0 0 3.266-1.184 3.37-2.104.033 0 .113-.64-1.436-.664M80.786 246.328l9.456 3.44s3.5 1.864.377 2.344a4.26 4.26 0 0 1-3.556-1.304s-6.125-4.568-4.96-.512c0 0 1.54 2.624 0 2.72 0 0-1.454.576-3.485-3.2-.016-.016-1.557-4.848 2.168-3.488"/><g stroke-linecap="butt" stroke-linejoin="miter" stroke-width="1"><path fill="#705347" d="m40.248 193.392-22.66 48.344a3.95 3.95 0 0 1-4.672 1.64h-.057c-2.303-.752-4.182-3.544-3.106-5.6l12.522-50.68c.883-2.704 8.22-2.664 11.07-1.688 2.914.992 8.003 5.32 6.903 7.984"/><path fill="#00bcbd" d="m43.106 188.736-19.514 41.08c-1.445 2.848-6.912.872-6.912.872-2.32-.768-5.08-3.792-4.567-6.112l10.435-43.856c.875-2.704 7.393-4.432 13.221-2.44 5.643 1.928 8.38 7.76 7.337 10.456"/></g><path fill="#ffc724" d="M6.462 241.6s1.822-3.72 2.914-5.824c0 0 .168-.528.425-1.24 2.657 1.144 4.905 1.744 6.71 2.504.482.2.105.8.105.8 1.525.472 3.123 10.176 5.724 12.888.374.104.716.299.995.568 4.88 1.2 5.707 2.912 5.707 3.248l.16 1.6a1.91 1.91 0 0 1-1.316 2.072c-.754.28-8.781 2.192-11.414-.512 0 0-1.887-2.192-3.356-2.808-.658-.272-5.073-8.288-5.619-8.512-.393-.208-1.035-3.824-1.035-4.784"/><path fill="#8967e3" d="M19.811 257.216c6.984.52 8.854.224 9.392-1.08.04 1.416.481 3.008-3.628 3.16-2.922.104-9.456.6-11.961-3.056-.401-.584-6.1-9.864-6.598-10.32-.964-1.624-1.485-2.48-1.06-3.28l.674-1.376 8.67 12.48c.353 3.312 3.732 3.408 4.511 3.472"/><path fill="#8967e3" d="m20.333 251.2-3.717-13.368a4.295 4.295 0 0 1 5.724-1.496c1.324.84-1.726 3.2-1.726 3.2.89 4.304.618 5.88 1.726 11.2z"/><path stroke="#00bcbd" stroke-linecap="round" stroke-linejoin="round" stroke-width=".768" d="m22.34 250.72-2.007.504 1.5-3.192-3.202-2.952 2.448-2.928-4.158-3.216 3.693.584-2.625 2.832 3.444 2.728-1.96 3.056z"/><path fill="#fe7e5b" d="M23.335 251.288s5.707 1.048 5.707 3.248c0 0-6.325 1.176-11.238-2.272 0 0 .915-1.2 3.211-.448.016 0 3.628.312 2.32-.528M13.381 238.656l3.797 9.512s1.975 3.424-.931 2.192a4.25 4.25 0 0 1-2.328-2.984s-.361-8.704-1.525-4.648c0 0-.088 3.04-1.453 2.296 0 0-1.943-.48-1.252-4.568 0 0 1.252-4.912 3.692-1.8"/></g></svg>