<svg xmlns="http://www.w3.org/2000/svg" width="142.585" height="126.633" viewBox="-0.469 0.339 142.585 126.633"><path fill="#be0a3c" d="M58.164 11.621c-6.386 8.545-12.808 24.231 6.903 32.297C87.835 53.229 88.052 17.203 79.54 9.651c-4.144-3.676-7.084-4.107-11.569-3.872-4.215.216-8.664 4.311-9.807 5.842"/><path fill="#a0640a" d="M69.576 8.578c-8.556 0-9.398 9.905-9.098 11.141.851 3.473 2.126 7.628 5.765 9.131 3.028 1.252 7.084.355 9.278-2.053 1.953-2.146 4.244-8.374 3.494-11.225.156-.546-.887-6.994-9.439-6.994"/><path fill="#a0640a" d="M76.917 23.846c3.734-.235 5.17-2.026 4.97-5.156-.285-4.45-4.569-.646-4.569-.646s-.802 4.941-.401 5.802M61.971 23.846c-3.731-.235-5.171-2.026-4.97-5.156.284-4.45 4.568-.662 4.568-.662s.803 4.957.402 5.818"/><path fill="#824600" d="M69.965 21.182q.136-.057.253-.147.039-.218.052-.439c.08-1.539.088-2.759-.766-3.86-.999-.171-1.232 3.154-.983 4.454.466.172.98.169 1.444-.008"/><path d="m67.61 24.089 3.819-.108s-.682 1.245-1.785 1.173c-1.789-.116-2.034-1.065-2.034-1.065M74.654 17.745c.979-.51.594 1.436.401 1.751-.89-.06-.738-1.177-.401-1.751M63.379 17.562c.974-.507.589 1.439.401 1.754-.903-.075-.75-1.18-.401-1.754"/><path fill="#a0001e" d="m69.632 10.724 9.904 7.679s1.067-5.981-3.169-8.704-6.735 1.025-6.735 1.025"/><path fill="#be0a3c" d="m59.624 19.603 16.88-10.654s-8.657-5.929-14.975.056c-4.97 4.729-1.905 10.598-1.905 10.598"/><path fill="#005a5a" d="M66.588 54.002 47 66.762s-.802 2.938.293 5.351c.979 2.137 3.711 3.839 6.17 3.098 8.311-2.5 10.609 6.523 24.276.327 4.814-2.189 6.891-6.846 13.125-5.327 2.692.658 4.974-.335 6.057-1.595a5.56 5.56 0 0 0 1.203-3.84z"/><path fill="#a0640a" d="m78.654 99.741 6.895-6.639-.036-25.499-11.019.455.947 25.419z"/><path d="m87.029 72.886.173-10.969-14.22.367.256 10.602z"/><path fill="linen" d="m75.537 97.596.593 16.571 9.608.837-.097-17.325-5.198-1.957z"/><path fill="#f0e6d2" d="m85.641 97.679-.092-4.577-10.233.279.209 4.298z"/><path fill="#00a08c" d="m91.847 125.28-6.635-.857-9.005.622.068 1.192 16.033.235z"/><path d="M90.655 123.992a27.5 27.5 0 0 1-3.57-.427l-1.203-12.508H75.814l.401 13.988 15.644.235a8 8 0 0 1-.401-1.045 3.3 3.3 0 0 0-.803-.243"/><path fill="#00a08c" d="m78.325 117.935 4.44.012-.385-4.741-4.236-.084z"/><path fill="#005a5a" d="M87.254 114.04h-2.118v-.778h1.977z"/><path fill="#00a08c" d="M87.599 115.858h-2.463v-.782h2.322z"/><path fill="#005a5a" d="M87.948 117.672h-2.812v-.781h2.671z"/><path fill="#00a08c" d="M88.297 119.486h-3.161v-.781h3.02z"/><path fill="#005a5a" d="M88.646 121.301h-3.51v-.778h3.369z"/><path fill="#a0640a" d="m63.768 99.741-6.896-6.639.036-25.499 11.019.455-.946 25.419z"/><path d="m55.392 72.886-.172-10.969 14.224.367-.261 10.602z"/><path fill="linen" d="m66.884 97.596-.593 16.571-9.607.837.092-17.325 5.203-1.957z"/><path fill="#f0e6d2" d="m56.776 97.679.096-4.577 10.233.279-.209 4.298z"/><path fill="#00a08c" d="m50.574 125.28 6.635-.857 9.006.622-.069 1.192-16.029.235z"/><path d="M51.746 123.992a27.5 27.5 0 0 0 3.57-.427l1.203-12.508h10.085l-.402 13.988-15.644.235q.239-.509.402-1.045.377-.172.786-.243"/><path fill="#00a08c" d="m64.097 117.935-4.441.012.385-4.741 4.24-.084z"/><path fill="#005a5a" d="M55.167 114.04h2.118v-.778h-1.977z"/><path fill="#00a08c" d="M54.822 115.858h2.463v-.782h-2.326z"/><path fill="#005a5a" d="M54.473 117.672h2.812v-.781h-2.671z"/><path fill="#00a08c" d="M54.124 119.486h3.161v-.781h-3.02z"/><path fill="#005a5a" d="M53.779 121.301h3.506v-.778h-3.369z"/><path fill="#a0640a" d="M136.224 9.647c-.602-1.332 5.09-3.262 5.214-4.33s-5.74 1.654-6.418 1.351c-.83-.37 4.056-2.46 3.923-3.792 0-.215-8.504 3.302-19.519 8.609-16.402 7.899-40.357 19.737-40.357 19.737l5.973 9.65s56.21-29.825 56.559-31.225-4.774 1.332-5.375 0"/><path fill="#824600" d="M130.243.839c.898 1.296-1.681 3.493-.851 4.853s3.274.199 3.274 3.261-1.709 3.637-4.204 4.167c-4.011.853-3.522-4.629-2.808-6.164.525-1.177 3.149-5.81 4.589-6.117"/><path fill="#005a5a" d="M121.49 22.554c-1.203-1.025-5.768-9.466-5.459-11.001s3.746-2.867 5.9-3.102c.682.941 5.215 9.039 5.432 10.79.216 1.75-4.677 4.338-5.873 3.313"/><path fill="#00a08c" d="m117.114 9.731 6.819 12.998 2.323-1.307-6.515-12.895z"/><path fill="#a0640a" d="M5.407 10.843C6.013 9.511.317 7.582.193 6.513s5.744 1.655 6.418 1.352c.83-.371-4.056-2.461-3.923-3.792.024-.216 8.504 3.301 19.523 8.608 16.398 7.899 40.353 19.738 40.353 19.738l-5.965 9.649S.401 12.243.048 10.843c-.353-1.399 4.766 1.332 5.359 0"/><path fill="#824600" d="M11.388 2.035c-.898 1.296 1.681 3.493.85 4.845-.83 1.351-3.269.199-3.269 3.261s1.705 3.637 4.204 4.167c4.011.853 3.522-4.629 2.808-6.164-.529-1.169-3.145-5.802-4.593-6.109"/><path fill="#005a5a" d="M20.141 23.75c1.203-1.025 5.768-9.466 5.459-11.001s-3.742-2.867-5.901-3.102c-.681.941-5.214 9.039-5.431 10.79s4.677 4.338 5.873 3.313"/><path fill="#00a08c" d="m24.517 10.927-6.815 12.999-2.323-1.308L21.89 9.723z"/><path d="M57.839 57.922h25.885v11.966H57.839z"/><path fill="#a0640a" d="M76.483 31.785c-8.171 2.942-13.927.634-13.927.634l-.758 5.371 2.367 5.06 15.158-1.994z"/><path fill="#00a08c" d="m80.001 28.994-4.641 2.041s2.543 7.46-4.681 8.166-5.921-7.065-5.921-7.065l-4.857-1.994L47.012 66.75s51.016-2.03 51.124-1.994z"/></svg>