<svg xmlns="http://www.w3.org/2000/svg" xml:space="preserve" width="160.368" height="143.105" viewBox="4.278 7.18 160.368 143.105"><title>rabbit-a</title><g fill-rule="nonzero"><path fill="#b5c5c1" d="M30.354 99.995c.989-6.655 5.756-1.619 9.174-4.587 6.476-5.576 2.518-22.754 12.052-28.24 8.905-5.127 21.227 7.375 25.095 13.13 5.217 7.825 3.328 20.417 2.698 30.31-.54 7.284-5.576 12.41-12.682 11.062-6.746-1.26-11.153-3.868-17.539-5.576.63 4.227 6.836 7.824 9.444 11.422.81 1.169 2.878 2.698 3.778 4.497.99 2.158.63 4.676.45 6.475-.54 4.587-4.588-.45-6.117-2.158 4.767 13.13-14.57-12.322-16.19-16.19-.09 0-10.613-17.447-10.163-20.145M103.658 107.82c-1.889-3.328-2.878-7.016-3.598-10.883-1.619-8.364 20.238-12.86 24.825-6.296 4.857 7.016 2.878 10.163 1.26 15.2-1.35 4.137 7.285 12.591 7.285 12.591s4.587-1.259 6.296-.54c1.709.72 3.777 2.249 4.677 3.958.72 1.349-1.35 3.507-5.487 2.608 3.148 1.889-.36 2.338-2.518 2.518-4.138.36-11.783-1.978-13.042-2.878-3.508-2.608-15.56-9.174-19.698-16.278"/><path fill="#cbd7d4" d="M98.351 118.432c-.899-3.148-.81-6.475-.45-9.803.72-7.285 37.957-8.994 40.566-2.428 2.698 6.925-15.021 12.051-17.99 15.919-2.428 3.147 3.598 11.242 3.598 11.242s6.476.27 7.915 1.259c1.44.99 2.07 3.687 1.62 4.856-.54 1.26-2.34 1.8-6.027 0 2.519 2.339-.99 2.698-3.058 2.339-4.047-.63-10.703-4.407-11.693-5.397-2.698-2.877-12.502-11.062-14.48-17.987"/><path fill="#b5c5c1" d="M128.573 140.197c-1.08-1.53-2.879-3.058-4.857-2.878-.81.09-.81 1.259 0 1.259 1.529-.09 2.968 1.08 3.777 2.338.45.54 1.53 0 1.08-.72M42.676 51.699c2.249 5.396-.27 11.602-5.666 13.85s-11.693-.27-13.942-5.666c-2.248-5.396.27-11.602 5.667-13.85 5.396-2.249 11.692.27 13.941 5.666"/><path fill="#cbd7d4" d="M28.195 58.354c.45.36.9.63 1.35.99.269.18.719 0 .809-.18.18-.27.09-.63-.18-.81-.45-.36-.9-.63-1.35-.99-.27-.18-.719 0-.809.18-.27.27-.09.63.18.81M26.036 61.052l1.62.54c.719.27 1.079-.9.36-1.17l-1.62-.539c-.27-.09-.72.09-.72.45-.18.27 0 .54.36.72M30.534 53.587c.27.81.72 1.8 1.259 2.429.18.27.54.36.81.18s.449-.54.18-.81c-.45-.63-.9-1.439-1.08-2.158-.18-.72-1.35-.36-1.17.36M34.401 53.228c.18.72.36 1.349.54 2.068s1.439.45 1.17-.36c-.18-.63-.36-1.349-.54-2.068-.18-.81-1.35-.45-1.17.36M38.629 52.958c-.27.72-.27 1.439-.18 2.248.09.36.45.54.72.45.359-.09.449-.45.449-.72-.09-.54 0-1.079.18-1.618.27-.81-.9-1.08-1.17-.36M40.427 56.555c-.18.54-.27 1.17-.36 1.71 0 .359.27.629.63.629s.54-.27.63-.63c.09-.45.18-.99.36-1.439.18-.72-.99-.99-1.26-.27M25.587 51.969c.36.72.899 1.349 1.349 2.068s1.439.09 1.08-.63c-.45-.719-.99-1.259-1.35-2.068-.36-.72-1.35-.09-1.08.63M28.555 48.64c.27.72.45 1.44.63 2.16.18.809 1.439.45 1.169-.36-.18-.72-.45-1.44-.63-2.159-.27-.72-1.44-.36-1.17.36M32.692 48.011c.18 1.08.27 2.069.54 3.058.27.72 1.439.45 1.17-.36-.27-.989-.45-2.068-.54-3.057-.09-.72-1.26-.36-1.17.36M37.01 48.371c0 .27.09.45.09.72.09.36.45.54.719.45.36-.09.45-.45.45-.72s-.09-.45-.09-.72c-.09-.36-.45-.54-.72-.45-.45 0-.54.36-.45.72M22.798 56.196c.54.36 1.08.809 1.62 1.169.27.18.719 0 .809-.18.18-.27.09-.63-.18-.81-.54-.36-1.08-.809-1.62-1.169-.269-.18-.719 0-.809.18-.18.36-.09.63.18.81M31.523 60.423c.54.45.99.899 1.439 1.349.54.54 1.44-.36.9-.9-.45-.45-.99-.989-1.44-1.349-.27-.18-.63-.27-.9 0-.179.27-.179.72 0 .9M29.904 63.48c.27.18.54.36.9.45.809.18 1.079-.99.36-1.169-.27-.09-.45-.18-.63-.27-.27-.18-.72-.09-.81.18-.27.36-.09.63.18.81M34.221 57.635c0 .809.09 1.619.27 2.338.09.81 1.35.45 1.17-.36-.18-.63-.27-1.349-.18-1.978 0-.81-1.26-.81-1.26 0M37.28 58.264c0 .36-.09.63-.09.99s.27.629.629.629c.36 0 .54-.27.63-.63 0-.36.09-.63.09-.989 0-.36-.27-.63-.63-.63-.45 0-.63.27-.63.63"/><path fill="#cbd7d4" d="M80.992 122.48c-8.814 1.888-30.49-3.239-37.776-7.735-11.873-7.375-27.523-27.521-12.323-48.027 12.502-16.908 48.39 2.069 62.152 5.217 7.915 1.798 19.428 5.306 27.073.989 2.338-1.35 3.328-4.047 5.576-5.217 3.868-2.068 16.55-8.633 19.698-5.845 7.465 6.475 19.518 9.623 10.703 32.557-7.915 20.596-42.543 24.823-59.093 27.16z"/><path fill="#c9d8d5" d="M135.139 64.74c-13.762 1.529-28.513-8.275-38.047-16.1-6.476-5.305-13.222-16.638-15.65-23.832-2.159-6.296 24.735 5.756 31.57 10.972 11.513 8.904 21.677 20.775 31.39 31.388z"/><path fill="#b5c5c1" d="M146.562 63.48c-9.715-2.158-19.518-19.786-23.206-28.06-4.048-8.904-4.767-27.52-4.767-27.52 5.037-2.609 16.73 18.796 20.687 25.362 5.846 9.713 13.581 20.415 16.19 31.658z"/><path fill="#b5c5c1" d="M135.948 50.26c.54-.18 1.08-.45 1.619-.54-.99.18-1.979.36-3.058.63-17.899 5.486-17 27.97-6.026 36.334-9.355-10.163-10.344-29.41 7.465-36.424"/><path fill="#c9d8d5" d="M130.102 88.213c-10.794-9.533-12.862-30.578 5.846-37.953 8.994-3.598 16.28.45 21.137 7.105 1.979 2.698 3.058 6.026 4.677 8.994 3.148 6.205 2.518 10.882 1.799 15.379 0 0-.9 4.766-3.598 8.634-1.619 2.338-3.868 4.317-6.926 4.856-9.084 1.44-14.57.36-22.935-7.015"/><g fill="#3c4f45"><path d="M158.524 82.637c.81.27 1.979.54 2.698.09.72-.45.72-1.08.9-1.799.18-.81-.99-1.079-1.26-.36-.09.36 0 .9-.36 1.08-.449.27-1.348 0-1.798-.18-.63-.36-.99.9-.18 1.17"/><path d="M160.143 82.367c.54 1.35.81 2.788.81 4.137 0 .81 1.259.81 1.259 0 0-1.529-.36-3.058-.9-4.497-.27-.719-1.529-.36-1.169.36"/><path d="M158.434 87.224c.99.63 2.339.54 3.418.18.72-.27.45-1.53-.36-1.26-.72.27-1.709.45-2.428 0-.63-.449-1.26.63-.63 1.08"/></g><g fill="#b5c5c1"><path d="M139.996 80.659c-1.8 0-3.508.27-5.217.899-.72.27-.45 1.439.36 1.169 1.529-.63 3.148-.9 4.856-.9.81.09.81-1.168 0-1.168M141.705 82.817c-2.609.81-5.487 1.619-7.916 2.878-.72.36-.09 1.439.63 1.08 2.338-1.26 5.037-1.98 7.645-2.789.72-.18.45-1.349-.36-1.169M141.165 85.515c-1.08.9-2.249 1.799-3.328 2.788-.63.54.27 1.44.9.9a50 50 0 0 1 3.327-2.788c.54-.54-.36-1.44-.9-.9"/></g><ellipse cx="8.618" cy="9.652" fill="#3c4f45" rx="1.979" ry="2.608" transform="rotate(-24.243 216.85 -268.611)"/><path fill="#b5c5c1" d="M134.24 65.19c.539-1.08 1.708-2.34 2.967-2.16.81.09 1.08-1.078.36-1.168-1.889-.27-3.598 1.079-4.407 2.698-.27.72.81 1.349 1.08.63"/><path fill="#cbd7d4" d="M4.81 107.1c1.529-6.565 5.846-1.17 9.534-3.867 6.925-5.037 4.317-22.485 14.21-27.251 9.265-4.407 21.857 8.364 25.185 14.48 4.587 8.274 3.418 23.473 1.979 33.276-1.08 7.195-9.894 12.861-16.82 10.883-6.566-1.799-10.433-7.915-16.73-10.073.27 4.317 6.207 8.364 8.456 12.141.719 1.17 2.698 2.878 3.417 4.857.9 2.248.27 4.677-.09 6.475-.899 4.497-4.497-.81-5.936-2.608 3.688 13.4-13.491-13.49-14.84-17.448.09.09-8.995-18.167-8.365-20.865"/><path fill="#b5c5c1" d="M53.83 90.552c3.507 6.385 3.687 16.908 2.877 25.902 2.879-11.153.9-26.712-5.217-32.198-3.867-3.508-7.105-5.396-10.253-6.296 5.666 3.328 10.703 9.084 12.592 12.592M26.576 143.704c1.08 1.62 1.529 2.968 1.26 4.857-.09.81 1.169.81 1.258 0 .27-2.159-.27-3.687-1.439-5.486-.45-.63-1.529 0-1.079.63"/></g></svg>