<svg xmlns="http://www.w3.org/2000/svg" width="108.664" height="260.455" viewBox="0 0 108.664 260.455"><g stroke-miterlimit="10" data-paper-data="{&quot;isPaintingLayer&quot;:true}" style="mix-blend-mode:normal"><g fill-rule="evenodd"><path fill="#b47d67" d="M48.265 54.286c.32 2.5-4.056 4.673-6.58 4.673-2.036-.016-5.362-1.51-5.675-3.515l-.216-16.734h13.16z"/><path fill="#966a57" d="m35.938 49.893-.144-11.183h13.16l-.225 5a24.16 24.16 0 0 0-12.791 6.183"/></g><g fill-rule="evenodd"><path fill="#b47d67" d="m67.388 145.379 1.891 22.59c.53 6.062-1.947 8.1-5.546 8.57 0 0-6.612 1.015-8.335-5.288l-9.714-26.67c-.665-3.196 4.809-7.733 9.345-8.364 4.424-.615 12.046 1.79 12.359 9.162"/><path fill="#535f6a" d="M48.032 161.49c-1.21-4.688-2.653-6.278-3.799-10.871a290 290 0 0 1-2.941-13.004c1.122-5.56 12.887-5.703 12.887-5.703 9.618 1.126 13.938 5.04 13.938 5.04.978 4.625 3.847 19.05 4.4 23.74.545 4.545-.176 4.201 1.194 12.189.056 3.011-1.162 8.787-8.375 9.801-8.424 1.19-12.022-5.448-12.824-5.959-1.042-5.487-2.82-8.77-4.48-15.233"/></g><path fill="#b47d67" fill-rule="evenodd" d="m42.742 135.179-7.782 38.988c-.906 6.47-7.59 6.302-7.59 6.302-3.638-.016-6.347-1.725-6.588-7.804l-2.46-37.886c-.048-3.131 7.806-5.64 12.278-5.591 4.585.056 12.415 2.787 12.142 5.99"/><path fill="#535f6a" d="M44.826 136.856a197 197 0 0 1-3.951 20.609c-1.627 6.262-1.795 12.82-2.196 19.466-.761.599-3.502 7.98-12.022 7.532-7.91-.415-8.752-7.868-9.554-8.666.345-8.116-.408-14.666-.456-19.235-.04-4.729-.177-11.343-.225-16.072.305-10.296 7.029-14.122 13.705-13.906 4.585.143 12.84 4.896 14.7 10.272M31.057 151.41h-2.196l-5.747-1.342h-1.867l1.01 1.342 1.282 1.07h-2.292l1.867 1.174 2.533.112-.65 1.126h2.125l2.725-1.014-1.932-.447 1.932-.56z"/><g fill-rule="evenodd"><path fill="#535f6a" d="M68.125 139.596c-.553 4.609-21.055-1.837-25.647-1.885-4.809-.04-20.943 5.288-25.703 3.395A57.4 57.4 0 0 1 18 126.272c1.74-7.988 6.484-18.22 9.04-22.366h29.655c9.097 9.146 12.142 29.387 11.429 35.69"/><path fill="#354650" d="M29.847 105.488v14.282c0 5.294-4.306 9.585-9.618 9.585h-2.941c.048-.255.136-.503.136-.75h2.092c5.311 0 9.617-4.292 9.617-9.586v-14.282a7 7 0 0 0 0-.847h.57q.138.793.144 1.598M54.34 103.89h.569c0 .28-.04.56-.04.847v14.282c0 5.294 4.306 9.586 9.617 9.586h2.132q.074.369.136.75h-2.94c-5.313 0-9.619-4.291-9.619-9.585v-14.282q.006-.805.145-1.598M41.316 133.31v.646H38.63a1.6 1.6 0 0 1-1.603-1.597V103.89h.457l.48 28.27a.8.8 0 0 0 .802.798zM41.316 131.912l-.481-3.196V103.89h.48z"/></g><g fill-rule="evenodd"><path fill="#b47d67" d="M59.605 55.46s3.711-2.045 8.392 1.67l24.38 29.874c1.836 2.396.69 6.047-1.602 7.988 0 0-4.312 3.011-7.606-.48l-24.574-28.3a7.38 7.38 0 0 1 1.01-10.752"/><path fill="#b72c27" d="M57.305 66.436c-2.805-4.985-5.17-10.073-1.467-13.188 0 0 4.897-5.576 14.066 4.17l19.468 19.681-17.08 14.075z"/><path fill="#bd7657" d="m66.69 81.924 15.116-12.477 2.493 2.516-15.757 13.012zM63.316 76.356l13.938-11.502 2.492 2.516-14.578 12.038z"/></g><g fill-rule="evenodd"><path fill="#c62c1b" d="M62.867 103.842 64.6 113.98l-24.117 8.723-22.922.303 2.405-17.07-.257-5.543.176-7.27L8.712 62.139c2.805-5.95 8.119-8.435 15.78-12.261l11.39-4.346.208 3.882c.313 2.005 3.639 8.308 5.683 8.308 2.524.024 6.628-6.918 6.748-9.442l.128-2.748 10.203 4.354c6.324 3.29 10.611 5.79 10.611 11.079L62.58 86.828l-1.443 9.586z"/><path fill="#e1d2a2" d="M65.689 75.126H13.393l-1.563-4.345h55.02zM63.733 82.499h-47.68l-1.57-4.353h50.404z"/><path fill="#b72c27" d="m19.965 105.943-.257-5.551 14.427 5.583zM64.574 113.979l-24.116 8.723 22.41-18.844zM52.056 100.983l7.597-7.413 2.79-5.815-1.307 8.659z"/></g><g fill-rule="evenodd"><path fill="#966a57" d="m59.998 24.707-1.603 2.7c-.93 1.582-2.74 2.26-4.007 1.51-.537-.416-.617-1.366-.08-3.195l1.114-3.747a2.86 2.86 0 0 1 1.662-1.653 2.87 2.87 0 0 1 2.345.144c1.266.75 1.53 2.7.569 4.241"/><path fill="#9bd2dd" d="M56.624 29.867v-3.802h1.082v3.802z"/></g><path fill="#b47d67" fill-rule="evenodd" d="M43.752 43.239h-2.588c-3.022 0-10.708-5.144-11.854-12.884l-2.148-13.94c0-7.084 7.966-12.883 15.084-12.883h.432c7.11 0 15.084 5.799 15.084 12.884l-2.156 13.939c-1.419 7.34-8.32 12.884-11.854 12.884"/><path fill="#825c4a" fill-rule="evenodd" d="M30.554 24.436a1 1 0 1 1 2 0 1 1 0 0 1-2 0"/><path fill="none" stroke="#6e4e41" stroke-linecap="round" stroke-linejoin="round" stroke-width=".8" d="m44.08 31.233-1.145.56a2.15 2.15 0 0 1-1.876 0l-1.146-.56"/><g fill-rule="evenodd" data-paper-data="{&quot;origPos&quot;:null}"><path fill="#966a57" d="M46.982 34.716c-.352 1.574-2.34 3.243-4.736 3.243s-4.377-1.598-4.737-3.195c-.064-.256.112-.503.593-.503 2.713.713 5.566.713 8.28 0 .368 0 .656.24.6.455"/><path fill="#dbdbdb" d="M37.653 34.492a.65.65 0 0 1 .457-.128c2.715.703 5.564.703 8.28 0a.7.7 0 0 1 .456.152c-.489.943-2.356 1.837-4.6 1.837-2.253 0-4.112-.902-4.593-1.86"/><path fill="none" stroke="#6e4e41" stroke-linecap="round" stroke-linejoin="round" stroke-width=".8" d="M46.974 34.764c-.352 1.597-2.332 3.195-4.728 3.243s-4.385-1.654-4.745-3.195a.6.6 0 0 1 .176-.376.52.52 0 0 1 .425-.127c1.344.414 2.737.648 4.143.695a15.7 15.7 0 0 0 4.128-.711c.377-.032.665.207.601.47"/></g><path fill="#b47d67" fill-rule="evenodd" d="M60.31 239.475a4.16 4.16 0 0 1-1.422 3.161 4.18 4.18 0 0 1-3.33.993h-.056a4.17 4.17 0 0 1-3.575-3.85l3.495-65.644c.248-3.195 4.72-5.312 7.83-4.904 3.11.407 6.78 3.474 6.316 6.566z"/><path fill="#535f6a" d="m64.599 225.984-.666 2.923c.57 2.077-1.603 1.83-1.603 1.83l-12.695-.64c-1.034-.367-1.507-4.097-1.507-4.097-.48-2.596 1.515-1.622 2.317-1.134l1.747-49.788c.52-4.138 3.222-10.448 13.529-9.498 5.466 1.566 6.828 4.8 7.461 10.951l-10.154 47.352c1.33.344 1.57 2.1 1.57 2.1m-9.225-39.42 1.73.68-.945.303 4.136.543-2.91.894 2.228.12-3.382 1.31 4.24-.63 1.771-.057.986-.607 1.547-.08 1.603-.695-1.603-.215.713-.647-.697-.32 1.603-1.142-8.464.471z"/><path fill="#354650" fill-rule="evenodd" d="M50.493 224.89v-.432a21.5 21.5 0 0 1 3.494.032 7.87 7.87 0 0 0 4.472-.567s2.405-2.26 4.81-1.094l-.241 1.054a2.65 2.65 0 0 0-1.884.264 13.8 13.8 0 0 1-4.44 1.342s-1.691-.216-5.843-.408a3 3 0 0 1-.368-.191"/><g fill-rule="evenodd"><path fill="#f2f3ca" d="M49.731 247.743c-.32-.304-.433-.72-.433-1.67 0 0 1.9-9.697 1.884-10.943a6.95 6.95 0 0 0 5.426.16c.497-.16.665.687.665.687 1.523.471 11.165 9.929 12.126 12.077a2.52 2.52 0 0 1 1.13 1.166c4.008.376 7.919 2.597 7.582 4.793v.799c.048.311-1.026 1.845-2.404 2.356-.753.28-8.76 1.39-11.397-1.31 0 0-1.883-2.196-3.342-2.803-.657-.272-9.818-4.506-10.347-4.721a3.5 3.5 0 0 1-.914-.543z"/><path fill="#7faaa5" d="M67.54 255.683c3.548.852 7.278.533 10.627-.911-.352 2.045-3.855 3.443-6.315 3.443-2.918 0-8.488.639-10.331-3.85-.273-.655-10.315-5.824-10.844-6.047-1.05-.511-1.555-.791-1.355-2.22l.37-2.397 13.48 8.171c.36 3.307 3.582 3.65 4.368 3.81"/><path fill="#c0dec8" d="m66.602 248.557-9.329-12.58c1.13-1.965 2.805-3.34 4.552-2.229 1.323.847.24 3.914.24 3.914 2.525 2.892 4.28 5.855 7.334 10.384z"/><path fill="none" stroke="#00bcbd" stroke-linecap="round" stroke-linejoin="round" stroke-width=".576" d="m64.005 245.059 1.33-3.115-4.792-1.558 1.523-2.716-3.463-.032 5.034 1.957-1.41 3.06 4.952 2.06-.577 3.842 2.797-.503z"/><path fill="#00bcbd" d="m60.399 246.409-10.34-4.69.858-4.632 10.436 8.092 4.624 7.045z"/></g><g fill-rule="evenodd"><path fill="#b47d67" d="m35.433 180.326-4.336 65.5a4.156 4.156 0 0 1-4.007 3.363h-.056a4.17 4.17 0 0 1-3.175-1.415 4.14 4.14 0 0 1-.993-3.322l-1.603-64.358c-.056-3.131 3.983-5.687 7.117-5.687 3.214 0 7.285 2.684 7.053 5.919"/><path fill="#535f6a" d="M36.026 227.909s-.962 3.642-2.036 3.866a20.4 20.4 0 0 1-11.845-.391l-1.603-.56s-1.435-.095-.561-2.084l.296-4.066s.273-.407 1.283-.144l-4.457-48.725c.024-4.21 4.873-10.017 9.362-10.017 8.48-1.015 12.174 6.973 12.174 11.183l-4.633 47.927c.434-.09.881-.09 1.315 0 0 0 1.69-.088.705 3.011"/><path fill="#354650" d="M21.568 224.714c-.049-.447-.049-.751-.049-.751s5.314 2.38 8.08.895c0 0 2.652-1.718 4.624-1.718l-.185 1.91a58 58 0 0 0-6.411 1.461c-1.41.56-3.895-.735-3.895-.735a7.7 7.7 0 0 0-2.164-1.062"/><path fill="#f2f3ca" d="M32.86 250.1a4 4 0 0 1-.881.558 7.7 7.7 0 0 0-2.028 1.198 13 13 0 0 0-1.651 1.798c-2.308 2.708-1.29 4.56-11.421 6.39 0 0-5.498-.208-6.244-.487a2.59 2.59 0 0 1-1.602-2.397v-1.525c.809-1.798 2.893-5.113 4.688-6.08 1.427-3.562 5.891-10.447 8.16-13.578 8.302-.847 3.894 3.794 10.98.75-.017 1.247.464 11.687.464 11.687.008.95-.112 1.374-.425 1.67z"/><path fill="#7faaa5" d="m26.32 250.658 6.869-5.775.136 3.563c0 1.597-.296 1.709-1.346 2.22a7.6 7.6 0 0 0-2.028 1.206 13 13 0 0 0-1.651 1.79c-2.308 2.692-1.25 4.92-11.389 6.75-2.3.047-8.488.519-7.878-3.244 3.494 3.61 11.58.623 14.971-.695.73-.28 2.364-3.794 2.316-5.815"/><path fill="#c0dec8" d="M14.747 247.447c.97-2.62 5.538-9.122 7.141-11.518 2.34-.12 5.05-.208 6.829 1.693l-6.86 10.089z"/><path fill="none" stroke="#00bcbd" stroke-linecap="round" stroke-linejoin="round" stroke-width=".664" d="m14.747 247.447 7.11.264-5.547-3.38 9.545-2.507-6.275-2.484 8.72-1.119-7.406-.83 6.244 2.548-8.913 1.397 5.86 3.1z"/><path fill="#00bcbd" d="m22.233 253.885 2.372-6.67 8.311-9.17.209 5.185-7.39 4.904z"/></g><path fill="#231607" fill-rule="evenodd" d="M39.376 19.54a.61.61 0 0 1-.6.598h-6.244a.6.6 0 1 1 0-1.198l6.275-.28c.329 0 .57.552.57.88M52.697 18.74a.6.6 0 0 1-.601.6l-6.236.798a.61.61 0 0 1-.601-.599c0-.327.232-.879.561-.879l6.276-.519a.6.6 0 0 1 .6.6" data-paper-data="{&quot;origPos&quot;:null}"/><g fill-rule="evenodd" data-paper-data="{&quot;origPos&quot;:null}"><path fill="#fff" d="M38.78 21.712c.076.09.11.21.091.327a3.2 3.2 0 0 1-3.153 2.622 3.2 3.2 0 0 1-3.154-2.622.398.398 0 0 1 .4-.471h5.507a.41.41 0 0 1 .308.144"/><path fill="#4c392b" d="M33.958 22.535c-.002-.344.098-.68.289-.967h2.997c.186.277.289.601.297.935 0 .983-.8 1.78-1.787 1.78a1.784 1.784 0 0 1-1.796-1.748"/></g><g fill-rule="evenodd" data-paper-data="{&quot;origPos&quot;:null}"><path fill="#fff" d="M52.018 21.624c.076.091.107.211.086.327a3.2 3.2 0 0 1-3.15 2.6 3.2 3.2 0 0 1-3.15-2.6.398.398 0 0 1 .393-.47h5.514c.119 0 .23.052.307.143"/><path fill="#4c392b" d="M47.858 23.714a1.78 1.78 0 0 1-.235-2.234h3.006c.36.548.388 1.248.075 1.824a1.79 1.79 0 0 1-1.574.932 1.8 1.8 0 0 1-1.272-.522"/></g><g fill-rule="evenodd"><path fill="#b47d67" d="M20.526 71.556 18.209 109.8c-.432 4.777-5.69 5.049-5.69 5.049-2.998-.072-6.203-2.253-6.203-5.248l.729-38.51c.155-3.811 3.041-6.958 6.836-7.452 4.497.128 6.997 3.826 6.645 7.916"/><path fill="#b72c27" d="M21.888 96.813 0 93.346l6.716-26.815c2.942-11.63 9.987-10.711 9.987-10.711 4.68 2.228 5.33 9.481 5.61 13.443z"/><path fill="#bd7657" d="m21.96 89.568-20.205-3.21.858-3.436 19.38 3.084zM22.024 83.066 3.318 80.095l.866-3.435 17.872 2.844z"/></g><g fill="#b47d67" fill-rule="evenodd"><path d="m81.477 88.474 14.427-31.368a3.21 3.21 0 0 1 4.007-1.742 2.74 2.74 0 0 1 1.82 2.948L92.818 92.02a6.15 6.15 0 0 1-7.157 3.683c-2.91-.783-4.865-4.314-4.184-7.23M101.073 52.273l4.008-9.457a1.09 1.09 0 0 1 1.426-.592c.555.229.82.86.594 1.414l-3.335 9.586c-.264.519-1.314.743-1.867.519a1.28 1.28 0 0 1-.826-1.47"/><path d="m98.805 49.877 3.751-9.785a1.203 1.203 0 0 1 2.211-.074c.133.287.145.616.033.912l-3.141 10.01c-.225.614-1.42.702-2.036.47a1.253 1.253 0 0 1-.818-1.533M101.995 56.315l4.961-8.946a.89.89 0 0 1 1.186-.44c.45.21.646.74.441 1.19l-4.32 9.322a.907.907 0 0 1-1.194.44c-.48-.208-1.282-1.119-1.074-1.566M96.425 49.214l3.206-9.05a.99.99 0 0 1 1.258-.631c.523.17.81.731.641 1.254l-2.773 9.21c-.168.527-1.146.647-1.667.479a1.014 1.014 0 0 1-.665-1.262M92.21 45.7c.745-.28 2.155.902 2.508 1.9l3.206 9.066a2.25 2.25 0 0 1-2.188 1.702c-.481-.184-1.876-.432-2.405-2.812l-.753-6.87a3.24 3.24 0 0 0-.61-2.5c-.136-.151.04-.415.241-.487"/><path d="M97.114 60.077c-2.717-1.014-4.568-4.225-3.558-6.933l.456-1.222c1.027-2.714 4.058-4.094 6.789-3.092l.938.352a5.26 5.26 0 0 1 3.101 6.734l-.456 1.23c-.994 2.763-4.545 3.938-7.27 2.931"/></g><g fill="#b47d67" fill-rule="evenodd"><path d="M14.464 135.91a3.26 3.26 0 0 1 2.752 2.464c1.074 3.339-1.187 8.131-1.187 8.131a5.25 5.25 0 0 1-1.763 2.165c.125 1.229.147 2.466.064 3.698a26 26 0 0 1 3.495 2.325c2.452.854 1.603 2.396 1.603 2.396-6.204-1.581-7.406-2.812-7.406-2.812-5.185-6.725-3.494-9.785-3.494-9.785l2.644-6.901a3.265 3.265 0 0 1 3.292-1.681"/><path d="M18.434 151.857c-.802.2-2.18-1.246-2.405-2.396l-2.548-11.271a2.405 2.405 0 0 1 2.548-1.51 6.3 6.3 0 0 1 2.469 4.521l-.064 7.421a3.49 3.49 0 0 0 .312 2.748c.089.184-.136.44-.312.487"/><path d="M11.918 105.096a6.144 6.144 0 0 1 6.412 4.85l-1.427 28.571a2.735 2.735 0 0 1-2.3 2.62 3.206 3.206 0 0 1-3.679-2.396l-4.384-27.23c-.128-2.996 2.372-6.143 5.378-6.415"/></g><path fill="#553c2e" fill-rule="evenodd" d="m58.05 15.29-.707 5.128h-1.519S56.91 6.752 41.244 7.74c0 0-13.082 1.31-12.308 12.723.01.15-1.335.291-1.335.291s-1.811-7.005 1.292-11.21c4.558-6.937 14.024-7.147 14.024-7.147 7.132 0 15.133 5.807 15.133 12.892" data-paper-data="{&quot;origPos&quot;:null}"/><path fill="#231607" fill-rule="evenodd" d="M31.203 13.3c-2.26 2.812-2.605 12.477 0 19.227s-3.393 8.547-3.393 8.547c-4.986 1.03-3.627-6.39-3.627-6.39a3.75 3.75 0 0 1-2.304-2.206 3.72 3.72 0 0 1 .238-3.17c1.214-2.412 4.824-5.176 4.358-8.859C25.092 9.49 28.71 6.455 28.71 6.455c3.064-3.922 6.345-5.656 9.4-6.223 6.868-1.198 8.267 2.628 8.267 2.628.563 9.777-12.914 7.629-15.174 10.44" data-paper-data="{&quot;origPos&quot;:null}"/></g></svg>