<svg xmlns="http://www.w3.org/2000/svg" width="99.9" height="253.9"><g stroke-miterlimit="10" data-paper-data="{&quot;isPaintingLayer&quot;:true}" style="mix-blend-mode:normal"><path fill="#593a1d" d="M17.1 10c0-5.5 4.5-10 10-10s10 4.5 10 10-4.5 10-10 10c-5.5.1-10-4.4-10-10" data-paper-data="{&quot;origPos&quot;:null}"/><path fill="#f0f0f0" d="m56.8 253.9.8-9.7 13.7.6 8.7 2.3 6.9 6.8z" data-paper-data="{&quot;origPos&quot;:null}"/><path fill="#9ac8e6" d="M56.4 245.6 52 195.2l-7.6-62h36l-1.2 62.3-1.3 50.1z" data-paper-data="{&quot;origPos&quot;:null}"/><path fill="#f0f0f0" d="m15.6 253.9.8-9.7 13.7.6 8.7 2.3 6.9 6.8z" data-paper-data="{&quot;origPos&quot;:null}"/><path fill="#9ac8e6" d="m16.4 245.6.6-52.3.4-60.1h34.8L42.9 195l-6.7 50.6z" data-paper-data="{&quot;origPos&quot;:null}"/><g data-paper-data="{&quot;origPos&quot;:null}"><path fill="#edbb8c" d="M86 112.4c-3.4.8-9.3-.4-9.3-.4s-9.8-46.3-2.3-48.7c13.6-4.7 17.2 45.3 17.2 45.3s-2.1 3.1-5.6 3.8"/><path d="M69.8 99.4S59.4 63.5 71.9 60c11-3.1 19.5 30.7 19.5 30.7z"/></g><g fill="#edbb8c" data-paper-data="{&quot;origPos&quot;:null}"><path d="m95.8 135.6-8.8 3.3-10.2-26.3s3.3-4.6 7.2-4.7c2.9-.1 7.9.2 7.9.2z"/><path d="M92.7 157.9c-1.8 0-.8-8.5-2.6-8.9-1.3-.3.2 5.3-.3 6.1s-3.1-.9-3.1-.9-2.3-5.1-2.7-7.8c-.9-5.9 4.7-10.9 4.7-10.9l7 .4s4.2 6.5 4.2 10.7c0 3.8-3.1 8.8-3.1 8.8s-2.2 2.5-4.1 2.5" data-paper-data="{&quot;origPos&quot;:null}"/></g><path fill="#242424" d="m15.2 138.5.9-75.6s16.4-8.6 31.8-8.8 24.8 4.2 27.7 5.4c2.7 1.2 6.8 81.1 6.8 81.1s-19.9 2.8-33.7 2.7c-14-.1-33.5-4.8-33.5-4.8" data-paper-data="{&quot;origPos&quot;:null}"/><g data-paper-data="{&quot;origPos&quot;:null}"><path fill="#edbb8c" d="M7.8 115.3c-2.9-.3-7.6-2.4-7.6-2.4S5.8 62.2 22.8 63c13.4.1-7.5 51.3-7.5 51.3s-4.6 1.3-7.5 1"/><path d="M1.7 88.7s11.2-28.5 19.5-27.5c19.8 2.4 2.7 37.1 2.7 37.1z"/></g><path fill="#593a1d" d="M68.5 24.8c0 13.7-10.4 24.8-23.2 24.8S22.1 38.5 22.1 24.8 32.5 0 45.3 0c12.9 0 23.2 11.1 23.2 24.8" data-paper-data="{&quot;origPos&quot;:null}"/><g fill="#edbb8c" data-paper-data="{&quot;origPos&quot;:null}"><path d="M34.4 33.2c.8 2.4.3 4.7-1 5.1-1.4.5-3.2-1-4-3.4s-.3-4.7 1-5.1c1.4-.5 3.2 1.1 4 3.4M39 44.3l15.2 3.4-.1 9.1s4.9.9 4.8 3.7c-.1 4.5-18.9 6.9-22.8 0-1.5-3.4 2-4.6 2-4.6z" data-paper-data="{&quot;origPos&quot;:null}"/><path d="M65.9 31c0 12.8-7.9 19.6-14.7 19.9-11.8.2-19.4-9.5-19.4-22.3S34 6.2 49 5.5C60.4 4.9 67.898 17 65.898 30.7z" data-paper-data="{&quot;origPos&quot;:null}"/></g><path d="M54.3 43.7c0 .7-2 2.2-3.7 2.2s-3.5-1.9-3.5-2.7c0-.7 2.2 0 4 0s3.2-.2 3.2.5" data-paper-data="{&quot;origPos&quot;:null}"/><g data-paper-data="{&quot;origPos&quot;:null}"><path fill="none" stroke="#000" stroke-linecap="round" stroke-width="1.46" d="M55.6 24.4s2.3-.8 4-.8c1.5.1 3.2.5 3.2.5M55.6 28.5s.5-1.3 2.9-1.5c2.3-.2 4.5.7 4.5.7"/><path d="M60.5 31.5c-1.2 0-2.1-1-2.1-2.2s.9-2.2 2.1-2.2 2.1 1 2.1 2.2-.9 2.2-2.1 2.2"/></g><g data-paper-data="{&quot;origPos&quot;:null}"><path fill="none" stroke="#000" stroke-linecap="round" stroke-width="1.46" d="M40.2 24.5s2.9-.8 4.4-.8c1.7-.1 3.7.8 3.7.8M40.1 28.8s2.2-1.9 4.5-1.7c2.5.2 2.9 1.5 2.9 1.5"/><path d="M43.4 29.6c0-1.2.9-2.2 2.1-2.2s2.1 1 2.1 2.2-.9 2.2-2.1 2.2c-1.1 0-2.1-1-2.1-2.2"/></g><g fill="#edbb8c" data-paper-data="{&quot;origPos&quot;:null}"><path d="M3.1 139.9 0 112s4.7-1 7.5-1.4c3.8-.5 8.1 3.6 8.1 3.6l-3.2 27.7z"/><path d="M6.3 158.4s-4.2-4.6-4.9-8.5c-.8-4.1 2.5-11 2.5-11l7.4-1s6.9 4.5 7 10.4c.1 2.6-1.4 8-1.4 8s-2.5 1.9-3.2 1.2-.1-6.4-1.4-6c-1.8.5.8 8.9-1.1 9-2 .2-4.9-2.1-4.9-2.1"/></g><path fill="none" stroke="#000" stroke-linecap="round" stroke-width="1.46" d="M51.6 30.6s1.34.438 1.804 1.015c.588.731 2.17 2.83 1.396 4.185 0 .7-3.5 2.3-3.5 2.3" data-paper-data="{&quot;origPos&quot;:null}"/><g fill="#593a1d" data-paper-data="{&quot;origPos&quot;:null}"><path d="M31.2 7.5c5.4-4 16.1-7.2 19.2-3s-5.8 17.8-11.1 21.8c-3 2.2-.9 19.7-4.1 21.5-3 1.8-2.2-15.622-4.3-18.422 0 0-1.966 2.036-2.35 1.12C24.508 26.755 25.9 11.6 31.2 7.5" data-paper-data="{&quot;origPos&quot;:null}"/><path d="M66.6 45.8c-3.1 4.2-2-24-5.7-29.6-3.9-5.8-13-7.8-9.9-12s9.9.4 15.2 4.4 3.5 33 .4 37.2" data-paper-data="{&quot;origPos&quot;:null}"/></g></g></svg>