<svg xmlns="http://www.w3.org/2000/svg" width="111.663" height="302.817" viewBox="0.157 0.045 111.663 302.817"><path fill="#fbd6cc" d="M8.644 188.737c.217-1.834.425-3.403.425-3.403s-.224 1.585-.425 3.403"/><path fill="#ffebe6" d="M21.876 110.661c3.46-8.446 9.057-11.112 11.923-11.944L34 95.443a16.79 16.79 0 0 0-11.161 7.3c-6.816 10.127-9.699 35.024-10.903 40.427-1.205 5.404-5.131 32.998-6.624 36.296-1.606 3.531-2.819 5.188-3.694 6.925a1.533 1.533 0 0 0 .442 2.145 48.5 48.5 0 0 0 4.665-8.245c2.971-7.853 10.333-57.887 15.151-69.63"/><path fill="#fbd6cc" d="M21.876 110.661c-4.818 11.743-12.188 61.777-15.151 69.646a48.5 48.5 0 0 1-4.665 8.245 1.55 1.55 0 0 0 1.879-.232 9 9 0 0 0 2.039-3.506s-.594 6.004-.666 7.605c-.097 2.305 2.778 2.265 2.914.36.081-1.129.249-2.65.41-4.002.2-1.818.425-3.403.425-3.403s-.208 1.601-.425 3.403c-.185 1.601-.354 3.402-.354 4.459 0 2.545 2.787 2.617 3.212.248.04-1.601.562-7.87.562-7.87s-.144 5.004-.546 7.806a.2.2 0 0 1 0 .072c0 2.017 2.786 2.401 3.051-.337.338-3.474.338-7.653.338-7.653s1.276 3.267 1.654 4.443c.586 1.81 3.324 1.377 2.89-1.16-.57-3.331-2.409-7.141-2.842-9.271-.434-2.129 6.287-25.176 8.567-33.094 1.734-6.044 7.29-24.216 7.29-24.216l1.389-23.439c-2.906.784-8.502 3.45-11.971 11.896"/><path fill="#fbd6cc" d="M12.032 185.566s-.522 6.269-.562 7.87a.2.2 0 0 0 0-.072c.418-2.794.562-7.798.562-7.798"/><path fill="none" stroke="#4181ce" stroke-linecap="round" stroke-linejoin="round" stroke-width="1.2" d="M34.008 95.451a16.79 16.79 0 0 0-11.161 7.3c-6.816 10.127-9.699 35.024-10.903 40.427-1.205 5.404-5.131 32.998-6.624 36.296-1.606 3.531-2.819 5.188-3.694 6.925-.955 1.913 1.148 3.042 2.321 1.913a9 9 0 0 0 2.039-3.506s-.594 6.004-.666 7.605c-.097 2.305 2.778 2.265 2.914.36.193-2.634.803-7.429.803-7.429s-.803 5.604-.803 7.861c0 2.57 2.851 2.626 3.212.177.401-2.802.546-7.806.546-7.806s-.522 6.269-.562 7.87c-.048 2.025 2.786 2.401 3.051-.329.337-3.474.337-7.653.337-7.653s1.277 3.267 1.654 4.443c.586 1.809 3.324 1.377 2.891-1.16-.57-3.331-2.409-7.141-2.843-9.271-.433-2.129 6.287-25.176 8.568-33.094 1.734-6.044 7.29-24.216 7.29-24.216"/><path fill="#fbd6cc" d="M103.361 188.6c-.217-1.841-.426-3.41-.426-3.41s.225 1.585.426 3.41"/><path fill="#ffebe6" d="M90.097 110.517c-3.469-8.446-9.065-11.112-11.924-11.944l-.2-3.275a16.8 16.8 0 0 1 11.16 7.309c6.817 10.119 9.699 35.024 10.904 40.427 1.204 5.404 5.131 32.998 6.624 36.288 1.606 3.539 2.818 5.188 3.693 6.933a1.524 1.524 0 0 1-.441 2.137 48.7 48.7 0 0 1-4.665-8.237c-2.939-7.853-10.334-57.895-15.151-69.638"/><path fill="#fbd6cc" d="M90.097 110.517c4.817 11.743 12.188 61.777 15.151 69.646a48.7 48.7 0 0 0 4.665 8.237 1.536 1.536 0 0 1-1.879-.232 8.9 8.9 0 0 1-2.039-3.498s.594 6.004.666 7.605c.096 2.297-2.778 2.265-2.915.36-.08-1.129-.249-2.658-.409-4.003a123 123 0 0 0-.426-3.41s.209 1.601.426 3.41c.185 1.602.353 3.395.353 4.459 0 2.538-2.786 2.618-3.212.241 0-1.601-.562-7.87-.562-7.87s.145 4.996.546 7.798a.3.3 0 0 0 0 .072c0 2.017-2.786 2.401-3.051-.337-.337-3.466-.337-7.653-.337-7.653s-1.277 3.274-1.654 4.443c-.586 1.809-3.324 1.377-2.89-1.161.57-3.33 2.408-7.132 2.842-9.27.433-2.137-6.287-25.168-8.567-33.086-1.735-6.044-7.291-24.216-7.291-24.216l-1.389-23.447c2.931.8 8.527 3.466 11.972 11.912"/><path fill="#fbd6cc" d="M99.973 185.43s.522 6.268.562 7.87a.2.2 0 0 1 0-.072c-.418-2.802-.562-7.798-.562-7.798"/><path fill="none" stroke="#4181ce" stroke-linecap="round" stroke-linejoin="round" stroke-width="1.2" d="M77.997 95.298a16.8 16.8 0 0 1 11.16 7.309c6.817 10.119 9.7 35.024 10.904 40.427 1.204 5.404 5.131 32.998 6.624 36.288 1.606 3.539 2.818 5.188 3.693 6.933.956 1.905-1.148 3.042-2.32 1.905a8.9 8.9 0 0 1-2.039-3.498s.594 6.004.666 7.605c.096 2.297-2.778 2.265-2.915.36-.192-2.642-.802-7.437-.802-7.437s.802 5.604.802 7.869c0 2.57-2.85 2.618-3.211.169-.402-2.802-.546-7.798-.546-7.798s.522 6.268.562 7.87c.048 2.017-2.786 2.401-3.051-.337-.338-3.466-.338-7.653-.338-7.653s-1.276 3.274-1.654 4.443c-.586 1.809-3.324 1.377-2.89-1.161.57-3.33 2.409-7.132 2.842-9.27s-6.287-25.168-8.567-33.086c-1.734-6.044-7.29-24.216-7.29-24.216"/><path fill="#b8d0ff" stroke="#4181ce" stroke-linecap="round" stroke-linejoin="round" stroke-width="1.2" d="M33.496 280.115a46.3 46.3 0 0 1-1.863 13.152c-1.268 4.003-.433 7.309 4.818 7.533 2.208.096 7.09-.256 11.353-.224 3.868.142 7.725.497 11.554 1.065 5.002.528 3.075-8.998-2.915-11.448-6.776-2.77-12.357.697-12.654-10.078z"/><path fill="#b8d0ff" d="M32.356 269.492v10.975c0 2.041 2.288 3.73 5.291 4.059v-15.034zM42.465 269.492v14.281c1.557-.752 2.569-1.945 2.569-3.306v-10.975z"/><path fill="#d9e8ff" d="M37.647 269.492v15.034c.345 0 .691.056 1.052.056h.458v-15.09zM42.465 269.492h-1.606v14.833a7.8 7.8 0 0 0 1.606-.552z"/><path fill="#fff" d="M39.157 269.492v15.066a9 9 0 0 0 1.71-.233v-14.833z"/><path fill="#b8d0ff" d="M32.356 269.492v10.975c0 2.041 2.288 3.73 5.291 4.059v-15.034zM42.465 269.492v14.281c1.557-.752 2.569-1.945 2.569-3.306v-10.975z"/><path fill="none" stroke="#4181ce" stroke-linecap="round" stroke-linejoin="round" stroke-width="1.2" d="M42.465 269.492H32.356v10.975c0 2.041 2.288 3.73 5.291 4.059.345 0 .691.056 1.052.056h.458a9 9 0 0 0 1.71-.233 7.8 7.8 0 0 0 1.606-.552c1.557-.752 2.569-1.945 2.569-3.306v-10.999z"/><path fill="#4181ce" stroke="#4181ce" stroke-linecap="round" stroke-linejoin="round" stroke-width="1.2" d="M38.683 265.385c1.734 0 3.306.46 4.444 1.203s1.843 1.771 1.843 2.904-.705 2.159-1.843 2.903c-1.138.743-2.71 1.203-4.444 1.203-1.735 0-3.306-.46-4.444-1.203-1.139-.744-1.843-1.77-1.843-2.903s.704-2.16 1.843-2.904c1.138-.743 2.709-1.203 4.444-1.203"/><path fill="#fff" stroke="#4181ce" stroke-linecap="round" stroke-linejoin="round" stroke-width="1.2" d="M36.483 251.015v17.524c0 .856 1.003 1.545 2.248 1.545s2.248-.689 2.248-1.545v-17.524z"/><path fill="none" stroke="#fff" stroke-linecap="round" stroke-linejoin="round" stroke-width="1.6" d="M48.543 291.674c2.123.148 4.216.581 6.222 1.289q.273.114.53.256M95.835 294.78q.466.48.803 1.057"/><path fill="#b8d0ff" d="M40.297 234.636h.168c.225-6.54.49-13.705.803-20.813.61-14.818 1.694-29.62 2.16-35.664-4.89-2.218-10.012-3.202-13.28-4.003-2.578 8.63-2.666 24.112-2.184 35.32.482 11.207.859 15.29 1.469 22.615q.027.27.081.536c0-.328-.049-.648-.065-.985 0-.104 3.244 2.714 10.848 2.994"/><path fill="#d9e8ff" d="M40.489 234.636h2.53c.184-7.204.425-15.106.738-22.679.57-13.945 1.421-26.842 1.831-32.725a28 28 0 0 0-2.16-1.073c-.466 6.052-1.55 20.814-2.16 35.664-.289 7.108-.554 14.273-.779 20.813M45.114 234.372a18.5 18.5 0 0 0 2.698-.632c.249-6.925.53-14.41.803-21.687.49-11.864 1.02-23.031 1.349-29.859a25 25 0 0 0-2.521-1.89 2945 2945 0 0 0-1.606 34.039c-.289 6.9-.538 13.753-.723 20.029"/><path fill="#b8d0ff" d="M49.932 182.194c-.329 6.828-.859 17.995-1.349 29.859a2624 2624 0 0 0-.803 21.687 11.1 11.1 0 0 0 3.565-1.721c.072-2.122.482-6.797 1.228-16.275.924-11.648 1.606-28.443 1.606-28.443a19.3 19.3 0 0 0-4.247-5.107"/><path fill="#fff" d="M43.019 234.604a28 28 0 0 0 2.063-.232c.217-6.276.466-13.129.747-20.013a3375 3375 0 0 1 1.606-34.039 28 28 0 0 0-1.855-1.088c-.41 5.883-1.261 18.78-1.831 32.725-.305 7.573-.546 15.419-.73 22.647"/><path fill="#77a3d8" d="m40.489 234.636-.2 5.78c-.257 7.829-.458 14.314-.562 18.092a6.1 6.1 0 0 0 2.794-1.793c.08-4.003.193-9.75.353-16.403 0-1.841.088-3.754.145-5.708-.787.048-1.63.064-2.53.032"/><path fill="#89b5e0" d="M43.019 234.604a769 769 0 0 0-.145 5.708c-.16 6.653-.273 12.416-.353 16.403a.4.4 0 0 0 .088-.08 32 32 0 0 0 1.847-2.201c.104-3.819.257-8.806.441-14.562.065-1.777.121-3.611.185-5.5-.634.096-1.325.176-2.063.232"/><path fill="#4181ce" d="M40.297 234.636c-7.628-.28-10.872-3.066-10.872-3.066 0 .337 0 .657.064.985.763 13.017 3.156 20.75 5.573 24.28a4.1 4.1 0 0 0 4.641 1.673c.104-3.778.305-10.263.562-18.092l.2-5.78z"/><path fill="#77a3d8" d="M45.114 234.372c-.064 1.889-.12 3.723-.184 5.5-.185 5.724-.338 10.743-.442 14.562a27 27 0 0 0 2.762-4.532c.112-3.314.241-7.14.385-11.279.057-1.601.113-3.202.177-4.883q-1.325.417-2.698.632"/><path fill="#4181ce" d="M47.78 233.74c-.064 1.665-.121 3.298-.177 4.883-.144 4.139-.273 7.965-.385 11.279 1.887-3.874 3.573-9.478 4.127-17.883a11.1 11.1 0 0 1-3.565 1.721"/><path fill="none" stroke="#4181ce" stroke-linecap="round" stroke-linejoin="round" stroke-width="1.2" d="M49.932 182.194a25 25 0 0 0-2.489-1.89 28 28 0 0 0-1.855-1.088 35 35 0 0 0-2.16-1.073c-4.89-2.218-10.012-3.202-13.28-4.003-2.578 8.63-2.666 24.112-2.184 35.32.482 11.207.859 15.29 1.469 22.615q.027.27.081.536c0-.328-.049-.648-.065-.985 0 0 3.212 2.786 10.872 3.066h2.698c.786 0 1.429-.136 2.063-.232a18.5 18.5 0 0 0 2.698-.632 11.1 11.1 0 0 0 3.565-1.721c.072-2.122.482-6.797 1.228-16.275.924-11.648 1.606-28.443 1.606-28.443a19.3 19.3 0 0 0-4.247-5.195"/><path fill="none" stroke="#4181ce" stroke-linecap="round" stroke-linejoin="round" stroke-width="1.2" d="M47.78 233.74c-.882.278-1.784.489-2.698.632-.634.096-1.325.176-2.063.232a18 18 0 0 1-2.53 0h-.192c-7.628-.28-10.872-3.066-10.872-3.066 0 .337 0 .657.064.985.763 13.017 3.156 20.75 5.573 24.28a4.1 4.1 0 0 0 4.641 1.673 6.1 6.1 0 0 0 2.794-1.793.4.4 0 0 0 .088-.08 32 32 0 0 0 1.847-2.202 27 27 0 0 0 2.762-4.531c1.887-3.874 3.573-9.478 4.127-17.883a11 11 0 0 1-3.541 1.753"/><path fill="#b8d0ff" stroke="#4181ce" stroke-linecap="round" stroke-linejoin="round" stroke-width="1.2" d="M71.801 280.115a46.3 46.3 0 0 1-1.862 13.152c-1.269 4.003-.442 7.309 4.817 7.533 2.208.096 7.09-.256 11.345-.224 3.871.142 7.731.497 11.563 1.065 4.994.528 3.067-8.998-2.923-11.448-6.769-2.77-12.349.697-12.654-10.078z"/><path fill="#b8d0ff" d="M70.661 269.492v10.975c0 2.009 2.208 3.674 5.131 4.042v-15.017zM80.609 269.492v14.353c1.646-.736 2.73-1.977 2.73-3.378v-10.975z"/><path fill="#d9e8ff" d="M75.792 269.492v15.017a10 10 0 0 0 1.204.073h.33v-15.09zM80.609 269.492h-1.605v14.881a7.4 7.4 0 0 0 1.605-.512z"/><path fill="#fff" d="M77.326 269.492v15.074a9 9 0 0 0 1.71-.209v-14.865z"/><path fill="none" stroke="#4181ce" stroke-linecap="round" stroke-linejoin="round" stroke-width="1.2" d="M80.609 269.492h-9.948v10.975c0 2.009 2.208 3.674 5.131 4.042a10 10 0 0 0 1.204.073h.33a9 9 0 0 0 1.71-.209 7.4 7.4 0 0 0 1.606-.512c1.646-.736 2.73-1.977 2.73-3.378v-10.991z"/><path fill="#4181ce" stroke="#4181ce" stroke-linecap="round" stroke-linejoin="round" stroke-width="1.2" d="M77.004 265.385c1.735 0 3.307.46 4.445 1.203s1.842 1.771 1.842 2.904-.704 2.159-1.842 2.903c-1.138.743-2.71 1.203-4.445 1.203-1.734 0-3.306-.46-4.444-1.203s-1.842-1.77-1.842-2.903.704-2.16 1.842-2.904 2.71-1.203 4.444-1.203"/><path fill="#fff" stroke="#4181ce" stroke-linecap="round" stroke-linejoin="round" stroke-width="1.2" d="M74.804 251.015v17.524c0 .856 1.012 1.545 2.249 1.545 1.236 0 2.256-.689 2.256-1.545v-17.524z"/><path fill="none" stroke="#fff" stroke-linecap="round" stroke-linejoin="round" stroke-width="1.6" d="M87.209 291.674a23.6 23.6 0 0 1 6.223 1.289q.272.114.53.256"/><path fill="#d9e8ff" d="M77.165 234.452c.739-.08 1.421-.192 2.055-.312.217-9.526.33-20.157 0-29.556-.481-12.848-1.236-23.775-1.605-28.459a70 70 0 0 0-2.489.801c.361 5.123 1.164 16.995 1.79 30.124.426 8.814.393 18.556.249 27.402"/><path fill="#fff" d="M79.22 234.14q1.189-.24 2.144-.528c.153-9.791.225-20.95-.152-30.885-.49-12.888-1.357-22.999-1.743-27.122-.602.16-1.22.336-1.854.52.345 4.684 1.1 15.611 1.605 28.459.33 9.399.217 20.03 0 29.556"/><path fill="#b8d0ff" d="M74.804 234.636c.803 0 1.606-.096 2.361-.184.144-8.846.177-18.588-.249-27.402a1386 1386 0 0 0-1.79-30.124c-5.372 1.873-11.041 4.915-14.22 10.551 0 0 .714 16.619 1.606 28.267.746 9.478 1.156 14.153 1.236 16.275.032 0 3.429 2.898 11.056 2.617"/><path fill="#d9e8ff" d="M81.364 233.612a19 19 0 0 0 2.128-.801c.353-9.894.634-21.238.321-31.301-.401-12.752-1.437-22.487-1.927-26.529-.803.184-1.606.384-2.409.608.386 4.123 1.253 14.234 1.743 27.122.369 9.951.297 21.11.144 30.901"/><path fill="#b8d0ff" d="M84.969 174.26c-.899.224-1.943.465-3.083.737.49 4.042 1.526 13.777 1.927 26.529.313 10.063 0 21.407-.321 31.301a9.6 9.6 0 0 0 2.176-1.257c0 .337-.04.657-.056.993 0-.184.056-.352.072-.544.61-7.325.988-11.304 1.469-22.615.482-11.312.394-26.514-2.184-35.144"/><path fill="#89b5e0" d="M79.22 234.14c-.048 1.889-.088 3.739-.136 5.524-.217 7.909-.45 14.593-.45 18.476a4.25 4.25 0 0 0 1.405-1.305 16 16 0 0 0 .988-1.705c0-3.723.128-9.55.257-16.403 0-1.657.056-3.362.08-5.115q-.947.328-2.144.528"/><path fill="#77a3d8" d="M77.165 234.452c0 1.954-.072 3.867-.112 5.708-.177 7.821-.394 14.49-.386 18.524a3.9 3.9 0 0 0 1.967-.544c0-3.883.233-10.567.45-18.476.048-1.785.088-3.635.136-5.524-.634.12-1.316.232-2.055.312"/><path fill="#4181ce" d="M83.492 232.827c-.056 1.497-.104 2.962-.161 4.387-.208 5.164-.409 9.759-.522 13.337 1.293-4.235 2.337-10.159 2.803-17.988 0-.336.04-.656.056-.993a9.6 9.6 0 0 1-2.176 1.257M74.804 234.636c-7.627.281-11.024-2.617-11.024-2.617 1.012 15.418 5.821 21.414 8.728 24.616a5.63 5.63 0 0 0 4.159 2.049c0-4.002.209-10.703.386-18.524 0-1.841.08-3.754.112-5.708-.707.088-1.51.152-2.361.184"/><path fill="#77a3d8" d="M81.364 233.612c0 1.753-.056 3.458-.08 5.115-.129 6.853-.265 12.68-.257 16.403a29 29 0 0 0 1.782-4.579c.113-3.578.314-8.173.522-13.337.057-1.425.105-2.89.161-4.387q-1.04.455-2.128.785"/><path fill="none" stroke="#4181ce" stroke-linecap="round" stroke-linejoin="round" stroke-width="1.2" d="M84.969 174.26c-.899.224-1.943.465-3.083.737q-1.204.274-2.409.608c-.602.16-1.22.336-1.854.52a70 70 0 0 0-2.489.801c-5.372 1.873-11.041 4.915-14.22 10.551 0 0 .714 16.619 1.606 28.267.746 9.478 1.156 14.153 1.236 16.275 0 0 3.397 2.898 11.024 2.617.803 0 1.606-.096 2.361-.184a29 29 0 0 0 2.055-.312q1.189-.24 2.144-.528a19 19 0 0 0 2.128-.801 9.6 9.6 0 0 0 2.176-1.257c0 .337-.04.657-.056.993 0-.184.056-.352.072-.544.61-7.325.987-11.304 1.469-22.615.482-11.312.418-26.498-2.16-35.128"/><path fill="none" stroke="#4181ce" stroke-linecap="round" stroke-linejoin="round" stroke-width="1.2" d="M83.492 232.827q-1.04.464-2.128.801-.947.288-2.144.528c-.634.12-1.316.232-2.055.312s-1.518.152-2.361.184c-7.627.281-11.024-2.617-11.024-2.617 1.012 15.418 5.821 21.414 8.728 24.616a5.63 5.63 0 0 0 4.159 2.049 3.9 3.9 0 0 0 1.967-.544 4.25 4.25 0 0 0 1.405-1.305 16 16 0 0 0 .988-1.705 29 29 0 0 0 1.782-4.579c1.293-4.235 2.337-10.159 2.803-17.988 0-.336.04-.656.056-.993-.668.507-1.4.924-2.176 1.241"/><path fill="#fbd6cc" d="M63.719 95.456c-1.863-2.938-2.626-6.86-2.931-9.31h-13.32s-.402 7.605-4.416 8.406c-1.148.178-2.307.28-3.469.304.562 5.179 3.308 18.845 16.677 18.845 10.085 0 14.123-7.774 15.737-13.826-2.593-.272-6.255-1.216-8.278-4.419"/><path fill="#ffebe6" d="M69.468 94.544c-4.015-.801-4.416-8.406-4.416-8.406h-4.264c.305 2.45 1.068 6.404 2.931 9.31 2.023 3.203 5.685 4.155 8.278 4.419a33 33 0 0 0 .939-5.019 27 27 0 0 1-3.468-.304"/><path fill="none" stroke="#4181ce" stroke-linecap="round" stroke-linejoin="round" stroke-width="1.2" d="M56.26 113.693c13.36 0 16.114-13.61 16.676-18.837a28 28 0 0 1-3.468-.312c-4.015-.801-4.416-8.406-4.416-8.406H47.468s-.402 7.605-4.416 8.406c-1.148.178-2.307.28-3.469.304.562 5.179 3.308 18.845 16.677 18.845"/><path fill="#fff2bb" d="M36.235 124.324c-.112-6.405.803-21.615 1.293-29.356a32 32 0 0 0-3.525.44l-1.606 24.817s-.064 20.133-.602 29.924c-.265 4.803-1.534 14.209-1.606 23.952 1.124.216 2.409.512 3.886.896.434-14.577 2.409-36.152 2.16-50.673"/><path fill="#fff" d="M81.696 149.588c-.618-9.782-1.605-29.371-1.605-29.371l-2.176-24.913a48 48 0 0 0-4.995-.456c-.562 4.803-3.316 17.5-16.676 17.5-13.361 0-16.115-12.689-16.677-17.5-.642 0-1.341.064-2.055.12-.498 7.741-1.405 22.951-1.293 29.356.249 14.521-1.726 36.096-2.16 50.665 6.48 1.705 15.48 5.212 20.177 12.32l6.665.177c7.427-9.471 17.929-12.008 24.087-13.217-2.168-12.945-2.794-16.819-3.292-24.681"/><path fill="none" stroke="#4181ce" stroke-linecap="round" stroke-linejoin="round" stroke-width="1.2" d="M81.696 149.588c-.618-9.782-1.605-29.371-1.605-29.371l-2.176-24.913a48 48 0 0 0-4.995-.456c-.562 4.803-3.316 17.5-16.676 17.5-13.361 0-16.115-12.689-16.677-17.5-.642 0-1.341.064-2.055.12a32 32 0 0 0-3.525.44l-1.606 24.817s-.064 20.133-.602 29.924c-.265 4.803-1.534 14.209-1.606 23.952 1.124.216 2.409.512 3.886.896 6.48 1.705 15.48 5.212 20.177 12.32l6.665.177c7.427-9.471 17.929-12.008 24.087-13.217-2.095-12.953-2.794-16.827-3.292-24.689"/><path fill="#4181ce" stroke="#4181ce" stroke-linecap="round" stroke-linejoin="round" stroke-width="1.2" d="M7.953 55.356H1.747s0-19.365 15.946-37.545C32.579.864 54.9-1.938 68.855 4.266 83.709 10.871 95.351 26.081 95.351 55.5h7.62s0 10.407-9.234 19.013c-8.19 7.637-18.868 6.356-23.084 4.003H38.737s-6.046 1.881-14.195-.801C13.309 74.089 7.953 65.107 7.953 55.356"/><path fill="#fbd6cc" d="M78.988 43.428a34.1 34.1 0 0 1-10.543-4.139 44.3 44.3 0 0 1-10.237-8.805s-4.697 10.022-13.85 14.409a45 45 0 0 1-16.661 4.595s-1.052 5.244 0 13.913c.899 7.253 6.271 25.081 28.271 25.081 4.65.12 9.243-1.035 13.28-3.338a49.8 49.8 0 0 0 8.351-18.821 85.4 85.4 0 0 0 1.389-22.895"/><path fill="#ffebe6" d="M82.898 44.029a26.4 26.4 0 0 1-3.918-.585 85.4 85.4 0 0 1-1.365 22.879 49.8 49.8 0 0 1-8.367 18.821c8.367-4.947 12.1-14.458 13.473-22.415a63 63 0 0 0 .177-18.7"/><path fill="none" stroke="#4181ce" stroke-linecap="round" stroke-linejoin="round" stroke-width="1.2" d="M27.705 49.536s-1.052 5.236 0 13.905c.899 7.253 6.271 25.081 28.271 25.081 18.066 0 24.778-14.481 26.737-25.761a63.1 63.1 0 0 0 .161-18.732 33.8 33.8 0 0 1-14.453-4.74 44.3 44.3 0 0 1-10.237-8.805s-4.697 10.022-13.85 14.409a45.1 45.1 0 0 1-16.629 4.643"/><path fill="#5e154d" stroke="#5e154d" stroke-linecap="round" stroke-linejoin="round" stroke-width=".8" d="M41.106 52.594c.899 0 1.714.438 2.304 1.145s.956 1.684.956 2.762-.366 2.054-.956 2.762c-.59.707-1.405 1.144-2.304 1.144-.9 0-1.714-.437-2.305-1.144-.59-.708-.955-1.684-.955-2.762s.365-2.055.955-2.762c.591-.707 1.405-1.145 2.305-1.145M69.81 52.594c.9 0 1.715.438 2.305 1.145s.955 1.684.955 2.762-.365 2.054-.955 2.762c-.59.707-1.405 1.144-2.305 1.144-.899 0-1.714-.437-2.304-1.144-.59-.708-.956-1.684-.956-2.762s.366-2.055.956-2.762 1.405-1.145 2.304-1.145"/><path fill="#fff" stroke="#fff" stroke-width=".8" d="M41.812 54.227a1.13 1.13 0 0 1 1.133 1.129 1.132 1.132 0 0 1-2.265 0 1.132 1.132 0 0 1 1.132-1.129ZM70.734 54.227a1.13 1.13 0 0 1 1.132 1.129 1.132 1.132 0 0 1-2.265 0 1.132 1.132 0 0 1 1.133-1.129Z"/><path fill="none" stroke="#5e154d" stroke-linecap="round" stroke-linejoin="round" stroke-width="1.6" d="M51.054 71.015a5.08 5.08 0 0 0 4.765 3.305 5.08 5.08 0 0 0 4.766-3.305"/><path fill="#f05822" stroke="#f05822" stroke-linecap="round" stroke-linejoin="round" stroke-width="1.6" d="M40.006 65.107c1.039 0 1.98.269 2.662.703.682.435 1.104 1.036 1.104 1.698 0 .663-.422 1.263-1.104 1.698s-1.623.704-2.662.704-1.981-.269-2.662-.704c-.682-.435-1.104-1.035-1.104-1.698 0-.662.422-1.263 1.104-1.698.681-.434 1.623-.703 2.662-.703M71.215 65.107c1.039 0 1.981.269 2.662.703.682.435 1.104 1.036 1.104 1.698 0 .663-.422 1.263-1.104 1.698-.681.435-1.623.704-2.662.704s-1.98-.269-2.662-.704-1.103-1.035-1.103-1.698c0-.662.422-1.263 1.103-1.698.682-.434 1.623-.703 2.662-.703" opacity=".42"/><path fill="none" stroke="#6bb0e8" stroke-linecap="round" stroke-linejoin="round" stroke-width="2.4" d="M66.591 12.744a26.5 26.5 0 0 1 10.678 6.244"/></svg>