<svg xmlns="http://www.w3.org/2000/svg" width="597" height="417" viewBox="-1 -1 597 417"><path d="M-1-2h484v363H-1z"/><path fill="#fff" d="M-18.545 8.89h319.44v371.47h-319.44z"/><path d="m208.935 8.89 91.355 89.54.605-89.54z"/><path fill="#fafaf0" d="M143.922 312.896H90.839v-71.468h81.052z"/><path fill="#3c3c32" d="M330.141 413.084H295.68l8.936-402.379 6.382-.012zM465.522 78.604c-3.382-7.647-6.77-8.113-14.841-8.585-1.095-3.073-1.004-9.026.2-15.228 4.392 1.622 9.444.345 13.679 2.493 4.573 2.317 5.753 6.982 7.26 11.447 3.533 33.831.49 136.016 0 152.405-.291 9.541.841 22.016-3.679 30.795-4.332 8.421-13.993 9.311-22.488 8.306a36.2 36.2 0 0 1-.562-8.766c7.453-1.767 14.84-2.584 18.192-10.539 3.515-8.355 1.694-19.548 2.027-28.375.556-14.356 2.311-103.509.212-133.953"/><path fill="#828278" d="M469.835 78.604c-3.382-7.647-6.77-8.113-14.84-8.585-1.096-3.073-1.005-9.026.199-15.228 4.393 1.622 9.444.345 13.679 2.493 4.574 2.317 5.754 6.982 7.26 11.447 3.533 33.831.49 136.016 0 152.405-.29 9.541.841 22.016-3.678 30.795-4.332 8.421-13.994 9.311-22.488 8.306a36 36 0 0 1-.544-8.742c7.453-1.767 14.84-2.583 18.192-10.539 3.515-8.355 1.694-19.548 2.027-28.375.544-14.38 2.293-103.533.193-133.977"/><path fill="#fafaf0" d="M459.018 392.66c.405-104.369 1.21-352.715.187-375.947-.605-14.363-8.923-11.272-20.57-12.584L360.53 392.66z"/><path fill="#828278" d="M310.992 4.304v397.927h127.625V4.141c-1.313.048-55.962.066-127.625.163"/><path fill="#fff" d="m430.292 281.309 1.283-264.5c-15.591-1.47-106.159-.659-106.159-.659l-3.739 265.135z"/><path fill="#e6e6dc" d="m390.865 156.377-3.963-26.299-51.619.102-6.443 25.882z"/><path fill="#c8c8be" d="m386.902 130.078 33.995.187 4.876 27.564-48.019-.375z"/><path fill="#ffdc00" d="m384.373 137.598-42.036-.018v23.437h42.538z"/><path fill="#ffc800" d="m384.373 137.598-8.742 23.419h22.016V137.58z"/><path fill="#fab414" d="M396.788 137.58h17.52v23.437h-17.52z"/><path fill="#828278" d="M399.183 196.67s11.919 12.1 12.04 13.147c-1.253.036-20.607 3.472-20.607 3.472l-16.764-4.41zM411.556 186.197l-22.035-.332c0 .278-.211 4.725.128 5.13.604.684 10.133 1.089 12.668 1.271 1.18.084 9.432-1.211 9.432-1.211s-.078-4.295-.193-4.858"/><path fill="#c8c8be" d="m373.852 208.873 15.797-17.878s10.69 3.025 12.638 5.155c-3.551 2.371-28.435 12.723-28.435 12.723"/><path fill="#e6e6dc" d="M426.832 209.665c-1.132.158-13.02 1.9-13.02 1.9l-7.096-2.045s-12.203-13.165-17.128-18.525c1.676-.605 22.161.073 22.161.073s13.171 15.415 15.083 18.597"/><path fill="#c8c8be" d="m426.541 279.192-19.099.423-9.584-31.798 8.858-38.291 20.116.145s.26 44.341.103 52.297c-.067 3.267-.394 17.224-.394 17.224"/><path fill="#e6e6dc" d="M406.716 209.52s-28.641-.726-32.864-.647c-.218 3.938 1.21 68.915 1.21 68.915l1.464.986s2.305.049 3.303.091c1.906.073 3.812.248 5.724.297 3.86.096 7.707.151 11.567.302 1.785.073 10.352.151 10.352.151z"/><path fill="#fff" d="M400.684 216.496s-18.114-.521-20.782-.466c-.139 2.819.181 56.694.605 57.39.423.696 20.993.545 20.993.545z"/><path fill="#fafaf0" d="m377.99 173.148-37.008 108.476h-17.4v-107.2z"/><path d="m429.978 344.483.308-62.538H321.671l-.884 62.538z"/><path fill="#fafaf0" d="m320.775 345.119-.847 60.221c35.478.242 74.415 2.898 109.759-1.149l.291-59.072z"/><path fill="#e6e6dc" d="M319.293 16.168h6.129v375.215h-6.129z"/><path fill="#a0aa1e" d="M409.244 302.92h4.732v2.481h-4.732z"/><path fill="#be0a3c" d="M407.127 309.98h8.893v5.125h-8.893z"/><path fill="#645a1e" d="M417.406 309.714c-3.812.067-7.684-.151-11.652-.042v3.358h11.652z"/><path fill="#a0aa1e" d="m412.348 296.985-1.482.048-1.065 9.644 3.745.188z"/><path fill="#82783c" d="M418.549 306.018c-4.561.115-9.19-.273-13.915-.079v5.965h13.915z"/><path fill="#82783c" d="M416.341 304.953c-3.116.066-6.28-.151-9.517-.043v3.358h9.517z"/><path fill="#f01446" d="M423.583 330.381c-.139-2.039-.339-4.392-.454-4.84-.75-3.104-1.942-7.986-5.058-10.231-7.617-2.341-13.915-1.101-16.855 5.101-1.168 2.42-1.603 5.027-2.033 7.604-.036.206-.127 1.652-.169 2.378l14.284 2.753z"/><path fill="#be0a3c" d="M423.474 345.875c.163-6.988.369-13.915.109-17.92H399.02c-.163 3.291-.109 10.478-.079 17.92z"/><path fill="#f04650" d="M400.254 333.091h12.124v12.784h-12.124z"/><path fill="#ffdc00" d="M380.307 312.358h4.731v2.481h-4.731z"/><path fill="#ffc800" d="M378.19 319.424h8.893v5.125h-8.893z"/><path fill="#e6821e" d="M388.469 319.158c-3.812.067-7.684-.151-11.653-.042v3.358h11.653z"/><path fill="#ffdc00" d="m383.411 306.423-1.482.048-1.065 9.65 3.745.182z"/><path fill="#ffc800" d="M389.612 315.462c-4.562.115-9.19-.273-13.915-.079v5.965h13.915z"/><path fill="#ffc800" d="M387.41 314.415c-3.116.067-6.28-.151-9.517-.042v3.357h9.517z"/><path fill="#ffdc00" d="m393.902 333.963-6.819-9.42h-8.893l-7.387 9.359 13.558 2.614z"/><path fill="#ffc800" d="M395.227 345.875c-.176-4.701-.382-8.996-.605-12.1h-24.563c-.127 2.608-.279 7.036-.412 12.1z"/><path fill="#828278" d="m313.63 178.562 11.707-23.97.157 33.681z"/><path fill="#c8c8be" d="m425.858 159.499-10.11-5.627-101.979-.629-.139 25.67 102.269.611z"/><path fill="#828278" d="m415.936 179.597-.188-25.725 18.017.212.097 32.283zM313.63 294.069l11.707-23.97.157 32.398z"/><path fill="#c8c8be" d="m425.858 275.005-10.11-5.632-101.979-.629-.139 25.67 102.269.611z"/><path fill="#828278" d="m415.936 295.097-.188-25.724 18.017.218.097 31.635zM313.63 361.06l11.707-23.97.157 32.398z"/><path fill="#c8c8be" d="m425.858 341.997-10.11-5.633-101.979-.629-.139 25.67 102.269.611z"/><path fill="#828278" d="m415.936 362.089-.188-25.725 18.017.218.097 31.636z"/><path fill="#fafaf0" d="m58.931 25.104-103.37 204.835-1.277-206.112z"/><path d="M-37.657 25.915H97.748v42.083H-37.657z"/><path fill="#c8c8be" d="M-29.792 14.141v9.269c79.751.75 288.506.666 288.506.666s-2.516 25.809 17.781 28.283c4.84.605 12.427.448 24.122.327V14.281s-292.82-.376-330.409-.14"/><path fill="#64645a" d="M87.947 14.783h14.732v367.253H87.947z"/><path fill="#fff" d="M291.723 33.889c-.127-4.387-3.279-12.028-12.318-12.028-5.65 0-12.323 4.054-12.396 10.89s3.279 12.965 11.725 12.965 13.207-4.156 12.989-11.827"/><path fill="#fff" d="M290.005 33.87c-.109-3.781-2.825-10.363-10.612-10.363-4.84 0-10.624 3.497-10.684 9.365s2.825 11.169 10.104 11.169 11.392-3.576 11.192-10.171"/><path fill="none" stroke="#c8c8be" stroke-width=".605" d="M279.424 20.064v27.262M293.054 33.695h-27.261M289.061 24.057l-19.275 19.276M289.061 43.333l-19.275-19.276"/><path fill="#c8c8be" d="M287.96 33.852c-.091-3.025-2.281-8.367-8.567-8.367-3.932 0-8.573 2.819-8.627 7.563s2.281 9.014 8.155 9.014c5.875 0 9.196-2.886 9.039-8.21"/><path fill="#828278" d="M276.423 39.322a6 6 0 0 1-2.329-2.342c-.061-1.21 6.533-7.81 8.197-8.736a5.13 5.13 0 0 1 2.184 2.027c-1.016 1.784-6.316 8.222-8.052 9.051"/><path fill="#828278" d="M304.616 4.316c-135.877.188-328.061.654-337.203 2.19v10.66h328.575v376.159H-32.587v8.906h338.479z"/><path fill="#fafaf0" d="M100.743 394.571h194.501c.557-24.69.89-54.347.4-66.344H100.785s-.024 63.023-.042 66.344"/><path fill="#a0aa1e" d="M142.929 373.1c6.855-12.596-.363-22.439-11.386-24.63-6.558-1.306-14.429-1.058-19.45 9.898-5.699 12.433 1.107 19.015 5.408 21.308s18.574 6.008 25.428-6.576"/><path fill="#a0aa1e" d="M142.929 373.1c6.855-12.596-.363-22.439-11.386-24.63-6.558-1.306-14.429-1.058-19.45 9.898-5.699 12.433 1.107 19.015 5.408 21.308s18.574 6.008 25.428-6.576"/><path fill="#dce614" d="M138.755 345.222c1.609-1.767 4.628-3.83 7.012-2.541 2.19 1.21 1.779 4.331-.678 6.419-2.069 1.754-6.013 2.541-6.824 2.807q-1.356.34-2.747.49c-.774.139-1.918.938-2.728.641a47.6 47.6 0 0 1 5.965-7.816"/><path d="m132.705 353.014.514-11.416h1.301s1.815 6.927-1.815 11.416"/><path fill="#f01446" d="M244.89 375.708c1.373-17.545-11.652-24.969-25.107-21.901-8.004 1.815-16.704 6.05-16.844 20.836-.151 16.795 10.769 20.757 16.741 21.175s23.837-2.553 25.21-20.11"/><path fill="#f01446" d="M244.89 375.708c1.373-17.545-11.652-24.969-25.107-21.901-8.004 1.815-16.704 6.05-16.844 20.836-.151 16.795 10.769 20.757 16.741 21.175s23.837-2.553 25.21-20.11"/><path fill="#dce614" d="M224.695 346.395c.92-2.789 3.267-6.612 6.589-6.364 3.025.23 4.162 3.969 2.456 7.532-1.44 3.025-5.445 5.868-6.244 6.564a25 25 0 0 1-2.837 1.93c-.799.545-1.682 2.015-2.741 2.087a58.5 58.5 0 0 1 2.777-11.749"/><path d="m221.64 358.701-1.869-13.915 1.548-.278s3.691 7.986.321 14.193"/><path d="M286.926 375.429c.278-19.305.363-38.212 0-47.19H109.491v47.19z"/><path fill="#828278" d="M216.195 331.748c-1.416 19.318-35.604 19.687-35.725-.296z"/><path fill="#c8c8be" d="M208.614 332.843c-.816 11.132-20.521 11.344-20.57-.169z"/><path fill="#c8c8be" d="M299.382 335.457c.103-4.913.14-9.813.115-14.774H98.184a828 828 0 0 0-.279 14.774z"/><path fill="#828278" d="M292.371 335.59c.096-2.027.127-4.054.108-6.104H105.184a148 148 0 0 0-.261 6.104z"/><path fill="#fafaf0" d="M-104.733 394.571H89.75c.557-24.69.889-54.347.399-66.344h-194.84s-.024 63.023-.042 66.344"/><path d="M81.026 375.429c.278-19.305.363-38.212 0-47.19H-95.555v47.19z"/><path fill="#828278" d="M10.707 331.748c-1.416 19.318-35.605 19.687-35.725-.296z"/><path fill="#c8c8be" d="M3.144 332.843c-.817 11.132-20.521 11.344-20.57-.169z"/><path fill="#c8c8be" d="M93.912 335.457c.103-4.913.14-9.813.115-14.774h-201.319a819 819 0 0 0-.279 14.774z"/><path fill="#828278" d="M86.894 335.59c.097-2.027.127-4.054.109-6.104h-187.29a150 150 0 0 0-.26 6.104z"/><path fill="#c8c8be" d="M299.292 317.591c.181-2.42.248-4.84.211-7.26H-57.979c-.242 2.42-.429 5.058-.496 7.26z"/><path fill="#e6e6dc" d="M67.196 155.56h-88.627a14.7 14.7 0 0 1-4.15-4.58c-1.96-3.206-3.491-9.68-3.491-9.68H73.306s-.69 5.403-2.111 8.791a15.5 15.5 0 0 1-3.999 5.469"/><path fill="#c8c8be" d="M-22.962 127.543h88.627a20.9 20.9 0 0 1 5.705 6.86c2.136 4.278 1.936 7.406 1.936 7.406H-29.072s-.43-4.193 2.238-9.898 3.872-4.368 3.872-4.368"/><path fill="#e6e6dc" d="M48.925 134.851h7.586v2.487h-7.586z"/><path fill="#c8c8be" d="M60.643 156.915h-6.037l2.026-6.661h1.985zM44.308 156.915h-6.037l2.026-6.661h1.985zM27.973 156.915h-6.037l2.026-6.661h1.985zM11.638 156.915H5.601l2.026-6.661h1.985z"/><path fill="#fafaf0" d="M-30.361 140.114H74.625v3.086H-30.361z"/><path fill="#3c3c32" d="M115.329 171.901c-2.268 0-2.541-10.829-1.167-13.582l3.273-.369c.804 2.263.145 13.951-2.106 13.951"/><path fill="#3c3c32" d="M108.209 159.565h14.332v6.976h-14.332zM285.661 171.901c-2.269 0-2.541-10.829-1.168-13.582l3.274-.369c.804 2.263.163 13.951-2.106 13.951"/><path fill="#3c3c32" d="M278.274 159.565h14.332v6.976h-14.332z"/><path fill="#c8c8be" d="M301.415 153.364H96.587v9.801h204.586c.206-3.255.285-6.504.242-9.801"/><path fill="#3c3c32" d="M76.991 171.901c-2.269 0-2.541-10.829-1.168-13.582l3.273-.369c.811 2.263.169 13.951-2.105 13.951"/><path fill="#3c3c32" d="M69.603 159.565h14.333v6.976H69.603z"/><path fill="#c8c8be" d="M92.775 153.364h-204.859v9.801H92.509c.206-3.255.266-6.504.266-9.801M67.196 66.383l5.596-16.335-31.285-.52v16.855z"/><path fill="#e6e6dc" d="m47.993 66.383-1.367-17.279-25.235-.266 5.657 17.545z"/><path fill="#fafaf0" d="M20.036 47.731h54.438v5.929H20.036z"/><path fill="#c8c8be" d="M16.539 45.396h61.94v3.999h-61.94z"/><path fill="#3c3c32" d="M76.991 80.649c-2.269 0-2.541-10.829-1.168-13.582l3.273-.369c.811 2.256.169 13.951-2.105 13.951"/><path fill="#3c3c32" d="M69.603 68.307h14.333v6.976H69.603z"/><path fill="#c8c8be" d="M92.775 62.13h-204.859v9.801H92.509c.206-3.273.266-6.528.266-9.801M171.262 242.438l5.59-16.335-37.335-.52v16.855z"/><path fill="#e6e6dc" d="m146.003 242.438-1.367-17.279-31.291-.266 5.657 17.545z"/><path fill="#fafaf0" d="M111.99 223.786h66.55v5.929h-66.55z"/><path fill="#c8c8be" d="M108.487 221.451h74.052v3.999h-74.052zM20.181 312.939l5.59-16.335-37.334-.52v16.855z"/><path fill="#fafaf0" d="M-39.091 294.287h66.55v5.929h-66.55z"/><path fill="#c8c8be" d="M-42.594 291.951h74.052v3.999h-74.052z"/><path fill="#3c3c32" d="M114.688 258.047c-2.269 0-2.541-10.829-1.168-13.582l3.273-.369c.787 2.263.182 13.951-2.105 13.951"/><path fill="#3c3c32" d="M107.567 245.711H121.9v6.976h-14.333zM285.02 258.047c-2.269 0-2.541-10.829-1.168-13.582l3.273-.369c.811 2.263.164 13.951-2.105 13.951"/><path fill="#3c3c32" d="M277.633 245.711h14.332v6.976h-14.332z"/><path fill="#c8c8be" d="M300.774 239.51H95.945v9.801h204.593c.206-3.261.278-6.504.236-9.801"/><path fill="#fafaf0" d="m339.21 132.733-3.407 13.123 22.004-.176 3.092-13.122z"/></svg>