<svg xmlns="http://www.w3.org/2000/svg" width="130.313" height="109.765" viewBox="1.797 1.526 130.313 109.765"><path d="M47.385 54.84c10.69 1.18 20.159 4.23 26.82 8.2 6.662 3.972 10.517 8.866 9.979 13.738s-5.367 8.808-12.735 11.23-17.273 3.333-27.964 2.152c-10.69-1.18-20.159-4.228-26.82-8.199S6.148 73.095 6.686 68.223s5.367-8.808 12.735-11.23 17.273-3.332 27.964-2.152"/><path fill="#663b00" stroke="#000" stroke-linecap="round" stroke-width=".713" d="m17.938 9.06 51.897 2.715c17.281.904 12.166 2.138 16.048 6.381 3.345 3.657 2.527 9.482 2.952 14.21.694 8.008 2.11 16.234.395 23.881-1.088 4.836-4.288 9.233-8.306 12.357-5.611 4.353-12.546 8.068-19.515 8.607-11.152.86-22.82-.267-33.347-4.04-7.617-2.732-14.276-8.158-19.384-14.355-3.29-4.004-4.909-9.26-4.775-14.105.245-7.613 3.176-15.028 5.866-21.774 1.988-4.98 2.892-12.926 8.169-13.878Z"/><path fill="none" stroke="#ffe9cc" stroke-linecap="round" stroke-width="4.198" d="M32.687 18.623C26.88 36 23.163 41.298 21.915 53.337c-.637 6.153 5.576 17.812 5.576 17.812M51.14 75.57s4.872-12.692 5.483-19.609c.975-11.057-1.15-33.314-1.15-33.314M68.858 24.438s4.445 20.403 2.968 30.497c-1.104 7.541-11.172 19.57-9.755 20.042 1.462.506 16.67-8.711 19.361-16.87 3.72-11.614-1.98-36.724-1.98-36.724M40.916 75.382S38.23 59.224 39.044 51.34c1.07-9.996 6.718-29.429 6.718-29.429"/><path fill="none" stroke="#ffe9cc" stroke-linecap="round" stroke-width="4.198" d="M19.537 14.758s-5.262 10.492-6.612 16.166C11.265 37.77 8.057 45.5 10.258 52.35c2.373 7.473 9.088 13.347 15.246 17.674 5.08 3.607 11.723 4.329 17.754 5.882 2.226.573 4.43.165 6.623.127 3.312.243 6.709.853 9.902.49 1.378-.158 3.807-1.692 3.807-1.692"/><path fill="#fff" stroke="#000" stroke-width="1.068" d="M51.865 4.453c9.717 1.073 18.414 3.022 24.616 5.305 6.2 2.282 9.907 4.898 9.641 7.304s-4.453 4.15-11.003 5.025-15.463.88-25.18-.192c-9.716-1.073-18.413-3.022-24.615-5.305s-9.907-4.898-9.641-7.304c.265-2.406 4.453-4.15 11.002-5.025s15.463-.88 25.18.192Z"/><path stroke="#000" stroke-width=".713" d="M52.054 9.543c2.983.33 5.643 1.005 7.533 1.83s3.008 1.801 2.905 2.73c-.102.93-1.406 1.637-3.43 2.03-2.025.394-4.769.473-7.751.144-2.983-.33-5.643-1.005-7.533-1.83s-3.008-1.801-2.905-2.73c.102-.93 1.407-1.637 3.43-2.03 2.025-.394 4.769-.473 7.751-.144Z"/><path fill="none" stroke="#fff" stroke-linecap="round" stroke-width="2.399" d="M7.784 66.56s3.41 6.162 6.066 7.91c5.647 3.716 11.79 7.047 18.352 8.664 9.264 2.282 18.857 3.418 28.317 3.126 5.86-.37 11.682-2.332 16.852-5.079 2.644-1.406 5.89-6.892 5.89-6.892"/><path d="M100.257 82.203c7.55-1.325 14.647-1.061 20.016.434 5.369 1.497 9.008 4.225 9.64 7.83s-1.86 7.41-6.398 10.644-11.122 5.9-18.671 7.224c-7.55 1.325-14.648 1.062-20.016-.434-5.369-1.496-9.008-4.225-9.64-7.83s1.86-7.409 6.398-10.644c4.538-3.234 11.122-5.9 18.671-7.224"/><path fill="#663b00" stroke="#000" stroke-linecap="round" stroke-width=".711" d="m76.37 47.8.123.086c.014.214 13.983-2.47 20.949-3.784 1.742-.328.684-.235 1.023-.36.907-.333 1.817-.667 2.718-1.016.51-.198 1-.452 1.519-.627.225-.076.468-.082.702-.123.526-.093 1.049-.223 1.58-.278.302-.03.607.04.91.02.236-.014.464-.128.702-.122.375.008.739.155 1.114.164.238.005.469-.082.703-.123s.48-.04.702-.124c.688-.257 1.41-.48 2.016-.893.151-.103-.575-1.6-.237-.319 1.35 5.13 2.791 10.253 4.2 15.368 2.517 9.147 6.764 18.009 7.588 27.46.299 3.435-2.254 6.674-4.377 9.405-2.034 2.615-4.893 4.582-7.778 6.223-1.865 1.06-4.02 1.378-6.09 1.807-2.597.36-5.294.933-7.85.55-3.282-.492-6.644-1.414-9.432-3.203-3.074-1.972-6.764-4.271-7.702-7.79-2.405-9.017-1.18-18.656-1.831-27.965-.348-4.968-.776-9.946-1.169-14.91Z"/><path fill="none" stroke="#ffe9cc" stroke-linecap="round" stroke-width="2.999" d="M98.232 48.03s8.116 23.648 10.51 35.605c.927 4.608-2.011 14.25-.569 14.105 1.445-.144 8.417-9.21 8.057-14.81-.84-13.105-11.22-37.915-11.22-37.915M90.857 49.772s.42 24.998 2.241 37.056c.698 4.648 6.744 12.712 5.338 13.068-1.407.357-11.05-5.794-12.618-11.181-3.672-12.609-2.36-39.47-2.36-39.47"/><path fill="#fff" stroke="#000" stroke-width=".766" d="M92.749 37.63c4.782-.839 9.221-.993 12.531-.564s5.49 1.441 5.751 2.934-1.442 3.187-4.408 4.717-7.193 2.897-11.975 3.737c-4.781.839-9.221.993-12.531.564s-5.49-1.441-5.751-2.934 1.442-3.187 4.408-4.717 7.193-2.897 11.975-3.737Z"/><path d="M93.018 40.546c1.986-.349 3.845-.332 5.242-.024 1.398.309 2.335.91 2.479 1.728.143.819-.533 1.702-1.742 2.468s-2.95 1.414-4.937 1.763-3.845.332-5.243.024c-1.397-.309-2.334-.91-2.478-1.728-.143-.819.533-1.702 1.742-2.468s2.95-1.415 4.937-1.763"/><path fill="none" stroke="#ffe9cc" stroke-linecap="round" stroke-width="3.744" d="M96.02 98.024s3.09 1.941 4.553 1.941a19.2 19.2 0 0 0 5.901-1.036c1.142-.403 3.146-2.074 3.146-2.074"/><path fill="none" stroke="#fff" stroke-linecap="round" stroke-width="1.654" d="M76.126 99.724s3.506 3.29 5.65 3.897c4.562 1.287 9.389 2.23 14.171 1.993 6.752-.335 13.51-1.469 19.902-3.493 3.924-1.375 7.518-3.764 10.516-6.53 1.533-1.415 2.694-5.564 2.694-5.564"/></svg>