<svg xmlns="http://www.w3.org/2000/svg" xml:space="preserve" viewBox="0 0 280.547 213.481"><path d="m52.158 191.54 4.555 1.464s6.372 7.881 4.777 8.75c-1.599.876-3.932 0-3.932 0s1.106 1.619-1.839 1.619c-2.947 0-9.944-.371-12.154-4.297-2.213-3.926-2.579-6.954-2.579-6.954z" style="fill:#6d5451"/><path d="M55.72 203.936c-3.76 0-10.4-.592-12.646-4.582-2.237-3.979-2.632-7.036-2.649-7.165a.56.56 0 0 1 .131-.427.55.55 0 0 1 .401-.201l11.172-.586a.6.6 0 0 1 .205.025l4.552 1.468a.6.6 0 0 1 .267.182c1.298 1.606 5.503 6.989 5.129 8.866a1.02 1.02 0 0 1-.523.735c-.553.303-1.225.455-1.999.455a7 7 0 0 1-1.439-.159 1.3 1.3 0 0 1-.139.456c-.335.632-1.144.933-2.462.933m-14.066-11.288c.219 1.052.841 3.382 2.4 6.155 2.037 3.617 8.837 4.008 11.665 4.008 1.011 0 1.396-.213 1.461-.336.062-.112-.054-.354-.086-.402a.56.56 0 0 1 .021-.663.57.57 0 0 1 .641-.184c.009 0 .961.35 2.002.35.582 0 1.073-.1 1.462-.316.218-.643-1.971-4.201-4.837-7.771l-4.3-1.385z" style="fill:#56372f"/><path d="m52.158 191.54 4.555 1.464s.172.212.455.578c-1.396 1.684-4.505 2.218-6.411 2.573-1.487.283-4.438.301-3.76 2.737.419 1.496 4.596 2.813 5.084 2.985.911.321 2.314.805 3.24.27.588-.341.862-.844.952-1.422.156-.231.147-.539.014-.809a6.3 6.3 0 0 0-.183-1.024c.49.484.964.975 1.452 1.376.723.593 2.215 1.509 2.888.314.302-.537.354-1.193.311-1.847.836 1.457 1.314 2.701.735 3.018-1.599.876-3.932 0-3.932 0s1.106 1.619-1.839 1.619c-2.947 0-9.944-.371-12.154-4.297-2.213-3.926-2.579-6.954-2.579-6.954z" style="opacity:.4;fill:#6d5451"/><path d="M57.559 202.122a.32.32 0 0 0 .177-.047.365.365 0 0 0 .143-.499l-2.382-4.298a.366.366 0 0 0-.642.354l2.385 4.299a.36.36 0 0 0 .319.191" style="fill:#56372f"/><path d="m140.148 195.442 4.557 1.467s6.369 7.884 4.776 8.753c-1.597.869-3.929 0-3.929 0s1.106 1.619-1.841 1.619-9.941-.371-12.153-4.298-2.578-6.956-2.578-6.956z" style="fill:#6d5451"/><path d="M143.712 207.844c-3.759 0-10.4-.598-12.646-4.583-2.24-3.979-2.629-7.038-2.647-7.165a.58.58 0 0 1 .127-.433.57.57 0 0 1 .406-.197l11.167-.586a.44.44 0 0 1 .204.028l4.556 1.466a.55.55 0 0 1 .266.18c1.296 1.605 5.501 6.989 5.126 8.864a1.01 1.01 0 0 1-.52.735c-.556.307-1.227.461-1.999.461-.53 0-1.034-.077-1.441-.16a1.3 1.3 0 0 1-.139.453c-.336.628-1.14.937-2.46.937m-14.067-11.287c.222 1.053.843 3.376 2.403 6.152 2.034 3.617 8.834 4.006 11.663 4.006 1.014 0 1.396-.211 1.463-.338.058-.112-.053-.35-.087-.396a.56.56 0 0 1 .021-.667.57.57 0 0 1 .639-.181c.01.003.965.352 2.004.352.581 0 1.071-.107 1.458-.319.222-.638-1.966-4.198-4.839-7.773l-4.291-1.381z" style="fill:#56372f"/><path d="m140.148 195.442 4.107 1.321c-.964.322-2.021.537-2.558.757-1.922.804-3.986 1.23-5.881 1.993-3.295 1.32-.454 3.545 1.526 4.737 1.351.82 5.406 3.339 6.873 1.488.604-.764.608-1.632.372-2.52.236.194.467.399.698.598.818.674 2.014 1.724 3.15 1.161.51-.25.793-.65.935-1.132.398.898.52 1.59.109 1.815-1.597.869-3.929 0-3.929 0s1.106 1.619-1.841 1.619-9.941-.371-12.153-4.298-2.578-6.956-2.578-6.956z" style="opacity:.4;fill:#6d5451"/><path d="M145.553 206.025a.364.364 0 0 0 .32-.541l-2.386-4.302a.364.364 0 0 0-.497-.139.36.36 0 0 0-.142.494l2.385 4.302c.066.119.19.186.32.186" style="fill:#56372f"/><path d="m176.641 191.709 4.558 1.465s6.367 7.883 4.771 8.751c-1.593.868-3.926 0-3.926 0s1.106 1.62-1.842 1.62c-2.946 0-9.944-.366-12.151-4.299-2.213-3.926-2.579-6.952-2.579-6.952z" style="fill:#6d5451"/><path d="M180.202 204.107c-3.76 0-10.402-.596-12.643-4.583-2.241-3.979-2.632-7.035-2.65-7.166a.56.56 0 0 1 .131-.426.54.54 0 0 1 .401-.2l11.17-.585a.6.6 0 0 1 .203.022l4.555 1.467a.6.6 0 0 1 .265.183c1.297 1.605 5.502 6.989 5.132 8.863a1.03 1.03 0 0 1-.523.738q-.835.455-1.999.456a7 7 0 0 1-1.442-.16 1.4 1.4 0 0 1-.136.455c-.339.629-1.143.936-2.464.936m-14.065-11.288c.222 1.05.844 3.38 2.403 6.149 2.034 3.625 8.834 4.015 11.662 4.015 1.015 0 1.398-.213 1.464-.343.059-.11-.053-.349-.089-.396a.575.575 0 0 1 .023-.669.565.565 0 0 1 .639-.177c.011 0 .963.349 2.004.349q.874.002 1.46-.319c.217-.639-1.968-4.197-4.839-7.77l-4.296-1.383z" style="fill:#56372f"/><path d="m176.641 191.709 3.634 1.17c-2.831 1.576-6.046 3.148-8.946 3.498-.655.077-1.196.886-.592 1.428 1.634 1.467 6.512 6.048 9.07 4.646 1.622-.887 1.025-3.039.588-4.813 1.591 1.438 2.551 4.18 4.83 4.311.305.01.564-.014.795-.061-.014.009-.029.026-.05.035-1.593.868-3.926 0-3.926 0s1.106 1.62-1.842 1.62c-2.946 0-9.944-.366-12.151-4.299-2.213-3.926-2.579-6.952-2.579-6.952z" style="opacity:.4;fill:#6d5451"/><path d="M182.044 202.292q.089 0 .178-.045a.366.366 0 0 0 .142-.499l-2.388-4.299a.365.365 0 0 0-.497-.141.363.363 0 0 0-.142.496l2.386 4.297a.36.36 0 0 0 .321.191" style="fill:#56372f"/><path d="m83.029 187.165 4.529 1.434s6.331 7.721 4.748 8.572c-1.589.854-3.906 0-3.906 0s1.097 1.587-1.83 1.587c-2.932 0-9.886-.36-12.085-4.206-2.193-3.85-2.56-6.818-2.56-6.818z" style="fill:#6d5451"/><path d="M86.57 199.323c-3.736 0-10.34-.585-12.571-4.492-2.227-3.903-2.616-6.9-2.635-7.024a.566.566 0 0 1 .533-.633l11.102-.573a.5.5 0 0 1 .202.029l4.528 1.438a.55.55 0 0 1 .266.177c1.289 1.566 5.467 6.841 5.104 8.691a1.05 1.05 0 0 1-.526.733c-.55.295-1.218.448-1.984.448a7.3 7.3 0 0 1-1.431-.158 1.4 1.4 0 0 1-.134.43c-.332.628-1.134.934-2.454.934m-13.976-11.055c.224 1.035.84 3.302 2.384 6.002 2.022 3.541 8.779 3.925 11.593 3.925 1.011 0 1.39-.206 1.456-.331.052-.095-.049-.313-.091-.369a.562.562 0 0 1 .66-.849c.01 0 .956.344 1.993.344.577 0 1.065-.105 1.452-.312.197-.633-1.974-4.111-4.815-7.591l-4.267-1.352z" style="fill:#56372f"/><path d="m83.029 187.165 4.529 1.434.133.164c-2.113 1.514-9.103 2.377-10.456 2.549-.73.089-1.106.837-.594 1.431 1.026 1.183 2.429 1.856 3.769 2.631 1.241.715 3.001 1.898 4.511 1.762 1.958-.172 1.975-1.732 1.757-3.37 1.584 1.738 3.565 4.086 4.836 2.434.293-.388.384-.888.382-1.413.623 1.174.907 2.118.411 2.386-1.589.854-3.906 0-3.906 0s1.097 1.587-1.83 1.587c-2.932 0-9.886-.36-12.085-4.206-2.193-3.85-2.56-6.818-2.56-6.818z" style="opacity:.4;fill:#6d5451"/><path d="M88.323 197.626a.367.367 0 0 0 .321-.544l-2.385-4.298a.36.36 0 0 0-.498-.141.36.36 0 0 0-.143.496l2.386 4.298a.37.37 0 0 0 .319.189" style="fill:#56372f"/><path d="M241.502 26.174s6.833 4.144 15.635 2.282c0 0-2.742 12.587-17.793 12.042-15.05-.537-31.77-25.558-31.77-25.558s3.542-6.297 15.137-3.075c11.592 3.22 10.085 9.546 18.791 14.309" style="fill:#eb94a4"/><path d="M240.275 41.079c-.313 0-.627-.005-.952-.012-6.392-.231-13.765-4.66-21.913-13.158-6.029-6.288-10.262-12.591-10.304-12.655a.57.57 0 0 1-.023-.592c.101-.173 2.489-4.28 9.507-4.28 1.922 0 4.029.318 6.267.939 6.859 1.904 9.232 4.846 11.748 7.958 1.757 2.183 3.578 4.435 7.167 6.397.066.041 4.537 2.695 10.755 2.695 1.514 0 3.025-.156 4.492-.463a.562.562 0 0 1 .669.67c-.027.126-2.898 12.501-17.413 12.501m-32.022-26.138c1.979 2.851 17.419 24.506 31.111 24.998.311.011.601.028.911.017 11.426 0 15.146-8.097 16.059-10.773-1.256.213-2.531.32-3.808.32-6.546 0-11.125-2.733-11.317-2.844-3.763-2.064-5.655-4.404-7.482-6.67-2.397-2.974-4.662-5.773-11.171-7.581-2.141-.596-4.147-.897-5.966-.897-5.357 0-7.691 2.555-8.337 3.43" style="fill:#ea6a8d"/><path d="M222.71 11.865c11.593 3.22 10.086 9.546 18.792 14.309 0 0 5.306 3.216 12.588 2.705-6.185 2.344-14.379.517-19.366-3.19-.81-.604-1.591.639-1.015 1.315 2.778 3.249 5.395 6.488 6.95 10.515.385.988.757 1.98 1.183 2.946a23 23 0 0 1-2.498.033c-15.05-.537-31.77-25.558-31.77-25.558s3.541-6.296 15.136-3.075" style="opacity:.4;fill:#f3bbb4"/><path d="M3.604 36.757c.592 1.271 2.127.462 4.751 1.544-4.788 5.781-1.118 14.616 5.002 11.546 6.116-3.063 2.383-10.535-.153-11.689 8.496-6.604 13.339 4.932 13.339 4.932s1.014-1.265 3.327-4.163c-3.611-7.862-12.649-7.677-19.09-3.033-2.182-.709-7.769-.403-7.176.863m6.561 9.701c-2.282-2.813 1.301-6.308 1.301-6.308 5.012 3.665.984 9.123-1.301 6.308" style="fill:#f3bbb4"/><path d="M10.922 51.043c-1.948 0-3.613-1.161-4.565-3.182-1.121-2.39-1.176-6.106 1.084-9.293-.791-.245-1.461-.316-2.029-.381-.951-.103-1.857-.201-2.317-1.19a.94.94 0 0 1 .056-.932c.637-.999 3.341-1.106 4.474-1.106 1.183 0 2.276.112 3.052.317 2.938-2.053 6.296-3.18 9.479-3.18 4.643 0 8.274 2.343 10.23 6.593a.56.56 0 0 1-.072.586c-2.315 2.902-3.332 4.163-3.332 4.163a.563.563 0 0 1-.959-.134c-.029-.068-2.849-6.625-7.704-6.625-1.316 0-2.701.484-4.117 1.448 1.517 1.213 2.986 3.883 3.035 6.463.039 1.779-.563 4.225-3.626 5.765-.915.455-1.817.688-2.689.688M4.165 36.616c.18.288.48.356 1.371.454.753.083 1.786.194 3.033.708a.56.56 0 0 1 .332.386.55.55 0 0 1-.11.497c-2.431 2.933-2.46 6.491-1.41 8.721 1.108 2.357 3.341 3.155 5.723 1.965 2.539-1.273 3.035-3.278 3.009-4.732-.053-2.743-1.927-5.392-3.143-5.942a.56.56 0 0 1-.327-.448.57.57 0 0 1 .213-.51c1.845-1.436 3.683-2.161 5.462-2.161 4.518 0 7.35 4.557 8.346 6.48.494-.616 1.328-1.659 2.546-3.184-1.791-3.637-4.989-5.628-9.055-5.628-3.031 0-6.247 1.11-9.043 3.127a.57.57 0 0 1-.506.082c-.665-.219-1.783-.348-2.982-.348-1.973 0-3.14.319-3.459.533m7.437 11.186c-.491 0-1.214-.172-1.875-.984-2.063-2.545-.023-5.732 1.348-7.068a.55.55 0 0 1 .721-.048c2.585 1.883 2.951 4.261 2.431 5.856-.44 1.341-1.497 2.244-2.625 2.244m-.075-6.889c-.771.893-2.492 3.257-.925 5.191.849 1.044 2.109.455 2.552-.898.183-.559.576-2.457-1.627-4.293" style="fill:#f09783"/><path d="M10.528 49.799s-1.375-.489-2.444-3.015c-1.623-3.809.793-8.647 5.927-11.872 1.931-1.003-2.174-.698-5.578 3.958-3.406 4.656-1.558 11.433 2.095 10.929" style="opacity:.6;fill:#d8a182"/><path d="M7.947 48.031s-3.896-5.581 3.517-12.055c-3.883 2.512-6.821 7.539-3.517 12.055" style="fill:#fff"/><path d="M192.227 132.152s-34.298-9.805-37.982-8.141c0 0-13.026 27.959 12.201 71.066 0 0 6.591 2.099 14.918-.839-1.103-6.588-8.178-31.328 10.863-62.086" style="fill:#f3bbb4"/><path d="M172.301 196.367c-3.619 0-5.93-.721-6.025-.757a.53.53 0 0 1-.313-.247c-13.098-22.379-15.735-40.626-15.641-51.988.104-12.357 3.277-19.31 3.414-19.6a.55.55 0 0 1 .278-.278c.357-.163.889-.239 1.629-.239 7.44 0 35.548 8.009 36.742 8.352a.563.563 0 0 1 .321.838c-17.385 28.085-12.861 51.078-11.158 59.741.153.768.283 1.418.372 1.958a.57.57 0 0 1-.367.625 27.8 27.8 0 0 1-9.252 1.595m-5.481-1.767c.62.166 2.64.641 5.48.641 2.849 0 5.682-.46 8.425-1.38q-.12-.637-.284-1.458c-1.711-8.712-6.244-31.74 10.916-59.912-4.519-1.271-29.078-8.106-35.715-8.106-.5 0-.802.038-.978.083-1.111 2.686-11.317 29.886 12.156 70.132" style="fill:#f09783"/><path d="M154.245 124.012c3.684-1.664 37.982 8.141 37.982 8.141-3.907 6.313-6.701 12.367-8.687 18.069-.013-.143-.013-.278-.024-.421-.052-.537-.496-.959-1.061-.81-9.256 2.473-16.025 11.012-17.489 20.316-1.422 9.025 2.107 18.299 6.188 26.467-2.9-.127-4.707-.695-4.707-.695-25.228-43.108-12.202-71.067-12.202-71.067" style="opacity:.4;fill:#f3bbb4"/><path d="M160.771 155.551c-3.099 1.491-5.732 3.379-7.988 5.623-5.005-23.279 1.462-37.162 1.462-37.162 3.684-1.664 37.982 8.141 37.982 8.141a94 94 0 0 0-6.11 11.542c-8.537 3.719-16.968 7.83-25.346 11.856" style="opacity:.4;fill:#f3bbb4"/><path d="M63.595 150.499c3.116-4.452 4.426-9.019 4.52-14.128 10.801 1.829 24.862 4.868 24.862 4.868s-13.914 19.403-8.972 38.26c1.041 3.962 3.554 9.1 3.554 9.1s-9.731 3.694-15.633-.865c0 0-5.292-12.527-11.813-28.059-.136-3.483 1.212-5.953 3.482-9.176" style="fill:#f3bbb4"/><path d="M79.6 190.573c-3.265 0-5.961-.801-8.02-2.392a.56.56 0 0 1-.175-.228s-5.292-12.53-11.809-28.061a.6.6 0 0 1-.045-.201c-.143-3.518 1.149-6.06 3.58-9.518 2.917-4.16 4.325-8.55 4.419-13.813a.566.566 0 0 1 .659-.543c10.687 1.809 24.746 4.836 24.885 4.872.187.041.34.17.405.348a.54.54 0 0 1-.066.526c-.139.195-13.699 19.417-8.883 37.792 1.014 3.864 3.488 8.945 3.516 8.995a.6.6 0 0 1 .018.456.57.57 0 0 1-.326.316c-.157.065-3.868 1.451-8.158 1.451m-7.212-3.193c1.838 1.376 4.266 2.07 7.212 2.07 3.118 0 5.986-.799 7.178-1.177-.687-1.463-2.465-5.398-3.315-8.632-4.423-16.874 6.166-34.345 8.581-38.028-3.081-.657-14.306-3.017-23.384-4.576-.205 5.208-1.676 9.605-4.606 13.781-2.313 3.3-3.479 5.566-3.378 8.732a12229 12229 0 0 0 11.712 27.83" style="fill:#f09783"/><path d="M63.595 150.499c3.116-4.452 4.426-9.019 4.52-14.128 10.801 1.829 24.862 4.868 24.862 4.868s-4.085 5.706-7.045 13.934c-7.382-2.646-16.304-.305-16.542 8.635-.261 9.738 5.164 17.643 8.98 26.162-2.243-.159-4.541-.763-6.444-2.235 0 0-5.292-12.527-11.813-28.059-.136-3.484 1.212-5.954 3.482-9.177" style="opacity:.4;fill:#f3bbb4"/><path d="M13.505 77.744c2.289-25.136 4.482-37.747 28.448-54.173 23.481-16.093 127.083-12.386 145.2-1.554 11.887 8.2 27.342 73.668 23.819 90.299-6.128 28.948-52.646 41.524-62.588 42.972-5.387 4.145-5.126 27.705-3.297 42.104 0 0-1.968.58-5.294 1.242-6.663 1.321-10.471-1.009-10.471-1.009-5.587-4.386-6.812-15.729-17.022-44.165-20.095-1.241-34.396-1.073-50.007-7.792-12.521 18.895-6.024 38.157-5.201 47.813 0 0-8.812 4.916-16.029-.902-.01-.003-6.451-10.957-12.665-30.273-.165-2.142.077-4.278 1.295-6.123 2.855-2.072 5.78-4.188 6.4-7.429 1.138-5.918-3.396-11.298-6.234-16.056-4.091-6.866-7.851-14.121-11.31-21.328-1.896-3.958-6.853-13.746-5.044-33.626" style="fill:#f3bbb4"/><path d="M135.804 199.602c-4.281 0-6.673-1.436-6.773-1.496-3.787-2.969-5.585-8.697-9.168-20.119-1.963-6.256-4.398-14.026-7.97-23.987-2.654-.159-5.209-.3-7.68-.432-15.813-.863-28.339-1.543-41.707-7.198-9.862 15.222-7.359 30.712-5.699 40.996.373 2.322.697 4.326.847 6.07a.56.56 0 0 1-.288.537c-.148.083-3.656 2.012-8.126 2.012-3.216 0-6.088-.997-8.528-2.964-.195-.124-6.743-11.559-12.846-30.543a.7.7 0 0 1-.029-.13c-.203-2.631.249-4.754 1.384-6.474a.6.6 0 0 1 .142-.148c2.769-2.011 5.602-4.062 6.179-7.077.893-4.646-1.986-9.113-4.524-13.055a82 82 0 0 1-1.64-2.607c-3.735-6.264-7.444-13.255-11.335-21.373l-.127-.266c-2.022-4.204-6.755-14.048-4.973-33.654 2.294-25.157 4.47-37.983 28.69-54.586 10.039-6.879 36.672-10.988 71.238-10.988 34.081 0 65.444 3.962 74.57 9.417 11.922 8.221 27.698 73.817 24.081 90.893-6.116 28.897-51.615 41.694-62.904 43.397-4.864 4.074-4.864 26.633-2.972 41.5a.56.56 0 0 1-.399.607c-.079.025-2.03.596-5.348 1.253a21 21 0 0 1-4.095.415m-6.131-2.419c.008 0 2.228 1.296 6.131 1.296 1.253 0 2.557-.137 3.879-.396a72 72 0 0 0 4.788-1.101c-1.478-12.071-2.493-37.472 3.57-42.137a.56.56 0 0 1 .261-.112c10.875-1.584 56.108-14.139 62.12-42.534 1.633-7.724-.825-27.034-6.13-48.057-5.575-22.117-12.262-38.077-17.459-41.664-8.939-5.338-40.057-9.228-73.961-9.228-34.348 0-60.742 4.031-70.604 10.789-23.802 16.313-25.942 28.955-28.201 53.756-1.757 19.295 2.882 28.947 4.866 33.063l.123.271c3.88 8.082 7.568 15.047 11.287 21.285a100 100 0 0 0 1.621 2.571c2.654 4.118 5.663 8.786 4.683 13.877-.657 3.43-3.641 5.609-6.54 7.716-.942 1.477-1.318 3.322-1.15 5.621 5.884 18.275 11.97 29.025 12.544 30.012 2.246 1.766 4.838 2.648 7.739 2.648 3.423 0 6.314-1.253 7.253-1.708-.151-1.614-.454-3.477-.8-5.608-1.703-10.544-4.277-26.476 6.131-42.188a.564.564 0 0 1 .694-.204c13.348 5.746 25.885 6.427 41.757 7.287 2.586.142 5.265.29 8.056.458a.56.56 0 0 1 .496.376c3.646 10.147 6.119 18.038 8.112 24.376 3.512 11.199 5.275 16.823 8.734 19.535" style="fill:#f09783"/><path d="M29.859 132.699c2.838 4.758 7.372 10.138 6.234 16.056-.62 3.24-3.545 5.357-6.4 7.429-1.218 1.845-1.46 3.982-1.295 6.123 6.214 19.316 12.655 30.27 12.665 30.273 7.218 5.818 16.029.902 16.029.902-.823-9.656-7.319-28.918 5.201-47.813 15.61 6.719 29.912 6.551 50.007 7.792 10.211 28.437 11.436 39.779 17.022 44.165 0 0 3.808 2.33 10.471 1.009 3.326-.662 5.294-1.242 5.294-1.242-1.829-14.399-2.09-37.959 3.297-42.104 9.941-1.448 56.46-14.023 62.588-42.972 3.522-16.631-11.933-82.099-23.819-90.299-18.117-10.832-121.72-14.539-145.2 1.554-23.967 16.425-26.159 29.036-28.448 54.172-1.809 19.88 3.149 29.668 5.044 33.627 3.459 7.207 7.219 14.462 11.31 21.328m3.906-9.444c-5.921-10.151-11.36-20.749-13.566-32.395-1.934-10.23-.166-21.943 4.559-31.998q.07-.181.148-.36c3.069-6.8 7.943-13.584 13.982-18.83C43.93 34.717 49.822 30.53 56.3 27.174c17.524-9.085 37.212-10.785 56.566-9.065a141 141 0 0 1 15.156 2.192c4.233.852 8.851 1.686 12.815 3.438 3.172 1.404 5.58 3.231 6.772 6.574.626 1.76.439 3.876.405 5.7-.059 3.063-5.613 25.52-3.391 35.62 1.703 7.728 6.393 16.027 11.707 21.907 26.528 29.345 1.555 45.83 1.741 45.174 1.284-4.493 2.153-9.063 2.905-13.657q-.277.32-.544.674c-1.484 1.963-2.79 4.086-4.039 6.205-2.902 4.928-5.478 10.143-7.919 15.311-2.755 5.834-4.557 11.759-5.195 18.186-.59 5.966-.247 12.002-.285 17.982-.021 3.267.197 6.968-2.061 9.597-1.868 2.179-4.79.127-6.324-1.251-5.962-5.338-8.193-15.452-10.678-22.691-5.909-17.214-8.581-34.758-6.854-52.949.686-7.165 2.058-15.605 5.451-22.659-.134.143-.272.278-.402.427-3.379 3.73-6.04 8.262-8.521 12.616-2.553 4.481-3.91 9.472-5.356 14.386-1.004 3.399-1.906 7.461-4.105 10.328-2.9 3.778-8.603 4.286-12.976 4.322-5.589.038-11.528-1.043-16.721-3.119-.442-.174-.696-.547-.587-1.031 1.673-7.402 2.856-14.838 3.313-22.343a68 68 0 0 1-3.643 11.092c-4.324 10.168-12.402 17.799-17.178 27.663-4.696 9.709-5.758 22.036-3.769 32.581.496 2.627 1.479 5.276.229 7.802-1.117 2.248-4.178 1.339-5.858.573-6.748-3.069-11.858-32.648-10.343-34.189 2.725-4.017 8.025-4.814 8.032-9.898.015-6.345-7.808-16.146-10.878-21.417" style="opacity:.4;fill:#f3bbb4"/><path d="M194.945 132.756c-.042-5.871-2.797-9.565-7.503-12.893-6.734-4.758-14.279-8.018-20.031-14.091-5.573-5.883-10.469-12.57-14.125-19.813-3.911-7.752-5.983-15.331-5.723-24.025.289-9.573 1.056-19.618 4.086-28.762 1.779-5.36 5.533-12.641 3.155-18.369 15.152 1.638 27.203 4.14 32.349 7.214 11.887 8.2 27.342 73.668 23.819 90.299-2.01 9.478-8.348 17.205-16.316 23.36.199-.957.301-1.942.289-2.92" style="opacity:.4;fill:#f3bbb4"/><path d="M154.487 69.859c3.144 16.579 20.391 44.87 51.134 51.096 43.032 2.95 44.788-14.084 53.283-18.021 13.67.413 13.278-34.54 8.438-36.279-16.196-5.823-23.031-13.723-25.824-21.58 0 0-3.43-8.863-10.596-16.477-17.85-18.961-44.825-19.534-60.738-5.114-20.579 18.651-17.761 35.503-15.697 46.375" style="fill:#f3bbb4"/><path d="M215.073 121.86h-.002c-2.98 0-6.17-.113-9.483-.344-30.056-6.08-48.287-33.808-51.654-51.55-1.971-10.376-5.267-27.74 15.871-46.897 7.258-6.581 16.922-10.198 27.216-10.198 12.813 0 24.997 5.447 34.309 15.336 7.16 7.608 10.679 16.578 10.71 16.664 3.321 9.333 11.657 16.276 25.492 21.252 3.341 1.201 4.263 13.356 2.676 22.469-1.677 9.612-5.609 14.909-11.066 14.909h-.114c-1.913.923-3.526 2.593-5.389 4.523-5.634 5.84-13.346 13.836-38.566 13.836M197.02 13.993c-10.013 0-19.41 3.519-26.459 9.91-20.669 18.73-17.447 35.71-15.522 45.85 3.311 17.44 21.228 44.686 50.695 50.651 3.217.213 6.381.331 9.337.331 24.743 0 32.264-7.799 37.756-13.492 1.975-2.053 3.684-3.819 5.839-4.821a.65.65 0 0 1 .257-.051l.218.004c6.543 0 9.047-8.76 9.957-13.979 1.792-10.284.054-20.493-1.945-21.216-14.178-5.089-22.735-12.262-26.168-21.915-.028-.072-3.47-8.84-10.474-16.283-9.096-9.666-20.992-14.989-33.491-14.989" style="fill:#f09783"/><path d="M244.967 56.421c-4.834-7.646-8.564-15.945-14.075-23.158-8.845-11.579-23.307-18.223-37.8-19.641 12.977-1.2 27.063 3.538 37.83 14.976 7.166 7.614 10.596 16.477 10.596 16.477 2.793 7.857 9.628 15.757 25.824 21.58.295.102.575.335.834.674-8.467-1.556-18.302-3.144-23.209-10.908" style="opacity:.4;fill:#f3bbb4"/><path d="M183.67 69.967c7.79-9.935 19.735-15.354 32.341-16.34 9.715-.757 22.954-1.628 31.162 4.794-11.268-.35-22.503-1.279-33.663 1.004-10.43 2.135-20.28 5.968-29.84 10.542" style="opacity:.4;fill:#f3bbb4"/><path d="M170.184 23.483c7.074-6.409 16.336-9.848 26.006-10.034-2.876 2.886.381 7.717 1.422 11.733 1.277 4.935 1.446 10.749-.139 15.643-.872 2.69-1.573 4.782-4.58 3.375-1.915-.901-3.794-1.85-5.782-2.598-5.149-1.937-14.96-6.649-19.513-.956-5.25 6.563-3.867 16.868-3.232 24.644 1.207 14.745 11.077 30.898 25.116 36.645 5.924 2.418 13.928 3.628 19.009-1.294 3.689-3.565 5.158-8.484 5.454-13.475 1.628 3.813 1.33 8.221.329 12.25a.85.85 0 0 0 .584 1.031c4.01 1.157 7.704 2.8 11.872 3.387 1.688.24 4.038.501 5.59-.462 1.73-1.077 2.528-2.872 2.6-4.896a50 50 0 0 1 2.204-13.077c2.308-7.519 5.311-16.969 13.842-19.34 5.403-1.502 11.848-1.342 17.074 1.109 4.145 4.673 3.845 36.163-9.135 35.767-8.495 3.937-10.251 20.971-53.283 18.021-30.743-6.226-47.99-34.517-51.134-51.096-2.065-10.873-4.883-27.725 15.696-46.377" style="opacity:.4;fill:#f3bbb4"/><path d="M234.996 38.488s-5.252-6.101-8.937.281c1.134-5.673 5.531-8.369 8.937-.281M211.163 37.735s-5.251-6.102-8.939.281c1.134-5.673 5.533-8.367 8.939-.281" style="fill:#9c4802"/><path d="M242.297 80.012c6.005-11.188 10.43-14.852 17.252-14.474 1.45.076 7.95.834 9.032 1.059 8.348 3.032 6.383 14.585 5.992 27.076-.374 11.966-11.961 11.833-17.555 12.684-.407-.055-13.912 0-14.42 0-7.664-.001-6.308-15.166-.301-26.345" style="fill:#f79797"/><path d="M242.599 106.919c-1.922 0-3.461-.887-4.464-2.56-2.823-4.718-1.212-15.533 3.666-24.62 6.143-11.44 10.689-15.156 17.781-14.764 1.419.077 7.94.825 9.114 1.07 7.639 2.771 7.189 11.891 6.666 22.456a254 254 0 0 0-.225 5.188c-.349 11.115-10.131 12.27-15.979 12.959-.74.093-1.436.169-2.051.263-.053.007-.1.014-.15.007-.107-.009-.738-.024-3.744-.024-3.235 0-7.651.016-9.614.024zm16.034-40.842c-6.066 0-10.21 3.713-15.842 14.201-4.63 8.619-6.285 19.165-3.69 23.501.8 1.338 1.979 2.014 3.497 2.014l.992-.003c1.967-.007 6.387-.021 9.622-.021 2.867 0 3.575.009 3.788.021.609-.089 1.296-.172 2.028-.261 5.836-.684 14.663-1.726 14.982-11.877.052-1.761.142-3.504.224-5.204.501-10.118.935-18.86-5.848-21.319-.944-.195-7.384-.949-8.867-1.029a15 15 0 0 0-.886-.023" style="fill:#e26180"/><g style="opacity:.4"><path d="M250.779 86.77c2.799-1.998 12.318-19.387 19.082-19.589 6.85 3.726 5.084 14.69 4.712 26.492-.374 11.966-11.961 11.833-17.555 12.684-.407-.055-13.912 0-14.42 0-6.367 0-6.504-10.462-2.934-20.415 2.255.416 8.895 2.415 11.115.828" style="fill:#f79797"/></g><g style="opacity:.4"><path d="M245.259 99.605c1.585-1.17 2.161-3.129 2.46-4.983.455-2.814 1.548-5.286 2.826-7.723.077-.047.165-.083.234-.13 2.799-1.998 12.318-19.387 19.082-19.589 6.85 3.726 5.084 14.69 4.712 26.492-.374 11.966-11.961 11.833-17.555 12.684-.407-.055-13.912 0-14.42 0-2.589 0-4.147-1.729-4.845-4.445 2.693-.166 5.333-.7 7.506-2.306" style="fill:#f79797"/></g><path d="M247.755 91.63c2.634-12.452 9.666-23.733 18.31-24.904 1.798-.245 3.296.131 4.544.872a10 10 0 0 1 2.002 1.698c1.41 1.616 2.341 3.71 2.932 5.501 1.55 5.091 1.565 11.84 1.344 18.885-.22 7.059-5.141 10.477-11.761 12.063-14.868 2.348-19.941-1.998-17.371-14.115" style="fill:#f79797"/><path d="M258.279 106.919c-4.717 0-7.917-1.122-9.792-3.433-2.04-2.515-2.46-6.435-1.283-11.976 3.43-16.215 11.905-24.412 18.783-25.346 1.783-.242 3.442.076 4.908.952.795.508 1.509 1.11 2.128 1.8 1.253 1.428 2.277 3.35 3.051 5.702 1.65 5.416 1.573 12.688 1.375 19.077-.203 6.466-4.304 10.705-12.194 12.599-2.643.418-4.975.625-6.976.625m8.853-39.708q-.479 0-.992.072c-7.673 1.04-15.008 11.1-17.836 24.458-1.1 5.191-.753 8.798 1.059 11.037 2.38 2.935 7.435 3.715 15.673 2.411 7.395-1.776 11.1-5.548 11.288-11.526.194-6.302.271-13.468-1.321-18.706-.726-2.196-1.677-3.979-2.817-5.292a9.3 9.3 0 0 0-1.88-1.591 6.17 6.17 0 0 0-3.174-.863" style="fill:#e26180"/><path d="M276.074 91.039c.294-2.457.376-4.748.083-7.215-.479-4.075-.807-8.882-3.453-12.229-2.045-2.593-4.795-4.236-7.633-4.687.332-.073.659-.141.993-.184 1.798-.245 3.296.131 4.544.872a10 10 0 0 1 2.002 1.698c1.41 1.616 2.341 3.71 2.932 5.501 1.55 5.091 1.565 11.84 1.344 18.885-.055 1.755-.404 3.287-.991 4.617-.619-2.305-.095-4.971.179-7.258" style="fill:#f79797"/><g style="opacity:.4"><path d="M247.755 91.63c2.482-11.748 8.879-22.442 16.853-24.601-1.916 1.04-3.649 2.736-4.998 4.988-2.686 4.491-4.771 9.348-5.984 14.45-.893 3.76-2.051 7.869-1.782 11.777.523 7.681 11.824 6.303 16.674 4.331 4.039-1.646 6.617-4.182 8.221-7.308-.867 5.988-5.514 9.015-11.612 10.477-14.869 2.349-19.942-1.997-17.372-14.114" style="fill:#f79797"/></g><path d="M273.719 82.102s-1.931 2.575-1.015 7.275c.609 3.902.482 6.249-1.403 5.794-3.577-.857-1.488-9.282 2.418-13.069M261.56 82.63s-2.191 2.348-1.786 7.119c.189 3.955-.19 6.271-2.014 5.617-3.461-1.235-.488-9.39 3.8-12.736" style="fill:#d86666"/><path d="m154.119 30.992 3.088 8.928s7.015-13.356 16.06-17.004c9.042-3.642-20.797-13.528-19.148 8.076" style="fill:#eb94a4"/><path d="M157.207 40.482h-.043a.57.57 0 0 1-.49-.38l-3.086-8.927a1 1 0 0 1-.03-.143c-.346-4.537.633-8.082 2.91-10.539 2.141-2.308 5.463-3.579 9.353-3.579 4.749 0 9.277 1.865 9.691 3.996.111.594.003 1.709-2.035 2.531-8.749 3.522-15.702 16.607-15.77 16.736a.57.57 0 0 1-.5.305m-2.532-9.605 2.652 7.666c1.92-3.33 8.045-13.049 15.73-16.147.551-.218 1.46-.683 1.348-1.271-.242-1.241-3.952-3.086-8.585-3.086-3.577 0-6.605 1.144-8.525 3.22-2.044 2.204-2.926 5.441-2.62 9.618" style="fill:#ea6a8d"/><path d="m154.119 30.992 3.088 8.928s7.015-13.356 16.06-17.004c9.042-3.642-20.797-13.528-19.148 8.076" style="opacity:.4;fill:#f3bbb4"/><path d="M157.207 39.92c-2.295-2.368-4.497-6.067-5.736-9.111a56 56 0 0 1-.522-1.938c-.932-3.692-2.694-8.339.135-11.684 2.927-3.459 6.878-2.95 10.977-3.32 3.399-3.771 7.239-7.368 11.901-9.491 4.197-1.91 8.765.526 11.5 3.541 16.762 18.493 10.938 34.038 8.749 34.219-5.069.422-26.7-19.207-33.425-15.485-2.137 1.178-3.699 10.443-3.579 13.269" style="fill:#f3bbb4"/><path d="M194.044 42.705c-2.301 0-6.944-3.033-12.325-6.546-6.758-4.416-14.418-9.415-18.87-9.415-.709 0-1.315.133-1.793.398-1.711.946-3.364 9.378-3.293 12.599q.03.084.029.179c.003.313-.243.55-.573.563a.54.54 0 0 1-.415-.172c-2.173-2.241-4.47-5.884-5.853-9.286a51 51 0 0 1-.551-2.014c-.109-.439-.23-.886-.354-1.351-.927-3.415-2.073-7.659.608-10.834 2.563-3.037 5.789-3.204 9.208-3.382a61 61 0 0 0 1.925-.119c2.924-3.227 6.899-7.172 11.94-9.465a8 8 0 0 1 3.366-.727c3.001 0 6.282 1.646 8.78 4.404 5.817 6.414 9.514 13.071 10.991 19.782 1.49 6.774.198 11.192-.43 12.776-.364.932-1.137 2.513-2.177 2.599-.069.011-.141.011-.213.011m-31.195-17.091c4.787 0 12.597 5.1 19.486 9.599 5.013 3.271 9.742 6.365 11.709 6.365l.12-.003c.181-.041.873-.722 1.467-2.566.757-2.341 3.798-14.841-10.59-30.714-2.287-2.524-5.261-4.032-7.946-4.032a6.9 6.9 0 0 0-2.899.625c-4.934 2.245-8.854 6.18-11.716 9.354a.57.57 0 0 1-.366.184c-.739.063-1.47.107-2.19.144-3.306.169-6.159.323-8.41 2.983-2.3 2.72-1.28 6.489-.378 9.815.123.467.247.922.36 1.364q.24.96.517 1.922c1.121 2.75 2.889 5.701 4.675 7.838.271-3.722 1.672-11.148 3.825-12.337.649-.36 1.435-.541 2.336-.541" style="fill:#f09783"/><path d="M158.897 26.049c2.885-1.212 5.93-.438 8.649.805.112.05.36.467.103.414-2.432-.509-4.585-1.266-7.104-.787-2.792.539-4.484 2.147-5.218 4.852-.038.148-.227-.038-.221-.133.268-2.621 1.362-4.128 3.791-5.151M160.047 13.853c1.225-.349 2.22-.297 3.462-.388 1.572-.109 3.009-.446 4.498-.941 2.106-.695 3.924-1.581 5.459-3.115.052-.057.165.08.129.133-1.206 1.732-2.586 2.619-4.593 3.436-2.737 1.104-5.829 1.543-8.768 1.283-.136-.012-.403-.343-.187-.408" style="fill:#f09783"/><path d="m208.544 14.762-.175-.07a24 24 0 0 0-2.528-.892c2.304-3.172 6.989-5.025 10.681-5.679 4.607-.819 9.18 1.002 12.944 3.519 4.52 3.012 7.26 7.837 11.619 11.029 4.653 3.401 9.874 4.587 15.515 5.008.319.024.671.47.537.78-.55 1.295-2.249 1.782-3.471 2.206-2.146.743-4.699.608-6.858.069-2.446-.611-5.066-1.298-7.298-2.501-2.108-1.132-3.994-2.643-5.862-4.126-4.465-3.548-8.624-7.616-14.63-8.033-1.818-.126-4.366-.362-6.206.288-1.35-.719-2.794-1.208-4.268-1.598" style="fill:#f3bbb4"/><path d="M250.329 31.743c-1.183 0-2.444-.159-3.659-.465-2.652-.662-5.213-1.358-7.427-2.551-2.099-1.129-3.985-2.624-5.809-4.076l-.136-.107c-.585-.463-1.165-.934-1.741-1.403-3.876-3.163-7.536-6.155-12.579-6.504l-.382-.03a36 36 0 0 0-2.577-.118c-1.268 0-2.256.132-3.019.403a.6.6 0 0 1-.452-.035c-1.156-.616-2.474-1.107-4.151-1.55-.022-.006-.132-.051-.156-.06-1.072-.438-1.832-.703-2.554-.904a.56.56 0 0 1-.378-.36.56.56 0 0 1 .077-.515c2.424-3.342 7.295-5.238 11.038-5.903 4.141-.738 8.696.499 13.355 3.602 2.426 1.621 4.363 3.763 6.234 5.83 1.659 1.833 3.375 3.73 5.401 5.215 3.976 2.903 8.668 4.414 15.225 4.902.353.023.7.254.913.603.192.313.228.663.103.964-.604 1.426-2.293 1.997-3.526 2.419l-.28.094c-1.045.364-2.234.549-3.52.549m-34.31-16.384c.931 0 1.851.064 2.658.125l.378.027c5.403.377 9.374 3.617 13.215 6.753.573.469 1.147.938 1.727 1.396l.139.112c1.785 1.419 3.629 2.878 5.641 3.962 2.102 1.129 4.59 1.809 7.167 2.447 2.323.588 4.739.572 6.54-.054l.284-.1c1.084-.367 2.436-.825 2.85-1.783-.026.047-.071-.003-.098-.016-6.738-.495-11.615-2.075-15.766-5.107-2.122-1.548-3.878-3.495-5.576-5.369-1.826-2.02-3.713-4.107-6.023-5.646-4.412-2.944-8.68-4.116-12.535-3.435-3.282.583-7.455 2.146-9.819 4.831.531.177 1.106.39 1.78.661l-.036.597.142-.546c1.662.441 2.994.931 4.173 1.534.848-.261 1.886-.389 3.159-.389" style="fill:#f09783"/><path d="M212.421 9.259c-.826.913-1.461 1.978-1.809 3.204-.136.47.257 1.134.808 1.059 11.342-1.502 18.644 5.753 27.74 11.062 5.228 3.048 11.993 6.314 17.845 4.108-.647 1.111-2.197 1.576-3.339 1.971-2.146.743-4.699.608-6.858.069-2.446-.611-5.066-1.298-7.298-2.501-2.108-1.132-3.994-2.643-5.862-4.126-4.465-3.548-8.624-7.616-14.63-8.033-1.818-.126-4.366-.362-6.206.288-1.35-.719-2.793-1.207-4.268-1.598l-.175-.07a24 24 0 0 0-2.528-.892c1.496-2.058 3.997-3.561 6.58-4.541" style="opacity:.4;fill:#f3bbb4"/><path d="M233.528 51.668c.723 2.813 2.3 4.922 3.554 4.73 1.253-.201 1.665-2.656.965-5.471-.711-2.824-2.292-4.93-3.535-4.738-1.243.216-1.687 2.658-.984 5.479"/><path d="M233.922 49.569c.193.747.615 1.313.95 1.259.331-.057.442-.71.254-1.461-.189-.747-.609-1.31-.941-1.259-.331.057-.449.709-.263 1.461" style="fill:#fff"/><path d="M205.535 54.43c.72 2.813 2.299 4.922 3.552 4.729 1.253-.201 1.664-2.656.964-5.47-.71-2.823-2.288-4.931-3.536-4.735-1.239.212-1.684 2.653-.98 5.476"/><path d="M205.93 52.33c.19.751.612 1.313.947 1.259.33-.053.442-.708.253-1.457-.189-.747-.608-1.313-.939-1.26-.332.056-.45.708-.261 1.458" style="fill:#fff"/><path d="M151.084 17.187c2.927-3.459 6.878-2.95 10.977-3.32 3.399-3.771 7.239-7.368 11.901-9.491a7.6 7.6 0 0 1 1.425-.477c2.189 1.405.502 5.703-.402 7.412-1.412 2.679-3.565 3.597-6.53 3.879-3.811.36-8.274.071-11.082 3.127-.512.559-.14 1.379.59 1.432 5.902.413 11.82 2.885 17.059 5.509 4.121 2.064 8.088 4.326 11.693 7.196 2.915 2.311 7.214 3.589 7.492-1.566.322-5.925-1.62-12.721-5.072-18.482 12.143 16.455 7.086 29.562 5.077 29.731-5.069.422-26.7-19.207-33.425-15.485-2.137 1.18-3.699 10.444-3.579 13.271-2.295-2.368-4.497-6.067-5.736-9.111a56 56 0 0 1-.522-1.938c-.933-3.695-2.695-8.342.134-11.687" style="opacity:.4;fill:#f3bbb4"/><path d="M212.539 99.002q.043.054.077.106a10 10 0 0 0 .777-2.264c.5-1.52.823-3.102.956-4.659.645 2.867.464 5.809-.568 8.276 5.009 5.292 12.934 7.64 20.084 7.521 5.926-.094 13.162-3.369 18.975-1.355.058.021.159.206.047.186-4.15-.719-9.126.609-13.2 1.43-4.05.813-8.428 1.326-12.501.392-3.984-.913-8.862-2.253-12.026-5.025-.573-.504-1.318-1.111-2.059-1.798-1.524 2.555-4.132 4.375-7.864 4.668l-.019-.002c3.302-1.356 5.779-4.158 7.321-7.476M108.726 124.748c.069-.201.382.13.365.27-.728 5.601-1.206 11.156.177 16.702 1.177 4.694 2.237 9.212 3.938 13.763.059.16-.145.084-.184-.016-2.061-5.184-4.232-9.837-5.545-15.29-1.236-5.148-.384-10.49 1.249-15.429M61.22 146.632c1.737-3.459 4.019-6.62 5.574-10.182.094-.218.438.154.378.338-.683 1.975-1.625 3.796-2.433 5.726-.653 1.577-1.527 3.702-3.018 4.645-.248.154-.621-.29-.501-.527M147.474 155.814c1.106-3.458 3.063-6.426 5.051-9.427.094-.139.324.109.263.234a118 118 0 0 1-2.631 5.033c-.815 1.494-1.33 3.119-2.204 4.579-.166.279-.549-.203-.479-.419" style="fill:#c36564"/><path d="M186.553 11.438c2.829 4.91 5.075 9.498 5.335 15.327.02.488-.551.054-.603-.216-.911-4.591-2.382-9.145-5.079-13.027-1.365-1.964-3.257-4.844-5.564-6.545 2.205 1.057 4.178 2.629 5.911 4.461M219.363 9.43a13 13 0 0 0-.45-.226c3.01-.478 5.904 1.131 8.523 2.457 1.836.932 3.373 2.616 4.862 3.994.406.373.916 1.088 1.442 1.785-4.183-3.481-9.238-5.775-14.377-8.01M72.96 25.44S32.442 36.148 25.609 69.967c0 0 16.111-30.851 47.351-44.527M141.556 152.895c.491-2.562 1.395-5.015 2.17-7.494 1.053-3.379 2.533-5.355 4.588-8.145.255-.35.716.266.627.555-1.66 5.49-3.885 10.815-5.232 16.398-1.221 5.061-1.49 10.209-2.516 15.26-.112.56-.86-.08-.871-.423-.135-5.292.237-10.961 1.234-16.151M180.125 153.982c.129-.166.426.203.388.342-1.111 4.063-2.358 8.07-2.974 12.244-.846 5.706-.355 11.292.071 17.002.028.393-.432.027-.482-.175-2.457-10.047-3.875-20.811 2.997-29.413M57.639 140.412c.162-.183.491.255.41.426-1.159 2.502-2.577 4.855-3.484 7.468-1.156 3.326-1.931 6.717-2.71 10.146-1.308 5.746-1.396 12.32-1.116 18.159.021.37-.434.051-.466-.169-1.869-12.675-1.486-25.878 7.366-36.03M79.665 165.58c.408-2.685 1.276-4.775 2.847-6.998.151-.216.482.142.441.325-1.142 5.161-1.236 10.535-1.219 15.783 0 .357-.515-.039-.558-.202-.9-3.144-2.014-5.601-1.511-8.908M246.429 58.396s-30.252-4.985-56.064 8.975c0 0 23.16-10.858 56.064-8.975" style="opacity:.4;fill:#f3bbb4"/><path d="M244.627 79.42a80 80 0 0 1 2.784-5.197 71 71 0 0 1 2.634-3.753c2.327-3.052 5.295-3.82 7.323-3.944a61.5 61.5 0 0 0-12.741 12.894" style="fill:#f79797"/></svg>