<svg xmlns="http://www.w3.org/2000/svg" width="125.621" height="135.353" viewBox="-0.339 0.317 125.621 135.353"><path d="m57.803 56.726-9.309.9c-.17 3.477-1.922 6.916-5.71 10.62-9.711 9.474-6.155 21.61-7.311 23.159.128.582 8.334 5.21 8.788 5.584l6.094.294c3.381-7.579 8.139-16.053 9.176-18.028 6.227-11.89-1.032-18.597-1.728-22.529"/><path fill="#be8264" d="M66.818 61.34c-.345-5.836-2.841-7.963-6.581-12.046 0 0-7.543-6.92-13.925-2.013l-.474 8.763s-1.098 7.342 8.225 13.737c2.727 1.866 7.234 1.151 8.934.303 4.92-2.468 3.921-7.034 3.821-8.744"/><path fill="#a06446" d="M63.655 56.257c-4.067-4.864-2.187-4.556-1.117-5.125 1.245.668 2.263 2.004 3.257 3.638-.071.227-.061.54-.213.616-.625.336-1.297.597-1.927.871"/><path d="M55.526 56.712s5.412 7.721-2.808 18.55l-9.721-2.004 4.058-10.298z"/><path fill="#be8264" d="M58.509 60.828c1.013-2.439.558-3.889-3.788-4.736-2.595-.474-4.12 1.79-2.969 3.789 1.444 2.487 4.593 2.402 6.757.947"/><path fill="#008264" d="M61.08 48.896c-2.993 2.43-12.936 12.88-16.075 15.258-4.863-4.292-5.862-13.68.857-18.744 8.75-6.594 15.218 3.501 15.218 3.486"/><path fill="#008264" d="m42.41 68.668 1.25-5.064 5.436-3.06 2.632-1.16z"/><path fill="#be0a3c" d="M58.802 49.957 41.491 60.08l1.894 4.481s17.628-10.573 18.22-11.368z"/><path fill="#f01446" d="M72.41 63.614c-1.771-3.401-12.576-17.688-13.362-18.706-1.24-1.62-4.862-6.063-5.525-6.111-2.387.545-4.423 2.914-4.423 2.914s4.129 6.228 5.606 8.284c1.719 2.397 8.523 11.222 10.114 12.918 1.283 1.378 2.841 4.088 4.778 4.381 1.264-.265 2.059-1.198 2.916-2.051a2.08 2.08 0 0 0-.104-1.629"/><path fill="#f0e6d2" d="M72.41 56.575a566 566 0 0 0-4.938-6.419l-1.307 1.028 5.076 6.305zM64.001 45.732a518 518 0 0 0-4.938-6.418l-1.298 1.013 5.066 6.31z"/><path fill="#f0e6d2" d="m65.994 41.995-9.128 7.313 4.843 6.239c6.795-5.05 1.942-1.364 9.271-7.153zm-.033 2.676 2.756 3.377-6.894 5.107s-1.818-2.402-2.519-3.316c4.498-3.354 6.657-5.168 6.657-5.168"/><path fill="#be8264" d="M82.671 98.001s0-.33-.54-.931c.06.541.21.901.54.931M109.749 22.252l-28.745 55.34-8.693-5.101 31.865-54.588z"/><path fill="#be0a3c" d="M64.867 83.977c2.519-4.817 6.629-12.263 9.499-16.863 1.145.09 10.151 6.509 10.151 6.509s-7.126 15.361-8.651 17.242c-1.529-.839-9.517-5.85-10.999-6.888"/><path fill="#824600" d="M119.384 19.921c.474.076 4.669-4.116 5.398-4.036-.35-1.07-.748-4.372-1.207-5.21-.27-.474-.512-1.014-.762-1.516l-.474-.947c-.473-.948-1.259-1.62-1.937-2.393a15.4 15.4 0 0 0-4.947-3.618c-1.577-.768-3.315-.981-5.038-1.265a7 7 0 0 0-1.061-.033h-.53c-.919-.029-1.837-.067-2.756-.086-.161 0-3.485 1.421-3.731 1.478l4.863 11.786s11.524 5.736 12.182 5.84"/><path fill="#642800" d="M118.963 16.691c-.549-2.028-3.035-5.59-4.427-6.935-1.776-1.71-4.044-2.279-6.477-2.459-.261.09-3.433 0-3.788.119-.147.227-4.262 5.873-4.262 5.873l12.993 10.924z"/><path fill="#a0640a" d="M124.01 14.313c.417.429.687.98.772 1.572-1.027 6.206-5.502 12.198-11.719 13.05-5.535.753-10.681.09-14.294-4.31-6.117-7.451-2.178-17.493 2.694-22.363 1.724-.526 2.59-.616 3.58-.374a5.68 5.68 0 0 1 1.737 4.348c-.208.237-.828 2.369-.885 2.416-1.368 3.908-1.236 8.526 3.826 9.891 4.99 1.345 9.597-5.898 14.289-4.23"/><path fill="#be8264" d="M100.928 30.404s.36 0 1.051-.24c-.54-.121-.901-.06-1.051.24M39.413 98.681l-6.208-4.785c-.714.948-10.497 10.246-18.555 16.475-3.788 2.932-8.855 5.315-9.371 5.59A30 30 0 0 1 .9 118.026q-.38.162-.739.369c.473 0 2.367-.772 2.694-.128.327.645-2.315 1.161-2.685 1.317l.043.109 2.448-.218c.27.138.45.289.369.644-.682.422-1.52.294-2.325.522.105.09.161.161.233.184q1.803.625 3.612 1.237.269.079.545.123c1.529.331 3.035.076 4.512-.266a44.6 44.6 0 0 0 18.759-8.469c11.909-9.213 9.986-14.139 11.047-14.769"/><path fill="#be0a3c" d="M41.397 79.776s-7.013 7.157-10.227 12.145l6.538 4.879z"/><path fill="#f01446" d="M68.542 76.143c0 .289-20.497-.862-22.941.298a12.05 12.05 0 0 0-4.204 3.316c-.398.474-4.906 12.813-4.906 12.813s-.359 4.329-.033 4.609l20.157 9.474 15.89-7.627 7.348-16.02s-10.53-6.844-11.311-6.863"/><path fill="#6e1e3c" d="M69.418 76.256c-3.367-2.392-8.111-3.623-12.784-3.557-4.508.066-8.949 1.34-12.013 3.95-.071.91-4.181 26.688-4.261 27.55l35.596.284c-.033-.483-4.185-25.858-6.538-28.227"/><path fill="#008264" d="m92.571 95.758-2.472-11.7c-2.599-.474-6.534 3.027-8.442 4.471-1.524 1.152-8.75 6.158-14.522 10.052-2.84 1.918-9.976 2.487-12.916 1.374-7.51-2.842-9.442-5.732-11.028-7.475-7.878-8.664-15.459-7.664-15.459-7.664l-2.268 22.405s4.441 12.723 32.699 12.723 30.483-11.127 31.894-12.519c3.22-3.188-.407-8.233 2.514-11.667"/><path fill="#00a08c" d="M27.732 84.816c-.289.241-2.841.346-5.17 4.263-2.33 3.917-2.964 8-1.724 16.967l12.339-.473s-5.355-20.26-5.445-20.757"/><path fill="#f01446" d="M35.791 119.276c-.711-2.51-1.321-4.983-1.932-7.531-.18-.768-.876-2.558-1.312-4.183h-11.52c.867 4.386 1.828 8.607 3.651 12.79 1.084 2.486 2.197 4.954 3.485 7.342 1.018 1.894 3.134 4.329 3.594 6.38-.289 0-2.841.18-2.841.18l-.067.687s9.442.682 10.554-.308c-.099-.862-.388-1.705-.535-2.567a123 123 0 0 0-3.077-12.79"/><path fill="#6e1e3c" d="m36.16 115.668-.54-3.004H20.881l.468 3.004zM37.259 119.704l-.54-3.005h-14.74l.474 3.005zM20.232 110.954l14.848-.379-1.387-6.158H18.958z"/><path fill="#00a08c" d="M99.697 94.593c-.848-5.476-3.878-9.607-9.598-10.535-1.245 4.704-5.899 21.903-6.278 25.683l14.55-1.089c.952-4.453 2.031-9.517 1.326-14.059"/><path fill="#f01446" d="m84.048 106.132-.27.644c-2.272 9.431-4.597 18.976-7.76 28.113 2.05 0 3.348.175 4.948 0 1.004-.104 2.344 0 3.508-.156 0-.261.067-.521.109-.782H82.15c.999-2.037 3.655-3.832 5.042-5.684a145 145 0 0 0 5.322-7.622c2.874-4.4 4.735-9.398 6.089-14.532z"/><path fill="#6e1e3c" d="m80.478 115.668.62-3.004h16.8l-.531 3.004zM79.228 119.704l.616-3.005h16.804l-.535 3.005zM98.92 110.954l-16.766-.379 1.563-6.158h16.638z"/></svg>