<svg xmlns="http://www.w3.org/2000/svg" width="117.571" height="42.925" viewBox="2.411 18.01 117.571 42.925"><path fill="#080808" d="M119.291 35.71q.237.352.18.646c-.39.434-.783.358-1.293.36a32 32 0 0 0-4.335-.231 1.4 1.4 0 0 1-.883-.172c-.197-.038-.257-.253-.317-.469q.057-.294.41-.531c.097.019.215-.06.313-.041 1.628.01 3.275-.077 4.962.15.295.056.668.231.963.288M116.129 45.69c-.748-.349-1.612-.619-2.457-.987l-1.71-.638c-.177-.136-.374-.174-.649-.33-.275-.155-.218-.45-.18-.646s.292-.452.507-.512q.47-.062.884.171c1.14.426 2.358.968 3.498 1.394.472.193.71.545 1.064.817.098.02.158.235.022.412-.137.177-.254.256-.568.297-.117.08-.215.06-.411.022"/><path fill="#090909" d="M116.872 27.192q-.086.442-.41.532c-.313.04-.645.18-1.076.3-1.175.28-2.154.6-3.152 1.017-.117.08-.333.14-.548.2-.314.04-.491-.096-.65-.33-.06-.216.077-.393.213-.57.137-.178.352-.238.568-.298.782-.357 1.546-.616 2.21-.894.647-.18 1.49-.322 2.196-.287.215-.06.392.077.49.096.099.019.178.136.159.234"/><path fill="#010001" d="M39.548 23.224c.466-.826.973-1.34 1.933-1.56 1.058-.202 2.04-.011 2.847.553.354.273.61.527.73.957.102.53-.21 1.08-.757 1.28-.235.157-.549.198-.783.357l-.646.18c-.254.256-.077.392-.036.706.982.19 1.983.283 2.907.768a6.6 6.6 0 0 1 2.037-.52c.313-.041.469-.317.428-.63-.14-.333-.453-.292-.649-.33-.49-.096-.943-.387-1.279-.758-.592-.625-.654-1.35-.03-1.942 1.132-1.104 3.583-1.137 4.725-.202.868.78.6 2.154-.594 2.534-.43.12-.842.141-1.175.28-.155.276-.194.472.044.824.57.212 1.295.15 1.827.559.452.291.807.564.81 1.074.021.412.062.725.103 1.039.197.038.276.155.276.155 1.862-.147 3.667 0 5.412-.068 2.059-.11 4.08-.022 6.119-.033 2.04-.011 4.06.076 6.001.046.726-.063 1.334-.047 2.059-.11 2.059-.109 4.196-.1 6.255-.21 2.784-.172 5.606-.54 8.308-1.34 2.82-.877 5.677-1.952 8.26-3.182a28.4 28.4 0 0 0 7.034-4.745c.294.058.43-.12.646-.18q1.026-.565 1.767.344c.335.37.535.919.753 1.369.616 1.546.919 3.132 1.123 4.7.549 3.469.98 7.016.999 10.585.087 1.647-.022 3.256-.111 4.767-.221 2.707-.423 5.317-.957 8.065a27 27 0 0 1-1.058 3.87c-.213.57-.406 1.041-.796 1.475-.545.709-.957.73-1.821.46-.865-.27-1.358-.874-1.97-1.4-3.544-2.727-7.362-5.1-11.607-6.841-2.34-1.066-4.698-2.034-7.213-2.727-.766-.25-1.532-.501-2.336-.556-.706-.035-1.238-.444-1.846-.46-.254.256-.077.392.081.627.2.548.516 1.017.715 1.565 1.154 2.975.265 5.45-1.704 7.716-.526.611-1.21.988-1.895 1.364-1.916.952-3.972 1.57-6.05 1.778a5 5 0 0 0-1.156.183c-.74 1.18-1.953 1.658-3.343 1.999-.96.22-1.92.442-2.841.466-2.353.052-4.687.006-6.943.077-.51.003-1.06-.308-1.51-.09-.352.237-.213.57-.368.845-.117.08-.136.178-.235.159a6.67 6.67 0 0 1-4.016.747c-.608-.016-1.118-.014-1.688-.226-.275-.156-.608-.017-.842.142-1.467.733-2.997.742-4.488.553-1.004-.602-2.081-.302-3.158-.002s-2.059.11-3.138-.1c-.491-.096-.963-.29-1.28-.759.311-.55.131-1.197.069-1.922-2.02-.087-3.943-.155-5.827-.42-1.197-.13-2.375-.36-3.36-1.06-1.161-.837-2.01-1.715-2.233-3.185-3.466-2.609-5.582-5.873-4.999-10.446-2.236-.027-4.43.26-6.667.233-1.014 1.025-1.445 1.145-2.685.19-1.096.399-2.133 1.013-3.466 1.059-.728-.447-1.085-1.23-1.148-1.955-.224-1.47-.35-2.92.114-4.257.308-1.06.777-1.376 1.955-1.148.785.153 1.533.502 2.28.851.234-.158.351-.237.567-.297.567-.297 1.096-.398 1.628.01.433.39.845.369 1.355.366 2.353-.052 4.608-.123 6.961-.175.098.019.216-.06.333-.14.155-.275.292-.452.447-.727.796-1.475 1.928-2.58 3.316-3.43 1.036-.614 1.954-1.149 2.952-1.566 1.547-.616 3.054-1.036 4.622-1.24 1.058-.203 2.097-.306 3.057-.527.038-.197.155-.276.174-.374-.182-1.156.54-1.729 1.44-2.165.45-.218.782-.357 1.232-.575.273-.355.153-.786.112-1.1-.335-.37-.668-.231-.943-.386-.374-.175-.669-.232-.906-.584-.414-.488-.417-.998-.224-1.47.584-.905 1.465-1.243 2.367-1.17 1.315.052 2.375.36 3.049 1.612.005 1.02-.131 1.197-1.012 1.535l-1.292.36c-.076.393-.055.804.183 1.156.94-.123 1.805.147 2.612.712.352-.238.684-.377 1.017-.516.352-.237.763-.259 1.017-.515.057-.295-.003-.51-.161-.745-1.535-1.011-1.535-1.011-1.816-2.186m-3.066 31.494c-.392-.077-.747-.35-1.02.005-.215.06-.253.256-.272.355.003.51.104 1.038.125 1.45s.006 1.02.028 1.432c.04.313.218.45.395.586 1.336.463 2.749.534 4.098-.12-.065-1.236-.052-2.354-.117-3.589-1.099-.112-2.255.071-3.237-.12m17.699-5.627c-.472-.193-.864-.27-1.314-.052-.216.06-.333.14-.194.472.314-.04.608.017.922-.024.354.272.218.45-.036.706.197.038.374.174.472.193.922-.024 1.745-.068 2.667-.093 1.137-.084 2.274-.169 3.373-.057l6.118-.033c-.474-.704-.651-.84-1.398-1.189-1.28-.758-2.654-1.025-4.164-1.115-1.707-.128-3.335-.139-5.06-.169-1.02.006-1.942.03-2.864.055.1.53.1.53.2.548.607.017 1.117.014 1.706.128.196.038.374.175.316.47-.038.196-.155.275-.37.335-.06-.216-.159-.235-.374-.175m-14.482-5.158c.232-.668.07-1.412.125-2.217-1.431.028-2.745-.024-4.079.022-.313.041-.529.101-.684.377.23 2.49.145 5.02-.038 7.53 1.609.11 3.12.2 4.551.172.254-.256.194-.471.232-.668.03-1.726-.058-3.373-.145-5.02.215-.06.117-.079.038-.196m64.731-19.609c-.155.275.044.824-.564.807-.434-.39-.339-.88-.44-1.41-.199-.547-.3-1.076-.499-1.625-.1-.529-.22-.96-.518-1.526-.272.354-.33.648-.289.962s.26.764.3 1.077c.26.764.42 1.508.562 2.35.041.314-.016.609-.428.63-.474-.703-.48-1.723-.935-2.524-.352.237-.292.452-.251.766.12.43.24.861.243 1.371.021.412-.115.59-.723.573l-.229 1.178c-.45 3.886-.605 7.828-.564 11.81.009 1.529.134 2.98.26 4.43.084 1.137.169 2.274.37 3.332-.155.276-.114.59.377.685.057-.295.213-.57.25-.767-.078-.117 0 0 .099.02.177.136.12.43.18.646-.095.49-.21 1.08-.403 1.551-.194.472-.172.884.163 1.255.565-.808.087-2.021.946-2.77.276.154.355.272.336.37.04.313-.036.706.005 1.02-.073.902-.264 1.884-.73 2.71-.175.374-.134.687.22.96.467-.826.62-1.612.753-2.299.114-.589.21-1.08.422-1.65.058-.294.292-.452.568-.297.335.371.24.862.163 1.255l-.248 1.276c-.193.471-.387.943-.463 1.336-.194.471-.644.69-.64 1.2.255.253.55.31.803.054q.381-.385.467-.826c.231-.668.463-1.336.578-1.925.308-1.061.321-2.179.433-3.278.36-2.375.72-4.75.883-7.163.03-1.726.06-3.452-.008-5.197-.129-1.96-.276-3.823-.404-5.783-.186-1.666-.273-3.313-.753-5.037-.145-1.352-.603-2.663-1.178-3.896-.06-.215-.219-.45-.415-.488-.235.158-.273.355-.095.49.436.9.755 1.88 1.055 2.956.041.314.025.922.341 1.391m-3.684-3.059-.82.553c-1.173.791-2.247 1.601-3.4 2.294a19.8 19.8 0 0 1-3.815 1.805c-2.192.797-4.325 1.808-6.558 2.291-1.39.341-2.781.682-4.232.807-3.43.352-6.901.39-10.274.448-2.765.074-5.53.148-8.276.123-4.392.063-8.766.028-13.14-.007-2.764.074-5.51.05-8.294.221-3.842.374-7.725.434-11.545 1.22-1.685.284-3.272.587-4.935 1.282s-3.09 1.742-4.338 2.926c-.488.414-.78.867-.914 1.554.609.017 1.001.093 1.413.071l4.294-.082c2.354-.052 4.57.073 6.825.002 3.766.02 7.453-.08 11.12-.08 2.648.006 5.314-.087 7.962-.082 2.961-.035 5.805.008 8.747.07 2.02.088 3.943.156 5.846.322 1.707.128 3.455.57 5.066 1.188 1.631.521 3.145 1.12 4.347 2.271.335.371.728.448 1.219.543 2.08.303 4.24.722 6.225 1.516 1.415.58 2.77.946 4.186 1.526a80 80 0 0 1 6.528 3.103c2.086 1.322 4.153 2.743 6.318 4.182.177.137.335.371.57.213-.08-.117-.06-.215-.041-.314-1.318-4.229-1.91-8.52-1.874-12.894-.014-2.55-.028-5.099.174-7.708.141-2.825.577-5.593 1.406-8.284.175-.374.33-.65.21-1.08M10.716 41.05c1.961-.128 3.805-.177 5.648-.227 3.078-.114 6.157-.229 9.197-.147 1.333-.047 2.648.005 3.962.057 1.137-.085 2.236.027 3.354.04 2.353-.052 4.687-.005 6.942-.077 2.47-.13 5.02-.144 7.452-.079 1.922.068 3.727.215 5.65.283 1.608.11 3.217.218 4.845.229 1.118.014 2.296.242 3.414.256 2.413.163 4.807.425 7.144.981 1.276.248 2.378.87 3.362 1.57.61.527 1.104 1.132 1.344 1.994.56 1.84-.45 3.885-2.407 4.523-.998.418-1.977.737-3.095.723-1.548.107-3.176.096-4.706.104-1.745.069-3.433-.158-5.197.009-2.391.248-4.824.183-7.177.235l-3.354-.041c-1.216-.033-2.53-.084-3.746-.117-2.334-.046-4.57-.073-6.885-.218-2.315-.144-4.59.025-6.806-.1-.608-.017-1.254.163-1.802.362-.333.14-.567.298-.625.592q.033.618.418.998c.177.136.275.156.471.194.688.133 1.473.286 2.179.321 3.316.237 6.631.474 9.906.398 1.942-.03 3.981-.041 5.904.027 1.922.068 3.961.057 5.884.125 2.628.103 5.159.188 7.67.37 2.629.104 5.295.01 7.864-.101 1.96-.129 3.899-.669 5.66-1.345 2.525-.935 4.954-5.047 3.446-8.295-.834-1.996-2.176-3.479-4.142-4.37-2.91-1.279-5.99-1.674-9.09-1.971-1.511-.09-3.041-.082-4.552-.172-3.667 0-7.236.02-10.786-.059-1.118-.014-2.274.17-3.373.057-1.726-.03-3.471.039-5.197.009l-8.884.107c-3.766-.019-7.63-.057-11.395-.076-1.941.03-3.981.041-5.922.072-1.02.005-2.04.01-2.98.133-.055.805.087 1.647.406 2.626m56.845 8.91c.96-.22 1.9-.343 2.683-.7.998-.418 1.562-1.225 1.772-2.305.115-.589-.084-1.137-.4-1.606-.494-.605-1.105-1.131-1.852-1.48-.57-.213-1.22-.543-1.808-.657-2.454-.478-4.867-.64-7.261-.903-.314.041-.59-.114-.843.142 1.05 1.936 1.034 2.544-.076 4.06.098.02.177.137.177.137 1.137-.085 2.217.125 3.376.452 1.65.423 3.378.962 4.232 2.86m-33.384-8.017c-1.197-.13-7.002-.139-8.237-.073-1.5 1.95-1.295 3.517.518 5.194 2.135-.502 4.311-.69 6.509-.467.412-.021.824-.043 1.254-.163-.008-1.53-.035-2.961-.044-4.491m-.048 12.826c-.196-.038-.275-.155-.392-.076-1.413-.07-2.806-.24-4.219-.31-.608-.017-1.197-.131-1.786-.246a1.9 1.9 0 0 1-.747-.349c-1.082-.72-1.173-2.876.275-3.512.665-.278 1.429-.537 2.135-.502.922-.024 1.745-.068 2.648.006.725-.063 1.412.07 2.059-.11.016-.608.032-1.216.03-1.726-.65-.33-1.296-.15-1.806-.147-2.02-.087-3.883.06-5.821.6a9 9 0 0 1-1.096.399c-1.546.616-2.08 3.365-1.388 4.518.712 1.055 1.519 1.62 2.678 1.947 1.748.441 3.455.57 5.279.618.706.036 1.393.17 2.157-.09-.022-.412-.063-.725-.006-1.02m-11.376-3.84c.153-.786.384-1.454.793-1.986.428-.63.916-1.044 1.443-1.655-.77-.76-.99-1.72-1.113-2.661-.202-1.058.185-2.002.75-2.809-1.197-.13-5.08-.07-5.726.11-.848 2.789.96 7.114 3.853 9m18.35-1.12c.786.153 3.826.234 4.767.112.123-2.727-.167-5.432-.063-8.06-.177-.137-.276-.156-.276-.156-1.431.027-2.863.055-4.177.003-.215.06-.412.022-.567.297-.065 2.432.36 4.96.178 7.471.079.118.06.216.139.333m10.417.395c.286-1.473.043-2.844.095-4.158.07-1.413.024-2.746.076-4.06-1.159-.328-3.905-.352-4.845-.23-.17 1.394-.025 2.747.022 4.08.125 1.45.073 2.765-.016 4.275 1.726.03 3.138.101 4.668.093M40.856 58.42c1.827.559 3.515.785 5.175-.42-.22-.96-.128-1.96-.133-2.98-1.825-.05-3.433-.158-5.277-.11.085 1.138.17 2.275.235 3.51m11.875-1.869c.294.058.57.213.785.153 2.334.046 4.57.074 6.825.002 1.235-.065 2.47-.13 3.547-.43.647-.18 1.293-.36 2.114-.914-2.433-.065-4.51.142-6.727.017-2.217-.126-4.434-.25-6.59-.16-.096.49-.074.902.046 1.332m-5.522 1.678c1.61.109 3.043.591 4.431-.26-.005-1.02.05-1.824.025-2.745-1.178-.23-3.414-.256-4.767-.112.006 1.02.011 2.04.311 3.117M5.361 37.157c-.894 1.456-.943 3.28-.051 4.981.94-.122 1.821-.46 2.623-.916-.398-1.096-.268-2.293-.156-3.392-1.415-.58-1.415-.58-2.416-.673m51.451 8.88c.766.25 1.51.09 2.078-.207.352-.237.605-.494.681-.886.191-.982-.441-1.92-1.502-2.228-1.159-.327-2.293.267-2.661 1.113-.368.845-.15 1.295.578 1.742.256.254.63.428.826.466M34.324 29.136c1.745-.069 3.313-.273 4.979-.459.057-.294.076-.392.016-.608.035-.706-.044-.823-.73-.957-1.258-.346-2.512-.182-3.745.393-.605.494-.84.652-.52 1.63M54.912 46.38c-1.146-1.445-1.053-2.446 0-3.668.136-.177.45-.218.33-.649-.824.044-1.59-.207-2.452.033-.09 1.51-.063 2.942-.054 4.472a15 15 0 0 1 1.843-.05c.098.02.117-.078.333-.138m-4.007-19.218c-1.238-.444-2.593-.81-3.924-.253-.43.12-.842.142-1.096.398-.076.393-.232.668.085 1.137 1.647-.087 3.373-.057 5.02-.145.076-.392.231-.668-.085-1.137m-6.02.052-.08-.117c-1.494-.698-2.866-.455-4.174.513-.47.316-.428.63-.112 1.099.785.152 1.53-.008 2.157-.09.725-.063 1.412.07 2.195-.287-.022-.411-.044-.823.013-1.118m3.198-3.351c.234-.158.155-.275.193-.472.155-.275.292-.452.586-.395.314-.041.374.174.434.39.06.215.12.43.414.488l.647-.18c.215-.06.45-.218.507-.513a.9.9 0 0 0-.475-.703c-.845-.368-1.748-.442-2.53-.085-.333.14-.685.377-.76.77.296.566.296.566.984.7m-10.163-.651c-.61-.526-1.279-.758-2.023-.597-.53.1-.96.22-1.173.79.219.45.592.625 1.004.603.45-.218.447-.728.76-.769.608.017.494.606.77.761.51-.003.586-.395.662-.788m2.689.319c.354.273.63.428.962.289.156-.276.25-.766.742-.671.51-.003.297.567.572.723.412-.022.824-.044 1.096-.399-.455-.801-1.142-.935-1.965-.891-.609-.016-1.157.183-1.407.949M9.74 41.879c-.123-.94-.284-1.685-.366-2.312-.063-.725.17-1.394.106-2.119-.744.161-.76.77-.739 1.18-.111 1.1-.223 2.199.999 3.251"/><path fill="#ffc941" d="M100.746 21.265c.12.43-.035.706-.093 1-.927 2.673-1.265 5.46-1.406 8.284-.202 2.61-.188 5.16-.174 7.709-.035 4.374.557 8.665 1.874 12.894.079.118.06.216.04.314-.234.158-.41.022-.57-.213-2.164-1.44-4.212-2.958-6.434-4.103-2.106-1.224-4.268-2.154-6.528-3.103-1.415-.58-2.752-1.044-4.186-1.526-1.985-.794-4.046-1.194-6.225-1.516a2.8 2.8 0 0 1-1.219-.543c-1.203-1.15-2.716-1.75-4.347-2.27-1.63-.521-3.378-.963-5.066-1.19-2.001-.184-3.924-.252-5.846-.32-2.942-.063-5.903-.027-8.747-.07-2.648-.006-5.315.087-7.962.081-3.785.08-7.452.08-11.12.08-2.353.052-4.57-.073-6.825-.002l-4.294.082c-.412.022-.922.025-1.413-.07.232-.669.543-1.22.914-1.555 1.347-1.165 2.675-2.23 4.338-2.926 1.565-.715 3.25-.998 4.935-1.282 3.82-.785 7.703-.846 11.545-1.22 2.803-.27 5.549-.245 8.295-.22 4.392-.064 8.766-.029 13.14.007 2.764-.074 5.51-.05 8.275-.124 3.49-.136 6.863-.194 10.274-.448 1.45-.125 2.841-.466 4.232-.807 2.252-.58 4.365-1.494 6.558-2.29 1.311-.459 2.642-1.015 3.814-1.806a40 40 0 0 0 3.4-2.293zm-65.23 10.65c-.101-.53-.377-.685-.69-.644-1.02.005-1.96.128-2.902.25-1.98.227-3.899.669-5.68 1.443-.997.418-2.112.914-2.873 1.683.06.215.218.45.434.39.529-.101.978-.32 1.526-.518 1.233-.576 2.446-1.053 3.739-1.413 1.508-.42 2.958-.546 4.428-.77.529-.1 1.333-.046 2.018-.422m-4.892 2.104c-.06-.215-.12-.43-.218-.45-.197-.038-.295-.057-.51.003-1.39.341-2.585.72-3.817 1.296-.216.06-.333.139-.45.218-.137.177-.371.335-.194.472.158.234.355.272.57.212.216-.06.333-.139.45-.218 1.017-.515 2.211-.894 3.288-1.194.216-.06.45-.219.666-.279.079.118.098.02.215-.06m2.664-.602c-.08-.118-.06-.216-.14-.333-.433-.39-1.177-.229-1.665.185-.137.178-.096.491.1.53.57.212 1.02-.006 1.47-.224.197.038.216-.06.235-.158m3.46-2.078c.04.313.316.469.532.409.411-.022.804.054 1.058-.202.117-.08.155-.276.174-.374-.04-.313-.807-.564-1.355-.365-.254.256-.37.335-.409.532m3.861-.472c-.374-.175-.57-.213-.843.142-.136.177-.155.275.041.313.14.333.453.292.767.25l.351-.236c.118-.08.156-.276-.04-.314-.08-.117-.178-.136-.276-.155"/><path fill="#ffc941" d="M10.717 41.05c-.32-.979-.461-1.821-.074-2.765 1.058-.202 2.059-.109 2.98-.134 1.942-.03 3.902-.158 5.923-.07 3.765.018 7.629.056 11.395.075 2.96-.036 5.903.027 8.883-.107 1.745-.068 3.471-.038 5.197-.009 1.118.014 2.255-.07 3.373-.057 3.57-.02 7.237-.02 10.787.06 1.53-.009 3.06-.017 4.551.17 3.1.298 6.182.693 9.09 1.972 1.967.891 3.191 2.453 4.143 4.37 1.508 3.248-.921 7.36-3.446 8.295-1.879.755-3.72 1.315-5.66 1.345-2.667.093-5.255.303-7.864.101-2.629-.103-5.16-.188-7.67-.37-2.021-.087-3.943-.155-5.885-.125s-3.962-.057-5.903-.027c-3.373.057-6.689-.18-9.906-.398-.707-.035-1.492-.188-2.179-.321-.196-.038-.295-.058-.472-.194q-.531-.408-.417-.998a.75.75 0 0 1 .624-.592c.548-.199 1.195-.379 1.803-.362 2.334.046 4.589-.025 6.806.1 2.315.145 4.57.074 6.885.218 1.216.033 2.53.084 3.746.117l3.354.04c2.451-.032 4.785.014 7.177-.234 1.764-.167 3.452.06 5.197-.009 1.628.01 3.157.003 4.706-.104 1.039-.103 2.116-.404 3.095-.723 1.86-.657 2.985-2.781 2.407-4.523-.24-.862-.733-1.467-1.344-1.993a7.4 7.4 0 0 0-3.362-1.57c-2.337-.557-4.75-.72-7.144-.982-1.118-.014-2.296-.243-3.414-.256-1.628-.01-3.237-.12-4.846-.229-1.922-.068-3.825-.234-5.65-.283a86 86 0 0 0-7.452.08c-2.353.051-4.706.103-6.942.076l-3.354-.04c-1.333.046-2.647-.006-3.961-.058-3.06.017-6.217.014-9.198.148-2.176.189-4.117.219-5.98.366m58.106-.726c.335.37.709.545 1.082.72.944.387 1.906.676 2.714 1.24 1.26.856 2.617 1.732 3 3.436q.06.47.53.409c.314-.041.372-.336.41-.532.153-.785-.145-1.353-.54-1.939-1.225-1.562-2.956-2.612-4.745-3.367a4.9 4.9 0 0 0-1.669-.324c-.294-.058-.608-.017-.782.357m-2.394-.262c.196.038.49.096.902.074.099.019.235-.158.352-.237.136-.178-.04-.314-.12-.431-.453-.292-.905-.584-1.434-.483-.333.14-.706-.035-.88.338-.137.178.217.45.806.565.08.117.08.117.374.174M104.74 23.773c.48 1.724.568 3.37.754 5.037.226 1.979.374 3.841.404 5.783a45 45 0 0 1-.09 5.178c-.164 2.413-.425 4.807-.883 7.163-.21 1.08-.224 2.198-.433 3.278-.232.667-.366 1.355-.578 1.925l-.467.826c-.155.275-.548.199-.804-.055-.003-.51.545-.709.64-1.2.194-.471.388-.943.464-1.336.194-.471.172-.883.248-1.276.096-.49.172-.883-.163-1.254-.374-.175-.53.1-.568.297l-.324 1.669c-.133.687-.384 1.453-.812 2.083-.355-.272-.396-.586-.221-.96.466-.826.638-1.71.73-2.71.058-.294.036-.706-.005-1.02-.06-.215-.14-.332-.336-.37-.859.75-.46 1.845-.946 2.77-.335-.37-.357-.783-.163-1.254.193-.472.308-1.061.403-1.552q.057-.294-.18-.646c-.079-.117-.177-.136-.313.04-.216.06-.431.12-.53.102-.28-1.175-.286-2.195-.37-3.332-.107-1.55-.232-3-.26-4.431-.04-3.981-.003-7.845.564-11.81-.022-.411.153-.785.229-1.178.785.153.921-.024.9-.436s-.142-.842-.145-1.352c-.06-.216-.1-.53.153-.786.455.802.46 1.822.935 2.525.412-.022.47-.316.428-.63-.044-.823-.303-1.587-.562-2.35a4.7 4.7 0 0 0-.3-1.077c-.139-.333-.081-.627.29-.963.297.567.417.998.616 1.546s.3 1.077.499 1.625c.199.549.103 1.04.537 1.43.412-.023.194-.473.368-.846.02-.098.076-.393.292-.453m-.059 7.12c-.529.1-.665.278-.643.69.202 1.058.286 2.195.273 3.313.008 1.53.035 2.96.063 4.392.04.314-.017.608.043.824s.238.352.453.291c.136-.177.155-.275.194-.471.03-1.726.138-3.335.051-4.982-.046-1.333-.112-2.568-.374-3.842.098.02.02-.098-.06-.215m-.142-4.51c.038-.197.096-.491-.063-.726-.177-.136-.373-.174-.51.003-.37.336-.21 1.08.262 1.274.118-.08.254-.257.311-.551m-.56 19.654c-.118.079-.314.04-.333.139-.254.256-.31.55-.073.902.06.216.354.273.51-.002.253-.257.291-.453.25-.766-.177-.137-.275-.156-.354-.273m.375-17.653c.177.136.313-.04.43-.12.137-.177.077-.392-.002-.51-.06-.215-.14-.332-.355-.272s-.332.139-.37.335.022.412.297.567m-2.082 17.525c-.058.294.199.548.414.488.314-.041.352-.237.39-.434a.55.55 0 0 0-.199-.548c-.294-.057-.567.297-.605.494m1.78-.775c.177.137.412-.022.45-.218.156-.275.017-.608-.18-.646-.275-.155-.43.12-.45.218-.057.295-.016.608.18.646m-1.274-18.075c.215-.06.332-.139.37-.335.039-.197-.021-.412-.218-.45-.196-.038-.411.022-.45.218-.057.294.12.43.298.567"/><path fill="#fdc841" d="M34.13 54.77c.04.313-.017.607.024.921-.764.26-1.432.027-2.157.09-1.824-.049-3.531-.177-5.28-.618-1.158-.328-2.063-.911-2.677-1.947-.79-1.173-.256-3.921 1.388-4.518.332-.14.665-.279 1.096-.399 1.939-.54 3.9-.668 5.821-.6.608.017 1.255-.163 1.806.147-.017.608-.014 1.118-.03 1.726-.745.161-1.432.028-2.06.11-.92.024-1.744.068-2.647-.006a7.2 7.2 0 0 0-2.135.502c-1.448.636-1.456 2.773-.275 3.512.276.156.551.31.747.35.59.114 1.178.228 1.786.244 1.413.071 2.806.24 4.218.31.08.118.178.137.374.175M22.753 50.928c-2.991-1.906-4.8-6.23-3.951-9.02.744-.16 4.529-.24 5.726-.109-.486.924-.873 1.868-.75 2.809.22.96.344 1.9 1.113 2.66-.527.612-1.015 1.026-1.443 1.656q-.465.826-.695 2.004m.035-8.04c-.665.277-.859.749-.856 1.259.082.627-.052 1.314.46 1.821.159.235.454.292.628-.082-.535-.918.166-1.903-.232-2.999m-1.393-.17c-.434-.39-.963-.289-1.473-.286-.098-.02-.117.079-.117.079a.55.55 0 0 0-.39.434c.041.313.237.351.434.39.411-.022.823-.044 1.156-.183.215-.06.332-.14.39-.434m-.227 1.688c-.079-.117-.06-.215-.158-.234-.433-.39-1.06-.308-1.549.106-.136.177.003.51.2.548.49.095.921-.025 1.254-.164.117-.079.136-.177.253-.256m-.498 2.042c.294.058.627-.081.684-.376.038-.196-.14-.333-.335-.37-.295-.058-.491-.096-.647.18-.038.196.003.51.298.566M41.104 49.81c-.08-.118-.06-.216-.14-.334.183-2.51-.242-5.038-.177-7.47.155-.276.37-.336.567-.298 1.432-.027 2.863-.055 4.177-.003.099.02.178.136.276.156-.104 2.628.186 5.333.063 8.06-1.039.103-4.08.022-4.766-.112m3.77-2.63c.407-1.041.407-1.041-.022-4.079-.177-.136-.275-.155-.49-.095-.235.158-.488.414-.447.728.103 1.039.109 2.058.428 3.037.06.216.218.45.532.41m-2.396-.771c.038-.197.057-.295-.003-.51-.123-.94-.128-1.96-.251-2.901.02-.098-.06-.216-.06-.216-.08-.117-.158-.234-.256-.253-.197-.038-.314.04-.45.218-.137.177-.156.275-.194.472-.013 1.118.09 2.157.194 3.195.08.118.06.216.14.333a.3.3 0 0 0 .176.136c.118-.079.216-.06.333-.139.313-.04.352-.237.37-.335m-.537 2.239c.06.215.022.411.082.627.06.215.139.332.335.37q.323-.09.352-.237c.155-.275.133-.687-.025-.921-.158-.235-.256-.254-.354-.273-.118.079-.216.06-.235.158-.098-.019-.136.177-.155.276M51.52 50.204c-1.628-.011-3.04-.082-4.57-.074-.009-1.53.043-2.844.016-4.275-.047-1.333-.29-2.705-.022-4.08 1.058-.201 3.686-.097 4.845.23-.052 1.314-.024 2.745-.076 4.06-.07 1.412.074 2.765-.193 4.139m-1.042-7.741c-.431.12-.567.297-.625.591-.15 1.296-.065 2.433.197 3.706a.55.55 0 0 0 .433.39c.371-.335.35-.747.309-1.06-.047-1.334.182-2.512-.314-3.627m-2.394 3.406c.117-.08.136-.178.136-.178.191-.981.087-2.02-.134-2.98-.06-.215-.237-.352-.55-.31-.309 1.06-.224 2.197.076 3.274.08.117.276.155.472.194m-.29.962c-.446.728-.345 1.257.148 1.862.314-.04.548-.199.507-.512-.002-.51-.005-1.02-.654-1.35M39.7 43.933c.078.117.176.136.157.235.088 1.647.156 3.392.145 5.02.06.215.022.411-.232.667-1.431.028-2.96.036-4.55-.171.084-2.53.168-5.06.037-7.531.156-.276.371-.335.685-.377 1.333-.046 2.647.006 4.079-.022-.251.767-.09 1.511-.322 2.18-.373-.175-.1-.53-.259-.764-.158-.235-.237-.352-.453-.292a.3.3 0 0 0-.136.177c-.327 1.16-.242 2.296.038 3.471.06.216.14.333.453.292.194-.472.29-.962.207-1.59-.022-.411.074-.902.15-1.295m-3.867-.548c-.074.903.01 2.04.114 3.079.12.43.18.646.494.605.313-.04.37-.335.409-.532.038-.196.057-.294-.003-.51l-.074-2.764c-.003-.51-.259-.764-.474-.704-.314.041-.371.336-.466.826m.425 6.195c.47-.316.488-.414.527-.61-.041-.314.016-.608-.26-.764-.079-.117-.275-.155-.294-.057-.117.079-.235.158-.254.256-.174.374-.152.785.281 1.175"/><path fill="#fdc741" d="M54.181 49.091c.215-.06.314-.04.51-.003.215-.06.332-.139.37-.335.058-.294-.138-.333-.316-.469-.57-.213-1.098-.112-1.707-.128-.196-.038-.196-.038-.199-.548 1.02-.006 1.942-.03 2.863-.055 1.726.03 3.354.04 5.061.169 1.51.09 2.885.357 4.183 1.017.747.349.924.485 1.399 1.189-2.04.01-4.098.12-6.119.033-1.118-.014-2.255.07-3.373.057-.921.025-1.745.068-2.666.093-.216.06-.295-.057-.472-.194.253-.256.409-.531.035-.706.098.02.216-.06.431-.12"/><path fill="#fcc741" d="M40.856 58.42c-.065-1.235-.15-2.372-.235-3.51 1.844-.048 3.55.08 5.277.11.005 1.02.01 2.04.133 2.98-1.66 1.205-3.348.979-5.175.42m.85-2.28c.06.216.042.314.12.431.06.216.257.254.355.273a.55.55 0 0 0 .39-.434c-.022-.411-.18-.646-.376-.684-.098-.02-.216.06-.216.06s-.234.158-.272.355"/><path fill="#f9c540" d="M52.73 56.552c-.1-.53-.141-.843-.046-1.334 2.157-.09 4.374.035 6.59.16 2.218.126 4.295-.081 6.728-.016-.821.553-1.467.733-2.113.913-1.195.38-2.41.347-3.548.431-2.274.17-4.589.025-6.825-.002-.215.06-.49-.095-.785-.153"/><path fill="#fcc741" d="M36.482 54.718c1.08.21 2.138.007 3.237.12.065 1.234.052 2.352.117 3.588-1.35.654-2.762.583-4.098.12-.275-.156-.453-.292-.395-.586-.003-.51-.006-1.02-.028-1.432s-.103-1.039-.125-1.45c-.06-.216.155-.276.273-.355.177.136.51-.003.648.33-.408.532-.406 1.041-.108 1.609.06.215.158.234.354.272.215-.06.333-.139.37-.335.096-.49.093-1-.144-1.353-.256-.253-.237-.351-.1-.529"/><path fill="#fbc641" d="M47.21 58.229c-.3-1.077-.306-2.097-.214-3.098 1.353-.144 3.589-.117 4.767.112.024.921-.05 1.824-.025 2.746-1.584.812-3.037.428-4.529.24m.675-1.906c.197.038.45-.218.489-.415.057-.294-.101-.529-.396-.586-.294-.057-.333.14-.37.335-.039.197.04.314.002.51.177.137.276.156.276.156M5.361 37.157c1.02-.006 1.02-.006 2.299.752-.112 1.099-.144 2.315.155 3.392-.82.554-1.682.794-2.623.916-.774-1.78-.744-3.506.17-5.06"/><path fill="#fbc640" d="M34.324 29.136c-.3-1.077-.066-1.236.6-1.514 1.232-.575 2.467-.64 3.743-.393.688.134.767.251.731.957.06.216-.057.295-.016.608-1.745.069-3.411.254-5.058.342"/><path fill="#f7c340" d="M50.905 27.163c.316.47.16.745-.014 1.118-1.745.068-3.373.058-5.02.145-.218-.45-.16-.744-.084-1.137.37-.336.763-.26 1.096-.398 1.508-.42 2.765-.074 4.022.272"/><path fill="#f8c440" d="M44.884 27.215c.041.314-.035.707-.111 1.1-.783.357-1.47.223-2.195.286-.726.062-1.49.322-2.157.09-.218-.45-.26-.764.111-1.1 1.31-.967 2.68-1.21 4.175-.512.098.02.098.02.177.136"/><path fill="#ecbb3f" d="M48.083 23.864c-.786-.153-.786-.153-1.2-.64-.022-.412.33-.65.76-.77a3.22 3.22 0 0 1 2.53.085q.414.233.475.703c.041.314-.291.453-.507.513-.215.06-.529.1-.646.18-.276-.156-.335-.371-.415-.488-.04-.314-.12-.431-.316-.47-.313.042-.43.12-.586.396-.038.197.04.314-.095.491"/><path fill="#d8ac3c" d="M104.74 23.773c-.313.041-.272.355-.408.532-.218-.45-.104-1.039-.224-1.47-.3-1.077-.619-2.056-1.055-2.955-.159-.235-.12-.431.095-.491.295.057.355.273.415.488.575 1.232 1.033 2.544 1.178 3.896"/><path fill="#dfb13d" d="M37.92 23.213c-.076.393-.25.766-.663.788-.373-.174-.259-.763-.768-.76-.412.021-.41.531-.761.768-.412.022-.805-.054-1.004-.602.213-.57.742-.671 1.173-.791.823-.044 1.51.09 2.023.597"/><path fill="#e4b53e" d="M40.609 23.532c.25-.766.78-.867 1.29-.87.823-.044 1.529-.008 1.965.892-.37.335-.703.474-1.096.398-.256-.254-.063-.726-.572-.723-.51.003-.587.396-.742.67-.197-.037-.49-.095-.845-.367"/><path fill="#e3b53e" d="M9.74 41.88c-1.221-1.053-1.09-2.25-.979-3.35-.021-.411-.005-1.02.74-1.18.043.823-.189 1.492-.107 2.119.044.823.205 1.567.347 2.41"/><path fill="#272111" d="M36.482 54.718c-.136.177-.155.275.022.411.316.47.221.96.145 1.353-.038.196-.156.275-.371.335s-.276-.155-.355-.273c-.199-.548-.201-1.057.11-1.608-.257-.254-.472-.194-.65-.33.352-.238.707.035 1.1.111"/><path fill="#ac8b37" d="M54.181 49.091c-.234.158-.352.237-.567.297-.314.041-.608-.016-.922.025-.139-.333-.022-.412.194-.472.43-.12.921-.024 1.295.15"/><path fill="#574a2a" d="M100.647 46.408c.215-.06.43-.12.529-.101-.058.294-.213.57-.251.766-.393-.076-.434-.39-.278-.665"/><path fill="#070603" d="M35.516 31.914c-.685.376-1.49.322-2.135.502-1.47.224-2.94.447-4.428.77-1.293.36-2.506.836-3.739 1.412-.45.218-.919.534-1.527.518-.313.04-.373-.175-.433-.39.859-.75 1.876-1.265 2.874-1.682a21.4 21.4 0 0 1 5.68-1.443c.94-.123 1.9-.344 2.9-.251.412-.022.707.035.808.564"/><path fill="#110e08" d="M30.624 34.02c-.117.078-.136.177-.254.256-.234.158-.45.218-.665.278q-1.763.42-3.288 1.194c-.216.06-.333.14-.45.219-.215.06-.412.021-.57-.213-.158-.235-.022-.412.194-.472.117-.079.332-.139.45-.218 1.251-.674 2.543-1.034 3.817-1.295.234-.159.43-.12.529-.101q.147.029.237.351"/><path fill="#241e10" d="M33.288 33.417c-.117.079-.136.177-.254.256-.548.199-.978.319-1.47.224-.196-.038-.236-.352-.1-.53.488-.414 1.213-.477 1.666-.185.196.038.177.136.158.235"/><path fill="#1e190d" d="M36.748 31.339c.038-.197.175-.374.273-.355.646-.18 1.333-.046 1.355.365.079.118-.057.295-.175.374-.351.237-.744.16-1.058.202-.079-.117-.354-.273-.395-.586"/><path fill="#2f2815" d="M40.609 30.867c.08.117.177.136.256.253s.158.235.041.314l-.352.237c-.313.041-.627.082-.766-.25-.079-.118-.06-.216-.04-.314.291-.453.586-.396.861-.24"/><path fill="#fefdfa" d="M68.823 40.324c.174-.374.488-.415.782-.357.59.114 1.197.13 1.67.324 1.769.853 3.402 1.884 4.744 3.367.395.586.692 1.154.54 1.939q-.086.441-.41.532c-.313.04-.47-.194-.53-.41-.383-1.703-1.74-2.579-3-3.435-.808-.564-1.751-.951-2.714-1.24-.373-.175-.747-.35-1.082-.72"/><path fill="#fefbf3" d="m66.429 40.062-.491-.095c-.589-.115-.963-.29-.807-.564.174-.374.567-.298.88-.339.647-.18.982.191 1.435.483.177.136.256.253.12.43l-.352.238z"/><path fill="#fefcf4" d="M104.681 30.893c.08.117.158.234.14.332.261 1.274.327 2.509.373 3.842-.03 1.726-.04 3.354-.15 4.963-.038.196-.155.275-.193.472-.314.04-.49-.096-.453-.292-.04-.314-.082-.627-.043-.824a37 37 0 0 1-.063-4.392c.032-1.216-.072-2.255-.156-3.392-.022-.412.114-.59.545-.71"/><path fill="#262011" d="M104.54 26.383c-.058.294-.194.472-.39.433-.492-.095-.554-.82-.282-1.175.235-.158.431-.12.51-.003.257.254.2.548.161.745"/><path fill="#272112" d="M103.979 46.037c.079.117.256.254.256.254.04.313.003.51-.25.766-.137.177-.432.12-.51.002-.14-.332-.082-.627.073-.902.215-.06.313-.041.43-.12"/><path fill="#42371a" d="M104.354 28.384c-.275-.155-.335-.37-.297-.567s.155-.275.37-.335c.197.038.295.057.355.272s.12.431-.016.608c-.118.08-.235.159-.412.022"/><path fill="#44381b" d="M102.272 45.909c.057-.295.291-.453.488-.415.275.156.237.352.199.548s-.076.393-.39.434c-.196-.038-.335-.37-.297-.567"/><path fill="#2d2615" d="M104.052 45.134c-.196-.038-.237-.351-.1-.529.136-.177.272-.354.45-.218.177.137.335.371.18.646a.76.76 0 0 1-.53.101"/><path fill="#5c4c25" d="M102.778 27.06c-.178-.137-.355-.274-.317-.47a.43.43 0 0 1 .47-.316.43.43 0 0 1 .316.469.78.78 0 0 1-.47.316"/><path fill="#fef7e3" d="M22.788 42.887c.398 1.096-.303 2.08.232 3-.273.354-.469.316-.627.081-.513-.507-.477-1.213-.461-1.821.095-.49.289-.963.856-1.26"/><path fill="#292212" d="M21.395 42.718c-.058.295-.175.374-.39.434-.431.12-.843.142-1.156.182-.216.06-.393-.076-.434-.39-.06-.215.175-.373.39-.433.098.02.117-.08.117-.08.51-.002 1.02-.005 1.473.287"/><path fill="#211c0f" d="M21.168 44.406c-.117.08-.155.275-.253.256-.431.12-.862.24-1.254.164-.197-.038-.336-.37-.2-.548.39-.434 1.116-.496 1.55-.106.097.019.078.117.157.234"/><path fill="#4b3f20" d="M20.67 46.448a.43.43 0 0 1-.317-.469q.234-.412.646-.18c.197.038.276.156.336.371-.117.08-.371.336-.665.278"/><path fill="#fefbf1" d="M44.875 47.18c-.314.041-.472-.193-.532-.409-.3-1.077-.306-2.096-.428-3.037-.041-.314.212-.57.447-.728.136-.178.313-.041.49.095.429 3.038.429 3.038.023 4.08"/><path fill="#120f08" d="M42.478 46.409c-.02.098-.058.294-.175.373s-.234.159-.332.14c-.098-.02-.197-.039-.178-.137-.079-.117-.158-.234-.139-.332-.084-1.138-.286-2.196-.194-3.196.039-.197.058-.295.194-.472s.254-.256.45-.218c.098.019.177.136.256.254s.06.215.06.215c.123.94.129 1.96.251 2.901-.136.177-.155.276-.193.472"/><path fill="#1f1a0f" d="M41.94 48.648a.76.76 0 0 0 .175-.374c.117-.08.117-.08.235-.158.215-.06.294.057.275.155.237.352.18.646.025.922q-.205.265-.352.237c-.215.06-.275-.155-.335-.37-.099-.02-.06-.216-.022-.413"/><path fill="#fefcf4" d="M50.478 42.463c.477 1.213.248 2.391.352 3.43.022.412.043.823-.308 1.06-.314.042-.472-.193-.434-.39a11.9 11.9 0 0 1-.197-3.705c.118-.079.273-.354.587-.395"/><path fill="#120f09" d="M48.084 45.869c-.216.06-.412.021-.472-.194-.3-1.077-.385-2.214-.076-3.275.411-.022.608.017.55.311.104 1.039.227 1.98.134 2.98 0 0-.117.08-.136.178"/><path fill="#3b3017" d="M47.795 46.831c.63.428.652.84.654 1.35.041.313-.193.472-.507.513-.395-.587-.496-1.116-.147-1.863"/><path fill="#0f0d07" d="M35.833 43.385c.095-.49.054-.804.466-.826q.47-.06.474.704l.074 2.764c.06.216.041.314.003.51-.057.295-.096.491-.41.532-.215.06-.373-.174-.493-.605-.103-1.04-.188-2.176-.114-3.079"/><path fill="#fdf7e7" d="M39.7 43.933c-.195.472-.173.884-.053 1.314.101.53-.013 1.118-.207 1.59-.313.041-.49-.095-.452-.292-.281-1.175-.268-2.293-.039-3.47.02-.099.137-.178.137-.178.313-.04.392.076.452.292s-.114.589.161.744"/><path fill="#352c16" d="M36.258 49.58c-.433-.39-.455-.801-.262-1.273.02-.098.235-.158.254-.256.117-.08.314-.041.295.057.158.234.199.548.259.763-.038.197-.058.295-.546.71"/><path fill="#3c321b" d="M41.707 56.14a.76.76 0 0 0 .174-.373c.117-.08.117-.08.216-.06.215-.06.452.292.376.684.06.216-.076.393-.39.434-.215.06-.393-.077-.354-.273-.08-.117-.041-.313-.022-.411"/><path fill="#342c17" d="M47.886 56.323c-.08-.117-.178-.136-.178-.136-.06-.216-.04-.314-.002-.51.038-.197.076-.393.37-.336.295.057.453.292.396.586-.156.276-.39.434-.587.396"/></svg>