<svg xmlns="http://www.w3.org/2000/svg" xml:space="preserve" width="800" height="800" viewBox="0 0 512.004 512.004"><path d="M414.898 326.615h52.966V211.742h-52.966z" style="fill:#8b8c8d"/><path d="M17.657 326.621c-9.746 0-17.655 7.91-17.655 17.655v123.586c0 9.746 7.91 17.655 17.655 17.655h476.69c9.746 0 17.655-7.91 17.655-17.655V344.276c0-9.746-7.91-17.655-17.655-17.655zM450.209 0l8.827 211.747h-35.31L432.553 0zM467.864 255.883h-52.966c-4.882 0-8.828-3.955-8.828-8.828s3.946-8.828 8.828-8.828h52.966c4.882 0 8.828 3.955 8.828 8.828s-3.946 8.828-8.828 8.828M467.864 291.194h-52.966c-4.882 0-8.828-3.955-8.828-8.828s3.946-8.828 8.828-8.828h52.966c4.882 0 8.828 3.955 8.828 8.828s-3.946 8.828-8.828 8.828" style="fill:#c6c9cb"/><path d="M44.14 512.004h70.62v-26.483H44.14zM397.243 512.004h70.621v-26.483h-70.621z" style="fill:#6a6c6d"/><path d="M432.553 485.517H79.45v-70.621c0-9.746 7.91-17.655 17.655-17.655h317.793c9.746 0 17.655 7.91 17.655 17.655z" style="fill:#8b8c8d"/><path d="M52.967 366.345c0-7.318-5.932-13.241-13.241-13.241s-13.241 5.923-13.241 13.241 5.932 13.241 13.241 13.241 13.241-5.923 13.241-13.241" style="fill:#c03a2b"/><path d="M211.864 459.034a8.826 8.826 0 0 1-8.828-8.828v-17.655c0-4.873 3.946-8.828 8.828-8.828s8.828 3.955 8.828 8.828v17.655a8.826 8.826 0 0 1-8.828 8.828M123.588 459.034a8.826 8.826 0 0 1-8.828-8.828v-17.655a8.826 8.826 0 0 1 8.828-8.828 8.826 8.826 0 0 1 8.828 8.828v17.655a8.825 8.825 0 0 1-8.828 8.828M300.14 459.034a8.826 8.826 0 0 1-8.828-8.828v-17.655a8.826 8.826 0 0 1 8.828-8.828 8.826 8.826 0 0 1 8.828 8.828v17.655a8.826 8.826 0 0 1-8.828 8.828M388.416 459.034a8.826 8.826 0 0 1-8.828-8.828v-17.655a8.826 8.826 0 0 1 8.828-8.828 8.826 8.826 0 0 1 8.828 8.828v17.655a8.826 8.826 0 0 1-8.828 8.828" style="fill:#c6c9cb"/></svg>