<svg xmlns="http://www.w3.org/2000/svg" width="800" height="800" viewBox="0 0 97.095 97.095"><defs><clipPath id="a"><circle cx="48.548" cy="48.548" r="48.548" fill="none" data-name="Ellipse 48" transform="translate(347.403 42.939)"/></clipPath></defs><g data-name="Group 68" transform="translate(-347.403 -42.939)"><circle cx="48.548" cy="48.548" r="48.548" fill="#e2ba8f" data-name="Ellipse 47" transform="translate(347.403 42.939)"/><g data-name="Group 64"><g clip-path="url(#a)" data-name="Group 63"><path fill="#f0f5f9" d="M343.209 70.009s39.5-15.353 62.474-29.725 21.152 2.911 21.152 2.911-70.9 41.773-86.972 39.171 3.346-12.357 3.346-12.357" data-name="Path 74" opacity=".4"/><path fill="#cba780" d="M354.237 113.121s22.074 21.207 88.884-26.644c15.928-11.407 12.425 1.093 12.425 1.093s-80.018 52.272-103.627 31.19c-10.229-9.134 2.318-5.639 2.318-5.639" data-name="Path 75" opacity=".7"/><path fill="#cba780" d="M433.478 146.049s-13.506-27.471-92.64-5.312c-18.866 5.283-11.305-5.27-11.305-5.27s93.059-21.8 108.049 6.072c6.495 12.079-4.104 4.51-4.104 4.51" data-name="Path 76" opacity=".4"/><path fill="#f0f5f9" d="M344.156 87.014s66.509-7.523 95.1-24.075 6.62 5.116 6.62 5.116-41.229 11.737-102.02 24.677.3-5.718.3-5.718" data-name="Path 77" opacity=".2"/></g></g><g data-name="Group 67"><g data-name="Group 66"><g fill="#312449" data-name="Group 65"><circle cx="3.052" cy="3.052" r="3.052" data-name="Ellipse 49" transform="translate(377.131 95.717)"/><circle cx="3.052" cy="3.052" r="3.052" data-name="Ellipse 50" transform="translate(408.667 95.717)"/></g></g><path d="M395.951 140.034A48.547 48.547 0 0 0 428.5 55.469a48.08 48.08 0 0 1 12.529 32.55c-.13 26.882-25.571 51.676-52.079 51.514" data-name="Path 78" opacity=".1" style="mix-blend-mode:darken;isolation:isolate"/></g><circle cx=".594" cy=".594" r=".594" fill="#fff" data-name="Ellipse 51" transform="translate(381.069 99.65)"/><circle cx=".594" cy=".594" r=".594" fill="#fff" data-name="Ellipse 52" transform="translate(409.602 99.65)"/><rect width="7.761" height="2.265" fill="#fff" data-name="Rectangle 10" opacity=".2" rx=".765" transform="rotate(45 97.802 545.382)"/><rect width="7.761" height="2.265" fill="#fff" data-name="Rectangle 11" opacity=".2" rx=".765" transform="rotate(-45 302.029 -401.158)"/></g><path fill="none" stroke="#312449" stroke-linecap="round" stroke-linejoin="round" stroke-width="1.806" d="M47.044 74.267a16.9 16.9 0 0 1 5.378-5.014 4.77 4.77 0 0 1 2.945-.844 2.017 2.017 0 0 1 1.834 2.107c-.252 1.436-2.38 1.941-2.608 3.382-.231 1.457 1.645 2.446 1.844 3.909.182 1.344-1.185 2.463-2.529 2.646A14.7 14.7 0 0 1 49.882 80a4.11 4.11 0 0 0-3.77.973" data-name="Path 79"/></svg>