<svg xmlns="http://www.w3.org/2000/svg" width="104.041" height="165.647" viewBox="0.25 -0.5 104.041 165.647"><path fill="#be0a3c" d="M30.643 133.845c-1.446.269-15.254-.53-15.254-.53s6.175-15.268 8.026-19.872c1.921-4.771 3.908-9.543 6.02-14.224 2.38-.275 23.536-4.593 24.934-4.306.387.894-20.388 32.241-23.726 38.932"/><path fill="#6e1e3c" d="M6.319 161.575H1.131l-.381.626c3.528 1.193 8.858.388 12.565.322 2.588-3.274 15.545-25.555 15.545-25.555H13.767c-.107.614-6.907 21.011-7.448 24.607"/><path fill="#f0e6d2" d="M16.224 129.141c-.952 1.938-2.975 7.509-2.773 8.421l16.813.543 4.004-8.165zM29.339 139.903H12.681c-.077.411-.142.817-.22 1.228h16.355q.227-.629.523-1.228"/><path fill="#f01446" d="M66.768 100.26s-.268-6.024-.404-6.262c-1.714-.406-24.625.924-24.625.924s2.166 14.212 2.499 18.16c.524 6.185 2.326 15.465 6.045 20.653l16.301-.596s-1.833-10.21-1.571-17.6a91 91 0 0 1 1.755-15.279"/><path fill="#6e1e3c" d="M77.693 162.822c-.797-4.115-3.272-8.314-4.616-12.316-1.416-4.204-3.195-8.212-4.254-12.56h-18.3c3.224 4.479 7.407 10.276 10.114 13.353 3.635 4.122 8.882 7.598 11.898 12.155a21.5 21.5 0 0 1-3.825.131l-.22.424c.63 1.115 8.43.524 9.679.065a8.4 8.4 0 0 1-.476-1.252"/><path fill="#f0e6d2" d="m68.108 130.233-21.489-.114a29.3 29.3 0 0 0 3.463 7.259c.493.077 19.727.041 19.727.041s-1.529-5.832-1.701-7.186M70.013 140.016l-19.49-.113c.125.441.297.948.506 1.473h19.448a11 11 0 0 1-.464-1.36"/><path fill="#ffc800" d="M59.442 133.263a14 14 0 0 1-2.921 0c-2.005-4.025-.964-32.801.398-37.376.685.042 3.052-.036 3.719 0 .148 2.052-1.268 10.735-1.595 19.353a171 171 0 0 0 .399 18.023"/><path fill="#824600" d="M49.653 56.77a195 195 0 0 0-10.346.108c-2.249.083-7.079.298-9.876 1.789s-5.568 3.483-6.234 4.419c.089.096 22.607.656 23.434.656.149-.25 3.403-6.632 3.022-6.972"/><path fill="#6e1e3c" d="M45.309 56.814s-3.57 9.286-3.57 10.407c1.69.078 21.715 2.809 23.339 2.678l6.545-13.12c-.482-.096-26.314.035-26.314.035"/><g fill="#ffc800"><path d="M90.616 2.687C88.474.898 86.957-.778 84.125.385c-2.147.883-4.313 3.382-6.02 4.956-3.671 3.382-55.019 59.89-69.547 78.032.475.084 1.784.424 1.784.424s47.69-45.839 51.759-49.817S85 12.51 86.565 11.108c1.826-1.658 3.986-3.524 5.092-5.761a3.77 3.77 0 0 0-1.041-2.66"/><path d="M6.681 81.643c.809-2.445 4.051-2.553 4.944-2.308.565.155 3.522 1.193 3.861 2.439.339 1.247-.071 3.06-1.832 4.348s-7.788-2.04-6.973-4.479"/></g><path fill="#642800" d="M31.786 62.614s3.444.793 2.326 2.982c-1.119 2.189-2.975 4.175-5.319 3.25s1.702-5.522 2.993-6.232"/><path fill="#824600" d="M20.393 73.542a3.2 3.2 0 0 1-2.532-1.452 3.22 3.22 0 0 1-.306-2.908c.875-2.6 4.986-6.172 5.622-6.608 1.738-1.193 4.992-1.193 6.896-.316 4.021 1.789-.595 8.034-2.725 8.862a12 12 0 0 1-6.955 2.422"/><path fill="#642800" d="M33.068 64.037s-5.318-1.426-5.913.829 3.867 2.26 4.676 2.493c.809.232 2.826-1.247 1.237-3.322"/><path fill="#be0a3c" d="M73.303 56.753a25.7 25.7 0 0 0-18.538 7.199c-4.515 4.473-10.822 10.735-16.194 18.953-5.2 7.932-9.519 17.892-9.519 17.892l38.022.274s5.795-13.717 7.514-18.87c-.815-1.461-1.285-25.448-1.285-25.448"/><path fill="#6e1e3c" d="M68.959 101.776H26.124l1.785-4.92h42.24z"/><path fill="#f01446" d="M46.619 95.877h3.254v6.877h-3.254zM32.956 95.877h3.254v6.877h-3.254zM61.258 95.877h3.808v6.877h-3.808z"/><path fill="#824600" d="M23.633 71.764c2.505.751.232 7.3-1.356 8.898a9.37 9.37 0 0 1-9.382 2.404c-1.399-.388-3.862-.835-4.213-2.571-1.302-6.435 7.973-10.735 9.668-9.966 2.094.937 2.772.49 5.283 1.235M68.557 61.636 55.26 72.603l-20.638.692s-1.785 5.815-1.66 6.805c3.784.936 41.52.894 41.52.894z"/><path fill="#f01446" d="M36.047 72.422c-2.755-.03-7.735-.048-11.102.036l-3.7 8.695c4.759.179 13.766.597 14.802.662zM73.4 56.744c4.605 1.789 7.913 4.771 7.407 10.067-.631 6.56-6.146 15.363-6.146 15.363L59.306 69.429s9.138-9.298 14.094-12.685"/><path d="M81.753 38.155c.398 0 13.6 11.612 15.034 13.288a27.3 27.3 0 0 1 2.719 3.358 25.3 25.3 0 0 1 3.135 6.954c.274 1.073.595 2.135.815 3.226.347 1.968.425 3.975.232 5.964a9.2 9.2 0 0 1-.892 3.304 3.2 3.2 0 0 1-.637.889 5.13 5.13 0 0 1-4.712 1.294 2.1 2.1 0 0 1-.696-.286 9.4 9.4 0 0 1-2.659-2.469 23.6 23.6 0 0 1-3.017-6.394 7.8 7.8 0 0 0-.66-1.521 10.6 10.6 0 0 1-1.101-2.528c-.957-3.304-1.987-6.561-2.897-9.9-.5-1.825-1.023-3.632-1.648-5.41-.071-.173-2.974-9.465-3.016-9.769"/><path fill="#824600" d="m83.912 34.242-26.558.447c.09.352.351 4.545.464 4.968a20.7 20.7 0 0 0 1.892 4.372 20 20 0 0 0 2.035 2.898c.553.686 1.267 1.241 1.85 1.909a6.3 6.3 0 0 0 1.821 1.419 14.7 14.7 0 0 0 3.742 1.318 22 22 0 0 0 4.854.269c.37-.003.736-.07 1.083-.197a35 35 0 0 0 4.075-1.42c1.256-.596 3.903-2.982 4.891-4.097-.179-.149-.06-11.826-.149-11.886"/><path fill="#642800" d="M66.744 41.604h-.732a4.54 4.54 0 0 1-1.487-1.408c-.708-1.318-2.261-4.133-2.291-4.944.851-.185 4.974.483 6.544.847.452 1.926-.363 4.699-2.034 5.505"/><path d="m71.018 43.643 3.01-.596a3.56 3.56 0 0 1 1.969.746c-1.261 1.192-2.516 1.401-4.866.775-.03-.239-.072-.555-.113-.925M62.519 38.156c.272.508.292 1.115.053 1.64a.7.7 0 0 1-.743.412c-.673-.352-.637-.943-.464-1.599a1.58 1.58 0 0 1 1.154-.453M71.994 40.458a1.95 1.95 0 0 1 .488-1.324l.708.28c.226.596-.036.918-.5 1.24z"/><path fill="#f01446" d="M95.106 33.675c-.696-6.292-5.021-12.411-10.524-15.393-5.218-2.827-14.695-3.579-20.133-1.241-5.081 2.165-10.542 9.286-9.983 15.596 1.285 1.008 15.028 3.626 23.387 5.218.416.078-1.404 5.129 5.354 8.35a6.87 6.87 0 0 0 4.474.232 10.9 10.9 0 0 0 4.533-2.558c2.398-2.6 3.267-6.775 2.892-10.204"/><path fill="#be0a3c" d="M77.484 37.504c-5.355.692-26.867-.788-31.841-1.008 2.041-1.396 8.454-4.211 8.454-4.211s20.626 3.99 23.387 5.219M70.587 26.424c1.558 6.155-9.323 6.984-9.329.686-.006-5.356 8.966-6.62 9.329-.686"/><path fill="#6e1e3c" d="M88.982 39.088a3.79 3.79 0 0 0-3.427-1.908l-1.327.286c-3.123 2.636-.975 6.602 2.85 6.035 1.874-.686 2.778-2.928 1.904-4.413"/></svg>