<svg xmlns="http://www.w3.org/2000/svg" width="72.089" height="191.243" viewBox="0.325 0.372 72.089 191.243"><path fill="#eaa06d" d="M59.539 173.302c-.513.588-1.05.746-1.766 1.123-.798.42-1.484.734-2.332 1.082-1.785.734-3.744 1.499-5.642 1.401-1.283-.068-4.846-.031-6.091.258-1.425.33 3.071 2.063 3.874 2.159 2.57 1.29 4.873 1.364 7.654 1.892 1.308.253 4.427.158 5.81.093 1.624-.078 1.527-.356 3.108-.68a16 16 0 0 0 4.276-1.533c.958-.505 1.808-1.247 2.803-1.633.034-.139.053-.414.019-.555-.155-.635-1.243-1.852-1.84-2.11-.928-.403-2.108-.572-3.165-.562-1.189.005-3.019.44-4.249.3-.465-.056-2.343-.448-2.068-1.041"/><path fill="#bc7240" d="M71.435 177.413c.245.913.294 1.86.324 2.854.014.489-.107.851-.166 1.268-.06.455.106.889.044 1.343-1.012.399-1.894 1.009-2.95 1.356-1.138.376-2.322.665-3.47 1.024-2.698.849-5.754.687-8.478.055-1.084-.251-2.11-.639-3.138-1.056-.992-.403-1.728-.94-2.83-1.031-1.123-.097-2.207.233-3.342.153-1.059-.072-2.263-.144-3.248-.521-2.099-.806-.647-3.975-.706-5.513.423.25 1.253.705 1.67.997.897.617 1.636.753 2.677 1.048 1.11.318 2.008.71 3.115 1.011 2.393.655 4.889.886 7.383 1.024 2.4.132 4.709-.004 6.932-.859 1.239-.475 2.428-1.08 3.605-1.695.72-.377 1.717-1.564 2.514-1.575"/><path fill="undefined" d="M71.028 177.131c.051.154.528.22.477.063-.678-2.093-2.275-3.202-4.46-3.24-1.103-.02-2.192.138-3.282.279-.572.074-1.152.163-1.727.156-1.017-.008-1.6-.377-2.276-1.09-.099-.103-.576-.137-.443.003.658.693 1.128 1.15 2.099 1.289.88.124 1.768.01 2.64-.107 2.864-.382 5.896-.678 6.972 2.647m.624.062c-.025-.156-.505-.241-.477-.063.32 1.937.22 3.89.26 5.839.003.146.482.253.476.063-.04-1.953.062-3.906-.26-5.839m-10.11 8.696c.324-.007-.02-.26-.19-.257-2.081.046-4.152-.069-6.128-.777-1.537-.553-3.032-1.538-4.672-1.746-.746-.095-1.46 0-2.203.115-1.479.23-2.91-.03-4.329-.46-1.592-.487-.256-4.055-.308-5.389-.007-.146-.484-.249-.477-.059.07 1.786-.693 3.476-.348 5.26.02.084.145.123.21.141 1.653.527 3.302.965 5.05.828 1.092-.084 2.06-.366 3.154-.03.832.26 1.587.66 2.388.997 2.563 1.066 5.082 1.438 7.852 1.377m10.325-2.778c.19-.087-.25-.284-.38-.222-3.277 1.48-6.538 2.6-10.133 2.745-.322.013.016.265.188.257 3.669-.148 6.98-1.27 10.325-2.78m-.377-5.855c.121-.104-.322-.288-.448-.185-3.578 3.085-8.774 4.506-13.413 4.245-2.673-.152-5.33-.646-7.906-1.376-1.31-.372-2.91-.703-4.065-1.459-.682-.45-1.3-.95-2.041-1.3-.206-.1-.483.039-.184.18 1.279.604 2.229 1.47 3.585 1.955 1.158.416 2.329.785 3.522 1.084 2.533.633 5.123 1.136 7.739 1.197 4.62.103 9.646-1.263 13.21-4.341"/><path fill="#eaa06d" d="M36.883 183.566c.008.69-.464 2.024-.999 2.373-.724.465-2.038.967-2.874 1.137-3.662.75-8.925.779-12.57-.138-.836-.21-1.654-.66-1.866-1.326-.11-.352-.37-1.795-.317-2.116.093-.594 1.366-1.35 1.742-1.88.404-.568 1.248-1.024 1.81-1.475 1.13-.915 2.87-1.193 4.294-1.405 1.628-.245 3.068-.024 4.748.456 1.304.375 2.363.965 3.527 1.63.56.322 1.07.574 1.408 1.173.279.493.574 1.276 1.097 1.57"/><path fill="#bc7240" d="M36.544 184.928c-.046-.047-.177.538-.26.516-.233.329-.47.506-.821.823-.35.316-1.09.43-1.503.604-1.4.586-2.99.634-4.513.838-2.694.366-5.022.251-7.796-.473-1.06-.276-2.834-.549-3.078-1.63-.15-.669-.02-2.378-.87-2.033-.866.355-.639 1.724-.52 2.53.158 1.083.563 2.096 1.326 2.987.634.744 1.639.892 2.567 1.088 1.12.233 2.31.494 3.458.541 1.39.059 2.406.185 3.792.185 1.524 0 3.062-.22 4.528-.574.744-.18 1.522-.205 2.175-.614.45-.284 1.363-.436 1.498-.944.277-1.052.838-2.87.46-3.86"/><path fill="undefined" d="M36.617 183.544c.025.156.505.241.476.063-.199-1.223-2.642-2.298-3.572-2.792a10.3 10.3 0 0 0-4.739-1.185c-1.91-.012-4.124.033-5.957.607-1.947.609-3.491 1.77-4.869 3.249-.119.124.336.296.448.18 1.16-1.244 2.5-2.4 4.126-2.979 1.718-.614 3.633-.726 5.447-.785 1.72-.056 3.404.133 4.967.902.895.443 3.488 1.612 3.673 2.74m-18.125.144c-.009-.154-.488-.25-.469-.058.06.828-.035 1.976.654 2.589.527.467 1.17.759 1.853.935 1.855.495 3.88.744 5.798.775 2.414.043 4.941-.138 7.277-.79.857-.242 1.804-.524 2.494-1.127.802-.697.738-1.403.997-2.37-.16-.035-.318-.064-.477-.098a10.55 10.55 0 0 1-.139 4.11c-.165.695-.04 1.059-.768 1.482-.35.203-.708.42-1.09.557-2.578.915-5.453 1.18-8.171 1.13-1.41-.026-2.83-.113-4.214-.382-1.423-.277-3.168-.577-3.979-1.928-.625-1.037-1.763-4.781.266-5.1.266-.043-.153-.271-.296-.253-2.076.327-1.274 3.928-.567 5.104 1.406 2.344 4.756 2.554 7.2 2.749 3.244.256 6.858.074 9.946-1.02.543-.195 1.11-.464 1.571-.815.49-.375.365-.52.5-1.084.347-1.468.457-2.99.213-4.483-.022-.137-.436-.254-.477-.1-.23.856-.165 1.733-.965 2.317-.797.58-1.719.921-2.675 1.138-1.938.438-3.932.7-5.918.703-1.78.002-3.57-.168-5.323-.492-.831-.152-2.355-.36-2.813-1.182-.396-.716-.371-1.51-.428-2.307"/><path fill="#3d6767" d="M61.636 174.19c.817-1.203 1.331-2.688 1.552-4.121.295-1.892-1.11-2.455-2.445-3.297-1.179-.742-1.127-1.799-.643-3.018.256-.642.561-1.228.674-1.919.13-.786-.256-1.41-.835-1.857l-.203-.142a4 4 0 0 0-2.01-.635c-.1 0-.544-.199-.309-.195.338.008.674.053 1.004.123-1.103-1.077-1.135-2.872-1.184-4.316-.092-2.537-.432-5.007-.81-7.515-.376-2.486-.793-4.989-1.013-7.496-.237-2.655-.1-5.208-.663-7.847 0-.004.008-.004.009-.006-.002-.005-.013-.011-.013-.017.2-7.815-.324-15.614-.332-23.427 0-.004.015-.004.02-.007L53.281 92.96s-13.181-.118-29.154 2.554l-1.115 12.854s.132.27-.021.22c-.965 10.233-1.934 20.474-2.9 30.71q.001.002.003.004c-.401 6.54-1.721 13.053-3.324 19.396-.726 2.87-1.912 5.991-1.327 8.98.12.62.356.742-.254 1.224-.976.774-.223 1.175.566 1.793.016.015.02.028.02.05-.612.986-1.44 1.795-2.133 2.716-.32.423-.55.891-.733 1.386-.337.894.106 1.524.573 2.253a16.9 16.9 0 0 0 2.907 3.409c.976.88-.104 1.97 2.112 2 .066.003.304.1.357.159 1.386-1.006 2.463-3.303 4.582-3.496 2.361-.638 3.888-.577 5.983-.273 2 .294 2.416.297 4.088 1.366.812.306 2.717 2.237 3.164 2.186.737-.085 1.492-1.065.7-3.547-.414-1.295.225-.761 1.195-1.995.516 1.258 2.876 2.856 4.87 1.608-.083-.387-.81-1.608 1.948-1.608 2.586.022 4.136.013 6.84-.224 1.461-.129 3.237-1.136 4.612-1.694 1.2-.488 1.017-1.049 2.224-1.403.696-.273 2.15 1.258 2.75.726-.108-.04-.198-.095-.179-.124"/><path fill="undefined" d="M63.612 168.958c-.568-1.744-3.704-1.919-3.363-3.942.242-1.429 1.833-3.316.502-4.651-.483-.487-1.074-.822-1.707-1.045l-.07-.028c-.053-.044-.087-.102-.136-.15-1.321-1.316-1.085-3.662-1.16-5.375-.115-2.6-.618-5.164-.97-7.736-.357-2.609-.893-5.225-.905-7.867-.01-2.073-.147-4.072-.58-6.106.201-7.812-.323-15.607-.332-23.418l-1.135-16.152c-12.172-.416-30.044 2.554-30.044 2.554l-1.177 13.201-1.366 14.458-.234 2.475-1.322 14q.001.003.002.005c-.361 5.902-1.478 11.802-2.867 17.541-.65 2.674-1.618 5.38-1.874 8.133-.094.972-.178 2.032.218 2.932.29.658-.335.857-.716 1.24-.288.292-.322.615 0 .915.413.382 1.045.58.573 1.213-.31.417-.649.805-.986 1.199-.535.625-1.128 1.289-1.42 2.07-.098.255-.466 1.077-.314 1.333.252.426.504.855.78 1.267.65.977 1.36 1.926 2.198 2.753.635.625.852.987 1.207 1.754.156.332.37.57.621.744.006.003.012.01.018.013.453.306 1.027.4 1.634.419q.06.002.116.004h.007c.06-.002.068-.018.047-.04a.3.3 0 0 0-.096-.06l.163-.056c.023.078.402.22.47.111 3.185-5.804 13.097-4.728 16.842-.095.07.085.342.16.442.1.512-.325 1.519-.754 1.484-1.51-.053-1.124-.675-1.92-.501-3.08a7 7 0 0 0 .936-.906c1.32 1.651 2.935 2.192 5.043 1.415.144-.052-.284-.226-.39-.185-.93.345-2.059.666-2.97.058-.604-.403-1.048-.933-1.465-1.52-.002-.004-.01-.004-.013-.007 1.272-1.59 1.966-3.76 1.528-5.736-.218-1-.712-1.52-1.523-2.102-.361-.26-1.297-.794-1.035-1.39.137-.302.314-.53.486-.811.413-.666.253-1.318.142-2.023 1.673 1.976 3.857 3.904 6.584 3.624.24-.026-.207-.21-.31-.197-2.693.276-4.786-2.046-6.323-3.979-.165-8.15-.856-16.352.423-24.449.015-.007.04-.007.044-.02 1.304-4.65 2.03-9.426 2.593-14.215.263-2.239.615-4.503.703-6.759.078-2 .147-3.874.988-5.731.039-.084-.426-.245-.474-.132-.909 2-.87 3.993-1.01 6.136-.142 2.278-.462 4.553-.738 6.819-.553 4.538-1.255 9.058-2.47 13.473-.04.004-.074.013-.078.035-1.335 8.166-.63 16.438-.462 24.66-.036.007-.053.025-.027.057l.03.037q0 .054.003.11c-.001.003-.01.001-.01.005q.005.051.013.102v.024q.001 0 .002.003c.1.783.39 1.6-.104 2.296-.373.532-.696.946-.297 1.537.59.882 1.84 1.114 2.211 2.2.87 2.557-.34 5.623-2.36 7.295-1.03-1.228-3.298-1.61-4.714-1.952-2.487-.6-4.998-1.13-7.542-1.418-.312-.035.083.18.205.193 2.023.23 4.024.621 6.008 1.076.864.197 1.733.388 2.583.646.551.17 1.077.368 1.617.555q.534.167 1.01.466-.073.347-.147.69c-3.226-.011-6.297-1.261-9.523-1.18-.237.008.21.2.308.199 2.093-.058 4.057.527 6.104.855 1.24.2 2.67.49 3.929.23-.075.882.263 1.406.445 2.334.2 1.018-.43 1.408-1.17 1.867-3.97-4.526-13.938-5.724-17.362-.086l-.58.23c-2.217-.03-1.136-1.12-2.112-2a16.9 16.9 0 0 1-2.908-3.408c-.466-.73-.91-1.359-.573-2.253.184-.495.415-.963.733-1.386.693-.922 1.522-1.73 2.133-2.716a.06.06 0 0 0-.02-.05c-.789-.618-1.542-1.018-.566-1.793.61-.482.375-.605.254-1.224l-.003-.03c2.522.78 4.754 2.375 7.447 2.56 2.748.191 5.416-1.237 8.033-1.956.14-.038-.282-.217-.396-.185-2.434.668-4.94 1.969-7.512 1.949-2.727-.02-5.047-1.763-7.593-2.537-.496-2.93.642-5.976 1.352-8.782 1.603-6.342 2.923-12.856 3.324-19.395l-.002-.004c.965-10.236 1.934-20.477 2.899-30.71.153.05.02-.22.02-.22l1.116-12.854c15.972-2.672 29.154-2.554 29.154-2.554l1.152 15.537c-.004.004-.019.004-.019.008.008 7.814.532 15.612.332 23.427 0 .006.011.012.013.017-.001.002-.01.002-.009.006.563 2.638.426 5.192.663 7.847.22 2.507.638 5.01 1.012 7.496.378 2.51.72 4.978.81 7.515.05 1.444.082 3.24 1.185 4.316a5.4 5.4 0 0 0-1.004-.123c-.236-.004.21.195.31.195a4 4 0 0 1 2.212.777c.579.447.965 1.07.835 1.857-.113.69-.418 1.277-.674 1.92-.484 1.218-.536 2.274.643 3.016 1.336.843 2.74 1.406 2.445 3.298-.22 1.433-.734 2.918-1.552 4.121l-.281.195.003.01a.4.4 0 0 0-.13-.028c-.293.023-.963-.935-1.302-1.099a.8.8 0 0 0-.583-.058c-.782.22-1.642 1.066-2.373 1.458-1.05.558-2.13 1.076-3.264 1.444-2.302.748-4.504.76-6.897.75-1.755-.01-3.51.048-5.133.792-.06.025.32.224.449.161 2.054-.942 4.353-.753 6.552-.74 2.014.013 3.912-.202 5.814-.918a23.8 23.8 0 0 0 5.011-2.598c.49-.334 1.206.887 1.9.987l.014.047s.546-.097.601-.243c.039-.002.079-.004.096-.03.882-1.3 2.02-3.755 1.5-5.364"/><path fill="#c0e1e1" d="M22.598 107.487c.336.996 1.142 1.598 2.127 1.985.758.262 1.603.442 2.418.583.869.124 1.714.196 2.395.302 3.776.584 7.56 1.051 11.389.894 0-.008-.012-.016-.01-.024.093-.777.359-1.52.458-2.305.11-.866.258-1.727.383-2.593.228-1.577.685-3.101.923-4.667.024-.152.338-.058.36.063.327 1.92.68 3.858.62 5.815-.025.779-.367 2.856.316 3.475 3.143-.33 6.263-.824 9.228-1.958.316-.119 4.47-2.15 4.765-3.34.003-.028.01-.056.011-.082a.4.4 0 0 0-.037-.222c-.057-.024-.106-.056-.117-.102q-.008-.036-.017-.072 0-.002-.002-.002c-.075-.059-.064-.105-.03-.138-.555-2.284-.9-4.602-1.218-6.933-.146-1.072-.335-2.147-.422-3.226-.069-.831-.052-1.77-.343-2.562-2.537.863-5.089 2.75-7.62 3.618-3.191 1.093-5.494 2.035-8.86 2.44-2.893.35-5.564.382-8.476.382-1.255 0-2.958-.378-4.167-.672-.544-.128-1.52-.4-2.058-.573-.37-.115-.497-.666-.713-.416-.27.315-.331-.127-.302.19a11.6 11.6 0 0 1-.183 1.632c-.217 2.838-.785 5.65-.82 8.505q.001 0 .002.003"/><path fill="undefined" d="M58.16 105.223c-.642-2.61-1-5.27-1.364-7.93-.215-1.556-.107-3.528-.681-4.998-.053-.134-.41-.156-.338.028q.008.027.017.054c.292.792.274 1.73.343 2.562.088 1.08.276 2.155.422 3.226.318 2.33.663 4.649 1.218 6.932-.034.034-.044.08.03.14l.002.001q.008.037.017.072c.011.047.06.078.117.102a.4.4 0 0 1 .038.222q-.003.04-.012.082c-.295 1.19-4.449 3.221-4.765 3.34-2.965 1.133-6.085 1.627-9.228 1.958-.684-.62-.34-2.696-.317-3.475.061-1.958-.293-3.895-.62-5.815-.02-.12-.336-.216-.36-.063-.237 1.566-.693 3.09-.922 4.667-.125.866-.272 1.727-.383 2.593-.1.785-.366 1.527-.458 2.305-.001.01.01.017.01.024-3.828.157-7.613-.31-11.388-.894-.682-.106-1.527-.179-2.396-.302-.828-.12-1.673-.292-2.418-.583-.985-.387-1.792-.989-2.127-1.985q0-.002-.002-.002c.034-2.856.602-5.667.819-8.505.056-.732.094-1.466.086-2.203-.002-.144-.366-.208-.364-.033.018 1.68-.17 3.344-.379 5.005-.19 1.518-.393 3.033-.48 4.559-.021.382-.04.765-.044 1.147q.002.002.003.005c.786 2.32 3.882 2.654 5.954 2.936 4.354.592 8.644 1.298 13.056 1.09.159-.007.118-.107.03-.174.092-.774.356-1.513.455-2.292.11-.866.252-1.727.382-2.592.182-1.208.486-2.389.726-3.576l.01-.054.01.059c.272 1.818.449 3.61.41 5.473-.014.742-.191 2.128.399 2.757-.043.074.107.207.23.191 3.827-.393 8.042-.915 11.427-2.892.667-.384 3.707-2.13 2.834-3.162"/><path fill="#a86c35" d="M40.05 40.203c4.136-.207 5.013-2.526 5.202-3.564-.438.098-2.322.396-2.343-1.786-.587.357-1.208.648-1.855.8h-.002a.4.4 0 0 1-.089.008c-2.609-.051-5.546-1.3-7.858-2.426q-.09-.046-.18-.095l-.07.922-.208 2.736c.787 1.035 3.189 3.616 7.402 3.405"/><path fill="undefined" d="m32.856 34.062.068-.922.02-.265-.237-.06-.148.891-.238 2.752.122.175.194.28zM45.344 36.616l-.003-.035-.017-.183c-2.435.455-2.178-1.84-2.178-1.84h-.237c-.007.106-.003.197-.001.294.023 2.47 2.436 1.764 2.436 1.764"/><path fill="#302d63" d="M33.66 98.695a29 29 0 0 1 2.424-.124h.059a97 97 0 0 0 4.267-.417c.7-.083 1.39-.222 2.076-.388a37 37 0 0 1 1.815-.512c2.026-.659 4-1.541 5.942-2.32 2.493-1 4.63-2.845 7.292-3.374.596-.645-.039-2.252-.46-3.158-.428.443-.857.888-1.242 1.354-.093.115-.548-.051-.445-.179.473-.573 1-1.096 1.524-1.622.007-.004.004-.013.015-.014.456-.458.913-.918 1.329-1.414 1.337-1.596 1.286-3.374.585-5.25-1.376-3.692-3.146-7.199-4.294-10.982a24.3 24.3 0 0 1-.93-9.816q.042-.395.088-.788l-.012-.02c-.006-.012.013-.015.016-.022.37-3.315.82-6.566.573-9.927-.004-.051.042-.073.1-.08-.142-1.783-.851-9.608-.982-11.05h-.001a21 21 0 0 0-1.396-.674l-.034-.016q-.723-.315-1.465-.57-.736-.248-1.492-.419l-3.39-.454s-.12 3.8-5.621 4.077c-5.503.278-7.759-3.68-7.917-3.84l-3.6 1.03s-.145.08-.26.075c-4.72 1.427-10.188.852-12.703 6.017l.001.002c-1.334 2.472-2.877 4.818-4.35 7.206-1.54 2.502-2.972 5.073-4.47 7.597-1.16 1.954-2.032 4.083-3.234 5.999-.829 1.323-2.45 3.303-2.116 4.98.545 2.145 1.622 4.03 2.922 5.8 1.504 2.05 2.765 4.273 4.018 6.478 1.82 3.196 4.25 8.745 8.553 8.901.02 0 .025-.009.053-.005 2.698.374 4.586-2.578 5.55-4.667a12 12 0 0 0 .589-1.58c.192-.642.336-1.298.426-1.96a7 7 0 0 0 .004-1.877q-.002-.02-.003-.043c-.063-.485-.105-1.26-.285-1.68-.057-.125.416-.072.474.071.108.253.163.551.203.858.045.356.068.72.11 1.043.078.58.035 1.176-.025 1.755q-.058.511-.173 1.015c.462-.903 1.151-2.688 1.191-5.413 0 0 .015-.05.038-.107-.08-.023-.152-.055-.176-.103-.66-1.352-1.772-2.236-3.266-2.497-.417-.074-1.822-.232-2.091.278-.08.146-.537-.018-.48-.13.204-.383.797-.482 1.395-.477-.775-.559-1.38-1.292-1.934-2.071-.785-1.098-1.095-2.525-1.99-3.523q-.051-.02-.036-.044l-.004-.005c-.395-.317-.722-.746-1.1-1.066-.64-.547-1.456-.83-2.254-1.049-.283-.076-.228-.283.056-.205.756.207 1.518.459 2.167.904.365.25.683.528.989.843l.047.047c.023-.006.021-.003.006.006.25.252.949.904.898.222-.07-.928-1.223-1.9-1.82-2.542-.126-.136.347-.093.44.008.397.423.786.851 1.144 1.308.091.117.205.26.314.416 2.604-1.087 3.515-4.667 4.506-7.043.532-1.28 1.053-2.56 1.72-3.78.457-.834 1.047-1.819 1.98-2.158.124-.044.56.151.382.218-1.25.456-1.921 2.079-2.458 3.184-.551 1.141-1.014 2.327-1.5 3.496-.135.328-.272.678-.412 1.034 1.79-.76 2.783-2.856 3.57-4.506.068-.148.532.006.477.128-.855 1.799-1.945 4.106-4.003 4.74a.2.2 0 0 1-.076.002c.939 1.634 1.509 3.667 2.002 5.475.622 2.266.396 4.747.385 7.07a5.2 5.2 0 0 1 1.42 1.785s.304 3.723-1.8 6.731l-.148 3.134 4.332 2.443c3.274 1.96 6.74 3.78 10.589 4.193 3.686.393 7.231-.974 10.399-2.725.12-.065.563.116.383.217-3.334 1.84-6.866 3.06-10.71 2.74-3.942-.326-7.622-2.315-10.95-4.312l-4.057-2.263-.137 2.915c-.922.727-.91 1.917-.831 2.987.044.594.252 1.35.09 1.953a.3.3 0 0 1 .088.04c2.012 1.702 4.962 2.221 7.492 2.412 1.194.088 2.408.104 3.625.074"/><path fill="#010101" d="M54.758 49.79c-.002-.028-.032-.052-.064-.075-.11-2.076-.495-9.006-.768-10.83l.005.002a2 2 0 0 1-.077-.371l-.217-.072c-1.081-.595-2.224-1.12-3.394-1.46a11 11 0 0 0-1.138-.278l.04-.09c-.753-.197-3.84-.474-3.84-.474 0 .024-.003.217-.054.498-.188 1.039-1.065 3.358-5.203 3.565-4.213.21-6.615-2.371-7.402-3.405-.196-.256-.296-.42-.296-.42l-.208-.06-4.042 1.19c-.104.033-.21.059-.316.09-2.343.69-4.818.784-7.157 1.492-2.516.761-4.422 2.21-5.585 4.6l.001.001c-1.405 2.594-3.047 5.043-4.571 7.565a394 394 0 0 0-4.688 7.98c-1.114 1.945-2.015 3.993-3.2 5.891C1.828 66.337.57 68.02.87 69.534c0 .002.005.003.006.006.637 2.497 2.002 4.443 3.428 6.525.31.453.603.914.897 1.376a95 95 0 0 1 2.19 3.645c.465.81.928 1.622 1.398 2.43l.36.623c1.091 1.882 2.377 4.017 4.104 5.407 1.017.818 2.192 1.369 3.569 1.462l.023.002c.11.008.216.023.33.024.023 0 .037-.004.054-.006 2.439.168 4.272-1.997 5.302-4 .242-.47.456-.959.653-1.457l-.437 5.478c-.04.031-.07.066-.105.099l-.094.088c-.627.642-.716 1.536-.692 2.425.024.763.372 1.78.096 2.514-.036.093.184.186.338.184h.002c.035.028.075.053.11.08 1.482 1.149 3.495 1.786 5.29 2.11.486.087.972.153 1.46.207q.54.06 1.082.097c2.696.18 5.414-.045 8.108-.261 3.7-.296 6.96-1.29 10.394-2.681 1.57-.635 3.224-1.168 4.674-2.058 1.364-.837 2.6-1.614 4.15-1.983.1.037.214.059.274.023 1.068-.632-.077-2.996-.466-3.796 1.603-1.66 3.081-3.338 2.226-5.947-1.264-3.859-3.262-7.445-4.444-11.344-.9-2.975-1.28-5.862-1.136-8.875q-.001-.144.02-.283c.02-.331.04-.664.072-1a2 2 0 0 1-.015-.65c.023-.18.063-.36.139-.538.398-3.228.768-6.413.528-9.67M22.543 96.207a.3.3 0 0 0-.088-.041c.162-.604-.045-1.359-.09-1.953-.08-1.07-.091-2.26.831-2.987l.137-2.915 4.057 2.263c3.328 1.997 7.008 3.986 10.95 4.313 3.845.32 7.377-.902 10.71-2.74.18-.1-.263-.283-.383-.218-3.168 1.751-6.713 3.118-10.399 2.725-3.85-.412-7.315-2.232-10.589-4.193l-4.332-2.443.147-3.134c2.105-3.008 1.802-6.731 1.802-6.731a5.16 5.16 0 0 0-1.421-1.784c.012-2.324.237-4.805-.385-7.071-.493-1.807-1.063-3.84-2.002-5.475a.2.2 0 0 0 .076-.002c2.058-.634 3.146-2.942 4.003-4.74.055-.122-.409-.276-.477-.128-.787 1.65-1.78 3.746-3.57 4.506.14-.356.278-.706.413-1.034.485-1.168.948-2.355 1.499-3.496.536-1.104 1.207-2.727 2.458-3.184.178-.066-.258-.261-.381-.217-.934.339-1.524 1.324-1.98 2.157-.667 1.219-1.189 2.5-1.72 3.78-.992 2.376-1.903 5.956-4.507 7.043-.109-.155-.223-.298-.314-.416a19 19 0 0 0-1.145-1.308c-.092-.1-.565-.143-.44-.008.598.643 1.75 1.615 1.82 2.543.052.68-.646.03-.897-.223l-.006-.005-.047-.048a6.3 6.3 0 0 0-.99-.843c-.65-.445-1.41-.697-2.166-.904-.284-.078-.339.13-.056.205.798.219 1.615.502 2.254 1.05.377.32.705.749 1.1 1.065l.004.005q.019.022.036.044c.894.997 1.205 2.425 1.99 3.523.554.778 1.16 1.512 1.935 2.071-.599-.005-1.192.094-1.395.477-.059.112.4.276.479.13.27-.51 1.674-.352 2.09-.278 1.495.26 2.607 1.145 3.267 2.497.022.048.097.08.176.103-.023.057-.038.107-.038.107-.04 2.725-.73 4.51-1.19 5.413a9 9 0 0 0 .172-1.015c.06-.578.103-1.174.025-1.755-.042-.322-.065-.688-.11-1.043-.04-.307-.096-.605-.203-.858-.059-.142-.53-.196-.474-.07.179.419.22 1.194.285 1.68q.001.021.003.041c.08.623.083 1.255-.004 1.877a13 13 0 0 1-1.015 3.54c-.964 2.09-2.852 5.04-5.55 4.667-.028-.003-.033.005-.053.005-4.302-.156-6.733-5.704-8.553-8.9-1.252-2.205-2.514-4.428-4.018-6.48-1.299-1.768-2.376-3.653-2.922-5.798v-.001c-.335-1.678 1.286-3.658 2.116-4.98 1.203-1.917 2.075-4.046 3.234-5.998 1.499-2.524 2.93-5.096 4.47-7.597 1.473-2.389 3.016-4.734 4.35-7.207v-.002c2.513-5.165 7.982-4.59 12.702-6.016.115.004.26-.076.26-.076l3.6-1.03c.16.16 2.415 4.117 7.917 3.84s5.62-4.077 5.62-4.077l3.39.454a16 16 0 0 1 1.493.418q.743.255 1.465.571.017.009.034.016.71.312 1.396.674v.001c.132 1.441.841 9.265.984 11.049-.06.008-.105.029-.1.08.246 3.362-.203 6.612-.574 9.927-.004.008-.02.011-.016.022l.012.02q-.045.394-.088.788a24.3 24.3 0 0 0 .93 9.816c1.147 3.782 2.917 7.29 4.294 10.981.7 1.878.752 3.656-.585 5.251-.416.496-.873.956-1.33 1.414-.01.002-.007.01-.014.014-.526.525-1.051 1.05-1.524 1.623-.103.127.352.293.445.178.384-.465.813-.91 1.242-1.354.421.907 1.056 2.513.46 3.158-2.663.53-4.798 2.373-7.292 3.374-1.941.779-3.917 1.661-5.943 2.32-.6.196-1.205.364-1.814.513-.686.165-1.377.304-2.076.387-1.4.164-2.83.314-4.267.417q-1.242.091-2.483.124c-1.218.03-2.431.015-3.625-.075-2.53-.188-5.48-.708-7.492-2.41M17.68 69.664c.078-.277-.03-.584-.195-.87q.037.002.064-.006c1.918-.718 2.908-2.701 3.682-4.603.31.65.483 1.296.744 1.985.385 1.002.785 2.01 1.039 3.057.535 2.228.404 4.536.386 6.81a4.8 4.8 0 0 0-1.704-.643 10 10 0 0 0-.85-.111c-1.113-.732-2.16-2.083-2.702-3.279-.33-.726-.583-1.445-1.048-2.07.255.035.51-.012.584-.27"/><path fill="#c0e1e1" d="M43.925 35.595c-.556.7-1.004 1.482-1.47 2.248q-.109.18-.22.356c-.403.647-.831 1.273-1.366 1.82-.693.713-.424.989.182 1.614.42.431.83.872 1.24 1.313.8.861 1.592 1.73 2.396 2.586.968-3.015 2.526-5.893 3.834-8.767-1.412-1.141-3.387-1.758-5.107-2.203-.05-.012-.073-.038-.102-.06l-.017.01c-.505.203.089 1.608.084.93 0-.033 0 .063-.002.096q.053-.076.108-.15c.13-.161.583.02.44.207M33.748 44.007c.922.782 1.883 1.53 2.768 2.315.659-1.03 1.032-2.216 1.63-3.284.372-.664.765-1.317 1.158-1.967.548-.91-.25-1.17-.936-1.648-1.29-.893-2.583-1.858-3.747-2.948q-.138-.126-.276-.254a17 17 0 0 1-1.106-1.189q-.368-.431-.701-.89l-.02-.026c-1.396.825-2.975 1.685-3.905 3.032q-.016.02-.038.031c-.574.448 2.508 4.136 2.874 4.583.577.701 1.256 1.332 1.959 1.944q.012.006.023.014a.8.8 0 0 1 .317.287"/><path fill="undefined" d="M49.03 36.8a.1.1 0 0 0-.015-.075.15.15 0 0 0-.053-.06l-.011-.013c-1.18-.997-2.763-1.618-4.29-2.074l-.24-.07q-.469-.137-.923-.255c-.248-.062-.332.135-.187.248.028.023.053.049.101.06 1.72.447 3.695 1.063 5.107 2.204-1.308 2.874-2.867 5.751-3.834 8.767-.804-.855-1.597-1.725-2.396-2.586-.41-.441-.819-.882-1.24-1.313-.606-.625-.874-.9-.182-1.613.535-.549.964-1.175 1.366-1.82q.112-.18.22-.357c.466-.766.914-1.546 1.47-2.248.143-.187-.31-.369-.44-.207q-.056.074-.108.15-.149.199-.292.402c-.516.749-.955 1.548-1.45 2.31-.304.463-.61.956-.999 1.355-.153.154-.42.364-.587.598-2.583-1.935-5.388-3.656-7.252-6.372l-.006-.008c-.084-.125-.274-.191-.413-.108-1.48.881-3.202 1.775-4.205 3.226-.006.01-.005.02-.01.03-.647.738 1.869 3.623 2.27 4.133 1.688 2.157 3.97 3.759 5.983 5.6.09.085.32.177.416.04.613-.876.912-1.867 1.388-2.812.518-1.035 1.133-2.023 1.74-3.01.222.712 1.176 1.331 1.633 1.823 1.005 1.086 1.994 2.183 3.015 3.252.083.103.282.138.383.059q.05-.021.061-.06c.964-3.164 2.617-6.172 3.982-9.177.005-.008-.004-.012-.002-.02m-17.581 4.96c-.366-.445-3.449-4.135-2.874-4.583.014-.01.029-.017.038-.031.93-1.346 2.51-2.207 3.905-3.032l.02.026q.331.458.7.89.525.62 1.107 1.189c.09.087.185.169.276.254 1.165 1.089 2.457 2.054 3.747 2.948.687.478 1.484.738.936 1.648-.393.651-.786 1.303-1.159 1.967-.597 1.068-.97 2.253-1.629 3.284-.885-.786-1.846-1.533-2.768-2.315-.116-.099-.225-.202-.34-.302-.703-.61-1.38-1.242-1.96-1.943"/><path fill="#a86c35" d="M49.788 19.122c-.003.005-.016.003-.02.008-.029.421-.032.834.024 1.208.002.011-.016.012-.02.02.2.92.315 1.85.34 2.778.223-.52.453-1.038.645-1.572.164-.459.227-.93.251-1.413a4 4 0 0 0-.059-.732q-.077-.773-1.161-.297"/><path fill="#a86c35" d="M45.9 31.824q.363-.41.74-.802c.519-.597 1.01-1.219 1.448-1.86 1.801-2.644 1.867-6.163 1.15-9.186-.008-.033.018-.05.06-.06-.094-1.114.131-2.439.635-3.389.002-.004.01-.002.012-.005.238-.875 3.227-12.832-10.423-13.753-14.102-.95-15.795 7.275-14.924 16.78.084.049.167.086.255.146.203.141-.276.095-.374.029-.42-.294-.783-.389-1.096-.346l-.055.01c-1.347.26-1.712 3.172-1.459 4.18.198.79.73 1.463 1.274 2.04.326.344.712.627 1.089.915 1.049.811 1.8.38 2.383-.482.086-.128.526.057.475.129q-.105.152-.22.293.01.04.023.08c.096.022.188.058.207.112 1.015 2.946 3.325 4.955 6.026 6.363 2.156 1.129 5.11 2.36 7.584 2.425 1.412-.347 2.621-1.337 3.722-2.243.512-.424.997-.892 1.467-1.376"/><g fill="undefined"><path d="M51.255 19.02c-.232-.532-.86-.656-1.36-.484-.023.008-.05.008-.072.017.103-.684.302-1.357.588-1.897.004-.006-.013-.016-.014-.023l.026-.023c1.181-3.738.244-11.789-6.495-13.422-.19-.045-.373-.084-.56-.128-2.808-.647-5.252-.947-7.513-.81-2.92.18-5.54 1.085-8.255 2.927-4.709 3.193-3.431 13.21-3.29 14.21-.088-.038-.17-.056-.254-.082-2.345-.73-3.475 3.182-2.245 5.126.726 1.15 1.868 2.241 3.152 2.746.714.28 1.27-.006 1.715-.481 1.001 2.771 3.183 4.786 5.725 6.168q-.01.002-.02.006.234.087.43.221 0-.005-.003-.011c.099.05.193.106.293.155 2.313 1.127 5.25 2.375 7.858 2.426q.06.001.09-.008h.001c.663-.156 1.298-.456 1.898-.825q.202-.165.458-.274l-.02-.01a17 17 0 0 0 1.49-1.175c1.271-1.113 2.51-2.355 3.465-3.759 1.088-1.595 1.615-3.398 1.741-5.251.035-.007.07-.014.079-.04.572-1.662 1.88-3.496 1.092-5.298m-3.166 10.142a20.4 20.4 0 0 1-2.189 2.662c-.47.485-.955.952-1.468 1.376-1.1.907-2.31 1.896-3.722 2.243-2.473-.064-5.428-1.295-7.584-2.425-2.701-1.408-5.01-3.418-6.026-6.363-.02-.054-.111-.09-.207-.112-.024-.006-.046-.015-.07-.018q.023-.031.047-.062.114-.14.22-.293c.236-.626-.132-1.1-.706-1.141-1.151-.084-2.457.534-3.069-.892-.059-.132-.516-.178-.473-.078.342.801 1.081 1.193 1.92 1.293.538.066 2.232-.32 1.851.69l.001.002c-.581.86-1.334 1.29-2.381.48-.377-.288-.763-.571-1.089-.916-.543-.576-1.076-1.25-1.274-2.038-.253-1.01.112-3.921 1.46-4.18l.054-.011c.313-.043.676.053 1.096.346.098.065.576.112.374-.029-.087-.06-.17-.098-.256-.147-.87-9.503.824-17.728 14.925-16.779 13.651.92 10.66 12.878 10.423 13.753-.002.003-.01.001-.012.005-.503.95-.729 2.275-.636 3.39-.042.008-.067.026-.06.059.718 3.02.651 6.541-1.149 9.185m2.667-7.597c-.192.534-.421 1.053-.645 1.572a15 15 0 0 0-.34-2.778c.005-.008.022-.01.02-.02a5.6 5.6 0 0 1-.024-1.208c.005-.005.018-.003.02-.009q1.085-.475 1.16.297.063.364.06.732c-.023.484-.087.954-.251 1.414"/><path d="M22.214 21.737c-.007.146.471.232.477.13.048-.99 1.332-1.148 1.96-.519.577.58 1.004 1.291 1.603 1.855.09.083.55.132.435.024-.877-.825-1.385-2.082-2.634-2.4-.752-.187-1.793-.023-1.841.91"/></g><path fill="#010101" d="M43.13 27.428c-.13-.14-.621-.117-.412.109.815.89.194 1.046-.571 1.286q-.689.218-1.383.419c-.954.274-1.905.555-2.848.87a.5.5 0 0 0-.096.004q-.114.023-.227.058c-.074.005-.137.026-.147.09v.004c-.03.18.275.255.403.217.05-.015.099-.024.15-.037a.3.3 0 0 0 .125-.006c1.066-.36 2.146-.667 3.221-.99.298.242.609.47.886.736-.425.307-.847.62-1.284.907q-.06.035-.055.104c.018.152.039.292.099.431.072.174.576.218.475-.028-.15-.362.2-.46.455-.643q.413-.298.827-.594c.074-.052.069-.124.01-.185-.307-.323-.672-.57-1.015-.849.621-.189 1.24-.384 1.852-.603.059-.022.11-.054.101-.125-.065-.5-.23-.806-.567-1.175"/><g fill="undefined"><path d="M37.678 26.912c.338-.217.727-.26 1.105-.362a.4.4 0 0 0 .216.112c.882.14 1.613.493 2.536.385.811-.095 1.566-.752 1.71-1.555.024-.134-.455-.245-.477-.126-.147.817-.95 1.484-1.79 1.499-.727.012-1.324-.272-2.005-.391.003-.073-.32-.2-.42-.167-.452.15-.915.173-1.326.432-.086.057.327.25.451.173M38.84 24.866c1.16-.455 2.42-.731 3.64-.331.191.062.494-.026.171-.132-1.415-.464-2.827-.271-4.198.266-.16.062.275.242.388.197"/></g><path fill="#fff" d="M36.394 20.74c-.146-.683-.705-1.098-1.03-1.674-.297-.534-.816-.85-1.391-1.119-1.445-.682-2.74.182-3.59 1.352-.26.361-.516.78-.447 1.25.109.762.704 1.037 1.372 1.184.899.203 2.004.32 2.885.079.456-.123 1.897-.567 2.009-1.133a.4.4 0 0 1 .155-.037"/><path fill="undefined" d="M36.088 20.986c.053.142.526.205.475.07-.543-1.532-1.372-3.177-3.137-3.44-1.178-.175-2.383.612-3.148 1.437-.382.415-.8.837-.565 1.445.23.6.693.988 1.31 1.172 1.7.51 3.932.314 5.494-.541.179-.099-.264-.277-.383-.214-1.275.698-3.364 1.06-4.775.637-1.713-.515-1.318-1.716-.401-2.554.575-.53 1.308-1.07 2.117-1.145 1.728-.16 2.541 1.798 3.013 3.132"/><path fill="#42210b" stroke="#010101" stroke-width=".237" d="M34.031 18.207c.288 0 .548.117.737.306a1.04 1.04 0 0 1 0 1.474 1.04 1.04 0 0 1-1.474 0 1.04 1.04 0 0 1 0-1.474c.189-.19.45-.306.737-.306Z"/><path fill="undefined" d="M30.47 16.896c.834-2.105 3.302-2.396 5.27-1.96.28.062.332-.107.047-.172-2.111-.47-4.881-.305-5.795 2.004-.044.107.424.257.477.128"/><path fill="#fff" d="M48.127 18.839v.032c0 .62-.408 1.04-1 1.325-.763.373-1.192.522-2.04.563-.85.043-1.637.064-2.435-.174-.372-.11-.391-.147-.355-.521.031-.318.145-.486.285-.772.133-.273.153-.6.324-.84.15-.217.099-.54.28-.733.455-.488 1.075-.635 1.761-.653.606-.015 1.327.064 1.822.386.353.226 1.45.87 1.425 1.417"/><path fill="undefined" d="M42.045 20.468c-.026.153.455.266.478.126.194-1.146.54-2.819 1.748-3.345.87-.376 1.781-.113 2.554.373.84.528 1.69 1.556.445 2.338-1.307.824-3.443.986-4.894.493-.2-.07-.496.052-.179.161 1.61.551 3.741.447 5.265-.316.478-.239 1.32-1.208.834-1.805a4 4 0 0 0-.89-.789c-.804-.534-1.86-1.037-2.858-.86-1.721.302-2.248 2.12-2.503 3.624"/><path fill="#42210b" stroke="#010101" stroke-width=".237" d="M46.12 17.325a1.04 1.04 0 0 0-1.08 1.003 1.043 1.043 0 1 0 2.085.08 1.043 1.043 0 0 0-1.004-1.083Z"/><path fill="undefined" d="M43.027 14.663c1.814-.685 4.213-.896 5.323 1.039.072.125.52.158.473.078-1.255-2.185-4.104-2.1-6.187-1.315-.16.06.275.24.39.198"/><path fill="#301113" d="M50.934 15.026c-.034-.05-.05-.108-.017-.173.317-.615.257-1.421-.012-2.041-.036-.084-.008-.139.046-.173 0-.018-.018-.03-.012-.05a4.5 4.5 0 0 0-.238-3.032c-.037-.08-.013-.134.039-.168.44-1.042-.377-2.099-1.079-2.824-.062-.034-.115-.08-.128-.145-.14-.709-.661-1.231-1.113-1.761a.17.17 0 0 1-.046-.102q-.015-.014-.025-.027c-.39-.654-.889-1.348-1.669-1.523-.12.05-.331.006-.39-.123-.376-.83-1.733-.878-2.513-.96-.012-.001-.018-.01-.029-.014-.014 0-.02.007-.036.004-.648-.143-1.561-.774-2.198-.363-.08.053-.198.036-.292-.012a.2.2 0 0 1-.138.031c-.442-.051-.886-.09-1.33-.125a.25.25 0 0 1-.196-.02h-.01c-.013-.001-.018-.01-.03-.012-.55-.268-1.223-.148-1.801-.062-.496.073-.98.084-1.481.053-.035-.002-.058-.023-.086-.035-.019.005-.02.019-.044.02-.718.044-1.428.118-2.138.22-.027.016-.066.013-.106.013l-.04.004c-.008.001-.013-.004-.02-.003-.01-.002-.015.003-.025 0-.79-.246-1.452-.11-2.013.515-.074.084-.217.08-.326.034q-.894.277-1.753.655c.013.055-.01.107-.105.134-.77.22-2.293.2-2.287 1.306 0 .159-.171.188-.312.144-.528.407-1.022.852-1.47 1.346l-.019.018v.001a.2.2 0 0 1-.06.046c-.333.17-.89.417-.97.82-.027.134.003.282-.018.418-.014.108-.081.189-.16.259-.004.017-.006.034-.017.051-.304.472-.57.962-.81 1.469.01.027.032.052.024.085-.082.39-.431.627-.495 1.023-.056.352.043.714-.224 1a.2.2 0 0 1-.08.048q-.19.755-.277 1.528c.038.04.059.093.046.152-.083.43-.424.842-.238 1.244.075.034.139.082.144.16q.003.035.007.072.028.055.01.096c.033.437.093.871.188 1.3.189.27.211.575.297.898.05.18.098.428.245.557.1.091.143.184.139.32-.001.017-.017.021-.022.035.394.759.901 1.44 1.531 2.017a.3.3 0 0 1 .055.07c.08.003.16.028.208.084.766.871 1.276 1.794 1.765 2.82.41-.261.888-.607.703-1.096-.16-.418-.469-.798-.656-1.208-.534-1.142-1.102-2.322-1.564-3.493-.762-1.93-.245-4.508.6-6.318.855-1.836 3.031-3.167 4.822-3.942C33.422 5.107 36.62 5.1 39.55 5.243c1.588.078 3.183.303 4.763.51 1.016.134 2.003.417 2.888.946 3.305 1.965 3.458 6.527 3.223 9.908-.019.197-.296.207-.426.104-.135 1.03-.284 1.837-.333 1.986l.092-.096c.208-.289.448-.555.67-.845.564-.746.51-1.833.508-2.73"/><path fill="undefined" d="M51.37 12.765c.016-.017.04-.022.048-.047a4.8 4.8 0 0 0-.232-3.152c.006-.009.02-.009.023-.02.52-1.165-.412-2.393-1.19-3.19q-.019-.015-.04-.026c-.185-.722-.678-1.268-1.156-1.828q-.001 0-.002-.002c-.005-.011-.004-.022-.012-.035-.485-.819-1.119-1.66-2.117-1.832-.022-.003-.035.008-.056.008-.554-.866-1.91-.986-2.845-1.084-.848-.19-1.78-.824-2.62-.303-.036-.025-.072-.051-.121-.057a33 33 0 0 0-1.423-.131c-1.046-.45-2.337.034-3.426-.035-.054-.003-.081.017-.114.031a.3.3 0 0 0-.14-.039c-.505.029-1.009.079-1.51.139q-.338.038-.672.086c-.08-.022-.162-.045-.241-.06-.71-.14-1.358.001-1.909.463q-.045.04-.09.084a.3.3 0 0 0-.071.005c-.182.053-.357.12-.535.179a16 16 0 0 0-1.96.769c-.02.01-.031.022-.046.034-.624.134-1.35.256-1.767.666q-.072.072-.13.157-.114.165-.162.389-.003 0-.005.002a11.7 11.7 0 0 0-1.759 1.588c-.342.171-.817.392-1.002.725-.097.174-.087.386-.12.571a.6.6 0 0 1-.073.193c-.03.05-.06.099-.12.133-.09.052-.089.122-.041.181a14 14 0 0 0-.831 1.55c-.023.051-.01.097.019.135-.13.236-.348.43-.393.708-.038.242 0 .534-.07.775q-.007.02-.016.04c-.005.014-.017.025-.023.04-.078.006-.148.033-.168.112a11.5 11.5 0 0 0-.347 1.907c-.003.035.021.06.036.09-.08.259-.225.503-.265.77-.038.287.042.51.21.726q.049.644.184 1.277c-.029.04-.029.095.03.16.228.255.241.653.327.974.033.132.076.261.14.38.04.07.136.165.175.253-.032.034-.04.081-.008.146.432.85 1 1.601 1.705 2.243.048.045.11.064.17.066l.006.009q.299.342.552.696c.035.05.064.1.098.15.466.678.838 1.393 1.196 2.166.069.146.283.199.417.111.272-.183.632-.397.877-.67q.035-.037.066-.074c.154-.197.243-.424.195-.693-.124-.688-.772-1.5-1.046-2.147-.434-1.035-1.16-2.105-1.38-3.208a8.5 8.5 0 0 1 .005-3.317c.503-2.52 1.897-4.216 4.14-5.48 2.723-1.533 5.94-1.755 9.007-1.644 1.765.063 3.51.308 5.266.506.93.104 1.874.3 2.7.762 3.346 1.866 3.462 6.376 3.226 9.73-.004.056.024.101.066.135.13.103.408.093.426-.103.235-3.381.083-7.942-3.223-9.908-.886-.529-1.872-.812-2.888-.946-1.58-.207-3.175-.432-4.764-.51-2.93-.143-6.126-.137-8.863 1.048-1.79.775-3.967 2.107-4.821 3.942-.846 1.81-1.364 4.387-.6 6.318.461 1.17 1.03 2.351 1.563 3.493.187.41.495.79.656 1.207.185.49-.293.835-.704 1.097-.488-1.026-.998-1.948-1.765-2.82-.049-.056-.128-.08-.207-.084a.3.3 0 0 0-.055-.07 7.2 7.2 0 0 1-1.531-2.017c.005-.014.02-.019.022-.035a.37.37 0 0 0-.14-.32c-.146-.13-.195-.376-.244-.558-.086-.323-.108-.627-.297-.896a9 9 0 0 1-.189-1.3q.02-.041-.01-.097c0-.024-.005-.047-.006-.072-.005-.078-.07-.126-.144-.16-.186-.402.155-.813.238-1.244a.17.17 0 0 0-.046-.152q.087-.773.277-1.528a.2.2 0 0 0 .08-.047c.267-.287.169-.65.224-1.002.063-.395.413-.632.495-1.022.008-.033-.014-.058-.025-.085.24-.507.507-.997.81-1.469.012-.018.014-.034.018-.051.079-.07.146-.151.16-.259.02-.137-.01-.285.018-.419.08-.402.637-.65.97-.82a.2.2 0 0 0 .06-.045v-.001q.01-.008.018-.018a11.3 11.3 0 0 1 1.47-1.346c.142.043.313.015.313-.144-.006-1.105 1.518-1.085 2.287-1.306.094-.026.118-.079.105-.134a16 16 0 0 1 1.752-.655c.11.046.253.05.327-.034.56-.625 1.224-.761 2.013-.515.01.002.014-.002.024 0 .008 0 .013.004.02.003l.04-.004c.04 0 .08.002.107-.014q1.063-.153 2.138-.22c.024 0 .026-.014.044-.02.029.013.05.034.086.036.5.031.984.02 1.48-.053.578-.086 1.251-.206 1.802.062.011.002.018.011.03.012h.01c.07.039.138.037.197.02q.665.05 1.329.125a.2.2 0 0 0 .138-.031c.094.046.212.065.292.012.637-.412 1.55.219 2.198.363.015.003.022-.005.036-.004.012.002.018.012.029.014.779.082 2.137.13 2.514.96.059.13.268.172.39.123.779.175 1.279.868 1.668 1.524q.012.014.025.026c.002.03.012.064.045.102.453.53.973 1.051 1.114 1.761.013.065.064.111.128.144.701.726 1.518 1.783 1.078 2.825-.05.034-.076.087-.038.168.424.923.516 2.056.238 3.032-.006.02.011.033.012.05-.054.034-.082.089-.046.173.268.62.33 1.426.012 2.041-.033.065-.018.123.017.173.002.897.057 1.983-.508 2.731-.221.291-.46.557-.669.846a3 3 0 0 0-.301.497c-.099.215.376.35.477.13.288-.626.905-1.03 1.168-1.668.335-.81.318-1.726.319-2.585 0-.015-.017-.023-.02-.037.295-.684.254-1.497-.033-2.176"/><path fill="#a86c35" d="M24.34 79.358c-.126.159-.236.31-.391.453-.13.116-.154.073-.211.24-.035.104 0 .276 0 .388 0 .542.051 1.05.051 1.585 0 .653.006 1.323-.117 1.959-.106.543-.34.975-.565 1.476-.274.62-.405 1.056-.687 1.683-.269.603-.655 1.377-1.173 1.8-.26.217-.47.468-.75.655-.257.172-.345.244-.142.537.359.526 1.143.701 1.707.93.616.25.903.383 1.514-.017.576-.374 1.3-.973 1.84-1.393-.526.78.09 1.238.817 1.416.218.05.448.178.685.105.262-.08.6-.734.8-.924.451-.42.785-.678 1.032-1.232.22-.495.714-.897.788-1.47.089-.658-.623-.738-.987-.995.057-.154.375-.238.512-.347.158-.125.297-.273.407-.434.22-.326.374-.745.511-1.105.1-.256.029-.293.009-.502-.02-.16-.367-.156-.281-.338.143-.314.573-.713.553-1.073.476-.038 1.104-.13 1.406-.552.44-.616-.072-1.032-.512-1.426-.942-.843-1.796-1.754-2.909-2.378a2.2 2.2 0 0 0-.723-.271c-.304-.067-.291-.142-.427-.419-.22-.46-.783-.674-1.283-.743-.565-.08-.578.72-.743 1.104-.185.434-.485.897-.758 1.288"/><path fill="undefined" d="M27.79 78.258c.209-.073-.076-.273-.213-.222-1.309.462-2.51 1.14-3.78 1.69-.205.09.076.285.212.225 1.266-.55 2.472-1.228 3.78-1.693m-2.15 2.445c-.24.036-.03.264.13.24.316-.044.828.183 1.135.258.455.11.906.224 1.361.34.257.064 1.783.29 1.802.608.04.639-.103 1.208-.58 1.65-.117.109.222.251.33.15.557-.52.706-1.248.574-1.983-.012-.07-.092-.11-.149-.13a63 63 0 0 0-3.276-.856c-.384-.092-.93-.336-1.326-.277m-.535 1.91c-.174-.067-.38.097-.154.188 1.338.528 2.72.916 4.13 1.193.293.058.828-.034.75.437-.038.23-.076.466-.168.684-.288.699-.73 1.235-1.534 1.288-.245.018-.028.251.132.24 1.345-.09 1.939-1.373 1.956-2.593.002-.086-.138-.129-.2-.138a21.6 21.6 0 0 1-4.912-1.3m.146 3.027c-.247-.029-.153.216.037.239.998.124 1.94.447 2.874.797.682.25 1.38.276.954 1.14-.35.71-.852 1.28-1.287 1.932-.196.3-.378.65-.628.91-.87.909-2.053-.29-1.499-1.152q-.17-.064-.342-.125c-.015.022-.023.045-.039.066-.15.123.17.284.28.194.073-.06.088-.073.117-.164.05-.139-.272-.232-.34-.125-.32.498-.663 1.121-.006 1.535.411.263 1.084.518 1.572.325.732-.288 1.057-1.108 1.508-1.706.547-.732 1.134-1.484 1.232-2.423.01-.09-.076-.134-.15-.159-1.414-.483-2.788-1.1-4.283-1.284m.585 3.775c.167-.1-.158-.269-.28-.195-.675.416-1.117 1.248-1.834 1.564-1.392.613-2.273-.13-3.357-.86-.133-.092-.433.005-.23.142.784.533 1.776 1.425 2.825 1.243 1.341-.236 1.792-1.225 2.876-1.894m1.92-11.362c-.172-.082-.374.083-.153.188.99.465 1.684 1.246 2.511 1.93.43.355.904.687 1.271 1.112.622.732-.792 1.302-1.19 1.36-.241.034-.03.26.131.239.491-.067 1.085-.273 1.361-.72.326-.526.246-.754-.209-1.172-1.12-1.038-2.324-2.282-3.722-2.937m-1.195 2.28c-.073-.044-.178-.072-.255-.026-.075.045-.036.13.022.168.362.231.77.448 1.058.772.097.11.44.078.296-.09-.308-.347-.737-.577-1.12-.824m-2.8-.73c-.157.117.166.28.28.192.569-.425.99-1.09 1.284-1.73.094-.202.186-.407.244-.622.069-.276.097-.371.427-.33.701.093 1.088.47 1.04 1.195-.014.161.345.243.357.097.08-1.227-.937-1.565-1.996-1.537-.036.001-.106.025-.114.073-.096.948-.755 2.085-1.521 2.661"/><path fill="#302d63" d="M47.551 48.345c1.418 2.037 3.351 3.377 4.056 5.87 0 .003-.01.004-.01.008.002.006.015.009.016.015.44 2.305.799 4.594 1.86 6.708 1.172 2.332 3.58 3.858 5.93 4.745.311.114-.17.112-.285.068-1.857-.7-3.658-1.68-4.94-3.237a10.3 10.3 0 0 1-1.092-1.641c.068.565.133 1.13.176 1.696 0 .003-.01.002-.012.004.243 1.96.695 3.821 1.27 5.645 5.112 4.054 12 3.606 12 3.606l.053.1c.61-.244 1.064-.667 1.284-1.328.674-2.047 1.07-4.513 1.14-6.659.046-1.447-.101-3.149-.402-4.893q-.032-.148-.06-.302c-.52-2.865-1.444-5.812-2.612-7.918-.003-.004-.014-.007-.017-.01-2.926-5.212-2.785-14.878-10.843-14.787.278.567 2.276.804 2.946 1.682.779 1.021.981 2.463.78 3.678-.176 1.075-.742 2.009-1.288 2.902-.842 1.377-2.005 1.447-3.476 1.64-1.343.178-2.623.04-3.797-.595-.635-.341-1.23-.712-1.637-1.276-.317-.445-.611-1.019-.962-1.438-.108-.13-.173-.48-.26-.764-.274.793-.66 1.531-.958 2.32-.55 1.458.331 2.996 1.14 4.16"/><path fill="#c0e1e1" d="M57.25 44.172c2.433-2.844 1.529-7.165-2.41-7.733-4.877-.43-7.248 4.823-7.33 5.008.376 4.312 7.05 5.872 9.74 2.725"/><path fill="#010101" d="M69.207 61.343c-.683-3.486-1.05-7.32-2.79-10.449-.002-.004-.016-.007-.02-.013q-.074-.136-.145-.275-.28-.526-.53-1.083c-1.567-3.487-2.359-7.755-4.454-10.588-.805-1.089-1.803-1.963-3.112-2.502-.99-.408-2.157-.625-3.557-.59-.049 0-.063.01-.063.023l-.407.151c-1.565.074-5.055.775-7.135 5.327q-.022.074-.044.144c-.676 2.308-1.882 3.927-.267 6.252 1.505 2.163 3.681 3.776 4.424 6.398.378 1.97.71 3.864 1.44 5.624-.05.002-.087.01-.084.027.012.108.053.307.103.532.015.348.04.785.081 1.277 0 .002-.008.002-.008.004q.012.094.024.187c.139 1.553.447 3.638 1.129 5.58.097.34.19.68.295 1.017.05.011.092.033.135.052l.096.213c.02.07.052.145.105.23 0 0 .784.486 1.999 1.104q.86.476 1.771.833c2.41 1.05 5.525 2.038 8.01 1.594.703-.007 1.278-.128 1.542-.458 1.919-2.42 2.026-7.725 1.462-10.61M54.84 36.44c3.938.567 4.843 4.889 2.41 7.733-2.69 3.148-9.364 1.588-9.74-2.723.082-.187 2.453-5.44 7.33-5.01m14.157 27.506c-.069 2.145-.465 4.612-1.14 6.659-.219.662-.674 1.085-1.284 1.328l-.054-.1s-6.887.448-11.998-3.606c-.575-1.824-1.028-3.685-1.27-5.645.001-.002.01 0 .01-.004a38 38 0 0 0-.175-1.696c.307.563.658 1.113 1.093 1.641 1.282 1.557 3.082 2.536 4.939 3.237.116.044.596.046.286-.068-2.352-.887-4.759-2.413-5.931-4.745-1.062-2.113-1.42-4.402-1.86-6.708-.001-.006-.014-.008-.016-.015 0-.004.01-.004.01-.008-.705-2.494-2.638-3.833-4.056-5.87-.809-1.165-1.692-2.703-1.14-4.162.24-.633.523-1.238.772-1.86 1.173 3.735 7.355 5.377 10.152 2.483 2.983-3.09 2.105-8.075-2.41-8.724h-.003l.012-.049s-.08-.01-.224-.018l-.038-.059a1 1 0 0 0 .262.077l.129.002c8.058-.09 7.917 9.575 10.843 14.786.003.004.014.007.016.01 1.169 2.107 2.093 5.055 2.614 7.919l.059.302c.3 1.744.447 3.447.402 4.893"/><path fill="#a86c35" d="M55.84 40.467a40 40 0 0 0-1.246-4.33c-.523-1.503-1.264-2.51-2.236-3.608-.448-.44-.883-.891-1.234-1.423-.472-.715-.717-1.397-.942-2.221-.146-.72-.305-1.435-.43-2.159q-2.328-.047-1.698 2.02.177.749.457 1.464c.444 1.27.428 1.433-.643 2.174-1.245.86-2.538 1.531-4.003 1.919-.316.083-.679-.055-.99-.133-1.532-.386-2.852-.875-4.482-.702-2.106 1.218 1.483 1.853 2.43 2.167 1.422.474 2.922 1.217 4.43.697.736-.256 1.427-.586 2.13-.917.146-.07.614.137.406.235-.931.438-2.51 1.384-3.579 1.262a12 12 0 0 1-2.007-.428c.39 1.068.176 2.29 1.82 2.215 1.085-.047 2.157-.475 3.191-.765.162-.044.602.188.317.267-1.297.363-2.896 1.071-4.273.745-.041-.01-.069-.03-.109-.04.15.374.15.822.401 1.125.1.12.243.191.397.246.03-.052.106-.09.24-.063.6.12 1.377-.123 1.98-.226a10 10 0 0 0 1.838-.5c.153-.056.616.158.408.235-.708.26-1.42.448-2.162.574-.447.075-.922.179-1.391.207.838.292.62 1.402 1.71 1.17.605-.128 1.381-.448 2.019-.299.57.133.722.832 1.132 1.186 1.104.949 2.204.754 3.565.39.708-.191 1.415-.315 1.892-.928.371-.474.808-.563.927-1.107.017-.08.014-.185.012-.288-.125-.018-.258-.077-.277-.16"/><path fill="#010101" d="M56.346 40.512c-.36-1.598-.802-3.203-1.395-4.732a8.9 8.9 0 0 0-1.313-2.321c.059-.027.079-.078.004-.157-.265-.276-.54-.54-.812-.805-.177-.196-.357-.396-.552-.607a.2.2 0 0 0-.08-.049 6 6 0 0 1-.604-.764c-.449-.69-.69-1.356-.905-2.149-.206-1.003-.413-1.977-.513-2.996-.011-.107-.21-.158-.291-.164-.758-.057-1.649-.049-2.035.812-.776 1.736.254 2.514.427 4.185.054.53-.206.996-.644 1.394-.356.325-.83.605-1.36.835-1.509.657-3.432.916-4.13.717-1.314-.377-2.457-.643-3.772-.533-.097-.035-.207-.049-.266-.018-.024.012-.04.025-.061.038-.02.002-.036 0-.055.003-.126.018-.156.064-.136.115-.525.332-.81.712-.94 1.392-.022.107.144.174.223.19 1.532.312 3.013.933 4.514 1.415.412.968.296 2.053 1.287 2.495.1.602.36 1.113.757 1.574.072.081.311.117.429.084q.002.001.005.002c.238.048.484.047.731.031l.022-.002c.372 1.008.483 1.234 1.536 1.379 1.216.171.948-1.322 2.504.236.425.426.959.988 1.557 1.188 1.895.634 5.65-.436 5.868-2.752 0-.008-.01-.013-.012-.02.002-.008.014-.008.011-.016m-3.49 2.483c-1.849.522-2.903-.488-4.157-1.668-1.095-1.033-2.55 1.284-3.32-.812-.01-.028-.045-.047-.076-.068.32-.044.642-.102.948-.153a12 12 0 0 0 2.162-.574c.209-.076-.255-.29-.407-.235-.6.222-1.208.394-1.84.5-.602.102-1.377.345-1.979.226a.3.3 0 0 0-.13.002 2.9 2.9 0 0 1-.588-1.24c1.327.215 2.83-.43 4.062-.774.284-.08-.156-.312-.318-.267-1.034.29-2.107.716-3.19.764-1.645.075-1.43-1.147-1.821-2.215.661.193 1.328.35 2.007.428 1.07.122 2.648-.824 3.579-1.262.208-.098-.26-.304-.407-.235-.702.332-1.393.662-2.13.917-1.507.52-3.007-.222-4.428-.696-.948-.316-4.537-.95-2.43-2.167 1.629-.174 2.948.315 4.481.7.311.08.673.217.99.134 1.465-.388 2.76-1.059 4.003-1.92 1.07-.74 1.087-.902.643-2.173q-.28-.716-.457-1.465-.63-2.066 1.699-2.018c.124.723.282 1.438.429 2.158.224.825.47 1.507.942 2.221.35.533.787.983 1.234 1.423.972 1.098 1.713 2.106 2.236 3.608.49 1.412.91 2.85 1.24 4.307-.141 1.392-1.77 2.212-2.978 2.554"/></svg>