<svg xmlns="http://www.w3.org/2000/svg" width="182.341" height="35.803" viewBox="0.025 0.363 182.341 35.803"><path fill="#e3deee" d="M.606 17.195c-1.217 6.585 11.178 14.774 40.45 16.213 25.51 1.273 74.481 3.099 94.347 1.826 19.865-1.273 49.857-4.372 46.15-17.541-2.214-7.747-19.7-6.917-29.605-4.483-10.846 2.657-17.154 4.98-17.597 4.593-.553-.498-.055-4.759-9.739-3.21-10.458 1.661-25.952 8.357-29.272 9.63C78.905 16.474 54.613-3.446 42.44 1.7c-7.969 3.375-3.874 14.166-5.147 14.94-1.273.775-12.173-4.648-21.414-5.146-7.526-.387-14.498 1.55-15.273 5.7"/><path fill="#fff" stroke="#e3deee" stroke-width=".553" d="M171.205 28.206c7.525-2.822 10.845-7.248 9.628-11.952-3.929-6.142-19.7-5.257-28.94-2.988-10.846 2.656-17.154 4.98-17.597 4.593-.553-.498-.055-4.76-9.74-3.21-10.457 1.66-25.951 8.356-29.272 9.629 11.234 6.031 18.206 7.747 29.494 9.02 15.162 1.604 38.07-2.048 46.426-5.092Z"/></svg>