<svg xmlns="http://www.w3.org/2000/svg" width="83.141" height="174.951" viewBox="-0.272 -0.208 83.141 174.951"><path fill="#dcaa78" d="M28.038 61.807c.722 1.197 7.561 14.158 20.466 8.767 12.024-5.013 10.665-15.055 8.493-20.582l-7.328-12.374z"/><path fill="#a0640a" d="M28.038 64.229s3.349 6.599 10.881 7.113l-3.456-14.271z"/><path fill="#dcaa78" d="M40.801 67.492c-1.387-1.976-3.036-5.29-6.976-7.339s-5.559 1.259-4.468 3.771c1.365 3.133 8.681 4.991 11.444 3.568"/><path d="M41.915 57.331c3.002 1.166 3.789 2.2 3.494 4.489a1.826 1.826 0 0 1-2.203 0c-1.464-.759-2.19-1.816-2.633-3.818zM53.621 46.865c3.004 1.1 3.78 2.2 3.497 4.489a1.83 1.83 0 0 1-2.204 0c-1.518-.817-2.499-2.24-2.635-3.818z"/><path fill="#be8264" d="M40.954 52.16c.393.745 4.844 3.488 5.685 3.81a3.69 3.69 0 0 0 3.57-.564c1.172-.949 2.274-2.479 2.081-3.771-.187-1.129-2.388-4.878-3.274-5.645-1.16.547-7.198 4.787-8.062 6.17"/><path fill="#005a5a" d="M61.716 37.894S77.537 24.29 76.65 23.172c-.671-.841-4.673 2.591-6.936 4.516-3.519 2.952-14.644 12.758-17.015 14.881.171.35 9.017-4.675 9.017-4.675"/><path fill="#00a08c" d="M19.38 29.743c-5.577 5.205-9.437 15.456-8.016 23.935 1.535 9.145 11.615 17.472 11.615 17.472l10.034-8.411z"/><path fill="#008264" d="M43.058 23.979c-4.218-.384-10.199-.384-15.105 1.05-4.105 1.202-8.63 4.172-8.63 4.172-3.917 19.018 13.69 33.538 13.69 33.538l28.669-24.873s-9.187-13.029-18.624-13.887"/><path fill="#281446" d="M18.25 31.842c1.184.324 1.96-.286 2.683-.98.546-.525.907-1.227 1.637-1.59.223-.116.3-.509.438-.772a1.98 1.98 0 0 0-1.283-1.427c-2.791.378-4.044 2.639-3.475 4.769"/><path fill="#005a5a" d="M72.222 142.612c-.848-6.176-2.905-23.676-3.201-25.81l-21.41-.717c.182.3.364.593.535.892 1.762 3.026 8.209 17.619 12.456 25.263zM23.752 117.282c.216 2.36-.267 8.327-.495 10.613-.568 6.001-2.08 9.061-4.053 14.762 1.762.762 4.576 1.028 6.515 1.468 1.938.44 3.979 1.739 5.77.852 3.019-4.036 6.413-9.105 8.482-13.667 3.314-7.338 2.786-14.045 3.064-15.241z"/><path fill="#dcaa78" d="m57.247 37.166-3.172 2.027a39.9 39.9 0 0 1 4.406 17.669c0 4.059-.699 20.69-.699 20.69l7.782.101s2.559-4.516 1.672-17.009-9.989-23.478-9.989-23.478"/><path fill="#005a5a" d="M57.787 70.704s-1.449 6.774-2.507 8.598c-2.012 3.477 7.362 16.512 7.362 16.512s1.933-8.683 3.116-13.374a58 58 0 0 0 1.478-7.717z"/><path fill="#281446" d="m55.803 68.649-.858 4.691 12.882 5.685 1.143-4.832z"/><path fill="#dcaa78" d="m31.307 42.269-4.036-3.025c-3.707 4.945-7.482 10.528-8.96 15.337a47.8 47.8 0 0 0-2.149 13.639l8.357-2.297s-1.773-8.993 6.788-23.654"/><path fill="#008264" d="M32.814 74.074c-1.035-1.163-4.753-8.597-6.544-10.726l-11.739 3.094L26.31 98.235s4.474-18.6 6.504-24.161"/><path fill="#281446" d="m13.161 65.663 14.309-4.121 2.433 5.685-15.884 3.979z"/><path fill="#824600" d="M62.756 14.094c-.927.565-23.462 6.21-24.536 6.21l-.75 17.935c.437-.316 9.965 3.68 10.426 3.387.25-.158 14.917-7.745 15.258-7.903 0-.266.989-3.704.989-4.008 0-.881-.028-1.767-.068-2.648s-.125-1.84-.188-2.761c-.062-.92-.085-1.693-.142-2.534-.04-.57-.517-7.198-.989-7.678"/><path fill="#642800" d="m43.768 25.831 7.078 14.299-6.248 1.575-8.089-12.877zM49.516 19.237l6.867 18.815 3.366-1.575-4.525-19.413z"/><path fill="#a0640a" d="M64.86 11.085C62.017 2.33 52.62-.301 44.166.399c-9.437.785-16.293 6.678-19.215 15.637a57.2 57.2 0 0 0-2.524 14.198c-.267 4.657-.614 8.569 2.695 12.092 2.586 2.749 6.913 5.289 11.37 5.357 6.321.107 32.245-8.739 27.094-15.614-1.535-.531-6.771 4.38-8.34 5.182-3.183 1.62-6.685 2.873-10.045 1.293-5.156-5.685 2.922-14.046 7.794-16.422 2.74-1.332 6.435-.819 8.999-2.258 2.229-1.237 3.633-6.408 2.866-8.779"/><path fill="#824600" d="M45.377 43.827c.364.108.648.119.842-.333-.899-1.597-1.751-3.274-2.752-4.86a16.8 16.8 0 0 0-3.019-3.478c-1.523-1.371-3.172-2.579-4.815-3.799a24 24 0 0 0-5.514-2.918 7.9 7.9 0 0 0-2.843-.599c-.5 0-.994-.084-1.574-.135l-.256.677a3.5 3.5 0 0 0 1.705.215 4.95 4.95 0 0 1 2.166.344c1.53.638 3.121 1.163 4.508 2.106a38 38 0 0 1 5.117 3.805c.892.852 1.774 1.693 2.655 2.579a12.1 12.1 0 0 1 2.166 3.258c.477.926.921 1.863 1.387 2.822q.102.166.227.316"/><path fill="#005a5a" d="M33.189 116.023h23.075v7.779H33.189z"/><path fill="#dcaa78" d="M52.557 77.602c-5.77-2.873-13.581-6.571-19.709-3.313l15.485 15.727s6.731-9.67 7.186-10.353a12.6 12.6 0 0 0-2.962-2.061"/><path fill="#fff" d="M37.498 79.962s10.801 3.551 17.055.728l-1.365 9.383-12.165-.294z"/><path fill="#00a08c" d="M69.572 115.256c-1.017-8.756-1.773-13.295-4.189-19.922-2.274-6.244-5.037-11.494-10.103-16.032-2.535 1.942-8.601 7.18-8.601 7.18S35.741 75.756 32.973 73.894c-.358 0-5.463 4.629-7.556 13.469-2.472 10.472-1.961 25.589-2.012 27.831z"/><path fill="#281446" d="M21.404 113.404h48.998v5.549H21.404z"/><path fill="#005a5a" d="M26.611 112.467h4.893v7.593h-4.893zM34.724 112.467h4.893v7.593h-4.893zM55.911 112.467h4.894v7.593h-4.894zM64.547 112.467h4.893v7.593h-4.893z"/><path fill="#ffc800" d="M43.706 112.631h8.215v6.971h-8.215z"/><path fill="#f01446" d="m81.812 168.834-2.882 2.862s-4.992-24.991-5.987-30.286c-4.326-.051-8.652 0-12.978-.074 1.489 2.97 5.361 11.003 9.249 18.494 3.531 6.802 7.129 13.181 7.959 14.412 1.706.045 5.196-4.798 5.196-4.798z"/><path fill="#281446" d="m73.563 136.927-16.679.029c1.108 2.41 3.411 7.717 3.439 7.773l14.371.073zM74.791 145.841H60.789c.37 1.639.762 3.255 1.137 4.859h13.161z"/><path fill="#281446" d="M75.303 149.815H63.069q.625 2.43 1.228 4.859h11.37z"/><path fill="#f00a78" d="M46.213 64.105c1.307 7.649 10.483 12.131 17.947 10.46 12.177-2.732 12.263-12.803 9.778-19.656-2.575-7.107-9.835-8.699-16.458-7.542-8.135 1.428-12.046 8.835-11.267 16.738"/><path fill="#f04650" d="M60.778 57.105c.534 3.127 4.292 4.962 7.345 4.279 4.985-1.129 5.019-5.239 3.979-8.044-1.057-2.908-4.025-3.563-6.737-3.088-3.308.587-4.906 3.607-4.587 6.853M56.549 51.441c.223 1.336 1.77 2.115 3.01 1.824 2.052-.476 2.07-2.232 1.649-3.425s-1.661-1.521-2.775-1.317c-1.354.248-2.016 1.534-1.884 2.918"/><path fill="#f01446" d="M25.633 141.077a66 66 0 0 0-4.587-1.05h-.159a.4.4 0 0 1-.131-.057l-1.023-.197-.165.338a71 71 0 0 1-1.467 3.004c-.682 1.298-1.455 2.551-2.098 3.866-1.705 3.546-4.286 6.475-6.935 9.354-1.945 2.112-4.298 3.76-6.504 5.572-.654.537-1.347 1.028-2.143 1.626l-.193.655c1.301 2.286 2.563 4.516 3.854 6.774.392.119.659-.107.938-.48-.506-.886-1.393-1.552-1.541-2.642a3.9 3.9 0 0 1 1.444-.756c1.103-.469 2.234-.886 3.32-1.389.95-.435 1.854-.954 2.78-1.439q.242-.159.5-.288c1.985-.745 3.616-2.089 5.407-3.15.679-.443 1.322-.94 1.921-1.485 1.535-1.293 3.053-2.608 4.577-3.918q.555-.421 1.046-.914c1.438-1.609 2.842-3.241 4.281-4.861.051-.062.09-.13.142-.186a41.5 41.5 0 0 0 4.36-5.397c.205-.288.404-.564.597-.869-2.808-.429-5.458-1.361-8.221-2.111"/><path fill="#281446" d="m19.505 135.68-2.78 6.904 15.207 5.001 4.867-7.937zM16.378 143.617l14.162 5.436-2.172 2.936-13.03-6.56zM14.73 146.462l-1.302 1.558 11.989 7.593 1.564-1.987z"/></svg>