<svg xmlns="http://www.w3.org/2000/svg" width="49.573" height="80.97" viewBox="-0.5 -0.5 49.573 80.97"><path fill="#0cc" d="M48.417 67.38c-.22 2.13-1.06 4.14-2.41 5.8-1.98 2.44-4.29 4.18-6.86 5.17-2.36.91-4.99 1.22-8.23.97-.38-.03-.67-.04-.88-.05-.04.01-.08.02-.13.03-1.74.46-3.19.67-4.57.67-1.24 0-2.34-.21-3.29-.49-1.38.09-2.49.13-3.39.13h-4.21c-1.91-.08-7.61-.3-11.11-5.14-.47-.62-1.34-1.84-2.01-3.52-.29-.59-.55-1.2-.76-1.85-.6-1.8-.73-3.72-.36-5.58 1.38-7.08 6.74-10.48 12.02-11.54-.06-5.2-.23-11.55-.52-19.01-.01-.27-.01-.55 0-.83a13.1 13.1 0 0 1-4.91-3.93 12.92 12.92 0 0 1-2.75-7.97c0-5.05 2.77-9.38 8.24-12.88.05-.03.09-.06.14-.08.36-.23.62-.41.81-.54.65-1.06 1.48-2.01 2.46-2.8C18.887 1.36 22.617 0 26.477 0c6.98 0 12.58 4.61 13.96 11.48.37 1.87.25 3.8-.34 5.6-.11 1.3-.26 3.72-.42 8.15-.01.51-.04 1.18-.1 2.33-.04.59-.06 1-.07 1.23v8.97c.01.3.05.86.1 1.67.15 2.17.16 2.44.16 2.88v9.9c2.8 1.22 5.23 3.36 7.03 6.25 2.19 3.48 1.82 7.01 1.62 8.92"/><path fill="#fff" d="M37.477 66.239q-1.144 1.407-2.287 1.848-1.144.44-3.431.264-2.55-.177-3.343 0-.088 0-1.275.308-1.188.308-1.803.309-.177 0-.66-.309t-.747-.308q-.442 0-2.331.132-1.892.132-2.947.132h-3.782q-2.288-.088-2.639-.615-.791-1.055-.792-1.583-.264-.265-.439-.792.704-3.606 6.861-2.902 4.486.44 5.277-.089.35-9.41-.439-30.082.35-3.87.703-12.667-.617-.086-1.759.792-1.32 1.145-1.672 1.319a6.3 6.3 0 0 1-2.287.44q-1.495 0-2.198-.968a1.86 1.86 0 0 1-.44-1.231q0-1.583 3.167-3.606 3.694-2.287 4.398-4.135Q24.458 11 26.482 11q2.638 0 3.166 2.639a6 6 0 0 0-.352.968q-.352 2.726-.616 10.38 0 .44-.088 1.935a63 63 0 0 0-.088 1.672v9.411q0 .177.132 2.155a93 93 0 0 1 .133 2.155V62.37q2.374.44 3.254.088 1.143-.439 2.023-.439 2.023 0 3.431 2.287.174.261 0 1.933"/></svg>