<svg xmlns="http://www.w3.org/2000/svg" xml:space="preserve" width="86.523" height="127.322" viewBox="107.898 1.604 86.523 127.322"><title>snake-c</title><g fill-rule="evenodd"><path fill="#f4c5a6" d="M193.647 94.33s2.243 20.107-23.447 29.898c-17.723 6.753-2.02-10.417-2.02-10.417l15.52-8.748s9.366-4.213 9.947-10.733"/><path fill="none" stroke="#e7a06b" stroke-width=".5" d="M193.719 93.682s2.677 20.431-23.297 30.546c-17.674 6.882-2.02-10.417-2.02-10.417l15.52-8.747s9.215-4.862 9.797-11.382Z"/><path fill="#4b9095" d="M173.735 107.36s19.088-3.47 20.107-15.397c0 0-.689 14.346-17.492 22.231-17.281 8.11-10.022-4.817-2.615-6.834"/><path fill="none" stroke="#e7a06b" stroke-width=".5" d="M181.942 110.964s2.39 3.919-.468 7.26M185.746 107.694s2.39 3.92-.467 7.26M190.562 101.74s2.407 1.92.462 5.188M188.394 104.7s2.39 3.918-.468 7.26M191.998 99.076s1.844.63.833 3.077"/><path fill="none" stroke="#2b535a" stroke-width=".5" d="M172.632 107.431s19.237-1.58 21.287-15.956c0 0 .557 12.898-17.474 23.043-16.64 9.361-5.713-4.252-3.813-7.087Z"/><path fill="#f4c5a6" d="M108.843 116.298s2.223 11.628 33.22 12.066c34.513.488 36.857-12.309 36.857-12.309s.141-5.96-4.304-8.053c-4.446-2.092-55.367.54-55.367.54s-11.012-1.939-10.406 7.755"/><path fill="none" stroke="#e7a06b" stroke-width=".5" d="M114.096 119.148s-.222 3.361 1.536 4.231M122.456 121.932s-.154 3.994 2.498 4.738"/><path fill="none" stroke="#e7a06b" stroke-width=".5" d="M108.486 115.252s.74 13.174 35.273 13.174c34.333 0 35.267-12.594 35.295-13.174"/><path fill="none" stroke="#e7a06b" stroke-width=".5" d="M175.668 117.474s.443 2.894-1.271 4.491M170.128 119.817s.81 3.082-2.297 5.44M160.432 122.217s.564 3.577-2.342 5.303M150.044 123.4s.386 3.569-2.302 4.964M135.294 123.27s-.098 4.297 2.508 4.945"/><path fill="#4b9095" d="M108.486 115.252s-1.482-9.828 7.678-13.5c9.161-3.671 53.885.763 53.885.763s6.392 1.606 8.325 6.878c1.057 2.827.68 5.858.68 5.858s-8.641 8.37-36.87 8.37c-28.23 0-33.698-8.37-33.698-8.37"/><path fill="none" stroke="#2b535a" stroke-width=".5" d="M108.486 115.252s-1.482-9.828 7.678-13.5c9.161-3.671 53.885.763 53.885.763s6.392 1.606 8.325 6.878c1.057 2.827.68 5.858.68 5.858s-8.641 8.37-36.87 8.37c-28.23 0-33.698-8.37-33.698-8.37Z"/><path fill="#f4c5a6" d="M109.042 97.587s2.223 11.629 33.22 12.067c34.513.487 36.857-12.31 36.857-12.31s.141-5.96-4.304-8.052-55.367.54-55.367.54-11.012-1.938-10.406 7.755"/><path fill="none" stroke="#e7a06b" stroke-width=".5" d="M114.295 100.438s-.222 3.36 1.536 4.23M122.655 103.221s-.154 3.995 2.497 4.738"/><path fill="none" stroke="#e7a06b" stroke-width=".5" d="M108.685 96.541s.74 13.175 35.273 13.175c34.333 0 35.267-12.594 35.295-13.175"/><path fill="none" stroke="#e7a06b" stroke-width=".5" d="M175.867 98.764s.443 2.893-1.271 4.491M170.327 101.107s.81 3.081-2.298 5.44M160.63 103.506s.565 3.577-2.34 5.304M149.083 104.69s.386 3.568-2.302 4.964M134.239 104.56s-.099 4.297 2.508 4.945"/><path fill="#4b9095" d="M108.685 96.541s-1.482-9.827 7.678-13.5c9.161-3.67 53.885.764 53.885.764s6.392 1.605 8.325 6.877c1.057 2.828.68 5.86.68 5.86s-8.641 8.369-36.87 8.369c-28.23 0-33.698-8.37-33.698-8.37"/><path fill="none" stroke="#2b535a" stroke-width=".5" d="M108.685 96.541s-1.482-9.827 7.678-13.5c9.161-3.67 53.885.764 53.885.764s6.392 1.605 8.325 6.877c1.057 2.828.68 5.86.68 5.86s-8.641 8.369-36.87 8.369c-28.23 0-33.698-8.37-33.698-8.37Z"/><path fill="#f4c5a6" d="M109.042 80.52s2.222 11.63 33.22 12.067c34.513.488 36.857-12.309 36.857-12.309s.141-5.96-4.304-8.053c-4.446-2.092-55.367.54-55.367.54s-11.012-1.938-10.406 7.755"/><path fill="none" stroke="#e7a06b" stroke-width=".5" d="M114.296 83.371s-.223 3.361 1.535 4.231M122.655 86.155s-.154 3.994 2.497 4.738"/><path fill="none" stroke="#e7a06b" stroke-width=".5" d="M108.686 79.475s.74 13.175 35.271 13.175c34.333 0 35.267-12.595 35.295-13.175"/><path fill="none" stroke="#e7a06b" stroke-width=".5" d="M175.867 81.698s.443 2.893-1.271 4.49M170.327 84.04s.81 3.082-2.298 5.44M160.63 86.44s.565 3.577-2.34 5.303M150.243 87.623s.386 3.569-2.302 4.964M134.239 87.494s-.099 4.296 2.508 4.944"/><path fill="#4b9095" d="M108.686 79.475s-1.483-9.828 7.678-13.5c9.16-3.671 53.884.763 53.884.763s6.391 1.606 8.325 6.878c1.057 2.827.68 5.859.68 5.859s-8.641 8.37-36.87 8.37-33.697-8.37-33.697-8.37"/><path fill="none" stroke="#2b535a" stroke-width=".5" d="M108.686 79.475s-1.483-9.828 7.678-13.5c9.16-3.671 53.884.763 53.884.763s6.391 1.606 8.325 6.878c1.057 2.827.68 5.859.68 5.859s-8.641 8.37-36.87 8.37-33.697-8.37-33.697-8.37Z"/><path fill="#f4c5a6" d="M108.765 59.064s.956 5.878 6.641 8.334c5.937 2.566 11.625 5.057 27.98 5.057 16.059 0 25.258-3.57 28.613-5.13 5.281-2.457 6.817-6.075 7.226-8.85 0 0-14.446-1.652-14.635-1.652s-50.22-1.377-55.825 2.24"/><path fill="none" stroke="#e7a06b" stroke-width=".5" d="M108.765 59.064s.956 5.878 6.641 8.334c5.937 2.566 11.625 5.057 27.98 5.057 16.059 0 25.258-3.57 28.613-5.13 5.281-2.457 6.817-6.075 7.226-8.85 0 0-14.446-1.652-14.635-1.652s-50.22-1.377-55.825 2.24Z"/><path fill="#4b9095" d="M119.49 43.992c-1.564-2.1-2.534-8.471-1.966-16.732.983-14.28 8.644-22.337 8.889-22.685.245-.35 1.874-1.209 3.491-2.084s3.315.007 3.315.007 33.014 12.174 35.115 12.984c2.102.81 1.536 1.458 0 2.43-1.535.972-2.37 1.566-2.99 1.701s-16.65 0-24.41 0-9.012-3.402-9.012-3.402l-.237 20.99s2.026 2.243 6.138 3.99c6.607 2.807 31.035.927 36.877 6.75 3.765 3.752 4.553 6.855 4.553 11.069 0 1.457-13.531 8.304-35.235 8.304-8.66 0-30.268-1.041-35.105-8.25 0 0-2.087-12.014 10.43-15.072"/><path fill="#f4c5a6" d="M140.369 41.663c-18.94-4.225-8.487-25.068-8.487-25.068s1.005 1.539 4.003 2.403c0 0-2.75 8.91-1.093 15.12 1.108 4.152 5.282 7.369 5.282 7.369"/><path fill="none" stroke="#e7a06b" stroke-width=".5" d="M135.886 18.998s-6.132 16.739 4.944 22.893"/><path fill="#e7a06b" d="M130.253 20.455s1.208.1 2.411.24c.302.03.604.052.885.092.278.051.537.11.755.18.436.138.72.281.72.281l-.008.045s-.314.043-.77.032a6 6 0 0 1-.774-.072c-.278-.055-.572-.13-.867-.2-1.183-.256-2.36-.553-2.36-.553zM129.066 25.765s1.373-.1 2.746-.158c.343-.02.687-.048 1.009-.055.321.005.622.022.879.055.514.064.858.158.858.158v.046s-.344.094-.858.159c-.257.033-.558.05-.88.054-.321-.007-.665-.034-1.008-.055-1.373-.058-2.746-.158-2.746-.158zM129.19 30.798s1.303-.203 2.607-.366c.326-.047.652-.1.959-.131a7 7 0 0 1 .843-.012c.496.024.831.093.831.093l.004.045s-.32.12-.807.223a7 7 0 0 1-.835.122c-.307.016-.636.016-.965.022-1.315.045-2.633.049-2.633.049z"/><path fill="none" stroke="#ea7b61" stroke-width=".65" d="M166.148 19.302s1.51 1.297 1.51 2.971-1.698 2.727-3.207 4.01-2.236 2.578-2.236 3.982 1.05 3.24 3.233 3.24 3.044-1.674 3.287-2.052"/><path fill="none" stroke="#e7a06b" stroke-width=".5" d="M173.943 62.263s.77 2.726-.79 4.475"/><path fill="#ea7b61" d="M168.384 31.38c.003-.015.075-.104.156-.302.048-.095.077-.215.124-.342.021-.13.069-.271.075-.415s.03-.295.003-.43c-.022-.135-.016-.275-.061-.378-.07-.219-.119-.365-.119-.365l.212.328c.076.096.106.232.167.371.067.14.084.3.121.463.036.162.027.326.04.484-.012.153-.01.303-.035.427-.031.25-.101.437-.094.423z"/><path fill="#ea7b61" d="M168.388 31.393c-.006.014.106-.151.29-.32.088-.093.21-.178.328-.277.137-.08.265-.183.419-.247.152-.064.293-.142.445-.169.148-.03.277-.084.4-.078l.388-.016-.365.115c-.111.021-.221.108-.343.168-.126.056-.234.164-.348.251s-.202.209-.295.302c-.076.11-.157.204-.206.298-.115.181-.146.291-.156.302z"/><path fill="none" stroke="#e7a06b" stroke-width=".5" d="M163.75 65.39s.329 3.48-1.719 5.182M151.798 67.015c-.027.108.385 3.766-1.535 5.21M122.695 65.6c.027.08-.398 3.885 1.739 5.039"/><path fill="#e7a06b" d="M131.246 36.447s.962-.467 1.939-.894c.242-.113.482-.23.713-.325.235-.083.46-.15.658-.188.395-.08.679-.084.678-.084l.016.042s-.216.182-.568.382c-.175.1-.387.198-.62.29-.236.08-.494.148-.75.223-1.018.317-2.05.596-2.05.596z"/><path fill="#fbac77" d="M145.41 10.832c-.399 2.567-3.516 4.21-6.963 3.672-3.447-.539-5.918-3.056-5.518-5.623.4-2.566 3.517-4.21 6.965-3.672 3.445.539 5.916 3.057 5.517 5.623"/><path fill="none" stroke="#e7a06b" stroke-width=".5" d="M134.192 67.082s-.078 4.247 1.889 5.179"/><path fill="#e7a06b" d="M135.726 40.298s.356-.423.738-.815c.091-.102.18-.21.273-.297.102-.077.204-.14.303-.179.198-.08.363-.093.363-.093l.03.034s-.046.16-.162.339a1.3 1.3 0 0 1-.234.264c-.103.075-.225.14-.343.212-.457.3-.94.57-.94.57z"/><path fill="none" stroke="#e7a06b" stroke-width=".5" d="M113.856 62.771s-.234 3.846 1.14 4.44"/><path fill="none" stroke="#2b535a" stroke-width=".5" d="m119.343 43.992-.133.03c-12.13 2.9-10.445 15.041-10.445 15.041s4.904 8.262 33.497 8.262 36.823-8.1 36.823-8.1c.377-1.134 0-3.617 0-3.617-4.149-21.815-45.694-3.132-49.52-23.435-1.796-9.528 2.317-15.578 2.317-15.578"/><path fill="none" stroke="#2b535a" stroke-width=".5" d="M131.774 16.21s1.308 3.403 9.068 3.403 23.79.134 24.41 0c.62-.135 1.454-.73 2.99-1.701s2.102-1.62 0-2.43-35.115-12.984-35.115-12.984-1.698-.882-3.315-.007-3.246 1.735-3.491 2.084c-.245.348-8.889 9.476-9.15 26.62 0 0-.539 11.346 4.958 16.745"/><path fill="none" stroke="#2b535a" stroke-width=".5" d="M145.41 10.832c-.399 2.567-3.516 4.21-6.963 3.672-3.447-.539-5.918-3.056-5.518-5.623.4-2.566 3.517-4.21 6.965-3.672 3.445.539 5.916 3.057 5.517 5.623Z"/><path fill="#2b535a" d="M146.237 10.705s.003.219-.053.597a6.5 6.5 0 0 1-.416 1.526c-.053.157-.13.31-.216.467-.087.155-.153.332-.269.483q-.163.234-.336.481c-.123.158-.273.3-.414.454q-.206.239-.472.426c-.172.129-.337.277-.523.393-.388.198-.763.466-1.194.588l-.628.233c-.212.066-.431.098-.645.147l-.64.132c-.213.023-.424.03-.632.043-.415-.002-.82.055-1.194-.014q-.565-.064-1.056-.136c-.328-.029-.613-.143-.872-.203q-.388-.102-.662-.191c-.365-.111-.569-.186-.569-.186l.015-.062s.22.001.598.024q.286.011.677.049c.26.017.55.063.87.054.319.002.663.01 1.024.024.364.03.74-.018 1.133-.032.195-.007.397-.003.596-.016l.602-.086c.201-.032.412-.045.612-.093l.597-.175c.412-.089.761-.319 1.138-.482.178-.098.336-.226.504-.337.17-.108.327-.228.462-.37.138-.138.288-.262.412-.404l.346-.433c.12-.135.194-.298.29-.44.093-.143.177-.285.24-.432.146-.283.25-.556.334-.803a7 7 0 0 0 .18-.649c.084-.366.096-.58.096-.58zM164.39 16.791c0 .425-.446.77-.997.77-.552 0-.997-.344-.997-.77 0-.425.445-.769.997-.769.55 0 .996.344.996.77M168.43 16.791c0 .425-.445.77-.996.77-.552 0-.997-.344-.997-.77 0-.425.445-.769.997-.769.551 0 .996.344.996.77"/><path fill="#1a383b" d="M139.3 14.05s-2.854-3.482-.294-8.423c0 0 2.932 2.539.294 8.424"/><path fill="#2b535a" d="M124.843 33.397c.525.154.968.423 1.385.726l-.315.052c.285-.386.6-.752 1.018-1.044-.138.492-.381.909-.652 1.305l-.129.188-.187-.135c-.416-.303-.81-.64-1.12-1.092M118.686 26.297c.525.154.968.423 1.385.726l-.315.052c.286-.386.6-.752 1.018-1.044-.137.492-.38.908-.651 1.305l-.13.188-.186-.136c-.417-.303-.81-.64-1.12-1.091M125.887 19.887c.525.154.967.423 1.385.726l-.316.052c.287-.386.6-.752 1.019-1.044-.138.492-.38.909-.652 1.305l-.128.188-.187-.135c-.417-.303-.811-.64-1.121-1.092M119.73 46.898c.016-.047.642.339 1.811.806.584.235 1.305.492 2.145.74.842.241 1.798.484 2.84.757 2.095.508 4.586.913 7.273 1.167 1.343.13 2.737.22 4.154.274 1.415.052 2.862.09 4.296.055l4.31-.102c.713-.002 1.412-.066 2.105-.117l2.05-.15c1.348-.072 2.642-.254 3.869-.41q.922-.12 1.788-.23l1.658-.301c1.062-.194 2.035-.367 2.894-.546a26 26 0 0 0 2.217-.508c.616-.145 1.08-.315 1.406-.413.323-.103.489-.175.489-.175s-.161.085-.475.213c-.315.122-.77.332-1.374.524-.599.21-1.329.461-2.184.684l-1.357.38c-.483.111-1 .185-1.534.286l-1.67.303-1.799.233c-1.235.157-2.536.34-3.893.412-1.356.082-2.758.242-4.179.269l-4.31.101c-1.456.035-2.898-.002-4.325-.055a71 71 0 0 1-4.179-.276c-2.705-.255-5.217-.663-7.335-1.177-.53-.132-1.039-.252-1.513-.4a31 31 0 0 1-1.332-.47 24 24 0 0 1-2.106-.91c-1.139-.562-1.72-1.013-1.74-.964M122.713 42.919c.544-.061 1.055.016 1.557.134l-.27.17c.114-.467.262-.926.535-1.357.063.507 0 .986-.097 1.456l-.045.222-.225-.052c-.502-.118-.995-.276-1.455-.573M133.909 44.263c.474-.274.973-.408 1.48-.501l-.18.264c-.081-.474-.128-.954-.05-1.458.26.44.393.903.492 1.373l.047.222-.228.043c-.507.092-1.022.145-1.561.057"/><path fill="#2b535a" d="M139.201 49.78c.31-.453.704-.79 1.121-1.092l-.05.316c-.276-.393-.525-.805-.671-1.295.423.285.743.646 1.035 1.027l.137.181-.187.136c-.417.303-.86.572-1.385.727M148.63 46.656c.323-.442.726-.768 1.152-1.059l-.058.315c-.265-.4-.503-.82-.634-1.313.415.297.723.667 1.004 1.057l.133.184-.191.13c-.427.29-.877.547-1.406.686M156.789 48.738c.323-.443.725-.768 1.151-1.059l-.058.315c-.265-.4-.502-.82-.633-1.313.415.296.722.666 1.004 1.056l.132.184-.191.13c-.426.292-.876.548-1.405.687M168.54 48.43c.547-.012 1.05.111 1.539.274l-.286.145c.157-.455.345-.9.656-1.303.017.51-.089.98-.227 1.44l-.066.218-.219-.072c-.49-.162-.965-.364-1.397-.701M171.16 53.16c.198.513.254 1.027.267 1.544l-.232-.22c.48-.007.96.02 1.445.175-.472.19-.95.25-1.43.276l-.226.013-.006-.232c-.014-.516.013-1.034.183-1.555M165.697 59.647c.197.512.253 1.026.266 1.543l-.232-.22c.48-.006.96.02 1.445.176-.472.19-.95.25-1.43.276l-.226.012-.006-.232c-.014-.516.013-1.033.183-1.555M157.233 53.092c.011.549-.113 1.052-.276 1.542l-.143-.286c.453.158.895.347 1.298.66-.51.016-.978-.091-1.437-.23l-.217-.066.073-.22c.162-.49.365-.967.702-1.4M150.398 61.196c.012.548-.113 1.052-.276 1.542l-.143-.286c.453.157.895.347 1.298.66-.51.016-.978-.091-1.437-.23l-.217-.066.073-.22c.163-.49.365-.968.702-1.4M143.873 54.05c.012.548-.113 1.052-.275 1.542l-.144-.286c.453.157.895.347 1.298.66-.51.016-.978-.091-1.437-.23l-.217-.067.073-.22c.163-.49.365-.967.702-1.399M135.545 61.305c.012.548-.112 1.052-.275 1.542l-.144-.286c.453.157.896.347 1.299.66-.51.016-.979-.091-1.438-.23l-.216-.067.072-.22c.163-.49.365-.967.702-1.399M128.996 53.092c.012.549-.112 1.052-.275 1.542l-.144-.286c.454.158.896.347 1.299.66-.51.016-.979-.091-1.438-.23l-.216-.066.072-.22c.163-.49.365-.967.702-1.4M118.491 59.28c.012.549-.112 1.053-.275 1.542l-.144-.285c.454.157.896.347 1.299.66-.51.015-.979-.092-1.438-.23l-.216-.067.072-.22c.163-.49.365-.967.702-1.4M117.237 49.317c.011.548-.113 1.052-.276 1.542l-.143-.286c.453.157.895.347 1.298.66-.51.016-.978-.091-1.437-.23l-.217-.066.072-.22c.163-.49.366-.968.703-1.4M110.95 55.608c.012.548-.112 1.052-.275 1.541l-.143-.285c.453.157.895.347 1.298.66-.51.015-.978-.091-1.437-.23l-.217-.067.073-.22c.163-.49.365-.967.702-1.4M172.163 73.98c.197.512.253 1.026.266 1.544l-.232-.22c.48-.007.96.02 1.446.175-.473.19-.952.25-1.43.276l-.226.012-.007-.232c-.014-.516.014-1.033.183-1.555M166.699 80.466c.197.512.253 1.027.266 1.544l-.232-.22c.48-.007.96.02 1.446.175-.473.19-.952.25-1.43.276l-.226.012-.007-.231c-.014-.516.014-1.034.183-1.556M158.235 73.912c.012.548-.113 1.051-.276 1.541l-.143-.285c.453.157.895.347 1.298.66-.51.015-.978-.091-1.437-.23l-.217-.067.073-.22c.163-.49.365-.967.702-1.4M151.4 82.016c.012.548-.113 1.051-.275 1.542l-.144-.287c.453.158.896.348 1.298.66-.51.016-.978-.091-1.437-.23l-.217-.066.073-.22c.163-.49.365-.967.702-1.4M144.875 74.87c.012.548-.113 1.051-.275 1.541l-.144-.286c.453.158.896.348 1.299.66-.51.016-.979-.09-1.438-.23l-.217-.066.073-.22c.163-.49.365-.967.702-1.4M136.547 82.125c.012.548-.112 1.051-.275 1.542l-.144-.287c.454.158.896.348 1.299.66-.51.016-.979-.091-1.438-.23l-.216-.066.072-.22c.163-.49.365-.967.702-1.4M129.999 73.912c.011.548-.113 1.051-.276 1.541l-.144-.285c.454.157.896.347 1.299.66-.51.015-.978-.091-1.438-.23l-.216-.067.072-.22c.163-.49.366-.967.703-1.4M119.494 80.1c.011.549-.113 1.052-.276 1.542l-.144-.286c.454.157.896.347 1.299.66-.51.016-.979-.091-1.438-.23l-.216-.066.072-.22c.163-.49.366-.968.703-1.4M117.808 70.639c.011.548-.113 1.052-.276 1.541l-.144-.285c.454.157.896.347 1.299.66-.51.015-.978-.092-1.437-.23l-.217-.067.072-.22c.163-.49.366-.967.703-1.4M110.95 75.827c.012.548-.112 1.052-.275 1.542l-.144-.286c.454.157.897.347 1.3.66-.51.016-.979-.091-1.439-.23l-.216-.067.072-.22c.163-.49.366-.967.702-1.399M173.528 91.076c.198.512.253 1.027.267 1.544l-.232-.22c.479-.008.96.019 1.445.175-.473.19-.952.25-1.43.276l-.226.013-.007-.233c-.014-.515.014-1.033.183-1.555M168.064 97.526c.197.512.253 1.027.267 1.544l-.232-.22c.479-.007.96.02 1.445.176-.473.189-.952.25-1.43.275l-.226.012-.007-.232c-.014-.515.014-1.033.183-1.555M159.088 93.82c.012.548-.112 1.052-.275 1.542l-.144-.286c.453.158.896.347 1.298.66-.51.015-.978-.091-1.437-.23l-.217-.067.073-.22c.163-.49.365-.967.702-1.399M152.081 100.966c.012.549-.112 1.052-.275 1.542l-.144-.286c.454.157.896.347 1.299.66-.51.016-.979-.092-1.438-.23l-.216-.067.072-.22c.163-.49.365-.967.702-1.399M145.559 94.33c.012.548-.113 1.052-.275 1.542l-.144-.287c.453.158.896.348 1.298.66-.51.016-.978-.09-1.437-.23l-.217-.066.073-.22c.163-.49.365-.967.702-1.399M137.229 101.075c.011.549-.113 1.051-.276 1.542l-.143-.286c.453.157.895.347 1.298.66-.51.015-.978-.092-1.437-.23l-.217-.067.072-.22c.163-.49.366-.967.703-1.4M130.68 93.82c.01.548-.113 1.052-.276 1.542l-.144-.286c.453.158.896.347 1.299.66-.51.015-.979-.091-1.438-.23l-.216-.067.072-.22c.163-.49.365-.967.702-1.399M121.217 98.764c.011.548-.113 1.052-.276 1.541l-.143-.285c.453.158.895.347 1.298.66-.51.015-.978-.091-1.437-.23l-.217-.067.073-.22c.162-.49.365-.967.702-1.399M117.808 90.517c.011.548-.113 1.052-.276 1.542l-.144-.286c.454.158.896.347 1.299.66-.51.015-.978-.091-1.437-.23l-.217-.067.072-.22c.163-.49.366-.967.703-1.399M111.635 95.024c.011.548-.113 1.051-.276 1.541l-.143-.286c.453.159.896.348 1.299.66-.51.016-.979-.09-1.438-.23l-.216-.067.071-.219c.163-.49.366-.967.703-1.4M172.413 109.291c.197.512.252 1.027.266 1.544l-.232-.22c.479-.008.96.019 1.445.175-.473.19-.951.25-1.43.275l-.226.014-.006-.232c-.015-.516.013-1.034.183-1.556M167.325 116.36c.197.512.253 1.027.266 1.544l-.232-.22c.48-.007.96.02 1.445.175-.472.19-.95.25-1.43.276l-.226.012-.006-.232c-.014-.516.013-1.033.183-1.555M160.48 110.367c.01.548-.113 1.051-.276 1.541l-.144-.286c.453.158.896.348 1.298.66-.509.015-.978-.09-1.437-.23l-.216-.067.072-.219c.163-.491.365-.967.702-1.4M152.765 119.05c.012.55-.112 1.052-.275 1.543l-.144-.287c.453.158.896.348 1.299.66-.51.016-.979-.091-1.438-.23l-.216-.066.072-.22c.163-.49.365-.967.702-1.4M146.24 112.68c.012.547-.112 1.05-.275 1.54l-.144-.286c.454.159.896.348 1.299.66-.51.016-.979-.09-1.438-.23l-.216-.066.072-.22c.163-.49.365-.967.702-1.399M137.913 119.16c.011.548-.113 1.051-.276 1.542l-.143-.287c.453.158.895.348 1.298.66-.51.016-.978-.091-1.437-.23l-.217-.066.072-.22c.163-.49.366-.967.703-1.4M131.364 111.324c.011.548-.113 1.052-.276 1.541l-.143-.285c.453.158.895.347 1.298.66-.51.015-.978-.091-1.437-.23l-.217-.068.072-.218c.163-.492.366-.968.703-1.4M120.859 117.135c.011.548-.113 1.052-.276 1.542l-.143-.286c.453.158.895.347 1.298.66-.51.015-.978-.091-1.437-.23l-.217-.067.072-.22c.163-.49.366-.967.703-1.399M118.923 107.694c.011.548-.113 1.052-.276 1.542l-.143-.286c.453.158.895.347 1.298.66-.51.015-.978-.091-1.437-.23l-.217-.067.072-.22c.163-.49.366-.967.703-1.399M111.948 112.862c.012.548-.112 1.052-.275 1.542l-.144-.286c.454.158.897.347 1.3.66-.51.015-.979-.091-1.439-.23l-.216-.067.072-.22c.163-.49.366-.967.702-1.399M180.891 109.794c.025-.548.18-1.041.375-1.52l.125.294c-.442-.187-.871-.404-1.252-.743.508.017.97.155 1.419.324l.212.08-.087.215c-.194.478-.428.941-.792 1.35M184.84 106.08c-.215-.287-.282-.587-.305-.89l.204.202c-.264-.033-.525-.102-.776-.29.279-.144.548-.168.814-.156l.184.008.02.194c.031.304.02.61-.14.931M189.067 103.042c-.216-.286-.282-.586-.306-.89l.205.203c-.265-.033-.526-.102-.777-.291.279-.143.548-.167.814-.156l.185.009.02.194c.03.303.019.61-.141.931"/></g></svg>