<svg xmlns="http://www.w3.org/2000/svg" width="108.977" height="264.604"><g fill="none" fill-rule="evenodd" stroke-linecap="none" stroke-linejoin="none" stroke-miterlimit="10" stroke-width="none" data-paper-data="{&quot;isPaintingLayer&quot;:true}" font-family="none" font-size="none" font-weight="none" style="mix-blend-mode:normal" text-anchor="none"><g stroke-linecap="butt" stroke-linejoin="miter" stroke-width="1"><path fill="#dbb297" d="M64.565 59.365c6.273 1.377-12.283 16.012-25.46 16.012-13.175 0-29.803-15.452-23.474-16.573 7.955-1.377 21.036-6.765 25.021-6.765 5.357 0 16.07 5.604 23.913 7.326"/><path fill="#dbb297" d="M47.659 58.324c.303 2.402-5.413 4.5-7.804 4.5-1.937-.025-6.64-1.45-6.935-3.38l.558-16.075h14.085z"/><path fill="#bf9682" d="m33.104 52.472.374-10.72h14.125v4.803c-5.3.68-11.781 3.515-14.5 5.917"/></g><g stroke-linecap="butt" stroke-linejoin="miter" stroke-width="1" data-paper-data="{&quot;origPos&quot;:null}"><path fill="#dbb297" d="M62.964 59.853S68.217 57.643 73 62.64l9.214 40.415c.847 2.871-.591 5.923-3.34 7.085 0 0-5.42.705-7.253-3.515l-13.04-37.02a7.52 7.52 0 0 1 .15-5.801 7.47 7.47 0 0 1 4.233-3.95"/><path fill="#e38d6f" d="m78.835 79.868-13.599 13.61-10.522-27.452s10.1-15.692 18.055-4.684z"/><path fill="#d67858" d="M81.935 84.174 64.45 94.314l-3.229-5.617 17.486-10.14z"/></g><g stroke-linecap="butt" stroke-linejoin="miter" stroke-width="1"><path fill="#ed9d80" d="m13.36 111.492-1.547-51.759 17.72-6.3 2.654-4.804 8.122 4.003 8.585-4.003 2.862 4.803 16.787 4.236-.925 53.224z"/><path fill="#e38d6f" d="m45.068 63.768-4.798-7.502-1.38 57.332-1.49-.072 1.969-56.835-3.81 7.077-6.026-10.336 2.582-3.618 8.194 2.818v.048l.008-.048 8.195-2.818 2.574 3.618z"/><path fill="#d67858" d="m32.187 48.629 8.122 4.003-6.36 10.247-4.416-9.447zM46.343 62.407l-6.034-9.775 8.585-4.003 2.862 4.803z"/></g><g stroke-linecap="butt" stroke-linejoin="miter" stroke-width="1"><path fill="#c282ac" d="m49.707 71.83 7.748-9.359 3.308 5.18 3.021 4.74-6.321-.249-4.352-.176z"/><path fill="#5297a1" d="m59.073 65.001-5.675 6.973-3.69-.144 7.747-9.359z"/><path fill="#c7c7c7" d="m63.784 72.39-6.321-.248 3.3-4.491z"/><path fill="#ffabe2" d="m48.001 71.806 7.748-9.35 3.3 5.179 3.021 4.732-6.32-.249-4.353-.176z"/><path fill="#7be3f2" d="m57.36 64.985-5.676 6.973-3.683-.152 7.748-9.35z"/><path fill="#fff" d="m62.07 72.367-6.32-.249 3.3-4.483z"/><path fill="#d67858" d="M47.683 73.88v-3.01h16.093v3.01z"/></g><path fill="#3f4058" d="M26.344 196.052s-12.913-1.073-12.913-6.14l-4.4-39.775c.965-9.687 17.88-9.479 17.88-9.479 5.045 0 14.977 1.553 14.977 6.613l-5.58 42.64c-1.18 5.236-4.918 6.14-9.964 6.14" data-paper-data="{&quot;origPos&quot;:null}"/><path fill="#3f4058" d="m54.498 184.139-17.76-36.307c-1.968-4.676 8.904-11.785 13.551-13.73 0 0 16.596-3.467 21.131 6.556l5.979 39.118c1.944 11.28-4.201 12.45-4.201 12.45-9.717 3.826-16.763-3.404-18.7-8.087" data-paper-data="{&quot;origPos&quot;:null}"/><g stroke-linecap="butt" stroke-linejoin="miter" stroke-width="1"><path fill="#3f4058" d="M72.72 149.345c.621 4.411-26.042-2.402-31.884-2.474-6.098 0-25.779 5.076-31.813 3.266-.287-13.786.367-25.94 3.922-36.555a10.2 10.2 0 0 1 .247-4.468h54.809c.151 1.33.454 4.612.454 4.612 1.275 17.87 3.077 27.18 4.265 35.619"/><g fill="#5f6085" opacity=".64"><path d="M42.59 137.704v.576h-2.56a1.52 1.52 0 0 1-1.081-.445 1.53 1.53 0 0 1-.449-1.084v-24.939h.407l.446 24.739c0 .442.357.8.797.8zM42.59 136.35l-.471-3.065v-21.449h.47z"/></g><path fill="#5f6085" d="M17.728 113.374v11.28c0 5.068-1.73 5.204-6.776 5.204H9.741c.047-.24.087-.48.135-.72h.43c5.046 0 6.784-.137 6.784-5.204v-12.089h.542q.116.76.096 1.529M70.097 129.578c-5.285-.849-7.46-3.619-7.46-8.919v-7.277q0-.771.135-1.53h.542c-.04.257-.04.529-.04.801v7.277c.048 5.725 2.606 8.51 6.72 8.863q.075.39.103.785"/></g><path fill="#64bcbd" stroke="#529c9c" stroke-linecap="round" stroke-linejoin="round" stroke-width=".8" d="M69.276 115.807h-57.71l.486-4.595h56.945z"/><path fill="#529c9c" d="M54.41 111.404q.174-.037.35-.048a2.22 2.22 0 0 1 2.203 2.138 2.22 2.22 0 0 1-2.027 2.305 2.5 2.5 0 0 1-.35 0 2.35 2.35 0 0 0 1.41-2.241 2.35 2.35 0 0 0-1.586-2.154"/><path fill="#bf9682" d="M22.415 24.242a2.72 2.72 0 0 1 2.242-.143 2.74 2.74 0 0 1 1.592 1.592l1.052 3.595c.51 1.761.43 2.674-.072 3.074-1.212.721-2.933.064-3.834-1.449l-1.538-2.594c-.901-1.52-.646-3.354.557-4.075M59.647 28.317l-1.53 2.594c-.901 1.513-2.63 2.17-3.834 1.45-.51-.4-.582-1.314-.08-3.075l1.044-3.595A2.74 2.74 0 0 1 56.84 24.1a2.72 2.72 0 0 1 2.242.143c1.212.72 1.499 2.554.566 4.075"/><path fill="#dbb297" d="M41.848 46.115h-2.471c-2.878 0-11.726-5.74-12.826-12.378l-2.048-13.386c0-6.805 9.127-12.377 15.942-12.377h.414c6.776 0 15.903 5.604 15.903 12.377l-2.097 13.386c-1.092 6.061-9.461 12.378-12.817 12.378"/><path fill="#211207" d="M37.567 22.761a.58.58 0 0 1-.542.609l-5.938.336a.576.576 0 0 1-.048-1.145l5.962-.608c.311-.016.566.464.566.808M50.372 22.814c.085.2.05.43-.088.596a.57.57 0 0 1-.569.192l-5.994-.136a.576.576 0 0 1-.478-.657c.048-.312.343-.8.653-.752l5.987.408c.215.015.404.15.489.349"/><path stroke="#b2836d" stroke-linecap="round" stroke-linejoin="round" stroke-width=".768" d="m42.127 34.578-1.092.544a2.06 2.06 0 0 1-1.786 0l-1.1-.544"/><path fill="#5c463f" d="M44.853 37.628c-.35 1.602-2.32 3.227-4.703 3.227s-4.36-1.601-4.719-3.203c-.056-.256.12-.504.598-.504 2.696.715 5.53.715 8.226 0 .383 0 .654.24.598.48"/><path fill="#dbdbdb" d="M35.575 37.364a.68.68 0 0 1 .462-.128c2.697.705 5.529.705 8.226 0a.68.68 0 0 1 .454.152c-.478.945-2.335 1.842-4.567 1.842-2.24 0-4.097-.89-4.575-1.866"/><path stroke="#b2836d" stroke-linecap="round" stroke-linejoin="round" stroke-width=".768" d="M44.853 37.628c-.35 1.602-2.32 3.203-4.703 3.25-2.383.049-4.36-1.656-4.719-3.202a.55.55 0 0 1 .168-.376.52.52 0 0 1 .422-.128c1.34.415 2.728.649 4.129.697a15.5 15.5 0 0 0 4.105-.713c.383-.008.654.232.598.472"/><g stroke-linecap="butt" stroke-linejoin="miter" stroke-width="1"><path fill="#fff" d="M37.138 25.455a.4.4 0 0 1 .087.316 3.064 3.064 0 0 1-3.005 2.49 3.064 3.064 0 0 1-3.006-2.49.386.386 0 0 1 .375-.456h5.253a.4.4 0 0 1 .296.14"/><path fill="#4f5838" d="M32.704 27.09a1.79 1.79 0 0 1 .073-1.831h2.989c.19.29.29.63.287.977a1.781 1.781 0 0 1-3.35.854"/></g><g stroke-linecap="butt" stroke-linejoin="miter" stroke-width="1"><path fill="#fff" d="M49.716 25.35a.4.4 0 0 1 .087.317 3.064 3.064 0 0 1-3.005 2.49 3.064 3.064 0 0 1-3.005-2.49.386.386 0 0 1 .374-.456h5.253a.4.4 0 0 1 .296.14"/><path fill="#4f5838" d="M45.676 27.502a1.8 1.8 0 0 1-.241-2.25h3.005c.36.547.393 1.25.083 1.83-.31.578-.911.94-1.566.94-.479.006-.94-.182-1.28-.52"/></g><path fill="#211207" d="M51.054 18.262s-4.376-4.964-6.839-.457c0 0-11.16-6.348-16.85 3.307l-1.451 3.322.111 3.427.048 4.003-.86-3.306-.893-5.34-.638-4.628s-2.025-9.607 8.64-14.307c0 0 10.993-2.706 11.893-4.283 0 0-.582 2.89 3.986 5.957 0 0 1.857.2 2.311-1.13 0 0 9.932 6.213 7.971 15.012 0 0-3.013 8.807-3.284 10.56 0 0-.414-8.342-.869-9.727-.015 0-.478-3.86-3.276-2.41"/><g stroke-linecap="butt" stroke-linejoin="miter" stroke-width="1"><path fill="#dbb297" d="m19.05 73.992-5.38 35.226c-1.299 4.42-7.054 3.78-7.054 3.78-2.774-.633-6.114-3.187-5.58-6.013L5.58 71.182c2.606-8.735 9.11-7.438 9.11-7.438 4.177.969 5.485 6.469 4.36 10.248"/><path fill="#e38d6f" d="M6.201 65.505c1.77-3.802 5.795-7.06 9.279-6.236 6.13 1.513 5.508 14.723 5.508 14.723l-2.59 17.997-16.804-9.006z"/><path fill="#d67858" d="M18.533 95.48 0 88.05l1.188-6.508 18.58 7.453z"/></g><g fill="#dbb297" stroke-linecap="butt" stroke-linejoin="miter" stroke-width="1"><path d="M74.945 97.61 93.66 70.317a3.053 3.053 0 0 1 4.05-1.073c1.043.569 2.39 2.402 1.952 3.53l-13.208 30.712c-1.291 2.498-5.077 8.607-10.57 6.045-2.59-1.21-1.992-9.24-.94-11.921M100.867 65.986l5.26-8.807a1.077 1.077 0 0 1 1.483-.384c.51.308.681.97.383 1.489l-4.623 9.047c-.32.52-1.403.56-1.913.256a1.283 1.283 0 0 1-.59-1.601"/><path d="m98.97 63.304 5.07-9.183a1.193 1.193 0 0 1 1.593-.48c.564.316.776 1.025.479 1.6l-4.496 9.528c-.319.576-1.499.496-2.073.184a1.26 1.26 0 0 1-.573-1.65M101.193 70.157l6.138-8.19a.906.906 0 0 1 1.236-.264c.413.27.533.822.27 1.24l-5.579 8.647a.9.9 0 0 1-1.236.264c-.414-.272-1.123-1.289-.829-1.697M96.66 63.096a1 1 0 0 1 .038-.769l4.392-8.534c.246-.496.844-.7 1.339-.457.486.25.684.844.446 1.337l-3.985 8.759c-.247.488-1.228.472-1.714.232a1 1 0 0 1-.516-.568M93.04 58.236c.796-.168 2 1.2 2.207 2.242l1.873 9.447a2.22 2.22 0 0 1-2.391 1.377c-.446-.24-1.793-.68-1.96-3.123l.222-6.917c.28-.853.191-1.786-.247-2.57-.12-.176.096-.408.295-.456"/><path d="M95.853 73.191c-2.535-1.377-3.906-4.803-2.527-7.373l.622-1.153a5.257 5.257 0 0 1 7.118-2.114l.869.473c2.555 1.38 3.517 4.577 2.152 7.149l-.63 1.153c-1.419 2.546-5.07 3.25-7.604 1.865"/></g><g fill="#dbb297" stroke-linecap="butt" stroke-linejoin="miter" stroke-width="1" data-paper-data="{&quot;origPos&quot;:null}"><path d="M7.74 102.846c2.798.128 6.161 2.538 6.225 5.348l-1.69 33.417c-.063 1.193-2.12 2.29-3.308 2.29a3.057 3.057 0 0 1-3.188-2.762L.996 108.314c.232-2.874 3.946-5.596 6.744-5.468"/><path d="M8.229 138.282a3.24 3.24 0 0 1 3.162 1.768c1.745 3.026.566 8.214.566 8.214a5.27 5.27 0 0 1-1.22 2.474c.384 1.174.667 2.38.845 3.602 1.335.408 2.636.922 3.89 1.538 2.535.352 2.032 2.041 2.032 2.041-6.36-.248-7.787-1.193-7.787-1.193-6.425-5.5-5.429-8.854-5.429-8.854l1.116-7.318a3.25 3.25 0 0 1 2.825-2.272"/><path d="M15.432 153.003c-.797.369-2.391-.8-2.854-1.8l-4.782-10.537a2.396 2.396 0 0 1 2.16-2.033 6.3 6.3 0 0 1 3.34 3.875l1.45 7.293c-.074.96.245 1.909.885 2.626.168.184 0 .488-.2.576"/></g><g stroke-linecap="butt" stroke-linejoin="miter" stroke-width="1"><path fill="#dbb297" d="m35.51 191.088-5.659 56.043a3.99 3.99 0 0 1-3.858 3.202h-.055c-2.431.032-4.24-1.521-4.735-4.547l-7.007-54.898c-.055-3.002 9.247-5.468 12.236-5.468 3.06 0 9.238 2.578 9.079 5.668"/><path fill="#3f4058" d="M33.462 230.414v3.739c0 1.825-3.515 3.306-7.851 3.306s-7.852-1.48-7.852-3.306c0-.112-.318-3.675-.318-3.675 0-.48.27-.56.733-.424l-5.293-45.635c-.088-3.002 6.632-6.95 12.754-6.95 5.898 0 11.319 4.484 11.16 7.559l-4.114 45.034c.462-.169.726-.104.781.352"/></g><path fill="#00bcbd" d="m12.586 257.586 7.54-9.167c.599-2.265-.198-9.038-.198-9.038h.908l.989 2.041a1.93 1.93 0 0 1 1.458-1.705l3.444.096a1.51 1.51 0 0 1 1.482 1.45l1.993-1.786H31l.255 13.09-.797 7.245z"/><path stroke="#e6e6e6" stroke-linecap="round" stroke-linejoin="round" stroke-width=".5" d="m21.864 242.215 5.748 3.546-5.405 2.779 4.48 2.01-6.44.784 5.723 2.105-9.199 1.145 8.936.585-7.063-2.634 7.684-.665-5.157-2.057 6.074-1.033-5.357-3.555 5.963-2.682"/><path fill="#008f8f" d="m28.225 241.23-.23 7.566-1.93 7.093-1.435.024 2.615-7.133.422-6.621zM21.84 241.39l.367 7.15-6.488 8.11-1.132-.056 7.262-8.126-.367-7.806z"/><path fill="#00a0a1" d="m27.731 257.338 1.778-7.846.71-10.047.796.016.255 13.09-.765 6.965z"/><path fill="#e5e8e9" d="M21.474 255.073c7.134.072 9.119 3.21 9.063 3.946a38 38 0 0 1-9.884 1.458 25.5 25.5 0 0 1-8.768-1.265s-.726-4.252 9.589-4.14"/><path fill="#cfd6d4" d="M11.71 261.613q.003-1.207.183-2.401c2.96.71 6.011.962 9.047.744 3.38-.136 7.748-.328 9.565-.937 0 0 .04 1.025.04 2.074 0 .729-.223 1.545-1.594 2.01a28 28 0 0 1-7.844 1.449 24.4 24.4 0 0 1-8.52-.953c-.886-.2-.862-.945-.878-1.986"/><path fill="#545c59" d="M11.885 259.212c2.966.675 6.007.962 9.047.856a67.4 67.4 0 0 0 9.565-1.049c.16-.048.223.44 0 .497a64 64 0 0 1-9.565 1.145 35 35 0 0 1-9.119-.961c-.175-.048-.024-.512.072-.488"/><g stroke-linecap="butt" stroke-linejoin="miter" stroke-width="1"><path fill="#dbb297" d="M62.365 241.959c-.67 2.337-2.056 4.379-4.448 4.083h-.055c-1.85-.224-4.09-1.826-4.241-3.715l1.977-56.163c.175-3.074 7.078-5.243 10.083-4.915s11.534 4.083 11.16 7.061z"/><path fill="#3f4058" d="M68.343 228.653s-.709 3.514-.709 3.618c-.191 1.786-3.85 2.882-8.162 2.402s-7.644-2.338-7.445-4.155l.406-3.707c.048-.456.28-.528.654-.368l1.41-42.296c.168-3.074 8.928-7.254 15.082-6.117 2.941.545 7.86 3.94 7.86 9.047l-9.685 41.031c.422-.056.637.064.59.545"/></g><path fill="#00bcbd" d="m81.169 257.907-.39 1.89s-.559 2.305-1.22 2.169l-28.99-6.06a1.55 1.55 0 0 1-.798-1.562c.128-1.16 2.519-11.249 2.519-11.249v-6.276l7.086 1.36.558 2.883c.136-1.225 2.559-2.658 4.265-2.026 0 0 1.737.345-.43 3.547l-.336 3.603.463 2.858 5.986 4.323 7.11.48s3.778.289 4.177 4.06"/><path fill="#cfd6d4" d="M49.675 254.328c.056-.584.36-1.785.542-2.882l19.266 6.605 11.71-.144-.39 1.897s-.423 2.338-1.22 2.17l-10.442.408-18.637-6.485a1.54 1.54 0 0 1-.829-1.57"/><path stroke="#e6e6e6" stroke-linecap="round" stroke-linejoin="round" stroke-width=".5" d="m63.752 242.535-3.308 4.315 3.452 2.194.287 2.898 3.603-.088 2.327 3.347 3.571-1.594-.207 1.562-3.045-1.762-3.739-.096-1.012-3.346-4.312.224 2.064-4.003-3.834-3.971"/><path fill="#008f8f" d="m59.36 238.14 2.184 11.72 8.617 4.972 5.516-.216-.176.825-5.484.2-9.19-5.156-2.296-12.497z"/><path fill="#e5e8e9" d="m81.185 257.923-6.122.448.741-4.732 1.188.209s3.77.272 4.193 4.075"/><path fill="#545c59" d="m81.145 258.451-11.765.128-19.322-6.629.104-.536 19.33 6.629 11.765-.128z"/></g></svg>