<svg xmlns="http://www.w3.org/2000/svg" width="75.228" height="139.405" viewBox="1.167 1.436 75.228 139.405"><defs><radialGradient id="b" cx=".271" cy=".524" r=".948"><stop offset="0" stop-color="#f0d520"/><stop offset="1" stop-color="#ff9400"/></radialGradient><radialGradient id="a" cx="36.427" cy="112.833" r="30.367" gradientUnits="userSpaceOnUse"><stop offset="0" stop-color="#f0d520"/><stop offset="1" stop-color="#ff9400"/></radialGradient><radialGradient id="c" cx="46.968" cy="33.481" r="71.392" gradientUnits="userSpaceOnUse"><stop offset="0" stop-color="#ff0"/><stop offset="1" stop-color="#ff9400"/></radialGradient></defs><path fill="url(#a)" d="M33.827 89.388c-3.571 4.088-4.603 8.795-3.815 14.103.642 4.311 7.629 6.267 7.935.827.103-1.86.119-3.74.075-5.602-.108-4.582-4.17 2.762-4.345 4.737-.497 5.607-.74 11.941 4.236 15.687q.017-.17.02-.341c.039-1.154.147-1.988.712-2.98.518-.908-.643-4.463.097-4.998-8.76 6.318-5.365 22.207.766 29.02-.796-.884.929-4.075.098-4.999-5.35-5.945-8.246-13.769-.961-19.022l.097-5c-.537.945-.69 1.876-.726 2.954-.017.483-2.244-1.796-2.28-1.842-.697-.862-1.103-1.935-1.501-2.953-.85-2.166-.555-1.77.334-3.824.455-1.053 1.268-1.87 2.07-2.657 1.581-1.555 1.267.658 1.294 1.82l.103-4.91c-.312 3.1-2.834 4.044-5.456 2.625-1.34-.726-2.081-2.136-2.47-3.541.68 2.462-.12 1.94.7.015.658-1.55 1.827-2.868 2.92-4.12.854-.98-.727-4.056.097-5"/><path fill="none" stroke="url(#b)" stroke-linecap="round" stroke-width="2" d="M39.35 111.85s.109 3.016-.1 4.5c-.096.68-.8 1.9-.8 1.9"/><path fill="url(#c)" d="M74.868 52.589c-3.405 24.8-33.013 42.634-41.953 42.324-9.75-.337-33.825-27.46-30.421-52.261C5.899 17.852 24.86-.03 44.846 2.714S78.272 27.79 74.868 52.59"/></svg>