<svg xmlns="http://www.w3.org/2000/svg" xml:space="preserve" viewBox="0 0 512 512"><path d="M0 402.544h187.886L87.348 302.006C33.808 326.5 0 362.461 0 402.544" style="fill:#c05f75"/><path d="M256.002 268.896c-64.605 0-123.609 12.499-168.653 33.11l100.538 100.539H512c0-73.81-114.616-133.649-255.998-133.649" style="fill:#b35454"/><path d="M162.976 189.012c0 23.761-19.267 43.025-43.029 43.025-23.767 0-43.028-19.264-43.028-43.025 0-23.764 19.261-43.028 43.028-43.028 23.762 0 43.029 19.264 43.029 43.028M438.354 189.012c0 23.761-19.267 43.025-43.029 43.025-23.761 0-43.028-19.264-43.028-43.025 0-23.764 19.267-43.028 43.028-43.028 23.762 0 43.029 19.264 43.029 43.028" style="fill:#aa8584"/><path d="M75.041 84.381h75.558v41.778H75.041z" style="fill:#afafaf"/><path d="M88.377 84.381h7.111v41.778h-7.111zM103.486 84.381h7.115v41.778h-7.115z" style="fill:#999a9a"/><path d="M81.143 130.038c0 7.576-6.139 13.715-13.715 13.715s-13.72-6.139-13.72-13.715V80.501c0-7.576 6.145-13.715 13.72-13.715s13.715 6.139 13.715 13.715z" style="fill:#c3c4c4"/><path d="m319.584 51.617-62.51 62.501-62.51-62.501-62.501 62.501-16.501-16.502V321.91c0 26.404 21.407 47.807 47.804 47.807h187.416c26.4 0 47.801-21.403 47.801-47.807V97.616l-16.502 16.502z" style="fill:#95a8ad"/><path d="m319.584 51.617-62.51 62.501-62.51-62.501-62.501 62.501-16.501-16.502V321.91c0 26.404 21.407 47.807 47.804 47.807h187.416c26.4 0 47.801-21.403 47.801-47.807V97.616l-16.502 16.502z" style="fill:#8fb393"/><path d="M235.649 291.318c0-26.404-21.413-47.804-47.814-47.804h-72.273v78.396c0 26.404 21.407 47.807 47.804 47.807h72.282z" style="fill:#c0b495"/><path d="M178.821 237.776h-9.558a5.744 5.744 0 0 0-5.744 5.738c0 3.165 2.575 5.735 5.744 5.735h9.558a5.734 5.734 0 0 0 5.733-5.735 5.735 5.735 0 0 0-5.733-5.738m47.838 16.669a54 54 0 0 0-8.093-6.976 5.734 5.734 0 0 0-7.992 1.395 5.736 5.736 0 0 0 1.402 7.995 42.3 42.3 0 0 1 6.363 5.489 5.733 5.733 0 0 0 8.106.205c2.298-2.18 2.386-5.813.214-8.108m14.722 48.35v-9.561a5.74 5.74 0 0 0-11.477 0v9.561a5.743 5.743 0 0 0 5.745 5.738c3.156.001 5.732-2.569 5.732-5.738m0 47.81v-9.564a5.74 5.74 0 0 0-5.732-5.738 5.745 5.745 0 0 0-5.745 5.738v9.564a5.738 5.738 0 0 0 11.477 0" style="fill:#b1a48c"/><path d="m398.583 97.616-3.105 3.115-13.396 13.386-62.497-62.501-48.268 48.256a153 153 0 0 0-5.075 39.089c0 77.361 57.661 141.196 132.342 150.994V97.616z" style="fill:#bc9f72"/><path d="M260.496 138.962q0 2.487.076 4.956c.102 3.169 2.753 5.66 5.909 5.561 3.169-.094 5.656-2.743 5.568-5.912q-.076-2.291-.076-4.605a5.74 5.74 0 0 0-5.732-5.735 5.73 5.73 0 0 0-5.745 5.735M309.118 252.978a154 154 0 0 0 7.462 6.713c2.411 2.045 6.035 1.74 8.081-.678a5.733 5.733 0 0 0-.682-8.084 147 147 0 0 1-6.906-6.228 5.746 5.746 0 0 0-8.119.168 5.73 5.73 0 0 0 .164 8.109m-36.968-54.354a148 148 0 0 0 4.091 9.163c1.376 2.853 4.81 4.043 7.664 2.664a5.745 5.745 0 0 0 2.664-7.667 145 145 0 0 1-3.788-8.497c-1.2-2.933-4.558-4.343-7.487-3.144-2.929 1.197-4.331 4.548-3.144 7.481M364.987 287.672c1.566.566 3.118 1.099 4.696 1.61a5.744 5.744 0 0 0 7.235-3.684 5.73 5.73 0 0 0-3.687-7.228 154 154 0 0 1-4.356-1.49 5.73 5.73 0 0 0-7.335 3.453c-1.073 2.981.467 6.27 3.447 7.339" style="fill:#927968"/><path d="M350.783 0H163.367c-26.397 0-47.804 21.403-47.804 47.807v49.808l16.501 16.502 62.501-62.501 62.51 62.501 62.51-62.501 62.497 62.501 16.502-16.502V47.807C398.583 21.403 377.183 0 350.783 0" style="fill:#605954"/><path d="M257.075 128.763v1.275" style="fill:none;stroke:#48b0ca;stroke-miterlimit:10"/><path d="M222.721 193.144c0 22.18-17.979 40.159-40.162 40.159-22.184 0-40.156-17.979-40.156-40.159 0-22.177 17.972-40.159 40.156-40.159 22.182 0 40.162 17.982 40.162 40.159" style="fill:#595758"/><path d="M212.974 192.219c0 15.457-12.525 27.988-27.979 27.988-15.467 0-27.994-12.531-27.994-27.988 0-15.46 12.527-27.991 27.994-27.991 15.454.001 27.979 12.531 27.979 27.991" style="fill:#fff"/><circle cx="184.995" cy="191.001" r="15.82" style="fill:#c05f75"/><path d="M295.444 193.144c0 22.18 17.979 40.159 40.162 40.159s40.162-17.979 40.162-40.159c0-22.177-17.979-40.159-40.162-40.159s-40.162 17.982-40.162 40.159" style="fill:#595758"/><path d="M305.191 192.219c0 15.457 12.525 27.988 27.978 27.988s27.991-12.531 27.991-27.988c0-15.46-12.538-27.991-27.991-27.991-15.453.001-27.978 12.531-27.978 27.991" style="fill:#fff"/><circle cx="333.17" cy="191.001" r="15.82" style="fill:#c05f75"/><path d="M185.285 279.201h152.986v33.148H185.285z" style="fill:#eae9e9"/><path d="M213.327 279.201h8.927v33.148h-8.927zM242.656 279.201h8.914v33.148h-8.914zM274.523 279.201h8.926v33.148h-8.926zM302.578 279.201h8.914v33.148h-8.914z" style="fill:#9f9e9f"/><g style="opacity:.08"><path d="M398.583 146.117v-98.31c0-26.404-21.4-47.807-47.801-47.807h-97.887v369.717h97.887c26.4 0 47.801-21.403 47.801-47.807v-90.008c22.246-1.67 39.771-20.226 39.771-42.889 0-22.667-17.525-41.226-39.771-42.896" style="fill:#231815"/></g></svg>