<svg xmlns="http://www.w3.org/2000/svg" xml:space="preserve" width="255.1" height="218.773" viewBox="-0.3 0.327 255.1 218.773"><title>Slice 1</title><g fill-rule="evenodd"><path fill="#694929" d="M151.9 129.1c-4.3 17.3-18.6 35.8-30.9 43.6s-16.7 27-16.7 27 5.5 6.6 4.4 8.8c-2.5 4.9-13.2 2-16.1-1.9s-2-39.2 3.9-43.6 11.8-5.9 10.3-17.2-3-36.3 7.6-39.7c10.5-3.5 43.9-3 37.5 23"/><path fill="#423118" d="M149.3 136.5s-.5 1.2-1.4 3.1c-.9 2-2.4 4.7-4.2 7.9-1.9 3.2-4.2 6.9-7 10.5-1.4 1.8-2.9 3.7-4.6 5.4-.9.9-1.7 1.7-2.7 2.5-.9.8-2 1.5-3 2.2-2 1.5-4 3-5.9 4.5-1.9 1.6-3.7 3.1-5.4 4.8-1.6 1.7-3.1 3.4-4.2 5.2s-2.1 3.6-2.8 5.3q-1.05 2.55-1.8 4.8c-.5 1.4-.8 2.7-1.1 3.7-.6 2.1-.9 3.3-.9 3.3s.4-1.2 1-3.3c.3-1 .7-2.3 1.2-3.7s1.1-3 1.9-4.7c.7-1.7 1.7-3.5 2.9-5.2q1.8-2.7 4.2-5.1c1.6-1.7 3.5-3.2 5.3-4.7 1.9-1.5 3.9-3 5.9-4.4 1-.7 2-1.4 3-2.2s1.9-1.6 2.7-2.5c1.7-1.8 3.2-3.6 4.7-5.5 2.8-3.7 5.1-7.4 6.9-10.7 1.8-3.2 3.1-6.1 4-8 .9-2 1.3-3.2 1.3-3.2M105.5 206.1s.1.3.3.6c.2.4.4.9.7 1.3.3.5.5.9.7 1.3.1.2.2.3.2.5 0 .1.1.2.1.2s.1-.3.1-.7-.2-1-.4-1.5q-.45-.75-.9-1.2c-.5-.3-.8-.5-.8-.5M101.7 207.6s.1.2.2.6c.1.3.3.7.5 1.2.2.4.4.8.5 1.1.1.2.1.3.2.4 0 .1.1.2.1.2s.1-.2.1-.6-.1-.9-.3-1.3-.5-.8-.8-1.1c-.3-.4-.5-.5-.5-.5M92.6 174.1v-.6c0-.4.1-1 .2-1.7.3-1.4.8-3.5 1.9-5.7.6-1.1 1.3-2.2 2.3-3.2.3-.2.5-.5.8-.7l.9-.6c.6-.3 1.3-.7 2-1 1.4-.8 2.8-1.8 3.9-3 1.1-1.3 1.9-2.9 2.3-4.5.4-1.7.5-3.4.4-5-.1-1.7-.4-3.3-.6-4.8-.4-3.1-.6-6-.7-8.5s-.2-4.6-.3-6v-2.3s0 .8-.1 2.3c0 1.5-.1 3.5 0 6.1.1 2.5.2 5.4.5 8.6.1 1.6.5 3.2.5 4.8.1 1.6 0 3.3-.4 4.8-.4 1.6-1.1 3.1-2.1 4.3s-2.3 2.2-3.6 2.9c-.7.4-1.4.7-2.1 1.1-.3.2-.6.4-.9.7-.3.2-.6.5-.8.8-1 1-1.8 2.2-2.3 3.4-.6 1.1-.9 2.2-1.2 3.2s-.4 1.9-.5 2.6-.1 1.3-.2 1.7c.1.1.1.3.1.3M101.5 166.5s-.4.2-.9.6-1.1 1.1-1.5 1.9l-.3.6c-.1.2-.1.4-.2.6s-.1.4-.1.6v.5c0 .3 0 .6.1.8v.3s0-.1.1-.3c0-.2.1-.4.2-.7s.2-.6.3-1 .3-.7.5-1.1c.4-.7.8-1.4 1.2-1.9.3-.5.6-.9.6-.9"/><path fill="#694929" d="M163.7 100.6c-6.8-2-4.5-5.7-4.5-5.7-4.4-.7-6.2-6.8-6.2-6.8-5.1-2-4.3-7.4-4.3-7.4-4.3-1.5-5.4-5.9-5.4-5.9-5.5.4-8.6-5.5-8.6-5.5-4.4-.7-5.4-5.9-5.4-5.9-7.5-.7-8.6-8.5-8.6-8.5-21-.7-7.3-4.9-7.3-4.9-22.4-6.4-2.8-8.4-2.8-8.4s-15.8.1-17.3-4.3 14.5-3.7 14.5-3.7C72 32.8 61 25.2 68.6 25.5s35.8 1.2 35.8 1.2C62.5 21.2 57.3 8.6 66.5 12.9s41.4 8.4 41.4 8.4C86.2 18.8 59.9.1 76.1 5.5s34 10.2 34 10.2c-23.2-9.8-24.7-21-8.2-10.9s53.7 16.6 75.4 24.1S191 69 191 69c4.7 10.4.9 26.6 8.5 32.8 0 0-29.4.6-35.8-1.2"/><path fill="#423118" d="m199.5 101.8-.3-.3c-.2-.2-.5-.4-.8-.8-.3-.3-.7-.8-1-1.3-.3-.6-.7-1.2-1-1.9-.7-1.5-1.1-3.3-1.4-5.3s-.5-4.2-.6-6.3q-.3-3.3-.6-6.3c-.1-1-.2-2-.4-2.9-.1-.9-.3-1.8-.5-2.6s-.3-1.5-.5-2.2c-.2-.6-.4-1.2-.6-1.6s-.4-.8-.6-1c-.1-.2-.2-.3-.2-.3s.1.1.2.3c.2.2.3.6.5 1 .1.5.3 1 .5 1.6.1.6.3 1.4.4 2.2.3 1.6.4 3.5.6 5.5s.3 4.2.5 6.3c.2 2.2.4 4.3.7 6.4.3 2 .9 3.9 1.6 5.4.4.7.8 1.4 1.2 1.9s.8 1 1.1 1.3.6.5.8.7c.3.1.4.2.4.2"/><path fill="#423118" d="M189.5 72.3s0-.1.2-.3c.1-.2.3-.5.5-1 .4-.9 1-2.1 1.5-3.9 1-3.4 1.6-8.6 1-14.6-.3-3-.8-6.3-1.9-9.6-.5-1.7-1.2-3.3-2.1-5-.9-1.6-2-3.2-3.3-4.6s-2.9-2.7-4.7-3.5c-.5-.2-.9-.4-1.4-.5l-1.4-.4c-1-.2-1.9-.5-2.9-.7-3.8-1-7.8-2.1-11.7-3.1-15.6-4.2-31.2-8.6-42.7-12.4-5.8-1.9-10.5-3.6-13.8-5-1.6-.7-2.9-1.3-3.7-1.8s-1.2-.8-1.2-.8.4.3 1.2.8 2 1.1 3.7 1.9c1.6.7 3.6 1.5 5.9 2.4s4.9 1.8 7.8 2.8c11.5 3.9 27 8.5 42.6 12.8 3.9 1 7.8 2.1 11.7 3.1 1 .2 1.9.5 2.9.7l1.4.4c.4.1.9.3 1.3.5 1.7.8 3.2 2 4.5 3.4 2.5 2.7 4.2 6.1 5.2 9.3 1.1 3.3 1.6 6.5 2 9.5.7 6 .1 11.1-.8 14.5-.4 1.7-.9 3-1.2 3.9-.2.4-.3.8-.4 1-.2.1-.2.2-.2.2M110.1 15.9s-1.4-.8-3.4-1.9c-1-.6-2.2-1.3-3.5-2q-1.95-1.05-3.9-2.4c-1.3-.8-2.6-1.7-3.8-2.5-1.2-.9-2.3-1.7-3-2.5-.8-.8-1.4-1.6-1.5-2.3 0-.3.1-.6.2-.7l.2-.2s-.1 0-.2.2c-.1.1-.3.4-.3.7 0 .4.2.8.4 1.2s.5.9.9 1.3q1.2 1.35 3 2.7c1.2.9 2.5 1.8 3.8 2.6s2.7 1.6 4 2.3q1.95 1.05 3.6 1.8c2 1.1 3.5 1.7 3.5 1.7M105.5 21.1s-2.4-.4-5.8-1.3c-.9-.2-1.8-.5-2.8-.8s-2-.7-3-1c-1-.4-2.1-.7-3.2-1.2-.5-.2-1.1-.4-1.6-.7l-1.6-.7c-1.1-.4-2.1-1-3.2-1.5s-2-1.1-3-1.6-1.9-1.1-2.8-1.6-1.7-1.1-2.4-1.5c-.8-.5-1.4-.9-2-1.3q-.9-.6-1.5-1.2c-.8-.7-1.2-1.1-1.2-1.1s.4.5 1.2 1.2c.4.4.9.8 1.4 1.2.6.5 1.2.9 2 1.5.7.5 1.5 1.1 2.4 1.6s1.8 1.1 2.7 1.7c1 .5 2 1.1 3 1.6 1.1.5 2.1 1.1 3.2 1.5 1.1.5 2.2.9 3.3 1.4 1.1.4 2.2.8 3.2 1.2 1.1.3 2.1.7 3.1.9 1 .3 1.9.5 2.8.7 3.4.9 5.8 1 5.8 1M104.4 26.8s-2.8-.5-6.9-1.4c-2.1-.4-4.5-1-7-1.5-2.6-.6-5.3-1.2-8-2-2.7-.7-5.4-1.5-7.9-2.3s-4.8-1.7-6.7-2.6c-.9-.5-1.8-.9-2.5-1.4-.4-.2-.7-.5-1-.7s-.5-.5-.8-.7c-.4-.4-.7-.8-.9-1.1s-.3-.4-.3-.4.1.2.2.5.4.7.8 1.2l.7.7c.3.2.6.5.9.7.7.5 1.5 1 2.5 1.5 1.9 1 4.1 1.9 6.6 2.8s5.2 1.7 7.9 2.4 5.5 1.3 8 1.9c2.6.6 5 1 7.1 1.3 4.5.8 7.3 1.1 7.3 1.1M105.6 33.5s-2.5-.2-6.2-.5c-1.9-.2-4-.4-6.4-.6-2.3-.2-4.8-.5-7.3-.8s-4.9-.7-7.2-1.1-4.4-.9-6.2-1.4c-.9-.3-1.7-.5-2.4-.8-.7-.2-1.3-.5-1.8-.8-.5-.2-.9-.4-1.1-.6s-.4-.2-.4-.2.1.1.4.3c.2.2.6.4 1.1.7q.75.45 1.8.9t2.4.9c.9.3 1.9.6 2.9.8 1 .3 2.2.5 3.3.7 2.3.5 4.8.9 7.3 1.2s5 .6 7.3.8 4.5.3 6.4.4c3.6.1 6.1.1 6.1.1M110.7 41.6s-1.1-.1-2.8-.2c-.8 0-1.8-.1-2.9-.2-1-.1-2.2-.2-3.3-.4s-2.2-.4-3.2-.6c-.5-.1-1-.3-1.4-.4-.5-.1-.9-.3-1.3-.5s-.7-.4-1-.5c-.3-.2-.5-.4-.7-.5l-.4-.4-.1-.1s.1.3.5.6c.2.2.4.4.7.6s.6.4 1 .7c.8.4 1.7.8 2.7 1.1s2.1.5 3.3.7c1.1.2 2.3.3 3.3.3 1.1.1 2.1 0 2.9 0 1.5 0 2.7-.2 2.7-.2M113.4 50s-.7-.3-1.8-.6c-1.1-.4-2.5-.9-3.9-1.4-.7-.3-1.4-.6-2-.9-.3-.2-.6-.3-.9-.5s-.5-.3-.8-.5c-.2-.2-.4-.3-.6-.4l-.4-.4c-.2-.3-.3-.4-.3-.4s.1.2.2.5c.1.2.2.3.3.5s.3.4.5.6.5.4.7.6c.3.2.6.4.9.5.6.4 1.3.7 2 1 1.4.6 2.9 1 4 1.2 1.4.2 2.1.2 2.1.2M120.8 54.9s-.8-.1-1.9-.2-2.7-.2-4.2-.3-3-.3-4.1-.7c-.3-.1-.5-.2-.7-.3s-.4-.2-.5-.3-.2-.2-.2-.3-.1-.1-.1-.1 0 .2.2.5.6.6 1.2.8c1.1.5 2.6.8 4.2 1 1.5.1 3.1.1 4.2 0 1.1.1 1.9-.1 1.9-.1M129.4 63.4s-.7-.1-1.6-.5-2.1-1-3.2-1.8c-.3-.2-.5-.4-.7-.6s-.4-.5-.7-.7c-.2-.2-.4-.5-.6-.7s-.3-.5-.5-.7c-.1-.2-.3-.4-.4-.6s-.2-.3-.3-.5c-.1-.3-.2-.4-.2-.4s0 .2.1.5c0 .1.1.3.1.5s.2.4.3.7c.1.2.2.5.4.8s.3.5.5.8c.2.2.4.5.7.8.3.2.5.5.8.7l.9.6c.3.2.6.3.9.5.6.3 1.2.5 1.7.6zM134.8 69.3s-.4-.1-.9-.4-1.1-.7-1.7-1.2c-.3-.2-.6-.5-.8-.8s-.5-.5-.7-.7l-.5-.5-.2-.2s0 .1.1.3.1.4.3.7c.3.6.7 1.2 1.4 1.8.3.3.7.5 1 .7s.7.3 1 .4c.6-.1 1-.1 1-.1M143.4 74.8s-2.2-.1-4.1-1.1c-.5-.2-.9-.5-1.3-.8s-.8-.6-1-.9l-.4-.4-.3-.3-.3-.3s.1.1.2.3.3.5.5.9c.1.2.2.4.4.5.2.2.3.4.5.5.2.2.4.4.6.5s.5.3.7.4c.5.3 1.1.5 1.6.6s1 .2 1.4.2c.9 0 1.5-.1 1.5-.1M148.8 80.6s-.3-.2-.8-.6-1.1-.8-1.7-1.3-1.1-1-1.5-1.4l-.5-.5-.2-.2s0 .1.1.3.1.4.3.7c.3.5.8 1.2 1.4 1.7s1.3.9 1.9 1.1 1 .2 1 .2M153.1 88s-.5-.1-1-.5c-.6-.4-1.2-.9-1.7-1.6-.3-.3-.5-.7-.6-1.1-.2-.4-.3-.7-.5-1-.1-.3-.2-.6-.3-.8s-.1-.3-.1-.3v.3c0 .2 0 .5.1.8s.1.7.3 1.2c.1.4.4.8.6 1.2.3.4.6.7 1 1s.7.5 1.1.6c.6.3 1.1.2 1.1.2M159.2 94.8s-.4-.2-1-.6-1.3-.9-2-1.6c-.3-.3-.6-.7-.9-1s-.5-.6-.8-.9c-.2-.3-.4-.5-.5-.7s-.2-.3-.2-.3 0 .1.1.3.2.5.3.8c.2.3.4.7.6 1.1.3.4.6.8.9 1.1.4.3.8.7 1.2.9.4.3.8.4 1.1.6.7.3 1.2.3 1.2.3M163.7 100.6s-.4-.2-.9-.4c-.5-.3-1.2-.6-1.8-1-.3-.2-.6-.4-.9-.7-.1-.1-.3-.2-.4-.4-.1-.1-.2-.2-.3-.4-.2-.2-.3-.4-.4-.6l-.1-.2s0 .4.2 1q.15.45.6.9c.3.3.6.6.9.8.7.5 1.5.7 2.1.9.6.1 1 .1 1 .1"/><path fill="#52391e" d="M184.2 97.3s-.5-.2-1.3-.5c-.4-.1-.8-.3-1.3-.5s-.9-.4-1.3-.7-.6-.6-.4-1 .5-.7.8-1 .6-.5.8-.6.3-.2.3-.2-.1 0-.4.1c-.2.1-.6.2-.9.4-.2.1-.4.2-.6.4s-.4.4-.5.6c-.1.3-.2.7-.1 1s.4.6.6.8c1 .7 2.1.9 2.9 1.1.9.1 1.4.1 1.4.1"/><path fill="#52391e" d="M179.7 94.1s-.5-.3-1.1-.8c-.3-.2-.7-.5-1.1-.9-.4-.3-.7-.7-.9-1.1-.1-.2-.2-.4-.2-.6s0-.4.2-.6c.2-.4.6-.7.9-.9s.6-.4.8-.6c.2-.1.3-.2.3-.2s-.1 0-.4.1c-.2.1-.6.2-.9.4-.4.2-.8.5-1.2 1-.2.2-.3.6-.3.9s.1.7.2.9c.3.6.7 1 1.1 1.3s.9.6 1.2.7c.8.3 1.4.4 1.4.4M181.7 79.2s-.6-.2-1.4-.6c-.4-.2-.9-.4-1.4-.6-.5-.3-1-.5-1.4-.9-.2-.2-.3-.4-.2-.6 0-.2.2-.4.4-.6.4-.3.9-.6 1.3-.8s.7-.4 1-.5l.4-.2s-.6.1-1.5.4c-.2.1-.5.2-.7.3-.3.1-.5.2-.8.5-.2.2-.5.4-.6.9-.1.4.1.9.4 1.1.5.5 1.1.8 1.7 1s1.1.4 1.5.5c.7 0 1.3.1 1.3.1M173.7 84.9s-.5-.2-1.3-.4c-.4-.1-.8-.3-1.3-.5-.4-.2-.9-.4-1.2-.8-.3-.3-.2-.7.1-1.1s.6-.7.9-1 .6-.5.8-.6.3-.2.3-.2-.5.2-1.3.6c-.2.1-.4.2-.6.4-.2.1-.4.3-.6.5s-.4.5-.4.8c-.1.4.1.8.3 1 .4.5 1 .7 1.5.9s1 .3 1.4.3c.8.2 1.4.1 1.4.1M171.7 80.1s-.5-.2-1.3-.4c-.4-.1-.8-.3-1.3-.5-.4-.2-1-.4-1.2-.8-.3-.3-.2-.7 0-1.1.1-.2.3-.4.4-.5.2-.2.3-.3.5-.4.3-.3.6-.5.8-.6.2-.2.3-.2.3-.2s-.5.2-1.3.6c-.2.1-.4.2-.6.4-.2.1-.4.3-.6.5s-.4.5-.4.9c-.1.4.1.7.3 1 .5.5 1 .7 1.5.9s1 .2 1.4.3c1 0 1.5-.1 1.5-.1M176.7 64.9s-.2-.1-.5-.2q-.45-.15-1.2-.6c-.5-.3-1-.6-1.5-1s-1-1-1.2-1.6q-.15-.45 0-.9c.1-.3.3-.5.5-.7.5-.4 1.1-.7 1.6-.9s1-.3 1.3-.4.5-.1.5-.1-.8 0-1.9.2c-.6.1-1.2.3-1.8.8-.3.2-.6.5-.8.9s-.2.9 0 1.3c.3.8.9 1.4 1.5 1.8s1.2.7 1.7.9c1.1.5 1.8.5 1.8.5"/><path fill="#52391e" d="M179.6 59.5s-.7-.3-1.7-.7c-.5-.2-1.1-.5-1.7-.8s-1.3-.6-1.7-1.1c-.2-.2-.3-.5-.2-.7q.15-.3.6-.6c.5-.4 1.1-.6 1.6-.8s.9-.4 1.2-.5.5-.2.5-.2-.7 0-1.8.3c-.5.1-1.2.3-1.8.7-.3.2-.7.4-.9.9-.1.2-.1.5 0 .8.1.2.2.4.4.6.6.6 1.3.9 1.9 1.2q1.05.45 1.8.6c1 .3 1.8.3 1.8.3M167.5 48.1l-1.6-.8-1.5-.9c-.5-.4-1.1-.7-1.5-1.2-.2-.2-.3-.5-.2-.7s.3-.4.5-.6.5-.3.8-.4.5-.2.8-.3c.5-.2.9-.3 1.2-.4s.5-.2.5-.2-.7 0-1.8.2c-.3.1-.6.1-.9.2s-.6.2-.9.4-.7.4-.8.9c-.2.5.1 1 .3 1.3.5.6 1.1 1 1.7 1.3s1.2.6 1.7.7c1 .3 1.7.5 1.7.5M160.5 58.5s-.5-.3-1.2-.8c-.4-.3-.8-.5-1.2-.9-.4-.3-.8-.7-1.1-1.1-.1-.2-.2-.4-.2-.6s.1-.3.3-.5q.6-.45 1.2-.6c.4-.1.7-.3 1-.3.2-.1.4-.1.4-.1h-.4c-.3 0-.6 0-1.1.1-.4.1-1 .2-1.5.5-.2.2-.5.5-.6.9s.1.8.3 1c.4.5.9.9 1.3 1.2.5.3.9.6 1.3.7.9.4 1.5.5 1.5.5M153.1 35.5s-2.2-.5-5.5-1.4c-1.7-.4-3.6-1-5.6-1.6q-1.5-.45-3-1.2c-.5-.2-1-.5-1.5-.8-.4-.3-.9-.6-1.1-1 0-.1-.1-.2-.1-.3v-.1s0-.1 0 0l.1-.2c.1-.1.2-.3.5-.3q.75-.3 1.5-.3c1.1-.1 2.2 0 3.2.1 2.1.2 4.1.5 5.8.7 3.4.6 5.6 1 5.6 1s-2.2-.7-5.5-1.4c-1.7-.3-3.6-.7-5.8-.9-1.1-.1-2.2-.2-3.3-.1q-.9 0-1.8.3c-.3.1-.6.3-.8.7l-.1.2v.2c0 .2.1.4.1.6.3.6.9 1 1.3 1.3.5.3 1 .6 1.5.8 1 .5 2.1.8 3.1 1.1 2 .6 4 1.1 5.7 1.5 3.4.8 5.7 1.1 5.7 1.1M147.3 34.6s-.6-.1-1.6-.4c-1-.2-2.5-.5-4.2-.7-.9-.1-1.8-.2-2.9-.3-1-.1-2.1-.1-3.2 0s-2.3.2-3.4.9c-.3.2-.5.5-.6.8l-.1.3v.5c0 .1 0 .2.1.3.3.7.8 1.1 1.3 1.4 1.1.6 2.2 1 3.3 1.4l3.3.9c2.2.5 4.2.8 6 1 3.5.5 5.9.6 5.9.6s-2.3-.3-5.8-1c-1.7-.3-3.8-.7-5.9-1.2-1.1-.3-2.2-.5-3.3-.9s-2.2-.8-3.2-1.3c-.5-.3-.9-.7-1.1-1.1s0-.9.5-1.2c.8-.6 2-.8 3.1-.9 2.2-.2 4.3 0 6 .1 1.8.2 3.2.3 4.3.5.9.2 1.5.3 1.5.3M147.5 53.2H146c-1 0-2.3-.1-4-.2-1.6-.1-3.6-.4-5.6-.8q-1.5-.3-3-.9c-.9-.4-1.9-1-2.2-2-.1-.3.2-.7.7-.9s1-.3 1.5-.5c1-.2 2.1-.3 3.1-.3q3.15-.15 5.7 0c3.3.1 5.5.2 5.5.2s-2.2-.4-5.5-.6c-1.7-.1-3.6-.2-5.7-.2-1 0-2.1.1-3.2.3-.5.1-1.1.2-1.7.5-.3.1-.6.3-.8.6-.3.3-.3.7-.2 1.1.2.6.6 1.1 1.1 1.4.5.4 1 .6 1.5.8 1 .4 2.1.7 3.1.9 2.1.4 4 .5 5.7.6s3.1 0 4 0c.9.1 1.5 0 1.5 0"/><path fill="#52391e" d="M136 29.1s-.6-.1-1.7-.4c-1.1-.2-2.6-.6-4.4-1.1s-3.9-1.1-6.1-1.9c-1.1-.4-2.2-.9-3.2-1.6-1-.6-2-1.6-1.6-2.7v-.2l.1-.2.2-.2c.2-.1.5-.2.8-.3.6-.1 1.2-.2 1.8-.2 1.2 0 2.4.2 3.6.3 2.3.4 4.5.8 6.3 1.3 3.7.9 6.1 1.6 6.1 1.6s-2.4-.9-6-2c-1.8-.5-4-1.1-6.3-1.5-1.2-.2-2.4-.4-3.7-.4-.6 0-1.3 0-1.9.2-.3.1-.7.2-1 .4-.2.1-.3.3-.4.4l-.1.2v.3c-.2.7 0 1.5.4 2s.9 1 1.5 1.3c1.1.7 2.2 1.2 3.3 1.6 2.2.8 4.4 1.3 6.2 1.8 1.8.4 3.4.7 4.5.8 1 .4 1.6.5 1.6.5M159.3 68.8s-2 .4-5 .8l-2.4.3c-.9.1-1.8.2-2.7.2s-1.9.1-2.9 0-2-.2-2.7-.8c-.7-.5.3-1.3 1.1-1.8s1.7-.9 2.6-1.2c1.8-.6 3.5-1 5-1.3s2.8-.4 3.6-.5c.9-.1 1.4-.1 1.4-.1h-1.4c-.9 0-2.2.1-3.7.3s-3.3.5-5.1 1.1c-.9.3-1.9.7-2.8 1.2-.4.3-.9.5-1.3 1-.2.2-.4.5-.4.9s.2.7.5.9c.1.1.3.2.4.3l.3.2.8.3c.5.1 1 .2 1.5.2 1 .1 2 0 3 0 1-.1 1.9-.2 2.8-.3s1.7-.3 2.4-.4c3-.7 5-1.3 5-1.3"/><path fill="#e0ab38" d="M221.9 180.6c.8 5.1 5.6 14.3 7.9 14.3s6.8-2.1 7.9-.2-7.1 3-7.1 3 7.5 2.1 7.9 4.3c.4 2.3-12.4-2.4-12.4-2.4s3.2 6.8 1.3 7.5c-1.9.8-4.3-2.3-5.8-6.9s-6.2-16.3-6.2-16.3z"/><path fill="#b3872a" d="M235.6 199.5s-.5-.3-1.3-.7-1.8-.9-2.9-1.2c-1.1-.4-2.2-.7-3.1-.9s-1.5-.2-1.5-.2.6.2 1.4.5 1.9.7 3 1.1 2.2.7 3 1c.9.3 1.4.4 1.4.4M227.9 205.1s0-.5-.1-1.2-.3-1.6-.6-2.5-.8-1.7-1.2-2.3q-.3-.45-.6-.6c-.2-.1-.3-.2-.3-.2s.1.1.2.3.2.4.4.7c.3.6.6 1.4.9 2.3.3.8.6 1.7.9 2.3.2.8.4 1.2.4 1.2M237.7 194.7s.1-.1 0-.4c-.1-.2-.5-.4-.9-.5-.8-.2-1.9-.2-2.9 0-1 .1-2.1.4-2.8.6s-1.2.5-1.2.5.5 0 1.3-.1 1.8-.2 2.8-.3c.5-.1 1-.1 1.5-.2.5 0 .9-.1 1.3-.1s.7.1.8.2.1.3.1.3"/><path fill="#3b342d" d="M237.5 201c1.8.3 2.3 2.9 2.3 2.9s-1.3-1.9-2.8-1.9c.1 0-.5-1.1.5-1M226.9 206c1.5 1.1.8 3.6.8 3.6s-.3-2.3-1.6-3c0 .1 0-1.2.8-.6M237.3 194.6c1.8-.3 3.1 2 3.1 2s-1.8-1.4-3.2-1c0 0-.9-.9.1-1"/><path fill="#694929" d="M193 134.1c.2-8.5 4.3-14.1 6.5-16.8s7.3-2.8 9.7-2.4c9.7 1.5 11 34.3 12.1 45.2.3 3 1.7 18.1 3.4 22.1s3.9 7 3.9 7c-1.2 0-2.2-.4-2.2-.4.1.8.9 2.1.9 2.1-2.4-.4-3.2-3.5-3.2-3.5-.2 1.6.5 5.5.5 5.5-1.6-1.1-2.5-4.2-2.5-4.2.8 4-1.9 6.1-1.9 6.1.6-1.6-.9-4.8-.9-4.8.4 2.9-1.1 6-1.1 6-1.6-.6-1.5-3.1-1.5-3.1-.2 1.2-.5 3.6-.5 3.6-1.1-2-.7-4.7-.6-5.1 0 1.7-2.4 3.5-2.4 3.5s1.8-1.4-.4-9.1c-1.1-3.7-3.8-8.8-6.8-16.2-4.4-11.1-8.9-23.5-9.4-32.5-.8 1.4-1.6 3.1-1.6 3.1-1.9-4.4.9-10 .9-10-1.5 1.2-2.9 3.9-2.9 3.9"/><path fill="#423118" d="m195.8 130.2-.3.3c-.2.2-.4.6-.6 1s-.4 1-.5 1.6-.2 1.3-.3 1.9v1.9c.1.6.2 1.2.3 1.7s.2.9.3 1.1c.1.3.1.4.1.4v-.4c0-.3-.1-.7-.1-1.2s-.1-1-.1-1.6v-1.8c.1-1.3.3-2.5.5-3.4.4-.9.7-1.5.7-1.5M193 134.1s.1-.8.3-1.9.5-2.6.9-4.1c.2-.7.4-1.5.6-2.1.2-.7.4-1.3.7-1.8.2-.5.4-1 .5-1.3s.2-.5.2-.5-.1.2-.3.4c-.2.3-.5.7-.7 1.2-.3.5-.6 1.1-.8 1.8-.3.7-.5 1.4-.7 2.2s-.4 1.5-.5 2.2-.2 1.4-.2 2c-.1 1.1 0 1.9 0 1.9"/><g fill="#423118"><path d="m213.1 195 .3-.6c.2-.4.4-1.1.5-1.9.1-.9.1-1.9-.1-3.1s-.6-2.5-1.1-3.9c-2.1-5.5-5.2-12.7-8-20.1-1.4-3.7-2.8-7.3-3.9-10.8-1.2-3.5-2.2-6.8-2.8-9.6-.3-1.4-.6-2.7-.8-3.9s-.3-2.2-.4-3.1-.1-1.5-.1-2v-.7 2.7c.1 1.7.4 4.2 1 7.1s1.5 6.2 2.7 9.7c1.1 3.5 2.5 7.2 3.9 10.9s2.9 7.3 4.4 10.7c1.4 3.4 2.8 6.5 3.9 9.3.5 1.4 1 2.6 1.2 3.8s.3 2.2.2 3.1-.2 1.5-.4 1.9c-.4.3-.5.5-.5.5M228.6 189.2s-.6-.7-1.4-2.1-1.9-3.4-2.7-6.1c-.4-1.3-.6-2.8-.8-4.4s-.4-3.2-.6-5c-.4-3.4-.8-7.1-1.2-10.8s-.9-7.4-1.3-10.8-.8-6.7-1.2-9.4q-.6-4.2-.9-6.6c-.2-1.6-.4-2.5-.4-2.5s.1.9.3 2.5.4 3.9.7 6.7.6 6 1 9.4q.6 5.25 1.2 10.8c.5 3.7.9 7.4 1.3 10.8.2 1.7.5 3.4.7 5 .3 1.6.5 3.1.9 4.4.8 2.7 2.1 4.7 3 6 .8 1.4 1.4 2.1 1.4 2.1"/></g><path fill="#423118" d="M227.2 190.9s-.3-.2-.7-.4c-.4-.3-.8-.7-1.2-1.1-.2-.2-.4-.5-.5-.7-.2-.2-.3-.4-.4-.6s-.2-.4-.3-.5-.1-.2-.1-.2 0 .3.1.8c.1.2.2.5.3.8s.3.6.5.8.5.5.7.6c.3.2.5.3.8.4.5.2.8.1.8.1M224.4 192.9s-.1-.3-.4-.7c-.2-.4-.6-.9-.9-1.4s-.7-1-.9-1.4c-.1-.2-.2-.4-.2-.5s-.1-.2-.1-.2 0 .1-.1.2v.6c.1.5.3 1.1.7 1.6s.8 1 1.2 1.3c.5.4.7.5.7.5M220.1 194.8s.2-.3.3-.8.1-1.1-.1-1.7c-.1-.6-.4-1.2-.6-1.6s-.5-.6-.5-.6v.2c0 .1.1.3.1.6.1.5.2 1 .3 1.6s.2 1.2.3 1.6c.2.4.2.7.2.7M218.1 196.1s-.1-.2-.2-.5-.3-.7-.5-1c-.2-.4-.3-.8-.5-1.1-.1-.2-.1-.3-.2-.4 0-.1-.1-.1-.1-.1s-.1.2-.1.6.1.8.3 1.3c.2.4.5.8.8 1 .2.1.5.2.5.2M216.1 196.6s-.1-.3-.2-.8-.2-1.1-.2-1.7c-.1-.6-.1-1.3-.1-1.7 0-.2 0-.5-.1-.6v-.2s-.1.3-.3.8c-.1.5-.2 1.2-.1 1.8.1.7.3 1.3.5 1.8.2.3.5.6.5.6"/><path fill="#704e2c" d="M190.4 75s-6.9 8.9-12.6 8.9c0 0 2.6 2.9 6.9 2 0 0-6.6 2.3-9.2 10.9 0 0-27.5 6.1-43 3.1s-35-2.5-45.5 10.5 1 37.5 25 35 23 12.7 47 12c50-1.5 56.3-21.2 56.3-21.2 7.1-1.4 8.6-8.9 8.6-8.9 11.4-3.1 8-21.2 8-21.2 1.4 2.6 2 6.3 2 6.3 5.1-7.7-.9-16.3-.9-16.3 2.9 1.4 4.3 5.4 4.3 5.4-1.1-13.7-6-15.2-6-15.2-12.3-8.5-30.5-12.2-40.9-11.3"/><path fill="#423118" d="M225.1 120.6s-.2 1.2-.6 3c-.2.9-.5 1.9-.8 3-.4 1.1-.8 2.2-1.4 3.3-.5 1.1-1.2 2.1-1.9 3l-1.2 1.2-1.2.9c-.4.2-.8.4-1.1.6s-.7.2-.9.3c-.5.1-.8.2-.8.2s.3 0 .9-.1c.3-.1.6-.1 1-.2.2-.1.4-.1.6-.2l.6-.3c.8-.4 1.8-1.1 2.6-2s1.5-1.9 2.1-3.1c.6-1.1 1-2.3 1.3-3.4s.5-2.2.7-3.1c.2-1.9.1-3.1.1-3.1M177.8 83.8s.7 0 1.8-.1c.5-.1 1.1-.2 1.8-.5.6-.2 1.3-.5 1.9-.9s1.2-.8 1.7-1.2c.3-.2.5-.5.7-.7s.4-.4.6-.7c.3-.4.5-.8.7-1.1.1-.3.2-.4.2-.4s-.1.1-.3.4c-.2.2-.5.6-.9.9l-.6.6c-.2.2-.5.4-.7.6-.3.2-.5.4-.8.6s-.6.4-.9.5c-.6.4-1.2.6-1.8.9-.6.2-1.2.5-1.7.6-1 .4-1.7.5-1.7.5M184.7 85.8s-.3.1-.8.2c-.5.2-1.2.5-2 1-.4.3-.8.5-1.2.9-.2.2-.4.3-.6.5l-.6.6c-.4.4-.8.9-1.1 1.3-.3.5-.7 1-1 1.5s-.6 1.1-.8 1.6c-.2.6-.5 1.1-.7 1.6s-.3 1.1-.5 1.6c-.1.5-.2 1-.3 1.4s-.2.9-.2 1.2c0 .4-.1.7-.1.9 0 .5-.1.8-.1.8s.1-.3.2-.8.2-1.3.5-2.1c.1-.4.3-.9.4-1.4l.6-1.5c.2-.5.4-1 .7-1.6.2-.5.6-1 .8-1.6l.9-1.5c.4-.4.7-.9 1.1-1.3.2-.2.4-.4.5-.6.2-.2.4-.4.6-.5.4-.4.7-.6 1.1-.9q1.05-.75 1.8-1.2c.5.1.8-.1.8-.1"/><path fill="#423118" d="M175.5 96.7s-3.7.7-9.2 1.6c-2.8.5-6 .9-9.5 1.3s-7.2.8-10.9.8c-1.9 0-3.7 0-5.6-.2-1.8-.2-3.6-.3-5.4-.5-3.5-.4-6.8-.8-9.6-1s-5.2-.3-6.8-.3h-2.6s.9 0 2.6.1c1.6.1 4 .2 6.8.5s6 .8 9.5 1.2c1.7.2 3.6.4 5.4.6s3.7.3 5.6.3c3.8-.1 7.5-.4 11-.9s6.7-1 9.5-1.5 5.1-1 6.7-1.4 2.5-.6 2.5-.6M209.8 143.2s-.3.3-.9.7c-.6.5-1.5 1.1-2.7 1.9-2.4 1.6-6.1 3.5-10.7 5.2s-10.2 3.1-16.3 4.1c-3 .5-6.2.9-9.4 1.2s-6.5.6-9.8.7-6.5 0-9.7-.5q-4.8-.75-9-2.7c-1.4-.7-2.7-1.4-3.9-2.2s-2.4-1.7-3.7-2.4c-2.5-1.4-5-2.3-7.4-2.9-4.8-1.2-9-1.3-11.8-1.3-2.9.1-4.5.4-4.5.4s1.6-.2 4.5-.3c2.9 0 7 .2 11.7 1.5 2.4.7 4.9 1.6 7.3 3q1.8 1.05 3.6 2.4c1.2.8 2.6 1.6 4 2.3 2.8 1.4 5.9 2.3 9.1 2.8s6.5.7 9.8.5c3.3-.1 6.6-.5 9.8-.7 3.2-.3 6.4-.7 9.4-1.2 6.1-1 11.7-2.6 16.3-4.3s8.2-3.8 10.6-5.4c1.2-.8 2.1-1.5 2.7-2 .7-.6 1-.8 1-.8M223.8 127.3s.4 0 1-.3c.3-.1.7-.3 1.1-.5s.9-.5 1.4-.9c.2-.2.5-.4.7-.6l.7-.7c.2-.2.5-.5.7-.8l.6-.9c.4-.6.8-1.3 1-2 .1-.4.3-.7.4-1.1l.3-1.1c.2-.8.3-1.5.4-2.3s.2-1.5.2-2.2.1-1.4 0-2.1c0-.7-.1-1.3-.1-1.9s-.1-1.1-.2-1.6-.1-.9-.2-1.2c-.1-.7-.2-1-.2-1v1.1c0 .3 0 .7.1 1.2 0 .5.1 1 .1 1.6v1.9c0 .7-.1 1.3-.1 2.1 0 .7-.1 1.5-.2 2.2s-.2 1.5-.5 2.2l-.3 1.1c-.1.4-.3.7-.4 1-.2.7-.6 1.3-.9 2l-.6.9c-.2.3-.4.6-.6.8s-.4.5-.6.7l-.6.6c-.2.2-.4.3-.6.5s-.4.3-.6.4c-.4.3-.8.4-1.1.6-.5.2-.9.3-.9.3M233.8 112.4s.7-.8 1.3-2.4c.2-.4.3-.8.4-1.3s.3-.9.3-1.4c.1-.5.1-1 .1-1.6v-1.6c-.1-.5-.1-1.1-.2-1.6s-.2-1-.4-1.5-.3-.9-.5-1.4c-.2-.4-.4-.8-.5-1.2-.3-.7-.7-1.3-1-1.7s-.4-.6-.4-.6.1.2.3.7c.2.4.5 1 .8 1.8.1.4.3.8.4 1.2s.2.9.4 1.4l.3 1.5c.1.5.1 1 .2 1.6 0 .5.1 1 .1 1.6 0 .5 0 1-.1 1.5-.1 1-.3 1.9-.5 2.7-.4 1.4-1 2.3-1 2.3M237.3 101.6s0-1.1-.1-2.6c-.1-.8-.2-1.7-.4-2.7s-.4-2-.7-3c-.2-.5-.3-1-.5-1.5s-.4-1-.6-1.4c-.1-.2-.2-.5-.3-.7s-.3-.4-.4-.6c-.2-.4-.5-.7-.8-1-.2-.3-.5-.6-.8-.8-.2-.2-.5-.4-.7-.5l-.6-.3s.2.2.6.4q.3.15.6.6c.2.2.5.5.7.8s.5.7.7 1.1.4.8.6 1.3c.2.4.4.9.6 1.4s.3 1 .5 1.5c.3 1 .6 2 .8 3s.4 1.8.6 2.6c0 1.3.2 2.4.2 2.4"/><path fill="#ebdfd4" d="M226.7 49.3s-3.5-11.8-13.5-15.6c0 0-.1 4.8 1.7 7 0 0-2.3-2.7-2.7-3.7.1 0-.1 13.2 14.5 12.3"/><path fill="#b5987c" d="M223.2 49.4s-.3-.1-.8-.2-1.1-.4-1.9-.7c-.4-.2-.8-.3-1.2-.6-.4-.2-.9-.5-1.3-.7-.4-.3-.9-.6-1.3-.9-.4-.4-.8-.7-1.2-1.1s-.7-.8-1-1.3c-.4-.4-.5-.9-.8-1.4-.2-.5-.4-.9-.6-1.4-.2-.4-.3-.9-.4-1.3s-.2-.8-.2-1.1-.1-.6-.1-.9c-.1-.5-.1-.8-.1-.8v1.7c0 .4.1.7.1 1.2.1.4.1.9.3 1.4s.3 1 .5 1.5c.3.5.4 1 .8 1.5.3.5.6 1 1.1 1.4.4.4.8.8 1.3 1.2.4.4.9.7 1.4 1s.9.5 1.4.7.9.4 1.3.5c.8.3 1.5.4 2 .5.4-.2.7-.2.7-.2"/><path fill="#b5987c" d="M215 40.8s-.2-.4-.4-1.1c-.2-.6-.5-1.5-.7-2.4s-.4-1.8-.5-2.4c-.1-.3-.1-.6-.1-.8v-.3s0 .1-.1.3c0 .2-.1.5-.1.8v1.2c0 .4.1.9.2 1.4.2.9.6 1.8 1 2.4.4.5.7.9.7.9M226.7 49.3s-.3-1.1-1-2.6c-.3-.7-.7-1.6-1.2-2.5s-1.1-1.8-1.7-2.8c-.6-.9-1.3-1.8-2-2.6-.4-.4-.7-.7-1-1.1-.4-.3-.7-.6-1-.9s-.6-.5-.9-.7-.5-.3-.7-.4c-.4-.2-.7-.4-.7-.4s.2.2.6.5c.2.1.4.3.7.5.2.2.5.5.8.7l.9.9c.3.4.6.7 1 1.1.6.8 1.3 1.6 1.9 2.6.6.9 1.2 1.8 1.7 2.7s1 1.7 1.4 2.4.7 1.3.9 1.7z"/><path fill="#ebdfd4" d="M191.4 88.7c.3-1.6 3.4-5 3.4-5-4.4 2.8-11.3-.6-11.3-.6 1.9 0 6.6-4.7 6.6-4.7-4.4 1.9-9.4-.3-9.4-.3 3.4 0 6.6-3.1 6.6-3.1-3.8 2.5-8.4-.6-8.4-.6s5.9-1.6 8.4-9.7 9.1-9.7 9.1-9.7c-1.6 0-4.4.3-4.4.3 5.9-8.1 11.9-5.9 11.9-5.9-2.2-.3-4.1-3.1-4.1-3.1s6.9.9 14.6-1.3c14.4-4.1 25.2 4.1 27 11.2 1.5 5.8 2.4 13.4-3.4 16.1s-9.4 6.4-7.6 9.1 3.6 5.8 1.8 11.9c0 0-.6-3.6-2.7-6.1 0 0 2.7 9.4-4 12.8 0 0-.3-3.6-1.5-6.7 0 0-.3 7.6-2.7 9.1 0 0-4.3-1.5-5.5-10.9 0 0 .3 7 1.2 9.4 0 0-8.2-3.3-8.8-11.9 0 0-1.2 4.9.6 8.5 0 0-7.9-2.4-7.9-11.2 0 0-1.2 5.5-3.6 7 0 0-.9-4.6 0-8.5-1.2 1.9-3.2 3.3-5.9 3.9"/><ellipse cx="16.4" cy="17.5" fill="#473322" rx="1.3" ry="2.3" transform="matrix(-1 0 0 1 243 43)"/><path fill="#b5987c" d="m233.7 57.3-.1.1-.3.3c-.1.1-.3.2-.5.3s-.4.2-.7.2c-.5.1-1.2.2-1.9.2s-1.4 0-2.2-.1c-.7 0-1.5-.1-2.2-.2s-1.4-.2-1.9-.2c-1.1-.2-1.9-.2-1.9-.2s.7.3 1.8.6c.6.1 1.2.3 1.9.4s1.5.2 2.2.3h2.2c.4 0 .7-.1 1-.1l.9-.3c.6-.2 1-.5 1.2-.8.5-.3.5-.5.5-.5M192 55.3s.5-.7 1.4-1.6c.5-.5 1-1 1.7-1.4.7-.5 1.4-1 2.1-1.3.4-.2.8-.4 1.2-.5.4-.2.8-.3 1.2-.4s.8-.2 1.1-.3c.4-.1.7-.1 1-.2.3 0 .6-.1.9-.1h1.3s-.2 0-.6-.1c-.2 0-.4 0-.7-.1h-.9c-.3 0-.7 0-1.1.1s-.8.1-1.2.2-.8.2-1.2.4-.8.3-1.2.5-.8.4-1.2.7c-.4.2-.7.5-1 .8-.6.5-1.2 1.1-1.6 1.6s-.7 1-.9 1.3c-.2.2-.3.4-.3.4M199.8 46.2s.7.1 1.8.2c1.2.1 2.9.3 4.9.3 1 0 2.1-.1 3.3-.2.6-.1 1.2-.2 1.8-.4l1.8-.6c1.2-.4 2.4-.7 3.7-.9.6-.1 1.3-.2 2-.3s1.3-.1 2-.2c1.3-.1 2.7 0 4 .1.7 0 1.3.2 1.9.3s1.2.3 1.8.4c.6.2 1.2.3 1.7.6.6.2 1.1.4 1.6.7s1 .5 1.5.8c.5.2.9.6 1.3.9s.8.5 1.2.8c.3.3.7.6 1 .9s.6.5.9.8c.2.3.5.5.7.7.8.9 1.2 1.4 1.2 1.4s-.4-.5-1.2-1.4c-.2-.2-.4-.5-.6-.8-.3-.2-.5-.5-.8-.8l-.9-.9c-.3-.3-.8-.6-1.2-.9s-.8-.7-1.3-.9l-1.5-.9c-.5-.3-1.1-.5-1.6-.7-.6-.3-1.2-.4-1.8-.6s-1.2-.4-1.9-.5c-.6-.1-1.3-.3-2-.3-1.3-.2-2.7-.2-4.1-.1-.7 0-1.4.1-2 .2-.7.1-1.3.2-2 .3-1.3.3-2.6.6-3.8 1-.6.2-1.2.5-1.7.6-.6.2-1.1.3-1.7.4-1.1.2-2.2.3-3.2.3-2 .1-3.7 0-4.9 0-1.2-.3-1.9-.3-1.9-.3M178.9 74.3s.4-.1 1.1-.4 1.7-.8 2.7-1.6 2.1-1.9 2.9-3.3c.4-.7.7-1.4 1.1-2.2.3-.8.7-1.5 1-2.3s.7-1.5 1-2.3l1.2-2.1c.2-.3.5-.6.7-.9s.5-.6.7-.8c.5-.5 1-1 1.5-1.4s1-.7 1.4-1c.5-.2.8-.5 1.2-.6.6-.3 1-.4 1-.4s-.4.1-1.1.3c-.4.1-.8.3-1.2.5q-.75.3-1.5.9c-.5.4-1.1.8-1.6 1.3-.3.3-.5.6-.8.8-.2.3-.5.6-.7.9-.5.7-.9 1.4-1.3 2.1s-.8 1.5-1.1 2.3-.7 1.6-1 2.3-.6 1.5-1 2.2c-.7 1.4-1.7 2.5-2.6 3.3s-1.8 1.4-2.5 1.7c-.7.6-1.1.7-1.1.7M225.6 100s.2 0 .6-.2.9-.5 1.4-.9c.3-.2.5-.5.8-.8s.5-.7.7-1l.6-1.2c.2-.4.3-.9.4-1.3l.1-.7.1-.7c.1-.5.1-.9.1-1.3s0-.8-.1-1.2-.1-.8-.1-1.1c-.1-.7-.3-1.2-.4-1.6s-.2-.6-.2-.6v.6c0 .4.1 1 .1 1.6v2.3c0 .4 0 .8-.1 1.3l-.1.7-.1.6c-.1.4-.2.9-.3 1.3s-.3.8-.5 1.2c-.2.3-.4.7-.6 1s-.4.6-.7.8c-.2.2-.4.5-.6.6-.2.2-.4.3-.6.4-.3.1-.5.2-.5.2M232.2 93.3s.4-.7.8-1.8c.2-.6.3-1.3.3-2v-1.2c0-.4-.1-.8-.1-1.2l-.3-1.2c-.1-.4-.3-.7-.4-1.1-.2-.3-.3-.7-.5-1-.1-.3-.3-.6-.5-.8-.3-.5-.6-.9-.8-1.2s-.3-.4-.3-.4.1.2.2.5c.2.3.4.7.6 1.3.1.3.3.5.4.9.1.3.2.6.4 1 .1.3.2.7.3 1.1s.2.7.2 1.1.1.8.1 1.1c0 .4.1.7.1 1.1 0 .7 0 1.4-.1 2-.1 1-.4 1.8-.4 1.8M221.3 102.4s.2 0 .4-.2.5-.4.8-.8.5-.9.7-1.4.4-1.1.5-1.7c.2-.7.3-1.3.3-1.9.1-.6.1-1.1.1-1.6 0-.9-.1-1.5-.1-1.5s-.1.6-.3 1.5-.4 2.1-.6 3.3c-.1.6-.3 1.2-.4 1.7-.2.5-.3 1-.5 1.4s-.4.7-.5.9c-.3.2-.4.3-.4.3M217 100.9s-.9-.5-2-1.3c-.3-.2-.6-.4-.9-.7s-.6-.6-1-.8c-.7-.6-1.3-1.3-1.9-2.1-.3-.4-.6-.7-.8-1.1-.3-.4-.5-.8-.7-1.2s-.4-.8-.5-1.2c-.2-.4-.3-.7-.4-1.1-.1-.3-.2-.7-.3-.9-.1-.3-.1-.5-.2-.7-.1-.4-.1-.7-.1-.7v1.5c0 .3.1.6.2 1l.3 1.2c.1.4.3.8.5 1.2s.4.9.7 1.3c.2.4.5.8.8 1.2.6.8 1.3 1.5 2 2.1s1.4 1.1 2.1 1.4c1.3.6 2.2.9 2.2.9M208.8 97.5s-.2-.1-.6-.2c-.4-.2-.9-.4-1.5-.8l-.9-.6c-.3-.3-.6-.5-.9-.8-.2-.1-.3-.3-.5-.4-.1-.2-.3-.3-.4-.5-.3-.3-.5-.7-.8-1.1s-.5-.8-.7-1.1c-.2-.4-.4-.8-.5-1.2s-.3-.8-.4-1.2-.2-.7-.3-1.1c-.2-.7-.2-1.2-.3-1.6s-.1-.6-.1-.6v.6c0 .4 0 1 .1 1.7.1.3.1.7.2 1.1l.3 1.2c.2.4.3.8.5 1.3.2.4.4.8.7 1.2s.5.8.9 1.1c.3.4.6.7 1 1 .3.3.7.5 1 .8.4.2.7.4 1 .5.6.3 1.2.5 1.6.6s.6.1.6.1M197.3 93.3s0-.5-.1-1.3c0-.8-.1-1.9-.1-2.9v-2.9c0-.4.1-.7.1-1v-.4s-.3.5-.5 1.3-.4 1.9-.3 3c0 1.1.2 2.2.4 3 .3.7.5 1.2.5 1.2M191.4 88.7s.2-.3.6-.8c.3-.5.7-1.1 1.1-1.8.4-.6.8-1.3 1.1-1.7.2-.2.3-.4.4-.5l.2-.2s-.1 0-.3.1c-.1 0-.2.1-.3.1-.1.1-.2.1-.3.2-.5.4-1 1-1.4 1.7s-.7 1.4-.9 1.9c-.2.6-.2 1-.2 1M183.5 83.1s.5-.1 1.2-.3c.7-.3 1.7-.7 2.5-1.4.4-.3.8-.7 1.1-1s.6-.7.9-1c.5-.6.8-1 .8-1s-.4.3-1.1.7c-.3.2-.7.5-1 .8-.4.3-.7.6-1.1.9-.8.6-1.6 1.1-2.3 1.5-.5.5-1 .8-1 .8M180.7 78.1s.5.1 1.2 0 1.7-.2 2.5-.6c.4-.2.9-.4 1.2-.7.4-.3.7-.6.9-.8.2-.3.4-.5.5-.7s.2-.3.2-.3-.1.1-.3.2c-.1.1-.4.3-.7.5s-.6.4-1 .6l-1.2.6c-.8.4-1.7.7-2.3.9-.5.2-1 .3-1 .3"/><path fill="#ebdfd4" d="M218.8 51.5s-4.8-11.4-15.1-14c0 0 .4 4.8 2.5 6.8 0 0-2.6-2.4-3.1-3.4 0-.1 1.2 13.1 15.7 10.6"/><path fill="#b5987c" d="M215.3 52s-.3 0-.8-.1-1.2-.2-2-.5c-.4-.1-.8-.2-1.3-.4s-.9-.4-1.4-.6-.9-.5-1.4-.8c-.4-.3-.9-.6-1.3-1-.4-.3-.8-.8-1.2-1.2s-.6-.9-.9-1.3-.5-.9-.7-1.3-.3-.9-.5-1.3c-.1-.4-.3-.8-.4-1.1s-.1-.6-.2-.9c-.1-.5-.2-.8-.2-.8s0 .3.1.8c0 .2.1.6.1.9 0 .4.1.7.2 1.1s.2.9.4 1.3.4 1 .7 1.4.6 1 1 1.4.7.9 1.2 1.3c.4.4.9.7 1.4 1s1 .6 1.5.8 1 .4 1.5.5c.5.2.9.3 1.4.3.8.5 1.5.5 2 .5z"/><path fill="#b5987c" d="m206.2 44.3-.5-1c-.3-.6-.7-1.4-1-2.3-.3-.8-.6-1.7-.7-2.4-.1-.3-.2-.6-.2-.8s-.1-.3-.1-.3v.3c0 .2-.1.5 0 .9 0 .4 0 .8.1 1.2s.2.9.4 1.3c.3.9.8 1.7 1.3 2.3.3.5.7.8.7.8M218.8 51.5s-.4-1-1.2-2.4q-.6-1.05-1.5-2.4c-.6-.8-1.3-1.7-2-2.6-.7-.8-1.5-1.6-2.3-2.3-.4-.3-.8-.7-1.2-1s-.8-.5-1.1-.8c-.4-.2-.7-.4-1-.6s-.6-.3-.8-.4c-.4-.2-.7-.3-.7-.3s.2.1.6.4c.2.1.5.2.7.5l.9.6c.3.3.6.5 1 .8.3.3.7.7 1.1 1 .7.7 1.5 1.5 2.2 2.3s1.4 1.7 2 2.5 1.2 1.6 1.6 2.2c.5.7.9 1.2 1.1 1.6.5.7.6.9.6.9"/><path fill="#fbbf3f" d="M241.4 56.1c6.1 3.4 15.2 6.6 12.2 18.1 0 0-2.1-4.3-4.5-4.3s-12.5 2.1-17.1-.5 1.9-3.5 4.3-3.5 5.1-9.8 5.1-9.8"/><path fill="#b38637" d="M253.6 74.2s-.7-1.3-2-3.1c-.3-.4-.7-.9-1.2-1.4-.4-.5-.9-.9-1.5-1.4-.5-.4-1.2-.8-1.9-1.1s-1.6-.4-2.3-.3c-1.5.1-2.9.4-4.3.7-1.3.3-2.6.6-3.6.8-.5.1-1 .2-1.5.2-.4.1-.8.1-1.1.1s-.6 0-.7-.1h-.3s.3.2 1 .2c.3 0 .7.1 1.2.1.4 0 1 0 1.5-.1 1.1-.1 2.4-.3 3.7-.6 1.3-.2 2.8-.5 4.2-.6.8-.1 1.4 0 2 .2.6.3 1.2.6 1.7 1 1.1.8 2 1.7 2.7 2.5s1.3 1.5 1.7 2c.5.6.7.9.7.9M244.1 60.8s-.2-.1-.5 0c-.3 0-.7.1-1.1.3-.2.1-.4.3-.5.4-.1.2-.2.4-.3.5-.1.3 0 .5 0 .5l.1-.1c0-.1.1-.2.2-.3l.3-.3c.1-.1.3-.2.4-.3.3-.2.6-.3.9-.5.3-.1.5-.2.5-.2M254.3 71.7v-.9c0-.6 0-1.5-.1-2.5s-.3-2.2-.8-3.4c-.3-.6-.6-1.2-1-1.8s-.9-1.1-1.4-1.5c-1.1-.9-2.3-1.6-3.4-2.3s-2.2-1.2-3.1-1.7c-1.8-.9-3.1-1.5-3.1-1.5s1.2.7 2.9 1.8c.9.5 1.9 1.2 2.9 1.9 1.1.7 2.2 1.4 3.2 2.3 1 .8 1.8 1.9 2.4 3 .2.6.5 1.1.6 1.7.2.6.3 1.1.4 1.6.2 1 .3 1.8.4 2.4.1.5.1.9.1.9"/><path fill="#fbbf3f" d="M207.5 189.6c.8 5.1 5.6 14.3 7.9 14.3s6.8-2.1 7.9-.2-7.1 3-7.1 3 7.5 2.1 7.9 4.3c.4 2.3-12.4-2.4-12.4-2.4s3.2 6.8 1.3 7.5c-1.9.8-4.3-2.3-5.8-6.9s-6.2-16.3-6.2-16.3z"/><path fill="#c9982f" d="M221.2 208.5s-.5-.3-1.3-.7-1.8-.9-2.9-1.2c-1.1-.4-2.2-.7-3.1-.9s-1.5-.2-1.5-.2.6.2 1.4.5 1.9.7 3 1.1 2.2.7 3 1c.9.3 1.4.4 1.4.4M213.5 214.1s0-.5-.1-1.2-.3-1.6-.6-2.5-.8-1.7-1.2-2.3q-.3-.45-.6-.6c-.2-.1-.3-.2-.3-.2s.1.1.2.3.2.4.4.7c.3.6.6 1.4.9 2.3.3.8.6 1.7.9 2.3.2.8.4 1.2.4 1.2M223.3 203.7s.1-.1 0-.4c-.1-.2-.5-.4-.9-.5-.8-.2-1.9-.2-2.9 0-1 .1-2.1.4-2.8.6s-1.2.5-1.2.5.5 0 1.3-.1 1.8-.2 2.8-.3c.5-.1 1-.1 1.5-.2.5 0 .9-.1 1.3-.1s.7.1.8.2.1.3.1.3"/><path fill="#3b342d" d="M223.1 210c1.8.3 2.3 2.9 2.3 2.9s-1.3-1.9-2.8-1.9c.1-.1-.5-1.1.5-1M212.5 215c1.5 1.1.8 3.6.8 3.6s-.3-2.3-1.6-3c0 .1 0-1.2.8-.6M222.9 203.5c1.8-.3 3.1 2 3.1 2s-1.8-1.4-3.2-1c0 .1-.9-.8.1-1"/><path fill="#704e2c" d="M178.6 143.1c.2-8.5 4.3-14.1 6.5-16.8s7.3-2.8 9.7-2.4c9.7 1.5 11 34.3 12.1 45.2.3 3 1.7 18.1 3.4 22.1s3.9 7 3.9 7c-1.2 0-2.2-.4-2.2-.4.1.8.9 2.1.9 2.1-2.4-.4-3.2-3.5-3.2-3.5-.2 1.6.5 5.5.5 5.5-1.6-1.1-2.5-4.2-2.5-4.2.8 4-1.9 6.1-1.9 6.1.6-1.6-.9-4.8-.9-4.8.4 2.9-1.1 6-1.1 6-1.6-.6-1.5-3.1-1.5-3.1-.2 1.2-.5 3.6-.5 3.6-1.1-2-.7-4.7-.6-5.1 0 1.7-2.4 3.5-2.4 3.5s1.8-1.4-.4-9.1c-1.1-3.7-3.8-8.8-6.8-16.2-4.4-11.1-8.9-23.5-9.4-32.5-.8 1.4-1.6 3.1-1.6 3.1-1.9-4.4.9-10 .9-10-1.5 1.2-2.9 3.9-2.9 3.9"/><path fill="#423118" d="m181.4 139.2-.3.3c-.2.2-.4.6-.6 1s-.4 1-.5 1.6-.2 1.3-.3 1.9v1.9c.1.6.2 1.2.3 1.7s.2.9.3 1.1c.1.3.1.4.1.4v-.4c0-.3-.1-.7-.1-1.2s-.1-1-.1-1.6v-1.8c.1-1.3.3-2.5.5-3.4.4-.9.7-1.5.7-1.5M178.6 143.1s.1-.8.3-1.9.5-2.6.9-4.1c.2-.7.4-1.5.6-2.1.2-.7.4-1.3.7-1.8.2-.5.4-1 .5-1.3s.2-.5.2-.5-.1.2-.3.4c-.2.3-.5.7-.7 1.2-.3.5-.6 1.1-.8 1.8-.3.7-.5 1.4-.7 2.2s-.4 1.5-.5 2.2-.2 1.4-.2 2c-.1 1.1 0 1.9 0 1.9"/><g fill="#423118"><path d="M198.7 204s.2-.2.3-.6c.2-.4.4-1.1.4-1.9.2-1.7-.1-4.2-1.1-7-2-5.6-5.1-12.8-7.9-20.1-1.4-3.6-2.8-7.3-4-10.8s-2.2-6.8-2.9-9.6c-.3-1.4-.6-2.7-.8-3.9s-.4-2.2-.4-3.1c-.1-.9-.1-1.5-.1-2v-.7.7c0 .5 0 1.1.1 2 .1 1.7.4 4.2 1.1 7.1s1.5 6.2 2.7 9.7 2.5 7.2 3.9 10.9 2.9 7.3 4.4 10.7c1.4 3.4 2.8 6.5 3.8 9.3 1 2.7 1.5 5.2 1.4 6.9 0 .9-.2 1.5-.4 1.9-.4.3-.5.5-.5.5M214.2 198.2s-.6-.7-1.4-2.1-2-3.4-2.7-6.1c-.4-1.3-.5-2.8-.8-4.4-.2-1.6-.4-3.2-.6-5-.4-3.4-.8-7.1-1.2-10.8s-.9-7.4-1.3-10.8-.8-6.7-1.2-9.4q-.6-4.2-.9-6.6c-.2-1.6-.4-2.5-.4-2.5s.1.9.3 2.5.4 3.9.7 6.7.6 6 1 9.4q.6 5.25 1.2 10.8c.5 3.7.9 7.4 1.3 10.8.2 1.7.5 3.4.7 5 .3 1.6.5 3.1.9 4.4.8 2.7 2.1 4.7 3 6 .8 1.4 1.4 2.1 1.4 2.1"/></g><path fill="#423118" d="M212.8 199.9s-.3-.2-.7-.4c-.4-.3-.8-.7-1.2-1.1-.2-.2-.4-.5-.5-.7-.2-.2-.3-.4-.4-.6s-.2-.4-.3-.5-.1-.2-.1-.2 0 .3.1.8c.1.2.2.5.3.8s.3.6.5.8.5.5.7.6c.3.2.5.3.8.4.5.2.8.1.8.1M210 201.9s-.1-.3-.4-.7c-.2-.4-.6-.9-.9-1.4s-.7-1-.9-1.4c-.1-.2-.2-.4-.2-.5s-.1-.2-.1-.2 0 .1-.1.2v.6c.1.5.3 1.1.7 1.6s.8 1 1.2 1.3c.5.4.7.5.7.5M205.7 203.8s.2-.3.3-.8.1-1.1-.1-1.7c-.1-.6-.4-1.2-.6-1.6s-.5-.6-.5-.6v.2c0 .1.1.3.1.6.1.5.2 1 .3 1.6s.2 1.2.3 1.6c.2.4.2.7.2.7M203.7 205s-.1-.2-.2-.5-.3-.7-.5-1c-.2-.4-.3-.8-.5-1.1-.1-.2-.1-.3-.2-.4 0-.1-.1-.1-.1-.1s-.1.2-.1.6.1.8.3 1.3c.2.4.5.8.8 1 .2.2.5.2.5.2M201.7 205.5s-.1-.3-.2-.8-.2-1.1-.2-1.7c-.1-.6-.1-1.3-.1-1.7 0-.2 0-.5-.1-.6v-.2s-.1.3-.3.8c-.1.5-.2 1.2-.1 1.8.1.7.3 1.3.5 1.8.2.4.5.6.5.6"/><path fill="#704e2c" d="M91.5 106.5c-3.8-.8-16.7 18.1-21.5 28.7-5.8 12.9-24.8 28.9-55.5 11 0 0 8.3 13.7 30.4 11.8 21.5-1.9 26.9-10.8 33.8-23.1 3.7-6.6 6.4-12.2 10.2-16.3 3.8-4.2 7-11.3 2.6-12.1"/><path fill="#423118" d="M82.2 128.1s-.2.3-.5.8-.7 1.3-1.2 2.3c-1.1 2-2.6 4.9-4.7 8.1s-4.9 6.8-8.6 10c-1.8 1.6-3.9 3-6.1 4.2s-4.6 2.2-7.1 2.8c-2.5.7-5 1-7.6 1.2-2.5.2-5 .2-7.4.1s-4.7-.4-6.9-.8q-3.3-.6-6-1.8c-3.6-1.4-6.3-3.3-7.9-4.8-1.7-1.5-2.3-2.7-2.3-2.7s.6 1.2 2.3 2.7c1.6 1.6 4.3 3.6 7.9 5.1s8.1 2.6 13 2.8c2.4.1 5 .1 7.5-.1s5.2-.5 7.7-1.2c5.1-1.3 9.7-4 13.4-7.3 3.7-3.2 6.4-6.9 8.5-10.2s3.5-6.2 4.5-8.3l1.2-2.4c.1-.3.3-.5.3-.5"/><path fill="#423118" d="M88.1 108.3s-1.2.9-2.9 2.9-4 4.9-6.5 8.6-5.4 8.1-8.1 13c-.7 1.2-1.3 2.5-1.9 3.8s-1.4 2.5-2.3 3.7c-1.7 2.4-3.7 4.6-6 6.5s-4.8 3.5-7.4 4.7c-2.7 1.2-5.4 1.9-8.2 2.3-2.7.4-5.4.4-8 .2-2.5-.2-4.9-.7-7.1-1.3-2.1-.6-4.1-1.2-5.8-1.9-1.7-.6-3.1-1.3-4.3-1.9-1.2-.5-2.1-1.1-2.7-1.4l-1-.5s.3.2.9.5 1.5.9 2.7 1.4c1.2.6 2.6 1.3 4.3 2s3.6 1.4 5.8 2 4.5 1.2 7.1 1.4c2.6.3 5.3.3 8.1-.1s5.6-1.1 8.4-2.3c2.7-1.2 5.3-2.8 7.6-4.7 2.3-2 4.4-4.2 6.1-6.6.9-1.2 1.6-2.5 2.3-3.8.6-1.3 1.3-2.6 1.9-3.8 2.7-4.9 5.4-9.4 7.8-13.1 2.5-3.7 4.6-6.8 6.3-8.8 1.8-1.9 2.9-2.8 2.9-2.8"/><path fill="#bd8f33" d="M16.3 147.3c2.4-2.9 1.1-9.6-3.3-10.2 0 0 2 1.3 1.9 3.6 0 0-1.1-4.3-6.8-3.6-5.7.6-5.2-3.3-5.2-3.3s-2.7 4.1.6 8c0 0-2.8-2.4-3.3-3.9 0 0 .5 9.6 7.2 11 4.7 1 7.4.3 8.9-1.6"/><path fill="#704e2c" d="M14.7 148.6s-.3.1-.9.2c-.3.1-.6.1-1 .2s-.9.1-1.4.1H9.8c-.3 0-.6 0-.9-.1s-.6-.1-.9-.2-.6-.2-.9-.2c-.3-.1-.6-.2-.9-.4-.3-.1-.6-.3-.8-.5-.3-.2-.6-.3-.8-.6l-.7-.6-.6-.7-.3-.4-.2-.4c-.2-.3-.3-.5-.5-.8-.3-.5-.5-1.1-.7-1.6s-.3-1.1-.5-1.5c-.1-.5-.3-.9-.4-1.3s-.2-.7-.2-1c-.1-.6-.2-.9-.2-.9s0 .3.1.9c0 .3.1.7.1 1.1s.1.9.2 1.4.2 1 .4 1.6c.2.5.4 1.1.7 1.7.2.3.3.6.5.9l.2.4.3.4c.2.3.4.5.6.8l.8.7.9.6c.3.2.6.4.9.5s.6.3.9.4.6.2 1 .2c.3.1.6.1.9.1s.6.1.9 0c.6 0 1.1 0 1.6-.1s1-.2 1.4-.3.7-.2 1-.3q.45-.15.6-.3zM17.3 145.5s.1-.1.2-.4.3-.7.4-1.2.2-1.1.1-1.8c0-.3-.1-.7-.2-1s-.2-.7-.4-1-.3-.6-.6-.9c-.2-.3-.5-.5-.7-.7-.3-.2-.5-.4-.8-.5s-.5-.3-.7-.4c-.5-.2-.9-.3-1.2-.4s-.5-.1-.5-.1l.4.2c.1.1.3.1.5.2l.6.3c.2.1.4.3.6.4.2.2.4.4.7.6.2.2.4.4.6.7.2.2.3.5.5.8.6 1.1.7 2.4.6 3.4 0 .5-.1.9-.1 1.2z"/><path fill="#704e2c" d="m14.9 140.7-.3-.6c-.2-.4-.4-.9-.9-1.5-.4-.6-1.1-1.3-2-1.6s-1.9-.4-2.9-.4-1.9 0-2.8-.1-1.7-.2-2.2-.7c-.3-.2-.4-.5-.6-.7-.1-.3-.2-.5-.3-.7-.1-.4-.2-.6-.2-.6v.7c0 .2.1.5.2.8s.2.6.5.9c.5.6 1.5.9 2.4 1s1.9.1 2.8.1 1.9 0 2.7.3c.4.2.8.3 1.1.5s.6.5.8.8c.4.5.8 1 1 1.4.6.3.7.4.7.4M3.6 141.8s-.2-.3-.5-.8-.5-1.2-.7-1.9c-.1-.4-.1-.7-.2-1.1 0-.4-.1-.7-.1-1v-1s0 .1-.1.3-.2.4-.2.7c-.2.6-.2 1.4 0 2.2.1.4.2.8.4 1.1l.6.9c.4.5.8.6.8.6M137.6 106.2c-7-1-5.3-5.3-5.3-5.3-4.4 0-7.1-6.2-7.1-6.2-5.3-1.3-5.3-7.1-5.3-7.1-4.4-.9-6.2-5.3-6.2-5.3-5.3 1.3-9.3-4.4-9.3-4.4-4.4 0-6.2-5.3-6.2-5.3-7.6.4-9.8-7.6-9.8-7.6-20.9 2.7-8-4-8-4-23.1-3.1-4-8.4-4-8.4s-15.6 2.7-17.8-1.8c-2.2-4.4 13.8-6.2 13.8-6.2-35.6 4.9-47.6-1.3-40-2.2S68 38 68 38c-42.2.9-49.3-11.6-39.6-8.4 9.8 3.1 42.2 2.2 42.2 2.2-21.8.9-50.7-14.7-33.8-11.6s35.1 5.3 35.1 5.3c-24.4-6.7-27.6-18.2-9.8-10.2s55.6 8.9 78.2 13.3 19.6 40 19.6 40c6.2 10.2 4.9 28 13.3 33.3 0-.1-29 5.2-35.6 4.3"/><path fill="#423118" d="M173.2 101.8s-.1-.1-.3-.2c-.2-.2-.6-.4-.9-.7-.8-.6-1.7-1.7-2.6-3.2s-1.6-3.3-2.2-5.4c-.6-2-1.1-4.3-1.6-6.5s-1-4.5-1.5-6.6c-.3-1-.5-2.1-.8-3s-.6-1.8-.8-2.7c-.3-.8-.6-1.6-.8-2.2l-.8-1.6c-.3-.4-.5-.8-.7-.9l-.3-.3.3.3c.2.2.4.6.6 1 .2.5.5 1 .7 1.7s.5 1.4.7 2.2c.5 1.6 1 3.6 1.4 5.7.5 2.1 1 4.3 1.4 6.6.5 2.2 1 4.5 1.6 6.5.3 1 .7 2 1.1 2.9s.8 1.7 1.3 2.5c.5.7 1 1.4 1.4 1.9.5.5.9.9 1.4 1.2.4.3.7.5 1 .6s.4.2.4.2M158.9 72.2s0-.1.1-.4c.1-.2.2-.6.3-1.1.3-.9.6-2.3.8-4.1s.3-4 .2-6.5-.5-5.4-1.2-8.4c-.3-1.5-.8-3.1-1.2-4.7-.3-.8-.5-1.6-.8-2.4s-.6-1.6-1-2.5c-1.4-3.3-3.3-6.6-6.1-9.4-1.4-1.4-3-2.6-4.9-3.5-.9-.4-1.9-.8-3-.9l-3-.3c-4-.4-8.1-.9-12.2-1.4-16.4-1.9-32.8-4.2-45-6.4-6.1-1.1-11.1-2.2-14.6-3.2-1.7-.5-3.1-1-4-1.3-.9-.4-1.3-.6-1.3-.6s.5.2 1.3.6c.9.4 2.2.9 4 1.4 3.5 1 8.5 2.2 14.6 3.4 12.2 2.3 28.5 4.7 44.9 6.7 4.1.5 8.2 1 12.2 1.4l3 .3c.9.1 1.9.4 2.8.8 1.8.8 3.3 2 4.7 3.4 2.7 2.7 4.6 6 6 9.2.3.8.6 1.6 1 2.4.3.8.5 1.6.8 2.4.5 1.6.9 3.1 1.2 4.6.7 3 1.1 5.8 1.3 8.3s.1 4.7-.1 6.5-.4 3.2-.6 4.1c-.1.5-.2.8-.2 1.1zM71.9 25.4s-1.5-.6-3.7-1.5c-1.1-.5-2.4-1-3.8-1.6s-2.8-1.2-4.3-1.9c-1.4-.7-2.9-1.4-4.2-2.1s-2.5-1.5-3.4-2.2-1.6-1.5-1.7-2.2c-.1-.3 0-.6.1-.8s.2-.2.2-.2l-.2.2c-.1.1-.3.4-.2.8 0 .4.2.8.5 1.2s.6.8 1.1 1.2c.9.8 2 1.7 3.3 2.4 1.3.8 2.7 1.5 4.2 2.2s2.9 1.3 4.3 1.8c1.4.6 2.7 1 3.9 1.4 2.3.9 3.9 1.3 3.9 1.3M68.1 31.6s-2.4 0-6-.4c-.9-.1-1.8-.2-2.9-.4-1-.1-2.1-.4-3.2-.6s-2.2-.4-3.4-.8c-.6-.1-1.1-.3-1.7-.4l-1.7-.5c-1.2-.3-2.3-.7-3.4-1.1s-2.2-.8-3.2-1.2l-3-1.2c-.9-.4-1.8-.8-2.6-1.2s-1.6-.7-2.2-1.1-1.2-.7-1.6-1c-.9-.6-1.3-.9-1.3-.9s.4.4 1.3 1c.4.3 1 .7 1.6 1q.9.6 2.1 1.2c.8.4 1.6.9 2.6 1.3.9.4 1.9.9 2.9 1.3s2.1.9 3.2 1.2c1.1.4 2.2.8 3.4 1.1 1.1.4 2.3.7 3.5.9 1.1.3 2.3.5 3.4.7s2.2.4 3.2.5 2 .2 2.9.3c3.7.5 6.1.3 6.1.3M67.9 37.8s-.7 0-1.9-.1-3-.2-5.1-.3-4.6-.3-7.2-.5-5.4-.5-8.2-.8-5.6-.7-8.2-1.2c-1.3-.2-2.5-.5-3.7-.8q-1.8-.45-3.3-.9c-.5-.2-1-.4-1.4-.5-.4-.2-.9-.4-1.2-.5-.4-.2-.7-.4-1-.6s-.6-.4-.8-.6c-.5-.4-.8-.7-1-1 .2.3.5.6 1 1.1.2.2.5.4.8.6s.7.4 1 .6l1.2.6c.4.2.9.4 1.4.6 2 .7 4.4 1.4 7 1.9s5.4.9 8.2 1.3c2.8.3 5.6.5 8.3.7 2.6.2 5.1.2 7.2.3s3.9 0 5.1 0c1.1.1 1.8.1 1.8.1M70.1 44.7s-2.5.2-6.2.5c-1.9.1-4.1.3-6.4.4s-4.8.2-7.3.3-5 .1-7.3 0-4.5-.2-6.4-.5c-.5-.1-.9-.1-1.3-.2s-.8-.1-1.2-.2c-.7-.1-1.4-.3-1.9-.5s-.9-.3-1.2-.5c-.3-.1-.4-.2-.4-.2s.1.1.4.2c.3.2.6.3 1.1.6.5.2 1.1.4 1.9.6.7.2 1.6.4 2.5.5.9.2 1.9.3 3 .4s2.2.2 3.4.3c2.3.1 4.9.1 7.4.1 2.5-.1 5-.2 7.3-.4s4.5-.4 6.4-.6c3.7-.4 6.2-.8 6.2-.8M76.3 52.5s-1.1.1-2.8.3c-.8.1-1.8.1-2.9.2s-2.2.1-3.3.1-2.2 0-3.3-.1c-.5-.1-1-.1-1.5-.2s-.9-.2-1.3-.3-.8-.3-1.1-.4c-.3-.2-.6-.3-.8-.4s-.4-.3-.5-.3c-.1-.1-.2-.1-.2-.1s.2.2.5.6c.2.2.4.3.7.5s.7.4 1.1.5c.8.3 1.8.6 2.9.7s2.2.2 3.4.2c1.1 0 2.3-.1 3.3-.2 1.1-.1 2-.3 2.9-.4 1.8-.4 2.9-.7 2.9-.7M80.3 60.9s-.7-.2-1.9-.4c-1.1-.2-2.6-.5-4.1-.9-.4-.1-.7-.2-1.1-.3-.3-.1-.7-.2-1-.3s-.7-.2-.9-.3c-.3-.1-.6-.2-.8-.4-.2-.1-.5-.2-.7-.4-.2-.1-.4-.2-.5-.4l-.4-.4s.1.2.3.5c.1.2.2.3.4.5s.4.3.6.5c.5.3 1.1.7 1.8.9.7.3 1.4.5 2.2.7.7.2 1.5.3 2.2.4s1.4.2 2 .2c1.1.1 1.9.1 1.9.1M88.3 64.9s-.8.1-1.9.2-2.7.3-4.2.3c-1.5.1-3 .1-4.1-.1-.5-.1-1-.2-1.3-.4s-.4-.4-.4-.4 0 .2.3.5c.2.2.7.5 1.3.7 1.1.4 2.7.4 4.3.3 1.5-.1 3.1-.4 4.2-.6s1.8-.5 1.8-.5M98.1 72.5s-.7 0-1.7-.3c-.5-.1-1.1-.3-1.7-.5q-.9-.3-1.8-.9c-.3-.2-.6-.4-.8-.6-.3-.2-.5-.4-.7-.6s-.4-.4-.6-.7c-.2-.2-.4-.4-.5-.6-.2-.2-.3-.4-.4-.6s-.2-.3-.3-.5c-.2-.2-.3-.4-.3-.4s.1.2.2.5q.15.45.6 1.2c.1.2.3.5.5.7s.4.5.6.8c.2.2.5.5.8.7s.6.5.9.6c.6.4 1.3.7 1.9.9s1.3.3 1.8.4 1 0 1.3 0c0-.1.2-.1.2-.1M104.3 77.8s-.4-.1-1-.3c-.5-.2-1.2-.5-1.9-1-.2-.1-.3-.2-.5-.3-.1-.1-.3-.2-.4-.3-.3-.2-.5-.5-.8-.7l-.5-.5-.2-.2s0 .1.1.3.2.4.4.7c.3.5.9 1.2 1.6 1.6.3.2.7.4 1.1.6.4.1.7.2 1 .3.7-.1 1.1-.2 1.1-.2M113.6 82.2s-.6.1-1.4 0c-.4 0-.9-.1-1.4-.2s-1-.2-1.5-.4c-.3-.1-.5-.2-.7-.3s-.5-.2-.7-.4c-.2-.1-.4-.3-.6-.4s-.4-.3-.5-.4c-.3-.2-.6-.5-.8-.6-.2-.2-.3-.2-.3-.2s.1.1.2.3.3.5.6.8c.1.2.3.3.5.5s.4.3.6.5c.2.1.5.3.7.4.3.1.5.3.8.4.5.2 1.1.3 1.7.4h1.5c.8-.1 1.3-.4 1.3-.4M119.9 87.6s-.3-.2-.9-.5c-.5-.3-1.2-.7-1.8-1.1-.7-.4-1.3-.9-1.7-1.2-.2-.2-.4-.3-.5-.5l-.2-.2s0 .1.1.3.2.4.4.6c.4.5 1 1.1 1.6 1.5.7.4 1.5.7 2 .9s1 .2 1 .2M125.2 94.7s-.5-.1-1.1-.3c-.3-.1-.6-.3-1-.6-.3-.3-.7-.6-.9-.9-.3-.3-.6-.7-.8-1.1-.1-.2-.2-.3-.3-.5s-.2-.3-.3-.5c-.2-.3-.3-.6-.4-.7-.1-.2-.2-.3-.2-.3s0 .1.1.3.1.5.2.8.2.7.5 1.1c.2.4.5.8.8 1.2.2.2.3.4.5.5.2.2.4.3.6.4.4.2.8.4 1.2.5.6.2 1.1.1 1.1.1M132.3 100.9s-.5-.1-1.1-.4c-.7-.3-1.5-.8-2.2-1.4-.4-.3-.7-.6-1.1-.9l-.9-.9-.6-.6-.2-.2s0 .1.1.3.2.5.4.8.5.7.8 1c.3.4.7.7 1.1 1s.8.6 1.3.8c.4.2.9.3 1.2.4.7.2 1.2.1 1.2.1M137.6 106.2s-.4-.1-1-.3-1.3-.5-2-.8c-.2-.1-.3-.2-.5-.3-.1-.1-.3-.2-.5-.3-.1-.1-.3-.2-.4-.3l-.3-.3c-.2-.2-.4-.4-.5-.6l-.2-.2s0 .4.3 1c.1.2.2.3.3.4.1.2.2.3.4.4.3.3.7.5 1 .7.8.4 1.6.6 2.2.6.8.1 1.2 0 1.2 0"/><path fill="#52391e" d="M157.4 99.4s-.5-.1-1.4-.3c-.4-.1-.9-.2-1.4-.3s-1-.3-1.4-.6-.6-.6-.5-1l.3-.6c.1-.2.2-.4.4-.5.3-.3.5-.6.7-.8l.3-.3s-.1.1-.3.2-.5.3-.8.6c-.2.1-.3.3-.5.5s-.3.4-.4.7-.1.7 0 1 .4.6.7.7c.5.3 1.1.5 1.6.6s1 .1 1.5.1c.7.1 1.2 0 1.2 0M152.4 96.8s-.5-.2-1.2-.7c-.4-.2-.8-.5-1.2-.7-.2-.2-.4-.3-.6-.5l-.3-.3-.2-.3c-.1-.1-.1-.2-.2-.3l-.1-.2v-.2c0-.2 0-.4.1-.7l.3-.6c.1-.2.3-.3.4-.5.2-.3.5-.5.7-.7l.3-.3s-.1.1-.3.2-.6.3-.9.6c-.2.1-.4.3-.5.5s-.3.4-.5.7c-.1.3-.2.6-.2.9v.2l.1.2c.1.1.1.3.2.4l.3.4.3.3c.2.2.5.3.7.5.5.3.9.5 1.3.6.9.5 1.5.5 1.5.5M152.2 80.7s-.6-.1-1.5-.4c-.5-.1-1-.3-1.5-.4-.5-.2-1.1-.4-1.5-.8q-.3-.3-.3-.6c0-.2.1-.4.3-.7.3-.4.8-.8 1.1-1.1.4-.3.7-.5.9-.7l.3-.3s-.6.2-1.5.6c-.2.1-.4.2-.7.4-.2.2-.5.3-.7.6-.2.2-.4.5-.5 1-.1.4.2.9.5 1.1.6.5 1.2.7 1.8.8s1.1.2 1.6.3c1.1.3 1.7.2 1.7.2M145.1 88.1s-.6-.1-1.4-.2c-.4-.1-.9-.2-1.4-.3s-1-.3-1.3-.7c-.3-.3-.2-.8 0-1.2s.5-.8.8-1.1.5-.6.7-.8l.3-.3s-.5.3-1.2.8c-.3.3-.7.6-1 1.1q-.3.3-.3.9c0 .3.1.7.3 1 .5.5 1.1.7 1.7.8.5.1 1.1.1 1.5.1.8 0 1.3-.1 1.3-.1M142.5 83.3s-.6-.1-1.4-.2c-.4-.1-.9-.1-1.4-.3-.5-.1-1-.3-1.3-.6s-.3-.7-.1-1.2c.2-.4.5-.8.8-1.1s.5-.6.7-.8l.3-.3s-.5.3-1.2.8c-.2.1-.3.3-.5.5s-.3.4-.5.7c-.1.2-.3.6-.3.9 0 .4.1.7.4 1 .2.3.5.4.8.5s.6.2.8.2c.5.1 1.1.1 1.5.1.8 0 1.4-.2 1.4-.2M145.1 66.5s-.2 0-.5-.1-.8-.2-1.3-.4c-.3-.1-.5-.2-.8-.4-.3-.1-.6-.3-.9-.5s-.6-.4-.8-.7c-.1-.1-.2-.3-.3-.4l-.2-.2-.1-.2-.1-.2v-.7c0-.2.1-.3.2-.4s.1-.3.3-.4c.1-.1.2-.2.3-.4.1-.1.3-.2.4-.3.2-.2.5-.4.7-.5s.5-.3.7-.4.4-.2.5-.3c.3-.2.5-.2.5-.2s-.2 0-.5.1-.8.2-1.3.4c-.3.1-.6.2-.8.4-.1.1-.3.2-.4.3l-.4.4c-.1.1-.3.3-.4.5s-.2.4-.2.6-.1.4 0 .7l.1.3c0 .1.1.2.1.3l.1.3.2.2c.1.2.3.3.4.5.3.3.6.5.9.7s.6.3 1 .5l.9.3c.3.1.6.1.8.1h.6c.1.1.3.1.3.1"/><path fill="#52391e" d="M147.1 60.3s-.7-.2-1.8-.4c-.5-.1-1.2-.3-1.8-.5s-1.4-.5-1.8-.9c-.2-.2-.4-.4-.3-.7.1-.2.3-.5.5-.7.5-.5 1-.8 1.5-1.1s.9-.5 1.2-.7.4-.3.4-.3-.7.2-1.8.6c-.5.2-1.1.5-1.7 1-.3.2-.6.5-.7 1s.1 1 .5 1.3c.7.5 1.4.8 2.1 1s1.4.3 1.9.3c1.1.1 1.8.1 1.8.1M133.5 50.2s-.7-.2-1.7-.6c-.5-.2-1.1-.4-1.7-.7s-1.2-.6-1.7-1.1c-.2-.2-.3-.5-.3-.7s.2-.5.4-.7.5-.4.7-.6.5-.3.7-.4c.5-.3.9-.5 1.1-.6.3-.1.4-.2.4-.2s-.7.1-1.7.5c-.3.1-.5.2-.8.4q-.45.15-.9.6c-.3.2-.6.5-.7 1s.1 1 .4 1.2c.6.6 1.3.9 1.9 1.2s1.3.4 1.8.5c1.3.1 2.1.2 2.1.2M128.1 62.3s-.5-.3-1.3-.7c-.4-.2-.8-.5-1.3-.7-.4-.3-.9-.6-1.3-1q-.3-.3-.3-.6c0-.2.1-.4.2-.6.3-.4.8-.6 1.1-.9.4-.2.7-.4.9-.5l.4-.2s-.1 0-.4.1-.6.1-1.1.3c-.4.1-.9.4-1.4.8-.2.2-.4.6-.4 1s.2.7.4 1c.4.5 1 .8 1.5 1.1s1 .5 1.4.6c1 .2 1.6.3 1.6.3M117.3 39.2s-2.3-.1-5.7-.5c-1.7-.2-3.7-.5-5.8-.8-1-.2-2.1-.4-3.2-.7-.5-.2-1.1-.4-1.5-.6-.5-.2-1-.5-1.2-.9-.5-.9.8-1.4 1.8-1.7 1.1-.3 2.2-.4 3.2-.5 2.1-.1 4.1-.2 5.8-.1 3.4 0 5.7.2 5.7.2s-2.3-.3-5.7-.5c-1.7-.1-3.7-.2-5.9-.1-1.1.1-2.2.2-3.3.4-.6.1-1.1.3-1.7.7-.3.2-.5.5-.7.8v.5c0 .2.1.4.2.5.4.6 1 .9 1.5 1.2.5.2 1.1.4 1.6.6 1.1.3 2.2.5 3.3.7 2.1.4 4.1.5 5.8.6 3.5.2 5.8.2 5.8.2M111.5 39.2s-.6-.1-1.6-.1-2.5-.1-4.3-.1c-.9 0-1.9.1-2.9.2s-2.1.2-3.2.5-2.3.6-3.2 1.6c-.1.1-.2.3-.3.4-.1.2-.2.3-.2.5v.6c0 .1 0 .3.1.5.3.7.9 1 1.5 1.3 1.1.5 2.3.7 3.5.9s2.3.3 3.4.4c2.2.2 4.3.2 6.1.1 3.6-.1 6-.3 6-.3s-2.4 0-5.9-.1c-1.8 0-3.9-.2-6.1-.3-1.1-.1-2.2-.2-3.4-.4-1.1-.2-2.3-.5-3.3-.9-.5-.2-1-.6-1.2-.9l-.1-.1v-.3c0 .1 0 0 0 0v-.2c0-.1.1-.2.1-.3.1-.1.1-.2.2-.3.7-.8 1.9-1.1 2.9-1.4 2.1-.5 4.2-.7 6-.8s3.3-.2 4.3-.2c1-.3 1.6-.3 1.6-.3M114.5 58.8s-.6.1-1.5.2c-1 .1-2.3.3-4 .4s-3.6.2-5.7.1c-1-.1-2.1-.2-3.1-.5s-2-.8-2.4-1.7c-.1-.3.1-.7.5-1s.9-.5 1.4-.7c1-.4 2-.6 3.1-.9 2-.4 4-.7 5.6-.9 3.3-.4 5.5-.6 5.5-.6s-2.2 0-5.6.3c-1.7.2-3.6.3-5.7.7-1 .2-2.1.5-3.2.8-.5.2-1.1.4-1.5.8-.2.2-.5.4-.6.7-.2.3-.2.7-.1 1.1.2.6.7 1 1.2 1.3s1.1.5 1.6.7c1.1.3 2.2.4 3.2.5 2.1.1 4.1-.1 5.7-.3 1.7-.2 3-.5 4-.6 1-.2 1.6-.4 1.6-.4"/><path fill="#52391e" d="M99.5 35.2s-.6 0-1.7-.1-2.7-.2-4.6-.4-4.1-.5-6.4-1.1c-1.1-.3-2.3-.6-3.4-1.2-1.1-.5-2.1-1.4-2-2.5v-.2l.1-.2c0-.2.1-.2.2-.3.2-.2.4-.3.7-.5.5-.3 1.1-.4 1.7-.5 1.2-.2 2.4-.2 3.6-.2 2.4 0 4.6.2 6.5.4 3.8.4 6.3.8 6.3.8s-2.5-.6-6.3-1.1c-1.9-.2-4.1-.5-6.5-.6-1.2 0-2.4 0-3.7.2-.6.1-1.3.2-1.9.5q-.45.15-.9.6c-.1.2-.3.4-.3.5l-.1.2v.3c-.1.7.2 1.5.7 2s1 .9 1.6 1.1c1.2.6 2.4.9 3.5 1.2 2.3.5 4.6.7 6.5.9 1.9.1 3.5.2 4.6.2zM128.5 73.3s-1.9.8-4.9 1.7a46 46 0 0 1-5.1 1.4c-.9.2-1.9.4-2.9.4s-2 0-2.8-.5c-.3-.2-.3-.6-.1-1s.6-.7.9-1.1c.7-.6 1.6-1.2 2.4-1.6 1.7-.9 3.3-1.7 4.8-2.2 1.4-.5 2.7-.9 3.5-1.1.9-.2 1.4-.4 1.4-.4s-.5.1-1.4.2c-.9.2-2.2.4-3.6.9-1.5.5-3.2 1.1-4.9 2-.9.5-1.7 1-2.5 1.7-.4.3-.8.7-1.1 1.2-.1.3-.3.6-.3.9 0 .4.2.7.5.9.2.2.6.3.8.4.3.1.5.1.8.2s.5 0 .8 0h.8c1-.1 2-.3 3-.5s1.9-.5 2.7-.8 1.6-.6 2.4-.8c2.9-.9 4.8-1.9 4.8-1.9"/><path fill="#704e2c" d="M129.3 132.9c-4.3 17.3-18.6 35.8-30.9 43.6s-16.7 27-16.7 27 5.5 6.6 4.4 8.8c-2.5 4.9-13.2 2-16.1-1.9s-2-39.2 3.9-43.6 11.8-5.9 10.3-17.2-3-36.3 7.6-39.7c10.5-3.5 43.9-3 37.5 23"/><path fill="#423118" d="M126.7 140.3s-.5 1.2-1.4 3.1c-.9 2-2.4 4.7-4.2 7.9-1.9 3.2-4.2 6.9-7 10.5-1.4 1.8-2.9 3.7-4.6 5.4-.9.9-1.7 1.7-2.7 2.5-.9.8-2 1.5-3 2.2-2 1.5-4 3-5.9 4.5-1.9 1.6-3.7 3.1-5.4 4.8-1.6 1.7-3.1 3.4-4.2 5.2s-2.1 3.6-2.8 5.3q-1.05 2.55-1.8 4.8c-.5 1.4-.8 2.7-1.1 3.7-.6 2.1-.9 3.3-.9 3.3s.4-1.2 1-3.3c.3-1 .7-2.3 1.2-3.7s1.1-3 1.9-4.7c.7-1.7 1.7-3.5 2.9-5.2q1.8-2.7 4.2-5.1c1.6-1.7 3.5-3.2 5.3-4.7 1.9-1.5 3.9-3 5.9-4.4 1-.7 2-1.4 3-2.2s1.9-1.6 2.7-2.5c1.7-1.8 3.2-3.6 4.7-5.5 2.8-3.7 5.1-7.4 6.9-10.7 1.8-3.2 3.1-6.1 4-8 .9-2 1.3-3.2 1.3-3.2M82.9 210s.1.3.3.6c.2.4.4.9.7 1.3.3.5.5.9.7 1.3.1.2.2.3.2.5 0 .1.1.2.1.2s.1-.3.1-.7-.2-1-.4-1.5q-.45-.75-.9-1.2c-.5-.4-.8-.5-.8-.5M79.1 211.4s.1.2.2.6c.1.3.3.7.5 1.2.2.4.4.8.5 1.1.1.2.1.3.2.4 0 .1.1.2.1.2s.1-.2.1-.6-.1-.9-.3-1.3-.5-.8-.8-1.1zM70 177.9v-.6c0-.4.1-1 .2-1.7.3-1.4.8-3.5 1.9-5.7.6-1.1 1.3-2.2 2.3-3.2.3-.2.5-.5.8-.7l.9-.6c.6-.3 1.3-.7 2-1 1.4-.8 2.8-1.8 3.9-3 1.1-1.3 1.9-2.9 2.3-4.5.4-1.7.5-3.4.4-5-.1-1.7-.4-3.3-.6-4.8-.4-3.1-.6-6-.7-8.5s-.2-4.6-.3-6v-2.3s0 .8-.1 2.3c0 1.5-.1 3.5 0 6.1.1 2.5.2 5.4.5 8.6.1 1.6.5 3.2.5 4.8.1 1.6 0 3.3-.4 4.8-.4 1.6-1.1 3.1-2.1 4.3s-2.3 2.2-3.6 2.9c-.7.4-1.4.7-2.1 1.1-.3.2-.6.4-.9.7-.3.2-.6.5-.8.8-1 1-1.8 2.2-2.3 3.4-.6 1.1-.9 2.2-1.2 3.2s-.4 1.9-.5 2.6-.1 1.3-.2 1.7c.1.1.1.3.1.3M78.9 170.3s-.4.2-.9.6-1.1 1.1-1.5 1.9l-.3.6c-.1.2-.1.4-.2.6s-.1.4-.1.6v.5c0 .3 0 .6.1.8v.3s0-.1.1-.3c0-.2.1-.4.2-.7s.2-.6.3-1 .3-.7.5-1.1c.4-.7.8-1.4 1.2-1.9.3-.5.6-.9.6-.9"/></g></svg>