<svg xmlns="http://www.w3.org/2000/svg" width="82" height="95.34" viewBox="-0.25 0.298 82 95.34"><path d="M61.65 36.8c-1.8-4.5-4.3-3.5-6-6.9-2.1-4.2-3.6-8.7-4.3-13.4h-23.3c-.2 3.5-1.9 6.9-5.7 10.6-9.7 9.5-6.1 21.7-7.3 23.2.1.6 8.3 5.2 8.7 5.6l36.2-6.8c1.3-.3 3.5-7.8 1.7-12.3"/><path fill="#be8264" d="M27.85 22.9c.7-5-1.1-12.4 3-16.1 3.9-3.5 8.9-4.5 13.2-2.3 4.1 2.1 6.3 2.8 6.5 12.4.1 3.4-1.7 8.9-5.1 10.6-6.2 3.1-15.8.3-17.6-4.6"/><path d="M28.25 13.3s11-1.8 14.5-8.3c0 0-7.7-5.1-11.6-.2-3.9 4.8-2.9 8.5-2.9 8.5"/><path fill="#a06446" d="M37.55 21c-.6-6.3.9-5 2.2-4.9.7 1.3.8 2.9.6 4.9-.2.1-.4.4-.6.4-.7-.1-1.5-.3-2.2-.4"/><path d="M33.75 15.5c.8-.1 1.6.3 1.8.8.2.4.4.9.3 1.3-.1.3-.3.5-.7.7-.5.1-1 .2-1.5.2-.9-.8-.9-2.1.1-3M45.05 15.3c.5 0 1.1.4 1.3.8l-.1 1.9h-1.9c-.6 0-.8-1.3-.6-2 .2-.5.9-.7 1.3-.7M40.25 23.3l.3 1.9c-.1.3-.2.6-.3.6-.8.2-1.7.3-2.5.4-.1-.1-.2-.2-.3-.4-.1-.3-.2-.8-.2-1.3s.1-1 .2-1.3h2.8z"/><path fill="#f01446" d="M49.85 5.8c-3.7-4.3-10.3-6.3-16.5-4.1-4.5 1.6-7.6 6-8 14.6-.3 8.6 5.8 12.3 8.6 13.4 3.5 1.4 7.9 1.3 11.4 0 2.9-1.1 5.2-4.2 6.2-7.1.6-2.5.8-5.1.7-7.7-.1-4.3-1-7.6-2.4-9.1m-5.7 19.5c-4.9 2.5-12.5.8-14.1-4.7s-.9-9.7 2.4-12.7c3.1-2.8 7.1-3 10.5-1.2 3.3 1.7 5.1 2.3 5.3 10 .1 2.8-1.4 7.2-4.1 8.6"/><g fill="#f0e6d2"><path d="M35.55 27.4c.1-3.2.1-8.1.1-8.1h-3l.3 8.1zM46.55 27.4c.1-3.2.1-8.1.1-8.1h-3l.3 8.1zM46.55 13.7c.1-3.2.1-8.2.1-8.2h-3l.3 8.1h2.6zM35.55 13.7c.1-3.2.1-8.2.1-8.2h-3l.3 8.1h2.6z"/><path d="M44.55 7.7c-3.8 0-7.5 0-11.3.1v2.8c3.7.1 7.5.1 11.3.1zM25.25 13.55h28.599V11.5H25.25zM25.25 19.7h28.599v-2.05H25.25z"/><path d="M25.25 19.7H27v-8.2h-1.75zM52.1 19.7h1.75v-8.2H52.1z"/></g><path fill="#be0a3c" d="M66.15 51.6c-.6.8-11.9 1.3-13.1.8-.4-1 .9-11.8.9-13.7.1.1 4.5 1.5 7.9 5 2.6 2.7 4.3 7.6 4.3 7.9M22.55 39.6s-7 7.2-10.2 12.2l6.5 4.9z"/><path fill="#f01446" d="M54.85 39.1c-2.2-1.4-8.1-3.5-8.9-3.6 0 .3-16.8-.5-19.2.7-1.6.8-3.1 1.9-4.2 3.3-.4.6-4.8 13-4.8 13s-.4 4.3 0 4.6l20 9.5 23.1-6.6c-.2-.8-6-20.6-6-20.9"/><path fill="#6e1e3c" d="M50.45 36.1c-3.3-2.4-8.1-3.6-12.7-3.6-4.5.1-8.9 1.3-11.9 4-.1.9-4.2 26.8-4.2 27.6l35.4.3c-.1-.5-4.3-25.9-6.6-28.3"/><path fill="#be8264" d="M65.25 53.2c-.1 0-17.4-5.3-17.7-5.3-.2 1-3.1 11.7-3.1 11.7l16 1.4c.3-1.1 5.4-7.6 4.8-7.8M13.95 53.2c.1 0 17-4 17.3-4 .2.9 3.5 10.4 3.5 10.4l-16 1.4c-.3-1.1-5.4-7.6-4.8-7.8"/><path fill="#008264" d="m73.45 55.6-2.5-11.7c-2.6-.5-6.5 3-8.4 4.5-1.5 1.2-8.7 6.2-14.4 10.1-2.8 1.9-9.9 2.5-12.8 1.4-7.5-2.8-9.4-5.7-11-7.5-7.8-8.7-15.4-7.7-15.4-7.7l-2.2 22.4s4.4 12.8 32.5 12.8 30.3-11.2 31.7-12.6c3.2-3.1-.4-8.2 2.5-11.7"/><path fill="#824600" d="M40.75 43c-.1-.4-4.9-2.4-5.1-3-.7.7-3.2 2.1-3.8 2.8-.3.4-.6.8-.9 1.1l-.6.7c-.5.7-.9 1.5-1.3 2.4-.8 1.7-1.2 3.4-1.2 5.3-.1 1.5.3 3 .7 4.5l.3.9c.1.1.1.3.2.4.3.8.6 1.5.9 2.3l2.5 2.5 7.8-8s.7-11.3.5-11.9"/><path fill="#642800" d="M38.35 44.5c-1.4 1.1-3.4 4.4-4 6-.8 2-.5 4.1.2 6.1.2.2 1.2 2.8 1.4 3 .2 0 6.2 1.4 6.2 1.4l4.3-14.2z"/><path fill="#a0640a" d="M34.65 41.2c.2-.5.6-.9 1-1.2 5.3-1.3 11.7.3 14.5 5 2.5 4.2 3.7 8.6 1.4 13-3.9 7.5-13.3 7.8-18.8 5.5-1-1.2-1.4-1.9-1.5-2.8.5-1.3 1.6-2.4 2.9-2.9.3.1 2.2-.1 2.2-.1 3.6-.2 7.3-1.9 6.6-6.5-.6-4.4-8-5.6-8.3-10"/><path fill="#00a08c" d="M8.95 44.7c-.3.2-2.8.3-5.1 4.3s-2.9 8-1.7 17l12.3-.5s-5.4-20.3-5.5-20.8"/><path fill="#f01446" d="M17.05 79.2c-.7-2.5-1.3-5-1.9-7.6-.2-.8-.9-2.6-1.3-4.2H2.35c.9 4.4 1.8 8.6 3.6 12.8 1.1 2.5 2.2 5 3.5 7.4 1 1.9 3.1 4.3 3.6 6.4-.3 0-2.8.2-2.8.2l-.1.7s9.4.7 10.5-.3c-.1-.9-.4-1.7-.5-2.6-.9-4.3-1.9-8.6-3.1-12.8"/><path fill="#6e1e3c" d="m18.45 79.7-.5-3H3.25l.5 3zM17.35 75.6l-.5-3H2.15l.5 3zM1.55 70.9l14.8-.4-1.4-6.2H.25z"/><path fill="#00a08c" d="M80.55 54.5c-.8-5.5-3.9-9.6-9.5-10.6-1.2 4.7-5.9 22-6.2 25.8l14.4-1.1c.9-4.5 2-9.6 1.3-14.1"/><path fill="#f01446" d="m65.05 66.1-.3.6c-2.3 9.5-4.6 19-7.7 28.2 2 0 3.3.2 4.9 0 1-.1 2.3 0 3.5-.2 0-.3.1-.5.1-.8h-2.4c1-2 3.6-3.8 5-5.7 1.8-2.5 3.6-5 5.3-7.6 2.9-4.4 4.7-9.4 6.1-14.6z"/><path fill="#6e1e3c" d="m60.25 79.7.6-3h16.7l-.5 3zM61.45 75.6l.6-3h16.7l-.5 3zM79.85 70.9l-16.7-.4 1.6-6.2h16.5z"/></svg>