<svg xmlns="http://www.w3.org/2000/svg" width="68.244" height="71.63" viewBox="-0.5 -0.5 68.244 71.63"><path fill="#0cc" d="m66.979 42.26-.03.3c-.64 5.02-2.87 9.67-6.63 13.82-.04.05-.09.1-.14.15-2.76 2.93-6.44 5.51-11.25 7.88-7.44 3.65-14.43 5.59-20.82 5.78-1 .06-2.59.13-4.75.22-3.52.14-3.63.14-3.92.14h-4.26a13.723 13.723 0 0 1-9.24-2.31c-3.2-2.18-5.27-5.52-5.83-9.41-.32-2.27.07-4.59 1.13-6.63 1.94-3.75 5.3-6.37 9.38-7.45-.23-3.94-.58-10.01-1.04-18.22-.36-.13-.71-.27-1.06-.42-5.09-2.2-8.25-6.81-8.25-12.03 0-1.96.45-3.88 1.34-5.72C4.079 3.12 9.329 0 15.659 0c.86 0 1.94.07 3.6.22l.25.03.26.03c.3-.02.61-.03.95-.03.91 0 2.43.06 7.42.49 3.61.34 6.5.75 8.91 1.24.06.02.13.03.19.04 10.28 2.31 18.76 8.72 25.23 19.07l.06.12c1.3 2.14 2.49 4.93 3.72 8.77.01.04.02.07.03.1.99 3.2 1.21 7.07.7 12.18"/><path fill="#fff" d="M56.035 41.169q-.528 4.135-3.871 7.829-2.727 2.903-8.092 5.541-9.15 4.487-16.448 4.662-1.407.089-4.706.22-3.298.132-3.475.132H14.43q-1.32.266-2.287-.396-.967-.658-1.144-1.891 1.232-2.376 4.838-2.023 5.63.527 6.421.264 0-1.935-.176-5.189a763 763 0 0 0-.439-5.454q-.44-7.388-1.495-26.476-.09-1.319-.44-1.936-.44-.264-1.144 0-.88.264-2.11.264-1.937.001-3.562-.703-1.627-.703-1.627-1.936 0-.439.264-.968.968-2.11 4.134-2.11.703 0 2.551.176 1.495.176 2.199.088.704-.087 6.772.439 4.662.441 7.653 1.056 10.993 2.464 18.296 14.162 1.23 2.024 2.639 6.421.79 2.55.262 7.828m-6.509 3.694a12 12 0 0 0 1.76-6.333q0-8.267-9.06-16.448-1.145-1.056-5.014-3.167-5.191-2.725-11.875-2.99.88 20.232 1.671 29.906.351 3.167 1.056 9.412 4.574.264 10.38-2.067 5.804-2.33 9.852-6.201.086-.087 1.23-2.112"/></svg>