<svg xmlns="http://www.w3.org/2000/svg" xml:space="preserve" width="92.001" height="55.672" viewBox="26.669 40.32 92.001 55.672"><linearGradient id="a" x1="27.17" x2="118.17" y1="75.844" y2="75.844" gradientTransform="matrix(1 0 0 -1 0 144)" gradientUnits="userSpaceOnUse"><stop offset=".012" style="stop-color:#66b3e3"/><stop offset="1" style="stop-color:#1c75bc"/></linearGradient><path fill="url(#a)" d="M118.17 86.887a8.606 8.606 0 0 1-8.605 8.605H35.773a8.605 8.605 0 0 1-8.604-8.605V49.424a8.604 8.604 0 0 1 8.604-8.604h73.791a8.603 8.603 0 0 1 8.605 8.604v37.463z"/><path fill="#27aae1" d="M109.564 44.233H35.773a5.196 5.196 0 0 0-5.19 5.19v37.463a5.196 5.196 0 0 0 5.19 5.19h73.791a5.195 5.195 0 0 0 5.191-5.19V49.424a5.196 5.196 0 0 0-5.191-5.191"/></svg>