<svg xmlns="http://www.w3.org/2000/svg" xml:space="preserve" width="61.001" height="61.855" viewBox="40.95 38.467 61.001 61.855"><path fill="#be2026" stroke="#be2026" d="m83.878 69.485 14.994-15.076c3.451-3.47 3.436-9.102-.035-12.553a8.8 8.8 0 0 0-6.257-2.582c-2.38 0-4.616.929-6.294 2.617L71.543 56.713 57.02 41.677a8.8 8.8 0 0 0-6.386-2.71 8.84 8.84 0 0 0-6.165 2.491c-3.52 3.4-3.618 9.031-.218 12.551l14.771 15.294-14.993 15.076c-3.452 3.47-3.437 9.1.033 12.552a8.82 8.82 0 0 0 6.259 2.583c2.379 0 4.616-.93 6.293-2.617l14.743-14.823 14.524 15.038a8.8 8.8 0 0 0 6.384 2.71 8.83 8.83 0 0 0 6.166-2.492c3.521-3.4 3.618-9.031.218-12.552z"/><path fill="#dd2726" stroke="#bc192d" d="m81.312 69.466 16.261-16.348a7.045 7.045 0 0 0-9.989-9.935L71.523 59.33 55.702 42.949a7.045 7.045 0 0 0-10.134 9.787l16.019 16.585L45.328 85.67a7.045 7.045 0 0 0 9.988 9.936l16.06-16.148L87.198 95.84a7.045 7.045 0 1 0 10.133-9.787z"/></svg>