<svg xmlns="http://www.w3.org/2000/svg" xml:space="preserve" width="119.85" height="126.579" viewBox="-0.496 -0.102 119.85 126.579"><title>Slice 1</title><g fill-rule="evenodd"><path fill="#281446" d="M84.259 94.678s-2.758-1.098-3.656 1.114c-.897 2.212 1.917 3.59 1.917 3.59.24.09 12.25 3.241 12.453 3.095.21-.356 1.421-2.998 1.624-3.322-.097-.328-12.152-4.537-12.338-4.477"/><path fill="#f04650" d="M114.683 101.845c-5.366-2.795-17.29-5.976-17.29-5.976l-3.574 11.26c1.523.96 3.456 2.025 5.032 2.933a75 75 0 0 0 7.108 3.832c1.275.58 5.357 3.03 6.669 1.657 1.88-1.965-5.585-4.33-5.28-5.335s7.355 2.836 8.529 1.037c1.823-2.836-5.95-5.174-6.02-6.325.935-.81 4.81 2.026 6.499 1.791 4.041-.571.06-3.97-1.673-4.874"/><path fill="#f01446" d="M113.5 93.957c-.75-4.375-13.471 1.844-15.575 2.65l-3.01 7.6c2.214 1.37 5.11 2.69 7.717 2.326 3.936-.543 4.647-3.809 5.016-7.143 2.559-.365 6.365-2.439 5.853-5.433"/><path fill="#be0a3c" d="M98.993 95.975c-.714 2.653-1.913 5.068-2.875 7.637-.71 1.904-1.357 5.81-4.061 3.488.13-2.702 1.043-5.307 2.087-7.779.967-2.256 1.913-6.065 4.85-3.346"/><path fill="#281446" d="M32.492 94.678c-.407.053-11.697 5.328-12.262 6.26.52.628 1.625 2.001 2.185 2.653.126-.141 12.781-5.161 12.875-5.266 0 0 2.737-.713 1.303-2.731-1.433-2.018-4.102-.916-4.102-.916"/><path fill="#f04650" d="M17.212 96.64c-3.923 3.31-12.493 9.196-12.525 9.228-1.604 1.52-4.017 3.387-4.553 5.6s.642 2.75 2.543 2.143a9.2 9.2 0 0 0 2.704-1.726c-.19.166 1.596-2.496 1.515-.697-.08 1.799-4.337 4.19-2.177 6.365 2.644-.276 4.24-1.872 5.959-3.752.406 0 .572.134.605.502-.934 1.333-3.676 3.97-3.306 5.826.65 3.242 6.348-1.956 6.348-1.956s8.582-7.09 10.308-11.575z"/><path fill="#f01446" d="M8.042 102.882c-1.877 1.066-6.226 1.062-6.637-1.349-.491-2.888 3.895-3.24 6.048-3.492 3.655-.433 8.695-1.62 11.31 1.377 1.02 1.175 3.039 2.707 3.587 4.145.613 1.6-1.178 2.585-2.506 3.565-2.136 1.576-4.39 2.14-6.981 1.402-3.339-.952-3.408-2.966-4.821-5.648"/><path fill="#be0a3c" d="M15.226 97.235c1.393-1.123 2.14-2.208 4-1.167 1.532.859 6.121 6.847 6.832 8.366 1.036 2.216 0 2.836-1.9 4.031a6 6 0 0 0-.533-.603 125 125 0 0 1-4.536-5.336c-1.219-1.495-3.327-3.492-3.863-5.291"/><path fill="#281446" d="M79.604 112.225c-.187-.7-.337-1.406-.552-2.058s-2.437-6.413-2.721-7.094c-2.437-4.432 6.092-8.962 6.904-1.187.435 1.487.35 9.602.06 10.61-.324-.182-3.59-.27-3.69-.27"/><path fill="#f01446" d="M78.792 111.93c.211 3.451.727 6.425-.638 9.723h1.13c2.501-2.69 4.516-6.029 4.934-9.724a12.35 12.35 0 0 0-5.426 0"/><path fill="#f04650" d="M84.567 112.014a28 28 0 0 0 .126-1.499h-6.307l.089 1.5z"/><path fill="#281446" d="M83.597 122.204s-2.653.283-3.81 0c0-.037.54-.863.954-1.564H77.92c-.098.263-.195.527-.3.782-.075.21-.183.408-.322.583-.524.576-.45.665-.093 1.24l-.183 1.888c-.028 0 .065.284.13.405.48 0 .638-.089.63-.486 0-.58-.061-1.159-.102-1.795a5.6 5.6 0 0 1 .991-.304c.223.349.309.767.24 1.175a.81.81 0 0 0 .406 1.03l.406-.252c-.057-.373-.134-.705-.154-1.041s0-.693.02-1.037c1.044.036 1.174.21 1.048 1.142a9 9 0 0 0 0 1.102l.406.166c.329-.198.243-.45.235-.688-.024-.535-.195-1.09.232-1.564h.837c.138.72-.078 1.438.134 2.18l.572-.065v-2.163h.613zM82.207 116.159h-3.496l-.009-1.155h3.505z"/><path fill="#be0a3c" d="M82.256 119.376c-2.697.356-2.36-2.366-1.982-3.646.492-1.641.634-3.432 3.2-3.469 1.32 0 1.593 1.986 1.114 3.748-.451 1.677-1.593 3.103-2.332 3.367"/><path fill="#281446" d="M37.004 107.185c0 .101-.025.199-.029.308.014 1.574.2 3.142.557 4.675h4.837v-.077c.049-.522 2.733-10.36 3.062-11.664 0 0 1.19-4.38-3.614-3.35s-4.813 10.108-4.813 10.108"/><path fill="#f01446" d="M44.193 121.916c-1.093-2.836-.922-6.62-.695-9.541-2.77-.847-3.984-.628-6.844 0 .342 1.02 1.328 3.78 2.539 5.672 1.657 2.573 3.724 4.299 5.052 5.02l.272-.065c-.215-.32-.329-.7-.325-1.086"/><path fill="#281446" d="M40.403 115.004h3.505v1.151h-3.505z"/><path fill="#f04650" d="M44.188 112.553c.082-.911.2-1.989.203-2.106l-8.744-.187c.13.535.195 1.657.406 2.293z"/><path fill="#281446" d="M45.082 122.65c0-.041-.207-.625-.224-.66l-2.574.06q.43.522.727 1.13l-4.265.13s.04.482.061.603l.715.094c.406.587-.167 1.098.036 1.62l.378.154c.406-.142.358-.441.305-.733a1.66 1.66 0 0 1 .048-1.021l1.15-.122c.406.507-.207.98.101 1.524l.297.194c.406-.239.455-.316.353-.713a1.07 1.07 0 0 1 .094-.984h1.137l-.11 1.71c.138.275.309.429.654.287.158-.587-.134-1.41.158-2.026.321.077.732-.024 1.012.04-.037.317-.24 1.338-.268 1.621q.079.1.17.187.075.052.159.085c.47-.13.528-.203.52-.624v-1.499c.052-.012-.52-.827-.634-1.057"/><path fill="#be0a3c" d="M41.285 116.97c-.687-2.229-1.097-4.482-3.656-3.586v-.033c-1.515 1.362-.934 4.619.37 6.078 1.92 2.114 4.118.234 3.285-2.46"/><path fill="#f04650" d="M98.843 16.497c-.475-5.177-.881-10.97-6.389-13.288-5.746-2.431-9.373.81-11.315 6.17-1.722 4.769-2.286 10.007-3.066 14.99-.366 2.342-1.803 13.22-4.93 15.157-2.572-1.037-1.747-14.905-1.99-18.446-.472-6.888.34-16.785-7.234-19.852C60.243-.267 55.414.304 52.14 2.573c-3.51 2.43-3.842 7.499-3.964 11.425-.207 6.737 1.218 13.775 2.27 20.423.223 1.438 1.328 7.09-1.625 7.066-1.929 0-6.29-15.926-7.347-19.127-1.02-3.083-2.388-7.163-4.617-9.578-6.328-6.85-14.622.624-16.035 7.743-1.547 7.855 1.137 16.485 2.806 24.094 1.889 8.617 3.339 17.295 5.28 25.88 1.036 4.623 2.591 19.253 3.327 21.27l49.744 2.836c.979-2.256 1.17-5.23 1.698-7.616l3.655-16.546c1.75-7.966 2.924-16.372 5.337-24.167 1.66-5.364 3.326-10.514 4.313-16.068.699-4.177 2.25-9.477 1.86-13.71"/><path fill="#f01446" d="M118.74 43.865c-.081-.652-.382-2.123-.3-2.24-2.669-11.652-14.565-5.697-19.455.632-2.62 3.387-7.054 7.543-11.323 8.532-4.72 1.094-10.032-.405-14.885.028-10.49.96-18 7.941-20.754 17.883-1.397 5.048-1.706 10.405-1.941 15.619-.118 2.637-.955 6.235-.577 8.8l33.125.226c6.876-6.255 13.646-12.43 20.128-19.086 4.021-4.133 7.44-8.82 10.718-13.552 3.176-4.594 5.987-11.162 5.264-16.842"/><path fill="#be0a3c" d="M88.426 89.679s-27.647-.353-35.006-.381v18.418c11.97.053 34.413-.758 34.413-.758z"/><path fill="#281446" d="M41.865 108.737c-3.598-.13-7.656.134-11.124-.912-.28-2.621-.69-19.6-.69-19.6s19.933.506 20.104.25c5.641 0 16.164.098 17.277 7.484.516 3.431-.707 7.855-3.338 10.185-2.876 2.544-6.828 2.495-10.426 2.836-.02.004-7.88-.101-11.803-.243"/><path fill="#f01446" d="M52.32 106.014c-3.055-.142-6.093-.117-9.147-.215-2.798-.093-11.665-.275-14.365-1.012-.22-1.844-.208-13.536-.208-13.536s20.889.462 21.023.283c4.39 0 12.59.07 13.443 5.267.406 2.431-.552 5.534-2.6 7.171-2.237 1.791-5.312 1.755-8.122 1.998z"/></g></svg>