<svg xmlns="http://www.w3.org/2000/svg" xml:space="preserve" viewBox="0 0 511.98 511.98"><path d="M351.44 288.068c-29.5-.125-61.701 0-95.45 0-33.741 0-65.951-.125-95.45 0L0 298.74v10.671c0 23.562 52.857 85.325 255.99 85.325s255.99-61.764 255.99-85.325v-9.655z" style="fill:#602b2b"/><path d="M511.98 298.74c0 23.561-52.857 85.324-255.99 85.324S0 322.3 0 298.74c0-23.562 114.613-21.327 255.99-21.327 141.37 0 255.99-2.235 255.99 21.327" style="fill:#602b2b"/><path d="M511.98 298.74c0 23.561-52.857 85.324-255.99 85.324S0 322.3 0 298.74c0-23.562 114.613-21.327 255.99-21.327 141.37 0 255.99-2.235 255.99 21.327" style="fill:#6d3b3b"/><path d="M437.328 298.74s-67.654 31.998-181.275 31.998c-113.613 0-181.642-31.998-181.642-31.998s51.975-180.814 67.826-180.814 103.465 31.491 113.628 31.491c10.156 0 103.371-37.655 113.996-31.491 10.64 6.171 67.467 180.814 67.467 180.814" style="fill:#7f4545"/><path d="M256.052 309.411c-94.676 0-157.682-22.218-176.063-29.623-3.484 11.655-5.578 18.952-5.578 18.952s68.029 31.998 181.642 31.998c113.621 0 181.275-31.998 181.275-31.998s-2.344-7.188-6.172-18.718c-19.046 7.656-81.45 29.389-175.104 29.389" style="fill:#ec5564"/><g style="opacity:.1"><path d="M142.237 139.261c15.851 0 103.465 31.491 113.628 31.491 10.156 0 103.371-37.654 113.996-31.491 8.483 4.914 46.296 116.863 61.295 162.104 4.062-1.625 6.172-2.625 6.172-2.625s-56.827-174.643-67.467-180.814c-10.625-6.164-103.84 31.491-113.996 31.491-10.164 0-97.777-31.491-113.628-31.491S74.411 298.74 74.411 298.74s1.898.891 5.578 2.375c13.843-46.382 49.576-161.854 62.248-161.854" style="fill:#fff"/></g></svg>