<svg xmlns="http://www.w3.org/2000/svg" width="66.6" height="71.35" viewBox="-0.5 -0.5 66.6 71.35"><path fill="#0cc" d="M65.579 42.01c-.02.74-.12 1.47-.29 2.19-1.21 5.09-4.33 9.48-9.27 13.05-.04.03-.09.06-.13.1-2.99 2.09-5.64 3.62-8.1 4.69-1.81.78-3.6 1.54-5.36 2.27-1.9.78-4.57 1.56-8.44 2.47-3.98.93-5.85 1.53-6.62 1.81-3.41 1.28-5.45 1.76-7.5 1.76-1.12 0-2.21-.15-3.25-.45-.04-.01-.08-.02-.12-.04-1.83-.55-3.28-1.24-4.56-2.18a13.46 13.46 0 0 1-4.69-6.17c-.12-.33-.23-.67-.32-1.01-1.27-4.77.23-9.59 3.85-12.86-.22-3.13-.5-7.01-.85-11.59-.05-.85-.1-1.61-.15-2.3-.49-1.58-.62-3.26-.37-4.94.09-.57.17-1.29.2-2.18-1.92-.67-3.98-1.8-6-3.65a11.03 11.03 0 0 1-3.52-7.14c-.11-1.27-.34-3.88.96-6.71 1.14-2.5 4.71-7.98 13.99-7.98.21 0 .43 0 .65.01l.2-.03c.53-.08.9-.14 1.13-.18l1.27-.25q.81-.165 1.65-.21C26.849.16 31.349 0 33.679 0c.95 0 1.63.03 2.24.08 5.71.44 7.89.83 9.14 1.11l.11.03c6.26 1.48 10.92 4.5 13.86 8.96.06.1.12.19.18.29 1.4 2.27 2.8 6.14 1.52 11.66-.04.18-.08.35-.13.52-.43 1.53-1.05 2.98-1.86 4.34 1.66 1.47 3.13 3.1 4.38 4.87.07.09.13.18.19.27 2.19 3.3 2.37 7.01 2.27 9.88"/><path fill="#fff" d="M54.589 41.651q-.88 3.695-5.014 6.685-3.519 2.465-6.157 3.606a329 329 0 0 1-5.189 2.199q-1.937.793-6.773 1.936-5.278 1.233-7.916 2.199-3.256 1.232-3.87 1.056-.881-.265-1.231-.528a2.4 2.4 0 0 1-.88-1.144q-.352-1.32 1.056-2.199.614-.439 3.431-.88 0-.087-.132-.527-.133-.439-.133-.704.265-2.021.265-2.198-.352-5.365-1.144-15.921-.177-2.639-.265-4.311a1.9 1.9 0 0 0-.352-.439q.879-5.717-.527-14.074l.176-.176a15 15 0 0 0-1.583-.088q-.706.001-1.848.176-1.144.176-1.759.176-1.934 0-3.694-1.616-.087-.987 0-1.166.79-1.79 5.014-1.527.264 0 1.451-.176a38 38 0 0 0 1.627-.264q.439-.088 1.319-.265 12.842-.615 14.514-.439 5.718.44 7.652.88 5.189 1.232 7.213 4.31.703 1.144.176 3.431-.968 3.43-5.629 5.981-1.848 1.055-7.564 3.078 12.401 2.552 17.328 9.5.525.789.438 3.429M41.66 15.79q-3.166-.879-7.653-1.056h-4.75q-2.024 0-4.397.527.703 4.927.792 7.213v5.278q4.572-.703 12.578-3.431 4.134-1.407 5.189-2.903 1.407-2.022 1.407-2.99 0-1.757-3.166-2.638m7.387 26.653q.704-1.407 0-2.375-6.333-7.829-18.647-7.829-2.024.001-4.397.176.439 9.15 1.319 18.736v.703q.348.617.61 1.407 4.712-.528 11.823-3.562 7.111-3.035 9.292-7.256"/></svg>