<svg xmlns="http://www.w3.org/2000/svg" width="496" height="370" viewBox="-1 -1 496 370"><path fill="#dbffe2" d="M1 0h479v360H1z"/><g fill="#fff" stroke="#fff" stroke-linecap="round" stroke-width="15"><path d="M236.5 39.2 169 4.9l-65.5 34.7L34.6 4.9l-58.4 29.7v37.8l59.8-30L104.8 77l65.5-34.6 66.9 33.9-.7-37.1M478.7 21.5 445.9 4.8l-65.5 34.7-68.9-34.7-66.8 34-1.4 1 .7 37.1 68.9-34.6 68.8 34.6 65.5-34.6 31.5 16V21.5M240.8 132.1l-67.6-34.3-65.5 34.6-68.8-34.6-62.7 31.8v37.8l64-32.2 68.9 34.7 65.5-34.7 66.8 34-.6-37.1M478.7 112.2l-28.6-14.6-65.5 34.7-68.8-34.7-66.9 34-1.3 1 .6 37.1 68.9-34.6 68.9 34.6 65.5-34.6 27.2 13.8v-36.7M-21.9 316l.7 37.1 68.9-34.6 68.9 34.6 65.5-34.6 66.8 33.9-.7-37.1-67.6-34.3-65.5 34.6L46.3 281l-66.9 34zM478.7 291.7l-21.2-10.8-65.5 34.7-68.8-34.7-66.9 34-1.3 1 .6 37.1 68.9-34.6 68.9 34.6 65.5-34.6 19.8 10.1v-36.8M243.9 222.5l-67.5-34.3-65.5 34.7L42 188.2l-65.8 33.4v37.9l67.2-33.8 68.8 34.6 65.5-34.6 66.9 33.9-.7-37.1M478.7 201.1l-25.4-13-65.5 34.7-68.9-34.7-66.8 34-1.4 1 .7 37.1 68.9-34.6 68.8 34.6 65.5-34.6 24.1 12.2v-36.7" transform="matrix(.95523 0 0 1 23.7 0)"/></g><path fill="none" stroke="#000" stroke-linecap="round" stroke-width="2" d="m480 21 .3.3"/></svg>