<svg xmlns="http://www.w3.org/2000/svg" width="126.231" height="182.35" viewBox="0 0 126.231 182.35"><g fill="none" stroke-miterlimit="10" data-paper-data="{&quot;isPaintingLayer&quot;:true}" font-family="none" font-size="none" font-weight="none" style="mix-blend-mode:normal" text-anchor="none"><path fill="#f7ec1e" d="M71.733 114.312s3.595 4.6 3.695 5 1.797 7.3 1.797 7.3-1.298 14.6-1.398 14.9-6.39 21.8-6.39 21.8l-7.637 17.6-1.803-3.8-5.636-14.7-3.994-13.909-3-15.69s.104-5.4.004-6.1 1.798-11.7 8.886-14c7.089-2.3 12.382 0 12.382 0z"/><path fill="#fbf5a8" d="M68.639 127.612c.699 2.4-1 12.4-1 12.4l-4.293 12s-3.295-7.4-5.691-14.5-.6-12.2 0-13.3c.599-1.1 2.895-2.7 2.895-2.7 6.889-.4 7.389 3.7 8.089 6.1"/><path fill="#c1b4d8" d="m69.038 4.112 9.185 6.9 4.693 5.7 3.894 7.2 2.838 8.6 4.25 19.245 2.797 23.055.599 20.9-2.796 2.1-13.18 4.8-10.782 2.1h-13.98l-13.078-2.4-11.86-3.6-4.214-2.2-1.3-19.2-.997-15.9.799-14.8 3.594-16 3.332-11.5 8.35-11.5 9.585-4.9 7.388-1.4z"/><path fill="#897ab8" d="m96.295 81.612.999 13.7-2.696 2.1-11.183 4.4-11.981 2.7-10.134.2-12.14-.9-12.871-3.3-8.586-3.5-1.398-13.3 5.89 2.85 9.186 2.75 11.183 2.2H74.39l8.027-2.2 8.397-3.7z"/><path fill="#ef463c" d="m66.94 65.812 1.699 5-.4 10.8-1.298 17.5-2.496 26.7-1.498 2.2-2.95-17.6-1.942-20.1v-19.3l1.498-5.2 2.695-2zM24.508 60.912l2.995 36-4.892 3.8-2.596 7.7 1.198 13.1 1.598 6.5h-1l-8.186-9.4-9.385-21.9-2.596-9.8-.8-10.3 2.198-8.9 6.589-6.8 5.99-1.6zM102.685 58.546l8.386 2.566 5.392 6.2 1.997 6.1v13.3l-4.693 17.6-6.19 14.3-1.098-.8.599-9.8-1.2-5.9-2.894-4.1-5.69-2.7-1.798-34.6c2.796-2.2 7.189-2.166 7.189-2.166M71.234 6.012l-6.69 3.2-7.388 1.1-5.99-.8-5.991-2-1.497-1 7.587-4.4 7.189-.8 5.89.5 5.99 2.7z"/><g fill="#32419a"><path d="M31.283 54.106c.738-.016 1.288.336 1.413.864.099.42.18.881.108 1.295-.113.641-.897.851-1.293.226-.2-.318-.51-.564-.734-.869-.222-.303-.543-.665-.26-1.028.21-.267.604-.39.766-.488M48.933 59.914c-.281-.483-.523-.879-.746-1.284-.254-.464-.158-1.023.204-1.293.372-.277.854-.19 1.26.24.152.161.298.334.416.52.355.56.26 1.031-.292 1.387-.26.167-.553.285-.842.43M88.483 52.795c.378-.712.898-1.14 1.687-1.016.392.062.684.851.639 1.476-.035.495-.337.737-.777.83-.683.141-1.003-.129-1.55-1.29M73.342 57.512l1.252-.413c.819.661 1.01 1.15.709 1.754-.156.313-.673.532-1.072.435-.967-.235-.7-1.069-.89-1.776"/></g><path fill="#32419a" d="M24.056 59.763c.056-1.404.17-2.674.14-3.939-.038-1.545.138-3.063.319-4.588.113-.955.134-1.92.242-2.875.173-1.525.444-3.04.563-4.567.123-1.586.687-3.056 1.01-4.587.413-1.946.718-3.914 1.165-5.85.257-1.112.2-2.313.87-3.324.115-.173.095-.434.139-.654.25-1.248.442-2.513.77-3.74.374-1.389.786-2.78 1.336-4.107.707-1.702 1.517-3.367 2.373-5 1.168-2.23 2.568-4.33 4.317-6.137 1.347-1.39 2.702-2.77 4.283-3.95 1.799-1.344 3.798-2.348 5.599-3.67.444-.326.99-.686 1.674-.447.185.064.47-.154.706-.249.91-.363 1.812-.742 2.73-1.082.152-.057.365.071.55.076.524.014 1.065.133 1.473-.384.117-.149.387-.2.599-.246.624-.132 1.26-.212 1.879-.36.646-.154 1.213-.15 1.515.514 1.85-.305 3.61-.157 5.355.212.526.112 1.039.323 1.53.548 1.74.794 3.493 1.563 5.189 2.445.838.436 1.562 1.095 2.338 1.653.053.037.1.091.159.108 1.395.39 2.06 1.665 3.065 2.527.967.83 2.042 1.543 2.935 2.441.954.96 2.103 1.724 2.762 3.007.443.862 1.263 1.522 1.85 2.318 1.389 1.883 2.72 3.827 3.639 5.972.85 1.986 1.404 4.1 2.085 6.157.06.183.06.4.16.553.969 1.48 1.1 3.226 1.55 4.868.382 1.39.707 2.795 1.05 4.194.48 1.953.996 3.898 1.419 5.863.276 1.282.493 2.588.592 3.894.103 1.35.435 2.642.662 3.962.244 1.412.333 2.85.48 4.277.108 1.02.19 2.042.312 3.06.027.231.164.45.272.726.195-.114.323-.153.4-.239 1.158-1.28 2.732-1.702 4.32-1.86 2.809-.279 5.546.173 8.167 1.266 2.499 1.044 4.299 2.903 5.882 5.021.082.11.249.243.357.228.427-.057.647.224.895.472.92.921 1.5 2.054 2.006 3.233.225.526.344 1.121.664 1.58.638.915.72 1.987.97 3.004.563 2.286.698 4.626.58 6.97-.075 1.472-.278 2.937-.415 4.406-.036.383-.041.768-.058 1.153-.106 2.607-.768 5.13-1.192 7.688a40 40 0 0 1-.616 3.113c-.237.961-.577 1.895-.857 2.846-.38 1.29-.694 2.601-1.13 3.872a119 119 0 0 1-2.13 5.75c-.653 1.625-1.481 3.182-2.108 4.816-.732 1.91-1.72 3.69-2.603 5.523-.538 1.117-1.198 2.19-1.912 3.205-.333.474-.893.82-1.41 1.122-.481.285-1.232-.127-1.321-.699-.057-.363-.052-.769.054-1.118.175-.577.427-1.135.694-1.676.842-1.715 1.377-3.509 1.483-5.426.045-.829.23-1.66.19-2.484a23 23 0 0 0-.414-3.326c-.282-1.43-.562-2.878-1.031-4.253-.895-2.62-2.57-4.656-4.995-6.039-.277-.158-.524-.367-.8-.524-.25-.14-.52-.244-.681-.317-1.135.508-2.212.958-3.26 1.47-.89.434-1.735.958-2.618 1.408-1.163.592-2.318 1.22-3.654 1.354-.088.01-.175.072-.253.123-1.346.871-2.944 1.022-4.411 1.547-.718.258-1.431.543-2.167.736-.77.204-1.564.313-2.35.463-.312.061-.625.137-.941.174-.81.094-1.606.171-1.838 1.187-.024.106-.386.24-.532.19-.268-.094-.492-.314-.838-.55-2.688.12-5.491 1.014-8.478.377-.111 1.11-.25 2.121-.302 3.137-.05.983-.01 1.97-.01 3.033.518.166 1.112.385 1.723.545.865.227 1.773.328 2.603.643.535.203 1.002.652 1.428 1.064a17.6 17.6 0 0 1 2.897 3.708c.449.761.969 1.491 1.32 2.295.408.933.815 1.911.963 2.907.443 3.003.636 6.021.152 9.054-.17 1.065-.155 2.162-.192 3.244-.048 1.37-.134 2.73-.431 4.076-.451 2.045-.837 4.105-1.267 6.155-.078.373-.25.726-.354 1.095-.232.823-.438 1.653-.674 2.475-.265.92-.524 1.843-.837 2.748-.354 1.026-.777 2.027-1.143 3.05-.15.418-.202.872-.347 1.294-.671 1.958-1.485 3.865-1.892 5.916-.14.7-.592 1.332-.868 2.008-.795 1.951-1.552 3.917-2.367 5.86-.803 1.912-1.664 3.8-2.491 5.702a48 48 0 0 0-.937 2.283c-.413 1.11-.78 2.237-1.195 3.345-.143.386-.34.762-.57 1.103-.364.543-.997.584-1.464.132a1.1 1.1 0 0 1-.242-.298c-.408-.859-.85-1.706-1.198-2.588-.834-2.114-1.627-4.245-2.428-6.372-.156-.417-.312-.84-.403-1.274-.31-1.472-.827-2.866-1.422-4.245-.963-2.23-1.722-4.535-2.364-6.88-.548-2.004-1.016-4.045-1.77-5.972-.905-2.313-1.31-4.75-2.047-7.102-.465-1.482-.625-3.062-.913-4.598-.33-1.757-.68-3.51-.96-5.275-.148-.937-.141-1.898-.252-2.843-.07-.587-.238-1.16-.34-1.744-.076-.44-.174-.89-.163-1.332.037-1.412.078-2.826.194-4.232.17-2.075.51-4.119 1.343-6.052.165-.383.28-.788.443-1.172.678-1.587 1.36-3.174 2.055-4.753.1-.227.246-.459.43-.618 1.808-1.555 3.694-2.984 6.085-3.527.555-.126 1.123-.196 1.758-.306l-.518-5.21c-.542 0-1.027.011-1.511-.008-.22-.009-.436-.077-.653-.128-.181-.042-.372-.168-.537-.139-.987.17-1.937-.087-2.896-.216-.95-.13-1.894-.306-2.841-.456-.748-.12-1.512-.17-2.243-.359-2-.514-4.026-.899-5.985-1.605-1.733-.625-3.562-.984-5.346-1.474-.33-.09-.638-.249-.96-.37-1.186-.453-2.378-.896-3.562-1.355-.444-.173-.876-.378-1.311-.574-.55-.247-1.092-.51-1.648-.742-.171-.07-.392-.116-.564-.07-2.26.592-4.271 1.612-5.492 3.704-.46.787-.647 1.733-.966 2.603a7.5 7.5 0 0 0-.467 2.33c-.023.67-.161 1.334-.23 2.002-.041.414-.094.837-.06 1.248.123 1.53.4 3.058.392 4.585-.01 1.623.486 3.146.648 4.731a48.6 48.6 0 0 0 1.352 7.461 28 28 0 0 1 .517 2.426c.029.171-.105.46-.252.548a.98.98 0 0 1-.7.1c-.598-.169-1.17-.443-1.77-.605-.766-.206-.996-.937-1.485-1.412-.178-.172-.251-.46-.44-.615-1.278-1.05-2.083-2.51-3.214-3.689-.643-.669-1.217-1.374-1.482-2.313-.124-.44-.45-.865-.785-1.194-.967-.95-1.388-2.212-2.021-3.354-.262-.472-.585-.912-.837-1.389-1.094-2.067-2.217-4.12-3.24-6.223a47 47 0 0 1-1.937-4.596c-.616-1.713-1.09-3.476-1.635-5.214-.747-2.384-1.532-4.757-2.244-7.15-.503-1.69-.975-3.395-1.338-5.118-.23-1.09-.12-2.253-.365-3.337-.353-1.563-.077-3.124-.203-4.679-.1-1.216-.12-2.423-.004-3.643.179-1.895.524-3.733 1.356-5.463.319-.663.487-1.406.858-2.033.943-1.595 1.986-3.13 2.94-4.719.623-1.038 1.62-1.553 2.57-2.206.996-.685 2.049-1.166 3.152-1.584 1.006-.38 2.034-.704 3.053-1.05a.5.5 0 0 1 .188-.039c1.044.036 2.096.012 3.13.134 1.072.125 2.119.483 3.19.571 1.18.095 2.356.113 3.54.794m2.674-13.878c.344.545.566.95.837 1.316.455.62 1.09 1.043 1.669 1.536.959.82 2.087 1.297 3.202 1.667 1.917.636 3.838 1.29 5.87 1.586 2.556.373 5.074 1.001 7.686.841.095-.006.19.013.288.021 1.977.152 3.952.372 5.932.44 2.659.088 5.32.054 7.982.086.54.007 1.08.086 1.623.107.862.032 1.732.111 2.588.048 2.007-.147 4.009-.358 6.01-.56 1.177-.12 2.35-.269 3.523-.412q1.28-.153 2.557-.334c.497-.07.99-.168 1.485-.264q.748-.145 1.49-.312c.684-.153 1.368-.298 2.043-.482.397-.108.768-.323 1.167-.422 1.812-.448 3.523-1.105 5.01-2.27.276-.216.59-.425.92-.514.544-.148.866-.52 1.164-.937.606-.849 1.145-1.753 1.82-2.54.302-.353.358-.6.252-1.004-.445-1.697-.87-3.399-1.297-5.1-.046-.185-.136-.397-.086-.558.142-.458-.07-.802-.251-1.18-.138-.285-.22-.599-.304-.907-.236-.863-.45-1.733-.692-2.595-.251-.893-.398-1.846-.82-2.653-.44-.843-.647-1.725-.907-2.61-.106-.365-.266-.713-.408-1.066-.378-.947-.894-1.862-1.108-2.845-.391-1.793-1.272-3.318-2.316-4.758-.74-1.02-1.67-1.9-1.957-3.207-.063-.288-.323-.552-.537-.784-1.65-1.782-3.222-3.64-5.116-5.18-1.356-1.102-2.72-2.194-3.964-3.195-.62.297-1.092.546-1.582.754-1.722.731-3.414 1.555-5.186 2.138-1.433.473-2.957.68-4.451.946-.973.173-1.962.248-2.945.358-.6.067-1.231.258-1.8.145-1.113-.222-2.237-.048-3.376-.456-1.512-.542-3.205-.558-4.77-.987-1.124-.31-2.19-.88-3.235-1.426-.514-.268-.922-.742-1.37-1.115-.903.714-1.794 1.316-2.56 2.05-.992.95-1.915 1.977-2.807 3.023-.726.852-1.37 1.775-2.037 2.675-1.04 1.402-1.793 2.963-2.37 4.597-.368 1.047-1.105 1.902-1.29 3.064-.201 1.274-.731 2.494-1.074 3.75a93 93 0 0 0-.952 3.812c-.142.615-.29 1.25-.285 1.873.004.637-.133 1.2-.404 1.756-.14.286-.306.576-.368.882-.307 1.506-.534 3.03-1.153 4.458-.136.313-.125.688-.192 1.034-.054.283-.096.572-.187.844a19.7 19.7 0 0 0-.961 4.866m-.421 3.223c-.06.431-.117.772-.15 1.116-.083.893-.146 1.787-.236 2.68-.128 1.271-.462 2.526-.193 3.825a3.8 3.8 0 0 1 .029 1.345c-.29 1.816-.181 3.635-.09 5.451.13 2.56.295 5.117.482 7.673.08 1.116.326 2.222.374 3.338.117 2.75.1 5.506.389 8.25.039.377.177.505.58.591.626.133 1.296.33 1.803.7 1.766 1.288 3.83 1.907 5.814 2.69 1.42.558 2.92.924 4.4 1.317 1.847.49 3.699.962 5.566 1.362 1.53.33 3.08.587 4.632.785.93.12 1.885.064 2.828.091 1.399.04 2.799.084 4.199.115.178.004.359-.066.63-.12l-.283-7.44c-.037-.985-.09-1.967-.101-2.95-.014-1.313-.014-2.626.015-3.937.043-1.943.077-3.887.192-5.825.057-.95.232-1.907.46-2.835.156-.633.28-1.317.799-1.81.573-.547 1.109-1.133 1.71-1.644.408-.346.869-.765 1.357-.845.838-.137 1.753-.193 2.566.003 1.344.325 2.529 1.017 3.358 2.213.357.515.818.957 1.217 1.444.138.17.29.362.337.567.205.9.509 1.804.528 2.712.047 2.19.113 4.39-.29 6.564-.016.09.014.186.014.28.007.994.05 1.99.009 2.983-.104 2.491-.245 4.982-.374 7.473-.037.7-.09 1.401-.116 2.102-.018.498-.003.997-.003 1.598.616-.039 1.149-.063 1.68-.108.735-.06 1.467-.189 2.2-.195 1.332-.012 2.66-.023 3.957-.363.645-.169 1.257-.48 1.908-.609 1.253-.249 2.429-.699 3.596-1.194.909-.386 1.832-.739 2.749-1.105.884-.353 1.823-.608 2.64-1.077 1.298-.746 2.675-1.33 3.97-2.097 1.645-.973 3.008-2.15 3.987-3.759.285-.468.528-1.112.45-1.624-.288-1.896.144-3.838-.417-5.706a.4.4 0 0 1-.026-.19c.316-1.603-.32-3.164-.187-4.776.086-1.056-.152-2.14-.278-3.209-.09-.763-.227-1.52-.355-2.278-.25-1.478-.531-2.95-.753-4.434-.121-.813-.136-1.643-.224-2.462-.14-1.306-.277-2.614-.463-3.913-.158-1.105-.385-2.2-.576-3.3-.11-.622-.207-1.246-.327-1.975-.256.238-.454.363-.57.543-.94 1.445-2.511 2.154-3.808 3.153-1.081.832-2.314 1.627-3.793 1.735a1.1 1.1 0 0 0-.543.183c-.946.668-2.086.73-3.151.984-1.39.332-2.825.464-4.22.776-.843.19-1.661.325-2.533.256-.553-.044-1.122.091-1.681.165-.72.096-1.435.247-2.157.308-.937.08-1.884.05-2.82.145-1.637.167-3.298.32-4.92.16-2.006-.2-3.995-.022-5.99-.07-1.375-.034-2.751.006-4.124-.05-1.752-.074-3.502-.21-5.254-.323-.793-.05-1.587-.1-2.38-.168-1.138-.096-2.278-.19-3.413-.317-.538-.059-1.07-.182-1.601-.293-1.905-.397-3.82-.758-5.71-1.217-1.083-.263-2.13-.686-3.19-1.038a4 4 0 0 1-.444-.177q-.855-.422-1.702-.857c-.192-.099-.488-.182-.538-.337-.212-.653-.786-.767-1.441-1.049m-4.834 77.52.242-.072c-.028-.272-.032-.549-.091-.814-.213-.968-.515-1.922-.657-2.899-.384-2.627-.778-5.255-1.022-7.897-.2-2.158-.647-4.3-.401-6.502.18-1.62.053-3.288.655-4.838.655-1.683 1.06-3.506 2.544-4.76.602-.509.986-1.262 1.735-1.615.433-.204.876-.386 1.317-.573.329-.14.522-.29.615-.73.272-1.283-.168-2.479-.28-3.71-.101-1.108-.273-2.209-.354-3.318-.098-1.368.063-2.747-.243-4.112-.175-.777-.22-1.588-.268-2.387-.047-.794-.004-1.594-.037-2.39-.048-1.174-.134-2.347-.194-3.52-.026-.48.003-.965-.043-1.442-.185-1.91-.403-3.819-.58-5.73-.054-.602.015-1.214-.023-1.818-.101-1.598-.247-3.193-.34-4.792-.062-1.05-.061-1.075-1.136-1.212q-1.596-.207-3.191-.423c-1.328-.179-2.653-.394-3.985-.528-.822-.082-1.642-.07-2.471.166-1.385.396-2.712.867-3.987 1.57a11.4 11.4 0 0 0-3.373 2.783c-.78.953-1.4 2.075-1.911 3.203-.683 1.51-1.288 3.071-1.743 4.663-.366 1.278-.602 2.63-.641 3.957-.07 2.43.163 4.855.347 7.282.228 3 1.048 5.842 1.93 8.68.496 1.59 1.042 3.163 1.537 4.753.35 1.128.662 2.27.978 3.408.335 1.206.92 2.32 1.33 3.485 1.03 2.915 2.353 5.671 3.908 8.331 1.438 2.46 2.903 4.906 4.248 7.416.835 1.56 2.17 2.68 3.217 4.047.666.873 1.57 1.565 2.368 2.338m41.373 28.444c-.952-.46-1.156-1.363-1.486-2.142-.311-.732-.457-1.532-.705-2.292-.631-1.937-1.294-3.863-1.915-5.804-.564-1.762-1.043-3.552-1.641-5.302-.994-2.906-1.512-5.878-1.472-8.95.03-2.255.28-4.473 1.193-6.559.313-.716.7-1.415 1.155-2.049.607-.845 1.522-1.332 2.46-1.797-.418-2.542-.838-5.082-1.263-7.659-.15 0-.35-.044-.52.007-.728.215-1.435.522-2.173.675-.88.183-1.592.596-2.268 1.163-.51.428-1.125.657-1.565 1.261-.307.423-.657.82-.9 1.301-.142.286-.346.54-.497.822-.798 1.488-1.536 3.006-1.993 4.635-.32 1.137-.564 2.298-.796 3.458-.091.451-.308.841-.25 1.376.102.942-.07 1.912-.103 2.87-.016.474-.024.954.037 1.422.149 1.162.348 2.32.508 3.481.069.5.058 1.011.14 1.507.274 1.66.56 3.318.866 4.972.208 1.126.457 2.244.684 3.366.037.184.126.406.06.552-.237.524-.053 1.015.083 1.494.148.52.417 1.004.582 1.521.388 1.217.736 2.448 1.12 3.667.23.734.515 1.45.748 2.183.309.973.597 1.954.882 2.935.293 1.008.57 2.02.856 3.028.24.853.459 1.712.726 2.555.358 1.13.749 2.247 1.138 3.365.178.513.368 1.024.585 1.522.598 1.37 1.234 2.725 1.813 4.103.459 1.09.862 2.203 1.282 3.31.283.743.53 1.502.837 2.237.202.483.48.934.795 1.534.342-.864.63-1.526.867-2.206a19 19 0 0 1 1.45-3.225c.539-.939.967-1.949 1.383-2.952.684-1.652 1.327-3.32 1.97-4.989a245 245 0 0 0 1.574-4.212q.637-1.76 1.232-3.535a157 157 0 0 0 1.154-3.543c.286-.917.473-1.87.824-2.76.269-.68.546-1.333.73-2.057.448-1.759 1.038-3.483 1.28-5.29.177-1.305.88-2.474.953-3.804.018-.349.039-.705.122-1.04.479-1.917.648-3.872.757-5.836.065-1.168.2-2.334.225-3.503.037-1.797.054-3.597-.013-5.393-.043-1.152-.383-2.248-.97-3.269-.62-1.08-1.157-2.209-1.757-3.3-.175-.319-.488-.562-.66-.88a4.84 4.84 0 0 0-1.435-1.627c-1.388-1.019-2.992-1.508-4.731-1.818l-.857 8.311c1.118.448 1.08.492 2.038 1.33.529.463.608 1.102.926 1.641.78 1.326 1.049 2.802 1.099 4.31.037 1.148-.038 2.303-.09 3.453-.03.68.075 1.397-.477 1.964-.096.098-.113.304-.113.46-.002 1.66-.464 3.24-.955 4.787-.46 1.45-.493 3.012-1.306 4.375-.427.72-.58 1.601-.863 2.406-.415 1.171-.87 2.33-1.246 3.513-.29.91-.551 1.84-.703 2.78-.107.664-.157 1.255-.901 1.536-.206.075-.326.376-.51.605m45.22-39.463.156.058c.237-.437.506-.86.702-1.313.39-.908.722-1.842 1.118-2.748.548-1.254 1.185-2.47 1.69-3.742.97-2.434 2.079-4.82 2.664-7.396.177-.779.392-1.557.678-2.3.506-1.318.925-2.647 1.16-4.048.417-2.46.927-4.904 1.379-7.359.15-.819.358-1.65.338-2.472-.034-1.478.407-2.892.402-4.38-.006-1.44.024-2.882-.083-4.32-.041-.54-.062-1.085-.171-1.61-.15-.718-.361-1.424-.573-2.126a15 15 0 0 0-.521-1.444c-.331-.796-.692-1.579-1.03-2.372-.148-.353-.286-.662-.72-.796-.272-.084-.528-.335-.712-.572-.31-.398-.503-.89-.836-1.262-1.081-1.208-2.098-2.505-3.336-3.53-1.386-1.15-3.143-1.702-4.9-2.054-1.416-.285-2.851-.456-4.333-.36-1.283.084-2.5.146-3.642.828-.93.556-1.451 1.364-1.332 2.427.15 1.328.335 2.652.483 3.981.077.697.115 1.4.155 2.1.058 1.017.066 2.037.157 3.05.194 2.196.479 4.385.63 6.584.144 2.075.164 4.16.24 6.24.034.926.077 1.854.105 2.781q.034 1.149.043 2.298c.002.383-.041.767-.03 1.15.024.763.103 1.528.098 2.291-.006 1.032.038 1.185 1.03 1.563 1.718.656 3.312 1.527 4.564 2.881.928 1.004 1.823 2.076 2.517 3.247.509.857.73 1.908.972 2.898.37 1.524.672 3.066.959 4.61.265 1.42.445 2.844.226 4.301-.144.963-.168 1.943-.247 2.916m-44.953 10.58.178.015c.068-.208.163-.41.2-.624.179-1.037.34-2.076.51-3.114.244-1.485.505-2.967.725-4.455.13-.883.234-1.773.282-2.664.055-1.01-.016-2.029.059-3.037.082-1.114.314-2.216.399-3.33.163-2.14.236-4.287.408-6.425.139-1.722.405-3.433.55-5.154.16-1.91.237-3.828.37-5.742.039-.574.184-1.14.218-1.715.104-1.694.166-3.39.263-5.086.096-1.694.23-3.387.315-5.08.048-.98.032-1.964.042-2.946.009-.76.005-1.52.02-2.28.03-1.562.087-3.122.088-4.684 0-.366-.116-.756-.27-1.094-.573-1.26-1.297-2.367-2.565-3.1-1.572-.91-2.413-.772-3.626.122-1.624 1.197-2.471 2.902-2.286 5.005.017.192.04.393 0 .577-.351 1.613-.235 3.25-.268 4.88-.011.477.005.956.003 1.434-.005 1.566-.045 3.132-.012 4.697.044 2.083.14 4.164.223 6.246.045 1.122.105 2.242.167 3.364.06 1.08.149 2.158.195 3.238.06 1.397.037 2.8.148 4.193.169 2.103.414 4.2.643 6.298.239 2.191.45 4.387.762 6.567.393 2.756.868 5.502 1.32 8.25.113.691.296 1.37.409 2.062.193 1.191.355 2.388.53 3.582m-2.09-3.562c-.884-.29-1.383-.026-1.822.554-.787 1.04-1.173 2.236-1.582 3.452-.47 1.398-.503 2.802-.44 4.234.04.895.009 1.803.153 2.682.36 2.206.962 4.36 1.635 6.487.297.943.726 1.845 1.113 2.758.26.613.596 1.198.823 1.824.487 1.347.926 2.712 1.387 4.07.05.151.157.3.158.45 0 .47.266.748.678 1.041.676-1.787 1.355-3.514 1.98-5.26.333-.927.55-1.893.86-2.829.76-2.308 1.442-4.636 1.805-7.047.085-.563.144-1.13.208-1.698.042-.382.08-.765.105-1.149a62 62 0 0 0 .076-1.612c.008-.218 0-.438-.011-.656-.025-.503.013-1.023-.101-1.506-.193-.809-.543-1.58-.722-2.392-.236-1.072-.925-1.828-1.678-2.843-.1.688-.164 1.155-.235 1.621-.053.346-.092.696-.176 1.036-.296 1.204-.67 2.393-.892 3.61-.113.62-.234 1.113-.826 1.441-.391.217-.747.268-.974-.09a3.1 3.1 0 0 1-.42-1.019 55 55 0 0 1-.487-2.938c-.107-.755-.148-1.519-.255-2.273-.094-.656-.24-1.305-.36-1.948M44.624 6.297l.93.756c.99.792 2.253.88 3.393 1.252 1.326.432 2.73.631 4.112.88.787.141 1.599.286 2.387.241 1.595-.093 3.184-.298 4.77-.49.633-.076 1.249-.298 1.882-.358 1.229-.117 2.38-.459 3.5-.967.869-.393 1.792-.675 2.638-1.108.505-.259 1.204-.288 1.503-1.02-.354-.2-.67-.417-1.016-.565-1.078-.462-2.204-.826-3.243-1.36-1.2-.616-2.445-.816-3.77-.884-1.206-.062-2.402-.315-3.601-.494a.63.63 0 0 1-.336-.173c-.351-.363-.75-.266-1.163-.16-1.11.283-2.22.566-3.333.836-.957.231-1.971.318-2.867.692-1.732.721-3.401 1.595-5.091 2.42-.221.107-.405.29-.695.502m1.41 85.074c-.49-.075-.898-.214-1.293-.182-.518.041-.943-.109-1.366-.354-.135-.078-.27-.18-.417-.209-1.791-.337-3.521-.875-5.222-1.522-.385-.145-.812-.175-1.216-.273-.41-.099-.817-.216-1.141-.303-.1 3.777.533 7.372 1.118 11.03 1.85.534 3.69 1.06 5.528 1.6.58.168 1.142.398 1.726.551.865.228 1.69.725 2.593.501zm11.884 12.31c0-1.145.119-2.218-.025-3.256-.322-2.33-.246-4.67-.344-7.006-.03-.709-.098-.813-.827-.85-.696-.036-1.394-.05-2.088-.096-.542-.035-1.081-.112-1.623-.154-1.298-.102-2.615.055-3.893-.325-.353-.105-.728-.136-1.094-.202-.525 1.35-.166 2.708-.29 4.031-.073.788-.07 1.592-.01 2.382.088 1.144.267 2.281.386 3.423.109 1.04.167 1.131 1.16 1.312 2.86.52 5.739.825 8.648.74m28.496-3.544c0-.85.024-1.712-.005-2.572-.053-1.54-.194-3.079-.191-4.618.003-1.156-.333-2.262-.354-3.409-.008-.384-.326-.552-.697-.442-.52.154-1.031.336-1.537.53-1.065.407-2.123.837-3.19 1.241a2 2 0 0 1-.648.111 6.8 6.8 0 0 0-2.695.618c-.778.355-.912.577-.76 1.374.135.69.23 1.39.314 2.087.138 1.138.23 2.281.384 3.417.136 1.007.336 2.004.489 3.01.056.364.057.737.094 1.252.52-.096.973-.157 1.415-.268.492-.123.97-.3 1.46-.435.339-.093.696-.125 1.027-.236 1.603-.533 3.2-1.083 4.894-1.66m9.63-16.712c-.337.218-.576.32-.745.491a6.5 6.5 0 0 1-2.03 1.408c-.728.317-1.431.696-2.135 1.07-.786.415-1.557.861-2.342 1.28-.521.278-1.055.533-1.386.7 0 .821-.054 1.42.012 2.002.149 1.332.375 2.655.535 3.986.137 1.14.294 2.283.312 3.426.01.623.158 1.095.608 1.58 1.15-.528 2.29-1.026 3.407-1.57a32 32 0 0 0 2.446-1.32c.598-.357 1.279-.718 1.428-1.47.178-.9.358-1.83.306-2.736-.064-1.108-.238-2.19-.137-3.323.119-1.367.008-2.756-.038-4.135-.017-.427-.145-.852-.24-1.389M67.56 104.097a52 52 0 0 0 7.987-1.032c-.054-1.537-.075-3.098-.174-4.653-.1-1.562-.312-3.116-.41-4.677-.104-1.667-.094-1.685-1.346-1.15-.765-.08-1.281-.204-1.785-.17-.923.06-1.837.237-2.76.322-.495.045-.662.296-.673.75-.016.64-.013 1.284-.085 1.92-.263 2.347-.568 4.69-.821 7.04-.056.515.038 1.047.067 1.65M27.205 84.561c.048.541.073.89.11 1.236.06.57.177 1.137.184 1.706.02 1.628-.212 3.276.495 4.835.049.11.024.253.036.381.102 1.112.197 2.224.313 3.334.022.205.132.4.208.62.269-.07.525-.23.676-.162.512.237.989.55 1.474.844.21.128.389.331.613.412.808.288 1.627.541 2.446.8.193.061.397.09.548.122l-.057-3.014c-.02-1.044.06-2.102-.081-3.13a26 26 0 0 1-.267-3.733c.006-.847-.136-1.024-.904-1.248-2.065-.603-3.965-1.526-5.794-3.003"/><path fill="#fff" d="m13.677 165.012 1.944-1.9 2.296-.6 2.995 1.6 1.298 2.7v4.752l-2.196 2.148 1.298 2.6-.7 2.7-2.595 1.9-3.843-.5-2.547-1.8-1.298-3.4-3.195-.4-1.92-1.9s.359-1.674.023-3.3c-.336-1.627 3.195-3.835 3.195-3.835l4.093-.465z"/><path fill="#32419a" d="M21.233 173.794c1.207 1.422 1.042 2.94.558 4.448-.362 1.127-1.147 2-2.025 2.775a2.4 2.4 0 0 1-1.68.611 84 84 0 0 0-2.795 0c-2.56.051-4.037-1.588-4.727-3.778-.162-.515-.238-1.058-.351-1.58-.837-.08-1.631-.148-2.423-.232-1.33-.139-2.35-.835-3.145-1.86-.817-1.055-.817-2.305-.553-3.512.53-2.42 1.868-4.348 3.869-5.809.513-.375 1.103-.504 1.728-.504h3.155c.603-1.03 1.662-1.792 2.757-2.436 1.04-.61 2.255-.459 3.38-.14 2.287.65 4.44 3.164 4.44 5.84 0 1.152-.137 2.307-.26 3.456-.098.915-.688 1.573-1.3 2.198-.18.182-.392.328-.628.523m-6.947-8.859c.158.284.225.425.31.554.199.297.24.598.01.891-.246.315-.564.401-.942.25-.148-.062-.318-.086-.45-.17-.62-.4-1.327-.409-2.023-.532-1.522-.267-2.682.245-3.657 1.392-.98 1.151-1.69 2.43-1.96 3.917-.3 1.655.713 3.01 2.372 3.244.285.041.573.071.86.104 1.062.12 1.167.033 1.412-1 .064-.272.196-.55.37-.764.245-.303.642-.399.958-.204.237.145.395.463.513.737.069.157.038.398-.033.565-.495 1.18-.278 2.365.069 3.5.565 1.85 1.556 2.683 3.404 2.668.77-.006 1.542.021 2.31-.013.308-.013.676-.07.9-.252.809-.655 1.514-1.444 1.712-2.49.122-.64.128-1.373-.063-1.985-.201-.647-.918-.71-1.547-.728-.06 0-.145-.03-.172-.075-.155-.258-.406-.523-.407-.787-.001-.213.277-.464.487-.626.133-.103.382-.04.555-.11 1.102-.45 2.124-1.065 2.343-2.324.192-1.099.259-2.244.196-3.358-.103-1.819-1.611-3.586-3.357-4.069-.713-.196-1.506-.315-2.16.072-.706.42-1.302 1.021-2.01 1.593"/><path fill="#fff" d="M125.148 157.261v4.65l-1.498 2.4-2.296.5-2.734-.9-1.26-1.4h-1.697l-1.996-1.012-1.3-1.887-.398-1.6v-2.1l1.298-1 2.197-.6 1.797.6-.5-2.9.799-2.3h2.434l2.159.9.599 1.8v2.5c2.196.4 2.396 2.35 2.396 2.35"/><path fill="#32419a" d="M116.007 153.542c0-.687-.012-1.262.003-1.835.036-1.314.734-2.603 2.136-2.999 1.097-.31 2.317-.32 3.267.324 1.38.937 2.479 2.168 2.326 4.053-.02.254-.003.51-.003.843.83.377 1.524.995 2.024 1.791.232.37.464.82.468 1.235.018 1.734-.041 3.47-.091 5.203-.054 1.815-1.983 3.462-3.721 3.597-1.875.144-3.56-.403-4.941-1.716-.305-.289-.593-.42-1.007-.435-1.645-.056-2.864-.834-3.94-2.089-1.15-1.342-1.633-2.787-1.5-4.517.15-1.95 1.44-3.265 3.397-3.376.477-.027.953-.048 1.582-.079m.52 8.438c.097-.247.165-.426.237-.603.146-.365.41-.598.808-.547.443.055.643.385.707.801.019.126.028.258.017.384-.053.586.245.97.702 1.275a5.65 5.65 0 0 0 2.792.94c1.152.081 2.776-.969 2.809-2.375.03-1.315.055-2.632.142-3.944.074-1.112-.482-1.788-1.357-2.344l-.408.328c-.303.24-.634.322-.98.12-.348-.204-.453-.554-.385-.918.069-.374.179-.75.336-1.095.862-1.893-.904-4.07-2.76-3.884-.775.078-1.515.537-1.558 1.3-.046.854-.366 1.773.312 2.578.248.294.07 1.04-.217 1.34-.285.294-.667.356-.966.141-.8-.575-1.666-.3-2.507-.267-.755.031-1.254.492-1.482 1.187-.39 1.19-.308 2.35.43 3.4.294.418.645.797.98 1.186.602.7 1.363 1.033 2.349.997"/></g></svg>