<svg xmlns="http://www.w3.org/2000/svg" width="59.119" height="80.431" viewBox="0.114 -0.206 59.119 80.431"><path fill="undefined" d="M46.71.375c.402-.427.542.016 1.438.616 3.57 2.434 6.077 5.964 10.674 7.39-.284 14.77-15.195 14.911-17.243 27.917 5.416 6.626 8.754 15.33 15.6 20.527.535 3.545-1.418 4.602-2.463 6.569-.127 2.317 2.322 2.058 3.285 3.284-2.066 6.692-10.908 6.609-13.138 13.137h-.821c-5.127-8.557-11.356-16.013-15.6-25.453-4.245 4.122-8.191 11.463-7.39 18.064-4.159.094-5.813.86-7.39 4.926-5.646-1.196-7.876-5.81-13.138-7.39V67.5c6.308-8.745 11.756-18.35 17.243-27.917-2.919-6.934-6.61-13.097-13.137-16.422 2.22-5.985 4.687-4.893 1.642-11.495C9.687 8.237 13.43 5.14 17.767 2.633c5.744 4.383 7.903 12.35 13.959 16.422 1.74-5.924 4.888-10.147 7.39-15.601 1.681-.724 3.452 1.1 4.926.41 1.421-.655 1.406-2.75 2.669-3.49M32.548 24.802c-8.648-2.847-8.323-14.668-16.422-18.064-.815 3.565-5.31 3.449-6.569 6.569 6.842 6.022 12.782 12.946 16.422 22.17-4.82 10.234-12.282 17.825-15.6 29.559 2.02 1.538 4.548 2.567 6.568 4.105 4.989-8.422 6.71-20.113 14.78-25.454 5.586 7.003 8.456 16.724 14.78 22.99 1.3-3.078 2.489-6.268 6.568-6.568-4.09-8.226-10.314-14.318-15.6-21.348-.437-13.463 11.08-16.865 17.242-27.096-9.466-15.23-13.44 10.206-22.17 13.137"/><path fill="#ff9400" d="M54.716 11.665c-6.162 10.231-17.68 13.633-17.243 27.096 5.287 7.03 11.511 13.122 15.601 21.348-4.08.3-5.268 3.49-6.569 6.569-6.323-6.267-9.193-15.988-14.78-22.99-8.07 5.34-9.79 17.031-14.779 25.453-2.02-1.538-4.549-2.567-6.569-4.105 3.32-11.735 10.781-19.325 15.601-29.56-3.64-9.223-9.58-16.147-16.422-22.17 1.26-3.12 5.754-3.003 6.569-6.568 8.1 3.396 7.774 15.217 16.422 18.064 8.729-2.931 12.703-28.366 22.17-13.137"/></svg>