<svg xmlns="http://www.w3.org/2000/svg" width="242.644" height="247.718" viewBox="0 0 242.644 247.718"><g fill="none" fill-rule="evenodd" stroke-linecap="none" stroke-linejoin="none" stroke-miterlimit="10" stroke-width="none" data-paper-data="{&quot;isPaintingLayer&quot;:true}" font-family="none" font-size="none" font-weight="none" style="mix-blend-mode:normal" text-anchor="none"><g stroke-linejoin="miter" data-paper-data="{&quot;index&quot;:null}"><path fill="#d974e8" stroke="#5e154d" stroke-linecap="butt" stroke-width=".6" d="M206.805 94.496h-2.266v-30.15h4.532v30.15z"/><path fill="#8b49d4" stroke="#5e154d" stroke-linecap="butt" stroke-width=".6" d="M180.41 71.81h17.918a9.15 9.15 0 0 0 6.211-3.522v22.308a9.15 9.15 0 0 0-6.21-3.523h-17.92a7.635 7.635 0 0 1-7.638-7.631 7.635 7.635 0 0 1 7.638-7.632z"/><path fill="#8b49d4" stroke="#5e154d" stroke-linecap="butt" stroke-width=".6" d="M185.067 98.27h-4.196V87.073h4.196z"/><path stroke="#fff" stroke-linecap="butt" stroke-width=".6" d="M176.674 79.526a4.195 4.195 0 0 1 4.197-4.194"/><path stroke="#5e154d" stroke-linecap="round" stroke-width="1.2" d="M225.815 79.442h-7.134M218.681 90.973l5.456 5.41M218.681 67.91l5.456-5.409"/></g><g stroke-linecap="butt" stroke-linejoin="miter" stroke-width="1" data-paper-data="{&quot;index&quot;:null}"><path fill="#f7c1d8" d="M6.547 104.769c0-4.403 2.14-6.5 5.917-6.5h180.828a7.34 7.34 0 0 1 6.673 6.458l7.05 45.12 24.843 17.317a8.68 8.68 0 0 1 4.449 8.89v17.57H6.547z"/><path fill="#da53d6" d="M236.307 192.492v37.11H208.19a25.36 25.36 0 0 0-7.464-18.222 25.4 25.4 0 0 0-18.26-7.4 24.6 24.6 0 0 0-17.881 7.504 24.56 24.56 0 0 0-6.88 18.118H84.142c-.562-13.987-12.073-25.037-26.081-25.037-14.01 0-25.52 11.05-26.082 25.037H6.548v-37.11z"/></g><path fill="#5e154d" stroke="#5e154d" stroke-linecap="round" stroke-linejoin="round" stroke-width="1.512" d="M115.95 98.27h-5.245V86.15h5.246zM45.197 98.144h-5.245V86.025h5.245z" data-paper-data="{&quot;index&quot;:null}"/><g stroke-linecap="butt" data-paper-data="{&quot;index&quot;:null}"><path fill="#b3e0d7" d="M191.782 117.726c2.014 0 3.902.503 4.448 4.193l4.868 33.546a3.35 3.35 0 0 1-1.427 2.684l-10.155-40.633zM185.823 117.768l10.323 41.387h-9.736a3.65 3.65 0 0 1-3.65-3.648v-34.133a3.69 3.69 0 0 1 3.063-3.606"/><path fill="#d4fff5" d="M186.41 117.726h3.106l10.155 40.633c-.671.522-1.5.803-2.35.796h-1.175l-10.323-41.387z"/><path stroke="#5e154d" stroke-linejoin="round" stroke-width="1.512" d="M185.823 117.768h5.959c2.014 0 3.902.503 4.448 4.193l4.868 33.546a3.35 3.35 0 0 1-1.427 2.684c-.671.522-1.5.803-2.35.796h-10.91a3.65 3.65 0 0 1-3.652-3.648v-33.965a3.69 3.69 0 0 1 3.064-3.606z"/></g><g data-paper-data="{&quot;index&quot;:null}"><path fill="#b3e0d7" d="M60.389 126.154v44.91h-8.98l-11.247-44.91z"/><path fill="#d4fff5" d="m40.161 126.154 11.247 44.91h-6.043l-11.246-44.91zM30.72 126.154l11.204 44.91h-3.4l-11.246-44.91z"/><path fill="#b3e0d7" d="m34.119 126.154 11.246 44.91h-3.441l-11.205-44.91zM25.893 126.154h1.385l11.247 44.91H25.893z"/><g stroke="#5e154d" stroke-linejoin="round" stroke-width="1.512"><path fill="#996cd4" stroke-linecap="round" d="M109.068 175.593H21.361v-4.529h87.707z"/><path fill="#ea3681" stroke-linecap="butt" d="M25.558 109.298h79.314l3.693 16.856h-86.7z"/><path fill="#43c3d7" stroke-linecap="round" d="M104.494 171.064H60.39v-44.91h44.105z"/><path fill="#5e154d" stroke-linecap="round" d="M104.494 182.721h-4.196v-7.128h4.196zM29.544 182.721h-4.196v-7.128h4.196z"/><path stroke-linecap="round" d="M60.389 171.064H25.893v-44.91H60.39z"/></g></g><g stroke-linecap="butt" data-paper-data="{&quot;index&quot;:null}"><path fill="#fc9fe4" stroke="#5e154d" stroke-linejoin="round" stroke-width="1.512" d="M127.323 117.726h43.896a3.65 3.65 0 0 1 3.65 3.648v75.73c-12.16 1.952-21.811 11.277-24.171 23.356h-23.29a3.65 3.65 0 0 1-3.61-3.606v-95.48a3.65 3.65 0 0 1 3.525-3.648z"/><path fill="#b3e0d7" d="M167.316 126.574v33.084H162.7l-8.267-33.084z"/><path fill="#d4fff5" d="m154.433 126.574 8.267 33.084h-6.085l-8.225-33.084z"/><path fill="#b3e0d7" d="m148.39 126.574 8.225 33.084h-3.4l-8.224-33.084z"/><path fill="#d4fff5" d="m144.99 126.574 8.226 33.084h-3.441l-8.226-33.084z"/><path fill="#b3e0d7" d="M131.226 126.574h10.323l8.226 33.084h-18.55z"/><path stroke="#d974e8" stroke-linejoin="round" stroke-width="1.512" d="M167.316 180.038h-4.197v-9.016h4.197z"/></g><g stroke-linejoin="miter" data-paper-data="{&quot;index&quot;:null}"><g stroke-linecap="butt"><path fill="#f7c1d8" stroke="#5e154d" stroke-width="2.016" d="M241.636 206.413h-5.371v-10.86h5.371z"/><path stroke="#fc9fe4" stroke-width="1.512" d="M221.997 211.026h-8.393v-4.655h8.393z"/><path fill="#8b49d4" stroke="#5e154d" stroke-width="2.016" d="M6.547 206.413H1.008v-10.86h5.54z"/><path stroke="#000" stroke-width="2.016" d="M196.734 171.022h-10.87M185.865 175.802h10.869M196.734 180.625h-10.87"/><path stroke="#5e154d" stroke-width="2.016" d="M12.464 98.27h180.828a7.34 7.34 0 0 1 6.673 6.457l7.05 45.12 24.843 17.317a8.68 8.68 0 0 1 4.449 8.89v53.548H208.19a25.74 25.74 0 0 0-7.68-18.298 25.78 25.78 0 0 0-18.422-7.407c-13.574.971-24.176 12.11-24.466 25.705H84.141c-.07-14.356-11.735-25.957-26.102-25.956-14.352 0-25.18 13.502-25.557 25.956H6.547V104.769c0-4.403 2.14-6.5 5.917-6.5z"/></g><path fill="#d974e8" stroke="#5e154d" stroke-linecap="butt" stroke-width="2.016" d="M233.285 216.56v-10.189h6.463v23.23h-12.883v-13.04z"/><path fill="#fdbb38" stroke="#5e154d" stroke-linecap="butt" stroke-width="1.512" d="M182.76 209.39c-11.849.32-21.218 10.132-20.983 21.973h-6.253a27.38 27.38 0 0 1 12.824-25.886 27.42 27.42 0 0 1 28.906 0 27.38 27.38 0 0 1 12.824 25.886h-6.252c.234-11.873-9.186-21.698-21.067-21.973zM58.71 209.39c-11.838.343-21.194 10.141-20.982 21.973h-6.253a27.38 27.38 0 0 1 12.824-25.886 27.42 27.42 0 0 1 28.906 0 27.38 27.38 0 0 1 12.824 25.886h-6.21c.21-11.88-9.222-21.698-21.109-21.973z"/><path stroke="#fff" stroke-linecap="round" stroke-width="1.512" d="M230.306 219.79v5.87"/></g><g stroke-linejoin="miter" data-paper-data="{&quot;index&quot;:null}"><g stroke="#fff" stroke-linecap="round" stroke-width="2.52"><path d="M12.003 114.833v-6.29a4.66 4.66 0 0 1 5.036-5.2h5.623M26.439 103.343h3.357"/></g><g stroke="#cc48cc" stroke-linecap="round" stroke-width="1.512"><path d="m112.006 199.872 3.147 2.18M97.654 197.9l-.923 3.733M106.173 212.955l-.462-3.816M135.674 224.15l3.61 1.342M226.865 200.375l-3.484-1.636M217.213 218.615l1.133 3.69M205.588 202.89l1.93-3.312M188.089 197.398l3.819.251M167.82 203.939l2.853-2.6M156.363 216.267v-3.858M95.346 221.676l.923-3.732M86.869 207.63l3.147 2.18M78.518 198.194l-2.266 3.145M62.32 197.523l-3.862.21M42.05 198.11l2.644 2.852M29.25 206.58l3.106-2.264M23.04 200.207l-3.61-1.342M15.192 210.606l-.63-3.774M15.234 222.809l1.763-3.397M24.257 214.716l3.147 2.222M110.915 221.09l3.609-1.259"/></g><path stroke="#5e154d" stroke-linecap="butt" stroke-width="1.512" d="M167.316 159.616h-36.09v-33.042h36.09z"/><g stroke="#5e154d" stroke-linecap="round" stroke-width="1.512"><path fill="#fff" d="M108.733 126.155v4.822a4.824 4.824 0 0 1-4.826 4.822 4.824 4.824 0 0 1-4.826-4.822v-4.822z"/><path fill="#f7c1d8" d="M98.913 126.155v4.822a4.82 4.82 0 0 1-2.263 4.548 4.83 4.83 0 0 1-5.084 0 4.82 4.82 0 0 1-2.263-4.548v-4.822z"/><path fill="#fff" d="M89.303 126.155v4.822a4.824 4.824 0 0 1-4.826 4.822 4.824 4.824 0 0 1-4.826-4.822v-4.822z"/><path fill="#f7c1d8" d="M79.65 126.155v4.822a4.82 4.82 0 0 1-2.263 4.548 4.83 4.83 0 0 1-5.083 0 4.82 4.82 0 0 1-2.263-4.548v-4.822z"/><path fill="#fff" d="M70.04 126.155v4.822a4.824 4.824 0 0 1-4.825 4.822 4.824 4.824 0 0 1-4.826-4.822v-4.822z"/><path fill="#f7c1d8" d="M60.389 126.155v4.822a4.824 4.824 0 0 1-4.826 4.822 4.824 4.824 0 0 1-4.826-4.822v-4.822z"/><path fill="#fff" d="M50.737 126.155v4.822a4.82 4.82 0 0 1-2.264 4.548 4.83 4.83 0 0 1-5.083 0 4.82 4.82 0 0 1-2.263-4.548v-4.822z"/><path fill="#f7c1d8" d="M41.127 126.155v4.822a4.824 4.824 0 0 1-4.826 4.822 4.824 4.824 0 0 1-4.826-4.822v-4.822z"/><path fill="#fff" d="M31.475 126.155v4.822a4.82 4.82 0 0 1-2.264 4.548 4.83 4.83 0 0 1-5.083 0 4.82 4.82 0 0 1-2.263-4.548v-4.822z"/></g><path fill="#5e154d" stroke="#5e154d" stroke-linecap="round" stroke-width="2.016" d="M182.843 246.71c-9.201 0-16.66-7.453-16.66-16.647s7.459-16.647 16.66-16.647 16.66 7.453 16.66 16.647-7.459 16.647-16.66 16.647z"/></g><path fill="#c5a2fc" stroke="#c5a2fc" stroke-linecap="butt" stroke-linejoin="miter" stroke-width="1.008" d="M182.843 238.91c-4.89 0-8.855-3.96-8.855-8.847s3.965-8.848 8.855-8.848 8.855 3.961 8.855 8.848c0 4.886-3.965 8.848-8.855 8.848z" data-paper-data="{&quot;index&quot;:null}"/><path fill="#fff" stroke="#8b49d4" stroke-linecap="round" stroke-linejoin="round" stroke-width="1.512" d="M182.843 235.262a5.2 5.2 0 0 1-5.204-5.2c0-2.87 2.33-5.199 5.204-5.199a5.2 5.2 0 0 1 5.204 5.2c0 2.872-2.33 5.2-5.204 5.2" data-paper-data="{&quot;index&quot;:null}"/><path fill="#5e154d" stroke="#5e154d" stroke-linecap="round" stroke-linejoin="round" stroke-width="2.016" d="M58.71 246.71c-9.201 0-16.66-7.453-16.66-16.647s7.459-16.647 16.66-16.647 16.66 7.453 16.66 16.647-7.459 16.647-16.66 16.647" data-paper-data="{&quot;index&quot;:null}"/><path fill="#c5a2fc" stroke="#c5a2fc" stroke-linecap="butt" stroke-linejoin="miter" stroke-width="1.008" d="M58.71 238.91c-4.89 0-8.855-3.96-8.855-8.847s3.965-8.848 8.855-8.848 8.855 3.961 8.855 8.848c0 4.886-3.965 8.848-8.855 8.848z" data-paper-data="{&quot;index&quot;:null}"/><path fill="#fff" stroke="#8b49d4" stroke-linecap="round" stroke-linejoin="round" stroke-width="1.512" d="M58.71 235.262a5.2 5.2 0 0 1-5.204-5.2c0-2.87 2.33-5.199 5.204-5.199a5.2 5.2 0 0 1 5.204 5.2c0 2.872-2.33 5.2-5.204 5.2" data-paper-data="{&quot;index&quot;:null}"/><g stroke-linejoin="miter" data-paper-data="{&quot;index&quot;:null}"><path fill="#fde982" stroke="#e89f1f" stroke-linecap="butt" stroke-width="1.512" d="M136.597 84.977c-.377 1.929-4.196 13.963-4.196 13.963-3.105 2.726-33.11 7.59-62.948.88-28.83-6.499-47.085-28.178-48.218-32.37l4.742-12.329 69.579-35.684z"/><path stroke="#fff" stroke-linecap="round" stroke-width="1.512" d="M129.715 88.96s-32.607 5.955-59.003-.545A78.6 78.6 0 0 1 29 60.908"/><g stroke="#fdbb38"><path stroke-linecap="round" stroke-width="2.016" d="m74.321 38.558-2.35 9.057"/><path stroke-linecap="butt" stroke-width="2.1" d="m111.8 62.208-14.202 8.156-8.162-14.19 14.202-8.157z"/><path stroke-linecap="butt" stroke-width="1.512" d="m101.611 41.579-14.137 8.156-8.162-14.127 14.137-8.155z"/><path fill="#fdbb38" stroke-linecap="butt" stroke-width="1.512" d="m95.84 44.86-8.36 4.822-4.825-8.352 8.359-4.822z"/><path stroke-linecap="butt" stroke-width="1.512" d="m60.22 46.483 14.101-7.925 8.141 14.131-14.1 8.135zM93.636 72.192l-14.137 8.156-8.163-14.126 14.138-8.156zM94.087 85.187a80 80 0 0 1-8.687-.84l11.54-6.666 4.197 7.548a57 57 0 0 1-7.05-.043zM56.654 74.494 66.264 69l7.512 13.04a76 76 0 0 1-9.023-3.396c-4.448-2.013-8.1-4.151-8.1-4.151zM113.223 84.474c-3.735.377-5.707.377-5.707.377l-5.456-10.064 14.142-8.135 8.142 14.132-4.994 2.851s-2.392.461-6.127.839zM44.316 64.85a75 75 0 0 1-5.707-5.745L55.1 49.586l8.141 14.09-12.044 6.96s-3.105-2.348-6.882-5.787z"/><path fill="#fdbb38" stroke-linecap="butt" stroke-width="1.512" d="m76.801 55.951-8.359 4.822-4.826-8.352 8.36-4.822zM43.393 63.969l9.736-5.577 4.826 8.344-6.757 3.9zM107.2 64.549l-8.36 4.822-4.825-8.352 8.358-4.823zM87.9 75.422l-8.358 4.822-4.826-8.352 8.359-4.823zM105.208 80.616l8.98-5.2 4.826 8.387-11.498 1.048z"/><path stroke-linecap="butt" stroke-width="1.512" d="m104.83 47.154-2.476 9.057M85.442 58.098 83.05 67.03M114.188 75.416l2.014-8.764M53.129 58.392l1.972-8.806M64.25 78.393l2.014-9.392M96.773 77.68l-1.553 7.548"/></g></g><path fill="#fff" stroke="#fc9fe4" stroke-linecap="round" stroke-linejoin="round" stroke-width="1.512" d="M91.4 18.682a15.28 15.28 0 0 1 16.787 3.103 9.47 9.47 0 0 1-1.595 13.796c-4.658 2.515-5.917 0-9.19 1.51-2.602 1.215-2.686 3.773-6.798 4.528-4.113.755-5.204-.587-8.058.67-2.853 1.259-3.944 6.5-8.393 6.08-5.33-.502-3.777-5.995-7.176-8.763s-7.721-.503-9.862-6.332c-1.762-4.948 2.392-8.848 7.26-9.183 6.085-.377 7.596 3.438 13.22 2.726 5.623-.713 8.35-6.206 13.806-8.135" data-paper-data="{&quot;index&quot;:null}"/><g stroke-linecap="butt" stroke-linejoin="miter" data-paper-data="{&quot;index&quot;:null}"><path fill="#43c3d7" stroke="#43c3d7" stroke-width="1.218" d="M74.909 7.402c-.882-2.851-1.763-6.248 0-6.793s4.742 4.529 4.742 4.529 1.427-5.745 3.609-5.41c2.182.336 2.182 6.164 2.182 6.164.63-.754 4.952-3.48 5.833-2.096s-2.224 5.577-2.224 5.577z"/><path fill="#ea3681" stroke="#ea3681" stroke-width="1.512" d="M85.232 30.968a7.137 7.137 0 0 1-12.044-1.929c-4.742-8.219-5.246-18.618-3.399-20.589 1.846-1.97 6.379-3.145 13.219-1.97 5.875 1.048 10.953 3.606 10.953 7.002a31.57 31.57 0 0 1-8.729 17.486z"/><path stroke="#fff" stroke-width="1.218" d="m80.154 12.476-1.133 1.593M87.12 16.208l-1.762-.839M74.53 18.43l-.838-1.719M83.26 20.569l-1.553 1.174M81.959 26.817l1.049 1.635M75.706 25.014l.797-1.762"/></g><path fill="#fff" stroke="#fc9fe4" stroke-linecap="round" stroke-linejoin="round" stroke-width="1.512" d="M72.013 35.58a10.75 10.75 0 0 1 7.973-3.27 9.95 9.95 0 0 1 8.393 3.27" data-paper-data="{&quot;index&quot;:null}"/><g data-paper-data="{&quot;index&quot;:null}"><g fill="#fff" stroke-linecap="butt" stroke-linejoin="miter" stroke-width="1"><path d="M91.023 143.934v-1.049h1.385v1.049c0 .713.881.335.881 1.132v1.51h-3.105v-1.51c0-.88.84-.42.84-1.132M93.29 146.576h.587c.354.022.63.316.63.67v2.349a.67.67 0 0 1-.63.67h-.588zM91.737 150.266h-2.14c-.371 0-.672-.3-.672-.671v-2.349c0-.37.3-.67.671-.67h3.693v3.69z"/></g><path fill="#f7c1d8" d="M93.29 153.159v-2.893h.923v1.886a1.8 1.8 0 0 0 1.3 1.971c1.05.462 1.05 1.845 1.05 3.271v10.986c0 1.258-.504 2.055-1.637 2.055h-.671v-14.592c.042-1.342-.966-1.133-.966-2.684"/><path fill="#ea3681" d="M87.75 154.123a1.8 1.8 0 0 0 1.3-1.97v-1.887h4.197v2.893c0 1.551 1.008 1.342 1.008 2.684v14.592h-5.75c-1.09 0-1.594-.797-1.594-2.055v-11.196c0-1.425 0-2.6.839-3.06"/><path stroke="#663c1d" stroke-linecap="round" stroke-linejoin="round" stroke-width="1.008" d="M89.219 150.769h-.294v-4.193h5.581v4.193h-.294zM91.023 143.934v-1.049h1.385v1.049c0 .713.881.335.881 1.132v1.51h-3.105v-1.51c0-.88.84-.42.84-1.132"/><path stroke="#663c1d" stroke-linecap="round" stroke-linejoin="round" stroke-width="1.008" d="M87.75 154.123a1.8 1.8 0 0 0 1.3-1.97v-1.887h5.163v1.887a1.8 1.8 0 0 0 1.3 1.97c1.05.462 1.05 1.845 1.05 3.271v10.986c0 1.258-.504 2.055-1.637 2.055h-6.42c-1.092 0-1.595-.797-1.595-2.055v-11.196c0-1.425 0-2.6.839-3.06"/></g><g data-paper-data="{&quot;index&quot;:null}"><g fill="#fff" stroke-linecap="butt" stroke-linejoin="miter" stroke-width="1"><path d="M78.602 143.934v-1.049h1.384v1.049c0 .713.84.335.84 1.132v1.51H77.72v-1.51c0-.88.882-.42.882-1.132M80.826 146.576h.587c.371 0 .672.3.672.67v2.349c0 .37-.3.67-.672.67h-.587z"/><path d="M79.357 150.266h-2.14a.67.67 0 0 1-.63-.671v-2.349c0-.354.275-.648.63-.67h3.693v3.69z"/></g><path fill="#fde982" d="M80.826 153.159v-2.893h.923v1.886a1.8 1.8 0 0 0 1.3 1.971c1.05.462 1.05 1.845 1.05 3.271v10.986c0 1.258-.504 2.055-1.595 2.055h-.713v-14.592c.042-1.342-.965-1.133-.965-2.684"/><path fill="#fdbb38" d="M75.496 154.123a1.8 1.8 0 0 0 1.301-1.97v-1.887h4.197v2.893c0 1.551 1.007 1.342 1.007 2.684v14.592h-5.707c-1.134 0-1.637-.797-1.637-2.055v-11.196c-.21-1.425-.21-2.6.84-3.06"/><path stroke="#663c1d" stroke-linecap="round" stroke-linejoin="round" stroke-width="1.008" d="M76.797 150.769h-.294v-4.193h5.582v4.193h-.294zM78.602 143.934v-1.049h1.384v1.049c0 .713.84.335.84 1.132v1.51H77.72v-1.51c0-.88.882-.42.882-1.132"/><path stroke="#663c1d" stroke-linecap="round" stroke-linejoin="round" stroke-width="1.008" d="M75.496 154.123a1.8 1.8 0 0 0 1.301-1.97v-1.887h4.952v1.887a1.8 1.8 0 0 0 1.301 1.97c1.05.462 1.05 1.845 1.05 3.271v10.986c0 1.258-.505 2.055-1.596 2.055h-6.42c-1.133 0-1.637-.797-1.637-2.055v-11.196c0-1.425 0-2.6 1.05-3.06"/></g></g></svg>