<svg xmlns="http://www.w3.org/2000/svg" id="Layer_2" width="800" height="800" data-name="Layer 2" viewBox="0 0 2050 2050"><defs><style>.cls-1{fill:#323150}.cls-2{fill:#67baeb}.cls-3{fill:#83d0fb}.cls-4{fill:#46a1f8}.cls-5{fill:#3171ad}.cls-6{fill:#f4c23f}.cls-7{fill:#4d4c78}.cls-8{fill:#f4a93f}.cls-9{fill:#64639c}.cls-10{fill:#fad564}</style></defs><title/><path d="M1241.2 435.5a20 20 0 0 1-20-19.1 196.4 196.4 0 0 0-392.1-5.8 20 20 0 0 1-39.9-2.8 236.4 236.4 0 0 1 472 6.9 20.1 20.1 0 0 1-19.2 20.8Z" class="cls-1"/><path d="M1025 352.8a551.1 551.1 0 0 1 551.1 551.1v1010.3H473.9V903.9A551.1 551.1 0 0 1 1025 352.8" class="cls-2"/><path d="M1233 393.4a286.7 286.7 0 0 0-97.5 215.7c0 158.7 128.7 287.4 287.4 287.4a286.4 286.4 0 0 0 151-42.7c-18.9-209-154.4-384.3-340.9-460.4" class="cls-3"/><path d="M624 855.5h813.8v31.8a73.3 73.3 0 0 1-73.3 73.3H624z" class="cls-4"/><path d="M739.2 1805.7V795.4c0-178.8 85.1-337.7 217.1-438.4-272 33.9-482.4 265.8-482.4 546.9v1010.3h1102.2v-108.5Z" class="cls-4"/><path d="M642.5 915.9c-30.3 0-53.9-26.6-49.8-56.6 12.1-89.7 53-172.5 118.1-237.6 78.5-78.6 183-121.9 294.2-121.9s215.7 43.3 294.2 121.9c65.1 65.1 106 147.9 118.1 237.6 4.1 30-19.5 56.6-49.8 56.6Z" class="cls-5"/><path d="M662.5 903.9c-30.3 0-53.9-26.6-49.8-56.6 12.1-89.7 53-172.5 118.1-237.6 78.5-78.6 183-121.9 294.2-121.9s215.7 43.3 294.2 121.9c65.1 65.1 106 147.9 118.1 237.6 4.1 30-19.5 56.6-49.8 56.6Z" class="cls-6"/><path d="M386.3 1444.9h87.6v469.3H358.2a74 74 0 0 1-74-74V1547a102.1 102.1 0 0 1 102.1-102.1" class="cls-4"/><path d="M663.4 1085.3h683.3a72.8 72.8 0 0 1 72.8 72.8v756.1h-829v-756.1a72.8 72.8 0 0 1 72.9-72.8" class="cls-5"/><path d="M683.4 1085.3h683.3a72.8 72.8 0 0 1 72.8 72.8v756.1h-829v-756.1a72.8 72.8 0 0 1 72.8-72.8Z" class="cls-6"/><rect width="257.7" height="131.58" x="896.2" y="159.4" class="cls-7" rx="65.8" ry="65.8"/><path d="M473.9 1444.9h-87.6A102.1 102.1 0 0 0 284.2 1547v142.6c0-63.4 40.6-114.8 90.8-114.8a53.6 53.6 0 0 1 53.7 53.7v285.7h45.2v-339.4Z" class="cls-5"/><rect width="94.9" height="166.43" x="284.2" y="1689.6" class="cls-2" rx="47.4" ry="47.4"/><path d="M1691.8 1914.2h-115.7v-469.3h87.6a102.1 102.1 0 0 1 102.1 102.1v293.1a74 74 0 0 1-74 74.1" class="cls-4"/><path d="M1576.1 1444.9h87.6a102.1 102.1 0 0 1 102.1 102.1v142.6c0-63.4-40.6-114.8-90.8-114.8a53.6 53.6 0 0 0-53.7 53.7v285.7h-45.2v-339.4Z" class="cls-5"/><rect width="94.9" height="166.43" x="1671" y="1689.6" class="cls-2" rx="47.4" ry="47.4" transform="matrix(-1 0 0 -1 3436.8 3545.6)"/><path d="M739.2 795.4a548.4 548.4 0 0 1 53.3-236.7 413.7 413.7 0 0 0-61.7 51c-65.1 65.1-106 147.9-118.1 237.6-4.1 30 19.5 56.6 49.8 56.6h76.7ZM739.2 1722.4v-637.1h-55.8a72.8 72.8 0 0 0-72.9 72.8v756.1h829v-108.5h-617a83.3 83.3 0 0 1-83.3-83.3" class="cls-8"/><rect width="162.1" height="64.16" x="947.3" y="161" class="cls-9" rx="32.1" ry="32.1"/><path d="M1317 1237.7H733a20 20 0 0 1 0-40h584a20 20 0 0 1 0 40" class="cls-1"/><path d="M1317 1313.9h-128.1a20 20 0 0 1-20-20v-76.2a20 20 0 0 1 20-20H1317a20 20 0 0 1 20 20v76.2a20 20 0 0 1-20 20" class="cls-7"/><rect width="113.5" height="47.68" x="1205.6" y="1197.7" class="cls-9" rx="23.8" ry="23.8"/><path d="M1319.2 609.7a413.7 413.7 0 0 0-158.5-99.4 262.5 262.5 0 0 0-27.1 116.3c0 145.3 117.8 263.1 263.1 263.1 9.2 0 18.3-.5 27.3-1.4a49.3 49.3 0 0 0 13.3-41c-12.1-89.7-53-172.5-118.1-237.6" class="cls-10"/><rect width="507.4" height="93.42" x="872.6" y="1085.3" class="cls-10" rx="46.7" ry="46.7"/><rect width="100.8" height="226.76" x="1337" y="1374.3" class="cls-10" rx="50.4" ry="50.4"/><rect width="56.7" height="288.47" x="1519.4" y="1010.3" class="cls-3" rx="28.4" ry="28.4"/></svg>