<svg xmlns="http://www.w3.org/2000/svg" xml:space="preserve" width="192.342" height="95.238" viewBox="33.796 62.034 192.342 95.238"><title>panther-c</title><g fill-rule="evenodd"><path fill="#493c59" d="m77.05 138.34-11.594-.08s-22.902-.122-22.902 5.571c0 3.742 13.912 7.442 36.895 7.442 37.506.488 41.492-2.562 42.02.244.233 1.236-1.627 3.456-18.386 4.677-20.176 1.468-49.953.122-61.668-3.823-6.387-2.155-7.119-7.808-7.119-8.947 0-1.423.407-9.476 22.7-11.02 5.132-.401 8.687-.414 9.64-2.238 1.423-2.724 0-12.525-.448-14.152-.447-1.627 21.844 13.583 10.861 22.327"/><path fill="none" stroke="#2a0d37" stroke-width=".5" d="m77.05 138.34-11.594-.08s-22.902-.122-22.902 5.571c0 3.742 13.912 7.442 36.895 7.442 37.506.488 41.492-2.562 42.02.244.233 1.236-1.627 3.456-18.386 4.677-20.176 1.468-49.953.122-61.668-3.823-6.387-2.155-7.119-7.808-7.119-8.947 0-1.423.407-9.476 22.7-11.02 5.132-.401 8.687-.414 9.64-2.238 1.423-2.724 0-12.525-.448-14.152-.447-1.627 21.844 13.583 10.861 22.327Z"/><path fill="#3a314f" d="m165.163 110.315-9.112 21.635s-1.736 3.715 0 5.206c1.735 1.49 5.26 1.49 18.278 1.49h49.301s2.061-4.907 2.007-7.347-.483-3.048-1.735-3.578c-1.953-.827-13.722 3.036-17.14 3.036-3.416 0-24.718-5.965-24.718-5.965l6.82-11.874"/><path fill="none" stroke="#2a0d37" stroke-width=".5" d="m165.163 110.315-9.112 21.635s-1.736 3.715 0 5.206c1.735 1.49 5.26 1.49 18.278 1.49h49.301s2.061-4.907 2.007-7.347-.483-3.048-1.735-3.578c-1.953-.827-13.722 3.036-17.14 3.036-3.416 0-24.718-5.965-24.718-5.965l6.82-11.874"/><path fill="#2a0d37" d="M213.366 132.18s.233-.096.65-.234c.42-.132 1.02-.332 1.758-.504.737-.173 1.608-.347 2.578-.384.484-.01.998-.01 1.536.166.264.09.56.238.762.536l.067.114c.014.028.014.018.039.078l.015.045.064.176c.045.11.076.252.107.392.11.551.126 1.066.084 1.583-.027.516-.142 1.013-.279 1.483-.15.466-.33.909-.58 1.288a3.8 3.8 0 0 1-.821.971 2.9 2.9 0 0 1-.918.547c-.287.141-.572.148-.786.204-.222.023-.399.004-.516.008l-.18-.002s.253-.043.672-.13c.2-.086.461-.128.707-.3.26-.134.517-.347.765-.599.242-.26.472-.572.654-.94.2-.356.329-.774.452-1.204.11-.434.179-.895.203-1.365a5.1 5.1 0 0 0-.09-1.389c-.019-.105-.034-.21-.082-.333l-.06-.177-.016-.044c.012.032-.005-.005-.006-.004l-.026-.048c-.077-.125-.241-.23-.44-.298-.399-.136-.87-.183-1.322-.187-.91-.01-1.777.09-2.517.179-.74.098-1.362.182-1.793.26z"/><path fill="#493c59" d="M202.204 94.36c3.69-19.391-12.034-24.292-12.034-24.292s-1.58.613-4.943 2.584c-5.37 3.144-4.638 4.34-10.36 14.42-.855 1.505-7.168-2.935-12.679-2.657-4.113.207-6.35 2.196-13.428 5.409s-8.419 2.851-14.924 2.644c-8.909-.285-21.438-8.338-39.582-7.388-10.703.561-22.642 8.575-25.584 10.6-1.526 1.05-5.391 4.88-5.391 7.237 0 4.924 3.316 19.173 3.926 21.84 1.058 4.628 2.522 13.787 9.803 13.787h78.062c10.657 0 38.785-16.04 40.982-23.483 2.115-7.168 2.136-16.819 3.357-18.608 1.445-2.12 5.733-2.417 5.733-2.417"/><path fill="none" stroke="#2a0d37" stroke-width=".5" d="M202.204 94.36c3.69-19.391-12.034-24.292-12.034-24.292s-1.58.613-4.943 2.584c-5.37 3.144-4.638 4.34-10.36 14.42-.855 1.505-7.168-2.935-12.679-2.657-4.113.207-6.35 2.196-13.428 5.409s-8.419 2.851-14.924 2.644c-8.909-.285-21.438-8.338-39.582-7.388-10.703.561-22.642 8.575-25.584 10.6-1.526 1.05-5.391 4.88-5.391 7.237 0 4.924 3.316 19.173 3.926 21.84 1.058 4.628 2.522 13.787 9.803 13.787h78.062c10.657 0 38.785-16.04 40.982-23.483 2.115-7.168 2.136-16.819 3.357-18.608 1.445-2.12 5.733-2.417 5.733-2.417"/><path fill="#493c59" d="M187.943 83.404s1.39 7.016 6.486 9.897c3.406 1.925 8.362.996 12.346.533 3.982-.464 7.722-.536 8.754-.87.98-.317 5.411-2.039 6.06-3.257.94-1.76 2.128-5.694 2.128-5.694s.427-1.674-1.55-2.318c-1.976-.644-8.893-3.077-8.893-3.077s-2.068-4.888-2.364-5.447-.844-1.086-4.161-2.175c-3.32-1.092-8.704-3.025-9.324-3.197-.996-.274-2.174-.535-3.438-.026"/><path fill="#493c59" d="M186.172 77.059c-.638-3.727-6.625-8.656-3.243-12.117 3.382-3.46 11.15 2.84 12.485 3.78 1.957 1.375 2.876.692 2.876.692l.29 1.338s-2.183 4.144-2.213 4.252c-2.769 9.84-8.739 3.998-8.866 3.954-.13-.043-1.33-1.9-1.33-1.9"/><path fill="#493c59" d="M200.038 68.73s-5.391-7.39-8.79-6.005c-2.324.948-.695 7.179.16 8.499.855 1.318 7.093.865 7.424-.753.33-1.617 1.206-1.74 1.206-1.74"/><path fill="#6c5e7f" d="M194.379 74.856c-1.658 2.007-5.6 1.491-8.802-1.153-3.204-2.645-4.456-6.417-2.797-8.424 1.66-2.008 5.6-1.49 8.803 1.154 3.202 2.643 4.455 6.415 2.796 8.423"/><path fill="none" stroke="#2a0d37" stroke-width=".5" d="M187.943 83.404s1.39 7.016 6.486 9.897c3.406 1.925 8.362.996 12.346.533 3.982-.464 7.722-.536 8.754-.87.98-.317 5.411-2.039 6.06-3.257.94-1.76 2.128-5.694 2.128-5.694s.427-1.674-1.55-2.318c-1.976-.644-8.893-3.077-8.893-3.077s-2.068-4.888-2.364-5.447-.844-1.086-4.161-2.175c-3.32-1.092-8.704-3.025-9.324-3.197-.996-.274-2.174-.535-3.438-.026"/><path fill="#2a0d37" d="m186.837 78.233-.08-.347a7 7 0 0 0-.344-.941c-.34-.797-.974-1.861-1.765-3.118-.771-1.265-1.756-2.711-2.417-4.481-.304-.882-.53-1.892-.268-2.904.13-.498.389-.967.73-1.359.074-.094.18-.208.265-.29.093-.086.16-.18.28-.259.216-.174.456-.293.695-.405.986-.41 2.07-.374 3.042-.167.981.206 1.895.566 2.745.965 1.7.808 3.157 1.78 4.374 2.642.608.427 1.154.86 1.635 1.184.494.33.941.54 1.334.645.194.06.37.048.518.105.15.045.286.067.398.068.224.008.351-.034.351-.034s-.077.115-.308.223a1.8 1.8 0 0 1-.451.145c-.19.055-.397-.026-.624-.067-.446-.117-.96-.364-1.469-.704-.519-.35-1.04-.767-1.649-1.194-1.204-.854-2.645-1.812-4.304-2.6-.828-.39-1.714-.738-2.643-.931-.921-.199-1.912-.22-2.77.14a4.3 4.3 0 0 0-.585.34c-.094.048-.193.144-.289.216a1.2 1.2 0 0 0-.25.238 3 3 0 0 0-.682 1.194c-.259.893-.083 1.856.193 2.717.595 1.736 1.54 3.213 2.278 4.495.759 1.277 1.357 2.369 1.675 3.179.167.4.257.731.316.956z"/><path fill="none" stroke="#2a0d37" stroke-width=".5" d="M194.379 74.856c-1.658 2.007-5.6 1.491-8.802-1.153-3.204-2.645-4.456-6.417-2.797-8.424 1.66-2.008 5.6-1.49 8.803 1.154 3.202 2.643 4.455 6.415 2.796 8.423Z"/><path fill="#fcbe8d" d="M210.266 80.376s-.207-2.392-2.348-2.719c-1.983-.302-1.6-.218-2.416-.37-.542-.1-1.488-.415-1.961-.931 0 0 .371 3.4 3.071 3.566 1.81.11 2.5.07 3.654.454"/><path fill="none" stroke="#2a0d37" stroke-width=".5" d="M189.998 65.177s.074-1.857 1.25-2.452c1.175-.594 4.185-.112 8.79 6.006"/><path fill="#2a0d37" d="M209.029 78.812c.047.666-.303 1.234-.783 1.267-.48.034-.907-.478-.953-1.145-.048-.667.303-1.235.783-1.268.479-.034.906.48.953 1.146"/><path fill="none" stroke="#2a0d37" stroke-width=".5" d="M210.266 80.376s-.494-2.448-2.222-2.7c-1.985-.29-1.725-.237-2.542-.389-.542-.1-1.488-.415-1.961-.931 0 0 .371 3.4 3.071 3.566 1.81.11 2.5.07 3.654.454Z"/><path fill="#2a0d37" d="M222.889 82.036s-2.86.147-2.831 1.596c.037 1.782 2.961 1.918 3.15 1.972 0 0 .48-1.598.417-2.273a1.82 1.82 0 0 0-.737-1.295"/><path fill="#493c59" d="m154.663 110.213-9.112 21.635s-1.736 3.714 0 5.205 5.26 1.491 18.278 1.491h49.302s2.06-4.907 2.006-7.347-.483-3.048-1.735-3.579c-1.953-.827-13.722 3.037-17.14 3.037-3.416 0-24.718-5.965-24.718-5.965l6.82-11.875"/><path fill="none" stroke="#2a0d37" stroke-width=".5" d="m154.663 110.213-9.112 21.635s-1.736 3.714 0 5.205 5.26 1.491 18.278 1.491h49.302s2.06-4.907 2.006-7.347-.483-3.048-1.735-3.579c-1.953-.827-13.722 3.037-17.14 3.037-3.416 0-24.718-5.965-24.718-5.965l6.82-11.875"/><path fill="#2a0d37" d="M202.866 132.078s.233-.096.65-.234c.42-.132 1.02-.332 1.758-.504.737-.173 1.608-.347 2.578-.385.484-.01.998-.01 1.536.167.264.09.56.238.762.535l.067.114c.014.028.014.019.039.078l.015.045.064.177c.045.109.076.251.107.391.11.552.126 1.066.084 1.584-.027.516-.142 1.013-.279 1.482-.15.467-.33.91-.58 1.289a3.8 3.8 0 0 1-.821.971 2.9 2.9 0 0 1-.918.547c-.287.141-.572.147-.786.203-.222.024-.399.005-.516.008l-.18-.002s.253-.042.672-.13c.2-.086.462-.127.707-.298.26-.135.517-.348.765-.6.242-.26.472-.572.654-.94.2-.356.329-.774.452-1.204.11-.434.179-.896.203-1.366.035-.464 0-.96-.09-1.388-.019-.105-.034-.21-.082-.333l-.06-.177-.016-.044c.012.031-.005-.005-.006-.004l-.026-.048c-.077-.125-.241-.23-.44-.299-.399-.136-.87-.182-1.322-.186-.91-.01-1.777.09-2.517.179-.74.098-1.362.182-1.792.26zM163.897 125.612l.31-.177c.203-.094.509-.202.885-.328.188-.056.394-.147.613-.179.218-.041.449-.089.689-.124.48-.085.995-.15 1.51-.217.258-.034.517-.018.77-.03.254-.009.505.002.748.002.484.007.937.026 1.323.056.774.05 1.287.143 1.287.143s-.513.127-1.278.23c-.381.055-.827.105-1.304.144-.239.016-.484.044-.735.052-.25.018-.507.011-.758.05-.504.053-1.008.108-1.484.136-.237.02-.469.026-.689.036-.222.004-.414.047-.605.062-.373.047-.699.061-.927.088z"/><path fill="#493c59" d="M76.56 121.586s2.564 2.968 1.628 7.767c-.936 4.798-5.82 6.425-4.153 9.19.204.407 19.692 0 27.38 0h30.143l2.652-6.1s1.7-3.944-.619-5.286-7.769.163-12.65 1.302c-4.881 1.138-12.082 1.696-17.573 1.696 0 0 5.54-9.593 8.38-17.923 3.132-9.191 3.229-12.393.61-15.495-4.19-4.961-19.282-5.775-29.492-2.521"/><path fill="none" stroke="#2a0d37" stroke-width=".5" d="M76.56 121.586s2.564 2.968 1.628 7.767c-.936 4.798-5.82 6.425-4.153 9.19.204.407 19.692 0 27.38 0h30.143l2.652-6.1s1.7-3.944-.619-5.286-7.769.163-12.65 1.302c-4.881 1.138-12.082 1.696-17.573 1.696 0 0 5.54-9.593 8.38-17.923 3.132-9.191 3.229-12.393.61-15.495-4.19-4.961-19.282-5.775-29.492-2.521"/><path fill="#2a0d37" d="M119.11 131.386s.31-.136.868-.327c.561-.182 1.363-.462 2.367-.651a12 12 0 0 1 1.647-.208c.592-.012 1.255-.021 1.915.34.327.17.614.545.708.907.098.293.19.662.234 1a7.1 7.1 0 0 1-.004 2.09 9.8 9.8 0 0 1-.537 2c-.136.318-.212.615-.483.96-.246.3-.562.5-.874.642-.629.28-1.258.363-1.842.43-.586.063-1.137.081-1.645.093-1.014.02-1.857-.037-2.446-.058a32 32 0 0 1-.924-.06l.924-.066c.587-.03 1.427-.097 2.427-.177a19 19 0 0 0 1.6-.195c.557-.096 1.142-.235 1.664-.48.256-.128.487-.292.646-.502.14-.166.25-.517.366-.807a9 9 0 0 0 .482-1.874 6.7 6.7 0 0 0 .022-1.907 6 6 0 0 0-.198-.917.9.9 0 0 0-.419-.583c-.45-.271-1.061-.33-1.611-.354a11 11 0 0 0-1.594.093c-.988.133-1.817.278-2.39.408z"/></g></svg>