<svg xmlns="http://www.w3.org/2000/svg" width="119.54" height="145.345" viewBox="0.458 0.122 119.54 145.345"><path fill="#828c00" d="M34.628 108.484c-5.653-.447-20.551 7.923-20.946 8.068-.688 5.238 1.165 13.719-.799 18.763-.783 2.003-2.504 3.738-4.118 5.102a21.5 21.5 0 0 1-3.446 2.532c-1.384.744-2.949.793-4.361 1.396 1.281.909 3.541.562 5.015.533 2.059-.045 4.06.05 6.099-.107 4.2-.335 9.281-.207 13.098-2.115 3.735-1.872 4.941-6.131 5.81-9.956.556-2.409 4.389-22.564 3.648-24.216M65.418 100.527h15.235c-3.553 18.102-6.621 38.419-6.958 42.207 1.136.393 2.215.05 3.261.137l.103 1.061c-1.491-.087-7.865.178-9.376-.227 0-1.285-2.265-43.178-2.265-43.178"/><path fill="#a0aa1e" d="M13.732 111.541c.128-9.361-.333-22.238 7-29.331 1.347-1.301 3.2-2.065 4.637-3.144 2.19-1.652 4.776-2.858 7-4.498.72-.525 2.145-1.735 2.145-1.735l2.718-1.45-.112-2.533s1.866-5.11 2.17-6.791c2.002-10.976-.107-22.308 1.94-33.305a93 93 0 0 1 .774-3.738l30.31-3.838 31.183 2.065c3.627 2.71-.441 6.42-3.434 7.849-1.763.847-3.397 1.653-4.9 2.946-.326.281-3.051 2.375-3.953 5.056-1.371 4.094-1.005 9.572-1.1 12.228-.177 5.003.103 10.055.293 15.054.374 9.894.778 19.416-.713 29.248-.679 4.498-1.412 8.77-4.158 12.508-2.883 3.921-6.305 7.155-10.966 8.841-8.614 3.111-48.959 2.123-51.808 1.83-2.965-.306-6.069.19-9.001-.182-.428-2.189-.058-4.841-.025-7.08"/><path fill="#a0aa1e" d="M55.941 99.395s-10.565 37.514-10.565 43.864c.568.099 3.545-.31 3.977.306-.362 1.26-7.696.45-9.182.206-.457-1.367-2.347-43.244-2.347-43.244zM100.63 49.41c-.589 0-.297-2.942-.672-2.942-.374 0-.21 2.859-.881 2.813s-.251-2.726-.877-2.726-.037 5.655-.062 7.283c-.037 2.202.058 4.412-.037 6.61-.086 1.966-.378 3.916-1.383 5.639-.585 1.003-4.237 3.565-8.133 3.883-3.961.326-8.173-1.595-9.227-1.405a35 35 0 0 1-.045 4.04l.325.566c1.317.083 4.809 1.587 9.689 1.19 3.393-.273 7.374-2.111 8.148-2.627 2.656-1.768 3.797-4.809 3.966-7.688.16-2.722.226-5.466.3-8.196.066-2.429.606-8.713 0-8.882-.605-.169-.527 2.442-1.111 2.442"/><path fill="#828c00" d="M56.155 48.996c-.589 0-.296-2.941-.671-2.941s-.21 2.859-.881 2.813c-.672-.045-.252-2.726-.877-2.726-.626 0-.037 5.655-.062 7.283-.037 2.202.057 4.412-.037 6.61-.087 1.966-.379 3.916-1.384 5.639-.584 1.003-4.237 3.565-8.132 3.883a18.6 18.6 0 0 1-6.959-.719l-2.606 3.982s5.427 1.525 10.294 1.128c3.393-.273 7-1.619 7.761-2.136 2.656-1.772 4.184-5.3 4.353-8.179.16-2.723.226-5.466.3-8.196.066-2.429.606-8.713 0-8.882-.605-.169-.514 2.441-1.099 2.441"/><path fill="#fff" d="M86.814 22.364c-.478 2.325-.47 6.931 2.557 7.559l1.111-.524c1.409-2.115 1.647-4.404 1.722-6.87-1.82-.256-3.533-.033-5.39-.165M97.421 21.488h-3.5c-2.66 8.919 5.385 9.476 3.5 0"/><path fill="#dcd2b4" d="M85.059 20.133h-3.5c-2.66 8.923 5.386 9.476 3.5 0"/><path fill="#fff" d="M79.945 19.563h-3.504c-2.66 8.919 5.386 9.476 3.504 0"/><path fill="#fff" d="M74.918 18.708h-3.504c-2.673 8.918 5.369 9.476 3.504 0"/><path fill="linen" d="M102.539 20.703h-3.504c-2.66 8.923 5.386 9.476 3.504 0"/><path fill="#828c00" d="M68.033.94c2.631-.128 5.271-.07 7.906-.157C81.852.585 87.748.832 93.665.622c2.92.553 5.938.285 8.894.904a21.6 21.6 0 0 1 7.161 2.892c4.184 2.623 6.679 8.072 6.938 12.91.12 2.259-.44 4.874-2.528 6.114-2.314 1.371-5.765.826-8.314.896-6.588.141-13.176.227-19.764.137l-44.001.549a58 58 0 0 1 3.734-11.41 19.7 19.7 0 0 1 9.981-9.964C59.271 2.026 66.987.994 68.033.94"/><path fill="#645a1e" d="M108.728 20.955c.588 1.392 2.664 2.334 3.557.661 1.017-1.896-.967-3.049-2.52-3.049a5.45 5.45 0 0 0-1.037 2.388M102.745 18.249l-1.091.826c-.857 1.525.572 3.954 2.351 2.785 1.688-1.095.527-3.64-1.26-3.611"/><path d="M119.158 14.519c.292-.5.658-1.855-.161-2.037a1.153 1.153 0 0 0 .161 2.037M75.968 14.895c1.235 1.652 2.425-.959 1.103-1.517-.712.215-1.054.674-1.103 1.517"/></svg>