<svg xmlns="http://www.w3.org/2000/svg" width="128.425" height="133.76" viewBox="-0.284 -0.288 128.425 133.76"><path fill="#006482" d="M48.688 70.662 41.6 74.656c.74 5.192 13.532 8.355 24.356 9.046s21.028-4.98 21.028-4.98z"/><path fill="#e6be6e" d="m45.076 106.196-5.676-6.65 2.608-9.513 10.644-.488-3.172 10.377z"/><path fill="linen" d="M33.212 121.485 39.4 99.546l10.208.28-6.812 20.821z"/><path fill="#281446" d="m38.712 94.446 5.352-21.743 16.612-.032-7.328 22.426z"/><path fill="#00a0dc" d="m25.524 131.778 6.616-.859 10.18.623-.236 1.298-16.872.132z"/><path fill="#281446" d="M26.708 130.488a27 27 0 0 0 3.556-.428l2.8-12.529H44.72l-2.4 14.011-16.8.236q.237-.51.4-1.047.378-.17.788-.243"/><path fill="#00a0dc" d="M38.656 120.395c.849 0 1.618.344 2.174.9a3.06 3.06 0 0 1 .902 2.171 3.06 3.06 0 0 1-.902 2.172c-.556.556-1.325.9-2.174.9a3.07 3.07 0 0 1-2.174-.9 3.06 3.06 0 0 1-.902-2.172c0-.847.345-1.615.902-2.171a3.07 3.07 0 0 1 2.174-.9"/><path fill="#006482" d="M31.704 120.519h3.06l.252-.779h-3.172z"/><path fill="#00a0dc" d="M31.356 122.34h3.06l.252-.783h-3.172z"/><path fill="#006482" d="M31.012 124.157h3.056l.256-.783h-3.172z"/><path fill="#00a0dc" d="M30.664 125.975h3.06l.252-.783h-3.172z"/><path fill="#006482" d="M30.316 127.792h3.06l.252-.779h-3.172z"/><path fill="#281446" d="M50.876 68.301h25.812v11.986H50.876z"/><path fill="#e6be6e" d="m82.432 106.196 5.676-6.65-2.604-9.513-10.644-.488 3.168 10.377z"/><path fill="linen" d="m94.296 121.485-6.188-21.939-10.204.28 6.812 20.821z"/><path fill="#281446" d="m88.8 94.446-5.352-21.743-16.612-.032 7.324 22.426z"/><path fill="#00a0dc" d="m101.988 131.778-6.616-.859-10.18.623.236 1.298 16.872.132z"/><path fill="#281446" d="M100.8 130.488a27 27 0 0 1-3.56-.428l-2.8-12.529H82.8l2.4 14.011 16.8.236a8 8 0 0 1-.4-1.047 3.2 3.2 0 0 0-.8-.243"/><path fill="#00a0dc" d="M88.856 120.395c.849 0 1.618.344 2.174.9a3.06 3.06 0 0 1 .902 2.171 3.06 3.06 0 0 1-.902 2.172c-.556.556-1.325.9-2.174.9a3.07 3.07 0 0 1-2.174-.9 3.06 3.06 0 0 1-.902-2.172c0-.847.345-1.615.902-2.171a3.07 3.07 0 0 1 2.174-.9"/><path fill="#006482" d="M95.808 120.519h-3.06l-.252-.779h3.172z"/><path fill="#00a0dc" d="M96.152 122.34h-3.056l-.252-.783h3.172z"/><path fill="#006482" d="M96.5 124.157h-3.06l-.252-.783h3.172z"/><path fill="#00a0dc" d="M96.848 125.975h-3.06l-.252-.783h3.172z"/><path fill="#006482" d="M97.196 127.792h-3.06l-.252-.779h3.172z"/><path fill="#00a0dc" d="M76.916 45.392s-2.056-4.458-2.424-5.54c-3.26-.819-13.748-.687-17.668-.687 0 0-5.372 0-6.6 1.534-1.228 1.533-1.276 4.154-1.276 4.154L41.6 74.644c2.572.97 6.52.399 9.268.455 3.932.068 7.872 0 11.796.12 7.664.256 16.656 3.906 24.32 3.491-.748-1.754-10.068-33.318-10.068-33.318"/><path fill="#e6781e" d="M75.036 53.579c-4.448-8.171-10.264-7.744-12.524-7.764-.712 0-4.776.32-7.048 1.658-1.852 1.086-5.776 4.697-6.604 8.387-.972 4.353 1.324 8.787 1.324 8.787 2.512 5.859 8.892 7.588 14.748 6.466a17.4 17.4 0 0 0 6.752-2.816c.496-.355 2.36-1.573 3.452-4.836.864-2.601 1.868-6.263-.1-9.882"/><path fill="none" stroke="#824600" stroke-linecap="round" stroke-width=".5" d="M62.536 45.532c-.068 8.631-.132 17.573-.052 26.212M70.712 69.052c-4.8-3.503-5.98-10.68-4.424-16.104a11.13 11.13 0 0 1 3.6-5.647M53.512 69.116c5.316-3.051 6.8-10.384 5.512-15.976a12.6 12.6 0 0 0-3.26-6.011"/><path fill="#be965a" d="M53.56 49.198c-.256.471-.904 2.333-1.768 3.247a8.67 8.67 0 0 1-4.452 2.468c.492-.623 1.152-2.688 2.72-4.161.976-.919 2.932-1.626 3.5-1.554"/><path fill="#e6be6e" d="M3.88 62.706C-.4 59.634.252 55.517.252 55.517s37.74-.092 45.312-.544c3.036-.179 8.472-4.944 9.36-4.393s-3.384 3.267-2.496 3.878 4.8-3.375 5.736-2.656-5.016 4.649-3.848 5.312 4.436-2.824 4.716-2.049-2.912 4.446-3.504 5.14c-.772.907-2.376 2.88-4.852 4.074-2.476 1.195-5.824 1.598-6.66 1.722-2.056.275-23.092.08-26.62-.236-6.344-.551-9.22-.028-13.516-3.059"/><path fill="#e6be6e" d="m20.256 47.588 23.364.024v-7.908c-2.596-.08-14 0-14.924 0q-2.815.001-5.6.104c-3.636.128-7 .34-10.516 1.35C5.6 43.135-.876 49.126.444 57.054c2.444-1.022 4.26 2.628 6.872 2.101s13.372-.236 8.292-1.745-3.028-4.641-1.296-7.018 5.944-2.804 5.944-2.804"/><path fill="#00a0dc" d="M60.332 39.8c-3.776-.799-19.632-.591-24.184-.507v9.693c4.052.216 11.792.132 16.8.048 1.228-.02 10.108-8.647 7.384-9.234"/><path fill="#be965a" d="M78.776 56.815c-.548.227-5.456-2.553-6.78-4.454-.76-1.094-.532-1.937.656-2.316 1.188-.38 3.412 2.037 4.4 3.447a11.8 11.8 0 0 1 1.724 3.323"/><path fill="#e6be6e" d="M68.96 49.601c.776-.774 4 1.682 5.58 3.391 1.76 1.925 4.4 3.547 12.18 3.547 2.248 0 4.492-.08 6.74-.036 1.684.032 21.308 0 21.308 0S124 55.165 127.2 55.165c1.016.443-.756 3.77-1.2 4.537a12 12 0 0 1-3.56 3.595c-3.164 2.177-7.236 2.796-10.968 3.111-8.176.707-30.604.595-31.624.583-2.828-.024-6.232-1.374-7.532-3.195-.912-1.27-5.792-7.948-5.516-8.667s3.232 2.872 4.272 1.33-4.24-3.994-4.092-5.348 4.236 3.028 5.556 2.728c.264-1.649-4.352-3.463-3.576-4.238"/><path fill="#e6be6e" d="M124.284 46.662a18.6 18.6 0 0 0-8-4.817c-4.296-1.254-25.2-1.693-29.484-1.713l-.668 8.195c2.356.032 22.928.12 22.928.12s4.52.06 5.768 1.841c1.248 1.782.564 3.024.12 4.098-.616 1.474-3.868 2.492-3.868 2.492s10.884.536 16.356-.77c.924-2.732-1.464-7.725-3.152-9.446"/><path fill="#00a0dc" d="m90.332 39.632-24.068-.091s8.92 10.328 10.16 10.352c4.132.068 9.824.315 13.908.308z"/><path fill="#642800" d="M53.6 29.839s-1.956-1.074-2.952-5.308c-.716-3.055-.888-8.978.324-11.531C53.868 6.906 56.8 3.694 56.8 3.694l4.432 15.877zM74.372 29.843s3.132-11.754.4-17.494c-2.732-5.739-5.796-6.713-5.796-6.713l-3.052 9.322z"/><path fill="#e6be6e" d="M72.728 32.495c.438-2.177.705-4.384.8-6.602 2.196-3.419 7.952-4.753 7.396.963-.412 4.101-3.992 7.113-8.196 5.639M54.548 32.515a15.4 15.4 0 0 1-5.132-.563 5.75 5.75 0 0 1-3.2-2.796c-.696-1.222-1.044-3.67 1.26-5.028s4.8.271 5.6 1.597c.732 1.234 1.216 5.32 1.472 6.79"/><path fill="#e6be6e" d="m70.192 16.651-14.232-.056c-1.292 1.69-3.6 5.276-3.9 8.387 0 .136-.264 5.448 1.692 9.135 1.092 2.057 3.56 3.195 5.48 3.642 4.556 1.087 10.732.204 13.728-3.898 1.164-1.598 1.288-3.171 1.396-4.493.76-9.398-2.472-11.495-4.164-12.717"/><path fill="#642800" d="M72.8 18.772c-1.776.591-17.512 1.254-19.356.982-.4-2.516 9.6-19.542 9.6-19.542S72.8 16.288 72.8 18.772"/><path fill="#be965a" d="M63.748 27.634a10 10 0 0 1 2.032 3.994c-1.496.512-3.696.731-5.2.228-.016-1.474.72-4.265 3.168-4.222"/><path d="M61.812 34.748c.06.174.157.333.284.467q1.075-.018 2.144.1a.527.527 0 0 0 .256-.567c-.872-.032-1.8 0-2.684 0M56.66 28.505c-.984 0-.6-1.394-.352-1.909a.545.545 0 0 1 .772.108 2.08 2.08 0 0 1-.42 1.801M69.768 28.641c-.976.128-.8-1.294-.62-1.841a.55.55 0 0 1 .78 0c.239.605.18 1.286-.16 1.841"/></svg>