<svg xmlns="http://www.w3.org/2000/svg" width="82.6" height="110.864" viewBox="-0.05 -0.17 82.6 110.864"><path fill="#be0a3c" d="M23.389 61.537c-.326-3.79-9.068-5.52-12.089-9.884S8.028 40.878 7.427 37.124c-.649-4.035-.434-13.493-1.381-13.557s.175 3.83-.844 3.894-.796-3.894-1.549-4.067c-.752-.172-.362 4.276-1.464 4.067-.598-.112-.594-3.445-1.103-3.316-.51.128-1.791 17.785 1.883 26.432s6.942 14.252 15.357 14.826c3.582.253 5.39-.076 5.063-3.866"/><path fill="#82001e" d="M8.211 26.935c-.601-.305-1.409 2.007-1.409 2.007-.728.125-2.583.586-2.659 2.008-.092 1.754 1.791 3.93 2.981 2.007.012-.036 1.7-5.713 1.087-6.022"/><path fill="#be0a3c" d="M59.111 61.537c.326-3.79 9.068-5.52 12.089-9.884s3.272-10.775 3.873-14.529c.649-4.035.434-13.493 1.381-13.557s-.175 3.83.844 3.894.796-3.894 1.549-4.067c.752-.172.362 4.276 1.464 4.067.598-.112.594-3.445 1.103-3.316.51.128 1.791 17.785-1.883 26.432s-6.942 14.252-15.357 14.826c-3.586.253-5.409-.076-5.063-3.866"/><path fill="#82001e" d="M74.289 26.935c.601-.305 1.409 2.007 1.409 2.007.728.125 2.583.586 2.659 2.008.092 1.754-1.791 3.93-2.981 2.007-.012-.036-1.7-5.713-1.087-6.022M60.488 74.556c-.159-.08 1.791-8.992-5.039-8.992-6.831 0-6.767 38.785-5.489 43.285.497 1.766 1.194 1.204 2.452 1.297 1.257.092 2.046.136 1.592-.695-.092-.169-1.688.072-1.688.072s2.846-7.824 3.945-11.811c.545-1.979 1.071-3.982 1.512-5.989.239-1.056 2.982-16.107 2.715-17.167M23.083 74.966c.103.076 3.451 19.804 3.749 21 .398 1.566.745 3.111 1.107 4.681.589 2.549 2.293 5.845 2.157 8.455-.366.024-1.954-.145-2.157.028-1.246 1.064.474.803.868.867 1.038.09 2.082.074 3.116-.048 1.418-.169 1.139-.149 1.501-1.63.605-2.477 2.655-40.27-4.733-40.146s-5.513 6.696-5.608 6.793"/><path fill="#82783c" d="M34.937 17.718c-1.569-4.188-3.057-11.382-.864-15.557C36.087-1.669 39.61.8 41.29 6.874c1.417 5.111 1.162 13.533 1.226 15.312.071 1.963-.163 3.886-.247 5.837-.068 1.646.518 4.388-.068 5.873-2.941-5.142-5.186-10.634-7.264-16.178"/><path fill="#a0aa1e" d="M42.237 33.82c-2.324.121-5.214-2.256-7.006-3.553-.955-.71-12.841-10.345-16.073-15.163-1.461-2.168-2.834-4.328-2.48-7.05.474-3.649 2.942-4.48 6.138-2.89 4.956 2.465 9.1 7.985 11.699 12.778 1.294 2.381 2.524 4.818 3.833 7.17 1.262 2.277 3.949 6.018 3.889 8.708"/><path fill="#a0aa1e" d="M41.799 33.688c-.151-1.691.968-3.951 1.35-5.597.398-1.762.796-3.496 1.361-5.219a96 96 0 0 1 3.81-10.406c1.325-2.934 2.734-6.194 4.872-8.627 1.819-2.088 5.278-4.292 7.782-1.77 2.161 2.18.796 6.684.032 9.233-1.047 3.401-2.914 6.211-5.028 9.021-1.99 2.65-11.5 12.469-14.179 13.365"/><path fill="#a0aa1e" d="M42.146 33.808c1.098-1.449 2.901-2.654 4.235-3.93 1.728-1.654 3.491-3.264 5.246-4.882 2.552-2.349 5.279-4.757 8.853-5.219 1.294-.165 3.646-.245 4.092 1.369.398 1.485-1.54 3.184-2.496 3.982a29.7 29.7 0 0 1-4.533 3.007c-.888.51-11.492 4.541-15.397 5.673M41.891 33.884c-.271-4.974.302-9.856.462-14.798a37.3 37.3 0 0 1 .844-7.663c.278-1.149 1.695-5.219 3.144-2.907.836 1.329.303 4.248.251 5.729-.076 2.144-.1 4.492-.824 6.544-.478 1.333-3.614 13.111-3.877 13.095"/><path fill="#f01446" d="M41.501 94.958a19.16 19.16 0 0 1-10.999-3.408c-2.149-1.505-3.845-3.774-5.298-5.942-2.169-3.239-4.299-6.547-6.301-9.9a67 67 0 0 1-7.858-19.478c-1.242-5.565-1.632-15.83 4.096-19.271 2.934-1.77 7.281-2.782 10.605-3.472 2.878-.598 5.716-1.349 8.673-1.606 1.688-.136 3.392-.293 5.064-.028 1.285.205 1.91.919 2.838.927.179 0 1.345-.654 1.668-.734q.986-.195 1.99-.217c2.126-.125 4.124.217 6.21.534 5.385.803 11.066 2.874 15.281 6.451 5.258 4.46 4.403 11.285 2.946 17.424-1.593 6.76-7.281 22.128-12.738 29.579-5.458 7.451-12.945 9.157-16.177 9.141"/><path fill="#f00a78" d="M15.213 41.649s.569-1.514 3.085-2.847a17.77 17.77 0 0 1 10.25-1.678c8.148 1.265 7.133 28.347-2.579 28.347-5.263 0-8.821-2.284-10.489-7.467-1.409-4.384-2.42-11.145-.267-16.355"/><path fill="#f04650" d="M36.29 74.259c.276 0 .526.115.707.301s.293.443.293.727c0 .283-.112.54-.293.726a.98.98 0 0 1-.707.302.98.98 0 0 1-.707-.302 1.04 1.04 0 0 1-.293-.726c0-.284.112-.541.293-.727a.98.98 0 0 1 .707-.301M55.266 45.844c.276 0 .526.115.707.301s.293.443.293.727c0 .283-.112.54-.293.726a.984.984 0 0 1-1.414 0 1.04 1.04 0 0 1-.293-.726c0-.284.112-.541.293-.727a.98.98 0 0 1 .707-.301M52.141 41.062c.276 0 .526.116.707.302s.293.443.293.726c0 .284-.112.541-.293.727a.984.984 0 0 1-1.414 0 1.04 1.04 0 0 1-.293-.727c0-.283.112-.54.293-.726a.98.98 0 0 1 .707-.302M59.139 41.54c.276 0 .526.115.707.301s.293.443.293.727c0 .283-.112.54-.293.726a.98.98 0 0 1-.707.302.98.98 0 0 1-.707-.302 1.04 1.04 0 0 1-.293-.726c0-.284.112-.541.293-.727a.98.98 0 0 1 .707-.301M47.786 36.261c.276 0 .526.115.707.301s.293.443.293.727c0 .283-.112.54-.293.726a.984.984 0 0 1-1.414 0 1.04 1.04 0 0 1-.293-.726c0-.284.112-.541.293-.727a.98.98 0 0 1 .707-.301M39.638 38.834a.98.98 0 0 1 .707.302c.181.186.293.442.293.726s-.112.541-.293.727a.984.984 0 0 1-1.414 0 1.04 1.04 0 0 1-.293-.727c0-.284.112-.54.293-.726a.98.98 0 0 1 .707-.302M32.954 38.128c.276 0 .526.115.707.301s.293.443.293.726c0 .284-.112.541-.293.727a.984.984 0 0 1-1.413 0 1.04 1.04 0 0 1-.294-.727c0-.283.113-.54.294-.726a.98.98 0 0 1 .706-.301M24.488 37.935c.276 0 .526.115.707.301s.293.443.293.727c0 .283-.112.54-.293.726a.98.98 0 0 1-.707.302.98.98 0 0 1-.707-.302 1.04 1.04 0 0 1-.293-.726c0-.284.112-.541.293-.727a.98.98 0 0 1 .707-.301M30.487 46.354c.275 0 .525.115.706.301s.294.443.294.726c0 .284-.113.541-.294.727a.983.983 0 0 1-1.413 0 1.04 1.04 0 0 1-.293-.727c0-.283.112-.54.293-.726a.98.98 0 0 1 .707-.301M21.92 45.856c.276 0 .526.115.707.301s.293.443.293.727c0 .283-.112.54-.293.726a.984.984 0 0 1-1.414 0 1.04 1.04 0 0 1-.293-.726c0-.284.112-.541.293-.727a.98.98 0 0 1 .707-.301M46.52 76.58c.276 0 .526.115.707.301s.293.443.293.726c0 .284-.112.541-.293.727a.984.984 0 0 1-1.414 0 1.04 1.04 0 0 1-.293-.727c0-.283.112-.54.293-.726a.98.98 0 0 1 .707-.301M43.38 44.784c.276 0 .526.115.707.301s.293.443.293.727c0 .283-.112.54-.293.726a.984.984 0 0 1-1.414 0 1.04 1.04 0 0 1-.293-.726c0-.284.112-.541.293-.727a.98.98 0 0 1 .707-.301M45.649 51.372c.275 0 .525.115.706.301s.294.443.294.727c0 .283-.113.54-.294.726a.983.983 0 0 1-1.413 0 1.04 1.04 0 0 1-.293-.726c0-.284.112-.541.293-.727a.98.98 0 0 1 .707-.301M37.938 46.438c.276 0 .526.115.707.301s.293.443.293.727c0 .283-.112.54-.293.726a.984.984 0 0 1-1.414 0 1.04 1.04 0 0 1-.293-.726c0-.284.112-.541.293-.727a.98.98 0 0 1 .707-.301M29.392 80.249c.276 0 .526.115.707.301s.293.443.293.727c0 .283-.112.54-.293.726a.984.984 0 0 1-1.414 0 1.04 1.04 0 0 1-.293-.726c0-.284.112-.541.293-.727a.98.98 0 0 1 .707-.301M36.29 52.813c.276 0 .526.115.707.301s.293.443.293.727c0 .283-.112.54-.293.726a.98.98 0 0 1-.707.302.98.98 0 0 1-.707-.302 1.04 1.04 0 0 1-.293-.726c0-.284.112-.541.293-.727a.98.98 0 0 1 .707-.301M24.524 69.815c.275 0 .525.115.707.301s.293.443.293.727c0 .283-.112.54-.293.726a.984.984 0 0 1-1.414 0 1.04 1.04 0 0 1-.293-.726c0-.284.112-.541.293-.727a.98.98 0 0 1 .707-.301M31.334 59.57c.276 0 .526.115.707.301s.293.443.293.726c0 .284-.112.541-.293.727a.984.984 0 0 1-1.414 0 1.04 1.04 0 0 1-.293-.727c0-.283.112-.54.293-.726a.98.98 0 0 1 .707-.301M24.078 59.305c.276 0 .526.115.707.301s.293.443.293.726c0 .284-.112.541-.293.727a.984.984 0 0 1-1.414 0 1.04 1.04 0 0 1-.293-.727c0-.283.112-.54.293-.726a.98.98 0 0 1 .707-.301M56.424 57.811a.98.98 0 0 1 .707.302c.181.186.293.443.293.726 0 .284-.112.541-.293.727a.984.984 0 0 1-1.414 0 1.04 1.04 0 0 1-.293-.727c0-.283.112-.54.293-.726a.98.98 0 0 1 .707-.302M62.717 46.354c.276 0 .526.115.707.301s.293.443.293.726c0 .284-.112.541-.293.727a.984.984 0 0 1-1.414 0 1.04 1.04 0 0 1-.293-.727c0-.283.112-.54.293-.726a.98.98 0 0 1 .707-.301M63.338 56.47c.276 0 .526.116.707.302s.293.443.293.726c0 .284-.112.541-.293.727a.984.984 0 0 1-1.414 0 1.04 1.04 0 0 1-.293-.727c0-.283.112-.54.293-.726a.98.98 0 0 1 .707-.302M66.706 51.091c.276 0 .526.115.707.301s.293.443.293.727c0 .283-.112.54-.293.726a.984.984 0 0 1-1.414 0 1.04 1.04 0 0 1-.293-.726c0-.284.112-.541.293-.727a.98.98 0 0 1 .707-.301M66.901 41.464c.276 0 .526.115.707.301s.293.443.293.727c0 .283-.112.54-.293.726a.984.984 0 0 1-1.414 0 1.04 1.04 0 0 1-.293-.726c0-.284.112-.541.293-.727a.98.98 0 0 1 .707-.301M55.142 35.101c.276 0 .526.115.707.301s.293.443.293.726c0 .284-.112.541-.293.727a.984.984 0 0 1-1.414 0 1.04 1.04 0 0 1-.293-.727c0-.283.112-.54.293-.726a.98.98 0 0 1 .707-.301M15.981 42.186c.276 0 .526.116.707.302s.293.443.293.726c0 .284-.112.541-.293.727a.984.984 0 0 1-1.414 0 1.04 1.04 0 0 1-.293-.727c0-.283.112-.54.293-.726a.98.98 0 0 1 .707-.302M14.258 55.953c.276 0 .526.115.707.301s.293.443.293.726c0 .284-.112.541-.293.727a.984.984 0 0 1-1.414 0 1.04 1.04 0 0 1-.293-.727c0-.283.112-.54.293-.726a.98.98 0 0 1 .707-.301M12.53 49.622c.276 0 .526.115.707.301s.293.443.293.726c0 .284-.112.541-.293.727a.984.984 0 0 1-1.414 0 1.04 1.04 0 0 1-.293-.727c0-.283.112-.54.293-.726a.98.98 0 0 1 .707-.301M42.452 56.193c.276 0 .526.116.707.302s.293.443.293.726c0 .284-.112.541-.293.727a.984.984 0 0 1-1.414 0 1.04 1.04 0 0 1-.293-.727c0-.283.112-.54.293-.726a.98.98 0 0 1 .707-.302M59.776 65.371c.276 0 .526.115.707.301s.293.443.293.727c0 .283-.112.54-.293.726a.984.984 0 0 1-1.414 0 1.04 1.04 0 0 1-.293-.726c0-.284.112-.541.293-.727a.98.98 0 0 1 .707-.301M47.371 61.48c.103-.262.3-.458.537-.563a.986.986 0 0 1 1.315.519c.101.237.112.515.009.777-.103.261-.3.457-.536.562a.986.986 0 0 1-1.316-.518 1.02 1.02 0 0 1-.009-.777M51.508 49.622c.276 0 .526.115.707.301s.293.443.293.726c0 .284-.112.541-.293.727a.984.984 0 0 1-1.414 0 1.04 1.04 0 0 1-.293-.727c0-.283.112-.54.293-.726a.98.98 0 0 1 .707-.301M39.085 64.985c.275 0 .525.116.706.302.182.186.294.443.294.726 0 .284-.112.541-.294.727a.983.983 0 0 1-1.413 0 1.04 1.04 0 0 1-.293-.727c0-.283.112-.54.293-.726a.98.98 0 0 1 .707-.302M58.8 51.669c.276 0 .526.115.707.301s.293.443.293.727c0 .283-.112.54-.293.726a.984.984 0 0 1-1.414 0 1.04 1.04 0 0 1-.293-.726c0-.284.112-.541.293-.727a.98.98 0 0 1 .707-.301M60.046 74.066c.276 0 .526.116.707.302s.293.443.293.726c0 .284-.112.541-.293.727a.984.984 0 0 1-1.414 0 1.04 1.04 0 0 1-.293-.727c0-.283.112-.54.293-.726a.98.98 0 0 1 .707-.302M51.731 68.462c.276 0 .526.115.707.301s.293.443.293.727c0 .283-.112.54-.293.726a.98.98 0 0 1-.707.302.98.98 0 0 1-.707-.302 1.04 1.04 0 0 1-.293-.726c0-.284.112-.541.293-.727a.98.98 0 0 1 .707-.301M26.84 52.877c.276 0 .526.116.707.302s.293.443.293.726c0 .284-.112.541-.293.727a.984.984 0 0 1-1.414 0 1.04 1.04 0 0 1-.293-.727c0-.283.112-.54.293-.726a.98.98 0 0 1 .707-.302M19.89 51.46c.276 0 .526.115.707.301s.293.443.293.727-.112.54-.293.726a.98.98 0 0 1-1.414 0 1.04 1.04 0 0 1-.293-.726c0-.284.112-.541.293-.727a.98.98 0 0 1 .707-.301"/></svg>