<svg xmlns="http://www.w3.org/2000/svg" width="64.09" height="112.341" viewBox="0.161 -0.477 64.09 112.341"><path fill="#82001e" d="M30.744 12.857S44.888 27.2 45.032 28.464c-1.484.044-24.456 4.122-24.456 4.122L.68 27.344z"/><path fill="#be0a3c" d="m45.428.423-26.156-.4c0 .332-.252 5.602.152 6.091.692.8 12.028 1.296 15.036 1.504 1.4.1 11.2-1.424 11.2-1.424s-.092-5.115-.232-5.771"/><path fill="#ffc800" d="m.68 27.348 18.744-21.21s12.692 3.601 15 6.123C30.2 15.058.68 27.348.68 27.348"/><path fill="#f01446" d="M63.568 28.288c-1.348.184-15.456 2.257-15.456 2.257l-8.424-2.429S25.2 12.481 19.356 6.106c2-.705 26.304.084 26.304.084s15.612 18.324 17.908 22.098"/><path fill="#be0a3c" d="m63.224 110.856-22.672.5L29.176 73.59l10.512-45.474 23.88.172s.312 52.653.12 62.106c-.08 3.886-.464 20.462-.464 20.462"/><path fill="#f01446" d="M39.688 28.116s-34-.864-39.008-.768c-.256 4.674 2.088 59.384 2.6 69.049.128 2.401.136 4.778.204 7.167.036 1.273.336 6.804.336 6.804s2.736.06 3.924.108c2.264.088 4.524.292 6.8.352 4.58.116 9.148.18 13.728.36 2.12.084 12.288.176 12.288.176z"/><path fill="#fff" d="M32.528 36.404s-21.5-.62-24.672-.552c-.164 3.349 1.504 61.585 2 62.43s1.728.54 2.48.572c1.432.064 2.86.212 4.296.252 2.896.084 5.788.128 8.684.26 1.34.06 7.772.128 7.772.128z"/></svg>