<svg xmlns="http://www.w3.org/2000/svg" width="273.27" height="108.9" viewBox="0 0 273.27 108.9"><g fill="none" stroke-linecap="none" stroke-linejoin="none" stroke-miterlimit="10" stroke-width="none" data-paper-data="{&quot;isPaintingLayer&quot;:true}" font-family="none" font-size="none" font-weight="none" style="mix-blend-mode:normal" text-anchor="none"><g data-paper-data="{&quot;index&quot;:null}"><path fill="#f7c1d8" d="M234.365 86.785a8.55 8.55 0 0 1 2.515 6.065 8.55 8.55 0 0 1-2.515 6.065 8.55 8.55 0 0 1-6.065 2.515 8.55 8.55 0 0 1-6.065-2.515 8.55 8.55 0 0 1-2.515-6.065 8.55 8.55 0 0 1 2.515-6.065 8.55 8.55 0 0 1 6.065-2.515 8.55 8.55 0 0 1 6.065 2.515"/><path fill="#5e154d" stroke="#5e154d" stroke-linecap="round" stroke-linejoin="round" stroke-width="1.44" d="M228.3 78.18c8.284 0 15 6.716 15 15s-6.716 15-15 15-15-6.716-15-15 6.716-15 15-15m0 22.38a7.47 7.47 0 1 0-.361-14.935 7.47 7.47 0 0 0 .361 14.935"/><path fill="#fff" stroke="#da53d6" stroke-linecap="round" stroke-linejoin="round" stroke-width="1.08" d="M231.015 90.375a3.83 3.83 0 0 1 1.125 2.715c0 1.059-.43 2.019-1.125 2.715a3.83 3.83 0 0 1-2.715 1.125 3.83 3.83 0 0 1-2.715-1.125 3.83 3.83 0 0 1-1.125-2.715c0-1.059.43-2.019 1.125-2.715a3.83 3.83 0 0 1 2.715-1.125c1.059 0 2.019.43 2.715 1.125"/></g><g data-paper-data="{&quot;index&quot;:null}"><path fill="#f7c1d8" d="M98.88 81.12c6.627 0 12 5.373 12 12s-5.373 12-12 12-12-5.373-12-12 5.373-12 12-12"/><path fill="#5e154d" stroke="#5e154d" stroke-linecap="round" stroke-linejoin="round" stroke-width="1.44" d="M98.88 78.18c8.284 0 15 6.716 15 15s-6.716 15-15 15-15-6.716-15-15 6.716-15 15-15m0 22.38a7.47 7.47 0 1 0-7.47-7.47 7.44 7.44 0 0 0 7.47 7.47"/><path fill="#fff" stroke="#da53d6" stroke-linecap="round" stroke-linejoin="round" stroke-width="1.08" d="M101.595 90.375a3.83 3.83 0 0 1 1.125 2.715c0 1.059-.43 2.019-1.125 2.715a3.83 3.83 0 0 1-2.715 1.125 3.83 3.83 0 0 1-2.715-1.125 3.83 3.83 0 0 1-1.125-2.715c0-1.059.43-2.019 1.125-2.715a3.83 3.83 0 0 1 2.715-1.125c1.059 0 2.019.43 2.715 1.125"/></g><g data-paper-data="{&quot;index&quot;:null}"><path fill="#f7c1d8" d="M55.65 81.12c6.627 0 12 5.373 12 12s-5.373 12-12 12-12-5.373-12-12 5.373-12 12-12"/><path fill="#5e154d" stroke="#5e154d" stroke-linecap="round" stroke-linejoin="round" stroke-width="1.44" d="M55.65 78.18c8.284 0 15 6.716 15 15s-6.716 15-15 15-15-6.716-15-15a15 15 0 0 1 15-15m0 22.38a7.47 7.47 0 0 0 7.47-7.47 7.47 7.47 0 0 0-7.47-7.47 7.47 7.47 0 0 0-7.47 7.47 7.47 7.47 0 0 0 7.47 7.47"/><path fill="#fff" stroke="#da53d6" stroke-linecap="round" stroke-linejoin="round" stroke-width="1.08" d="M58.455 90.375a3.83 3.83 0 0 1 1.125 2.715c0 1.059-.43 2.019-1.125 2.715a3.83 3.83 0 0 1-2.715 1.125 3.83 3.83 0 0 1-2.715-1.125A3.83 3.83 0 0 1 51.9 93.09c0-1.059.43-2.019 1.125-2.715a3.83 3.83 0 0 1 2.715-1.125c1.059 0 2.019.43 2.715 1.125"/></g><g stroke="#5e154d" stroke-linejoin="miter" data-paper-data="{&quot;index&quot;:null}"><path fill="#fdbb38" stroke-linecap="butt" stroke-width="1.44" d="M159.9 95.73h-28.08V82.56h28.08z"/><path stroke-linecap="round" stroke-width="1.08" d="M151.62 82.56v13.17M140.07 82.56v13.17"/><path fill="#fff" stroke-linecap="round" stroke-width="1.44" d="M185.19 82.56H.72v-9.39h184.47z"/><path fill="#fdbb38" stroke-linecap="butt" stroke-width="1.44" d="M185.19 93.09H6.99V82.56h178.2z"/></g><g data-paper-data="{&quot;index&quot;:null}"><path fill="#25b0b7" d="m261.9 56.1-20.25-11.4-.93-4.41s18.27 10.11 22.2 12.33c4.47 2.49 4.44 4.65 4.44 9.96v30.51h-3.18V62.28c-.06-2.7-.15-4.92-2.28-6.18"/><path fill="#43c3d7" d="M225.69.72c4.35 0 6.21 1.17 7.23 5.73.21 1.08.72 3.24 1.32 6h-3.69a2.28 2.28 0 0 0-2.25 2.25v21.33a2.28 2.28 0 0 0 2.25 2.28h9.63l.48 1.98.99 4.41 20.31 11.4c2.13 1.2 2.22 3.48 2.22 6.18v30.81h-16.89c0-10.306-8.354-18.66-18.66-18.66s-18.66 8.354-18.66 18.66h-24.72V.72z"/><path stroke="#009cc6" stroke-linecap="round" stroke-linejoin="round" stroke-width="1.08" d="M203.94 47.7h-9.36v-3.54h9.36z"/><path stroke="#5e154d" stroke-linecap="round" stroke-linejoin="round" stroke-width="1.44" d="M256.83 82.59h-6v-3.33h6z"/><path stroke="#009cc6" stroke-linecap="round" stroke-linejoin="round" stroke-width="1.08" d="M192.87 7.41h27.78a2.61 2.61 0 0 1 2.58 2.58v59.7a21 21 0 0 0-17.31 16.71h-13.08a2.61 2.61 0 0 1-2.58-2.58V9.99a2.61 2.61 0 0 1 2.61-2.58"/><path stroke="#009cc6" stroke-linecap="round" stroke-linejoin="round" stroke-width="1.08" d="M219.12 53.04h-3.48v-6.45h3.48z"/><path fill="#f7c1d8" d="M194.55 12.45h2.85l9.03 25.86h-11.88zM219 12.45v25.86h-3.66l-9.03-25.86z"/><path fill="#ffeef6" d="m206.31 12.45 9.03 25.86h-4.53l-9.06-25.86z"/><path fill="#f7c1d8" d="M230.55 12.36h3.69c1.83 8.01 4.83 21 6 25.86h-3.42l-8.43-24a2.31 2.31 0 0 1 2.16-1.86M234.24 38.31h-3.69a2.28 2.28 0 0 1-2.25-2.28V20.7z"/><path fill="#ffeef6" d="M228.3 14.7q-.023-.225 0-.45l8.43 24h-2.52l-6-17.61z"/><path fill="#f7c1d8" d="m201.75 12.45 9.06 25.86h-2.37l-9.03-25.86z"/><path fill="#ffeef6" d="m199.41 12.45 9.03 25.86h-2.01l-9.03-25.86z"/><path fill="#43c3d7" stroke="#5e154d" stroke-linecap="round" stroke-linejoin="round" stroke-width="1.08" d="M239.88 6.54c1.26 0 1.56 1.32 2.28 3.72.99 3.33 2.67 9.72 2.67 9.72h-4.65l-3.3-13.44z"/><path fill="#43c3d7" stroke="#5e154d" stroke-linecap="round" stroke-linejoin="round" stroke-width="1.08" d="m236.88 6.54.87 3.48h-4.05l-.78-3.48z"/><path stroke="#5e154d" stroke-linecap="butt" stroke-linejoin="round" stroke-width="1.44" d="M225.69.72c4.35 0 6.21 1.17 7.23 5.73.21 1.08.72 3.24 1.32 6 1.83 8.01 4.83 21 6 25.86l.48 1.98s18.27 10.11 22.2 12.33c4.47 2.49 4.44 4.65 4.44 9.96v30.51h-20.07c0-10.306-8.354-18.66-18.66-18.66s-18.66 8.354-18.66 18.66h-24.72V.72z"/><path stroke="#5e154d" stroke-linecap="round" stroke-linejoin="round" stroke-width="1.08" d="M219 38.31h-24.45V12.45H219z"/><path stroke="#5e154d" stroke-linecap="round" stroke-linejoin="round" stroke-width="1.44" d="M225.69.72c4.35 0 6.21 1.17 7.23 5.73.21 1.08.72 3.24 1.32 6 1.83 8.01 4.83 21 6 25.86l.48 1.98s18.27 10.11 22.2 12.33c4.47 2.49 4.44 4.65 4.44 9.96v30.51h-20.07c0-10.306-8.354-18.66-18.66-18.66s-18.66 8.354-18.66 18.66h-24.72V.72z"/><path stroke="#5e154d" stroke-linecap="round" stroke-linejoin="round" stroke-width="1.08" d="M228.33 14.25a2.31 2.31 0 0 1 2.22-1.8h3.69c1.83 8.01 4.83 21 6 25.86h-9.69a2.28 2.28 0 0 1-2.25-2.28V14.7a2.3 2.3 0 0 1 .03-.45"/><path fill="#00828c" stroke="#5e154d" stroke-linecap="round" stroke-linejoin="round" stroke-width="1.08" d="M269.55 85.02v2.79h-13.23l-.6-2.79zM269.55 90.27h-12.72l-.51-2.46h13.23zM255.21 82.56h14.34v2.46h-13.83z"/><path fill="#fdbb38" d="M267.3 67.32h2.25c1.74 0 2.49 2.55 2.79 5.13h-5.04z"/><path fill="#fff" d="M272.34 72.36c.201 1.702.271 3.417.21 5.13h-5.25v-5.13z"/><path stroke="#5e154d" stroke-linecap="round" stroke-linejoin="round" stroke-width="1.44" d="M269.55 67.32c1.74 0 2.49 2.55 2.79 5.13.201 1.702.271 3.417.21 5.13h-5.25V67.32z"/></g></g></svg>