<svg xmlns="http://www.w3.org/2000/svg" width="62.204" height="78.68" viewBox="-0.5 -0.5 62.204 78.68"><path fill="#0cc" d="M61.204 43.46v5.45c0 2.29-.56 4.97-2 9.55q-.195.6-.45 1.17c-.69 1.56-1.77 3.14-4.27 6.27-.07.08-.14.17-.21.25-6.42 7.54-14.67 11.53-23.86 11.53-4.41 0-8.61-.98-12.49-2.92-1.06-.53-2.02-1.23-2.86-2.07-.27-.27-1.13-1.06-3.22-2.61a11 11 0 0 1-3.76-4.93 62 62 0 0 0-1.66-2.16 11.1 11.1 0 0 1-2.26-5.05c-.07-.25-.25-.79-.63-1.77-1.17-2.95-1.8-4.98-1.8-7.26 0-2.68.83-5.26 2.36-7.46-.46-.7-.88-1.45-1.25-2.25-.82-1.75-1.15-3.68-.98-5.61 0-.04.03-.34.04-1.11-.18-1.3-.39-3-.63-5.09-.23-2.04-.61-5.27-1.12-9.71-.55-3.98.38-7.82 2.63-10.81 2.95-4.01 7.83-6.08 14.43-6.08 1.07 0 2.37.05 3.97.16.77.05 1.35.08 1.72.1 2.42-.12 5.54-.2 9.49-.26.16-.01.62-.07 1.6-.23 2.21-.39 3.82-.56 5.21-.56 7.24 0 12.85 4.6 13.94 11.46.12.74.16 1.49.13 2.24-.02.38-.04 1.56.14 4.43.29 2.09.46 4.69-.16 7.33 3.1 3.05 5.35 6.8 6.62 11.11 1.01 3.54 1.33 5.19 1.33 6.89"/><path fill="#fff" d="M50.202 48.909q0 1.497-1.495 6.245-.353.792-2.815 3.871-6.51 7.652-15.481 7.652-4.047 0-7.564-1.759-1.496-1.497-4.485-3.695-.09-.878-1.319-2.463a83 83 0 0 0-2.023-2.639q-.09-.967-1.231-3.958-1.056-2.64-1.056-3.255-.001-1.054 1.1-1.891 1.098-.836 2.331-.836 1.67 0 2.287 1.583-.001.88.088 2.728.527 2.551 2.463 5.629 2.198 3.431 4.485 4.662 2.639 1.32 5.454 1.319 4.924 0 8.796-3.793 2.111-2.03 2.463-2.472.967-1.057 1.672-2.999-.178-.705.176-1.06.79-.616.615-3.088 0-.35.132-1.146.133-.794.133-1.235-.001-.087-.616-3.793a6 6 0 0 1-.527-.619q-.53-4.763-6.07-7.146-4.31-1.852-8.884-1.589-1.408.092-3.738.45-2.332.36-3.387 1.08-3.871 2.342-5.629 2.341-2.111 0-3.255-2.463.088-.969.088-2.815a232 232 0 0 1-.703-5.629q-.352-3.079-1.144-9.852-.264-1.76.527-2.815 1.23-1.67 5.63-1.671 1.23 0 3.254.132t2.551.132q3.518-.174 9.588-.264.967 0 3.255-.396 2.287-.397 3.343-.396 2.726 0 3.078 2.199-.088 1.936.177 6.069.528 3.43-.265 4.486-1.76.79-2.902.791-2.025 0-2.728-1.847-.44-1.144-.439-2.991.087-2.374-.088-3.078-2.639-.087-7.916.264-2.113.177-9.94 1.056-.265.177-.615.439-.176 1.32.352 5.806.616 4.75.616 5.894.087 0 2.463-.792a552 552 0 0 0 3.342-.527q2.903-.704 6.158-.704 6.508 0 11.347 2.551 5.717 3.08 7.477 9.061.88 3.079.88 3.782v5.454Z"/></svg>