<svg xmlns="http://www.w3.org/2000/svg" width="400" height="400" viewBox="0 0 400 400"><path d="M73.804 64.821c-2.468.022-4.706 1.577-6.588 4.662-1.612 2.644-5.205 4.438-13.54 6.766-2.126.594-5.614 2.742-7.75 4.773-4.004 3.81-4.462 5.453-3.945 14.168.285 4.796-6.253 14.865-15.422 23.754l-6.619 6.416.604 5.584c1.025 9.479 1.055 9.53 6.738 11.885 5.911 2.45 10.398 2.775 14.229 1.03 2.155-.983 3.845-.722 10.625 1.638 6.861 2.389 9.07 2.722 14.843 2.238l6.784-.568 3.945 4.18c13.214 14.005 20.086 24.502 22.91 34.998 8.607 31.988 12.822 40.731 23.025 47.752 3.672 2.526 4.399 3.561 4.399 6.267 0 5.562 3.066 25.595 4.568 29.854 2.157 6.113 1.697 15.11-1.37 26.824-2.67 10.19-2.93 10.686-8.475 16.057-7.758 7.514-7.219 11.927 1.457 11.927 3.436 0 3.933.26 3.353 1.75-.783 2.014-.81 2.196-.65 4.348.065.878 1.13 2.085 2.367 2.682 9.667 4.662 27.67-3.456 23.781-10.723-1.844-3.446-1.226-4.91 2.211-5.242 4.192-.405 4.572-2.527 1.31-7.332-3.678-5.42-4.879-10.894-4.167-18.983.648-7.367 3.51-19.564 5.435-23.16 1.57-2.933 6.21-27.098 5.54-28.846-.3-.78.203-3.674 1.118-6.43 1.465-4.408 2.107-5.131 5.344-6.03 5.762-1.6 12.345-1.22 18.772 1.085 6.84 2.455 11.21 2.605 45.22 1.557 27.63-.851 30.407-.398 31.787 5.188 1.135 4.59 5.687 5.424 6.2 1.136.749-6.262 3.411-6.01 4.62.436.947 5.041 3.3 6.585 5.532 3.627l1.766-2.34 2.605 5.389c3.473 7.182 4.661 15.497 4.67 32.672.009 16.688-.776 19.367-7.752 26.468-4.29 4.368-4.539 4.881-3.059 6.362 5.271 5.27 23.193 1.297 21.284-4.72-.435-1.369.25-2.759 2.3-4.675l2.918-2.726-.513-13.497c-.956-25.1-.224-55.684 1.347-56.248.38-.136 1.761 2.677 3.069 6.252 1.307 3.575 3.004 7.85 3.771 9.5 2.387 5.133 4.967 23.373 5.373 38 .447 16.07.068 19.023-3.023 23.65-1.231 1.844-3.111 5.318-4.18 7.723l-1.943 4.373 2.318 1.877c1.69 1.37 3.939 1.877 8.303 1.877 9.656 0 14.722-4.473 11.951-10.554-.925-2.03-.788-2.572.873-3.461 2.472-1.323 2.509-3.187.108-5.36-5.223-4.726-6.307-26.477-2.498-50.125 2.287-14.203 2.193-15.512-1.463-20.603-6.495-9.043-6.625-34.906-.332-65.887 3.762-18.523 5.636-15.14 7.193 12.99 1.03 18.594 5.054 45.344 7.547 50.164.824 1.595 2.83 4.997 4.457 7.563s2.957 5.488 2.957 6.494c0 1.08 1.742 2.888 4.25 4.414 2.337 1.422 5.493 4.349 7.012 6.504s3.956 4.374 5.418 4.93c1.461.555 3.257 1.78 3.99 2.72 1.24 1.593 1.464 1.556 3.242-.539 1.05-1.237 2.4-2.25 3-2.25 1.844 0 1.238-5.781-.754-7.193-1.014-.719-2.648-3.009-3.63-5.09-.983-2.08-4.362-6.13-7.509-9-7.05-6.427-17.963-22.32-20.406-29.717-1.327-4.019-2.051-10.75-2.687-25-.986-22.074-2.298-34.62-4.3-41.074a675 675 0 0 1-3.1-10.426c-3.372-11.693-6.526-15.5-12.848-15.5-4.993 0-17.427-3.829-24.516-7.549l-7.34-3.85-17.16-.704c-18.003-.74-27.138-1.632-52.662-5.143-9.021-1.24-19.471-2.034-25-1.898-23.57.578-35.383.505-47.088-.291-11.47-.78-13.218-.667-19.656 1.289-7.422 2.254-15.256 2.843-15.256 1.146 0-.55.746-1 1.656-1 6.18 0 14.902-18.426 11.361-24-2.542-4.002-16.233-1.091-24.16 5.137-2.004 1.575-4.374 2.863-5.265 2.863-2.91 0-12.781-6.249-16.86-10.674-2.805-3.043-5.502-4.553-7.97-4.53" style="fill:#d5d0c9"/><path d="M331.105 305.91c-.395-1.488-1.22-3.963-1.832-5.5l-1.115-2.794-1.27 2.976c-1.098 2.573-1.801 2.979-5.202 3l-3.933.024.914-4.288c.503-2.358.762-11.189.575-19.624-.253-11.44-.04-15.22.835-14.884 1.654.636 3.326-2.934 3.326-7.104 0-3.702-5.278-11.164-7.1-10.038-.92.569-1.255-1.9-.928-6.838.102-1.527-.944-5.802-2.323-9.5-1.378-3.698-3.695-10.774-5.149-15.724-1.728-5.888-4.218-11.398-7.2-15.933-4.216-6.412-4.608-7.558-5.204-15.225-.758-9.741-2.154-12.064-4.51-7.507-3.456 6.682-1.453 13.36 6.931 23.114 4.461 5.19 6.494 8.76 6.474 11.366-.005.652-1.329-1.115-2.941-3.927-3.188-5.558-7.99-10.122-12.186-11.585-2.57-.896-2.644-1.136-2.128-6.827.344-3.798-.29-11.037-1.78-20.321l-2.313-14.423 3.35-5.22c4.49-6.998 4.869-13.355.824-13.822-1.476-.17-4.035.388-5.685 1.242-2.772 1.433-3.043 1.419-3.53-.19-1.559-5.136-2.66-16.427-2.073-21.223l.673-5.482 1.57 2.982c.865 1.64 2.081 4.695 2.704 6.789.622 2.094 1.544 3.837 2.049 3.872.752.053 6.336-8.956 7.859-12.68.225-.55 1.233.125 2.24 1.5s4.204 5.084 7.104 8.241c5.72 6.229 6.35 8.111 3.272 9.759-3.148 1.685-2.824 9.564.5 12.179 1.922 1.51 2.5 2.89 2.5 5.96 0 3.486.246 3.918 1.92 3.386 1.301-.413 2.677.206 4.263 1.917l2.343 2.526 2.77-3.47c3.13-3.925 4.216-15.84 1.844-20.248-1.258-2.34.064-3.172 2.36-1.485 3.473 2.551 4.548 7.047 3.421 14.308-.614 3.96-.83 9.504-.477 12.32.428 3.432.088 7.263-1.032 11.614-1.373 5.337-1.516 8.362-.8 16.993.478 5.775.725 17.78.548 26.678-.262 13.168-.028 16.797 1.26 19.5 1.613 3.391 6.813 7.559 8.767 7.027.72-.196.87 1.038.446 3.69-3.572 22.335-4.248 37.048-2.16 46.973 1.546 7.352.837 21.994-.771 15.926m-39.307-29.294c.002-7.7.158-10.718.349-6.706s.189 10.311-.003 14-.348.406-.346-7.294m-157.122 3.5c0-2.475.195-3.487.433-2.25s.238 3.263 0 4.5-.433.225-.433-2.25m169.922-16.5c.02-1.65.245-2.204.498-1.231.254.973.237 2.323-.037 3s-.481-.119-.46-1.769m67.37-6.605c.263-.425-.316-1.216-1.285-1.759-.97-.542-1.506-1.243-1.192-1.557s1.556.477 2.76 1.758c1.624 1.73 1.808 2.33.714 2.33-.81 0-1.26-.348-.997-.772m-3.128-19.145-2.937-3.25 3.25 2.937c1.788 1.615 3.25 3.078 3.25 3.25 0 .773-.825.092-3.563-2.937m-62.15-4.25c.007-2.75.201-3.756.43-2.236.23 1.52.225 3.77-.013 5-.237 1.23-.425-.014-.418-2.764m-188.85-4.75-2.937-3.25 3.25 2.937c1.788 1.615 3.25 3.078 3.25 3.25 0 .773-.825.092-3.563-2.937m225.924-45.75c0-5.225.168-7.363.374-4.75.206 2.612.206 6.887 0 9.5-.206 2.612-.374.475-.374-4.75m-6.025-5c0-4.125.177-5.813.393-3.75.215 2.062.215 5.437 0 7.5-.216 2.062-.393.375-.393-3.75m4.86-18.5c.02-1.65.244-2.204.497-1.231.254.973.237 2.323-.037 3s-.481-.119-.46-1.769m-11.196-10.559c0-1.132.43-1.793.957-1.468s.702 1.252.393 2.059c-.794 2.067-1.35 1.824-1.35-.591M21.598 136.616c.02-1.65.245-2.204.498-1.231.254.973.237 2.323-.037 3s-.481-.119-.46-1.769m247.085-34.236c2.63-.207 6.68-.204 9 .006s.17.379-4.78.375c-4.95-.002-6.849-.174-4.22-.38zm-98.53-5.996c2.338-.21 6.163-.21 8.5 0 2.338.21.425.383-4.25.383s-6.587-.173-4.25-.383m-22.988-1.975c1.244-.24 3.044-.23 4 .02s-.062.446-2.262.435-2.982-.216-1.738-.455" style="fill:#e0e0e0"/><path d="M147.875 316.49c-3.583-4.698-4.246-11.344-2.063-20.686.875-3.747 1.591-8.187 1.591-9.868 0-1.97 1.067-4.27 3-6.473 1.65-1.879 3-4.35 3-5.489 0-2.08-.037-2.082-4.749-.155-.687.28-2.67-1-4.406-2.846l-3.157-3.357.707 4.5c.388 2.475 1.485 5.85 2.438 7.5 2.165 3.752 1.413 11.02-2.45 23.666l-2.646 8.665-3.619-.565c-7.364-1.15-7.179-.316-3.4-15.266 2.478-9.8 3.27-14.802 2.895-18.25-.39-3.57-.184-4.75.827-4.75.74 0 1.669-.787 2.063-1.75.797-1.946.698-33.116-.11-34.423-.28-.455.13-.827.913-.827.784 0 2.498-.845 3.81-1.878l2.384-1.879-.588 10.129c-.324 5.57-.955 10.968-1.402 11.994-1.77 4.065 3.29-.32 5.307-4.599 3.106-6.585 3.612-11.854 1.575-16.39-1.252-2.79-1.663-5.904-1.464-11.101.32-8.396-1.813-13.995-7.175-18.829-1.79-1.612-2.69-2.282-2.003-1.49 2.066 2.384 1.428 6.371-1.845 11.532-1.714 2.703-3.577 7.474-4.176 10.696-.595 3.198-1.34 5.8-1.655 5.783-4.32-.24-6.912-10.9-4.137-17.017 3.823-8.427.597-14.459-5.016-9.38-1.63 1.476-1.78 1.112-2.439-5.92-.391-4.176-.283-8.743.245-10.321.911-2.722.994-2.62 2.188 2.67 1.912 8.475 2.02 8.717 3.124 6.972 1.634-2.584 1.07-9.01-1.052-11.99-1.677-2.355-1.823-3.247-.874-5.33l1.14-2.5 3.133 4.674c2.908 4.338 3.438 4.674 7.375 4.674 2.333 0 4.241.322 4.24.715 0 .394 1.332 2.234 2.962 4.09 1.779 2.026 3.231 5.057 3.636 7.59 1.883 11.77 12.401 15.566 12.401 4.474 0-4.136.114-4.315 2-3.137 1.16.724 2 2.332 2 3.827 0 1.418.632 4.797 1.405 7.51 3.817 13.397 2.087 26.937-3.78 29.585-5.303 2.393-7.125 6.06-7.125 14.336 0 5.948.41 7.896 2.153 10.254l2.153 2.912-2.401 9.922c-3.103 12.823-3.085 21.17.061 28.422l2.386 5.5-2.668 3c-1.468 1.65-2.94 3.358-3.272 3.796s-1.88-.877-3.44-2.922m170.873-52.917c-.325-.849-.311-1.824.032-2.167s.623.175.623 1.15c0 1.192.51 1.579 1.552 1.178.89-.341 1.292-.173.941.393-.91 1.472-2.476 1.196-3.148-.554m-14.093-5.957c.012-2.2.216-2.982.455-1.738s.23 3.044-.02 4-.446-.062-.435-2.262m-188.7-31.62c-3.573-4.247-4.965-7.135-7.561-15.683-2.7-8.89-2.222-9.79 1.838-3.464 2.413 3.76 9.53 22.267 8.562 22.267-.117 0-1.394-1.404-2.838-3.12m154.528-20.573c-3.05-2.78-3.065-2.844-1.623-6.807 3.877-10.656-.692-16.419-7.567-9.544-4.21 4.21-5.901 3.153-5.268-3.291 1.093-11.143 1.793-11.646 9.007-6.465 5.83 4.186 10.65 4.339 14 .444 2.735-3.179 3.067-6.822.793-8.709-1.422-1.18-1.379-1.463.432-2.872 1.104-.86 2.4-3.114 2.877-5.01.769-3.05 1.08-2.066 2.713 8.578 2.136 13.93 1.796 20.903-1.191 24.42-1.144 1.347-3.58 4.439-5.416 6.87-4.227 5.602-4.998 5.812-8.757 2.386m-61.58-9.36c-2.75-1.072-8.578-3.907-12.95-6.3-8.206-4.49-8.264-4.563-10.534-13.397-.601-2.338-1.47-4.25-1.933-4.25-1.168 0-2.965 4.643-3.87 10-.638 3.773-1.16 4.555-3.237 4.84-1.362.188-3.908 1.425-5.66 2.75-3.93 2.977-3.798 2.988-3.9-.34-.046-1.513-.415-4.55-.82-6.75-1.03-5.603 1.217-8.884 4.223-6.164 2.672 2.418 3.43.157 3.497-10.44.056-8.579-.847-10.628-7.447-16.906-4.289-4.08-4.735-6.494-2.55-13.8.838-2.798 2.148-4.73 3.736-5.504 1.345-.657 3.41-3.202 4.588-5.657l2.143-4.463 2.154 7.232c1.71 5.739 3.242 8.45 7.428 13.142 2.9 3.251 6.678 8.532 8.393 11.736 1.716 3.203 4.061 6.62 5.212 7.592 1.798 1.52 2 2.456 1.439 6.687-1.101 8.299 5.325 15.564 10.762 12.169 1.455-.91 1.96-.886 2.273.103.22.7.918 2.953 1.55 5.007 1.348 4.386 5.202 7.76 8.888 7.781 3.796.023 8.291 4.476 6.413 6.354-1.44 1.439-14.946.47-19.798-1.422m-95.658-1.32c-1.3-.952-1.422-1.626-.566-3.155 1.01-1.806 1.144-1.735 1.873.992.944 3.529.827 3.723-1.307 2.163M99.088 178.58c-1.655-3.47-1.65-3.516.314-2.464 1.17.626 2.001 2.093 2.001 3.535 0 3.268-.316 3.121-2.315-1.07M77.84 150.866l-2.937-3.25 3.25 2.937c3.03 2.738 3.71 3.563 2.937 3.563-.172 0-1.634-1.462-3.25-3.25m13.868 1.063c-.574-.722-1.345-2.985-1.713-5.028-.875-4.856-2.044-5.43-4.743-2.326-2.607 2.998-4.361 3.367-2.884.607 1.632-3.05 1.237-3.428-1.623-1.554l-2.659 1.742 2.028-2.877c3.728-5.291 3.977-9.529.36-6.127-1.092 1.027-1.215.768-.691-1.458l.637-2.709-2.96 1.7c-1.629.934-3.189 2.607-3.467 3.717-.497 1.978-9.512 6.566-15.854 8.069-4.365 1.034-20.453-5.35-21.231-8.425-.376-1.488-.052-2.778.879-3.5.811-.63 1.67-2.269 1.91-3.644.424-2.442.437-2.437.57.25.09 1.826.687 2.75 1.776 2.75 1.86 0 1.354-9.407-.613-11.373-1.591-1.591-1.291-2.188 2.582-5.142 3.653-2.786 6.147-2.1 4.882 1.344-.364.99.23 1.172 2.32.712 3.062-.672 5.403 1.153 6.624 5.165.767 2.518 6.048 7.294 8.065 7.294.74 0 2.778-1.204 4.527-2.676 2.651-2.23 3.492-2.48 5.058-1.503 1.649 1.03 2.12.698 3.864-2.72 4.09-8.017 6.178-8.733 9.051-3.101 2.632 5.158 3.614 5.038 6.163-.75l2.092-4.75.855 3c.545 1.913.306 6.622-.66 13-.833 5.5-1.786 12.025-2.117 14.5-.8 5.972-1.632 7.568-3.028 5.813m-28.036-4.506c.973-.254 2.323-.237 3 .037s-.119.481-1.769.461-2.204-.244-1.23-.498m140.32-5.384c-3.397-4.037-3.408-8.036-.025-9.605 2.338-1.085 2.708-.92 4.488 2 2.2 3.608 2.524 7.707.748 9.482-1.747 1.748-2.341 1.534-5.21-1.877m68.411-5.732c0-6.342-.857-7.772-5-8.345-3.908-.54-4.167-5.581-.31-6.024 1.996-.229 2.9-.952 3.12-2.496.17-1.196 1.408-2.894 2.75-3.773 3.142-2.059 3.087-3.9-.195-6.48l-2.634-2.073h2.728c1.84 0 2.89-.619 3.225-1.9.611-2.336 7.707-3.662 11.626-2.172 4.41 1.676 4.403 5.056-.026 13.29-4.525 8.412-5.139 8.71-6.752 3.282-.653-2.2-1.895-5.342-2.76-6.981l-1.57-2.982-.673 5.482c-.583 4.758.51 16.066 2.045 21.136.32 1.06-.592 2.434-2.536 3.818l-3.038 2.163zm-237-12.9c-2.738-1.208-4.537-1.336-8.264-.588l-4.764.956 2.188-2.33c2.22-2.362 3.419-3.074 2.399-1.424-.316.511 1.102.682 3.26.392 3.114-.417 4.362-.036 6.75 2.064 3.367 2.959 3.221 3.045-1.569.93m21.761-27.154c.408-4.248.171-5.071-1.87-6.5-2.39-1.674-2.051-1.99 1.8-1.684 1.561.125 2.685-.779 3.905-3.14 2.772-5.362 7.597-10.813 9.572-10.813 1.229 0 1.837-.74 1.848-2.25.04-5.964 7.484-5.062 12.933 1.568l2.45 2.98-3.63-.681c-10.189-1.912-18.39 4.04-23.693 17.195-1.815 4.503-3.409 8.188-3.541 8.188s-.03-2.189.226-4.863" style="fill:#d1d1d1"/><path d="M127.672 323.423c.973-.254 2.323-.237 3 .037s-.119.481-1.769.461-2.204-.244-1.23-.498m16.231-4.143c-3.3-.864-6.121-1.639-6.27-1.721s1.306-5.18 3.234-11.326c4.693-14.97 5.663-22.635 3.367-26.617-.951-1.65-2.048-5.025-2.436-7.5l-.707-4.5 3.157 3.357c1.966 2.09 3.723 3.127 4.656 2.75l3-1.214c2.65-1.073 1.706 3.302-1.5 6.954-1.934 2.202-3 4.503-3 6.473 0 1.68-.717 6.121-1.592 9.868-2.288 9.791-1.546 16.088 2.498 21.194 1.794 2.265 2.886 4.058 2.427 3.985-.458-.073-3.534-.84-6.834-1.703m174.978-58.914c-1.207-7.39-1.634-9.78-2.098-11.75-.345-1.462.346-1.07 2.567 1.454 3.472 3.946 4.754 8.868 3.11 11.94-1.673 3.126-2.891 2.566-3.579-1.644m-181.178-18.25c0-3.025.187-4.263.416-2.75.23 1.512.23 3.987 0 5.5-.229 1.512-.416.275-.416-2.75m-9.105-1.5c.02-1.65.245-2.204.498-1.231.254.973.237 2.323-.037 3s-.481-.119-.46-1.769m182.495-9.19c-2.047-5.836-3.49-10.843-3.206-11.127.704-.704.595-.962 4.462 10.542 1.891 5.623 3.22 10.443 2.952 10.71-.267.268-2.16-4.289-4.208-10.125m16.881 4.322c-1.964-1.853-3.642-4.44-3.729-5.75-.171-2.579-.893-39.971-.992-51.382-.05-5.804.595-8.709 3.777-17 4.749-12.373 5.302-10.486 1.812 6.185-2.938 14.036-4.265 36.007-2.994 49.57.58 6.193 1.323 8.503 4.131 12.863 5.497 8.532 4.399 11.553-2.005 5.514m-195.784-7.632c.242-1.65.614-3 .827-3s.386 1.35.386 3-.372 3-.827 3-.628-1.35-.386-3m95.463.284c1.513-.23 3.988-.23 5.5 0 1.513.229.275.416-2.75.416s-4.262-.187-2.75-.416m4.49-2.885c-10.42-3.36-11.024-3.717-19.096-11.32-11.823-11.138-14.535-11.308-27.542-1.733-5.333 3.926-12.32 6.77-13.566 5.523-.433-.433 2.194-10.932 2.915-11.653.268-.268 1.288.921 2.268 2.642 2.242 3.939 4.406 3.97 7.653.113 3.14-3.733 4.028-8.14 3.402-16.893l-.483-6.744 11.872 6.076c11.158 5.71 12.359 6.099 19.945 6.443 4.535.206 8.507-.068 9.065-.625 1.563-1.563 6.669 1.397 12.978 7.525 6.383 6.199 7.85 6.118 7.85-.43 0-3.599.607-5.25 2.884-7.844 1.586-1.807 3.075-3.858 3.309-4.56.233-.7.933-.959 1.555-.574.823.508.739 1.637-.309 4.145-3.914 9.368 1.808 16.353 8.179 9.983l2.527-2.528 2.793 2.277c1.536 1.253 3.63 2.77 4.652 3.371 1.723 1.014 1.544 1.468-2.465 6.256-12.495 14.925-20.406 16.991-40.386 10.55m72.85-12.981c-1.28-5.096-2.779-7.934-6.637-12.571-8.71-10.465-10.528-15.9-7.368-22.012 2.338-4.52 3.621-2.332 4.403 7.506.608 7.666 1.008 8.885 4.448 13.572 4.826 6.574 10.01 20.087 7.705 20.087-.494 0-1.642-2.962-2.551-6.582m-141.34-1.61c-1.634-6.136-1.58-9.29.186-10.755.79-.655 1.744-2.594 2.12-4.31.624-2.837 3.84-6.627 5.694-6.71 2.21-.098.517 7.84-2.686 12.596-2.329 3.458-3.537 6.514-3.75 9.486l-.314 4.385zm-46.511-3.484c-.305-3.203-.886-6.724-1.293-7.824-.526-1.42-.423-1.71.355-1 1.38 1.26 3.118 12.014 2.185 13.522-.382.619-.943-1.496-1.247-4.698m2.261-5.324c0-2.2.178-4 .395-4s.567 1.8.777 4 .032 4-.395 4-.777-1.8-.777-4m8.45 2.097c-.522-.497-1.85-1.12-2.95-1.384-1.897-.456-1.89-.487.128-.597 1.17-.064 2.688.559 3.372 1.384 1.358 1.636.977 2.049-.55.597m-65.366-59.462c.229-.2 1.541-.9 2.916-1.555 2.357-1.122 2.39-1.102.56.365-1.594 1.276-4.849 2.391-3.476 1.19m16.469-.55a1.117 1.117 0 0 1 .362-1.532 1.117 1.117 0 0 1 1.532.362c.322.52.16 1.21-.361 1.532s-1.211.16-1.533-.362m-42.414-22.118c-1.298-1.082-1.93-1.967-1.405-1.967.526 0 1.77.9 2.766 2 2.287 2.527 1.695 2.513-1.36-.033m3.986-.14c-1.11-1.776-1.04-2.318.483-3.704 1.66-1.511 1.692-1.502.465.127-1.065 1.414-1.075 2.043-.053 3.274.696.838 1.072 1.718.835 1.955-.237.236-1.015-.506-1.73-1.651m259.821-1.577-3.446-3.75 3.75 3.446c2.063 1.896 3.75 3.583 3.75 3.75 0 .764-.846.044-4.054-3.446M56.482 92.834c-.043-.98-1.091-2.19-2.329-2.687-1.522-.612-1.724-.925-.622-.968 2.056-.08 4.225 2.461 3.546 4.153-.32.795-.546.605-.595-.498" style="fill:#c9c9c9"/><path d="m375.264 251.176-2.36-1.94 2.206.15c1.214.082 2.006.35 1.759.598-.247.246.053 1.052.665 1.79 1.618 1.95.458 1.644-2.27-.598m-81.86-18.86c0-2.498-1.953-4.2-4.817-4.2-1.925 0-2.31.407-1.894 2 .34 1.3.03 2-.883 2-.774 0-1.407-.852-1.407-1.893 0-3.633-7.82-4.507-8.744-.977-.522 1.997-.988 2.09-7.502 1.484-3.82-.355-7.862-1.137-8.983-1.737-1.942-1.04-1.887-1.165 1.154-2.638 4.16-2.014 16.274-15.28 15.587-17.068-.65-1.696 4.119-7.578 4.995-6.16.346.56 2.51 1.959 4.811 3.11 5.506 2.753 11.448 8.535 12.175 11.847.32 1.456-.1 5.268-.934 8.47-.834 3.201-1.275 6.213-.979 6.691.296.48-.163.871-1.02.871-.858 0-1.56-.81-1.56-1.8M34.33 138.777c-2.75-2.06-3.236-4.846-.78-4.48 1.174.175 2.502 1.317 2.95 2.537.975 2.652-.026 3.548-2.17 1.943m-8.935-8.466c-2.155-1.745-2.072-4.98.094-3.642.52.322.688 1.004.372 1.516-.317.512.126.931.983.931.903 0 1.56-.859 1.56-2.04 0-1.687.237-1.817 1.376-.753 1.446 1.351.755 4.916-1.07 5.524-.553.184-2.044-.507-3.315-1.536m7.044-4.843c-2.069-1.05-2.199-1.352-.809-1.886 2.566-.984 4.578-.164 3.887 1.586-.517 1.307-1.001 1.354-3.078.3" style="fill:#c8c8c8"/><path d="M137.723 253.116c0-3.575.182-5.037.404-3.25.221 1.788.221 4.713 0 6.5-.222 1.788-.404.325-.404-3.25m212.67-18.242c-2.903-4.367-3.1-5.223-.56-2.452 1.413 1.543 2.57 3.23 2.57 3.75 0 1.41-.367 1.172-2.01-1.298m-228.368-3.41c-1.653-1.652-3.638-5.814-5.27-11.052-1.442-4.62-4.427-11.19-6.634-14.599-2.208-3.408-4.64-7.684-5.402-9.502-1.36-3.235-1.344-3.28.75-2.16 1.176.63 3.036.91 4.133.623s2.622-.28 3.39.014c1.773.68 4.411 9.459 4.411 14.676 0 2.192.316 3.67.702 3.283 1.374-1.374-.665-14.159-3.39-21.263-.452-1.175-.279-1.466.562-.946.668.413 1.87.206 2.67-.458 1.256-1.043 1.456-.022 1.456 7.414 0 7.945.949 10.805 2.362 7.122.732-1.907 5.02-1.95 6.583-.067.938 1.13.664 2.733-1.3 7.595-2.278 5.64-2.376 6.484-1.148 9.963 1.318 3.735.979 12.009-.492 12.009-.403 0-1.925-1.193-3.383-2.651m174 1.85c-.319-.517.103-3.559.937-6.76 2.456-9.43-.325-14.449-11.291-20.37-5.522-2.983-5.657-3.478-2.167-7.938l2.6-3.323 3.995 2.038c7.308 3.728 17.557 19.233 16.627 25.155-.216 1.375-.49 3.4-.608 4.5-.2 1.866-4.392 6.496-5.883 6.499-.368 0-1.334.257-2.149.57-.814.312-1.742.145-2.06-.371m-161.67-.848c-2.938-.794-.863-12.072 3.53-19.189 2.4-3.89 3.574-6.84 3.236-8.133-.803-3.07.943-1.463 3.91 3.599 3.166 5.404 4.823 18.867 2.197 17.86-.839-.323-2.977.93-5.086 2.979-3.521 3.42-4.485 3.776-7.787 2.884m43.564-22.3c-.34-1.073.073-3.288.919-4.924 1.174-2.27 1.485-5.77 1.313-14.8-.184-9.701.092-12.41 1.54-15.076.97-1.788 1.937-3.25 2.148-3.25s1.325 4.084 2.475 9.076c2.284 9.923 2.687 19.216 1.023 23.609-2.358 6.223-8.106 9.497-9.418 5.365m162.548-7.8c-.648-4.262-1.568-15.445-2.043-24.85-.906-17.959-1.948-23.848-5.138-29.06-2.792-4.56-.68-13.23 3.246-13.325 2.675-.065 5.769 17.986 6.398 37.326.288 8.887.734 18.77.99 21.962.255 3.198.07 5.56-.413 5.261-1.277-.789-2.041 3.045-1.398 7.009.306 1.885.327 3.427.047 3.427s-1.04-3.488-1.689-7.75m-217.306-11.32c-1.973-8.409-1.698-9.521 1.185-4.793 2.1 3.444 2.36 5.572 1.194 9.73-.522 1.861-1.031.804-2.379-4.938m-26.375-18.272c-1.585-1.875-5.13-6.277-7.876-9.783s-7.123-8.657-9.727-11.447l-4.733-5.072-8.773.327c-8.442.315-8.623.277-4.774-1.005 2.2-.733 4.9-1.86 6-2.505s3.238-1.611 4.75-2.148c1.7-.603 2.75-1.705 2.75-2.885 0-1.05 1.139-2.656 2.53-3.568 2.513-1.646 2.525-1.64 1.865.993-.618 2.46-.512 2.568 1.47 1.507 2.782-1.489 2.693-.7-.543 4.822l-2.677 4.57 2.677-1.756c2.905-1.903 3.24-1.626 1.643 1.358-1.447 2.704-.07 2.409 3.15-.675 3.31-3.172 4.682-2.512 5.507 2.648.345 2.158 1.247 4.437 2.003 5.065.756.627 1.378 2.548 1.38 4.268.01 4.831 1.944 10.694 4.737 14.356 3.405 4.464 2.28 5.233-1.359.93m227.644-39.593c-.683-1.649-2.206-3.283-3.384-3.632-1.179-.348-4.802-1.938-8.053-3.533-3.25-1.595-6.644-2.9-7.541-2.9-3.218 0-13.343-12.196-14.252-17.166-.586-3.208.724-2.878 10.684 2.693 3.416 1.91 7.099 3.473 8.184 3.473s4.346.705 7.248 1.567c4.944 1.468 5.176 1.677 3.682 3.329-2.284 2.523-1.974 5.099.985 8.188 1.42 1.48 2.97 4.418 3.445 6.526 1.075 4.767.638 5.405-.998 1.455m-283.611-3.87c-1.053-6.579-3.638-9.195-9.089-9.195h-4.527l5.027-5.5c2.765-3.026 6.492-8.089 8.282-11.25 1.79-3.163 4.226-7.1 5.413-8.75s2.767-4.575 3.512-6.5c2.516-6.508 5.421-10 10.413-12.51 7.725-3.888 9.578-3.116 5.238 2.183-1.273 1.555-3.335 4.514-4.582 6.577-2.426 4.016-3.079 4.374-4.81 2.643-.81-.81-1.41-.541-2.235 1-.91 1.7-.843 2.107.348 2.107.812 0 1.784.498 2.16 1.106.878 1.42 1.143 10.834.29 10.306-.353-.219-.926.732-1.273 2.113-.66 2.629-6.706 9.176-12.493 13.528-3.254 2.447-3.331 2.654-1.864 5 1.999 3.196 2.875 8.167 1.757 9.974-.634 1.027-1.079.225-1.567-2.831m228.834-22.884c.963-.252 2.538-.252 3.5 0 .963.251.175.457-1.75.457s-2.712-.206-1.75-.457" style="fill:#c1c1c1"/><path d="M330.192 308.476c-.902-.901-3.923-1.859-6.714-2.127-3.174-.305-5.075-.962-5.075-1.755 0-.947.942-1.055 3.722-.428 2.047.462 3.786.752 3.863.645.078-.107.564-1.502 1.08-3.1.933-2.889.95-2.874 3.022 2.75 1.145 3.11 2.006 5.655 1.912 5.655s-.908-.738-1.81-1.64m-31.073-4.978c-.394-.393-.716-1.797-.716-3.12s-.724-3.129-1.609-4.014c-1.266-1.266-1.476-2.796-.987-7.178.343-3.064.864-11.42 1.16-18.57.741-17.91 1.111-19.326 3.452-13.193 1.009 2.644 2.296 5.363 2.86 6.042 1.91 2.303 3.49 19.21 2.328 24.923-1.284 6.306-5.492 16.107-6.488 15.11m-8.62-8.57c2.023-3.965 2.107-5.177 1.586-22.75-.302-10.21-.797-19.912-1.099-21.562s.436-.3 1.638 3c3.53 9.692 3.299 31.82-.416 39.75-1.482 3.163-2.953 5.75-3.27 5.75-.316 0 .386-1.885 1.561-4.188m-156.525-24.99c-1.477-3.538-4.57-23.783-4.57-29.91 0-2.04-.666-4.22-1.5-4.912-1.421-1.179-2.173-7-.905-7 .327 0 1.817.87 3.31 1.934 5.204 3.704 7.607 3.635 11.698-.338 5.102-4.955 6.305-4.93 4.235.089-.64 1.548-1.107 3.1-1.04 3.447.068.348-.422.603-1.088.567s-2.56.471-4.21 1.127l-3 1.194.735 14.74c.99 19.842-.375 26.943-3.665 19.062m234.15-13.918c-.978-.57-2.89-2.797-4.25-4.95-1.358-2.152-4.21-4.8-6.335-5.885-3.194-1.63-3.97-2.63-4.475-5.77-.345-2.143-2.33-6.085-4.555-9.041-4.325-5.75-4.672-6.857-6.008-19.172-.861-7.944-.09-14.687 1.268-11.086.31.825 1.477 3.991 2.592 7.036s3.267 7.37 4.784 9.61 4.182 6.189 5.922 8.774c1.74 2.586 6.353 7.76 10.25 11.498s7.086 7.64 7.086 8.671c0 1.335-.745.778-2.589-1.935-1.424-2.095-2.83-3.568-3.126-3.272s-1.494-.872-2.661-2.595-2.799-3.327-3.624-3.564-.522.293.674 1.176c1.195.884 2.702 3.211 3.35 5.171.646 1.96 1.428 3.312 1.736 3.003s1.18.323 1.936 1.403c.757 1.08 2.935 2.704 4.84 3.608s3.464 2.112 3.464 2.685c0 .572-.903.224-2.006-.775-1.103-.998-2.307-1.514-2.676-1.145-.368.368-1.625-.229-2.794-1.326l-2.124-1.996v3.422c0 1.882.248 3.27.55 3.082.303-.186.615.743.694 2.065.08 1.322.08 2.39 0 2.374-.079-.017-.944-.497-1.923-1.066m-2.238-8.654c-.746-2.063-1.604-4.932-1.908-6.377s-1.794-3.427-3.313-4.405c-2.701-1.739-2.726-1.736-1.138.127.893 1.048 2.18 3.705 2.861 5.905 1.19 3.844 3.631 8.5 4.458 8.5.218 0-.214-1.688-.96-3.75m-64.885-1.543c-4.96-8.901-5.038-11.128-.463-13.147 2.126-.937 3.865-2.122 3.865-2.632s.45-.928 1-.928c1.34 0 1.188 8.05-.296 15.707l-1.204 6.208zm-12.961-2.343c-.948-1.987-1.505-3.83-1.238-4.096s1.191 1.209 2.056 3.277c2.04 4.883 1.417 5.506-.818.819m-94.137-14.798c-2.75-.776-6.267-1.896-7.815-2.488-3.459-1.324-11.085-1.397-15.441-.148-3.779 1.084-3.704 1.262-1.635-3.91 1.478-3.693 1.913-4.02 5.36-4.02 2.44 0 5.112-.94 7.642-2.688 12.747-8.809 13.68-9.312 17.267-9.312 4.449 0 6.566 1.359 15.626 10.027 6.477 6.198 7.679 6.904 16 9.392 4.948 1.48 9.446 2.837 9.996 3.015.55.18-3.05.267-8 .196s-14.625.202-21.5.609c-9.567.565-13.673.407-17.5-.673m7.268-98.998c-.452-2.367-.404-2.387 1.78-.75 2.32 1.738 2.325 3.182.01 3.182-.729 0-1.534-1.095-1.79-2.432m-43.268-8.839c-10.546-16.073-12.557-17.543-27.56-20.147l-7.44-1.292 7.41-2.291c6.9-2.133 8.282-2.23 20-1.4 6.925.49 18.697.889 26.16.887l13.571-.005 1.076 4.53c.592 2.49 2.697 7.295 4.68 10.677 2.164 3.692 3.603 7.464 3.603 9.442v3.293l-1.87-3.667c-6.006-11.782-14.238-17.334-20.886-14.085-3.692 1.804-3.745 1.912-3.806 7.829-.094 9.004-.205 9.421-3.36 12.577-4.196 4.195-4.92 3.798-11.578-6.348m105.5-16.229c-3.43-1.321-3.346-1.35 4.25-1.424 6.256-.061 7.75.213 7.75 1.424 0 1.923-7.006 1.923-12 0M66.993 73.26c-.291-.47.582-.643 1.94-.383s2.47.645 2.47.856c0 .773-3.898.356-4.41-.473" style="fill:#b8b8b8"/><path d="m293.792 300.744-4.111-1.992 2.61-5.568c4.198-8.953 3.895-29.851-.62-42.802l-3.219-9.234 2.105-3.569c2.652-4.493 5.959-4.476 6.894.037.342 1.65 2.046 5.511 3.787 8.58 2.638 4.652 3.165 6.642 3.165 11.95 0 7.27-.994 7.115-3.942-.613-2.385-6.251-2.75-4.883-3.494 13.083-.296 7.15-.817 15.506-1.16 18.57-.497 4.456-.287 5.904 1.054 7.245.922.922 1.533 2.718 1.36 3.99l-.318 2.316zm76.184-52.15c-1.06-.801-1.694-1.69-1.41-1.974s1.333.386 2.332 1.49c2.126 2.35 1.782 2.53-.922.485m-8.33-8.708c.226-.677-.524-2.053-1.666-3.06-2.036-1.793-2.024-1.797.613-.194 1.612.98 2.47 2.206 2.143 3.06-.668 1.739-1.664 1.917-1.09.194m2.622-2.809c-1.449-1.629-2.306-2.961-1.905-2.961.772 0 3.252 2.65 4.447 4.75 1.131 1.988.297 1.4-2.542-1.789m-79.984-2.742c-.33-1.988-.182-2.92.372-2.366.504.504.75 1.98.544 3.282-.314 2.001-.455 1.86-.916-.916m-254.13-91.518q-6.597-2.607 3.533-2.286c7.096.225 10.332 1.441 7.15 2.687-2.707 1.06-7.435.882-10.684-.401m.25-9.701c0-.55 1.034-1 2.3-1 1.264 0 2.84-.54 3.5-1.2 1.482-1.483 1.58-4.8.14-4.8-.582 0-.739-.518-.347-1.151.493-.798 1.125-.586 2.059.69 1.785 2.442 1.703 4.962-.224 6.89-1.728 1.727-7.429 2.166-7.429.571m171.138-5.033c-1.298-1.082-1.93-1.967-1.405-1.967.526 0 1.77.9 2.766 2 2.287 2.527 1.695 2.512-1.36-.033m-177.564-2.845c-.298-.483.688-1.127 2.191-1.43 1.504-.304 3.634-.85 4.734-1.215 1.643-.545 1.553-.293-.5 1.408-2.62 2.17-5.504 2.726-6.425 1.237m164.35-15.872-2.425-2.75 2.75 2.424c1.513 1.334 2.75 2.571 2.75 2.75 0 .785-.81.146-3.075-2.424M79.672 75.423c.973-.254 2.323-.237 3 .037s-.119.481-1.769.461-2.204-.244-1.23-.498m-12.269-3.172c0-1.193 3.966-6.135 4.924-6.135.428 0 .285 1.575-.318 3.5-.98 3.133-4.606 5.207-4.606 2.635" style="fill:#a7a7a7"/><path d="M372.04 254.48c-1.45-1.45-2.637-3.46-2.637-4.467 0-1.728.195-1.715 3.503.237 3.588 2.117 5.287 3.866 3.756 3.866-.472 0-1.391-.533-2.042-1.183-1.99-1.99-2.662.034-.722 2.177 2.658 2.937 1.222 2.45-1.858-.63m-9.457-12.614c-.949-3.793-.908-4.041.379-2.309 1.274 1.716 2.06 6.559 1.063 6.559-.208 0-.857-1.912-1.442-4.25m-83.513-1.417c-.367-.366-.67-1.604-.673-2.75s-.683-3.381-1.51-4.968c-2.449-4.695 1.547-7.507 6.02-4.236 1.79 1.308 1.799 1.51.19 3.965-.931 1.422-1.694 3.951-1.694 5.62 0 2.899-.895 3.808-2.333 2.37m8.735-4.445c.427-2.67.23-4.628-.565-5.585-1.037-1.25-.775-1.422 1.72-1.138 3.584.408 4.31 3.258 1.978 7.767-2.316 4.48-3.93 3.942-3.133-1.044m-17.207-.388c.02-1.65.245-2.204.498-1.231.254.973.237 2.323-.037 3s-.481-.119-.46-1.769m-90.963-41.5c0-1.925.206-2.712.458-1.75.251.963.251 2.538 0 3.5-.252.963-.458.175-.458-1.75m19.963-72.5c.02-1.65.245-2.204.498-1.231.254.973.237 2.323-.037 3s-.481-.119-.46-1.769" style="fill:#8f8f8f"/><path d="M248.598 205.616c.02-1.65.245-2.204.498-1.231.254.973.237 2.323-.037 3s-.481-.119-.46-1.769m-90.909-3c.008-2.75.202-3.756.432-2.236s.224 3.77-.014 5c-.237 1.23-.425-.014-.418-2.764m21.91-3c.02-1.65.244-2.204.497-1.231.254.973.237 2.323-.037 3s-.481-.119-.46-1.769M30.652 139.454c-1.656-.669-1.6-2.005.084-2.005.733 0 1.333.6 1.333 1.334 0 .733-.038 1.297-.083 1.254s-.646-.306-1.334-.583" style="fill:#7a7a7a"/><path d="M135.653 333.427c.963-.252 2.538-.252 3.5 0 .963.251.175.457-1.75.457s-2.712-.206-1.75-.457m184-15c.963-.252 2.538-.252 3.5 0 .963.251.175.457-1.75.457s-2.712-.206-1.75-.457m-2.37-11.59c.482-.483 2.169-.716 3.748-.52 2.644.33 2.574.4-.877.878-2.15.298-3.375.145-2.872-.358m-172.594-61.221c.008-2.75.202-3.756.432-2.236s.224 3.77-.014 5c-.237 1.23-.425-.014-.418-2.764m123.321-9.082c-1.17-3.047-.647-5.418 1.192-5.418 1.468 0 1.724.645 1.391 3.5-.432 3.704-1.573 4.55-2.583 1.918m17.393-.859c0-1.407.45-2.559 1-2.559s1 .873 1 1.941-.45 2.22-1 2.559c-.567.35-1-.49-1-1.941m21.195-87.059c.02-1.65.245-2.204.498-1.231.254.973.237 2.323-.037 3s-.481-.119-.46-1.769m-274.695-9.5c-.782-1.266.542-1.266 2.5 0 1.293.835 1.267.971-.19.985-.93.008-1.97-.435-2.31-.985m239.695-5.5c.02-1.65.245-2.204.498-1.231.254.973.237 2.323-.037 3s-.481-.119-.46-1.769" style="fill:#5e5e5e"/><path d="M136.84 326.423c3.052-4.49 2.536-5.402-1.409-2.486-3.98 2.943-4.564 2.741-2.096-.725 2.728-3.832 2.618-4.626-.841-6.058-2.126-.881-3.455-.914-4.934-.122-2.69 1.44-2.84 1.402-3.435-.87-.828-3.167 3.537-5.384 8.988-4.567 4.437.665 4.478.708 3.867 3.964-.61 3.252-.566 3.298 3.653 3.795 2.348.277 5.845 1.179 7.77 2.005l3.5 1.503-3 .777c-1.65.428-4.478 2.06-6.285 3.627-1.806 1.568-4.41 2.85-5.786 2.85h-2.5zm177.194-9.827c-1.268-3.303 2.58-8.9 6.563-9.546 6.376-1.037 9.461.997 8.99 5.93-.216 2.274-.684 4.178-1.039 4.23-6.046.873-9.237.589-8.713-.778 2.317-6.036.991-9.166-1.418-3.35-1.666 4.023-3.595 5.568-4.383 3.514m-157.488-.387c-1.006-.625-1.053-1.03-.183-1.568 1.372-.848 2.402-.097 1.894 1.38-.208.606-.914.683-1.71.188m129.357-7.104c-2.963-.565-2.972-.587-.773-1.803 1.225-.678 2.761-2.234 3.414-3.459 1.306-2.451.322-1.918-4.89 2.65-3.524 3.087-2.635.387 1.047-3.18 3.777-3.662 5.789-3.887 10.702-1.197 2.645 1.448 3.011 1.928 1.5 1.963-1.1.025-3.35 1.295-5 2.822-2.366 2.189-3.634 2.654-6 2.204M23.786 137.648c-.827-1.754-.684-2.16.805-2.271.997-.075 1.812.249 1.812.72 0 .47.245 1.492.543 2.27.88 2.292-2.054 1.624-3.16-.719m4.617-1.532c0-.55.424-1 .941-1 .518 0 1.22.45 1.56 1s-.084 1-.942 1c-.857 0-1.559-.45-1.559-1m-3.8-3.2c-1.983-1.984-1.354-2.956 1.05-1.623 1.238.686 2.621 1.141 3.075 1.01.453-.13.539.225.19.788-.85 1.376-2.845 1.295-4.315-.175m52.24-36.594c.403-.711.156-2.061-.549-3-1.154-1.536-1.092-1.532.621.037 1.59 1.456 1.68 1.95.549 3-1.09 1.012-1.212 1.005-.621-.037" style="fill:#393939"/><path d="M129.968 331.787c-1.911-1.397-.772-5.671 1.51-5.671.554 0 2.332-.98 3.953-2.179 3.945-2.916 4.461-2.005 1.41 2.486l-2.51 3.693h2.501c1.376 0 3.98-1.282 5.786-2.85 6.02-5.221 11.81-4.888 8.294.477-3.158 4.82-16.39 7.375-20.944 4.044m-10.183-10.118c-.305-.796.271-2.577 1.282-3.958 2.381-3.255 4.268-4.05 3.606-1.52-.575 2.2.023 2.374 2.887.841 4.103-2.196 9.647 1.88 6.643 4.884-1.79 1.79-13.715 1.586-14.418-.247m197.833-7.303c2.722-4.756 2.672-4.696 3.385-3.984 1.29 1.29-1.745 7.734-3.644 7.734-1.805 0-1.794-.165.259-3.75m11.785-.71c0-2.518.401-3.575 1.25-3.295 1.873.617 2.063 4.25.298 5.715-1.35 1.12-1.548.811-1.548-2.42m-40-4.088c0-1.36 5.72-5.392 7.691-5.42 3.97-.058 3.524 1.97-.87 3.964-4.313 1.957-6.82 2.492-6.82 1.456m-6.529-2.405c.325-.525 1.978-1.943 3.675-3.15l3.086-2.198-1.139 2.128c-.626 1.17-1.999 2.587-3.05 3.15-2.392 1.28-3.336 1.306-2.572.07M31.432 131.155c-.809-.512-1.168-1.233-.797-1.604.37-.37 1.402.055 2.292.946 1.76 1.76.868 2.152-1.495.658" style="fill:#2a2a2a"/><path d="M154.501 262.967c-1.566-4.493-1.356-12.45.42-15.884 1.858-3.594 8-7.285 7.138-4.29-.288 1.003-1.245 5.648-2.126 10.323-2.36 12.515-2.488 13-3.451 13-.486 0-1.377-1.417-1.981-3.15m-9.404-19.386c.298-11.521 1.242-14.019 3.815-10.093 2.15 3.282 1.533 9.666-1.51 15.631-1.122 2.198-2.155 3.997-2.295 3.997s-.146-4.29-.01-9.535zm20.966-26.446c-.7-6.704-.198-8.53 4.288-15.585 1.726-2.714 3.071-6.059 2.99-7.434-.289-4.84.071-6 1.862-6 .99 0 2.34.54 3 1.2 1.605 1.605 1.477 12.674-.182 15.665l-1.312 2.366-1.5-3.763-1.501-3.762-.542 5.968c-.449 4.952-4.81 17.326-6.107 17.326-.204 0-.652-2.691-.996-5.98m-15.171-9.626c-5.824-6.283-4.998-13.112 2.92-24.132 3.898-5.426 5.502-10.58 3.648-11.726-1.83-1.131-3.966 1.362-5.412 6.32-1.313 4.503-1.426 4.598-5.492 4.621-2.652.015-4.152-.424-4.152-1.218 0-.682-.9-1.803-2-2.49s-2-2.04-2-3.009c0-1.092.757-1.759 2-1.759 2.544 0 2.58-1.619.065-2.965-2.524-1.35-8.764-1.333-9.605.028-.361.585.062 1.858.941 2.829.88.97 1.598 2.249 1.598 2.839s1.29 1.523 2.865 2.072c1.92.67 3.03 1.866 3.368 3.632.276 1.449.262 2.393-.034 2.097-.295-.295-1.365.213-2.377 1.13-2.606 2.358-5.651.502-9.532-5.808l-3.078-5.005-3.666 7.624c-3.032 6.303-3.993 7.52-5.55 7.025-1.32-.418-2.385.166-3.555 1.952-4.248 6.484-10.44-1.502-10.44-13.463 0-1.87-1.264-4.962-3.144-7.695-4.255-6.184-4.745-13.711-1.948-29.903 2.653-15.364 2.827-25.678.424-25.212-.939.182-2.286 2.18-3.083 4.573-1.674 5.022-2.574 5.295-4.236 1.283-2.759-6.66-6.977-5.876-10.507 1.953-1.68 3.726-2.036 4.01-3.135 2.508-1.133-1.55-1.587-1.415-5.3 1.569-5.187 4.168-7.688 3.263-11.747-4.246-2.587-4.789-3.188-5.303-6.048-5.175-2.978.133-3.158-.053-2.894-3 .177-1.977 1.594-4.508 3.82-6.827 2.32-2.414 4.81-6.96 7.219-13.179C67.455 77.64 77.993 72.275 91.47 79.15c3.627 1.85 3.807 2.148 2.733 4.507-1.239 2.718-.385 3.738 6.333 7.572 2.799 1.598 2.807 1.632.847 3.405-2.55 2.308-2.52 5.642.08 8.621l2.059 2.361-.383-3.225c-.356-3.005-.212-3.182 2.124-2.595 1.379.346 4.062 1.684 5.963 2.974s3.844 2.346 4.317 2.346.86 1.215.86 2.7c0 2.1.267 2.433 1.2 1.5 1.901-1.9 4.315-1.413 7.179 1.452 3.009 3.008 2.837 4.07-.379 2.348-2.869-1.535-3.378-.828-2.556 3.553.558 2.971 1.043 3.553 2.62 3.14 2.962-.774 2.416 2.31-1.026 5.807-4.396 4.465-5.367 5.092-7.288 4.705-1.38-.277-1.75.336-1.75 2.913 0 3.063-.087 3.145-1.418 1.325-2.235-3.057-2.72-1.218-1.094 4.142 1.799 5.932 1.782 5.7.354 4.817-.85-.526-.986.717-.508 4.691.357 2.974.653 8.021.658 11.216.01 7.28 1.935 6.735 2.183-.618l.175-5.191.408 4.5.408 4.5 1.267-3c1.25-2.957 1.278-2.91 2.03 3.376.5 4.183 1.058 5.903 1.62 5 .615-.987 1.051-.414 1.542 2.023 1.345 6.678 3.358.8 3.54-10.34l.165-10.059.613 11.695c.63 12.01 1.436 15.13 2.653 10.278.94-3.741 3.86-6.617 5.28-5.197.77.769 1.584.635 2.85-.47.976-.85 2.312-1.35 2.969-1.11 3.7 1.345 5.305-1.58 5.305-9.672 0-8.594 1.416-11.442 2.5-5.028.63 3.734 2.5 5.698 2.5 2.626 0-.757.656-1.921 1.458-2.587 1.001-.83 1.261-2.2.831-4.372-.56-2.833-.456-3.023.999-1.827 3.256 2.677 4.135.18 1.968-5.586-.258-.688.184-1.25.982-1.25 4.106 0 5.738-5.213 3.18-10.16-.87-1.683-1.093-2.757-.493-2.387 3.107 1.92 4.336 6.792 3.058 12.12-1.665 6.937-.764 9.832 4.565 14.682 5.445 4.956 6.92 9.554 5.955 18.56-.502 4.687-.982 6.105-1.794 5.294-3.966-3.966-7.361 1.618-5.645 9.284 2.03 9.073-1.806 17.96-6.083 14.09-1.952-1.767-1.98-1.712-1.98 3.827 0 7.326-2.573 9.334-6.512 5.083M82.217 107.358c.172-1.783.722-3.242 1.221-3.242s1.298-1.462 1.775-3.25c.76-2.85 1.243-3.22 3.916-3.012 3.828.3 5.179-1.331 4.544-5.488-.54-3.536-1.506-3.894-5.463-2.027-2.65 1.251-9.818 15.206-9.81 19.1.006 3.376 3.472 1.486 3.817-2.081m-5.293-10.634c1.643-1.201 1.715-1.618.527-3.05-2.12-2.556-6.48-1.637-6.841 1.442-.2 1.705-.012 2.085.591 1.197.487-.716 1.52-1.166 2.294-1 .774.167 1.282-.302 1.127-1.04-.155-.74.267-1.162.937-.938 2.348.782 1.919 2.59-.856 3.602-1.54.562-2.098 1.057-1.24 1.1.856.043 2.414-.547 3.461-1.313m6.48-4.551c0-1.07.92-2.588 2.044-3.376 1.645-1.152 1.759-1.542.581-1.994-.881-.338-1.35-1.591-1.18-3.15.226-2.054-.07-2.474-1.44-2.039-.948.3-2.292-.138-2.987-.975-3.254-3.921-3.51-1.133-.85 9.227 1.104 4.3 3.831 5.942 3.831 2.307M242.358 203.97c-3-3.105-6.58-5.963-7.956-6.35-1.375-.388-3.94-2.235-5.699-4.104-2.174-2.311-4.105-3.4-6.027-3.4-4.522 0-7.09-2.546-8.87-8.797-1.905-6.686-2.962-8.17-3.843-5.396-1.123 3.54-3.524 3.43-7.29-.336-3.4-3.4-3.514-3.747-2.911-8.875.578-4.922.386-5.64-2.466-9.217-1.7-2.133-3.963-5.578-5.027-7.655s-4.405-6.689-7.425-10.249c-7.065-8.328-9.416-13.804-5.485-12.776 1.157.302 2.436 2.004 3.125 4.156 1.132 3.536 8.77 12.145 10.773 12.145.545 0 2.31-1.11 3.923-2.466l2.93-2.467 2.401 3.717c2.84 4.398 6.226 5.327 7.915 2.171 2.002-3.74.252-8.781-4.978-14.34-3.868-4.11-4.89-5.942-5.203-9.326l-.388-4.21 2.257 2.12c1.242 1.167 2.554 3.736 2.916 5.71.361 1.975 1.943 5.07 3.515 6.876 1.571 1.806 2.857 3.691 2.857 4.189 0 1.755 8.938 2.388 10.79.764.94-.826 2.681-1.797 3.868-2.158 1.187-.36 2.382-1.242 2.657-1.958.317-.827 1.618-1.139 3.559-.854 2.42.355 4.533 2.295 10.13 9.305 3.889 4.87 7.504 9.123 8.034 9.45 2.468 1.526.472-3.12-4.395-10.227-5.548-8.1-7.52-12.296-5.78-12.296 1.284 0 11.62 10.241 16.082 15.934 3.661 4.672 5.484 4.026 2.392-.847-5.44-8.574-13.463-16.981-18.282-19.16-4.688-2.118-4.89-2.355-3.077-3.624 2.482-1.738 1.64-3.932-2.29-5.964-5.492-2.84-1.19-4.51 10.812-4.198 6.788.177 11.674-.235 15.211-1.284 4.98-1.475 5.38-1.45 8.992.577 4.66 2.614 5.36 5.125 1.868 6.716-1.882.857-2.57 1.931-2.57 4.01 0 1.562-.338 2.787-.75 2.722-6.434-1.016-7.5 4.733-1.25 6.746 3.487 1.123 3.5 1.151 3.795 7.75.32 7.16.702 7.582 4.32 4.763 3.826-2.982 8.586-5.141 11.335-5.141 3.683 0 3.368 3.845-.95 11.566-2.664 4.762-3.5 7.423-3.5 11.124 0 5.128-2.061 9.31-4.587 9.31-1.142 0-.987.658.685 2.92 2.76 3.733 1.95 7.486-2.064 9.562-4.105 2.123-4.904 1.971-10.464-1.982-8.19-5.823-9.705-4.93-10.64 6.277-.521 6.227-1.028 7.715-3.513 10.308-2.284 2.385-3.021 4.245-3.455 8.723l-.552 5.692zm15.794 1.754c-4.7-3.568 3.026-19.557 8.911-18.44 3.8.721 2.37 11.265-2.276 16.787-2.816 3.347-4.011 3.644-6.635 1.653m-137.102-42.286c-1.359-7.074-1.772-13.322-.88-13.322.526 0 1.267 3.427 1.646 7.615.693 7.647.247 10.975-.766 5.707m204.352-8.885c0-2.51.738-9.298 1.639-15.085 1.435-9.214 1.926-10.652 3.953-11.576 2.189-.997 2.235-1.21.841-3.906-3.014-5.829-8.433-7.314-8.433-2.311 0 2.724-1.735 3.296-2.663.877-1.016-2.648 1.357-6.436 4.031-6.436 3.94 0 6.7 3.167 9.184 10.544l2.344 6.956-2.343 2c-1.803 1.54-2.474 3.382-2.914 8-.636 6.67-3.332 15.5-4.733 15.5-.498 0-.906-2.054-.906-4.563m-13.471-2.99c-1.084-.82-2.492-1.291-3.129-1.047-.704.27-1.355-1.029-1.662-3.316-.297-2.218-1.577-4.832-3.12-6.376-3.916-3.915-3.46-8.175 1.132-10.593 2.557-1.347 2.963-.23 1.038 2.853-1.54 2.465-1.254 2.701 4.264 3.522 4.243.632 4.632.499 5.754-1.963 1.373-3.014 2.743-2.668 3.418.863.657 3.436-.696 5.28-4.887 6.664l-3.647 1.203 2.356 1.777c1.917 1.446 2.129 2.05 1.138 3.245-.67.807-.937 2.2-.594 3.094.76 1.98.474 1.99-2.061.073M195.57 123.386c-1.283-.893-3.897-4.07-5.81-7.06-3.225-5.043-3.698-5.393-6.517-4.83-4.244.85-9.075-2.65-5.96-4.317 3.297-1.765 5.87-1.222 9.559 2.017 3.702 3.25 9.812 11.215 10.87 14.169.744 2.076.808 2.075-2.142.021m-21.41-6.271c-.402-1.375-.708-3.625-.68-5l.049-2.5.983 2.462c.54 1.353.846 3.603.68 5l-.303 2.538zm19.87-10.895c-4.026-8.97-3.73-10.106 2.622-10.1 2.888.002 11.1.864 18.25 1.916 7.15 1.051 16.375 2.212 20.5 2.579 8.745.779 24.986 3.373 26.334 4.207 1.492.921-7.389 3.521-10.24 2.998-1.427-.262-4.013-1.06-5.747-1.774-2.598-1.068-4.146-1.059-8.781.053-4.513 1.083-6.9 1.116-12.046.168-4.475-.825-7.753-.884-10.824-.196-2.867.643-5.59.648-7.794.016-1.864-.535-4.685-.972-6.27-.972-2.66 0-2.836.228-2.29 2.961 1.042 5.21-1.002 4.189-3.714-1.856M43.737 90.522c.515-3.898 1.385-5.591 4.237-8.243 4.809-4.47 4.94-3.84.94 4.533-4.375 9.159-6.056 10.364-5.177 3.71" style="fill:#1b1b1b"/><path d="M146.474 195.4c-.039-.668-1.382-2.708-2.985-4.534s-3.236-5.034-3.63-7.131c-.562-2.997-1.33-4.028-3.585-4.814-1.58-.55-2.87-1.484-2.87-2.074s-.72-1.868-1.599-2.84c-.879-.97-1.302-2.243-.94-2.828.84-1.36 7.08-1.379 9.604-.028 2.515 1.346 2.48 2.965-.066 2.965-1.242 0-2 .667-2 1.76 0 .967.9 2.321 2 3.008s2 1.808 2 2.49c.001.794 1.5 1.233 4.153 1.218 4.067-.023 4.18-.118 5.492-4.621 1.446-4.958 3.581-7.451 5.412-6.32 1.855 1.147.248 6.302-3.661 11.743-1.98 2.757-4.423 6.86-5.428 9.117s-1.858 3.558-1.897 2.89m-19.187-21.784c-.08-.55-.46-6.175-.842-12.5l-.696-11.5-.173 10.059c-.191 11.142-2.205 17.009-3.548 10.34-.49-2.437-.927-3.01-1.542-2.023-.562.903-1.12-.817-1.62-5-.752-6.285-.78-6.333-2.03-3.376l-1.267 3-.408-4.5-.408-4.5-.175 5.191c-.248 7.353-2.173 7.898-2.183.618-.005-3.195-.301-8.242-.658-11.216-.478-3.974-.343-5.217.508-4.69 1.428.882 1.445 1.114-.354-4.818-1.626-5.36-1.14-7.199 1.094-4.142 1.33 1.82 1.418 1.738 1.418-1.325 0-2.577.369-3.19 1.75-2.913 1.921.387 2.892-.24 7.287-4.705 3.443-3.497 3.989-6.58 1.027-5.806-1.577.412-2.062-.17-2.62-3.14-.822-4.382-.313-5.09 2.556-3.554 3.216 1.721 3.388.66.379-2.348-2.864-2.865-5.278-3.353-7.179-1.452-.933.933-1.2.6-1.2-1.5 0-1.485-.387-2.7-.86-2.7s-2.416-1.056-4.317-2.346-4.584-2.628-5.963-2.974c-2.336-.587-2.48-.41-2.124 2.595l.383 3.225-2.06-2.36c-4.274-4.9-1.305-11.295 3.168-6.822 1.89 1.89 3.907 2.556 9.342 3.084 20.064 1.952 30.258 4.597 34.144 8.858 3.525 3.865 13.287 20.937 13.287 23.235 0 2.348-2.83 5.505-4.936 5.505-.703 0-1.066.563-.808 1.25 2.167 5.767 1.288 8.263-1.968 5.586-1.455-1.196-1.56-1.006-.999 1.827.43 2.173.17 3.541-.831 4.372-.802.666-1.458 1.83-1.458 2.587 0 3.072-1.87 1.108-2.5-2.626-1.084-6.414-2.5-3.566-2.5 5.028 0 8.092-1.604 11.017-5.305 9.671-.657-.239-1.993.262-2.968 1.112-1.267 1.104-2.082 1.238-2.85.47-1.205-1.206-4.865 1.767-4.892 3.973-.02 1.63-1.91 4.553-2.101 3.25m-5.47-15.885c-.38-4.188-1.12-7.615-1.646-7.615-.892 0-.479 6.248.88 13.322 1.013 5.268 1.46 1.94.766-5.707m192.29-5.372c-.29-1.509-.026-3.348.586-4.087.853-1.032.564-1.758-1.244-3.122l-2.356-1.777 3.647-1.203c2.006-.662 4.088-1.958 4.625-2.879.73-1.25.985-.377 1.008 3.437.025 4.157-.51 5.792-2.855 8.743l-2.884 3.63zm-67.87-7.493c-2.426-2.887-5.853-7.111-7.616-9.386-3.363-4.34-8.874-6.423-9.903-3.742-.275.716-1.47 1.597-2.657 1.958s-2.928 1.332-3.868 2.158c-1.852 1.624-10.79.991-10.79-.764 0-.498-1.28-2.383-2.847-4.19-1.565-1.806-3.15-4.847-3.52-6.757s-2.071-4.916-3.781-6.68c-2.348-2.422-3.203-4.328-3.49-7.778-.427-5.12 1.055-5.744 8.54-3.597 2.204.632 4.927.627 7.794-.016 3.07-.688 6.349-.629 10.824.196 5.147.948 7.533.915 12.046-.168 4.738-1.136 6.125-1.134 8.78.014 3.77 1.63 9.974 1.754 14.27.284 1.714-.586 3.686-.713 4.383-.283 2.447 1.513-8.37 3.327-18.499 3.103-12.005-.266-16.28 1.41-10.811 4.237 3.929 2.032 4.77 4.226 2.289 5.964-1.812 1.27-1.61 1.506 3.077 3.625 4.819 2.178 12.841 10.585 18.282 19.159 3.092 4.873 1.27 5.519-2.392.847-4.461-5.693-14.798-15.934-16.083-15.934-1.74 0 .233 4.195 5.78 12.296 4.582 6.69 6.45 10.704 4.98 10.704-.208 0-2.363-2.362-4.789-5.25m-58.278-6c-2.368-2.337-4.832-5.89-5.474-7.895-.686-2.141-1.97-3.854-3.112-4.153-2.433-.636-3.505-3.485-4.309-11.452-.659-6.537.5-8.171 3.355-4.73.89 1.072 2.234 1.336 4.57.898 3.15-.59 3.482-.351 6.874 4.952 1.961 3.065 4.42 6.03 5.463 6.589 6.387 3.418 7.407 12.903 1.888 17.547-3.895 3.277-4.217 3.216-9.255-1.756m120.194-2.466c-2.871-.435-3.543-2.091-1.626-4.008.816-.816.83-1.969.052-4.2-1.202-3.451-1.153-3.475 4.14-2.005 6.206 1.723 8.029 4.16 5.905 7.893-1.722 3.026-2.465 3.23-8.47 2.32m17.857-3.866c-.334-.87-.607-2.643-.607-3.94s-.45-2.638-1-2.978c-1.321-.817-1.288-6.204.044-7.027 1.522-.94 5.683 2.099 7.389 5.397 1.403 2.714 1.356 2.905-.98 3.97-1.66.756-2.453 1.932-2.453 3.639 0 2.81-1.455 3.382-2.393.94M33 129.504c-.453-1.179-.191-1.447.975-1 .876.337 1.808.612 2.07.612s.2.45-.14 1c-.918 1.484-2.205 1.213-2.905-.611m45.4-20.065c-.007-3.894 7.16-17.849 9.81-19.1 3.958-1.867 4.924-1.509 5.464 2.027.635 4.157-.716 5.788-4.544 5.488-2.673-.209-3.156.163-3.916 3.012-.477 1.788-1.276 3.25-1.775 3.25-.5 0-1.05 1.459-1.221 3.242-.345 3.567-3.81 5.457-3.817 2.081m27.004-15.972c-3.742-1.292-5.99-2.611-11.841-6.947-1.674-1.24 1.421-4.404 4.308-4.404 2.33 0 4.922-1.194 8.61-3.966 5.27-3.96 13.297-6.546 18.17-5.854 5.401.767.908 15.78-6.145 20.531-3.94 2.655-6.854 2.797-13.102.64m-25.831-3.601c-2.66-10.36-2.404-13.148.85-9.227.695.837 2.04 1.276 2.988.975 1.37-.435 1.665-.015 1.44 2.04-.171 1.558.298 2.81 1.18 3.149 1.177.452 1.063.842-.582 1.994-1.125.788-2.045 2.307-2.045 3.376 0 3.635-2.727 1.993-3.831-2.307" style="fill:#010101"/></svg>