<svg xmlns="http://www.w3.org/2000/svg" width="146.185" height="136.633" viewBox="0.131 0.061 146.185 136.633"><path fill="#d7c3bc" d="m130.151 119.172 10.269 8.695s2.751 3.734-1.172 6.523c-2.748 1.953-7.045 1.283-8.121 1.283-.103 0-1.568.314-2.503.319-8.79.046-49.577-.017-51.706.177-2.355.214-1.622-1.058-3.135-.95s-56.504.025-58.427.025c-.529 0-4.408-2.221-4.998-3.45-1.133-2.359.395-4.856.179-6.047S7 104.656 8.571 98.699c.478-1.817.545-2.059.165-2.18-.811-.259-7.801-1.834-8.072-7.624-.006-.136 21.017-11.387 27.447-14.072 3.008-1.255 14.784-.673 26.016-.673 11.233 0 43.215.074 45.366-.217 2.296-.311 6.009-.027 6.274-6.332.285-6.81-.661-20.376-2.591-33.147-1.134-7.505 1.765-16.187 4.849-18.31 3.164-2.18 19.21-15.252 19.21-15.252s.772 3.634-2.986 8.24c-3.48 4.264-5.927 5.46-5.927 5.46l2.518.533c.415.088 1.546-1.098 3.608-2.18 2.062-1.084 12.689-7.669 13.123-7.931.204-.123 1.475 4.439-3.795 8.286-4.884 3.564-7.427 3.338-7.166 3.425 4.209 1.403 8.524 5.232 7.769 5.977-1.977 1.951 2.582 8.024 10.976 11.207.966.367-.289 5.372-2.398 6.623-1.737 1.029-4.436-1.747-17.532-3.847-.268-.043-.012 2.069.061 2.648.497 3.937.418 2.623 1.086 7.625 1.164 8.725 7.703 37.913 8.142 41.402 1.107 8.798 4.688 21.119-4.563 30.812"/><path fill="#bb9696" d="m130.151 119.172-3.426 3.507s5.02 4.513 6.448 6.787-.846 5.37-2.454 5.936h5.578s3.331.282 4.995-3.938c.851-2.324-1.212-3.947-2.351-4.923-1.14-.975-8.61-7.216-8.61-7.216"/><path fill="#bb968c" d="M124.722 15.886s9.227-1.448 12.847-10.686c.154.105 0 0 0 0s1.9 7.896-11.069 11.362zM114.469 16.24l-1.711-.072S125.05 7.019 127.239.561c.099-.08.416 10.195-12.77 15.679"/><path fill="#f0e1db" d="M142.765 40.52c-.193.022-.792.224-1.963-.118-5.133-1.502-19.241-5.096-21.87-5.029-.364.009-.457.815-.663.613-.585-.572-.348-2.052-1.033-1.71-.224.111-.102 1.871-.529 1.448-4.344-4.312-4.866-10.08-3.718-13.924 1.805-6.047 11.123-3.078 15.689-1.587 1.778.58 3.34 1.005 3.012.718-.393-.344-.248-1.629 1.163-.507 2.399 1.91 1.474 2.076.936 3.462-.681 1.758 5.37 7.763 11.305 9.81 2.259.472-1.422 6.72-2.329 6.824"/><path fill="none" stroke="#26214b" stroke-width=".5" d="m120.813 15.019 16.935-10.234s1.656 8.697-11.449 11.826"/><path fill="#26214b" d="M124.222 15.922s.289.015.795-.029c.25-.032.56-.058.906-.126.35-.056.741-.142 1.161-.264.421-.114.867-.275 1.336-.449.461-.197.958-.386 1.43-.665.491-.245.96-.561 1.44-.877.485-.311.921-.703 1.388-1.055.419-.406.845-.807 1.239-1.223.368-.44.745-.861 1.082-1.29.317-.444.609-.883.888-1.296.264-.423.474-.847.688-1.225.215-.378.401-.729.524-1.061l.352-.842c.188-.468.297-.735.297-.735l-.378.698-.423.803c-.151.315-.367.646-.595 1.011-.232.361-.461.766-.743 1.168-.296.392-.611.803-.922 1.237-.337.414-.714.818-1.081 1.242-.391.4-.815.781-1.228 1.17-.447.349-.865.74-1.332 1.051-.461.316-.913.632-1.387.878-.459.274-.927.49-1.367.706-.449.195-.878.376-1.285.51-.406.136-.78.257-1.119.343-.337.098-.638.15-.883.203-.495.092-.783.117-.783.117M127.695 24.852s-6.308-1.015-7.406-1.341c-.288.074.325 4.062 3.378 4.509s3.825-1.787 4.028-3.168M145.725 34.416l-6.203-1.27s.588 4.22 5.064 5.155c.385-.184 1.423-3.235 1.139-3.885"/><path fill="#26214b" d="M128.143 25.795s-.039.382-.226.906a4 4 0 0 1-.402.846q-.132.22-.303.427c-.102.146-.24.264-.365.394-.129.125-.278.23-.414.345l-.446.278c-.156.071-.303.148-.445.22-.145.064-.29.108-.421.158-.259.106-.491.151-.648.2l-.251.076.26-.013c.164-.024.411-.006.689-.087.284-.054.608-.152.946-.299q.244-.127.494-.275c.152-.12.315-.232.459-.366.135-.144.281-.278.39-.44a3 3 0 0 0 .304-.478c.17-.326.271-.654.329-.938.064-.282.064-.526.068-.692 0-.168-.018-.262-.018-.262"/><path fill="none" stroke="#26214b" stroke-width=".5" d="M133.729 21.114s-1.19-1.177-2.004-1.055c-.814.121.502 1.3.502 1.3s-13.729-4.956-17.229-2.316-4.192 10.155 2.157 17.427c0 0-.57-1.504.081-2.194.651-.691.082 1.056 1.262 1.909s-.489-.609.203-.853c0 0 15.791 2.762 22.466 5.2.651.081 2.116.65 3.255-1.869 1.14-2.518 2.117-4.549.489-5.037s-14.244-7.134-10.419-11.163c0 0-.986-5.101-16.451-8.026"/><path fill="none" stroke="#26214b" stroke-width=".5" d="M114.469 16.24s12.249-4.508 13.023-15.679l-19.495 15.477s-7.324 5.564-4.191 23.478 1.953 28.231 1.791 29.288c-.489 3.128-.611 5.24-10.948 5.24H32.381s-11.313-.65-20.796 14.826c-1.3 2.346-2.161 4.958-2.699 7.684-2.277 11.529 1.213 25.101 1.641 29.24.081 1.544-1.302 2.641-.326 5.687.745 1.413 4.599 3.656 4.599 3.656h72.32s38.864.807 48.308-25.027c2.686-7.347-1.71-26.723-1.71-26.723s-6.267-26.566-8.586-46.838"/><path fill="#26214b" d="M110.684 17.703s1.262-.804 3.066-2.141a82 82 0 0 0 3.023-2.359 85 85 0 0 0 3.305-2.902 45 45 0 0 0 1.591-1.572 34 34 0 0 0 1.48-1.583c.483-.511.897-1.052 1.297-1.559.412-.496.743-1.011 1.065-1.472.338-.451.575-.914.796-1.314l.309-.56c.09-.175.148-.35.213-.5l.38-.955-.46.917c-.075.144-.142.312-.244.479l-.344.533c-.247.38-.511.817-.86 1.253-.338.443-.684.936-1.115 1.411-.415.485-.849.997-1.331 1.502-.468.517-.963 1.04-1.489 1.55a46 46 0 0 1-1.6 1.539 84 84 0 0 1-3.248 2.932c-1.066.903-2.053 1.758-2.925 2.459-1.731 1.42-2.909 2.342-2.909 2.342"/><path fill="none" stroke="#26214b" stroke-width=".5" d="M25.829 75.529.637 88.789s-.538 5.742 8.278 7.624"/><path fill="#26214b" d="M2.683 93.335s.08-.14.227-.357c.138-.224.37-.535.643-.91.139-.186.303-.378.469-.588.167-.207.342-.429.544-.641l.604-.667c.202-.233.439-.437.659-.658l.669-.65.689-.587.647-.547c.2-.181.419-.314.606-.457l1.273-.921-1.332.838c-.196.131-.425.251-.638.419l-.684.508-.733.546-.718.611c-.236.21-.491.402-.71.624l-.658.637c-.218.203-.411.417-.595.618-.184.202-.364.388-.52.57-.305.368-.564.671-.73.905-.176.229-.26.357-.26.357zM6.331 95.57s.006-.135.038-.331c.018-.199.098-.508.182-.867.116-.355.224-.782.42-1.212.092-.217.178-.447.282-.672l.351-.669c.123-.222.221-.459.367-.663l.398-.618.375-.58.381-.486.792-1.008-.87.944-.423.458-.423.553-.453.593c-.164.196-.282.427-.426.643l-.411.656c-.126.222-.233.451-.347.668-.237.428-.386.864-.537 1.229-.068.185-.115.363-.165.517a4 4 0 0 0-.108.414c-.057.243-.07.364-.07.364zM40.236 101.788s.715.272 1.937.812c1.224.533 2.942 1.362 4.947 2.456a51 51 0 0 1 6.522 4.24 33 33 0 0 1 3.284 2.884c1.043 1.058 2.039 2.199 2.867 3.454.844 1.241 1.547 2.576 2.039 3.962.496 1.385.781 2.823.81 4.224.006.171.027.36.02.513l-.021.529-.034 1.041c-.018.689-.149 1.327-.213 1.97-.257 1.257-.575 2.451-1.138 3.425-.232.516-.588.921-.875 1.346-.353.366-.665.744-1.041 1.009a6.3 6.3 0 0 1-2.077 1.129 6.6 6.6 0 0 1-1.502.328c-.356.039-.548.028-.548.028s.191.024.55.007c.358-.012.89-.053 1.538-.243a6.5 6.5 0 0 0 2.186-1.057c.403-.257.744-.63 1.132-.997.318-.424.698-.846.957-1.371.616-1.001.981-2.223 1.285-3.517.088-.659.241-1.345.28-2.032q.026-.516.055-1.042l.025-.527c.01-.203-.01-.369-.014-.556-.017-1.458-.3-2.961-.801-4.405a18 18 0 0 0-2.075-4.129c-.868-1.286-1.901-2.446-2.976-3.517a33.5 33.5 0 0 0-3.371-2.903c-2.306-1.735-4.65-3.065-6.692-4.115a53 53 0 0 0-5.072-2.25 31 31 0 0 0-1.984-.696M68.313 135.368s.876-.121 2.074-.577c.304-.105.619-.255.957-.397.326-.169.683-.32 1.025-.529q.53-.287 1.049-.646c.357-.22.684-.495 1.024-.75.337-.259.641-.557.958-.829.301-.291.579-.593.857-.876.265-.297.501-.6.735-.878.241-.273.415-.573.603-.828.178-.262.359-.491.479-.719l.336-.575.292-.502-.309.491-.354.563c-.128.224-.316.446-.501.701-.197.247-.378.54-.628.802-.242.269-.486.562-.758.846-.285.272-.571.561-.877.838-.323.258-.632.543-.972.787-.345.239-.674.498-1.033.703q-.52.334-1.049.598c-.341.193-.695.329-1.019.483-.334.128-.646.264-.944.355-1.19.406-2.004.488-2.004.489zM84.253 135.37s1.217-.093 2.988-.453a37 37 0 0 0 3-.736c.543-.155 1.096-.343 1.659-.527.553-.214 1.128-.399 1.678-.642.553-.24 1.113-.461 1.638-.738a19 19 0 0 0 1.536-.812c.491-.276.961-.552 1.382-.853.426-.292.842-.549 1.185-.842l.962-.765.689-.65.598-.567-.612.553-.702.632-.978.739c-.347.285-.769.531-1.199.811-.426.29-.899.553-1.395.816-.486.281-1.011.527-1.546.771-.527.263-1.089.469-1.643.694-.551.228-1.126.399-1.679.597-.563.169-1.115.342-1.657.483a36 36 0 0 1-2.987.659c-1.765.316-2.95.377-2.95.377zM112.978 130.895s1.067-.589 2.527-1.654a37 37 0 0 0 2.42-1.915c.429-.368.853-.769 1.289-1.169.414-.424.858-.831 1.258-1.282.402-.447.819-.881 1.18-1.351.376-.457.743-.91 1.058-1.378.332-.455.644-.901.901-1.349.265-.443.537-.849.726-1.259l.556-1.094q.205-.512.354-.878l.307-.764-.325.756-.375.867-.579 1.079c-.198.404-.479.802-.754 1.236-.265.441-.586.877-.927 1.321-.324.457-.699.899-1.084 1.344-.369.458-.795.878-1.204 1.313-.406.437-.857.831-1.277 1.241-.442.388-.871.776-1.305 1.129a36 36 0 0 1-2.441 1.84c-1.475 1.021-2.525 1.569-2.525 1.569z"/><path fill="none" stroke="#26214b" stroke-width=".5" d="m126.534 122.845 5.272 4.737s2.889 2.762 1.424 5.118-1.505 3.372-8.79 3.372c-7.57 0-48.024-.122-48.145 0-.123.121-1.832-.517-1.873-.929"/><path fill="#26214b" d="M123.3 132.903s-.002-.058-.027-.166a1.3 1.3 0 0 0-.192-.443 1.5 1.5 0 0 0-.597-.513 2 2 0 0 0-.473-.152c-.179-.024-.343-.005-.513-.009h-10.071a4.8 4.8 0 0 0-.938.057l-.722.086-.63.084.63.085.722.085c.28.037.594.078.938.058h10.071c.174-.007.338.012.472.01q.21-.007.395.028c.244.052.442.168.581.294.282.26.354.496.354.496"/><path fill="none" stroke="#26214b" stroke-width=".5" d="m130.241 119.09 10.152 8.695s2.157 2.194.122 5.118c-2.052 2.95-4.802 2.681-6.674 2.681h-3.911"/></svg>