<svg xmlns="http://www.w3.org/2000/svg" xml:space="preserve" width="68.398" height="131.597" viewBox="0.785 0.178 68.398 131.597"><title>Slice 1</title><g fill-rule="evenodd"><g fill-rule="nonzero"><path fill="#eaadcb" d="M6.378 41.377c0-10.152 2.396-25.38 4.018-34.775h-3.09a130.8 130.8 0 0 0-4.76 24.468C.86 47.986 1.85 81.043 2.39 93.145c.85 18.897 4.884 30.024 4.884 30.024h3.09C4.973 92.016 6.256 66 6.379 41.377"/><path fill="#fcdbeb" d="M67.455 31.07a135 135 0 0 0-4.637-24.468h-3.245c1.653 9.41 4.064 24.623 4.296 34.775.417 18.046 0 49.2-2.519 81.792h2.86a185 185 0 0 0 3.384-30.024c.54-12.102 1.483-45.16-.14-62.075"/><path fill="#f7c1d8" d="M63.776 41.377c-.232-10.152-2.642-25.365-4.296-34.775H10.396C8.851 15.996 6.44 31.225 6.378 41.377 6.255 66 4.972 92.016 10.428 123.17h14.79a123.6 123.6 0 0 0 4.852-29.915c.526-11.128 2.705-38.304 3.26-58.81h3.386c1.545 18.68 3.291 44.881 4.218 58.81a124 124 0 0 0 5.502 29.992h14.837c2.534-32.67 2.92-63.823 2.503-81.869"/></g><path fill="#da53d6" fill-rule="nonzero" stroke="#da53d6" stroke-linecap="round" stroke-linejoin="round" stroke-width="1.24" d="M62.306 1H8.082l-.9 6.19h55.636z"/><g fill="none" stroke="#db20a5" stroke-linecap="round" stroke-linejoin="round" stroke-width="1.643"><path d="M35.526 15.068a10.72 10.72 0 0 0-7.558-3.343 3.185 3.185 0 0 0-3.163 2.838 3.19 3.19 0 0 0 2.468 3.46c3.863 1.053 8.253-2.955 8.253-2.955M35.526 15.068s-.217 5.448-5.502 12.01M35.526 15.068a10.72 10.72 0 0 1 7.557-3.343 3.187 3.187 0 0 1 3.5 2.84 3.19 3.19 0 0 1-2.836 3.505c-3.833 1.006-8.221-3.002-8.221-3.002M35.526 15.068s.216 5.448 5.501 12.01"/></g><g stroke="#da53d6" stroke-linecap="round" stroke-linejoin="round" stroke-width="1.24"><path fill="#f7c1d8" fill-rule="nonzero" d="M24.09 130.954H8.247l-.927-7.785h17.896zM63.483 130.954H47.24l-.804-7.785H64.21zM29.36 34.382h11.327"/><path fill="none" d="M67.455 31.07a135 135 0 0 0-4.637-24.468H7.321A130.8 130.8 0 0 0 2.546 31.07C.86 47.986 1.85 81.043 2.39 93.145c.85 18.897 4.884 30.024 4.884 30.024h17.942a123.6 123.6 0 0 0 4.853-29.915c.526-11.128 2.705-38.304 3.26-58.81h3.386c1.545 18.68 3.291 44.881 4.218 58.81a124 124 0 0 0 5.502 29.992H64.21a185 185 0 0 0 3.385-30.023c.54-12.18 1.483-45.237-.14-62.153"/></g><path fill="none" stroke="#ea9dc5" stroke-linecap="round" stroke-linejoin="round" stroke-width="1.24" d="M19.589 72.19c.95.914 1.515 2.454 1.502 4.096-.117 1.482-.682 2.814-1.546 3.643M53.546 72.19c.966.9 1.548 2.442 1.545 4.096-.117 1.482-.682 2.814-1.546 3.643"/></g></svg>