<svg xmlns="http://www.w3.org/2000/svg" width="75.852" height="86.396" viewBox="1.074 -0.199 75.852 86.396"><g stroke="#fdae38" stroke-width="1.696"><path fill="#fff017" d="M64.488 59.372a20.87 20.87 0 0 0 2.606-10.32H11.626a20.87 20.87 0 0 0 2.606 10.32s-7.126 5.287-4.022 12.979c2.735 6.785 10.521 7.342 14.141 5.559a13.33 13.33 0 0 0 15.041 1.258A13.35 13.35 0 0 0 54.45 77.91a10.8 10.8 0 0 0 8.242.143 10.65 10.65 0 0 0 5.898-5.702c3.024-7.692-4.102-12.979-4.102-12.979ZM68.252 3.265C63.351-.322 56.457.602 52.696 5.351c-4.713 5.463-7.883 22.87-8.896 26.74s-2.011 6.545-4.376 6.545c-2.364 0-3.314-2.675-4.375-6.545-1.062-3.87-4.296-21.277-8.945-26.74C22.344.602 15.449-.322 10.548 3.265c-3.973 3.185-3.378 9.173 0 12.342 2.976 2.787 5.148 7.47 6.676 18.204s4.826 15.241 4.826 15.241h34.62s3.394-4.587 4.826-15.241 3.7-15.417 6.676-18.204c3.458-3.169 4.07-9.141.08-12.342Z"/><path fill="none" d="M24.27 77.91a14.05 14.05 0 0 1-2.992-5.113M54.369 77.91a14 14 0 0 0 2.928-5.113"/><path fill="#fdae38" d="M27.826 25.975c1.785 7.485 3.346 12.884.225 13.633-2.88.701-4.907-4.587-6.692-12.088s-3.041-12.741.112-13.553c2.687-.717 4.633 4.507 6.355 12.008ZM50.894 25.975c-1.785 7.485-3.346 12.884-.225 13.633s4.826-4.587 6.692-12.088 3.041-12.741-.112-13.553c-2.687-.717-4.569 4.507-6.355 12.008Z"/></g><path fill="#fff" stroke="#5e154d" stroke-linecap="round" stroke-linejoin="round" stroke-width="1.28" d="M35.301 79.55h8.14v5.367h-8.14z"/><path fill="#5e154d" stroke="#5e154d" stroke-linecap="round" stroke-linejoin="round" stroke-width="1.696" d="M39.371 68.498c1.709 0 3.257.676 4.378 1.769a5.94 5.94 0 0 1 1.815 4.267 5.94 5.94 0 0 1-1.815 4.267 6.26 6.26 0 0 1-4.378 1.769 6.26 6.26 0 0 1-4.378-1.769 5.94 5.94 0 0 1-1.816-4.267c0-1.666.694-3.175 1.816-4.267a6.25 6.25 0 0 1 4.378-1.769"/><path fill="#fff" stroke="#fff" stroke-width=".848" d="M39.371 69.66c.461 0 .88.179 1.183.467.302.288.49.687.49 1.126s-.188.837-.49 1.126a1.72 1.72 0 0 1-1.183.467c-.462 0-.88-.179-1.183-.467a1.55 1.55 0 0 1-.49-1.126c0-.439.187-.838.49-1.126a1.71 1.71 0 0 1 1.183-.467Z"/><path fill="#fff" stroke="#5e154d" stroke-linecap="round" stroke-linejoin="round" stroke-width="1.28" d="M39.323 79.136v5.781"/><path fill="#ffc0ec" stroke="#5e154d" stroke-linecap="round" stroke-linejoin="round" stroke-width="2.56" d="M37.021 49.009h4.73M2.354 44.63l9.218 4.379M75.646 44.63l-8.429 3.901"/><path fill="#ffc0ec" d="M11.652 49.009c0 8.855 4.569 16.054 12.725 16.054q1.142-.007 2.268-.192c-2.027-3.424-6.724-11.402-9.282-15.925zM37.021 49.009H26.517l6.933 12.04a18.8 18.8 0 0 0 3.571-12.04M23.042 49.009l8.188 14.095q.564-.398 1.078-.86c-2.317-3.934-5.695-9.731-7.786-13.235z"/><path fill="#fff" d="M17.283 49.009c2.557 4.46 7.255 12.438 9.282 15.926a11.5 11.5 0 0 0 4.665-1.768l-8.188-14.158zM33.45 61.049l-6.933-12.04h-1.995a2196 2196 0 0 0 7.738 13.235q.645-.548 1.19-1.195"/><path fill="#ffc0ec" d="M67.217 49.009H56.599l6.934 12.168a18.62 18.62 0 0 0 3.684-12.168M54.443 49.009h-1.817l8.284 14.334a8.7 8.7 0 0 0 1.271-.892zM41.751 49.009c0 8.855 4.569 16.054 12.725 16.054q.74.036 1.48 0l-9.154-15.926z"/><path fill="#fff" d="m46.802 49.009 9.154 15.926a11.7 11.7 0 0 0 4.954-1.592l-8.284-14.334zM63.533 61.177l-6.934-12.168h-2.156l7.738 13.49q.73-.607 1.352-1.322"/><path fill="none" stroke="#5e154d" stroke-linecap="round" stroke-linejoin="round" stroke-width="2.56" d="M24.297 65.063c8.912 0 12.724-7.199 12.724-16.054H11.652c0 8.855 4.488 16.054 12.645 16.054M54.476 65.063c8.928 0 12.741-7.199 12.741-16.054H41.751c0 8.855 4.569 16.054 12.725 16.054"/></svg>