<svg xmlns="http://www.w3.org/2000/svg" xml:space="preserve" viewBox="0 0 512 512"><path d="M144 0h224c17.672 0 32 14.328 32 32v448c0 17.672-14.328 32-32 32H144c-17.672 0-32-14.328-32-32V32c0-17.672 14.328-32 32-32" style="fill:#576d7e"/><path d="M136 64h240v360H136z" style="fill:#c9d5e3"/><circle cx="264" cy="464" r="24" style="fill:#3f556b"/><path d="M296 48h-64c-4.416 0-8-3.584-8-8s3.584-8 8-8h64c4.416 0 8 3.584 8 8s-3.584 8-8 8" style="fill:#3f556b"/><path d="M176 368h16c4.416 0 8 3.584 8 8v16c0 4.416-3.584 8-8 8h-16c-4.416 0-8-3.584-8-8v-16c0-4.416 3.584-8 8-8" style="fill:#3cb54a"/><path d="M224 368h16c4.416 0 8 3.584 8 8v16c0 4.416-3.584 8-8 8h-16c-4.416 0-8-3.584-8-8v-16c0-4.416 3.584-8 8-8" style="fill:#4c9cd6"/><path d="M272 368h16c4.416 0 8 3.584 8 8v16c0 4.416-3.584 8-8 8h-16c-4.416 0-8-3.584-8-8v-16c0-4.416 3.584-8 8-8M320 368h16c4.416 0 8 3.584 8 8v16c0 4.416-3.584 8-8 8h-16c-4.416 0-8-3.584-8-8v-16c0-4.416 3.584-8 8-8" style="fill:#de333f"/><path d="M384 48v432c0 8.84-7.16 16-16 16H160c-8.84 0-16 7.16-16 16h224c17.672 0 32-14.328 32-32V32c-8.84 0-16 7.16-16 16" style="fill:#3f556b"/><path d="M376 104 136 272v24l240-168zM376 152 136 320v64l240-168z" style="fill:#e2e7f0"/><path d="M176 104h16c4.416 0 8 3.584 8 8v16c0 4.416-3.584 8-8 8h-16c-4.416 0-8-3.584-8-8v-16c0-4.416 3.584-8 8-8" style="fill:#ecf0f9"/><path d="M224 104h16c4.416 0 8 3.584 8 8v16c0 4.416-3.584 8-8 8h-16c-4.416 0-8-3.584-8-8v-16c0-4.416 3.584-8 8-8" style="fill:#4c9cd6"/><path d="M272 104h16c4.416 0 8 3.584 8 8v16c0 4.416-3.584 8-8 8h-16c-4.416 0-8-3.584-8-8v-16c0-4.416 3.584-8 8-8" style="fill:#3f556b"/><path d="M320 104h16c4.416 0 8 3.584 8 8v16c0 4.416-3.584 8-8 8h-16c-4.416 0-8-3.584-8-8v-16c0-4.416 3.584-8 8-8" style="fill:#3cb54a"/><path d="M176 168h16c4.416 0 8 3.584 8 8v16c0 4.416-3.584 8-8 8h-16c-4.416 0-8-3.584-8-8v-16c0-4.416 3.584-8 8-8" style="fill:#748b9e"/><path d="M224 168h16c4.416 0 8 3.584 8 8v16c0 4.416-3.584 8-8 8h-16c-4.416 0-8-3.584-8-8v-16c0-4.416 3.584-8 8-8" style="fill:#3f556b"/><path d="M272 168h16c4.416 0 8 3.584 8 8v16c0 4.416-3.584 8-8 8h-16c-4.416 0-8-3.584-8-8v-16c0-4.416 3.584-8 8-8" style="fill:#4c9cd6"/><path d="M320 168h16c4.416 0 8 3.584 8 8v16c0 4.416-3.584 8-8 8h-16c-4.416 0-8-3.584-8-8v-16c0-4.416 3.584-8 8-8" style="fill:#748b9e"/><path d="M176 232h16c4.416 0 8 3.584 8 8v16c0 4.416-3.584 8-8 8h-16c-4.416 0-8-3.584-8-8v-16c0-4.416 3.584-8 8-8" style="fill:#3cb54a"/><path d="M224 232h16c4.416 0 8 3.584 8 8v16c0 4.416-3.584 8-8 8h-16c-4.416 0-8-3.584-8-8v-16c0-4.416 3.584-8 8-8" style="fill:#748b9e"/><path d="M272 232h16c4.416 0 8 3.584 8 8v16c0 4.416-3.584 8-8 8h-16c-4.416 0-8-3.584-8-8v-16c0-4.416 3.584-8 8-8" style="fill:#de333f"/></svg>