<svg xmlns="http://www.w3.org/2000/svg" width="498" height="372" viewBox="0 0 498 372"><title>Slice 1</title><g fill="none" fill-rule="evenodd"><path fill="#005a5a" d="M.4 0h496.4v363H.4z"/><path fill="#00a0b4" d="M362.7 9.2c-.6 5.8-1.4 12.3.1 17.9 2.5 1.6 8.6.5 11.4.5h11.1c7.5 0 14.9 0 22.4-.2 13.2-.3 28 .1 40.9-3 0-2.8 1.1-13.1.8-15.2z"/><path fill="#00a0b4" d="M443.7 0v40.6h53.8L466.1 0z"/><path fill="#006482" d="M326.6 78.2h53.7L326.6 8.7z"/><path fill="#006482" d="M356.3 42.4h-54.5v92.7c17.8.2 36.1.4 54.5.6z"/><path fill="#aadcdc" d="M334.7 53.9c-5.5.1-11-.1-16.5.2v166.2h38.1v-167c-7-1.1-14.6.5-21.6.6"/><path fill="#78c8c8" d="M497.5 166.9V17.3s-150.3.8-154.7 1.9c-1.5 11.6-.4 148.2-.4 148.2z"/><path fill="#006482" d="m371.5 56.7 11.2-8 11.1 7.9zM392.3 70.3c0-2.1-.2-4.1-.2-6.2-.1-1.6-.1-5.5-.1-5.5h-18.6s.3 8.6.4 10.8c.2 3.2.8 12.8.8 13.1h.7c0-.4-.4-9.8-.4-9.8l9.4.2s.6 9 .6 9.6c.1 0 .6-.2.8-.2 0-.4-.2-9.5-.2-9.5l6.1-.2s.6 8.5.6 8.7c.2 0 .4.1.6.1-.4-3.1-.5-7.9-.5-11.1"/><path fill="#00a0b4" d="M364.6 79.3s-.2 54.7.1 63.4l81.1-62.9z"/><path fill="#00a0b4" d="M401.1 59v53.8L470.5 59z"/><path fill="#006482" d="M407.7 40.2V94l69.4-53.8z"/><path fill="#aadcdc" d="M484.7 0c-57.1 60.5-196.4 211.1-200.4 215.2l213.1 4.7V0z"/><path fill="#00a0b4" d="M133.5 126.1h53.7l-53.7-69.5z"/><path fill="#006482" d="M125.3 33.1c-30.1-.6-63.4.2-93.8.2H.4V126c45.6.5 79.9 1.1 125.5.7V33.2zM289.1 127.3h-99.3v71.3c32.4.2 65.7.3 99.3.5z"/><path fill="#00a0b4" d="M272.7 194.8v-40.3l-.3-.1c-15.7-.6-33 .2-48.9.2h-24v40.2z"/><path fill="#00a0b4" d="M303.9 119.2c-15.7-.6-33 .2-48.9.2h-24v92.7c23.8.5 49.5 1.1 73.2.7v-93.5z"/><path fill="#006482" d="M49.7 7.7C31.2 7.3 19.9 7.5.4 7.6v93.7c19.7.1 30.9.1 49.8-.1V7.7z"/><path fill="#78c8c8" d="M191.8 98c-24.7-.6-51.9.2-76.9.2H77.2v92.7c37.4.5 77.7 1.1 115 .7V98.1z"/><path fill="#00a0b4" d="M114.9 97.3c-.3-8.8.2-17.4-.4-26.2l-19.4.1s.2 10 .4 14.9c.1 2.6 0 5.1 0 7.7 0 2.2.8 5.2.3 7.3h.8c-.5-3.4-.4-11.5-.4-11.5h8.4s.3 3.8.2 5.5c0 1.7.6 4.4-.1 6h.9c-.2-2-.2-4-.2-6 0-1.4-.1-5.5-.1-5.5l9 .1s.2 4 .2 5.8c0 1.7.5 3.9.2 5.5h.7c-.6-1.1-.4-2.4-.5-3.7M104.7 59.2c4 2.4 11.8 9.4 11.8 9.4l-22.8-.2s6.8-6.9 11-9.2"/><path fill="#aadcdc" d="M89.3 94.7h30.9V119H89.3zM277.6 32.3h34.5v163.1h-34.5zM.4 24.4h15.3v161.3H.4z"/><path fill="#006482" d="m378.8 71.1.4 10.3.8-.2-.1-10.3z"/><path fill="#aadcdc" d="M174.5 205.7c-.7-33.2-1.2-143.5-2.2-149-3.7-1.4-10.6-.5-14.5-.5-4.1 0-8.8-.1-12.7.9-.7 4.9 0 109.3.9 148.5z"/><path fill="#006482" d="M153.5 201.5c-.1-3.6-1.2-83.7-1.5-87.3-2.7-.6-66.4-.7-68.1-.2 0 3.7-1.7 87.4 1.8 91.2z"/><path fill="#aadcdc" d="M85.7 162.7V47.4H37.2c0 19.4.1 76.6.3 115.2z"/><path fill="#78c8c8" d="M.4 16.5c-.3 5.1.4 181 .7 185.6l169.7-9.1C169.2 190.7 3 17.7.4 16.5"/><path fill="#aadcdc" d="M173.5 150c2.8-.4 5.6-1.1 8.4 0 1.3-1.4 6.9-.6 8.6-.7 2.8-.1 5.6-.5 8.3-.5 2.6 8.5.6 18.6.9 27.4.2 4.6.2 9.1.3 13.7.1 4.1 1 8.7-.3 12.6-3.7.9-8 .4-11.8.4-4.2 0-8.6.3-12.8 0-1.1-1.3-.4-4.2-.4-5.8 0-2.3 0-4.7-.1-7-.1-4.5-.3-9-.5-13.5-.2-8.7-1.6-18.1-.6-26.6M76.7 14.6c-12.1-.5-44.9.7-44.9.7s-.5 174.5-.6 177.1l45.5-1.2s.7-164.8 0-176.6"/><path fill="#78c8c8" d="M497.5 121.8c-28-.9-38.4.2-66.8.3h-42.9v129.7c42.5.8 67.3 1.6 109.7 1z"/><path fill="#78c8c8" d="M465.7 139.8c-10.4-.6-21.8.2-32.4.2h-15.9v86.1c15.7.5 32.7 1.1 48.4.6z"/><path fill="#78c8c8" d="M497.2 96.9c-13.4-.9-17.1.2-30.7.3H446v129.7c20.3.8 31.1 1.6 51.4 1V97z"/><path fill="#00a0b4" d="M497.5 194.6H425l72.5-157z"/><path fill="#006482" d="M491.1 82h-20.5v129.7c20.3.8 6.6 1.6 26.8 1V81.8c.1 0-1.3 0-6.3.2"/><path fill="#78c8c8" d="M401.8 109.5c-30.1-.6-63.4.2-93.8.2h-46.1v92.7c45.6.5 94.9 1.1 140.4.7v-93.5z"/><path fill="#00a0b4" d="M363.9 119.9c-15.7-.6-33 .2-48.9.2h-24v92.7c23.8.5 49.5 1.1 73.2.7V120z"/><path fill="#006482" d="M417.4 192.4v-35.5l-.3-.1c-15.7-.6-33 .2-48.9.2h-24v35.3h73.2z"/><path fill="#006482" d="M381.1 203.9v-35.5l-.3-.1c-15.7-.6-33 .2-48.9.2h-24v35.3h73.2zM480.4 214.2v-35.5l-.3-.1c-15.7-.6-33 .2-48.9.2h-24v35.3h73.2z"/><path fill="#00a0b4" d="M127.4 209.3v-58.5l-.3-.1c-15.7-.6-33 .2-48.9.2h-24v58.4z"/><path fill="#78c8c8" d="M164.3 89h21.3v16.9h-21.3z"/><path fill="#00a0b4" d="M66.3 118.6c-15.7-.6-33 .2-48.9.2H1.1v92.7c23.8.5 41.7 1.1 65.5.7v-93.5z"/><path fill="#00a0b4" d="M42 113.2c-15.7-.6-22.7.2-38.6.2-8 0 8 0 0 0l-2.3 92.7c23.8.5 17.4 1.1 41.2.7v-93.5z"/><path fill="#006482" d="M.4 208h62.5L.4 54.4z"/><g transform="translate(0 192)"><path fill="#005a5a" d="M1.1.4h496.4v178.3H1.1z"/><path fill="#dcdcd2" d="M.4 9.3h497.1V179H.4z"/><path fill="#e6e6dc" d="M60.4 1.8C33 34 5.6 80 43.1 115.1c21.3 20 51.8 29.7 79.6 36.4 41.2 9.9 83.9 13.3 125.9 13.3 41.9 0 84.7-3.4 125.9-13.3 27.7-6.7 58.3-16.4 79.6-36.4C491.6 80 464.2 34 436.8 1.8z"/><path fill="#c8c8be" d="M440.6 1.8h-8c16.5 19 27.5 36.5 32.8 52.2 3.7 10.9 4.7 21.1 2.9 30.4-1.9 10.5-7.5 20-16.5 28.4-11.2 10.5-30.2 24.1-78.2 35.6-37 8.9-78 13.3-125.2 13.3s-88.2-4.3-125.1-13.2c-26.8-6.5-57-15.7-78.2-35.6-9-8.4-14.5-18-16.5-28.4-1.7-9.2-.8-19.5 2.9-30.4 5.3-15.7 16.3-33.2 32.8-52.2h-8C41 20.1 31 36.6 25.7 52.2c-8.7 25.7-3.6 47.6 15.2 65.2 22.2 20.8 53.4 30.4 80.9 37.1 37.5 9 78.9 13.4 126.6 13.4s89.1-4.4 126.6-13.4c25.9-6.2 58.6-16.1 80.9-37.1 18.8-17.6 23.8-39.5 15.2-65.2-5.2-15.6-15.2-32.1-30.5-50.4"/><path fill="#dcdcd2" d="M297.6 6.7c8 34.6 15.9 69.2 23.9 103.9H175.6c8-34.6 16-69.2 23.9-103.9"/><path fill="#c8c8be" d="m294.9 8.5 22.8 99H179.4l22.8-99h-6.3l-24.1 105.1h153.5L301.1 8.5z"/><path fill="#c8c8be" d="M309 55.7h17.1v6.1H309zM313 73.1h18.3v6.1H313zM316.9 90.4h19.4v6.1h-19.4zM169 55.7h17.1v6.1H169zM163.8 73.1h18.3v6.1h-18.3zM158.6 90.4H178v6.1h-19.4z"/><ellipse cx="249.1" cy="111.4" fill="#fff" stroke="#c8c8be" stroke-width="6.056" rx="74.2" ry="45.4"/><path fill="#fff" stroke="#c8c8be" stroke-width="6.056" d="M174.7 108h147.7"/></g><g stroke="#ff0aff" stroke-linecap="round" stroke-linejoin="round" stroke-width="1.01"><path d="m211.2 188.3 50.5-50.9M285.5 188.3l50.6-50.9M278.7 188.3l50.6-50.9M272 188.3l50.6-50.9M265.2 188.3l50.6-50.9M258.5 188.3l50.5-50.9M251.7 188.3l50.6-50.9M244.9 188.3l50.6-50.9M238.2 188.3l50.6-50.9M231.4 188.3l50.6-50.9M224.7 188.3l50.6-50.9M217.9 188.3l50.6-50.9M319.3 188.3l43.8-44.3M312.5 188.3l50.6-50.9M305.7 188.3l50.6-50.9M299 188.3l50.6-50.9M292.2 188.3l50.6-50.9M326 188.3l37.2-37.5M133.4 144.1l6.7-6.7M163.9 188.3l50.6-50.9M157.1 188.3l50.6-50.9M150.3 188.3l50.6-50.9M143.3 188.3l50.9-50.9M136.5 188.3l50.9-50.9M133.4 184.7l47.3-47.3M133.4 177.9l40.5-40.5M133.4 171.2l33.8-33.8M133.4 164.4l27-27M133.4 157.7l20.2-20.3M133.5 151l13.4-13.6M197.6 188.3l50.6-50.9M190.9 188.3l50.6-50.9M184.1 188.3l50.6-50.9M177.4 188.3l50.6-50.9M170.6 188.3l50.6-50.9M204.4 188.3l50.6-50.9M359.8 188.3l3.3-3.8M332.8 188.3l30.3-30.8M353 188.3l10.1-10.5M346.3 188.3l16.8-17.3M339.5 188.3l23.6-24M234.9 137.4l50.6 50.9M309.2 137.4l50.6 50.9M302.5 137.4l50.5 50.9M295.7 137.4l50.6 50.9M288.9 137.4l50.6 50.9M282.2 137.4l50.6 50.9M275.4 137.4l50.6 50.9M268.7 137.4l50.6 50.9M261.9 137.4l50.6 50.9M255.2 137.4l50.5 50.9M248.4 137.4l50.6 50.9M241.6 137.4l50.6 50.9M343 137.4l20.1 20.1M336.2 137.4l26.9 26.9M329.5 137.4l33.6 33.6M322.7 137.4l40.4 40.4M316 137.4l47.1 47.1M349.7 137.4l13.5 13.4M133.4 157.7l30.5 30.6M187.6 137.4l50.6 50.9M180.8 137.4l50.6 50.9M174.1 137.4l50.6 50.9M167.3 137.4l50.6 50.9M160.6 137.4l50.6 50.9M153.8 137.4l50.6 50.9M147 137.4l50.6 50.9M140.3 137.4l50.6 50.9M133.5 137.4l50.6 50.9M133.4 144.1l44 44.2M133.5 151l37.1 37.3M221.4 137.4l50.6 50.9M214.6 137.4l50.6 50.9M207.9 137.4l50.6 50.9M201.1 137.4l50.6 50.9M194.3 137.4l50.6 50.9M228.1 137.4l50.6 50.9M356.5 137.4l6.6 6.6M133.4 171.2l16.9 17.1M133.4 164.4l23.7 23.9M133.4 177.9l9.9 10.4M133.4 184.7l3.1 3.6"/></g><g stroke="#fff" stroke-linecap="round" stroke-linejoin="round" stroke-width="1.01"><path d="m.9 167.9 30.3-30.5M55 188.3l50.6-50.9M48.2 188.3l50.6-50.9M41.5 188.3 92 137.4M34.7 188.3l50.6-50.9M27.9 188.3l50.6-50.9M21.2 188.3l50.6-50.9M14.4 188.3 65 137.4M7.7 188.3l50.6-50.9M.9 188.3l50.6-50.9M.8 181.4l43.9-44M.8 174.6 38 137.4M88.7 188.3l43.9-44.3M82 188.3l50.6-50.9M75.2 188.3l50.6-50.9M68.5 188.3l50.6-50.9M61.7 188.3l50.6-50.9M95.5 188.3l37.2-37.5M.9 154.3l16.8-16.9M.8 147.4l10.2-10M.9 140.9l3.3-3.5M.9 161.1l23.6-23.7M129.3 188.3l3.3-3.8M102.3 188.3l30.3-30.8M122.5 188.3l10.1-10.5M115.8 188.3l16.8-17.3M109 188.3l23.6-24M4.4 137.4 55 188.3M78.7 137.4l50.6 50.9M71.9 137.4l50.6 50.9M65.2 137.4l50.6 50.9M58.4 137.4l50.6 50.9M51.7 137.4l50.6 50.9M44.9 137.4l50.6 50.9M38.2 137.4l50.5 50.9M31.4 137.4 82 188.3M24.6 137.4l50.6 50.9M17.9 137.4l50.6 50.9M11.1 137.4l50.6 50.9M112.5 137.4l20.1 20.1M105.7 137.4l26.9 26.9M99 137.4l33.6 33.6M92.2 137.4l40.4 40.4M85.5 137.4l47.1 47.1M119.2 137.4l13.5 13.4M.8 181.4l6.9 6.9M.8 147.4l40.7 40.9M.9 154.3l33.8 34M.9 161.1l27 27.2M.9 167.9l20.3 20.4M.8 174.6l13.6 13.7M.9 140.9l47.3 47.4M126 137.4l6.6 6.6"/></g><g stroke="#fff" stroke-linecap="round" stroke-linejoin="round" stroke-width="1.01"><path d="m365.6 167.9 30.4-30.5M419.7 188.3l50.6-50.9M412.9 188.3l50.6-50.9M406.2 188.3l50.6-50.9M399.4 188.3l50.6-50.9M392.7 188.3l50.6-50.9M385.9 188.3l50.6-50.9M379.2 188.3l50.6-50.9M372.4 188.3l50.6-50.9M365.6 188.3l50.6-50.9M365.5 181.4l44-44M365.6 174.6l37.1-37.2M453.5 188.3l43.8-44.3M446.7 188.3l50.6-50.9M440 188.3l50.6-50.9M433.2 188.3l50.6-50.9M426.5 188.3l50.6-50.9M460.2 188.3l37.2-37.5M365.6 154.3l16.9-16.9M365.5 147.4l10.2-10M365.6 140.9l3.3-3.5M365.6 161.1l23.6-23.7M494 188.3l3.3-3.8M467 188.3l30.3-30.8M487.3 188.3l10-10.5M480.5 188.3l16.8-17.3M473.8 188.3l23.5-24M369.1 137.4l50.6 50.9M443.4 137.4l50.6 50.9M436.7 137.4l50.6 50.9M429.9 137.4l50.6 50.9M423.2 137.4l50.6 50.9M416.4 137.4l50.6 50.9M409.6 137.4l50.6 50.9M402.9 137.4l50.6 50.9M396.1 137.4l50.6 50.9M389.4 137.4l50.6 50.9M382.6 137.4l50.6 50.9M375.9 137.4l50.6 50.9M477.2 137.4l20.1 20.1M470.5 137.4l26.8 26.9M463.7 137.4l33.6 33.6M456.9 137.4l40.4 40.4M450.2 137.4l47.1 47.1M484 137.4l13.4 13.4M365.5 181.4l6.9 6.9M365.5 147.4l40.7 40.9M365.6 154.3l33.8 34M365.6 161.1l27.1 27.2M365.6 167.9l20.3 20.4M365.6 174.6l13.6 13.7M365.6 140.9l47.3 47.4M490.7 137.4l6.6 6.6"/></g><path fill="#3c3c32" d="M131.1 131.8h3.6v56.5h-3.6zM361.6 134h3.6v56.5h-3.6z"/><path fill="#3c3c32" d="M.5 185.1h497v17H.4z"/><path fill="#c8c8be" d="M.4 198.3h497.1v6.1H.4z"/><path fill="#e8eaea" d="m295.1 13-96.5-.4-.1 65.8 96.8.6z"/><path fill="#64645a" d="m291.3 16.8-89-.3-.1 58.1 89.3.6z"/><path fill="#3c3c32" d="M250.7 156.4c-.1-21-.2-42.8-.3-44.8-.1-3.8.4-57.8-.6-61.5q-1.95-.45-3.9-.3c-.4 4.8-.1 65.3.3 106.6z"/><path fill="#000" d="M253.2 191c-.2-14.3-.4-46.4-.6-64.5h-9.1c.4 24.7.5 52 .5 64.5z"/><path fill="#fff" d="m263.8 39.3-32.7-.2v28.7l32.8.3z"/><path fill="#000" d="M242.4 61.7h10.3v9.2h-10.3z"/><g stroke="#fff" stroke-linecap="round"><path d="m245.5 100.8 13.6-13.5M237.6 96.6l27.9-27.8M236.2 91.8l23.1-23M234.6 87.4l18.3-18.6M233 83l13.9-14.2M231.6 78.6l9.3-9.8M230.3 73.8l4.2-5M252.3 100.8l4.5-5.9M248.3 100.8l-13.7-13.4M256 96.6l-27.7-27.8M257.7 91.8l-23.2-23M259.1 87.3l-18.2-18.5M260.7 83l-13.8-14.2M262.2 78.6l-9.3-9.8M263.8 73.8l-4.5-5M241.5 100.8l-3.9-4.2"/><path stroke-linejoin="round" d="m228.3 68.8 10.8 32.5 23.1-22.7"/><path stroke-linejoin="round" d="m265.5 68.8-10.8 32.5-23.1-22.7"/></g><path fill="#e6781e" d="M225.6 64.3h43.3v4.5h-43.3z"/></g></svg>