<svg xmlns="http://www.w3.org/2000/svg" width="122.128" height="106.549" viewBox="0 0 122.128 106.549"><g stroke-miterlimit="10" data-paper-data="{&quot;isPaintingLayer&quot;:true}" style="mix-blend-mode:normal"><g stroke-linejoin="round" data-paper-data="{&quot;origPos&quot;:null,&quot;index&quot;:null}"><path fill="#1e1c1d" d="M100.511 60.62c6.777-.4 5.414-2.546 10.607-2.686 4.813-.129 10.422 2.144 10.813 6.004.328 3.236-2.726 9.047-13.115 9.948-3.524.306-5.153-1.224-8.373-1.43-7.049.188-16.507 2.163-16.95-6.467-.473-9.212 17.018-5.369 17.018-5.369" data-paper-data="{&quot;origPos&quot;:null,&quot;index&quot;:null,&quot;origRot&quot;:0}"/><path fill="#ebe2d0" d="M100.511 60.62c7.015.099 5.14-2.004 10.607-2.686 1.88-.234 5.997.69 8.709 3.242.305 1.069.225 1.54.355 2.824.175 1.732.535 2.57-.083 4.026-2.906 3.673-5.962 5.399-11.283 5.86-1.854.096-5.234-1.411-8.454-1.618-6.385-.388-16.205 1.302-16.337-5.99-.163-8.394 16.486-5.658 16.486-5.658" data-paper-data="{&quot;origPos&quot;:null,&quot;index&quot;:null,&quot;origRot&quot;:0}"/><path fill="#c99638" d="M94.224 72.017c-5.316.194-10.254-2.464-10.264-5.325-.015-4.433 5.555-6.264 9.983-6.474 3.97-.188 6.488 1.784 9.215 1.454 3.837-.466 6.04-2.297 10.859-2.008 3.196.192 5.012 1.577 5.288 4.767.372 4.288-2.829 6.505-7.176 7.184-2.98.465-6.147-1.811-9.475-1.522 0 0-4.629 1.785-8.43 1.924" data-paper-data="{&quot;origPos&quot;:null}"/><path fill="#1e1c1d" d="M102.368 68.49c.024.478-5.081 2.322-5.983 2.588-1.592.47-11.532-.277-11.589-4.555.076-4.713 11.089-5.582 11.521-5.36 2.193 1.12 5.656 1.327 5.606 2.191-.117 2.01.345 3.124.445 5.135" data-paper-data="{&quot;origPos&quot;:null,&quot;index&quot;:null}"/><path fill="#ebe2d0" d="M114.465 69.746c-3.333.33-7.73-1.853-7.73-1.853-5.21.061-4.79 1.52-8.222 2.29-1.133.255-2.588-.044-2.555-1.205.046-1.645 2.864.49 2.814-2.632-.05-3.168-1.943-1.663-2.084-3.725-.058-.839 1.215-.69 2.034-.498 3.464.811 3.043 1.637 8.836 1.064 2.623-.259 2.391-1.494 5.77-1.905 2.35-.285 4.849.143 4.911 3.453.063 3.31-1.486 4.785-3.774 5.011" data-paper-data="{&quot;origPos&quot;:null}"/><path fill="none" stroke="#c99638" stroke-linecap="round" d="M110.48 61.69s.822 2.448.931 4.01c.106 1.511-.524 3.682-.524 3.682l-2.394-7.39-1.87 7.63-2.283-7.594-2.047 7.84s.698-2.384.652-3.91c-.048-1.609-.894-4.122-.894-4.122l2.556 7.766 1.415-7.655 2.996 7.598z" data-paper-data="{&quot;origPos&quot;:null}"/></g><g stroke-linejoin="round" data-paper-data="{&quot;origPos&quot;:null}"><path fill="#1e1c1d" d="M100.685 46.452s-17.492 3.843-17.019-5.369c.443-8.629 9.901-6.655 16.95-6.466 3.22-.207 4.85-1.736 8.374-1.43 10.388.9 13.442 6.712 13.115 9.947-.391 3.861-6 6.133-10.814 6.004-5.193-.139-3.83-2.285-10.606-2.686" data-paper-data="{&quot;origPos&quot;:null,&quot;index&quot;:null,&quot;origRot&quot;:0}"/><path fill="#ebe2d0" d="M100.685 46.452s-16.65 2.737-16.487-5.657c.132-7.292 9.952-5.602 16.337-5.99 3.22-.207 6.6-1.715 8.455-1.619 5.32.462 8.376 2.188 11.282 5.86.619 1.456.259 2.294.083 4.027-.13 1.283-.05 1.755-.355 2.824-2.711 2.551-6.83 3.476-8.709 3.241-5.467-.681-3.591-2.784-10.606-2.686" data-paper-data="{&quot;origPos&quot;:null,&quot;index&quot;:null,&quot;origRot&quot;:0}"/><path fill="#c99638" d="M94.397 35.056c3.802.139 8.43 1.924 8.43 1.924 3.328.289 6.495-1.988 9.476-1.522 4.347.679 7.548 2.896 7.176 7.183-.277 3.19-2.092 4.575-5.289 4.767-4.819.29-7.022-1.542-10.859-2.007-2.726-.33-5.244 1.642-9.215 1.454-4.427-.21-9.997-2.042-9.982-6.474.01-2.862 4.948-5.52 10.263-5.325" data-paper-data="{&quot;origPos&quot;:null}"/><path fill="#1e1c1d" d="M102.541 38.583c-.1 2.011-.561 3.125-.445 5.135.05.865-3.413 1.07-5.606 2.192-.432.221-11.444-.647-11.52-5.36.057-4.278 9.997-5.024 11.589-4.555.901.266 6.006 2.11 5.982 2.588" data-paper-data="{&quot;origPos&quot;:null,&quot;index&quot;:null}"/><path fill="#ebe2d0" d="M114.639 37.326c2.287.227 3.836 1.7 3.774 5.011-.063 3.311-2.561 3.739-4.912 3.453-3.378-.41-3.147-1.645-5.77-1.905-5.792-.573-5.371.253-8.836 1.064-.819.192-2.091.342-2.034-.498.141-2.061 2.034-.556 2.085-3.724.05-3.123-2.768-.987-2.815-2.633-.033-1.16 1.423-1.459 2.556-1.205 3.431.77 3.011 2.23 8.222 2.29 0 0 4.396-2.183 7.73-1.853" data-paper-data="{&quot;origPos&quot;:null}"/><path fill="none" stroke="#c99638" stroke-linecap="round" d="m109.192 37.528-2.997 7.598-1.414-7.656-2.557 7.766s.846-2.513.895-4.12c.046-1.527-.653-3.911-.653-3.911l2.048 7.84 2.282-7.595 1.87 7.63 2.395-7.39s.63 2.171.524 3.683c-.11 1.562-.931 4.01-.931 4.01z" data-paper-data="{&quot;origPos&quot;:null}"/></g><path fill="#1e1c1d" d="M104.335 69.265c.028.568-6.032 2.757-7.102 3.072-1.89.557-13.69-.329-13.757-5.406.09-5.593 13.163-6.624 13.676-6.362 2.603 1.331 6.714 1.576 6.655 2.602-.139 2.385.41 3.707.528 6.094" data-paper-data="{&quot;origPos&quot;:null,&quot;index&quot;:null}"/><path fill="#503929" d="M106.711 91.02c3.411 7.659-11.947 10.256-18.396 10.845-6.393.584-16.682 2.724-25.866-8.381-8.282-8.866 22.13-8.34 28.046-8.93s15.353 4.529 16.216 6.467M106.711 15.54c-.863 1.938-10.3 7.055-16.216 6.466-5.917-.59-36.328-.063-28.046-8.929 9.184-11.106 19.473-8.966 25.866-8.382 6.449.59 21.807 3.187 18.396 10.845" data-paper-data="{&quot;origPos&quot;:null,&quot;origRot&quot;:0,&quot;index&quot;:null}"/><g stroke-width="0" data-paper-data="{&quot;origPos&quot;:null}"><path fill="#3181b0" d="M99.424 26.215s10.193 13.333 9.747 29.292c-.446 15.958-10.915 24.878-10.915 24.878l-6.933 5.513s4.332 16.472-7.57 20.651c-10.786-5.816-32.746-.519-31.999-57.311C52.432-2.225 76.276 3.909 85.036 0c10.167 4.957 6.93 22.195 6.93 22.195z" data-paper-data="{&quot;origPos&quot;:null,&quot;index&quot;:null}"/><path fill="#c99638" d="m84.974 20.748 11.165 5.576s9.744 11.511 9.42 30.911c-.29 17.335-13.023 24.35-13.023 24.35L81.67 83.548S97.342 75.62 97.043 54.12 84.974 20.748 84.974 20.748" data-paper-data="{&quot;origPos&quot;:null,&quot;index&quot;:null}"/></g><path fill="#7b5030" d="M96.53 19.59c10.035-8.467 17.848.682 7.94 6.154-1.55 4.04 1.226 2.967-5.087 5.386-1.415 3.869-3.611 4.166-4.233 4.217-2.78.228-.361-2.349-.127-5.52.235-3.172-2.14-6.635 1.506-10.237" data-paper-data="{&quot;origPos&quot;:null,&quot;origRot&quot;:0,&quot;index&quot;:null}"/><path fill="#235163" d="M53.302 29.63c-.692-1.044.721-9.678 3.834-9.93 2.112-.083 27.64 6.303 36.136 3.223 4.63-.316 10 8.422 10 8.422s-2.975 2.602-18.755 3.118c-12.292.402-30.022-3.957-31.215-4.834" data-paper-data="{&quot;origPos&quot;:null,&quot;origRot&quot;:0,&quot;index&quot;:null}"/><path fill="#7b5030" d="M93.023 75.02c-.234-3.172-2.653-5.75.127-5.522.622.051 2.818.349 4.233 4.218 6.313 2.418 3.537 1.345 5.087 5.386 9.908 5.472 2.095 14.62-7.94 6.154-3.648-3.602-1.272-7.065-1.507-10.237" data-paper-data="{&quot;origPos&quot;:null,&quot;origRot&quot;:0,&quot;index&quot;:null}"/><path fill="#235163" d="M53.302 76.56c1.193-.877 18.923-5.236 31.215-4.834 15.78.516 18.756 3.118 18.756 3.118s-5.371 8.738-10 8.422c-8.496-3.08-34.025 3.306-36.137 3.222-3.113-.25-4.526-8.885-3.834-9.928" data-paper-data="{&quot;origPos&quot;:null,&quot;origRot&quot;:0,&quot;index&quot;:null}"/><path fill="#7b5030" d="M106.918 25.063s-2.43 4.527-5.889 4.141-7.427-3.371-6.954-13.227c.341-7.107 6.364-6.524 9.214-7.933 1.097-.543 4.305 1.969 4.133 3.375-.4 2.72 5.744 5.698-.504 13.644" data-paper-data="{&quot;origPos&quot;:null,&quot;origRot&quot;:0,&quot;index&quot;:null}"/><path fill="#7b5030" d="M98.523 32.442c-6.625 1.694-15.32-7.096-3.077-11.427 18.587-6.575 9.388 2.521 8.774 5.263-1.908 5.183 1.02 4.447-5.697 6.164M106.603 80.278c6.554 8.405.485 11.473.982 14.332.22 1.478-2.915 4.083-4.036 3.503-2.913-1.508-8.944-.955-9.534-8.421-.818-10.354 3.064-13.45 6.527-13.82s6.06 4.406 6.06 4.406" data-paper-data="{&quot;origPos&quot;:null,&quot;origRot&quot;:0,&quot;index&quot;:null}"/><path fill="#7b5030" d="M103.553 79.9c.614 2.743 9.813 11.84-8.774 5.264-12.243-4.331-3.548-13.121 3.077-11.427 6.717 1.717 3.79.981 5.697 6.164" data-paper-data="{&quot;origPos&quot;:null,&quot;origRot&quot;:0,&quot;index&quot;:null}"/><g data-paper-data="{&quot;index&quot;:null,&quot;origPos&quot;:null}"><path d="M80.584 71.592c11.926 2.645 2.158 17.231-4.126 8.037 5.753 1.85-1.749 8.72-4.03 2.422 12.314 7.587-5.705 18.767-9.896 7.485 4.915 6.94-7.596 7.5-5.36.496 6.948 12.985-18.899 13.823-13.624.14 1.661 20.645-33.242 8.092-17.17-6.956-1.088 17.654-24.368-2.658-3.914-6.115-11.078 18.926-25.16-9.754-8.284-9.171-6.589 6.212-10.065-7.018-1.382-5.037-13.682 6.53-19.322-19.889-1.991-18.054-8.914-.005-6.489-13.53 2.962-11.261-11.24-4.776 1.122-22.996 8.192-8.266C8.094 17.55 31.224 2.238 33.55 17.85c-8.583-7.114 8.08-13.608 6.854-3.448C34.519 6.256 53.373.31 53.27 12.19c-1.13-7.684 13.845-6.71 12.1 1.055 5.026-2.038 8.722 3.806 4.084 5.213.753-5.265 8.48.037 3.371 1.964 9.401-8.164 20.203 12.006 5.659 13.938 3.552 7.69 3.97 15.88 2.1 37.233" data-paper-data="{&quot;origPos&quot;:null}"/><path fill="#7b5030" d="M92.75 61.413c-1.518 3.976.198 4.973-3.92 10.535-4.853 5.116-7.432 6.907-15.335 7.301-7.912.395-10.278 7.964-12.506 6.184-2.417-1.931 6.688-6.064-2.157-3.99s-41.369 7.7-41.163-27.661c.207-35.587 32.019-30.55 38.788-28.631 10.718 3.039 2.54 1.027 5.435-2.905 2.465-.893 5.782 5.457 12.7 6.56 6.92 1.103 11.574 1.908 14.77 7.005 3.065 4.287 2.117 4.85 3.309 9.508.737 2.881 2.258 3.816 2.276 7.728.02 4.104-1.31 6.043-2.196 8.366" data-paper-data="{&quot;origPos&quot;:null}"/><path d="M59.038 39.685c6.218.42 8.483 3.882 4.498 9.212 8.59-3.653 13.94 11.624 1.35 12.23 8.686 3.21 3.076 9.916-1.905 7.449 12.054 8.11-3.482 19.352-16.002 17.9-32.37-3.751-38.388-31.689-27.149-50.72 13.1-22.182 44.38-14.795 47.134-5.291 1.222 5.565-3.277 10.164-7.926 9.22" data-paper-data="{&quot;origPos&quot;:null}"/><path fill="none" stroke="#503929" stroke-linecap="round" stroke-linejoin="round" stroke-width="1.5" d="M89.783 46.738c2.338.547 1.256 4.235 1.256 4.235s1.184.725 1.184 2.665c0 2.222-1.306 2.743-1.306 2.743s.703 3.602-1.42 3.644" data-paper-data="{&quot;origPos&quot;:null,&quot;index&quot;:null}"/><g data-paper-data="{&quot;origPos&quot;:null}"><path d="M79.21 44.593c.908 2.324 1.19 2.68 1.19 2.68s-1.774.576-2.532-1.363c.044-3.008-2.284-12.495-2.284-12.495s1.268 1.56 1.914 3.552c.769 2.37 1.712 7.626 1.712 7.626" data-paper-data="{&quot;origPos&quot;:null,&quot;index&quot;:null}"/><path d="M78.197 71.663s2.816-4.507 2.88-6.72c.082-2.855-.32-4.32-.32-4.32s2.633.268 2.544 4.16-5.104 6.88-5.104 6.88" data-paper-data="{&quot;origPos&quot;:null}"/><path d="M80.829 46.225s.402-1.465.32-4.32c-.064-2.213-2.88-6.72-2.88-6.72s4.995 3.522 5.072 6.88-2.512 4.16-2.512 4.16M77.199 70.052c-.647 1.992-1.915 3.553-1.915 3.553s2.328-9.488 2.285-12.495c.758-1.94 2.532-1.363 2.532-1.363s-.283.355-1.19 2.68c0 0-.944 5.255-1.712 7.625" data-paper-data="{&quot;origPos&quot;:null,&quot;index&quot;:null}"/></g></g></g></svg>