<svg xmlns="http://www.w3.org/2000/svg" xml:space="preserve" width="800" height="800" viewBox="0 0 511.996 511.996"><path d="M395.419 150.067H116.582c-44.888 0-81.276 36.387-81.276 81.267v51.147c0 43.873 35.575 79.448 79.457 79.448 52.083 0 105.472-34.86 132.405-79.448h17.655c26.942 44.588 80.322 79.448 132.414 79.448 43.882 0 79.448-35.575 79.448-79.448v-51.147c.001-44.88-36.377-81.267-81.266-81.267" style="fill:#212f3e"/><path d="M397.241 335.446c-40.263 0-86.413-28.036-109.745-66.657l-7.733-12.791h-47.528l-7.733 12.791c-23.331 38.621-69.482 66.657-109.745 66.657-29.21 0-52.966-23.755-52.966-52.966v-51.147c0-30.208 24.576-54.784 54.784-54.784h278.846c30.208 0 54.784 24.576 54.784 54.784v51.147c.002 29.211-23.753 52.966-52.964 52.966" style="fill:#3e5163"/><path d="M35.31 280.658v-49.32c0-17.064 5.279-32.883 14.265-45.956H8.828A8.826 8.826 0 0 0 0 194.21v88.276c0 4.873 3.955 8.828 8.828 8.828h27.26c-.46-3.497-.778-7.037-.778-10.656M462.42 185.377c8.986 13.074 14.265 28.893 14.265 45.956v49.32c0 3.619-.318 7.159-.777 10.655h27.26a8.826 8.826 0 0 0 8.828-8.828v-88.276a8.826 8.826 0 0 0-8.828-8.828H462.42z" style="fill:#6ca1e9"/><path d="M88.276 247.17c-2.26 0-4.52-.865-6.241-2.586a8.817 8.817 0 0 1 0-12.482l35.31-35.31a8.817 8.817 0 0 1 12.482 0 8.817 8.817 0 0 1 0 12.482l-35.31 35.31a8.8 8.8 0 0 1-6.241 2.586M105.931 273.653c-2.26 0-4.52-.865-6.241-2.586a8.817 8.817 0 0 1 0-12.482l61.793-61.793c3.452-3.452 9.031-3.452 12.482 0s3.452 9.031 0 12.482l-61.793 61.793a8.8 8.8 0 0 1-6.241 2.586" style="fill:#212f3e"/></svg>