<svg xmlns="http://www.w3.org/2000/svg" width="125.68" height="132.262" viewBox="0.381 -0.504 125.68 132.262"><path fill="#3c3c32" d="m72.602 65.859-16.806-.789s-10.854 33.714-10.854 37.28c3.805.45 7.647.524 11.467.223.069-.303 16.193-36.714 16.193-36.714"/><path fill="#be0a3c" d="M38.8 129.881c-.831.178-1.628.383-2.419 0a1.57 1.57 0 0 0-.706.829c.281.914 7.919.343 9.072.36 1.553-.44 9.271-19.091 13.113-28.526H45.045c-.797 4.286-4.863 22.749-6.245 27.337"/><path fill="#ffdc00" d="M54.345 115.441H40.159l2.151-9.262h15.854z"/><path fill="#ffc800" d="m42.356 104.03.59-3.989h17.798l-1.64 3.989z"/><path fill="#3c3c32" d="M121.163 86.27a44.7 44.7 0 0 0-8.985-15.143c-1.199-1.297-2.684-2.817-4.284-3.611-1.966-.977-7.241-2.555-9.392-2.663-4.237-.212-29.077-.257-31.766-.24l.304 10.423c6.571-.4 26.841 1.983 32.684 4.571 10.321 4.572 13.394 17.714 14.151 21.274h9.455c-.023-5.308-1.565-13.582-2.167-14.611"/><path fill="#be0a3c" d="M113.479 102.636c.975 9.337-2.293 18.748-5.498 27.297.997 1.714 8.182 1.251 9.696 1.308l.498-.731c-1.232-.783-2.867.137-4.162-.72.401-1.983 2.115-3.874 3.039-5.669 1.146-2.245 2.179-4.571 3.297-6.857a37.3 37.3 0 0 0 3.876-14.651z"/><path fill="#ffdc00" d="M111.541 115.384h11.05l2.97-9.268h-12.965z"/><path fill="#ffc800" d="m124.993 103.973-.287-3.989h-13.469l1.073 3.989z"/><path fill="#824600" d="M47.499 49.927S24.953 77.07 21.289 96.493c-.224 1.171 2.666 4.497 4.014 4.674.814-1.588 4.587-9.777 11.244-20.954C42.854 69.636 53.64 57.167 53.64 57.167z"/><path fill="#ffdc00" d="M70.761 31.83c-7.001 1.806-9.782 4.337-10.894 5.097-3.354 2.286-14.908 12.846-16.227 16.103 1.502 2.194 6.56 6.537 8.635 8.086 4.478-5.606 17.775-16 21.113-19.16z"/><path fill="#6e1e3c" d="M28.56 100.893c-.081-.852-18.131 3.343-18.131 3.343l1.68 17.554s3.842.48 9.839-1.531c5.998-2.012 7.26-3.72 7.351-3.903-.114-.457-.693-14.943-.739-15.463"/><path fill="#be0a3c" d="M31.966 97.624c-2.512-3.765-11.847-6.085-11.847-6.085s-6.88 1.171-12.878 7.594-10.619 18.6-.069 24c1.8.931 5.218 1.668 7.007.36 1.909-1.394 1.772-5.206 2.339-7.32 1.342-5.057.912-8.572 6.554-9.714 2.409.771 3.687 3.857 3.441 7.062-.161 1.661.01 3.338.504 4.932.388.57 1.03.915 1.72.926 3.441-2.389 3.796-18.92 3.229-21.755"/><path fill="#6e1e3c" d="M22.854 98.607c.706-.571 1.302-1.143 1.147-2.286-.115-.245-.275-.571-.447-.931-2.294-1.469-5.075-2.229-7.615-3.154a26.2 26.2 0 0 0-5.676 2.765c3.4 2.646 8.205 5.16 12.591 3.606"/><path fill="#ffdc00" d="M70.876 33.373 56.541 64.801c.298 0 36.17-.537 49.404-.72-4.828-12.782-14.908-29.76-15.166-30.137z"/><path fill="#be0a3c" d="M110.79 68.619H52.952l1.909-6.28h52.277z"/><path fill="#ffc800" d="M77.952 61.024h7.454v8.48h-7.454z"/><path fill="#3c3c32" d="M89.712 61.024h3.727v8.48h-3.727zM98.634 61.024h3.727v8.48h-3.727zM70.607 61.024h3.727v8.48h-3.727zM59.689 61.024h3.727v8.48h-3.727z"/><path fill="#824600" d="M27.275 51.064a1.04 1.04 0 0 0-.246 1.143c.275 1.143.865 5.6 1.146 6.697.752.726 2.976 2.035 3.957 2.857-.121-.531-1.967-4.748-2.053-4.971-.602-1.571-1.215-3.137-1.823-4.709a1.72 1.72 0 0 0-.981-1.017"/><path fill="#a0640a" d="m83.623 81.15-1.273-9.971a53 53 0 0 1-10.952 2.405c-13.521 1.246-24.323-3.211-28.991-6.068-3.584-2.189-6.577-4.875-9.776-7.566-1.91-1.606-4.014-3.206-5.459-5.257-1.072-1.514-1.594-3.429-2.747-4.88-1.668.903.763 6.228 1.25 7.508a.72.72 0 0 1-.745.726c-2.643-1.726-4.083-9.023-5.258-8.011-1.175 1.011 3.784 8.497 2.173 9.274s-4.587-8.503-5.407-5.966 6.525 12.76 15.625 18.457c4.151 2.6 14.083 9.143 33.526 11.789 3.206.497 6.474.43 9.656-.2a78 78 0 0 0 8.378-2.24"/><path fill="#fab414" d="M82.998 83.704c8.302-4.171 16.399-11.6 19.719-20.491 1.72-4.612 2.075-5.909 2.448-15.149s-11.863-13.68-11.863-13.68c-.855 1.115-.992 11.097-1.216 12.452-.373 2.285-.573 4.737-1.089 7.005-.878 3.8-2.839 8-5.786 10.583-3.131 2.777-7.104 4.257-10.487 6.64 1.376 2.76 7.299 12.572 7.568 12.92.264-.103.494-.177.706-.28"/><path fill="#c8bea0" d="M82.075-.004c-.552.254-1.09.276-1.372 1.202-.123.7.049 1.454.416 1.821.393.373.835.567 1.283.563a5.5 5.5 0 0 0 1.61-.629l.25-1.015C83.813.261 82.928.316 82.075-.004"/><path fill="#e6781e" d="m104.081 24.247-1.445-6.36-28.572-4.788-11.083 7.874s0 13.537 20.693 12 20.407-8.726 20.407-8.726"/><path fill="#fab414" d="M102.636 17.887c.574 12.514-11.783 13.646-11.381 13.714 2.924-.302 25.034.703 25.177-9.948.063-4.76-10.544-3.989-13.796-3.766"/><path fill="#824600" d="M69.592 34.173c.246-2.509-1.686-6.354-2.156-8.897-2.867-2.795-4.45-2.492-6.262.617-2.563 4.394 5.562 9.657 8.418 8.28M96.507 32.499c-.247-2.509.361-6.892.831-9.429 2.839-2.794 6.881-3.08 7.581 1.143.762 5.023-5.585 9.657-8.412 8.286"/><path fill="#a0640a" d="M99.861 16.596c-5.894-.629-31.777 1.205-33.991 2.223-.435 1.902 1.078 14.805 2.03 18.148.642 2.252 4.587 9.172 15.929 8.52 11.342-.651 13.349-8.057 14.857-14.788a57 57 0 0 0 1.175-14.103"/><path fill="#824600" d="M81.599 26.379a10.7 10.7 0 0 0-1.147 3.817c.127.532.598.912 1.147.925 1.416.218 2.23-.28 2.643-1.628.12-.389.275-.772.396-1.143a2.32 2.32 0 0 0-.109-2.029l-1.227-.462a2.57 2.57 0 0 0-1.703.52"/><path d="m76.599 34.95-.625.491c.045.216.04.389.109.469.145.206.323.373.521.49.872.426 1.749.837 2.632 1.22.774.332 1.56.628 2.294.916.481-.223.573-.57.367-1.068-1.892-.36-3.739-.916-5.298-2.518M76.587 30.457c1.844-.414 1.804-1.183 2.178-1.825.516-.581.298-1.251-.561-1.73a3.4 3.4 0 0 0-1.416.101c-.42.129-.702.338-.776.573-.534.941-1.176 1.908.575 2.881M92.728 27.35c-1.778.508-1.656 1.42-2.112 2.158-.508.499-.205 1.118.699 1.428 1.265-.135 2.214-.685 2.341-1.356.303-.738.82-1.54-.928-2.23M77.677 17.013l21.404 12.366a57 57 0 0 0 1.594-9.755c.224-4.543-.344-5.788-.344-5.788z"/><path d="m67.654 17.921 19.696 7.6-5.121-9.074z"/><path fill="#ffdc00" d="M102.636 17.887c.236-2.406-1.376-5.714-2.368-7.857a17.5 17.5 0 0 0-5.074-6.16C91.088.51 85.498.144 80.492 1.087S69.867 4.31 67.046 8.801c-2.294 3.64-3.314 8-4.065 12.172z"/></svg>