<svg xmlns="http://www.w3.org/2000/svg" width="96.798" height="135.721" viewBox="-0.478 0.277 96.798 135.721"><g fill="#c8c8be"><path d="M55.473 80.22c-.033.228 1.071 4.074 1.041 4.302.762 4.553-4.224 9.643-7.236 12.328-.264.712.9 3.412 1.263 4.047h.237c.135-.538-.183-1.034-.135-1.576 1.872-1.031 3.936-1.704 5.601-3.093s3.981-3.551 5.211-5.316c2.16-3.103 4.305-7.923 4.959-14.613-.009.03-10.941 3.921-10.941 3.921"/><path d="M50.124 97.659s1.2 2.706 1.356 2.949h.237c.114-.466-.282-2.501-.3-2.961q-.647-.03-1.293.012M51.462 97.172s.6 2.907.684 3.172l.228.066c.213-.43 0-2.688.075-3.145a4.6 4.6 0 0 0-.987-.093"/></g><g fill="#c8c8be"><path d="M46.893 95.611c-.582-1.058-1.083-2.156-1.674-3.211-.759-.105-3.282-1.025-5.439-2.619-2.214-1.641-4.056-3.99-4.236-6.636-.354-5.219 3.3-9.167 3.3-9.167l-3.804-2.33-7.695 5.216s-1.041 4.67 3.969 12.196c1.542 2.315 4.236 4.101 6.822 5.078 2.769 1.046 5.286.694 8.1 1.203.507.601.627 1.419 1.146 1.948a.316.316 0 0 0 .363-.141c-.273-.5-.564-1.014-.852-1.537"/><path d="M44.484 94.874s1.923 2.262 2.124 2.454l.231-.054c-.018-.481-1.284-2.36-1.443-2.793q-.477.148-.912.393M43.08 94.628s2.229 2.444 2.433 2.634c.069-.015.321-.099.321-.099s-1.686-2.496-1.842-2.929q-.477.147-.912.394"/></g><path fill="#3c3c32" d="M78.162 77.184q2.934-2.916 5.877-5.827c-2.439-3.788-4.8-7.429-4.8-7.429l-12.108-12.8-10.617-6.705s9.39 29.697 9.786 31.751c2.316 2.441 4.425 4.51 6.336 6.519q2.763-2.767 5.526-5.509"/><path fill="#64645a" d="M95.058 98.718H82.395c1.566 4.609 4.5 14.071 4.059 18.431-.834 8.503-5.484 18.175-4.8 18.341 1.137.252 6.834-5.559 7.881-7.784a64 64 0 0 0 3.261-8.272 46 46 0 0 0 1.854-8.022c.3-2.483 1.128-7.471.729-9.961a20 20 0 0 0-.321-2.733"/><path fill="#828278" d="M82.395 98.718s12.867 1.028 12.855.983c-1.56-5.598-5.799-19.844-5.892-19.982 0-.09-5.529-10.674-5.529-10.674s-7.413 9.874-11.19 13.648c3.564 3.788 6.642 7.7 8.895 13.596.132.34.507 1.392.861 2.429"/><path fill="#c8c8be" d="M55.629 42.616s11.433 5.683 15.816 9.82c4.611 4.351 10.341 9.553 13.734 14.916 3.3 5.205 8.292 14.09 10.5 27.683.219 1.353.216 6.954-.249 6.942s-.354-3.352-.801-3.352-.6 3.401-1.2 3.343c-.3-.027-.135-.992-.126-1.719 0-.8-.105-1.381-.105-1.621l-.261-.223c-.567.148-1.245 2.673-1.458 2.664s.219-5.815 0-7.787c-.849-7.712-3.651-13.755-7.461-20.115-2.37-3.953-5.289-7.3-8.454-10.634-1.488-1.549-3.084-3.028-4.602-4.555-5.322-5.355-13.56-8.458-13.56-8.458l-1.827-6.777z"/><path fill="#64645a" d="m16.908 95.997-9.033-8.325-6.21 2.585L.3 97.855c1.122 6.347.372 6.278 3.363 15.635s8.796 21.513 9.6 21.347c.804-.165-1.488-11.314-.549-22.138.639-7.369 3.858-15.463 4.194-16.702"/><path fill="#3c3c32" d="M41.505 43.963S21.3 55.217 15.234 63.666C13.461 66.132 8.856 73.85 8.856 73.85l14.061 8.025a11 11 0 0 1 1.938-2.631 46 46 0 0 1 2.481-2.424s8.907-15.304 9.3-16.368c.201-.517 5.097-15.944 4.869-16.489"/><path fill="#828278" d="M11.121 70.419C6.747 78.435 1.599 89.506.429 93.27c-.063.544-.3 3.936-.3 3.936l16.776-1.203c1.296-4.726 1.782-5.968 4.032-10.824.147-.316 1.8-3.007 1.977-3.307z"/><path fill="#c8c8be" d="m41.325 41.874-1.59 6.783a41 41 0 0 0-11.52 6.371c-5.232 4.116-12.243 12.168-13.917 14.778-4.902 7.634-6.858 13.353-7.8 15.737a46.4 46.4 0 0 0-1.8 6.161 28 28 0 0 0-.6 3.526c-.099.926.042 2.06-.384 2.911-.576-.665-.744-1.708-.93-2.556-1.002-.658-.861 3.308-.861 3.753-.51-.701-.576-1.711-.744-2.55l-.276-.129c-.438.43-.252 1.055-.501 1.527-.525-.102-.363-3.139-.333-3.728.042-.869 1.074-7.857 3.324-14.132 2.1-5.824 5.304-10.845 7.851-14.333 3.417-4.678 9.6-11.371 17.82-17.574 5.01-3.773 12.261-6.545 12.261-6.545"/><path fill="#828278" d="M46.2 24.786C44.538 29.53 27.348 76.87 27.348 76.87s6.3 6.516 7.413 7.256a23.56 23.56 0 0 0 13.887 4.047c4.935-.085 10.89-3.332 14.511-6.814 1.749-1.68 3.267-5.039 3.267-5.039L51.39 23.481z"/><path fill="#64645a" d="M48.651.777h-.579c-.528.199-4.707 15.822-4.815 17.093-.75 8.912 1.734 36.246 2.184 39.959.036.286.726 1.245.945 1.452.228.076 1.161.902 2.034.902s1.689-.814 1.917-.902c.219-.207.9-1.166.945-1.452.453-3.734 2.778-31.669 2.1-40.22-.09-1.164-4.203-16.633-4.731-16.832"/><path fill="#828278" d="M48.258 28.487c-1.08-.048-1.146 5.43-1.173 5.941-.183 3.581.42 14.568.531 16.062q.077.306.228.583c.057.03.282.358.495.358s.408-.328.465-.358q.15-.277.228-.583c.111-1.503.675-12.73.513-16.167-.024-.469-.21-5.788-1.287-5.836"/><path d="M54.741 28.15c.279-.331.57-.484.951-.3.456.736.36 1.301-.342 1.906-.546-.358-.678-.965-.609-1.606M41.127 28.15c.276-.331.57-.484.948-.3.456.736.36 1.301-.342 1.906-.546-.358-.675-.965-.606-1.606M49.047 55.983a.74.74 0 0 1 .72-.144c.345.355.273.628-.261.92a.666.666 0 0 1-.459-.776M46.755 56.019a.74.74 0 0 1 .72-.141c.348.355.273.628-.258.92a.67.67 0 0 1-.462-.779"/></svg>