<svg xmlns="http://www.w3.org/2000/svg" xml:space="preserve" width="121" height="53.287" viewBox="12.518 42.287 121 53.287"><linearGradient id="a" x1="13.018" x2="133.018" y1="75.069" y2="75.069" gradientTransform="matrix(1 0 0 -1 0 144)" gradientUnits="userSpaceOnUse"><stop offset="0" style="stop-color:#27aae1"/><stop offset="1" style="stop-color:#115489"/></linearGradient><path fill="url(#a)" d="M106.874 42.787H39.161c-14.416 0-26.143 11.728-26.143 26.143 0 14.417 11.728 26.144 26.143 26.144h67.713c14.415 0 26.144-11.728 26.144-26.144s-11.729-26.143-26.144-26.143"/><linearGradient id="b" x1="17.52" x2="128.514" y1="75.069" y2="75.069" gradientTransform="matrix(1 0 0 -1 0 144)" gradientUnits="userSpaceOnUse"><stop offset="0" style="stop-color:#2f7eba"/><stop offset=".506" style="stop-color:#3f9dd6"/><stop offset="1" style="stop-color:#3e97d1"/></linearGradient><path fill="url(#b)" d="M128.514 68.93c0 11.952-9.688 21.641-21.64 21.641H39.161c-11.952 0-21.641-9.689-21.641-21.641s9.689-21.64 21.641-21.64h67.713c11.952 0 21.64 9.689 21.64 21.64"/></svg>