<svg xmlns="http://www.w3.org/2000/svg" xml:space="preserve" width="120.051" height="104.911" viewBox="-0.788 -0.788 120.051 104.911"><title>Slice 1</title><g fill-rule="evenodd"><path fill="none" stroke="#ffdb5d" stroke-width="1.575" d="m52.942 72.6 28.906 30.736M94.942 103.336c-3.23 0-3.23-3.153-6.46-3.153-3.228 0-3.228 3.153-6.457 3.153-3.231 0-3.231-3.153-6.462-3.153s-3.23 3.153-6.462 3.153"/><path fill="#fff4e3" fill-rule="nonzero" d="M67.668 74.44v11.84c0 1.641-1.971 2.463-3.124 1.303L52.268 75.228z"/><path fill="none" stroke="#ffdb5d" stroke-width="1.575" d="M46.002 84.16v19.176M59.096 103.336c-3.23 0-3.23-3.153-6.46-3.153-3.228 0-3.228 3.153-6.457 3.153-3.23 0-3.23-3.153-6.462-3.153-3.23 0-3.23 3.153-6.461 3.153"/><path fill="#fff4e3" fill-rule="nonzero" d="M44.242 74.44v11.84c0 1.641 1.97 2.463 3.123 1.303l12.276-12.355z"/><g fill-rule="nonzero"><path fill="#fff4e3" d="M103.753 30.92c0 26.889-21.658 48.686-48.375 48.686S7.004 57.809 7.004 30.92z"/><path fill="#fff4e3" d="m19.859 43.858 18.75-1.482a34 34 0 0 0 .369-4.976c0-18.473-14.88-33.45-33.236-33.45-1.861 0-3.684.163-5.461.458L11.05 15.248H.174l8.57 8.625H0zM105.45 22.493l-2.546 17.534-28.45-8.866s9.136-21.54 27.145-21.54z"/><path fill="#f3e4ce" d="M86.352 30.92c0 17.217-13.867 31.173-30.974 31.173-12.368 0-23.043-7.296-28.008-17.845H46.07L25.579 30.92z"/></g><g fill-rule="nonzero"><path fill="#ce2235" d="M115.466 26.121c0 3.654-2.943 6.617-6.575 6.617-3.63 0-6.574-2.963-6.574-6.617s2.944-6.617 6.574-6.617 6.575 2.963 6.575 6.617M113.9 6.917c.097-.437.124-.9.07-1.377-.21-1.812-1.651-3.307-3.446-3.561a4.05 4.05 0 0 0-4.197 2.174q.001-.032.003-.065c0-2.258-1.819-4.088-4.062-4.088-1.545 0-2.886.87-3.572 2.15a.915.915 0 0 1-1.199.406 4 4 0 0 0-1.669-.357c-2.146.007-3.972 1.786-4.047 3.944a4.076 4.076 0 0 0 3.763 4.218l.11-.001h3.85c.347 0 6.76 3.464 9.8 3.75a4.056 4.056 0 0 0 4.286 2.365c1.778-.251 3.212-1.714 3.44-3.507a4.09 4.09 0 0 0-2.258-4.216 1.65 1.65 0 0 1-.872-1.835"/><path fill="#ce2235" d="M105.339 1.858s-.405-1.05.258-.11c.663.939 1.435 1.25 2.374.7s-.28 2.581-.28 2.581l-1.689.13-1.05-.692z"/><path fill="#ffdb5d" d="M118.475 20.687c-1.635-2.825-4.666-4.729-8.148-4.729-3.483 0-6.513 1.904-8.148 4.729z"/><path fill="#e8441d" d="M111.061 16.768c0 4.975-4.008 9.008-8.95 9.008-4.944 0-8.951-4.033-8.951-9.008s4.007-9.008 8.95-9.008c4.944 0 8.951 4.033 8.951 9.008"/><path fill="#fff4e3" d="M106.177 16.768c0 2.26-1.82 4.093-4.067 4.093s-4.067-1.832-4.067-4.093c0-2.26 1.821-4.093 4.067-4.093s4.067 1.833 4.067 4.093"/><path fill="#17242d" d="M104.764 16.768a2.66 2.66 0 0 1-2.653 2.67 2.66 2.66 0 0 1-2.654-2.67 2.66 2.66 0 0 1 2.654-2.671 2.66 2.66 0 0 1 2.653 2.67"/></g></g></svg>