<svg xmlns="http://www.w3.org/2000/svg" width="37.707" height="62.792" viewBox="-0.14 0.078 37.707 62.792"><path fill="#aaa082" d="M31.606 54.352s-.584-1.978-.658-1.841l-.717 3.124s-.217.978-.026 1.156c.129.12.666-.721.996-1.528l.014-.036z"/><path fill="#dcd2b4" d="M30.222 41.553c.179 4.04.527 11.585.809 15.425.065.873 0 1.55.182 1.548.181-.002.324-.567.405-1.093.05-.325.103-.572.196-.592.239-.048.141 1.909.511 1.858s.15-1.833.64-2.011c.489-.178.09 1.682.716 1.547.174-.041.258-2.009.379-4.236.151-2.697 1.106-16.06-1.726-16.229-2.831-.168-2.112 3.783-2.112 3.783"/><path fill="#aaa082" d="M7.233 54.35s.585-1.978.659-1.841l.716 3.124s.218.978.027 1.156c-.129.12-.666-.721-.996-1.528l-.014-.036z"/><path fill="#dcd2b4" d="M8.618 41.551c-.179 4.04-.528 11.585-.809 15.426-.065.872 0 1.55-.182 1.547-.181-.002-.324-.567-.405-1.093-.051-.325-.103-.572-.196-.591-.239-.049-.141 1.908-.511 1.857s-.15-1.833-.64-2.011c-.489-.178-.09 1.682-.716 1.547-.174-.041-.258-2.009-.379-4.236-.151-2.697-.215-7.827-.239-12.446 0 0-.427-3.196 2.069-3.448 2.497-.253 2.008 3.448 2.008 3.448"/><path fill="#aaa082" d="M10.753 44.943c.886 4.619 3.084 15.812 3.146 16.543-.654.151-1.227-.332-1.893-.091l-.078.502a.88.88 0 0 0 .778.279c.477 0 .955.014 1.446.028.795.022.75.051 1.545.073a1.3 1.3 0 0 0 .272-.061c.072-.146.499-21.995-3.165-22.079s-2.051 4.806-2.051 4.806M25.809 61.198c.384-.868 2.205-11.398 3.015-16.257 0 0 .954-3.636-2.45-4.389-3.404-.752-2.998 4.285-2.998 4.285.182 5.907.179 17.288.342 17.42.298.137 2.387-.185 3.103.113.32-.053.611-.118.608-.533-.15-.113-1.272.06-1.744-.219a4 4 0 0 1 .124-.42"/><path fill="#f0e6d2" d="M36.209 23.315c-1.599-7.546-5.18-16.596-12.174-20.573C22.29 1.75 20.032.543 17.977.579a10.2 10.2 0 0 0-3.581.897c-.695.334-4.385 3.465-4.944 4.248-3.103 4.367-4.359 9.339-6.027 13.801C2.162 22.89 1.496 26.494.906 30.046c-.417 2.507-.809 5.611-.315 8.118 1.211 6.123 5.992 11.294 11.776 13.039.888.269 3.855 1.509 7.639 1.552 3.136.036 7.278-1.052 7.469-1.136 7.042-3.047 8.873-11.756 9.212-14.142a42.5 42.5 0 0 0-.478-14.162"/><path fill="linen" d="M3.952 40.8c1.256 2.884 3.323 6.219 6.061 7.241.683.254 1.559.555 2.246.37a3.1 3.1 0 0 0 1.12-.649c.49-.656.913-1.36 1.263-2.101.632-1.999.582-4.085.716-6.007a27 27 0 0 0-.15-4.412c-.098-1.036-.261-2.312-.666-3.273-.991-2.351-3.104-4.028-5.209-4.261a7.1 7.1 0 0 0-2.726 0 9.3 9.3 0 0 0-2.411 1.06c-2.084 1.79-1.874 5.423-1.759 6.404A20.6 20.6 0 0 0 3.952 40.8"/><path fill="#aaa082" d="M15.334 21.602a220 220 0 0 1-1.045-2.802c-.239-.683-.11-1.358.057-2.029.129-.523.277-1.043.396-1.569.172-.757.313-1.523.492-2.28a10 10 0 0 1 .348-.99c-.141-.363-.322-.765-.456-1.183-.491-1.523-2.387-8.262-2.387-8.262s-.585.349-.616.373q.364 1.023.595 2.086.114.468.279.92c.136.481.263.942.399 1.413s.46 1.514.477 1.545c.239 1 .845 3.023.845 3.023s-.191 1.024-.305 1.531c-.191.853-.456 1.682-.683 2.538a3 3 0 0 0-.084.545c-.064.765-.355 1.055-1.119 1.185-.84.142-1.671.315-2.514.481a1.5 1.5 0 0 0-.238.077c-.552.202-.607.456-.139.995.239-.109.504-.241.773-.344q.412-.193.855-.288c.642-.094 1.291-.137 1.922-.2.359.427.641.916.83 1.442.158.392.347.769.497 1.163s.239.721.358 1.096c.153.5.294 1.004.444 1.504.112.37.85 2.189.974 2.67a.58.58 0 0 0 .58.524l.418-.281c-.222-.476-1.566-3.876-1.953-4.883"/></svg>