<svg xmlns="http://www.w3.org/2000/svg" xml:space="preserve" viewBox="0 0 512.001 512.001"><path d="M169.212 251.662a8.6 8.6 0 0 1-4.46-1.241l-43.39-26.034a8.69 8.69 0 0 1-4.209-7.437c0-165.888 52.857-212.949 55.114-214.866 3.636-3.115 9.103-2.69 12.236.963 3.089 3.627 2.681 9.068-.92 12.184-.712.642-48.067 44.692-49.057 196.816l39.164 23.5a8.67 8.67 0 0 1 2.968 11.906 8.66 8.66 0 0 1-7.446 4.209" style="fill:#232b35"/><path d="M221.28 338.441a8.7 8.7 0 0 1-4.053-1.007L69.702 259.333a8.66 8.66 0 0 1-4.261-5.207C33.107 144.871 90.425 67.428 92.881 64.183c2.881-3.81 8.296-4.573 12.14-1.675 3.818 2.881 4.582 8.322 1.701 12.14-.538.72-53.153 72.305-25.635 171.069l144.263 76.375c4.235 2.248 5.858 7.498 3.61 11.733a8.69 8.69 0 0 1-7.68 4.616" style="fill:#232b35"/><path d="M117.162 503.323a8.67 8.67 0 0 1-7.732-4.721c-1.909-3.732-46.497-92.212-17.677-163.415a8.68 8.68 0 0 1 8.044-5.424H212.61c4.799 0 8.678 3.888 8.678 8.678s-3.879 8.678-8.678 8.678H105.819c-21.504 63.158 18.64 142.753 19.057 143.568 2.187 4.27.495 9.494-3.766 11.681a8.6 8.6 0 0 1-3.948.955" style="fill:#232b35"/><path d="M186.577 512.001a8.65 8.65 0 0 1-5.901-2.317c-2.942-2.725-71.541-67.558-36.63-140.288a8.66 8.66 0 0 1 6.587-4.834l60.746-8.678c4.756-.712 9.147 2.621 9.823 7.359.677 4.747-2.621 9.147-7.359 9.823l-56.016 8.001c-24.81 59.765 34.035 115.33 34.651 115.894 3.515 3.263 3.714 8.747.46 12.262a8.62 8.62 0 0 1-6.361 2.778" style="fill:#232b35"/><path d="M238.644 468.611c-19.144 0-34.712-15.568-34.712-34.712s15.568-34.712 34.712-34.712c4.799 0 8.678 3.888 8.678 8.678s-3.879 8.678-8.678 8.678c-9.572 0-17.356 7.784-17.356 17.356s7.784 17.356 17.356 17.356c4.799 0 8.678 3.888 8.678 8.678s-3.879 8.678-8.678 8.678M273.356 468.611c-4.799 0-8.678-3.888-8.678-8.678s3.879-8.678 8.678-8.678c9.572 0 17.356-7.784 17.356-17.356s-7.784-17.356-17.356-17.356c-4.799 0-8.678-3.888-8.678-8.678s3.879-8.678 8.678-8.678c19.144 0 34.712 15.568 34.712 34.712s-15.568 34.712-34.712 34.712" style="fill:#95a5a5"/><path d="M386.17 216.95h.087zm-43.381 34.712a8.66 8.66 0 0 1-7.446-4.209 8.67 8.67 0 0 1 2.968-11.906l39.164-23.5c-.99-153.965-48.528-196.357-49.005-196.773-3.645-3.107-4.079-8.583-.972-12.227 3.124-3.653 8.6-4.079 12.236-.963 2.256 1.918 55.114 48.978 55.114 214.866a8.68 8.68 0 0 1-4.209 7.437l-43.39 26.034a8.63 8.63 0 0 1-4.46 1.241" style="fill:#232b35"/><path d="M438.238 251.662h.087zm-147.517 86.779a8.69 8.69 0 0 1-7.68-4.617c-2.248-4.235-.625-9.485 3.61-11.733l144.263-76.375c27.518-98.764-25.097-170.348-25.635-171.069-2.881-3.818-2.117-9.259 1.701-12.14a8.66 8.66 0 0 1 12.141 1.675c2.456 3.246 59.774 80.688 27.44 189.943a8.66 8.66 0 0 1-4.261 5.207l-147.525 78.102a8.7 8.7 0 0 1-4.054 1.007" style="fill:#232b35"/><path d="M394.839 503.323a8.56 8.56 0 0 1-3.94-.955c-4.27-2.178-5.962-7.411-3.784-11.681.425-.816 40.509-80.532 19.065-143.568H299.39c-4.799 0-8.678-3.888-8.678-8.678s3.879-8.678 8.678-8.678h112.814a8.68 8.68 0 0 1 8.044 5.424c28.82 71.203-15.768 159.683-17.677 163.415a8.69 8.69 0 0 1-7.732 4.721" style="fill:#232b35"/><path d="M325.433 512.001a8.62 8.62 0 0 1-6.352-2.768c-3.263-3.515-3.072-8.999.434-12.262.616-.573 59.375-56.32 34.66-115.903l-56.016-8.001c-4.738-.677-8.036-5.077-7.359-9.823.677-4.738 5.103-8.036 9.823-7.359l60.746 8.678a8.66 8.66 0 0 1 6.587 4.834c34.911 72.73-33.688 137.563-36.63 140.288a8.64 8.64 0 0 1-5.893 2.316" style="fill:#232b35"/><path d="M351.458 216.95c0 52.719-42.739 95.458-95.458 95.458s-95.458-42.739-95.458-95.458 42.739-95.458 95.458-95.458 95.458 42.739 95.458 95.458" style="fill:#464f5d"/><path d="M308.068 364.475c0 28.75-23.318 52.068-52.068 52.068s-52.068-23.318-52.068-52.068S227.25 312.407 256 312.407s52.068 23.318 52.068 52.068" style="fill:#313b49"/></svg>