<svg xmlns="http://www.w3.org/2000/svg" xml:space="preserve" width="52.52" height="53.6" viewBox="-0.5 -0.5 52.52 53.6"><path fill="#f7941e" d="M49 13.9c-.7-1.6-1.5-3.2-2.5-4.7-2-2.8-4.7-4.7-7.7-6.2C35.6 1.4 32.2.4 28.6.3L9.9 0C8.8 0 7.7.1 6.7.3c-.4 0-.8.2-1 .4C3.9 2.3 2.1 4 .3 5.7c-.1.1-.1.2-.1.4-.1.8-.2 1.7-.2 2.5 0 .2.2.5.4.5 1.2.1 2.5.2 3.7.1 1.3-.1 1.7.4 1.5 1.6-.1.7-.1 1.4-.1 2.1 0 1.1.2 2.2.2 3.3-.1 1.8-.4 3.5-.4 5.3-.1 4.6-.1 9.2-.1 13.8 0 3.1.1 6.2.2 9.3 0 1.1-.3 1.8-1.2 2.4C3 47.7 2 48.6.9 49.5c-.2.2-.4.5-.4.8 0 .5.1 1.1.2 1.6 0 .4.2.7.8.7l4.5-.3c2.9-.1 5.7-.2 8.6-.2 3.1 0 6.1.2 9.6.3 1.2-.3 2.8-.7 4.3-1.2 2-.8 4.1-1.7 6-2.8 2.7-1.7 5.2-3.5 7.7-5.5 2.7-2.1 5.1-4.5 6.5-7.7 1.2-2.7 2.3-5.4 2.5-8.4.1-1.2.4-2.3.3-3.5-.3-3.2-1.3-6.4-2.5-9.4m1.8 10.2c-.4 4.6-1.6 9-4 12.9-.7 1.1-1.7 2.1-2.7 3.1-1.6 1.5-3.1 3.1-4.9 4.3-1.4.9-3.2 1.4-4.9 2-2.5.8-5.1.3-7.6.3h-3.1c-3.7.1-7.5.1-11.2.2-1.5 0-2.9.2-4.4.3-.5 0-.7-.1-.8-.6s.3-.6.6-.7.7-.1 1-.2c1.4-.4 2-1.1 2-2.5 0-3.4 0-6.7.2-10.1.2-6.5.2-12.9-.3-19.4-.1-1.5 0-3 0-4.6 0-1.7 0-3.3-.1-5 0-1.1-.7-1.7-1.8-1.7H6.6C6.3 1 6.4 1 7.5.9 8.9.8 10.3.6 11.7.6q5.55 0 11.1.3c2.9.1 5.7.1 8.6.4 1.5.2 3 .7 4.5 1.2 3 .9 5.5 2.6 7.8 4.7 2.4 2.2 4 5 5 8 .9 2.5 1.7 5 2 7.7.1.4.1.8.1 1.2"/><path fill="#fff" d="M50.7 22.9c-.2-2.7-1.1-5.2-2-7.7-1.1-3-2.6-5.8-5-8-2.3-2-4.8-3.8-7.8-4.7-1.5-.4-3-1-4.5-1.2-2.9-.3-5.7-.3-8.6-.4L11.7.6c-1.4 0-2.8.2-4.2.3-1.1.1-1.2.1-1 1.4h2.2c1.2 0 1.8.6 1.8 1.7 0 1.7 0 3.3.1 5 0 1.5-.1 3.1 0 4.6.5 6.5.5 12.9.3 19.4-.1 3.4-.1 6.7-.2 10.1 0 1.3-.6 2.1-2 2.5-.3.1-.7.2-1 .2-.4.1-.7.1-.6.7.1.5.3.7.8.6 1.5-.1 2.9-.2 4.4-.3 3.7-.1 7.5-.1 11.2-.2h3.1c2.5 0 5.1.5 7.6-.3 1.7-.5 3.4-1 4.9-2 1.8-1.2 3.4-2.8 4.9-4.3 1-.9 2-1.9 2.7-3.1 2.4-4 3.6-8.3 4-12.9.1-.3.1-.7 0-1.1M43 9.8c.4.5.8.9 1.1 1.4 1.4 2.2 2.4 4.5 2.6 7.1.1.9.4 1.8.6 2.8 0 .2-.1.5-.2.8-.2-.2-.4-.4-.5-.7-.4-1.6-.6-3.2-1-4.8-.3-1.2-.8-2.3-1.3-3.4-.4-.9-1-1.9-1.5-2.8 0-.1-.1-.2-.1-.3.2 0 .3 0 .3-.1M13.5 4.3c.2.9.4 1.9.5 2.8.1 2.8.2 5.6.2 8.4 0 1.7-.2 3.4-.3 5 0 .5.1 1 0 1.5 0 .3-.2.5-.5.7-.7-3.1.2-6.2 0-9.2-.1-3.1-.2-6.1-.3-9.2.2.1.3 0 .4 0m.7 23.9c0 3.7-.1 7.3-.2 11 0 1.5-.2 2.9-.3 4.4 0 .1-.1.2-.1.3h-.2c0-.2-.1-.4-.1-.6 0-1.9.1-3.8.1-5.7 0-3.1.1-6.2.2-9.3 0-.4.2-1.1.2-1.1.7.1.4.7.4 1m-.6-2.3c-.3 0-.6-.4-1.1-.8.4-.5.6-.9.9-1 .5-.1.8.3.8.8.1.5 0 1.1-.6 1m24.3 15.5c-1.2 1.2-2.6 2-4.2 2.7-4.1 1.7-8.3 1.5-12.6 1.3-.9-.1-1.8-.1-2.7-.2-1.4-.3-1.9-.8-1.9-2.1.1-1.3 0-2.6 0-3.9h-.1v-3.1c.1-3.8.2-7.5.2-11.3 0-3.7 0-7.5-.1-11.2 0-2.7 0-5.3-.2-8-.1-2.1 1.2-3.2 3-3.2 3.5 0 7-.6 10.5.1 2.2.4 4.3 1.1 6 2.5.7.6 1.6 1 2.1 1.7 1 1.3 2 2.7 2.8 4.1 1 1.7 1.9 3.5 2.6 5.4 1 2.7 1.3 5.6 1.1 8.5-.2 1.7-.5 3.4-.7 5.1-.3 2.4-1.3 4.4-2.4 6.5-.7 1.8-1.9 3.6-3.4 5.1m5.7-4.1c-.2.2-.4.3-.7.4 2.2-3.5 3.8-7.2 4.2-11.3.1 0 .2 0 .3-.1.1.3.3.6.2.9-.5 3.7-1.6 7.1-4 10.1m4-12.6c-.2-.2-.5-.4-.9-.7.3-.4.5-.8.7-.8.5-.1.8.3.7.8.1.2-.3.5-.5.7"/><path fill="#f7941e" d="M43.6 16.2c-.7-1.9-1.6-3.7-2.6-5.4-.8-1.5-1.8-2.8-2.8-4.1-.5-.7-1.4-1.2-2.1-1.7-1.8-1.4-3.9-2.1-6-2.5-3.5-.7-7-.1-10.5-.1-1.8 0-3.1 1.1-3 3.2.1 2.7.1 5.3.2 8 0 3.7.1 7.5.1 11.2 0 3.8-.2 7.5-.2 11.3v3.1h.1v3.9c-.1 1.4.4 1.9 1.9 2.1.9.2 1.8.2 2.7.2 4.3.3 8.5.4 12.6-1.3 1.6-.6 3-1.4 4.2-2.7 1.5-1.5 2.7-3.3 3.7-5.2 1-2.1 2.1-4.1 2.4-6.5.2-1.7.6-3.4.7-5.1-.1-2.8-.3-5.7-1.4-8.4M40 24.9c-.1 2.7-.1 5.5-.6 8.1-.5 3-1.5 6-3.7 8.3-1.9 2.1-4.5 3.3-7.4 3.4s-5.8 0-8.8 0c-.4 0-.7-.1-1.1-.2-.7-.2-1.1-.6-1.1-1.4.1-6.4.2-12.8.2-19.2 0-4.8-.1-9.6-.2-14.5v-.7c3.1 0 6.1.1 9.1.1 2.3 0 4.3.5 6.2 1.9 1.6 1.2 3.3 2.3 4.3 4 1 1.8 2 3.8 2.7 5.8.4 1.4.4 3 .4 4.4M13.9 20.6c0 .5.1 1 0 1.5 0 .3-.2.5-.5.7-.7-3.1.2-6.2 0-9.2-.1-3.1-.2-6.1-.3-9.2h.3c.2.9.4 1.9.5 2.8.1 2.8.2 5.6.2 8.4.1 1.6-.1 3.3-.2 5M14.2 28.2c0 3.7-.1 7.3-.2 11 0 1.5-.2 2.9-.3 4.4 0 .1-.1.2-.1.3h-.2c0-.2-.1-.4-.1-.6 0-1.9.1-3.8.1-5.7 0-3.1.1-6.2.2-9.3 0-.4.2-1.1.2-1.1.7.1.4.7.4 1M47.3 21.1c0 .2-.1.5-.2.8-.2-.2-.4-.4-.5-.7-.4-1.6-.6-3.2-1-4.8-.3-1.2-.8-2.3-1.3-3.4-.4-.9-1-1.9-1.5-2.8 0-.1-.1-.2-.1-.3.2 0 .3 0 .3-.1.4.5.8.9 1.1 1.4 1.4 2.2 2.4 4.5 2.6 7.1.1 1 .5 1.9.6 2.8M47.7 27.2c-.6 3.7-1.7 7.1-4.1 10-.2.2-.4.3-.7.4 2.2-3.5 3.8-7.2 4.2-11.3.1 0 .2 0 .3-.1.1.4.3.8.3 1M14.3 24.9c0 .4-.1 1-.7.9-.3 0-.6-.4-1.1-.8.4-.5.6-.9.9-1 .6 0 .9.4.9.9M48.2 23.9c0 .3-.4.5-.6.8-.2-.2-.5-.4-.9-.7.3-.4.5-.8.7-.8.6-.1.9.3.8.7"/></svg>