<svg xmlns="http://www.w3.org/2000/svg" width="130.711" height="130.082" viewBox="-0.509 -0.482 130.711 130.082"><path fill="#a0783c" d="M115 81.8c-.3-1 1.4-2 3-2.1s3.1.8 3.3.8c.1.7-.8 2.2-.8 2.2s-.8-.6-1.8-.6c-1.6-.1-3.6.3-3.7-.3"/><path fill="#006482" d="M95.8 102.7c-.2 1.4-.5 2.4-.1 3.7.3.1 27.2-5 27.2-5l-1.2-3.3c0-.1-24.8 4.4-25.9 4.6"/><path fill="#008cb4" d="m115.6 94.4 2.9 13.3-4 .9-3.4-13.1z"/><path d="M109.1 73.3c-1.6.4-1 .8-.3 4.5 1.2 6.7 9.5 33.3 10.8 37.7 1.3 4.2 2.3 8.7 4.3 12.7.7.7 1.5 1 2.4.6 1.6-1.2.5-5-.7-8.3-.8-2.2-12.8-42.7-12.8-42.7s-.9-5.2-3.7-4.5M115.5 78.2c-.4.1-.3.2-.1 1.2.3 1.9 11.6 37 11.9 38.3.3 1.2.6 2.4 1.1 3.5.2.2.4.3.7.2.4-.3.2-2.2-.1-3.1-.2-.7-11.9-38.5-11.9-38.5s-.8-1.8-1.6-1.6"/><path fill="#006482" d="M62.7 90.3s1.5-13.1 2.4-14.8c1-1.7 39.8-1.6 39.8-1.6l3.1 15.2zM105.4 102.4c-.7 4.6-3 17.5-3 17.5l-.2 1c-.8-.1-1.5 0-1.5 0s-27.5.2-29 .1c-1.1-.1-2.2-.1-3.1 0-.1-.7-.2-1.2-.2-1.2s-2.3-12.9-3-17.5h-2.9c.2 1 .4 2.1.5 3.1.5 3 1.9 11.3 3 15.5.1.5.7 2.6 1.2 2.6 2.8.5 5.7.2 8.6.2 3 0 27.4-.3 27.4-.3s.8-.2 1.4-2.5c1.2-4.3 2.6-12.6 3-15.5.2-1 .3-2.1.5-3.1h-2.7z"/><path d="M99.1 129.1c-.7 0-1-1-1-2.2 0-1.1-.1-1.4.2-2.5q.3-.3.9-.3c.8.2.8 1.1.8 1.9 0 .1.3 3.1-.9 3.1"/><path fill="#008cb4" d="M97 125.5h4.1v-5.2H97z"/><path d="M71.9 129.1c-.7 0-1-1-1-2.2 0-1.1-.1-1.4.2-2.5q.3-.3.9-.3c.8.2.8 1.1.8 1.9 0 .1.4 3.1-.9 3.1"/><path fill="#008cb4" d="M69.8 125.5h4.1v-5.2h-4.1z"/><path fill="#006482" d="m68 102.4-2.4.5-2.9-12.6 2.4-.5zM58.9 118.7l-2.4-.5 3.7-17.2 2.4.5zM111.3 118.7l2.4-.5L110 101l-2.4.5zM105.5 102.9l-2.4-.4 2.2-12.7 2.4.4z"/><path fill="#006482" d="M74.2 102.7c.2 1.4.5 2.4.1 3.7-.3.1-27.2-5-27.2-5l1.2-3.3c0-.1 24.8 4.4 25.9 4.6"/><path fill="#008cb4" d="m54.4 94.4-3 13.3 4 .9 3.5-13.1z"/><path d="M60.9 73.3c1.6.4 1 .8.3 4.5-1.2 6.7-9.5 33.3-10.9 37.7-1.3 4.2-2.3 8.7-4.3 12.7-.7.7-1.5 1-2.4.6-1.6-1.2-.5-5 .7-8.3.8-2.1 12.8-42.6 12.8-42.6s1-5.3 3.8-4.6M54.5 78.2c.4.1.3.2.1 1.2-.3 1.9-11.6 37-11.9 38.3-.3 1.2-.6 2.4-1.1 3.5-.2.2-.4.3-.7.2-.4-.3-.2-2.2.1-3.1.2-.6 11.9-38.4 11.9-38.4s.8-1.9 1.6-1.7"/><path fill="#006482" d="M75.1 102.7v3.7h20.7v-3.8c-7.1 0-15 0-20.7.1"/><path fill="#008cb4" d="M108.1 87.2c-7.3-.4-41.9-.1-44.8.9-2.3-.2-3 1.1-2.1 3 .9.8 2.5 1.4 3.8 1.1 7.4-.2 32.8-.1 39.4-.3.8.3 4-.2 4.8-.7.1-1 .9-4.4-1.1-4M114.2 118.3c0 1.1-.3.8-2.7 1-4.4.5-42.6.4-45.6.4-2.9 0-5.8.2-8.7-.2-.6-.3-.9-.7-.8-1.4.5-1.2 3-1.3 5.3-1.2 1.4.1 49-.1 49-.1s3.4-.4 3.5 1.5"/><path fill="#a0783c" d="M92.9 27.6s.6-2 3-1c2.4 1.1.8 3.5.2 4.4-.7 1.1-2.1 1.5-3.5 1.9.2-2.1.3-5.3.3-5.3M78.9 32.8c-1.4-.4-2.8-.7-3.5-1.9-.6-.9-2.2-3.3.2-4.4s3 1 3 1 .1 3.2.3 5.3"/><path fill="#be965a" d="M93.4 26.6c-.4-3.3-1.4-6-1.4-6s-3.1-1.8-6.4-2c-2.4-.1-5.1 1.2-5.6 1.7-1.4 1.4-2.1 3.7-2.1 6.2.1.3.2 5.1.4 6.5.2 2 .6 3.6 1.7 5.2 2.4 3.5 5.7 4 9.6 3.2 1.2-1 2.4-1.8 3.2-3.3.7-1.3.9-9.1.6-11.5"/><path d="m87.7 21.8-5 3.5s7.2 2.4 9.3-4.6z"/><path d="m89.1 22.9 4.4 3.9s.6-3.4-1.5-6.2zM86.2 33.7c-1.1 0-1.7-.1-2.2 1.5 0 .8 1.1 1.6 2.1 1.5 1 0 2-.9 2-1.6 0-1.6-.9-1.4-1.9-1.4"/><path fill="#a0783c" d="M89.2 28.8c-.3-.8-.8-2.2-1.4-3-1.2.7-1.8 3-1.2 4.1.2.3.9 1.1 2.2.5.5-.1.6-1 .4-1.6"/><path d="M92.1 26.4c.2.7.3 1.2-.2 1.7-.8-.4-.5-1.1-.6-1.7zM84.9 28c-.6-.2-.6-.2-.8-.8.1-.2.2-.4.4-.6.2 0 .4.1.5.1.2.5.2.9-.1 1.3M92 20.6s.4.1-4.3 1.6-9.9 4.6-9.9 4.6c-.6-2.2-1-6.6 2.9-9.4.7-.5 4.3-1.7 7.2-.6 2.4.8 4.1 3.8 4.1 3.8"/><path fill="#be965a" d="M117.5 89.7c-.5-.6.3-.4.4-1.3.2-.9-1.5-.5-1.7-1.3s1-.2.5-1.3c-.4-1.1-1-.2-1-1.5s2.5-2.8 2.8-3.7c1.3-4.2 1.9-8.6-.2-12.7-4.3-8.3-13.2-12.1-21.9-14.2-1.1-2.9-1.4-6.2-2.3-9.3 2.2-1 6 .3 8.2.9 2.7.8 5.4 2 8 3.3 4.8 2.5 9.8 5.7 12.9 10.2 3.2 4.7 6.6 10.3 6.5 16.1-.1 3.8-.6 8.4-2.7 11.9-.1.2-1.9 2.2-3.3 2.9-2.1.9-5.7.6-6.2 0M71.5 42.1c-3.3-1.3-6.8-3.3-8.1-4-7.8-4.2-14.2-8.5-23.1-13.8-3.9-2.2-18.7-12.2-18.7-12.2l-5.8 8.5s12.3 4.8 15.3 7.2c3 2.5 16.7 13.7 25.9 18.5 11.5 6 18.3 8.1 18.9 8.3.9-4 2.1-10.6 2.1-10.6s-3.1-.6-6.5-1.9"/><path fill="#f01446" d="M45.4 25.5c-1.7 3.8-3.3 7.6-5.3 11.2-4.1.4-8.2-3.8-10.9-6.3 1-3.4 4.5-8.4 7.2-10.7 2.4-.3 8.8 5.4 9 5.8"/><path fill="#e6781e" d="M1.6 21.25c3.6 7 12.3 9.8 19.3 6.2s9.8-12.4 6.1-19.4c-1.4-2.7-3.5-4.8-6-6.1-3.6-2.4-7.7-2.4-11.4-.9-.6.2-1.2.5-1.8.8-3 1.5-5.2 4-6.5 6.8-.1.3-.3.6-.4.9-.2.5-1 2.1-.9 4.8 0 2.3.5 4.7 1.6 6.9"/><path fill="#ff963c" d="M10.2 17.1s3.2 5.4 1.7 11.7c2.9.5 6 .1 8.9-1.4l-6.4-12.6zM18.7 12.8l8.5-4.4c-.1-.1-.1-.3-.2-.4-1.4-2.7-3.5-4.8-6-6.1-1.2-.8-2.4-1.3-3.6-1.6-2.4 6.2 1.3 12.5 1.3 12.5"/><path fill="#824600" d="M20.5 27.6c.1-.1.2-.1.4-.2-3.8-7.5-8.5-16.9-13.1-25.5-.2 0-.3.1-.4.2 4.6 8.6 9.3 18 13.1 25.5"/><path fill="#824600" d="M27.3 8.5c-.1-.1-.1-.3-.2-.4L1.7 21.3c.1.1.1.3.2.4z"/><path fill="#824600" d="M11.9 22.3c.5 2.3.4 4.5-.2 6.4.1 0 .3.1.4.1.6-2 .7-4.2.2-6.6-1.2-5.5-5.3-11.6-11-13.5-.1.2-.1.3-.2.4 4.4 1.5 9.2 6.2 10.8 13.2M16.9 8.2c.7 3.2 2.2 6.5 4.3 9 1.6 1.9 3.7 3.5 5.7 4.3.1-.1.1-.3.2-.4-2-.8-4.1-2.3-5.6-4.2-4.6-5.7-5.4-12.2-3.8-16.5-.1 0-.3-.1-.4-.1-.9 2.3-1 5-.4 7.9"/><path fill="#be965a" d="M93.6 44.8c-1.1-.3-16-.8-16.4-.6-.3.8-1.2 11.4-1.2 11.4l17.7-1.9c-.1.1 0-6.7-.1-8.9"/><path fill="#f01446" d="M99.6 62.4c-.2-1-1.6-7.8-2.8-12.9-.7-3-1.6-5.5-1.6-5.5s-2.8-.2-3.5-.1c0 .4-.3 2.7-1.3 4.1-1.3 1.8-3.4 2.7-4.8 2.7-2.5.1-4.4-1.1-5.2-2.5-1.2-2.1-1.1-4.8-1.1-4.8s-1.9-.1-2.2 0c-2.7.9-5.8 13.7-6.2 16-.7 4.2-1.4 8.4-1.9 12.7-.2 1.4-1.6 6.6-.6 7.9l34-.3c.2-.9-2.7-16.4-2.8-17.3"/><path fill="#780046" d="M100.8 76.9c-1.8-.4-29 .6-33.4.2l3.8 11.7c1.9.5 24.8.2 29-.7.1-1.3.6-10.6.6-11.2"/><path d="M67.4 81.7h34.4v-4.8H67.4z"/><path fill="#64645a" d="M81.4 82.2h7.7v-6h-7.7z"/><path fill="#be965a" d="M104.4 78.9c-.1 6.6-2.1 12.8-2.1 12.8l-12.3.2s.8-19.3 3.9-22.3c.9-.8 3-3.6 7.3-1.7 4.2 1.8 3.2 8.1 3.2 11"/><path fill="#f0e6d2" d="M89.4 87.3c-.3 3.7-.4 10.3-.4 11.6 2.1.6 10.1-.4 12-.8.8-1.2 2.2-7.1 2.9-10.8z"/><path fill="#f01446" d="m86.2 115.6-.2 1.5 15.7-.1.2-1.2-9.1-1.8z"/><path d="M102.8 95.3s-3.7 0-7.4.1c-3.6 0-7.2.1-7.5.1-.2 3.1-1.7 20.2-1.7 20.2s14.5.1 15.7.1c.1-.2.1-.4.1-.5-.9-1-3-.5-4.2-1 .7-1.9 3.9-13.6 5-19"/><path fill="#f01446" d="M96.1 100.5c0 2.1-1.7 3.9-3.8 3.9s-3.8-1.7-3.8-3.9 1.7-3.9 3.8-3.9 3.8 1.8 3.8 3.9"/><path fill="#780046" d="M94.1 100.5c0 1-.8 1.8-1.8 1.8s-1.8-.8-1.8-1.8.8-1.8 1.8-1.8c.9 0 1.8.8 1.8 1.8M101.6 97.1c0 .4-.3.8-.8.8s-.8-.4-.8-.8.3-.8.8-.8.8.4.8.8M100.7 100.1c0 .4-.3.8-.8.8s-.8-.3-.8-.8c0-.4.3-.8.8-.8s.8.4.8.8M100 103.3c0 .4-.3.8-.8.8-.4 0-.8-.3-.8-.8 0-.4.3-.8.8-.8s.8.3.8.8M99.3 105.9c0 .4-.3.8-.8.8s-.8-.3-.8-.8.3-.8.8-.8.8.4.8.8M98.6 108.6c0 .4-.3.8-.8.8s-.8-.3-.8-.8.3-.8.8-.8.8.4.8.8M97.8 111.5c0 .4-.3.8-.8.8s-.8-.3-.8-.8.3-.8.8-.8.8.4.8.8"/><path fill="#be965a" d="M79.8 89.5c-1.1.1-11-.2-11.3-.2-.4-2.5-2.6-9.7-2.5-14.4.1-2.8.9-5.7 2.5-7.2 1-.9 2.3-1.4 4-1.1 4.4.7 5.8 7.2 6.3 10.9.6 3.4.5 8.5 1 12"/><path fill="#f0e6d2" d="M67.3 87.3c.4 2.9 1.2 7.8 1.4 9.9 3.1 1 9.3.7 12.4 0 .4-1.1-.5-7.2-.9-9.9z"/><path fill="#f01446" d="m83.9 115.6.2 1.5-15.6-.1-.3-1.2 9.1-1.8z"/><path d="M67.4 95.3s3.7 0 7.4.1c3.6 0 7.2.1 7.5.1.2 3.1 1.7 20.2 1.7 20.2s-14.5.1-15.7.1c-.1-.2-.1-.4-.1-.5.9-1 3-.5 4.2-1-.7-1.9-3.8-13-5-19"/><path fill="#f01446" d="M74.1 100.5c0 2.1 1.7 3.9 3.8 3.9s3.8-1.7 3.8-3.9-1.7-3.9-3.8-3.9-3.8 1.8-3.8 3.9"/><path fill="#780046" d="M76.1 100.5c0 1 .8 1.8 1.8 1.8s1.8-.8 1.8-1.8-.8-1.8-1.8-1.8-1.8.8-1.8 1.8M68.6 97.1c0 .4.3.8.8.8s.8-.3.8-.8-.3-.8-.8-.8-.8.4-.8.8M69.4 100.1c0 .4.3.8.8.8s.8-.3.8-.8c0-.4-.3-.8-.8-.8s-.8.4-.8.8M70.1 103.3c0 .4.3.8.8.8s.8-.3.8-.8c0-.4-.3-.8-.8-.8s-.8.3-.8.8M70.9 105.9c0 .4.3.8.8.8s.8-.3.8-.8-.3-.8-.8-.8-.8.4-.8.8M71.6 108.6c0 .4.3.8.8.8s.8-.3.8-.8-.3-.8-.8-.8-.8.4-.8.8M72.3 111.5c0 .4.3.8.8.8s.8-.3.8-.8-.3-.8-.8-.8-.8.4-.8.8"/><path fill="#a0783c" d="M28.9 18.2c.2.6-1.2 1.5-.5 3.4.8 1.8 4.6 1.1 4.8-.5.3-2.6-5.1-7.8-6.7-7.3-1.4.4 1.5 1.3 2.4 4.4"/></svg>