<svg xmlns="http://www.w3.org/2000/svg" width="92.155" height="251.815" viewBox="0 0 92.155 251.815"><g stroke-miterlimit="10" data-paper-data="{&quot;isPaintingLayer&quot;:true}" style="mix-blend-mode:normal"><g fill="#0a0602" data-paper-data="{&quot;origPos&quot;:null}"><path d="M19.603 25.115c0-12 12.1-22.6 25.2-22.6s23.5 12.1 23.5 24.1-10.4 22.4-23.5 22.4c-13.2 0-25.2-11.9-25.2-23.9" data-paper-data="{&quot;origPos&quot;:null}"/><g data-paper-data="{&quot;origPos&quot;:null}"><path d="M50.503 46.615c.6-1.4 2.2-2.1 3.7-1.5 1.4.6 2.1 2.2 1.5 3.7-.6 1.4-2.2 2.1-3.7 1.5-1.4-.6-2.1-2.2-1.5-3.7" data-paper-data="{&quot;origPos&quot;:null}"/><path d="M53.803 46.215c.7-1.6 2.5-2.4 4.2-1.7 1.6.7 2.4 2.5 1.7 4.2-.7 1.6-2.5 2.4-4.2 1.7-1.6-.7-2.4-2.6-1.7-4.2" data-paper-data="{&quot;origPos&quot;:null}"/><path d="M56.403 44.115c.7-1.7 2.7-2.6 4.4-1.8 1.7.7 2.6 2.7 1.8 4.4s-2.7 2.6-4.4 1.8c-1.7-.7-2.5-2.7-1.8-4.4" data-paper-data="{&quot;origPos&quot;:null}"/><path d="M59.303 39.815c.9-2.2 3.5-3.3 5.7-2.4s3.3 3.5 2.4 5.7-3.5 3.3-5.7 2.4c-2.3-.9-3.4-3.4-2.4-5.7" data-paper-data="{&quot;origPos&quot;:null}"/><path d="M60.603 35.615c1-2.5 3.8-3.7 6.3-2.6s3.7 3.8 2.6 6.3c-1 2.5-3.8 3.7-6.3 2.6-2.4-1-3.6-3.9-2.6-6.3" data-paper-data="{&quot;origPos&quot;:null}"/><path d="M64.503 32.215c0-1.9 1.5-3.4 3.4-3.4s3.4 1.5 3.4 3.4-1.5 3.4-3.4 3.4-3.4-1.5-3.4-3.4" data-paper-data="{&quot;origPos&quot;:null}"/><path d="M64.103 26.515c0-2.4 2-4.4 4.4-4.4s4.4 2 4.4 4.4-2 4.4-4.4 4.4-4.4-2-4.4-4.4" data-paper-data="{&quot;origPos&quot;:null}"/><path d="M63.803 22.015c0-2.7 2.2-4.8 4.8-4.8 2.7 0 4.8 2.2 4.8 4.8s-2.2 4.8-4.8 4.8c-2.7 0-4.8-2.1-4.8-4.8" data-paper-data="{&quot;origPos&quot;:null}"/><path d="M63.103 16.115c0-2.5 2-4.5 4.5-4.5s4.5 2 4.5 4.5-2 4.5-4.5 4.5-4.5-2-4.5-4.5" data-paper-data="{&quot;origPos&quot;:null}"/><path d="M60.503 11.315c0-2.4 2-4.4 4.4-4.4s4.4 2 4.4 4.4-2 4.4-4.4 4.4-4.4-1.9-4.4-4.4" data-paper-data="{&quot;origPos&quot;:null}"/></g><g data-paper-data="{&quot;origPos&quot;:null}"><path d="M30.103 45.315c0-2.1 1.7-3.8 3.8-3.8s3.8 1.7 3.8 3.8-1.7 3.8-3.8 3.8-3.8-1.6-3.8-3.8" data-paper-data="{&quot;origPos&quot;:null}"/><path d="M24.803 41.115c0-2.3 1.9-4.2 4.2-4.2s4.2 1.9 4.2 4.2-1.9 4.2-4.2 4.2-4.2-1.8-4.2-4.2" data-paper-data="{&quot;origPos&quot;:null}"/><path d="M19.603 37.215c.5-2.1 2.6-3.3 4.7-2.8s3.3 2.6 2.8 4.7-2.6 3.3-4.7 2.8-3.3-2.6-2.8-4.7" data-paper-data="{&quot;origPos&quot;:null}"/><path d="M15.503 31.915c.6-2.2 2.8-3.6 5.1-3 2.2.6 3.6 2.8 3 5.1s-2.8 3.6-5.1 3-3.6-2.9-3-5.1" data-paper-data="{&quot;origPos&quot;:null}"/><path d="M13.903 29.915c.5-1.9 2.4-3.1 4.3-2.6s3.1 2.4 2.6 4.3-2.4 3.1-4.3 2.6-3.1-2.4-2.6-4.3" data-paper-data="{&quot;origPos&quot;:null}"/><path d="M12.903 25.215c.6-2.3 2.9-3.7 5.2-3.1s3.7 2.9 3.1 5.2-2.9 3.7-5.2 3.1c-2.2-.6-3.6-2.9-3.1-5.2" data-paper-data="{&quot;origPos&quot;:null}"/><path d="M14.103 18.915c.6-2.3 3-3.8 5.3-3.2s3.8 3 3.2 5.3-3 3.8-5.3 3.2c-2.4-.6-3.8-3-3.2-5.3" data-paper-data="{&quot;origPos&quot;:null}"/><path d="M17.503 13.515c.5-1.9 2.4-3.1 4.3-2.6s3.1 2.4 2.6 4.3-2.4 3.1-4.3 2.6-3.1-2.4-2.6-4.3" data-paper-data="{&quot;origPos&quot;:null}"/><path d="M20.203 9.315c.4-1.8 2.2-2.8 4-2.4s2.8 2.2 2.4 4-2.2 2.8-4 2.4-2.8-2.2-2.4-4" data-paper-data="{&quot;origPos&quot;:null}"/><path d="M23.903 7.315c.5-2 2.5-3.1 4.4-2.7 2 .5 3.1 2.5 2.7 4.4s-2.5 3.1-4.4 2.7c-2-.5-3.2-2.5-2.7-4.4" data-paper-data="{&quot;origPos&quot;:null}"/></g></g><g data-paper-data="{&quot;origPos&quot;:null}"><path fill="#ebebeb" d="m54.703 251.815.9-9.7 14.8.6 9.4 2.3 7.4 6.8z" data-paper-data="{&quot;origPos&quot;:null}"/><path fill="#5b7f88" d="m55.403 243.515-3.7-50.4-7.9-62h30l.7 62.3v50.1z" data-paper-data="{&quot;origPos&quot;:null}"/></g><g data-paper-data="{&quot;origPos&quot;:null}"><path fill="#ebebeb" d="m16.803 251.815.9-9.7 14.8.6 9.4 2.3 7.4 6.8z" data-paper-data="{&quot;origPos&quot;:null}"/><path fill="#5b7f88" d="m18.303 243.515.5-52.3.7-60.1h29l-8 61.8-4.7 50.6z" data-paper-data="{&quot;origPos&quot;:null}"/></g><g data-paper-data="{&quot;origPos&quot;:null}"><path fill="#774d16" d="M80.103 110.015c-3.2.4-8.6-1.3-8.6-1.3s-8.1-46.9-1.1-48.6c12.6-3.4 14.9 46.6 14.9 46.6s-2.1 2.9-5.2 3.3" data-paper-data="{&quot;origPos&quot;:null}"/><path fill="#a26e20" d="M65.603 91.715s-9-32.9 2.5-35.1c10.1-2 21.6 29 21.6 29z" data-paper-data="{&quot;origPos&quot;:null}"/></g><g fill="#774d16" data-paper-data="{&quot;origPos&quot;:null}"><path d="m88.503 134.015-8.2 2.4-8.8-27.1s3.1-4.2 6.7-3.9c2.7.2 7.3 1 7.3 1z" data-paper-data="{&quot;origPos&quot;:null}"/><path d="M85.019 156.588c-1.884.27-1.113-8.75-2.878-8.912-1.353-.14.26 5.453-.175 6.354-.532.92-3.273-.578-3.273-.578s-2.535-5.106-2.96-7.775c-1.061-5.906 4.604-11.812 4.604-11.812l7.276-.313s4.395 6.268 4.54 10.622c.087 4.06-3.008 9.562-3.008 9.562s-2.302 2.798-4.126 2.852" data-paper-data="{&quot;origPos&quot;:null,&quot;index&quot;:null,&quot;origRot&quot;:0}"/></g><path fill="#ba8026" d="m17.503 136.415-.2-76.3s15.2-7.9 28.2-8.1 23.933 4.011 26.333 5.311c2.3 1.2 3.067 81.29 3.067 81.29s-17.1 2.8-28.7 2.7c-11.8-.2-28.7-4.9-28.7-4.9" data-paper-data="{&quot;origPos&quot;:null}"/><path fill="#774d16" d="M6.703 112.515c-2.5-.2-6.3-2.2-6.3-2.2s5.6-50.6 19.9-50.3c11.2-.3-7.2 51.3-7.2 51.3s-3.9 1.4-6.4 1.2" data-paper-data="{&quot;origPos&quot;:null}"/><path fill="#a26e20" d="M.603 86.615s12.5-28.3 19.5-27.5c16.6 1.8 2.8 36.2 2.8 36.2z" data-paper-data="{&quot;origPos&quot;:null}"/><g fill="#774d16" data-paper-data="{&quot;origPos&quot;:null}"><path d="m2.403 137.215-2.1-27.7s4-1.2 6.3-1.6c3.2-.6 6.7 3.3 6.7 3.3l-3.2 27.7z" data-paper-data="{&quot;origPos&quot;:null}"/><path d="M4.903 156.315s-4.1-4.8-4.8-8.8c-.7-4.3 2.4-11.3 2.4-11.3l7.2-1.1s6.7 4.7 6.8 10.7c.1 2.7-1.4 8.2-1.4 8.2s-2.4 2-3.1 1.2c-.6-.8-.1-6.6-1.4-6.2-1.7.5.8 9.2-1.1 9.3-1.8.3-4.6-2-4.6-2" data-paper-data="{&quot;origPos&quot;:null}"/></g><g fill="#774d16"><path d="m37.603 42.215 15.2 3.4-.1 9.1s4.9.9 4.8 3.7c-.1 4.5-18.9 6.9-22.8 0-1.5-3.4 2-4.6 2-4.6zM33.003 31.115c.8 2.4.3 4.7-1 5.1-1.4.5-3.2-1-4-3.4s-.3-4.7 1-5.1c1.4-.4 3.2 1.1 4 3.4" data-paper-data="{&quot;origPos&quot;:null}"/><path d="M64.503 28.915c0 12.8-7.9 19.6-14.7 19.9-11.8.2-19.4-9.5-19.4-22.3s2.2-22.4 17.2-23.1c11.4-.6 18.898 11.5 16.898 25.2z" data-paper-data="{&quot;origPos&quot;:null}"/></g><path d="M52.903 41.715c0 .7-2 2.2-3.7 2.2s-3.5-1.9-3.5-2.7 2.2 0 4 0 3.2-.3 3.2.5" data-paper-data="{&quot;origPos&quot;:null}"/><path fill="none" stroke="#000" stroke-linecap="round" stroke-width="1.46" d="M50.203 30.415s2.3 1.9 2.2 3.5c0 .7-2.5 2.1-2.5 2.1" data-paper-data="{&quot;origPos&quot;:null}"/><g data-paper-data="{&quot;origPos&quot;:null}"><path fill="none" stroke="#000" stroke-linecap="round" stroke-width="1.46" d="M54.203 22.315s2.3-.8 4-.8c1.5.1 3.2.5 3.2.5M54.203 26.515s.5-1.3 2.9-1.5c2.3-.2 4.5.7 4.5.7" data-paper-data="{&quot;origPos&quot;:null}"/><path d="M59.103 29.415c-1.2 0-2.1-1-2.1-2.2s.9-2.2 2.1-2.2 2.1 1 2.1 2.2c.1 1.2-.9 2.2-2.1 2.2" data-paper-data="{&quot;origPos&quot;:null}"/></g><g data-paper-data="{&quot;origPos&quot;:null}"><path fill="none" stroke="#000" stroke-linecap="round" stroke-width="1.46" d="M38.803 22.415s2.9-.8 4.4-.8c1.7-.1 3.7.8 3.7.8M38.703 26.715s2.2-1.9 4.5-1.7c2.5.2 2.9 1.5 2.9 1.5" data-paper-data="{&quot;origPos&quot;:null}"/><path d="M42.003 27.515c0-1.2.9-2.2 2.1-2.2s2.1 1 2.1 2.2-.9 2.2-2.1 2.2c-1.1 0-2.1-1-2.1-2.2" data-paper-data="{&quot;origPos&quot;:null}"/></g><g fill="#0a0602"><path d="M24.103 21.815c0-2.3 1.8-4.1 4.1-4.1s4.1 1.8 4.1 4.1-1.8 4.1-4.1 4.1-4.1-1.8-4.1-4.1" data-paper-data="{&quot;origPos&quot;:null}"/><path d="M24.783 14.09c0-2.608 2.087-4.825 4.695-4.825s4.825 2.087 4.825 4.825-2.087 4.825-4.825 4.825c-2.608 0-4.695-2.217-4.695-4.825" data-paper-data="{&quot;origPos&quot;:null}"/><path d="M27.594 9.4c.879-3.34 4.217-5.272 7.38-4.394s5.271 4.217 4.393 7.38c-.879 3.339-4.217 5.271-7.38 4.393-3.339-.703-5.271-4.041-4.393-7.38" data-paper-data="{&quot;origPos&quot;:null}"/><path d="M31.403 4.715c.5-2 2.5-3.2 4.5-2.7s3.2 2.5 2.7 4.5-2.5 3.2-4.5 2.7c-2-.4-3.2-2.5-2.7-4.5" data-paper-data="{&quot;origPos&quot;:null}"/><path d="M38.903 10.015c-2.1.2-4-1.4-4.2-3.5s1.4-4 3.5-4.2 4 1.4 4.2 3.5-1.4 4-3.5 4.2" data-paper-data="{&quot;origPos&quot;:null}"/><path d="M44.403 8.915c-2.5.2-4.6-1.6-4.9-4-.2-2.5 1.6-4.6 4-4.9 2.5-.2 4.6 1.6 4.9 4 .2 2.4-1.6 4.6-4 4.9M61.577 15.518a2.75 2.75 0 1 1 5.5 0 2.75 2.75 0 0 1-5.5 0" data-paper-data="{&quot;origPos&quot;:null}"/><path d="M56.803 10.415c0-2.6 2.1-4.7 4.7-4.7s4.7 2.1 4.7 4.7-2.1 4.7-4.7 4.7-4.7-2.1-4.7-4.7" data-paper-data="{&quot;origPos&quot;:null}"/><path d="M59.303 8.415c-1.7.2-3.1-1.1-3.3-2.7-.2-1.7 1.1-3.1 2.7-3.3 1.7-.2 3.1 1.1 3.3 2.7.2 1.7-1.1 3.1-2.7 3.3" data-paper-data="{&quot;origPos&quot;:null}"/><path d="M57.803 12.515c-1.8.2-3.4-1.2-3.6-3s1.2-3.4 3-3.6 3.4 1.2 3.6 3c.1 1.8-1.2 3.4-3 3.6" data-paper-data="{&quot;origPos&quot;:null}"/><path d="M54.603 10.615c-2.5.2-4.6-1.6-4.9-4-.2-2.5 1.6-4.6 4-4.9 2.5-.2 4.6 1.6 4.9 4 .3 2.5-1.5 4.7-4 4.9" data-paper-data="{&quot;origPos&quot;:null}"/><path d="M45.103 5.115c0-2.2 1.8-3.9 3.9-3.9 2.2 0 3.9 1.8 3.9 3.9s-1.8 3.9-3.9 3.9-3.9-1.7-3.9-3.9M26.203 33.015c0-1.9 1.6-3.5 3.5-3.5s3.5 1.6 3.5 3.5-1.6 3.5-3.5 3.5-3.5-1.6-3.5-3.5" data-paper-data="{&quot;origPos&quot;:null}"/><path d="M25.403 27.415c0-2.3 1.8-4.1 4.1-4.1s4.1 1.8 4.1 4.1-1.8 4.1-4.1 4.1-4.1-1.8-4.1-4.1" data-paper-data="{&quot;origPos&quot;:null}"/><path d="M29.203 20.915c0-2.4 1.9-4.3 4.3-4.3s4.3 1.9 4.3 4.3-1.9 4.3-4.3 4.3c-2.4-.1-4.3-2-4.3-4.3" data-paper-data="{&quot;origPos&quot;:null}"/><path d="M33.503 14.915c0-2.4 2-4.4 4.4-4.4s4.4 2 4.4 4.4-2 4.4-4.4 4.4-4.4-2-4.4-4.4" data-paper-data="{&quot;origPos&quot;:null}"/><path d="M38.503 7.815c0-2.5 2-4.5 4.5-4.5s4.5 2 4.5 4.5-2 4.5-4.5 4.5-4.5-2-4.5-4.5" data-paper-data="{&quot;origPos&quot;:null}"/></g></g></svg>