<svg xmlns="http://www.w3.org/2000/svg" width="95.387" height="266.954" viewBox="0 0 95.387 266.954"><g fill="none" fill-rule="evenodd" stroke-linecap="none" stroke-linejoin="none" stroke-miterlimit="10" stroke-width="none" data-paper-data="{&quot;isPaintingLayer&quot;:true}" font-family="none" font-size="none" font-weight="none" style="mix-blend-mode:normal" text-anchor="none"><g stroke-linecap="butt" stroke-linejoin="miter" stroke-width="1"><path fill="#63493e" d="M31.832 80.307C30.72 80.29 10.8 60.497 10.8 56.837c0-3.294 6.04-5.693 13.2-8.283l2.12-12.023h12.8l1.368 11.656c8.656 3.517 13.112 3.645 13.112 7.242 0 3.973-20.224 24.894-21.568 24.878"/><path fill="#49352c" d="m24 48.554 2.12-12.015h12.8l.872 7.41c-5.944-.655-12.296 1.6-15.792 4.605"/></g><path fill="#36445e" d="M33.384 137.736c-.584 13.39-.824 29.721-1.384 43.103-.736.608-1.72 7.802-10.032 7.579-7.712-.272-7.104-7.539-7.904-8.338-.376-8.618-1.648-30.034-1.776-34.654.12-10.065 5.544-17.635 12.056-17.539 4.456 0 7.136 4.628 9.04 9.849M41.12 129.798c6.216-1.966 13.536-.367 16.528 9.225 1.2 4.461 6.56 28.307 8.12 37.9.296 1.735 2.12 7.786-5.192 10.24-7.888 2.654-10.928-3.997-11.728-4.372-4.368-12.67-9.16-28.275-13.52-40.946.288-5.54 1.52-10.712 5.792-12.047" data-paper-data="{&quot;origPos&quot;:null}"/><path fill="#36445e" d="M57.408 144.323c-.08 4.532-18.808-3.957-23.288-3.997-4.68-.04-17.192 6.914-21.832 5.068 0-7.035 1.856-24.462 6.912-31.88h35c1.224 4.06 3.4 22.303 3.208 30.809"/><g stroke-linecap="butt" stroke-linejoin="miter" stroke-width="1"><path fill="#705347" d="M48.088 56.14a8.44 8.44 0 0 1 10.216 3.718L76 98.309c1.464 2.878 1.072 6.275-1.752 7.834 0 0-5.136 2.335-7.92-1.998L47.2 66.533c-2.4-3.717-2.032-9.425.888-10.392"/><path fill="#6373ba" d="M52.36 51.392c5.528 1.6 12.616 16.788 14.4 21.248L55.328 86.846c-6.288-10.24-17.92-38.851-2.968-35.454"/><path fill="#e4b34e" d="m52.8 84.192 13.816-14.533 1.712 3.445-13.2 14.205z"/></g><g stroke-linecap="butt" stroke-linejoin="miter" stroke-width="1"><path fill="#7390e1" d="M58.232 164.66a39 39 0 0 1-5.032 1.358c-2.762.568-5.58.817-8.4.744a30.3 30.3 0 0 1-7.048-1.12 29 29 0 0 1-2.88-.799 40 40 0 0 0-7.88-1.599c-.744-.055-1.56-.151-2.464-.151-2.128-.056-1.6.04-4.528.471a62 62 0 0 0-7.976 1.423c-1.344-19.593-2.648-31.208 3.456-51.098 2.976-9.68-.352-18.634-2.096-30.465l-4-30.177 14.744-5.252C25.432 62.2 33.432 73.91 33.432 73.91a119 119 0 0 0 6.808-26.156c0-.04 12.12 3.637 12.12 3.637s1.96 25.253.584 37.244a147 147 0 0 0 3.448 28.355c3.456 16.236 4.992 29.874 7.032 44.815-.336.151-4.744 2.702-5.192 2.853"/><path fill="#6882cc" d="M63.368 161.806c-.328.151-4.736 2.702-5.184 2.845-1.4.488-7.08-51.8-7.08-51.8C48.312 96.893 49.6 86.07 49.6 86.07c1.384-4.022 2.736-34.639 2.736-34.639 2.472 4.933 2.848 8.65.8 36.909a150 150 0 0 0 3.2 28.354c1.264 6.06 5.672 32.344 7.032 45.11"/><path fill="#e4b34e" d="m40.24 47.755 2.728.8c-1.264 4.084-4.392 20.424-9.512 29.473-3.856-6.02-9.344-18.09-11.552-29.234.192-.104 2.208-.8 2.208-.8C25.68 55.942 31 68.333 33.352 73.4c4.984-12.39 5.768-21.248 6.888-25.645"/></g><g stroke-linecap="butt" stroke-linejoin="miter" stroke-width="1" data-paper-data="{&quot;origPos&quot;:null}"><path fill="#553c2e" d="m49.736 25.18-1.6 2.646c-.928 1.543-2.688 2.206-3.92 1.47-.52-.399-.6-1.334-.08-3.125l1.072-3.661a2.79 2.79 0 0 1 3.92-1.471c1.272.735 1.496 2.598.608 4.14"/><path fill="#f17d70" d="m46.189 31.485-1.075-.106.366-3.676 1.075.107z"/></g><g stroke-linecap="butt" stroke-linejoin="miter" stroke-width="1" data-paper-data="{&quot;origPos&quot;:null}"><path fill="#553c2e" d="M16.264 21.039a2.794 2.794 0 0 1 3.92 1.47l1.072 3.662c.52 1.79.44 2.726-.08 3.126-1.232.735-3 .072-3.92-1.471l-1.6-2.646c-.888-1.543-.632-3.406.608-4.141"/><path fill="#f17d70" d="m18.483 27.818 1.075-.107.365 3.676-1.074.106z"/></g><path fill="#705347" d="M33.848 43.294h-3.776c-2.944 0-9.208-9.417-9.272-11.335l-3.128-14.877c0-6.93 7.768-12.599 14.704-12.599h.424c6.936 0 14.704 5.668 14.704 12.599l-3.456 15.093c-.104 2.086-6.768 11.12-10.2 11.12"/><path stroke="#453226" stroke-linecap="round" stroke-linejoin="round" stroke-width=".776" d="m34.136 31.56-1.12.55a2.09 2.09 0 0 1-1.824 0l-1.12-.55"/><path fill="#412d20" d="m47.496 17.082-1.144 5.004h-1.496s-.4-11.615-12.272-11.391c-12.848.32-12.256 11.391-12.256 11.391h-1.6l-1.048-5.004c0-6.93 7.768-12.599 14.704-12.599h.416c6.928 0 14.696 5.668 14.696 12.599"/><g stroke-linecap="butt" stroke-linejoin="miter" stroke-width="1"><path fill="#412d20" d="M26.088 1.582s3.408-3.925 8.8.591c0 0 3.4.12 3.408 2.326 0 0 4-1.598 4.208 1.04 0 0 3.472 1.383 0 5.531 0 0 3.336 1.144 1.544 3.454 0 0-.856 3.325-2.936 3.621 0 0-3.552 1.175-4.728-2.054 0 0-2.52.671-2.288-1.6 0 0-2.992.105-3.064-2.094 0 0 0-1.75-3.576-.863 0 0-3.392.256-3.096-2.302 0 0-.152-1.815 1.464-1.815 0 0-1.792-.591-1.48-2.198s1.704-.752 1.704-.752-1.136-1.686.04-2.885"/><path fill="#281309" d="M43.936 6.962a3.8 3.8 0 0 1-.712 3.717c-1.176 1.223-3.768.583-3.768.583 4.176.24 4.68-3.43 4.48-4.3M24.32 5.475c.744 2.438 3.144 1.223 3.144 1.223a2.06 2.06 0 0 1-1.6.735 1.96 1.96 0 0 1-1.544-1.958"/><path fill="#341f17" d="M25.664 3.068q.107.323.28.616a2 2 0 0 0-.216-.104 3.3 3.3 0 0 1-.064-.512"/><path fill="#281309" d="M34.056 14.508c-.456 0-2.92-.104-2.984-2.095a.5.5 0 0 0 0-.127C31.664 13.788 34 13.708 34 13.708c-.037.268-.018.54.056.8M31.072 12.278c-.272-.512-1-1.168-3.472-.368 0 0-2.88.76-3.088-2.207.256 2.375 2.984 1.84 2.984 1.84 3.736-1.168 3.536.43 3.536.43.008.12.024.217.04.305M41.344 18.569s-3.904 1.43-5.504-2.27a1.4 1.4 0 0 1-1.712-1.6c.512 1.008 2.16.576 2.16.576 1.168 3.222 4.72 2.055 4.72 2.055 2.08-.296 2.936-3.622 2.936-3.622.328-.423.48 3.726-2.6 4.86M37.384 10.103a1.232 1.232 0 0 1-2.096 0s-1.232.376-1.736-.088a2.6 2.6 0 0 1-.568-1.702s.872 1.91 2.304.879a1.6 1.6 0 0 0 2.096.911M29.298 3.368c.218.31.564.506.942.532.864-.048.736-.752.736-.752.744.944 1.384.224 1.384.224-.416.8-1.16.2-1.16.2a.88.88 0 0 1-.88.744c-1.96-.112-1.2-2.015-1.2-2.015-.105.364-.04.756.178 1.067"/></g><path fill="#5c463f" d="M36.856 35.22c-.352 1.575-2.328 2.782-4.72 2.79s-4.376-1.167-4.736-2.766c-.056-.271.224-.511.6-.511l8.232-.016c.376 0 .656.24.624.503"/><path fill="#c95d49" d="M35.608 37.187c.112.44-1.552.8-3.472.8s-3.624-.392-3.472-.8c.288-.8 2.648-.328 3.472-.344.992-.016 3.256-.48 3.472.344"/><path fill="#dbd6d5" d="M28.528 34.98c0-.423.96-.799 3.568-.799s3.568.344 3.568.8c0 0-.952.759-3.568.759s-3.568-.76-3.568-.76"/><path stroke="#453226" stroke-linecap="round" stroke-linejoin="round" stroke-width=".776" d="M36.824 35.22c-.352 1.575-2.328 2.782-4.72 2.79s-4.376-1.167-4.736-2.766c-.056-.271.224-.511.6-.511l3.36-.32h1.896l3 .304c.376 0 .656.24.6.503"/><g stroke-linecap="butt" stroke-linejoin="miter" stroke-width="1" data-paper-data="{&quot;origPos&quot;:null}"><path fill="#fff" d="M29.034 22.273c.076.09.108.21.086.325a3.135 3.135 0 0 1-6.152 0 .4.4 0 0 1 .392-.464h5.368a.4.4 0 0 1 .306.139"/><path fill="#2e221a" d="M24.776 24.367a1.78 1.78 0 0 1-.52-1.266c-.002-.343.099-.68.288-.967h2.992a1.774 1.774 0 0 1-1.496 2.758c-.475 0-.93-.189-1.264-.525"/></g><g stroke-linecap="butt" stroke-linejoin="miter" stroke-width="1" data-paper-data="{&quot;origPos&quot;:null}"><path fill="#fff" d="M41.906 22.17c.076.089.108.208.086.324a3.135 3.135 0 0 1-6.152 0 .4.4 0 0 1 .392-.464H41.6a.4.4 0 0 1 .306.14"/><path fill="#2e221a" d="M37.744 24.24a1.78 1.78 0 0 1-.52-1.266c-.002-.344.099-.68.288-.968h2.992a1.774 1.774 0 0 1-1.496 2.758c-.475 0-.93-.189-1.264-.525"/></g><path fill="#231607" d="M29.6 20.128a.583.583 0 0 1-.608.583h-6.08a.584.584 0 1 1 0-1.167l6.112-.272c.328 0 .576.536.576.856M42.544 20.128a.584.584 0 0 1-.584.583h-6.088a.584.584 0 0 1-.584-.583c0-.32.232-.856.552-.856l6.12.272c.323 0 .584.261.584.584" data-paper-data="{&quot;origPos&quot;:null}"/><g stroke-linecap="butt" stroke-linejoin="miter" stroke-width="1" data-paper-data="{&quot;origPos&quot;:null}"><path fill="#705347" d="M66.528 99.54 82.4 65.534a3.44 3.44 0 0 1 4.408-1.663 2.94 2.94 0 0 1 1.8 3.293L77.32 102.898a6.594 6.594 0 0 1-7.856 3.589c-3.064-.983-3.816-3.845-2.936-6.947"/><g fill="#705347"><path d="m88.008 60.042 3.544-9.641a1.09 1.09 0 0 1 1.392-.648 1.08 1.08 0 0 1 .656 1.391l-2.848 9.793c-.24.6-1.28.808-1.84.6a1.27 1.27 0 0 1-.904-1.495"/><path d="m85.6 57.827 3.304-9.952a1.183 1.183 0 0 1 1.496-.8 1.19 1.19 0 0 1 .8 1.495l-2.656 10.153c-.2.623-1.384.767-2.008.56a1.255 1.255 0 0 1-.936-1.456M89.12 64.087l4.536-9.177a.91.91 0 0 1 1.176-.488c.457.188.675.71.488 1.167l-3.888 9.513a.896.896 0 0 1-1.168.496c-.456-.184-1.328-1.056-1.144-1.511"/><path d="m83.312 57.236 2.76-9.193a.983.983 0 0 1 1.224-.688 1 1 0 0 1 .696 1.223l-2.344 9.337c-.144.552-1.12.696-1.648.552a1.007 1.007 0 0 1-.688-1.231M78.88 53.91c.728-.311 2.192.8 2.592 1.791l3.592 8.913a2.23 2.23 0 0 1-2.104 1.799c-.48-.152-1.888-.336-2.504-2.694l-1.064-6.835a3.26 3.26 0 0 0-.72-2.478c-.152-.144.016-.416.208-.496"/><path d="M84.432 68.06c-2.76-.888-4.752-3.997-3.864-6.771l.4-1.24a5.28 5.28 0 0 1 6.624-3.405l.952.312a5.275 5.275 0 0 1 3.4 6.62l-.4 1.246c-.888 2.75-4.344 4.125-7.112 3.238"/></g><path fill="#ffabe2" d="m84.256 74.959.88-2.51 1.856.679-.704 2.574z"/><path fill="#ededed" d="m81.584 71.145 3.552 1.303-.88 2.51-3.544-1.302z"/><path fill="#7be3f2" d="M81.6 71.13a1.446 1.446 0 0 1-.888 2.502l-2.24-.8 1.16-2.398z"/><path fill="#6ecdd9" d="M81.344 71.074q.107.015.208.055a1.327 1.327 0 1 1-.912 2.495 1 1 0 0 1-.192-.096 1.4 1.4 0 0 0 1.296-.912 1.39 1.39 0 0 0-.4-1.542"/></g><g stroke-linecap="butt" stroke-linejoin="miter" stroke-width="1"><path fill="#705347" d="m17.992 68.483-3.888 39.171c-.968 5.076-6.568 4.852-6.568 4.852-3.208-.367-4.856-3.381-4.592-6.579L4.8 63.647a8.446 8.446 0 0 1 8-7.314c2.808.056 5.44 7.114 5.192 12.15"/><path fill="#6373ba" d="M12.744 52.152c7.616 3.125 7.168 25.485 3.616 35.261L1.424 77.11c.864-4.756 1.832-20.784 6.92-23.454a12.8 12.8 0 0 1 4.4-1.503"/><path fill="#e4b34e" d="M16.384 89.556 0 77.876l.984-3.717L17.44 85.615z"/></g><g fill="#705347" stroke-linecap="butt" stroke-linejoin="miter" stroke-width="1"><path d="M8.072 101.986a6.59 6.59 0 0 1 6.128 6.084l-1.808 37.404a2.94 2.94 0 0 1-2.792 2.47 3.44 3.44 0 0 1-3.592-3.086l-3.096-37.364c.288-3.213 1.944-5.652 5.16-5.508"/><path d="M8.605 142.242a3.26 3.26 0 0 1 3.211 1.673c1.816 2.982.736 8.186.736 8.186a5.2 5.2 0 0 1-1.192 2.494c.412 1.167.723 2.368.928 3.59a26.5 26.5 0 0 1 3.936 1.446c2.552.296 2.08 1.99 2.08 1.99-6.392-.103-7.84-1.023-7.84-1.023-6.536-5.356-5.6-8.729-5.6-8.729l.968-7.299a3.255 3.255 0 0 1 2.773-2.328"/><path d="M16.152 156.785c-.8.384-2.4-.711-2.896-1.734l-5.04-10.393a2.4 2.4 0 0 1 2.128-2.07 6.34 6.34 0 0 1 3.448 3.83l1.6 7.25c-.06.96.282 1.9.944 2.598.176.12.016.4-.184.52"/></g><g stroke-linecap="butt" stroke-linejoin="miter" stroke-width="1"><path fill="#705347" d="M59.224 248.605a4.06 4.06 0 0 1-4.36 4.349h-.056a4.07 4.07 0 0 1-3.728-3.541l-.8-64.24c.04-3.134 4.24-5.492 7.296-5.292s6.824 2.958 6.568 6.003z"/><path fill="#36445e" d="m50.68 232.673-2.264-50.77c.168-4.093 2.6-11.799 10.808-10.392 4.368.184 7.264 6.028 7.096 10.136L60.6 232.37c-1.128 3.102-5.008 2.838-5.008 2.838-3.272 0-4.864-1.103-4.912-2.534"/></g><path fill="#eda68c" d="m77.376 257.814-.336 1.758s-.488 2.159-1.104 2.039l-27.2-5.18a1.42 1.42 0 0 1-.8-1.44c.064-1.078 2.168-10.471 2.168-10.471l-.088-5.828 6.616 1.111.608 2.654c.104-1.127.528-2.246 1.832-2.246 0 0 2.32-.128 1.6 5.3l-.104 1.687.472 2.654 5.664 3.917 6.648.335s3.528.208 4.024 3.71"/><path fill="#cfd6d4" d="M47.856 254.976c.04-.536.304-1.655.456-2.686l18.088 5.835 10.936-.295-.336 1.774s-.352 2.183-1.104 2.039l-9.744.543-17.512-5.763a1.44 1.44 0 0 1-.784-1.447"/><path stroke="#f0ded3" stroke-linecap="round" stroke-linejoin="round" stroke-width=".5" d="m60.808 243.8-3.024 4.061 3.256 1.99.32 2.679 3.36-.128 2.224 3.07 3.312-1.535-.168 1.446-2.872-1.59-3.496-.024-1-3.094-4.024.272 1.872-3.75-3.648-3.629"/><path fill="#ce7d71" d="m56.632 239.787 2.224 10.856 8.128 4.485 5.144-.288-.144.767-5.12.272-8.664-4.644-2.336-11.576z"/><path fill="#e5e8e9" d="m77.328 257.83-5.712.511.624-4.412 1.112.175a4.29 4.29 0 0 1 3.976 3.726"/><path fill="#545c59" d="m77.304 258.317-10.992.304-18.152-5.86.088-.495 18.16 5.86 10.992-.304z"/><g stroke-linecap="butt" stroke-linejoin="miter" stroke-width="1"><path fill="#705347" d="M28.808 180.19a5.4 5.4 0 0 1 1.488 3.99l-2.4 64.105a4.06 4.06 0 0 1-3.896 3.35 4.058 4.058 0 0 1-4.176-4.565l-3.36-62.857c-.096-3.054 5.368-5.644 8.424-5.692 1.48-.004 2.898.6 3.92 1.67"/><path fill="#36445e" d="M24.072 233.776s-4.936.423-5.408-3.342l-4.6-50.362c-.048-4.11 3.024-9.865 7.392-9.92 8.248-1.168 10.456 6.602 10.504 10.711l-3.16 50.722c-.112 1.32-1.32 1.91-4.728 2.19"/></g><path fill="#eda68c" d="m12.384 259.94 6.632-9.145c.512-2.27-.16-9.065-.16-9.065h.8l.872 2.07a1.82 1.82 0 0 1 1.28-1.703l3.032.096c.74.081 1.304.703 1.312 1.447l1.744-1.782h.704l.2 13.062-.704 7.194z"/><path stroke="#f0ded3" stroke-linecap="round" stroke-linejoin="round" stroke-width=".5" d="m20.544 244.6 5.064 3.54-4.752 2.775 3.936 2.006-5.664.784 5.032 2.094-8.088 1.151 7.856.584-6.208-2.638 6.752-.664-4.536-2.046 5.344-1.04-4.712-3.54 5.248-2.679"/><path fill="#ce7d71" d="m26.152 243.616-.208 7.547-1.704 7.09-1.256.024 2.296-7.13.376-6.603zM20.528 243.776l.328 7.139-5.712 8.098-1-.056 6.384-8.122-.312-7.786z"/><path fill="#e69783" d="m25.712 259.7 1.568-7.834.616-10.032.704.008.224 13.078-.672 6.955z"/><path fill="#e5e8e9" d="M20.144 257.446c6.304.072 8.048 3.213 8 3.941a29.8 29.8 0 0 1-8.696 1.447 20 20 0 0 1-7.68-1.263s-.648-4.245 8.376-4.125"/><path fill="#cfd6d4" d="M11.648 263.969q.007-1.204.16-2.398c2.59.704 5.284.956 7.96.743 2.976-.144 6.816-.327 8.416-.943v2.078a1.92 1.92 0 0 1-1.4 1.999 22 22 0 0 1-6.896 1.455 19.1 19.1 0 0 1-7.504-.951c-.504-.28-.752-.944-.736-1.983"/><path fill="#545c59" d="M11.768 261.57c2.61.677 5.306.965 8 .856a51.6 51.6 0 0 0 8.376-1.039c.144-.04.2.448 0 .504-2.767.599-5.58.965-8.408 1.095-2.7.074-5.395-.249-8-.96-.184-.016-.048-.48.032-.455"/></g></svg>