<svg xmlns="http://www.w3.org/2000/svg" width="72.752" height="278.604" viewBox="0.359 0.8 72.752 278.604"><path fill="#c38f4e" d="M65.5 174.6c-2.1-.5-2.6-2-2.4-3.6-.2 3.1-.3 6 0 8.4v.8c-.1 1.2-.8 2.2-2.1 2.4-.4.1-.8-.1-1.1-.3v.4c-.1 1.2-1.1 2.2-2.3 2.2-.8 0-1.4-.5-1.6-1.2-.2-.5-.4-1.1-.5-1.6-1 1-2.7.5-3-.9-.6-2.6-1.6-8-1.5-10.1.2-4.3 3.5-8.9 3.5-8.9l-.9-5.8 9 .8-.9 2.9c3.6 2.4 4.8 4.4 4.9 8.3 0 0 1.6 2.9 1.7 4.3-.1 1.9-2.1 2.2-2.8 1.9"/><path fill="none" stroke="#000" stroke-linecap="round" stroke-linejoin="round" d="M61.8 168.5v-.4c.3 2.2.3 6 3.6 6.5.7.3 2.8-.1 2.5-1.7-.2-1.4-1.7-4.3-1.7-4.3-.1-3.9-1.3-5.9-4.9-8.3l.3-2.2M55.3 182.2q0 0 0 0c-1 1-2.7.5-3.1-.8-.6-2.6-1.6-8-1.5-10.1.2-4.3 3.5-8.9 3.5-8.9l-.9-5.8"/><path fill="none" stroke="#000" stroke-linecap="round" stroke-linejoin="round" d="M54.6 172.9c-.6 3.4-.1 7.4 1.3 10.9.3.7.9 1.3 1.6 1.2 1.4-.1 2.5-1.3 2.3-2.7"/><path fill="none" stroke="#000" stroke-linecap="round" stroke-linejoin="round" d="M58.2 172.7c0 3.1.2 6 .8 8.5.2.9 1.1 1.6 2 1.4 1.5-.2 2.3-1.7 2.1-3.2-.2-1.9-.3-4.1-.1-6.4"/><path fill="#c38f4e" d="M57.3 123.3c3.3 5 2.5 14 3.3 19.3s1.2 15.4 1.2 15.4-4.3 4.3-8.1.6c0 0-4.4-19.5-5.6-24-1.3-4.4-1.2-7.3.2-10.2 1.5-2.9 5.2-6.9 9-1.1"/><path fill="none" stroke="#000" stroke-linecap="round" d="M58.9 127.1c1.4 5 1 11.3 1.6 15.5.8 5.3 1.1 15.8 1.1 15.8M53.9 159.1c-1.4-2.6-4.8-20.1-5.9-24.5-.6-2.3-.9-4.2-.9-5.8"/><path fill="#c38f4e" d="M46.4 122c-.2 1.5.1 7.6 1 9.2 1.2 2.1 7.5 2 8.8 2 4.4-.2 3.1-5.5 3.4-7.9.1-.8 0-2 .1-2.9 1.4-15-1.2-31.6-3.6-37-2.9-6.1-8-1.5-11 6.2-2.2 5.3 2.4 16.7 1.3 30.4"/><path fill="none" stroke="#000" stroke-linecap="round" d="M59.2 131c.7-1.8.3-4.3.4-5.8.1-.8 0-2 .1-2.9 1.4-15-1.2-31.6-3.6-37-.9-1.9-2-2.8-3.2-2.8M52.6 82.4c-2.6.2-5.5 3.9-7.5 9-2.2 5.5 1.4 12.8 1.5 27.1-.2 1.5.3 8.2.5 12.4"/><path fill="#2c96ff" stroke="#000" stroke-linecap="round" stroke-linejoin="round" d="M58.3 87.5c.4 1.4.8 2.7 1.3 4.1 2.5 7 4.6 14.6 3.5 22.1-.5 3.7-5.4 4.3-8.7 5.3-2.7.8-7.4 2.6-8.5-.4-3.6-9.4-3.1-38.5-1.7-39.8 3.4-3.3 12 2.1 14.1 8.7"/><path fill="#c38f4e" stroke="#000" d="m39.2 77.3.9 3.4-6.3.8-1 .1-1-.1-6.3-.8.9-3.4c1.4-5.3.8-11-1.5-15.9l8 .6 8-.6c-2.6 5.3-3.8 11.2-1.7 15.9Z"/><path fill="#c38f4e" stroke="#000" stroke-linecap="round" d="M9.7 168.6c-12.4-21.9.2-86.7 4.9-90.1 3.3-2.3 7.2-2.7 9.3-2.7.8 0 1.6.3 2.2.8 2.9 2.4 12.2 3.8 14.4.9 0 0 .2-.1.4-.1 3.1-.8 6.4.3 8.4 2.8 0 .1.1.1.1.1 4.9 6.9 8.1 16.1 7.4 23-2.1 20.1 3.2 37.2-.1 62.1-1.5 4.5-44.4 8.3-47 3.2Z"/><path fill="#c38f4e" d="M39.7 161.4c2.8-3.8 7.8-6.1 11.7-2 11.7 12.3 7.7 48.7-.7 58-.9 1-5.9 3.8-8.3 1.3-7.7-8-7.7-50.4-2.7-57.3"/><path fill="none" stroke="#000" stroke-linecap="round" d="M38.8 210c-3.9-16.9-3.1-43 1-48.6 2.8-3.8 7.8-6.1 11.7-2C61.6 170.1 60 197 53.9 212"/><path fill="#c38f4e" d="m53.7 211.1-.1 1.3-3.7 33.3c-.2 1.8-.1 3.7.3 5.5.6 2.6-.7 5.4-3.2 6.4h-.1c-3.9 1.5-7.9-1.8-7.5-5.9l.4-4c.1-1.3.1-2.5 0-3.8l-2.4-25.1q-.15-4.35 1.2-8.4c0-.1.1-.2.1-.3.7-1.8 1.6-3.6 2.7-5.2 1-1.5 2.6-2.5 4.4-2.7 3.6-.5 6.9 2 7.4 5.6z"/><path fill="none" stroke="#000" stroke-linecap="round" d="m53.6 212.1-3.7 33.5c-.2 1.8-.1 3.7.3 5.5M39.4 252.6v-.9l.4-4c.1-1.3.1-2.5 0-3.8l-2.4-25.1c-.2-3 .3-6 1.3-8.8"/><path fill="#c38f4e" d="M39.8 255.5c3 7.3 9 12.7 20.6 14.5 3 .3 5.4-.2 6.7-2.1s.8-4.5-.8-6.1c-4.7-4.6-10.1-8.1-16-10.7l-9 1.8c-1.2.3-1.9 1.5-1.5 2.6"/><path fill="none" stroke="#000" stroke-linecap="round" d="M39.4 252.9c1.5 8.5 9.4 15.3 21 17.2 3 .3 5.4-.2 6.7-2.1s.8-4.5-.8-6.1c-4.7-4.6-10.1-8.1-16-10.7"/><path fill="#ccd8ff" stroke="#000" stroke-linecap="round" d="M34.5 170.1c1 0 1.9 7.8 1.7 10.6 7.3 2.2 15.1 2.2 23.3 0l-1-29.3-23.7 1.3"/><path fill="#333" stroke="#000" stroke-linecap="round" d="M36.1 147.7c-2.4 23.1-2.2 45.4.7 59.8-2.4 9-1.1 25.1 1.4 41.6 0 .2.3.4.5.4l11.3-.7c.2 0 .4-.2.4-.4 2.3-13 4.6-25.5 4.8-36.4 5.3-19.6 3.9-42 2-66z"/><path fill="#ba0000" stroke="#000" stroke-linecap="round" d="M58.5 268.2c-7.9-2.7-14.5-7.3-20.1-13.2l-1-5.8c-.1-.7.6-1.3 1.3-1l2.1 1c1.7-2.3 5.2-4.5 8.7-4.1 4.7.4 1 3.7 1 3.7l15.9 9.9-.8 5.8-6.7 4.2"/><path fill="#7a0000" stroke="#000" stroke-linecap="round" d="m66.4 258.7-1.6 1.6L54 252l-3.5-3.2 15.9 9.9M62.3 263.3l-3.4 4.4c-7.3-2.7-15.3-7.1-20.6-12.6l-1-5.8c-.1-.7.6-1.3 1.3-1l2.1 1 1.9 4c4.7 4.5 12.9 7.2 19.7 10Z"/><path fill="#fff" stroke="#000" stroke-linecap="round" stroke-linejoin="round" d="M57 270.4c.1-.6.4-1.6.7-2.2.2-.4.8.2 1-.2 1.5-3.1 4.2-7.7 7.7-9.3 0 0 8.1 3.7 5.8 9.8-1 2.6-3.6 4.5-6.9 4.4-3.6 0-8.1-2-8.3-2.5"/><path fill="#fff" stroke="#000" stroke-linecap="round" stroke-linejoin="round" d="M59 267.7c.5-3.7 2.7-6.8 7.4-9 0 0 8.6 3.9 4.2 9s-11.6 0-11.6 0M37.7 258.1c4.1 5 12.8 9.7 20.1 12.7 0 0 1.3-2.9 1-3.1-7.3-3.1-16.3-7.7-20.5-12.8z"/><path d="M46.1 255.7a.997.997 0 0 1 1 1 .997.997 0 0 1-1 1 .997.997 0 0 1-1-1 .997.997 0 0 1 1-1M54.1 250.9a.997.997 0 0 1 1 1 .997.997 0 0 1-1 1 .997.997 0 0 1-1-1 .997.997 0 0 1 1-1M61.6 255.5a.997.997 0 0 1 1 1 .997.997 0 0 1-1 1 .997.997 0 0 1-1-1 .997.997 0 0 1 1-1M57.6 253.2a.997.997 0 0 1 1 1 .997.997 0 0 1-1 1 .997.997 0 0 1-1-1 .997.997 0 0 1 1-1M54.6 260.2a.997.997 0 0 1 1 1 .997.997 0 0 1-1 1 .997.997 0 0 1-1-1 .997.997 0 0 1 1-1M50.1 257.9a.997.997 0 0 1 1 1 .997.997 0 0 1-1 1 .997.997 0 0 1-1-1 .997.997 0 0 1 1-1"/><g fill="none" stroke="#fff"><path d="M46.2 256.7c4.1-1.7 6.8-3.3 7.8-4.7M54.7 261.2c3.1-1.2 5.7-2.6 6.7-4.5M50.2 258.8c3.6-1.8 6.7-3.4 7.2-4.5"/></g><path fill="#c38f4e" d="M14.7 160.4c2.8-3.8 7.8-6.1 11.7-2 11.7 12.3 7.7 55.7-.7 65-.9 1-5.9 3.8-8.3 1.3-7.7-8-7.7-57.4-2.7-64.3"/><path fill="none" stroke="#000" stroke-linecap="round" d="M13.7 216c-3.9-16.9-3.1-50 1-55.6 2.8-3.8 7.8-6.1 11.7-2 10.1 10.7 8.5 44.7 2.4 59.6"/><path fill="#c38f4e" d="m28.7 217.1-.1 1.3-3.7 33.3c-.2 1.8-.1 3.7.3 5.5.6 2.6-.7 5.4-3.2 6.4h-.1c-3.9 1.5-7.9-1.8-7.5-5.9l.4-4c.1-1.3.1-2.5 0-3.8l-2.4-25.1q-.15-4.35 1.2-8.4c0-.1.1-.2.1-.3.7-1.8 1.6-3.6 2.7-5.2 1-1.5 2.6-2.5 4.4-2.7 3.6-.5 6.9 2 7.4 5.6z"/><path fill="none" stroke="#000" stroke-linecap="round" d="m28.6 218.1-3.7 33.5c-.2 1.8-.1 3.7.3 5.5M14.4 258.6v-.9l.4-4c.1-1.3.1-2.5 0-3.8l-2.4-25.1c-.2-3 .3-6 1.3-8.8"/><path fill="#c38f4e" d="M14.8 261.5c3 7.3 9 12.7 20.6 14.5 3 .3 5.4-.2 6.7-2.1s.8-4.5-.8-6.1c-4.7-4.6-10.1-8.1-16-10.7l-9 1.8c-1.3.3-1.9 1.5-1.5 2.6"/><path fill="none" stroke="#000" stroke-linecap="round" d="M14.4 258.9c1.5 8.5 9.4 15.3 21 17.2 3 .3 5.4-.2 6.7-2.1s.8-4.5-.8-6.1c-4.7-4.6-10.1-8.1-16-10.7"/><path fill="#ccd8ff" stroke="#000" stroke-linecap="round" d="m34.8 152.7-23.6 1.1-1 27c7.7 2.5 15.5 2.7 23.7.3-.6-2.8-.3-10.9.7-11"/><path fill="#333" stroke="#000" stroke-linecap="round" d="M11.1 153.7c-2.4 23.1-2.2 45.4.7 59.8-2.4 9-1.1 25.1 1.4 41.6 0 .2.3.4.5.4l11.3-.7c.2 0 .4-.2.4-.4 2.3-13 4.6-25.5 4.8-36.4 5.3-19.6 5.9-42 4-66z"/><path fill="#ba0000" stroke="#000" stroke-linecap="round" d="M33.5 274.2c-7.9-2.7-14.5-7.3-20.1-13.2l-1-5.8c-.1-.7.6-1.3 1.3-1l2.1 1c1.7-2.3 5.2-4.5 8.7-4.1 4.7.4 1 3.7 1 3.7l15.9 9.9-.8 5.8-6.7 4.2"/><path fill="#7a0000" stroke="#000" stroke-linecap="round" d="m41.4 264.7-1.6 1.6L29 258l-3.5-3.2 15.9 9.9M37.3 269.3l-3.4 4.4c-7.3-2.7-15.3-7.1-20.6-12.6l-1-5.8c-.1-.7.6-1.3 1.3-1l2.1 1 1.9 4c4.7 4.5 12.9 7.2 19.7 10Z"/><path fill="#fff" stroke="#000" stroke-linecap="round" stroke-linejoin="round" d="M32 276.4c.1-.6.4-1.6.7-2.2.2-.4.8.2 1-.2 1.5-3.1 4.2-7.7 7.7-9.3 0 0 8.1 3.7 5.8 9.8-1 2.6-3.6 4.5-6.9 4.4-3.6 0-8.1-2-8.3-2.5"/><path fill="#fff" stroke="#000" stroke-linecap="round" stroke-linejoin="round" d="M34 273.7c.5-3.7 2.7-6.8 7.4-9 0 0 8.6 3.9 4.2 9s-11.6 0-11.6 0M12.7 264.2c4.1 5 12.8 9.7 20.1 12.7 0 0 1.3-2.9 1-3.1-7.3-3.1-16.3-7.7-20.5-12.8z"/><path d="M21.1 261.7a.997.997 0 0 1 1 1 .997.997 0 0 1-1 1 .997.997 0 0 1-1-1 .997.997 0 0 1 1-1M29.2 256.9a.997.997 0 0 1 1 1 .997.997 0 0 1-1 1 .997.997 0 0 1-1-1 .997.997 0 0 1 1-1M36.6 261.5a.997.997 0 0 1 1 1 .997.997 0 0 1-1 1 .997.997 0 0 1-1-1 .997.997 0 0 1 1-1M32.6 259.2a.997.997 0 0 1 1 1 .997.997 0 0 1-1 1 .997.997 0 0 1-1-1 .997.997 0 0 1 1-1M29.6 266.2a.997.997 0 0 1 1 1 .997.997 0 0 1-1 1 .997.997 0 0 1-1-1 .997.997 0 0 1 1-1M25.1 263.9a.997.997 0 0 1 1 1 .997.997 0 0 1-1 1 .997.997 0 0 1-1-1 .997.997 0 0 1 1-1"/><g fill="none" stroke="#fff"><path d="M21.2 262.7c4.1-1.7 6.8-3.3 7.8-4.7M29.7 267.2c3.1-1.2 5.7-2.6 6.7-4.5M25.2 264.8c3.6-1.8 6.7-3.4 7.2-4.5"/></g><g stroke="#000"><path fill="#78c2ff" stroke-linecap="round" stroke-linejoin="round" d="M9.7 168.6c-12.4-21.9.2-86.7 4.9-90.1 3.3-2.3 7.2-2.7 9.3-2.7.8 0 1.6.3 2.2.8 2.9 2.4 12.2 3.8 14.4.9 0 0 .2-.1.4-.1 3.1-.8 6.4.3 8.4 2.8 0 .1.1.1.1.1 4.9 6.9 8.1 16.1 7.4 23-2.1 20.1 7.2 37.2 3.9 62.1-1.5 4.5-48.4 8.3-51 3.2"/><path fill="#2c96ff" stroke-linecap="round" stroke-linejoin="round" d="M34.6 79.5c-1.6 2.1-2.4 4.7-2.8 7.5-4.4-3-8.6-6.5-10.5-11l5.7-6.1.1 4.1c1.6 2.2 3.8 4.2 7.5 5.5M34.6 79.5c2.1.8 4.2 2.1 6.5 5.5q2.55-3.15 1.8-7.5l-3.8-4q-.9 4.2-4.5 6"/><path fill="none" stroke-linecap="round" d="M34.6 79.5c5.1 28.6 7 58.6 5.2 90.2"/><path fill="none" d="M32.9 88.5a1.4 1.4 0 1 1 0 2.799 1.4 1.4 0 0 1 0-2.799ZM35.3 105.6a1.4 1.4 0 1 1 0 2.799 1.4 1.4 0 0 1 0-2.799ZM36.9 125.8a1.4 1.4 0 1 1 0 2.799 1.4 1.4 0 0 1 0-2.799ZM37.1 145.7a1.4 1.4 0 1 1 0 2.799 1.4 1.4 0 0 1 0-2.799ZM37.1 162.7a1.4 1.4 0 1 1 0 2.799 1.4 1.4 0 0 1 0-2.799Z"/></g><path fill="#c38f4e" d="M19.3 182c-2.2-.1-3.2-3.3-4.8-5l-.4.4c-.1 3.7 0 7.1.5 10 0 .2.1.4.1.6 0 1.3-.6 2.4-1.9 2.7-.4.1-.8 0-1.1-.2v.3c0 1.2-.9 2.3-2.2 2.5-.8.1-1.4-.4-1.7-1.1-.2-.5-.5-1-.7-1.6-.9 1.1-2.7.7-3.1-.7-.8-2.5-2.1-7.9-2.1-10 0-3.6 2.1-7.6 2.7-8.8l.1.5.1-.8-1.3-5.7c2.6-2.7 5.3-3.4 8.1.8l.1 3.2 1.8.4.3.5c2.6 1.3 3.8 2.9 4.7 6 0 0 2.2 2.4 2.8 3.7.7 1.6-1.2 2.4-2 2.3"/><g fill="none" stroke="#000"><path d="m14.3 177.1-.1-.4c1.8 1.6 2.8 5.3 5.2 5.4.8.1 2.6-.8 2-2.3-.5-1.3-2.8-3.7-2.8-3.7-1.1-3.8-2.8-5.4-6.8-6.8l-.1-3.2M7.2 190.6q-.15 0 0 0c-1 1.1-2.7.7-3.1-.6-.8-2.5-2.1-7.9-2.1-10 0-4.3 2.9-9.1 2.9-9.1l-1.3-5.7"/><path d="M5.8 181.4c-.4 3.4.4 7.4 2 10.8.3.7 1 1.2 1.7 1.1 1.4-.1 2.4-1.5 2.1-2.9"/><path d="M9.4 181c.2 3.1.5 6 1.3 8.4.3.9 1.2 1.5 2.1 1.3 1.5-.3 2.2-1.8 1.9-3.3-.6-3-.6-6.8-.5-10.7"/></g><path fill="#c38f4e" d="M13.1 131c2.4 5.4.1 14.2 0 19.6s-1.4 15.3-1.4 15.3-5 3.5-8.1-.8c0 0-1-20-1.5-24.6s0-7.4 1.9-10.1c2-2.4 6.3-5.7 9.1.6"/><path fill="none" stroke="#000" stroke-linecap="round" d="M14.1 135.1c.5 5.1-.9 11.4-1 15.6-.1 5.4-1.4 15.6-1.4 15.6M3.7 165.7c-.9-2.8-1.3-20.6-1.7-25.1-.2-2.4-.2-4.2.1-5.9"/><path fill="#c38f4e" d="M19.9 90.5c-2.4-7.8-7.1-12.9-10.5-7-2.9 5.2-7.3 27.5-7.1 42.6 0 .9-.1 2.1-.1 2.9.1 2.4-1.6 7.5 2.7 8.1 1.3.2 7.6.8 9-1.2 1.1-1.5 1.8-7.5 1.8-9 0-13.8 6-30.7 4.2-36.4"/><path fill="none" stroke="#000" stroke-linecap="round" d="M12.9 80.9c-1.2-.1-2.4.7-3.5 2.6-2.9 5.2-7.3 27.5-7.1 42.6 0 .9-.1 2.1-.1 2.9 0 1.5-.6 4-.1 5.8M14.1 135.7c.6-4.2 1.6-10.9 1.6-12.4 1.3-14.2 6-27.2 4.2-32.8-1.6-5.2-4.2-9.2-6.8-9.6"/><path fill="#2c96ff" stroke="#000" stroke-linecap="round" stroke-linejoin="round" d="M13.5 78.4c3.4-.4 6.9 4.6 7.4 8.6 1.4 9.9 1.2 20.7-2.2 30.2-1.1 3-5.8 1.4-8.5.7-3.4-.9-8.3-1.3-8.9-5-1.5-8.4 1.1-17 3.7-24.7 1.7-4.6 4.7-9.4 8.5-9.8"/><path fill="#c38f4e" stroke="#000" d="M39.5 9.5c-6.7.4-15.7 3.1-20.4 8.1s-5.7 12.1-5.7 19.7 3.3 14.3 7.7 19.7c3.9 4.9 9.6 9.1 15.7 9.6 7.2.6 17-.5 20.5-6.7 5.7-10.5 6.3-21.5 6.4-33.2.1-4.4-1.3-8.7-4.2-12-1.1-1.3-2.2-2.3-3.1-2.7-5.6-2.6-10.6-3-16.9-2.5Z"/><path fill="#fff" stroke="#000" d="M42.4 38.2c.1 2.4-.8 3.8-2.4 4.5-1.1.5-2.4.7-4 .8-2.1.1-3.8 0-5-.5-1.3-.5-2.1-1.3-2.6-2.6v-.1c-.2-.6-.4-1.3-.5-2.2-.4-4.1 3.2-5.9 7.1-5.9h1.7c3.1.4 5.5 1.3 5.7 6Z"/><path d="M39 36.7c.1 3.3-2.3 4.2-5.8 4.4-2.1.1-3.6 0-4.7-.5v-.1c-.2-.6-.4-1.3-.5-2.2-.4-4.1 3.2-5.9 7.1-5.9h1.6c1.3.6 2.2 1.8 2.3 4.3"/><path fill="#fff" d="M31 34.4c.359 0 .684.179.919.469s.381.69.381 1.131a1.8 1.8 0 0 1-.381 1.131c-.235.29-.56.469-.919.469s-.684-.179-.919-.469A1.8 1.8 0 0 1 29.7 36a1.8 1.8 0 0 1 .381-1.131c.235-.29.56-.469.919-.469"/><path fill="#fff" stroke="#000" d="M61.6 38.1c.1 4-1.7 5-4.4 5.2-3.1.3-4.6-.6-5.3-3v-.1q-.3-.9-.3-2.1c-.3-4.1 2.2-5.8 4.9-5.8h1.2c2.1.3 3.8 1.2 3.9 5.8Z"/><path d="M59.3 36.6c.1 3.3-1.6 4.1-4 4.3-1.4.1-2.5 0-3.3-.4v-.1q-.3-.9-.3-2.1c-.3-4.1 2.2-5.8 4.9-5.8h1.1c.9.5 1.5 1.7 1.6 4.1"/><path fill="#fff" d="M53.9 34.4c.331 0 .631.179.848.469.218.29.352.69.352 1.131s-.134.841-.352 1.131-.517.469-.848.469-.631-.179-.848-.469A1.9 1.9 0 0 1 52.7 36c0-.441.134-.841.352-1.131s.517-.469.848-.469"/><path fill="none" stroke="#000" stroke-linecap="round" stroke-linejoin="round" stroke-width=".872" d="M46.3 58.4c-3.6-.2-8.2-1.9-10.9-4.3"/><path d="M41.1 29.8c-5.9-.6-11.2.2-15.9 2.6-1.5-2 9.3-6 13.8-5.2 3.8.6 2.4 2.4 2.1 2.6M50.6 30.3c4.9-.6 7.7-1.3 12.1.8-.1-3-6.6-4.2-10.3-3.4-3.1.6-2 2.4-1.8 2.6"/><g fill="none" stroke="#000"><path d="m47.8 38.3.7 5.9"/><path stroke-width=".992" d="M47.5 44c1.8-.1 3.4 1.4 3.4 3.2.1 1.9-1.4 3.3-3.2 3.5-.8.1-1.5-.1-2.2-.4"/></g><path fill="#c38f4e" stroke="#000" d="M15.8 33.3c-1-.6-2.4-.9-4.2-.2-5 1.9-1 10.9-1 10.9s-.7 3.5 2.9 4.3 3.2-.4 3.2-.4"/><path stroke="#000" stroke-linecap="round" d="M70.9 13.2c-.2 5-1 9.6-6.6 10.8C48 27.7 37 17 18.7 20.3c-3.9-1.6-5.5-5.2-4.7-10.1l2 1.2c2-3.6 4.7-5.8 9.8-5.5l-.2 2.8c2.9-4.3 8.2-6.5 15.1-7.4l-2.8 4.1c3-1.9 6.4-2.3 10-1.8-1.2.9-1.8 1.9-1.6 2.8 5.7 1.8 11.5 1 14.8-2 .4 1.4-.6 2.6-2.2 3.9 6.8-2.5 10 .6 12.6-4.6z"/></svg>