<svg xmlns="http://www.w3.org/2000/svg" xml:space="preserve" width="46.032" height="55.353" viewBox="-0.505 -0.528 46.032 55.353"><path fill="#f7941e" d="M16.4 46.8v.4h.4c0-.1 0-.3.1-.5-.2 0-.3 0-.5.1"/><path fill="#f7941e" d="M45 11.4C44.3 8 43.6 4.5 42.8 1c-.2-1-.8-1.2-1.7-.9-.3.1-.5.3-.8.5-1.1.9-2.3 1.5-3.8 1.4-5.2-.1-10.4-.2-15.6-.2-1.7 0-3.5.2-5.2.2s-3.4-.1-5-.2c-.9 0-1.6-.1-2.3-.8-.3-.3-.6-.5-1-.6C6.7 0 6.1.1 5.5.8c-.5.6-1 1.3-1.6 1.9-.9 1-1.5 2.1-1.2 3.5 0 .2 0 .4-.1.6-.7 2.1-1.3 4.2-2 6.2-.2.5-.4.9-.5 1.4-.1.6-.3 1.3.4 1.6s1.5.8 2.2.2l2.4-2.1c.1-.1.3-.4.3-.5-.2-1.1.7-1.2 1.3-1.4.5-.1 1-.1 1.5-.1 2.7-.2 5.3-.4 8-.6 1.1-.1 1.1 0 1 1-.2 2-.4 4.1-.4 6.1-.1 3.8 0 7.6-.1 11.4-.1 4.5-.2 8.9-.3 13.3v3.3c.1-.1.3-.1.4-.1 0 .2 0 .4-.1.5h-.3v-.4c-.4.2-.7.4-1.1.8q-1.5 1.8-3.3 3.3c-.5.5-.6 1-.4 1.6.1.3.2.6.2.8.1.6.3.9 1 .6.2-.1.5 0 .8 0q6.15.75 12.3.6c.8 0 1.4-.3 1.9-1 1-1.3 2-2.6 3.1-3.9.1-.2.2-.5.2-.7 0-.5 0-.9.1-1.4 0-.6-.2-.8-.8-.8h-1.8c-.6 0-1-.3-1-1 0-2.1 0-4.3-.1-6.4v-2c0-2.6.1-5.2.1-7.7-.1-5.7-.3-11.4-.4-17.1v-1.1c2 .2 4 .3 5.9.6 2.8.3 4.5 2 5.5 4.6.1.2.2.4.4.4.7.1 1.3 0 2 .1.6.1.9-.1 1.1-.6.1-.4.4-.8.6-1.1.7-.9 1.4-1.7 2-2.6.2-.2.4-.8.3-1.2m-1.8.5c-.6-1.1-1-2.2-1.6-3.2-1.6-2.4-4-3-6.6-3.4-2.7-.3-5.2.3-7.9.4-.2 0-.5.3-.5.5 0 2.1-.1 4.3 0 6.4.1 6.6.3 13.2.4 19.7.1 4 0 8-.1 12v.5c.1 2 .5 2.3 2.4 2.3h1.1c.1.1.1.1.1.2-.1 2.1.3 1.9-1.9 1.9-3.8 0-7.5-.2-11.4-.2v-1.6c0-.1.2-.3.4-.3.6-.1 1.3-.2 1.9-.3 1.1-.2 1.4-.4 1.5-1.5q.3-3 .3-6c.1-2.5.1-5.1.1-7.7 0-1.4-.1-2.8-.1-4.2 0-3.7.2-7.5.2-11.2 0-3-.2-5.9-.3-8.8v-.5c0-1.3 0-1.3-1.3-1.2-2.8.1-5.6 0-8.3.6-2.3.5-3.9 1.8-5.2 3.5-.7.8-1.1 1.9-1.7 2.8-1 0-1.2-.2-.9-1.2L5 6.9c.4-1.7.8-3.4 1.1-5.1.2-.9.5-1.1 1.3-.6h.1c1.3 1.5 3.1 1.4 4.9 1.4 1.5 0 3-.2 4.5-.2 1 0 2 .1 3 .1 4 0 8 0 11.9.1 1.6 0 3.1.1 4.7.2s2.9-.5 4.1-1.4c.2-.1.3-.3.5-.4.7-.3 1.1-.2 1.2.5.7 3 1.4 6 2 9 .1.4.1.9.1 1.4-.5-.1-.9 0-1.2 0"/><path fill="#fff" d="M44.4 10.5c-.7-3-1.3-6-2-9-.2-.7-.6-.9-1.2-.5-.2.1-.3.2-.5.4-1.2.9-2.5 1.5-4.1 1.4-1.5-.1-3.1-.2-4.7-.2-4 0-8 0-11.9-.1-1 0-2-.1-3-.1-1.5 0-3 .2-4.5.2-1.8 0-3.6.1-4.9-1.4h-.1c-.8-.5-1.1-.4-1.3.6-.4 1.7-.7 3.4-1.1 5.1l-1.2 4.5c-.3 1-.1 1.2.9 1.2.6-1 1-2 1.7-2.8 1.3-1.7 2.9-3 5.1-3.5 2.8-.6 5.6-.5 8.3-.6 1.2-.1 1.2 0 1.3 1.2v.5c.1 2.9.3 5.9.3 8.8 0 3.7-.1 7.5-.2 11.2 0 1.4.1 2.8.1 4.2 0 2.6 0 5.1-.1 7.7l-.3 6c-.1 1.1-.4 1.3-1.5 1.5-.6.1-1.3.2-1.9.3-.2 0-.4.2-.4.3V49c3.8.1 7.6.2 11.4.2 2.2 0 1.8.2 1.9-1.9 0 0-.1-.1-.1-.2h-1.1c-2-.1-2.3-.4-2.4-2.3v-.5c0-4 .1-8 .1-12-.1-6.6-.3-13.2-.4-19.7V6.2c0-.2.3-.5.5-.5 2.6-.1 5.2-.7 7.9-.4s5.1 1 6.6 3.4c.6 1 1.1 2.1 1.6 3.2.4 0 .8 0 1.3-.1-.1-.5-.1-.9-.1-1.3m-21.2-.4c0-.2.1-.4.2-.5h.3c-.2 4.9 1.1 9.7.8 14.6-.7.1-.6-.4-.6-.8-.1-2-.2-4-.4-6.1-.1-1.8-.3-3.5-.4-5.3 0-.6.1-1.2.1-1.9m.9 26.5c-.1 2.4-.2 4.9-.4 7.3 0 .2-.1.5-.1.8h-.3c-.1-.9-.2-1.7-.2-2.5.1-3.9.3-7.8.5-11.7 0-.3 0-.6.1-.8s.3-.2.4-.4c.1.2.2.3.2.5.1 2.2 0 4.5-.2 6.8m-.3-9.3c-.1.1-.7-.4-.6-.6.1-.3.3-.8.6-.9.2-.1.6.3 1 .4v.3c-.3.3-.6.7-1 .8"/><path fill="#f7941e" d="m24.5 29.7-.3 6.9c-.1 2.4-.2 4.9-.4 7.3 0 .2-.1.5-.1.8h-.3c-.1-.9-.2-1.7-.2-2.5.1-3.9.3-7.8.5-11.7 0-.3 0-.6.1-.8s.3-.2.4-.4c.1.1.3.3.3.4M24.5 24.2c-.7.1-.6-.4-.6-.8-.1-2-.2-4-.4-6.1-.1-1.8-.3-3.5-.4-5.3 0-.6.1-1.3.1-1.9 0-.2.1-.4.2-.5h.3c-.2 4.9 1.1 9.7.8 14.6M24.8 26.6c-.3.3-.7.6-1 .8-.1.1-.7-.4-.6-.6.1-.3.3-.8.6-.9.2-.1.6.3 1 .4z"/></svg>