<svg xmlns="http://www.w3.org/2000/svg" xml:space="preserve" width="151.847" height="89.668" viewBox="3.561 30.56 151.847 89.668"><title>toucan-c</title><g fill-rule="evenodd"><path fill="#2e4166" d="m99.322 43.834 8.713 29.73s2.003 7.03 1.43 8.648c-.924 2.596-2.802 15.592-41.009 31.062 0 0 11.237-9.46 12.628-11.421 0 0-3.098 2.373-8.297 4.256 0 0 4.151-3.602 7.812-12.252.414.162-2.621 1.225-4.728 3.683 0 0 2.533-8.316 2.102-13.138l-2.854 2.903s1.314-7.253 2.056-13.858l-2.104 2.333.413-13.466s-.068-7.958 2.414-10.054"/><path fill="none" stroke="#5f6484" stroke-width=".5" d="m99.322 43.834 8.713 29.73s2.003 7.03 1.43 8.648c-.924 2.596-2.802 15.592-41.009 31.062 0 0 11.237-9.46 12.628-11.421 0 0-3.098 2.373-8.297 4.256 0 0 4.151-3.602 7.812-12.252.414.162-2.621 1.225-4.728 3.683 0 0 2.533-8.316 2.102-13.138l-2.854 2.903s1.314-7.253 2.056-13.858l-2.104 2.333.413-13.466s-.068-7.958 2.414-10.054"/><path fill="#1e223d" d="M96.808 90.964s.155-.069.437-.218c.28-.15.695-.37 1.191-.701s1.086-.757 1.721-1.305c.63-.552 1.314-1.222 1.921-2.08.612-.848 1.172-1.88 1.453-3.089a7.57 7.57 0 0 0-.084-3.862c-.051-.169-.083-.31-.151-.504l-.172-.451-.347-.912a58 58 0 0 0-.855-1.849l-.94-1.804-.997-1.787a143 143 0 0 0-2.112-3.473c-.701-1.142-1.442-2.23-2.144-3.295a126 126 0 0 0-2.081-3.026c-.668-.957-1.316-1.85-1.92-2.67-1.199-1.648-2.258-2.975-2.98-3.919-.733-.935-1.17-1.455-1.17-1.455l.984 1.587 2.613 4.166 3.693 5.879 2.049 3.33c.7 1.132 1.382 2.298 2.06 3.464l1.001 1.753.941 1.762q.43.876.85 1.736.19.452.375.9l.186.446c.041.107.089.276.134.41a7 7 0 0 1 .219 3.392c-.202 1.08-.64 2.061-1.158 2.898-.52.837-1.11 1.544-1.666 2.139a17 17 0 0 1-1.556 1.435c-.916.744-1.495 1.103-1.495 1.103"/><path fill="#353c62" d="M154.466 58.714s1.795-8.155-2.985-12.954c-4.138-4.154-22.224-17.276-48.906-14.251-8.73 1.098-10.067 6.6-12.37 8.377-1.919 1.48-2.748 3.213-23.251 3.87 0 0-14.065 2.489-34.03 2.538 0 0-17.105-1.439-20.704-1.74-4.53-.378-8.159.543-8.159 1.837 0 1.391 9.474 3.441 9.474 3.441s-1.356.697-.572 3.178c.501 1.584 5.493.55 10.77-.909 3.312-.915 6.163-1.868 6.163-1.868 7.689 8.784 24.985 23.653 46.654 18.822 12.534-2.586 23.51-15.319 25.36-17.565 5.345-6.49 11.94-3.876 11.94-3.876s19.437.006 35.347 5.117c0 0 3.698 1.056 5.269 5.983"/><path fill="#faf1e8" d="M100.953 38.245s-2.637.705-3.512 9.57c-.551 5.588-5.85 10.14-11.098 13.6-12.43 8.193-23.299 7.729-26.054 7.616 0 0 7.662 2.726 20.127-1.108 11.389-3.503 17.944-13.782 20.362-15.385 7.543-5 12.807-4.937 12.807-4.937-2.837-2.914-5.754-5.286-7.904-6.44-5.602-3.002-4.728-2.916-4.728-2.916"/><path fill="#ffa364" d="M108.321 43s2.05-.268 2.341-2.471c.234-1.777-.276-6.054.08-7.328.355-1.274.827-1.996.827-1.996s21.919-1.023 39.912 14.555c4.621 4.001 2.984 12.954 2.984 12.954s-.886-4.01-5.383-6.02c-4.693-2.095-29.688-5.822-35.232-5.08z"/><path fill="#ff7664" d="m113.85 47.614-5.325-4.515s30.331 2.694 41.191 9.629c0 0-17.056-5.125-35.866-5.114"/><path fill="#353c62" d="M154.45 59.03s3.296-10.926-7.793-17.009c-4.928-2.703-10.34-3.02-11.09.163-.497 2.116 1.262 5.49 10.123 8.498 4.561 1.549 8.135 4.687 8.76 8.349"/><path fill="none" stroke="#1e223d" stroke-width=".5" d="M154.466 58.714s1.795-8.155-2.985-12.954c-4.138-4.154-22.224-17.276-48.906-14.251-9.73 1.027-10.747 8.726-14.609 9.978-3.4 1.757-16.553 1.927-21.012 2.27-4.213.206-16.153 3.683-38.65 2.317 0 0-7.554-.561-11.708-1.121-4.504-.607-12.568-.977-12.535 1.438.02 1.391 9.474 3.441 9.474 3.441s-1.452 2.19-.44 3.367c1.385 1.61 12.975-1.538 16.91-3.002 0 0 14.965 20.176 40.376 19.772 13.99-.67 23.773-10.178 25.636-12.414 8.99-10.786 17.833-9.94 17.833-9.94s19.437.005 35.347 5.116c0 0 3.698 1.056 5.269 5.983Z"/><path fill="#ffd5a3" d="M110.635 34.142s-9.802-2.861-10.575 1.238 5.295 6.553 8.17 7.579c0 0 2.089-.287 2.457-2.576.37-2.288-.22-4.404-.052-6.241"/><path fill="none" stroke="#1e223d" stroke-width=".5" d="M111.692 31.072s-1.304 1.147-1.033 4.397c.27 3.25.637 7.061-2.338 7.53 0 0 5.124 4.195 5.698 4.816"/><path fill="none" stroke="#1e223d" stroke-width=".5" d="M108.321 43s41.97 4.005 45.268 13.665"/><path fill="none" stroke="#1e223d" stroke-width=".5" d="M146.678 41.912s-9.337-4.514-11.005-.066c-1.552 4.142 6.03 7.152 7.686 7.95"/><path fill="#1e223d" d="M103.785 36.733a2.114 2.114 0 0 1 2.46-1.705 2.12 2.12 0 0 1 1.697 2.47 2.114 2.114 0 0 1-2.46 1.706 2.12 2.12 0 0 1-1.697-2.471"/><path fill="#495aa9" d="M104.752 36.911c.133-.73.83-1.212 1.555-1.078a1.342 1.342 0 0 1-.482 2.64 1.34 1.34 0 0 1-1.073-1.562"/><path fill="#1e223d" d="M105.224 36.998a.856.856 0 1 1 1.685.31.86.86 0 0 1-.997.69.86.86 0 0 1-.688-1M30.114 50.007s-.418-.53-.799-1.086a8 8 0 0 1-.504-.778l-.215-.366.158.394c.088.241.231.55.385.854.298.616.635 1.208.636 1.208z"/><path fill="#353c62" d="M83.424 49.832 74.68 88.915s-2.12 9.216-3.57 10.905c-2.33 2.711-11.442 17.42-55.751 19.908 0 0 15.814-6.587 18.219-8.344 0 0-4.227 1.537-10.13 1.61 0 0 5.903-2.561 14.21-11.344.292.366-3.133.366-6.485 2.415 0 0 7.069-8.856 9.4-14.784l-4.299 2.269s5.332-8.098 9.766-15.663l-3.28 1.903 8.017-15.883s4.445-9.514 7.943-10.978"/><path fill="none" stroke="#5f6484" stroke-width=".5" d="M83.424 49.832 74.68 88.915s-2.12 9.216-3.57 10.905c-2.33 2.711-11.442 17.42-55.751 19.908 0 0 15.814-6.587 18.219-8.344 0 0-4.227 1.537-10.13 1.61 0 0 5.903-2.561 14.21-11.344.292.366-3.133.366-6.485 2.415 0 0 7.069-8.856 9.4-14.784l-4.299 2.269s5.332-8.098 9.766-15.663l-3.28 1.903 8.017-15.883s4.445-9.514 7.943-10.978"/></g></svg>