<svg xmlns="http://www.w3.org/2000/svg" width="102.38" height="87.309" viewBox="0 0 102.38 87.309"><g fill="none" fill-rule="none" stroke-linecap="none" stroke-linejoin="none" stroke-miterlimit="10" stroke-width="none" data-paper-data="{&quot;isPaintingLayer&quot;:true}" font-family="none" font-size="none" font-weight="none" style="mix-blend-mode:normal" text-anchor="none"><g stroke-linejoin="miter" data-paper-data="{&quot;index&quot;:null}"><path fill="#b3e0d7" fill-rule="evenodd" stroke="#5e154d" stroke-linecap="butt" stroke-width=".72" d="M26.02 80.04a5.26 5.26 0 1 1 0-10.52 5.26 5.26 0 0 1 0 10.52z"/><path fill="#5e154d" fill-rule="nonzero" stroke="#5e154d" stroke-linecap="round" stroke-width=".96" d="M13.96 74.24c.325-6.603 5.929-11.7 12.533-11.399 6.605.302 11.721 5.89 11.442 12.495-.28 6.605-5.849 11.74-12.455 11.484a12 12 0 0 1-11.52-12.58zM25.8 79.4a4.625 4.625 0 1 0 .42-9.24 4.625 4.625 0 0 0-.42 9.24z"/><path fill="#fff" fill-rule="evenodd" stroke="#8b49d4" stroke-linecap="round" stroke-width=".72" d="M26.02 76.82a2.04 2.04 0 1 1 0-4.08 2.04 2.04 0 0 1 0 4.08z"/></g><g stroke-linejoin="miter" data-paper-data="{&quot;index&quot;:null}"><path fill="#b3e0d7" fill-rule="evenodd" stroke="#5e154d" stroke-linecap="butt" stroke-width=".72" d="M89.06 79.58a5.26 5.26 0 1 1 0-10.52 5.26 5.26 0 0 1 0 10.52z"/><path fill="#5e154d" fill-rule="nonzero" stroke="#5e154d" stroke-linecap="round" stroke-width=".96" d="M76.88 74.12c.325-6.603 5.929-11.7 12.533-11.398 6.605.301 11.721 5.888 11.442 12.494-.28 6.605-5.849 11.74-12.455 11.484a12 12 0 0 1-11.52-12.58zm11.86 5.16a4.62 4.62 0 1 0-4.42-4.84 4.64 4.64 0 0 0 4.42 4.84z"/><path fill="#fff" fill-rule="evenodd" stroke="#8b49d4" stroke-linecap="round" stroke-width=".72" d="M88.94 76.7a2.04 2.04 0 1 1 0-4.08 2.04 2.04 0 0 1 0 4.08z"/></g><g fill-rule="evenodd" data-paper-data="{&quot;index&quot;:null}"><path fill="#d974e8" d="M8.12 51.14c.863.103 1.714.291 2.54.56a45 45 0 0 0-3.1 3.32A23 23 0 0 0 5 59.12l-2-1.08a16.9 16.9 0 0 1 5.12-6.9"/><path fill="#8b49d4" d="M10.66 51.7c.805.236 1.583.558 2.32.96l-5.82 7.62-2-1.16a23 23 0 0 1 2.56-4.1 45 45 0 0 1 2.94-3.32"/><path stroke="#5e154d" stroke-linecap="round" stroke-linejoin="round" stroke-width=".72" d="M8.12 51.14c.863.103 1.714.291 2.54.56.806.236 1.583.558 2.32.96l-5.82 7.62-2-1.16-2-1.08a16.9 16.9 0 0 1 4.96-6.9"/><path fill="#5e154d" stroke="#5e154d" stroke-linecap="round" stroke-linejoin="round" stroke-width=".72" d="m72.98 65.5-4 8.3H44.9v-4.76h20.4a2.4 2.4 0 0 0 2.16-1.26c.2-.5 2-4 2-4z"/><path fill="#d974e8" stroke="#5e154d" stroke-linecap="butt" stroke-linejoin="round" stroke-width=".96" d="m97.16 61.96-5-2.36 1.08-2.28a8 8 0 0 1 6.18-.26z"/><path fill="#d974e8" d="M66.36 59.28c.56-1.26 4.66-10 5.18-11.02s1-1.3 1.84-1.3h2.76l-8.32 17.42a4.3 4.3 0 0 1-1.46-5.1"/><path fill="#8b49d4" d="M80.98 46.96 71.8 66.64a38 38 0 0 1-4-2.26l8.32-17.42z"/><path stroke="#5e154d" stroke-linecap="round" stroke-linejoin="round" stroke-width=".72" d="M66.36 59.28c.56-1.26 4.66-10 5.18-11.02s1-1.3 1.84-1.3h7.6L71.8 66.64a38 38 0 0 1-4-2.26 4.3 4.3 0 0 1-1.44-5.1"/><path fill="#fdbb38" stroke="#5e154d" stroke-linecap="butt" stroke-linejoin="round" stroke-width=".96" d="m96.2 61.44 1.22-2.7c.34-.92 1.2-2.06 2-1.68s.7 1.44.14 2.68l-1.22 2.72z"/><path fill="#8b49d4" stroke="#5e154d" stroke-linecap="round" stroke-linejoin="round" stroke-width=".96" d="M85.04 31.48h-3.86c-1.08 0-1.6.68-1.32 2s2.94 14.14 4.28 16.46a19.4 19.4 0 0 0 4.9 4.96v6.74h-8s-6.08 10.26-7.4 12.58c-1.12 1.98-1.42 2.82-3.68 2.82H34.84l-1.28-4.96H3.28a32.7 32.7 0 0 1 16-24.24h30.16s-4.82 7.3-5.54 13.8c-.68 6.16 3.44 10.44 5.06 10.44h17.06c1.76 0 2.2-.22 3.34-2.22.94-1.48 7-12.96 8-15.2a11.14 11.14 0 0 0 .2-7.34c-.62-3.26-4.8-20.24-5.28-22.16s0-3.14 2-3.14h8.52z"/><path fill="#8b49d4" stroke="#5e154d" stroke-linecap="round" stroke-linejoin="round" stroke-width=".96" d="M13.96 74.24h-12c-1.2 0-1.48-.34-1.48-1.52v-2.68c0-1.14.44-1.54 1.58-1.54h12z"/><path fill="#da53d6" stroke="#5e154d" stroke-linecap="butt" stroke-linejoin="round" stroke-width="1.2" d="M38.5 73.06c-1.86 1.44-4.3 1.2-15.86 1.2h-9.7a4.68 4.68 0 0 1-4.82-5.08c0-6.34 7.86-15.06 17.74-15.06a14.42 14.42 0 0 1 14 8.9c1.64 4.24 1.3 7.92-1.36 10.04z"/><path fill="#fdbb38" stroke="#5e154d" stroke-linecap="butt" stroke-linejoin="round" stroke-width=".96" d="M87.16 26.54c.58 2.14.4 4.94-2 4.94s-3.92-2.3-4.32-4.34 0-5.12 2-5.12c2.1 0 3.74 2.38 4.32 4.52z"/><path fill="#fff" stroke="#fde982" stroke-linecap="butt" stroke-linejoin="round" stroke-width=".5" d="M85.16 26.54c.3 1.06.38 2.34-.52 2.5s-1.58-1.2-1.84-2.14-.28-2.18.5-2.28c.96-.12 1.56.86 1.86 1.92z"/><path fill="#da53d6" stroke="#5e154d" stroke-linecap="butt" stroke-linejoin="round" stroke-width=".96" d="M96.98 70.52a9.3 9.3 0 0 0-8-3.44 8.2 8.2 0 0 0-7.82 7.24h-8.3a28.9 28.9 0 0 1 3.24-9.66 14 14 0 0 1 12.96-6.76 16.22 16.22 0 0 1 12.84 6.78z"/><path fill="#f7c1d8" d="M18.38 39.92c.24-1.8 1.06-2.68 3.3-2.52s24.82 2 27.38 2.26c2.18.22 2.94.64 2.94 2.42v1.38L18.24 41.1c.06-.46.1-.86.14-1.18"/><path fill="#d974e8" d="M18.24 41.1 52 43.46v3.74c0 1.68-.54 2.34-2.24 2.34H20.24c-1.68 0-3.06-.26-2.72-2.34.26-1.6.52-4.26.72-6.1"/><path stroke="#5e154d" stroke-linecap="round" stroke-linejoin="round" stroke-width=".96" d="M17.52 47.2c.26-1.66.52-4.26.72-6 0-.46 0-.86.14-1.18.24-1.8 1.06-2.68 3.3-2.52s24.82 2 27.38 2.26c2.18.22 2.94.64 2.94 2.42v5.02c0 1.68-.54 2.34-2.24 2.34H20.24c-1.68.06-3.08-.26-2.72-2.34"/><g stroke-linecap="butt" stroke-linejoin="miter"><path stroke="#fff" stroke-width="1.2" d="M12.92 65.48a8.7 8.7 0 0 1 .8-1.5M15.24 62.2a13.46 13.46 0 0 1 6.14-4M77.88 67.6c.36-.62.28-.62.68-1.22M79.82 64.48a9.72 9.72 0 0 1 5.34-3.24"/><path stroke="#d974e8" stroke-width=".96" d="M50.9 75.02h1.78M63.64 75.02h-9.28"/></g></g><path fill="#fdbb38" fill-rule="evenodd" stroke="#fdbb38" stroke-linecap="butt" stroke-linejoin="round" stroke-width=".5" d="m30.9 63.2 2.58.38-1.88 1.8.44 2.58-2.3-1.22-2.3 1.22.44-2.58-1.86-1.8 2.58-.38 1.14-2.34z" data-paper-data="{&quot;index&quot;:null}"/><g fill-rule="evenodd" data-paper-data="{&quot;index&quot;:null}"><path fill="#8b49d4" stroke="#5e154d" stroke-linecap="round" stroke-linejoin="round" stroke-width=".72" d="M66.46 9.06 66.74.4s4 4.36 4 8.66-4 8.66-4 8.66l-.28-8.64z"/><path fill="#8b49d4" stroke="#5e154d" stroke-linecap="round" stroke-linejoin="round" stroke-width=".72" d="M74.62 22.02s-.88-6.1-1.2-6.66a22.8 22.8 0 0 0-3.54-2.5l.72-2.24s4.26 2.42 4.82 3.86a73 73 0 0 1 1.52 7.54z"/><path fill="#d4fff5" d="M61.66 2.16c0-1.16-.2-1.8-.2-1.8h5.3c.396 2.884.61 5.79.64 8.7v2c0 1.88-.2 3.46-.32 4.6s-.28 2-.28 2h-5.3c.31-2.89.47-5.794.48-8.7-.04-2.92-.18-5.36-.32-6.8"/><path fill="#b3e0d7" d="m62.94.36 4 15.38c-.14 1.28-.28 2-.28 2L62.02.34zM66.76.36c.396 2.884.61 5.79.64 8.7v2L64.54.28z"/><path fill="#d4fff5" d="m64.5.36 2.86 10.78c0 1.88-.2 3.46-.32 4.6l-4-15.38zM61.46.36h.66l4.64 17.4h-.94l-4.16-15.6c-.1-1.16-.2-1.8-.2-1.8"/><path fill="#b3e0d7" d="M61.94 9.06c0-3.02-.14-5.4-.28-6.9l4.16 15.6h-4.36c.31-2.89.47-5.794.48-8.7"/><path stroke="#5e154d" stroke-linecap="round" stroke-linejoin="round" stroke-width=".72" d="M61.66 2.16c0-1.16-.2-1.8-.2-1.8h5.3c.396 2.884.61 5.79.64 8.7v2c0 1.88-.2 3.46-.32 4.6s-.28 2-.28 2h-5.3c.31-2.89.47-5.794.48-8.7-.04-2.92-.18-5.36-.32-6.8"/></g><g fill-rule="evenodd" data-paper-data="{&quot;index&quot;:null}"><path fill="#f7c1d8" d="m70.74 32.826-6.16-.346a1.6 1.6 0 0 1 1.54-1.6h5.46c.62 0 2-2 2.78-2.94a2.12 2.12 0 0 1 2-.92c.238.037.902.42 1.082.579-1.38 1.6-3.8 4.303-4.08 4.643s-1.362.584-2.622.584"/><path fill="#d974e8" d="M70.78 32.48c1.26 0 1.78 0 2.26-.52s2.68-3.02 4-4.62a1.62 1.62 0 0 1 .12 2.36c-.72.86-1.14 1.34-2 2.24-1.08 1.22-1.9 2-2.7 2h-6.5a1.58 1.58 0 0 1-1.54-1.56h6.2z"/><path stroke="#5e154d" stroke-linecap="round" stroke-linejoin="round" stroke-width=".72" d="M64.58 32.48a1.6 1.6 0 0 1 1.54-1.6h5.46c.62 0 2-2 2.78-2.94a2.12 2.12 0 0 1 2-.92c.238.037.46.141.64.3a1.62 1.62 0 0 1 .16 2.38c-.72.86-1.14 1.34-2 2.24-1.08 1.22-1.9 2-2.7 2h-6.5c-.85-.021-1.41-.61-1.42-1.46z"/></g></g></svg>