<svg xmlns="http://www.w3.org/2000/svg" xml:space="preserve" width="289.905" height="89" viewBox="4.595 16.4 289.905 89"><title>shark-b</title><g fill-rule="nonzero"><path fill="#6da3b2" d="M186.6 70.9c4.9 2.2 5.2 23.2 5.2 29.2 0 .7.8.8 1.4.3C215.5 80.6 212 56.2 212 56.2c-9.4-.4-18 3.8-25.4 14.7"/><path fill="#6c8d9c" d="M186.8 70.8s.4.3.8 1c.5.7 1 1.7 1.4 3.1.9 2.7 1.3 6.4 1.6 10.2.2 1.9.3 3.8.4 5.5.1 1.8.3 3.4.4 4.8.2 2.8.4 4.7.4 4.7v-4.7c0-1.4-.1-3.1-.2-4.8-.1-1.8-.2-3.7-.4-5.5-.1-.9-.2-1.9-.3-2.8s-.2-1.8-.4-2.7c-.1-.9-.3-1.7-.5-2.5s-.4-1.5-.7-2.2c-.5-1.3-1.1-2.4-1.6-3-.5-.8-.9-1.1-.9-1.1M212 56.2s.1.8.2 2.1v2.4c0 .9-.1 2-.2 3.1s-.3 2.4-.5 3.7c-.3 1.3-.5 2.7-.9 4.1-.2.7-.3 1.4-.6 2.1-.2.7-.5 1.4-.7 2.1-.1.4-.2.7-.4 1.1l-.4 1.1-.9 2.1c-.6 1.4-1.3 2.8-2 4.1-.8 1.3-1.5 2.6-2.3 3.8s-1.6 2.3-2.4 3.4c-.7 1.1-1.6 2-2.3 2.9s-1.4 1.7-2 2.4-1.2 1.3-1.7 1.8c-.9 1-1.5 1.5-1.5 1.5s.6-.5 1.5-1.5c.5-.5 1.1-1 1.8-1.7.7-.6 1.4-1.4 2.2-2.3.7-.9 1.6-1.8 2.4-2.9s1.6-2.2 2.5-3.4c.8-1.2 1.5-2.5 2.3-3.8.7-1.4 1.4-2.7 2.1-4.2.3-.7.6-1.4.9-2.2l.4-1.1c.1-.4.2-.7.4-1.1.2-.7.5-1.5.7-2.2s.4-1.4.5-2.1c.4-1.4.6-2.8.8-4.1s.3-2.6.4-3.7c0-.6.1-1.1.1-1.7v-1.5c0-.9-.1-1.8-.1-2.4-.2-1.2-.3-1.9-.3-1.9"/><path fill="#93bcc7" d="M54.9 61.3c-5.4 0-9.6-2.2-15.4-10.6C34 42.6 23.6 28.8 6.6 23.3c-1-.3-1.8.7-1.4 1.6 1.2 2.7 5.7 8.6 8.5 12.5 7.2 9.9 7.1 16.7 7.4 22.8.4 7.5-6.8 22.4-11.7 29.3-.6.9.2 1.9 1.3 1.7 7.7-1.7 15.8-4.9 23.1-11.1 9.3-7.8 14.4-10.7 20.7-10.6"/><path fill="#6c8d9c" d="M50.7 60.7s-.8-.4-2.3-1.1c-.7-.4-1.5-.9-2.3-1.6-.4-.4-.8-.8-1.2-1.3s-.9-.9-1.3-1.5c-.4-.5-.9-1.1-1.2-1.7-.4-.6-.8-1.3-1.2-2-.8-1.4-1.7-2.8-2.8-4.2-1-1.4-2.1-2.9-3.3-4.3l-3.6-4.2c-1.3-1.3-2.6-2.7-4-3.9-1.3-1.2-2.7-2.4-4.1-3.5-2.8-2.1-5.6-3.8-8.1-5.1s-4.7-2.1-6.2-2.6c-.8-.3-1.4-.4-1.8-.5s-.6-.2-.6-.2.2.1.6.2 1 .4 1.7.7c1.5.6 3.5 1.7 5.9 3.1 1.2.7 2.5 1.5 3.8 2.4q1.95 1.35 3.9 3c1.3 1.1 2.7 2.2 4 3.5q1.95 1.8 3.9 3.9c2.5 2.7 4.8 5.5 6.9 8.2 1 1.4 2 2.7 2.9 4 .4.7.9 1.3 1.3 1.9s.9 1.2 1.4 1.7c1 1 1.9 1.9 2.8 2.6s1.8 1.2 2.6 1.5q1.2.45 1.8.6c.3.3.5.4.5.4M7.2 28.1s.1.2.4.6c.2.4.6 1 1.1 1.8 1 1.5 2.4 3.6 4.2 6.1.9 1.3 1.8 2.6 2.7 4.1s1.8 3.1 2.5 4.8 1.3 3.6 1.7 5.5.6 3.9.7 5.9q.15 3-.3 6T19 68.6c-1 3.6-2.4 7-3.7 9.7-1.3 2.8-2.5 5-3.3 6.6-.9 1.6-1.4 2.5-1.4 2.5s.1-.2.4-.6.7-1 1.2-1.7c1-1.5 2.4-3.7 3.8-6.4s3-6 4.1-9.7c.6-1.8 1.1-3.8 1.3-5.9.3-2 .4-4.1.4-6.2-.1-2.1-.3-4.2-.8-6.2-.4-2-1.1-3.9-1.9-5.7s-1.7-3.4-2.8-4.9c-1-1.5-2-2.8-3-4-1.9-2.4-3.5-4.4-4.6-5.8-.9-1.3-1.5-2.2-1.5-2.2M49.3 70s-.2 0-.5.1-.8.2-1.3.4c-1.1.4-2.7 1.1-4.5 2.1s-3.7 2.4-5.8 3.9-4.2 3.1-6.4 4.7c-1.1.8-2.2 1.5-3.3 2.3-1.1.7-2.2 1.4-3.3 2S22 86.7 21 87.2s-2 1-2.9 1.4-1.8.7-2.5 1c-.8.3-1.4.5-2 .7-1.1.3-1.8.6-1.8.6s.7-.1 1.8-.3c.6-.1 1.3-.3 2.1-.5s1.7-.4 2.7-.8c1-.3 2-.7 3.1-1.2.5-.2 1.1-.5 1.6-.7.6-.3 1.1-.6 1.7-.8 1.1-.6 2.3-1.2 3.4-2 1.1-.7 2.3-1.5 3.4-2.2 2.2-1.6 4.3-3.3 6.3-4.8 2-1.6 3.9-3 5.5-4.2s3.1-2.1 4.1-2.5c1.1-.7 1.8-.9 1.8-.9"/><path fill="#aedeeb" d="M105.8 85c-7.4 0-14.5 3-17.8 3.4-3.4.3.7-5.7-1-8.4"/><path fill="#648f9e" d="M101.1 85.3h-.9q-.9 0-2.4.3c-1 .2-2.1.4-3.4.6-1.2.3-2.5.6-3.8.9-.6.2-1.3.3-1.9.5s-1.3.3-1.4.1c-.1 0-.2-.5-.1-1s.2-1.1.2-1.6c.2-2 .1-3.4.1-3.4s-.3 1.3-.8 3.2c-.1.5-.3 1-.5 1.5-.1.3-.1.6-.1 1s.2 1 .7 1.3.9.3 1.3.3.7-.1 1.1-.2c.6-.1 1.3-.3 2-.4 1.3-.3 2.6-.7 3.8-1.1s2.3-.7 3.2-1 1.7-.6 2.3-.8z"/><path fill="#aedeeb" d="M83.3 79c-5.6 0-10.9 2.3-13.5 2.5-2.5.3.5-4.3-.8-6.4"/><path fill="#648f9e" d="M80 79.2h-.8c-.5 0-1.2.1-2 .3-.8.1-1.8.3-2.7.6-1 .2-2 .5-3.1.7-.5.1-1 .2-1.5.2h-.4l.1.1-.1-.1v-.1c-.1-.3 0-.8 0-1.3.1-.5.1-.9.1-1.3.1-.8-.1-1.6-.2-2.1-.2-.5-.4-.7-.4-.7s.1.3.1.7c0 .5-.1 1.1-.3 1.9-.1.4-.2.8-.4 1.3-.1.5-.3 1-.2 1.6 0 .1.1.4.2.6 0 .1.1.1.1.2l.1.1.2.2c.5.3.8.3 1.1.3.6 0 1.2-.1 1.7-.2 2.2-.4 4.3-1.2 5.8-1.8.8-.3 1.4-.6 1.8-.8z"/><path fill="#93bcc7" d="M177.4 37.3c-3 .4-6.4.3-9.2-3.9-2.8-4.1-19-19.7-33.8-15.6-1.9.5 1.2.4 4.2 6.2s2.6 14.7-3.5 17.5"/><path fill="#6c8d9c" d="M174 37.1s-.2 0-.5-.1-.8-.1-1.3-.4c-.5-.2-1.1-.6-1.7-1.2q-.9-.9-1.8-2.1c-.6-.8-1.3-1.7-2-2.6-.8-.9-1.6-1.9-2.5-2.8-1.8-1.8-4-3.6-6.3-5.2-1.2-.8-2.3-1.5-3.5-2.1-1.2-.7-2.4-1.2-3.6-1.7-2.4-1-4.8-1.5-6.9-1.8-1-.1-2-.2-2.8-.2s-1.6 0-2.2.1c-.6 0-1.1.1-1.4.2-.3 0-.5.1-.5.1h1.9c1.2 0 2.9.2 4.9.6s4.2 1.1 6.5 2.1 4.7 2.3 6.9 3.8 4.3 3.2 6.2 4.9c.9.9 1.8 1.7 2.6 2.6s1.5 1.7 2.2 2.5c1.4 1.5 2.8 2.7 4 3 .6.2 1.1.2 1.4.2.3.1.4.1.4.1M137 40.3s.1 0 .2-.1.4-.2.6-.4.5-.5.9-.8q.45-.45.9-1.2c.6-1 1.1-2.2 1.4-3.6.1-.7.2-1.4.2-2.2 0-.7-.1-1.5-.1-2.2-.2-1.5-.5-3-1-4.3s-1.2-2.5-1.9-3.3c-.7-.9-1.4-1.5-1.9-1.9s-.8-.6-.8-.6.2.3.6.8q.6.75 1.5 2.1c.5.9 1.1 2 1.4 3.3.2.6.3 1.3.5 2l.3 2.1c.1.7.2 1.4.2 2.1s0 1.4-.1 2-.2 1.3-.4 1.8c-.2.6-.3 1.1-.6 1.6-.4 1-.9 1.7-1.3 2.2-.3.4-.6.6-.6.6"/><path fill="#93bcc7" d="M265.4 56.2c1.2-5.6-35.1-20.1-89.4-19.3-54.4.8-101 21.2-123.8 24.6-7.9 1.2-9.1 6 1.2 7.9s36.5 19 87.7 21.4 102.4-7.5 105.9-19c0 0 17.5-11.3 18.4-15.6"/><path fill="#aedeeb" d="M58.9 70.1c5.4-.5 4.6 3.5 9.8 2.4s9 1.9 13.3 3.3 8.7-.8 13.3-.8 5.4 4.1 9 4.1c3.5 0 9 3 13.3 4.3 4.3 1.4 12.8-5.2 15.5-6.2 2.7-1.1 6.8-.3 9.8.5s7.1-3.5 14.9-1.4c7.9 2.2 29.1 14.9 33.9 6.8s16-11.7 19.3-11.7 3.3-.8 5.2-1.9 6 4.1 8.1.3c2.2-3.8 6.2-3.6 8.6-3.3s3.6-6.6 10.4-7.5c6.8-.8 11.4.6 15.2-1.3 2.3-1.2 4.2-2.1 6.8-2.7.2.4.3.8.2 1.1-1 4.4-18.5 15.7-18.5 15.7-3.6 11.5-54.8 21.4-105.9 19C95 88.7 69.2 74.6 57 70.4c.6-.1 1.2-.3 1.9-.3"/><path fill="#6c8d9c" d="M264.4 54.1s-.3-.3-.9-.8-1.5-1.2-2.8-2c-2.5-1.6-6.3-3.6-11.1-5.3s-10.5-3.3-16.8-4.5c-6.2-1.2-12.9-2.2-19.6-3.1-6.7-.8-13.5-1.4-19.8-1.7s-12.3-.3-17.3-.1c-2.5.1-4.9.2-6.9.3-2.1.1-3.8.3-5.3.4-2.9.3-4.6.5-4.6.5s1.7-.1 4.6-.3 7.2-.2 12.2-.3c2.5 0 5.3 0 8.2.1s5.9.3 9.1.4c6.3.3 13 1 19.7 1.9 6.7.8 13.4 1.7 19.6 2.9 3.1.6 6.1 1.2 8.9 1.8 2.8.7 5.4 1.4 7.8 2.2 4.8 1.5 8.6 3.3 11.2 4.8 1.3.7 2.2 1.4 2.9 1.9.5.7.9.9.9.9M147.3 39.1h-.8c-.5 0-1.2 0-2.2.1-1.9.1-4.6.4-7.7.9-3.2.5-6.9 1.1-10.8 1.9s-8.1 1.7-12.3 2.7c-2.1.5-4.2 1-6.2 1.5q-3.15.75-6 1.5c-3.9 1-7.5 2.1-10.6 3.1-3.1.9-5.6 1.9-7.4 2.5s-2.8 1-2.8 1 1-.3 2.8-.8 4.4-1.2 7.5-2 6.7-1.7 10.6-2.6 8.1-1.9 12.3-2.8c4.2-1 8.3-1.9 12.3-2.8 3.9-.9 7.6-1.7 10.7-2.3s5.8-1.1 7.6-1.4c1.9-.4 3-.5 3-.5"/><path fill="#648f9e" d="M229.8 82.3s-.5.1-1.5.4c-1 .2-2.3.6-4.1 1s-3.9.9-6.5 1.4c-1.2.3-2.6.5-4 .7s-2.9.5-4.4.8c-3.1.5-6.5 1-10 1.4-3.6.4-7.3.8-11.2 1.1-7.8.7-16.2 1.1-24.5 1.3-8.3.3-16.7 0-24.5-.4-3.9-.2-7.7-.5-11.3-.8s-7-.6-10.1-1c-1.6-.2-3-.4-4.5-.6-1.4-.2-2.8-.4-4-.6-1.3-.2-2.4-.4-3.5-.6q-1.65-.3-3-.6c-.9-.2-1.7-.4-2.4-.5-.7-.2-1.3-.3-1.7-.5-.9-.3-1.5-.4-1.5-.4s.5.2 1.4.5c.5.2 1 .3 1.7.6q1.05.3 2.4.6c.9.3 1.9.5 3 .7 1.1.3 2.2.5 3.5.8s2.6.5 4 .8 2.9.5 4.5.7c3.1.5 6.5.9 10.1 1.3s7.4.7 11.3 1c7.8.5 16.2.8 24.6.6 8.4-.3 16.8-.7 24.6-1.5 3.9-.4 7.7-.8 11.3-1.3s6.9-1 10-1.6 5.9-1.1 8.4-1.8c2.5-.6 4.6-1.2 6.4-1.6 1.8-.5 3.1-.9 4.1-1.2.9-.6 1.4-.7 1.4-.7M90.8 82.6s-1-.3-2.4-.8c-.7-.2-1.5-.5-2.4-.8s-1.9-.6-2.8-.9c-1-.3-1.9-.6-2.8-.9s-1.8-.5-2.5-.7c-1.5-.4-2.4-.7-2.4-.7s.9.4 2.3 1q1.05.45 2.4.9c.9.3 1.9.6 2.8 1 1 .3 1.9.6 2.8.9s1.8.5 2.5.6c1.5.2 2.5.4 2.5.4M71.9 76.5s-1-.5-2.5-1.2c-.7-.3-1.6-.8-2.6-1.2-.9-.4-2-.8-3-1.3l-3-1.2q-1.5-.6-2.7-.9c-.8-.3-1.4-.4-1.9-.6-.5-.1-.7-.2-.7-.2s.3.1.7.3 1.1.5 1.8.8c.8.3 1.6.7 2.6 1.1.9.4 2 .8 3 1.3l3 1.2c1 .4 1.9.7 2.6 1 1.6.6 2.7.9 2.7.9M247.4 71.7s-.3-.1-.8-.2q-.75-.15-2.1-.3c-.4 0-.9-.1-1.4-.1h-1.6c-1.1 0-2.3.2-3.4.4s-2.3.4-3.3.7c-1.1.3-2 .6-2.8.9-1.6.6-2.7 1.2-2.7 1.2s1.2-.2 2.9-.5 3.9-.7 6.2-1.1c.6-.1 1.1-.2 1.7-.3s1.1-.2 1.6-.2c.5-.1 1-.2 1.5-.2s.9-.1 1.4-.2c.8-.1 1.6-.2 2.1-.2.4.1.7.1.7.1"/><path fill="#6c8d9c" d="M199.3 59.6s-.2.3-.4.8c-.1.2-.3.6-.4.9-.1.4-.3.8-.4 1.2-.1.5-.3 1-.4 1.5s-.2 1.1-.3 1.7c0 .6-.1 1.2 0 1.9 0 .6.1 1.3.2 1.9s.3 1.3.4 1.9.4 1.2.7 1.8c.2.6.6 1.1.8 1.5.3.5.6.9.9 1.3s.6.7.9 1l.7.7c.4.4.7.6.7.6s-.2-.3-.5-.7c-.1-.2-.3-.5-.5-.8s-.4-.7-.6-1.1-.5-.8-.7-1.3-.5-1-.6-1.5c-.2-.5-.4-1.1-.5-1.7-.2-.6-.3-1.1-.4-1.7s-.2-1.2-.2-1.8c-.1-.6 0-1.2-.1-1.7 0-.6 0-1.1.1-1.6 0-.5.1-1 .1-1.5.1-.9.2-1.7.4-2.2 0-.8.1-1.1.1-1.1M195.4 59.6s-.2.3-.4.8c-.1.2-.3.6-.4.9-.1.4-.3.8-.4 1.2-.1.5-.3 1-.4 1.5s-.2 1.1-.3 1.7c0 .6-.1 1.2 0 1.9 0 .6.1 1.3.2 1.9s.3 1.3.4 1.9.4 1.2.7 1.8c.2.6.6 1.1.8 1.5.3.5.6.9.9 1.3s.6.7.9 1l.7.7c.4.4.7.6.7.6s-.2-.3-.5-.7c-.1-.2-.3-.5-.5-.8s-.4-.7-.6-1.1-.5-.8-.7-1.3-.5-1-.6-1.5c-.2-.5-.4-1.1-.5-1.7-.2-.6-.3-1.1-.4-1.7s-.2-1.2-.2-1.8c-.1-.6 0-1.2-.1-1.7 0-.6 0-1.1.1-1.6 0-.5.1-1 .1-1.5.1-.9.2-1.7.4-2.2.1-.8.1-1.1.1-1.1M190.5 59.6s-.2.3-.4.8c-.1.2-.3.6-.4.9-.1.4-.3.8-.4 1.2-.1.5-.3 1-.4 1.5s-.2 1.1-.3 1.7c0 .6-.1 1.2 0 1.9 0 .6.1 1.3.2 1.9s.3 1.3.4 1.9.4 1.2.7 1.8c.2.6.6 1.1.8 1.5.3.5.6.9.9 1.3s.6.7.9 1l.7.7c.4.4.7.6.7.6s-.2-.3-.5-.7c-.1-.2-.3-.5-.5-.8s-.4-.7-.6-1.1-.5-.8-.7-1.3-.5-1-.6-1.5c-.2-.5-.4-1.1-.5-1.7-.2-.6-.3-1.1-.4-1.7s-.2-1.2-.2-1.8c-.1-.6 0-1.2-.1-1.7 0-.6 0-1.1.1-1.6 0-.5.1-1 .1-1.5.1-.9.2-1.7.4-2.2 0-.8.1-1.1.1-1.1"/><path fill="#93bcc7" d="M259.2 41.6c-9.8.7-45.1 7.7-48 9.8-3.9 2.9-5.8 17.1 6.5 15.1 12-1.9 28-8 47.4-8.4 10.3 0 33.4-.8 28.1-13.6-2-4.7-22.6-3.7-34-2.9"/><path fill="#6c8d9c" d="M294 48.7s-.1-.4-.1-1.1c0-.4-.1-.8-.1-1.3s-.1-1.1-.4-1.8c-.3-.6-.9-1.2-1.6-1.6s-1.6-.7-2.5-.9c-1.8-.5-4-.8-6.3-1l-3.6-.3c-1.2-.1-2.5-.1-3.9-.2h-4.1c-1.4 0-2.8.1-4.3.1-5.8.3-12 .9-18.1 1.8-6.1 1-12.2 2.2-17.8 3.4-2.8.6-5.6 1.2-8.1 1.8-2.6.6-5 1.3-7.2 1.9-1.1.3-2.2.6-3.2 1-.5.2-1 .3-1.5.6s-.8.7-1.1 1.1c-1.1 1.7-1.4 3.3-1.6 4.6s-.2 2.4-.1 3.1.3 1.1.3 1.1-.1-.4-.2-1.1 0-1.8.3-3.1.7-2.9 1.8-4.4c.3-.4.6-.7 1-.9.3-.2.9-.3 1.4-.5 1-.3 2.1-.6 3.2-.9 4.5-1.1 9.8-2.2 15.4-3.3 5.7-1.1 11.7-2.3 17.8-3.2 6.1-1 12.2-1.7 17.9-2 2.9-.2 5.7-.3 8.3-.3h3.8c1.2.1 2.4.1 3.6.2 2.3.1 4.4.3 6.2.7s3.4 1 4 2.2c.3.6.4 1.2.5 1.7s.1 1 .2 1.3c0 .9.1 1.3.1 1.3"/><ellipse cx="80.7" cy="18.7" fill="#212f33" rx="1.7" ry="3" transform="matrix(-1 0 0 1 294 40)"/><path fill="#6c8d9c" d="M209 62.7s.1.1.2.4l.5 1c.2.4.5.9 1 1.4.4.5 1 1 1.8 1.4q1.2.6 2.7.6c1 .1 2-.1 3-.3 2-.4 4-.9 6.1-1.4s4.1-1 6.1-1.5c1.9-.5 3.7-1 5.3-1.5 1.5-.4 2.8-.9 3.7-1.2s1.4-.5 1.4-.5-.5.1-1.5.2c-.9.2-2.2.4-3.8.6-1.6.3-3.4.7-5.4 1.1s-4 .9-6.1 1.4-4.1 1-6.1 1.5c-.9.2-1.8.5-2.7.5q-1.35 0-2.4-.3c-1.4-.5-2.3-1.5-2.9-2.2-.5-.8-.9-1.2-.9-1.2M293.3 51.3s-.3.2-.8.6c-.5.3-1.3.8-2.2 1.2-.5.2-1 .5-1.5.7s-1.1.5-1.7.7-1.2.4-1.9.7c-.6.2-1.3.4-2 .6-1.3.4-2.7.7-3.9.9-.6.1-1.3.2-1.8.3-.6.1-1.1.2-1.7.3-.5.1-1 .2-1.4.2-.4.1-.8.1-1.1.1-.6.1-1 .1-1 .1s.4.1 1 .1c.6.1 1.5.2 2.6.2h1.7c.6 0 1.3 0 1.9-.1.7-.1 1.4-.1 2-.3.7-.1 1.4-.3 2.1-.5s1.4-.4 2-.6c.7-.2 1.3-.5 1.9-.8s1.2-.6 1.7-.9l1.5-.9c.9-.6 1.5-1.2 2-1.7.2-.2.4-.4.5-.6z"/><path fill="#93bcc7" d="M159.4 75.7c2.6 5.2-11.4 22.8-15.4 27.8-.5.6.1 1.2 1 1.2 32-1.4 45.6-24.1 45.6-24.1-7.6-6.7-17.6-9-31.2-4.9"/><path fill="#6c8d9c" d="M159.6 75.7s.1.5 0 1.4-.5 2.1-1 3.4c-.3.7-.6 1.4-1.1 2.2-.4.8-.9 1.5-1.4 2.3s-1 1.6-1.6 2.4-1.1 1.7-1.7 2.5c-1.1 1.7-2.3 3.3-3.3 4.9-1.1 1.6-2 3-2.9 4.3-.8 1.3-1.5 2.3-2 3.1-.5.7-.7 1.2-.7 1.2s.4-.4.9-1c.6-.7 1.4-1.6 2.4-2.8s2.1-2.6 3.2-4.1c.6-.8 1.2-1.5 1.7-2.4.6-.8 1.2-1.6 1.7-2.5.6-.8 1.1-1.7 1.6-2.5s1-1.7 1.5-2.5.9-1.7 1.2-2.5c.4-.8.6-1.6.9-2.3.4-1.5.6-2.8.6-3.7.2-.9 0-1.4 0-1.4M190.5 80.6s-.1.2-.3.5-.6.8-1 1.3c-.5.6-1 1.3-1.7 2-.3.4-.7.8-1.1 1.2s-.8.8-1.2 1.3c-.4.4-.9.9-1.4 1.3s-1 .9-1.5 1.4c-1.1.9-2.2 1.9-3.5 2.7-.6.4-1.2.9-1.9 1.4-.7.4-1.3.8-2 1.3-.3.2-.7.4-1 .6l-1.1.6c-.7.4-1.4.8-2.2 1.2-1.5.7-3 1.4-4.4 2.1-1.5.6-3 1.1-4.4 1.7-1.5.4-2.9.9-4.3 1.3-.7.2-1.4.3-2 .5-.6.1-1.3.3-1.9.4-1.2.3-2.3.6-3.3.7-1 .2-1.9.3-2.6.4-1.4.2-2.3.4-2.3.4s.8 0 2.3-.1c.7 0 1.6-.1 2.6-.2 1 0 2.1-.2 3.4-.4 1.2-.2 2.6-.3 4-.7s2.9-.7 4.4-1.1c1.5-.5 3-1.1 4.6-1.6 1.5-.7 3-1.3 4.6-2.1.7-.4 1.5-.8 2.2-1.2l1.1-.6c.4-.2.7-.5 1-.7.7-.5 1.4-.9 2-1.4.7-.5 1.3-1 1.9-1.4 1.3-.9 2.4-2 3.4-2.9 1-1 2-2 2.8-2.9.4-.5.8-.9 1.2-1.4.3-.5.7-.9 1-1.3.6-.8 1.1-1.6 1.5-2.2.8-1.4 1.1-2.1 1.1-2.1"/></g></svg>