<svg xmlns="http://www.w3.org/2000/svg" xml:space="preserve" style="fill-rule:evenodd;clip-rule:evenodd;stroke-linejoin:round;stroke-miterlimit:2" viewBox="0 -90 360 360"><path d="m127.589 121.742 13.651-2.45 2.8-7.279-15.261-2.662-1.259 6.721-2.321 2.339z" style="fill:#e4e2dc;fill-rule:nonzero" transform="translate(88.534 -78.757)scale(1.27)"/><path d="m127.604 121.746-2.327-3.494 2.259-2.185 1.269-6.697 1.297.208 6.621 10.502z" style="fill:#c1bebb;fill-rule:nonzero" transform="translate(88.534 -78.757)scale(1.27)"/><path d="m0 111.919 2.8 7.279 13.651 2.45 2.39-3.331-2.321-2.339-1.26-6.72z" style="fill:#e4e2dc;fill-rule:nonzero" transform="translate(88.534 -78.757)scale(1.27)"/><path d="m16.467 121.646 2.327-3.494-2.259-2.185-1.269-6.697-1.297.208-6.641 10.531z" style="fill:#c1bebb;fill-rule:nonzero" transform="translate(88.534 -78.757)scale(1.27)"/><path d="m3.89 173.884 1.68 19.532h19.321l3.991-19.742z" style="fill:#5c5e5f;fill-rule:nonzero" transform="translate(88.534 -65.638)scale(1.27)"/><path d="m24.052 173.674.84 19.742 5.992-19.742z" style="fill:#2a2b2a;fill-rule:nonzero" transform="translate(88.534 -65.638)scale(1.27)"/><path d="M117.358 193.416h19.35l1.68-19.321-24.993-.211z" style="fill:#5c5e5f;fill-rule:nonzero" transform="translate(88.534 -65.638)scale(1.27)"/><path d="m111.394 173.884 5.964 19.532.869-19.532z" style="fill:#2a2b2a;fill-rule:nonzero" transform="translate(88.534 -65.638)scale(1.27)"/><path d="M29.468 85.928 1.35 135.269l2.519 38.615 1.89.006 132.637.414 3.796-38.796-27.505-49.58z" style="fill:#e4e2dc;fill-rule:nonzero" transform="matrix(1.27 0 0 1.43704 88.534 -94.754)"/><path d="m32.958 89.498-15.629 22.27h107.925l-13.67-22.27z" style="fill:#313156;fill-rule:nonzero" transform="matrix(1.27 0 0 1.71196 88.534 -119.292)"/><path d="M31.032 89.668 19.48 111.806h20.63l22.058-22.138z" style="fill:#0f2342;fill-opacity:.3;fill-rule:nonzero" transform="translate(76.995 -120.495)scale(1.72213)"/><path d="M111.625 78.397h-3.656l-30.219 30.02h47.504z" style="fill:#0a1723;fill-opacity:.3;fill-rule:nonzero" transform="translate(88.534 -65.638)scale(1.27)"/><path d="m76.954 111.768 21.987-22.241h-6.14L71.23 111.768z" style="fill:#494a72;fill-rule:nonzero" transform="translate(56.053 -119.537)scale(1.71416)"/><path d="m200.645 135.387.867 14.5 28.119-.028 1.051-14.511z" style="fill:#f6f1e1;fill-rule:nonzero" transform="translate(-164.57 -71.315)scale(1.27)"/><path d="m230.683 135.348 7.571 12.829-8.623 1.682z" style="fill:#ef9c74;fill-rule:nonzero" transform="translate(-164.57 -71.315)scale(1.27)"/><path d="m341.445 135.387-1.263 14.458-27.344.014-1.052-14.511z" style="fill:#f6f1e1;fill-rule:nonzero" transform="translate(-164.57 -71.315)scale(1.27)"/><path d="m311.786 135.348-5.818 12.829 6.87 1.682z" style="fill:#ef9c74;fill-rule:nonzero" transform="translate(-164.57 -71.315)scale(1.27)"/><path d="m311.753 135.388-81.06-.043 7.604 12.831h67.715z" style="fill:#2a2b2a;fill-rule:nonzero" transform="translate(-164.57 -71.315)scale(1.27)"/><path d="m306.083 139.461-1.926 3.936-64.038.055-2.592-4.272z" style="fill:#5c5e5f;fill-rule:nonzero" transform="translate(-164.57 -71.315)scale(1.27)"/><path d="m611.277 135.387.926 14.5 27.214-.028 1.051-14.511z" style="fill:#f6f1e1;fill-rule:nonzero" transform="translate(-685.93 -71.403)scale(1.27)"/><path d="m611.276 135.375.911 14.51 27.848-.041-.4 5.4-33.867.578-2-25.202h37.567l-.3 4.849z" style="fill:#fec;fill-opacity:.7;fill-rule:nonzero" transform="translate(-685.93 -71.31)scale(1.27)"/><path d="m603.839 130.62 1.927 25.218 33.869-.578-.4 5.156-38.652 1.166-3.167-35.296 44.319-.083-.3 4.417z" style="fill:#fec;fill-opacity:.3;fill-rule:nonzero" transform="translate(-685.93 -71.31)scale(1.27)"/></svg>