<svg xmlns="http://www.w3.org/2000/svg" width="63.552" height="77.994" viewBox="-0.5 -0.5 63.552 77.994"><path fill="#0cc" d="M62.552 63.144c0 5.14-2.75 9.66-7.35 12.09-2.23 1.18-4.83 1.76-7.95 1.76-1.31 0-2.73-.1-4.34-.3-.12-.01-.24-.03-.36-.05-2.49-.39-3.64-.43-4.02-.43h-.12q-.24.03-.48.03c-.25.02-.61.06-1.1.11-1.3.17-2.44.25-3.49.25-.57 0-1.76.03-4.14.16h-.12c-.65.03-1.22.04-1.73.04-1.35 0-2.48-.09-3.51-.28-3.38-.58-6.38-2.33-8.48-4.98-2.52-3.16-3.05-6.32-3.05-8.42 0-2.73.85-5.33 2.39-7.52-1-.08-1.98-.2-2.94-.38-5.91-1.06-8.98-6.08-10.14-7.98a11 11 0 0 1-1.36-8.13c.2-.92.52-1.93 1.02-3.24a11.08 11.08 0 0 1 3.78-5.93c2.51-3.43 6.46-9.03 11.76-16.69 1.28-1.84 1.99-2.98 2.37-3.63.98-1.77 2.36-3.4 4.32-5.13 2-1.77 3.77-2.92 5.58-3.64q.51-.21 1.05-.36c2.54-.73 5.28-.65 7.91.23.24.07.47.16.7.25.42.07.85.16 1.26.27 2.76.75 5.16 2.24 6.94 4.31 2.6 3.04 3.15 6.67 3.35 10.14.02.33.03.67.02 1-.04 1.09-.05 3.24.08 7.32.02.37.04.78.06 1.22 7.03 1.48 10.68 7.32 10.68 13.1 0 1.27-.16 2.54-.5 3.9-.4 1.57-1.13 3.04-2.16 4.3a16 16 0 0 1-3.95 3.47c4.36 1.91 8.02 6.25 8.02 13.14"/><path fill="#fff" d="M50.055 65.514q-1.497.792-5.805.264-4.487-.703-6.686-.527-.353.001-2.023.176-1.32.176-2.199.176-1.583.001-4.749.176-2.025.09-2.815-.082-1.144-.165-1.803-.995-.66-.828-.66-1.573 0-1.326 1.495-2.197 1.495-.869 3.079-.869h6.596q.528 0 1.496-.267.174-3.198-.704-11.993-.001-1.421-.044-2.978-.045-1.554-.748-2.531-4.925.44-10.995 1.495-4.84.88-6.86.88-1.497 0-2.903-.264-1.055-.176-2.727-2.903.176-.79.968-2.727v-.264q.263 0 .704-.352 3.694-4.925 13.193-18.647 1.847-2.64 2.903-4.486.527-.967 2.022-2.287t2.375-1.671q.616-.176 1.407.088.529.264 1.056.439 1.407.264 1.495.264.968.265 1.496.88.527.616.703 3.606-.089 2.728.088 8.093.176 3.959.704 11.962.967.089 3.255-.176 2.639-.35 3.519-.352 3.253 0 3.254 2.463 0 .529-.176 1.231-1.584 1.935-4.485 1.935h-2.727q-1.055 0-1.847.265-.001 3.08.352 9.235.528 7.126 1.056 8.796 2.374-.087 7.037.088 2.198.177 2.198 3.255 0 1.583-1.495 2.374M34.398 36.928q-.791-7.3-.968-15.833-.177 0-.264-.088.264-.263.264-.44 0-.087-.264-.527-.177-.35 0-.616.264-.35.264-.879-1.232 1.232-2.463 3.254-2.025 3.256-2.374 3.783-3.344 4.399-8.444 12.402-.089.351.176.615 2.638 0 7.037-.615 5.628-.88 7.036-1.056"/></svg>