<svg xmlns="http://www.w3.org/2000/svg" width="89.853" height="90.651" viewBox="11.947 -0.145 89.853 90.651"><path fill="#919191" stroke="#919191" stroke-width="3.019" d="M71.71 66.262c7.422-.032 14.144 1.213 19.007 3.25 4.865 2.037 7.87 4.865 7.86 8.002-.01 3.136-3.033 5.99-7.91 8.07-4.877 2.078-11.606 3.38-19.03 3.413-7.422.031-14.143-1.213-19.007-3.25s-7.87-4.866-7.86-8.003c.01-3.136 3.034-5.99 7.911-8.07 4.877-2.078 11.606-3.38 19.029-3.412Z"/><path fill="#a85b00" d="M65.744 21.062c11.62 4.717 21.23 11.256 27.37 18.01 6.139 6.756 8.41 12.78 6.543 19.304-2.539 8.853-10.04 17.193-18.765 20.782-9.696 4.278-21.794 4.663-32.03.91-11.901-4.367-23.421-12.839-29.8-23.693-5.686-9.304-7.314-22.21-3.643-32.188 2.346-6.368 9.035-8.718 18.145-9.284 9.11-.565 20.56 1.443 32.18 6.16"/><path fill="#ef9300" stroke="#eac28e" stroke-linecap="round" stroke-width="2.371" d="M65.996 21.192c11.073 4.494 20.382 10.35 26.478 16.179 6.096 5.83 8.979 11.633 7.197 16.023s-7.894 6.543-16.328 6.475c-8.435-.069-19.191-2.357-30.264-6.851-11.073-4.495-20.382-10.35-26.479-16.18-6.096-5.829-8.978-11.632-7.197-16.022 1.782-4.39 7.894-6.543 16.328-6.475 8.435.069 19.192 2.357 30.265 6.851Z"/><path fill="none" stroke="#eac28e" stroke-linecap="round" stroke-width="1.379" d="M63.393 20.84s-4.305 12.608-8.08 17.977C52.522 42.788 44.16 48.2 44.16 48.2M56.855 35.938l35.296 1.609"/><path fill="none" stroke="#eac28e" stroke-linecap="round" stroke-width="1.379" d="M77.285 58.923 56.582 36.61 22.176 17.65M55.27 36.077l-29.11-.59M55.669 37.023 41.549 14.66M56.532 37.746l42.042 16.317"/><path fill="none" stroke="#ef9300" stroke-linecap="round" stroke-width="1.544" d="M59.744 13.574c-.568-3.69-2.842-5.596-2.67-7.97.137-1.883 2.382-4.69 3.83-4.178 1.782.63 2.631 4.138 2.631 6.46 0 2.324-1.365 4.909-2.63 6.462-.438.536-.453-1.548-.774-2.283ZM52.206 10.457c-1.048-1.34-1.861-2.768-3.017-2.67-1.095.093-2.477 1.888-1.935 2.67.773 1.114 3.006 1.254 4.566 1.122.5-.043.286-1.097 0-1.51Z"/><path fill="none" stroke="#ef9300" stroke-linecap="round" stroke-width="1.608" d="M73.832 19.082c3.518-1.27 6.385-.056 8.364-1.38 1.57-1.05 2.829-4.543 1.616-5.66-1.493-1.373-5.002-.458-7.028.679s-3.557 3.69-4.242 5.644c-.236.675 1.59-.33 2.4-.386ZM84.702 23.766c1.724.334 3.4.403 3.926 1.542.498 1.078-.335 3.261-1.304 3.132-1.38-.184-2.685-2.223-3.395-3.76-.228-.493.804-.806 1.315-.738Z"/></svg>