<svg xmlns="http://www.w3.org/2000/svg" xml:space="preserve" viewBox="0 0 460 460"><path d="M430 95v60h-60V95z" style="fill:#33474c"/><path d="M277.806 131.414 270 154.833v35h-40v-32.929c0-1.326.527-2.598 1.464-3.536l19.299-19.299a31.54 31.54 0 0 1 22.412-9.237c3.365.013 5.695 3.389 4.631 6.582" style="fill:#517482"/><path d="M370 235a200 200 0 0 1-160 80h-43.96a200 200 0 0 1-132.873-50.518L0 235z" style="fill:#80a6af"/><path d="M430 95v80c0 33.137-26.863 60-60 60l-.346.46C350.762 260.499 321.032 275 289.666 275h-83.098a136.57 136.57 0 0 1-86.558-30.934A40 40 0 0 0 94.663 235H0v-20c0-33.137 26.863-60 60-60h310c33.137 0 60-26.863 60-60" style="fill:#628c99"/><path d="M430 115v60c0 33.137-26.863 60-60 60l-.346.46C350.762 260.499 321.032 275 289.666 275h-83.098a136.57 136.57 0 0 1-86.558-30.934A40 40 0 0 0 94.663 235H0c0-33.137 26.863-60 60-60h310c33.137 0 60-26.863 60-60" style="fill:#517482"/><path d="M430 155v20c0 33.137-26.863 60-60 60l-.379.503C350.736 260.523 321.013 275 289.666 275h-83.098a136.57 136.57 0 0 1-86.558-30.934A40 40 0 0 0 94.663 235H0c0-11.046 8.954-20 20-20h74.664a40 40 0 0 1 25.347 9.066A136.56 136.56 0 0 0 206.568 255h83.098c31.347 0 61.07-14.477 79.955-39.497L370 215c33.137 0 60-26.863 60-60" style="fill:#445f68"/><path d="M155 225c-8.284 0-15-6.716-15-15s6.716-15 15-15 15 6.716 15 15-6.716 15-15 15" style="fill:#364b51"/><path d="M160 210a5 5 0 1 1-10.001-.001A5 5 0 0 1 160 210" style="fill:#80a6af"/><path d="M460 45v20c0 16.569-13.431 30-30 30h-.146c-10.128 0-19.052 6.242-22.997 15.57C400.784 124.926 386.569 135 370 135V95c-16.569 0-30-13.431-30-30V45h30c16.569 0 30 13.431 30 30 0-16.569 13.431-30 30-30z" style="fill:#445f68"/><path d="M400 75h-30c-16.569 0-30-13.431-30-30h30c16.569 0 30 13.431 30 30m30-30c-16.569 0-30 13.431-30 30h30c16.569 0 30-13.431 30-30z" style="fill:#517482"/><path d="M337.46 242.607c-4.48 15.376-16.939 27.344-32.6 31.126A101.5 101.5 0 0 1 288.93 275h-83.098c-16.693 0-33.069-3.06-48.383-8.862-8.978-6.673-15.372-16.614-17.448-28.061A136.54 136.54 0 0 0 205.831 255h83.098a101.06 101.06 0 0 0 48.531-12.393" style="fill:#33474c"/><path d="m290 255-32.724 130.896C253 403 237.631 415 220 415c-5.523 0-10-4.477-10-10V255z" style="fill:#36525b"/><path d="M260 240v15l-22.724 90.896c-3.441 13.765-14.069 24.219-27.276 27.778V240z" style="fill:#517482"/></svg>