<svg xmlns="http://www.w3.org/2000/svg" width="283.066" height="175.82" viewBox="-0.1 0.342 283.066 175.82"><path fill="#694929" d="M149.5 111.8c-11.4 13.8-32.4 24.1-46.8 25.8s-26.8 17-26.8 17 2.1 8.3.1 9.8c-4.4 3.3-12.8-3.9-13.7-8.7s15.3-36.2 22.6-37.6 13.2-.2 16.8-11 13.1-34 24.1-32.5c11 1.6 40.8 16.6 23.7 37.2"/><path fill="#423118" d="M144 117.3s-.9.8-2.6 2.2-4.2 3.2-7.2 5.3c-3.1 2.1-6.8 4.3-10.9 6.4-2.1 1-4.2 2-6.5 2.8-1.1.4-2.3.8-3.5 1-1.2.3-2.4.5-3.6.7-2.4.4-4.9.9-7.3 1.5s-4.7 1.2-6.9 2-4.3 1.8-6.1 2.9-3.5 2.3-4.8 3.6c-1.4 1.2-2.6 2.4-3.7 3.5s-1.9 2.1-2.7 2.9c-1.4 1.6-2.2 2.6-2.2 2.6s.8-.9 2.3-2.5c.8-.8 1.6-1.7 2.7-2.8s2.3-2.2 3.7-3.4 3-2.4 4.8-3.5 3.9-2 6-2.8c2.2-.8 4.5-1.4 6.9-1.9s4.8-1 7.2-1.4c1.2-.2 2.4-.4 3.7-.7 1.2-.3 2.4-.7 3.5-1.1 2.3-.8 4.5-1.8 6.6-2.9 4.1-2.1 7.8-4.5 10.8-6.6s5.5-4.1 7.1-5.5c1.8-1.4 2.7-2.3 2.7-2.3M74.2 160.9v4.3s.2-.2.4-.6.3-1 .3-1.5q0-.9-.3-1.5c-.2-.5-.4-.7-.4-.7M70.1 160.6s0 .3-.1.6c0 .4 0 .8-.1 1.3v1.8s.2-.2.3-.5c.2-.3.3-.8.3-1.3s-.1-1-.2-1.3c0-.4-.2-.6-.2-.6M76.5 126.4s.1-.2.3-.5.5-.8.9-1.4c.9-1.2 2.2-2.8 4.2-4.3 1-.7 2.2-1.4 3.5-1.9.3-.1.7-.2 1-.3.4 0 .7-.1 1.1-.2h2.3c1.6-.1 3.2-.4 4.8-1.1s2.9-1.8 4-3.1 1.9-2.8 2.5-4.4c.6-1.5 1-3.1 1.6-4.6 1-2.9 2.1-5.7 3.1-8s1.8-4.2 2.4-5.5 1-2.1 1-2.1-.4.7-1.1 2-1.6 3.2-2.6 5.5-2.2 5-3.3 7.9c-.6 1.5-1 3-1.6 4.5s-1.4 2.9-2.5 4.2c-1 1.3-2.3 2.3-3.8 2.9-1.5.7-3 1-4.6 1-.8 0-1.5 0-2.3.1-.4 0-.8.1-1.1.2-.4.1-.7.2-1.1.3-1.4.5-2.6 1.2-3.6 2s-1.8 1.6-2.5 2.4-1.2 1.5-1.6 2.1q-.6.9-.9 1.5c0 .6-.1.8-.1.8M87.8 123.5s-.4 0-1.1.1c-.6.1-1.5.5-2.2 1-.2.1-.3.3-.5.4s-.3.3-.4.5c-.1.1-.2.3-.4.5-.1.2-.2.3-.3.5-.2.3-.2.6-.3.7-.1.2-.1.3-.1.3l.2-.2c.1-.1.3-.4.5-.6s.5-.5.7-.8c.3-.3.6-.5.9-.8.6-.5 1.3-.9 1.9-1.2.7-.2 1.1-.4 1.1-.4"/><path fill="#e0ab38" d="M243.6 143.5c2.4 5.9 5.2 13.6 7.3 14.3s7 3.8 6.3 5.5c-.8 2-6.5-2.6-6.5-2.6s5.9 5.6 4.5 7.5-9.4-7-9.4-7 1 7.4-1 7.5-3.4-3.5-3.4-8.4-5.2-15-5.2-15z"/><path fill="#b3872a" d="M254.3 164.8s-.3-.5-.8-1.2-1.3-1.6-2.1-2.4-1.7-1.5-2.5-2-1.3-.7-1.3-.7l.3.3c.2.1.5.4.8.7.6.6 1.4 1.4 2.3 2.2l2.2 2.2c.7.5 1.1.9 1.1.9M246 167s.1-.4.2-1.1.2-1.6.1-2.5c0-.9-.2-1.9-.5-2.5-.1-.3-.3-.6-.4-.8s-.2-.3-.2-.3 0 .1.1.3.1.5.2.8c.1.7.1 1.6.2 2.5 0 .9.1 1.8.1 2.5.2.6.2 1.1.2 1.1M257.1 163.6s.1-.1.2-.4.1-.7-.1-1.1l-.3-.6c-.2-.2-.3-.4-.5-.6-.4-.4-.8-.8-1.3-1.1-.9-.7-2-1.2-2.8-1.5s-1.4-.5-1.4-.5.5.3 1.2.8c.4.2.8.5 1.2.8s.9.6 1.4.9.9.7 1.3 1 .7.7.9 1 .3.7.3.9-.1.4-.1.4"/><path fill="#3b342d" d="M255.2 167.6c1.1 1.5-.3 3.7-.3 3.7s.4-2.3-.6-3.3c-.1 0 .3-1.2.9-.4M244.7 167.5c1.1 1.5-.4 3.7-.4 3.7s.4-2.3-.6-3.3c.1 0 .4-1.2 1-.4M257 162.8c1.5 1 .9 3.6.9 3.6s-.3-2.3-1.7-2.9c0-.1-.1-1.3.8-.7"/><path fill="#694929" d="M207.4 103.2c-1.3-8.4 1.8-14.7 3.5-17.7s6.7-4 9.1-4c9.8-.1 16.6 32 19.6 42.5.8 2.9 4.7 17.6 7.1 21.2s5 6.2 5 6.2c-1.2.2-2.3 0-2.3 0 .2.7 1.2 1.9 1.2 1.9-2.4 0-3.8-2.9-3.8-2.9 0 1.6 1.4 5.3 1.4 5.3-1.8-.8-3.2-3.8-3.2-3.8 1.4 3.8-.8 6.4-.8 6.4.3-1.7-1.7-4.5-1.7-4.5.9 2.8-.1 6.1-.1 6.1-1.7-.3-2-2.8-2-2.8 0 1.3.1 3.7.1 3.7-1.4-1.8-1.5-4.6-1.5-4.9.3 1.7-1.8 3.9-1.8 3.9s1.5-1.7-2-8.9c-1.7-3.5-5.2-8-9.4-14.9-6.2-10.2-12.8-21.6-14.8-30.5-.6 1.6-1 3.3-1 3.3-2.6-4-.8-10-.8-10-.9 1.5-1.8 4.4-1.8 4.4"/><path fill="#423118" d="M209.5 98.9s-.1.1-.2.4-.3.6-.4 1.1-.2 1.1-.3 1.7c0 .6 0 1.3.1 1.9.1.7.2 1.3.4 1.9s.4 1.1.5 1.6c.2.5.4.8.5 1.1s.2.4.2.4 0-.2-.1-.4c-.1-.3-.2-.7-.3-1.1-.1-.5-.2-1-.3-1.6-.1-.3-.1-.6-.2-.9s-.1-.6-.1-.9c-.2-1.3-.2-2.5-.1-3.5.1-1.1.3-1.7.3-1.7M207.4 103.2s-.1-.8-.1-1.9 0-2.7.2-4.2c.1-.8.2-1.5.3-2.2s.2-1.4.3-1.9c.1-.6.2-1 .3-1.4.1-.3.1-.5.1-.5s-.1.2-.2.5-.3.8-.5 1.3-.4 1.2-.5 1.9c-.2.7-.3 1.5-.4 2.3s-.1 1.6-.1 2.3.1 1.4.2 2c.1 1.1.4 1.8.4 1.8"/><g fill="#423118"><path d="M237.4 159.8s.1-.2.2-.7.2-1.1.1-2q-.15-1.35-.6-3c-.4-1.2-.9-2.4-1.7-3.7-2.9-5.2-7.2-11.7-11.2-18.5-2-3.4-4-6.7-5.7-10-1.7-3.2-3.3-6.3-4.4-9-.6-1.4-1.1-2.6-1.5-3.7s-.7-2.1-1-2.9c-.2-.8-.4-1.5-.5-1.9-.1-.5-.1-.7-.1-.7s0 .2.1.7.2 1.1.4 2c.4 1.7 1.1 4 2.2 6.8 1.1 2.7 2.6 5.9 4.3 9.1 1.7 3.3 3.7 6.7 5.7 10.1s4.1 6.7 6.1 9.8 3.9 6 5.3 8.5q1.05 1.95 1.8 3.6c.4 1.1.6 2.1.7 3 .1.8.1 1.5 0 2-.1.3-.2.5-.2.5M251.7 151.5s-.7-.6-1.8-1.8-2.5-3.1-3.7-5.5c-.6-1.2-1-2.7-1.5-4.2s-.9-3.1-1.4-4.8c-1-3.3-2-6.9-3.1-10.4-1.1-3.6-2.1-7.1-3.1-10.4s-1.9-6.4-2.8-9.1c-.8-2.7-1.5-4.9-2.1-6.4l-.8-2.4s.3.9.7 2.4c.4 1.6 1.1 3.8 1.8 6.5.8 2.7 1.6 5.8 2.6 9.1s2 6.9 3 10.5c1.1 3.5 2.1 7.1 3.1 10.4q.75 2.55 1.5 4.8c.5 1.5 1 3 1.6 4.2 1.3 2.5 2.8 4.3 3.9 5.5 1.4 1 2.1 1.6 2.1 1.6"/></g><path fill="#423118" d="M250.7 153.4s-.3-.1-.7-.3-.9-.5-1.4-.9l-.6-.6c-.2-.2-.4-.4-.5-.6l-.4-.4-.2-.2s0 .3.2.8c.1.2.2.5.4.7.2.3.4.5.7.7s.5.4.8.5.6.2.8.2c.6.2.9.1.9.1M248.3 155.9s-.2-.3-.5-.6c-.3-.4-.7-.8-1.2-1.3-.4-.4-.8-.9-1.1-1.2-.1-.2-.3-.3-.3-.5-.1-.1-.1-.2-.1-.2v.2c0 .1 0 .4.1.6.2.5.5 1 1 1.5.4.5 1 .9 1.4 1.1.4.3.7.4.7.4M244.3 158.5s.1-.3.1-.8-.1-1.1-.3-1.7-.6-1.1-.9-1.5-.6-.6-.6-.6 0 .1.1.2c0 .1.1.3.2.5.2.4.4 1 .6 1.5s.4 1.1.6 1.5c.1.6.2.9.2.9M242.5 160s-.1-.2-.3-.5-.4-.6-.7-.9c-.2-.3-.5-.7-.7-1-.1-.1-.2-.3-.2-.3l-.1-.1v.6c0 .4.2.8.5 1.2s.6.7 1 .9c.3.1.5.1.5.1M240.7 160.9s-.2-.3-.3-.8c-.2-.4-.4-1-.5-1.7-.2-.6-.3-1.2-.4-1.7-.1-.2-.1-.4-.2-.6 0-.1-.1-.2-.1-.2s-.1.3-.1.8 0 1.2.2 1.8c.2.7.5 1.3.8 1.7.3.5.6.7.6.7"/><path fill="#694929" d="M182.2 68.1c-6.9-1.6-4.8-3.9-4.8-3.9-4.4-.7-6.5-4.7-6.5-4.7-5.2-1.6-4.6-4.9-4.6-4.9-4.3-1.2-5.7-4-5.7-4-5.4 0-8.8-4-8.8-4-4.4-.7-5.7-4-5.7-4-7.5-.9-9-5.9-9-5.9-20.9-1.6-7.6-3.5-7.6-3.5-22.6-5.3-3.2-5.5-3.2-5.5s-15.6-.8-17.4-3.7 14.2-1.5 14.2-1.5c-35.6-2.5-46.9-7.9-39.3-7.3 7.5.6 35.5 2.8 35.5 2.8C77.5 12.2 71.6 3.9 80.9 7.1c9.4 3.3 41.5 7.6 41.5 7.6C100.8 11.9 73.6-1.4 90 2.9s34.2 8.4 34.2 8.4c-23.6-7.6-25.6-14.7-8.8-7.4s54.1 13.5 76.1 19.5 16 26.1 16 26.1c5.2 6.9 2.4 17 10.2 21.4.1 0-29-1.3-35.5-2.8"/><path fill="#423118" d="m217.8 70.9-.9-.6c-.3-.2-.6-.4-.9-.7l-1.1-1.1c-.7-.9-1.4-2-1.9-3.3s-.8-2.8-1.1-4.3-.6-3-1-4.4c-.3-1.4-.8-2.7-1.2-3.8-.2-.5-.4-1-.7-1.4-.2-.4-.5-.8-.7-1q-.3-.45-.6-.6l-.2-.2.2.2c.1.1.3.3.5.6s.4.6.6 1.1c.2.4.4.9.5 1.4.4 1.1.7 2.4 1 3.8s.6 2.9.9 4.4.7 3 1.2 4.4c.3.7.6 1.3 1 1.9q.6.9 1.2 1.5c.4.4.8.8 1.2 1 .4.3.7.5 1 .7.6.2 1 .4 1 .4"/><path fill="#423118" d="M206.2 51.5s.3-.4.8-1.1 1.1-1.8 1.4-3.4c.4-1.6.5-3.5.2-5.7s-.9-4.6-2.1-7.1-3-5-5.4-7-5.5-3.6-8.9-4.1c-6.6-1.5-13.7-3-20.7-4.6-14.1-3.2-28.2-6.5-38.6-9.3-5.2-1.4-9.6-2.6-12.6-3.6-1.5-.5-2.7-.9-3.5-1.2.8.3 1.9.8 3.4 1.3 3 1 7.3 2.4 12.5 3.8 10.5 2.9 24.5 6.3 38.6 9.6 7 1.7 14.1 3.2 20.7 4.7 3.3.5 6.3 2.1 8.6 4 2.4 1.9 4.1 4.3 5.3 6.7s1.8 4.8 2.1 7 .2 4.1-.1 5.6-.8 2.7-1.2 3.4c-.2.6-.5 1-.5 1M124.4 11.2s-1.3-.6-3.3-1.4c-1-.4-2.2-.9-3.4-1.4s-2.6-1.1-3.9-1.7c-2.6-1.1-5.2-2.4-7.1-3.5-.9-.6-1.6-1.1-2-1.6-.2-.3-.1-.5.1-.6.1-.1.2-.1.2-.1s-.1 0-.2.1c-.1 0-.2.1-.2.2-.1.1 0 .3 0 .5.3.6 1 1.2 1.9 1.9.9.6 2 1.3 3.2 1.9s2.5 1.2 3.8 1.8 2.7 1.1 3.9 1.6c1.3.5 2.5.9 3.5 1.3zM120.1 14.3s-.6-.1-1.6-.3-2.4-.5-4.1-.9-3.6-.9-5.7-1.4c-2.1-.6-4.3-1.2-6.5-2-1.1-.3-2.2-.7-3.2-1.1-1.1-.4-2.1-.8-3.1-1.2s-2-.8-2.9-1.1c-.9-.4-1.8-.8-2.6-1.1s-1.5-.6-2.1-1l-1.6-.8c-.9-.5-1.4-.8-1.4-.8s.5.3 1.3.9c.9.5 2.1 1.2 3.7 2 .8.4 1.6.8 2.5 1.2s1.9.9 2.9 1.3 2 .8 3.1 1.2l3.3 1.2c2.2.7 4.4 1.3 6.5 1.9s4.1.9 5.8 1.3c3.4.5 5.7.7 5.7.7M119.3 17.8s-2.7-.5-6.8-1.3c-2-.4-4.4-.9-6.9-1.4s-5.2-1.1-7.9-1.7-5.4-1.2-7.9-1.8c-2.5-.7-4.8-1.3-6.8-2-1-.3-1.9-.7-2.6-1-.8-.3-1.4-.6-1.9-1-.3-.1-.5-.3-.7-.4s-.4-.2-.5-.4c-.2-.2-.3-.4-.3-.4s.1.1.3.4l.4.4c.2.2.4.3.6.5.5.3 1.1.7 1.9 1.1s1.6.7 2.6 1.1 2 .7 3.2 1.1c1.1.4 2.3.7 3.6 1.1 2.5.7 5.2 1.3 7.9 1.9s5.4 1.1 7.9 1.6 4.9.9 7 1.2c4.2.7 6.9 1 6.9 1M120.9 22.2s-2.5-.3-6.2-.7c-1.8-.2-4-.5-6.3-.8s-4.8-.6-7.2-1c-2.5-.3-4.9-.7-7.2-1.1-1.1-.2-2.3-.4-3.3-.6s-2-.4-2.9-.6-1.7-.4-2.5-.6c-.7-.2-1.4-.4-1.9-.6-1-.4-1.6-.6-1.6-.6s.6.3 1.5.7c.5.2 1.1.4 1.8.7s1.5.5 2.4.7c.9.3 1.9.5 2.9.7s2.2.5 3.3.7c2.3.4 4.8.8 7.2 1.2 2.5.3 4.9.6 7.3.9 2.3.3 4.5.4 6.3.6 3.9.3 6.4.4 6.4.4M126.4 27.6s-1.1-.1-2.8-.3c-.8-.1-1.8-.2-2.8-.3s-2.1-.3-3.2-.4c-1.1-.2-2.2-.3-3.2-.5l-1.5-.3c-.5-.1-.9-.2-1.3-.3s-.8-.2-1.1-.4c-.3-.1-.6-.2-.8-.4-.4-.2-.7-.4-.7-.4s.2.2.6.5c.2.2.5.3.8.5s.6.3 1 .5.8.3 1.3.5.9.3 1.5.4c1 .2 2.1.4 3.2.6 1.1.1 2.2.3 3.3.4 1 .1 2 .1 2.8.1 1.7-.1 2.9-.2 2.9-.2M129.6 33.1s-.7-.2-1.7-.6c-1-.3-2.4-.7-3.8-1.1-.7-.2-1.4-.4-2-.6s-1.2-.4-1.7-.6q-.75-.3-1.2-.6c-.2-.2-.4-.3-.4-.3s.1.1.3.4c.2.2.6.5 1.1.8 1 .6 2.3 1.1 3.7 1.5s2.8.7 3.9.9c1 .2 1.8.2 1.8.2M137.1 36.7s-.7-.1-1.9-.3c-1.1-.1-2.6-.3-4.1-.5s-3-.3-4.1-.6c-.5-.1-1-.2-1.3-.4-.3-.1-.4-.3-.4-.3l.1.1q0 .15.3.3.45.3 1.2.6c1.1.4 2.6.7 4.1.9s3 .2 4.1.2zM146.1 42.5l-1.5-.5c-.9-.3-2-.7-3.1-1.2-.3-.1-.5-.3-.8-.4-.2-.2-.5-.3-.7-.5s-.5-.3-.7-.5-.4-.3-.6-.5-.3-.3-.5-.4c-.1-.1-.2-.3-.3-.4l-.3-.3s.1.1.2.4c.1.2.3.6.6 1 .1.2.3.4.5.6l.6.6c.5.4 1 .7 1.6 1s1.2.5 1.7.7c.6.2 1.1.3 1.6.3 1.1.2 1.7.1 1.7.1M151.8 46.6s-.3-.1-.8-.4c-.5-.2-1.1-.5-1.7-.9-.6-.3-1.2-.7-1.6-1-.2-.1-.4-.3-.5-.4s-.2-.1-.2-.1.2.3.5.8c.3.4.9.9 1.6 1.3.6.4 1.4.6 1.9.6.4.1.8.1.8.1M160.6 50.6s-.5-.1-1.3-.3-1.7-.4-2.7-.8c-1-.3-1.9-.8-2.5-1.2-.3-.2-.6-.4-.8-.5s-.3-.2-.3-.2.1.1.2.3.4.4.7.7.7.6 1.1.8c.4.3.9.5 1.4.7 1 .4 2.1.5 2.9.5.8.1 1.3 0 1.3 0M166.3 54.6s-.3-.2-.8-.5-1.1-.6-1.7-.9-1.2-.7-1.6-.9c-.2-.1-.4-.2-.5-.3s-.2-.1-.2-.1.1.3.5.8c.4.4.9.9 1.6 1.2.6.3 1.3.6 1.8.7zM170.9 59.5s-.4-.1-.9-.4c-.5-.2-1.1-.6-1.7-1-.3-.2-.5-.5-.8-.7-.2-.2-.4-.5-.6-.7s-.3-.4-.4-.6l-.2-.2v.3c0 .2.1.4.2.7.1.1.1.3.2.4s.2.3.3.5c.1.1.2.3.4.4l.4.4c.6.5 1.4.8 2 .9.8.1 1.1 0 1.1 0M177.4 64.2l-1-.5c-.6-.3-1.3-.7-2-1.1s-1.4-.9-1.9-1.3c-.3-.2-.5-.3-.6-.5l-.2-.2s0 .1.1.3.2.4.4.7.5.5.8.8.7.5 1 .8c.8.5 1.6.8 2.2.9.8.1 1.2.1 1.2.1M182.2 68.1s-.3-.2-.8-.4-1.2-.5-1.8-.8-1.3-.6-1.7-.9c-.1-.1-.2-.2-.3-.2-.1-.1-.2-.1-.2-.2l-.2-.2s0 .1.1.2c0 .1.1.2.1.3.1.1.1.2.2.3.2.2.4.5.7.7s.6.4 1 .5c.7.3 1.4.5 2 .5.5.2.9.2.9.2"/><path fill="#52391e" d="M202.4 67.1s-.5-.2-1.2-.4-1.6-.5-2.5-.8l-.6-.3c-.2-.1-.3-.2-.2-.3q0-.15.3-.3c.2-.1.3-.2.5-.3.3-.2.6-.3.8-.4s.3-.2.3-.2h-.3c-.2 0-.5.1-.9.2-.2.1-.4.1-.6.2s-.5.2-.6.6c-.1.2 0 .4.1.6l.3.3c.2.2.5.3.7.4 1.9.8 3.9.7 3.9.7"/><path fill="#52391e" d="M197.7 64.9s-.4-.2-1-.6c-.3-.2-.6-.4-1-.6s-.7-.5-1-.7c-.1-.1-.3-.3-.3-.4s0-.2.1-.3c.2-.3.6-.4.9-.6.3-.1.6-.3.8-.4s.3-.1.3-.1h-.3c-.2 0-.5 0-.9.1-.2 0-.4.1-.6.2s-.4.2-.6.4-.3.6-.2.9.3.5.5.7c.8.7 1.7 1 2.4 1.2.4.1.9.2.9.2M198.9 55.5s-.5-.2-1.3-.5c-.4-.1-.9-.3-1.3-.5l-1.5-.6c-.2-.1-.4-.3-.5-.4v-.1c0-.1.1-.1.2-.2.4-.2.9-.4 1.3-.5s.7-.2 1-.3c.2-.1.4-.1.4-.1s-.6 0-1.4.1c-.2 0-.4.1-.7.1-.2.1-.5.1-.8.2-.1.1-.3.1-.4.3-.1.1-.3.4-.2.7.2.4.5.6.8.7 1.1.5 2.2.7 3 .9s1.4.2 1.4.2M191.2 58.7s-.5-.2-1.2-.4c-.3-.1-.7-.2-1.2-.4-.4-.1-.9-.3-1.3-.5-.2-.1-.4-.2-.4-.3V57s.1-.1.1-.2c.3-.3.6-.5 1-.7.3-.2.6-.3.8-.4s.3-.2.3-.2-.5 0-1.2.2c-.4.1-.8.2-1.2.6-.1.1-.2.2-.3.4s0 .4.1.6c.2.3.5.4.7.6q1.5.6 2.7.6c.6.2 1.1.2 1.1.2"/><path fill="#52391e" d="M189 55.5s-.5-.2-1.2-.4-1.6-.4-2.5-.8c-.2-.1-.4-.2-.5-.3 0-.1-.1-.1 0-.3.2-.3.6-.5.9-.7s.6-.3.8-.4.3-.2.3-.2-.5 0-1.2.2c-.4.1-.8.2-1.2.6-.1.1-.2.2-.3.4s0 .4.1.6c.2.3.5.4.7.5 1 .4 1.9.5 2.7.6.9.3 1.4.2 1.4.2M193.1 46.1l-.4-.2c-.3-.1-.7-.2-1.1-.4-.5-.2-1-.4-1.5-.7s-1.1-.6-1.4-1.1c-.2-.2-.2-.4-.2-.5.1-.2.3-.3.6-.4.5-.2 1.1-.4 1.6-.5s.9-.2 1.2-.2c.3-.1.4-.1.4-.1s-.7-.1-1.7 0c-.5 0-1.1.1-1.7.3-.3.1-.7.3-.9.7-.1.2-.2.5-.1.7s.2.4.3.5c.5.6 1.1.9 1.7 1.2s1.1.4 1.6.5c1 .2 1.6.2 1.6.2"/><path fill="#52391e" d="M195.7 42.9s-.6-.2-1.6-.6c-.5-.2-1-.4-1.6-.6s-1.2-.4-1.8-.8c-.1-.1-.3-.2-.4-.2s-.1-.1-.1-.1 0-.1.2-.1c.1-.1.2-.1.4-.2.6-.2 1.1-.3 1.6-.5q.75-.15 1.2-.3c.3-.1.5-.1.5-.1h-1.7q-.75 0-1.8.3c-.2.1-.3.1-.5.2s-.4.2-.5.6c0 .2 0 .3.1.5.1.1.1.2.2.3.2.1.3.2.5.3 1.3.7 2.6.9 3.6 1.1 1 .1 1.7.2 1.7.2M183.1 34.9s-.6-.3-1.5-.7c-.4-.2-1-.4-1.5-.7-.5-.2-1.1-.5-1.6-.8-.2-.1-.4-.4-.4-.4s.3-.2.5-.3c.5-.2 1.1-.3 1.6-.4s.9-.2 1.1-.2c.3-.1.4-.1.4-.1s-.6-.1-1.6-.1c-.5 0-1.1 0-1.7.2-.2 0-.3.1-.5.2s-.4.2-.5.5.1.6.2.7c.1.2.3.3.4.4 1.2.7 2.4 1.1 3.4 1.3 1 .3 1.7.4 1.7.4M176.7 41.2s-.5-.3-1.1-.6q-.45-.3-1.2-.6c-.4-.2-.9-.5-1.2-.8-.2-.1-.3-.3-.3-.4 0 0 .1-.2.3-.2.4-.2.9-.3 1.2-.3.4-.1.7-.2.9-.2s.4-.1.4-.1-.5-.1-1.3-.1c-.4 0-.9 0-1.4.2-.1 0-.3.1-.4.2s-.3.3-.3.5c0 .5.3.7.5.9.9.7 1.9 1 2.7 1.3.7.1 1.2.2 1.2.2M168 26.1s-2.2-.5-5.4-1.2c-1.6-.4-3.5-.8-5.5-1.4-1-.3-2-.6-3.1-.9l-1.5-.6c-.5-.2-1-.5-1.3-.8l-.1-.1v.1-.1c0-.1.1 0 .1 0 .1-.1.4-.2.6-.2.5-.1 1.1-.1 1.6-.1 1.1 0 2.1.1 3.2.2 2.1.2 4 .5 5.6.7 3.3.5 5.5.9 5.5.9s-2.2-.6-5.4-1.2c-1.6-.3-3.6-.7-5.6-.9-1-.1-2.1-.2-3.2-.3-.6 0-1.1 0-1.7.1q-.45 0-.9.3l-.2.2-.1.1c-.1.2 0 .1 0 .1v.1c0 .1 0 .3.1.3 0 .1.1.2.2.2.5.5 1 .7 1.5.9s1.1.4 1.6.6c1.1.3 2.1.6 3.1.9 2 .5 4 .9 5.6 1.2 3.1.6 5.3.9 5.3.9M162.3 25.2s-.6-.1-1.5-.3c-1-.2-2.4-.5-4.1-.7s-3.7-.5-5.9-.6c-1.1 0-2.2 0-3.4.3-.3.1-.6.3-.8.6 0 .1-.1.2-.1.3v.3c.1.2.2.4.3.5.5.4 1.1.7 1.6.9 1.1.4 2.2.7 3.3 1s2.2.5 3.3.7c2.1.4 4.1.7 5.8.9 3.4.5 5.7.6 5.7.6s-2.3-.4-5.7-1c-1.7-.3-3.7-.7-5.8-1.1s-4.4-.9-6.5-1.7c-.5-.2-1.1-.4-1.4-.7-.2-.2-.2-.3-.1-.4s.3-.3.5-.3c1-.3 2.1-.3 3.2-.3 2.1 0 4.1.2 5.9.4 3.4.3 5.7.6 5.7.6M163.5 37.1s-2.1-.2-5.3-.5c-1.6-.2-3.5-.4-5.4-.8-1-.2-2-.4-3-.7-.5-.1-1-.3-1.4-.5-.2-.1-.5-.2-.7-.4s-.4-.3-.5-.5c0-.1-.1-.1 0-.1 0 0 0-.1.1-.1.2-.1.4-.2.7-.2.5-.1 1-.1 1.5-.2 1-.1 2.1 0 3.1 0 2 .1 3.9.1 5.5.3 3.2.2 5.4.4 5.4.4s-2.1-.4-5.3-.7c-1.6-.2-3.5-.4-5.5-.5-1 0-2.1-.1-3.1 0-.5 0-1.1.1-1.6.2-.3.1-.6.1-.9.3-.1 0-.2.1-.2.2-.1.1-.1.2-.2.3-.1.2.1.6.1.6.2.3.5.4.7.6s.5.3.7.4l1.5.6c1 .3 2.1.5 3.1.7 2 .3 3.9.5 5.5.6s3 .1 3.9.2c.8-.2 1.3-.2 1.3-.2"/><path fill="#52391e" d="M150.8 21.1s-2.4-.5-6-1.3c-1.8-.4-3.9-.9-6-1.5q-1.65-.45-3.3-1.2c-.5-.2-1.1-.5-1.5-.8-.5-.3-.8-.8-.5-1l.1-.1h.1l.1-.1c.1 0 .2-.1.4-.1.3-.1.6-.1.9-.1h1.8c1.2.1 2.3.3 3.5.4 2.2.4 4.3.7 6.1 1.1 3.6.7 6 1.3 6 1.3s-2.3-.7-5.9-1.6c-1.8-.4-3.9-.9-6.1-1.3-1.1-.2-2.3-.4-3.5-.5-.6 0-1.2-.1-1.8-.1-.3 0-.6 0-1 .1-.2 0-.3.1-.5.1-.2.1-.5.2-.5.3l-.1.1c-.1.1-.1.1-.1.2s-.1.2-.1.3v.3c0 .1.1.2.1.3.2.3.5.6.7.8.5.4 1.1.6 1.7.9 1.1.5 2.3.8 3.4 1.1 2.2.6 4.3 1 6.1 1.4 3.4.7 5.9 1 5.9 1M176.1 47.6s-1.9.1-4.8.2c-1.5 0-3.1.1-4.9 0s-3.8-.1-5.5-.7c-.2-.1-.4-.2-.5-.3s-.1 0 0-.2q.45-.3 1.2-.6 1.35-.45 2.7-.6c1.8-.3 3.5-.5 4.9-.6s2.7-.2 3.5-.2h1.3s-1.9-.2-4.9-.2c-1.5 0-3.2.1-5 .4-.9.1-1.8.3-2.8.6-.5.2-.9.3-1.4.7-.1.1-.2.3-.3.5 0 .3.1.5.3.5.2.2.5.3.7.4 1 .3 2 .5 2.9.6 1 .1 1.9.1 2.8.1 1.8 0 3.5-.1 5-.2 2.8-.1 4.8-.4 4.8-.4"/><path fill="#704e2c" d="M216.9 51.5s-13.9 3.8-19.7 3.8c0 0 4.4 3.1 6.4 2.8 0 0-8 1.1-9.6 6.2 0 0-27.5 6.1-43 3.1s-35-2.5-45.5 10.5 1 37.5 25 35 23 12.7 47 12c50-1.5 56.3-21.2 56.3-21.2 7.1-1.4 9-6.9 9-6.9 6.7-1.8 7.5-6.9 7.5-6.9 1.4 2.6 1.1 5.2 1.1 5.2 5.1-7.7 0-15.2 0-15.2 1.4 1.2 4.3 5.4 4.3 5.4-1.1-13.7-6-15.2-6-15.2-12.2-8.5-22.4-19.5-32.8-18.6"/><path fill="#423118" d="M244.6 91.7s-.1.3-.2.7c-.1.5-.4 1.1-.7 1.8-.2.4-.3.8-.5 1.2s-.4.8-.7 1.3c-.2.4-.5.9-.8 1.3s-.6.9-1 1.2c-.3.4-.7.8-1.1 1.2s-.7.7-1.2 1c-.2.1-.4.3-.6.4s-.4.2-.6.4c-.4.2-.8.5-1.1.6-.4.2-.7.3-1 .4s-.6.2-.8.2c-.5.1-.7.2-.7.2s.3 0 .7-.1c.2 0 .5-.1.8-.1.3-.1.7-.2 1.1-.3s.8-.3 1.2-.5c.2-.1.4-.2.7-.3.2-.1.4-.3.6-.4.4-.3.8-.6 1.2-1 .4-.3.8-.8 1.1-1.2s.6-.9 1-1.3c.3-.5.6-.9.8-1.4.5-.9.8-1.8 1-2.6.7-1.6.8-2.7.8-2.7M197.3 55.2h2.3c1.4-.1 3.2-.2 5-.5s3.6-.7 5-1.1c1.3-.4 2.2-.7 2.2-.7l-7.2 1.2c-1.8.3-3.6.6-5 .8-1.4.1-2.3.3-2.3.3M202.7 58.2h-.6c-.4 0-1 .1-1.7.3s-1.5.5-2.2.9c-.4.2-.8.4-1.2.7s-.8.5-1.1.9c-.4.3-.7.7-1 1s-.6.7-.8 1.1c-.3.4-.4.8-.6 1.1s-.3.7-.5 1c-.1.3-.3.6-.3.9-.1.3-.1.5-.2.7-.1.4-.1.6-.1.6l.3-.6c.1-.2.2-.4.3-.7s.3-.5.4-.8c.2-.3.3-.6.5-1 .2-.3.4-.7.7-1s.5-.7.8-1 .6-.7 1-.9c.3-.3.7-.6 1-.8.4-.3.7-.5 1.1-.7.7-.4 1.5-.8 2.1-1 .6-.3 1.2-.4 1.6-.5.2-.2.5-.2.5-.2"/><path fill="#423118" d="M194 64.2s-3.7.7-9.2 1.6c-2.8.5-6 .9-9.5 1.3s-7.2.8-10.9.8c-1.9 0-3.7 0-5.6-.2-1.8-.2-3.6-.3-5.4-.5-3.5-.4-6.8-.8-9.6-1s-5.2-.3-6.8-.3h-2.6s.9 0 2.6.1c1.6.1 4 .2 6.8.5s6 .8 9.5 1.2c1.7.2 3.6.4 5.4.6s3.7.3 5.6.3c3.8-.1 7.5-.4 11-.9s6.7-1 9.5-1.5 5.1-1 6.7-1.4 2.5-.6 2.5-.6M228.4 110.7s-.3.3-.9.7c-.6.5-1.5 1.1-2.7 1.9-2.4 1.6-6.1 3.5-10.7 5.2s-10.2 3.1-16.3 4.1c-3 .5-6.2.9-9.4 1.2s-6.5.6-9.8.7-6.5 0-9.7-.5q-4.8-.75-9-2.7c-1.4-.7-2.7-1.4-3.9-2.2s-2.4-1.7-3.7-2.4c-2.5-1.4-5-2.3-7.4-2.9-4.8-1.2-9-1.3-11.8-1.3-2.9.1-4.5.4-4.5.4s1.6-.2 4.5-.3c2.9 0 7 .2 11.7 1.5 2.4.7 4.9 1.6 7.3 3q1.8 1.05 3.6 2.4c1.2.8 2.6 1.6 4 2.3 2.8 1.4 5.9 2.3 9.1 2.8s6.5.7 9.8.5c3.3-.1 6.6-.5 9.8-.7 3.2-.3 6.4-.7 9.4-1.2 6.1-1 11.7-2.6 16.3-4.3s8.2-3.8 10.6-5.4c1.2-.8 2.1-1.5 2.7-2 .6-.6 1-.8 1-.8M251.2 95.2s.2-.1.5-.4c.2-.1.3-.3.5-.6q.3-.3.6-.9c.2-.3.3-.7.5-1.1.1-.4.3-.8.4-1.3s.2-1 .2-1.4c.1-.5 0-1 0-1.5s-.1-1-.1-1.5-.2-1-.3-1.4c-.2-.9-.5-1.7-.7-2.5-.1-.4-.3-.7-.4-.9-.1-.3-.2-.5-.3-.7l-.3-.6s.1.2.2.7c.1.2.1.5.2.8s.2.6.2 1c.1.4.2.7.3 1.2.1.4.2.9.2 1.3.1.5.2.9.2 1.4s.1 1 .1 1.4v1.4c0 .5-.1.9-.1 1.4-.1.4-.2.9-.3 1.3s-.2.8-.4 1.1c-.1.3-.3.6-.4.9-.2.3-.3.5-.4.6-.2.2-.4.3-.4.3M243.2 96.6h.5c.3 0 .7-.1 1.2-.2s1-.4 1.6-.7c.3-.2.6-.3.8-.5.3-.2.5-.4.8-.6s.5-.5.7-.7.4-.5.6-.8.3-.5.4-.8c.1-.2.2-.5.3-.7.2-.5.2-.9.3-1.2s.1-.4.1-.4-.1.1-.2.4c-.1.1-.1.3-.2.5l-.3.6c-.1.2-.2.4-.4.7-.2.2-.3.5-.5.7s-.4.5-.6.7-.4.5-.6.7c-.4.4-.9.8-1.4 1.2-.5.3-1 .6-1.4.8-1.1.1-1.7.3-1.7.3M255.4 84.9s.1-1 0-2.6c-.1-.8-.1-1.7-.3-2.6s-.4-2-.6-3c-.1-.5-.3-1-.5-1.5s-.4-.9-.6-1.4c-.2-.4-.5-.8-.7-1.2s-.6-.7-.8-1-.6-.5-.8-.7-.5-.3-.7-.4l-.6-.3s.2.2.6.4c.2.1.4.3.6.5s.5.4.7.8c.2.3.5.6.7 1l.6 1.2c.2.4.4.9.5 1.3.2.5.3.9.5 1.4.3 1 .5 1.9.7 2.9.2.9.4 1.8.5 2.6.1 1.5.2 2.6.2 2.6"/><path fill="#ebdfd4" d="M259.8 34.1s-4.1-11.6-14.2-14.9c0 0 .1 4.8 2.1 7 0 0-2.4-2.6-2.9-3.6 0-.1.4 13.1 15 11.5"/><path fill="#b5987c" d="M256.3 34.4s-.3 0-.8-.2c-.5-.1-1.2-.3-2-.6-.4-.1-.8-.3-1.3-.5-.4-.2-.9-.5-1.3-.7-.4-.3-.9-.5-1.3-.9-.4-.3-.9-.7-1.2-1.1-.4-.4-.8-.8-1.1-1.2-.4-.4-.6-.9-.9-1.3s-.4-.9-.6-1.4c-.2-.4-.3-.9-.4-1.3s-.3-.8-.3-1.1c-.1-.3-.1-.6-.2-.9-.1-.5-.1-.8-.1-.8v1.7c0 .4.1.7.2 1.2.1.4.1.9.3 1.4s.3 1 .6 1.5.5 1 .9 1.4c.3.5.7.9 1.1 1.3s.9.8 1.3 1.1c.5.3 1 .6 1.4.9.5.2 1 .5 1.4.6.5.2.9.3 1.3.4.8.2 1.5.3 2 .4.7.1 1 .1 1 .1"/><path fill="#b5987c" d="M247.7 26.1s-.2-.4-.4-1.1c-.3-.6-.6-1.5-.8-2.3q-.45-1.35-.6-2.4c-.1-.3-.1-.6-.1-.8s-.1-.3-.1-.3 0 .1-.1.3c0 .2-.1.5-.1.8 0 .4 0 .8.1 1.2s.2.9.3 1.4c.3.9.7 1.8 1.1 2.3.3.6.7.9.7.9M259.8 34.1s-.4-1-1.1-2.5c-.4-.7-.8-1.6-1.4-2.5-.5-.9-1.2-1.8-1.8-2.7-.7-.9-1.4-1.7-2.1-2.5-.4-.4-.7-.7-1.1-1s-.7-.6-1-.8-.7-.4-.9-.6c-.3-.2-.6-.3-.8-.4-.4-.2-.7-.3-.7-.3s.2.2.6.4c.2.1.4.3.7.5s.5.5.9.7c.3.3.6.6 1 .9.3.3.7.7 1 1.1.7.8 1.4 1.6 2 2.5.7.9 1.3 1.7 1.8 2.6.6.8 1.1 1.6 1.5 2.3s.8 1.3 1 1.7c.3.3.4.6.4.6"/><path fill="#ebdfd4" d="M216.7 66.3c.6-1.5 4.4-4.2 4.4-4.2-4.9 1.9-10.9-2.9-10.9-2.9 1.8.4 7.4-3.3 7.4-3.3-4.7.9-9.1-2.2-9.1-2.2 3.4.7 7.1-1.7 7.1-1.7-4.2 1.7-8.1-2.3-8.1-2.3s6.1-.3 10.2-7.8c4.1-7.4 10.8-7.6 10.8-7.6-1.5-.3-4.3-.6-4.3-.6 7.5-6.7 12.8-3.4 12.8-3.4-2.1-.8-3.3-3.9-3.3-3.9s6.5 2.3 14.6 1.7c15-1.1 23.8 9.1 24.2 16.5.3 6-.4 13.7-6.6 15.2s-10.5 4.3-9.3 7.4c1.2 3 2.4 6.4-.6 12 0 0 .1-3.7-1.4-6.5 0 0 .8 9.8-6.5 11.7 0 0 .4-3.6-.1-6.9 0 0-1.8 7.4-4.5 8.4 0 0-3.9-2.4-3.1-11.8 0 0-1.1 6.9-.7 9.5 0 0-7.4-4.9-6.2-13.4 0 0-2.2 4.5-1.1 8.5 0 0-7.2-4-5.4-12.6 0 0-2.3 5.1-5 6.1 0 0 0-4.6 1.7-8.3-1.9 1.5-4.1 2.4-7 2.4"/><path fill="#473322" d="M257.463 43.616c-.352-.073-.723.113-1.037.473-.315.36-.575.893-.704 1.514-.13.622-.104 1.215.042 1.67.145.456.411.773.762.846.352.074.722-.112 1.037-.472.316-.36.575-.893.704-1.515.13-.62.104-1.213-.042-1.67-.145-.454-.411-.773-.762-.846"/><path fill="#b5987c" d="M264.6 44.2s-.1.1 0 0c-.2.2-.3.2-.4.3s-.3.1-.6.2c-.2 0-.5.1-.7.1-.5 0-1.2-.1-1.9-.2s-1.4-.3-2.1-.5-1.4-.4-2.1-.7q-1.05-.3-1.8-.6c-1.1-.4-1.8-.6-1.8-.6s.6.4 1.7 1c.5.3 1.1.5 1.8.8s1.4.5 2.1.7c.4.1.7.2 1.1.3s.7.1 1.1.2.7 0 1 .1c.3 0 .7 0 .9-.1.6-.1 1-.3 1.3-.5.3-.3.4-.5.4-.5M224.2 33.7s.6-.6 1.7-1.3c.5-.4 1.2-.7 1.9-1.1.7-.3 1.5-.7 2.4-.9l1.2-.3c.4-.1.8-.1 1.2-.2h2.2c.3 0 .6 0 .9.1.3 0 .5.1.7.1.4.1.6.1.6.1s-.2-.1-.6-.2c-.2-.1-.4-.1-.7-.2s-.6-.1-.9-.2-.7-.2-1.1-.2-.8-.1-1.2 0c-.4 0-.9 0-1.3.1s-.9.1-1.3.3c-.4.1-.9.3-1.3.4s-.8.4-1.2.5c-.7.4-1.4.8-1.9 1.3-.5.4-.9.8-1.1 1.1-.1.4-.2.6-.2.6M233.7 26.4l1.8.6c1.1.3 2.7.8 4.7 1.2 1 .2 2.1.4 3.3.5.6 0 1.2.1 1.8 0 .6 0 1.2-.2 1.8-.2 1.2-.1 2.5-.2 3.8-.2.7 0 1.3 0 2 .1.7 0 1.3.1 2 .3q1.95.3 3.9.9c.6.2 1.2.4 1.8.7.6.2 1.2.5 1.7.8.6.3 1.1.6 1.6.9s1 .6 1.5 1c.4.4.9.7 1.3 1.1.4.3.7.8 1.1 1.1.3.4.7.7 1 1.1s.5.7.8 1c.2.3.5.6.7.9s.3.6.5.8c.6 1 .9 1.6.9 1.6s-.3-.6-.8-1.7c-.1-.3-.3-.6-.4-.9-.2-.3-.4-.6-.6-1-.2-.3-.5-.7-.7-1.1-.3-.4-.6-.7-.9-1.1-.4-.4-.7-.8-1.1-1.2s-.8-.7-1.3-1.1c-.4-.4-1-.7-1.5-1.1s-1-.7-1.6-1-1.1-.6-1.8-.8c-.6-.3-1.2-.5-1.9-.7-1.3-.4-2.6-.8-3.9-1-.7-.1-1.3-.2-2-.2-.7-.1-1.3-.1-2-.1-1.3 0-2.7 0-3.9.2-.6.1-1.3.2-1.8.3-.6.1-1.2.1-1.7.1-1.1 0-2.2-.2-3.2-.3-2-.3-3.6-.7-4.8-1-1.5-.3-2.1-.5-2.1-.5M207.4 49.7s.4 0 1.2-.1c.7-.2 1.8-.4 2.9-1s2.4-1.5 3.5-2.7c.5-.6 1-1.3 1.5-2l1.5-2.1c.5-.7 1-1.4 1.5-2s1.1-1.2 1.6-1.8c.3-.3.6-.5.8-.8.3-.2.6-.5.9-.7.6-.4 1.2-.8 1.7-1 .6-.3 1.1-.5 1.6-.7.5-.1.9-.3 1.3-.4.7-.1 1.1-.2 1.1-.2s-.4 0-1.2.1c-.4 0-.8.2-1.3.3s-1.1.3-1.7.6c-.6.2-1.2.6-1.8 1-.3.2-.6.4-.9.7-.3.2-.6.5-.9.8-.6.6-1.2 1.2-1.7 1.8-.5.7-1.1 1.3-1.5 2-.5.7-1 1.4-1.4 2.1-.5.7-.9 1.4-1.4 1.9-1 1.2-2.1 2.1-3.2 2.7s-2.1 1-2.8 1.2c-.8.3-1.3.3-1.3.3M247.9 84.3s.2 0 .6-.1.9-.3 1.6-.6l.9-.6c.3-.2.6-.6.9-.9s.6-.7.8-1.1.5-.8.6-1.2l.3-.6.2-.7c.1-.4.3-.9.3-1.3.1-.4.2-.8.2-1.2s.1-.8.1-1.1v-2.3s0 .2-.1.6-.1 1-.2 1.6c-.1.3-.1.7-.2 1.1 0 .4-.2.8-.3 1.2s-.2.8-.4 1.2l-.2.6-.3.6-.6 1.2c-.2.4-.5.7-.7 1-.3.3-.5.6-.8.9s-.6.5-.8.7c-.3.2-.5.4-.8.5-.2.1-.5.2-.6.3-.2.2-.5.2-.5.2M255.8 79.1s.6-.6 1.1-1.6c.3-.5.5-1.2.7-1.9.1-.4.2-.7.2-1.1.1-.4.1-.8.1-1.2v-1.2c-.1-.4-.1-.8-.2-1.2s-.2-.7-.3-1.1l-.3-.9c-.2-.6-.5-1-.6-1.3-.2-.3-.3-.5-.3-.5s.1.2.1.5c.1.3.2.8.4 1.4.1.3.1.6.2.9s.1.7.2 1c0 .4.1.7.1 1.1v1.1c0 .4 0 .8-.1 1.1 0 .4-.1.7-.2 1.1-.1.7-.3 1.4-.5 1.9-.1 1.3-.6 1.9-.6 1.9M243.3 85.8s.2 0 .4-.1.6-.3.9-.7c.3-.3.7-.8 1-1.2.3-.5.6-1 .9-1.6.2-.6.5-1.1.6-1.7.2-.5.3-1.1.4-1.5.2-.9.2-1.5.2-1.5s-.3.6-.6 1.4c-.4.8-.8 2-1.3 3.1-.2.5-.5 1.1-.8 1.6s-.5.9-.8 1.3-.5.6-.7.8c-.1.1-.2.1-.2.1M239.4 83.5s-.8-.6-1.7-1.7c-.2-.3-.5-.6-.8-.9s-.5-.7-.8-1c-.5-.7-1-1.5-1.4-2.4-.2-.4-.4-.8-.6-1.3-.2-.4-.3-.9-.4-1.3s-.2-.8-.3-1.3c-.1-.4-.1-.8-.2-1.1 0-.4-.1-.7-.1-1V70s0 .2-.1.7c0 .2-.1.5-.1.8v1c0 .4 0 .8.1 1.2 0 .4.1.9.2 1.3.1.5.2.9.4 1.4s.3.9.6 1.4c.4.9 1 1.7 1.6 2.4s1.2 1.3 1.7 1.8c1 1 1.9 1.5 1.9 1.5M232.1 78.5s-.2-.1-.5-.4c-.3-.2-.8-.6-1.3-1.1-.3-.2-.5-.5-.8-.8-.2-.3-.5-.6-.7-1-.1-.2-.2-.3-.4-.5l-.3-.6-.6-1.2c-.2-.4-.3-.8-.4-1.3-.1-.4-.2-.9-.3-1.3s-.1-.8-.2-1.2V68c-.1-.7 0-1.3 0-1.7v-.6s-.1.2-.1.6c-.1.4-.2 1-.3 1.7 0 .3-.1.7-.1 1.1s0 .8.1 1.3c.1.4.2.9.2 1.3.1.4.3.9.4 1.3.2.4.4.9.6 1.3s.5.8.8 1.1c.3.4.6.7.9 1s.6.5.9.7c.6.4 1.1.7 1.4.9.4.5.7.5.7.5M221.6 72s.1-.5.2-1.3.3-1.8.5-2.9c.2-1 .4-2.1.6-2.8q.15-.6.3-.9c.1-.2.1-.4.1-.4s-.4.4-.8 1.1-.7 1.8-.9 2.9-.2 2.2-.2 3c.1.8.2 1.3.2 1.3M216.7 66.3s.3-.3.7-.6c.4-.4.9-1 1.5-1.5.5-.6 1-1.1 1.4-1.5.2-.2.4-.3.5-.4s.2-.1.2-.1h-.3c-.1 0-.2.1-.3.1s-.2.1-.4.2c-.5.3-1.2.8-1.7 1.3-.5.6-1 1.2-1.3 1.7-.1.5-.3.8-.3.8M210.2 59.2s.5 0 1.3-.1 1.8-.4 2.7-.8c.5-.2.9-.5 1.3-.8s.8-.5 1.1-.8c.6-.5 1-.8 1-.8s-.5.2-1.2.5q-.45.3-1.2.6c-.4.2-.8.5-1.3.7-.9.4-1.8.8-2.5 1-.7.4-1.2.5-1.2.5M208.5 53.8s.4.2 1.2.3c.7.1 1.7.1 2.6-.1.5-.1.9-.2 1.3-.4s.8-.4 1.1-.6q.45-.3.6-.6c.1-.2.2-.2.2-.2s-.1 0-.3.1l-.8.4c-.3.1-.7.3-1.1.4s-.8.3-1.3.3c-.9.2-1.8.3-2.5.4-.5-.1-1 0-1 0"/><path fill="#ebdfd4" d="M251.6 34.5s-5.7-10.9-16.2-12.8c0 0 .8 4.7 3 6.6 0 0-2.8-2.2-3.3-3.2 0 .1 2.2 13.1 16.5 9.4"/><path fill="#b5987c" d="M248.1 35.3h-.8c-.5 0-1.2-.1-2-.3-.4-.1-.9-.2-1.3-.3-.5-.1-.9-.3-1.4-.5s-1-.4-1.4-.7c-.5-.3-1-.5-1.4-.9-.5-.3-.9-.7-1.3-1.1-.4-.3-.7-.8-1-1.2s-.5-.9-.8-1.3-.4-.8-.6-1.2-.4-.7-.4-1.1c-.1-.3-.2-.6-.3-.8-.2-.5-.3-.7-.3-.7s0 .3.1.8c0 .2.1.5.2.9 0 .4.2.7.3 1.1.2.4.3.9.5 1.3s.4.9.8 1.4c.3.4.6.9 1.1 1.3.4.4.8.8 1.3 1.2s1 .6 1.5.9 1 .5 1.5.7 1 .3 1.5.4.9.2 1.4.2c.9.1 1.6.1 2.1.1.5-.1.7-.2.7-.2"/><path fill="#b5987c" d="M238.4 28.4s-.2-.4-.6-1c-.3-.6-.8-1.4-1.2-2.2s-.7-1.6-.9-2.3c-.1-.3-.2-.6-.3-.8s-.1-.3-.1-.3V23c0 .4.1.8.2 1.2s.3.9.5 1.3c.4.9 1 1.6 1.4 2.1.6.5 1 .8 1 .8M251.6 34.5s-.5-1-1.4-2.3c-.5-.7-1-1.5-1.7-2.2-.7-.8-1.4-1.6-2.2-2.4q-1.2-1.2-2.4-2.1l-1.2-.9c-.4-.2-.8-.5-1.2-.7s-.7-.3-1-.5-.6-.2-.8-.3c-.5-.1-.7-.2-.7-.2s.2.1.7.3c.2.1.5.2.8.4l.9.6c.3.2.7.5 1.1.8s.7.6 1.1.9c.8.6 1.6 1.4 2.3 2.1.8.8 1.5 1.5 2.2 2.3q1.05 1.2 1.8 2.1c.5.6.9 1.2 1.3 1.5.2.4.4.6.4.6"/><path fill="#fbbf3f" d="M272.4 44.6c5.3 4.6 13.5 9.6 8.3 20.2 0 0-1.2-4.6-3.6-5.1s-12.7-.5-16.6-4 2.5-3 4.9-2.5 7-8.6 7-8.6"/><path fill="#b38637" d="M280.6 64.8s-.4-1.4-1.3-3.4c-.2-.5-.5-1-.9-1.6-.3-.5-.7-1.1-1.2-1.6-.4-.5-1-1-1.6-1.5-.6-.4-1.5-.7-2.1-.8-1.5-.2-2.9-.2-4.3-.2h-3.7c-.5 0-1 0-1.5-.1-.4 0-.8-.1-1.1-.2s-.5-.1-.7-.2l-.2-.1s.3.2.9.4c.3.1.7.2 1.1.3s.9.2 1.5.2c1.1.1 2.4.2 3.7.2q2.1 0 4.2.3c.8.1 1.3.3 1.9.6.6.4 1.1.8 1.5 1.4.9 1 1.6 2.1 2.1 3s1 1.7 1.2 2.3c.4.7.5 1 .5 1M274.1 49.8s-.2-.1-.5-.1-.7-.1-1.1.1l-.6.3c-.2.1-.3.3-.4.5-.1.3-.1.5-.1.5l.1-.1c0-.1.1-.2.2-.3s.2-.2.4-.2c.1-.1.3-.1.5-.2.3-.1.7-.2 1-.3.3-.2.5-.2.5-.2M281.8 62.5s.1-.3.2-.9.3-1.4.4-2.5c.1-1 .1-2.3-.1-3.5-.1-.6-.4-1.3-.6-1.9-.3-.6-.7-1.2-1.1-1.8-.9-1.1-1.9-2-2.8-2.9s-1.9-1.6-2.7-2.3c-1.6-1.3-2.7-2.1-2.7-2.1s1 .9 2.5 2.3c.7.7 1.6 1.5 2.5 2.4s1.9 1.9 2.7 2.9 1.4 2.2 1.7 3.4l.3 1.8V59c0 1-.1 1.9-.2 2.5 0 .6-.1 1-.1 1"/><path fill="#704e2c" d="M111.9 75.8C109.1 73.1 88 82 78.3 88.3c-11.9 7.7-52.1 33.1-68.2 1.4 0 0-.5 12.5 15.8 17.2 20.8 5.9 47.5-7.6 59.9-14.2 6.7-3.5 12-6.8 17.4-8.1 5.5-1.4 11.9-5.7 8.7-8.8"/><path fill="#423118" d="M92.4 89s-.3.1-.9.4-1.4.7-2.5 1.3c-2.2 1.2-5.3 2.8-9 4.7-3.8 1.9-8.2 4-13.1 6s-10.2 3.8-15.7 5c-2.7.6-5.5 1-8.2 1.3-2.7.2-5.5.3-8.1.1-5.2-.3-10.1-1.4-13.9-3.3-1.9-.9-3.5-2-4.8-3-1.3-1.1-2.3-2.2-3.1-3.1-.8-1-1.2-1.8-1.5-2.4.3.6.7 1.5 1.5 2.5.7 1 1.7 2.2 3 3.3 1.3 1.2 2.9 2.2 4.8 3.2s4.1 1.8 6.4 2.4c2.4.6 4.9 1 7.6 1.1 2.7.2 5.4.2 8.2-.1 2.8-.2 5.6-.7 8.3-1.3 5.5-1.2 10.9-3.1 15.8-5.1s9.3-4.2 13.1-6.2c3.7-2 6.8-3.8 8.9-5 1.1-.6 1.9-1.1 2.5-1.4.4-.3.7-.4.7-.4"/><path fill="#423118" d="M108.1 75.6s-.4 0-1.2.2c-.8.1-1.9.4-3.2.8-2.8.8-6.7 2.3-11.2 4.2-2.3 1-4.7 2.1-7.3 3.3s-5.2 2.6-7.9 4.2c-2.6 1.6-5.3 3.3-8.2 4.9q-4.2 2.4-8.7 4.5c-5.9 2.8-12.2 5.1-18.2 6.2-3 .6-6 .8-8.8.8-2.8-.1-5.5-.5-7.8-1.2s-4.4-1.7-6.1-2.8-3-2.2-4-3.3c-1-1-1.7-1.9-2.2-2.5s-.7-.9-.7-.9.2.3.7 1c.5.6 1.2 1.5 2.2 2.6 1 1 2.3 2.2 4 3.4 1.7 1.1 3.7 2.2 6.1 3s5.1 1.2 7.9 1.3c2.9.1 5.9-.1 8.9-.7 6.1-1.1 12.4-3.4 18.4-6.1 3-1.4 5.9-2.9 8.8-4.5 2.8-1.6 5.6-3.3 8.2-4.9s5.3-3 7.8-4.3 4.9-2.4 7.2-3.4c4.5-2 8.3-3.6 11.1-4.5 1.4-.5 2.5-.8 3.2-.9.6-.4 1-.4 1-.4"/><path fill="#bd8f33" d="M12.4 94.3c3.4-1.6 5-8.3 1.3-10.7 0 0 1.3 2 .2 4.1 0 0 .8-4.3-4.7-6.1-5.4-1.8-3.4-5.2-3.4-5.2S1.7 79 3 84c0 0-1.6-3.3-1.4-5 0 0-3.5 9 2 13 3.9 2.8 6.6 3.4 8.8 2.3"/><path fill="#704e2c" d="M10.4 94.8s-.3 0-.9-.2c-.3-.1-.6-.1-1-.3-.4-.1-.8-.3-1.3-.4-.5-.2-1-.4-1.5-.7-.3-.1-.5-.3-.7-.5s-.5-.3-.7-.5-.5-.4-.7-.6-.4-.5-.6-.7-.4-.5-.6-.8-.4-.5-.5-.8l-.4-.9-.3-.9-.1-.5c0-.2 0-.3-.1-.5 0-.3-.1-.6-.1-.9-.1-.6 0-1.2 0-1.8s.1-1.1.2-1.6.1-1 .2-1.4.2-.7.2-1c.1-.6.2-.9.2-.9l-.3.9c-.1.3-.2.6-.3 1-.2.4-.3.8-.3 1.3-.1.5-.3 1-.3 1.6s-.1 1.2-.1 1.9c0 .3.1.7.1 1 0 .2 0 .3.1.5l.1.5c.1.3.2.7.3 1l.4 1c.1.3.3.6.5.9s.4.6.6.8l.7.7c.3.2.5.4.8.6.2.2.5.4.8.5.3.2.5.3.8.4.5.3 1.1.4 1.5.6.5.1.9.3 1.4.3.4.1.8.1 1.1.2h.7c0 .2.1.2.1.2M14.1 93s.1-.1.4-.3c.2-.2.5-.5.8-.9s.6-.9.8-1.6c.1-.3.2-.6.3-1 .1-.3.1-.7.1-1 0-.4-.1-.7-.1-1-.1-.3-.2-.7-.3-1-.2-.3-.3-.6-.5-.8s-.3-.5-.5-.7c-.3-.4-.7-.6-.9-.8s-.4-.3-.4-.3.1.1.3.4c.1.1.2.2.3.4s.2.4.4.6.3.4.4.7c.1.2.2.5.4.8.1.3.2.6.2.9.1.3.1.6.1.9 0 1.3-.4 2.5-.8 3.4-.2.4-.4.8-.6 1-.3.1-.4.3-.4.3"/><path fill="#704e2c" d="M13.9 87.7s0-.2.1-.7c0-.4.1-1-.1-1.8-.2-.7-.6-1.5-1.3-2.2s-1.5-1.2-2.4-1.6-1.8-.8-2.5-1.2c-.8-.4-1.4-.9-1.7-1.5-.1-.3-.2-.6-.2-.9v-.7c.1-.4.1-.7.1-.7s0 .1-.1.2c0 .1-.1.3-.2.5s-.1.5-.2.8c0 .3 0 .7.1 1 .1.4.4.7.7 1s.7.6 1.1.8c.8.5 1.7.9 2.5 1.3.9.4 1.7.8 2.3 1.4.3.3.6.6.8.9s.4.7.5 1c.2.7.3 1.3.3 1.7.2.4.2.7.2.7M3.1 84s-.1-.4-.1-1 0-1.3.2-2c.1-.4.2-.7.3-1s.2-.6.4-.9c.1-.3.2-.5.3-.7s.1-.3.1-.3l-.2.2-.5.5c-.4.5-.8 1.2-1 2-.1.4-.1.8-.1 1.2s.1.7.2 1c.1.7.4 1 .4 1M207.7 90.5c3.4-.9 7.5 2 9.2 3.7 6.9 7-7.5 35.3-15.4 39.3-5.6 2.8-14.4-4.5-14.7-9.9s2.5-12.4 6.7-18.9c-1.5.7-3.1 1.6-3.1 1.6 1.1-4.7 6.7-7.5 6.7-7.5-1.9.2-4.6 1.5-4.6 1.5 5.2-6.8 11.9-9 15.2-9.8"/><path fill="#423118" d="M197.1 98.7s-.2 0-.4.1c-.3.1-.7.2-1.1.5-.4.2-.9.6-1.4 1s-.9.9-1.3 1.4-.8 1.1-1.1 1.6-.6 1-.8 1.5c-.2.4-.3.8-.4 1.1s-.1.4-.1.4.1-.1.2-.4c.2-.2.4-.6.6-1 .3-.4.6-.9.9-1.4.2-.3.4-.5.5-.7.2-.3.4-.5.6-.7.8-1 1.7-1.9 2.4-2.5.8-.6 1.4-.9 1.4-.9M192.5 100.2s.5-.6 1.3-1.4 1.9-1.8 3.1-2.8c.6-.5 1.2-.9 1.8-1.3s1.1-.8 1.6-1.1.9-.6 1.2-.8.4-.3.4-.3-.2.1-.5.2-.8.3-1.3.6c-.5.2-1.1.6-1.7 1s-1.3.8-1.9 1.3-1.2 1-1.7 1.5-1 1-1.3 1.5c-.7.9-1 1.6-1 1.6M206.5 128.9s.7-.7 1.6-1.8c.5-.6 1-1.2 1.5-1.9s1.1-1.5 1.6-2.3 1-1.7 1.4-2.4l.6-1.2c.2-.4.3-.7.5-1.1.3-.7.5-1.2.6-1.6s.2-.6.2-.6l-.3.6c-.2.4-.5.9-.8 1.5s-.8 1.3-1.2 2.1-.9 1.6-1.4 2.4-1 1.6-1.5 2.3-.9 1.4-1.3 2z"/><path fill="#3b342d" d="M184.5 156.4c-.5-1 .5-2.8.5-2.8-.8.2-1.8 1.5-1.7 2.8zM187.4 156.3c-.2-1.1 1.3-2.6 1.3-2.6-.9-.1-2.1 1-2.4 2.2zM189.9 157c-.2-1.1 1.3-2.6 1.3-2.6-.9-.1-2.1 1-2.4 2.2z"/><path fill="#fbbf3f" d="M185.1 156.5s1.3-1.5 2.1-.7c.2.3.4.5.6.7 1-.5 1.9-.3 2.4 0 1.8-.9 4.2-2.4 4.9-4.1 3.1-8.2 7.3-7 8.1-2.2 0 0-2.8 5.8-4.3 8.1-1.4 2.3-3.2 6.7-7.5 6.8-4.2.1-3.3-1.6-3.3-1.6s-3.2.1-3.7-2.2c0 0-1.6-.3-2.1-2.8-.4-2.4 2.6-3.2 2.8-2"/><path fill="#c9982f" d="M195.4 160.9s-.1.1-.3.2-.5.3-.8.4c-.6.4-1.5.8-2.4 1.1s-1.8.6-2.5.8-1.2.3-1.2.3.5.1 1.3.1 1.8-.2 2.7-.5c1-.4 1.8-.9 2.4-1.4.3-.2.5-.5.6-.6.1-.3.2-.4.2-.4M192.5 158.4c-.1.1-.1.2-.2.3-.2.2-.5.3-.9.5-.7.4-1.7.8-2.8 1.2-1 .4-2 .8-2.8 1-.4.1-.7.2-1 .1-.2 0-.4-.1-.4-.1s.1.1.3.2.6.1 1 .1c.9-.1 2-.4 3-.8s2-1 2.7-1.5c.3-.3.6-.5.7-.7.4-.1.4-.3.4-.3M185.1 156.5c-.1.6-.1 1.2-.1 1.7v.3l.3-.1c1-.2 1.9-.5 2.8-1-1-.1-2 .1-2.9.4l.4.3c-.1-.5-.2-1.1-.5-1.6"/><path fill="#704e2c" d="M202.8 126.4c3.3 5 3.9 14 3.2 25.3-.2 3-4.1 8.2-4.1 8.2 0-1.2.4-3.4.4-3.4-.7 1.9-3.4 2.5-3.4 2.5.5-2.4.7-3.1.7-3.1-1.9.6-2.4 2.2-2.4 2.2-.2-1.6.2-3.8.2-3.8-1.6 2.6-3.5 2.5-3.5 2.5.9-.4 1.3-4.1 1.3-4.1-1.8 1.2-3.4 1.5-3.4 1.5.7-1.6 1.9-3.7 1.9-3.7-1.4.8-3.4 1-3.4 1 1.2-1.6 2.6-2.9 2.8-4.8s-6.9-19.3-4.7-23.5c2.1-4.3 9.7-3.7 14.4 3.2"/><path fill="#423118" d="m201.8 159.8.9-1.2c.6-.8 1.4-1.8 2.2-3.3.4-.7.8-1.5 1-2.5.2-.9.3-1.9.4-2.9.2-2 .4-4.2.4-6.4.1-2.2 0-4.4-.3-6.4s-.7-3.9-1.3-5.5-1.2-2.8-1.7-3.6q-.45-.6-.6-.9c-.2-.2-.2-.3-.2-.3s.3.5.7 1.3 1 2.1 1.5 3.6.8 3.4 1.1 5.4c.2 2 .3 4.2.3 6.3 0 2.2-.1 4.3-.2 6.4-.1 1-.1 2-.3 2.9q-.3 1.35-.9 2.4c-.7 1.4-1.5 2.6-2 3.3-.6 1-1 1.4-1 1.4M197.1 158.1s0-.3.1-.6c0-.4.1-.8.1-1.3v-1.9s-.2.2-.4.5-.3.8-.3 1.3.1 1 .2 1.4zM193.9 156.9s.3-.1.6-.5c.3-.3.6-.9.7-1.4.2-.6.2-1.1.2-1.6 0-.4-.1-.7-.1-.7s0 .1-.1.2c0 .1-.1.3-.2.5-.1.4-.3.9-.4 1.4s-.3 1-.4 1.4c-.2.4-.3.7-.3.7M191.9 154.1s.2-.2.4-.5.5-.8.7-1.2c.2-.5.4-.9.5-1.3s.2-.6.2-.6-.2.2-.5.4c-.3.3-.6.7-.8 1.2s-.4 1-.5 1.4zM190.3 151.5s.5-.3 1-.8c.3-.3.6-.6.9-1.1.3-.4.5-.9.7-1.4s.3-1.1.3-1.6v-.7c0-.2-.1-.5-.1-.7-.1-.2-.1-.4-.2-.5s-.2-.3-.2-.4c-.1-.2-.2-.3-.2-.3s0 .1.1.4c0 .1.1.2.1.4s0 .3.1.5v1.3c0 .2-.1.5-.1.7s-.1.5-.2.7c-.3.9-.9 1.8-1.3 2.5-.6.6-.9 1-.9 1"/><path fill="#423118" d="M192.9 144.9s-.2-.6-.5-1.7-.8-2.7-1.3-4.6-1.1-4.1-1.7-6.5-1.2-5-1.6-7.6c-.2-1.3-.3-2.6-.2-3.8.1-1.3.4-2.5.7-3.7s.7-2.3 1.1-3.3.9-2 1.3-2.9c.5-.9.9-1.7 1.3-2.3.4-.7.8-1.3 1.1-1.7.3-.5.6-.8.8-1.1.2-.2.3-.4.3-.4s-.1.1-.3.4c-.2.2-.5.6-.9 1-.7.9-1.7 2.2-2.7 4-1 1.7-2 3.8-2.7 6.2-.3 1.2-.6 2.5-.8 3.8-.1 1.3-.1 2.7.2 4 .5 2.6 1.1 5.2 1.7 7.6s1.3 4.6 1.9 6.5c1.3 3.6 2.3 6.1 2.3 6.1M198.8 159s0-.2.2-.5c.1-.3.2-.6.3-1s.2-.7.2-1v-.5s-.2.1-.3.4c-.2.2-.4.6-.5 1s-.2.8-.1 1.1c.1.4.2.5.2.5"/><path fill="#704e2c" d="M146.1 79.1c8.4 15.7 10.1 39.1 6.2 53.1s5.6 31.2 5.6 31.2 8.6 4 9.3 6.3c1.4 5.3-9.5 6.6-14.3 5.7s-26.8-26.9-25.4-34.1 4.8-12.2-3.8-19.6-26.5-25-20.9-34.6 30.7-31.6 43.3-8"/><path fill="#423118" d="M149.1 86.3s.4 1.2 1 3.2c.6 2.1 1.4 5.1 2.2 8.7s1.5 7.9 1.8 12.5c.2 2.3.3 4.7.2 7.1-.1 1.2-.2 2.4-.4 3.6s-.5 2.4-.7 3.6c-.5 2.4-1 4.9-1.4 7.3s-.7 4.8-.8 7.1 0 4.6.4 6.7.9 4.1 1.5 5.8c.6 1.8 1.3 3.3 1.9 4.7s1.2 2.6 1.7 3.5c1 1.9 1.5 3 1.5 3s-.5-1.1-1.4-3.1c-.4-1-1-2.2-1.5-3.6-.6-1.4-1.2-3-1.7-4.7-.6-1.8-1-3.7-1.4-5.8q-.45-3.15-.3-6.6c.1-2.3.4-4.7.8-7.1s.9-4.8 1.4-7.2c.2-1.2.5-2.4.7-3.7.2-1.2.3-2.5.3-3.7.1-2.5 0-4.9-.2-7.2-.4-4.6-1.2-8.9-2-12.5s-1.7-6.6-2.4-8.7c-.7-1.8-1.2-2.9-1.2-2.9M163.7 168.8l.5.5c.3.3.7.6 1.1 1 .4.3.8.7 1.1.9.1.1.3.2.3.3l.1.1s0-.3-.2-.7-.5-.9-1-1.2c-.4-.4-.9-.6-1.3-.8-.3 0-.6-.1-.6-.1M160.8 171.7s.2.2.4.5.6.6.9.9.7.6.9.8l.3.3.1.1s0-.3-.2-.6c-.1-.3-.4-.8-.8-1.1s-.8-.6-1.1-.7c-.3-.2-.5-.2-.5-.2M132.1 152.2s-.1-.2-.4-.5c-.2-.3-.6-.8-1-1.4-.8-1.2-1.7-3.1-2.4-5.5-.3-1.2-.5-2.5-.4-3.9 0-.3.1-.7.1-1.1.1-.3.2-.7.3-1.1.2-.7.5-1.4.8-2.1.5-1.5.9-3.1.8-4.8 0-1.7-.5-3.4-1.3-4.9s-1.9-2.8-3.1-4-2.5-2.1-3.7-3.2c-2.3-2.1-4.4-4.1-6.2-5.9s-3.2-3.3-4.2-4.3c-1-1.1-1.6-1.7-1.6-1.7s.5.6 1.5 1.7 2.3 2.7 4.1 4.5c1.7 1.8 3.8 3.9 6.1 6 1.2 1.1 2.5 2 3.6 3.2q1.8 1.65 3 3.9c.8 1.4 1.3 3 1.3 4.6.1 1.6-.2 3.2-.8 4.6-.3.7-.6 1.4-.8 2.2-.1.4-.2.8-.2 1.1-.1.4-.1.7-.1 1.1-.1 1.5.2 2.8.5 4.1.3 1.2.8 2.3 1.3 3.2s.9 1.7 1.4 2.3c.4.6.8 1.1 1 1.4s.4.5.4.5M133.6 140.6s-.2.4-.3 1-.1 1.5.1 2.4c.1.2.1.4.2.6l.3.6c.1.2.2.3.3.5s.2.3.3.4c.2.3.4.4.6.5l.2.2s0-.1-.1-.3-.2-.4-.4-.7c-.1-.3-.3-.6-.4-1s-.3-.7-.4-1.1c-.2-.8-.3-1.6-.4-2.2z"/><path fill="#704e2c" d="M156.1 73.8c-7-.4-5.3-2.4-5.3-2.4-4.4 0-7.1-2.8-7.1-2.8-5.3-.6-5.3-3.2-5.3-3.2-4.4-.4-6.2-2.4-6.2-2.4-5.3.6-9.3-2-9.3-2-4.4 0-6.2-2.4-6.2-2.4-7.6.2-9.8-3.4-9.8-3.4-20.9 1.2-8-1.8-8-1.8-23.1-1.4-4-3.8-4-3.8s-15.6 1.2-17.8-.8S90.9 46 90.9 46c-35.6 2.2-47.6-.6-40-1s35.6-2 35.6-2c-42.2.4-49.3-5.1-39.6-3.8 9.8 1.4 42.2 1 42.2 1-21.8.4-50.7-6.5-33.8-5.1s35.1 2.4 35.1 2.4c-24.4-3-27.6-8.1-9.8-4.5s55.6 3.9 78.2 5.9c22.7 2 19.6 17.8 19.6 17.8 6.2 4.5 4.9 12.4 13.3 14.8 0 .3-29 2.7-35.6 2.3"/><path fill="#423118" d="M191.7 71.8s-.3-.1-.8-.3-1.3-.5-2.1-1-1.7-1.2-2.4-2.1c-.8-.9-1.4-2-1.9-3.2-.6-1.1-1.1-2.3-1.7-3.4s-1.2-2-1.8-2.8c-.3-.4-.6-.7-.9-1s-.6-.5-.8-.6q-.3-.3-.6-.3c-.1-.1-.2-.1-.2-.1s.3.1.7.5c.4.3 1 1 1.5 1.7 1.1 1.6 2.2 3.9 3.3 6.2.6 1.1 1.2 2.3 2.1 3.2.8.9 1.8 1.6 2.7 2.1.4.2.9.4 1.2.5.4.1.7.2 1 .3.4.2.7.3.7.3M177.4 58.7s.3-.3.7-1 .8-1.9.8-3.4-.5-3.4-1.6-5.3c-1-1.9-2.5-3.8-4.6-5.4s-4.7-2.9-7.5-3.7c-1.4-.4-3-.7-4.6-.8s-3.1-.1-4.8-.2c-6.5-.3-13.4-.7-20.2-1.1-13.8-.7-27.6-1.6-37.9-2.5-5.2-.4-9.5-.8-12.4-1.2-1.5-.2-2.7-.4-3.5-.5l-1.2-.3 1.2.3c.8.2 2 .4 3.5.6 3 .4 7.3.9 12.4 1.4 10.3.9 24.1 1.9 37.9 2.7 6.9.4 13.8.8 20.2 1.1 1.6.1 3.2.2 4.8.2 1.5.1 3 .4 4.4.7 2.8.8 5.4 2 7.4 3.6 2 1.5 3.5 3.4 4.5 5.2s1.5 3.6 1.6 5.1-.3 2.6-.6 3.4c-.3.7-.6 1.1-.5 1.1M90.4 37.9s-1.4-.3-3.4-.7c-1-.2-2.2-.4-3.5-.7-1.3-.2-2.7-.5-4-.8-1.4-.3-2.7-.5-4-.8S73 34.3 72 34c-.5-.2-1-.3-1.3-.5-.4-.2-.7-.3-1-.5-.1-.1-.2-.2-.2-.3s.1-.2.1-.2c.1-.1.2-.1.2-.1s-.1 0-.2.1c-.1 0-.2.1-.2.3 0 .1.1.3.2.4.5.4 1.3.8 2.3 1.2 2 .7 4.7 1.4 7.5 2 1.4.3 2.8.5 4.1.7s2.5.4 3.6.5c1.9.2 3.3.3 3.3.3M86.6 40.6H85c-1 0-2.4-.1-4.1-.2s-3.7-.3-5.8-.4c-2.1-.2-4.4-.4-6.7-.7s-4.5-.6-6.6-1c-1.1-.2-2.1-.3-3-.5-1-.2-1.9-.4-2.7-.5-.8-.2-1.6-.3-2.3-.5s-1.3-.3-1.7-.4c-1-.3-1.5-.5-1.5-.5s.5.2 1.5.5 2.3.7 4 1.1q1.2.3 2.7.6l3 .6c2.1.4 4.4.7 6.6 1 1.1.2 2.3.3 3.4.4l3.3.3c2.1.2 4.1.2 5.9.3 3.3.1 5.6-.1 5.6-.1M86.4 43.4s-2.7-.1-6.8-.2c-2-.1-4.4-.2-7-.3s-5.3-.2-8-.4c-2.7-.1-5.5-.3-8-.5-2.6-.2-4.9-.4-7-.7-1-.1-1.9-.3-2.8-.4-.8-.1-1.5-.3-2.1-.5s-1-.3-1.3-.5c.3.2.7.4 1.3.6q.9.3 2.1.6c.8.2 1.7.4 2.8.5 2 .3 4.4.6 7 .8s5.3.4 8 .6c2.7.1 5.5.2 8 .3 2.6.1 5 .1 7 .1h6.8M88.6 46.5s-2.5 0-6.2.1c-1.9 0-4 .1-6.4.1-2.3.1-4.8.1-7.3.1h-7.3c-2.3 0-4.5-.1-6.3-.2-.9-.1-1.8-.1-2.5-.2-.8-.1-1.4-.1-1.9-.2-1.1-.2-1.7-.3-1.7-.3s.6.1 1.7.4c.5.1 1.2.2 1.9.3.8.1 1.6.2 2.5.3s1.9.1 3 .2 2.2.1 3.4.1c2.3 0 4.8.1 7.3.1s5-.1 7.3-.2 4.5-.2 6.4-.3q2.85-.15 4.5-.3zM94.8 49.9H92c-.8 0-1.8 0-2.8.1h-6.4c-.5 0-1 0-1.5-.1-.5 0-.9 0-1.3-.1s-.8-.1-1.1-.1c-.3-.1-.6-.1-.8-.2-.5-.1-.7-.2-.7-.2s.3.1.7.3c.2.1.5.2.8.3s.7.2 1.1.3.9.1 1.3.2c.5.1 1 .1 1.5.1 1 .1 2.1.1 3.3.1 1.1 0 2.2-.1 3.2-.1 1-.1 2-.2 2.8-.2 1.6-.2 2.7-.4 2.7-.4M98.8 53.7s-.7-.1-1.8-.2-2.5-.3-3.9-.4c-.7-.1-1.4-.2-2.1-.2-.7-.1-1.3-.2-1.8-.2-.3-.1-.5-.1-.7-.1-.2-.1-.4-.1-.5-.1-.3-.1-.5-.2-.5-.2s.1.1.4.3c.3.1.7.3 1.2.5.5.1 1.1.3 1.8.4l2.1.3c.7.1 1.4.1 2.1.2h1.8c1.2-.3 1.9-.3 1.9-.3M106.8 55.4h-1.9c-1.1 0-2.6 0-4.1.1-.7 0-1.5 0-2.2.1h-2.7c-.2 0-.4-.1-.6-.1s-.3-.1-.4-.1-.1-.1-.1-.1l.1.1c.1 0 .2.2.3.2.2 0 .3.1.6.2.2 0 .5.1.8.2.6.1 1.2.2 1.9.2h2.2c.7 0 1.5-.1 2.2-.1.7-.1 1.4-.1 1.9-.2 1.3-.3 2-.5 2-.5M116.6 58.8s-.6-.1-1.5-.2-2-.3-3.2-.6c-.6-.1-1.1-.3-1.6-.5s-1-.4-1.4-.5c-.4-.2-.7-.4-.9-.5l-.4-.2.3.3c.2.2.5.4.8.7.4.2.8.5 1.4.7.5.2 1.1.4 1.7.5s1.2.2 1.7.3c.6.1 1.1 0 1.5.1 1 0 1.6-.1 1.6-.1M122.8 61.2s-.3-.1-.8-.2-1.2-.3-1.8-.5-1.3-.4-1.8-.5c-.2-.1-.4-.2-.6-.2-.1 0-.2-.1-.2-.1s.2.3.7.6c.2.1.5.3.8.4s.6.3 1 .4c.7.2 1.4.2 1.9.2s.8-.1.8-.1M132.1 63.1s-.5 0-1.3-.1c-.4 0-.8-.1-1.3-.1s-1-.1-1.5-.2-1-.2-1.4-.2q-.75-.15-1.2-.3-.6-.15-.9-.3c-.2-.1-.3-.1-.3-.1s.1.1.3.2.5.3.8.5c.4.2.8.4 1.2.5l1.5.3c.5.1 1 .1 1.5.1s.9 0 1.3-.1c.8 0 1.3-.2 1.3-.2M138.4 65.5s-.3-.1-.8-.3-1.1-.3-1.8-.5l-.9-.3c-.3-.1-.6-.1-.8-.2s-.4-.1-.6-.2c-.1 0-.2-.1-.2-.1s.2.3.7.6c.4.3 1.1.6 1.8.7.3.1.7.2 1 .2.3.1.6.1.9.1zM143.7 68.7s-.3-.1-.9-.2c-.3-.1-.5-.1-.9-.2l-.9-.3c-.3-.1-.6-.3-.9-.4s-.5-.3-.7-.5-.4-.3-.5-.4l-.2-.2s0 .1.1.2.2.3.4.6c.2.2.4.5.7.6.3.2.6.4 1 .5.3.1.7.2 1 .3s.7.1.9.1c.5 0 .9-.1.9-.1M150.8 71.4s-.4-.1-1-.3c-.3-.1-.6-.2-1-.3s-.8-.2-1.1-.3c-.8-.2-1.5-.5-2.1-.7-.3-.1-.5-.2-.7-.3s-.3-.1-.3-.1l.2.2c.1.1.3.3.6.5s.6.4.9.5c.4.2.7.3 1.1.5.8.3 1.6.4 2.3.4s1.1-.1 1.1-.1M156.1 73.8s-.3-.1-.9-.2c-.3 0-.6-.1-.9-.2s-.7-.1-1-.2c-.7-.1-1.3-.3-1.8-.4l-.6-.3c-.1-.1-.2-.1-.2-.1s0 .1.1.2l.5.5c.2.2.5.3.8.4s.7.2 1 .3c.7.1 1.4.2 1.9.1.8 0 1.1-.1 1.1-.1"/><path fill="#52391e" d="M175.9 70.8s-.5-.1-1.2-.2-1.6-.2-2.5-.3c-.2 0-.4-.1-.6-.1s-.4-.2-.4-.2c0 .1 0-.1.2-.2.1-.1.3-.2.4-.3.6-.3 1-.6 1-.6s-.1 0-.3.1c-.2 0-.5.1-.8.2-.2.1-.4.1-.5.2-.1 0-.2.1-.3.2 0 .1-.1.1-.1.2v.3c.1.2.2.3.3.4s.2.1.4.2.5.1.7.2c.9.2 1.9.1 2.6.1.7-.1 1.1-.2 1.1-.2"/><path fill="#52391e" d="M170.9 69.6s-.4-.1-1-.3c-.3-.1-.7-.2-1.1-.3s-.8-.2-1.2-.4c-.2-.1-.4-.2-.5-.3s-.1-.1 0-.2c.2-.2.5-.4.8-.6.3-.1.5-.3.7-.4s.3-.1.3-.1h-.3c-.2 0-.5.1-.8.2-.2 0-.3.1-.5.2s-.4.2-.6.4c-.1.1-.2.2-.2.4s.1.4.2.5c.2.2.4.3.6.4.9.4 1.7.5 2.4.5zM170.7 62.5s-.5-.1-1.3-.2c-.4-.1-.9-.1-1.4-.2l-1.5-.3c-.2-.1-.5-.1-.6-.2 0 0 0 .1 0 0l.2-.2 1.2-.6c.8-.3 1.3-.5 1.3-.5s-.5 0-1.4.2c-.4.1-.9.2-1.4.4-.1.1-.3.1-.4.3-.1.1-.1.2-.1.4s.1.3.2.3c.3.2.6.3.9.4 1.1.2 2.2.3 3 .3.7-.1 1.3-.1 1.3-.1M163.6 65.7s-.5-.1-1.2-.2c-.3 0-.7-.1-1.2-.1-.4-.1-.9-.1-1.3-.2-.2 0-.4-.1-.6-.2-.1-.1-.1 0-.1-.1.2-.2.6-.5.9-.6.3-.2.6-.3.7-.4.2-.1.3-.2.3-.2s-.5.1-1.1.3c-.2.1-.3.1-.5.2s-.4.2-.6.4c-.1.1-.2.3-.2.5.1.2.2.3.4.4.3.1.5.2.7.3 2 .3 3.8-.1 3.8-.1M161 63.6s-.5-.1-1.2-.2c-.3 0-.7-.1-1.2-.1-.4-.1-.9-.1-1.3-.2-.2 0-.4-.1-.6-.2-.1 0-.1-.1-.1-.1l.4-.4c.2-.1.3-.2.5-.3.3-.2.6-.3.7-.4.2-.1.3-.2.3-.2s-.1 0-.3.1-.5.1-.8.2c-.2.1-.3.1-.5.2s-.4.2-.6.4c-.1.1-.2.4-.1.6s.3.3.4.3c.3.1.5.2.7.2 1.8.5 3.7.1 3.7.1M163.6 56.1s-.6-.1-1.6-.3c-.5-.1-1-.2-1.6-.4s-1.2-.3-1.7-.6c-.1-.1-.2-.1-.3-.2s-.1-.1 0-.1c.1-.1.3-.3.6-.4.5-.2 1-.4 1.5-.5.9-.3 1.5-.4 1.5-.4h-.4c-.3 0-.7 0-1.1.1-.5.1-1 .2-1.6.4-.3.1-.6.2-.9.6-.1.2-.1.6.1.7.1.2.3.3.4.4q.9.45 1.8.6c.6.1 1.2.2 1.6.2 1.1 0 1.7-.1 1.7-.1"/><path fill="#52391e" d="M165.6 53.4s-.7-.1-1.6-.3c-.5-.1-1.1-.2-1.7-.3s-1.3-.2-1.9-.3c-.2 0-.3-.1-.4-.1s-.3-.2-.2-.1v.1l.1-.1c.1-.1.2-.1.4-.2.5-.2 1.1-.4 1.6-.5.9-.3 1.6-.5 1.6-.5s-.7 0-1.7.2c-.5.1-1.1.2-1.7.4-.2.1-.3.1-.5.2-.1 0-.2.1-.3.2s-.2.3-.1.5c.2.3.4.4.5.5.2.1.3.1.5.2 1.3.3 2.7.3 3.7.4 1.1-.2 1.7-.3 1.7-.3M152 48.9s-.6-.1-1.5-.3c-.5-.1-1-.2-1.6-.3s-1.2-.2-1.7-.4c-.1 0-.3-.1-.4-.2-.1 0-.2-.2-.1-.1 0 .1 0-.1.2-.1.1-.1.2-.1.4-.2.5-.2 1-.4 1.5-.5.9-.2 1.5-.4 1.5-.4s-.6 0-1.6.1c-.5.1-1 .1-1.6.3-.1.1-.3.1-.5.2-.1.1-.4.2-.4.5 0 .4.3.5.4.6.2.1.3.2.5.2 1.2.4 2.5.5 3.4.5.8.1 1.5.1 1.5.1M146.6 54.3s-.5-.2-1.2-.4l-1.2-.3c-.4-.1-.9-.3-1.4-.4-.2-.1-.4-.3-.4-.2v.1l.1-.1c.1-.1.2-.1.3-.1.4-.2.8-.3 1.2-.4.7-.2 1.2-.4 1.2-.4h-1.3c-.4.1-.8.1-1.3.2-.1 0-.2.1-.4.2-.1 0-.1.1-.2.2s-.1.2-.1.4c.1.3.2.4.4.4.1.1.3.1.4.2 1 .4 2 .5 2.7.6zM135.8 44s-2.2-.1-5.5-.3c-1.7-.1-3.6-.2-5.6-.4-1-.1-2.1-.2-3.2-.3-1-.2-2.2-.3-3.1-.7-.1 0-.2-.1-.1-.1v.1-.1c.2-.1.4-.2.7-.2.5-.1 1.1-.2 1.6-.2 1.1-.1 2.1-.1 3.2-.2 2.1-.1 4-.1 5.6-.1h5.5s-.6 0-1.5-.1c-1-.1-2.3-.2-4-.2-1.7-.1-3.6-.1-5.7-.1-1 0-2.1.1-3.2.1-.5 0-1.1.1-1.7.2-.3.1-.6.1-.9.3-.1 0-.2.2-.3.3v.3c.1.3.3.4.4.5.6.3 1.1.4 1.7.5s1.1.2 1.6.2c1.1.1 2.2.2 3.2.3 2.1.1 4 .2 5.7.2h5.6"/><path fill="#52391e" d="M130 44s-.6 0-1.6-.1c-1 0-2.4-.1-4.1-.1s-3.7 0-5.9.2c-1.1.1-2.2.2-3.3.6-.3.1-.6.2-.8.6 0 .1 0 .1-.1.2v.2s0 .2.1.2c0 .1.1.1.1.1.2.1.3.2.4.3.6.2 1.1.3 1.7.4 2.3.3 4.6.4 6.7.5s4.1 0 5.8 0 3.1-.1 4.1-.1 1.6-.1 1.6-.1-2.3 0-5.7-.1c-1.7 0-3.7-.1-5.8-.2s-4.4-.2-6.6-.5c-.5-.1-1.1-.2-1.6-.4-.1 0-.2-.1-.3-.2 0 0 0 .1 0 0v-.1c0 .1 0 0 0 0 .1-.1.3-.2.5-.3 1-.4 2.1-.5 3.2-.6 2.1-.2 4.1-.3 5.8-.4 3.5-.1 5.8-.1 5.8-.1M133 52.7s-2.1.1-5.3.2c-1.6 0-3.5.1-5.4 0-1 0-2-.1-3-.2s-2.1-.2-2.9-.7c-.1-.1-.1-.1-.1 0 0 0 0-.1.1-.1.2-.1.4-.2.7-.2l1.5-.3c1-.2 2-.3 3-.4 2-.2 3.8-.3 5.4-.4 3.2-.2 5.3-.3 5.3-.3s-2.1-.1-5.3 0c-1.6.1-3.5.1-5.5.3-1 .1-2 .2-3.1.3-.5.1-1.1.2-1.6.3-.3.1-.5.1-.8.3-.1.1-.3.1-.4.4-.1.4.2.6.3.6 1.1.6 2.1.7 3.2.8s2.1.1 3.1.1c2 0 3.9-.1 5.5-.2 3.1-.2 5.3-.5 5.3-.5M118 42.2s-2.4-.1-6-.3c-1.8-.1-3.9-.3-6.1-.5-1.1-.1-2.3-.3-3.4-.5-.6-.1-1.2-.2-1.7-.4-.3-.1-.5-.2-.7-.4l-.1-.1v-.1s.1-.1 0 0c0 0 .1-.1.1-.2h.1l.2-.1c.1-.1.3-.1.4-.1.3-.1.6-.1.9-.2.6-.1 1.2-.1 1.8-.2 1.2-.1 2.3-.1 3.5-.1 2.3 0 4.4.1 6.2.1 3.6.1 6 .2 6 .2s-.6-.1-1.6-.2c-1.1-.1-2.5-.3-4.4-.4-1.8-.1-3.9-.3-6.2-.3h-3.5c-.6 0-1.2.1-1.8.1-.3 0-.6.1-.9.2-.2 0-.3.1-.5.1l-.2.1c-.1.1-.2.1-.3.2l-.2.2c-.1.2-.1.3-.1.4s.1.2.1.4c.1.1.1.2.2.2.3.2.6.4.9.5.6.2 1.2.3 1.8.4 1.2.2 2.3.3 3.5.4 2.3.2 4.4.3 6.2.3h4.4c.8.3 1.4.3 1.4.3M147 59.2s-1.9.3-4.7.7c-1.4.2-3.1.4-4.8.6-.9.1-1.8.2-2.7.2s-1.9 0-2.8-.1c-.2 0-.5-.1-.6-.1s-.2-.1-.2-.1 0 .1 0 0c.2-.2.7-.4 1.1-.6.9-.3 1.7-.6 2.6-.8 1.7-.4 3.4-.8 4.8-1s2.6-.4 3.4-.5 1.3-.2 1.3-.2-1.9 0-4.8.4c-1.4.2-3.1.4-4.8.8-.9.2-1.8.4-2.7.8-.5.2-.9.3-1.4.7-.1.1-.1.1-.1.3 0 .1 0 .3.1.4.2.2.3.2.4.3.3.1.5.1.7.2 1 .1 1.9.1 2.9 0 .9 0 1.9-.1 2.8-.2 1.8-.2 3.4-.5 4.8-.7 2.8-.7 4.7-1.1 4.7-1.1"/></svg>