<svg xmlns="http://www.w3.org/2000/svg" xml:space="preserve" width="123.8" height="265.3" viewBox="8.5 17.5 123.8 265.3"><title>princess-b</title><g fill-rule="evenodd"><path fill="#261c17" fill-rule="nonzero" d="M45.5 84.3c4.3-2.4 3.4-6.3 3.4-6.3-.5 5-6.2 1.7-6.2 1.7 2.4.8 3.6-1.1 3.3-4-.9.8-2.3.6-2.3.6 1.7-.2 1.6-2.5 1.1-4.4-.2-.3-.3-.7-.5-1-2.9-5.3 3.3-6.8 3.3-6.8-2.7.3-2.2-4.3-2.2-4.3s.8 3 3.3 1.2 3.4-12.1 3.4-12.1c2.7-7.1 7.9-6 21.5-6.8s16 18.3 16.3 21.5c.6 6.7 5.9 6.2 5.9 6.2-1.4 2.2-4.6 1-4.6 1s3 1.9 1.2 6.1c0 0 .2-1.4-.4-2.6-.1.7-.3 1.5-.5 2.3-.6 2.5 3.8 4.3 3.8 4.3-3 1.1-5.2-1.7-5.2-1.7s.9 1.8 2.5 4.6c.8 1.1 2 1.3 3.1 1.8 0 0-1.1.7-2.2.3.4 2.6-1.9 4.9-1.9 4.9 1.1-3.1-3-6.2-3-6.2s2.2 3 .8 5 .7 3.9.7 3.9c-4.7-.9-4.6-4.5-4.6-4.5-2.4 2.7.7 7.2.7 7.2-3.4-1-3.3-6.2-3.3-6.2s-.6 3.7.4 6-1.7 3.9-1.7 3.9 1.6-1.8-1-3.2c-1.7-.9-2.3-2.8-2.5-4 .2 3.9-3.2 5.3-3.2 5.3 1.6-1.8-.1-6.2-.1-6.2s.4 3.1-1.2 5.1.6 4.7.6 4.7c-2.5-1-3-3.1-3-3.1-.6 2.1.6 4.5.6 4.5s-4.4-2.6-3.4-6.4-2-6.2-2-6.2 1.2 2.6-1 6c-2.1 3.4.3 5.1.3 5.1-4.2-1.5-5-6-5-6-.3 7.5-7.1 4.7-7.1 4.7 1.4-.2 4.2-4.2 1-5-1.6-.4-2.1-1.2-2.2-1.8.1 2.3 2.2 3.6 2.2 3.6-9.1.1-7.4-6.4-7.4-6.4-3.5 2.3-.5 5-.5 5-5.1-.6-5.5-8.9-1.2-11.3"/><path fill="#120d0b" fill-rule="nonzero" d="M50.8 56.9s-.1.6-.3 1.4-.7 1.9-1.4 2.8c-.2.2-.4.4-.7.6s-.6.3-.9.2c-.3 0-.6-.2-.8-.3l-.5-.5c-.3-.4-.4-.7-.5-.9s-.1-.4-.1-.4.1.1.2.3.4.5.7.7c.3.3.7.5 1.1.5s.8-.3 1.1-.7c.7-.8 1.2-1.8 1.6-2.5.2-.7.5-1.2.5-1.2M47.7 64.1s-.4.2-1.1.6c-.6.3-1.4.8-2 1.5-.2.1-.3.3-.4.5s-.2.4-.3.5c-.1.4-.2.8-.2 1.1v.5c0 .1.1.3.1.4 0 .2.1.3.1.3s-.1-.1-.2-.3-.3-.4-.4-.8c-.1-.2-.1-.4-.1-.6s0-.5.1-.7c0-.2.2-.5.3-.7.2-.2.3-.4.5-.6s.4-.4.6-.5c.2-.2.4-.3.6-.4.4-.2.8-.4 1.2-.5.7-.3 1.2-.3 1.2-.3M42.7 79.7h.3c.2 0 .4.1.7 0 .3 0 .6-.1.9-.2.1-.1.3-.2.4-.3l.2-.2.1-.2c.1-.1.1-.3.2-.5s.1-.4.1-.5c.1-.4.1-.7.2-1 .1-.6.1-1 .1-1s.1.4.2 1c0 .3.1.7 0 1.1 0 .2 0 .4-.1.6s-.1.4-.2.6l-.2.3-.2.3c-.2.2-.4.3-.6.4s-.4.1-.6.1h-.5c-.3-.1-.6-.2-.7-.3-.2-.1-.3-.2-.3-.2M47.1 83.4s-.2.1-.6.4c-.4.2-.9.6-1.4 1.1-.3.3-.6.5-.8.9-.3.3-.5.7-.7 1.1l-.3.6c-.2.3-.3.5-.3.7l-.2.8v1.4c0 .2 0 .5.1.7.1.5.2.9.4 1.4l.6 1.2c.2.4.5.7.7.9.5.5 1.1.8 1.5.9s.7.1.7.1-.3.1-.7 0-1.1-.2-1.7-.8c-.3-.2-.6-.6-.9-.9-.3-.4-.5-.8-.7-1.2s-.4-.9-.5-1.4c-.1-.2-.1-.5-.1-.8s-.1-.5-.1-.8v-.8c.1-.3.1-.5.2-.8.1-.2.2-.5.3-.7s.2-.5.3-.7c.3-.4.6-.8.9-1.1l.9-.9c.6-.5 1.2-.8 1.6-1 .5-.2.8-.3.8-.3M54.8 97s-.9.2-2.3.1c-.3 0-.7-.1-1.1-.2s-.8-.2-1.2-.4l-.6-.3c-.2-.1-.4-.2-.6-.4l-.6-.5c-.2-.2-.3-.4-.5-.6l-.2-.3c-.1-.1-.1-.2-.1-.3l-.3-.7c-.1-.5-.2-.9-.2-1.4 0-.4 0-.9.1-1.3s.2-.8.3-1.1l.3-.9c.1-.3.2-.5.3-.7l.3-.6s-.1.2-.2.6-.3.9-.4 1.6c-.1.3-.1.7-.2 1.1v1.2c0 .4.1.8.2 1.2l.3.6c0 .1.1.2.1.3l.2.3c.1.2.2.4.4.5l.5.4c.2.1.4.2.5.3l.6.3c.4.2.8.3 1.1.4.4.1.7.2 1.1.3 1.3.5 2.2.5 2.2.5"/><path fill="none" stroke="#120d0b" stroke-width=".195" d="M43.7 76.3s3.9.9 3.3-4.9"/><path fill="#120d0b" fill-rule="nonzero" d="M47.7 88.4s.1-.6.4-1.2c.2-.6.6-1.1.6-1.1s-.1.6-.4 1.2c-.2.6-.6 1.1-.6 1.1M47.9 86.5s.1-.5.3-.9.5-.8.5-.8-.1.5-.3.9-.5.8-.5.8M47.6 71.8l-.2-.8c-.1-.4 0-.8 0-.8l.2.8c.1.3 0 .8 0 .8M48.3 70.9s-.2-.4-.3-.8-.1-.8-.1-.8.2.4.3.8.1.8.1.8M50.2 63.5s-.3.3-.8.5c-.3.1-.6.3-.9.4-.4.1-.8.1-1.2.1-.4-.1-.8-.2-1.1-.5-.2-.1-.3-.3-.3-.4-.1-.1-.1-.3-.2-.4-.1-.3-.1-.5-.1-.7v-.3s0 .1.1.2c0 .1.1.2.1.3s.1.2.2.3c.1.2.3.5.6.6.1.1.3.1.4.2s.3.1.4.1c.3.1.7 0 1 0s.6-.1.9-.1c.5-.2.9-.3.9-.3M95.4 80.8s-.5.3-1.4.3h-.7c-.3 0-.5-.1-.8-.1-.3-.1-.6-.2-.8-.3-.3-.1-.5-.3-.8-.5-.2-.2-.4-.4-.6-.7-.2-.2-.3-.5-.4-.7-.1-.3-.2-.5-.3-.7s-.1-.5-.1-.7c-.1-.4-.1-.8-.1-1V76s.1.1.1.4c.1.2.1.6.3 1 .1.2.2.4.2.6l.3.6c.1.2.3.4.4.6.2.2.3.4.5.5.4.3.9.6 1.3.7.2.1.5.2.7.2s.4.1.6.1c.4 0 .8.1 1 0 .4.1.6.1.6.1M92.4 76.8s.1-.5.2-1.3c0-.4.1-.8 0-1.3 0-.5-.1-.9-.3-1.4l-.3-.6c-.1-.2-.3-.4-.4-.6s-.3-.3-.4-.5-.3-.3-.5-.4c-.3-.3-.6-.4-.7-.5-.2-.1-.3-.2-.3-.2s.1 0 .3.1.5.1.9.3l.6.3c.2.1.4.3.6.5s.4.4.5.6.3.5.4.7c.2.5.3 1.1.2 1.6 0 .5-.1 1-.2 1.3-.3 1-.6 1.4-.6 1.4M95.8 69.8s-.1 0-.4.1h-1.1c-.2 0-.5-.1-.7-.2s-.5-.2-.8-.3-.5-.3-.8-.5-.5-.4-.7-.6c-.2-.3-.4-.5-.5-.8s-.3-.5-.4-.8-.2-.5-.3-.8c0-.3-.1-.5-.1-.7-.1-.4 0-.8-.1-1.1v-.4s0 .1.1.4.1.6.3 1c.1.2.1.4.2.7.1.2.2.5.3.7.1.3.3.5.4.7s.3.4.5.7l.6.6c.2.2.4.3.7.5.2.2.5.2.7.4.2.1.4.2.7.2.4.1.8.2 1 .3.3-.1.4-.1.4-.1M95.7 85.6s-.3.3-1 .4c-.2 0-.3.1-.5.1h-.6c-.2 0-.4-.1-.6-.2l-.6-.3q-.6-.45-.9-.9c-.2-.3-.4-.7-.5-1s-.1-.6-.2-.7v-.3l.2.2c.1.2.2.4.4.6.1.1.2.3.3.4s.2.3.3.4l.4.4c.1.1.3.2.4.3.2.1.3.2.5.3s.3.1.5.2c.3.1.7.1 1 .1h.7c0 .1.2 0 .2 0M88.7 76.6s-.1-.3-.1-.7.1-.7.1-.7.1.3.1.7c-.1.3-.1.7-.1.7M87.7 74.4s.1.3.1.6-.1.6-.1.6-.1-.3-.1-.6c.1-.3.1-.6.1-.6M89.7 70.8s-.3-.1-.5-.2-.4-.4-.4-.4.3.1.5.2c.3.2.4.4.4.4"/><g fill-rule="nonzero"><path fill="#52b6cc" d="M98.6 97.5c-1.6-4.4-10-22-14.4-9.9-4.2 11.7 13.6 49 18.7 43.7s-.6-23.9-4.3-33.8"/><path fill="#2e83bf" d="M95.5 90.9s.8 1.3 1.8 3.3c.5 1 1 2.2 1.6 3.5.5 1.3 1.1 2.7 1.6 4.1s.9 2.8 1.3 4.2c.4 1.3.7 2.6.9 3.7.3 1.1.4 2 .5 2.6s.2 1 .2 1-.1-.4-.3-1-.4-1.5-.7-2.6-.7-2.3-1.1-3.6-.9-2.7-1.4-4.1-1-2.8-1.5-4.1-1-2.5-1.4-3.5zM87.3 83.5s-.1.1-.4.2c-.2.2-.5.4-.9.8-.3.4-.7.9-1 1.6-.2.3-.3.7-.4 1.1-.1.2-.1.4-.2.6 0 .2-.1.4-.1.6-.2.9-.3 1.8-.3 2.8v1.6c0 .5 0 1.1.1 1.6.1 1.1.2 2.3.5 3.4.2 1.1.4 2.3.7 3.5.3 1.1.5 2.3.9 3.4s.7 2.2 1 3.3.7 2.1 1.1 3c.3 1 .7 1.9 1 2.7 1.3 3.3 2.2 5.6 2.2 5.6s-1-2.2-2.5-5.4c-.4-.8-.7-1.7-1.1-2.7l-1.2-3c-.3-1.1-.7-2.2-1.1-3.3s-.6-2.3-1-3.5c-.3-1.2-.5-2.4-.7-3.5-.2-1.2-.3-2.3-.4-3.5-.1-.6-.1-1.1-.1-1.7v-1.6c.1-1 .2-2 .5-2.9.1-.2.1-.4.2-.6s.2-.4.2-.6c.2-.4.3-.8.5-1.1.3-.7.7-1.2 1.1-1.5.4-.4.7-.6 1-.8.2 0 .4-.1.4-.1"/><path fill="#6fced9" d="M89.6 83.2c-3.3-.3-6.1 1.2-7.6 8.6s-.1 9 .3 16.5c.2 4 7.7 7.5 15 3.8 7.3-3.8 9.8-8.2 5.9-14.1-4-5.9-9.1-14.5-13.6-14.8"/><path fill="#3fadc4" d="M96.2 87.9s1.2 1.3 2.9 3.5c.8 1.1 1.8 2.4 2.7 3.8s1.9 3 2.7 4.7c.4.9.7 1.7.9 2.7 0 .1 0 .2.1.4v1l-.2.7c-.1.2-.2.4-.2.6-.4.8-.8 1.5-1.4 2.1-.5.6-1.1 1.1-1.6 1.6-1 .9-2 1.5-2.7 1.9s-1.1.6-1.1.6.4-.2 1-.7 1.5-1.2 2.5-2.1 2.1-2.1 2.7-3.6l.2-.6.1-.6c.1-.2 0-.4 0-.6v-.3s0-.2-.1-.3c-.1-.8-.5-1.7-.8-2.5-.7-1.6-1.7-3.2-2.6-4.6s-1.8-2.8-2.6-3.9c-1.4-2.3-2.5-3.8-2.5-3.8M88.3 83.3s-.6 0-1.5.4c-.5.2-1 .5-1.5 1s-1 1.1-1.4 1.8-.8 1.6-1.1 2.5-.5 1.9-.7 3c-.4 2.1-.5 4.3-.4 6.6 0 1.1.1 2.3.3 3.4.1.6.1 1.1.2 1.7v.9c0 .3 0 .5-.1.8 0 1 0 2.1.3 3 .2.9.6 1.7 1.1 2.4s1.1 1.2 1.6 1.6c.3.2.6.3.8.5.3.1.5.2.8.3.5.2.8.3 1.1.3.3.1.4.1.4.1s-.1 0-.4-.1-.7-.1-1.1-.3c-.2-.1-.5-.2-.8-.3s-.6-.3-.9-.4c-.6-.4-1.3-.8-1.8-1.5s-1-1.5-1.3-2.5-.4-2-.4-3.1v-1.6c-.1-.5-.1-1.1-.2-1.6-.1-1.1-.3-2.3-.3-3.4-.1-2.3.1-4.6.5-6.7.2-1.1.5-2.1.8-3s.7-1.8 1.2-2.5q.75-1.05 1.5-1.8c.5-.4 1.1-.7 1.6-.9s.9-.2 1.1-.2c.4-.4.6-.4.6-.4"/><path fill="#52b6cc" d="M92.2 113.8s-5.1-1.7-6.2-9.5c-.6-4.2-1.6-7.3-1.6-7.3s.2 6.4.3 10c0 3.5 3.3 6.1 7.5 6.8M100.7 109.9s3.9-3.6 1.7-8.5c-2.2-4.8-6.2-9.1-6.2-9.1s7.7 11.8 4.5 17.6"/><path fill="#52b6cc" d="M95 113.3s-4.5-1.3-5.9-7.5c-1-4.6-.4-9.2-.4-9.2s1.9 9.2 6.3 16.7M93.6 94.1s5.5 14.3 4.5 17.6c0-.1 6.6-2-4.5-17.6"/></g><g fill-rule="nonzero"><path fill="#875137" d="M64.4 69.1s2.9 8.4.5 11.1-15.1 8.1-15.1 8.1-8.2 5.2.2 23.6c3.6 8 40.9-1.6 41.9-7.4s-3.7-21.3-3.7-21.3-7.4-1.6-9.2-3c-1.9-1.3-2-7-2-7s-6.5-7.5-12.6-4.1"/><path fill="#613a27" d="M65.5 73.8s.1.3.1.7c.1.5.2 1.2.2 2s.1 1.8-.3 2.9c-.1.3-.2.5-.4.8s-.4.4-.6.6c-.5.4-.9.7-1.4 1-.9.6-1.9 1.1-2.8 1.6s-1.8.9-2.5 1.3c-1.5.7-2.5 1.1-2.5 1.1s.9-.6 2.3-1.4c.7-.4 1.5-.9 2.4-1.4s1.8-1.1 2.7-1.7c.5-.3.9-.6 1.3-.9.2-.1.5-.4.6-.5l.3-.6c.3-.9.4-1.9.4-2.7v-2c.2-.5.2-.8.2-.8M71.3 86.1H70c-.8 0-1.8 0-2.7-.1-1-.1-2-.1-2.7-.2-.4 0-.7-.1-.9-.1h-.3s.5-.1 1.3-.2 1.8-.1 2.8 0 2 .2 2.7.4c.6.1 1.1.2 1.1.2M83.8 83.7s-.4.2-1.1.4-1.5.5-2.4.8c-.9.2-1.8.5-2.5.6s-1.1.2-1.1.2.4-.3 1-.6 1.5-.6 2.4-.9c.9-.2 1.8-.4 2.5-.5z"/><path fill="#6fced9" d="M89.7 96.9s-7.9-.6-11.9 4.4c0 0-6.1-4.1-16.9-1.8 0 0 0-13.9-7.5-13.2-1.5.4-3.5 1.6-4.2 2.2s-3.5 2.7-3.4 9.8c.1 8 4.7 14.9 3.6 13s6.1 10.9 7.5 16.6c0 0 18.7 8.7 32.6-.9 0 0 3.2-6.8 4.9-13.6 1.2-4.8-1.4-12.9-2.5-19.7C90.1 83.1 88.2 83 88.2 83l-3.5-.8c0 .1 3.1.6 5 14.7"/><path fill="#3fadc4" d="M89.5 126.8s.7-1.8 1.6-4.5c.5-1.3 1.1-2.9 1.6-4.6.3-.8.6-1.7.9-2.6.1-.4.3-.9.4-1.3s.1-.9.2-1.4c.1-.9.2-1.9.2-2.8s-.1-1.8-.2-2.7c-.2-1.8-.4-3.4-.7-4.8-.5-2.8-.8-4.7-.8-4.7s.1.5.3 1.3.5 1.9.8 3.3.7 3 .9 4.8c.1.9.2 1.8.2 2.8 0 .9 0 1.9-.2 2.9l-.1.7c0 .2-.1.5-.1.7-.1.5-.3.9-.4 1.4-.3.9-.6 1.8-.9 2.6-.6 1.7-1.3 3.2-1.8 4.5-1 2.7-1.9 4.4-1.9 4.4M56.6 126.7s-.4-.7-.9-1.7-1.2-2.4-1.8-3.9c-.6-1.4-1.2-2.8-1.7-3.9-.4-1.1-.8-1.8-.8-1.8s.6.6 1.2 1.6 1.3 2.4 1.9 3.8 1.2 2.9 1.6 4c.3 1.1.5 1.9.5 1.9M89.7 96.9c-.6 0-1.1 0-1.6.1-.5 0-1.1.1-1.6.2s-1.1.2-1.6.3c-.3.1-.5.1-.8.2l-.8.2c-.5.2-1 .3-1.5.6-.3.1-.5.2-.7.3s-.5.2-.7.4l-.7.4c-.2.2-.4.4-.6.5l-.6.6-.5.6-.1.1-.1-.1c-.6-.4-1.3-.7-1.9-.9l-2.1-.6c-.3-.1-.7-.1-1-.2s-.7-.1-1.1-.2-.7-.1-1.1-.1-.7-.1-1.1-.1c-.7-.1-1.4-.1-2.1-.1h-2.1c-.7 0-1.4.1-2.2.1l-2.2.2v-.1c.7-.2 1.4-.4 2.1-.5s1.4-.2 2.2-.3c.7-.1 1.5-.1 2.2-.1s1.5 0 2.2.1c.4 0 .7.1 1.1.1s.7.1 1.1.2c.7.1 1.4.3 2.1.5.3.1.7.2 1 .3s.7.3 1 .4c.7.3 1.3.6 1.9 1h-.2c.4-.4.7-.9 1.1-1.2l.6-.6.7-.5c.2-.2.5-.3.7-.5s.5-.3.7-.4c.3-.1.5-.3.8-.4l.8-.3c.5-.2 1.1-.3 1.6-.4.3-.1.6-.1.8-.1.3 0 .6-.1.8-.1 1.3.1 2.4.1 3.5.4M60.8 97.3s-.1-.9-.4-2.3-.7-3.2-1.5-4.8l-.6-1.2c-.2-.4-.5-.7-.8-1s-.6-.6-.9-.8-.6-.4-.9-.5l-.9-.3c-.3-.1-.5-.1-.7-.1h-.6s.2 0 .6-.1h.7c.3 0 .6.1 1 .2.3.1.7.3 1.1.5s.7.5 1 .8c.7.6 1.2 1.5 1.6 2.3.8 1.7 1.1 3.6 1.3 5zM65.4 128.8s-.3-1.3-.8-3.3c-.3-1-.6-2.1-.9-3.4-.3-1.2-.7-2.5-1.1-3.8-.2-.7-.4-1.3-.6-1.9l-.6-1.8c-.4-1.2-.8-2.3-1.3-3.2-.2-.5-.4-.9-.6-1.3s-.3-.7-.5-.9c-.3-.5-.5-.8-.5-.8s.2.3.6.8q.3.3.6.9c.2.4.5.7.7 1.2.5.9 1 2 1.4 3.2.2.6.5 1.2.7 1.8s.4 1.3.6 1.9c.4 1.3.7 2.6 1 3.9.3 1.2.5 2.4.7 3.4.5 1.9.6 3.3.6 3.3"/><path fill="#3fadc4" d="M94.1 107.1s-.2.3-.4.9c-.3.5-.6 1.3-1.1 2.3a151.483 151.483 0 0 0-2.9 7.1c-.5 1.3-1 2.6-1.4 3.8s-.8 2.4-1.2 3.4c-.7 2-1.1 3.3-1.1 3.3s.1-.3.2-.9.3-1.5.6-2.5.6-2.2 1-3.4.9-2.6 1.4-3.9 1.1-2.6 1.6-3.8 1.1-2.3 1.6-3.2c.9-1.9 1.7-3.1 1.7-3.1"/></g><g fill-rule="nonzero"><path fill="#6fced9" d="M9 258.6s12.5-103.4 47-130.3c.8.5 9.7 5.3 23 3.7 10.1-1.2 11.2-4.4 11.2-4.4v-.2c3.9 4.7 12.6 17.6 23.6 49 15 43.1 18 79.4 18 79.4s-8.4 8.5-18.7 9c0 0 .8 4.6 1 8.8s-43 13.6-56.7 5.5c-2.9-1.7-1.2-6.1-9.2-6-18.7.2-24.4-3.9-24.4-3.9l.6-5c-.1.1-9.9.1-15.4-5.6"/><g fill="#3fadc4"><path d="M114.1 271.1s-1.1-6.4-2.8-16.1c-.9-4.8-1.9-10.4-2.9-16.5-1.1-6-2.2-12.4-3.5-18.8l-1.8-9.6c-.6-3.1-1.2-6.2-1.8-9.2-1.2-6-2.3-11.6-3.4-16.4-.5-2.4-1-4.6-1.5-6.5s-.8-3.6-1.2-5c-.7-2.8-1.2-4.3-1.2-4.3s.5 1.6 1.3 4.3c.4 1.4.8 3.1 1.3 5s1.1 4.1 1.6 6.5c.6 2.4 1.2 5 1.8 7.7s1.2 5.6 1.8 8.6 1.2 6.1 1.9 9.2l1.8 9.6c1.2 6.4 2.3 12.8 3.4 18.9 1 6 2 11.7 2.8 16.5s1.4 8.9 1.8 11.7.6 4.4.6 4.4M24 266.7s.1-1.1.3-3 .5-4.6.9-7.8.8-7 1.4-11 1.1-8.3 1.7-12.6 1.3-8.6 1.9-12.6 1.3-7.7 1.8-10.9c.6-3.2 1.1-5.9 1.5-7.7.4-1.9.6-2.9.6-2.9s-.2 1.1-.5 2.9c-.3 1.9-.7 4.5-1.2 7.7s-1.1 7-1.7 11-1.2 8.3-1.8 12.6c-2.5 17.2-4.9 34.3-4.9 34.3M67.1 131.8s-.4.9-1 2.4-1.3 3.8-2.1 6.5c-.4 1.4-.8 2.9-1.2 4.4-.4 1.6-.8 3.3-1.2 5s-.8 3.5-1.1 5.4c-.4 1.8-.7 3.7-1 5.6-.2.9-.3 1.9-.5 2.8-.1.9-.3 1.9-.4 2.8-.3 1.8-.5 3.7-.7 5.4q-.3 2.7-.6 5.1c-.2 1.6-.3 3.2-.5 4.6-.3 2.8-.5 5.2-.6 6.8-.1 1.7-.2 2.6-.2 2.6s0-.9.1-2.6c0-.8.1-1.8.1-3s.1-2.5.2-3.9.2-3 .4-4.6c.1-1.6.3-3.3.5-5.1s.4-3.6.7-5.4c.1-.9.3-1.9.4-2.8.2-.9.3-1.9.5-2.8.3-1.9.7-3.7 1-5.6.3-1.8.8-3.6 1.1-5.4.4-1.7.8-3.4 1.3-5s.9-3.1 1.3-4.4c.4-1.4.9-2.6 1.3-3.7s.8-2 1.1-2.8c.7-1.4 1.1-2.3 1.1-2.3M82.4 131.5s.3.2.8.7 1 1.2 1.6 2.2 1.2 2.2 1.7 3.5c.3.7.5 1.3.8 2 .2.7.5 1.4.7 2.1.4 1.4.8 2.9 1.2 4.3.2.7.3 1.3.5 2 .1.6.3 1.2.4 1.8.4 2.2.7 3.7.7 3.7s-.4-1.4-1-3.6c-.3-1.1-.7-2.3-1-3.7-.4-1.4-.8-2.8-1.3-4.2-.2-.7-.5-1.4-.7-2.1s-.5-1.4-.7-2c-.5-1.3-1-2.5-1.5-3.5s-1-1.8-1.4-2.3c-.5-.7-.8-.9-.8-.9M60.5 130.3s-.5.4-1.2 1.2c-.3.4-.7.9-1.1 1.4s-.8 1.1-1.2 1.7-.8 1.1-1.2 1.7c-.4.5-.7 1.1-1 1.5s-.5.8-.7 1.1-.3.4-.3.4.1-.2.2-.5.3-.7.5-1.2c.5-1 1.2-2.2 2-3.4.4-.6.8-1.1 1.3-1.6.4-.5.9-.9 1.3-1.3s.8-.6 1-.8zM77.8 132.3s.2.7.7 1.9c.4 1.2 1 2.9 1.6 5s1.3 4.5 1.9 7.1 1.2 5.4 1.8 8.3c.3 1.4.5 2.8.7 4.2s.4 2.8.6 4.1.3 2.6.4 3.9c.1 1.2.2 2.4.3 3.5.2 2.2.2 4 .3 5.2 0 1.3.1 2 .1 2s-.1-.7-.2-2c-.1-.6-.1-1.4-.2-2.3s-.2-1.9-.3-2.9c-.1-1.1-.2-2.2-.4-3.5-.2-1.2-.3-2.5-.5-3.8s-.4-2.7-.6-4.1-.5-2.8-.8-4.2c-.5-2.8-1.1-5.6-1.7-8.3-.6-2.6-1.2-5.1-1.7-7.2s-1-3.8-1.4-5-.6-1.9-.6-1.9M94.7 133.6s.2.4.6 1.1 1.1 1.8 1.9 3.1c1.6 2.7 3.8 6.6 6 11.5 2.3 4.9 4.7 10.7 7.1 17s4.8 13.1 7 19.9 4.2 13.8 5.9 20.3 3 12.7 4 18 1.7 9.7 2.1 12.8c.2 1.6.4 2.8.5 3.6.1.4.1.7.1.9s.1.3.1.3 0-.1-.1-.3c0-.2-.1-.5-.2-.9q-.15-1.2-.6-3.6c-.5-3.1-1.3-7.5-2.4-12.8s-2.5-11.4-4.2-17.9-3.7-13.4-5.9-20.2c-1.1-3.4-2.2-6.8-3.4-10.2-1.2-3.3-2.4-6.6-3.5-9.7-2.4-6.3-4.7-12.1-6.9-17s-4.2-8.9-5.8-11.6c-.8-1.4-1.4-2.4-1.8-3.2-.3-.7-.5-1.1-.5-1.1M71.4 282.3h-2c-1.3-.1-3.2-.2-5.4-.6-1.1-.2-2.3-.5-3.5-.9-.6-.2-1.3-.4-1.9-.7s-1.2-.7-1.8-1.1c-1.1-.9-1.9-2.3-2.5-3.6-.2-.3-.3-.6-.6-.7-.3-.2-.6-.3-.9-.4-.7-.2-1.4-.3-2.1-.4-1.5-.2-2.9-.2-4.4-.2s-2.9 0-4.3-.1c-2.8-.1-5.4-.6-7.6-1s-4-.9-5.2-1.2c-1.3-.3-2-.6-2-.6s.7.2 2 .5 3.1.6 5.3 1 4.8.6 7.5.8c1.4.1 2.8 0 4.3 0s3 .1 4.4.2c.7.1 1.5.2 2.2.4.4.1.8.3 1.1.5.4.2.6.6.8.9.7 1.3 1.3 2.6 2.3 3.4.5.4 1.1.8 1.6 1.1.3.1.6.3.9.4l.9.3c1.2.4 2.4.7 3.4.9 4.5 1.1 7.5 1.1 7.5 1.1M56 128.2l-.5.5c-.4.3-.9.8-1.5 1.4-1.3 1.2-3.1 3-5 5.3s-4 5.2-6 8.4c-1 1.6-2 3.3-2.9 5.1-1 1.7-1.9 3.5-2.8 5.3-1.8 3.6-3.5 7.3-5 10.8-.7 1.7-1.5 3.4-2.1 5-.7 1.6-1.3 3.1-1.8 4.6-1.1 2.8-1.9 5.2-2.4 6.9-.3.8-.5 1.5-.6 2s-.2.7-.2.7.1-.2.2-.7.3-1.1.5-2c.5-1.7 1.2-4.1 2.2-7s2.3-6.2 3.7-9.7c1.5-3.5 3.1-7.2 4.9-10.8.9-1.8 1.8-3.6 2.8-5.3 1-1.8 2-3.4 3-5.1 2-3.2 4.2-6 6.2-8.3s3.9-4 5.2-5.2c.7-.6 1.2-1 1.6-1.3.3-.4.5-.6.5-.6"/></g><path fill="#d9a64a" d="M89.6 126.5s-8.8 4.6-17.5 3.6c-8.6-1-15.3-3.6-15.3-3.6s-.9.5-.8 1.7c0 0 9.1 5.4 23.1 3.8 10.1-1.2 11.2-4.4 11.2-4.4s-.1-1.3-.7-1.1"/><path fill="#a67939" d="M86.6 130.3s-.5.2-1.3.4-2 .6-3.5.9c-.7.2-1.5.3-2.4.4q-1.2.15-2.7.3c-.9 0-1.9.1-2.9.1h-3l-1.5-.1c-.5-.1-1-.1-1.5-.2-1-.1-1.9-.3-2.8-.5s-1.8-.4-2.6-.7c-.4-.1-.8-.2-1.2-.4-.4-.1-.7-.3-1.1-.4-.7-.3-1.3-.5-1.9-.8-.5-.3-1-.5-1.4-.7l-1.2-.6s.5.2 1.3.5c.4.2.9.4 1.4.6.6.2 1.2.4 1.9.6.3.1.7.2 1.1.4l1.2.3c.8.2 1.7.4 2.6.6s1.8.3 2.8.4c.5.1 1 .1 1.4.2l1.5.1c1 .1 1.9.1 2.9.1s1.9-.1 2.8-.1c.9-.1 1.8-.1 2.6-.2s1.6-.2 2.3-.3c1.5-.2 2.7-.5 3.5-.7 1.2 0 1.7-.2 1.7-.2"/><path fill="#a67939" d="M87.9 127.3s-1.2.7-3.1 1.4c-.5.2-1 .3-1.6.5-.6.1-1.2.3-1.8.5-1.3.3-2.6.5-4 .6-.7.1-1.4.1-2 .1h-2c-.6 0-1.3-.1-1.8-.2-.6 0-1.1-.2-1.6-.2-.5-.1-1-.2-1.4-.3s-.8-.2-1-.3l-.9-.3s.3 0 .9.1c.3 0 .6.1 1.1.2.4.1.9.1 1.4.1.5.1 1 .1 1.6.1s1.2.1 1.8.1h1.9c.7 0 1.3 0 2-.1 1.3-.1 2.7-.3 3.9-.5s2.4-.5 3.4-.8c1.9-.4 3.2-1 3.2-1"/></g><g fill-rule="nonzero"><path fill="#875137" d="M72.5 101.7s-1.3-2.9.8-7.3c1.4-3 1.6-5.8 2.6-5.5 1.8.5-.6 5.1-.6 5.1s3.2-3.6 3.4-5.6c.1-1.4 1.4-3.4 2.1-3.3s0 3.4-.5 5.5c0 0 .9-2.4 1.6-3.7.8-1.4 1.5-1.6 1.5.3 0 0 2.1-1.7.9 3.3 0 0 1.2.1.2 2.7-1 2.5-6.8 15.1-12 8.5"/><path fill="#613a27" d="M81 85.8s0 .1.1.4c0 .2.1.6.1 1s-.1.9-.2 1.4-.3 1.1-.4 1.6c-.4 1.1-.9 2-1.4 2.7-.2.4-.5.6-.6.8-.2.2-.2.3-.2.3s0-.1.1-.4c.1-.2.2-.5.4-.9s.4-.8.6-1.3l.6-1.5c.4-1 .7-2.1.8-2.9.1-.6.1-1.2.1-1.2M83.4 87.2s.1.5 0 1.3c0 .4-.1.8-.2 1.3s-.3 1-.5 1.5c-.4 1-.9 1.9-1.4 2.5s-.8 1-.8 1 0-.1.1-.3.2-.5.4-.9c.2-.3.3-.8.5-1.2s.4-.9.6-1.4c.4-.9.7-1.9.9-2.6.3-.7.4-1.2.4-1.2M84.3 90.5s0 .4-.1 1-.4 1.3-.7 2-.7 1.4-1.1 1.9-.7.7-.7.7 0-.1.1-.3.1-.4.3-.7c.2-.5.5-1.2.8-1.9s.6-1.4.9-1.9.5-.8.5-.8M72.3 100.6l-.2-.2c-.1-.2-.2-.4-.2-.7-.1-.6 0-1.5.2-2.3s.5-1.6.8-2.1.5-.9.5-.9 0 .4-.2 1c-.1.6-.3 1.4-.5 2.1-.2.8-.4 1.5-.4 2.1v.7c-.1.2 0 .3 0 .3"/><path fill="#52b6cc" d="M52.2 132.7c.8-5.1 7.4-14.3 12.1-20.5 3-4 8-11.5 8-11.5 2.2-.7 3.5.8 4.6 2.5 0 0-1.5 3.8-4.5 11.2-3.2 8-10.8 20.8-13.8 21.9-3.5 1.3-6.8-1.1-6.4-3.6"/><path fill="#2e83bf" d="M53.1 129.5s.6-1.4 1.6-3.4c.5-1 1.2-2.2 1.9-3.4s1.5-2.5 2.4-3.8 1.7-2.5 2.6-3.6c.4-.6.9-1.1 1.3-1.6s.8-1 1.2-1.4c.7-.9 1.4-1.6 1.8-2.1.5-.5.7-.8.7-.8s-.9 1.2-2.3 3c-.7.9-1.4 2-2.3 3.1-.8 1.2-1.7 2.4-2.5 3.7-.9 1.2-1.7 2.5-2.4 3.7q-1.2 1.8-2.1 3.3c-1.1 2-1.9 3.3-1.9 3.3M76.7 103.5s-.1.5-.4 1.4-.6 2.1-1.2 3.5c-.5 1.4-1.2 3.1-1.9 4.9-.8 1.8-1.6 3.6-2.5 5.5-.9 1.8-1.9 3.6-2.8 5.3-.5.8-.9 1.6-1.4 2.4s-.9 1.5-1.3 2.1c-.8 1.3-1.6 2.3-2.1 3s-.8 1.1-.8 1.1.3-.4.7-1.2c.2-.4.5-.8.9-1.4.3-.5.7-1.1 1.1-1.8.8-1.3 1.7-2.9 2.6-4.6s1.9-3.5 2.7-5.3c.9-1.8 1.8-3.7 2.5-5.4q1.2-2.7 2.1-4.8c1.1-2.8 1.8-4.7 1.8-4.7"/><path fill="#52b6cc" d="M59.3 103.4c-.7-4.6-5.2-23.6-12-12.7-6.5 10.5 2.8 49.7 8.8 45.6 6.1-4.1 4.8-22.4 3.2-32.9"/><path fill="#2e83bf" d="M57.7 96.4s.5 1.4 1 3.6c.2 1.1.5 2.4.8 3.7.2 1.4.5 2.9.7 4.3.2 1.5.3 3 .4 4.4s.1 2.7.1 3.8 0 2.1-.1 2.7c0 .7-.1 1-.1 1s0-.4-.1-1c0-.7-.1-1.6-.2-2.7s-.2-2.4-.3-3.8-.3-2.9-.5-4.3c-.2-1.5-.4-2.9-.6-4.3s-.4-2.7-.6-3.8c-.3-2.1-.5-3.6-.5-3.6M51.1 87.5s-.2 0-.4.1c-.3.1-.6.2-1.1.5-.4.3-.9.7-1.4 1.3-.3.3-.4.6-.6.9s-.4.7-.6 1.1c-.4.8-.6 1.7-.9 2.7l-.3 1.5c0 .3-.1.5-.1.8s-.1.5-.1.8c-.1 1.1-.2 2.3-.2 3.4v1.8c0 .6.1 1.2.1 1.8.1 1.2.1 2.4.2 3.6s.2 2.3.4 3.4.3 2.2.5 3.2.3 2 .4 2.9c.7 3.5 1.1 5.9 1.1 5.9s-.6-2.3-1.4-5.8c-.2-.9-.3-1.8-.5-2.9-.2-1-.4-2.1-.6-3.2-.1-1.1-.3-2.3-.4-3.5-.2-1.2-.2-2.4-.3-3.6 0-.6-.1-1.2-.1-1.8v-1.8c0-1.2.1-2.4.3-3.5 0-.3.1-.6.1-.8.1-.3.1-.5.2-.8.1-.5.2-1.1.3-1.6.3-1 .6-1.9 1-2.8.2-.4.4-.8.6-1.1.3-.3.4-.7.7-.9q.75-.9 1.5-1.2c.5-.3.9-.4 1.1-.5.4.1.5.1.5.1"/><path fill="#6fced9" d="M53.5 87.6c-3.2-.9-6.3-.1-9.2 6.8-3 6.9-1.9 8.8-3.1 16.2-.6 4 6 9 13.9 6.8s11.3-6 8.6-12.5c-2.6-6.6-5.8-16-10.2-17.3"/><path fill="#3fadc4" d="M59 93.6s.9 1.6 2.1 4c.6 1.2 1.3 2.7 1.9 4.3s1.2 3.3 1.7 5.1c.2.9.4 1.8.3 2.8v.4l-.1.3c-.1.2-.1.4-.2.7l-.3.7-.4.5q-.75 1.05-1.8 1.8c-.6.5-1.3.9-1.9 1.2-1.2.7-2.3 1.1-3 1.3-.8.3-1.2.4-1.2.4s.4-.2 1.2-.5c.7-.3 1.8-.8 2.9-1.5s2.5-1.7 3.4-3l.3-.5.2-.5c.1-.2.1-.4.2-.6l.1-.3v-.3c.1-.8-.1-1.7-.3-2.6-.4-1.8-1-3.5-1.6-5.1s-1.2-3.1-1.7-4.3c-1.1-2.6-1.8-4.3-1.8-4.3M52.2 87.5s-.6-.2-1.5 0c-.5.1-1 .3-1.6.6s-1.2.8-1.7 1.5c-.6.6-1.1 1.4-1.6 2.2-.4.8-.9 1.8-1.3 2.8-.8 1.9-1.4 4.1-1.8 6.3-.2 1.1-.3 2.2-.4 3.3 0 .6-.1 1.1-.1 1.7s-.1 1.1-.3 1.6c-.2 1-.4 2-.4 3 0 .9.2 1.8.5 2.6.7 1.5 1.8 2.5 2.7 3 .4.3.8.5 1 .6l.4.2s-.1-.1-.4-.2l-1-.5c-.4-.2-1-.6-1.5-1-.5-.5-1.1-1.1-1.4-1.9-.4-.8-.6-1.7-.7-2.7s.1-2.1.3-3.1c.3-1 .3-2.1.4-3.2s.2-2.3.4-3.4c.4-2.3 1.1-4.5 1.9-6.5.4-1 .9-1.9 1.4-2.8.5-.8 1.1-1.6 1.7-2.2s1.3-1.1 1.9-1.4 1.2-.5 1.7-.6.9 0 1.2 0z"/><path fill="#52b6cc" d="M49.7 118.1s-4.6-2.7-4.1-10.5c.3-4.3-.1-7.4-.1-7.4s-1.1 6.3-1.8 9.8c-.7 3.4 2 6.6 6 8.1M59.1 115.8s4.3-2.4 3.1-7.6S58 98 58 98s5.4 12.7 1.1 17.8"/><path fill="#52b6cc" d="M52.6 118.2s-4.2-2.2-4.2-8.5c0-4.7 1.5-9.1 1.5-9.1s-.1 9.3 2.7 17.6M55.1 99.1s2.4 15.1.8 18.1c0 0 6.9-.5-.8-18.1"/></g><g fill-rule="nonzero"><path fill="#261c17" d="M82.9 27.8s-.3-9-7.3-8.9c0 0-2.1-1.8-4.2-.2 0 0-2.6-1.7-4 .2 0 0-2.8-1.4-3.5.3 0 0-3.6-1.2-4.7 1.5 0 0-4.2-1.1-4.7 2.4 0 0-2.8.7-2.6 3.3 0 0-3.3.9-1.9 3.5 0 0-3 .3-2.1 3.6 0 0-1.9 2.1-.4 3.5 0 0-1.8 2.6.6 3.3 0 0-.9 2.8 1.8 2.5 0 0 1.4 2.5 4.2 1"/><path fill="#120d0b" d="M71.5 18.7s.5.1 1.2.4c.3.2.7.4 1.1.8.4.3.7.7 1 1.2.2.4.4.9.6 1.4s.3.9.3 1.3c.1.4.1.7.1.9v.3s-.1-.1-.1-.3c-.1-.2-.2-.5-.3-.8s-.3-.7-.5-1.1-.4-.8-.7-1.2c-.5-.8-1.2-1.5-1.7-2-.6-.6-1-.9-1-.9M67.5 18.9s.1-.1.2 0q.3 0 .6.3c.4.3.9.8 1.3 1.4s.6 1.2.8 1.7c.1.5.2.8.2.8s-.3-.3-.6-.7-.7-1-1-1.5c-.3-.6-.7-1.1-1-1.5-.1-.2-.3-.3-.4-.4 0-.1-.1-.1-.1-.1M64 19.2h.3c.2.1.5.1.8.3.6.3 1.3 1 1.8 1.9.2.4.5.8.6 1.2.2.4.3.8.4 1.1.1.4.1.7.1.9v.3l-.1-.2c-.1-.2-.2-.4-.4-.7s-.3-.7-.5-1c-.2-.4-.4-.8-.6-1.1-.5-.8-1-1.4-1.5-1.9-.5-.6-.9-.8-.9-.8M75.6 18.9s.2 0 .4.2c.2.1.5.3.7.6s.3.6.4.8c.1.3 0 .4 0 .4s-.1-.1-.3-.2l-.6-.6c-.2-.2-.3-.5-.4-.7-.1-.3-.2-.5-.2-.5M59.3 20.7s.5 0 1.3.3c.4.2.8.4 1.2.7s.8.7 1.1 1.1c.7.8 1.2 1.7 1.4 2.5q.15.6.3.9c.1.2.1.3.1.3s-.1-.1-.2-.3-.3-.5-.5-.8-.4-.7-.7-1.1-.6-.8-.9-1.1c-.6-.8-1.4-1.4-2-1.9-.6-.3-1.1-.6-1.1-.6M54.6 23.2s.2-.2.5-.3c.4-.1.9 0 1.3.1.4.2.8.5 1 .8s.3.5.3.5h-.2c-.1 0-.2-.1-.4-.1-.3-.1-.7-.3-1-.5-.4-.2-.7-.3-1-.4s-.5-.1-.5-.1M58.2 23.4s.2 0 .5.1q.45.15.9.6c.3.3.5.6.5.9.1.3 0 .5 0 .5l-.1-.1c-.1-.1-.2-.1-.3-.2l-.7-.7c-.2-.3-.5-.5-.6-.7zM52 26.4s.4.1 1 .4 1.4.7 2 1.3c.3.3.6.6.9 1 .2.3.4.7.6 1 .1.3.2.6.2.8v.3s-.1-.1-.2-.3-.2-.4-.4-.7-.4-.5-.7-.8l-.9-.9c-.6-.6-1.3-1.1-1.8-1.5-.4-.3-.7-.6-.7-.6M50 29.9s.4.1 1 .4c.5.3 1.2.9 1.7 1.5.3.3.5.7.7 1s.4.7.5 1c.2.6.3 1 .3 1l-.2-.2c-.1-.1-.3-.4-.4-.6-.4-.5-.8-1.1-1.3-1.7s-1-1.2-1.5-1.6zM52.1 30.3s.2 0 .5.1.6.3.8.5c.2.3.4.6.5.8.1.3.1.5.1.5l-.1-.1c-.1 0-.2-.1-.3-.2-.2-.2-.4-.4-.7-.6-.2-.2-.4-.5-.6-.7-.1-.2-.2-.3-.2-.3M70.7 21.4s.2.1.4.3.5.5.7.9c.2.3.3.7.2 1.1 0 .3-.1.5-.1.5l-.1-.1c0-.1-.1-.2-.2-.3-.1-.3-.3-.6-.5-.9-.1-.3-.3-.7-.4-1z"/><path fill="#d9a64a" d="M51.5 43.7s6.8-16.4 22.1-16.3c5.5 0 10.1 1.1 10.1 1.1s-3-4.1-13.2-3.3c-8.6.7-17.1 4.3-19 18.5"/><path fill="#ffb83b" d="M73.1 28s1.1-1.3 1.1-2.1c0 0-1-1.6-1.8-1.7 0 0-1.1 1.4-1.2 2.2 0 .1.9 1.4 1.9 1.6"/><path fill="#d12a2a" d="M73 27.7s.9-1.3.9-1.8c0 0-.9-1.1-1.4-1.3 0 0-.7 1-.8 1.8-.1 0 .6.8 1.3 1.3"/><path fill="#30231d" d="M89.9 45.1s-1.5 8.2 1.7 9.9 3.2 4.6 1.7 5.3c0 0 1.2-1.6-.1-2.6 0 0 .6 2.2-2.5 3.1s-.2 5.2 2.6 3.3c0 0-.6 1.2-1.8 1.2 0 0 3-.3 3.3 1.5.3 1.7-1.5 4.7-6.3 2.1 0 0 2.3.5 3.2-.2 0 0-1.1.2-1.5-.3 0 0 5.1-.3 3.2-1.6-1.9-1.4-7.5-.2-6.4-3.6s5.4-3 4.9-4.6c-.6-1.7-3.7-2.2-3.7-5 0 0-1.1 2.9 2.4 4.4 0 0-4.1.2-3.2-5.2s2.5-7.7 2.5-7.7"/><path fill="#120d0b" d="M88.2 53.5s0 .2.1.4c.1.3.2.6.5 1s.6.8 1 1.1c.2.2.5.3.7.5l.4.2.4.3c.2.2.5.5.7.8s.2.8.1 1.1-.4.6-.6.7c-.2.2-.5.3-.7.4-.4.2-.8.3-1.1.3h-.4s.6-.2 1.4-.7c.4-.3.8-.6.9-1 .1-.2 0-.4-.1-.6s-.3-.4-.5-.6l-.4-.3-.4-.3c-.3-.2-.5-.4-.7-.6-.4-.4-.8-.9-1-1.4-.2-.4-.3-.9-.3-1.1zM91.1 66s-.4.1-.9.1c-.6 0-1.4 0-2.1-.4-.4-.2-.7-.4-1-.7s-.4-.7-.3-1c0-.2 0-.3.1-.4 0-.1.1-.2.1-.3l.1-.2v.6c0 .1.1.2.1.3s.1.2.1.4l.3.3c.2.2.5.4.8.5.6.3 1.3.5 1.9.6zM91.6 55s-.2 0-.5-.2c-.1-.1-.3-.2-.4-.4-.2-.2-.3-.4-.5-.6-.1-.2-.3-.5-.4-.8s-.2-.6-.3-1c0-.3-.1-.7-.1-1v-1.1c0-.7.1-1.4.2-2.1 0-.3.1-.6.2-.9s.1-.6.2-.8c.3-1 .6-1.7.6-1.7s-.1.7-.2 1.8c0 .5-.1 1.1-.2 1.8-.1.6-.1 1.3-.1 2s0 1.4.1 2c.1.3.1.6.2.9s.1.5.2.8l.3.6c.1.2.2.3.3.4.3.2.4.3.4.3"/><path fill="#875137" d="M82.7 30.8c12.4 5.1 9.1 24.5 9.1 24.5s3.2 4.9-3.5 15.5c-6.2 9.9-24.6 3.9-29.6-5.9-3.3-6.5-6-22.1 2.9-31.8 5.2-5.6 12.7-5.8 21.1-2.3"/><path fill="#613a27" d="M81.3 75.6s-1.1.4-2.8.5c-.8 0-1.8.1-2.9-.1-.5 0-1.1-.1-1.6-.2-.6-.1-1.1-.2-1.6-.4s-1.1-.4-1.6-.5l-1.5-.6c-.5-.2-.9-.5-1.4-.7-.4-.2-.8-.5-1.2-.7-.7-.4-1.3-.9-1.7-1.2s-.6-.5-.6-.5.2.1.7.4c.2.1.5.3.8.4.3.2.6.3 1 .5l1.2.6c.4.2.9.4 1.4.6l1.5.6c.5.2 1 .3 1.6.5.5.1 1.1.3 1.6.4s1.1.2 1.6.3c1 .1 2 .2 2.8.3 1.6-.1 2.7-.2 2.7-.2M91.8 55.3s.2.2.4.6.4 1 .5 1.8c.1.4.1.8.1 1.3v1.4c-.1.5-.1 1-.2 1.5s-.2 1-.4 1.5c-.1.5-.3 1-.5 1.5s-.4.9-.6 1.4c-.4.9-.9 1.7-1.3 2.3-.4.7-.8 1.2-1 1.6-.3.4-.4.6-.4.6l.3-.6c.2-.4.5-1 .8-1.7.2-.3.3-.7.5-1.1s.3-.8.5-1.3c.2-.4.4-.9.5-1.4.2-.5.3-.9.5-1.4s.3-1 .4-1.5.2-1 .3-1.4c.1-.9.2-1.8.1-2.6q0-1.2-.3-1.8c0-.5-.2-.7-.2-.7M82.4 53.3s.4.6 1 1.6c.5 1 1.2 2.3 1.8 3.6.1.3.3.7.4 1 .1.4.2.7.3 1.1 0 .4-.1.8-.2 1.1-.2.3-.4.5-.6.7-.4.4-.9.6-1.2.7s-.5.2-.5.2.2-.1.4-.3c.3-.2.6-.5 1-.9.3-.4.6-.9.5-1.5 0-.3-.2-.6-.3-.9s-.3-.7-.4-1c-.6-1.3-1.2-2.6-1.6-3.7-.4-1-.6-1.7-.6-1.7M82.8 61.8s-.1.1-.2.3-.3.3-.5.5l-.6.3c-.1 0-.2 0-.2.1h-.1s0-.2.1-.4.3-.4.5-.6.5-.2.7-.2c.1-.1.3 0 .3 0M86.9 66.5s-.5.5-1.4.9c-.4.2-1 .4-1.6.5-.6.2-1.3.2-1.9.2-.7 0-1.3-.1-1.9-.2s-1.2-.3-1.6-.4c-.5-.1-.8-.4-1.1-.5s-.4-.2-.4-.2.2 0 .4.1c.3.1.7.2 1.1.2.5.1 1 .2 1.6.2.6.1 1.2.1 1.8.1s1.2-.1 1.8-.1c.6-.1 1.1-.2 1.6-.3 1-.2 1.6-.5 1.6-.5"/><path fill="#30231d" d="M78.1 47.7s-.5-.1-1.2-.2-1.7-.1-2.6 0-1.9.4-2.5.6c-.3.1-.6.3-.8.4s-.3.1-.3.1l.2-.2c.2-.1.4-.4.7-.6.2-.1.3-.2.5-.3l.6-.3c.2-.1.5-.2.7-.2.2-.1.5-.1.8-.1 1-.1 2.1 0 2.8.3.6.2 1.1.5 1.1.5M78.2 53.7s0 .1-.2.3c-.2.1-.4.3-.7.4-.7.3-1.6.3-2.5.2-.5 0-.9-.1-1.3-.2s-.8-.2-1.1-.3c-.6-.2-1.1-.4-1.1-.4s.5 0 1.1.1c.7 0 1.5.2 2.4.2.9.1 1.7.1 2.4.1.3 0 .6-.1.8-.2zM90 53.1s0 .1-.1.2-.3.3-.5.4c-.5.3-1.2.5-1.9.5s-1.4-.1-1.9-.3c-.2-.1-.4-.2-.6-.2-.1-.1-.2-.1-.2-.1h2.6c.6 0 1.3-.1 1.8-.2s.8-.3.8-.3M89.8 48.8s-.4-.2-.9-.4-1.3-.5-2-.5c-.4-.1-.7 0-1.1 0-.3 0-.7.1-1 .1s-.5.1-.7.1-.3.1-.3.1l.2-.2c.1-.1.3-.3.6-.4.1-.1.3-.1.5-.2.2 0 .4-.1.5-.1.2 0 .4-.1.6-.1h.6c.8.1 1.6.5 2.1.9.7.3.9.7.9.7"/><path fill="#30231d" d="M92.1 46.6s-1.4-13-13-7.9c0 0-16.1-7.5-14.7 15.8 0 0-7.4-2.3-5.7 10.3 0 0-9.9-7.1-7.1-21.1C54.2 31.2 64.1 25.3 72 27.5c0 0 5.1-1.7 11 .5 5.4 2 9.9 7.5 9.1 18.6"/><path fill="#875137" d="m79.5 40.7-.5-1.5c-.3-.9-.7-2.1-1.2-3.3s-1.1-2.3-1.6-3.1c-.2-.4-.4-.8-.6-1s-.2-.4-.2-.4l.3.3c.2.2.5.5.8.9s.7.8 1 1.4c.3.5.6 1.1.9 1.7.5 1.2.8 2.5 1 3.4.2 1 .1 1.6.1 1.6"/><path fill="#120d0b" d="M77.9 35.9s-.4-.3-1.1-.6c-.3-.1-.7-.3-1.1-.4s-.9-.2-1.3-.2h-1.3c-.4.1-.8.1-1.2.2s-.6.2-.8.2c-.2.1-.3.1-.3.1s.1-.1.3-.2.4-.3.8-.5c.3-.2.7-.3 1.2-.4.2 0 .5-.1.7-.1h.8q.75 0 1.5.3c.4.2.8.4 1.1.6.4.6.7 1 .7 1M76.5 33.2s-.2-.1-.5-.1c-.3-.1-.7-.2-1.1-.2-.4-.1-.8-.1-1.1-.1h-.6s.2-.2.5-.3c.2-.1.4-.1.6-.2h.7q.75.15 1.2.6c.2.1.3.3.3.3M74.2 29s-.7-.5-1.8-1l-.9-.3c-.3-.1-.7-.2-1.1-.2-.4-.1-.8-.1-1.2-.1H68c-.4 0-.8 0-1.2.1s-.8.1-1.2.2-.7.2-1.1.3c-.3.1-.7.2-1 .3-.6.2-1.1.4-1.4.5s-.5.2-.5.2.2-.1.5-.3.8-.5 1.3-.8c.3-.1.6-.3.9-.4s.7-.2 1.1-.4l1.2-.3c.4-.1.9-.1 1.3-.1h1.3c.4.1.8.1 1.2.2s.8.2 1.1.4c.4.1.7.3 1 .4 1.2.7 1.7 1.3 1.7 1.3M58.8 64.8s-1-.6-2.3-1.8c-.3-.3-.6-.7-1-1-.3-.4-.7-.8-1-1.3s-.6-.9-.9-1.4-.6-1-.8-1.6c-.3-.5-.4-1.1-.6-1.6-.2-.6-.3-1.1-.5-1.6-.1-.5-.2-1.1-.3-1.6s-.1-1-.2-1.4c0-.4-.1-.8-.1-1.2v-1.7s0 .3.1.8c0 .3.1.6.1.9 0 .4.1.7.2 1.2.1.4.1.9.3 1.4.1.5.3 1 .4 1.5.2.5.3 1 .5 1.6.2.5.4 1.1.7 1.6.2.5.5 1.1.8 1.5.3.5.6 1 .8 1.4.6.9 1.2 1.7 1.7 2.4 1.2 1.2 2.1 1.9 2.1 1.9M81.9 29.9s-.5-.1-1.1-.2c-.7-.1-1.6-.2-2.4-.2-.4 0-.9 0-1.3.1-.2 0-.4.1-.6.1-.2.1-.3.1-.5.2-.1.1-.3.1-.4.2s-.2.1-.3.2c-.2.1-.3.2-.3.2s.1-.1.2-.3c.1-.1.1-.2.2-.3s.2-.2.4-.3c.3-.2.7-.4 1.1-.5.2 0 .5-.1.7-.1h.7c1 0 1.9.3 2.5.5.7.1 1.1.4 1.1.4M85.1 32.9s-.6-.3-1.4-.6c-.4-.2-.9-.3-1.4-.5s-1.1-.3-1.7-.4c-.3-.1-.6-.1-.8-.1H79c-.3 0-.5.1-.8.1-.2.1-.5.1-.7.2s-.4.2-.5.3c-.2.1-.3.2-.4.3-.2.2-.3.2-.3.2l.3-.3c.1-.1.2-.2.3-.4.1-.1.3-.3.5-.4s.4-.2.7-.3.5-.1.8-.2c.3 0 .6-.1.9 0 .3 0 .6 0 .9.1 1.2.2 2.4.8 3.1 1.3.8.3 1.3.7 1.3.7"/><path fill="#452f26" d="m65.9 36.9-.4.6c-.3.4-.6.8-1 1.3-.4.4-.8.9-1.1 1.2l-.4.4c-.1.1-.2.1-.2.1s.1-.3.3-.7.5-.9.9-1.4.9-.9 1.3-1.1c.3-.3.6-.4.6-.4M64 37.2s-.1.1-.2.3-.3.4-.4.5c-.2.2-.4.3-.5.4-.2.1-.3.2-.3.2v-.4c0-.2.2-.5.4-.7s.5-.3.7-.4c.2.1.3.1.3.1M63.5 35.4s-.2.4-.6.9-.9 1.2-1.5 1.8c-.5.6-1.1 1.3-1.5 1.7-.2.2-.4.4-.5.6l-.2.2s.1-.4.4-1 .8-1.3 1.3-2c.6-.7 1.2-1.2 1.7-1.6.5-.3.9-.6.9-.6M60.5 36.8s0 .2-.1.4-.2.5-.3.7l-.6.6-.4.2s0-.2.1-.4.2-.5.3-.7l.6-.6c.2-.2.4-.2.4-.2M60.7 35.5s-.1.2-.2.5c-.2.3-.4.6-.7.9l-.8.8c-.2.2-.4.3-.4.3s0-.2.1-.5.3-.7.6-1 .6-.6.9-.7c.3-.2.5-.3.5-.3M60.9 33s-.3.3-.8.7c-.4.4-1 1-1.5 1.6-.3.3-.5.6-.8.9-.2.3-.5.6-.7.8s-.4.4-.5.6l-.2.2s.1-.4.4-1 .7-1.3 1.3-2q.9-1.05 1.8-1.5c.5-.2 1-.3 1-.3M87 36.5s-.3 0-.6-.1c-.4-.1-.9-.2-1.4-.4s-.9-.4-1.2-.5c-.2-.1-.3-.2-.4-.2s-.2-.1-.2-.1.3-.1.7-.1.9.1 1.4.3.9.4 1.2.7c.3.2.5.4.5.4M86.6 34.8h-.4c-.2 0-.5 0-.7-.1-.5-.1-.9-.5-.9-.5s.1-.1.4-.2c.2-.1.5 0 .8 0 .3.1.5.2.7.4 0 .3.1.4.1.4M86.7 32.5s-.3-.1-.7-.2-.9-.4-1.4-.6-1-.5-1.3-.6c-.2-.1-.3-.2-.5-.2-.1 0-.2-.1-.2-.1s.3-.1.7-.1 1 .2 1.5.4 1 .6 1.3.9c.4.3.6.5.6.5"/><path fill="#875137" d="M62.9 54.3s-2.2-6.2-6.4-3.6-2.8 10.1 2.2 11.7"/><path fill="#613a27" d="M56.5 53.3s.1-.1.2-.3c.2-.1.4-.4.8-.5.2-.1.4-.1.7 0 .1 0 .2.1.4.1.1.1.2.1.3.2.2.2.4.3.6.6.1.2.3.4.4.7.1.2.2.5.3.7s.1.5.2.7c.1.5.2.9.2 1.3.1.8 0 1.3 0 1.3s-.2-.5-.4-1.2c-.1-.4-.3-.8-.4-1.2-.1-.2-.2-.4-.3-.7l-.3-.6-.3-.6c-.1-.2-.3-.3-.4-.5l-.2-.2c-.1 0-.2-.1-.2-.1-.2 0-.3-.1-.5-.1-.3 0-.6.1-.8.2s-.3.2-.3.2"/><path fill="#613a27" d="M59.9 54.9s-.3.1-.6.3-.7.4-1.1.8c-.2.2-.3.4-.5.5-.1.2-.3.4-.4.5-.1.2-.2.3-.3.4s-.1.2-.1.2v-.7c.1-.4.3-1 .7-1.4.2-.2.4-.4.7-.5.2-.1.5-.2.7-.2.6 0 .9.1.9.1"/><path fill="#30231d" d="M64.5 45s-1.5 8.2 1.7 9.9 3.2 4.6 1.7 5.3c0 0 1.2-1.6-.1-2.6 0 0 .6 2.2-2.5 3.1s-.2 5.2 2.6 3.3c0 0-.6 1.2-1.8 1.2 0 0 3-.3 3.3 1.5s-1.5 4.7-6.3 2.1c0 0 2.3.5 3.2-.2 0 0-1.1.2-1.5-.3 0 0 5.1-.3 3.2-1.6s-7.5-.2-6.4-3.6 5.4-3 4.9-4.6c-.6-1.7-3.7-2.2-3.7-5 0 0-1.1 2.9 2.4 4.4 0 0-4.1.2-3.2-5.2s2.5-7.7 2.5-7.7"/><path fill="#120d0b" d="M62.8 53.4s0 .2.1.4c.1.3.2.6.5 1s.6.8 1 1.1c.2.2.5.3.7.5l.4.2.4.3c.2.2.5.5.7.8s.2.8.1 1.1-.4.6-.6.7c-.2.2-.5.3-.7.4-.4.2-.8.3-1.1.3h-.4s.6-.2 1.4-.7c.4-.3.8-.6.9-1 .1-.2 0-.4-.1-.6s-.3-.4-.5-.6l-.4-.3-.4-.3c-.3-.2-.5-.4-.7-.6-.4-.4-.8-.9-1-1.4-.2-.4-.3-.9-.3-1.1-.1-.1 0-.2 0-.2M65.6 65.9s-.4.1-.9.1c-.6 0-1.4 0-2.1-.4-.4-.2-.7-.4-1-.7s-.4-.7-.3-1c0-.2 0-.3.1-.4 0-.1.1-.2.1-.3l.1-.2v.6c0 .1.1.2.1.3s.1.2.1.4l.3.3c.2.2.5.4.8.5.6.3 1.3.5 1.9.6zM66.2 54.9s-.2 0-.5-.2c-.1-.1-.3-.2-.4-.4-.2-.2-.3-.4-.5-.6-.1-.2-.3-.5-.4-.8s-.2-.6-.3-1c0-.3-.1-.7-.1-1v-1.1c0-.7.1-1.4.2-2.1 0-.3.1-.6.2-.9s.1-.6.2-.8c.3-1 .6-1.7.6-1.7s0 .7-.2 1.7c0 .5-.1 1.1-.2 1.8-.1.6-.1 1.3-.1 2s0 1.4.1 2c.1.3.1.6.2.9s.1.5.2.8l.3.6c.1.2.2.3.3.4.2.3.4.4.4.4"/></g><g fill-rule="nonzero"><path fill="#875137" d="M83.3 98.2s1.3-2.9-.8-7.3c-1.4-3-1.6-5.8-2.6-5.5-1.8.5.5 5.1.5 5.1s-3.2-3.7-3.3-5.6c-.1-1.4-1.4-3.4-2.1-3.3s0 3.4.5 5.5c0 0-.9-2.4-1.6-3.7-.8-1.4-1.5-1.6-1.5.3 0 0-2.1-1.7-.9 3.3 0 0-1.2.1-.2 2.7s6.8 15 12 8.5"/><path fill="#613a27" d="M74.8 82.2s0 .6.2 1.4.5 1.8.8 2.9l.6 1.5c.2.5.4.9.6 1.3s.3.7.4.9.1.4.1.4-.1-.1-.2-.3-.4-.5-.6-.8c-.5-.7-1-1.7-1.4-2.7-.2-.5-.3-1.1-.4-1.6s-.2-1-.2-1.4 0-.8.1-1zM72.4 83.6s.1.5.3 1.2.5 1.7.9 2.6c.2.5.4.9.6 1.4.2.4.4.8.5 1.2.2.4.3.6.4.9.1.2.1.3.1.3s-.4-.4-.8-1c-.5-.6-1-1.5-1.4-2.5-.2-.5-.4-1-.5-1.5s-.2-.9-.2-1.3c0-.8.1-1.3.1-1.3M71.5 86.9s.2.3.5.9c.3.5.6 1.2.9 1.9s.6 1.4.8 1.9c.1.3.2.5.3.7s.1.3.1.3l-.7-.7c-.4-.5-.8-1.2-1.1-1.9s-.5-1.5-.7-2c0-.7-.1-1.1-.1-1.1M83.5 97s.1-.2.1-.5v-1.3c0-.3-.1-.6-.1-.9l-.3-.9c-.2-.6-.5-1.3-.8-2-.6-1.4-1.1-2.8-1.3-3.8-.3-1.1-.4-1.8-.4-1.8s.3.7.7 1.7 1 2.4 1.6 3.7c.3.7.5 1.4.7 2.1.1.3.1.7.2 1 0 .3.1.6 0 .9 0 .6-.1 1-.2 1.3-.1.4-.2.5-.2.5M80.5 90.4s-.3-.2-.5-.5c-.3-.3-.6-.9-.7-1.4-.1-.3-.1-.6-.1-.9v-.8c.1-.4.2-.7.2-.7v.2c0 .1.1.3.1.5.1.4.2.9.3 1.4s.3 1 .4 1.4c.2.6.3.8.3.8M78.2 99.5s-.2 0-.5-.2-.7-.4-1.2-.8c-.4-.4-1-.9-1.4-1.4-.5-.6-.9-1.2-1.3-1.9-.2-.3-.4-.7-.6-1s-.3-.7-.5-1c-.3-.7-.5-1.3-.8-1.8-.2-.5-.3-1-.4-1.3s-.1-.5-.1-.5.1.2.3.5q.3.45.6 1.2c.5 1 1.2 2.4 2 3.7.4.6.8 1.3 1.2 1.9q.6.9 1.2 1.5c.4.4.7.7 1 .9.3.1.5.2.5.2"/><path fill="#52b6cc" d="M103.6 129.2c-.8-5.1-7.4-14.3-12.1-20.5-3-4-8-11.5-8-11.5-2.2-.7-3.5.8-4.6 2.5 0 0 1.5 3.8 4.5 11.2 3.2 8 10.8 20.8 13.8 21.9 3.5 1.3 6.8-1.1 6.4-3.6"/><path fill="#2e83bf" d="M102.7 126s-.8-1.3-1.9-3.3c-.6-1-1.3-2.1-2-3.3-.8-1.2-1.6-2.5-2.4-3.7-.8-1.3-1.7-2.5-2.5-3.7-.8-1.1-1.6-2.2-2.3-3.2-1.4-1.8-2.3-3-2.3-3s.3.3.7.8 1.1 1.2 1.8 2.1c.4.4.8.9 1.2 1.4s.8 1 1.3 1.6c.8 1.1 1.7 2.4 2.6 3.6.8 1.3 1.6 2.6 2.4 3.8.7 1.2 1.4 2.4 1.9 3.4zM79.1 99.9s.7 1.9 1.9 4.7c.6 1.4 1.3 3.1 2.1 4.8s1.6 3.6 2.5 5.4 1.8 3.7 2.7 5.3c.9 1.7 1.8 3.2 2.6 4.6.4.7.7 1.3 1.1 1.8.3.5.6 1 .9 1.4.5.8.7 1.2.7 1.2s-.3-.4-.8-1.1-1.3-1.7-2.1-3c-.4-.6-.9-1.3-1.3-2.1-.5-.7-1-1.5-1.4-2.4-.9-1.7-1.9-3.5-2.8-5.3s-1.7-3.7-2.5-5.5c-.7-1.8-1.4-3.5-1.9-4.9s-.9-2.7-1.2-3.5c-.4-.9-.5-1.4-.5-1.4"/></g></g></svg>