<svg xmlns="http://www.w3.org/2000/svg" width="800" height="800" viewBox="0 0 74.034 74.034"><g transform="translate(-358.934 -426.342)"><g data-name="Group 74"><circle cx="37.017" cy="37.017" r="37.017" fill="#bce1d6" data-name="Ellipse 60" transform="translate(358.934 426.342)"/><path d="M395.926 500.376a36.9 36.9 0 0 0 24.739-64.276 36.76 36.76 0 0 1 9.523 24.739c0 20.379-19.2 39.153-39.582 39.153" data-name="Path 93" opacity=".12" style="mix-blend-mode:darken;isolation:isolate"/><path fill="#f0f5f9" d="M395.832 426.5a36.9 36.9 0 0 0-24.74 64.273 36.76 36.76 0 0 1-9.523-24.739c0-20.378 19.2-39.153 39.583-39.153" data-name="Path 94" opacity=".2"/></g><g fill="none" stroke="#312449" stroke-linecap="round" stroke-miterlimit="10" stroke-width="1.377" data-name="Group 75"><path d="m383.04 469.519 5.344 5.344" data-name="Line 1"/><path d="m388.384 469.519-5.344 5.344" data-name="Line 2"/><path d="m403.516 469.519 5.344 5.344" data-name="Line 3"/><path d="m408.86 469.519-5.344 5.344" data-name="Line 4"/></g><circle cx="3.242" cy="3.242" r="3.242" fill="#312449" data-name="Ellipse 61" transform="translate(392.708 483.14)"/></g></svg>