<svg xmlns="http://www.w3.org/2000/svg" width="65.632" height="62.666" viewBox="0.099 -0.233 65.632 62.666"><g fill="#dcd2b4"><path d="M3.381 42.477c2.829 1.669 6.681 2.444 9.931 1.311 1.505-.536 2.949-1.43 4.514-1.788 1.444-.358 1.805-1.312 3.19.477 1.384 1.788-.422 2.981-1.023 3.16-.963.298-1.926.596-2.949.775-1.866.357-3.732.536-5.598.476-1.745-.059-3.43-.417-5.055-.953-1.866-.716-2.528-1.61-3.01-3.458"/><path d="M5.488 44.265 5.067 38.9s-2.107 1.312-1.686 3.577 2.107 1.788 2.107 1.788M7.173 44.325l-1.083-3.16-.241 2.922z"/></g><path d="M9.819 19.846c-2.288-.059-4.514-.119-6.801-.059C.67 19.846.55 20.86.61 23.006c0 2.086-.06 4.232.783 6.14.601 1.371 2.226 2.564 4.032 2.564 1.324 0 3.069-1.133 3.19-1.193a4.3 4.3 0 0 0 1.685-2.742c.181-1.431.12-6.856-.481-7.929m-6.561 4.233c-.06.954-.06 2.265-.963 2.206-.902-.06-1.203-4.591.301-4.412.662.06.662 1.55.662 2.206m2.889 0c-.06.954-.06 2.265-.963 2.206s-1.203-4.591.301-4.412c.662.06.662 1.55.662 2.206m2.949 0c-.06.954-.06 2.265-.963 2.206-.902-.06-1.203-4.591.301-4.412.662.06.662 1.55.662 2.206"/><path fill="#3c3c32" d="M5.846 30.994c0-.238.06-2.027-.541-2.027-.602 0-.542 1.312-.542 1.312-.181 4.948.361 15.261.241 17.288 0 .596-.422 3.398 0 3.875.24.239 1.264.06 1.444-.238.241-.298.06-1.789.06-2.146-.06-1.193-.602-17.468-.662-18.064"/><path fill="#dcd2b4" d="M57.967 52.254c.301 1.669 1.625 1.371 1.625 1.371l.602-2.265z"/><path fill="#828278" d="M56.745 54.004c-.24-.537-.902-1.729-1.143-2.146.06-.418 4.333-1.431 4.634-1.491.783-.238 1.565-.536 2.287-.775l1.986-.655.722 1.132c-1.625.775-6.74 3.219-8.486 3.935M58.25 54.242l-15.829 1.371s.963 2.981 3.611 4.829a8.5 8.5 0 0 0 4.815 1.491c1.986 0 3.31-.537 4.755-1.789 1.745-1.49 2.407-3.636 2.648-5.902"/><path d="M58.19 54.362c-.06 1.967-3.19 4.59-5.477 5.484-3.19 1.252-6.199-.059-7.102-.477-1.444-.656-3.13-2.384-3.25-4.054-.241-4.232 3.19-6.378 7.102-6.557 2.167-.12 3.912.238 5.778 1.311.782.418 3.009 2.325 2.949 4.293"/><path fill="#fff" d="M45.972 55.554s1.204-2.266 4.454-2.087c3.25.12 4.273 1.61 2.889 2.206s-2.889 1.789-4.574 1.729-3.672-.298-2.769-1.848"/><path fill="#ffdc00" d="M48.38 54.838c.448 0 .854.114 1.148.297.295.184.477.437.477.717s-.182.533-.477.716c-.294.184-.7.297-1.148.297-.449 0-.855-.113-1.149-.297-.294-.183-.476-.436-.476-.716s.182-.533.476-.717.7-.297 1.149-.297"/><path fill="#dcd2b4" d="M57.846 44.325c-3.551-3.279-9.87-3.994-11.194-4.531 0 0-1.746-.954-2.648 1.073s1.264 2.504 1.264 2.504c1.745.775 7.282.835 11.134 2.981.963.536 1.986 1.788 2.708 2.921l.181.298.24 4.114c1.926-.358 2.288-1.014 2.288-1.014-.061-1.252-.362-2.504-.843-3.696-.722-1.788-1.806-3.338-3.13-4.65"/><path fill="#aaa082" d="M21.615 44.265c.903 4.591 3.129 15.679 3.19 16.395-.662.178-1.264-.358-1.926-.12l-.06.477c.18.239.481.298.782.298h1.444c.783 0 .783.06 1.565.06.121 0 .181-.06.301-.06.06-.119.542-20.269-2.889-20.328-3.43.059-2.407 3.278-2.407 3.278M37.805 60.362c.361-.835 2.226-11.327 3.069-16.156 0 0 .602-3.637-2.829-3.875-3.43-.239-2.467 20.925-2.347 21.044.301.119 2.408-.179 3.13.119.301-.059.602-.119.602-.536-.181-.12-1.264.059-1.746-.239 0-.059.06-.179.121-.357"/><path fill="#f0e6d2" d="M48.192 22.804C46.567 15.292 42.956 6.35 35.854 2.415 34.108 1.402 31.821.21 29.715.269a9.5 9.5 0 0 0-3.611.894c-.723.358-4.454 3.458-4.996 4.233-3.129 4.292-4.393 9.181-6.078 13.652-1.264 3.339-1.926 6.915-2.528 10.433-.421 2.504-.843 5.544-.301 8.048 1.204 6.081 6.079 11.208 11.917 12.936.902.239 3.912 1.491 7.703 1.55 3.19.06 7.343-1.073 7.584-1.132 7.101-3.041 8.967-11.685 9.328-14.07.602-4.65.482-9.419-.541-14.009"/><path fill="linen" d="M16.053 40.212c1.324 2.861 3.43 6.14 6.139 7.094.662.238 1.564.536 2.227.357a2.5 2.5 0 0 0 1.083-.655c.481-.656.903-1.371 1.204-2.087.601-1.967.541-4.054.601-5.961.061-1.491 0-2.922-.24-4.352-.121-1.014-.301-2.266-.723-3.22-1.023-2.325-3.129-3.934-5.296-4.173a6.9 6.9 0 0 0-2.708 0 9.7 9.7 0 0 0-2.408 1.073c-2.046 1.789-1.805 5.366-1.625 6.379.422 1.908.963 3.816 1.746 5.545"/></svg>