<svg xmlns="http://www.w3.org/2000/svg" width="72.946" height="78.44" viewBox="-0.5 -0.502 72.946 78.44"><path fill="#faa83b" d="M60.881 57.091q.35 1.32-1.186 4.003-1.535 2.683-3.246 3.826t-5.308 1.495q-2.897.264-5.396-2.551-2.501-2.814-2.851-6.245-.967-9.675-2.458-13.898-.176-1.054-.966-3.122-.789-2.066-3.597-3.387a201 201 0 0 1-4.299-1.671q-.35-.087-.877 0-1.23.351-5.09 1.407v8.532q0 .177.132 1.671.132 1.497.132 2.111.177 1.497.44 7.916.614.266 1.319 0 2.374-.967 4.222-.439 1.32.441 1.319 2.111 0 2.465-2.595 2.946-2.595.485-7.608 1.364-4.047.79-5.981.791-2.992 0-4.134-1.407-.264-2.903 2.99-3.519 2.64-.264 5.277-.616.352-.438.353-.967-.09-2.023-.968-14.514-.264-2.99-.176-4.574-1.584-.087-2.111-.264-1.32-.44-1.671-1.671v-.265q.174-.088.264-.879 1.23-1.934 3.167-1.496.175-.527-.089-2.814-.792-8.355-.967-13.37-.353-.35-1.496-.176-1.76.352-1.847.352-4.75.001-4.574-2.287.176-2.11 3.606-2.551 3.078-.614 12.931-1.935-.44.088 6.245.264 7.739.617 10.819 2.551 3.342 2.2 4.485 5.806.35 1.144.176 3.431-.089 2.287-.703 3.254-2.024 3.694-8.181 6.598 0 .264.088.352 2.199 1.584 2.991 2.814 2.286 3.695 3.078 10.731 1.143 9.589 1.847 12.051.088.528 1.231 1.671 1.143 1.146 1.848 1.231 2.725.177 3.343-2.463-.09-.967.791-2.639 1.23-1.144 2.991-1.144 1.761.003 2.29 1.585M43.289 26.217q.79-.79.791-2.463 0-4.485-3.166-6.421-3.167-1.934-13.723-1.759-.79 0-2.375.703.265 1.32 0 2.199-.089 1.32 0 2.463.044 2.376.177 5.894.439 5.19.439 5.805 1.495-.088 4.398-.879.438-.44 1.231-.968.614-.176 3.166-.176 4.84.002 9.062-4.398"/><path fill="#0cc" d="M50.648 77.438c-3.449 0-8.526-1.088-13.128-6.269l-.227-.259a15 15 0 0 1-4.707 1.702 779 779 0 0 1-7.614 1.365c-3.42.665-5.96.975-7.984.975-6.808 0-10.652-2.98-12.679-5.48a11 11 0 0 1-2.41-5.932c-.563-6.204 2.626-11.558 8.035-14.086l-.272-3.923a13.3 13.3 0 0 1-3.694-6.104 11 11 0 0 1-.419-3.007v-.265c0-1.246.211-2.461.605-3.601.287-1.123.75-2.197 1.376-3.181q.488-.766 1.042-1.453l-.022-.265c-1.784-.669-3.623-1.739-5.209-3.452-2.405-2.6-3.578-5.997-3.301-9.568.661-7.95 7.168-11.688 12.729-12.55 2.388-.458 6.752-1.11 13.314-1.989a11 11 0 0 1 3.026.012c.621.028 1.998.08 4.969.158q.293.008.585.031c7.113.566 12.132 1.9 15.793 4.199q.102.063.202.129c4.316 2.843 7.401 6.877 8.921 11.667l.033.107c.64 2.091.844 4.411.64 7.289-.15 3.249-.861 5.917-2.17 8.135a21.4 21.4 0 0 1-2.747 3.801c.916 2.609 1.583 5.57 2.017 8.929q.615-.047 1.242-.047c5.88 0 10.873 3.57 12.72 9.096q.11.33.199.667c1.51 5.689-1.337 10.658-2.272 12.291-1.895 3.312-4.082 5.77-6.682 7.506-2.695 1.8-6.08 2.878-10.346 3.296-.569.054-1.07.076-1.565.076"/><path fill="#fff" d="M60.881 57.091q.35 1.32-1.186 4.003-1.535 2.683-3.246 3.826t-5.308 1.495q-2.897.264-5.396-2.551-2.501-2.814-2.851-6.245-.967-9.675-2.458-13.898-.176-1.054-.966-3.122-.789-2.066-3.597-3.387a201 201 0 0 1-4.299-1.671q-.35-.087-.877 0-1.23.351-5.09 1.407v8.532q0 .177.132 1.671.132 1.497.132 2.111.177 1.497.44 7.916.614.266 1.319 0 2.374-.967 4.222-.439 1.32.441 1.319 2.111 0 2.465-2.595 2.946-2.595.485-7.608 1.364-4.047.79-5.981.791-2.992 0-4.134-1.407-.264-2.903 2.99-3.519 2.64-.264 5.277-.616.352-.438.353-.967-.09-2.023-.968-14.514-.264-2.99-.176-4.574-1.584-.087-2.111-.264-1.32-.44-1.671-1.671v-.265q.174-.088.264-.879 1.23-1.934 3.167-1.496.175-.527-.089-2.814-.792-8.355-.967-13.37-.353-.35-1.496-.176-1.76.352-1.847.352-4.75.001-4.574-2.287.176-2.11 3.606-2.551 3.078-.614 12.931-1.935-.44.088 6.245.264 7.739.617 10.819 2.551 3.342 2.2 4.485 5.806.35 1.144.176 3.431-.089 2.287-.703 3.254-2.024 3.694-8.181 6.598 0 .264.088.352 2.199 1.584 2.991 2.814 2.286 3.695 3.078 10.731 1.143 9.589 1.847 12.051.088.528 1.231 1.671 1.143 1.146 1.848 1.231 2.725.177 3.343-2.463-.09-.967.791-2.639 1.23-1.144 2.991-1.144 1.761.003 2.29 1.585M43.289 26.217q.79-.79.791-2.463 0-4.485-3.166-6.421-3.167-1.934-13.723-1.759-.79 0-2.375.703.265 1.32 0 2.199-.089 1.32 0 2.463.044 2.376.177 5.894.439 5.19.439 5.805 1.495-.088 4.398-.879.438-.44 1.231-.968.614-.176 3.166-.176 4.84.002 9.062-4.398"/></svg>