<svg xmlns="http://www.w3.org/2000/svg" width="81.553" height="69.35" viewBox="0.285 0.726 81.553 69.35"><path fill="#703d00" d="M46.714 51.207c6.113 0 11.652 1.006 15.663 2.632 4.01 1.625 6.493 3.87 6.493 6.348s-2.483 4.723-6.493 6.348c-4.011 1.626-9.55 2.632-15.663 2.632S35.062 68.16 31.05 66.535c-4.01-1.625-6.493-3.87-6.493-6.348s2.482-4.723 6.493-6.348c4.01-1.626 9.55-2.632 15.663-2.632"/><path fill="#a85b00" stroke="#a85b00" stroke-linecap="round" stroke-width="1.71" d="M40.194 22.879a467 467 0 0 1 28.335.407c2.358.108 5.945-1.29 5.793.815-.607 8.411-4.53 16.814-7.948 24.883-1.89 4.58-2.768 11.42-7.904 13.52-8.492 3.247-18.734 2.096-27.93.815-3.343-.488-5.434-3.276-7.275-5.457-3.1-3.663-5.345-7.91-7.32-11.81C12.613 39.39 7.8 32.706 6.785 25.77c-.277-1.89 3.534-1.783 5.882-2.077 9.082-1.07 18.462-.674 27.527-.814Z"/><path fill="#703d00" d="M42.178 25.69c8.612 0 16.416.945 22.067 2.471s9.15 3.634 9.15 5.96-3.499 4.433-9.15 5.96c-5.65 1.525-13.455 2.47-22.067 2.47s-16.416-.945-22.067-2.47c-5.65-1.527-9.149-3.635-9.149-5.96s3.498-4.434 9.15-5.96c5.65-1.526 13.454-2.47 22.066-2.47"/><path fill="#f0c444" stroke="#a85b00" stroke-linecap="round" stroke-width="1.818" d="M41.18 1.782c2.28-.532 1.882.507 2.542 1.032 1.185.749 1.76 2.102 2.878 2.71.799.438 2.013-.3 2.83.13 1.03.747 1.164 2.258 2.159 3.054.615.496 1.572.02 2.302.215 1.309.418 2.52 1.066 3.886 1.247.753.253 1.526-.133 2.35.043 1.213.27 2.103 1.55 3.358 1.549 1.685-.023 2.998-2.315 4.7-2.022 2.612.462 5.136 2.286 6.908 4.302 2.538 2.815 6.745 6.12 5.66 9.786-1.327 4.464-4.456 6.799-11.654 9.138-7.2 2.34-17.14 3.789-28.111 3.789s-20.913-1.45-28.112-3.79S.778 28.422 1.222 23.829c.647-6.09 7.496-10.674 13.095-14.045 8.182-4.232 17.74-5.874 26.862-8.001Z"/></svg>