<svg xmlns="http://www.w3.org/2000/svg" width="135.786" height="141.348" viewBox="0.233 -0.642 135.786 141.348"><path fill="#005a61" d="M.863 66.845c0-17.539 14.205-31.757 31.728-31.757s31.727 14.218 31.727 31.757v24.761H37.003V67.251a4.413 4.413 0 1 0-8.824 0v30.232H.863z"/><path fill="#17242d" d="M32.59 44.174c12.396 0 22.48 10.094 22.48 22.5V89.77h-.839V66.674c0-11.944-9.708-21.66-21.641-21.66s-21.641 9.716-21.641 21.66v30.809h-.838V66.674c0-12.406 10.084-22.5 22.479-22.5"/><path fill="#17242d" d="M18.409 97.483V67.432c0-7.826 6.362-14.194 14.182-14.194s14.182 6.368 14.182 14.194V89.77h-.838V67.432c0-7.364-5.986-13.355-13.344-13.355s-13.343 5.991-13.343 13.355v30.051z"/><path fill="none" stroke="#ffdb5d" stroke-width="1.26" d="M48.061 140.076c2.595 0 2.595-2.518 5.188-2.518 2.594 0 2.594 2.518 5.187 2.518 2.596 0 2.596-2.518 5.19-2.518 2.596 0 2.596 2.518 5.191 2.518M58.599 121.6v18.26"/><path fill="#751d18" d="M73.288 114.682a8.046 8.046 0 0 0-3.885-10.69c-4.022-1.879-8.804-.137-10.681 3.889a8 8 0 0 0-.746 3.375l-.006-.001-.198 14.577c-.016 1.231 1.426 1.905 2.357 1.103l11.061-9.516a8 8 0 0 0 2.098-2.737"/><path fill="#17242d" d="M37.08 89.875c0-7.739 6.266-14.013 13.998-14.013l3.296-.001c.047-.003.099-.011.143-.011h50.491s.01 8.422.01 9.539c0 3.699-1.563 10.057-6.611 14.356-11.251 9.583-24.567 21.991-24.567 21.991z"/><path fill="none" stroke="#ffdb5d" stroke-width="1.26" d="M91.788 134.513h.576a4.877 4.877 0 0 0 4.875-4.879 4.88 4.88 0 0 0-4.875-4.879H77.427"/><path fill="#751d18" d="M63.715 112.199c-1.746-4.085.148-8.812 4.228-10.559a8.032 8.032 0 0 1 11.188 7.628l.006-.001-.272 14.577c-.022 1.23-1.486 1.857-2.392 1.025l-10.747-9.867a8 8 0 0 1-2.011-2.803"/><path fill="#de7732" d="M69.014 85.007c.027-1.83.012-9.443.012-9.443 0-28.517 21.326-47.672 39.519-55.444a71 71 0 0 1 14.919 2.443c.433 4.674.47 10.296.47 10.297l-19.63 58.269c-3.181 9.444-13.41 14.519-22.846 11.335-7.609-2.568-12.551-9.83-12.444-17.457"/><path fill="#e8441d" d="m123.912 32.86-14.221 42.211c-2.605 7.732-9.532 12.781-17.179 13.363l23.935-71.045c1.862-.479 3.641-.816 5.299-1.002 2.056-.229 2.166 16.473 2.166 16.473M101.708 23.504c5.09-2.887 10.169-4.939 14.737-6.115L98.307 71.23c-2.604 7.731-9.533 12.781-17.179 13.362z"/><path fill="#e8441d" d="M101.719 23.504 86.935 67.388c-2.515 7.467-9.509 12.834-17.918 13.57.003-2.607-.002-5.394-.002-5.394 0-25.008 16.4-42.815 32.704-52.06"/><path fill="#ce2235" d="M103.217 7.077a6.43 6.43 0 0 1 6.029 1l.419.294c.596.416 1.378-.173 1.142-.861l-1.36-3.974a2.202 2.202 0 1 1 4.165-1.428l1.196 3.495c.236.692 1.223.664 1.421-.04L117.585.74c.274-.974 1.639-1.012 1.966-.054l2.228 6.508c.065-.025.125-.054.191-.077a6.6 6.6 0 0 1 8.384 4.108 6.61 6.61 0 0 1-4.106 8.391c-.116.04-.234.068-.352.102l-4.286 1.469-.702-2.052c-.063-.035-.126-.066-.187-.103l-8.752.942-2.162-2.181a6.4 6.4 0 0 1-2.413 1.493 6.445 6.445 0 0 1-8.188-4.013 6.456 6.456 0 0 1 4.011-8.196"/><path fill="#ffdb5d" d="m121.175 32.244 14.046-4.756h-13.347z"/><path fill="#ce2235" d="M119.615 40.015a7.616 7.616 0 0 0 9.675 4.743 7.626 7.626 0 0 0 4.737-9.684 7.615 7.615 0 0 0-9.675-4.742c-3.979 1.364-6.1 5.7-4.737 9.683"/><path fill="#ffdb5d" d="m135.389 20.35-20.508 7.032c-.101-2.179 1.232-4.267 3.39-5.007l11.373-3.9c2.158-.74 4.491.092 5.745 1.875"/><path fill="#ad2c24" d="M107.692 27.329c1.675 4.897 7 7.507 11.894 5.83 4.892-1.678 7.5-7.009 5.823-11.905-1.676-4.897-7.001-7.507-11.893-5.83-4.893 1.678-7.5 7.008-5.824 11.905"/><path fill="#fff4e3" d="M112.294 25.751a4.5 4.5 0 1 0 8.514-2.92 4.5 4.5 0 0 0-5.715-2.801 4.504 4.504 0 0 0-2.799 5.721"/><path fill="#17242d" d="M113.645 25.288a3.07 3.07 0 0 0 3.902 1.911 3.074 3.074 0 0 0-1.991-5.816 3.075 3.075 0 0 0-1.911 3.905"/><path fill="none" stroke="#751d18" stroke-width=".6" d="m122.816 25.921-4.761 5.514"/><path fill="#b85c39" d="M20.491 75.308c13.248-13.257 34.725-13.254 47.971.006l.525.525-8.205 8.21c-13.537 13.548-35.485 13.546-49.02-.006z"/><path fill="#ad2c24" d="m11.743 84.045.012-.012 18.89-5.303 14.342 14.357c-11.502 2.985-24.236-.024-33.244-9.042"/><path fill="none" stroke="#751d18" stroke-width=".6" d="m15.613 86.925 17.938-5.01M19.599 89.595l16.873-4.712M24.884 91.923l14.58-4.072M32.219 93.671l10.213-2.851"/><path fill="#573a3c" d="M48.697 77.607a6.575 6.575 0 0 1-8.006-1.006 6.593 6.593 0 0 1 .001-9.319 6.54 6.54 0 0 1 4.232-1.904c8.53.114 17.026 3.421 23.534 9.936l.524.525-8.203 8.21a35 35 0 0 1-1.84 1.701l-.031-.036a6.575 6.575 0 0 1-9.208-.093 6.59 6.59 0 0 1-1.003-8.014"/></svg>