<svg xmlns="http://www.w3.org/2000/svg" width="103.706" height="131.102" viewBox="0.147 -0.406 103.706 131.102"><path fill="undefined" d="M39.936 39.932h24.22v7.893h-24.22z"/><path fill="none" stroke="#000" stroke-linecap="round" stroke-width="2.321" d="M52.007 43.182v65.617M52.007 108.799l-30.564 18.029M52.007 108.799l9.982 20.737M52.007 108.799l24.53 15.552"/><path fill="#ef3d23" stroke="#000" stroke-width=".387" d="m1.789 32.89 4.875 51.07a107.2 107.2 0 0 0 36.522 0l4.875-51.07z"/><path fill="#fcf9ce" stroke="#000" stroke-width=".387" d="m1.789 34.051 3.946 40.005 3.173-27.702 3.405 30.41 5.029-30.796 7.583 34.974 9.13-34.974L38.699 76.3l3.715-31.725 1.78 29.48 3.946-39.926-46.35-.078"/><path fill="#cdcccc" stroke="#000" stroke-width=".387" d="M48.139 30.415v3.327c0 1.16-10.37 2.012-23.136 2.012-12.768 0-23.137-.929-23.137-2.09v-3.327c0 1.16 10.37 2.09 23.137 2.09s23.136-.852 23.136-2.012Z"/><path fill="#fdcd9a" stroke="#000" stroke-width=".387" d="M24.925 28.325c6.383 0 12.167.235 16.356.612 4.188.379 6.78.901 6.78 1.477s-2.592 1.1-6.78 1.478-9.973.612-16.356.612-12.167-.235-16.355-.612c-4.189-.379-6.781-.901-6.781-1.477s2.592-1.1 6.78-1.478c4.19-.377 9.973-.612 16.356-.612Z"/><path fill="#ef3d23" stroke="#000" stroke-width=".387" d="m55.876 34.129 4.875 58.807c12.149 2.399 24.374 2.399 36.523 0l4.874-58.73z"/><path fill="#fcf9ce" stroke="#000" stroke-width=".387" d="m55.876 35.522 3.947 46.04 3.172-31.958L66.4 84.656l5.03-35.516 7.66 40.314 9.13-40.314 4.643 34.975L96.5 47.592l1.857 33.892 3.869-45.962h-46.35"/><path fill="#cdcccc" stroke="#000" stroke-width=".387" d="M102.226 31.266v3.791c0 1.316-10.369 2.322-23.136 2.322-12.768 0-23.136-1.084-23.136-2.4v-3.79c0 1.315 10.368 2.398 23.136 2.398 12.767.077 23.136-1.006 23.136-2.321Z"/><path fill="#fdcd9a" stroke="#000" stroke-width=".387" d="M79.09 28.867c6.383 0 12.167.268 16.355.703s6.78 1.034 6.78 1.696-2.591 1.26-6.78 1.695c-4.188.435-9.972.703-16.355.703s-12.167-.268-16.356-.703c-4.188-.434-6.78-1.034-6.78-1.695 0-.662 2.592-1.262 6.78-1.696 4.189-.435 9.973-.703 16.356-.703Z"/><path fill="#333" stroke="#000" stroke-width=".387" d="M52.007 42.408c.406 0 .773.165 1.04.431a1.466 1.466 0 0 1 0 2.078 1.466 1.466 0 0 1-2.079 0 1.466 1.466 0 0 1 0-2.078 1.47 1.47 0 0 1 1.04-.43Z"/><g fill="none" stroke="#000" stroke-linecap="round" stroke-width="1.548"><path d="M23.176 21.623V1.505M14.67 22.875 1.309 7.836M32.23 22.025 45.593 6.986"/></g><g fill="none" stroke="#000" stroke-linecap="round" stroke-width="1.548"><path d="M80.326 20.873V.755M71.92 22.075 58.558 7.036M89.33 21.225l13.362-15.039"/></g></svg>