<svg xmlns="http://www.w3.org/2000/svg" width="108.054" height="117.682" viewBox="0.338 0.116 108.054 117.682"><path fill="#ff13fa" d="M32.224 110.52c10.25 13.33 29.973-24.974 33.229-24.974s19.448 18.273 30.948 18.471c2.552.045 4.054-1.22 5.327-3.295C108.667 89.41 86.87 72.84 85.944 66.083c-.39-2.84 7.398-7.264 10.247-10.617 2.832-3.334 9.848-10.08 7.71-14.851-1.5-3.347-4.73-2.95-7.16-2.775-4.884.352-12.05 3.267-16.881 4.136-4.754 1.678-3.736-5.367-4.95-9.914-1.214-4.548-4.92-10.217-7.446-12.974-4.108-4.483-13.74-12.15-19.94-13.917-3.236-.92-8.882.575-10.453 3.744-3.512 7.09 6.663 18.378 7.337 26.608.195 2.364.367 9.886-.965 11.894-1.73 2.61-36.267 1.447-36.902 11.994-.287 4.769 4.09 7.841 7.962 9.593 6.463 2.93 12.214 2.456 18.899 3.814 1.794.362 4.39 1.344 4.638 3.403.746 6.185-13.226 24.657-5.816 34.299"/><path fill="undefined" d="M89.592 66.133c5.147-5.475 19.546-16.865 17.743-25.368-.917-4.316-4.473-7.355-12.116-6.33-3.324.446-10.238 3.142-14.441 4.627-.485.026-2.066.028-2.258-1.023-.225-1.24.013-11.545-13.481-23.883C58.166 7.872 45.638-5.33 35.892 3.54c-5.158 4.694-3.057 11.429-1.454 14.565 6.119 11.961 8.195 20.127 6.58 26.478-.025.1-34.614.907-39.81 12.856-1.495 3.438 1.274 8.475 4.153 10.48 11.444 7.968 26.812 7.279 29.424 8.65.024.013.029.05.045.073q.105.143.025.562c-.842 4.408-15.873 30.29-3.948 38.557 2.973 2.06 8.527 2.047 11.63.342 9.457-5.201 20.287-26 23.745-26s21.622 18.904 32.125 18.308c2.98-.171 6.6-3.625 7.959-6.06 7.243-12.974-12.619-25.558-16.774-36.218M38.04 76.221c-.249-2.059-2.844-3.04-4.638-3.403-6.685-1.358-12.436-.884-18.899-3.814-3.872-1.752-8.249-4.826-7.962-9.593.635-10.547 35.172-9.385 36.902-11.994 1.332-2.008 1.16-9.53.965-11.894-.674-8.23-10.85-19.519-7.337-26.609 1.57-3.168 7.217-4.664 10.453-3.743 6.203 1.766 15.832 9.434 19.94 13.916 2.527 2.757 6.231 8.426 7.446 12.974s.198 11.593 4.95 9.914c4.832-.87 11.997-3.784 16.88-4.136 2.429-.175 5.66-.572 7.16 2.775 2.14 4.771-4.877 11.517-7.709 14.851-2.847 3.353-10.636 7.777-10.247 10.617.925 6.758 22.723 23.327 15.784 34.64-1.273 2.075-2.775 3.339-5.327 3.294-11.5-.198-27.692-18.471-30.948-18.471s-22.98 38.304-33.23 24.974c-7.409-9.64 6.563-28.113 5.817-34.298"/><path fill="#9913fa" d="m56.221 48.154-.042.03c-1.746 1.25-5.068 2.939-4.62 12.55.063 1.37-.007 3.537 3.701 3.428 1.507-.044 3.647-.47 6.669-1.474-3.104-2.267-1.557-12.546 3.967-17.062-4.844-.06-7.459.93-9.675 2.528"/><path fill="#fff" d="M54.694 63.46c3.253-2.624 6.228-4.91 9.734-6.3l.384-.151.365.19c1.22.636 2.353 1.867 2.889 3.14l.353.837-.84.348c-5.579 2.306-9.6 3.464-12.293 3.543l-2.677.078z"/><path fill="undefined" d="M64.76 57.999c1.035.54 2.017 1.606 2.474 2.688-6.01 2.484-9.705 3.408-11.975 3.475 3.02-2.437 6.05-4.794 9.5-6.163m.103-1.982-.768.304c-3.624 1.437-6.658 3.765-9.968 6.438l-4.17 3.366 5.355-.157c2.803-.081 6.93-1.261 12.61-3.61l1.68-.695-.706-1.674c-.62-1.477-1.887-2.852-3.302-3.59zl-.102 1.982Z"/><path fill="#fff" d="M69.725 51.034c-1.715-.309-3.647-.528-5.694-.76-2.763-.315-5.617-.64-8.058-1.21l-1.988-.467 1.681-1.157c2.689-1.938 5.52-2.721 9.803-2.721a38 38 0 0 1 1.967.053c.945.048 1.954.203 3.177.486l.692.16.008.71c.017 1.503-.202 3.147-.569 4.293l-.24.753z"/><path fill="undefined" d="M65.471 45.621q.904 0 1.92.052c1.002.052 2.026.234 3.02.464.014 1.322-.171 2.904-.526 4.01-4.114-.74-9.556-.99-13.706-1.963l.042-.03c2.153-1.552 4.672-2.533 9.25-2.533m0-1.805c-4.43 0-7.512.86-10.306 2.875l-3.367 2.314 3.97.937c2.492.583 5.374.912 8.162 1.228 2.03.231 3.948.45 5.636.753l1.556.28.483-1.506c.394-1.231.627-2.986.61-4.579L72.2 44.7l-1.383-.319c-1.275-.296-2.334-.457-3.332-.508-.7-.038-1.379-.056-2.014-.056v1.805Z"/><path fill="undefined" d="M76.992 43.867c-2.72-6.768-6.185-9.166-5.579-8.126 0 0 3.686 5.945 3.31 8.878 0 0-4.834-2.07-12.76-.62-7.924 1.448-13.609 5.475-13.586 16.734.022 11.262 11.875 5.659 16.891 3.157 5.016-2.5 5.694-2.63 6.145.48.451 3.111.753 5.443 1.655 2.585.903-2.858 3.77-10.527-1.725-8.047-1.483.67-2.841 1.255-4.11 1.78a81 81 0 0 1-5.307 2c-3.022 1.004-5.161 1.43-6.667 1.474-3.707.11-3.639-2.058-3.703-3.429-.447-9.61 2.877-11.3 4.621-12.549l.042-.03c2.216-1.598 4.832-2.588 9.674-2.528.479.007.972.02 1.496.046 1.004.052 2.026.234 3.02.464 4.772 1.106 8.834 3.335 6.583-2.269"/><path fill="#fff" d="M51.23 31.754c-1.326 2.309-1.057 6.16 2.129 7.385.908.35 2.61-.048 3.39-.654 2.182-1.689 1.737-6.458.132-7.822-1.547-1.313-4.604-.734-5.651 1.091"/><path fill="undefined" d="M56.77 32.332c.621 0 1.183.248 1.59.648a2.19 2.19 0 0 1 0 3.128c-.407.4-.969.648-1.59.648a2.26 2.26 0 0 1-1.59-.648 2.19 2.19 0 0 1 0-3.128c.407-.4.97-.648 1.59-.648"/><path fill="undefined" d="M57.1 28.028c-8.599-2.803-11.272 9-6.651 12.354 1.776 1.29 4.85 1.558 7.081.48 4.507-2.18 3.766-11.466-.43-12.834m-.35 10.457c-.781.606-2.483 1.004-3.391.654-3.186-1.225-3.455-5.076-2.13-7.385 1.048-1.825 4.105-2.404 5.653-1.091 1.604 1.364 2.049 6.133-.133 7.822"/><path fill="#fff" d="M75.844 23.889c-2.34-1.984-6.957-1.11-8.54 1.649-2.003 3.488-1.597 9.305 3.216 11.155 1.376.53 3.94-.07 5.124-.987 3.298-2.55 2.624-9.757.2-11.817"/><path fill="undefined" d="M79.761 30.307c.03 1.974-1.614 3.606-3.67 3.646s-3.745-1.526-3.775-3.499 1.614-3.605 3.67-3.646 3.746 1.526 3.775 3.5"/><path fill="undefined" d="M75.758 20.903C64.068 17.091 60.432 33.14 66.714 37.7c2.414 1.754 6.598 2.12 9.627.654 6.13-2.964 5.123-15.59-.583-17.45m-.114 14.803c-1.184.916-3.746 1.516-5.124.987-4.813-1.85-5.218-7.667-3.215-11.155 1.582-2.758 6.198-3.633 8.539-1.65 2.425 2.061 3.098 9.268-.2 11.818"/></svg>