<svg xmlns="http://www.w3.org/2000/svg" width="56.29" height="46.327" viewBox="0.41 0.02 56.29 46.327"><defs><linearGradient id="a" x1="159.203" x2="159.203" y1="473.157" y2="518.325" gradientUnits="userSpaceOnUse"><stop offset="0" stop-color="#ee2a7b"/><stop offset="1" stop-color="#811150"/></linearGradient></defs><path fill="url(#a)" stroke="#fff" stroke-width="1.158" d="M39.265 28.189s-22.925.01-33.337.01a4.938 4.938 0 0 1 0-9.877c8.729 0 33.31-.01 33.31-.01s-1.65-1.67-9.263-9.283a4.937 4.937 0 1 1 6.983-6.983c6.174 6.172 17.717 17.717 17.717 17.717a4.94 4.94 0 0 1 0 6.983L37.1 44.32a4.936 4.936 0 0 1-6.984 0 4.936 4.936 0 0 1 0-6.982z"/></svg>