<svg xmlns="http://www.w3.org/2000/svg" xml:space="preserve" width="146.315" height="254.993" viewBox="17.985 13.385 146.315 254.993"><title>fairy-b</title><g fill-rule="nonzero"><path fill="#c68652" d="M99.6 193.5c7-11.3 21.1-54.1 8.3-58.9S81 148 81.8 184.8c.5 27 13.5 15.5 17.8 8.7"/><path fill="#8c5734" d="M82.3 170.3s-.2 1.5-.3 3.9c-.1 1.2-.1 2.5-.2 4-.1 1.4-.1 3 0 4.5v2.3c0 .8.1 1.5.1 2.2.1.7.1 1.4.2 2.1s.1 1.3.2 1.9.2 1.1.2 1.6c.1.5.2.9.2 1.2.1.7.2 1 .2 1s-.1-.4-.3-1-.5-1.6-.7-2.7c-.1-.6-.2-1.2-.3-1.9l-.3-2.1c-.1-.7-.1-1.5-.2-2.2-.1-.8-.1-1.5-.1-2.3 0-1.6 0-3.1.1-4.6s.2-2.8.4-4c.5-2.4.8-3.9.8-3.9M113 145.2v1.8c0 1.1-.1 2.7-.2 4.6-.2 1.9-.4 4.1-.8 6.5l-.6 3.6c-.2 1.2-.5 2.5-.8 3.7-.3 1.3-.6 2.5-1 3.7-.3 1.2-.7 2.4-1.1 3.6-.3 1.2-.8 2.2-1.1 3.3-.4 1-.7 2-1.1 2.9s-.7 1.7-1 2.4q-.45 1.05-.9 1.8l-.8 1.6s.2-.6.7-1.6c.2-.5.5-1.1.8-1.9.3-.7.6-1.6.9-2.5s.7-1.9 1-2.9.7-2.1 1-3.3c.3-1.1.7-2.3 1-3.5s.6-2.4.9-3.7c.3-1.2.6-2.5.8-3.7.3-1.2.5-2.4.7-3.6.4-2.4.8-4.6 1-6.5.5-3.7.6-6.3.6-6.3"/><path fill="#c68652" d="M80.7 195c-3.5 4.6-4.2 9.9-4.8 21.2-.4 7.4.6 20.2.1 30.5-.2 4.8 2.1 5.5 3.8 5.9 4.4 1.1 2.9-4.5 4.9-11.3 3.5-12 5.8-20.2 8.8-28.4 7.2-19.7 6.7-24.4.5-24.8-6.3-.4-9.8 2.3-13.3 6.9"/><path fill="#8c5734" d="M82.5 193s-.3.2-.8.8c-.2.3-.5.6-.8 1s-.6.9-.9 1.4-.6 1.1-.8 1.8c-.3.7-.5 1.3-.8 2.1-.3.7-.5 1.5-.7 2.3s-.4 1.6-.5 2.4c-.2.8-.3 1.6-.4 2.4-.2.8-.2 1.6-.3 2.3-.1.8-.2 1.5-.2 2.2-.1.7-.1 1.4-.2 2s-.1 1.2-.1 1.7-.1.9-.1 1.3c-.1.7-.1 1.1-.1 1.1v-4.1c.1-1.2 0-2.7.2-4.2.1-.8.1-1.6.3-2.4.1-.8.2-1.6.4-2.4s.3-1.6.6-2.4c.2-.8.4-1.6.7-2.3.2-.7.6-1.4.9-2.1l.9-1.8c.3-.5.7-1 1-1.4s.6-.7.9-1c.4-.5.8-.7.8-.7M96.2 205.1s-.6 1.8-1.4 4.4c-.4 1.3-.9 2.9-1.5 4.5-.5 1.6-1.1 3.4-1.7 5.2s-1.1 3.5-1.7 5.2c-.5 1.7-1 3.2-1.4 4.5-.8 2.6-1.4 4.4-1.4 4.4s.1-.5.3-1.2c.2-.8.4-1.9.8-3.3.3-1.3.8-2.9 1.2-4.6.5-1.7 1-3.4 1.6-5.2s1.2-3.5 1.8-5.2c.6-1.6 1.2-3.2 1.7-4.4.9-2.6 1.7-4.3 1.7-4.3"/><path fill="#c68652" d="M82.4 249.3c1.6 1.7 3.9 9.4 6.2 11.6s4.7 4.5 3.4 6.2c-1.3 1.6-6.3 0-7.9-.9-3.6-2.1-3.7-5-9.3-9.6-1.4-1.1-3.2-2.4-2.7-4.8.4-2.5 6.1-6.9 10.3-2.5"/><path fill="#f29c11" d="M84.1 266.2c-3.6-2.1-3.7-5-9.3-9.6-1.4-1.1-3.2-2.4-2.7-4.8.1-.7.7-1.5 1.5-2.3 1.3 4.7 6.7 9.1 10.1 12.1 3.8 3.3 6.2 2.3 7.1 1.4 1.4 1.5 2.2 3 1.3 4.1-1.4 1.6-6.4 0-8-.9"/><path fill="#e17522" d="m92 267.1-.2.2c-.2.1-.5.3-.9.4-.8.2-2.1.2-3.5-.1-.7-.2-1.4-.5-2.2-.8s-1.5-.7-2.3-1.2q-1.2-.75-2.1-1.8c-.6-.7-1.2-1.5-1.8-2.3-1.1-1.5-2.3-3-3.6-4.2-.7-.6-1.4-1-2-1.6s-1.1-1.3-1.3-2c-.3-.7-.4-1.4-.2-2s.5-1 .7-1.4l.7-.7c.2-.1.3-.2.3-.2s-.1.1-.2.3-.4.4-.6.8c-.2.3-.5.8-.6 1.3s0 1.2.3 1.8.7 1.2 1.3 1.8c.6.5 1.4 1 2 1.6 1.4 1.2 2.6 2.7 3.8 4.2.6.8 1.1 1.6 1.7 2.3s1.3 1.3 2 1.8 1.5.9 2.2 1.2q1.05.6 2.1.9c1.3.4 2.5.6 3.3.4q.6-.15.9-.3c.1-.3.2-.4.2-.4"/><path fill="#8c5734" d="M89.9 262.2s-.6-.4-1.5-1.2c-.4-.4-.9-.9-1.3-1.5s-.8-1.3-1.1-2c-.5-1.4-1.1-2.8-1.5-3.9s-.6-1.8-.6-1.8.4.6 1 1.6c.5 1 1.2 2.4 1.7 3.8.1.4.3.7.4 1 .2.3.3.6.5.9.4.6.8 1.1 1.1 1.5.8 1 1.3 1.6 1.3 1.6"/><path fill="#e17522" d="M90.7 263s-.1.1-.2.3l-.3.3c-.1.1-.3.2-.5.3-.4.2-.9.3-1.5.2-.3 0-.6-.1-.8-.1-.3-.1-.6-.2-.8-.3-.3-.1-.5-.3-.8-.4s-.5-.3-.7-.5c-.5-.3-.8-.7-1.1-.9-.3-.3-.5-.6-.7-.8s-.2-.3-.2-.3.5.3 1.2.8c.4.2.7.5 1.2.7.4.3.9.5 1.4.7.3.1.5.2.7.3.3.1.5.1.7.2.5.1.9.1 1.3 0 .2 0 .4-.1.5-.2.2-.1.3-.1.4-.2.1 0 .2-.1.2-.1"/><path fill="#ffe7ab" d="M86.6 95.8c-4.4-10.6-37.5 6.3-39.8 24.3s54.7 11.8 39.8-24.3"/><path fill="#ffd878" d="M85.8 94.4s-.2-.1-.5-.2c-.3-.2-.7-.4-1.3-.7q-.9-.3-2.1-.6c-.9-.1-1.9-.1-2.9 0-1 0-2.2.3-3.3.5q-1.8.45-3.6 1.2c-1.2.5-2.5 1-3.7 1.6-.6.3-1.3.6-1.9.9s-1.2.7-1.8 1-1.2.7-1.8 1.1-1.2.8-1.7 1.2c-.6.4-1.1.8-1.6 1.3-.5.4-1 .9-1.5 1.3s-1 .9-1.4 1.3c-.5.4-.9.9-1.3 1.3-.8.9-1.6 1.7-2.3 2.6-1.3 1.6-2.4 3.1-3.1 4.1s-1.1 1.6-1.1 1.6.3-.7.9-1.7c.6-1.1 1.5-2.6 2.8-4.3.6-.9 1.4-1.8 2.2-2.7s1.7-1.9 2.7-2.8c.5-.5 1-.9 1.5-1.4s1.1-.9 1.6-1.3c.6-.4 1.1-.9 1.7-1.3s1.2-.8 1.8-1.1c1.2-.7 2.6-1.3 3.8-1.9 1.3-.6 2.6-1.1 3.8-1.6 1.3-.5 2.5-.8 3.7-1.1 1.2-.2 2.4-.4 3.5-.4s2.1.1 2.9.3c.9.2 1.6.5 2.1.7.6.3 1 .5 1.3.7.4.3.6.4.6.4M88.4 101.5l.3 1.5c.1.5.2 1.1.3 1.7.1.7.2 1.4.2 2.3 0 .8 0 1.7-.1 2.7s-.2 2-.5 3c-.1.3-.1.5-.2.8s-.2.5-.3.8c-.2.5-.3 1.1-.6 1.5-.2.5-.5 1-.8 1.5l-.9 1.4c-.3.5-.7.9-1 1.3-.4.4-.7.9-1.1 1.3-.8.8-1.6 1.5-2.5 2.1l-1.2.9c-.4.3-.9.5-1.3.7s-.8.5-1.2.7l-1.2.6c-.8.3-1.4.7-2.1.9-.6.2-1.2.4-1.7.6-.9.3-1.4.5-1.4.5s.5-.2 1.4-.7c.4-.2 1-.4 1.6-.7s1.2-.7 2-1.1c.4-.2.7-.4 1.1-.6s.7-.5 1.1-.8.8-.5 1.2-.8l1.2-.9c.8-.6 1.5-1.4 2.3-2.1.4-.4.7-.8 1.1-1.2.3-.4.7-.8 1-1.3l.9-1.3c.2-.5.5-1 .7-1.4.3-.5.4-1 .6-1.5l.3-.7c.1-.2.1-.5.2-.7.3-1 .5-1.9.7-2.9.1-.9.2-1.8.2-2.6.1-1.6 0-3-.1-4s-.2-1.5-.2-1.5"/><path fill="#ffe7ab" d="M88.9 84c-2.6-17-26.1-55.7-63-68.7 0 0 15.6 70.6 31.8 83.5s35 9.8 31.2-14.8"/><path fill="#ffd878" d="M89.4 91.3s0-.4.1-1.2v-1.4c-.1-.5-.1-1.2-.2-1.9-.2-1.4-.6-3.1-1.2-5s-1.3-4-2.2-6.2c-.9-2.3-2-4.6-3.2-7.1-1.3-2.5-2.7-5-4.2-7.7q-2.4-3.9-5.1-7.8c-1.8-2.6-3.8-5.2-5.9-7.6-1-1.2-2.1-2.5-3.2-3.7s-2.2-2.4-3.3-3.5c-1.1-1.2-2.3-2.2-3.4-3.3s-2.3-2.1-3.4-3.1c-2.3-1.9-4.6-3.8-6.9-5.4s-4.5-3-6.6-4.3c-1.1-.6-2.1-1.2-3-1.7-1-.5-1.9-1-2.8-1.4-1.8-.9-3.4-1.5-4.7-2.1-2.6-1-4.2-1.6-4.2-1.6s.4.1 1.1.4c.7.2 1.8.6 3.1 1.1 1.3.6 2.9 1.1 4.7 2 .9.4 1.9.9 2.9 1.3 1 .5 2 1.1 3.1 1.7 2.1 1.2 4.4 2.6 6.7 4.2 1.2.8 2.3 1.7 3.5 2.5 1.2.9 2.3 1.9 3.5 2.8 1.2 1 2.3 2 3.5 3.1 1.1 1.1 2.3 2.1 3.4 3.3 1.1 1.1 2.3 2.3 3.3 3.5 1.1 1.2 2.2 2.4 3.2 3.7 2.1 2.5 4.1 5.1 5.9 7.7 1.9 2.6 3.5 5.3 5.1 7.9 3.1 5.3 5.5 10.5 7.3 15q1.35 3.45 2.1 6.3c.5 1.9.8 3.6 1 5 .1.7.1 1.3.2 1.9v1.4c-.2.8-.2 1.2-.2 1.2M78.4 106.1h-2.5c-.8 0-1.7 0-2.8-.1-.5-.1-1.1-.1-1.8-.2-.6 0-1.3-.2-1.9-.3-.7-.1-1.3-.3-2.1-.6-.4-.1-.7-.2-1.1-.3-.3-.2-.7-.3-1.1-.5s-.7-.3-1.1-.5-.7-.4-1.1-.6-.7-.4-1.1-.6l-.5-.3-.5-.4c-.7-.5-1.4-1-2.1-1.6-.6-.6-1.3-1.2-1.9-1.8-.7-.6-1.2-1.3-1.8-2s-1.2-1.4-1.7-2.1-1-1.5-1.6-2.2l-.7-1.1-.7-1.2c-.9-1.6-1.8-3-2.5-4.6-.7-1.5-1.5-3-2.1-4.4s-1.1-2.8-1.6-4.1c-.2-.6-.5-1.2-.7-1.8s-.4-1.1-.5-1.7c-.3-1-.6-2-.9-2.7l-.8-2.4s.3.8.9 2.3c.3.7.6 1.6 1 2.6s.9 2.2 1.4 3.4 1.1 2.6 1.8 4 1.5 2.8 2.2 4.3 1.7 3 2.6 4.5l.7 1.1.8 1.1c.5.7 1 1.4 1.6 2.2.5.7 1.1 1.4 1.7 2.1s1.1 1.4 1.8 2c.6.6 1.2 1.2 1.9 1.8.7.5 1.3 1 2 1.6l.5.4.5.3c.3.2.7.4 1 .6s.7.4 1 .6c.4.2.7.3 1 .5s.7.3 1 .5c.3.1.7.2 1 .4.7.2 1.3.5 2 .6 1.3.3 2.5.5 3.6.7 1.1.1 2 .2 2.8.2 1.5.2 2.4.3 2.4.3"/><path fill="#ffe7ab" d="M94 94.3c3.6-10.4 25.2 8.3 25.8 26.4S81.9 129.5 94 94.3"/><path fill="#ffd878" d="m94.6 92.9.3-.3c.2-.2.5-.4 1-.7.4-.3 1-.5 1.7-.6q1.05-.15 2.4 0c1.7.4 3.6 1.3 5.3 2.5.9.6 1.8 1.3 2.6 2 .4.3.9.8 1.3 1.1l1.2 1.2c.4.4.8.9 1.1 1.3.4.4.7.9 1 1.4.7.9 1.2 1.9 1.8 2.8 1.1 1.9 1.9 3.7 2.6 5.3 1.3 3.2 1.8 5.4 1.8 5.4l-.6-1.5c-.2-.5-.4-1-.7-1.7-.3-.6-.6-1.3-1-2.1-.7-1.5-1.6-3.3-2.8-5.1q-.75-1.35-1.8-2.7c-.3-.5-.7-.9-1-1.3s-.7-.9-1.1-1.3l-1.2-1.2c-.4-.4-.8-.8-1.2-1.1-.8-.7-1.7-1.4-2.5-2s-1.7-1.2-2.5-1.6-1.7-.8-2.5-1-1.6-.2-2.2-.2c-.7.1-1.2.3-1.7.5l-1 .5c-.1.3-.3.4-.3.4M92.5 99.9s-.1.5-.1 1.4c-.1.9-.2 2.1-.2 3.6v2.4c0 .8.1 1.7.2 2.6s.2 1.9.4 2.8.5 1.9.7 2.8c.3.9.6 1.8 1.1 2.7.4.9.9 1.7 1.4 2.5q.75 1.2 1.5 2.1c.6.6 1.1 1.2 1.6 1.7s1 .9 1.5 1.4c.4.4.9.7 1.2 1 .7.5 1.1.8 1.1.8s-.4-.3-1.2-.7c-.4-.2-.8-.5-1.3-.9s-1-.8-1.6-1.3-1.1-1.1-1.7-1.7c-.5-.7-1.2-1.3-1.7-2.1s-1.1-1.6-1.5-2.5c-.5-.9-.8-1.8-1.2-2.8-.3-1-.6-1.9-.7-2.9-.2-1-.3-1.9-.4-2.9 0-.9-.1-1.8-.1-2.7s.1-1.7.1-2.4c.1-1.5.4-2.7.5-3.6.2-.9.4-1.3.4-1.3"/><path fill="#ffe7ab" d="M93.1 82.5c2.7-16.8 20.7-54.2 46.5-65.2 0 0-14.4 69.6-26.1 81.6s-24.3 7.8-20.4-16.4"/><path fill="#ffd878" d="M92.4 89.7v-1c0-.7 0-1.6.2-2.9.1-1.2.4-2.7.7-4.4.4-1.7.8-3.6 1.4-5.6 1.2-4.1 2.9-8.7 5-13.5s4.7-9.9 7.6-14.7c1.5-2.4 3-4.8 4.7-7 1.6-2.3 3.3-4.4 5-6.4s3.5-3.9 5.3-5.5c.9-.8 1.7-1.6 2.6-2.4.4-.4.9-.7 1.3-1.1.4-.3.9-.7 1.3-1 .8-.7 1.6-1.3 2.5-1.8.8-.5 1.6-1.1 2.3-1.5s1.4-.9 2.1-1.2q1.05-.45 1.8-.9c1.1-.6 2-.9 2.6-1.1.6-.3.9-.4.9-.4s-.3.1-.9.4-1.5.6-2.6 1.2c-.5.3-1.1.6-1.8 1-.6.4-1.3.8-2 1.3-.7.4-1.5 1-2.2 1.5l-1.2.9c-.4.3-.8.6-1.2 1-.4.3-.8.7-1.3 1-.4.4-.8.7-1.2 1.1-.9.7-1.7 1.6-2.6 2.4-1.7 1.7-3.4 3.6-5.1 5.6s-3.4 4.2-4.9 6.4c-1.6 2.2-3.1 4.6-4.6 7-5.8 9.6-10.3 20-12.9 28-.6 2-1.2 3.9-1.6 5.5-.4 1.7-.7 3.1-.9 4.3s-.3 2.2-.3 2.8zM99 105h2.1c.7 0 1.5 0 2.4-.2.5 0 .9-.2 1.4-.3s1-.3 1.5-.5c.3-.1.5-.2.8-.3s.5-.3.8-.5.5-.3.8-.5c.2-.2.5-.4.7-.6.3-.2.5-.4.8-.6s.5-.5.7-.7c.5-.5 1-.9 1.4-1.5s.9-1.1 1.3-1.7c.5-.6.8-1.2 1.2-1.8.9-1.2 1.5-2.6 2.3-3.9l.6-1 .5-1c.3-.7.7-1.4 1-2 .7-1.3 1.2-2.7 1.7-4 .3-.7.5-1.3.8-1.9.2-.6.5-1.3.7-1.9.5-1.2.9-2.4 1.3-3.5 1.5-4.3 2.5-7.2 2.5-7.2s-.2.7-.5 2c-.2.6-.4 1.4-.6 2.3-.3.9-.5 1.9-.9 3s-.8 2.3-1.2 3.5c-.2.6-.4 1.3-.6 1.9-.3.6-.5 1.3-.8 2-.6 1.3-1 2.7-1.7 4.1-.3.7-.6 1.4-1 2.1l-.5 1-.6 1c-.8 1.3-1.5 2.7-2.4 3.9-.4.6-.8 1.3-1.3 1.9s-.9 1.1-1.4 1.7c-.4.6-1 1-1.5 1.5-.3.2-.5.5-.8.7s-.5.4-.8.6-.5.4-.8.6-.6.3-.8.5c-.3.2-.5.3-.8.4s-.6.2-.8.3c-.5.2-1.1.4-1.6.5s-1 .2-1.5.2c-.9.1-1.8.1-2.4 0-1.2 0-2-.1-2-.1"/><path fill="#c68652" d="M73.7 197.3c7.1-11.2 21.5-54 8.7-58.8-12.8-4.9-27 13.1-26.5 50 .3 27 13.5 15.6 17.8 8.8"/><path fill="#8c5734" d="M56.6 174s-.2 1.5-.3 3.9c-.1 1.2-.2 2.5-.2 4-.1 1.4-.1 3-.1 4.5v2.3c0 .8 0 1.5.1 2.2s.1 1.4.2 2.1.1 1.3.2 1.9.2 1.1.2 1.6c.1.5.2.9.2 1.2.1.7.2 1.1.2 1.1s-.1-.4-.3-1c-.2-.7-.5-1.6-.7-2.7-.1-.6-.2-1.2-.3-1.9l-.3-2.1c-.1-.7-.1-1.5-.2-2.2-.1-.8 0-1.5-.1-2.3 0-1.6.1-3.1.2-4.6s.3-2.8.4-4c.4-2.5.8-4 .8-4M87.5 149.1v1.8c0 1.1-.1 2.7-.3 4.6s-.4 4.1-.8 6.5c-.2 1.2-.4 2.4-.7 3.6-.2 1.2-.5 2.5-.8 3.7s-.6 2.5-1 3.7c-.3 1.2-.7 2.4-1.1 3.5-.3 1.2-.8 2.2-1.2 3.3-.4 1-.8 2-1.1 2.9-.4.9-.7 1.7-1 2.4q-.45 1.05-.9 1.8l-.8 1.6s.2-.6.7-1.6c.2-.5.5-1.1.8-1.9q.45-1.05.9-2.4c.4-.9.7-1.9 1-2.9s.7-2.1 1.1-3.3c.3-1.1.7-2.3 1-3.5s.7-2.4.9-3.7c.3-1.2.6-2.5.9-3.7s.5-2.4.7-3.6c.4-2.4.8-4.6 1-6.5.6-3.7.7-6.3.7-6.3"/><path fill="#c68652" d="M55.5 192c-5.3 2.3-8.5 6.6-14.6 16.1-4 6.2-9.4 17.9-14.9 26.7-2.6 4.1-.8 5.8.4 7 3.3 3.1 4.8-2.5 9.8-7.5 9-8.8 15-14.7 21.6-20.4 15.9-13.7 17.8-18 12.6-21.4s-9.6-2.8-14.9-.5"/><path fill="#8c5734" d="M58.1 191.1s-.4 0-1.1.3c-.3.1-.7.3-1.2.5s-.9.5-1.5.9c-.5.4-1.1.7-1.6 1.2-.3.2-.6.5-.8.7-.3.3-.6.5-.8.8-.6.5-1.1 1.1-1.7 1.7s-1.1 1.2-1.6 1.8c-.6.6-1.1 1.3-1.6 1.9s-1 1.3-1.5 1.9-.9 1.2-1.3 1.8-.8 1.1-1.2 1.7c-.4.5-.7 1-1 1.4s-.5.8-.7 1.1c-.4.6-.6 1-.6 1l.5-1q.3-.45.6-1.2c.3-.4.5-1 .8-1.5s.7-1.1 1.1-1.7.8-1.3 1.3-1.9.9-1.3 1.4-2c.5-.6 1-1.3 1.6-2 .6-.6 1.1-1.3 1.7-1.8.6-.6 1.2-1.2 1.8-1.7.3-.3.6-.5.9-.8.3-.2.6-.5.9-.7.6-.4 1.2-.8 1.7-1.1.6-.3 1.1-.6 1.5-.8.5-.2.9-.3 1.3-.4.7-.1 1.1-.1 1.1-.1M64 208.4s-1.4 1.3-3.4 3.1c-1 .9-2.2 2-3.5 3.2s-2.6 2.4-4 3.7c-1.4 1.2-2.7 2.5-4 3.7s-2.4 2.3-3.5 3.2c-2 1.9-3.4 3.2-3.4 3.2s.3-.3.8-1c.5-.6 1.3-1.5 2.3-2.5s2.1-2.2 3.3-3.4 2.6-2.5 3.9-3.8c1.4-1.2 2.8-2.5 4.1-3.6s2.6-2.2 3.6-3.1c2.3-1.6 3.8-2.7 3.8-2.7"/><path fill="#c68652" d="M30.6 240.5c-.2 2.3-4.6 9.1-4.7 12.3s-.4 6.5-2.5 6.6-4.2-4.8-4.5-6.5c-.8-4.2 1.4-6 1.2-13.4-.1-1.8-.3-3.9 1.8-5.2 2.2-1.3 9.3.2 8.7 6.2"/><path fill="#f29c11" d="M18.9 252.9c-.8-4.2 1.4-6 1.2-13.4-.1-1.8-.3-3.9 1.8-5.2.6-.4 1.6-.5 2.7-.4-2.7 4-2.6 11-2.6 15.6 0 5 2.3 6.2 3.6 6.3-.3 2-.8 3.6-2.2 3.6-2.1 0-4.2-4.8-4.5-6.5"/><path fill="#e17522" d="M23.4 259.4h-.3c-.2 0-.5-.1-.9-.4-.7-.5-1.5-1.4-2.2-2.7-.3-.7-.6-1.4-.8-2.2s-.5-1.6-.6-2.5-.2-1.9 0-2.8c.1-1 .4-1.9.6-2.8.4-1.8.8-3.7.8-5.5 0-.9-.1-1.7-.1-2.6s.3-1.6.6-2.3.8-1.2 1.4-1.5c.5-.3 1.1-.3 1.5-.3h1.3-1.3c-.4 0-.9.1-1.4.4s-.9.8-1.2 1.4-.5 1.4-.5 2.2.2 1.7.2 2.6c0 1.8-.3 3.7-.7 5.6-.2.9-.4 1.9-.6 2.8q-.3 1.35 0 2.7c.1.9.3 1.7.5 2.5s.4 1.5.7 2.2c.5 1.3 1.2 2.3 1.9 2.8.3.2.6.4.8.4z"/><path fill="#8c5734" d="M25.7 254.6s-.1-.8-.1-1.9c0-.6.1-1.2.3-1.9.1-.7.5-1.5.8-2.1.7-1.3 1.4-2.7 1.9-3.6.5-1 .9-1.7.9-1.7s-.2.7-.6 1.8-1 2.5-1.7 3.8c-.2.3-.4.6-.5 1-.1.3-.3.7-.4 1-.2.7-.3 1.3-.4 1.8-.1 1-.2 1.8-.2 1.8"/><path fill="#e17522" d="M25.6 255.7h-.4c-.1 0-.3 0-.5-.1-.2 0-.4-.1-.6-.2-.4-.2-.8-.5-1.2-1-.2-.2-.3-.5-.5-.7-.1-.3-.2-.5-.3-.8s-.1-.6-.2-.8c-.1-.3-.1-.6-.1-.8-.1-.5 0-1 0-1.5 0-.4.1-.8.1-1s.1-.4.1-.4.1.6.2 1.4c.1.4.1.9.2 1.4s.2 1 .4 1.5c.1.2.2.5.3.7s.2.5.4.7c.3.4.6.8.9 1 .2.1.3.2.5.3.1.1.3.1.4.2.2.1.3.1.3.1"/><path fill="#f29c11" d="M100.3 122.3c3.3 2.8 12.5 10.6 21.1 29.4s4.1 33.9 1.7 34.8-15.7-7.5-21.3-22.3c-5.6-14.9-7.9-35.4-7.5-38.4.5-2.6 2.7-6.3 6-3.5"/><path fill="#e17522" d="M94.8 124.5s-.1.3-.2.8-.2 1.2-.2 2.2c0 1.9.2 4.6.7 7.8s1.2 6.9 1.9 10.9c.8 4 1.7 8.2 3 12.3 1.2 4.1 2.8 8.2 4.7 11.7 1 1.8 2 3.4 3.2 4.9 1.1 1.5 2.3 2.8 3.4 4q1.65 1.65 3.3 3 1.5 1.2 2.7 2.1c.8.6 1.4.9 1.8 1.2s.7.4.7.4-.2-.1-.7-.4c-.4-.3-1.1-.6-1.8-1.2-.8-.5-1.7-1.2-2.8-2-1-.8-2.2-1.8-3.3-2.9-1.1-1.2-2.3-2.5-3.5-3.9-1.1-1.5-2.2-3.1-3.2-4.9-2-3.6-3.6-7.6-4.8-11.8s-2.1-8.4-2.9-12.4-1.4-7.7-1.9-10.9-.6-5.9-.6-7.8c0-.9.1-1.7.2-2.2.2-.7.3-.9.3-.9M126.3 168.9s-.1-.8-.4-2.3-.7-3.5-1.4-6c-.7-2.4-1.7-5.3-3-8.2s-2.8-5.9-4.5-8.9c-.8-1.5-1.7-3-2.5-4.4-.9-1.4-1.8-2.8-2.7-4.1s-1.9-2.5-2.8-3.7c-.9-1.1-1.8-2.2-2.7-3.1s-1.7-1.8-2.4-2.5l-1.9-1.9c-1.1-1-1.7-1.6-1.7-1.6s.6.6 1.8 1.5c.6.5 1.2 1.1 2 1.8s1.6 1.6 2.5 2.5 1.8 2 2.7 3.1 1.9 2.3 2.8 3.6 1.9 2.7 2.8 4.1 1.8 2.9 2.6 4.4c1.6 3 3.1 6.1 4.4 9s2.2 5.8 2.9 8.2c1.3 5.1 1.5 8.5 1.5 8.5"/><path fill="#f29c11" d="M99.5 126.9c3.1 3.3 11.8 12.4 17.7 32.6s-1.9 34.6-4.7 35.2-15.9-9.7-19.3-25.5-2-36.7-1-39.6c1-2.7 4.2-6 7.3-2.7"/><path fill="#e17522" d="M93 128.3s-.1.2-.3.7-.4 1.2-.6 2.2c-.4 1.9-.6 4.6-.7 8 0 3.3 0 7.2.1 11.3s.4 8.6 1 12.9c.6 4.4 1.6 8.7 3.1 12.5.8 1.9 1.6 3.7 2.6 5.3.5.8 1 1.6 1.5 2.3l1.5 2.1c.5.6 1 1.3 1.5 1.8.5.6 1 1.1 1.4 1.6.9 1 1.8 1.8 2.5 2.4.7.7 1.3 1.1 1.7 1.5.4.3.6.5.6.5s-.2-.2-.6-.5-1-.8-1.8-1.4c-.7-.6-1.6-1.4-2.6-2.3s-2-2-3.1-3.3c-.6-.6-1-1.3-1.6-2.1-.5-.7-1.1-1.5-1.5-2.3q-1.5-2.4-2.7-5.4c-1.6-3.9-2.6-8.2-3.2-12.7-.6-4.4-.8-8.8-.9-13-.1-2.1 0-4.1 0-6s0-3.7.1-5.4c.1-3.3.5-6.1.9-8 .2-.9.5-1.7.7-2.1s.4-.6.4-.6M119.4 177.4s.1-.9 0-2.4c0-1.5-.2-3.7-.5-6.3-.2-1.3-.4-2.7-.7-4.1-.3-1.5-.7-3-1.1-4.5-.9-3.1-2-6.4-3.3-9.6-.6-1.6-1.3-3.2-2-4.8-.4-.8-.7-1.5-1.1-2.3s-.7-1.5-1.1-2.2l-1.2-2.1c-.4-.7-.8-1.3-1.2-2-.8-1.3-1.6-2.4-2.3-3.5-.8-1-1.5-2-2.1-2.8-.7-.8-1.2-1.6-1.7-2.1-1-1.1-1.6-1.8-1.6-1.8l1.7 1.7c.5.5 1.1 1.3 1.8 2 .7.8 1.4 1.7 2.3 2.8.8 1.1 1.6 2.2 2.4 3.5.4.6.8 1.3 1.2 1.9l1.2 2.1c.4.7.8 1.4 1.2 2.2.4.7.8 1.5 1.1 2.3.7 1.6 1.4 3.2 2 4.8 1.2 3.3 2.3 6.6 3.2 9.7.4 1.6.8 3.1 1 4.6q.45 2.25.6 4.2c.3 2.6.3 4.8.3 6.3s-.1 2.4-.1 2.4"/><path fill="#f29c11" d="M75.3 122.6c-3.4 2.7-13 10.1-22.3 28.6s-5.4 33.7-3.1 34.7 16-6.8 22.2-21.5 9.3-35.1 9-38.1c-.3-2.7-2.4-6.4-5.8-3.7"/><path fill="#e17522" d="M80.7 125s.1.3.2.8.1 1.2.1 2.2c0 1.9-.3 4.6-.9 7.8s-1.4 6.9-2.3 10.8c-.9 4-2 8.1-3.4 12.3-1.4 4.1-3.2 8.1-5.3 11.6-1.1 1.7-2.2 3.3-3.4 4.8-1.2 1.4-2.4 2.7-3.6 3.8s-2.4 2-3.4 2.8c-1.1.8-2 1.4-2.8 1.9s-1.5.9-1.9 1.1c-.4.3-.7.4-.7.4s.2-.1.7-.4c.4-.3 1.1-.6 1.9-1.1s1.7-1.2 2.8-2c1-.8 2.2-1.7 3.4-2.8s2.4-2.4 3.6-3.8q1.8-2.1 3.3-4.8c2.1-3.5 3.8-7.5 5.2-11.5 1.4-4.1 2.5-8.3 3.4-12.2s1.7-7.6 2.4-10.8c.6-3.2.9-5.9 1-7.8 0-.9 0-1.7-.1-2.2-.1-.7-.2-.9-.2-.9M47.5 168.1s.4-3.4 2-8.3c.8-2.4 1.9-5.2 3.2-8.1 1.4-2.9 3-5.9 4.8-8.8.9-1.5 1.8-2.9 2.7-4.3 1-1.4 1.9-2.7 2.9-4s2-2.4 3-3.5 1.9-2.1 2.8-3 1.8-1.7 2.5-2.4c.8-.7 1.5-1.3 2-1.7 1.2-.9 1.8-1.4 1.8-1.4s-.7.5-1.8 1.5c-.6.5-1.2 1.1-2 1.8s-1.6 1.5-2.5 2.4-1.8 1.9-2.8 3-2 2.3-2.9 3.5c-1 1.3-1.9 2.6-2.9 4-.9 1.4-1.8 2.8-2.7 4.3-1.7 2.9-3.4 5.9-4.8 8.7-1.4 2.9-2.5 5.6-3.3 8s-1.4 4.5-1.7 5.9c-.2 1.5-.3 2.4-.3 2.4"/><path fill="#f29c11" d="M93.3 129c2.3 4 8.7 15.3 9.8 36.5s-9.6 33.1-12.5 32.9-13.2-13.8-12.9-30 6.4-36.2 8-38.7c1.5-2.4 5.3-4.8 7.6-.7"/><path fill="#e17522" d="M86.7 128.5s-.2.2-.5.6-.7 1.1-1.1 2c-.8 1.8-1.7 4.4-2.4 7.6-.8 3.2-1.6 7-2.4 11.1s-1.6 8.5-2 12.9-.4 8.9.2 12.9c.3 2 .7 4 1.3 5.8s1.2 3.5 1.9 5c.3.8.7 1.5 1 2.1.3.7.7 1.3 1 1.9q1.05 1.8 1.8 3c.5.8 1 1.4 1.3 1.8s.5.6.5.6-.2-.2-.5-.6-.8-1-1.4-1.8-1.3-1.7-2-2.9c-.4-.6-.7-1.2-1.1-1.9s-.7-1.4-1.1-2.1c-1.5-3-2.8-6.7-3.5-10.9s-.7-8.7-.3-13.1c.4-4.5 1.2-8.8 2.1-12.9s1.8-7.9 2.7-11.1c.8-3.2 1.9-5.9 2.7-7.6.4-.9.8-1.5 1.1-2 .5-.2.7-.4.7-.4M101.1 183.4s.3-.8.6-2.3.6-3.7.9-6.3c.1-1.3.2-2.7.2-4.2s0-3.1-.1-4.7c-.2-3.3-.5-6.8-1-10.2-.3-1.7-.5-3.5-.9-5.2-.3-1.7-.7-3.3-1.1-4.9-.2-.8-.4-1.6-.7-2.3-.2-.8-.4-1.5-.7-2.2-.5-1.4-1-2.8-1.4-4-.5-1.2-.9-2.3-1.4-3.3s-.8-1.8-1.2-2.5l-1.1-2.2s.4.8 1.2 2.1c.4.7.8 1.5 1.3 2.5.5.9 1 2.1 1.5 3.3s1.1 2.5 1.6 4q.75 2.1 1.5 4.5c.4 1.6.9 3.3 1.2 5 .4 1.7.7 3.4.9 5.2.5 3.5.7 7 .9 10.3.1 1.7 0 3.3 0 4.8-.1 1.5-.2 2.9-.4 4.3-.3 2.6-.8 4.8-1.2 6.3-.3 1.2-.6 2-.6 2"/><path fill="#f29c11" d="M78 127.2c-3.2 3.3-12.1 12.3-18.3 32.4s1.3 34.6 4.1 35.3 16.1-9.6 19.7-25.3 2.6-36.7 1.6-39.6c-.9-2.8-4-6.1-7.1-2.8"/><path fill="#e17522" d="M84.4 128.6s.1.2.3.7.4 1.2.6 2.2c.4 1.9.8 4.7.8 8v5.4c0 1.9 0 3.9-.1 6-.2 4.2-.4 8.6-1.1 13s-1.8 8.8-3.4 12.6c-.8 1.9-1.8 3.7-2.8 5.3s-2.1 3.1-3.2 4.3c-1.1 1.3-2.1 2.4-3.1 3.3s-1.9 1.7-2.6 2.3-1.4 1-1.8 1.4c-.4.3-.6.5-.6.5s.2-.2.6-.5 1-.8 1.7-1.4 1.6-1.4 2.5-2.4c.5-.5 1-1 1.5-1.6.5-.5 1-1.2 1.5-1.8 1-1.3 2.1-2.7 3.1-4.4 1-1.6 1.9-3.4 2.7-5.3 1.6-3.8 2.6-8.1 3.3-12.5s1-8.8 1.2-12.9.3-8 .3-11.3-.2-6.1-.5-8c-.2-1-.4-1.7-.5-2.2-.2-.5-.4-.7-.4-.7M57.2 177.5s-.1-.9-.1-2.4 0-3.7.4-6.3c.2-1.3.4-2.7.7-4.2s.7-3 1.1-4.6c1-3.1 2.1-6.4 3.4-9.7l2.1-4.8c.4-.8.8-1.5 1.2-2.3s.8-1.5 1.2-2.2l1.2-2.1c.4-.7.8-1.3 1.3-1.9.8-1.3 1.7-2.4 2.5-3.4s1.6-2 2.3-2.7c.7-.8 1.3-1.5 1.9-2l1.7-1.7s-.6.7-1.6 1.8q-.75.9-1.8 2.1c-.7.8-1.4 1.8-2.2 2.8-.7 1.1-1.6 2.2-2.4 3.5-.4.6-.8 1.3-1.2 2l-1.2 2.1c-.4.7-.8 1.4-1.2 2.2-.4.7-.8 1.5-1.1 2.3-.7 1.5-1.4 3.1-2.1 4.7-1.3 3.2-2.5 6.5-3.4 9.6-.4 1.6-.9 3.1-1.2 4.5-.3 1.5-.6 2.8-.8 4.1-.4 2.6-.6 4.7-.7 6.3z"/><path fill="#e17522" d="M106.8 127s-10.1 3.1-18.8 2.5-17.2-3.5-17.2-3.5-.7.5-.4 1.2c.2.6 11.8 3.7 21.1 3.6 9.4-.1 15.4-2.4 15.4-2.4s.3-1.3-.1-1.4"/><path fill="#cf5619" d="M106.8 128.4s-2.1.9-5.6 1.7c-.9.2-1.8.4-2.8.5-1 .2-2 .3-3.1.4s-2.2.1-3.4.2c-1.1 0-2.3 0-3.5-.1s-2.3-.2-3.5-.3c-1.1-.1-2.3-.3-3.3-.4-2.2-.3-4.1-.7-5.8-1.1s-3.1-.8-4-1.2c-1-.3-1.5-.6-1.5-.6s.5.2 1.5.5 2.4.6 4.1.9 3.7.6 5.8.9c1.1.1 2.2.3 3.3.4s2.3.2 3.4.3 2.3.1 3.4.1 2.2 0 3.3-.1c2.2-.2 4.2-.4 5.9-.7 3.6-.7 5.8-1.4 5.8-1.4"/><path fill="#c68652" d="M104.5 93.3c-2.9-3.4-2.6-8.8 8-20.8s19-22.2 22.5-17.2c2.6 3.7-11.5 29.4-25.5 39.9-2.8 2-3.4 0-5-1.9"/><path fill="#8c5734" d="M102.8 90.1s0-.1-.1-.3c0-.2-.1-.5-.1-.9s.1-.9.2-1.4.2-1.1.5-1.8c.2-.6.5-1.3.8-2s.7-1.4 1.1-2.2c.4-.7.9-1.5 1.4-2.2s1-1.5 1.5-2.2c.6-.7 1.1-1.4 1.6-2.1.6-.7 1.1-1.3 1.7-2 .5-.7 1.1-1.2 1.6-1.8s1-1.1 1.5-1.6c.9-.9 1.8-1.7 2.3-2.2.6-.5.9-.8.9-.8s-1.2 1.4-3 3.3c-.9 1-1.9 2.2-3 3.5-.5.6-1.1 1.3-1.6 2s-1.1 1.4-1.6 2.1l-1.5 2.1c-.5.7-.9 1.5-1.4 2.1l-1.2 2.1c-.4.7-.7 1.3-.9 1.9l-.3.9c-.1.3-.2.6-.3.8-.1.5-.2 1-.3 1.4v.9c.2.3.2.4.2.4M118.7 86.1s1-1.2 2.5-3.1c.8-.9 1.6-2.1 2.5-3.3s1.8-2.5 2.7-3.8 1.8-2.7 2.5-3.9c.8-1.3 1.5-2.5 2-3.5.3-.5.5-1 .8-1.4.2-.4.4-.8.6-1.1l.5-1s-.1.4-.4 1c-.2.7-.6 1.6-1.1 2.7-.2.6-.5 1.1-.9 1.8-.3.6-.6 1.3-1 1.9-.7 1.3-1.6 2.7-2.5 4s-1.9 2.6-2.8 3.8-1.8 2.3-2.6 3.2-1.5 1.6-2 2.1c-.5.3-.8.6-.8.6"/><path fill="#c68652" d="M125.4 60.1c1.9-5 19-30.5 23.2-32.4 6.7-3-8.3 26.8-11.5 30.8-5.4 6.8-13.5 6.4-11.7 1.6"/><path fill="#8c5734" d="M136.3 59.4s.3-.4.7-1c.5-.7 1.1-1.6 1.8-2.8s1.5-2.6 2.3-4.1 1.6-3.2 2.4-4.8c.8-1.7 1.6-3.3 2.2-4.9.7-1.6 1.3-3.1 1.9-4.3 1.1-2.5 1.8-4.2 1.8-4.2s-.1.4-.4 1.2-.6 1.9-1.1 3.2-1 2.8-1.7 4.4-1.4 3.3-2.2 5-1.6 3.3-2.5 4.8c-.8 1.5-1.7 2.9-2.5 4-.8 1.2-1.5 2.1-2 2.7-.3.5-.7.8-.7.8M127.2 56.5s.8-1.5 2.1-3.6c.6-1.1 1.4-2.3 2.2-3.6.9-1.3 1.8-2.7 2.7-4.1 1-1.4 1.9-2.7 2.8-4s1.8-2.4 2.6-3.4c1.5-2 2.6-3.3 2.6-3.3s-.9 1.4-2.3 3.5-3.3 4.8-5.1 7.6c-1.9 2.8-3.7 5.5-5.1 7.6-1.5 1.9-2.5 3.3-2.5 3.3"/><path fill="#c68652" d="M157.6 26.7c-1.7 1.7-6.1 4.5-8.5 4.5s-2.5-2.3-2-4.4c.4-2.2 4.9-11.9 5.5-9.8.5 2.2-2 6.6 0 4.4.6-.7 1.5-1.6 2.6-3.2 3-4.1 3.3-4.4 3.9-4.3.3.1-3.4 7.5-3.8 8.1 4.5-5.6 6.2-7.3 6.5-7.2.6.3-4.3 7.6-4.1 7.5 4.9-3.9 5.6-4.3 6-4.2.6.2-3.6 4.4-5.5 6 1.7-.6 4.8-2.4 5.2-2.2.9.3-5.8 4.8-5.8 4.8"/><path fill="#8c5734" d="M155.3 21.9s.1-.5.4-1.3q.45-1.2 1.2-2.7c.5-1 1-1.9 1.4-2.6s.8-1.1.8-1.1-.1.5-.4 1.3q-.45 1.2-1.2 2.7c-.5 1-1 1.9-1.4 2.6-.5.6-.8 1.1-.8 1.1M157.2 22.8s.3-.5.7-1.2 1-1.6 1.6-2.6 1.1-1.9 1.6-2.6c.2-.4.4-.7.5-.9s.2-.3.2-.3-.1.6-.4 1.4-.8 1.8-1.4 2.8-1.3 1.9-1.9 2.5c-.5.6-.9.9-.9.9M157.9 24.3s.1-.1.3-.2l.7-.7c.6-.6 1.3-1.3 2.1-2s1.5-1.5 2-2.1.8-1 .8-1-.2.5-.7 1.1c-.5.7-1.2 1.4-1.9 2.2-.8.7-1.5 1.4-2.2 1.9-.6.5-1 .8-1.1.8M149.9 31s.6-.2 1.3-.6c.8-.4 1.8-1 2.8-1.6s2-1.3 2.7-1.7c.7-.5 1.3-.8 1.3-.8l-.3.3c-.2.2-.4.5-.8.8-.6.6-1.6 1.3-2.6 2-1 .6-2.1 1.1-3 1.4-.4.1-.8.2-1.1.2-.1.1-.3 0-.3 0M152.5 17s.2.3.2.9c.1.5 0 1.3-.1 2s-.4 1.4-.6 1.9-.4.8-.4.8v-.9c0-.5.2-1.2.3-1.9s.3-1.4.4-1.9c.1-.3.1-.5.1-.6zM152.2 26.9v-2c0-.5 0-.9-.1-1.3s-.1-.6-.1-.6.2.1.5.5c.2.3.4.9.4 1.4s-.1 1.1-.3 1.4c-.2.4-.4.6-.4.6"/><path fill="#c68652" d="M83.7 70.5c-.1 4.8-.4 10.1-3 11.1S68 84.4 67.2 87.4c-4.4 17.6 4.5 35.5 35.9 24.5 12.8-4.5 10-26 4.2-27.3-10.8-2.4-9.3-1.4-9.9-7.2-.9-9.5-13.6-12.5-13.7-6.9"/><path fill="#8c5734" d="M83.6 71.3s.1 1 .1 2.6c0 .8-.1 1.7-.2 2.7s-.3 2-.7 3c-.2.5-.5 1-.9 1.4-.2.2-.5.4-.7.5s-.4.2-.7.3c-.9.4-1.8.7-2.5.9-1.5.4-2.6.3-2.6.3s.3-.1.7-.2q.6-.15 1.8-.6c.7-.3 1.5-.6 2.4-1 .4-.2.9-.4 1.2-.7s.6-.7.8-1.2c.4-.9.6-1.9.8-2.9.2-.9.3-1.8.3-2.6.1-1.5.2-2.5.2-2.5M97.5 79.9s.1.3.1.7c.1.4.1.9.2 1.4s.2 1 .3 1.4c.1.2.1.4.1.5s.1.2.1.2-.3-.1-.5-.5c-.3-.3-.5-.9-.6-1.5s0-1.1.1-1.6z"/><path fill="#8c5734" d="M102.7 83.5s-.4.1-.9.1c-.6 0-1.3-.1-2.1-.4-.4-.1-.7-.3-1-.5s-.6-.5-.7-.7c-.2-.2-.3-.5-.4-.6l-.1-.2.2.2c.1.1.3.3.5.4s.5.3.8.5c.3.1.6.3 1 .4.7.3 1.4.5 1.9.6s.8.2.8.2"/><path fill="#ffc943" d="M68.4 105.5c1.8 1.2 6.2 2.6 7.7-2.3 3-9.7-2-20-2-20 1.7-.6 3.9-.9 3.9-.9 1.9 3.7 2.9 8.3 3.6 12.8 0 0 5.3.3 9.3 2.5 3 1.6 5.1 4.5 5.1 4.5s1.8-3.3 4.4-5c2.7-1.7 4.6-1.7 4.6-1.7 0-3.4-1.9-8.1-3.4-12 0 0 1.9-.6 3.1 0 0 0 4.9 15.2 6.4 21.6 2.1 9.3-4.7 22.7-4.7 22.7s-15.5 7.1-36-1.3z"/><path fill="#e38d32" d="M107.1 126.1s.8-2 1.8-5q.75-2.25 1.5-5.1c.2-.9.5-1.9.7-2.9s.3-2 .2-3.1c-.1-2.1-.4-4.1-.8-6.1-.4-1.9-.8-3.7-1.2-5.2s-.7-2.8-.9-3.7c-.1-.4-.2-.8-.2-1v-.4.4c.1.2.2.6.3 1l1.2 3.6c.4 1.5 1 3.3 1.4 5.2s.8 4 .9 6.2c0 .5 0 1.1-.1 1.6s-.1 1.1-.2 1.6c-.2 1-.4 2-.7 3-.5 1.9-1.2 3.6-1.7 5.1-1.3 2.9-2.2 4.8-2.2 4.8"/><g fill="#f29c11"><path d="M98.5 108.7s-.4-.1-1-.3-1.4-.6-2.1-1c-.8-.4-1.5-.8-2-1.2s-.9-.7-.9-.7.4.1 1 .3 1.4.6 2.1 1c.8.4 1.5.8 2 1.2.6.4.9.7.9.7"/><path d="M98.8 105.2s-.3.3-.8.7-1.2.9-1.9 1.3-1.5.8-2 1.1c-.6.3-1 .4-1 .4s.3-.3.8-.7 1.2-.9 1.9-1.3 1.5-.8 2-1.1c.6-.2 1-.4 1-.4"/></g><g fill="#f29c11"><path d="M98 115.4s-.4-.1-1-.3-1.4-.6-2.1-1c-.8-.4-1.5-.8-2-1.2s-.9-.7-.9-.7.4.1 1 .3 1.4.6 2.1 1c.8.4 1.5.8 2 1.2.6.4.9.7.9.7"/><path d="M98.3 111.9s-.3.3-.8.7-1.2.9-1.9 1.3-1.5.8-2 1.1c-.6.3-1 .4-1 .4s.3-.3.8-.7 1.2-.9 1.9-1.3 1.5-.8 2-1.1c.6-.2 1-.4 1-.4"/></g><path fill="#c68652" d="M73.3 85.4c-3.5-2.3-9.1 2.1-14.7 18.1s-10.7 29-4.7 29.7c5.7.6 29.5-40.9 19.4-47.8"/><path fill="#8c5734" d="M69.6 85.4s-.1 0-.3.1-.5.3-.8.5-.7.6-1.1 1-.8.9-1.2 1.4-.9 1.2-1.3 1.8c-.4.7-.8 1.4-1.3 2.2-.4.8-.9 1.6-1.2 2.4-.4.8-.8 1.7-1.2 2.5-.4.9-.7 1.7-1.1 2.6-.3.9-.7 1.7-1 2.5l-.9 2.4c-.3.8-.5 1.5-.8 2.1-.9 2.7-1.5 4.4-1.5 4.4s.1-.5.3-1.2q.3-1.2.9-3.3c.2-.7.4-1.4.7-2.2.2-.8.5-1.6.8-2.4s.6-1.7.9-2.5c.4-.9.7-1.7 1.1-2.6s.8-1.7 1.2-2.5.9-1.6 1.3-2.4c.5-.8.9-1.5 1.4-2.1.5-.7.9-1.3 1.4-1.8.4-.6.9-1 1.4-1.4q.6-.6 1.2-.9c.7-.5 1.1-.6 1.1-.6M61.3 126.1s.2-.4.6-1c.2-.3.5-.7.7-1.1q.45-.6.9-1.5c.7-1.1 1.4-2.3 2.2-3.7s1.6-2.9 2.3-4.4q1.2-2.25 2.1-4.5c.6-1.4 1.3-2.8 1.7-4 1-2.3 1.6-3.9 1.6-3.9s-.4 1.6-1.2 4c-.4 1.2-.9 2.6-1.6 4q-.9 2.25-2.1 4.5c-.8 1.5-1.6 3-2.4 4.4-.4.7-.8 1.3-1.2 1.9s-.8 1.2-1.2 1.7c-.7 1-1.4 1.9-1.9 2.4-.2.9-.5 1.2-.5 1.2"/><path fill="#c68652" d="M53.7 121.7c-3.6 4.3-18.1 33.1-17.8 38 .5 7.7 19.8-21.4 21.8-26.4 3.6-8.4-.6-15.7-4-11.6"/><path fill="#8c5734" d="M58.1 132.3s-.1.5-.4 1.2c-.3.8-.8 1.9-1.4 3.2-.7 1.3-1.5 2.8-2.4 4.3s-2 3.2-3.1 4.7c-1.1 1.6-2.3 3.1-3.4 4.6-1.1 1.4-2.2 2.7-3.1 3.8s-1.8 2-2.3 2.6c-.6.6-.9 1-.9 1s1.2-1.5 2.9-3.8c.9-1.1 1.9-2.5 3-3.9s2.2-3 3.3-4.6 2.2-3.2 3.1-4.7c1-1.5 1.9-2.9 2.6-4.2s1.3-2.3 1.6-3.1c.3-.7.5-1.1.5-1.1M51.5 125s-.8 1.6-1.9 4c-1.2 2.4-2.8 5.6-4.3 8.8-.8 1.6-1.6 3.2-2.3 4.7-.8 1.5-1.5 2.9-2.1 4.1-1.2 2.4-2.1 3.9-2.1 3.9s.7-1.7 1.7-4.1c.5-1.2 1.2-2.6 1.9-4.1s1.5-3.1 2.3-4.7 1.6-3.2 2.4-4.6c.8-1.5 1.5-2.8 2.2-4 1.3-2.5 2.2-4 2.2-4"/><path fill="#c68652" d="M30.2 161.7c1.5-2 5.6-5.5 8-5.7s2.7 2.1 2.5 4.4-3.8 13.1-4.5 10.9 1.4-7.9-.3-5.3c-.5.8-1.5 2.1-2.7 3-2.2 2-5.1 4.1-5.7 4.1-.3 0-.2-.5.2-1.1-1.1.5-1.9.8-2.4.8-1.1-.1.6-3.8 2.4-7-1.1 1.3-2.4 2.2-2.8 2.1-1-.2 5.3-6.2 5.3-6.2"/><path fill="#8c5734" d="M32.4 166.5s-.3.4-.7.9-1 1.2-1.6 1.9-1.2 1.4-1.6 1.9q-.3.45-.6.6l-.2.2s.1-.4.5-1.1c.3-.6.9-1.4 1.5-2.1s1.3-1.3 1.8-1.8c.5-.3.9-.5.9-.5M30.4 165.6s-.3.5-.8 1.1c-.5.7-1.1 1.6-1.8 2.5-.6.9-1.2 1.8-1.7 2.5-.2.3-.4.6-.6.8-.1.2-.2.3-.2.3s.1-.6.5-1.3c.2-.4.4-.8.6-1.3.3-.5.6-.9.9-1.4.6-.9 1.4-1.8 2-2.3.6-.6 1.1-.9 1.1-.9M29.1 164.5s-.1.1-.3.4c-.2.2-.4.5-.6.8s-.5.5-.7.7l-.3.3s0-.2.2-.4c.1-.3.3-.6.5-.8.2-.3.5-.5.7-.7.1-.1.2-.1.3-.2s.2-.1.2-.1M37.4 156.2s-.6.3-1.3.8-1.7 1.2-2.6 2c-.5.4-.9.8-1.3 1.1-.4.4-.8.7-1.2 1-.7.6-1.2 1-1.2 1s.1-.1.2-.3c.2-.2.4-.5.7-.9.6-.7 1.4-1.6 2.4-2.4.9-.8 2-1.5 2.8-1.8.4-.2.8-.3 1-.4.3-.1.5-.1.5-.1M36.2 171.3s-.2-.3-.3-.9c-.1-.5-.1-1.3 0-2s.2-1.4.4-1.9.3-.8.3-.8v.9c0 .5 0 1.2-.1 1.9s-.2 1.4-.2 1.9c0 .3-.1.5-.1.6z"/><path fill="#c68652" d="M104 38.6c4.9 3.3 7.9 12.9 6.5 21 0 0 1.9 5.6 0 10.6s-9.9 15-20 8.5S70 48.1 81.4 39.9s19.4-3.5 22.6-1.3"/><path fill="#8c5734" d="M110.5 59.6s.2.6.4 1.6.5 2.5.5 4.4c0 .9 0 1.9-.3 3-.2 1.1-.6 2.1-1.1 3.2-1.1 2.1-2.5 4.1-4.4 5.7-1.8 1.7-4 3-6.3 3.4-1.1.2-2.3.3-3.3.2-1.1-.1-2-.4-2.9-.7-1.7-.7-3-1.6-3.8-2.2-.4-.3-.7-.6-.9-.8l-.3-.3.3.3c.2.2.6.4 1 .7s1 .7 1.6 1c.6.4 1.4.7 2.2 1 .9.3 1.8.5 2.8.6s2.1 0 3.2-.2c2.2-.5 4.3-1.7 6-3.4 1.7-1.6 3.2-3.6 4.2-5.5.5-1 .9-2 1.1-3s.3-2 .4-2.9c.1-1.8-.1-3.3-.2-4.4 0-1.1-.2-1.7-.2-1.7"/><ellipse cx="17.589" cy="23.53" fill="#3b2919" rx="2.1" ry="1" transform="rotate(-88.17 73.657 1.796)"/><ellipse cx="29.614" cy="23.35" fill="#3b2919" rx="2.1" ry="1" transform="rotate(-88.17 85.682 1.616)"/><path fill="#664228" d="M102.1 62.2s.4.3.8.9c.2.3.5.6.7 1s.5.9.6 1.4c.1.3.1.5.1.8s0 .5-.1.8c-.2.5-.5.9-.8 1.1s-.6.4-.8.4c-.2.1-.3.1-.3.1s.1-.1.3-.2q.3-.15.6-.6c.2-.3.4-.6.5-1s0-.8-.1-1.2q-.15-.6-.6-1.2c-.2-.4-.4-.8-.6-1.1-.2-.7-.3-1.2-.3-1.2M96.3 53.7s-.1-.1-.3-.2-.5-.2-.8-.4c-.3-.1-.7-.2-1.1-.3-.2 0-.4-.1-.6-.1h-.7c-.4 0-.9.2-1.3.3-.2.1-.4.2-.6.2-.2.1-.3.2-.5.3-.3.1-.6.3-.8.4s-.3.2-.3.2.1-.1.2-.3c.2-.1.3-.4.6-.6.3-.3.6-.5 1.1-.7.2-.1.4-.2.7-.3.2-.1.5-.1.8-.2h.8c.3 0 .5.1.7.1.2.1.4.2.6.2.2.1.4.2.5.3.3.2.5.4.7.6.2.4.3.5.3.5M108.4 53.8s-.4-.1-.9-.3c-.6-.1-1.3-.3-2-.3s-1.4.1-2 .3q-.45.15-.6.3c-.2.1-.3.1-.3.1l.2-.2.5-.5c.1-.1.3-.2.4-.3.2-.1.3-.2.5-.2.4-.1.8-.2 1.2-.2s.8.1 1.2.2.7.3 1 .4c.5.4.8.7.8.7"/><path fill="#3b2919" d="m95.4 57.8-.2-.2c-.1-.1-.3-.3-.5-.4-.5-.3-1.1-.6-1.9-.5-.2 0-.4 0-.5.1-.2 0-.4.1-.5.1-.2.1-.3.1-.5.2s-.3.1-.4.2c-.3.1-.5.2-.7.3s-.3.1-.3.1l.2-.2.5-.5q.3-.3.9-.6t1.2-.3c.4 0 .9 0 1.3.2s.7.4.9.7c.4.4.5.8.5.8M108.5 57.4l-.2-.2c-.1-.1-.3-.2-.6-.4-.2-.1-.5-.3-.8-.3-.1 0-.3 0-.5-.1h-.5c-.2 0-.3 0-.5.1s-.3.1-.5.1c-.3.1-.6.2-.8.4q-.45.15-.6.3l-.2.1.2-.2c.1-.1.2-.3.5-.5.2-.2.5-.4.8-.6.2-.1.3-.2.5-.2.2-.1.4-.1.6-.1.4 0 .9 0 1.2.2.4.1.7.4.9.6.4.4.5.8.5.8"/><path fill="#8c5734" d="M85.2 73.4s-.5-.4-1.2-1.1-1.5-1.7-2.2-2.8-1.3-2.3-1.6-3.2c-.2-.5-.2-.9-.3-1.1-.1-.3-.1-.4-.1-.4s.1.1.2.4.3.6.5 1c.5.9 1.1 2 1.8 3 .7 1.1 1.4 2.1 2 2.9s.9 1.3.9 1.3"/><path fill="#c6563f" d="M103.4 72.5s-5.5-.7-10.4-1.4c0 0 1.2 3 5.3 3.4 3.9.3 5.1-2 5.1-2"/><path fill="#e8755d" d="M98.3 74.5c-4.1-.4-5.3-3.4-5.3-3.4 1.9.3 3.9.5 5.6.8.8.8 1.6 1.8 2.1 2.5-.7.1-1.5.1-2.4.1"/><path fill="#fff" d="M102.8 72.4c-.5.3-1.5.3-3.6 0-1.6-.3-2.8-.5-3.8-.9 3.3.4 6.2.8 7.4.9"/><path fill="#9c4431" d="M103.4 72.5s-.1.2-.2.5c-.2.3-.5.7-1 1-.2.2-.5.3-.9.5-.3.1-.7.2-1.1.3s-.8.1-1.2.1-.8-.1-1.2-.1c-.4-.1-.8-.2-1.1-.3-.4-.1-.7-.3-1.1-.4-.7-.3-1.3-.7-1.7-1.2-.4-.4-.7-.9-.8-1.2-.1-.4-.1-.6-.1-.6s.1.2.3.5.5.6 1 1c.2.2.5.3.8.5s.6.3.9.4.7.2 1 .3.8.2 1.1.3c.4.1.7.1 1.1.1h1.1c.3 0 .7-.1 1-.2s.6-.2.8-.3c.5-.3.9-.5 1.1-.8z"/><path fill="#664228" d="M99.9 67s-.3.4-.5.5l-.3.3-.2.2s-.1-.1-.1-.3q0-.3.3-.6c.4-.3.8-.2.8-.1M105.9 40.8s1-8.3-13.3-8.2C81.5 32.7 79 39 79 39s.1-2.9-2.6-3.4c0 0 1.9 1.3 1.5 4.2 0 0-.5-1.2-2.5-1.6 0 0 .3 1.6 1.8 2.9 0 0-5.6 7.6-.8 17.2 0 0 4-.9 5.1.9.1.1 2.1-23.7 24.4-18.4"/><path fill="#402919" d="M77.2 41.2s-.6.9-1.1 2.3c-.3.7-.5 1.6-.8 2.5-.2 1-.3 2-.4 3-.1.5 0 1-.1 1.5 0 .5.1 1 .1 1.5.1.5.1.9.2 1.4 0 .4.2.8.2 1.2.1.4.1.7.2 1s.2.6.2.8c.1.4.2.7.2.7s-.1-.2-.3-.7c-.1-.2-.2-.5-.3-.8s-.2-.6-.4-1c-.1-.4-.3-.8-.4-1.2s-.2-.9-.3-1.4c0-.5-.1-1-.1-1.5v-1.6c.1-1.1.3-2.1.5-3.1.1-.5.3-.9.5-1.4.2-.4.3-.8.5-1.2.3-.7.7-1.2 1-1.6.5-.2.6-.4.6-.4M77.9 39.9s-.2-.1-.4-.3-.5-.4-.8-.6-.6-.4-.8-.5l-.4-.2s.2-.1.5-.1c.2 0 .3 0 .5.1.2 0 .4.2.6.3.4.2.6.6.7.9.1.2.1.4.1.4M79.1 39.1s-.1-.3-.3-.7c-.1-.2-.2-.4-.3-.7-.1-.2-.2-.5-.4-.7-.1-.1-.1-.2-.2-.3l-.3-.3c-.2-.2-.4-.3-.5-.4-.2-.1-.3-.2-.5-.2-.1 0-.2-.1-.2-.1s.1 0 .2-.1c.1 0 .3-.1.6 0 .2 0 .5.1.8.3s.5.4.7.7c.3.6.5 1.2.5 1.7s-.1.8-.1.8M104.9 37.3s-.2-.3-.6-.8c-.2-.2-.5-.5-.9-.8s-.8-.6-1.3-.8c-.5-.3-1.1-.5-1.7-.7-.3-.1-.6-.2-1-.3-.3-.1-.7-.2-1-.3-.7-.2-1.4-.3-2.2-.4-.7-.1-1.4-.2-2.2-.2h-2.3c-.8 0-1.5.1-2.2.2-1.4.2-2.7.4-3.8.8s-2 .7-2.5 1.1c-.6.3-.9.6-.9.6s.2-.3.8-.7c.5-.4 1.4-.9 2.5-1.3.5-.2 1.2-.4 1.8-.6s1.3-.3 2.1-.4c.7-.1 1.5-.2 2.3-.2h2.3c.8 0 1.6.1 2.3.2.8.1 1.5.2 2.2.4.4.1.7.2 1 .3s.7.2 1 .4c.6.3 1.2.6 1.7.9 1 .6 1.7 1.3 2.1 1.9.4.3.5.7.5.7"/><path fill="#c68652" d="M83.4 62c-.6-1.9-2.8-5.2-10-8 0 0 .9 12.8 8 12.7 2.1 0 2.4-3.4 2-4.7"/><path fill="#8c5734" d="M73.4 54s.9.2 2.2.7c.6.2 1.4.6 2.1 1 .4.2.8.4 1.1.7.4.2.8.5 1.1.8.4.3.7.6 1 .9.4.3.6.7.9 1s.5.7.7 1 .4.7.5 1l.3.9c.1.3.1.5.1.7v.6s-.1-.2-.2-.6c-.1-.2-.1-.4-.2-.7-.1-.2-.2-.5-.4-.8l-.6-.9c-.2-.3-.5-.6-.8-.9l-.9-.9c-.3-.3-.7-.6-1-.8-.7-.6-1.4-1-2.1-1.5-.7-.4-1.4-.8-2-1.1-1-.7-1.8-1.1-1.8-1.1"/><path fill="#8c5734" d="M74.7 55.8s.7.2 1.7.7c.5.2 1.1.6 1.7 1 .3.2.6.4.9.7s.6.5.8.8c.1.1.2.3.3.5s.1.3.2.6c.1.4.1.8.1 1.2 0 .7-.1 1.3 0 1.8s.5.7.8.9c.3.1.5.2.5.2s-.2 0-.5-.1c-.2 0-.4-.1-.6-.2q-.3-.15-.6-.6c-.3-.6-.2-1.3-.3-2 0-.3 0-.7-.1-1 0-.1-.1-.3-.2-.5-.1-.1-.2-.3-.3-.4-.2-.3-.5-.5-.7-.8-.3-.2-.5-.5-.8-.7-.5-.4-1.1-.8-1.5-1.1-.8-.6-1.4-1-1.4-1"/><path fill="#8c5734" d="M79.3 59s-.1.2-.3.4-.3.5-.5.8-.3.6-.4.9c-.1.1-.1.2-.2.3 0 .1-.1.1-.1.1s-.1-.2-.1-.5 0-.7.2-1.1.5-.7.8-.8c.4-.2.6-.1.6-.1M82.3 66.3s-.1.1-.4.3c-.3.1-.7.3-1.2.3-.3 0-.6 0-.9-.1s-.6-.1-.9-.3c-.3-.1-.6-.3-.9-.5s-.5-.5-.8-.7c-.2-.3-.4-.6-.7-.8-.2-.3-.4-.6-.5-.9-.3-.6-.6-1.1-.8-1.6s-.3-.9-.4-1.2-.1-.5-.1-.5.4.6.9 1.5c.3.4.6 1 .9 1.5s.8 1.1 1.2 1.5c.2.2.4.5.7.7.2.2.5.4.8.5.3.2.5.3.8.4s.5.1.8.2h.7c.2 0 .4-.1.5-.1.2-.1.3-.2.3-.2"/><path fill="#664228" d="M97.1 36.6c8.7-2.2 12 4.6 13.1 5.9s3.7 1.7 3.7 1.7c-1.2.6-3 .9-3 .9.5.6.8 2.2 1.7 3.7s3.4 1.6 3.4 1.6c-.3.2-.8.2-1.3.2.9.4 1.6.6 1.6.6-.7 1-3.4 1.4-3.4 1.4.1 6.7-2.9 7.7-3.5 7.8 1.7-.4 1.1-8 1.1-8s-.8.1-3.1-1.9-3.1-5.8-3.1-5.8c-.7 2.6.9 3.7.9 3.7-1.3 0-2.8-1.9-2.8-1.9.3.8 1.6 2.2 1.6 2.2-5.2-1.6-6.1-5.3-6.1-5.3-.3 2.4 1.9 4.5 1.9 4.5-5.4-.4-7.1-3.7-7.1-3.7.4 1.7 3 3.5 3 3.5-5.7-1-5.8-4.4-5.9-5.3-.3-.9 0-3.9 7.3-5.8"/><path fill="#664228" d="M90.1 41c2.8 2.4-.3 7.1-2.6 9.5s0 5.2 0 5.2-3.6-.2-3.5-3.3c0 0-.6 4.8 2.5 5.9 0 0-1.1.3-2-.3 0 0 1.1 1.5 2.4 1.6 0 0-2.1 1.2-3.1-.1 0 0 2.1 3.9.1 5 0 0-.4-2.6-2.1-3.6-2.7-1.5-6.3-6.8-2.1-13.5 3-4.7 7.3-9.1 10.4-6.4"/><path fill="#402919" d="M87.5 55.7h-.3c-.2 0-.5 0-.9-.1s-.8-.2-1.2-.5-.7-.7-1-1.1c-.1-.2-.2-.5-.3-.7s-.1-.5-.1-.7c-.1-.5 0-.9 0-1.3s.2-.7.2-.9c.1-.2.1-.3.1-.3v.3c0 .2 0 .5.1.8 0 .2 0 .4.1.6 0 .2.1.4.1.6s.1.4.2.6c0 .2.2.4.3.6s.2.4.3.5c.1.2.3.3.4.4q.45.45.9.6c.3.1.6.2.8.3.2.3.3.3.3.3M87 59.6s-.3.4-1 .6c-.3.1-.7.2-1.2.2-.2 0-.5-.1-.7-.1-.2-.1-.5-.2-.6-.3-.4-.3-.8-.6-1-1-.1-.2-.3-.3-.3-.5-.1-.2-.2-.3-.2-.5-.1-.3-.2-.6-.3-.8s-.1-.3-.1-.3l.2.2c.1.2.3.4.5.6.1.1.2.3.3.4.1.2.3.3.4.4.1.2.3.3.4.4s.3.2.5.4c.2.1.3.2.5.3.2 0 .4.1.5.2.4.1.7.1 1 0 .3 0 .6-.1.8-.1.2-.1.3-.1.3-.1M81.9 60.8s-.6-.2-1.3-.7c-.4-.3-.8-.6-1.1-1.1-.4-.4-.7-1-1-1.5-.2-.6-.4-1.1-.6-1.7-.1-.6-.2-1.1-.2-1.5s0-.8.1-1.1c0-.3.1-.4.1-.4s0 .1.1.4c0 .3.1.6.2 1 0 .2.1.4.1.7.1.2.1.5.2.7l.6 1.5c.2.5.5 1 .8 1.4s.6.8.9 1.1c.6.9 1.1 1.2 1.1 1.2"/><g fill="#402919"><path d="M113.9 44.3s-.3 0-.8-.1-1.2-.2-2-.6c-.4-.2-.8-.5-1.2-.8-.4-.4-.7-.7-1-1.2-.1-.2-.3-.5-.4-.7s-.3-.4-.4-.6c-.3-.4-.7-.8-1.1-1.2s-.8-.7-1.3-1c-.4-.3-.9-.6-1.4-.8s-.9-.4-1.4-.5c-.4-.1-.9-.2-1.3-.3-.4 0-.8-.1-1.1-.1s-.6-.1-.9-.1h-.8s.3 0 .8-.1c.2 0 .5 0 .9-.1h1.2c.4.1.9.1 1.4.2s1 .2 1.5.5c.5.2 1 .5 1.5.8s.9.7 1.4 1c.4.4.8.8 1.1 1.3.2.2.3.5.5.7.1.2.3.5.4.7.5.9 1.1 1.6 1.8 2s1.3.7 1.8.8c.6.1.8.2.8.2M114.2 52.4s-.2.1-.5.2-.7.2-1.3.3h-.9c-.3 0-.7 0-1-.1s-.7-.1-1-.3c-.4-.1-.7-.3-1-.5l-.9-.6c-.3-.2-.5-.5-.8-.7-.2-.3-.4-.5-.6-.8s-.3-.5-.5-.8c-.3-.5-.4-.9-.5-1.2s-.2-.5-.2-.5.1.1.3.4.4.6.7 1c.2.2.3.4.5.7.2.2.4.4.6.7.2.2.5.4.8.6s.6.4.9.5c.6.3 1.2.6 1.8.7.6.2 1.2.2 1.7.3h1.3c.5.2.6.1.6.1M95.6 47.9s-.6.1-1.4 0c-.4-.1-.9-.2-1.4-.4s-1-.5-1.4-.9-.8-.8-1.1-1.3c-.2-.2-.2-.5-.3-.7s-.1-.5-.2-.7c0-.2-.1-.4-.1-.6v-.8s.1.1.1.4c0 .1.1.2.1.4s.1.3.2.5l.3.6c.1.2.2.4.4.6.1.2.3.4.5.6s.4.4.6.5c.2.2.4.3.6.5.2.1.4.3.6.4.4.2.9.4 1.2.6.8.2 1.3.3 1.3.3"/><path d="M99.7 48.1s-.6.1-1.5 0-2.2-.4-3.3-1.1c-.3-.2-.5-.3-.8-.5s-.5-.4-.7-.6l-.6-.6c-.2-.2-.3-.4-.4-.6-.3-.4-.4-.8-.5-1l-.2-.4.3.3c.2.2.4.5.7.8.1.2.3.4.5.5.2.2.4.4.6.5.4.4.9.7 1.4 1s1 .6 1.5.8 1 .4 1.4.5c1 .3 1.6.4 1.6.4M103.9 48.9s-.6 0-1.6-.3c-.9-.3-2.1-1-3-1.9-.2-.2-.4-.5-.6-.8-.2-.2-.3-.5-.5-.8s-.2-.5-.4-.8c-.1-.3-.2-.5-.2-.7-.1-.2-.1-.4-.1-.6v-.9s.1.1.2.4c0 .1.1.3.2.5l.3.6c.1.2.2.4.3.7.1.2.2.5.4.7s.3.5.5.7.4.5.6.7c.4.5.9.8 1.3 1.2.2.2.5.3.7.5.2.1.4.3.6.4.4.2.7.4 1 .5.2-.2.3-.1.3-.1"/><path d="M105.1 48.6s-.3.1-.8 0c-.2-.1-.5-.2-.8-.3-.3-.2-.5-.4-.8-.6q-.75-.75-.9-1.5c-.1-.2-.1-.4-.1-.6v-.2l.2.2c.1.1.2.3.4.4.1.2.3.4.5.6l.6.6c.4.4.8.8 1.2 1 .2.3.5.4.5.4M112.9 44.7s-.4.3-1.1.6c-.3.1-.8.2-1.2.3-.5 0-1 0-1.4-.1-.2 0-.5-.1-.7-.2l-.6-.3c-.2-.1-.4-.3-.5-.4-.2-.1-.3-.3-.4-.4-.3-.2-.4-.5-.6-.7-.1-.2-.2-.3-.2-.3s.1.1.3.2.4.3.7.5c.2.1.3.2.5.3s.4.2.5.3c.4.2.8.3 1.2.4 1.7.3 3.5-.2 3.5-.2"/></g><path fill="#402919" d="M116 50.5s-.2.2-.6.4-.9.4-1.5.4c-.3 0-.6 0-.9-.1s-.5-.2-.7-.3-.3-.3-.4-.4-.1-.2-.1-.2.1 0 .2.1.3.1.5.1c.4.1.9.1 1.4.1s1 0 1.4-.1z"/><path fill="#efcc20" d="M82.5 45.8c-1.7-1.2-3.9-3.3-2.2-4.3 2-1.1 2.8 3 3.1 4.4 0-2 .4-5.8 2.3-4.8s-.6 3.7-1.7 4.9c1.7-1.1 4.7-2.7 5-.6.2 1.9-2.7 1.7-4.5 1.4 1.7 1.2 3.9 3.3 2.2 4.2-1.8 1-2.7-2.4-3.1-4.1-.1 2.1-.6 5.2-2.4 4.2-1.7-.9.2-3.2 1.5-4.5-1.8 1.1-4.6 2.5-4.9.5-.2-1.9 3-1.6 4.7-1.3"/><circle cx="6.501" cy="6.352" r="1.1" fill="#fffffb" transform="rotate(-61.262 78.778 -38.668)"/></g></svg>