<svg xmlns="http://www.w3.org/2000/svg" width="96.716" height="250.417" viewBox="0 0 96.716 250.417"><g stroke-miterlimit="10" data-paper-data="{&quot;isPaintingLayer&quot;:true}" style="mix-blend-mode:normal"><path fill="#8c5f24" d="M19 178.265c-1.82-14.567-3.092-25.36-.941-42.414 1.89-14.985 10.09-29.395 12.218-30.383.135-.065 22.59.695 22.59.695s-.385 22.14-3.109 39.587c-1.795 18.343-4.92 32.213-6.737 36.7-3.74 9.236-8.977 10.812-13.889 10.131-4.51-.625-8.557-1.722-10.131-14.316" data-paper-data="{&quot;origPos&quot;:null,&quot;origRot&quot;:0,&quot;index&quot;:null}"/><path fill="#8c5f24" d="M77.32 177.869c-1.26 12.63-5.28 13.826-9.773 14.562-4.893.802-10.167-.643-14.135-9.784-1.928-4.44-5.395-18.228-7.645-36.522-3.155-17.374-4.089-39.497-4.089-39.497s22.43-1.316 22.567-1.255c2.152.935 10.706 15.138 12.967 30.07 2.573 16.997 1.568 27.818.109 42.426" data-paper-data="{&quot;origPos&quot;:null,&quot;origRot&quot;:0,&quot;index&quot;:null}"/><path fill="#755135" d="M67.126 18.12c.02 6.918 2.986 5.376 3.323 10.057.637 6.409-2.322 6.488-2.167 9.046.156 2.559 3.175 1.266 2.153 7.325-1.157 6.869-10.04 5.854-22.227 6.364-11.967.502-22.252-1.07-22.409-6.252-.758-3.96.954-3.636 1.402-6.2.426-3.804-2.45-3.946-2.24-8.231.439-5.169 2.946-5.806 3.199-10.136C28.61 12.37 33.626.067 47.842 0c13.17-.067 19.265 11.202 19.284 18.12" data-paper-data="{&quot;origPos&quot;:null}"/><g stroke-width="0" data-paper-data="{&quot;origPos&quot;:null}"><g data-paper-data="{&quot;origPos&quot;:null}"><path fill="#edc393" d="M48.217 72.796c-7.208.09-13.465-16.258-13.465-16.258l5.88-1.048.624-7.473 12.735-.193.754 7.329s5.75.982 6.415 1.32c0 0-5.198 16.737-12.943 16.323" data-paper-data="{&quot;origPos&quot;:null}"/><path fill="#b5875c" d="m41.346 47.814 12.735-.194.681 7.54c-3.454.043-11.354-.29-13.878-2.36z" data-paper-data="{&quot;origPos&quot;:null}"/></g><path fill="#edc393" d="M48.117 52.52c-9.976.086-14.864-8.1-16.508-16.777-2.543-.983-4.057-6.011-3.108-7.797 1.049-2.174 2.428-.325 2.393-.86-.264-7.965 2.562-19.789 18.439-19.956 12.961.545 15.096 13.88 14.994 19.689 0 0 1.194-1.042 2.435-.005 1.327 2.169-.897 7.274-3.15 8.158-1.14 9.255-5.162 17.58-15.495 17.547" data-paper-data="{&quot;origPos&quot;:null}"/></g><path fill="none" stroke="#755135" stroke-linecap="round" stroke-width="2" d="M35.53 22.349c2.627-1.423 6.168-.928 8.188.576" data-paper-data="{&quot;origPos&quot;:null,&quot;origRot&quot;:0}"/><path fill="none" stroke="#755135" stroke-linecap="round" stroke-width="2" d="M52.188 23.143c2.02-1.504 5.56-1.999 8.188-.576" data-paper-data="{&quot;origPos&quot;:null,&quot;origRot&quot;:0,&quot;index&quot;:null}"/><g fill="none" stroke="#b5875c" stroke-linecap="round" stroke-width="1.5" data-paper-data="{&quot;origPos&quot;:null}"><path d="M45.1 34.952s1.745-.427 2.11.462M49.317 35.449c.232-.871 1.724-.645 1.724-.645" data-paper-data="{&quot;origPos&quot;:null}"/></g><path fill="#edc393" d="M27.57 82.248c-1.575 4.391-5.595 15.765-6.752 19.409-1.167 2.506-3.23 6.178-7.593 5.426-4.14-.713-4.237-4.889-4.168-7.1.51-1.793 1.592-9.953 2.01-11.969 2.056-9.864 5.173-20.087 12.984-27.834 2.959-2.934 5.208-2.639 7.88-3.018M64.802 57.395c2.671.38 4.92.086 7.878 3.023 7.806 7.752 10.915 17.977 12.964 27.843.417 2.016 1.493 10.176 2.002 11.97.067 2.212-.07 5.595-3.923 6.848-4.603 1.497-6.674-2.675-7.839-5.182-1.154-3.645-5.166-15.021-6.739-19.414" data-paper-data="{&quot;origPos&quot;:null,&quot;origRot&quot;:0,&quot;index&quot;:null}"/><path fill="#cfb8d6" d="M24.442 83.078c-.455-6.348 1.64-25.158 1.64-25.158s6.217-1.425 10.76-2.365c1.885 4.325 6.88 15.355 11.483 15.34 4.58-.015 9.402-10.883 11.39-15.131 1.364.305 10.974 2.301 10.974 2.301s.513 15.31.577 24.212c.054 7.53-3.363 23.685-3.363 23.685s-9.694 5.284-19.761 4.858c-11.364-.481-20.408-5.108-20.408-5.108S25.203 93.7 24.442 83.078" data-paper-data="{&quot;origPos&quot;:null,&quot;origRot&quot;:0}"/><g fill="#755135" data-paper-data="{&quot;origPos&quot;:null}"><path d="M48.457 4.81c1.481-.331 3.045-.376 4.546.059q.897.258 1.692.746c1.596.984 2.023 1.944 2.047 3.607v.358c.001.735.083 1.015.46 1.378.363.35.866.494 2.044.578l.91.051c2.348.119 3.581.48 4.577 1.835.956 1.301.885 2.472.106 3.78l-.23.363-.285.418c-.618.904-.791 1.335-.701 1.884.085.518.372.805 1.255 1.264l.375.19c1.71.855 2.451 1.572 2.451 3.15 0 1.48-.623 2.238-2.048 3.118l-.408.245c-.908.544-1.223.857-1.347 1.411-.043.194.076.292 1.132.621l.213.066c2.135.657 3.024 1.248 2.89 2.925-.102 1.284-.592 1.955-1.594 2.58l-.532.316-.059.037c-.469.298-.719.593-.916 1.193-.138.42.013.724.778 1.387l.5.418c1.563 1.287 2.19 2.11 2.116 3.556-.078 1.522-1.04 2.67-2.504 3.514a9 9 0 0 1-2.247.919 1.09 1.09 0 0 1-.517-2.117l.118-.032c.097-.028.23-.07.39-.127.4-.142.802-.32 1.169-.531.89-.513 1.382-1.102 1.415-1.738.024-.473-.248-.857-1.158-1.624l-.392-.324c-1.644-1.36-2.27-2.357-1.738-3.98.341-1.04.87-1.706 1.647-2.24l.252-.164.404-.239c.563-.33.654-.443.696-.977.013-.16-.182-.299-1.184-.615l-.64-.2c-.702-.227-1.066-.389-1.462-.676-.781-.566-1.129-1.414-.903-2.423.275-1.23.905-1.907 2.142-2.676l.432-.26c.96-.574 1.176-.815 1.176-1.364 0-.45-.193-.662-1.083-1.118l-.37-.186c-1.592-.8-2.362-1.5-2.6-2.946-.195-1.191.102-2.03.898-3.236l.529-.786c.437-.689.463-.961.078-1.486-.456-.62-1.137-.841-2.702-.936l-1.011-.054c-1.836-.115-2.697-.351-3.573-1.194-.834-.803-1.096-1.58-1.125-2.728l-.002-.384c.005-1.105-.108-1.389-1.013-1.947a4.7 4.7 0 0 0-1.155-.507c-1.097-.319-2.31-.284-3.465-.026l-.26.062-.21.057-.21.067a1.09 1.09 0 1 1-.749-2.046l.2-.068c.193-.06.447-.13.755-.199" data-paper-data="{&quot;origPos&quot;:null}"/><path d="M50.33 5.801c1.648-.622 3.375-.83 5.06-.34q.261.075.515.173c1.717.662 2.383 1.551 2.9 3.206l.065.218c.231.786.336.979.67 1.198.267.175.622.18 1.68-.026l.756-.148c1.81-.328 3.131-.156 4.37.976q.49.447.803.96c.64 1.05.674 1.827.365 3.238l-.192.831c-.156.723-.145 1.057.031 1.448.167.368.375.52 1.018.717l.39.112c1.795.505 2.704 1.095 3.191 2.73.445 1.495.119 2.515-.815 3.722l-.287.358c-.452.557-.596.808-.6 1.147l.003.093.03.008c.15.034.383.06.784.088l.196.013c2.242.144 3.355.564 3.773 2.407.314 1.385-.005 2.315-.841 3.248l-.136.147c-.04.042-.187.194-.22.23-.388.406-.478.592-.468 1.115.007.325.156.51.906.945l.496.278c1.662.922 2.472 1.647 2.841 3.116.473 1.88-.358 3.342-1.85 4.221a5.6 5.6 0 0 1-1.698.667 1.525 1.525 0 0 1-.734-2.958l.128-.032c.155-.031.466-.134.755-.305.43-.253.541-.449.44-.85-.085-.34-.323-.586-1.03-1.002l-.515-.291c-1.906-1.056-2.753-1.91-2.789-3.729-.026-1.348.363-2.23 1.154-3.113l.374-.395c.241-.253.28-.285.245-.469l-.014-.064-.055-.015-.132-.028a7 7 0 0 0-.664-.068l-.198-.014c-1.029-.065-1.476-.126-2.057-.368-.988-.41-1.628-1.237-1.748-2.38-.142-1.366.22-2.244 1.097-3.365l.304-.378c.438-.542.51-.693.424-1.028l-.022-.08c-.096-.323-.2-.407-.938-.62l-.408-.116c-1.542-.443-2.48-1.044-3.109-2.437-.533-1.178-.524-2.083-.194-3.527l.138-.585c.155-.684.147-.877.026-1.075a1.4 1.4 0 0 0-.255-.295c-.355-.324-.746-.393-1.583-.259l-.322.057-.365.073c-2.002.405-2.944.419-4.154-.375-1.038-.682-1.456-1.382-1.852-2.658l-.07-.23c-.287-.98-.411-1.159-1.135-1.437a3 3 0 0 0-.269-.091c-.951-.277-2.046-.145-3.131.265-.41.155-.709.305-.845.388a1.525 1.525 0 1 1-1.576-2.612 8.5 8.5 0 0 1 1.343-.63" data-paper-data="{&quot;origPos&quot;:null}"/><path d="M50.226 5.805c1.414-.348 2.896-.429 4.329-.06q.745.19 1.424.544c1.565.822 2.089 1.735 2.383 3.395l.09.533c.114.61.227.828.53 1.083.28.234.644.293 1.623.223l.721-.06c1.984-.163 3.222.096 4.323 1.378.906 1.055 1.126 2.166.824 3.394l-.047.181c-.047.173-.1.332-.19.576l-.164.442c-.372.98-.444 1.403-.28 1.934.142.461.37.668 1.071.971l.356.148c1.651.675 2.44 1.336 2.703 2.93.24 1.47-.18 2.373-1.234 3.442l-.323.317c-.593.576-.783.857-.816 1.314l-.005.109c-.003.097.035.134.686.256l.47.086c2.138.38 3.13.89 3.3 2.652.13 1.35-.27 2.161-1.182 2.962l-.415.346c-.452.38-.603.62-.666 1.206-.044.417.109.669.83 1.214l.478.348c1.516 1.09 2.201 1.867 2.374 3.31.196 1.63-.527 3.002-1.772 4.095a7.2 7.2 0 0 1-1.674 1.113 1.307 1.307 0 0 1-1.204-2.317l.254-.132a5.3 5.3 0 0 0 .9-.63c.658-.577.977-1.182.9-1.818-.05-.424-.283-.73-.994-1.27l-.491-.358c-1.681-1.21-2.383-2.125-2.2-3.833.143-1.337.655-2.15 1.583-2.93l.274-.226c.415-.343.445-.396.403-.829-.007-.071-.112-.133-.848-.273l-.342-.062c-2.273-.404-3.323-.992-3.278-2.97.03-1.299.474-2.092 1.437-3.065l.334-.328c.623-.605.724-.8.64-1.305-.068-.418-.204-.553-.954-.869l-.364-.15c-1.477-.61-2.293-1.269-2.73-2.684-.36-1.169-.245-2.039.239-3.375l.292-.79c.053-.15.082-.247.11-.363.109-.441.06-.682-.268-1.065-.383-.446-.842-.563-1.917-.492l-.515.042c-1.98.176-2.887.087-3.935-.795-.905-.761-1.218-1.473-1.443-2.748l-.04-.242c-.17-1.064-.3-1.311-1.052-1.705a4 4 0 0 0-.86-.328c-.953-.245-2.022-.187-3.052.067l-.261.069c-.197.055-.341.104-.42.135a1.307 1.307 0 0 1-.97-2.427l.218-.08c.207-.073.48-.155.807-.236" data-paper-data="{&quot;origPos&quot;:null}"/></g><g fill="#755135" data-paper-data="{&quot;origPos&quot;:null}"><path d="M41.104 5.651c1.778-.75 3.621-.66 5.349-.08.507.17.895.346 1.139.48a1.525 1.525 0 0 1-1.353 2.731l-.23-.114a5 5 0 0 0-.527-.206c-1.086-.364-2.201-.418-3.192 0a4 4 0 0 0-.458.233l-.224.14c-.467.302-.554.481-.566 1.072l-.001.444c0 1.357-.278 2.284-1.275 3.22-.976.914-1.896 1.16-3.837 1.278l-.786.04c-1.532.076-2.178.243-2.556.684l-.055.068c-.211.28-.238.356-.028.7l.253.387.236.336c.98 1.396 1.368 2.34 1.133 3.737-.26 1.541-1.064 2.307-2.638 3.107l-.697.344c-.586.297-.698.405-.71.574l-.001.037c0 .31.117.438.948.922l.222.129c1.477.862 2.24 1.6 2.568 3.03.28 1.226-.215 2.259-1.215 2.898-.471.3-.885.462-1.694.694l-.833.232a8 8 0 0 0-.693.225l-.128.054.011.016c.048.059.139.112.316.201l.51.25q.08.039.154.077c1.167.6 1.93 1.348 2.368 2.651.479 1.42.038 2.52-1.035 3.524l-.585.512c-.19.164-.363.313-.42.365-.893.811-1.259 1.525-1.223 2.801.025.466.62 1.206 1.662 1.966.443.323.926.623 1.409.887l.328.175.289.142a1.525 1.525 0 0 1-1.27 2.774l-.282-.136q-.225-.112-.532-.28a16 16 0 0 1-1.74-1.098c-1.72-1.255-2.823-2.626-2.911-4.306-.063-2.196.651-3.688 2.035-5.012l.184-.171c.167-.152.73-.63.925-.804l.251-.23c.046-.046.05-.06.041-.09l-.016-.046c-.137-.406-.315-.605-.738-.84l-.134-.07a19 19 0 0 0-.398-.197c-1.43-.697-2.162-1.453-2.291-3.03-.094-1.144.473-2.034 1.428-2.596.45-.266.852-.419 1.591-.631l.956-.268c.227-.066.397-.122.528-.171l.085-.035-.016-.028c-.116-.193-.326-.371-.714-.615l-.526-.312c-1.689-.982-2.466-1.829-2.466-3.56 0-1.717.79-2.525 2.504-3.39l.403-.199c.9-.44 1.125-.64 1.182-.978.054-.321-.039-.606-.423-1.188l-.599-.87-.023-.036c-.972-1.491-1.112-2.89.023-4.396 1.02-1.353 2.234-1.779 4.367-1.93l1.228-.068c1.222-.074 1.702-.193 1.988-.462.244-.229.302-.374.31-.856l.001-.289c-.008-1.896.453-3.027 2.27-4.12q.411-.246.844-.429" data-paper-data="{&quot;origPos&quot;:null}"/><path d="M39.954 4.616c1.65-.55 3.352-.472 4.962-.026.487.134.86.274 1.092.379a1.525 1.525 0 0 1-1.257 2.779 5 5 0 0 0-.648-.219c-1.077-.298-2.196-.349-3.185-.02q-.352.118-.676.3l-.225.132c-.472.292-.581.496-.647 1.118l-.029.318c-.118 1.476-.403 2.324-1.444 3.242-1 .88-1.905 1.088-3.75 1.111l-.801.002c-1.45 0-2.02.144-2.405.618-.283.347-.285.446-.058.921l.081.164.254.468c.803 1.461 1.085 2.417.754 3.781-.36 1.485-1.173 2.218-2.687 2.935l-.702.322c-.59.278-.712.393-.742.61l-.005.048c-.026.3.035.426.528.795l.43.312c1.343.966 2.011 1.763 2.197 3.221.153 1.2-.374 2.17-1.353 2.756-.474.284-.882.428-1.669.624l-.79.19c-.39.096-.62.166-.782.237l-.055.024.007.032c.02.083.08.133.258.243l.547.333c1.107.693 1.786 1.499 2.094 2.866.4 1.777-.28 2.812-1.944 4.107l-.396.302c-.947.716-1.207 1.025-1.219 1.357a3.9 3.9 0 0 0 .543 2.133c.175.301.342.511.439.614l.037.037a1.525 1.525 0 1 1-2.083 2.228c-.29-.27-.665-.719-1.028-1.343a6.93 6.93 0 0 1-.956-3.775c.05-1.443.652-2.28 2.016-3.366l.616-.473c.915-.694 1.057-.893.999-1.152-.096-.425-.233-.616-.615-.871l-.448-.277c-1.292-.784-1.932-1.613-1.92-3.181.01-1.105.592-1.94 1.525-2.455.493-.272.92-.41 1.769-.615l.607-.145c.31-.077.517-.137.666-.192l.073-.029-.013-.042c-.089-.252-.292-.462-.766-.812l-.326-.235c-1.5-1.077-2.171-1.997-2.028-3.704.14-1.673.935-2.433 2.609-3.218l.407-.186c.871-.395 1.103-.589 1.196-.973.093-.385.012-.706-.376-1.433l-.398-.736-.103-.21c-.698-1.459-.66-2.807.446-4.164 1.101-1.352 2.364-1.713 4.506-1.74l.767-.001c1.272-.004 1.734-.091 2.03-.352.28-.248.35-.412.408-1.042l.014-.178c.15-1.879.658-2.955 2.444-3.96a7 7 0 0 1 1.208-.534" data-paper-data="{&quot;origPos&quot;:null}"/><path d="M40.738 4.562c1.798-.726 3.623-.555 5.309.152.547.23.96.465 1.209.637a1.09 1.09 0 0 1-1.241 1.791l-.127-.08a6 6 0 0 0-.684-.338c-1.202-.505-2.46-.622-3.65-.142-.849.343-1.101.615-1.364 1.451l-.097.327c-.374 1.337-.74 2.015-1.757 2.691-1.039.69-1.898.742-3.702.487l-.722-.104c-1.256-.169-1.887-.074-2.444.436-.34.311-.464.554-.484.824-.014.204.013.399.125.811l.124.437c.439 1.49.508 2.361-.007 3.52-.534 1.2-1.328 1.756-2.69 2.206l-.473.148c-1.077.328-1.336.498-1.485 1.024-.143.501-.065.737.44 1.297l.268.29c1.022 1.095 1.448 1.89 1.342 3.212-.14 1.741-1.096 2.21-3.246 2.445l-.259.027c-1.21.12-1.488.23-1.534.45-.09.428-.06.54.278.859l.333.303c.897.821 1.342 1.616 1.355 2.926.015 1.494-.637 2.272-2.187 3.202l-.604.349c-1.125.637-1.518.99-1.645 1.526-.16.682.145 1.327.841 1.953.222.2.463.377.705.527l.208.124.08.043A1.09 1.09 0 1 1 22 42.332a6.8 6.8 0 0 1-1.497-1.033c-1.228-1.104-1.88-2.48-1.505-4.072.3-1.268.995-1.938 2.476-2.799l.415-.237c1.193-.674 1.493-.979 1.488-1.52-.006-.575-.135-.848-.541-1.24l-.107-.101-.238-.216c-.94-.857-1.314-1.667-1.034-3 .318-1.52 1.23-1.93 3.232-2.148l.596-.062c.98-.11 1.153-.207 1.171-.44.042-.517-.1-.82-.64-1.418l-.279-.3c-1.072-1.153-1.464-2.062-1.055-3.501.396-1.396 1.153-1.942 2.735-2.448l.454-.14c.955-.296 1.32-.53 1.564-1.08.23-.517.215-.93-.035-1.822l-.057-.198c-.294-1-.377-1.394-.332-2.019.06-.844.447-1.598 1.185-2.274 1.096-1.005 2.261-1.218 3.96-1.02l.416.054.756.109c1.124.148 1.583.108 2.001-.17.411-.273.576-.513.772-1.144l.096-.328c.47-1.68 1.053-2.522 2.74-3.203" data-paper-data="{&quot;origPos&quot;:null}"/></g><path fill="#d35a13" d="M46.134 39.743a3.75 3.75 0 0 1 2.026.884 3.75 3.75 0 0 1 2.032-.884c1.055.151 2.08.449 3.042.884 0 0-.175 2.745-2.2 3.628-1.62.657-3.367.744-4.987.088-1.269-.587-2.241-1.685-2.961-2.832 0 0 2.032-1.768 3.048-1.768" data-paper-data="{&quot;origPos&quot;:null}"/><path fill="none" stroke="#9a3900" stroke-linecap="round" stroke-width="1.5" d="M53.772 40.824c-2.894 1.494-7.706 1.971-10.898.154" data-paper-data="{&quot;origPos&quot;:null,&quot;origRot&quot;:0,&quot;index&quot;:null}"/><path fill="#fff" d="M38.622 30.675c-2.39-.229-4.167-1.631-3.97-3.132.197-1.5 2.295-2.532 4.685-2.303s4.226 1.745 4.029 3.246-2.353 2.418-4.744 2.189" data-paper-data="{&quot;origPos&quot;:null,&quot;origRot&quot;:0}"/><path fill="#755135" d="M38.102 28.551c-.232-1.546.7-3.103 2.245-3.187 3.814.06 4.319 3.899 1.29 5.027-1.672.616-3.306-.321-3.535-1.84" data-paper-data="{&quot;origPos&quot;:null,&quot;origRot&quot;:0}"/><path fill="none" stroke="#000" stroke-linecap="round" stroke-width="1.5" d="M35.007 26.077c2.627-1.214 6.168-.792 8.188.491" data-paper-data="{&quot;origPos&quot;:null,&quot;origRot&quot;:0}"/><path d="M39.266 27.458c.196-.875.914-1.656 1.773-1.473.86.183 1.5.422 1.524 1.314.04 1.499-1.236 2.257-2.096 2.074s-1.397-1.04-1.201-1.915" data-paper-data="{&quot;origPos&quot;:null,&quot;origRot&quot;:0}"/><path fill="#fff" d="M60.803 27.665c.255 1.549-1.574 2.842-3.956 3.128s-4.512-.695-4.758-2.19 1.484-2.94 3.866-3.225 4.602.792 4.848 2.287" data-paper-data="{&quot;origPos&quot;:null,&quot;origRot&quot;:0}"/><path fill="#755135" d="M55.724 28.846c-.676-1.448.296-3.292 1.854-3.353 2.913-.907 4.71 2.648 2.106 4.385-1.44.952-3.296.39-3.96-1.032" data-paper-data="{&quot;origPos&quot;:null,&quot;origRot&quot;:0}"/><path fill="none" stroke="#000" stroke-linecap="round" stroke-width="1.5" d="M52.168 26.54c2.37-1.551 5.946-1.609 8.176-.612" data-paper-data="{&quot;origPos&quot;:null,&quot;origRot&quot;:0}"/><path d="M56.685 27.255c.19-.852.811-1.624 1.67-1.433.86.192 1.474.262 1.57 1.13.22 1.968-1.168 2.384-2.027 2.192a1.587 1.587 0 0 1-1.213-1.889" data-paper-data="{&quot;origPos&quot;:null,&quot;origRot&quot;:0}"/><g stroke-linecap="round" data-paper-data="{&quot;origPos&quot;:null,&quot;origRot&quot;:0,&quot;index&quot;:null}"><path fill="#fff" d="M40.012 239.429c2.945 2.2 11.99 1.17 7.998 6.524-2.728 3.659-7.51 2.93-12.162 2.284-3.93-.545-4.292-4.613-8.26-4.643-4.208-.031-8.194.571-10.593-2.158-.853-.97 3.012-10.325 3.012-10.325s4.243 2.038 6.455 2.093c2.735.067 7.045-1.281 7.045-1.281s3.56 5.305 6.505 7.506" data-paper-data="{&quot;origPos&quot;:null}"/><path fill="#a5a5a5" d="M18.416 244.796c-2.009-1.06-1.91-1.789-1.577-3.527 3.036 1.896 2.466 2.393 10.561 1.856 2.897.289 4.533 3.432 8.153 4.584 9.624 1.96 12.125-1.72 13.495-3.18-.032 1.127-.31 2.3-.812 2.973-2.729 3.66-7.375 3.083-12.026 2.438-6.622-1.577-5.176-4.376-9.144-4.406-4.208-.032-5.898.716-8.65-.738" data-paper-data="{&quot;origPos&quot;:null}"/><path fill="none" stroke="#000" stroke-width="1.5" d="m39.508 239.108-2.362 2.094M37.523 237.002l-2.238 2.1M33.308 236.872l2.354-1.97" data-paper-data="{&quot;origPos&quot;:null}"/></g><path fill="#8c5f24" d="M32.662 165.412c6.597.327 11.404 1.243 10.564 15.467-.978 17.87-6.957 51.843-6.957 51.843s-5.03 2.233-8.767 2.086c-3.576-.14-9.79-3.444-9.79-3.444s-4.289-30.366-.29-47.382c4-17.016 10.087-18.825 15.24-18.57" data-paper-data="{&quot;origPos&quot;:null,&quot;origRot&quot;:0,&quot;index&quot;:null}"/><g stroke-linecap="round" data-paper-data="{&quot;origPos&quot;:null,&quot;origRot&quot;:0}"><path fill="#fff" d="M82.893 239.097c3.016 2.103 12.022.775 8.209 6.258-2.607 3.747-7.41 3.175-12.08 2.683-3.946-.416-4.442-4.47-8.408-4.369-4.208.107-8.172.84-10.66-1.809-.883-.941 2.671-10.418 2.671-10.418s3.647 1.694 7.45 1.798c1.269.034 6.07-1.43 6.07-1.43s3.732 5.185 6.748 7.287" data-paper-data="{&quot;origPos&quot;:null,&quot;index&quot;:null}"/><path fill="#a5a5a5" d="M59.793 241.699c3.097 1.795 2.544 2.31 10.617 1.507 2.905.194 4.643 3.281 8.3 4.313 9.683 1.642 12.061-2.118 13.382-3.622.006 1.127-.234 2.309-.714 2.999-2.606 3.747-7.269 3.324-11.94 2.832-6.669-1.358-5.316-4.204-9.282-4.103-4.208.107-5.872.91-8.67-.453-2.043-.994-1.968-1.725-1.693-3.473" data-paper-data="{&quot;origPos&quot;:null,&quot;index&quot;:null}"/><path fill="none" stroke="#000" stroke-width="1.5" d="m80.087 240.964 2.292-2.17M78.158 238.927l2.168-2.174M76.109 236.763l2.288-2.047" data-paper-data="{&quot;origPos&quot;:null,&quot;index&quot;:null}"/></g><path fill="#8c5f24" d="M77.862 184.135c3.84 17.053.269 47.378.269 47.378s-6.245 3.246-9.822 3.353c-3.738.112-8.748-2.168-8.748-2.168s-6.661-34.027-7.473-51.905c-.708-14.231 5.108-15.103 11.708-15.368 5.155-.207 10.225 1.658 14.066 18.71" data-paper-data="{&quot;origPos&quot;:null,&quot;origRot&quot;:0,&quot;index&quot;:null}"/><path fill="#edc393" d="M6.46 120.646s-.976-13.684 1.98-19.465c.403-1.278 3.474-5.89 7.681-4.738 4.669.924 4.383 6.447 4.374 6.498-1.252 7.213-6.68 17.534-7.004 19.665.5 2.111.98 4.628 1.32 6.581.429 1.893-.692 5.252-.804 7.175-.033.546-.679 1.787-1.802.362-.848-1.363-.103-3.092-.506-4.513-.985 2.578-1.486 3.243-1.861 6.02-.335 2.477 1.228 5.753-.918 5.946-.81.22-1.334-2.747-1.4-4.792a39 39 0 0 1 .256-5.711c-.594.868-.725 2.688-.961 4.366-.08.559.131 3.254-.13 3.754-.348.865-1.256.69-1.654-.152-.5-1.058-.476-3.528-.38-4.694.116-1.39.398-3.098.676-4.472-.502.145-.84 2.358-1.214 3.713-.164.594.131 3.289-1.064 3.59-1.41.076-.772-3.123-.835-4.741.167-1.62.808-4.319.808-4.319s-.849 2.22-1.188 3.328c-.346 1.133-.07 2.488-1.07 2.47-1.13.108-.668-3.076-.68-3.484.15-1.262 1.485-4.329 1.485-4.329zM95.147 128.944s1.334 3.067 1.485 4.33c-.012.407.45 3.591-.68 3.484-1 .017-.724-1.337-1.07-2.47-.34-1.11-1.189-3.328-1.189-3.328s.642 2.699.809 4.318c-.063 1.619.575 4.818-.835 4.742-1.196-.302-.9-2.997-1.064-3.59-.374-1.355-.712-3.569-1.214-3.714.277 1.375.56 3.083.675 4.473.096 1.166.12 3.636-.38 4.693-.398.843-1.306 1.017-1.653.153-.262-.501-.051-3.196-.13-3.755-.237-1.678-.367-3.498-.962-4.366.178 1.5.328 3.517.257 5.712-.066 2.044-.591 5.012-1.4 4.791-2.147-.192-.583-3.47-.918-5.946-.375-2.776-.876-3.442-1.862-6.02-.403 1.422.342 3.15-.505 4.513-1.124 1.425-1.77.184-1.803-.362-.111-1.922-1.232-5.282-.804-7.175.34-1.952.82-4.47 1.32-6.58-.323-2.131-5.751-12.453-7.003-19.666-.01-.05-.295-5.574 4.373-6.498 4.207-1.152 7.278 3.46 7.682 4.738 2.955 5.782 1.98 19.466 1.98 19.466z" data-paper-data="{&quot;origPos&quot;:null,&quot;origRot&quot;:0,&quot;index&quot;:null}"/></g></svg>