<svg xmlns="http://www.w3.org/2000/svg" width="77.008" height="190.41" viewBox="0.406 -0.025 77.008 190.41"><path fill="#eaa06d" d="M60.664 172.07c-.512.588-1.049.745-1.765 1.123-.798.42-1.484.734-2.333 1.083-1.785.734-3.744 1.499-5.642 1.4-1.283-.068-4.846-.03-6.091.258-1.425.33 3.071 2.063 3.874 2.159 2.57 1.29 4.874 1.364 7.654 1.892 1.308.253 4.427.159 5.81.093 1.624-.078 1.527-.356 3.108-.681a16 16 0 0 0 4.277-1.531c.957-.505 1.808-1.247 2.802-1.634.034-.14.053-.415.02-.555-.156-.635-1.243-1.85-1.84-2.11-.929-.403-2.109-.571-3.165-.562-1.19.005-3.02.44-4.25.3-.464-.055-2.342-.448-2.068-1.042"/><path fill="#bc7240" d="M72.56 176.183c.245.913.294 1.86.325 2.854.013.487-.108.851-.167 1.266-.06.455.107.89.044 1.345-1.012.399-1.893 1.008-2.949 1.355-1.139.376-2.323.664-3.471 1.024-2.698.85-5.754.687-8.478.055-1.084-.25-2.11-.639-3.138-1.055-.992-.403-1.728-.94-2.83-1.033-1.123-.097-2.207.235-3.342.155-1.058-.072-2.263-.145-3.248-.522-2.098-.806-.647-3.975-.706-5.513.423.252 1.253.706 1.67.996.897.618 1.636.754 2.677 1.05 1.111.316 2.009.707 3.115 1.009 2.394.655 4.89.886 7.383 1.024 2.4.133 4.71-.004 6.932-.858 1.239-.475 2.428-1.08 3.605-1.696.72-.376 1.717-1.564 2.514-1.576"/><path fill="undefined" d="M72.153 175.901c.051.154.528.22.477.062-.677-2.092-2.274-3.202-4.46-3.239-1.103-.02-2.192.138-3.282.279-.572.073-1.152.162-1.727.155-1.016-.007-1.6-.377-2.276-1.09-.099-.103-.576-.137-.443.004.659.692 1.128 1.15 2.099 1.288.88.125 1.768.01 2.641-.108 2.863-.382 5.896-.677 6.971 2.649m.624.06c-.025-.156-.505-.24-.477-.062.32 1.936.22 3.888.26 5.839.004.147.482.254.477.063-.04-1.953.061-3.906-.26-5.84m-10.11 8.696c.324-.007-.02-.261-.19-.257-2.081.046-4.152-.069-6.128-.778-1.536-.552-3.032-1.537-4.672-1.746-.746-.095-1.46 0-2.202.115-1.48.23-2.91-.029-4.33-.46-1.592-.486-.256-4.055-.307-5.388-.008-.147-.485-.249-.477-.06.07 1.786-.694 3.476-.349 5.26.02.084.145.123.211.142 1.652.526 3.301.964 5.048.828 1.093-.085 2.06-.367 3.155-.03.832.259 1.587.66 2.389.996 2.563 1.067 5.081 1.44 7.851 1.378m10.325-2.777c.19-.086-.249-.284-.38-.222-3.277 1.48-6.538 2.6-10.133 2.746-.322.012.016.264.188.257 3.67-.15 6.979-1.272 10.325-2.78m-.378-5.856c.121-.103-.321-.287-.448-.185-3.577 3.086-8.774 4.508-13.413 4.247-2.673-.153-5.33-.646-7.906-1.378-1.31-.37-2.91-.703-4.065-1.458-.682-.448-1.3-.95-2.041-1.3-.205-.098-.483.04-.184.18 1.28.605 2.23 1.471 3.586 1.956 1.158.416 2.328.784 3.521 1.083 2.533.633 5.123 1.136 7.74 1.198 4.619.102 9.645-1.264 13.21-4.343"/><path fill="#eaa06d" d="M38.008 182.335c.008.69-.463 2.025-.998 2.373-.724.466-2.039.968-2.875 1.138-3.661.75-8.924.779-12.57-.14-.835-.209-1.653-.658-1.865-1.325-.11-.353-.37-1.794-.317-2.115.093-.594 1.366-1.35 1.742-1.88.404-.567 1.247-1.024 1.809-1.475 1.131-.915 2.87-1.193 4.294-1.405 1.628-.245 3.068-.023 4.749.456 1.303.376 2.362.965 3.526 1.63.56.323 1.07.575 1.408 1.173.278.492.575 1.275 1.097 1.57"/><path fill="#bc7240" d="M37.669 183.697c-.046-.046-.177.537-.26.517-.233.328-.47.506-.821.823-.35.316-1.089.43-1.503.603-1.4.586-2.99.634-4.512.84-2.695.364-5.023.25-7.797-.475-1.06-.275-2.834-.549-3.078-1.63-.15-.669-.02-2.378-.87-2.032-.866.354-.639 1.723-.52 2.529.159 1.083.563 2.096 1.326 2.988.635.742 1.639.89 2.567 1.086 1.12.234 2.31.494 3.458.542 1.39.059 2.407.185 3.793.185 1.523 0 3.061-.22 4.527-.575.744-.18 1.522-.204 2.175-.613.45-.285 1.363-.436 1.498-.946.277-1.05.839-2.87.46-3.858"/><path fill="undefined" d="M37.741 182.314c.025.154.506.24.476.061-.198-1.221-2.642-2.296-3.572-2.79a10.3 10.3 0 0 0-4.738-1.186c-1.91-.01-4.124.034-5.958.607-1.946.61-3.491 1.77-4.869 3.249-.118.124.337.297.448.18 1.16-1.243 2.501-2.399 4.127-2.98 1.717-.613 3.632-.725 5.446-.783 1.72-.057 3.404.131 4.968.902.895.442 3.488 1.61 3.672 2.74m-18.124.144c-.008-.154-.487-.25-.468-.059.059.827-.035 1.976.653 2.59.528.467 1.17.758 1.853.934 1.855.495 3.88.743 5.799.775 2.414.042 4.94-.138 7.277-.79.857-.242 1.804-.523 2.493-1.126.802-.699.739-1.404.997-2.37-.16-.036-.317-.065-.477-.099a10.5 10.5 0 0 1-.139 4.11c-.165.696-.04 1.06-.768 1.483-.349.202-.708.42-1.089.557-2.58.915-5.454 1.179-8.172 1.129-1.41-.026-2.83-.114-4.214-.382-1.423-.277-3.167-.577-3.979-1.927-.625-1.037-1.763-4.782.266-5.101.266-.042-.152-.271-.296-.252-2.076.326-1.274 3.928-.567 5.103 1.407 2.345 4.756 2.554 7.2 2.749 3.244.256 6.858.075 9.946-1.02.544-.195 1.111-.464 1.572-.814.49-.376.364-.52.498-1.084.348-1.469.458-2.992.214-4.484-.022-.137-.436-.254-.477-.099-.23.854-.165 1.732-.965 2.316-.797.58-1.718.922-2.675 1.138-1.938.438-3.932.701-5.918.702-1.78.003-3.57-.166-5.323-.49-.83-.153-2.355-.362-2.812-1.183-.398-.716-.372-1.51-.429-2.306"/><path fill="#3d6767" d="M62.76 172.959c.817-1.203 1.331-2.689 1.553-4.12.294-1.893-1.11-2.455-2.446-3.299-1.178-.74-1.126-1.797-.643-3.017.257-.642.562-1.228.675-1.918.129-.786-.257-1.41-.835-1.857q-.103-.074-.204-.143a4 4 0 0 0-2.009-.635c-.1 0-.545-.199-.31-.194.339.007.674.052 1.005.123-1.103-1.078-1.136-2.872-1.185-4.317-.091-2.536-.431-5.007-.81-7.515-.376-2.485-.793-4.988-1.013-7.495-.237-2.656-.1-5.208-.662-7.847-.001-.004.007-.004.008-.007-.002-.006-.013-.01-.013-.016.2-7.816-.324-15.614-.332-23.427 0-.005.016-.005.02-.009L54.406 91.73s-13.181-.119-29.153 2.554l-1.116 12.854s.132.268-.02.22c-.966 10.233-1.935 20.474-2.9 30.71q.002.001.003.004c-.402 6.539-1.722 13.053-3.324 19.395-.727 2.87-1.913 5.99-1.327 8.98.12.619.356.742-.255 1.224-.976.774-.222 1.175.566 1.794.016.014.021.027.02.05-.612.985-1.44 1.794-2.133 2.715a5.4 5.4 0 0 0-.733 1.386c-.336.894.106 1.524.574 2.253a16.8 16.8 0 0 0 2.907 3.408c.975.88-.105 1.97 2.112 2 .065.004.304.103.356.16 1.387-1.005 2.463-3.303 4.583-3.496 2.36-.639 3.887-.576 5.983-.272 2 .293 2.416.296 4.088 1.365.81.306 2.717 2.236 3.163 2.186.737-.084 1.493-1.065.7-3.546-.414-1.296.225-.762 1.195-1.996.516 1.258 2.876 2.856 4.871 1.61-.084-.389-.81-1.61 1.947-1.61 2.586.023 4.136.014 6.84-.224 1.462-.129 3.237-1.136 4.613-1.693 1.2-.49 1.016-1.05 2.224-1.404.695-.272 2.149 1.257 2.75.725-.107-.039-.198-.096-.18-.123"/><path fill="undefined" d="M64.736 167.727c-.568-1.744-3.704-1.92-3.363-3.943.243-1.428 1.833-3.315.502-4.651-.483-.487-1.074-.821-1.707-1.045q-.035-.015-.07-.027c-.053-.046-.087-.102-.135-.15-1.322-1.317-1.085-3.663-1.161-5.375-.115-2.6-.618-5.164-.97-7.736-.356-2.61-.892-5.226-.905-7.868-.01-2.073-.147-4.072-.58-6.106.201-7.811-.323-15.607-.332-23.418L54.88 91.257c-12.171-.416-30.044 2.554-30.044 2.554l-1.177 13.2-1.366 14.46-.233 2.474-1.323 14.002.002.002c-.36 5.903-1.478 11.804-2.867 17.543-.649 2.674-1.618 5.38-1.873 8.132-.095.972-.179 2.032.217 2.932.29.658-.334.857-.716 1.24-.288.292-.321.616 0 .915.413.382 1.045.58.574 1.213-.311.417-.65.806-.987 1.2-.534.625-1.128 1.289-1.42 2.07-.098.254-.465 1.076-.313 1.331.252.427.503.855.78 1.269.65.977 1.36 1.924 2.197 2.752.636.626.852.987 1.207 1.754.156.333.371.57.622.743q.008.007.018.014c.452.306 1.027.401 1.634.419q.058.001.116.004h.006c.06-.001.068-.017.047-.04a.4.4 0 0 0-.096-.06l.163-.056c.023.078.402.22.47.11 3.185-5.803 13.097-4.726 16.842-.093.07.085.342.16.442.099.512-.325 1.52-.753 1.484-1.511-.052-1.123-.675-1.92-.5-3.079.337-.264.644-.574.935-.906 1.32 1.652 2.937 2.191 5.044 1.416.143-.052-.285-.226-.39-.186-.93.346-2.06.666-2.97.059-.605-.403-1.048-.933-1.465-1.52-.002-.004-.01-.005-.014-.008 1.272-1.59 1.967-3.759 1.529-5.735-.219-1-.713-1.52-1.524-2.102-.361-.26-1.297-.794-1.035-1.39.137-.302.314-.532.487-.811.412-.665.252-1.318.14-2.023 1.674 1.976 3.858 3.904 6.586 3.623.24-.024-.207-.21-.31-.196-2.694.277-4.787-2.047-6.324-3.979-.164-8.15-.856-16.352.424-24.449.015-.007.04-.007.043-.02 1.305-4.651 2.03-9.426 2.593-14.216.263-2.238.616-4.502.703-6.758.079-2 .147-3.875.988-5.732.039-.083-.426-.245-.474-.132-.908 2-.87 3.992-1.009 6.136-.143 2.279-.463 4.553-.738 6.82-.555 4.538-1.255 9.058-2.471 13.472-.04.003-.073.013-.078.035-1.335 8.167-.629 16.439-.462 24.659-.036.008-.053.026-.026.059l.03.036.002.11c-.001.003-.01.002-.01.005q.005.05.013.103v.023q.002.001.003.004c.099.783.39 1.6-.105 2.294-.373.533-.695.947-.297 1.54.59.88 1.84 1.113 2.211 2.2.869 2.556-.339 5.62-2.36 7.293-1.03-1.228-3.298-1.61-4.713-1.952-2.487-.6-4.998-1.13-7.542-1.418-.313-.035.082.18.204.194 2.023.229 4.024.62 6.009 1.075.863.197 1.733.389 2.583.646.55.17 1.076.368 1.617.556q.533.166 1.008.465-.072.346-.146.69c-3.226-.01-6.296-1.262-9.523-1.179-.237.008.21.2.308.199 2.093-.058 4.058.527 6.104.855 1.24.2 2.67.49 3.93.229-.076.882.262 1.407.445 2.335.2 1.018-.432 1.408-1.17 1.866-3.97-4.525-13.94-5.724-17.363-.086l-.58.23c-2.217-.03-1.136-1.121-2.112-2a16.9 16.9 0 0 1-2.907-3.408c-.467-.729-.91-1.359-.574-2.253.184-.495.415-.962.733-1.386.693-.922 1.522-1.73 2.133-2.716a.06.06 0 0 0-.02-.05c-.788-.617-1.542-1.018-.566-1.793.61-.483.375-.605.255-1.224l-.004-.029c2.522.778 4.755 2.374 7.447 2.56 2.748.191 5.417-1.238 8.033-1.956.14-.039-.281-.217-.396-.186-2.434.669-4.94 1.97-7.512 1.95-2.726-.02-5.047-1.763-7.593-2.538-.496-2.93.642-5.976 1.353-8.78 1.602-6.343 2.922-12.857 3.324-19.396q-.002-.003-.003-.004c.965-10.236 1.934-20.477 2.9-30.71.152.048.02-.22.02-.22l1.116-12.854c15.97-2.672 29.153-2.554 29.153-2.554l1.153 15.536c-.004.004-.02.004-.02.009.008 7.814.532 15.612.332 23.427 0 .005.011.01.013.016 0 .003-.01.003-.008.007.562 2.638.425 5.19.662 7.847.22 2.507.638 5.009 1.013 7.495.378 2.51.719 4.98.81 7.515.05 1.445.082 3.24 1.185 4.316a5.3 5.3 0 0 0-1.005-.122c-.235-.005.21.195.31.194a4 4 0 0 1 2.213.778c.578.447.964 1.07.835 1.857-.113.69-.418 1.276-.675 1.918-.483 1.22-.535 2.276.643 3.017 1.336.844 2.74 1.405 2.446 3.299-.22 1.431-.735 2.917-1.553 4.12l-.28.195.002.009a.4.4 0 0 0-.13-.027c-.293.024-.962-.934-1.302-1.098a.8.8 0 0 0-.583-.059c-.782.22-1.642 1.066-2.373 1.458-1.049.56-2.13 1.076-3.264 1.445-2.302.747-4.503.76-6.896.748-1.756-.008-3.51.05-5.134.793-.059.026.321.224.45.161 2.053-.942 4.352-.753 6.551-.74 2.014.013 3.913-.202 5.814-.918a23.8 23.8 0 0 0 5.012-2.598c.489-.334 1.205.887 1.899.988l.014.046s.546-.097.601-.243c.04-.002.08-.004.096-.03.883-1.3 2.021-3.755 1.5-5.364"/><path fill="#c0e1e1" d="M23.723 106.255c.336.997 1.142 1.599 2.127 1.985.758.262 1.604.443 2.419.583.868.125 1.714.197 2.395.302 3.775.584 7.56 1.052 11.387.894 0-.008-.011-.015-.01-.023.093-.777.359-1.521.459-2.306.11-.866.257-1.727.383-2.593.228-1.576.685-3.101.922-4.666.024-.153.338-.058.36.063.327 1.92.681 3.857.62 5.814-.024.78-.367 2.855.316 3.476 3.143-.33 6.263-.825 9.228-1.959.316-.119 4.47-2.15 4.765-3.34.003-.027.01-.055.012-.082a.4.4 0 0 0-.037-.222c-.057-.023-.107-.055-.118-.102q-.008-.036-.017-.072l-.001-.002c-.075-.059-.065-.105-.03-.139-.555-2.284-.901-4.602-1.218-6.933-.147-1.072-.336-2.147-.423-3.226-.069-.831-.051-1.769-.343-2.561-2.537.862-5.088 2.75-7.62 3.617-3.191 1.093-5.494 2.034-8.86 2.441-2.892.35-5.564.382-8.476.382-1.255 0-2.958-.38-4.166-.672-.545-.129-1.521-.402-2.059-.574-.37-.115-.497-.666-.712-.416-.271.316-.332-.126-.303.191-.032.62-.084 1.117-.183 1.631-.217 2.84-.785 5.65-.819 8.506q.001.002.002.003"/><path fill="undefined" d="M59.284 103.99c-.64-2.61-.999-5.269-1.363-7.93-.215-1.555-.106-3.526-.681-4.997-.052-.134-.41-.155-.337.028l.016.055c.293.792.274 1.73.343 2.561.088 1.08.276 2.155.423 3.226.317 2.331.663 4.65 1.218 6.933-.035.034-.045.08.03.139v.002q.01.036.018.072c.011.048.06.079.118.102a.4.4 0 0 1 .037.222q-.003.04-.012.083c-.295 1.188-4.449 3.22-4.765 3.339-2.965 1.133-6.085 1.628-9.228 1.959-.683-.62-.34-2.696-.316-3.476.06-1.958-.294-3.894-.62-5.814-.02-.12-.336-.217-.36-.063-.237 1.565-.693 3.09-.922 4.666-.126.866-.273 1.727-.383 2.593-.1.785-.367 1.528-.46 2.306 0 .01.01.016.011.023-3.827.158-7.612-.31-11.387-.894-.681-.105-1.527-.178-2.395-.302-.829-.12-1.674-.291-2.419-.583-.985-.386-1.792-.988-2.127-1.985l-.002-.002c.034-2.856.602-5.666.819-8.506a25 25 0 0 0 .087-2.2c-.002-.145-.366-.209-.364-.035.018 1.68-.17 3.344-.38 5.006-.19 1.517-.393 3.033-.48 4.559-.021.382-.04.763-.044 1.146q.002.002.003.006c.787 2.319 3.883 2.653 5.955 2.936 4.353.591 8.644 1.298 13.056 1.09.16-.008.117-.107.029-.176.092-.773.356-1.512.455-2.291.111-.867.253-1.727.382-2.593.182-1.207.486-2.387.727-3.574q.004-.029.01-.056l.009.06c.272 1.818.449 3.611.411 5.474-.015.741-.192 2.128.398 2.756-.043.075.107.206.23.192 3.828-.393 8.043-.915 11.428-2.893.665-.385 3.705-2.132 2.832-3.163"/><path fill="#c0e1e1" d="M67.586 39.38c1.406-2.042.764-4.374-1.02-5.917-6.582-2.356-9.13 2.064-9.13 2.064-.828 3.879 2.077 6.556 5.863 6.373a7.2 7.2 0 0 0 1.706-.382c1.038-.429 1.923-1.182 2.581-2.138"/><path fill="#302d63" d="M74.779 48.21c-.167-.718-.55-1.294-.854-1.948-.007-.007-.022-.011-.026-.019-1.285-2.402-1.597-5.05-2.08-7.69-.526-2.867-1.669-5.119-4.7-5.878-.39-.066-1.421-.07-2.037-.066a10.5 10.5 0 0 1 1.801.715q.045.016.074.04c1.693 1.46 2.499 3.635 1.363 5.718-1 1.832-2.702 2.928-4.763 3.12-1.67.156-3.573-.316-4.893-1.372-1.703-1.366-2.15-3.344-1.705-5.427.088-.145.184-.26.275-.393l-.287.146q-.118.1-.231.2a7 7 0 0 0-.497.485l-.044.047q-.216.24-.389.51-.02.032-.04.068a3 3 0 0 0-.274.58q-.01.031-.019.064a3 3 0 0 0-.139.706c-.069.905.217 1.975.462 2.842.459 1.608 1.46 3.014 2.529 4.317.008.01.026.018.028.03l.002.007c.357.433.72.854 1.072 1.267.12.147-.354.1-.446-.006l-.465-.55c.507 2.02 1.496 3.97 2.115 5.95.53 1.69.733 3.207 1.762 4.73 1.182 1.748 2.926 2.936 4.86 3.712.316.127.027.246-.18.164-3.659-1.471-6.066-4.261-6.783-8.166-.456-2.466-1.942-4.687-2.409-7.157-1.12-1.387-2.133-2.863-2.627-4.597a10 10 0 0 1-.31-1.563c-.898-.617-1.968-.927-2.988-1.305q-.172-.061-.343-.127c-.07-.028-.107-.056-.124-.08l-.1-.03-3.474-1.035s-.554 4.073-6.056 3.757c-5.503-.316-7.125-3.641-7.125-3.641l-3.824.28-.088.014q-.451.072-.906.14c-2.064.318-4.167.62-6.123 1.33-1.846.67-3.372 1.96-4.846 3.224v.002c-1.098 1.395-1.415 3.25-1.884 4.928-.5 1.785-.971 3.577-1.484 5.359-1.054 3.675-2.341 7.279-3.455 10.937-1.097 3.607-1.74 7.303-3.251 10.775-.7 1.607-1.413 3.146-1.888 4.844-.484 1.724-.562 3.546-1.049 5.26-.333 1.168-1.386 2.03-2.229 2.83-1.19 1.13-2.117 2.473-2.289 4.136-.258 2.439 1.308 4.798 3.203 6.149 3.441 2.46 9.6 2.657 10.654-2.369q.002 0 .003-.002-.001-.002-.001-.005c1.165-1.937 1.39-4.334 1.724-6.526.2-1.292.412-2.58.731-3.851.34-1.348.975-2.557 1.525-3.825 1.277-2.943 2.198-6.026 3.357-9.014.492-1.265 1.011-2.55 1.668-3.738.4-.724.929-1.403 1.252-2.167.017-.04.065-.056.123-.058.105-.765.203-1.53.32-2.295h.002c-.04-1.047-.28-2.077-.425-3.114-1.006-1.009-2.012-1.904-2.743-3.15-.1-.18.374-.113.44.007.688 1.17 1.62 2.037 2.565 2.97.098.028.189.072.198.132.143 1.095.403 2.179.446 3.284h-.002a127 127 0 0 0-1.427 15.27c-.096 2.856-.45 5.637-.925 8.452-.226 1.363-.065 2.624.371 3.92.336 1.009 1.332 1.924 1.224 3.015-.014.134-.495.033-.479-.13.056-.564-.184-.88-.431-1.275.013.295.01.59-.064.863-.141.494-.478.985-.675 1.46-.631 1.522 3.107 2.197 4.139 2.331 4.64.604 9.333.56 13.983-.114 4.518-.654 8.768-2.99 13.07-4.44.91-.303 1.79-.668 2.642-1.112.654-.338 2.395-1.095 2.23-1.999-.151-.845-1.026-1.77-1.117-2.681-.583.61-1.195 1.215-1.725 1.857-.094.113-.55-.052-.448-.179.894-1.084 1.976-1.986 2.876-3.065 1.347-1.608 1.297-3.38.591-5.276-1.383-3.705-3.162-7.224-4.313-11.024a24.5 24.5 0 0 1-.93-9.858q.042-.405.089-.81c-.002-.01-.02-.02-.014-.03q.011-.018.02-.035c.373-3.315.818-6.565.571-9.928-.011-.17.469-.068.478.071.218 2.963-.065 5.862-.415 8.788.888-1.543 1.62-3.166 1.349-5.007-.021-.163.457-.072.477.07.334 2.284-.83 4.236-1.97 6.121l-.021.184a27 27 0 0 0-.158 1.865c.059.02.11.044.133.075 1.91 2.571 5.035 3.934 8.013 4.855 2.672.827 5.56 1.354 8.367 1.284 1.571-.039 2.592-.118 3.411-1.579.424-.757.438-1.76.576-2.6.197-1.198.502-2.282.52-3.514.031-2.423-.633-4.888-1.044-7.263a57 57 0 0 0-.633-3.173"/><path fill="undefined" d="M76.04 52.368c-.231-1.363-.428-2.751-.786-4.088-.197-.732-.55-1.288-.865-1.967-.003-.007-.019-.012-.023-.019-1.514-2.845-1.536-5.972-2.367-9.011-.525-1.926-1.523-3.306-3.085-4.15a7.3 7.3 0 0 0-1.395-.554c-.117-.035-.225-.078-.347-.108A.3.3 0 0 0 67 32.47l-2.489-.014c-1.96-.466-4.72-.507-6.791 1.91l-1.047.468c-.904.737-1.86 1.583-1.841 2.854.005.271.042.548.07.822-.918-.53-1.936-.85-2.921-1.23q-.104-.039-.207-.079l-4.038-1.184s-1.266 4.117-5.897 3.642-6.967-3.599-6.967-3.599l-4.284.318a72 72 0 0 1-.834.13c-2.137.323-4.358.602-6.37 1.375-1.868.72-3.4 1.972-4.906 3.26v.002c-.85 1.081-1.166 2.342-1.539 3.645-.425 1.483-.825 2.977-1.237 4.465-1.049 3.817-2.319 7.553-3.51 11.327-.621 1.977-1.226 3.964-1.716 5.98-.44 1.816-.856 3.603-1.561 5.34-.726 1.785-1.646 3.486-2.2 5.335a34 34 0 0 0-1.053 4.929c-.252 1.75-1.206 2.722-2.42 3.908-.977.953-1.977 2.12-2.227 3.51-.475 2.634.747 4.948 2.653 6.545q.53.446 1.12.814c.842.523 1.763.922 2.699 1.171 3.424.916 7.422.127 8.249-3.819 1.225-2.039 1.42-4.58 1.78-6.88.2-1.281.397-2.576.765-3.82.36-1.223.943-2.33 1.438-3.5 1.215-2.888 2.137-5.884 3.28-8.797.063-.162.12-.327.186-.489q.029-.076.06-.154c.48-1.185.959-2.408 1.612-3.51.196-.332.414-.661.62-.998a124 124 0 0 0-.944 11.817c-.081 2.552-.429 5.021-.792 7.53l-.114.795-.018.126c-.178 1.242-.16 2.408.248 3.61.137.406.297.796.472 1.182-.045.006-.077.022-.076.054.018.543.151 1.225-.112 1.735-.269.524-.917 1.399-.675 1.972.417.99 2.355 1.45 3.252 1.683 4.515 1.176 9.187.74 13.777.393.147-.011.29-.04.435-.055.109-.01.216-.027.324-.04 2.4-.277 4.689-.953 6.938-1.776q.852-.311 1.698-.64c1.788-.693 3.568-1.419 5.383-2.03 1.148-.385 2.256-.821 3.315-1.413.46-.255 1.872-.903 1.991-1.462.279-1.305-1.627-2.494-1.026-3.802.007-.013-.013-.028-.019-.041 1.28-1.43 2.224-2.974 1.5-5.185-1.27-3.874-3.273-7.476-4.46-11.394-.882-2.907-1.267-5.73-1.157-8.668 1.876 2.288 4.748 3.65 7.508 4.535 2.867.92 5.992 1.59 9.02 1.514.94-.022 2.51.14 3.183-.653.62-.735.969-1.53 1.107-2.49.164-1.1.518-2.187.623-3.293.248-2.631-.375-5.204-.817-7.783m-18.604-16.84s2.548-4.421 9.13-2.065c1.784 1.543 2.427 3.875 1.02 5.917-.658.956-1.543 1.71-2.582 2.138-.509.21-1.052.347-1.63.38-.026.002-.051 0-.076.002-3.786.183-6.69-2.494-5.862-6.373m18.497 26.635c-.139.84-.152 1.843-.576 2.6-.817 1.46-1.84 1.54-3.411 1.58-2.806.069-5.694-.458-8.367-1.285-2.978-.92-6.102-2.284-8.013-4.856-.022-.029-.073-.055-.133-.074a27 27 0 0 1 .18-2.049c1.139-1.885 2.303-3.837 1.969-6.12-.02-.143-.498-.234-.477-.071.272 1.841-.46 3.464-1.349 5.007.35-2.927.633-5.825.415-8.788-.01-.139-.489-.241-.478-.071.248 3.363-.198 6.613-.57 9.928q-.011.018-.02.034c-.006.01.01.021.013.032l-.09.81a24.5 24.5 0 0 0 .931 9.857c1.15 3.8 2.93 7.32 4.313 11.024.706 1.896.756 3.668-.59 5.275-.901 1.08-1.983 1.982-2.877 3.066-.103.127.354.292.448.179.531-.641 1.142-1.247 1.726-1.858.09.912.965 1.837 1.117 2.682.165.904-1.577 1.66-2.23 2-.852.443-1.734.808-2.643 1.112-4.3 1.448-8.552 3.785-13.07 4.439-4.65.674-9.342.718-13.983.114-1.032-.134-4.77-.81-4.14-2.331.199-.475.535-.966.676-1.46.075-.272.078-.568.064-.863.247.394.486.71.431 1.276-.016.162.465.263.48.129.107-1.092-.89-2.006-1.224-3.014-.436-1.297-.598-2.558-.372-3.921.045-.264.082-.527.125-.791 5.518 7.717 17.49 9.261 25.525 4.851.181-.099-.263-.282-.384-.215-7.983 4.382-19.811 2.838-25.036-5.083-.006-.01-.019-.018-.03-.027.371-2.386.646-4.76.727-7.186.167-5.126.644-10.201 1.427-15.27 0-.002.002 0 .002-.002-.043-1.104-.303-2.188-.446-3.283-.008-.059-.1-.104-.198-.132-.945-.933-1.877-1.801-2.564-2.97-.067-.12-.542-.187-.44-.008.73 1.246 1.736 2.141 2.742 3.151.144 1.037.384 2.066.425 3.113l-.002.001c-.117.765-.215 1.53-.32 2.295-.059.002-.107.017-.123.057-.323.765-.851 1.444-1.252 2.167-.657 1.19-1.176 2.474-1.668 3.739-1.158 2.988-2.08 6.071-3.357 9.014-.55 1.267-1.185 2.477-1.525 3.825-.319 1.27-.532 2.56-.731 3.851-.162 1.061-.3 2.17-.53 3.251-.147-.063-.37-.076-.355.038.574 3.579-5.198 4.242-7.39 2.759-.108-.074-.594-.09-.377.054 1.65 1.117 5.355 1.292 7.2-.09-.087.173-.172.347-.272.515l.002.004q-.003 0-.004.003c-1.055 5.026-7.213 4.83-10.654 2.369-1.895-1.35-3.461-3.71-3.203-6.149.172-1.663 1.1-3.006 2.29-4.136.842-.8 1.895-1.663 2.228-2.83.487-1.714.565-3.536 1.05-5.26.474-1.698 1.187-3.237 1.887-4.844 1.51-3.473 2.154-7.168 3.25-10.775 1.115-3.659 2.402-7.262 3.456-10.938.513-1.78.985-3.573 1.484-5.358.469-1.677.786-3.533 1.884-4.928v-.002c1.474-1.263 3-2.554 4.846-3.224 1.957-.711 4.059-1.012 6.123-1.33l.906-.14.088-.014 3.824-.28s1.622 3.325 7.125 3.64c5.502.317 6.056-3.756 6.056-3.756l3.474 1.035.1.03c.017.025.054.053.124.08.112.045.23.085.343.127 1.02.378 2.09.687 2.989 1.305.067.532.163 1.06.309 1.563.495 1.733 1.507 3.21 2.627 4.597.467 2.47 1.955 4.69 2.409 7.157.717 3.904 3.124 6.695 6.783 8.166.207.082.495-.037.18-.164-1.934-.776-3.678-1.964-4.86-3.712-1.029-1.524-1.232-3.04-1.761-4.73-.619-1.98-1.608-3.929-2.116-5.95l.465.55c.092.106.567.153.446.006-.352-.414-.715-.835-1.072-1.267q0-.004-.002-.008c-.001-.011-.02-.019-.028-.03-1.069-1.303-2.07-2.709-2.529-4.316-.246-.867-.532-1.937-.462-2.843.02-.256.07-.487.14-.705q.008-.032.018-.065c.07-.207.164-.398.274-.58l.04-.068q.172-.267.39-.509l.043-.047q.23-.25.497-.485.113-.101.231-.2l.287-.146c-.09.133-.187.248-.275.393-.446 2.083.002 4.06 1.705 5.427 1.32 1.055 3.224 1.528 4.893 1.372 2.061-.192 3.763-1.288 4.763-3.12 1.136-2.084.331-4.258-1.363-5.718a10.47 10.47 0 0 0-1.874-.755c.614-.004 1.645 0 2.036.066 3.032.76 4.175 3.01 4.7 5.878.484 2.64.796 5.287 2.08 7.69.004.008.02.012.026.019.304.654.688 1.23.854 1.948.245 1.052.45 2.11.63 3.175.411 2.375 1.075 4.84 1.044 7.264-.016 1.228-.322 2.313-.519 3.511"/><path fill="#a86c35" d="M42.6 39.806c4.136-.207 5.014-2.526 5.203-3.564-.438.098-2.323.396-2.344-1.786-.587.357-1.207.647-1.854.8h-.002a.4.4 0 0 1-.09.008c-2.608-.051-5.546-1.3-7.858-2.426q-.09-.046-.18-.095l-.069.922-.209 2.736c.788 1.035 3.19 3.617 7.402 3.405"/><path fill="undefined" d="m35.405 33.665.07-.922.02-.265-.238-.06-.148.89-.238 2.753.122.176.195.28zM47.894 36.219l-.003-.035-.017-.183c-2.435.455-2.178-1.84-2.178-1.84h-.237c-.007.105-.003.197 0 .294.023 2.47 2.435 1.764 2.435 1.764"/><path fill="#c0e1e1" d="M46.476 35.198c-.557.7-1.005 1.481-1.47 2.248q-.108.18-.22.356c-.403.646-.832 1.272-1.367 1.82-.692.713-.423.989.183 1.614.42.431.83.872 1.24 1.313.8.861 1.592 1.73 2.395 2.586.968-3.015 2.526-5.893 3.835-8.767-1.413-1.141-3.388-1.758-5.108-2.203-.049-.012-.073-.038-.101-.061l-.017.01c-.506.204.088 1.609.083.93 0-.032.001.064-.002.097.037-.05.07-.102.109-.15.13-.161.582.02.44.206M36.298 43.61c.923.782 1.883 1.53 2.768 2.315.659-1.03 1.032-2.216 1.63-3.284.372-.664.765-1.317 1.159-1.967.547-.91-.251-1.17-.937-1.648-1.29-.893-2.583-1.858-3.747-2.948-.091-.085-.185-.167-.275-.255a17 17 0 0 1-1.107-1.188q-.368-.431-.701-.89l-.02-.026c-1.396.825-2.974 1.685-3.905 3.032q-.015.02-.038.031c-.573.448 2.508 4.136 2.874 4.583.578.701 1.256 1.332 1.96 1.944q.01.006.023.014a.8.8 0 0 1 .316.287"/><path fill="undefined" d="M51.58 36.402a.1.1 0 0 0-.014-.074.15.15 0 0 0-.054-.06q-.004-.007-.011-.013c-1.179-.997-2.763-1.618-4.29-2.074l-.24-.07q-.468-.137-.923-.255c-.248-.063-.331.135-.187.248.028.023.053.049.102.06 1.719.447 3.694 1.063 5.107 2.204-1.308 2.874-2.867 5.751-3.834 8.767-.805-.855-1.597-1.725-2.396-2.586-.41-.441-.82-.882-1.24-1.313-.607-.625-.875-.9-.183-1.613.535-.549.965-1.175 1.367-1.82q.111-.18.22-.357c.465-.767.913-1.546 1.47-2.248.142-.187-.31-.37-.44-.208-.04.049-.072.101-.108.15q-.15.2-.293.403c-.516.749-.955 1.548-1.449 2.31-.305.463-.61.955-1 1.355-.152.154-.42.364-.586.598-2.583-1.935-5.389-3.656-7.253-6.372l-.005-.008c-.085-.125-.275-.191-.414-.109-1.479.882-3.202 1.776-4.204 3.227-.007.01-.006.02-.01.03-.648.738 1.868 3.623 2.269 4.133 1.688 2.157 3.97 3.759 5.983 5.6.09.085.32.176.416.04.614-.876.912-1.867 1.388-2.812.519-1.035 1.132-2.023 1.74-3.01.222.712 1.176 1.331 1.633 1.823 1.006 1.086 1.994 2.183 3.016 3.252.082.103.28.138.383.059.03-.014.054-.034.06-.06.965-3.164 2.618-6.172 3.982-9.177.005-.007-.004-.012-.002-.02M34 41.364c-.367-.446-3.45-4.135-2.875-4.583.015-.01.029-.017.038-.031.93-1.346 2.51-2.207 3.905-3.032l.02.026q.332.458.701.89.523.619 1.107 1.189c.09.087.184.169.275.254 1.165 1.089 2.457 2.054 3.747 2.948.687.478 1.484.738.937 1.648a70 70 0 0 0-1.16 1.967c-.597 1.068-.97 2.253-1.629 3.284-.885-.786-1.845-1.533-2.768-2.315-.116-.099-.225-.203-.34-.302-.703-.611-1.381-1.243-1.959-1.943"/><path fill="#a86c35" d="M52.338 18.725c-.003.005-.016.003-.02.008-.029.42-.031.834.025 1.207.002.012-.016.013-.02.021.2.919.314 1.85.339 2.778.223-.52.453-1.038.645-1.572.164-.459.227-.93.252-1.413a4 4 0 0 0-.06-.732q-.077-.773-1.161-.297"/><path fill="#a86c35" d="M48.45 31.427q.364-.41.74-.802c.52-.597 1.01-1.219 1.448-1.86 1.802-2.644 1.867-6.164 1.15-9.187-.008-.032.018-.05.06-.058-.093-1.115.132-2.44.635-3.39.002-.004.01-.002.013-.005.237-.875 3.227-12.832-10.425-13.753-14.1-.95-15.793 7.275-14.924 16.779.084.05.167.087.255.147.204.14-.276.095-.374.029-.42-.294-.783-.389-1.095-.346l-.055.01c-1.348.26-1.712 3.172-1.46 4.18.198.79.731 1.463 1.274 2.04.326.344.713.627 1.09.915 1.048.811 1.8.379 2.383-.482.085-.128.525.057.475.129a5 5 0 0 1-.22.293c.005.025.015.054.022.08.096.022.188.058.207.112 1.016 2.946 3.325 4.955 6.026 6.363 2.157 1.129 5.111 2.36 7.584 2.424 1.411-.346 2.622-1.336 3.721-2.242.514-.424 1-.892 1.47-1.376"/><g fill="undefined"><path d="M53.805 18.624c-.232-.533-.859-.657-1.36-.485-.023.008-.05.008-.072.017.104-.684.302-1.357.588-1.897.004-.006-.012-.016-.014-.024l.026-.022c1.181-3.739.245-11.789-6.495-13.422-.19-.046-.373-.084-.56-.128-2.807-.647-5.252-.947-7.513-.81-2.92.179-5.54 1.085-8.255 2.926-4.708 3.193-3.43 13.21-3.29 14.212-.087-.04-.17-.057-.254-.083-2.344-.73-3.475 3.182-2.245 5.126.726 1.15 1.868 2.241 3.153 2.746.713.28 1.269-.006 1.714-.481 1.002 2.771 3.184 4.786 5.725 6.168-.008.001-.012.004-.02.006q.236.087.43.221l-.002-.011c.098.05.192.106.292.155 2.313 1.126 5.25 2.375 7.858 2.426q.06 0 .09-.008h.002c.663-.156 1.297-.457 1.897-.825q.203-.166.459-.274-.013-.005-.021-.01a17 17 0 0 0 1.49-1.175c1.272-1.113 2.511-2.355 3.465-3.759 1.089-1.596 1.615-3.398 1.741-5.251.035-.007.07-.014.08-.04.571-1.662 1.88-3.496 1.09-5.298m-3.166 10.141a20.4 20.4 0 0 1-2.188 2.662c-.47.484-.956.952-1.47 1.376-1.098.907-2.309 1.896-3.72 2.242-2.474-.063-5.428-1.294-7.584-2.424-2.701-1.408-5.01-3.418-6.026-6.363-.019-.054-.111-.09-.207-.112-.024-.006-.046-.015-.07-.018q.024-.031.047-.062a5 5 0 0 0 .22-.293c.236-.626-.131-1.1-.706-1.141-1.15-.084-2.457.534-3.069-.893-.059-.131-.516-.177-.473-.077.342.801 1.081 1.193 1.92 1.293.539.066 2.233-.32 1.852.69v.002c-.58.86-1.333 1.29-2.381.48-.376-.288-.763-.571-1.089-.916-.543-.576-1.076-1.25-1.274-2.039-.252-1.009.112-3.92 1.46-4.18l.055-.01c.312-.043.675.053 1.095.346.098.065.577.112.374-.029-.087-.06-.17-.098-.255-.147-.872-9.505.821-17.729 14.922-16.78 13.652.92 10.662 12.878 10.425 13.753-.002.003-.01.001-.013.005-.503.95-.728 2.275-.635 3.39-.043.008-.068.026-.06.058.716 3.023.65 6.543-1.15 9.187m2.667-7.597c-.192.534-.42 1.053-.645 1.572a15 15 0 0 0-.34-2.778c.006-.008.023-.01.02-.02a5.6 5.6 0 0 1-.024-1.208c.005-.005.018-.003.02-.009q1.085-.475 1.16.297.065.364.06.732c-.024.484-.087.954-.251 1.414"/><path d="M24.764 21.34c-.006.146.471.232.477.129.049-.989 1.332-1.147 1.96-.518.578.58 1.004 1.291 1.604 1.855.09.083.549.132.435.023-.878-.824-1.385-2.081-2.635-2.398-.752-.188-1.792-.024-1.84.909"/></g><path fill="#7b1315" d="M43.307 25.793c-.953.219-2.018.554-2.77 1.207.006.01.021.02.018.032-.415 1.176.574 2.157 1.248 3 .003.005-.004.005-.002.01.004.004.015.005.018.01 1.102 1.625 3.81 1.864 4.545-.201.312-.61.325-1.26.396-1.928.078-.768.377-1.38.89-1.922-1.072-.937-3.107-.492-4.343-.208"/><path fill="#fff" d="M48 25.947c-.915-.36-1.516-.585-2.245-.583-.816-.084-1.579.12-2.39.296-.685.147-1.42.361-2.067.66-.264.123-.65.3-.827.538-.133.174-.145.252-.094.278 2.1-1.088 4.665-.741 6.942-.723a.5.5 0 0 1 .145.045c.037-.02.069-.033.11-.065.153-.12.222-.332.425-.446"/><path fill="#010101" d="M40.378 27.136c-.037.019-.075.03-.11.05-.044.023.246.171.337.122 2.085-1.14 4.669-.77 6.948-.75.112.001.016-.057-.088-.1a.5.5 0 0 0-.146-.045c-2.276-.018-4.84-.365-6.942.723"/><path fill="#010101" d="M47.786 25.859c-.902-.637-2.224-.617-3.264-.486-1.458.184-3.255.517-4.384 1.542-.023.021.004.049.045.075-.37 1.177.614 2.175 1.294 3.022 1.184 1.716 4.393 2.32 5.245-.065.318-.616.306-1.256.398-1.927.098-.766.365-1.369.89-1.919q.043-.007.03-.033c.024-.025.042-.052.068-.078.064-.064-.237-.184-.322-.131m-1.026 2.062c-.027.254-.05.504-.08.752-.539-.945-1.185-1.953-2.264-2.256-.21-.06-.241.065-.031.127 1.068.3 1.69 1.63 2.196 2.52.006.009.022.014.032.021a2.9 2.9 0 0 1-.249.764c-.736 2.065-3.443 1.826-4.545.201-.003-.004-.014-.006-.018-.01-.002-.004.005-.005.002-.01-.674-.843-1.663-1.824-1.248-3 .004-.01-.012-.02-.019-.032.753-.653 1.818-.987 2.771-1.207 1.236-.284 3.271-.73 4.344.206-.514.545-.813 1.157-.891 1.924"/><g fill="undefined"><path d="M40.861 24.097c.34-.217.728-.26 1.105-.362a.4.4 0 0 0 .216.112c.882.14 1.613.493 2.537.385.811-.094 1.566-.752 1.709-1.555.024-.133-.455-.245-.477-.126-.146.817-.95 1.484-1.79 1.5-.727.012-1.324-.272-2.004-.392.003-.072-.321-.2-.42-.166-.452.149-.914.172-1.325.43-.088.058.325.25.449.174M42.024 22.052c1.16-.455 2.42-.731 3.638-.331.193.063.495-.026.173-.132-1.415-.464-2.828-.271-4.199.266-.16.061.275.242.388.197"/></g><path fill="#fff" d="M39.894 18.716c-.146-.682-.705-1.097-1.03-1.674-.296-.534-.816-.85-1.39-1.118-1.446-.682-2.74.181-3.59 1.352-.261.36-.517.78-.448 1.25.11.762.705 1.036 1.373 1.184.898.202 2.003.319 2.885.078.455-.123 1.896-.567 2.009-1.133a.4.4 0 0 1 .154-.037"/><path fill="undefined" d="M39.588 18.963c.052.142.525.205.475.07-.543-1.531-1.373-3.177-3.137-3.44-1.178-.175-2.383.612-3.147 1.438-.383.415-.8.837-.566 1.445.23.599.693.988 1.31 1.172 1.7.51 3.933.313 5.494-.542.18-.098-.263-.277-.382-.213-1.274.698-3.364 1.06-4.776.636-1.713-.515-1.318-1.716-.401-2.553.575-.53 1.308-1.071 2.118-1.145 1.728-.16 2.54 1.797 3.012 3.132"/><path fill="#42210b" stroke="#010101" stroke-width=".237" d="M36.274 16.746c.287 0 .548.117.737.306a1.04 1.04 0 0 1 0 1.474 1.04 1.04 0 0 1-1.475 0 1.04 1.04 0 0 1 0-1.474c.19-.19.45-.306.737-.306Z"/><path fill="undefined" d="M32.386 14.715c.834-2.105 3.302-2.396 5.27-1.96.28.061.333-.108.047-.172-2.11-.47-4.88-.305-5.795 2.004-.044.107.425.257.478.127"/><path fill="#fff" d="M51.626 16.815v.032c0 .62-.406 1.04-.998 1.325-.765.374-1.193.523-2.042.564-.849.043-1.636.063-2.434-.175-.372-.11-.392-.146-.355-.52.032-.319.145-.486.284-.773.134-.273.154-.6.325-.84.15-.216.099-.54.28-.732.456-.488 1.075-.636 1.762-.654.605-.015 1.325.065 1.822.386.352.226 1.449.87 1.425 1.417"/><path fill="undefined" d="M45.546 18.445c-.026.153.455.266.476.127.195-1.146.542-2.82 1.748-3.345.87-.377 1.782-.114 2.555.372.84.528 1.69 1.556.445 2.339-1.308.824-3.443.986-4.894.493-.2-.07-.497.051-.178.16 1.608.551 3.74.447 5.263-.316.48-.238 1.32-1.207.836-1.805a4 4 0 0 0-.893-.788c-.801-.534-1.857-1.038-2.857-.86-1.72.302-2.247 2.12-2.501 3.623"/><path fill="#42210b" stroke="#010101" stroke-width=".237" d="M47.997 15.777a1.04 1.04 0 0 1 1.044 1.044 1.04 1.04 0 0 1-1.044 1.044 1.04 1.04 0 0 1-1.044-1.044 1.04 1.04 0 0 1 1.044-1.044Z"/><path fill="undefined" d="M46.382 11.738c1.933-.149 4.294.32 4.818 2.49.035.14.455.297.432.206-.593-2.449-3.35-3.165-5.57-2.996-.17.013.196.308.32.3"/><path fill="#301113" d="M53.485 14.629c-.035-.05-.05-.108-.017-.173.317-.615.256-1.421-.013-2.041-.036-.084-.007-.14.047-.173-.001-.018-.018-.03-.013-.05a4.5 4.5 0 0 0-.238-3.032c-.037-.08-.011-.135.04-.17.44-1.041-.376-2.098-1.078-2.824-.063-.033-.115-.078-.129-.144-.14-.709-.66-1.231-1.113-1.761a.17.17 0 0 1-.046-.102c-.008-.01-.019-.017-.024-.026-.39-.655-.89-1.35-1.67-1.524-.12.05-.331.006-.389-.123-.376-.83-1.734-.878-2.514-.96-.012-.001-.018-.01-.028-.014-.014 0-.021.007-.036.004-.65-.143-1.562-.774-2.199-.363-.08.052-.196.035-.291-.012a.2.2 0 0 1-.139.031 37 37 0 0 0-1.328-.125.25.25 0 0 1-.197-.02H42.1c-.012-.001-.02-.01-.03-.012-.55-.268-1.222-.148-1.8-.062-.497.073-.981.084-1.482.053-.035-.002-.058-.023-.085-.035-.02.005-.02.019-.045.02q-1.075.066-2.137.22c-.028.015-.067.013-.107.013l-.04.004c-.007.001-.013-.004-.02-.004-.01-.001-.015.004-.024 0-.79-.245-1.453-.109-2.014.516-.074.084-.217.08-.326.034q-.895.277-1.753.655c.013.055-.01.107-.104.134-.771.22-2.294.2-2.288 1.306 0 .159-.171.188-.312.144a11.3 11.3 0 0 0-1.47 1.346l-.018.018h-.001c-.017.017-.033.033-.06.046-.333.17-.89.418-.97.82-.027.135.003.282-.018.42-.014.107-.08.187-.16.258-.004.017-.006.034-.017.051-.304.472-.57.962-.81 1.469.01.027.032.052.024.085-.081.39-.43.627-.494 1.022-.056.353.042.715-.225 1.002a.2.2 0 0 1-.08.047q-.19.755-.277 1.528c.038.04.059.093.047.152-.084.43-.425.841-.239 1.244.075.034.139.082.145.16 0 .024.005.047.006.072q.028.055.01.096.048.656.188 1.3c.189.27.212.574.297.897.05.18.098.429.245.558.101.091.144.184.139.32 0 .017-.017.021-.022.035.394.759.902 1.44 1.532 2.017a.3.3 0 0 1 .055.07c.078.003.158.028.207.084.766.871 1.277 1.794 1.765 2.82.41-.261.888-.607.703-1.097-.16-.417-.468-.797-.656-1.207-.534-1.142-1.102-2.322-1.563-3.493-.763-1.93-.245-4.508.6-6.318.854-1.836 3.03-3.167 4.821-3.942 2.737-1.184 5.934-1.191 8.864-1.048 1.588.078 3.183.303 4.763.51 1.017.134 2.003.417 2.888.946 3.305 1.965 3.458 6.527 3.224 9.908-.02.197-.297.207-.427.103-.135 1.03-.284 1.838-.333 1.987l.093-.096c.208-.289.447-.555.668-.846.565-.744.51-1.831.509-2.728"/><path fill="undefined" d="M53.92 12.368c.016-.017.04-.022.048-.048a4.8 4.8 0 0 0-.232-3.152c.006-.008.02-.008.023-.019.52-1.165-.411-2.394-1.19-3.19q-.019-.015-.04-.026c-.184-.722-.677-1.268-1.155-1.828l-.003-.002c-.005-.011-.004-.022-.012-.035-.485-.819-1.119-1.66-2.117-1.832-.022-.004-.034.008-.055.008-.555-.867-1.912-.986-2.845-1.084-.849-.191-1.78-.824-2.62-.303-.038-.025-.073-.051-.123-.057a33 33 0 0 0-1.421-.131C41.13.219 39.84.703 38.75.634c-.054-.003-.08.017-.114.031a.3.3 0 0 0-.14-.039c-.505.028-1.008.079-1.51.139q-.337.038-.672.086-.12-.036-.241-.06c-.71-.14-1.358.001-1.909.463q-.045.04-.09.084a.3.3 0 0 0-.071.005c-.181.052-.356.12-.535.179a16 16 0 0 0-1.959.768c-.02.01-.032.023-.046.035-.624.134-1.351.256-1.767.666q-.073.072-.131.157-.113.165-.162.389-.002 0-.005.002a11.7 11.7 0 0 0-1.758 1.588c-.343.171-.817.392-1.002.725-.097.174-.088.386-.121.57a.6.6 0 0 1-.073.194c-.03.05-.06.099-.12.133-.09.052-.088.121-.04.181a14 14 0 0 0-.832 1.55c-.023.051-.01.097.019.135-.13.236-.348.43-.392.708-.038.242 0 .534-.07.774q-.008.021-.017.04c-.005.015-.017.026-.023.04-.078.007-.148.034-.168.112a11.5 11.5 0 0 0-.346 1.908c-.003.035.02.06.036.09-.08.259-.226.503-.265.77-.038.287.041.51.21.726q.049.644.183 1.276c-.029.041-.029.095.03.16.228.256.242.654.327.975.033.132.076.26.14.38.04.07.136.165.175.252-.032.035-.04.082-.007.147.431.85 1 1.601 1.704 2.243.049.045.11.064.17.066l.006.009q.3.342.552.696c.035.05.064.1.099.15.465.677.838 1.393 1.196 2.166.068.145.282.199.416.111.272-.183.633-.397.878-.67q.033-.037.065-.075c.154-.196.243-.423.196-.692-.125-.688-.773-1.5-1.047-2.147-.433-1.036-1.16-2.105-1.38-3.208a8.5 8.5 0 0 1 .005-3.318c.503-2.519 1.897-4.215 4.14-5.478 2.723-1.534 5.94-1.756 9.007-1.645 1.765.063 3.51.308 5.266.506.93.104 1.874.3 2.701.762 3.345 1.866 3.46 6.376 3.225 9.73-.004.056.024.101.066.135.13.103.408.093.426-.103.235-3.381.083-7.942-3.223-9.908-.885-.529-1.871-.812-2.888-.946-1.58-.207-3.175-.432-4.763-.51-2.93-.144-6.127-.137-8.864 1.048-1.79.775-3.967 2.107-4.821 3.942-.846 1.81-1.363 4.387-.6 6.318.461 1.17 1.03 2.351 1.563 3.493.187.41.495.79.656 1.207.185.49-.293.835-.703 1.097-.488-1.026-.999-1.948-1.765-2.82-.05-.056-.129-.08-.207-.085a.3.3 0 0 0-.056-.069 7.2 7.2 0 0 1-1.53-2.017c.004-.014.02-.019.02-.035a.37.37 0 0 0-.138-.32c-.147-.13-.195-.376-.245-.558-.085-.323-.108-.628-.297-.896a9 9 0 0 1-.188-1.301q.018-.04-.01-.096c0-.024-.006-.048-.007-.072-.005-.078-.07-.127-.144-.16-.186-.402.155-.813.239-1.244a.17.17 0 0 0-.047-.152q.088-.773.277-1.528a.2.2 0 0 0 .08-.047c.267-.287.17-.65.224-1.002.063-.395.414-.632.495-1.022.008-.033-.014-.058-.024-.085.24-.507.506-.997.81-1.47.011-.017.013-.033.017-.05.079-.07.146-.151.16-.259.02-.137-.01-.285.019-.419.079-.402.636-.65.97-.82a.2.2 0 0 0 .059-.045v-.001q.01-.008.019-.018a11.3 11.3 0 0 1 1.47-1.346c.14.043.313.015.312-.144-.006-1.106 1.518-1.086 2.287-1.306.094-.027.118-.079.105-.134a16 16 0 0 1 1.753-.655c.109.046.252.05.326-.034.56-.625 1.224-.762 2.014-.516.009.003.014-.002.023 0 .008 0 .014.005.021.004l.04-.004c.04 0 .079.002.106-.014q1.063-.153 2.138-.22c.025 0 .026-.014.045-.02.028.013.05.034.085.036.5.031.984.02 1.481-.053.578-.086 1.25-.206 1.801.062.012.001.018.01.03.012h.011a.25.25 0 0 0 .197.02q.666.05 1.328.125a.2.2 0 0 0 .139-.031c.095.046.211.064.291.012.638-.412 1.55.219 2.199.363.015.003.021-.005.036-.004.011.002.017.012.028.014.78.082 2.138.13 2.514.96.059.13.269.172.39.123.78.174 1.279.868 1.669 1.523.006.01.017.018.024.027.002.03.013.064.046.102.452.53.973 1.051 1.113 1.76.014.066.065.112.129.145.7.726 1.518 1.782 1.078 2.825-.053.032-.08.086-.041.166.424.923.517 2.056.238 3.032-.005.02.012.033.013.05-.054.034-.083.089-.047.173.268.62.33 1.426.012 2.041-.033.065-.018.123.018.173.002.897.057 1.983-.509 2.731-.221.291-.46.557-.668.846a3 3 0 0 0-.302.497c-.098.215.377.35.477.13.288-.626.906-1.03 1.169-1.668.334-.81.317-1.726.318-2.585 0-.016-.016-.023-.02-.037.297-.682.256-1.495-.03-2.174"/><path fill="#a86c35" d="M1.5 98.053c-.218 1.575-.036 3.168-.109 4.751a.2.2 0 0 1 .085.078c.123.258.348.445.582.605-.103-1.833-.03-3.65.477-5.43.06-.201.537-.071.483.127-.525 1.825-.59 3.694-.466 5.578.007.011.024.018.028.03.085.303.354.552.578.796.025-.002.043-.011.07-.008.203-1.907.552-3.794.802-5.695.025-.198.508-.081.48.13-.263 1.994-.64 3.974-.836 5.973-.002.02-.024.024-.035.038.471.88 2.086 3.09 2.67 3.108-.345-1.49-1.105-2.923-1.111-4.468 0-.064.039-.1.091-.12.282-1.54.346-3.091.382-4.654.006-.23.49-.142.483.049-.037 1.629-.097 3.249-.403 4.853-.006.03-.036.04-.058.055.045 1.41.68 2.728 1.036 4.082.606-1.034.75-2.068.672-3.228-.073-.04-.127-.095-.096-.158.93-1.93 1.056-4.12 1.937-6.058.008-.018.03-.019.042-.03-.045-.156.371-.135.47.006.94 1.36-.711 3.61 1.372 4.098.068-1.458.1-2.945.398-4.379-.58.168-1.245.191-1.852.132-.717-.072-1.406-.142-2.116-.295-.695-.146-1.348-.46-1.984-.78-.337-.172-.752-.32-1.03-.576-.198-.184-.339-.373-.594-.514a1.4 1.4 0 0 1-.51-.427c-.121-.152-.22-.313-.35-.47-.102-.124-.248-.223-.378-.324-.055-.045-.225-.225-.377-.358a27 27 0 0 0-.802 3.454c0 .015-.02.017-.03.03"/><path fill="#010101" d="M12.015 98.246c.043-.208-.438-.33-.479-.13l-.01.065c-.297 1.434-.33 2.92-.398 4.378-2.082-.49-.431-2.74-1.372-4.098-.099-.14-.515-.162-.47-.006-.012.013-.034.013-.042.03-.881 1.939-1.008 4.128-1.937 6.058-.031.063.023.117.096.158.078 1.161-.066 2.195-.672 3.229-.356-1.355-.992-2.673-1.036-4.083.022-.016.051-.024.058-.055.306-1.604.366-3.225.403-4.853.006-.191-.477-.279-.483-.049-.036 1.564-.1 3.113-.382 4.653-.052.02-.091.057-.091.121.006 1.545.766 2.978 1.11 4.468-.583-.017-2.198-2.227-2.669-3.108.01-.014.033-.018.035-.038.197-2 .573-3.98.836-5.972.028-.212-.455-.329-.48-.13-.251 1.9-.6 3.787-.801 5.694-.028-.003-.046.007-.07.008-.225-.244-.494-.493-.58-.797-.003-.012-.02-.019-.027-.03-.123-1.883-.059-3.752.466-5.576.054-.2-.423-.33-.483-.129-.507 1.78-.58 3.598-.477 5.431-.235-.16-.46-.347-.582-.605a.2.2 0 0 0-.085-.078c.073-1.583-.109-3.176.11-4.75.008-.014.029-.016.032-.033.187-1.174.463-2.317.802-3.454.026-.09.046-.182.074-.272.059-.195-.416-.327-.48-.128a27 27 0 0 0-.867 3.675c-.013.016-.036.02-.04.04-.237 1.672-.009 3.357-.118 5.036-.008.112.122.191.25.217.186.255.446.459.706.624a.4.4 0 0 0 .212.056c.003.037.002.074.005.111.006.073.085.123.174.152.186.292.464.534.669.804.043.057.134.088.22.093.514 1.086 2.573 4.07 3.565 3.48.079-.009.14-.039.125-.115.022-.024.048-.036.068-.064a.1.1 0 0 0 .023-.066c.098.024.199.014.24-.054.691-1.168.838-2.329.712-3.662 0-.003-.006-.005-.006-.01.783-1.73.982-3.652 1.67-5.411.164.758-.161 1.601-.033 2.373.158.976.953 1.328 1.848 1.474l.001.001.031.006c.017.003.02-.006.036-.005q.068.007.115-.016c.01-.006.014-.013.02-.02.018-.017.045-.025.047-.052.073-1.526.094-3.085.411-4.586"/><path fill="#a86c35" d="M62.81 38.445c.214.002.435-.021.662-.083.004-.001-.004-.005 0-.006 1.235-.24 1.936-2.189 2.374-3.193.687-1.571 1.069-3.212 1.349-4.899.278-1.662.506-3.32.981-4.94.175-.595.991-2.725.535-3.466-2.12 2.092-1.944 5.28-3.511 7.709-.07.11-.508-.083-.48-.13 1.558-2.41 1.407-5.56 3.466-7.666 0-.002-.007-.005-.007-.008.063-.345.137-.635.25-.944q-.027-.02-.059-.04c-1.49.14-1.91 1.711-2.288 3.03-.487 1.7-1.247 3.33-1.892 4.974-.04.105-.509-.05-.48-.126.746-1.908 1.535-3.786 2.118-5.75.33-1.11.836-1.966 1.769-2.244-.041-.024-.066-.05-.059-.074.124-.449.218-1.05 0-1.497l-.009-.005c-1.411.3-1.891 2.802-2.329 3.9-.709 1.761-.866 4.045-2.095 5.542-.09.107-.504-.1-.482-.129.687-.84.955-1.937 1.245-2.956.315-1.095.7-2.14 1.087-3.206.332-.921.726-2.423 1.619-3.058-.058-.024-.103-.055-.106-.093a1.13 1.13 0 0 0-.201-.572 1 1 0 0 0-.086-.098c-.02-.02-.078-.045-.082-.058-.142.007-.28.097-.389.174h-.002l.001.002c-1.207.885-1.584 2.628-1.985 3.986-.553 1.882-.822 3.883-1.627 5.683-.05.107-.51-.057-.48-.127.806-1.8 1.07-3.802 1.627-5.685.407-1.373.784-3.101 1.999-4.006.102-.323.073-.497-.022-.587-.37-.092-.846.134-1.173.382-.72.607-1.005 1.857-1.236 2.698-.54 1.962-.869 3.973-1.4 5.934l.002.003c-.16 1.428-.648 3.04-1.746 4.03-.059.055-.247-.015-.306-.035-2.015-.666-.518-6.834-2.619-6.513-.356.246-.016 1.125.042 1.452.13.716.056 1.504.091 2.231.074 1.524-.17 2.993-.193 4.512-.022 1.617.323 2.7 1.59 3.496.23.106.43.197.53.257.095.057.212.11.327.162.366.133.759.227 1.1.405-.644-1.65.354-3.538 1.612-4.773.083-.083.514.099.455.157-.884.87-1.501 1.889-1.768 3.104-.245 1.113.257 2.237 1.127 2.79.3.12.617.244.91.309.061.015.148.031.244.045"/><path fill="#010101" d="M68.927 21.67a.7.7 0 0 0-.206-.056c.06-.298.13-.574.262-.88.034-.08-.308-.147-.347-.151a3 3 0 0 0-.585-.007c.125-.504.203-1.146-.123-1.567-.035-.046-.13-.07-.223-.086a.7.7 0 0 0-.168-.047 1.55 1.55 0 0 0-.632.123 1.1 1.1 0 0 0-1.117-.817c.076-1.087-1.625-.796-2.226-.132-.823.91-1.106 2.177-1.404 3.358q-.034.133-.067.262l-.065.248c-.431 1.576-.664 3.196-1.092 4.77l.002.002c-.096.854-.304 1.722-.678 2.497-.223.467-.84 1.962-1.242.99-.414-1.006-.389-2.159-.5-3.227-.075-.716-.203-1.528-.557-2.103a1.6 1.6 0 0 0-.491-.523q-.032-.02-.066-.037c-.076-.041-.164-.067-.251-.094a1.7 1.7 0 0 0-.705-.074c-.056-.012-.106-.015-.137.002-.59.33-.048.963-.004 1.501.06.744.054 1.49.09 2.231.08 1.631-.229 3.216-.193 4.838.02.96.103 2.132.924 2.784.46.364.952.677 1.5.898.397.161 1.339.419 1.56.674.033.037.104.058.181.073.107.203.235.402.4.594.824.963 2.284 1.155 3.412.733.003-.002-.014-.012-.02-.017 1.035-.435 1.66-1.977 2.055-2.88.787-1.805 1.229-3.655 1.532-5.6.292-1.876.718-3.653 1.186-5.483.17-.675.781-2.302-.005-2.797m-7.274 16.422c-.87-.553-1.371-1.677-1.127-2.79.267-1.215.885-2.233 1.768-3.104.059-.059-.371-.24-.455-.157-1.258 1.236-2.256 3.123-1.612 4.773-.341-.178-.734-.272-1.1-.405-.077-.029-.159-.048-.232-.082a6 6 0 0 1-.624-.336c-1.267-.795-1.611-1.88-1.59-3.496.022-1.52.267-2.988.193-4.512-.035-.727.04-1.515-.091-2.231-.058-.327-.398-1.206-.042-1.452 2.102-.321.604 5.847 2.62 6.513.058.02.246.09.305.034 1.099-.99 1.587-2.6 1.746-4.03l-.002-.002c.532-1.961.86-3.972 1.4-5.934.232-.84.517-2.091 1.236-2.698.04-.033.075-.072.117-.102.364-.253.86-.462 1.056-.28.096.09.125.264.022.587-1.214.906-1.592 2.633-1.999 4.006-.558 1.883-.82 3.885-1.626 5.685-.032.07.43.234.48.127.804-1.8 1.073-3.802 1.626-5.683.4-1.358.777-3.101 1.985-3.987h.001c.109-.08.247-.168.389-.175.005.012.06.038.083.058q.045.045.085.098c.117.173.189.362.201.572.003.04.049.069.106.092-.893.636-1.287 2.138-1.619 3.058-.387 1.067-.771 2.112-1.087 3.207-.29 1.02-.558 2.116-1.245 2.956-.022.029.391.236.482.128 1.229-1.496 1.386-3.78 2.095-5.541.438-1.098.918-3.6 2.33-3.9l.006-.003q0 .004.003.008c.217.447.123 1.048 0 1.497-.008.023.018.049.058.073-.933.279-1.44 1.137-1.769 2.244-.583 1.965-1.372 3.843-2.117 5.75-.03.078.44.232.48.127.645-1.645 1.404-3.274 1.89-4.974.379-1.319.8-2.89 2.29-3.03.026-.003.049-.013.076-.015l-.018.054a5.6 5.6 0 0 0-.25.945c0 .001.007.004.007.007-2.059 2.104-1.909 5.256-3.467 7.667-.027.046.41.238.481.129 1.567-2.43 1.39-5.619 3.511-7.71.455.742-.36 2.872-.535 3.466-.475 1.62-.703 3.279-.98 4.941-.281 1.687-.663 3.328-1.35 4.9-.438 1.003-1.139 2.953-2.373 3.192-.005.001.003.005 0 .006-.228.06-.45.085-.663.083a2.2 2.2 0 0 1-1.155-.354"/></svg>