<svg xmlns="http://www.w3.org/2000/svg" xml:space="preserve" width="214.03" height="270.715" viewBox="2.5 4.5 214.03 270.715"><title>centaur-d</title><g fill-rule="nonzero"><path fill="#ffd0ae" d="M212.9 15.1c-1.3 1.7-3.5 4.3-6.1 5.1l-5.5-3.5s0-3.5 1-5.2c.7-1 1.4-1.5 2.1-3.5.7-1.8 4.8-3.9 5.8-2.5 0 0 1.9-1 2.5 1.2 0 0 2 .1 2.5 2 0 0 1.1.3.6 3-.2 1.5-1.2 3.8-2.9 3.4"/><path fill="#ffd0ae" d="M213.4 12.3c-1.1 1.2-2.1 1.5-2.5 1.2-.8-.7.9-2.7 1.6-3.9s.2-1.4.2-1.4c-1 2.6-3.1 3.6-3.4 3.4-.8-.4-.7-.9-.5-1.3-.9.9-1.7.3-2-.1-.5-.9 2.1-4.5 2.1-4.5.2-.3.5-.5.9-.7.3 0 .4.2.5.4 0 0 1.9-1 2.5 1.2 0 0 2 .1 2.5 2 0 0 1.1.3.6 3-.3 1.4-1.2 3.6-2.8 3.4-.1-.1-.3-.2-.4-.3-.6-.7.3-1.9.7-2.4"/><path fill="#bf8865" d="M210.1 5.1s.2 0 .4.3.4.8.3 1.4q-.15.9-.6 1.8c-.2.3-.3.6-.5.9s-.3.6-.7.9-.8.4-1.2.4-.9-.1-1.2-.6c-.1-.2-.1-.5 0-.7.1-.1.1-.3.2-.5.1-.3.3-.6.4-.8.5-1 1-1.6 1-1.6s-.3.7-.7 1.7c-.1.3-.2.5-.3.8-.1.1-.1.3-.1.4v.3c.1.1.4.2.7.2s.6-.1.8-.3c.2-.1.4-.5.6-.8s.4-.6.5-.9c.3-.6.6-1.1.7-1.6q.15-.75 0-1.2c-.1 0-.3-.1-.3-.1"/><path fill="#bf8865" d="M208.7 10.4v.4c0 .2.2.6.5.6.3.1.7-.1 1.1-.5.2-.2.4-.3.6-.5l.6-.6c.2-.2.3-.4.5-.7.1-.2.3-.5.4-.7.2-.5.3-.9.4-1.3 0-.4 0-.8-.1-1s-.1-.4-.1-.4.1.1.2.3.3.6.3 1 0 1-.2 1.5c-.1.3-.2.5-.4.8-.1.3-.3.5-.5.8-.3.4-.8.9-1.2 1.3-.2.2-.5.3-.8.4q-.45.15-.9 0c-.3-.1-.4-.4-.5-.6s-.1-.4 0-.5c0-.2.1-.3.1-.3M214.5 7.4s.2.1.5.4c.2.3.6.9.5 1.6 0 .4-.1.7-.3 1.1s-.4.7-.7 1c-.5.6-1.1 1.3-1.8 1.9-.4.3-.7.6-1.4.6-.4 0-.6-.3-.7-.6 0-.1-.1-.1-.1-.2v-.6c.1-.5.4-.8.6-1.1l.6-.9c.9-1 1.5-1.6 1.5-1.6s-.5.7-1.2 1.9c-.2.3-.4.6-.5.9-.2.3-.3.7-.4 1-.1.2.2.7.3.6.2 0 .6-.2.9-.5.7-.5 1.2-1.2 1.8-1.8.3-.3.5-.6.7-.9s.3-.6.4-.9c.1-.6 0-1.1-.2-1.5-.4-.3-.5-.4-.5-.4"/><path fill="#bf8865" d="M213.2 12.9s0 .2-.1.5c0 .3-.2.7-.1 1.1v.2c0 .1 0 .1.1.2s.3.1.4.1h.6l-.1.1c-.1 0-.2.2-.4.2-.1 0-.2.1-.3.1s-.3 0-.4-.1-.3-.2-.3-.3c-.1-.1-.1-.3-.2-.4-.1-.5 0-1 .1-1.3s.2-.5.2-.5z"/><path fill="#ffd0ae" d="M207.6 10.7s-3.5 6-5.2 2c-.3-.7.7-3.6 2.5-4.7 1.5-1 5.9-.2 5.4 2.1-.3 1-2.7.6-2.7.6"/><path fill="#bf8865" d="m209.9 8.6.2.2c.1.1.3.3.5.6.1.2.1.3.1.6 0 .2-.1.5-.3.6-.1.1-.2.2-.3.2 0 .1-.1.2-.2.2-.2.1-.5.1-.7.1-.9.1-1.7-.1-2.3-.4-.3-.1-.5-.3-.7-.4s-.2-.2-.2-.2.4.2 1 .2c.6.1 1.4.2 2.2.1.2 0 .4 0 .5-.1.1 0 .1 0 .2-.1 0 0 .1-.1.2-.1.2-.2.3-.5.2-.7-.1-.3-.2-.5-.2-.7-.1 0-.2-.1-.2-.1"/><path fill="#bf8865" d="M201.6 13.8s-.1-.2-.1-.5.1-.8.2-1.4c.2-.5.4-1.2.7-1.8l.6-.9c.3-.3.5-.6.8-.8.3-.3.6-.5 1-.6.2-.1.4-.1.5-.2.2 0 .4-.1.6-.1.4 0 .7-.1 1.1 0 .3 0 .7.1.9.2.3.1.5.2.7.3s.4.2.5.3c.3.2.4.3.4.3s-.2-.1-.5-.2c-.2-.1-.3-.1-.5-.2s-.5-.1-.7-.2c-.3-.1-.6-.1-.9-.1s-.6.1-.9.1l-.9.3c-.3.2-.6.3-.9.6-.3.2-.5.5-.7.7-.2.3-.4.5-.6.8-.4.6-.6 1.1-.9 1.6-.1.3-.2.5-.3.7s-.1.4-.1.6c0 .3.1.5 0 .5M207.4 10.5s.1 0 .2.1l.3.3c.2.3.3.8.3 1.3s-.1.9-.3 1.3c-.2.3-.3.5-.3.5s0-.2-.1-.6v-2.3c0-.4-.1-.6-.1-.6"/><path fill="#ccad87" d="M200.4 13.8s7-.7 8.8 6.9l-1.7 2.5s1.3 2.5-.3 5c-1.6 2.4-3.9 3.3-4.5 5s-7.2 9.6-9.2 12.1c-6.1 7.7-13.8-2.7-13.3-6.6.6-3.9 4.4-6.9 5.6-9.1s3.5-5.2 4.9-6.4 3.1-4.7 4.7-5.7c1.7-1 3.2-1.3 3.2-1.3z"/><path fill="#8c6c54" d="M203.1 19.1s.4.2 1.1.7 1.7 1.2 2.6 2.2c.5.5.9 1.2 1.3 2 .3.8.5 1.7.3 2.6-.1.5-.3.9-.6 1.3s-.6.8-.8 1.1c-.6.7-1.2 1.5-1.8 2.2s-1.4 1.3-1.9 2c-.6.7-1 1.5-1.5 2.2-1 1.5-2 2.8-2.9 3.9s-1.7 1.9-2.3 2.5l-.9.9s.3-.4.8-1 1.3-1.6 2.1-2.7c.9-1.1 1.8-2.5 2.7-4 .5-.7.9-1.5 1.5-2.3s1.3-1.4 1.9-2.1l1.8-2.1c.3-.4.6-.7.8-1.1s.4-.7.5-1.1c.2-.8.1-1.6-.2-2.3s-.7-1.4-1.1-1.9c-.9-1.1-1.8-1.9-2.4-2.4-.6-.4-1-.6-1-.6M200.7 17.2s-.3-.3-1-.6c-.3-.1-.8-.3-1.3-.3s-1.1.2-1.6.5-1 .7-1.6 1.3c-.5.5-1 1.1-1.5 1.7s-.9 1.3-1.4 2-1.1 1.4-1.7 2c-1.2 1.2-2.3 2.5-3.2 3.8-.5.6-.9 1.3-1.3 1.9s-.8 1.2-1.2 1.7c-.8 1-1.5 1.8-2.1 2.3l-.8.8s.3-.3.8-.9 1.1-1.4 1.9-2.5c.4-.5.7-1.1 1.1-1.8s.8-1.3 1.2-2c.9-1.3 2-2.7 3.2-4 .6-.6 1.2-1.2 1.6-1.9.5-.7.9-1.4 1.5-2 .5-.6 1.1-1.2 1.6-1.7s1.1-1 1.7-1.3 1.2-.4 1.8-.4c.5 0 1 .2 1.3.4s.6.4.7.5c.2.4.3.5.3.5M200.3 13.8s.2-.1.5-.1.8-.1 1.4 0c.3 0 .6.1 1 .2.3.1.7.2 1 .3.4.1.7.3 1.1.5s.7.5 1 .7l.9.9c.2.3.5.6.7.9s.4.7.5 1c.2.3.2.6.4.9.2.6.3 1.1.4 1.4s.1.5.1.5-.1-.2-.2-.5-.3-.8-.6-1.3c-.1-.3-.3-.5-.4-.8l-.6-.9c-.2-.3-.5-.6-.7-.9l-.8-.8c-.3-.2-.6-.5-.9-.7s-.6-.4-1-.5c-.6-.3-1.3-.5-1.8-.7-.6-.1-1-.2-1.4-.2-.4.1-.6.1-.6.1M191.5 45.1s0-.3-.1-.7c0-.2-.1-.5-.1-.7 0-.3-.1-.5-.1-.8q-.15-.9-.3-1.5c0-.2-.1-.4-.1-.5v-.2s.2.2.4.6c.1.2.2.4.3.7s.1.6.2.8c.1.6.1 1.2 0 1.6s-.2.7-.2.7"/><path fill="#ccad87" d="M185.3 36.2c-2.4-2-8-.2-10 1.9s-12.7 6.9-15.8 9.3-10.7 8.9-6.5 17.3c4.8 9.7 24.8-2.1 29.7-7.6s7.1-7.1 7.8-9.1-1.9-9.1-5.2-11.8"/><path fill="#8c6c54" d="M190.4 44.4s0 .1.1.4c.1.2.1.6.2 1 .1.5.1 1 0 1.7-.1.6-.4 1.3-.8 2-.8 1.4-2.1 2.7-3.5 4.1s-2.8 3-4.2 4.5c-.8.7-1.5 1.5-2.4 2.1q-1.2 1.05-2.4 1.8-1.2.9-2.4 1.5c-.8.4-1.5.8-2.3 1.2-.7.4-1.4.6-2 .9q-.9.45-1.5.6c-.9.3-1.3.5-1.3.5s.5-.2 1.3-.6c.4-.2.9-.4 1.5-.7s1.2-.6 1.9-1 1.4-.8 2.2-1.3 1.5-1 2.3-1.6l2.4-1.8c.8-.7 1.5-1.4 2.3-2.1 1.5-1.4 2.9-3 4.3-4.4.7-.7 1.4-1.3 2-1.9s1.2-1.3 1.6-1.9.7-1.3.9-1.9.2-1.2.1-1.6c-.3-1-.3-1.5-.3-1.5M185.3 36.2s-.5 0-1.3-.1-1.9-.3-3.3-.4c-.7 0-1.4 0-2.1.3s-1.3.7-2 1.2c-1.4 1.1-2.9 2.1-4.4 3.1-1.6 1-3.2 1.9-4.7 2.6-.8.4-1.5.7-2.2 1.1s-1.3.7-1.9 1.1c-2.4 1.4-4 2.3-4 2.3s.4-.3 1-.8c.7-.5 1.6-1.1 2.7-1.9.6-.4 1.2-.8 1.9-1.2s1.4-.8 2.2-1.2c1.5-.8 3.1-1.7 4.6-2.7 1.6-.9 3.1-1.9 4.4-3 .7-.5 1.4-1 2.2-1.2s1.6-.3 2.3-.2 1.3.2 1.9.3c.5.1 1 .2 1.4.3.8.4 1.3.4 1.3.4"/><path fill="#73432d" d="M164.9 122.9c6.8 2.1 11 8.4 10.8 24 0 0 20 1.3 22.5 2 2.6.7 6.3 18.7 5 21.5s-5 13.9-5 13.9l-6.3-4.4s-.4-3.5.3-10.6c0 0-.1-2.7-1.8-6.4 0 0-23.9 10.2-27.3 7.8-6.4-4.5-15-28.1-15-28.1"/><path fill="#543825" d="M176.9 168.3s-2.2.7-5.4 1.6c-.8.2-1.7.5-2.6.8q-1.35.45-3 .6c-1.1.1-2.3-.1-3.3-.7s-1.8-1.5-2.5-2.4-1.4-1.9-1.9-2.8c-.6-.9-1.1-1.9-1.6-2.8s-1-1.9-1.4-2.7c-.4-.9-.8-1.7-1.1-2.5-1.4-3.1-2.1-5.2-2.1-5.2s.9 2.1 2.4 5.1c.7 1.5 1.7 3.3 2.7 5.1.5.9 1.1 1.9 1.6 2.8.6.9 1.2 1.9 1.9 2.7.7.9 1.4 1.7 2.3 2.3s1.9.8 2.9.7 2-.3 2.9-.5 1.8-.5 2.6-.7c3.3-1 5.6-1.4 5.6-1.4M175.7 146.7s0-.7-.1-1.8-.2-2.6-.3-4c-.1-.7-.2-1.5-.2-2.2-.1-.7-.1-1.3-.2-1.9s-.1-1-.1-1.3v-.5s.2.7.5 1.8.5 2.5.7 4c.1 1.5.2 3 .1 4.1-.2 1.1-.4 1.8-.4 1.8M175.8 147.2h3.5c1.1 0 2.3 0 3.6.1s2.7.1 4.1.2 2.8.2 4.1.3 2.5.3 3.6.4 1.9.3 2.5.4.9.3.9.3-.3 0-1-.1c-.6-.1-1.5-.1-2.5-.2-2.1-.1-4.9-.3-7.7-.5-1.4-.1-2.8-.2-4.1-.3q-1.95-.15-3.6-.3c-2-.1-3.4-.3-3.4-.3"/><path fill="#b3927e" d="M192.9 208.1c-4.5-2.8-6.7-6-8.8-9.3 0 0 .9-1.4 2.3-3.1 3.5.8 10.3 1.7 12.8 1.7-.9 6.9-6.3 10.7-6.3 10.7"/><path fill="#d9c4b6" d="M204.2 165.5c-.5 4.3-1.1 15.4 2.1 17.5 0 0-1.8-.2-3.2-2.1 0 0 1.8 1.4 1.9 5.7s2.4 8 2.4 8-2.5-.9-3.4-2.4c0 0 1.7 4.6-.8 7.7 0 0 .7-1.3-1.3-3.4 0 0 .4 5.4-4.8 6.2 0 0 1.2-1.6.8-3.9 0 0-.9 4-6.3 4.1 1.2-1.3 2.4-3.9 2.7-4.9-.8 1.7-3.1 3.7-4 3.7.5 0 1.4-3.1.9-4.2 0 0-3.8 2.4-3.7 4.1 0 0-2.5-2.9-1.5-6.5 0 0-1-.2-2.5 2.4-.9-1 .6-4.6 1.3-5.5 0 0-1.9.6-2.7-.7 0 0 4.7-1.9 6.4-4.9 1.7-3.1 2.4-5.1 2.4-5.1s-.1.7-1.9 2.9c0 0 .2-3 1.5-4.8 2-2.9 1.2-11.3 1.2-11.3s3-2.1 4.6-1.4 2.5 2.3 4.1 1 3.8-2.2 3.8-2.2"/><path fill="#73432d" d="M107.2 164.9s3.2 27.4-8.9 39.2-11.7 22.8-10 31.5c1 5.4 4.1 21.8 9.3 22.6 5.6.9 5.4 9.9 5.4 9.9-2.9 1.4-8.9 2.8-12 2.3 0 0-1-7.3-3.3-7.6s-5.4-1.6-4.7-5.1-3.1-17.8-5.2-22.1-8-11.8-5.3-17.1c2.7-5.2 8.8-19.4 4.9-27.3-3.9-7.8-22.5-37.2-3.9-44.9 18.6-7.5 32.7-1.9 33.7 18.6"/><path fill="#b3927e" d="M90.5 270.8c3.1.4 9.7-1.3 12.5-2.7 0 0 .1-3.8-1.4-6.7-3.3 1.4-10.2 3.2-12.6 3.6 1.1 2 1.5 5.8 1.5 5.8"/><path fill="#543825" d="M77.2 227.1s-.4-.4-.7-1.1c-.2-.3-.4-.8-.5-1.2-.2-.5-.2-1-.3-1.5v-.8c0-.3.1-.5.2-.8.1-.2.1-.5.3-.7.1-.2.2-.4.3-.5.2-.3.5-.5.7-.7.2-.1.3-.2.3-.2s-.1.1-.2.3c-.1.1-.1.2-.2.3s-.1.3-.2.5-.1.4-.2.5c-.1.2-.1.4-.2.6s-.1.4-.1.7v.7c0 1 .3 1.9.5 2.6.2.8.3 1.3.3 1.3M76.2 209.7l.6-1.8c.4-1.1.8-2.8 1.2-4.7.4-2 .7-4.3.6-6.8-.1-1.2-.4-2.5-1-3.7l-1.8-3.6c-1.3-2.4-2.6-4.8-3.7-7.1s-2-4.5-2.8-6.4c-.7-1.9-1.2-3.5-1.6-4.7-.3-1.1-.5-1.8-.5-1.8s.2.6.7 1.7c.2.6.5 1.2.8 2s.7 1.6 1.1 2.6c.4.9.8 1.9 1.3 3s1 2.2 1.6 3.3c1.1 2.3 2.5 4.6 3.8 7 .6 1.2 1.3 2.4 1.8 3.6.6 1.2.9 2.6 1 3.9s0 2.5-.1 3.7-.4 2.3-.6 3.3c-.5 2-1.1 3.6-1.5 4.7zM99.8 202.6s.4-.5 1-1.3c.3-.4.6-1 1-1.6.4-.7.8-1.4 1.1-2.2.2-.4.4-.9.6-1.3.2-.5.4-.9.5-1.4.4-1 .7-2.1 1-3.1.3-1.1.6-2.2.8-3.4s.5-2.4.6-3.6l.3-1.8c.1-.6.1-1.2.2-1.8.1-1.2.2-2.4.3-3.5 0-1.1.1-2.3.1-3.3v-3c0-1.8-.1-3.4-.2-4.4 0-1.1-.1-1.7-.1-1.7s.1.6.2 1.7c.1.5.1 1.2.2 1.9s.2 1.6.2 2.5.1 1.9.1 3v3.3c0 1.2-.1 2.3-.2 3.6-.1.6-.1 1.2-.2 1.8l-.3 1.8c-.2 1.2-.4 2.4-.7 3.6-.2 1.2-.6 2.3-.9 3.5-.4 1.1-.7 2.2-1.1 3.1-.2.5-.4 1-.6 1.4s-.4.9-.6 1.3c-.4.8-.9 1.6-1.3 2.2s-.8 1.2-1.1 1.6c-.5.6-.9 1.1-.9 1.1"/><path fill="#d9c4b6" d="M77 234.1c1.2 4.2 2.8 15.1 0 17.7 0 0 1.7-.4 2.9-2.6 0 0-1.6 1.7-.9 5.9.6 4.2-1.1 8.3-1.1 8.3s2.3-1.3 3-3c0 0-.9 4.8 2 7.5 0 0-.9-1.1.7-3.5 0 0 .5 5.4 5.8 5.3 0 0-1.4-1.3-1.4-3.7 0 0 1.6 3.8 6.9 3-1.4-1.1-3-3.5-3.5-4.4 1 1.5 3.7 3.2 4.5 3-.5.1-1.9-2.8-1.5-4 0 0 2.1 2.8 2.4 4.6 0 0 3.3-2.5 1.7-5.8 0 0 1.8 1.5 2.1 3.9.7-1.1 1.2-2.3.8-3.7.9.6 1.4.6 2.7 2.5 0 0 .4-7.3-4.3-8 0 0 2 .3 2.5-1.1 0 0-4.9-1.1-7.1-3.8s-3.1-4.6-3.1-4.6.2.7 2.3 2.6c0 0-.7-2.9-2.3-4.5-2.5-2.5-3.9-10.1-3.9-10.1s-2.5-2.4-4-1.5-2.1 2.7-3.9 1.7-3.3-1.7-3.3-1.7"/><path fill="#453027" d="M54.3 145.2c-9.5-4.3-12.9 14.1-11.3 26.3s-4.5 15.7-7 21c-2.4 5.2.9 7.8.9 7.8-2.8.8-4.2-1.8-4.2-1.8s1.9 8.4-.9 12 .1 7.4.1 7.4c-3.5-.3-3.4-4.7-3.4-4.7-.8 7.9-8.1 9.9-8.1 9.9-.4 10.1-10.1 10.6-10.1 10.6 4.1-2.3 2.9-7.1 2.9-7.1-2.9 7.1-10.2 3.6-10.2 3.6 5.6 1.6 9.2-7.1 4.6-10.5S9 208.6 9 208.6c-2.5.6-4.2-1.5-4.2-1.5 7.4-.4 4.2-9.7 4.7-17.1.4-7.4 6.9-8.9 6.9-8.9-6-.6-4.1-5.6-4.1-5.6s-.1 4.4 6.4 2.3 2.2-19.5 3-28 7.9-16.8 19.1-19 16.5 10.4 16.5 10.4c2.4 5.6-.1 5.4-3 4"/><path fill="#261a11" d="M36.9 200.3s-.1.1-.4.2-.6.2-1.1.2c-.2 0-.5 0-.8-.1s-.6-.2-.8-.4c-.3-.2-.5-.4-.7-.6s-.4-.5-.5-.8c-.2-.3-.2-.6-.4-.9-.1-.3-.2-.6-.2-.9-.1-.6-.1-1.1-.2-1.6 0-.9.1-1.6.1-1.6s.1.6.3 1.5c.1.4.2 1 .4 1.5.1.3.2.6.3.8.1.3.2.6.4.8.1.2.3.5.5.7l.6.6c.2.1.4.3.7.4.2.1.5.1.7.2.4.1.8.1 1.1 0-.2 0 0 0 0 0M31.9 217.9s-.2.1-.5.1c-.2 0-.3 0-.6-.1-.1 0-.2-.1-.3-.1-.1-.1-.2-.1-.3-.2-.2-.2-.5-.3-.7-.6-.2-.2-.4-.5-.6-.8-.1-.3-.3-.6-.4-1-.1-.3-.2-.7-.2-1 0-.4-.1-.7-.1-1v-1.9c0-.3 0-.6.1-.8.2-1 .3-1.7.3-1.7s.1.7.1 1.7c0 .5.1 1.1.1 1.7 0 .3.1.6.1 1 0 .3.1.7.1 1s.1.6.2 1l.3.9c.1.3.2.6.4.8.1.2.3.4.5.6s.4.3.6.4.4.1.5.2c.2-.2.4-.2.4-.2M24.8 220.4q-.75 1.05-1.8 1.8c-.4.2-.7.5-1.1.6-.4.2-.8.3-1.2.4-.2.1-.4.1-.6.1s-.4.1-.7 0h-.7l-.6-.1c-.4 0-.8-.2-1.2-.3l-.6-.3-.6-.3c.8-.1 1.5-.3 2.2-.5.3-.1.7-.3 1-.5s.6-.4.9-.7c.1-.1.2-.3.4-.4.1-.1.2-.3.3-.4l.3-.5.2-.5c.2-.3.3-.7.4-1 .1-.4.2-.7.3-1.1v.6c0 .2 0 .4-.1.6-.1.4-.2.8-.3 1.1l-.2.5-.3.5c-.2.3-.5.6-.8.9s-.6.5-.9.7l-.5.3-.5.2c-.7.2-1.5.3-2.3.2.4.1.8.2 1.2.2l.6.1c.2 0 .4 0 .6.1H20c.2 0 .4 0 .6-.1l1.2-.3c.4-.1.8-.3 1.1-.5.4-.2.7-.4 1.1-.6.2-.3.5-.5.8-.8M3 230.2s.2.1.6.2 1 .2 1.7.3c.4 0 .7.1 1.1 0 .4 0 .8 0 1.3-.1.4 0 .9-.1 1.3-.3s.9-.3 1.2-.6c.4-.2.7-.5 1.1-.8.3-.3.6-.7.9-1 .2-.4.4-.7.6-1.1s.3-.7.4-1.1l.3-.9c.1-.3.1-.5.2-.7.1-.4.2-.6.2-.6s0 .2-.1.7c0 .2 0 .5-.1.8 0 .1 0 .3-.1.5 0 .2-.1.3-.1.5-.1.3-.2.7-.3 1.1l-.6 1.2c-.3.4-.6.8-.9 1.1-.4.3-.7.7-1.2.9-.4.3-.9.4-1.4.6-.5.1-1 .2-1.4.3H6.4c-.4 0-.8-.1-1.2-.2-1.3-.3-2.2-.8-2.2-.8M4.7 207.1s.5.4 1.4.7c.2.1.4.2.7.3.2.1.5.1.8.2.3 0 .6.1.8 0 .3 0 .6-.1.9-.1.3-.1.5-.2.8-.3.2-.2.5-.3.7-.5s.4-.4.6-.5c.2-.2.3-.4.5-.5.3-.3.5-.7.7-.9l.3-.3s-.1.1-.2.4c-.1.2-.2.6-.5 1-.1.2-.3.4-.4.6l-.6.6c-.2.2-.5.4-.8.6-.3.1-.6.3-.9.4s-.7.1-1 .1-.7-.1-1-.1c-.6-.2-1.1-.4-1.5-.7-.9-.5-1.3-1-1.3-1M12.2 175.4s0 .2-.1.6c0 .4-.1.9 0 1.5 0 .3.1.6.2.9.1.2.1.3.2.5s.2.3.3.4c.1.2.2.3.4.4.1.1.3.2.4.3.2.1.3.2.5.3l.6.2c.4.1.8.1 1.2.2h1.2c.8 0 1.5-.1 2.1-.2 1.2-.2 2.1-.3 2.1-.3s-.8.3-2 .7c-.3.1-.6.1-1 .2s-.7.2-1.1.2-.8.1-1.2 0-.9 0-1.3-.2l-.6-.2-.6-.3c-.2-.1-.4-.3-.5-.4-.1-.2-.3-.3-.4-.5s-.2-.4-.3-.5c-.1-.2-.1-.4-.2-.6-.1-.4-.1-.7-.1-1 0-.6.2-1.2.3-1.5-.2-.5-.1-.7-.1-.7M55.7 141.9s-.5-.9-1.4-2.1c-.2-.3-.5-.6-.8-.9l-1-1c-.4-.3-.7-.6-1.1-.9s-.8-.5-1.3-.7c-.4-.3-.9-.4-1.4-.6s-.9-.2-1.4-.3-.9-.1-1.3-.1c-.4-.1-.8 0-1.2 0s-.7 0-1 .1c-.3 0-.6.1-.8.1-.4.1-.7.1-.7.1s.2-.1.7-.2c.2-.1.5-.1.8-.2s.7-.1 1-.2c.4 0 .8-.2 1.3-.1.4 0 .9 0 1.4.1s1 .1 1.5.3 1 .3 1.5.6c.5.2.9.5 1.3.8s.8.7 1.2 1c.7.7 1.2 1.4 1.6 2.1.9 1.1 1.1 2.1 1.1 2.1M54.4 143.3s-.2-.2-.7-.6c-.4-.4-1.1-.9-2-1.4-.8-.5-1.9-1-3.1-1.2s-2.5 0-3.7.6c-.6.3-1.1.7-1.6 1.1-.2.2-.5.4-.7.7-.2.2-.4.5-.6.7-.4.5-.8 1-1.1 1.5s-.6 1-.9 1.4-.5.9-.7 1.2c-.2.4-.3.7-.5 1-.3.5-.4.8-.4.8l.3-.9c.1-.3.2-.6.4-1s.3-.8.6-1.3c.5-.9 1-2 1.8-3 .2-.2.4-.5.6-.8l.7-.7c.5-.4 1.1-.9 1.7-1.2 1.3-.7 2.8-.8 4.1-.6 1.3.3 2.4.9 3.2 1.5.9.6 1.4 1.2 1.9 1.7.5.2.7.5.7.5"/><path fill="#261a11" d="M53.3 145.1s-.3-.1-.8-.2c-.3-.1-.6-.1-1-.1s-.8.1-1.2.2c-.2 0-.4.2-.7.3-.2.1-.5.2-.7.4s-.4.3-.6.5l-.6.6c-.4.4-.7.9-1 1.4-.3.6-.6 1.1-.8 1.7s-.5 1.1-.7 1.7-.4 1.2-.6 1.7c-.2.6-.3 1.1-.4 1.6s-.3 1-.4 1.5c-.4 1.9-.7 3.1-.7 3.1s.1-1.3.3-3.2l.3-1.5c.1-.5.2-1.1.4-1.7s.3-1.2.5-1.8.5-1.2.7-1.8.6-1.1.9-1.7c.3-.5.7-1 1.1-1.5.2-.2.4-.4.7-.6.2-.2.5-.3.7-.5s.5-.3.7-.4.5-.2.7-.2c.5-.1.9-.1 1.3-.1s.7.1 1 .2c.6.2.9.4.9.4M10.3 233.7s.3 0 .7-.1 1-.2 1.7-.5c.7-.2 1.5-.6 2.3-1.1.4-.2.8-.5 1.1-.8.4-.3.7-.6 1-1 .3-.3.6-.7.9-1.1.2-.4.5-.8.7-1.2l.6-1.2c.2-.4.3-.8.4-1.1.1-.4.2-.7.3-1s.1-.6.2-.8c.1-.4.2-.7.2-.7v.7c0 .2 0 .5-.1.8 0 .3-.1.6-.2 1l-.3 1.2c-.2.4-.3.8-.5 1.3-.2.4-.5.9-.7 1.3l-.9 1.2c-.4.4-.7.7-1.1 1s-.8.6-1.2.8-.8.4-1.3.6c-.4.1-.8.3-1.2.4-.7.2-1.4.2-1.8.3zM18.5 177.7s.2 0 .4-.2c.3-.1.6-.4 1-.8s.8-1 1-1.7c.3-.7.5-1.6.7-2.5.1-.5.2-1 .2-1.5s.1-1 .1-1.6v-1.7c0-.6-.1-1.2-.1-1.8-.1-1.2-.2-2.4-.4-3.7s-.3-2.5-.4-3.8-.2-2.6-.2-3.9v-3.8c.1-1.2.2-2.4.5-3.5.1-.6.3-1.1.5-1.6s.4-1 .6-1.4c.8-1.8 1.8-3.1 2.5-4 .3-.5.6-.8.8-1s.3-.4.3-.4-.4.5-1 1.5c-.6.9-1.5 2.3-2.3 4-.2.4-.3.9-.5 1.4-.1.5-.3 1-.4 1.5-.2 1.1-.3 2.2-.4 3.4s0 2.4 0 3.7c.1 1.3.2 2.5.3 3.8s.2 2.6.4 3.8c.1 1.3.2 2.5.3 3.7 0 .6 0 1.2.1 1.8 0 .6 0 1.2-.1 1.7 0 .6-.1 1.1-.2 1.6l-.3 1.5c-.1.5-.2.9-.4 1.4-.2.4-.3.8-.5 1.2-.3.7-.8 1.3-1.2 1.7s-.8.6-1.1.7c0 .5-.2.5-.2.5"/><path fill="#874e35" d="M160.6 103.9c9.2 7.8 15.2 19.1 15.6 30.2.7 22.8-31.3 36.8-57.6 37.9-11 .5-19.3 7.5-42.1 13.8-13.5 3.7-28.9-8.8-28.9-27.5s14.9-32.3 31.9-31.2c20.3 1.3 42.8-18.8 47.5-25 4.2-5.6 24.4-6 33.6 1.8"/><path fill="#633c22" d="M80.6 127.2s.7 0 1.9-.1c.6-.1 1.4-.1 2.2-.3.8-.1 1.8-.3 2.8-.5 1-.3 2.1-.5 3.3-.8.6-.2 1.2-.3 1.8-.5l1.8-.6c1.3-.4 2.5-.9 3.8-1.4s2.5-1.1 3.8-1.7c1.2-.7 2.5-1.2 3.7-1.9s2.4-1.4 3.5-2.1 2.2-1.4 3.2-2.1 1.9-1.4 2.7-2 1.6-1.2 2.3-1.7 1.2-1 1.7-1.4l1.5-1.2s-.5.5-1.4 1.3c-.5.4-1 .9-1.6 1.5s-1.4 1.2-2.2 1.8-1.7 1.4-2.7 2.1-2 1.4-3.1 2.2c-1.1.7-2.3 1.4-3.5 2.1s-2.5 1.3-3.7 2c-1.3.6-2.6 1.2-3.9 1.7s-2.6 1-3.8 1.4c-.6.2-1.3.4-1.9.6s-1.2.3-1.8.5c-1.2.3-2.3.5-3.3.7s-2 .3-2.9.4-1.6.1-2.2.2c-1.3-.1-2-.2-2-.2M124.7 171.4s.9-.1 2.5-.3 3.8-.7 6.5-1.2c5.3-1.2 12.4-3.2 19-6.3 1.7-.8 3.3-1.6 4.8-2.5s3-1.8 4.4-2.8c.7-.5 1.4-1 2-1.5s1.3-1 1.8-1.5c1.2-1 2.2-2.1 3.1-3.1.4-.5.9-1 1.3-1.5s.7-1 1.1-1.4c.7-.9 1.2-1.7 1.6-2.4.8-1.4 1.2-2.2 1.2-2.2l-1.1 2.2c-.4.7-.9 1.5-1.5 2.5-.3.5-.7.9-1 1.5l-1.2 1.5c-.9 1-1.9 2.1-3.1 3.2-1.1 1.1-2.4 2.2-3.8 3.2s-2.9 2-4.4 2.9c-1.6.9-3.2 1.8-4.8 2.6q-2.55 1.2-5.1 2.1c-1.7.6-3.4 1.2-5 1.7-3.3 1-6.4 1.7-9.1 2.2s-5 .8-6.6 1c-1.7.1-2.6.1-2.6.1"/><path fill="#874e35" d="M162.6 106s6.5 7 9.3 6.5c0 0-2.5 1-4.1-.5 0 0 4.7 1.7 5.9 4.3 0 0-1.3-1.2-2.3-.8 0 0 4.4 2.9 2.4 7.3"/><path fill="#633c22" d="M171.8 119.3s.4.5.9 1.2c.5.8 1.1 1.9 1.6 3 .5 1.2.8 2.4.9 3.3.1.5.1.9.1 1.1v.4s-.1-.1-.1-.4c-.1-.3-.2-.6-.3-1.1-.3-.9-.7-2-1.2-3.1s-.9-2.2-1.3-3.1c-.4-.7-.6-1.3-.6-1.3M171.9 112.5s-.1.1-.3.1-.5.1-.9 0c-.7-.1-1.7-.5-2.5-1s-1.5-1.2-2-1.8c-.2-.3-.4-.5-.5-.7s-.2-.3-.2-.3.4.3 1 .7 1.3 1 2.1 1.5 1.5 1 2.2 1.2c.6.3 1.1.3 1.1.3M173.7 116.3s-.2-.3-.6-.6c-.3-.4-.8-.8-1.3-1.2s-1-.8-1.4-1.1c-.2-.1-.4-.3-.5-.3-.1-.1-.2-.1-.2-.1h.2c.1 0 .4 0 .6.1.3.1.5.2.8.3.3.2.6.4.8.6.5.5.9 1 1.1 1.5.4.4.5.8.5.8M171.4 115.5s.4.1.9.5c.2.2.5.4.8.7s.5.6.7.9.4.7.5 1.1.2.7.2 1v1s0-.1-.1-.3c0-.2-.1-.4-.2-.6-.1-.3-.2-.6-.4-.9-.1-.3-.3-.6-.5-.9-.4-.6-.8-1.2-1.2-1.6-.5-.6-.7-.9-.7-.9"/><path fill="#874e35" d="M88 172.1s-.9 27.6-14.7 37.4-15 20.8-14.6 29.6c.2 5.5.8 22.1 5.8 23.7 5.4 1.7 3.9 10.6 3.9 10.6-3 .9-9.2 1.4-12.2.5 0 0 .1-7.4-2.1-8s-5.1-2.4-3.9-5.7-.4-18.1-1.9-22.6c-1.4-4.6-6.1-12.9-2.6-17.7s11.6-17.9 9-26.2-16.7-40.2 2.8-44.9S90 151.7 88 172.1"/><path fill="#b3927e" d="M55.6 274.3c3 .9 9.7.2 12.8-.8 0 0 .6-3.8-.4-6.9-3.5.9-10.6 1.7-13 1.7.8 2.2.6 6 .6 6"/><path fill="#633c22" d="M49.1 229.1s-.3-.4-.6-1.2c-.1-.4-.3-.8-.3-1.3-.1-.5-.1-1-.1-1.5.1-.3.1-.5.2-.8s.1-.5.3-.7c.1-.2.2-.4.4-.6.1-.2.3-.4.4-.5.3-.3.6-.5.8-.6s.3-.2.3-.2-.1.1-.2.3l-.3.3c-.1.1-.2.3-.3.4s-.2.3-.3.5l-.3.6c-.1.2-.1.4-.2.7-.1.2-.1.5-.1.7-.1 1 0 1.9.1 2.7.1.7.2 1.2.2 1.2M50.6 211.8s.3-.6.9-1.7c.5-1.1 1.2-2.6 1.9-4.5s1.4-4.2 1.6-6.7c.1-1.2 0-2.5-.4-3.8s-.8-2.6-1.3-3.8c-.9-2.6-1.8-5.1-2.6-7.6-.8-2.4-1.3-4.8-1.8-6.7-.4-2-.7-3.7-.9-4.8l-.3-1.8s.1.7.4 1.8c.1.6.3 1.3.5 2.1s.4 1.7.7 2.7.5 2 .9 3.2c.3 1.1.7 2.3 1.1 3.5q1.2 3.6 2.7 7.5c.4 1.3.9 2.6 1.2 3.9.4 1.3.5 2.7.4 4s-.4 2.5-.7 3.6-.7 2.2-1.1 3.1c-.8 1.9-1.6 3.4-2.2 4.4s-1 1.6-1 1.6M75 208.2s.5-.4 1.2-1.2q.6-.6 1.2-1.5c.4-.6 1-1.3 1.5-2 .2-.4.5-.8.8-1.2.2-.4.5-.9.8-1.3.5-.9 1-1.9 1.5-2.9.4-1.1 1-2.1 1.4-3.3.4-1.1.8-2.3 1.2-3.5l.5-1.7c.2-.6.3-1.2.5-1.8.3-1.2.6-2.3.8-3.4s.5-2.2.6-3.3c.2-1 .3-2 .4-2.9.3-1.8.4-3.4.5-4.4.1-1.1.2-1.7.2-1.7s0 .6-.1 1.7c0 .5-.1 1.2-.1 1.9 0 .8-.1 1.6-.2 2.5q-.15 1.35-.3 3c-.1 1.1-.3 2.2-.5 3.3s-.5 2.3-.7 3.5c-.1.6-.3 1.2-.4 1.8l-.5 1.8c-.3 1.2-.8 2.3-1.2 3.5s-1 2.2-1.4 3.3c-.5 1-1 2-1.6 2.9-.3.5-.5.9-.8 1.3s-.6.8-.8 1.2c-.5.8-1.1 1.4-1.6 2s-.9 1-1.3 1.4c-1.1.7-1.6 1-1.6 1"/><path fill="#ebd4c5" d="M47.8 236c.5 4.3.5 15.3-2.7 17.5 0 0 1.8-.2 3.2-2.1 0 0-1.8 1.4-1.8 5.7s-2.3 8-2.3 8 2.5-.9 3.4-2.5c0 0-1.6 4.6.9 7.7 0 0-.7-1.2 1.2-3.4 0 0-.3 5.4 4.9 6.1 0 0-1.2-1.5-.9-3.9 0 0 1 4 6.3 4-1.2-1.2-2.5-3.9-2.8-4.9.8 1.7 3.2 3.7 4 3.7-.5 0-1.4-3.1-.9-4.2 0 0 1.7 3.1 1.7 4.9 0 0 3.6-2 2.5-5.5 0 0 1.5 1.7 1.5 4.2.9-1 1.6-2.1 1.4-3.5.8.7 1.2.8 2.3 2.8 0 0 1.5-7.2-3.1-8.5 0 0 1.9.6 2.7-.7 0 0-4.7-1.8-6.5-4.8s-2.4-5-2.4-5 .1.7 1.9 2.9c0 0-.3-3-1.6-4.8-2.1-2.9-2.3-10.6-2.3-10.6s-2.1-2.8-3.7-2.1-2.5 2.3-4.1 1.1c-1.3-1.2-2.8-2.1-2.8-2.1"/><path fill="#ccad87" d="M160.6 106.9s8.6 2.6 9.4 4.6c0 0-10.9 12.3-23.1 11.8s-29.1 1.5-35.4-9.9l6.3-8.4s33.7 8.7 42.8 1.9"/><path fill="#8c6c54" d="M170 111.5s-.2-.2-.6-.4c-.4-.3-.8-.6-1.3-.9s-1-.6-1.4-.8c-.2-.1-.4-.2-.5-.3s-.2-.1-.2-.1.3 0 .8.1 1 .3 1.6.6c.5.3 1 .8 1.2 1.2.3.3.4.6.4.6"/><path fill="#633c22" d="M114.7 109s4.5 8.9 23.8 8.5c15-.4 24.4-3.9 27.8-8.4l-1.9-2.4s-5.4 7-28.6 5.9c-9-.4-18.1-9-18.1-9z"/><path fill="#633c22" d="M119.9 110.2c-2.7 1.7-4.6 10.6-3.9 14.3s9.8 7.6 14.2 4.4c4.5-3.2 3.8-12.8 1.7-14.7-2-2-10.6-4.9-12-4"/><path fill="#45281c" d="M119.3 111.4s.1.2.2.7c.1.4.4 1 .7 1.8.3.7.7 1.5 1.2 2.3.3.4.6.8.9 1.1q.6.45 1.2.3l1.5-.3 1.5-.3c1-.2 1.9-.4 2.6-.6 1.5-.3 2.6-.5 2.6-.5s-1 .4-2.5.9c-.8.2-1.6.5-2.6.8-.5.1-1 .2-1.5.4-.5.1-1 .2-1.6.3h-.4c-.2 0-.3 0-.5-.1-.2 0-.3-.1-.4-.2s-.3-.1-.4-.2c-.4-.4-.8-.8-1-1.2-.5-.9-.8-1.8-1.1-2.5-.3-1.7-.4-2.7-.4-2.7"/><circle cx="8.402" cy="6.203" r="1" fill="#8c7539" transform="rotate(-5.451 1221.172 -1146.58)"/><path fill="#45281c" d="M120.8 128.9s.4.1 1 .4c.7.2 1.6.5 2.8.7s2.6.2 3.9-.4q1.05-.45 1.8-1.2c.5-.5.9-1.2 1.2-2 .7-1.4 1.2-2.9 1.4-4.4.1-.7.2-1.4.2-2.1s0-1.3-.1-1.9c0-.3-.1-.6-.1-.8 0-.3-.1-.5-.2-.8-.1-.5-.3-.9-.4-1.2-.3-.6-.4-1-.4-1s.1.1.1.3c.1.2.2.4.4.7.1.3.3.7.5 1.2s.3 1 .4 1.6.2 1.3.2 2 0 1.4-.1 2.2c-.2 1.5-.7 3.1-1.4 4.6-.4.7-.8 1.5-1.4 2.1s-1.3 1.1-2 1.4-1.5.4-2.2.4-1.4-.1-2-.2c-1.2-.2-2.1-.6-2.8-.9-.3-.1-.6-.3-.7-.4 0-.2-.1-.3-.1-.3"/><path fill="#ffd0ae" d="M128.2 43.4s.5 8.4-4.5 10.6-3.9 3.5-3.9 3.5 13.1 16 25.2 10.3c8.4-4 8.8-11.7 8.8-11.7s-3.4-2.1-5.2-4.1c-1.9-2.1-4.1-10-4.1-10s-7.4-11-16.3 1.4"/><path fill="#ccad87" d="M127.7 49.4c2.2 2.2 16.2 18.9 16.2 18.9s3.5-17.3 4.1-18c0 0 2.7-1.3 8.7.3 4 1 5.6 4.8 5.6 4.8s.8 17 .9 20.7c.1 5.2.9 21.1 1.4 24 .6 3.4 1.5 4.4-.9 8.4s-10 4.8-18.8 5.6c-8.8.9-25.8-3.3-28.5-7.9-2.4-4.2 1.3-6.7 1.6-13.3s-8.6-34.3-8.6-34.3.4-2.2 10.6-6.1c5.5-1.9 7.7-3.1 7.7-3.1"/><path fill="#8c5634" d="M141.5 68.1s.2-.3.6-.8c.4-.4 1-1 1.6-1.5s1.2-1 1.7-1.3.9-.5.9-.5-.2.3-.6.8c-.4.4-1 1-1.6 1.5s-1.2 1-1.7 1.3c-.5.4-.9.5-.9.5"/><path fill="#8c5634" d="M140.3 65.6s.4 0 1.1.1c.6.1 1.5.2 2.3.4s1.7.5 2.3.7 1 .4 1 .4-.4 0-1.1-.1c-.6-.1-1.5-.2-2.3-.4s-1.7-.5-2.3-.7-1-.4-1-.4M137.5 64.3s.6-.4 1.6-1c.9-.5 2.2-1.2 3.5-1.9 1.3-.6 2.6-1.2 3.6-1.6s1.7-.6 1.7-.6-.6.4-1.6 1c-.9.5-2.2 1.2-3.5 1.9-1.3.6-2.6 1.2-3.6 1.6s-1.7.6-1.7.6"/><path fill="#8c5634" d="M135.2 59.7s.8.1 2 .4 2.8.7 4.4 1.2 3.1 1 4.3 1.4 1.9.8 1.9.8-.8-.1-2-.4-2.8-.7-4.4-1.2-3.1-1-4.3-1.4-1.9-.8-1.9-.8"/><path fill="#8c6c54" d="M159.3 111.8s.7-.2 1.8-.9 2.5-2.1 3.1-4.2c.3-1 .5-2.3.4-3.5-.1-1.3-.3-2.6-.5-4s-.4-2.8-.5-4.3l-.3-4.5c-.2-3-.2-6-.3-8.8s-.1-5.4-.2-7.7c-.1-2.2-.1-4.1-.2-5.4s-.2-2-.2-2 0 .2.1.5.1.9.2 1.5c.2 1.3.3 3.2.5 5.4.1 2.2.3 4.9.4 7.7s.3 5.8.4 8.8c.1 1.5.1 3 .2 4.4.2 1.5.4 2.9.5 4.3.2 1.4.3 2.7.5 4 .1 1.4-.2 2.6-.6 3.7s-1 2-1.6 2.7-1.3 1.2-1.9 1.5-1.1.5-1.4.6c-.2.2-.4.2-.4.2M119 108.7s-.1-.1-.3-.2-.6-.3-.9-.6c-.4-.3-.8-.7-1.3-1.2-.4-.5-.9-1.2-1.1-2s-.3-1.8 0-2.8c.3-.9.7-1.8 1.1-2.8.7-1.9 1.2-4 1.2-6.2.1-1.1 0-2.2-.1-3.2-.1-1.1-.3-2.1-.5-3.1-.4-2-.8-3.9-1.2-5.5q-.6-2.4-.9-3.9c-.2-.9-.4-1.5-.4-1.5s.2.5.5 1.4.8 2.2 1.2 3.8 1 3.4 1.4 5.4c.2 1 .4 2.1.6 3.1.1 1.1.2 2.2.2 3.3-.1 2.2-.6 4.4-1.4 6.4-.4 1-.8 1.9-1.1 2.7s-.3 1.7-.1 2.5c.4 1.5 1.4 2.6 2.1 3.2.4.3.7.5.9.7 0 .4.1.5.1.5"/><path fill="#874e35" d="M149.9 131.2c3.2 6.3 5.2 16.6 1.4 30.8 0 0 13 15.3 14.2 17.6s-9.1 17.5-12 18.5-13.5 6.1-13.5 6.1l-1.2-7.6s2.2-2.7 7.8-7.2c0 0 1.8-2 3.3-5.8 0 0-24.5-9.4-24.3-15.2.3-10.3-5-26.9-5-26.9"/><path fill="#633c22" d="M136.7 177.8s-1.9-1.1-4.8-2.7c-.7-.4-1.5-.8-2.3-1.3s-1.7-1-2.5-1.7-1.6-1.6-1.9-2.7-.2-2.3-.3-3.3c0-2.2-.2-4.4-.4-6.4s-.4-3.9-.7-5.6c-.4-3.3-.7-5.4-.7-5.4s.5 2.1 1.1 5.4c.3 1.6.6 3.5.8 5.6.2 2 .5 4.2.5 6.5 0 1.1-.1 2.2.2 3.2.2 1 .9 1.8 1.7 2.4 1.6 1.3 3.3 2.2 4.6 3.1 2.9 1.6 4.7 2.9 4.7 2.9M151.4 161.9s.1-.5.2-1.4c.1-.8.2-1.9.4-3s.4-2.2.6-3 .4-1.3.4-1.3v1.4c0 .8-.1 1.9-.3 3s-.4 2.2-.7 3c-.1.4-.3.7-.4.9-.1.3-.2.4-.2.4M151.1 162.3l2.5 2.5c.7.8 1.6 1.7 2.5 2.7s1.8 2 2.7 3.1 1.8 2.2 2.6 3.2 1.6 2 2.2 2.9 1.1 1.6 1.4 2.1.5.9.5.9-.2-.3-.6-.8-.9-1.2-1.6-2c-1.4-1.6-3.2-3.7-5-5.9-.9-1.1-1.8-2.2-2.7-3.2s-1.6-2-2.3-2.8c-1.3-1.5-2.2-2.7-2.2-2.7"/><path fill="#b3927e" d="M119.2 216.9c-1.1-5.2-.3-8.9.6-12.8 0 0 1.6-.3 3.8-.5 1.8 3.1 6 8.6 7.7 10.4-5.6 4.3-12.1 2.9-12.1 2.9"/><path fill="#ebd4c5" d="M157.7 195.5c-3.4 2.6-11.9 9.9-11.1 13.7 0 0-1.1-1.4-.7-3.8 0 0 .2 2.3-2.8 5.3S139 218 139 218s-1.1-2.4-.6-4.2c0 0-2.2 4.4-6.1 4.8 0 0 1.4-.4 1.5-3.3 0 0-3.6 4-7.8.8 0 0 2-.2 3.4-2.1 0 0-3.5 2.1-7.3-1.7 1.7 0 4.5-1 5.4-1.5-1.7.6-4.8.4-5.5-.3.3.4 3.2-1.2 3.6-2.3 0 0-4.3-1.1-5.6.2 0 0 .3-3.8 3.6-5.5 0 0-.5-.8-3.4-.2.1-1.3 3.7-2.8 4.9-2.9 0 0-1.7-.9-1.4-2.4 0 0 4.6 2.1 8 1.2s5.3-1.8 5.3-1.8-.6.5-3.4.7c0 0 2.3-1.9 4.5-2.2 3.5-.6 9-7 9-7s3.6.7 4.3 2.3c.6 1.6.1 3.4 2.1 3.7 2 .2 4.2 1.2 4.2 1.2"/><path fill="#ffd0ae" d="M100.3 102.4s2.8 3.8 2.6 9.8c0 2 0 3.1-1.7 2.9 0 0-.6 2.1-2.6 1 0 0-1.5 1.4-3.2.4 0 0-1.8 1.1-3.4-1.2-.9-1.3-1-4.1.4-5.1-.1-2.7 1-6 1.8-7.3"/><path fill="#ffd0ae" d="M100.7 103.2s1.9 3.4 3.2 6.1c1 2 .3 4-1.7 2.2"/><path fill="#bf8865" d="M93.1 105.5s-.1.6-.1 1.4c-.1.8-.2 1.9-.2 3v1.6c0 .3.1.5.1.7s.1.4.1.6q.15.6.3.9c.1.2.1.4.1.4s-.1-.1-.2-.3c-.2-.2-.3-.5-.5-.9s-.3-.9-.4-1.4-.1-1.1-.1-1.7c0-1.1.2-2.3.5-3.1.1-.7.4-1.2.4-1.2M96.2 114.2s.1.2.1.6c0 .3-.1.8-.2 1.2-.1.2-.2.4-.4.6s-.3.3-.5.3c-.4.1-.6 0-.6 0s.1 0 .1-.1c.1 0 .2-.1.3-.2.2-.2.4-.5.5-.9.2-.3.3-.7.5-1 0-.3.2-.5.2-.5M99.1 114s.1.2.1.6c0 .3 0 .8-.2 1.2s-.5.8-.9.9c-.3.1-.6.1-.6.1l.1-.1c.1 0 .2-.2.3-.3s.2-.3.3-.4c.1-.2.2-.3.2-.5.2-.4.3-.7.4-1 .2-.3.3-.5.3-.5M101.6 113.2s.1.2.1.6c0 .3 0 .8-.1 1.2s-.3.9-.6 1.1c-.1.1-.3.2-.4.2h-.2s0-.1.1-.1c.1-.1.1-.2.2-.3.1-.3.2-.7.3-1.1s.2-.8.4-1.1c.1-.3.2-.5.2-.5"/><path fill="#bf8865" d="M92.9 112.2v.3c0 .2-.1.3-.2.5s-.2.3-.4.4c-.1.1-.3.2-.3.2s-.1-.1-.1-.3 0-.4.1-.6.3-.3.4-.4c.4-.1.5-.1.5-.1M102.8 114.1s0-.4-.1-1q-.15-.9-.3-2.1c-.1-.8-.2-1.5-.2-2.1v-1s.2.4.4.9c.2.6.4 1.3.5 2.1s.1 1.6 0 2.2c0 .3-.1.5-.2.7 0 .2-.1.3-.1.3"/><path fill="#ccad87" d="M90.5 105.1s5.4 4.7 11.2-.7l-.1-3.1s2.5-1.4 2.6-4.4c0-3-1.4-5.1-1-6.9s-.7-12.4-.9-15.8c-.8-10.1-13-5.9-14.7-2.3s-.1 8.5-.4 11 .1 6.5.5 8.4c.5 1.9-.1 5.8.8 7.6.8 1.8 1.9 3 1.9 3z"/><path fill="#8c6c54" d="M95.6 102.2h1.3c.8-.1 2-.2 3.4-.6.7-.2 1.4-.5 2-1s1.1-1.2 1.4-2 .1-1.7 0-2.7c-.1-.9-.2-1.9-.4-2.8-.1-.9-.4-1.9-.4-2.9-.1-1 0-1.9 0-2.8 0-1.8 0-3.5-.1-4.9s-.2-2.6-.3-3.5c-.1-.8-.1-1.3-.1-1.3s.1.5.3 1.3c.1.8.4 2 .5 3.5.1 1.4.3 3.1.3 5v2.8c.1.9.3 1.8.5 2.8.1 1 .2 1.9.3 2.9.1.9.2 1.9-.1 2.9-.3.9-.9 1.7-1.6 2.2s-1.5.8-2.2 1c-1.4.4-2.7.4-3.5.4-.8-.3-1.3-.3-1.3-.3M92.6 102.3s-.1 0-.3.1c-.2 0-.5.1-.9 0s-.9-.2-1.3-.5c-.5-.3-.9-.8-1.2-1.4s-.5-1.3-.7-2.1-.3-1.6-.4-2.4-.1-1.7-.1-2.6-.1-1.7-.3-2.6c-.3-1.8-.4-3.6-.5-5.2 0-.8 0-1.7.1-2.4.1-.8.1-1.5.1-2.1 0-1.3-.1-2.4-.2-3.2s-.1-1.2-.1-1.2.1.4.2 1.2.3 1.9.4 3.2c0 .7.1 1.4 0 2.2v2.4c.1 1.7.3 3.4.5 5.2q.3 1.35.3 2.7c0 .9 0 1.7.1 2.5s.2 1.6.3 2.3c.1.8.3 1.4.6 2s.7 1 1.1 1.4c.4.3.9.5 1.2.6.6 0 1.1-.1 1.1-.1M90.3 105s.2.1.5.3.7.4 1.3.6c.5.2 1.2.4 1.9.5s1.5.2 2.2.1c.4 0 .7-.1 1.1-.2s.7-.2 1.1-.3c.3-.1.7-.3 1-.4s.6-.3.8-.4c.5-.3.9-.6 1.2-.8s.5-.3.5-.3l-.4.4c-.3.2-.6.6-1.1 1-.2.2-.5.4-.8.6s-.6.3-1 .5c-.4.1-.7.3-1.1.4s-.8.2-1.2.2-.8.1-1.2 0c-.4 0-.8-.1-1.2-.2s-.7-.2-1.1-.3c-.3-.1-.6-.3-.9-.4-.5-.3-.9-.6-1.2-.8-.2-.3-.4-.5-.4-.5M92.6 83.9s-.3 0-.7-.2c-.4-.1-.9-.4-1.4-.7-.2-.2-.5-.4-.7-.5l-.5-.5c-.3-.3-.4-.6-.4-.6s.2.2.6.5c.3.3.8.6 1.3.9.2.2.5.3.7.5.2.1.4.3.6.4s.5.2.5.2"/><path fill="#ccad87" d="M87.5 74.3c-.7-3.1 3.7-7.4 6.5-8.3s12.4-8.5 16.1-10.3 13.2-5.8 18.8 1.8c6.4 8.7-13.9 21.7-21.2 23.7s-9.8 3.3-12 3.1-7.3-5.8-8.2-10"/><path fill="#8c6c54" d="M92.5 82.6s.4.3 1.1.7c.3.2.8.4 1.3.6.5.1 1.2.2 1.9.1 1.4-.1 3-.6 4.6-1.2.8-.3 1.7-.6 2.6-.9l2.7-.9c.9-.3 1.8-.5 2.7-.8s1.7-.6 2.5-1c.8-.3 1.6-.7 2.3-1.1s1.4-.7 2-1.1c1.2-.7 2.2-1.4 2.9-1.8.7-.5 1.1-.7 1.1-.7s-.4.3-1 .9c-.6.5-1.6 1.3-2.7 2.1-.6.4-1.2.8-2 1.2-.7.4-1.5.8-2.3 1.2s-1.7.7-2.6 1l-2.7.9c-.9.3-1.8.5-2.7.8s-1.7.6-2.6.9c-1.7.6-3.3 1-4.8 1-.7 0-1.4-.1-2-.3s-1-.5-1.3-.7-.6-.5-.8-.6c-.1-.2-.2-.3-.2-.3M87.5 74.3s.2-.4.4-1.2c.1-.4.2-.9.4-1.4.1-.6.3-1.2.6-1.9s.7-1.4 1.3-2 1.4-1.1 2.2-1.5q2.4-1.2 4.8-2.7c1.6-1 3.2-2 4.7-3l2.1-1.5c.7-.4 1.4-.8 2-1.2 1.2-.7 2.3-1.3 3-1.6.7-.4 1.2-.6 1.2-.6s-1.6 1-4 2.6c-.6.4-1.2.8-1.9 1.3s-1.3 1-2 1.6c-1.4 1.1-3 2.1-4.6 3.1s-3.3 1.9-4.9 2.7c-.8.4-1.5.7-2.1 1.3-.6.5-1 1.1-1.3 1.8-.6 1.3-.9 2.4-1.2 3.2-.4.6-.7 1-.7 1"/><path fill="#bf7547" d="M155.3 64.6c1.5-.2 3.1.8 2.7 3.4s2 2.7 2.8 2.5c0 0-3.1 1.9-5.1-.8 0 0 .7 1.4 1.6 1.8 0 0-3.7-1.1-3.8-4.4-.1-1 .4-2.3 1.8-2.5"/><path fill="#8c5634" d="M160.8 70.5s-.1.1-.3.1c-.2.1-.6.1-1 0s-.9-.4-1.2-.8c-.2-.2-.3-.4-.4-.7-.1-.2-.2-.6-.2-.9 0-.6.1-1.1.1-1.6 0-.2 0-.4-.1-.6s-.2-.4-.3-.5c-.2-.3-.5-.5-.7-.6s-.3-.2-.3-.2.1 0 .4.1c.2.1.5.2.9.5.2.2.3.3.4.6.1.2.2.5.2.8.1.5 0 1.1 0 1.6 0 .3 0 .4.1.7l.3.6c.3.4.6.7.9.8.3.2.7.2.9.2.1 0 .3-.1.3-.1"/><path fill="#bf7547" d="M155.5 35.7s4.7 6.3-.2 11.2c0 0 3.5 2.2.5 7.6 0 0 3.1 2.3.1 6.2 0 0 2 1.9-.1 4.6 0 0-4.1-.1-3-4.9 0 0-2.1-2.9-.7-6 0 0-4.6-2.7-1.7-8.2 0 0-4.8-5.1-1.6-9.3s5.2-2.8 6.7-1.2"/><path fill="#8c5634" d="M153.3 38.8s-.2.3-.5.8c-.1.2-.3.5-.4.9-.1.3-.3.7-.4 1-.3.7-.4 1.4-.5 2-.1.3-.1.5-.1.7s-.1.3-.1.3 0-.1-.1-.3c0-.2-.1-.4-.1-.7v-1c0-.4.1-.8.3-1.1.3-.8.7-1.4 1.2-1.9.3-.5.7-.7.7-.7"/><path fill="#8c5634" d="m151.4 41.7-.4-.4c-.2-.2-.5-.6-.8-.9s-.6-.6-.8-.9l-.3-.3-.1-.1s.2 0 .6.2c.3.1.7.4 1 .8s.5.8.7 1.1c.1.3.1.5.1.5M153.2 48s-.2.3-.3.7q-.3.6-.6 1.5c-.2.5-.3 1.1-.3 1.5-.1.4-.1.8-.1.8s0-.1-.1-.2-.1-.3-.2-.5-.1-.5-.1-.8.1-.6.2-.9c.2-.6.6-1.2.9-1.5.3-.5.6-.6.6-.6"/><path fill="#8c5634" d="m151.1 49 .2.2c.1.1.2.3.3.4.1.2.1.4.1.5v.3l-.2-.2c-.1-.1-.2-.3-.3-.4-.1-.2-.1-.4-.1-.5zM154.9 55.1s-.1.3-.3.7-.4.9-.7 1.3c-.2.5-.4 1-.6 1.4-.1.2-.1.4-.2.5 0 .1-.1.2-.1.2s-.1-.3-.1-.7.1-1 .3-1.6c.3-.5.6-1 .9-1.3.6-.4.8-.5.8-.5M154.6 60.9v3.6s-.2-.1-.4-.5c-.1-.2-.2-.3-.2-.6-.1-.2-.1-.5-.1-.7 0-.5.1-1 .3-1.3.2-.4.4-.5.4-.5"/><g fill="#8c5634"><path d="M152.9 56.4s.1 0 .2.1l.3.3c.1.1.1.3.1.4s-.1.2-.1.2-.1-.1-.1-.2c-.1-.1-.2-.2-.2-.3s-.1-.1-.1-.2 0-.1-.1-.3c0 .1 0 0 0 0M153.4 61.7s.1 0 .2.1c.1 0 .2.1.4.2.1.1.2.2.2.4 0 .1.1.2.1.2s-.1 0-.2-.1c-.1 0-.2-.1-.4-.2-.1-.1-.2-.2-.2-.4-.1-.1-.1-.2-.1-.2"/></g><path fill="#8c5634" d="M155.9 36.3s.5.5 1 1.5 1 2.4.9 3.9c0 .4-.1.7-.1 1.1-.1.4-.2.7-.3 1s-.3.6-.4.9-.3.5-.5.7-.3.4-.5.6l-.4.4c-.2.2-.4.3-.4.3s.1-.2.3-.4c.1-.1.2-.3.3-.5l.3-.6c.1-.2.3-.5.4-.8l.3-.9c.1-.3.2-.6.2-1 0-.3.1-.7.1-1v-1c0-.3-.1-.7-.1-1-.1-.3-.1-.6-.2-.9s-.2-.6-.3-.8c-.2-.5-.3-.9-.5-1.2 0-.1-.1-.3-.1-.3M150.5 46.2s-.1.1-.2.4c-.1.2-.2.6-.3 1-.1.2-.1.4-.2.7-.1.2-.1.5-.1.8v.8c0 .3 0 .5.1.8 0 .3.2.5.2.8.1.3.2.5.3.7s.3.4.4.6.3.4.4.5c.3.4.5.6.7.8l.3.3s-.1-.1-.4-.2c-.2-.1-.6-.3-.9-.6-.2-.2-.4-.3-.5-.5-.2-.2-.3-.4-.5-.7-.1-.3-.3-.5-.4-.8l-.3-.9c-.1-.3-.1-.6-.1-.9s0-.6.1-.9.1-.6.2-.8c.1-.3.2-.5.3-.7.5-.8.9-1.2.9-1.2M155.8 54.4s.4.2.9.7c.2.3.4.6.6 1s.2.9.2 1.3c0 .2 0 .5-.1.7s-.1.4-.2.6c-.2.4-.4.7-.5 1-.2.3-.4.5-.5.6l-.2.2s0-.1.1-.3.2-.4.3-.7.2-.6.3-1c.1-.2.1-.4.1-.6.1-.2 0-.4.1-.6v-.6c0-.2 0-.4-.1-.6-.1-.4-.2-.7-.4-1-.3-.3-.6-.7-.6-.7M152.9 60.4v1c0 .3 0 .6.1 1 0 .2.1.3.1.5.1.2.1.4.2.5.1.2.2.3.3.5s.2.3.4.4c.1.1.3.2.4.3s.3.2.4.2c.3.2.5.2.7.3s.3.1.3.1h-.3c-.2 0-.5 0-.8-.1-.2 0-.3-.1-.5-.2s-.4-.1-.5-.3c-.2-.1-.4-.2-.5-.4-.2-.2-.3-.3-.4-.6-.2-.4-.3-.8-.4-1.3 0-.4 0-.8.1-1.1z"/><path fill="#bf7547" d="M118.9 69c-1.5-.1-3 .9-2.5 3.5s-1.9 2.8-2.7 2.7c0 0 3.1 1.8 5.1-1.1 0 0-.6 1.5-1.5 1.9 0 0 3.6-1.2 3.6-4.5-.1-1-.6-2.3-2-2.5"/><path fill="#8c5634" d="M113.6 75.2h.4c.2 0 .5-.1.9-.2q.45-.3.9-.9l.3-.6c.1-.2.1-.4.1-.7 0-.5-.1-1-.1-1.6 0-.3.1-.5.2-.8.1-.2.3-.4.4-.6.3-.3.6-.4.9-.5.2-.1.3-.1.3-.1s-.1.1-.3.2-.4.4-.6.7c-.1.2-.2.3-.2.5s-.1.4-.1.6c0 .5.2 1 .2 1.6 0 .3-.1.6-.2.9s-.2.5-.4.7c-.3.4-.8.8-1.2.9s-.8.1-1 0c-.3 0-.5-.1-.5-.1"/><path fill="#bf7547" d="M117.3 40.1s-4.4 6.5.7 11.2c0 0-3.4 2.3-.2 7.6 0 0-3 2.4.2 6.2 0 0-1.9 2 .3 4.6 0 0 4.1-.3 2.7-5 0 0 2-3 .4-6 0 0 4.4-2.9 1.3-8.3 0 0 4.6-5.4 1.2-9.4-3.2-4-5.1-2.6-6.6-.9"/><path fill="#8c5634" d="M119.7 43.1s.4.2.8.6.9 1.1 1.2 1.8c.1.4.3.8.3 1.1.1.4.1.7.1 1s-.1.5-.1.7-.1.3-.1.3 0-.1-.1-.3c0-.2-.1-.4-.2-.7-.1-.6-.3-1.3-.6-1.9-.1-.3-.3-.7-.5-1s-.3-.6-.5-.8c-.1-.4-.3-.8-.3-.8"/><path fill="#8c5634" d="M121.6 46s0-.2.1-.6c.1-.3.3-.8.6-1.1.3-.4.7-.7 1-.8.3-.2.6-.2.6-.2s0 .1-.1.1c-.1.1-.1.2-.2.3-.2.3-.5.6-.7.9-.3.3-.5.7-.8.9zM120.2 52.3s.3.1.7.4.8.8 1 1.4c.1.3.2.6.2.9v.8c0 .2-.1.4-.2.6-.1.1-.1.2-.1.2s0-.3-.1-.8c-.1-.4-.2-1-.4-1.5s-.5-1-.7-1.4zM118.8 59.5s.3.1.6.4.7.7 1 1.2.4 1.1.4 1.6-.1.7-.1.7 0-.1-.1-.2c0-.1-.1-.3-.2-.5-.2-.4-.4-.9-.6-1.3-.3-.5-.5-1-.7-1.3s-.3-.6-.3-.6M119.4 65.3s.2.2.4.5.4.8.4 1.2c0 .2 0 .5-.1.7 0 .2-.1.4-.2.6-.2.3-.4.5-.4.5V67c0-.4-.1-.8-.1-1.2z"/><g fill="#8c5634"><path d="M122.3 53.2v.3c0 .2 0 .3-.1.5s-.1.3-.2.5l-.2.2v-.3c0-.2 0-.3.1-.5s.1-.3.2-.5zM120.9 60.7v.4c0 .1-.1.1-.1.2-.1.1-.2.2-.2.3-.1.1-.1.2-.1.2s-.1-.1-.1-.2 0-.3.1-.5c.1-.1.2-.3.3-.3 0-.1.1-.1.1-.1M120.6 66v.2c0 .1-.1.2-.2.4-.1.1-.2.2-.4.2-.1.1-.2.1-.2.1v-.2c0-.1.1-.2.2-.4.1-.1.2-.2.4-.2.1-.1.2-.1.2-.1"/></g><path fill="#8c5634" d="M116.9 40.8s-.1.2-.2.5-.3.7-.4 1.2c-.1.3-.1.5-.2.8s-.1.6-.2.9c0 .3-.1.7-.1 1v1c0 .3.1.7.2 1s.2.6.3 1c.1.3.2.6.4.9.1.3.3.5.4.7s.2.5.4.6c.1.2.2.3.3.5.2.3.3.4.3.4s-.1-.1-.4-.3c-.1-.1-.3-.2-.4-.4-.2-.1-.3-.4-.5-.6s-.4-.4-.5-.7-.3-.6-.5-.9c-.1-.3-.3-.7-.3-1-.1-.4-.2-.7-.2-1.1-.2-1.5.2-3 .7-4 .4-1 .9-1.5.9-1.5M122.8 50.4s.5.4.9 1.2c.1.2.2.4.3.7.1.2.2.5.2.8s.1.6.1.9 0 .6-.1.9c0 .3-.2.6-.2.9-.1.3-.3.5-.4.8-.2.2-.3.5-.5.7l-.5.5c-.3.3-.7.5-.9.7-.2.1-.3.2-.3.2l.3-.3c.2-.2.4-.5.7-.8.1-.2.3-.4.4-.6s.2-.4.4-.7c.1-.2.2-.5.3-.7.1-.3.2-.5.2-.8.1-.3.1-.5.1-.8v-.8c-.1-.3-.1-.5-.1-.7-.1-.2-.1-.5-.2-.7-.1-.4-.3-.8-.4-1-.2-.3-.3-.4-.3-.4M117.8 58.9s-.3.3-.5.9c-.1.3-.2.6-.3 1 0 .2 0 .4-.1.6v.6c0 .2 0 .4.1.6s.1.4.2.6c.1.4.3.7.4 1s.2.5.3.7.1.3.1.3l-.2-.2c-.1-.1-.4-.3-.5-.6-.2-.3-.4-.6-.6-1-.1-.2-.2-.4-.2-.6-.1-.2-.1-.4-.1-.7 0-.5 0-.9.1-1.4.1-.4.3-.8.5-1 .4-.6.8-.8.8-.8M121 64.7s.2.4.4 1c.1.3.1.7.1 1.1s-.1.9-.3 1.3c-.1.2-.2.4-.4.6-.1.2-.3.3-.5.5-.2.1-.4.2-.5.3-.2.1-.3.1-.5.2-.3.1-.6.1-.8.1h-.3s.1-.1.3-.1c.2-.1.4-.2.7-.3.1-.1.3-.1.4-.2s.3-.2.4-.3.3-.2.4-.4c.1-.1.2-.3.3-.5s.1-.3.2-.5c0-.2.1-.4.1-.5.1-.4.1-.7.1-1 0-.9-.1-1.3-.1-1.3"/><path fill="#ffd0ae" d="M122.7 33.7c-1.6-7.6-1-23.7 13.1-25.4 9-1.1 20.1 4 17.5 21.5 0 0 1.7 6.6.1 11.5s-3.8 9.5-9.6 10c-8.4.7-18.8-6.8-21.1-17.6"/><path fill="#bf8865" d="M154.3 37.1s0 .5-.1 1.4-.2 2.2-.6 3.7-1 3.2-2.1 4.9c-1.1 1.6-2.7 3.2-4.7 3.9-1 .4-2.1.5-3.1.5q-1.5 0-3-.3c-1.9-.3-3.7-.8-5.2-1.4-1.4-.6-2.5-1.4-3.2-1.9-.4-.3-.6-.5-.8-.7l-.3-.3s.4.3 1.2.8 1.9 1.1 3.3 1.7c1.4.5 3.2 1 5.1 1.2 1 .1 1.9.2 3 .3 1 .1 2-.1 2.9-.4 1.9-.7 3.4-2.1 4.5-3.7s1.8-3.3 2.2-4.7c.4-1.5.7-2.8.8-3.6 0-.8.1-1.4.1-1.4"/><path fill="#bf7547" d="M157.7 41.3c-2.6-1.2-1.7-3.1-1.1-7.1.5-3.4-1.6-5.3-2.3-5.8 1 .7 2.6-.2 2.6-.2-2.9 0-2.7-6.2-3.2-9.6-.4-3.4-4.5-9.2-9.6-10.5s-7.4-.1-7.4-.1c-5-1.3-12.3 1.2-14.1 6.7s-5.7 7.8-5.7 7.8 1.5.5 2.7 0c0 0-2.2 1.8-3 4.9-.5 2 .5 5.2-1.6 5.9 0 0 1.8 1 3.1-.1 0 0-2.7 2.8-1.5 5.2 3.9 7.8 10.2 4.6 10.2 4.6-2.8-6.7 1.3-12.3 1.3-12.3.3.3.6 1.2.8 2 0 1.6-.1 3.9-.4 5.3-.6 2.4-5.5 11.5-.9 13.2 0 0-.2-1 .2-2.4 0 0 .2 7.7 8.1 9 0 0-1.2-1-1.2-1.8 0 0 1.8 2.2 5.1 2.5 3.4.3 3.5 2 3.5 2s2.3-1 2-3.4c0 0 3.8-.1 4.4-3.2 0 0 0 1.6-.6 2.3 0 0 2.7-1.3 2.3-4.8 0 0 .4 1.4 1.8 1.4 0 0-1.4-1.5-.6-2.9s1.6-4.5 1.3-6.3c0 0 .5 2 .5 3 0 0 1-2.1 1.2-5.1 1.1.2 2.1-.2 2.1-.2m-5.8-2.4c-2 1-13.8 1.9-18.4-2.1 0 0-.1.8 0 1.4-1.6-2-2.6-4.9-3.2-8.2-.1-1.2-.2-2.5-.4-3.9-.4-3.4 1.6-8.2 5.5-10.8 3.9-2.5 7.8.1 7.8.1s1.6-2.3 5.9-.6 4.1 11.1 4.2 14.9c.4 1.7.7 3.6.8 5.8-.1 1.3-.7 2.6-2.2 3.4"/><path fill="#8c5634" d="M157.7 41.3s-.2 0-.6-.2-1-.5-1.3-1.2c-.2-.4-.2-.8-.2-1.2s.2-.8.3-1.3c.2-.8.4-1.7.5-2.6s.1-1.8 0-2.6l-.3-1.2c-.1-.4-.3-.7-.5-1-.3-.6-.7-1-1-1.3s-.5-.4-.5-.4.2.1.5.4c.2.1.4.3.6.5l.7.7c.2.3.4.6.6 1 .1.2.2.4.2.6.1.2.1.4.2.6.1.4.2.9.2 1.4s0 1-.1 1.4c-.1.9-.3 1.9-.6 2.7-.1.4-.3.8-.3 1.2-.1.4-.1.7 0 1 .2.6.6 1 1 1.2.4.3.6.3.6.3M157 28.3s-.1 0-.4-.1c-.2-.1-.6-.1-1-.4s-.6-.8-.8-1.4-.3-1.3-.4-2.1c-.2-1.5-.4-3.3-.9-5.2-.4-1.9-1.1-3.8-2.3-5.5-1.1-1.7-2.6-3.1-4.4-3.9-.9-.4-1.7-.7-2.6-1-.8-.3-1.7-.5-2.4-.6-1.5-.3-2.8-.4-3.7-.3s-1.4.3-1.4.3.4-.3 1.3-.5 2.2-.2 3.8 0c.8.1 1.6.3 2.5.5q1.35.3 2.7.9c1.8.8 3.5 2.3 4.6 4.1 1.2 1.8 1.9 3.8 2.3 5.7s.5 3.8.7 5.3q.15 1.2.3 2.1c.1.6.4 1.1.7 1.4s.7.4.9.5c.3.2.5.2.5.2"/><path fill="#8c5634" d="M143.2 15.5s-.2-.5-.5-1.1c-.3-.7-.8-1.5-1.5-2.2-.3-.4-.6-.7-1-1.1-.3-.3-.6-.6-.9-.8s-.5-.4-.7-.6c-.2-.1-.3-.2-.3-.2s.1 0 .3.1.5.2.8.4.7.4 1.1.7.7.7 1.1 1.1c.3.4.6.8.8 1.3.2.4.4.9.5 1.2.3.7.3 1.2.3 1.2M116.8 27.5s0-.6.2-1.4c.1-.4.3-.8.6-1.3s.6-.9 1-1.3c.7-.8 1.6-1.5 2.4-1.8.3-.2.7-.3.9-.4s.3-.1.3-.1-.1.1-.3.2-.5.3-.8.6c-.3.2-.7.5-1 .9l-.5.5c-.2.2-.4.4-.5.6-.4.4-.7.8-1 1.2s-.5.8-.7 1.1c-.5.7-.6 1.2-.6 1.2M115.2 33.4s.3 0 .8.1h.8c.3 0 .6-.1.9-.2s.6-.2.8-.4c.1-.1.2-.2.3-.2.1-.1.2-.2.3-.2l.4-.4.2-.2s0 .1-.1.2-.1.4-.3.6c-.1.1-.1.2-.3.4-.1.1-.2.3-.4.3-.1.1-.3.2-.4.3-.2.1-.3.2-.5.2-.4.1-.7.1-1.1.1-.3 0-.6-.1-.9-.2-.2-.2-.5-.4-.5-.4M121.6 17.4s.1-.2.2-.6l.5-1.5c.2-.6.5-1.4.8-2.1.2-.4.4-.8.7-1.1.2-.4.6-.7.8-1 .3-.3.6-.6 1-.9.3-.3.7-.5 1.1-.7s.7-.4 1.1-.5c.3-.2.7-.3 1-.4s.6-.2.9-.2.5-.1.7-.1c.4-.1.6-.1.6-.1s-.2.1-.6.2c-.2.1-.4.1-.6.2-.3.1-.5.2-.8.4-.3.1-.6.3-.9.5s-.7.3-1 .6c-.3.2-.7.5-1 .7s-.6.6-.9.9-.6.6-.8 1c-.3.3-.5.7-.7 1-.4.7-.7 1.4-1 2s-.5 1.1-.7 1.4c-.1.2-.2.3-.2.4z"/><g fill="#8c5634"><path d="m143.5 60.5.7-.7c.2-.2.4-.5.6-.8s.4-.6.4-1c.1-.3.1-.7.1-1-.1-.3-.1-.7-.3-.9-.1-.3-.2-.5-.3-.7s-.1-.3-.1-.3l.2.2c.1.1.3.3.5.6s.4.6.5 1c0 .2.1.4.1.6s0 .5-.1.7q-.15.6-.6 1.2c-.3.3-.6.5-.8.7-.5.3-.9.4-.9.4"/><path d="M145.5 57.1s.4-.1 1-.4 1.3-.6 1.9-1.1c.1-.1.3-.2.4-.4l.4-.4c.1-.1.2-.3.3-.5.1-.1.2-.3.2-.4.1-.3.2-.5.2-.7.1-.2.1-.3.1-.3V54c0 .2-.1.3-.1.5-.1.2-.1.4-.2.6-.2.4-.5.7-.8 1-.4.3-.7.5-1.1.7s-.8.2-1.1.3zM153.3 52.8s-.2-.1-.4-.3-.5-.6-.6-1.1 0-1.2.3-1.8c.2-.6.4-1.2.6-1.9.4-1.3.6-2.6.6-3.6 0-.2 0-.5-.1-.7 0-.2-.1-.4-.1-.5-.1-.3-.2-.4-.2-.4s.1.1.3.4c.1.1.2.3.2.5.1.2.1.4.2.7.2 1.1 0 2.5-.4 3.8-.2.7-.4 1.3-.7 1.9s-.5 1.1-.4 1.6c0 .5.2.9.3 1.1.3.2.4.3.4.3M154.5 46.5s.1-.4.2-1 .3-1.4.4-2.1c.1-.8.2-1.5.2-2.1 0-.3 0-.5-.1-.7 0-.2-.1-.3-.1-.3l.2.2c.1.1.1.2.2.3s.1.2.2.4c.2.6.2 1.5.1 2.3s-.4 1.6-.7 2.1c-.3.6-.6.9-.6.9M149.2 56.2s.3-.2.6-.6c.4-.4.7-.9 1-1.5l.3-.9c.1-.3.1-.6.2-.9s.1-.5.1-.6v-.2s0 .1.1.2c0 .2.1.4.1.7v1c0 .4-.1.7-.3 1.1-.2.3-.4.7-.6.9-.2.3-.5.5-.7.6-.4.2-.8.2-.8.2M136.1 57.9h-.7c-.4 0-1-.1-1.7-.3-.4-.1-.7-.3-1.1-.4-.4-.2-.8-.4-1.1-.7-.4-.3-.7-.6-1.1-.9s-.6-.7-.9-1.1c-.2-.4-.5-.8-.7-1.3s-.4-.9-.5-1.3-.2-.9-.3-1.3c0-.4-.1-.8-.1-1.2-.1-.4 0-.7 0-1v-1.5s0 .2.1.7c.1.4.1 1 .2 1.7.1.3.1.7.2 1.1s.3.8.4 1.2.3.8.5 1.2.5.8.7 1.2c.3.4.5.8.8 1.1s.6.6 1 .9c.3.3.7.5 1 .7.4.2.7.4 1 .5.6.3 1.2.5 1.6.6.4 0 .7.1.7.1M127.8 51.3s-.1 0-.4-.1c-.2-.1-.5-.2-.9-.4-.2-.1-.3-.3-.5-.5-.1-.2-.3-.4-.4-.6s-.2-.5-.2-.7c-.1-.3-.1-.5-.1-.8v-.8c0-.3.1-.5.1-.7.1-.5.3-.9.4-1.3s.3-.6.4-.8.2-.3.2-.3-.1.5-.2 1.2c0 .4-.2.8-.2 1.3 0 .2-.1.5-.1.7v.7c0 .2 0 .5.1.7 0 .2.1.4.1.7.1.4.3.8.6 1 .2.3.5.5.6.6.4 0 .5.1.5.1"/></g><path fill="#ffd0ae" d="M129.3 32.7s-1.4-5-4.8-3.6c-3.5 1.5-.5 6.7-.5 6.7s-.4 5.8 4 2.6c1-.7 1.8-3.6 1.3-5.7"/><path fill="#bf8865" d="M124.4 32.4V32c0-.3 0-.6.1-1.1.1-.2.1-.5.3-.7s.4-.4.8-.5c.3-.1.7 0 1 .1s.6.4.8.6c.4.5.7 1 .8 1.6q.3.75.3 1.5c.1.9-.1 1.5-.1 1.5s0-.6-.2-1.4-.6-1.9-1.3-2.7c-.2-.2-.3-.3-.5-.4s-.4-.1-.6-.1c-.4.1-.7.4-.9.8s-.3.7-.3 1c-.1 0-.2.2-.2.2"/><path fill="#bf8865" d="m127.7 32.1-.3.3c-.2.2-.4.4-.6.7-.4.5-.8 1.2-.8 1.2v-.5c0-.3.1-.7.4-1 .1-.2.3-.3.4-.4s.3-.2.4-.2c.2-.1.5-.1.5-.1"/><path fill="#a63e3e" d="M140.6 44.6c-1-1 .3-3 4.2-3.2 3.8-.2 5.5 2.2 3.5 3.3-1 .6-2.7-.3-4.3-.3-1.2 0-2.4 1.1-3.4.2"/><path fill="#cf7070" d="M142.9 41.6c-2.4.6-3.1 2.1-2.3 2.9 1 1 2.2-.2 3.4-.2 1 0 2 .3 2.9.4-1-1.7-2.8-2.6-4-3.1"/><path fill="#fff" d="M148 42c-.7-.4-1.8-.7-3.2-.6-1.3.1-2.3.3-3.1.7"/><path fill="#944a4a" d="M140.6 42.6s-.1.2-.1.4c-.1.3-.1.7 0 1.1.1.2.2.4.4.5s.4.1.7.1c.5 0 1.1-.2 1.7-.4.2 0 .3-.1.5-.1h.5c.3 0 .6.1.9.2.6.1 1.1.2 1.6.4.5.1.8.1 1.1.1s.4-.1.4-.1-.1.1-.4.2-.7.1-1.2.1-1-.1-1.6-.2c-.3 0-.6-.1-.9-.1h-.4c-.1 0-.3.1-.4.1-.6.2-1.2.4-1.9.4q-.45 0-.9-.3c-.3-.2-.4-.5-.5-.8-.1-.5.1-.9.2-1.2.2-.3.3-.4.3-.4"/><g fill="#4a311f"><ellipse cx="3.6" cy="3.3" rx="1.1" ry="2.1" transform="translate(134 27)"/><path d="M134.4 29.3s.2-.3.7-.7q.3-.3.9-.6c.3-.2.8-.3 1.2-.3h.6c.2 0 .4.1.6.2s.4.2.5.3c.2.1.3.2.4.3.2.2.3.4.4.6l.1.2-.2-.2-.2-.2c-.1-.1-.2-.1-.3-.2s-.2-.1-.4-.2c-.1-.1-.3-.1-.4-.2-.2-.1-.3-.1-.5-.1h-.5c-.7.1-1.4.3-1.9.6-.7.3-1 .5-1 .5"/></g><g fill="#4a311f"><ellipse cx="4" cy="3" rx="1.1" ry="2.1" transform="translate(145 27)"/><path d="M145.8 28.9s.2-.3.7-.7q.3-.3.9-.6c.3-.2.8-.3 1.2-.3h.6c.2 0 .4.1.6.2s.4.2.5.3c.2.1.3.2.4.3.2.2.3.4.4.6l.1.2-.2-.2-.2-.2c-.1-.1-.2-.1-.3-.2s-.2-.1-.4-.2c-.1-.1-.3-.1-.4-.2-.2-.1-.3-.1-.5-.1h-.5c-.7.1-1.4.3-1.9.6-.7.4-1 .5-1 .5"/></g><path fill="#bf7547" d="M135.2 25.2c-1.4-.4-2.4.4-.4 1.7 2.5 1.6 6.9 1.9 7 .5.2-1.4-1.9-.7-3.1-1s-2.4-.8-3.5-1.2M150.5 25c1.2-.4 2.1.4.5 1.7-2 1.6-5.7 1.8-6 .4-.2-1.4 1.6-.7 2.6-.9 1-.4 2-.9 2.9-1.2"/><g fill="#bf8865"><path d="M145.3 32.4s.5.2 1.1.8 1.3 1.4 1.7 2.6c.1.3.1.6.1.9v.4c0 .2-.1.3-.1.4-.2.5-.6.9-1 1.1-.7.5-1.2.6-1.2.6s.1-.1.3-.2.5-.3.7-.6c.3-.3.6-.6.7-1 0-.1.1-.2.1-.3v-.3c0-.2-.1-.5-.1-.7-.3-1-.9-1.8-1.3-2.5-.6-.7-1-1.2-1-1.2M143.6 38.7s.3-.4.7-.5c.4-.2.8-.1.9-.1l-.2.2c-.1.1-.3.2-.5.3-.5.3-.9.1-.9.1"/></g><path fill="#bf7547" d="M142.5 38.4c-2.2.3-3.6 1-3.8 2.6 0 0 .6-.6 1.2-.8 0 0-1.6.7-.8 2.7 0 0 1.9-.3 2.6-1.4 0 0 0 1 .5 1.7 0 0 2.5-.2 3-2.1 0 0 .4 1.3 2 1.3 0 0 .2-1.2-.4-2 0 0 1 1.1 1.4 1.8 0 0 .7-.7.3-1.3 0 0 .8.4 1 1.4 0 0 2.1-2.6-1.6-4.5-2.3 2.4-3.5 1.4-5.4.6"/><path fill="#8c5634" d="M139.3 42.9s.2-.1.4-.3c.3-.1.6-.3.9-.4s.6-.3.9-.4.4-.3.4-.2c0 0 0 .2-.2.5s-.5.6-.9.8-.8.2-1.1.2zM138.7 41.1s0-.2.2-.4c.1-.2.4-.4.6-.6.3-.2.6-.3.8-.3h.4l-.1.1c-.1 0-.1.1-.2.2-.2.2-.4.3-.7.5s-.5.3-.7.4c-.1 0-.3.1-.3.1M142.2 43.2s.2-.1.6-.2c.3-.1.7-.3 1.1-.6.4-.2.7-.5.9-.8l.3-.3.1-.1v.2c0 .1 0 .3-.1.5l-.3.6c-.1.2-.3.4-.5.5-.4.3-1 .5-1.4.4-.5-.1-.7-.2-.7-.2M149.4 42.3s0-.1.1-.2.1-.4.2-.6c.1-.5.2-1.1-.1-1.7-.1-.1-.1-.3-.2-.4s-.2-.3-.3-.4l-.3-.3-.3-.3c-.2-.2-.4-.3-.5-.4l-.2-.2s.1 0 .2.1.4.1.6.2.5.3.8.5.5.5.7.9.3.8.2 1.2c0 .4-.2.7-.3.9s-.3.4-.4.5c-.1.2-.2.2-.2.2M147.2 42.4s-.1-.1-.1-.3c0-.1-.1-.2-.1-.3s0-.2-.1-.4c-.1-.5-.1-1-.1-1s.1.1.3.2c.1.1.1.2.2.3 0 .1.1.3.1.4v.7c-.2.3-.2.4-.2.4M148.1 42.2V42c0-.1.1-.3.1-.4s0-.1.1-.2c0-.1 0-.1.1-.2 0-.1.1-.2.1-.2s.1.1.1.2c.1.1.1.3.1.5 0 .1-.1.2-.1.3s-.1.1-.2.2z"/><path fill="#bf8865" d="m141.9 28.1.3-.3c.1-.2.2-.4.3-.7s.1-.6.2-.8c0-.2.1-.4.1-.4s.1.1.2.4c.1.2.1.6 0 .9s-.3.7-.6.8c-.3.2-.5.1-.5.1"/></g></svg>