<svg xmlns="http://www.w3.org/2000/svg" xml:space="preserve" width="22.223" height="80.347" viewBox="1.482 2.444 22.223 80.347"><title>wand</title><g fill-rule="nonzero"><path fill="#694932" d="M10 82S8.3 66.9 8.6 60.1c.3-6 .5-15.5.9-20.3s.9-19.1.9-19.1 3.7-.9 3.9.2-.9 20.5-.9 22.8 1 14.5.2 18.2c-.9 4.1.1 19.2.1 19.2S11.8 83 10 82"/><path fill="#4f3726" d="M11.1 80.3s-.1-.5-.2-1.5c-.1-.9-.3-2.2-.5-3.8q-.3-2.4-.6-5.4c-.2-2-.4-4.1-.3-6.3.1-4.3.3-8.6.5-11.8s.4-5.3.4-5.3-.1 2.1-.1 5.3c-.1 3.2-.3 7.5-.4 11.7 0 1.1 0 2.1.1 3.2.1 1 .1 2.1.2 3.1.2 2 .3 3.9.5 5.5.2 3.1.4 5.3.4 5.3"/><path fill="#4f3726" d="M11.1 71s-.1-.5-.2-1.4c-.1-.8-.2-1.9-.2-3s.1-2.2.3-3c.1-.8.3-1.3.3-1.3v7.4c-.2.7-.2 1.3-.2 1.3M12.1 58.8s-.1-.8-.1-2-.1-2.8 0-4.4c0-3.2.1-6.4.1-6.4s.1.8.2 2 .2 2.8.1 4.4c0 1.6-.1 3.2-.2 4.4 0 1.2-.1 2-.1 2M11.4 49.8s-.1-1.5-.2-3.7-.2-5.1 0-8.1c.1-1.5.2-2.9.2-4.3.1-1.4.1-2.7.1-3.8.1-2.2.2-3.7.2-3.7s.3 5.9 0 11.8c-.1 1.5-.2 2.9-.2 4.3v3.8c-.1 2.2-.1 3.7-.1 3.7M13 23.4s.1.9.1 2.2.1 3.1 0 4.9c0 1.8-.1 3.6-.3 4.9-.1.7-.1 1.2-.2 1.6s-.1.6-.1.6v-7.1c0-1.8.1-3.6.2-4.9.2-1.4.3-2.2.3-2.2M10.4 41.4s0 .2.1.5c0 .3 0 .6.1 1 0 .4 0 .7-.1 1 0 .3-.1.5-.1.5s0-.2-.1-.5c0-.3 0-.6-.1-1 0-.4 0-.7.1-1 0-.3.1-.5.1-.5M12.4 40.1s0 .1.1.4c0 .2 0 .5.1.8 0 .3 0 .6-.1.8 0 .2-.1.4-.1.4s0-.1-.1-.4c0-.2 0-.5-.1-.8 0-.3 0-.6.1-.8s.1-.4.1-.4M11.1 56.7s0 .2.1.6c0 .4 0 .8.1 1.3 0 .5 0 1-.1 1.3 0 .4-.1.6-.1.6s0-.2-.1-.6c0-.4 0-.8-.1-1.3 0-.5 0-1 .1-1.3s.1-.6.1-.6M11.3 73.3s.1.1.1.3c.1.2.1.4.2.7 0 .3.1.5 0 .7v.3s-.1-.1-.1-.3c-.1-.2-.1-.4-.2-.7 0-.3-.1-.5 0-.7-.1-.1 0-.3 0-.3M12.1 80.6s-.1-.2-.1-.4c-.1-.3-.1-.6-.2-1 0-.4-.1-.7-.1-1v-.4s.1.2.1.4c.1.3.1.6.2 1 0 .4.1.7.1 1 .1.2 0 .4 0 .4M11.6 22.5s0 .1.1.3c0 .2 0 .4.1.7 0 .2 0 .5-.1.7 0 .2-.1.3-.1.3s0-.1-.1-.3c0-.2 0-.4-.1-.7 0-.2 0-.5.1-.7 0-.2.1-.3.1-.3M12.1 71.3s-.2-.7-.3-1.8-.2-2.5-.1-4c.1-.7.1-1.4.2-2.1s.2-1.3.4-1.8c.1-.5.3-1 .4-1.3s.2-.5.2-.5-.1.7-.2 1.8-.3 2.5-.4 3.9c-.2 2.9-.2 5.8-.2 5.8M13.8 51.7s-.1-1.3-.2-3.2c0-1-.1-2.1-.1-3.3v-3.8c0-1.3 0-2.6.1-3.8 0-1.2.1-2.3.2-3.3.2-1.9.4-3.2.4-3.2s-.1 1.3-.1 3.2v14c-.3 2.2-.3 3.4-.3 3.4"/><path fill="#edc545" d="M12.5 20.4s-3.9 4.5-6 4.7.4-7.6.4-7.6-5.7-3.9-4.7-5.3 6.6-2 6.6-2 3.3-8 4.3-7.2S16 9.7 16 9.7s7-.6 7.2.4-5.5 6-5.5 6 2.5 5.7 2.5 7.8-7.7-3.5-7.7-3.5"/><path fill="#e6af50" d="M6.1 25c.1 0 .2.1.3 0 2.1-.2 6-4.7 6-4.7l-.1-6.1zM20.2 24.2c0-.1.1-.1.1-.2 0-2.1-2.5-7.8-2.5-7.8l-5.4-1.8z"/><path fill="#e6af50" d="m6.8 17.5 5.6-3.2-10.3-2.1c-1 1.4 4.7 5.3 4.7 5.3M16 9.7s-2-5.9-2.9-6.6l-.7 11.3z"/><path fill="#db9637" d="M17.7 16.1s5.2-4.6 5.4-5.9V10l-10.8 4.3z"/><path fill="#ffde75" d="M12.4 14.3 13 3.1c-1-.8-4.3 7.2-4.3 7.2z"/><path fill="#b0792c" d="m12.5 20.4 1 .5c.6.3 1.4.8 2.2 1.3s1.6 1 2.1 1.4c.6.4 1 .6 1 .6s-.5-.1-1.1-.3c-.7-.3-1.5-.7-2.3-1.2q-1.2-.75-2.1-1.5zM19.2 20.1c-.6-1.3-1.2-2.6-1.7-3.9l-.1-.1.1-.1 2.3-2.3 1.2-1.1c.4-.4.8-.7 1.2-1.1-.3.5-.6.9-1 1.3s-.7.8-1.1 1.2c-.7.8-1.5 1.6-2.3 2.3l.1-.3c.5 1.4 1 2.7 1.3 4.1M2.4 13.6s.3.2.7.6 1 .9 1.5 1.4c.3.2.5.5.8.7s.5.4.7.6c.4.4.7.6.7.6s-.4-.1-.9-.4-1.1-.7-1.7-1.2-1-1.1-1.4-1.5c-.2-.5-.4-.8-.4-.8"/></g></svg>