<svg xmlns="http://www.w3.org/2000/svg" xml:space="preserve" viewBox="0 0 512 512"><path d="M355.501 245.374 213.124 387.75c-24.541 24.542-64.333 24.542-88.874 0s-24.542-64.332 0-88.874L266.626 156.5l-72.064-72.064L48.257 230.741c-64.342 64.342-64.342 168.661 0 233.002s168.661 64.342 233.002 0l146.306-146.306z" style="fill:#f74d37"/><path d="m48.256 463.744 75.994-75.994c24.541 24.542 64.333 24.542 88.874 0L355.5 245.374l72.064 72.064-146.305 146.305c-64.343 64.343-168.661 64.343-233.003.001" style="fill:#c43d2c"/><path d="M276.246 33.588h23.813v58.623h-23.813z" style="fill:#f9d026" transform="rotate(225 288.153 62.9)"/><path d="M230.5 0h23.815v58.624H230.5zM292.441 96.746h58.624v23.815h-58.624z" style="fill:#f9d026"/><path d="M437.184 194.529h23.813v58.623h-23.813z" style="fill:#e7c224" transform="rotate(225 449.091 223.841)"/><path d="M391.446 160.935h23.815v58.624h-23.815zM453.376 257.681H512v23.815h-58.624z" style="fill:#e7c224"/><path d="M314.661 270.675H416.57v73.266H314.661z" style="fill:#b7b9c0" transform="rotate(225 365.615 307.309)"/><path d="M153.734 109.741h101.909v73.266H153.734z" style="fill:#d8d9dd" transform="rotate(45 204.688 146.375)"/></svg>