<svg xmlns="http://www.w3.org/2000/svg" width="168.665" height="115.744" viewBox="0 0 168.665 115.744"><g stroke-miterlimit="10" data-paper-data="{&quot;isPaintingLayer&quot;:true}" style="mix-blend-mode:normal"><path fill="#22383f" d="M128.402 47.366c.194-5.404 9.264-6.071 16.667-6.77 4.48-.423 8.46-1.605 14.014.037 4.983 1.473 8.938 3.115 9.555 6.865.563 3.416-8.075 6.484-13.15 6.635-5.476.163-7.281-2.07-11.293-2.297-4.012-.226-16.036 2.287-15.793-4.47 0 0-.194 5.405 0 0" data-paper-data="{&quot;origPos&quot;:null,&quot;index&quot;:null,&quot;origRot&quot;:0}"/><path fill="#b0845d" d="M96.1 96.776c7.497 2.428 8.663 5.253 9.098 9.894.843 8.99-5.325 5.975-13.67 7.294-11.81 2.053-20.945.844-25.669-4.068-22.991-29.915 22.743-15.548 30.24-13.12" data-paper-data="{&quot;origPos&quot;:null,&quot;origRot&quot;:0,&quot;index&quot;:null}"/><path fill="#b0845d" d="M139.103 105.952c1.663 3.622-10.316 3.732-25.394 6.203-19.343 2.968-24.7.779-24.896-6.98-.204-8.095 15.227-8.47 24.773-6.3s22.487.479 25.517 7.077" data-paper-data="{&quot;origPos&quot;:null,&quot;origRot&quot;:0,&quot;index&quot;:null}"/><path fill="#b0845d" d="M147.514 101.937c5.518-.517 9.603-5.912 11.42-3.727 1.252 1.506-6.851 7.16-8.981 9.504-24.29 4.576-23.882-2.483-18.429-6.787 6.75-5.289 6.238-2.833 11.45-4.214 3.888-1.03 4.098-1.471 5.237-.183.711.976-2.59 1.564-6.028 4.437z" data-paper-data="{&quot;origPos&quot;:null,&quot;origRot&quot;:0,&quot;index&quot;:null}"/><path fill="#e6b88e" d="M119.325 54.547" data-paper-data="{&quot;index&quot;:null}"/><path fill="#e6b88e" d="M49.974 74.398" data-paper-data="{&quot;origPos&quot;:null,&quot;index&quot;:null,&quot;origRot&quot;:0}"/><path fill="#b0845d" d="M80.825 42.56c-1.846-14.116 25.277-7.546 33.24-6.383 16.223 2.37 30.208 5.534 30.337 9.463.167 5.08-13.498 9.183-25.855 9.226-12.356.042-35.94 1.32-37.722-12.305" data-paper-data="{&quot;origPos&quot;:null,&quot;index&quot;:null,&quot;origRot&quot;:0}"/><path fill="#b0845d" d="M33.487 12.785c-1.256.62-.875-.75-3.384-.553-1.72.134-3.747-4.496-2.463-8.023 1.953-5.098 25.399-6 18.872-.285-10.636 8.262-11.77 8.242-13.025 8.861" data-paper-data="{&quot;origPos&quot;:null,&quot;origRot&quot;:0,&quot;index&quot;:null}"/><path fill="#98c2d3" d="M62.824 99.884c-33.449 4.558-51.654-47.233-23.252-65.481 20.446-13.137 29.924-13.745 39.15-12.951 11.12.957 18.034 4.827 20.999 7.42 1.588 1.365-8.685 8.062-8.685 8.062s18.979-3.833 20.597-2.355c8.986 8.206 12.056 17.559 5.17 27.592-13.777 20.073-31.284 34.621-53.979 37.713" data-paper-data="{&quot;origPos&quot;:null,&quot;index&quot;:null,&quot;origRot&quot;:0}"/><path fill="#b0845d" d="M74.494 31.685c-10.947 4.036-38.463-10.332-41.95-26.65-2.478-8.52 19.674-4.065 29.403.143 12.344 5.338 18.11 24.455 12.547 26.507" data-paper-data="{&quot;origPos&quot;:null,&quot;index&quot;:null,&quot;origRot&quot;:0}"/><path fill="#913653" d="M83.232 115.26c-14.246 4.155-34.959-18.955-41.403-48.443-5.885-28.47 1.497-69.458 19.208-62.75 9.944 3.766 15.46 16.77 15.46 16.77s15.16 5.855 21.888 33.377c6.28 25.693-5.404 39.427-5.404 39.427s.247 18.703-9.75 21.619" data-paper-data="{&quot;origPos&quot;:null,&quot;index&quot;:null,&quot;origRot&quot;:0}"/><path fill="#b0845d" d="M95.793 38.45c3.621 3.959 6.33 8.516 6.803 15.743.197 2.996 5.072 3.504 5.072 6.418 0 2.541-4.635 4.195-4.833 5.783-.795 6.377-3.094 11.338-5.566 14.523-6.208 6.544-12.945 6.538-21.79 8.302-3.6 2.547-10.843 6.834-11.855 4.419-1.012-3.68 8.807-6.024-4.276-2.825-8.059 1.971-31.613-1.02-31.38-30.708.23-29.688 22.686-32.14 30.493-30.402 12.76 2.84 1.355-.027 4.849-2.26 1.899-1.134 5.846 1.048 11.07 4.484 5.798 2.392 16.048.658 21.413 6.523" data-paper-data="{&quot;origPos&quot;:null,&quot;index&quot;:null}"/><g data-paper-data="{&quot;origPos&quot;:null,&quot;index&quot;:null}"><path d="M91.203 79.596s1.36-9.03 1.32-11.906c.724-1.854 3.686-2.252 3.686-2.252s-.795.918-1.663 3.14c-.549 14.077-7.32 15.606-7.32 15.606zM87.379 37.445s6.771 1.53 7.32 15.606c.868 2.222 1.663 3.14 1.663 3.14s-2.962-.398-3.687-2.252c.041-2.875-1.319-11.905-1.319-11.905z" data-paper-data="{&quot;origPos&quot;:null,&quot;index&quot;:null}"/><path d="M93.15 78.274s2.693-4.31 2.753-6.425c.079-2.73-.306-4.13-.306-4.13s2.533.256 2.448 3.977-4.895 6.578-4.895 6.578" data-paper-data="{&quot;origPos&quot;:null}"/><path d="M98.045 49.975c.085 3.721-2.448 3.977-2.448 3.977s.385-1.4.306-4.13c-.06-2.116-2.753-6.424-2.753-6.424s4.81 2.856 4.895 6.577" data-paper-data="{&quot;origPos&quot;:null,&quot;index&quot;:null}"/></g><g data-paper-data="{&quot;origPos&quot;:null,&quot;index&quot;:null}"><g data-paper-data="{&quot;origPos&quot;:null,&quot;origRot&quot;:0}"><path fill="#cddfee" d="M103.169 74.646c-.52 5.718-2.156 6.958-2.156 6.958s-.223-3.727.033-7.171c.28-3.775.786-6.622.786-6.622s1.795 1.326 1.337 6.835" data-paper-data="{&quot;noHover&quot;:false,&quot;origItem&quot;:[&quot;Path&quot;,{&quot;applyMatrix&quot;:true,&quot;segments&quot;:[[[578.27643,391.05421],[0,0],[0.2114,-11.15892]],[574.88741,377.52559],[[574.25435,390.89083],[0.0778,-7.64064],[-0.071,6.97198]],[575.00367,405.22339],[[578.27643,391.05423],[-0.3085,11.58632],[0,0]]],&quot;closed&quot;:true,&quot;strokeWidth&quot;:null,&quot;strokeCap&quot;:null}],&quot;origRot&quot;:0,&quot;origPos&quot;:null}"/><path fill="#4c2774" d="M103.754 75.117c-.454 4.432-1.587 7.343-3.257 8.453.072.884-1.826 1.776-1.679.26.117-1.202-.81 1.119-.276-9.898.554-11.433 1.148-8.532 1.448-10.085.179-.925 1.494-.43 1.954.242 1.378 2.016 2.264 6.596 1.81 11.028m-.635-.714c.458-5.51-1.284-6.79-1.284-6.79s-.46 2.812-.74 6.587c-.256 3.444-.074 7.107-.074 7.107s1.577-1.186 2.098-6.904" data-paper-data="{&quot;origPos&quot;:null,&quot;origRot&quot;:0,&quot;index&quot;:null}"/><path fill="#4c2774" d="M100.929 65.036c-1.002.04-.906-1.574-.936-4.5-.047-4.356-.035-4.44.967-4.455 1.33-.018 1.03 1.649 1.097 4.543.068 2.893.378 4.353-1.128 4.412" data-paper-data="{&quot;origPos&quot;:null}"/><path fill="#4c2774" d="M100.446 37.187c1.683 1.06 2.854 3.94 3.367 8.36.514 4.422-.309 9.033-1.658 11.091-.45.686-1.758 1.222-1.949.302-.32-1.546-.874 1.375-1.582-10.049-.682-11.008.274-8.714.142-9.914-.168-1.512 1.74-.676 1.68.21m.282 2.284s.154 3.917.456 7.356c.33 3.768.428 7.578.428 7.578s2.11-2.624 1.577-8.124c-.597-5.706-2.461-6.81-2.461-6.81" data-paper-data="{&quot;origPos&quot;:null,&quot;origRot&quot;:0,&quot;index&quot;:null}"/><path fill="#cddfee" d="M103.232 46.256c.532 5.5-1.624 8.199-1.624 8.199s-.144-3.863-.475-7.632c-.301-3.439-.414-7.4-.414-7.4s1.916 1.126 2.513 6.833" data-paper-data="{&quot;noHover&quot;:false,&quot;origItem&quot;:[&quot;Path&quot;,{&quot;applyMatrix&quot;:true,&quot;segments&quot;:[[573.08707,319.71313],[[573.28217,334.59151],[-0.2663,-6.96446],[0.29184,7.63238]],[573.40141,349.91765],[[577.29621,333.68195],[0.52396,11.1425],[-0.63296,-11.56534]]],&quot;closed&quot;:true,&quot;strokeWidth&quot;:null,&quot;strokeCap&quot;:null}],&quot;origPos&quot;:null,&quot;origRot&quot;:0}"/></g><path fill="#4c2774" d="M59.583 30.309c.033-.888 7.187.34 20.197 2.39 19.377 3.052 19.751 3.123 19.604 3.992-.196 1.154-7.542-.286-20.42-2.282-12.879-1.997-19.43-2.766-19.38-4.1" data-paper-data="{&quot;origPos&quot;:null,&quot;origRot&quot;:0}"/><path fill="#4c2774" d="M60.257 90.737c-.05-1.334 6.502-2.103 19.38-4.1s20.225-3.436 20.42-2.282c.148.87-.226.94-19.603 3.992-13.01 2.05-20.164 3.278-20.197 2.39" data-paper-data="{&quot;origPos&quot;:null,&quot;origRot&quot;:0,&quot;index&quot;:null}"/></g><g stroke-width="0" data-paper-data="{&quot;origPos&quot;:null,&quot;index&quot;:null}"><path d="M60.267 26.976c17.016-.27 38.902 1.872 21.957 20.545 19.161 42.256-.698 47.716-17.717 47.716-27.447-.614-38.176-15.82-38.176-34.578 0-18.757 12.917-33.35 33.936-33.683" data-paper-data="{&quot;origPos&quot;:null}"/><path d="M36.216 63.65c2.624 7.836 2.634 21.34-9.673 24.651-11.768 3.167-18.69-9.623-16.379-17.694-6.393-2.576-8.896-18.958 3.411-22.27 11.228-3.022 19.033 4.537 22.641 15.314m-19.783 6.604c-1.671 1.316-3.13-1.42-3.59-2.953-.824-2.742.233-4.968 1.447-5.29 1.844-.488 5.158 1.316 6.244 4.729 1.417 5.355-1.423 9.17-3.597 9.755-3.718 1.21-5.997-6.041-5.997-6.041s2.656 10.511 8.032 9.209c2.835-.763 4.011-7.628 2.593-12.777-1.103-4.008-4.402-9.313-8.299-7.865-2.262.84-1.808 6.124-.848 8.339.907 2.089 2.18 5.064 4.261 4.943 1.502-.087 1.186-3.274.395-4.554-.895-1.448-1.61-1.459-1.61-1.459s3.01 2.357.969 3.964" data-paper-data="{&quot;origPos&quot;:null,&quot;origRot&quot;:0}"/><path d="M23.592 28.742c6 .03 11.159 8.994 12.538 18.588 1.38 9.594-1.26 15.782-1.26 15.782S30.864 50.849 22.346 48.25c-4.342-1.324-11.486 7.514-18.917 4.59C-.987 51.102.125 44.348.125 44.348s2.034 6.955 6.244 3.444c-4.725 1.442-3.272-7.095-3.272-7.095s1.383 4.568 3.78 2.266c0 0 7.163-14.268 16.715-14.22" data-paper-data="{&quot;origPos&quot;:null,&quot;origRot&quot;:0}"/><path fill="#d12a57" d="M83.474 91.234s12.824 5.891 14.767-3.195c2.434-12.812-15.666-39.612-15.666-39.612s20.26 23.402 17.92 36.37c-2.183 9.739-17.021 6.437-17.021 6.437" data-paper-data="{&quot;origPos&quot;:null}"/><path fill="#d12a57" d="M31.978 28.874c9.849 8.755 3.161 22.083 3.161 22.083s1.62-13.538-8.207-22.113c-9.826-8.575-9.28.93-9.28.93s4.477-9.655 14.326-.9" data-paper-data="{&quot;origPos&quot;:null,&quot;index&quot;:null,&quot;origRot&quot;:0}"/><path fill="#d12a57" d="M80.61 47.915s12.456 15.34 11.917 32.09c-.809 25.124-25.676 15.553-25.676 15.553s10.057 8.66 16.444-3.865c6.388-12.524-2.684-43.778-2.684-43.778" data-paper-data="{&quot;origPos&quot;:null}"/></g></g></svg>