<svg xmlns="http://www.w3.org/2000/svg" xml:space="preserve" width="51.511" height="92.435" viewBox="0.687 0.689 51.511 92.435"><title>Slice 1</title><g fill-rule="evenodd"><path fill="#e3a066" fill-rule="nonzero" d="M29.407 92.623h13.865s-2.76-3.058-7.063-4.618c0 0-4.125-1.96-6.802 4.618"/><path fill="none" stroke="#8d6a4a" stroke-width=".5" d="M29.147 92.623h14.125s-3.01-3.152-7.313-4.711"/><path fill="#e3a066" fill-rule="nonzero" d="M24.96 92.623h13.864s-1.438-2.168-5.74-3.728c0 0-5.041.586-8.125 3.728"/><path fill="none" stroke="#8d6a4a" stroke-width=".5" d="M24.699 92.623h14.125s-1.438-2.168-5.74-3.728"/><path fill="#3e5766" fill-rule="nonzero" d="M34.261 4.645c-1.909-2.112-6.49-3.456-8.656-3.456s-5.439 1.042-7.11 3.204c-2.407 3.11-2.046 9.371-2.421 10.91-.375 1.54-5.687 14.49-8.865 21.316-2.737 5.877-6.333 18.55-6 31.705s10.917 24.299 11.167 24.299h12.583c2.084-2.43 7.417-3.769 7.833-3.77.459-.004 1.48-.081 2.5.042 0 0-1.187-.775-1.52-1.948 0 0 1.083 1.32 2.437 1.487 0 0-.863-.787-1.104-1.655-.146-.524-1.646-27.84-1.646-28.51 0-.466.65-28.226.625-41.604-1.79-.803-.385-3.6-.385-3.6s4-4.618.562-8.42"/><path fill="#fbf8ea" fill-rule="nonzero" d="M34.665 17.392s-4.65 4.597-5.094 11.97c-.445 7.374-7.362 40.639-8.112 44.074s3.927 15.523 13.833 15.459c0 0-1.52-.817-1.52-1.948 0 0 1.662 1.511 2.329 1.47 0 0-.559-.505-.955-1.48 0 0 .709 1.664 3.105.491 0 0-1.732-.316-1.815-1.364 0 0 1.106-.102 1.94-.102 0 0-1.968-1.137-1.46-2.023 3.71-6.46 4.794-14.607 5.943-27.302 1.246-13.763-1.004-25.264-4.504-33.014-1.594-3.388-3.69-6.231-3.69-6.231"/><path fill="#f0c579" fill-rule="nonzero" d="M29.74 27.274c-.004.113 2.85-7.957 6.005-8.366l-1.661-2.243s-4.01 1.302-4.344 10.609"/><path fill="none" stroke="#d1c1b5" stroke-width=".5" d="M33.25 14.28s-.45.986.126 1.593c.715.754 11.617 11.953 9.583 39.464-1.667 22.54-5.405 27.115-5.826 28.042-.28.617-.767 1.577 1.243 2.582 0 0-1.24.155-1.94.103 0 0 .471.945 1.815 1.364 0 0-.667.907-2.917.237"/><path fill="none" stroke="#2e374a" stroke-width=".5" d="M35.105 86.78c.187.88 1.104 1.654 1.104 1.654-1.354-.168-2.438-1.487-2.438-1.487.334 1.172 1.521 1.948 1.521 1.948-1.02-.123-2.042-.046-2.5-.042-.416.001-5.75 1.34-7.833 3.77H12.376c-.25 0-10.834-11.144-11.167-24.299s3.263-25.828 6-31.705c3.178-6.825 8.49-19.775 8.864-21.315s.015-7.8 2.42-10.911c1.673-2.162 4.945-3.204 7.112-3.204s6.823 1.277 8.656 3.456"/><path fill="#e3a066" fill-rule="nonzero" d="M30.636 12.626c-.098.014 4.236-2.427 4.563-4.4.25-1.507-1.375-3.173-.938-3.581.292-.273.943 1.177 2.22 1.822 1.365.691 3.28 1.697 6.436 2.137s5.876 1.288 7.032 2.514a10.2 10.2 0 0 1 1.75 2.576S50.23 11.4 41.479 12.28c-6.718.346-7.228 1.362-8.228 2-1 .64.198-2.062-2.615-1.654"/><path fill="#8d6a4a" fill-rule="nonzero" d="M32.886 12.406s.28-.098.776-.228l.9-.223.556-.13c.197-.042.408-.054.625-.09 1.742-.237 4.078-.486 6.427-.525 1.174-.02 2.35.01 3.45.109.551.05 1.081.121 1.582.2.5.09.971.193 1.401.309.212.07.423.11.612.19l.526.242c.321.174.598.325.809.48.22.137.368.28.473.37l.16.137-.182-.107c-.119-.07-.288-.176-.521-.278-.225-.118-.516-.222-.846-.34-.338-.1-.718-.2-1.13-.33a16 16 0 0 0-1.364-.3 23 23 0 0 0-1.553-.198 32 32 0 0 0-3.41-.107c-2.329.039-4.652.286-6.383.523-.43.076-.831.107-1.187.13l-.92.08-.592.059c-.135.013-.209.027-.209.027"/><path fill="none" stroke="#8d6a4a" stroke-width=".5" d="M30.636 12.626c-.098.014 4.236-2.427 4.563-4.4.25-1.507-1.375-3.173-.938-3.581.292-.273.943 1.177 2.22 1.822 1.365.691 3.28 1.697 6.436 2.137s5.876 1.288 7.032 2.514a10.2 10.2 0 0 1 1.75 2.576S50.23 11.4 41.479 12.28c-6.718.346-7.228 1.362-8.228 2-1 .64.198-2.062-2.615-1.654Z"/><path fill="#e2e3e4" fill-rule="nonzero" d="M27.199 6.896c.078-.66 1.031-1.257 2.5-1.194 1.953.157 2.257 1.146 2.25 1.54-.009.475-.139 1.162-2.373 1.162-1.909 0-2.447-.915-2.377-1.508"/><path fill="#2e374a" fill-rule="nonzero" d="M29.964 8.384s-.765-.471-.61-1.367c.157-.893 1.074-1.09 1.42-1.058.345.03.622.327.622.327s.74.558.553 1.17c-.188.614-1.115.887-1.115.887s-.746.104-.87.04"/><path fill="none" stroke="#2e374a" stroke-width=".5" d="M27.199 6.939c.078-.66 1.031-1.257 2.5-1.194 1.953.156 2.257 1.146 2.25 1.539-.009.476-.139 1.163-2.373 1.163-1.909 0-2.447-.916-2.377-1.508Z"/><path fill="#3e5766" fill-rule="nonzero" d="M18.698 32.546s-2.74 1.341-3.732 5.075c-.772 2.9-4.507 25.006-4.507 25.006s-.417 4.19.583 6.033 2.334 5.781 2.167 9.049-.417 4.357.333 4.86c.75.502 10.667-10.307 12.834-20.613s2.217-22.12.817-27.901"/><path fill="none" stroke="#2e374a" stroke-width=".5" d="M18.698 32.546s-2.74 1.341-3.732 5.075c-.772 2.9-4.507 25.006-4.507 25.006s-.417 4.19.583 6.033 2.334 5.781 2.167 9.049-.417 4.357.333 4.86c.75.502 10.667-10.307 12.834-20.613s2.217-22.12.817-27.901"/></g></svg>