<svg xmlns="http://www.w3.org/2000/svg" width="116.217" height="179.125" viewBox="0.229 0.262 116.217 179.125"><path fill="#aaa082" d="M81.634 130.652c-2.687.197-3.473.197-4.98-4-1.18-3.278-.131-8.261.458-11.605.59-3.475 1.377-7.081-.458-10.229-1.901-3.409-1.311-6.229.655-8.72 1.049-1.312 6.226-1.836 9.044 1.901 2.622 3.41 2.949 10.885 2.753 14.36-.197 5.442-4.719 18.096-7.472 18.293"/><path fill="#dcd2b4" d="M83.994 99.114c1.245 1.77.065 3.409-1.508 4.131-1.376.59-3.014 0-3.604-1.443 0-.065-.066-.065-.066-.131-.262-.918-.065-1.967.525-2.754.131-.196.327-.393.524-.524.262-.197.59-.328.917-.459.852-.197 1.967-.656 3.212 1.18"/><path fill="#c8bea0" d="M37.463 94.852c2.752-2.295 7.471-1.967 10.092.525 2.229 2.163 1.573 7.671-1.31 8.523-3.212 1.64-2.229 4.066-1.639 7.082.656 3.213.656 6.491 1.049 9.769.262 2.492.852 5.639-.131 8.065-.656 1.705-2.097 2.361-3.67 2.426-.394 0-2.884-1.115-4.26-3.934-2.228-4.327-3.605-11.343-3.67-14.359-.197-6.688.786-15.802 3.539-18.097"/><path fill="#f0e6d2" d="M45.131 97.54c.655 1.902.065 3.607-1.508 4.262-1.376.59-3.015 0-3.604-1.442 0-.066-.066-.066-.066-.131-.262-.918-.065-1.967.524-2.754.131-.197.328-.394.525-.525.262-.197.59-.328.917-.459 1.049-.262 2.753.066 3.212 1.049"/><g fill="#aaa082"><path d="M82.451 177.123c.267-4.643 2.233-37.628 4.426-38.603 1.049.459 2.098.984 2.36 3.147 1.12 9.264-4.128 31.218-5.19 35.521 2.656.105 5.648.214 5.648.214l.263 1.18s-7.799.525-8.389.197c-1.245 0-2.425-.197-3.605-.656l-.524-3.278c.983-.328 1.901-.656 2.884-.918.065.065-.393 3.278-.262 3.081.197.02 1.152.064 2.389.115"/><path d="m79.079 138.651.786.394c1.573 5.901.917 12.785.917 18.883 0 5.836.066 19.343.066 19.343l-1.901.393-1.507-2.819c.066 0-3.867-33.243 1.639-36.194M87.074 132.816c.918 2.36-.066 4.655-2.228 5.507-1.77.722-4.26.066-4.981-1.967-.393-1.18-.131-2.491.721-3.475.196-.262.459-.459.721-.655a4.3 4.3 0 0 1 1.245-.59c1.18-.197 3.473-.525 4.522 1.18M78.62 131.439c.655.262.983.983.721 1.639 0 0 0 .066-.066.066-.262.59-.917.918-1.507.655-.328-.196-.59-.524-.59-.918v-.328c0-.131.066-.262.131-.393.328-.262.721-.852 1.311-.721"/></g><g fill="#c8bea0"><path d="M37.528 142.585c.262-.721.393-1.311.983-1.573.656-.066 1.114.328 1.639.655 4.391 10.557 5.505 23.08 7.668 34.227h-1.246c-2.49-4.197-3.408-8.262-4.522-12.917-1.507-6.819-3.539-13.376-4.522-20.392"/><path d="M44.344 175.697c-.786.066-2.163-.065-2.752.525.065.196.131.393.131.524 1.441.721 4.259.394 5.832.394 1.835 0 3.212-.132 3.408-.591.197-.721.131-1.508-.262-2.163.066.131-2.49 1.049-2.49 1.049z"/><path d="M46.507 140.684c1.376-.394 1.769 6.032 2.228 8.917.459 3.344.918 6.688 1.18 10.032.327 3.606.852 14.753.852 14.753l-.918 1.901-1.507-.131-3.015-31.145c-.065 0-.196-3.934 1.18-4.327M37.921 137.537c0-.197-.065-.525-.131-.787-.131-2.426.656-3.344 3.212-4 1.179-.328 2.359-.065 3.342.656 1.966 1.705.59 4.917-1.638 5.442l-1.704.459c-1.18-.197-2.36-.525-3.081-1.77M46.441 131.373c.197.656-.262 1.377-.917 1.508h-.066a1.14 1.14 0 0 1-1.376-.918 1.06 1.06 0 0 1 .393-.983.5.5 0 0 1 .262-.131c.131-.066.262-.066.394-.066.393 0 1.114.066 1.31.59"/></g><path fill="#dcd2b4" d="M74.163 102.72c-.262 4.655-6.684 4-10.092 4.131-3.605.131-8.782.262-11.731-2.164-3.408-2.754-.721-7.606-3.343-10.687-3.08-3.541-7.93-.984-11.6-1.836-.459-5.967 14.484-3.016 17.63-2.885 6.946.196 13.828-.656 20.709-1.443 2.556-.328 5.964-1.114 8.454-.524s4.457 3.999 1.311 5.442c-1.9.852-5.308-.918-7.602-.459-3.867.721-3.998 3.213-3.736 10.425M55.42 94.459c-.393 1.18 0 5.442 1.704 6.884.983.853 2.949.853 4.718 1.115 3.605.524 5.964-.066 6.685-3.016.459-1.967.262-2.623.262-4.852s-2.359-1.967-3.211-1.639c-.852.327-.066 1.704-.918 2.36-.655.459-3.67.984-4.522.131-.852-.852 0-1.77-1.638-2.098s-2.687-.066-3.08 1.115"/><path fill="#c8bea0" d="m110.077 148.88-1.31-.066c-6.161-8.196-4.26-20.457-3.408-30.095a62.6 62.6 0 0 0-.787-17.835c-.327-1.573-1.114-11.802 5.964-12.523s5.178 11.999 5.178 14.949c0 5.442-.132 10.885-.328 16.327-.328 9.441 2.883 22.489-5.309 29.243m-1.048-46.816c-1.245 1.115-1.18 6.623-1.311 8.262-.262 3.344-.262 6.688-.065 10.032.262 3.606.524 7.147.524 10.753 0 2.885-.524 6.753.065 9.507l1.18 1.246c.524.262 1.114.262 1.638.131 2.491-6.688 1.311-13.31 1.377-20.26 0-3.672-.066-7.278-.066-10.95 0-2.36 1.049-8.196-2.425-8.917z"/><path fill="#dcd2b4" d="M5.677 142.716c-3.408-3.409-2.097-8.064-1.769-12.523a71.2 71.2 0 0 1 2.752-14.818c1.311-4.328 2.491-8.655 3.474-13.048.459-2.23 1.18-4.59.852-6.819-.328-2.426-1.901-10.819 6.16-11.016s1.114 14.36.656 15.999c-1.508 5.18-2.163 10.884-3.277 16.195-1.114 5.18-1.049 10.425-1.966 15.605-.983 5.049-1.114 9.704-6.882 10.425m9.372-48.323c-2.294.525-3.604 7.475-4.129 9.442-.917 3.672-1.573 7.475-2.228 11.277-.59 3.213-1.376 6.361-2.032 9.508-.589 2.754-2.621 8.327-.72 10.884l2.228.59c2.097-2.491 1.835-7.081 2.49-10.097.787-3.672 1.77-7.344 2.556-11.016.655-3.081 5.178-19.473 1.835-20.588"/><g fill="#c8bea0"><path d="M103.72 155.568c-.327-1.508.197-3.082 1.377-4.065.524-.394 3.604-1.902 5.111-1.115 2.687 1.311 3.933 5.77 2.098 7.278-1.049.852-3.081 1.705-4.719 1.18-1.638-.524-3.015-2.491-3.867-3.278M108.832 160.158c0 .655.066 1.245.066 1.835.065 1.64.065 3.213.131 4.852 0 1.443-.131 2.82-.524 4.197-.328 1.18-.918 1.508-2.229 1.246-.327-.263-.327-.656-.327-.984-.131-1.77 0-3.475.393-5.18.262-1.049.459-2.164.721-3.278.131-.59.327-1.115.524-1.639.131-.591.655-.984 1.245-1.049M111.323 170.714c-.852-1.705-1.246-8.458-.656-10.819.131-.131.328-.196.525-.262.196-.066.458-.131.655-.131.131.262.262.524.328.787.065.393.131.786.196 1.245.131 1.64.328 3.213.393 4.852 0 1.05-.131 2.099-.327 3.082-.066.59-.459 1.115-1.114 1.246M103.982 157.076l1.18.787c.066 1.442 0 2.95-.262 4.393a53 53 0 0 0-.59 4.524c-.065 1.049-.524 2.032-1.311 2.688-.196-.262-.458-.393-.589-.59-.131-.328-.131-.721-.131-1.115.262-3.475.917-6.884 1.441-10.359.066 0 .131-.066.262-.328M99.133 161.141c-.459-.393-.59-1.049-.459-1.639.197-.656.328-1.377.59-2.033.262-.787.655-1.508.917-2.295.394-.786.852-1.508 1.442-2.163.262-.263.59-.459.918-.656.131.262.262.524.262.852-.066 2.295-.656 4.525-1.573 6.623-.262.918-1.18 1.442-2.097 1.311"/></g><path fill="#aaa082" d="M2.073 149.732c.065-1.049.328-2.032.852-2.95.655-.984 1.638-1.705 2.752-1.967.918-.263 1.77.131 2.622.59.262.196.459.459.524.787q.295 1.278.393 2.557c-.131 1.573-1.114 2.95-2.621 3.475-.131.065-.262.065-.393.065-1.114-.065-2.229-.327-3.277-.721-.656-.262-.918-.852-.852-1.836"/><path fill="#c8bea0" d="m9.872 166.452-1.508-.197c-.393-.393-.655-.918-.655-1.508-.262-2.36-.524-4.721-.721-7.015a12.1 12.1 0 0 1 0-3.082c0-.525.197-.984.59-1.312.393-.131.655.132.852.394.655.852 1.049 1.901 1.18 2.95.131 1.443.524 2.885.655 4.262a38 38 0 0 1 0 3.869c-.131.59-.197 1.114-.393 1.639M4.563 167.895c-.655-.394-.983-1.05-.983-1.771l-.196-2.754a43 43 0 0 1-.197-5.835c0-.853.131-1.771.197-2.623 0-.59.393-1.049.983-1.18.065.131.196.262.196.459.066.59.262 1.114.525 1.639.131.197.196.459.196.721.197 1.967.656 3.934.656 5.967 0 1.246-.132 2.492-.394 3.672-.065.655-.458 1.311-.983 1.705M1.68 165.075c-1.114-2.164-1.311-9.507-.262-11.802.589.393.917 1.049.917 1.77v4.328c0 .852 0 1.77.066 2.622.131 1.115-.132 2.23-.721 3.082M14.328 156.027a2.31 2.31 0 0 1-1.573-1.443 2.9 2.9 0 0 1-.393-1.049 38 38 0 0 0-2.097-5.967c-.066-.196-.131-.393-.131-.524.262-.066.524-.066.721-.066.917.132 1.704.656 2.228 1.508.983 1.705 2.032 3.41 2.49 5.377.197 1.246.066 1.574-1.245 2.164"/><path fill="#aaa082" d="M94.021 48.299c1.442-.262 4.981 2.688 6.291 3.868 4.719 10.557 9.044 22.425 9.634 24.785 1.049 4 4.457 16.458.787 19.67-2.097-.262-2.622-4.589-2.884-6.294-2.425-15.474-12.124-35.8-12.976-36.653-.852-.852-2.294-1.114-3.146-2.098-.59-1.639 1.245-2.557 2.294-3.278"/><path fill="#aaa082" d="M113.027 93.278c.852 2.295-.132 4.787-2.098 5.639-1.704.721-3.735-.065-4.456-1.77 0-.066-.066-.131-.066-.131-.327-1.18-.131-2.426.656-3.344a3.1 3.1 0 0 1 .655-.656 3.7 3.7 0 0 1 1.114-.59c1.442-.197 2.949.131 4.195.852"/><path fill="#dcd2b4" d="M87.14 43.906c-.263.262-3.867.59-6.423 2.426-.918 3.672 5.112 4.852 7.406 4.131s4.128-2.23 3.997-3.607c-.131-1.442-2.49-2.753-4.98-2.95"/><path fill="#c8bea0" d="M18.392 88.099a3.59 3.59 0 0 1-1.704 4.589c-1.377.59-3.015 0-3.605-1.442 0-.066-.065-.066-.065-.131-.263-.918-.066-1.967.524-2.754.131-.197.327-.394.524-.525.262-.196.59-.328.918-.459 1.179-.131 2.359.131 3.408.722"/><path fill="#c8bea0" d="m16.098 90-.787-.197c-1.9-5.442.852-12.785 2.032-18.031.852-3.868 1.573-7.737 2.49-11.605.656-2.82 1.442-7.016 3.408-9.442.525-.656 3.146-2.492 3.146-.262-.066 7.409-5.308 30.489-10.289 39.537"/><path fill="#dcd2b4" d="M30.712 49.02c-.262-.262-3.866-.787-6.357-2.688-.721-3.737 5.309-4.655 7.603-3.803s4.063 2.426 3.866 3.737c-.196 1.312-2.687 2.689-5.112 2.754M55.42 88.295c.131-1.049.459-1.705 1.048-1.836a6.7 6.7 0 0 1 1.639-.393c1.573-.197 3.211.066 4.784.066 1.442-.066 2.884 0 4.391 0h.721c.852 1.376.262 3.475-.524 3.999-.197.066-.328.197-.525.262a8 8 0 0 1-3.014.394q-2.753 0-5.506-.197c-.589 0-1.179-.131-1.769-.328-.655-.328-1.114-.852-1.245-1.967M54.109 48.496c.131-1.049.459-1.705 1.049-1.836a6.7 6.7 0 0 1 1.638-.394c1.573-.196 3.211.066 4.784.066 1.442-.066 2.884 0 4.391 0h.721c.852 1.377.262 3.475-.524 4-.197.065-.328.196-.524.262a8 8 0 0 1-3.015.393c-1.835 0-3.67-.065-5.571-.197-.59 0-1.179-.131-1.769-.327-.59-.263-1.049-.787-1.18-1.967"/><path fill="#c8bea0" d="M60.401 53.741c-.263 4.524-.328 9.048-.132 13.507.066 2.819.263 5.639.263 8.458 0 2.23-.263 4.918.524 6.885.786.459 1.311.197 1.9-1.049.525-8.983-.065-18.687-.917-27.801z"/><path fill="#c8bea0" d="M56.993 82.001c.262-3.672 6.422-2.164 8.978-2.033 2.687 6.229-8.585 5.901-8.978 2.033M57.779 74.723c.262-3.672 5.636-2.164 7.865-2.033 2.424 6.295-7.472 5.901-7.865 2.033M58.369 68.166c.262-3.672 5.243-4 6.554-1.246 2.031 4.328-6.161 5.114-6.554 1.246"/><path fill="#c8bea0" d="M57.582 61.216c.263-3.672 5.243-4 6.554-1.246 2.032 4.393-6.226 5.18-6.554 1.246"/><path fill="#c8bea0" d="M57.976 55.052c.196-2.95 4.26-3.212 5.308-.983 1.639 3.541-4.981 4.196-5.308.983"/><path fill="#dcd2b4" d="M63.219 81.607c.131.656-.263 1.377-.983 1.508h-.066c-.655.132-1.245-.327-1.376-.918a.97.97 0 0 1 .459-.983.5.5 0 0 1 .262-.131c.131-.066.262-.066.393-.066.393-.065 1.114 0 1.311.59M63.153 74.395c.131.656-.262 1.377-.983 1.508h-.065c-.656.131-1.246-.328-1.377-.918a.98.98 0 0 1 .459-.984.5.5 0 0 1 .262-.131c.131-.065.262-.065.393-.065.394-.066 1.114 0 1.311.59M63.022 67.51c.131.656-.262 1.377-.983 1.508h-.066c-.655.131-1.245-.328-1.376-.918 0-.393.131-.786.459-.983a.5.5 0 0 1 .262-.131c.131-.066.262-.066.393-.066.459-.065 1.18 0 1.311.59M62.498 60.56c.131.656-.262 1.377-.983 1.508h-.066c-.655.131-1.245-.328-1.376-.918a.97.97 0 0 1 .459-.983.5.5 0 0 1 .262-.131c.131-.066.262-.066.393-.066.393-.066 1.114 0 1.311.59M62.17 54.528c.131.656-.262 1.377-.983 1.508h-.066c-.655.131-1.245-.328-1.376-.918a.98.98 0 0 1 .459-.984.5.5 0 0 1 .262-.131c.131-.065.262-.065.393-.065.394-.066 1.18 0 1.311.59"/><path fill="#c8bea0" d="M32.482 53.479s1.507 23.735 7.471 24.719l4.85-1.246-2.753-22.555z"/><path fill="#aaa082" d="m78.685 55.511.394 19.933 6.357 2.754s5.963-17.179 2.621-23.605z"/><path fill="#dcd2b4" d="M30.516 54.921a5.3 5.3 0 0 1 .524-3.868c2.228-2.295 9.831-.394 12.518-.131 4.063.327 8.126.852 12.189 1.639.394.393.525.983.328 1.508-3.015 1.967-8.257 1.573-11.796 1.77-3.802.197-10.617 1.771-13.763-.918M31.958 63.248c-.59-1.311-.918-2.491-.263-3.803 6.947-1.377 15.598-2.098 22.676-1.377 1.049 1.312 1.114 1.509 1.049 2.689-6.882 3.475-16.122 4.983-23.462 2.491M34.71 69.543a90 90 0 0 1 12.518-2.426c2.162-.328 7.536-2.623 9.371-1.049.328 2.557-11.731 5.835-13.5 6.425-1.77.591-5.571 1.771-7.406 1.181-2.162-.722-1.442-2.23-.983-4.131M37.856 78.198c3.015-1.836 6.881-2.492 10.224-3.738 2.883-1.049 5.964-2.885 9.109-2.753-1.245 3.212-18.284 11.54-19.333 6.491"/><path fill="#dcd2b4" d="m33.662 52.364-3.212 1.967s1.966 20.326 7.799 24.457l2.556.328c-2.163-5.377-3.998-10.884-5.636-16.458-.787-3.409-1.311-6.819-1.507-10.294M67.479 62.134l-.721-1.312c.131-.459.327-.918.524-1.377 2.425-1.901 9.241-.065 12.059.132 3.145.196 6.16.327 9.24 1.114.59.918.918 1.967 1.049 3.082-1.376 3.213-7.799 1.508-10.355 1.246a38.4 38.4 0 0 1-11.796-2.885M67.151 54.331c.917-3.213 7.143-2.032 9.437-1.967 3.932.131 7.865.197 11.731.328 3.932 4.196-6.619 4.327-7.93 4.327-2.556-.065-12.648 1.049-13.238-2.688M68.527 66.264c6.685.525 13.632 2.426 20.251 3.869l.655.983c.066.853-.131 1.705-.524 2.492-2.425.262-22.676-4.393-20.382-7.344M68.724 73.28c.655-2.885 15.597 3.147 17.957 3.934l.459 1.312c-1.049 4.327-16.581-2.558-18.416-5.246"/><path fill="#dcd2b4" d="m83.535 79.312 3.015.066s2.097-2.295 3.211-7.803c1.114-5.77.786-15.211-1.114-18.162l-3.08-.065c.852 1.508 1.441 3.147 1.638 4.917.393 2.295.066 5.18-.262 8.59-.328 3.999-2.949 10.949-3.408 12.457"/><path fill="#c8bea0" d="M60.466 34.661c2.687-.918 6.161-.721 8.782-1.443.393.787.459 4.59.393 5.377-.065.787-.262 1.442-.393 2.229-.066.525-.393.918-.786 1.246-1.377 1.115-3.146 1.574-4.916 1.311a2.22 2.22 0 0 1-1.9-1.377c-.459-1.311-1.442-5.835-1.18-7.343"/><path fill="#f0e6d2" d="M59.942 39.185c0-.328-.262-3.737-.328-4.131l-7.537-.459c-.262.59.459 4.459.525 4.983a8.2 8.2 0 0 0 .786 3.017c.262.59.721.983 1.311 1.245a5.6 5.6 0 0 0 4.129 0 1.83 1.83 0 0 0 1.31-1.901zM51.029 34.792c-1.049-.393-6.226-1.246-7.275-1.574-.327.328.525 3.541.656 3.869a6.4 6.4 0 0 0 1.245 2.819c1.245 1.443 2.752 2.098 4.718 1.639q.295-.49.394-.983c.327-1.836.393-3.803.262-5.77"/><path fill="#aaa082" d="M76.392 31.12c.196 1.443 0 5.77-.394 7.016-.327 1.115-1.245 2.032-2.359 2.426-.655-.197-1.311-.525-1.77-.984-.131-.131-.262-.262-.393-.459-.327-.59-1.114-5.573-1.048-6.491.524-.131 4.587-1.508 5.964-1.508"/><path fill="#dcd2b4" d="M64.857.762c12.255 0 19.464 10.557 18.285 22.162-.262 2.688-1.114 5.311-2.36 7.737-1.441 2.492-7.995 4.328-10.682 4.983-6.292 1.508-8.585 1.967-15.139 1.508-5.374-.393-13.042-1.77-16.384-6.425-3.146-4.393-3.474-11.802-2.687-16.982 1.048-6.754 4.522-9.114 10.879-10.491C52.667 2.008 58.893.828 64.857.762"/><path fill="#fff" d="M79.079 18.728c1.441 3.934-.132 6.622-3.474 8.065-2.687 1.18-6.619.131-7.733-3.279a6.33 6.33 0 0 1 1.114-5.77A9 9 0 0 1 70.1 16.63c.59-.394 1.18-.722 1.901-.918 1.9-.394 5.57-.722 7.078 3.016M51.946 18.203c2.163 3.213 0 7.082-3.342 8.524-2.687 1.18-6.619.131-7.733-3.278-.59-1.836-.131-4.393 1.114-5.77a9 9 0 0 1 1.114-1.115c.59-.393 1.18-.721 1.9-.918 1.901-.459 4.785-.656 6.947 2.557"/><path fill="#dcd2b4" d="M46.703 19.777c-.524.065-.852.459-.917.918 0 .721-.262 1.508.59 2.032 1.048-.131 1.114-1.049 1.245-1.77a1.43 1.43 0 0 0-.918-1.18M73.836 22.924c.589-.524.655-.59.72-.852a3.4 3.4 0 0 0-.327-1.836c-.328-.262-.852-.131-1.049.197 0 0 0 .065-.065.065-.066.656-.328 1.377.065 2.164z"/><path d="M46.703 19.777c.525.197.852.656.918 1.18-.131.787-.131 1.639-1.245 1.77-.852-.524-.59-1.311-.59-2.032.065-.459.459-.853.917-.918M73.836 22.924l-.721-.328c-.394-.786-.131-1.508-.066-2.163.197-.394.656-.525 1.049-.263 0 0 .065 0 .065.066.328.59.459 1.246.328 1.836 0 .262-.066.328-.655.852"/><path fill="#c8bea0" d="M60.204 17.875c-.918-.065-1.704.525-1.966 1.377a17 17 0 0 0-1.376 4.393c-.197 1.574-.656 3.082-.918 4.656-.197 1.049-.721 3.344 1.114 3.344s2.163-2.492 3.408-2.689c1.245-.196 1.049 1.574 2.818 2.492s1.835-.59 2.032-.852c.065-3.41-1.966-12.262-5.112-12.721"/></svg>