<svg xmlns="http://www.w3.org/2000/svg" xml:space="preserve" width="800" height="800" viewBox="0 0 512 512"><path d="M476.719 182.854c-32.563-12.953-50.188 5.063-57.219 14.328-7.344 9.75-4.156 26.391-1.031 19.313 4.625-14.906 28.688-14.906 36.438 0 7.781 14.922-4.781 31.375-22.5 33.766-23.25 3.141-32.906-16.172-46.875-31.875-13.969-15.688-35.094-33.063-65.719-41.922-19.875-5.75-46.656-1.141-63.813 14.828-17.125-15.969-43.938-20.578-63.813-14.828-30.625 8.859-51.719 26.234-65.719 41.922-13.938 15.703-23.594 35.016-46.875 31.875-17.688-2.391-30.281-18.844-22.5-33.766 7.75-14.906 31.813-14.906 36.469 0 3.094 7.078 6.281-9.563-1.063-19.313-7-9.266-24.656-27.281-57.219-14.328-31.717 12.61-43.905 59.235-28.874 91.704 20.938 45.281 80.406 68.219 142.719 62.484 44.156-4.063 78.844-30.016 106.875-72.5 28.031 42.484 62.719 68.438 106.875 72.5 62.313 5.734 121.781-17.203 142.719-62.484 15.031-32.469 2.844-79.094-28.875-91.704" style="fill:#000"/></svg>