<svg xmlns="http://www.w3.org/2000/svg" width="48.336" height="191.267" viewBox="-0.172 0.026 48.336 191.267"><path fill="#0b1938" d="M34.767 162.992c.18.534 1.556 1.057 2.081 1.29.892.396 1.96.858 2.87 1.146.848.267 1.623.55 2.512.77.383.093 1.18.23 1.56.306.59.12.385.692.5 1.149.601 2.408-2.123 3.453-4.12 3.512-.547.017-1.008-.13-1.526-.24-.41-.087-1.076.008-1.453-.17-.788-.368-.66-1.565-1.637-1.886-2.392-.79-5.098-1.464-7.56-1.673.881-.587 2.445-1.498 3.305-1.99 1.077-.615 2.12-1.326 3.167-1.851m.198 7.89c-.13-.27-.247-.583-.403-.838-.157-.254.075-.157-.172-.298-.203-.115-.876-.17-1.1-.247-.946-.328-1.905-.568-2.866-.87a48 48 0 0 0-2.258-.648c-.625-.161-1.553-.356-2.178-.218-.547.114-1.312.463-1.88.475-.32 1.522 3.43 1.302 4.217 1.352 1.686.104 3.366 1.108 5.041 1.32.52.068.96-.216 1.459-.146"/><path fill="#a2c6dd" d="M44.413 166.615c-.057.165.156.504.123.757-.043.317-.158.544-.093.88.122.613-.26.928-.54 1.462-.236.45-.967.915-1.432 1.072-.906.308-1.77.331-2.712.283-.435-.026-.88-.049-1.308-.091-.218-.022-.568.027-.767-.063-.163-.072-.143-.093-.227-.271-.306-.64-.611-1.096-1.128-1.604-.265-.263-.45-.296-.831-.4-.446-.125-.748-.121-1.197-.234-.396-.102-1.026-.263-1.437-.323-.486-.065-.837-.218-1.318-.337-.58-.14-1.19-.276-1.787-.339-.47-.052-.99-.206-1.452-.206a2 2 0 0 0-.84.187c-.826.396-1.151.475-1.248.693.583.243 1.292.048 1.906.263.64.222 1.308.473 1.99.629.718.165 1.427.473 2.16.584.301.045.57.129.874.203.332.078.865.09 1.153.27.234.145.613.917.599 1.184-1.117.059-2.307-.063-3.356-.455-.743-.276-1.51-.568-2.271-.757-1.172-.294-2.52.17-3.662-.199-.526-.169-.968-.126-1.363-.521-.213-.214-.266-.622-.582-.613-.228.006-.606.039-.811.126-.51.214-.11.888.038 1.271.175.454.506 1.141.961 1.297a3.6 3.6 0 0 0 1.682.12c.625-.114 1.059-.153 1.709-.174 1.19-.035 2.384.664 3.512 1.089.775.291 1.575.537 2.332.855.635.265 1.295.315 1.968.417.843.128 1.618.013 2.473.097.901.09 1.853.17 2.764.099.837-.067 1.877.202 2.666-.14.276-.12.498-.131.771-.257.523-.24 1.283-.613 1.678-1.031.53-.563.97-.674 1.207-1.524.196-.703.139-1.147.082-1.801a5.2 5.2 0 0 0-.465-1.674c-.118-.257-.383-.468-.623-.598-.197-.107-1.135-.434-1.226-.218"/><path fill="#0b1938" d="M21.72 177.886c.596.102 1.207.514 1.717.827.578.355.85.683 1.38 1.067.324.236.706.703 1.027.946.356.271.694.546 1.088.763.714.392 1.38.261 2.139.425.28.065.557.193.791.371.282.218.23.427.242.772.01.352.082.671-.114.975a7 7 0 0 1-1.066 1.217c-.372.316-.66.318-1.03.63-.341.289-.964.58-1.398.665-1.1.218-1.315.494-2.41.752-.81.187-2.404.432-3.247.385-.577-.025-.905-.178-1.45-.323-.622-.167-1.151-.371-1.669-.75-.534-.394-.634-.729-.692-1.372-.022-.25-.271-.594-.394-.816-.12-.222-.181-.5-.395-.607-.511-.267-.988-.559-1.483-.843-.575-.325-1.108-.703-1.703-.993-.566-.272-1.09-.667-1.659-.914-.34-.147-.58-.154-.636-.574-.041-.306.14-.586.126-.906.808.285 1.485.836 2.29 1.157.342.137.625.31 1.002.363.42.058.742-.101 1.126-.257.394-.16.806-.311 1.217-.451.487-.166.896-.444 1.35-.662.944-.462 1.954-1.08 2.916-1.492.187-.08 1.413-.296 1.405-.479m-8.191 6.597c-.068-.286-.624-.426-.878-.543-.282-.13-.506-.304-.757-.479-.491-.336-.985-.69-1.513-.974-.49-.265-1.12-.332-1.331-.88-.086-.217-.074-.449-.133-.693-.05-.23.113-.574.057-.816-.125-.531-.103-.833.17-1.271-.388-.297-.833-.588-1.307-.73-.352-.107-.547.02-.597.356-.042.271-.228.38-.39.613-.17.24-.005.436-.04.748-.04.325.016.658.028.977.023.58-.124 1.168.365 1.574.473.391.846.868 1.301 1.273.588.523 1.303.775 2.006 1.12.365.18.743.318 1.132.452.434.152.993.419 1.468.337.238-.04.381-.17.45-.42.041-.153.045-.622-.094-.667"/><path fill="#a2c6dd" d="M30.09 182.085c.79.187.272 1.475.023 1.88-.26.423-.349.736-.781 1.032-.255.172-.582.284-.816.49-.269.235-.366.347-.728.508-1.043.458-2.336 1.024-3.445 1.297-.71.173-1.546.323-2.277.393-1.47.138-2.442-.113-3.753-.851-.958-.542-1.02-1.573-1.384-2.477-.19-.469-.698-.566-1.129-.821-.621-.37-1.213-.765-1.846-1.121-.66-.372-1.347-.694-2.02-1.05-.536-.288-1.164-.566-1.067-1.273.033-.234.363-.585.296-.728-.064-.144-.495-.237-.63-.302-.147-.074-.383-.314-.544-.329-.44-.027-.55.874-.545 1.238.007.458.081 1.036.265 1.45.128.29.35.363.607.515.346.208.653.465 1.008.646.568.29 1.053.644 1.603.97.415.247 1.125.516 1.247.99.052.201.156.557-.065.666-.15.077-.652-.06-.848-.06-.66 0-1.117-.243-1.694-.522-.741-.358-1.668-.66-2.305-1.18-.506-.41-1.028-1.115-1.69-1.29-.04.244.09.519.154.752.072.264.086.485.086.758 0 .576.14.969.552 1.384.728.742 2.021.969 3.02 1.135 1.018.17 2.042.533 3.033.878.656.23 1.178.553 1.787.88.649.348 1.088.779 1.657 1.2.286.21.582.379.85.613.212.184.405.224.666.334.341.145.716.351 1.06.46.246.082.478.195.727.236.668.103 1.369-.072 2.034-.093.961-.032 1.814-.366 2.712-.701.857-.327 1.764-.43 2.58-.865a7 7 0 0 0 1.059-.664c.336-.267.713-.36 1.088-.558 1.416-.748 2.944-2.448 2.544-4.142-.14-.597-.631-1.1-1.212-1.292-.556-.188-1.372-.464-1.965-.433"/><g fill="#010101"><path d="M23.252 170.878c-.2-.132-.613.037-.329.217.816.534 1.007.804 2.073.646 3.267-.477 6.09 1.19 9.16 1.958 2.93.732 7.154.625 10.056-.278 3.12-.972 3.105-4.292 1.775-6.611-.318-.557-6.632-1.644-2.968-.683-2.818-.735-5.479-1.722-8.013-3.17-.245-.137-.514.123-.218.294 2.54 1.45 5.271 2.595 8.14 3.216 1.252.274 3.393.45 3.467 2.434.154 4.139-3.79 4.859-7.072 4.73-3.954-.158-7.22-.83-10.935-2.355-1.692-.696-3.42.724-5.136-.398"/><path d="M44.594 166.628c-.02-.22-.528-.293-.505-.039.086.952.34 2.008-.292 2.85-.571.76-1.339 1.301-2.312 1.412-1.378.158-2.729-.101-4.104-.163-.339-.017-.234.345.046.36 1.741.08 3.994.708 5.602-.279 1.673-1.024 1.723-2.348 1.565-4.14"/><path d="M36.106 168.74c-.138-.177-.612-.103-.416.143.518.653 1.062 1.286 1.477 2.013.106.187.613.187.477-.056-.434-.758-.998-1.419-1.538-2.1"/><path d="M27.825 167.016c-.339-.043-.228.327.045.36 2.707.33 5.49.878 8.094 1.678.306.095.392-.244.091-.337-2.656-.816-5.472-1.365-8.23-1.701M25.753 167.862c-.336.006-.061.362.174.36 1.197-.023 2.615.458 3.748.774 1.433.397 2.861.805 4.305 1.162.307.08.4-.26.09-.337-2.625-.652-5.573-2.015-8.317-1.959M34.775 171.341c.337-.027.066-.376-.173-.358-2.114.173-4.248-.866-6.28-1.267-1.058-.21-3.808.364-4.211-1.032-.061-.214-.572-.273-.504-.039.41 1.423 2.476 1.35 3.659 1.364 2.564.03 4.922 1.542 7.509 1.332"/><path d="M34.413 169.961c-.117-.179-.626-.175-.476.056.25.38.413.806.624 1.208.099.19.606.194.475-.055-.21-.4-.375-.829-.623-1.209"/></g><g fill="#010101"><path d="M8.345 178.019c.033-.058-.429-.253-.5-.139-1.497 2.47-1.169 7.372 2.15 8.11 5.189 1.158 8.974 6.03 14.476 4.526 1.997-.547 12.151-4.277 8.129-7.738-.621-.534-1.602-.712-2.375-.775-3.508-.284-5.003-2.815-7.814-4.084-.108-.044-.581-.08-.284.058 2.717 1.226 4.075 3.64 7.071 4.114 9.315 1.471-1.885 7.652-5.14 8.24-3.449.623-8.386-2.863-11.86-3.956-2.56-.804-4.62-1.74-4.59-4.852.012-1.281.06-2.39.737-3.504"/><path d="M14.075 185.284c.241-.004-.224-.195-.324-.193-2.41.042-4.509-1.486-6.072-3.144-.08-.085-.55-.148-.453-.046 1.751 1.855 4.199 3.431 6.849 3.382M29.707 182.017c-.29-.07-.33.07-.038.141 2.027.494-2.331 3.859-2.664 3.997-1.245.517-2.562.994-3.904 1.199q-3.032.736-5.669-1.431a32 32 0 0 0-.448-1.857c-.025-.15-.504-.179-.496-.136.328 1.846.817 2.744 2.642 3.387 1.945.687 4.053.417 5.994-.165 1.973-.592 4.452-1.382 5.25-3.51.36-.965.272-1.396-.667-1.625"/><path d="M11.096 180.82c-.111-.057-.58-.095-.287.054 1.085.547 2.126 1.162 3.178 1.766.771.445 1.721.825 2.405 1.393.092.074.551.129.452.045-.831-.689-1.92-1.115-2.85-1.657a57 57 0 0 0-2.898-1.601M10.042 181.74c-.085-.05-.586-.112-.376.005 1.436.796 2.83 1.664 4.22 2.544.083.054.583.124.377-.006-1.387-.878-2.78-1.748-4.22-2.544"/><path d="M9.579 181.754c.06.123.52.152.49.091-.429-.835-.735-2.234-.14-3.061.033-.045-.414-.251-.498-.134-.596.83-.285 2.26.148 3.104M13.846 185.153c.004.138.5.2.497.134-.01-.296-.041-.6.024-.895.023-.112-.477-.234-.497-.136-.065.294-.032.597-.024.897M10.72 180.806c.04.123.52.177.488.095-.148-.456-.11-.876.054-1.318.036-.087-.455-.243-.495-.133-.172.457-.2.897-.047 1.356"/></g><path fill="#244764" d="M22.194 168.622c.074.017.146-.008.222.013.016.72.349 1.088.577 1.701.257.697.1 1.507.21 2.272.101.712.473 1.369.588 2.078.107.657.632 1.034.808 1.639.33 1.133-2.355 1.282-3.266 1.698-1.454.662-2.934 1.524-4.394 2.137-1.226.512-2.3 1.291-3.48.718-1.542-.743-1.385-.627-3.036-1.806-1.774-.96-2.25-.813-3.136-2.337-.477-.821-.333-1.341-.253-2.246.115-1.29.271-2.43.532-3.665.24-1.135.607-1.86 1.007-2.988.398-1.12.62-2.672.497-3.971-.117-1.228-.432-2.278-.482-3.565-.098-2.491.52-4.981.666-7.392.157-2.59.155-5.19.533-7.716.192-1.281.461-2.401.635-3.711.17-1.299.442-2.451.58-3.928.052-.58-.142-1.15-.013-1.776.14-.681.576-1.18.986-1.676.882-1.072.89-2.284.89-3.614a52 52 0 0 0-.202-4.375c-.138-1.67-.207-3.473-.473-5.27-.377-2.523-.655-4.538-.438-7.127.668-.146-.588-1.885-.064-1.709.463.154-.18-1.084-.041-1.555.237-.816-.5-1.17-.02-3.182.107-.458-.462-2.856.06-2.829-.107.323.197-1.675.197-2.01 0-1.602.234-3.246.547-3.077.497.01 4.827 1.861 4.805 1.841 1.031-.085 2.168.14 3.202.037 1.548-.16 1.64-.198 3.111-.605 3.23-.89 10.643-7.063 13.713-7.838.782-.199 1.53 13.806-.244 17.945-.29.681-.257 1.883-.376 2.498-.16.823-.27 1.757-.31 2.583-.07 1.473.068 2.992-.086 4.433-.167 1.58-.463 2.933-.303 4.47.139 1.33-.237 2.653-.236 3.985.002 1.308-.25 2.701-.247 4.02.014 5.194-1.024 10.292-.77 15.416.063 1.24.354 2.565.236 3.77-.125 1.258-.82 2.362-1.19 3.578-.373 1.236-.245 2.445.195 3.609.378.996 1.529 2.163 1.263 3.327-.217.94-1.614 1.397-2.378 1.95-1.084.789-2.904 1.721-4.084 2.312-2.228 1.114-3.727 2.11-6.31 2.128"/><g fill="#010101"><path d="M32.751 105.016c.293-.1-.105-.375-.294-.31-.849.292-1.826.501-2.483 1.159-1.09 1.092-1.518 2.789-1.95 4.216-.063.206.434.343.497.135.4-1.326.794-3.02 1.808-4.037.66-.664 1.564-.87 2.422-1.163"/><path d="M30.368 106.329c.017-.22-.483-.336-.498-.134-.383 5.046-1.119 10.536-2.677 15.364-1.072 3.319-3.247 7.177-3.247 10.71 0 .2.503.29.503.05 0-4.11 2.804-8.152 3.656-12.12.978-4.577 1.906-9.198 2.262-13.87M12.68 99.422c.06-.209-.44-.341-.493-.132-1.8 6.393-.818 13.97-.323 20.482.247 3.273.694 6.552.735 9.833.027 2.299-.008 3.152-1.277 4.99a4 4 0 0 0-.28.68c-.102 2.066-.643 3.997-.772 6.043-.017.223.484.337.497.134.142-2.244.336-5.672 1.614-7.516.502-.73.745-1.867.735-2.735-.044-3.496-.42-6.946-.684-10.424-.515-6.809-1.625-14.698.248-21.355"/><path d="M25.674 127.215c-.01-.2-.514-.288-.502-.053.126 2.654 1.265 5.294.831 7.966-.311 1.916-.805 3.769-.831 5.717-.004.199.498.292.502.049.036-2.52 1.164-5.02.907-7.541-.21-2.067-.808-4.06-.907-6.138M37.763 92.503c-.02-.203-.527-.284-.502-.05.43 4.197 1.115 8.508.658 12.735-.425 3.911-1.68 7.617-1.855 11.565-.008.197.492.29.502.049.199-4.459 1.885-8.624 1.94-13.086.046-3.779-.359-7.462-.743-11.213M35.577 151.681c.086-.183-.407-.334-.498-.134-1.044 2.278-1.447 5.198-3.108 7.118-1.753 2.03-3.125 2.82-5.917 2.946-.339.018-.04.34.181.331 2.7-.12 4.207-.765 5.941-2.772 1.824-2.112 2.25-4.975 3.401-7.489"/><path d="M35.077 152.073c.045.198.553.27.502.042-1.528-6.757-.214-15.192.341-22.03.401-4.937.507-9.839.709-14.787.009-.197-.492-.292-.503-.049a727 727 0 0 1-.99 18.36c-.392 5.946-1.38 12.615-.06 18.463M33.626 156.88c-.046-.2-.554-.271-.503-.049.222.961.322 2.243.91 3.072.517.73 1.661 1.941.612 2.95-.67.64-1.391 1.07-2.199 1.492-3.29 1.73-6.25 4.066-10.107 4.247-.342.017-.04.341.179.332 1.959-.09 3.76-.628 5.482-1.57 1.988-1.087 4.225-2.123 6.066-3.437.75-.54 1.942-1.484 1.38-2.581-.786-1.529-1.428-2.75-1.82-4.457M10.406 170.52c.024.202.534.28.498.048-.73-5.519-2.504-9.994-1.666-15.72.655-4.473.397-9.21 1.506-13.623.055-.212-.444-.343-.496-.136-1.193 4.749-1.438 10.375-1.8 15.25-.372 4.979 1.318 9.345 1.958 14.18"/><path d="M24.847 176.349c-.024-.203-.531-.282-.5-.049.107.888-4.073 1.908-4.77 2.243-.947.455-1.852.952-2.778 1.447-2.216 1.19-3.763.453-5.832-.83-2.354-1.46-4.179-3.063-3.585-6.196.218-1.137.442-2.291.832-3.383.638-1.79 1.253-3.418 1.274-5.325.002-.198-.498-.291-.502-.048-.041 3.928-3.42 8.082-1.97 12.07.643 1.762 2.034 2.09 3.63 3.078.908.562 2.004 1.47 3.073 1.757 2.694.722 5.65-2.345 8.095-3.048.882-.255 3.193-.4 3.033-1.716M25.561 140.708c-.004-.199-.506-.29-.502-.05.047 3.026.508 6.312-.132 9.29-.43 2.003-1.371 3.582-2.015 5.484-.506 1.505-.764 2.651-.205 4.176 1.734 4.744-.114 4.79-1.745 7.739-.116.213.361.383.457.211.993-1.798 2.375-2.846 2.633-4.95.289-2.346-1.814-4.54-.642-7.038 2.37-5.045 2.235-9.411 2.151-14.862"/><path d="M20.568 165.147c.027-.22-.475-.339-.498-.134-.23 1.945 1.518 2.496 2.25 4.06 1.111 2.358.911 5.087 2.039 7.505.082.18.584.208.47-.037-1.064-2.282-1.163-4.613-1.805-7.005-.466-1.744-2.702-2.286-2.456-4.389"/></g><path fill="#d8ad8c" d="M29.453 13.767c-.123.142.27-.012.331.175.204.628.428.57.622 1.187.199.626-.136 1.533.126 2.167.28.68-.218 1.605.1 2.263.072.149.145.377.287.476.109.075.373.556.45.613.18.14.244.114.299.34.312 1.263.338 2.527.414 3.858.036.663.184 1.313.13 1.98-.03.368.043.699.01 1.066-.043.512-.27.974-.374 1.469-.167.8-.234 1.559-.529 2.348-.113.302-.317.577-.397.888-.054.209.022.255-.095.48a1.2 1.2 0 0 1-.212.29c-.988 1.02-2.692 1.586-4.031 1.801-.673.11-1.473.206-2.119.17-.26-.013-.57.093-.808.053-.361-.057.006.692-.09 1.042-.156.564.44 1.353.807 1.645.446.354.514.787.984 1.121.289.2.69.848.886 1.137.217.315.516 1.335.775 1.613.459.492.066.324.459.858.436.593.294.478.34 1.246.036.554.46 1.457-.04 1.922-.245.231-.324.686-.47.974-.211.413-1.157 1.364-1.635 1.461-.809.164-2.484.494-3.15-.134-.237-.225-2.277-1.938-2.513-2.167-1.033-1.012-.677-.953-1.606-2.257-.45-.63-.864-1.422-1.49-1.888-.603-.448-.319-.97-.96-1.338-.676-.387-.1-.5-.774-.917-.27-.167-.4-.73-.701-.846-.284-.106-.236-.476-.588-1.056.083-.5 1.072-2.089 1.065-2.965-.014-1.267-.416-1.968-.47-3.247-.026-.653-.379-.941-.477-1.596-.044-.296-.256-.335-.36-.626-.1-.264-.05-.47-.245-.645-.074-.132-.424-2.247-.85-1.613-.662.986-1.305 1.06-1.722.777-.49-.333-.693-.122-1.188-.469-.583-.41-.895-.674-1.285-1.24-.395-.574-.798-1.044-1.073-1.727-.356-.885-.227-2.355.434-2.648.603-.267 1.488-.444 2.086-.288.577.15 1.111.646 1.598.973 1.01.68 1.08 1.262 1.314 1.505-.059-.362.697.479.98.698.474.4.575.683.832 1.28.133.308.111-.071.176.242.062.3-.179-.853-.062-.564-.093-.95.158.564.059-.405-.047-.457.031-.698-.138-1.15-.208-.563-.044.118-.27-.447.178.273-.89-2.525-.417-1.844.33.468-.862-2.265-.755-1.71-.03-.449 2.093 3.496 1.974 3.04-.105-.402-.066-1.465-.215-1.862-.466-1.242-.229-1.383-.761-2.599-.256-.576-.562-1.4-.716-1.99-.128-.493-.258-1.067-.484-1.841-.128-.227-.516-2.149-.068-1.74.43.396 1.398 2.42 1.935 2.642 1.283.535 1.598 1.002 2.975 1.098-.442-.1 1.672.28 1.36.06-.34-.243-1.165-.561-1.456-.868-.278-.294-.544-.396-.855-.669-.407-.352-.288-.346-.627-.814-.2-.35-.958-1.83-.516-1.355.525.569 1.97 1.256 2.743 1.548.747.283 1.662.3 2.323.259.78-.05 1.909.002 2.765-.14.727-.12 1.413-.068 2.062-.347.952-.03.508-.013.495-.03l.726-.157c1.092-.414.851-.058 1.942-.394"/><g fill="#010101"><path d="M8.966 25.646c-.099-.117-.598-.16-.459.001.44.528 1.111.83 1.806.757.395-.042.714-.182 1.074-.337.316-.137.957-.488.913.113-.015.183.486.285.497.134.041-.552-.311-.778-.838-.767-1.07.02-2.006 1.278-2.993.098"/><path d="M12.939 26.73c.044-.164-.452-.299-.497-.134-.769 2.758-3.492.15-4.363-1.14-.408-.608-1.002-1.359-.862-2.138.202-1.15.8-1.767 2.046-1.71.337.014-.022-.261-.198-.27-1.464-.064-2.234.694-2.377 2.144-.093.934 1.057 2.222 1.6 2.86 1.139 1.342 3.948 2.922 4.65.388"/><path d="M11.432 24.286c.152.08.601.021.302-.134-.885-.457-1.762-1.532-2.857-1.451-.722.054-1.563.397-1.371 1.263.037.162.535.242.497.067-.162-.732.779-1.321 1.444-1.01.714.334 1.284.902 1.985 1.265M12.567 24.099c.092.123.592.174.461-.001-1.067-1.453-2.882-3.308-4.862-2.547-.199.076.257.287.399.232 1.632-.627 3.139 1.14 4.002 2.316M30.99 20.648c.079.133.577.192.462-.002-.49-.835-.508-2.24-.61-3.18-.14-1.28-.014-2.379-.763-3.528-.084-.13-.583-.185-.462.002 1.277 1.958.192 4.696 1.374 6.708M12.972 26.97c-.048-.16-.545-.232-.499-.068 1.837 6.157 9.553 10.256 15.772 8.052.198-.07-.256-.284-.399-.232-5.974 2.116-13.14-1.93-14.874-7.752M27.25 17.525c.112-.154-.37-.32-.464-.191-.922 1.264-.8 4.48.53 5.466.119.089.62.096.397-.07-1.23-.91-1.31-4.041-.463-5.205M28.031 26.623c-.12.138.357.314.464.192.503-.575 1.358-.564 1.206-1.555-.137-.897-1.002-1.392-1.677-1.878-.119-.087-.622-.093-.397.07.675.485 1.752 1.075 1.558 2.067-.117.603-.774.67-1.154 1.104M25.826 25.83c.11-.154-.372-.32-.464-.191-.425.586-.228 1.323.494 1.533.32.094.744.132 1.047-.033.316-.174.61-.406.95-.532.198-.073-.257-.286-.398-.232-.385.143-.737.544-1.15.591-.738.082-.816-.673-.48-1.136"/><path d="M23.912 35.453c.053-.156-.441-.298-.497-.134-.371 1.101.264 2.24.955 3.068.098.117.599.16.462-.002-.664-.795-1.274-1.873-.92-2.932M31.533 28.722c-.044.164.455.298.496.133.445-1.69.496-3.594.39-5.33-.06-.948-.036-2.647-1.168-2.994-.296-.091-.354.142-.06.232.963.295.768 3.453.75 4.104-.032 1.281-.08 2.61-.408 3.855M27.72 34.724c-.195.057.254.274.398.232.982-.29 2.326-.792 2.886-1.714.102-.168-.384-.323-.464-.191-.552.907-1.85 1.386-2.82 1.673M13.475 37.709c-.128.123.342.307.46.19 1.961-1.946 1.01-5.747.279-7.978-.05-.16-.551-.229-.496-.067.717 2.196 1.685 5.94-.243 7.855"/><path d="M30.648 33.006c-.062.143.426.298.497.134.254-.586.495-1.195.517-1.84.008-.184-.494-.28-.497-.134-.025.645-.265 1.256-.517 1.84"/></g><path fill="#555d7b" d="M13.707 37.807c.579.817.579.817 1.116 1.46.7.837 1.234 1.5 1.674 2.512.486 1.12 2.31 2.263 2.76 3.396.427 1.075 1.68 1.882 2.607 2.598 1.194.921.954.759 2.586.921 1.538.151 2.834-1.616 3.36-3.1.48-1.359.117-1.141-.388-2.344-.219-.519-.797-2.439-1.166-2.914-.76-.981-1.186-1.199-1.452-2.194 1.311.448 4.351 1.378 5.269 2.107 1.894 1.502 3.959 2.34 4.247 4.926.144 1.275 1.488 3.348 2.027 4.076.75 1.014 1.401 1.182 1.757 1.888.572 1.131-.217 4.66-.117 5.666.11 1.09.112 1.93-.445 3.14-.46 1-1.588 1.797-2.513 2.325-.536.304-1.694.731-2.614.574-.547-.095-.429.416-.395 1.308.056 1.465-.242 2.529.196 3.588.526 1.275.551 2.455.77 3.804.106.655.081 1.289.268 1.935.218.762.604 1.374.798 2.07.17.615.1 1.188.317 1.769.226.608.592 1.168.864 1.767.551 1.207 1.323 2.099 1.704 3.392.185.634.5 1.2.399 1.915-.084.59-.516 1.153-.559 1.752-.096 1.31.709 2.362 1.03 3.424.216.712.354 1.323.234 1.96-.172.89-.271.918-1.106 1.445-1.197.755-2.465 1.295-3.616 2.103-1.246.88-2.674 1.682-3.984 2.444-1.225.708-2.223 1.551-3.474 2.227-1.007.541-2.705 1.185-3.815 1.326-2.663.339-5.44.176-7.736-.931-1.319-.633-3.04-.416-2.113-1.71.894-1.246-1.688-6.05-1.999-7.362-.648-2.739-1.388-3.531-1.919-6.917-.39-2.518-.521-2.201-.705-5.137-.085-1.304-.64-4.058-.37-5.427.258-1.308-.116-3.188-.792-5.024-1.18-3.211-.068-.627-.68-2.854a22 22 0 0 0-1.96-.84c-.48-.184 0-1.19 0-2.258 0-1.238 0-1.541-.146-2.663-.107-.816-.175-.947-.022-1.75.111-.59-.432-1.923-.212-2.563.206-.592-.306-1.168-.385-1.838-.144-1.246-1.286-3.264-1.172-4.572.223-2.59-.084-1.977.975-4.275.564-1.223 1.94-2.756 2.949-3.708C6.844 40.222 7.989 39.67 9.182 39c2.132-1.196.828-.571 3.147-1.21"/><g fill="#010101"><path d="M13.868 37.905c.244-.004-.22-.204-.324-.201-4.561.078-9.548 3.817-11.428 7.957-.861 1.892-.692 3.94-.052 5.893 1.45 4.434 1.112 8.695 1.46 13.252.01.149.505.203.498.134-.243-3.157.27-6.575-.452-9.673-.544-2.349-1.81-4.953-1.57-7.416.487-4.993 7.17-9.865 11.868-9.946M24.364 37.913c-.19-.06-.513.003-.173.111 2.723.873 6.178 1.787 8.15 4.008 1.685 1.9 1.764 4.418 3.203 6.434.733 1.027 1.663 1.876 2.47 2.845.074.09.552.16.451.039-1.562-1.878-2.963-3.354-3.768-5.735-.66-1.956-1.425-3.34-3.167-4.492-2.262-1.494-4.577-2.38-7.167-3.21M38.116 59.555c.04-.079-.436-.257-.498-.134-.826 1.63-3.478 3.735-5.409 3.432-.35-.056-.106.152.095.184 2.156.337 4.871-1.627 5.812-3.482M33.154 71.13c-.02-.12-.51-.207-.492-.09.525 3.337 1.425 6.157 3.08 9.121 2.194 3.93.638 5.96-1.355 9.415-.04.07.426.257.498.134 2.097-3.635 3.493-5.517 1.348-9.46-1.626-2.993-2.552-5.769-3.08-9.12"/><path d="M19.101 61.81c.04-.088-.444-.254-.496-.133-2.296 5.258-10.386 5.056-14.688 3.162-.117-.052-.588-.069-.288.064C8.169 66.9 16.665 67.397 19.1 61.81"/><path d="M18.55 61.63c.074.092.549.161.449.04-1.668-2.054-4.217-6.203-2.403-8.763.04-.055-.41-.257-.497-.134-1.844 2.604.78 6.8 2.45 8.857M24.825 38.406c-.083-.085-.555-.145-.45-.039 1.268 1.27 2.488 3.04 3.024 4.794.595 1.95.072 5.034-2.447 5.354-3.339.424-5.237-3.114-6.881-5.313-1.351-1.803-2.76-3.558-4.12-5.354-.092-.117-.528-.133-.495-.089 2.12 2.799 4.116 6.198 6.63 8.644 1.198 1.167 2.381 2.167 4.062 2.378 2.022.255 4.032-1.428 4.049-3.523.02-2.542-1.622-5.1-3.372-6.852M36.99 86.153c0-.142-.499-.212-.499-.134.004 2.122 2.636 4.841.668 6.636-.076.07.373.258.47.169 2.018-1.84-.635-4.526-.64-6.671M21.673 98.688c.249-.005-.218-.206-.32-.202-5.086.1-8.862-4.838-11.32-8.68-.078-.123-.528-.145-.493-.09 2.688 4.206 6.667 9.08 12.133 8.972"/><path d="M37.746 92.564c.068-.043-.35-.246-.471-.17-7.49 4.799-15.775 12.019-25.2 6.642-.088-.052-.594-.108-.38.013 9.716 5.543 17.789-1.194 26.051-6.486"/><path d="M5.697 65.756c-.057-.128-.53-.171-.491-.092 2.194 5.118 1.51 10.552 2.262 15.902.416 2.96 1.272 6.634 2.454 9.383.898 2.08 3.043 5.79 1.63 7.953-.038.06.417.257.497.134 1.29-1.97-.297-4.89-1.12-6.801-1.38-3.2-2.81-7.533-3.001-11.02-.283-5.136-.17-10.65-2.231-15.46M33.17 49.781c-.01-.147-.503-.204-.497-.134.374 5.467-1.425 11.013-.813 16.398.017.151.505.196.498.134-.612-5.384 1.186-10.931.813-16.398"/></g><path fill="#d8ad8c" d="M30.831 35.234c-.202.511-.345 1.63.035 1.94.345.287-1.083.493-.845.908.352.615-.01.372.363.767.142.152.427.152.447.345.022.222.633.565.692.783.158.604.271.784.788 1.163.697.515.842 1.334 1.446 1.937.35.35.893.457 1.179.87.227.33 1.81.971 2.124 1.224.745.601 0 1.164.496 1.631.683 1.848.913 2.669.806 4.715-.076 1.45-.316 3.206-.316 4.665 0 .45-.072.987-.136 1.423-.052.37.012.598.053.969.085.796-.444 1.527-.904 2.017-.451.482-1.02 1.035-1.592 1.405-.543.348-1.09.655-1.736.775-.231.041-1.067.07-1.24.212-.207.168.362.396.465.606.284.569.616 1.15 1.02 1.684.205.273.408.43.752.41.386-.02.386-.177.634-.428.466-.473 1.476-.917 2.017-1.296.563-.395 1.065-.466 1.47-.863.249-.244.453-.356.738-.335.372.028.773.16 1.156.226.808.14 1.605.297 2.45.256.327-.018.803-.217.817.258.006.163-.291.592-.42.697-.448.37-1.25.351-1.817.377-.308.015-.693.019-.99.13-.385.144-.582.352-.119.396 1.188.114 2.672-.545 3.647-1.171.56-.359.89-.564 1.162-1.158.247-.54.528-1.149.633-1.719.26-1.386-.11-3.056-.378-4.394-.389-1.92-.985-3.536-1.563-5.442-.26-.852-.608-1.697-.93-2.508-.38-.953-.32-.918-.688-1.866-.17-.438-.413-.97-.558-1.415-.14-.434-.826-1.57-.972-1.997-.296-.858-.045-2.325-.294-3.209-.248-.883-.43-1.622-.91-2.418-.553-.917-.791-2.385-1.665-2.964-.85-.56-1.781-2.247-2.626-2.814-.648-.434-3.488-3.34-4.387-3.467-.532.415-.665.533-.573 1.322.041.359 1.778 1.939 1.525 2.146-.22.181-1.573 1.696-1.686 1.967"/><g fill="#010101"><path d="M31.244 28.687c.227-.066-.05-.306-.214-.257-1.804.532-.1 2.61.753 3.25.152.115.454-.024.25-.176-.696-.522-2.32-2.365-.789-2.817"/><path d="M34.705 34.804c.11.134.465.069.314-.115-.915-1.115-2.082-2-2.954-3.154-.104-.14-.458-.076-.313.116.87 1.154 2.037 2.04 2.953 3.153"/><path d="M30.68 34.919c-.03.182.344.278.373.1.137-.85 1.072-1.894 1.897-2.12.227-.062-.05-.301-.215-.257-.898.245-1.908 1.355-2.056 2.276"/><path d="M34.152 36.658c.123.12.483.05.316-.115-.896-.883-2.106-1.364-2.938-2.317-.115-.131-.47-.064-.314.115.836.955 2.042 1.431 2.936 2.317"/><path d="M30.683 34.985c.197.078.407-.132.169-.228-1.041-.42.965-2.372 1.382-2.622.184-.11-.142-.306-.288-.218-.648.384-2.686 2.493-1.263 3.068M36.934 45.258c.15.118.451-.019.25-.178-.617-.484-1.233-.735-1.918-1.098-1.234-.653-2.058-1.642-2.756-2.83-.519-.882-3.073-2.944-1.747-3.708.183-.105-.142-.303-.288-.218-1.794 1.032.657 2.38 1.2 3.21.702 1.068 1.247 2.21 2.275 3.025.928.739 2.05 1.065 2.984 1.797"/><path d="M37.238 45.148c-.054-.162-.429-.161-.358.047 1.094 3.218 1.506 6.35 1.117 9.742-.285 2.477-.471 4.716.243 7.133.05.165.421.165.358-.047-1.033-3.505.136-6.812-.042-10.348-.112-2.24-.596-4.407-1.318-6.527M40.925 42.268c-.047-.168-.43-.21-.38-.027 1.715 6.234 7.768 14.47 4.523 20.999-.09.18.264.32.34.167 3.263-6.564-2.756-14.856-4.483-21.14M34.362 65.769c.117.129.475.06.316-.116-.746-.825-1.483-1.654-1.947-2.677-.07-.155-.45-.151-.358.047.475 1.047 1.226 1.9 1.99 2.746"/><path d="M31.287 28.394c-.157-.099-.463.04-.25.178 2.437 1.546 4.65 3.6 6.51 5.8.934 1.106 1.86 2.262 2.356 3.647.588 1.644.47 3.121.728 4.772.027.172.41.22.38.026-.267-1.71-.016-3.198-.75-4.845a14 14 0 0 0-2.4-3.717c-1.947-2.186-4.094-4.287-6.574-5.861M30.687 37.198c.085.145.465.137.359-.047-.33-.56-.13-1.429.007-2.025.041-.179-.333-.278-.374-.1-.148.642-.346 1.57.008 2.171"/><path d="M30.915 37.097c-.191-.097-.395.113-.168.229.825.416 1.575.889 2.28 1.49.145.123.443-.013.25-.177-.73-.623-1.508-1.109-2.362-1.542"/></g><path fill="#d8ad8c" d="M6.222 65.733c-.039.299.136.566.265.815.185.358.232.623.251 1.035.028.664.51 1.37.705 1.998.238.772.366 1.409.672 2.166.128.322.416.649.558.955.211.442.308.863.55 1.292.205.364.409.764.643 1.119.211.314.492.541.71.855.49.702.908 1.535 1.463 2.188.454.534 1.049 1.135 1.624 1.558.742.546 1.298.51 2.196.335 1.92-.375 3.674-1.167 5.463-1.967 3.346-1.5 6.272-3.636 9.282-5.68.783-.531 1.616-1.01 2.43-1.494.692-.412 1.255-.811 2.056-.74.839.074 1.584.31 2.41.515.982.241 1.968.287 2.967.44 1.337.208 4.017.057 4.773-1.33.445-.815.803-1.383 1.293-2.197.286-.476.846-1.36.933-1.914.074-.46-.15-.346-.162-.808-.015-.627-.202-.888-.537-1.476-.19-.337-.182-.862-.611-.923-.742-.104-.908.962-1.305 1.314-.256.228-.63.308-.89.538-.158.14-.268-.113-.452-.02-.204.102-.492.46-.722.48-.692.07-1.489.44-2.189.337.194-.95 1.327-.447 1.973-.421.375.013.687-.115.937-.396.175-.2.61-.73.482-1.024-.114-.26-.54-.069-.869-.087-.444-.023-.886-.124-1.324-.161-.732-.065-1.585-.3-2.318-.259-.35.02-.528.237-.827.496-.556.487-1.293.551-1.886.968-.523.365-1.034.77-1.544 1.165-.586.453-1.384.427-2.117.579a26 26 0 0 1-2.83.438c-1.302.128-2.473.514-3.753.768-1.085.213-2.173.438-3.223.771-.95.3-2 .407-2.968.742-.518.179-1.405.6-1.916.783-.462.166-.314-.132-.572-.614-.195-.358-.091-.738-.218-1.115-.136-.404-.291-.751-.399-1.164-.119-.452-.308-.648-.545-1.048-.143-.237-.456-.75-.451-1.01a4.3 4.3 0 0 1-.98.556c-.702.295-1.362.61-2.077.765-.76.163-1.483.278-2.272.312-.772.034-1.556-.01-2.315-.046-.806-.037-1.56-.419-2.375-.342"/><g fill="#010101"><path d="M39.754 62.705c.106-.082-.343-.276-.466-.181-1.388 1.068-3.104 1.682-4.323 2.968-.105.11.364.288.466.182 1.219-1.287 2.936-1.9 4.323-2.969M40.24 65c-.06.09.405.275.498.134.21-.319.504-.45.886-.356.294.072.35-.125.053-.199-.568-.138-1.093-.102-1.437.421M47.534 66.422c.047-.129-.447-.279-.498-.134-.411 1.119-1 2.158-1.715 3.108-.098.128.381.293.466.18.727-.965 1.33-2.018 1.747-3.154M13.972 80.245c.1.087.594.135.39-.045-4.363-3.808-6.214-8.941-7.892-14.316-.043-.145-.537-.214-.495-.076 1.704 5.458 3.585 10.584 7.997 14.437M17.852 69.61c.057.142.542.2.495.076-.688-1.706-1.08-3.512-1.742-5.227-.055-.144-.543-.203-.495-.076.662 1.715 1.053 3.521 1.742 5.227"/><path d="M35.626 65.694c.265-.044-.186-.256-.316-.235-5.147.847-10.31 1.48-15.258 3.226-2.514.89-5.52 1.976-6.214 4.836-.037.145.464.274.496.135.805-3.299 4.739-4.337 7.604-5.228 4.472-1.391 9.082-1.976 13.688-2.734M14.011 80.105c-.262.013.188.24.314.235 8.458-.387 13.81-7.774 21.332-10.264.178-.059-.274-.257-.404-.216-7.492 2.483-12.826 9.86-21.242 10.245M41.676 64.56c-.334-.015.05.23.206.237 1.02.044 2.646-.292 2.405-1.63-.021-.112-.265-.152-.35-.156-1.46-.063-2.973-.026-4.389-.432-.294-.084-.346.114-.054.198 1.503.43 3.097.405 4.647.471q-.176-.077-.35-.156c.213 1.182-1.207 1.505-2.115 1.467"/><path d="M40.257 65.012c-.335 0 .048.237.204.235 1.916-.004 3.545-.5 5.003-1.768.105-.09-.352-.28-.466-.181-1.385 1.203-2.908 1.708-4.741 1.714"/><path d="M42.352 66.863c-.173.041.272.245.403.216 1.484-.36 2.803-1.61 3.693-2.815.624-.848.828-1.694-.383-1.974-.295-.068-.35.13-.053.198 1.23.285-.168 1.758-.548 2.21-.786.935-1.91 1.874-3.112 2.165"/><path d="M43.868 67.879c-.1.068.337.268.467.18 1.051-.702 4.581-3.379 2.607-4.693-.105-.07-.61-.1-.39.045 1.77 1.179-1.738 3.836-2.684 4.468"/><path d="M44.836 68.652c-.104.074.34.273.466.181.673-.475 1.245-1.201 1.722-1.862.225-.314.488-.65.618-1.017.146-.41-.096-.82-.098-1.243 0-.167-.498-.248-.497-.135.002.386.255.89.098 1.244-.181.407-.435.777-.707 1.129-.467.601-.973 1.26-1.602 1.703M34.933 70c-.294-.067-.351.13-.053.198 3.765.87 7.984 2.291 11.067-.783.106-.105-.36-.286-.465-.182-2.926 2.918-6.984 1.592-10.549.766"/></g><path fill="#f5f6f6" d="M29.747 28.64c.144.281-.116.46-.172.705-.06.264.09.58.043.82-.102.512-.846.583-1.271.672-.56.118-1.04.3-1.61.237-.292-.033-1.264-.24-1.371-.497.679-.264 1.392-.578 2.05-.978.38-.232.765-.44 1.19-.6.29-.11.842-.335 1.134-.268"/><g fill="#010101"><path d="M29.844 28.616c.286-.059-.139-.31-.303-.275-.864.175-1.62.54-2.335 1.052-.625.447-1.227.957-2.016 1.051-.285.033.141.296.303.276.635-.075 1.15-.392 1.66-.76.848-.61 1.65-1.131 2.691-1.344"/><path d="M25.037 30.553c.004.171.505.273.499.062l.031-.107-.498-.134-.076.406.498.134c.002-.17.045-.314.09-.478.05-.18-.448-.313-.497-.134-.046.164-.089.307-.09.478-.003.182.46.32.497.134l.076-.406c.035-.188-.423-.303-.498-.134-.037.08-.034.093-.032.18"/><path d="M29.943 28.545c.066-.163-.426-.313-.497-.134-.218.53-.104.874-.065 1.425.028.405-.874.681-1.16.793-1.1.434-2.048.05-3.161.016-.336-.01.002.284.19.29.841.027 1.702.4 2.545.203.732-.172 1.378-.533 2.054-.85q.058-.029.052-.092c-.043-.58-.19-1.089.042-1.651"/></g><path fill="#f5f6f6" d="M22.454 21.708c.712.558-1.185 1.658-1.61 1.784-.91.273-2.204.424-3.078-.01-.558-.276-1.102-.761-.98-1.483.12-.705 1.223-1.01 1.817-1.167 1.352-.358 2.768-.127 3.82.767m4.723-1.427c-.607-.032-.411 1.097-.031 1.227.299.1.987-.016 1.304-.105.72-.2 1.33-.85 1.664-1.537.303-.624.58-1.216-.233-1.512-.668-.241-1.234-.027-1.745.391-.319.262-1.29 1.096-1.167 1.54"/><path fill="#33512e" d="M27.746 18.982c.219.614.454 1.666 1.367 1.164.734-.4.481-1.226.298-1.883-.555-.19-1.404.226-1.716.689M19.519 20.765c.217-.068.36.01.593.021.457.02 1.542.076 1.829.465.397.541-.131 1.136-.625 1.337-.457.187-1.063-.014-1.677-.206-.377-.117-.918-1.583-.344-1.422"/><g fill="#010101"><path d="M26.986 21.32c-.224-.091-.521.073-.196.203.906.363 1.943-.082 2.668-.644.612-.474 1.637-1.564.929-2.376-1.539-1.763-4.366 1.094-3.746 2.887.058.165.556.231.497.062-.287-.831.133-1.722.715-2.324.43-.445 1.843-1.509 2.196-.398.222.698-.346 1.377-.851 1.793-.524.43-1.495 1.083-2.212.796M22.873 21.982c.046-.174-.452-.306-.496-.134-.413 1.572-4.965 2.505-5.163.563-.217-2.128 4.545-2.046 5.324-.66.078.142.577.197.462-.009-.913-1.622-6.891-1.823-6.283.606.564 2.26 5.63 1.654 6.156-.366"/></g><g fill="#010101"><path d="M19.378 20.93c.038-.153-.337-.251-.373-.1-.574 2.479 3.668 2.677 3.108.321-.034-.144-.415-.2-.376-.039.19.807-.263 1.51-1.135 1.498-.95-.014-1.427-.8-1.224-1.68M29.472 18.205c-.074-.12-.454-.14-.352.026.27.438.507 1.22.07 1.642-.32.308-.806.393-1.027-.058-.12-.242-.198-.498-.282-.755-.046-.141-.425-.189-.376-.039.26.795.603 1.62 1.598 1.287.919-.31.774-1.444.369-2.103"/></g><path fill="#a15927" d="M30.839 19.94c.152-.204.021-1.037-.111-1.468-.17-.579.054-.709.035-1.305-.016-.604-.448-1.57-.416-2.198.045-.927-.568-1.03-1.006-1.03-.044-.003-.794.367-.4-.072-.678.184-1.332.294-1.69.36-.648.124-1.8.372-2.434.493a27 27 0 0 1-3.474.441c-1.213.074-1.753-.033-2.939-.413-1.193-.383-2.03-.988-2.947-1.7.224.855.551 1.415 1.061 2.033.292.354.444.675.874.874.374.17 1.336.548 1.589.863-1.117.196-3.025-.242-4.03-.876-1.662-1.045-2.038-2.607-2.235-3.499.096.797.113 2.125.296 2.926.18.777.574 1.814.853 2.598.579 1.626 1.47 4.175 1.113 5.507-.295-.912-1.248-2.57-1.859-3.377-.12 1.017 1.02 1.255 1.344 3.926.138 1.166.32 1.044.257 2.035-.5-1.143-.453-.956-1.187-1.599-.353-.139-.861-.87-.67-.361.087-.486-.053-.112-.074-.132-.334-.272-.54-.72-.903-1.056-.368-.34-1.222-1.169-1.805-1.35-.303-.095-1.468-.356-2.061-.033-2.416 1.315-.656 3.838.517 5.06.746.78 2.325 1.725 3.05 1.483.652-.216.938-.878 1.242-.73.25.122.148.634.29.916.823 1.635 1.35 2.955 1.549 4.96-.292.258-1.79 2.068-2.118 2.226-.187-.555.182-1.853.228-2.425.05-.646-.285-.207-.498-.847-.546 1.15-1.387 2.695-2.633 3.163.03-.389.536-1.83.687-2.187.232-.553.217-1.078.139-1.615-.148-.988-.584-.893-1.03-1.88.158.972.496 3.221-.991 3.97.186-1.337-.938-4.01-1.714-4.965-.71-.873-.958-1.769-1.622-2.694-.579-.813-1.007-1.76-1.74-2.647-.753-.914-1.072-1.58-1.627-2.67a49 49 0 0 1-.793-1.66C.694 18.4.652 17.853.522 17.212c-.204-1.04-.377-1.49.016-2.466 1.364-3.37 1.621-3.342 1.839-3.483 1.804-1.186-.26-1.354 2.357-5.1.543-.78 1.911-2.14 2.915-2.852 1.087-.77 2.629-1.61 4.09-2.055C13.013.87 14.139.88 15.442.697c1.318-.185.9-.017 2.52.047-.01-.003 1.603.432 1.705.204 1.132.001 1.722.402 2.78.657.037.026 1.146.41 1.584.614 1.277.388.376.457 1.577 1.042.86.42 3.062 1.642 3.85 2.066 1.09.709 1.527 1.002 2.264 1.755.76.777 1.731 2.259 2.026 3.247-.952-.493-1.952-1.495-3.555-.87.882 1.024 1.523.91 2.511 1.466.759.425 2.349 1.294 2.689 2.167-.675.232-2.44.089-3.156.226-.656.128-.86.188-1.463.314.527 1.024 1.134 1.08 1.769 2.013.37.54.668.926.926 1.577.294.739.926 1.44 1.32 2.024-.241-.15-.946-.431-1.21-.57-.388-.208-.527-.355-.93-.558.328.633.398.926.74 1.574.322.614.603 2.117.86 2.768-.229-.245-1.545-1.6-2.01-1.544-.566.07-.944-.44-1.4-.976"/><g fill="#010101"><path d="M12.853 12.089c-.022-.115-.397-.18-.367-.051.727 3.823 3.328 4.826 6.904 5.013.167.008.102-.119-.006-.16q-2.54-.789-3.284-3.118l.034.022c1.323.757.724.48 2.172 1 .575.206 1.901.39 2.514.386 4.952-.023 9.689-1.765 14.65-1.993.052-.002.151-.022.098-.094-.315-.418-.486-.73-.935-1a18 18 0 0 0-1.559-.886q-2.35-.859.722-.726c.03.017.352.097.298-.02-2-4.334-6.402-7.022-10.998-7.916-.258-.05-.108.151.06.184 2.202.428 5.677 1.865 7.45 3.49-4.307-3.948 5.472 4.76 2.186 3.444-1.323-.53-1.36-.415-2.78-.423-.084-.001-.155.047-.073.118 1.357 1.175 6.31 3.307 2.336 3.848-4.962.677-12.34 3.765-16.724-.254-.039-.037-.39-.121-.335-.004.704 1.531 1.503 2.634 2.882 3.615-3.368-2.396-4.526-.699-5.245-4.475M8.28 33.695c-.085.09.27.225.352.139 1.351-1.416 1.42-3.02.61-4.75l-.359-.029c1.766 1.863 1.766 5.042-.115 6.827-.09.083.26.215.349.139 1.421-1.222 2.83-2.252 3.405-4.114l-.376-.077c.561 1.061.496 2.822-.133 3.85-.06.1.295.169.362.12.92-.669 1.948-1.659 2.542-2.63.048-.081-.306-.214-.375-.1-.584.954-1.614 1.936-2.516 2.59l.362.12c.621-1.014.69-2.839.128-3.896-.04-.077-.332-.208-.373-.077-.571 1.849-1.976 2.87-3.38 4.075l.345.139c1.922-1.822 1.914-5.063.111-6.962-.044-.049-.416-.15-.358-.029.797 1.694.753 3.265-.581 4.665"/><path d="M12.857 12.22c.004-.132-.372-.201-.376-.1-.091 2.594.942 4.823 1.701 7.245.202.65.425 1.31.538 1.984.067.42.75 2.338-.084.743-.467-.894-1.119-1.702-1.723-2.504-.065-.086-.438-.128-.345-.004.915 1.21 1.739 2.412 2.344 3.813.036.077.376.195.375.077-.075-3.93-2.569-7.303-2.43-11.254M30.944 13.633c-.072-.08-.444-.113-.347-.007 1.227 1.339 2.044 2.715 3 4.245.337.537.76.973 1.116 1.487q.585.31-.308-.268c-.522-.375-1.093-.692-1.646-1.02-.033-.019-.348-.1-.3.018.452 1.08.919 2.153 1.338 3.244q.256.645.49 1.3l.423.246a2.4 2.4 0 0 0-.312-.442c-.837-.86-1.625-1.427-2.752-1.843-.16-.06-.388.038-.141.13 1.26.465 2.509 1.24 3.01 2.563.042.11.411.166.373.054a65 65 0 0 0-1.51-3.9c-.257-.609-.725-1.253.229-.633q.794.475 1.485 1.086c.055.045.418.12.32-.02-1.464-2.11-2.722-4.333-4.468-6.24M9.202 2.106c-.143.068.2.216.299.169C14.19.038 21.45-.035 25.66 3.362c.082.067.455.087.295-.044C21.594-.203 14.048-.206 9.202 2.106"/><path d="M3.418 11.947c.032.115.406.17.37.053-1.37-4.692 2.284-7.404 5.735-9.74.087-.058-.246-.209-.347-.138-3.496 2.364-7.132 5.11-5.758 9.825"/><path d="M8.27 33.737c.008.112.382.19.373.053-.594-7.75-13.16-15.926-5.317-23.107.087-.08-.259-.22-.349-.139-7.863 7.197 4.71 15.58 5.294 23.193M13.032 19.72c-.024-.115-.4-.18-.373-.056.227 1.068.943 1.822 1.321 2.824.44 1.16.57 2.428.45 3.658l.375.077c-.078-1.012-1.106-1.732-1.86-2.279-.085-.06-.461-.076-.296.045.734.535 1.707 1.2 1.783 2.18.01.102.364.184.373.078.106-1.077.075-2.325-.315-3.349-.416-1.098-1.21-2.019-1.458-3.179"/></g><g fill="#010101"><path d="M22.778 18.267c.68.024.47-.7-.094-.72-2.593-.091-5.282-.212-7.32 1.664-.42.39.453.865.771.57 1.873-1.725 4.26-1.599 6.643-1.514M26.801 17.083c-.337.36.61.762.915.436.826-.88 1.56-1.539 2.764-1.817.234-.054.267-.315.129-.475-.177-.203-.456-.247-.705-.19-1.338.308-2.188 1.07-3.103 2.046"/></g></svg>