<svg xmlns="http://www.w3.org/2000/svg" width="99.931" height="59.616" viewBox="0.328 0.521 99.931 59.616"><path fill="#7f7f7f" stroke="#000" stroke-width="1.397" d="M36.719 47.241s3.32 5.068 2.424 6.77c-.896 1.704-1.135 3.778-.515 4.096 1.237.635 2.36-1.612 2.36-1.612s1.39 3.521 2.908 2.86c1.52-.66.521-4.807.521-4.807s3.605 1.017 3.893-1.436c.286-2.456-5.897-1.876-5.897-1.876s-1.709-3.866-2.157-5.705c-.614-2.522-4.848-.048-3.537 1.71ZM40.3 19.87s2.414-5.556 4.327-5.742c1.916-.186 3.781-1.126 3.707-1.819-.148-1.38-2.644-1.088-2.644-1.088s2.18-3.093.794-4.002c-1.386-.906-4.304 2.205-4.304 2.205S41.05 5.852 38.843 6.96c-2.21 1.11 1.67 5.96 1.67 5.96s-2.293 3.55-3.585 4.935c-1.772 1.897 2.621 4.077 3.372 2.016ZM59.332 21.769s2.414-5.557 4.328-5.743c1.916-.186 3.781-1.126 3.707-1.819-.148-1.38-2.644-1.088-2.644-1.088s2.181-3.093.793-4.002c-1.386-.906-4.304 2.205-4.304 2.205s-1.128-3.572-3.335-2.465c-2.212 1.11 1.67 5.96 1.67 5.96s-2.295 3.55-3.586 4.935c-1.77 1.897 2.622 4.077 3.371 2.017ZM55.306 47.683s4.522 4.03 4.1 5.907c-.422 1.88-.114 3.944.568 4.09 1.358.292 1.86-2.17 1.86-2.17s2.257 3.04 3.553 2.005c1.294-1.032-.748-4.778-.748-4.778s3.745.045 3.386-2.397c-.362-2.447-6.185-.278-6.185-.278s-2.653-3.29-3.563-4.95c-1.25-2.276-4.694 1.214-2.971 2.57Z"/><path fill="#7f7f7f" stroke="#000" stroke-width="1.397" d="M70.644 41.29c-2.956 3.639-11.105 8.633-26.874 7.394C28 47.444 24.352 37.666 26.23 27.994c1.88-9.67 10.843-14.487 23.883-11.796 12.276 3.643 13.542 3.847 17.771 6.03 9.948 5.136 6.03 15.037 2.76 19.062ZM43.77 48.684c-15.77-1.24-19.418-11.018-17.538-20.69 1.88-9.67 10.843-14.487 23.882-11.797"/><path fill="none" stroke="#000" stroke-linecap="round" stroke-width=".698" d="M92.538 42.329s.605 2.564 3.448 4.242M94.313 41.046s1.472 2.182 4.727 2.747M93.194 25.448s.551-2.577 3.36-4.313M94.89 27.44s1.428-2.212 4.67-2.843"/><path fill="#7f7f7f" stroke="#000" stroke-width="1.397" d="M81.242 45.775s4.497.981 10.36-2.539c2.697-1.62 5.29-4.265 5.25-9.134-.057-7.057-4.864-10.163-7.324-11.635-5.146-3.081-9.168-1.164-9.168-1.164-3.82.04-11.373 5.738-11.076 12.315s5.611 11.467 11.958 12.157Z"/><path fill="undefined" stroke="#000" stroke-width="1.397" d="M94.692 34.278c-.01-.904.234-1.725.633-2.322.4-.598.956-.97 1.575-.977.618-.006 1.182.355 1.594.944.412.588.672 1.405.681 2.308.01.904-.233 1.726-.633 2.323s-.956.97-1.575.976c-.618.007-1.182-.355-1.594-.943-.412-.59-.672-1.406-.681-2.31Z"/><path fill="#fff" stroke="#000" stroke-width=".698" d="M82.734 28.45a3.27 3.27 0 0 1 .936-2.326 3.27 3.27 0 0 1 2.306-.984 3.27 3.27 0 0 1 2.326.936 3.27 3.27 0 0 1 .984 2.306 3.27 3.27 0 0 1-.936 2.326 3.27 3.27 0 0 1-2.306.985 3.27 3.27 0 0 1-2.326-.937 3.27 3.27 0 0 1-.984-2.306Z"/><path fill="undefined" d="M84.588 27.699a2.04 2.04 0 0 1 .585-1.45 2.04 2.04 0 0 1 1.437-.614 2.04 2.04 0 0 1 1.45.584 2.036 2.036 0 0 1 .03 2.888 2.04 2.04 0 0 1-1.437.614 2.04 2.04 0 0 1-1.45-.584 2.04 2.04 0 0 1-.615-1.438"/><path fill="#58595b" d="M83.046 32.039s-5.227-3.226-.075-7.27c0 0 1.658 4.023.075 7.27"/><path fill="undefined" d="M84.204 28.65c.029 2.731-.841 3.977-.88 4.031a.525.525 0 0 1-.854-.606c.017-.025.81-1.238.67-3.937-.138-2.602-.623-3.241-.628-3.247a.51.51 0 0 1 .005-.728.54.54 0 0 1 .753.005c.175.172.76.963.916 3.915q.015.294.018.566"/><path fill="#fff" stroke="#000" stroke-width=".698" d="M82.672 40.025a3.27 3.27 0 0 1 .937-2.326 3.27 3.27 0 0 1 2.306-.984 3.27 3.27 0 0 1 2.326.936 3.27 3.27 0 0 1 .984 2.306 3.27 3.27 0 0 1-.936 2.326 3.27 3.27 0 0 1-2.306.984 3.27 3.27 0 0 1-2.326-.936 3.27 3.27 0 0 1-.985-2.306Z"/><path fill="undefined" d="M84.448 39.212a2.04 2.04 0 0 1 .584-1.45 2.04 2.04 0 0 1 1.438-.614 2.03 2.03 0 0 1 1.45.584c.374.366.608.875.614 1.438a2.04 2.04 0 0 1-.584 1.45 2.04 2.04 0 0 1-1.438.614 2.04 2.04 0 0 1-1.45-.584 2.04 2.04 0 0 1-.614-1.438"/><path fill="#58595b" d="M83.379 43.902s-5.535-2.664-.831-7.223c0 0 2.066 3.83.83 7.223"/><path fill="undefined" d="M84.177 40.41c.312 2.714-.423 4.043-.456 4.102a.525.525 0 0 1-.912-.514c.015-.026.677-1.315.258-3.984-.409-2.573-.957-3.16-.963-3.166a.51.51 0 0 1-.071-.723.54.54 0 0 1 .748-.074c.193.153.857.878 1.32 3.798q.045.291.076.561"/><path fill="#57595b" stroke="#000" stroke-width="1.397" d="M77.283 39.216s-4.308-.23-7.733 1.724c-4.291 2.446-5.402 7.768-2.783 10.99 2.617 3.222 7.972 3.921 10.975 1.374 4.052-3.439 3.994-9.079 3.994-9.079M81.537 24.947s-.094-4.314-2.298-7.583c-2.761-4.095-8.152-4.805-11.168-1.955-3.016 2.852-3.314 8.245-.55 11.049 3.733 3.784 9.353 3.304 9.353 3.304"/><path fill="#58595b" stroke="#000" stroke-linejoin="round" stroke-width="1.397" d="M28.767 34.63c-4.939 1.701-14.643 4.053-22.502-3.981C-4.54 19.603 4.702 1.396 4.795 1.219c0 0-8.208 17.36 1.883 27.68C14 36.383 23.4 33.598 28.025 32.002c2.346.843.864 2.558.864 2.558s0 .027-.122.069Z"/></svg>