<svg xmlns="http://www.w3.org/2000/svg" width="99.975" height="145.015" viewBox="0.49 0.495 99.975 145.015"><path fill="#ffc0ec" d="M74.05 67.69v-.3L50.5 69.82 23.5 67s-3.465 29.595-9 43.335A94.7 94.7 0 0 1 1.285 133.93s19.875 10.785 49.17 10.785a118.2 118.2 0 0 0 43.92-8.385 135.7 135.7 0 0 1-14.265-34.395 259 259 0 0 1-6.06-34.245"/><path fill="#ffdef6" d="M86.5 110.32C80.965 96.58 77.575 67 77.575 67l-3.555.36v.3a259 259 0 0 0 6.105 34.23 135.7 135.7 0 0 0 14.265 34.395c3.39-1.395 5.25-2.4 5.25-2.4A94.7 94.7 0 0 1 86.5 110.32"/><path fill="none" stroke="#ff7bd0" stroke-linecap="round" stroke-linejoin="round" stroke-width="1.2" d="M43.78 69.265s-1.305 30-2.625 44.895c-1.08 12.39-3 29.43-3 29.43M37.21 69.16s-2.4 30.63-4.395 42-7.095 30.96-7.095 30.96M30.31 69.25s-4.155 32.73-8.145 45.51-8.715 24.135-8.715 24.135M57.4 69.25s1.305 30 2.625 44.895c1.08 12.39 3.105 29.445 3.105 29.445M64 69.73s2.505 30 4.5 41.415 6.375 31.065 6.375 31.065M70.54 68.335s4.5 33.63 8.49 46.41 8.715 24 8.715 24M50.5 69.835v74.88"/><path fill="none" stroke="#db20a5" stroke-linecap="round" stroke-linejoin="round" stroke-width="1.2" d="M87.145 110.32C81.655 96.58 77.575 67 77.575 67L50.5 69.82 23.5 67s-4.11 29.595-9.6 43.335A109.5 109.5 0 0 1 1.33 133.93s19.875 10.785 49.17 10.785 49.17-10.785 49.17-10.785a110.8 110.8 0 0 1-12.525-23.61"/><path fill="#c9e2b3" d="M72.55 33.04a170 170 0 0 1 6-28.62A29.3 29.3 0 0 0 64.615 1.3 21.1 21.1 0 0 1 50.5 11.605 19.68 19.68 0 0 1 36.385 1.3s-10.695-.135-16.89 5.055c0 0 4.92 22.155 5.715 30.735S23.5 67 23.5 67a144.7 144.7 0 0 0 27 2.805 143 143 0 0 0 23.55-2.145c-.885-7.71-2.55-24.165-1.5-34.62"/><path fill="#e7f9d4" d="M75.655 37.09c-.15-8.61 5.85-30.735 5.85-30.735-.9-.737-1.87-1.385-2.895-1.935a170 170 0 0 0-6 28.62c-.99 10.5.615 26.91 1.5 34.65 2.22-.375 3.525-.66 3.525-.66s-1.785-18.915-1.98-29.94"/><path fill="#ffff4f" stroke="#ffff4f" stroke-linecap="round" stroke-linejoin="round" stroke-width="1.2" d="M54.325 36.22a3.885 3.885 0 0 0-4.035-3.6 3.885 3.885 0 0 0-4.035 3.6 7.97 7.97 0 0 0 1.665 5.625h4.74a7.9 7.9 0 0 0 1.665-5.625"/><path fill="#ffff4f" stroke="#ffff4f" stroke-linecap="round" stroke-linejoin="round" stroke-width="1.2" d="M41.62 44.83a3.885 3.885 0 0 1-1.725-5.115 3.9 3.9 0 0 1 4.905-2.28 7.94 7.94 0 0 1 4.5 3.75l-.93 2.16-.87 2.175a7.94 7.94 0 0 1-5.88-.69"/><path fill="#ffff4f" stroke="#ffff4f" stroke-linecap="round" stroke-linejoin="round" stroke-width="1.2" d="M49.27 52.615a3.87 3.87 0 0 1-5.37.645 3.87 3.87 0 0 1-1.215-5.265 7.92 7.92 0 0 1 4.59-3.645l1.935 1.365 1.935 1.365a7.87 7.87 0 0 1-1.875 5.535M58.96 44.83a3.885 3.885 0 0 0 1.725-5.115 3.9 3.9 0 0 0-4.905-2.28 7.88 7.88 0 0 0-4.5 3.75l.93 2.16.93 2.175a7.89 7.89 0 0 0 5.82-.69"/><path fill="#ffff4f" stroke="#ffff4f" stroke-linecap="round" stroke-linejoin="round" stroke-width="1.2" d="M51.445 52.615a3.87 3.87 0 0 0 5.37.645A3.87 3.87 0 0 0 58 47.98a7.92 7.92 0 0 0-4.5-3.645L51.565 45.7l-1.935 1.365a7.87 7.87 0 0 0 1.815 5.55"/><path fill="#ffc0ec" stroke="#ffc0ec" stroke-linecap="round" stroke-linejoin="round" stroke-width="1.59" d="M50.29 40.45c.919 0 1.751.373 2.354.976s.976 1.435.976 2.354-.373 1.751-.976 2.354a3.32 3.32 0 0 1-2.354.976 3.32 3.32 0 0 1-2.354-.976 3.32 3.32 0 0 1-.976-2.354c0-.919.373-1.751.976-2.354a3.32 3.32 0 0 1 2.354-.976"/><path fill="none" stroke="#149948" stroke-linecap="round" stroke-linejoin="round" stroke-width="1.2" d="M81.505 6.355c-.9-.737-1.87-1.385-2.895-1.935A29.3 29.3 0 0 0 64.675 1.3 21.1 21.1 0 0 1 50.5 11.605 19.68 19.68 0 0 1 36.385 1.3s-10.695-.135-16.89 5.055c0 0 4.92 22.155 5.715 30.735S23.5 67 23.5 67a144.7 144.7 0 0 0 27 2.805 143 143 0 0 0 23.55-2.145c2.22-.375 3.525-.66 3.525-.66s-1.725-18.915-1.92-30c-.15-8.52 5.85-30.645 5.85-30.645"/><path fill="#149948" stroke="#149948" stroke-linecap="round" stroke-linejoin="round" stroke-width="1.2" d="M49.66 11.605a18.8 18.8 0 0 0-5.055 10.65 39.1 39.1 0 0 1-8.895-9.48c-4.785-6.99-5.67-10.65-5.67-10.65 2.061-.595 4.2-.873 6.345-.825 0 0 5.76 7.2 13.275 10.305M50.5 11.605a18.8 18.8 0 0 1 5.055 10.65 39.1 39.1 0 0 0 8.895-9.48A61.3 61.3 0 0 0 70.78 1.78a40 40 0 0 0-6.105-.48S58 8.5 50.5 11.605"/></svg>