<svg xmlns="http://www.w3.org/2000/svg" xml:space="preserve" width="73.278" height="59.874" viewBox="0.386 0.06 73.278 59.874"><title>Slice 1</title><g fill-rule="evenodd"><circle cx="32.808" cy="3.212" r="3.192" fill="#c9e2b3" fill-rule="nonzero" stroke="#149948" stroke-width=".96" transform="translate(1 1)"/><path fill="#c9e2b3" fill-rule="nonzero" stroke="#149948" stroke-width=".96" d="M26.02 47.496a40.56 40.56 0 0 0 16.932 9.6c11.34 3.192 22.728 2.196 27.48-2.088s1.416-11.928-4.188-15.6z"/><path fill="#ff7bd0" fill-rule="nonzero" d="M42.58 5.772a34.2 34.2 0 0 0-8.772-1.08c4.368 0 13.308 10.908 16.248 21.6a124 124 0 0 1 3.396 19.296 39.6 39.6 0 0 0 8.58-3.432c-1.38-12-3.972-19.392-8.688-26.064A42.4 42.4 0 0 0 42.58 5.772"/><path fill="#ffa1e2" fill-rule="nonzero" d="M42.58 5.772a42.4 42.4 0 0 1 10.8 10.26c4.716 6.672 7.308 14.016 8.688 26.064a36 36 0 0 0 4.212-2.748C66.7 39 64.732 11.58 42.58 5.772"/><path fill="#ffff4f" fill-rule="nonzero" d="M33.808 4.692c-2.268 0-7.968 12.48-9.804 22.8a123 123 0 0 0-1.92 19.548c3.89.47 7.806.694 11.724.672a73.8 73.8 0 0 0 19.644-2.244 124 124 0 0 0-3.396-19.296C47.116 15.6 38.2 4.692 33.808 4.692"/><path fill="#149948" fill-rule="nonzero" d="M33.808 4.692c-30.444 0-32.952 34.26-32.4 34.656 5.76 4.416 12.732 6.732 20.724 7.752.105-6.54.731-13.06 1.872-19.5C25.84 17.172 31.54 4.692 33.808 4.692"/><path fill="none" stroke="#149948" stroke-width=".96" d="M33.808 4.692c-30.444 0-32.952 34.26-32.4 34.656 5.76 4.416 12.732 6.732 20.724 7.752 3.89.47 7.806.694 11.724.672A73.8 73.8 0 0 0 53.5 45.528a36.9 36.9 0 0 0 12.792-6.18c.456-.396-2.052-34.656-32.484-34.656Z"/><path fill="none" stroke="#fff" stroke-linecap="round" stroke-linejoin="round" stroke-width="1.272" d="M70.24 49.344c.168 1.68-.6 3.6-3.024 4.884M68.716 45.528c.365.45.668.946.9 1.476"/><path fill="none" stroke="#047f30" stroke-linecap="round" stroke-linejoin="round" stroke-width="1.92" d="M5.8 35.076s-.204.924-.408 2.544M10.288 22.296a35.5 35.5 0 0 0-3.768 9.516"/><path fill="#ffa1e2" fill-rule="nonzero" stroke="#149948" stroke-width=".636" d="M39.496 40.596A7.08 7.08 0 0 1 34.6 38.46a1.764 1.764 0 1 1 2.4-2.544 3.18 3.18 0 0 0 3.144 1.008c.56-.157.977-.626 1.068-1.2 0-.42.228-1.692-2.892-2.544a5.57 5.57 0 0 1-4.332-4.584 4.72 4.72 0 0 1 2.748-4.692 6.43 6.43 0 0 1 6.156.6 1.768 1.768 0 0 1-1.944 2.952s-1.524-.936-2.604-.384c-.336.168-.9.552-.84 1.2s.54 1.2 1.74 1.536c5.616 1.392 5.76 4.992 5.568 6.372a5.08 5.08 0 0 1-3.42 4.092c-.61.214-1.25.324-1.896.324Z"/></g></svg>