<svg xmlns="http://www.w3.org/2000/svg" width="72.96" height="86.35" viewBox="-0.5 -0.5 72.96 86.35"><path fill="#0cc" d="M71.96 13.2c0 1.65-.3 3.3-.88 4.93-1.58 4.67-5.11 7.97-9.67 9.25-.32 2.11-.91 5.63-2.03 11.87-.03.14-.05.28-.08.42-.96 4.34-2.33 10.95-4.05 19.65-.33 1.97-.75 3.88-1.26 5.67-.4 2.16-.83 4.3-1.28 6.39-.03.15-.07.31-.11.46-1.54 5.89-5.22 10.23-10.36 12.22-.06.02-.11.04-.16.06-2.28.84-4.22 1.23-6.13 1.23-2.62 0-5.07-.76-7.11-2.21-1.69-1.17-3.56-2.71-4.81-5.19-.49-.98-.83-2.03-1.01-3.12-.02-.09-.11-.61-.42-1.87-.29-.83-.99-2.82-2.1-5.96-.07-.21-.14-.43-.2-.64q-.51-1.77-1.59-5.37c-.77-2.34-1.51-4.75-2.22-7.17-1.14-3.55-2.81-8.9-5.08-16.3-1.41-.28-2.79-.72-4.11-1.34-.82-.39-1.59-.87-2.3-1.45-3.18-2.6-5-6.44-5-10.54 0-6.09 3.67-11.26 9.36-13.16l.2-.06c3.24-1.01 6.06-1.6 8.59-1.77.74-.16 1.58-.31 2.55-.46.85-.13 1.72-.15 2.57-.08.14-.01.5-.05 1.14-.18 1.79-.36 3.13-.57 4.24-.67.23-.37.48-.73.75-1.07 1.75-2.2 5.06-4.94 10.87-5.55l.26-.03c1.37-.11 3.48-.31 6.33-.59.19-.02.39-.03.59-.04 1.28-.06 3-.12 5.17-.17 1.7-.14 2.79-.23 3.27-.28.45-.05.91-.08 1.37-.08 9.65 0 14.7 6.64 14.7 13.2"/><path fill="#fff" d="M60.693 14.517q-.791 2.464-3.694 2.463-.616 0-2.463-.176-1.496-.175-2.287-.088-.177.089-.527.352-.265 1.32-.88 6.51-.353 2.99-2.287 13.722-1.496 6.774-4.134 20.055a41 41 0 0 1-1.144 5.102 223 223 0 0 1-1.319 6.598q-.969 3.694-3.694 4.75-2.375.878-3.079.352-1.144-.792-1.319-1.144-.177-1.055-.703-3.166-.177-.528-2.287-6.51-.529-1.846-1.671-5.63a244 244 0 0 1-2.199-7.124q-1.76-5.454-5.366-17.24-.616-3.08-2.11-7.389-3.695.88-4.75.879a6.55 6.55 0 0 1-2.814-.615q-.969-.791-.968-2.023 0-2.11 1.847-2.727 4.223-1.32 6.861-1.319.878-.264 2.639-.528 1.584.177 4.222-.352 2.64-.528 3.519-.527 1.32 0 2.375.527.88.792.88 2.023 0 2.2-2.111 2.814-1.936.088-5.277 1.144.175 3.08.792 5.014 1.318 3.96 3.694 10.995.087.88.439 2.375 1.846 7.038 6.245 19.879.528-1.229 1.319-4.828.968-5.092 1.231-6.059A170 170 0 0 0 42.4 40.071q1.67-8.779 1.76-9.218 1.142-5.53 1.583-8.867.35-2.458.615-4.829-.089-.086-.176-.176-5.981.09-6.509 0-.79 0-2.111-1.387 0-.087.132-.26t.221-.261q-.09-.52.088-1.474.967-1.212 3.431-1.474a424 424 0 0 0 6.509-.607q1.934-.086 5.277-.173 4.221-.346 4.046-.347 3.694 0 3.694 2.199a3.8 3.8 0 0 1-.267 1.32"/></svg>