<svg xmlns="http://www.w3.org/2000/svg" width="137.174" height="86.152" viewBox="0.085 -0.542 137.174 86.152"><defs><radialGradient id="b" cx="82.646" cy="42.448" r="80.042" gradientUnits="userSpaceOnUse"><stop offset="0" stop-color="#fff"/><stop offset="1" stop-color="#ccc"/></radialGradient><linearGradient id="a" x1=".726" x2=".726" y1=".099" y2="84.969" gradientUnits="userSpaceOnUse"><stop offset="0" stop-color="#fff"/><stop offset="1" stop-color="#ccc"/></linearGradient></defs><path fill="url(#a)" d="M70.617 2.76c11.932-2.962 25.58-4.35 37.38.694 4.148 2.014-1.385 12.199 1.461 16.496 1.569 2.368 5.534-3.788 7.535-1.455 8.006 8.062 19.573 16.94 19.624 29.666.054 13.078-9.254 26.506-19.343 32.094-14.127 7.81-31.21 3.817-46.774 2.7-14.544-1.042-28.674-6.126-43.046-9.01-7.128-1.112-15.185 1.15-21.493-2.98C2.12 68.45-.073 61.735.996 56.478c1.558-6.109 11.226-5.833 12.966-11.99 1.78-6.304-6.122-13.785-3.971-20.517 1.628-4.571 7.985-4.215 12.499-4.991 7.735-1.318 15.961 2.379 23.48 0C55.024 16.076 61.43 5.04 70.617 2.76"/><path fill="url(#b)" d="M72.781 9.643c5.158-1.82 10.85-2.008 14.73 1.3 3.274 2.37 1.14 8.576 2.628 12.476 1.146 3.01 2.786 6.83 5.366 9.032 2.405 1.585 5.469 1.181 8.487 1.494 4.81.462 10.34-3.008 14.51-.455 6.878 4.027 16.723 9.822 16.153 18.715-.797 12.41-13.381 19.19-19.657 29.24-1.339 2.583 3.677.653 1.523.848-8.61.775-15.912 2.584-24.028 2.206-9.99-.733-19.578-2.16-30.006-5.523-7.511-2.508-13.223-10.575-20.97-12.476-7.839-1.925-16.84 3.56-24.039.455-3.333-1.45-6.417-7.977-4.49-11.501 2.678-4.804 11.697-.7 15.003-5.459 2.106-3.16-2.313-7.553-1.97-11.501-.45-4.632-1.96-11.708 1.642-13.646 6.67-3.594 14.964 2.23 22.012 0 8.488-2.722 14.678-12.21 23.106-15.205"/></svg>