<svg xmlns="http://www.w3.org/2000/svg" width="143.576" height="191.042" viewBox="0.47 0.308 143.576 191.042"><path fill="#bb9696" d="M50.391 190.538c-1.573-.72-7.244.147-8.891-8.942-1.652-9.119-7.823-21.485-1.256-33.238 6.15-11.008 9.278-15.328 9.115-22.097-.162-6.771-15.139-22.207-19.805-9.967s7.162 18.416-.814 36.018l9.279 38.22"/><path fill="#5f5579" d="m38.019 190.532-.745-3.07s.486-2.18 1.771-2.424c1.286-.245 2.241 1.31 2.241 1.31s.046-2.321.939-1.137c1.329 1.764 2.418 4.393 7.162 5.013 4.314.565-11.368.308-11.368.308"/><path fill="none" stroke="#26214b" stroke-width=".5" d="M27.655 122.848s7.814 18.74 1.085 29.464l9.279 38.22h12.915s-7.054-.384-8.465-5.329-4.83-19.24-4.83-19.24-1.953-8.506 2.605-17.605 9.008-14.624 10.31-23.289"/><path fill="none" stroke="#26214b" stroke-width=".5" d="M37.274 187.462s.016-2.065 1.644-2.406c1.328-.278 2.303 1.107 2.303 1.107s-.184-1.3.489-1.3c.672 0 .975.952.975.952"/><path fill="none" stroke="#26214b" stroke-width=".5" d="M41.221 186.163s.882 3.669 8.859 4.369"/><path fill="#bb9696" d="M114.585 190.538s-11.797-1.622-12.278-9.352c-.281-4.504-1.125-6.587 1.542-19.14 1.307-6.146 6.07-26.957 6.07-26.957l-7.658-3.406-3.581 4.712s-1.683 49.639-1.439 53.701c.054.354 17.344.442 17.344.442"/><path fill="#5f5579" d="m97.275 190.279-.023-4.922s.688-2.065 2.641-2.065 2.443 2.065 2.443 2.065-.774-2.065-.069-2.065c.445 0 1.126 2.437 3.631 4.055 2.31 1.493 7.914 3.173 7.914 3.173l-12.169-.176"/><path fill="none" stroke="#26214b" stroke-width=".5" d="M98.74 137.688s-1.899 44.521-1.465 52.591l17.31.259s-10.744-1.614-11.938-7.517c-1.193-5.903-.922-8.448.272-16.031s7.325-32.93 7.325-32.93"/><path fill="none" stroke="#26214b" stroke-width=".5" d="M97.217 185.119s.831-1.827 2.676-1.827 2.239 1.565 2.239 1.565-.321-1.565.135-1.565c.457 0 .77.913.77.913"/><path fill="none" stroke="#26214b" stroke-width=".5" d="M113.404 190.52s-9.929-1.376-11.273-5.663"/><path fill="#d7c3bc" d="M.97 78.978c1.588 1.584 11.436 9.302 11.436 9.302l23.199 32.781s22.019 24.117 41.782 22.19c21.488-2.096 46.694-4.94 53.708-30.619 3.974-10.907-1.601-28.699-2.901-42.934-.218-2.392-5.375-36.134-5.375-36.134l7.734-13.291s-4.419-2.714-9.056-3.565c0 0 10.479-3.942 9.056-14.016l-14.407 13.349-2.673-.211s8.736-7.98 6.321-15.022c0 0-15.547 18.132-16.577 19.533-1.032 1.402-3.067 6.276-1.072 18.869 1.503 17.22 5.08 36.144-2.89 36.437-6.796.691-50.587.071-73.378.162C3.087 76.215.97 78.978.97 78.978"/><path fill="#bb968c" d="m110.136 18.916-2.171.267s11.504-13.57 11.938-18.023c0 0 3.093 8.118-9.767 17.756"/><path fill="#26214b" d="M108.244 18.916s.251-.229.669-.651c.413-.425 1.015-1.024 1.693-1.784.675-.76 1.467-1.648 2.266-2.638.391-.503.817-1.004 1.21-1.547.399-.536.808-1.079 1.195-1.639a42 42 0 0 0 2.146-3.371c.334-.544.593-1.108.86-1.629.276-.516.471-1.039.68-1.505.221-.461.342-.919.474-1.313l.178-.552.106-.483.182-.915-.304.88-.155.461-.235.526c-.173.372-.339.802-.58 1.246-.237.445-.46.942-.767 1.434-.296.496-.59 1.027-.933 1.558a48 48 0 0 1-1.052 1.634c-.36.555-.741 1.11-1.134 1.658-.76 1.111-1.572 2.189-2.322 3.206-.762 1.01-1.465 1.961-2.095 2.755z"/><path fill="none" stroke="#26214b" stroke-width=".5" d="M110.279 18.654s12.118-8.306 9.605-17.765c0 0-14.644 17.22-16.002 18.782-1.507 1.733-3.297 6.012-2.279 15.355 1.017 9.343 3.485 30.628 2.346 35.178-1.14 4.549-2.062 5.687-10.283 5.687H25.335s-21.041.162-24.256 3.168l9.156 7.393"/><path fill="#bb968c" d="M119.019 16.372c8.999-4.16 11.575-13.354 11.575-13.354s2.603 9.017-9.097 13.69z"/><path fill="#f0e1db" d="M142.851 35.362s1.443-4.912.171-5.114c-3.491-.553-13.664-4.475-11.894-9.345.117-.32-1.989-1.422-1.989-1.422s-1.326-.593-1.624-.106c-.299.488-.254.599-.196 1.074 0 0-29.114-6.059-13.63 14.685.481.644 1.403 1.735 1.659 2.319.383.874.183-1.025.326-1.025.178 0 1.063 1.117 1.251 1.127.377.018.559-.6 1.293-.637 2.641-.134 6.361-.912 11.966-.206 9.983 1.255 10.471.937 10.471.937s1.803-.814 2.196-2.287"/><path fill="none" stroke="#26214b" stroke-width=".5" d="M130.001 19.935c-3.365-2.003-2.664.657-2.664.657s-12.318-3.358-16.985 1.517c-4.666 4.874 4.288 13.919 4.288 13.919l.922 2.009.108-1.467s2.28 2.058 1.682 1.3c-.597-.759.489-.867.814-.921 4.124-.596 14.435-.433 19.59.487 2.094.374 4.232.975 5.266-2.6 1.033-3.574 0-4.588 0-4.588-15.196-3.698-11.813-9.517-11.813-9.517-7.303-5.237-17.81-4.641-17.81-4.641"/><path fill="none" stroke="#26214b" stroke-width=".5" d="m116.254 16.122 14.407-13.349s2.401 8.855-9.101 14.016"/><path fill="none" stroke="#26214b" stroke-width=".5" d="M119.019 16.372s9.241-4.541 11.643-13.599"/><g fill="#26214b"><path d="M124.434 24.546h-7.204s.451 3.473 3.602 3.615c3.602.162 3.602-3.615 3.602-3.615M142.974 34.237s-2.657.256-6.198-4.05h6.053s1.366 2.222.145 4.05"/><path d="M124.624 25.466s-.01.329-.089.801c-.04.235-.1.507-.196.783-.037.142-.112.274-.163.417-.078.13-.131.277-.227.396-.16.262-.377.48-.601.659-.104.101-.233.16-.342.237-.11.081-.231.122-.339.171-.11.04-.205.103-.301.125l-.242.076-.213.073.224-.011.261-.02c.103 0 .211-.04.332-.071.12-.034.256-.062.385-.132.129-.065.282-.112.405-.216.267-.177.518-.424.703-.713.104-.137.161-.3.242-.447.056-.157.119-.31.15-.464.084-.306.092-.601.105-.847.001-.499-.094-.817-.094-.817"/></g><path fill="#26214b" d="M12.513 78.823s-.537.006-1.343.075c-.805.063-1.873.228-2.93.481-.528.128-1.058.266-1.54.449a6.6 6.6 0 0 0-1.235.681c-.329.258-.595.475-.745.672-.163.18-.243.29-.243.29l.042.05s.131-.054.34-.158c.109-.046.225-.122.377-.18.148-.065.314-.137.487-.223l1.234-.506c.449-.19.929-.407 1.429-.576.999-.343 2.036-.583 2.818-.756.783-.163 1.314-.234 1.314-.234zM14.701 80.282s-.512.108-1.27.321a22 22 0 0 0-2.726.97c-.486.208-.973.426-1.409.672a7 7 0 0 0-1.086.841c-.28.295-.506.542-.624.754-.13.197-.193.316-.193.316l.049.042s.119-.068.308-.197c.099-.061.203-.146.342-.224l.44-.282q.253-.142.527-.319.29-.159.589-.352c.406-.25.832-.539 1.286-.784.903-.498 1.855-.913 2.572-1.223.72-.302 1.213-.472 1.213-.472z"/><path fill="none" stroke="#26214b" stroke-width=".5" d="m123.483 36.613 8.846 60.888s5.128 32.415-29.465 41.596-44.36 3.087-67.151-17.549"/><path fill="#d7c3bc" d="M32.663 190.766s-7.936-.116-8.791-6.175c-.759-5.389-7.225-23.605-3.012-31.839 3.799-7.428 6.26-8.347 12.266-23.712 2.928-7.492 6.32-18.893 4.584-27.83S19.702 75.437 13.43 82.772C7.159 90.107 3.106 98.754 7.141 112.9c4.034 14.145 10.491 27.685 3.383 38.626l9.197 39.24z"/><path fill="#5f5579" d="m19.922 190.685-.895-3.791s.488-1.691 2.027-1.682c1.622.007 1.845 1.408 1.845 1.408s-.554-1.4.749-1.4.686 1.602 2.748 3.127 4.054 1.941 5.41 2.229-11.884.109-11.884.109"/><path fill="none" stroke="#26214b" stroke-width=".5" d="M14.957 81.496s-9.198 6.987-9.198 20.635 8.466 23.479 8.059 39.809c0 0-.163 6.174-3.093 9.505l9.197 39.24h12.942s-7.325-.081-8.791-6.175c-1.465-6.093-3.5-15.842-3.5-15.842s-2.767-11.211 1.384-17.71c4.68-7.326 13.675-21.773 16.279-41.352"/><path fill="#26214b" d="M19.156 187.694c-.04-.511.03-1.036.281-1.449.244-.417.672-.666 1.14-.76a3 3 0 0 1 .357-.057c.056-.003.131-.016.171-.011l.193.002c.121.015.213.017.325.053.108.024.209.069.306.12.192.104.351.263.48.449.127.182.228.412.276.617l.422-.102c-.074-.24-.122-.524-.087-.759.028-.243.152-.396.402-.431.059-.009.114-.01.196-.009.078-.004.123.013.19.016.124.03.247.073.355.149.22.151.364.412.438.692a1.16 1.16 0 0 0-.322-.825 1.1 1.1 0 0 0-.407-.253c-.076-.019-.17-.049-.237-.054a1.4 1.4 0 0 0-.239-.018.8.8 0 0 0-.501.19.88.88 0 0 0-.255.474c-.064.337-.025.64.051.956l.422-.103a2.3 2.3 0 0 0-.331-.792 1.72 1.72 0 0 0-1.053-.743c-.134-.043-.305-.046-.439-.051l-.193.009c-.089.002-.141.016-.213.024a3 3 0 0 0-.403.084c-.527.142-1.044.501-1.264 1.021-.217.509-.21 1.068-.061 1.561"/><path fill="none" stroke="#26214b" stroke-width=".5" d="M32.322 190.685s-8.249 0-9.423-4.065"/><path fill="#d7c3bc" d="M94.399 139.607s-7.372 31.883-7.86 35.241c-.487 3.357-.483 12.614 8.665 15.615 0 0-11.224.33-13.828.222l2.197-49.442z"/><path fill="#5f5579" d="m81.376 190.685.233-4.522s1.053-2.122 2.95-1.9c1.896.223 1.89 1.335 1.89 1.335s-.882-1.393.876-1.302c.814.042 2.76 4.601 7.313 5.835 4.349 1.178-13.262.554-13.262.554"/><path fill="none" stroke="#26214b" stroke-width=".5" d="m93.918 141.242-7.34 33.356s-2.516 13.649 10.181 16.087H81.376l2.109-47.765"/><path fill="none" stroke="#26214b" stroke-width=".5" d="M81.563 186.449s.09-2.049 2.66-2.177c1.897-.094 2.036.591 2.036.591s-.41-.591.893-.591c.487 0 .987.59.987.59"/><path fill="none" stroke="#26214b" stroke-width=".5" d="M96.07 190.532s-8.888-.313-9.811-5.675"/><g fill="#26214b"><path d="m77.866 143.477.153-.028c.105-.018.243-.055.424-.103.177-.053.391-.117.63-.21.242-.083.501-.208.787-.336a12.4 12.4 0 0 0 1.82-1.1c.315-.228.623-.484.936-.744.293-.282.614-.542.891-.849.278-.305.577-.589.823-.911.25-.32.523-.611.735-.933l.639-.907.517-.848c.335-.516.536-.99.714-1.3l.26-.499-.278.49c-.188.304-.405.769-.757 1.271q-.253.386-.544.826l-.665.879c-.221.313-.504.592-.761.899-.254.31-.56.581-.844.871-.282.293-.608.538-.905.805-.314.244-.626.484-.939.696-.629.425-1.253.759-1.803 1.006-.279.112-.532.225-.765.294-.23.081-.435.135-.602.179-.168.038-.304.069-.388.081l-.138.02zM70.365 142.995l.155-.002c.107-.001.249-.015.435-.032.184-.024.406-.052.656-.106.253-.041.529-.123.831-.202.6-.181 1.282-.439 1.977-.788.347-.174.694-.376 1.045-.582.335-.231.694-.435 1.018-.693.324-.255.666-.487.961-.764.298-.274.616-.517.878-.8l.778-.792.649-.751c.415-.454.692-.889.917-1.167l.339-.449-.354.438c-.236.269-.526.692-.956 1.131l-.672.725-.8.76c-.269.272-.593.501-.897.762-.301.265-.648.482-.975.722-.327.242-.688.431-1.025.646-.35.19-.697.376-1.041.534-.69.317-1.36.544-1.943.698-.293.065-.562.135-.803.166-.24.043-.451.061-.623.078-.172.01-.311.019-.396.016l-.139-.002zM64.379 141.605s.733.031 1.795-.095a17 17 0 0 0 1.802-.306c.65-.154 1.341-.332 2.007-.583.339-.11.664-.253.987-.387.327-.125.629-.294.929-.435.303-.138.574-.315.84-.462a8 8 0 0 0 .725-.455c.449-.286.794-.562 1.035-.755l.382-.301-.394.285c-.248.184-.603.445-1.06.71a8 8 0 0 1-.74.425c-.27.135-.544.299-.85.423-.305.129-.608.283-.936.394-.325.119-.651.248-.99.342-.666.221-1.354.369-1.997.495-.646.114-1.254.192-1.776.227-1.049.082-1.733.024-1.733.024zM100.009 140.049l.15-.034c.106-.024.242-.067.42-.124.174-.061.385-.136.618-.24.239-.094.491-.232.771-.373.548-.301 1.16-.698 1.766-1.185.302-.243.599-.513.899-.788.279-.296.588-.571.849-.89.263-.318.548-.617.779-.951.234-.33.493-.634.689-.966l.594-.937.476-.871c.31-.531.489-1.014.651-1.333l.237-.51-.255.501c-.172.314-.367.789-.695 1.308l-.504.85-.622.91c-.206.323-.475.615-.717.934-.238.322-.531.607-.801.911-.268.306-.582.566-.865.846-.303.259-.603.514-.906.741-.608.454-1.215.817-1.752 1.09-.274.126-.521.25-.751.331a7 7 0 0 1-.593.207c-.165.046-.299.084-.383.099l-.136.027zM108.119 137.642l.192-.063c.132-.045.303-.117.526-.217.443-.197 1.039-.541 1.708-1.014.331-.241.682-.511 1.029-.826.365-.294.691-.665 1.059-1.016.328-.388.697-.765 1.013-1.194.319-.427.661-.847.942-1.31.297-.451.594-.902.839-1.374.257-.464.522-.914.725-1.378.21-.458.434-.893.609-1.321l.479-1.211c.308-.747.473-1.401.632-1.843l.228-.703-.247.697c-.17.438-.352 1.086-.679 1.823l-.509 1.195c-.186.421-.421.848-.642 1.298-.213.456-.489.896-.756 1.35-.256.462-.563.9-.867 1.339-.291.45-.639.856-.963 1.269-.324.414-.696.775-1.029 1.147-.369.335-.698.69-1.062.967-.347.298-.694.552-1.022.776-.66.442-1.242.757-1.664.931a6 6 0 0 1-.489.187l-.175.053zM119.729 131.12l.195-.142c.131-.097.3-.243.518-.436.212-.195.465-.436.734-.732.276-.289.559-.639.862-1.023.294-.393.609-.819.901-1.297.317-.463.578-.994.878-1.523.264-.549.545-1.114.784-1.705.221-.599.489-1.191.663-1.817.191-.619.401-1.232.532-1.856.142-.621.316-1.224.401-1.825.098-.598.211-1.174.286-1.723l.168-1.555c.062-.48.089-.924.1-1.317l.047-1.017.041-.886-.061.885-.069 1.016c-.02.392-.057.833-.129 1.312l-.201 1.547c-.088.546-.213 1.116-.324 1.709-.098.597-.284 1.193-.438 1.807-.144.617-.366 1.221-.568 1.831-.186.615-.465 1.196-.696 1.783-.25.58-.54 1.13-.811 1.665-.307.516-.575 1.032-.897 1.478a15.6 15.6 0 0 1-1.769 2.227c-.268.281-.516.508-.724.691-.209.177-.38.317-.494.397l-.183.128zM129.28 118.217s.109-.311.262-.869c.142-.559.359-1.359.511-2.339.092-.489.147-1.023.226-1.586.049-.566.127-1.163.144-1.784.026-.62.054-1.261.037-1.912.007-.653-.03-1.314-.072-1.976-.028-.662-.138-1.317-.209-1.965-.069-.649-.215-1.275-.315-1.887-.096-.615-.28-1.188-.409-1.742-.127-.555-.303-1.063-.456-1.535-.157-.471-.281-.909-.44-1.279q-.234-.56-.4-.964l-.347-.837.296.857.34.983c.134.377.231.821.376 1.292.135.474.293.985.399 1.54.11.554.27 1.128.364 1.737.091.609.23 1.231.291 1.875.063.642.164 1.292.185 1.949.049.654.094 1.309.094 1.955.024.647.003 1.282-.016 1.897-.046 1.23-.132 2.378-.268 3.354-.241 1.96-.593 3.236-.593 3.236M125.858 76.419l.364 1.002.41 1.151c.155.446.325.951.555 1.484a116 116 0 0 1 2.828 8.018c.238.735.438 1.481.651 2.211s.382 1.46.567 2.16c.173.703.311 1.388.458 2.035.131.65.23 1.269.334 1.838.084.571.157 1.095.25 1.557.094.464.133.871.167 1.207l.116 1.06-.004-1.067c0-.34.005-.754-.04-1.226-.036-.471-.054-1.01-.168-1.582-.104-.573-.205-1.197-.336-1.852-.147-.65-.287-1.341-.461-2.047-.186-.703-.356-1.436-.569-2.17-.215-.733-.414-1.483-.655-2.22a115 115 0 0 0-2.836-8.041 16 16 0 0 0-.627-1.459l-.526-1.105z"/></g></svg>