<svg xmlns="http://www.w3.org/2000/svg" width="75.225" height="113.566" viewBox="0.638 0.664 75.225 113.566"><g stroke="#000"><path fill="#ccc" stroke-width="2.633" d="M38 2.027c9.794 0 18.669.571 25.096 1.496 6.426.924 10.404 2.2 10.404 3.608 0 1.409-3.978 2.684-10.404 3.608-6.427.925-15.302 1.496-25.096 1.496s-18.669-.571-25.096-1.496C6.478 9.815 2.5 8.539 2.5 7.13c0-1.409 3.978-2.684 10.404-3.608C19.331 2.598 28.206 2.026 38 2.026Z"/><path fill="#ccc" stroke-width="2.725" d="M40 102.162c4.69 0 8.94.6 12.018 1.57 3.077.968 4.982 2.305 4.982 3.783s-1.905 2.814-4.982 3.783c-3.078.97-7.328 1.57-12.018 1.57s-8.94-.6-12.018-1.57c-3.077-.969-4.982-2.306-4.982-3.783 0-1.478 1.905-2.815 4.982-3.784 3.078-.97 7.328-1.57 12.018-1.57Z"/><path fill="none" stroke-linecap="round" stroke-width="2" d="m74.5 8-17 99M2 7.5l20.5 100"/></g><path fill="#ccc" stroke="#ccc" stroke-linecap="round" stroke-width="2" d="m56.15 103.25-3.5-1.75-3.15-.9-4.7-.6-4.65-.25-5.65.25-3.1.5-2.6.6-2.4.8-2.75 1.6L4.7 11l5.8 1.65 8.7 1.15 9.65.6 10.75.1 8-.2 8.65-.5 8.15-1 4.5-.9 3.3-1.4z"/></svg>