<svg xmlns="http://www.w3.org/2000/svg" width="138.825" height="191.429" viewBox="-0.913 -1.756 138.825 191.429"><path fill="#ce8049" d="M59 155.25 29.5 56.5l-1 6.5s24 93.75 23.5 93.5l.25.5a3.21 3.21 0 0 0 2.5 2.5c1.25.25 2.5 0 3.5-1 1-.75 1.25-2 .75-3.25"/><path fill="#db9463" d="M53.75 156.75c1.5-.75 2.25-2.5 1.75-4L28.5 63 27 73.25l25 83.25c.5.25 1.25.5 1.75.25"/><path fill="none" stroke="#8e4639" stroke-linecap="round" stroke-linejoin="round" stroke-width="1.2" d="M59 155.25 29.5 56.5 27 73.25l25 83.25.25.5c.5 2 2.5 3 4.5 2.5 1.75-.5 3-2.5 2.25-4.25"/><path fill="#fff" stroke="#8e4639" stroke-linecap="round" stroke-linejoin="round" stroke-width="4.825" d="m12 161.25 33.25-36.75"/><path fill="#ce8049" d="M36.5.75c-1-.25-2 0-2.75.75q-1.125 1.125-1.5 2.25l-.25 2C32.5 5.25 6.25 183 6 182.5v.5c-.25 1.75 1.25 3.5 3 3.75s3.5-1 4-2.75L39.5 5c.25-1 0-2-.75-2.75Q38 1.125 36.5.75"/><path fill="#db9463" d="M7.5 183.25c1.75 0 3-1.25 3.25-3L36 9c.5-1.75-.5-3.25-2.25-3.75-.5 0-1.25 0-1.75.5L6 182.25c.25.5 1 .75 1.5 1"/><path fill="none" stroke="#8e4639" stroke-linecap="round" stroke-linejoin="round" stroke-width="1.2" d="M36.5.75c-1-.25-2 0-2.75.75q-1.125 1.125-1.5 2.25l-.25 2L6 182.5v.5c-.25 1.75 1.25 3.5 3 3.75s3.5-1 4-2.75L39.5 5c.25-1 0-2-.75-2.75S37.5 1 36.5.75"/><g stroke="#8e4639"><path fill="#ffdb48" stroke-width="1.2" d="M1.5 122.75h86.25l11-6.75H12.5l-11 6.75M1.5 122.75h86.25v6.5H1.5v-6.5"/><g fill="none" stroke-width=".6"><path d="M5 129.25c1-2.5 2.5-4.75 4.25-6.75 2.75-2.75 6.25-4.25 10.25-4.25 3.75-.25 7.25 1.5 9.25 4.5 1.5 2.25 3.25 4.5 5.25 6.5"/><path d="M10.5 129.25c.75-2.5 2-4.75 3.75-6.5 2.5-2 6.5-2.5 8.75 0 1.5 2.25 3 4.5 4.5 6.5"/><path d="M14.75 129.25s.75-4 3.5-4 2.5 2 4.5 4M31.25 119.25c.25 1.25 1 2.5 1.75 3.5 2.5 2.75 5.5 4.75 9 6.5h33.75c3-1.75 5.75-4 8.25-6.5.75-1 1.25-2.25 1.5-3.25"/><path d="M38.25 119.5c.5 1.25 1 2.25 1.75 3.25 2.25 2.5 5 4.75 8 6.5h19.75c3.5-1.75 6.75-4 9.75-6.5.75-1 1.25-2.25 1.5-3.25"/><path d="M44.75 119.5c0 1.25.5 2.5 1.25 3.25 1.25 1.5 6.5 3.75 11.75 3.75 4.5.25 9.25-1.25 12.75-4 1-.75 1.75-2 2.25-3.25"/><path d="M50.25 119.5s1.75 1.75 8 1.75c3 .25 6-.25 8.75-1.5"/></g><path fill="#ffdb48" stroke-width="1.2" d="M87.75 122.75v6.5l11-7V116l-11 6.75"/></g><path fill="#fbd6cc" stroke="#fbd6cc" stroke-linecap="round" stroke-linejoin="round" stroke-width=".6" d="M26.25 21 12 118.75h77.5L104 21z"/><path fill="#ffa6b9" d="M11.75 120h76.5L91 102.25 14.25 102z"/><path fill="#ff8aae" stroke="#ff8aae" stroke-width=".6" d="M19.5 106.25c3.25-1 2.75 2 7 1.75 5.5 0 6.25 2.75 5.5 5s-7 3-11.5-.5c-2.5-2-4.25-5.25-1-6.25Z"/><path fill="none" stroke="#ff8aae" stroke-width="1.2" d="M33.25 105.5c1.25.5 2 1.5 2.75 2.5.5 1 .75 2.25.25 3.5M79 107.5c1-.5 2.25-.75 3.25-.75 1.25.25 2.25.75 3 1.75M54 116c0-1.25.5-2.25 1.25-3.25s1.75-1.5 3-1.75M52.5 106c-.75.75-2 1.25-3 1.5-1.25 0-2.25-.25-3.25-1"/><path fill="#ff8aae" stroke="#ff8aae" stroke-width="1.2" d="M61.75 113c-1-1.5 1-2.75 2.75-3.5.75-.25 1.25-.75 1.75-1.5q.375-1.125 0-2.25c-.5-1.25 1.5-2 2.25.5.5 2 0 4-1.5 5.5-1.75 1.75-4.5 2.5-5.25 1.25ZM70.75 113.75c.5-2 3.5-3.25 5.75-3.25 2.25.25 3.5 2 3 3.5s-3.25 1.75-4.75 2c-1.75.25-4.25-.75-4-2.25Z"/><path fill="#ff8aae" stroke="#ff8aae" stroke-width=".6" d="M49.5 115.5c-1.25 1-2.75 0-4-.5-2-.5-2.75 1.25-5 0-1.5-.75-2-3.75 1-5 4.5-1.5 10.25 3.5 8 5.5Z"/><path fill="none" stroke="#ffe4de" stroke-width="1.2" d="m29 80.5 3.75 5.25M74 97.5l4-3.25M85.25 65.5l3 4M96.75 33.25l-3.5 3.5M77.75 26.25l4.25 2.5M62.75 28.25l-3.5 3.5M38.25 51.25 33.75 49M50.5 44l.5-5M47.5 61.5 51 58M62 72.5l-1.25-5M47.5 73.25h-5M65.5 87.75l-4-3M48.5 91.25l.5-5M67.25 51l-4.75-2M76.75 74.75l-1.25 5M82 49.25 80 54M74.5 40.75 71 37M41.25 27.5l.5 5M28.75 39.25 33 37.5M27.75 66.25l-2 5.5M28 94.5l-5.75 1.75"/><path fill="#5e154d" d="M109.25 24 104 20H26.25c-.25 0-.5.25-.5.5l-14.5 99c0 .25 0 .25.25.5s.25.25.5.25h77.5l7-4.25c.25 0 .25-.25.25-.5l13.5-90.75c-.75-.5-.75-.75-1-.75M26.5 21H103l-6 39-9 58.75H12z"/><path fill="#ce8049" d="m135.25 155.25-29.5-98.75-1 6.5s24 93.75 23.5 93.5l.25.5a3.21 3.21 0 0 0 2.5 2.5c1.25.25 2.5 0 3.5-1 1-.75 1.25-2.25.75-3.25"/><path fill="#db9463" d="M130 156.75c1.5-.75 2.25-2.5 1.75-4l-27-89.75-1.5 10.25 25 83.25c.5.25 1.25.5 1.75.25"/><path fill="#fff" stroke="#8e4639" stroke-linecap="round" stroke-linejoin="round" stroke-width="4.825" d="m90.25 163.5 30-33.25"/><path fill="none" stroke="#8e4639" stroke-linecap="round" stroke-linejoin="round" stroke-width="1.2" d="m135.25 155.25-29.5-98.75-2.5 16.75 25 83.25.25.5a3.21 3.21 0 0 0 2.5 2.5c1.25.25 2.5 0 3.5-1s1.25-2.25.75-3.25"/><path fill="#ce8049" d="M113.25.75c-1-.25-2 0-2.75.75-.75.5-1.25 1.5-1.5 2.25l-.25 2c.5-.5-25.75 177.25-26 176.75v.5c-.25 1.25.25 2.75 1.25 3.5s2.5 1 3.75.5 2-1.75 2.25-3L116.25 5c.25-1 0-2-.75-2.75q-.75-1.125-2.25-1.5"/><path fill="#db9463" d="M84.25 183.25c1.75 0 3-1.25 3.25-3L112.75 9c.25-.75 0-1.75-.25-2.25s-1-1.25-2-1.5c-.5 0-1.25 0-1.75.5l-26 176.5c.25.5.75.75 1.5 1"/><path fill="none" stroke="#8e4639" stroke-linecap="round" stroke-linejoin="round" stroke-width="1.2" d="M113.25.75c-1-.25-2 0-2.75.75-.75.5-1.25 1.5-1.5 2.25l-.25 2-26 176.75v.5c-.25 1.25.25 2.75 1.25 3.5s2.5 1 3.75.5 2-1.75 2.25-3L116.25 5c.25-1 0-2-.75-2.75q-.75-1.125-2.25-1.5"/><path fill="#ffac33" stroke="#5e154d" stroke-width=".5" d="M72.2 85.075a5.25 5.25 0 0 0 2.75 6.425 8.03 8.03 0 0 0 7.825-1.825 6.177 6.177 0 0 0 1.15-9.225c-2.5-2.7-6.825-.525-7.9 0a9.82 9.82 0 0 0-3.825 4.625Z"/><path fill="#ffdb48" stroke="#5e154d" stroke-width=".5" d="M74 82.225a10.6 10.6 0 0 0 2.275 5 7.5 7.5 0 0 0 5.65 3.05A8.35 8.35 0 0 0 81 84a10 10 0 0 0-4.05-4"/><path fill="#007c2c" d="M60.6 72.475a18.7 18.7 0 0 1 8.025 1.175 10 10 0 0 1 4.875 4.825c.275.425-1.8 2.075-4.075 2.275-.45 0 1.6 2.025 3.85.85a6.6 6.6 0 0 0-2.875 3.45c-.525 2.3.9 4.25 1.275 4.125s0-1.725.575-3.075 1.6-1.9 1.8-1.8-.225 1.225.6 2.5a2.126 2.126 0 0 0 2.5.95c.175-.225-.6-1.05-.925-2a2.5 2.5 0 0 1 0-2.225c.225-.175 1.325.475 1.725 1.3s.6 2.05.875 2.025a3.23 3.23 0 0 0 .825-3.225c-.475-1.425-1.825-1.6-1.6-1.7a5.56 5.56 0 0 1 2.7.175c1.025.4 1.775 2.025 1.975 1.95.68-.931.68-2.194 0-3.125-.775-1.025-2.175-1.125-2.15-1.325a4.85 4.85 0 0 1 2.65 0c1.25.325 2.5 1.475 2.5 1.3a3 3 0 0 0-2.5-3.525 5.32 5.32 0 0 0-4.3 1.025 2.87 2.87 0 0 0 1.225-2.35c0-1.275-.8-2.5-.9-2.2-.227.78-.6 1.51-1.1 2.15-.95 1.25-2.275 1.725-2.5 1.35a14.46 14.46 0 0 0-4.775-5A19.1 19.1 0 0 0 60.65 70.5z"/><g stroke-width=".4"><path fill="#ffdb48" stroke="#5e154d" d="M45.55 51.5c1.35.275 2.775 2.3 2.975 5.425s-1.325 8.275-4.825 10c-1.075.55.9-4.2.55-7.125s-1.075-4.15-1.1-5.925 1.025-2.625 2.4-2.375ZM38.825 49c-1.875.325-3.425 3.175-2.95 6.825s1.05 4.75-1.2 8.575c-.575.975 4.15-.975 5.175-4.225s.675-4.425 1.825-7.725a2.501 2.501 0 0 0-2.85-3.45Z"/><path fill="#ffdb48" stroke="#5e154d" d="M40.15 44.7c-1.4-.775-3.925-.575-5.95 2.7a16.3 16.3 0 0 0-1.925 8.475 15 15 0 0 1-1.275 5.9c-.4.9 3.3-1.375 4.775-5 1.225-3.025-.3-6.3 2.95-7.7 2.125-.9 2.95-3.525 1.425-4.375ZM41.875 51.625c-1.125.825-1.725 4.4-1.975 7.95s-1.775 5.95-1.375 6.15a8.75 8.75 0 0 0 5.4-5.725 14.05 14.05 0 0 0 .65-7.35 1.574 1.574 0 0 0-2.7-1.025ZM50.1 48.2c.825-1.6 3.15-1.75 5-.3a12.68 12.68 0 0 1 3.8 9.025c.25 3.35 2.5 5.725 2 6.1S56.825 62 55.375 58.5c-1.25-3-1.25-4.525-3.35-6.05S49.35 49.6 50.1 48.2Z"/><path fill="#ffdb48" stroke="#5e154d" d="M48.5 50.05c-1.575 1.575 0 3.975 2.125 6.875a24.1 24.1 0 0 1 2.1 10c-.25 1.35 3.975-3.8 2.95-9.45s-5.175-9.4-7.175-7.425Z"/><path fill="#ffdb48" stroke="#5e154d" d="M48.5 51.175c1.375 0 2.275 1.65 2.975 4.7s0 9.175-2.75 11.175c-.975.7.2-3.4-.675-7.1a31 31 0 0 1-1.475-6.1c.05-1.75.575-2.7 1.925-2.675ZM49.875 43.5a3.525 3.525 0 0 1 4.25-.825A7.5 7.5 0 0 1 58.5 48.5a19.75 19.75 0 0 0 3.125 7.1c.6.75-2.225 0-3.975-2.25a22.7 22.7 0 0 0-4.05-5c-1.55-1.075-2.225-.6-3.325-1.5a2.676 2.676 0 0 1-.4-3.35Z"/><path fill="#ce8049" stroke="#5e154d" d="M52.325 47.925A6.7 6.7 0 0 1 45.15 54c-4.225 0-7.5-2.225-7.15-6.275a6.75 6.75 0 0 1 7.15-5.85 6.574 6.574 0 0 1 7.175 6.05Z"/><path fill="none" stroke="#5e154d" d="M39.775 52.175a27.5 27.5 0 0 1 2.35-5.675 16.8 16.8 0 0 1 3.425-4.6M42.65 53.7a30.2 30.2 0 0 1 2.5-5.775 25.5 25.5 0 0 1 3.9-5.15M46.3 54a29.4 29.4 0 0 1 5.175-8.925"/><path fill="none" stroke="#5e154d" d="M37.975 48.225a43 43 0 0 1 6.05 1.9 29.8 29.8 0 0 1 5.2 2.775M38.825 45.175c2.411.163 4.781.703 7.025 1.6a27.2 27.2 0 0 1 5.975 3.35M41.75 42.55c2.096.198 4.147.73 6.075 1.575a16.7 16.7 0 0 1 4.475 3.25"/><path fill="none" stroke="#ffc033" d="M46.7 58.5a7.5 7.5 0 0 1-.25 3.475M54.525 56.875a13.3 13.3 0 0 1 0 4.275"/><path fill="none" stroke="#ffea92" d="M37.225 56.225a8.6 8.6 0 0 1 .25 3.55M35.3 47.925a10.3 10.3 0 0 0-1.35 3.25M53.5 43.85a5.8 5.8 0 0 1 2.925 2.5"/></g><g stroke-width=".4"><path fill="#ffce00" stroke="#5e154d" d="M75.8 58.125c-.525 1.675.975 2.925 2.5 5.225a6.77 6.77 0 0 1 .2 5.65c-.25.75 4.6-1.7 3.875-7.625-.725-6.525-5.7-5.9-6.575-3.25Z"/><path fill="#ffce00" stroke="#5e154d" d="M73 59.2a5.9 5.9 0 0 0-.25 6.025c.422 1.92.715 3.866.875 5.825.45.9 4.2-4.025 4.2-8.375 0-4.825-3.65-4.675-4.825-3.475ZM78.1 54.75c-.275 1.775.875 3.425 4.075 4.55 3.85 1.35 2.95 6.15 3.35 5.7 1.3-1.425 3.275-7.5-1.075-10.6-2.625-1.85-5.95-2.275-6.35.35Z"/><path fill="#ffce00" stroke="#5e154d" d="M77.575 52.375c-.4-1.55.85-2.875 3.525-2.775 4.375.15 3.375 2.125 8.25 2.075.925 0-2.075 2.75-6.05 3.05-2.525.2-5.2-.275-5.725-2.35ZM70.075 58.75c-1.7 1-1.3 3.225-.8 5.4.6 2.675-.725 6.15-.375 6.3a9.05 9.05 0 0 0 4.1-5.775C74.2 60 71.875 57.7 70.075 58.75ZM69.35 51.5c-1.7 1.375-4.225.5-4.75-3.375a7.33 7.33 0 0 1 2.25-6.4c.75 0 0 1.875 2 5 1.225 1.8 1.775 3.7.5 4.775Z"/><path fill="#ffce00" stroke="#5e154d" d="M72.875 40.2c.675 0-.4 2.8 0 4.65.55 3.3.425 6.2-1.45 6.325-2.3.125-2.95-2.5-2.5-5.2s2.775-5.8 3.95-5.775ZM76.675 51.15c-2.5-1.1-1.35-4.85 2.85-5.525 3.775-.6 8.725 1.825 8.775 2.75s-3.975.5-6 1.325-3.6 2.4-5.625 1.45Z"/><path fill="#ffce00" stroke="#5e154d" d="M74.675 50.45c-2 .325-3.45-2.05-1.875-4.625a7.68 7.68 0 0 1 6.55-3.375 6.93 6.93 0 0 1 5 1.5 42 42 0 0 0-5.85 2.95c-1.7 1.45-1.95 3.25-3.825 3.55ZM60.625 44.7c.6 0 .775 2.2 3.1 4s3.925 3.825 3.05 5.3c-1.15 1.975-4.625 1.425-6.125-2.275-1.225-3.025-.7-7.025-.025-7.025ZM64.225 69.6a11.33 11.33 0 0 0 5-5.45c.8-2.1 1.2-4.85-.55-5.65s-2.725 1.225-2.9 2.325c-.4 2.5 0 2.2-.35 4.225s-1.425 4.325-1.2 4.55Z"/><path fill="#ffce00" stroke="#5e154d" d="M55.1 57.225A9.3 9.3 0 0 0 61 59c2.725.175 5.15-.525 5.55-2.3s-.8-2.925-2.775-2.725a17.5 17.5 0 0 0-5.15 1.875c-1.6.65-3.525 1.075-3.525 1.375Z"/><path fill="#ffce00" stroke="#5e154d" d="M57.75 64.875A9.47 9.47 0 0 0 65 63.2c2.175-1.65 3.3-3.825 2.3-5.325s-2.7-1.45-4.1.5a29 29 0 0 1-3.15 4.3c-1.275 1.325-2.65 1.95-2.3 2.2Z"/><path fill="#ce8049" stroke="#5e154d" d="M80.175 54.75A6.725 6.725 0 0 1 73 60.825c-4.225 0-7.5-2.225-7.15-6.3A6.75 6.75 0 0 1 73 48.7a6.574 6.574 0 0 1 7.175 6.05Z"/><path fill="none" stroke="#5e154d" d="M66.325 57.275a17.1 17.1 0 0 1 4.15-4.375 25 25 0 0 1 5.85-3.375M68.5 59.775A39.4 39.4 0 0 1 73.3 55a29.7 29.7 0 0 1 5.775-3.5M73 60.825a25.6 25.6 0 0 1 3.575-3.55 18.4 18.4 0 0 1 3.6-2.275"/><path fill="none" stroke="#5e154d" d="M66 53.7a43 43 0 0 1 5 3.175 35 35 0 0 1 4.125 3.65M67.95 50.475a26.5 26.5 0 0 1 5.375 3.225 35.4 35.4 0 0 1 5 5.15M71.975 48.75a16.08 16.08 0 0 1 7.975 7.5"/><path fill="none" stroke="#fff75f" d="M73.8 46.9a5.45 5.45 0 0 1 3.1-2.5M70.4 44.7a5.92 5.92 0 0 0-.7 3.525M61.125 49.925a9.8 9.8 0 0 0 1.55 2.975"/><path fill="none" stroke="#ffb829" d="M66 60.25a11 11 0 0 1-2.5 2.7M72.175 63.1A12.3 12.3 0 0 1 71 66.95M81.275 61a7.96 7.96 0 0 1 0 3.825M82.325 53.4c1.26.022 2.516-.147 3.725-.5"/></g><path fill="#fff" d="M65.8 93.575q.219-1.706.2-3.425a26.5 26.5 0 0 0-3.375-11.675h-14.4A26.5 26.5 0 0 0 44.85 90.15a21.6 21.6 0 0 0 .3 3.425 30.5 30.5 0 0 0 10.325 1.75 30.2 30.2 0 0 0 10.325-1.75"/><path fill="#f05822" d="M55.475 95.325a30.5 30.5 0 0 1-10.325-1.75 87.6 87.6 0 0 0 3.35 13.15 22.1 22.1 0 0 0 6.825 1.25h.275a21.9 21.9 0 0 0 6.825-1.25 89.6 89.6 0 0 0 3.375-13.15 30.2 30.2 0 0 1-10.325 1.75"/><path fill="none" stroke="#f05822" stroke-linecap="round" stroke-linejoin="round" stroke-width=".9" d="M62.7 78.475H48.225A26.5 26.5 0 0 0 44.85 90.15a21.6 21.6 0 0 0 .3 3.425 87.6 87.6 0 0 0 3.35 13.15 15.4 15.4 0 0 0 7.1 1.25 13.5 13.5 0 0 0 6.825-1.25 89.6 89.6 0 0 0 3.375-13.15q.219-1.706.2-3.425a26.5 26.5 0 0 0-3.3-11.675"/><path fill="#ffac33" stroke="#5e154d" stroke-linecap="round" stroke-linejoin="round" stroke-width=".6" d="M48.975 74.275A9.17 9.17 0 0 0 45.45 80.4c-.8 4 .475 8.2 1.2 8.2s1.025-2.2 2.125-4.175c.875-1.575 1.975-2.75 3.25-4.65 1.8-2.625 1.525-4.25.775-5.175a2.85 2.85 0 0 0-3.825-.325"/><path fill="#ffac33" stroke="#5e154d" stroke-linecap="round" stroke-linejoin="round" stroke-width=".6" d="M49.65 71.5c-1.925-1.15-4.45-.475-7.5 3.075-2.7 3.025-3.7 7.675-3.225 7.65s2.7-1.325 5.375-2.5a13.07 13.07 0 0 0 5.8-4.35c.9-1.75.9-3.175-.45-3.875M52.45 76.1c-2.275 2.5-.75 11.775.35 11.775s4.1-6.85 3.5-10.275c-.3-2.425-2.475-3.1-3.85-1.5"/><path fill="#ffac33" stroke="#5e154d" stroke-linecap="round" stroke-linejoin="round" stroke-width=".6" d="M56.25 75.6c1.525-.675 3.875.925 4.25 5.55a11.47 11.47 0 0 1-1.85 7.5c-.525 0-1-3.425-2.5-6.325-1.025-2.5-1.825-5.825.1-6.725"/><path fill="#ffac33" stroke="#5e154d" stroke-linecap="round" stroke-linejoin="round" stroke-width=".6" d="M59.725 74.25c-1.2.65-1.95 2.5-.275 4.725s4.05 2.5 5.2 5.875c.375 1.025 1.775-2.8.625-6.5s-3.825-5.025-5.55-4.1"/><path fill="#ffac33" stroke="#5e154d" stroke-linecap="round" stroke-linejoin="round" stroke-width=".6" d="M61.3 72.575a3.875 3.875 0 0 0 1.9 3.925 45 45 0 0 1 3.975 2.1c1.15.925 2.1 3.35 2.5 3.15.637-2.25.523-4.646-.325-6.825A6.7 6.7 0 0 0 65.1 70.9c-2-.65-3.725.35-3.8 1.675"/><path fill="#ffac33" stroke="#5e154d" stroke-linecap="round" stroke-linejoin="round" stroke-width=".6" d="M61.4 70.425c-.3-1.725 1.225-3.35 3.775-3.35a6.57 6.57 0 0 1 6.25 4.125c0 .375-2.775.175-4.7.8s-4.9.775-5.325-1.575"/><path fill="#ffac33" stroke="#5e154d" stroke-linecap="round" stroke-linejoin="round" stroke-width=".6" d="M60.025 67.65c-1.05-1.1-.375-3.525 2.5-5a9.15 9.15 0 0 1 5.7-1.025c.325.35-1.025 3.325-2.7 5s-4.05 2.575-5.5 1.025"/><path fill="#ffac33" stroke="#5e154d" stroke-linecap="round" stroke-linejoin="round" stroke-width=".6" d="M57.45 65.675c-1.475-.5-2.2-2.275-1.5-5a7.05 7.05 0 0 1 5-4.65c.75 0-.5 1.825-.2 4.225a6.9 6.9 0 0 1 0 3.975 2.5 2.5 0 0 1-1.341 1.428 2.5 2.5 0 0 1-1.959.022"/><path fill="#ffac33" stroke="#5e154d" stroke-linecap="round" stroke-linejoin="round" stroke-width=".6" d="M53.25 54.3c.275-.15 0 2.15.85 3.95a14.2 14.2 0 0 1 2.275 4.725 2.498 2.498 0 0 1-2.5 3.3c-1.925-.2-3.2-1.925-3.475-4.75a7.67 7.67 0 0 1 2.85-7.225"/><path fill="#ffac33" stroke="#5e154d" stroke-linecap="round" stroke-linejoin="round" stroke-width=".6" d="M45.625 56.5c.3-.15 1.225 1.475 3.175 2.75a8.7 8.7 0 0 1 3.4 3.425c.75 1.65.95 3.375-.225 4.35s-4.075.55-5.8-2.65a10.25 10.25 0 0 1-.55-7.875"/><path fill="#ffac33" stroke="#5e154d" stroke-linecap="round" stroke-linejoin="round" stroke-width=".6" d="M39.825 61.3c.275-.125 2.1.675 5 .975a7.35 7.35 0 0 1 6.175 3.8 2.85 2.85 0 0 1-1.075 3.6 6.85 6.85 0 0 1-7.3-2.225 8.47 8.47 0 0 1-2.8-6.15"/><path fill="#ffac33" stroke="#5e154d" stroke-linecap="round" stroke-linejoin="round" stroke-width=".6" d="M35.5 71.775a23.6 23.6 0 0 1 4.275-2.1 14.2 14.2 0 0 1 6.5-1.775c2.3 0 3.275 1.125 3.275 2.85s-2.5 3.15-5.575 3.25c-4.375.125-8.65-1.575-8.475-2.225"/><path fill="#ce8049" stroke="#5e154d" stroke-linecap="round" stroke-linejoin="round" stroke-width=".6" d="M62.3 70.9a6.825 6.825 0 0 1-7.2 6.35c-4.25 0-7.5-2.325-7.175-6.575A6.876 6.876 0 0 1 55.1 64.55a6.7 6.7 0 0 1 7.2 6.35"/><path fill="none" stroke="#5e154d" stroke-linecap="round" stroke-linejoin="round" stroke-width=".6" d="M47.925 70.675A26.8 26.8 0 0 1 54.95 68.5a28.7 28.7 0 0 1 6.675-.35M48.775 74.3a70 70 0 0 1 6.825-1.675c3.575-.65 6.7-1.075 6.7-1.075"/><path fill="none" stroke="#5e154d" stroke-linecap="round" stroke-linejoin="round" stroke-width=".6" d="M49.45 67.025A30.5 30.5 0 0 1 51 71.5a36.6 36.6 0 0 1 .875 5.325M53.075 64.875A28 28 0 0 1 55.2 70.9c.469 2.061.737 4.162.8 6.275M57.375 64.875a31.7 31.7 0 0 1 1.75 5c.378 1.82.612 3.668.7 5.525"/><path fill="none" stroke="#fff" stroke-linecap="round" stroke-linejoin="round" stroke-width="1.2" d="M61.95 103.05c0 .275 0 .25-.175.7"/><path fill="none" stroke="#ffdb48" stroke-linecap="round" stroke-linejoin="round" stroke-width=".6" d="M43.75 63.325a12.9 12.9 0 0 1 5 1.65M40.475 70.675A15.2 15.2 0 0 1 45.2 69M53.5 59.55a6.3 6.3 0 0 1 1.7 3.375M62.85 66.8a6.64 6.64 0 0 0 2.325-2.025"/><path fill="none" stroke="#ef9426" stroke-linecap="round" stroke-linejoin="round" stroke-width=".6" d="M44.125 78.3a11 11 0 0 0 3.025-1.975M54.675 81.5a23 23 0 0 1-.925 2.925M61.75 79.625a7.8 7.8 0 0 1 2.1 2.025M65.025 71.175a8.4 8.4 0 0 1 2.925-.65"/></svg>