<svg xmlns="http://www.w3.org/2000/svg" width="75.772" height="76.882" viewBox="-0.5 -0.5 75.772 76.882"><path fill="#0cc" d="M74.772 14.572c0 .44-.02.88-.08 1.32-.44 3.68-2.38 7.73-6.3 10.33.18 3.5-.06 8.04-.72 13.82-.36 3.12-.71 6.2-1.06 9.26-.02.19-.05.38-.08.57-1.03 6.14-2.87 11.05-5.61 15.01-1.28 1.92-3.09 3.71-5.51 5.47-2.42 1.75-4.71 2.92-7.01 3.58-4.33 1.31-8.16 1.95-11.72 1.95-2.64 0-5.08-.35-7.27-1.05-4.84-1.49-9.16-4.24-12.76-8.13-2.34-2.52-4.06-5.02-5.27-7.64-1.44-3.09-2.26-7.34-2.65-13.72-.01-.07-.01-.13-.01-.2-.19-4.24-.5-10.19-.93-17.77-3.87-1.97-6.61-5.46-7.54-9.77-.38-1.74-.33-3.54.15-5.26 1.34-4.84 4.88-8.65 9.72-10.45 1.29-.49 2.79-.81 5.54-1.16a39 39 0 0 1 3.96-.65c1.14-.09 2.5-.11 4.75-.04h2.74c2.65-.15 5.4.22 8.23 1.08 2.2.66 4.11 1.85 5.6 3.42.04-.01.08-.02.13-.03.63-.18 1.57-.4 4.1-.91.19-.04.38-.07.57-.1.44-.08 2.32-.42 10.24-1.94 3.53-.71 7.06-.55 10.07.53 2.07.73 4.88 2.36 6.9 5.99.79 1.42 1.82 3.62 1.82 6.49"/><path fill="#fff" d="M63.776 14.568q-.44 3.611-6.156 3.348-.264 2.732-.264 8.106.35 4.318-.615 12.774a5853 5853 0 0 1-1.057 9.251q-1.144 6.787-3.869 10.662-.794 1.235-2.859 2.732-2.068 1.498-3.65 1.938-4.926 1.497-8.62 1.498-2.288-.001-3.958-.529-4.575-1.412-8.005-5.118-2.287-2.469-3.343-4.767-1.232-2.647-1.671-9.795-.353-8.208-1.319-24.622 0-.616-.792-1.765-3.343-.264-3.87-.354-2.287-.616-2.727-2.647.61-2.206 2.972-3.088.697-.264 3.669-.618.961-.264 2.884-.529 1.047-.087 3.67 0h3.286q2.131-.175 4.706.617 1.242.35 1.243 1.762 0 1.763-1.407 2.555-.968.62-3.254.793-1.583-.086-3.959.441-.616.352-.615 1.234.087.706.088 1.32-.09 2.821.264 8.02.264 3.703.264 4.583v5.463q0 .264.176 1.322t.177 1.232v6.521q.264.705.527 2.114.264 3.967 4.09 7.579t7.873 3.612q1.67 0 6.157-1.234 1.758-.528 3.254-2.557 1.495-2.027 1.847-3.878.44-.793 1.057-2.469.79-4.405 2.023-13.397.876-10.048.264-17.982-1.058-.087-3.256.352-2.463.616-3.43.616-2.287 0-3.343-1.936-.352-1.758 1.848-2.639.614-.175 3.255-.703.174 0 10.73-2.023 2.639-.527 4.311.088.528.177.967.969.436.794.437 1.148"/></svg>