<svg xmlns="http://www.w3.org/2000/svg" width="75.225" height="113.566" viewBox="0.638 0.664 75.225 113.566"><g stroke="#000"><path fill="#ccc" stroke-width="2.633" d="M38 2.027c9.794 0 18.669.571 25.096 1.496 6.426.924 10.404 2.2 10.404 3.608 0 1.409-3.978 2.684-10.404 3.608-6.427.925-15.302 1.496-25.096 1.496s-18.669-.571-25.096-1.496C6.478 9.815 2.5 8.539 2.5 7.13c0-1.409 3.978-2.684 10.404-3.608C19.331 2.598 28.206 2.026 38 2.026Z"/><path fill="#56aaff" stroke-width="2.725" d="M40 102.162c4.69 0 8.94.6 12.018 1.57 3.077.968 4.982 2.305 4.982 3.783s-1.905 2.814-4.982 3.783c-3.078.97-7.328 1.57-12.018 1.57s-8.94-.6-12.018-1.57c-3.077-.969-4.982-2.306-4.982-3.783 0-1.478 1.905-2.815 4.982-3.784 3.078-.97 7.328-1.57 12.018-1.57Z"/><path fill="none" stroke-linecap="round" stroke-width="2" d="m74.5 8-17 99M2 7.5l20.5 100"/><path fill="#56aaff" stroke-width="2.205" d="M38.819 39.175c7.917 0 15.092.515 20.287 1.348 5.195.832 8.41 1.982 8.41 3.252s-3.215 2.42-8.41 3.252c-5.195.833-12.37 1.348-20.287 1.348s-15.092-.515-20.287-1.348c-5.195-.832-8.41-1.982-8.41-3.252s3.215-2.42 8.41-3.252c5.195-.833 12.37-1.348 20.287-1.348Z"/></g><path fill="#56aaff" stroke="#56aaff" stroke-linecap="round" stroke-width="2" d="M56.25 103.25 66 47l-5 1.5-7 1-8.75 1h-6.5l-8.25-.25-6.25-.5-7-1-5.25-1.5 11.5 56.5 4.25-2 3.75-1 4.25-.5h5l4.25.25 4 .5 3.5 1z"/><path fill="#ccc" stroke="#ccc" stroke-linecap="round" stroke-width="2" d="m72 10.25-6.75 2.25-9 1.25-8.5.5-8.5.25-9.25-.25-9.75-.5-9.25-1-6.25-1.5 6 29.25 6-1.75 6.75-1 7.75-.5H46l7.25.5 6.75.75 4.5 1 2.65 1.1z"/></svg>