<svg xmlns="http://www.w3.org/2000/svg" width="91.755" height="255.901" viewBox="0 0 91.755 255.901"><g stroke-miterlimit="10" data-paper-data="{&quot;isPaintingLayer&quot;:true}" style="mix-blend-mode:normal"><g data-paper-data="{&quot;origPos&quot;:null}"><path fill="#d8d8d8" d="m54.703 255.9.9-9.7 14.8.6 9.4 2.3 7.4 6.8z"/><path fill="#98c1dd" d="m55.403 247.6-3.7-50.4-7.9-62h30l.7 62.3v50.1z"/></g><path fill="#d8d8d8" d="m16.803 255.9.9-9.7 14.8.6 9.4 2.3 7.4 6.8z"/><path fill="#98c1dd" d="m18.303 247.6.5-52.3.7-60.1h29.1l-8 61.8-4.7 50.6z"/><g data-paper-data="{&quot;origPos&quot;:null}"><path fill="#ac752d" d="M80.103 114.545c-3.2.4-8.6-1.3-8.6-1.3s-8.1-46.9-1.1-48.6c12.6-3.4 14.9 46.6 14.9 46.6s-2.1 2.9-5.2 3.3"/><path fill="#485963" d="M65.703 96.245s-9-32.9 2.5-35.1c10.1-2 21.6 29 21.6 29z"/></g><g fill="#ac752d" data-paper-data="{&quot;origPos&quot;:null}"><path d="m88.103 138.345-8.2 2.4-8.8-27.1s3.1-4.2 6.7-3.9c2.7.2 7.3 1 7.3 1z" data-paper-data="{&quot;origPos&quot;:null}"/><path d="M84.619 160.918c-1.884.27-1.113-8.75-2.878-8.912-1.353-.141.26 5.453-.175 6.354-.532.92-3.273-.578-3.273-.578s-2.535-5.106-2.96-7.775c-1.061-5.906 4.604-11.813 4.604-11.813l7.276-.313s4.395 6.269 4.54 10.623c.087 4.06-3.008 9.562-3.008 9.562s-2.302 2.798-4.126 2.852" data-paper-data="{&quot;origPos&quot;:null,&quot;index&quot;:null,&quot;origRot&quot;:0}"/></g><path fill="#536672" d="m17.103 140.3-.2-76.3s15.2-7.9 28.2-8.1 23.933 4.012 26.333 5.312c2.3 1.2 3.067 81.289 3.067 81.289s-17.1 2.8-28.7 2.7c-11.8-.2-28.7-4.9-28.7-4.9" data-paper-data="{&quot;origPos&quot;:null}"/><path fill="#ac752d" d="M6.703 116.6c-2.5-.2-6.3-2.2-6.3-2.2s5.6-50.6 19.9-50.3c11.2-.3-7.2 51.3-7.2 51.3s-3.9 1.4-6.4 1.2"/><path fill="#485963" d="M.603 90.7s12.5-28.3 19.5-27.5c16.6 1.8 2.8 36.2 2.8 36.2z"/><g fill="#ac752d"><path d="m2.403 141.3-2.1-27.7s4-1.2 6.3-1.6c3.2-.6 6.7 3.3 6.7 3.3l-3.2 27.7z"/><path d="M4.903 160.4s-4.1-4.8-4.8-8.8c-.7-4.3 2.4-11.3 2.4-11.3l7.2-1.1s6.7 4.7 6.8 10.7c.1 2.7-1.4 8.2-1.4 8.2s-2.4 2-3.1 1.2-.1-6.6-1.4-6.2c-1.7.5.8 9.2-1.1 9.3-1.8.3-4.6-2-4.6-2"/></g><path fill="#241608" d="M72.203 28.3c0 15.7-20.6 31.3-34.8 31.3s-16.7-15.7-16.7-31.3S32.203 0 46.503 0c14.2-.1 25.7 12.6 25.7 28.3" data-paper-data="{&quot;origPos&quot;:null}"/><g fill="#9e6b30"><path d="m37.603 46.3 15.2 3.4-.1 9.1s4.9.9 4.8 3.7c-.1 4.5-18.9 6.9-22.8 0-1.5-3.4 2-4.6 2-4.6zM33.003 35.2c.8 2.4.3 4.7-1 5.1-1.4.5-3.2-1-4-3.4s-.3-4.7 1-5.1c1.4-.5 3.2 1.1 4 3.4" data-paper-data="{&quot;origPos&quot;:null}"/><path d="M64.503 33c0 12.8-7.9 19.6-14.7 19.9-11.8.2-19.4-9.5-19.4-22.3s2.2-22.4 17.2-23.1c11.4-.6 18.88 11.5 16.88 25.2z" data-paper-data="{&quot;origPos&quot;:null}"/></g><path d="M52.903 45.7c0 .7-2 2.2-3.7 2.2-1.8 0-3.5-1.9-3.5-2.7s2.2 0 4 0c1.7.1 3.2-.2 3.2.5"/><path fill="none" stroke="#000" stroke-linecap="round" stroke-width="1.46" d="M50.203 33.5s2.3 3 2.2 4.5c0 .7-2.5 2.1-2.5 2.1"/><path fill="#241608" d="M27.203 32.1s-1.407-20.274 9.8-26.25c15.64-8.339 25 5.15 25 5.15s-7.4 6-14.6 10.4-20.2 10.7-20.2 10.7" data-paper-data="{&quot;origPos&quot;:null}"/><path fill="none" stroke="#000" stroke-linecap="round" stroke-width="1.46" d="M38.803 26.5s2.9-.8 4.4-.8c1.7-.1 3.7.8 3.7.8M38.703 30.8s2.2-1.9 4.5-1.7c2.5.2 2.9 1.5 2.9 1.5"/><path d="M42.003 31.6c0-1.2.9-2.2 2.1-2.2s2.1 1 2.1 2.2-.9 2.2-2.1 2.2c-1.1 0-2.1-1-2.1-2.2"/><path fill="none" stroke="#000" stroke-linecap="round" stroke-width="1.46" d="M54.203 26.4s2.3-.8 4-.8c1.5.1 3.2.5 3.2.5M54.203 30.5s.5-1.3 2.9-1.5c2.3-.2 4.5 1.7 4.5 1.7"/><path d="M58.903 33.5c-1.2 0-2.1-1-2.1-2.2s.9-2.2 2.1-2.2 2.1 1 2.1 2.2-1 2.2-2.1 2.2"/><g fill="#241608" data-paper-data="{&quot;origPos&quot;:null}"><path d="M38.703 59.3c0 5.5-2.6 10-5.7 10s-5.7-4.5-5.7-10 2.6-10 5.7-10 5.7 4.5 5.7 10"/><path d="M26.703 70.7c0-4.3 2.2-7.8 4.9-7.8s4.9 3.5 4.9 7.8-2.2 7.8-4.9 7.8-4.9-3.5-4.9-7.8"/><path d="M27.303 81.8c0-3.3 1.7-6 3.7-6 2.1 0 3.7 2.7 3.7 6s-1.7 6-3.7 6-3.7-2.7-3.7-6"/><path d="M28.603 90.2c0-2.3 1.2-4.1 2.6-4.1s2.6 1.9 2.6 4.1-1.2 4.1-2.6 4.1c-1.5 0-2.6-1.8-2.6-4.1"/><path d="M34.403 97.6c.3 2.6-2.4 4.9-2.4 4.9s-3.5-1.9-3.7-4.5 1.6-4.8 2.7-4.9 3.1 1.9 3.4 4.5"/></g></g></svg>