<svg xmlns="http://www.w3.org/2000/svg" xml:space="preserve" width="141.001" height="81.275" viewBox="3.5 35.5 141.001 81.275"><path fill="#fff" d="M27.83 41.32 38.9 86.195l68.446-1.14 7.123-44.764z"/><path fill="#0000a1" d="m20.115 37.744 17.624 52.199 73.033-.512L121.639 36zm87.231 47.311-66.446.14L27.83 41.32l86.639-1.029z"/><path fill="#0084e7" d="m20.667 109.75 111.166-.01-.008.015h12.176l-33.118-20.963H37.119L4 109.755h16.671z"/><path fill="#0000a1" d="m4.064 109.74 5.628 6.535h128.333l5.952-6.535z"/><g fill="#fff"><path d="M72.793 94.27h-3.501l-.151 1.093h3.662zM60.514 95.363l.41-1.093h-5.963l-.679 1.093zM91.725 92.436l.608.947h5.263l-.818-.947zM84.621 94.27h-6.494l.165 1.093h6.766zM77.23 94.27h-3.549l.009 1.093h3.706zM52.385 98.422l-.759 1.224h7.283l.458-1.224zM98.36 94.27h-5.457l.702 1.093h5.699zM91.849 94.27h-6.273l.437 1.093h6.538zM68.245 95.363l.151-1.093h-6.525l-.41 1.093zM68.718 98.422l-.169 1.224h4.292l-.01-1.224zM83.89 92.436h-6.039l.142.947h6.275zM77.856 98.422h-4.139l.011 1.224h4.313zM76.954 92.436h-3.29l.008.947h3.425zM55.511 93.383h5.745l.355-.947h-5.513zM47.391 94.27h-5.035l-1.144 1.093h5.264zM90.67 92.436h-5.825l.378.947h6.055zM67.823 98.422h-7.508l-.459 1.224h7.798zM49.289 93.383h5.178l.588-.947h-4.973zM85.411 96.25h-6.985l.193 1.285h7.306zM93.121 96.25h-6.754l.513 1.285h7.067zM98.768 93.383h4.748l-1.013-.947H97.95zM100.068 96.25h-5.892l.826 1.285h6.175zM38.012 98.422l-1.28 1.224h6.16l1.024-1.224zM48.925 92.436h-4.651l-.99.947h4.849zM45.733 96.25h-5.449l-1.344 1.285h5.718zM100.476 95.363h5.156l-1.169-1.093h-4.931zM53.239 95.363l.678-1.093h-5.37l-.915 1.093zM45.073 98.422l-1.024 1.224h6.534l.759-1.224zM77.528 96.25h-3.83l.011 1.285h4.014zM51.892 97.535l.797-1.285H46.89l-1.076 1.285zM72.811 96.25h-3.792l-.178 1.285h3.982zM60.182 96.25h-6.45l-.796 1.285H59.7zM67.945 97.535l.178-1.285h-6.994l-.482 1.285zM72.777 92.436h-3.232l-.13.947h3.371zM36.729 98.422h-5.45l-1.51 1.224h5.679zM51.077 100.532l-1.044 1.682h7.913l.631-1.682zM109.252 97.535h5.28l-1.621-1.285h-5.032zM78.753 98.422l.185 1.224h7.829l-.489-1.224zM114.253 102.214h6.181l-2.122-1.682h-5.856zM72.849 100.532H59.524l-.63 1.682h13.97zM39 96.25h-5.039l-1.587 1.285h5.282zM111.508 99.646h5.686l-1.544-1.224h-5.45zM42.991 92.436h-4.32l-1.17.947H42zM87.12 100.532H73.736l.015 1.682h14.041zM41.072 94.27h-4.666l-1.35 1.093h4.872zM111.157 100.532h-6.223l1.451 1.682h6.57zM106.931 95.363h4.862l-1.38-1.093h-4.651zM109.295 93.383l-1.195-.947h-4.299l1.012.947zM87.233 98.422l.489 1.224h7.581l-.786-1.224zM104.169 99.646h6.04l-1.308-1.224h-5.788zM43.307 100.532l-1.408 1.682h7.091l1.043-1.682zM96.928 100.532l1.08 1.682h7.205l-1.451-1.682zM102.349 97.535h5.604l-1.373-1.285h-5.34zM68.519 93.383l.13-.947h-6.09l-.355.947zM88.076 100.532l.671 1.682h8.206l-1.08-1.682zM95.571 98.422l.786 1.224h6.64l-1.056-1.224zM28.674 100.532l-2.077 1.682h6.165l1.759-1.682zM35.805 100.532l-1.76 1.682h6.698l1.407-1.682zM72.873 103.12l-13.944.001h-.375l-.925 2.469h15.266zM57.296 106.477l-.606 1.617h.375l33.073-.002-.645-1.615zM73.759 103.12l.022 2.47h15.357l-.988-2.476c-2.83.003-7.684.005-14.391.006"/></g></svg>