<svg xmlns="http://www.w3.org/2000/svg" width="410.43" height="118.291" viewBox="0 0 410.43 118.291"><g fill="none" stroke-linecap="none" stroke-linejoin="none" stroke-miterlimit="10" stroke-width="none" data-paper-data="{&quot;isPaintingLayer&quot;:true}" font-family="none" font-size="none" font-weight="none" style="mix-blend-mode:normal" text-anchor="none"><g stroke="#5e154d" stroke-linejoin="miter" data-paper-data="{&quot;index&quot;:null}"><path fill="#fdbb38" stroke-linecap="butt" stroke-width="1.44" d="M144.15 91.92h178.2v10.56H7.86V91.92h136.29"/><path fill="#fdbb38" stroke-linecap="butt" stroke-width="1.44" d="M297.06 105.09h-28.08V91.92h28.08z"/><path stroke-linecap="round" stroke-width="1.08" d="M288.78 105.09V91.92M277.23 105.09V91.92"/><path fill="#fdbb38" stroke-linecap="butt" stroke-width="1.44" d="M160.74 105.09h-28.08V91.92h28.08z"/><g stroke-linecap="butt" stroke-width="1.08"><path d="M152.49 105.09V91.92M140.94 105.09V91.92"/></g></g><g data-paper-data="{&quot;index&quot;:null}"><path fill="#f7c1d8" d="M371.525 96.175a8.55 8.55 0 0 1 2.515 6.065 8.55 8.55 0 0 1-2.515 6.065 8.55 8.55 0 0 1-6.065 2.515 8.55 8.55 0 0 1-6.065-2.515 8.55 8.55 0 0 1-2.515-6.065 8.55 8.55 0 0 1 2.515-6.065 8.55 8.55 0 0 1 6.065-2.515 8.55 8.55 0 0 1 6.065 2.515"/><path fill="#5e154d" stroke="#5e154d" stroke-linecap="round" stroke-linejoin="round" stroke-width="1.44" d="M365.46 87.57c8.284 0 15 6.716 15 15s-6.716 15-15 15-15-6.716-15-15a15 15 0 0 1 15-15m0 22.38a7.5 7.5 0 1 0-7.47-7.47 7.5 7.5 0 0 0 7.47 7.56z"/><path fill="#fff" stroke="#da53d6" stroke-linecap="round" stroke-linejoin="round" stroke-width="1.08" d="M368.175 99.765a3.83 3.83 0 0 1 1.125 2.715c0 1.059-.43 2.019-1.125 2.715a3.83 3.83 0 0 1-2.715 1.125 3.83 3.83 0 0 1-2.715-1.125 3.83 3.83 0 0 1-1.125-2.715c0-1.059.43-2.019 1.125-2.715a3.83 3.83 0 0 1 2.715-1.125c1.059 0 2.019.43 2.715 1.125"/></g><g data-paper-data="{&quot;index&quot;:null}"><path fill="#f7c1d8" d="M236.04 90.48c6.627 0 12 5.373 12 12s-5.373 12-12 12-12-5.373-12-12 5.373-12 12-12"/><path fill="#5e154d" stroke="#5e154d" stroke-linecap="round" stroke-linejoin="round" stroke-width="1.44" d="M236.04 87.57a15 15 0 1 1-15 15c0-8.284 6.716-15 15-15m0 22.38a7.5 7.5 0 1 0-7.47-7.47 7.5 7.5 0 0 0 7.47 7.56z"/><path fill="#fff" stroke="#da53d6" stroke-linecap="round" stroke-linejoin="round" stroke-width="1.08" d="M238.755 99.765a3.83 3.83 0 0 1 1.125 2.715c0 1.059-.43 2.019-1.125 2.715a3.83 3.83 0 0 1-2.715 1.125 3.83 3.83 0 0 1-2.715-1.125 3.83 3.83 0 0 1-1.125-2.715c0-1.059.43-2.019 1.125-2.715a3.83 3.83 0 0 1 2.715-1.125c1.059 0 2.019.43 2.715 1.125"/></g><g data-paper-data="{&quot;index&quot;:null}"><path fill="#f7c1d8" d="M192.93 90.48c6.627 0 12 5.373 12 12s-5.373 12-12 12-12-5.373-12-12 5.373-12 12-12"/><path fill="#5e154d" stroke="#5e154d" stroke-linecap="round" stroke-linejoin="round" stroke-width="1.44" d="M192.93 87.57c8.284 0 15 6.716 15 15s-6.716 15-15 15-15-6.716-15-15 6.716-15 15-15m0 22.38a7.5 7.5 0 1 0-7.5-7.47 7.5 7.5 0 0 0 7.5 7.56z"/><path fill="#fff" stroke="#da53d6" stroke-linecap="round" stroke-linejoin="round" stroke-width="1.08" d="M195.645 99.765a3.83 3.83 0 0 1 1.125 2.715c0 1.059-.43 2.019-1.125 2.715a3.83 3.83 0 0 1-2.715 1.125 3.83 3.83 0 0 1-2.715-1.125 3.83 3.83 0 0 1-1.125-2.715c0-1.059.43-2.019 1.125-2.715a3.83 3.83 0 0 1 2.715-1.125c1.059 0 2.019.43 2.715 1.125"/></g><path fill="#fff" stroke="#5e154d" stroke-linecap="round" stroke-linejoin="round" stroke-width="1.44" d="M322.35 91.92H.72v-9.39h321.63z" data-paper-data="{&quot;index&quot;:null}"/><g data-paper-data="{&quot;index&quot;:null}"><path fill="#5e154d" stroke="#5e154d" stroke-linecap="round" stroke-linejoin="round" stroke-width="1.08" d="M322.35 82.53h-3.96V14.7h3.96z"/><path stroke="#fc9fe4" stroke-linecap="butt" stroke-linejoin="round" stroke-width="1.44" d="M318.39 16.77h-175.8M318.39 33.51h-175.8M142.59 50.25h175.8M318.39 66.99h-175.8"/><path fill="#da53d6" d="M14.82.72h303.57v81.81H5.37V11.91C5.37 3.78 9.06.72 14.82.72"/><path stroke="#fc9fe4" stroke-linecap="butt" stroke-linejoin="round" stroke-width="1.44" d="M5.37 16.77h313.02M318.39 33.51H5.37M318.39 50.25H5.37M318.39 66.99H5.37"/><path stroke="#5e154d" stroke-linecap="round" stroke-linejoin="round" stroke-width="1.44" d="M5.37 11.91C5.37 3.72 9.06.72 14.82.72h303.57v81.81H5.37z"/><path stroke="#fff" stroke-linecap="round" stroke-linejoin="round" stroke-width="1.8" d="M10.08 12.72v-2.34a4.86 4.86 0 0 1 5.58-5.34h3.21M23.19 5.04h24.18"/></g><g data-paper-data="{&quot;index&quot;:null}"><path fill="#25b0b7" d="m399.06 65.46-20.31-11.4-.93-4.38 22.2 12.36c4.47 2.49 4.47 4.65 4.47 9.99v30.45h-3.21V71.64c0-2.67-.06-4.95-2.22-6.18"/><path fill="#43c3d7" d="M362.85 10.11c4.35 0 6.24 1.17 7.23 5.73.21 1.08.72 3.24 1.35 6h-3.72a2.28 2.28 0 0 0-2.25 2.28v21.33a2.28 2.28 0 0 0 2.25 2.25h9.63l.48 2.01.93 4.38 20.31 11.4c2.16 1.23 2.22 3.51 2.22 6.18v30.81h-16.89a18.66 18.66 0 1 0-37.29 0h-24.87V10.11z"/><path stroke="#5e154d" stroke-linecap="round" stroke-linejoin="round" stroke-width="1.44" d="M394.02 91.95h-6v-3.33h6z"/><path stroke="#009cc6" stroke-linecap="round" stroke-linejoin="round" stroke-width="1.08" d="M330.06 16.77h27.78a2.61 2.61 0 0 1 2.58 2.61v59.7a21 21 0 0 0-17.19 16.71h-13.05a2.61 2.61 0 0 1-1.846-.764 2.61 2.61 0 0 1-.764-1.846v-73.8a2.61 2.61 0 0 1 2.49-2.61"/><path stroke="#009cc6" stroke-linecap="round" stroke-linejoin="round" stroke-width="1.08" d="M356.28 62.43h-3.48v-6.45h3.48zM341.1 57.09h-9.36v-3.54h9.36z"/><path fill="#f7c1d8" d="M331.71 21.81h2.85l9.06 25.89h-11.91zM356.16 21.81V47.7h-3.66l-9.03-25.89z"/><path fill="#ffeef6" d="m343.47 21.81 9.03 25.89h-4.53l-9.06-25.89z"/><path fill="#f7c1d8" d="M367.71 21.81h3.72c1.8 8.01 4.8 21 6 25.86h-3.42l-8.43-24a2.31 2.31 0 0 1 2.13-1.86M371.4 47.67h-3.69a2.28 2.28 0 0 1-2.25-2.25V30.06z"/><path fill="#ffeef6" d="M365.46 24.09a2.6 2.6 0 0 1 0-.48l8.43 24h-2.52l-6-17.61z"/><path fill="#f7c1d8" d="m338.91 21.81 9.06 25.89h-2.37l-9.03-25.89z"/><path fill="#ffeef6" d="m336.57 21.81 9.03 25.89h-1.98l-9.06-25.89z"/><path fill="#43c3d7" stroke="#5e154d" stroke-linecap="round" stroke-linejoin="round" stroke-width="1.08" d="M377.04 15.93c1.26 0 1.56 1.29 2.28 3.72.99 3.33 2.67 9.72 2.67 9.72h-4.65l-3.3-13.44z"/><path fill="#43c3d7" stroke="#5e154d" stroke-linecap="round" stroke-linejoin="round" stroke-width="1.08" d="m374.07 15.93.84 3.48h-4.05l-.78-3.48z"/><path stroke="#5e154d" stroke-linecap="round" stroke-linejoin="round" stroke-width="1.08" d="M356.16 47.67h-24.45V21.81h24.45z"/><path stroke="#5e154d" stroke-linecap="butt" stroke-linejoin="round" stroke-width="1.44" d="M362.85 10.11c4.35 0 6.24 1.17 7.23 5.73.21 1.08.72 3.24 1.35 6 1.8 8.01 4.8 21 6 25.86l.48 2.01 22.11 12.33c4.47 2.49 4.47 4.65 4.47 9.99v30.45h-20.1a18.66 18.66 0 1 0-37.29 0h-24.87V10.11z"/><path stroke="#5e154d" stroke-linecap="round" stroke-linejoin="round" stroke-width="1.44" d="M362.85 10.11c4.35 0 6.24 1.17 7.23 5.73.21 1.08.72 3.24 1.35 6 1.8 8.01 4.8 21 6 25.86l.48 2.01 22.11 12.33c4.47 2.49 4.47 4.65 4.47 9.99v30.45h-20.1a18.66 18.66 0 1 0-37.29 0h-24.87V10.11z"/><path stroke="#5e154d" stroke-linecap="round" stroke-linejoin="round" stroke-width="1.08" d="M365.49 23.61a2.31 2.31 0 0 1 2.22-1.8h3.72c1.8 8.01 4.8 21 6 25.86h-9.63a2.28 2.28 0 0 1-2.25-2.25V24.09a2.6 2.6 0 0 1-.06-.48"/><path fill="#00828c" stroke="#5e154d" stroke-linecap="round" stroke-linejoin="round" stroke-width="1.08" d="M406.71 94.41v2.76h-13.23l-.6-2.76zM406.71 99.63h-12.72l-.51-2.46h13.23zM392.37 91.92h14.34v2.49h-13.83z"/><path fill="#fdbb38" d="M404.49 76.68h2.22c1.74 0 2.49 2.58 2.82 5.13h-5.04z"/><path fill="#fff" d="M409.53 81.81c.182 1.704.242 3.418.18 5.13h-5.22v-5.13z"/><path stroke="#5e154d" stroke-linecap="round" stroke-linejoin="round" stroke-width="1.44" d="M406.71 76.68c1.74 0 2.49 2.58 2.82 5.13.182 1.704.242 3.418.18 5.13h-5.22V76.68z"/></g><g data-paper-data="{&quot;index&quot;:null}"><path fill="#f7c1d8" d="M99.75 90.48c6.627 0 12 5.373 12 12s-5.373 12-12 12-12-5.373-12-12 5.373-12 12-12"/><path fill="#5e154d" stroke="#5e154d" stroke-linecap="round" stroke-linejoin="round" stroke-width="1.44" d="M99.75 87.57c8.284 0 15 6.716 15 15s-6.716 15-15 15-15-6.716-15-15 6.716-15 15-15m0 22.38a7.5 7.5 0 1 0-7.47-7.47 7.467 7.467 0 0 0 7.47 7.56z"/><path fill="#fff" stroke="#da53d6" stroke-linecap="round" stroke-linejoin="round" stroke-width="1.08" d="M102.465 99.765a3.83 3.83 0 0 1 1.125 2.715c0 1.059-.43 2.019-1.125 2.715a3.83 3.83 0 0 1-2.715 1.125 3.83 3.83 0 0 1-2.715-1.125 3.83 3.83 0 0 1-1.125-2.715c0-1.059.43-2.019 1.125-2.715a3.83 3.83 0 0 1 2.715-1.125c1.059 0 2.019.43 2.715 1.125"/></g><g data-paper-data="{&quot;index&quot;:null}"><path fill="#f7c1d8" d="M56.61 90.48c6.627 0 12 5.373 12 12s-5.373 12-12 12-12-5.373-12-12 5.373-12 12-12"/><path fill="#5e154d" stroke="#5e154d" stroke-linecap="round" stroke-linejoin="round" stroke-width="1.44" d="M56.61 87.57c8.284 0 15 6.716 15 15s-6.716 15-15 15-15-6.716-15-15 6.716-15 15-15m0 22.38a7.5 7.5 0 1 0-7.38-7.47 7.47 7.47 0 0 0 7.38 7.56z"/><path fill="#fff" stroke="#da53d6" stroke-linecap="round" stroke-linejoin="round" stroke-width="1.08" d="M59.325 99.765a3.83 3.83 0 0 1 1.125 2.715c0 1.059-.43 2.019-1.125 2.715a3.83 3.83 0 0 1-2.715 1.125 3.83 3.83 0 0 1-2.715-1.125 3.83 3.83 0 0 1-1.125-2.715c0-1.059.43-2.019 1.125-2.715a3.83 3.83 0 0 1 2.715-1.125c1.059 0 2.019.43 2.715 1.125"/></g></g></svg>