<svg xmlns="http://www.w3.org/2000/svg" width="226.916" height="99.872" viewBox="-0.5 -0.1 226.916 99.872"><g fill="#c8c8be"><path d="M107.131 80.989c-.222.066-15.724 14.82-17.942 18.186-.665.363-3.498-.387-4.178-.666 0-.069-.027-.138-.045-.234.509-.21 1.043.033 1.57-.09.747-2.004 7.554-23.4 14.058-25.017-.006.012 6.537 7.821 6.537 7.821"/><path d="M87.618 98.29s-2.673-1.269-2.91-1.416v-.237c.468-.108 2.485.333 2.946.372q.016.641-.036 1.281M88.365 97.204s-2.668-1.284-2.902-1.431v-.237c.471-.105 2.602.645 3.061.687q-.025.5-.159.981"/></g><g fill="#c8c8be"><path d="M119.435 80.989c.222.066 15.721 14.82 17.942 18.186.663.363 3.495-.387 4.176-.666.015-.069.027-.138.048-.234-.51-.21-1.046.033-1.574-.09-.746-2.004-7.553-23.4-14.057-25.017.006.012-6.535 7.821-6.535 7.821"/><path d="M138.406 98.683s2.697-1.23 2.931-1.374v-.234c-.468-.114-2.494.3-2.952.327q-.025.641.021 1.281"/><path d="M138.205 97.687s2.607-1.404 2.835-1.563v-.237c-.464-.087-2.563.762-3.03.813q.045.504.195.987"/></g><path fill="#64645a" d="m181.939 23.149 2.398 14.922c.434-.171 1.771-.708 2.212-.873 3.297-1.245 17.591-3.564 26.889-7.602 8.309-3.6 11.861-9.024 12.445-9.3a.5.5 0 0 0 .033-.18c-.048-.162-14.822 1.611-19.036 1.89-11.618.783-21.779 1.047-24.941 1.143"/><path fill="#3c3c32" d="M140.875 42.274c-1.768.987-3.543 1.977-5.245 2.916l-16.207 5.763 9.313 33.993c1.499.336 8.569-9.786 9.241-10.893s6.27-7.8 12.954-13.845c-.836-1.857-9.237-15.678-10.056-17.934"/><path fill="#828278" d="M184.337 23.2c-1.052.036-1.763.066-2.044.066.554.999-24.321 8.874-25.064 9.87-.534.201-19.147 11.133-19.147 11.133s12.226 14.559 12.858 15.942c.75-.675 1.754-1.56 2.524-2.208 5.905-4.971 16.33-13.971 30.873-19.929z"/><path fill="#c8c8be" d="M190.838 23.539c-1.1-.333-2.341-1.008-3.462-1.272-2.077-.486-4.238-.375-6.351-.099-3.87.504-7.577 1.8-11.162 3.327-7.62 3.234-30.133 17.475-37.293 19.674-5.276 1.617-10.932 1.851-13.659 1.878v5.226c2.038.399 12.697-1.995 14.213-2.529 9.067-3.198 15.392-8.901 19.846-11.784a100 100 0 0 1 12.556-6.858c2.754-1.272 8.884-4.296 13.97-5.337 2.458-.504 5.941.264 6.265.375.917.3 1.84 1.236 2.751 1.086s-2.149-1.872-1.747-2.367c.099-.123.989-.051 1.435.189 1.34.72 3.226 2.574 4.098 2.217.755-.3-2.875-2.64-2.38-3 .494-.36 2.916 1.644 3.651 1.296s-1.988-1.794-2.731-2.022"/><path fill="#64645a" d="M48.857 23.533c-3.138-.111-18.428-.801-29.104.267C14.112 24.364.192 21.7 0 22.3c0 .057 9.427 8.76 16.111 9.348 8.788.774 17.666 3.192 23.919 5.55a95 95 0 0 1 3.65 1.476z"/><path fill="#3c3c32" d="M107.149 50.953 90.943 45.19c-2.998-1.656-14.93-7.92-14.93-7.92s-1.772 15.405-4.439 19.431L73.117 58c5.875 4.947 20.736 23.601 20.736 23.601l14.165-11.055z"/><path fill="#828278" d="M69.35 33.133c-.744-.996-25.619-8.871-25.061-9.87h-.6v15.426c12.628 5.445 22.019 13.086 27.894 18.027a167 167 0 0 0 9.87-16.8c-6.312-3.576-11.66-6.618-12.103-6.783"/><path fill="#c8c8be" d="M107.533 47.233c-3.684-.21-9.163-.726-13.524-2.064-7.158-2.199-29.674-16.44-37.293-19.674-3.597-1.521-7.293-2.823-11.159-3.327-2.113-.276-4.275-.387-6.352.099-1.121.264-2.362.939-3.462 1.272-.746.228-3.465 1.68-2.733 2.028s3.156-1.65 3.651-1.296-3.133 2.682-2.377 3c.869.357 2.754-1.5 4.097-2.217.447-.24 1.334-.3 1.436-.189.398.495-2.662 2.217-1.751 2.367.912.15 1.838-.771 2.752-1.086.327-.111 3.807-.879 6.264-.375 5.096 1.041 11.219 4.065 13.974 5.337a100 100 0 0 1 12.556 6.858c4.451 2.883 8.623 6.24 13.395 8.613 1.064.528 5.995 3.3 11.168 4.698a41.5 41.5 0 0 0 9.358 1.347z"/><path d="m110.626 22.948-3.834-5.118s-6.597 12.57-9.378 12.87l11.09-.6z"/><path fill="#f01446" d="M101.88 22.174c-1.936-.807 3.258 3.435 5.995 4.647s-4.059-3.84-5.995-4.647"/><path fill="#64645a" d="M109.145 29.041c-4.529-.222-4.379-.243-27.162 0 0 0 .381.876 3.313 1.5 6.327 1.344 17.93 2.973 24.338 2.955z"/><path fill="#828278" d="M125.553 37.132C121.476 32.248 98.49 2.743 95.241.4a1.27 1.27 0 0 0-.717.633c-.045.3 0 1.476.153 1.722 2.206 3.645 14.726 18.498 14.127 20.484-.366 1.236-1.499 3.9-3.204 5.628-.522.534 4.007 8.763 3.836 9.453-.129.528-15.586 43.281-15.586 43.281s6.294 6.501 7.406 7.239a23.56 23.56 0 0 0 13.875 4.038c4.931-.084 10.88-3.324 14.498-6.798 1.748-1.677 3.264-5.028 3.264-5.028s-10.358-30.699-12.319-40.404c-.177-.876-.899-3.018 1.052-2.565 2.398.558 4.266 2.895 5.156 3.678 1.765 1.548 6.804 5.043 7.34 4.872.003 0-4.49-4.617-8.569-9.501"/><path d="m115.113 28.24-3.956-.033-.12.333s2.062 2.133 2.997 2.817c.3 0 .462-.186.405-.348s-2.449-2.319-2.449-2.319h3.105zM97.219 3.769c.257.05.468.232.554.48-.065.489-.323.6-.881.36a.66.66 0 0 1 .327-.84M95.774 1.993c.257.048.468.23.555.477-.063.492-.324.6-.881.363a.66.66 0 0 1 .326-.84"/></svg>