<svg xmlns="http://www.w3.org/2000/svg" xml:space="preserve" width="173.154" height="262.626" viewBox="-0.097 1.547 173.154 262.626"><title>Slice 1</title><g fill-rule="evenodd"><path fill="#624b59" d="m113.372 258.407-.094 1.066v4.2h12.787l-2.506-3.596-4.264-1.67z"/><path fill="#debb9b" d="M71.647 131.705s2.538.562 1.974 9.366-.376 12.55-.376 12.55-.658 2.436 2.82 5.527c3.48 3.09 12.506 13.862 18.242 29.2 0 0 4.982 11.261 5.264 13.603.282 2.341-.658 4.683 0 6.65.659 1.966 4.796 8.054 6.394 15.641 0 0 4.889 20.7 4.325 31.096 2.162.749 1.598 2.486 3.008 3.07 1.41.582 4.514.259 5.924 0 0 0 2.633-1.197.42-7.098-2.79-7.437-5.285-13.068-6.72-21.167-1.41-7.962-2.62-12.75-2.35-15.454.186-1.873.636-5.604.564-7.774-.126-3.794-3.103-5.433-6.205-13.394-3.103-7.96-7.71-26.787-8.274-30.533s-.47-7.774.564-11.52c1.034-3.747 3.949-16.11 3.479-24.914 0 0-12.838 12.55-12.338 7.212 1.303-13.872-15.412-3.225-16.715-2.061"/><path fill="#af7444" d="M119.395 258.407c-.258.017-1.755-.624-1.693-1.499.063-.874 1.066-2.685.502-4.059-.564-1.373-1.509-3.62-.504-4.058s2.697 3.871 2.729 5.557c.031 1.686-.094 3.997-1.035 4.059M112.306 257.803s3.699-1.748 3.135-3.247-1.321-4.308-1.539-5.37c-.217-1.061-.154-2.248-1.314-1.936s-2.35 1.531-2.35 1.531l.25 6.15s1.864 1.772 1.818 2.872M117.258 245.372s-5.638.277-6.14-.223-1.755-8.929-1.755-8.929-.251-2.31.564-2.373c.815-.062 4.44 2.256 4.442 2.381.025 1.616.932 1.518 2.889 9.144M113.278 232.14s-3.727.084-4.291-1.727c-.564-1.81 0-9.99 0-11.24 0-1.248.94-1.588 1.504-2.025s.891 4.477 1.706 8.66 1.081 6.332 1.081 6.332M107.795 228.353c.067.24.251-5.683 0-6.869-.25-1.186-.752-.499-1.44-.624-.691-.125 1.127 6.369 1.44 7.493M105.115 220.774c.126-.375 3.62-4.66 3.62-4.66s1.128-.375 1.004-1.561c-.127-1.186-.753-5.182-1.004-6.431-.251-1.25-.966-2.123-1.674-1.748-.707.374-1.774 1.498-2.714 1.124-.94-.375-1.567-1.187-2.256-.438-.69.75-1.333 2.704-1.709 3.141s2.101 3.165 2.916 5.85a35 35 0 0 0 1.817 4.723M110.491 206.286s-3.444-.6-4.293-1.91c-.847-1.312-.284-.945 1.221-1.773s1.587.724 2.33 1.841c.742 1.118.742 1.842.742 1.842M108.414 200.45s-3.815 2.677-6.385 2.74c-2.57.061-3.848-5.734-3.848-5.734l5.889-6.517s3.152 8.578 4.344 9.51M96.325 191.45c-.099-.366-.188-7.306.69-8.492s3.134-2.185 3.134-2.185 1.19 4.433 2.005 6.493-.815 4.808-2.193 5.62c-1.38.812-2.947 1.125-3.636-1.436M100.618 179.324s-4.481 1.636-5.798.075c-1.316-1.56-.124-2.372.252-2.872s3.962-2.616 4.087-2.804 1.46 5.226 1.46 5.6M94.894 189.523s1.054-6.066.365-7.315c-.69-1.248-2.32-1.997-2.82-4.183-.502-2.185-1.128-4.222-1.88-2.891-.753 1.33-1.085 2.38-1.085 2.38s5.646 10.55 5.42 12.009M98.645 172.51s-2.776 1.135-3.144 1.701c-.367.568-.931 1.629-1.683 1.379s-4.263-2.497-4.45-4.058c-.189-1.562 1.127-5.87 1.817-8.367s.564-3.622 2.069-4.309 2.255.313 2.695.937 2.115 11.064 2.696 12.717M96.264 157.65s-2.934-1.604-3.505-2.54c-.571-.937-1.763-2.905-1.888-3.856-.124-.952-.5-1.456 0-2.297.501-.84 5.955-2.59 6.833-3.151.877-.562 1.253-.25.501 1.873s-1.535 6.79-1.535 6.79zM85.802 171.256s1.183.026 1.433-1.16c.252-1.186-.313-3.559.816-6.431 1.128-2.873 3.76-5.308 3.384-6.307s-1.442-3.122-1.755-3.996-.464-1.124-1.078-1.062-2.557 3.184-3.623 3.247c-1.065.063-2.194-.062-2.633 1.249-.438 1.311-1.566 6.93-1.566 6.93s4.395 6.094 5.022 7.53M77.812 160.793c.126-.187 3.72-5.184 4.41-5.995.689-.812 1.003-1.89 1.065-2.507.062-.616-.69-1.056-2.068-3.333-1.38-2.278-1.191-3.028-2.131-2.902s-5.83 6.494-4.451 4.808-2.079 4.085-.387 6.145a43 43 0 0 0 3.562 3.784M83.29 143.558s-.88 5.678.812 5.4c1.692-.28 6.77-2.59 9.026-4.432 2.256-1.841 5.382-2.841 5.48-3.84s-.036-1.873 0-2.248c.036-.374.099-.937-.842-1.061-.94-.125-5.954-.812-5.954-.812s-1.191 0-1.818.437c-.627.438.063 2.623-1.88 3.684-1.944 1.062-3.385 1.25-3.949 1.624s-.822.872-.874 1.248M74.888 146.431s6.318-3.997 8.174-5.495 2.644-1.56 3.064-2.56.92-2.02.795-6.203c-.126-4.183-.943-3.576-1.633-3.825s-4.523-1.232-4.523-1.232-2.359 2.656-2.861 3.28c-.501.624-1.763 3.672-2.64 5.045-.877 1.374-.188 4.184-.376 5.807s-.52 4.632-.082 4.794"/><path fill="none" stroke="#533d37" stroke-width=".563" d="M71.72 131.705s2.539.562 1.975 9.366-.376 12.55-.376 12.55-.658 2.436 2.82 5.527c3.48 3.09 12.505 13.862 18.241 29.2 0 0 4.983 11.261 5.265 13.603.282 2.341-.658 4.683 0 6.65.658 1.966 4.795 8.054 6.393 15.641 0 0 4.89 20.7 4.325 31.096 2.163.749 1.599 2.486 3.009 3.07 1.41.582 4.513.259 5.923 0 0 0 2.633-1.197.42-7.098-2.789-7.437-5.285-13.068-6.72-21.167-1.41-7.962-2.62-12.75-2.35-15.454.187-1.873.637-5.604.565-7.774-.127-3.794-3.103-5.433-6.206-13.394-3.103-7.96-7.71-26.787-8.274-30.533s-.47-7.774.564-11.52c1.035-3.747 3.95-16.11 3.48-24.914"/><path fill="#debb9b" d="M24.378 142.57c.094 10.396 7.052 16.484 4.795 28.94-2.256 12.458-14.761 25.008-14.761 25.008s.282 16.86-3.761 34.093S.403 257.679.403 257.679c3.666 1.873 8.18.656 8.18.656-.847-1.78 1.88-11.895 1.88-11.895s8.744-29.597 11.095-37.184c2.35-7.586 2.35-9.928 18.052-31.47s11.94-35.216 11.94-35.216-3.76-4.59-13.069 4.87c-7.467 7.59-14.103-4.87-14.103-4.87"/><path fill="#af7444" d="m4.122 250.355 5.558-.77 1.566-6.954-4.485 1.133zM7.625 241.282c.094-.187 2.082-6.915 2.082-6.915s3.482-1.414 4.282-1.227-1.766 7.353-1.766 7.353zM15.292 230.143s-3.607-.469-4.504-.12l1.085-5.273 5.928-3.034zM12.396 221.713c-.05.107 3.755-2.622 4.695-3.043s2.022-4.778 2.022-4.778.705-2.856-.564-2.575c-1.27.28-2.68 1.459-2.538-.02.14-1.479.61-9.58.61-9.58s-1.802-1.858-2.084-1.765-1.32 19.982-2.14 21.761"/><path fill="#af7444" d="M21.338 209.969c-.14 0-3.87-.244-3.917-1.603-.048-1.358.282-7.118.282-7.258 0-.141-.142-1.733.846-2.06.987-.329 8.83-3.446 8.83-3.446s-2.911 5.005-3.475 6.644-2.566 7.723-2.566 7.723M14.412 196.518s4.795-.514 8.368-2.341c3.573-1.826 5.077-2.107 5.5-3.372s2.21-6.696 2.21-6.696.282-1.359-.94-.89c-1.223.468-6.153 1.858-6.153 1.858s-6.493 10.177-8.985 11.441M24.922 182.526c.282-.234 4.674-2.164 6.131-2.305 1.458-.14 1.787-.093 2.21-.89.423-.795.517-2.294 1.599-2.2 1.08.093 4.367 1.177 4.367 1.177s5.837-8.606 6.449-10.105c.127-.656-1.367-4.279-2.636-4.372-1.27-.094-4.09 2.013-5.36 2.762s-1.636.703-2.158.516-1.274-.89-1.697.656c-.423 1.545-.611 3.605-.611 3.605s-2.594 4.808-4.09 5.62c-1.991 1.08-4.204 5.536-4.204 5.536M29.54 168.715c-1.422.763 4.193-2.736 4.005-4.887-.188-2.152-1.55-3.744-1.55-3.744s-1.27-.89-1.035-1.78 3.479-4.917 3.479-4.917.893-.655.564-1.358c-.33-.702-8.274 1.552-8.274 1.552s1.783 5.359 2.43 8.204c.704 3.09.38 6.93.38 6.93"/><path fill="#af7444" d="M36.507 164.486s-1.74-4.402-2.068-5.947c-.33-1.545 0-2.482 1.034-3.231 1.034-.75 2.538-1.078 2.82-2.623s.706-3.418 2.022-3.84 4.184-2.2 4.748-1.78c.564.422.706 7.54.564 10.022-.14 2.483-1.55 4.168-4.842 5.713-3.291 1.546-3.15 2.717-4.278 1.686M47.234 165.113s-.5-1.377-.53-1.546c-.18-.994-.697-4.679.71-8.4 1.645-4.355 3.666-7.68 3.62-4.776-.048 2.903-.05 4.543-.479 5.84-1.627 4.933-3.324 8.77-3.82 7.505"/><path fill="#624b59" d="m2.377 258.724-1.034 4.2H13.19l-1.223-2.1s-2.35-.961-3.949-2.1-4.77.584-5.64 0"/><path fill="none" stroke="#533d37" stroke-width=".563" d="M24.378 142.57c.094 10.396 7.052 16.484 4.795 28.94-2.256 12.458-14.761 25.008-14.761 25.008s.282 16.86-3.761 34.093S.403 257.679.403 257.679c3.666 1.873 8.18.656 8.18.656-.847-1.78 1.88-11.895 1.88-11.895s8.744-29.597 11.095-37.184c2.35-7.586 2.35-9.928 18.052-31.47s11.94-35.216 11.94-35.216"/><path fill="#af7444" d="M22.872 137.293s2.43 33.156-8.726 39.338c0 0 12.599-7.868 10.536-32.251"/><path fill="none" stroke="#533d37" stroke-width=".563" d="M22.872 137.293s2.43 33.156-8.726 39.338c0 0 12.599-7.868 10.536-32.251"/><path fill="none" stroke="#533d37" stroke-width=".563" d="M10.097 173.095s.25 4.434 4.387 3.372"/><path fill="none" stroke="#533d37" stroke-width=".563" d="M8.568 175.57c.188.062 3.569 2.744 5.578 1.06"/><path fill="none" stroke="#533d37" stroke-width=".563" d="M8.568 177.942c.25 0 4.074 1.56 5.265-1.311"/><path fill="none" stroke="#533d37" stroke-width=".563" d="M11.077 179.41c.188-.125 2.508.686 3.197-2.78"/><path fill="#fadab9" d="M144.764 30.145s1.174 1.889 4.02 3.676c2.843 1.788 7.356 3.474 14.032 3.068 0 0 .814 2.934 2.883 3.62 2.068.688 4.952.75 6.581 0 .44-.249.35-.464-.376-3.933-.814-3.901-7.27-7.367-14.573-23.476 0 0-2.412-4.434-10.592-2.155-6.567 1.436-14.042 15.344-18.228 21.469-4.519 6.669-18.771 32.195-41.242 41.092 0 0-4.592 2.049-8.148 2.974-1.512.393-6.034.808-7.679 2.54-1.645 1.733-7.427 8.477-8.65 9.695-1.222 1.217-5.303 5.79-9.778 9.319-7.005 5.525-15.467 7.118-20.779 14.704-6.128 8.752-9.92 14.799-9.308 27.162.61 12.363 13.361 23.724 25.433 22.807 16.641-1.265 38.066-19.48 42.937-23.54 5.269-4.392 15.73-10.244 14.745-17.484-.752-5.526-1.532-10.415-1.955-12.804 0 0-1.1-3.68 3.976-9.862 0 0 10.688-13.174 18.147-27.536s14.652-31.743 16.595-35.614c0 0 2.796.725 6.12-1.958"/><path fill="#af7444" d="M36.474 159.908s-2.208-3.695-2.02-3.695 3.135-2.747 2.884-5.931 1.441-3.31 2.695-5.12 3.51-6.557 3.447-.563.002 15.236.002 15.236zM49.373 152.03s-1.692-9.242-1.504-9.304 7.334 1 7.334 1l-1.317 8.304z"/><path fill="#af7444" d="M50.502 155.09s4.513-.5 4.951-3.06c.439-2.56.564-6.18 1.818-5.682 1.253.5 4.325 1.686 4.325 1.686s3.385-1.686 4.388-2.685c1.002-.999.94 3.435 1.128 6.244.188 2.81-6.394 6.432-11.157 8.243-2.257.749-6.498-4.556-5.453-4.747"/><path fill="#af7444" d="M44.797 161.77c-.245-.05 0-14.923 0-14.923h1.88s2.01 11.351 4.851 13.061c2.84 1.71-4.663 2.3-6.73 1.863M35.207 147.66c-.162.114 0-7.056 0-7.056s.564-2.124-.439-2.748-3.134-.686-2.382-2.372.627-2.124 2.57-3.248 6.832-5.307 6.832-5.307.753-.312 2.069 3.372 3.167 3.747.831 6.307-7.726 9.803-9.481 11.052"/><path fill="#af7444" d="M33.485 149.561c.501-.187 0-8.492 0-8.492s.562-1.124-1.16-1.748c-1.724-.624-2.852-1.374-2.852-1.374v-8.991s-.25-.312-2.57 2.248-3.882 4.055-3.882 4.055-.885 10.731 4.156 16.223c.8.797 5.806-1.733 6.308-1.92"/><path fill="#af7444" d="M31.07 132.986c-.063-.188 0-8.929 0-8.929s-.564-1.436.815-3.372c1.378-1.936 5.515-8.242 5.515-8.242s.95-1.798.251 8.304c-.7 10.103-.25 6.744-.25 6.744s-.69 1.624-3.95 4.059c-3.258 2.435-2.381 1.435-2.381 1.435M39.783 123.557V111.07s-.555-.937 6.022-4.184 9.835-4.746 9.835-3.496v12.488s.064.687-2.757 2.06c-2.82 1.374-11.22 6.057-11.22 6.057s-1.88 1.499-1.88-.437M46.177 131.8c-.287-.252-2.122-3.373-.372-5.558s4.533-5.058 4.533-5.058.916-1.749 2.796 2.06 4.45 8.555 4.45 8.555 1.63 1.686 0 3.56c-1.63 1.873-3.197 4.931-3.197 4.931s-.188 1.5-3.26.938c-3.07-.562-5.322-1.249-5.322-1.249s-.873 0 0-1.249 2.049-3.933 2.049-3.933-.11-1.624-1.677-2.998"/><path fill="#af7444" d="m54.45 118.75 2.194-1.5.627-5.556s-.095-1.062 1.456-1.25c1.553-.187 4.374-.686 4.374-.686s1.315-.187 1.942 1.936 2.073 6.493 2.073 6.493 1.374 1.125-.945 2.873-3.95 2.934-3.95 2.934-1.283 1.311-1.236 2.06-.392 1.062-1.27 1.437-1.943 1.373-2.507 0-3.197-7.43-3.197-7.43-.362-.765.44-1.312M58.308 107.26c.016-.296-.285-4.31-.285-4.31s0-1.123 1.002-1.247c1.004-.125 2.132-.188 2.257-.937l1.191-7.118s-.062-.687 1.38-.937c1.44-.25 4.325-.999 4.325-.999s1.629-.436 1.316 1.499c-.314 1.935.04 10.303.04 10.303s.273 1.31-2.673 2.684-8.705 3.872-8.553 1.062"/><path fill="#af7444" d="M50.08 100.105c-.032.018.798 2.91 2.615 2.035 1.818-.874 6.833-2.685 6.833-2.685s.877-.436.94-2.372.257-6.203.257-6.203-6.796 7.014-10.645 9.225M47.242 101.778c-.313-.256.198 3.36-1.437 4.108-1.635.75-7.896 4.309-7.896 4.309s-2.065-.06-2.755-.805c-.689-.745 10.02-7.384 12.088-7.612M32.609 112.718s1.668 1.598 1.099 2.285c-.57.687-5.208 7.118-5.835 10.24-.627 3.123-1.003 4.093-1.944 3.701-.94-.391-1.934-.75-1.934-.75s1.814-7.922 8.614-15.476M58.308 142.04s-1.79-1.687-1.351-2.623 2.947-4.683 2.947-4.683.752-1.03.376-1.545c-.376-.516-1.38-1.602-.628-2.12.753-.519 2.32-2.043 2.32-2.043s1.003-.349 1.128-1.098-.627-1.998 1.566-3.06c2.195-1.061 3.197-1.623 3.197-1.623s.377.312 1.255 1.998 1.19 2.31.752 2.685c-.44.375-.815 3.247-.063 6.12.752 2.871.564 2.31.564 2.31s.126 1.06-1.63 2.497-5.892 5.994-5.892 5.994-1.176 1.65-2.124.357c-.948-1.294-2.417-3.167-2.417-3.167M69.54 154.887l-1.363-11.849s-.752-1.999 1.003-2.747c1.755-.749 6.707-2.248 6.707-2.248s2.069-.687 1.504 2.935c-.564 3.622-2.444 3.933-2.632 5.87-.188 1.935-.306 5.006-.306 5.006M67.52 110.195c-.112-.154-1.033-1.436 0-2.185 1.034-.75 2.977-1.75 3.165-2.686.188-.937-.25-4.183.69-4.183s7.145 13.237 8.65 15.173c1.504 1.935 2.005 2.31 1.252 3.122s-6.08 7.486-6.08 7.486-.439.18-1.065 0c-.627-.18-3.73-3.036-4.591-4.168s-.926-1.257-.486-1.882c.439-.624 3.575-3.62-1.535-10.677M74.329 97.332s-.805-1.187 0-1.624c.806-.436 4.128-3.746 4.128-3.746s-.188-6.807.69-7.118c.877-.312 4.324 3.184 4.324 3.184s4.513.25 4.764.25.502.313.627 1.499 1.129 6.816 1.129 6.816.814 1.113-1.819 2.3-9.402 5.245-9.402 5.245-.94.75-1.818-.562c-.877-1.311-2.623-6.244-2.623-6.244"/><path fill="#af7444" d="M61.777 89.78c.383.184 7.341-2.377 8.093-.628s1.253 5.058 1.253 5.058-.25 2.248 2.32 0a455 455 0 0 1 3.447-2.997s.188.124.314-2.998c.125-3.121.884-3.684.285-4.87s-4.356-3.131-7.742-2.44M78.708 106.51c.228-.136 5.83-3.309 5.83-3.309s1.002-.936 1.566 0c.564.937 1.129 3.31 3.385 3.747 2.257.437 3.447.435 3.886 1.591s.501 6.526.501 6.526.252 1.06-1.19 1.873-2.577 2.036-2.577 2.036-1.247.462-2.375-1.037-1.003-2.31-3.949-2.622-1.63 0-2.444-.687c-.816-.687-2.758-5.995-3.009-6.681-.251-.687-.778-.746.376-1.436M88.298 101.765c.177-.971 1.19-1.685 2.194-2.372 1.003-.687 2.005-1 1.692-2.436s-1.316-2.248-.5-2.685c.814-.437 5.64 1.81 6.58 2.623.94.812.627 1.112.94 3.21.314 2.098 1.38 1.951 1.881 2.68s.188.167-.564 1.29c-.752 1.125-.94 2.998-2.132 3.06-1.19.062-2.41-.748-4.496-.437-2.085.312-1.647.312-3.025-1.061-1.379-1.374-2.946-1.811-2.57-3.872M74.329 77.976s-1.576 1.498.806 1.248c2.381-.25 3.322-.757 4.952.028 1.63.784 3.259 4.865 3.698 5.572s.867 1.83 2.157.956c1.29-.873 3.108-2.185 4.487-2.56 1.379-.374 1.003.062 1.567-2.123s1.379-2.122.94-3.496-2.459-1.423-5.16-4.296M92.498 70.937l2.287 5.04s.095 1.561 1.975 1c1.88-.562 3.886-1.124 5.14-1.061 1.254.062 1.19.312.626-2.061s-1.826-8.104-1.826-8.104M91.244 88.59c-.118-.22-2.069-2.662 0-3.766s3.76-2.415 4.45-3.727c.69-1.31.627-1.373 1.63.688s2.758 4.933 2.821 5.932c.063.998-.126 1.935-1.818 2.684s-5.203 2.436-6.268 2.186c-1.066-.25-1.317.124-1.191-1.436s.98-1.421.376-2.56M106.287 77.098s-4.18-.808-6.132.316c-1.954 1.124-1.496 1.498 0 3.87 1.494 2.374 2.12 5.309 2.058 7.244s-.69 5.433 2.006 3.684 4.388-3.52 6.645-4.227c2.256-.706 4.073-.767 3.447-2.329s-5.203-4.371-6.268-6.432c-1.066-2.06-.31-1.927-1.756-2.126M114.175 90.88s-5.63 2.71-8.764 3.707c-3.135.997-3.7 1.078-3.636 2.005.063.927.25 3.237.25 3.237s2.07 1.312 4.425 1.378M117.583 85.934c.063-.187-.013-2.338-1.643-3.4s-4.952-1.623-4.2-3.185c.752-1.561 5.077-6.868 6.833-9.178 1.755-2.311 1.692-3.06 2.633-2.186.94.874 3.11 4.837 3.028 7.164M106.287 74.978s-1.88 1.312-2.13-.874c-.251-2.185-1.755-6.205-.565-6.474s4.263-1.206 5.391-2.268 3.322-4.433 3.949 0c.627 4.434.92 4.78 1.243 5.574.324.795.135 2.605-3.187 3.105s-3.273.601-4.7.937"/><path fill="#af7444" d="M115.627 67.63s-1.3-4.578-1.34-5.202c-.039-.625-.102-.375.15-1.312.25-.936 2.193-1.81 2.506-4.558.314-2.747.101-3.246.99-3.746.89-.5 4.588-2.622 5.842-3.184s2.32-.936 3.699 6.119c1.378 7.055.69 5.619 0 6.868s-1.818 4.809-2.82 4.371c-1.004-.437-2.571-2.436-4.263-1.749-1.693.688-3.385 3.727-4.074 3.06zM111.392 55.839s1.79 3.405 1.164 4.029-6.708 3.87-7.961 4.62-1.783.425-1.456-.692M133.427 56.677s-2.506-.244-2.756-2.18c-.25-1.935-2.257-6.992 0-7.68 2.256-.687 7.235-2.771 8.991-3.99M117.433 48.628c.327 0 6.01-1.374 6.804-4.184.793-2.81.12-4.79.416-6.05M126.534 47.067c-.57-.162-.063-1.186 0-2.872.062-1.686-.126-4.87 1.128-6.182 1.254-1.31 5.015-4.62 6.707-5.744s1.63-1.373 2.445-1.061c.814.311 1.691 3.683 2.193 5.12.502 1.436 1.066 1.386.44 2.067-.628.68-7.576 4.739-9.838 6.487-2.26 1.748-2.198 2.435-3.075 2.185M127.724 33.624c.188 0 2.633-1.73 4.701-2.917 2.069-1.186 2.633-1.31 3.135-3.371s2.13-3.31 1.065-4.121-1.9-.397-1.99-.264M137.816 27.274c.092-.164 1.755-2.123 1.442-4.87-.314-2.748-1.01-3.997.404-5.309 1.413-1.31 1.212-1.872 2.033.438.822 2.31 1.825 5.682 1.825 5.682s.815 1.436-1.065 2.373c-1.88.936-5.794 3.755-4.639 1.686M142.055 37.47c-.181-.125-2.617-2.764-2.393-6.386.222-3.623-.154-2.95.599-3.068.752-.118 2.357.757 3.435 1.443s-.176 1.293 1.14 2.832c1.316 1.54 2.463 2.706 2.463 2.706s-3.603.78-4.484.87c-.384.038-.76 1.603-.76 1.603M147.72 21.986c-.83-.766-2.383.331-2.32 1.904s.708 6.628 2.32 8.442 3.698 1.291 3.698 1.291-.063-3.29-.69-4.976-1.567-5.33-3.008-6.661M153.988 28.175s-2.758-1.088-2.57-2.712 1.191-.125 3.26 0 2.381.437 1.629 1.436-1.349 1.771-2.32 1.276M153.674 32.956c-1.415-1.702-2.381-3.559-.626-3.06s2.498-.373 3.63 1.187c1.133 1.56 2.647 2.123-.712 2.185-3.357.062-1.563.564-2.292-.312M158.02 36.015s-.898-1.873.607-2.06 2.256-.937 2.632.312 1.004 1.315.25 1.998c-.752.684-3.49-.25-3.49-.25M163.829 31.083s1.253.438 1.504 0c.251-.437-.063-1.492-1.504-3.369s-2.884-3.563-5.454-3.563-2.052.185-.43.56c1.622.377 1.668.502 3.054 2.625 1.388 2.123 2.266 3.311 2.83 3.747"/><path fill="#af7444" d="M161 32.737c.862.018 1.512.094 1.136-.78-.376-.875-1.504-3.123-2.632-4.621s-1.113-1.686-1.56-.562c-.445 1.124-1.26.239-.76 1.555.503 1.317 2.303 4.378 3.815 4.408M158.02 18.969s-3.23-.033-3.976-3.013c-.746-2.982.634-1.733.508-2.482-.125-.75.596-.999 1.019.562s1.44 3.184 2.374 3.621c.932.438 1.034 1 .074 1.312M150.165 18.969c.881-1.268 2.569-.562 2.883-1.374.313-.811.375-2.998-1.442-2.373s-2.194 1.312-2.445 2.56c-.25 1.25.44 1.998 1.004 1.187M146.529 15.112s-2.971 1.274-2.834 2.097c.139.823.699 3.259 1.704 2.759s1.48.124 1.9-1.562c.421-1.686 1.286-4.408-.77-3.294M147.844 13.662c-.84.387-.857-.367 1.265-.777 2.12-.41 4.69-.249 2.309.388-2.382.638-2.761.014-3.575.389M159.316 21.787c-1.314-.473-1.747-1.82-.623-1.32s3.893 2.499.623 1.32M162.826 35.828c-.448-.224-.062-1.21.314-2.135s1.88-2.673 1.065-.55-.753 2.996-1.38 2.685M104.65 104.68l-6.936 5.515s-1.832.676-1.58 2.524c.25 1.847.25 3.595.25 3.595s.376 1.06 1.755.436 2.006-1.249 2.382-.749 5.484 7.553 5.531 5.682c.047-1.873-1.983-13.144-1.983-13.144s.141-1.828.58-3.858M105.598 124.547l-4.27 1.195s-.744.438-.744 1.811v4.34s3.186-2.937 4.002-4.51c.814-1.572 1.012-2.836 1.012-2.836M99.205 123.807l1.379-.562s.674.187.744-.75c.07-.936-.43-1.873-2.123-2.997s-1.569-1.373-4.42 0c-2.851 1.374-3.478.748-3.666 1.685s.927 1.874-1.01 2.624c-1.936.75-2.438.936-2.75 1.56-.315.625-.565 2.66-.565 5.701s.138 3.23 1.447 2.792 4.512-.812 6.986-.438 3.657-.374 3.63-1.529-.404-6.463.348-8.086"/><path fill="#af7444" d="M81.623 122.308c1.206-1.528.595-4.87 1.911-4.246 1.316.625 2.633-.187 3.26 1.249s.451 1.748 1.447 2.31c.998.562 2.376.642.872 1.133-1.504.49-3.574 2.052-5.015 1.178s-3.508-.313-2.475-1.624M73.505 134.036s3.448-8.356 4.764-8.856c1.316-.499 3.76-.436 4.45-.311.69.124 1.693-.514 1.254 1.429-.439 1.942 0 8.374.69 9.435.689 1.061.877 1.582-.69 2.258-1.567.677-3.636 1.737-4.2 2.3s-.814-4.184-3.321-3.497-5.203-.896-2.947-2.758M83.569 145.393c0-.25-2.23-3.79-.6-4.415s3.449-.812 4.201-1.437c.752-.624.012-.815 1.071-2.25 1.06-1.434-1.021-2.058 1.868-1.683s4.752.705 4.91.705c.156 0-11.45 9.08-11.45 9.08M76.452 149.47s.438-4.621 2.13-5.994c1.693-1.374 2.202-.438 2.762.811s1.03 1.846 1.03 1.846l-5.922 4.394zM28.335 153.028s1.92-.973 4.24-1.391 3.59-1.043 1.857 1.954-1.737 3.815-1.737 3.815-3.784-2.852-4.36-4.378M155.57 11.424s-11.549-7.066-18.26 3.097c-6.287 9.522-10.686 16.873-12.657 19.383-15.94 20.297-23.155 30.989-35.665 35.329 3.196.5 3.058.98 3.51 1.704s18.513-10.806 32.366-32.865 18.029-30.53 30.707-26.648"/><path fill="none" stroke="#533d37" stroke-width=".563" d="M144.773 30.145s1.175 1.889 4.02 3.676 7.357 3.474 14.032 3.068c0 0 .816 2.934 2.884 3.62 2.069.688 4.952.75 6.582 0 .439-.249.348-.464-.376-3.933-.816-3.901-7.271-7.367-14.574-23.476 0 0-2.413-4.434-10.593-2.155-6.566 1.436-14.04 15.344-18.227 21.469-4.52 6.669-18.771 32.195-41.243 41.092 0 0-4.59 2.049-8.148 2.974-1.512.393-6.032.808-7.678 2.54-1.645 1.733-7.428 8.477-8.65 9.695s-5.304 5.79-9.778 9.319c-7.005 5.525-15.467 7.118-20.78 14.704-6.126 8.752-9.918 14.799-9.307 27.162s13.361 23.724 25.433 22.807c16.642-1.265 38.067-19.48 42.937-23.54 5.268-4.392 15.731-10.244 14.745-17.484-.752-5.526-1.532-10.415-1.955-12.804 0 0-1.1-3.68 3.977-9.862 0 0 10.687-13.174 18.146-27.536s14.651-31.743 16.594-35.614c0 0 2.798.725 6.12-1.958"/><path fill="none" stroke="#533d37" stroke-width=".563" d="M155.966 11.684s-12.164-8.95-21.029 6.275c0 0-8.196 13.384-14.265 21.584-6.15 8.312-20.966 27.068-31.685 29.69 0 0 3.029.504 3.77 1.703"/><path fill="#fadab9" d="M157.905 14.3c-.062-.882.261-8.593-.281-8.718-.737-.17-2.946 4.84-3.636 6.15"/><path fill="none" stroke="#533d37" stroke-width=".563" d="M157.905 14.324c-.062-.882.261-8.593-.281-8.718-.737-.169-2.946 4.84-3.636 6.15"/><path fill="#fadab9" d="M151.427 9.94c.062-.095.195-3.66-1.403-6.83l1.347.842.345-1.561.94.968 1.065-1.311s-.72 5.963 1.85 10.147"/><path fill="none" stroke="#533d37" stroke-width=".563" d="M151.41 9.94c.064-.095.196-3.66-1.402-6.83l1.347.842.345-1.561.94.968 1.065-1.311s-.72 5.963 1.85 10.147"/><path fill="#fadab9" d="M152.797 11.632s-4.419-4.152-3.008-9.585l-1.067 1.187-1.253-.625-.564.985-2.069-.548s5.014 4.777 2.946 9.304"/><path fill="none" stroke="#533d37" stroke-width=".563" d="M152.797 11.632s-4.419-4.152-3.008-9.585l-1.067 1.187-1.253-.625-.564.985-2.069-.548s5.014 4.777 2.946 9.304"/><path fill="#fadab9" d="M142.33 16.284s-1.003-12.239 0-12.676 4.763 9.43 4.763 9.43"/><path fill="none" stroke="#533d37" stroke-width=".563" d="M142.141 16.284s-1.002-12.239 0-12.676 4.764 9.43 4.764 9.43"/><path fill="#a67c9f" d="M144.084 15.927s-.85-4.675-.94-8.01c-.065-2.34 2.49 3.107 2.623 5.297s.26 2.355-1.683 2.713M157.185 22.154s-3.364 4.487-7.02-1.156c0 0 2.208-1.692 3.92-1.42 2.175.346 2.885 2.21 3.1 2.576M169.345 38.888s-1.594-.875-2.252-3.98c0 0 1.14.342 1.679 1.419.985 1.963.358 2.194.573 2.56"/><path fill="#1b110f" d="M154.974 23.89s-2.38-.377-2.177-2.61c.156-1.732 2.177-1.593 2.177-1.593l2.21 2.467z"/><path fill="none" stroke="#533d37" stroke-width=".5" d="M150.165 20.998s4.23-3.933 7.02 1.156c0 0-3.01 4.59-7.02-1.156ZM169.345 38.888s-2.132-1.343-2.256-4.06c0 0 2.6 1.188 2.256 4.06Z"/><path fill="#624b59" d="m66.005 259.473.658 4.2h11.189l-2.539-3.84-3.838-.601s-5.168-.302-5.564-.825c-.397-.523.094 1.066.094 1.066"/><path fill="#fadab9" d="M102.485 127.959s-15.137 42.334-18.71 57.414-2.163 20.135-2.163 22.385c0 2.716-2.561 6.264-3.666 9.366-1.862 5.226-2.116 6.228-3.527 17.28-2.241 17.57-.033 18.88-.986 20.559-1.41 2.482-.428 3.093-.565 4.12 0 0-5.923.844-6.957-.676s-1.808-1.378-1.41-2.32c1.128-1.967 4.512-16.39 5.923-25.757 1.41-9.366.756-18.451.756-23.509s3.428-8.462 5.167-26.038c1.661-16.787.68-14.758-3.933-24.587-1.303-2.777 4.431-17.648 4.431-17.648s3.404-5.237 4.494-2.751c1.723 3.934 2.101 3.316 6.414 2.716 2.142-.298 5.783-.3 5.783-3.794 0-3.675 8.95-6.76 8.95-6.76"/><path fill="#af7444" d="M64.783 255.46c.154-.188 3.666.159 4.795-1.527 1.128-1.686 1.068-3.372 2.226-4.121s1.701-5.99 1.701-5.99-2.693.343-4.305.744c-1.612.402-2.534 4.485-2.91 5.796s-1.507 5.098-1.507 5.098M73.615 242.181s-3.724-.47-4.977.154-.058-1.67.507-4.23c.564-2.561 1.062-5.09 2.66-5.651 1.597-.562 2.793.563 2.793.563s-.863 8.102-.983 9.164M74.404 228.894s-1.263.438-1.759-.624c-.497-1.062-.38-3.435 0-6.681s.757-4.683 1.76-6.119c1.002-1.436 1.504-2.374 2.005-1.749s.438 1.561.69 2.06c.25.5-1.755 5.12-1.944 6.932-.187 1.81-.752 6.181-.752 6.181M79.685 212.41s-7.027.218-7.757-2.03-1.053-4.391-.552-6.14c.502-1.748.96-1.572 2.213-2.258s6.143-2.685 6.519-2.872.251-.25.313 2.123c.063 2.373 1.688 5.631 1.123 7.317-.564 1.686-.794 3.298-1.859 3.86M72.415 199.46s6.126-1.162 7.13-2.348 2.005-.813 1.441-2.06c-.565-1.25-1.38-3.997-2.069-5.12-.689-1.125-.25-1.5-1.19-1.312s-2.387.068-2.94.61c-.554.54-.9 5.309-1.402 6.307-.898 1.79-.596 2.07-.97 3.924M82.036 192.725c-.126-.187-4.435-7.227-3.996-8.414s1.567-1.373 2.945-.998c1.38.374 3.104.78 3.104.78s-.969 3.06-1.031 4.481c-.063 1.42-1.023 4.151-1.023 4.151M77.119 178.88s2.489 3.31 4.557 3.06 3.085-.383 3.085-.383l.798-2.821s-1.42-5.538-4.47-6.85-2.109-.312-2.548 1.748c-.438 2.06-1.422 5.245-1.422 5.245M83.44 171.824c-.009-.005-4.147-2.248-4.397-3.122-.251-.875-.44-1.624 0-3.372.438-1.748 1.603-6.743 1.68-8.304.074-1.562.262-.938 1.578-1.937 1.317-.998 4.138-2.685 4.452-3.371.313-.687.124-1.437.752.936.626 2.373 2.82 2.186 1.754 4.06-1.065 1.872-3.51 7.804-3.573 9.74-.062 1.935-.943 6.113-2.246 5.37M96.955 143.748c-.188.062-6.63 2.35-8.008 2.974-1.38.625-2.759 1.936-1.317 3.248 1.442 1.311 2.82 2.185 2.947 3.372.125 1.186-.753 2.746-.126 2.872s1.97 1.204 2.972-2.105 3.532-10.361 3.532-10.361M73.236 155.93c-.306.066 3.579-3.435 4.51-3.996.93-.562 2.184-.813 1.87-2.248-.313-1.436-2.57-.562-3.384-2.81s-.17-2.31-.837-2.56c-.668-.25-2.642 6.313-2.642 7.75 0 3.601-.607 4.102.483 3.863M82.24 142.601c.006.25-.045 3.684 1.2 3.872s2.121.5 4.127-.75c2.007-1.249 1.834-1.123 3.8-1.748 1.967-.625 2.844-1.124 3.534-1.374s2.212.687 3.1-2.263c.446-1.479-1.721-1.483-3.978-.734-2.256.75-2.559 3.247-4.476 2.56s-.35-1.997-3.61-1.748-3.717 1.37-3.697 2.185"/><path fill="none" stroke="#533d37" stroke-width=".563" d="M75.86 140.948s-2.953 8.35-3.546 13.94c-.37 3.476 4.808 6.993 4.805 12.239-.005 7.095-.213 10.322-.772 13.656-2.915 17.421-5.167 20.98-5.167 26.038s.654 14.143-.756 23.509-4.796 23.79-5.924 25.757c-.398.942.376.8 1.41 2.32 1.035 1.52 6.958.677 6.958.677.137-1.028-.846-1.639.564-4.121.954-1.679-1.254-2.99.988-20.558 1.41-11.052 1.664-12.055 3.525-17.281 1.105-3.102 3.667-6.65 3.667-9.366 0-2.25-1.41-7.306 2.163-22.385s18.71-57.414 18.71-57.414"/><path fill="#624b59" d="M52.166 259.213s1.63 2.513 1.63 4.2h9.684l-1.41-3.372s-2.156-.974-4.247-1.883c-.442-.085-4.623.305-5.657 1.055"/><path fill="#fadab9" d="M25.653 148.223c14.208 31.188 7.74 57.494 8.022 59.274s-.094.936 2.726 4.308 6.206 11.989 6.206 11.989c6.272 16.765 8.542 35.778 8.542 35.778 2.243-1.03 8.1-1.31 7.347-1.78-.752-.467-1.41-2.34-1.41-2.34s-12.035-42.054-12.975-46.082.564-8.898.564-8.898 6.142-13.691 7.27-21.653c1.128-7.96-.911-24.628-.911-24.628s-1.815 8.005-8.457-1.635c-1.151-1.67-6.264 6.63-8.145 5.408-1.88-1.223-8.78-9.741-8.78-9.741"/><path fill="#af7444" d="M49.013 246.889c.047.22 2.966-1.21 3.153-2.52.188-1.312.805-3.343.805-3.343l-1.408-4.952s-2.281 1.489-2.97 2.425c-.69.937-.9 2.378-.9 2.378s1.132 5.138 1.32 6.012M45.345 232.035c.018.197 2.102-.03 2.675-.343.573-.311 1.638-2.332 1.638-2.332s-1.066-2.662-1.974-4.099c-.91-1.436-2.037-2.373-3.354-2.435-1.316-.062-1.613 1.266-1.613 1.266s2.502 6.632 2.628 7.943M40.546 219.03c.188 0 2.404-.824 2.53-1.511s2.132-2.06 2.257-2.248-.828-4.37-.828-4.37-1.805-.627-3.434.186-2.798 3.507-2.798 3.507zM35.636 210.9s1.424 0 1.8-.874 2.507-4.558 3.573-4.683 2.816.19 2.816.19.272-3.873.85-5.06-1.153-4.184-2.849-3.934c-1.694.25-2.76.811-4.265 2.435s-2.553 2.293-2.553 2.293-1.27 5.48-1.333 6.23 1.295 3.078 1.96 3.403M46.336 195.29s-4.701-.374-5.328-1.436c-.626-1.062.063-3.622 0-6.12-.062-2.497-.501-4.995.564-4.995 1.066 0 3.33.562 3.33.562s1.748.624 1.748-.562.94-6.244 2.194-8.242 1.999-.557 1.999-.557-1.686 15.48-4.507 21.35M35.636 195.914s3.116-1.435 3.116-2.622-.877-2.935-.5-6.244c.375-3.31 2.192-6.806.5-6.431-1.692.374-3.116.749-3.116.749s.925 12.264 0 14.548"/><path fill="#af7444" d="M35.145 178.489s4.547.879 6.051 1.191 2.735 1.248 2.966.25c.231-1 1.234-6.556 2.048-8.554.816-1.999 1.505-2.81.94-3.56-.563-.749-.953.624-1.605-1.561-.65-2.185-1.027-2.31-2.28-2.248-1.253.063-6.518 3.684-6.518 3.684s-.064.313-1.067-.187-1.199-.063-1.194 1.748c.004 1.811-.517 2.935-.517 2.935zM31.042 157.108l3.443 1.467s-1.062.562-.874 2.248c.189 1.685 2.374 2.435.874 3.933l-1.5 1.499s-2.946-7.867-1.943-9.147M37.56 165.568c-.12-.143-2.256-1.967-1.88-3.887s1.399-2.169 2.142-3.73c.742-1.562 1.088-2.873 2.92-3.56 1.834-.687 5.595 4.558 5.595 4.558s.564 1.437 0 2.373-3.684.75-5.415 2.06c-1.731 1.312-2.9 2.727-3.362 2.186"/><path fill="#af7444" d="M49.219 162.196s-2.506.227-2.381 1.799c.124 1.573 1.504 1.698 1.44 2.822-.06 1.124-.563 4.745-.563 4.745s.94 2.123 1.504 0 1.129-3.496 1.129-3.496.938-6.73-1.129-5.87"/><path fill="none" stroke="#533d37" stroke-width=".563" d="M50.843 152.556s2.23 17.848 1.102 25.81c-1.128 7.96-7.59 23.36-7.59 23.36s-1.184 3.617-.244 7.644 12.975 46.082 12.975 46.082.658 1.873 1.41 2.341c.753.468-5.104.75-7.347 1.78 0 0-2.27-19.014-8.542-35.779 0 0-3.385-8.617-6.206-11.989-2.82-3.371-2.444-2.528-2.726-4.308s6.708-29.132-9.291-61.058"/></g></svg>