<svg xmlns="http://www.w3.org/2000/svg" width="147.542" height="207.052" viewBox="-0.142 -0.175 147.542 207.052"><defs><radialGradient id="a" cx="75.89" cy="139.866" r="54.733" gradientUnits="userSpaceOnUse"><stop offset="0" stop-color="#995900"/><stop offset="1" stop-color="#663b00"/></radialGradient><radialGradient id="b" cx="47.661" cy="99.489" r="27.788" gradientUnits="userSpaceOnUse"><stop offset="0" stop-color="#062"/><stop offset="1" stop-color="#093"/></radialGradient><radialGradient id="c" cx="89.161" cy="14.549" r="58.914" gradientUnits="userSpaceOnUse"><stop offset="0" stop-color="#062"/><stop offset="1" stop-color="#093"/></radialGradient><radialGradient id="d" cx="104.115" cy="90.225" r="38.902" gradientUnits="userSpaceOnUse"><stop offset="0" stop-color="#062"/><stop offset="1" stop-color="#093"/></radialGradient><radialGradient id="e" cx="45.182" cy="83.725" r="39.304" gradientUnits="userSpaceOnUse"><stop offset="0" stop-color="#062"/><stop offset="1" stop-color="#093"/></radialGradient><radialGradient id="f" cx="69.615" cy="93.725" r="38.902" gradientUnits="userSpaceOnUse"><stop offset="0" stop-color="#062"/><stop offset="1" stop-color="#093"/></radialGradient><radialGradient id="g" cx="66.615" cy="65.725" r="38.902" gradientUnits="userSpaceOnUse"><stop offset="0" stop-color="#062"/><stop offset="1" stop-color="#093"/></radialGradient><radialGradient id="h" cx="100.615" cy="75.725" r="38.902" gradientUnits="userSpaceOnUse"><stop offset="0" stop-color="#062"/><stop offset="1" stop-color="#093"/></radialGradient><radialGradient id="i" cx="38.095" cy="63.725" r="38.922" gradientUnits="userSpaceOnUse"><stop offset="0" stop-color="#062"/><stop offset="1" stop-color="#093"/></radialGradient><radialGradient id="j" cx="38.565" cy="34.368" r="54.405" gradientUnits="userSpaceOnUse"><stop offset="0" stop-color="#062"/><stop offset="1" stop-color="#093"/></radialGradient><radialGradient id="k" cx="99.629" cy="39.878" r="49.164" gradientUnits="userSpaceOnUse"><stop offset="0" stop-color="#062"/><stop offset="1" stop-color="#093"/></radialGradient><radialGradient id="l" cx="115.722" cy="58.175" r="42.456" gradientUnits="userSpaceOnUse"><stop offset="0" stop-color="#062"/><stop offset="1" stop-color="#093"/></radialGradient><radialGradient id="m" cx="68.072" cy="44.675" r="42.456" gradientUnits="userSpaceOnUse"><stop offset="0" stop-color="#062"/><stop offset="1" stop-color="#093"/></radialGradient><radialGradient id="n" cx="94.154" cy="103.622" r="22.505" gradientUnits="userSpaceOnUse"><stop offset="0" stop-color="#062"/><stop offset="1" stop-color="#093"/></radialGradient><radialGradient id="o" cx="43.854" cy="16.355" r="24.517" gradientUnits="userSpaceOnUse"><stop offset="0" stop-color="#062"/><stop offset="1" stop-color="#093"/></radialGradient></defs><path fill="url(#a)" stroke="#995900" stroke-width="1.163" d="M61.273 71.268h28.361v135.008H61.273z"/><path fill="url(#b)" d="M45.257 94.028c6.16-.46 13.523.96 18.178 2.512s7.536 3.695 7.536 6.06-3.837 5.474-7.536 6.06c-3.308.515-6.335-2.685-9.606-2.38-1.65.136-.977 2.478-2.5 3.227-1.545 1.001-3.877 1.708-6.072 1.664-4.548-.093-8.756-.284-11.786-2.017-4.021-1.941-7.511-5.115-7.857-8.218-.115-1.417 3.549-1.42 5.357-2.143 4.575-1.817 8.888-4.364 14.286-4.765"/><path fill="url(#c)" d="M74.327.441c4.291-.369 3.325 5.686 8.02 6.14 6.776.64 14.176-5.662 19.688-3.658 9.039 3.298 10.96 11.426 17.061 16.093 4.807 3.631 15.387 6.381 15.387 10.465s-7.835 9.455-15.387 10.465c-6.753.891-12.934-4.636-19.613-4.108-3.367.234-1.993 4.28-5.104 5.572-3.153 1.73-7.915 2.95-12.396 2.874-9.287-.16-17.16-.8-24.063-3.483-5.68-2.208-9.077-5.837-9.844-9.535-1.52-7.321-3.708-15.601 1.459-22.204 4.726-5.016 15.79-7.846 24.792-8.62"/><path fill="url(#d)" d="M100.75 82.58c8.625-.645 18.932 1.344 25.449 3.516 6.517 2.173 10.551 5.173 10.551 8.483s-5.373 7.665-10.551 8.484c-4.631.722-8.869-3.758-13.449-3.33-2.309.19-1.367 3.469-3.5 4.517-2.162 1.402-5.427 2.391-8.5 2.33-6.368-.13-12.258-.399-16.5-2.824-5.63-2.719-10.516-7.162-11-11.506-.161-1.984 4.968-1.986 7.5-3 6.404-2.544 12.443-6.109 20-6.67"/><path fill="url(#e)" d="M42.25 76.08c8.625-.645 18.932 1.344 25.449 3.516C74.216 81.77 78.25 84.77 78.25 88.08s-5.373 7.665-10.551 8.484c-4.631.722-8.869-3.758-13.449-3.33-2.309.19-1.367 3.469-3.5 4.517-2.162 1.402-5.427 2.391-8.5 2.33-6.368-.13-11.351-1.214-16.5-2.824-4.442-1.41-10.98-1.854-11.75-4.765-.88-3.93 4.393-7.644 8.25-9.741 5.859-3.138 12.443-6.109 20-6.67"/><path fill="url(#f)" d="M66.25 86.08c8.625-.645 18.932 1.344 25.449 3.516 6.517 2.173 10.551 5.173 10.551 8.483s-5.373 7.665-10.551 8.484c-4.631.722-8.869-3.758-13.449-3.33-2.309.19-1.367 3.469-3.5 4.517-2.162 1.402-5.427 2.391-8.5 2.33-6.368-.13-12.258-.399-16.5-2.824-5.63-2.719-10.516-7.162-11-11.506-.161-1.984 4.968-1.986 7.5-3 6.404-2.544 12.443-6.109 20-6.67"/><path fill="url(#g)" d="M63.25 58.08c8.625-.645 18.932 1.344 25.449 3.516C95.216 63.77 99.25 66.77 99.25 70.08s-5.373 7.665-10.551 8.484c-4.631.722-8.869-3.758-13.449-3.33-2.309.19-1.367 3.469-3.5 4.517-2.162 1.402-5.427 2.391-8.5 2.33-6.368-.13-12.258-.399-16.5-2.824-5.63-2.719-10.516-7.162-11-11.506-.161-1.984 4.968-1.986 7.5-3 6.404-2.544 12.443-6.109 20-6.67"/><path fill="url(#h)" d="M97.25 68.08c8.625-.645 18.932 1.344 25.449 3.516 6.517 2.173 10.551 5.173 10.551 8.483s-5.373 7.665-10.551 8.484c-4.631.722-8.869-3.758-13.449-3.33-2.309.19-1.367 3.469-3.5 4.517-2.162 1.402-5.427 2.391-8.5 2.33-6.368-.13-12.258-.399-16.5-2.824-5.63-2.719-10.516-7.162-11-11.506-.161-1.984 4.968-1.986 7.5-3 6.404-2.544 12.443-6.109 20-6.67"/><path fill="url(#i)" d="M34.75 56.08c8.625-.645 18.932 1.344 25.449 3.516C66.716 61.77 70.75 64.77 70.75 68.08s-5.373 7.665-10.551 8.484c-4.631.722-8.869-3.758-13.449-3.33-2.309.19-1.367 3.469-3.5 4.517-2.162 1.402-5.48 2.231-8.5 2.33-2.791.066-5.469-.601-7.75-1.589-3.37-1.453-5.307-4.414-8-6.494-3.917-2.185-10.74-3.077-11.75-6.247-.585-1.813 4.968-1.986 7.5-3 6.404-2.544 12.443-6.109 20-6.67"/><path fill="url(#j)" d="M28.454 25.482c1.227-.102 1.67-.7 3.233-1.07 5.877-1.4 12.823-6.055 17.81-3.912 8.177 3.527 9.914 12.22 15.434 17.212 4.348 3.883 13.92 6.824 13.92 11.191s-7.089 10.112-13.92 11.192c-6.11.954-11.7-4.958-17.743-4.394-3.046.25-1.803 4.578-4.617 5.96-2.853 1.85-7.16 3.156-11.214 3.073-8.401-.17-15.523-.854-21.768-3.724C4.45 58.649-.687 54.674.684 50.812c2.158-5.988 12.94-8.275 15.831-13.829 1.517-2.901-7.453-6.033-5.013-8.474 3.16-3.16 11.23-1.718 16.952-3.027"/><path fill="url(#k)" d="M95.376 30.216c10.9-.815 23.926 1.7 32.161 4.444 8.237 2.746 13.335 6.537 13.335 10.721s-6.79 9.687-13.335 10.721c-5.852.914-11.208-4.75-16.996-4.208-2.918.24-1.728 4.384-4.423 5.709-2.733 1.771-6.859 3.022-10.742 2.944-8.048-.164-15.492-.503-20.853-3.569-7.115-3.435-13.29-9.05-13.901-14.54-.204-2.507 6.278-2.51 9.478-3.792 8.093-3.215 15.725-7.72 25.276-8.43"/><path fill="url(#l)" d="M105.55 46.738c2.943-.3 2.28 4.609 5.5 4.977 4.646.52 9.72-4.59 13.5-2.965 6.198 2.673 7.515 9.263 11.699 13.046 3.296 2.944 10.551 5.173 10.551 8.483s-5.373 7.665-10.551 8.484c-4.631.722-8.869-3.758-13.449-3.33-2.309.19-1.367 3.469-3.5 4.517-2.162 1.402-5.427 2.391-8.5 2.33-6.368-.13-11.766-.649-16.5-2.824-3.895-1.79-6.224-4.732-6.75-7.73-1.043-5.935-2.543-12.647 1-18 3.241-4.065 10.827-6.36 17-6.988"/><path fill="url(#m)" d="M57.9 33.238c2.943-.3 2.28 4.609 5.5 4.977 4.646.52 9.72-4.59 13.5-2.965 6.198 2.673 7.515 9.263 11.699 13.046C91.895 51.24 99.15 53.47 99.15 56.78s-5.373 7.665-10.551 8.484c-4.631.722-8.869-3.758-13.449-3.33-2.309.19-1.367 3.469-3.5 4.517-2.162 1.402-5.427 2.391-8.5 2.33-6.368-.13-11.766-.649-16.5-2.824-3.895-1.79-6.224-4.732-6.75-7.73-1.043-5.935-2.543-12.647 1-18 3.241-4.065 10.827-6.36 17-6.988"/><path fill="url(#n)" d="M94.457 100.01c3.74-.106 6.852.592 9.536 1.464 14.373 5.526 10.643 7.698 8.642 9.155-1.728.833-6.31-1.936-9.606-1.726-1.669.096-.813 2.48-2.5 2.342-3.536-.326-5.146-3.606-9.036-3.953-3.587-.298-6.52 2.568-10 2.178-3.483-.558-6.79-2.545-6.679-4.446.095-1.532 4.573-1.838 7.179-2.818 4.008-.708 8.08-2.067 12.464-2.196"/><path fill="url(#o)" d="M44.157 11.378c3.74-.146 6.852.815 9.536 2.017 14.373 7.613 10.643 10.606 8.642 12.614-1.728 1.148-6.31-2.667-9.606-2.379-1.669.132-.813 3.417-2.5 3.227-3.536-.45-5.146-4.968-9.036-5.445-3.587-.411-6.52 3.537-10 3-3.483-.769-6.79-3.506-6.679-6.126.095-2.11 4.573-2.532 7.179-3.883 4.008-.975 8.08-2.847 12.464-3.025"/></svg>