<svg xmlns="http://www.w3.org/2000/svg" width="207.49" height="85.327" viewBox="-0.218 -0.312 207.49 85.327"><path fill="#e2ddc9" d="M23.087 84.515H.282L20.08 37.181s25.144 4.713 25.478 4.356c.334-.356 10.024 13.161 10.024 13.161S28.183 76.431 17.741 80.931c0 0 2.506.584 5.346 3.584"/><path fill="#4d4f68" d="M19.532 84.515s-.141-1.969-.752-3.031c.799-.389 4.307 3.031 4.307 3.031z"/><path fill="none" stroke="#7593b1" stroke-width=".5" d="M23.087 84.515H.282L20.08 37.181s25.144 4.713 25.478 4.356c.334-.356 10.024 13.161 10.024 13.161S28.183 76.431 17.741 80.931c0 0 2.506.584 5.346 3.584Z"/><path fill="#e2ddc9" d="M107.04 84.515H85.321l7.434-17.334 21.762-3.5-11.403 17.918s2.673.5 3.926 2.916"/><path fill="#4d4f68" d="M102.909 84.515s-.236-3.123.81-2.825c2.35.669 3.321 2.825 3.321 2.825z"/><path fill="none" stroke="#7593b1" stroke-width=".5" d="M107.04 84.515H85.321l7.434-17.334 21.762-3.5-11.403 17.918s2.673.5 3.926 2.916Z"/><path fill="none" stroke="#7593b1" stroke-width=".5" d="M103.114 84.515s-.646-2.242.357-2.825zm-84.872-3.42s1.42 1.086 1.253 3.42z"/><path fill="#e2ddc9" d="m180.115 33.464-.228-3.592s-.222-.965.355-.656c.575.309 3.703 1.943 3.703 1.943s.289.134.303 1.051c.015.918.332 2.887.332 2.887"/><path fill="none" stroke="#7593b1" stroke-width=".5" d="m180.115 33.464-.228-3.592s-.222-.965.354-.656 3.704 1.943 3.704 1.943.288.134.303 1.051c.014.918.331 2.887.331 2.887"/><path fill="#4d4f68" d="m181.128 33.264-.346-1.74s-.257-1.154.423-.842 1.835.826 1.835.826.288.175.332.801c.043.627.301 1.822.301 1.822z"/><path fill="#fbf8ea" d="M30.062 15.973C31.482 14.515 51.531 3.515 62.181.765c10.651-2.75 33.805 5.099 47.169 7.271 20.675 3.359 26.807 3.261 29.892 4.604 1.542.758 5.89 5.375 10.902 8.5s8.151 4.313 12.53 6c12.029 4.313 13.721 3.625 18.608 5 2.815.93 11.903 4.938 11.903 4.938s5.764 5 12.661 7.155c0 0 1.498.314.684 1.97-.814 2.187-5.701 7.625-7.518 8.75 0 0-1.712-1.646-9.606.062-6.214 1.344-6.924 2.448-14.254 3.167s-65.188 9.458-70.66 10.5-8.019 1.75-9.272 1.792c-1.253.041-27.692-4.625-39.387-7.209s-29.446-8.416-33.456-14.583c0 0-1.587 3.583-2.953 3.637-1.169.046-3.02-3.804-3.061-5.595-.042-1.792-.126-2.709 1.796-7.584 1.921-4.875 8.771-20 11.903-23.167"/><path fill="#e0dac5" d="M190.533 54.744s-3.675-1.479 2.214-7.646c1.421-1.488 3.948-3.187 5.703-3.683 1.117-.315 3.173-1.274 4.235-.358 1.548 1.335 5.899.181 3.216 4.416-2.086 3.292-6.889 7.48-6.889 7.48s-1.921-1.522-8.479-.209"/><path d="M203.915 45.937c-.314-.438-.881-1.386-.035-1.49 1.194-.146 2.495.042 2.495.042s.67.656.231 1.547c-.438.89-1.401 2.385-1.401 2.385l.323-1.359s.203-.563-.36-.578c-.237-.007-.746.161-1.253-.547"/><path fill="none" stroke="#7593b1" stroke-width=".5" d="M190.533 51.265s.711.916 2.256.916 9.389-.132 9.389-.132"/><path fill="none" stroke="#7593b1" stroke-width=".5" d="M30.062 15.973C31.482 14.515 51.531 3.515 62.181.765c10.651-2.75 33.805 5.099 47.169 7.271 20.675 3.359 26.807 3.261 29.892 4.604 1.542.758 5.89 5.375 10.902 8.5s8.151 4.313 12.53 6c12.029 4.313 13.721 3.625 18.608 5 2.815.93 11.903 4.938 11.903 4.938s5.764 5 12.661 7.155c0 0 1.498.314.684 1.97-.814 2.187-5.701 7.625-7.518 8.75 0 0-1.712-1.646-9.606.062-6.214 1.344-6.924 2.448-14.254 3.167s-65.188 9.458-70.66 10.5-8.019 1.75-9.272 1.792c-1.253.041-27.692-4.625-39.387-7.209s-29.446-8.416-33.456-14.583c0 0-1.587 3.583-2.953 3.637-1.169.046-3.02-3.804-3.061-5.595-.042-1.792-.126-2.709 1.796-7.584 1.921-4.875 8.771-20 11.903-23.167Z"/><path fill="none" stroke="#7593b1" stroke-width=".5" d="M114.517 14.765c.125-.042 6.515-3.708 11.151-2.917s12.948 7.583 12.948 7.583"/><path fill="#4d6e8c" d="m186.858 40.807 4.552-1.375s.627 1.125.209 1.958c-.417.833-4.761-.583-4.761-.583"/><path d="M190.82 41.538s-.642-.195-.751-.914c-.109-.713.485-.934.485-.934l.856-.258s.331.348.328.979-.274 1.127-.274 1.127z"/><path fill="none" stroke="#000" stroke-width=".5" d="m186.858 40.807 4.552-1.375s.627 1.125.209 1.958c-.417.833-4.761-.583-4.761-.583Z"/><path fill="#fbf8ea" d="m172.934 40.054-1.003-5.916s-.166-.25.502-.875l3.383-3.167s.376-.375.835.25 2.924 3.833 2.924 3.833"/><path fill="none" stroke="#7593b1" stroke-width=".5" d="m172.934 40.054-1.003-5.916s-.166-.25.502-.875l3.383-3.167s.376-.375.835.25 2.924 3.833 2.924 3.833"/><path fill="#4d4f68" d="m174.048 39.108-.585-2.521s-.634-2.325.771-3.627c1.218-1.13 1.979-2.343 2.696-.685.558 1.289 1.225 2.133 1.225 2.133s.752.459-.971 1.891c-1.26 1.048-3.006 3.559-3.136 2.809"/><path fill="#fbf8ea" d="M107.04 39.432v23.166s15.955 11.667 23.557 21.917h22.638s-1.086-3.333-5.096-3.583c0 0-4.43-3.043-7.518-7l-5.59-14.394s.829-5.023 1.998-7.815"/><path fill="#4d4f68" d="M144.798 84.39s1.932-3.625 3.341-3.459c4.43.525 5.096 3.584 5.096 3.584z"/><path fill="none" stroke="#7593b1" stroke-width=".5" d="M107.04 39.432v23.166s15.955 11.667 23.557 21.917h22.638s-1.086-3.333-5.096-3.583c0 0-4.43-3.043-7.518-7l-5.59-14.394s.829-5.023 1.998-7.815"/><path fill="none" stroke="#7593b1" stroke-width=".5" d="M138.616 53.932s-2.221-.888-2.778 1.681M105.369 41.538c.251.416 1.671.977 1.671 5.477M144.798 84.515s.668-2.5 3.341-3.584"/><path fill="#fbf8ea" d="M60.929 30.28s18.043 15.068 16.79 26.402c-.417 3.666-13.783 22.666-13.783 22.666s6.265 2.333 8.855 5.167h-24.81l-26.815-37.5"/><path fill="#4d4f68" d="M66.024 84.515s.168-3.038 1.491-3.584c.474-.195 5.276 3.584 5.276 3.584z"/><path fill="none" stroke="#7593b1" stroke-width=".5" d="M60.929 30.28s18.043 15.068 16.79 26.402c-.417 3.666-13.783 22.666-13.783 22.666s6.265 2.333 8.855 5.167h-24.81l-26.815-37.5"/><path fill="none" stroke="#7593b1" stroke-width=".5" d="M66.024 84.515c.084-.25-.334-2 1.491-3.584"/></svg>