<svg xmlns="http://www.w3.org/2000/svg" width="136.884" height="101.605" viewBox="-0.787 -0.787 136.884 101.605"><path fill="none" stroke="#ffdb5d" stroke-width="1.575" d="M62.053 80.724v19.306M75.277 100.03c-3.261 0-3.261-3.173-6.523-3.173s-3.261 3.173-6.522 3.173c-3.263 0-3.263-3.173-6.526-3.173s-3.263 3.173-6.526 3.173"/><path fill="#fff4e3" d="M63.766 70.938V82.86c0 1.652-1.99 2.479-3.154 1.311L48.214 71.732z"/><path fill="none" stroke="#ffdb5d" stroke-width="1.575" d="M45.963 83.898h21.55c2.73 0 4.943 2.22 4.943 4.958s-2.213 4.959-4.943 4.959h-1.12"/><path fill="#fff4e3" d="M44.645 70.938V82.86c0 1.652 1.991 2.479 3.155 1.311l12.398-12.439z"/><path fill="#fff4e3" d="M104.784 27.153c0 27.07-21.873 49.015-48.855 49.015S7.074 54.223 7.074 27.153z"/><path fill="#fff4e3" d="m20.056 40.178 18.938-1.492c.243-1.635.371-3.307.371-5.01C39.365 15.078 24.338 0 5.799 0 3.92 0 2.079.163.283.461l10.876 10.911H.176l8.655 8.684H0zM121.831 26.271 93.087 58.967l-2.801-31.572s9.556-17.124 27.745-17.124z"/><path fill="#f3e4ce" d="M87.21 27.153c0 17.333-14.005 31.384-31.281 31.384-12.491 0-23.273-7.346-28.287-17.967h18.885L25.833 27.153z"/><path fill="#ce2235" d="M132.269 28.784c0 3.679-2.972 6.662-6.64 6.662s-6.639-2.983-6.639-6.662 2.972-6.661 6.639-6.661 6.64 2.983 6.64 6.661M130.688 9.45c.098-.44.125-.906.07-1.386-.211-1.825-1.667-3.33-3.48-3.586a4.1 4.1 0 0 0-4.238 2.19l.003-.066a4.11 4.11 0 0 0-4.103-4.116 4.09 4.09 0 0 0-3.607 2.164.926.926 0 0 1-1.211.41 4.1 4.1 0 0 0-1.686-.359c-2.167.006-4.012 1.797-4.087 3.97a4.11 4.11 0 0 0 3.8 4.247l1.272.003s.593 2.59 1.022 2.656c.347.054 8.532.827 11.602 1.115a4.1 4.1 0 0 0 4.329 2.381c1.796-.253 3.245-1.726 3.475-3.531a4.11 4.11 0 0 0-2.28-4.244 1.66 1.66 0 0 1-.881-1.848"/><path fill="#ce2235" d="M122.041 4.357s-.409-1.058.261-.112 1.449 1.259 2.398.705-.283 2.6-.283 2.6l-1.706.13-1.06-.697z"/><path fill="#ffdb5d" d="M135.309 23.313c-1.652-2.843-4.713-4.76-8.23-4.76s-6.577 1.917-8.229 4.76z"/><path fill="#e8441d" d="M127.821 19.368c0 5.009-4.048 9.069-9.04 9.069-4.993 0-9.04-4.06-9.04-9.069s4.047-9.07 9.04-9.07 9.04 4.061 9.04 9.07"/><path fill="#fff4e3" d="M122.888 19.368a4.114 4.114 0 0 1-4.107 4.121 4.114 4.114 0 0 1-4.107-4.121 4.114 4.114 0 0 1 4.107-4.121 4.114 4.114 0 0 1 4.107 4.121"/><path fill="#17242d" d="M121.461 19.368c0 1.486-1.2 2.689-2.68 2.689a2.683 2.683 0 0 1-2.68-2.689 2.683 2.683 0 0 1 2.68-2.689c1.48 0 2.68 1.203 2.68 2.689"/></svg>