<svg xmlns="http://www.w3.org/2000/svg" width="37.039" height="35.676" viewBox="0.55 0.4 37.039 35.676"><path fill="#faac18" stroke="#000" stroke-width="2.183" d="M19.07 34.984c9.5 0 17.427-6.565 17.427-16.063.001-9.5-7.928-17.43-17.427-17.43-9.5 0-17.428 7.929-17.428 17.43 0 9.499 7.927 16.063 17.428 16.063Z"/><g fill="#231f20"><path d="M10.914 28.377c-.11-.009-.082.409-.597.409s-.455-.371-.594-.359c-.28.024-.145 1.028.635 1.004.786-.024.778-1.037.556-1.054M17.482 30.107c-.14-.011-.104.511-.748.511s-.569-.465-.742-.449c-.35.03-.182 1.288.793 1.256.986-.03.974-1.297.697-1.318M24.305 28.246c-.14-.01-.104.512-.747.512-.645 0-.568-.466-.743-.45-.35.031-.182 1.288.793 1.257.986-.034.975-1.3.697-1.32M23.02 31.562c-.14-.01-.104.512-.747.512s-.57-.465-.743-.45c-.349.03-.182 1.288.795 1.257.984-.031.973-1.298.695-1.319M19.719 24.347c-.113-.009-.084.41-.599.41s-.455-.372-.594-.36c-.28.025-.144 1.03.635 1.006.788-.027.779-1.039.557-1.056M7.165 22.486c-.113-.008-.083.41-.599.41-.515 0-.455-.373-.594-.359-.28.024-.144 1.029.635 1.005.788-.027.779-1.04.558-1.056M14.126 25.28c-.111-.01-.082.41-.597.41s-.456-.373-.594-.36c-.28.025-.146 1.03.635 1.005.786-.026.777-1.04.556-1.055M8.375 18.706c-.1-.008-.075.358-.526.358-.45 0-.399-.324-.52-.315-.244.021-.126.9.557.88.69-.022.682-.908.489-.923M15.41 18.642c-.111-.01-.082.409-.597.409-.516 0-.456-.372-.594-.36-.28.025-.144 1.03.634 1.005.789-.025.78-1.04.558-1.055M12.124 12.979c-.098-.007-.073.356-.524.356-.45 0-.398-.324-.52-.314-.244.021-.127.9.556.88.69-.021.683-.908.488-.922M29.774 22.486c-.11-.008-.082.41-.597.41s-.455-.373-.593-.36c-.28.025-.145 1.03.634 1.006.787-.027.778-1.04.556-1.056M28.321 9.534c-.078-.006-.06.294-.43.294-.372 0-.328-.267-.428-.258-.199.017-.105.742.457.723.567-.018.561-.747.401-.759M33.706 20.606c-.116-.008-.086.423-.62.423-.533 0-.47-.383-.615-.37-.288.023-.15 1.064.656 1.038.819-.025.81-1.075.58-1.091M33.686 24.347c-.11-.009-.082.41-.597.41s-.456-.372-.593-.36c-.28.025-.146 1.03.634 1.006.786-.027.778-1.039.556-1.056M10.746 7.673c-.081-.006-.06.294-.431.294-.373 0-.328-.268-.427-.259-.201.017-.107.741.456.722.569-.017.562-.746.402-.757M33.5 16.586c-.075-.005-.056.283-.411.283s-.316-.256-.41-.247c-.193.017-.1.71.44.692.54-.017.535-.716.381-.728M21.418 7.673c-.081-.006-.06.294-.431.294-.373 0-.328-.268-.427-.259-.201.017-.107.741.456.722.569-.017.562-.746.402-.757M22.78 3.94c-.081-.006-.06.293-.433.293-.371 0-.327-.266-.427-.257-.2.016-.106.74.456.721.57-.017.563-.746.403-.757M29.112 27.448c-.112-.01-.083.409-.598.409-.516 0-.456-.372-.594-.358-.28.022-.145 1.027.634 1.003.789-.026.779-1.038.558-1.054M5.11 13.91c-.097-.008-.072.357-.523.357-.45 0-.398-.325-.52-.314-.244.02-.127.9.556.879.69-.022.682-.908.488-.922M23.659 13.697c-.1-.007-.075.357-.526.357-.449 0-.399-.324-.52-.314-.244.02-.127.9.557.88.69-.023.682-.91.489-.923M31.659 11.082c-.077-.006-.057.283-.413.283-.355 0-.314-.257-.409-.249-.193.017-.1.71.44.693.541-.017.535-.717.382-.727M25.442 23.92c-.112-.009-.083.41-.599.41-.515 0-.455-.371-.593-.359-.28.024-.145 1.029.634 1.004.788-.025.779-1.039.558-1.054M25.018 18.642c-.112-.01-.082.409-.598.409-.515 0-.456-.372-.594-.36-.279.025-.145 1.03.635 1.005.788-.025.778-1.04.557-1.055M28.926 15.656c-.075-.006-.055.283-.411.283-.355 0-.316-.257-.41-.248-.193.017-.1.711.44.693s.535-.717.381-.728M20.301 20.624c-.112-.01-.082.409-.598.409-.515 0-.455-.371-.592-.358-.281.023-.146 1.029.634 1.003.788-.025.778-1.037.556-1.054M17.905 13.697c-.098-.007-.073.357-.523.357s-.399-.324-.52-.314c-.244.02-.129.9.555.88.69-.023.681-.91.488-.923"/></g><path fill="#231f20" d="M16.808 6.489c-1.846.177-2.052-1.98-.205-2.157 1.847-.176 2.052 1.98.205 2.157"/></svg>