<svg xmlns="http://www.w3.org/2000/svg" width="77.283" height="152.382" viewBox="-0.055 -0.389 77.283 152.382"><path fill="#dcaa78" d="M68.244 131.829c-.73-12.104-4.358-49.225-5.943-55.255l-13.056-2.556c-.291 2.843 1.363 6.795 1.945 9.571a3892 3892 0 0 0 4.027 18.836 5912 5912 0 0 0 3.513 16.281c1.221 5.602 2.128 11.699 5.048 16.675.257-.872-.166-1.689.57-2.167 1.021.495 1.141 1.813 1.808 2.657.08-.698-.211-2.882.862-3.051.65.495.678 1.407 1.294 2.139a16.3 16.3 0 0 0-.068-3.13"/><path fill="#005a5a" d="M63.436 78.46c-.422-1.824-1.911-5.866-5.522-11.259-2.429-3.62-6.924-8.445-10.506-10.696l.685 21.921z"/><path fill="#281446" d="M54.949 77.813h9.707v5.41h-9.707z"/><path fill="#dcaa78" d="M19.146 77.841c-1.175-.501-6.068-.997-7.665-.783q-.143.223-.223.473c-.684 3.457-1.289 28.109-.981 34.302 2.23.197 8.801.073 8.801.073z"/><path fill="#008264" d="M21.987 53.251c-.839.484-4.66 3.473-7.17 9.125s-4.135 16.81-4.158 17.002c.246.079 14.687-.163 14.904-.141z"/><path fill="#281446" d="M8.344 77.813h9.707v5.41H8.344z"/><path fill="#005a5a" d="M38.67 84.715c.913 4.588 9.862 37.245 10.233 39.137l10.426-2.669c1.397-2.983 1.711-22.124 1.962-27.393z"/><path fill="#005a5a" d="M15.958 89.573c.724 3.778 1.711 32.652 2.39 32.652.285 0 14.162-.687 14.55-.788 1.711-6.897 7.05-31.881 8.145-38.743z"/><path fill="#005a5a" d="M25.244 93.159h23.151v7.758H25.244z"/><path fill="#dcaa78" d="M44.676 54.844c-5.789-2.86-13.626-6.547-19.775-3.299l15.537 15.678s6.753-9.643 7.21-10.319a12.5 12.5 0 0 0-2.972-2.06"/><path fill="#fff" d="M29.567 57.197s10.837 3.547 17.111.726l-1.369 9.374-12.206-.288z"/><path fill="#00a08c" d="M61.747 92.399c-1.021-8.737-1.779-13.263-4.203-19.867-2.282-6.226-5.054-11.462-10.136-15.994-2.544 1.943-8.629 7.161-8.629 7.161S27.805 53.003 25.027 51.145c-.782.04-2.664 1.774-3.04 2.106a76.7 76.7 0 0 0-4.768 15.571c-1.655 9.289-1.712 19.389-1.791 23.515z"/><path fill="#f01446" d="M45.88 118.487c.507 4.048 5.772 32.753 6 33.006.359-.169 7.055-.157 7.055-.157l-.211-1.064s-2.732-.169-3.131-.372c-1.215-1.238 5.287-30.642 5.476-31.256-.04-.112-15.189-.157-15.189-.157"/><path fill="#281446" d="M44.739 116.601c.405 2.342 1.175 7.51 1.198 7.606.022.095 15.154.23 15.154.23l1.004-7.881zM46.222 125.428c.171 1.615.336 3.23.485 4.846h13.586l.696-4.846z"/><path fill="#281446" d="M46.98 129.391c.12 1.604.217 3.219.274 4.846h12.275c.079-.465.348-3.718.433-4.846z"/><path fill="#f01446" d="M15.65 118.96c.068.292 8.881 30.963 8.881 30.963s-2.128.146-3.867.219v1.059l7.774-.062s2.241-12.386 2.789-15.487c.952-5.45 1.774-10.894 2.327-16.388z"/><path fill="#281446" d="m35.955 116.533-20.716.062c.485 2.342 1.409 7.51 1.438 7.606s15.086.208 17.795.225c.508-2.618.947-5.264 1.483-7.893M34.278 125.428H17.013q.309 2.417.571 4.846h16.181c.188-1.604.354-3.231.513-4.846"/><path fill="#281446" d="M33.383 129.391H17.931c.143 1.604.257 3.219.331 4.846h14.471q.35-2.406.65-4.846M13.42 90.553h49.16v5.534H13.42z"/><path fill="#005a5a" d="M18.644 89.612h4.91v7.572h-4.91zM26.784 89.612h4.909v7.572h-4.909zM48.041 89.612h4.91v7.572h-4.91zM56.705 89.612h4.91v7.572h-4.91z"/><path fill="#ffc800" d="M35.795 89.776h8.242v6.952h-8.242z"/><path fill="#642800" d="M22.089 116.494c-.781-1.357-15.468 1.987-15.468 1.987l8.795 21.066s12.126-6.992 12.24-7.082c.04-.732-5.241-15.408-5.567-15.971"/><path fill="#824600" d="m26.065 129.251-9.554 4.819 1.255 4.171 9.674-5.286zM24.491 123.88l-9.486 3.35-.336.872.975 1.858 9.953-3.913z"/><path fill="#a0640a" d="M29.339 129.966c-1.198-3.378-2.316-6.801-3.588-10.173-1.14-3.018-1.853-6.592-3.935-9.114-3.103.061-6.103.332-9.189.624-2.903.276-6.103-.039-8.869.929-2.852 4.504-3.422 11.22-3.297 16.416.086 4.301 1.067 13.511 5.379 15.96 1.465-.304 13.038-6.147 13.038-6.147s-3.947-15.904-.53-17.238a7.1 7.1 0 0 1 3.165.377c1.82 3.941 3.343 8.028 5.162 11.985l.81.304c.936-.287 1.506-.996 2.247-1.576 0-.798-.133-1.591-.393-2.347"/><path fill="#824600" d="m5.326 113.403-1.3 4.594 13.364-1.21.33-4.583z"/><path fill="#f00a78" d="M46.615 33.018c-2.555 5.562 1.386 12.717 7.107 14.637 7.677 2.612 13.758-2.984 15.183-8.54 1.478-5.759-2.201-10.252-7.061-12.386-5.971-2.606-12.2.777-15.229 6.289"/><path fill="#f04650" d="M59.295 34.819c-1.05 2.252.57 5.112 2.909 6.001 3.77 1.453 5.629-1.221 6.211-3.496s-1.055-4.075-3.04-4.954c-2.447-1.075-4.843.197-6.08 2.449"/><path fill="#f04650" d="M59.189 29.494a2.523 2.523 0 0 0 1.513 3.158c1.943.761 2.904-.639 3.206-1.834s-.544-2.154-1.573-2.61a2.414 2.414 0 0 0-3.146 1.286"/><path fill="#be8264" d="M43.393 17.959c1.392 1.976 4.951 13.072 4.951 13.072s5.584-1.357 1.808-8.304c-1.632-3.023-3.981-6.17-6.759-4.768"/><path fill="#dcaa78" d="M18.884 36.553c.724 1.194 7.546 14.136 20.533 8.799 12.081-4.971 10.74-14.986 8.556-20.503z"/><path fill="#a0640a" d="M30.799 31.734a17.3 17.3 0 0 1 1.751 7.217 27.3 27.3 0 0 1-1.283 8.22S19.745 45.91 17.578 36.013zM31.774 31.498l2.909 4.278 5.864-7.515z"/><path fill="#dcaa78" d="M33.098 39.931c2.737-.158 3.621-8.444-1.403-13.714-2.179-2.291-6.617 4.397-6.6 7.127.017 3.406 4.888 6.818 8.003 6.587"/><path d="M47.18 26.943c2.974 1.833 3.367 2.941 1.857 4.734-1.18.314-1.983-.078-2.659-.608-1.353-1.048-1.667-2.136-1.164-3.92z"/><path fill="#005a5a" d="M57.658 23.78s19.529-7.617 19.062-8.963c-.354-1.008-5.288.912-8.065 1.954-4.318 1.621-18.133 7.2-21.104 8.444.04.4 10.107-1.435 10.107-1.435"/><path fill="#00a08c" d="M20.316 2.252C13.294 5.326 6.21 13.703 4.722 22.147c-1.609 9.114 5.133 20.267 5.133 20.267l12.314-4.622z"/><path fill="#008264" d="M44.665 4.571c-7.113-3.209-15.28-5.303-22.684-2.972-.165.056-1.54.101-1.54.101-10.073 16.619 1.745 36.03 1.745 36.03l35.46-14.012S53.294 8.473 44.665 4.571"/><path fill="#281446" d="M18.935 4.444c.889.863 1.71.475 2.504 0a5.6 5.6 0 0 1 1.81-1.204c.216 0 .397-.476.586-.719.064-.871-.191-1.728-.673-2.261-2.389-.748-4.065 1.417-4.227 4.184"/></svg>