<svg xmlns="http://www.w3.org/2000/svg" width="102.976" height="175.11" viewBox="0 0 102.976 175.11"><g fill="none" fill-rule="none" stroke-linecap="none" stroke-linejoin="none" stroke-miterlimit="10" stroke-width="none" data-paper-data="{&quot;isPaintingLayer&quot;:true}" font-family="none" font-size="none" font-weight="none" style="mix-blend-mode:normal" text-anchor="none"><g data-paper-data="{&quot;index&quot;:null}"><path fill="#ffdb48" fill-rule="nonzero" stroke="#5e154d" stroke-linecap="round" stroke-linejoin="round" stroke-width="1.44" d="M82.05 144.84h4.29c3.3 0 6 3.63 6 8.1s-2.67 8.1-6 8.1h-4.29z"/><path fill="#ffdb48" fill-rule="nonzero" stroke="#5e154d" stroke-linecap="round" stroke-linejoin="round" stroke-width="1.44" d="M82.05 161.04c-3.297 0-5.97-3.626-5.97-8.1s2.673-8.1 5.97-8.1 5.97 3.626 5.97 8.1-2.673 8.1-5.97 8.1"/><path fill="#f05822" fill-rule="nonzero" stroke="#dd3627" stroke-linecap="round" stroke-linejoin="round" stroke-width=".72" d="M84.12 166.8H64.26v-3.96H86.1a21.2 21.2 0 0 1-1.98 3.96M84.12 139.08a21.2 21.2 0 0 1 1.98 3.96H64.26v-3.96z"/><path fill="#f05822" fill-rule="nonzero" stroke="#dd3627" stroke-linecap="round" stroke-linejoin="round" stroke-width=".72" d="M80.82 170.76H64.26v-3.96h19.86a18.7 18.7 0 0 1-3.3 3.96M72.24 174.39h-7.98v-3.63h16.56a12.9 12.9 0 0 1-8.58 3.63M87.27 158.88H64.26v-3.96h23.58a28 28 0 0 1-.57 3.96M86.1 162.84H64.26v-3.96h23.01a27.6 27.6 0 0 1-1.17 3.96M64.26 131.64h7.98a12.9 12.9 0 0 1 8.58 3.48H64.26zM87.9 152.94v1.98H64.32v-3.96h23.52c.03.66.06 1.32.06 1.98M64.26 135.12h16.56a18.7 18.7 0 0 1 3.3 3.96H64.26zM87.27 147H64.26v-3.96H86.1c.489 1.289.88 2.613 1.17 3.96"/><path fill="#f05822" fill-rule="nonzero" stroke="#dd3627" stroke-linecap="round" stroke-linejoin="round" stroke-width=".72" d="M87.84 150.96H64.26V147h23.01c.282 1.305.473 2.628.57 3.96"/><path fill="#ffbd39" fill-rule="nonzero" d="M64.26 174.24c-8.649 0-15.66-9.536-15.66-21.3s7.011-21.3 15.66-21.3 15.66 9.536 15.66 21.3-7.011 21.3-15.66 21.3"/><path fill="#e69724" fill-rule="nonzero" stroke="#e69724" stroke-linecap="butt" stroke-linejoin="miter" stroke-width="1.08" d="M64.26 165.15c-4.97 0-9-5.467-9-12.21s4.03-12.21 9-12.21 9 5.467 9 12.21-4.03 12.21-9 12.21z"/><path stroke="#dd3627" stroke-linecap="round" stroke-linejoin="round" stroke-width=".72" d="M64.26 158.31c-2.17 0-3.93-2.404-3.93-5.37s1.76-5.37 3.93-5.37 3.93 2.404 3.93 5.37-1.76 5.37-3.93 5.37"/><path stroke="#5e154d" stroke-linecap="round" stroke-linejoin="round" stroke-width="1.44" d="M64.26 131.64h7.98a12.9 12.9 0 0 1 8.58 3.48 18.7 18.7 0 0 1 3.3 3.96 21.2 21.2 0 0 1 1.98 3.96c.489 1.289.88 2.613 1.17 3.96.282 1.305.473 2.628.57 3.96v3.96a28 28 0 0 1-.57 3.96 27.6 27.6 0 0 1-1.17 3.96 21.2 21.2 0 0 1-1.98 3.96 18.7 18.7 0 0 1-3.3 3.96 12.9 12.9 0 0 1-8.58 3.63h-7.98c-8.64 0-15.66-9.54-15.66-21.3s7.02-21.45 15.66-21.45"/></g><g fill-rule="nonzero" stroke="#5e154d" data-paper-data="{&quot;index&quot;:null}"><path fill="#5e154d" stroke-linecap="round" stroke-linejoin="round" stroke-width="1.44" d="m66.48 51.12 3.36-2.16c3.9-2.55 9-.54 12.6 4.77l8.73 13.5 8.76 13.53c3.42 5.31 3 10.89-.81 13.44l-3.33 2.16z"/><path fill="#ffdb48" stroke-linecap="butt" stroke-linejoin="miter" stroke-width="1.44" d="M66.48 51.12c3.93-2.52 9.18-.51 12.6 4.77l8.7 13.5 8.7 13.53c3.45 5.31 3 10.92-.78 13.44s-9 .54-12.6-4.77l-8.76-13.5-8.73-13.53c-3.42-5.28-3.09-10.89.87-13.44z"/><path fill="#000" stroke-linecap="round" stroke-linejoin="round" stroke-width=".72" d="M70.41 60.3a3 3 0 1 1 0-6 3 3 0 0 1 0 6"/><path fill="#5e154d" stroke-linecap="round" stroke-linejoin="round" stroke-width=".72" d="M91.59 92.97a3 3 0 1 1 0-6 3 3 0 0 1 0 6"/></g><g data-paper-data="{&quot;index&quot;:null}"><path stroke="#5e154d" stroke-linecap="round" stroke-linejoin="round" stroke-width="1.44" d="M34.26 40.59v-7.23h24.06v7.23z"/><path fill="#5e154d" fill-rule="nonzero" stroke="#5e154d" stroke-linecap="round" stroke-linejoin="round" stroke-width="1.44" d="m86.43 7.32 3 .57a41.2 41.2 0 0 1 1.23 10.05 39 39 0 0 1-1.23 10.05l-3.24.57c.599-3.51.95-7.06 1.05-10.62a82 82 0 0 0-.81-10.62"/><path fill="#d2a6cc" fill-rule="nonzero" stroke="#5e154d" stroke-linecap="round" stroke-linejoin="round" stroke-width="1.44" d="M86.43 7.32c.53 3.517.83 7.064.9 10.62-.1 3.56-.451 7.11-1.05 10.62-6.63 1.05-13.2 1.38-13.2 1.38v-24s6.66.45 13.35 1.38"/><path fill="#5e154d" fill-rule="nonzero" stroke="#5e154d" stroke-linecap="round" stroke-linejoin="round" stroke-width="1.44" d="M5.4 17.94c.09 3.56.431 7.108 1.02 10.62l-3.24-.57a39 39 0 0 1-1.23-10.05A41.2 41.2 0 0 1 3.18 7.89l3-.57c-.49 3.52-.75 7.067-.78 10.62"/><path fill="#d2a6cc" fill-rule="nonzero" stroke="#5e154d" stroke-linecap="round" stroke-linejoin="round" stroke-width="1.44" d="M19.53 5.94v24s-6.6-.33-13.23-1.38a76 76 0 0 1-1.02-10.62c.07-3.556.37-7.103.9-10.62 6.66-.93 13.35-1.38 13.35-1.38"/><path fill="#9f509e" fill-rule="nonzero" stroke="#5e154d" stroke-linecap="round" stroke-linejoin="round" stroke-width="1.08" d="M16.44 2.28a288 288 0 0 1 30-1.74 287 287 0 0 1 30 1.74 56.25 56.25 0 0 1 0 31.29 287 287 0 0 1-30 1.74 288 288 0 0 1-30-1.74 57 57 0 0 1 0-31.29"/><path fill="#5e154d" fill-rule="nonzero" d="M72.9 5.13a42.33 42.33 0 0 1 0 25.59s-11.58 1.26-24.3 1.41V3.75c12.72.12 24.3 1.38 24.3 1.38M17.73 17.94a42.2 42.2 0 0 1 1.95-12.81s8.31-.9 18.57-1.26v28.11c-10.26-.36-18.57-1.26-18.57-1.26a42 42 0 0 1-1.95-12.78"/><path fill="#702061" fill-rule="nonzero" d="M46.29 3.72h2.19V32.1h-3.81V3.72z"/><path fill="#7f1d71" fill-rule="nonzero" d="M44.79 3.72v28.41h-2.64V3.78z"/><path fill="#702061" fill-rule="nonzero" d="M42.15 3.78V32.1h-3.9V3.87c1.23-.03 2.58-.09 3.9-.09"/></g><g stroke-linecap="butt" stroke-linejoin="miter" stroke-width="3" data-paper-data="{&quot;index&quot;:null}"><path fill="#d2a6cc" fill-rule="nonzero" stroke="#fff" d="M58.59 26.07a8.13 8.13 0 1 1 0-16.26 8.13 8.13 0 0 1 0 16.26z"/><path stroke="#dd3627" d="M58.59 22.17a4.23 4.23 0 1 1 0-8.46 4.23 4.23 0 0 1 0 8.46z"/><path fill="#d2a6cc" fill-rule="nonzero" stroke="#fff" d="M34.02 26.07a8.13 8.13 0 1 1 0-16.26 8.13 8.13 0 0 1 0 16.26z"/><path stroke="#dd3627" d="M34.02 22.17a4.23 4.23 0 1 1 0-8.46 4.23 4.23 0 0 1 0 8.46z"/></g><g data-paper-data="{&quot;index&quot;:null}"><path fill="#ffe578" fill-rule="nonzero" d="M43.41 101.04V40.56h4.05v60.48z"/><path fill="#ffdb48" fill-rule="nonzero" d="M47.46 101.04V40.56h31.05v60.48z"/><path fill="#ffe578" fill-rule="nonzero" d="M36.27 101.04V40.56h4.62v60.48z"/><path fill="#fff1b6" fill-rule="nonzero" d="M40.41 101.04V40.56h3v60.48z"/><path fill="#ffdb48" fill-rule="nonzero" d="M28.74 101.04V40.56h7.5v60.48z"/><path fill="#e69724" fill-rule="nonzero" d="m9.12 44.46 19.62-3.9v60.48L9.12 96.18zM28.74 101.04l9.33 17.01-19.62-4.47-9.33-17.4z"/><path fill="#e69724" fill-rule="nonzero" d="m18.42 113.55 19.65 4.5v34.89l-19.65-5.28z"/><path fill="#ffdb48" fill-rule="nonzero" d="m68.7 117.66-.03 34.92H51.51v-34.92z"/><path fill="#ffe578" fill-rule="nonzero" d="M47.46 152.58v-34.89h4.05v34.89z"/><path fill="#fff1b6" fill-rule="nonzero" d="M44.46 152.58v-34.89h3v34.89z"/><path fill="#ffe578" fill-rule="nonzero" d="M40.26 152.58v-34.89h4.56v34.89z"/><path fill="#ffdb48" fill-rule="nonzero" d="M37.29 152.58v-34.89h3v34.89z"/><path fill="#ffe578" fill-rule="nonzero" d="m47.49 101.04 4.02 17.01h-4.05l-4.02-17.01z"/><path fill="#ffdb48" fill-rule="nonzero" d="M53.64 101.04h24.87l-9.72 17.01H51.51l-4.02-17.01z"/><path fill="#fff1b6" fill-rule="nonzero" d="m43.44 101.04 4.02 17.01h-2.64l-4.02-17.01z"/><path fill="#ffe578" fill-rule="nonzero" d="m40.8 101.04 4.02 17.01h-4.53l-4.05-17.01z"/><path fill="#ffdb48" fill-rule="nonzero" d="M28.74 101.04h7.5l4.05 17.01H38.1z"/><path stroke="#5e154d" stroke-linecap="round" stroke-linejoin="round" stroke-width="1.44" d="M38.07 118.05h30.57l-.12 34.89H38.07l-19.65-5.28v-34.11z"/><path stroke="#5e154d" stroke-linecap="round" stroke-linejoin="round" stroke-width="1.44" d="M28.74 101.04h49.77l-9.72 17.01H38.1l-19.65-4.47-9.33-17.4z"/><path stroke="#5e154d" stroke-linecap="round" stroke-linejoin="round" stroke-width="1.44" d="M28.74 40.56h49.77v60.48H28.74L9.12 96.18V44.46z"/><path stroke="#fff" stroke-linecap="round" stroke-linejoin="round" stroke-width="2.16" d="M32.94 77.94v-2.88M32.94 70.77V53.55"/></g><g fill-rule="nonzero" stroke="#dd3627" stroke-linecap="round" stroke-linejoin="round" data-paper-data="{&quot;index&quot;:null}"><path fill="#dd3627" stroke-width=".72" d="M44.79 85.71a7.86 7.86 0 0 1 7.29-7.92h1.89v15.87h-1.89a7.86 7.86 0 0 1-7.29-7.95"/><path fill="#fff" stroke-width=".72" d="M54.18 93.66c-4.258 0-7.71-3.56-7.71-7.95s3.452-7.95 7.71-7.95 7.71 3.56 7.71 7.95-3.452 7.95-7.71 7.95"/><path fill="#dd3627" stroke-width=".54" d="M52.86 91.26v-11.1h3v11.1z"/><path fill="#ffdb48" stroke-width=".54" d="m53.97 91.26-1.89-.51V80.58l1.89-.42z"/></g><g stroke-linecap="butt" stroke-linejoin="miter" data-paper-data="{&quot;index&quot;:null}"><path fill="#d2a6cc" fill-rule="nonzero" stroke="#d2a6cc" stroke-width="1.08" d="M38.07 69.54v-19.5h31.74v19.5z"/><path stroke="#ffdb48" stroke-width=".72" d="m58.92 57.36 1.5-2.61M53.94 56.01v-3M62.55 60.99l2.61-1.5M60.42 54.75l-1.5 2.61M66.9 65.97h-3.03M65.16 59.49l-2.61 1.5M44.01 65.97h-3.03M42.72 59.49l2.61 1.5M53.94 53.01v3M47.46 54.75l1.5 2.61"/><path stroke="#f05822" stroke-width="1.08" d="m57.6 63.39-3.45 2.58-3.87-6.48"/></g><g data-paper-data="{&quot;index&quot;:null}"><path fill="#f05822" fill-rule="nonzero" stroke="#dd3627" stroke-linecap="round" stroke-linejoin="round" stroke-width=".72" d="M38.22 162.84H16.38v-3.96h23.1a27.6 27.6 0 0 1-1.26 3.96M39.48 158.88h-23.1v-3.96h23.58a28 28 0 0 1-.48 3.96M40.02 152.94v1.98H16.38v-3.96h23.58c.03.66.06 1.32.06 1.98M36.24 166.8H16.38v-3.96h21.84a21.2 21.2 0 0 1-1.98 3.96M24.48 174.39h-8.1v-3.63h16.56a12.84 12.84 0 0 1-8.46 3.63"/><path fill="#f05822" fill-rule="nonzero" stroke="#dd3627" stroke-linecap="round" stroke-linejoin="round" stroke-width=".72" d="M32.94 170.76H16.38v-3.96h19.86a18.7 18.7 0 0 1-3.3 3.96M16.38 135.12h16.56a18.7 18.7 0 0 1 3.3 3.96H16.38zM39.96 150.96H16.38V147h23.1c.252 1.307.412 2.63.48 3.96M36.24 139.08a21.2 21.2 0 0 1 1.98 3.96H16.38v-3.96z"/><path fill="#f05822" fill-rule="nonzero" stroke="#dd3627" stroke-linecap="round" stroke-linejoin="round" stroke-width=".72" d="M39.48 147h-23.1v-3.96h21.84c.52 1.286.94 2.61 1.26 3.96M16.38 131.64h8.1a12.84 12.84 0 0 1 8.58 3.48H16.38z"/><path fill="#ffbd39" fill-rule="nonzero" d="M16.38 174.24c-8.649 0-15.66-9.536-15.66-21.3s7.011-21.3 15.66-21.3 15.66 9.536 15.66 21.3-7.011 21.3-15.66 21.3"/><path stroke="#5e154d" stroke-linecap="round" stroke-linejoin="round" stroke-width="1.44" d="M16.38 131.64h8.1a12.84 12.84 0 0 1 8.58 3.48 18.7 18.7 0 0 1 3.3 3.96 21.2 21.2 0 0 1 1.98 3.96 27.5 27.5 0 0 1 1.14 3.96c.282 1.305.473 2.628.57 3.96v3.96a28 28 0 0 1-.57 3.96 27.6 27.6 0 0 1-1.17 3.96 21.2 21.2 0 0 1-1.98 3.96 18.7 18.7 0 0 1-3.3 3.96 12.84 12.84 0 0 1-8.55 3.63h-8.1c-8.64 0-15.66-9.54-15.66-21.3s7.02-21.45 15.66-21.45"/><path stroke="#fff" stroke-linecap="butt" stroke-linejoin="miter" stroke-width="1.08" d="M16.38 165.15c-4.97 0-9-5.467-9-12.21s4.03-12.21 9-12.21 9 5.467 9 12.21-4.03 12.21-9 12.21z"/><path fill="#ffdb48" fill-rule="nonzero" d="M11.16 144.84h4.32c3.3 0 6 3.63 6 8.1s-2.67 8.1-6 8.1h-4.32z"/><path fill="#e69724" fill-rule="nonzero" d="M11.16 161.04c-3.297 0-5.97-3.626-5.97-8.1s2.673-8.1 5.97-8.1 5.97 3.626 5.97 8.1-2.673 8.1-5.97 8.1"/><path fill="#5e154d" fill-rule="nonzero" stroke="#5e154d" stroke-linecap="round" stroke-linejoin="round" stroke-width="1.44" d="M10.89 155.94a3 3 0 1 1 0-6 3 3 0 0 1 0 6"/><path stroke="#5e154d" stroke-linecap="round" stroke-linejoin="round" stroke-width="1.44" d="M11.16 144.84h4.32c3.3 0 6 3.63 6 8.1s-2.67 8.1-6 8.1h-4.32c-3.27 0-6-3.63-6-8.1s2.73-8.1 6-8.1"/></g><g fill-rule="evenodd" stroke="#fff" stroke-linecap="round" stroke-linejoin="round" stroke-width="1.8" data-paper-data="{&quot;index&quot;:null}"><path d="M9.12 23.43c-.24-.84-.24-1.26-.24-2.04M8.88 18.3c-.12-2.694.08-5.393.6-8.04"/></g><g data-paper-data="{&quot;index&quot;:null}"><path fill="#5e154d" fill-rule="nonzero" stroke="#5e154d" stroke-linecap="round" stroke-linejoin="round" stroke-width="1.44" d="M11.43 47.88h4.05c4.65 0 7.95 4.56 7.95 10.86v32.19c0 6.33-3.3 10.86-7.95 10.86h-3.99z"/><path fill="#ffdb48" fill-rule="nonzero" d="M11.43 47.88c4.65 0 7.98 4.56 7.98 10.86v32.19c0 6.33-3.33 10.86-7.98 10.86h-.36v-54z"/><path fill="#ffe578" fill-rule="nonzero" d="M11.07 47.91v54a8 8 0 0 1-1.59-.42V48.21a6.4 6.4 0 0 1 1.59-.3"/><path fill="#ffdb48" fill-rule="nonzero" d="M6.3 50.19v49.2a12.57 12.57 0 0 1-3-8.55v-32.1a12.63 12.63 0 0 1 3-8.55"/><path fill="#ffe578" fill-rule="nonzero" d="M8.31 48.63v52.41a7.6 7.6 0 0 1-2.01-1.56V50.19a8.3 8.3 0 0 1 2.01-1.56"/><path fill="#fff1b6" fill-rule="nonzero" d="M9.48 48.21v53.28a8 8 0 0 1-1.08-.45V48.63q.525-.249 1.08-.42"/><path fill="#5e154d" fill-rule="nonzero" stroke="#5e154d" stroke-linecap="round" stroke-linejoin="round" stroke-width=".72" d="M11.43 58.26a3 3 0 1 1 0-6 3 3 0 0 1 0 6M11.43 97.17a3 3 0 1 1 0-6 3 3 0 0 1 0 6"/><path stroke="#5e154d" stroke-linecap="round" stroke-linejoin="round" stroke-width="1.44" d="M11.43 47.88c4.65 0 7.98 4.56 7.98 10.86v32.19c0 6.33-3.33 10.86-7.98 10.86s-7.95-4.53-7.95-10.86V58.74c0-6.3 3.27-10.86 7.95-10.86"/></g></g></svg>