<svg xmlns="http://www.w3.org/2000/svg" width="200.79" height="215.528" viewBox="0.145 -0.168 200.79 215.528"><path fill="#82783c" d="M109.658 46.651c-3.16 1.055-13.778.568-14.102.324 0-2.677-.567-5.517 6.16-5.922 6.727-.406 7.375 3.164 7.942 5.598"/><path fill="#645a1e" d="M106.903 44.217c-.405 0-.811.162-1.054.487s-.243 1.46 1.054 1.541c.486 0 1.135-.081 1.135-.892 0-.568-.487-1.055-1.135-1.136.081 0 0 0 0 0M97.987 44.379c-.405 0-.81.163-1.053.487-.243.325-.243 1.46 1.053 1.542.487 0 1.135-.082 1.135-.893 0-.568-.486-1.055-1.135-1.136.082 0 0 0 0 0"/><path fill="#fab414" d="M126.354 57.523v2.109c3.323.081 8.673-.081 10.375-.081v-2.109c-2.918-.082-7.457 0-10.375.081"/><path fill="#ffc800" d="M136.323 52.168s-3.079 0-4.619.73l2.431 10.872a33 33 0 0 0 4.782-.812z"/><path fill="#fab414" d="M78.212 57.523v2.109c-3.323.081-8.672-.081-10.375-.081v-2.109c2.837-.082 7.376 0 10.375.081"/><path fill="#ffc800" d="M68.243 52.168s3.08 0 4.619.73L70.431 63.77a33 33 0 0 1-4.782-.812z"/><path fill="#a0aa1e" d="M126.76 47.381c-7.619-2.109-32.339-1.136-37.769-1.055-5.106.082-10.212-1.135-12.724 4.057-2.108 4.381-3.486 18.174-4.296 25.394l61.11-.243c-.729-6.572-4.295-26.206-6.321-28.153"/><path d="M87.775 57.36c-1.945-3.083 1.054-7.869 7.943-8.356a77 77 0 0 1 14.994.243c3.728.649 9.24 5.03 5.43 9.087-1.621 1.704-7.699 1.947-14.345 1.866-6.16-.081-12.076.243-14.022-2.84M118.169 52.492c-.082-.486.162-.973.648-1.054 1.702-.974 3.323-2.029 5.187-3.164l.729.324c-.081.244-.081.487-.081.568l-3.971 2.434c.243.081.405.162.648.243.811.082 1.621.082 2.513.082.567 0 1.135.162 1.297.73-.081.487-.406.649-.73.649s-.648-.081-.891-.081c-1.459-.163-2.837-.325-4.296-.487a2.2 2.2 0 0 1-1.053-.244M78.293 51.438l-.081-.812c.162-.081.324-.162.405-.162.567.081 1.135.162 1.702.162h1.135c-.73-.811-1.621-.973-2.27-1.784l.568-.812c1.945.893 3.404 2.515 5.511 3.164.081.244.081.487.162.812l-1.054.405c-1.945-.73-3.971-.568-6.078-.973"/><path fill="#d2e614" d="M199.865 5.03c.406-.649.73-.162.487-2.272-.244-2.109-6.079-1.541-7.7.406-1.864 2.272-2.431 6.085-2.107 8.681-1.216.649-6.16.974-6.889-.162-.081-1.217-1.135-5.517 0-6.328l3.323-.325c1.215-.162 2.026-.324 2.107-2.758s-7.294-1.785-9.159.811c-1.54 2.191.973 8.113-.81 9.33-2.594 0-5.268.568-7.781.487 0-2.191-.81-4.219-.486-6.572 2.756-.162 7.537-2.028 3.971-5.111-2.674-2.272-7.294.325-9.32 2.272-5.025 4.786-4.539 18.985-3.972 25.394l34.446 33.67c1.702-6.572.973-28.072.243-34.806-.405-3.732-.81-7.464-1.135-11.196-.243-2.677-1.783-8.113.325-10.223 1.54-.324 2.998-.405 4.457-1.298"/><path fill="#a0aa1e" d="M175.632 19.958c2.107 3.651-2.918 5.031-5.43 5.436-.811 1.055-1.297 5.355-.406 6.491 1.702.973 4.215.243 6.079.406a19.9 19.9 0 0 1 6.484 1.866c4.214 1.947 7.943 4.543 10.293 8.681 4.296 7.545 4.701 19.39 3.566 27.828-5.835.73-11.752-.162-17.587 0-4.701.081-10.05.974-14.67.243-.567-5.598-.324-11.196-.973-16.794-.567-5.355-1.702-10.547-2.026-15.983-.243-4.138-1.216-11.683 1.621-15.09 2.675-3.002 9.645-5.842 13.049-3.084"/><path fill="#824600" d="M163.15 62.472c.244 2.839.163 5.598-.162 8.437a60.4 60.4 0 0 1-2.674 9.249s1.378 32.129 1.864 34.157c8.429.974 21.883-9.655 26.26-16.632 6.159-9.736 9.806-26.449 9.482-35.13h-34.77z"/><path fill="#d2e614" d="M1.216 5.274C.81 4.625.486 5.111.729 3.002c.244-2.11 6.079-1.542 7.7.406 1.864 2.271 2.431 6.084 2.107 8.681 1.135.649 6.16.973 6.808-.163.081-1.217 1.135-5.517 0-6.328l-3.323-.324c-1.215-.163-2.026-.325-2.107-2.759s7.294-1.785 9.159.811c1.54 2.191-.973 8.114.891 9.331 2.594 0 5.268.568 7.781.486 0-2.19.81-4.218.486-6.571-2.756-.163-7.537-2.029-3.971-5.112 2.674-2.271 7.294.325 9.32 2.191 5.025 4.787 4.539 18.985 3.972 25.394L5.106 62.634c-1.702-6.572-.973-28.072-.243-34.725.405-3.732.81-7.464 1.135-11.196.243-2.677 1.783-8.113-.325-10.222-1.621-.325-3.079-.325-4.457-1.217"/><path fill="#a0aa1e" d="M25.449 20.121c-2.107 3.651 2.918 5.03 5.43 5.436.811 1.054 1.297 5.273.406 6.49-1.702.974-4.215.244-6.16.406a19.9 19.9 0 0 0-6.484 1.866C14.346 36.266 10.698 38.862 8.348 43c-4.296 7.545-4.701 19.391-3.566 27.828 5.835.73 11.752-.162 17.587 0 4.701.081 10.05.974 14.67.244.567-5.598.324-11.197.973-16.795.567-5.354 1.702-10.628 2.026-15.983.243-4.137 1.216-11.683-1.621-15.09-2.594-2.921-9.645-5.761-12.968-3.083"/><path fill="#824600" d="M38.012 71.072c-.324-2.84-.324-5.761-.081-8.6H3.08c-.405 8.6 3.242 25.556 9.483 35.373 4.376 6.897 24.314 18.904 32.743 17.93.486-2.028-4.214-39.024-4.214-39.024-1.702-1.46-2.837-3.408-3.08-5.679"/><path fill="#a0aa1e" d="m136.729 187.658 24.8 3.814c0 .405-3.728 22.311-3.728 22.311l9.807.162s-.081.649-.162.893c-3.242.081-31.447-.081-31.447-.081s.568-26.612.73-27.099"/><path fill="#005a5a" d="M165.501 202.83c.162-2.921 0-6.004.243-8.843.405-4.381 2.35-24.745 2.026-27.017l-39.065-16.876c0 2.191-.162 39.349 1.378 52.817z"/><path fill="#006482" d="M126.841 196.745h41.74v13.387h-41.74z"/><path fill="#a0aa1e" d="m74.889 187.658-24.801 3.814c0 .405 3.728 22.311 3.728 22.311l-9.807.162s.081.649.162.893c3.242.081 31.447-.081 31.447-.081s-.648-26.612-.729-27.099"/><path fill="#005a5a" d="m80.319 201.532-.081-43.162-35.418 10.222s1.702 24.665 3.809 33.021z"/><path fill="#006482" d="M43.766 198.368h39.633v13.387H43.766z"/><path fill="#a0640a" d="m42.55 115.857 60.625 23.69 62.974-24.745s-.972-17.606-1.945-22.636c-.081-.324-2.188-15.658-2.431-17.038-4.134-4.543-16.453-7.626-23.829-7.951-8.186-.324-69.296.163-69.296.163s-8.348 1.217-14.265 3.407-13.291 5.842-13.291 5.842-.325 14.198.081 21.5c.567 10.385 1.377 17.768 1.377 17.768"/><path fill="#008264" d="M103.499 87.298c-16.372 0-32.744.162-32.744.162s-3.566.244-3.647 0c-4.539 1.704-24.639 28.397-24.639 28.397l2.27 52.654 58.76-.73 7.699-45.677z"/><path fill="#00a08c" d="m103.499 167.781 64.271-.811-1.621-52.168s-21.964-24.177-27.232-27.098c-5.187-.325-20.505-.406-35.337-.406z"/><path fill="#005a5a" d="m133.973 65.474.81 36.347 7.781.081s.243-28.072-1.135-36.428z"/><path fill="#ffc800" d="M138.836 95.574c-.892 0-1.702.405-2.269 1.135-.568.731-.487 3.165 2.188 3.246 1.053.081 2.35-.244 2.35-1.947.081-1.217-.891-2.272-2.107-2.353-.081-.081-.162-.081-.162-.081"/><path fill="#005a5a" d="M63.866 65.474c-1.378 8.356-1.135 36.428-1.135 36.428l7.7-.081.811-36.347z"/><path fill="#ffc800" d="M66.379 95.574c.891 0 1.702.405 2.269 1.135.567.731.486 3.165-2.188 3.246-1.054.081-2.351-.244-2.351-1.947-.081-1.217.892-2.272 2.108-2.353 0-.081.081-.081.162-.081"/><path fill="#005a5a" d="M89.477 107.094c-1.296 5.517.973 13.063 4.296 16.632 3.971 2.921 12.968 3.246 17.182.812 4.863-2.759 6.16-9.087 6.079-14.036 0-1.136 0-2.272-.081-3.408z"/><path fill="#006482" d="M87.532 101.902h31.123v8.762H87.532z"/><path fill="#fab414" d="M103.499 104.336c-.892-.081-1.783.406-2.351 1.136-.648.811-.486 3.245 2.27 3.407 1.134.081 2.35-.243 2.35-2.028.081-1.298-.891-2.434-2.188-2.515z"/></svg>