<svg xmlns="http://www.w3.org/2000/svg" width="77.444" height="135.567" viewBox="-0.221 -0.323 77.444 135.567"><g fill="#00a0b4"><path d="M40.473 113.182c-.573 5.759-2.355 7.678-5.855 8.51-1.782.448-3.5.512-5.091-.32-3.372-1.791-4.072-6.782-5.791-10.045-3.436-.96-2.991 2.687-7.891 2.687-8.527 0-8.463-4.542-10.054-17.531s33.473-8.957 33.473-8.957 1.781 19.962 1.209 25.656"/><path d="M38.882 113.758c-1.209-3.327 5.854-22.905 5.854-22.905L70 93.796s.891 8.382.955 11.005c.318 11.9-3.5 13.5-6.11 13.436-3.627-.128-6.872-.832-9.99-7.614s-13.682-.064-15.973 3.135"/></g><path fill="#78c8c8" d="M12.473 98.915c-1.655 13.18 4.009 32.63 5.854 34.421h.764c.191-.895-1.082-4.03.127-4.286 1.209.64 1.4 3.007 2.482 3.967.382-1.344-1.845-4.031.382-4.607.636 1.088 1.273 2.943 2.418 3.647.318-.896-1.718-19.834-3.118-29.367z"/><path fill="#aadcdc" d="M20.682 118.045c-1.718.064-1.909 2.687-.064 2.559 1.846-.128 1.591-2.623.064-2.559M17.691 119.964c-.764.064-.827 2.944-.064 2.88.764-.064.764-2.944.064-2.88"/><path fill="#78c8c8" d="M47.982 97.507 58.418 92.9c0 4.287-.063 39.029-.954 40.692-1.273-1.151-.891-3.071-1.909-4.222h-.573c-1.273 1.343-.064 3.775-.891 5.374-2.1-.768-1.336-4.415-2.736-5.758-1.273.768-.255 2.943-1.273 3.391-2.1-1.472-2.355-8.126-2.609-10.365a91 91 0 0 1-.573-11.837c0-3.966.064-8.957 1.082-12.668"/><path fill="#aadcdc" d="M54.091 118.749c-2.673.128-2.864 4.095-.127 3.967s2.418-4.095.127-3.967"/><path fill="#006482" d="M33.664 60.078H6.109L8.527 38.9l25.137-.064z"/><path fill="#fff" d="M16.418 38.836s-.573 5.055 1.146 5.759 2.927.768 3.563-.704.446-4.671.446-4.671z"/><path d="M19.855 51.441c-4.01-.832-7.764-.704-10.564 1.343L9.1 62.062l16.991-.768.445-7.742c-.7-.832-3.881-1.471-6.681-2.111"/><path fill="#aadcdc" d="M73.373 26.36C69.045 12.348 61.727 3.711 47.345.768c-13.872-2.815-30.927 4.67-36.654 17.339-6.3 13.948-4.9 30.007-5.982 44.786-.636 8.382-.064 16.38.318 24.761.128 3.839-.254 12.988 1.273 19.514 1.591 6.91 5.218 11.133 9.227 10.429 10.755.768 5.218-14.332 10.309-13.756s3.755 7.038 5.091 8.894c2.482 3.455 8.464 6.334 12.537 4.734 8.336-3.327 2.163-17.723 9.227-18.298 7.064-.576 8.082 8.317 10.436 11.004 2.864 3.327 8.018 4.031 10.564 0s2.291-10.748 2.482-15.355c.254-6.59 2.1-52.401-2.8-68.46M23.927 49.777c-.127 5.823-3.882 7.486-7.318 7.486s-6.364-2.431-6.809-7.422 2.482-9.149 7.255-8.765c4.581.448 7 2.879 6.872 8.701"/><path fill="#78c8c8" d="M23.927 10.301c-3.182-1.983-10.882 7.23-7.572 9.341 3.309 2.112 10.309-7.614 7.572-9.341"/><path d="M1.018 45.81c-.509-.383-.763-.959-.7-1.535a1.35 1.35 0 0 1 .509-1.408c.637.192.828.384.891 1.088s.127 1.472-.7 1.855M36.527 46.13c-.7-.703-.7-1.855 0-2.559.318-.064.509.128.637.384.318.448.381 1.024.191 1.536-.191.127-.51.383-.828.639"/><path fill="#78c8c8" d="M38.818 109.919c.191 2.176 1.082 4.031 4.327 4.159 3.755.192 2.737-15.675-1.209-15.931-3.945-.256-3.5 6.654-3.118 11.772M37.991 89.701c.191 1.088 1.082 1.984 4.327 2.112 3.755.064 2.737-7.806-1.209-7.998-3.945-.192-3.5 3.327-3.118 5.886M49.509 77.609c-3.754.384-4.009 11.005-.127 10.685s3.373-11.005.127-10.685"/><path fill="#00a0b4" d="M24.436 95.14c-3.754.192-4.009 5.694-.127 5.502s3.373-5.63.127-5.502M9.1 75.818c-2.673.127-2.927 4.094-.127 3.966s2.482-4.03.127-3.966"/><path fill="#78c8c8" d="M33.345 81.576c-2.672.128-2.863 4.095-.127 3.967 2.737-.128 2.482-4.095.127-3.967"/><path fill="#006482" d="M70.7 102.434c-2.673.128-2.927 4.094-.127 3.966 2.8-.127 2.418-4.094.127-3.966"/><path fill="#78c8c8" d="M9.227 97.507c.255 3.263 1.718 5.95 6.746 6.206 5.854.32 4.263-23.097-1.846-23.481s-5.472 9.725-4.9 17.275"/></svg>