<svg xmlns="http://www.w3.org/2000/svg" width="117.2" height="170.3" viewBox="0.4 0.2 117.2 170.3"><defs><linearGradient id="a" x1="11.166" x2="14.014" y1="147.484" y2="38.138" gradientUnits="userSpaceOnUse"><stop offset="0" stop-color="#81d3f1"/><stop offset=".308" stop-color="#7fd0ef"/><stop offset=".495" stop-color="#78c7e8"/><stop offset=".65" stop-color="#6dbbdf"/><stop offset=".787" stop-color="#5dabd3"/><stop offset=".91" stop-color="#4998c4"/><stop offset="1" stop-color="#4a99c5"/><stop offset="1"/></linearGradient><linearGradient id="b" x1="22.245" x2="25.093" y1="147.773" y2="38.427" gradientUnits="userSpaceOnUse"><stop offset="0" stop-color="#81d3f1"/><stop offset=".308" stop-color="#7fd0ef"/><stop offset=".495" stop-color="#78c7e8"/><stop offset=".65" stop-color="#6dbbdf"/><stop offset=".787" stop-color="#5dabd3"/><stop offset=".91" stop-color="#4998c4"/><stop offset="1" stop-color="#4a99c5"/><stop offset="1"/></linearGradient><linearGradient id="c" x1="33.258" x2="36.105" y1="148.06" y2="38.714" gradientUnits="userSpaceOnUse"><stop offset="0" stop-color="#81d3f1"/><stop offset=".308" stop-color="#7fd0ef"/><stop offset=".495" stop-color="#78c7e8"/><stop offset=".65" stop-color="#6dbbdf"/><stop offset=".787" stop-color="#5dabd3"/><stop offset=".91" stop-color="#4998c4"/><stop offset="1" stop-color="#4a99c5"/><stop offset="1"/></linearGradient><linearGradient id="d" x1="44.27" x2="47.117" y1="148.346" y2="39" gradientUnits="userSpaceOnUse"><stop offset="0" stop-color="#81d3f1"/><stop offset=".308" stop-color="#7fd0ef"/><stop offset=".495" stop-color="#78c7e8"/><stop offset=".65" stop-color="#6dbbdf"/><stop offset=".787" stop-color="#5dabd3"/><stop offset=".91" stop-color="#4998c4"/><stop offset="1" stop-color="#4a99c5"/><stop offset="1"/></linearGradient><linearGradient id="e" x1="55.282" x2="58.129" y1="148.633" y2="39.287" gradientUnits="userSpaceOnUse"><stop offset="0" stop-color="#81d3f1"/><stop offset=".308" stop-color="#7fd0ef"/><stop offset=".495" stop-color="#78c7e8"/><stop offset=".65" stop-color="#6dbbdf"/><stop offset=".787" stop-color="#5dabd3"/><stop offset=".91" stop-color="#4998c4"/><stop offset="1" stop-color="#4a99c5"/><stop offset="1"/></linearGradient><linearGradient id="f" x1="66.294" x2="69.141" y1="148.92" y2="39.574" gradientUnits="userSpaceOnUse"><stop offset="0" stop-color="#81d3f1"/><stop offset=".308" stop-color="#7fd0ef"/><stop offset=".495" stop-color="#78c7e8"/><stop offset=".65" stop-color="#6dbbdf"/><stop offset=".787" stop-color="#5dabd3"/><stop offset=".91" stop-color="#4998c4"/><stop offset="1" stop-color="#4a99c5"/><stop offset="1"/></linearGradient><linearGradient id="g" x1="77.328" x2="80.175" y1="149.207" y2="39.861" gradientUnits="userSpaceOnUse"><stop offset="0" stop-color="#81d3f1"/><stop offset=".308" stop-color="#7fd0ef"/><stop offset=".495" stop-color="#78c7e8"/><stop offset=".65" stop-color="#6dbbdf"/><stop offset=".787" stop-color="#5dabd3"/><stop offset=".91" stop-color="#4998c4"/><stop offset="1" stop-color="#4a99c5"/><stop offset="1"/></linearGradient></defs><path fill="#c3e8f3" d="m89.1.7-49.5 4-8.5 34.2H10.6L1.4 57.3.9 170h88.2zM41.3 14.8l7.9-.6.1.1 36.3-2.6v38.5l-43.8 1.4zM7.4 62.2h8.1v80.6H7.4V62.2m13.4 80.6h-2.1V62.2h8.1v80.5h-6Zm9.3 0V62.3h8.1V143h-8.1Zm11.3 0V62.2h8.1v80.6zm11.3 0V62.3h8.1v80.5zm11.3 0V62.2h8.1v80.6zm11.3-53.2V62.2h8.1v80.5h-8.1z"/><path fill="#c3e8f3" d="M15.6 62.2H7.4v64l8.2-7.8z"/><path fill="#5dabd3" d="M15.6 62.2H7.4v64l8.2-7.8z"/><path fill="#c3e8f3" d="M26.9 62.2h-8.2v53.1l8.2-7.9z"/><path fill="#5dabd3" d="M26.9 62.2h-8.2v53.1l8.2-7.9z"/><path fill="#c3e8f3" d="M20.8 142.8h6.1v-5.9z"/><path fill="#70bfe2" d="M20.8 142.8h6.1v-5.9z"/><path fill="#c3e8f3" d="M38.2 62.2h-8.1v42.1l8.1-7.8z"/><path fill="#5dabd3" d="M38.2 62.2h-8.1v42.1l8.1-7.8z"/><path fill="#c3e8f3" d="M30.1 133.7v9.1h8.1v-17z"/><path fill="#70bfe2" d="M30.1 133.7v9.1h8.1v-17z"/><path fill="#c3e8f3" d="M41.4 122.7v20.1h8.1v-28z"/><path fill="#70bfe2" d="M41.4 122.7v20.1h8.1v-28z"/><path fill="#c3e8f3" d="M49.5 62.2h-8.1v31.2l8.1-7.9z"/><path fill="#5dabd3" d="M49.5 62.2h-8.1v31.2l8.1-7.9z"/><path fill="#c3e8f3" d="M60.8 62.2h-8.1v20.2l8.1-7.8z"/><path fill="#5dabd3" d="M60.8 62.2h-8.1v20.2l8.1-7.8z"/><path fill="#c3e8f3" d="M52.7 111.7v31.1h8.1v-39.1z"/><path fill="#70bfe2" d="M52.7 111.7v31.1h8.1v-39.1z"/><path fill="#c3e8f3" d="M72.1 62.2H64v9.3l8.1-7.9z"/><path fill="#5dabd3" d="M72.1 62.2H64v9.3l8.1-7.9z"/><path fill="#c3e8f3" d="M64 100.6v42.2h8.1V92.7z"/><path fill="#70bfe2" d="M64 100.6v42.2h8.1V92.7z"/><path fill="#c3e8f3" d="m83.4 81.6-8.1 8v53.2h8.1z"/><path fill="#70bfe2" d="m83.4 81.6-8.1 8v53.2h8.1z"/><path fill="#40b4e5" d="M89.1 170h28L115.9 7.1 89.1.7z"/><path fill="#c3e8f3" d="m66.4 41.9 11.5-29.5 7.6-.7-36.3 2.6 11.3 27.8zM71 12.7l-8.3 18.4L54.8 14z"/><path fill="#5dabd3" d="m66.4 41.9 11.5-29.5 7.6-.7-36.3 2.6 11.3 27.8zM71 12.7l-8.3 18.4L54.8 14z"/><path fill="#c3e8f3" d="m41.7 51.6 43.8-1.4V16.5l-15 34.1-14.3.3-14.9-36h-.1z"/><path fill="#7dceed" d="m41.7 51.6 43.8-1.4V16.5l-15 34.1-14.3.3-14.9-36h-.1z"/><path fill="#9bdbf1" d="m70.5 50.6 15-34.1v-4.8l-7.6.7-11.5 29.5-6 .2-11.2-27.8-.1-.1-7.8.6v.1l14.9 36z"/><path fill="#9bdbf1" d="M71 12.7 54.8 14l7.9 17.1z"/><path fill="#c3e8f3" d="M15.6 142.8v-24.4l-8.2 7.8v16.6z"/><path fill="url(#a)" d="M15.6 142.8v-24.4l-8.2 7.8v16.6z"/><path fill="#d9f0f6" d="M15.6 142.8v-24.4l-8.2 7.8v16.6z" opacity=".56"/><path fill="#c3e8f3" d="m26.9 107.4-8.2 7.9v27.5h2.1l6.1-5.9z"/><path fill="url(#b)" d="m26.9 107.4-8.2 7.9v27.5h2.1l6.1-5.9z"/><path fill="#d9f0f6" d="m26.9 107.4-8.2 7.9v27.5h2.1l6.1-5.9z" opacity=".56"/><path fill="#c3e8f3" d="m38.2 96.5-8.1 7.8v29.4l8.1-7.9z"/><path fill="url(#c)" d="m38.2 96.5-8.1 7.8v29.4l8.1-7.9z"/><path fill="#d9f0f6" d="m38.2 96.5-8.1 7.8v29.4l8.1-7.9z" opacity=".56"/><path fill="#c3e8f3" d="m49.5 85.5-8.1 7.9v29.3l8.1-7.9z"/><path fill="url(#d)" d="m49.5 85.5-8.1 7.9v29.3l8.1-7.9z"/><path fill="#d9f0f6" d="m49.5 85.5-8.1 7.9v29.3l8.1-7.9z" opacity=".56"/><path fill="#c3e8f3" d="m60.8 74.6-8.1 7.8v29.3l8.1-8z"/><path fill="url(#e)" d="m60.8 74.6-8.1 7.8v29.3l8.1-8z"/><path fill="#d9f0f6" d="m60.8 74.6-8.1 7.8v29.3l8.1-8z" opacity=".56"/><path fill="#c3e8f3" d="M72.1 63.6 64 71.5v29.1l8.1-7.9z"/><path fill="url(#f)" d="M72.1 63.6 64 71.5v29.1l8.1-7.9z"/><path fill="#d9f0f6" d="M72.1 63.6 64 71.5v29.1l8.1-7.9z" opacity=".56"/><path fill="#c3e8f3" d="M83.4 62.2h-8.1v27.4l8.1-8z"/><path fill="url(#g)" d="M83.4 62.2h-8.1v27.4l8.1-8z"/><path fill="#d9f0f6" d="M83.4 62.2h-8.1v27.4l8.1-8z" opacity=".56"/></svg>