<svg xmlns="http://www.w3.org/2000/svg" xml:space="preserve" width="800" height="800" viewBox="0 0 512.001 512.001"><path d="m183.913 351.953-7.008-46.946a81 81 0 0 1-.226-6.051c0-43.896 35.585-79.481 79.481-79.481s79.481 35.585 79.481 79.481q-.001 3.054-.226 6.052l-6.339 50.428" style="fill:#fd4dd7"/><path d="m330.557 343.646 4.857-38.638q.225-2.997.226-6.052c0-2.137-.109-4.249-.275-6.343-6.133-.912-12.307-1.245-20.038-.437-10.409 1.089-23.882 4.272-39.397 13.007a40.68 40.68 0 0 1-39.867 0c-15.516-8.735-28.987-11.919-39.397-13.007-7.593-.794-13.686-.484-19.712.392a80 80 0 0 0-.278 6.388q.001 3.054.226 6.051l5.641 37.789a78.5 78.5 0 0 1 21.646 9.643l103.942 2.494a78.5 78.5 0 0 1 22.426-11.287" style="fill:#e846aa"/><circle cx="256.157" cy="298.953" r="40.743" style="fill:#ffdb6c"/><path d="M296.908 298.957c0-.978-.047-1.944-.115-2.903-6.406 2.018-13.394 4.926-20.861 9.129a40.68 40.68 0 0 1-39.867 0c-7.346-4.135-14.225-7.015-20.547-9.028a41 41 0 0 0-.107 2.803c0 22.504 18.243 40.747 40.747 40.747s40.75-18.244 40.75-40.748" style="fill:#ffb966"/><path d="M503.548 317.396c.302-10.671-12.096-16.741-20.384-10.012-9.431 7.658-21.526 15.091-36.46 19.642-17.844 5.439-32.715 4.622-55.093 3.391-42.706-2.349-51.496-11.492-76.282-8.9-10.409 1.089-23.882 4.272-39.397 13.007a40.68 40.68 0 0 1-39.867 0c-15.516-8.735-28.987-11.919-39.397-13.007-24.786-2.592-33.577 6.551-76.282 8.9-22.378 1.231-37.248 2.048-55.093-3.391-14.933-4.552-27.028-11.985-36.46-19.642-8.288-6.729-20.685-.658-20.384 10.012.062 2.19 3.4 70.639 39.892 113.246 10.508 12.269 35.121 41.007 75.328 48.948 48.088 9.498 98.806-13.301 108.067-21.614 1.291-1.159 7.963-7.584 16.206-8.582 1.078-.131 4.215-.414 8.098-.419 3.878-.005 7.079.271 8.271.419 8.16 1.006 14.628 7.378 15.948 8.582 9.202 8.388 59.76 31.154 108.067 21.614 40.207-7.941 64.821-36.679 75.328-48.948 36.494-42.607 39.832-111.056 39.894-113.246m-293.083 97.335c-35.896 24.357-84.74 15.002-109.096-20.894l16.203-10.994c35.896-24.357 84.74-15.002 109.096 20.894zm204.136-20.894c-24.357 35.896-73.201 45.25-109.096 20.894l-16.203-10.994c24.357-35.896 73.201-45.251 109.096-20.894z" style="fill:#7c54b8"/><path d="M483.164 307.384c-9.431 7.658-21.526 15.091-36.459 19.642a96 96 0 0 1-9.019 2.275c-1.874 19.178-5.991 62.996-38.833 101.343-9.928 11.591-32.454 37.873-68.818 47.438 17.733 3.85 38.202 5.477 58.294 1.51 40.207-7.941 64.82-36.679 75.328-48.948 36.493-42.608 39.83-111.056 39.892-113.246.3-10.673-12.098-16.743-20.385-10.014M215.457 457.977c-1.321-1.204-7.789-7.575-15.948-8.582-1.193-.146-4.393-.422-8.271-.419-3.883.004-7.02.288-8.098.419-8.244.998-14.915 7.423-16.206 8.582-5.412 4.857-24.987 14.653-49.913 20.069 2.17.574 4.382 1.097 6.651 1.545 39.869 7.874 81.521-6.446 99.88-16.311-3.745-2.029-6.531-3.876-8.095-5.303" style="fill:#674799"/><path d="M414.241 114.365c-22.571 5.863-44.095 16.049-63.22 30.334.477 17.83-1.663 36.03-6.723 54.105-5.403 19.299-13.723 36.993-24.338 52.751a79.2 79.2 0 0 1 13.283 27.989c17.927-11.9 34.041-27.186 47.322-45.713 25.866-36.084 36.675-78.398 33.676-119.466" style="fill:#3cc247"/><path d="M335.099 75.023a182.4 182.4 0 0 0-39.939 37.468 183.3 183.3 0 0 1 3.238 34.33c0 27.439-6.071 53.453-16.926 76.796 15.521 5.213 28.911 15.069 38.49 27.94 10.614-15.76 18.935-33.452 24.338-52.752 11.968-42.755 7.658-86.213-9.201-123.782" style="fill:#ffdb6c"/><path d="M256.16 219.476a79.4 79.4 0 0 1 25.32 4.143c10.852-23.342 16.919-49.36 16.919-76.798 0-44.398-15.866-85.086-42.229-116.719-26.364 31.633-42.229 72.32-42.229 116.719 0 27.436 6.065 53.452 16.915 76.793a79.3 79.3 0 0 1 25.304-4.138" style="fill:#3cc247"/><path d="M230.848 223.616c-10.855-23.341-16.926-49.357-16.926-76.796 0-11.736 1.119-23.21 3.238-34.33a182.4 182.4 0 0 0-39.939-37.468c-16.859 37.568-21.169 81.028-9.199 123.782 5.403 19.299 13.724 36.992 24.338 52.752 9.578-12.872 22.966-22.727 38.488-27.94" style="fill:#ffdb6c"/><path d="M192.359 251.556c-10.615-15.759-18.935-33.452-24.338-52.751-5.061-18.076-7.2-36.277-6.723-54.106-19.124-14.285-40.648-24.473-63.22-30.334-2.999 41.068 7.811 83.382 33.677 119.468 13.28 18.527 29.395 33.813 47.322 45.713a79.1 79.1 0 0 1 13.282-27.99" style="fill:#3cc247"/><path d="M345.491 194.3a180 180 0 0 1-1.193 4.504c-5.403 19.299-13.723 36.993-24.338 52.751a79.2 79.2 0 0 1 13.283 27.989c17.817-11.826 33.841-27.002 47.074-45.376a144.9 144.9 0 0 0-34.826-39.868" style="fill:#2da85f"/><path d="M319.96 251.556c10.614-15.76 18.935-33.452 24.338-52.752.42-1.5.815-3.001 1.195-4.503a143.7 143.7 0 0 0-48.47-25.129 181.2 181.2 0 0 1-15.551 54.443c15.521 5.214 28.91 15.069 38.488 27.941" style="fill:#ffb966"/><path d="M297.022 169.173c-12.954-3.822-26.663-5.883-40.856-5.883s-27.902 2.061-40.856 5.883a181.2 181.2 0 0 0 15.542 54.441 79.3 79.3 0 0 1 25.305-4.139 79.4 79.4 0 0 1 25.32 4.143 181.1 181.1 0 0 0 15.545-54.445" style="fill:#2da85f"/><path d="M168.021 198.805c5.403 19.299 13.724 36.992 24.338 52.752 9.579-12.872 22.967-22.727 38.49-27.94a181.3 181.3 0 0 1-15.551-54.439 143.7 143.7 0 0 0-48.469 25.136c.379 1.497.773 2.994 1.192 4.491" style="fill:#ffb966"/><path d="M179.076 279.545a79.15 79.15 0 0 1 13.283-27.989c-10.615-15.759-18.935-33.452-24.338-52.751a184 184 0 0 1-1.19-4.494 144.9 144.9 0 0 0-34.821 39.87c13.232 18.369 29.253 33.54 47.066 45.364" style="fill:#2da85f"/><circle cx="255.999" cy="379.605" r="8.446" style="fill:#ffdb6c"/><circle cx="224.817" cy="363.885" r="8.446" style="fill:#ffdb6c"/><circle cx="192.362" cy="348.153" r="8.446" style="fill:#ffdb6c"/><circle cx="158.77" cy="346.993" r="8.446" style="fill:#ffdb6c"/><circle cx="128.128" cy="351.959" r="8.446" style="fill:#ffdb6c"/><circle cx="97.588" cy="360.405" r="8.446" style="fill:#ffdb6c"/><circle cx="289.918" cy="363.885" r="8.446" style="fill:#ffdb6c"/><circle cx="322.373" cy="348.153" r="8.446" style="fill:#ffdb6c"/><circle cx="355.965" cy="346.993" r="8.446" style="fill:#ffdb6c"/><circle cx="386.606" cy="351.959" r="8.446" style="fill:#ffdb6c"/><circle cx="417.147" cy="360.405" r="8.446" style="fill:#ffdb6c"/><path d="M215.412 307.404a8.445 8.445 0 0 0 8.446-8.446c0-17.812 14.491-32.303 32.303-32.303s32.303 14.491 32.303 32.303a8.445 8.445 0 0 0 8.446 8.446 8.445 8.445 0 0 0 8.446-8.446c0-27.126-22.069-49.195-49.194-49.195s-49.194 22.069-49.194 49.195a8.44 8.44 0 0 0 8.444 8.446"/><circle cx="256.168" cy="299.358" r="8.446"/><circle cx="255.999" cy="379.605" r="8.446"/><circle cx="224.817" cy="363.885" r="8.446"/><circle cx="192.362" cy="348.153" r="8.446"/><circle cx="158.77" cy="346.993" r="8.446"/><circle cx="128.128" cy="351.959" r="8.446"/><circle cx="97.588" cy="360.405" r="8.446"/><circle cx="289.918" cy="363.885" r="8.446"/><circle cx="322.373" cy="348.153" r="8.446"/><circle cx="355.965" cy="346.993" r="8.446"/><circle cx="386.606" cy="351.959" r="8.446"/><circle cx="417.147" cy="360.405" r="8.446"/><path d="M500.343 298.305c-7.439-3.673-16.063-2.707-22.503 2.52-10.31 8.372-21.614 14.468-33.598 18.12-16.413 5.003-29.869 4.264-52.166 3.036-19.871-1.092-32.318-3.739-42.321-5.865-2.352-.5-4.637-.983-6.91-1.426l.965-8.757q.016-.146.026-.291c.166-2.204.251-4.454.251-6.687a88 88 0 0 0-1.422-15.647c17.273-12.233 32.317-27.195 44.764-44.558 25.964-36.222 38.476-80.614 35.235-125.004a8.445 8.445 0 0 0-10.547-7.56c-19.156 4.975-37.163 12.769-53.719 23.21-2.113-19.86-7.322-39.404-15.593-57.835a8.45 8.45 0 0 0-5.429-4.676 8.44 8.44 0 0 0-7.066 1.177 191 191 0 0 0-30.789 26.469c-7.251-25.439-19.742-49.298-36.862-69.841a8.448 8.448 0 0 0-12.978 0c-17.124 20.546-29.617 44.411-36.867 69.855a191 191 0 0 0-30.803-26.484 8.445 8.445 0 0 0-12.495 3.499c-8.27 18.431-13.481 37.975-15.593 57.835-16.556-10.442-34.563-18.235-53.719-23.21a8.45 8.45 0 0 0-7.044 1.311 8.44 8.44 0 0 0-3.503 6.249c-3.241 44.388 9.271 88.782 35.235 125.004 12.447 17.364 27.491 32.325 44.764 44.558a88 88 0 0 0-1.422 15.647c0 2.233.084 4.482.251 6.686q.013.173.033.345l1.009 8.631c-2.395.462-4.802.971-7.283 1.498-10.002 2.126-22.449 4.772-42.321 5.865-22.295 1.226-35.753 1.967-52.166-3.036-11.984-3.653-23.288-9.749-33.599-18.122-6.44-5.227-15.062-6.194-22.502-2.52C4.239 301.962-.223 309.37.01 317.63c.072 2.572.911 10.604 1.124 12.792 1.916 19.616 6.402 65.554 40.796 105.712 11.08 12.936 37.026 43.231 80.108 51.74 50.538 9.982 103.675-13.141 115.346-23.614l.282-.256c5.079-4.631 8.946-5.941 11.298-6.226 1.004-.122 13.507-.101 14.32-.001 2.286.282 6.047 1.578 10.981 6.154l.31.286c9.554 8.711 47.538 26.128 89.237 26.128 8.632 0 17.424-.747 26.156-2.471 43.083-8.509 69.028-38.804 80.108-51.74 34.394-40.159 38.879-86.095 40.796-105.712.213-2.188 1.052-10.22 1.124-12.79.227-8.258-4.236-15.665-11.653-19.327m-104.632-111.09a174.9 174.9 0 0 1-31.91 54.265 173 173 0 0 1-26.098 24.534 89 89 0 0 0-3.588-7.739c-.642-1.233-3.302-5.806-3.982-6.861.092-.152 3.813-6.331 4.51-7.559a190 190 0 0 0 4.241-7.901c5.261-10.375 9.528-21.243 12.832-32.393 3.345-11.286 5.586-22.908 6.797-34.612.642-6.199.991-12.429 1.017-18.662.003-.758-.162-1.223.493-1.685.548-.386 9.892-6.503 12.313-7.919 10.72-6.268 17.197-9.77 33.925-15.196.253 20.994-3.351 42.006-10.55 61.728m-214.797-99.01a173.6 173.6 0 0 1 18.918 17.159c1.491 1.568 8.203 8.83 8.305 9.788.105.98-1.596 11.347-1.81 13.615a192.5 192.5 0 0 0-.605 27.789c.238 4.686.588 9.393 1.243 14.039.642 4.552 4.644 8.172 9.34 7.643 6.468-.729 7.744-6.636 7.145-12.048a175.4 175.4 0 0 1-.91-26.724 174.4 174.4 0 0 1 8.781-47.647 174.3 174.3 0 0 1 21.393-43.149 173 173 0 0 1 3.454-4.873 174 174 0 0 1 23.008 42.795c5.647 15.313 9.156 31.436 10.319 47.718.628 8.811.598 17.656-.097 26.462-.5 6.331-2.331 16.319 7.168 16.851 8.955.502 9.229-9.724 9.709-16.07.653-8.622.729-17.267.239-25.898a189 189 0 0 0-1.283-13.659c-.288-2.221-.92-4.546-1.003-6.777-.025-.653 3.16-4.26 3.876-5.072a173.7 173.7 0 0 1 23.303-21.943c7.116 18.855 10.901 38.939 11.172 59.089.273 20.231-2.981 40.55-9.681 59.648-3.703 10.553-8.359 20.745-13.993 30.409-12.742-12.999-29.342-21.617-47.208-24.921-18.007-3.33-36.999-.654-53.5 7.223a87.6 87.6 0 0 0-24.777 17.698c-10.096-17.319-17.222-36.439-20.812-56.166-3.601-19.789-3.827-40.124-.547-59.975a173.7 173.7 0 0 1 8.853-33.004c10.039 7.842 0 0 0 0m-6.298 177.809c-16.971-12.915-31.502-28.999-42.686-47.155a174.7 174.7 0 0 1-22.694-58.183 174 174 0 0 1-3.181-35.189 173 173 0 0 1 30.449 13.216 173 173 0 0 1 13.973 8.636c.553.38 2.176 1.455 2.309 2.056.054.242.037 4.156.088 5.788q.147 4.673.523 9.332c1.886 23.401 8.027 46.368 18.127 67.563 2.786 5.847 10.377 18.474 10.524 19.108.135.587-2.534 4.635-3.259 5.983a89 89 0 0 0-4.173 8.845c-13.741-10.458.163-.404 0 0m10.698 38.191c-1.025-14.011 2.161-28.189 9.133-40.388a71.76 71.76 0 0 1 25.393-25.888c12.202-7.29 26.528-10.721 40.709-9.849 13.632.838 26.873 5.659 37.84 13.793 9.838 7.296 17.736 17.127 22.713 28.321 5.105 11.483 6.991 24.154 5.616 36.628-.194 1.758-.569 5.703-.637 5.787-.163.2-5.231.044-6.995.14-11.638.626-23.097 3.464-33.857 7.893-10.406 4.284-19.522 11.329-31.318 10.57-10.774-.694-19.991-7.895-29.847-11.661-10.812-4.132-22.35-6.66-33.942-6.904-.834-.018-3.65.129-3.831-.088-.226-.274-.83-7.095-.977-8.354-1.025-14.011.147 1.259 0 0m308.741 24.578c-1.91 19.557-5.884 60.253-36.813 96.365-9.939 11.606-33.215 38.782-70.55 46.156-47.408 9.366-94.704-14.065-100.74-19.569-6.858-6.346-14.864-10.752-24.324-10.824a592 592 0 0 0-10.578.034c-2.89.029-5.468.115-8.301.895-6.323 1.742-11.843 5.486-16.652 9.852-6.123 5.494-53.714 28.912-100.789 19.612-37.335-7.374-60.611-34.55-70.55-46.156-30.93-36.112-34.903-76.808-36.813-96.365-.226-2.322-.993-9.606-1.051-11.626-.063-2.231 1.376-3.279 2.238-3.706.707-.349 2.548-.998 4.379.489 12.012 9.752 25.241 16.873 39.321 21.164 19.278 5.875 35.527 4.981 58.019 3.744 21.177-1.164 34.333-3.962 44.905-6.209 5.229-1.111 9.624-2.042 14.01-2.596l.066-.003c.037-.004.072-.013.108-.018 4.896-.607 9.797-.74 15.849-.106 12.125 1.268 24.281 5.294 36.133 11.966 14.851 8.361 33.304 8.36 48.154 0 11.852-6.673 24.009-10.699 36.133-11.967 11.543-1.207 18.9.356 30.035 2.723 10.572 2.248 23.727 5.044 44.905 6.209 22.492 1.238 38.742 2.132 58.019-3.744 14.08-4.292 27.308-11.412 39.32-21.164 1.833-1.488 3.673-.837 4.381-.489.863.426 2.301 1.474 2.238 3.707-.06 2.021-.826 9.304-1.052 11.626-1.911 19.558.226-2.322 0 0"/><path d="m419.343 386.848-16.203-10.994c-19.226-13.046-42.384-17.822-65.206-13.455-22.822 4.37-42.576 17.367-55.622 36.595a8.447 8.447 0 0 0 2.247 11.731l16.204 10.994c14.928 10.129 31.903 14.981 48.714 14.98 27.887-.001 55.31-13.356 72.113-38.12a8.446 8.446 0 0 0-2.247-11.731m-109.096 20.894-8.798-5.971c10.251-11.808 24.067-19.794 39.664-22.78 18.388-3.52 37.049.329 52.545 10.841l8.795 5.967c-22.938 26.357-62.585 32.042-92.206 11.943M178.036 362.399c-22.82-4.368-45.977.408-65.206 13.455l-16.203 10.994a8.446 8.446 0 0 0-2.247 11.731c13.046 19.227 32.799 32.224 55.621 36.594a88 88 0 0 0 16.544 1.578c17.241 0 34.082-5.138 48.662-15.033l16.203-10.994a8.446 8.446 0 0 0 2.247-11.731c-13.047-19.227-32.802-32.222-55.621-36.594m27.686 45.343c-29.621 20.098-69.268 14.412-92.205-11.942l8.796-5.967c15.495-10.513 34.159-14.364 52.544-10.841 15.597 2.986 29.414 10.972 39.665 22.78z"/></svg>