<svg xmlns="http://www.w3.org/2000/svg" width="109.145" height="125.65" viewBox="-0.35 -0.139 109.145 125.65"><path fill="#f7941e" d="M73.944 122.394c-.361 0-.812-.09-1.263-.361-1.986-.993-3.61-2.888-4.783-5.505l-.542-1.174 1.173-.451c.452-.18.903-.361 1.354-.632 3.7-1.805 6.949-4.693 9.657-8.393l.541-.722.903.361c2.798 1.083 5.415 2.256 7.581 3.52 1.354.812 2.166 1.895 2.256 3.068 0 1.174-.632 2.257-1.895 3.069-.722.541-1.715.722-2.708.722-1.083 0-2.256-.271-3.339-.722.451.541.812.993 1.173 1.534.632.903.722 1.895.271 2.708-.451.902-1.534 1.534-2.707 1.534-.632 0-1.174-.181-1.715-.451-1.625-.903-2.978-2.257-4.152-3.52.452 2.076.542 3.7-.27 4.693a1.93 1.93 0 0 1-1.535.722"/><path d="M80.533 106.69c2.527.993 5.054 2.076 7.49 3.43 2.076 1.173 2.076 2.888.271 4.151-.632.361-1.263.542-1.985.542-1.625 0-3.43-.812-4.693-1.444-.181-.09-.271-.09-.452-.09-.812 0-1.263 1.083-.451 1.624.993.722 1.715 1.534 2.347 2.617.902 1.264-.271 2.347-1.444 2.347q-.541 0-1.083-.271c-1.715-.993-3.249-2.527-4.603-4.061a.97.97 0 0 0-.632-.271c-.541 0-1.083.632-.993 1.264.091.631 1.264 4.873-.361 4.873-.18 0-.451-.09-.722-.18-1.985-.993-3.339-2.888-4.241-4.874.451-.18.902-.451 1.444-.632 4.061-2.346 7.49-5.415 10.108-9.025m-.903-2.978-1.083 1.534c-2.617 3.61-5.686 6.318-9.205 8.033-.361.18-.813.361-1.264.631l-2.256.993.993 2.256c1.263 2.888 3.068 4.964 5.415 6.047.631.271 1.263.451 1.805.451.992 0 1.805-.451 2.436-1.173.542-.632.722-1.444.813-2.256.631.541 1.263.993 1.985 1.444.722.361 1.444.632 2.256.632 1.625 0 3.159-.813 3.791-2.166.451-.903.541-1.896.18-2.888h.632c1.264 0 2.437-.361 3.339-.993 1.625-1.083 2.527-2.617 2.437-4.152 0-.992-.451-2.797-2.798-4.151a57 57 0 0 0-7.761-3.61z"/><path fill="#f7941e" d="M31.025 123.657c-.541 0-.992-.18-1.353-.631-.722-.813-.632-2.437-.452-3.61.091-.361.091-.632.181-.903-1.534 1.534-3.339 2.888-5.415 3.7q-.813.271-1.354.271c-.812 0-1.444-.361-1.715-.993-.992-1.805 1.174-5.234 1.264-5.234.271-.361.451-.722.722-.993-1.264.451-2.888.993-4.152.993-.902 0-1.624-.271-2.075-.812-.271-.361-.632-.903-.452-1.896.271-1.534 1.805-2.797 3.43-3.971l.271-.18c1.444-1.083 2.978-1.895 4.422-2.798.541-.361 1.173-.632 1.715-.993l.992-.541.632.902c2.437 3.34 5.505 6.047 9.206 8.033l.902.451-.361.993c-.902 2.617-1.985 4.693-3.61 6.407-1.083 1.174-1.985 1.805-2.798 1.805"/><path d="M26.693 106.6a28.4 28.4 0 0 0 9.567 8.393c-.722 2.257-1.805 4.242-3.339 6.047-.903.993-1.535 1.444-1.896 1.444-.992 0-.631-2.346-.541-2.798.09-.722.361-1.534.541-2.256.181-.541-.361-1.083-.812-1.083q-.27 0-.541.271c-1.715 1.805-3.61 3.61-6.047 4.422-.361.181-.722.181-.903.181-1.985 0 .271-3.971.452-4.332a9.8 9.8 0 0 1 2.075-2.257c.632-.541.091-1.444-.631-1.444-.091 0-.271 0-.361.091-.181.09-3.52 1.624-5.415 1.624-.903 0-1.444-.361-1.264-1.263.271-1.354 2.256-2.708 3.159-3.43 1.715-1.354 3.881-2.437 5.956-3.61m.632-3.249-1.895 1.173c-.542.361-1.173.632-1.715.993-1.534.903-3.068 1.715-4.603 2.888l-.27.181c-1.264.992-3.52 2.617-3.881 4.783a3.49 3.49 0 0 0 .722 2.888c.451.541 1.354 1.263 2.978 1.263.451 0 .993-.09 1.444-.18-.632 1.354-1.173 3.339-.361 4.783.542.993 1.625 1.625 2.798 1.625.541 0 1.083-.091 1.805-.361 1.263-.452 2.437-1.174 3.52-1.896.09.993.361 1.805.902 2.437.542.632 1.354 1.083 2.256 1.083 1.535 0 2.798-1.083 3.701-2.256 1.624-1.895 2.888-4.152 3.79-6.859l.632-1.895-1.805-.993c-3.52-1.895-6.498-4.513-8.754-7.762z"/><path fill="#898dc5" d="M55.563 117.596c-.631 0-1.173 0-1.805-.091h-.361c-4.963-.27-9.656-.541-14.62-2.707-.451-.181-.903-.451-1.354-.722-4.512-2.437-8.393-6.227-11.281-11.101-6.859-11.552-5.054-25.36 4.783-37.905l.181-.18.27-.181c.091-.09 0-.18 0-.18-.09-.091-.09-.091-.18-.091h-.09c-4.964 2.618-9.116 6.498-12.906 12.094l-.09.18c-1.805 2.618-3.61 5.325-5.867 7.762-1.624 1.715-4.602 3.52-7.039 3.52-1.083 0-1.986-.361-2.617-.993-.813-.812-1.174-1.986-1.174-3.61.091-5.866 4.513-12.003 8.845-17.238 3.52-4.242 7.671-7.671 11.732-11.01 1.986-1.715 4.152-3.43 6.137-5.235v-.09c-.812-.993-1.624-2.076-2.346-2.978-2.798-3.52-5.686-7.13-7.401-11.462-2.436-5.957-1.444-12.906 2.618-19.584 5.324-8.845 16.876-14.17 30.775-14.17h.812c10.92.181 23.285 1.715 32.039 11.823 4.873 5.596 6.769 12.906 5.234 19.765-1.444 6.498-6.227 11.732-11.191 16.606-.09.09-.09.09-.09.18v.271a78 78 0 0 0 5.686 3.791c9.747 6.317 21.84 14.169 22.833 26.172.09 1.534-.18 2.798-.993 3.7q-1.218 1.354-3.519 1.354c-2.076 0-4.332-.812-5.596-1.534-3.068-1.715-5.415-4.242-7.761-6.769l-.091-.09c-.722-.812-1.444-1.534-2.166-2.347-3.158-3.429-6.407-7.039-10.469-9.205 9.747 12.454 11.733 24.819 5.776 36.732-2.617 5.234-6.768 9.386-12.003 12.183a34.1 34.1 0 0 1-14.711 3.34"/><path d="M51.773 2.798h.812c11.733.18 23.014 1.985 31.136 11.371 4.423 5.144 6.498 12.094 4.964 18.682-1.444 6.317-6.317 11.552-10.92 15.974-.361.361-.451.722-.451 1.173a.95.95 0 0 0 .451 1.083c9.927 7.04 26.894 15.343 28.068 29.151.27 2.798-1.354 3.7-3.34 3.7-1.714 0-3.7-.722-4.963-1.444-2.888-1.624-5.325-4.241-7.581-6.588-4.152-4.332-8.033-9.386-13.538-12.093-.18-.091-.361-.181-.541-.181-.903 0-1.444 1.083-.813 1.895 8.574 10.65 12.365 22.924 5.957 35.83-2.617 5.234-6.679 9.115-11.462 11.642-4.242 2.166-9.115 3.339-14.079 3.339-.541 0-1.173 0-1.805-.09-5.144-.271-9.657-.451-14.53-2.617-.451-.181-.903-.452-1.354-.722-4.512-2.437-8.122-6.137-10.74-10.56-7.31-12.364-3.61-25.901 4.693-36.551 1.354-.722.542-2.617-.722-2.617-.18 0-.451.09-.722.18-5.685 2.979-9.747 7.22-13.357 12.455-1.805 2.707-3.61 5.415-5.866 7.761-1.354 1.444-4.061 3.159-6.137 3.159-1.444 0-2.527-.902-2.527-3.339.09-5.866 5.144-12.274 8.574-16.516 5.234-6.317 11.913-10.74 17.869-16.245a.97.97 0 0 0 .271-.632c.09-.18.09-.451-.09-.631-3.52-4.693-7.671-8.935-9.837-14.44-2.527-6.318-.903-12.906 2.527-18.502C28.037 6.588 40.672 2.798 51.773 2.798m0-2.437c-14.35 0-26.263 5.595-31.949 14.891-4.241 6.949-5.234 14.35-2.707 20.667 1.805 4.513 4.783 8.213 7.581 11.733.541.722 1.173 1.444 1.715 2.166-1.715 1.534-3.52 2.978-5.235 4.422-4.061 3.339-8.303 6.859-11.913 11.191C4.753 70.846.15 77.164.15 83.481c0 1.895.541 3.43 1.534 4.422.903.903 2.076 1.354 3.43 1.354 3.158 0 6.407-2.346 7.942-3.971 2.346-2.437 4.151-5.234 6.046-7.852l.091-.18c2.436-3.52 4.963-6.408 7.761-8.574-7.4 11.733-8.122 24.277-1.805 34.927 2.978 5.054 7.04 9.025 11.642 11.462h.091c.451.27.902.541 1.444.722 5.144 2.256 9.927 2.527 15.071 2.797h.361c.632 0 1.264.091 1.896.091 5.415 0 10.649-1.264 15.162-3.61 5.505-2.888 9.837-7.22 12.544-12.726 5.145-10.288 4.423-21.208-1.805-31.948 1.535 1.444 3.069 3.068 4.513 4.693.722.812 1.444 1.624 2.166 2.346l.09.091c2.256 2.436 4.874 5.144 8.032 6.949 1.444.812 3.881 1.715 6.137 1.715 2.347 0 3.701-.903 4.423-1.715s1.534-2.256 1.353-4.603c-1.083-12.545-13.447-20.577-23.374-27.075-1.625-1.083-3.249-2.076-4.693-3.068 4.783-4.693 9.295-10.018 10.83-16.426 1.624-7.13-.452-14.981-5.506-20.848C76.501 2.166 63.866.541 52.675.361z"/><path fill="#fff" d="M77.945 13.718c-10.649-11.011-24.187.722-24.187.722s-13.447-11.733-24.187-.812c-15.884 16.335 8.574 36.731 8.574 42.417S28.127 72.29 28.127 90.43c0 11.913 5.776 19.043 9.747 22.563.452.271.903.451 1.354.722 4.783 2.166 9.386 2.346 14.53 2.617 5.596.271 11.101-.812 15.794-3.249 3.971-3.52 9.837-10.649 9.837-22.653 0-18.23-10.017-28.699-10.017-34.385s24.548-26.082 8.573-42.327"/><path fill="#f7941e" d="M52.951 56.484c-7.852 0-16.696-10.559-16.696-17.689 0-5.957 8.393-14.35 16.696-14.35 8.574.09 16.696 8.123 16.696 14.35s-8.573 17.689-16.696 17.689"/><path d="M52.951 25.709c7.762 0 15.523 7.31 15.523 13.086S60.171 55.22 52.951 55.22 37.518 45.112 37.518 38.795c0-5.054 7.672-13.086 15.433-13.086m0-2.437c-8.844 0-17.869 9.025-17.869 15.523 0 7.581 9.386 18.862 17.869 18.862 8.935 0 17.96-12.093 17.96-18.862 0-7.491-9.206-15.523-17.96-15.523"/><path fill="#231f20" d="M36.16 20.487c.812 0 1.624.451 2.166 1.173s.902 1.715.902 2.798-.361 2.075-.902 2.797c-.542.722-1.354 1.174-2.166 1.174-.813 0-1.625-.452-2.166-1.174-.542-.722-.903-1.714-.903-2.797s.361-2.076.903-2.798c.541-.722 1.263-1.173 2.166-1.173M69.191 20.487c.812 0 1.625.451 2.166 1.173.542.722.903 1.715.903 2.798s-.361 2.075-.903 2.797c-.541.722-1.354 1.174-2.166 1.174s-1.624-.452-2.166-1.174-.902-1.714-.902-2.797.361-2.076.902-2.798c.542-.722 1.264-1.173 2.166-1.173M61.9 45.7c-2.3-1.9-5.5-4.3-8.7-4.2-3.5.3-6.3 1.7-9 4-.6.5-1 1.2-.3 1.8 2.7 2.3 5.8 4 9.3 4.2 3.2.2 6.4-2.3 8.7-4.2.1-.1.2-.3.3-.4.2-.3.2-.8-.3-1.2"/></svg>