<svg xmlns="http://www.w3.org/2000/svg" xml:space="preserve" width="35.872" height="93.511" viewBox="20.528 21.756 35.872 93.511"><title>microphone-a</title><g fill-rule="nonzero"><path d="M29.7 56.5c-.55-.15-.7-.55-.8-1.05-.1-.8-.05-1.6-.1-2.4-.15-.15-.3-.3-.45-.4-3.1-2.3-4.8-5.5-6-9.05-.25-.75-.55-1.5-.55-2.3 0-.15-.05-.35-.15-.45-.55-.55-.55-1.2-.6-1.9-.05-.6 0-1.2 0-1.8 0-.35.1-.7.4-.95s.45-.65.6-1c.65-2.1 1.65-4.05 2.95-5.85.75-1 1.65-1.8 2.6-2.6 2.8-2.35 6.05-3.7 9.6-4.3 1.6-.25 3.25-.25 4.9-.05 1.25.15 2.4.65 3.5 1.2 3.5 1.75 6.05 4.5 7.85 7.95.35.65.55 1.4.75 2.15.15.5.35.95.85 1.25.45.25.65.7.75 1.2.1.8.1 1.6.1 2.4 0 .25-.1.45-.2.65-.45.7-.6 1.45-.65 2.25-.05 1.7-.6 3.3-1.1 4.9-.2.6-.45 1.2-.8 1.75-1.1 1.8-2.25 3.5-3.85 4.9 0 .75-.05 1.55-.05 2.35 0 .3 0 .65-.3.85-.25.2-.2.5-.2.8-.05 2-.05 4-.1 6-.05 4.45-.1 8.95-.25 13.4-.15 4.35-.15 8.7-.2 13.05 0 .7-.1 1.35-.1 2.05 0 3.4 0 6.8-.05 10.2 0 .6.1 1.2-.2 1.75-.1.2-.05.45-.05.7 0 2.5-.05 5.05-.05 7.55v.35c.05.8-.3 1.2-1 1.55q-3.525 1.725-7.35.9c-.65-.15-1.3-.4-1.9-.75-.45-.25-.65-.65-.7-1.15-.15-1.5-.35-3-.5-4.55-.1-1.1-.1-2.25-.35-3.35-.55-2.4-.5-4.85-.9-7.25-.2-1.35-.5-2.65-.65-4-.15-1.45-.4-2.85-.6-4.25-.35-2.55-.6-5.15-1-7.7-.6-3.35-1-6.7-1.4-10.05L30.95 68c-.2-1.8-.4-3.65-.6-5.45-.1-1-.3-1.95-.4-2.95-.15-1.05-.15-2-.25-3.1m1.25-.7c.6.3 1.2.5 1.85.55 1.3.45 2.65.55 4 .65 1.7.15 3.45.1 5.15.05 1.95-.05 3.75-.6 5.6-1.2l.7-.35v-1.2c0-.1-.05-.2-.1-.35q-.525 0-1.05.15c-.6.15-1.15.2-1.75.35-1.5.3-3.05.15-4.55.3-.8.05-1.6.2-2.4.15-1.75-.15-3.5-.05-5.25-.4-.45-.1-.95-.2-1.4-.3-.2-.3-.6-.2-.85-.3-.3-.15-.6-.3-1.15-.25.35.65.2 1.3.4 1.9.25.05.45.35.8.25m2 1.7c-1.15-.45-1.45-.5-2.1-.4.05.6.1 1.15.15 1.75 0 .35.2.6.5.75.2.1.45.1.65.2.75.35 1.6.5 2.4.45.35.25.75.25 1.15.25 2.25.05 4.45.15 6.7-.05 1-.1 2-.25 2.95-.45.75-.2 1.55-.4 2.15-1v-1.95q-.6.15-1.05.3c-1.4.4-2.8.7-4.2.8-1.8.15-3.6.05-5.4 0-.85 0-1.65-.3-2.5-.25-.45-.35-.95-.4-1.4-.4m6.2 55.65c.7.3 1.4.35 2.1.3.05.05.15.1.2.1 1.2-.05 2.4-.2 3.5-.65.65-.25 1.3-.45 1.8-1v-8.55c-1.2.55-2.4.8-3.6 1-1.05.2-2.05.05-3.1.15-.4 0-.75-.05-1.15-.05-.6-.25-1.25-.4-2-.45 0 1.5.4 2.9.5 4.3.15 1.45.35 2.9.5 4.3.45.35.85.45 1.25.55M37.9 103.1c.35.25.75.3 1.15.3.4.2.85.15 1.3.2 1.4.05 2.8-.15 4.15-.45.8-.2 1.6-.5 2.3-1 0-.2.05-.4.05-.6 0-2.45 0-4.85.05-7.3l.15-7.75c.05-3.8.15-7.55.2-11.35.1-4.25.05-8.45.25-12.7.05-.7 0-1.45 0-2.2-.55.2-1.05.5-1.6.6-1.75.45-3.55.6-5.35.65-1.6 0-3.2-.05-4.8-.1-.65-.1-1.25-.15-1.9-.25-.4-.3-.85-.2-1.25-.3-.45-.1-.85-.3-1.35-.25-.1.5 0 .9.05 1.25.55 2.95.7 5.95 1.1 8.9.25 1.9.5 3.8.8 5.7.35 2.55.75 5.05 1.1 7.55.3 2.05.6 4.1.85 6.15.3 2.2.55 4.35.8 6.55.25 2 .5 4.05.8 6.1.45.05.75.35 1.15.3m16.7-67c-1.1.45-2.15.65-3.2.9-1.1.25-2.15.55-3.25.75-1.05.2-2.15.3-3.2.45-1.1.15-2.2.3-3.35.4-1.05.1-2.15.15-3.2.25-1.1.05-2.2-.1-3.3.15-1.05-.3-2.15-.1-3.2-.15-1.1-.1-2.25-.1-3.35-.2-1.05-.1-2.15-.25-3.2-.4-1.1-.15-2.15-.5-3.25-.5-.1 1.2-.1 1.55.3 2.45.6.25 1.2.5 1.9.65.85.15 1.7.3 2.6.5 1.7.35 3.35.65 5.1.65 1.2 0 2.4-.05 3.6.15.25.05.55.05.85-.05.6-.15 1.25-.1 1.85-.1 2.2 0 4.4-.3 6.55-.65 2.85-.4 5.6-1.15 8.35-2.05.55-.15 1.1-.3 1.5-.75.1-.75.05-1.5-.1-2.45m-20.2-5.95c-.4.65-.6 1.3-.85 1.95-.25.55-.3 1.15-.1 1.75.3 1.15.45 2.35.4 3.55 0 .1.05.25.05.3.25.15.45.15.7 0 .05-.05.1-.15.1-.2q.225-2.175.75-4.35c.05-.2.1-.5 0-.7-.2-.8-.4-1.6-1.05-2.3m-3 7.55c.15-1.35.4-2.65.7-3.9.1-.4.05-.75-.1-1.15-.25-.6-.6-1.1-.95-1.65-.1-.2-.2-.45-.5-.35-.25.85-.55 1.65-.7 2.5.85 2.1.85 2.1.9 4.5.15.15.35.2.65.05m12.3 4.95c-.2.9-.35 1.8-.5 2.7-.05.2-.1.4-.05.6.35.8.65 1.6 1.25 2.25.6-.6.75-1.35 1.05-2.05.15-.35.1-.65-.05-1-.4-.8-.7-1.6-.95-2.45 0-.05-.1-.1-.2-.2-.15.05-.35.1-.55.15M44.4 30c-.65.8-.95 1.55-1.3 2.3-.1.3-.05.55 0 .8.3 1.2.45 2.4.4 3.65 0 .15.05.3.05.45.55.05.65 0 .65-.4 0-1.3.25-2.55.75-3.7.3-.7.25-1.3 0-1.95-.2-.35-.35-.65-.55-1.15m-7.1 7.75c.25 0 .3-.2.3-.4 0-1.4.4-2.75.8-4.1.3-1.1.1-2.25-.65-3.35-.35.45-.4.95-.65 1.4-.5.95-.5 1.9-.3 2.9.2 1.1.45 2.2.35 3.3.05.15.1.2.15.25m3.6-7.7c-.3.6-.55 1-.75 1.4-.35.65-.4 1.25-.2 1.95.3.95.4 1.95.45 2.95.05.35.05.75.05 1.1.25.05.3-.1.3-.2.25-1.45.55-2.9 1.05-4.3.05-.25.1-.45.05-.7-.25-.7-.45-1.4-.95-2.2m5.95 12.1c.2.95.05 1.85-.05 2.75 0 .25-.15.45-.05.7.15.4.75 1.2 1.3 1.65.35-.5.45-1.1.65-1.65.15-.45.1-.85-.15-1.25-.4-.7-.7-1.4-.85-2.2 0-.05-.1-.15-.15-.2-.2-.05-.4-.05-.7.2m-17.1 3.3c.3.7.25 1.55.7 2.2.35-.05.5-.3.7-.5.35-.4.75-.7 1-1.25-.3-.9-.2-1.9-.45-2.85a.8.8 0 0 0-.75-.05c-.3.85-.7 1.65-1.2 2.45m8-2.35c-.1.5-.2 1-.45 1.35-.6.85-.55 1.7-.15 2.55.15.3.15.6.45.9.5-.5.85-1.05 1.2-1.6.1-.15.1-.35.05-.6-.2-.75-.35-1.45-.55-2.2 0-.15-.1-.35-.55-.4m-3.15 0c-.2 1.1-.5 2.1-1.15 2.9-.15.15-.1.35-.1.55.05.45.15.9.45 1.35.7-.7 1.15-1.4 1.6-2.15.15-.25.2-.5.15-.8-.1-.55-.15-1.1-.25-1.65 0-.05-.1-.15-.15-.2zm13.6-10.65c-.2-.5-.4-1.05-.6-1.55l-.2-.2c-.55.45-.85 1.05-1.05 1.6.35 1.55.7 3 .7 4.7.7-.8.35-1.6.5-2.25.15-.8.4-1.55.65-2.3m-14.5-3.5c-.5-.6-.9-1.2-1.6-1.55-.2.35-.45.6-.6.9s-.35.6-.35.95c.15.45.5.75.75 1.1s.4.75.8 1c.35-.8.65-1.55 1-2.4m-5.5 8.85c.2-1.5.35-2.75.5-4 0-.1.05-.25-.05-.35-.35-.55-.6-1.2-1.25-1.55-.2.7-.4 1.35-.55 2 .65 1.15 1 2.4 1.35 3.9m12.7 10.15c.45-.35.55-.85.75-1.25.25-.45.35-.9.15-1.45-.25-.75-.5-1.5-.4-2.3-.35-.1-.55-.05-.55.25-.05.75-.1 1.55-.4 2.2-.4.95 0 1.7.45 2.55m-4.95-1.1c-.65.85-1.2 1.5-1.7 2.15 0 .35.15.55.25.75.15.2.25.5.6.6.55-.4 1.05-.9 1.5-1.45-.15-.65-.35-1.25-.65-2.05m7.85 2.45c-.45-.75-.85-1.4-1.25-2.1-.35.65-.7 1.25-1.05 1.85.35.65.6 1.25 1.2 1.7.45-.45.75-.95 1.1-1.45m-7.7-21.95c-.6.3-.75.95-1.05 1.45-.1.15-.05.4.05.55.3.5.55.95.85 1.4 0 .05.1.05.2.05.35-.7.65-1.45 1-2.15-.25-.5-.65-.9-1.05-1.3m7.65 1.55c-.2-.55-.4-1.05-.95-1.4-.4.45-.9.9-1.15 1.5.15.35.2.7.4 1 .15.3.1.7.55.85.4-.65.8-1.3 1.15-1.95m1.45 20.15c.2.45.65.7 1.1 1 .4-.6.9-1.05 1.1-1.75-.4-.4-.65-.95-1.2-1.35-.35.7-.65 1.4-1 2.1m4.75-7.7c-.05.9.1 1.85-.05 2.75-.1.75.25 1.15.85 1.55.35-.55.45-1.1.6-1.7-.65-.8-.9-1.75-1.4-2.6M25.4 37.1c.2-.05.2-.2.2-.35.05-.65.05-1.35.15-2 .2-.95-.3-1.45-.95-2-.1.35-.2.6-.25.85-.15.6-.2 1.15.25 1.7.25.35.35.8.45 1.2-.05.2-.15.45.15.6m2.05 9.55c.25-.2.4-.4.55-.55.5-.4.65-.85.55-1.45-.1-.5-.05-1.05-.1-1.55 0-.15.05-.3-.3-.35-.25.7-.6 1.4-1.05 2.05-.1.15-.1.4-.1.6.1.4.2.75.45 1.25M40.15 49c-.2-.5-.35-1.05-.7-1.5-.5.55-1.05 1-1.4 1.65.3.5.45 1 1 1.3.4-.45.85-.85 1.1-1.45m-.85-18.35c.5-.55.8-1.15 1-1.75-.3-.5-.55-.95-1-1.4-.4.3-.65.7-.85 1.15.3.65.55 1.3.85 2M35.7 51.3c.3.35.45.6.7.8.15.15.3.25.45.35.5-.25.95-.6 1.25-1.1-.25-.5-.5-1-1-1.35-.45.45-.9.8-1.4 1.3m-9.8-8.95c-.55.6-.95 1-1.4 1.5-.05.2 0 .55.15.85.1.3 0 .65.3.9.45-.15.75-.4 1-.75-.05-.8-.05-1.55-.05-2.5m6.85-15.85.75.75c.25.25.5.45.75.7.35-.55.7-.95.8-1.5-.15-.3-.45-.4-.7-.55s-.5-.45-.85-.4c-.3.35-.6.6-.75 1m9.1 25.1c-.4-.5-.65-1.1-1.25-1.5-.35.4-.65.8-1 1.2.4.5.7.95 1.3 1.2.35-.25.7-.4.95-.9M29 31.9c.3-.9.55-1.7.8-2.5-.2-.3-.35-.6-.7-.7-.55.55-.8 1.25-1.1 1.95.2.3.4.6.65.85.05.2.15.25.35.4M32.95 49c-.3-.55-.3-1.15-.7-1.55-.55.5-1.05.95-1.45 1.55.35.35.35.85.85 1.15.5-.25.8-.7 1.3-1.15M47 29.45c-.3-.6-.55-1.15-1-1.5-.35.3-.65.65-.85 1.05.3.6.55 1.2.85 1.9.3-.55.6-.95 1-1.45m-19.3 18.3c.2.65.35 1.2.85 1.6.4-.25.75-.45.95-.85-.2-.6-.35-1.2-.6-1.9-.45.35-.85.7-1.2 1.15m13.4-19.8c.35-.6.9-.9 1-1.45-.3-.5-.7-.8-1.15-1.05-.4.35-.8.65-.95 1.2.35.4.65.8 1.1 1.3m4.45 23c-.35-.35-.6-.7-1.05-.9-.35.55-.9.9-1.1 1.55.3.35.6.55 1.05.6.4-.4.75-.85 1.1-1.25M26.7 31c-.3-.4-.55-.6-.9-.75-.35.4-.65.9-.65 1.5.3.3.6.6.9.95.4-.55.45-1.15.65-1.7m26.35 14.3c-.3-.25-.55-.45-.85-.5-.3.5-.5 1-.6 1.55.25.3.5.5.85.6.35-.5.4-1.1.6-1.65M37.8 53.1c.3.6.7.65 1.15.6.35 0 .7-.1.85-.5-.3-.4-.6-.75-1.05-1-.35.3-.65.6-.95.9m12.75-20.6c-.15-.45-.15-.85-.5-1.1-1 .85-.75 1.8-.25 2.85.25-.6.5-1.15.75-1.75m-17.4 19.45c.45-.2.75-.45 1.05-.9-.35-.25-.4-.75-.8-.95-.3.05-.4.25-.6.4-.2.2-.45.3-.45.65.2.3.4.6.8.8m5.3-14.4c.55.3.85.2.9-.25.05-.65 0-1.3-.05-1.9 0-.2-.05-.45-.35-.55-.25.9-.4 1.8-.5 2.7m9.95 13.5c.1.3.3.45.6.5.5-.45 1.1-.85 1.4-1.55-.6-.3-1.05-.2-1.4.3-.2.2-.5.35-.6.75m-3.25-14c.7 0 .85-.1.85-.55-.05-.7-.1-1.45-.35-2.15-.4.9-.75 1.75-.5 2.7m7.45 5.05c-.05.4-.05.75-.1 1.1-.05.7-.05.7.85.95.1-.35.25-.75.3-.95-.4-.4-.7-.75-1.05-1.1m-13.75-18c-.3.25-.75.35-.75.9.3.25.65.45 1 .75.35-.3.75-.55.9-.95-.35-.25-.65-.55-1.15-.7m10.7 21.95c-.25.65-.55 1.3-.8 1.95.1.25.25.45.55.35.45-.45.8-1 .95-1.65-.2-.3-.4-.5-.7-.65M47.6 28.6c.35-.05.6-.25.8-.55l-.3-.6c-.15-.25-.25-.5-.55-.6a.9.9 0 0 0-.75.35c.25.45.55.95.8 1.4m-9.85-1c.35-.3.55-.65.7-1.05-.4-.3-.75-.6-1.1-.85-.4.15-.6.45-.65.75.35.4.7.8 1.05 1.15m11.85 2.55c-.15-.3-.3-.6-.5-.9-.05-.05-.15-.05-.25-.1-.2.15-.5.25-.65.65.15.4.25.9.6 1.3.4-.25.6-.55.8-.95m2.65 4.3c.05-.55.6-.65.6-1.15-.2-.4-.25-.85-.65-1.25-.35.25-.65.5-.5.95s.1.9.55 1.45m-.95 14.5c.2-.35.45-.7.65-1 .05-.05 0-.15 0-.25-.25-.1-.5-.35-.95-.2-.25.4-.5.85-.8 1.3.35.2.65.25 1.1.15M36.25 25c-.3-.3-.6-.65-.85-.9-.45.15-.75.4-1 .65.05.35.4.4.6.55s.4.35.75.3c.2-.1.4-.25.5-.6M29 50.3c.25.35.45.6.65.85.05.1.2.15.25.2.35 0 .6-.2.8-.5-.25-.4-.45-.8-.8-1.15-.3.15-.55.35-.9.6m24.95-8.25c.2-.65.4-1.3.25-2-.45.15-.85.2-1.1.6.25.85.25.85.85 1.4M34 52.65c.85.95.9.95 1.8.45-.3-.35-.65-.65-.95-1-.35.05-.6.25-.85.55m11.3-25.7c-.25-.4-.5-.7-.9-.9-.1.05-.25.15-.4.25-.1.1-.2.25-.3.35.25.4.45.85.85 1.1.3-.15.55-.45.75-.8m-19.3 21c.15-.1.35-.25.4-.4.15-.55.05-1.05-.3-1.6-.3.2-.7.3-.85.6.2.5.25 1.05.75 1.4M28.25 28l-.2-.2c-.65.4-1.15.95-1.65 1.5.15.35.35.5.75.55.35-.6.75-1.2 1.1-1.85m14.05 7.05c-.3.75-.65 1.45-.6 2.3 0 .05.2.15.3.15.25 0 .45-.2.45-.45.15-.65.05-1.3-.15-2m1.35-9.85c-.25-.3-.5-.6-.85-.8-.35 0-.6.1-.85.45.35.3.7.65 1.05.9.3-.1.5-.25.65-.55M41.6 53.45c.7.05 1.3.1 1.9-.25-.15-.45-.5-.65-.9-.8-.4.3-.75.55-1 1.05m-18.4-10c.45-.3.5-.35.5-.5.05-.5-.2-.95-.45-1.35-.1-.15-.35-.2-.5.1.3.45.1 1.1.45 1.75m7.05-15.1c.4-.6.85-1.15.9-2-.7.35-1.05.95-1.4 1.45.05.25.2.35.5.55M31.3 51.7c-.25.15-.5.25-.75.4.25.45.55.8 1.1.65.15-.05.3-.1.35-.3-.1-.3-.35-.5-.7-.75m17.2-15.15c.45 0 .65-.1.6-.5-.05-.35-.1-.7-.2-1.05-.05-.15-.15-.3-.35-.25-.15.6-.15 1.15-.05 1.8m-19-1c-.2.65-.3 1.3-.15 1.95 0 .05.2.15.25.15.1 0 .2-.15.2-.25-.05-.65.05-1.25-.3-1.85m-2.4 1.7c-.15-.5-.15-1.05-.45-1.6-.25.65-.35 1.2-.2 1.5.1.3.3.3.65.1m19.35 15.6c.6-.15 1.3-.15 1.65-.75-.9-.4-1.25.2-1.65.75m-.7-9.1c.1 0 .15-.05.25-.05-.05-.5.15-.95-.1-1.4-.3-.05-.45 0-.6.25q.225.525.45 1.2m-9.9-8c-.15.7-.25 1.25-.2 1.85 0 .1.1.2.25.2.05 0 .15-.05.2-.1.2-.65.2-1.25-.25-1.95m-9 12.8c-.3.1-.45.2-.35.35.15.35.35.7.55 1.05q.225.3.45 0c-.15-.55-.3-1-.65-1.4M41 24.15c.2-.15.4-.25.6-.4.05-.05.05-.15.1-.3-.6 0-1.15-.15-1.8.05.35.3.6.5 1.1.65M32.8 43.1c.05.5.1.95.15 1.55.5-.5.65-.95.6-1.45-.25-.15-.4-.2-.75-.1m15.7-1.25c.2.35.1.9.65 1.2.15-1.2.15-1.45-.1-1.55-.25 0-.4.1-.55.35m-15.65-6c-.6.75-.6 1.35-.4 2.1.7-.6.3-1.3.4-2.1M51.1 34.1c-.55.7-.55 1.25-.45 1.85 0 .05.1.1.2.1.15 0 .25-.1.25-.2.05-.5 0-1 0-1.75m-.2 7c.15.45.2.95.7 1.3.15-.5.1-.95.05-1.35-.3-.15-.5-.1-.75.05m.9-9.85c-.35-.45-.35-1-.85-1.2-.15.7-.15.7.4 1.4.1-.05.2-.1.45-.2m-4.7 19.2c.7-.15 1.05-.6 1.35-1.1-.15-.3-.35-.3-.5-.15-.25.4-.55.8-.85 1.25M46.05 26.3c.3-.05.55-.1.7-.4-.2-.25-.4-.5-.7-.55-.25.05-.4.15-.5.35.1.25.25.4.5.6M39.7 44.15c.15-.4.25-.7.15-1-.05-.1-.15-.15-.25-.2-.15 0-.35.1-.3.25 0 .3 0 .65.4.95m-2.1-20.6c-.45-.15-.85.1-1.25.2.6.65.7.65 1.25-.2M24.3 37.2c.2-.75.2-.75-.25-1.05-.1.3-.2.65.25 1.05m18.45 5.6c-.2-.15-.35-.15-.4-.05-.25.4-.2.55.25 1 .15-.35.15-.65.15-.95m10.45-8.3c-.25.25-.45.5-.35.85.8-.15.85-.25.35-.85m-29.95.95c-.3.35-.35.75-.4 1.1 0 .2.15.35.45.15.05-.35.1-.75-.05-1.25M50 28.5c-.1.5.05.75.45.85 0 0 .1-.05.1-.1.05-.3-.25-.5-.55-.75M36.35 43.75c.3-.1.4-.3.35-.5 0-.1-.1-.2-.2-.25s-.25.05-.25.15c-.05.15-.05.35.1.6m7.9-19.25c.2.35.4.5.8.3-.25-.4-.45-.5-.8-.3"/><path fill="#87d7dc" d="M35.75 61.35c1.6.05 3.2.1 4.8.1 1.8 0 3.6-.2 5.35-.65.55-.15 1-.4 1.6-.6 0 .8.05 1.5 0 2.2-.2 4.2-.15 8.45-.25 12.7-.1 3.8-.15 7.55-.2 11.35l-.15 7.75c-.05 2.45 0 4.85-.05 7.3 0 .2 0 .4-.05.6-.7.55-1.45.8-2.3 1-1.35.3-2.75.5-4.15.45-.45 0-.9.05-1.3-.2.45-.1.95.05 1.5-.2-.35-.8-.2-1.65-.25-2.45 0-.05 0-.1-.05-.1-.4-1.35-.4-2.8-.65-4.2-.1-.5-.35-1-.25-1.5.1-1-.35-1.95-.25-2.95 0-.05-.05-.15-.05-.25-.15-.95-.35-1.85-.4-2.8 0-1.1-.4-2.1-.3-3.2-.3-.65-.2-1.3-.25-2v-.25c-.4-1-.2-2.05-.4-3.05s-.1-2.05-.25-3.05c-.15-1.15-.45-2.25-.3-3.45 0-.1 0-.25-.05-.35-.3-.55-.15-1.15-.2-1.75 0-.3.05-.65-.05-.95-.2-.45-.15-.85-.15-1.3 0-.25.05-.5-.05-.7-.3-.65-.2-1.35-.2-2 0-.25.05-.5-.05-.7-.25-.55-.2-1.1-.2-1.65 0-.9-.35-1.8-.3-2.7.05-.15-.1-.3-.15-.45"/><path fill="#b0eef2" d="M35.75 61.35c.05.15.2.3.2.45-.05.9.25 1.8.3 2.7 0 .55-.05 1.1.2 1.65.1.2.05.45.05.7 0 .65-.05 1.35.2 2 .1.2 0 .45.05.7 0 .45 0 .85.15 1.3.1.3.05.65.05.95.05.6-.1 1.2.2 1.75.05.1.05.25.05.35-.15 1.15.15 2.3.3 3.45.15 1.05.05 2.1.25 3.05.2 1 0 2.05.4 3.05.05.05 0 .15 0 .25 0 .65-.05 1.35.25 2-.15 1.1.25 2.1.3 3.2 0 .95.25 1.85.4 2.8 0 .1.05.15.05.25-.1 1 .35 1.95.25 2.95-.05.55.2 1 .25 1.5.2 1.4.25 2.85.65 4.2 0 .05.05.1.05.1.05.8-.1 1.65.25 2.45-.5.25-1 .05-1.5.2-.4 0-.8 0-1.15-.3 0-.3.05-.65-.05-.95-.35-1.05-.3-2.1-.4-3.15s-.45-2.1-.3-3.2c-.3-.65-.2-1.3-.25-2 0-.1 0-.25-.05-.35-.25-.45-.15-.95-.2-1.4 0-.25 0-.5-.05-.7-.25-1.1-.45-2.25-.45-3.4 0-.15.05-.35-.05-.45-.25-.5-.2-1-.2-1.5.05-.55-.3-1.05-.25-1.65.05-.8-.2-1.55-.3-2.35-.1-1.1-.4-2.15-.4-3.3 0-.2.05-.45-.05-.6-.2-.4-.15-.85-.2-1.3 0-.4-.05-.8-.15-1.15-.2-.65-.3-1.3-.3-2-.05-1.05-.4-2.1-.25-3.2 0-.1-.05-.25-.05-.35-.15-1.05-.35-2.1-.4-3.15 0-1.1-.4-2.2-.3-3.3 0-.15-.1-.3-.15-.45-.1-.65-.15-1.35 0-2 .25-.05.45-.05.65-.1.7.15 1.3.25 1.95.3"/><path fill="#d1eaeb" d="M54.6 36.1c.15.95.2 1.7 0 2.45-.4.4-.95.55-1.5.75-2.75.85-5.5 1.65-8.35 2.05-2.15.3-4.35.6-6.55.65-.6 0-1.25-.05-1.85.1-.25.05-.55.05-.85.05-1.2-.2-2.4-.1-3.6-.15-1.7-.05-3.4-.3-5.1-.65-.85-.2-1.7-.35-2.6-.5-.7-.1-1.3-.4-1.9-.65-.35-.9-.4-1.25-.3-2.45 1.1.05 2.15.35 3.25.5 1.05.15 2.15.3 3.2.4 1.1.1 2.25.15 3.35.2 1.05.1 2.15-.1 3.2.15 1.1-.25 2.2-.1 3.3-.15 1.05-.05 2.15-.15 3.2-.25 1.1-.1 2.2-.25 3.35-.4 1.05-.15 2.15-.25 3.2-.45 1.1-.2 2.15-.5 3.25-.75 1.15-.25 2.2-.45 3.3-.9"/><path fill="#87d7dc" d="M33.85 61.1c-.2.05-.4.05-.65.1a4.5 4.5 0 0 0 0 2c.05.15.15.3.15.45-.1 1.1.25 2.2.3 3.3 0 1.05.25 2.1.4 3.15 0 .1.05.25.05.35-.15 1.1.25 2.1.25 3.2 0 .65.1 1.35.3 2 .1.4.15.8.15 1.15 0 .45-.05.85.2 1.3.1.15.05.4.05.6 0 1.1.3 2.2.4 3.3.1.8.35 1.55.3 2.35-.05.55.3 1.05.25 1.65-.05.5-.1 1.05.2 1.5.05.15.05.3.05.45 0 1.15.2 2.25.45 3.4.05.25 0 .5.05.7 0 .45-.05.95.2 1.4.05.1.05.25.05.35 0 .65-.05 1.35.25 2-.15 1.1.2 2.15.3 3.2s.05 2.15.4 3.15c.1.3.05.65.05.95-.45.05-.75-.25-1.1-.3-.25-2.1-.55-4.1-.8-6.1-.3-2.2-.55-4.35-.8-6.55-.25-2.05-.55-4.1-.85-6.15-.35-2.55-.75-5.05-1.1-7.55-.25-1.9-.5-3.8-.8-5.7-.4-2.95-.6-5.95-1.1-8.9-.05-.4-.2-.8-.05-1.25.45 0 .9.15 1.35.25.25.1.7 0 1.1.25"/><path fill="#61afb4" d="M40.05 104.6c1.05-.1 2.05 0 3.1-.15 1.2-.2 2.4-.45 3.6-1V112c-.55.55-1.2.75-1.8 1-1.15.45-2.3.55-3.5.65a.4.4 0 0 1-.2-.1c.45-.3.3-.7.2-1.1-.25-1-.45-2-.4-3 0-.2 0-.4-.05-.6-.3-.95-.25-1.95-.4-2.9-.1-.55-.2-.95-.55-1.35"/><path fill="#61aeb3" d="M33.1 54.45c1.75.3 3.5.25 5.25.4.8.05 1.6-.05 2.4-.15 1.5-.1 3.05 0 4.55-.3.6-.1 1.2-.2 1.75-.35q.525-.15 1.05-.15c.05.15.1.25.1.35v1.2c-.25.15-.45.25-.7.35-1.8.6-3.65 1.2-5.6 1.2-1.7.05-3.45.1-5.15-.05-1.35-.1-2.7-.15-4-.65.25-.1.55.05.75-.25.1-.55.25-1.2-.4-1.6M34.3 57.8c.85-.1 1.65.2 2.5.25 1.8.05 3.6.1 5.4 0 1.45-.1 2.85-.4 4.2-.8l1.05-.3v1.95c-.6.6-1.35.85-2.15 1-.95.2-1.95.4-2.95.45-2.25.2-4.45.1-6.7.05-.4 0-.8 0-1.15-.25 0-.25.05-.5-.05-.7-.2-.5-.15-1.1-.15-1.65"/><path fill="#87d7dc" d="M40.05 104.6c.3.35.45.75.5 1.25.15.95.1 1.95.4 2.9.05.2.05.4.05.6 0 1.05.2 2 .4 3 .1.35.25.8-.2 1.1q-1.125.075-2.1-.3c-.15-.7-.35-1.4-.25-2.1 0-.1-.05-.25-.05-.35-.15-1-.3-2.05-.4-3.05-.05-.45-.05-.85-.15-1.3-.15-.55-.2-1.15.05-1.7.25-.05.45-.05.65-.1.35 0 .75.05 1.1.05"/><path fill="#cce5e6" d="M34.4 30.15c.6.7.85 1.5 1.05 2.3.05.2.05.5 0 .7-.4 1.45-.6 2.9-.75 4.35 0 .05-.05.15-.1.2-.2.15-.45.15-.7 0 0-.1-.05-.2-.05-.3.05-1.2-.05-2.4-.4-3.55-.15-.6-.15-1.15.1-1.75.3-.65.45-1.3.85-1.95M31.4 37.7c-.3.15-.5.1-.65-.05-.1-2.4-.1-2.4-.9-4.5.1-.85.45-1.7.7-2.5.35-.1.4.2.5.35.35.55.7 1.05.95 1.65.15.4.2.75.1 1.15-.3 1.25-.55 2.55-.7 3.9"/><path fill="#60adb2" d="M38.9 104.55c-.2.05-.4.05-.65.1-.25.55-.2 1.15-.05 1.7.1.45.1.85.15 1.3.1 1 .25 2.05.4 3.05 0 .1.05.25.05.35-.05.75.15 1.4.25 2.1-.4-.1-.75-.2-1.15-.5-.15-1.4-.4-2.85-.5-4.3-.15-1.4-.5-2.8-.5-4.3.8.05 1.4.25 2 .5"/><path fill="#cce5e6" d="M43.7 42.65c.2-.05.35-.1.55-.15l.2.2c.2.85.55 1.65.95 2.45.15.35.2.65.05 1-.25.7-.4 1.45-1.05 2.05-.6-.65-.95-1.45-1.25-2.25-.05-.15 0-.4.05-.6.15-.9.3-1.8.5-2.7"/><path fill="#cae2e3" d="M44.4 30c.2.5.35.8.5 1.15.25.65.3 1.25 0 1.95-.45 1.2-.75 2.45-.75 3.7 0 .4-.05.45-.65.4 0-.15-.05-.3-.05-.45.05-1.25-.1-2.45-.4-3.65-.05-.3-.1-.55 0-.8.4-.75.7-1.5 1.35-2.3"/><path fill="#c9e1e2" d="M37.3 37.75a.4.4 0 0 1-.1-.2c.1-1.15-.1-2.25-.35-3.3-.2-1-.2-1.95.3-2.9.25-.45.3-1 .65-1.4.8 1.05 1 2.25.65 3.35-.4 1.35-.85 2.65-.8 4.1-.05.15-.05.35-.35.35M40.9 30.05c.5.8.7 1.5.9 2.25.05.25.05.5-.05.7-.45 1.4-.8 2.85-1.05 4.3 0 .1-.05.25-.3.2 0-.35 0-.75-.05-1.1-.05-1-.15-2-.45-2.95-.2-.7-.15-1.35.2-1.95.25-.45.5-.85.8-1.45"/><path fill="#cae3e4" d="M46.85 42.15c.3-.25.55-.25.8-.25.05.05.1.15.15.2.1.8.4 1.55.85 2.2.25.4.3.8.15 1.25-.2.55-.35 1.15-.65 1.65-.55-.45-1.2-1.25-1.3-1.65-.1-.25 0-.45.05-.7-.05-.85.15-1.75-.05-2.7"/><path fill="#c8e0e1" d="M29.75 45.45c.5-.8.85-1.6 1.15-2.45.3-.1.5-.1.75.05.25.9.15 1.95.45 2.85-.25.55-.65.85-1 1.25-.2.2-.35.45-.7.5-.4-.65-.35-1.45-.65-2.2"/><path fill="#cbe4e5" d="M37.75 43.1c.45.05.5.25.55.45.2.75.4 1.45.55 2.2.05.2.05.4-.05.6-.35.55-.75 1.1-1.2 1.6-.25-.3-.3-.6-.45-.9-.45-.9-.5-1.75.15-2.55.3-.4.4-.9.45-1.4"/><path fill="#c8e0e1" d="M34.6 43.1h.55c.05.1.15.15.15.2.1.55.15 1.1.25 1.65.05.3 0 .55-.15.8-.45.75-.95 1.45-1.6 2.15-.35-.45-.4-.9-.45-1.35 0-.2 0-.4.1-.55.65-.8.95-1.8 1.15-2.9"/><path fill="#85d5d9" d="M34.3 57.8c0 .55-.05 1.15.2 1.7.1.2.05.45.05.7q-1.275.075-2.4-.45c.1-.7-.1-1.4-.2-2 .35-.25.7-.1 1-.2.45-.05.95 0 1.35.25"/><path fill="#c6dede" d="M48.2 32.45c-.25.75-.5 1.5-.7 2.3-.15.7.25 1.5-.5 2.25 0-1.7-.35-3.2-.7-4.7.25-.55.55-1.15 1.05-1.6l.2.2c.25.5.45 1 .65 1.55"/><path fill="#cae3e3" d="M33.7 28.95c-.35.85-.65 1.6-1 2.45-.4-.3-.55-.7-.8-1-.25-.35-.6-.65-.75-1.1 0-.35.2-.65.35-.95q.225-.45.6-.9c.7.3 1.1.9 1.6 1.5"/><path fill="#cae3e4" d="M28.2 37.8c-.35-1.5-.7-2.75-1.35-3.95.2-.65.35-1.3.55-2 .65.4.9 1 1.25 1.55.05.1.05.25.05.35-.15 1.25-.3 2.5-.5 4.05"/><path fill="#c8e0e1" d="M40.9 47.95c-.5-.8-.9-1.55-.45-2.55.3-.7.35-1.45.4-2.2 0-.3.25-.35.55-.25-.1.8.15 1.55.4 2.3.2.55.1 1-.15 1.45-.2.4-.3.85-.75 1.25"/><path fill="#85d4d9" d="M33.1 54.45c.65.45.5 1.05.45 1.65-.2.3-.5.2-.75.25-.65-.05-1.25-.25-1.85-.55.05-.55-.15-1.1.1-1.6.25-.05.4-.05.6-.05.5.1 1 .2 1.45.3"/><path fill="#c7dfe0" d="M35.95 46.85c.3.75.5 1.4.75 2.05-.45.55-.95 1.05-1.5 1.45-.35-.1-.45-.4-.6-.6s-.3-.4-.25-.75c.4-.6.95-1.3 1.6-2.15"/><path fill="#c8e0e1" d="M43.8 49.3c-.35.5-.65 1-1.15 1.45-.6-.45-.85-1.05-1.2-1.7.35-.6.7-1.2 1.05-1.85.5.7.85 1.35 1.3 2.1"/><path fill="#c4dcdd" d="M36.1 27.35c.4.4.8.8 1.05 1.35-.3.7-.65 1.4-1 2.15-.1 0-.2 0-.2-.05-.3-.45-.6-.95-.85-1.4-.1-.2-.15-.4-.05-.55.3-.6.45-1.2 1.05-1.5"/><path fill="#c8e0e1" d="M43.75 28.9c-.4.65-.75 1.3-1.15 1.95-.4-.15-.4-.55-.55-.85s-.25-.65-.4-1c.25-.6.75-1 1.15-1.5.55.35.75.85.95 1.4"/><path fill="#c6ddde" d="M45.2 49.05c.35-.7.65-1.35 1-2.1.5.4.75.95 1.2 1.35-.2.7-.7 1.15-1.1 1.75-.5-.3-.9-.55-1.1-1"/><path fill="#b9cfd0" d="M49.95 41.35c.5.85.75 1.8 1.4 2.55-.15.6-.25 1.15-.6 1.7-.6-.35-.95-.8-.85-1.55.15-.9.05-1.8.05-2.7"/><path fill="#c0d8d8" d="M25.4 37.1c-.3-.15-.15-.4-.2-.6-.1-.45-.15-.9-.45-1.2-.4-.55-.35-1.1-.25-1.7.05-.25.15-.5.25-.85.65.55 1.15 1.05.95 2-.15.65-.1 1.35-.15 2 0 .15 0 .3-.15.35"/><path fill="#c1d9d9" d="M27.45 46.65c-.25-.45-.35-.85-.35-1.25 0-.2 0-.45.1-.6.45-.65.75-1.35 1.05-2.05.35 0 .3.2.3.35 0 .5 0 1.05.1 1.55.1.65-.05 1.1-.55 1.45-.25.15-.4.3-.65.55"/><path fill="#c3dbdc" d="M40.15 49c-.3.55-.7.95-1.1 1.45-.55-.3-.7-.85-1-1.3.35-.65.9-1.1 1.4-1.65.35.5.5 1 .7 1.5"/><path fill="#c3dadb" d="M39.3 30.65c-.3-.7-.55-1.35-.85-2 .2-.45.4-.85.85-1.15.45.4.7.9 1 1.4-.2.65-.5 1.2-1 1.75"/><path fill="#c4dbdc" d="M35.7 51.3c.5-.45.95-.85 1.4-1.25.5.35.75.85 1 1.35-.35.45-.75.8-1.25 1.1-.15-.1-.35-.25-.45-.35-.25-.3-.4-.55-.7-.85"/><path fill="#c2d9da" d="M25.9 42.35v2.5c-.25.35-.55.6-1 .75-.3-.25-.2-.6-.3-.9s-.15-.6-.15-.85c.5-.5.9-.9 1.45-1.5"/><path fill="#c5ddde" d="M32.75 26.5q.3-.6.75-.9c.4-.05.6.25.85.4s.55.2.7.55c-.1.5-.45.95-.8 1.5-.25-.25-.5-.5-.75-.7-.25-.3-.5-.6-.75-.85"/><path fill="#c3dbdc" d="M41.85 51.6c-.25.5-.65.65-.95.95-.55-.25-.9-.7-1.3-1.2.35-.4.7-.8 1-1.2.6.35.85.95 1.25 1.45"/><path fill="#c7dfe0" d="M29 31.9c-.2-.15-.3-.25-.4-.35-.2-.25-.4-.55-.65-.85.35-.7.55-1.4 1.1-1.95.35.1.5.35.7.7-.2.75-.45 1.6-.75 2.45"/><path fill="#c7dee0" d="M32.95 49c-.5.4-.8.9-1.35 1.15-.45-.3-.5-.85-.85-1.15.45-.65.95-1.05 1.45-1.55.5.45.5 1 .75 1.55"/><path fill="#61acb1" d="M32.95 57.5c-.3.1-.65-.05-1 .2.1.65.25 1.35.2 2-.2-.05-.45-.1-.65-.2-.3-.15-.5-.4-.5-.75-.05-.6-.1-1.15-.15-1.75.65 0 .95.05 2.1.5"/><path fill="#c2dada" d="M47 29.45c-.35.5-.65.9-1.05 1.4-.3-.65-.6-1.25-.85-1.9.25-.4.5-.75.85-1.05.5.45.75.95 1.05 1.55"/><path fill="#c1d9d9" d="M27.7 47.75c.35-.5.75-.8 1.2-1.2.2.7.4 1.3.6 1.9-.2.45-.55.6-.95.85-.45-.35-.6-.9-.85-1.55"/><path fill="#c6dedf" d="M41.1 27.95c-.45-.5-.75-.9-1.1-1.3.15-.5.55-.85.95-1.2.45.25.85.55 1.15 1.05-.15.6-.65.85-1 1.45"/><path fill="#c0d7d7" d="M45.55 50.95c-.35.45-.75.85-1.1 1.25-.45-.05-.75-.25-1.05-.6.2-.65.75-1 1.1-1.55.45.2.7.55 1.05.9"/><path fill="#c3dadb" d="M26.7 31c-.2.55-.25 1.15-.7 1.65-.3-.35-.6-.65-.9-.95 0-.6.25-1.1.65-1.5.4.15.65.4.95.8"/><path fill="#5aa0a4" d="M31.7 54.15c-.2 0-.4.05-.6.05-.25.5-.05 1.05-.1 1.6-.35.05-.55-.25-.9-.3-.2-.65-.05-1.25-.4-1.9.5-.05.8.1 1.15.25.25.1.6 0 .85.3"/><path fill="#bdd3d4" d="M53.05 45.3c-.2.55-.25 1.15-.65 1.6-.35-.1-.55-.3-.85-.6.1-.55.3-1.1.6-1.55.35.1.55.25.9.55"/><path fill="#bdd4d5" d="M37.8 53.1c.35-.3.65-.6.95-.9.45.25.75.6 1.05 1-.15.4-.5.5-.85.5-.45 0-.9 0-1.15-.6"/><path fill="#bbd2d3" d="M50.55 32.5c-.25.6-.5 1.15-.75 1.75-.5-1.05-.75-2 .25-2.85.3.25.35.65.5 1.1"/><path fill="#c3dadb" d="M33.15 51.95c-.4-.2-.6-.5-.8-.8 0-.35.25-.45.45-.65.15-.15.3-.35.6-.4.4.2.4.7.8.95-.3.45-.65.7-1.05.9"/><path fill="#b1c6c7" d="M38.45 37.55c.1-.9.2-1.8.5-2.7.3.05.35.3.35.55.05.65.05 1.3.05 1.9 0 .45-.3.55-.9.25"/><path fill="#bbd2d3" d="M48.4 51.05c.1-.4.4-.55.6-.8.35-.5.8-.55 1.4-.3-.3.7-.9 1.15-1.4 1.55-.35-.05-.5-.15-.6-.45"/><path fill="#bad1d2" d="M45.15 37.05c-.2-.95.15-1.8.45-2.7.3.7.3 1.45.35 2.15.05.45-.1.55-.8.55"/><path fill="#b5cbcc" d="M52.6 42.1c.35.4.7.7 1.05 1.1-.05.25-.2.6-.3.95-.9-.25-.9-.3-.85-.95 0-.35.05-.7.1-1.1"/><path fill="#c0d7d8" d="M38.85 24.1c.5.15.8.4 1.1.65-.15.45-.55.65-.9.95-.35-.25-.65-.5-1-.75.05-.45.5-.55.8-.85"/><path fill="#bdd4d4" d="M49.55 46.05c.3.1.5.35.7.65-.15.65-.5 1.2-.95 1.65-.35.05-.45-.1-.55-.35.25-.65.5-1.3.8-1.95"/><path fill="#b6cccc" d="M47.6 28.6c-.3-.45-.55-.95-.85-1.4a.9.9 0 0 1 .75-.35c.3.1.4.35.55.6l.3.6c-.15.3-.35.5-.75.55"/><path fill="#c1d9d9" d="M37.75 27.6c-.35-.4-.65-.75-1.05-1.15.05-.3.2-.6.65-.75.35.25.7.55 1.1.85-.2.4-.35.75-.7 1.05"/><path fill="#b7cdce" d="M49.6 30.15c-.2.4-.4.7-.75.95-.35-.4-.45-.9-.6-1.3.1-.4.4-.5.65-.65.15.05.25.05.25.1z"/><path fill="#b6cccc" d="M52.25 34.45c-.4-.55-.4-1-.5-1.45-.15-.5.15-.7.5-.95.35.4.45.85.65 1.25-.1.5-.6.65-.65 1.15"/><path fill="#c2dada" d="M51.3 48.95c-.45.05-.75.05-1.1-.2.3-.45.55-.9.8-1.3.45-.15.65.15.95.2 0 .1.05.2 0 .25-.25.4-.45.7-.65 1.05"/><path fill="#bbd2d3" d="M36.25 25c-.15.35-.3.5-.55.6-.3.05-.5-.15-.75-.3-.2-.15-.55-.2-.6-.55.25-.3.55-.55 1-.65.35.3.6.6.9.9M29 50.3c.35-.25.6-.45.9-.65.35.35.55.75.8 1.15-.2.3-.45.5-.8.5-.1-.05-.2-.1-.25-.2-.2-.2-.4-.45-.65-.8"/><path fill="#adc2c3" d="M53.95 42.05c-.6-.55-.6-.55-.85-1.4.25-.4.65-.45 1.1-.6.15.7-.1 1.35-.25 2"/><path fill="#b5cbcc" d="M34 52.65c.2-.3.5-.5.85-.55.35.35.65.65.95 1-.85.5-.9.5-1.8-.45"/><path fill="#bbd1d2" d="M45.3 26.95c-.25.35-.45.6-.8.85-.4-.25-.55-.7-.85-1.1.1-.15.2-.25.3-.35s.25-.15.4-.25c.45.15.7.45.95.85"/><path fill="#b6cccd" d="M26 47.95c-.5-.35-.55-.95-.8-1.35.2-.35.55-.4.85-.6.35.55.45 1.05.3 1.6 0 .15-.2.25-.35.35"/><path fill="#acc1c2" d="M28.25 28c-.35.65-.75 1.25-1.1 1.85-.35-.05-.55-.2-.75-.55.5-.55 1-1.1 1.65-1.5z"/><path fill="#a7bbbb" d="M42.3 35.05c.15.65.25 1.3.15 1.95-.05.25-.2.45-.45.45-.1 0-.3-.1-.3-.15-.05-.75.3-1.5.6-2.25"/><path fill="#b7cdcd" d="M43.65 25.2c-.1.3-.35.45-.65.6l-1.05-.9c.2-.4.5-.45.85-.45.3.15.6.45.85.75"/><path fill="#b7cece" d="M41.6 53.45c.25-.5.6-.75 1-1 .4.15.7.35.9.8-.6.3-1.2.25-1.9.2"/><path fill="#b4cacb" d="M23.2 43.45c-.35-.6-.15-1.25-.4-1.75.2-.3.4-.25.5-.1.25.4.45.85.45 1.35-.05.15-.05.2-.55.5"/><path fill="#b2c8c9" d="M30.25 28.35c-.3-.15-.45-.3-.55-.55.35-.5.7-1.05 1.4-1.45.05.85-.4 1.35-.85 2"/><path fill="#b5cbcb" d="M31.3 51.7c.35.25.6.45.7.75-.05.2-.2.25-.35.3-.6.2-.85-.15-1.1-.65.25-.1.5-.25.75-.4"/><path fill="#91a3a3" d="M48.5 36.55c-.05-.65-.05-1.2.1-1.8.25-.05.35.1.35.25.05.35.15.7.2 1.05 0 .4-.2.5-.65.5"/><path fill="#99abac" d="M29.5 35.55c.35.6.3 1.25.3 1.85 0 .1-.1.2-.2.25-.1 0-.25-.1-.25-.15-.15-.7-.05-1.35.15-1.95"/><path fill="#93a5a6" d="M27.1 37.25c-.35.2-.6.2-.7-.05-.1-.35 0-.85.2-1.5.35.5.35 1.05.5 1.55"/><path fill="#9aadad" d="M46.45 52.85c.4-.55.75-1.15 1.65-.75-.4.6-1.05.6-1.65.75"/><path fill="#c5dddd" d="M45.75 43.75c-.15-.4-.3-.85-.45-1.2.15-.25.3-.3.6-.25.25.45.05.95.1 1.4-.1 0-.15 0-.25.05"/><path fill="#aec2c3" d="M35.85 35.75c.45.65.45 1.3.25 1.95 0 .05-.1.1-.2.1-.15.05-.25-.1-.25-.2-.05-.55.1-1.15.2-1.85"/><path fill="#9caeaf" d="M26.85 48.55c.35.4.5.9.65 1.35-.15.25-.35.2-.45 0-.2-.35-.4-.65-.55-1.05-.1-.1.05-.25.35-.3"/><path fill="#a9bebf" d="M41 24.15c-.45-.15-.75-.35-1.1-.65.65-.2 1.2-.05 1.8-.05-.05.15-.05.25-.1.3-.2.15-.4.25-.6.4"/><path fill="#b9cfd0" d="M32.8 43.1c.35-.1.55-.05.75.1.05.5-.1.95-.6 1.45-.1-.6-.1-1.05-.15-1.55"/><path fill="#869797" d="M48.5 41.85c.15-.25.35-.3.55-.35.25.1.25.35.1 1.55-.6-.3-.45-.85-.65-1.2"/><path fill="#93a4a5" d="M32.85 35.85c-.15.8.3 1.5-.4 2.1-.2-.75-.15-1.35.4-2.1"/><path fill="#94a5a6" d="M51.1 34.1v1.75c0 .1-.1.2-.25.2a.4.4 0 0 1-.2-.1c-.1-.6-.1-1.15.45-1.85"/><path fill="#abbfc0" d="M50.9 41.1c.3-.2.45-.25.7-.05.05.4.1.85-.05 1.35-.5-.35-.5-.85-.65-1.3"/><path fill="#acc0c1" d="M51.8 31.25c-.25.1-.35.15-.45.15-.55-.7-.55-.7-.4-1.4.5.3.5.8.85 1.25"/><path fill="#9fb2b2" d="M47.1 50.45c.3-.4.55-.85.9-1.25.15-.15.35-.15.5.15-.35.5-.7.95-1.4 1.1"/><path fill="#aec2c3" d="M46.05 26.3c-.25-.2-.4-.35-.5-.6.1-.2.25-.3.5-.35.3.05.5.3.7.55-.1.3-.4.35-.7.4"/><path fill="#91a2a3" d="M39.7 44.15c-.4-.25-.4-.6-.45-.95 0-.15.15-.25.3-.25.1 0 .25.1.25.2.15.3.05.6-.1 1"/><path fill="#869696" d="M37.6 23.55c-.55.85-.6.9-1.25.2.4-.1.75-.35 1.25-.2"/><path fill="#555f5f" d="M24.3 37.2c-.45-.4-.3-.7-.25-1.05.45.25.45.25.25 1.05"/><path fill="#93a5a6" d="M42.75 42.8c0 .25 0 .6-.15.95-.45-.45-.45-.65-.25-1 .05-.1.2-.1.4.05"/><path fill="#8b9b9c" d="M53.2 34.5c.5.6.45.7-.35.85-.1-.35.1-.6.35-.85"/><path fill="#9aacad" d="M23.25 35.45c.15.5.1.9.05 1.3-.3.15-.45.05-.45-.15 0-.4.05-.8.4-1.15"/><path fill="#5f6a6b" d="M50 28.5c.3.25.6.4.55.8 0 .05-.05.1-.1.1-.45-.1-.55-.4-.45-.9"/><path fill="#636e6f" d="M36.35 43.75c-.15-.2-.15-.4-.1-.6.05-.1.15-.2.25-.15s.2.15.2.25c0 .2-.05.4-.35.5"/><path fill="#4a5354" d="M44.25 24.5c.35-.15.6-.1.8.3-.4.2-.6.05-.8-.3"/></g></svg>