<svg xmlns="http://www.w3.org/2000/svg" width="243.9" height="117.656" viewBox="-0.25 -1.006 243.9 117.656"><path fill="#174832" d="m200.9 53.75-17.45 6.95L98.8 36.2c-12.9-3.75-23.75-12.6-29.95-24.55l-.7-1.3c-.5-1.05-.1-2.3.95-2.8.15-.1.35-.15.55-.2L92.6 3l113.5 32.85z"/><g fill="none" stroke="#151b22" stroke-width=".5"><path d="m194 32.6-8.35 27.9M182.6 29.3l-8.35 28.4M171.2 26l-8.35 28.4M159.8 22.7l-8.35 28.4M148.4 19.4l-8.35 28.4M137 16.1l-8.35 28.4M125.6 12.8l-8.35 28.4M114.2 9.5l-8.35 28.4M102.8 6.2l-8.35 28.45M91.4 3.4l-8.35 27.95M78.1 6.3l-3.7 12.9"/></g><path fill="#00b694" d="M194.05 31.8 85.55.4C81.5-.75 79.1 4.75 82.7 6.9l41.1 24.6c14.75 8.8 31.9 12.7 49 11.1l21.95-2.1z"/><g fill="none" stroke="#1b7e64" stroke-width=".5"><path d="M193.85 34.75 81.4 2.25M188 40.8 95 14.4M166.75 42.6 121 29.7"/></g><path fill="none" stroke="#151b22" stroke-linecap="round" d="m232.45 11.05-6 33.65 15.95-14.95"/><path fill="#00c0a5" d="m215.7 33.65 7.35 2.1c3.9 1.15 6.15 5.25 5 9.15a7.3 7.3 0 0 1-2 3.3L212.1 61.4c-1.7 1.55-4.3 1.45-5.85-.2-1-1.05-1.35-2.55-.95-3.95L211.45 36c.5-1.85 2.4-2.9 4.25-2.35q0-.075 0 0"/><path fill="none" stroke="#174832" stroke-linecap="round" stroke-width=".5" d="m208.1 62.05 10.8-16.55"/><path fill="#ecf135" d="M220.25 37.55c1.504 0 2.866.611 3.853 1.597A5.44 5.44 0 0 1 225.7 43a5.44 5.44 0 0 1-1.597 3.853 5.44 5.44 0 0 1-3.853 1.597 5.44 5.44 0 0 1-3.853-1.597A5.44 5.44 0 0 1 214.8 43c0-1.504.611-2.866 1.597-3.853a5.44 5.44 0 0 1 3.853-1.597"/><path fill="#151b22" d="M220.25 39.65c.924 0 1.762.375 2.368.982.607.606.982 1.444.982 2.368s-.375 1.762-.982 2.368a3.34 3.34 0 0 1-2.368.982 3.34 3.34 0 0 1-2.368-.982A3.34 3.34 0 0 1 216.9 43c0-.924.375-1.762.982-2.368a3.34 3.34 0 0 1 2.368-.982"/><path fill="none" stroke="#151b22" stroke-linecap="round" stroke-width="1.5" d="m1 94.3 15.95-3.5 67.2-63.05"/><path fill="#ecf135" d="M161.2 38 84.05 27.4c-1.2-.2-2.4.6-2.6 1.8-.1.65.05 1.35.5 1.9.3.35.7.6 1.15.7l75.4 21.7c4.2 1.2 8.6-1.2 9.8-5.4s-1.2-8.6-5.4-9.8c-.55-.15-1.1-.25-1.7-.3"/><path fill="none" stroke="#151b22" stroke-linecap="round" stroke-width="1.5" d="m97.85 90.25 16.35-3.6 26.95-42.5"/><path fill="#151b22" d="M141.75 41.2a2.246 2.246 0 0 1 2.25 2.25 2.246 2.246 0 0 1-2.25 2.25 2.246 2.246 0 0 1-2.25-2.25 2.246 2.246 0 0 1 2.25-2.25M184.35 50.7c1.379 0 2.629.56 3.535 1.465a5 5 0 0 1 1.465 3.535c0 1.379-.56 2.629-1.465 3.535a5 5 0 0 1-3.535 1.465 5 5 0 0 1-3.535-1.465 5 5 0 0 1-1.465-3.535c0-1.379.56-2.629 1.465-3.535a5 5 0 0 1 3.535-1.465"/><path fill="none" stroke="#151b22" stroke-width="2.5" d="m184.95 56.1-43.9-12.9"/><path fill="#54923a" d="m182.2 27.75 29.15 8.45-8.3 28.6c-.7 2.45-3.25 3.85-5.7 3.15a4.57 4.57 0 0 1-3.05-2.85L181 29.05c-.2-.5.1-1.1.6-1.3q.3-.075.6 0"/><g fill="#174832"><path d="M192.65 33.7c.993 0 1.893.403 2.545 1.055a3.6 3.6 0 0 1 1.055 2.545c0 .993-.403 1.893-1.055 2.545a3.6 3.6 0 0 1-2.545 1.055 3.6 3.6 0 0 1-2.545-1.055 3.6 3.6 0 0 1-1.055-2.545c0-.993.403-1.893 1.055-2.545a3.6 3.6 0 0 1 2.545-1.055M201.45 43.75c.993 0 1.893.403 2.545 1.055a3.6 3.6 0 0 1 1.055 2.545c0 .993-.403 1.893-1.055 2.545a3.6 3.6 0 0 1-2.545 1.055 3.6 3.6 0 0 1-2.545-1.055 3.6 3.6 0 0 1-1.055-2.545c0-.993.403-1.893 1.055-2.545a3.6 3.6 0 0 1 2.545-1.055"/></g><path fill="#174832" d="M194.3 65.1a4.57 4.57 0 0 0 3.05 2.85c2.45.7 5-.7 5.7-3.15l1.2-4.15-13.05-3.8zM204.7 59.3l2-6.9c-.3-.1-.65-.15-1-.15-2 0-3.6 1.6-3.6 3.6 0 1.65 1.1 3 2.6 3.45M189.4 51.75h.15c2 0 3.6-1.6 3.6-3.6s-1.6-3.6-3.6-3.6c-.95 0-1.8.35-2.45.95zM202.4 33.6c-.85.65-1.4 1.7-1.4 2.85 0 2 1.6 3.6 3.6 3.6s3.6-1.6 3.6-3.6c0-.45-.1-.85-.2-1.2zM182.95 27.95c-.1.3-.15.65-.15 1 0 2 1.6 3.6 3.6 3.6 1.65 0 3-1.1 3.45-2.6z"/><path fill="none" stroke="#151b22" stroke-linecap="round" stroke-width="1.5" d="m173.5 115.4-2.85-12.6 21.55-17.2 6.55-21.7"/><path fill="#151b22" d="M198.6 59c1.242 0 2.367.504 3.181 1.319A4.48 4.48 0 0 1 203.1 63.5a4.48 4.48 0 0 1-1.319 3.181A4.48 4.48 0 0 1 198.6 68a4.48 4.48 0 0 1-3.181-1.319A4.48 4.48 0 0 1 194.1 63.5c0-1.242.504-2.367 1.319-3.181A4.48 4.48 0 0 1 198.6 59"/></svg>