<svg xmlns="http://www.w3.org/2000/svg" width="76.31" height="79.324" viewBox="-0.5 -0.5 76.31 79.324"><path fill="#0cc" d="M75.31 13.754c0 2.93-1.05 5.7-2.96 7.91-1.71 2.09-3.9 3.69-6.4 4.72.05 2.27.12 5.04.21 8.26v4.83c.27 6.31.39 8.83.44 9.83q.075.57.09 1.17c.06 3.07-.03 7.46-.27 13.43-.02.46-.07.92-.15 1.37-.43 2.57-1.6 5.07-3.48 7.42-2.49 3.1-5.92 5.07-9.68 5.54q-.69.09-1.38.09c-2.17 0-3.67-.56-6.15-1.49a11.02 11.02 0 0 1-6.49-6.58c-2.48.93-5.05 1.3-7.62 1.09-1.22-.06-3.02.03-5.31.25-.34.04-1.4.2-3.79.73-.12.03-.24.05-.36.07-2.46.47-4.84.65-7 .56-.16-.01-.33-.02-.49-.04-6.96-.61-13.99-5.33-13.99-14.47 0-1.54.25-3.06.74-4.54q.465-1.365 1.26-2.58c1.26-1.92 3.81-4.78 8.29-6.2v-1.72c0-.81.09-1.62.27-2.4l-.16-2.69c0-.07-.01-.14-.01-.22-.05-1.22-.13-2.31-.26-3.24-.04-.29-.07-.58-.08-.87-.04-.57-.07-1.19-.11-1.87C4.23 30.534 0 25.104 0 18.064c0-3.3 1.35-6.33 4-8.99 2.05-2.07 4.36-3.37 6.86-3.89 1.8-.38 3.83-.47 7.1-.32.33 0 .99-.03 2.19-.1 1.65-.11 2.8-.16 3.64-.16 2.95 0 5.38 1.11 7.13 2.13 2.6-3.05 6.1-4.94 10.15-5.47.29-.03.57-.06.86-.08l3.33-.17c.12-.01.24-.01.36-.01 2.69-.06 7.14-.36 13.24-.92 3.33-.36 6.66.44 9.73 2.34 4.27 2.63 6.72 6.76 6.72 11.33"/><path fill="#fff" d="M63.957 14.549q-1.408 1.848-4.047 2.111-4.311.264-4.926.439-.088 1.848-.088 5.894.043 4.135.264 11.963v4.75q.529 12.49.528 10.994.087 4.223-.264 12.755-.177 1.056-1.231 2.375-1.057 1.319-2.463 1.495-.177 0-2.287-.791-.264-1.144-.704-1.936-1.761-2.638-4.749-7.477-1.937-3.781-6.069-11.348-2.904-4.044-8.708-13.018-.617-1.23-2.111-3.694h-.176a50 50 0 0 0 .088 7.828q0 .177.132.616.132.44.132.703v6.069q0 4.223-.352 6.686.089 1.23.443 3.606 1.24.704 3.015.703.709 0 1.95-.176 1.24-.176 1.862-.176 2.57 0 3.725 1.847.439 1.76-1.848 2.815-1.935.969-3.782.791-2.639-.174-7.301.279-1.672.188-5.014.932-2.464.462-4.486.373-3.958-.351-3.958-3.519 0-.528.175-1.056 1.394-2.11 4.971-2.111h2.705q1.743 0 2.441-.615V43.397q.35-.968.265-2.728-.09-1.493-.176-2.99a45 45 0 0 0-.353-4.311 1454 1454 0 0 1-.439-8.443q-.001.264.088-1.672.087-1.143-.571-1.583-.66-.44-2.067-.44-.705 0-2.111.177-1.408.176-2.111.176-3.343 0-3.342-3.519 0-.44.787-1.231.788-.791 1.314-.88 1.137-.263 4.641-.088 1.05 0 3.107-.132 2.059-.132 2.935-.132.612 0 2.014.895 1.401.894 1.927 1.787.089.001 4.964 8.861a98 98 0 0 0 4.452 7.428q2.511 3.825 5.861 9.272 2.202 3.78 6.435 11.427.352-1.495.353-3.166 0-.439.176-2.067.177-1.626.177-2.331 0-.703-.176-2.243a53 53 0 0 1-.176-1.627v-5.102q0-.792-.436-21.639a3.3 3.3 0 0 0-.786-.088q-.785 0-2.355.352-1.571.354-2.182.44-1.135-.088-3.055-.088-.087-.087-1.178-.836-1.092-.748-1.004-1.275 0-.615.44-1.671 1.23-1.496 3.254-1.76l3.343-.176q4.485-.087 14.161-.968 1.319-.175 2.815.748t1.495 1.979q-.002.447-.353.796"/></svg>