<svg xmlns="http://www.w3.org/2000/svg" viewBox="0 0 129.103 129.103"><defs><clipPath id="a"><circle cx="64.551" cy="64.551" r="64.551" fill="none" data-name="Ellipse 54" transform="translate(331.399 204.494)"/></clipPath></defs><g data-name="Group 72" transform="translate(-331.399 -204.494)"><circle cx="64.551" cy="64.551" r="64.551" fill="#f4d0b1" data-name="Ellipse 53" transform="translate(331.399 204.494)"/><g data-name="Group 71"><g fill="none" stroke-miterlimit="10" clip-path="url(#a)" data-name="Group 70"><path stroke="#dcb98e" stroke-width="6.236" d="M330.159 214.5A1021.4 1021.4 0 0 1 540.3 228.515" data-name="Path 80" opacity=".5"/><path stroke="#dcb98e" stroke-width="6.236" d="M323.839 320.642a1021.4 1021.4 0 0 1 210.146 14.014" data-name="Path 81" opacity=".5"/><path stroke="#da5423" stroke-width="10.834" d="M306.743 333.544a1021.4 1021.4 0 0 1 210.51 6.564" data-name="Path 82"/><path stroke="#ef8f4d" stroke-width="9.931" d="m313.462 286.841 31.253 3.735a420.5 420.5 0 0 0 99.566 0l31.254-3.734" data-name="Path 83"/><path stroke="#dcb98e" stroke-width="9.931" d="m475.535 248.952-31.254-3.734a420.4 420.4 0 0 0-99.566 0l-31.253 3.734" data-name="Path 84" opacity=".3"/><path stroke="#dcb98e" stroke-width="3.611" d="m475.535 260.237-31.254-3.737a420.5 420.5 0 0 0-99.566 0l-31.253 3.734" data-name="Path 85" opacity=".3"/><path stroke="#ef8f4d" stroke-width="1.806" d="m475.535 239.37-31.254-3.734a420.4 420.4 0 0 0-99.566 0l-31.253 3.734" data-name="Path 86"/><path stroke="#ef8f4d" stroke-width="6.32" d="m475.535 222.818-31.254-3.734a420.4 420.4 0 0 0-99.566 0l-31.253 3.734" data-name="Path 87"/><path stroke="#ef8f4d" stroke-width="1.806" d="m313.462 276.043 31.253 3.734a420.4 420.4 0 0 0 99.566 0l31.254-3.734" data-name="Path 88"/></g></g><circle cx="4.057" cy="4.057" r="4.057" fill="#312449" data-name="Ellipse 55" transform="translate(370.928 274.67)"/><circle cx="4.057" cy="4.057" r="4.057" fill="#312449" data-name="Ellipse 56" transform="translate(412.858 274.67)"/><circle cx=".748" cy=".748" r=".748" fill="#fff" data-name="Ellipse 57" transform="translate(371.961 276.912)"/><circle cx=".748" cy=".748" r=".748" fill="#fff" data-name="Ellipse 58" transform="translate(413.891 276.912)"/><path d="M395.951 333.6a64.549 64.549 0 0 0 43.279-112.446 64.3 64.3 0 0 1 16.661 43.28c0 35.65-33.6 68.495-69.248 68.495" data-name="Path 89" opacity=".2" style="mix-blend-mode:darken;isolation:isolate"/><ellipse cx="6.342" cy="13.184" fill="#ef8f4d" stroke="#f3cda6" stroke-miterlimit="10" stroke-width="2.349" data-name="Ellipse 59" rx="6.342" ry="13.184" transform="rotate(-86.62 337.112 -35.386)"/></g><path fill="none" stroke="#312449" stroke-linecap="round" stroke-miterlimit="10" stroke-width="2.709" d="M80.831 103.859s-4.469 2.446-16.279 2.446c-12.729 0-16.28-2.446-16.28-2.446" data-name="Path 92"/></svg>