<svg xmlns="http://www.w3.org/2000/svg" xml:space="preserve" width="84.64" height="69.925" viewBox="0.536 1.615 84.64 69.925"><title>Slice 1</title><g fill-rule="evenodd"><path fill="#f05822" fill-rule="nonzero" d="M78.933 34.185c-2.333-11.268-5.91-24.078-6.377-25.622-.467.309-1.09.463-1.712.463-1.244.154-2.955-.926-4.666-.772-1.4.155-2.8 1.544-4.511 1.544S58.556 8.872 57 8.872s-2.956 1.389-4.511 1.389-3.111-1.08-4.667-1.08-3.11 1.234-4.666 1.234-3.112-1.235-4.667-1.235c-1.556 0-3.111 1.08-4.667 1.08s-3.11-1.388-4.666-1.388-3.267.926-4.667.926-3.111-1.544-4.511-1.544c-1.711-.154-3.422.772-4.822.772-.623 0-1.245-.154-1.712-.463-.466 1.543-4.044 14.354-6.377 25.622C4.11 48.076 1.156 65.363 1.156 65.363a83 83 0 0 0 18.977 4.63c7 .772 14 1.08 21 .772.934-11.885 1.711-40.285 1.711-40.285s3.112 28.246 4.045 40.13q9.333.464 18.667-.462c6.533-.772 12.91-2.315 18.977-4.63.311 0-2.644-17.442-5.6-31.333"/><g stroke="#fff" stroke-linecap="round" stroke-linejoin="round"><path fill="none" stroke-width="1.24" d="M43.156 13.194c-2.334-.772-4.978-.772-7.467 0-3.733 1.08-4.356 4.63-.156 4.784 3.267-.154 6.067-2.006 7.623-4.785"/><path fill="none" stroke-width="1.24" d="M43.156 13.194s-.467 6.79-7.623 12.965"/><ellipse cx="3.422" cy="14.354" fill="#fff" fill-rule="nonzero" stroke-width=".62" rx="1.556" ry="1.543" transform="translate(32.111 11.804)"/><path fill="none" stroke-width="1.24" d="M43.156 13.194c2.333-.772 4.977-.772 7.466 0 3.734 1.08 4.356 4.63.156 4.784-3.267-.154-6.067-2.006-7.622-4.785"/><path fill="none" stroke-width="1.24" d="M43.156 13.194s.466 6.79 7.622 12.965"/><ellipse cx="18.667" cy="14.354" fill="#fff" fill-rule="nonzero" stroke-width=".62" rx="1.556" ry="1.543" transform="translate(32.111 11.804)"/></g><g fill="#ffff4f" fill-rule="nonzero"><path d="M10.178 57.183c-.467-.618-1.09-1.08-1.711-1.544-.623-.463-1.4-.617-2.178-.772l1.089 2.47zM4.733 61.967l3.734-.308-1.556-3.55-3.733.463zM5.044 62.585 6.6 65.98l3.111-.308.311-.463.156-.155-1.4-2.932zM7.378 68.141a8.9 8.9 0 0 0 1.71-1.698l-2.332.155zM6.756 57.491 5.51 54.867c-1.244 0-2.489.31-3.422 1.08l.933 2.007zM7.689 58.109l1.555 3.395 2.023-.154c.155-1.235-.156-2.47-.778-3.55zM10.333 64.283c.311-.772.623-1.544.778-2.316l-1.711.155zM19.511 45.298h.156l3.577 1.08-.155-3.704-1.556-.463-2.177-.618.155 1.544zM23.244 46.996l-3.577-1.08.155 2.314c1.09.618 2.334.927 3.734.618zM18.889 45.144l-.156-3.705-1.866-.463c-.467 1.08-.623 2.47-.156 3.704zM19.044 47.922l-.155-2.161-2.022-.617c.31.462.466.926.933 1.389.311.617.778 1.08 1.244 1.389M27.756 36.037l.155 2.778 2.645.772c-.156-.772-.623-1.39-1.09-2.007-.466-.617-1.088-1.08-1.71-1.543M27.289 39.278l-3.733-.926.155 3.705 3.733 1.08zM27.289 47.15l.155-.154-.155-3.087-3.733-1.08.155 3.704 2.956.771zM23.867 47.15v1.544c.777-.155 1.555-.464 2.177-.927z"/><path d="M19.2 48.694a6.6 6.6 0 0 1-1.867-1.698 9.8 9.8 0 0 1-1.244-2.161c-.156-.618-.311-1.235-.311-1.698-.934 0-2.022 0-2.956-.309l.934.926c.155.155.466.309.622.618.31.154.466.463.778.617.155 0 .155.155.155.309s-.155.154-.155.308c-.778.155-1.556.31-2.334.31h-1.089c.311.154.623.462 1.09.771.155.154.466.309.777.309.778.308 1.556.617 2.489.463h.155s.156 0 .156.154.156.154 0 .309c-.311.772-.156 1.698 0 2.624 0 .308.156.463.156.771.155.463.31.926.466 1.235.311-1.08.622-2.16 1.09-3.087 0-.154.155-.154.31-.154.156 0 .156.154.311.154l.467.926c.156.309.311.463.467.772.155.309.466.772.777 1.08 0-.926.156-1.852.312-2.778-.156 0-.312-.154-.467-.154-.311-.154-1.089-.617-1.089-.617"/><path d="M18.111 51.317c.156.31.311.772.622 1.08 0-.462.156-.77.311-1.234l-.466-.926c-.311.309-.467.617-.467 1.08M15.778 48.076c-1.09 0-2.022-.463-2.8-.772-.467.155-.934.309-1.4.309.778.772 1.866 1.08 3.11 1.08h.156s.156 0 .156.155c0 0 .156.154 0 .309-.311 1.08-.156 2.315.467 3.24.155-.462.466-.77.622-1.234-.467-.926-.622-2.006-.311-3.087M27.133 35.883c-1.089-.463-2.489-.618-3.577-.31l.155 2.162 3.733.926zM14.378 44.99c-.311-.155-.467-.464-.778-.618h-1.244c.31.308.622.617.933.772.311 0 .622 0 1.089-.155M22.933 37.426v-1.698c-.777.309-1.555.618-2.177 1.08zM19.356 40.822l2.333.771 1.4.31-.156-3.705-3.11-.926-.156.308-.467.31.156 1.234zM18.578 38.352c-.622.618-1.09 1.235-1.556 1.852l1.556.463v-2.315M28.067 43.291l2.022.618c.622-1.08.778-2.315.622-3.55l-2.8-.772zM28.067 43.909l.155 2.315c.622-.617 1.09-1.235 1.556-1.852zM17.022 19.676l.311 2.315 1.4-.771 2.023-.927v-.154l-.467-3.55-3.422 1.544zM20.911 16.28l.467 3.705 2.022-.926c.156-1.235-.156-2.47-.933-3.55zM20.911 20.91 17.49 22.61l.311 2.006a5.46 5.46 0 0 0 3.422-1.235zM22.778 21.374c.31-.463.466-1.08.622-1.544l-1.867.927.311 2.006zM12.822 19.367l3.422-1.543-.622-3.859-3.422 1.698zM16.711 17.515l3.422-1.698-.466-3.087-.467-.308s-.156 0-.156-.155l-2.8 1.39zM22.311 14.891a8.9 8.9 0 0 0-1.711-1.697l.311 2.315z"/><path d="M24.022 19.213c-.155.772-.466 1.698-.778 2.315-.466.772-.933 1.39-1.555 2.007-.467.463-.933.771-1.556.926q.7 1.389.934 2.778c.155-.463.31-.772.466-1.235.156-.308.156-.617.311-.771.156-.31.156-.618.156-.927 0-.154.156-.154.156-.308.155 0 .31 0 .31.154.467.618.934 1.235 1.245 2.007l.467.926c.155-.309.155-.772.155-1.235v-.772c0-.771-.155-1.698-.466-2.47V22.3c0-.154.155-.154.31-.154.779 0 1.712-.463 2.334-.926.156-.155.467-.31.622-.463l.934-.927c-1.09.155-2.178.31-3.267.155-.156 0-.156-.155-.311-.155 0-.154 0-.308.155-.308l.778-.772c.156-.154.311-.463.622-.617.312-.31.467-.772.778-1.08-.933.308-1.71.617-2.644.77v.464c0 .154 0 .926-.156.926"/><path d="M25.733 19.367h1.09c.31-.308.466-.617.777-1.08-.467.154-.778.154-1.244.309-.156.308-.312.617-.623.771M24.8 22.763c.311.926.467 2.007.311 2.933.311.308.622.771.933 1.08.312-1.08.312-2.16-.155-3.241v-.309c0-.154.155-.154.155-.154 1.09-.155 2.178-.772 2.8-1.698-.466 0-.933 0-1.4-.154-.622.771-1.555 1.234-2.644 1.543M22.622 25.233c0 .308-.155.617-.31.926.155.463.31.771.466 1.235.155-.31.31-.772.466-1.081-.31-.463-.466-.772-.622-1.08M10.644 21.22c.623.617 1.245 1.08 1.867 1.543l-.311-2.315zM16.4 19.83l-.156-1.389-3.422 1.698.467 3.087.311.154.467.155 1.089-.463 1.555-.926zM16.867 22.917l-1.4.618-.778.308c.778.31 1.555.463 2.333.618zM18.267 12.113c-.778-.309-1.556-.617-2.334-.617l.156 1.697zM59.956 38.198l.155-1.544V34.34h-.155l-3.423-1.235-.155 3.859 1.555.463zM60.111 33.722v-2.315c-1.089-.772-2.333-1.08-3.578-.927v1.853h.156zM60.578 38.352l1.866.618c.623-1.08.778-2.47.467-3.705l-2.178-.772zM60.733 31.87v2.006l2.023.772a7.2 7.2 0 0 0-.778-1.544 4.7 4.7 0 0 0-1.245-1.234M49.689 41.44c.467.617.933 1.234 1.555 1.697v-2.778l-2.644-.926c.467.771.778 1.389 1.089 2.006M52.178 36.037l-.156 3.859 3.734 1.234v-3.858zM55.911 32.95l-2.955-1.08-.467.308-.156.155v3.087l3.578 1.234zM55.911 30.635c-.778.154-1.555.463-2.333.771l2.178.772z"/><path d="m65.711 36.346-.622-.618c-.311-.154-.467-.463-.778-.617-.155 0-.155-.154-.155-.309 0-.154.155-.154.31-.309.778-.154 1.556-.154 2.334-.154h1.089c-.311-.309-.622-.463-1.089-.772-.156-.154-.467-.308-.778-.463-.778-.463-1.555-.617-2.489-.617h-.155s-.156 0-.156-.154v-.31c.311-.77.311-1.697.156-2.623 0-.309-.156-.463-.156-.772-.155-.463-.31-.926-.31-1.235-.312 1.08-.779 2.161-1.4 3.087 0 .155-.156.155-.312.155s-.156-.155-.311-.155c-.156-.308-.311-.617-.311-.926-.156-.308-.156-.463-.311-.771-.156-.463-.467-.772-.623-1.08 0 .925-.31 1.851-.622 2.777.156 0 .311.155.467.155.311.154.933.463.933.617a6.6 6.6 0 0 1 1.711 1.852c.467.618.778 1.39 1.09 2.316.155.617.155 1.234.155 1.852.933 0 2.022.154 2.955.463 0-.772-.31-1.08-.622-1.39"/><path d="M61.978 28.628c-.156-.463-.311-.771-.622-1.08-.156.463-.156.772-.312 1.235l.467.926c.156-.463.311-.772.467-1.08M65.4 31.252q-.234 0 0 0c-.156 0-.156-.154-.311-.154v-.309c.311-1.08.311-2.315-.311-3.241-.156.463-.467.772-.778 1.235.156.926.311 2.006 0 3.087 1.089.154 2.022.463 2.8 1.08.467-.154.933-.309 1.4-.309-.622-.771-1.711-1.234-2.8-1.389M52.022 43.446c1.09.617 2.334.771 3.578.463v-2.161l-3.578-1.235zM66.489 34.957h-1.245c.312.154.467.463.623.617.466 0 .933 0 1.244.154 0-.308-.311-.463-.622-.772M56.378 42.057v1.697l2.333-.926zM59.489 42.21l.467-.308v-3.087l-2.178-.772-1.4-.463v3.705l2.955 1.08zM60.578 40.667v.772c.622-.463 1.089-1.08 1.555-1.852l-1.555-.463zM48.756 38.66l2.8.927.155-3.704-2.022-.618c-.778.926-1.089 2.161-.933 3.396M49.844 34.648l1.712.617V32.95a8.9 8.9 0 0 0-1.712 1.698M70.378 15.663l-.778-2.16-1.244.925-1.712 1.39 1.245 3.55 2.955-2.316zM65.867 20.91l1.555-1.08v-.154l-1.244-3.55-1.867 1.39c0 1.234.467 2.469 1.556 3.395M65.711 12.885l.778 2.16L69.6 12.73l-.622-1.852c-1.4.309-2.49 1.08-3.267 2.007M64.467 15.046c-.156.617-.311 1.08-.311 1.698l1.71-1.235-.622-2.007a7.2 7.2 0 0 0-.777 1.544M71.156 17.67l-3.112 2.16.934 2.933.466.154h.312l2.488-1.852zM66.178 21.374c.622.463 1.244.926 2.022 1.235l-.778-2.161zM61.978 17.515c-.311 0-.778.155-1.09.309-.155.309-.466.772-.466 1.08.311-.154.778-.308 1.09-.463.155-.308.155-.617.466-.926M62.133 14.12c-.622-.926-.777-1.853-.933-2.779-.311-.308-.778-.617-1.089-.926-.155 1.08.156 2.315.778 3.087v.309c0 .154-.156.154-.156.154-1.089.463-1.866 1.235-2.489 2.161.467-.154.934-.154 1.4-.154.778-.772 1.556-1.39 2.49-1.852M71.311 11.496l.622-.463c-.777-.155-1.555-.155-2.489-.155l.467 1.544zM72.556 21.991l-1.867 1.39c.778.154 1.711.308 2.489.154zM34.756 65.363l.777-1.39 1.09-1.851-1.556-.309-2.178-.463v.154l-1.867 3.242zM30.4 64.591l1.867-3.395-2.334-.463a4.77 4.77 0 0 0-1.4 3.395zM33.2 60.887l3.733.772.934-1.698c-1.09-.772-2.334-1.08-3.578-1.08zM31.956 59.344l-1.4.926 2.022.308 1.089-1.852c-.623.309-1.245.463-1.711.617M35.067 66.135 33.2 69.376l3.889.772 1.711-3.396zM34.444 65.98l-3.733-.771-1.555 2.778.155.463s0 .154.156.154l3.11.618zM28.533 64.9q0 1.157.467 2.315l1.089-2.006z"/><path d="M28.844 61.196c.156-.309.623-.926.778-.926.622-.618 1.245-1.08 2.022-1.39.778-.308 1.556-.617 2.49-.617.622 0 1.244 0 1.866.154a9.8 9.8 0 0 1 .933-2.778c-.466.154-.777.463-1.089.617a2.2 2.2 0 0 0-.622.464c-.31.154-.466.463-.778.617-.155.154-.155.154-.31 0-.156 0-.156-.154-.156-.309 0-.771 0-1.543.155-2.315 0-.309.156-.772.156-1.08-.311.308-.622.463-.933.926-.156.154-.312.463-.467.617-.467.617-.933 1.39-1.089 2.315v.155s0 .154-.156.154h-.31c-.778-.463-1.556-.617-2.49-.617h-.777c-.467 0-.934.154-1.245.154.934.463 2.022 1.08 2.8 1.852.156.154.156.154.156.309 0 .154-.156.154-.311.154-.311 0-.623.154-1.09.154-.31 0-.621.155-.777.155-.467.154-.778.309-1.244.463.933.154 1.866.617 2.644.926-.311 0-.156 0-.156-.154"/><path d="M28.378 59.19c-.311-.155-.622-.464-.934-.618-.466.154-.777.154-1.244.308.467.155.778.31 1.089.463.467 0 .778-.154 1.089-.154M30.711 55.794q-.233.231 0 0c-.155.154-.311.154-.467.154-1.088-.463-2.177-.618-3.266-.309.31.309.778.617 1.089.926.933 0 2.022 0 2.955.463.311-.926.778-1.852 1.4-2.624 0-.463-.155-.926 0-1.389-.778.618-1.555 1.698-1.71 2.779M37.711 70.302l2.8.463c.778-.926 1.089-2.16 1.089-3.395l-2.178-.464zM35.533 54.559c-.31.154-.622.463-.933.617 0 .463-.156.772-.156 1.235.312-.154.467-.309.778-.617 0-.31.156-.772.311-1.235M41.6 66.598c-.156-.772-.311-1.544-.622-2.315l-1.09 2.006zM37.244 62.276l-1.088 2.007-.623 1.234 3.578.772 1.556-2.778-.156-.309-.155-.463-1.245-.154zM39.111 61.967l.778.155c-.467-.772-.933-1.39-1.556-1.852l-.777 1.389zM62.289 63.82l-3.267 2.006 2.956 2.47 1.244-.926 2.022-1.08L64 65.208zM57 64.128l1.556 1.235h.155l3.111-2.007-1.71-1.543c-1.245.463-2.334 1.235-3.112 2.315M67.422 64.9a4.62 4.62 0 0 0-2.489-2.624l-2.022 1.235 2.956 2.47zM60.733 61.659l1.556 1.389 1.867-1.08c-.467-.155-1.09-.31-1.712-.31-.466-.154-1.088 0-1.71 0M58.556 66.135l-2.645 1.698v.771l2.333 2.007 3.267-2.007zM56.689 64.746c-.311.771-.622 1.543-.778 2.315l2.022-1.235z"/><path d="M66.489 60.733c-.311 0-.622.154-.933.154-.156 0-.312 0-.312-.154 0-.155-.155-.155 0-.31.312-.617.778-1.234 1.245-1.851.155-.309.467-.618.622-.772-.311 0-.778.154-1.244.309-.311.154-.467.154-.778.308-.778.31-1.556.772-2.022 1.39l-.156.154h-.155c-.156 0-.156 0-.312-.154-.466-.772-1.088-1.39-1.866-1.698-.311-.155-.467-.309-.778-.309-.467-.154-.778-.309-1.244-.463.622.926 1.088 1.852 1.555 2.933 0 .154 0 .308-.155.308-.156.155-.156.155-.312 0-.31-.154-.622-.308-.933-.308-.311-.155-.622-.155-.778-.31-.466-.154-.933-.154-1.244-.154.622.618 1.244 1.39 1.867 2.161.155-.154.31-.154.466-.308a22 22 0 0 1 1.09-.463c.777-.155 1.71-.309 2.488-.155.778 0 1.711.309 2.489.618.622.308 1.089.617 1.555.926.623-.772 1.4-1.39 2.178-1.852H66.49"/><path d="M59.489 59.652a7.5 7.5 0 0 1-.467-1.08c-.466-.155-.778-.155-1.244-.309.31.309.466.617.778 1.08.31.155.622.155.933.31M60.578 57.183c.933.463 1.866 1.08 2.333 1.852.778-.772 1.711-1.235 2.645-1.544.155-.463.466-.926.622-1.234-1.09.154-2.178.617-2.956 1.543h-.311c-.155 0-.155 0-.311-.154-.622-.926-1.556-1.544-2.644-1.852.31.617.466.926.622 1.389M66.022 60.27c.311 0 .622 0 .934-.155l.933-.926h-1.245a9 9 0 0 1-.622 1.08M66.333 66.29l1.245 1.08.622.463q0-1.158-.467-2.316zM80.333 48.23l-3.577-1.234-1.245 1.543c.933.926 2.022 1.544 3.422 1.544zM73.178 40.513l2.022.772 2.333-3.087-2.8-.926c-.933.926-1.555 2.006-1.555 3.241M77.689 52.86c-.156.464-.311.773-.467 1.236.311-.155.778-.309 1.09-.463.155-.31.31-.772.31-1.08-.31.154-.622.154-.933.308M73.022 41.285c0 .772 0 1.698.156 2.47l1.4-1.853zM76.6 46.224l1.4-1.852.933-1.08-3.577-1.235-1.867 2.47v.308l.155.463 1.245.463zM74.733 46.224l-.777-.309c.31.772.777 1.39 1.244 2.161l.933-1.235zM15.622 13.348l-.31-2.007c-.934 0-1.868 0-2.645.463-.156.618-.311 1.39-.623 2.161l.156 1.08zM11.578 15.972l-.156.154c-.31 1.39-.778 2.933-1.244 4.63l2.022-.926zM2.711 62.74l-1.089.154c-.155.926-.31 1.543-.31 2.006l.31.772c.622.154 1.245.463 1.867.617l2.333-.154-1.555-3.396zM3.956 61.967 2.4 58.572h-.156c-.31 1.389-.466 2.624-.622 3.704H2.4zM32.422 70.92h4.045l.155-.31-3.733-.77zM31.022 70.92h.778l.622-1.08-2.333-.464c.155.617.622 1.08.933 1.544M59.022 70.765c1.556-.154 3.111-.154 4.511-.308l-1.71-1.39zM55.911 70.92h1.556l-1.711-1.39c0 .31 0 .927.155 1.39M65.711 66.752l-2.022 1.235-1.245.772 1.867 1.698c.467 0 .933 0 1.4-.155.467 0 .933-.154 1.4-.154l.778-.463v-.772l-.933-.772zM79.867 38.507c-.156-.618-.311-1.235-.311-1.698l-1.09 1.235zM77.844 37.735l1.4-1.852v-.31c-.622 0-1.244 0-1.866.31-.778.154-1.4.617-2.022.926zM80.8 43.291c0-.308-.156-.771-.156-1.08l-.622.772zM75.822 41.594l3.578 1.234 1.089-1.389-.467-2.315-1.866-.617zM81.733 48.076v-.309l-.155.31zM78.622 44.68l-1.4 1.853 1.556.463 2.178.771.622-.771c-.156-.926-.311-2.007-.622-2.933l-1.4-.463z"/><path d="M81.422 51.78c.156 0 .156-.154 0 0l.156-.154h.31c.156.154.312.154.468.309-.156-.463-.156-1.08-.312-1.544-.155 0-.31.155-.466.155-.778.308-1.711.308-2.49.308-.621 0-1.244-.154-1.71-.463-.311.926-.778 1.852-1.4 2.624.466-.154.778-.309 1.244-.463.311-.154.467-.309.778-.463s.622-.309.778-.463h.31c.156 0 .156.154.156.309a50 50 0 0 1-.466 2.16c-.156.31-.156.618-.311 1.081.31-.154.622-.463 1.089-.772.155-.154.466-.308.622-.463.466-.617 1.089-1.389 1.244-2.16M79.711 50.237c.622 0 1.089-.154 1.711-.309.156 0 .311-.154.622-.154 0-.309-.155-.617-.155-.926l-.778-.309zM82.511 52.707c-.155-.155-.467-.155-.622-.31a6.84 6.84 0 0 1-1.867 2.316c0 .463 0 .926-.155 1.39.933-.464 1.866-1.39 2.177-2.47v-.155s.156 0 .156-.154h.311s.156 0 .156.154c0-.154 0-.463-.156-.772M73.8 23.535a6.9 6.9 0 0 0 2.489-.926c-.311-.926-.467-2.007-.778-2.933l-2.489 1.852zM72.867 20.91l2.489-1.851c-.312-1.39-.623-2.624-.934-3.859l-2.8 2.006zM70.222 13.04 71 15.353l.467 1.39 2.8-2.007a44 44 0 0 0-.934-3.241h-.155l-.467-.155-.933.772zM64 10.415c-.156-.308-.467-.617-.622-.926h-.156c0 .309-.155.617-.155.926.31.309.466.618.777.926.156-.308.156-.617.156-.926"/><path d="M61.978 11.804c.155.772.466 1.698.933 2.316v.308c0 .155-.155.155-.155.155-.778.154-1.556.771-2.178 1.389-.156.154-.311.463-.467.617-.311.309-.467.772-.778 1.08 1.09-.463 2.178-.617 3.267-.771.156 0 .311 0 .311.154v.309c-.155.309-.311.617-.622.926-.156.309-.311.463-.467.772-.155.463-.31.771-.466 1.235.777-.464 1.555-.927 2.488-1.235 0-.155-.155-.309-.155-.463 0-.309-.156-1.08-.156-1.08 0-.772 0-1.699.311-2.47.312-.772.623-1.544 1.09-2.316a4.7 4.7 0 0 1 1.244-1.234c-.622-.772-1.09-1.698-1.4-2.624 0 .463 0 .926-.156 1.389 0 .309 0 .617-.155.926v.926c0 .154 0 .309-.156.309H64c-.622-.463-1.089-1.08-1.556-1.698-.155-.154-.31-.463-.466-.617h-.156v1.08c0 .154 0 .309.156.617"/></g><g stroke="#a80054" stroke-linecap="round" stroke-linejoin="round"><path fill="none" stroke-width="1.24" d="M78.933 34.185c-2.333-11.268-5.91-24.078-6.377-25.622-.467.309-1.09.463-1.712.463-1.244.154-2.955-.926-4.666-.772-1.4.155-2.8 1.544-4.511 1.544S58.556 8.872 57 8.872s-2.956 1.389-4.511 1.389-3.111-1.08-4.667-1.08-3.11 1.234-4.666 1.234-3.112-1.235-4.667-1.235c-1.556 0-3.111 1.08-4.667 1.08s-3.11-1.388-4.666-1.388-3.267.926-4.667.926-3.111-1.544-4.511-1.544c-1.711-.154-3.422.772-4.822.772-.623 0-1.245-.154-1.712-.463-.466 1.543-4.044 14.354-6.377 25.622C4.11 48.076 1.156 65.363 1.156 65.363a83 83 0 0 0 18.977 4.63c7 .772 14 1.08 21 .772.934-11.885 1.711-40.285 1.711-40.285s3.112 28.246 4.045 40.13q9.333.464 18.667-.462c6.533-.772 12.91-2.315 18.977-4.63.311 0-2.644-17.442-5.6-31.333"/><path fill="#ffff4f" fill-rule="nonzero" stroke-width="1.24" d="M19.978 8.254c1.4.155 2.8 1.544 4.51 1.544 1.712 0 3.112-.926 4.668-.926 1.555 0 2.955 1.389 4.666 1.389s3.111-1.08 4.667-1.08 3.111 1.234 4.667 1.234 3.11-1.235 4.666-1.235 3.111 1.08 4.667 1.08S55.6 8.873 57 8.873s3.267.926 4.667.926 3.11-1.544 4.51-1.544c1.712-.154 3.423.926 4.667.772.623 0 1.245-.154 1.712-.463v-.154L71 2.235S56.378 3.624 43 3.624s-27.378-1.39-27.378-1.39L13.444 8.41v.154c.623.154 1.09.309 1.712.309 1.4.154 3.11-.772 4.822-.618"/><path fill="none" stroke-width=".822" d="M43.156 10.57V3.778M47.978 9.18V3.778M53.111 10.107 52.8 3.624M57.933 9.026l-.31-5.556M62.911 9.335 62.29 3.16M67.733 8.254l-.777-5.402M38.022 9.18V3.778M32.889 9.952l.311-6.328M28.067 8.872l.31-5.402M23.089 9.18l.622-6.02M18.267 8.254l.777-5.402"/></g></g></svg>