<svg xmlns="http://www.w3.org/2000/svg" xml:space="preserve" width="800" height="800" viewBox="0 0 392.598 392.598"><path d="M307.596 262.012H85.083l-40.986 65.293c-12.024 19.782 2.133 43.249 24.048 43.442h256.388c22.238 0 35.749-24.048 24.048-43.442z" style="fill:#fff"/><path d="m367.071 315.798-118.109-188.38V21.851h1.875c6.012 0 10.925-4.848 10.925-10.925S256.913 0 250.837 0H141.972c-6.012 0-10.925 4.848-10.925 10.925s4.848 10.925 10.925 10.925h1.875v105.503L25.738 315.733c-19.459 28.38-1.487 75.636 42.473 76.865h256.323c38.981 0 63.288-42.861 42.537-76.8M114.627 214.949h37.43c6.012 0 10.925-4.848 10.925-10.925a10.87 10.87 0 0 0-10.925-10.925h-23.725l13.705-21.786H189.1c6.012 0 10.925-4.848 10.925-10.925 0-6.012-4.848-10.925-10.925-10.925h-33.358l8.339-13.317c1.099-1.681 1.681-3.685 1.681-5.818V21.851h61.479v108.671c0 2.004.517 4.008 1.681 5.818l65.164 103.952H98.788zm209.907 155.863H68.21c-21.851-.259-36.137-23.661-24.048-43.442l40.986-65.293h222.578l40.986 65.293c11.636 19.394-1.94 43.377-24.178 43.442" style="fill:#194f82"/><path d="M227.176 130.521V21.851h-61.608v108.671c0 2.004-.517 4.008-1.681 5.818l-8.339 13.253h33.358c6.012 0 10.925 4.848 10.925 10.925 0 6.012-4.848 10.925-10.925 10.925h-46.933l-13.705 21.786h23.725c6.012 0 10.925 4.848 10.925 10.925a10.87 10.87 0 0 1-10.925 10.925h-37.43l-15.838 25.212h195.168L228.792 136.21c-1.099-1.616-1.616-3.62-1.616-5.689" style="fill:#fff"/><path d="M68.21 348.962c-3.814 1.034-9.051-4.655-5.56-10.02l34.521-55.079h198.465l34.521 55.079c3.103 4.913.259 10.537-5.56 10.02z" style="fill:#ffc10d"/></svg>