<svg xmlns="http://www.w3.org/2000/svg" width="71.277" height="78.381" viewBox="-0.5 -0.5 71.277 78.381"><path fill="#0cc" d="M69.99 16.881c-.04.17-.07.34-.12.51-.15.63-.46 2.12-.77 5.03 0 .05 0 .09-.01.12 1.71 6.88-1.17 11.07-3.08 12.98-.12.13-.25.25-.39.37-1.87 1.7-5.14 3.73-10.02 3.73-2.43 0-4.7-.54-6.68-1.53.05 2.73.08 6.49.08 11.71 1.8.63 3.45 1.65 4.85 2.99 2.78 2.67 4.3 6.24 4.3 10.05 0 5.66-3.26 10.58-8.51 12.83-.13.06-.27.12-.4.17-1.76.67-3.74 1-6.06 1-.84 0-1.74-.04-2.72-.13-.6-.03-1.48-.02-2.52.01-1.89.21-4.55.42-8.11.62-.07 0-.14.01-.22.01-.47.02-.92.03-1.36.03-6.37 0-11.02-2.02-13.83-5.99-.06-.08-.11-.16-.16-.24-2.86-4.27-2.94-9.67-.22-14.08.02-.05.05-.09.08-.14 1.73-2.72 4.26-4.66 7.54-5.8.04-1.93.03-4.35-.03-7.22-1.63.68-3.51 1.08-5.62 1.08-5.57 0-10.17-3.31-11.77-8.34-.33-1.02-.64-2.51-1.36-5.87a5 5 0 0 1-.07-.36l-1.48-8.27c-.05-.18-.12-.39-.2-.63-.77-2.19-1.13-4.05-1.13-5.85 0-2.23.65-5.6 3.73-8.96 1.55-1.7 4.37-3.9 8.91-4.61.56-.09 1.13-.14 1.7-.14H25.4q.375 0 .75.03c4.22.15 8 .14 11.24-.01 4.53-.2 9.05-.59 13.48-1.16.5-.16 1.04-.32 1.62-.46.55-.14 1.11-.23 1.67-.29 4.26-.39 8.23.84 11.32 3.48 3.83 3.29 5.52 8.27 4.51 13.33"/><path fill="#fff" d="M59.202 14.725q-.615 2.463-1.055 6.685-.179 2.112.176 3.431.614 2.2-.088 2.903-.969.879-2.639.879-1.938 0-2.551-1.151a80 80 0 0 1 .088-6.646q.174-3.81.176-3.987-.09 0-.264-.178-8.182.355-15.394 1.059-.177.883 0 2.82.35 2.733.352 3.172-.352 2.732-.352 8.109.35 2.292.352 19.655v6.435q0 1.499.436 2.115h5.401q1.48-.175 2.396.704.914.88.914 2.11 0 1.934-1.847 2.728-1.144.439-4.046.176-1.408-.09-4.135 0-2.463.306-7.916.615-4.75.175-5.806-1.319-.705-1.055 0-2.199 1.23-1.934 6.422-1.935 1.846 0 2.286-.307.44-.308.44-1.187v-5.354q.264-4.475 0-13.343-.353-12.727.352-22.383l-.266-.264q-3.184.177-10.26-.177-.797.001-5.396.353 1.143 8.005 1.407 12.051 0 .528-.176 2.375-.088 1.319-2.199 1.319-1.144 0-1.319-.785-.089-.174-1.056-4.711l-1.495-8.375q0-.345-.615-2.18Q11 16.454 11 15.67q-.001-.61.836-1.526.836-.916 2.507-1.179H25.25q7.125.266 12.666 0a172 172 0 0 0 15.657-1.407q.528-.264 1.582-.527 1.936-.176 3.168.88 1.23 1.054.879 2.814"/></svg>