<svg xmlns="http://www.w3.org/2000/svg" xml:space="preserve" width="226.865" height="84.642" viewBox="-0.449 -0.268 226.865 84.642"><title>Slice 1</title><g fill-rule="evenodd"><g fill="#c8c8be"><path d="M121.688 63.243c-.033.228 1.073 4.065 1.043 4.293.764 4.542-4.231 9.621-7.249 12.3-.264.711.902 3.405 1.266 4.038h.237c.135-.537-.183-1.032-.135-1.572 1.875-1.029 3.943-1.701 5.61-3.087 1.669-1.386 3.989-3.543 5.221-5.304 2.164-3.096 4.313-7.905 4.968-14.58-.01.03-10.96 3.912-10.96 3.912"/><path d="M116.33 80.643s1.202 2.7 1.358 2.943h.238c.114-.465-.283-2.496-.3-2.955q-.65-.03-1.296.012M117.67 80.157s.601 2.901.686 3.165l.228.066c.213-.429 0-2.682.075-3.138a4.6 4.6 0 0 0-.989-.093"/></g><g fill="#c8c8be"><path d="M113.093 78.6c-.583-1.056-1.085-2.151-1.677-3.204-.76-.105-3.288-1.023-5.448-2.613-2.218-1.638-4.064-3.981-4.244-6.621-.355-5.208 3.306-9.147 3.306-9.147l-3.81-2.325-7.71 5.205s-1.042 4.659 3.977 12.168c1.544 2.31 4.243 4.092 6.834 5.067 2.773 1.044 5.295.693 8.114 1.2.508.6.628 1.416 1.148 1.944.14.042.29-.016.364-.141-.274-.498-.565-1.011-.854-1.533"/><path d="M110.68 77.865s1.926 2.256 2.128 2.448l.231-.054c-.018-.48-1.286-2.355-1.445-2.787q-.478.148-.914.393M109.273 77.619s2.233 2.439 2.438 2.628c.069-.015.321-.099.321-.099s-1.689-2.49-1.845-2.922a4.6 4.6 0 0 0-.914.393"/></g><path fill="#64645a" d="M206.766 2.1c-8.965-.9-20.62-.783-24.944-.651l2.404 14.922c.436-.171 1.776-.708 2.218-.873 6.27-2.358 15.174-4.776 23.985-5.55 6.702-.6 14.21.321 15.454-.24a.5.5 0 0 0 .033-.18c-.19-.606-13.482-6.864-19.15-7.428"/><path fill="#3c3c32" d="M140.649 20.574c-1.773.987-3.552 1.977-5.26 2.916l-16.25 5.763 9.338 33.993c1.503.336 8.593-9.786 9.266-10.893s6.287-7.8 12.989-13.845c-.839-1.857-9.263-15.678-10.083-17.934"/><path fill="#828278" d="M184.226 1.5c-1.055.036-1.767.066-2.05.066.556.999-24.385 8.874-25.13 9.87-.535.201-19.198 11.133-19.198 11.133s12.259 14.559 12.893 15.942c.751-.675 1.758-1.56 2.53-2.208 5.92-4.971 16.373-13.971 30.955-19.929z"/><path fill="#c8c8be" d="M190.745 1.839c-1.103-.333-2.348-1.008-3.471-1.272-2.083-.486-4.25-.375-6.369-.099-3.88.504-7.597 1.8-11.192 3.327-7.64 3.234-30.212 17.475-37.392 19.674-5.29 1.617-10.96 1.851-13.695 1.878v5.226c2.044.399 12.73-1.995 14.251-2.529 9.091-3.198 15.433-8.901 19.898-11.784a101 101 0 0 1 12.59-6.858c2.762-1.272 8.907-4.296 14.007-5.337 2.465-.504 5.957.264 6.282.375.92.3 1.845 1.236 2.758 1.086.914-.15-2.154-1.872-1.752-2.367.1-.123.992-.051 1.44.189 1.343.72 3.234 2.574 4.108 2.217.757-.3-2.882-2.64-2.386-3s2.924 1.644 3.66 1.296-1.992-1.794-2.737-2.022"/><path fill="#64645a" d="M48.386 1.833c-3.147-.111-18.477-.801-29.182.267C13.536 2.664.244 8.922.051 9.528a.6.6 0 0 0 .036.18c1.244.561 8.752-.348 15.454.24 8.811.774 17.713 3.192 23.982 5.55a96 96 0 0 1 3.66 1.476z"/><path fill="#3c3c32" d="m106.833 29.253-16.25-5.763c-3.005-1.656-14.97-7.92-14.97-7.92s-1.775 15.405-4.45 19.431l1.548 1.299C78.6 41.247 93.5 59.901 93.5 59.901l14.204-11.055z"/><path fill="#828278" d="M68.933 11.433c-.745-.996-25.686-8.871-25.127-9.87h-.602v15.426c12.662 5.445 22.078 13.086 27.968 18.027a167 167 0 0 0 9.896-16.8c-6.329-3.576-11.69-6.618-12.135-6.783"/><path fill="#c8c8be" d="M107.218 25.533c-3.694-.21-9.187-.726-13.56-2.064C86.48 21.27 63.905 7.029 56.266 3.795 52.659 2.274 48.954.972 45.076.468 42.959.192 40.792.081 38.71.567c-1.124.264-2.369.939-3.472 1.272-.748.228-3.474 1.68-2.74 2.028.733.348 3.164-1.65 3.66-1.296s-3.14 2.682-2.383 3c.871.357 2.762-1.5 4.108-2.217.448-.24 1.337-.3 1.44-.189.4.495-2.67 2.217-1.756 2.367s1.843-.771 2.76-1.086c.327-.111 3.816-.879 6.28-.375 5.11 1.041 11.25 4.065 14.011 5.337a101 101 0 0 1 12.59 6.858c4.462 2.883 8.646 6.24 13.43 8.613 1.067.528 6.011 3.3 11.198 4.698a41.8 41.8 0 0 0 9.383 1.347z"/><path d="m107.738 6.672-6.405-.141s3.255 1.71 1.773 4.086l5.858.063z"/><path fill="#f01446" d="M100.916 8.283c-2.068.378 4.613 1.11 7.57.639s-5.5-1.014-7.57-.639"/><path fill="#64645a" d="M110.635 9.927c-4.893-.216-27.234.111-27.234.111s.384.873 3.327 1.5c6.35 1.317 17.99 2.895 24.415 2.847z"/><path fill="#828278" d="M128.159 3.684c-6.371.192-43.857.06-47.722 1.164-.104.315-.083.657.058.957.207.219 1.165.9 1.454.942 4.237.519 23.688-.147 24.89 1.539.748 1.05 2.14 3.6 2.452 6a6.9 6.9 0 0 1-.165 2.334c-.13.528-15.627 43.281-15.627 43.281s6.31 6.501 7.426 7.239a23.67 23.67 0 0 0 13.911 4.038c4.944-.084 10.91-3.324 14.537-6.798 1.752-1.677 3.273-5.028 3.273-5.028S120.3 22.863 119.98 16.872c-.18-3.39 1.26-6.423 4.47-8.475 2.46-1.572 6.572-2.535 8.114-2.823 2.314-.432 6.206-.927 6.404-1.458a70.6 70.6 0 0 0-10.81-.432"/><path d="M113.763 8.289c.28-.33.571-.483.95-.3.457.735.36 1.299-.343 1.902-.544-.357-.676-.963-.607-1.602M84.326 5.379a.74.74 0 0 1 .722-.141c.345.354.273.627-.262.918a.66.66 0 0 1-.46-.777M82.045 5.418a.74.74 0 0 1 .721-.141c.35.354.274.627-.258.918a.666.666 0 0 1-.463-.777"/></g></svg>