<svg xmlns="http://www.w3.org/2000/svg" width="152.897" height="121.464" viewBox="-0.153 0.279 152.897 121.464"><path d="M76.198 8.292c1.684.225 3.611.97 4.706 1.819 2.182 1.691 4.041 2.938 3.361 9.879.062-.622-14.274-7.253-14.274-7.253.474-2.5 3.583-4.798 6.207-4.445"/><path fill="#a0783c" d="M83.391 19.594s.59-2.357 2.95-1.105c2.359 1.252.794 4.037.22 5.082-.705 1.285-2.055 1.695-3.381 2.131.179-2.408.211-6.108.211-6.108M69.853 24.694c-1.324-.438-2.674-.847-3.38-2.131-.574-1.045-2.139-3.83.221-5.082s2.95 1.105 2.95 1.105.031 3.699.209 6.108"/><path fill="#be965a" d="M84.237 18.261c-.519-4.165-3.267-8.518-7.994-8.769-5.473-.289-7.643 3.794-7.701 8.725.122.287.215 5.111.376 6.554.222 1.979.613 3.569 1.745 5.236 2.397 3.526 5.99 4.753 9.709 3.221 1.634-.674 2.463-1.84 3.222-3.289.741-1.417.941-9.29.643-11.678"/><path d="m75.047 9.033-3.212 2.094s6.247.134 8.12-1.069zM76.53 21.83c-2.161 0-3.457-.105-4.382 1.936.043 1.031 2.187 2.072 4.266 2.019 2.078-.053 4.09-1.202 4.09-2.172 0-1.939-1.814-1.784-3.974-1.783"/><path fill="#a0783c" d="M77.1 16.824c-.275-.915-.725-1.749-1.261-2.597-1.078.715-1.719 2.65-1.094 3.859.155.299.861 1.192 2.028.535.413-.231.499-1.227.327-1.797"/><path d="M80.221 14.765c.22.709.261 1.251-.239 1.756-.818-.401-.545-1.077-.561-1.756zM72.129 16.336c-.57-.167-.57-.167-.839-.769l.368-.611.535.102c.216.439.256.828-.064 1.278"/><path fill="#be965a" d="M145.735 9.833c-1.226-.989 6.225-4.663 5.566-5.793-.661-1.131-7.027 3.249-8.018 2.59-.989-.66 5.196-4.884 4.885-5.786s-14.647 7.953-14.647 7.953L84.176 37.45s.191 4.909.984 6.923c.496 1.261.935 4.771 2.043 5.374 2.736-1.217 29.124-15.259 38.516-21.334 4.893-3.165 26.018-18.14 26.525-20.135-1.376-.578-5.282 2.544-6.509 1.555"/><path fill="#a0783c" d="M139.1.973c.998.08-2.606 5.623-1.677 5.903 3.035.917 4.154 3.436 1.118 4.866-2.249 1.058-4.664-.012-4.428-2.744S138.101.894 139.1.973"/><path fill="#be965a" d="M6.854 9.833C8.08 8.844.629 5.17 1.29 4.04c.66-1.131 7.027 3.249 8.016 2.59.991-.66-5.196-4.884-4.885-5.786s14.647 7.953 14.647 7.953L68.415 37.45s-.192 4.909-.985 6.923c-.496 1.261-.936 4.771-2.043 5.374-2.736-1.217-29.124-15.259-38.516-21.334C21.978 25.248.853 10.273.347 8.278c1.375-.578 5.281 2.544 6.507 1.555"/><path fill="#a0783c" d="M13.541.973c-.999.08 2.606 5.623 1.677 5.903-3.035.917-4.154 3.436-1.118 4.866 2.248 1.058 4.664-.012 4.427-2.744-.235-2.732-3.989-8.104-4.986-8.025"/><path fill="#006482" d="M53.234 82.219s1.464-13.188 2.439-14.893c.976-1.704 40.224-1.582 40.224-1.582l3.164 15.218zM96.293 94.328c-.735 4.574-3.029 17.578-3.029 17.578s-.132.456-.203 1.049c-.786-.079-1.5.013-1.5.013s-27.786.159-29.243.082c-1.059-.056-2.179-.07-3.127.047-.066-.661-.218-1.191-.218-1.191s-2.293-13.004-3.028-17.578h-2.898c.176 1.04.365 2.075.524 3.109.459 2.986 1.871 11.307 3.037 15.611.148.546.754 2.657 1.262 2.586 2.854.466 5.786.237 8.666.235 3.025-.002 27.647-.267 27.647-.267s.799-.166 1.446-2.554c1.167-4.304 2.578-12.625 3.037-15.611.159-1.034.348-2.069.525-3.109z"/><path d="M89.925 121.243c-.728.017-1.012-1.018-1.014-2.194-.001-1.136-.105-1.385.223-2.51.206-.22.491-.344.936-.317.769.174.851 1.088.788 1.946-.003.05.344 3.044-.933 3.075"/><path fill="#008cb4" d="M87.821 117.539h4.101v-5.221h-4.101z"/><path d="M62.487 121.243c-.727.017-1.011-1.018-1.013-2.194-.002-1.136-.106-1.385.223-2.51.205-.22.491-.344.936-.317.769.174.85 1.088.788 1.946-.004.05.344 3.044-.934 3.075"/><path fill="#008cb4" d="M60.383 117.539h4.101v-5.221h-4.101z"/><path fill="#006482" d="m58.5 94.368-2.405.541-2.861-12.69 2.404-.541zM49.353 110.728l-2.409-.521 3.745-17.235 2.407.522zM102.262 110.728l2.407-.521-3.743-17.235-2.409.522zM96.406 94.912l-2.427-.419 2.215-12.818 2.429.418z"/><path fill="#006482" d="M86.611 94.628c-.193 1.393-.485 2.399-.142 3.675.263.059 27.484-5.005 27.484-5.005l-1.236-3.334s-24.979 4.467-26.106 4.664"/><path fill="#008cb4" d="m106.584 86.368 2.99 13.293-4.037.896-3.495-13.144z"/><path d="M100.004 65.159c-1.617.424-.993.759-.299 4.481 1.25 6.707 9.622 33.455 10.972 37.876 1.302 4.266 2.283 8.717 4.298 12.722.704.688 1.476.964 2.421.562 1.575-1.234.509-5.063-.703-8.382-.765-2.095-12.968-42.77-12.968-42.77s-.88-5.236-3.721-4.489M106.49 70.035c-.45.114-.277.208-.094 1.241.33 1.863 11.676 37.192 12.039 38.421.352 1.187.612 2.423 1.161 3.539.194.193.407.271.669.162.441-.338.226-2.226-.101-3.15-.208-.582-12.031-38.548-12.031-38.548s-.854-1.866-1.643-1.665"/><path fill="#006482" d="M64.793 94.628c.193 1.393.485 2.399.141 3.675-.261.059-27.483-5.005-27.483-5.005l1.236-3.334s24.979 4.467 26.106 4.664"/><path fill="#008cb4" d="m44.82 86.368-2.99 13.293 4.037.896 3.496-13.144z"/><path d="M51.4 65.159c1.617.424.993.759.299 4.481-1.25 6.707-9.621 33.455-10.971 37.876-1.303 4.266-2.283 8.717-4.298 12.722-.705.688-1.476.964-2.42.562-1.577-1.234-.51-5.063.702-8.382.764-2.095 12.968-42.77 12.968-42.77s.879-5.236 3.72-4.489M44.914 70.035c.45.114.278.208.094 1.241-.33 1.863-11.676 37.192-12.039 38.421-.35 1.187-.611 2.423-1.161 3.539-.193.193-.406.271-.669.162-.44-.338-.226-2.226.103-3.15.206-.582 12.029-38.548 12.029-38.548s.854-1.866 1.643-1.665"/><path fill="#006482" d="M65.687 94.627v3.752c3.841.007 12.585.033 20.865-.037v-3.779c-7.08.029-15.098.057-20.865.064"/><path fill="#008cb4" d="M98.977 79.081c-7.348-.4-42.248-.116-45.192.922-2.303-.155-3.04 1.145-2.164 3.017.955.826 2.485 1.44 3.815 1.106 7.451-.156 33.086-.134 39.763-.286.809.272 4.084-.21 4.814-.726.219-1.019.986-4.431-1.036-4.033M105.176 110.373c.042 1.09-.286.765-2.747 1.043-4.436.502-42.964.39-45.989.393-2.918.002-5.89.241-8.781-.251-.566-.308-.886-.737-.815-1.403.471-1.22 3.071-1.286 5.379-1.164 1.457.077 49.432-.082 49.432-.082s3.444-.452 3.521 1.464"/><path fill="#780046" d="M91.723 68.712c-1.866-.327-29.335.632-33.805.293l3.822 11.744c1.87.476 25.071.165 29.248-.734.153-1.292.661-10.606.735-11.303"/><path fill="#be965a" d="M84.406 36.544c-1.066-.273-16.168-.826-16.596-.556-.314.829-1.226 11.459-1.226 11.459l17.822-1.892s.072-6.795 0-9.011"/><path fill="#f01446" d="M90.425 54.212c-.17-1.042-1.573-7.875-2.812-12.947a69 69 0 0 0-1.61-5.544s-2.803-.252-3.52-.119c-.006.441-.313 2.699-1.311 4.083-1.28 1.777-3.441 2.701-4.873 2.74-2.544.068-4.474-1.112-5.281-2.551-1.161-2.07-1.087-4.788-1.087-4.788s-1.95-.115-2.178-.042c-2.761.873-5.88 13.757-6.284 16.092a332 332 0 0 0-1.954 12.737c-.185 1.377-1.657 6.679-.655 7.918l34.31-.339c.333-.79-2.605-16.375-2.745-17.24"/><path d="M57.918 73.659h34.816v-4.904H57.918z"/><path fill="#64645a" d="M72.054 74.137h7.78v-6.07h-7.78z"/><path fill="#be965a" d="M95.311 70.793c-.06 6.621-2.15 12.806-2.15 12.806l-12.344.194s.806-19.389 3.91-22.377c.871-.838 3.031-3.571 7.322-1.73s3.289 8.197 3.262 11.107"/><path fill="#f0e6d2" d="M80.214 79.244c-.337 3.634-.462 10.286-.451 11.655 2.155.633 10.202-.393 12.156-.847.778-1.17 2.185-7.089 2.906-10.808z"/><path fill="#f01446" d="m77.012 107.67-.233 1.487 15.814-.093.247-1.247-9.177-1.819z"/><path d="m93.678 87.236-7.424.086c-3.62.044-7.257.088-7.526.098-.242 3.078-1.716 20.25-1.716 20.25s14.616.051 15.828.147l.143-.488c-.92-1.01-3.023-.491-4.232-.96.603-1.989 3.868-13.708 4.927-19.133"/><path fill="#f01446" d="M86.936 92.495a3.88 3.88 0 0 1-3.883 3.877 3.88 3.88 0 0 1-3.882-3.877 3.88 3.88 0 0 1 3.882-3.877 3.88 3.88 0 0 1 3.883 3.877"/><path fill="#780046" d="M84.895 92.495a1.841 1.841 0 0 1-3.684 0 1.84 1.84 0 0 1 1.842-1.84 1.84 1.84 0 0 1 1.842 1.84M92.491 89.065a.772.772 0 1 1-1.545 0 .772.772 0 0 1 1.545 0M91.653 92.089a.772.772 0 1 1-1.545 0 .772.772 0 0 1 1.545 0M90.945 95.242a.772.772 0 1 1-1.543-.001.772.772 0 0 1 1.543.001M90.172 97.88a.772.772 0 1 1-1.545-.003.772.772 0 0 1 1.545.003M89.463 100.646a.772.772 0 1 1-1.545 0 .772.772 0 0 1 1.545 0M88.69 103.542a.772.772 0 1 1-1.543-.001.772.772 0 0 1 1.543.001"/><path fill="#be965a" d="M70.459 81.414c-1.068.073-11.097-.192-11.419-.241-.439-2.534-2.657-9.704-2.487-14.464.102-2.826.876-5.702 2.551-7.281 1.006-.948 2.336-1.428 4.04-1.152 4.406.717 5.825 7.242 6.386 10.962.536 3.55.477 8.653.929 12.176"/><path fill="#f0e6d2" d="M57.861 79.252c.446 2.92 1.194 7.875 1.451 9.899 3.112 1.049 9.352.715 12.564.021.417-1.13-.525-7.187-.945-9.92z"/><path fill="#f01446" d="m74.636 107.678.232 1.487-15.813-.092-.247-1.248 9.177-1.818z"/><path d="M57.97 87.245s3.701.041 7.423.085c3.62.044 7.258.088 7.525.098.243 3.078 1.718 20.25 1.718 20.25s-14.617.052-15.829.147l-.143-.488c.92-1.01 3.023-.491 4.232-.959-.603-1.99-3.749-13.07-4.926-19.133"/><path fill="#f01446" d="M64.711 92.503a3.88 3.88 0 0 0 3.883 3.878 3.88 3.88 0 0 0 3.882-3.878 3.88 3.88 0 0 0-3.882-3.877 3.88 3.88 0 0 0-3.883 3.877"/><path fill="#780046" d="M66.752 92.503a1.84 1.84 0 0 0 1.842 1.84 1.84 1.84 0 1 0 0-3.679 1.84 1.84 0 0 0-1.842 1.839M59.156 89.074a.773.773 0 0 0 1.546 0 .773.773 0 0 0-1.546 0M59.994 92.097a.772.772 0 1 0 1.545 0 .772.772 0 0 0-1.545 0M60.703 95.25a.772.772 0 1 0 1.545 0 .772.772 0 0 0-1.545 0M61.476 97.888a.772.772 0 1 0 1.543-.001.772.772 0 0 0-1.543.001M62.184 100.655a.772.772 0 1 0 1.545-.003.772.772 0 0 0-1.545.003M62.957 103.55a.773.773 0 0 0 1.545 0 .772.772 0 0 0-1.545 0"/></svg>