<svg xmlns="http://www.w3.org/2000/svg" width="199.619" height="119.435" viewBox="-0.401 -0.897 199.619 119.435"><defs><linearGradient id="a" x1=".85" x2="53.819" y1="108.329" y2="108.329" gradientUnits="userSpaceOnUse"><stop offset=".55" stop-color="#0c5a43"/><stop offset=".87" stop-color="#81ac43"/><stop offset=".92" stop-color="#b0cc4d"/></linearGradient></defs><path fill="#00a9ae" d="M193.267 7.359a3.758 3.758 0 0 0-5.619-1.155c-4.983 3.916-10.702 6.799-16.572 9.189L65.489 55.871l1.238 2.656 107.316-41.176c5.339-2.174 10.968-3.404 16.622-4.484q.367-.07.712-.211a3.76 3.76 0 0 0 2.131-2.224 3.77 3.77 0 0 0-.241-3.073"/><path fill="#f3e5cf" d="m63.354 54.48-.085-2.415a3.92 3.92 0 0 0-.642 4.211 3.9 3.9 0 0 0 3.579 2.301h17.67a2.855 2.855 0 0 0 2.641-1.782l.426-1.05z"/><path fill="#f3e5cf" d="m57.805 64.734 2.687-1.974a21.65 21.65 0 0 1 12.802-4.213h5.644v-2.008l-15.955-2.36z"/><path fill="#0c5a43" d="M10.686 93.04V67.355c0-5.793 4.688-10.49 10.471-10.49h4.066c11.664 0 21.855-7.497 28.251-13.653a20.44 20.44 0 0 1 18.807-5.223l11.946 2.777a2.104 2.104 0 0 1 .782 3.751l-68.714 51.34a3.5 3.5 0 0 1-3.673.326 3.51 3.51 0 0 1-1.936-3.143"/><path fill="#b0cc4d" d="M20.836 64.523c.519 0 .989.211 1.329.552.341.341.551.811.551 1.331s-.21.99-.551 1.331a1.87 1.87 0 0 1-2.657 0 1.88 1.88 0 0 1-.551-1.331c0-.52.21-.99.551-1.331a1.87 1.87 0 0 1 1.328-.552M51.599 59.501c.606 0 1.155.247 1.552.645.398.398.644.948.644 1.555s-.246 1.156-.644 1.555a2.19 2.19 0 0 1-1.552.644 2.198 2.198 0 0 1-1.552-3.754 2.2 2.2 0 0 1 1.552-.645M33.052 70.8a2.699 2.699 0 0 1 2.697 2.701c0 .746-.302 1.421-.79 1.91a2.69 2.69 0 0 1-3.813 0 2.7 2.7 0 0 1-.79-1.91 2.7 2.7 0 0 1 2.696-2.701M25.659 74.942a2.56 2.56 0 0 1 1.817.755 2.57 2.57 0 0 1 .754 1.821c0 .711-.288 1.355-.754 1.821a2.56 2.56 0 0 1-1.817.755c-.71 0-1.353-.288-1.818-.755a2.57 2.57 0 0 1-.754-1.821c0-.71.288-1.354.754-1.821a2.56 2.56 0 0 1 1.818-.755"/><path fill="none" stroke="#1c252e" stroke-width=".5" d="M14.696 82.726v-5.127c0-.908.379-1.775 1.045-2.39a3.24 3.24 0 0 1 2.464-.849l.762.06a3.604 3.604 0 0 0 3.839-2.932l.121-.638a3.46 3.46 0 0 1 1.511-2.265 3.45 3.45 0 0 1 2.679-.467l1.324.312a3.54 3.54 0 0 0 4.17-2.366l.431-1.33a3.58 3.58 0 0 1 4.01-2.436l3.459.598a5.98 5.98 0 0 0 5.835-2.31l14.842-19.895"/><path fill="#1c252e" d="M80.171 43.126a.997.997 0 0 1 1 1 .997.997 0 0 1-1 1 .997.997 0 0 1-1-1 .997.997 0 0 1 1-1M80.673 40.113a1 1 0 1 1 0 2 1 1 0 0 1 0-2"/><path fill="#60a14e" d="M59.183 48.956c1.245 0 2.373.507 3.19 1.325a4.5 4.5 0 0 1 1.322 3.195 4.5 4.5 0 0 1-1.322 3.194 4.5 4.5 0 0 1-3.19 1.325 4.5 4.5 0 0 1-3.189-1.325 4.5 4.5 0 0 1-1.322-3.194c0-1.247.505-2.377 1.322-3.195a4.5 4.5 0 0 1 3.189-1.325"/><path fill="#b0cc4d" d="M26.1 63.644a4.51 4.51 0 0 0 3.994-2.411 4.53 4.53 0 0 0-.27-4.664 28.4 28.4 0 0 1-4.551.376H22.14a4.53 4.53 0 0 0 .077 4.475 4.51 4.51 0 0 0 3.883 2.214zM10.736 67.445V70.8a3.6 3.6 0 0 0 1.123.427 3.82 3.82 0 0 0 4.11-1.896 3.84 3.84 0 0 0-.571-4.497.662.662 0 0 1 .08-1.004 3.2 3.2 0 0 0 1.213-2.24 3.26 3.26 0 0 0-1.328-2.847 10.49 10.49 0 0 0-4.627 8.702M12.44 77.157a2.56 2.56 0 0 0-1.704-2.415v4.825a2.56 2.56 0 0 0 1.704-2.41M36.666 57.272a2.01 2.01 0 0 0-.365 1.692 2.004 2.004 0 0 0 3.96-.467v-.316a.527.527 0 0 1 .501-.563 4.26 4.26 0 0 0 3.97-2.345 4.66 4.66 0 0 0-.281-4.725 44.3 44.3 0 0 1-7.94 4.143q.102.274.241.532c.377.64.344 1.443-.086 2.049"/><path fill="#eee75a" d="M67.162 35.565c1.832 0 3.493.746 4.695 1.95a6.64 6.64 0 0 1 1.947 4.704 6.64 6.64 0 0 1-1.947 4.703 6.61 6.61 0 0 1-4.695 1.95 6.6 6.6 0 0 1-4.695-1.95 6.64 6.64 0 0 1-1.947-4.703c0-1.836.744-3.499 1.947-4.704a6.62 6.62 0 0 1 4.695-1.95"/><path fill="#1c252e" d="M71.613 41.154h-.531a1.5 1.5 0 0 1-1.238-.693 3.203 3.203 0 0 0-5.359 0 1.5 1.5 0 0 1-1.238.693h-.531a1.11 1.11 0 0 0-1.123.954 1.067 1.067 0 0 0 1.057 1.18h.597c.51 0 .986.259 1.263.688a3.195 3.195 0 0 0 5.359 0 1.5 1.5 0 0 1 1.238-.688h.591a1.07 1.07 0 0 0 1.063-1.18 1.11 1.11 0 0 0-1.148-.954"/><path fill="#0c5a43" d="M73.008 91.776H10.686V81.562h51.796c5.687-.003 10.347 4.52 10.526 10.214"/><path fill="#1c252e" d="M57.053 81.562h5.013v10.209h-5.013zM41.138 81.562h5.012v10.239h-5.012z"/><path fill="#0c5a43" d="M.851 100.319h63.661c4.706 0 8.522-3.822 8.522-8.536H9.207a8.36 8.36 0 0 0-5.966 2.511 8.38 8.38 0 0 0-2.39 6.025"/><path fill="#1c252e" d="M57.078 91.612h5.013v8.702h-5.013zM41.163 91.612h5.013v8.702h-5.013zM18.716 100.319h-5.012l.015-7.994h5.012z"/><path fill="url(#a)" d="M52.42 106.672a1.78 1.78 0 0 0-1.308.191c-.554.3-1.193.408-1.815.306l-12.942-1.823a.844.844 0 0 1 .05-1.672l13.609-1.08c.466-.022.932.059 1.364.236.341.13.714.151 1.067.061a1.818 1.818 0 0 0-.446-3.586 1.78 1.78 0 0 0-1.148.417 3.03 3.03 0 0 1-1.945.638H.85c0 5.269 4.264 9.541 9.524 9.541h8.812c2.907.001 5.803.35 8.627 1.039l19.384 4.74c.632.158 1.2.509 1.624 1.005a1.8 1.8 0 0 0 2.311.323 1.81 1.81 0 0 0 .698-2.23 1.805 1.805 0 0 0-2.082-1.056c-.462.125-.95.125-1.413 0l-12.331-3.641a.843.843 0 0 1 .301-1.647l13.368 1.01c.473.047.925.22 1.309.502.294.204.644.314 1.002.316.557 0 1.082-.256 1.427-.693a1.83 1.83 0 0 0 .343-1.552 1.8 1.8 0 0 0-1.334-1.345"/><path fill="#1c252e" d="M13.717 100.385h5.013v9.541h-5.013z"/><path fill="none" stroke="#0c5a43" stroke-linecap="round" stroke-width="2.5" d="M54.812 79.548h7.855c6.921 0 12.532 5.621 12.532 12.554"/><path fill="#0c5a43" d="m56.401 65.609.001 15.22h-3.745c-4.706 0-8.522-3.822-8.522-8.537v-5.287a.46.46 0 0 1 .331-.442l9.605-2.747a1.842 1.842 0 0 1 2.33 1.793"/><path fill="#b0cc4d" d="M46.136 77.71a5.582 5.582 0 0 0-2.006-10.66v5.177a8.5 8.5 0 0 0 2.006 5.483"/><path fill="#fbf4e9" d="m196.755 9.328-10.276 1.271a3.82 3.82 0 0 0-3.447 3.161 3.83 3.83 0 0 0 2.188 4.138 3.815 3.815 0 0 0 4.548-1.083zM196.755 9.263l-10.276-1.27a3.82 3.82 0 0 1-3.447-3.162A3.83 3.83 0 0 1 185.22.694a3.816 3.816 0 0 1 4.548 1.082z"/><path fill="#1c252e" d="M195.462 6.647a2.506 2.506 0 0 1 2.506 2.511 2.51 2.51 0 0 1-2.506 2.51 2.506 2.506 0 0 1-2.506-2.51c0-.693.28-1.321.734-1.775a2.5 2.5 0 0 1 1.772-.736"/></svg>