<svg xmlns="http://www.w3.org/2000/svg" xml:space="preserve" viewBox="0 0 512 512"><linearGradient id="a" x1="199.291" x2="199.291" y1="512" y2="0" gradientUnits="userSpaceOnUse"><stop offset=".074" style="stop-color:#e5b077"/><stop offset=".995" style="stop-color:#f8c783"/></linearGradient><path d="M392.653 20.344a42 42 0 0 0-1.926-3.037c-1.555-2.296-3.259-4.443-5.258-6.369a52 52 0 0 0-2.962-2.74c-1.851-1.555-3.851-2.888-5.925-3.925A35.7 35.7 0 0 0 364.659.126c-3.184-.518-6.22.593-8.517 2.74-3.332 1.555-5.924 4.888-6.443 9.109-.889 6.443 3.185 12.441 9.035 13.404 3.629.593 6.961 2.37 9.553 4.962.889.889 1.704 1.926 2.444 2.962 2.888 4.295 4.073 9.553 3.407 14.885-.518 3.925-1.778 7.627-3.629 10.812a26 26 0 0 1-3.11 4.369c-1.185 1.333-2.444 2.592-3.851 3.629-4.591 2.666-9.997 3.851-15.552 2.962-2-.37-3.925-.814-5.776-1.481-1.778-.667-3.481-1.407-5.036-2.37.148-1.259.296-2.592.518-3.925.297-2.37.593-4.739.815-6.961v-.074c1.111-9.035 1.999-17.033 2.518-23.772 1.111-13.404.963-21.847-1.555-23.624-5.776-3.999-27.993 2.962-37.176 12.219h-.074c-.112.149-.215.27-.335.41l-.035.035a1.6 1.6 0 0 1-.297.37 12.4 12.4 0 0 0-1.333 1.555c-.222.371-.444.667-.666.963v.074c-.074.148-.074.148-.148.222 0 0-.074.074-.074.148-.518-.592-.963-1.185-1.481-1.703l-1.407-1.481q-.012-.01-.024-.02l-.001-.007-.002.004c-4.141-4.209-8.944-7.535-14.191-9.827a42.6 42.6 0 0 0-17.107-3.554c-12.886 0-24.512 5.777-32.881 15.181-.296-.296-.518-.592-.74-.815h-.074c-8.368-8.887-19.625-14.367-32.14-14.367-.518 0-1.111 0-1.629.074-12.145.444-23.105 5.998-31.104 14.811l.002.044c-.066.082-.141.156-.207.227-8.39-9.37-20.039-15.181-32.937-15.181-10.933 0-20.987 4.183-28.904 11.176h-.011l-4.149 2.479-2.175 1.304-2.194-1.902-5.998-5.11C79.323 8.495 63.771 4.496 59.105 7.754c-4.073 2.888-1.925 23.401 1.777 54.431.222 1.333.371 2.666.518 3.925l.005.031a31.6 31.6 0 0 1-5.014 2.302 32 32 0 0 1-5.79 1.513c-5.559.903-10.979-.254-15.614-2.95-.024-.015-.044-.037-.068-.052-.015-.01-.031 0-.031-.031-5.406-4.221-9.331-10.886-10.442-18.736-.666-5.332.518-10.59 3.407-14.885 2.888-4.37 7.183-7.11 11.997-7.924 5.85-.963 9.923-6.961 9.035-13.404-.518-4.221-3.036-7.554-6.369-9.109-.024-.011-.052-.012-.076-.023C40.157.709 37.094-.374 33.924.144 23.431 1.85 14.174 7.939 7.841 17.309 1.519 26.666-1.115 38.185.433 49.729 2.317 63.778 9.205 75.678 18.82 83.573q.043.033.087.065c8.648 17.015 21.128 31.31 36.118 41.62.259.191.487.426.748.615.371.296.667.518 1.037.666 4.295 3.111 8.813 5.777 13.478 8.072a84.5 84.5 0 0 0 11.034 4.591c.741 1.407 1.259 2.962 1.63 4.666 1.111 4.887.444 9.923-1.925 14.145-3.184 5.924-9.775 8.22-15.404 5.702-3.48-2.888-4.443-8.368-2.073-12.664 1.481-2.74.666-6.22-1.704-7.998h-.074c-.518-.297-1.036-.518-1.555-.593-.296-.518-.741-.889-1.259-1.259-2.518-1.704-5.777-.815-7.258 1.925-2.147 3.999-3.036 8.442-2.74 12.812.444 6.665 3.703 12.96 9.331 16.737.37.222.74.444 1.111.592a9.6 9.6 0 0 0 1.703 1.333c3.777 2.444 7.85 3.629 11.923 3.629 7.85 0 15.478-4.37 19.847-12.294 2.962-5.332 4.221-11.404 3.851-17.477l.074.074c20.217 22.217 45.026 32.658 65.169 37.546v53.912l-6.369 3.481-8.294 3.851-.592.074.222.814-.222.889h.592l8.294 23.254 6.369 3.555c0 15.329-1.851 27.326-5.184 37.102-5.776.148-10.368 4.888-10.368 10.59v2.296c-2.518.148-4.814 1.036-6.665 2.518h-15.478l-38.657 50.062v98.05c-4.295 1.851-7.924 3.851-10.516 5.999-6.295 0-11.405 5.628-11.405 12.59V512h271.192v-16.884c0-6.739-4.813-12.294-10.886-12.59h-.518c-2.584-2.141-6.203-4.135-10.48-6.055V378.5h-.036v-.023l-38.657-50.062h-15.33c-.074-.074-.148-.074-.222-.148 0 0-.074-.074-.148-.074-.074-.148-.148-.148-.296-.222-.667-.444-1.407-.814-2.148-1.185h-.074a9.7 9.7 0 0 0-2.074-.667c-.222-.074-.444-.148-.666-.148-.371-.074-.815-.148-1.185-.148v-2.222c0-.74-.074-1.481-.222-2.147a4.9 4.9 0 0 0-.444-1.481c0-.074 0-.148-.074-.222-.074-.222-.148-.444-.297-.667-.222-.518-.518-.963-.814-1.407a7.5 7.5 0 0 0-.963-1.185 3.5 3.5 0 0 0-.74-.741 5.6 5.6 0 0 0-1.037-.815c-.592-.444-1.185-.74-1.777-1.037a9.3 9.3 0 0 0-3.999-.889c-.222-.666-.445-1.407-.667-2.073a61 61 0 0 1-1.555-5.851 62 62 0 0 1-.815-3.925c-.222-1.185-.444-2.444-.593-3.703-.148-.667-.222-1.333-.296-2.074-.148-1.11-.296-2.296-.444-3.48-.222-2.37-.444-4.888-.592-7.48-.074-1.259-.148-2.592-.148-3.925-.074-1.333-.074-2.74-.074-4.147v-.444l5.702-3.185.667-.37 8.368-23.254h.518l-.222-.889.222-.814-.518-.074-5.406-2.518-2.962-1.333-6.369-3.481v-53.912c6.295-1.555 13.034-3.629 19.995-6.443 1.407-.518 2.74-1.111 4.147-1.778 1.185-.518 2.443-1.036 3.629-1.629.222-.074.37-.222.592-.296 1.407-.667 2.814-1.407 4.221-2.148.518-.296 1.111-.593 1.63-.889a146 146 0 0 0 6.443-3.777c.074-.148.222-.222.296-.222a115.7 115.7 0 0 0 16.441-12.59c1.333-1.185 2.592-2.444 3.925-3.777 1.333-1.259 2.592-2.592 3.851-3.999-.37 6.073.963 12.071 3.925 17.403 4.295 7.924 11.997 12.294 19.847 12.294 4.073 0 8.146-1.185 11.923-3.629.444-.37.889-.666 1.259-.963l.074-.074.004-.002c.013-.008.025-.01.036-.016.268-.159.536-.33.805-.497.206-.131.412-.262.636-.374 1.623-1.087 2.976-2.454 4.198-3.929 5.712-6.854 6.99-17.249 2.405-25.611-.129-.235-.332-.374-.485-.581-.821-1.128-1.925-1.853-3.17-2.076-1.2-.221-2.467-.058-3.591.687-.508.331-.936.75-1.283 1.22l-.001.003a7 7 0 0 0-1.553.665c-2.444 1.703-3.259 5.258-1.777 7.998 2.295 4.145 1.482 9.4-1.699 12.51l-.012.007a9.4 9.4 0 0 1-2.256.805c-.262.064-.527.073-.79.118-.611.092-1.224.184-1.826.184-.583.006-1.167.001-1.742-.081a12 12 0 0 1-2.215-.54c-.2-.07-.387-.184-.584-.265-.549-.225-1.097-.459-1.615-.78-.084-.05-.159-.118-.243-.171-.713-.438-1.411-1.028-2.078-1.663a13 13 0 0 1-.578-.593 16.3 16.3 0 0 1-1.614-2.19c-.071-.122-.163-.22-.231-.345a20 20 0 0 1-2.264-6.871c-.32-2.4-.21-4.873.344-7.309.024-.131.076-.252.104-.382.329-1.359.79-2.655 1.374-3.869.055-.11.094-.232.151-.341 8.42-2.928 16.4-7.096 23.736-12.199.095-.061.199-.104.293-.164q0-.002.004-.004h.036a89 89 0 0 0 5.406-3.776c.106-.079.205-.169.311-.248.823-.616 1.607-1.287 2.413-1.927 1.107-.881 2.233-1.738 3.308-2.666.402-.347.778-.727 1.176-1.08 1.415-1.257 2.828-2.514 4.196-3.855a124 124 0 0 0 4.205-4.455c5.81-6.408 10.913-13.574 15.225-21.331.747-1.327 1.522-2.642 2.194-3.984 9.628-7.924 16.515-19.847 18.366-33.844 1.406-10.289-.52-20.657-5.481-29.395M75.256 122.497c-4.917-2.207-9.591-4.903-14.049-7.963-7.416-5.501-14.027-12.065-19.727-19.616 2.666.592 5.406.814 8.22.814 2.222 0 4.517-.148 6.813-.518a61 61 0 0 0 7.48-1.777 32 32 0 0 0 2.814-1.037c3.036 10.886 6.887 20.588 11.404 29.178a4.17 4.17 0 0 0-2.955.919m26.431-69.347v-.074c.009-.029.011-.062.02-.091l.011.087c.121.921.25 1.828.378 2.736-.131-.876-.255-1.737-.409-2.658m1.556 10.146-.144-.938c.053.315.099.634.156.949l.041.237c-.018-.082-.036-.159-.053-.248m.592 3.48a27 27 0 0 1-.178-1.176 190 190 0 0 0 .25 1.355c-.018-.053-.036-.107-.072-.179m.148.741v-.165q.011.072.024.137c.07.394.149.784.226 1.174-.078-.376-.15-.747-.25-1.146m.37 1.852v-.08q.01.057.023.109c.052.282.112.566.169.851a17 17 0 0 0-.192-.88m2.296 10.515c-.222-1.037-.445-2.073-.741-3.11-.166-.775-.332-1.585-.498-2.381.173.786.344 1.574.526 2.352.243 1.055.485 2.085.74 3.115.19.771.385 1.527.579 2.283-.199-.75-.386-1.487-.606-2.259m4.073 14.293c-.297-.74-.518-1.481-.741-2.222 0-.148 0-.222-.074-.37 0-.074-.074-.148-.074-.222-.222-.814-.518-1.629-.741-2.518-.043-.14-.076-.28-.118-.42.043.148.085.302.128.449.231.827.485 1.64.728 2.454.023.089.057.165.081.254.034.127.069.242.104.356.419 1.365.864 2.682 1.308 4.003-.2-.589-.4-1.162-.601-1.764m3.036 8.739-.852-2.343c.292.79.574 1.571.877 2.35.094.255.197.507.293.761-.106-.262-.212-.503-.318-.768m1.037 2.666c0-.056-.015-.073-.028-.112l.033.085c0 .022.012.036.02.052zm3.185 7.553c-.74-1.555-1.407-3.258-2.147-4.887 0-.074 0-.148-.074-.222-.143-.357-.286-.76-.429-1.144.155.388.308.783.465 1.165.023.051.046.114.069.165a133 133 0 0 0 2.138 4.959c.06.136.123.267.184.402-.07-.146-.134-.292-.206-.438m6.516 13.034c0-.074 0-.148-.074-.148-.444-.889-.963-1.703-1.407-2.592-.518-.963-.963-1.851-1.481-2.814-.37-.814-.74-1.555-1.185-2.37l-.604-1.329c.207.433.409.872.626 1.301.393.814.786 1.602 1.191 2.39.474.953.971 1.894 1.468 2.822.451.865.924 1.716 1.387 2.556.046.063.081.14.116.203.097.178.201.352.301.529-.109-.182-.215-.365-.338-.548m4.666 7.85c-.806-1.277-1.556-2.565-2.351-3.896a145 145 0 0 0 2.378 3.872c0 .012.01.013.022.024zm8.442 11.923c-.26-.39-.542-.757-.823-1.126.284.368.564.739.855 1.105q.65.845 1.332 1.673c-.43-.508-.861-1.077-1.364-1.652m4.74 5.703c-.518-.667-1.111-1.333-1.629-1.926-.288-.36-.558-.674-.828-1.008l.8.972a134 134 0 0 0 1.687 1.971c.299.346.61.673.912 1.013-.312-.349-.621-.661-.942-1.022m6.443 6.961c-.272-.311-.544-.602-.816-.894.285.29.567.583.853.871.274.272.549.55.824.825-.287-.282-.574-.573-.861-.802m2.444 2.37-.761-.761q.39.382.782.759c.783.752 1.586 1.463 2.382 2.189-.796-.722-1.588-1.415-2.403-2.187m16.662 13.7c-.299-.219-.598-.473-.898-.693.336.24.675.456 1.012.693zm15.589 0c-1.761-6.883-3.397-14.368-4.934-22.282 1.544 7.949 3.204 15.379 4.971 22.282zm151.259-58.282c-.074.074-.074.074-.148.074-.232.15-.478.273-.711.421a89 89 0 0 1-9.932 5.349c-.158.071-.307.158-.466.228-.265-.163-.55-.258-.826-.382-.205-.099-.4-.216-.615-.284-.106-.033-.218-.033-.325-.06a4.7 4.7 0 0 0-1.247-.15c-.033.001-.064-.014-.097-.012 2.222-4.295 4.295-8.887 6.22-13.7 1.926-4.888 3.629-9.998 5.184-15.478.222.148.518.222.741.296.666.222 1.333.444 2.073.741 2.37.74 4.887 1.333 7.406 1.777 2.37.37 4.666.518 6.887.518 2.814 0 5.554-.222 8.22-.814-6.368 8.442-13.922 15.7-22.364 21.476" style="fill:url(#a)"/><path d="M327.557 489.117V512H71.028v-22.883c0-2.296 1.481-4.444 4.073-6.591s6.22-4.147 10.516-5.999c17.774-7.85 46.063-13.182 50.136-13.182h127.154c3.999 0 32.288 5.258 50.062 13.108 4.295 1.926 7.924 3.925 10.516 6.073h.074c2.517 2.147 3.998 4.295 3.998 6.591" style="fill:#3a2625"/><path d="M85.617 378.478h227.351v110.491H85.617z" style="fill:#381f1f"/><path d="M196.736 378.5h116.268v110.487H196.736z" style="fill:#2b1617"/><path d="M312.969 378.478H85.617l38.657-50.062h150.037z" style="fill:#362221"/><linearGradient id="b" x1="199.293" x2="199.293" y1="248.657" y2="174.676" gradientUnits="userSpaceOnUse"><stop offset="0" style="stop-color:#e5b077"/><stop offset=".995" style="stop-color:#d39a52"/></linearGradient><path d="M236.617 174.676v73.982c-12.071-.37-24.587-.444-37.25-.444h-4.073c-11.479 0-22.513.074-33.325.444v-73.982z" style="fill:url(#b)"/><linearGradient id="c" x1="199.293" x2="199.293" y1="352.114" y2="220.22" gradientUnits="userSpaceOnUse"><stop offset=".148" style="stop-color:#e5b077"/><stop offset=".995" style="stop-color:#dea663"/></linearGradient><path d="M263.87 345.597v2.74c-20.291 2.444-42.064 3.777-64.503 3.777h-4.073c-21.18-.148-41.545-1.407-60.578-3.777v-2.74c4.295-3.925 8.294-8.072 11.701-12.738 1.185-1.407 2.148-2.888 3.036-4.443.667-.815 1.185-1.703 1.703-2.592a72.6 72.6 0 0 0 5.628-12.812c3.333-9.775 5.184-21.772 5.184-37.102v-54.431c10.812-.74 21.847-1.185 33.325-1.185 1.333-.074 2.592-.074 3.999-.074h.074c12.441 0 24.809.444 36.658 1.259h.592v54.876c0 1.407 0 2.814.074 4.147 0 1.333.074 2.666.148 3.925.148 2.592.37 5.11.592 7.48.148 1.185.296 2.37.444 3.48.074.741.148 1.407.296 2.074.148 1.259.371 2.518.593 3.703.222 1.333.518 2.666.815 3.925a61 61 0 0 0 1.555 5.851c.222.666.444 1.407.667 2.073a72.6 72.6 0 0 0 5.628 12.812c.518.889 1.037 1.777 1.704 2.592.814 1.555 1.851 3.036 3.036 4.443 3.407 4.665 7.332 8.812 11.702 12.737" style="fill:url(#c)"/><path d="M236.606 240.353v44.54a180 180 0 0 1-34.132 3.841 181.407 181.407 0 0 1-40.494-3.831v-44.54a181.4 181.4 0 0 0 40.494 3.831 180 180 0 0 0 34.132-3.841" style="opacity:.1;fill:#331d1c"/><linearGradient id="d" x1="146.713" x2="251.873" y1="257.952" y2="257.952" gradientUnits="userSpaceOnUse"><stop offset=".463" style="stop-color:#e5b077"/><stop offset=".995" style="stop-color:#d39a52"/></linearGradient><path d="m251.65 248.213.223.889h-.593l-8.294 23.253-.667.371-5.702 3.184-.815.445-6.22 3.332-16.589 1.704h-27.4l-16.589-1.704-7.035-3.777-6.369-3.555-8.294-23.253h-.593l.222-.889-.222-.814.593-.074 8.294-3.851 6.369-3.481 7.035-3.851 16.589-1.629h27.4l16.589 1.629 7.035 3.851 6.369 3.481 2.962 1.333 5.406 2.518.519.074z" style="fill:url(#d)"/><linearGradient id="e" x1="146.417" x2="252.169" y1="325.898" y2="325.898" gradientUnits="userSpaceOnUse"><stop offset=".463" style="stop-color:#e5b077"/><stop offset=".995" style="stop-color:#d39a52"/></linearGradient><path d="M252.169 323.602v15.256H146.417v-15.256c0-5.702 4.591-10.442 10.368-10.59.148-.074.222-.074.37-.074h84.572l.074.074q2.11 0 3.999.889c.592.297 1.185.593 1.777 1.037.37.222.74.518 1.037.815.296.222.519.444.74.741.37.37.667.74.963 1.185.296.444.592.889.814 1.407.148.222.222.444.297.667.074.074.074.148.074.222.222.444.37.963.444 1.481.148.665.223 1.406.223 2.146" style="fill:url(#e)"/><linearGradient id="f" x1="134.716" x2="263.87" y1="340.524" y2="340.524" gradientUnits="userSpaceOnUse"><stop offset=".463" style="stop-color:#e5b077"/><stop offset=".995" style="stop-color:#d39a52"/></linearGradient><path d="M263.87 338.34v16.884H134.716V338.34c0-4.074 2-7.702 5.036-9.924 1.851-1.481 4.147-2.37 6.665-2.518.296-.074.592-.074.889-.074H251.28c.296 0 .593 0 .889.074.444 0 .814 0 1.185.074.222 0 .444.074.666.148.741.148 1.407.37 2.074.667h.074c.741.37 1.481.74 2.148 1.185.148.074.222.074.296.222.074.074.148.074.222.222.444.296.963.667 1.333 1.111.519.518 1.037 1.036 1.333 1.629.222.297.518.667.667 1.037.222.296.37.593.518.889s.297.667.444.963c.148.37.222.74.297 1.111.148.296.222.666.222.962q.222 1.11.222 2.222" style="fill:url(#f)"/><path d="M334.889 495.116V512H63.696v-16.884c0-6.961 5.11-12.59 11.405-12.59h248.901c6.074.296 10.887 5.85 10.887 12.59" style="fill:#2b1617"/><path d="M215.659 189.635a43 43 0 0 1-2.888.296c-.444.074-.889.148-1.259.148-.74.074-1.407.074-2.074.074s-1.259 0-1.851.074c-2.443.074-4.369.074-5.776.074-1.63 0-2.518-.074-2.518-.074s-1.111.074-3.184.074c-1.851 0-4.443 0-7.628-.222-.667 0-1.407-.074-2.074-.074-1.999-.148-4.221-.296-6.591-.518a207 207 0 0 1-17.847-2.814v23.846c9.627 2.073 17.996 3.036 24.438 3.406 3.925.297 7.035.297 9.257.297 2.37 0 3.629-.074 3.629-.074s.963.074 2.814.074c2.074 0 5.332 0 9.405-.222 6.443-.444 15.181-1.333 25.105-3.48V186.6a159 159 0 0 1-20.958 3.035" style="opacity:.1;fill:#331d1c"/><linearGradient id="g" x1="60.849" x2="60.849" y1="178.231" y2="1.908" gradientUnits="userSpaceOnUse"><stop offset=".074" style="stop-color:#947158"/><stop offset="1" style="stop-color:#9e7b5c"/></linearGradient><path d="M118.868 138.315c0 3.555-2.592 6.369-5.776 6.369a100 100 0 0 1-17.033-1.481c.371 1.777.593 3.481.667 5.258.37 6.073-.889 12.145-3.851 17.477-4.369 7.924-11.997 12.294-19.847 12.294-4.073 0-8.146-1.185-11.923-3.629a9.6 9.6 0 0 1-1.703-1.333c-5.777-4.813-8.591-12.737-7.48-20.291.37-2.74 1.185-5.406 2.592-7.924 1.185-2.222 3.555-3.184 5.702-2.592.519.074 1.037.296 1.555.593h.074c2.37 1.777 3.184 5.258 1.704 7.998-2.37 4.295-1.407 9.775 2.073 12.664.297.444.593.666.963.889 5.924 3.999 13.7 1.851 17.255-4.666 2.37-4.295 3.036-9.331 1.926-14.145a18.8 18.8 0 0 0-2.296-5.776c-.741-.222-1.481-.444-2.148-.815a84.5 84.5 0 0 1-11.034-4.591c-4.666-2.296-9.183-4.962-13.478-8.072-.37-.148-.666-.37-1.037-.666-13.996-10.146-25.697-23.92-33.917-39.99 0-.074-.074-.074-.074-.074 0-.148-.074-.222-.148-.37-1.185-.963-2.296-1.926-3.333-2.963-7.851-7.778-13.405-18.517-15.034-30.81-1.037-7.776-.222-15.552 2.37-22.661v-.074c.889-2.444 1.999-4.74 3.258-6.961.592-.963 1.185-1.851 1.777-2.74C16.967 9.828 26.224 3.755 36.741 2.052c2.073-.37 3.999 0 5.776.815 3.333 1.555 5.85 4.888 6.369 9.109.889 6.443-3.184 12.441-9.035 13.404-4.814.815-9.109 3.555-11.997 7.924-2.888 4.295-4.073 9.553-3.407 14.885 1.111 7.85 5.036 14.515 10.442 18.736 0 .074.074.074.074.074s.074 0 .074.074c5.11 3.999 11.627 5.85 18.366 4.813 1.999-.37 3.925-.814 5.776-1.555.889-.297 1.777-.667 2.666-1.037 5.628-2.592 10.59-6.813 14.293-12.367 5.481-8.146 7.776-18.218 6.443-28.215-.667-4.666 1.259-8.961 4.517-11.479.074-.074.222-.148.296-.222h.074l5.702 4.887 2.444 2.148 4.814-2.888v-.074l1.555-.889c.889 1.481 1.555 3.184 1.777 5.036.444 3.037.592 6.147.592 9.183 0 6.369-.889 12.664-2.666 18.662v.074a66 66 0 0 1-1.999 5.776 59 59 0 0 1-6.369 12.071C86.506 80.995 77.323 88.401 66.807 92.4c-.889.37-1.851.74-2.814 1.037a61 61 0 0 1-7.48 1.777c-2.296.37-4.591.518-6.813.518-2.814 0-5.554-.222-8.22-.814 5.925 7.85 12.812 14.663 20.588 20.291a69 69 0 0 0 3.851 2.518 66 66 0 0 0 8.886 5.11c1.037.592 2.074 1.037 3.184 1.555.222-.148.444-.296.667-.37.222-.148.444-.222.667-.371.666-.148 1.407-.222 2.073-.148.518 0 .963.222 1.481.444 0 .074.074.074.148.148a.8.8 0 0 1 .518.222c1.111.667 2.074 1.481 3.037 2.37.592.519 1.11 1.037 1.629 1.555 7.924 2.444 16.292 3.777 24.883 3.777.518 0 1.036.074 1.555.296 2.444.667 4.221 3.111 4.221 6" style="fill:url(#g)"/><linearGradient id="h" x1="60.847" x2="60.847" y1="142.8" y2="21.299" gradientUnits="userSpaceOnUse"><stop offset="0" style="stop-color:#e5b077"/><stop offset=".995" style="stop-color:#d39a52"/></linearGradient><path d="M110.291 142.8C52.577 142.8 5.624 91.146 5.624 27.655c0-3.511 2.587-6.357 5.778-6.357 3.192 0 5.778 2.846 5.778 6.357 0 56.48 41.77 102.431 93.111 102.431 3.192 0 5.779 2.846 5.779 6.357 0 3.51-2.587 6.357-5.779 6.357" style="fill:url(#h)"/><linearGradient id="i" x1="60.847" x2="60.847" y1="142.8" y2="21.299" gradientUnits="userSpaceOnUse"><stop offset=".074" style="stop-color:#e5b077"/><stop offset=".995" style="stop-color:#f8c783"/></linearGradient><path d="M110.291 142.8C52.577 142.8 5.624 91.146 5.624 27.655c0-3.511 2.587-6.357 5.778-6.357 3.192 0 5.778 2.846 5.778 6.357 0 56.48 41.77 102.431 93.111 102.431 3.192 0 5.779 2.846 5.779 6.357 0 3.51-2.587 6.357-5.779 6.357" style="fill:url(#i)"/><linearGradient id="j" x1="50.789" x2="50.789" y1="93.846" y2=".017" gradientUnits="userSpaceOnUse"><stop offset="0" style="stop-color:#e5b077"/><stop offset=".995" style="stop-color:#d39a52"/></linearGradient><path d="M100.597 43.906a65.3 65.3 0 0 1-3.698 13.095v.013a63.6 63.6 0 0 1-6.379 12.065c-6.333 9.383-14.781 16.451-24.443 20.583a48 48 0 0 1-4.877 1.831 49.5 49.5 0 0 1-7.466 1.793c-2.311.369-4.611.56-6.876.56a42.7 42.7 0 0 1-8.182-.788c-6.056-1.195-11.776-3.687-16.862-7.234a44 44 0 0 1-2.993-2.25C9.205 75.678 2.317 63.778.433 49.729c-1.549-11.544 1.086-23.063 7.408-32.42 6.333-9.37 15.59-15.46 26.084-17.163 3.19-.521 6.276.572 8.564 2.733 1.884 1.78 3.213 4.285 3.606 7.209.855 6.446-3.19 12.434-9.049 13.387-4.819.776-9.084 3.585-11.996 7.895-2.901 4.31-4.114 9.599-3.409 14.913 1.236 9.192 6.402 16.693 13.348 20.723 4.634 2.695 10.055 3.852 15.613 2.949a32 32 0 0 0 5.79-1.513 32 32 0 0 0 5.039-2.314c4.634-2.619 8.679-6.395 11.88-11.124 5.501-8.15 7.789-18.168 6.449-28.224-.635-4.755 1.399-9.256 4.854-11.658h.012l2.496 2.136 5.686 4.844.335-.203 2.82-1.678 2.207 1.882 2.184-1.309c.035.102.07.216.104.318a12.6 12.6 0 0 1 .508 2.225 67.7 67.7 0 0 1-.369 20.569" style="fill:url(#j)"/><linearGradient id="k" x1="50.789" x2="50.789" y1="93.846" y2=".017" gradientUnits="userSpaceOnUse"><stop offset=".074" style="stop-color:#e5b077"/><stop offset=".995" style="stop-color:#f8c783"/></linearGradient><path d="M100.597 43.906a65.3 65.3 0 0 1-3.698 13.095v.013a63.6 63.6 0 0 1-6.379 12.065c-6.333 9.383-14.781 16.451-24.443 20.583a48 48 0 0 1-4.877 1.831 49.5 49.5 0 0 1-7.466 1.793c-2.311.369-4.611.56-6.876.56a42.7 42.7 0 0 1-8.182-.788c-6.056-1.195-11.776-3.687-16.862-7.234a44 44 0 0 1-2.993-2.25C9.205 75.678 2.317 63.778.433 49.729c-1.549-11.544 1.086-23.063 7.408-32.42 6.333-9.37 15.59-15.46 26.084-17.163 3.19-.521 6.276.572 8.564 2.733 1.884 1.78 3.213 4.285 3.606 7.209.855 6.446-3.19 12.434-9.049 13.387-4.819.776-9.084 3.585-11.996 7.895-2.901 4.31-4.114 9.599-3.409 14.913 1.236 9.192 6.402 16.693 13.348 20.723 4.634 2.695 10.055 3.852 15.613 2.949a32 32 0 0 0 5.79-1.513 32 32 0 0 0 5.039-2.314c4.634-2.619 8.679-6.395 11.88-11.124 5.501-8.15 7.789-18.168 6.449-28.224-.635-4.755 1.399-9.256 4.854-11.658h.012l2.496 2.136 5.686 4.844.335-.203 2.82-1.678 2.207 1.882 2.184-1.309c.035.102.07.216.104.318a12.6 12.6 0 0 1 .508 2.225 67.7 67.7 0 0 1-.369 20.569" style="fill:url(#k)"/><linearGradient id="l" x1="71.455" x2="71.455" y1="176.305" y2="121.567" gradientUnits="userSpaceOnUse"><stop offset="0" style="stop-color:#e5b077"/><stop offset=".995" style="stop-color:#d39a52"/></linearGradient><path d="M90.06 164.086c-4.369 7.85-11.997 12.219-19.847 12.219-3.703 0-7.332-.963-10.812-3.036-.371-.148-.741-.37-1.111-.592-5.628-3.777-8.887-10.072-9.331-16.737-.296-4.369.593-8.813 2.74-12.812 1.481-2.74 4.74-3.629 7.258-1.925.518.37.962.74 1.259 1.259.37.444.666.889.815 1.407a6.24 6.24 0 0 1-.296 5.258c-2.592 4.666-1.185 10.812 3.036 13.627.592.37 1.185.74 1.851.963 5.628 2.518 12.219.222 15.404-5.702 2.37-4.221 3.036-9.257 1.925-14.145-.37-1.704-.889-3.258-1.63-4.666a4.7 4.7 0 0 0-.592-1.037v-.074c-1.407-2.37-3.185-4.295-5.48-5.776-.518-.37-1.036-.814-1.333-1.333-1.407-1.851-1.629-4.444-.444-6.591q.555-1 1.333-1.555c.074-.222.222-.296.371-.296.889-.741 1.925-1.037 3.036-.963.814.074 1.703.296 2.518.814.37.222.74.518 1.036.741.37.296.741.518 1.111.814 0 .074.074.074.148.148a22 22 0 0 1 2.369 2.222v.074c3.851 3.925 6.517 8.961 7.85 14.663v.222c.297 1.333.519 2.592.593 3.851a32.96 32.96 0 0 1-3.777 18.958" style="fill:url(#l)"/><linearGradient id="m" x1="71.455" x2="71.455" y1="176.305" y2="121.567" gradientUnits="userSpaceOnUse"><stop offset=".074" style="stop-color:#e5b077"/><stop offset=".995" style="stop-color:#f8c783"/></linearGradient><path d="M90.06 164.086c-4.369 7.85-11.997 12.219-19.847 12.219-3.703 0-7.332-.963-10.812-3.036-.371-.148-.741-.37-1.111-.592-5.628-3.777-8.887-10.072-9.331-16.737-.296-4.369.593-8.813 2.74-12.812 1.481-2.74 4.74-3.629 7.258-1.925.518.37.962.74 1.259 1.259.37.444.666.889.815 1.407a6.24 6.24 0 0 1-.296 5.258c-2.592 4.666-1.185 10.812 3.036 13.627.592.37 1.185.74 1.851.963 5.628 2.518 12.219.222 15.404-5.702 2.37-4.221 3.036-9.257 1.925-14.145-.37-1.704-.889-3.258-1.63-4.666a4.7 4.7 0 0 0-.592-1.037v-.074c-1.407-2.37-3.185-4.295-5.48-5.776-.518-.37-1.036-.814-1.333-1.333-1.407-1.851-1.629-4.444-.444-6.591q.555-1 1.333-1.555c.074-.222.222-.296.371-.296.889-.741 1.925-1.037 3.036-.963.814.074 1.703.296 2.518.814.37.222.74.518 1.036.741.37.296.741.518 1.111.814 0 .074.074.074.148.148a22 22 0 0 1 2.369 2.222v.074c3.851 3.925 6.517 8.961 7.85 14.663v.222c.297 1.333.519 2.592.593 3.851a32.96 32.96 0 0 1-3.777 18.958" style="fill:url(#m)"/><linearGradient id="n" x1="337.74" x2="337.74" y1="178.231" y2="1.904" gradientUnits="userSpaceOnUse"><stop offset=".074" style="stop-color:#947158"/><stop offset="1" style="stop-color:#9e7b5c"/></linearGradient><path d="M395.763 45.152c0 2.147-.148 4.295-.444 6.517-1.63 12.293-7.109 22.957-14.959 30.659-1.111 1.111-2.222 2.147-3.406 3.11-.074.148-.148.296-.222.37-8.517 16.737-20.736 30.882-35.399 41.101h-.074c-7.406 5.184-15.478 9.405-23.994 12.368-.74.296-1.481.518-2.147.74a18.9 18.9 0 0 0-2.296 5.776c-1.111 4.813-.444 9.849 1.925 14.145 3.555 6.517 11.33 8.664 17.255 4.666.444-.296.889-.667 1.333-1.037 3.184-3.11 3.999-8.368 1.703-12.516-1.481-2.74-.666-6.295 1.777-7.998a7 7 0 0 1 1.555-.667c2.147-.518 4.517.444 5.703 2.666 5.332 9.553 2.888 21.847-5.036 28.364-.074.074-.148.074-.222.148l-.074.074c-.37.297-.815.593-1.259.963-3.777 2.444-7.85 3.629-11.923 3.629-7.85 0-15.552-4.37-19.847-12.294-2.962-5.332-4.295-11.33-3.925-17.403.074-1.777.296-3.629.74-5.332a100 100 0 0 1-17.033 1.481c-3.184 0-5.776-2.814-5.776-6.295 0-2.962 1.777-5.481 4.295-6.147a4.8 4.8 0 0 1 1.481-.222c8.591 0 16.959-1.333 24.883-3.777.518-.518 1.037-1.037 1.555-1.481q1.445-1.334 3.11-2.444c.297-.222.593-.37.815-.444.666-.518 1.333-1.037 1.999-1.481.741-.518 1.63-.74 2.518-.814 1.111-.074 2.147.296 3.11.889a80.4 80.4 0 0 0 11.108-5.998c.074 0 .074 0 .148-.074 8.442-5.776 15.996-13.034 22.365-21.476-2.666.592-5.406.814-8.22.814a44.5 44.5 0 0 1-6.887-.518 60 60 0 0 1-7.406-1.777c-.74-.297-1.407-.518-2.073-.741-.222-.074-.518-.148-.741-.296h-.074c-9.701-3.629-18.144-10.22-24.734-19.032l-1.555-8.516v-.148l-6.369-36.139-1.185-6.517c.518.518.963 1.111 1.481 1.703 0-.074.074-.148.074-.148.074-.074.074-.074.148-.222v-.074c.222-.296.444-.592.666-.963l2.74 1.703 2.444-2.148 5.702-4.887c.148.074.222.148.37.222 3.258 2.444 5.11 6.813 4.517 11.479-1.333 9.997.963 20.069 6.443 28.215 3.777 5.48 8.665 9.701 14.293 12.293q1.223.666 2.666 1.111c1.851.74 3.777 1.185 5.776 1.555 6.739 1.037 13.182-.814 18.366-4.887 1.407-1.037 2.666-2.296 3.851-3.629a26 26 0 0 0 3.11-4.369c1.851-3.184 3.111-6.887 3.629-10.812.666-5.332-.518-10.59-3.407-14.885-.74-1.037-1.555-2.074-2.444-2.962-2.592-2.592-5.924-4.369-9.553-4.962-5.85-.963-9.924-6.961-9.035-13.404.518-4.221 3.111-7.554 6.443-9.109 1.259-.592 2.741-.962 4.148-.962.518 0 1.036.074 1.555.148 10.516 1.704 19.773 7.776 26.068 17.181a23 23 0 0 1 1.703 2.666 42.2 42.2 0 0 1 3.333 7.184 47 47 0 0 1 2.815 16.067" style="fill:url(#n)"/><linearGradient id="o" x1="300.186" x2="300.186" y1="72.321" y2="20.539" gradientUnits="userSpaceOnUse"><stop offset=".074" style="stop-color:#947158"/><stop offset="1" style="stop-color:#9e7b5c"/></linearGradient><path d="m304.414 62.964 1.768 9.357a26 26 0 0 1-.936-1.335 63.7 63.7 0 0 1-6.38-12.065v-.013a64 64 0 0 1-2.496-7.59c-2.196-8.353-2.762-17.202-1.572-26.076a12.1 12.1 0 0 1 1.63-4.704l.936 4.971z" style="fill:url(#o)"/><linearGradient id="p" x1="311.031" x2="311.031" y1="123.837" y2="72.321" gradientUnits="userSpaceOnUse"><stop offset=".074" style="stop-color:#947158"/><stop offset="1" style="stop-color:#9e7b5c"/></linearGradient><path d="m306.945 73.377 8.933 50.46-9.696-51.516c.243.356.497.712.763 1.056" style="fill:url(#p)"/><linearGradient id="q" x1="325.245" x2="325.245" y1="124.397" y2="116.501" gradientUnits="userSpaceOnUse"><stop offset=".074" style="stop-color:#947158"/><stop offset="1" style="stop-color:#9e7b5c"/></linearGradient><path d="M334.601 116.501a86 86 0 0 1-10.713 6.331s-.011-.013-.011 0a78 78 0 0 1-3.259 1.564 5.4 5.4 0 0 0-.67-.407 6 6 0 0 0-.693-.292 4.8 4.8 0 0 0-3.363.153 26 26 0 0 1 1.976-1.462c1.791-1.182 3.964-1.068 5.594.114a89 89 0 0 0 11.139-6.001" style="fill:url(#q)"/><linearGradient id="r" x1="2806.456" x2="2806.456" y1="142.806" y2="21.302" gradientTransform="matrix(-1 0 0 1 3144.195 0)" gradientUnits="userSpaceOnUse"><stop offset="0" style="stop-color:#e5b077"/><stop offset=".995" style="stop-color:#d39a52"/></linearGradient><path d="M392.963 27.658c0 .47 0 .941-.012 1.399v.038c-.208 19.248-4.75 37.378-12.574 53.257 0 .013 0 .013-.012.013-.196.407-.393.814-.601 1.208 0 0-.012 0-.012.013-9.072 17.913-22.386 32.903-38.438 43.303 0 .025-.012.025-.023.025-7.292 4.742-15.139 8.518-23.426 11.201a93 93 0 0 1-12.551 3.153 94 94 0 0 1-17.023 1.538c-3.19 0-5.778-2.848-5.778-6.357 0-1.64.555-3.102 1.468-4.234 1.052-1.31 2.6-2.123 4.311-2.123a84.8 84.8 0 0 0 23.634-3.344 31 31 0 0 0 1.167-.356 80 80 0 0 0 6.853-2.403A88.785 88.785 0 0 0 334.6 116.5l.104-.076c9.604-6.103 18.144-14.036 25.182-23.368 13.429-17.761 21.519-40.557 21.519-65.399 0-3.509 2.577-6.357 5.778-6.357.855 0 1.676.203 2.404.572 1.989 1.006 3.376 3.218 3.376 5.786" style="fill:url(#r)"/><linearGradient id="s" x1="337.739" x2="337.739" y1="142.806" y2="21.302" gradientUnits="userSpaceOnUse"><stop offset=".074" style="stop-color:#e5b077"/><stop offset=".995" style="stop-color:#f8c783"/></linearGradient><path d="M392.963 27.658c0 .47 0 .941-.012 1.399v.038c-.208 19.248-4.75 37.378-12.574 53.257 0 .013 0 .013-.012.013-.196.407-.393.814-.601 1.208 0 0-.012 0-.012.013-9.072 17.913-22.386 32.903-38.438 43.303 0 .025-.012.025-.023.025-7.292 4.742-15.139 8.518-23.426 11.201a93 93 0 0 1-12.551 3.153 94 94 0 0 1-17.023 1.538c-3.19 0-5.778-2.848-5.778-6.357 0-1.64.555-3.102 1.468-4.234 1.052-1.31 2.6-2.123 4.311-2.123a84.8 84.8 0 0 0 23.634-3.344 31 31 0 0 0 1.167-.356 80 80 0 0 0 6.853-2.403A88.785 88.785 0 0 0 334.6 116.5l.104-.076c9.604-6.103 18.144-14.036 25.182-23.368 13.429-17.761 21.519-40.557 21.519-65.399 0-3.509 2.577-6.357 5.778-6.357.855 0 1.676.203 2.404.572 1.989 1.006 3.376 3.218 3.376 5.786" style="fill:url(#s)"/><linearGradient id="t" x1="2796.397" x2="2796.397" y1="93.881" y2="0" gradientTransform="matrix(-1 0 0 1 3144.195 0)" gradientUnits="userSpaceOnUse"><stop offset="0" style="stop-color:#e5b077"/><stop offset=".995" style="stop-color:#d39a52"/></linearGradient><path d="M398.133 49.744c-1.851 13.997-8.738 25.92-18.366 33.844a29 29 0 0 1-3.036 2.221c-5.036 3.555-10.812 6.073-16.811 7.258a43 43 0 0 1-8.22.815c-2.222 0-4.517-.222-6.813-.593a58 58 0 0 1-7.48-1.777c-1.703-.519-3.333-1.185-4.888-1.851-9.702-4.147-18.144-11.182-24.439-20.588-.963-1.333-1.851-2.814-2.666-4.221v-.148c-.37-.593-.666-1.111-1.037-1.703v-.148a46 46 0 0 1-2.666-5.851 67.8 67.8 0 0 1-4.147-15.773 63 63 0 0 1-.148-15.404c0-.814.074-1.703.222-2.518.074-.37.148-.815.222-1.259.518.518.963 1.111 1.481 1.703 0-.074.074-.148.074-.148.074-.074.074-.074.148-.222v-.074c.222-.296.444-.592.666-.963q.555-.778 1.333-1.555c.148-.222.444-.518.667-.815h.074l3.11 1.925.37.222 5.702-4.888 2.444-2.148h.074c3.406 2.444 5.48 6.961 4.813 11.701-1.333 10.072.963 20.069 6.443 28.215 3.184 4.74 7.258 8.516 11.923 11.108 1.555.963 3.258 1.703 5.036 2.37 1.851.666 3.776 1.111 5.776 1.481 5.554.889 10.96-.296 15.552-2.962C370.51 63 375.694 55.52 376.953 46.263c.666-5.258-.519-10.59-3.407-14.885s-7.184-7.11-11.997-7.924c-5.851-.963-9.924-6.887-9.035-13.33.371-2.962 1.704-5.48 3.629-7.258 2.296-2.147 5.332-3.258 8.517-2.74a35.7 35.7 0 0 1 11.923 4.147c2.074 1.037 4.074 2.37 5.925 3.925a52 52 0 0 1 2.962 2.74c2 1.925 3.703 4.073 5.258 6.369.666.963 1.333 2 1.926 3.037 4.96 8.738 6.886 19.106 5.479 29.4" style="fill:url(#t)"/><linearGradient id="u" x1="347.798" x2="347.798" y1="93.881" y2="0" gradientUnits="userSpaceOnUse"><stop offset=".074" style="stop-color:#e5b077"/><stop offset=".995" style="stop-color:#f8c783"/></linearGradient><path d="M398.133 49.744c-1.851 13.997-8.738 25.92-18.366 33.844a29 29 0 0 1-3.036 2.221c-5.036 3.555-10.812 6.073-16.811 7.258a43 43 0 0 1-8.22.815c-2.222 0-4.517-.222-6.813-.593a58 58 0 0 1-7.48-1.777c-1.703-.519-3.333-1.185-4.888-1.851-9.702-4.147-18.144-11.182-24.439-20.588-.963-1.333-1.851-2.814-2.666-4.221v-.148c-.37-.593-.666-1.111-1.037-1.703v-.148a46 46 0 0 1-2.666-5.851 67.8 67.8 0 0 1-4.147-15.773 63 63 0 0 1-.148-15.404c0-.814.074-1.703.222-2.518.074-.37.148-.815.222-1.259.518.518.963 1.111 1.481 1.703 0-.074.074-.148.074-.148.074-.074.074-.074.148-.222v-.074c.222-.296.444-.592.666-.963q.555-.778 1.333-1.555c.148-.222.444-.518.667-.815h.074l3.11 1.925.37.222 5.702-4.888 2.444-2.148h.074c3.406 2.444 5.48 6.961 4.813 11.701-1.333 10.072.963 20.069 6.443 28.215 3.184 4.74 7.258 8.516 11.923 11.108 1.555.963 3.258 1.703 5.036 2.37 1.851.666 3.776 1.111 5.776 1.481 5.554.889 10.96-.296 15.552-2.962C370.51 63 375.694 55.52 376.953 46.263c.666-5.258-.519-10.59-3.407-14.885s-7.184-7.11-11.997-7.924c-5.851-.963-9.924-6.887-9.035-13.33.371-2.962 1.704-5.48 3.629-7.258 2.296-2.147 5.332-3.258 8.517-2.74a35.7 35.7 0 0 1 11.923 4.147c2.074 1.037 4.074 2.37 5.925 3.925a52 52 0 0 1 2.962 2.74c2 1.925 3.703 4.073 5.258 6.369.666.963 1.333 2 1.926 3.037 4.96 8.738 6.886 19.106 5.479 29.4" style="fill:url(#u)"/><linearGradient id="v" x1="2817.076" x2="2817.076" y1="176.332" y2="121.556" gradientTransform="matrix(-1 0 0 1 3144.195 0)" gradientUnits="userSpaceOnUse"><stop offset="0" style="stop-color:#e5b077"/><stop offset=".995" style="stop-color:#d39a52"/></linearGradient><path d="M340.275 172.67c-.462.305-.948.598-1.422.877-3.34 1.882-6.946 2.784-10.505 2.784-7.836 0-15.486-4.373-19.832-12.281-3.791-6.878-4.923-14.964-3.201-22.783l.035-.178c1.283-5.696 3.964-10.743 7.743-14.697a25 25 0 0 1 2.785-2.543c0-.013 0-.013.012 0a26 26 0 0 1 1.976-1.462c1.791-1.182 3.964-1.068 5.594.114.15.089.289.191.416.331 0-.013.011 0 .011 0 .474.407.89.915 1.225 1.526 1.514 2.746.717 6.319-1.791 7.971-2.219 1.475-4.068 3.445-5.455 5.785a14 14 0 0 0-.624 1.17h-.011a19.6 19.6 0 0 0-1.63 4.59c-1.086 4.857-.393 9.891 1.953 14.176 3.282 5.975 10.066 8.238 15.752 5.53a11 11 0 0 0 1.503-.852c4.241-2.822 5.617-8.912 3.051-13.578-1.202-2.187-.936-4.908.509-6.764.347-.47.774-.89 1.283-1.221 2.496-1.653 5.732-.775 7.246 1.971 5.57 10.159 2.6 23.406-6.623 29.534" style="fill:url(#v)"/><linearGradient id="w" x1="327.119" x2="327.119" y1="176.332" y2="121.556" gradientUnits="userSpaceOnUse"><stop offset=".074" style="stop-color:#e5b077"/><stop offset=".995" style="stop-color:#f8c783"/></linearGradient><path d="M340.275 172.67c-.462.305-.948.598-1.422.877-3.34 1.882-6.946 2.784-10.505 2.784-7.836 0-15.486-4.373-19.832-12.281-3.791-6.878-4.923-14.964-3.201-22.783l.035-.178c1.283-5.696 3.964-10.743 7.743-14.697a25 25 0 0 1 2.785-2.543c0-.013 0-.013.012 0a26 26 0 0 1 1.976-1.462c1.791-1.182 3.964-1.068 5.594.114.15.089.289.191.416.331 0-.013.011 0 .011 0 .474.407.89.915 1.225 1.526 1.514 2.746.717 6.319-1.791 7.971-2.219 1.475-4.068 3.445-5.455 5.785a14 14 0 0 0-.624 1.17h-.011a19.6 19.6 0 0 0-1.63 4.59c-1.086 4.857-.393 9.891 1.953 14.176 3.282 5.975 10.066 8.238 15.752 5.53a11 11 0 0 0 1.503-.852c4.241-2.822 5.617-8.912 3.051-13.578-1.202-2.187-.936-4.908.509-6.764.347-.47.774-.89 1.283-1.221 2.496-1.653 5.732-.775 7.246 1.971 5.57 10.159 2.6 23.406-6.623 29.534" style="fill:url(#w)"/><linearGradient id="x" x1="271.753" x2="271.753" y1="190.302" y2="6.601" gradientUnits="userSpaceOnUse"><stop offset="0" style="stop-color:#e5b077"/><stop offset=".995" style="stop-color:#d39a52"/></linearGradient><path d="M341.036 31.378c-.592 6.739-1.481 14.737-2.518 23.772v.074c-.297 2.296-.593 4.591-.889 6.961-.148 1.333-.296 2.666-.444 3.925a157 157 0 0 1-.444 3.11c-1.111 7.257-2.592 14.071-4.221 20.439-.297.963-.518 1.851-.741 2.74-1.555 5.48-3.258 10.59-5.184 15.478-1.926 4.813-3.999 9.405-6.22 13.7-.37.74-.741 1.407-1.111 2.147-.148.222-.296.444-.37.667a120 120 0 0 1-10.59 16.218v.074a104 104 0 0 1-3.555 4.443l-.074.074-2.888 3.333c-1.259 1.407-2.518 2.74-3.851 3.999-1.333 1.333-2.592 2.592-3.925 3.777a115.6 115.6 0 0 1-16.441 12.59c-.074 0-.222.074-.296.222a145 145 0 0 1-6.443 3.777c-.519.296-1.111.592-1.63.889-1.407.741-2.814 1.481-4.221 2.148-.222.074-.37.222-.592.296-1.185.592-2.444 1.111-3.629 1.629-1.407.667-2.741 1.259-4.147 1.778-6.961 2.814-13.701 4.888-19.995 6.443-10.516 2.592-19.773 3.629-26.438 3.999-.889.074-1.777.074-2.592.148-2.443.074-4.369.074-5.776.074 3.184-1.407 6.443-2.888 9.701-4.517 6.147-3.184 12.367-6.813 18.44-11.108a56 56 0 0 0 2.592-1.851c.518-.444 1.036-.814 1.629-1.259l1.777-1.333c.518-.444 1.037-.889 1.63-1.333a35 35 0 0 0 2.666-2.222c.222-.148.37-.296.593-.445.518-.518 1.111-.962 1.629-1.481a99 99 0 0 0 5.036-4.665c.593-.518 1.111-1.111 1.63-1.63 3.406-3.406 6.739-7.035 9.849-11.034l1.111-1.333c.593-.814 1.259-1.629 1.851-2.444a52 52 0 0 0 2.37-3.258c2.444-3.332 4.74-6.887 6.961-10.664l1.333-2.222c.889-1.555 1.703-3.11 2.518-4.665.37-.666.74-1.407 1.111-2.073.444-.963.963-1.851 1.407-2.814.37-.814.74-1.63 1.185-2.444.37-.889.74-1.703 1.111-2.592.444-.815.814-1.704 1.185-2.592l1.111-2.666c.37-.889.741-1.777 1.037-2.666.37-.889.74-1.777 1.037-2.74.37-.889.74-1.851 1.036-2.814.371-.889.667-1.851.963-2.814.371-.963.667-1.926.963-2.888.222-.814.518-1.555.741-2.37a171 171 0 0 0 1.925-6.591c.222-.962.518-1.851.74-2.74.296-1.185.593-2.369.814-3.554.297-1.037.518-2.073.741-3.184.222-1.037.444-2 .666-3.036.296-1.185.518-2.37.741-3.555.444-2.222.814-4.443 1.185-6.739.222-1.111.37-2.148.518-3.258 0-.148.074-.222.074-.37.074-.815.222-1.629.37-2.444.222-1.481.37-3.037.592-4.591 0-.222.074-.518.074-.814.148-.741.222-1.555.297-2.37.074-.741.222-1.555.296-2.296.148-1.555.37-3.111.518-4.591.37-3.111.74-6.073 1.037-8.961.148-.889.222-1.777.296-2.666.074-.371.074-.741.148-1.037.074-.74.148-1.481.222-2.147.074-1.037.222-2.074.297-3.037v-.074c.222-.296.444-.592.666-.963q.556-.778 1.333-1.555c.148-.222.444-.518.667-.815h.074c9.183-9.257 31.4-16.218 37.176-12.219 2.517 1.773 2.666 10.216 1.555 23.62" style="fill:url(#x)"/><linearGradient id="y" x1="126.504" x2="126.504" y1="190.302" y2="6.597" gradientUnits="userSpaceOnUse"><stop offset=".074" style="stop-color:#e5b077"/><stop offset=".995" style="stop-color:#f8c783"/></linearGradient><path d="M196.108 190.301c-1.851 0-4.443 0-7.628-.222-.222 0-.444-.074-.667-.074-6.591-.37-15.626-1.407-25.845-3.925-20.143-4.888-44.952-15.33-65.169-37.546l-.074-.074c-.963-1.111-1.851-2.147-2.814-3.258l-.074-.074a104 104 0 0 1-3.555-4.443 138 138 0 0 1-10.294-15.774c-.074-.148-.222-.37-.296-.518-.148-.222-.222-.444-.37-.667v-.074c-.371-.74-.741-1.333-1.111-2.073-4.517-8.59-8.368-18.292-11.404-29.178l-.222-.889c-.148-.593-.37-1.259-.518-1.851-1.703-6.369-3.11-13.108-4.221-20.365v-.076c0-.222-.074-.518-.074-.74-.148-.815-.222-1.555-.37-2.37-.148-1.259-.296-2.592-.518-3.925-3.703-31.029-5.85-51.543-1.777-54.431 4.666-3.258 20.218.74 30.882 7.331l5.998 5.11 2.222 1.926v.37c.666 6.443 1.481 13.626 2.37 21.402.296 2.147.519 4.369.814 6.591.074.889.222 1.703.296 2.592v.074c.222 1.333.37 2.518.593 3.851.148 1.185.296 2.296.518 3.407l.444 2.888c.074.37.148.666.222 1.037.148.814.222 1.629.371 2.444.074.148.074.222.148.371v.37c.148.592.222 1.11.37 1.703v.148c.148.592.222 1.185.371 1.703.148.889.296 1.703.519 2.518.222 1.036.444 2.147.666 3.184.296 1.037.519 2.073.741 3.11.296 1.037.518 2 .814 3.036.222 1.037.518 2 .814 3.036.222.963.518 1.925.814 2.888.222.889.518 1.703.741 2.518 0 .074.074.148.074.222.074.148.074.222.074.37.222.74.444 1.481.741 2.222.37 1.111.74 2.222 1.111 3.258.297.889.593 1.703.889 2.592.074.148.074.296.148.444l.889 2.444c.296.741.593 1.481.889 2.148 0 .074 0 .148.074.222 0 .074.074.148.074.297l.074.074c.296.815.592 1.629.889 2.37.074.074.074.148.074.222.74 1.629 1.407 3.333 2.147 4.887.444.889.814 1.777 1.259 2.666l1.111 2.444a36 36 0 0 1 1.185 2.37c.518.963.963 1.851 1.481 2.814.444.889.963 1.703 1.407 2.592.074 0 .074.074.074.148.296.444.519.889.814 1.333.37.741.814 1.481 1.259 2.222.889 1.481 1.704 2.888 2.592 4.295h.074c.889 1.407 1.777 2.814 2.74 4.147.296.518.666.963 1.037 1.481.296.518.666 1.037 1.036 1.481.667.963 1.407 1.926 2.148 2.888.444.667.963 1.259 1.407 1.925.519.593.963 1.185 1.407 1.704.592.666 1.111 1.333 1.703 2.073.518.592 1.111 1.259 1.629 1.926 1.185 1.333 2.296 2.592 3.481 3.777.444.518.889 1.037 1.407 1.481.518.592 1.037 1.111 1.555 1.703.371.296.741.667 1.111 1.037l1.333 1.333c1.407 1.333 2.74 2.592 4.147 3.777.592.519 1.111 1.036 1.704 1.481.518.518 1.111.963 1.703 1.407 2.962 2.518 6.073 4.814 9.109 7.035a214 214 0 0 0 5.184 3.481c.518.37 1.037.666 1.555.963s.963.666 1.481.963c.222.074.371.148.518.296.444.296.889.518 1.407.814 1.111.667 2.222 1.333 3.407 1.926.518.296 1.111.667 1.703.963 1.111.592 2.296 1.185 3.407 1.777a136 136 0 0 0 9.551 4.444" style="fill:url(#y)"/><linearGradient id="z" x1="198.997" x2="198.997" y1="190.302" y2="7.162" gradientUnits="userSpaceOnUse"><stop offset=".148" style="stop-color:#e5b077"/><stop offset=".995" style="stop-color:#dea663"/></linearGradient><path d="M231.433 21.528a3607 3607 0 0 1-1.777 40.064c-2.296 47.84-7.85 84.72-15.108 113.083-.963 3.851-1.999 7.554-3.036 11.108-3.258 1.63-6.517 3.111-9.701 4.517-1.63 0-2.518-.074-2.518-.074s-1.111.074-3.184.074a138 138 0 0 1-9.553-4.443c-1.037-3.555-2.074-7.257-3.036-11.183-7.257-28.363-12.812-65.243-15.181-113.083-.37-8.517-.74-16.515-1.111-23.92a3104 3104 0 0 0-.667-15.626c7.998-8.813 18.958-14.367 31.104-14.811.518-.074 1.111-.074 1.629-.074 12.514.002 23.771 5.482 32.139 14.368" style="fill:url(#z)"/><linearGradient id="A" x1="142.358" x2="142.358" y1="190.301" y2="6.598" gradientUnits="userSpaceOnUse"><stop offset=".148" style="stop-color:#e5b077"/><stop offset=".995" style="stop-color:#dea663"/></linearGradient><path d="M186.546 185.854a144 144 0 0 1-3.409-1.78c-.566-.305-1.144-.623-1.71-.941a115 115 0 0 1-3.409-1.945c-.462-.267-.924-.547-1.387-.826-.162-.102-.324-.191-.485-.292a38 38 0 0 1-1.537-.954 72 72 0 0 1-1.514-.953 146 146 0 0 1-16.018-11.913 97 97 0 0 1-1.676-1.462 134 134 0 0 1-4.149-3.814c-.462-.445-.925-.903-1.387-1.348-.347-.343-.693-.699-1.04-1.042-.543-.547-1.087-1.093-1.618-1.653a79 79 0 0 1-1.41-1.475 145 145 0 0 1-3.421-3.801 123 123 0 0 1-1.687-1.971l-1.664-2.021a63 63 0 0 1-1.387-1.742 72 72 0 0 1-1.456-1.882c-.716-.954-1.433-1.92-2.138-2.899-.358-.483-.705-.992-1.052-1.488-.358-.496-.705-1.004-1.052-1.5a126 126 0 0 1-2.727-4.132c-.012-.013-.023-.013-.023-.025a155 155 0 0 1-2.623-4.272 83 83 0 0 1-1.283-2.212 48 48 0 0 1-.751-1.322c-.035-.063-.069-.14-.116-.203-.462-.839-.936-1.691-1.387-2.556-.497-.928-.994-1.869-1.468-2.822-.405-.788-.797-1.576-1.19-2.39a75 75 0 0 1-1.167-2.428c-.404-.865-.809-1.729-1.202-2.619a133 133 0 0 1-2.138-4.958c-.023-.051-.046-.114-.069-.165-.324-.788-.647-1.589-.959-2.403a.12.12 0 0 1-.035-.089l-.104-.267c-.023-.064-.058-.14-.081-.203a69 69 0 0 1-.832-2.161c-.312-.801-.601-1.602-.901-2.416a18 18 0 0 1-.173-.483c-.3-.852-.601-1.704-.89-2.568a166 166 0 0 1-1.803-5.518 14 14 0 0 1-.104-.356c-.023-.089-.058-.165-.081-.254-.243-.814-.497-1.627-.728-2.454-.289-.966-.566-1.958-.844-2.95-.277-.992-.543-1.996-.809-3.013a207.332 207.332 0 0 1-1.514-6.166 243 243 0 0 1-.705-3.153 86 86 0 0 1-.52-2.505 84 84 0 0 1-.335-1.691c-.011-.051-.023-.114-.035-.165a74 74 0 0 1-.335-1.742c-.012-.064-.023-.14-.035-.203-.012-.038-.012-.076-.023-.114-.023-.14-.058-.28-.081-.42-.15-.801-.289-1.589-.439-2.403v-.038c-.069-.33-.116-.674-.174-1.004-.173-.953-.324-1.907-.474-2.873a163 163 0 0 1-.52-3.42v-.013c-.185-1.297-.37-2.606-.543-3.929-.116-.852-.22-1.704-.324-2.555-.266-2.25-.532-4.45-.798-6.611-.924-7.806-1.745-14.989-2.392-21.448l-.035-.356 2.184-1.309 4.149-2.479h.011c7.917-6.992 17.971-11.175 28.904-11.175 12.897 0 24.547 5.81 32.937 15.18.069-.076.15-.153.219-.242.462 11.531 1.075 24.779 1.791 39.489 2.625 54.412 9.42 94.587 18.181 124.286" style="fill:url(#A)"/><linearGradient id="B" x1="255.538" x2="255.538" y1="190.323" y2="6.621" gradientUnits="userSpaceOnUse"><stop offset=".148" style="stop-color:#e5b077"/><stop offset=".995" style="stop-color:#dea663"/></linearGradient><path d="M299.565 23.38c-.074.963-.222 2-.297 3.037-.074.666-.148 1.407-.222 2.147-.074.296-.074.666-.148 1.037-.074.889-.148 1.777-.296 2.666-.297 2.888-.667 5.85-1.037 8.961-.148 1.481-.37 3.036-.518 4.591-.074.74-.222 1.555-.296 2.296-.074.814-.148 1.629-.297 2.37 0 .296-.074.592-.074.814-.222 1.555-.371 3.11-.592 4.591-.148.815-.296 1.629-.37 2.444 0 .148-.074.222-.074.37a50 50 0 0 1-.518 3.258c-.37 2.296-.74 4.517-1.185 6.739-.222 1.185-.445 2.37-.741 3.555-.222 1.036-.444 1.999-.666 3.036-.222 1.111-.444 2.147-.741 3.184-.222 1.185-.518 2.37-.814 3.554-.222.889-.518 1.778-.74 2.74a173 173 0 0 1-1.925 6.591c-.222.814-.519 1.555-.741 2.37-.296.963-.592 1.925-.963 2.888-.296.963-.592 1.925-.963 2.814a32 32 0 0 1-1.036 2.814c-.296.963-.667 1.851-1.037 2.74-.296.889-.667 1.777-1.037 2.666l-1.111 2.666c-.371.889-.741 1.777-1.185 2.592-.37.889-.74 1.703-1.111 2.592-.445.814-.815 1.63-1.185 2.444-.444.963-.963 1.851-1.407 2.814-.37.666-.74 1.407-1.111 2.073-.815 1.555-1.629 3.111-2.518 4.665l-1.333 2.222c-2.222 3.777-4.517 7.332-6.961 10.664a52 52 0 0 1-2.37 3.258c-.593.815-1.259 1.63-1.851 2.444l-1.111 1.333c-3.11 3.999-6.443 7.628-9.849 11.034-.519.518-1.037 1.111-1.63 1.63a99 99 0 0 1-5.036 4.665c-.518.519-1.111.963-1.629 1.481-.222.148-.371.297-.593.445a36 36 0 0 1-2.666 2.222c-.593.444-1.111.889-1.63 1.333l-1.777 1.333c-.593.444-1.111.814-1.629 1.259a56 56 0 0 1-2.592 1.851c-6.073 4.295-12.293 7.924-18.44 11.108 1.037-3.554 2.073-7.257 3.036-11.108 7.258-28.363 12.812-65.243 15.108-113.083a3608 3608 0 0 0 1.777-40.064c.296.222.519.518.814.815 8.368-9.405 19.995-15.181 32.881-15.181a42.6 42.6 0 0 1 17.107 3.554c5.258 2.296 10.072 5.628 14.219 9.85l1.407 1.481c.518.518.963 1.111 1.481 1.703 0-.074.074-.148.074-.148.074-.072.074-.072.149-.22" style="fill:url(#B)"/><path d="M392.653 20.344a42 42 0 0 0-1.926-3.037c-1.555-2.296-3.259-4.443-5.258-6.369a52 52 0 0 0-2.962-2.74c-1.851-1.555-3.851-2.888-5.925-3.925A35.7 35.7 0 0 0 364.659.126c-3.184-.518-6.22.593-8.517 2.74-3.332 1.555-5.924 4.888-6.443 9.109-.889 6.443 3.185 12.441 9.035 13.404 3.629.593 6.961 2.37 9.553 4.962.889.889 1.704 1.926 2.444 2.962 2.888 4.295 4.073 9.553 3.407 14.885-.518 3.925-1.778 7.627-3.629 10.812a26 26 0 0 1-3.11 4.369c-1.185 1.333-2.444 2.592-3.851 3.629-4.591 2.666-9.997 3.851-15.552 2.962-2-.296-3.925-.814-5.776-1.481-1.778-.667-3.481-1.407-5.036-2.37.148-1.259.296-2.592.518-3.925.297-2.37.593-4.739.815-6.961v-.074c1.111-9.035 1.999-17.033 2.518-23.772 1.111-13.404.963-21.847-1.555-23.624-5.776-3.999-27.993 2.962-37.176 12.219q-.223.222-.444.445a1.6 1.6 0 0 1-.297.37 12.4 12.4 0 0 0-1.333 1.555c-.222.371-.444.667-.666.963v.074c-.074.148-.074.148-.148.222 0 0-.074.074-.074.148-.518-.592-.963-1.185-1.481-1.703l-1.407-1.481c-4.147-4.221-8.961-7.553-14.219-9.85a42.6 42.6 0 0 0-17.107-3.554c-12.886 0-24.512 5.777-32.881 15.181-.296-.296-.518-.592-.74-.815h-.074c-8.368-8.887-19.625-14.367-32.14-14.367v348.062h64.577V338.34q0-1.111-.222-2.222c0-.296-.074-.666-.222-.962-.074-.371-.148-.741-.297-1.111-.148-.296-.296-.667-.444-.963s-.296-.592-.518-.889c-.148-.37-.445-.74-.667-1.037-.296-.593-.814-1.111-1.333-1.629-.222-.222-.444-.444-.667-.593a1.7 1.7 0 0 0-.518-.518c-.074-.074-.148-.074-.222-.148 0 0-.074-.074-.148-.074-.074-.148-.148-.148-.296-.222-.667-.444-1.407-.814-2.148-1.185h-.074a9.7 9.7 0 0 0-2.074-.667c-.222-.074-.444-.148-.666-.148-.371-.074-.815-.148-1.185-.148v-2.222c0-.74-.074-1.481-.222-2.147a4.9 4.9 0 0 0-.444-1.481c0-.074 0-.148-.074-.222-.074-.222-.148-.444-.297-.667-.222-.518-.518-.963-.814-1.407a7.5 7.5 0 0 0-.963-1.185 3.5 3.5 0 0 0-.74-.741 5.6 5.6 0 0 0-1.037-.815c-.592-.444-1.185-.74-1.777-1.037a12.1 12.1 0 0 0-3.999-.889h-.074v-.074c-.222-.667-.444-1.333-.593-2a61 61 0 0 1-1.555-5.851 62 62 0 0 1-.815-3.925c-.222-1.259-.444-2.444-.593-3.703-.148-.667-.222-1.333-.296-2.074a26 26 0 0 1-.444-3.48c-.296-2.37-.444-4.888-.592-7.48-.074-1.259-.148-2.592-.148-3.925-.074-1.333-.074-2.74-.074-4.147v-.444l5.702-3.185.667-.37 8.368-23.254h.518l-.222-.889.222-.814-.518-.074-5.406-2.518-2.962-1.333-6.369-3.481v-53.912c6.295-1.555 13.034-3.629 19.995-6.443 1.407-.518 2.74-1.111 4.147-1.778 1.185-.518 2.443-1.036 3.629-1.629.222-.074.37-.222.592-.296 1.407-.667 2.814-1.407 4.221-2.148.518-.296 1.111-.593 1.63-.889a146 146 0 0 0 6.443-3.777c.074-.148.222-.222.296-.222 5.554-3.555 11.108-7.702 16.441-12.59 1.333-1.185 2.592-2.444 3.925-3.777 1.333-1.259 2.592-2.592 3.851-3.999-.37 6.073.963 12.071 3.925 17.403 4.295 7.924 11.997 12.294 19.847 12.294 4.073 0 8.146-1.185 11.923-3.629.444-.37.889-.666 1.259-.963l.074-.074c.074-.074.148-.074.222-.148.444-.222.815-.518 1.259-.74 9.183-6.147 12.145-19.403 6.591-29.549-1.481-2.74-4.739-3.629-7.257-1.925-.519.296-.889.74-1.259 1.185a7 7 0 0 0-1.555.667c-2.444 1.703-3.259 5.258-1.777 7.998 2.296 4.147 1.481 9.405-1.703 12.516-1.555.814-3.259 1.111-4.888 1.111-.519.074-1.111 0-1.703-.074-1.555-.222-3.11-.74-4.517-1.629-.889-.518-1.777-1.259-2.592-2.074a16.2 16.2 0 0 1-2.073-2.814c-2.37-4.295-3.037-9.331-1.926-14.219.296-1.63.889-3.184 1.629-4.591 8.517-2.962 16.589-7.184 23.994-12.368h.074a89 89 0 0 0 5.406-3.776c3.999-2.962 7.776-6.221 11.404-9.775 3.407-3.407 6.665-7.035 9.701-10.961 2.962-3.851 5.777-7.924 8.294-12.219 1.259-2.148 2.518-4.369 3.629-6.591 9.628-7.924 16.515-19.847 18.366-33.844 1.405-10.291-.521-20.659-5.482-29.397m-69.169 102.123c-.963-.593-2-.963-3.11-.889 2.222-4.295 4.295-8.887 6.22-13.7a190 190 0 0 0 5.11-15.478h.074c.222.148.518.222.741.296.666.222 1.407.444 2.073.667 2.37.814 4.887 1.407 7.406 1.851 2.37.37 4.666.518 6.887.518 2.814 0 5.554-.222 8.22-.814-6.369 8.442-13.922 15.7-22.365 21.476-.074.074-.074.074-.148.074a80.4 80.4 0 0 1-11.108 5.999" style="opacity:.1;fill:#040000"/><path d="M142.358 412.962h109.811v11.575H142.358zM142.358 438.281h109.811v11.575H142.358z" style="opacity:.1;fill:#fbe0e1"/><g style="opacity:.5"><path d="M122.458 399.473c-4.328 0-7.868 3.54-7.868 7.868v48.136c0 4.327 3.541 7.868 7.868 7.868h79.351v-63.873z" style="fill:#fbe0e1"/><path d="M278.92 455.477v-48.136c0-4.328-3.541-7.868-7.868-7.868h-74.315v63.873h74.315c4.327 0 7.868-3.541 7.868-7.869" style="fill:#fbdcd2"/></g><path d="M142.358 410.025h109.811V421.6H142.358zM142.358 435.345h109.811v11.575H142.358z" style="fill:#381f1f"/></svg>