<svg xmlns="http://www.w3.org/2000/svg" xml:space="preserve" width="70.624" height="92.435" viewBox="0.687 0.688 70.624 92.435"><title>Slice 1</title><g fill-rule="evenodd"><path fill="#3e5766" fill-rule="nonzero" d="M29.586 28.367s-3.044-.137-5.69 2.667C21.842 33.211 8.063 50.842 8.063 50.842s-2.356 3.481-2.352 5.581c.003 2.1-.695 6.2-2.393 8.991-1.699 2.791-2.435 3.628-2.015 4.43S15.57 65.91 22.367 57.893c6.797-8.015 12.452-18.371 13.967-24.124"/><path fill="none" stroke="#2e374a" stroke-width=".5" d="M29.586 28.367s-3.044-.137-5.69 2.667C21.842 33.211 8.063 50.842 8.063 50.842s-2.356 3.481-2.352 5.581c.003 2.1-.695 6.2-2.393 8.991-1.699 2.791-2.435 3.628-2.015 4.43S15.57 65.91 22.367 57.893c6.797-8.015 12.452-18.371 13.967-24.124"/><path fill="#e3a066" fill-rule="nonzero" d="M47.519 92.623h13.864s-.787-2.053-7.787-4.711c0 0-2.666 1.569-6.077 4.711"/><path fill="none" stroke="#8d6a4a" stroke-width=".5" d="M47.258 92.623h14.125s-2.662-3.226-7.537-4.711"/><path fill="#3e5766" fill-rule="nonzero" d="M54.32 4.645c-1.688-2.112-6.127-3.457-8.294-3.457s-5.548 1.043-7.446 3.205c-2.731 3.11-3.025 9.371-3.561 10.91-.536 1.54-7.201 14.49-11.093 21.315-3.35 5.878-8.272 18.551-9.314 31.706s1.567 24.299 1.817 24.299h32.583c2.338-2.43.167-2.764.584-2.765.458-.003 3.066.27 4.074.394 0 0-.552-.055-.763-1.228 0 0-6.733-.758-5.397-.59 0 0-.78-.787-.931-1.656-.091-.523 1.264-27.838 1.334-28.509.05-.466 3.6-28.226 4.974-41.604-1.706-.803-.009-3.6-.009-3.6s4.483-4.619 1.443-8.42"/><path fill="#fbf8ea" fill-rule="nonzero" d="M53.392 17.392s-5.602 5.422-6.486 12.843c-4.331 36.309-9.393 41.525-9.581 45.42-.198 4.117-.812 11.228 9.262 12.779 0 0 1.967.46 3.425 1.382.774.489 2.957.482 3.658.436 0 0-.793-.944-.763-1.228 0 0 2.232.652 2.904.61 0 0-1.671-.747-1.966-1.722 0 0-1.39.847 1.128-.326 0 0-3.061-1.109-3.297-1.59 0 0-.455-.244.378-.244 0 0-3.693-1.487-3.092-2.373 4.384-6.46 6.045-14.048 8.521-26.742 2.685-13.764 1.637-25.264-1.052-33.014-1.24-3.389-3.039-6.231-3.039-6.231"/><path fill="#f0c579" fill-rule="nonzero" d="M47.434 27.274c-.016.113 3.682-7.957 6.88-8.366l-1.427-2.243s-4.147 1.302-5.453 10.609"/><path fill="none" stroke="#d1c1b5" stroke-width=".5" d="M52.303 14.28s-.553.986-.041 1.592c.636.754 10.368 11.953 5.458 39.465-4.023 22.539-8.24 27.116-8.758 28.042-.345.617 1.187 1.368 3.092 2.373 0 0-.833.252-.042.503 0 0 1.662.912 2.961 1.331 0 0-.336.51-1.127.326"/><path fill="none" stroke="#2e374a" stroke-width=".5" d="M53.846 87.912c.095.882 2.25 1.862 2.25 1.862-1.337-.168-3.189-.75-3.189-.75.21 1.173 1.022 1.337 1.022 1.337-1.008-.124-3.875-.506-4.333-.503 0 0 1.754.335-.584 2.765H16.43c-.25 0-2.858-11.144-1.817-24.3 1.042-13.154 5.963-25.827 9.315-31.704 3.89-6.826 10.556-19.776 11.092-21.315s.83-7.8 3.561-10.911c1.898-2.162 5.28-3.204 7.446-3.204 2.167 0 6.69 1.277 8.295 3.456"/><path fill="none" stroke="#2e374a" stroke-width=".5" d="M27.346 89.816s4.916.545 7.291 2.807"/><path fill="#e3a066" fill-rule="nonzero" d="M49.861 12.625c-.1.014 4.49-2.426 5.022-4.398.408-1.509-1.043-3.174-.562-3.582.32-.273.82 1.177 2.028 1.822 1.294.69 3.104 1.697 6.214 2.137s5.74 1.288 6.769 2.513a8.9 8.9 0 0 1 1.48 2.577s-1.229-2.294-10.07-1.414c-6.756.345-7.372 1.362-8.439 2-1.067.639.414-2.063-2.442-1.655"/><path fill="#8d6a4a" fill-rule="nonzero" d="M52.134 12.406s.28-.097.774-.224c.248-.062.55-.136.897-.22l.554-.13c.195-.042.406-.053.622-.088 1.736-.236 4.061-.483 6.401-.532a33 33 0 0 1 3.438.095c.548.045 1.077.113 1.576.194.5.082.968.186 1.397.299.213.064.421.114.61.19.187.08.36.17.523.246.32.172.595.326.802.486.216.142.361.287.461.382l.154.143-.177-.114a4 4 0 0 0-.51-.29c-.22-.123-.51-.23-.838-.347l-1.123-.332c-.415-.11-.871-.211-1.36-.291a20 20 0 0 0-1.547-.19 32 32 0 0 0-3.398-.094c-2.32.049-4.633.294-6.359.528-.216.026-.42.072-.618.087l-.564.041-.917.079-.59.055c-.134.013-.208.027-.208.027"/><path fill="none" stroke="#8d6a4a" stroke-width=".5" d="M49.861 12.625c-.1.014 4.49-2.426 5.022-4.398.408-1.509-1.043-3.174-.562-3.582.32-.273.82 1.177 2.028 1.822 1.294.69 3.104 1.697 6.214 2.137s5.74 1.288 6.769 2.513a8.9 8.9 0 0 1 1.48 2.577s-1.229-2.294-10.07-1.414c-6.756.345-7.372 1.362-8.439 2-1.067.639.414-2.063-2.442-1.655Z"/><path fill="#e2e3e4" fill-rule="nonzero" d="M47.023 6.896c.147-.66 1.162-1.257 2.625-1.194 1.936.157 2.137 1.146 2.089 1.539-.058.476-.26 1.163-2.495 1.163-1.908 0-2.351-.916-2.22-1.508"/><path fill="#2e374a" fill-rule="nonzero" d="M49.633 8.384s-.717-.471-.467-1.367c.25-.893 1.188-1.09 1.53-1.059s.588.328.588.328.682.558.43 1.17c-.251.613-1.207.886-1.207.886s-.758.104-.874.042"/><path fill="none" stroke="#2e374a" stroke-width=".5" d="M47.199 6.939c.078-.66 1.031-1.257 2.5-1.194 1.953.156 2.257 1.146 2.25 1.539-.009.476-.139 1.163-2.373 1.163-1.909 0-2.447-.916-2.377-1.508Z"/><path fill="#3e5766" fill-rule="nonzero" d="M38.657 35.6s-1.074 2.908.847 6.52c1.491 2.805 14.452 22.74 14.452 22.74s2.672 3.58 4.723 4.357c2.051.775 5.84 2.975 8.041 5.66 2.2 2.688 2.79 3.714 3.703 3.602.913-.11.566-15.326-5.162-24.907s-14.093-18.92-19.243-22.526"/><path fill="none" stroke="#2e374a" stroke-width=".5" d="M38.657 35.6s-1.074 2.908.847 6.52c1.491 2.805 14.452 22.74 14.452 22.74s2.672 3.58 4.723 4.357c2.051.775 5.84 2.975 8.041 5.66 2.2 2.688 2.79 3.714 3.703 3.602.913-.11.566-15.326-5.162-24.907s-14.093-18.92-19.243-22.526"/></g></svg>