<svg xmlns="http://www.w3.org/2000/svg" xml:space="preserve" width="45.799" height="54.2" viewBox="-0.514 -0.5 45.799 54.2"><path fill="#53ad4e" d="M44.6 47.7c-.1-.2-.1-.4-.1-.6 0-1.4-.2-1.1-1.3-.9h-.1c-1.7.4-3.2 0-4.2-1.5-1.7-2.7-3.2-5.4-4.8-8.1-1.2-2.1-2.2-4.3-3.3-6.4l-3.6-6.3c-.2-.3-.2-.9 0-1.2.4-1 1-1.8 1.5-2.8.6-1.1 1.1-2.3 1.6-3.4 1.1-2.1 2.2-4.2 3.4-6.2.4-.7.8-1.4 1.2-2 .4-.7 1-1.2 1.3-1.9q1.2-2.55 3.9-3c.9-.1 1.7-.2 2.5-.3 0-.7 0-1.3.1-1.9.1-.9 0-1-.9-1H37c-3.1 0-6.1.1-9.1.2-.1 0-.3.1-.4.2-1.2 1.2-2.4 2.3-3.5 3.5-.4.4-.3 1.9.1 2.2.1.1.3.1.4.1h2.8c.8 0 1.2.5 1.1 1.2 0 .4-.2.8-.4 1.2-.7 1.4-1.5 2.8-2.3 4.1-.7 1.3-1.4 2.5-2.2 3.9-.2-.3-.3-.5-.4-.8-.7-1.3-1.2-2.6-2-3.9-1.2-2-2.5-3.9-3.7-5.9-.3-.5-.6-1.1-.8-1.6-.3-.7-.1-1 .7-1.2.7-.1 1.4-.2 2.1-.2 1.4-.2 1.4-.2 1.4-1.6V1c.2-.8-.2-1-1-1h-5.2c-2.8 0-5.5.1-8.3.2-.2 0-.5.1-.7.3C4.3 1.7 2.9 3 1.5 4.2c-.4.4-.4 2.3.1 2.8.1.1.2.2.3.2 1 .2 2.1.4 3.1.6 1.4.2 2.5.8 3.2 2.2l1.2 2.7c.3.6.5 1.3.8 2 1.2 2.6 2.5 5.3 3.7 7.9.8 1.7 1.5 3.4 2.3 5.1.2.5.4.9.1 1.4l-1.2 2.4c-2.7 4.7-5.4 9.3-8.1 14-.4.7-1 1-1.8 1-.3 0-.7.1-1 .2l-3.3 3c-.8.7-1.1 1.5-.8 2.5.2.6.3.9 1 .9 2.2-.1 4.4-.2 6.5-.1 2.8 0 5.7.1 8.5.2.2 0 .6-.1.7-.3.4-.6.8-1.2 1.1-1.8.7-1.2 2.2-1.9 2.2-3.5v-.2c.2-.8.1-1-.8-1-1.3-.1-2.5-.2-3.8-.4-.8-.1-1-.5-.6-1.1.7-1.3 1.3-2.5 2-3.7.5-.9 1.1-1.8 1.7-2.8.7-1.2 1.3-2.5 2-3.8.6 1.1 1.2 2 1.6 3 1.3 3.2 2.9 6.3 5 9.2.1.2.1.6-.1.8-.9 1-1.9 1.9-2.8 2.9-.5.5-.8 1.8-.4 2.3.1.2.4.3.6.3.6 0 1.1-.1 1.7-.1 1.5 0 3.1 0 4.7-.1s3.2-.3 4.9-.3c1.8 0 3.6.1 5.4.1.3 0 .6 0 .8-.2.7-.7 1.4-1.5 2.1-2.2.8-1 .8-1.7.5-2.6M1.8 6.2c.1-.6 0-1 .2-1.2 1.2-1.3 2.5-2.6 3.9-4 .1.8.1 1.4-.4 1.9-1 1-2.1 2-3.2 2.9-.1.1-.2.2-.5.4M.9 51.9c-.4-.6-.3-.9.1-1.3 1.1-1.2 2.3-2.4 3.5-3.8.2 1.7-.3 2.8-1.5 3.6-.7.4-1.4 1-2.1 1.5m17.4-2.7c-.7.9-1.3 1.7-1.9 2.5-.2.2-.5.4-.7.4-4.6-.3-9.2-.1-13.7.3-.1 0-.1 0-.3-.1.3-.3.5-.4.7-.6.8-.7 1.7-1.3 2.5-2 .5-.4 1-.6 1.6-.6 2.5.1 4.9.1 7.3.1 1.5.1 3 0 4.5 0m.2-18.5c-.7 1.4-1.5 2.8-2.2 4.2-.3.5-.6.9-.8 1.4-.9 1.8-1.8 3.6-2.7 5.3-1.2 2.2-2.8 4.1-5.5 4.4 2.5-4.3 5.1-8.5 7.6-12.8.8-1.3 1.3-2.8 2.1-4.1.3-.6.9-1.1 1.4-1.5.6-.5 1.4-.8 2.3-1.2-.7 1.6-1.4 2.9-2.2 4.3m-1.4-3.1c-.1-.1-.3-.4-.4-.6-1.6-3.5-3.1-7-4.7-10.5-1.1-2.4-2.3-4.8-3.5-7.2C7.8 7.9 6.6 7.2 5.1 7l-2.4-.3v-.2l3.3-3c.2-.2.5-.3.8-.3 1.2.1 2.2.3 3.1 1.5 1.1 1.6 1.8 3.3 2.6 5 .6 1.2 1.4 2.3 2 3.4l4.2 8.1c.7 1.4 1.6 2.8 2.4 4.2-1.4.8-2.6 1.5-4 2.2m7.3-22.5c.1-.2.1-.5.2-.6 1-1.1 1.9-2.1 3-3.2.2.6.4 1.2-.2 1.7-.9.7-1.9 1.4-2.8 2.2-.1-.1-.1-.1-.2-.1M24.1 17c1.4-2.6 2.9-5.1 4.3-7.7.2-.4.5-.8.6-1.2.4-1.5-.5-2.5-2-2.6h-1.5c.6-.5 1.1-.8 1.5-1.2 1-1 2.2-1.3 3.5-1 .6.1 1.2.1 1.8.3.7.2 1 .6.7 1.3-.4.8-.8 1.6-1.3 2.4l-4.2 7.2c-.9 1.5-1.7 3.1-2.6 4.9-.4-.7-.7-1.2-.9-1.7-.1-.2 0-.5.1-.7m-1.2 19.8c-.4-.9-1-1.7-1.5-2.6-.1-.2-.2-.5-.1-.6.7-1.3 1.4-2.6 2.2-3.9 0-.1.1-.1.2-.2.8 1.4 1.5 2.7 2.3 4 1.4 2.4 2.8 4.8 4.1 7.2.7 1.3 1.3 2.8 1.9 4.1.1.2-.1.6-.3.8-1.1.7-2.4.6-3.6.4-.2 0-.5-.4-.6-.6-2-2.6-3.4-5.6-4.6-8.6m1.5 15c.1-.3.1-.6.3-.8 1.2-1.2 2.4-2.4 3.6-3.7.2.8.2 1.5-.6 2.1-1 .8-2 1.7-3 2.5-.2 0-.2-.1-.3-.1m17.4-.2c-.2.2-.5.2-.7.2-1.7 0-3.4-.1-5-.1-1.7 0-3.4.2-5 .3-1.7.1-3.4 0-5.1 0v-.1c1-.8 1.9-1.7 2.9-2.5.2-.2.5-.2.8-.2 3.2 0 6.4 0 9.6-.1 1.6 0 3.2-.2 4.9-.4.1.1.1.2.2.3-1 .9-1.8 1.8-2.6 2.6"/><path fill="#fff" d="M27.4 3c-.9.7-1.9 1.4-2.8 2.2-.1 0-.2-.1-.2-.1.1-.2.1-.5.2-.6 1-1.1 1.9-2.1 3-3.2.2.6.4 1.2-.2 1.7M33 4.9c-.4.8-.8 1.6-1.3 2.4l-4.2 7.2c-.9 1.5-1.7 3.1-2.6 4.9-.4-.7-.7-1.2-.9-1.7-.1-.2 0-.5.1-.6 1.4-2.6 2.9-5.1 4.3-7.7.2-.4.5-.8.6-1.2.4-1.5-.5-2.5-2-2.6h-1.5c.6-.6 1.1-.9 1.5-1.3 1-1 2.2-1.3 3.5-1 .6.1 1.2.1 1.8.3.7.2 1 .6.7 1.3M5.5 2.9c-1 1-2.1 2-3.2 2.9-.1.1-.2.2-.5.4.1-.6 0-1 .2-1.2 1.2-1.3 2.5-2.6 3.9-4 .1.8.1 1.4-.4 1.9M21 25.4c-1.3.8-2.5 1.5-3.8 2.2-.1-.1-.3-.4-.4-.6-1.6-3.5-3.1-7-4.7-10.5-1.1-2.4-2.3-4.8-3.5-7.2-.8-1.4-2-2.1-3.5-2.3l-2.4-.3v-.2l3.3-3c.2-.2.5-.3.8-.3 1.2.1 2.2.3 3.1 1.5 1.1 1.6 1.8 3.3 2.6 5 .6 1.2 1.4 2.3 2 3.4l4.2 8.1c.6 1.5 1.5 2.8 2.3 4.2M31.6 45.6c-1.1.7-2.4.6-3.6.4-.2 0-.5-.4-.6-.6-1.9-2.6-3.3-5.5-4.5-8.5-.4-.9-1-1.7-1.5-2.6-.1-.2-.2-.5-.1-.6.7-1.3 1.4-2.6 2.2-3.9 0-.1.1-.1.2-.2.8 1.4 1.5 2.7 2.3 4 1.4 2.4 2.8 4.8 4.1 7.2.7 1.3 1.3 2.8 1.9 4.1.1.1-.2.6-.4.7M44.2 49.1c-.8.8-1.6 1.7-2.4 2.5-.2.2-.5.2-.7.2-1.7 0-3.4-.1-5-.1-1.7 0-3.4.2-5 .3-1.7.1-3.4 0-5.1 0v-.1c1-.8 1.9-1.7 2.9-2.5.2-.2.5-.2.8-.2 3.2 0 6.4 0 9.6-.1 1.6 0 3.2-.2 4.9-.4-.1.1 0 .3 0 .4M27.7 49.4c-1 .8-2 1.7-3 2.5-.1 0-.2-.1-.2-.1.1-.3.1-.6.3-.8 1.2-1.2 2.4-2.4 3.6-3.7 0 .8 0 1.5-.7 2.1M18.3 49.2c-.7.9-1.3 1.7-1.9 2.5-.2.2-.5.4-.7.4-4.6-.3-9.2-.1-13.7.3-.1 0-.1 0-.3-.1.3-.3.5-.4.7-.6.8-.7 1.7-1.3 2.5-2 .5-.4 1-.6 1.6-.6 2.5.1 4.9.1 7.3.1 1.5.1 3 0 4.5 0M3 50.4c-.7.5-1.4 1-2.2 1.5-.3-.6-.2-.9.2-1.3 1.1-1.2 2.3-2.4 3.5-3.8.2 1.6-.3 2.7-1.5 3.6M20.9 26.4c-.8 1.6-1.6 2.9-2.3 4.3s-1.5 2.8-2.2 4.2c-.3.5-.6.9-.8 1.4-.9 1.8-1.8 3.6-2.7 5.3-1.2 2.2-2.8 4.1-5.5 4.4 2.5-4.3 5.1-8.5 7.6-12.8.8-1.3 1.3-2.8 2.1-4.1.3-.6.9-1.1 1.4-1.5.7-.4 1.4-.7 2.4-1.2"/></svg>