<svg xmlns="http://www.w3.org/2000/svg" width="119.401" height="257.472" viewBox="0 0 119.401 257.472"><g fill-rule="evenodd" stroke-miterlimit="10" data-paper-data="{&quot;isPaintingLayer&quot;:true}" style="mix-blend-mode:normal"><path fill="#36445e" d="M43.782 128.352c6.504.335 12.832 4.33 12.296 14.377-.424 4.601-3.472 28.828-5.336 38.341-.112.647-1.976 8.036-8.664 7.788-8.312-.304-8.824-7.524-9.48-8.163.312-13.388 1.248-29.674 1.56-43.062 2.2-5.056 5.152-9.497 9.624-9.281" data-paper-data="{&quot;origPos&quot;:null}"/><path fill="#36445e" d="M71.11 136.659c2.616 13.14 6.2 29.059 8.8 42.19-.528.751.208 8.004-7.936 9.665-7.52 1.55-8.64-5.639-9.6-6.238-2.4-8.283-14.112-36.463-15.32-40.92-1.712-5.232 4.376-10.185 10.72-11.622 4.368-.99 10.288-1.15 13.336 6.925" data-paper-data="{&quot;origPos&quot;:null}"/><path fill="#705347" d="M67.174 59.89 81.79 96.4c1.52 4.937-3.584 7.333-3.584 7.333-3.016 1.142-5.864-.75-7.112-3.722L55.398 66.544c-4.224-10.464 1.824-12.19 1.824-12.19 2.552-1.27 7.816.959 9.952 5.536"/><path fill="#6373ba" d="M53.438 48.492c11.52-2.397 16.632 11.614 20.68 25.56L59.246 82.04c-19.672-31.184-5.808-33.604-5.808-33.548"/><path fill="#e4b34e" d="m75.414 75.338-16.832 9.33-.848-3.747 16.8-9.56z"/><path fill="#63493e" d="M62.566 79.092c-1.104-.016-25.192-20.225-26.056-23.787-.8-3.307-2.312-4.233 4.888-6.821l2.056-11.982h12.8l1.376 11.646c1.704 1.678 4.368 8.65 4.368 7.924 0 3.97 1.896 23.06.568 23.02"/><path fill="#49352c" d="m41.398 48.484 2.056-11.982h12.8l1 8.491c-5.84-1.733-12.416.52-15.856 3.49"/><path fill="#36445e" d="M72.294 141.979c.504 4.505-17.96-1.718-21.728-1.766-3.936-.04-13.112 6.91-17.008 5.065 0-7.03-1.8-24.443 2.448-31.847H65.43c2.544 5.567 5.832 19.21 6.864 28.548"/><path fill="#7390e1" d="M55.07 165.534c-1.16-.16-16.896-3.546-23.296-.679-1.344-19.577-2.328-30.544 1.056-51.057a91 91 0 0 0 .304-30.44l-.328-32.43 8.664-2.972c9.152 13.85 16.256 27.63 16.256 27.63a110.6 110.6 0 0 0-.152-27.87c0-.04 3.024 4.985 3.024 4.985s6.576 10.68 4.08 35.864c.184 11.694.632 14.402 2.024 20.952 3.464 16.223 4.8 17.709 10.4 45.29-.328.136-5.256 13.02-22.032 10.727"/><path fill="#e4b34e" d="M57.55 47.725s1.496 2.164 2.136 3.41c.44 4.857.056 14.554-1.72 26.839-4.744-6.055-10.256-16.95-18.752-29.219.192-.104 2.208-.799 2.208-.799 6.904 8.899 11.976 19.259 15.352 24.53 1.16-14.45 1.32-17.884.776-24.761"/><path fill="#705347" d="M56.774 43.26h-3.76c-2.944 0-13.768-6.758-14.888-11.343l-3.112-14.849c0-6.925 7.768-12.588 14.704-12.588h.416c6.936 0 15.504 5.663 15.504 12.588.192 1.845-.8 4.37-1.288 7.852.224 3.882.8 4.066-.352 7.373-.448 1.342-3.736 10.967-7.224 10.967"/><path fill="none" stroke="#2d2119" stroke-linecap="round" stroke-linejoin="round" stroke-width=".784" d="m56.278 31.534-1.12.551a2.09 2.09 0 0 1-1.824 0l-1.12-.551"/><path fill="none" stroke="#453226" stroke-linecap="round" stroke-linejoin="round" stroke-width=".776" d="M58.294 35.128c-2.696 2.54-7.688.743-7.688.743"/><path fill="#412d20" d="M64.838 17.068s-.594-7.16-12.512-6.382c-12.848.32-12.592 12.101-12.592 12.101l-3.4.528-1.32-6.247c0-6.925 7.768-12.588 14.704-12.588h.416c6.936 0 14.704 5.663 14.704 12.588" data-paper-data="{&quot;origPos&quot;:null}"/><path fill="#412d20" d="M49.83 1.58s3.408-3.922 8.84.591c0 0 3.4.12 3.408 2.325 0 0 4-1.598 4.208 1.038 0 0 3.472 1.382 0 5.528 0 0 4.2.798 2.072 3.45 0 0 1.056 2.892-2.32 4.13 0 0-4.224 1.35-5.872-2.564 0 0-2.52.67-2.288-1.598 0 0-2.992.104-3.064-2.092 0 0 0-1.75-3.576-.863 0 0-3.144 1.046-3.096-2.3 0 0-.152-1.814 1.464-1.814 0 0-1.792-.59-1.48-2.196A5.9 5.9 0 0 1 49.83 1.58"/><path fill="#281309" d="M67.654 6.956a3.79 3.79 0 0 1-.712 3.714c-1.176 1.222-3.768.583-3.768.583 4.2.24 4.704-3.426 4.48-4.297M48.03 5.47c.744 2.436 3.144 1.222 3.144 1.222a2.06 2.06 0 0 1-1.6.735A1.96 1.96 0 0 1 48.03 5.47M57.798 14.496c-.456 0-2.92-.104-2.984-2.092v-.128c.592 1.501 2.928 1.422 2.928 1.422a1.9 1.9 0 0 0 .056.798M54.814 12.268c-.272-.511-1-1.166-3.472-.368 0 0-2.88.76-3.088-2.204.256 2.372 2.984 1.837 2.984 1.837 3.736-1.166 3.536.431 3.536.431.008.12.024.216.04.304M66.046 18.594s-4.856 1.39-6.456-2.308a1.402 1.402 0 0 1-1.712-1.598c.512 1.006 2.16.575 2.16.575 1.16 3.22 5.6 1.805 5.6 1.805 2.728-.63 2.512-3.682 2.512-3.682.328-.423 1.488 4.225-2.104 5.208M61.126 10.095a1.232 1.232 0 0 1-2.096 0s-1.232.376-1.736-.088a2.6 2.6 0 0 1-.568-1.701s.872 1.909 2.304.879a1.6 1.6 0 0 0 2.096.91M53.04 3.365c.217.31.564.505.942.532.864-.048.736-.751.736-.751.744.942 1.384.224 1.384.224-.416.798-1.16.2-1.16.2a.88.88 0 0 1-.88.742c-2-.112-1.2-2.013-1.2-2.013-.105.364-.04.756.178 1.066"/><path fill="#705347" d="M72.054 94.556a6.584 6.584 0 0 1 8.632-.08l25.392 27.542c.904.982.664 2.755-.232 3.738a3.436 3.436 0 0 1-4.704.367l-28.8-24.035c-2.104-2.436-2.656-5.343-.288-7.532"/><g fill="#705347"><path d="m107.422 128.687 7.024 7.485c.41.44.39 1.128-.048 1.541a1.097 1.097 0 0 1-1.536 0l-7.408-6.941c-.416-.431-.152-1.502.288-1.917a1.29 1.29 0 0 1 1.68-.168"/><path d="m110.51 127.625 7.424 7.412a1.197 1.197 0 0 1 0 1.686 1.2 1.2 0 0 1-1.688 0l-7.872-6.941c-.472-.448-.064-1.574.4-2.045a1.265 1.265 0 0 1 1.736-.112M103.342 127.888l6.168 8.172a.9.9 0 0 1-.088 1.262.897.897 0 0 1-1.264-.088l-6.76-7.74a.894.894 0 0 1 .08-1.262c.376-.328 1.544-.711 1.864-.344M112.094 125.748l6.984 6.582c.404.371.433.999.064 1.405-.37.407-.999.439-1.408.072l-7.296-6.278c-.408-.367-.12-1.31.248-1.717.374-.4 1-.429 1.408-.064M116.662 124.821c-.192.799-1.968 1.254-2.992.983l-9.28-2.524a2.226 2.226 0 0 1-.168-2.756c.416-.288 1.408-1.302 3.664-.368l6.096 3.275c.64.622 1.508.954 2.4.919.216-.024.328.24.28.471"/><path d="M101.894 121.922c2.032-2.061 5.728-2.397 7.792-.408l.936.911a5.274 5.274 0 0 1 .064 7.436l-.704.711a5.28 5.28 0 0 1-7.448.064l-.96-.91c-2.04-2.03-1.712-5.743.32-7.804"/></g><path fill="#ffabe2" d="m96.158 119.653 2.096 1.638-1.248 1.541-2.208-1.493z"/><path fill="#ededed" d="m100.622 118.351-2.368 2.94-2.096-1.638 2.368-2.931z"/><path fill="#7be3f2" d="M100.622 118.32a1.45 1.45 0 0 1-1.564-.125 1.45 1.45 0 0 1-.532-1.473l1.496-1.861 1.904 1.877z"/><path fill="#6ecdd9" d="M100.766 118.152c-.04.055-.072.12-.12.175-.462.572-1.3.661-1.872.2a1.33 1.33 0 0 1-.2-1.87l.152-.15a1.4 1.4 0 0 0 .448 1.525c.455.363 1.087.41 1.592.12"/><path fill="#705347" d="M32.27 54.842a8.416 8.416 0 0 1 5.048 9.585l-12.8 40.321c-.856 3.1-3.432 5.36-6.568 4.61 0 0-5.376-1.718-4.512-6.798l11.136-40.657c.776-4.33 4.872-8.307 7.696-7.061"/><path fill="#6373ba" d="M38.622 54.195c3.008 4.896-3.76 26.463-5.448 31l-14.104-7.94c2.232-11.774 10.768-35.617 19.552-23.06"/><path fill="#e4b34e" d="m18.47 74.1 16.296 9.25-1.056 3.69-15.616-9.074z"/><g fill="#705347"><path d="M11.017 137.712a3.24 3.24 0 0 1 2.277 2.86c.496 3.46-2.536 7.82-2.536 7.82-.768 1.23-.488 1.598-.488 1.598.032 1.15-.336 5.232-.336 5.232 1.16.815 1.24 1.518 1.24 1.518 2.232 1.27 1.136 2.644 1.136 2.644a10.5 10.5 0 0 1-2.36-.8 2.92 2.92 0 0 1-2.128 0 10.9 10.9 0 0 1-3.792-2.212c-3.936-7.492-.28-11.238-.28-11.238l3.768-6.35a3.25 3.25 0 0 1 3.499-1.072"/><path d="M12.214 154.056c-1.6.224-1.936-1.598-1.984-2.732l-.544-11.558a2.4 2.4 0 0 1 2.768-1.07 6.27 6.27 0 0 1 1.664 4.872l-1.344 7.3a3.42 3.42 0 0 0-.152 2.757c.08.2-.184.415-.408.43"/><path d="m24.352 104.742-10.776 35.889a3.44 3.44 0 0 1-4.128 2.276c-1.288-.327-2.464-1.677-2.248-2.995l5.984-36.935a6.59 6.59 0 0 1 7.256-4.68c3.176.526 4.328 3.258 3.912 6.445"/></g><path fill="#705347" d="M76.773 178.933a5.4 5.4 0 0 1 2.4 3.535l12.713 62.822a4.06 4.06 0 0 1-3 4.17h-.056a4.06 4.06 0 0 1-3.34-.562A4.05 4.05 0 0 1 83.742 246l-18.04-60.25c-.816-2.94 3.88-6.702 6.848-7.5a5.4 5.4 0 0 1 4.223.682"/><path fill="#36445e" d="M84.774 232.11s-4.696 1.598-6.04-1.98l-16.36-47.854c-1.016-3.994.616-10.288 4.856-11.366 7.736-3.075 11.712 3.994 12.72 7.94l8.88 50.018c.2 1.318-.856 2.173-4.056 3.243"/><path fill="#eda68c" d="m112.814 244.532.52 1.709s.608 2.133 0 2.316l-26.744 8.076a1.42 1.42 0 0 1-1.352-.91c-.432-.975-2.456-9.586-2.456-9.586l-1.84-6.246 5.752-1.877 2.024 2.188a2.395 2.395 0 0 1 1.376-2.931s2.12-1.198 3.12 3.994l.36 1.326 1.208 2.116 12.392-2.452s3.648-.615 5.64 2.277"/><path fill="#cfd6d4" d="m113.39 248.573-18.4 5.592-8.464 2.54a1.43 1.43 0 0 1-1.36-.919c-.216-.495-.512-1.613-.848-2.596l9.656-2.652 18.88-6.022.528 1.725s.696 2.1.008 2.332"/><path fill="#e5e8e9" d="m112.886 244.54-5.56 1.685-1.144-3.754.992-.224s3.64-.615 5.712 2.293"/><path fill="#545c59" d="m113.062 244.987-19.096 5.783-9.56 2.875-.16-.487 9.576-2.875 19.088-5.783z"/><path fill="none" stroke="#f0ded3" stroke-linecap="round" stroke-linejoin="round" stroke-width=".5" d="m92.678 239.38-1.328 5.048 3.432.28 1.416 1.565 2.976-2.229 2.616.687 2.352-1.797.384 1.246-2.848-.695-2.624 1.901-2.112-.846-3.56 2.404.152-4.353-4.376-1.71"/><path fill="#ce7d71" d="m87.614 237.638 5.544 9.114 13.336-3.147.232.743-13.88 3.227-6.152-9.577z"/><path fill="#705347" d="M13.614 241.057a4.062 4.062 0 0 1-5.832 1.973h-.048a4.055 4.055 0 0 1-1.776-4.793L36.07 178.69c1.416-2.788 6.272-3.044 8.888-1.518s4.8 5.663 3.2 8.283z"/><path fill="#36445e" d="m12.974 223.053 20.424-46.496c1.96-3.61 7.552-9.441 14.296-4.553 3.84 2.093 3.848 8.61 1.88 12.213l-27.552 42.926c-2.384 2.276-5.744.327-5.744.327-2.952-1.438-3.888-3.123-3.304-4.417"/><path fill="#eda68c" d="m25.822 254.564-1.04 1.462s-1.336 1.757-1.848 1.398l-8-2.844L.35 244.667a1.43 1.43 0 0 1-.104-1.637c.528-.943 6.288-8.635 6.288-8.635l2.336-5.343 5.6 3.754-.592 2.66c.56-.975 1.424-1.845 2.6-1.278 0 0 2.192.854-.704 5.495l-.8 1.494-.672 2.604 3.528 5.91 4.968 1.638s4.064-.136 3.024 3.235"/><path fill="#cfd6d4" d="M.222 243.006c.256-.471.96-1.39 1.528-2.253l14.04 12.78 10.088 1.031-1.04 1.47s-.704 1.334-1.856 1.398l-9.096-.344-13.6-12.46a1.43 1.43 0 0 1-.064-1.622"/><path fill="none" stroke="#f0ded3" stroke-linecap="round" stroke-linejoin="round" stroke-width=".5" d="m16.598 238.19-4.44 2.436 2.144 3.155-.824 2.572 3.12 1.27.752 3.714 4.192-.423-1.072 1.749-2.176-2.82-3.176-1.39.136-3.083-3.544-1.565 3.264-2.628-1.816-4.809"/><path fill="#ce7d71" d="m14.462 232.806-2.472 10.791 5.536 7.437 4.8 1.877-.448.63-4.776-1.868-5.96-7.812 2.672-11.495z"/><path fill="#e5e8e9" d="m25.822 254.572-4.712-.048 1.688-3.195.944-.184s3.128.04 2.08 3.427"/><path fill="#545c59" d="m25.59 255.011-10.128-1.078-14.088-12.828.288-.423 14.096 12.844 10.128 1.07z"/><path fill="#705347" d="M39.734 28.37a1.21 1.21 0 0 1-.416.903c-1.232.735-3 .072-3.92-1.47l-1.6-2.643c-.92-1.542-.664-3.403.576-4.138a2.796 2.796 0 0 1 3.976 1.494l.136.487c-.528.168-.888 1.246-.568 2.3.14.455.381.873.704 1.223l.112.103c.58.4.948 1.04 1 1.742" data-paper-data="{&quot;origPos&quot;:null}"/><path fill="#f17d70" d="m36.269 27.825 1.074-.106.366 3.672-1.075.106z" data-paper-data="{&quot;origPos&quot;:null}"/><g data-paper-data="{&quot;origPos&quot;:null}"><path fill="#fff" d="M50.543 22.255c.076.09.107.21.086.325a3.135 3.135 0 0 1-3.076 2.521 3.135 3.135 0 0 1-3.076-2.521.4.4 0 0 1 .392-.464h5.367a.4.4 0 0 1 .307.14"/><path fill="#2e221a" d="M50.536 22.247a.4.4 0 0 1 .093.317 2.99 2.99 0 0 1-1.952 2.324 1.847 1.847 0 0 1-.992-2.78h2.552a.4.4 0 0 1 .299.14"/></g><g data-paper-data="{&quot;origPos&quot;:null}"><path fill="#fff" d="M62.815 22.151c.076.09.107.21.086.325a3.135 3.135 0 0 1-3.076 2.521 3.135 3.135 0 0 1-3.076-2.521.4.4 0 0 1 .392-.463h5.368a.4.4 0 0 1 .306.138"/><path fill="#2e221a" d="M62.811 22.149a.39.39 0 0 1 .09.319 2.99 2.99 0 0 1-1.952 2.324 1.847 1.847 0 0 1-.992-2.78h2.552a.4.4 0 0 1 .302.137"/></g><path fill="#231607" d="M50.958 20.112a.584.584 0 0 1-.584.583h-6.112a.584.584 0 1 1 0-1.167l6.112-.271c.32 0 .544.535.584.855M63.086 20.112a.584.584 0 0 1-.584.583h-6.088a.584.584 0 0 1-.584-.583c0-.32.232-.855.552-.855l6.12.271c.322 0 .584.262.584.584" data-paper-data="{&quot;origPos&quot;:null}"/></g></svg>