<svg xmlns="http://www.w3.org/2000/svg" width="115.8" height="195.875" viewBox="0.1 -0.435 115.8 195.875"><path fill="none" d="M76.54 187.59c-1.365.12-2.73.24-4.08.33 1.35-.09 2.715-.21 4.08-.33M104.74 183.96c-7.65 1.215-18 2.685-28.2 3.63 10.23-.945 20.55-2.415 28.2-3.63M9.25 184.125c5.415.99 12.675 2.115 21.345 3-8.595-.885-15.93-2.01-21.345-3"/><path fill="#c0fffc" d="M58.795 188.505c3 0 6.3-.105 9.63-.3l4.035-.285c1.35-.09 2.715-.21 4.08-.33 10.23-.945 20.55-2.415 28.2-3.63l2.91-.465 6.63-1.14c-.51-6.24-1.5-17.175-3.09-29.46a14.9 14.9 0 0 1-8.49 5.295 17.01 17.01 0 0 1-16.5-5.055 15.345 15.345 0 0 1-28.2 2.28 15.345 15.345 0 0 1-28.14-2.28 16.98 16.98 0 0 1-16.5 5.055 16 16 0 0 1-2.115-.675c-.705 8.235-1.305 17.055-1.92 26.61 5.415.99 12.675 2.115 21.345 3 8.175.795 17.715 1.38 28.125 1.38"/><path fill="#9ef2ed" d="M4.795 152.91a660 660 0 0 0-3.09 29.7c1.8.405 4.35.945 7.5 1.5.615-9.555 1.215-18.375 1.92-26.61a14.5 14.5 0 0 1-6.33-4.59"/><path fill="#89e5dc" d="M11.17 157.5c1.5-16.89 3.3-31.305 6.48-44.475A143.5 143.5 0 0 1 37.33 68.31a85 85 0 0 1-5.085-1.305s-9 9.12-18.165 38.16c-3.6 11.385-6.33 26.49-8.325 40.68-.345 2.385-.66 4.755-.96 7.065a14.5 14.5 0 0 0 6.375 4.59"/><path fill="#9ef2ed" d="M58 69.96s-7.86 1.245-20.655-1.65a143.5 143.5 0 0 0-19.695 44.73c-3.15 13.17-5.04 27.585-6.48 44.46q1.033.412 2.115.675a16.98 16.98 0 0 0 16.5-5.055A15.344 15.344 0 0 0 58 155.415a15.345 15.345 0 0 0 28.14-2.28 17.01 17.01 0 0 0 16.5 5.055 14.9 14.9 0 0 0 8.49-5.295c-.285-2.31-.6-4.665-.945-7.05-1.995-14.19-4.725-29.295-8.325-40.68-9.12-29.13-18.105-38.16-18.105-38.16C67.975 71.55 58 69.96 58 69.96"/><path fill="#fff" d="M114.7 187.845s-.135-2.025-.42-5.49l-6.63 1.14-2.91.465c-7.65 1.215-18 2.685-28.2 3.63-1.365.12-2.73.24-4.08.33l-4.035.285c-3.33.195-6.57.3-9.63.3-10.41 0-19.95-.585-28.2-1.395-8.67-.87-15.93-1.995-21.345-3-.12 1.815-.225 3.66-.345 5.52A247 247 0 0 0 58 194.235c35.145 0 56.7-6.39 56.7-6.39"/><path fill="#c0fffc" d="M1.705 182.61c-.285 3.315-.405 5.235-.405 5.235s2.655.78 7.605 1.8c.12-1.86.225-3.705.345-5.52-3.195-.57-5.745-1.125-7.545-1.515"/><path fill="#fff" d="m72.46 187.92-4.035.285zM107.65 183.495l6.63-1.14z"/><path fill="none" stroke="#4181ce" stroke-linecap="round" stroke-linejoin="round" stroke-width="1.2" d="M114.28 182.355c-1.185-14.4-4.95-53.73-12.36-77.19-9.18-29.13-18.165-38.16-18.165-38.16h-51.51s-9 9-18.165 38.16c-7.5 23.61-11.22 63.27-12.375 77.445-.285 3.315-.405 5.235-.405 5.235s21.555 6.39 56.7 6.39 56.7-6.39 56.7-6.39-.135-2.025-.42-5.49"/><path fill="none" stroke="#fff" stroke-linecap="round" stroke-linejoin="round" stroke-width="2.4" d="M102.535 133.77c.42 2.625.405 2.79.795 5.76M94.195 101.07s3.87 8.13 7.305 27"/><path fill="#c0fffc" d="M37.51 67.005c-.105.855-.18 1.305-.18 1.305C50.125 71.205 58 69.96 58 69.96s9.99 1.59 25.755-3H37.51z"/><path fill="#9ef2ed" d="M37.51 67.005h-5.265q2.655.765 5.085 1.305s.075-.45.18-1.305"/><path fill="none" d="M58 28.725s-3.27-3.39-11.58-3.39c8.37-.015 11.58 3.39 11.58 3.39"/><path fill="#c0fffc" d="M33.475 2.67a24 24 0 0 0-4.95 2.265 188 188 0 0 1 4.2 23.715c1.69-.81 3.44-1.487 5.235-2.025A208 208 0 0 0 33.475 2.67"/><path fill="#fff" d="M46.42 25.32c8.31 0 11.52 3.33 11.58 3.39s3.255-3.39 11.565-3.39a32.8 32.8 0 0 1 13.695 3.33c.885-8.91 2.55-14.775 4.5-23.115A22.16 22.16 0 0 0 76.72 1.5a5.12 5.12 0 0 1-2.145 3.42 5.88 5.88 0 0 1-4.695.255A4.5 4.5 0 0 1 67.435 9c-2.64 1.14-5.19-1.095-5.19-1.095a4.62 4.62 0 0 1-8.49 0S51.205 10.14 48.565 9a4.5 4.5 0 0 1-2.445-3.84 5.88 5.88 0 0 1-4.62-.3 5.2 5.2 0 0 1-2.145-3.45 25.7 25.7 0 0 0-5.805 1.26 208 208 0 0 1 4.5 24 30 30 0 0 1 8.37-1.35"/><path fill="#9ef2ed" d="M37.51 67.005a207 207 0 0 0 1.305-28.62 116 116 0 0 0-.855-11.76 36 36 0 0 0-5.235 2.025c.21 2.775.36 5.55.465 8.295V38.1c.27 10.83-.99 28.905-.99 28.905h5.31"/><path fill="#c0fffc" d="M58 28.725s-3.195-3.405-11.565-3.405a30 30 0 0 0-8.46 1.305c.484 3.903.769 7.828.855 11.76a207 207 0 0 1-1.305 28.62H83.74S82.48 48.93 82.765 38.1v-1.155c.105-2.745.27-5.52.48-8.295a32.9 32.9 0 0 0-13.71-3.33C61.195 25.32 58 28.725 58 28.725M37.96 26.625"/><path fill="#c0fffc" d="M58 28.71s3.195-3.405 11.565-3.405C61.255 25.32 58 28.65 58 28.71"/><path fill="#fff" stroke="#4181ce" stroke-linecap="round" stroke-linejoin="round" stroke-width=".795" d="M41.5 4.86a5.88 5.88 0 0 0 4.695.255A4.5 4.5 0 0 0 48.565 9c2.64 1.14 5.19-1.095 5.19-1.095a4.62 4.62 0 0 0 8.49 0s2.55 2.235 5.19 1.095a4.5 4.5 0 0 0 2.445-3.84 5.88 5.88 0 0 0 4.695-.255A5.12 5.12 0 0 0 76.72 1.5L71.98.825S67.585 4.32 58 4.32 44.02.765 44.02.765l-4.74.645a5.2 5.2 0 0 0 2.22 3.45"/><path fill="none" stroke="#fff" stroke-linecap="round" stroke-linejoin="round" stroke-width="1.2" d="M33.505 34.32a25 25 0 0 1 11.82-2.52A26.47 26.47 0 0 1 58 35.505a27.34 27.34 0 0 1 12.69-3.72c4.082.023 8.102.993 11.745 2.835"/><path fill="none" stroke="#4181ce" stroke-linecap="round" stroke-linejoin="round" stroke-width="1.2" d="M82.78 38.1v-1.155c.105-2.745.27-5.52.465-8.295.885-8.91 2.55-14.775 4.5-23.115A22.15 22.15 0 0 0 76.72 1.5L71.98.825S67.585 4.32 58 4.32 44.02.765 44.02.765l-4.74.645a25.7 25.7 0 0 0-10.755 3.525 188.5 188.5 0 0 1 4.2 23.715c.195 2.775.36 5.55.465 8.295V38.1c.285 10.83-.975 28.905-.975 28.905 15.765 4.5 25.755 3 25.755 3s9.99 1.59 25.755-3c.03 0-1.23-18.075-.945-28.905"/><path fill="#ffff4f" stroke="#ff7bd0" stroke-linecap="round" stroke-linejoin="round" stroke-width=".96" d="M53.305 71.745s-9.615-5.865-12.075-5.49c-1.965.3-1.875 4.365-1.395 8.88.795 7.635 3 9.555 5.49 8.01S52 78 53.305 75.135zM62.695 71.745s9.615-5.865 12.075-5.49c1.965.3 1.875 4.365 1.395 8.88-.795 7.635-3 9.555-5.49 8.01S64 78 62.695 75.135z"/><path fill="#ffff4f" d="M53.305 69.255h9.39V74.7h-9.39z"/><path fill="#fff" d="M53.305 67.65h9.39v1.605h-9.39z"/><path fill="#fff" d="M53.305 67.65s-9.585-6.99-12.075-6.99c-.9 0-1.65.93-2.25 2.265a109 109 0 0 1 14.325 6.33z"/><path fill="#ffff4f" d="M38.98 63a23.4 23.4 0 0 0-1.65 8.25c0 3.465.795 8.76 2.895 8.76 2.805 0 11.175-3.765 13.08-5.235v-5.52A109 109 0 0 0 38.98 63"/><path fill="#fff" d="M76.855 62.58c-.57-1.155-1.26-1.92-2.085-1.92-2.49 0-12.075 6.99-12.075 6.99v1.605s9.03-4.755 14.16-6.675"/><path fill="#ffff4f" d="M62.695 69.255V74.7c1.905 1.5 10.275 5.235 13.08 5.235 2.1 0 2.895-5.295 2.895-8.76a22.75 22.75 0 0 0-1.815-8.595c-5.13 1.92-14.16 6.675-14.16 6.675"/><path fill="none" stroke="#ff7bd0" stroke-linecap="round" stroke-linejoin="round" stroke-width=".795" d="m48.82 69.645 4.485.615M48.82 72.84l4.485-.6M67.18 69.585l-4.485.6M67.18 72.78l-4.485-.615"/><path fill="none" stroke="#ff7bd0" stroke-linecap="round" stroke-linejoin="round" stroke-width=".96" d="M53.305 67.65h9.39v7.05h-9.39z"/><path fill="none" stroke="#ff7bd0" stroke-linecap="round" stroke-linejoin="round" stroke-width=".96" d="M53.305 67.65s-9.585-6.99-12.075-6.99-3.9 7.065-3.9 10.5.795 8.76 2.895 8.76c2.805 0 11.175-3.765 13.08-5.235zM62.695 67.65s9.585-6.99 12.075-6.99 3.9 7.065 3.9 10.5-.795 8.76-2.895 8.76c-2.805 0-11.175-3.765-13.08-5.235z"/></svg>