<svg xmlns="http://www.w3.org/2000/svg" xml:space="preserve" viewBox="0 0 512 512"><circle cx="256" cy="176.552" r="132.414" style="fill:#e4eaf6"/><path d="M273.655 176.552h-35.31L220.69 459.034h70.62zM353.103 512H158.897a8.83 8.83 0 0 1-8.828-8.828v-17.655a8.83 8.83 0 0 1 8.828-8.828h194.207a8.83 8.83 0 0 1 8.828 8.828v17.655a8.83 8.83 0 0 1-8.829 8.828" style="fill:#464655"/><path d="M315.651 459.034H196.349a26.5 26.5 0 0 0-18.727 7.756l-9.898 9.899h176.552l-9.899-9.899a26.49 26.49 0 0 0-18.726-7.756" style="fill:#707487"/><path d="m255.658 144.473 67.588-77.245c6.063-6.93 16.725-7.285 23.236-.774l.026.026c17.841 17.841 16.868 47.052-2.12 63.667l-54.963 48.093M254.31 210.663l-67.588 77.245c-6.063 6.93-16.725 7.285-23.236.773l-.026-.026c-17.841-17.841-16.868-47.052 2.12-63.667l54.963-48.093M288.078 178.242l77.245 67.588c6.93 6.063 7.285 16.725.774 23.236l-.026.026c-17.841 17.841-47.052 16.868-63.667-2.12l-48.093-54.963M221.889 176.894l-77.245-67.588c-6.93-6.063-7.285-16.725-.774-23.236l.026-.026c17.841-17.841 47.052-16.868 63.667 2.12l48.093 54.963" style="fill:#00beff"/><circle cx="255.823" cy="177.567" r="35.31" style="fill:#464655"/><path d="M256 0C158.65 0 79.448 79.198 79.448 176.552S158.65 353.103 256 353.103s176.552-79.198 176.552-176.552S353.35 0 256 0m158.897 176.552c0 25.77-6.302 50.048-17.237 71.594l-124.004-71.594 124.004-71.594c10.935 21.546 17.237 45.824 17.237 71.594M388.863 89.65l-124.035 71.613V18.102c51.859 2.871 97.145 30.576 124.035 71.548M247.172 18.102v143.159L123.137 89.65c26.89-40.972 72.176-68.677 124.035-71.548M114.34 104.958l124.004 71.594-124.004 71.594c-10.935-21.546-17.237-45.824-17.237-71.594s6.302-50.048 17.237-71.594m8.797 158.496 124.035-71.613V335c-51.859-2.87-97.145-30.574-124.035-71.546m141.691 71.547v-143.16l124.035 71.612c-26.89 40.973-72.176 68.677-124.035 71.548" style="fill:#707487"/><circle cx="256" cy="388.414" r="13.241" style="fill:#00beff"/><circle cx="256" cy="428.138" r="13.241" style="fill:#00beff"/></svg>