<svg xmlns="http://www.w3.org/2000/svg" width="101.806" height="113.936" viewBox="0 -0.25 101.806 113.936"><path fill="#006482" d="M61.721 86.673c-.192 1.387-.482 2.389-.141 3.66.261.06 27.36-4.986 27.36-4.986l-1.23-3.32s-24.867 4.449-25.989 4.646"/><path fill="#008cb4" d="m81.604 78.444 2.977 13.242-4.019.893-3.48-13.094z"/><path d="M75.054 57.315c-1.61.423-.989.757-.298 4.464 1.245 6.681 9.578 33.328 10.922 37.733 1.297 4.249 2.273 8.683 4.279 12.674.702.685 1.47.96 2.41.559 1.569-1.229.507-5.043-.699-8.349-.762-2.088-12.91-42.609-12.91-42.609s-.876-5.216-3.704-4.472M81.511 62.172c-.448.114-.276.208-.094 1.237.329 1.857 11.624 37.051 11.985 38.276.35 1.181.609 2.413 1.156 3.525.193.192.405.27.666.162.439-.337.225-2.218-.102-3.138-.206-.58-11.975-38.403-11.975-38.403s-.85-1.858-1.636-1.659"/><path fill="#006482" d="M40.001 86.673c.192 1.387.483 2.389.141 3.66-.261.06-27.36-4.986-27.36-4.986l1.231-3.32s24.867 4.449 25.988 4.646"/><path fill="#008cb4" d="M20.118 78.444 17.14 91.686l4.02.893 3.48-13.094z"/><path d="M26.669 57.315c1.609.423.988.757.297 4.464-1.244 6.681-9.578 33.328-10.922 37.733-1.297 4.249-2.273 8.683-4.279 12.674-.702.685-1.469.96-2.409.559-1.569-1.229-.507-5.043.699-8.349.761-2.088 12.909-42.609 12.909-42.609s.876-5.216 3.705-4.472M20.211 62.172c.448.114.277.208.094 1.237-.328 1.857-11.623 37.051-11.985 38.276-.349 1.181-.609 2.413-1.155 3.525-.193.192-.406.27-.667.162-.438-.337-.224-2.218.102-3.138.206-.58 11.976-38.403 11.976-38.403s.85-1.858 1.635-1.659"/><path fill="#a0783c" d="M14.718 59.566c.659.884 1.358 2.707 1.937 3.485 1.091-.437 4.28-2.802 4.671-3.873-.143-.749-.635-1.098-1.382-1.072-.755.027-4.416 1.063-5.226 1.46"/><path fill="#be965a" d="M18.289 72.024c.559-.226.254-1.122.59-1.841.268-.575 1.22-.912 1.326-1.62.078-.52-.239-1.234-.147-1.693.15-.758.91-1.002.957-1.473.26-2.611-4.28-5.625-5.524-7.437-2.511-3.656-3.573-7.966-2.052-12.4 1.492-4.352 6.461-6.583 10.757-7.027 2.387-.246 4.892-.14 7.292-.181 1.939-.035 7.45.578 14.119 1.604 3.067.471-1.659-9.832-1.659-9.832s-3.985-2.746-7.975-3.329c-3.468-.506-8.942-.637-12.416-.41-6.704.438-12.124 2.047-16.94 6.7C-.716 40.168-.998 53.57 4.379 62.399c.553.909 2.477 4.615 5.65 6.703 3.421 2.251 8.094 2.859 8.26 2.922"/><path fill="#f01446" d="M13.229 51.073c1.26 2.593 2.977 7.068 2.977 7.068s-9.317 6.202-11.921 6.296c-1.036-.685-1.961-2.806-2.668-4.436C.567 57.583.5 54.793.5 54.793s9.48-2.701 12.729-3.72"/><path fill="#a0783c" d="M86.949 58.774c-.418 1.021-.639 2.96-1.006 3.858-1.166-.152-4.844-1.646-5.49-2.585-.049-.761.341-1.222 1.07-1.383.738-.163 4.541-.072 5.426.11"/><path fill="#be965a" d="M83.701 71.974c-.558-.226-.254-1.122-.59-1.841-.268-.574-1.22-.911-1.326-1.62-.077-.519.239-1.233.148-1.693-.15-.758-.911-1.001-.958-1.472-.259-2.611 4.281-5.625 5.525-7.437 2.511-3.656 3.572-7.966 2.052-12.401-1.492-4.352-6.462-6.582-10.757-7.026-2.388-.247-4.893-.14-7.292-.182-1.94-.034-8.456.522-11.306 1.376-2.972.892.075-5.126-.887-8.036.58-1.611 7.606-4.305 9.244-4.681 3.417-.783 7.406-.853 10.879-.626 6.704.439 12.124 2.048 16.941 6.701 7.332 7.082 7.614 20.485 2.238 29.314-.554.908-2.827 5.093-6 7.181-3.421 2.25-7.744 2.38-7.911 2.443"/><path fill="#006482" d="M28.494 74.31s1.457-13.138 2.428-14.836 40.043-1.577 40.043-1.577l3.15 15.162zM71.359 86.374c-.732 4.557-3.015 17.511-3.015 17.511s-.131.454-.202 1.045c-.782-.079-1.494.012-1.494.012s-27.66.16-29.111.083c-1.055-.056-2.169-.071-3.113.046-.065-.657-.217-1.186-.217-1.186s-2.283-12.954-3.015-17.511h-2.884c.175 1.035.364 2.067.522 3.097.456 2.975 1.861 11.264 3.023 15.552.147.543.75 2.647 1.255 2.576 2.843.464 5.761.235 8.628.233 3.011-.002 27.522-.265 27.522-.265s.797-.166 1.441-2.544c1.161-4.288 2.566-12.577 3.022-15.552.159-1.03.348-2.062.522-3.097z"/><path d="M65.02 113.186c-.724.017-1.007-1.013-1.009-2.185-.001-1.132-.105-1.379.222-2.5.204-.219.489-.343.931-.316.766.173.847 1.084.785 1.939-.003.049.343 3.032-.929 3.062"/><path fill="#008cb4" d="M62.926 109.497h4.082v-5.202h-4.082z"/><path d="M37.705 113.186c-.724.017-1.006-1.013-1.008-2.185-.002-1.132-.106-1.379.221-2.5.205-.219.489-.343.932-.316.766.173.847 1.084.785 1.939-.004.049.343 3.032-.93 3.062"/><path fill="#008cb4" d="M35.611 109.497h4.082v-5.202h-4.082z"/><path fill="#006482" d="m33.735 86.413-2.393.539-2.848-12.642 2.393-.538zM24.63 102.712l-2.398-.519 3.728-17.17 2.397.519zM77.301 102.712l2.398-.519-3.728-17.17-2.397.519zM71.473 86.955l-2.417-.417 2.205-12.77 2.417.417zM40.891 86.672v3.738c3.823.007 12.529.033 20.771-.037v-3.766c-7.048.029-15.03.058-20.771.065"/><path fill="#008cb4" d="M74.032 71.184c-7.315-.399-42.059-.115-44.99.919-2.292-.154-3.026 1.14-2.154 3.006.951.822 2.473 1.434 3.798 1.101 7.418-.155 32.937-.133 39.583-.284.806.271 4.067-.209 4.793-.724.219-1.015.983-4.415-1.03-4.018M80.202 102.358c.043 1.086-.285.762-2.734 1.039-4.416.5-42.771.389-45.782.392-2.905.002-5.864.24-8.743-.25-.562-.307-.881-.735-.81-1.399.468-1.215 3.056-1.28 5.354-1.159 1.451.077 49.21-.082 49.21-.082s3.429-.45 3.505 1.459"/><path fill="#780046" d="M66.787 60.856c-1.857-.325-29.202.63-33.652.293l3.804 11.698c1.863.474 24.959.165 29.117-.73.152-1.287.657-10.566.731-11.261"/><path fill="#be965a" d="M59.689 29.415c-1.062-.272-16.096-.823-16.523-.554-.312.826-1.219 11.415-1.219 11.415l17.742-1.884s.071-6.769 0-8.977"/><path fill="#f01446" d="M65.495 46.412c-.169-1.039-1.566-7.846-2.799-12.899-.744-3.047-1.603-5.523-1.603-5.523s-2.79-.25-3.504-.118c-.006.439-.312 2.689-1.305 4.068-1.274 1.769-3.426 2.69-4.85 2.728-2.534.069-4.455-1.106-5.258-2.541-1.156-2.062-1.083-4.768-1.083-4.768s-1.941-.115-2.167-.043c-2.749.87-5.854 13.705-6.256 16.031a331 331 0 0 0-1.946 12.689c-.183 1.371-1.649 6.653-.652 7.888l34.156-.337c.331-.788-2.593-16.313-2.733-17.175"/><path fill="#e6781e" d="M63.842 44.628c-1.074-7.02-7.639-11.841-14.663-10.767-7.023 1.073-11.847 7.634-10.773 14.654a12.8 12.8 0 0 0 3.347 6.866c2.363 3.107 5.869 4.283 9.42 4.05a13 13 0 0 0 1.896-.148 12.8 12.8 0 0 0 7.462-3.943q.288-.269.559-.551c.336-.352 1.467-1.447 2.114-3.792a12.8 12.8 0 0 0 .638-6.369"/><path fill="#ff963c" d="M55.342 45.667s-1.169-5.514 1.868-10.424a12.8 12.8 0 0 0-7.975-1.389l1.835 12.508zM46.856 46.879l-8.497 1.262c.015.125.028.249.047.374a12.8 12.8 0 0 0 3.347 6.865 10.1 10.1 0 0 0 2.611 2.421c3.844-4.552 2.492-10.922 2.492-10.922"/><path fill="#824600" d="M49.55 33.814c-.122.015-.243.027-.365.046 1.089 7.484 2.443 16.781 3.839 25.428l.044-.005q.161-.026.319-.056c-1.395-8.641-2.748-17.933-3.837-25.413"/><path fill="#824600" d="M38.355 48.056q-.004 0-.007.003.022.194.049.387.009 0 .017.001l25.416-3.885q-.032-.195-.069-.388z"/><path fill="#824600" d="M55.421 40.746c.228-2.073.913-3.92 1.988-5.39a10 10 0 0 0-.34-.186c-1.089 1.516-1.782 3.407-2.014 5.522-.554 5.052 1.175 11.452 5.485 14.639.096-.09.187-.185.281-.277-3.335-2.483-6.104-7.887-5.4-14.308M47.084 51.324c.35-2.891-.049-6.127-1.095-8.876-.793-2.085-2.141-4.023-3.644-5.276a12 12 0 0 0-.274.266c1.473 1.207 2.799 3.106 3.578 5.152 2.336 6.142 1.083 11.895-1.509 15.062q.165.112.335.217c1.396-1.687 2.29-3.916 2.609-6.545"/><path d="M33.135 65.758h34.659v-4.885H33.135z"/><path fill="#64645a" d="M47.207 66.234h7.745v-6.047h-7.745z"/><path fill="#be965a" d="M70.335 62.927c-.061 6.597-2.141 12.758-2.141 12.758l-12.288.194s.802-19.316 3.892-22.292c.867-.836 3.017-3.558 7.289-1.724 4.273 1.835 3.275 8.166 3.248 11.064"/><path fill="#f0e6d2" d="M55.305 71.347c-.335 3.62-.46 10.248-.449 11.612 2.146.629 10.157-.392 12.102-.845.775-1.165 2.176-7.061 2.893-10.767z"/><path fill="#f01446" d="m52.118 99.665-.232 1.481 15.742-.092.246-1.242L58.739 98z"/><path d="m68.708 79.309-7.389.086c-3.604.043-7.225.087-7.493.097-.24 3.067-1.708 20.173-1.708 20.173s14.55.052 15.757.147l.142-.486c-.916-1.006-3.009-.489-4.212-.956.6-1.982 3.849-13.657 4.903-19.061"/><path fill="#f01446" d="M61.997 84.548a3.865 3.865 0 0 1-7.73 0 3.864 3.864 0 0 1 3.865-3.863 3.863 3.863 0 0 1 3.865 3.863"/><path fill="#780046" d="M59.966 84.548a1.834 1.834 0 1 1-3.667-.001 1.834 1.834 0 0 1 3.667.001M67.527 81.131a.768.768 0 1 1-1.537 0 .768.768 0 0 1 1.537 0M66.694 84.143a.77.77 0 1 1-1.539 0 .77.77 0 0 1 1.539 0M65.988 87.284a.769.769 0 1 1-1.537 0 .769.769 0 0 1 1.537 0M65.218 89.912a.768.768 0 1 1-1.537.001.768.768 0 0 1 1.537-.001M64.513 92.668a.769.769 0 1 1-1.537 0 .769.769 0 0 1 1.537 0M63.743 95.553a.768.768 0 1 1-1.536 0 .768.768 0 0 1 1.536 0"/><path fill="#be965a" d="M45.609 73.5c-1.064.073-11.048-.19-11.369-.239-.437-2.525-2.644-9.667-2.475-14.41.101-2.815.871-5.68 2.539-7.254 1.001-.943 2.326-1.422 4.023-1.146 4.385.714 5.797 7.214 6.356 10.92.533 3.536.475 8.62.926 12.129"/><path fill="#f0e6d2" d="M33.067 71.347c.443 2.909 1.188 7.845 1.444 9.861 3.098 1.045 9.309.713 12.507.02.416-1.125-.522-7.159-.94-9.881z"/><path fill="#f01446" d="m49.765 99.665.232 1.481-15.742-.092-.246-1.242L43.145 98z"/><path d="m33.175 79.309 7.39.086c3.603.043 7.225.087 7.492.097.24 3.067 1.709 20.173 1.709 20.173s-14.551.052-15.757.147l-.143-.486c.916-1.006 3.009-.489 4.212-.956-.599-1.982-3.731-13.02-4.903-19.061"/><path fill="#f01446" d="M39.886 84.548a3.865 3.865 0 0 0 7.73 0 3.863 3.863 0 0 0-3.865-3.863 3.864 3.864 0 0 0-3.865 3.863"/><path fill="#780046" d="M41.918 84.548a1.833 1.833 0 1 0 3.667 0 1.833 1.833 0 0 0-3.667 0M34.356 81.131a.768.768 0 1 0 1.537 0 .768.768 0 0 0-1.537 0M35.19 84.143a.769.769 0 1 0 1.537 0 .769.769 0 0 0-1.537 0M35.896 87.284a.768.768 0 1 0 1.537.001.768.768 0 0 0-1.537-.001M36.665 89.912a.769.769 0 1 0 1.537 0 .769.769 0 0 0-1.537 0M37.37 92.668a.77.77 0 1 0 1.539 0 .77.77 0 0 0-1.539 0M38.14 95.553a.768.768 0 1 0 1.537 0 .768.768 0 0 0-1.537 0"/><path fill="#a0783c" d="M58.755 12.599s.61-2.05 3.05-.961.823 3.511.229 4.419c-.73 1.117-2.125 1.473-3.496 1.853.185-2.094.217-5.311.217-5.311M44.758 17.788c-1.371-.38-2.767-.736-3.497-1.853-.593-.909-2.21-3.33.23-4.419s3.049.961 3.049.961.033 3.217.218 5.311"/><path fill="#be965a" d="M59.333 10.582c-.411-3.301-1.443-5.985-1.443-5.985s-3.119-1.824-6.413-2.028c-2.397-.148-5.117 1.162-5.665 1.729-1.39 1.437-2.073 3.7-2.104 6.239.123.286.215 5.091.375 6.529.22 1.971.61 3.556 1.737 5.216 2.386 3.512 6.933 4.097 9.665 3.209s2.747-3.578 3.503-5.022c.737-1.411.642-7.509.345-9.887"/><path d="M51.984 18.513c-1.068 0-1.653.056-2.11.61.021.279 1.081.561 2.108.547s2.022-.326 2.022-.589c0-.526-.952-.568-2.02-.568"/><path fill="#a0783c" d="M53.203 14.839c-.299-.833-.819-2.227-1.402-2.999-1.172.65-1.839 3.048-1.159 4.149.169.272.937 1.085 2.207.487.448-.21.541-1.117.354-1.637"/><path d="M56.682 12.006c.219.707.259 1.247-.238 1.75-.814-.4-.543-1.073-.559-1.75zM47.328 13.879c-.567-.165-.567-.165-.836-.765l.367-.609.533.102c.215.436.255.824-.064 1.272M57.89 4.597s-2.322 3.511-7.03 4.972c-4.708 1.46-7.136 2.541-7.136 2.541-.329-2.541-1.441-7.785 3.739-11.002.706-.438 3.474-1.439 6.368-.405 2.322.829 4.059 3.894 4.059 3.894"/><path d="m50.968 8.593-2.821 3.625s7.636-.578 9.743-7.621z"/><path d="m54.967 6.904 4.47 5.751s.528-5.281-1.547-8.058z"/></svg>