<svg xmlns="http://www.w3.org/2000/svg" viewBox="0 0 120 120"><title>hs-huzzah-48</title><g data-name="Layer 2"><path d="M69.889 22.528a41 41 0 0 1 4.24.636c.82.19 1.64.411 2.466.589.123.026 1.119.457 1.393.5.85.138 1.558.654 2.385.785.335.053 1.325.73 1.695.684.121-.016 2.285.977 3.043 1.347a14 14 0 0 1 2.127 1.213c.665.486 1.287 1.036 1.974 1.481a19 19 0 0 1 2.503 2.005 38 38 0 0 1 5.242 5.655c.62.863 1.254 1.715 1.912 2.547a9.2 9.2 0 0 1 1.321 1.993 6.5 6.5 0 0 0 .85 1.595 9 9 0 0 1 .91 1.514c.405 1.205 1.127 2.26 1.547 3.469a17 17 0 0 0 .818 1.8 12.5 12.5 0 0 1 .708 2.052c.533 1.877 1.126 3.738 1.64 5.62a11 11 0 0 0 .18 1.36 6.7 6.7 0 0 1 .404 1.373 6.5 6.5 0 0 1 .287 3.178.36.36 0 0 1-.294.247c-.568.152-1.107.394-1.68.528-.466.109-.594.024-.7-.45a4 4 0 0 1-.155-.84.42.42 0 0 0-.285-.427c-.288-.112-.343-.297-.148-.546.061-.079.155-.24.099-.258-.687-.205-.063-.916-.511-1.25a9 9 0 0 1-1.052-1.075.8.8 0 0 1-.118-.264c-.23-1.148-.552-2.274-.81-3.416a13.4 13.4 0 0 0-.658-2.207.76.76 0 0 1-.036-.447.55.55 0 0 0-.276-.68.5.5 0 0 1-.24-.368 10.7 10.7 0 0 0-1.048-2.591 21 21 0 0 0-1.689-3.207 7.7 7.7 0 0 1-1.089-2.05.53.53 0 0 1 .2-.443c.45-.35.811-.803 1.285-1.126.106-.072.286-.1.276-.259-.012-.177-.194-.217-.331-.266a3.53 3.53 0 0 1-1.977-1.696c-.12-.224-.18-.469-.28-.699-.067-.15-.118-.349-.313-.358-.214-.01-.23.207-.3.353-.175.37-.255.806-.694.993-.106-.008-.236-.055-.252-.14-.066-.359-.37-.514-.586-.747a6 6 0 0 1-.611-.921 1.5 1.5 0 0 0-.478-.51c-.201-.12-.393-.381-.658-.049-.102.129-.288.046-.402-.07a.35.35 0 0 1-.024-.465c.16-.243-1.06-1.731-1.252-1.985a15.5 15.5 0 0 0-2.294-1.924 1.42 1.42 0 0 0-.747-.395c-.118-.016-.246-.048-.289-.172-.241-.696-.903-.92-1.467-1.13-.804-.298-1.537-.724-2.302-1.086a13 13 0 0 0-2.205-.955 22.5 22.5 0 0 0-4.073-1.063 8 8 0 0 1-1.022-.265 30.3 30.3 0 0 0-7.35-.566c-1.54.078-3.081.131-4.62.244a19 19 0 0 0-2.191.322c-1.433.276-2.892.432-4.31.76a17.8 17.8 0 0 0-3.877 1.35c-.367.181-2.72 1.366-3.437 1.827-.43.275-.974.383-1.243.885-.044.081-.133.09-.213.117a4.6 4.6 0 0 0-1.62.952c-.56.506-1.248.85-1.819 1.347a11 11 0 0 0-1.802 1.512 3.6 3.6 0 0 1-1.238 1.05c-.074.04-.165.077-.194.154a4.2 4.2 0 0 1-1.333 1.548 21 21 0 0 0-2.537 2.851 28 28 0 0 0-1.952 2.743c-.507.847-1.117 1.63-1.643 2.469a38 38 0 0 0-2.115 3.763c-.95 1.983-1.618 4.076-2.54 6.067a12 12 0 0 0-.779 1.652c-.14.48-.22.975-.406 1.442-.055.139-.05.311-.139.428-.66.869-.633 1.973-1.023 2.936-.565 1.394-.885 2.87-1.357 4.294-.258.779-.196 1.598-.491 2.353-.041.105-.016.236-.124.316a15.7 15.7 0 0 0-4.191 1.728 22.3 22.3 0 0 0-3.885 2.85.9.9 0 0 1-.217.102.7.7 0 0 1-.051-.273c.157-.703.335-1.402.49-2.107l.21-.96c.096-.472.488-2.04.544-2.368a9 9 0 0 1 .683-2.736c.488-.911.348-1.903.716-2.81.398-.983.56-2.064.976-3.038.479-1.118.712-2.31 1.198-3.422.5-1.146.811-2.38 1.38-3.486.713-1.382 1.237-2.847 2.007-4.206.516-.911.905-1.904 1.394-2.84a37 37 0 0 1 2.693-4.812c1.12-1.532 2.09-3.19 3.332-4.611a54 54 0 0 1 6.391-6.388 47 47 0 0 1 5.267-4.025 32 32 0 0 1 4.181-2.342 51 51 0 0 1 7.093-2.506 50.3 50.3 0 0 1 9.374-1.342c.482-.029 3.89-.03 4.609.06" style="fill:#f37676"/><path d="M37.001 97.047a12.4 12.4 0 0 1-2.66.19c-1.817.067-3.64.08-5.457.03a122 122 0 0 0-3.889-.027c-1.886.007-3.773-.07-5.66-.073-1.433-.002-6.54-.237-7.35-.032-.712.18-1.519-.173-2.197.329-.169-.218-.036-.415.046-.612a14.7 14.7 0 0 1 2.302-3.815 26 26 0 0 1 2.383-2.782 14.2 14.2 0 0 1 4.137-2.517 24.5 24.5 0 0 1 3.78-1.187 21 21 0 0 1 2.477-.403c.896-.106 1.794-.197 2.686-.32 1.096-.152 2.201-.204 3.296-.358.199-.028.396-.061.595-.09.212-.03.45-.08.528.222-.032.256-.257.328-.431.45-.237.167-.241.342.044.419a3.3 3.3 0 0 1 2.139 2.095c.046.104.092.236.231.235.125-.001.146-.126.165-.219a3.8 3.8 0 0 1 1.709-2.203c.437-.33.431-.346-.07-.595-.228-.113-.584-.144-.505-.552a10.5 10.5 0 0 1 1.785-.222c1.307-.194 2.628-.308 3.913-.621a19.9 19.9 0 0 0 4.598-1.72c.799-.422 1.576-.87 2.345-1.34.69-.421 1.304-.942 1.966-1.392a10.5 10.5 0 0 0 2.508-2.422 25 25 0 0 0 3.03-5.131c.401-.939.715-1.908 1.128-2.834.294-.66.495-1.346.764-2.01.24-.046.316.146.411.295.198.31.356.642.53.965.292.833.585 1.664.9 2.49a9.5 9.5 0 0 1 .39 2.358 12.5 12.5 0 0 1 .1 2.693 1.5 1.5 0 0 1-.092.438 3.8 3.8 0 0 0-.502 2.269 3.4 3.4 0 0 0 .177 1.332 3.3 3.3 0 0 0 2.19 1.702 11.44 11.44 0 0 0 8.147-.526c.328-.13.613-.35.95-.461.168-.056.332-.188.522-.057.195.307.405.606.579.924.073.135.605 1.326.695 1.624.287.946.507 1.912.736 2.874.075.314.248 1.83.37 2.114a15.4 15.4 0 0 1 .552 2.203 7.43 7.43 0 0 0 1.477 3.727 3.34 3.34 0 0 0 1.223.944 11.6 11.6 0 0 1 1.679.784 1 1 0 0 0 .38.19.31.31 0 0 1 .2.191c.03.148-.843.53-.967.541-1.142.101-2.283.248-3.427.277a20 20 0 0 1-2.34-.019 9.8 9.8 0 0 0-2.83.016c-.423.087-.711.19-1.058-.066.117-.359.452-.176.676-.269.146-.06.408-.012.41-.198 0-.17-.256-.194-.41-.224-.628-.12-1.272-.035-1.904-.12-1.098-.15-2.206-.043-3.306-.138-.522-.046-1.035.084-1.556.057-1.556-.08-3.113.075-4.667-.001-2.177-.106-4.354-.005-6.53-.006-1.62-.001-3.242-.036-4.865.016-1.653.053-3.315.042-4.973.05a15.6 15.6 0 0 0-3.347.167c-.306.069-.529.337-.856.35" style="fill:#bae2fe"/><path d="M96.919 44.564a23.6 23.6 0 0 0 1.876 3.216c.108.181 1.246 2.649 1.65 3.383a2 2 0 0 1 .13.313 35 35 0 0 1 1.388 4.485 22 22 0 0 0 .844 3.22 1.4 1.4 0 0 1-.031.439.6.6 0 0 1-.485-.052 6.4 6.4 0 0 0-2.497-.667c-.347-.041-.678-.163-1.027-.197-.404.084-.718-.265-1.111-.232a2.15 2.15 0 0 1-.377-1.079 24.5 24.5 0 0 0-1.15-3.69 24 24 0 0 0-1.83-3.668 21.3 21.3 0 0 0-2.156-3.126 23 23 0 0 1-1.623-2.424 15 15 0 0 0-2.137-2.59 21.3 21.3 0 0 0-2.61-2.646 43.5 43.5 0 0 0-4.655-3.075 14.5 14.5 0 0 0-3.776-1.436c-.898-.203-1.805-.359-2.7-.579a21 21 0 0 0-2.142-.273 21 21 0 0 0-3.704-.134 24.8 24.8 0 0 0-6.166 1.125 26 26 0 0 0-2.73.828 38 38 0 0 0-3.521 1.692 19.4 19.4 0 0 0-2.791 1.659c-1.17.93-2.546 1.558-3.651 2.572a.68.68 0 0 1-.395.205c-.047-.002-.093-.047-.129-.042-.069.01.033.061-.006.092a6.4 6.4 0 0 1-2.003 1.756.13.13 0 0 1-.091-.055c-.027.059.03.11.015.169a1.1 1.1 0 0 1-.401.57c-.887.641-1.479 1.576-2.3 2.288a7 7 0 0 0-.856 1.1 56.5 56.5 0 0 0-4.742 7.393 28 28 0 0 1-1.883 3.37 1 1 0 0 0-.155.258c-.486 1.377-1.229 2.638-1.76 4-.713 1.83-1.181 3.735-1.82 5.587a15 15 0 0 0-.616 2.64 2.6 2.6 0 0 1-.341 1.033c-.567.14-1.04-.212-1.548-.335a11.4 11.4 0 0 0-5.21.404c-.192-.48.175-.888.197-1.35.01-.21.22-1.043.239-1.144a35 35 0 0 1 .912-3.393 15.3 15.3 0 0 1 .885-2.35c.014-.029.058-.056.055-.08-.132-1.036.829-1.686.926-2.636.024-.233 1.17-3.182 1.61-4.092.558-1.151.846-2.427 1.38-3.564a35 35 0 0 1 3.048-5.352c1.19-1.685 2.288-3.43 3.586-5.047.944-1.177 2.047-2.174 3.057-3.271.366-.399.7-.814 1.102-1.194 1.365-1.292 2.886-2.377 4.328-3.563a11 11 0 0 1 1.11-.731c1.258-.808 2.586-1.508 3.891-2.241.146-.082.992-.5 1.24-.627a16.2 16.2 0 0 1 3.746-1.377 62 62 0 0 1 7.523-1.28 57 57 0 0 1 6.616-.257 26.7 26.7 0 0 1 5.675.788c1.147.265 2.271.597 3.41.87a22 22 0 0 1 4.243 1.765 6.7 6.7 0 0 1 2.52 1.342 12.3 12.3 0 0 0 2.4 1.785c.614.446.962 1.108 1.6 1.508.252.158 1.075 1.445 1.568 1.894a7.5 7.5 0 0 1 1.185 1.393c.289.427.648.806.976 1.206.078.247-.126.356-.25.498a7.3 7.3 0 0 1-1.602 1.106c-.069.046-.151.072-.22.119-.124.084-.28.161-.258.337.019.159.183.177.304.223a6 6 0 0 1 1.144.496A4.7 4.7 0 0 1 95.4 45.82c.053.103.074.222.124.328s.103.227.244.216c.118-.008.143-.125.177-.217.098-.267.181-.54.283-.803.131-.34.261-.698.69-.78" style="fill:#f3ba76"/><path d="M31.961 85.677c-.057-.28-.265-.211-.437-.174-1.07.233-2.172.209-3.246.386-1.02.169-2.05.245-3.072.397-.996.148-1.993.26-2.98.482a21 21 0 0 0-5.214 1.909c-2.743 1.442-4.427 3.871-6.069 6.353a8.5 8.5 0 0 0-1.155 2.434c-.12-.02-2.923-.382-3.507-.405a20 20 0 0 1-3.202-.155c-.447-.09-.924.24-1.418.06-.272-.099 2.375-3.111 3.738-4.537a2 2 0 0 1 .263-.206l-.002.002a1.9 1.9 0 0 1 .245-.482c1.716-1.798 3.21-3.785 4.82-5.673.413-.487.778-1.032 1.2-1.523a24.8 24.8 0 0 1 3.602-3.901c1.887-1.42 3.611-3.046 5.63-4.303a50 50 0 0 1 5.99-3.149c4.262-1.131 6.465 1.03 6.91.91a2.02 2.02 0 0 0 1.207-.665 19.5 19.5 0 0 1 1.963-1.834 56 56 0 0 1 6.445-5.14 19.6 19.6 0 0 1 5.683-2.764 3.87 3.87 0 0 1 2.851.274 22 22 0 0 1 2.312 1.353 2.47 2.47 0 0 0 1.72.41c.573.369.732 1.051 1.156 1.534a.205.205 0 0 1-.038.273 2.35 2.35 0 0 1-.339 1.382c-.41.85-.622 1.771-1.019 2.615a28 28 0 0 1-2.896 5.271 15.4 15.4 0 0 1-2.405 2.72 32 32 0 0 1-3.656 2.521 23.3 23.3 0 0 1-5.257 2.3 11.7 11.7 0 0 1-2.783.575 28 28 0 0 1-3.723.346c-.262.085-.408-.093-.545-.257a3 3 0 0 1-.487-.871c-.063-.167-.086-.407-.298-.425-.238-.021-.251.233-.312.392a2.85 2.85 0 0 1-1.22 1.418c-.137.085-.266.215-.455.147" style="fill:#d5ecfe"/><path d="M49.39 41.77c.757-.52 1.51-1.049 2.272-1.562.74-.497 1.524-.936 2.23-1.479.96-.738 2.09-1.174 3.088-1.83.549-.36 1.181-.498 1.736-.828a10.3 10.3 0 0 1 2.97-1.124 39 39 0 0 1 6.24-1.278 31.6 31.6 0 0 1 6.703.356 28 28 0 0 1 3.64.842 19.2 19.2 0 0 1 5.23 2.642 19 19 0 0 1 3.278 2.442 56 56 0 0 1 3.022 3.345c1.204 1.447 2.012 3.164 3.28 4.565a16.9 16.9 0 0 1 2.624 4.366 17.3 17.3 0 0 1 1.658 4.93c.059.444.195.877.295 1.315a17.5 17.5 0 0 0-2.785.616.87.87 0 0 1-.417-.593 15.7 15.7 0 0 0-1.067-2.679 1.9 1.9 0 0 1-.175-.67 1.33 1.33 0 0 1 .65-.792c.2-.149.184-.275-.033-.36a2.54 2.54 0 0 1-1.478-1.552c-.154-.406-.353-.109-.54-.052a.46.46 0 0 1-.41-.245 13 13 0 0 1-1.11-1.754 2.97 2.97 0 0 0-1.307-1.465 4.3 4.3 0 0 1-.934-.956 12 12 0 0 0-1.553-1.854.5.5 0 0 1-.174-.298c-.002-.254.178-.386.358-.508.222-.15.228-.287-.023-.387a2.59 2.59 0 0 1-1.47-1.556c-.037-.092-.08-.208-.194-.204s-.135.13-.18.217c-.143.27-.202.622-.611.641a9.5 9.5 0 0 1-1.665-1.03 17 17 0 0 0-4.23-1.836 35 35 0 0 0-3.489-.96 22.2 22.2 0 0 0-6.4-.358 23 23 0 0 0-5.712 1.327 31 31 0 0 0-6.205 2.96 28.8 28.8 0 0 0-5.53 4.806 26 26 0 0 0-2.69 3.185 33.4 33.4 0 0 0-3.142 5.54c-.814 2.001-1.813 3.926-2.468 5.993-.093.294-.055.648-.34.87-.765.667-1.682 1.117-2.46 1.775-1.23 1.038-2.447 2.084-3.6 3.208a17.7 17.7 0 0 0-2.572 2.812.415.415 0 0 1-.74.047c-.147-.178-.348-.232-.506-.368a29 29 0 0 1 1.377-5.452c.34-.947.525-1.939.905-2.877.429-1.057.871-2.107 1.307-3.159.544-1.312 1.267-2.522 1.91-3.775.903-1.76 1.928-3.46 2.946-5.16.99-1.65 2.211-3.139 3.346-4.688.45-.614 1.164-.952 1.502-1.619.36-.71 1.303-.865 1.528-1.68a9 9 0 0 0 2.116-1.813Z" style="fill:#f3e576"/><path d="M93.283 55.043c.26.965.85 1.797 1.13 2.744a11 11 0 0 1 .458 1.301 28 28 0 0 0-3.168 1.324c-.439-.173-.467-.623-.61-.97a16.6 16.6 0 0 0-1.858-3.382c-.378-.526-.638-1.133-1.012-1.67a6.5 6.5 0 0 0-1.018-1.364c-.596-.492-1.1-1.084-1.72-1.538a11 11 0 0 1-.892-.947 27 27 0 0 0-3.043-2.222 11.9 11.9 0 0 0-3.752-1.362 19 19 0 0 0-4.924-.567 16 16 0 0 0-2.798.246 32 32 0 0 0-3.513.857c-.691.202-1.314.57-1.998.8-1.501.505-2.65 1.62-4.005 2.38-.059.032.02.012-.041.027a3.14 3.14 0 0 0-1.254.868 23.4 23.4 0 0 0-2.37 2.377 13.6 13.6 0 0 1-1.439 1.874 4.3 4.3 0 0 0-.434.731 14.7 14.7 0 0 0-2.224 3.83c-.09.33-.687 1.334-.698 1.56-.015.298-.098.48-.384.559-.725.18-1.378-.29-2.114-.198a19 19 0 0 0-5.088 1.218c-.737.31-1.455.665-2.182.999a28.4 28.4 0 0 1 1.951-5.2 37.5 37.5 0 0 1 2.505-5.12 27 27 0 0 1 3.633-4.877 38 38 0 0 1 4.778-4.453 23.7 23.7 0 0 1 4.226-2.478 33 33 0 0 1 5.642-2.13 26 26 0 0 1 5.106-.668 18.7 18.7 0 0 1 5.322.61 31.3 31.3 0 0 1 4.887 1.549 22 22 0 0 1 3.91 2.248c-.047.36-.338.518-.591.7-.19.136-.401.242-.597.37-.253.165-.244.29.053.393a2.8 2.8 0 0 1 1.638 1.531c.06.128.075.347.252.331.162-.014.178-.227.224-.363a2.8 2.8 0 0 1 .616-.966.52.52 0 0 1 .468-.238 18 18 0 0 1 1.507 1.834 9.7 9.7 0 0 0 1.938 1.86 6.4 6.4 0 0 1 .952 1.577 6 6 0 0 0 1.064 1.355c.174.266-.036.442-.164.62a4.3 4.3 0 0 1-1.305 1.074c-.11.068-.272.122-.256.276.018.162.197.152.316.2a2.98 2.98 0 0 1 1.56 1.548c.056.113.07.298.23.289.155-.01.163-.194.207-.312a2.3 2.3 0 0 1 .54-.892c.094-.09.177-.21.339-.143" style="fill:#7bc078"/><path d="M102.908 59.792c.394.422.805.829 1.174 1.27.142.171.439 1.023.536 1.145a2.9 2.9 0 0 1 .236 1.22c-.036.366.213.648.175 1.007-.024.237.222.206.38.158.71-.217 1.417-.445 2.125-.668a7.8 7.8 0 0 1 2.741.042 4.79 4.79 0 0 1 3.091 2.636 8 8 0 0 1 .802 1.762 27 27 0 0 0 1.24 3.35 7.65 7.65 0 0 0 2.486 3.342c.232.178.51.396.459.706-.05.303-.404.255-.637.292a32 32 0 0 1-3.748.047c.129-.352.485-.217.723-.338.121-.062.353-.031.324-.22-.02-.128-.23-.103-.359-.104-1.105-.006-2.21-.058-3.314-.076-2.38-.038-4.754-.291-7.138-.204-2.592.096-5.188-.006-7.779.162a13 13 0 0 0-1.655-.001c-.647.123-.66.123-.437.688l-12.193.107c-.279-.017-.2-.228-.176-.37a10.7 10.7 0 0 1 .66-2.78 8.6 8.6 0 0 1 2.095-2.79 13.5 13.5 0 0 1 2.144-1.576 12.9 12.9 0 0 1 6.263-1.79 2 2 0 0 0 .934-.302 11.4 11.4 0 0 0 2.867-2.911 15.7 15.7 0 0 1 2.711-2.748 11.4 11.4 0 0 1 2.888-1.135.44.44 0 0 1 .382.08" style="fill:#bae2fe"/><path d="M51.716 62.499a16 16 0 0 0 .988-2.278 11 11 0 0 1 1.158-2.324c.99-1.387 2.015-2.75 3.008-4.134.13-.18 1.932-1.924 2.527-2.537.57-.587 1.322-.647 1.899-1.106a10.3 10.3 0 0 1 2.088-1.451 25.4 25.4 0 0 1 6.334-2.105 36 36 0 0 1 3.672-.359 17 17 0 0 1 2.498.239 22.4 22.4 0 0 1 4.224 1.005 12.2 12.2 0 0 1 3.006 1.777c1.319.85 2.236 2.136 3.456 3.069a12.5 12.5 0 0 1 2.52 3.197 29.8 29.8 0 0 1 2.609 4.92 8.7 8.7 0 0 0-3.016 2.825 4.4 4.4 0 0 1-.832-1.562 10 10 0 0 0-1.165-2.333 10 10 0 0 0-1.512-2.182 36 36 0 0 0-3.014-3.036c-.25-.18-.481-.442-.853-.254-.154.078-.253-.043-.325-.161a1.16 1.16 0 0 0-.772-.525 17 17 0 0 0-2.668-.717c-.033-.002-.078 0-.097-.02-.375-.413-.85-.182-1.282-.192a16.8 16.8 0 0 0-6.358.754 12.46 12.46 0 0 0-5.404 3.528c-.82.974-1.648 1.932-2.398 2.963a11.6 11.6 0 0 0-1.342 2.627c-.584 1.482-1.212 2.946-1.695 4.466-.168.527-.305 1.064-.491 1.585-.078.216-.095.466-.32.607-.343-.365-.41-.91-.803-1.242-.325-.504-.644-1.013-.98-1.51-.064-.096-.154-.168-.139-.297.178-.004.283-.093.145-.242a9.6 9.6 0 0 0-2.126-1.735c-.383-.226-.62-.592-1.045-.795a7.5 7.5 0 0 0-1.495-.465" style="fill:#7694cb"/><path d="M58.16 68.785c.353-1.128.653-2.275 1.073-3.377a48 48 0 0 1 1.936-4.71 15.7 15.7 0 0 1 2.972-4.035c.532-.528 1.048-1.072 1.58-1.602a12 12 0 0 1 3.156-1.805 12.5 12.5 0 0 1 4.965-1.13c.83-.073 1.695.119 2.501-.036a2.4 2.4 0 0 1 1.165.198 21.7 21.7 0 0 1 3.352 1.04c.143.056.642.239.733.29a9.5 9.5 0 0 1 2.657 2.368 16 16 0 0 1 1.672 1.874 16.4 16.4 0 0 1 2.141 4.108 6.7 6.7 0 0 0 .624 1.269 9 9 0 0 1-.861 1.266c-.401.418-.971.143-1.432.085a7.3 7.3 0 0 0-1.376-.007c-.897.056-1.077-.077-1.277-.965a10.1 10.1 0 0 0-2.08-4.009 7.7 7.7 0 0 0-2.904-2.43 6.2 6.2 0 0 0-3.638-.41c-.438.076-.855.222-1.28.291a5.63 5.63 0 0 0-3.282 2.011 23.4 23.4 0 0 0-3.626 5.596 17 17 0 0 0-.85 2.45 26.6 26.6 0 0 0-1.062 3.904c-.032.22-.433 2.397-.513 3.207a19 19 0 0 0-.308 2.292c-.046.261-.254.168-.4.167a7.8 7.8 0 0 0-3.86.745.385.385 0 0 1-.472-.007c-.193-.186-.103-.4-.01-.604a21 21 0 0 0-.207-4.353c-.128-1.323-.948-2.393-1.09-3.681" style="fill:#d58de3"/><path d="M102.908 59.792c-.424-.04-.765.221-1.152.32a7.1 7.1 0 0 0-3.652 2.356c-.778.884-1.452 1.857-2.303 2.682-.34.328-.594.721-.984 1.035a4.26 4.26 0 0 1-2.54.84 12 12 0 0 0-5.78 1.971 9.6 9.6 0 0 0-3.723 4.02 7.1 7.1 0 0 0-.634 3.099c-1.171-.017-2.347.024-3.51-.076a3.8 3.8 0 0 1-1.755-.252c-.122-.073-.341-.035-.357-.226-.015-.189.143-.28.305-.353a2.66 2.66 0 0 0 1.338-1.217c.303-.56.367-1.177.686-1.722a27 27 0 0 1 1.729-3.262c.425-.55.768-1.19 1.26-1.716a6.32 6.32 0 0 1 5.128-1.303 4.3 4.3 0 0 0 1.938.119c.462-.039.666-.248.787-.82a6 6 0 0 1 1.13-1.92 9.87 9.87 0 0 1 5.476-3.786c.793-.24 1.63-.333 2.445-.508.13-.028.335-.015.353-.2.005-.045-.211-.112-.326-.17a7.7 7.7 0 0 1 4.01.917ZM59.455 76.819c-.039.578.074.665.649.368a6.96 6.96 0 0 1 3.919-.617.5.5 0 0 0 .175-.052 10.7 10.7 0 0 1 2.994 1.08 9.9 9.9 0 0 1 3.017 2.384c.257.359.668.619.85 1.056a14.8 14.8 0 0 1-6.506 1.726 9.4 9.4 0 0 1-4.104-.94c-1.408-.636-1.668-1.908-1.505-3.506a2.23 2.23 0 0 1 .511-1.5" style="fill:#d5ecfe"/><path d="M37.001 97.047a2 2 0 0 1 .956-.543 22 22 0 0 1 3.105-.131c1.867-.079 3.747.075 5.608-.054 1.427-.099 2.842.079 4.269-.04 1.325-.11 2.67.034 4.006.04a28 28 0 0 1 2.91-.022c1.17.13 2.324-.135 3.493.03a19 19 0 0 0 2.107-.062c1.797.042 3.594.113 5.39.196a3 3 0 0 1 .84.24c.077.027.124.138.186.211-.087.071-.164.184-.261.206-.424.096-.854.165-1.281.244l-5.762.097c-1.683.03-3.37.134-5.049.068-1.647-.065-3.29.024-4.935-.024-2.36-.069-4.72-.004-7.081-.098-.78-.032-1.58.047-2.371.01-1.488-.068-2.98.009-4.467-.141-.559-.057-1.142.107-1.663-.227M94.333 76.008c-.111-.206-.575-.13-.458-.47.095-.278.386-.34.706-.342 1.738-.014 3.476-.066 5.214-.094 2.166-.036 4.333-.107 6.498-.077 1.846.026 3.692.26 5.536.236 1.068-.014 2.131.065 3.196.043.19-.004.415.037.458.212.057.228-.225.216-.351.262-.377.137-.775.22-1.164.323-2.086.134-4.172.014-6.258.004-1.688-.007-3.376-.092-5.064-.077-2.064.018-4.127.123-6.192.149-.706.009-1.414-.11-2.12-.17" style="fill:#2b3c59"/><path d="M96.919 44.564c-.566.408-.612 1.086-.863 1.658-.059.135.053.367-.216.374-.239.006-.342-.147-.428-.352q-.22-.53-.491-1.033a3.46 3.46 0 0 0-2.164-1.724c-.229-.067-.607-.05-.605-.34 0-.263.313-.407.566-.552a5.2 5.2 0 0 0 2.006-1.532 2.76 2.76 0 0 0 .597-1.134c.043-.179.103-.357.338-.373.235-.015.322.144.38.327a3.83 3.83 0 0 0 1.865 2.366c.26.138.548.178.81.345.39.25.194.319-.044.446a5.9 5.9 0 0 0-1.751 1.524" style="fill:#fefcfc"/><path d="M31.961 85.677a2.97 2.97 0 0 0 1.637-1.917.33.33 0 0 1 .319-.277c.214.005.3.172.366.356a2.11 2.11 0 0 0 .995 1.434c.214.372.652.368.967.574.262.172.285.273.002.456a3.6 3.6 0 0 0-1.988 2.553c-.013.105-.065.204-.184.203-.22-.002-.313-.168-.388-.341a3.43 3.43 0 0 0-1.323-1.773c-.228-.132-.485-.212-.725-.324-.17-.079-.463-.045-.455-.308.007-.228.22-.351.433-.436a2.5 2.5 0 0 0 .344-.2M46.172 95.219c-.2-.045-.248-.243-.313-.406a3.12 3.12 0 0 0-2.276-2.106c-.338-.076-.356-.29-.078-.477.318-.214.673-.373.99-.59a2.9 2.9 0 0 0 1.285-1.61c.048-.173.098-.384.323-.4.237-.015.3.208.351.37a2.91 2.91 0 0 0 1.953 1.995.4.4 0 0 1 .23.227c.032.136-.127.17-.223.233a3.74 3.74 0 0 0-1.964 2.524c-.03.193-.126.254-.278.24" style="fill:#fcfdfc"/><path d="m15.03 97.259-.04-.025.044.021Z" style="fill:#fefefe"/><path d="m49.391 41.77-.039-.022zM47.275 43.582l-.04-.022z" style="fill:#f3e576"/><path d="M46.04 75.558a2.4 2.4 0 0 1-.267.19 9 9 0 0 0-2.66 2.376 4.5 4.5 0 0 0-.572 1.581c-.051.16.062.388-.222.428a.46.46 0 0 1-.549-.323 8.6 8.6 0 0 0-1-1.89 4.06 4.06 0 0 0-2.427-1.604c-.267-.067-.62-.14-.594-.428.023-.252.298-.448.58-.598 1.448-.77 2.878-1.571 3.276-3.374.033-.147.102-.378.345-.369a.5.5 0 0 1 .478.293 7.2 7.2 0 0 0 1.329 2.252 11.6 11.6 0 0 0 2.05 1.203c.1.063.213.092.233.263" style="fill:#fdfefd"/><path d="m5.66 92.223.04.021-.038-.023Z" style="fill:#fefefe"/><path d="M93.283 55.043a2.32 2.32 0 0 0-.862 1.357c-.04.117.007.291-.202.28-.167-.007-.215-.144-.261-.268a2.69 2.69 0 0 0-1.937-1.85c-.083-.02-.216-.117-.211-.168.015-.178.165-.265.317-.346a3.5 3.5 0 0 0 1.632-1.427 1 1 0 0 0 .057-.238c.136-.124.084-.445.368-.4.21.033.24.265.299.429a2.24 2.24 0 0 0 1.448 1.471c.134.045.312.143.347.255.06.188-.184.186-.288.278q-.355.312-.707.627M86.355 45.757a2.72 2.72 0 0 0-1.088 1.573c-.034.117.013.293-.196.288-.169-.004-.22-.14-.265-.265a2.69 2.69 0 0 0-1.941-1.855c-.083-.02-.148-.113-.221-.172a1.4 1.4 0 0 1 .29-.32A3.95 3.95 0 0 0 84.293 44c.143-.242.298-.478.424-.728.073-.144.07-.36.285-.357.205.004.244.213.296.363a2.3 2.3 0 0 0 1.505 1.555.53.53 0 0 1 .324.272c.04.147-.175.16-.274.24-.169.134-.332.275-.498.413" style="fill:#fcfdfc"/><path d="M79.04 72.64c-.029.013-.055.037-.08.035-.023 0-.046-.027-.07-.042.026-.012.05-.036.075-.035s.048.025.074.041" style="fill:#fefefe"/></g></svg>