<svg xmlns="http://www.w3.org/2000/svg" width="90.232" height="247.527" viewBox="0 0 90.232 247.527"><g stroke-miterlimit="10" data-paper-data="{&quot;isPaintingLayer&quot;:true}" style="mix-blend-mode:normal"><path fill="#4c392b" d="M62.314 55.289c2.641.479 4.889.27 7.72 3.302 7.469 8 7.577 19.15 9.244 29.037.339 2.02 1.968 6.057 2.408 7.86-.017 2.201-.402 4.858-3.527 5.727-3.087.858-5.433-1.326-6.498-3.863-1.01-3.667-5.15-12.55-6.548-16.978" data-paper-data="{&quot;origPos&quot;:null,&quot;origRot&quot;:0}"/><path fill="#4c392b" d="M25.12 80.113c-1.4 4.427-5.538 13.31-6.549 16.978-1.064 2.537-3.41 4.721-6.497 3.863-3.125-.87-3.51-3.526-3.527-5.728.439-1.802 2.069-5.84 2.407-7.86C12.622 77.48 12.73 66.33 20.2 58.33c2.83-3.031 5.078-2.823 7.719-3.302" data-paper-data="{&quot;origPos&quot;:null,&quot;origRot&quot;:0,&quot;index&quot;:null}"/><path fill="#d7cbb5" d="M74.09 172.478c-.559 5.735-2.632 12.311-9.21 13.283-6.577.971-11.492-3.293-13.637-10.53-1.516-8.502-6.321-28.813-6.851-36.745-1.122-16.791-.853-34.03-.853-34.03s18.672-.48 18.816-.408c2.274 1.11 9.533 15.59 10.974 31.183 1.028 11.13 1.262 27.345.762 37.247" data-paper-data="{&quot;origPos&quot;:null,&quot;origRot&quot;:0,&quot;index&quot;:null}"/><path fill="#d7cbb5" d="M17.019 135.436c1.228-15.611 8.347-30.194 10.626-31.337.144-.074 19.274.14 19.274.14s.264 17.232-.626 34.037c-.42 7.94-4.99 28.9-6.396 37.423-2.062 7.267-6.967 11.018-13.62 10.14-6.654-.877-8.841-7.423-9.489-13.149-.648-9.893-.647-26.11.23-37.254" data-paper-data="{&quot;origPos&quot;:null,&quot;origRot&quot;:0,&quot;index&quot;:null}"/><g stroke-width="0" data-paper-data="{&quot;origPos&quot;:null}"><g data-paper-data="{&quot;origPos&quot;:null,&quot;origRot&quot;:0,&quot;index&quot;:null}"><path d="M35.242 45.245c1.036.006 1.867 1.492 1.856 3.318-.012 1.826-.86 3.301-1.897 3.295s-1.867-1.493-1.856-3.32c.011-1.825.86-3.3 1.897-3.293" data-paper-data="{&quot;origPos&quot;:null}"/><path d="M35.069 40.7c1.036.007 1.867 1.492 1.856 3.319s-.86 3.3-1.897 3.294c-1.036-.007-1.867-1.493-1.856-3.319.012-1.826.86-3.301 1.897-3.294" data-paper-data="{&quot;origPos&quot;:null}"/><path d="M34.896 36.155c1.036.007 1.867 1.493 1.856 3.319s-.86 3.3-1.897 3.294c-1.036-.007-1.867-1.493-1.856-3.319.012-1.826.86-3.3 1.897-3.294" data-paper-data="{&quot;origPos&quot;:null}"/><path d="M35.122 32.026c1.037.007 1.867 1.493 1.856 3.319s-.86 3.3-1.896 3.294c-1.037-.007-1.867-1.493-1.856-3.319s.86-3.3 1.896-3.294M35.48 50.479c1.036.007 1.867 1.492 1.856 3.319s-.86 3.3-1.896 3.294c-1.037-.007-1.868-1.493-1.856-3.319.01-1.826.86-3.3 1.896-3.294" data-paper-data="{&quot;origPos&quot;:null}"/><path d="M35.183 55.161c1.037.007 1.867 1.493 1.856 3.319s-.86 3.301-1.896 3.294c-1.037-.006-1.867-1.492-1.856-3.318s.86-3.301 1.896-3.295" data-paper-data="{&quot;origPos&quot;:null}"/><path d="M35.422 60.396c1.036.006 1.867 1.492 1.856 3.318-.012 1.826-.86 3.301-1.897 3.295s-1.867-1.493-1.856-3.32c.011-1.825.86-3.3 1.897-3.293" data-paper-data="{&quot;origPos&quot;:null}"/></g><g data-paper-data="{&quot;origPos&quot;:null,&quot;origRot&quot;:0,&quot;index&quot;:null}"><path d="M55.87 47.23c.012 1.827-.82 3.313-1.856 3.32s-1.885-1.469-1.896-3.295.82-3.312 1.856-3.318 1.885 1.468 1.896 3.294" data-paper-data="{&quot;origPos&quot;:null}"/><path d="M56.043 42.686c.011 1.826-.82 3.312-1.856 3.319s-1.885-1.468-1.896-3.294c-.012-1.827.82-3.312 1.856-3.32 1.036-.006 1.885 1.469 1.896 3.295" data-paper-data="{&quot;origPos&quot;:null}"/><path d="M56.216 38.141c.011 1.826-.82 3.312-1.856 3.32-1.036.006-1.885-1.47-1.896-3.295-.012-1.826.82-3.312 1.855-3.319 1.037-.007 1.886 1.468 1.897 3.294" data-paper-data="{&quot;origPos&quot;:null}"/><path d="M55.99 34.012c.011 1.826-.82 3.312-1.856 3.319s-1.885-1.468-1.897-3.294c-.011-1.826.82-3.312 1.856-3.319s1.885 1.468 1.897 3.294M55.632 52.465c.011 1.826-.82 3.312-1.856 3.319s-1.885-1.468-1.897-3.294c-.01-1.827.82-3.312 1.856-3.32 1.036-.006 1.886 1.469 1.897 3.295" data-paper-data="{&quot;origPos&quot;:null}"/><path d="M55.929 57.148c.011 1.826-.82 3.312-1.856 3.318s-1.885-1.468-1.897-3.294c-.011-1.826.82-3.312 1.856-3.319 1.036-.006 1.885 1.468 1.897 3.295" data-paper-data="{&quot;origPos&quot;:null}"/><path d="M55.69 62.382c.012 1.826-.82 3.312-1.856 3.319-1.036.006-1.885-1.469-1.896-3.295s.82-3.312 1.856-3.318 1.885 1.468 1.896 3.294" data-paper-data="{&quot;origPos&quot;:null}"/></g><g data-paper-data="{&quot;origPos&quot;:null,&quot;origRot&quot;:0,&quot;index&quot;:null}"><path d="M30.737 44.81c1.036.006 1.867 1.492 1.856 3.318-.012 1.826-.86 3.301-1.897 3.294s-1.867-1.492-1.856-3.319.86-3.3 1.897-3.294" data-paper-data="{&quot;origPos&quot;:null}"/><path d="M30.564 40.264c1.036.007 1.867 1.493 1.856 3.32-.012 1.825-.86 3.3-1.897 3.293s-1.867-1.492-1.856-3.318.86-3.301 1.897-3.295" data-paper-data="{&quot;origPos&quot;:null}"/><path d="M30.39 35.72c1.037.006 1.868 1.492 1.857 3.318s-.86 3.301-1.897 3.295-1.867-1.493-1.856-3.319c.012-1.826.86-3.301 1.897-3.294" data-paper-data="{&quot;origPos&quot;:null}"/><path d="M30.617 31.59c1.036.007 1.867 1.493 1.856 3.32s-.86 3.3-1.897 3.294c-1.036-.007-1.867-1.493-1.855-3.319.01-1.826.86-3.301 1.896-3.294M30.975 50.044c1.036.006 1.867 1.492 1.856 3.318s-.86 3.301-1.897 3.295-1.867-1.493-1.855-3.32c.01-1.825.86-3.3 1.896-3.294" data-paper-data="{&quot;origPos&quot;:null}"/><path d="M30.678 54.726c1.036.007 1.867 1.493 1.856 3.319s-.86 3.3-1.897 3.294c-1.036-.007-1.867-1.493-1.855-3.319.01-1.826.86-3.3 1.896-3.294" data-paper-data="{&quot;origPos&quot;:null}"/><path d="M30.917 59.96c1.036.007 1.867 1.493 1.856 3.319-.012 1.826-.86 3.301-1.897 3.294-1.036-.006-1.867-1.492-1.856-3.318s.86-3.301 1.897-3.295" data-paper-data="{&quot;origPos&quot;:null}"/></g><g data-paper-data="{&quot;origPos&quot;:null,&quot;origRot&quot;:0,&quot;index&quot;:null}"><path d="M59.824 44.773c.095 1.824-.667 3.348-1.702 3.405s-1.95-1.376-2.045-3.2c-.094-1.823.668-3.347 1.702-3.404 1.035-.057 1.95 1.376 2.045 3.2" data-paper-data="{&quot;origPos&quot;:null}"/><path d="M59.79 40.225c.094 1.824-.668 3.348-1.703 3.405-1.034.057-1.95-1.376-2.045-3.2-.094-1.823.668-3.347 1.703-3.404 1.034-.057 1.95 1.376 2.045 3.2" data-paper-data="{&quot;origPos&quot;:null}"/><path d="M59.755 35.677c.094 1.824-.668 3.348-1.703 3.405-1.034.057-1.95-1.376-2.045-3.2-.094-1.823.668-3.347 1.703-3.404 1.034-.057 1.95 1.376 2.045 3.2" data-paper-data="{&quot;origPos&quot;:null}"/><path d="M59.34 31.564c.095 1.823-.667 3.348-1.702 3.404s-1.95-1.375-2.045-3.199.667-3.348 1.702-3.404 1.95 1.375 2.045 3.199M59.825 50.013c.095 1.824-.667 3.348-1.702 3.405s-1.95-1.375-2.045-3.2c-.095-1.823.667-3.347 1.702-3.404s1.95 1.376 2.045 3.2" data-paper-data="{&quot;origPos&quot;:null}"/><path d="M60.336 54.676c.094 1.824-.668 3.348-1.703 3.405-1.034.057-1.95-1.376-2.045-3.2-.094-1.823.668-3.347 1.703-3.404 1.034-.056 1.95 1.376 2.045 3.2" data-paper-data="{&quot;origPos&quot;:null}"/><path d="M60.336 59.916c.095 1.824-.667 3.348-1.702 3.405s-1.95-1.375-2.045-3.199.668-3.348 1.703-3.405c1.034-.056 1.95 1.376 2.044 3.2" data-paper-data="{&quot;origPos&quot;:null}"/></g></g><g stroke-width="0" data-paper-data="{&quot;origPos&quot;:null}"><g data-paper-data="{&quot;origPos&quot;:null}"><path fill="#4c392b" d="M57.41 53.755c-4.464 8.46-19.756 8.827-26.024.464 2.596-.994 6.23-2.44 6.23-2.44l.602-8.442 12.28-.193.727 8.1s5.545 2.174 6.186 2.511" data-paper-data="{&quot;origPos&quot;:null}"/><path d="M38.305 43.192 50.585 43l.656 8.012c-3.33.042-10.948-.29-13.382-2.352z" data-paper-data="{&quot;origPos&quot;:null}"/></g><path fill="#4c392b" d="M44.556 48.539c-9.94.086-14.81-8.07-16.448-16.717-2.534-.98-4.043-5.99-3.097-7.768 1.045-2.167 2.42-.325 2.384-.857-.263-7.937 2.553-19.72 18.373-19.886 12.916.543 15.043 13.83 14.94 19.619 0 0 1.19-1.038 2.427-.005 1.322 2.16-.894 7.248-3.138 8.129-1.136 9.222-5.144 17.518-15.44 17.485" data-paper-data="{&quot;origPos&quot;:null}"/></g><path fill="#00ad75" d="M24.384 55.266s4.492-1.266 9.019-2.26c2.585 6.298 18.953 6.645 21.923-.096 1.36.323 8.016 1.765 10.244 2.268 1.003.221-.18 47.495-.18 47.495s-7.34 6.277-19.805 6.354c-11.753.072-20.208-5.358-20.208-5.358z" data-paper-data="{&quot;origPos&quot;:null,&quot;origRot&quot;:0}"/><path fill="none" stroke="#000" stroke-linecap="round" stroke-width="2" d="M32.162 19.074c2.617-1.417 6.146-.924 8.158.574" data-paper-data="{&quot;origPos&quot;:null,&quot;origRot&quot;:0}"/><path fill="none" stroke="#000" stroke-linecap="round" stroke-width="2" d="M48.76 19.593c2.013-1.499 5.541-1.992 8.159-.574" data-paper-data="{&quot;origPos&quot;:null,&quot;origRot&quot;:0,&quot;index&quot;:null}"/><g fill="none" stroke="#000" stroke-linecap="round" stroke-width="1.5" data-paper-data="{&quot;origPos&quot;:null}"><path d="M41.698 32.194s1.738-.425 2.103.46M45.9 32.689c.23-.868 1.717-.642 1.717-.642" data-paper-data="{&quot;origPos&quot;:null}"/></g><g data-paper-data="{&quot;origPos&quot;:null}"><path fill="#fff" d="M35.2 26.865c-2.358-.348-3.97-2.142-3.66-3.35.308-1.206 2.42-1.37 4.777-1.02 2.357.348 4.067 1.705 3.758 2.912-.309 1.208-2.519 1.807-4.876 1.458" data-paper-data="{&quot;origPos&quot;:null,&quot;origRot&quot;:0}"/><path d="M34.842 25.103c-.115-1.66.873-2.391 2.414-2.354 3.11.529 4.052 3.379.959 4.09-1.708.388-3.26.19-3.373-1.736" data-paper-data="{&quot;origPos&quot;:null,&quot;origRot&quot;:0}"/><path fill="none" stroke="#000" stroke-linecap="round" stroke-width="1.5" d="M31.552 23.044c2.722-1.039 6.49-.374 8.377 1.05" data-paper-data="{&quot;origPos&quot;:null,&quot;origRot&quot;:0}"/></g><g data-paper-data="{&quot;origPos&quot;:null}"><path fill="#fff" d="M53.854 26.693c-2.323.497-4.536.005-4.942-1.099s1.149-2.4 3.473-2.896c2.324-.497 4.698-.376 5.104.727s-1.31 2.772-3.635 3.268" data-paper-data="{&quot;origPos&quot;:null,&quot;origRot&quot;:0}"/><path d="M54.588 22.256c3.175-.112 3.965 1.934 1.578 3.555-1.32.89-2.82.936-3.525-.675-1.085-2.483.429-2.78 1.947-2.88" data-paper-data="{&quot;origPos&quot;:null,&quot;origRot&quot;:0}"/><path fill="none" stroke="#000" stroke-linecap="round" stroke-width="1.5" d="M48.711 24.31c2.125-1.812 6.03-2.172 8.378-1.448" data-paper-data="{&quot;origPos&quot;:null,&quot;origRot&quot;:0}"/></g><g stroke-width="0" data-paper-data="{&quot;origPos&quot;:null}"><g data-paper-data="{&quot;origPos&quot;:null}"><path d="M34.508 5.132c.8.661.57 2.358-.515 3.79s-2.61 2.057-3.41 1.396-.57-2.358.515-3.79 2.61-2.057 3.41-1.396" data-paper-data="{&quot;origPos&quot;:null,&quot;origRot&quot;:0}"/><path d="M39.098 3.114c.507.924-.312 2.41-1.829 3.316-1.516.907-3.156.893-3.663-.032-.506-.924.313-2.409 1.83-3.316 1.516-.907 3.155-.893 3.662.032" data-paper-data="{&quot;origPos&quot;:null,&quot;origRot&quot;:0}"/><path d="M43.773 2.733c.19 1.047-1.048 2.17-2.765 2.51s-3.263-.235-3.452-1.282c-.19-1.046 1.048-2.17 2.765-2.51 1.717-.338 3.263.235 3.452 1.282" data-paper-data="{&quot;origPos&quot;:null,&quot;origRot&quot;:0}"/><path d="M46.223 4.258c-.176.765-1.335 1.142-2.59.841-1.253-.3-2.128-1.164-1.952-1.929s1.335-1.141 2.589-.84c1.254.3 2.128 1.163 1.953 1.928M30.974 7.993c.938.417 1.145 2.117.462 3.798-.683 1.68-1.998 2.705-2.936 2.288-.938-.416-1.145-2.117-.462-3.797s1.998-2.705 2.936-2.289M26.337 40.39c1.016.079 1.736 1.619 1.608 3.44s-1.057 3.234-2.073 3.156c-1.017-.079-1.737-1.619-1.609-3.44s1.057-3.234 2.074-3.156" data-paper-data="{&quot;origPos&quot;:null,&quot;origRot&quot;:0}"/><path d="M26.459 35.844c1.016.079 1.737 1.619 1.608 3.44-.128 1.821-1.056 3.234-2.073 3.155-1.017-.078-1.737-1.618-1.608-3.44.128-1.82 1.056-3.233 2.073-3.155" data-paper-data="{&quot;origPos&quot;:null,&quot;origRot&quot;:0}"/><path d="M26.581 31.298c1.017.078 1.737 1.618 1.608 3.44-.128 1.82-1.056 3.233-2.073 3.155s-1.736-1.619-1.608-3.44 1.057-3.234 2.073-3.155" data-paper-data="{&quot;origPos&quot;:null,&quot;origRot&quot;:0}"/><path d="M27.069 27.194c1.016.078 1.736 1.618 1.608 3.44-.128 1.82-1.057 3.233-2.073 3.155s-1.737-1.619-1.608-3.44c.128-1.821 1.056-3.234 2.073-3.155" data-paper-data="{&quot;origPos&quot;:null,&quot;origRot&quot;:0}"/><path d="M27.047 22.507c1.017.079 1.737 1.619 1.608 3.44-.128 1.821-1.056 3.234-2.073 3.155-1.016-.078-1.736-1.618-1.608-3.44.128-1.82 1.057-3.233 2.073-3.155" data-paper-data="{&quot;origPos&quot;:null,&quot;origRot&quot;:0}"/><path d="M27.687 17.123c1.017.079 1.737 1.619 1.608 3.44-.128 1.821-1.056 3.234-2.073 3.155-1.017-.078-1.737-1.618-1.608-3.44.128-1.82 1.056-3.234 2.073-3.155" data-paper-data="{&quot;origPos&quot;:null,&quot;origRot&quot;:0}"/><path d="M28.854 11.961c1.001.2 1.547 1.816 1.22 3.61s-1.404 3.086-2.406 2.886c-1-.2-1.547-1.816-1.22-3.61s1.405-3.085 2.406-2.886M26.234 45.63c1.017.078 1.737 1.618 1.609 3.44-.129 1.82-1.057 3.233-2.073 3.155s-1.737-1.62-1.609-3.44c.129-1.821 1.057-3.234 2.073-3.156" data-paper-data="{&quot;origPos&quot;:null,&quot;origRot&quot;:0}"/><path d="M25.642 50.28c1.017.08 1.737 1.62 1.608 3.44-.128 1.822-1.056 3.234-2.073 3.156-1.016-.079-1.736-1.619-1.608-3.44s1.057-3.234 2.073-3.155" data-paper-data="{&quot;origPos&quot;:null,&quot;origRot&quot;:0}"/><path d="M25.54 55.52c1.016.078 1.737 1.618 1.608 3.44-.128 1.82-1.056 3.233-2.073 3.155s-1.737-1.619-1.608-3.44c.128-1.821 1.056-3.234 2.073-3.155" data-paper-data="{&quot;origPos&quot;:null,&quot;origRot&quot;:0}"/><path d="M25.563 60.553c1.017.079 1.737 1.619 1.608 3.44-.128 1.821-1.056 3.234-2.073 3.155-1.016-.078-1.737-1.618-1.608-3.44.128-1.82 1.056-3.233 2.073-3.155" data-paper-data="{&quot;origPos&quot;:null,&quot;origRot&quot;:0}"/></g><g data-paper-data="{&quot;origPos&quot;:null}"><path d="M47.17 2.2c1.23-.302 2.367.076 2.54.845.171.77-.686 1.637-1.916 1.94-1.23.301-2.366-.077-2.538-.846-.172-.77.685-1.637 1.915-1.94" data-paper-data="{&quot;origPos&quot;:null,&quot;origRot&quot;:0,&quot;index&quot;:null}"/><path d="M56.897 6.234c1.1 1.435 1.341 3.14.537 3.808s-2.348.047-3.448-1.387c-1.101-1.435-1.342-3.14-.538-3.808.804-.669 2.348-.047 3.449 1.387" data-paper-data="{&quot;origPos&quot;:null,&quot;origRot&quot;:0}"/><path d="M52.503 2.79c1.535.905 2.368 2.394 1.861 3.326s-2.162.954-3.697.049c-1.534-.905-2.368-2.394-1.86-3.325.506-.932 2.161-.954 3.696-.05" data-paper-data="{&quot;origPos&quot;:null,&quot;origRot&quot;:0}"/><path d="M63.966 43.418c.138 1.83-.582 3.382-1.607 3.465-1.026.084-1.97-1.332-2.107-3.162s.581-3.382 1.607-3.466 1.969 1.332 2.107 3.163" data-paper-data="{&quot;origPos&quot;:null}"/><path d="M63.821 38.848c.138 1.83-.581 3.382-1.607 3.465-1.026.084-1.969-1.332-2.107-3.162s.582-3.382 1.607-3.466c1.026-.084 1.97 1.332 2.107 3.163" data-paper-data="{&quot;origPos&quot;:null}"/><path d="M63.677 34.277c.138 1.83-.582 3.382-1.607 3.466-1.026.084-1.97-1.332-2.107-3.162s.581-3.382 1.607-3.466 1.97 1.332 2.107 3.162" data-paper-data="{&quot;origPos&quot;:null}"/><path d="M63.166 30.154c.138 1.83-.582 3.382-1.607 3.466-1.026.083-1.97-1.333-2.107-3.163s.581-3.382 1.607-3.466c1.026-.083 1.97 1.332 2.107 3.163" data-paper-data="{&quot;origPos&quot;:null}"/><path d="M63.166 25.442c.138 1.83-.582 3.382-1.607 3.466-1.026.084-1.97-1.332-2.107-3.163s.581-3.382 1.607-3.466c1.026-.083 1.97 1.333 2.107 3.163" data-paper-data="{&quot;origPos&quot;:null}"/><path d="M62.495 20.032c.138 1.83-.581 3.382-1.607 3.466s-1.969-1.332-2.107-3.163.582-3.382 1.607-3.465c1.026-.084 1.97 1.332 2.107 3.162" data-paper-data="{&quot;origPos&quot;:null}"/><path d="M61.628 14.576c.339 1.802-.205 3.43-1.215 3.635s-2.103-1.088-2.441-2.89c-.339-1.802.205-3.43 1.215-3.635 1.01-.206 2.103 1.088 2.441 2.89" data-paper-data="{&quot;origPos&quot;:null,&quot;origRot&quot;:0}"/><path d="M60.002 9.993c.698 1.687.497 3.397-.448 3.82s-2.277-.6-2.974-2.286c-.697-1.687-.496-3.397.449-3.82s2.276.6 2.973 2.286" data-paper-data="{&quot;origPos&quot;:null,&quot;origRot&quot;:0}"/><path d="M64.093 48.684c.138 1.83-.581 3.382-1.607 3.466s-1.97-1.332-2.107-3.162.582-3.382 1.607-3.466c1.026-.084 1.97 1.332 2.107 3.162" data-paper-data="{&quot;origPos&quot;:null}"/><path d="M62.606 50.195c1.025-.084 1.969 1.332 2.107 3.162s-.582 3.382-1.608 3.466c-1.025.084-1.969-1.332-2.107-3.162s.582-3.382 1.608-3.466" data-paper-data="{&quot;origPos&quot;:null}"/><path d="M64.84 58.624c.138 1.83-.582 3.382-1.607 3.466-1.026.084-1.97-1.332-2.107-3.163s.581-3.382 1.607-3.465c1.026-.084 1.969 1.332 2.107 3.162" data-paper-data="{&quot;origPos&quot;:null}"/><path d="M64.84 63.685c.138 1.83-.582 3.382-1.607 3.466-1.026.083-1.97-1.332-2.107-3.163s.581-3.382 1.607-3.466c1.026-.083 1.969 1.332 2.107 3.163" data-paper-data="{&quot;origPos&quot;:null}"/></g><g data-paper-data="{&quot;origPos&quot;:null,&quot;origRot&quot;:0}"><path d="M36.762 1.53c.45.73-.157 2.031-1.355 2.906-1.199.875-2.535.993-2.985.263s.157-2.032 1.356-2.907C34.976.917 36.312.8 36.762 1.53" data-paper-data="{&quot;origPos&quot;:null,&quot;origRot&quot;:0}"/><path d="M40.814 1.065c.157.868-.85 1.852-2.25 2.198s-2.66-.077-2.818-.945.85-1.851 2.25-2.197 2.66.077 2.818.944" data-paper-data="{&quot;origPos&quot;:null,&quot;origRot&quot;:0}"/><path d="M44.518 1.933c-.119.886-1.358 1.475-2.769 1.316-1.41-.159-2.458-1.006-2.34-1.892S40.767-.118 42.178.041c1.41.16 2.458 1.006 2.34 1.892" data-paper-data="{&quot;origPos&quot;:null,&quot;origRot&quot;:0}"/><path d="M45.57 3.74c-.33.568-1.32.578-2.211.023-.892-.555-1.348-1.466-1.02-2.035.33-.568 1.319-.579 2.21-.024.893.556 1.349 1.467 1.02 2.035M33.312 2.935c.618.569.348 1.983-.604 3.157-.952 1.175-2.225 1.666-2.844 1.096s-.348-1.982.604-3.157 2.225-1.665 2.844-1.096M24.032 28.927c.868.184 1.307 1.55.98 3.05s-1.297 2.566-2.165 2.382c-.87-.184-1.308-1.55-.98-3.05.326-1.5 1.296-2.567 2.165-2.382" data-paper-data="{&quot;origPos&quot;:null,&quot;origRot&quot;:0}"/><path d="M24.677 25.159c.87.184 1.308 1.55.98 3.05-.326 1.5-1.296 2.566-2.165 2.382-.868-.184-1.307-1.55-.98-3.05s1.297-2.566 2.165-2.382" data-paper-data="{&quot;origPos&quot;:null,&quot;origRot&quot;:0}"/><path d="M25.323 21.391c.869.184 1.308 1.55.98 3.05-.327 1.5-1.296 2.566-2.165 2.382s-1.308-1.55-.98-3.05c.327-1.5 1.296-2.566 2.165-2.382" data-paper-data="{&quot;origPos&quot;:null,&quot;origRot&quot;:0}"/><path d="M26.232 18.034c.869.184 1.308 1.55.98 3.05-.327 1.5-1.297 2.566-2.165 2.382s-1.308-1.55-.98-3.05c.327-1.5 1.296-2.566 2.165-2.382" data-paper-data="{&quot;origPos&quot;:null,&quot;origRot&quot;:0}"/><path d="M26.77 14.133c.869.184 1.308 1.55.98 3.05-.327 1.5-1.296 2.566-2.165 2.382-.869-.185-1.308-1.55-.98-3.05.327-1.5 1.296-2.567 2.165-2.382" data-paper-data="{&quot;origPos&quot;:null,&quot;origRot&quot;:0}"/><path d="M27.962 9.728c.87.184 1.308 1.55.98 3.05-.326 1.5-1.296 2.567-2.165 2.382-.868-.184-1.307-1.55-.98-3.05s1.297-2.566 2.165-2.382" data-paper-data="{&quot;origPos&quot;:null,&quot;origRot&quot;:0}"/><path d="M29.862 5.857c.841.283 1.121 1.692.625 3.146-.495 1.454-1.58 2.403-2.42 2.12-.842-.284-1.121-1.693-.626-3.146.496-1.454 1.58-2.403 2.421-2.12M23.247 32.621c.88.122 1.417 1.453 1.2 2.972-.216 1.52-1.105 2.652-1.985 2.53-.88-.121-1.418-1.452-1.2-2.971.216-1.52 1.105-2.653 1.985-2.53M21.22 49.657c.887.043 1.545 1.32 1.469 2.853-.077 1.532-.858 2.74-1.745 2.698s-1.545-1.32-1.47-2.853c.077-1.532.858-2.74 1.746-2.698" data-paper-data="{&quot;origPos&quot;:null,&quot;origRot&quot;:0}"/><path d="M22.463 36.487c.88.122 1.418 1.453 1.201 2.972-.217 1.52-1.106 2.652-1.985 2.53-.88-.121-1.418-1.452-1.201-2.971s1.105-2.653 1.985-2.53M20.795 53.578c.887.042 1.545 1.32 1.469 2.852-.077 1.533-.858 2.74-1.745 2.698s-1.545-1.32-1.47-2.853c.077-1.532.858-2.74 1.746-2.697" data-paper-data="{&quot;origPos&quot;:null,&quot;origRot&quot;:0}"/><path d="M22.072 40.873c.88.122 1.418 1.452 1.201 2.972s-1.106 2.652-1.986 2.53-1.417-1.452-1.2-2.972c.216-1.52 1.105-2.652 1.985-2.53M20.808 57.98c.888.043 1.545 1.32 1.47 2.853-.077 1.532-.858 2.74-1.746 2.697-.887-.042-1.545-1.32-1.469-2.852.076-1.533.858-2.74 1.745-2.698" data-paper-data="{&quot;origPos&quot;:null,&quot;origRot&quot;:0}"/><path d="M21.802 45.093c.88.122 1.418 1.453 1.2 2.972-.216 1.52-1.105 2.653-1.985 2.53-.88-.121-1.417-1.452-1.2-2.971.216-1.52 1.105-2.653 1.985-2.53" data-paper-data="{&quot;origPos&quot;:null,&quot;origRot&quot;:0}"/></g><g data-paper-data="{&quot;origPos&quot;:null,&quot;index&quot;:null,&quot;origRot&quot;:0}"><path d="M51.57 1.758c.41-.736 1.668-.64 2.812.213s1.74 2.14 1.33 2.876c-.408.736-1.667.64-2.81-.213s-1.74-2.14-1.331-2.876" data-paper-data="{&quot;origPos&quot;:null,&quot;origRot&quot;:0}"/><path d="M50.383.372c1.323.322 2.29 1.287 2.158 2.155-.13.868-1.31 1.31-2.632.988S47.62 2.228 47.751 1.36s1.31-1.31 2.632-.988" data-paper-data="{&quot;origPos&quot;:null,&quot;origRot&quot;:0}"/><path d="M44.285 2.287c-.128-.882.84-1.744 2.164-1.926s2.5.386 2.629 1.268c.128.881-.84 1.744-2.164 1.925s-2.5-.385-2.629-1.267" data-paper-data="{&quot;origPos&quot;:null,&quot;origRot&quot;:0}"/><path d="M43.331 4.105c-.32-.561.092-1.478.92-2.046.827-.569 1.758-.574 2.078-.012s-.09 1.478-.919 2.046c-.828.569-1.758.574-2.079.012M57.538 4.15c.918 1.156 1.2 2.561.629 3.14-.571.577-1.778.108-2.696-1.048s-1.2-2.561-.629-3.14c.571-.577 1.778-.109 2.696 1.048M64.073 28.878c.813-.198 1.745.85 2.082 2.341s-.05 2.86-.863 3.058-1.745-.85-2.082-2.34c-.337-1.492.05-2.861.863-3.059" data-paper-data="{&quot;origPos&quot;:null,&quot;origRot&quot;:0}"/><path d="M63.392 25.13c.814-.198 1.746.85 2.083 2.341s-.05 2.86-.863 3.058-1.746-.85-2.083-2.34c-.336-1.492.05-2.86.863-3.059" data-paper-data="{&quot;origPos&quot;:null,&quot;origRot&quot;:0}"/><path d="M64.795 23.723c.336 1.491-.05 2.86-.863 3.058-.814.198-1.746-.85-2.083-2.34-.337-1.492.05-2.86.863-3.059.813-.198 1.746.85 2.083 2.341" data-paper-data="{&quot;origPos&quot;:null,&quot;origRot&quot;:0}"/><path d="M63.875 20.39c.337 1.49-.05 2.86-.863 3.058s-1.745-.85-2.082-2.342c-.337-1.49.05-2.86.863-3.058s1.745.85 2.082 2.341" data-paper-data="{&quot;origPos&quot;:null,&quot;origRot&quot;:0}"/><path d="M63.293 16.507c.337 1.49-.05 2.86-.863 3.058s-1.745-.85-2.082-2.341.05-2.86.863-3.059c.813-.198 1.746.85 2.082 2.342" data-paper-data="{&quot;origPos&quot;:null,&quot;origRot&quot;:0}"/><path d="M60.004 9.792c.814-.198 1.746.85 2.083 2.34.337 1.492-.05 2.861-.863 3.059s-1.746-.85-2.083-2.341c-.336-1.491.05-2.86.863-3.058" data-paper-data="{&quot;origPos&quot;:null,&quot;origRot&quot;:0}"/><path d="M58.143 5.961c.785-.296 1.823.633 2.317 2.075s.259 2.851-.527 3.148c-.785.296-1.823-.633-2.317-2.075s-.259-2.852.527-3.148M64.882 32.55c.826-.136 1.684.98 1.917 2.492s-.247 2.848-1.072 2.984-1.683-.98-1.916-2.491.246-2.849 1.071-2.985M67.119 49.511c.834-.057 1.592 1.135 1.693 2.663s-.492 2.812-1.326 2.87c-.834.056-1.592-1.136-1.693-2.663-.102-1.528.492-2.813 1.326-2.87" data-paper-data="{&quot;origPos&quot;:null,&quot;origRot&quot;:0}"/><path d="M65.694 36.394c.825-.136 1.683.98 1.916 2.492.234 1.512-.246 2.848-1.071 2.984s-1.683-.98-1.917-2.492.247-2.848 1.072-2.984M67.595 53.415c.833-.057 1.591 1.135 1.693 2.662.101 1.528-.493 2.812-1.326 2.87-.834.057-1.592-1.135-1.694-2.663s.493-2.812 1.327-2.87" data-paper-data="{&quot;origPos&quot;:null,&quot;origRot&quot;:0}"/><path d="M66.147 40.762c.825-.136 1.683.98 1.916 2.492s-.246 2.848-1.072 2.984c-.825.136-1.683-.98-1.916-2.491s.247-2.849 1.072-2.985M67.667 57.807c.834-.057 1.592 1.135 1.693 2.662.102 1.528-.492 2.812-1.326 2.87-.834.057-1.592-1.135-1.693-2.663s.492-2.812 1.326-2.87" data-paper-data="{&quot;origPos&quot;:null,&quot;origRot&quot;:0}"/><path d="M68.399 47.46c.233 1.512-.247 2.848-1.072 2.984s-1.683-.98-1.916-2.492.247-2.848 1.072-2.984 1.683.98 1.916 2.492" data-paper-data="{&quot;origPos&quot;:null,&quot;origRot&quot;:0}"/></g></g><g fill="none" stroke="#00ad75" stroke-width="1.5" data-paper-data="{&quot;origPos&quot;:null}"><path d="M30.757 28.045c-1.505-1.26-1.735-3.955-1.735-5.776 0-2.213 11.237-2.1 12.814-.538.689.682.731 4.34-.868 6.055-1.6 1.715-8.876 1.378-10.211.26z" data-paper-data="{&quot;origPos&quot;:null}"/><path d="M60.243 22.457c0 1.821-.23 4.515-1.735 5.776-1.335 1.119-8.922 1.093-10.41-.503-1.6-1.715-1.52-4.769-.892-5.922 1.011-1.854 13.037-1.564 13.037.649z" data-paper-data="{&quot;origPos&quot;:null,&quot;index&quot;:null}"/><path stroke-linecap="round" d="M42.198 21.989s1.486-.598 2.488-.564 2.211.725 2.211.725" data-paper-data="{&quot;origPos&quot;:null}"/></g><path fill="#241b15" d="M42.728 36.867c.754.087 1.46.395 2.019.88a3.73 3.73 0 0 1 2.025-.88 11.2 11.2 0 0 1 3.03.88s-.173 2.735-2.191 3.616c-1.614.654-3.355.74-4.97.087-1.264-.585-2.233-1.679-2.95-2.822 0 0 2.025-1.761 3.037-1.761" data-paper-data="{&quot;origPos&quot;:null}"/><path fill="none" stroke="#000" stroke-linecap="round" stroke-width="1.5" d="M50.14 37.743c-2.884 1.49-7.68 1.964-10.86.154" data-paper-data="{&quot;origPos&quot;:null,&quot;origRot&quot;:0,&quot;index&quot;:null}"/><g stroke-linecap="round" data-paper-data="{&quot;origPos&quot;:null,&quot;origRot&quot;:0,&quot;index&quot;:null}"><path fill="#fff" d="M36.365 236.539c2.945 2.2 11.99 1.17 7.998 6.524-2.729 3.659-7.51 2.93-12.162 2.284-3.93-.545-4.292-4.613-8.26-4.642-4.208-.032-8.195.57-10.593-2.16-.853-.97 3.012-10.324 3.012-10.324s4.243 2.038 6.455 2.093c2.735.068 7.045-1.281 7.045-1.281s3.56 5.305 6.505 7.506" data-paper-data="{&quot;origPos&quot;:null}"/><path fill="#a5a5a5" d="M14.769 241.906c-2.01-1.06-1.91-1.789-1.577-3.527 3.035 1.896 2.466 2.393 10.56 1.856 2.898.289 4.533 3.432 8.154 4.584 9.624 1.96 12.125-1.72 13.495-3.18-.032 1.127-.31 2.3-.813 2.973-2.728 3.66-7.374 3.083-12.025 2.438-6.622-1.577-5.176-4.376-9.144-4.406-4.209-.032-5.898.716-8.65-.738" data-paper-data="{&quot;origPos&quot;:null}"/><path fill="none" stroke="#000" stroke-width="1.5" d="m35.86 236.218-2.36 2.094M31.638 236.213l2.238-2.101M29.66 233.982l2.355-1.97" data-paper-data="{&quot;origPos&quot;:null}"/></g><path fill="#d7cbb5" d="M16.377 178.343c1.08-11.885 7.175-14.689 13.855-14.128s10.194 6.743 9.154 15.884c-.499 11.459-5.957 49.513-5.957 49.513s-6.088 2.521-9.714 2.192c-3.789-.344-9.223-3.051-9.224-3.052s.9-40.573 1.886-50.409" data-paper-data="{&quot;origPos&quot;:null,&quot;origRot&quot;:0,&quot;index&quot;:null}"/><g stroke-linecap="round" data-paper-data="{&quot;origPos&quot;:null,&quot;origRot&quot;:0}"><path fill="#fff" d="M79.246 236.208c3.016 2.102 12.022.775 8.208 6.257-2.606 3.747-7.41 3.175-12.08 2.683-3.945-.416-4.44-4.47-8.407-4.369-4.208.107-8.172.84-10.66-1.808-.883-.942 2.671-10.419 2.671-10.419s3.647 1.695 7.45 1.798c1.268.034 6.07-1.43 6.07-1.43s3.732 5.185 6.748 7.288" data-paper-data="{&quot;origPos&quot;:null,&quot;index&quot;:null}"/><path fill="#a5a5a5" d="M56.146 238.809c3.096 1.795 2.544 2.31 10.617 1.507 2.905.194 4.642 3.281 8.299 4.313 9.684 1.643 12.062-2.117 13.383-3.622.005 1.128-.234 2.309-.714 3-2.607 3.746-7.269 3.323-11.94 2.831-6.67-1.358-5.316-4.204-9.283-4.103-4.207.107-5.871.91-8.67-.453-2.042-.994-1.968-1.725-1.692-3.473" data-paper-data="{&quot;origPos&quot;:null,&quot;index&quot;:null}"/><path fill="none" stroke="#000" stroke-width="1.5" d="m76.44 238.074 2.292-2.17M76.679 233.864l-2.168 2.173M74.75 231.827l-2.289 2.046" data-paper-data="{&quot;origPos&quot;:null,&quot;index&quot;:null}"/></g><path fill="#d7cbb5" d="M75.689 228.133c-.002 0-5.854 3.748-9.69 4.014-3.672.254-8.621-2.368-8.621-2.368s-5.64-38.17-5.923-49.637c-.874-9.161 2.502-15.282 9.265-15.705s12.87 2.505 13.73 14.41c.807 9.854 1.239 49.286 1.239 49.286" data-paper-data="{&quot;origPos&quot;:null,&quot;origRot&quot;:0,&quot;index&quot;:null}"/><path fill="#4c392b" d="M88.99 126.602s1.155 3.122 1.234 4.384c-.034.404.248 3.593-.87 3.424-.994-.04-.644-1.37-.925-2.515-.275-1.12-.995-3.371-.995-3.371s.487 2.717.563 4.334c-.153 1.605.303 4.818-1.094 4.664-1.17-.366-.727-3.026-.857-3.626-.296-1.366-.509-3.584-1-3.756.2 1.381.385 3.094.422 4.481.031 1.163-.083 3.619-.638 4.642-.442.814-1.354.937-1.651.059-.232-.512.127-3.177.08-3.737-.142-1.68-.17-3.495-.713-4.391.094 1.5.13 3.512-.062 5.688-.18 2.028-.867 4.947-1.658 4.682-2.122-.31-.386-3.479-.58-5.958-.22-2.779-.68-3.468-1.515-6.084-.48 1.39.164 3.149-.753 4.455-1.196 1.353-1.768.084-1.771-.46-.004-1.916-.93-5.315-.4-7.172.446-1.92 1.064-4.394 1.679-6.464-.204-2.135-4.588-14.64-5.43-21.876-.006-.05.45-4.687 3.84-5.345 3.376-.91 5.737 2.327 6.067 3.618 2.614 5.908 2.616 22.047 2.616 22.047zM5.653 118.064s.002-16.14 2.616-22.047c.33-1.292 2.69-4.529 6.067-3.618 3.39.658 3.846 5.294 3.84 5.345-.842 7.236-5.226 19.741-5.43 21.876.615 2.07 1.233 4.543 1.679 6.464.53 1.857-.396 5.256-.4 7.172-.003.544-.575 1.813-1.77.46-.918-1.307-.274-3.065-.753-4.455-.836 2.616-1.297 3.305-1.515 6.084-.194 2.48 1.541 5.647-.58 5.958-.792.265-1.479-2.654-1.658-4.682a38.5 38.5 0 0 1-.063-5.688c-.543.896-.571 2.71-.713 4.39-.047.56.312 3.226.08 3.738-.297.878-1.208.755-1.65-.06-.556-1.022-.67-3.478-.639-4.641.037-1.387.223-3.1.422-4.48-.491.17-.704 2.389-1 3.755-.13.6.314 3.26-.857 3.626-1.396.154-.94-3.06-1.094-4.664.077-1.618.564-4.334.564-4.334s-.72 2.251-.995 3.371c-.282 1.146.069 2.476-.926 2.514-1.117.17-.835-3.02-.87-3.423.08-1.263 1.234-4.384 1.234-4.384z" data-paper-data="{&quot;origPos&quot;:null,&quot;origRot&quot;:0,&quot;index&quot;:null}"/></g></svg>