<svg xmlns="http://www.w3.org/2000/svg" xml:space="preserve" width="158.255" height="291.598" viewBox="8.266 4.5 158.255 291.598"><title>wizard-c</title><g fill-rule="nonzero"><path fill="#a95947" d="M132 135.6s-.3.1-.6.3-.8.5-1.1 1c-.2.2-.2.6-.2.9 0 .2.1.3.2.4l.2.2c.2.1.3.2.4.2s.2.1.2.1l-.1-.1-.3-.3c-.1-.1-.2-.3-.2-.5 0-.1 0-.2.1-.2 0-.1.1-.2.2-.2.1-.2.3-.3.4-.4.2-.1.3-.3.5-.3.3-.2.5-.3.5-.3z"/><path fill="#c5886b" d="m151.5 137.7-4.2.2-3.1-12.3s.6 0 1.6-.1c1.3-.2 3.9-.6 5.9-1.6 1.8-.8 3.3-.2 2.6 1.4.1 0 8.6-2.9 11-2.6 1.1.2 2.4 3-8.2 4.9 0 0 2 .9.7 3.2 0 0 1.2 1.9.1 3.8 0 0 .5 1.3-1.9 3-1.4 1-3.7 1.9-4.5.1"/><path fill="#c5886b" d="M151.8 126.8c-7.3 3.5-5.7.7-5.8-.5 0-.3.1-.5.3-.8 1.4-.2 3.7-.6 5.5-1.5 1.8-.8 3.3-.2 2.6 1.4-.6.6-1.5.8-2.6 1.4"/><path fill="#a95947" d="M154.5 124.7c0 .4-.3.8-.6 1-.3.3-.7.5-1.1.6-.4.2-.8.4-1.2.5-.4.2-.8.3-1.2.4l-.2.1v.2c-.2.8-.4 1.6-.8 2.4-.3.8-.7 1.5-1.4 2.1.4-.2.7-.5 1-.8s.5-.7.7-1.1c.4-.8.7-1.6 1-2.4l-.2.2c.8-.3 1.7-.6 2.5-1 .2-.1.4-.3.6-.4s.3-.3.5-.5c.1-.2.3-.4.4-.6.1-.3.1-.5 0-.7M155.6 127.9s.7 0 1.9-.1c1.1-.1 2.6-.3 4-.7s2.8-1.1 3.7-1.9c.4-.4.6-.9.7-1.2s0-.5.1-.5c0 0 0 .2-.2.5q-.15.45-.9.9c-.9.6-2.2 1.2-3.6 1.6s-2.8.7-3.9 1c-1 .2-1.8.4-1.8.4"/><path fill="#c5886b" d="M153.9 135.9c-1.6 0-2.6-.7-2.5-1.2.1-1.3 2.6-1.4 3.9-1.7s1.2-1 1.2-1c-2.6 1.2-4.7.1-4.8-.2-.2-.8-.4-1.8 3.7-2.6.7-.1.9-1.3 1.8-1.5.3-.1 1.9 1 .6 3.2 0 0 1.2 1.9.1 3.8 0 0 .5 1.3-1.9 3-1.3.9-3.5 1.8-4.4.2v-.6c.2-1.1 1.6-1.4 2.3-1.4"/><path fill="#a95947" d="M155.9 129.6s-.9-.1-2.1.1c-.3 0-.7.1-1 .2-.4.1-.7.3-1.1.6-.2.1-.4.3-.4.6-.1.3 0 .6.1.8.3.5.8.6 1.2.8.4.1.9.2 1.3.2h.6c.2 0 .4-.1.6-.1.4-.1.8-.2 1.1-.4l.9-.6c.5-.5.7-1 .9-1.3.1-.4.1-.6.1-.6s-.1.2-.3.5-.5.7-1 1.1c-.2.2-.5.3-.8.5-.3.1-.7.2-1 .3-.2 0-.4.1-.6.1h-.6c-.4 0-.8-.1-1.2-.2s-.7-.3-.9-.5-.1-.4.2-.7c.5-.5 1.3-.7 1.8-.9.6-.2 1.1-.3 1.5-.4.5-.1.7-.1.7-.1M158.4 132.9s0 .2-.1.6-.3.9-.8 1.4c-.2.2-.5.4-.9.5-.3.1-.7.1-1.2.2-.9 0-1.8 0-2.6-.1-.4-.1-.9-.2-1-.4s-.1-.6.2-.8c.2-.2.7-.4 1-.5.4-.1.7-.2 1.1-.3.7-.1 1.2-.2 1.6-.3.3-.2.6-.2.6-.2s-.9-.1-2.3 0c-.4 0-.7.1-1.1.2s-.8.2-1.3.5l-.3.3c-.1.2-.1.3-.2.4-.1.3-.1.6.1.9.4.6 1 .6 1.4.7 1 .1 1.9.1 2.8.1.4 0 .9-.1 1.3-.3.4-.1.7-.4 1-.7.5-.6.6-1.2.7-1.6z"/><path fill="#224363" d="M99.2 130.3c1.4-4.6 3.3-7.6 8.6-8.4 5.3-.7 11.7 1.8 16.5 2.8 4.9 1.1 20.4-1.4 20.4-1.4 8.1 7.9-.2 25.3-.2 25.3s-21.1-1.1-39.8-7.2c-4.8-1.6-7.1-6.2-5.5-11.1"/><path fill="#1a324a" d="M107.4 122h.9c.5 0 1.3.1 2.2.1.9.1 2 .2 3.1.5 1.1.2 2.3.5 3.5.8s2.4.7 3.5 1c.5.2 1.1.4 1.6.5.5.2 1 .4 1.4.5.9.3 1.6.6 2.1.8s.8.3.8.3-.3-.2-.7-.4c-.5-.3-1.1-.7-2-1.1-.8-.4-1.8-.9-2.9-1.3s-2.3-.8-3.5-1.1-2.5-.6-3.6-.7c-1.2-.2-2.3-.2-3.2-.3-.9 0-1.7 0-2.3.1zM129 125.1c2.6 0 5.3-.2 7.9-.4 1.3-.1 2.6-.3 3.9-.5l3.9-.6-.3-.1c.4.4.8.9 1.2 1.4.3.5.7 1 .9 1.6.3.5.5 1.1.7 1.7s.3 1.2.5 1.8l.3 1.8c.1.6.1 1.2 0 1.9 0 .6-.1 1.2-.1 1.9 0 .3-.1.6-.1.9l-.1.9c.2-.6.3-1.2.5-1.8.1-.6.2-1.2.3-1.9.1-.6.1-1.3 0-1.9 0-.6-.1-1.3-.2-1.9l-.2-.9-.3-.9c-.2-.6-.4-1.2-.7-1.8s-.6-1.1-.9-1.7l-1.2-1.5-.1-.1h-.2l-3.9.6-3.9.6c-2.7.3-5.3.6-7.9.9M109.8 142.8s.5.2 1.4.5 2.2.8 3.8 1.2 3.5.9 5.5 1.3 4.2.8 6.4 1.1 4.4.6 6.4.8c2.1.2 4 .4 5.6.5s3 .2 4 .2 1.5.1 1.5.1-2.2-.3-5.5-.6c-1.6-.2-3.5-.4-5.6-.7-2-.3-4.2-.5-6.4-.9-2.2-.3-4.3-.7-6.4-1-2-.4-3.9-.7-5.5-1.1s-2.9-.7-3.9-1c-.8-.2-1.3-.4-1.3-.4"/><path fill="#224363" d="M99.9 138c-5.7-4.5-22-39.6-19.7-45.5 2.5-6.4 11.5-9.5 18.1-1.2 5.1 6.5 9.9 20.6 12.1 25.7 2.2 5 1.8 3.6 4.3 6.8 2.5 3.1 2 4 1.9 5.3s-2.3 4.5-6.7 7.2c-4.3 2.7-6.9 4.1-10 1.7"/><path fill="#1a324a" d="M103.9 139.1s-.1.1-.3.1q-.3.15-.9 0c-.2 0-.4-.1-.7-.2-.2-.1-.5-.2-.7-.4q-.75-.45-1.5-1.2c-.5-.5-1.1-1-1.6-1.7q-.75-.9-1.5-2.1c-.5-.7-1-1.5-1.5-2.3s-1-1.6-1.4-2.5c-.5-.8-.9-1.7-1.4-2.5-.4-.8-.9-1.7-1.3-2.5s-.8-1.6-1.1-2.3c-.4-.7-.7-1.4-1-2.1-1.2-2.6-2-4.3-2-4.3s.7 1.8 1.7 4.5l.9 2.1c.3.8.7 1.6 1 2.4.4.8.8 1.6 1.2 2.5s.9 1.7 1.3 2.5c.5.8.9 1.7 1.5 2.5.5.8 1 1.6 1.6 2.3.5.7 1.1 1.4 1.6 2s1.1 1.2 1.7 1.7c.6.4 1.1.9 1.7 1.1.3.2.5.2.8.3.2.1.5.1.7.1.4.1.8 0 1-.1.1.2.2.1.2.1M107.2 109.1s.5 1.5 1.3 3.8c.9 2.2 2 5.2 3.6 8.1.2.4.4.7.7 1 .2.3.6.7.9.9.6.5 1 1.1 1.4 1.7.8 1.2 1.3 2.5 1.4 3.7s-.3 2.1-.7 2.7-.7.8-.7.8l.2-.2c.1-.1.4-.3.6-.6s.5-.6.7-1.1.3-1 .3-1.7c0-1.3-.5-2.7-1.3-4-.4-.6-.9-1.3-1.5-1.8-.3-.3-.6-.5-.8-.8s-.4-.6-.6-1q-1.2-2.1-2.1-4.2c-.6-1.3-1.2-2.6-1.7-3.7-1-2.2-1.7-3.6-1.7-3.6"/><path fill="#382a1e" d="M63.4 281.2s5.2 5.5 8.2 6.9 4.7 5.9 1.2 7.1c-4 1.3-22-.5-25.5-6.6-3.5-6.2 7.3-14.9 16.1-7.4"/><path fill="#4d3a29" d="M63.4 279.4s4.3 5.5 7.3 6.9 6.1 6.3 2 7.1c-4.1.7-22-.5-25.5-6.6s7.3-14.9 16.2-7.4"/><path fill="#382a1e" d="M67.7 284.6s-.1-.1-.2-.1-.4-.1-.6 0c-.5.1-1.1.5-1.6 1s-.8 1-1.1 1.5c-.2.4-.3.8-.3.8s.3-.2.6-.5c.4-.3.8-.8 1.2-1.2.2-.2.4-.4.7-.6.2-.2.4-.4.6-.5.3-.4.7-.4.7-.4M65.6 282.6s-.1-.1-.2-.1-.4-.1-.6 0c-.5.1-1.1.5-1.6 1s-.8 1-1.1 1.5c-.2.4-.3.8-.3.8s.3-.2.6-.5c.4-.3.8-.8 1.2-1.2.2-.2.4-.4.7-.6.2-.2.4-.4.6-.5.4-.5.7-.4.7-.4M89.7 278s5.2 5.5 8.2 6.9 4.7 5.9 1.2 7.1c-4 1.3-22-.5-25.5-6.6s7.3-14.8 16.1-7.4"/><path fill="#4d3a29" d="M89.7 276.2s4.3 5.5 7.3 6.9 6.1 6.3 2 7.1c-4.1.7-22-.5-25.5-6.6-3.4-6.2 7.3-14.8 16.2-7.4"/><path fill="#382a1e" d="M94 281.5s-.1-.1-.2-.1-.4-.1-.6 0c-.5.1-1.1.5-1.6 1s-.8 1-1.1 1.5c-.2.4-.3.8-.3.8s.3-.2.6-.5c.4-.3.8-.8 1.2-1.2.2-.2.4-.4.7-.6.2-.2.4-.4.6-.5.4-.5.7-.4.7-.4M92 279.4s-.1-.1-.2-.1-.4-.1-.6 0c-.5.1-1.1.5-1.6 1s-.8 1-1.1 1.5c-.2.4-.3.8-.3.8s.3-.2.6-.5c.4-.3.8-.8 1.2-1.2.2-.2.4-.4.7-.6.2-.2.4-.4.6-.5.3-.4.7-.4.7-.4M86.7 279.1s-6 2.8-13.6.9l-.9-22.7 16 2.6z"/><path fill="#1c3752" d="m67.4 286.3 2.1-11.2 15.7-3.6.4 14.2 10-2.1 5.6-7.9-8.6-15.6-22.9 1.7L57.2 277z"/><path fill="#264a6e" d="M95.8 145.6s5.7 8.8 6.2 34.3 4.9 88.3 11.3 97.6c0 0-2.5 12.7-25.5 9.3-9.3-1.4 15.5-5.2 8.3-10s-35.9 3.7-30.4 7.3c5.5 3.7-3 6.9-18.7 4.8s-18 2.2-26.1.8c-16.2-2.8-11.5-10.5-11.5-10.5s11.8-10.8 13.4-30.4S38.4 151.3 48.3 145c11.2-7.2 35.6-13.1 47.5.6"/><path fill="#1a324a" d="M97.2 278.3s-.3-1.2-.7-3.4c-.5-2.1-1-5.2-1.8-8.9-.7-3.7-1.5-8-2.2-12.6-.8-4.6-1.5-9.6-2.2-14.5-.3-2.5-.7-5-.9-7.4-.3-2.4-.6-4.8-.8-7.2-.2-2.3-.5-4.6-.6-6.7s-.3-4.2-.4-6c-.1-1.9-.2-3.6-.2-5.1-.1-1.5 0-2.8-.1-3.9v-3.4s0 1.3-.1 3.4c0 1.1-.1 2.4-.1 3.9s.1 3.2.1 5.1.2 3.9.3 6.1.3 4.4.5 6.7.5 4.7.7 7.2.6 4.9.9 7.4c.7 5 1.5 9.9 2.3 14.5s1.7 8.9 2.4 12.6c.8 3.7 1.5 6.7 2 8.8.6 2.1.9 3.4.9 3.4M64.9 282.8s.4-2.8.8-6.9c.2-2.1.5-4.5.7-7.1s.4-5.4.6-8.2.3-5.6.4-8.2.1-5 .1-7.1v-2.9c0-.8 0-1.6-.1-2.2-.1-1.2-.1-1.9-.1-1.9v4.1c0 .8-.1 1.8-.1 2.8-.1 2.1-.2 4.5-.3 7.1s-.3 5.4-.5 8.2-.3 5.6-.5 8.2-.3 5-.5 7.1zM50.2 153.8l-.3.3c-.2.2-.5.6-.8 1-.3.5-.6 1.1-1 1.8-.2.4-.3.7-.5 1.1s-.3.8-.5 1.3c-.4.9-.7 1.9-1 3s-.7 2.2-1 3.4l-.9 3.6c-.3 1.2-.6 2.5-.8 3.8-.5 2.5-.9 5.1-1.2 7.5-.2 1.2-.3 2.4-.5 3.5-.1 1.1-.3 2.1-.4 3.1-.4 3.8-.6 6.4-.6 6.4s.4-2.5.9-6.4c.3-1.9.6-4.1 1-6.5.2-1.2.4-2.4.6-3.7.2-1.2.5-2.5.7-3.8s.5-2.5.7-3.8c.2-1.2.6-2.4.8-3.6.3-1.2.6-2.3.9-3.4q.45-1.65.9-3c.3-.9.6-1.7.9-2.5q.45-1.05.9-1.8c.3-.5.5-.9.7-1.1.4-.1.5-.2.5-.2M78.7 153.8s.4.4.9 1.2 1.2 2 1.9 3.6c.4.8.7 1.6 1 2.5s.6 1.9.9 2.9.6 2 .8 3.1c.1.5.2 1.1.4 1.6l.3 1.6c.2 1.1.4 2.2.5 3.3.1.5.2 1.1.2 1.6.1.5.1 1.1.2 1.6l.3 3c.1 1 .1 1.9.2 2.7.1 1.7.1 3.1.2 4.1 0 1 .1 1.5.1 1.5v-1.5c0-1 .1-2.4 0-4.1 0-.8-.1-1.8-.1-2.7 0-1-.1-2-.2-3 0-.5-.1-1.1-.1-1.6-.1-.5-.1-1.1-.2-1.6-.1-1.1-.3-2.2-.5-3.3l-.3-1.7c-.1-.5-.3-1.1-.4-1.6-.2-1.1-.6-2.1-.9-3.1s-.7-2-1-2.9c-.4-.9-.7-1.7-1.1-2.5s-.8-1.4-1.1-2c-.4-.6-.7-1.1-1-1.5s-.6-.7-.7-.9z"/><path fill="#4d3a29" d="M97.5 145.2s2.7 2.7.2 4c-6.1 3.1-15.9 4.2-28.5 4.3-12.6 0-27.1-1.1-24.7-8.2.7-2 1.8 2.4 6.5 3.2 4.8.8 29.4 2.5 37.8-.4 8.4-3 7.1-3.6 8.7-2.9"/><path fill="#33221b" d="M44.5 145.2s-.2.4-.3 1.2c0 .4 0 .9.1 1.5s.4 1.2.9 1.7 1.2.9 1.9 1.2 1.5.7 2.3.9c1.6.5 3.4 1 5.2 1.2 1.8.3 3.6.4 5.3.5s3.3.1 4.7.1 2.5 0 3.3-.1c.8 0 1.2-.1 1.2-.1s-1.8-.1-4.5-.2c-1.4-.1-2.9-.2-4.6-.3s-3.5-.3-5.3-.6-3.5-.6-5.2-1.1c-.8-.3-1.6-.5-2.3-.8s-1.4-.6-1.9-1c-1-.9-1.2-2.1-1.2-2.9.3-.8.4-1.2.4-1.2M98.4 146.4s.2.2.3.7c0 .2 0 .5-.1.8s-.3.6-.6.8c-.3.3-.6.5-1.1.7-.4.2-.8.4-1.3.5-1 .3-2 .6-3.1.9-1 .3-2.1.5-3.1.7q-1.5.3-2.7.6c-1.6.3-2.7.6-2.7.6s1.1 0 2.7-.2c.8-.1 1.8-.2 2.8-.4s2.1-.4 3.1-.7c1.1-.3 2.1-.6 3.1-1 .5-.2 1-.4 1.4-.6s.8-.5 1.1-.8.5-.7.6-1c.1-.4 0-.7-.1-.9s-.2-.4-.3-.5c.1-.2 0-.2 0-.2"/><path fill="#264a6e" d="M58.5 79.9s-11.6 4.4-15.5 16-1.1 45.6 2.1 50.2c5 7.3 26.4 7.8 38.3 3 0 0 5.5 1.4 13-1.2s6.6-43.2-.6-54-26-17.8-37.3-14"/><path fill="#1a324a" d="m88.9 144.8-.6.6c-.2.2-.4.4-.7.6s-.6.5-1 .8-.8.6-1.2.8c-.4.3-.9.5-1.4.8s-1.1.5-1.6.8c-.6.2-1.1.5-1.7.7s-1.2.4-1.7.6c-.6.2-1.2.3-1.7.5-.6.1-1.1.2-1.6.4-.5.1-1 .2-1.5.2-.9.2-1.7.2-2.2.3s-.9.1-.9.1h.9c.5 0 1.3 0 2.3-.1.5 0 1-.1 1.5-.1.5-.1 1.1-.2 1.7-.3s1.2-.3 1.8-.4 1.2-.4 1.8-.6 1.2-.5 1.7-.7c.6-.3 1.1-.5 1.6-.8 1-.6 1.9-1.3 2.6-1.9s1.2-1.2 1.6-1.6c.1-.5.3-.7.3-.7M92.3 140.5s-.7.4-1.6 1c-1 .6-2.2 1.5-3.5 2.3s-2.6 1.6-3.6 2.1c-.3.1-.5.3-.7.3-.2.1-.4.2-.6.2-.3.1-.5.1-.5.1h.5c.2 0 .4-.1.6-.1s.5-.1.8-.2c1.1-.4 2.5-1.1 3.8-2 1.3-.8 2.5-1.8 3.4-2.5.9-.6 1.4-1.2 1.4-1.2M55.9 81.7s-1.7.5-3.9 1.9c-.6.4-1.1.8-1.7 1.3s-1.2 1-1.8 1.6l-.9.9c-.3.3-.5.7-.8 1-.6.7-1 1.4-1.5 2.2-.4.8-.9 1.6-1.3 2.3-.3.8-.7 1.6-1 2.4s-.5 1.6-.7 2.3-.3 1.4-.4 2.1l-.3 1.8c0 .5-.1 1-.1 1.4-.1.8-.1 1.2-.1 1.2s.1-.4.2-1.2c.1-.4.1-.8.2-1.4.1-.5.2-1.1.4-1.7s.3-1.3.5-2 .5-1.4.8-2.2c.3-.7.7-1.5 1-2.3.4-.7.8-1.5 1.3-2.3.5-.7.9-1.5 1.5-2.1.3-.3.5-.7.8-1s.6-.6.8-.9c.5-.6 1.1-1.1 1.7-1.6s1.1-.9 1.6-1.3c2.1-1.8 3.7-2.4 3.7-2.4M55 151.3s-.2-.1-.7-.2c-.4-.1-1-.3-1.8-.5-.4-.1-.8-.2-1.1-.4-.4-.2-.8-.3-1.2-.6-.4-.2-.8-.4-1.3-.7-.4-.3-.8-.5-1.2-.8s-.8-.6-1.1-1c-.3-.3-.7-.7-.9-1.1-.1-.2-.3-.4-.4-.5l-.3-.6c-.2-.4-.4-.7-.5-1.1s-.3-.7-.4-1-.1-.6-.2-.8c-.1-.4-.2-.7-.2-.7s0 .3.1.7c0 .2 0 .5.1.8s.2.7.3 1c.1.4.3.8.5 1.2l.3.6c.1.2.3.4.4.6.3.4.6.8 1 1.2.3.4.8.7 1.2 1.1.4.3.9.6 1.3.8.5.2.9.5 1.4.7.4.2.9.4 1.3.5l1.2.3c1.2.5 2.2.5 2.2.5M100.2 140.8s-.2.9-.7 2.3c-.2.7-.6 1.4-1 2.2-.2.4-.5.7-.7 1.1-.3.4-.6.6-1 .9-.7.5-1.6.9-2.4 1.2s-1.6.5-2.3.6-1.3.2-1.7.2-.7.1-.7.1.2 0 .7.1c.4 0 1 .1 1.7 0 .4 0 .8-.1 1.2-.1.4-.1.8-.1 1.3-.3.9-.2 1.8-.6 2.6-1.2.4-.3.8-.7 1.1-1.1s.5-.8.8-1.2c.4-.8.7-1.6.9-2.3s.3-1.3.3-1.7c-.1-.6-.1-.8-.1-.8"/><path fill="#724a96" d="M52.1 83.8s16.8 2.7 5 62.9c0 0 10.4 2.5 14.7-.7 0 0 1-44.2-4.6-57.4-2.5-5.9-4.1-6.3-7.6-8.2 0 0-6.6.9-7.5 3.4"/><path fill="#3b2656" d="M66.9 147.5c-1.6 0-3.3-.1-4.9-.2-1.6-.2-3.3-.3-4.8-.8l.1.3c1-3.4 1.7-6.9 2.2-10.4.3-1.7.5-3.5.7-5.2.2-1.8.4-3.5.5-5.3s.3-3.5.3-5.3c.1-1.8.1-3.5.1-5.3V110c0-.9-.1-1.8-.1-2.6l-.1-2.6v5.2c-.1 1.8 0 3.5-.1 5.3l-.1 2.6-.2 2.6c-.1 1.8-.2 3.5-.4 5.3s-.3 3.5-.6 5.2c-.2 1.7-.4 3.5-.7 5.2s-.6 3.5-.9 5.2-.7 3.5-1.1 5.1l-.1.2.2.1c.8.2 1.6.4 2.4.5s1.6.1 2.5.2c1.8.1 3.4.1 5.1 0M62.6 84.4s.3.5.8 1.5c.2.5.5 1.1.8 1.8s.5 1.5.8 2.4.6 1.9.9 2.9c.3 1.1.5 2.2.8 3.3.3 1.2.5 2.4.8 3.6s.4 2.5.6 3.7.4 2.5.6 3.7.3 2.5.5 3.6c.1 1.2.3 2.3.4 3.4s.2 2.1.3 3.1c.4 3.8.6 6.3.6 6.3V122c0-.6 0-1.2-.1-2 0-.8 0-1.6-.1-2.6-.2-1.9-.2-4.1-.5-6.5-.1-1.2-.2-2.4-.4-3.6s-.3-2.5-.5-3.8c-.2-1.2-.4-2.5-.7-3.7s-.5-2.4-.8-3.6q-.45-1.8-.9-3.3c-.3-1-.6-2-1-2.9-.3-.9-.6-1.7-1-2.4q-.45-1.05-.9-1.8c-.6-.9-1-1.4-1-1.4"/><path fill="#e6af50" d="M60.7 142.4c3 0 5.5-2.4 5.5-5.5 0-1.3-.4-2.4-1.2-3.4 2.3.6 4 2.8 4 5.3 0 3-2.4 5.5-5.5 5.5-1.7 0-3.3-.8-4.3-2.1.5.1 1 .2 1.5.2"/><path fill="#724a96" d="M84.8 83.1s5.6 24.2 1.9 62.5c0 0 10.4 2.5 14.7-.7 0 0-1.7-43.9-7-57.2-1.7-4.3-1.8-4.3-3.4-5.7 0 0-5.3-1.4-6.2 1.1"/><path fill="#3b2656" d="M96.5 146.5c-1.6 0-3.3-.1-4.9-.2-1.6-.2-3.3-.3-4.8-.8l.1.2c.5-3.5.7-7 .9-10.5.1-1.8.1-3.5.1-5.3v-5.2c0-1.8-.1-3.5-.2-5.2s-.2-3.5-.3-5.2-.3-3.5-.5-5.2l-.6-5.2.3 5.2.3 5.2q.3 5.25.3 10.5v5.2c0 1.7 0 3.5-.1 5.2s-.1 3.5-.2 5.2-.2 3.5-.4 5.2v.2h.2c.8.2 1.6.4 2.4.5s1.6.1 2.5.2c1.7.1 3.3 0 4.9 0M92.2 83.4s.3.5.8 1.5c.2.5.5 1.1.8 1.8s.5 1.5.8 2.4.6 1.9.9 2.9c.3 1.1.5 2.2.8 3.3.3 1.2.5 2.4.8 3.6s.4 2.5.6 3.7.4 2.5.6 3.7.3 2.5.5 3.6c.1 1.2.3 2.3.4 3.4s.2 2.1.3 3.1c.4 3.8.6 6.3.6 6.3V121c0-.6 0-1.2-.1-2 0-.8 0-1.6-.1-2.6-.2-1.9-.2-4.1-.5-6.5-.1-1.2-.2-2.4-.4-3.6s-.3-2.5-.5-3.8c-.2-1.2-.4-2.5-.7-3.7s-.5-2.4-.8-3.6q-.45-1.8-.9-3.3c-.3-1-.6-2-1-2.9-.3-.9-.6-1.7-1-2.4q-.45-1.05-.9-1.8c-.6-.9-1-1.4-1-1.4"/><path fill="#e6af50" d="M91.9 138.8c-1.3-1.1-2.3-2-2.3-2 .9-.4 2.1-.5 3.4-.6.9-1.9 1.7-3.4 1.7-3.4.4.8 1 2.1 1.4 3.5 1.6.1 2.9.3 2.9.3-.2.7-.9 1.6-1.9 2.5.7 2.1 1.2 3.9 1.2 3.9-.6 0-2.1-.9-3.6-2-2.2 1.5-4.2 2.1-4.2 2.1.2-1.2.6-2.5 1.4-4.3"/><path fill="#c5886b" d="M50.7 159.9s3.7 7.5 4.4 9.3 1 2.8-1.1 3.3c0 0 0 2.2-2.6 1.9 0 0-1.3 1.9-3.4 1.6 0 0-1.7 1.8-4.2.3-1.4-.8-2.4-3.4-1.1-4.8l-1.9-3.7"/><path fill="#c5886b" d="M51 160.8s1.9 3.5 4.2 5.4c1.7 1.5 1.6 3.5-1.2 2.7"/><path fill="#a95947" d="M41.4 169.3s.1.4.3 1 .5 1.3.9 2 .9 1.4 1.3 1.8c.2.2.4.4.6.5s.3.1.3.1l-.2-.2c-.1-.1-.2-.4-.4-.6-.3-.5-.7-1.2-1.1-1.9s-.8-1.4-1.2-1.9c-.3-.5-.5-.8-.5-.8M48 173.7s-.1.2-.1.6c-.1.3-.1.7-.2 1.1 0 .2-.1.4-.2.5-.1.2-.1.3-.2.4s-.2.2-.2.3l-.1.1s.2 0 .6-.2c.2-.1.3-.2.5-.4.1-.2.2-.4.3-.7.1-.5.1-.9 0-1.3-.3-.2-.4-.4-.4-.4M51.3 172.3s0 .2-.1.6c0 .3-.1.7-.2 1.1s-.2.7-.4 1c-.1.1-.1.3-.2.3l-.1.1s.3 0 .6-.2c.2-.1.3-.3.4-.5s.2-.4.3-.7c.1-.5 0-1-.1-1.3zM53.8 170.6s-.1.2-.1.6v2.3c0 .1 0 .3-.1.4 0 .1-.1.1-.1.1s.1 0 .2-.1q.15 0 .3-.3c.2-.3.3-.8.3-1.2 0-.5-.1-.9-.2-1.2z"/><path fill="#a95947" d="M43.7 173.2s-.1 0-.3.2c-.1.1-.3.3-.3.5q-.15.3 0 .6c.1.2.2.3.2.3l.2-.2c.1-.1.2-.3.3-.5s.1-.4.1-.6c-.2-.2-.2-.3-.2-.3M55.5 170.9s.1-.5 0-1.2-.3-1.6-.7-2.4-.8-1.6-1.3-2.2c-.4-.6-.7-.9-.7-.9s0 .1.1.3.2.5.3.8c.3.6.6 1.4 1 2.3.4.8.7 1.6.9 2.3.2.6.4 1 .4 1"/><path fill="#264a6e" d="M27.7 121.2c4.7-1.1 8.2-1 11.5 3.2s4.4 11 5.9 15.6c1.6 4.8 11.5 16.9 11.5 16.9-2.7 11-22 12.6-22 12.6s-9.6-18.8-13.8-38c-.9-4.8 1.9-9.1 6.9-10.3"/><path fill="#1a324a" d="M39 124.2s.2.3.4.7c.3.5.6 1.2 1 2s.8 1.8 1.2 2.9.8 2.3 1.1 3.5.6 2.4.9 3.5c.1.6.2 1.1.3 1.6s.2 1 .2 1.5c.2.9.3 1.7.3 2.2.1.5.1.8.1.8v-.9c0-.5 0-1.3-.1-2.3-.1-.9-.2-2-.4-3.2s-.5-2.4-.8-3.6c-.4-1.2-.8-2.4-1.2-3.5s-.9-2.1-1.4-2.9-.9-1.5-1.2-1.9c-.1-.2-.4-.4-.4-.4M47.2 144.4c1.3 2.3 2.8 4.4 4.4 6.6.8 1.1 1.6 2.1 2.4 3.1s1.6 2.1 2.5 3.1l-.1-.3c-.1.6-.4 1.1-.6 1.7-.3.6-.6 1.1-.9 1.6s-.7 1-1.1 1.5-.8.9-1.3 1.3-.9.8-1.5 1.1c-.5.4-1 .7-1.6 1-.5.3-1.1.6-1.7.8l-.9.3-.9.3c.6-.2 1.2-.3 1.8-.5s1.2-.4 1.8-.7 1.1-.6 1.7-.9 1-.7 1.6-1.1l.7-.6c.2-.2.4-.5.7-.7l1.2-1.5c.4-.5.7-1.1 1-1.7s.5-1.2.7-1.8v-.1l-.1-.1c-.8-1-1.7-2-2.5-3l-2.4-3.1c-1.7-2.1-3.3-4.2-4.9-6.3M22.2 136.7s.1.5.2 1.5c.2.9.5 2.3.9 3.9s1 3.5 1.6 5.4c.7 2 1.4 4 2.2 6.1.8 2 1.7 4.1 2.5 6s1.7 3.6 2.4 5.1 1.4 2.7 1.8 3.6c.5.9.7 1.3.7 1.3s-.9-2-2.2-5c-.7-1.5-1.4-3.3-2.2-5.2s-1.7-3.9-2.4-6c-.8-2-1.6-4.1-2.3-6s-1.3-3.8-1.8-5.3c-.5-1.6-.9-2.9-1.1-3.8-.1-1-.3-1.6-.3-1.6"/><path fill="#264a6e" d="M21.5 125.8c1-7.2 23.1-39 29.4-40 6.8-1.1 14 5.2 10.2 15.1-3 7.7-12.8 19-16.1 23.4-3.2 4.4-2.2 3.4-3.7 7.1-1.4 3.7-2.5 3.8-3.7 4.3s-5 .3-9.6-2.1-7.1-3.9-6.5-7.8"/><path fill="#1a324a" d="M22.5 129.7s-.1-.1-.3-.2c-.2-.2-.4-.4-.5-.8-.1-.2-.1-.4-.2-.7 0-.2-.1-.5-.1-.8 0-.6.1-1.2.2-1.9.2-.7.4-1.4.7-2.2s.6-1.6 1-2.4c.3-.8.8-1.6 1.2-2.5.4-.8.9-1.6 1.4-2.5.5-.8 1-1.7 1.5-2.4.5-.8 1-1.6 1.5-2.3s1-1.5 1.4-2.1c.5-.7.9-1.3 1.3-1.9 1.7-2.3 2.7-3.9 2.7-3.9s-1.2 1.5-3 3.7c-.5.6-.9 1.2-1.4 1.9l-1.5 2.1c-.5.7-1 1.5-1.5 2.3l-1.5 2.4c-.5.8-1 1.7-1.4 2.5-.4.9-.9 1.7-1.2 2.5q-.6 1.2-.9 2.4c-.3.8-.4 1.6-.6 2.3-.1.7-.2 1.4-.1 2 0 .3.1.6.1.8 0 .3.1.5.2.7.2.4.4.6.6.8.3.2.4.2.4.2M50.2 117.3s-1.1 1.2-2.6 3.1-3.5 4.4-5.2 7.2c-.4.7-.8 1.5-.9 2.3-.1.7-.4 1.5-.7 2.1-.6 1.3-1.5 2.4-2.4 3.1-1 .7-2 .8-2.7.8-.7-.1-1.1-.2-1.1-.2s.1 0 .3.1.4.2.8.2c.7.1 1.8.1 2.9-.6 1.1-.6 2.1-1.8 2.8-3.2.3-.7.6-1.4.8-2.3.1-.7.5-1.4.8-2.1.8-1.4 1.7-2.7 2.5-4 .8-1.2 1.7-2.4 2.4-3.4 1.4-1.8 2.3-3.1 2.3-3.1M119 64c1 .8-27.3 4-39.6 3.7-12.2-.3-47.1-2.5-46.2-3.5 1-1 34.9-10.7 41.4-10.6 6.6 0 41.7 8.2 44.4 10.4"/><path fill="#c5886b" d="M60.7 66.5C58.1 77.2 62 88.2 77.6 89c18.2.9 20.1-10.8 18.6-21.7-1.7-12.1-6.1-21.1-17.1-21.6-10.9-.5-15.6 9.6-18.4 20.8"/><path fill="#99918a" d="M84.5 83s-.1.1-.3.2c-.1.1-.3.2-.5.2l-.6.3c-.2.1-.3.2-.3.2l.4.2c.2 0 .5 0 .8-.1s.5-.4.6-.6c0-.3-.1-.4-.1-.4"/><path fill="#c8bdb4" d="M52.5 95.6c3.7-1.4 3.7-4.8 3.7-4.8-.7 3.8-6 2.7-6 2.7 4.2.3 6.1-6.3 4.2-8.4s-.2-7.2-.2-7.2c-.9.1-1.5 2.9-1.5 2.9s-1.3-4.6 2.4-6.3 3-5.6 4.7-16.5c1.6-10.8 14.1-13.3 17.9-12.9.7.1 1.3.1 1.7.4.6-.7 2.1-.4 3.5-.3 2.6.1 7.7 3.4 9.8 5.4 6.1 5.8 6.2 19.3 6 21.7s2.9 2.7 2.9 2.7c-2.1.2-3.6-.5-3.6-.5 2.7 3.5.6 6.7.6 6.7 1 2.2.4 6.3-1.1 9.1s2.3 4.7 2.3 4.7c-3.1.1-3.6-1.4-3.7-1.8.6 3.2 1 6.2-.6 8.2s1.8 4.9 1.8 4.9c-1.2-.1-3.5-1-3.5-1-1.5 3.1 3.7 4 3.7 4-3.7.6-5.1-.7-5.1-.7 1 3.7.1 5.8-1.1 8-1.1 2.1 1.5 5.1 1.5 5.1-2.8.3-4.3-3.4-4.3-3.4 1.2 6.1-3.3 7.4-3.3 7.4 1.6-2 .1-5 .1-5-.1 2.3-1.4 6.6-4.2 7.1s-2.2 4.4-2.2 4.4c-2-.4-1.1-4.1-1.1-4.4-1.5 6.2-6.4 5.1-6.4 5.1-2.3 3.4-7.8 1.5-7.8 1.5 2.2.3 4.1-1.4 4.1-1.4-4.7 2.2-7.4-.9-7.2-3.5.1-2.5 3.6-1.7 3.6-1.7s-4.1.4-.9 3.2 6.4-4.3 3.8-5.5-1.8-3.9-1.8-3.9c-2-.9-5.1-3.8-4.3-6.4.7-2.3-.1-4.8-.1-4.8 1.2 3.2-1.7 3.6-1.7 3.6.4-1.9-.3-3.5-2.6-5-1.7-1.1-1-3.5-.4-4.6-1.1 1-4 .1-4 .1 1.7.1 4.4-2.2 2.5-3.9s-1-3.2-1-3.2c-3 1.2-.8 3.9-.8 3.9-2-.2-3.9-4.2-.3-5.7M65.8 71c2.9 4.8 2 5.9 2 5.9s4-1.9 6.4 1.3l5.4 3.5 5-1.4s2.9-4.3 8.1-3.5c0 0 2.3-.8 1.7-3.7 0 0-.7 2-3.1.8 0 0 3.2-.6 2.8-4.4s-1.6-6.1-3.6-10.4c-2.9-6.3-7.4-6.1-9.8-8.7-1.3 3-8.8 5.4-12 8.9 0-.2-5.8 7-2.9 11.7"/><path fill="#99918a" d="M80.7 47.7v-.4c0-.2-.1-.6-.4-.9-.1-.2-.3-.3-.5-.5s-.4-.3-.6-.4c-.5-.3-1-.4-1.6-.5H76c-.5 0-1 .1-1.4.2-.8.2-1.3.4-1.3.4h2.6c.5 0 1 0 1.5.1.2 0 .5.1.7.1.2.1.5.1.7.2l.6.3c.2.1.3.2.5.4.3.3.5.5.5.7.3.2.3.3.3.3M80.9 49s.1.2 0 .4c0 .1-.1.3-.1.5l-.3.6c-.1.2-.3.4-.5.6l-.6.6-1.5 1.2c-.5.4-1.1.7-1.6 1.1-.5.3-1 .7-1.4.9-.9.5-1.4.9-1.4.9s.6-.2 1.6-.6c.9-.4 2.2-1 3.3-1.8.6-.4 1.1-.8 1.6-1.3.2-.2.4-.5.6-.7s.3-.5.5-.7c.1-.2.2-.5.3-.7 0-.2.1-.4 0-.6-.4-.3-.5-.4-.5-.4M67 73s.2.5.4 1.2l.3 1.2c.1.2 0 .5.1.7v.7c0 .2 0 .5-.1.7 0 .2-.1.5-.2.7l-.3.6c-.1.2-.2.4-.3.5s-.2.3-.3.4l-.3.3c-.1.2-.2.3-.2.3s.1-.1.3-.2c.1-.1.2-.1.4-.2.1-.1.3-.2.4-.4.1-.1.3-.3.4-.5s.3-.4.4-.6c.2-.5.4-1 .4-1.5s0-1.1-.1-1.6-.3-.9-.5-1.3c-.4-.7-.8-1-.8-1M91.4 73.7s.3.3 1.1.5c.4.1.8.1 1.3-.1.2-.1.4-.2.6-.4s.4-.3.5-.5c.2-.2.2-.4.4-.6.1-.2.2-.4.2-.6.1-.4.2-.8.2-1.2v-1.1s-.2.4-.4 1.1c-.1.3-.2.7-.4 1-.1.2-.1.4-.3.6-.1.2-.2.4-.3.5-.1.2-.2.3-.4.5-.1.1-.3.2-.5.3s-.3.2-.5.2-.3.1-.5.1c-.3 0-.6 0-.8-.1zM101.6 75.2s-.4-.1-.9-.1c-.5-.1-1.2-.2-1.9-.4-.3-.1-.7-.2-.9-.3-.1-.1-.3-.1-.4-.2s-.3-.1-.4-.2c-.2-.2-.4-.3-.5-.4l-.2-.2s.1.4.4.8c.2.2.4.5.7.7s.7.3 1 .4c.7.2 1.5.2 2.1.1.7-.1 1-.2 1-.2M59.4 61.7s-.2.9-.5 2.3c-.1.7-.3 1.5-.5 2.4s-.3 1.8-.5 2.7c-.1.5-.2.9-.2 1.4-.1.5-.1.9-.2 1.3-.2.8-.6 1.5-1.1 1.9-.5.5-1 .8-1.3 1s-.5.3-.5.3.2-.1.6-.2c.2-.1.4-.2.7-.3s.5-.3.8-.5.6-.5.8-.8c.3-.3.5-.8.6-1.2s.2-.9.3-1.3.2-.9.3-1.4c.3-1.9.5-3.7.7-5.1-.1-1.6 0-2.5 0-2.5M54.2 78s-.1.3-.3.7c-.2.5-.4 1.2-.5 2.1-.1.4-.1.9-.1 1.4s.1 1.1.2 1.6.4 1.1.7 1.6.5 1 .5 1.5c.1.5.1 1.1 0 1.6s-.2 1.1-.4 1.5c-.2.5-.4.9-.7 1.3s-.6.7-.9 1c-.1.2-.3.3-.5.4s-.3.2-.5.3c-.3.2-.6.2-.8.3s-.4.1-.6.1h-.2.8c.3 0 .6-.1.9-.2.4-.1.7-.3 1.1-.6s.7-.6 1-1 .6-.9.8-1.4.4-1.1.5-1.7q.15-.9 0-1.8c-.1-.6-.3-1.3-.6-1.7-.3-.5-.5-.9-.7-1.5-.3-1-.4-2-.3-2.9q.15-1.35.3-2.1c.2-.2.3-.5.3-.5M53.1 101.5s-.2-.4-.3-.9c-.1-.3-.1-.6-.1-.9 0-.2 0-.3.1-.5 0-.2.1-.3.2-.4s.2-.3.3-.4.2-.3.3-.4.2-.2.4-.3c.1-.1.3-.2.4-.2.2-.2.4-.3.6-.4-.1-.1 0-.1 0-.1h-.3c-.2 0-.4 0-.7.1s-.6.2-.9.4c-.2.1-.3.2-.5.4-.1.1-.3.3-.4.5s-.2.4-.2.6c-.1.2 0 .4 0 .6.1.4.2.7.4 1 .3.6.7.9.7.9M52.3 104.7s.5.3 1.3.5c.4.1.9.2 1.4.1.3 0 .5-.1.8-.1.3-.1.6-.2.8-.3.3-.1.5-.3.7-.5s.3-.5.5-.7c.1-.2.2-.5.3-.7s.1-.5.1-.7c.1-.4 0-.8 0-1v-.4s0 .1-.1.4c-.1.2-.1.6-.3.9-.1.2-.1.4-.2.6l-.3.6c-.2.2-.3.4-.5.5-.2.2-.4.3-.6.4s-.4.2-.7.3c-.2 0-.5.1-.7.1-.5.1-.9.1-1.3.1-.6 0-1.2-.1-1.2-.1"/><path fill="#99918a" d="M91.1 49.4s-.2-.1-.4-.4c-.3-.2-.7-.6-1.1-.9-.5-.3-1.1-.8-1.7-1.2-.3-.2-.7-.4-1-.6-.4-.2-.7-.4-1.1-.5s-.8-.3-1.2-.4l-1.2-.3c-.4-.1-.8-.1-1.2-.1h-1c-.6.1-1.1.3-1.5.4-.3.2-.5.3-.5.3s.2-.1.5-.2.8-.2 1.4-.2c.3 0 .6 0 .9.1.3 0 .7.1 1 .2.4.1.7.2 1.1.3s.7.3 1.1.4c.7.3 1.4.7 2.1 1s1.3.7 1.8 1c1.3.8 2 1.1 2 1.1M99.9 95.1h-.3c-.2 0-.5-.1-.8-.1-.3-.1-.7-.2-1.1-.4-.2-.1-.4-.2-.5-.3-.2-.1-.3-.3-.5-.4-.1-.2-.3-.3-.4-.5l-.3-.6-.3-.6c-.1-.2-.1-.4-.2-.5-.1-.3-.2-.6-.2-.8-.1-.2-.1-.3-.1-.3v1.2q0 .6.3 1.2c.1.2.2.4.3.7.1.2.3.4.4.6.2.2.4.4.6.5s.4.3.7.3c.2.1.4.1.7.2.2 0 .4.1.6 0 .4 0 .7-.1.9-.1.1 0 .2-.1.2-.1M99.4 78.3s-.1.4-.3.9l-.3.9c-.1.3-.3.6-.4.9-.1.1-.2.3-.3.4s-.2.3-.3.4-.2.2-.4.3c-.1.1-.2.2-.4.2-.1.1-.2.1-.3.2-.1 0-.2.1-.3.1-.2 0-.3.1-.3.1h.3c.2 0 .4.1.7 0 .2 0 .3-.1.5-.1s.3-.2.5-.3c.3-.2.6-.5.8-.9.4-.7.6-1.5.6-2.1s-.1-1-.1-1M97.4 106.5s-.7-.1-1.8-.5c-.5-.2-1.1-.4-1.7-.7-.3-.2-.6-.4-.9-.5-.3-.2-.5-.4-.8-.7-.1-.1-.2-.3-.3-.4s-.2-.3-.3-.4l-.2-.4c-.1-.2-.1-.3-.2-.5-.1-.1-.1-.3-.1-.5v-1.3c.1-.5.2-1 .2-1.3.1-.3.1-.5.1-.5s-.4.6-.7 1.7c-.1.3-.1.6-.2.9v.5c0 .2 0 .4.1.5 0 .2.1.4.1.5.1.2.2.4.2.5.1.2.2.3.3.5s.2.3.4.5c.3.3.6.5.9.8.3.2.6.4 1 .5.7.3 1.3.5 1.9.6 1.3.2 2 .2 2 .2M97.6 109.5s-.5.1-1.3 0c-.8 0-1.8-.2-2.7-.5-.5-.2-.9-.4-1.3-.6-.2-.1-.4-.3-.6-.4s-.3-.3-.5-.4c-.1-.1-.3-.2-.4-.3l-.3-.3c-.2-.2-.3-.2-.3-.2s.1.1.2.3.3.5.5.8c.1.2.3.3.4.5.2.2.3.3.6.5.2.1.4.3.7.4.2.1.5.3.7.3.3.1.5.2.8.2.3.1.5.1.8.1.5 0 1 0 1.4-.1.9-.1 1.3-.3 1.3-.3M93 121.9s-.2-.3-.4-.8c-.2-.4-.5-1-.7-1.6s-.3-1.2-.4-1.7 0-.9-.1-.9c0 0 0 .1-.1.2s-.2.3-.2.6c-.1.3-.1.6-.1.9s.1.7.2 1c.2.7.7 1.3 1.1 1.7.3.4.7.6.7.6M88.7 118.4s.1.6.1 1.4c0 .4 0 .9-.1 1.4s-.2 1-.4 1.5c-.1.3-.2.5-.3.7s-.3.4-.4.6-.3.4-.5.5c-.1.2-.3.3-.5.4s-.3.3-.4.4-.3.2-.4.3c-.2.1-.3.2-.3.2s.1 0 .4-.1c.2-.1.6-.2.9-.4.2-.1.4-.2.6-.4s.4-.3.6-.5.4-.4.5-.7c.2-.2.3-.5.4-.8s.2-.6.3-.8c.1-.3.1-.6.1-.8 0-.5 0-1.1-.1-1.5-.2-.9-.5-1.4-.5-1.4M79.2 132.4s-.1 0-.3-.2c-.1-.1-.2-.1-.3-.2s-.2-.2-.3-.4-.1-.3-.2-.5 0-.4-.1-.6c0-.4.1-.9.2-1.4s.2-.9.3-1.4c.1-.4.2-.8.4-1.2.2-.7.3-1.2.3-1.2s-.3.4-.7 1c-.2.3-.4.7-.5 1.2-.2.4-.3.9-.4 1.4-.1.2-.1.5-.1.8v.8c0 .2.1.5.2.7l.3.6c.1.2.3.3.4.4s.3.1.4.2z"/><path fill="#99918a" d="M77.9 129.1s-.1.1-.2.4c-.1.2-.4.5-.7.9-.1.2-.3.4-.5.5-.2.2-.4.4-.6.5-.2.2-.4.3-.7.5-.2.2-.5.3-.8.4s-.6.2-.8.3c-.3.1-.6.1-.8.1H72c-.3 0-.5-.1-.7-.1-.5 0-.8-.1-1.1-.2s-.4-.1-.4-.1.1.1.4.2.6.3 1.1.4c.2.1.5.1.8.2.3 0 .6.1.9.1s.6 0 .9-.1.6-.1.9-.3c.3-.1.6-.3.9-.5s.5-.4.7-.6.4-.4.6-.7c.2-.2.3-.4.4-.6.4-.6.5-1.3.5-1.3M68 133.1s-.2.1-.5.1c-.3.1-.8.2-1.3.2-.5.1-1.2.1-1.8 0-.2 0-.3-.1-.5-.1s-.3-.1-.5-.2c-.3-.1-.6-.3-.9-.5l-.4-.3c-.1-.1-.2-.3-.3-.4-.2-.3-.3-.6-.5-.8-.3-.6-.4-1.2-.4-1.7s.3-.9.5-1.1.4-.3.4-.3-.2 0-.5.2-.7.5-.8 1.1 0 1.3.3 2c.2.3.3.7.5 1 .1.2.2.3.4.5l.4.4c.3.2.7.5 1 .6.2.1.4.1.6.2.2 0 .4.1.6.1h1c.3 0 .6-.1.9-.2 1.2-.3 1.8-.8 1.8-.8M69 126.3s-.1 0-.3-.1-.5-.2-.8-.4-.7-.4-1-.7c-.2-.1-.3-.3-.4-.5-.2-.2-.2-.4-.4-.6l-.3-.6c0-.2-.2-.4-.2-.7 0-.2-.1-.4-.1-.6v-1.8s0 .1-.1.3c0 .2-.2.5-.2.9-.1.4-.1.8-.1 1.3 0 .2.1.5.1.8.1.3.2.5.3.8.1.2.3.5.5.7s.4.4.6.5c.2.2.4.3.6.4s.4.2.6.2c.4.1.7.1.9.1.2.1.3 0 .3 0M59.4 114.2h.3c.2 0 .4 0 .7-.2.1-.1.3-.2.4-.3s.3-.2.4-.4.2-.3.3-.5.2-.4.2-.6c.1-.2.1-.4.1-.6.1-.2 0-.4.1-.6v-1c-.1-.6-.2-1-.2-1s-.1.4-.2 1-.2 1.3-.4 2c-.1.2-.1.3-.2.5s-.1.3-.2.4c-.2.3-.4.5-.6.7-.3.5-.7.6-.7.6M84.4 125.2s.3-.4.6-1 .6-1.5.8-2.4c.1-.5.1-.9.1-1.4 0-.4-.1-.9-.2-1.2s-.2-.6-.3-.8-.2-.3-.2-.3 0 .1.1.3.1.5.1.8v1.1c0 .4-.1.8-.2 1.3-.1.9-.3 1.7-.5 2.4z"/><ellipse cx="18.697" cy="9.497" fill="#592f25" rx="1" ry="2.1" transform="rotate(-177.123 47.467 28.302)scale(1 -1)"/><ellipse cx="5.497" cy="10.197" fill="#592f25" rx="1" ry="2.1" transform="rotate(2.877 -1113.885 1891)scale(-1 1)"/><path fill="#c8bdb4" d="M78.6 66.5c.9-.8.3-2.6-1.7-3.3l.5.8s-2.2-1.5-4.3-1.6l.9.8s-2.8-1.7-4.7.1l1.5.4s-1.2.2-1.7 1c0 0 1.3-.8 3 .1s5.7 2.3 6.5 1.7M83 67c-.8-.9 0-2.6 2.1-3.1l-.6.8s2.3-1.2 4.4-1.1l-1 .6s3-1.4 4.7.7l-1.6.2s1.1.4 1.6 1.2c0 0-1.2-.9-3-.3-1.7.7-5.9 1.7-6.6 1"/><path fill="#a95947" d="M75.6 69.3s-.2-.1-.6-.1-.8 0-1.3.1-.9.3-1.2.5-.5.4-.5.4h.6c.3 0 .8-.1 1.2-.2s.9-.2 1.2-.4c.4-.1.6-.3.6-.3M89 70.6s-.2-.2-.5-.3c-.3-.2-.7-.4-1.1-.5s-.9-.2-1.2-.1c-.3 0-.6.1-.6.1s.2.1.5.3c.3.1.7.3 1.1.4s.8.2 1.2.2c.3-.1.6-.1.6-.1"/><path fill="#c8bdb4" d="M85.3 77.5s1.5-.3 2.5 1.5 2 1.7 2 1.7-1.2 1-2.5.2c0 0 1.1 1.9-.6 2.9 0 0 .1-1.4-.3-2.1 0 0 .2 2.4-2 2.8 0 0 .1-.6.1-1.5 0 0-.1.7-1.6 1v-2.1c.2 1.8-1.8 2.4-1.8 2.4-.6-.8 0-2.5 0-2.5-.5.2-1 2.7-1 2.7-.5-.7-.4-2.7-.4-2.7.1 2.3-2.3 2.9-2.3 2.9.5-.5-.3-3-.3-3 .1 2.2-1.1 2.9-1.1 2.9-.9-.6-.6-2.3-.6-2.3l-1.3 2.1c-1.4-1.1-.1-2.7-.1-2.7-.5.2-1.3 1.7-1.3 1.7 0-1.3.7-2.8.7-2.8-.4.7-2.1.1-2.1.1.5 0 1.6-1 2.3-1.7 3-3 7.4-1.5 7.4-1.5"/><path fill="#99918a" d="M89.8 80.7s-.1 0-.2-.1-.3-.2-.4-.4c-.2-.2-.3-.4-.5-.7-.2-.2-.4-.5-.6-.8s-.5-.5-.8-.8c-.3-.2-.6-.3-.9-.4-.6-.1-.9 0-.9 0s.1 0 .2.1c.1 0 .3.2.5.3.4.2.8.7 1.2 1.2.2.3.4.5.7.8.2.2.5.4.7.6.7.3 1.1.2 1 .2M86.4 81.7l-.2.6c-.1.3-.3.7-.5 1-.1.2-.3.3-.4.4-.2.1-.3.3-.4.3-.1.1-.3.2-.4.2l-.1.1h.7c.2 0 .4-.1.6-.2s.4-.3.6-.5c.3-.4.4-1 .4-1.4-.1-.3-.3-.5-.3-.5M78.1 76.9s-.5-.1-1.3 0-1.8.3-2.6.9c-.2.1-.4.3-.6.5s-.3.4-.5.5c-.3.3-.6.6-.9.8-.6.5-1 .8-1 .8s.5-.1 1.2-.5c.3-.2.7-.4 1.1-.8.4-.3.7-.6 1.1-.9.8-.5 1.7-.9 2.4-1.1.6-.1 1.1-.2 1.1-.2M75.3 82.1s-.1.1-.2.4c-.1.2-.2.6-.1.9s.3.7.5.8c.2.2.4.2.4.2s-.1-.2-.1-.4c-.1-.2-.1-.5-.2-.7-.1-.3-.1-.5-.2-.8-.1-.2-.1-.4-.1-.4M81 81.7l-.3.3q-.15.3-.3.9c0 .3.1.7.2.9l.3.3v-.4c0-.2 0-.5.1-.8v-.8c.1-.2 0-.4 0-.4M77 81.5v.5c0 .3.1.7.1 1 .1.4.1.7.2 1 0 .1.1.3.1.3v.1s.2-.1.3-.5c.1-.3.1-.7.1-1.1-.1-.4-.2-.8-.4-1-.3-.2-.4-.3-.4-.3M79.6 82.4s-.1.1-.2.3-.1.5 0 .7c0 .3.2.5.3.7.2.2.3.2.3.2v-1c0-.2-.1-.5-.2-.7-.1 0-.2-.2-.2-.2M87.4 80.9v1.5c0 .3-.2.7-.3.9-.1.3-.3.4-.3.4s.2 0 .5-.2c.2-.1.3-.2.4-.4s.2-.4.3-.7c.1-.5-.1-.9-.2-1.2-.2-.2-.4-.3-.4-.3M74 84.2l-.2-.4c-.1-.2-.1-.5-.1-.8s.1-.7.1-.9c.1-.3.1-.5.1-.5s-.2.1-.4.3-.4.6-.5 1.1v.3c0 .1.1.2.1.3.1.2.2.4.4.5.3.2.5.1.5.1M79 77.5s-.2-.1-.6-.1-.9.1-1.3.3c-.2.1-.4.3-.6.4-.2.2-.3.3-.4.5-.2.3-.2.6-.2.6s.2-.2.5-.3c.3-.2.6-.4 1-.6s.8-.4 1.1-.5c.3-.2.5-.3.5-.3M79.8 77.8s-.1-.1-.3-.1-.4 0-.6.1-.3.3-.4.5 0 .3 0 .3.1 0 .3-.1c.2 0 .3-.1.5-.2.1-.1.3-.2.4-.3 0-.1.1-.2.1-.2M84.5 77.9s.1.1.2.3.3.4.5.6l.5.5c.2.1.3.3.3.3s.1-.2 0-.4c0-.3-.2-.6-.4-.8s-.5-.4-.8-.5c-.1-.1-.3 0-.3 0"/><path fill="#c57761" d="M81.3 67.4c1 0 4 .9 3.4 6.8 0 0 3.1 3.8-1.5 3.9s-6.5-1.8-4.9-2.8c.1.1-.9-7.9 3-7.9"/><path fill="#a95947" d="M82.7 67.8c.5.4.8.8 1.1 1.3.1.3.3.5.3.8.1.3.2.5.2.8.1.6.2 1.1.2 1.7v.9l-.1.9v.1l.1.1c.4.5.8 1 .9 1.6.1.3.1.6.1.8-.1.3-.2.5-.5.7q-.3.3-.9.3c-.3.1-.6.1-1 .2-.7.1-1.3.1-2 0 .7.1 1.3.2 2 .2s1.4 0 2-.4c.3-.2.6-.5.7-.9s.1-.8 0-1.1c-.2-.7-.6-1.3-1-1.8l.2.3.1-.9v-.9c0-.6-.1-1.2-.2-1.8l-.3-.9c-.1-.3-.3-.5-.5-.8s-.4-.5-.6-.7c-.3-.2-.5-.4-.8-.5"/><path fill="#a95947" d="M81.8 74.2h1.8c.2 0 .4.1.6.1.2.1.4.1.5.2s.3.1.4.2.2.1.2.1-.1-.3-.3-.6-.7-.6-1.3-.7c-.5-.1-1 .1-1.4.2-.3.4-.5.5-.5.5M87.8 60.8s-.9.1-2.3.4c-.7.1-1.5.3-2.3.6-.4.1-.8.3-1.3.4q-.6.15-1.2 0c-.8-.2-1.6-.7-2.4-1s-1.6-.5-2.3-.6c-.3-.1-.7-.1-1-.1h-1.3s.2 0 .6.1c.4 0 1 .1 1.6.3.3.1.7.2 1 .3.4.1.7.3 1.1.5.8.3 1.5.9 2.5 1.1.5.1 1 .1 1.5-.1l.3-.1.3-.1c.2-.1.4-.1.6-.2.8-.3 1.6-.5 2.2-.8 1.5-.4 2.4-.7 2.4-.7"/><path fill="#a95947" d="M86.7 59.4s-.7.1-1.8.3c-.5.1-1.2.2-1.8.4-.3.1-.7.2-1 .2l-.5.1c-.2 0-.4.1-.5.1-.3 0-.6 0-.9-.1s-.6-.3-.9-.5c-.6-.4-1.2-.8-1.7-.9-.3-.1-.5-.1-.8-.1h-.6c-.3 0-.5.1-.5.1h.3c.3 0 .8.2 1.2.4.5.2 1 .6 1.5 1 .3.2.6.4 1 .6s.8.2 1.2.2c.2 0 .4-.1.6-.1s.4-.1.5-.1c.3-.1.7-.2 1-.3q1.05-.3 1.8-.6c1.2-.4 1.9-.7 1.9-.7M81.6 64.7l-.3.3c-.1.2-.3.5-.4.7s-.3.5-.4.6c-.1.2-.3.3-.3.3s.2.1.5 0 .6-.3.8-.6.2-.7.2-.9-.1-.4-.1-.4"/><path fill="#264a6e" d="M97.2 56s-6.4-13.4-8.1-16.3-5.5-5.2-6.7-7.6-3.9-12.9-6.2-15.5-9-7.8-9.6-11.6c0 0-2.3 6.2-1.2 11.9.7 3.7.5 6.6-1 10.1s-5.7 21.4-4.7 28.5c-.1 0 17.7-5.7 37.5.5"/><path fill="#1a324a" d="M59.8 54.5s.1-1.3.2-3.2.3-4.4.6-7c.3-2.5.7-5 1-6.9.2-.9.3-1.7.5-2.3.1-.5.2-.9.2-.9s-.1.3-.3.8-.4 1.3-.7 2.2c-.2.9-.5 2-.7 3.2s-.4 2.4-.6 3.7c-.4 2.5-.6 5.1-.7 7s-.1 3.2-.1 3.2zM85.9 36s-.3-.4-.8-1-1.2-1.3-1.9-2-1.4-1.3-2-1.8-.9-.8-.9-.8.2.5.7 1.1c.4.6 1.1 1.3 1.8 2s1.5 1.3 2.1 1.8c.6.4 1 .7 1 .7M66.5 23s-.3.4-.7 1-.9 1.5-1.3 2.4-.7 1.9-.8 2.6c-.1.8-.1 1.3-.1 1.3s.1-.1.1-.3c.1-.2.2-.5.3-.8.3-.7.7-1.6 1.1-2.5s.8-1.8 1-2.5c.2-.8.4-1.2.4-1.2"/><path fill="#264a6e" d="M119 64c-5.4-2.8-32.6-8.8-49.4-7.7S40 61.9 33.2 64.2c0 0 30.5-11.1 32.7-12s8.6-5 27.2 1.2S119 64 119 64"/><path fill="#1a324a" d="M73.2 52.4s-1.4-.1-3.4 0c-1 .1-2.2.2-3.5.4-.6.1-1.3.2-1.9.3-.7.1-1.3.3-2 .4-1.3.3-2.6.7-3.8 1.1q-1.8.6-3.3 1.2c-1 .4-1.7.8-2.2 1-.5.3-.8.4-.8.4l.9-.3c.3-.1.6-.2 1-.4.4-.1.8-.3 1.3-.4.5-.2 1-.3 1.6-.5s1.1-.3 1.7-.5c1.2-.4 2.5-.7 3.8-1 2.6-.6 5.3-1.1 7.3-1.4q1.5-.15 2.4-.3c.5.1.9 0 .9 0M101.1 56.2s-1-.6-2.5-1.2c-.8-.3-1.7-.7-2.7-1s-2.1-.6-3.2-.9c-1.1-.2-2.2-.4-3.2-.5-.5-.1-1-.1-1.5-.1s-.9-.1-1.3-.1h-2.8s.3 0 .8.1c.5 0 1.2.1 2 .2s1.8.2 2.8.4 2.1.4 3.2.6 2.1.5 3.1.8 1.9.5 2.7.8c1.6.5 2.6.9 2.6.9"/></g></svg>