<svg xmlns="http://www.w3.org/2000/svg" width="127.564" height="96.619" viewBox="0 0.564 127.564 96.619"><path fill="#b2b2b2" stroke="#b2b2b2" stroke-width="1.629" d="M63.782 68.425c17.303 0 32.982 1.552 44.336 4.058 11.353 2.507 18.38 5.969 18.38 9.789s-7.027 7.282-18.38 9.789c-11.354 2.506-27.033 4.057-44.336 4.057-17.304 0-32.983-1.551-44.336-4.057S1.064 86.092 1.064 82.27s7.028-7.28 18.382-9.788c11.353-2.506 27.032-4.058 44.335-4.058Z"/><g stroke-linecap="round"><path fill="#600" stroke="#703d00" stroke-width="2.13" d="M62.45 31.899c11.55 0 20.124 2.9 29.596 7.887 4.501 2.375 8.425 7.021 11.292 12.7 2.258 4.48 3.922 10.225 3.666 15.57-.49 6.013.465 14.363-5.702 15.44-24.663 4.309-49.787 4.139-74.527-.762-6.185-1.225-4.851-10.307-5.702-15.886-.614-4.527-.943-9.984.652-13.916 2.51-6.066 6.59-10.619 11.13-13.146 9.418-5.215 18.045-7.888 29.595-7.888Z"/><path fill="#ff99e5" stroke="#ff00bf" stroke-width="1.653" d="M63.262 31.237c9.896-.31 19.825-.138 29.526 1.34 5.6 1.161 13.055 1.535 15.883 6.494 3.674 6.431.894 14.594.407 22.414-.213 2.082-.955 6.315-2.85 5.698-4.304-2.003-5.8-11.12-10.141-12.569-2.25-.748-.357 6.439-2.933 7.793-3.502 1.821-9.81-3.828-11.77-.88-2.22 3.347 4.344 8.82 2.933 12.987-.695 2.705-6 4.397-7.575 2.179-3-4.231.44-11.056-2.118-15.585-1.343-2.384-5.58-2.493-7.574-.88-3.748 3.043-3.314 9.75-7.127 12.569-2.04 1.505-5.28.452-7.168-.88-4.773-4.15-5.968-13.566-11.77-14.705-4.377-.866-6.696 10.854-9.692 9.51-3.386-1.535.418-14.997-2.525-16.004-2.764-.92-6.022 13.492-8.471 12.82-2.804-.857-2.266-10.785-2.036-15.878.187-4.182-.972-10.831 2.85-12.234 13.298-4.849 28.061-3.748 42.151-4.19Z"/><path fill="none" stroke="#9b4976" stroke-width="1.625" d="m41.64 40.854 4.194-.814M55.079 50.954h5.05M88.31 46.352v-3.787M71.899 34.99l4.235 2.525M103.053 53.927v-4.643M95.479 39.592h3.38M29.422 45.904l3.787-3.787"/><path fill="none" stroke="#fff" stroke-width="1.625" d="m34.065 50.954 3.34-.814M53.41 34.99l3.38 2.932M55.527 64.027l3.34-2.973M73.161 56.452l3.38 2.525M83.709 59.384l.407-2.525ZM84.523 36.252h3.788M95.071 48.877l3.34-.855M24.78 40.04l4.642-1.71M36.142 36.252l1.262 2.932ZM71.899 46.352l.448 2.077Z"/><path fill="none" stroke="#6148a4" stroke-width="1.625" d="m44.98 51.81 2.524-5.458M62.247 34.135h5.05M64.772 57.267l5.05-1.67M79.473 49.284l4.643 1.67M34.472 58.122l4.195-1.67M23.965 44.642v3.38M44.165 33.727l3.787-.407M108.103 50.954v4.643M79.921 42.972h3.788M79.066 33.32h2.525Z"/></g><path fill="#fff" d="M33.978 40.57c.421-.416.984-.83 1.57-.83.66-.002 1.293.256 1.73.488a7085 7085 0 0 0-.28-31.176c-.414-.397-.836-.939-1.244-.958-.638-.027-1.406.108-2.009 1.145.094 8.966.17 19.838.233 31.331"/><path fill="#42b5e8" d="M33.49 22.547c.043.675.013 1.423.017 1.95.01 1.068-.237 2.159-.067 3.223l.076.003c.563.014 1.147.02 1.735.018.805-.004 1.471-.02 2.15-.044-.02-1.562.394-3.494.185-5.17-.542-.005-1.325-.011-2.144-.01-.726.002-1.427.016-1.952.03M33.64 12.947c.044.675.013 1.423.017 1.95.01 1.068-.237 2.158-.067 3.223l.075.003c.564.014 1.148.02 1.736.018.805-.004 1.471-.02 2.15-.044-.02-1.562.395-3.495.185-5.17-.542-.005-1.325-.011-2.144-.01-.726.002-1.427.016-1.952.03M33.39 32.947c.044.675.013 1.423.017 1.95.01 1.068-.237 2.159-.067 3.223l.075.003c.564.014 1.148.02 1.736.018.805-.004 1.471-.02 2.15-.044-.02-1.562.395-3.495.185-5.17-.542-.005-1.325-.011-2.144-.01-.726.002-1.427.016-1.952.03"/><path fill="#231f20" d="M38.329 8.511c.181.086.208.188.145.277-.511 9.527-.218 21.648-.617 31.13 0 .011-.007.019-.01.028v.017c-.092.485-1.75.501-2.358.505-.803.004-2.377-.07-2.69-.602-.004-.005-.002-.013-.003-.02-.013-.015-.03-.03-.031-.046-.211-5.53-.435-11.027-.41-16.534.019-4.022-.017-10.59.171-14.61.011-.224.286-.346.585-.37.53-.208 1.536-.256 2.002-.268 1.102-.027 2.38.098 3.216.493m-4.456.23c-.08 1.5-.135 3.07-.173 4.685-.198 8.502.102 18.303.06 26.234a9 9 0 0 0 1.732.202c.475.008.945-.031 1.4-.108q.03-.007.06-.015c.155-5.405-.024-10.939.002-16.357.012-2.673 0-6.471.048-9.899.023-1.727.061-3.36.125-4.708-.607-.157-1.375-.178-2.014-.176-.407.003-.828.083-1.24.143"/><path fill="#fff" d="M50.472 38.87c-.421-.416-.985-.83-1.57-.83-.66-.002-1.293.256-1.73.489.075-10.75.166-21.195.28-31.177.414-.397.836-.939 1.244-.958.638-.027 1.406.108 2.009 1.145a6537 6537 0 0 0-.233 31.331"/><path fill="#42b5e8" d="M51.11 20.797c-.044.675-.013 1.423-.017 1.95-.01 1.068.237 2.159.067 3.223l-.075.003c-.564.014-1.148.02-1.736.018a67 67 0 0 1-2.15-.044c.02-1.562-.395-3.494-.185-5.17.542-.005 1.325-.011 2.144-.01.726.002 1.427.016 1.952.03M50.91 11.297c-.043.675-.013 1.423-.017 1.95-.01 1.068.237 2.159.067 3.223l-.075.003c-.564.014-1.148.02-1.735.018a67 67 0 0 1-2.15-.044c.019-1.562-.395-3.494-.186-5.17.542-.005 1.325-.011 2.144-.01.726.002 1.427.016 1.952.03M51.16 31.197c-.043.675-.013 1.423-.017 1.95-.01 1.068.237 2.159.067 3.223l-.075.003c-.564.014-1.148.02-1.735.018a67 67 0 0 1-2.15-.044c.019-1.562-.395-3.495-.186-5.17.542-.005 1.325-.011 2.144-.01.726.002 1.427.016 1.952.03"/><path fill="#231f20" d="M52.029 6.911c.181.086.208.188.145.277-.511 9.527-.218 21.648-.617 31.13 0 .011-.007.019-.01.028v.017c-.092.485-1.75.501-2.358.505-.803.004-2.377-.07-2.69-.602-.004-.005-.002-.013-.003-.02-.013-.015-.03-.03-.031-.046-.211-5.53-.435-11.027-.41-16.534.019-4.022-.017-10.59.171-14.61.011-.224.286-.346.585-.37.53-.208 1.536-.256 2.002-.268 1.102-.027 2.38.098 3.216.493m-4.457.23c-.079 1.5-.134 3.07-.172 4.685-.198 8.502.102 18.303.06 26.234a9 9 0 0 0 1.732.202c.475.008.945-.031 1.4-.108q.03-.007.06-.015c.155-5.405-.024-10.939.002-16.357.012-2.673 0-6.471.048-9.899.023-1.727.061-3.36.125-4.708-.607-.156-1.375-.178-2.014-.176-.407.003-.828.083-1.24.143"/><path fill="#fff" d="M62.328 38.22c.421-.416.984-.83 1.57-.83.66-.002 1.293.256 1.73.489a7085 7085 0 0 0-.28-31.177c-.414-.397-.836-.939-1.244-.958-.638-.027-1.406.108-2.009 1.145.094 8.966.17 19.838.233 31.331"/><path fill="#42b5e8" d="M61.79 20.197c.044.675.013 1.423.017 1.95.01 1.068-.237 2.159-.067 3.223l.075.003c.564.014 1.148.02 1.736.018.805-.004 1.471-.02 2.15-.044-.02-1.562.395-3.495.185-5.17-.542-.005-1.325-.011-2.144-.01-.726.002-1.427.016-1.952.03M61.99 10.547c.043.675.013 1.423.017 1.95.01 1.068-.237 2.159-.067 3.223l.076.003c.563.014 1.147.02 1.735.018.805-.004 1.471-.02 2.15-.044-.02-1.562.395-3.494.185-5.17-.542-.005-1.325-.011-2.144-.01-.726.002-1.427.016-1.952.03M61.64 30.547c.044.675.013 1.423.017 1.95.01 1.068-.237 2.159-.067 3.223l.075.003c.564.014 1.148.02 1.736.018.805-.004 1.471-.02 2.15-.044-.02-1.562.394-3.495.185-5.17-.542-.005-1.325-.011-2.144-.01-.726.002-1.427.016-1.952.03"/><path fill="#231f20" d="M66.679 6.261c.181.086.208.188.145.277-.511 9.527-.218 21.648-.617 31.13 0 .011-.007.019-.01.028v.017c-.092.485-1.75.501-2.358.505-.803.004-2.377-.07-2.69-.602-.004-.005-.002-.013-.003-.02-.013-.015-.03-.03-.031-.046-.211-5.53-.435-11.027-.41-16.534.019-4.022-.017-10.59.171-14.61.012-.224.286-.346.585-.37.53-.208 1.536-.256 2.002-.268 1.102-.027 2.38.098 3.216.493m-4.457.23c-.079 1.5-.134 3.07-.172 4.685-.198 8.502.102 18.303.06 26.234a9 9 0 0 0 1.732.202c.475.008.945-.031 1.4-.108q.03-.007.06-.015c.155-5.405-.024-10.939.002-16.357.012-2.673 0-6.471.048-9.899.023-1.727.061-3.36.125-4.708-.607-.157-1.375-.178-2.014-.176-.407.003-.828.083-1.24.143"/><path fill="#fff" d="M77.228 39.27c.421-.416.985-.83 1.57-.83.66-.002 1.293.256 1.73.489a7085 7085 0 0 0-.28-31.177c-.414-.397-.836-.939-1.244-.958-.638-.027-1.406.108-2.009 1.145.094 8.966.17 19.838.233 31.331"/><path fill="#42b5e8" d="M76.64 21.197c.043.675.013 1.423.017 1.95.01 1.068-.237 2.159-.067 3.223l.075.003c.564.014 1.147.02 1.735.018.806-.004 1.472-.02 2.15-.044-.019-1.562.395-3.495.186-5.17-.542-.005-1.325-.011-2.144-.01-.726.002-1.427.016-1.952.03M76.84 11.697c.043.675.013 1.423.017 1.95.01 1.068-.237 2.159-.067 3.223l.075.003c.564.014 1.148.02 1.736.018.805-.004 1.471-.02 2.15-.044-.02-1.563.394-3.495.185-5.17-.542-.005-1.325-.011-2.144-.01-.726.002-1.427.016-1.952.03M76.64 31.547c.043.675.013 1.423.017 1.95.01 1.068-.237 2.159-.067 3.223l.075.003c.564.014 1.147.02 1.735.018.806-.004 1.472-.02 2.15-.044-.019-1.562.395-3.495.186-5.17-.542-.005-1.325-.011-2.144-.01-.726.002-1.427.016-1.952.03"/><path fill="#231f20" d="M81.529 7.311c.181.086.208.188.145.277-.511 9.527-.218 21.648-.617 31.13 0 .011-.007.019-.01.028v.017c-.092.485-1.75.501-2.358.505-.803.004-2.377-.07-2.69-.602-.004-.005-.002-.013-.003-.02-.013-.015-.03-.03-.031-.046-.211-5.53-.435-11.027-.41-16.534.019-4.022-.017-10.59.171-14.61.011-.224.286-.346.585-.37.53-.208 1.536-.256 2.002-.268 1.102-.027 2.38.098 3.216.493m-4.456.23c-.08 1.5-.135 3.07-.173 4.685-.198 8.502.102 18.303.06 26.234a9 9 0 0 0 1.732.202c.475.008.945-.031 1.4-.108q.03-.007.06-.015c.155-5.405-.024-10.939.002-16.357.012-2.673 0-6.471.048-9.899.023-1.727.061-3.36.125-4.708-.607-.157-1.375-.178-2.014-.176-.407.003-.828.083-1.24.143"/><path fill="#fff" d="M93.772 40.32c-.421-.416-.985-.83-1.57-.83-.66-.002-1.293.256-1.73.488.075-10.75.166-21.194.28-31.176.414-.397.836-.939 1.244-.958.638-.027 1.406.108 2.009 1.145a6537 6537 0 0 0-.233 31.331"/><path fill="#42b5e8" d="M94.31 22.297c-.044.675-.013 1.423-.017 1.95-.01 1.068.237 2.159.067 3.223l-.076.003c-.563.014-1.147.02-1.735.018a67 67 0 0 1-2.15-.044c.02-1.562-.395-3.494-.185-5.17.542-.005 1.325-.011 2.144-.01.726.002 1.427.016 1.952.03M94.11 12.697c-.043.675-.013 1.423-.017 1.95-.01 1.068.237 2.158.067 3.223l-.075.003c-.564.014-1.147.02-1.735.018a67 67 0 0 1-2.15-.044c.019-1.562-.395-3.495-.186-5.17.542-.005 1.325-.011 2.144-.01.726.002 1.427.016 1.952.03M94.46 32.697c-.043.675-.013 1.423-.017 1.95-.01 1.068.237 2.159.067 3.223l-.076.003c-.563.014-1.147.02-1.734.018a67 67 0 0 1-2.15-.044c.019-1.562-.395-3.495-.186-5.17.542-.005 1.325-.011 2.144-.01.726.002 1.427.016 1.952.03"/><path fill="#231f20" d="M95.279 8.311c.181.086.208.188.145.277-.511 9.527-.218 21.648-.617 31.13 0 .011-.007.019-.01.028v.017c-.092.485-1.75.501-2.358.505-.803.004-2.377-.07-2.69-.602-.004-.005-.002-.013-.003-.02-.013-.015-.03-.03-.031-.046-.211-5.53-.435-11.027-.41-16.534.019-4.022-.017-10.59.171-14.61.011-.224.286-.346.585-.37.53-.208 1.536-.256 2.002-.268 1.102-.027 2.38.098 3.216.493m-4.456.23c-.08 1.5-.135 3.07-.173 4.685-.198 8.502.102 18.303.06 26.234a9 9 0 0 0 1.732.202c.475.008.945-.031 1.4-.108q.03-.007.06-.015c.155-5.405-.024-10.939.002-16.357.012-2.673 0-6.471.048-9.899.023-1.727.061-3.36.125-4.708-.607-.156-1.375-.178-2.014-.176-.407.003-.828.084-1.24.143"/><path fill="none" stroke="#000" stroke-linecap="round" stroke-width="1.629" d="M36.088 4.894s-.536 1.194-.61 1.832c-.064.544.153 1.085.203 1.63.019.202 0 .61 0 .61M48.306 3.265c.204.61.492 1.2.61 1.833.088.466 0 1.425 0 1.425M63.985 1.636s-.233-.065-.407.203c-.307.49-.54 1.054-.611 1.63a3.56 3.56 0 0 0 .204 1.629c.098.27.61.61.61.61M78.239 2.45s.696.331 1.018.815c.306.467.372 1.07.407 1.629.035.546-.143 1.086-.203 1.629a.7.7 0 0 0 0 .204M92.493 8.356s-.65-1.191-.611-1.833c.034-.546.511-.971.814-1.425.107-.16.408-.408.408-.408"/></svg>