<svg xmlns="http://www.w3.org/2000/svg" width="154.002" height="107.098" viewBox="0 0 154.002 107.098"><g stroke-miterlimit="10" data-paper-data="{&quot;isPaintingLayer&quot;:true}" style="mix-blend-mode:normal"><g stroke-linejoin="round" data-paper-data="{&quot;origPos&quot;:null}"><path fill="#1e1c1d" d="M132.56 48.218s-17.492 3.843-17.02-5.369c.444-8.63 9.902-6.655 16.951-6.466 3.22-.207 4.849-1.737 8.373-1.43 10.389.9 13.443 6.711 13.115 9.947-.391 3.86-6 6.133-10.813 6.004-5.193-.14-3.83-2.285-10.607-2.686" data-paper-data="{&quot;origPos&quot;:null,&quot;index&quot;:null,&quot;origRot&quot;:0}"/><path fill="#ebe2d0" d="M132.559 48.218s-16.65 2.736-16.486-5.657c.132-7.293 9.952-5.602 16.337-5.99 3.22-.207 6.6-1.715 8.454-1.619 5.321.462 8.377 2.188 11.283 5.86.618 1.456.258 2.294.083 4.026-.13 1.284-.05 1.756-.356 2.824-2.71 2.552-6.829 3.476-8.708 3.242-5.468-.681-3.592-2.784-10.607-2.686" data-paper-data="{&quot;origPos&quot;:null,&quot;index&quot;:null,&quot;origRot&quot;:0}"/><path fill="#c99638" d="M126.271 36.821c3.802.14 8.431 1.925 8.431 1.925 3.328.288 6.494-1.988 9.475-1.522 4.347.679 7.548 2.896 7.176 7.183-.276 3.19-2.092 4.575-5.288 4.767-4.82.29-7.022-1.542-10.859-2.007-2.727-.331-5.245 1.642-9.215 1.454-4.428-.21-9.998-2.042-9.983-6.475.01-2.86 4.948-5.519 10.263-5.325" data-paper-data="{&quot;origPos&quot;:null}"/><path fill="#1e1c1d" d="M134.416 40.349c-.1 2.011-.562 3.125-.445 5.135.05.864-3.413 1.07-5.606 2.192-.432.221-11.445-.648-11.52-5.36.056-4.279 9.996-5.025 11.588-4.555.902.265 6.007 2.11 5.983 2.588" data-paper-data="{&quot;origPos&quot;:null,&quot;index&quot;:null}"/><path fill="#ebe2d0" d="M146.513 39.092c2.288.226 3.837 1.7 3.774 5.011-.062 3.31-2.56 3.739-4.911 3.453-3.379-.41-3.148-1.646-5.77-1.905-5.793-.573-5.372.253-8.836 1.064-.82.192-2.092.341-2.034-.498.14-2.062 2.033-.556 2.084-3.725.05-3.122-2.768-.986-2.814-2.632-.033-1.16 1.422-1.46 2.555-1.205 3.432.77 3.012 2.229 8.223 2.29 0 0 4.396-2.183 7.73-1.853" data-paper-data="{&quot;origPos&quot;:null}"/><path fill="none" stroke="#c99638" stroke-linecap="round" d="m141.066 39.294-2.996 7.598-1.415-7.656-2.556 7.766s.846-2.513.894-4.121c.046-1.526-.652-3.91-.652-3.91l2.047 7.84 2.282-7.595 1.871 7.63 2.394-7.39s.63 2.171.524 3.683c-.11 1.561-.93 4.01-.93 4.01z" data-paper-data="{&quot;origPos&quot;:null}"/></g><path fill="#7b5030" d="M113.7 50.072c-10.573 1.742-19.207-3.102-19.207-7.035 0-8.051 12.123-10.955 17.508-9.53 10.968 2.903 22.04 5.384 21.904 9.315-.143 4.075-5.188 4.777-20.204 7.25" data-paper-data="{&quot;origPos&quot;:null,&quot;index&quot;:null,&quot;origRot&quot;:0}"/><path fill="#010647" d="M86.264 22.125s11.702 4.825 22.185 7.811c8.576 8.317 5.523 24.99.741 27.382-3.796.504-17.65 1.346-17.65 1.346z" data-paper-data="{&quot;origPos&quot;:null,&quot;origRot&quot;:0,&quot;index&quot;:null}"/><path fill="#503929" d="M107.858 92.266c2.268 8.416-13.559 11.311-19.775 11.107-6.161-.202-18.292 1.942-25.615-10.8C55.717 82.28 86.846 84 92.554 84.136c5.709.136 14.73 6 15.304 8.13M74.178 22.287c-5.915.63-37.456 7.183-31.302-3.658C49.42 5.296 61.558 4.238 67.938 3.503c6.436-.74 23.298-3 21.643 5.583-.42 2.172-9.488 12.572-15.403 13.201" data-paper-data="{&quot;origPos&quot;:null,&quot;origRot&quot;:0,&quot;index&quot;:null}"/><g stroke-width="0" data-paper-data="{&quot;origRot&quot;:0,&quot;origPos&quot;:null,&quot;index&quot;:null}"><path fill="#3181b0" d="M81.555 21.165s22.942 4.298 23.412 29.268c.209 11.059-14.558 29.128-14.558 29.128s5.383 10.534-4.08 27.537c-11.479-5.505-34 .348-47.033-52.32C27.971 9.015 57.806 4.034 63.796 0 78.95 3.692 81.555 21.165 81.555 21.165" data-paper-data="{&quot;origPos&quot;:null}"/><path fill="#c99638" d="M79.476 24.5s14.704 3.219 18.908 17.786c5.64 19.537-12.023 37.064-12.023 37.064l-7.415 1.92s16.629-16.424 8.025-37.216c-6.996-16.678-20-20.453-20-20.453z" data-paper-data="{&quot;origPos&quot;:null}"/></g><path fill="#235163" d="M35.004 25.456c-.693-1.043.388-9.344 3.5-9.595 2.112-.084 35.242 7.45 43.738 4.37 4.63-.317 8.953 2.782 8.953 2.782s-7.196 7.094-22.977 7.61z" data-paper-data="{&quot;origPos&quot;:null,&quot;origRot&quot;:0,&quot;index&quot;:null}"/><path fill="#7b5030" d="M81.641 28.497c-.41-3.04-3.435-5.846-.59-9.954 8.121-9.941 17.62-2.826 9.019 4.264-.703 4.115 1.8 2.562-3.896 6.072-.605 3.927-2.696 4.635-3.295 4.803-2.677.756-.828-2.146-1.238-5.185" data-paper-data="{&quot;origPos&quot;:null,&quot;origRot&quot;:0,&quot;index&quot;:null}"/><path fill="#7b5030" d="M93.638 16.124s-.603 4.499-4.118 5.348-8.535-.245-11.905-8.42c-2.43-5.895 3.655-7.446 5.88-9.55.856-.81 4.952.155 5.332 1.356.668 2.346 7.802 2.704 4.811 11.266" data-paper-data="{&quot;origPos&quot;:null,&quot;origRot&quot;:0,&quot;index&quot;:null}"/><path fill="#7b5030" d="M91.104 22.472c-.823 5.262 1.897 3.998-4.335 6.925-6.147 2.886-16.437-3.719-5.32-10.187 16.878-9.819 9.703.555 9.655 3.262M88.57 75.884c-1.04-2.886-4.038-4.673-1.292-5.158.613-.109 2.813-.383 5.171 2.855 6.721.663 3.763.362 6.296 3.726 10.978 2.597 5.77 13.05-6.098 7.704-4.448-2.43-3.039-6.241-4.078-9.127" data-paper-data="{&quot;origPos&quot;:null,&quot;origRot&quot;:0,&quot;index&quot;:null}"/><path fill="#235163" d="M82.338 73.292c15.682-1.835 17.065 4.627 17.065 4.627s-4.818 4.324-9.443 4.7c-8.86-1.783-31.623 9.967-33.724 10.198-2.102.23-7.733-8.666-6.684-9.71s20.571-8.386 32.786-9.815" data-paper-data="{&quot;origPos&quot;:null,&quot;origRot&quot;:0,&quot;index&quot;:null}"/><path fill="#7b5030" d="M107.641 84.585c5.684 8.447-.605 10.09-.384 12.668.079 1.327-3.267 3.066-4.32 2.37-2.736-1.812-8.749-2.356-8.626-8.97.17-9.17 4.3-11.21 7.757-10.944s5.573 4.876 5.573 4.876" data-paper-data="{&quot;origPos&quot;:null,&quot;origRot&quot;:0,&quot;index&quot;:null}"/><path fill="#7b5030" d="M91.486 73.527c6.932-.09 3.913-.039 7.085 4.295 1.296 2.392 12.517 8.533-7.132 7.086-12.942-.953-6.79-11.294.047-11.381" data-paper-data="{&quot;origPos&quot;:null,&quot;origRot&quot;:0,&quot;index&quot;:null}"/><path fill="#e6b88e" d="M50.66 68.506" data-paper-data="{&quot;origPos&quot;:null,&quot;index&quot;:null,&quot;origRot&quot;:0}"/><g stroke-linecap="round" stroke-linejoin="round" data-paper-data="{&quot;origPos&quot;:null,&quot;index&quot;:null}"><path fill="#ebe2d0" d="M146.7 38.989c2.287.226 3.835 1.7 3.773 5.011s-2.56 3.739-4.911 3.453c-3.379-.41-3.148-1.646-5.77-1.905-5.793-.573-5.372.253-8.836 1.064-.82.192-2.092.341-2.034-.498.14-2.062 2.033-.556 2.084-3.725.05-3.122-2.768-.986-2.815-2.632-.033-1.16 1.423-1.46 2.556-1.205 3.431.77 3.012 2.229 8.222 2.29 0 0 4.397-2.183 7.73-1.853" data-paper-data="{&quot;origPos&quot;:null}"/><path fill="none" stroke="#c99638" d="m141.252 39.19-2.996 7.599-1.415-7.656-2.556 7.766s.846-2.513.894-4.121c.046-1.526-.652-3.91-.652-3.91l2.047 7.84 2.282-7.595 1.871 7.63 2.394-7.39s.63 2.171.524 3.683c-.11 1.561-.93 4.01-.93 4.01z" data-paper-data="{&quot;origPos&quot;:null}"/></g><g data-paper-data="{&quot;origPos&quot;:null,&quot;index&quot;:null}"><path d="M81.575 35.917c1.857 21.198 1.442 29.328-2.084 36.962 14.439 1.918 3.49 23.739-5.618 13.837 5.072 3.71-2.599 7.176-3.347 1.95 4.605 1.396 1.16 8.096-4.055 5.175.16 8.157-15.53 8.076-12.011 1.047 5.345 12.093-14.421 7.388-12.774-2.197 1.217 10.086-15.325 3.864-6.804-3.198-2.308 17.97-25.27.074-11.503-7.633-7.02 16.87-19.742-1.667-8.133-8.205-9.382 2.252-11.79-11.175-2.941-11.18-18.104 9.46-15.2-23.508 1.977-17.923-8.62 1.967-7.94-11.542 1.372-5-17.428-2.118-1.277-29.99 8.223-9.105-18.283-5.678 2.132-24.045 3.661-6.295-19.625-8.499 9.709-26.577 17.27-6.682-11.526-13.583 19.525-12.976 13.526.14-3.119-7.627 10.425-7.295 5.32.492 3.262-11.65 22.274-1.449 9.824 7.431 2.266-7.151 9.713.568 4.002 2.405 6.238-9.128 15.935 5.353 4.095 7.979" data-paper-data="{&quot;origPos&quot;:null}"/><path fill="#7b5030" d="M95.73 55.505c-.019 3.912-1.54 4.847-2.276 7.728-1.192 4.658-.244 5.22-3.31 9.508-3.195 5.097-7.85 5.902-14.769 7.005-6.918 1.102-10.235 7.453-12.7 6.56-2.894-3.932 5.283-5.944-5.435-2.905-6.77 1.92-38.58 6.956-38.788-28.631-.206-35.36 32.318-29.734 41.163-27.66 8.845 2.073-.26-2.06 2.157-3.991 2.228-1.78 4.594 5.79 12.506 6.184 7.903.394 10.482 2.185 15.335 7.3 4.118 5.562 2.402 6.56 3.92 10.536.888 2.323 2.217 4.262 2.197 8.366" data-paper-data="{&quot;origPos&quot;:null}"/><g data-paper-data="{&quot;origPos&quot;:null}"><path d="M78.448 71.585c-.646 1.992-1.915 3.552-1.915 3.552s2.328-9.487 2.285-12.495c.758-1.94 2.532-1.363 2.532-1.363s-.283.356-1.19 2.68c0 0-.943 5.255-1.712 7.626" data-paper-data="{&quot;origPos&quot;:null,&quot;index&quot;:null}"/><path d="M79.146 36.889s5.016 2.987 5.105 6.88c.088 3.892-2.545 4.16-2.545 4.16s.402-1.466.32-4.32c-.064-2.214-2.88-6.72-2.88-6.72" data-paper-data="{&quot;origPos&quot;:null}"/><path d="M81.778 62.327s2.59.801 2.513 4.16-5.072 6.88-5.072 6.88 2.816-4.507 2.88-6.72c.082-2.855-.32-4.32-.32-4.32M79.86 46.125c.908 2.324 1.19 2.68 1.19 2.68s-1.773.577-2.531-1.363c.043-3.007-2.285-12.495-2.285-12.495s1.268 1.56 1.914 3.552c.77 2.37 1.712 7.626 1.712 7.626" data-paper-data="{&quot;origPos&quot;:null,&quot;index&quot;:null}"/></g><path fill="none" stroke="#503929" stroke-linecap="round" stroke-linejoin="round" stroke-width="1.5" d="M90.447 48.527c2.123.042 1.42 3.644 1.42 3.644s1.306.52 1.306 2.743c0 1.94-1.184 2.664-1.184 2.664s1.081 3.689-1.256 4.236" data-paper-data="{&quot;origPos&quot;:null,&quot;index&quot;:null}"/><path d="M59.962 68.553c4.614-.937 9.53 5.2 8.317 10.726-2.734 9.435-34.236 15.196-47.24-6.825C9.88 53.56 15.853 25.826 47.988 22.1c12.43-1.44 29.202 9.944 15.887 17.771 4.945-2.45 9.615 3.983 2.116 7.619 12.048 6.218 3.144 22.059-3.587 11.693 2.833 5.515 3.73 9.851-2.443 9.37" data-paper-data="{&quot;origPos&quot;:null}"/></g></g></svg>