<svg xmlns="http://www.w3.org/2000/svg" width="83.675" height="104.513" viewBox="-0.206 -0.065 83.675 104.513"><path fill="#006482" d="M28.255 81.9c-.719 4.423-1.836 10.161-2.279 11.926-.375 1.498-.822 3.001-1.225 4.491-.431 1.594-1.596 3.188-1.656 4.877.762.223 2.518-.231 2.518-.231s.626.582.16.797c-.551.263-2.255.171-2.906.179-.566 0-2.067-.099-2.067-.099s-2.166-26.335 3.265-27.236 4.19 5.296 4.19 5.296M50.752 81.9c-1.935 5.156-4.046 10.643-4.68 12.185-1.198 2.905-3.193 5.69-4.047 8.695.527.199 2.853-.152 2.885.43.06 1.048-2.33.446-2.837.438-1.077 0-2.753.558-3.112-.267-.272-.629 3.152-14.807 4.549-21.485 0 0-.447-4.65 4.984-5.427s2.258 5.431 2.258 5.431"/><path fill="#008264" d="M4.133 91.527s2.115 5.738 1.488 5.889c-.626.152-1.01-1.335-1.413-2.064a3.2 3.2 0 0 0-.706-.956z"/><path fill="#00a08c" d="M3.003 99.52c.643.08-.323-3.901.858-2.53.232.267 0 2.654.878 2.49-.479-4.618.196-14.137 1.417-21.716 1.955-12.153 8.156-17.616 6.089-22.713-2.067-5.096-4.054-1.195-4.054-1.195s-4.39 11.858-5.144 14.377a47 47 0 0 0-1.596 8.057c-.399 3.494-.774 6.905-.882 10.435a63 63 0 0 0 .036 5.216c.048.913.108 6.607 1.018 7.113.331-1.558-.288-2.706.327-2.666.614.04.411 3.052 1.053 3.132"/><path fill="#006482" d="m63.13 52.812.886-.558c3.336-2.056 4.769-3.809 6.784-7.097 2.015-3.287 3.017-6.969 4.106-10.583 1.173-3.885 2.195-13.217 3.145-13.149.949.067-.675 3.745.327 3.944 1.001.2 1.281-3.733 2.079-3.801s-.2 4.252.922 4.192c.61-.032 1.041-3.311 1.528-3.116s-1.936 17.425-5.587 23.772c-3.651 6.348-6.193 9.341-10.774 12.118-2.945 1.785-6.672 2.128-9.002 2.59 0 0-5.391-.303-4.274-4.18.647-2.243 3.48-2.486 6.066-2.957 1.3-.266 2.571-.66 3.794-1.175"/><path fill="#281446" d="M75.441 24.445c.634-.223 1.141 2.152 1.141 2.152.706.219 2.49.916 2.394 2.311-.135 1.737-2.294 3.63-3.224 1.566-.012 0-.946-5.806-.311-6.029"/><path fill="#828278" d="m51.451 13.208 3.064 12.532 2.359-.12L51.63 9.917z"/><path fill="#008264" d="M16.239 54.812 12.963 86.18s17.39-.212 20.75-.447c-1.508-3.586-3.288-31.08-3.288-31.08z"/><path fill="#00a08c" d="M7.477 22.301c1.452 0 13.898-.49 13.898-.49l8.44 17.592c.491 1.491-16.852 46.777-16.852 46.777S4.392 44.783 3.386 39.642c-.51-2.617-.897-5.259-1.388-7.877C1.451 28.856.294 25.7.294 22.732c2.175-.773 4.904-.439 7.183-.431"/><path fill="#78c8c8" d="m13.107 32.291 8.268-10.48 17.426-.259 3.141 6.348-8.213 57.833s-1.716-2.917-2.206-3.753a49 49 0 0 1-2.063-3.985c-1.134-2.447-2.395-4.821-3.504-7.288-1.955-4.383-4.058-8.79-5.71-13.293-1.86-5.084-3.887-10.153-5.475-15.329-.726-2.363-1.772-4.726-2.263-7.148-.243-1.216-.151-1.578.599-2.646"/><path fill="#281446" d="M15.445 35.522c0 1.108.635 1.993 1.417 1.993s1.417-.897 1.417-1.993a2.3 2.3 0 0 0-.631-1.665 1.14 1.14 0 0 0-.798-.335c-.399 0-.95.554-1.197.917-.248.362-.208.529-.208 1.083"/><path fill="#828278" d="M13.175.716A161 161 0 0 1 30.944.648C35.333.86 46.906-.427 49.511 4.023c1.437 2.443 2.135 5.487 2.794 8.213.634 2.618 1.779 5.379 2.102 8.041-1.935-.219-1.995-3.487-2.482-5.14-.702-2.391-1.217-4.822-1.835-7.248-.503-1.993-1.034-4.523-3.049-5.416-1.939-.864-5.048-.478-7.135-.577-8.132-.399-18.547 0-26.671.075-1.425 0-3.264.132-3.711 1.937-.336 1.363 2.629 13.855 3.507 18.162.399 1.869.495 3.782.882 5.634.228 1.096.547 2.176.798 3.264.18.729.275 2.964.774 3.566.112.132.93.343 1.541.598a1.6 1.6 0 0 1-.068 1.004l-.208.06c-1.596.43-2.29-1.024-2.697-2.208C11.75 27.262 8.494 6.494 8.442 5.107 8.35 1.967 10.382.888 13.175.716"/><path fill="#00a0b4" d="m38.801 21.552 33.783.092s-1.353 5.419-1.664 6.722c-.719 2.98-1.596 5.933-2.155 8.945-1.197 6.276-3.224 12.488-4.789 18.589s-3.499 12.105-5.027 18.206c-.659 2.626-2.965 10.595-2.965 10.595s-4.154.323-5.467.435c-3.045.263-6.046.458-9.098.533-1.62.04-3.24.116-4.857.104s-2.837-.04-2.837-.04z"/></svg>