<svg xmlns="http://www.w3.org/2000/svg" width="120.739" height="129.393" viewBox="0.022 -0.502 120.739 129.393"><path fill="#006482" d="M45.49 70.225 29.603 82.821s.367 2.868 3.791 4.393c3.485 1.562 20.269 3.1 36.734 2.397s23.661-6.091 23.661-6.091z"/><path fill="#281446" d="M77.444 86.815H46.347L42.36 70.44h39.07z"/><path fill="#dc785a" d="M118.678 4.65c-1.957-.655-1.124 9.126-6.506 9.082-3.588-.028-3.214-5.403-3.724-7.855-.359-1.714-.299-4.613-2.543-5.013-2.237 1.885-.323 12.253-3.788 13.092s-3.189-6.622-4.238-8.283c-2.647-4.254-2.435 8.119-2.364 8.898.666 6.993-2.563 21.89-8.001 27.158s-15.062 6.582-15.062 6.582l6.586 22.129c3.449-2.156 19.384-1.162 32.6-22.145 11.17-17.733 8.994-42.99 7.04-43.645"/><path fill="#dc5050" d="M92.593 27.787c-1.399-4.869-6.259-9.985-4.453-13.064.893-.116 1.595.315 2.185.747 1.104 1.405 1.937 2.612 2.455 4.317.128.056 1.041 1.673 2.604.611s3.963-2.444 7.73-.244c3.464 2.025 5.932 5.368 5.685 9.586-.215 3.702-2.121 7.228-5.924 7.987-2.915.599-5.466.288-7.723-1.15-3.129-1.961-1.176-3.922-2.559-8.79"/><path fill="#dc785a" d="M24.982 23.206c-2.156-12.757-.689-17.122-1.359-19.223-.877-2.711-2.356-1.541-3.189.424-.59 1.306-1.814 11.206-5.064 7.245-.972-1.199-1.399-3.128-1.522-4.533-.192-2.177.582-5.236-.929-7.018-3.058-.818-2.58 3.423-3.106 5.839-.283 1.298.048 8.487-3.544 8.152S4.686 4.267 1.425 4.543c-.49.044-1.898 17.532.271 27.956 2.843 13.663 9.967 21.443 14.472 24.93 12.849 9.92 23.314 11.701 25.826 12.344l3.955-21.542c-2.632-.352-8.054-2.672-13.503-7.908-4.884-4.697-6.431-11.087-7.464-17.117"/><path fill="#dc5050" d="m24.524 17.131.454-.28c-.059-1.457 1.296-6.961 3.644-6.541 2.045.367-.219 6.346-.53 7.588-.69 2.768-1.427 5.192-1.132 8.051s-.052 6.139-2.332 8.072c-2.281 1.933-11.04 2.74-12.758-5.308-1.69-7.932 4.72-15.232 12.654-11.582"/><path fill="#dc785a" d="m71.918 91.376.399 14.901 10.241.351s.423-14.685.555-15.6z"/><path fill="linen" d="m71.727 112.543-.004-6.961 11.581.208-.275 6.478z"/><path fill="#00a0dc" d="m70.85 111.002.051 11.342 8.651 5.396 6.347-.444c.232-.934-2.99-.826-2.99-.826l.869-15.177z"/><path fill="#006482" d="M75.091 113.298c.703 0 1.34.286 1.801.748s.747 1.1.747 1.804-.286 1.342-.747 1.804a2.54 2.54 0 0 1-3.602 0 2.55 2.55 0 0 1-.746-1.804 2.546 2.546 0 0 1 2.547-2.552"/><path fill="linen" d="M81.49 113.314c-.128.283-.267.559-.399.835h2.791l.399-.835z"/><path fill="#f0e6d2" d="M81.486 115.722q-.085.212-.187.4l-.212.423h3.166v-.839z"/><path fill="linen" d="M84.253 118.765v-.647h-3.166c-.135.28-.263.56-.398.839h3.468a1 1 0 0 0 .096-.192"/><path fill="#f0e6d2" d="M84.153 120.738q.053-.095.1-.191h-3.365q-.043.09-.08.183c-.095.22-.195.436-.291.655h3.329c.1-.223.2-.435.307-.647"/><path fill="linen" d="M80.633 123.794h3.225c.136-.276.263-.555.399-.835h-3.373c-.088.276-.167.555-.251.835"/><path fill="#281446" d="M78.201 127.152c-.49-5.511-7.28-4.824-7.28-4.824v6.063h14.851l.143-1.111zM88.718 96.859l.442-19.901-21.269.028.06 19.893z"/><path fill="#dc785a" d="m52.036 91.376-.398 14.901-10.242.351s-.423-14.685-.558-15.6z"/><path fill="linen" d="m52.232 112.543.004-6.961-11.586.208.279 6.478z"/><path fill="#00a0dc" d="m53.125 111.002-.052 11.342-8.651 5.396-6.347-.444c-.231-.934 2.99-.826 2.99-.826l-.865-15.177z"/><path fill="#006482" d="M48.867 113.298a2.546 2.546 0 0 1 2.547 2.552 2.546 2.546 0 0 1-2.547 2.552c-.703 0-1.34-.286-1.801-.748a2.55 2.55 0 0 1-.747-1.804c0-.704.286-1.342.747-1.804a2.54 2.54 0 0 1 1.801-.748"/><path fill="linen" d="M42.464 113.314c.128.283.267.559.399.835h-2.791l-.399-.835z"/><path fill="#f0e6d2" d="M42.472 115.722q.082.212.187.4l.208.423h-3.166v-.839z"/><path fill="linen" d="M39.701 118.765v-.647h3.17q.196.42.398.839h-3.464z"/><path fill="#f0e6d2" d="m39.801 120.738-.1-.191h3.369q.038.09.076.183.144.328.295.655h-3.333c-.1-.223-.199-.435-.307-.647"/><path fill="linen" d="M43.313 123.794h-3.229c-.135-.276-.263-.555-.399-.835h3.373c.1.276.18.555.255.835"/><path fill="#281446" d="M45.757 127.152c.487-5.511 7.276-4.824 7.276-4.824v6.063H38.198l-.143-1.111zM35.471 96.859l-.677-19.901 21.273.028-.064 19.893z"/><path fill="#dc785a" d="m73.82 46.877-2.089 10.995-27.258.052L48.5 46.965z"/><path fill="#006482" d="m76.136 46.757 3.951-1.581 10.269 22.796-5.071 4.206zM45.729 46.757l-4.676-1.426-8.691 22.797 3.971 4.321z"/><path fill="#00a0dc" d="M93.789 83.52 77.26 44.744l-6.247.168s.985 9.266-10.661 9.298c-8.344.024-9.651-9.13-9.651-9.13l-7.005-.599-14.093 38.34z"/><path fill="#dc785a" d="M69.869 35.77c-.12-.192.566-5.232 1.327-6.721.674-1.318 2.64-2.668 4.031-1.858 1.722 1.011 1.168 3.515.399 4.869-1.125 2.001-3.608 3.059-5.757 3.71M51.574 35.77c.123-.192-.566-5.232-1.328-6.721-.674-1.318-2.639-2.668-4.03-1.858-1.723 1.011-1.168 3.515-.399 4.869 1.14 2.001 3.624 3.059 5.757 3.71"/><path fill="#ffc800" d="M68.573 17.542c2.109 2.193 9.369-7.716 10.405-9.085-1.562-3.271-4.56-4.601-8.089-4.753a22.8 22.8 0 0 0-1.941 7.157c-.239 2.116-.738 4.561-.375 6.681"/><path fill="#006482" d="m64.471 18.613 5.936 3.71s2.516-3.015-.761-5.152-5.175 1.442-5.175 1.442"/><path fill="#ffc800" d="M52.295 17.359c-2.113 2.192-9.372-7.716-10.405-9.086 1.563-3.271 4.557-4.601 8.089-4.753a22.9 22.9 0 0 1 1.95 7.157c.227 2.117.729 4.561.366 6.682"/><path fill="#006482" d="m56.394 18.429-5.937 3.71s-2.515-3.011.766-5.152 5.171 1.442 5.171 1.442"/><path fill="#ffc800" d="m72.452 22.97-23.394-.056s.184-6.098 12.259-6.023c9.497.076 11.135 6.079 11.135 6.079"/><path fill="#dc785a" d="M49.895 25.246c-.171.34-.267 3.954-.438 4.298-.048.95-.467 1.821.239 4.145a34.6 34.6 0 0 0 2.428 5.396c1.044 1.474 2.679 3.103 4.385 3.778 3.301 1.318 7.495.959 10.27-1.006 3.309-2.345 4.437-6.39 4.968-10.316.243-1.809 1.196-4.625.912-6.442z"/><path fill="#dc5050" d="M62.693 29.704c-.072 1.789-4.422 2.564-4.298-.308s-.044-4.769 1.965-4.793c2.01-.023 2.396 3.299 2.333 5.101"/><path fill="#ffc800" d="m68.585 26.544 3.393 5.001.813-4.905zM52.698 26.544l-3.389 5.001-.817-4.905z"/><path fill="#00a0dc" d="M73.576 28.525c.399-1.685.798-5.092-.283-6.238h-24.47c-1.12.899-1.348 4.916-1.248 6.522z"/><path d="M63.343 33.558s-.614 1.198-2.927 1.11c-2.312-.088-2.763-1.07-2.763-1.07zM67.728 30.962c-.686.95-1.415-.623-.654-1.302.494.044.666.399.654 1.302M54.177 31.014c-.498-.212-.458-.655-.542-1.055l.65-.495c.725.24.574 1.39-.108 1.55"/><path fill="#006482" d="m73.927 27.04-26.575-.008.347-3.263 26.228-.104z"/></svg>