<svg xmlns="http://www.w3.org/2000/svg" width="279.113" height="208.323" viewBox="0 0 279.113 208.323"><g fill="none" fill-rule="evenodd" stroke-miterlimit="10" data-paper-data="{&quot;isPaintingLayer&quot;:true}" font-family="none" font-size="none" font-weight="none" style="mix-blend-mode:normal" text-anchor="none"><path fill="#69b229" d="M148.421 108.936c7.657 11.728 6.23 35.259-4.654 40.07-10.885 4.812-23.796 11.578-28.6 13.758-4.73 2.105-5.405 4.286-9.459 24.735-1.051 5.112-7.807 12.705-7.957 1.654 0-2.18-.375-18.946 1.877-24.584 4.203-10.3 8.707-9.247 12.085-12.104 4.28-3.534 8.708-10.074 3.003-21.126-10.81-21.05 14.713-51.423 33.705-22.403"/><path fill="#69b229" d="M105.633 191.408c.525 1.428 3.528 3.609 4.804 3.984 1.276.376 1.727-.902 3.453-.075 1.652.827 1.427 2.481.376 3.233s-1.352.601-1.952.451c0 0 0 .677-.526 1.353-.675.827-1.651.752-2.402.15-.75-.6-1.126-.526-1.126-.526s0 1.354-.9 1.88c-1.277.752-2.102.15-2.928-1.278-.826-1.429-2.177-1.955-4.504-2.481-1.652-.376-3.078-3.534-2.703-6.766.526-4.661.601-7.593 3.454-8.195 8.257-1.804 4.053 5.714 4.954 8.27"/><path fill="#519b3d" d="M112.089 198.625c0-.225-.15-.526-.376-.827-.15-.15-.3-.225-.45-.376-.15-.15-.375-.225-.6-.3-.226 0-.451-.076-.676-.076h-.826c-.525-.075-1.05-.3-1.501-.526-.45-.3-.826-.526-1.126-.827s-.45-.526-.6-.752l-.151-.3.225.225c.15.15.45.376.75.602.301.225.677.376 1.127.601.45.226.976.376 1.426.451.225.075.45.075.75.075.301 0 .601.076.827.15.525.151.9.527 1.126.903.15.15.15.376.225.526.075.226.075.3.075.451v.376s0-.15-.225-.376M108.11 199.753c-.075-.226-.15-.451-.3-.677-.225-.526-.826-.977-1.577-1.278-.675-.3-1.5-.601-2.026-.902-.3-.15-.45-.3-.6-.451a1 1 0 0 0-.151-.226s.3.226.9.452c.526.15 1.352.375 2.103.676.225.075.45.15.6.3.225.076.376.226.526.377.3.225.525.601.6.902.225.601.075 1.052.075 1.052s0-.075-.15-.225"/><path fill="#a1af93" d="M106.91 201.557c-.526-.526-.902-1.203.074-1.353 1.577-.3.826 2.857.826 2.857-.15-.902-.45-1.053-.9-1.504M111.113 200.43c-.6-.452-1.126-.978-.15-1.354 1.576-.526 1.35 2.707 1.35 2.707-.3-.827-.6-.902-1.2-1.353M114.34 198.7c-.675-.225-1.275-.601-.525-1.202 1.201-1.053 2.102 2.105 2.102 2.105-.525-.677-.826-.677-1.576-.903"/><path fill="#519b3d" d="M116.968 144.12c.075-.451.15-1.128.15-1.955.075-.752 0-1.729-.15-2.706-.075-.451-.075-.978-.225-1.504s-.225-1.052-.376-1.579c-.075-.526-.225-1.052-.375-1.579s-.3-1.052-.45-1.503l-.45-1.353c-.15-.451-.3-.827-.451-1.203-.3-.752-.6-1.353-.75-1.805-.226-.45-.301-.676-.301-.676s.15.3.375.676c.226.376.6.978.901 1.73.15.375.3.751.526 1.202.15.452.375.903.525 1.354.225.526.375.977.526 1.503l.45 1.58c.075.525.225 1.052.3 1.578.15.526.15 1.052.225 1.579s.076 1.052.076 1.503c0 .527 0 .978-.076 1.353 0 .827-.15 1.504-.3 1.955-.075.451-.225.677-.225.677s.075-.226.075-.827M116.893 162.088c-.525.3-1.351.676-2.252 1.203-.45.3-.976.526-1.426.902-.226.225-.526.376-.676.601-.15.226-.375.527-.525.752-.751 1.053-1.277 2.406-1.727 3.684s-.826 2.631-1.201 3.91c-.375 1.277-.75 2.405-.976 3.457-.525 2.03-.9 3.384-.9 3.384s.074-.376.15-.978q.112-.902.45-2.48c.225-1.053.525-2.256.826-3.534.375-1.278.75-2.631 1.2-3.985.451-1.353 1.052-2.631 1.802-3.759.225-.3.376-.601.6-.827a5.3 5.3 0 0 1 .751-.601c.526-.3 1.051-.602 1.502-.827.9-.526 1.726-.827 2.327-1.053.6-.225.9-.3.9-.3s-.375.15-.825.45"/><path fill="#a1c380" d="M121.547 4.285c47.518-8.27 59.753 21.351 59.753 21.351-20.643 24.133-3.378 71.421-3.378 71.421-22.67-28.718-67.185-3.984-67.185-3.984 3.378-32.704-27.024-19.923-27.024-19.923 11.185-31.425-11.485-31.876-18.616-29.095 0 0 34.155-35.785 56.45-39.77"/><path fill="#69b229" d="M179.724 102.62c-2.702-11.502-11.035-16.69-13.812-33.755-2.553-15.262 7.131-34.733 7.131-34.733s-13.362 2.405-28 9.096c-15.239 6.917-36.107 54.205-36.107 54.205s6.305-24.509 16.89-45.183c10.584-20.674 48.118-25.561 48.118-25.561s-29.576-6.841-43.164-2.33c-13.587 4.51-49.469 52.776-49.469 52.776 17.19-35.41 35.507-51.649 46.617-59.844 11.185-8.194 47.367 2.406 47.367 2.406-2.702-7.668-31.453-13.758-48.944-12.78-17.415.977-65.908 41.424-65.908 41.424S101.354 2.48 124.7.376c29.651-2.631 59.828 13.156 59.828 13.156 1.352-7.893-7.882-9.773-7.882-9.773 7.582-.902 13.437 6.09 15.089 15.111 1.651 9.022-14.038 26.238-17.115 41.65-3.078 15.412 19.817 40.296 19.817 40.296.901 6.24-12.986 9.398-14.713 1.805"/><path fill="#519b3d" d="M190.459 96.38c-1.201-1.428-2.853-3.533-4.73-6.089-1.876-2.556-3.978-5.638-5.93-9.097s-3.828-7.292-4.954-11.427c-.526-2.03-.826-4.21-.676-6.315.225-2.105.75-4.135 1.276-6.015 1.126-3.834 2.628-7.217 4.054-10.074 1.426-2.856 2.702-5.187 3.678-6.766.901-1.579 1.502-2.48 1.502-2.48s-2.253 3.608-4.955 9.322c-1.351 2.856-2.777 6.315-3.903 10.074-.526 1.88-.976 3.909-1.201 5.939-.15 2.03.15 4.135.675 6.165 1.126 4.06 2.928 7.893 4.88 11.352 1.876 3.458 3.978 6.54 5.78 9.172 3.678 5.187 6.455 8.42 6.455 8.42s-.75-.752-1.951-2.18M174.995 26.539c-1.051.225-2.552.45-4.279.826s-3.753.827-5.93 1.354c-2.177.526-4.504 1.127-6.756 1.88-2.252.676-4.504 1.428-6.606 2.255-2.027.827-3.979 1.578-5.63 2.33-1.577.752-3.003 1.353-3.904 1.805-.976.45-1.501.751-1.501.751s.525-.3 1.426-.827c.901-.45 2.177-1.203 3.829-1.954q2.477-1.24 5.63-2.481c2.026-.827 4.354-1.58 6.606-2.33 2.252-.677 4.579-1.279 6.756-1.805a85 85 0 0 1 6.005-1.203c1.726-.3 3.228-.451 4.279-.601 1.05-.076 1.651-.15 1.651-.226 0 .075-.6.15-1.576.226M175.67 19.998c-1.05-.3-2.552-.752-4.428-1.203-1.802-.451-3.979-.977-6.306-1.428-2.327-.452-4.88-.903-7.357-1.278-1.276-.226-2.552-.376-3.753-.527-1.276-.225-2.477-.3-3.678-.45-1.126-.151-2.327-.226-3.378-.302-1.126-.15-2.102-.15-3.078-.225s-1.877-.075-2.627-.15c-.826-.076-1.502-.076-2.027-.076-1.126-.075-1.727-.075-1.727-.075s.6-.075 1.727-.075c.6-.075 1.276-.075 2.027-.075.825 0 1.651.075 2.627.075.976.075 1.952.075 3.078.15 1.126.076 2.252.076 3.453.226 1.2.075 2.402.225 3.678.376 1.201.15 2.477.3 3.753.526 2.553.376 5.03.827 7.357 1.353 1.201.226 2.327.527 3.378.752 1.05.3 2.102.526 3.003.827 1.876.526 3.378.977 4.429 1.353 1.05.376 1.651.602 1.651.602s-.6-.226-1.802-.376M182.201 12.63a85 85 0 0 0-6.005-2.556c-1.201-.526-2.627-1.052-4.054-1.579-1.426-.526-3.002-.977-4.579-1.578-1.576-.452-3.228-1.053-4.954-1.504-1.727-.526-3.453-1.053-5.18-1.428-.9-.226-1.726-.452-2.627-.677s-1.727-.451-2.628-.602c-.825-.15-1.726-.375-2.552-.526-.9-.15-1.726-.3-2.552-.45l-2.477-.452c-.751-.075-1.577-.225-2.327-.3-.751-.076-1.502-.226-2.252-.301-.751-.15-1.427-.15-2.102-.226-1.351-.075-2.553-.225-3.679-.3-1.126 0-2.026-.076-2.852-.076C129.804 0 128.904 0 128.904 0h5.329c1.051.075 2.328.15 3.679.226.675.075 1.35.075 2.102.15l2.252.225c.825.15 1.576.226 2.402.301.825.075 1.651.226 2.477.376s1.727.3 2.552.451c.901.15 1.727.376 2.628.526.9.15 1.726.376 2.627.527.9.225 1.726.45 2.627.676 1.727.376 3.453.902 5.18 1.429l4.954 1.578c1.577.527 3.153 1.053 4.58 1.654 1.426.602 2.777 1.128 4.053 1.654 1.276.527 2.402 1.053 3.378 1.504s1.877.827 2.552 1.203a49 49 0 0 1 2.252 1.128s-.825-.451-2.327-.978M178.748 100.365q0-.45-.225-1.353a16 16 0 0 0-.676-2.03c-.375-.752-.75-1.579-1.2-2.48-.451-.903-.977-1.88-1.577-2.858-.6-.977-1.276-2.03-1.952-3.082-1.351-2.105-2.627-4.586-3.678-7.067-1.051-2.556-1.877-5.112-2.552-7.593-.6-2.481-1.051-4.812-1.277-6.842-.3-1.954-.3-3.683-.225-4.886.075-.602.075-1.053.15-1.353s.075-.452.075-.452-.075.15-.075.452c0 .3-.075.751-.075 1.353 0 1.203.075 2.857.376 4.886.3 2.03.75 4.286 1.426 6.767.6 2.48 1.501 5.037 2.552 7.518s2.252 4.961 3.603 7.067c.676 1.052 1.277 2.18 1.877 3.157q.9 1.58 1.577 2.932c.9 1.804 1.5 3.458 1.726 4.586q.225.903.225 1.353v.451s0-.15-.075-.526M174.32 33.08c-.526.826-1.127 1.954-1.652 3.157a54 54 0 0 0-1.502 3.308c-.15.45-.3.827-.45 1.052s-.225.376-.225.376 0-.15.075-.451c.075-.226.15-.677.3-1.128.225-.977.75-2.18 1.276-3.383a17.5 17.5 0 0 1 1.802-3.157c.3-.376.525-.677.75-.903a.9.9 0 0 1 .3-.3s-.45.601-.675 1.428"/><path fill="#519b3d" d="M174.995 18.945c-.15-.15-.3-.376-.526-.601-.225-.226-.45-.526-.75-.752s-.6-.526-.976-.752c-.3-.225-.75-.45-1.126-.751-.376-.226-.826-.527-1.276-.752l-1.352-.677-1.35-.677c-.451-.225-.902-.375-1.352-.601-.9-.376-1.726-.677-2.477-.977a92 92 0 0 0-2.402-.978s.225 0 .675.15c.45.151 1.051.301 1.802.527.676.3 1.576.526 2.477.902.45.226.976.376 1.426.602s.976.45 1.427.676c.45.226.9.526 1.35.752.451.3.902.526 1.277.827.375.226.75.526 1.126.827.375.225.676.526.976.827.225.3.525.526.675.827q.339.338.45.677c.226.375.226.676.226.676s-.075-.3-.3-.752M184.754 10.826q.225.676.225 1.579c0 .601-.075 1.278-.376 1.88-.075.074-.15.225-.3.375-.075.15-.225.3-.3.376-.15.15-.3.451-.375.677a2.26 2.26 0 0 0 .075 1.428c.15.376.375.677.6.827.225.226.375.226.375.226s-.225.075-.45-.076c-.3-.15-.6-.376-.826-.827s-.375-1.052-.225-1.654c.075-.3.15-.601.375-.902.076-.15.226-.225.3-.376.076-.075.15-.15.226-.3.225-.527.375-1.128.375-1.654 0-.527 0-1.053-.075-1.504-.075-.902-.225-1.504-.225-1.504s.3.527.6 1.429"/><path fill="#7d9950" d="M158.48 84.502c-.375-.075-.9-.225-1.576-.376-.676-.075-1.502-.225-2.478-.376-.45-.075-.975-.075-1.5-.15-.526-.075-1.052-.15-1.652-.15-.526 0-1.201-.076-1.802-.076h-1.952c-1.35-.075-2.702.076-4.203.15l-2.252.226c-.751.15-1.502.15-2.252.301-.826.15-1.577.226-2.328.376l-1.126.226-1.126.225c-1.576.3-3.077.602-4.579 1.053-.675.225-1.426.375-2.177.601-.3.075-.675.226-1.05.3-.376.151-.676.226-1.051.377q-2.14.676-4.054 1.353c-1.276.451-2.402.902-3.528 1.353-.526.226-1.051.376-1.577.602-.525.225-.976.375-1.426.601-.826.376-1.651.677-2.252.977-1.201.602-1.952.903-1.952.903l1.952-.978c.676-.3 1.426-.601 2.252-1.052.375-.226.9-.451 1.351-.677l1.577-.677c1.126-.45 2.252-.902 3.528-1.428 1.276-.451 2.627-.977 4.053-1.428.376-.15.676-.226 1.051-.376.376-.076.751-.226 1.126-.301.751-.15 1.502-.376 2.252-.601 1.502-.452 3.078-.752 4.58-1.128l1.126-.226 1.2-.15c.751-.15 1.577-.226 2.328-.376.825-.075 1.576-.15 2.327-.226.75-.075 1.501-.225 2.252-.225 1.501 0 2.927-.15 4.279-.075.675.075 1.35 0 1.951.075.676.075 1.276.075 1.877.15 1.201.075 2.252.226 3.228.376.9.15 1.726.376 2.402.526.6.226 1.126.301 1.501.452.376.075.526.15.526.15s-.225-.075-.826-.3"/><path fill="#519b3d" d="M145.944 42.853c-.45.15-1.051.375-1.802.827-1.501.827-3.453 2.405-5.555 4.51-1.05 1.053-2.177 2.256-3.228 3.609-1.05 1.353-2.176 2.782-3.227 4.285-1.126 1.504-2.177 3.083-3.228 4.737l-1.577 2.48c-.525.827-1.05 1.73-1.576 2.557-1.051 1.654-2.027 3.383-3.003 5.112a375 375 0 0 0-2.777 5.037c-1.802 3.308-3.378 6.39-4.805 9.021-2.702 5.263-4.579 8.796-4.579 8.796s.45-.902 1.201-2.48c.751-1.58 1.802-3.76 3.153-6.466a286 286 0 0 1 4.73-9.097c.9-1.654 1.801-3.308 2.777-5.037.976-1.654 1.952-3.383 3.003-5.112.525-.902 1.05-1.73 1.576-2.556l1.576-2.481c1.051-1.654 2.102-3.233 3.228-4.736a40 40 0 0 1 3.303-4.286 79 79 0 0 1 3.303-3.533 32 32 0 0 1 3.078-2.707c.976-.751 1.877-1.353 2.627-1.729a11 11 0 0 1 1.877-.827c.45-.15.676-.15.676-.15s-.226.075-.751.226"/><path fill="#7d9950" d="M85.665 51.95c-.15-.301-.3-.677-.525-1.053s-.45-.827-.751-1.278c-.225-.451-.676-.902-1.051-1.429-.45-.45-.9-.977-1.426-1.428-.526-.526-1.126-.902-1.727-1.278-.3-.226-.675-.376-.976-.526s-.6-.301-.976-.452l-1.05-.375a5.5 5.5 0 0 0-1.051-.301c-.376-.075-.676-.15-1.051-.226l-.526-.075c-.15-.075-.375-.075-.525-.075-.751 0-1.352-.15-2.027-.15h-2.627c-.3 0-.526.075-.751.075-.45.075-.9.15-1.201.15-.676.075-1.051.075-1.051.075s.375-.075 1.05-.225c.376-.075.751-.15 1.202-.226.225-.075.525-.075.75-.15.3-.075.526-.075.826-.075.526 0 1.126 0 1.802-.075.6 0 1.351 0 2.027.075.15.075.375.075.525.075l.526.075 1.126.226c.375.075.75.15 1.126.3l1.05.376c.376.15.676.376 1.052.526.3.15.675.301.975.527.601.45 1.201.827 1.727 1.353.6.451.976 1.053 1.426 1.504.376.526.75.977 1.051 1.503q.45.677.676 1.353.337.677.45 1.128c.15.602.225.977.225.977s-.075-.375-.3-.902M109.536 78.488q-.225-.45-.675-1.128l-.45-.677c-.226-.225-.376-.45-.601-.676-.225-.3-.45-.526-.676-.752-.225-.225-.45-.526-.75-.752-.226-.225-.526-.45-.826-.676s-.676-.451-.976-.677c-.225-.075-.375-.226-.525-.3l-.526-.301c-.375-.15-.75-.376-1.126-.527a7.4 7.4 0 0 1-1.201-.376l-.6-.225c-.15-.075-.376-.075-.601-.15-.826-.15-1.652-.376-2.477-.376-.901-.076-1.652-.15-2.478-.076-.45.076-.825.076-1.2.076-.376 0-.751 0-1.127.075-.675.15-1.426.225-2.026.3-.676.076-1.201.15-1.727.301-.525.15-.976.226-1.351.301-.676.15-1.126.225-1.126.225s.375-.15 1.126-.375c.3-.076.75-.226 1.276-.376.525-.15 1.05-.376 1.727-.451.6-.15 1.276-.226 2.026-.376.751-.075 1.502-.075 2.327-.15.826-.076 1.652 0 2.478.075.825 0 1.726.225 2.552.375.15.076.375.076.6.15l.601.226c.375.15.826.301 1.201.451.375.226.75.376 1.126.602.15.075.375.225.526.3.15.15.375.226.525.376.3.226.676.452.976.677.225.226.525.526.826.752s.525.526.75.752.526.45.676.751c.15.226.375.527.525.752.15.301.3.527.45.752.226.451.451.827.601 1.203.3.677.376 1.128.376 1.128s-.15-.451-.226-1.203"/><path fill="#519b3d" d="M136.26 23.155c-.9.15-2.177.452-3.678.827-.75.15-1.576.451-2.402.752-.826.3-1.652.827-2.477 1.278-1.652 1.053-3.303 2.33-4.88 3.684-1.576 1.353-3.077 2.782-4.504 4.135-1.351 1.353-2.702 2.631-3.828 3.759a344 344 0 0 0-3.754 3.684s1.352-1.579 3.529-3.834c1.126-1.128 2.327-2.481 3.753-3.835 1.426-1.353 2.928-2.856 4.504-4.21 1.651-1.428 3.303-2.706 5.03-3.683.825-.527 1.651-.978 2.552-1.279q1.35-.45 2.477-.676c1.501-.3 2.853-.451 3.753-.602.901-.15 1.427-.15 1.427-.15s-.526.075-1.502.15M61.944 46.912c1.05-.902 2.552-2.18 4.354-3.608a1566 1566 0 0 0 6.23-4.962c2.252-1.805 4.73-3.684 7.207-5.564s5.03-3.683 7.356-5.413c2.327-1.729 4.58-3.232 6.531-4.51.976-.677 1.877-1.278 2.703-1.73.825-.526 1.5-.977 2.101-1.277 1.202-.677 1.877-1.053 1.877-1.053s-.6.451-1.801 1.128q-.79.564-2.027 1.353c-.826.526-1.652 1.128-2.628 1.804a248 248 0 0 0-6.455 4.661 933 933 0 0 0-7.282 5.489c-2.477 1.879-4.88 3.759-7.206 5.563s-4.43 3.458-6.306 4.887c-3.678 2.856-6.155 4.736-6.155 4.736s.6-.526 1.5-1.504"/><path fill="#69b229" d="M208.925 120.438c4.955 7.142 4.88 23.23-3.903 34.282s-1.727 23.757 1.726 28.117c4.354 5.489 6.906 5.714 7.507 8.27.676 2.631-5.33 6.842-14.188-5.488-7.506-10.45-15.614-17.592-12.01-27.365 3.903-10.676-2.252-16.014-3.904-26.163-1.651-9.999 16.29-23.757 24.772-11.653"/><path fill="#69b229" d="M213.805 189.679c1.2.902 4.278 2.706 5.63 2.781 1.35.076 1.5-1.278 3.302-.902 1.802.451 1.952 2.105 1.126 3.083-.825.902-1.126.902-1.801.827 0 0 .15.676-.225 1.428-.45.977-1.427 1.053-2.327.677-.826-.451-1.277-.226-1.277-.226s.3 1.278-.45 2.03c-1.05.977-2.027.677-3.153-.526s-2.627-1.429-4.954-1.429c-1.727 0-2.552-.977-3.528-1.88-.676-.6-1.502-.977-2.102-.6-.901.6-2.027 1.052-2.477.075-.826-1.73 2.101-1.73 2.101-2.857 0-1.73-3.378-4.887-.45-5.413 2.928-.376 8.408 1.278 10.585 2.932"/><path fill="#a1af93" d="M200.518 195.919s1.2-2.105 1.726-1.203c.376.526-.075.752-.6.752-.376 0-.6 0-1.126.45"/><path fill="#519b3d" d="M188.282 156.524c.075-.3.15-.526.225-.902q.112-.45.225-1.127c.075-.376.15-.827.15-1.354v-1.503c0-.526-.075-1.128-.075-1.654-.075-.526-.15-1.128-.225-1.654s-.15-1.128-.3-1.654c-.075-.526-.226-1.053-.376-1.579s-.3-1.052-.45-1.503c-.15-.452-.3-.903-.45-1.279-.226-.827-.601-1.503-.751-1.954-.225-.451-.3-.752-.3-.752s.15.226.375.677c.15.225.3.526.45.827.226.3.376.676.526 1.052s.3.827.525 1.278c.15.526.376.977.526 1.504.15.45.3 1.052.45 1.579.15.601.225 1.127.376 1.729.15.601.15 1.127.225 1.729.075.526.075 1.128.075 1.654s0 1.052-.075 1.579l-.225 1.353c-.226.902-.45 1.579-.601 2.03-.15.526-.3.751-.3.751s.075-.3 0-.827M205.397 180.958c-.225-.226-.45-.602-.75-.977-.226-.376-.526-.827-.826-1.354-.3-.45-.601-1.052-.901-1.654s-.526-1.278-.826-1.954c-.225-.677-.45-1.429-.676-2.18-.225-.752-.45-1.58-.525-2.331l-.15-1.203c0-.451-.075-.827-.075-1.203-.075-.752 0-1.503 0-2.255s.225-1.429.3-2.105c0-.376.075-.677.15-.978l.225-.902c.15-.526.226-1.052.45-1.503.226-.451.376-.827.526-1.128.3-.602.45-.977.45-.977s-.15.3-.375.977q-.225.45-.45 1.128c-.15.376-.225.977-.375 1.503l-.226.902c-.075.301-.075.677-.15.978-.075.676-.225 1.353-.225 2.105s-.075 1.503 0 2.255c0 .376.075.752.075 1.128l.15 1.128c.075.751.3 1.503.45 2.255.226.677.451 1.428.676 2.105s.45 1.353.75 1.955c.301.676.526 1.203.827 1.729.225.526.525.977.75 1.428.3.376.45.752.676 1.053.375.601.6.902.6.902s-.3-.3-.525-.827M203.295 192.912c.075-.15.225-.376.225-.602.075-.526-.225-1.278-.675-2.03-.45-.827-1.051-1.654-1.727-2.631-.6-.977-1.351-1.955-2.102-2.932-1.501-2.03-2.927-3.985-4.053-5.488-1.051-1.504-1.802-2.481-1.802-2.481s.826.902 2.027 2.33q.9 1.129 2.027 2.481c.675.903 1.426 1.88 2.177 2.857.75 1.053 1.426 2.03 2.102 3.007.6.978 1.2 1.88 1.651 2.707.45.827.676 1.654.525 2.18a1.44 1.44 0 0 1-.3.602c-.075.15-.15.15-.15.15s.075-.075.075-.15M221.837 195.317c-.15-.15-.3-.45-.6-.676-.151-.15-.376-.226-.526-.301a1.4 1.4 0 0 0-.6-.15c-.226 0-.451 0-.676.075s-.45.15-.751.15c-.526.075-1.051 0-1.577-.15-.45-.15-.9-.301-1.276-.526-.3-.226-.6-.452-.75-.602-.15-.225-.226-.3-.226-.3s.075.075.3.225c.15.075.451.225.826.376.376.15.826.3 1.277.376.45.075.975.15 1.426.075.225 0 .45-.075.75-.15h.826c.526 0 .976.3 1.276.6.15.151.226.302.3.452.076.15.15.3.15.376.076.225.076.376.076.376s0-.15-.225-.226M218.158 197.197c-.075-.15-.15-.376-.375-.602a3.17 3.17 0 0 0-1.877-.902c-.75-.075-1.576-.15-2.177-.376-.3-.075-.525-.225-.675-.3-.15-.076-.225-.15-.225-.15s.375.15.975.225c.526.075 1.352.075 2.177.225.15.075.376.075.601.15.225 0 .45.151.6.226.376.226.676.451.826.752.3.526.3.977.3.977s0-.075-.15-.225"/><path fill="#a1af93" d="M217.408 199.151c-.676-.375-1.126-.902-.225-1.278 1.5-.601 1.426 2.632 1.426 2.632-.376-.827-.676-.902-1.201-1.354M221.311 197.197c-.75-.3-1.276-.752-.45-1.278 1.351-.902 1.876 2.33 1.876 2.33-.525-.752-.825-.752-1.426-1.052M224.014 194.791c-.751 0-1.427-.226-.826-1.052.976-1.279 2.552 1.578 2.552 1.578-.75-.526-1.05-.45-1.726-.526"/><path fill="#7cbf2e" d="M219.735 131.189c-18.241 23.606-26.124 27.59-48.944 28.042-20.568.451-31.378-26.689-51.796-22.178s-36.708 3.007-37.834-12.18c-1.426-18.644 14.638-33.605 33.18-40.822 18.541-7.217 46.992-4.36 59.378 6.24 12.31 10.6 15.914 8.27 27.024 11.578 10.734 3.157 25.973 20.298 18.992 29.32"/><path fill="#b4d189" d="M167.263 146.45c18.091 6.165 40.16-13.682 50.67-30.523 3.528 5.413 4.955 11.202 1.727 15.412-18.242 23.532-26.124 27.591-48.944 28.042-20.568.376-31.453-26.99-51.796-22.178-17.641 4.135-23.571 2.18-30.102.075 26.874-20.824 57.952 2.105 78.445 9.172"/><path fill="#7d9950" d="M209.376 143.368c-.376.451-.901 1.128-1.652 1.88-1.426 1.503-3.603 3.683-6.606 5.939-1.501 1.127-3.153 2.255-5.03 3.232a38 38 0 0 1-6.155 2.557c-2.177.676-4.504 1.278-6.906 1.654s-4.88.601-7.357.751-4.954.15-7.356-.075-4.804-.827-6.981-1.579c-2.177-.751-4.204-1.804-6.006-2.932-1.801-1.127-3.378-2.255-4.88-3.383a291 291 0 0 1-6.98-5.563c-1.652-1.353-2.628-2.105-2.628-2.105s.976.752 2.703 2.03a390 390 0 0 0 7.131 5.413 113 113 0 0 0 4.955 3.308c1.801 1.052 3.753 2.105 5.93 2.856a29.7 29.7 0 0 0 6.906 1.504c2.402.226 4.804.226 7.282.075 2.477-.15 4.879-.376 7.281-.752a49 49 0 0 0 6.906-1.578 35 35 0 0 0 6.156-2.481c1.876-.978 3.528-2.105 5.03-3.158a56 56 0 0 0 6.755-5.789c.75-.751 1.351-1.353 1.727-1.804.375-.451.6-.677.6-.677s-.225.226-.825.677"/><path fill="#519b3d" d="M160.057 83.3c-2.252-.752-5.555-1.58-9.61-2.256-4.053-.677-8.782-1.053-13.886-.902-5.105.15-10.51.827-15.765 2.18a54 54 0 0 0-7.731 2.406 69 69 0 0 0-7.132 3.308c-4.504 2.48-8.332 5.262-11.41 7.969-3.003 2.706-5.33 5.262-6.756 7.142-1.501 1.88-2.177 3.082-2.177 3.082s.676-1.203 2.102-3.157c1.426-1.88 3.678-4.511 6.68-7.293a61 61 0 0 1 11.411-8.12 69 69 0 0 1 7.131-3.307c2.478-.978 5.105-1.805 7.732-2.481a79 79 0 0 1 15.915-2.105c5.18-.15 9.908.376 13.962 1.052a63 63 0 0 1 9.609 2.406c2.327.752 3.528 1.353 3.528 1.353s-1.276-.526-3.603-1.278"/><g data-paper-data="{&quot;origPos&quot;:null}"><path fill="#7cbf2e" d="M115.467 116.003c-.526 11.051-.526 15.862-20.118 25.786-14.864 7.518-16.59 29.696-56.901 33.756S.014 158.028.014 158.028c.9 11.879 19.967 18.344 41.286 8.72 21.47-9.622 42.939-64.127 54.724-69.09 13.062-5.487 20.118 6.541 19.443 18.345"/><path fill="#b4d189" d="m110.287 130.212 7.807 5.412c-2.777 2.03-14.037 4.737-18.917 7.143-14.863 7.518-20.418 28.793-60.73 32.778-4.878.526-9.232.601-12.91.451 14.262-2.03 33.63-6.916 44.214-18.795 18.016-20.223 40.536-26.99 40.536-26.99"/><path fill="#519b3d" d="M13.826 170.433c.676.15 1.501.3 2.477.376.976.075 2.102.15 3.303.225h1.877c.675 0 1.351 0 2.027-.075 1.35-.15 2.777-.226 4.278-.451 1.427-.15 3.003-.451 4.504-.827a53 53 0 0 0 4.58-1.353 32 32 0 0 0 4.353-1.88c1.427-.676 2.778-1.503 3.979-2.33 1.276-.827 2.402-1.73 3.453-2.632.526-.45 1.051-.902 1.501-1.353s.901-.827 1.352-1.278c.825-.827 1.576-1.579 2.252-2.33a34 34 0 0 0 1.726-1.88c.9-1.053 1.426-1.654 1.426-1.654s-.45.601-1.35 1.73c-.451.525-.977 1.202-1.652 1.954-.376.376-.676.827-1.051 1.203-.376.45-.75.827-1.201 1.278l-1.351 1.353c-.526.451-.976.902-1.502 1.353-1.05.902-2.177 1.88-3.453 2.707-1.201.902-2.552 1.654-3.978 2.405-1.427.677-2.928 1.354-4.43 1.88-1.576.601-3.077.977-4.654 1.353s-3.077.602-4.579.827c-1.501.226-3.002.3-4.354.376h-2.026c-.676 0-1.276-.075-1.877-.075-1.201-.075-2.327-.15-3.303-.3q-1.464-.227-2.477-.452c-1.426-.3-2.177-.526-2.177-.526s.826.225 2.327.376"/><path fill="#7d9950" d="M79.21 160.058c-.601.526-1.277 1.128-2.103 1.73-.45.3-.9.6-1.35.976-.451.301-.977.677-1.502 1.053-.526.376-1.126.677-1.727 1.052-.6.376-1.2.752-1.876 1.128-1.276.677-2.628 1.504-4.129 2.18-.75.376-1.501.752-2.252 1.053s-1.576.677-2.327.977c-.826.3-1.577.602-2.402.902-.75.301-1.577.602-2.402.903-1.652.526-3.303.977-4.955 1.428-1.651.376-3.303.752-4.88 1.128-1.576.3-3.152.526-4.578.751-.676.076-1.427.15-2.102.226-.75 0-1.351.075-2.027.15-1.276.076-2.477.226-3.528.226-1.051.075-1.952.075-2.702.075-1.502.075-2.328.075-2.328.075s.826-.075 2.328-.15c.75-.075 1.651-.075 2.702-.15 1.05 0 2.252-.15 3.528-.301l2.027-.226c.675-.075 1.351-.15 2.102-.3 1.501-.226 3.002-.452 4.579-.752 1.576-.376 3.153-.752 4.804-1.128 1.577-.526 3.228-.977 4.88-1.504.825-.225 1.576-.526 2.402-.827.825-.3 1.651-.526 2.402-.902.826-.3 1.576-.676 2.327-.977s1.426-.752 2.177-1.053c1.501-.676 2.852-1.428 4.128-2.105.676-.3 1.277-.676 1.877-1.052s1.201-.677 1.727-1.053a40 40 0 0 0 2.927-1.954c.901-.602 1.577-1.203 2.177-1.654 1.201-.978 1.802-1.579 1.802-1.579s-.6.601-1.727 1.654"/></g><path fill="#7cbf2e" d="M224.089 50.897c-4.28 5.187 2.252 18.795 4.504 29.02s6.38 35.71-7.432 51.497c-17.566 20.073-35.807 4.36-39.41-6.54s-4.804-19.472 9.308-22.404c13.587-2.857 24.622-9.924 17.04-31.124-5.63-15.863-.45-35.11 6.531-38.116 10.06-4.36 13.813 12.329 9.459 17.667"/><path fill="#b4d189" d="M195.788 139.534c14.263-10 26.124-27.065 28.075-36.989 3.228-16.314-7.957-42.551-3.528-43.529 1.126-.225 2.027.15 2.778.752 1.126 6.09 4.129 13.683 5.48 19.998 2.252 10.224 6.38 35.71-7.432 51.498-9.008 10.3-18.091 11.277-25.373 8.27"/><path fill="#519b3d" d="M200.893 99.087q.562-.225 1.576-.902c.376-.226.751-.451 1.126-.752.376-.3.751-.601 1.201-.977.826-.752 1.727-1.654 2.478-2.782.825-1.128 1.501-2.406 2.026-3.91.526-1.503.826-3.082.976-4.81.15-1.73.075-3.459-.15-5.263-.3-1.73-.675-3.534-1.276-5.263-1.201-3.458-2.102-7.067-2.702-10.45s-.826-6.616-.676-9.397c.075-1.429.3-2.632.45-3.76s.376-2.104.526-2.856c.375-1.579.6-2.481.6-2.481s-.225.902-.525 2.48c-.15.753-.3 1.73-.45 2.858a49 49 0 0 0-.376 3.759c-.075 2.706.225 5.939.826 9.322.6 3.383 1.576 6.916 2.777 10.375.676 1.804 1.051 3.608 1.277 5.413.225 1.804.3 3.608.15 5.337a20.2 20.2 0 0 1-1.051 4.887 16.2 16.2 0 0 1-2.102 3.91c-.826 1.202-1.802 2.03-2.627 2.781-.45.376-.901.677-1.277.977-.375.301-.75.527-1.126.752a9.6 9.6 0 0 1-1.651.902c-.375.226-.6.301-.6.301s.225-.075.6-.45"/><path fill="#7d9950" d="M221.762 130.663c1.05-1.354 2.477-3.308 3.828-5.864s2.627-5.714 3.528-9.172c.901-3.534 1.426-7.368 1.652-11.202.075-1.88.075-3.834.075-5.714-.075-1.88-.15-3.759-.3-5.563s-.3-3.534-.526-5.188c-.225-1.578-.45-3.157-.75-4.586-.526-2.856-1.127-5.187-1.502-6.84a139 139 0 0 1-.676-2.557s.3.902.751 2.556c.45 1.654 1.051 3.985 1.652 6.841.3 1.354.6 2.932.825 4.586s.45 3.384.6 5.188.226 3.684.301 5.563c.075 1.88.075 3.834-.075 5.789-.225 3.91-.75 7.744-1.727 11.277a39.6 39.6 0 0 1-3.678 9.172 39 39 0 0 1-3.978 5.789 62 62 0 0 0-1.727 2.03s.6-.752 1.727-2.105"/><path fill="#ef8a2e" d="M239.477 59.167c4.354 1.127 7.882-2.406 11.56-2.406s7.207-.451 9.384 3.308c0 0-1.952-1.278-5.03-.902 0 0 2.178 3.683 7.657 3.683 5.48 0 9.159 1.128 11.11 4.812 0 0-4.579-3.308-4.804-.902s4.354 1.127 7.657 3.91c3.303 2.78 1.276 7.893 1.276 7.893s-.676-4.812-3.528-4.36c0 0 1.126 2.63 1.126 3.683 0 0-.9-2.631-3.528-2.631s-7.432 0-9.384-1.955c0 0 .901 3.008 3.904 3.91 0 0-5.705-.902-7.432-3.684-1.726-2.857-1.951 1.128-1.951 1.128s-3.078-1.955-3.078-3.91c0 0-3.679 0-5.705-2.631 0 0-.901 2.406 1.276 4.36 0 0-4.354-2.18-4.354-5.488.225-3.232-6.156-7.818-6.156-7.818"/><path fill="#efce45" d="M243.006 60.069s2.177-1.053 5.555-1.128c3.378-.15 6.305 2.105 6.305 2.105s-2.102-1.052-2.702 0c-.676 1.053 4.128.677 6.23 1.579s3.453 2.706 3.453 2.706-1.651-1.127-2.327-.376c0 0 .226 2.105 3.904 1.128s3.378-1.955 3.378-1.955.525 2.331-1.126 3.008c0 0 1.801-.226 3.453 1.654s3.603 2.33 6.23 2.48c0 0-3.227 3.008-6.08 1.279s-5.405-1.053-4.129.225c0 0-3.077-.677-3.603-2.33 0 0-1.801.902-3.453-.376s-4.129-1.128-5.03-2.707c0 0 .376 1.579 2.102 2.556 0 0-4.278-1.052-4.879-3.759-.676-2.706-3.003-1.278-1.952.752 0 0-2.177-1.955-2.552-3.984-.6-2.03-2.777-2.857-2.777-2.857"/><path fill="#faff97" d="M245.933 60.37s2.102 1.127 4.129-.15c0 0 .375.75-.9 1.578 0 0 1.05 1.278 6.605.902 0 0 .525 1.428-1.126 1.579 0 0 2.327-.526 3.753 1.278s3.003 2.857 5.78 2.857 3.228 1.654 3.228 1.654-1.951-1.128-3.978-.527c-2.102.677-3.979-2.33-4.504-1.278-.526 1.053 1.426 1.429 1.426 1.429s-3.078-.226-4.279-1.654c-1.126-1.429-4.504-3.083-3.978-.902 0 0-1.577-1.429-1.652-2.857-.15-1.429-2.702-1.805-2.702.225-.075 0-.6-3.608-1.802-4.135"/><path fill="#e05b27" d="M261.547 58.64s1.877.376 2.177 2.105c0 0-2.102-.3-2.177-2.105M274.759 65.482s2.552.827 2.928 2.856c.225 1.354 1.426 1.805 1.426 1.805s-2.027-.15-2.853-1.805c-.75-1.653-.825-2.255-1.501-2.856M271.08 76.232c1.802.076 2.478 1.203 2.478 1.203-1.351.075-2.477-1.278-2.477-1.203M253.965 71.872c-.075 2.18 2.478 3.383 2.478 3.383-4.13.3-2.553-3.458-2.478-3.383M252.84 71.496s.3 1.278-.3 2.03c.074.075-.451-.752.3-2.03"/><path fill="#a1af93" d="M188.282 202.159s1.2-2.105 1.726-1.203c.376.526-.075.752-.6.752-.45 0-.6 0-1.126.45"/><path fill="#7cbf2e" d="M196.69 126.678c4.954 7.142 4.879 23.23-3.904 34.282s-1.727 23.757 1.726 28.117c4.354 5.488 6.906 5.714 7.507 8.27.676 2.631-5.33 6.842-14.188-5.488-7.506-10.45-15.614-17.592-12.01-27.365 3.903-10.676-2.252-16.014-3.904-26.163-1.651-9.999 16.29-23.757 24.772-11.653"/><path fill="#519b3d" d="M176.046 162.764c.075-.3.15-.526.225-.902q.112-.45.225-1.127c.075-.376.15-.827.15-1.354v-1.503c0-.527-.075-1.128-.075-1.654-.075-.527-.15-1.128-.225-1.654s-.15-1.128-.3-1.654c-.075-.526-.225-1.053-.376-1.579-.15-.526-.3-1.052-.45-1.504-.15-.45-.3-.902-.45-1.278-.226-.827-.6-1.503-.751-1.954-.225-.451-.3-.752-.3-.752s.15.225.375.677c.15.225.3.526.45.827.226.3.376.676.526 1.052s.3.827.525 1.278c.15.526.376.977.526 1.504.15.45.3 1.052.45 1.578.15.602.225 1.128.376 1.73.15.601.15 1.127.225 1.729.075.526.075 1.127.075 1.654s0 1.052-.075 1.578l-.225 1.354c-.226.902-.45 1.579-.601 2.03-.15.526-.3.751-.3.751s.075-.3 0-.827M193.161 187.198c-.225-.226-.45-.602-.75-.977-.226-.376-.526-.827-.826-1.354-.3-.45-.6-1.052-.901-1.654-.3-.601-.526-1.278-.826-1.954-.225-.677-.45-1.429-.675-2.18s-.45-1.58-.526-2.331l-.15-1.203c0-.451-.075-.827-.075-1.203-.075-.752 0-1.504 0-2.255 0-.752.225-1.429.3-2.105 0-.376.075-.677.15-.978l.225-.902c.15-.526.226-1.052.45-1.503.226-.452.376-.827.526-1.128.3-.602.45-.978.45-.978s-.15.301-.375.978q-.225.45-.45 1.128c-.15.375-.225.977-.375 1.503l-.226.902c-.075.301-.075.677-.15.978-.075.676-.225 1.353-.225 2.105 0 .751-.075 1.503 0 2.255 0 .376.075.752.075 1.128l.15 1.127c.075.752.3 1.504.45 2.256.226.677.451 1.428.676 2.105s.45 1.353.751 1.955c.3.676.525 1.202.826 1.729.225.526.525.977.75 1.428.3.376.45.752.676 1.053.375.601.6.902.6.902s-.3-.3-.525-.827"/><path fill="#7cbf2e" d="M201.569 195.919c1.2.902 4.278 2.706 5.63 2.781 1.35.076 1.5-1.278 3.303-.902 1.801.451 1.951 2.105 1.126 3.083-.826.902-1.126.902-1.802.827 0 0 .15.676-.225 1.428-.45.977-1.427 1.052-2.327.677-.901-.376-1.276-.226-1.276-.226s.3 1.278-.45 2.03c-1.052.977-2.028.677-3.154-.526s-2.627-1.429-4.954-1.429c-1.727 0-2.552-.977-3.528-1.88-.676-.6-1.502-.977-2.102-.6-.9.6-2.027 1.052-2.477.074-.826-1.729 2.102-1.729 2.102-2.856 0-1.73-3.378-4.887-.45-5.413s8.407 1.278 10.584 2.932"/><path fill="#519b3d" d="M191.284 199.151c.15-.075.226-.3.226-.601 0-.3-.075-.601-.226-.977-.15-.376-.375-.752-.6-1.203l-.9-1.353c-.376-.527-.677-.978-1.052-1.504-.75-1.053-1.576-2.105-2.327-3.158-1.576-2.105-3.153-4.285-4.354-5.864-1.2-1.654-1.952-2.706-1.952-2.706s.901 1.052 2.177 2.556a45 45 0 0 1 2.177 2.631c.751.978 1.577 2.03 2.402 3.083l2.252 3.157c.3.527.676 1.053.976 1.504.3.526.6.977.826 1.428s.45.902.526 1.278c.075.376.15.752.075 1.053s-.15.526-.3.601c-.15.15-.226.15-.226.15s.075 0 .3-.075M209.6 201.557c-.15-.15-.3-.45-.6-.676-.15-.15-.375-.226-.525-.301a1.4 1.4 0 0 0-.6-.15c-.226 0-.451 0-.676.075s-.45.15-.751.15c-.526.075-1.051 0-1.576-.15-.45-.15-.901-.301-1.277-.527-.3-.225-.6-.45-.75-.601-.15-.226-.225-.3-.225-.3s.075.074.3.225c.15.075.45.225.826.376.375.15.825.3 1.276.376.45.075.976.15 1.426.075.225 0 .45-.075.75-.15h.826c.526 0 .976.3 1.276.6.15.151.226.302.3.452.076.15.15.3.15.376.076.225.076.376.076.376s0-.15-.225-.226M205.922 203.437c-.075-.15-.15-.376-.375-.602a3.17 3.17 0 0 0-1.877-.902c-.75-.075-1.576-.15-2.176-.376-.3-.075-.526-.225-.676-.3-.15-.076-.225-.15-.225-.15s.375.15.976.225c.525.075 1.35.075 2.177.225.15.075.375.075.6.15.225 0 .45.15.6.226.376.226.676.451.826.752.3.526.3.977.3.977s0-.075-.15-.225"/><path fill="#a1af93" d="M205.172 205.391c-.676-.376-1.126-.902-.225-1.278 1.5-.601 1.426 2.632 1.426 2.632-.375-.827-.676-.903-1.201-1.354M209 203.437c-.75-.301-1.276-.752-.45-1.278 1.351-.903 1.876 2.33 1.876 2.33-.45-.752-.75-.752-1.426-1.052M211.778 201.031c-.751 0-1.427-.226-.826-1.053.976-1.278 2.552 1.58 2.552 1.58-.75-.527-.976-.527-1.726-.527"/><path fill="#519b3d" d="M199.842 139.308c0-.752-.075-1.654-.15-2.556s-.15-1.88-.3-2.857c-.075-.45-.15-.977-.226-1.428-.075-.451-.15-.902-.3-1.353a6.4 6.4 0 0 0-.375-1.278c-.15-.451-.3-.752-.45-1.128s-.3-.602-.451-.902c-.075-.15-.15-.301-.225-.376a1 1 0 0 0-.225-.3c-.226-.302-.376-.527-.376-.527l.45.451.226.226c.075.15.15.225.225.375.15.301.375.527.526.903.15.375.375.751.525 1.127s.375.827.45 1.278c.15.451.3.978.376 1.429.15.526.225.977.3 1.503.15.978.225 2.03.3 2.932v2.556c-.075 1.504-.225 2.481-.225 2.481s0-1.052-.075-2.556"/><path fill="#7cbf2e" d="M132.507 112.77c7.657 11.728 3.753 37.44-6.08 41.5-15.014 6.164-23.797 11.577-28.601 13.757-4.73 2.105-5.405 4.285-9.459 24.734-1.05 5.112-7.806 12.706-7.957 1.654 0-2.18-.375-18.945 1.877-24.584 4.204-10.3 8.708-9.247 12.086-12.104 4.279-3.533 8.708-10.6 3.003-21.651-10.885-21.05 16.139-52.4 35.13-23.306"/><path fill="#7cbf2e" d="M88.217 196.67c.526 1.429 3.529 3.61 4.805 3.985 1.276.376 1.726-.902 3.453-.075 1.651.827 1.426 2.48.375 3.233-1.05.751-1.351.601-1.952.45 0 0 0 .677-.525 1.354-.676.827-1.652.752-2.402.15-.75-.601-1.126-.526-1.126-.526s0 1.353-.901 1.88c-1.276.751-2.102.15-2.928-1.279-.825-1.428-2.177-1.954-4.504-2.48-1.651-.376-3.077-3.534-2.702-6.767.525-4.66.6-7.593 3.453-8.194 8.332-1.805 4.054 5.713 4.954 8.27"/><path fill="#519b3d" d="M94.673 203.888c0-.226-.15-.526-.375-.827-.15-.15-.3-.226-.45-.376s-.376-.226-.601-.3c-.225 0-.45-.076-.676-.076h-.825c-.526-.075-1.051-.3-1.502-.526-.45-.301-.826-.527-1.126-.827s-.45-.526-.6-.752l-.15-.3.225.225c.15.15.45.376.75.601.3.226.676.376 1.126.602s.976.376 1.427.45c.225.076.45.076.75.076s.6.075.826.15c.526.15.9.527 1.126.902.15.15.15.376.225.527.075.225.075.3.075.45v.377s0-.15-.225-.376M90.695 205.015c-.075-.225-.15-.45-.3-.676-.226-.526-.826-.977-1.577-1.278-.676-.3-1.501-.602-2.027-.902-.3-.15-.45-.301-.6-.451a1 1 0 0 0-.15-.226s.3.226.9.451c.526.15 1.351.376 2.102.677.225.075.45.15.6.3.226.076.376.226.526.376.3.226.526.602.6.903.226.601.076 1.052.076 1.052s0-.075-.15-.226"/><path fill="#a1af93" d="M89.494 206.82c-.526-.526-.901-1.203.075-1.353 1.576-.301.825 2.856.825 2.856-.15-.902-.375-1.052-.9-1.503M93.697 205.692c-.6-.451-1.126-.977-.15-1.353 1.577-.526 1.351 2.706 1.351 2.706-.3-.827-.525-.902-1.2-1.353M96.925 204.038c-.675-.225-1.276-.601-.525-1.203 1.2-1.052 2.102 2.105 2.102 2.105-.526-.751-.826-.751-1.577-.902"/><path fill="#519b3d" d="M99.552 149.382c.076-.45.15-1.127.15-1.954.076-.752 0-1.73-.15-2.707-.075-.45-.075-.977-.225-1.503-.15-.527-.225-1.053-.375-1.58-.075-.525-.225-1.052-.375-1.578s-.3-1.052-.45-1.504l-.451-1.353c-.15-.45-.3-.827-.45-1.203-.3-.751-.601-1.353-.751-1.804-.225-.451-.3-.677-.3-.677s.15.301.375.677.6.977.9 1.73c.15.375.3.751.526 1.202.15.451.375.902.526 1.353.225.527.375.978.525 1.504l.45 1.579c.075.526.226 1.052.3 1.578.15.527.15 1.053.226 1.58.075.525.075 1.052.075 1.503 0 .526 0 .977-.075 1.353 0 .827-.15 1.504-.3 1.955-.075.45-.226.676-.226.676s.15-.225.075-.827M136.86 130.362c-.15 1.278-.375 3.082-.675 5.187s-.75 4.586-1.426 7.218c-.375 1.278-.75 2.63-1.276 3.984-.526 1.353-1.126 2.631-2.027 3.834-.9 1.128-1.952 2.18-3.153 2.932-1.2.752-2.477 1.354-3.678 1.88-2.477 1.052-4.88 1.954-6.831 2.781a144 144 0 0 0-4.73 2.105c-1.05.602-1.726.903-1.726.903s.6-.376 1.727-.978a88 88 0 0 1 4.654-2.33c1.951-.902 4.279-1.88 6.756-2.932 1.2-.527 2.477-1.128 3.603-1.88a12 12 0 0 0 3.003-2.857c.825-1.127 1.426-2.405 1.951-3.683s.901-2.632 1.277-3.91a91 91 0 0 0 1.576-7.142c.75-4.21 1.126-7.067 1.126-7.067s-.075.677-.15 1.955"/><g fill="#89ce30"><path d="M101.955 113.747c-.6-5.187 7.431-8.044 12.836-8.044 5.48 0 3.829 5.112.976 8.946s-13.137 4.135-13.812-.902M108.41 120.664c4.13-.902 9.159 1.804 5.105 3.232-6.38 2.256-9.233-2.33-5.105-3.232M120.571 116.228c2.928-1.052 2.553 2.556.676 3.834s-4.204-2.556-.676-3.834"/></g><path fill="#519b3d" d="M99.477 167.275c-.525.3-1.35.677-2.252 1.203-.45.3-.975.526-1.426.902-.225.226-.525.376-.675.602s-.376.526-.526.751c-.75 1.053-1.276 2.406-1.726 3.684s-.826 2.632-1.202 3.91c-.375 1.278-.75 2.405-.975 3.458-.526 2.03-.901 3.383-.901 3.383s.075-.376.15-.977q.112-.903.45-2.481c.226-1.053.526-2.256.826-3.534.375-1.278.75-2.631 1.201-3.984.45-1.354 1.051-2.632 1.802-3.76.225-.3.375-.6.6-.826a5.3 5.3 0 0 1 .751-.602c.525-.3 1.05-.601 1.501-.827.901-.526 1.727-.827 2.327-1.052s.901-.3.901-.3-.375.225-.826.45"/><path fill="#b4d189" d="M103.756 5.488c46.992-11.126 60.955 17.743 60.955 17.743-19.142 25.26.9 71.496.9 71.496-24.396-27.29-67.335 0-67.335 0 1.427-32.854-28.15-18.344-28.15-18.344C79.36 44.43 56.764 45.258 49.783 48.49c0 0 31.904-37.815 53.973-43.003"/><path fill="#7cbf2e" d="M167.638 100.365c-3.303-11.427-11.935-16.088-15.764-32.929-3.453-15.11 5.03-35.109 5.03-35.109s-13.137 3.233-27.4 10.751C114.716 50.897 96.7 99.313 96.7 99.313s4.88-24.885 14.188-46.16c9.308-21.352 46.541-28.419 46.541-28.419s-29.877-5.112-43.163.226c-13.287 5.338-46.242 55.633-46.242 55.633 15.014-36.387 32.28-53.679 42.939-62.55 10.584-8.871 47.367-.45 47.367-.45-3.153-7.444-32.204-11.804-49.62-9.774-17.34 2.03-63.28 45.333-63.28 45.333S83.487 4.887 106.683 1.428c29.426-4.435 60.504 9.548 60.504 9.548.9-7.969-8.408-9.322-8.408-9.322 7.507-1.353 13.738 5.338 15.915 14.209s-12.386 26.99-14.638 42.552C157.804 73.902 182.2 97.433 182.2 97.433c1.351 6.24-12.386 10.15-14.563 2.932"/><path fill="#519b3d" d="M177.998 93.223a107 107 0 0 1-5.105-5.789c-2.027-2.48-4.279-5.413-6.456-8.72-2.177-3.309-4.279-7.068-5.63-11.127-.675-2.03-1.05-4.21-1.05-6.315.074-2.105.45-4.135.9-6.09.9-3.834 2.252-7.368 3.453-10.3 1.276-3.007 2.477-5.337 3.303-6.991a50 50 0 0 1 1.351-2.556s-2.027 3.759-4.354 9.623a69.4 69.4 0 0 0-3.303 10.3c-.375 1.954-.75 3.984-.825 6.014 0 2.105.375 4.134 1.05 6.164 1.277 3.985 3.379 7.744 5.48 11.052s4.354 6.315 6.306 8.796c3.979 4.962 6.906 8.044 6.906 8.044s-.75-.752-2.026-2.105M158.33 24.734c-1.051.226-2.477.602-4.204 1.053a113 113 0 0 0-5.855 1.729c-2.102.601-4.354 1.428-6.606 2.255-2.177.827-4.429 1.73-6.456 2.632a97 97 0 0 0-5.48 2.63c-1.576.828-2.927 1.504-3.828 2.03-.9.527-1.426.828-1.426.828l1.351-.902c.9-.527 2.177-1.354 3.753-2.18 1.577-.828 3.453-1.88 5.48-2.782s4.204-1.88 6.456-2.707a140 140 0 0 1 6.68-2.255 72 72 0 0 1 5.931-1.579c1.802-.451 3.228-.677 4.279-.902.976-.226 1.576-.3 1.576-.376 0 0-.6.15-1.651.526M158.855 17.818c-1.05-.226-2.627-.527-4.504-.903-1.801-.375-4.053-.676-6.38-1.052q-3.603-.564-7.432-.902c-1.276-.15-2.477-.226-3.753-.3-1.276-.151-2.477-.151-3.679-.226-1.2-.076-2.327-.076-3.453-.076h-5.705c-.825 0-1.501.076-2.027.076-1.126.075-1.726.075-1.726.075s.6-.075 1.726-.15c.601 0 1.277-.076 2.027-.151.826-.075 1.652-.15 2.628-.15.975-.076 1.951-.076 3.077-.076 1.126.076 2.252 0 3.453.076 1.202 0 2.403.075 3.679.15 1.2.075 2.477.15 3.753.3 2.552.226 5.105.527 7.432.903 1.2.15 2.327.376 3.378.601 1.05.226 2.102.376 3.002.602 1.877.45 3.454.827 4.504 1.127 1.051.226 1.652.452 1.652.452s-.6-.226-1.652-.376M165.01 9.924c-1.425-.602-3.602-1.353-6.155-2.18-1.35-.376-2.702-.827-4.203-1.279-1.502-.526-3.078-.902-4.73-1.353-1.576-.376-3.302-.827-5.029-1.203s-3.453-.751-5.255-1.052c-.825-.226-1.726-.376-2.627-.526-.9-.076-1.727-.226-2.627-.376-.901-.15-1.802-.301-2.628-.376s-1.726-.226-2.552-.3c-.826-.151-1.652-.226-2.477-.302-.826-.075-1.652-.075-2.402-.15s-1.502-.075-2.252-.15C121.322.6 120.646.6 119.97.6c-1.351 0-2.553-.075-3.679-.075s-2.026.075-2.852.075c-1.577.076-2.477.076-2.477.076s.9-.076 2.477-.15c.826 0 1.726-.076 2.852-.151h3.679c.675 0 1.35-.075 2.102 0 .75.075 1.5.075 2.252.15.825.075 1.576.075 2.402.15.825 0 1.651.151 2.477.226.826.15 1.651.226 2.552.3.901.076 1.727.226 2.628.377.825.075 1.726.225 2.627.376.9.225 1.802.376 2.702.526 1.727.3 3.528.752 5.255 1.128 1.802.376 3.453.902 5.105 1.278 1.576.526 3.152.977 4.654 1.428 1.426.451 2.852.902 4.128 1.353s2.403.903 3.454 1.278c.975.376 1.876.752 2.627 1.053 1.426.601 2.252.977 2.252.977s-.826-.376-2.177-1.052M166.587 97.96a3.7 3.7 0 0 0-.3-1.354c-.225-.526-.45-1.203-.826-1.955-.375-.751-.825-1.503-1.35-2.405s-1.127-1.805-1.802-2.782c-.601-.902-1.352-1.88-2.102-2.932-1.502-2.03-2.928-4.436-4.13-6.841-1.2-2.481-2.176-5.037-3.002-7.443s-1.351-4.736-1.726-6.766c-.3-2.03-.45-3.684-.45-4.887 0-.601.074-1.053.074-1.353.075-.301.075-.451.075-.451v1.804c.076 1.203.3 2.932.676 4.887.375 2.03.976 4.285 1.802 6.69.825 2.406 1.801 4.963 3.002 7.368 1.201 2.481 2.553 4.812 4.054 6.842.75.977 1.501 2.03 2.102 3.007.675.977 1.2 1.88 1.726 2.782.976 1.804 1.652 3.383 1.952 4.51.225.602.3 1.053.3 1.354v.45s0-.225-.075-.526M157.955 30.974c-.45.902-.976 2.105-1.427 3.308-.45 1.203-.9 2.481-1.276 3.383q-.338.677-.45 1.128c-.075.3-.15.45-.15.45s0-.15.075-.45.075-.752.225-1.203a20.4 20.4 0 0 1 1.126-3.458c.525-1.203 1.126-2.406 1.651-3.233.226-.451.526-.752.676-.977a.9.9 0 0 1 .3-.301s-.375.526-.75 1.353"/><path fill="#519b3d" d="M158.03 16.99c-.15-.15-.3-.375-.526-.6-.15-.226-.45-.452-.75-.677s-.601-.451-.976-.677c-.376-.226-.826-.451-1.201-.677l-1.352-.676c-.525-.15-.975-.376-1.426-.602s-.976-.376-1.426-.601c-.526-.226-.976-.376-1.426-.526q-1.352-.564-2.478-.903a76 76 0 0 0-2.477-.827s.225.076.676.15c.375.076 1.05.151 1.801.377.751.225 1.652.45 2.553.752.45.15.976.3 1.426.45s.976.301 1.426.527c.526.225.976.451 1.426.676.45.301.901.527 1.352.752.45.226.825.451 1.2.752.376.3.676.602.977.827.3.226.525.526.75.752l.45.676c.226.452.301.677.301.677s-.075-.225-.3-.601M167.038 8.12c.15.45.3.977.3 1.578s0 1.278-.3 1.88c-.075.15-.225.3-.3.45-.076.151-.15.226-.226.377-.15.225-.225.526-.3.751-.15.527 0 1.053.15 1.429.225.376.45.677.676.827.225.15.375.15.375.15s-.225 0-.45-.075c-.226-.075-.6-.3-.826-.752a3 3 0 0 1-.3-1.654c.075-.3.225-.601.375-.902.15-.15.225-.225.3-.376.075-.15.15-.225.225-.376.226-.526.3-1.127.3-1.654s-.074-1.052-.15-1.503c-.15-.902-.3-1.504-.3-1.504s.3.526.45 1.353"/><path fill="#7d9950" d="M145.418 83.45c-.375-.076-.9-.226-1.576-.301a75 75 0 0 0-2.477-.226c-.45-.075-.976-.075-1.502-.075-.525-.075-1.05-.075-1.651-.075h-1.802c-.6 0-1.276.075-1.951.075-1.352.075-2.778.3-4.204.451-.676.075-1.426.226-2.177.376-.75.075-1.501.226-2.252.376s-1.501.376-2.252.526l-1.126.226-1.126.3c-1.501.452-3.078.828-4.504 1.354-.75.225-1.426.526-2.177.752-.375.15-.676.225-1.051.376-.375.15-.676.3-1.05.45-1.352.527-2.628 1.053-3.904 1.58-1.201.526-2.403 1.052-3.453 1.578-.526.226-.976.451-1.502.677l-1.351.676c-.826.452-1.576.827-2.177 1.128a36 36 0 0 0-1.952.977s.676-.375 1.877-1.052c.6-.3 1.351-.752 2.177-1.203.45-.225.9-.451 1.351-.752.45-.225.976-.526 1.501-.752 1.051-.526 2.252-1.052 3.454-1.653 1.2-.527 2.552-1.128 3.903-1.654.375-.15.676-.301 1.051-.452.3-.15.676-.225 1.05-.375.752-.226 1.427-.527 2.178-.752 1.426-.526 3.003-.902 4.504-1.353l1.126-.301 1.126-.226c.75-.225 1.501-.376 2.252-.526s1.501-.226 2.252-.376 1.501-.3 2.252-.376c1.501-.15 2.928-.376 4.279-.376.675 0 1.351-.075 1.951-.075h1.877c1.201.075 2.252.075 3.228.226.976.15 1.802.225 2.477.376.676.15 1.201.3 1.577.375s.525.15.525.15-.15-.074-.75-.074"/><path fill="#519b3d" d="M130.555 42.552c-.45.15-1.05.45-1.801.977a25 25 0 0 0-2.553 2.03c-.9.902-1.876 1.88-2.927 3.082-2.027 2.331-4.054 5.338-6.08 8.646-1.052 1.654-2.028 3.383-3.003 5.187-1.051 1.73-1.952 3.61-2.928 5.413a244 244 0 0 0-5.405 10.902 310 310 0 0 0-4.504 9.623 1290 1290 0 0 1-3.078 6.84 72 72 0 0 1-1.126 2.632s.376-.977 1.051-2.631c.676-1.654 1.727-4.06 2.928-6.917.6-1.428 1.276-2.932 2.027-4.586.75-1.654 1.501-3.383 2.327-5.112 1.651-3.533 3.453-7.292 5.33-10.976.45-.977.9-1.88 1.426-2.782s.976-1.804 1.501-2.706c.976-1.805 1.952-3.534 3.003-5.188a56 56 0 0 1 3.078-4.66 59 59 0 0 1 3.152-3.91c2.102-2.33 4.054-3.985 5.63-4.962.751-.526 1.427-.827 1.877-.977l.676-.226s-.3 0-.6.3"/><path fill="#7d9950" d="M70.877 54.956c-.075-.3-.3-.676-.526-1.052-.225-.376-.45-.827-.825-1.278a9 9 0 0 0-1.126-1.353c-.45-.376-.901-.902-1.502-1.278-.525-.451-1.2-.752-1.801-1.128-.3-.226-.676-.3-.976-.451-.375-.075-.676-.3-1.051-.376l-1.051-.3c-.3-.076-.676-.226-1.051-.226-.375-.076-.676-.076-1.05-.15l-.526-.076h-.526c-.75 0-1.351-.075-2.027-.075-.675.075-1.276.075-1.801.15-.3 0-.6.075-.826.075-.3.076-.525.076-.75.15-.451.076-.901.151-1.202.226-.675.076-1.05.15-1.05.15s.375-.074.975-.225c.3-.075.676-.225 1.126-.3.15 0 .45-.076.676-.15.3 0 .525 0 .826-.076q.788-.112 1.801-.226h2.552l.526.076c.375.075.75.075 1.126.15.375 0 .75.15 1.126.225l1.126.301c.375.15.676.3 1.05.451.376.15.752.226 1.052.451.6.376 1.276.752 1.801 1.203.601.451 1.051.978 1.502 1.429.375.45.825.977 1.126 1.428s.525.977.75 1.353c.15.376.3.752.45 1.053.226.601.301.977.301.977zM95.724 80.217c-.225-.3-.45-.752-.75-1.128-.15-.225-.376-.45-.526-.676s-.375-.451-.6-.677c-.15-.226-.451-.451-.676-.677-.3-.225-.526-.45-.826-.676l-.9-.677c-.301-.225-.601-.376-.977-.601-.15-.075-.375-.226-.525-.301s-.3-.15-.526-.226l-1.126-.45c-.375-.076-.825-.226-1.2-.301l-.601-.15c-.15 0-.376-.076-.6-.076-.826-.075-1.652-.225-2.478-.225-.9 0-1.651-.076-2.477.075-.45.075-.826.15-1.201.15-.376.075-.75.075-1.126.15-.75.15-1.426.226-2.027.376-.676.15-1.201.301-1.727.451-.45.15-.9.301-1.276.376-.75.15-1.126.301-1.126.301l1.126-.376c.376-.15.751-.3 1.276-.45.45-.151 1.051-.377 1.652-.527q.9-.225 2.027-.451c.75-.15 1.501-.226 2.327-.301.75-.15 1.651-.075 2.477-.075.826-.075 1.727.15 2.552.225.225 0 .45 0 .676.076l.6.15c.45.15.901.225 1.277.376.45.225.825.376 1.2.526.226.075.376.15.601.226.15.075.376.225.526.3.375.15.75.376 1.05.602l.901.676c.3.226.6.527.826.752.225.3.45.526.676.752.225.3.375.526.6.752l.45.676c.3.451.526.903.676 1.203.3.677.45 1.053.45 1.053s-.15-.451-.675-1.203"/><path fill="#519b3d" d="M119.67 23.381c-.9.226-2.176.601-3.678 1.052-.75.226-1.501.527-2.327.903s-1.576.902-2.402 1.428c-1.576 1.053-3.153 2.406-4.654 3.91-1.502 1.428-2.928 3.007-4.279 4.435a277 277 0 0 1-3.603 3.985l-3.528 3.909s1.276-1.654 3.303-4.06c1.05-1.203 2.176-2.631 3.528-4.06 1.276-1.503 2.702-3.007 4.203-4.51 1.577-1.429 3.153-2.782 4.805-3.91.825-.526 1.651-1.052 2.477-1.428s1.651-.602 2.402-.827a29 29 0 0 1 3.678-.827c.901-.15 1.427-.226 1.427-.226s-.526.076-1.352.226M46.93 51.573c.976-.902 2.403-2.255 4.13-3.834s3.753-3.383 5.93-5.338c2.176-1.954 4.504-3.984 6.83-6.014 2.328-2.03 4.73-4.06 6.982-5.864s4.429-3.458 6.305-4.887c.901-.676 1.802-1.353 2.553-1.88q1.125-.788 2.027-1.352c1.126-.752 1.801-1.128 1.801-1.128l-1.801 1.203c-.526.376-1.202.902-1.952 1.428-.75.602-1.577 1.278-2.477 1.955a329 329 0 0 0-6.156 5.037 223 223 0 0 0-6.981 5.864c-2.402 1.955-4.73 4.06-6.906 5.94-2.177 1.954-4.28 3.758-6.006 5.262-3.528 3.082-5.855 5.112-5.855 5.112s.6-.526 1.577-1.504"/><path fill="#69b229" d="M217.933 22.028c1.126-1.354 5.105 2.18 8.107 2.706 3.078.526 5.33 5.789 3.228 7.217-7.131 4.662-12.46-8.57-11.335-9.923"/><path fill="#f1f2dc" d="M227.392 30.749s-2.403-7.82-9.008-11.428c-3.904-2.18-4.955-7.593-4.955-7.593 3.829 5.112 7.056 3.985 11.786 6.39 4.729 2.406 8.557 10.45 8.557 10.45-3.378-.977-6.38 2.18-6.38 2.18"/><path fill="#7cbf2e" d="M226.941 31.5c-1.126-.827-.826-3.157-.826-3.157 1.502-2.707 6.381-2.105 6.381-2.105 1.577.526 1.952 3.007 1.952 3.007"/><path fill="#519b3d" d="M233.547 27.14c-.075-.15-.15-.226-.3-.376-.15-.075-.3-.225-.526-.3-.225-.076-.45-.151-.75-.151h-.826c-.3.075-.6.075-.9.15-.376.076-.676.15-.977.226-.3.075-.6.225-.9.3-.3.15-.526.226-.826.376-.526.301-.976.602-1.276.978s-.376.752-.376 1.052.075.451.075.451-.075-.15-.15-.45-.075-.752.225-1.204c.226-.45.676-.902 1.277-1.202.3-.226.6-.301.9-.451.3-.076.676-.226.976-.301s.676-.15.976-.226c.3-.075.676-.075.976-.075s.6 0 .9.075.601.15.827.301c.225.15.375.3.525.451.15.15.225.3.3.451.075.3.075.451.075.451s0-.225-.225-.526"/><path fill="#c9bd9b" d="M223.939 24.433c-.601-.676-1.502-1.653-2.403-2.48-.45-.376-.9-.827-1.35-1.203s-.902-.677-1.277-.978c-.45-.3-.75-.526-.976-.676a4 4 0 0 0-.375-.226s.15.075.375.15l1.051.527c.225.075.45.225.676.376.3.15.525.376.75.526.45.376.976.752 1.427 1.203.9.902 1.726 1.88 2.252 2.706.525.752.825 1.354.825 1.354s-.375-.527-.975-1.279M220.636 16.69c-.526-.075-1.051-.226-1.652-.451-.6-.226-1.2-.526-1.801-.827-.226-.15-.526-.3-.826-.526-.225-.226-.526-.376-.75-.602-.226-.225-.451-.376-.676-.601-.15-.226-.376-.376-.526-.602-.3-.376-.525-.751-.676-.977a4 4 0 0 1-.225-.376s.075.15.3.376c.15.075.226.226.376.376l.45.451c.15.225.376.376.6.526.15.15.451.376.676.526.226.226.526.376.751.527.225.15.526.3.826.45 1.126.602 2.327 1.053 3.228 1.43.976.375 1.576.525 1.576.525s-.676-.075-1.651-.225"/><g fill="#d1cd9b"><path d="M241.805 49.168c.675.225 1.05.902.9 1.578-.15.677-1.576 3.384-2.252 3.233-.675-.225-.375-3.233-.225-3.91.225-.751.9-1.127 1.577-.901M244.047 52.756a1.277 1.277 0 1 1 .477-2.509 1.277 1.277 0 0 1-.477 2.51M238.262 50.867a1.277 1.277 0 1 1 .477-2.51 1.277 1.277 0 0 1-.477 2.51M235.341 49.89a1.277 1.277 0 1 1 .478-2.508 1.277 1.277 0 0 1-.478 2.509M232.414 48.919a1.277 1.277 0 1 1 .477-2.51 1.277 1.277 0 0 1-.477 2.51"/></g><g fill="#d1cd9b"><path d="M237.405 63.76a1 1 0 1 1 .239-1.986 1 1 0 0 1-.239 1.986"/><path d="M236.274 62.107a1 1 0 1 1 .24-1.986 1 1 0 0 1-.24 1.986M236.4 57.964c.3.376-.6 1.729-.901 2.03-.3.3-.75.225-1.051-.076-.3-.3-.225-.751.075-1.052.375-.3 1.576-1.278 1.877-.902M233.876 58.576a1 1 0 1 1 .24-1.986 1 1 0 0 1-.24 1.986M232.825 56.695a1 1 0 1 1 .24-1.985 1 1 0 0 1-.24 1.985M231.774 54.738a1 1 0 1 1 .239-1.986 1 1 0 0 1-.239 1.986"/></g><path fill="#c77866" d="M236.174 49.468s-5.104-.902-4.278 6.917l-3.528-8.946z"/><path fill="#d37f6c" d="M223.113 51.573c-.75-4.586 6.38-4.811 8.783 2.03 1.35 3.91 5.705 8.12 6.38 10.676.6 2.556-.525 2.03-2.252 1.88-2.327-.151-12.236-9.924-12.911-14.586"/><path fill="#e89182" d="M227.166 50.446s2.328 1.353 4.204 4.51c1.877 3.158 7.056 9.924 9.083 11.353 2.628 1.804 2.478 3.007 2.327 3.232-.3.301-1.876-1.428-1.876-1.428s1.126 1.955.525 2.18c-.525.226-2.702-2.857-3.453-3.533-.75-.677-5.705-6.616-6.981-9.097-1.351-2.481-4.88-6.165-4.88-6.165"/><path fill="#e89182" d="M230.32 49.694s-5.105-.902-4.28 6.916l-3.528-8.946z"/><g fill="#f1f2dc"><path d="M239.177 49.995c.75 0 1.276.676 1.201 1.353-.075.752-.976 3.684-1.651 3.608-.676-.075-.976-3.082-.901-3.759 0-.751.6-1.278 1.351-1.202M242.03 53.152a1.277 1.277 0 1 1 .002-2.554 1.277 1.277 0 0 1-.002 2.554M236.024 52.325a1.277 1.277 0 1 1 .002-2.554 1.277 1.277 0 0 1-.002 2.554M232.947 51.95a1.277 1.277 0 1 1 .002-2.555 1.277 1.277 0 0 1-.002 2.554M229.869 51.573a1.277 1.277 0 1 1 .002-2.554 1.277 1.277 0 0 1-.002 2.554"/></g><g fill="#f1f2dc"><path d="M233.247 64.677a1 1 0 1 1 0-2 1 1 0 0 1 0 2M232.721 60.97c.376.226-.3 1.73-.525 2.03-.225.301-.75.377-1.051.151-.3-.225-.375-.752-.15-1.052s1.351-1.354 1.726-1.128M230.019 62.046a1 1 0 1 1 0-2 1 1 0 0 1 0 2M228.743 60.392a1 1 0 1 1 0-2 1 1 0 0 1 0 2M227.467 58.588a1 1 0 1 1 0-2 1 1 0 0 1 0 2M226.34 56.483a1 1 0 1 1 0-2 1 1 0 0 1 0 2"/></g><path fill="#7cbf2e" d="M225.74 25.636c6.006.978 9.534 2.03 11.71 8.27 2.178 6.24 4.58 8.495 9.534 11.352 4.804 2.782 3.303 6.466 2.177 8.12 0 0-3.603.225-6.456-1.504-2.252-1.353-6.38-.977-9.758-1.353-3.003-.3-8.333-1.128-8.333-1.128 1.727 11.653 9.459 15.412 12.536 16.99 0 0-4.729.076-9.608-6.39-5.555-7.442-17.34-7.743-16.515-17.366.976-10.45 6.08-18.494 14.713-16.99"/><path fill="#519b3d" d="M246.083 53.227a9 9 0 0 1-2.627-.676c-.525-.226-1.051-.527-1.651-.752-.601-.226-1.202-.376-1.877-.526-1.351-.301-2.778-.376-4.279-.451s-3.003-.15-4.354-.301c-1.351-.15-2.627-.3-3.753-.451-1.126-.15-2.027-.3-2.628-.526-.6-.226-.9-.452-.9-.452s.375.226.975.376c.601.15 1.502.301 2.628.376 2.177.226 5.18.376 8.107.527 1.501.075 3.003.075 4.354.375.676.15 1.351.301 1.952.527.675.225 1.126.526 1.651.751.526.226.976.376 1.426.527.45.15.826.3 1.126.376.601.15.976.3.976.3zM234.298 34.883c-.3-.902-.826-2.03-1.502-3.082-.15-.225-.375-.526-.525-.752a4 4 0 0 0-.525-.676c-.226-.226-.376-.451-.601-.602-.15-.225-.375-.376-.525-.526-.226-.15-.376-.226-.526-.376l-.45-.225a4 4 0 0 0-.376-.226s.15.075.45.15l1.052.527c.15.15.375.3.6.45s.45.377.676.602c.375.451.75.977 1.126 1.504.15.3.3.526.45.827s.3.526.376.827c.225.601.375 1.127.525 1.578.225.978.3 1.58.3 1.58s-.225-.602-.525-1.58M221.461 54.73c-.9-.45-2.177-1.202-3.303-1.954-.6-.376-1.126-.752-1.651-1.203-.526-.376-.976-.827-1.351-1.202-.751-.752-1.126-1.354-1.126-1.354s.15.075.375.301.6.526.976.827c.45.3.9.677 1.426 1.052.526.376 1.051.827 1.652 1.203l3.152 2.105c.826.602 1.427.978 1.427.978s-.676-.226-1.577-.752"/><path fill="#519b3d" d="M249.837 51.724c.15-.526.225-1.128.225-1.88s-.15-1.503-.676-2.255c-.225-.376-.525-.677-.9-.977-.376-.301-.751-.602-1.202-.903-.825-.601-1.726-1.127-2.702-1.729-.9-.601-1.877-1.353-2.702-2.18-.901-.827-1.652-1.73-2.403-2.706-.675-1.053-1.05-2.18-1.5-3.308-.376-1.053-.752-2.18-1.277-3.158-.526-.977-1.051-1.955-1.727-2.706a10.2 10.2 0 0 0-2.101-1.955c-1.502-1.053-2.928-1.504-3.904-1.804-.525-.15-.9-.226-1.201-.301-.3-.075-.45-.075-.45-.075s.15 0 .45.075c.3 0 .676.075 1.201.225 1.051.226 2.552.677 4.054 1.654.825.527 1.576 1.203 2.252 1.955q1.013 1.128 1.801 2.707a24.5 24.5 0 0 1 1.352 3.232c.45 1.053.825 2.18 1.5 3.158.752.977 1.502 1.88 2.328 2.706a17.6 17.6 0 0 0 2.627 2.18c.901.602 1.877 1.203 2.703 1.805.45.3.825.676 1.2.977.376.3.751.677.977 1.053.525.827.675 1.654.675 2.405 0 .752-.225 1.354-.375 1.88-.375 1.052-.75 1.504-.75 1.504s.3-.452.525-1.58M230.544 41.274c-.15-.376-.3-.752-.525-1.053l-.45-.45c-.15-.076-.3-.226-.45-.302-.151-.15-.301-.15-.376-.225s-.15-.075-.15-.075h.15c.15 0 .3-.075.45 0 .15 0 .376.15.6.225.076.075.226.15.301.226.075.075.15.225.225.3.3.376.376.903.376 1.279-.075.375-.15.601-.15.601s-.076-.226 0-.526"/><path fill="#283f1f" d="M226.071 43.307c-.146-.818.176-1.56.72-1.657.543-.097 1.103.487 1.25 1.304.146.817-.176 1.559-.72 1.656-.544.098-1.103-.486-1.25-1.303"/><path fill="#34662d" d="M245.183 49.393a.64.64 0 0 0 0-.526c0-.15-.15-.376-.226-.526-.075-.076-.15-.15-.15-.226l-.075-.075h.075s.15 0 .225.075c.15.075.45.3.526.602a.48.48 0 0 1 0 .45c-.075.151-.15.226-.225.301-.15.15-.3.15-.3.15s.074-.15.15-.225"/><path fill="#519b3d" d="M228.593 42.627c-.225-.15-.526-.376-.826-.526-.15-.075-.375-.15-.525-.226-.15-.075-.376-.075-.526-.15-.15 0-.375-.075-.525-.075h-1.051c-.15.075-.3.075-.45.075-.226 0-.526.075-.676.075h-.3s.074-.075.225-.15c.15-.076.375-.226.675-.301.3-.15.676-.226 1.051-.226h.6c.226 0 .376.076.601.076.376.075.826.225 1.126.45.376.151.6.452.826.677.45.527.525.902.525.902s-.3-.3-.75-.601"/><path fill="#f1f2dc" d="M219.435 31.726s-2.853-7.668-9.684-10.901c-4.054-1.955-5.405-7.293-5.405-7.293 4.129 4.962 7.282 3.609 12.16 5.714 4.88 2.105 9.16 9.924 9.16 9.924-3.454-.827-6.231 2.556-6.231 2.556"/><path fill="#7cbf2e" d="M218.834 32.478c-1.126-.752-.976-3.083-.976-3.083 1.426-2.781 6.306-2.48 6.306-2.48 1.651.45 2.177 2.931 2.177 2.931"/><path fill="#519b3d" d="M225.29 27.967c-.075-.15-.225-.226-.376-.376-.15-.15-.375-.226-.6-.3-.225-.076-.45-.151-.75-.151-.226-.075-.526 0-.827 0s-.6.075-.9.15-.6.226-.901.301c-.3.075-.6.15-.9.3-.301.076-.601.226-.827.377-.525.3-.976.676-1.2 1.052-.301.376-.301.752-.301 1.053s.075.45.075.45-.075-.15-.15-.45c-.075-.226-.075-.752.15-1.203.225-.526.676-.902 1.201-1.278l.9-.451c.301-.15.677-.301.977-.376.3-.15.675-.226.976-.3.3-.076.675-.151.976-.151q.45-.112.9 0c.3 0 .6.15.826.225.225.15.45.301.6.451s.226.301.3.451c.151.301.151.451.151.451s0-.15-.3-.225"/><path fill="#c9bd9b" d="M215.606 25.561a43 43 0 0 0-2.552-2.33c-.45-.376-.976-.752-1.426-1.128a21 21 0 0 0-1.352-.902c-.375-.226-.75-.451-.976-.602a4 4 0 0 0-.375-.225s.15.075.45.15c.226.075.601.226 1.051.451.226.15.45.226.676.376.225.15.526.3.75.451.526.3.977.752 1.502 1.128.976.827 1.802 1.804 2.402 2.556s.901 1.353.901 1.353-.45-.526-1.05-1.278M211.703 17.968c-.45-.075-1.051-.226-1.652-.376a8.8 8.8 0 0 1-1.801-.677l-.901-.45c-.3-.15-.6-.301-.826-.527-.225-.15-.45-.3-.676-.526-.225-.15-.45-.3-.6-.526-.375-.376-.6-.752-.75-.978a4 4 0 0 1-.226-.376l.3.301c.15.075.225.226.376.376.15.15.375.3.525.451.15.15.375.3.6.451.226.15.526.3.751.451.3.15.526.301.826.451.225.15.526.301.826.451 1.2.602 2.477.978 3.378 1.278.9.301 1.576.452 1.576.452s-.675 0-1.726-.226"/><path fill="#7cbf2e" d="M204.721 31.726c-1.801-1.579-2.101-4.135-.825-3.534 1.276.602 3.603.076 8.032-.45 4.429-.527 6.155 3.608 3.753 6.39-2.927 3.383-9.083-.827-10.96-2.406"/><path fill="#519b3d" d="M215.456 33.605c-.375 0-.9-.075-1.501-.375-.6-.376-1.126-.903-1.652-1.504l-.075-.075-.075-.075c-.075-.076-.15-.15-.225-.15-.15-.076-.3-.076-.526-.151-.375-.075-.75-.075-1.2-.075-.826 0-1.652 0-2.478-.076-.375 0-.75-.075-1.126-.15s-.676-.15-.976-.3c-.3-.076-.525-.226-.75-.376-.226-.15-.376-.226-.526-.376a5 5 0 0 0-.375-.451s.15.15.45.375c.15.076.375.15.6.301.3.075.526.226.826.3.3.076.6.151.976.226.376 0 .75.076 1.126.076h2.477c.376 0 .826.075 1.277.15q.338 0 .675.225l.225.226.075.075c.15.075.076.075.15.15.451.602.901 1.203 1.427 1.504.45.3.976.451 1.351.526s.6.076.6.076-.15 0-.75-.076M213.88 35.485c-.601.15-1.427.225-2.252.075-.226-.075-.376-.075-.601-.15-.225 0-.45-.075-.6-.15a4 4 0 0 1-.526-.226l-.45-.226c-.3-.15-.45-.376-.6-.45-.151-.076-.226-.151-.226-.151s.075 0 .225.075.375.226.676.3c.525.151 1.276.377 2.026.527.376.075.751.15 1.126.15h.976c.6 0 .976-.075.976-.075s-.3.15-.75.3M216.432 30.147c-.15-.3-.375-.601-.75-.977q-.451-.564-1.352-.902l-.9-.226h-.977c-1.276.075-2.627.3-3.678.376-1.05.075-1.727 0-1.727 0s.676-.075 1.652-.3c.976-.151 2.252-.527 3.678-.602.376 0 .676 0 1.051.075.3.075.676.15.976.3.6.301 1.126.677 1.426 1.128.3.452.526.827.6 1.128.151.3.151.451.151.451s-.075-.15-.15-.45"/></g></svg>