<svg xmlns="http://www.w3.org/2000/svg" width="95.066" height="246.886"><g stroke-miterlimit="10" data-paper-data="{&quot;isPaintingLayer&quot;:true}" style="mix-blend-mode:normal"><g stroke-width="0" data-paper-data="{&quot;origPos&quot;:null}"><path fill="#4c392b" d="M61.114 52.569c-4.722 8.228-20.899 8.586-27.529.45 2.746-.966 6.59-2.372 6.59-2.372l.637-8.212 12.99-.187.769 7.878s5.866 2.115 6.543 2.443" data-paper-data="{&quot;origPos&quot;:null}"/><path d="m40.903 42.461 12.99-.187.695 7.792c-3.523.041-11.581-.282-14.156-2.287z" data-paper-data="{&quot;origPos&quot;:null}"/></g><g data-paper-data="{&quot;origPos&quot;:null}"><path fill="#4c392b" d="M62.914 20.813c.071-.006 1.82-1.462 2.665.697.656 1.678-.99 6.671-2.894 8.015-1.553 10.498-2.8 17.633-15.443 17.497-12.072.224-13.866-7.754-15.861-16.872-2.059-2.874-2.65-4.359-3.091-6.664-.398-1.868.964-3.787 2.821-2.716.223-13.256 6.611-18.5 16.503-18.885 9.893-.385 15.85 8.93 15.3 18.928" data-paper-data="{&quot;origPos&quot;:null}"/></g><g stroke-width="0"><path fill="#4c392b" d="M65.686 52.919c2.807.508 3.925.077 6.89 3.038 8.823 8.811 11.853 36.081 12.992 40.61-.055 2.113.383 5.75-2.964 6.528-3.305.768-6.101-.807-7.192-3.26-1.014-3.54-4.491-16.612-5.906-20.886" data-paper-data="{&quot;origPos&quot;:null,&quot;origRot&quot;:0,&quot;index&quot;:null}"/><path fill="#28886a" d="M64.771 53.133c3.26.482 6.012.17 9.594 3.638 7.172 6.943 9.515 16.278 11.274 25.42-2.358 1.13-14.72 4.404-17.219 5.3" data-paper-data="{&quot;origPos&quot;:null,&quot;index&quot;:null}"/></g><g stroke-width="0"><path fill="#4c392b" d="M25.56 79.23c-1.414 4.275-4.892 17.347-5.906 20.886-1.09 2.454-3.887 4.028-7.192 3.26-3.347-.777-2.908-4.414-2.964-6.527 1.14-4.53 4.169-31.8 12.993-40.61 2.964-2.961 4.082-2.53 6.89-3.039" data-paper-data="{&quot;origPos&quot;:null,&quot;origRot&quot;:0,&quot;index&quot;:null}"/><path fill="#28886a" d="M27.706 87.562c-2.499-.897-15.495-4.451-17.853-5.583 1.76-9.14 4.103-18.476 11.274-25.42 3.583-3.468 6.335-3.155 9.595-3.637" data-paper-data="{&quot;origPos&quot;:null,&quot;index&quot;:null}"/></g><path fill="#68476e" d="M20.718 139.683c1.158-17.17 4.542-27.08 4.542-27.08l23.539.247s1.297 11.107-1.13 26.725c-1.115 7.177-4.287 34.995-4.287 34.995-.682 6.632-4.748 11.772-12.149 11.39-9.64-.5-10.55-8.278-10.724-12.277.1-7.72-.702-20.495.209-34" data-paper-data="{&quot;origPos&quot;:null,&quot;origRot&quot;:0}"/><path fill="#68476e" d="M73.325 139.025c1.131 13.489 1.1 26.264 1.327 33.981-.11 4-1.458 11.524-11.09 12.18-7.393.503-10.984-4.86-11.761-10.635 0 0-4.194-28.036-5.426-35.193-2.682-15.576-2.14-26.512-2.14-26.512L69.732 112s2.153 9.877 3.592 27.025" data-paper-data="{&quot;origPos&quot;:null,&quot;origRot&quot;:0,&quot;index&quot;:null}"/><path fill="none" d="M52.81 36.549c-2.802 1.07-7.46 1.41-10.55.11" data-paper-data="{&quot;origPos&quot;:null,&quot;origRot&quot;:0,&quot;index&quot;:null}"/><path fill="none" stroke="#000" stroke-linecap="round" stroke-width="2" d="M34.953 16.973c2.637-.751 6.191-.49 8.219.304" data-paper-data="{&quot;origPos&quot;:null,&quot;origRot&quot;:0}"/><path fill="none" stroke="#000" stroke-linecap="round" stroke-width="2" d="M51.452 17.392c2.028-.794 5.582-1.055 8.22-.304" data-paper-data="{&quot;origPos&quot;:null,&quot;origRot&quot;:0,&quot;index&quot;:null}"/><path fill="#3d9e7f" d="M48.788 125.205c-12.972.138-25.949-4.38-25.949-4.38l1.924-66.96s8.863-2.113 12.562-2.369c2.376 8.851 18.174 9.318 21.096-.087 1.29.467 11.253 2.093 11.253 2.093l2.593 66.157S59.625 125 48.788 125.205" data-paper-data="{&quot;origPos&quot;:null}"/><g data-paper-data="{&quot;origPos&quot;:null}"><path fill="#fff" d="M56.31 25.182c-2.291.317-4.404-.318-4.72-1.417-.315-1.1 1.286-2.248 3.577-2.565s4.586-.031 4.902 1.068c.315 1.1-1.47 2.597-3.76 2.914" data-paper-data="{&quot;origPos&quot;:null,&quot;origRot&quot;:0}"/><path d="M57.336 20.927c3.09.118 3.71 2.16 1.28 3.563-1.345.77-2.804.708-3.373-.905-.878-2.487.612-2.668 2.093-2.658" data-paper-data="{&quot;origPos&quot;:null,&quot;origRot&quot;:0}"/><path fill="none" stroke="#000" stroke-linecap="round" stroke-width="1.5" d="M51.487 22.505c2.19-1.609 6.007-1.681 8.233-.812" data-paper-data="{&quot;origPos&quot;:null,&quot;origRot&quot;:0}"/></g><g data-paper-data="{&quot;origPos&quot;:null}"><path fill="#fff" d="M38.446 25.337c-2.31-.193-3.986-1.835-3.761-3.026.224-1.191 2.265-1.48 4.576-1.288 2.31.193 4.055 1.405 3.83 2.597s-2.334 1.91-4.645 1.717" data-paper-data="{&quot;origPos&quot;:null,&quot;origRot&quot;:0}"/><path d="M37.99 23.648c-.214-1.604.7-2.376 2.199-2.436 3.053.322 4.144 3.03 1.184 3.913-1.634.482-3.154.385-3.383-1.477" data-paper-data="{&quot;origPos&quot;:null,&quot;origRot&quot;:0}"/><path fill="none" stroke="#000" stroke-linecap="round" stroke-width="1.5" d="M34.668 21.852c2.579-1.177 6.279-.765 8.2.501" data-paper-data="{&quot;origPos&quot;:null,&quot;origRot&quot;:0}"/></g><g fill="none" stroke="none" stroke-linecap="round" stroke-width="0" data-paper-data="{&quot;origPos&quot;:null}"><path d="M44.338 30.36s1.75-.414 2.118.447M48.57 30.841c.233-.844 1.73-.625 1.73-.625" data-paper-data="{&quot;origPos&quot;:null}"/></g><g stroke-width="0" data-paper-data="{&quot;origPos&quot;:null}"><path d="M32.52 7.181s4.177-5.036 15.394-5.117c9.955-.072 15.052 5.503 15.052 5.503l.114 12.379s-.835-7.187-2.168-8.325c-6.194-5.009-19.03-4.427-26.62-.705-2.265 1.685-2.28 9.218-2.82 8.584z" data-paper-data="{&quot;origPos&quot;:null,&quot;index&quot;:null}"/><g data-paper-data="{&quot;origPos&quot;:null}"><path d="M32.516 6.756a2.172 2.172 0 1 1 4.343 0 2.172 2.172 0 0 1-4.343 0M38.693 3.306a2.172 2.172 0 1 1 4.343 0 2.172 2.172 0 0 1-4.343 0" data-paper-data="{&quot;origPos&quot;:null}"/><path d="M35.339 4.44a2.172 2.172 0 1 1 4.343 0 2.172 2.172 0 0 1-4.343 0M42.433 2.461a2.172 2.172 0 1 1 4.343 0 2.172 2.172 0 0 1-4.343 0" data-paper-data="{&quot;origPos&quot;:null}"/><path d="M46.125 2.172a2.172 2.172 0 1 1 4.343 0 2.172 2.172 0 0 1-4.343 0" data-paper-data="{&quot;origPos&quot;:null}"/><path d="M49.817 2.63a2.172 2.172 0 1 1 4.343 0 2.172 2.172 0 0 1-4.343 0" data-paper-data="{&quot;origPos&quot;:null}"/><path d="M53.195 3.306a2.172 2.172 0 1 1 4.343 0 2.172 2.172 0 0 1-4.343 0" data-paper-data="{&quot;origPos&quot;:null}"/><path d="M56.308 4.73a2.172 2.172 0 1 1 4.343 0 2.172 2.172 0 0 1-4.343 0" data-paper-data="{&quot;origPos&quot;:null}"/><path d="M58.648 7.142a2.172 2.172 0 1 1 4.344 0 2.172 2.172 0 0 1-4.344 0" data-paper-data="{&quot;origPos&quot;:null}"/></g></g><g fill="none" stroke="#815489" stroke-width="1.5" data-paper-data="{&quot;origPos&quot;:null}"><path d="M33.595 26.513c-1.505-1.26-1.736-3.955-1.736-5.776 0-2.213 11.237-2.1 12.815-.538.688.682.73 4.34-.869 6.055-1.6 1.715-8.875 1.378-10.21.259z" data-paper-data="{&quot;origPos&quot;:null}"/><path d="M63.08 20.925c0 1.821-.23 4.515-1.735 5.776-1.335 1.119-8.922 1.093-10.41-.503-1.6-1.715-1.52-4.77-.891-5.922 1.01-1.854 13.036-1.564 13.036.649z" data-paper-data="{&quot;origPos&quot;:null,&quot;index&quot;:null}"/><path stroke-linecap="round" d="M45.036 20.457s1.485-.598 2.487-.564 2.212.725 2.212.725" data-paper-data="{&quot;origPos&quot;:null}"/></g><g fill="none" stroke="#000" stroke-linecap="round" stroke-width="1.5" data-paper-data="{&quot;origPos&quot;:null}"><path d="M44.66 30.384s1.739-.425 2.103.46M48.862 30.879c.231-.868 1.717-.642 1.717-.642" data-paper-data="{&quot;origPos&quot;:null}"/></g><path fill="#765843" d="M45.445 35.206c.732.08 1.418.364 1.96.811a3.73 3.73 0 0 1 1.968-.811c1.021.138 2.014.412 2.945.811 0 0-.168 2.52-2.13 3.332-1.568.603-3.26.683-4.828.08-1.228-.539-2.17-1.547-2.867-2.6 0 0 1.968-1.623 2.952-1.623" data-paper-data="{&quot;origPos&quot;:null}"/><path fill="none" stroke="#000" stroke-linecap="round" stroke-width="1.5" d="M53.083 36.57c-2.927 1.036-7.793 1.367-11.021.106" data-paper-data="{&quot;origPos&quot;:null,&quot;origRot&quot;:0,&quot;index&quot;:null}"/><g data-paper-data="{&quot;origPos&quot;:null}"><g stroke-linecap="round" data-paper-data="{&quot;origPos&quot;:null,&quot;origRot&quot;:0,&quot;index&quot;:null}"><path fill="#fff" d="M34.238 228.889s3.463 5.163 6.329 7.304 11.667 1.139 7.783 6.348c-2.655 3.561-7.308 2.852-11.834 2.224-3.825-.531-4.177-4.49-8.038-4.518-4.095-.031-7.974.555-10.308-2.1-.83-.945 2.93-10.048 2.93-10.048s4.13 1.983 6.282 2.037c2.661.066 6.856-1.247 6.856-1.247" data-paper-data="{&quot;origPos&quot;:null}"/><path fill="#a5a5a5" d="M19.552 241.416c-1.955-1.032-1.858-1.74-1.534-3.432 2.954 1.845 2.4 2.328 10.277 1.806 2.819.281 4.41 3.34 7.933 4.46 9.366 1.907 11.799-1.674 13.132-3.094-.03 1.096-.302 2.238-.79 2.893-2.655 3.561-7.176 3-11.703 2.372-6.443-1.534-5.036-4.258-8.897-4.287-4.096-.03-5.74.697-8.418-.718" data-paper-data="{&quot;origPos&quot;:null}"/><path fill="none" stroke="#000" stroke-width="1.5" d="m37.779 237.919 2.298-2.038M38.145 233.831l-2.178 2.045M34.043 233.705l2.291-1.917" data-paper-data="{&quot;origPos&quot;:null}"/></g><path fill="#68476e" d="M20.464 175.887c.928-8.947 5.518-14.557 11.949-13.957 6.463-.455 10.472 4.192 10.72 14.349l-2.096 55.653s-6.277 2.323-10.528 2.015c-3.94-.286-12.381-2.925-12.381-2.925s2.207-54.811 2.336-55.135" data-paper-data="{&quot;origPos&quot;:null,&quot;origRot&quot;:0}"/></g><g data-paper-data="{&quot;origPos&quot;:null}"><g stroke-linecap="round" data-paper-data="{&quot;origPos&quot;:null,&quot;origRot&quot;:0}"><path fill="#fff" d="M81.994 236.209c2.935 2.045 11.698.754 7.988 6.088-2.537 3.646-7.21 3.09-11.755 2.611-3.84-.404-4.322-4.349-8.182-4.25-4.094.103-7.952.817-10.372-1.76-.86-.917 2.599-10.139 2.599-10.139s3.549 1.649 7.25 1.75c1.234.033 5.906-1.393 5.906-1.393s3.632 5.047 6.566 7.093" data-paper-data="{&quot;origPos&quot;:null,&quot;index&quot;:null}"/><path fill="#a5a5a5" d="M59.516 238.74c3.013 1.747 2.475 2.248 10.33 1.467 2.828.188 4.519 3.192 8.077 4.197 9.423 1.598 11.737-2.061 13.023-3.525.005 1.097-.228 2.247-.695 2.918-2.536 3.646-7.073 3.235-11.618 2.756-6.49-1.321-5.174-4.09-9.034-3.993-4.094.104-5.713.886-8.436-.44-1.988-.968-1.915-1.679-1.647-3.38" data-paper-data="{&quot;origPos&quot;:null,&quot;index&quot;:null}"/><path fill="none" stroke="#000" stroke-width="1.5" d="m81.494 235.913-2.23 2.112M77.387 236.043l2.11-2.115M75.392 233.937l2.227-1.992" data-paper-data="{&quot;origPos&quot;:null,&quot;index&quot;:null}"/></g><path fill="#68476e" d="M67.016 234.668c-4.23.515-11.74-1.485-11.74-1.485l-3.104-55.52c-.246-10.157 4.377-14.736 10.854-14.595 6.394-.911 10.126 4.217 11.487 13.107.144.318 4.448 54.68 4.448 54.68s-8.023 3.336-11.945 3.813" data-paper-data="{&quot;origPos&quot;:null,&quot;origRot&quot;:0,&quot;index&quot;:null}"/></g><path fill="#4c392b" d="M93.837 132.137s1.18 3.03 1.23 4.24c-.052.384.16 3.443-1.07 3.234-1.1-.08-.671-1.336-.947-2.442-.27-1.081-.996-3.263-.996-3.263s.454 2.616.488 4.165c-.22 1.526.185 4.616-1.357 4.41-1.284-.4-.71-2.923-.835-3.501-.285-1.318-.451-3.447-.99-3.631.178 1.327.33 2.972.328 4.298-.003 1.113-.205 3.454-.852 4.408-.515.759-1.528.837-1.83-.014-.24-.5.24-3.03.206-3.567-.105-1.611-.08-3.346-.652-4.225a32 32 0 0 1-.247 5.431c-.263 1.93-1.114 4.69-1.982 4.403-2.339-.387-.318-3.34-.456-5.717-.155-2.664-.643-3.342-1.487-5.877-.574 1.307.084 3.015-.973 4.224-1.365 1.242-1.96.005-1.945-.515.055-1.83-.864-5.118-.218-6.869.553-1.816 1.049-4.172 1.794-6.123-.159-2.048-5.043-18.58-5.749-25.529-.005-.049.097-5.017 3.87-5.501 3.766-.726 6.059 2.432 6.384 3.68 2.71 5.756 3.662 26.185 3.662 26.185zM5.854 124.323s.952-20.43 3.66-26.186c.326-1.247 2.62-4.406 6.386-3.68 3.773.485 3.874 5.453 3.869 5.501-.706 6.949-5.59 23.482-5.749 25.53.745 1.951 1.241 4.306 1.794 6.123.646 1.75-.273 5.038-.217 6.869.013.52-.58 1.756-1.946.515-1.057-1.21-.399-2.917-.973-4.224-.843 2.534-1.332 3.212-1.486 5.877-.138 2.376 1.882 5.33-.457 5.716-.868.287-1.72-2.473-1.982-4.402a32 32 0 0 1-.247-5.432c-.573.879-.547 2.614-.651 4.225-.035.537.445 3.068.205 3.567-.302.852-1.315.774-1.83.014-.646-.953-.85-3.294-.851-4.407-.003-1.327.149-2.971.326-4.299-.537.185-.704 2.313-.989 3.631-.125.578.45 3.101-.835 3.5-1.541.207-1.137-2.882-1.357-4.408.034-1.55.488-4.166.488-4.166s-.726 2.182-.996 3.264c-.276 1.106.154 2.362-.946 2.441-1.232.21-1.02-2.85-1.07-3.234.049-1.209 1.23-4.24 1.23-4.24z" data-paper-data="{&quot;origPos&quot;:null,&quot;origRot&quot;:0,&quot;index&quot;:null}"/></g></svg>