<svg xmlns="http://www.w3.org/2000/svg" width="123.537" height="110.62" viewBox="0 0 123.537 110.62"><g stroke-miterlimit="10" data-paper-data="{&quot;isPaintingLayer&quot;:true}" style="mix-blend-mode:normal"><g stroke-linejoin="round" data-paper-data="{&quot;index&quot;:null,&quot;origPos&quot;:null,&quot;origRot&quot;:0}"><path fill="#fff" stroke="#627191" stroke-width=".25" d="M111.942 50.046c-4.846.12-4.135-1.785-11.963-2.15-5.361-.25-15.17 2.205-15.211-5.508-.168-8.298 8.866-6.756 15.961-6.933 3.226-.416 6.801-1.68 10.36-1.526 10.49.453 12.46 5.478 12.299 9.2-.193 4.44-6.601 6.797-11.446 6.917z" data-paper-data="{&quot;origPos&quot;:null,&quot;index&quot;:null,&quot;origRot&quot;:0}"/><path fill="#627191" d="M99.768 47.445c-5.347-.529-15.095 2.028-15-5.057-.188-6.869 8.866-6.756 15.961-6.933 3.226-.416 6.861-.785 10.42-.631 8.03.49 11.585 4.116 11.423 7.838-.193 4.441-6.205 6.272-11.05 6.393s-6.892-1.13-11.754-1.61" data-paper-data="{&quot;origPos&quot;:null,&quot;index&quot;:null,&quot;origRot&quot;:0}"/><path fill="none" stroke="#fff" stroke-linecap="round" d="m109.078 37.824-2.92 8.482-1.922-8.803-3.012 8.595-1.982-8.662s.837 2.144.7 4.309c-.142 2.234-1.12 4.203-1.12 4.203l3.15-8.46 1.493 8.615 3.167-8.524 2.198 8.767 2.702-8.366s1.085 2.323.965 4.124c-.12 1.802-1.218 4.172-1.218 4.172z" data-paper-data="{&quot;origPos&quot;:null,&quot;origRot&quot;:0}"/><path fill="#fff" d="M116.932 41.952c.058-2.052.276-5.257.276-5.257s4.862 2.512 4.86 5.544c-.002 4.104-5.157 5.004-5.157 5.004s-.037-3.226.021-5.29" data-paper-data="{&quot;origPos&quot;:null,&quot;origRot&quot;:0}"/></g><g stroke-linejoin="round" data-paper-data="{&quot;origPos&quot;:null,&quot;origRot&quot;:0,&quot;index&quot;:null}"><path fill="#fff" stroke="#627191" stroke-width=".25" d="M111.957 60.305c4.845.12 11.253 2.476 11.446 6.917.162 3.722-1.81 8.747-12.299 9.2-3.558.153-7.134-1.11-10.36-1.526-7.095-.177-16.129 1.364-15.96-6.933.04-7.713 9.85-5.258 15.21-5.508 7.829-.365 7.118-2.271 11.963-2.15z" data-paper-data="{&quot;origPos&quot;:null,&quot;index&quot;:null,&quot;origRot&quot;:0}"/><path fill="#627191" d="M111.537 61.296c4.845.12 10.857 1.952 11.05 6.393.162 3.721-3.393 7.348-11.423 7.838-3.559.154-7.194-.215-10.42-.631-7.095-.177-16.149-.064-15.96-6.933-.096-7.085 9.652-4.528 15-5.057 4.861-.48 6.908-1.73 11.753-1.61" data-paper-data="{&quot;origPos&quot;:null,&quot;index&quot;:null,&quot;origRot&quot;:0}"/><path fill="none" stroke="#fff" stroke-linecap="round" d="M111.295 64.075s1.098 2.37 1.217 4.171c.12 1.802-.964 4.124-.964 4.124l-2.703-8.365-2.197 8.767-3.167-8.524-1.494 8.614-3.149-8.46s.977 1.97 1.118 4.204c.138 2.165-.698 4.309-.698 4.309l1.98-8.663 3.013 8.596 1.923-8.804 2.92 8.483z" data-paper-data="{&quot;origPos&quot;:null,&quot;origRot&quot;:0}"/><path fill="#fff" d="M116.926 63.107s5.155.901 5.158 5.004c.002 3.032-4.86 5.545-4.86 5.545s-.219-3.206-.276-5.257c-.059-2.065-.022-5.292-.022-5.292" data-paper-data="{&quot;origPos&quot;:null,&quot;origRot&quot;:0}"/></g><path fill="#f6dbc4" d="M97.814 88.986c-.963 3.265 1.392 2.528 2.158 1.898.872-.716-1.319-3.908.627-4.325 1.332-.285 2.739 4.597 2.413 8.149-.547 5.143-19.658 11.255-12.588 1.218.355-6.22 9.515-14.14 7.39-6.94" data-paper-data="{&quot;origPos&quot;:null,&quot;origRot&quot;:0,&quot;index&quot;:null}"/><g stroke-width="0" data-paper-data="{&quot;origPos&quot;:null,&quot;origRot&quot;:0,&quot;index&quot;:null}"><path fill="#5083ab" d="m89.823 84.963-.957-58.705 15.482 10.344s8.232 5.556.537 11.048c-3.355.505-6.182-.687-6.182-.687l-.153 18.064s4.216-2.008 6.377-2.057c6.353 4.63.112 10.821.112 10.821z" data-paper-data="{&quot;origPos&quot;:null}"/><path fill="#cddce7" d="M103.847 35.934s11.701 6.013 1.295 12.287c-.79.119-1.1-.933-3.43-.562 4.605-4.807 4.85-7.68.15-13.781zM104.365 62.258c9.288 5.295.532 12.147.532 12.147l-2.958 2.48c3.484-5.489 4.568-8.905-.256-14.143 2.59.324 2.123-.472 2.682-.484" data-paper-data="{&quot;origPos&quot;:null}"/></g><path fill="#f6dbc4" d="M98.172 24.396c1.162 7.417-6.88-1.636-6.416-7.85-5.692-10.877 12.452-2.31 12.319 2.86-.143 3.564-2.178 8.22-3.462 7.761-1.874-.668.717-3.545-.053-4.37-.677-.725-2.915-1.764-2.388 1.599" data-paper-data="{&quot;origPos&quot;:null,&quot;origRot&quot;:0,&quot;index&quot;:null}"/><path fill="#9383d1" d="M88.077 50.36q-.021.015 0 0" data-paper-data="{&quot;origPos&quot;:null,&quot;origRot&quot;:0,&quot;index&quot;:null}"/><g data-paper-data="{&quot;origPos&quot;:null,&quot;origRot&quot;:0,&quot;index&quot;:null}"><path fill="#f6dbc4" d="M101.393 18.92c.691 3.602-11.931 3.218-19.513 2.288s-11.883-3.236-13.012-9.37C67.762 5.832 75.19 4.005 83.017 6.83c8.201 2.962 17.117 5.53 18.376 12.09" data-paper-data="{&quot;origPos&quot;:null,&quot;origRot&quot;:0,&quot;index&quot;:null}"/><g stroke-width=".5" data-paper-data="{&quot;origPos&quot;:null,&quot;origRot&quot;:0}"><path fill="#d1b29b" d="M95.034 15.689c.06-.36.428-.598.823-.533.396.065.668.408.61.767-.06.36-.427.598-.823.534-.395-.065-.668-.409-.61-.768M71.715 11.675c.059-.36.427-.598.823-.534.395.065.668.409.61.768-.06.36-.428.598-.823.533-.396-.065-.669-.408-.61-.767M77.35 11.234c.05-.31.368-.516.709-.46s.576.352.525.662-.368.515-.709.46c-.34-.056-.576-.353-.525-.662M73.605 9.404c.059-.36.427-.598.823-.533s.668.408.61.767c-.06.36-.428.598-.823.533-.396-.064-.669-.408-.61-.767M87.707 14.296c.035-.214.254-.356.49-.317.235.038.397.243.362.456s-.254.356-.49.318c-.234-.039-.397-.243-.362-.457M83.368 9.158c.035-.213.254-.355.49-.317.235.039.397.243.362.457s-.254.356-.49.317c-.234-.038-.397-.243-.362-.457M84.277 14.024c.035-.214.255-.356.49-.317s.397.243.362.456-.254.356-.489.318c-.235-.039-.398-.243-.363-.457M82.255 13.114c.035-.214.254-.356.49-.317.235.038.397.243.362.456s-.254.356-.49.317c-.235-.038-.397-.242-.362-.456M79.715 11.83c.035-.214.254-.356.49-.318.234.039.397.243.362.457s-.254.356-.49.317c-.235-.038-.397-.243-.362-.457" data-paper-data="{&quot;origPos&quot;:null}"/><path fill="#bda18b" d="M74.759 12.863c.043-.267.317-.444.61-.396s.496.303.452.57-.317.443-.61.395-.496-.303-.452-.57M80.636 14.03c.066-.403.479-.67.922-.598s.75.458.683.86c-.066.403-.478.671-.922.598-.443-.072-.75-.457-.683-.86M89.98 12.315c.062-.384.456-.64.879-.57.423.069.715.436.652.82s-.457.64-.88.57c-.423-.069-.714-.436-.651-.82" data-paper-data="{&quot;origPos&quot;:null}"/><path fill="#d1b29b" d="M78.977 13.377c-.045-.167.066-.33.247-.365.18-.036.363.07.407.236.045.167-.066.33-.247.365-.18.036-.363-.07-.407-.236M91.534 10.945c-.044-.166.067-.33.247-.365.181-.035.364.07.408.237s-.066.33-.247.365c-.18.035-.363-.07-.408-.237" data-paper-data="{&quot;origPos&quot;:null,&quot;origRot&quot;:0}"/><path fill="#d1b29b" d="M93.442 12.605c.055-.334.397-.556.766-.496.368.06.622.38.567.715-.054.334-.397.556-.766.496-.368-.06-.622-.38-.567-.715M89.527 9.956c.046-.279.331-.464.638-.414s.519.317.473.596c-.045.278-.331.464-.638.413-.307-.05-.519-.317-.473-.595" data-paper-data="{&quot;origPos&quot;:null}"/><path fill="#bda18b" d="M84.225 12.309c.047-.285.34-.475.653-.423.314.051.53.324.484.609s-.34.475-.653.423c-.314-.051-.53-.324-.484-.609" data-paper-data="{&quot;origPos&quot;:null}"/></g></g><g data-paper-data="{&quot;origRot&quot;:0,&quot;index&quot;:null,&quot;origPos&quot;:null}"><path fill="#f6dbc4" d="M99.926 94.89c-1.862 6.416-10.977 8.145-19.418 10.333-8.055 2.089-15.282-.42-13.624-6.297 1.694-6.003 6.19-7.901 13.826-8.123 7.635-.223 20.239.566 19.216 4.088" data-paper-data="{&quot;origPos&quot;:null,&quot;origRot&quot;:0,&quot;index&quot;:null}"/><g stroke-width=".5" data-paper-data="{&quot;origPos&quot;:null,&quot;origRot&quot;:0}"><path fill="#d1b29b" d="M82.9 97.862c-.064-.358.204-.706.599-.777.394-.07.766.163.83.52.064.36-.203.707-.598.778-.395.07-.766-.163-.83-.521M77.033 101.122c-.064-.358.203-.706.598-.777.394-.07.766.163.83.52.065.36-.203.707-.598.778-.394.07-.766-.163-.83-.521M91.96 101.038c-.039-.213.12-.42.355-.462s.456.096.494.31c.038.213-.121.42-.356.461s-.456-.096-.494-.31M82.398 99.483c-.038-.213.121-.42.356-.462s.456.097.494.31-.121.42-.356.462-.456-.096-.494-.31M81.166 97.143c-.038-.213.122-.42.356-.462.235-.042.456.097.494.31s-.12.42-.356.462c-.234.042-.455-.097-.494-.31M86.425 101.739c-.039-.213.12-.42.355-.462s.456.097.494.31c.039.213-.12.42-.355.462s-.456-.097-.494-.31M83.602 101.374c-.038-.213.12-.42.355-.462s.456.097.495.31-.122.42-.356.462c-.235.042-.456-.097-.494-.31" data-paper-data="{&quot;origPos&quot;:null}"/><path fill="#bda18b" d="M79.82 98.358c-.047-.266.151-.524.444-.577s.569.12.616.387c.048.266-.15.523-.443.576s-.569-.12-.616-.386M79.38 101.491c-.071-.402.229-.791.671-.87.442-.08.86.181.931.583s-.228.792-.67.87c-.443.08-.86-.181-.931-.583M87.87 99.666c-.07-.383.217-.755.639-.83.421-.076.819.174.888.557.068.383-.218.755-.64.83-.422.076-.82-.174-.888-.557" data-paper-data="{&quot;origPos&quot;:null}"/><path fill="#d1b29b" d="M76.685 99.311c-.097-.141-.047-.332.111-.426.16-.094.367-.054.464.087.097.142.047.333-.112.427-.158.094-.366.054-.463-.088M94.137 97.448c-.097-.142-.047-.333.111-.426.159-.094.366-.055.464.087.097.142.047.333-.112.427-.158.093-.366.054-.463-.088M94.416 95.594c-.097-.142-.047-.333.111-.427.159-.093.366-.054.464.088.097.142.047.333-.112.426-.158.094-.366.055-.463-.087M89.698 96.761c-.097-.142-.047-.333.112-.426.158-.094.366-.055.463.087s.047.333-.111.427c-.159.093-.366.054-.464-.088" data-paper-data="{&quot;origPos&quot;:null,&quot;origRot&quot;:0}"/><path fill="#d1b29b" d="M96.803 97.534c-.06-.334.19-.658.557-.724s.714.152.773.485c.06.334-.19.658-.557.723-.367.066-.713-.15-.773-.484" data-paper-data="{&quot;origPos&quot;:null}"/><path fill="#bda18b" d="M78.826 99.565c-.051-.285.161-.56.475-.617s.608.13.659.413c.05.285-.162.56-.475.617s-.608-.13-.659-.413" data-paper-data="{&quot;origPos&quot;:null}"/></g></g><g data-paper-data="{&quot;index&quot;:null,&quot;origPos&quot;:null}"><path fill="#a69bd1" d="M94.844 24.603c2.718.257 12.214 10.087 11.429 34.61-1.262 18.52-5.582 26.647-11.071 27.909-3.698.03-3.098.568-5.464 3.588 2.277 5.251 1.242 4.478 1.134 8.227-.123 4.28-4.684 10.21-8.83 8.25-3.11 1.228-5.049 3.383-8.382 3.43-6.938.104-27.334-1.929-28.049-54.253C44.841-.021 69.236-.372 75.814.06c3.116.323 6.26 1.94 9.158 3.154 5.248-2.21 8.499 5.212 7.971 9.908-1.155 5.943-1.76 5.245-2.912 8.765 2.514 1.52 2.691 3.312 4.813 2.263zm-22.773 8.38c-11.642 0-20.6 11.288-20.6 22.334s10.56 23 22.202 23 11.283-18.62 23.93-23c-11.112-2.712-13.89-22.333-25.532-22.333" data-paper-data="{&quot;origPos&quot;:null,&quot;index&quot;:null,&quot;origRot&quot;:0}"/><path fill="#9383d1" d="M97 71.17s3.181-8.45 3.173-15.512c-.005-5.432-3.548-19.836-3.548-19.836l3.076-7.077s6.898 7.81 6.851 25.806c-.05 17.595-4.676 26.108-4.676 26.108z" data-paper-data="{&quot;origPos&quot;:null,&quot;origRot&quot;:0,&quot;index&quot;:null}"/><g fill="#9383d1" stroke-width=".5" data-paper-data="{&quot;origPos&quot;:null,&quot;origRot&quot;:0}"><path d="M97.606 50.565c-.271 0-.491-.725-.491-1.62 0-.894.22-1.619.49-1.619.272 0 .491.725.491 1.62 0 .894-.22 1.619-.49 1.619" data-paper-data="{&quot;origPos&quot;:null}"/><path d="m97.974 50.05-7.498-.51s-.984-.068-.966-1.565c.018-1.498.996-.917.996-.917 2.487.17 4.868.464 7.377 1.187 1.301.374 2.153 1.945.091 1.804" data-paper-data="{&quot;origPos&quot;:null,&quot;origRot&quot;:0}"/></g><g fill="#9383d1" stroke-width=".5" data-paper-data="{&quot;origPos&quot;:null,&quot;origRot&quot;:0}"><path d="M97.694 63.346c-.256 0-.463-.802-.463-1.792s.207-1.792.463-1.792.464.802.464 1.792-.208 1.792-.464 1.792" data-paper-data="{&quot;origPos&quot;:null}"/><path d="M97.995 62.43c-1.706.935-4.755 2.098-6.53 2.264 0 0-.747.235-.765-1.21-.018-1.447.83-1.526.83-1.526 2.409-.225 5.39-.974 6.169-1.069.259-.031.405-.046.664-.065 1.018-.075.723 1.008-.368 1.606" data-paper-data="{&quot;origPos&quot;:null,&quot;origRot&quot;:0}"/></g></g><path fill="#ab7b70" d="M51.826 96.576c-36.276-.1-55.291-32.807-45.24-47.614C-.167 32.22 31.709 15.354 54.487 15.428c26.276.069 20.618 7.734 32.666 13.869 6.817 3.471 13.158 2.26 13.407 16.093-1.203-1.88-5.11-3.233-5.11-3.233s5.823 4.393 5.037 8.843c-3.8-12.811-45.067-24.488-45.14 6.888-.059 24.825 43.534 23.379 44.395 8.228.494 2.183-3.231 7.584-3.231 7.584s1.961-1.045 3.03-3.239c-.389 5.143-5.357 8.49-5.357 8.49s3.341-1.76 4.971-4.955c-1.548 11.693-8.362 10.087-17.353 12.957s-7.393 9.686-29.976 9.623" data-paper-data="{&quot;origPos&quot;:null,&quot;index&quot;:null}"/><path fill="#f6dbc4" d="M87.583 74.386c-4.618 6.166-11.862 6.741-19.271 8.282-5.916 3.115-12.959 7.797-15.347 5.83-2.59-2.133 8.383-5.698-1.099-3.408s-42.89 6.743-42.67-29.82C9.905 17.96 42.065 22.259 49.322 24.38c16.098 3.357 3.208 1.634 6.31-2.71 2.643-.985 8.739 2.28 13.487 6.498 6.368 1.046 14.602 3.387 18.547 8.645 4.147 5.527 2.472 13.089 4.404 14.57 2.062 1.581 3.94 4.754.832 6.707-2.412 1.516-1.086 10.646-5.318 16.297" data-paper-data="{&quot;origPos&quot;:null,&quot;index&quot;:null}"/><g stroke-width=".5" data-paper-data="{&quot;origPos&quot;:null,&quot;index&quot;:null}"><path fill="#d1b29b" d="M87.402 46.01c-.364 0-.659-.325-.659-.725 0-.401.295-.726.66-.726.363 0 .658.325.658.726s-.295.725-.659.725M86.543 41.452c-.304 0-.55-.27-.55-.605s.246-.604.55-.604c.303 0 .549.27.549.604s-.246.605-.55.605M86.062 71.626c-.314 0-.569-.28-.569-.626 0-.345.255-.626.569-.626s.568.28.568.626-.255.626-.568.626M84.694 75.617c-.364 0-.659-.325-.659-.726s.295-.726.66-.726c.363 0 .658.325.658.726s-.295.726-.659.726M87.41 60.91c-.216 0-.392-.194-.392-.432 0-.239.176-.432.392-.432s.392.193.392.432c0 .238-.175.431-.392.431M87.696 64.338c-.217 0-.392-.193-.392-.432 0-.238.175-.431.392-.431.216 0 .392.193.392.431 0 .239-.176.432-.392.432M86.958 66.48c-.217 0-.392-.192-.392-.43 0-.24.175-.432.392-.432.216 0 .392.193.392.431 0 .239-.176.432-.392.432M86.267 69.195c-.216 0-.392-.193-.392-.431 0-.239.176-.432.392-.432s.392.193.392.432c0 .238-.175.431-.392.431M83.44 51.105c-.339 0-.613-.302-.613-.675s.274-.676.613-.676c.34 0 .614.303.614.676s-.275.675-.614.675" data-paper-data="{&quot;origPos&quot;:null}"/><path fill="#bda18b" d="M87.957 68.098c-.408 0-.739-.365-.739-.814 0-.45.33-.813.739-.813.408 0 .739.364.739.813 0 .45-.331.814-.74.814M87.167 43.167c-.196 0-.356-.176-.356-.392s.16-.393.356-.393c.197 0 .357.176.357.393 0 .216-.16.392-.357.392M87.405 40.024c-.196 0-.356-.176-.356-.392s.16-.392.356-.392c.197 0 .357.175.357.392 0 .216-.16.392-.357.392M87.81 41.595c-.197 0-.356-.175-.356-.392 0-.216.16-.392.356-.392.197 0 .356.176.356.392s-.16.392-.356.392M85.088 58.987c-.39 0-.705-.347-.705-.776 0-.428.316-.776.705-.776.39 0 .705.348.705.776s-.316.776-.705.776M84.3 36.602c-.383 0-.693-.342-.693-.764 0-.421.31-.763.693-.763s.693.342.693.763c0 .422-.31.764-.693.764" data-paper-data="{&quot;origPos&quot;:null}"/><path fill="#d1b29b" d="M79.687 57.312c-.314 0-.569-.28-.569-.625 0-.346.255-.626.569-.626s.568.28.568.626c0 .345-.255.625-.568.625" data-paper-data="{&quot;origPos&quot;:null}"/><path fill="#d1b29b" d="M81.057 53.96c-.157.07-.337-.012-.4-.185-.065-.173.01-.37.167-.44s.336.011.4.184-.01.37-.167.44M81.057 49.96c-.157.07-.337-.012-.4-.185-.065-.173.01-.37.167-.44s.336.011.4.184-.01.37-.167.44M85.914 52.531c-.157.07-.336-.012-.4-.185-.065-.172.01-.37.167-.44s.336.012.4.184c.065.173-.01.37-.167.441" data-paper-data="{&quot;origPos&quot;:null,&quot;origRot&quot;:0}"/><path fill="#bda18b" d="M86.342 43.388c-.157.07-.336-.012-.4-.185-.064-.172.011-.37.168-.44s.336.012.4.185c.064.172-.011.37-.168.44" data-paper-data="{&quot;origPos&quot;:null,&quot;origRot&quot;:0}"/><path fill="#d1b29b" d="M87.914 69.674c-.157.07-.336-.012-.4-.185-.065-.173.01-.37.167-.44s.336.012.4.184c.065.173-.01.37-.167.44M81.485 56.245c-.157.071-.336-.012-.4-.184-.064-.173.01-.37.168-.441.157-.07.336.012.4.185.064.172-.011.37-.168.44M83.485 57.674c-.157.07-.336-.012-.4-.185s.01-.37.168-.44c.157-.071.336.012.4.184.064.173-.011.37-.168.44M82.485 57.531c-.157.07-.336-.012-.4-.185-.064-.172.01-.37.168-.44.157-.071.336.012.4.184.064.173-.011.37-.168.441M85.914 38.674c-.157.07-.336-.012-.4-.185-.065-.173.01-.37.167-.44s.336.012.4.184c.065.173-.01.37-.167.44M88.342 65.817c-.157.07-.336-.012-.4-.185s.011-.37.168-.44.336.011.4.184-.011.37-.168.44" data-paper-data="{&quot;origPos&quot;:null,&quot;origRot&quot;:0}"/><path fill="#d1b29b" d="M84.815 55.523c-.339 0-.613-.302-.613-.675s.274-.676.613-.676c.34 0 .614.303.614.676s-.275.675-.614.675M82.833 59.815c-.282 0-.511-.252-.511-.563s.229-.563.511-.563.512.252.512.563-.23.563-.512.563M82.486 53.8c-.304 0-.55-.27-.55-.605s.246-.604.55-.604c.303 0 .549.27.549.604s-.246.605-.55.605" data-paper-data="{&quot;origPos&quot;:null}"/><path fill="#bda18b" d="M82.69 55.686c-.351 0-.636-.313-.636-.7 0-.388.285-.701.636-.701s.637.313.637.7c0 .388-.285.701-.637.701M86.012 64.667c-.289 0-.523-.258-.523-.576s.234-.576.523-.576.523.258.523.576-.234.576-.523.576" data-paper-data="{&quot;origPos&quot;:null}"/></g><path fill="#ab7b70" d="M43.565 52.636c9.119 2.452 29.262 3.421 33.82-4.45 1.068 8.904.824 15.413-.208 19.893-5.223 8.719-23.084 5.48-23.084 5.48s16.795 4.285 21.725-.08C74.05 79.754 69.15 89.9 58.993 91.326 19.233 93.348 1.535 74.52 7.086 51.13c-1.17-27.242 27.54-33.988 51.568-31.2 7.396.857 12.844 2.37 14.917 9.521 2.156 12.903-25.007 16.766-25.007 16.766s11.632-.539 19.22-3.773c4.386-1.869 7.568-3.364 7.443-8.129.895 4.214 2.597 7.286 1.088 11.322-3.749 10.03-32.75 7-32.75 7" data-paper-data="{&quot;origPos&quot;:null,&quot;index&quot;:null}"/><g fill="#ab7b70" data-paper-data="{&quot;origPos&quot;:null,&quot;index&quot;:null}"><g data-paper-data="{&quot;origPos&quot;:null}"><path d="M84.25 43.266c.098 4.3-2.561 4.845-2.561 4.845s-.056-1.618-.147-4.772c-.32-3.695-3.93-7.173-3.93-7.173s6.54 2.8 6.638 7.1M81.058 49.08s-3.46.136-4.297-2.006c-.434-5.037-.68-6.468-1.932-10.83-.475-1.653-1.092-4.223-1.092-4.223s2.901 2.223 3.615 4.424c.85 2.619 2.14 8.674 2.14 8.674z" data-paper-data="{&quot;origPos&quot;:null,&quot;index&quot;:null}"/></g><g data-paper-data="{&quot;origPos&quot;:null}"><path d="M77.861 74.44s3.611-3.478 3.931-7.173c.091-3.154.147-4.772.147-4.772s2.659.546 2.56 4.845c-.098 4.3-6.638 7.1-6.638 7.1" data-paper-data="{&quot;origPos&quot;:null}"/><path d="M73.737 78.335s.45-2.57.925-4.224c1.251-4.362 1.665-5.792 2.1-10.83.836-2.142 4.296-2.005 4.296-2.005l-1.565 3.96s-1.292 6.056-2.141 8.675c-.85 2.618-3.615 4.424-3.615 4.424" data-paper-data="{&quot;origPos&quot;:null,&quot;index&quot;:null}"/></g></g><path fill="#a69bd1" d="M56.993 98.326C25.722 97.656-.289 76.52.003 54.546c.36-30.4 36.123-40.525 58.9-40.451 3.2.01 4.64 1.846 4.64 1.846S50.222 27.978 50.18 54.22c-.533 22.336 13.36 41.724 13.36 41.724s-.048 2.52-6.547 2.381" data-paper-data="{&quot;origPos&quot;:null,&quot;index&quot;:null}"/><g fill="#9383d1" stroke-width="0"><path d="M45.765 68.651s1.405 8.495 4.389 14.643c2.357 4.858 5.761 8.13 5.761 8.13s-12.805 4.939-14.087 1.084c-2.118-6.367 3.937-23.857 3.937-23.857" data-paper-data="{&quot;origPos&quot;:null,&quot;origRot&quot;:0,&quot;index&quot;:null}"/><path d="M41.637 18.428c1.283-3.855 14.088 1.085 14.088 1.085s-4.668 4.261-6.645 8.19c-3.05 6.06-3.505 14.582-3.505 14.582s-6.055-17.49-3.938-23.857" data-paper-data="{&quot;origPos&quot;:null,&quot;index&quot;:null,&quot;origRot&quot;:0}"/></g></g></svg>