<svg xmlns="http://www.w3.org/2000/svg" width="96.251" height="264.604" viewBox="0 0 96.251 264.604"><g fill="none" fill-rule="none" stroke-linecap="none" stroke-linejoin="none" stroke-miterlimit="10" stroke-width="none" data-paper-data="{&quot;isPaintingLayer&quot;:true}" font-family="none" font-size="none" font-weight="none" style="mix-blend-mode:normal" text-anchor="none"><g fill-rule="evenodd" stroke-linecap="butt" stroke-linejoin="miter" stroke-width="1"><path fill="#dbb297" d="M28.068 69.653 14.33 109.93c-1.847 4.22-7.526 2.882-7.526 2.882-2.715-.977-5.744-3.923-4.86-6.66l9.286-40.415c2.65-6.069 10.844-5.517 10.844-5.517 4.057 1.474 7.567 5.773 5.993 9.432"/><path fill="#e38d6f" d="M11.424 62.855C25.047 49.43 27.85 72.223 27.85 72.223l-8.836 22.76L5.31 81.374z"/><path fill="#d67858" d="m5.44 80.069 17.621 10.14-3.253 5.616-17.621-10.14z"/></g><g fill-rule="evenodd" stroke-linecap="butt" stroke-linejoin="miter" stroke-width="1" data-paper-data="{&quot;origPos&quot;:null}"><path fill="#dbb297" d="M74.176 58.628s8.193-.552 10.844 5.516l9.286 40.415c.883 2.738-2.145 5.684-4.86 6.66 0 0-5.68 1.346-7.527-2.873L68.183 68.05c-1.574-3.642 1.936-7.95 5.993-9.423"/><g data-paper-data="{&quot;origPos&quot;:null}"><path fill="#e38d6f" d="m90.94 81.373-13.704 13.61-10.563-27.452s4.57-18.102 18.194-4.676z"/><path fill="#d67858" d="m94.065 85.684-17.62 10.14-3.254-5.616 17.621-10.14z"/></g></g><g fill-rule="evenodd" stroke-linecap="butt" stroke-linejoin="miter" stroke-width="1"><path fill="#dbb297" d="M72.24 59.365c6.322 1.377-12.379 16.012-25.657 16.012S16.548 59.94 22.927 58.82c7.984-1.393 21.158-6.78 25.19-6.78 5.39 0 16.186 5.603 24.123 7.325"/><path fill="#dbb297" d="M55.186 58.324c.305 2.402-5.454 4.5-7.864 4.5-1.952-.025-6.691-1.45-6.988-3.38l.562-16.075h14.178z"/><path fill="#bf9682" d="m40.518 52.472.378-10.72h14.218v4.803c-5.31.68-11.873 3.515-14.596 5.917"/></g><g fill-rule="evenodd" stroke-linecap="butt" stroke-linejoin="miter" stroke-width="1"><path fill="#ed9d80" d="m20.605 111.492-3.213-53.256 19.512-4.804 2.675-4.803 8.185 4.003 8.643-4.003 2.892 4.803 19.198 4.804-3.213 52.656z"/><path fill="#e38d6f" d="m52.56 63.768-4.836-7.502-1.39 57.332-1.502-.072 1.984-56.835-3.84 7.077-6.072-10.336 2.602-3.618 8.258 2.818v.048l.008-.048 8.258-2.818 2.594 3.618z"/><path fill="#d67858" d="m39.578 48.629 8.186 4.003-6.41 10.247-4.45-9.447z"/><path fill="#d67858" d="m53.845 62.407-6.081-9.775 8.643-4.003 2.892 4.803z"/></g><path fill="#3f4058" fill-rule="evenodd" d="m52.696 189.935-4.595-43.04c0-5.06 14.58-6.213 19.657-6.213 0 0 13.053.056 14.98 8.006l-7.068 41.223c0 5.068-13.013 6.14-13.013 6.14-5.061 0-9.993-1.072-9.961-6.116" data-paper-data="{&quot;origPos&quot;:null}"/><g stroke-linecap="butt" stroke-linejoin="miter" stroke-width="1"><path fill="#3f4058" fill-rule="evenodd" d="M82.739 148.688c-.153 4.452-28.525-1.777-34.405-1.817-6.145 0-28.388 5.076-34.468 3.266-1.302-12.233 1.044-26.748 6.362-36.555a10.1 10.1 0 0 1 .249-4.468H75.67c.152 1.33.458 4.612.458 4.612 5.848 11.609 6.707 31.183 6.61 34.962"/><path fill="#5f6085" fill-rule="evenodd" d="M25.04 113.374v11.28c0 5.068-4.154 5.204-9.239 5.204h-1.22c.048-.24.088-.48.136-.72h.434c5.085 0 9.246-.137 9.246-5.204v-11.289c0-.264-.04-.536-.04-.8h.546q.136.758.136 1.529M70.4 111.844h.547v8.078c.056 7.55 2.747 9.352 9.952 9.207l.137.721c-9.238 0-10.732-2.682-10.732-9.207v-7.277a8.7 8.7 0 0 1 .096-1.522M50.03 137.704v.576h-2.58c-.408.002-.8-.158-1.09-.445a1.53 1.53 0 0 1-.452-1.084v-24.939h.434l.458 24.739c0 .442.36.8.803.8zM50.061 136.35l-.474-3.065v-21.449h.474z"/></g><g fill-rule="evenodd"><path fill="#64bcbd" stroke="#529c9c" stroke-linecap="round" stroke-linejoin="round" stroke-width=".8" d="M77.558 115.807h-58.76l.49-4.595h57.386z"/><path fill="#529c9c" d="M61.974 111.404q.174-.037.353-.048a2.23 2.23 0 0 1 2.22 2.138 2.228 2.228 0 0 1-2.396 2.305 2.345 2.345 0 0 0 1.421-2.241 2.355 2.355 0 0 0-1.598-2.154"/></g><path fill="#bf9682" fill-rule="evenodd" d="M29.722 24.242a2.76 2.76 0 0 1 2.26-.143 2.75 2.75 0 0 1 1.604 1.592l1.06 3.595c.514 1.761.434 2.674-.072 3.074-1.22.721-2.956.064-3.864-1.449l-1.55-2.594c-.9-1.52-.643-3.354.562-4.075M67.235 28.317l-1.542 2.594c-.908 1.513-2.65 2.17-3.864 1.45-.514-.4-.586-1.314-.08-3.075l1.06-3.595a2.75 2.75 0 0 1 1.605-1.592 2.76 2.76 0 0 1 2.26.143c1.228.72 1.477 2.554.561 4.075"/><path fill="#dbb297" fill-rule="evenodd" d="M49.314 46.115h-2.49c-2.9 0-11.816-5.74-12.925-12.378l-2.064-13.386c0-6.805 9.197-12.345 16.025-12.345h.418c6.828 0 16.025 5.604 16.025 12.377l-2.072 13.354c-1.1 6.061-9.535 12.378-12.917 12.378"/><path fill="#211207" fill-rule="evenodd" d="M45.017 22.761a.575.575 0 0 1-.547.609l-5.984.336a.577.577 0 0 1-.064-1.145l6.008-.608c.314-.016.555.464.587.808M57.443 22.465a.578.578 0 0 1 .405.945.58.58 0 0 1-.573.192l-6.04-.136a.577.577 0 0 1-.483-.657c.048-.312.346-.8.659-.752l6 .408z"/><path stroke="#b2836d" stroke-linecap="round" stroke-linejoin="round" stroke-width=".768" d="m49.595 34.578-1.1.545a2.09 2.09 0 0 1-1.8 0l-1.108-.545M53.74 37.188c-1.952 3.074-7.149 2.578-7.149 2.578"/><g fill-rule="evenodd" stroke-linecap="butt" stroke-linejoin="miter" stroke-width="1"><path fill="#fff" d="M44.568 25.455a.4.4 0 0 1 .087.316 3.08 3.08 0 0 1-3.028 2.49 3.08 3.08 0 0 1-3.029-2.49.383.383 0 0 1 .378-.456h5.294c.115 0 .224.052.298.14"/><path fill="#4f5838" d="M44.552 25.441c.072.079.11.184.103.29a2.97 2.97 0 0 1-1.92 2.29 1.83 1.83 0 0 1-1.285-1.601 1.8 1.8 0 0 1 .321-1.105h2.499c.107.002.209.048.282.126"/></g><g fill-rule="evenodd" stroke-linecap="butt" stroke-linejoin="miter" stroke-width="1"><path fill="#fff" d="M57.252 25.35a.4.4 0 0 1 .087.317 3.08 3.08 0 0 1-3.028 2.49 3.08 3.08 0 0 1-3.029-2.49.383.383 0 0 1 .378-.456h5.293c.116 0 .225.052.299.14"/><path fill="#4f5838" d="M57.242 25.343a.4.4 0 0 1 .097.3 2.97 2.97 0 0 1-1.92 2.29 1.835 1.835 0 0 1-1.285-1.601c-.025-.397.083-.791.305-1.121h2.514c.11.002.215.05.289.132"/></g><path fill="#211207" fill-rule="evenodd" d="M58.592 18.262s-4.41-4.964-6.892-.457c0 0-11.246-6.348-16.981 3.307l-1.462 3.322.112 3.427.048 4.003-.867-3.306-.9-5.34-.642-4.628s-2.04-9.607 8.707-14.307c0 0 11.077-2.706 11.985-4.283 0 0-.586 2.89 4.016 5.956 0 0 1.872.2 2.33-1.128 0 0 10.009 6.212 8.033 15.011 0 0-3.037 8.807-3.31 10.56 0 0-.418-8.342-.875-9.727-.04 0-.482-3.86-3.302-2.41"/><g fill-rule="evenodd" stroke-linecap="butt" stroke-linejoin="miter" stroke-width="1"><path fill="#c282ac" d="m57.235 72.63 7.807-9.358 3.334 5.18 3.044 4.74-6.37-.249-4.385-.176z"/><path fill="#5297a1" d="m66.673 65.802-5.72 6.973-3.718-.144 7.807-9.36z"/><path fill="#c7c7c7" d="m71.42 73.191-6.37-.248 3.326-4.491z"/><path fill="#ffabe2" d="m55.516 72.607 7.807-9.351 3.326 5.18 3.044 4.731-6.37-.248-4.385-.176z"/><path fill="#7be3f2" d="m64.946 65.786-5.72 6.973-3.71-.152 7.807-9.351z"/><path fill="#fff" d="m69.693 73.167-6.37-.248 3.326-4.483z"/><path fill="#d67858" d="M55.194 74.68v-3.01h16.218v3.01z"/></g><g fill-rule="evenodd"><g stroke-linecap="butt" stroke-linejoin="miter" stroke-width="1"><path fill="#dbb297" d="M66.713 245.713c-.426 2.402-1.606 4.548-4.016 4.548h-.056c-1.904 0-4.298-1.345-4.66-3.203l-4.16-56.042c-.161-3.074 6.546-5.988 9.559-5.988s11.968 2.794 11.92 5.804z"/><path fill="#3f4058" d="M71.115 230.758s-.321 3.57-.321 3.683c0 1.825-3.543 3.306-7.912 3.306-4.37 0-7.913-1.48-7.913-3.306v-3.739c0-.432.225-.544.627-.432l-3.486-45.883c-.193-3.074 6.562-7.774 12.852-7.31 3.004.217 12.065 3.075 12.01 6.077l-6.54 47.164c.41-.104.651-.008.683.44"/></g><path fill="#00bcbd" d="m58.054 259.972-1.093-8.806v-11.537h.804l2.032 1.745a1.5 1.5 0 0 1 1.438-1.481l3.438-.168c.808.18 1.412.853 1.502 1.673l.932-2.057h.908s-.579 6.82.064 9.086l7.768 9z"/><path stroke="#e6e6e6" stroke-linecap="round" stroke-linejoin="round" stroke-width=".5" d="m60.207 242.703 6.024 2.562-5.245 3.659 6.089.913-5.093 2.161 7.68.505-6.981 2.786 8.908-.777-9.213-.953 5.655-2.225-6.443-.64 4.41-2.106-5.47-2.666 5.647-3.667"/><path fill="#008f8f" d="m60.383 242.319.603 6.605 2.795 7.085-1.43.008-2.12-7.061-.434-7.55zM66.512 240.694l-.152 7.806 7.462 7.982-1.124.072-6.7-7.966.177-7.158z"/><path fill="#00a0a1" d="m58.014 259.732-1.045-8.51v-11.537l.796-.024.972 10.031 1.992 7.806z"/><path fill="#e5e8e9" d="M76.586 259.035a25 25 0 0 1-8.676 1.45c-3.34.02-6.668-.403-9.896-1.257-.08-.729 1.815-3.907 8.932-4.131 10.266-.32 9.64 3.938 9.64 3.938"/><path fill="#cfd6d4" d="M76.096 263.399a24.6 24.6 0 0 1-8.571 1.16 27.9 27.9 0 0 1-7.865-1.288 1.95 1.95 0 0 1-1.606-1.97v-2.081c1.823.576 6.185.68 9.567.744a29.4 29.4 0 0 0 9.005-.937q.208 1.193.249 2.402c-.032 1.05-.04 1.61-.78 1.97"/><path fill="#545c59" d="M76.666 259.524a34.8 34.8 0 0 1-9.077 1.153 64.5 64.5 0 0 1-9.575-.945c-.217-.056-.169-.544 0-.504 3.163.52 6.361.806 9.567.856a34.8 34.8 0 0 0 9.005-1.048c.096-.025.257.44.08.488"/></g><path fill="#3f4058" fill-rule="evenodd" d="M33.69 196.052s-13.013-1.073-13.013-6.14l-6.844-39.775c.972-9.687 14.805-9.479 14.805-9.479 5.085 0 19.664 1.153 19.664 6.213L43.7 189.91c0 5.068-4.924 6.141-10.009 6.141" data-paper-data="{&quot;origPos&quot;:null}"/><g fill="#dbb297" fill-rule="evenodd" stroke-linecap="butt" stroke-linejoin="miter" stroke-width="1"><path d="M9.11 102.806c2.78.472 5.848 3.282 5.567 6.076L8.86 141.86c-.209 1.177-2.402 1.97-3.59 1.873a3.08 3.08 0 0 1-2.82-3.138l-.707-33.129c.586-2.818 4.587-5.132 7.366-4.66"/><path d="M5.288 138.067a3.27 3.27 0 0 1 2.955 2.175c1.373 3.218-.45 8.222-.45 8.222a5.3 5.3 0 0 1-1.543 2.306c.243 1.213.377 2.446.402 3.683 1.284.57 2.52 1.241 3.695 2.01 2.498.664 1.791 2.265 1.791 2.265-6.337-1.025-7.647-2.146-7.647-2.146-5.751-6.253-4.337-9.455-4.337-9.455l2.016-7.125a3.27 3.27 0 0 1 3.118-1.935"/><path d="M10.668 153.596c-.803.272-2.289-1.049-2.634-2.138L4.53 140.402a2.41 2.41 0 0 1 2.41-1.745 6.32 6.32 0 0 1 2.868 4.29l.554 7.422a3.5 3.5 0 0 0 .563 2.715c.152.168-.049.44-.258.512"/></g><g fill="#dbb297" fill-rule="evenodd" stroke-linecap="butt" stroke-linejoin="miter" stroke-width="1"><path d="m94.507 105.872-.707 33.137a3.08 3.08 0 0 1-2.82 3.13c-1.189.104-3.382-.696-3.59-1.865l-5.816-32.953c-.281-2.794 3.454-6.408 6.233-6.88 2.78-.473 6.113 2.613 6.7 5.43" data-paper-data="{&quot;origPos&quot;:null}"/><path d="m94.081 138.416 2.016 7.126s1.414 3.202-4.338 9.455c0 0-1.309 1.113-7.647 2.146 0 0-.707-1.602 1.784-2.274a26.4 26.4 0 0 1 3.703-2.01c.024-1.237.159-2.469.401-3.682a5.2 5.2 0 0 1-1.542-2.298s-1.823-5.004-.45-8.23a3.27 3.27 0 0 1 2.957-2.171 3.27 3.27 0 0 1 3.116 1.938"/><path d="M85.325 151.49c.555-.788.759-1.77.563-2.714l.554-7.413a6.4 6.4 0 0 1 2.867-4.3 2.41 2.41 0 0 1 2.41 1.754l-3.502 11.048c-.345 1.089-1.831 2.418-2.635 2.146-.209-.072-.433-.353-.257-.52"/></g><g fill-rule="evenodd"><g stroke-linecap="butt" stroke-linejoin="miter" stroke-width="1"><path fill="#dbb297" d="m42.928 191.088-5.703 56.043a4.01 4.01 0 0 1-3.888 3.202h-.056c-2.45.032-4.274-1.521-4.772-4.547l-7.06-54.898c-.057-3.002 9.318-5.468 12.33-5.468 3.084 0 9.31 2.578 9.15 5.668"/><path fill="#3f4058" d="M40.832 230.422v3.739c0 1.825-3.543 3.306-7.913 3.306s-7.912-1.48-7.912-3.306c0-.112-.321-3.675-.321-3.675 0-.48.273-.56.739-.424l-5.776-45.635c-.056-3.002 7.157-6.957 13.327-6.957 5.944 0 11.406 4.483 11.245 7.558l-4.144 45.034c.465-.169.73-.104.755.36"/></g><path fill="#00bcbd" d="m19.826 257.586 7.599-9.167c.578-2.265-.185-9.078-.185-9.078h.916l.996 2.041a1.93 1.93 0 0 1 1.47-1.705l3.47.096c.805.012 1.46.648 1.494 1.449l2.008-1.785h.804l.257 13.09-.804 7.245z"/><path stroke="#e6e6e6" stroke-linecap="round" stroke-linejoin="round" stroke-width=".5" d="m29.176 242.215 5.792 3.546-5.439 2.779 4.507 2.01-6.49.784 5.767 2.105-9.27 1.145 9.005.585-7.117-2.634 7.743-.665-5.197-2.057 6.121-1.033-5.398-3.555 6.009-2.682"/><path fill="#008f8f" d="m35.586 241.23-.233 7.566-1.944 7.093-1.446.024 2.635-7.133.426-6.621zM29.152 241.39l.377 7.15-6.546 8.11-1.14-.056 7.309-8.126-.362-7.806z"/><path fill="#00a0a1" d="m35.088 257.338 1.791-7.846.715-10.047.804.016.257 13.09-.771 6.965z"/><path fill="#e5e8e9" d="M28.782 255.073c7.19.072 9.19 3.21 9.134 3.946a38.6 38.6 0 0 1-9.96 1.458 25.8 25.8 0 0 1-8.837-1.265s-.747-4.252 9.663-4.14"/><path fill="#cfd6d4" d="M18.942 261.613q.005-1.207.185-2.401c2.983.71 6.058.962 9.117.744 3.406-.136 7.808-.328 9.64-.937 0 0 .04 1.025.04 2.074 0 .729-.225 1.545-1.607 2.01a28.5 28.5 0 0 1-7.904 1.449 24.8 24.8 0 0 1-8.587-.953c-.892-.2-.868-.945-.884-1.986"/><path fill="#545c59" d="M19.119 259.212c2.99.675 6.054.962 9.117.856a68.4 68.4 0 0 0 9.64-1.049c.16-.048.224.44 0 .497a65 65 0 0 1-9.64 1.145 35.5 35.5 0 0 1-9.19-.961c-.176-.048-.023-.512.073-.488"/></g></g></svg>