<svg xmlns="http://www.w3.org/2000/svg" xml:space="preserve" viewBox="0 0 382.925 382.925"><circle cx="108.631" cy="191.464" r="67.823" style="fill:#ffdb77"/><path d="M40.808 191.463c0-4.338.424-8.575 1.202-12.687H17.386c-5.46 0-9.887 4.426-9.887 9.887v5.6c0 5.46 4.426 9.887 9.887 9.887h24.625a68 68 0 0 1-1.203-12.687" style="fill:#13829b"/><circle cx="274.293" cy="191.464" r="67.823" style="fill:#ffdb77"/><path d="M340.914 178.776h24.625c5.46 0 9.887 4.426 9.887 9.887v5.6c0 5.46-4.426 9.887-9.887 9.887h-24.625a67.6 67.6 0 0 0 0-25.374" style="fill:#13829b"/><path d="M84.79 149.319c-10.674 6.049-18.594 15.8-22.302 27.457a7.5 7.5 0 0 0 4.874 9.42 7.5 7.5 0 0 0 9.42-4.874c2.558-8.043 8.029-14.774 15.403-18.954a7.5 7.5 0 0 0 2.827-10.223 7.5 7.5 0 0 0-10.222-2.826" style="fill:#22313f"/><path d="M365.539 171.276h-18.691c-8.848-31.758-38.013-55.136-72.554-55.136-35.007 0-64.51 24.005-72.919 56.418a22.44 22.44 0 0 0-19.825 0c-8.409-32.413-37.912-56.419-72.918-56.419-34.54 0-63.705 23.378-72.553 55.136H17.386C7.799 171.276 0 179.075 0 188.662v5.601c0 9.587 7.799 17.386 17.386 17.386h18.692c8.848 31.758 38.013 55.136 72.553 55.136 40.805 0 74.111-32.621 75.268-73.151.033-.287.055-.578.055-.874 0-4.14 3.368-7.508 7.508-7.508s7.508 3.368 7.508 7.508c0 .296.022.587.055.874 1.156 40.53 34.463 73.151 75.268 73.151 34.54 0 63.706-23.378 72.554-55.136h18.691c9.587 0 17.387-7.799 17.387-17.386v-5.601c0-9.587-7.799-17.386-17.386-17.386M33.491 196.649H17.386A2.39 2.39 0 0 1 15 194.263v-5.601a2.39 2.39 0 0 1 2.386-2.386H33.49a76 76 0 0 0 .001 10.373m75.14 55.136c-33.383 0-60.323-27.224-60.323-60.323 0-32.905 26.754-60.323 60.323-60.323 33.262 0 60.323 27.061 60.323 60.323s-27.06 60.323-60.323 60.323m165.663 0c-33.263 0-60.323-27.061-60.323-60.323s27.061-60.323 60.323-60.323c33.244 0 60.323 27.077 60.323 60.323 0 33.088-26.928 60.323-60.323 60.323m93.631-57.522a2.39 2.39 0 0 1-2.387 2.386h-16.104a75 75 0 0 0 0-10.373h16.104a2.39 2.39 0 0 1 2.387 2.386z" style="fill:#22313f"/><path d="M250.452 149.319c-10.674 6.05-18.594 15.801-22.302 27.457a7.5 7.5 0 0 0 14.295 4.546c2.558-8.042 8.028-14.774 15.403-18.954a7.5 7.5 0 1 0-7.396-13.049" style="fill:#22313f"/></svg>