<svg xmlns="http://www.w3.org/2000/svg" width="155.441" height="113.682" viewBox="0 0 155.441 113.682"><g stroke-miterlimit="10" data-paper-data="{&quot;isPaintingLayer&quot;:true}" style="mix-blend-mode:normal"><g stroke-linejoin="round" data-paper-data="{&quot;index&quot;:null,&quot;origPos&quot;:null,&quot;origRot&quot;:0}"><path fill="#fff" stroke="#627191" stroke-width=".25" d="M143.86 61.818c4.846.12 11.254 2.477 11.447 6.918.162 3.722-1.81 8.747-12.299 9.2-3.559.153-7.134-1.11-10.36-1.527-7.095-.176-16.13 1.365-15.961-6.932.04-7.713 9.85-5.259 15.211-5.509 7.828-.364 7.118-2.27 11.963-2.15z" data-paper-data="{&quot;origPos&quot;:null,&quot;index&quot;:null,&quot;origRot&quot;:0}"/><path fill="#627191" d="M131.687 64.42c4.862-.481 6.908-1.731 11.753-1.61 4.846.12 10.858 1.951 11.05 6.392.163 3.722-3.392 7.349-11.422 7.839-3.559.153-7.194-.215-10.42-.632-7.095-.176-16.149-.064-15.961-6.932-.095-7.085 9.653-4.529 15-5.058" data-paper-data="{&quot;origPos&quot;:null,&quot;index&quot;:null,&quot;origRot&quot;:0}"/><path fill="none" stroke="#fff" stroke-linecap="round" d="M143.199 65.589s1.098 2.37 1.217 4.171c.12 1.802-.964 4.124-.964 4.124l-2.703-8.366-2.198 8.767-3.167-8.523-1.494 8.614-3.148-8.46s.977 1.97 1.118 4.204c.138 2.165-.699 4.308-.699 4.308l1.982-8.662 3.012 8.595 1.923-8.803 2.92 8.483z" data-paper-data="{&quot;origPos&quot;:null,&quot;origRot&quot;:0}"/><path fill="#fff" d="M148.83 64.621s5.155.9 5.158 5.004c.001 3.032-4.86 5.544-4.86 5.544s-.219-3.205-.277-5.257c-.058-2.065-.021-5.291-.021-5.291" data-paper-data="{&quot;origPos&quot;:null,&quot;origRot&quot;:0}"/></g><path fill="#f6dbc4" d="M20.447 100.864c1.256.619 2.389.599 13.025 8.86 6.527 5.715-16.92 4.813-18.872-.285-1.284-3.526.744-8.156 2.463-8.022 2.51.196 2.128-1.172 3.384-.553" data-paper-data="{&quot;origPos&quot;:null,&quot;origRot&quot;:0,&quot;index&quot;:null}"/><g data-paper-data="{&quot;origPos&quot;:null,&quot;origRot&quot;:0,&quot;index&quot;:null}"><path fill="#f6dbc4" d="M16.317 108.772c1.622-5.015 6.734-7.904 14.003-10.26 6.937-2.247 9.934 2.478 11.03 6.501 1.095 4.024-5.131 7.692-11.644 7.974-6.512.282-14.387-.504-13.389-4.215" data-paper-data="{&quot;origPos&quot;:null,&quot;origRot&quot;:0,&quot;index&quot;:null}"/><g stroke-width=".5" data-paper-data="{&quot;origPos&quot;:null,&quot;origRot&quot;:0}"><path fill="#d1b29b" d="M39.131 101.928c.333-.102.657.118.724.49s-.15.756-.483.858-.657-.118-.723-.49c-.067-.372.15-.756.482-.858M19.51 108.126c.333-.102.657.118.724.49s-.15.756-.483.858-.656-.118-.723-.49.15-.757.482-.858M23.834 108.968c-.057-.32.129-.652.416-.74s.566.102.624.423c.057.321-.13.652-.416.74-.287.087-.566-.102-.624-.423M21.22 110.35c.334-.101.657.118.724.49.066.373-.15.757-.482.858-.333.102-.657-.117-.724-.49-.066-.372.15-.756.483-.858M32.49 104.872c-.04-.222.089-.45.287-.51.198-.061.39.07.43.29.04.222-.089.45-.287.511-.198.06-.39-.07-.43-.291M29.042 110.636c-.04-.221.089-.45.287-.51s.39.07.43.291c.04.222-.089.45-.287.51-.198.061-.39-.07-.43-.29M29.59 105.449c-.04-.222.088-.45.286-.51.198-.061.391.07.43.29.04.222-.088.45-.286.511-.198.06-.391-.07-.43-.291M28.2 106.066c.199-.06.391.07.43.292.04.221-.088.45-.286.51s-.39-.07-.43-.291c-.04-.222.089-.45.287-.51M25.816 108.141c-.04-.221.089-.45.287-.51s.39.07.43.292-.09.45-.287.51c-.198.06-.39-.07-.43-.292" data-paper-data="{&quot;origPos&quot;:null}"/><path fill="#bda18b" d="M21.916 106.84c.247-.075.487.088.537.364.049.277-.111.562-.358.637s-.487-.087-.537-.364c-.05-.276.111-.56.358-.636M26.496 105.752c-.075-.417.168-.848.54-.962.374-.114.737.132.812.55.074.417-.168.847-.541.961s-.736-.132-.81-.55M35.027 105.842c.356-.108.702.126.774.524.07.398-.16.809-.516.918s-.702-.126-.773-.524.16-.81.515-.918" data-paper-data="{&quot;origPos&quot;:null}"/><path fill="#d1b29b" d="M25.117 106.58c.03-.18.18-.306.335-.284s.257.184.227.362-.18.305-.335.284-.257-.185-.227-.363M35.895 108.066c.03-.178.18-.305.336-.283.155.022.256.184.226.362s-.18.305-.335.283c-.155-.021-.256-.184-.226-.362" data-paper-data="{&quot;origPos&quot;:null,&quot;origRot&quot;:0}"/><path fill="#d1b29b" d="M37.888 105.361c.31-.094.611.11.673.457.062.346-.139.704-.449.799-.31.094-.611-.11-.673-.457-.062-.346.139-.704.449-.799M34.236 109.276c-.051-.29.116-.587.374-.666.259-.079.51.091.562.38.051.289-.116.587-.375.666-.258.079-.51-.092-.56-.38" data-paper-data="{&quot;origPos&quot;:null}"/><path fill="#bda18b" d="M29.624 107.255c-.053-.296.119-.6.383-.681s.521.093.574.389c.053.295-.118.6-.383.68-.264.081-.52-.093-.574-.388" data-paper-data="{&quot;origPos&quot;:null}"/></g></g><path fill="#9383d1" d="M76.787 63.803q-.022-.016 0-.001z" data-paper-data="{&quot;origPos&quot;:null,&quot;origRot&quot;:0,&quot;index&quot;:null}"/><g stroke-width="0" data-paper-data="{&quot;index&quot;:null,&quot;origPos&quot;:null}"><path fill="#5083ab" d="m90.724 43.26 11.852 17.472s19.554 2.808 23.35 3.312c8.708 5.492-1.941 12.048-1.941 12.048L78.94 88.89z" data-paper-data="{&quot;origPos&quot;:null}"/><path fill="#cddce7" d="M121.528 77.484c6.069-6.102 5.752-9.642-.192-14.449 3.008.372 5.308.653 6.328.772 13.432 6.274-.53 12.62-.53 12.62z" data-paper-data="{&quot;origPos&quot;:null}"/></g><path fill="#f6dbc4" d="M131.011 20.026c3.177 2.82 6.227 3.397 5.57 4.354-1.053 1.265-1.246.832-4.839-.18-4.816-1.355-4.343 1.055-10.58-4.134-5.039-4.223-5.415-11.15 17.028-6.66 1.968 2.3 9.456 7.848 8.3 9.326-1.68 2.144-5.454-3.15-10.553-3.657z" data-paper-data="{&quot;origPos&quot;:null,&quot;origRot&quot;:0,&quot;index&quot;:null}"/><path fill="#f6dbc4" d="M128.442 15.677c-2.921 6.06-12.694 4.413-21.047 4.973-7.971.535-17.805-.566-13.83-7.809 3.175-5.782 5.966-5.926 13.202-4.674 7.237 1.252 23.28 4.183 21.675 7.51" data-paper-data="{&quot;origPos&quot;:null,&quot;origRot&quot;:0,&quot;index&quot;:null}"/><g stroke-width=".5" data-paper-data="{&quot;origPos&quot;:null,&quot;origRot&quot;:0}"><path fill="#d1b29b" d="M111.185 11.137c.046-.368.407-.625.806-.574s.687.391.64.76c-.045.367-.406.624-.806.573-.4-.05-.686-.39-.64-.759M107.218 18.452c-.345-.044-.592-.337-.552-.655.04-.317.35-.538.695-.494.344.044.592.337.552.654s-.35.539-.695.495M105.22 13.285c-.4-.052-.686-.391-.64-.76.045-.368.406-.625.806-.573.4.05.686.39.64.759-.045.368-.406.625-.806.574M118.923 16.98c.027-.219.242-.372.48-.341.237.03.408.232.38.451s-.242.372-.48.341c-.237-.03-.408-.232-.38-.451M110.217 12.562c.027-.219.242-.372.48-.341.237.03.408.232.38.451-.026.22-.241.372-.479.342s-.408-.233-.381-.452M110.118 10.363c-.238-.03-.408-.233-.381-.452s.242-.372.48-.341c.237.03.408.232.38.451-.027.22-.242.372-.48.342M113.785 16.432c-.238-.03-.409-.233-.381-.452s.242-.372.48-.341c.237.03.408.232.38.451-.027.22-.242.372-.48.342M111.186 15.219c-.237-.03-.408-.233-.38-.452.026-.219.241-.372.479-.341.237.03.408.232.38.451-.026.22-.241.372-.479.342" data-paper-data="{&quot;origPos&quot;:null}"/><path fill="#bda18b" d="M108.082 10.683c.034-.273.302-.463.598-.425s.51.29.475.563c-.034.273-.302.463-.598.425-.296-.037-.51-.29-.475-.563M107.44 14.45c-.449-.058-.77-.44-.719-.852s.456-.7.904-.643.77.438.718.85c-.051.413-.456.701-.904.644M115.41 14.403c.05-.394.435-.668.863-.614.427.055.733.418.684.812-.049.393-.435.668-.862.613-.427-.054-.734-.418-.685-.811" data-paper-data="{&quot;origPos&quot;:null}"/><path fill="#d1b29b" d="M104.788 10.659c-.05-.168.055-.339.235-.382s.367.059.418.226c.05.168-.054.339-.234.381-.18.043-.368-.058-.419-.225M122.087 14.15c-.05-.168.055-.339.235-.382s.367.059.418.226c.05.168-.054.339-.234.381-.18.043-.368-.058-.419-.226M123.329 12.656c-.18.043-.368-.058-.419-.226-.05-.167.055-.338.235-.38.18-.044.368.057.418.225.051.168-.054.338-.234.381M118.27 11.751c.18-.043.368.058.418.226.051.168-.054.338-.234.381s-.368-.058-.419-.226c-.05-.167.055-.338.235-.38" data-paper-data="{&quot;origPos&quot;:null,&quot;origRot&quot;:0}"/><path fill="#d1b29b" d="M124.62 15.043c.042-.343.378-.582.75-.534s.64.364.596.706c-.042.343-.378.582-.75.535-.372-.048-.64-.364-.597-.707" data-paper-data="{&quot;origPos&quot;:null}"/><path fill="#bda18b" d="M106.766 11.555c.037-.292.323-.496.64-.455s.545.31.509.602-.323.496-.64.456c-.318-.04-.545-.31-.509-.603" data-paper-data="{&quot;origPos&quot;:null}"/></g><g data-paper-data="{&quot;index&quot;:null}"><path fill="#9383d1" d="M77.267 59.845q-.02-.015 0-.002z" data-paper-data="{&quot;origPos&quot;:null,&quot;origRot&quot;:0,&quot;index&quot;:null}"/><path fill="#a69bd1" d="M45.742 109.065c-3.248 9.66-22.547 2.75-21.867-7.765-.144-3.167 3.783-4.946 3.783-4.946s-8.199-26.2-3.607-44.054C38.26 1.94 56.36 3.61 67.131 3.714 92.582 5.486 88.999-.24 94.773.008c6.771.291 9.176 6.364 9.071 12.331-1.858 24.298-15.253 13.28-26.225 10.281 8.47 1.88 19.285-1.807 21.575 3.549 9.667 21.045.135 58.556-24.083 64.364-6.859 8.428-7.965 8.437-17.187 13.742s-12.18 4.79-12.18 4.79" data-paper-data="{&quot;origPos&quot;:null,&quot;index&quot;:null,&quot;origRot&quot;:0}"/><g fill="#9383d1" stroke-width=".5" data-paper-data="{&quot;origPos&quot;:null,&quot;origRot&quot;:0,&quot;index&quot;:null}"><path d="M83.807 51.389c0 .79-.228 1.432-.51 1.432s-.51-.641-.51-1.432.228-1.432.51-1.432.51.641.51 1.432" data-paper-data="{&quot;origPos&quot;:null}"/><path d="M84.034 51.972a18 18 0 0 1-.732-.052c-.857-.076-4.141-.674-6.795-.854 0 0-.933-.063-.914-1.218s.844-.968.844-.968c1.954.133 5.312 1.062 7.192 1.81 1.201.477 1.526 1.342.405 1.282" data-paper-data="{&quot;origPos&quot;:null,&quot;origRot&quot;:0}"/></g><g fill="#9383d1" stroke-width=".5" data-paper-data="{&quot;origPos&quot;:null,&quot;origRot&quot;:0,&quot;index&quot;:null}"><path d="M84.095 59.442c0 .715-.215 1.295-.48 1.295-.266 0-.481-.58-.481-1.295 0-.716.215-1.296.48-1.296.266 0 .481.58.481 1.296" data-paper-data="{&quot;origPos&quot;:null}"/><path d="M83.887 60.111c-2.46.578-4.794.814-7.232.95 0 0-.959.464-.976-.734s.947-1.251.947-1.251l7.35-.408c2.02-.113 1.186 1.144-.09 1.443" data-paper-data="{&quot;origPos&quot;:null,&quot;origRot&quot;:0}"/></g><path fill="#9383d1" d="M78.82 76.069s7.144-9.806 10.028-17.003c3.018-7.53 3.896-20.254 3.896-20.254l7.739-8.207s5.854 14.697-1.282 34.98C92.113 85.727 77.667 89.43 77.667 89.43z" data-paper-data="{&quot;origPos&quot;:null,&quot;origRot&quot;:0,&quot;index&quot;:null}"/></g><path fill="#ab7b70" d="M51.826 98.027C15.577 96.631-3.465 65.221 6.586 50.413-.167 33.671 31.709 16.806 54.487 16.879c21.276.07 20.868 8.734 32.916 14.869 6.817 3.472 5.658 2.761 8.907 17.26-1.203-1.88-4.61-3.234-4.61-3.234s5.573 5.144 4.787 9.594c-3.8-12.812-41.067-27.405-41.14 3.971-.059 24.825 39.534 25.295 40.395 10.145.494 2.183-3.231 7.834-3.231 7.834s1.961-1.046 3.03-3.239c-.389 5.143-5.274 8.99-5.274 8.99s3.592-1.76 5.222-4.956c-1.215 9.36-4.446 8.672-13.437 11.541-7.292 2.327-9.481 9.172-30.226 8.373" data-paper-data="{&quot;origPos&quot;:null}"/><path fill="#f6dbc4" d="M87.383 75.837c-4.618 6.167-11.862 6.742-19.271 8.282-5.916 3.115-12.959 7.797-15.347 5.831-2.59-2.133 8.383-5.7-1.099-3.409-9.481 2.29-42.89 6.743-42.67-29.82C9.705 19.41 41.865 23.71 49.122 25.83c16.098 3.357 3.208 1.634 6.31-2.71 2.643-.985 8.738 2.28 13.487 6.498 6.368 1.046 14.602 3.388 18.547 8.645 4.147 5.527 2.143 11.59 3.804 13.37 1.786 1.914 3.199 2.889 3.083 4.395-.106 1.74-1.92 3.34-2.85 4.112-.932.773.113 10.046-4.119 15.697" data-paper-data="{&quot;origPos&quot;:null}"/><g stroke-width=".5" data-paper-data="{&quot;origPos&quot;:null}"><path fill="#d1b29b" d="M87.402 47.461c-.364 0-.659-.324-.659-.725s.295-.726.66-.726c.363 0 .658.325.658.726s-.295.725-.659.725M86.543 42.903c-.304 0-.55-.27-.55-.604s.246-.605.55-.605c.303 0 .549.27.549.605s-.246.604-.55.604M86.062 73.077c-.314 0-.569-.28-.569-.626 0-.345.255-.625.569-.625s.568.28.568.625c0 .346-.255.626-.568.626M84.694 77.068c-.364 0-.659-.325-.659-.726s.295-.725.659-.725.66.325.66.725c0 .401-.296.726-.66.726M87.41 62.36c-.216 0-.392-.193-.392-.431s.176-.432.392-.432.392.194.392.432-.175.432-.392.432M87.696 65.79c-.217 0-.392-.194-.392-.432 0-.239.175-.432.392-.432.216 0 .392.193.392.432 0 .238-.176.431-.392.431M86.958 67.932c-.217 0-.392-.193-.392-.432 0-.238.175-.431.392-.431.216 0 .392.193.392.431 0 .239-.176.432-.392.432M86.267 70.646c-.216 0-.392-.193-.392-.431 0-.239.176-.432.392-.432s.392.193.392.432c0 .238-.175.431-.392.431M83.44 52.557c-.339 0-.613-.303-.613-.676s.274-.676.613-.676c.34 0 .614.303.614.676s-.275.676-.614.676" data-paper-data="{&quot;origPos&quot;:null}"/><path fill="#bda18b" d="M87.957 69.549c-.408 0-.739-.364-.739-.814s.33-.813.739-.813c.408 0 .739.364.739.813 0 .45-.331.814-.74.814M87.167 44.618c-.196 0-.356-.176-.356-.392s.16-.392.356-.392c.197 0 .357.175.357.392 0 .216-.16.392-.357.392M87.405 41.475c-.196 0-.356-.175-.356-.392s.16-.392.356-.392c.197 0 .357.175.357.392s-.16.392-.357.392M87.81 43.047c-.197 0-.356-.176-.356-.393 0-.216.16-.392.356-.392.197 0 .356.176.356.392s-.16.393-.356.393M85.088 60.438c-.39 0-.705-.347-.705-.776 0-.428.316-.775.705-.775.39 0 .705.347.705.775s-.316.776-.705.776M84.3 38.053c-.383 0-.693-.342-.693-.763 0-.422.31-.764.693-.764s.693.342.693.764c0 .421-.31.763-.693.763" data-paper-data="{&quot;origPos&quot;:null}"/><path fill="#d1b29b" d="M79.687 58.764c-.314 0-.569-.28-.569-.626 0-.345.255-.625.569-.625s.568.28.568.625c0 .346-.255.626-.568.626" data-paper-data="{&quot;origPos&quot;:null}"/><path fill="#d1b29b" d="M81.056 55.41c-.156.071-.336-.011-.4-.184s.011-.37.168-.44.336.012.4.184c.064.173-.01.37-.168.44M81.056 51.41c-.156.071-.336-.011-.4-.184s.011-.37.168-.44.336.012.4.184c.064.173-.01.37-.168.44M85.914 53.982c-.157.07-.336-.012-.4-.185-.065-.172.01-.37.167-.44s.336.012.4.185c.065.172-.01.37-.167.44" data-paper-data="{&quot;origPos&quot;:null,&quot;origRot&quot;:0}"/><path fill="#bda18b" d="M86.342 44.84c-.157.07-.336-.013-.4-.185-.064-.173.011-.37.168-.441.157-.07.336.012.4.185.064.172-.011.37-.168.44" data-paper-data="{&quot;origPos&quot;:null,&quot;origRot&quot;:0}"/><path fill="#d1b29b" d="M87.914 71.125c-.157.07-.336-.012-.4-.185-.065-.172.01-.37.167-.44s.336.012.4.185c.065.172-.01.37-.167.44M81.485 57.697c-.157.07-.336-.013-.4-.185-.064-.173.01-.37.168-.44.157-.071.336.011.4.184s-.011.37-.168.44M83.485 59.125c-.157.07-.336-.012-.4-.185-.064-.172.01-.37.168-.44.157-.07.336.012.4.185.064.172-.011.37-.168.44M82.485 58.982c-.157.07-.336-.012-.4-.185-.064-.172.01-.37.168-.44.157-.07.336.012.4.185.064.172-.011.37-.168.44M85.914 40.125c-.157.07-.336-.012-.4-.185-.065-.172.01-.37.167-.44s.336.012.4.184c.065.173-.01.37-.167.441M88.342 67.268c-.157.07-.336-.012-.4-.185-.064-.172.011-.37.168-.44s.336.012.4.184c.064.173-.011.37-.168.441" data-paper-data="{&quot;origPos&quot;:null,&quot;origRot&quot;:0}"/><path fill="#d1b29b" d="M84.815 56.975c-.339 0-.613-.303-.613-.676s.274-.676.613-.676c.34 0 .614.303.614.676s-.275.676-.614.676M82.833 61.266c-.282 0-.511-.252-.511-.563s.229-.563.511-.563.511.252.511.563-.228.563-.51.563M82.486 55.251c-.304 0-.55-.27-.55-.604s.246-.605.55-.605c.303 0 .549.27.549.605s-.246.604-.55.604" data-paper-data="{&quot;origPos&quot;:null}"/><path fill="#bda18b" d="M82.69 57.138c-.351 0-.636-.314-.636-.701s.285-.701.636-.701.637.314.637.7c0 .388-.285.702-.637.702M86.012 66.118c-.289 0-.523-.258-.523-.576s.234-.576.523-.576.523.258.523.576-.234.576-.523.576" data-paper-data="{&quot;origPos&quot;:null}"/></g><path fill="#ab7b70" d="M43.232 53.754c9.118 2.452 29.262 6.42 33.82-1.45 1.068 8.904.824 15.413-.208 19.893-5.223 8.719-23.084 2.48-23.084 2.48s17.128 7.951 22.058 3.586c-1.769 6.275-7.002 12.756-17.158 14.18C18.9 94.467 1.2 75.638 6.752 52.247c-1.17-27.242 27.54-33.987 51.568-31.2 7.396.858 12.845 3.037 14.917 10.189 1.49 17.57-25.006 16.099-25.006 16.099s26.958 2.348 26.662-8.902c.895 4.214 2.597 7.286 1.089 11.321-3.749 10.03-32.75 4-32.75 4" data-paper-data="{&quot;origPos&quot;:null}"/><g fill="#ab7b70" data-paper-data="{&quot;origPos&quot;:null}"><g data-paper-data="{&quot;origPos&quot;:null}"><path d="M84.25 44.717c.098 4.3-2.561 4.845-2.561 4.845s-.056-1.618-.147-4.772c-.32-3.695-3.931-7.173-3.931-7.173s6.54 2.8 6.639 7.1M81.058 50.53s-3.46.138-4.297-2.005c-.434-5.037-.68-6.467-1.932-10.83-.475-1.653-1.092-4.223-1.092-4.223s2.901 2.224 3.615 4.424c.85 2.619 2.14 8.674 2.14 8.674z" data-paper-data="{&quot;origPos&quot;:null,&quot;index&quot;:null}"/></g><g data-paper-data="{&quot;origPos&quot;:null}"><path d="M77.861 75.891s3.611-3.478 3.931-7.173c.091-3.154.147-4.772.147-4.772s2.659.546 2.56 4.845c-.098 4.3-6.638 7.1-6.638 7.1" data-paper-data="{&quot;origPos&quot;:null}"/><path d="M73.737 79.786s.45-2.57.925-4.224c1.251-4.362 1.665-5.792 2.1-10.83.836-2.142 4.296-2.005 4.296-2.005l-1.565 3.96s-1.292 6.056-2.141 8.675c-.85 2.619-3.615 4.424-3.615 4.424" data-paper-data="{&quot;origPos&quot;:null,&quot;index&quot;:null}"/></g></g><path fill="#a69bd1" d="M56.993 99.777C25.722 99.107-.289 77.971.003 55.997c.36-30.4 36.123-40.525 58.9-40.451 3.2.01 4.64 1.846 4.64 1.846s-13.32 12.037-13.363 38.28c-.533 22.336 13.36 41.724 13.36 41.724s-.048 2.52-6.547 2.381" data-paper-data="{&quot;origPos&quot;:null}"/><g fill="#9383d1" stroke-width="0"><path d="M47.738 70.533s.746 7.495 2.99 13.643c1.774 4.858 6.03 9.13 6.03 9.13s-9.631 4.939-10.595 1.084c-1.593-6.368 1.575-23.857 1.575-23.857" data-paper-data="{&quot;origPos&quot;:null,&quot;origRot&quot;:0,&quot;index&quot;:null}"/><path d="M46.02 20.31c.964-3.855 10.594 1.085 10.594 1.085s-4.454 5.26-5.94 9.19c-2.295 6.06-3.08 13.582-3.08 13.582s-3.167-17.49-1.574-23.857" data-paper-data="{&quot;origPos&quot;:null,&quot;index&quot;:null,&quot;origRot&quot;:0}"/></g></g></svg>