<svg xmlns="http://www.w3.org/2000/svg" width="68.39" height="87.39" viewBox="-0.5 -0.5 68.39 87.39"><path fill="#0cc" d="M67.39 70.11c0 3.04-1.13 5.88-3.18 8-.33.34-.68.66-1.05.95-.59.47-1.37 1.08-2.34 1.82-4.36 3.65-8.87 5.51-13.4 5.51-1.43 0-2.9-.18-4.5-.55-.18-.04-.36-.09-.54-.14-3.29-.94-6.29-2.97-9.43-6.38-2.02-2.2-3.5-4.35-4.48-6.51-4.18-.36-8.2-1.53-11.98-3.5-5.09-2.68-9.09-6.45-11.95-11.25-.02-.04-.04-.07-.06-.11-1.71-2.94-2.97-6.68-3.85-11.42-.02-.09-.03-.18-.04-.26C.2 43.88 0 41.46 0 39.06c0-6.15 1.35-12.19 4-17.96.02-.06.05-.12.08-.17 1.98-4.13 4.94-8.1 9.07-12.15C19.15 2.87 24.92 0 30.8 0c1.33 0 3.33.14 8.84 1.15 5.01.96 10 3.55 15.36 7.93l.19.16c2.69 2.3 4.82 5.64 6.91 10.83 1.94 4.84 2.92 9.86 2.92 14.94 0 3.64-.5 7.47-1.48 11.38 0 .03-.01.07-.02.1-.99 3.8-1.96 6.41-3.15 8.46-.05.08-.09.16-.14.24-.43.69-.87 1.36-1.32 2.02q1.26.48 2.43 1.17c2.35 1.41 4.05 3.62 4.85 6.16l.06.15c.78 1.97 1.14 3.68 1.14 5.42"/><path fill="#fff" d="M56.303 70.461a158 158 0 0 1-2.375 1.847q-3.607 3.079-6.509 3.079-.881 0-2.023-.265-1.847-.529-4.354-3.254-2.507-2.728-2.946-4.75.087-.001.264-.176-.617-.88-1.407-5.806-2.64.791-5.718.792-5.102 0-9.676-2.376-4.84-2.55-7.564-7.124-1.584-2.725-2.551-7.917a34 34 0 0 1-.44-5.453q0-6.86 2.991-13.37 2.11-4.397 6.86-9.061 5.718-5.628 9.94-5.629 1.583 0 6.86.968 4.574.88 10.379 5.629 1.846 1.584 3.871 6.598 2.11 5.277 2.11 10.818 0 4.137-1.144 8.708-1.055 4.047-2.022 5.718-3.344 5.454-8.444 9.061 0 4.662 1.319 8.004 1.67 4.398 4.926 3.959.175 0 2.375-1.936 1.319-1.232 2.814-1.231.968 0 1.848.527-.001.087.352.968.35.879.352 1.319 0 .264-.088.353M49.09 35.979q-.088-2.462-.615-6.772-.177-.175-.616-1.848-2.024-6.948-7.036-8.796-1.321-.88-3.782-2.023-4.136-1.23-8.532-.615-2.553.353-7.125 5.981-3.96 5.014-5.102 9.499a22 22 0 0 0-.704 5.542q-.001 2.903.704 6.069.264 2.024 1.407 5.894 1.584 3.607 6.245 6.421.087-1.23 1.407-4.486 1.495-2.375 2.287-2.902 2.287-1.584 4.926-1.583 6.245 0 9.324 6.597a204 204 0 0 0 2.99-3.519q.967-.967 1.891-3.299.924-2.33 1.452-2.771a4.4 4.4 0 0 1-.089-.88q0-.439.44-2.418.441-1.98.528-4.091M36.424 56.298q-.792-3.077-1.935-4.047-.792-.614-1.936-.615-2.375 0-2.902 2.199-.177.352-.44.791-.264.88-.527 2.463 4.485.706 7.74-.791"/></svg>