<svg xmlns="http://www.w3.org/2000/svg" xml:space="preserve" width="226.29" height="160.055" viewBox="18.2 15.9 226.29 160.055"><title>bear-walk-d</title><g fill-rule="nonzero"><path fill="#856045" d="M158.2 97.1c-5.9 24.7-8.7 28.7-11.2 34.8-2.4 6-16.1 25.5-15.5 28.7s4.5 4.4 4.4 7.7c-.2 3.3-23.7-2.7-26-5.2-1.6-1.8 1.3-20.6 2.4-40.9.5-8.7.2-20.8 2.4-27.3 17.5-43.7 48.9-20.1 43.5 2.2"/><path fill="#59402f" d="M110.9 163.7s-.3 0-.6-.4-.4-1-.5-1.9c-.1-.8-.1-1.9 0-3.1s.2-2.5.3-4c.3-2.9.7-6.3 1.1-10s.7-7.6 1-11.5.4-7.8.6-11.5c.1-3.7.2-7.1.2-10 0-5.9-.1-9.8-.1-9.8s0 3.9-.2 9.8c-.1 2.9-.2 6.4-.4 10-.2 3.7-.4 7.6-.7 11.5s-.7 7.8-1 11.5-.7 7.1-.9 10-.3 5.4 0 7.1c.1.9.4 1.5.6 1.9.3.5.6.4.6.4M132.9 163s-.2-.1-.4-.5c-.2-.3-.6-.9-.7-1.6-.1-.8 0-1.7.4-2.7.5-.9 1.2-2 1.9-3.1 1.4-2.3 3-5 4.6-7.9.8-1.4 1.7-3 2.5-4.5s1.7-3.1 2.5-4.7c1.7-3.2 3.2-6.4 4.7-9.4s2.8-5.8 3.9-8.3c2.3-4.9 3.8-8.1 3.8-8.1s-1.7 3.2-4.1 7.9c-2.4 4.8-5.6 11.2-8.9 17.5-1.7 3.2-3.5 6.2-5.1 9.2-1.6 2.9-3.2 5.6-4.5 8-.6 1.2-1.3 2.2-1.8 3.2-.4 1-.5 2.1-.3 2.8.2.8.5 1.3.8 1.6.5.4.7.6.7.6M128.2 169.3s.1-.3.1-.8-.2-1.2-.5-1.8-.7-1.1-1.1-1.5c-.4-.3-.7-.5-.7-.5s0 .1.1.2.2.3.3.5c.2.4.5 1 .8 1.5.3.6.5 1.1.7 1.6s.3.8.3.8M133.8 169.5s0-.4-.1-1-.4-1.3-.8-2c-.2-.3-.4-.6-.7-.9s-.5-.5-.8-.6c-.2-.2-.5-.3-.6-.3l-.2-.1.2.2c.1.1.3.3.4.5.3.4.8 1 1.2 1.6s.7 1.3 1 1.7c.2.6.4.9.4.9"/><path fill="#665a52" d="M127.1 170.5c.1-.6-.4-3.4-1.5-3.6s-.5 1.1-.1 1.9c.3.8 1.5 2.1 1.6 1.7M132.6 170.8c.1-.6-.4-3.4-1.5-3.6s-.5 1.1-.1 1.9 1.5 2.1 1.6 1.7M136.1 170.4c.1-.6-.4-3.4-1.5-3.6s-.5 1.1-.1 1.9 1.5 2.1 1.6 1.7"/><path fill="#856045" d="M83.1 89.5s1.2 26.8-21.3 47.3c-11.3 10.3-19.6 16.1-18.6 19 1 3 3.9 7.5 2.1 8.6-1.9 1.1-9.1-2-22.6-12-1.6-1.2 0-15.9 8.7-29.7 6.8-10.7 6.7-19.2 8.3-28.3s1.4-26.9 6.5-32.9S61 45 75 55.5c14.1 10.6 10.1 28.1 8.1 34"/><path fill="#59402f" d="M35.9 161.3s.2-.3.2-.8c.1-.5.1-1.2-.1-1.8-.2-.7-.5-1.3-.8-1.7s-.6-.6-.6-.6 0 .1.1.2c0 .1.1.3.2.6.1.5.3 1.1.5 1.7s.3 1.2.4 1.7c0 .3.1.7.1.7M41.1 163.2s.1-.4.1-1-.1-1.4-.3-2.1c-.1-.4-.3-.7-.5-1s-.4-.6-.6-.8l-.5-.5-.2-.2s0 .1.1.2.2.4.3.6c.2.5.5 1.2.8 1.8.2.7.4 1.4.6 1.9.1.7.2 1.1.2 1.1"/><path fill="#665a52" d="M34.5 162.2c.2-.6.3-3.4-.7-3.8-1.1-.4-.8.9-.5 1.8.2.9 1.1 2.4 1.2 2M39.8 163.7c.2-.6.3-3.4-.7-3.8-1.1-.4-.8.9-.5 1.8s1.1 2.4 1.2 2M43.1 164.7c.2-.6.3-3.4-.7-3.8-1.1-.4-.8.9-.5 1.8s1.1 2.4 1.2 2"/><path fill="#856045" d="M47.6 96.3s-10.3 7.6-12.6 6.8c0 0 1.7 2.4 3.8 1.4 0 0-4.7.6-6.9 4.6l3.1-.1s-5.6 5-6.4 9.3l3.6-2.2s-4.9 5.3-1.8 9.9"/><path fill="#59402f" d="M35.3 103.2s.2.1.5.1.8-.1 1.4-.2c1.1-.3 2.5-1 3.8-1.7.7-.4 1.3-.8 1.9-1.2s1.1-.8 1.6-1.2c.9-.7 1.4-1.2 1.4-1.2s-.7.3-1.7.9-2.3 1.4-3.6 2.1c-.6.4-1.3.7-1.9 1.1-.6.3-1.2.6-1.7.9-.5.2-.9.4-1.3.5-.2-.1-.4-.1-.4-.1M32.1 109l.8-.8c.5-.5 1.1-1.1 1.8-1.6.3-.3.7-.5 1-.7s.7-.4 1-.5.5-.3.7-.3c.2-.1.3-.1.3-.1h-.3c-.2 0-.5 0-.8.1s-.7.2-1.1.4-.8.4-1.2.7-.7.6-1 .9-.5.7-.7 1c-.3.5-.5.9-.5.9M29 117.8s.1-.7.5-1.6c.2-.5.5-1 .8-1.5s.7-1.1 1.1-1.6.8-1.1 1.2-1.6.8-.9 1.1-1.3.6-.7.8-.9.3-.4.3-.4-.1.1-.4.3c-.2.2-.6.4-1 .8-.4.3-.9.7-1.3 1.2-.5.5-.9 1-1.3 1.5-.4.6-.8 1.1-1.1 1.7s-.5 1.2-.7 1.7-.2 1-.2 1.3zM29.7 124.4s-.1-.1-.1-.4c0-.2-.1-.6 0-1 .1-.8.4-1.8.8-2.8s.9-2 1.3-2.7.6-1.3.6-1.3l-.3.3c-.2.2-.4.4-.7.8-.2.3-.6.7-.8 1.2-.1.2-.3.5-.4.7-.1.3-.2.5-.4.8-.2.5-.4 1.1-.5 1.6s-.1 1-.1 1.5c0 .4.2.8.3 1zM30.9 123.6s-1.2 1.9-2.7 5c-.8 1.5-1.6 3.3-2.4 5.3s-1.7 4.1-2.3 6.3c-.7 2.2-1.3 4.4-1.5 6.5-.1 1.1-.2 2.1-.1 3.1 0 .5.1 1 .2 1.4 0 .2.1.4.2.7 0 .1 0 .2.1.3s.2.2.2.3c.6.6 1.3 1 1.8 1.4.6.4 1.1.7 1.5 1 .8.6 1.3.9 1.3.9s-.5-.3-1.3-.9c-.4-.3-.9-.7-1.4-1.1s-1.2-.9-1.8-1.5c-.2-.2-.3-.3-.3-.5s-.1-.4-.1-.7c0-.5-.1-.9-.1-1.4q0-1.5.3-3c.4-2.1.9-4.3 1.6-6.4s1.5-4.3 2.3-6.3 1.6-3.8 2.2-5.4c1.4-2.9 2.3-5 2.3-5M82.2 103.3s-2 3.8-5.3 9.5c-1.6 2.8-3.6 6.1-5.8 9.5q-1.65 2.55-3.6 5.1c-1.3 1.7-2.7 3.3-4.3 4.7a155 155 0 0 0-9.1 9c-2.8 3-5.3 5.8-7.4 8.3-1 1.3-2 2.4-2.7 3.6-.4.6-.7 1.1-.9 1.7s-.2 1.1-.1 1.6c.2.9.7 1.6.9 2 .3.4.4.7.4.7s-.1-.2-.4-.7c-.2-.5-.6-1.1-.8-2s.3-2 1.1-3.1 1.7-2.2 2.7-3.5c2.1-2.5 4.7-5.2 7.5-8.2 2.8-2.9 5.9-6 9.1-8.9 1.7-1.4 3.1-3.1 4.4-4.8s2.5-3.5 3.6-5.2c2.2-3.5 4-6.8 5.6-9.6 3.3-5.8 5.1-9.7 5.1-9.7"/><path fill="#8d674a" d="M41.1 53.2s-10.3-3.8-21.2 11.7c0 0 3.1-2.5 5-2.5 0 0-4.9 1.7-6.2 10 0 0 1.9-3.3 3.3-3.6 0 0-6.9 9.3 3.2 11.1 10.1 1.9 18.3-24.4 15.9-26.7"/><path fill="#59402f" d="M19.9 64.9s.2-.3.6-.8 1-1.2 1.7-2 1.6-1.7 2.6-2.6c.5-.5 1-.9 1.5-1.4s1.1-.9 1.7-1.3l1.8-1.2c.6-.3 1.2-.7 1.8-1 .6-.2 1.2-.6 1.8-.7.6-.2 1.1-.4 1.7-.5.5-.1 1-.2 1.4-.2.4-.1.8 0 1.1-.1h1s-.4 0-1-.1c-.3 0-.7-.1-1.2-.1-.4 0-.9.1-1.5.1-.5.1-1.1.2-1.7.4-.6.1-1.2.4-1.9.7-.6.3-1.3.6-1.9 1l-1.8 1.2c-.6.5-1.2.9-1.7 1.4s-1.1 1-1.5 1.4c-1 1-1.8 2-2.4 2.8-1.4 1.7-2.1 3-2.1 3M24.9 62.4s-.7.3-1.6 1c-.5.3-1 .8-1.4 1.3-.5.5-1 1.1-1.4 1.8s-.8 1.3-1 2c-.1.3-.3.7-.3 1-.1.3-.2.6-.2.9-.1.6-.1 1-.1 1.4v.5s.1-.2.1-.5c0-.2.1-.4.1-.6.1-.2.2-.5.2-.7.1-.3.2-.5.3-.8s.2-.6.4-.9c.1-.3.3-.6.5-.9l.6-.9c.8-1.2 1.8-2.4 2.5-3.2.8-.9 1.3-1.4 1.3-1.4M22 68.8s-.5.4-1 1.1c-.3.4-.6.8-.8 1.3-.3.5-.5 1.1-.6 1.7s-.2 1.2-.1 1.8c0 .3.1.6.1.8.1.3.1.5.2.7l.5 1c.1.2.2.3.2.3s0-.1-.1-.4c0-.1-.1-.3-.1-.4 0-.2-.1-.4-.1-.6-.1-.2-.1-.4-.1-.7 0-.2-.1-.5 0-.8v-.8c0-.3.1-.6.1-.8.1-.6.3-1.1.5-1.6s.4-1 .6-1.4c.4-.7.7-1.2.7-1.2"/><path fill="#8d674a" d="M184.3 84.1s-.1 7.8-3.5 10.9l-.2-2.8s-1.1 8.8-7.7 11.3l.8-2.6s-7.4 4.5-7.5 7.9l-1.2-2s-6.8 5.7-9.8 3.7"/><path fill="#8d674a" d="M162.2 29c-19.3-6.5-42.9 2.8-54.2 6.8-16.5 5.8-36.1-10.5-63.3 11.1s-22.4 54.5-2.5 71c22.2 18.4 101.7 19.7 116.2-8.4 0 0 26.5-9.8 28.1-37.1"/><path fill="#59402f" d="M184.5 84.1s-.2.7-.4 1.7-.5 2.4-.9 3.8c-.1.3-.2.7-.3 1s-.2.7-.3 1c-.2.6-.4 1.2-.6 1.6-.1.2-.2.5-.3.6-.1.2-.2.4-.3.4-.2.2-.3.4-.3.4s.1-.1.4-.3c.1-.1.3-.2.4-.4.2-.2.3-.4.5-.6.3-.4.6-1 .9-1.6s.5-1.3.7-2c.3-1.4.5-2.8.6-3.9-.1-.9-.1-1.7-.1-1.7M180.6 92.1s-.2.9-.7 2.1c-.2.6-.5 1.4-.8 2.1-.2.4-.4.8-.6 1.1-.2.4-.4.8-.6 1.1-.2.4-.5.7-.7 1.1-.3.3-.5.7-.8 1s-.5.6-.8.8-.5.5-.8.7-.5.4-.7.5-.4.3-.6.4c-.3.2-.5.3-.5.3s.2-.1.6-.2c.2-.1.4-.2.7-.3.2-.1.5-.3.8-.4l.9-.6c.3-.2.6-.5.9-.8s.6-.6.9-1c.3-.3.5-.7.8-1.1q.75-1.2 1.2-2.4c.3-.8.5-1.6.7-2.2.1-1.3.1-2.2.1-2.2M173.7 101s-.7.2-1.6.7c-.5.3-1 .6-1.5 1s-1.1.8-1.6 1.3-1 1-1.4 1.6c-.4.5-.7 1.1-.9 1.6-.1.3-.2.5-.2.7-.1.2-.1.4-.1.5-.1.3-.1.5-.1.5l.2-.4c.1-.1.1-.3.2-.5s.2-.4.4-.6c.1-.2.3-.4.5-.7.2-.2.4-.5.6-.7.4-.5.9-1 1.4-1.4.5-.5 1-.9 1.5-1.3s1-.8 1.4-1.1c.7-.8 1.2-1.2 1.2-1.2M165.1 106.9l-1.5 1c-.5.3-1 .6-1.6.9s-1.2.7-1.8.9c-.6.3-1.3.6-1.9.8l-.9.3c-.3.1-.6.1-.8.2-.3 0-.5.1-.7.1h-1.1s.2 0 .5.1c.2 0 .3.1.6.1h.7c.5 0 1.2-.1 1.8-.3.7-.2 1.3-.4 2-.7s1.3-.7 1.8-1.1c.6-.4 1.1-.8 1.5-1.1.9-.7 1.4-1.2 1.4-1.2M141.4 27s-3.1.2-7.7.9c-2.3.4-4.9.9-7.8 1.6-2.8.7-5.8 1.5-8.7 2.5s-5.7 2.3-8.5 3.2c-1.4.4-2.7.8-4 1s-2.5.4-3.7.5c-1.1.1-2.2.1-3.1.2h-2.4c-1.4 0-2.1-.1-2.1-.1s.8.1 2.1.2c.7.1 1.5.1 2.4.1h3.2c1.2-.1 2.4-.2 3.7-.4s2.7-.5 4.1-.9c2.8-.8 5.6-2.2 8.5-3.1 1.5-.5 2.9-.9 4.4-1.3s2.9-.8 4.3-1.2c2.8-.7 5.4-1.3 7.7-1.8s4.2-.8 5.5-1 2.1-.4 2.1-.4M67.3 36s-1.2.2-3.2.8-5 1.6-8.3 3.1-7.1 3.5-10.8 6.2-7.3 6.1-10.2 10.1c-1.4 2-2.7 4.2-3.7 6.3-1.1 2.1-2 4.3-2.9 6.5-.8 2.1-1.5 4.3-1.9 6.3-.4 2.1-.7 4-.7 5.9-.1 3.7.5 6.7.8 8.8.4 2.1.6 3.3.6 3.3s-.2-1.2-.4-3.3c-.3-2.1-.7-5.1-.5-8.8.1-1.8.4-3.8.8-5.8.5-2 1.2-4.1 2-6.2.9-2.1 1.8-4.2 2.9-6.4 1-2.2 2.2-4.2 3.7-6.2 2.8-3.9 6.3-7.3 10-10.1 3.6-2.7 7.4-4.8 10.6-6.4 3.3-1.6 6.1-2.6 8.2-3.3 1.8-.6 3-.8 3-.8M152.8 116.6s-.4.3-1 .7c-.7.4-1.7 1.1-3 1.8-.7.4-1.4.8-2.2 1.2s-1.7.8-2.7 1.3c-1 .4-2 .9-3.1 1.4-1.1.4-2.3.9-3.5 1.4s-2.5.9-3.8 1.4-2.7.8-4.2 1.3c-2.9.8-5.9 1.5-9.1 2.1-.8.1-1.6.3-2.4.5-.8.1-1.6.2-2.5.3-.8.1-1.7.2-2.5.3s-1.7.2-2.5.2c-.8.1-1.7.1-2.6.2s-1.7.1-2.6.1c-1.7 0-3.5.1-5.2.1-3.5-.1-6.9-.1-10.3-.5-3.4-.2-6.8-.6-10-.9l-4.8-.6c-1.6-.2-3.1-.5-4.5-.7-2.9-.5-5.7-1-8.2-1.6s-4.8-1.3-6.8-1.9c-1-.3-1.9-.7-2.8-1-.8-.4-1.6-.6-2.3-1-1.4-.6-2.4-1.3-3.1-1.7-.7-.5-1-.8-1-.8s.3.3 1 .8 1.7 1.1 3.1 1.8c.7.4 1.5.7 2.3 1.1.9.3 1.8.7 2.8 1.1 2 .7 4.3 1.4 6.8 2s5.3 1.2 8.2 1.8c1.5.2 3 .5 4.5.8 1.6.2 3.1.4 4.8.6 3.2.3 6.6.7 10 1s6.9.4 10.4.5c1.7 0 3.5-.1 5.2-.1.9 0 1.7-.1 2.6-.2s1.7-.1 2.6-.2 1.7-.1 2.5-.2 1.7-.2 2.5-.4c.8-.1 1.7-.2 2.5-.4.8-.1 1.6-.3 2.4-.5 3.2-.6 6.3-1.4 9.1-2.2 1.4-.5 2.8-.8 4.2-1.3 1.3-.5 2.6-.9 3.8-1.4s2.4-1 3.5-1.4c1.1-.5 2.1-1 3.1-1.4.9-.5 1.8-.9 2.6-1.4s1.5-.9 2.2-1.2c1.3-.8 2.3-1.4 3-1.9.7-.6 1-.9 1-.9"/><path fill="#8d674a" d="M83.9 85.6s1.5 34.3-2.5 46.8c-1.3 4-13.8 29.5-12.2 32.1 1.6 2.7 8 7.6 6.5 9.1-1.6 1.5-22.1-.1-26.4-2.3-1.8-.9-7.2-22.6-6.8-39.5.4-12.7-1.8-24.9-2.3-34.1s-5.5-25.1-1.9-32.2 13.9-18.3 30-11.2 16.2 25 15.6 31.3"/><path fill="#59402f" d="M68.1 173.9s0-.3-.1-.8-.4-1.1-.9-1.6c-.4-.5-1-.9-1.4-1.2-.4-.2-.8-.3-.8-.3s0 .1.1.2.2.3.4.4c.3.4.7.8 1.1 1.3s.8 1 1 1.4c.5.4.6.6.6.6M73.7 173.4s-.1-.4-.3-.9-.6-1.2-1.2-1.8c-.3-.3-.6-.5-.9-.7s-.6-.4-.9-.5-.5-.2-.7-.2h-.3l.2.2c.1.1.3.2.5.4.4.3 1 .8 1.5 1.3s1 1.1 1.3 1.5c.6.4.8.7.8.7"/><path fill="#6c5f57" d="M67.3 175.4c-.1-.6-1.1-3.2-2.3-3.1-1.1.1-.3 1.2.3 1.8s2.1 1.6 2 1.3M72.8 174.4c-.1-.6-1.1-3.2-2.3-3.1-1.1.1-.3 1.2.3 1.8s2 1.7 2 1.3M76.2 173.9c-.1-.6-1.1-3.2-2.3-3.1-1.1.1-.3 1.2.3 1.8s2 1.7 2 1.3"/><path fill="#8d674a" d="M41.6 107.9s-4.2 12.1-6.5 12.7c0 0 2.7 1 3.9-1 0 0-3.6 3.2-3.1 7.7l2.5-1.9s-1.7 7.3 0 11.3l1.7-3.9s-1.1 7.1 4.1 9.2"/><path fill="#59402f" d="M35.3 120.6s.2 0 .5-.2.6-.5 1-1c.8-.9 1.5-2.2 2.2-3.6l.9-2.1q.45-1.05.6-1.8c.3-1.1.5-1.8.5-1.8s-.4.7-.8 1.7c-.5 1-1.1 2.4-1.7 3.8-.3.7-.6 1.4-1 2-.3.6-.6 1.2-.9 1.7s-.5.9-.8 1.1c-.3.1-.5.2-.5.2M36.1 127.2s.1-.5.2-1.1c.1-.7.3-1.5.5-2.3.1-.4.3-.8.4-1.2.2-.4.3-.7.5-1s.3-.5.4-.7.2-.3.2-.3-.1.1-.3.2-.4.3-.6.5-.5.6-.7 1-.4.8-.5 1.3c-.1.4-.2.9-.3 1.3v1.2c0 .7.2 1.1.2 1.1M38.5 136.2s-.3-.6-.5-1.6c-.1-.5-.1-1.1-.2-1.7v-2c0-.7.1-1.3.1-2 0-.6.1-1.2.2-1.7s.1-.9.1-1.2v-.5l-.2.4c-.1.3-.3.7-.4 1.2s-.3 1.1-.4 1.7-.2 1.3-.2 2 0 1.4.1 2.1.2 1.3.4 1.8.4.9.5 1.2c.3.2.5.3.5.3M42.8 141.2s-.1-.1-.3-.2c-.2-.2-.4-.4-.6-.8-.4-.7-.7-1.7-1-2.8-.2-1.1-.4-2.1-.5-3-.1-.8-.2-1.4-.2-1.4s0 .1-.1.4c0 .2-.1.6-.1 1v1.4c0 .3 0 .5.1.8 0 .3.1.6.1.8.1.6.3 1.1.5 1.6s.5.9.8 1.3c.3.3.6.5.8.7.3.2.5.2.5.2"/><path fill="#59402f" d="M41.6 132.6s.2 2.7.7 6.6c.2 2 .5 4.3.9 6.8s.8 5.1 1.2 7.7c.5 2.6 1 5.2 1.5 7.7.5 2.4 1.1 4.7 1.8 6.6.3 1 .6 1.8 1 2.5.1.2.2.4.3.5s.2.3.4.4c.3.2.7.3.9.3 1.1.3 1.8.3 1.8.3s-.7-.1-1.8-.5c-.3-.1-.6-.2-.9-.4-.1-.1-.2-.2-.3-.4s-.2-.3-.3-.5c-.3-.7-.6-1.6-.9-2.5-.6-1.9-1-4.2-1.5-6.6s-1-5.1-1.4-7.7c-.5-2.6-.9-5.2-1.3-7.7s-.8-4.8-1.1-6.7c-.6-3.8-1-6.4-1-6.4M82.6 105.4s.3 4.1.3 10.2c0 3-.1 6.6-.6 10.4q-.3 2.85-1.2 5.7c-.7 1.8-1.5 3.7-2.3 5.6-1.6 3.7-3.3 7.5-4.8 11s-2.8 6.8-3.8 9.7c-.5 1.5-.9 2.8-1.2 4-.2.6-.3 1.2-.3 1.7 0 .6.3 1 .5 1.4.5.7 1 1.2 1.4 1.6l.5.5-.5-.5c-.3-.4-.8-.9-1.3-1.6-.2-.4-.4-.8-.4-1.3s.2-1.1.3-1.7c.4-1.2.8-2.5 1.3-3.9 1-2.9 2.4-6.1 3.9-9.6s3.2-7.2 4.9-10.9c.8-1.9 1.6-3.7 2.3-5.6.6-1.9.9-3.9 1.2-5.8.4-3.8.4-7.4.4-10.5-.1-3.1-.3-5.6-.4-7.4-.1-2-.2-3-.2-3"/><g fill="#8d674a"><path d="M163.4 88.4c4.9 22.3 1.2 29.9 2.9 36.2 1.6 6.3 10.8 28.6 13.1 30.8 2.4 2.2 7.2 4 9 6.8s-22.7 8-26 7.2c-2.7-.6-30.8-31.5-37.9-53.4-11.8-45.4 34-49.9 38.9-27.6"/><path d="M123.1 92.7s-2.9 12.5-5.1 13.3c0 0 2.8.7 3.8-1.4 0 0-3.2 3.5-2.3 8l2.2-2.1s-1 7.5 1.2 11.2l1.3-4s-.3 7.2 5.1 8.7"/></g><path fill="#59402f" d="M118.1 106s.2-.1.4-.3.6-.6.9-1.1c.7-1 1.3-2.4 1.8-3.8.2-.7.5-1.4.6-2.1.2-.7.3-1.3.4-1.9.2-1.1.3-1.9.3-1.9s-.3.7-.7 1.8-.8 2.5-1.3 3.9c-.2.7-.5 1.4-.7 2.1-.3.7-.5 1.3-.7 1.8s-.5.9-.7 1.2zM119.6 112.5s0-.5.1-1.1c.1-.7.1-1.5.3-2.4l.3-1.2c.1-.4.3-.7.4-1s.2-.6.3-.7c.1-.2.1-.3.1-.3l-.2.2q-.3.15-.6.6c-.2.3-.4.6-.6 1s-.3.8-.4 1.3-.1.9-.1 1.4c0 .4 0 .8.1 1.2.1.5.3 1 .3 1M122.8 121.2s-.4-.6-.6-1.6c-.1-.5-.3-1.1-.3-1.7-.1-.6-.2-1.3-.2-2s-.1-1.3-.1-2v-3.4s-.1.2-.1.5q-.15.45-.3 1.2c-.1.5-.2 1.1-.2 1.8-.1.6 0 1.3 0 2 .1.7.1 1.4.3 2 .1.6.3 1.2.6 1.7.2.5.5.8.7 1.1.1.3.2.4.2.4M165.3 169.3s-.2.1-.7.2-1.1.1-2-.2c-.8-.2-1.7-.8-2.6-1.6s-1.6-1.9-2.6-3.1c-1.9-2.3-4.2-4.9-6.6-7.7s-4.9-5.9-7.4-9c-1.2-1.5-2.5-3.1-3.6-4.6-1.2-1.5-2.3-3.1-3.4-4.6s-2-3-2.9-4.4-1.7-2.8-2.5-4.1c-1.5-2.6-2.7-4.7-3.4-6.3-.4-.8-.6-1.4-.8-1.9-.2-.4-.2-.7-.2-.7s0 .2.2.7c.1.4.4 1.1.7 1.9.7 1.6 1.7 3.8 3.2 6.4q1.05 1.95 2.4 4.2c.9 1.5 1.8 3 2.9 4.5 1 1.5 2.2 3.1 3.3 4.7 1.2 1.6 2.4 3.1 3.6 4.7 2.5 3.1 5.1 6.1 7.5 8.9s4.8 5.4 6.7 7.6c1 1.1 1.8 2.2 2.8 3 .9.8 1.9 1.3 2.7 1.5s1.6.2 2 .1c.5-.1.7-.2.7-.2"/><path fill="#59402f" d="M128.9 126.3s-.6-.2-1.3-.8c-.3-.3-.7-.7-1-1.2s-.6-1-.8-1.6l-.3-.9c-.1-.3-.2-.6-.3-.8-.2-.6-.3-1.1-.4-1.5-.1-.5-.2-.8-.3-1.1s-.1-.4-.1-.4v1.6c.1.5.1 1 .3 1.6.1.3.1.6.2.9l.3.9c.3.6.6 1.2 1 1.7.2.3.4.5.6.7s.4.4.6.5c.4.3.8.4 1.1.5.2-.1.4-.1.4-.1M182.5 157.5l-.6-.3c-.4-.2-.9-.5-1.5-1.1-.6-.5-1.3-1.3-1.9-2.3s-1-2.2-1.6-3.4c-1.2-2.6-2.5-5.6-3.9-8.8s-2.8-6.7-4-10.2c-.6-1.8-1.2-3.5-1.7-5.3s-.8-3.5-.9-5.3c-.3-3.5-.3-6.8-.3-9.6s-.2-5.2-.4-6.8c-.1-.8-.2-1.5-.3-1.9s-.1-.7-.1-.7 0 .2.1.7c.1.4.1 1.1.2 1.9s.1 1.8.1 3v3.8c-.1 2.8-.3 6.1.1 9.6.1 1.7.4 3.6.9 5.4s1 3.6 1.6 5.4c1.3 3.6 2.7 7 4.1 10.2s2.9 6.2 4.1 8.7c.6 1.3 1.1 2.5 1.8 3.4.7 1 1.4 1.7 2 2.2s1.2.8 1.6 1c.3.4.6.4.6.4M181.8 165.7s0-.3-.2-.8-.5-1.1-1-1.6-1-.9-1.5-1.1-.8-.3-.8-.3l.2.2.4.4 1.2 1.2c.4.4.8.9 1.1 1.3s.6.7.6.7M187.2 164.3s-.1-.4-.3-.9c-.3-.5-.7-1.2-1.3-1.7-.3-.3-.6-.5-.9-.7s-.6-.3-.9-.4-.5-.1-.7-.2h-.3l.2.2c.1.1.3.2.6.4.5.3 1 .7 1.6 1.2.5.5 1.1 1 1.4 1.4.4.4.6.7.6.7"/><path fill="#6c5f57" d="M181 167.1c-.1-.6-1.4-3.1-2.5-3s-.2 1.2.4 1.8c.7.7 2.2 1.6 2.1 1.2M186.4 165.8c-.1-.6-1.4-3.1-2.5-3-1.1.2-.2 1.2.4 1.8.7.7 2.2 1.6 2.1 1.2M189.7 164.5c-.1-.6-1.4-3.1-2.5-3-1.1.2-.2 1.2.4 1.8.7.6 2.1 1.6 2.1 1.2"/><path fill="#8d674a" d="M173.2 23.7c20.3-2.8 43.1 9.1 46.2 14.7s3.7 18.8 3.7 18.8 20.5 10.7 20.1 15-7 14.1-15.3 14.7-15.4 1.5-25.1 1-27.1 1.6-35.9-8.2c0 0 1.2 4.3 2.9 5.5 0 0-11.4-2.6-8.4-13.5 0 0-2 1.8-1.4 7.5 0 0-6.1-6.2-2.2-15.2 0 0-2.7 4.9-5.4 4.9 0 0 2.6-3.8 2.5-10.3.1-6.4 1.3-32.5 18.3-34.9"/><path fill="#8d674a" d="M176.3 22.8c20.4-2 40.1 9.9 43.2 15.6s3.7 18.8 3.7 18.8 20.4 10.7 20 15-7 14.1-15.3 14.7-16.9 3.5-26.5 2.9-25.6-.2-34.4-10c0 0 1.2 4.3 2.9 5.5 0 0-11.4-2.6-8.4-13.5 0 0-2 1.8-1.4 7.5 0 0-6.1-6.2-2.2-15.2 0 0-2.7 4.9-5.4 4.9 0 0-4.5-15.2-4.6-21.7s14-23.1 28.4-24.5"/><path fill="#9e7b5c" d="M243.2 72.2c-.4 4-6.1 12.7-13.6 14.4-2.5-1.4-5.3-3.4-5.5-6.1 0 0-16.1-11.1-1.1-23.3.1 0 20.6 10.7 20.2 15"/><path fill="#332721" d="M242.3 75.4c.9-1.6 2.3-3.2 1.4-4.6-.5-.8-1.7-2.3-2.7-2.3s-2.5 3 .5 4.5c-.4 1.6.2 2.1.8 2.4"/><path fill="#59402f" d="M236.9 82.2s-.5-.3-1.3-.7c-.4-.2-.9-.3-1.4-.5-.5-.1-1.1-.3-1.7-.3-.6-.1-1.2-.1-1.8-.1s-1.1.1-1.5.2-.8.2-1 .3l-.4.2h.4c.3 0 .6-.1 1-.1h1.5c.5 0 1.1.1 1.7.1 1.1.1 2.3.3 3.1.5.8.3 1.4.4 1.4.4"/><ellipse cx="30.901" cy="34.601" fill="#332010" rx="1.7" ry="2.6" transform="rotate(5.264 -148.205 2699.7)scale(-1 1)"/><path fill="#9e7b5c" d="M209.9 49.8c-.1 1.1 3 1.8 4.4 1.9s2.7-.6 2.8-1.7-1-2-2.4-2.2c-1.5-.1-4.7.9-4.8 2"/><path fill="#59402f" d="M223.1 57.2v-2.3c-.1-1.4-.1-3.5-.4-6-.1-1.2-.3-2.6-.6-4s-.6-2.9-1.2-4.3c-.3-.7-.6-1.5-1-2.2-.5-.7-.9-1.3-1.5-2-1.1-1.2-2.3-2.4-3.6-3.4s-2.7-1.9-4.1-2.7-2.8-1.6-4.2-2.2c-1.4-.7-2.8-1.2-4.1-1.7s-2.6-.9-3.8-1.3q-1.8-.6-3.3-.9c-1-.2-1.8-.5-2.5-.6-1.4-.3-2.2-.5-2.2-.5s.8.2 2.2.6 3.4 1 5.7 1.7c1.2.4 2.4.8 3.7 1.4 1.3.5 2.7 1.1 4.1 1.8s2.8 1.4 4.2 2.2 2.7 1.8 4 2.7q1.95 1.5 3.6 3.3c.5.6 1 1.2 1.4 1.9s.7 1.4 1 2.1c1.1 2.9 1.6 5.7 1.9 8.1.6 5 .7 8.3.7 8.3M169.9 85.3s-.3-.1-.7-.2c-.5-.1-1.1-.4-1.9-.8-.4-.2-.8-.4-1.2-.7-.4-.2-.8-.6-1.2-.9s-.8-.7-1.2-1.1-.7-.8-1-1.3c-.3-.4-.5-1-.8-1.4-.2-.5-.3-1-.5-1.5-.1-.5-.1-1-.2-1.5s0-.9 0-1.4c0-.4 0-.8.1-1.2 0-.3.1-.6.1-.9.1-.5.1-.8.1-.8s-.1.3-.2.8c-.1.2-.2.5-.2.9-.1.3-.2.7-.2 1.2 0 .4-.1.9-.1 1.4s0 1 .1 1.6c.2.5.2 1.1.5 1.6.2.5.4 1.1.8 1.6.3.5.7.9 1.1 1.4.4.4.9.8 1.3 1.1.9.6 1.8 1.1 2.6 1.4 1.5.6 2.7.7 2.7.7M160.1 79.3s-.7-.7-1.5-2.1c-.2-.3-.4-.7-.6-1.1s-.4-.8-.5-1.3c-.1-.2-.2-.4-.2-.7-.1-.2-.1-.5-.2-.7l-.3-1.5c-.1-.5-.1-1-.1-1.5s0-1 .1-1.5.1-.9.2-1.4l.3-1.2c.1-.4.2-.7.3-1s.2-.6.2-.8c.1-.4.2-.7.2-.7l-.3.6c-.1.2-.2.5-.4.7-.2.3-.3.6-.4 1s-.3.8-.4 1.2-.2.9-.3 1.4c0 .5-.1 1-.1 1.5s0 1 .1 1.6l.3 1.5c.1.2.1.5.2.7s.2.5.3.7c.2.5.4.9.6 1.3s.5.7.7 1.1c.5.6.9 1.1 1.3 1.4.3.6.5.8.5.8M152.6 68.9s.2-.2.4-.5c.2-.4.6-.9.9-1.6s.6-1.5.8-2.4.4-1.9.5-2.8c.1-.5.1-1 .1-1.5s.1-1 .1-1.4c.1-.9 0-1.8 0-2.5s-.1-1.3-.1-1.8c0-.4-.1-.7-.1-.7s0 .2-.1.7c0 .4-.1 1-.1 1.8 0 .7-.1 1.6-.2 2.5s-.2 1.9-.3 2.8c-.1 1-.2 1.9-.4 2.8q-.3 1.35-.6 2.4c-.2.7-.4 1.2-.6 1.6zM179 22.8s-.4-.1-1.1-.2h-1.2c-.5 0-1 .1-1.6.2s-1.2.2-1.9.4c-.6.2-1.3.3-2 .6-.7.2-1.4.5-2.1.8s-1.4.7-2.1 1-1.4.8-2 1.1c-.7.4-1.3.8-1.9 1.2-1.2.8-2.3 1.6-3.2 2.3-.5.3-.9.7-1.2 1-.4.3-.7.6-.9.8-.5.4-.8.7-.8.7l.9-.6c.3-.2.6-.4 1-.7s.8-.6 1.3-.9 1-.7 1.6-1c.5-.4 1.2-.7 1.8-1.1s1.2-.8 1.9-1.1c.7-.4 1.3-.8 2-1.1s1.4-.7 2.1-1 1.4-.6 2-.9c1.3-.5 2.6-.9 3.8-1.2.6-.1 1.1-.2 1.6-.3s.9-.1 1.2-.1c.4 0 .8.1.8.1"/><path fill="#8d674a" d="M192 25.6s-1.7-8.2-6.3-8.8-15.3 3.9-7.2 16.6"/><path fill="#59402f" d="M185.5 19.3s-.4.6-.7 1.5c-.2.5-.4 1-.5 1.6-.2.6-.3 1.3-.3 2v1c.1.3.1.7.2 1l.3.9c.1.3.2.5.4.7.3.4.5.7.8.9l.3.3s-.1-.1-.2-.4c-.1-.1-.2-.3-.3-.4l-.3-.6c-.1-.2-.2-.5-.2-.7-.1-.3-.1-.5-.2-.8s-.1-.6-.1-.9v-.9c0-.6.1-1.3.2-1.8.1-.6.2-1.1.3-1.6.1-1.1.3-1.8.3-1.8"/><g fill="#59402f"><path d="M183.2 28.4s0 .2.1.3c.1.2.2.4.4.6s.4.4.6.5.3.1.3.1 0-.2-.1-.3c-.1-.2-.2-.4-.4-.6s-.4-.4-.6-.5c-.1-.1-.3-.1-.3-.1M182 29.7s0 .1.1.3.2.3.3.5c.1.1.3.3.5.3.2.1.3.1.3.1s0-.1-.1-.3-.2-.3-.3-.5c-.1-.1-.3-.3-.5-.3-.1-.1-.3-.1-.3-.1"/></g><path fill="#59402f" d="M179.1 18.5s.3-.1.7-.4c.5-.2 1.2-.5 2-.7.2-.1.4-.1.7-.2.2 0 .5-.1.7-.1h1.6c.3 0 .5.1.8.1.3.1.5.2.8.2.3.1.5.2.8.3.2.1.5.2.7.4.3.6.8.9 1.1 1.3.4.4.7.8 1 1.3.2.5.6.9.7 1.4.2.5.4.9.6 1.3s.3.8.4 1.1l.3.9c.2.5.3.8.3.8s0-.3-.1-.8c0-.3-.1-.6-.2-.9-.1-.4-.1-.8-.3-1.2-.1-.4-.3-.9-.5-1.4-.1-.5-.4-1-.7-1.5-.2-.5-.6-1-1-1.5-.3-.5-.9-.9-1.3-1.3-.2-.2-.5-.3-.8-.5-.3-.1-.5-.3-.8-.4s-.6-.2-.9-.2-.6-.1-.9-.1h-.8c-.3 0-.5 0-.8.1s-.5.1-.7.2c-.4.3-.6.3-.8.4-.4.1-.8.3-1.1.5s-.6.3-.8.5c-.5.2-.7.4-.7.4"/></g></svg>