<svg xmlns="http://www.w3.org/2000/svg" width="212.048" height="171.263" viewBox="-0.268 0.097 212.048 171.263"><path fill="#82783c" d="M46.124 101.79v5.997c-3.899-.243-9.504-.73-10.397-2.918 3.574-.972 6.985-1.945 10.397-3.079"/><path fill="#a0aa1e" d="M31.259 93.118c.163 1.378.488 2.674 1.138 3.89H.637c-1.218-7.294.488-16.533 2.762-24.313 2.518-8.266 9.909-17.019 9.909-17.019l30.054 5.025c.081-.081-12.834 25.285-12.103 32.417"/><path fill="#824600" d="m49.698 28.284 7.879 29.175-16.246 14.507-35.414-9.644s7.96-15.155 20.875-22.611c8.61-4.944 20.631-10.617 22.906-11.427"/><path fill="#82783c" d="M164.389 99.52v5.998c3.899-.244 9.422-.73 10.397-2.918-3.574-.973-6.986-1.945-10.397-3.08"/><path fill="#a0aa1e" d="M180.066 91.497c-.163 1.378-.488 2.675-1.138 3.89h31.76c1.218-7.294.487-16.289-1.544-24.151-2.842-11.264-19.331-22.854-19.331-22.854l-22.338 17.425c0-.081 13.322 18.558 12.591 25.69"/><path fill="#824600" d="m160.815 28.284-7.879 29.175 12.265 13.453 39.151-11.103s-7.716-12.561-20.631-20.017c-8.691-5.025-20.632-10.698-22.906-11.508"/><path fill="#a0aa1e" d="m135.716 143.689 24.855 3.809c0 .405-3.736 22.286-3.736 22.286l9.828.162s-.081.649-.162.892c-3.249.081-31.516-.081-31.516-.081s.569-26.582.731-27.068"/><path fill="#005a5a" d="M164.551 158.844c.163-2.918 0-5.998.244-8.834.406-4.376 2.356-24.718 2.031-26.987l-39.151-16.857c0 2.188-.163 39.306 1.381 52.759z"/><path fill="#006482" d="M125.807 152.765h41.831v13.372h-41.831z"/><path fill="#a0aa1e" d="m73.741 143.689-24.856 3.809c0 .405 3.737 22.286 3.737 22.286l-9.829.162s.082.649.163.892c3.249.081 31.516-.081 31.516-.081s-.65-26.582-.731-27.068"/><path fill="#005a5a" d="m79.183 157.547-.081-43.115-35.496 10.212s1.705 24.637 3.817 32.984z"/><path fill="#006482" d="M42.55 154.386h39.719v13.372H42.55z"/><path fill="#ffc800" d="M123.938 7.051c-2.599-.081-5.036 1.053-6.498 3.16-1.706 2.189-2.193 8.834 5.524 9.239 3.005.162 7.472-.486 7.472-5.511 0-5.024-3.736-6.888-6.498-6.888"/><path fill="#a0aa1e" d="M125.725 1.945C118.09-.162 93.316.81 87.874.891 82.757.973 77.639-.243 75.121 4.944 73.01 9.32 71.629 23.097 70.816 30.31l61.245-.243c-.731-6.565-4.305-26.177-6.336-28.122"/><path fill="#a0aa1e" d="M129.787 15.56s.081 0 .081.081z"/><path fill="#82783c" d="M127.593 14.101c-3.167 1.054-13.321.487-13.727.163-.081-3.404-.243-5.836 6.58-6.241s6.741 2.513 7.147 6.078"/><path fill="#645a1e" d="M125.563 11.589c-.406 0-.812.162-1.056.486-.244.325-.244 1.459 1.056 1.54.487 0 1.137-.081 1.137-.891-.081-.568-.487-1.054-1.137-1.135M117.521 11.67c-.406 0-.812.162-1.055.486-.244.325-.244 1.459 1.055 1.54.488 0 1.138-.081 1.138-.891.081-.568-.407-1.135-.975-1.135z"/><path d="M119.877 16.695s3.005-.162 4.467-.081c.163.405.244.891.163 1.296-.081.081-.081.244-.163.244-.568 0-4.223.324-4.467-.244zM132.63 10.779c-.488 0-.894.324-1.138.729-.243.567-.243 2.188 1.056 2.269.488 0 1.137-.162 1.137-1.377s-.568-1.621-1.055-1.621M100.545 11.265c-.487 0-.893.324-1.056.729-.325.487-.243 2.188 1.056 2.27.488 0 1.137-.163 1.137-1.378 0-1.216-.649-1.621-1.137-1.621"/><path fill="#fab414" d="M82.432 12.318v2.108c-3.412.081-8.691-.081-10.397-.081v-2.108c2.924 0 7.473 0 10.397.081"/><path fill="#ffc800" d="M73.253 7.051c-2.599-.081-5.036 1.053-6.498 3.16-1.706 2.189-2.193 8.834 5.442 9.239 3.006.162 7.473-.486 7.473-5.511 0-5.024-3.655-6.888-6.417-6.888"/><path fill="#fab414" d="M72.847 11.589c-.731 0-1.381.324-1.787.892-.487.567-.568 2.431 1.462 2.512.812.081 2.031-.162 2.031-1.54.081-.972-.65-1.783-1.625-1.864z"/><path fill="#a0640a" d="m41.331 71.966 60.758 23.664 63.112-24.718s-.975-17.586-1.949-22.611c-.082-.324-1.787-18.477-2.031-19.774-6.011-2.755-24.287-5.106-24.287-5.106l-69.448.162s-8.366 1.216-14.296 3.404-13.321 5.835-13.321 5.835-.325 14.183.082 21.477c.568 10.292 1.38 17.667 1.38 17.667"/><path fill="#008264" d="M102.413 43.439c-16.407 0-32.815.162-32.815.162s-3.574.243-3.655 0C61.394 45.303 41.25 71.966 41.25 71.966l2.275 52.597 58.888-.73 7.717-45.627z"/><path fill="#00a08c" d="m102.413 123.833 64.413-.81-1.625-52.111s-22.012-24.15-27.292-27.068c-5.198-.324-20.55-.405-35.414-.405z"/><path fill="#005a5a" d="m132.954 21.638.813 36.307 7.797.082s.244-28.041-1.137-36.389z"/><path fill="#ffc800" d="M137.828 51.705c-.894 0-1.706.405-2.274 1.135-.569.729-.488 3.16 2.193 3.242 1.056.081 2.355-.244 2.355-1.946.082-1.215-.893-2.269-2.112-2.35-.081-.081-.162-.081-.162-.081"/><path fill="#005a5a" d="M62.694 21.638c-1.381 8.348-1.137 36.389-1.137 36.389l7.716-.082.812-36.307z"/><path fill="#ffc800" d="M65.212 51.705c.893 0 1.706.405 2.274 1.135.569.729.488 3.16-2.193 3.242-1.056.081-2.355-.244-2.355-1.946-.082-1.215.893-2.269 2.111-2.35 0-.081.082-.081.163-.081"/><path fill="#005a5a" d="M88.361 63.213c-1.299 5.511.975 13.048 4.305 16.614 3.98 2.918 12.996 3.242 17.22.81 4.874-2.755 6.173-9.076 6.092-14.02 0-1.135 0-2.269-.081-3.404z"/><path fill="#006482" d="M86.412 58.027h31.191v8.752H86.412z"/><path fill="#fab414" d="M102.413 60.458c-.893-.081-1.787.405-2.355 1.134-.65.811-.488 3.242 2.274 3.404 1.137.081 2.356-.243 2.356-2.026.081-1.297-.894-2.431-2.193-2.512z"/><path fill="#a0aa1e" d="M180.309 93.28c-.812 1.297-4.792 7.699-7.798 9.158-7.472 3.728-17.869 1.864-18.275 4.214s9.584 1.054 9.259 2.999-12.833 2.188-12.915 4.781c-.081 2.594 8.123.649 10.154 2.269 0 .244.081.568.162.892-1.787 1.378-8.61 2.431-8.772 3.647s.731 1.864 5.442 1.864 11.209-.243 19.088-.243 25.749-2.756 32.734-22.449c.569-1.702.975-3.404 1.3-5.106zM31.016 94.901c.812 1.297 4.792 7.699 7.797 9.158 7.473 3.728 17.87 1.864 18.276 4.214s-9.584 1.054-9.259 2.999 12.833 2.107 12.914 4.781c.082 2.674-8.122.648-10.153 2.269 0 .243-.081.568-.162.892 1.787 1.377 8.61 2.431 8.772 3.647s-.731 1.864-5.442 1.864-11.209-.243-19.088-.243-25.749-2.675-32.734-22.368c-.569-1.702-.975-3.404-1.3-5.106z"/></svg>