<svg xmlns="http://www.w3.org/2000/svg" width="77.989" height="267.82" viewBox="0 0 77.989 267.82"><g fill="none" fill-rule="evenodd" stroke-linecap="none" stroke-linejoin="none" stroke-miterlimit="10" stroke-width="none" data-paper-data="{&quot;isPaintingLayer&quot;:true}" font-family="none" font-size="none" font-weight="none" style="mix-blend-mode:normal" text-anchor="none"><path fill="#36445e" d="M38.505 137.879c-.581 13.4-.82 29.744-1.377 43.136-.693.608-1.671 7.84-9.941 7.552-7.673-.272-7.068-7.544-7.864-8.344-.374-8.624-1.64-30.056-1.767-34.68.12-10.072 5.516-17.648 11.995-17.56 4.457.04 7.1 4.648 8.954 9.896M48.868 127.999c6.447-.328 13.132 3.016 13.61 13.08.04 4.624-.764 29.096-1.664 38.76-.764.832.096 8.064-7.56 8.616-8.254.568-9.496-6.624-10.204-7.2-1.035-13.368-1.743-29.696-2.778-43.064 1.671-5.288 4.147-9.984 8.596-10.192" data-paper-data="{&quot;origPos&quot;:null}"/><g data-paper-data="{&quot;origPos&quot;:null}"><g stroke-linecap="butt" stroke-linejoin="miter" stroke-width="1"><path fill="#705347" d="M34.005 180.333a5.4 5.4 0 0 1 1.483 4.002l-2.387 64.152a4.05 4.05 0 0 1-3.877 3.352h-.055a4.03 4.03 0 0 1-3.104-1.332 4.07 4.07 0 0 1-1.011-3.236l-3.335-62.904c-.104-3.056 5.333-5.696 8.373-5.696a5.35 5.35 0 0 1 3.913 1.662"/><path fill="#36445e" d="M29.28 233.967s-4.91.416-5.404-3.344l-4.577-50.4c-.047-4.112 3.009-9.872 7.355-9.928 8.206-1.168 10.402 6.608 10.45 10.72l-3.12 50.784c-.111 1.296-1.313 1.888-4.704 2.168" data-paper-data="{&quot;origPos&quot;:null}"/></g><path fill="#eda68c" d="M17.652 260.15 24.25 251c.51-2.272-.16-9.072-.16-9.072h.797l.867 2.056a1.82 1.82 0 0 1 1.274-1.704l3.016.096a1.47 1.47 0 0 1 1.306 1.448l1.735-1.784h.7l.223 13.088-.7 7.256z"/><path stroke="#f0ded3" stroke-linecap="round" stroke-linejoin="round" stroke-width=".5" d="m25.778 244.799 5.03 3.544-4.727 2.776 3.916 2.008-5.636.784 5.007 2.096-8.047 1.152 7.824.584-6.184-2.64 6.725-.664-4.52-2.048 5.316-1.04-4.68-3.544 5.213-2.68"/><path fill="#ce7d71" d="m31.35 243.815-.207 7.56-1.688 7.088-1.257.024 2.284-7.136.374-6.616zM25.754 243.975l.327 7.144-5.683 8.104-.995-.056 6.36-8.128-.32-7.792z"/><path fill="#e69783" d="m30.912 259.91 1.56-7.84.613-10.04.7.009.223 13.088-.669 6.96z"/><path fill="#e5e8e9" d="M25.372 257.639c6.272.072 8.007 3.216 7.96 3.944a29.4 29.4 0 0 1-8.652 1.464c-2.605.085-5.201-.344-7.641-1.264 0 0-.645-4.248 8.333-4.144"/><path fill="#cfd6d4" d="M16.92 264.183q.008-1.205.159-2.4c2.577.705 5.257.954 7.92.736 2.96-.136 6.78-.32 8.372-.936v2.08a1.91 1.91 0 0 1-1.393 2 21.7 21.7 0 0 1-6.86 1.456 18.9 18.9 0 0 1-7.466-.96c-.502-.272-.748-.936-.732-1.976"/><path fill="#545c59" d="M17.039 261.783a27.2 27.2 0 0 0 7.96.856 51 51 0 0 0 8.332-1.056c.144-.04.2.448 0 .504a50 50 0 0 1-8.365 1.144 27.3 27.3 0 0 1-7.959-.96c-.183-.048-.048-.512.032-.488"/></g><g stroke-linecap="butt" stroke-linejoin="miter" stroke-width="1"><path fill="#705347" d="M58.1 247.183a4.08 4.08 0 0 1-.987 3.219 4.03 4.03 0 0 1-3.064 1.365h-.056a4.025 4.025 0 0 1-3.923-3.288l-4.983-64.104c-.16-3.128 3.852-5.752 6.9-5.752 3.05 0 6.965 2.504 6.91 5.56z"/><path fill="#36445e" d="m48.55 231.799-5.524-50.544c-.096-4.112 1.814-11.968 10.06-11.088 4.346-.104 7.601 5.544 7.705 9.656l-2.388 51c-.915 3.16-4.776 3.16-4.776 3.16-3.255.232-4.903-.776-5.078-2.184"/></g><path fill="#eda68c" d="m50.117 263.207-.947-8.8v-11.528h.7l1.783 1.744a1.48 1.48 0 0 1 1.266-1.488l3.009-.168c.75.22 1.28.894 1.32 1.68l.797-2.064h.796s-.502 6.816.055 9.072l6.845 9z"/><path stroke="#f0ded3" stroke-linecap="round" stroke-linejoin="round" stroke-width=".5" d="m52.028 245.943 5.276 2.56-4.6 3.656 5.34.912-4.464 2.16 6.741.496-6.12 2.784 7.807-.768-8.078-.952 4.958-2.224-5.65-.64 3.867-2.104-4.79-2.672 4.942-3.656"/><path fill="#ce7d71" d="m52.179 245.55.525 6.609 2.46 7.08h-1.258l-1.855-7.048-.382-7.544zM57.551 243.935l-.127 7.8 6.542 7.968-.987.08-5.874-7.96.16-7.152z"/><path fill="#e69783" d="m50.101 262.959-.915-8.504v-11.528l.7-.024.852 10.016 1.743 7.808z"/><path fill="#e5e8e9" d="M66.394 262.263a19.6 19.6 0 0 1-7.61 1.448 29.3 29.3 0 0 1-8.643-1.256c-.063-.728 1.592-3.912 7.84-4.128 8.962-.32 8.413 3.936 8.413 3.936"/><path fill="#cfd6d4" d="M65.741 266.71a18.2 18.2 0 0 1-7.298 1.08 22 22 0 0 1-6.893-1.287 1.92 1.92 0 0 1-1.409-1.968v-2.08c1.592.576 5.428.68 8.397.736 2.666.16 5.339-.155 7.896-.928q.18 1.193.215 2.4a2.29 2.29 0 0 1-.908 2.048"/><path fill="#545c59" d="M66.458 262.75a27 27 0 0 1-7.96 1.153 50 50 0 0 1-8.357-.944c-.19-.056-.143-.504 0-.504 2.758.513 5.553.797 8.357.848a27 27 0 0 0 7.896-1.04c.08-.024.223.44.064.488"/><g stroke-linecap="butt" stroke-linejoin="miter" stroke-width="1"><path fill="#63493e" d="M37 80.383c-1.106-.016-20.924-19.824-20.924-23.488 0-3.312 6.01-5.712 13.196-8.32l2.046-12h12.734l1.361 11.664c8.612 3.52 15.425 5.048 15.425 8.656 0 3.976-22.5 23.504-23.837 23.488"/><path fill="#49352c" d="m29.272 48.567 2.046-12h12.734l.868 7.416c-5.922-.64-12.233 1.6-15.648 4.584"/></g><g stroke-linecap="butt" stroke-linejoin="miter" stroke-width="1"><path fill="#705347" d="M59.318 55.743c4.083-.112 7.653 2.744 8.46 6.768l4.553 42.104c.47 3.2-.963 6.296-4.122 6.872 0 0-5.572.592-6.837-4.408L52.8 65.327c-1.067-4.288 1.806-8.696 6.518-9.584"/><path fill="#6373ba" d="m62.733 52.895 4.44 4.792 3.98 18.168L57.95 88.383l-8.747-20.576-1.09-6.6 1.552-7.256 4.966-2.192z"/><path fill="#e4b34e" d="M55.816 85.415 71.4 72.879l1.218 3.648-14.94 12.296z"/></g><path fill="#36445e" d="M62.446 144.447c-.08 4.536-18.712-4-23.17-4-4.655-.04-17.103 6.92-21.72 5.072 0-7.04.613-26.456 1.306-31.904h40.392c1.234 4.064 3.351 22.32 3.192 30.832"/><g stroke-linecap="butt" stroke-linejoin="miter" stroke-width="1"><path fill="#705347" d="m25.19 66.023-8.573 41.752c-1.265 5-6.837 4.408-6.837 4.408-3.152-.576-4.592-3.672-4.123-6.872l4.553-42.128c.818-4.014 4.386-6.859 8.46-6.744 4.712.888 7.594 5.296 6.52 9.584"/><path fill="#6373ba" d="m23.359 52.455 4.966 2.192 1.544 7.256-1.082 6.6-8.747 20.576L6.835 76.55l3.98-18.168 4.441-4.8z"/><path fill="#e4b34e" d="M20.31 89.51 5.37 77.224l1.219-3.648L22.173 86.11z"/></g><g stroke-linecap="butt" stroke-linejoin="miter" stroke-width="1"><path fill="#7390e1" d="M63.266 164.783a38 38 0 0 1-5.022 1.352 36.5 36.5 0 0 1-8.35.744 30 30 0 0 1-7.027-1.096 28 28 0 0 1-2.866-.8 39.2 39.2 0 0 0-7.84-1.6c-.74-.056-1.552-.152-2.451-.152a44.5 44.5 0 0 0-14 1.888c.62-17.04-1.122-34.328 1.846-51.128 1.767-10 2.834-18.648 1.099-30.488l-3.717-29.88 11.684-4.664C27.927 63.183 37 73.983 37 73.983s8.62-12.536 10.673-25.344c0-.04 12.56 3.672 12.56 3.672l1.846.472s-2.706 24-4.06 35.936a147.5 147.5 0 0 0 3.44 28.376c3.438 16.248 2.586 32.312 3.008 47.248q-.587.259-1.202.44"/><path fill="#6882cc" d="M64.372 164.343q-.574.26-1.178.44a37.5 37.5 0 0 1-5.022 1.416 36.5 36.5 0 0 1-8.35.744c-1.098-.04 6.153-3.184 7.745-31.128.183-10.024-1.409-22.824-1.409-22.824-2.777-15.968-1.496-26.8-1.496-26.8 1.4-4.024 6.28-33.696 6.28-33.696l1.138.288c-1.377 11.912-2.5 23.64-3.884 35.6a151 151 0 0 0 3.184 28.376c.937 4.76 1.628 9.567 2.069 14.4a7 7 0 0 1-.295.72c.096-.128.2-.256.279-.384.971 11.288.645 22.344.94 32.848"/><path fill="#e4b34e" d="m47.706 48.607 2.387.696c-1.257 4.08-6.224 21.264-13.069 28.8-4.664-5.576-10.426-17.304-12.623-28.44.2-.096 2.22-.704 2.22-.704 1.56 7.976 7.721 21.464 10.403 25.176a99.1 99.1 0 0 0 10.682-25.528"/></g><g stroke-linecap="butt" stroke-linejoin="miter" stroke-width="1"><path fill="#553c2e" d="m54.726 25.199-1.592 2.648c-.915 1.544-2.674 2.208-3.9 1.472-.517-.4-.597-1.336-.08-3.128l1.067-3.664a2.79 2.79 0 0 1 1.62-1.62 2.77 2.77 0 0 1 2.28.148c1.21.736 1.464 2.6.605 4.144"/><path fill="#f17d70" d="m51.167 31.509-1.07-.107.364-3.678 1.07.107z"/></g><g stroke-linecap="butt" stroke-linejoin="miter" stroke-width="1"><path fill="#553c2e" d="M21.4 21.055a2.77 2.77 0 0 1 2.281-.149 2.79 2.79 0 0 1 1.62 1.62l1.066 3.665c.517 1.792.438 2.728-.08 3.128-1.225.736-2.976.072-3.9-1.472l-1.591-2.648c-.9-1.544-.63-3.408.605-4.144"/><path fill="#f17d70" d="m23.614 27.839 1.07-.107.364 3.678-1.07.107z"/></g><path fill="#705347" d="M38.895 43.327h-3.757c-2.929 0-9.16-9.424-9.24-11.36L22.8 17.095c0-6.936 7.729-12.608 14.63-12.608h.413c6.9 0 14.637 5.672 14.637 12.608l-3.438 15.104c-.096 2.088-6.734 11.128-10.148 11.128"/><path stroke="#453226" stroke-linecap="round" stroke-linejoin="round" stroke-width=".776" d="m39.181 31.583-1.114.552c-.573.28-1.242.28-1.815 0l-1.114-.552M43.36 34.239c-1.974 3.136-7.227 2.624-7.227 2.624"/><path fill="#412d20" d="m52.481 17.095-1.146 5.008h-1.488s-.398-11.624-12.21-11.4c-12.774.32-12.17 11.4-12.17 11.4h-1.591l-1.098-5.008c0-6.936 7.728-12.608 14.629-12.608h.437c6.9 0 14.637 5.672 14.637 12.608"/><g stroke-linecap="butt" stroke-linejoin="miter" stroke-width="1"><path fill="#412d20" d="M31.174 1.583s3.391-3.928 8.756.592c0 0 3.39.12 3.39 2.328 0 0 3.98-1.6 4.187 1.04 0 0 3.454 1.384 0 5.536 0 0 3.319 1.144 1.536 3.456 0 0-.852 3.328-2.921 3.624 0 0-3.534 1.176-4.696-2.056 0 0-2.515.672-2.284-1.6 0 0-2.977.104-3.049-2.096 0 0 0-1.752-3.558-.864 0 0-3.366.256-3.08-2.304 0 0-.15-1.816 1.457-1.816 0 0-1.783-.592-1.473-2.2s1.696-.752 1.696-.752-1.13-1.688.04-2.888"/><path fill="#281309" d="M48.931 6.967a3.79 3.79 0 0 1-.708 3.72c-1.17 1.224-3.749.584-3.749.584 4.155.24 4.656-3.432 4.457-4.304M29.415 5.479c.74 2.44 3.128 1.224 3.128 1.224a2.04 2.04 0 0 1-1.591.736 1.96 1.96 0 0 1-1.537-1.96"/><path fill="#341f17" d="M30.76 3.07q.101.325.271.617a2 2 0 0 0-.215-.104 2.6 2.6 0 0 1-.055-.512"/><path fill="#281309" d="M39.102 14.519c-.454 0-2.905-.104-2.969-2.096a.5.5 0 0 0 0-.128c.589 1.504 2.913 1.424 2.913 1.424-.037.267-.018.54.056.8M36.133 12.287c-.27-.512-.995-1.168-3.454-.368 0 0-2.866.76-3.072-2.208.254 2.376 2.968 1.84 2.968 1.84 3.717-1.168 3.518.432 3.518.432.008.12.024.216.04.304M46.353 18.583s-3.884 1.432-5.476-2.272c0 0-1.767.392-1.696-1.6.502 1.008 2.141.576 2.141.576 1.17 3.224 4.696 2.056 4.696 2.056 2.07-.296 2.921-3.624 2.921-3.624.327-.424.478 3.728-2.586 4.864M42.413 10.11a1.224 1.224 0 0 1-2.085 0s-1.226.377-1.728-.087a2.6 2.6 0 0 1-.565-1.704s.868 1.912 2.293.88c.152.402.46.725.852.896s.836.177 1.233.016M34.394 3.37c.215.311.559.507.935.533.86-.048.732-.752.732-.752.74.944 1.377.224 1.377.224-.414.8-1.154.2-1.154.2a.88.88 0 0 1-.875.744c-1.982-.112-1.186-2.016-1.186-2.016-.107.363-.045.756.17 1.067"/></g><g stroke-linecap="butt" stroke-linejoin="miter" stroke-width="1" data-paper-data="{&quot;origPos&quot;:null}"><path fill="#fff" d="M34.106 22.29c.075.09.107.209.085.325a3.124 3.124 0 0 1-3.06 2.525 3.124 3.124 0 0 1-3.06-2.525.4.4 0 0 1 .39-.464h5.34a.39.39 0 0 1 .305.139"/><path fill="#2e221a" d="M34.124 22.272c.082.09.119.214.099.335a2.99 2.99 0 0 1-1.974 2.32 1.84 1.84 0 0 1-1.185-1.144 1.86 1.86 0 0 1 .198-1.64h2.539a.4.4 0 0 1 .323.129"/></g><g stroke-linecap="butt" stroke-linejoin="miter" stroke-width="1" data-paper-data="{&quot;origPos&quot;:null}"><path fill="#fff" d="M46.912 22.186c.075.09.107.209.085.325a3.124 3.124 0 0 1-3.06 2.525 3.124 3.124 0 0 1-3.06-2.525.4.4 0 0 1 .39-.464h5.34a.39.39 0 0 1 .305.139"/><path fill="#2e221a" d="M46.908 22.183a.4.4 0 0 1 .09.32 3 3 0 0 1-1.935 2.328c-.556-.168-.999-.591-1.195-1.14a1.85 1.85 0 0 1 .2-1.644h2.54a.39.39 0 0 1 .3.136"/></g><path fill="#231607" d="M34.645 20.143c0 .322-.26.584-.581.584h-6.05a.583.583 0 0 1-.58-.584c0-.323.26-.584.58-.584l6.081-.272c.327 0 .55.536.55.856M47.539 20.143c0 .322-.26.584-.581.584H40.9a.583.583 0 0 1-.581-.584c0-.32.23-.856.549-.856l6.089.272c.32 0 .58.261.58.584" data-paper-data="{&quot;origPos&quot;:null}"/><g stroke-linecap="butt" stroke-linejoin="miter" stroke-width="1"><path fill="#705347" d="m72.268 104.287 4.33 37.296a3.437 3.437 0 0 1-2.866 3.728c-1.313.208-2.92-.568-3.24-1.856l-9.12-36.376c-.421-3.262 1.617-6.336 4.775-7.2 3.096-.752 5.237 1.304 6.12 4.408"/><g fill="#705347" data-paper-data="{&quot;origPos&quot;:null}"><path d="m76.446 140.487 1.457 7.256s1.154 3.296-4.999 9.096c0 0-1.376 1.016-7.712 1.6 0 0-.581-1.664 1.934-2.128a26 26 0 0 1 3.805-1.72c.12-1.23.346-2.449.676-3.64a5.3 5.3 0 0 1-1.353-2.4s-1.417-5.12.183-8.224a3.24 3.24 0 0 1 3.059-1.961 3.24 3.24 0 0 1 2.95 2.12"/><path d="M66.744 152.855c.622-.735.91-1.698.796-2.656l1.106-7.352a6.33 6.33 0 0 1 3.184-4.056 2.39 2.39 0 0 1 2.26 1.92l-4.298 10.752c-.421 1.056-1.965 2.264-2.761 1.928-.176-.088-.382-.376-.287-.536"/></g><path fill="#ffabe2" d="m70.071 134.55.597 2.593-1.926.424-.772-2.552z"/><path fill="#ededed" d="m74.345 136.343-3.677.8-.597-2.592 3.677-.792z"/><path fill="#7be3f2" d="M74.385 136.343a1.444 1.444 0 0 1-.597-2.592l2.316-.504.303 2.664z"/><path fill="#6ecdd9" d="M74.584 136.247a1 1 0 0 1-.207.072 1.33 1.33 0 0 1-.557-2.6h.207a1.39 1.39 0 0 0-.597 1.464c.129.56.587.983 1.154 1.064"/></g><g fill="#705347" stroke-linecap="butt" stroke-linejoin="miter" stroke-width="1"><path d="M11.842 100.575c3.157.864 5.196 3.938 4.775 7.2L7.504 144.11c-.326 1.296-1.934 2.072-3.247 1.864a3.445 3.445 0 0 1-2.866-3.736l4.338-37.256c.875-3.104 3.024-5.16 6.113-4.408"/><path d="M4.472 139.047a3.23 3.23 0 0 1 3.064 1.936c1.6 3.104.183 8.224.183 8.224a5.3 5.3 0 0 1-1.353 2.4c.335 1.19.567 2.408.692 3.64a26 26 0 0 1 3.805 1.72c2.515.464 1.934 2.128 1.934 2.128-6.336-.552-7.713-1.56-7.713-1.56-6.152-5.8-4.998-9.096-4.998-9.096l1.456-7.256a3.23 3.23 0 0 1 2.93-2.136"/><path d="M10.958 154.087c-.796.336-2.34-.872-2.762-1.928l-4.29-10.752a2.39 2.39 0 0 1 2.253-1.92 6.3 6.3 0 0 1 3.183 4.056l1.107 7.352c-.114.958.175 1.92.796 2.656.095.16-.104.448-.287.536"/></g></g></svg>