<svg xmlns="http://www.w3.org/2000/svg" width="156.742" height="116.319" viewBox="-0.133 0.11 156.742 116.319"><path fill="#dc785a" d="M65.618 77.198c-.586 1.892-4.761 2.876-5.089 8.468s3.376 15.272 3.537 17.036c-3.385.096-6.766.5-10.142.284-2.579-3.848-4.44-8.304-5.879-12.688-.401-1.264-.903-5.816.762-9.276 1.419-2.94 5.012-4.916 4.952-5.34z"/><path fill="linen" d="M64.013 100.25s-.717-2.208-1.074-3.544-.959-3.552-.959-3.552l-13.041.4a25 25 0 0 0 1.151 3.836c.597 1.292 1.712 3.332 1.712 3.332z"/><path fill="#00a0dc" d="M63.941 98.474 68.3 109.85l-4.639 5.404-8.791-.444c-.233-.936 3.008-.828 3.008-.828l-7.339-15.2z"/><path fill="#006482" d="M61.88 100.634a2.56 2.56 0 0 1 2.563 2.556 2.558 2.558 0 0 1-2.563 2.556 2.56 2.56 0 0 1-2.563-2.556 2.558 2.558 0 0 1 2.563-2.556"/><path fill="linen" d="M53.639 100.79c.132.284.269.56.401.836h-2.807v-.836z"/><path fill="#f0e6d2" d="M55.223 103.202q.085.212.188.4l.213.424H52.44v-.84z"/><path fill="linen" d="M53.214 106.25v-.648h3.18q.204.42.401.84h-3.489a1.5 1.5 0 0 1-.092-.192"/><path fill="#f0e6d2" d="M54.216 108.226q-.053-.096-.1-.192h3.385q.043.089.08.184c.092.22.197.436.293.656h-3.349c-.1-.224-.2-.436-.309-.648"/><path fill="linen" d="M58.836 111.286h-3.244c-.136-.276-.265-.556-.401-.836h3.393c.1.276.18.556.252.836"/><path fill="#281446" d="M62.694 114.762c-1.544-4.66 5.586-4.912 5.586-4.912l1.091 3.2a2.19 2.19 0 0 1-.338 2.014 2.2 2.2 0 0 1-1.855.862H55.014l-.144-1.112z"/><path fill="#006482" d="M59.943 67.234 43.962 79.85s.369 2.872 3.814 4.4c3.505 1.564 20.388 3.104 36.951 2.4s23.801-6.1 23.801-6.1z"/><path fill="#dc785a" d="M85.268 77.198c.585 1.892 4.76 2.876 5.089 8.468s-3.377 15.272-3.537 17.036c3.385.096 6.765.5 10.142.284 2.579-3.848 4.439-8.304 5.879-12.688.401-1.264.902-5.816-.762-9.276-1.42-2.94-5.013-4.916-4.953-5.34z"/><path fill="linen" d="M86.896 100.25s.718-2.208 1.075-3.544.958-3.552.958-3.552l13.042.4a25.4 25.4 0 0 1-1.151 3.836c-.598 1.292-1.713 3.332-1.713 3.332z"/><path fill="#00a0dc" d="m86.968 98.474-4.359 11.376 4.64 5.404 8.791-.444c.232-.936-3.008-.828-3.008-.828l7.339-15.2z"/><path fill="#006482" d="M89.03 100.634c.707 0 1.347.286 1.811.749a2.545 2.545 0 0 1 0 3.614 2.56 2.56 0 0 1-1.811.749 2.56 2.56 0 0 1-2.563-2.556 2.558 2.558 0 0 1 2.563-2.556"/><path fill="linen" d="M97.271 100.79c-.133.284-.269.56-.401.836h2.807v-.836z"/><path fill="#f0e6d2" d="M95.695 103.202q-.085.212-.189.4l-.212.424h3.184v-.84z"/><path fill="linen" d="M97.7 106.25v-.648h-3.184q-.205.42-.401.84h3.489a2 2 0 0 0 .096-.192"/><path fill="#f0e6d2" d="M96.693 108.226q.053-.096.101-.192h-3.385a3 3 0 0 0-.08.184c-.093.22-.197.436-.293.656h3.348c.113-.224.201-.436.309-.648"/><path fill="linen" d="M92.085 111.286h3.245c.136-.276.264-.556.401-.836h-3.393a5 5 0 0 0-.253.836"/><path fill="#281446" d="M88.216 114.762c1.544-4.66-5.587-4.912-5.587-4.912l-1.091 3.2a2.19 2.19 0 0 0 2.194 2.876h12.163l.145-1.112z"/><g fill="#281446"><path d="M92.085 83.85h-31.28l-4.01-16.4h39.301z"/><path d="M45.807 88.25s.116-12.26 4.138-18.688l21.395.028c-2.225 8.172-5.213 19.02-5.213 19.02zM105.063 88.25s-.117-12.26-4.139-18.688l-21.395.028c2.226 8.172 5.214 19.02 5.214 19.02z"/></g><path fill="#dc785a" d="M156.106 37.746c-.478-2-8.386 3.852-11.201-.76-1.873-3.072 2.915-5.6 4.732-7.32 1.275-1.2 3.782-2.688 2.936-4.8-2.808-.912-10.632 6.184-13.186 3.672s3.962-6.224 4.812-7.98c2.23-4.504-8.221 2.2-8.847 2.676-5.598 4.244-48.48 24.616-48.48 24.616l8.694 18.284c3.67 1.8 61.017-26.376 60.54-28.388"/><path fill="#dc5050" d="M120.919 31.87c1.203-4.928-.461-11.792 2.659-13.568.834.344 1.227 1.068 1.528 1.74.261 1.772.401 3.236 0 4.976.08.112.068 1.976 1.965 1.832s4.676-.14 6.862 3.656c2.005 3.492 2.486 7.628.156 11.172-2.041 3.108-5.466 5.2-9.175 4-2.864-.948-5.214-8.884-3.995-13.808"/><path fill="#dc785a" d="M.37 40.534c.482-2 5.863 2.264 8.675-2.348 1.876-3.072-2.912-5.6-4.733-7.32-1.275-1.2-2.859-2.1-2.005-4.224 2.807-.912 9.709 5.6 12.26 3.084 2.55-2.516-3.958-6.224-4.813-7.98-2.225-4.504 8.225 2.2 8.851 2.676 5.594 4.256 48.476 24.628 48.476 24.628l-8.682 18.284C54.718 69.134-.107 42.546.37 40.534"/><path fill="#dc5050" d="M32.573 30.822c-2.711-4.292-3.289-11.336-6.818-12.04-.685.592-.826 1.404-.902 2.136.313 1.76.662 3.2 1.604 4.712-.04.136.558 1.896-1.287 2.36s-4.468 1.336-5.358 5.628c-.802 3.944.052 8.02 3.385 10.652 2.919 2.308 6.817 3.228 9.969.9 2.399-1.784 2.122-10.056-.593-14.348"/><path fill="#dc785a" d="m88.44 43.85-2.101 11.012-27.419.052 4.051-10.976z"/><path fill="#006482" d="m90.77 43.73 3.974-1.584 10.331 22.832-5.101 4.212zM60.184 43.73l-4.704-1.428-8.743 22.832 3.994 4.328z"/><path fill="#00a0dc" d="M108.528 80.55 91.901 41.714l-6.284.168s.99 9.28-10.724 9.312c-8.393.024-9.709-9.144-9.709-9.144l-7.046-.6-14.176 38.4z"/><path fill="#dc785a" d="M84.466 32.726c-.12-.192.569-5.24 1.335-6.732.678-1.32 2.655-2.672 4.055-1.86 1.732 1.012 1.175 3.52.401 4.876-1.131 2.004-3.63 3.064-5.791 3.716M66.063 32.726c.124-.192-.57-5.24-1.336-6.732-.677-1.32-2.654-2.672-4.054-1.86-1.733 1.012-1.175 3.52-.401 4.876 1.147 2.004 3.645 3.064 5.791 3.716"/><path fill="#ffc800" d="M83.163 14.47c2.121 2.196 9.424-7.728 10.466-9.1C92.057 2.094 89.042.762 85.493.61a22.7 22.7 0 0 0-1.953 7.168c-.241 2.12-.742 4.568-.377 6.692"/><path fill="#006482" d="m79.036 15.542 5.971 3.716s2.531-3.02-.766-5.16c-3.296-2.14-5.205 1.444-5.205 1.444"/><path fill="#ffc800" d="M64.679 16.526c-1.243 2.8-11.505-4.052-12.953-4.988.357-3.6 2.735-5.892 6.015-7.248a22.8 22.8 0 0 1 4.287 6.072c.959 1.912 2.266 4.04 2.651 6.164"/><path fill="#006482" d="m68.926 16.126-4.339 5.528s-3.413-1.976-1.047-5.112 5.386-.416 5.386-.416"/><path fill="#ffc800" d="m87.065 19.906-23.533-.056s.185-6.108 12.332-6.032c9.552.076 11.201 6.088 11.201 6.088"/><path fill="#dc785a" d="M64.374 22.186c-.172.34-.268 3.96-.441 4.304-.048.952-.469 1.824.241 4.152a34.7 34.7 0 0 0 2.442 5.404c1.051 1.476 2.695 3.108 4.411 3.784 3.321 1.32 7.54.96 10.331-1.008 3.329-2.348 4.463-6.4 4.997-10.332.244-1.812 1.203-4.632.918-6.452z"/><path fill="#dc5050" d="M77.247 26.65c-.072 1.792-4.447 2.568-4.323-.308.125-2.876-.044-4.776 1.977-4.8s2.411 3.304 2.346 5.108"/><path fill="#ffc800" d="m83.175 23.486 3.412 5.008.818-4.912zM67.194 23.486l-3.409 5.008-.822-4.912z"/><path fill="#00a0dc" d="M88.196 25.47c.401-1.688.802-5.1-.285-6.248H63.296c-1.127.9-1.356 4.924-1.256 6.532z"/><path d="M78.671 30.958s-.618 1.2-2.943 1.112-2.78-1.076-2.78-1.076-.437-1.228 3.092-1.164 2.631 1.128 2.631 1.128M82.312 27.91c-.689.952-1.423-.624-.657-1.304.497.044.669.4.657 1.304M68.681 27.962c-.501-.212-.461-.656-.545-1.056l.654-.496c.73.24.577 1.392-.109 1.552"/><path fill="#006482" d="m88.548 23.982-26.732-.008.349-3.268 26.383-.104z"/></svg>