<svg xmlns="http://www.w3.org/2000/svg" width="127" height="135" viewBox="-0.25 0.25 127 135"><path fill="#be0a3c" d="M26.776 94.034a44 44 0 0 1-7.257-2.437c-4.087-3.291-7.83-6.415-10.735-10.832-2.74-4.17-5.089-8.31-6.709-13.015H1.93C-.529 72.398.325 78.942.716 83.988c.392 4.928 1.335 10.005 3.183 14.634 3.523 8.814 14.551 15.798 23.351 13.777zM74.25 133.095l-.176.655c-3.559-.198-9.435-.295-12.406-.24-2.181.038-3.191-3.66-3.191-3.66l-9.227-25.1 14.391.504s7.313 20.141 10.609 27.841"/><path fill="#f01446" d="M22.25 105.141c1.338 5.13 6.374 14.864 7.257 16.991.815 1.954 1.831 3.708 2.772 5.588.663 1.326 4 6.424 4.838 6.644 1.391.362 10.123.717 12.133-.17-.986-7.803-6.931-22.582-7.735-30.444z"/><path fill="#be0a3c" d="M111.984 88.73c-.656-3.011-2.812-6.529-5.859-7.88-4.137-1.823-17.809-3.363-24.875-3.062l.887 13.537c7.066-1.112 18.187-3.139 19.207 1.93.171 4.545-3.739 7.259-3.739 7.259s4.188 5.205 6.379 7.236c5.07-3.792 9.398-12.618 8-19.02"/><path fill="#f01446" d="M87.283 53.886C83.1 51.517 74.96 46.03 66.907 46.829c0 0-15.233 2.806-19.993 3.312-8.756.931-12.27 4.369-12.27 4.369-2.199.81-6.431 5.228-7.808 6.981a54 54 0 0 0-4.072 5.94c-2.73 4.597-5.211 9.506-5.475 14.948-.249 5.095.723 10.419 2.107 15.313.764 2.783 1.498 5.62 2.504 8.335.233.631 2.137 3.996 4.321 7.723l17.856-3.304a1 1 0 0 0-.019-.065c9.482-1.605 24.899-5.012 33.073-6.525 8.175-1.514 13-11.488 14.319-16.534-.179-.179 2.188-7.061 2.792-10.544.432-2.491.875-6.712.875-6.712s1.797-10.731-7.834-16.18"/><path fill="#f01446" d="M94.68 102.608c-1.047-2.922-4.969-7.187-8.08-8.105-4.204-1.242-17.468-.847-24.169.449l-.181 12.222c6.588-.496 19.822-4.504 21.494.418.792 4.526-3.944 7.346-3.944 7.346s5.7 6.097 8.073 7.812c4.347-4.496 9.026-13.92 6.807-20.142"/><path fill="#be0a3c" d="M48.654 14.75c-3.003-1.471-7.043-9.323-2.043-10 2.877.886 7.53 2.772 9.639 5.189-2.117 1.366-5.398 3.622-7.596 4.811"/><path fill="#a0640a" d="M33.25 30.601c-.831 2.006-1.243 4.107-2.082 6.149-2.173-1.203-9.558-4.248-7.587-7.721 1.71-3.008 7.714.032 9.669 1.572"/><path fill="#be0a3c" d="M43.25 18.885c-1.382 1.666-2.81 4.312-4.321 5.865-2.57-.859-9.287-7.502-5.595-9.68 2.185-1.307 8.906 1.678 9.916 3.815M69.25 6.632c-2.432.367-5.493 1.638-7.89 2.118-2.468-1.247-5.058-8.23-.968-7.994 2.497.12 7.286 3.885 8.858 5.876"/><path fill="#a0640a" d="M32.25 63.75c-2.285-.261-13.079-3.61-9.146-7.458 1.11-1.085 6.787-.416 7.707.899.511.74 1.114 5.403 1.439 6.559"/><path fill="#be0a3c" d="M28.845 50.75c-2.237-.912-8.73-3.428-8.593-6.682.161-3.826 7.249-1.982 8.998-1.016a27.5 27.5 0 0 0-.405 7.698"/><path fill="#e6781e" d="M102.277 26.75c-2.138-2.049-4.941-4.975-7.027-6.985.811-2.491 3.61-16.227 3.998-18.858 2.237-1.533 3.542 8.657 3.667 9.72.445 3.714.63 12.514-.638 16.123"/><path fill="#c8c8be" d="M120.569 48.145c-2.172-3.864-7.494-11.076-7.494-11.076l-4.186-1.319-23.639 6.336 9.965 27.664s29.162-7.368 31.035-8.71c-.587-4.498-3.49-9-5.681-12.895"/><path fill="#f04650" d="M94.965 15.661a56 56 0 0 0-9.136-5.954 37.9 37.9 0 0 0-10.804-3.669 16 16 0 0 0-4.249-.24c-1.233.133-4.058.091-5.128.834-4.073.282-8.185 2.13-11.9 3.726a34 34 0 0 0-7.195 4.111c-1.26.948-4.82 4.251-5.143 4.571-3.864 3.852-9.575 13.25-9.898 13.924-2.387 4.953-3.952 11.357-2.958 16.42a34.7 34.7 0 0 0 3.342 13.406c.967 3.386 4.096 6.126 6.982 7.889 3.065 1.879 6.97 4.016 10.686 2.789 4.058-1.341 2.128-5.006 3.19-7.954.979-2.732 3.689-5.57 6.796-4.275 6.254 2.61 6.723 13.848 14.336 14.477 3.552.289 7.591-1.326 10.995-2.176 3.403-.849 10.385-2.796 10.385-2.796s.453-11.985 1.416-17.825c.674-4.103 2.037-7.463 4.538-10.141a17.7 17.7 0 0 1 5.402-3.638 31 31 0 0 1 6.628-1.802s-5.269-8-10.659-14.401c-2.833-3.375-7.123-6.876-7.626-7.276"/><path fill="#f01446" d="M75.41 16.942s5.303 4.527 9.848 7.835c1.208.879 4.022 2.677 6.351 2.928 3.072.332 5.503-1.222 4.348-3.183-1.39-2.348-8.416-7.085-12.737-9.858-.576-.37-2.011-1.411-3.409-1.688-3.469-.694-7.624.096-4.401 3.966"/><path d="M74.385 51.277c-.444.304-4.135 2.039-4.135 2.039l.528.434 4.472-2.093v-.506c-.368-.107-1.726-1.493-3.487-2.287a.64.64 0 0 0-.728 0c.107.351 2.973 2.113 3.35 2.413M117.115 39.277c.444.304 4.135 2.042 4.135 2.042l-.528.431-4.472-2.094v-.502c.373-.11 1.726-1.497 3.487-2.291a.64.64 0 0 1 .728 0c-.093.355-2.955 2.117-3.35 2.414"/><path fill="#ffc800" d="M102.749 37.75c-1.949-.11-2.811-3.556-2.398-5.121.589-2.222 2.359-4.452 3.377-6.526.936-1.89 1.806-4.796 3.307-6.353 1.727 2.347 2.379 5.321 2.73 8.129.292 2.267.928 6.156 0 7.365a6 6 0 0 1-2.231 1.512 15 15 0 0 1-4.812.975M71.25 40.837s-10.416 3.461-10.807 1.072c-.541-3.31.193-7.454.529-10.76.372-3.722 1.844-19.628 3.618-20.399 1.271.383 6.66 30.087 6.66 30.087"/><path d="M119.976 55.553c.112.775.659 2.361-.204 3.588-.864 1.226-3.135 2.089-6.403 2.776-2.297.48-5.55 1.058-7.147.744-2.944-.56-3.383-2.724-3.882-4.32-.771-2.467 3.521-5.191 9.079-6.343 5.557-1.153 8.341 2.005 8.557 3.555"/><path fill="#828278" d="m113.311 45.268.67-.518c.793.456 2.038 2.482.63 2.938s-1.455-1.748-1.3-2.42M104.302 47.268l.672-.518c.796.453 2.05 2.482.633 2.938-1.417.457-1.437-1.75-1.305-2.42"/></svg>