<svg xmlns="http://www.w3.org/2000/svg" width="209.913" height="96.004" viewBox="-1.025 -0.554 209.913 96.004"><path fill="#174832" d="m140.688 62.25-14.886 11.5H37.49A49.35 49.35 0 0 1 1.804 58.5L.802 57.45a2.11 2.11 0 0 1 .05-2.95 1.8 1.8 0 0 1 .501-.35l20.85-10.55h118.435v18.65z"/><g fill="none" stroke="#151b22" stroke-width=".5"><path d="M128.287 45.75V70.6M116.408 43.75V73.6M104.48 44.25V73.6M92.601 43.25V73.6M80.722 43.75V73.6M68.794 43.75V73.6M56.915 43.25V73.6M45.037 43.25V73.6M33.108 43.75V73.1M21.229 44.75V70.6M9.351 50.25V64.6"/></g><path fill="#00b694" d="M127.931 43.1H14.709c-4.21 0-5.012 6-.902 7.05l46.411 12.2a81.23 81.23 0 0 0 50.271-3l20.55-8.1z"/><g fill="none" stroke="#1b7e64" stroke-width=".5"><path d="M144.219 46.3H11.5M124.171 53.8h-95.63M104.123 61.3H57.11"/></g><path fill="none" stroke="#151b22" stroke-linecap="round" d="M192.902 2.75 167.541 45.1l40.097-27.2"/><path fill="#00c0a5" d="M154.159 37.4h7.669c4.109 0 7.417 3.3 7.417 7.4 0 1.3-.35 2.6-1.002 3.75L158.47 65.1c-1.153 1.95-3.709 2.65-5.714 1.45-1.253-.75-2.055-2.1-2.055-3.55V40.9c0-1.95 1.554-3.5 3.458-3.5"/><path fill="none" stroke="#174832" stroke-width=".5" d="m154.61 67.15 5.914-19.25"/><path fill="#ecf135" d="M161.176 39.7c1.507 0 2.873.611 3.862 1.597a5.43 5.43 0 0 1 1.601 3.853 5.43 5.43 0 0 1-1.601 3.853 5.46 5.46 0 0 1-3.862 1.597 5.46 5.46 0 0 1-3.862-1.597 5.43 5.43 0 0 1-1.601-3.853c0-1.504.612-2.866 1.601-3.853a5.46 5.46 0 0 1 3.862-1.597"/><path fill="#151b22" d="M161.176 41.8a3.35 3.35 0 0 1 2.374.982c.608.606.984 1.444.984 2.368s-.376 1.762-.984 2.368a3.35 3.35 0 0 1-2.374.982 3.35 3.35 0 0 1-2.374-.982 3.33 3.33 0 0 1-.984-2.368c0-.924.376-1.762.984-2.368a3.35 3.35 0 0 1 2.374-.982"/><path fill="none" stroke="#151b22" stroke-linecap="round" stroke-width="1.5" d="M40.2 93.9h13.383V3.75"/><path fill="#ecf135" d="M106.861 60.2 55.437 1.6a2.25 2.25 0 0 0-3.158-.45 2.24 2.24 0 0 0-.451 3.15l42.803 65.8c2.356 3.7 7.268 4.75 10.977 2.4s4.761-7.25 2.405-10.95c-.35-.45-.751-.95-1.152-1.35"/><path fill="none" stroke="#151b22" stroke-linecap="round" stroke-width="1.5" d="M75.3 93.9h12.831V43.6"/><path fill="#151b22" d="M88.131 39.6a2.255 2.255 0 0 1 2.256 2.25 2.255 2.255 0 0 1-3.85 1.591 2.243 2.243 0 0 1 0-3.182 2.25 2.25 0 0 1 1.594-.659M125.27 63.75c1.383 0 2.636.56 3.544 1.465a4.98 4.98 0 0 1 1.469 3.535 4.98 4.98 0 0 1-1.469 3.535 5 5 0 0 1-3.544 1.465 5 5 0 0 1-3.543-1.465 4.98 4.98 0 0 1-1.469-3.535c0-1.379.562-2.629 1.469-3.535a5 5 0 0 1 3.543-1.465"/><path fill="none" stroke="#151b22" stroke-width="2.5" d="m125.27 68.75-37.139-26.9"/><path fill="#54923a" d="M120.254 41.1h30.423v29.8c0 2.55-2.055 4.65-4.611 4.65-1.504 0-2.907-.7-3.759-1.9L119.402 42.7c-.351-.45-.251-1.05.2-1.4.201-.15.451-.2.652-.2"/><path fill="#174832" d="M132.934 43.75a3.6 3.6 0 0 1 2.551 1.055 3.587 3.587 0 0 1 0 5.09 3.6 3.6 0 0 1-2.551 1.055 3.6 3.6 0 0 1-2.551-1.055 3.587 3.587 0 0 1 0-5.09 3.6 3.6 0 0 1 2.551-1.055M144.211 50.95a3.6 3.6 0 0 1 2.551 1.055 3.58 3.58 0 0 1 1.058 2.545c0 .993-.404 1.893-1.058 2.545a3.6 3.6 0 0 1-2.551 1.055 3.6 3.6 0 0 1-2.551-1.055 3.59 3.59 0 0 1-1.057-2.545c0-.993.404-1.893 1.057-2.545a3.6 3.6 0 0 1 2.551-1.055M133.836 62.15c1.554-.4 2.707-1.8 2.707-3.45 0-2-1.604-3.6-3.609-3.6-1.303 0-2.456.7-3.057 1.75zM141.354 41.1c-.451.6-.701 1.3-.701 2.1 0 2 1.604 3.6 3.608 3.6a3.59 3.59 0 0 0 3.609-3.6c0-.8-.251-1.5-.702-2.1zM121.005 41.1c0 2 1.604 3.6 3.609 3.6a3.59 3.59 0 0 0 3.609-3.6zM150.677 57.95a3.59 3.59 0 0 0-3.609 3.6c0 2 1.604 3.6 3.609 3.6zM142.407 73.4c.852 1.2 2.255 1.9 3.759 1.9 2.556 0 4.611-2.1 4.611-4.65V66.1h-13.783z"/><path fill="none" stroke="#151b22" stroke-linecap="round" stroke-width="1.5" d="M200.141 94.2h-12.83l-15.538-23.3h-23.907"/><path fill="#151b22" d="M145.961 66.4c1.245 0 2.372.504 3.189 1.319a4.48 4.48 0 0 1 1.322 3.181 4.48 4.48 0 0 1-1.322 3.181 4.5 4.5 0 0 1-3.189 1.319 4.5 4.5 0 0 1-3.189-1.319 4.48 4.48 0 0 1-1.322-3.181 4.48 4.48 0 0 1 1.322-3.181 4.5 4.5 0 0 1 3.189-1.319"/></svg>