<svg xmlns="http://www.w3.org/2000/svg" width="242.644" height="215.949" viewBox="0 0 242.644 215.949"><g fill="none" stroke-linecap="none" stroke-linejoin="none" stroke-miterlimit="10" stroke-width="none" data-paper-data="{&quot;isPaintingLayer&quot;:true}" font-family="none" font-size="none" font-weight="none" style="mix-blend-mode:normal" text-anchor="none"><g stroke-linejoin="miter" data-paper-data="{&quot;index&quot;:null}"><path fill="#d974e8" stroke="#5e154d" stroke-linecap="butt" stroke-width=".6" d="M209.108 62.678h-4.532v-30.15h4.532z"/><path fill="#8b49d4" stroke="#5e154d" stroke-linecap="butt" stroke-width=".6" d="M180.446 39.992h17.919a9.15 9.15 0 0 0 6.211-3.522v22.308a9.15 9.15 0 0 0-6.211-3.522h-17.919a7.635 7.635 0 0 1-7.638-7.632 7.635 7.635 0 0 1 7.638-7.632z"/><path fill="#8b49d4" stroke="#5e154d" stroke-linecap="butt" stroke-width=".6" d="M185.104 55.256v11.196h-4.196V55.256h4.196"/><path stroke="#fff" stroke-linecap="butt" stroke-width=".6" d="M176.711 47.708a4.195 4.195 0 0 1 4.197-4.193"/><path stroke="#5e154d" stroke-linecap="round" stroke-width="1.2" d="M225.852 47.624h-7.134M224.174 64.565l-5.456-5.41M224.174 30.683l-5.456 5.41"/></g><g stroke-linecap="butt" stroke-linejoin="miter" stroke-width="1" data-paper-data="{&quot;index&quot;:null}"><path fill="#f7c1d8" d="M6.593 72.96c0-4.404 2.14-6.5 5.917-6.5h180.828a7.34 7.34 0 0 1 6.672 6.457l7.05 45.12 24.844 17.318a8.68 8.68 0 0 1 4.448 8.89v17.57H6.593z"/><path fill="#da53d6" d="M236.352 160.682v37.11h-28.117a25.35 25.35 0 0 0-7.464-18.222 25.4 25.4 0 0 0-18.26-7.399 24.6 24.6 0 0 0-17.881 7.503 24.56 24.56 0 0 0-6.879 18.118H84.186c-.561-13.987-12.072-25.037-26.081-25.037s-25.52 11.05-26.081 25.037H6.593v-37.11z"/></g><path fill="#5e154d" stroke="#5e154d" stroke-linecap="round" stroke-linejoin="round" stroke-width="1.512" d="M115.95 54.382V66.5h-5.245V54.382zM45.197 54.256v12.118h-5.245V54.256z" data-paper-data="{&quot;index&quot;:null}"/><g data-paper-data="{&quot;index&quot;:null}"><path fill="#ffd78f" stroke="#e89f1f" stroke-linecap="butt" stroke-linejoin="round" stroke-width=".9" d="M123.879 28.271c-6.531 3.41-27.725 6.986-47.487 6.018s-35.352-3.704-41.757-7.912c-8.427-5.766-9.607-10.733-8.427-16.836S30.337.408 38.512.451c8.174.042 23.975 7.196 37.669 7.87 13.694.673 32.36-3.704 40.324-5.093 7.344-1.878 14.84 2.465 16.854 9.765 1.433 5.008-.126 10.311-9.48 15.278z"/><path fill="#f4569e" d="M135.517 15.952c-9.846 1.71-28.079 10.737-54.533 10.493-26.453-.244-34.25-4.866-43.589-8.693-7.776-3.054-29.58-1.765-25.427-6.688S23.205 5.106 29.25 7.621c6.424 2.24 28.16 11.462 46.12 11.462s35.531-3.134 46.56-8.019c11.029-4.886 19.483-3.226 23.751 2.067l1.141 2.821c-3.824-.784-7.453-.649-11.305 0"/><path fill="#ea3681" d="M11.678 11.762c8.065-3.426 16.891.585 24.576 3.72 9.333 3.802 17.187 7.98 43.622 8.356s43.537-9.485 53.376-11.24a30.8 30.8 0 0 1 11.655.502c3.8 5.641 2.449 15.251-8.657 22.522-14.104 9.234-38.005 12.828-61.653 12.828-24.872 0-44.635-6.393-53.883-12.745-10.177-7.06-12.077-16.296-10.303-21.394.319-.896.744-1.75 1.267-2.549"/><path stroke="#ea3681" stroke-linecap="butt" stroke-linejoin="round" stroke-width=".9" d="M10.411 14.288c.329-.857.754-1.675 1.268-2.437C15.83 6.771 22.87 5.053 28.913 7.65 35.333 9.96 56.158 19.12 74.111 19.12s37.172-3.319 46.465-7.563c11.024-5.043 19.642-4.707 23.908.756l.422.588c3.802 5.673 2.45 15.338-8.659 22.65-14.109 9.285-38.017 12.9-61.672 12.9-24.88 0-44.648-6.43-53.899-12.817-10.138-6.933-12.039-16.22-10.265-21.346z"/><path fill="#fdbb38" stroke="#e89f1f" stroke-linecap="butt" stroke-linejoin="round" stroke-width=".9" d="M123.184 55.05c-9.856 5.166-31.589 8.4-49.111 8.4-20.596 0-33.948-2.31-43.087-7.897-7.834-4.83-10.656-12.308-8.424-16.55s6.36-5.503 13.309-5.755c5.476-.21 23.082 3.445 37.107 3.445a214 214 0 0 0 39.171-3.907c8.044-1.764 18.448-2.856 21.649 3.907 3.369 6.888-1.938 13.903-10.614 18.356z"/><path stroke="#fde982" stroke-linecap="round" stroke-linejoin="round" stroke-width="1.8" d="M125.822 25.966c-2.407-1.974-5.368-2.952-8.364-2.765-4.892.6-5.436 4.608-9.869 5.208s-6.063-3.134-11.082-1.844c-5.018 1.291-4.181 4.148-9.869 4.61-5.06 0-5.687-3.319-11.416-3.135s-5.604 3.41-11.751 3.41c-4.684 0-5.729-4.147-10.58-4.93-4.851-.784-5.854 2.856-11.876 1.658-3.166-.995-5.788-3.447-7.193-6.728"/><path stroke="#fff" stroke-linecap="round" stroke-linejoin="round" stroke-width=".9" d="M22.822 9.45a36.3 36.3 0 0 1 11 3M40.822 15.3l-3-1.7"/><path stroke="#e89f1f" stroke-linecap="round" stroke-linejoin="round" stroke-width=".9" d="m110.772 52.45-1.9 2M118.822 51.25l-2 .4M100.822 57.525l-2-.15M91.822 58.75l-2 1.4M104.572 52.35l-1.5-1.8M93.822 53l-2 .9M42.272 55.45l1.1 2M50.822 56.875l-2-.85M69.822 56.3l-2 .3M58.822 54.525l-2-.15M36.897 54.2l1.85-1.5M56.822 58.95l-2 1M85.197 55.625l1.25 1.65M79.822 60.55l2-.2M64.672 60.225l-1.7-1.55M71.422 60.45l.8-2M75.847 55.8l1.95 1.3"/></g><g stroke-linecap="butt" data-paper-data="{&quot;index&quot;:null}"><path fill="#b3e0d7" d="M191.798 85.947c2.015 0 3.903.503 4.449 4.193l4.867 33.546a3.35 3.35 0 0 1-1.426 2.684l-10.156-40.632zM185.839 85.99l10.324 41.386h-9.736a3.65 3.65 0 0 1-3.651-3.648V89.595a3.69 3.69 0 0 1 3.063-3.606"/><path fill="#d4fff5" d="M186.427 85.947h3.105l10.156 40.633c-.672.522-1.5.803-2.35.796h-1.175L185.839 85.99z"/><path stroke="#5e154d" stroke-linejoin="round" stroke-width="1.512" d="M185.839 85.99h5.959c2.015 0 3.903.502 4.449 4.192l4.867 33.546a3.35 3.35 0 0 1-1.426 2.684c-.672.522-1.5.803-2.35.797h-10.911a3.65 3.65 0 0 1-3.651-3.648V89.595a3.69 3.69 0 0 1 3.063-3.606z"/></g><g stroke-linejoin="miter" data-paper-data="{&quot;index&quot;:null}"><path fill="#b3e0d7" d="M60.429 94.362v44.91h-8.981l-11.247-44.91z"/><path fill="#d4fff5" d="m40.201 94.362 11.247 44.91h-6.043l-11.247-44.91zM30.759 94.362l11.205 44.91h-3.399l-11.247-44.91z"/><path fill="#b3e0d7" d="m34.158 94.362 11.247 44.91h-3.441l-11.205-44.91zM25.933 94.362h1.385l11.247 44.91H25.933z"/><g stroke="#5e154d" stroke-width="1.512"><path fill="#996cd4" stroke-linecap="round" d="M109.108 139.272v4.528H21.401v-4.528h87.707"/><path fill="#ea3681" stroke-linecap="butt" d="M25.598 77.505h79.314l3.693 16.857h-86.7l3.693-16.857"/><path fill="#43c3d7" stroke-linecap="round" d="M104.534 94.362v44.91H60.429v-44.91h44.105"/><path fill="#5e154d" stroke-linecap="round" d="M104.534 143.8v7.13h-4.197v-7.13h4.197M29.584 143.8v7.13h-4.196v-7.13h4.196"/><path stroke-linecap="round" d="M60.429 94.362v44.91H25.933v-44.91h34.496"/></g></g><g stroke-linecap="butt" data-paper-data="{&quot;index&quot;:null}"><path fill="#fc9fe4" stroke="#5e154d" stroke-linejoin="round" stroke-width="1.512" d="M127.368 85.947h43.895a3.65 3.65 0 0 1 3.651 3.648v75.73a29.37 29.37 0 0 0-24.172 23.356h-23.29a3.65 3.65 0 0 1-3.609-3.606v-95.48a3.65 3.65 0 0 1 3.525-3.648z"/><path fill="#b3e0d7" d="M167.361 94.795v33.085h-4.617l-8.267-33.085z"/><path fill="#d4fff5" d="m154.477 94.795 8.267 33.085h-6.085l-8.225-33.085z"/><path fill="#b3e0d7" d="m148.434 94.795 8.225 33.085h-3.399l-8.225-33.085z"/><path fill="#d4fff5" d="m145.035 94.795 8.225 33.085h-3.441l-8.225-33.085z"/><path fill="#b3e0d7" d="M131.271 94.795h10.323l8.225 33.085h-18.548z"/><path stroke="#d974e8" stroke-linejoin="round" stroke-width="1.512" d="M167.361 139.243v9.016h-4.197v-9.016h4.197"/></g><g stroke-linejoin="miter" data-paper-data="{&quot;index&quot;:null}"><g stroke-linecap="butt"><path fill="#f7c1d8" stroke="#5e154d" stroke-width="2.016" d="M241.636 163.743v10.86h-5.371v-10.86h5.371"/><path stroke="#fc9fe4" stroke-width="1.512" d="M221.996 174.561v4.655h-8.393v-4.655h8.393"/><path fill="#8b49d4" stroke="#5e154d" stroke-width="2.016" d="M6.547 163.743v10.86H1.008v-10.86h5.539"/><path stroke="#000" stroke-width="2.016" d="M196.733 139.212h-10.869M185.864 143.993h10.869M185.864 148.815h10.869"/><path stroke="#5e154d" stroke-width="2.016" d="M12.464 66.46h180.828a7.34 7.34 0 0 1 6.673 6.457l7.05 45.12 24.843 17.318a8.68 8.68 0 0 1 4.449 8.89v53.547H208.19a25.74 25.74 0 0 0-7.68-18.298 25.78 25.78 0 0 0-18.422-7.407c-13.574.972-24.176 12.11-24.466 25.705H84.141c-.069-14.356-11.736-25.956-26.102-25.956-14.353 0-25.18 13.502-25.557 25.956H6.547V72.96c0-4.403 2.14-6.499 5.917-6.499z"/></g><path fill="#d974e8" stroke="#5e154d" stroke-linecap="butt" stroke-width="2.016" d="M233.285 184.751v-10.19h6.463v23.231h-12.884v-13.04h6.421"/><path fill="#fdbb38" stroke="#5e154d" stroke-linecap="butt" stroke-width="1.512" d="M182.759 177.58c-11.848.321-21.217 10.133-20.983 21.973h-6.252a27.37 27.37 0 0 1 12.824-25.885 27.42 27.42 0 0 1 28.906 0 27.37 27.37 0 0 1 12.824 25.885h-6.252c.234-11.872-9.186-21.698-21.067-21.973zM58.71 177.58c-11.838.343-21.195 10.141-20.983 21.973h-6.252a27.37 27.37 0 0 1 12.824-25.885 27.42 27.42 0 0 1 28.906 0 27.37 27.37 0 0 1 12.824 25.885h-6.211c.211-11.879-9.221-21.698-21.108-21.973z"/><path stroke="#fff" stroke-linecap="round" stroke-width="1.512" d="M230.306 193.85v-5.87"/></g><g stroke-linejoin="miter" data-paper-data="{&quot;index&quot;:null}"><g stroke="#fff" stroke-linecap="butt" stroke-width="2.52"><path d="M12.027 83.031v-6.29a4.658 4.658 0 0 1 5.036-5.2h5.623M29.82 71.541h-3.357"/></g><g stroke="#cc48cc" stroke-linecap="butt" stroke-width="1.512"><path d="m112.044 168.071 3.147 2.181M96.768 169.832l.924-3.732M105.749 177.338l.462 3.816M135.712 192.35l3.609 1.342M223.419 166.94l3.483 1.634M217.25 186.815l1.134 3.69M205.626 171.09l1.931-3.312M188.127 165.597l3.818.252M167.857 172.14l2.854-2.6M156.401 180.61v3.857M95.384 189.876l.923-3.732M86.907 175.83l3.147 2.18M78.556 166.394l-2.267 3.145M62.357 165.723l-3.861.21M44.732 169.161l-2.644-2.85M29.288 174.78l3.106-2.264M19.469 167.065l3.609 1.342M14.601 175.032l.629 3.774M15.272 191.008l1.763-3.396M24.295 182.915l3.147 2.223M114.562 188.031l-3.609 1.258"/></g><path stroke="#5e154d" stroke-linecap="butt" stroke-width="1.512" d="M167.354 94.772v33.042h-36.09V94.772h36.09"/><g stroke="#5e154d" stroke-linecap="butt" stroke-width="1.512"><path fill="#fff" d="M108.772 94.34v4.821a4.824 4.824 0 0 1-4.826 4.823 4.824 4.824 0 0 1-4.826-4.823V94.34z"/><path fill="#f7c1d8" d="M98.952 94.34v4.821a4.82 4.82 0 0 1-2.263 4.55 4.83 4.83 0 0 1-5.084 0 4.82 4.82 0 0 1-2.263-4.55V94.34z"/><path fill="#fff" d="M89.342 94.34v4.821a4.824 4.824 0 0 1-4.826 4.823 4.824 4.824 0 0 1-4.826-4.823V94.34z"/><path fill="#f7c1d8" d="M79.69 94.34v4.821a4.82 4.82 0 0 1-2.263 4.55 4.83 4.83 0 0 1-5.084 0 4.82 4.82 0 0 1-2.263-4.55V94.34z"/><path fill="#fff" d="M70.08 94.34v4.821a4.824 4.824 0 0 1-4.826 4.823 4.824 4.824 0 0 1-4.826-4.823V94.34z"/><path fill="#f7c1d8" d="M60.428 94.34v4.821a4.824 4.824 0 0 1-4.826 4.823 4.824 4.824 0 0 1-4.826-4.823V94.34z"/><path fill="#fff" d="M50.776 94.34v4.821a4.82 4.82 0 0 1-2.263 4.55 4.83 4.83 0 0 1-5.084 0 4.82 4.82 0 0 1-2.263-4.55V94.34z"/><path fill="#f7c1d8" d="M41.166 94.34v4.821a4.824 4.824 0 0 1-4.826 4.823 4.824 4.824 0 0 1-4.826-4.823V94.34z"/><path fill="#fff" d="M31.514 94.34v4.821a4.82 4.82 0 0 1-2.263 4.55 4.83 4.83 0 0 1-5.084 0 4.82 4.82 0 0 1-2.263-4.55V94.34z"/></g><path fill="#5e154d" stroke="#5e154d" stroke-linecap="round" stroke-width="2.016" d="M194.658 186.493a16.59 16.59 0 0 1 4.883 11.768c0 4.593-1.867 8.754-4.883 11.768a16.61 16.61 0 0 1-11.777 4.88 16.61 16.61 0 0 1-11.777-4.88 16.6 16.6 0 0 1-4.883-11.768c0-4.593 1.867-8.755 4.883-11.768a16.61 16.61 0 0 1 11.777-4.879c4.596 0 8.761 1.865 11.777 4.88z"/></g><path fill="#c5a2fc" stroke="#c5a2fc" stroke-linecap="butt" stroke-linejoin="miter" stroke-width="1.008" d="M189.102 192.04a8.82 8.82 0 0 1 2.596 6.254 8.82 8.82 0 0 1-2.596 6.254 8.83 8.83 0 0 1-6.259 2.593 8.83 8.83 0 0 1-6.26-2.593 8.81 8.81 0 0 1-2.595-6.254c0-2.44.992-4.653 2.595-6.255a8.83 8.83 0 0 1 6.26-2.593c2.443 0 4.657.991 6.259 2.593z" data-paper-data="{&quot;index&quot;:null}"/><path fill="#fff" stroke="#8b49d4" stroke-linecap="round" stroke-linejoin="round" stroke-width="1.512" d="M186.522 194.618a5.18 5.18 0 0 1 1.525 3.676 5.18 5.18 0 0 1-1.525 3.675 5.19 5.19 0 0 1-3.679 1.524 5.19 5.19 0 0 1-3.679-1.524 5.18 5.18 0 0 1-1.525-3.675 5.18 5.18 0 0 1 1.525-3.676 5.2 5.2 0 0 1 3.679-1.524c1.436 0 2.737.583 3.679 1.524" data-paper-data="{&quot;index&quot;:null}"/><path fill="#5e154d" stroke="#5e154d" stroke-linecap="round" stroke-linejoin="round" stroke-width="2.016" d="M70.487 186.525a16.6 16.6 0 0 1 4.883 11.77 16.6 16.6 0 0 1-4.883 11.767 16.62 16.62 0 0 1-11.777 4.88 16.62 16.62 0 0 1-11.777-4.88 16.6 16.6 0 0 1-4.883-11.768c0-4.593 1.867-8.755 4.883-11.769a16.62 16.62 0 0 1 11.777-4.878c4.596 0 8.761 1.865 11.777 4.878" data-paper-data="{&quot;index&quot;:null}"/><path fill="#c5a2fc" stroke="#c5a2fc" stroke-linecap="butt" stroke-linejoin="miter" stroke-width="1.008" d="M64.969 192.04a8.82 8.82 0 0 1 2.596 6.254 8.82 8.82 0 0 1-2.596 6.254 8.83 8.83 0 0 1-6.259 2.593 8.83 8.83 0 0 1-6.26-2.593 8.82 8.82 0 0 1-2.595-6.254c0-2.44.993-4.653 2.595-6.255a8.83 8.83 0 0 1 6.26-2.593c2.443 0 4.657.991 6.259 2.593z" data-paper-data="{&quot;index&quot;:null}"/><path fill="#fff" stroke="#8b49d4" stroke-linecap="round" stroke-linejoin="round" stroke-width="1.512" d="M62.389 194.618a5.18 5.18 0 0 1 1.525 3.676 5.18 5.18 0 0 1-1.525 3.675 5.19 5.19 0 0 1-3.679 1.524 5.19 5.19 0 0 1-3.679-1.524 5.18 5.18 0 0 1-1.525-3.675 5.18 5.18 0 0 1 1.525-3.676 5.2 5.2 0 0 1 3.679-1.524c1.436 0 2.737.583 3.679 1.524" data-paper-data="{&quot;index&quot;:null}"/><g data-paper-data="{&quot;index&quot;:null}"><g fill="#fff" stroke-linecap="butt" stroke-linejoin="miter" stroke-width="1"><path d="M91.051 112.146v-1.049h1.385v1.05c0 .711.881.334.881 1.131v1.51h-3.105v-1.51c0-.88.839-.42.839-1.132"/><path d="M93.317 114.787h.588a.67.67 0 0 1 .629.671v2.348a.67.67 0 0 1-.629.671h-.588zM91.765 118.477h-2.141c-.37 0-.671-.3-.671-.67v-2.349c0-.37.301-.67.671-.67h3.693v3.69z"/></g><path fill="#f7c1d8" d="M93.319 121.371v-2.894h.923v1.887a1.8 1.8 0 0 0 1.301 1.971c1.049.461 1.049 1.845 1.049 3.271v10.986c0 1.258-.503 2.055-1.636 2.055h-.672v-14.593c.042-1.342-.965-1.132-.965-2.683"/><path fill="#ea3681" d="M87.779 122.335a1.8 1.8 0 0 0 1.301-1.97v-1.888h4.197v2.894c0 1.551 1.007 1.341 1.007 2.683v14.593h-5.749c-1.091 0-1.595-.797-1.595-2.055v-11.196c0-1.426 0-2.6.839-3.06"/><path stroke="#663c1d" stroke-linecap="round" stroke-linejoin="round" stroke-width="1.008" d="M94.536 118.98h-5.582v-4.193h5.582z"/><path stroke="#663c1d" stroke-linecap="round" stroke-linejoin="round" stroke-width="1.008" d="M91.053 112.146v-1.049h1.385v1.05c0 .711.881.334.881 1.131v1.51h-3.106v-1.51c0-.88.84-.42.84-1.132M87.779 122.335a1.8 1.8 0 0 0 1.301-1.97v-1.888h5.162v1.887a1.8 1.8 0 0 0 1.301 1.971c1.049.461 1.049 1.845 1.049 3.271v10.986c0 1.258-.503 2.055-1.636 2.055h-6.421c-1.091 0-1.595-.797-1.595-2.055v-11.196c0-1.426 0-2.6.839-3.06"/></g><g data-paper-data="{&quot;index&quot;:null}"><g fill="#fff" stroke-linecap="butt" stroke-linejoin="miter" stroke-width="1"><path d="M78.619 112.146v-1.049h1.385v1.05c0 .711.839.334.839 1.131v1.51h-3.105v-1.51c0-.88.881-.42.881-1.132M80.843 114.787h.588c.371 0 .671.301.671.671v2.348a.67.67 0 0 1-.671.671h-.588z"/><path d="M79.374 118.477h-2.14a.67.67 0 0 1-.629-.67v-2.349a.67.67 0 0 1 .629-.67h3.693v3.69z"/></g><path fill="#fde982" d="M80.845 121.371v-2.894h.923v1.887a1.8 1.8 0 0 0 1.301 1.971c1.049.461 1.049 1.845 1.049 3.271v10.986c0 1.258-.504 2.055-1.595 2.055h-.713v-14.593c.042-1.342-.965-1.132-.965-2.683"/><path fill="#fdbb38" d="M75.515 122.335a1.8 1.8 0 0 0 1.301-1.97v-1.888h4.197v2.894c0 1.551 1.007 1.341 1.007 2.683v14.593h-5.707c-1.134 0-1.637-.797-1.637-2.055v-11.196c-.21-1.426-.21-2.6.839-3.06"/><path stroke="#663c1d" stroke-linecap="round" stroke-linejoin="round" stroke-width="1.008" d="M82.104 118.98h-5.582v-4.193h5.582z"/><path stroke="#663c1d" stroke-linecap="round" stroke-linejoin="round" stroke-width="1.008" d="M78.621 112.146v-1.049h1.384v1.05c0 .711.84.334.84 1.131v1.51h-3.106v-1.51c0-.88.882-.42.882-1.132M75.515 122.335a1.8 1.8 0 0 0 1.301-1.97v-1.888h4.952v1.887a1.8 1.8 0 0 0 1.301 1.971c1.049.461 1.049 1.845 1.049 3.271v10.986c0 1.258-.504 2.055-1.595 2.055h-6.42c-1.133 0-1.637-.797-1.637-2.055v-11.196c0-1.426 0-2.6 1.049-3.06"/></g></g></svg>