<svg xmlns="http://www.w3.org/2000/svg" width="90.232" height="250.585" viewBox="0 0 90.232 250.585"><g stroke-miterlimit="10" data-paper-data="{&quot;isPaintingLayer&quot;:true}" style="mix-blend-mode:normal"><g stroke-width="0" data-paper-data="{&quot;origPos&quot;:null}"><g fill="#0a0602" data-paper-data="{&quot;origPos&quot;:null}"><path d="M29.586 5.814c-.097-2.141 1.709-3.967 4.035-4.078 2.326-.11 4.29 1.536 4.388 3.677S36.3 9.38 33.974 9.491c-2.326.11-4.29-1.535-4.388-3.677" data-paper-data="{&quot;origPos&quot;:null}"/><path d="M35.17 3.353C35.09 1.596 36.624.097 38.599.004c1.975-.092 3.642 1.258 3.723 3.015.082 1.757-1.453 3.256-3.427 3.348-1.975.093-3.642-1.257-3.723-3.014M45.407 4.302c-.065-1.413 1.168-2.618 2.756-2.692s2.927 1.01 2.993 2.423-1.168 2.618-2.756 2.692-2.927-1.01-2.993-2.423" data-paper-data="{&quot;origPos&quot;:null}"/><path d="M47.935 7.892c-.072-1.556 1.287-2.884 3.036-2.965 1.749-.082 3.225 1.113 3.297 2.67.073 1.555-1.286 2.883-3.035 2.965s-3.225-1.114-3.298-2.67M40.657 2.89c-.07-1.513 1.25-2.804 2.951-2.884 1.7-.08 3.136 1.083 3.206 2.596s-1.25 2.804-2.951 2.884c-1.7.079-3.136-1.083-3.206-2.596M22.152 76.954c-.071-1.526 1.214-2.825 2.871-2.903s3.057 1.097 3.128 2.623-1.214 2.825-2.871 2.903-3.057-1.097-3.128-2.623" data-paper-data="{&quot;origPos&quot;:null}"/><path d="M26.59 79.644c-.07-1.525 1.215-2.825 2.872-2.903s3.057 1.097 3.128 2.623-1.214 2.826-2.871 2.903c-1.657.078-3.057-1.097-3.128-2.623" data-paper-data="{&quot;origPos&quot;:null}"/><path d="M30.601 80.343c-.084-1.818 1.448-3.368 3.423-3.46 1.974-.092 3.644 1.307 3.728 3.126s-1.447 3.368-3.422 3.46-3.644-1.307-3.729-3.126M17.599 73.38c-.085-1.818 1.447-3.367 3.422-3.46s3.644 1.308 3.729 3.126c.084 1.82-1.448 3.368-3.423 3.46S17.683 75.2 17.6 73.382" data-paper-data="{&quot;origPos&quot;:null}"/><path d="M36.516 81.122c-.085-1.818 1.448-3.368 3.422-3.46s3.644 1.307 3.729 3.126-1.448 3.368-3.423 3.46c-1.974.093-3.643-1.307-3.728-3.126" data-paper-data="{&quot;origPos&quot;:null}"/><path d="M42.71 81.832c-.085-1.819 1.447-3.368 3.421-3.46 1.975-.093 3.644 1.307 3.729 3.126s-1.448 3.368-3.422 3.46-3.644-1.307-3.729-3.126" data-paper-data="{&quot;origPos&quot;:null}"/><path d="M48.833 80.862c-.085-1.82 1.448-3.368 3.422-3.46s3.644 1.307 3.729 3.125-1.448 3.368-3.423 3.46c-1.974.093-3.644-1.307-3.728-3.125" data-paper-data="{&quot;origPos&quot;:null}"/><path d="M54.374 78.825c-.085-1.819 1.448-3.368 3.422-3.46s3.644 1.307 3.729 3.125c.084 1.82-1.448 3.368-3.423 3.46-1.974.093-3.643-1.307-3.728-3.125" data-paper-data="{&quot;origPos&quot;:null}"/><path d="M59.468 76.318c-.085-1.818 1.448-3.368 3.422-3.46s3.644 1.307 3.729 3.126-1.448 3.368-3.423 3.46c-1.974.093-3.644-1.307-3.728-3.126" data-paper-data="{&quot;origPos&quot;:null}"/><path d="M63.056 73.062c-.084-1.819 1.448-3.368 3.423-3.46 1.974-.092 3.644 1.307 3.728 3.126s-1.448 3.368-3.422 3.46-3.644-1.307-3.729-3.126M9.694 42.234c-.085-1.82 1.447-3.368 3.422-3.46s3.644 1.306 3.729 3.125-1.448 3.368-3.423 3.46c-1.974.093-3.644-1.307-3.728-3.125" data-paper-data="{&quot;origPos&quot;:null}"/><path d="M11.2 36.425c-.085-1.818 1.447-3.368 3.422-3.46 1.974-.092 3.644 1.307 3.728 3.126s-1.448 3.368-3.422 3.46-3.644-1.307-3.729-3.126" data-paper-data="{&quot;origPos&quot;:null}"/><path d="M13.18 30.544c.776-1.244 2.493-1.723 3.835-1.069s1.801 2.193 1.026 3.437c-.776 1.244-2.493 1.723-3.835 1.07-1.342-.655-1.801-2.193-1.025-3.438M9.784 51.803c.776-1.244 2.493-1.723 3.835-1.069s1.801 2.193 1.025 3.437c-.775 1.245-2.492 1.723-3.834 1.07-1.342-.654-1.802-2.193-1.026-3.438" data-paper-data="{&quot;origPos&quot;:null,&quot;origRot&quot;:0}"/><path d="M14.463 27.69c-.085-1.82 1.447-3.368 3.422-3.46s3.644 1.306 3.729 3.125-1.448 3.368-3.423 3.46-3.644-1.307-3.728-3.126" data-paper-data="{&quot;origPos&quot;:null}"/><path d="M16.161 22.498c-.084-1.819 1.448-3.368 3.422-3.46s3.644 1.307 3.729 3.126-1.448 3.368-3.422 3.46-3.644-1.307-3.729-3.126M9.049 48.299c-.085-1.82 1.448-3.368 3.422-3.46s3.644 1.307 3.729 3.125-1.448 3.368-3.423 3.46c-1.974.093-3.643-1.307-3.728-3.125" data-paper-data="{&quot;origPos&quot;:null}"/><path d="M18.317 17.06c-.085-1.818 1.448-3.367 3.422-3.46s3.644 1.308 3.729 3.127-1.448 3.367-3.423 3.46c-1.974.092-3.644-1.307-3.728-3.126" data-paper-data="{&quot;origPos&quot;:null}"/><path d="M21.985 12.105c-.084-1.82 1.448-3.368 3.423-3.46 1.974-.093 3.644 1.306 3.728 3.125s-1.448 3.368-3.422 3.46-3.644-1.307-3.729-3.125M9.707 58.367c-.085-1.819 1.447-3.368 3.422-3.46s3.644 1.307 3.729 3.125c.084 1.82-1.448 3.368-3.423 3.46-1.974.093-3.644-1.307-3.728-3.125" data-paper-data="{&quot;origPos&quot;:null}"/><path d="M10.983 63.914c-.085-1.819 1.447-3.368 3.422-3.46s3.644 1.307 3.729 3.125c.084 1.82-1.448 3.368-3.423 3.46s-3.644-1.306-3.728-3.125" data-paper-data="{&quot;origPos&quot;:null}"/><path d="M14.007 69.144c-.084-1.819 1.448-3.368 3.423-3.46s3.644 1.307 3.728 3.125c.085 1.82-1.447 3.368-3.422 3.46s-3.644-1.307-3.729-3.125M25.884 7.925c-.066-1.421 1.131-2.631 2.674-2.704 1.543-.072 2.847 1.022 2.913 2.443.066 1.42-1.131 2.63-2.674 2.703s-2.847-1.021-2.913-2.442" data-paper-data="{&quot;origPos&quot;:null}"/><path d="M70.944 45.158c-1.974-.061-3.498-1.587-3.404-3.407s1.771-3.246 3.746-3.184c1.974.062 3.498 1.587 3.403 3.407-.094 1.82-1.77 3.246-3.745 3.184" data-paper-data="{&quot;origPos&quot;:null,&quot;index&quot;:null,&quot;origRot&quot;:0}"/><path d="M71.624 50.16c-1.974-.06-3.498-1.586-3.403-3.406.094-1.82 1.77-3.246 3.745-3.184 1.974.061 3.498 1.586 3.404 3.407s-1.771 3.245-3.746 3.184" data-paper-data="{&quot;origPos&quot;:null,&quot;index&quot;:null,&quot;origRot&quot;:0}"/><path d="M71.715 54.897c-1.974-.061-3.498-1.586-3.404-3.407s1.771-3.245 3.746-3.184c1.974.062 3.498 1.587 3.403 3.407-.094 1.82-1.77 3.246-3.745 3.184" data-paper-data="{&quot;origPos&quot;:null,&quot;index&quot;:null,&quot;origRot&quot;:0}"/><path d="M72.406 60.457c-1.974-.061-3.498-1.587-3.404-3.407s1.772-3.245 3.746-3.184c1.974.062 3.498 1.587 3.404 3.407s-1.772 3.246-3.746 3.184" data-paper-data="{&quot;origPos&quot;:null,&quot;index&quot;:null,&quot;origRot&quot;:0}"/><path d="M71.928 66.043c-1.975-.062-3.498-1.587-3.404-3.407s1.771-3.246 3.746-3.185c1.974.062 3.498 1.587 3.403 3.407-.094 1.82-1.771 3.246-3.745 3.185" data-paper-data="{&quot;origPos&quot;:null,&quot;index&quot;:null,&quot;origRot&quot;:0}"/><path d="M69.69 71.388c-1.974-.062-3.498-1.587-3.404-3.407s1.771-3.246 3.746-3.184c1.974.061 3.498 1.587 3.403 3.407-.094 1.82-1.77 3.245-3.745 3.184M70.017 39.887c-1.646-.051-2.916-1.323-2.837-2.84s1.476-2.704 3.121-2.653 2.916 1.323 2.837 2.84-1.476 2.704-3.121 2.653" data-paper-data="{&quot;origPos&quot;:null,&quot;index&quot;:null,&quot;origRot&quot;:0}"/><path d="M68.93 35.721c-1.975-.061-3.499-1.587-3.404-3.407.094-1.82 1.771-3.246 3.745-3.184s3.498 1.587 3.404 3.407-1.771 3.246-3.745 3.184" data-paper-data="{&quot;origPos&quot;:null,&quot;index&quot;:null,&quot;origRot&quot;:0}"/><path d="M67.081 30.601c-1.974-.061-3.498-1.586-3.404-3.407s1.772-3.245 3.746-3.184c1.974.062 3.498 1.587 3.404 3.407s-1.771 3.246-3.746 3.184" data-paper-data="{&quot;origPos&quot;:null,&quot;index&quot;:null,&quot;origRot&quot;:0}"/><path d="M59.826 12.863c-1.426.066-2.631-.944-2.692-2.258-.061-1.313 1.045-2.432 2.471-2.499s2.632.944 2.693 2.258c.061 1.313-1.045 2.432-2.472 2.499M65.539 25.468a3.554 3.554 0 0 1-3.734-3.388 3.59 3.59 0 0 1 3.417-3.736 3.554 3.554 0 0 1 3.734 3.387 3.59 3.59 0 0 1-3.417 3.737" data-paper-data="{&quot;origPos&quot;:null,&quot;index&quot;:null}"/><path d="M64.006 20.385c-1.89.089-3.49-1.252-3.57-2.993-.082-1.742 1.386-3.226 3.277-3.314s3.49 1.251 3.571 2.993-1.386 3.226-3.278 3.314M55.986 12.583c-1.375.064-2.537-.917-2.597-2.191-.059-1.275 1.008-2.36 2.383-2.425s2.538.916 2.597 2.191-1.008 2.36-2.383 2.425" data-paper-data="{&quot;origPos&quot;:null,&quot;index&quot;:null}"/><path d="M62.185 16.07c-1.712.083-3.16-1.2-3.236-2.863-.075-1.663 1.252-3.078 2.964-3.16s3.161 1.199 3.236 2.862-1.252 3.079-2.964 3.161" data-paper-data="{&quot;origPos&quot;:null,&quot;index&quot;:null}"/></g><path d="M73.038 60.38c-.886 14.454-13.036 19.503-26.516 21.313C21.31 84.324 14.759 66.62 13.845 60.315c-2.719-18.591 1.993-29.603 3.888-35.893C20.919 13.845 31.6 3.155 40.397 2.58c7.507-.49 10.882.657 13.675 7.23 11.512-.374 20.408 28.84 18.966 50.57" data-paper-data="{&quot;origPos&quot;:null}"/></g><path fill="#433d3d" d="M74.09 175.535c-.559 5.735-2.632 12.311-9.21 13.283-6.577.972-11.491-3.293-13.637-10.53-1.516-8.502-6.321-28.812-6.851-36.745-1.122-16.791-.853-34.03-.853-34.03s18.672-.48 18.816-.408c2.274 1.111 9.533 15.591 10.974 31.183 1.028 11.131 1.262 27.345.762 37.247" data-paper-data="{&quot;origPos&quot;:null,&quot;origRot&quot;:0,&quot;index&quot;:null}"/><path fill="#433d3d" d="M17.019 138.493c1.228-15.61 8.347-30.193 10.626-31.336.144-.075 19.274.138 19.274.138s.264 17.233-.626 34.039c-.42 7.939-4.99 28.9-6.396 37.422-2.062 7.267-6.967 11.018-13.62 10.141-6.654-.877-8.841-7.423-9.489-13.15-.648-9.893-.647-26.109.23-37.254" data-paper-data="{&quot;origPos&quot;:null,&quot;origRot&quot;:0,&quot;index&quot;:null}"/><g stroke-width="0" data-paper-data="{&quot;origPos&quot;:null}"><g data-paper-data="{&quot;origPos&quot;:null}"><path fill="#755135" d="M57.312 56.953c-4.457 8.446-19.725 8.813-25.982.463a650 650 0 0 0 6.219-2.435l.601-8.43 12.26-.192.726 8.087s5.537 2.17 6.176 2.507" data-paper-data="{&quot;origPos&quot;:null}"/><path fill="#4c392b" d="m38.237 46.474 12.26-.193.656 8c-3.325.04-10.93-.29-13.361-2.349z" data-paper-data="{&quot;origPos&quot;:null}"/></g><path fill="#755135" d="M44.642 51.708c-9.924.087-14.787-8.057-16.422-16.69-2.53-.977-4.036-5.98-3.092-7.755 1.043-2.163 2.415-.324 2.38-.856-.263-7.924 2.203-18.995 17.998-19.161C58.4 7.788 60.87 20.361 60.768 26.141c0 0 1.188-1.036 2.422-.005 1.32 2.157-.892 7.236-3.133 8.116-1.134 9.207-5.135 17.49-15.415 17.456" data-paper-data="{&quot;origPos&quot;:null}"/></g><path fill="none" stroke="#000" stroke-linecap="round" stroke-width="2" d="M31.987 23.046c2.557-1.516 6.096-1.16 8.161.257" data-paper-data="{&quot;origPos&quot;:null,&quot;origRot&quot;:0}"/><path fill="none" stroke="#000" stroke-linecap="round" stroke-width="2" d="M48.37 23.53c1.884-1.65 5.357-2.418 8.074-1.214" data-paper-data="{&quot;origPos&quot;:null,&quot;origRot&quot;:0,&quot;index&quot;:null}"/><g fill="none" stroke="#4c392b" stroke-linecap="round" stroke-width="1.5" data-paper-data="{&quot;origPos&quot;:null}"><path d="M41.682 35.19s1.735-.424 2.1.46M45.877 35.684c.23-.866 1.714-.64 1.714-.64" data-paper-data="{&quot;origPos&quot;:null}"/></g><g data-paper-data="{&quot;origPos&quot;:null}"><path fill="#fff" d="M35.062 30.099c-2.353-.348-3.962-2.14-3.654-3.344.308-1.205 2.416-1.368 4.77-1.02s4.06 1.703 3.752 2.908-2.515 1.804-4.868 1.456" data-paper-data="{&quot;origPos&quot;:null,&quot;origRot&quot;:0}"/><path d="M34.705 28.339c-.115-1.656.872-2.387 2.41-2.35 3.106.528 4.046 3.373.957 4.084-1.704.387-3.254.188-3.367-1.734" data-paper-data="{&quot;origPos&quot;:null,&quot;origRot&quot;:0}"/><path fill="none" stroke="#000" stroke-linecap="round" stroke-width="1.5" d="M31.42 26.284c2.718-1.037 6.48-.374 8.364 1.048" data-paper-data="{&quot;origPos&quot;:null,&quot;origRot&quot;:0}"/></g><g data-paper-data="{&quot;origPos&quot;:null}"><path fill="#fff" d="M53.687 29.927c-2.32.496-4.53.004-4.935-1.097-.405-1.102 1.147-2.396 3.467-2.892s4.691-.375 5.097.726c.405 1.102-1.31 2.767-3.63 3.263" data-paper-data="{&quot;origPos&quot;:null,&quot;origRot&quot;:0}"/><path d="M54.419 25.497c3.17-.112 3.958 1.931 1.575 3.55-1.318.888-2.815.934-3.518-.674-1.084-2.48.427-2.776 1.943-2.876" data-paper-data="{&quot;origPos&quot;:null,&quot;origRot&quot;:0}"/><path fill="none" stroke="#000" stroke-linecap="round" stroke-width="1.5" d="M48.552 27.548c2.121-1.81 6.02-2.17 8.364-1.446" data-paper-data="{&quot;origPos&quot;:null,&quot;origRot&quot;:0}"/></g><path fill="#d9b8a3" d="M61.424 35.279c-.061.575-.55 1.034-1.091 1.024s-.93-.484-.869-1.06c.062-.575.55-1.034 1.092-1.024.54.01.93.484.868 1.06" data-paper-data="{&quot;origPos&quot;:null,&quot;origRot&quot;:0}"/><path fill="#d9b8a3" d="M26.631 35.404c-.061-.576.327-1.05.869-1.06.54-.01 1.03.449 1.09 1.024.062.576-.327 1.05-.868 1.06s-1.03-.449-1.09-1.024" data-paper-data="{&quot;origPos&quot;:null,&quot;origRot&quot;:0,&quot;index&quot;:null}"/><g data-paper-data="{&quot;origPos&quot;:null}"><path fill="#4c392b" d="M42.511 39.702a3.73 3.73 0 0 1 2.015.88 3.73 3.73 0 0 1 2.022-.88c1.05.15 2.069.447 3.026.88 0 0-.173 2.73-2.189 3.609-1.611.653-3.35.74-4.96.087-1.263-.584-2.23-1.676-2.947-2.817 0 0 2.022-1.759 3.033-1.759" data-paper-data="{&quot;origPos&quot;:null}"/><path fill="none" stroke="#000" stroke-linecap="round" stroke-width="1.5" d="M49.978 40.909c-2.88 1.487-7.667 1.961-10.842.153" data-paper-data="{&quot;origPos&quot;:null,&quot;origRot&quot;:0,&quot;index&quot;:null}"/></g><g stroke-width="0" data-paper-data="{&quot;origPos&quot;:null}"><path fill="#755135" d="M62.314 58.346c2.641.48 4.889.271 7.72 3.302 7.469 8 7.577 19.15 9.244 29.037.339 2.02 1.968 6.058 2.408 7.86-.017 2.201-.402 4.858-3.527 5.727-3.087.859-5.433-1.326-6.498-3.862-1.01-3.668-5.15-12.552-6.548-16.978" data-paper-data="{&quot;origPos&quot;:null,&quot;origRot&quot;:0}"/><path fill="#d89669" d="M60.079 57.869c3.352.444 6.183.156 9.867 3.353 7.375 6.4 9.785 15.005 11.595 23.431-2.425 1.043-4.754 2.116-6.916 2.888-2.463.88-5.11 1.691-7.68 2.518-.922-1.821-1.783-3.596-2.415-5.15" data-paper-data="{&quot;origPos&quot;:null,&quot;index&quot;:null}"/></g><g stroke-width="0"><path fill="#755135" d="M25.12 83.17c-1.4 4.427-5.538 13.311-6.549 16.979-1.064 2.536-3.41 4.72-6.497 3.862-3.125-.869-3.51-3.526-3.527-5.728.439-1.801 2.069-5.84 2.407-7.859 1.668-9.886 1.775-21.036 9.245-29.037 2.83-3.03 5.078-2.823 7.719-3.302" data-paper-data="{&quot;origPos&quot;:null,&quot;origRot&quot;:0,&quot;index&quot;:null}"/><path fill="#d89669" d="M25.524 84.679c-.631 1.554-1.492 3.329-2.414 5.15-2.57-.826-5.217-1.638-7.68-2.518-2.162-.772-4.49-1.845-6.916-2.888 1.81-8.426 4.22-17.03 11.595-23.431 3.684-3.197 6.514-2.91 9.867-3.353" data-paper-data="{&quot;origPos&quot;:null,&quot;index&quot;:null}"/></g><path fill="#fdc7a2" d="M24.057 58.49s5.005-1.264 9.526-2.257c2.58 6.29 18.926 6.636 21.891-.095 1.358.322 8.004 1.762 10.23 2.265 1 .22-.003 47.426-.003 47.426s-7.508 6.267-19.954 6.344c-11.736.072-20.756-5.35-20.756-5.35z" data-paper-data="{&quot;origPos&quot;:null,&quot;origRot&quot;:0}"/><g fill="#0a0602" stroke-width="0" data-paper-data="{&quot;origPos&quot;:null}"><path d="M51.258 7.417s-7.752 4.95-11.458 7.765C33.708 19.81 23.748 33.53 23.748 33.53s-2.581-20.636 12.39-27.305c6.97-3.171 15.12 1.192 15.12 1.192" data-paper-data="{&quot;origPos&quot;:null}"/><path d="M35.012 13.827c.48-2.516 2.938-4.161 5.49-3.675s4.23 2.92 3.75 5.436-2.938 4.161-5.49 3.675c-2.55-.487-4.23-2.92-3.75-5.436" data-paper-data="{&quot;origPos&quot;:null}"/><path d="M31.906 18.918c.416-2.182 2.547-3.608 4.76-3.187s3.668 2.532 3.252 4.713-2.548 3.608-4.76 3.187-3.668-2.532-3.252-4.713" data-paper-data="{&quot;origPos&quot;:null}"/><path d="M28.195 21.93c.368-1.925 2.247-3.183 4.199-2.811s3.235 2.233 2.868 4.157-2.247 3.183-4.198 2.81c-1.952-.371-3.236-2.232-2.869-4.157" data-paper-data="{&quot;origPos&quot;:null}"/><path d="M26.045 26.019c.792-1.463 2.637-1.997 4.12-1.194s2.045 2.64 1.252 4.102-2.637 1.997-4.12 1.194-2.044-2.64-1.252-4.102" data-paper-data="{&quot;origPos&quot;:null,&quot;origRot&quot;:0}"/><path d="M21.398 31.166c.393-2.056 2.401-3.4 4.487-3.004 2.085.398 3.457 2.387 3.064 4.443s-2.4 3.4-4.486 3.003-3.457-2.386-3.065-4.442M41.444 10.35c.399-2.09 2.44-3.456 4.56-3.052s3.515 2.425 3.116 4.515c-.4 2.09-2.441 3.457-4.56 3.053-2.12-.404-3.515-2.425-3.116-4.515" data-paper-data="{&quot;origPos&quot;:null}"/><path d="M47.782 7.65c.294-1.54 1.798-2.548 3.36-2.25 1.562.297 2.59 1.787 2.295 3.327s-1.798 2.547-3.36 2.25c-1.561-.299-2.589-1.788-2.295-3.328M21.31 25.827a3.75 3.75 0 1 1 7.5 0 3.75 3.75 0 0 1-7.5 0" data-paper-data="{&quot;origPos&quot;:null}"/><path d="M22.81 19.327a3.75 3.75 0 1 1 7.5 0 3.75 3.75 0 0 1-7.5 0" data-paper-data="{&quot;origPos&quot;:null}"/><path d="M25.31 13.577a3.75 3.75 0 1 1 7.5 0 3.75 3.75 0 0 1-7.5 0" data-paper-data="{&quot;origPos&quot;:null}"/><path d="M29.31 9.327a3.75 3.75 0 1 1 7.5 0 3.75 3.75 0 0 1-7.5 0" data-paper-data="{&quot;origPos&quot;:null}"/><path d="M34.81 6.827a3.75 3.75 0 1 1 7.5 0 3.75 3.75 0 0 1-7.5 0M44.81 5.827a2.75 2.75 0 1 1 5.5 0 2.75 2.75 0 0 1-5.5 0" data-paper-data="{&quot;origPos&quot;:null}"/><path d="M40.31 5.327a2.75 2.75 0 1 1 5.5 0 2.75 2.75 0 0 1-5.5 0" data-paper-data="{&quot;origPos&quot;:null}"/></g><g data-paper-data="{&quot;origPos&quot;:null}"><g stroke-linecap="round" data-paper-data="{&quot;origPos&quot;:null,&quot;origRot&quot;:0,&quot;index&quot;:null}"><path fill="#fff" d="M36.365 239.596c2.945 2.201 11.99 1.17 7.998 6.524-2.729 3.66-7.51 2.93-12.162 2.285-3.93-.546-4.292-4.613-8.26-4.643-4.208-.032-8.195.571-10.593-2.159-.853-.97 3.012-10.325 3.012-10.325s4.243 2.039 6.455 2.093c2.735.068 7.045-1.28 7.045-1.28s3.56 5.305 6.505 7.505" data-paper-data="{&quot;origPos&quot;:null}"/><path fill="#a5a5a5" d="M14.769 244.964c-2.01-1.061-1.91-1.79-1.577-3.528 3.035 1.897 2.466 2.393 10.56 1.856 2.898.29 4.533 3.432 8.154 4.584 9.624 1.96 12.125-1.72 13.495-3.18-.032 1.127-.31 2.3-.813 2.974-2.728 3.66-7.374 3.083-12.025 2.437-6.622-1.576-5.176-4.376-9.144-4.406-4.209-.031-5.898.716-8.65-.737" data-paper-data="{&quot;origPos&quot;:null}"/><path fill="none" stroke="#000" stroke-width="1.5" d="m33.5 241.37 2.36-2.094M31.638 239.27l2.238-2.101M32.015 235.07l-2.355 1.97" data-paper-data="{&quot;origPos&quot;:null}"/></g><path fill="#433d3d" d="M16.377 181.4c1.08-11.885 7.175-14.688 13.855-14.128s10.194 6.743 9.154 15.884c-.499 11.46-5.957 49.513-5.957 49.513s-6.088 2.522-9.714 2.192c-3.789-.343-9.223-3.051-9.224-3.052s.9-40.573 1.886-50.408" data-paper-data="{&quot;origPos&quot;:null,&quot;origRot&quot;:0,&quot;index&quot;:null}"/></g><g data-paper-data="{&quot;origPos&quot;:null}"><g stroke-linecap="round" data-paper-data="{&quot;origPos&quot;:null,&quot;origRot&quot;:0}"><path fill="#fff" d="M79.246 239.265c3.016 2.102 12.022.775 8.208 6.257-2.606 3.747-7.41 3.176-12.08 2.684-3.945-.416-4.44-4.47-8.407-4.37-4.208.108-8.172.841-10.66-1.808-.883-.942 2.671-10.419 2.671-10.419s3.647 1.695 7.45 1.798c1.268.035 6.07-1.43 6.07-1.43s3.732 5.185 6.748 7.288" data-paper-data="{&quot;origPos&quot;:null,&quot;index&quot;:null}"/><path fill="#a5a5a5" d="M56.146 241.866c3.096 1.796 2.544 2.31 10.617 1.508 2.905.193 4.642 3.28 8.299 4.313 9.684 1.642 12.062-2.118 13.383-3.623.005 1.128-.234 2.31-.714 3-2.607 3.747-7.269 3.323-11.94 2.831-6.669-1.357-5.316-4.203-9.283-4.103-4.207.107-5.871.91-8.67-.452-2.042-.994-1.967-1.726-1.692-3.474" data-paper-data="{&quot;origPos&quot;:null,&quot;index&quot;:null}"/><path fill="none" stroke="#000" stroke-width="1.5" d="m76.44 241.132 2.292-2.17M76.679 236.921l-2.168 2.174M72.461 236.93l2.289-2.046" data-paper-data="{&quot;origPos&quot;:null,&quot;index&quot;:null}"/></g><path fill="#433d3d" d="M75.689 231.19c-.002.001-5.854 3.748-9.69 4.014-3.672.255-8.621-2.368-8.621-2.368s-5.64-38.17-5.923-49.637c-.874-9.16 2.502-15.282 9.265-15.705s12.87 2.505 13.73 14.41c.807 9.854 1.239 49.287 1.239 49.287" data-paper-data="{&quot;origPos&quot;:null,&quot;origRot&quot;:0,&quot;index&quot;:null}"/></g><path fill="#755135" d="M88.99 129.66s1.155 3.12 1.234 4.383c-.034.404.248 3.593-.87 3.424-.994-.039-.644-1.369-.925-2.514-.275-1.12-.995-3.372-.995-3.372s.487 2.717.563 4.335c-.153 1.604.303 4.818-1.094 4.664-1.17-.366-.727-3.027-.857-3.626-.296-1.367-.509-3.585-1-3.756.2 1.38.385 3.093.422 4.48.031 1.164-.083 3.62-.638 4.642-.442.815-1.354.937-1.651.06-.232-.513.127-3.178.08-3.738-.142-1.68-.17-3.495-.713-4.39.094 1.499.13 3.511-.062 5.688-.18 2.027-.867 4.946-1.658 4.682-2.122-.311-.386-3.48-.58-5.958-.22-2.78-.68-3.468-1.515-6.084-.48 1.39.164 3.148-.753 4.455-1.196 1.353-1.768.084-1.771-.46-.004-1.916-.93-5.316-.4-7.173.446-1.92 1.064-4.394 1.679-6.464-.204-2.135-4.588-14.64-5.43-21.876-.006-.05.45-4.686 3.84-5.345 3.376-.91 5.737 2.327 6.067 3.618 2.614 5.908 2.616 22.048 2.616 22.048zM5.653 121.122s.002-16.14 2.616-22.048c.33-1.291 2.69-4.528 6.067-3.618 3.39.658 3.846 5.295 3.84 5.345-.842 7.236-5.226 19.741-5.43 21.876.615 2.07 1.233 4.543 1.679 6.464.53 1.857-.396 5.257-.4 7.173-.003.544-.575 1.813-1.77.46-.918-1.307-.274-3.066-.753-4.455-.836 2.616-1.297 3.304-1.515 6.084-.194 2.479 1.541 5.647-.58 5.957-.792.265-1.479-2.654-1.658-4.681a38.5 38.5 0 0 1-.063-5.689c-.543.896-.571 2.711-.713 4.39-.047.56.312 3.226.08 3.738-.297.878-1.208.756-1.65-.06-.556-1.022-.67-3.477-.639-4.64.037-1.388.223-3.1.422-4.481-.491.171-.704 2.39-1 3.756-.13.599.314 3.26-.857 3.626-1.396.154-.94-3.06-1.094-4.664.077-1.618.564-4.335.564-4.335s-.72 2.252-.995 3.372c-.282 1.145.069 2.475-.926 2.514-1.117.17-.835-3.02-.87-3.424.08-1.262 1.234-4.383 1.234-4.383z" data-paper-data="{&quot;origPos&quot;:null,&quot;origRot&quot;:0,&quot;index&quot;:null}"/></g></svg>