<svg xmlns="http://www.w3.org/2000/svg" width="83.885" height="214.085" viewBox="-1.942 -1.842 83.885 214.085"><path fill="#7aded4" d="M2.7 15.1 45.5.6l34.2 16.1v192.6H.3z"/><path fill="#e7f5f5" d="m45 .4.4 209.6H.3V14.4S39.6 2.6 45 .4"/><path fill="none" stroke="#7aded4" stroke-width="4.485" d="m4.5 20.9 34.7-9.6M4.5 30.3l34.7-9.7M4.5 39.7 39.2 30M4.5 49l34.7-9.7M4.5 58.4l34.7-9.7M4.5 67.7 39.2 58M4.5 77.1l34.7-9.7M4.5 86.4l34.7-9.7M4.5 95.8l34.7-9.7M4.5 105.1l34.7-9.6M4.5 114.5l34.7-9.7M4.5 123.8l34.7-9.6M4.5 133.2l34.7-9.7M4.5 142.6l34.7-9.7M4.5 151.9l34.7-9.7M4.5 161.3l34.7-9.7M4.5 170.6l34.7-9.7M4.5 180l34.7-9.7M4.5 189.3l34.7-9.7M4.5 198.7l34.7-9.7M4.5 208l34.7-9.6"/></svg>