<svg xmlns="http://www.w3.org/2000/svg" width="58.27" height="84.757" viewBox="-0.5 -0.5 58.27 84.757"><path fill="#0cc" d="M57.27 69.417c0 1.98-.63 8.7-8.81 12.14-1.92.82-4.03 1.24-6.27 1.24-2.28 0-4.7-.42-7.38-1.29-2.08-.67-5.09-1.51-8.97-2.51-4.76 3.33-8.4 4.76-12.02 4.76-3.79 0-7.39-1.52-10.15-4.27a10.97 10.97 0 0 1-3.23-7.78v-1.94c0-1.22.21-2.84 1-4.59.41-3.57 1.27-7.09 2.56-10.49.35-.98 1.01-2.62 2.85-6.55 1.85-3.87 4.63-7.91 8.48-12.27-.68.09-1.31.13-1.87.13-6.69 0-13.46-4.9-13.46-14.26 0-3.17 1.12-6.37 3.99-11.42.85-1.49 2.03-2.76 3.46-3.71.19-.13.43-.29.7-.48.73-.61 1.58-1.2 2.63-1.85.69-.42 1.42-.77 2.18-1.03 1.79-.62 3.65-1.23 5.55-1.82 2.73-.85 5.22-1.31 7.6-1.41h.12c5.39-.16 10.51.82 15.28 2.93 4.46 1.91 8.04 5.21 10.65 9.82 2.45 4.34 3.57 8.71 3.34 13l-.03.37c-.35 3.97-1.7 7.63-4.03 10.88-.11.16-.24.32-.36.48-.73.92-2.01 2.36-5.39 5.41-1.98 2.07-4.75 4.87-8.43 8.52-.36.52-.75 1.04-1.18 1.55 1.36.36 2.75.82 4.2 1.35l1.6.58c.27-.01.53-.01.79-.01 5.69 0 9.14 2.48 11.04 4.57.05.05.09.1.14.15 2.08 2.38 3.23 5.5 3.41 9.27.01.17.01.35.01.53"/><path fill="#fff" d="M46.274 69.414q0 1.142-2.111 2.022-2.025.879-5.981-.396-3.959-1.277-11.61-3.211-3.607-.441-6.245 1.584-4.576 3.342-6.51 3.342-1.319 0-2.375-1.054v-1.933q0-.088.221-.351.218-.266.264-.57.043-.31.308-1.01a32.5 32.5 0 0 1 2.111-9.398q.439-1.315 2.463-5.62 2.638-5.532 9.588-12.735 2.022-1.931 5.805-5.797a159 159 0 0 1 3.343-3.073q2.374-2.281 2.463-3.601.175-.264.439-.878.087-.965-.088-2.635-.088-.176-.22-.79a27 27 0 0 1-.308-1.933q-2.64-5.27-10.115-5.27-5.014 0-7.653 2.526-.264.088-.703.261-1.496.959-1.848 1.829-1.848 4.268-4.046 4.268-2.464 0-2.463-3.254 0-1.496 2.551-5.981.527-.351 1.407-.968.439-.44 1.584-1.144a184 184 0 0 1 5.233-1.715q2.683-.836 4.794-.924 5.628-.175 10.555 2.022 3.342 1.408 5.454 5.146 2.11 3.739 1.935 6.992a10.9 10.9 0 0 1-2.023 5.454q-1.054 1.32-4.485 4.397-3.08 3.256-9.5 9.588-.528 1.232-2.375 2.727-.089.353-.439 1.056-1.144 2.025-3.255 4.486.087.791-.703 1.847-.969 1.497-.968 1.672-.705 1.672-1.848 4.926-.265 1.056-.879 3.255a154 154 0 0 1 5.365-1.496 23 23 0 0 1 3.958-.352q3.959 0 9.148 1.936 1.23.44 3.694 1.319 1.23-.087 2.463-.088 2.022 0 2.902.968.613.706.703 2.554"/></svg>