<svg xmlns="http://www.w3.org/2000/svg" width="78.67" height="74.82" viewBox="-0.5 -0.5 78.67 74.82"><path fill="#0cc" d="M77.67 55.77v.62c0 6.55-4.23 11.88-10.81 13.66-1.82.53-3.88.68-8.72.68 0 0-.79.05-2.82.57-2.39.62-4.73 1.23-7.03 1.81-.13.04-.25.07-.38.09-1.91.42-3.58.62-5.11.62-.34 0-.68-.01-1-.03-2.21-.11-5.28-.9-8.28-3.74-.14-.13-.27-.26-.4-.39-1.8.39-3.83.56-6.21.49-.25.05-.55.12-.89.19-2.23.49-3.82.72-5.25.74-.1.01-.3.04-.64.11-1.75.34-3.28.51-4.65.51-3.12 0-6.07-.76-8.77-2.27-.26-.14-.5-.29-.74-.45C2.13 66.44.11 61.99.7 57.38c.7-5.35 3.89-9.48 8.53-11.39v-1.18c-.45-1.75-.47-3.61-.03-5.4.02-.15.07-.66.04-1.7-.01-.05-.01-.1-.01-.14-.05-3.29-.06-5.81-.02-7.66-1.04-.37-2.04-.85-2.98-1.44C2.32 26.03 0 21.87 0 17.33 0 13.31 1.81 6.24 13.93 4.05c2.15-.4 5.37-1.01 9.67-1.81.29-.07.78-.2 1.47-.38 1.84-.49 3.38-.72 4.84-.72 1.42 0 2.73.18 3.93.49.55-.23 1.11-.43 1.68-.59C37.37.5 39.61.27 47.13.27c1.85-.12 4.3-.21 7.46-.27.39 0 .79.01 1.18.04.09 0 .19-.01.31-.01.25-.02.49-.03.74-.03h2.11c6.22 0 11.38 3.03 13.8 8.11.07.13.13.27.19.41 2.01 4.7 1.1 9.96-2.43 14.08-2.22 2.64-5.07 3.71-7.38 4.34-1.78.53-3.7.7-6.03.55-.46.38-1.24 1.07-2.4 2.26-.06.06-.11.12-.17.18.27.67.57 1.38.87 2.13 1.33 3.24 2.01 4.74 2.32 5.38.32.46.62.95.87 1.46.51 1.01 1.25 2.44 2.22 4.28.24-.03.5-.07.76-.1 2.36-.44 4.87-.18 7.39.76 3.53 1.33 6.21 3.8 7.58 6.97l.27.63c.58 1.37.88 2.84.88 4.33"/><path fill="#fff" d="m66.41 55.157.264.616v.615q0 2.376-2.814 3.079-.791.264-5.717.264-2.024 0-5.586.924t-6.993 1.803q-2.024.441-3.166.353-.528 0-1.319-.748-.792-.746-.792-1.451 0-.35.176-.616 1.142-1.669 4.223-2.375 3.604-.703 4.573-1.407-2.375-3.87-6.772-11.875-1.145-2.725-4.134-8.972-.442-1.055-1.584-3.431-2.111 1.496-4.926 4.398-3.255 3.343-4.75 4.662-.615.44-1.935 1.583-.177 7.566.703 11.699 1.23.088 3.123-.221 1.89-.307 2.419-.308 1.407 0 2.023 1.231.35.792.352 1.319 0 3.256-7.477 2.814-.441.001-2.639.484-2.2.484-3.123.483-.923 0-2.507.309t-2.551.308a6.95 6.95 0 0 1-3.431-.88q-.529-.35-.439-1.056.344-2.639 3.104-2.902 4.48-.528 4.998-.792t.519-1.407V42.753q0-.087-.353-.703.439-1.67.353-4.662-.09-5.541 0-8.093.088-3.694.615-9.06.175-1.319-.176-1.495-.969.089-3.166.571-2.2.484-3.167.483a4.24 4.24 0 0 1-2.287-.659q-1.055-.658-1.056-1.804 0-1.582 4.926-2.463 3.254-.613 9.852-1.847.44-.086 2.111-.528 1.319-.35 2.023-.352 2.462 0 2.463 1.76 0 1.408-.891 2.551-1.07.704-3.16.835-2.093.132-2.271.353t-.621 3.914q-.535 4.222-.534 5.894v8.18l.264.265 19.527-18.427q-1.233-.087-3.782-.178-4.31-.087-4.574-3.453 0-.53.747-1.285.746-.753 1.452-.931 1.142-.354 8.972-.354 2.55-.176 7.3-.266.705.09 2.023 0h2.111q2.988 0 3.871 1.848.526 1.232-.705 2.639-.352.44-2.023.88-1.054.351-3.693 0-1.145-.087-3.43 0a2.16 2.16 0 0 1-1.057 1.319q-2.024 1.232-5.102 4.397a465 465 0 0 0-5.102 5.366q1.055 2.815 3.519 8.796 2.99 7.302 3.519 7.564a282 282 0 0 0 2.639 5.102q3.78 5.982 4.398 5.981 2.549-.263 7.652-.968.615-.175 1.672.22 1.056.4 1.319 1.014"/></svg>