<svg xmlns="http://www.w3.org/2000/svg" width="105.88" height="123.66" viewBox="-0.1 -0.22 105.88 123.66"><g stroke-width="2"><path fill="#1c9b47" stroke="#1c9b47" d="M94.08 47.1H7.9v17.28h.86V48.14h84.46v16.24h.86V47.1"/><path fill="#007c2c" stroke="#007c2c" d="M8.76 48.14v16.24h2.02v-14.3h80.44v14.3h2V48.14H8.76"/></g><path fill="#ffdb48" d="M1.46 65.84a3.2 3.2 0 0 0-.56 1.84v11.6h100.2v-11.6a3.2 3.2 0 0 0-.56-1.84z"/><path fill="#ffed9f" d="M97.8 64.38H4.2a3.34 3.34 0 0 0-2.74 1.46h99.08a3.34 3.34 0 0 0-2.74-1.46"/><path fill="#d2a6cc" d="M101.1 119.14V79.28H1v39.86c.003.439.091.874.26 1.28h99.58c.169-.406.257-.841.26-1.28"/><path fill="#9f509e" d="M1.16 120.42a3.32 3.32 0 0 0 3.04 2h93.6a3.32 3.32 0 0 0 3.04-2z"/><path fill="none" stroke="#ca90c7" stroke-linecap="round" stroke-linejoin="round" stroke-width=".5" d="m4.98 92.64.6 1.54M36.6 93.96l-1.44 1.26M27.54 88.36l.96 1M30.12 117.82l-1.78.86M7.12 118.24l.3-1.3M3.38 106.8v-1.76M35.7 111.08l-.66 1.74M69.62 91.76l.8-1.4M93.86 89.92l.62 1.4M98 112.38l-1.28.9M91.02 118.58h1.58M73.2 118.4l-1.16-1.34M66.72 109.2v1.84M66.18 97.64l1.08 1.62M12.9 88.86h1.86"/><path fill="#c9e2b3" d="M15.56 62.46h5.86v2h-5.86z"/><path fill="#fff" d="M15.56 60.54h5.86v2h-5.86zM23.5 60.54h5.86v2H23.5z"/><path fill="#c9e2b3" d="M23.5 62.46h5.86v2H23.5zM35.88 62.46h5.86v2h-5.86z"/><path fill="#fff" d="M35.88 60.54h5.86v2h-5.86z"/><path fill="#c9e2b3" d="M43.82 62.46h5.86v2h-5.86z"/><path fill="#fff" d="M43.82 60.54h5.86v2h-5.86zM51.7 62.46h5.86v2H51.7z"/><path fill="#c9e2b3" d="M59.64 62.46h5.86v2h-5.86z"/><path fill="#fff" d="M59.64 60.54h5.86v2h-5.86zM72.62 60.54h5.86v2h-5.86z"/><path fill="#c9e2b3" d="M72.62 62.46h5.86v2h-5.86z"/><path fill="#fff" d="M80.54 60.54h5.86v2h-5.86z"/><path fill="#c9e2b3" d="M80.54 62.46h5.86v2h-5.86z"/><path fill="none" stroke="#149948" stroke-linecap="round" stroke-linejoin="round" stroke-width=".5" d="M15.56 62.46v1.92h5.86v-3.84h-5.86zM23.48 62.46v1.92h5.88v-3.84h-5.88zM35.88 62.46v1.92h5.86v-3.84h-5.86zM43.82 62.46v1.92h5.86v-3.84h-5.86zM51.7 62.46h5.86v2H51.7zM59.64 62.46v1.92h5.86v-3.84h-5.86zM72.62 62.46v1.92h5.86v-3.84h-5.86zM80.54 60.54v3.84h5.86v-3.84z"/><path fill="#fff" stroke="#5e154d" stroke-width=".72" d="M16.28 68.14h68.84v7.46H16.28z"/><path fill="none" stroke="#5e154d" stroke-width=".5" d="M40.02 70.76h41.06M40.02 73.02h41.06M60.56 68.14v7.48"/><g stroke-width="2"><path fill="#007c2c" stroke="#007c2c" d="M20.66 70.76h3.5v2.26h-3.5z"/><path fill="#f05822" stroke="#f05822" d="M24.16 70.76h3.38v2.26h-3.38z"/><path fill="#007c2c" stroke="#007c2c" d="M27.54 70.76h3.38v2.26h-3.38z"/><path fill="#f05822" stroke="#f05822" d="M30.92 70.76h3.5v2.26h-3.5z"/></g><g stroke="#f05822"><path fill="#fff" stroke-width=".96" d="M8.62 66.96c1.357 0 2.587.551 3.478 1.442a4.9 4.9 0 0 1 1.442 3.478 4.9 4.9 0 0 1-1.442 3.478A4.9 4.9 0 0 1 8.62 76.8a4.9 4.9 0 0 1-3.478-1.442A4.9 4.9 0 0 1 3.7 71.88c0-1.357.551-2.587 1.442-3.478A4.9 4.9 0 0 1 8.62 66.96Z"/><path fill="none" stroke-width=".5" d="m4.06 73.68 6.36-6.34M5.34 74.96l6.34-6.34M6.58 76.2l6.34-6.36M13.16 73.92l-6.34-6.34M11.88 75.2l-6.34-6.34M10.66 76.44 4.3 70.08M8.62 68.24c1.004 0 1.914.408 2.573 1.067a3.63 3.63 0 0 1 1.067 2.573 3.63 3.63 0 0 1-1.067 2.573A3.63 3.63 0 0 1 8.62 75.52a3.63 3.63 0 0 1-2.573-1.067A3.63 3.63 0 0 1 4.98 71.88c0-1.004.408-1.914 1.067-2.573A3.63 3.63 0 0 1 8.62 68.24Z"/></g><g stroke="#f05822"><path fill="#fff" stroke-width=".96" d="M93.08 66.96c1.357 0 2.587.551 3.478 1.442A4.9 4.9 0 0 1 98 71.88a4.9 4.9 0 0 1-1.442 3.478A4.9 4.9 0 0 1 93.08 76.8a4.9 4.9 0 0 1-3.478-1.442 4.9 4.9 0 0 1-1.442-3.478c0-1.357.551-2.587 1.442-3.478a4.9 4.9 0 0 1 3.478-1.442Z"/><path fill="none" stroke-width=".5" d="M93.08 68.24c1.004 0 1.914.408 2.573 1.067a3.63 3.63 0 0 1 1.067 2.573 3.63 3.63 0 0 1-1.067 2.573 3.63 3.63 0 0 1-2.573 1.067 3.63 3.63 0 0 1-2.573-1.067 3.63 3.63 0 0 1-1.067-2.573c0-1.004.408-1.914 1.067-2.573a3.63 3.63 0 0 1 2.573-1.067ZM88.52 73.68l6.36-6.34M89.8 74.96l6.34-6.34M91.04 76.2l6.34-6.36M97.62 73.92l-6.34-6.34M96.36 75.2 90 68.86M95.12 76.44l-6.36-6.36"/></g><path fill="#ca90c7" d="M20.02 89.36c3.984 0 7.594 1.618 10.208 4.232A14.4 14.4 0 0 1 34.46 103.8c0 3.984-1.618 7.594-4.232 10.208a14.4 14.4 0 0 1-10.208 4.232 14.4 14.4 0 0 1-10.208-4.232A14.4 14.4 0 0 1 5.58 103.8c0-3.984 1.618-7.594 4.232-10.208A14.4 14.4 0 0 1 20.02 89.36"/><path fill="#eac5dd" stroke="#eac5dd" stroke-linecap="round" stroke-linejoin="round" stroke-width=".5" d="M20.02 92.12c3.222 0 6.142 1.309 8.257 3.423A11.65 11.65 0 0 1 31.7 103.8c0 3.222-1.309 6.142-3.423 8.257a11.65 11.65 0 0 1-8.257 3.423 11.65 11.65 0 0 1-8.257-3.423A11.65 11.65 0 0 1 8.34 103.8c0-3.222 1.309-6.142 3.423-8.257a11.65 11.65 0 0 1 8.257-3.423"/><g fill="none" stroke="#9f509e" stroke-width=".72"><path d="M4.64 107.38 23.7 88.32M7 109.78l19.06-19.06M9.36 112.18 28.44 93.1M11.72 114.56 30.8 95.5M14.08 116.96 33.16 97.9M16.46 119.36l19.06-19.08M23.62 119.28 4.56 100.2M26.02 116.92 6.96 97.84M28.42 114.56 9.34 95.48M30.8 112.18 11.74 93.12M33.2 109.82 14.14 90.76M35.6 107.46 16.52 88.4"/></g><path fill="none" stroke="#5e154d" stroke-linecap="round" stroke-linejoin="round" stroke-width=".96" d="M20.02 92.12c3.222 0 6.142 1.309 8.257 3.423A11.65 11.65 0 0 1 31.7 103.8c0 3.222-1.309 6.142-3.423 8.257a11.65 11.65 0 0 1-8.257 3.423 11.65 11.65 0 0 1-8.257-3.423A11.65 11.65 0 0 1 8.34 103.8c0-3.222 1.309-6.142 3.423-8.257a11.65 11.65 0 0 1 8.257-3.423"/><g fill="none" stroke="#9f509e" stroke-width=".72"><path d="M66.64 107.38 85.7 88.32M69 109.78l19.06-19.06M71.36 112.18 90.44 93.1M73.72 114.56 92.8 95.5M76.08 116.96 95.16 97.9M78.46 119.36l19.06-19.08M85.62 119.28 66.56 100.2M88.02 116.92 68.96 97.84M90.42 114.56 71.34 95.48M92.8 112.18 73.74 93.12M95.2 109.82 76.14 90.76M97.6 107.46 78.52 88.4"/></g><path fill="#ca90c7" d="M82.02 89.36c3.984 0 7.594 1.618 10.208 4.232A14.4 14.4 0 0 1 96.46 103.8c0 3.984-1.618 7.594-4.232 10.208a14.4 14.4 0 0 1-10.208 4.232 14.4 14.4 0 0 1-10.208-4.232A14.4 14.4 0 0 1 67.58 103.8c0-3.984 1.618-7.594 4.232-10.208A14.4 14.4 0 0 1 82.02 89.36"/><path fill="#eac5dd" stroke="#eac5dd" stroke-linecap="round" stroke-linejoin="round" stroke-width=".5" d="M82.02 92.12c3.222 0 6.142 1.309 8.257 3.423A11.65 11.65 0 0 1 93.7 103.8c0 3.222-1.309 6.142-3.423 8.257a11.65 11.65 0 0 1-8.257 3.423 11.65 11.65 0 0 1-8.257-3.423 11.65 11.65 0 0 1-3.423-8.257c0-3.222 1.309-6.142 3.423-8.257a11.65 11.65 0 0 1 8.257-3.423"/><g fill="none" stroke="#9f509e" stroke-width=".72"><path d="m67.04 107.38 19.08-19.06M69.4 109.78l19.08-19.06M71.78 112.18 90.84 93.1M74.14 114.56 93.2 95.5M76.5 116.96 95.56 97.9M78.86 119.36l19.06-19.08M86.04 119.28 66.96 100.2M88.44 116.92 69.36 97.84M90.82 114.56 71.76 95.48M93.22 112.18 74.14 93.12M95.62 109.82 76.54 90.76M98 107.46 78.94 88.4"/></g><path fill="none" stroke="#5e154d" stroke-linecap="round" stroke-linejoin="round" stroke-width=".96" d="M82.02 92.12c3.222 0 6.142 1.309 8.257 3.423A11.65 11.65 0 0 1 93.7 103.8c0 3.222-1.309 6.142-3.423 8.257a11.65 11.65 0 0 1-8.257 3.423 11.65 11.65 0 0 1-8.257-3.423 11.65 11.65 0 0 1-3.423-8.257c0-3.222 1.309-6.142 3.423-8.257a11.65 11.65 0 0 1 8.257-3.423"/><path fill="#eac5dd" stroke="#eac5dd" stroke-width=".5" d="M5.56 81.86h28.88v4.5H5.56z"/><path fill="#eac5dd" stroke="#ec2777" stroke-width=".5" d="M68.14 81.86h28.88v4.5H68.14z"/><path fill="none" stroke="#9f509e" stroke-width=".72" d="M68.14 81.92h28.88v4.5H68.14z"/><path fill="none" stroke="#9f509e" stroke-width=".5" d="M5.56 83.36h28.88M5.58 84.88h28.86M68.14 83.36h28.88M68.14 84.88h28.88"/><path fill="none" stroke="#9f509e" stroke-width=".72" d="M5.56 81.86h28.88v4.5H5.56z"/><path fill="#5e154d" stroke="#5e154d" stroke-linecap="round" stroke-linejoin="round" stroke-width=".96" d="M41.5 93.96h20.3v10.6H41.5z"/><path fill="#ffdb48" d="M39.06 81.92h25.3v9.66h-25.3z"/><path fill="#007c2c" d="M39.06 107.52h25.3v11.06h-25.3z"/><path fill="none" d="M39.06 91.58h25.3v15.96h-25.3z"/><path fill="#5e154d" stroke="#5e154d" stroke-linecap="round" stroke-linejoin="round" stroke-width=".72" d="M66.18 122.44H37.12l1.94-3.84h25.3z"/><path fill="#f05822" d="M39.06 81.92h25.3v9.66h-25.3z"/><path fill="none" stroke="#5e154d" stroke-linecap="round" stroke-linejoin="round" stroke-width=".72" d="M39.06 81.92v36.68h25.3V81.92z"/><path fill="#ffdb48" stroke="#5e154d" stroke-linecap="round" stroke-linejoin="round" stroke-width=".72" d="M41.5 84.68h20.3v4.5H41.5z"/><path fill="none" stroke="#5e154d" stroke-linecap="round" stroke-linejoin="round" stroke-width=".5" d="M43.84 86v1.86M49.08 86v1.86M54.32 86v1.86M59.56 86v1.86M41.5 86.92h20.3"/><g stroke="#5e154d" stroke-width=".72"><path fill="#fff" d="M41.5 109.98h20.3V113H41.5z"/><path fill="#ffdb48" d="M41.5 113h20.3v3.02H41.5z"/><path fill="none" d="M46.66 109.96V113M56.62 109.96V113M51.64 109.96V113"/></g><path fill="none" stroke="#fff" stroke-linecap="round" stroke-linejoin="round" stroke-width=".72" d="M46.42 102.04a2.78 2.78 0 1 1 0-5.56 2.78 2.78 0 0 1 0 5.56M51 99.26h1.28zM56.88 96.48c.767 0 1.462.312 1.965.815s.815 1.198.815 1.965-.312 1.462-.815 1.965a2.77 2.77 0 0 1-1.965.815 2.77 2.77 0 0 1-1.965-.815 2.77 2.77 0 0 1-.815-1.965c0-.767.312-1.462.815-1.965a2.77 2.77 0 0 1 1.965-.815"/><path fill="#fff" stroke="#fff" stroke-linecap="round" stroke-linejoin="round" stroke-width=".5" d="M46.42 97.26c.552 0 1.052.224 1.414.586s.586.862.586 1.414-.224 1.052-.586 1.414a2 2 0 0 1-1.414.586 2 2 0 0 1-1.414-.586 2 2 0 0 1-.586-1.414c0-.552.224-1.052.586-1.414a2 2 0 0 1 1.414-.586M56.88 97.26c.552 0 1.052.224 1.414.586s.586.862.586 1.414-.224 1.052-.586 1.414a2 2 0 0 1-1.414.586 2 2 0 0 1-1.414-.586 2 2 0 0 1-.586-1.414c0-.552.224-1.052.586-1.414a2 2 0 0 1 1.414-.586"/><g fill="none" stroke="#fff" stroke-width=".96"><path d="M98.98 104.74v2.36M98.98 88.24v14.52"/></g><path fill="none" stroke="#5e154d" stroke-linecap="round" stroke-linejoin="round" stroke-width=".96" d="M97.8 64.38H4.2a3.3 3.3 0 0 0-3.2 3.3v51.46a3.3 3.3 0 0 0 3.3 3.3h93.5a3.3 3.3 0 0 0 3.3-3.3V67.68a3.3 3.3 0 0 0-3.3-3.3"/><g fill="#5e154d" stroke="#5e154d" stroke-width=".5"><path d="M77.74 24.78 75 14.24M85.58 22.74 82.84 12.2M74.932 13.949l7.839-2.042.504 1.935-7.839 2.042zM85.493 22.703c.005-.552.234-1.05.599-1.409a2 2 0 0 1 1.42-.573c.551.006 1.05.234 1.408.6.358.365.578.867.572 1.42a2 2 0 0 1-.599 1.408 2 2 0 0 1-1.42.572 2 2 0 0 1-1.408-.599 2 2 0 0 1-.572-1.42ZM77.658 24.756c.005-.553.234-1.05.599-1.409a2 2 0 0 1 1.42-.573c.551.006 1.05.234 1.408.6.358.365.578.867.573 1.42a2 2 0 0 1-.6 1.408 2 2 0 0 1-1.42.572 2 2 0 0 1-1.408-.6 2 2 0 0 1-.572-1.418Z"/></g><g fill="#5e154d" stroke="#5e154d" stroke-width=".5"><path d="M100.787 11.992c.312-.454.78-.74 1.283-.833a1.995 1.995 0 0 1 2.332 1.6 1.994 1.994 0 0 1-1.6 2.33 2 2 0 0 1-1.497-.316 2 2 0 0 1-.835-1.283 2 2 0 0 1 .317-1.498ZM100.72 12.36 104.78.78M99.44 6.2a5.02 5.02 0 0 1 2.78-4.52c.81-.411 1.671-.713 2.56-.9l-.66 1.86a6.9 6.9 0 0 0-2.56.76 6.2 6.2 0 0 0-2.12 2.8Z"/></g><g fill="#5e154d" stroke="#5e154d" stroke-width=".5"><path d="M61.08 34.624c.138-.534.48-.962.922-1.221a1.998 1.998 0 0 1 2.95 2.226 1.997 1.997 0 0 1-3.66.51 2 2 0 0 1-.213-1.515ZM61.12 34.98l-.14-12.26M57.8 29.64a5 5 0 0 1 1.08-5.2 10.7 10.7 0 0 1 2-1.72v2a7.1 7.1 0 0 0-2.16 1.6 6.26 6.26 0 0 0-.92 3.32Z"/></g></svg>