<svg xmlns="http://www.w3.org/2000/svg" width="217.775" height="125.901" viewBox="0 0 217.775 125.901"><g fill="none" stroke-linecap="none" stroke-linejoin="none" stroke-miterlimit="10" stroke-width="none" data-paper-data="{&quot;isPaintingLayer&quot;:true}" font-family="none" font-size="none" font-weight="none" style="mix-blend-mode:normal" text-anchor="none"><g fill="#fc9fe4" stroke="#fc9fe4" stroke-linecap="butt" stroke-linejoin="miter" stroke-width="1.2" data-paper-data="{&quot;index&quot;:null}"><path d="M217.15 108.058h-57.075a13.4 13.4 0 0 0-2.7-3.364h59.775zM136.6 108.058H56.125a14 14 0 0 0-2.725-3.364h85.9a14 14 0 0 0-2.7 3.364zM35.325 104.619a14.6 14.6 0 0 0-2.7 3.439H.6v-3.439z"/></g><path fill="#ea3681" d="M4.925.148h201.75c1.825 10.265 7.625 43.244 7.625 45.979v58.102h-56.925a13.46 13.46 0 0 0-18.075 0H53.4a13.46 13.46 0 0 0-18.075 0H.6V4.54a4.37 4.37 0 0 1 1.256-3.095A4.34 4.34 0 0 1 4.925.148" data-paper-data="{&quot;index&quot;:null}"/><g fill="#5e154d" stroke="#5e154d" stroke-linecap="butt" stroke-linejoin="miter" stroke-width="1.2" data-paper-data="{&quot;index&quot;:null}"><path d="M134.8 114.714H57.9a13.64 13.64 0 0 0-1.775-6.676H136.6a13.4 13.4 0 0 0-1.8 6.676zM217.15 110.372a4.36 4.36 0 0 1-4.325 4.342h-50.95a13.4 13.4 0 0 0-1.8-6.676h57.075zM32.625 108.038a13.67 13.67 0 0 0-1.8 6.751h-25.9C2.542 114.776.614 112.84.6 110.447v-2.409z"/></g><g data-paper-data="{&quot;index&quot;:null}"><path fill="#a170e0" d="m177.6 9.52 9.575 25.098h-28.55L149.05 9.52z"/><path fill="#c5a2fc" d="m179.05 9.52 9.575 25.098h-1.45L177.6 9.52zM151.05 9.52l9.725 25.098h-3.6l-9.6-25.098z"/><path fill="#a170e0" d="m147.575 9.52 9.6 25.098h-60.95L86.65 9.52zM182.25 9.52l9.575 25.098h-3.2L179.05 9.52z"/><path fill="#c5a2fc" d="m187.75 9.52 9.625 25.098h-5.55L182.25 9.52z"/><path fill="#a170e0" d="M198.425 9.52c2 0 1.8-.401 2.2 1.406s2.925 18.171 3.25 20.63c.325 2.46-.5 3.113-2.5 3.113h-4L187.75 9.571zM77.975 9.52l9.575 25.098H25.625L16.05 9.52z"/><path fill="#c5a2fc" d="m17.95 9.52 9.475 25.098H24.15L14.575 9.52z"/><path fill="#a170e0" d="M10.525 9.52h4.05l9.575 25.098H10.525z"/><path fill="#c5a2fc" d="m81.95 9.52 9.575 25.098H85.75L76.45 9.52zM86.65 9.52l9.575 25.098h-1.45l-9.6-25.098z"/><path fill="#a170e0" d="m85.175 9.52 9.6 25.098h-3.25L81.95 9.52z"/><path stroke="#5e154d" stroke-linecap="round" stroke-linejoin="round" stroke-width=".9" d="M200.525 10.876c.4 1.807 3.075 18.321 3.35 20.63s-.6 3.112-2.5 3.112H10.425V9.52H198.3c2.025 0 1.825-.451 2.225 1.356"/><path fill="#5e154d" stroke="#5e154d" stroke-linecap="round" stroke-linejoin="round" stroke-width=".725" d="M173.15 34.669h-3.475V9.47h3.475zM139.6 34.669h-3.475V9.47h3.475zM105.725 34.669h-3.475V9.47h3.475zM71.825 34.669H68.35V9.47h3.475zM37.925 34.669H34.45V9.47h3.475z"/></g><g data-paper-data="{&quot;index&quot;:null}"><path fill="#fde982" d="M153.504 109.659a7.17 7.17 0 0 1 2.096 5.075c0 1.98-.801 3.775-2.096 5.074a7.11 7.11 0 0 1-5.054 2.104 7.11 7.11 0 0 1-5.054-2.104 7.17 7.17 0 0 1-2.096-5.074c0-1.981.801-3.775 2.096-5.075a7.11 7.11 0 0 1 5.054-2.103c1.973 0 3.76.804 5.054 2.103"/><path fill="#5e154d" stroke="#5e154d" stroke-linecap="round" stroke-linejoin="round" stroke-width=".6" d="M148.35 104.619c5.771 0 10.45 4.697 10.45 10.491s-4.679 10.491-10.45 10.491-10.45-4.697-10.45-10.491 4.679-10.491 10.45-10.491m0 16.464a5.98 5.98 0 0 0 5.523-3.708 6.02 6.02 0 0 0-1.307-6.54 5.96 5.96 0 0 0-6.52-1.285 6 6 0 0 0-3.671 5.56c0 1.589.63 3.112 1.752 4.233a5.94 5.94 0 0 0 4.223 1.74"/><path fill="#fff" stroke="#a170e0" stroke-linecap="round" stroke-linejoin="round" stroke-width=".9" d="M150.453 112.999a2.98 2.98 0 0 1 .872 2.111 2.98 2.98 0 0 1-.872 2.111 2.96 2.96 0 0 1-2.103.876 2.96 2.96 0 0 1-2.103-.876 2.98 2.98 0 0 1-.872-2.111c0-.824.333-1.571.872-2.111a2.96 2.96 0 0 1 2.103-.876c.821 0 1.565.335 2.103.876"/></g><g data-paper-data="{&quot;index&quot;:null}"><path fill="#fde982" d="M49.429 109.659a7.17 7.17 0 0 1 2.096 5.075c0 1.98-.801 3.775-2.096 5.074a7.11 7.11 0 0 1-5.054 2.104 7.11 7.11 0 0 1-5.054-2.104 7.17 7.17 0 0 1-2.096-5.074c0-1.981.801-3.775 2.096-5.075a7.11 7.11 0 0 1 5.054-2.103c1.973 0 3.76.804 5.054 2.103"/><path fill="#5e154d" stroke="#5e154d" stroke-linecap="round" stroke-linejoin="round" stroke-width=".6" d="M44.375 104.619c5.765.028 10.418 4.737 10.4 10.524-.018 5.788-4.702 10.467-10.467 10.458-5.764-.009-10.433-4.703-10.433-10.491 0-2.791 1.108-5.467 3.078-7.436a10.43 10.43 0 0 1 7.422-3.055m0 16.464a5.97 5.97 0 0 0 5.54-3.691 6.01 6.01 0 0 0-1.29-6.548 5.96 5.96 0 0 0-6.523-1.296 6 6 0 0 0-3.677 5.562c0 3.299 2.664 5.973 5.95 5.973"/><path fill="#fff" stroke="#a170e0" stroke-linecap="round" stroke-linejoin="round" stroke-width=".9" d="M46.478 112.999a2.98 2.98 0 0 1 .872 2.111 2.98 2.98 0 0 1-.872 2.111 2.96 2.96 0 0 1-2.103.876 2.96 2.96 0 0 1-2.103-.876 2.98 2.98 0 0 1-.872-2.111c0-.824.333-1.571.872-2.111a2.96 2.96 0 0 1 2.103-.876c.821 0 1.565.335 2.103.876"/></g><g data-paper-data="{&quot;index&quot;:null}"><path fill="#fde982" stroke="#5e154d" stroke-linecap="butt" stroke-linejoin="round" stroke-width=".9" d="M167.4 62.888h37.5v51.853h-37.5V62.888"/><path fill="#8b49d4" stroke="#fff" stroke-linecap="round" stroke-linejoin="round" stroke-width=".9" d="M188.175 67.13H200.8v37.496h-12.625z"/><path fill="#b388ed" d="m179.025 67.13 5 13.251v3.966l-6.55-17.217z"/><path fill="#8b49d4" d="M184.075 67.13v13.327l-5-13.252zM172.85 67.13l11.225 29.44v8.056h-12.5V67.13z"/><path fill="#b388ed" d="m176.075 67.13 8 21.007v8.433L172.85 67.13z"/><path fill="#8b49d4" d="m177.525 67.13 6.55 17.217v3.79l-8-21.007z"/><path stroke="#fff" stroke-linecap="round" stroke-linejoin="round" stroke-width=".9" d="M184.075 67.13v37.496h-12.5V67.13z"/></g><g data-paper-data="{&quot;index&quot;:null}"><path fill="#fde982" stroke="#5e154d" stroke-linecap="butt" stroke-linejoin="round" stroke-width=".9" d="M63.075 62.888h37.5v51.853h-37.5V62.888"/><path fill="#8b49d4" stroke="#fff" stroke-linecap="round" stroke-linejoin="round" stroke-width=".9" d="M67.1 67.13h12.5v37.496H67.1z"/><path fill="#b388ed" d="m88.875 67.13 7.5 19.601v8.433L85.7 67.13z"/><path fill="#8b49d4" d="m85.775 67.13 10.6 28.034v9.462h-12.5V67.13zM96.375 67.13v19.601l-7.5-19.601z"/><path stroke="#fff" stroke-linecap="round" stroke-linejoin="round" stroke-width=".9" d="M83.875 67.13h12.5v37.496h-12.5z"/></g><g stroke-linecap="butt" stroke-linejoin="miter" data-paper-data="{&quot;index&quot;:null}"><path fill="#8b49d4" d="M207.65 62.888h4.3v19.627l-4.3-11.32zM211.95 88.262v4.744a4.25 4.25 0 0 1-1.19 3.157 4.22 4.22 0 0 1-3.11 1.285v-20.53z"/><path fill="#b388ed" d="m207.65 71.17 4.3 11.32v5.772l-4.3-11.344z"/><path stroke="#5e154d" stroke-width=".9" d="M207.65 62.888h4.3v30.118a4.25 4.25 0 0 1-1.19 3.157 4.22 4.22 0 0 1-3.11 1.285z"/></g><g fill="#fff" stroke="#fff" stroke-linecap="butt" stroke-linejoin="miter" stroke-width=".5" data-paper-data="{&quot;index&quot;:null,&quot;origPos&quot;:null}"><path d="M53.08 46.136a14.3 14.3 0 0 0-3.225.301c-1.275.301-1.65 1.355-.225 2.033a5.44 5.44 0 0 1 3.525 4.016 3.14 3.14 0 0 1-2.225 3.589c-1.992.45-4.046.561-6.075.326v-3.037c1.272.12 2.553.12 3.825 0 .875-.176.95-1.28 0-1.656-1.9-.753-4.675-2.36-3.425-5.622.85-2.184 3.725-3.439 7.75-3.062zM174.63 47.265a12 12 0 0 0-2.5.226c-.95.226-1.225 1.029-.15 1.531a4.06 4.06 0 0 1 2.65 3.062 2.335 2.335 0 0 1-1.675 2.711 13.6 13.6 0 0 1-4.6.251v-2.309c.964.094 1.936.094 2.9 0 .675-.126.725-.954 0-1.255-1.35-.552-3.45-1.732-2.5-4.242.65-1.656 2.825-2.635 5.875-2.334zM63.73 44.73v2.51a5.99 5.99 0 0 0-4.2 1.632c-1.125 1.28-.675 3.061.7 3.262a5.7 5.7 0 0 0 3.325-.502v2.51a6.9 6.9 0 0 1-5 .803 3.8 3.8 0 0 1-2.42-1.696 3.83 3.83 0 0 1-.48-2.922 6.17 6.17 0 0 1 3.45-4.643 9.16 9.16 0 0 1 4.625-.954zM103.455 44.73v2.51a6 6 0 0 0-4.2 1.632c-1.125 1.28-.675 3.061.7 3.262a5.7 5.7 0 0 0 3.325-.502v2.51a6.9 6.9 0 0 1-5 .803 3.8 3.8 0 0 1-2.371-1.718 3.83 3.83 0 0 1-.454-2.9 6.17 6.17 0 0 1 3.45-4.643 9.15 9.15 0 0 1 4.55-.954zM70.305 44.755l-.35 3.389a13.4 13.4 0 0 1 4.575-1.958v2.51a9.7 9.7 0 0 0-4.35 2.284 12 12 0 0 0-1.125 4.367h-2.7l1.4-10.642zM162.105 44.755l-.35 3.389a13.4 13.4 0 0 1 4.6-1.958v2.51a10 10 0 0 0-4.375 2.284 12 12 0 0 0-1.125 4.367h-2.7l1.35-10.642zM85.805 54.243l-1.975 1.003a8.5 8.5 0 0 1-1.125-1.581 3.44 3.44 0 0 1-3.775 1.531c-3.075-.452-3.35-5.848-1.25-8.207a6.81 6.81 0 0 1 6.2-2.284 29.5 29.5 0 0 0 .15 4.543c.283 1.76.884 3.453 1.775 4.995zm-3.85-3.288a13 13 0 0 1-.375-3.012 2.75 2.75 0 0 0-2.3 1.506c-.475.928-.325 2.334.675 2.51 1.05.15 2-1.004 2-1.004zM86.53 44.705h7.925v2.51H86.53zM126.305 41.568h10.025v2.51h-10.025z"/><path d="M92.03 41.493s-1.95 10.34-1 10.917c.95.578 2.875-.326 2.875-.326v2.359a7.15 7.15 0 0 1-3.1.603 2.5 2.5 0 0 1-1.866-.68 2.52 2.52 0 0 1-.784-1.83 64 64 0 0 1 1.375-10.968zM106.38 41.568h2.1l-1.05 13.578h-2.1l1.05-13.578M130.08 44.053h2.35l-1.025 11.193h-2.375l1.05-11.193"/><path d="M108.155 45.308a2.9 2.9 0 0 1 1.95-.527c1.6 0 2.9 1.129 3.1 3.513a12 12 0 0 0 2.05 5.522l-2.25 1.28a10.3 10.3 0 0 1-1.5-2.962c-.75-2.309-.275-3.564-1.4-4.216s-2.15.376-2.15.376zM144.564 46.708a4.36 4.36 0 0 1 .59 3.594 5.235 5.235 0 0 1-5 5.02c-2.35 0-3.95-2.134-3.524-5.472a5.336 5.336 0 0 1 4.825-5.019 4.32 4.32 0 0 1 3.109 1.877zm-1.886 1.543a2.12 2.12 0 0 0-1.548-.91 2.504 2.504 0 0 0-2.375 2.509c-.225 1.632.575 2.686 1.725 2.686 1.38 0 2.5-1.124 2.5-2.51a2.14 2.14 0 0 0-.302-1.775zM148.155 45.308h2.1s-1.05 5.371 0 6.776c1.05 1.406 2.625.301 3.55-.552v2.51a3.5 3.5 0 0 1-2.875 1.23c-2.05 0-3.2-1.908-3.2-4.669.015-1.773.158-3.543.425-5.295z"/><path d="M155.905 45.308a39.4 39.4 0 0 0-.6 5.797c.04 1.432.242 2.855.6 4.242h-1.925a9.4 9.4 0 0 1-.675-3.966 52 52 0 0 1 .7-6.073z"/></g><g data-paper-data="{&quot;index&quot;:null}"><path fill="#b388ed" d="m149.775 62.848 9.6 25.098h-3.65l-9.575-25.098z"/><path fill="#8b49d4" d="M161.875 62.848v25.098h-2.5l-9.6-25.098z"/><path fill="#b388ed" d="m143.175 62.848 9.575 25.098h-1.5l-9.575-25.098z"/><path fill="#8b49d4" d="m146.15 62.848 9.575 25.098h-2.975l-9.575-25.098zM105.925 62.848h35.75l9.575 25.098h-45.325z"/><path stroke="#5e154d" stroke-linecap="round" stroke-linejoin="round" stroke-width=".9" d="M105.925 62.848h55.95v25.098h-55.95z"/><path fill="#5e154d" stroke="#5e154d" stroke-linecap="round" stroke-linejoin="round" stroke-width=".725" d="M135.45 88.021h-3.475V62.823h3.475z"/></g><g data-paper-data="{&quot;index&quot;:null}"><path fill="#b388ed" d="m34.9 62.848 9.575 25.098H39.95l-9.575-25.098z"/><path fill="#8b49d4" d="m30.375 62.848 9.575 25.098h-3.1l-9.575-25.098z"/><path fill="#b388ed" d="m27.275 62.848 9.575 25.098H34.8l-9.575-25.098z"/><path fill="#8b49d4" d="M57.875 62.848v25.098h-13.4L34.9 62.848zM11.375 62.848H25.25l9.55 25.098H11.375z"/><path stroke="#5e154d" stroke-linecap="round" stroke-linejoin="round" stroke-width=".9" d="M11.625 62.848H58.15v25.098H11.625z"/><path fill="#5e154d" stroke="#5e154d" stroke-linecap="round" stroke-linejoin="round" stroke-width=".725" d="M49.775 88.021H46.3V62.823h3.475zM23.5 88.021h-3.475V62.823H23.5z"/></g><g stroke="#d81d7b" stroke-linecap="butt" stroke-linejoin="miter" stroke-width="1.2" data-paper-data="{&quot;index&quot;:null}"><path d="m207.5 38.541-1.4 3.037M195.025 49.208l1.425-3.238M186.1 41.678l2.525-.878M161.7 59.397l3.625-.2M175.6 40.223l2.675 2.083M152.975 41.954l1.75-2.259M141.2 40.775l-2.725-1.582M121.9 39.771l-3.35-.151M98.45 53.374l-1.9 2.485M123.175 59.623l3.5-.577M101.375 44.966l-2.95-1.054M73.2 57.666l3.2 1.129M39.65 57.866l-2.8-2.183M78.4 39.018l-2.7 2.384M59.225 40.122l4.375.201M41.025 40.223l-2.85 1.982M22.45 43.611l-1.8-2.033M11.35 45.97l-2.85-.527M10.675 55.783 9.15 58.444M21.675 57.44l-.55-3.313M33.3 48.781h-2.925M184 49.961l.25 3.137M145.3 56.536l2.175 2.887M196.725 56.285l-3.05 1.958M208.15 53.148l-3.325-1.029"/></g><g data-paper-data="{&quot;index&quot;:null}"><path fill="#c1176c" d="M206.675.148a3.13 3.13 0 0 1 3.375 2.811c.475 2.033 5 27.608 6.025 34.886.125.728.225 1.28.275 1.606.512 3.322.779 6.678.8 10.04v54.713h-2.85V46.178c0-2.736-5.8-35.715-7.625-46.03"/><path stroke="#fff" stroke-linecap="round" stroke-linejoin="round" stroke-width="1.5" d="M3.475 11.869V7.476c0-3.087 1.125-4.065 4.2-4.065h3.7M14.15 3.411h2.5"/><path stroke="#f48cc5" stroke-linecap="round" stroke-linejoin="round" stroke-width="1.5" d="M188.175 3.411h-50.3M135 3.411h-4.725"/></g><path stroke="#5e154d" stroke-linecap="round" stroke-linejoin="round" stroke-width="1.2" d="M4.925.6h201.45c2.375 0 3.25.853 3.725 2.811s5.775 33.204 6.275 36.492c.511 3.322.779 6.678.8 10.039v60.487a4.36 4.36 0 0 1-4.325 4.342h-50.975c0-7.499-6.055-13.578-13.525-13.578a13.5 13.5 0 0 0-9.05 3.463 14 14 0 0 0-2.7 3.413 13.4 13.4 0 0 0-1.8 6.752H57.9a13.64 13.64 0 0 0-1.775-6.752 14.1 14.1 0 0 0-2.725-3.363 13.51 13.51 0 0 0-18.075 0 14.6 14.6 0 0 0-2.7 3.363 13.7 13.7 0 0 0-1.8 6.752h-25.9A4.36 4.36 0 0 1 .6 110.479V5.067a4.38 4.38 0 0 1 1.229-3.144A4.34 4.34 0 0 1 4.925.6" data-paper-data="{&quot;index&quot;:null}"/></g></svg>