<svg xmlns="http://www.w3.org/2000/svg" xml:space="preserve" width="69.039" height="73.882" viewBox="0.488 1.058 69.039 73.882"><title>Slice 1</title><g fill-rule="evenodd"><path fill="#ffff4f" fill-rule="nonzero" d="M64.58 36.289c-.695-9.944-2.92-25.484-4.204-34.01-4.744.355-15.686 1.049-26.643 1.049-11.653 0-21.111-.617-24.45-.863-1.282 8.556-3.477 23.957-4.172 33.824a356 356 0 0 0 .263 36.815c5.502.616 18.437 1.85 26.952.817 0 0 .897-35.289 2.828-35.289 1.299 0 1.824 8.017 2.334 15.417.464 6.876.634 19.903.634 19.903 8.747.634 17.535.428 26.242-.617a359 359 0 0 0 .216-37.046"/><path fill="#f4ee2c" fill-rule="nonzero" d="M5.11 36.289C5.807 26.422 8 11.02 9.285 2.465l-1.299-.108a12.3 12.3 0 0 0-2.92 6.922 259 259 0 0 0-3.091 34.687c0 15.186.695 28.83.695 28.83l2.627.308a356 356 0 0 1-.185-36.815"/><path fill="#fff" fill-rule="nonzero" d="M67.733 43.442a232 232 0 0 0-3.941-34.98 3164 3164 0 0 1-.974-6.367l-2.442.185c1.283 8.525 3.509 24.065 4.204 34.009.543 12.33.45 24.68-.278 37 1.684-.2 2.673-.355 2.673-.355s1.206-15.725.758-29.492"/><path fill="none" stroke="#db20a5" stroke-linecap="round" stroke-linejoin="round" stroke-width="1.24" d="M7.986 2.357a12.3 12.3 0 0 0-2.921 6.922 259 259 0 0 0-3.091 34.687c0 15.186.695 28.83.695 28.83s18.546 2.466 29.58 1.125c0 0 .896-35.289 2.828-35.289 1.299 0 1.824 8.017 2.334 15.417.463 6.876.633 19.903.633 19.903 9.625.681 19.295.366 28.854-.94 0 0 1.206-15.772.758-29.54a232 232 0 0 0-3.942-34.98l-.896-6.397S48.291 3.328 33.733 3.328 7.986 2.357 7.986 2.357"/><path fill="#fff" fill-rule="nonzero" stroke="#db20a5" stroke-linecap="round" stroke-linejoin="round" stroke-width=".992" d="M35.417 38.632V11.853"/><g stroke="#db20a5" stroke-linecap="round" stroke-linejoin="round"><path fill="#f4ee2c" fill-rule="nonzero" stroke-width="1.24" d="M32.45 3.313v8.479s12.75-.2 19.797-.617c4.18-.233 8.345-.702 12.472-1.403l-1.252-7.708s-5.038.586-14.882 1.048a158 158 0 0 1-16.135.2"/><path fill="#f4ee2c" fill-rule="nonzero" stroke-width="1.24" d="m5.173 2.187-.881 7.076s17.479 1.742 28.158 1.742V3.297s-6.707 0-14.08-.34C11 2.62 5.174 2.188 5.174 2.188"/><path fill="#ffff4f" fill-rule="nonzero" stroke-width=".992" d="M53.314 2.033s.401 5.642.71 9.759l3.4-.463s-.231-5.026-.71-9.589zM16.006 2.033s-.417 5.642-.726 9.759l-3.384-.463s.231-5.087.695-9.65z"/><ellipse cx="33.629" cy="6.305" fill="none" stroke-width=".822" rx="1.545" ry="1.542" transform="translate(4.09 1)"/></g><path fill="#ffff4f" fill-rule="nonzero" stroke="#db20a5" stroke-linecap="round" stroke-linejoin="round" stroke-width=".992" d="m35.417 11.792 4.9-.17s.633 9.99-1.083 13.551a6.36 6.36 0 0 1-3.817 3.577z"/><path fill="#ffff4f" fill-rule="nonzero" stroke="#db20a5" stroke-width=".992" d="M57.966 47.08s.139 10.792 0 12.334c3.58.142 7.163-.174 10.663-.94V45.122z"/><path fill="#ffff4f" fill-rule="nonzero" stroke="#db20a5" stroke-width=".992" d="M56.636 38.17s.588 5.565.696 8.74l7.727 1.959 3.848-4.301a74 74 0 0 0-.448-7.817z"/><path fill="none" stroke="#fff" stroke-width="1.24" d="M66.326 38.786s.201 3.191.387 5.411M66.898 49.316s.155 4.209 0 7.708"/><path fill="#ffff4f" fill-rule="nonzero" stroke="#db20a5" stroke-width=".992" d="M12.035 47.08s-.14 10.792 0 12.334a42 42 0 0 1-10.664-.94V45.122z"/><path fill="#ffff4f" fill-rule="nonzero" stroke="#db20a5" stroke-width=".992" d="M12.962 37.815s-.17 5.92-.278 9.096l-7.728 1.958-3.848-4.301c.012-2.612.162-5.221.448-7.817z"/><path fill="none" stroke="#f4ee2c" stroke-width="1.24" d="M3.535 38.833S3.426 42.1 3.24 44.32M3.07 49.316s-.154 4.209 0 7.708"/></g></svg>