<svg xmlns="http://www.w3.org/2000/svg" xml:space="preserve" viewBox="0 0 512 512"><circle cx="255.994" cy="228.695" r="190.04" style="fill:#f2f2f2"/><path d="M256 427.007c-109.352 0-198.316-88.964-198.316-198.316S146.648 30.374 256 30.374s198.316 88.964 198.316 198.316C454.315 338.043 365.351 427.007 256 427.007m0-380.081c-100.225 0-181.764 81.539-181.764 181.764S155.775 410.455 256 410.455s181.764-81.539 181.764-181.764C437.763 128.465 356.225 46.926 256 46.926" style="fill:#666"/><path d="M256 338.096c-60.327 0-109.405-49.079-109.405-109.405S195.674 119.286 256 119.286s109.405 49.079 109.405 109.405S316.327 338.096 256 338.096m0-202.258c-51.199 0-92.853 41.654-92.853 92.853s41.654 92.853 92.853 92.853 92.853-41.654 92.853-92.853-41.654-92.853-92.853-92.853" style="fill:#666"/><path d="M256 274.258c-25.126 0-45.567-20.441-45.567-45.566s20.441-45.567 45.567-45.567 45.567 20.441 45.567 45.567-20.442 45.566-45.567 45.566m0-74.582c-15.998 0-29.015 13.015-29.015 29.015 0 15.998 13.017 29.014 29.015 29.014s29.015-13.015 29.015-29.014-13.017-29.015-29.015-29.015" style="fill:#666"/><path d="M256 512a8.275 8.275 0 0 1-8.276-8.276V8.276C247.724 3.705 251.428 0 256 0s8.276 3.705 8.276 8.276v495.448A8.276 8.276 0 0 1 256 512" style="fill:#333"/><path d="M476.415 236.967H35.585c-4.572 0-8.276-3.705-8.276-8.276s3.704-8.276 8.276-8.276h440.829c4.572 0 8.276 3.705 8.276 8.276s-3.705 8.276-8.275 8.276" style="fill:#333"/></svg>