<svg xmlns="http://www.w3.org/2000/svg" width="800" height="800" viewBox="0 0 97.095 97.095"><defs><clipPath id="a"><circle cx="48.548" cy="48.548" r="48.548" fill="none" data-name="Ellipse 42" transform="translate(125.612 414.812)"/></clipPath></defs><g data-name="Group 53" transform="translate(-125.612 -414.812)"><circle cx="48.548" cy="48.548" r="48.548" fill="#4462ab" data-name="Ellipse 41" transform="translate(125.612 414.812)"/><g data-name="Group 52"><g clip-path="url(#a)" data-name="Group 51"><path d="M123.372 437.768s69.518 4.883 102.923 0-3.588 11.19-3.588 11.19-42.49-2.035-97.1 5.9-2.235-17.09-2.235-17.09" data-name="Path 46" opacity=".07" style="mix-blend-mode:darken;isolation:isolate"/><path d="M119.04 477.58s68.308 13.81 102.064 13.277-5 10.634-5 10.634-41.873-7.5-97.045-6.674-.019-17.237-.019-17.237" data-name="Path 47" opacity=".07" style="mix-blend-mode:darken;isolation:isolate"/><path fill="#fff" d="M125.282 403.668s68.259 16.269 102.435 10.019-5.7 21.426-5.7 21.426-41.9-8.1-97.757 2.029 1.022-33.474 1.022-33.474" data-name="Path 48" opacity=".1"/><path fill="#fff" d="M215.971 487.259s-68.259-16.269-102.434-10.019 5.7-21.425 5.7-21.425 41.9 8.1 97.758-2.03-1.024 33.474-1.024 33.474" data-name="Path 49" opacity=".1"/><path fill="#fff" d="M213.387 534.777s-66.531-22.306-101.129-19.137 7.594-20.83 7.594-20.83 41.01 11.809 97.547 6.719-4.012 33.248-4.012 33.248" data-name="Path 50" opacity=".1"/></g></g><path d="M174.127 511.907a48.391 48.391 0 0 0 32.446-84.294 48.2 48.2 0 0 1 12.49 32.445c0 26.727-25.187 51.349-51.913 51.349" data-name="Path 51" opacity=".2" style="mix-blend-mode:darken;isolation:isolate"/></g><path fill="none" stroke="#1c142a" stroke-linecap="round" stroke-miterlimit="10" stroke-width="1.806" d="M35.388 53.839s-1.065 1.486-3.881 1.486c-3.034 0-3.88-1.486-3.88-1.486" data-name="Path 52"/><path fill="none" stroke="#1c142a" stroke-linecap="round" stroke-miterlimit="10" stroke-width="2.709" d="M58.436 75.683s-2.715 1.981-9.888 1.981c-7.732 0-9.889-1.981-9.889-1.981" data-name="Path 53"/><path fill="none" stroke="#1c142a" stroke-linecap="round" stroke-miterlimit="10" stroke-width="1.806" d="M68.644 54.131s-1.065 1.486-3.881 1.486c-3.034 0-3.88-1.486-3.88-1.486" data-name="Path 54"/></svg>