<svg xmlns="http://www.w3.org/2000/svg" width="118.711" height="132.924" viewBox="-0.467 -0.185 118.711 132.924"><path fill="#281446" d="m63.393 117.752 6.368.019-.004 1.304-6.368-.019zM67.166 132.035s1.282-4.062 1.119-6.686c-.073-1.194-.663-2.087-1.432-2.148-.932-.073-1.88.101-2.193 1.409-.517 2.133.883 7.628.883 7.628zM68.31 113.335l-3.845.139s-1.087-12.25 1.867-12.802c2.954-.553 1.978 12.663 1.978 12.663"/><path fill="#f01446" d="M67.569 124.533c.358-2.758.904-7.782 1.148-10.775l-4.448.036c.224 2.977.814 7.868 1.083 10.646z"/><path fill="#f04650" d="m63.769 112.929.077 1.491 5.151-.073q.096-.698.094-1.401z"/><path fill="#be0a3c" d="M65.124 115.374c3.125-1.348 3.93 1.532 4.032 2.949.13 1.84.757 3.7-2.356 4.679-1.599.504-2.824-1.426-3.023-3.379-.195-1.852.57-3.7 1.347-4.249"/><path fill="#281446" d="m51.078 117.751 6.367.02-.004 1.303-6.367-.019zM54.854 132.035s1.281-4.062 1.119-6.686c-.074-1.194-.664-2.087-1.433-2.148-.931-.073-1.879.101-2.193 1.409-.517 2.133.883 7.628.883 7.628zM55.997 113.335l-3.845.139s-1.221-13.448 1.628-13.631c2.848-.183 2.217 13.492 2.217 13.492"/><path fill="#f01446" d="M55.257 124.533c.358-2.758.903-7.782 1.147-10.775l-4.447.036c.223 2.977.813 7.868 1.082 10.646z"/><path fill="#f04650" d="m51.46 112.929.078 1.491 5.151-.073q.094-.698.093-1.401z"/><path fill="#be0a3c" d="M52.811 115.374c3.125-1.348 3.931 1.532 4.032 2.949.131 1.84.757 3.7-2.355 4.679-1.6.504-2.824-1.426-3.024-3.379-.195-1.852.57-3.7 1.347-4.249"/><path fill="#281446" d="M82.767 98.097s-2.905 1.551-2.702 3.371c.203 1.819 3.495.597 3.495.597.232-.106 11.328-5.967 11.365-6.219-.106-.406-1.502-2.002-1.599-2.367-.289-.171-10.47 4.443-10.559 4.618"/><path fill="#f04650" d="M108.67 81.517c-5.778 1.832-16.471 8.038-16.471 8.038l5.481 10.507c1.757-.406 3.873-1.027 5.643-1.494a75 75 0 0 0 7.76-2.332c1.31-.495 5.945-1.657 5.892-3.558-.074-2.725-7.032.898-7.524-.032s7.223-3.205 6.755-5.304c-.745-3.315-7.89.56-8.757-.204.069-1.246 4.842-1.977 5.859-3.334 2.458-3.306-2.77-2.88-4.638-2.287"/><path fill="#f01446" d="M103.909 78.512c-3.206-3.095-9.79 9.455-11.01 11.372l2.807 7.599c2.6-.203 5.001-.52 6.917-2.368 2.849-2.761 1.494-5.824-.191-8.74 1.823-1.82 3.666-5.747 1.477-7.863"/><path fill="#be0a3c" d="M93.403 88.491c1.388 2.384 2.258 4.935 3.41 7.437.85 1.848 3.178 5.064-.379 5.337-1.835-2.003-3.039-4.493-4.068-6.982-.932-2.267-2.975-5.63 1.037-5.792"/><path fill="#281446" d="M33.093 98.714c-.033-.187-3.906-1.336-6.677-3.058-3.064-1.905-5.078-4.399-5.583-4.675l-2.576 2.278c.07.057 4.069 3.92 7.097 5.751a15.2 15.2 0 0 0 6.103 2.226s3.048.406 3.255-1.218c.208-1.625-1.619-1.304-1.619-1.304"/><path fill="#f04650" d="M25.016 87.776c-3.483-3.785-12.691-16.181-14.933-16.628s-3.381.922-2.69 2.799a9.2 9.2 0 0 0 1.844 2.631c-.175-.182 2.567 1.491.76 1.483-1.806-.008-4.382-4.163-6.477-1.913.386 2.628 2.034 4.159 4.008 5.796.032.406-.114.577-.481.625-1.375-.881-4.134-3.509-5.981-3.066-3.255.78 2.226 6.263 2.226 6.263s7.466 8.306 12.04 9.829z"/><path fill="#f01446" d="M18.38 78.869c-1.144-1.832-1.323-6.177 1.078-6.685 2.881-.609 3.41 3.757 3.755 5.897.586 3.631 1.998 8.623-.915 11.373-1.139 1.068-2.592 3.147-4.012 3.756-1.579.679-2.641-1.068-3.662-2.355-1.668-2.068-2.324-4.297-1.693-6.905.794-3.403 2.816-3.558 5.449-5.081"/><path fill="#be0a3c" d="M24.345 85.814c1.184 1.345 2.307 2.031 1.334 3.948-.814 1.564-6.616 6.397-8.117 7.173-2.181 1.129-2.849.097-4.122-1.734q.312-.258.586-.557a144 144 0 0 1 5.163-4.764c1.449-1.267 3.369-3.452 5.156-4.066"/><path fill="#f04650" d="M97.529 16.248c-.509-5.186-.948-10.99-6.478-13.285-5.774-2.392-9.383.849-11.299 6.255-1.697 4.788-2.23 10.044-2.983 15.028-.354 2.351-1.729 13.26-4.85 15.222-2.58-1.023-1.839-14.934-2.104-18.48-.512-6.904.244-16.831-7.36-19.869-3.691-1.474-8.545-.877-11.8 1.418-3.504 2.457-3.809 7.538-3.907 11.478-.166 6.754 1.323 13.784 2.393 20.462.232 1.441 1.371 7.103-1.595 7.095-1.933 0-6.397-15.929-7.475-19.134-1.037-3.087-2.441-7.168-4.683-9.573-6.38-6.831-14.648.711-16.02 7.855-1.505 7.884 1.221 16.518 2.954 24.138 1.941 8.627 3.447 17.318 5.428 25.917 1.066 4.63 2.71 19.284 3.459 21.302l49.853 2.535c.968-2.267 1.143-5.252 1.656-7.644Q84.5 78.666 86.27 70.36c1.709-7.993 2.848-16.429 5.204-24.259 1.628-5.386 3.256-10.56 4.228-16.133.732-4.155 2.238-9.479 1.827-13.72"/><path fill="#f01446" d="M117.618 43.566c-.086-.654-.407-2.124-.314-2.246-2.742-11.664-14.624-5.625-19.486.748-2.604 3.411-7.023 7.603-11.296 8.618-4.724 1.121-10.054-.361-14.912.114-10.506 1.023-17.985 8.062-20.687 18.049-1.371 5.069-1.648 10.439-1.851 15.67-.102 2.644-.92 6.255-.525 8.826l33.186.032c6.852-6.312 13.599-12.538 20.052-19.252 4.004-4.167 7.402-8.882 10.661-13.646 3.157-4.622 5.932-11.222 5.172-16.913"/><path fill="#be0a3c" d="M87.519 89.673s-27.697-.195-35.07-.179l.11 18.464c11.971-.02 34.468-.967 34.468-.967z"/><path fill="#281446" d="M40.987 109.046c-3.605-.109-7.67.179-11.153-.848-.297-2.624-.814-19.646-.814-19.646s19.974.406 20.141.134c5.652-.033 16.195 0 17.354 7.4.537 3.436-.663 7.879-3.287 10.231-2.849 2.567-6.824 2.539-10.429 2.904-.004.02-7.882-.053-11.812-.175"/><path fill="#f01446" d="M51.444 106.256c-3.06-.122-6.104-.081-9.163-.162-2.804-.077-11.686-.207-14.396-.93-.232-1.848-.289-13.57-.289-13.57s20.93.341 21.061.158c4.398-.024 12.613 0 13.496 5.203.407 2.437-.52 5.548-2.559 7.205-2.23 1.808-5.31 1.792-8.113 2.031z"/></svg>