<svg xmlns="http://www.w3.org/2000/svg" width="143.856" height="129.409" viewBox="-0.477 -0.502 143.856 129.409"><path fill="#006482" d="M45.203 70.225 29.241 82.821s.368 2.868 3.809 4.393c3.501 1.562 20.365 3.1 36.908 2.397s23.773-6.091 23.773-6.091z"/><path fill="#281446" d="M77.308 86.815H46.064L42.059 70.44h39.255z"/><path fill="#dc785a" d="M37.921 89.119a26.5 26.5 0 0 1-1.362 6.454c-1.903 5.468-8.88 12.864-9.693 14.434 3.096 1.358 6.072 2.999 9.277 4.066 3.837-2.592 7.238-6.019 10.222-9.537 1.602-1.874 3.569-5.5 4.903-7.565.288-.447.753-1.154 1.201-1.949z"/><path fill="linen" d="M27.843 107.763s1.494-1.774 2.331-2.872 2.223-2.927 2.223-2.927l11.925 5.243a25 25 0 0 1-2.512 3.116c-1.041.97-2.839 2.444-2.839 2.444z"/><path fill="#00a0dc" d="m28.58 106.145-8.316 8.874 2.255 6.738 8.324 2.883c.569-.778-2.471-1.889-2.471-1.889l12.485-11.31z"/><path fill="#006482" d="M28.712 108.729a2.56 2.56 0 0 1 2.56 2.552 2.558 2.558 0 0 1-2.56 2.552 2.55 2.55 0 0 1-1.809-.748 2.54 2.54 0 0 1-.75-1.804c0-.704.286-1.342.75-1.804a2.55 2.55 0 0 1 1.809-.748"/><path fill="linen" d="M37.252 112.148q-.342.32-.701.619l2.588 1.05.316-.779z"/><path fill="#f0e6d2" d="M34.849 113.789a6 6 0 0 1-.333.312l-.352.311 2.948 1.198.316-.798z"/><path fill="linen" d="m35.57 117.376.244-.599-2.948-1.199c-.228.208-.457.4-.681.627l3.225 1.306z"/><path fill="#f0e6d2" d="m33.903 118.813.169-.139-3.137-1.27-.14.139-.521.496 3.101 1.258c.172-.164.348-.328.528-.484"/><path fill="linen" d="m28.472 119.912 3.004 1.218c.232-.204.453-.4.673-.631l-3.136-1.274c-.173.223-.365.455-.541.687"/><path fill="#281446" d="M23.593 121.681c3.204-3.734-3.313-6.654-3.313-6.654l-4.206 4.841 14.196 5.751.553-.979zM54.292 97.379s3.605-9.186 2.311-16.627l-19.751-4.58c-1.022 8.387-2.632 19.066-2.632 19.066z"/><path fill="#dc785a" d="M24.598 23.206c-2.167-12.757-.693-17.122-1.366-19.223-.881-2.711-2.367-1.541-3.204.424-.593 1.306-1.823 11.206-5.087 7.245-.977-1.199-1.406-3.128-1.53-4.533-.193-2.177.585-5.236-.934-7.018-3.072-.818-2.591 3.423-3.12 5.839-.284 1.298.048 8.487-3.561 8.152S4.206 4.267.929 4.543c-.492.044-1.906 17.532.273 27.956 2.856 13.663 10.014 21.443 14.54 24.93 12.91 9.92 23.425 11.701 25.948 12.344l3.974-21.542c-2.644-.352-8.091-2.672-13.567-7.908-4.907-4.697-6.461-11.087-7.499-17.117"/><path fill="#dc5050" d="m24.138 17.131.456-.28c-.06-1.457 1.302-6.961 3.662-6.541 2.054.367-.221 6.346-.533 7.588-.693 2.768-1.434 5.192-1.138 8.051s-.052 6.139-2.343 8.072-11.092 2.74-12.818-5.308c-1.698-7.932 4.743-15.232 12.714-11.582M110.174 75.712c1.518 4.837.26 11.782 3.477 13.364.801-.4 1.158-1.143 1.418-1.83.152-1.781.184-3.247-.321-4.956.077-.12-.052-1.973 1.851-1.945s4.671-.144 6.617-4.062c1.787-3.594 2.003-7.748-.524-11.142-2.224-2.976-5.768-4.865-9.39-3.419-2.779 1.106-4.746 2.772-5.844 5.216-1.518 3.383 1.202 3.942 2.716 8.774"/><path fill="#dc785a" d="M142.76 82.57c-1.282 1.621-4.771-8.104-9.261-5.1-2.992 1.996 1.157 5.463 2.079 7.791.645 1.63 2.295 4.018.633 5.592-2.917-.34-7.034-10.053-10.415-8.847s.969 7.297 1.017 9.254c.125 5.012-6.525-5.435-6.893-6.126-3.301-6.207-14.232-16.862-21.703-18.268-7.47-1.406-16.266 2.796-16.266 2.796l-6.686-22.11c4.082-.1 17.861-6.514 40.529 3.722 19.167 8.659 28.247 29.67 26.966 31.296M74.564 91.723a26.5 26.5 0 0 1 1.174 6.49c.3 5.779-3.373 15.249-3.533 17.01 3.381.096 6.757.499 10.134.284 2.576-3.843 4.43-8.292 5.868-12.669.765-2.336 1.23-6.438 1.687-8.85.096-.523.26-1.35.4-2.265z"/><path fill="linen" d="M72.265 112.775s.717-2.205 1.074-3.539c.356-1.334.957-3.546.957-3.546l13.026.399a25 25 0 0 1-1.149 3.83c-.597 1.29-1.711 3.327-1.711 3.327z"/><path fill="#00a0dc" d="m72.337 111.002-4.354 11.358 4.635 5.396 8.78-.444c.232-.934-3.004-.826-3.004-.826l7.33-15.177z"/><path fill="#006482" d="M74.4 113.158c.706 0 1.346.286 1.809.748a2.54 2.54 0 0 1 0 3.608 2.55 2.55 0 0 1-1.809.748 2.55 2.55 0 0 1-1.809-.748 2.54 2.54 0 0 1 0-3.608 2.55 2.55 0 0 1 1.809-.748"/><path fill="linen" d="M82.227 113.314c-.128.283-.268.559-.401.835h2.804l.401-.835z"/><path fill="#f0e6d2" d="M81.045 115.722q-.085.212-.188.4c-.068.123-.14.283-.212.423h3.184v-.839z"/><path fill="linen" d="M83.052 118.765v-.647h-3.18c-.136.28-.265.56-.401.839h3.485a.7.7 0 0 0 .096-.192"/><path fill="#f0e6d2" d="M82.055 120.738q.047-.095.1-.191H78.77c-.028.06-.052.12-.08.183q-.14.328-.292.655h3.344c.1-.223.201-.435.313-.647"/><path fill="linen" d="M77.436 123.794h3.245c.132-.276.26-.555.4-.835h-3.384a7 7 0 0 0-.261.835"/><path fill="#281446" d="M73.583 127.264c1.542-4.652-5.58-4.92-5.58-4.92l-2.071 6.063h15.322l.144-1.111zM93.214 95.601s-.116-12.241-4.133-18.659l-21.37.028a8383 8383 0 0 0 5.207 18.991z"/><path fill="#dc785a" d="m73.246 46.897-1.678 10.975-27.386.052 3.084-10.752z"/><path fill="#006482" d="m75.994 46.757 3.97-1.581 10.322 22.796-5.099 4.206zM45.444 46.757l-4.699-1.426-8.732 22.797 3.989 4.321z"/><path fill="#00a0dc" d="M93.731 83.52 77.124 44.744l-6.277.168s.989 9.266-10.711 9.298c-8.384.024-9.697-9.13-9.697-9.13l-7.038-.599-14.16 38.34z"/><path fill="#dc5050" d="M68.496 35.77c-.12-.192.569-5.232 1.334-6.721.677-1.318 2.651-2.668 4.049-1.858 1.731 1.011 1.174 3.515.401 4.869-1.13 2.001-3.625 3.059-5.784 3.71"/><path fill="#dc785a" d="M50.515 35.77c.124-.192-.569-5.232-1.334-6.721-.677-1.318-2.652-2.668-4.05-1.858-1.73 1.011-1.174 3.515-.4 4.869 1.145 2.001 3.641 3.059 5.784 3.71"/><path fill="#ffc800" d="M64.174 16.388c2.555 1.67 7.47-9.585 8.183-11.182-2.259-2.844-5.491-3.475-8.984-2.844a22.8 22.8 0 0 0-.313 7.408c.229 2.137.289 4.629 1.114 6.618"/><path fill="#006482" d="m60.392 18.337 6.638 2.309s1.798-3.499-1.887-4.857-4.751 2.548-4.751 2.548"/><path fill="#ffc800" d="M51.2 18.481c-1.603 2.592-10.848-5.531-12.157-6.65.833-3.53 3.488-5.467 6.921-6.39a22.7 22.7 0 0 1 3.437 6.578c.689 2.033 1.702 4.313 1.799 6.462"/><path fill="#006482" d="m55.454 18.649-5.031 4.896s-3.117-2.396-.353-5.192 5.384.296 5.384.296"/><path fill="#ffc800" d="m72.293 22.97-23.505-.056s.184-6.098 12.317-6.023c9.542.076 11.188 6.079 11.188 6.079"/><path fill="#dc785a" d="M49.629 25.246c-.172.34-.268 3.954-.44 4.298-.048.95-.469 1.821.24 4.145a34.6 34.6 0 0 0 2.44 5.396c1.049 1.474 2.691 3.103 4.406 3.778 3.316 1.318 7.53.959 10.318-1.006 3.325-2.345 4.458-6.39 4.991-10.316.244-1.809 1.202-4.625.917-6.442z"/><path fill="#dc5050" d="M67.891 29.987c-.076 1.793-4.442 2.564-4.322-.307s-.04-4.769 1.979-4.793c2.018-.024 2.415 3.307 2.343 5.1"/><path fill="#ffc800" d="m52.445 26.544-3.404 5.001-.822-4.905z"/><path fill="#00a0dc" d="M73.423 28.525c.4-1.685.801-5.092-.285-6.238H48.552c-1.126.899-1.354 4.916-1.254 6.522z"/><path d="M67.146 33.558s-.617 1.198-2.94 1.11-2.776-1.07-2.776-1.07zM70.439 30.319c-.685.95-1.422-.623-.657-1.298.5.06.673.395.657 1.298M57.937 31.014c-.501-.212-.461-.655-.545-1.055l.653-.495c.729.24.577 1.39-.108 1.55"/><path fill="#006482" d="m73.775 27.04-26.825-.116.472-3.155 26.353-.104z"/></svg>