<svg xmlns="http://www.w3.org/2000/svg" xml:space="preserve" width="25" height="22.056" viewBox="2.5 4.044 25 22.056"><title>crystal-a</title><g fill-rule="nonzero"><path fill="#7fccef" d="M3 12.3s2.9-5.2 7-6.7c0 0 7.9-1.8 10.5-.7 0 0 5.2 3.6 6.5 5.6 0 0-7 13-10.3 15 0 .1-12.4-7.8-13.7-13.2"/><path fill="#678fe4" d="M27 10.5c-.2-.3-.5-.7-.9-1l-5.5 3.4-4.8 5.8.9 6.9C20.1 23.5 27 10.5 27 10.5"/><path fill="#73b5e4" d="M11.3 13.9s2.5 8.7 5.4 11.7c0 0 3.7-9.5 3.9-12.7l-6.8-3.2z"/><path fill="#92d7ef" d="M20.5 4.9c-2.7-1.1-10.5.7-10.5.7-4 1.6-7 6.7-7 6.7s6.5 1.6 8.3 1.6c0 0 5.7.1 9.3-1 2.4-.7 3.9-1 6.4-2.4-1.3-2-6.5-5.6-6.5-5.6"/><path fill="#7fccef" d="M17.2 4.6c-1.4.1-2.9.2-4.2.5l-1.2 2.4-.4 6.5s5.7.1 9.3-1L18 6.9z"/><path fill="#83cdef" d="M11.2 9.6c-.8 0-5 1.3-7.9 2.2-.2.3-.3.5-.3.5s6.5 1.6 8.3 1.6c0 0 5.7.1 9.3-1 2.4-.7 3.9-1 6.4-2.4-.1-.1-.1-.2-.2-.3-2.4-.5-6.6-1.4-7.1-1.4-.7.1-7.3.8-8.5.8"/><path fill="#bee6f1" d="m11.8 7.4 6.3-.4s1.8-.2 2.5-2c-2.8-1.2-10.6.6-10.6.6s.6.9 1.8 1.8"/><path fill="#73b5e4" d="M20.5 4.9c-.2-.1-.5-.2-.8-.2L18 6.9l2.6 5.9c2.4-.7 3.9-1 6.4-2.4-1.3-1.9-6.5-5.5-6.5-5.5"/><path fill="#3b73e4" d="M27 10.5s-.1.3-.3.7c-.2.5-.5 1.1-.8 1.9l-.6 1.2c-.2.4-.5.9-.8 1.4-.5.9-1.2 1.9-1.8 2.9-.7.9-1.4 1.9-2 2.7-.7.8-1.3 1.6-1.9 2.2-1.2 1.3-2 2-2 2s.8-.9 1.8-2.2c.5-.7 1.1-1.5 1.8-2.3.6-.9 1.3-1.8 2-2.7s1.3-1.9 1.8-2.8c.6-.9 1.1-1.8 1.5-2.5s.8-1.4 1-1.8.3-.7.3-.7"/><path fill="#bee6f1" d="M3 12.3s.5 0 1.2.1 1.6.2 2.5.4 1.8.4 2.5.6 1.1.3 1.1.3-.5.1-1.2 0-1.6-.2-2.5-.4-1.8-.4-2.5-.6-1.1-.4-1.1-.4M11.5 14.9s.3.6.6 1.4c.4.9.8 2 1.3 3.1.4 1.1.9 2.3 1.2 3.1.2.4.3.8.5 1s.2.3.2.3l-.3-.3c-.2-.2-.4-.5-.7-.9-.5-.8-1-1.9-1.5-3.1s-.8-2.3-1.1-3.2c0-.8-.2-1.4-.2-1.4"/><path fill="#679fe4" d="m18.9 8.9 1.7 4c2.4-.7 3.9-1 6.4-2.4-.1-.1-.1-.2-.2-.3-2.4-.5-6.6-1.4-7.1-1.4-.1.1-.4.1-.8.1"/><path fill="#7cbfef" d="m11.6 9.6-.3 4.3s5.7.1 9.3-1l-1.7-4c-1.7.2-5.7.6-7.3.7"/></g></svg>