<svg xmlns="http://www.w3.org/2000/svg" xml:space="preserve" width="164.266" height="262.626" viewBox="-0.412 1.547 164.266 262.626"><title>Slice 1</title><g fill-rule="evenodd"><path fill="#624b59" d="M9.44 259.473s.9 2.514.418 4.2h12.52l-2.037-3.84s-3.146-.506-4.967-1.415c-.417-.084-4.69.306-5.934 1.055"/><path fill="#debb9b" d="M36.04 160.553S34.104 171.23 30.7 179.19s-11.884 21.542-11.884 21.542-2.894 4.87-3.112 8.898-.288 46.081-.288 46.081.119 1.873.734 2.342c.614.468-5.297.749-7.826 1.78 0 0 3.19-19.014 1.75-35.78 0 0-.901-8.616-2.743-11.988s-1.71-2.529-1.48-4.308c.23-1.78 15.552-23.134 9.305-63.325"/><path fill="#af7444" d="M9.832 247.15c-.015.22 3.3-1.21 3.861-2.521.563-1.311 1.759-3.342 1.759-3.342l.017-4.952s-2.697 1.488-3.651 2.425c-.955.936-1.577 2.377-1.577 2.377s-.346 5.139-.409 6.012M10.437 232.295c-.038.198 2.102-.03 2.761-.342s2.3-2.333 2.3-2.333-.299-2.662-.791-4.098c-.493-1.437-1.349-2.373-2.641-2.435s-1.969 1.265-1.969 1.265.59 6.632.34 7.943M9.386 219.29c.187 0 2.63-.824 2.952-1.51.322-.688 2.713-2.061 2.892-2.249.178-.187.426-4.37.426-4.37s-1.616-.626-3.471.186-3.792 3.508-3.792 3.508zM6.827 211.161s1.418 0 2.043-.874c.625-.875 3.802-4.558 4.899-4.684 1.097-.125 2.75.19 2.75.19s1.38-3.873 2.296-5.06.051-4.183-1.708-3.934c-1.76.25-2.982.812-4.945 2.436s-3.198 2.292-3.198 2.292-2.837 5.481-3.115 6.23c-.277.75.409 3.079.978 3.404M21.954 195.55s-4.573-.374-4.893-1.435c-.32-1.062 1.1-3.622 1.754-6.12.653-2.497.932-4.995 1.993-4.995s3.154.562 3.154.562 1.56.624 1.9-.562 2.727-6.245 4.547-8.242 2.15-.557 2.15-.557-6.114 15.48-10.605 21.35M11.122 196.175s3.514-1.435 3.854-2.622-.033-2.936 1.29-6.245 4.134-6.806 2.342-6.431-3.317.75-3.317.75-2.593 12.264-4.169 14.547"/><path fill="#af7444" d="M15.627 178.75s4.275.878 5.683 1.19c1.409.313 2.365 1.249 2.882.25s3.106-6.555 4.49-8.554c1.385-1.998 2.304-2.81 1.957-3.559s-1.129.623-1.151-1.561-.361-2.311-1.627-2.248-7.545 3.684-7.545 3.684-.153.312-1.008-.187c-.855-.5-1.175-.063-1.69 1.748s-1.356 2.935-1.356 2.935zM17.67 157.368l3.008 1.467s-1.218.562-1.514 2.248 1.665 2.435-.258 3.934l-1.923 1.498s-.68-7.866.687-9.147M21.735 165.828c-.08-.142-1.683-1.967-.758-3.886.924-1.92 2.014-2.17 3.2-3.73 1.187-1.562 1.908-2.873 3.93-3.56 2.02-.687 4.262 4.558 4.262 4.558s.15 1.436-.68 2.373c-.83.936-3.884.75-5.982 2.06-2.099 1.312-3.669 2.727-3.972 2.185"/><path fill="#af7444" d="M34.309 162.457s-2.56.227-2.887 1.799 1.01 1.697.626 2.821-1.921 4.746-1.921 4.746.328 2.122 1.498 0c1.17-2.123 2.125-3.497 2.125-3.497s2.863-6.73.559-5.87"/><path fill="none" stroke="#533d37" stroke-width=".563" d="M36.04 160.553S34.104 171.23 30.7 179.19s-11.884 21.542-11.884 21.542-2.894 4.87-3.112 8.898-.288 46.081-.288 46.081.119 1.873.734 2.342c.614.468-5.297.749-7.826 1.78 0 0 3.19-19.014 1.75-35.78 0 0-.901-8.616-2.743-11.988s-1.71-2.529-1.48-4.308c.23-1.78 12.964-18.452 10.229-50.39"/><path fill="#624b59" d="m107.355 248.418-1.475 2.456 10.442 6.939v-5.225l-2.882-2.902s-5.51-1.506-5.494-2.16c.017-.656-.59.891-.59.891"/><path fill="#debb9b" d="M62.433 151.795s17.972 9.928 30.714 23.793c16.372 17.817 14.503 21.8 14.955 26.864.45 5.039 2.05 6.746 1.513 17.621-.596 12.051-3.09 21.832-2.753 24.071.272.986.695 2.737 1.064 3.466.83 1.638 6.552 2.248 6.552 2.248-.529-.891 2.34-4.552 1.954-6.334-.409-1.886-.431-4.246-.736-21.953-.313-18.17 3.442-15.297 3.066-24.528-.134-3.288-1.09-4.475-2.772-6.606-1.395-1.766-6.375-8.078-10.79-17.133-12.349-25.335-11.38-47.64-11.38-47.64"/><path fill="#af7444" d="M107.454 246.588c.005-.242 8.4-1.836 8.236-3.856-.162-2.02-.188-3.562.252-4.866s-.245-6.242-.245-6.242-6.905 3.57-7.915 4.881c-1.01 1.31 2.61 4.196 3.128 5.457.52 1.261-3.456 4.626-3.456 4.626M115.697 227.493s-4.931 3.633-6.406 3.757c-1.39.117 2.308-2.575 1.162-4.933s-.649-4.628.25-6.056c.9-1.428 3.12-.57 3.12-.57s1.31 6.893 1.874 7.802M115.697 215.64s-1.253 1.65-2.3 1.124-4.062-1.373-3.75-4.626c.323-3.371-.764-4.377-.87-6.124-.108-1.745-.378-4.922.514-4.361 4.627 2.91 8.291 1.494 8.797 1.732.505.236-4.366 5.785-3.391 7.322.976 1.538 1 4.933 1 4.933M118.762 197.043s-5.353 4.511-7.317 3.199-3.545-2.796-4.237-4.477-.224-1.825.33-3.139c.553-1.312 2.54-5.893 2.915-6.084 2.432-1.235.363.737 1.883 2.56 1.518 1.823 4.88 2.093 5.486 3.764.603 1.671 1.423 3.078.94 4.177M105.057 191.374s4.065-4.696 4.114-6.246 1.064-1.877-.151-2.508c-1.214-.63-3.554-2.283-4.789-2.739s-1.124-1.02-1.742-.293-3.879 1.346-3.976 2.112c-.096.765 3.496 4.453 4.501 6.288.962 1.755 1.188 1.701 2.043 3.386M109.277 180.768c-.215-.07-11.973-3.7-12.366-4.903-.392-1.2 3.526-1.897 4.835-2.454s2.908-1.305 2.908-1.305 1.575 3.179 2.407 4.331c.83 1.153 2.216 4.331 2.216 4.331M91.804 174.06s8.168-.679 9.63-2.153a434 434 0 0 0 2.173-2.205l-1.127-2.707s-4.54-3.468-7.734-2.613-6.944 2.54-6.01 4.427c.934 1.888 3.068 5.25 3.068 5.25M98.022 162.659c-.01.001-5.425-1.467-11.782 4.215-.678.606-3.134-5.602-3.876-7.243-.74-1.643-.27-3.91-1.178-5.183-.91-1.271 3.69-2.397 4.099-3.993.409-1.598 1.567-4.663 1.387-5.394-.18-.733-.793-1.206 1.167.27 1.96 1.474 3.558-.027 3.887 2.1.328 2.128 4.846 7.584 5.997 9.14 1.15 1.558 1.778 5.865.3 6.088"/><path fill="#af7444" d="M93.822 129.596c-.109.165-7.843 8.848-8.533 10.19s-.954 3.222.984 3.361c1.94.138 3.558-.028 4.392.826.832.852 2.684 4.208 3.25 3.92.568-.29 2.508-2.403 1.24-5.619-1.267-3.215-1.333-12.678-1.333-12.678M73.638 158.718c.08-.302 10.337-10.253 10.717-11.27.378-1.015 1.203-1.986.068-2.918s-2.355 1.146-4.385-.114-1.563-1.707-2.24-1.49c-.676.214-9.422 3.653-8.532 4.78.89 1.126 4.372 11.012 4.372 11.012"/><path fill="#af7444" d="M77.497 140.696c.16.192 2.248 2.917 3.337 2.295s1.967-.919 2.76-3.137c.792-2.22.735-2.014 1.884-3.719s1.525-2.638 1.91-3.26c.383-.622.28-1.257-.448-1.875-.727-.619-.797-1.917-2.095.065s.013 4.129-1.91 4.774c-1.924.644-1.512-1.351-3.904.857-2.39 2.209-2.054 3.373-1.534 4"/><path fill="none" stroke="#533d37" stroke-width=".563" d="M62.433 151.795s18.77 10.001 30.307 23.321c12.509 14.444 15.186 19.901 15.186 24.959 0 5.575 2.34 4.732 1.689 21.029-.379 9.463-3.09 20.8-2.753 23.04.272.986.461 2.623 1.064 3.466 1.068 1.493 6.552 2.248 6.552 2.248-.529-.891 2.39-4.769 1.954-7.587-.294-1.907-.737-2.546-.737-20.256 0-11.708 1.464-15.354 2.34-18.332.93-3.157 1.032-9.35-.651-11.48-1.394-1.766-8.778-10.978-14.903-25.208-9.741-22.629-8.661-41.332-8.661-41.332"/><path fill="#af7444" d="M14.33 137.293s2.42 33.156-8.688 39.338c0 0 12.544-7.868 10.49-32.251"/><path fill="none" stroke="#533d37" stroke-width=".563" d="M14.33 137.293s2.42 33.156-8.688 39.338c0 0 12.544-7.868 10.49-32.251"/><path fill="none" stroke="#533d37" stroke-width=".563" d="M1.611 173.095s.25 4.434 4.368 3.372"/><path fill="none" stroke="#533d37" stroke-width=".563" d="M.088 175.57c.188.062 3.555 2.744 5.555 1.06"/><path fill="none" stroke="#533d37" stroke-width=".563" d="M.088 177.942c.25 0 4.057 1.56 5.242-1.311"/><path fill="none" stroke="#533d37" stroke-width=".563" d="M2.587 179.41c.187-.125 2.496.686 3.183-2.78"/><path fill="#fadab9" d="M135.684 30.145s1.17 1.889 4.002 3.676 7.325 3.474 13.97 3.068c0 0 .812 2.934 2.871 3.62 2.06.688 4.93.75 6.553 0 .437-.249.347-.464-.375-3.933-.81-3.901-7.238-7.367-14.509-23.476 0 0-2.402-4.434-10.545-2.155-6.538 1.436-13.98 15.344-18.148 21.469-4.499 6.669-18.688 32.195-41.06 41.092 0 0-4.571 2.049-8.112 2.974-1.506.393-6.007.808-7.645 2.54-1.638 1.733-7.395 8.477-8.612 9.695s-5.28 5.79-9.735 9.319c-6.974 5.525-15.399 7.118-20.687 14.704-6.101 8.752-9.876 14.799-9.267 27.162.608 12.363 13.303 23.724 25.32 22.807 16.569-1.265 37.9-19.48 42.748-23.54 5.246-4.392 15.662-10.244 14.68-17.484-.748-5.526-1.525-10.415-1.946-12.804 0 0-1.096-3.68 3.959-9.862 0 0 10.64-13.174 18.066-27.536s14.588-31.743 16.522-35.614c0 0 2.784.725 6.093-1.958"/><path fill="#af7444" d="M27.872 159.908s-2.198-3.695-2.01-3.695c.186 0 3.12-2.747 2.87-5.931s1.436-3.31 2.684-5.12 3.494-6.557 3.431-.563c-.062 5.995.002 15.236.002 15.236zM40.714 152.03s-1.685-9.242-1.498-9.304 7.302 1 7.302 1l-1.31 8.304z"/><path fill="#af7444" d="M41.837 155.09s4.493-.5 4.93-3.06.562-6.18 1.81-5.682c1.248.5 4.306 1.686 4.306 1.686s3.37-1.686 4.368-2.685.936 3.435 1.123 6.244c.188 2.81-6.365 6.432-11.108 8.243-2.246.749-6.468-4.556-5.429-4.747"/><path fill="#af7444" d="M36.158 161.77c-.244-.05 0-14.923 0-14.923h1.873s2 11.351 4.829 13.061-4.642 2.3-6.702 1.863M26.61 147.66c-.16.114 0-7.056 0-7.056s.562-2.124-.436-2.748c-1-.624-3.12-.686-2.372-2.372s.625-2.124 2.559-3.248 6.802-5.307 6.802-5.307.749-.312 2.06 3.372 3.153 3.747.827 6.307-7.692 9.803-9.44 11.052"/><path fill="#af7444" d="M24.896 149.561c.5-.187 0-8.492 0-8.492s.56-1.124-1.156-1.748c-1.714-.624-2.838-1.374-2.838-1.374v-8.991s-.25-.312-2.559 2.248c-2.308 2.56-3.865 4.055-3.865 4.055s-.88 10.731 4.137 16.223c.796.797 5.781-1.733 6.28-1.92"/><path fill="#af7444" d="M22.492 132.986c-.062-.188 0-8.929 0-8.929s-.562-1.436.81-3.372c1.374-1.936 5.493-8.242 5.493-8.242s.945-1.798.25 8.304c-.697 10.103-.25 6.744-.25 6.744s-.687 1.624-3.932 4.059-2.371 1.435-2.371 1.435M31.166 123.557V111.07s-.552-.937 5.995-4.184 9.793-4.746 9.793-3.496v12.488s.063.687-2.745 2.06c-2.808 1.374-11.17 6.057-11.17 6.057s-1.873 1.499-1.873-.437M37.531 131.8c-.284-.252-2.111-3.373-.37-5.558 1.743-2.185 4.514-5.058 4.514-5.058s.911-1.749 2.783 2.06 4.431 8.555 4.431 8.555 1.622 1.686 0 3.56c-1.623 1.873-3.182 4.931-3.182 4.931s-.188 1.5-3.246.938-5.3-1.249-5.3-1.249-.868 0 0-1.249c.87-1.249 2.04-3.933 2.04-3.933s-.11-1.624-1.67-2.998"/><path fill="#af7444" d="m45.769 118.75 2.184-1.5.624-5.556s-.095-1.062 1.45-1.25 4.354-.686 4.354-.686 1.31-.187 1.934 1.936c.625 2.123 2.064 6.493 2.064 6.493s1.368 1.125-.94 2.873c-2.31 1.748-3.932 2.934-3.932 2.934s-1.279 1.311-1.232 2.06-.39 1.062-1.264 1.437-1.934 1.373-2.496 0-3.183-7.43-3.183-7.43-.36-.765.437-1.312M49.61 107.26c.016-.296-.284-4.31-.284-4.31s0-1.123.998-1.247c.999-.125 2.122-.188 2.247-.937l1.185-7.118s-.062-.687 1.374-.937c1.435-.25 4.306-.999 4.306-.999s1.623-.436 1.31 1.499.04 10.303.04 10.303.273 1.31-2.66 2.684-8.669 3.872-8.516 1.062"/><path fill="#af7444" d="M41.418 100.105c-.032.018.794 2.91 2.604 2.035 1.809-.874 6.802-2.685 6.802-2.685s.874-.436.936-2.372.256-6.203.256-6.203-6.765 7.014-10.598 9.225M38.593 101.778c-.313-.256.196 3.36-1.432 4.108-1.627.75-7.861 4.309-7.861 4.309s-2.056-.06-2.742-.805 9.975-7.384 12.035-7.612M24.024 112.718s1.66 1.598 1.094 2.285c-.567.687-5.184 7.118-5.81 10.24-.623 3.123-.997 4.093-1.933 3.701s-1.928-.75-1.928-.75 1.806-7.922 8.577-15.476M49.61 142.04s-1.782-1.687-1.345-2.623 2.933-4.683 2.933-4.683.75-1.03.375-1.545c-.375-.516-1.374-1.602-.625-2.12.75-.519 2.31-2.043 2.31-2.043s.998-.349 1.123-1.098c.124-.75-.625-1.998 1.56-3.06 2.184-1.061 3.182-1.623 3.182-1.623s.375.312 1.249 1.998c.873 1.686 1.185 2.31.749 2.685-.438.375-.812 3.247-.063 6.12.749 2.871.561 2.31.561 2.31s.126 1.06-1.622 2.497c-1.747 1.436-5.866 5.994-5.866 5.994s-1.172 1.65-2.115.357c-.943-1.294-2.406-3.167-2.406-3.167M60.792 154.887l-1.357-11.849s-.748-1.999.999-2.747c1.747-.749 6.677-2.248 6.677-2.248s2.06-.687 1.498 2.935-2.434 3.933-2.621 5.87c-.187 1.935-.304 5.006-.304 5.006M58.781 110.195c-.111-.154-1.029-1.436 0-2.185 1.03-.75 2.964-1.75 3.15-2.686.188-.937-.249-4.183.688-4.183s7.114 13.237 8.611 15.173 1.997 2.31 1.248 3.122-6.053 7.486-6.053 7.486-.437.18-1.061 0-3.714-3.036-4.571-4.168c-.858-1.133-.92-1.257-.484-1.882.437-.624 3.56-3.62-1.528-10.677M65.56 97.332s-.802-1.187 0-1.624c.802-.436 4.11-3.746 4.11-3.746s-.187-6.807.687-7.118c.873-.312 4.305 3.184 4.305 3.184s4.493.25 4.743.25.5.313.624 1.499c.125 1.186 1.123 6.816 1.123 6.816s.812 1.113-1.81 2.3c-2.62 1.187-9.36 5.245-9.36 5.245s-.937.75-1.81-.562c-.874-1.311-2.612-6.244-2.612-6.244"/><path fill="#af7444" d="M53.063 89.78c.382.184 7.309-2.377 8.058-.628s1.247 5.058 1.247 5.058-.25 2.248 2.31 0c2.558-2.248 3.432-2.997 3.432-2.997s.187.124.312-2.998c.124-3.121.88-3.684.284-4.87s-4.337-3.131-7.708-2.44M69.92 106.51c.226-.136 5.803-3.309 5.803-3.309s.998-.936 1.56 0c.562.937 1.123 3.31 3.37 3.747s3.433.435 3.87 1.591c.436 1.156.499 6.526.499 6.526s.25 1.06-1.187 1.873c-1.434.812-2.564 2.036-2.564 2.036s-1.242.462-2.365-1.037-.998-2.31-3.932-2.622c-2.933-.312-1.623 0-2.434-.687-.81-.687-2.746-5.995-2.995-6.681-.25-.687-.774-.746.374-1.436M79.467 101.765c.177-.971 1.186-1.685 2.185-2.372.998-.687 1.996-1 1.685-2.436-.312-1.436-1.31-2.248-.5-2.685.811-.437 5.617 1.81 6.553 2.623.936.812.624 1.112.936 3.21s1.373 1.951 1.872 2.68.187.167-.562 1.29c-.748 1.125-.936 2.998-2.121 3.06s-2.401-.748-4.477-.437c-2.076.312-1.64.312-3.012-1.061-1.373-1.374-2.933-1.811-2.559-3.872M65.56 77.976s-1.569 1.498.802 1.248 3.308-.757 4.93.028c1.623.784 3.245 4.865 3.682 5.572s.864 1.83 2.148.956c1.285-.873 3.095-2.185 4.468-2.56 1.372-.374.998.062 1.56-2.123.561-2.185 1.372-2.122.935-3.496-.436-1.374-2.448-1.423-5.137-4.296M83.649 70.937l2.277 5.04s.094 1.561 1.966 1c1.873-.562 3.87-1.124 5.117-1.061 1.249.062 1.186.312.624-2.061s-1.818-8.104-1.818-8.104M82.4 88.59c-.117-.22-2.059-2.662 0-3.766s3.745-2.415 4.431-3.727c.686-1.31.624-1.373 1.622.688 1 2.06 2.746 4.933 2.809 5.932.063.998-.125 1.935-1.81 2.684s-5.18 2.436-6.24 2.186-1.311.124-1.186-1.436.976-1.421.374-2.56M97.378 77.098s-4.162-.808-6.106.316c-1.945 1.124-1.488 1.498 0 3.87 1.487 2.374 2.112 5.309 2.049 7.244-.062 1.935-.686 5.433 1.997 3.684s4.368-3.52 6.616-4.227c2.246-.706 4.055-.767 3.432-2.329-.624-1.562-5.18-4.371-6.241-6.432s-.308-1.927-1.748-2.126M105.23 90.88s-5.606 2.71-8.726 3.707-3.682 1.078-3.62 2.005c.063.927.25 3.237.25 3.237s2.06 1.312 4.406 1.378M108.624 85.934c.062-.187-.014-2.338-1.636-3.4-1.623-1.062-4.93-1.623-4.182-3.185.75-1.561 5.055-6.868 6.803-9.178 1.747-2.311 1.685-3.06 2.621-2.186s3.097 4.837 3.015 7.164M97.378 74.978s-1.873 1.312-2.122-.874c-.25-2.185-1.747-6.205-.562-6.474s4.243-1.206 5.367-2.268 3.307-4.433 3.932 0c.624 4.434.916 4.78 1.237 5.574.323.795.135 2.605-3.172 3.105s-3.26.601-4.68.937"/><path fill="#af7444" d="M106.676 67.63s-1.295-4.578-1.334-5.202c-.039-.625-.102-.375.149-1.312.249-.936 2.183-1.81 2.496-4.558.312-2.747.1-3.246.986-3.746s4.567-2.622 5.816-3.184 2.309-.936 3.682 6.119.686 5.619 0 6.868c-.687 1.249-1.81 4.809-2.809 4.371-.998-.437-2.559-2.436-4.243-1.749-1.685.688-3.37 3.727-4.056 3.06zM102.46 55.839s1.782 3.405 1.159 4.029c-.625.624-6.679 3.87-7.926 4.62-1.249.75-1.776.425-1.45-.692M124.398 56.677s-2.495-.244-2.745-2.18c-.249-1.935-2.246-6.992 0-7.68s7.204-2.771 8.952-3.99M108.474 48.628c.325 0 5.984-1.374 6.774-4.184s.12-4.79.415-6.05M117.535 47.067c-.567-.162-.063-1.186 0-2.872.062-1.686-.126-4.87 1.123-6.182 1.248-1.31 4.992-4.62 6.677-5.744s1.622-1.373 2.434-1.061c.811.311 1.684 3.683 2.184 5.12.5 1.436 1.061 1.386.437 2.067-.624.68-7.542 4.739-9.793 6.487s-2.189 2.435-3.062 2.185M118.72 33.624c.187 0 2.621-1.73 4.68-2.917 2.06-1.186 2.621-1.31 3.12-3.371s2.122-3.31 1.062-4.121c-1.061-.812-1.892-.397-1.981-.264M128.767 27.274c.092-.164 1.748-2.123 1.436-4.87-.312-2.748-1.006-3.997.402-5.309 1.407-1.31 1.207-1.872 2.024.438.819 2.31 1.817 5.682 1.817 5.682s.812 1.436-1.06 2.373c-1.873.936-5.769 3.755-4.619 1.686M132.988 37.47c-.18-.125-2.606-2.764-2.383-6.386s-.153-2.95.596-3.068 2.347.757 3.42 1.443-.175 1.293 1.135 2.832c1.31 1.54 2.453 2.706 2.453 2.706s-3.588.78-4.465.87c-.382.038-.756 1.603-.756 1.603M138.628 21.986c-.827-.766-2.373.331-2.31 1.904s.705 6.628 2.31 8.442 3.681 1.291 3.681 1.291-.062-3.29-.686-4.976-1.56-5.33-2.995-6.661M144.868 28.175s-2.746-1.088-2.559-2.712 1.186-.125 3.246 0 2.37.437 1.622 1.436c-.75.999-1.343 1.771-2.31 1.276M144.556 32.956c-1.409-1.702-2.371-3.559-.624-3.06s2.488-.373 3.615 1.187 2.634 2.123-.71 2.185c-3.342.062-1.556.564-2.281-.312M148.881 36.015s-.892-1.873.605-2.06c1.498-.188 2.247-.937 2.621.312s1 1.315.25 1.998c-.75.684-3.476-.25-3.476-.25M154.665 31.083s1.248.438 1.498 0c.25-.437-.063-1.492-1.498-3.369s-2.87-3.563-5.429-3.563c-2.558 0-2.044.185-.428.56 1.614.377 1.66.502 3.04 2.625 1.382 2.123 2.255 3.311 2.817 3.747"/><path fill="#af7444" d="M151.848 32.737c.86.018 1.507.094 1.132-.78-.374-.875-1.497-3.123-2.62-4.621-1.124-1.499-1.108-1.686-1.553-.562s-1.256.239-.756 1.555c.5 1.317 2.291 4.378 3.797 4.408M148.881 18.969s-3.215-.033-3.957-3.013c-.743-2.982.63-1.733.506-2.482-.125-.75.593-.999 1.014.562s1.435 3.184 2.363 3.621c.929.438 1.03 1 .074 1.312M141.061 18.969c.878-1.268 2.558-.562 2.87-1.374.313-.811.374-2.998-1.435-2.373s-2.184 1.312-2.434 2.56c-.249 1.25.438 1.998 1 1.187M137.441 15.112s-2.958 1.274-2.82 2.097c.137.823.695 3.259 1.696 2.759s1.473.124 1.891-1.562c.42-1.686 1.28-4.408-.767-3.294M138.75 13.662c-.836.387-.852-.367 1.26-.777s4.67-.249 2.3.388c-2.372.638-2.75.014-3.56.389M150.172 21.787c-1.308-.473-1.739-1.82-.62-1.32s3.876 2.499.62 1.32M153.667 35.828c-.446-.224-.062-1.21.312-2.135.375-.925 1.872-2.673 1.06-.55-.81 2.123-.748 2.996-1.372 2.685M95.746 104.68l-6.903 5.515s-1.825.676-1.575 2.524.25 3.595.25 3.595.374 1.06 1.747.436 1.997-1.249 2.372-.749 5.46 7.553 5.507 5.682c.046-1.873-1.976-13.144-1.976-13.144s.142-1.828.578-3.858M96.691 124.547l-4.25 1.195s-.743.438-.743 1.811v4.34s3.174-2.937 3.985-4.51c.812-1.572 1.008-2.836 1.008-2.836M90.326 123.807l1.373-.562s.672.187.742-.75c.07-.936-.43-1.873-2.115-2.997s-1.56-1.373-4.4 0c-2.84 1.374-3.463.748-3.65 1.685-.188.938.923 1.874-1.005 2.624-1.929.75-2.427.936-2.74 1.56-.312.625-.561 2.66-.561 5.701s.137 3.23 1.441 2.792 4.491-.812 6.954-.438 3.642-.374 3.614-1.529-.402-6.463.347-8.086"/><path fill="#af7444" d="M72.822 122.308c1.2-1.528.592-4.87 1.903-4.246 1.31.625 2.62-.187 3.245 1.249.624 1.436.449 1.748 1.441 2.31s2.366.642.868 1.133c-1.498.49-3.558 2.052-4.992 1.178-1.436-.874-3.494-.313-2.465-1.624M64.74 134.036s3.432-8.356 4.743-8.856c1.31-.499 3.744-.436 4.43-.311.687.124 1.686-.514 1.249 1.429-.437 1.942 0 8.374.686 9.435s.874 1.582-.686 2.258c-1.56.677-3.62 1.737-4.182 2.3-.561.562-.81-4.184-3.307-3.497s-5.18-.896-2.933-2.758M74.759 145.393c0-.25-2.219-3.79-.596-4.415s3.433-.812 4.181-1.437c.75-.624.012-.815 1.067-2.25 1.055-1.434-1.017-2.058 1.86-1.683s4.73.705 4.887.705-11.4 9.08-11.4 9.08M67.673 149.47s.436-4.621 2.121-5.994c1.685-1.374 2.192-.438 2.75.811s1.025 1.846 1.025 1.846l-5.896 4.394zM19.768 153.028s1.912-.973 4.222-1.391c2.308-.419 3.575-1.043 1.85 1.954s-1.731 3.815-1.731 3.815-3.767-2.852-4.34-4.378M146.444 11.424s-11.499-7.066-18.18 3.097c-6.26 9.522-10.64 16.873-12.601 19.383C99.793 54.2 92.609 64.893 80.154 69.233c3.183.5 3.044.98 3.495 1.704.45.724 18.432-10.806 32.223-32.865s17.95-30.53 30.572-26.648"/><path fill="none" stroke="#533d37" stroke-width=".563" d="M135.694 30.145s1.17 1.889 4.002 3.676c2.83 1.788 7.324 3.474 13.97 3.068 0 0 .812 2.934 2.871 3.62 2.06.688 4.93.75 6.553 0 .437-.249.347-.464-.375-3.933-.811-3.901-7.238-7.367-14.509-23.476 0 0-2.402-4.434-10.546-2.155-6.537 1.436-13.979 15.344-18.147 21.469-4.5 6.669-18.689 32.195-41.06 41.092 0 0-4.57 2.049-8.113 2.974-1.505.393-6.006.808-7.644 2.54-1.638 1.733-7.395 8.477-8.612 9.695s-5.28 5.79-9.735 9.319c-6.974 5.525-15.398 7.118-20.688 14.704-6.1 8.752-9.875 14.799-9.267 27.162.61 12.363 13.303 23.724 25.321 22.807 16.569-1.265 37.9-19.48 42.748-23.54 5.245-4.392 15.662-10.244 14.68-17.484-.749-5.526-1.525-10.415-1.946-12.804 0 0-1.096-3.68 3.959-9.862 0 0 10.64-13.174 18.066-27.536s14.587-31.743 16.522-35.614c0 0 2.785.725 6.093-1.958"/><path fill="none" stroke="#533d37" stroke-width=".563" d="M146.837 11.684s-12.11-8.95-20.935 6.275c0 0-8.16 13.384-14.203 21.584-6.124 8.312-20.874 27.068-31.545 29.69 0 0 3.015.504 3.754 1.703"/><path fill="#fadab9" d="M143.682 11.632s-4.4-4.152-2.995-9.585l-1.062 1.187-1.248-.625-.561.985-2.06-.548s4.992 4.777 2.933 9.304"/><path fill="none" stroke="#533d37" stroke-width=".563" d="M143.682 11.632s-4.4-4.152-2.995-9.585l-1.062 1.187-1.248-.625-.561.985-2.06-.548s4.992 4.777 2.933 9.304"/><path fill="#fadab9" d="M148.768 14.3c-.062-.882.26-8.593-.28-8.718-.733-.17-2.933 4.84-3.62 6.15"/><path fill="none" stroke="#533d37" stroke-width=".563" d="M148.768 14.324c-.062-.882.26-8.593-.28-8.718-.733-.169-2.933 4.84-3.62 6.15"/><path fill="#fadab9" d="M142.318 9.94c.062-.095.194-3.66-1.397-6.83l1.341.842.344-1.561.936.968 1.06-1.311s-.717 5.963 1.842 10.147"/><path fill="none" stroke="#533d37" stroke-width=".563" d="M142.302 9.94c.063-.095.195-3.66-1.397-6.83l1.341.842.344-1.561.936.968 1.06-1.311s-.716 5.963 1.842 10.147"/><path fill="#fadab9" d="M133.26 16.284s-.998-12.239 0-12.676c.999-.437 4.743 9.43 4.743 9.43"/><path fill="none" stroke="#533d37" stroke-width=".563" d="M133.073 16.284s-.998-12.239 0-12.676c.999-.437 4.743 9.43 4.743 9.43"/><path fill="#a67c9f" d="M135.008 15.927s-.846-4.675-.936-8.01c-.065-2.34 2.478 3.107 2.61 5.297.134 2.19.26 2.355-1.674 2.713M148.05 22.154s-3.348 4.487-6.989-1.156c0 0 2.2-1.692 3.904-1.42 2.165.346 2.871 2.21 3.085 2.576M160.157 38.888s-1.587-.875-2.242-3.98c0 0 1.135.342 1.672 1.419.98 1.963.356 2.194.57 2.56"/><path fill="#1b110f" d="M145.85 23.89s-2.37-.377-2.168-2.61c.156-1.732 2.168-1.593 2.168-1.593l2.2 2.467z"/><path fill="none" stroke="#533d37" stroke-width=".5" d="M141.061 20.998s4.213-3.933 6.99 1.156c0 0-2.996 4.59-6.99-1.156ZM160.157 38.888s-2.122-1.343-2.246-4.06c0 0 2.59 1.188 2.246 4.06Z"/><path fill="#fadab9" d="M16.603 147.768c4.781 7.306 5.627 9.633 12.342 20.362 6.91 11.04 3.19 25.968 3.19 25.968s14.303 14.986 21.81 31.01c7.509 16.025 8.746 27.575 8.746 27.575 4.026-.792 9.134-3.61 9.134-3.61-1.763-.876-6.893-13.06-6.893-13.06s-11.698-25.961-15.67-32.834c-9.804-16.964 1.166-20.564 1.214-45.928.064-34.497-17.916-20.477-17.916-20.477s-6.926-7.304-8.346 5.867c-1.138 10.565-7.611 5.127-7.611 5.127"/><path fill="#af7444" d="m61.064 244.637 5.51-5.14-3.166-6.776-4.361 5.115zM58.186 235.353c-.042-.204-2.653-6.713-2.653-6.713s2.773-3.731 3.514-4.076c.74-.347 3.433 5.765 3.433 5.765zM58.162 221.034s-3.988 2.701-4.474 3.53l-2.416-4.811 2.993-6.341zM49.802 217.046c.027.114 1.31-4.376 1.785-5.287s-1.376-4.997-1.376-4.997-1.217-2.678-2.036-1.674c-.818 1.003-1.191 2.798-1.996 1.55s-5.454-7.898-5.454-7.898-3.825.01-3.987.26c-.163.246 12.605 16.143 13.064 18.046"/><path fill="#af7444" d="M49.01 202.644c-.11.086-2.666 1.86-3.543.824-.878-1.038-4.186-5.763-4.273-5.873s-1.184-1.274-.614-2.14c.569-.866 4.77-8.154 4.77-8.154s.013 6.591.587 8.227c.574 1.635 3.073 7.116 3.073 7.116M35.781 196.022s3.429-3.363 5.092-7.001c1.661-3.639 2.663-4.786 2.21-6.04a2880 2880 0 0 0-2.417-6.621s-.62-1.241-1.286-.119c-.666 1.121-3.658 5.256-3.658 5.256s1.224 11.995.059 14.525M33.89 179.568c.076-.358 3.758-5.6 4.81-6.608 1.053-1.01 1.339-1.176 1.177-2.062-.163-.886-1.017-2.121-.113-2.714.902-.594 10.387-2.13 10.387-2.13s.686-9.14.236-10.695c-.307-.592-11.412-3.375-12.463-2.664s-1.95 4.104-2.478 5.476c-.529 1.37-.844 1.56-1.368 1.735s-1.547.088-.92 1.562c.625 1.475 1.754 3.209 1.754 3.209s1.973 6.805.282 6.935c-2.952.227-1.303 7.956-1.303 7.956M30.394 164.861c-.639 1.475 1.584-4.736.106-6.31-1.479-1.573-3.53-1.98-3.53-1.98s-1.543.084-1.91-.76-.325-6.007-.325-6.007.293-1.066-.4-1.414c-.692-.349-2.951 5.028-2.951 5.028s2.156 4.403 4.423 6.236c2.464 1.993 4.587 5.207 4.587 5.207"/><path fill="#af7444" d="M33.223 157.242s-4.085-2.384-5.299-3.392c-1.214-1.012-1.536-1.95-1.192-3.177.345-1.226 1.318-2.412.581-3.8-.736-1.386-1.564-3.118-.796-4.261.767-1.144 1.907-4.31 2.61-4.327.7-.017 5.217 5.484 6.644 7.52 1.426 2.036 1.367 4.23-.248 7.474-1.615 3.242-.781 4.075-2.3 3.963M41.996 151.114s-1.244-.771-1.372-.886c-.757-.668-3.44-3.243-4.646-7.032-1.41-4.435-1.887-8.293-.128-5.983 1.762 2.307 2.774 3.598 3.243 4.88 1.782 4.877 2.83 8.936 1.66 8.25"/><path fill="#624b59" d="m64.558 251.922-1.694 3.98 11.64 1.902-2.305-6.011s-.655-.925-2.468-1.661c-.603-.245-4.413 2.507-5.173 1.79"/><path fill="none" stroke="#533d37" stroke-width=".563" d="M15.686 146.042c4.992 9.599 7.666 11.577 13.614 22.749 5.947 11.172 2.835 25.307 2.835 25.307s14.302 14.986 21.81 31.01 8.746 27.575 8.746 27.575c4.026-.792 9.133-3.61 9.133-3.61-1.763-.876-13.662-28.039-13.662-28.039s-9.19-17.606-12.048-25.012c-2.86-7.407 2.746-14.21 4.244-34.268C52.339 135.204 41 130.719 41 130.719"/><path fill="#af7444" d="M47.674 168.81c-.044-.193-4.657 1.186-4.481 1.436.175.25.064 3.933-.005 4.183-.07.25 1.865 7.243 1.865 7.243s4.742-3.496 2.62-12.863"/><path fill="#624b59" d="m68.55 259.473-1.125 4.2h12.73l-1.532-3.597-3.797-1.67h-5.898z"/><path fill="#fadab9" d="M61.318 131.705s2.376.562-.543 9.366-3.735 12.55-3.735 12.55-1.307 2.436 1.328 5.527c2.636 3.09 8.737 13.862 10.34 29.2 0 0 1.945 11.261 1.6 13.603-.346 2.341-1.91 4.683-1.781 6.65.129 1.966 2.617 8.054 2.176 15.641 0 0-.675 20.7-4.02 31.096 1.952.749.924 2.486 2.172 3.07 1.248.582 4.424.259 5.898 0 0 0 2.941-1.197 2.318-7.098-.785-7.437-1.761-13.068-1.021-21.167.728-7.962.805-12.75 1.799-15.454.687-1.873 2.134-5.604 2.643-7.774.89-3.793-1.634-5.433-2.591-13.394-.958-7.96-.502-26.787-.061-30.533a32.3 32.3 0 0 1 3.647-11.52c2.032-3.747 8.245-16.11 10.135-24.914 0 0-16.144 12.55-14.215 7.212 5.013-13.872-14.48-3.225-16.09-2.061"/><path fill="#af7444" d="M74.925 258.407c-.262.017-1.58-.624-1.284-1.499.297-.874 1.78-2.685 1.586-4.059-.193-1.373-.532-3.62.586-4.058s1.648 3.871 1.229 5.557c-.42 1.686-1.165 3.997-2.117 4.059M68.03 257.803s4.15-1.748 3.99-3.247-.162-4.308-.094-5.37c.067-1.061.449-2.248-.79-1.936s-2.75 1.531-2.75 1.531l-1.398 6.15s1.381 1.772 1.041 2.872M76.288 245.372s-5.688.277-6.054-.222c-.365-.5.644-8.93.644-8.93s.37-2.31 1.198-2.373c.827-.062 3.817 2.256 3.785 2.381-.409 1.616.52 1.519.427 9.144M75.869 232.14s-3.733.084-3.81-1.727c-.077-1.81 2.675-9.99 3.01-11.24.334-1.248 1.362-1.588 2.04-2.025.68-.437-.31 4.477-.62 8.66s-.62 6.332-.62 6.332M71.425 228.353c.002.24 1.772-5.683 1.84-6.869.067-1.186-.616-.499-1.269-.624s-.582 6.369-.571 7.493M70.786 220.774c.225-.375 4.852-4.66 4.852-4.66s1.224-.375 1.417-1.56c.192-1.187.64-5.183.723-6.432.085-1.25-.394-2.123-1.198-1.748s-2.167 1.498-3.003 1.124c-.836-.375-1.242-1.187-2.129-.438s-2.051 2.704-2.543 3.141c-.491.437 1.244 3.165 1.337 5.85s.544 4.723.544 4.723M80.018 206.286s-3.269-.6-3.761-1.91c-.494-1.312-.031-.945 1.69-1.773s1.385.724 1.825 1.841c.44 1.118.246 1.842.246 1.842M79.512 200.45s-4.514 2.677-7.09 2.74c-2.574.061-2.293-5.734-2.293-5.734l7.606-6.517s.84 8.578 1.777 9.51M69.887 191.45c0-.366 1.77-7.306 2.961-8.492s3.705-2.185 3.705-2.185-.001 4.433.258 6.493c.26 2.061-2.098 4.808-3.689 5.62-1.59.812-3.234 1.125-3.235-1.436M77.41 179.324s-4.9 1.636-5.793.075.51-2.372 1.018-2.872c.509-.5 4.646-2.616 4.82-2.804.176-.187.055 5.226-.046 5.6M68.98 189.523s2.673-6.066 2.321-7.315c-.352-1.248-1.774-1.997-1.688-4.183s.008-4.222-1.097-2.891c-1.106 1.33-1.718 2.38-1.718 2.38s2.797 10.55 2.181 12.009M77.27 172.51s-3.068 1.135-3.586 1.701c-.517.568-1.363 1.629-2.046 1.379-.681-.25-3.575-2.497-3.344-4.058.231-1.562 2.696-5.87 4.051-8.367s1.531-3.622 3.213-4.309 2.163.313 2.433.937-.859 11.064-.722 12.717M78.879 157.65s-2.492-1.604-2.81-2.54c-.318-.937-.977-2.905-.846-3.856.13-.952-.11-1.456.614-2.297.725-.84 6.623-2.59 7.647-3.151 1.024-.562 1.315-.25-.003 1.873s-3.347 6.79-3.347 6.79zM64.819 171.256s1.17.026 1.738-1.16.641-3.559 2.534-6.431c1.892-2.873 5.166-5.308 5.058-6.307-.107-1-.599-3.122-.677-3.996s-.162-1.124-.79-1.062c-.627.062-3.398 3.184-4.476 3.247s-2.167-.062-2.955 1.249-3.415 6.93-3.415 6.93 2.743 6.094 2.983 7.53M59.666 160.793c.175-.187 5.091-5.184 5.995-5.995.904-.812 1.505-1.89 1.733-2.507.227-.616-.404-1.056-1.167-3.333s-.375-3.028-1.345-2.902-7.542 6.494-5.718 4.808-3.164 4.085-2.03 6.145a29 29 0 0 0 2.532 3.784M69.736 143.558s-2.398 5.678-.639 5.4c1.76-.28 7.434-2.59 10.173-4.432 2.74-1.841 6.12-2.841 6.486-3.84s.466-1.873.6-2.248c.137-.374.35-.937-.552-1.061-.903-.125-5.712-.812-5.712-.812s-1.185 0-1.927.437c-.74.438-.64 2.623-2.859 3.684-2.218 1.062-3.703 1.25-4.365 1.624s-1.052.872-1.205 1.248M60.6 146.431s7.361-3.997 9.61-5.495 3.05-1.56 3.736-2.56 1.457-2.02 2.453-6.203.019-3.576-.6-3.825c-.62-.25-4.174-1.232-4.174-1.232s-3.06 2.656-3.727 3.28-2.739 3.672-3.98 5.045c-1.241 1.374-1.307 4.184-1.929 5.807s-1.758 4.632-1.366 4.794"/><path fill="none" stroke="#533d37" stroke-width=".563" d="M61.39 131.705s2.377.562-.541 9.366c-2.92 8.804-3.736 12.55-3.736 12.55s-1.307 2.436 1.329 5.527c2.635 3.09 8.737 13.862 10.34 29.2 0 0 1.945 11.261 1.599 13.603-.346 2.341-1.91 4.683-1.781 6.65.129 1.966 2.617 8.054 2.176 15.641 0 0-.675 20.7-4.02 31.096 1.952.749.924 2.486 2.173 3.07 1.247.582 4.423.259 5.897 0 0 0 2.942-1.197 2.318-7.098-.785-7.437-1.76-13.068-1.021-21.167.729-7.962.805-12.75 1.799-15.454.687-1.873 2.134-5.604 2.643-7.774.89-3.793-1.634-5.433-2.59-13.394-.959-7.96-.503-26.787-.062-30.533a32.3 32.3 0 0 1 3.647-11.52c2.032-3.747 8.245-16.11 10.135-24.914"/></g></svg>