<svg xmlns="http://www.w3.org/2000/svg" xml:space="preserve" width="67.226" height="130.619" viewBox="0.886 1.207 67.226 130.619"><title>Slice 1</title><g fill-rule="evenodd"><g fill-rule="nonzero"><path fill="#a2c3f4" d="m9.678 10.25.367-8.068-3.525-.335V9.93s-4.994 3.675-4.994 20.545c0 16.455 2.314 38.997 2.314 46.793l1.228 53.885H8.45c-.303-22.733-1.595-62.912-2.967-87.642C4.079 17.295 9.678 10.25 9.678 10.25"/><path fill="#d7e6ff" d="M67.186 28.43c-.542-14.106-4.785-18.484-4.785-18.484l-.176-7.732s-1.212.112-3.318.256l.303 8.115s4.132 5.464 4.403 32.958c.223 22.51-1.148 66.011-2.409 87.642h2.744s3.19-45.386 3.19-53.886.718-32.047.048-48.869"/><path fill="#b8d0ff" d="M63.613 43.511c-.271-27.494-4.403-32.926-4.403-32.926l-.367-8.083c-4.658.335-13.639.862-23.689.862s-20.036-.766-25.109-1.182l-.367 8.068s-5.6 7.045-4.195 33.261c1.308 24.73 2.664 64.909 2.967 87.642h15.585s6.238-41.808 7.067-50.483C32.14 69.935 34.5 36.146 34.5 36.146s5.344 36.552 5.95 43.805c.447 5.416 4.244 51.202 4.244 51.202h16.51c1.26-21.63 2.632-65.132 2.41-87.642"/></g><g stroke="#1062c4" stroke-linecap="round" stroke-linejoin="round"><path fill="#b8d0ff" fill-rule="nonzero" stroke-width="1.28" d="m34.5 36.146.016-32.814"/><path fill="none" stroke-width="1.28" d="M39.286 12.04v9.585c0 5.75-4.068 6.741-4.068 6.741"/><path fill="none" stroke-dasharray="2.56" stroke-width=".848" d="M16.314 11.432S14.13 26.305 1.638 26.305"/><path fill="none" stroke-width="1.28" d="M13.602 10.585S12.2 23.653 1.846 23.653"/><path fill="none" stroke-dasharray="2.56" stroke-width=".848" d="M53.02 11.432c.26 7.802 6.29 14.184 14.055 14.873"/><path fill="none" stroke-width="1.28" d="M55.238 11.08s2.026 11.503 11.63 12.414"/><path fill="none" stroke-width="1.28" d="M67.186 28.43c-.542-14.106-4.785-18.484-4.785-18.484l-.176-7.732s-1.212.112-3.318.256c-4.658.335-13.64.862-23.69.862s-20.1-.734-25.172-1.15L6.52 1.847V9.93s-4.994 3.675-4.994 20.545c0 16.455 2.314 38.997 2.314 46.793l1.228 53.885h18.967s6.238-41.808 7.067-50.483C32.14 69.935 34.5 36.146 34.5 36.146s5.344 36.552 5.95 43.805c.447 5.416 4.244 51.202 4.244 51.202h19.254s3.19-45.386 3.19-53.885c0-8.5.718-32.016.048-48.838"/></g><g stroke="#1062c4" stroke-linecap="round" stroke-linejoin="round"><path fill="#a2c3f4" fill-rule="nonzero" stroke-width="1.28" d="M6.52 1.847V9.93s19.892 1.95 28.634 1.742v-8.34s-11.82 0-28.635-1.485"/><path fill="#a2c3f4" fill-rule="nonzero" stroke-width="1.28" d="M33.272 3.317v8.275s17.085 1.102 29.065-1.598l-.176-7.732a206.6 206.6 0 0 1-28.89 1.055"/><ellipse cx="32.16" cy="6.167" fill="none" stroke-width=".848" rx="1.595" ry="1.598" transform="translate(5.786 1)"/></g><path fill="none" stroke="#8fbcf2" stroke-linecap="round" stroke-linejoin="round" stroke-width="1.28" d="M16.235 70.941a4.95 4.95 0 0 1 2.313 4.186 5.18 5.18 0 0 1-2.266 3.706M52.478 70.941a4.91 4.91 0 0 1 2.266 4.186 5.11 5.11 0 0 1-2.266 3.706"/></g></svg>