<svg xmlns="http://www.w3.org/2000/svg" xmlns:xlink="http://www.w3.org/1999/xlink" xml:space="preserve" width="187.566" height="85.084" viewBox="-0.237 0.196 187.566 85.084"><defs><path id="a" stroke-width="1" d="M18.7.656h8.899v10.927h-8.9z"/></defs><title>Slice 1</title><g fill-rule="evenodd"><path fill="#bb8e5d" d="M68.066 84.78H55.46c-2.812-12.95-2.908-11.377-4.235-16.286-.53-1.96-2.364-5.922-1.511-8.274s5.688-11.626 3.781-24.297 22.447-18.856 26.527-16.156 10.674 13.237 3.448 21.903S69.54 55.212 66.607 57.346c-2.936 2.134-6.021 4.756-6.986 6.314-.91 1.469-.74 1.444 1.182 12.454.638 1.924.266 2.264 1.66 2.134 1.395-.13 6.27-.984 6.27-.984s4.157-.41 3.16 2.29c-.871 2.359-2.312 4.225-3.827 5.226"/><path fill="none" stroke="#784e3d" stroke-width=".525" d="M68.066 84.78H55.46c-2.812-12.95-2.908-11.377-4.235-16.286-.53-1.96-2.364-5.922-1.511-8.274s5.688-11.626 3.781-24.297 22.447-18.856 26.527-16.156 10.674 13.237 3.448 21.903S69.54 55.212 66.607 57.346c-2.936 2.134-6.021 4.756-6.986 6.314-.91 1.469-.74 1.444 1.182 12.454.472 2.613.937 2.259 2.322 2.053 2.069-.308 5.894-.95 5.894-.95s3.87-.362 2.873 2.337c-.87 2.359-2.311 4.225-3.826 5.226Z"/><path fill="#784e3d" d="M65.194 80.469s.127-.092.362-.232c.119-.07.263-.152.434-.236.169-.092.366-.184.6-.211.227-.051.477-.099.747-.13.269-.033.556-.061.867-.035.303.018.65.077.961.302.166.1.273.278.369.45l.069.277.014.07c.002.025.007-.01.007.066l-.001.028-.007.113c.012.276-.091.662-.208.96l-.2.426-.237.383c-.15.256-.343.464-.501.682l-.5.559c-.15.178-.335.294-.499.393-.158.106-.31.179-.426.248-.24.131-.38.198-.38.198s.09-.13.25-.345c.08-.11.186-.23.287-.386.099-.159.213-.331.388-.47l.475-.53c.146-.203.33-.4.465-.634l.217-.348.173-.373c.09-.255.176-.455.172-.785l.005-.113.002-.028c.003.056-.003.005-.004.012l-.01-.04-.036-.163c-.06-.082-.098-.178-.197-.23-.17-.128-.428-.189-.685-.2a3.7 3.7 0 0 0-.766.03c-.247.03-.482.074-.697.123-.11.016-.208.064-.31.072l-.293.018-.482.04z"/><path fill="#bb8e5d" d="m151.372 42.803-3.21 5.226 18.443 10.567s1.269.797.7 3.846l-.788 4.964s-.394 1.698.525 2.918l3.546 4.702s1.532 2.047-1.97 2.396-3.502.261-5.122 0c-1.619-.261-2.625-3.18-5.033-6.445s-3.377-3.919-2.893-5.008c.485-1.089 2.513-2.787.441-4.006-1.173-.69-11.993-3.876-15.408-4.529l-7.879-1.263s3.064-8.473 3.546-12.28-2.101-10.842-2.101-10.842l21.988-2.214s-3.687 9.236-4.786 11.968"/><path fill="none" stroke="#784e3d" stroke-width=".525" d="m151.372 42.803-3.21 5.226 18.443 10.567s1.269.797.7 3.846l-.788 4.964s-.394 1.698.525 2.918l3.546 4.702s1.532 2.047-1.97 2.396-3.502.261-5.122 0c-1.619-.261-2.625-3.18-5.033-6.445s-3.377-3.919-2.893-5.008c.485-1.089 2.63-2.961.441-4.006-1.229-.587-11.993-3.876-15.408-4.529l-7.879-1.263s3.064-8.473 3.546-12.28-2.101-10.842-2.101-10.842l21.988-2.214s-3.687 9.236-4.786 11.968Z"/><path fill="#784e3d" d="M167.261 73.285s.159.075.413.246c.126.087.278.194.446.334.085.068.17.148.263.233.088.092.141.216.213.339.068.126.128.272.165.445.023.174.028.41-.118.597-.138.181-.205.236-.333.363-.13.106-.253.238-.402.323a3.6 3.6 0 0 1-.945.461 5 5 0 0 1-1.044.218c-.352.036-.705.036-1.049.036-.345-.029-.672-.044-1.01-.083-.32-.057-.611-.076-.917-.16l-.437-.108-.4-.15a1.3 1.3 0 0 1-.612-.464 2 2 0 0 1-.287-.5c-.115-.285-.16-.45-.16-.45l.325.344c.1.108.227.225.39.32.086.042.159.1.266.125.106.025.17.117.29.147q.165.06.343.129l.388.095c.258.075.584.1.892.156.294.032.624.05.946.077.322 0 .653 0 .975-.033.322-.041.64-.092.936-.195.296-.095.571-.227.81-.394.13-.072.22-.177.328-.26.09-.085.242-.24.273-.293.082-.086.032-.308-.078-.503-.045-.102-.129-.179-.173-.277a5.614 5.614 0 0 0-.426-.73z"/><path fill="#dcb285" d="M172.007 10.076s5.219 2.652 7.758 5.438l-.38-1.393s2.627.958 3.91 2.003c0 0-.641-4.035-4.026-6.706 0 0 .962-.087 1.955.523 0 0-8.039-7.726-15.408-7.751-5.37-.02-8.463 1.974-9.164 2.293-.7.32-3.18 1.684-5.048 1.597-1.868-.088-6.77-1.772-11.731.231 0 0 1.605.204 2.071.669 0 0-2.013-.262-6.361 2.06 0 0 2.247-.203 2.539.436 0 0-5.136 1.19-9.514 3.745 0 0 1.226-.29 2.218-.232-.144-.005-2.183 1.432-3.793 1.974-4.583 1.538-10.36 3.454-32.247.552-21.887-2.904-24.863-2.381-26.03-2.323s-2.566.638-3.97 1.51c-2.1 1.451-10.096 5.588-11.73 14.688-3.444 24.328 21.186 8.71 27.372 13.238 15 13.006 29.358 12.774 29.358 12.774 12.315-.117 20.369-6.968 27.723-9.754 7.354-2.787 14.124-4.878 23.17-1.626l2.627-1.626s1.81 1.336 1.985 2.09c0 0 1.46-1.277 1.517-2.438 0 0 .934.232 1.225.928 0 0 1.226-.928.526-2.031 0 0 2.335.697 2.685 3.31 0 0 2.626-3.078 2.51-8.187 0 0 .758.347.875 1.335 0 0 .428-2.16 2.762-4.366l-4.142-1.52c4.582.784 6.662 3.912 7.275 2.838 1.173-2.056 3.677-4.878 5.34-6.88 1.663-2.004.671-2.642.671-2.642l-4.552-4.297c0-2.786-1.325-5.895-1.325-5.895"/><path fill="none" stroke="#784e3d" stroke-width=".525" d="M172.007 10.076s5.219 2.652 7.758 5.438l-.38-1.393s2.627.958 3.91 2.003c0 0-.641-4.035-4.026-6.706 0 0 .962-.087 1.955.523 0 0-8.039-7.726-15.408-7.751-5.37-.02-8.463 1.974-9.164 2.293-.7.32-3.18 1.684-5.048 1.597-1.868-.088-6.77-1.772-11.731.231 0 0 1.605.204 2.071.669 0 0-2.013-.262-6.361 2.06 0 0 2.247-.203 2.539.436 0 0-5.136 1.19-9.514 3.745 0 0 1.226-.29 2.218-.232-.144-.005-2.183 1.432-3.793 1.974-4.583 1.538-10.36 3.454-32.247.552-21.887-2.904-24.863-2.381-26.03-2.323s-2.566.638-3.97 1.51c-2.1 1.451-10.096 5.588-11.73 14.688-3.444 24.328 21.186 8.71 27.372 13.238 15 13.006 29.358 12.774 29.358 12.774 12.315-.117 20.369-6.968 27.723-9.754 7.354-2.787 14.124-4.878 23.17-1.626l2.627-1.626s1.81 1.336 1.985 2.09c0 0 1.46-1.277 1.517-2.438 0 0 .934.232 1.225.928 0 0 1.226-.928.526-2.031 0 0 2.335.697 2.685 3.31 0 0 2.626-3.078 2.51-8.187 0 0 .758.347.875 1.335 0 0 .428-2.16 2.762-4.366l-4.142-1.52c4.582.784 6.662 3.912 7.275 2.838 1.173-2.056 3.677-4.878 5.34-6.88 1.663-2.004.671-2.642.671-2.642l-4.552-4.297c0-2.786-1.325-5.895-1.325-5.895"/><path fill="#ac612a" d="M173.199 31.653c.059-.087 3.6.769 4.056 1.543 0 0-2.155 1.717-2.348 3.15-.414 3.084-.273.162-1.39-.358 0 0 .767 3.788-2.287 8.184 0 0-1.152-3.3-3.108-3.417 0 0 1.418.824-.208 2.352 0 0-.222-1.328-1.214-1.067 0 0-.624 1.605-1.47 2.534 0 0-1.266-2.066-1.984-2.09l-2.627 1.625s-5.87-2.069-10.432-1.613c0 0 7.28-10.3 5.383-17.297l-.886 2.374s.285-4.693-1.291-7.72l-.603 1.852s-.072-3.647-1.969-5.737c0 0 .039 1.997-.175 2.754 0 0-.908-2.94-1.346-3.625-.438-.686-1.226-1.742-1.784-2.166l-.306.61s-1.97-3.114-5.899-2.428c-4.439.775-9.736 3.492-11.939 3.919-2.473.478-3.02.38-3.02.38s3.71-1.785 4.29-2.22c0 0-.668-.305-1.182-.261 0 0 6.106-3.14 8.6-3.368-.064.007-.645-.508-2.001-.66 0 0 3.361-2.06 5.78-1.875 0 0-.593-.422-1.502-.695-.055 0 3.438-1.145 5.976-.873 2.54.272 5.384 1.156 7.08.514s8.864-4.888 14.98-3.287c6.119 1.6 12.385 6.968 12.385 6.968s-1.222-.28-1.55-.15c0 0 3.699 3.327 3.928 6.528 0 0-3.545-1.829-3.895-1.894l.435 1.359s-3.51-3.025-7.746-5.518c-.049-.03-.021-1.075-.348-1.208-.762-.31-2.153.223-3.607-.249-.554-.18-2.037-2.325-2.578-2.473-.507-.138-.492 1.558-.94 1.524-2.32-.174-2.967.155 1.046 3.452 7.402 5.518 7.287 9.36 7.571 10.339 0 0-1.46-.945-2.183-.215 0 0 3.447 3.82 2.52 8.789 0 0-1.163-.984-1.415-1.104z"/><path fill="none" stroke="#784e3d" stroke-width=".525" d="M171.947 10.163s5.218 2.652 7.757 5.439l-.38-1.394s2.626.958 3.91 2.003c0 0-.64-4.035-4.026-6.706 0 0 .963-.087 1.955.523 0 0-8.04-7.725-15.408-7.751-5.37-.02-8.463 1.974-9.163 2.293s-3.182 1.684-5.049 1.597c-1.867-.088-6.77-1.772-11.731.232 0 0 1.605.203 2.072.668 0 0-2.013-.262-6.362 2.06 0 0 2.247-.203 2.539.436 0 0-5.137 1.19-9.514 3.745 0 0 1.226-.29 2.219-.232-.145-.005-2.183 1.432-3.795 1.974-4.581 1.538-10.36 3.454-32.246.552-21.887-2.904-24.863-2.381-26.03-2.323s-2.565.638-3.969 1.51c-2.101 1.451-10.097 5.588-11.731 14.688-3.444 24.328 21.186 8.71 27.372 13.238 15 13.006 29.358 12.774 29.358 12.774 12.315-.117 20.369-6.967 27.723-9.754s14.124-4.878 23.171-1.626l2.627-1.626s1.808 1.336 1.983 2.09c0 0 1.46-1.277 1.518-2.438 0 0 .934.232 1.226.929 0 0 1.226-.93.525-2.032 0 0 2.334.697 2.684 3.31 0 0 2.627-3.078 2.51-8.187 0 0 .76.347.876 1.335 0 0 .428-2.16 2.763-4.366l-4.142-1.52c4.58.784 6.66 3.912 7.274 2.838 1.173-2.056 3.677-4.877 5.34-6.88 1.664-2.004.671-2.642.671-2.642l-4.552-4.296c0-2.787-1.325-5.896-1.325-5.896"/><path fill="#784e3d" d="M165.23 10.956c1.037.468 2 1.092 2.925 1.77.471.33.861.756 1.27 1.155q.606.613 1.142 1.286a14.5 14.5 0 0 1 1.831 2.912 12.5 12.5 0 0 1 1.028 3.286l.082.478-.456-.201c-.633-.279-1.417-.492-2.008-.282l.097-.421c.285.319.52.64.75.979q.335.508.62 1.046c.19.36.357.73.513 1.104l.208.571c.075.189.119.388.179.582q.09.29.15.59c.038.199.087.396.119.596.051.403.118.805.123 1.212.006.203.03.406.018.608l-.023.61c-.014.405-.094.805-.138 1.208l-.07.624-.398-.51a4.3 4.3 0 0 0-.516-.528c-.096-.073-.183-.162-.28-.228-.094-.079-.196-.125-.295-.184l.264-.315c.34.688.612 1.388.795 2.123.09.366.162.74.17 1.118.01.187-.002.378-.026.564a2.5 2.5 0 0 1-.137.542c.042-.182.076-.363.077-.547a3 3 0 0 0-.037-.549 5.6 5.6 0 0 0-.27-1.062c-.24-.69-.575-1.357-.953-1.97l-.337-.55.603.235c.14.053.288.104.41.18.134.068.247.153.36.242.22.184.402.387.59.61l-.467.115c.04-.384.117-.765.13-1.151l.023-.58c.012-.193-.012-.386-.017-.58-.005-.386-.07-.768-.117-1.151-.03-.191-.078-.379-.115-.568a5 5 0 0 0-.142-.563c-.058-.184-.098-.374-.17-.555l-.2-.545c-.149-.358-.308-.712-.488-1.055a12 12 0 0 0-.594-1 9 9 0 0 0-.695-.911l-.26-.293.357-.13c.432-.157.87-.138 1.27-.069.406.076.779.196 1.157.368l-.374.277a12 12 0 0 0-.985-3.149 14 14 0 0 0-1.767-2.807q-.52-.651-1.106-1.248c-.382-.406-.82-.753-1.21-1.155a19.3 19.3 0 0 0-2.61-2.134M145.152 11.624c.398.254.778.535 1.144.835.178.157.36.308.525.483.174.163.32.354.476.537l-.183.014.271-.627.073-.171.154.125c.476.393.887.83 1.272 1.303.197.23.365.485.518.746.148.264.303.526.434.799.268.543.5 1.105.67 1.687.094.289.159.585.226.88.069.296.1.598.153.896l-.496-.083c.038-.089.083-.207.116-.316.04-.11.063-.228.093-.342.05-.232.095-.467.11-.706.03-.237.022-.478.023-.717-.005-.24-.043-.48-.06-.718l-.066-.867.527.662c.109.136.183.255.265.385q.119.194.22.39c.141.262.26.533.37.805.22.547.387 1.11.521 1.68.136.569.222 1.146.29 1.724.064.58.09 1.16.102 1.74l-.516-.067.788-2.787.205-.725.288.69c.29.695.498 1.388.674 2.1.172.711.307 1.43.389 2.157.083.726.13 1.457.12 2.188.006.367-.024.731-.04 1.097-.01.366-.094.726-.152 1.086l-.43-.122c.258-.497.508-1.004.74-1.515.225-.514.475-1.022.604-1.573-.024.282-.08.562-.146.838q-.107.414-.235.82a33 33 0 0 1-.55 1.612l-.47 1.275.04-1.397c.02-.713.125-1.414.114-2.124.01-.71-.036-1.419-.118-2.124a17 17 0 0 0-.376-2.093 14 14 0 0 0-.643-2.013l.493-.035-.788 2.787-.48 1.694-.036-1.763a19 19 0 0 0-.1-1.69 14 14 0 0 0-.279-1.663 11 11 0 0 0-.496-1.602 8 8 0 0 0-.348-.757 4.6 4.6 0 0 0-.423-.684l.461-.204c.021.258.06.517.065.777.001.26.008.521-.025.781-.017.26-.066.52-.12.776-.034.127-.06.256-.105.383-.04.129-.082.247-.146.387l-.347.763-.149-.847c-.05-.284-.08-.571-.146-.851-.063-.281-.124-.563-.214-.837a10 10 0 0 0-.637-1.606c-.244-.526-.582-.996-.884-1.489a8.7 8.7 0 0 0-1.062-1.37l.227-.046-.342.593-.084.145-.099-.132c-.138-.184-.264-.377-.425-.546-.148-.18-.314-.344-.477-.512a12 12 0 0 0-1.068-.919"/><path fill="#bb8e5d" d="M165.722 4.72c.318-1.573 1.376-3.982 3.127-3.764 1.046.13 2.567 1.234 2.732 5.704.122 3.307-.66 4.502-3.49 4.494-1.124-.004-3.267-1.993-2.37-6.434"/><path fill="#fbf3ed" d="m180.324 20.9-2.801-.523-2.364-3.68 4.109 1.176s.997 2.185 1.056 3.026"/><path fill="#311a14" d="M184.46 27.126s-1.05-.827-.83-2.43c.184-1.359.809-1.924 2.917.29.754.79-.202 1.931-.602 2.408-.4.478-.828.21-1.484-.268"/><path fill="none" stroke="#311a14" stroke-width=".5" d="m180.324 20.9-.634-2.7s.034-.256-1.423-.697c-1.51-.457-3.108-.806-3.108-.806l2.364 3.68z"/><path fill="#311a14" d="M178.595 20.453s-.722-.479-.569-1.59c.075-.544.67-1.14 1.242-.99.71.185 1.056 3.026 1.056 3.026l-2.22-.414"/><path fill="#23110a" d="M175.327 26.11s.007.167.095.43c.04.13.109.282.192.447.084.168.224.327.307.535.106.197.239.404.408.605.16.206.355.407.57.6.426.398.937.743 1.488 1.08.546.338 1.092.674 1.612.965.518.288 1.016.53 1.438.632.102.023.205.036.294.037a.966.966 0 0 0 .697-.052c.12-.06.218-.114.278-.16l.099-.068c-.011-.007-.052.16-.255.39a1.3 1.3 0 0 1-.475.33 1.2 1.2 0 0 1-.363.09c-.132.001-.26-.036-.392-.057-.522-.128-1.043-.39-1.578-.687a43 43 0 0 1-1.633-.978c-.548-.333-1.11-.71-1.567-1.137a5.3 5.3 0 0 1-.624-.659 4 4 0 0 1-.46-.683c-.154-.21-.174-.466-.214-.67a2.6 2.6 0 0 1-.016-.54c.028-.298.1-.45.1-.45"/><mask id="b" fill="#fff"><use xlink:href="#a"/></mask><path fill="#784e3d" d="m172.073 11.624-.188-.915-.198-1.052-.123-.646c-.04-.229-.038-.474-.07-.726l-.325-3.456c-.077-.614-.199-1.252-.417-1.848-.22-.59-.556-1.16-1.064-1.476a1.77 1.77 0 0 0-.84-.272c-.067-.003-.17-.019-.207-.014l-.253.023c-.171.017-.27.064-.414.105-.547.221-.972.69-1.277 1.21-.315.518-.531 1.08-.715 1.621l-.265.81c-.089.255-.156.494-.223.74-.11.492-.264.941-.454 1.333-.098.195-.188.383-.364.537-.071.087-.257.118-.314.106l-.237.005a3.3 3.3 0 0 1-.705-.145c-.154-.044-.233-.076-.233-.076s.085.015.245.024c.16.018.39.019.666.004.138-.044.348-.034.381-.125.08-.1.142-.28.192-.467.094-.384.16-.843.316-1.331.066-.244.142-.516.234-.777l.263-.804c.19-.559.416-1.153.763-1.724.336-.567.826-1.138 1.535-1.426.173-.06.396-.128.56-.14l.251-.023c.131-.01.198.01.3.013.375.018.752.151 1.076.351.658.415 1.033 1.092 1.276 1.737.24.659.364 1.32.445 1.964l.325 3.456c.017.253.066.492.068.726l.001.662.001 1.076z" mask="url(#b)"/><path fill="none" stroke="#784e3d" stroke-width=".525" d="M166.081 3.181s-2.412 7.775 2.621 8.051c3.025.166 2.954-4.308 2.84-5.48" mask="url(#b)"/><path fill="#dcb285" d="M56.101 22.313s-19.89 13.141-36.213 7.592C2.838 23.203 4.73 9.942 5.036 8.163s.76-3.737-.792-4.056C2.69 3.787-1.028 8.959.72 16.713c1.747 7.753 10.44 15.537 17.696 17.843 8.491 2.607 20.396 3.618 34.527-2.575"/><path fill="none" stroke="#784e3d" stroke-width=".525" d="M56.101 22.313s-19.89 13.141-36.213 7.592C2.838 23.203 4.73 9.942 5.036 8.163s.76-3.737-.792-4.056C2.69 3.787-1.028 8.959.72 16.713c1.747 7.753 10.44 15.537 17.696 17.843 8.491 2.607 20.396 3.618 34.527-2.575"/><path fill="#dcb285" d="M87.462 32.44s4.576 11.347-10.2 22.643c-3.296 2.518-4.551 3.614-4.551 3.614 1.553.63 14.386 3.335 15.757 5.425l3.109 7.247s2.888 5.535 1.51 6.531c-2.829 2.045-7.289-.402-7.434-.663 0 0-2.335-7.538-2.83-8.873-2.992-1.77-19.829-2.083-19.829-2.083s-1.929.38-2.759-2.358c-.832-2.744-.102-5.446-.875-11.105-.613-4.485-1.454-4.956-5.657-13.49"/><path fill="none" stroke="#784e3d" stroke-width=".525" d="M87.462 32.44s4.576 11.347-10.2 22.643c-3.296 2.518-4.551 3.614-4.551 3.614 1.553.63 14.386 3.335 15.757 5.425l3.109 7.247s2.888 5.535 1.51 6.531c-2.829 2.045-7.289-.402-7.434-.663 0 0-2.335-7.538-2.83-8.873-2.992-1.77-19.829-2.083-19.829-2.083s-1.929.38-2.759-2.358c-.832-2.744-.102-5.446-.875-11.105-.613-4.485-1.454-4.956-5.657-13.49"/><path fill="#784e3d" d="M89.181 72.756s.113.1.293.289c.088.096.199.212.312.354.105.147.268.294.347.505.181.41.393.897.462 1.494.027.295.021.641-.16.967a1.2 1.2 0 0 1-.375.4c-.165.096-.246.151-.426.22-.62.261-1.281.226-1.841.099-.566-.127-1.05-.341-1.452-.538-.1-.05-.193-.101-.288-.14-.088-.05-.154-.13-.225-.188l-.346-.325a6 6 0 0 1-.283-.3s.148.039.393.12l.447.137c.084.028.182.04.268.085.082.051.174.095.268.144.379.186.833.385 1.334.495.249.06.509.087.767.083.257 0 .523-.058.746-.15.096-.027.263-.128.347-.176a.65.65 0 0 0 .208-.221c.102-.177.12-.421.095-.66-.055-.483-.241-.947-.42-1.323-.104-.183-.125-.389-.19-.551l-.146-.436z"/><path fill="#dcb285" d="M130.508 37.01c1.107 5.4-7.153 13.456-7.153 13.456 1.689 4.355 1.392 11.407 2.474 20.423 1.037 8.645 2.633 13.891 2.633 13.891h12.987c3.703-1.916 3.924-5.893 3.449-6.88s-1.895-.813-6.069.116c-4.173.93-3.744-.712-3.935-1.277-.209-1.323-.933-5.4 1.956-16.78s11.82-22.179 11.82-22.179-.472-1.453-.926-2.51c-3.92-9.16-17.975-1.863-17.236 1.74"/><path fill="none" stroke="#784e3d" stroke-width=".525" d="M130.508 37.01c.466 6.62-7.153 13.456-7.153 13.456 1.689 4.355 1.392 11.407 2.474 20.423 1.037 8.645 2.633 13.891 2.633 13.891h12.987c3.444-1.857 3.924-5.893 3.449-6.88s-1.895-.813-6.069.116c-4.173.93-3.744-.712-3.935-1.277-.209-1.323-.933-5.4 1.956-16.78s11.82-22.179 11.82-22.179"/><path fill="#784e3d" d="M137.428 80.251s.155-.118.447-.286l.535-.295c.202-.134.464-.182.744-.254.562-.133 1.227-.29 2-.228.371.034.85.153 1.141.573.28.422.183.932.138 1.265-.052.382-.171.79-.317 1.146-.168.355-.357.7-.608.983-.478.59-1.087.963-1.609 1.226-.256.15-.538.173-.764.234a9 9 0 0 1-.6.106c-.332.046-.523.059-.523.059l.471-.23c.15-.07.33-.16.528-.27.205-.099.406-.266.654-.37.248-.112.495-.266.745-.441.244-.181.488-.391.694-.647.22-.245.38-.546.53-.856.129-.33.226-.644.278-1.006.06-.393.088-.69-.056-.912-.136-.206-.436-.314-.754-.34-.642-.054-1.289.086-1.82.214-.269.065-.504.163-.74.166l-.593.083z"/></g></svg>