<svg xmlns="http://www.w3.org/2000/svg" xml:space="preserve" width="188.74" height="81.152" viewBox="47.681 48.074 188.74 81.152"><title>snake-a</title><g fill-rule="evenodd"><path fill="#f4c5a6" d="m210.276 66.234 11.708 34.955s2.425 7.495.04 14.408c-2.386 6.914-11.383 14.454-23.2 12.93-9.968-1.284 11.844-1.851 13.145-11.595s-9.426-50.844-9.426-50.844 5.144-.017 7.733.146M170.146 100.5c-.176.137-5.19-1.07-6.76 3.687-.849 2.569-1.94 15.793-5.993 19.148-3.788 3.137-5.516 5.845-13.997 5.296-8.17-.528-7.448-2.41-7.285-2.2s12.46.11 13.164-4.736c.705-4.845 3.74-23.897 13.227-23.897s10.083.796 7.644 2.701"/><path fill="none" stroke="#e7a06b" stroke-width=".5" d="M210.276 66.234s10.855 31.754 11.505 34.204 4.147 13.717-3.903 21.72c-8.05 8.001-16.832 6.144-18.702 6.262"/><path fill="#f4c5a6" d="M108.293 98.968c-.177.138-4.754-1.845-6.323 2.91-.849 2.57-.699 17.179-4.751 20.535-3.788 3.136-5.106 4.53-13.416 2.745-6.79-1.46-6.329-5.632-6.166-5.423.163.21 11.045 4.533 11.75-.312s3.74-23.898 13.227-23.898 8.118 1.537 5.679 3.443"/><path fill="none" stroke="#e7a06b" stroke-width=".5" d="M170.317 100.805s-4.806-1.756-6.839 3.143c-2.033 4.9-.366 19.761-12.93 24.007-6.016 2.123-14.988-.871-14.988-.871M108.778 99.588s-5.933-3.804-7.126 3.708c-1.005 6.33.596 15.187-6.153 20.821-5.041 4.083-14.23.572-17.298-1.304"/><path fill="#e7a06b" d="M205.152 73.102s1.89-.1 3.78-.16c.474-.02.947-.048 1.39-.055.443.005.857.021 1.211.055.708.064 1.181.16 1.181.16v.045s-.473.096-1.181.16c-.354.034-.768.05-1.211.055-.443-.007-.916-.034-1.39-.054-1.89-.06-3.78-.16-3.78-.16zM207.353 79.96s1.89-.1 3.781-.16c.473-.02.946-.047 1.389-.054.443.005.857.021 1.211.055.709.064 1.182.16 1.182.16v.045s-.473.096-1.182.16c-.354.034-.768.05-1.211.055-.443-.007-.916-.034-1.389-.055-1.89-.058-3.78-.16-3.78-.16zM209.386 86.126s1.89-.101 3.781-.16c.473-.02.946-.048 1.389-.055.443.005.857.021 1.211.054.709.065 1.181.16 1.181.16v.046s-.472.096-1.18.16c-.355.034-.77.05-1.212.055-.443-.007-.916-.034-1.389-.055-1.89-.059-3.78-.16-3.78-.16zM211.744 92.903s1.89-.1 3.781-.16c.473-.02.946-.048 1.389-.055.443.005.857.021 1.211.055.709.064 1.182.16 1.182.16v.045s-.473.096-1.182.16c-.354.034-.768.05-1.211.055-.443-.007-.916-.034-1.389-.055-1.89-.058-3.78-.16-3.78-.16zM212.755 99.802s2.21-.1 4.422-.16c.553-.02 1.106-.047 1.624-.054a21 21 0 0 1 1.417.054c.829.065 1.382.16 1.382.16v.046s-.553.096-1.382.16c-.415.034-.899.05-1.417.055-.518-.007-1.071-.034-1.624-.055-2.212-.059-4.422-.16-4.422-.16zM213.934 106.865s2.21-.1 4.422-.16c.553-.02 1.106-.047 1.624-.055.519.006 1.002.022 1.417.055.829.065 1.382.16 1.382.16v.046s-.553.096-1.382.16c-.415.034-.898.05-1.417.055-.518-.007-1.071-.034-1.624-.055-2.212-.059-4.422-.16-4.422-.16zM213.934 113.602s2.21-.1 4.422-.16c.553-.02 1.106-.048 1.624-.055.519.005 1.002.021 1.417.055.829.064 1.382.16 1.382.16v.045s-.553.096-1.382.16c-.415.034-.898.05-1.417.055-.518-.007-1.071-.034-1.624-.054-2.212-.06-4.422-.16-4.422-.16zM212.227 120.338s1.77-.1 3.539-.16c.443-.02.886-.048 1.3-.055.415.005.802.022 1.135.055.663.065 1.106.16 1.106.16v.046s-.443.095-1.106.16c-.333.034-.72.05-1.135.055-.414-.007-.857-.034-1.3-.055-1.77-.059-3.54-.16-3.54-.16zM208.119 125.36s1.382-.1 2.765-.16c.346-.02.691-.048 1.016-.055.324.005.626.022.886.055.518.064.863.16.863.16v.046s-.345.095-.863.16c-.26.034-.562.05-.886.055-.325-.008-.67-.034-1.016-.055-1.383-.06-2.765-.16-2.765-.16zM157.393 101.585s1.89-.1 3.78-.16c.474-.02.947-.048 1.39-.055.443.005.856.022 1.21.055.71.065 1.182.16 1.182.16v.046s-.473.095-1.181.16c-.355.034-.768.05-1.211.055-.443-.008-.916-.034-1.39-.055-1.89-.059-3.78-.16-3.78-.16zM155.55 106.103s1.89-.1 3.78-.16c.474-.02.947-.047 1.39-.055.443.006.856.022 1.21.055.71.065 1.182.16 1.182.16v.046s-.473.096-1.181.16c-.355.034-.768.05-1.211.055-.443-.007-.916-.034-1.39-.055-1.89-.059-3.78-.16-3.78-.16zM154.14 112.146s1.89-.1 3.781-.16c.473-.02.946-.048 1.389-.055.443.005.857.021 1.211.055.709.064 1.182.16 1.182.16v.046s-.473.095-1.182.16c-.354.033-.768.05-1.211.054-.443-.007-.916-.034-1.389-.055-1.89-.058-3.78-.16-3.78-.16zM153.07 118.079s1.792-.1 3.584-.16c.448-.02.897-.048 1.316-.056.421.006.813.023 1.15.056.671.065 1.12.16 1.12.16v.046s-.449.095-1.12.16c-.337.034-.729.05-1.15.055-.42-.008-.868-.034-1.316-.055a173 173 0 0 1-3.584-.16zM151.017 123.033s1.593-.1 3.187-.16c.4-.02.798-.048 1.171-.055.374.005.723.021 1.022.055.597.064.996.16.996.16v.045s-.399.096-.996.16c-.3.034-.648.05-1.022.055-.373-.007-.771-.034-1.17-.055-1.595-.058-3.188-.16-3.188-.16zM147.067 126.408s1.632-.101 3.266-.16c.408-.02.816-.048 1.199-.056.382.006.74.022 1.046.056.612.064 1.02.16 1.02.16v.045s-.408.096-1.02.16c-.307.034-.664.05-1.046.056-.383-.008-.791-.035-1.2-.056-1.633-.058-3.265-.16-3.265-.16zM96.665 99.625s1.632-.1 3.266-.16c.408-.02.816-.047 1.199-.055.382.006.74.022 1.046.055.613.065 1.02.16 1.02.16v.046s-.407.095-1.02.16c-.306.034-.664.05-1.046.056-.383-.008-.791-.035-1.2-.056-1.633-.059-3.265-.16-3.265-.16zM94.991 104.035s1.633-.1 3.266-.16c.408-.02.817-.048 1.2-.055.382.005.739.022 1.045.055.613.065 1.02.16 1.02.16v.046s-.407.095-1.02.16c-.306.034-.663.05-1.046.055-.382-.008-.79-.034-1.199-.055-1.633-.06-3.266-.16-3.266-.16zM94.646 109.478s1.632-.1 3.266-.16c.408-.02.816-.047 1.199-.055.382.006.74.022 1.046.055.612.065 1.02.16 1.02.16v.046s-.408.095-1.02.16c-.307.034-.664.05-1.046.056-.383-.008-.791-.035-1.2-.056-1.633-.059-3.266-.16-3.266-.16zM93.805 115.235s1.633-.1 3.266-.16c.408-.02.817-.048 1.2-.055.382.005.739.022 1.045.055.613.064 1.02.16 1.02.16v.046s-.407.095-1.02.16c-.306.034-.663.05-1.046.055-.382-.008-.79-.034-1.199-.055-1.633-.06-3.266-.16-3.266-.16zM92.301 119.712s1.633-.1 3.267-.16c.407-.02.816-.047 1.198-.055.383.006.74.022 1.046.055.613.065 1.021.16 1.021.16v.046s-.408.096-1.02.16c-.307.034-.664.05-1.047.055-.382-.007-.79-.034-1.198-.055-1.634-.059-3.267-.16-3.267-.16zM88.466 123.574s1.857-.075 3.715-.11c.465-.013.93-.034 1.364-.036.436.012.842.033 1.189.072a12 12 0 0 1 1.159.176l-.001.046s-.465.089-1.163.144c-.348.028-.755.039-1.19.038-.435-.013-.9-.046-1.363-.074-1.856-.084-3.711-.21-3.711-.21z"/><path fill="none" stroke="#ea7b61" stroke-width=".65" d="M231.384 65.912s1.518 1.307 1.518 2.995c0 1.687-1.708 2.749-3.226 4.042s-2.25 2.6-2.25 4.014c0 1.416 1.058 3.267 3.253 3.267s3.063-1.688 3.307-2.069"/><path fill="#ea7b61" d="M233.633 78.087c.003-.014.075-.104.157-.303.048-.096.077-.217.124-.345.022-.13.07-.274.076-.419s.03-.297.003-.433c-.022-.136-.016-.277-.062-.38-.07-.222-.119-.37-.119-.37l.213.331c.077.097.107.234.168.374.068.142.085.304.122.467s.027.33.04.488c-.012.155-.01.306-.035.431-.032.252-.102.44-.094.427z"/><path fill="#ea7b61" d="M233.637 78.101c-.006.014.106-.152.292-.323.088-.093.21-.179.33-.279.137-.08.267-.184.42-.248.154-.065.296-.144.449-.17.149-.03.279-.086.401-.08l.392-.016-.368.116c-.111.022-.222.108-.345.17-.127.056-.235.165-.35.253-.114.087-.203.21-.297.303-.076.113-.158.206-.207.302-.115.182-.147.293-.157.304z"/><path fill="#4b9095" d="M196.98 62.796s1.138 3.429 8.945 3.429c7.806 0 23.933.136 24.557 0s1.463-.735 3.008-1.715 2.114-1.633 0-2.45c-2.114-.816-35.327-13.089-35.327-13.089s-1.709-.889-3.335-.007c-1.626.883-3.266 1.749-3.512 2.1-.247.352-1.41.953-.11 5.444 1.379 4.762 10.49 38.296 11.385 43.848.894 5.553 1.668 9.312-2.398 9.639-3.741.3-5.409-4.25-11.833-14.457-6.423-10.206-16.385-13.88-26.346-13.472-12.132.497-16.06 7.798-17.117 14.004s.936 12.003-4.675 12.493-10.083-10.085-13.66-15.148c-3.579-5.062-15.553-18.611-30.29-13.595-11.995 4.083-10.45 16.698-10.45 16.698s2.067 16.521-3.496 16.82c-12.116.654-34.145-47.514-34.145-47.514s5.847 21.794 17.353 43.065c6.187 11.437 13.89 17.637 22.985 14.105 6.099-2.368 5.557-11.492 5.882-14.921.325-3.43.122-9.268 5.041-10.615 5.186-1.42 13.052 2.653 20.777 13.84s9.757 16.412 21.142 16.412 11.953-11.758 12.197-14.78c.244-3.02 1.463-13.88 9.839-13.717 8.375.163 10.896 4.49 14.555 10.697 3.66 6.205 10.327 19.923 22.443 18.371s13.254-13.39 13.01-16.902c-.243-3.51-.68-10.285-5.204-25.476-4.536-15.232-5.69-19.94-5.69-19.94"/><path fill="#fbac77" d="M210.52 57.373c-.401 2.588-3.537 4.245-7.005 3.702s-5.953-3.08-5.551-5.669c.402-2.587 3.539-4.245 7.007-3.701 3.466.542 5.952 3.08 5.55 5.668"/><path fill="none" stroke="#2b535a" stroke-width=".5" d="M196.98 62.796s1.138 3.429 8.945 3.429c7.806 0 23.933.136 24.557 0s1.463-.735 3.008-1.715 2.114-1.633 0-2.45c-2.114-.816-35.327-13.089-35.327-13.089s-1.709-.889-3.335-.007c-1.626.883-3.266 1.749-3.512 2.1-.247.352-1.41.953-.11 5.444 1.379 4.762 10.49 38.296 11.385 43.848.894 5.553 1.668 9.312-2.398 9.639-3.741.3-5.409-4.25-11.833-14.457-6.423-10.206-16.385-13.88-26.346-13.472-12.132.497-16.06 7.798-17.117 14.004s.936 12.003-4.675 12.493-10.083-10.085-13.66-15.148c-3.579-5.062-15.553-18.611-30.29-13.595-11.995 4.083-10.45 16.698-10.45 16.698s2.067 16.521-3.496 16.82c-12.116.654-34.145-47.514-34.145-47.514s5.847 21.794 17.353 43.065c6.187 11.437 13.89 17.637 22.985 14.105 6.099-2.368 5.557-11.492 5.882-14.921.325-3.43.122-9.268 5.041-10.615 5.186-1.42 13.052 2.653 20.777 13.84s9.757 16.412 21.142 16.412 11.953-11.758 12.197-14.78c.244-3.02 1.463-13.88 9.839-13.717 8.375.163 10.896 4.49 14.555 10.697 3.66 6.205 10.327 19.923 22.443 18.371s13.254-13.39 13.01-16.902c-.243-3.51-.68-10.285-5.204-25.476-4.536-15.232-5.69-19.94-5.69-19.94"/><path fill="none" stroke="#2b535a" stroke-width=".5" d="M210.52 57.373c-.401 2.588-3.537 4.245-7.005 3.702s-5.953-3.08-5.551-5.669c.402-2.587 3.539-4.245 7.007-3.701 3.466.542 5.952 3.08 5.55 5.668Z"/><path fill="#2b535a" d="M211.352 57.245s.004.22-.053.601a6.5 6.5 0 0 1-.419 1.539c-.053.159-.13.313-.216.471-.088.156-.155.334-.271.487l-.338.485c-.125.16-.276.301-.417.458a2.7 2.7 0 0 1-.475.429c-.173.13-.339.279-.526.396-.39.2-.768.47-1.2.593l-.633.235c-.213.067-.434.099-.649.148l-.644.133c-.214.023-.426.03-.635.044-.418-.002-.825.055-1.202-.015a35 35 0 0 1-1.063-.136c-.329-.03-.616-.145-.877-.205q-.39-.104-.666-.193c-.367-.112-.572-.187-.572-.187l.015-.063s.222.001.602.024c.19.007.42.024.68.05.262.017.554.063.876.054.32.002.667.01 1.03.025.366.03.745-.019 1.14-.033.197-.007.4-.003.6-.016l.606-.087c.202-.032.413-.045.615-.094l.6-.175c.415-.09.766-.322 1.145-.486.18-.1.339-.23.507-.34.172-.11.33-.23.465-.374.14-.139.29-.264.415-.407l.348-.436c.121-.137.196-.3.291-.444s.18-.287.242-.435c.147-.286.252-.56.337-.81.082-.248.14-.47.181-.654.083-.37.096-.585.096-.585zM229.614 63.38c0 .43-.448.776-1.003.776s-1.003-.347-1.003-.775.448-.776 1.003-.776 1.003.347 1.003.776M233.68 63.38c0 .43-.449.776-1.003.776-.555 0-1.003-.347-1.003-.775s.448-.776 1.003-.776 1.003.347 1.003.776"/><path fill="#1a383b" d="M204.373 60.618s-2.871-3.511-.296-8.492c0 0 2.95 2.559.296 8.492"/><path fill="#2b535a" d="M198.403 76.985c.528.156.973.427 1.393.732l-.317.053c.288-.39.604-.759 1.024-1.053-.138.496-.383.916-.655 1.316l-.13.19-.188-.137c-.42-.306-.816-.646-1.127-1.1M202.841 84.228c.528.155.973.426 1.393.732l-.317.052c.288-.39.604-.758 1.024-1.052-.138.496-.383.916-.655 1.315l-.13.19-.188-.137c-.42-.305-.815-.645-1.127-1.1M203.051 94.552c.528.156.973.427 1.394.733l-.318.052c.288-.39.604-.758 1.025-1.053-.139.496-.383.916-.656 1.316l-.13.19-.187-.137c-.42-.306-.816-.645-1.128-1.1M207.353 100.767c.528.155.974.426 1.394.732l-.318.052c.288-.389.604-.758 1.025-1.052-.139.496-.383.916-.656 1.316l-.13.19-.187-.137c-.42-.306-.816-.646-1.128-1.101M203.891 109.762c.258.489.375.997.45 1.513l-.258-.192c.478-.064.961-.096 1.465.003-.45.246-.92.363-1.397.446l-.224.04-.033-.231c-.076-.516-.11-1.037-.003-1.58M205.772 118.799c.194.517.245 1.037.254 1.558l-.233-.223c.483-.003.968.029 1.454.19-.478.187-.96.243-1.442.264l-.228.01-.004-.233c-.008-.52.023-1.042.2-1.566M195.95 122.713c-.366.413-.801.7-1.257.95l.09-.31c.227.428.423.872.507 1.38-.386-.338-.66-.74-.902-1.158l-.115-.198.203-.113c.455-.25.93-.463 1.474-.55M195.267 113.118c-.41.368-.875.604-1.355.801l.123-.298c.178.451.323.915.349 1.429-.346-.38-.572-.81-.766-1.254l-.092-.21.214-.088c.481-.197.977-.355 1.527-.38M185.624 110.785c-.521.178-1.04.213-1.559.206l.23-.225c-.013.484-.06.968-.235 1.453-.171-.486-.212-.971-.218-1.456l-.003-.23.232.004c.518.007 1.037.056 1.553.248M187.188 100.986c-.521.179-1.04.214-1.559.207l.23-.226c-.013.485-.06.97-.235 1.453-.171-.486-.211-.97-.218-1.455l-.003-.23.232.004c.519.006 1.037.055 1.553.247M178.265 100.986c-.52.179-1.04.214-1.558.207l.229-.226c-.013.485-.059.97-.234 1.453-.172-.486-.212-.97-.218-1.455l-.004-.23.233.004c.518.006 1.037.055 1.552.247M177.716 90.549c-.47.29-.967.439-1.476.547l.175-.27c.095.475.156.957.09 1.468-.272-.435-.42-.9-.532-1.37l-.054-.224.228-.048c.507-.108 1.023-.176 1.569-.103M167.461 84.684c-.361.416-.793.709-1.245.965l.085-.312c.232.425.434.868.524 1.375-.39-.334-.669-.733-.916-1.149l-.117-.197.202-.114c.452-.255.925-.474 1.467-.568M163.157 93.453c-.147.532-.41.982-.709 1.409l-.056-.318c.391.283.763.596 1.062 1.014-.496-.132-.917-.372-1.32-.64l-.19-.127.134-.19c.298-.427.63-.829 1.08-1.148M150.659 89.838c.383.397.636.854.852 1.327l-.302-.112c.441-.195.898-.36 1.409-.406-.365.361-.784.606-1.218.819l-.205.1-.096-.213c-.216-.473-.393-.965-.44-1.515M150.33 102.373c.43.346.737.768 1.008 1.211l-.313-.074c.415-.25.847-.469 1.349-.578-.318.405-.703.699-1.109.964l-.19.125-.122-.199c-.272-.444-.508-.909-.622-1.45M141.94 110.127c.06.55-.02 1.066-.14 1.572l-.17-.273c.47.117.93.268 1.362.547-.51.06-.99-.005-1.463-.105l-.223-.046.054-.227c.12-.507.28-1.004.58-1.468M144.693 121.216c.281.475.421.978.521 1.49l-.267-.18c.475-.087.956-.14 1.464-.066-.438.267-.903.407-1.374.512l-.222.05-.046-.23c-.099-.51-.157-1.03-.076-1.576M148.728 115.381c.386.394.643.849.862 1.32l-.302-.109c.44-.2.895-.367 1.405-.418-.361.365-.779.612-1.21.828l-.204.103-.1-.212c-.218-.472-.4-.961-.451-1.512M138.16 117.845c-.306.459-.697.803-1.114 1.115l.045-.32c.284.392.54.806.693 1.297-.43-.282-.755-.642-1.053-1.023l-.141-.18.186-.14c.417-.31.857-.587 1.384-.75M134.682 108.973c-.521.178-1.04.213-1.559.206l.23-.225c-.013.484-.06.969-.235 1.453-.171-.486-.211-.971-.218-1.456l-.003-.23.232.004c.519.007 1.037.056 1.553.248M128.87 117.319c-.504.224-1.018.304-1.535.343l.208-.245c.03.484.026.97-.106 1.468-.213-.469-.296-.948-.345-1.43l-.023-.228.231-.017c.518-.04 1.038-.037 1.57.109M126.712 104.078c-.521.179-1.04.214-1.559.207l.23-.226c-.013.485-.06.97-.235 1.453-.171-.486-.212-.97-.218-1.455l-.003-.23.232.004c.518.006 1.037.055 1.553.247M124.986 94.903c-.534.137-1.054.13-1.57.082l.246-.207c-.05.482-.135.962-.348 1.43-.132-.498-.135-.985-.103-1.468l.015-.229.232.022c.516.047 1.028.138 1.528.37M118.742 102.624c-.52.178-1.04.214-1.558.207l.229-.226c-.013.485-.059.969-.234 1.453-.172-.486-.212-.97-.219-1.455l-.003-.23.233.004c.518.006 1.037.055 1.552.247M118.09 89.131c-.521.179-1.04.214-1.559.207l.23-.226c-.013.485-.06.97-.235 1.453-.171-.486-.211-.97-.218-1.455l-.003-.23.232.004c.518.006 1.037.055 1.553.247M108.322 81.127c-.289.47-.667.83-1.072 1.156l.034-.32c.298.38.57.784.74 1.27-.44-.266-.778-.614-1.09-.984l-.148-.174.18-.147c.406-.326.836-.619 1.356-.8M100.977 85.727c-.025.552-.18 1.05-.376 1.532l-.125-.296c.445.188.877.408 1.261.749-.513-.018-.977-.156-1.43-.327l-.213-.08.088-.217c.195-.482.429-.948.795-1.361M106.49 93.548c-.347.428-.769.734-1.212 1.006l.075-.314c.246.417.463.853.569 1.356-.402-.32-.692-.71-.954-1.118l-.124-.192.199-.121c.443-.27.908-.505 1.447-.617M89.967 86.013c.388.392.647.844.868 1.316l-.302-.108c.44-.202.893-.372 1.403-.425-.36.367-.776.617-1.207.835l-.204.102-.099-.21c-.22-.471-.405-.96-.459-1.51M90.834 97.547c.425.352.727.777.993 1.224l-.311-.077c.416-.245.852-.46 1.354-.563-.322.4-.711.69-1.119.95l-.193.123-.119-.2c-.266-.447-.496-.915-.605-1.457M86.742 108.695c.46.304.804.695 1.117 1.11l-.318-.043c.389-.287.798-.547 1.288-.703-.279.433-.636.762-1.013 1.064l-.18.143-.138-.187c-.313-.416-.592-.857-.756-1.384M83.075 119.885c-.134.536-.387.993-.674 1.426l-.065-.316c.399.274.779.576 1.087.987-.499-.12-.926-.348-1.335-.606l-.193-.122.129-.195c.288-.433.61-.844 1.05-1.174M89.081 115.33c.436.338.751.753 1.032 1.191l-.314-.067c.41-.257.837-.486 1.336-.605-.31.41-.69.713-1.088.985l-.188.13-.126-.197c-.281-.438-.526-.898-.652-1.436M80.278 114.05c-.462.3-.958.46-1.463.58l.168-.274c.106.473.178.954.124 1.466-.283-.43-.44-.89-.564-1.358l-.057-.222.225-.053c.505-.12 1.02-.2 1.567-.14M73.224 113.658c-.519.185-1.037.227-1.556.227l.226-.23c-.006.486-.046.97-.215 1.456-.177-.483-.225-.967-.237-1.452l-.006-.23.232.002c.519 0 1.037.041 1.556.227M69.402 104.785c-.519.186-1.037.228-1.556.227l.226-.228c-.006.484-.045.969-.215 1.455-.177-.484-.225-.968-.237-1.452l-.006-.23.232.001c.519 0 1.037.042 1.556.227M64.117 99.649c-.519.185-1.037.227-1.557.226l.227-.228c-.006.484-.046.969-.215 1.455-.177-.483-.225-.967-.237-1.452l-.007-.23.232.001c.52 0 1.038.042 1.556.228M62.56 94.013c-.548-.047-1.037-.226-1.509-.441l.3-.115c-.204.44-.441.864-.797 1.236.039-.514.196-.974.384-1.42l.09-.212.21.097c.473.216.927.47 1.323.855M58.709 88.108c-.518.186-1.037.228-1.556.227l.226-.229c-.005.485-.045.97-.215 1.456-.177-.484-.224-.968-.237-1.452l-.006-.23.232.001c.52 0 1.038.042 1.556.227M55.792 82.375c-.462.009-.875-.108-1.276-.257l.31-.2c-.025.442-.089.882-.294 1.314-.16-.45-.179-.895-.16-1.337l.015-.323.295.123c.394.164.776.36 1.11.68M199.708 68.374c.529.155.974.426 1.394.732l-.318.052c.288-.389.604-.758 1.025-1.052-.139.496-.383.916-.656 1.316l-.13.19-.187-.137c-.42-.306-.816-.646-1.128-1.101"/></g></svg>