<svg xmlns="http://www.w3.org/2000/svg" width="199.648" height="121.372" viewBox="-0.384 -0.748 199.648 121.372"><defs><linearGradient id="a" x1=".901" x2="53.87" y1="110.372" y2="110.372" gradientUnits="userSpaceOnUse"><stop offset=".55" stop-color="#0c5a43"/><stop offset=".87" stop-color="#81ac43"/><stop offset=".92" stop-color="#b0cc4d"/></linearGradient></defs><path fill="#f3e5cf" d="M64.522 57.409v.126c.001 1.536.9 2.93 2.298 3.562a3.9 3.9 0 0 0 4.188-.63l13.254-11.704a2.86 2.86 0 0 0 .807-3.073l-.371-1.07z"/><path fill="#f3e5cf" d="m74.848 42.637-32.582 23.72a20.48 20.48 0 0 0 19.389 11.687 20.49 20.49 0 0 0 18.304-13.326 20.55 20.55 0 0 0-5.111-22.081"/><path fill="#0c5a43" d="M10.761 95.082V69.399c0-2.781 1.104-5.448 3.067-7.415a10.46 10.46 0 0 1 7.405-3.069h4.065c11.664 0 21.855-7.496 28.251-13.657a20.45 20.45 0 0 1 18.808-5.212l11.945 2.777a2.106 2.106 0 0 1 .782 3.736L16.37 97.909a3.5 3.5 0 0 1-3.677.324 3.51 3.51 0 0 1-1.932-3.151"/><path fill="#b0cc4d" d="M20.876 66.545a1.88 1.88 0 0 1 1.329 3.214 1.87 1.87 0 0 1-2.657 0 1.87 1.87 0 0 1-.551-1.331c0-.519.21-.99.551-1.331a1.87 1.87 0 0 1 1.328-.552M51.639 61.519c.606 0 1.155.247 1.552.645.398.398.644.948.644 1.555 0 .606-.246 1.156-.644 1.554a2.186 2.186 0 0 1-3.104 0 2.196 2.196 0 0 1 0-3.109 2.19 2.19 0 0 1 1.552-.645M33.092 72.817a2.697 2.697 0 0 1 2.697 2.701 2.697 2.697 0 1 1-5.394 0 2.7 2.7 0 0 1 2.697-2.701M25.699 76.959a2.56 2.56 0 0 1 1.817.755c.466.466.754 1.11.754 1.821s-.288 1.355-.754 1.821a2.561 2.561 0 0 1-3.635 0 2.57 2.57 0 0 1-.754-1.821c0-.711.288-1.355.754-1.821a2.56 2.56 0 0 1 1.818-.755"/><path fill="none" stroke="#1c252e" stroke-width=".5" d="M14.736 84.747v-5.132c0-.908.379-1.774 1.045-2.39a3.24 3.24 0 0 1 2.464-.848l.762.065a3.61 3.61 0 0 0 3.839-2.937l.121-.638a3.455 3.455 0 0 1 4.185-2.737l1.324.312a3.51 3.51 0 0 0 4.17-2.365l.431-1.326a3.59 3.59 0 0 1 4.01-2.44l3.459.603a6.01 6.01 0 0 0 5.825-2.325l14.842-19.894"/><path fill="#1c252e" d="M80.247 45.172a.997.997 0 0 1 1 1 .997.997 0 0 1-1 1 .997.997 0 0 1-1-1 .997.997 0 0 1 1-1M80.748 42.159a.997.997 0 0 1 1 1 .997.997 0 0 1-1 1 .997.997 0 0 1-1-1 .997.997 0 0 1 1-1"/><path fill="#60a14e" d="M59.259 51.007c1.244 0 2.372.507 3.189 1.325a4.5 4.5 0 0 1 1.322 3.194 4.5 4.5 0 0 1-1.322 3.195 4.5 4.5 0 0 1-3.189 1.324 4.5 4.5 0 0 1-3.19-1.324 4.5 4.5 0 0 1-1.322-3.195 4.5 4.5 0 0 1 1.322-3.194 4.5 4.5 0 0 1 3.19-1.325"/><path fill="#b0cc4d" d="M10.811 69.445v3.404a3.82 3.82 0 0 0 4.891-.975 3.84 3.84 0 0 0-.229-4.99.664.664 0 0 1 .08-1.004 3.2 3.2 0 0 0 1.213-2.275 3.26 3.26 0 0 0-1.368-2.852 10.47 10.47 0 0 0-4.587 8.692M26.175 65.694a4.51 4.51 0 0 0 4-2.433 4.52 4.52 0 0 0-.306-4.677c-1.491.247-3 .373-4.511.377h-3.113a4.515 4.515 0 0 0 3.93 6.733M36.742 59.322a2.01 2.01 0 0 0-.055 2.375 2.005 2.005 0 0 0 3.649-1.15v-.321a.5.5 0 0 1 .501-.557 4.26 4.26 0 0 0 3.97-2.35 4.64 4.64 0 0 0-.296-4.74 44 44 0 0 1-7.905 4.157q.106.286.251.553c.36.642.315 1.436-.115 2.033M12.516 79.186a2.57 2.57 0 0 0-1.705-2.416v4.831a2.57 2.57 0 0 0 1.705-2.415"/><path fill="#eee75a" d="M67.214 37.596c1.832 0 3.493.745 4.695 1.95a6.64 6.64 0 0 1 1.946 4.703 6.64 6.64 0 0 1-1.946 4.703 6.62 6.62 0 0 1-4.695 1.95 6.62 6.62 0 0 1-4.695-1.95 6.64 6.64 0 0 1-1.947-4.703c0-1.836.744-3.499 1.947-4.703a6.6 6.6 0 0 1 4.695-1.95"/><path fill="#1c252e" d="M71.665 43.179h-.531a1.5 1.5 0 0 1-1.239-.688 3.196 3.196 0 0 0-5.358 0c-.272.422-.737.68-1.238.688h-.532a1.11 1.11 0 0 0-1.122.959 1.063 1.063 0 0 0 1.057 1.175h.597c.511.001.987.262 1.263.693a3.2 3.2 0 0 0 5.359 0 1.5 1.5 0 0 1 1.238-.693h.591c.302.002.591-.125.793-.349a1.07 1.07 0 0 0 .27-.826 1.11 1.11 0 0 0-1.148-.959"/><path fill="#0c5a43" d="M73.081 93.844H10.759V83.636h51.795c5.685-.002 10.346 4.517 10.527 10.208"/><path fill="#1c252e" d="M57.126 83.636h5.012v10.459h-5.012zM41.211 83.636h5.012v10.188h-5.012z"/><path fill="#0c5a43" d="M.868 102.386h63.661c4.706 0 8.522-3.822 8.522-8.536H9.224a8.35 8.35 0 0 0-5.966 2.511 8.38 8.38 0 0 0-2.39 6.025"/><path fill="#1c252e" d="M57.095 93.85h5.013v8.536h-5.013zM41.18 93.85h5.013v8.511H41.18zM13.736 94.101h5.013v8.285h-5.013z"/><path fill="url(#a)" d="M52.471 108.715a1.83 1.83 0 0 0-1.308.19 2.84 2.84 0 0 1-1.814.312l-12.943-1.823a.843.843 0 0 1 .05-1.672l13.609-1.079c.466-.026.932.052 1.364.231a1.75 1.75 0 0 0 1.068.06 1.818 1.818 0 0 0-.447-3.585 1.78 1.78 0 0 0-1.147.416 3.03 3.03 0 0 1-1.945.663H.901c0 5.269 4.264 9.54 9.524 9.54h8.361c3.209.001 6.407.385 9.524 1.145l18.943 4.635c.633.157 1.2.508 1.624 1.004a1.813 1.813 0 0 0 3.13-1.628 1.814 1.814 0 0 0-2.202-1.33 2.7 2.7 0 0 1-1.414 0l-12.331-3.645a.838.838 0 0 1 .301-1.642l13.369.959a2.66 2.66 0 0 1 1.308.502c.295.204.644.314 1.002.317a1.823 1.823 0 0 0 .421-3.595z"/><path fill="#1c252e" d="M13.769 102.428h5.012v9.54h-5.012z"/><path fill="none" stroke="#0c5a43" stroke-linecap="round" stroke-width="2.5" d="M54.873 81.591h7.854c6.921 0 12.532 5.62 12.532 12.552"/><path fill="#0c5a43" d="M56.462 67.632v15.214h-3.745c-4.706 0-8.521-3.822-8.521-8.536v-5.257a.456.456 0 0 1 .33-.442l9.605-2.751a1.84 1.84 0 0 1 2.331 1.772"/><path fill="#b0cc4d" d="M46.201 79.753a5.58 5.58 0 0 0-2.005-10.655v5.157a8.5 8.5 0 0 0 2.005 5.498"/><path fill="#fbf4e9" d="m196.801 9.478-10.271 1.27a3.82 3.82 0 0 0-3.452 3.159 3.83 3.83 0 0 0 2.186 4.139 3.814 3.814 0 0 0 4.549-1.082zM196.801 9.412l-10.271-1.27a3.827 3.827 0 0 1-1.266-7.298 3.814 3.814 0 0 1 4.549 1.082z"/><path fill="#1c252e" d="M195.508 6.796c.691 0 1.318.282 1.771.736.454.455.735 1.082.735 1.775s-.281 1.32-.735 1.775a2.496 2.496 0 0 1-3.543 0 2.5 2.5 0 0 1-.735-1.775c0-.693.281-1.32.735-1.775a2.5 2.5 0 0 1 1.772-.736"/></svg>