<svg xmlns="http://www.w3.org/2000/svg" width="91.755" height="252.03" viewBox="0 0 91.755 252.03"><g stroke-miterlimit="10" data-paper-data="{&quot;isPaintingLayer&quot;:true}" style="mix-blend-mode:normal"><path fill="#ebebeb" d="m16.803 252.03.9-9.7 14.8.6 9.4 2.3 7.4 6.8z"/><path fill="#00bcbd" d="m18.303 243.73.5-52.3.7-60.1h29.1l-6.6 61.8-4.7 50.6z"/><path fill="#ebebeb" d="m54.703 252.03.9-9.7 14.8.6 9.4 2.3 7.4 6.8z"/><path fill="#00bcbd" d="m53.903 243.73-3.7-50.4-6.4-62h30l.7 62.3v50.1z"/><g data-paper-data="{&quot;origPos&quot;:null}"><path fill="#9e6b30" d="M80.103 110.453c-3.2.4-8.6-1.3-8.6-1.3s-8.1-46.9-1.1-48.6c12.6-3.4 14.9 46.6 14.9 46.6s-2.1 2.9-5.2 3.3"/><path fill="#62a7a7" d="M65.703 92.153s-9-32.9 2.5-35.1c10.1-2 21.6 29 21.6 29z"/></g><g fill="#9e6b30" data-paper-data="{&quot;origPos&quot;:null}"><path d="m88.103 134.253-8.2 2.4-8.8-27.1s3.1-4.2 6.7-3.9c2.7.2 7.3 1 7.3 1z" data-paper-data="{&quot;origPos&quot;:null}"/><path d="M84.619 156.825c-1.884.27-1.113-8.75-2.878-8.911-1.353-.141.26 5.452-.175 6.353-.532.92-3.273-.578-3.273-.578s-2.535-5.106-2.96-7.774c-1.061-5.906 4.604-11.813 4.604-11.813l7.276-.313s4.395 6.269 4.54 10.623c.087 4.06-3.008 9.562-3.008 9.562s-2.302 2.798-4.126 2.851" data-paper-data="{&quot;origPos&quot;:null,&quot;index&quot;:null,&quot;origRot&quot;:0}"/></g><path fill="#a7d2fe" d="m16.103 136.63.2-76.3s15.8-7.9 29.3-8.1 25.3 4.9 27.9 6.2c2.4 1.2 2.6 80.4 2.6 80.4s-17.8 2.8-29.8 2.7c-12.3-.2-30.2-4.9-30.2-4.9"/><g fill="#9e6b30"><path d="m37.603 42.43 15.2 3.4-.1 9.1s4.9.9 4.8 3.7c-.1 4.5-18.9 6.9-22.8 0-1.5-3.4 2-4.6 2-4.6zM33.003 31.33c.8 2.4.3 4.7-1 5.1-1.4.5-3.2-1-4-3.4s-.3-4.7 1-5.1c1.4-.5 3.2 1.1 4 3.4" data-paper-data="{&quot;origPos&quot;:null}"/><path d="M64.503 29.13c0 12.8-7.9 19.6-14.7 19.9-11.8.2-19.4-9.5-19.4-22.3s2.2-22.4 17.2-23.1c11.4-.6 18.862 11.5 16.862 25.2z" data-paper-data="{&quot;origPos&quot;:null}"/></g><path d="M52.903 41.83c0 .7-2 2.2-3.7 2.2s-3.5-1.9-3.5-2.7c0-.7 2.2 0 4 0s3.2-.2 3.2.5"/><path fill="none" stroke="#000" stroke-linecap="round" stroke-width="1.46" d="M51.003 31.63s1.5 1 1.4 2.5c0 .7-2.5 2.1-2.5 2.1" data-paper-data="{&quot;origPos&quot;:null}"/><path fill="#9e6b30" d="M6.703 112.73c-2.5-.2-6.3-2.2-6.3-2.2s5.6-50.6 19.9-50.3c11.2-.3-7.2 51.3-7.2 51.3s-3.9 1.4-6.4 1.2"/><path fill="#62a7a7" d="M.603 86.83s11.4-29 18.4-28.2c16.6 1.8 3.9 36.9 3.9 36.9z"/><g data-paper-data="{&quot;origPos&quot;:null}"><path fill="none" stroke="#000" stroke-linecap="round" stroke-width="1.46" d="M38.803 22.63s2.9-.8 4.4-.8c1.7-.1 3.7.8 3.7.8M38.703 26.93s2.2-1.9 4.5-1.7c2.5.2 2.9 1.5 2.9 1.5"/><path d="M42.003 27.73c0-1.2.9-2.2 2.1-2.2s2.1 1 2.1 2.2-.9 2.2-2.1 2.2c-1.1 0-2.1-1-2.1-2.2"/></g><g data-paper-data="{&quot;origPos&quot;:null}"><path fill="none" stroke="#000" stroke-linecap="round" stroke-width="1.46" d="M54.203 22.53s2.3-.8 4-.8c1.5.1 3.2.5 3.2.5M54.203 26.63s.5-1.3 2.9-1.5c2.3-.2 4.5.7 4.5.7"/><path d="M59.103 29.63c-1.2 0-2.1-1-2.1-2.2s.9-2.2 2.1-2.2 2.1 1 2.1 2.2-.9 2.2-2.1 2.2"/></g><g fill="#9e6b30"><path d="m2.403 137.43-2.1-27.7s4-1.2 6.3-1.6c3.2-.6 6.7 3.3 6.7 3.3l-3.2 27.7z"/><path d="M4.903 156.53s-4.1-4.8-4.8-8.8c-.7-4.3 2.4-11.3 2.4-11.3l7.2-1.1s6.7 4.7 6.8 10.7c.1 2.7-1.4 8.2-1.4 8.2s-2.4 2-3.1 1.2-.1-6.6-1.4-6.2c-1.7.5.8 9.2-1.1 9.3-1.8.3-4.6-2-4.6-2"/></g><path fill="#4d2f15" d="M56.303 13.73c-2.5-.5-15-.1-17.3 1-5.7 2.9-6.6 14.4-6.6 14.4l-2.6-.8s-3.5-24.9 17.9-24.7c11.4-.6 16.3 10.2 16.8 16.7 0-.1-.1-5-8.2-6.6" data-paper-data="{&quot;origPos&quot;:null}"/><g data-paper-data="{&quot;origPos&quot;:null}"><path fill="#c5c5c5" d="M27.718 31.677c.176 2.067 1.723 3.576 1.43 3.653-.219.057-.419.1-.645.1-1.9 0-2.2-1.8-2.2-4 0-2.3 1.023-3.946 2.423-3.946s-1.354.12-1.008 4.193" data-paper-data="{&quot;origPos&quot;:null}"/><path fill="#f2f2f2" d="M29.103 31.73c0-.8.7-1.5 1.5-1.5s1.5.7 1.5 1.5-.7 1.5-1.5 1.5-1.5-.7-1.5-1.5" data-paper-data="{&quot;origPos&quot;:null}"/><path fill="#f2f2f2" d="M31.876 28.208c.739 1.06-.072 3.453-1.006 2.844-.66-.417-.037-1.472-.358-2.072-.803-1.5-2.44-.156-2.727-1.318-.182-.737 2.386-1.899 4.09.546" data-paper-data="{&quot;origPos&quot;:null,&quot;origRot&quot;:0}"/></g><g data-paper-data="{&quot;origPos&quot;:null}"><path d="M44.303 3.23c.8 3.8-4.725 1.731-9.3 4-4.426 2.196-6.782 7.268-9.2 4.3-2.068-2.538 1.776-5.393 5.633-7.966C36.705.05 43.85 1.075 44.303 3.23" data-paper-data="{&quot;origPos&quot;:null}"/><path d="M45.903 5.43c.8 3.8-5.2 1.2-10.4 6-4.97 4.587-5.932 10.339-9.3 8.7-2.467-1.2 1.62-7.422 4.933-11.366C36.557 2.31 45.45 3.275 45.903 5.43" data-paper-data="{&quot;origPos&quot;:null}"/><path d="M46.503 8.03c.8 3.8-6 2-10.2 7.3s-4.132 10.339-7.5 8.7c-2.467-1.2.52-8.122 3.833-12.066C38.057 5.51 46.05 5.875 46.503 8.03" data-paper-data="{&quot;origPos&quot;:null}"/><path d="M48.803 9.63c1 4.4-3.115 1.9-7.1 4.8-4.844 3.527.868 10.539-3.1 11.7-2.667 1.2-5.48-8.422-2.167-12.366C41.857 7.31 48.35 7.475 48.803 9.63" data-paper-data="{&quot;origPos&quot;:null}"/></g><g data-paper-data="{&quot;origPos&quot;:null}"><path d="M64.397 7.166c-1.379 2.37-4.19-1.522-9.08-2.238-5.052-.74-9.364 2.24-9.781-1.622-.236-2.19 6.116-4.533 12.137-2.57 7.998 2.61 6.724 6.43 6.724 6.43" data-paper-data="{&quot;origPos&quot;:null,&quot;index&quot;:null,&quot;origRot&quot;:0}"/><path d="M60.238 6.025c4.958 3.48 10.743 9.971 8.64 11.733-2.87 2.405-5.798-4.542-11.73-7.788-6.208-3.397-8.464-.632-8.844-3.302-.39-2.73 7.397-3.827 11.934-.643" data-paper-data="{&quot;origPos&quot;:null,&quot;index&quot;:null,&quot;origRot&quot;:0}"/><path d="M62.706 12.465c2.992 4.742 5.6 12.877 1.366 12.777-3.202-.075-1.195-2.298-3.933-8.223-2.836-6.14-12.189-4.432-11.274-8.206.52-2.14 8.619-2.964 13.841 3.652" data-paper-data="{&quot;origPos&quot;:null,&quot;index&quot;:null,&quot;origRot&quot;:0}"/></g></g></svg>