<svg xmlns="http://www.w3.org/2000/svg" width="60.621" height="95.544" viewBox="-0.269 -0.021 60.621 95.544"><path fill="none" stroke="#e54529" stroke-linecap="round" stroke-width="1.04" d="M32.983 50.978v-1.041M42.723 50.978v-1.041"/><path fill="#fecb43" d="M33.158 37.532c0 4.72-3.826 8.548-8.544 8.548-4.717 0-8.543-3.828-8.543-8.548zM59.832 37.532c0 4.72-3.826 8.548-8.544 8.548s-8.543-3.828-8.543-8.548z"/><path fill="#ffdb5d" d="m48.97 46.019-6.174-8.636h-9.337l-5.952 8.816q-.063.091-.124.184l-.182.271.006.001a6.1 6.1 0 0 0-.868 2.846 6.19 6.19 0 0 0 6.181 6.493 6.14 6.14 0 0 0 3.554-1.126 3.905 3.905 0 0 1 4.472 0 6.14 6.14 0 0 0 3.553 1.126 6.19 6.19 0 0 0 6.182-6.493 6.1 6.1 0 0 0-1.311-3.482"/><path fill="#ffdb5d" d="M47.952 30.169c0 5.478-4.439 9.919-9.915 9.919s-9.913-4.441-9.913-9.919c0-5.477 4.438-9.918 9.913-9.918s9.915 4.441 9.915 9.918"/><path fill="#fff4e3" d="M36.297 30.169a4.065 4.065 0 0 1-4.064 4.067 4.065 4.065 0 0 1-4.064-4.067 4.064 4.064 0 1 1 8.128 0"/><path fill="#17242d" d="M34.886 30.169a2.653 2.653 0 1 1-5.306.002 2.653 2.653 0 0 1 5.306-.002"/><path fill="#fff4e3" d="M47.853 30.169a4.066 4.066 0 1 1-8.128.002 4.066 4.066 0 0 1 8.128-.002"/><path fill="#17242d" d="M46.44 30.169a2.652 2.652 0 1 1-5.305 0 2.653 2.653 0 1 1 5.305 0"/><path fill="#ad2c24" d="m37.984 28.302-2.361 4.091h4.722z"/><path fill="#e54529" d="m37.951 36.47-2.361-4.091h4.722z"/><path fill="none" stroke="#ffdb5d" stroke-width="1.04" d="M39.94 21.09a3.132 3.132 0 0 1 0-6.264"/><path fill="#fff4e3" d="M54.421 79.083c0-2.682-.511-6.033-1.423-9.504l-3.664 6.894-4.957-7.699-4.565 8.221-5.609-8.091-5.347 8.091-4.837-7.425c-.912 3.475-1.424 6.83-1.424 9.513 0 8.792 7.124 15.92 15.913 15.92s15.913-7.128 15.913-15.92M2.375 2.625C-2.18 7.183 1.282 18.489 6.25 27.002l8.667 1.829-1.935-9.504 9.683 1.753-2.582-9.043 8.946 1.937-2.28-7.467C18.238 1.533 6.931-1.934 2.375 2.625"/></svg>