<svg xmlns="http://www.w3.org/2000/svg" xml:space="preserve" width="69.551" height="27.446" viewBox="0.225 0.277 69.551 27.446"><title>Slice 1</title><g fill-rule="evenodd"><path fill="none" stroke="#f93dbf" stroke-linecap="round" stroke-linejoin="round" stroke-width="1.28" d="M35.748 11.01h1.75"/><path fill="none" stroke="#f93dbf" stroke-linecap="round" stroke-linejoin="round" stroke-width="2.128" d="m11.36 11.563-10.071-3.3M61.711 11.725l7-2.697"/><path fill="#ffd110" fill-rule="nonzero" d="m14.668 26.659 8.05-4.323 8.05 4.323-8.113-10.985zM18.693 9.678 9.69 11.01l12.966 4.664.063-14.333z"/><path fill="#ffe922" fill-rule="nonzero" d="m22.655 15.674 8.113 10.985-1.527-9.165 6.507-6.484z"/><path fill="#fff4a4" fill-rule="nonzero" d="M26.743 9.678 22.718 1.34l-.063 14.333 13.093-4.664z"/><path fill="#f2c900" fill-rule="nonzero" d="m9.689 11.01 6.506 6.484-1.527 9.165 7.987-10.985z"/><path fill="#ffd110" fill-rule="nonzero" d="m42.477 26.659 8.05-4.323 8.05 4.323-8.05-11.148zM46.502 9.678l-9.004 1.332 13.03 4.501V1.341z"/><path fill="#f2c900" fill-rule="nonzero" d="m37.498 11.01 6.507 6.484-1.528 9.165 8.05-11.148z"/><path fill="none" stroke="#f93dbf" stroke-linecap="round" stroke-linejoin="round" stroke-width="1.28" d="m22.718 1.341 4.025 8.337 9.005 1.332-6.507 6.484 1.527 9.165-8.05-4.323-8.05 4.323 1.527-9.165L9.69 11.01l9.004-1.332z"/><path fill="#fff4a4" fill-rule="nonzero" d="m63.557 11.01-9.005-1.332-4.025-8.337v14.17z"/><path fill="#ffe922" fill-rule="nonzero" d="m63.557 11.01-13.03 4.501 8.05 11.148-1.527-9.165z"/><path fill="none" stroke="#f93dbf" stroke-linecap="round" stroke-linejoin="round" stroke-width="1.28" d="m50.527 1.341 4.025 8.337 9.005 1.332-6.507 6.484 1.527 9.165-8.05-4.323-8.05 4.323 1.528-9.165-6.507-6.484 9.004-1.332z"/></g></svg>