<svg xmlns="http://www.w3.org/2000/svg" xml:space="preserve" width="124.701" height="122.516" viewBox="-0.38 -0.153 124.701 122.516"><title>Slice 1</title><g fill-rule="evenodd"><path fill="#281446" d="m109.87 90.737 3.483-5.3 1.09.717-3.483 5.3zM123.822 95.384s-2.703-3.298-4.977-4.596c-1.037-.593-2.103-.59-2.573.02-.567.74-.94 1.627 0 2.607 1.5 1.599 6.853 3.437 6.853 3.437z"/><path fill="#fff" d="m117.415 93.48.28.183.1.053 1.265-1.927-.373-.248zM118.31 94.07l.276.187.106.049 1.264-1.928-.373-.248zM119.267 94.705l.275.183.106.052 1.264-1.931-.377-.244z"/><path fill="#281446" d="m108.824 84.18-1.977 3.294s-12.668-5.478-10.633-8.975c2.034-3.498 12.61 5.681 12.61 5.681"/><path fill="#f01446" d="M117.764 90.93c-2.112-1.809-6.01-5.014-8.376-6.86l-2.391 3.742c2.605 1.443 7.01 3.631 9.482 4.924z"/><path fill="#f04650" d="m106.016 87.767 1.284.752 2.748-4.351a10 10 0 0 0-1.123-.846z"/><path fill="#be0a3c" d="M108.796 87.97c.575-3.355 3.416-2.44 4.66-1.757 1.62.9 3.505 1.395 2.622 4.535-.454 1.626-2.727 1.582-4.458.679-1.661-.854-2.792-2.501-2.824-3.457"/><path fill="#281446" d="M102.701 71.512s-1.26 2.72.58 2.916 2.71-1.748 2.71-1.748c.082-.245 3.161-11.261 3.003-11.456-.364-.195-2.484-.248-2.816-.407-.32.073-3.542 10.512-3.477 10.695"/><path fill="#f04650" d="M107.714 41.395c-2.545 5.494-5.191 17.572-5.191 17.572l11.415 3.078c.892-1.565 1.852-3.55 2.703-5.169a76 76 0 0 0 3.505-7.287c.519-1.301 2.784-5.498 1.354-6.747-2.05-1.789-4.073 5.787-5.09 5.519-1.017-.269 2.508-7.491.648-8.565-2.937-1.695-4.899 6.19-6.042 6.312-.87-.895 1.808-4.904 1.492-6.572-.762-4.054-3.971.085-4.794 1.859"/><path fill="#f01446" d="M102.3 42.867c-4.433.264.36 13.61.932 15.79l7.477 3.075c1.62-2.033 2.982-4.034 2.913-6.69-.11-3.973-3.274-5.042-6.552-5.778-.09-2.562-1.739-6.564-4.77-6.397"/><path fill="#be0a3c" d="M102.563 57.34c2.687.594 5.15 1.68 7.76 2.525 1.934.627 5.864 1.09 3.672 3.892-2.707 0-5.35-.813-7.87-1.732-2.297-.83-6.143-1.602-3.562-4.685"/><path fill="#281446" d="M62.725 111.537c-3.464.967-6.654.764-7.196.947 0 .813-.041 2.599-.05 3.449.09 0 5.613-.33 9.005-1.334 3.874-1.143 7.513-3.534 7.03-5.576-.481-2.041-5.656 1.64-8.789 2.514"/><path fill="#f04650" d="M55.99 107.234c-5.126 0-20.44-1.627-22.287-.26-1.848 1.366-1.597 3.115.243 3.875 1.026.322 2.1.46 3.173.407-.255 0 2.837-.883 1.62.443-1.215 1.326-6.009.407-5.77 3.473 2.193 1.497 4.458 1.306 6.962.972.32.248.349.476.138.777-1.572.406-5.365.667-6.281 2.33-1.62 2.912 6.103 2.603 6.103 2.603s11.115.11 15.33-2.217z"/><path fill="#f01446" d="M44.98 106.091c-2.115-.406-5.43-3.208-4.19-5.323 1.492-2.534 5.058.032 6.865 1.22 3.063 2.033 7.7 4.368 7.732 8.365 0 1.562.567 4.038.06 5.498-.567 1.627-2.565 1.22-4.21 1.115-2.646-.171-4.725-1.196-6.224-3.437-1.941-2.875-.693-4.465-.033-7.438"/><path fill="#be0a3c" d="M54.098 106.404c1.787.037 3.056-.313 3.801 1.692.612 1.647.247 9.203-.194 10.83-.64 2.37-1.856 2.175-4.053 1.862q.028-.406 0-.813-.105-3.51-.028-7.027c.036-1.928-.28-4.815.474-6.544"/><path fill="#281446" d="M78.805 113.033c.077.07.146.134.235.203a21.5 21.5 0 0 0 4.117 2.294l2.837-3.928-.061-.05a7.4 7.4 0 0 1-1.155-1.09c-.138-.186-1.313-1.658-2.18-2.695 0 0-3.323-7.292-7.392-3.794-4.068 3.497 3.599 9.06 3.599 9.06"/><path fill="#f01446" d="M94.953 115.839c-2.922-.764-5.908-3.14-8.145-5.039-2.302 1.753-2.837 2.867-3.991 5.56 1.025.32 3.841 1.138 6.078 1.26 3.056.163 5.673-.5 7.023-1.159l.11-.26a1.9 1.9 0 0 1-1.075-.362"/><path fill="#281446" d="m87.134 114.856 2.045-2.837.937.676-2.045 2.837z"/><path fill="#f04650" d="M87.355 110.349c-.693-.602-1.5-1.33-1.592-1.403l-5.268 6.995c.51.207 1.459.813 2.095 1.02z"/><path fill="#281446" d="m96.076 115.538-.669-.207-1.455 2.126a5.7 5.7 0 0 1 1.342.074l-2.383 3.542s.405.252.523.305l.494-.525c.71.02.81.781 1.35.931l.348-.22c.134-.406-.15-.548-.405-.678a1.66 1.66 0 0 1-.81-.639l.57-1.004c.64 0 .677.744 1.297.813l.333-.126c.048-.472 0-.553-.373-.708a1.08 1.08 0 0 1-.742-.654l.665-.923 1.32 1.09c.305.048.532 0 .617-.362-.385-.472-1.216-.72-1.54-1.31.247-.216.405-.61.624-.813.235.215.944.98 1.147 1.163q.126-.006.251-.029a.8.8 0 0 0 .158-.077c.17-.46.146-.545-.203-.789-.283-.2-.891-.642-1.175-.85l-.044-.032c0-.029-.997-.045-1.24-.098"/><path fill="#be0a3c" d="M89.24 115.298c-2.209-.752-4.276-1.736-5.037.858h-.029c.223 2.033 3.201 3.473 5.138 3.253 2.841-.317 2.602-3.204-.072-4.11"/><path fill="#f04650" d="M52.234 5.417c-4.154-3.14-8.72-6.743-14.142-4.221-5.633 2.627-5.674 7.482-3 12.553 2.38 4.474 5.88 8.443 9.054 12.383 1.49 1.85 8.586 10.252 7.922 13.88-2.492 1.22-12.214-8.756-14.994-10.98-5.418-4.274-12.213-11.545-19.572-8.015-3.57 1.72-6.387 5.693-6.89 9.646-.55 4.241 2.98 7.905 5.808 10.646 4.863 4.697 11.022 8.357 16.655 12.09 1.215.814 6.143 3.799 4.141 5.978-1.305 1.42-16.014-6.071-19.098-7.45-2.97-1.325-6.91-3.058-10.192-3.033-9.32.077-9.348 11.272-5.012 17.112 4.781 6.446 12.967 10.272 19.73 14.164 7.65 4.413 15.05 9.187 22.693 13.546 4.121 2.347 16.002 11.062 17.988 11.875l35.43-34.994c-1.014-2.249-3.093-4.396-4.507-6.397q-4.904-6.912-9.819-13.859c-4.725-6.67-10.17-13.204-14.328-20.252-2.861-4.847-5.56-9.556-9.013-14.034-2.573-3.35-5.458-8.072-8.854-10.638"/><path fill="#f01446" d="M85.844 9.117c-.54-.378-1.828-1.146-1.86-1.289-10.423-5.876-13.98 6.962-12.562 14.856.753 4.225.859 10.317-1.269 14.152-2.354 4.237-7.035 7.161-9.956 11.057-6.322 8.43-6.184 18.707-.66 27.454 2.8 4.441 6.564 8.28 10.268 11.972 1.872 1.867 3.98 4.913 6.135 6.36l22.368-24.4c-.028-9.316-.06-18.503-.648-27.799-.365-5.77-1.548-11.464-2.836-17.08-1.305-5.482-4.288-11.993-8.98-15.283"/><path fill="#be0a3c" d="M99.472 62.493S80.68 82.757 75.725 88.197l13.648 12.42c8.044-8.83 22.498-26.027 22.498-26.027z"/><path fill="#281446" d="M82.379 109.873c-2.508 2.578-5.033 5.767-8.133 7.637-2.131-1.557-14.993-12.708-14.993-12.708S72.99 90.357 72.913 90.06c3.78-4.184 10.909-11.923 17.125-7.767 2.89 1.932 5.345 5.823 5.308 9.353-.04 3.847-2.727 6.747-4.887 9.647.016.02-5.361 5.77-8.08 8.58"/><path fill="#f01446" d="M87.371 100.284c-2.151 2.172-4.17 4.44-6.289 6.637-1.945 2.033-8.023 8.467-10.378 9.971-1.515-1.081-10.17-8.975-10.17-8.975s14.34-15.185 14.3-15.4c2.942-3.254 8.481-9.28 12.914-6.417 2.059 1.33 3.728 4.14 3.574 6.762-.17 2.867-2.257 5.124-3.959 7.361z"/></g></svg>