<svg xmlns="http://www.w3.org/2000/svg" xml:space="preserve" width="228.89" height="157.485" viewBox="16.6 15.6 228.89 157.485"><title>bear-walk-f</title><g fill-rule="nonzero"><path fill="#856045" d="M163.3 98c-7.6 14.6-13.7 18.4-13.7 18.4s14.3 16.6 14.1 19.8c-.5 8.3-22 23.8-25.1 17.5-2.9-6 4.2-13 4.2-13s-14.7-14.2-15.8-15.5c-2.2-2.6-19.2-9.7-10.9-31.2 19.5-42.8 57.7-16.3 47.2 4"/><path fill="#856045" d="M129.6 76.4s-10.1 7.9-12.4 7.1c0 0 1.7 2.3 3.8 1.3 0 0-4.7.7-6.8 4.7l3.1-.2s-5.5 5.2-6.2 9.4l3.5-2.3s-4.8 5.4-1.6 10"/><path fill="#59402f" d="M117.4 83.5s.2.1.5.1.8-.1 1.4-.3c1.1-.3 2.5-1 3.8-1.8.6-.4 1.3-.8 1.8-1.3q.9-.6 1.5-1.2c.9-.7 1.4-1.3 1.4-1.3s-.7.4-1.6 1c-1 .6-2.2 1.4-3.5 2.2-.6.4-1.3.8-1.9 1.1s-1.2.7-1.7.9-.9.4-1.2.5-.5.1-.5.1M114.2 89.6l.8-.8c.5-.5 1.1-1.1 1.8-1.7.3-.3.7-.6 1-.8.2-.1.3-.2.5-.3s.3-.2.5-.3c.3-.2.6-.3.7-.4.2-.1.3-.1.3-.1h-.3c-.2 0-.5 0-.9.1-.2 0-.4.1-.6.2l-.6.3c-.4.2-.8.5-1.2.8-.7.6-1.3 1.4-1.7 2-.2.6-.3 1-.3 1M111 98.7s.2-.7.6-1.7c.5-1 1.2-2.2 2-3.3.4-.6.8-1.1 1.3-1.7.4-.5.8-1 1.2-1.4.3-.4.6-.8.8-1s.3-.4.3-.4-.2.1-.4.3-.6.5-1 .8c-.8.7-1.8 1.8-2.7 3-.4.6-.8 1.2-1.1 1.8s-.6 1.2-.7 1.7c-.2.5-.2 1-.3 1.3zM142.6 140.6s-2.4-2.1-5.9-5.4c-.9-.8-1.8-1.7-2.8-2.7s-1.9-2.1-2.8-3.3c-1-1.2-2-2.3-3.1-3.5s-2.3-2.2-3.5-3.3c-1.2-1-2.6-1.9-3.9-2.8-1.2-.9-2.2-2.1-3-3.4-.4-.6-.8-1.3-1.2-1.9-.2-.3-.3-.6-.5-.9-.1-.3-.3-.6-.4-.9-.5-1.3-.8-2.5-1-3.7-.4-2.4-.4-4.4-.3-5.8s.2-2.2.2-2.2-.2.8-.3 2.2-.2 3.4.1 5.8c.2 1.2.5 2.5 1 3.8.1.3.3.7.4 1 .2.3.3.6.5 1 .4.7.7 1.3 1.1 1.9.8 1.3 1.8 2.6 3.1 3.6s2.6 1.8 3.9 2.8c1.2 1 2.4 2 3.5 3.2 1.1 1.1 2.2 2.2 3.2 3.3s2 2.2 3 3.2 1.9 1.9 2.8 2.7c1.8 1.6 3.3 2.9 4.4 3.9.9.9 1.5 1.4 1.5 1.4M112.8 106s-.3-.6-.4-1.5c-.1-.5-.1-1 0-1.6 0-.3.1-.6.1-.9s.1-.6.2-.9l.3-.9c.1-.3.2-.6.3-.8.2-.5.5-1 .6-1.5l.5-1c.1-.3.2-.4.2-.4l-.3.3c-.2.2-.4.5-.7.9s-.6.9-.8 1.4c-.1.3-.3.5-.4.9l-.3.9c-.2.6-.3 1.3-.3 1.9v.9c0 .3.1.5.2.8.1.5.3.8.5 1.1s.3.4.3.4M159.9 143.4c1-1 1.7-2.1 2.4-3.3.3-.6.6-1.2.9-1.9.1-.3.3-.6.4-1 .1-.1.1-.3.2-.5v-.6c-.1-.7-.3-1.4-.6-2l-.9-1.8c-.7-1.2-1.4-2.4-2.2-3.5-1.5-2.3-3.2-4.4-4.8-6.6-1.7-2.2-3.4-4.2-5.2-6.3v.4c1.9-1.5 3.5-3.2 5-5 .7-.9 1.5-1.9 2.1-2.8l.9-1.5.9-1.5c-.6 1-1.3 2-2 2.9s-1.4 1.8-2.2 2.7-1.6 1.7-2.4 2.5-1.7 1.6-2.6 2.3l-.3.2.2.2q2.7 3.15 5.1 6.3c1.7 2.1 3.3 4.3 4.9 6.5.8 1.1 1.5 2.2 2.2 3.4.3.6.7 1.2.9 1.8.3.6.5 1.2.6 1.9v.4c0 .2-.1.3-.1.5-.1.3-.2.6-.3 1-.2.6-.5 1.3-.8 1.9s-.6 1.2-1 1.8c-.4.5-.8 1.1-1.3 1.6M139.1 146.9s.3.2.8.2c.5.1 1.2 0 1.8-.1.6-.2 1.2-.5 1.6-.8s.6-.6.6-.6-.1 0-.2.1c-.1 0-.3.1-.6.2-.5.1-1 .3-1.6.5s-1.2.3-1.7.4c-.4 0-.7.1-.7.1M137.8 152.4s.4.1 1 .1 1.4-.1 2.1-.4c.4-.1.7-.3 1-.5s.6-.4.8-.6l.5-.5c.1-.1.1-.2.1-.2s-.1 0-.2.1-.4.2-.6.3c-.5.3-1.1.6-1.8.8-.7.3-1.4.5-1.9.6-.7.1-1 .3-1 .3"/><path fill="#6c5f57" d="M138.1 145.6c.6.2 3.4.2 3.8-.8s-.9-.7-1.8-.5-2.4 1.1-2 1.3M136.8 150.9c.6.2 3.4.2 3.8-.8.4-1.1-.9-.7-1.8-.5s-2.4 1.2-2 1.3M136.5 154.5c.6.2 3.4.2 3.8-.8.4-1.1-.9-.7-1.8-.5s-2.4 1.1-2 1.3"/><path fill="#59402f" d="M151 117.8v-.3c0-.2-.1-.4-.3-.7-.3-.5-.8-1.2-1.4-1.7s-1.3-.9-1.8-1.1c-.3-.1-.5-.2-.7-.2-.2-.1-.3-.1-.3-.1l.2.2.5.5c.4.4 1 .8 1.6 1.3s1.1 1 1.5 1.4c.5.4.7.7.7.7"/><path fill="#856045" d="M97.3 84.1s14.2 22.8 4.7 51.7c-4.8 14.5-9.2 23.6-6.9 25.7s7.1 4.6 6 6.5-8.9 2.7-25.5.7c-2-.2-7.8-13.8-7-30.2.6-12.7-3.6-20-6.7-28.8-3.1-8.7-12-24.1-10.5-31.9s4.7-21.7 22.1-19.4 22.6 19.5 23.8 25.7"/><path fill="#59402f" d="M92.9 169.9s0-.3-.2-.8-.5-1.1-1-1.6-1-.9-1.5-1.1-.8-.3-.8-.3l.2.2.4.4 1.2 1.2c.4.4.8.9 1.1 1.3.4.5.6.7.6.7M98.6 169.2s-.1-.4-.4-.9-.8-1.2-1.4-1.7c-.3-.3-.6-.5-1-.7-.3-.2-.7-.3-1-.4s-.5-.1-.7-.2h-.3l.2.2c.2.1.4.2.6.4.5.3 1.1.8 1.6 1.3q.9.75 1.5 1.5c.6.2.9.5.9.5"/><path fill="#665a52" d="M92.2 171.4c-.1-.6-1.4-3.1-2.5-3-1.1.2-.2 1.2.4 1.8.6.7 2.1 1.6 2.1 1.2M97.5 170.1c-.1-.6-1.4-3.1-2.5-3-1.1.2-.2 1.2.4 1.8.7.7 2.2 1.6 2.1 1.2M100.9 169.4c-.1-.6-1.4-3.1-2.5-3-1.1.2-.2 1.2.4 1.8.7.6 2.1 1.5 2.1 1.2"/><path fill="#856045" d="M73.3 111.2s-6.6 11-9 11.1c0 0 2.4 1.6 4-.2 0 0-4.2 2.3-4.7 6.9l2.8-1.3s-3.3 6.8-2.4 11l2.5-3.4s-2.6 6.8 2.1 9.9"/><path fill="#59402f" d="M64.5 122.2s.2 0 .5-.1.7-.4 1.2-.7c.9-.7 2-1.8 2.9-3.1.5-.6.9-1.2 1.3-1.8s.7-1.2 1-1.7c.5-1 .9-1.7.9-1.7s-.5.6-1.2 1.5-1.6 2.1-2.5 3.3c-.4.6-.9 1.2-1.3 1.7s-.9 1-1.2 1.4c-.4.4-.7.7-1 .9-.5.2-.6.3-.6.3M63.8 128.8s.2-.4.4-1c.3-.6.6-1.4 1-2.2.2-.4.4-.7.7-1.1.2-.3.5-.6.7-.9.2-.2.4-.5.6-.6l.2-.2s-.1 0-.3.1-.5.2-.7.4c-.3.2-.6.5-.9.8s-.6.7-.8 1.1-.4.8-.5 1.2-.2.8-.3 1.1c-.2.9-.1 1.3-.1 1.3M64.2 138.1s-.2-.7-.1-1.7c0-.5.1-1.1.2-1.7s.2-1.3.4-1.9c.2-.7.4-1.3.6-1.9s.4-1.2.5-1.7c.2-.5.3-.9.4-1.2s.1-.5.1-.5-.1.1-.3.4c-.1.3-.4.6-.6 1.1s-.5 1-.7 1.6c-.3.6-.5 1.3-.6 1.9-.2.7-.3 1.4-.4 2q-.15 1.05 0 1.8c.1.5.2 1 .3 1.2.1.5.2.6.2.6M67.3 143.9s-.1-.1-.2-.3-.3-.5-.4-.9c-.2-.8-.4-1.8-.4-2.9s.1-2.2.1-3c.1-.8.1-1.4.1-1.4s-.1.1-.1.4c-.1.2-.2.6-.3 1s-.2.9-.3 1.4c0 .3-.1.5-.1.8v.8c0 .6.1 1.1.2 1.7.1.5.3 1 .5 1.4s.5.7.6.8c.2.2.3.2.3.2M68.5 139.4s-.1 2.3.1 5.7c.1 1.7.2 3.7.5 5.9.3 2.1.6 4.4 1.1 6.7.5 2.2 1.1 4.5 2 6.5.4 1 .9 1.9 1.5 2.8l.9 1.2.5.5c.3.1.5.1.7.2 1.7.3 3.1.4 4.1.4 1 .1 1.6.1 1.6.1s-.6-.1-1.6-.2-2.4-.3-4.1-.6c-.2 0-.4-.1-.6-.2-.1-.1-.3-.3-.4-.5-.3-.4-.5-.7-.8-1.2-.5-.8-.9-1.8-1.3-2.8-.7-2-1.3-4.2-1.8-6.4-.4-2.2-.8-4.5-1.1-6.6s-.5-4.1-.7-5.8c-.4-3.4-.6-5.7-.6-5.7M103.2 96.5s.3 4.4.5 10.9c.1 3.3.2 7.1.2 11.2 0 2-.1 4.2-.2 6.3s-.3 4.3-.7 6.4c-.2 1.1-.5 2.1-.9 3.1s-.8 2-1.1 3c-.8 2-1.5 4-2.2 5.9-1.4 3.8-2.7 7.4-3.6 10.6-.4 1.6-.7 3.1-.8 4.4 0 .7-.1 1.3 0 1.9s.4 1.1.7 1.4c.7.7 1.4 1 1.8 1.3s.7.4.7.4-.2-.2-.6-.5-1.1-.7-1.7-1.4c-.3-.3-.6-.8-.6-1.4s0-1.2.1-1.8c.1-1.3.4-2.8.9-4.3.9-3.1 2.3-6.7 3.7-10.5.7-1.9 1.5-3.9 2.3-5.9.4-1 .7-2 1.1-3.1.4-1 .7-2.1.9-3.2.4-2.2.6-4.4.7-6.5.1-2.2.1-4.3.1-6.3 0-4.1-.2-7.9-.4-11.2-.4-6.4-.9-10.7-.9-10.7"/><path fill="#8d674a" d="M42.1 53.2s-10.3-3.8-21.2 11.7c0 0 3.1-2.5 5-2.5 0 0-4.9 1.7-6.2 10 0 0 1.9-3.3 3.3-3.6 0 0-6.9 9.3 3.2 11.1 10.1 1.9 18.3-24.4 15.9-26.7"/><path fill="#59402f" d="M20.9 64.9s.2-.3.6-.8 1-1.2 1.7-2 1.6-1.7 2.6-2.6c.5-.5 1-.9 1.5-1.4s1.1-.9 1.7-1.3l1.8-1.2c.6-.3 1.2-.7 1.8-1 .6-.2 1.2-.6 1.8-.7.6-.2 1.1-.4 1.7-.5.5-.1 1-.2 1.4-.2.4-.1.8 0 1.1-.1h1s-.4 0-1-.1c-.3 0-.7-.1-1.2-.1-.4 0-.9.1-1.5.1-.5.1-1.1.2-1.7.4-.6.1-1.2.4-1.9.7-.6.3-1.3.6-1.9 1l-1.8 1.2c-.6.5-1.2.9-1.7 1.4s-1.1 1-1.5 1.4c-1 1-1.8 2-2.4 2.8-1.4 1.7-2.1 3-2.1 3M25.9 62.4s-.7.3-1.6 1c-.5.3-1 .8-1.4 1.3-.5.5-1 1.1-1.4 1.8s-.8 1.3-1 2c-.1.3-.3.7-.3 1-.1.3-.2.6-.2.9-.1.6-.1 1-.1 1.4v.5s.1-.2.1-.5c0-.2.1-.4.1-.6.1-.2.2-.5.2-.7.1-.3.2-.5.3-.8s.2-.6.4-.9c.1-.3.3-.6.5-.9l.6-.9c.8-1.2 1.8-2.4 2.5-3.2.8-.9 1.3-1.4 1.3-1.4M23 68.8s-.5.4-1 1.1c-.3.4-.6.8-.8 1.3-.3.5-.5 1.1-.6 1.7s-.2 1.2-.1 1.8c0 .3.1.6.1.8.1.3.1.5.2.7l.5 1c.1.2.2.3.2.3s0-.1-.1-.4c0-.1-.1-.3-.1-.4 0-.2-.1-.4-.1-.6-.1-.2-.1-.4-.1-.7 0-.2-.1-.5 0-.8v-.8c0-.3.1-.6.1-.8.1-.6.3-1.1.5-1.6s.4-1 .6-1.4c.4-.7.7-1.2.7-1.2"/><path fill="#8d674a" d="M185.3 84.1s-.1 7.8-3.5 10.9l-.2-2.8s-1.1 8.8-7.7 11.3l.8-2.6s-7.4 4.5-7.5 7.9l-1.2-2s-6.8 5.7-9.8 3.7"/><path fill="#8d674a" d="M163.2 28.9c-18.8-6.5-42.9 2.8-54.2 6.9-16.5 5.8-36.1-10.5-63.3 11.1s-22.4 54.5-2.5 71c22.2 18.4 101.7 19.7 116.2-8.4 0 0 26.5-9.8 28.1-37.1"/><path fill="#59402f" d="M185.5 84.1s-.2.7-.4 1.7-.5 2.4-.9 3.8c-.1.3-.2.7-.3 1s-.2.7-.3 1c-.2.6-.4 1.2-.6 1.6-.1.2-.2.5-.3.6-.1.2-.2.4-.3.4-.2.2-.3.4-.3.4s.1-.1.4-.3c.1-.1.3-.2.4-.4.2-.2.3-.4.5-.6.3-.4.6-1 .9-1.6s.5-1.3.7-2c.3-1.4.5-2.8.6-3.9-.1-.9-.1-1.7-.1-1.7M181.6 92.1s-.2.9-.7 2.1c-.2.6-.5 1.4-.8 2.1-.2.4-.4.8-.6 1.1-.2.4-.4.8-.6 1.1-.2.4-.5.7-.7 1.1-.3.3-.5.7-.8 1s-.5.6-.8.8-.5.5-.8.7-.5.4-.7.5-.4.3-.6.4c-.3.2-.5.3-.5.3s.2-.1.6-.2c.2-.1.4-.2.7-.3.2-.1.5-.3.8-.4l.9-.6c.3-.2.6-.5.9-.8s.6-.6.9-1c.3-.3.5-.7.8-1.1q.75-1.2 1.2-2.4c.3-.8.5-1.6.7-2.2.1-1.3.1-2.2.1-2.2M174.7 101s-.7.2-1.6.7c-.5.3-1 .6-1.5 1s-1.1.8-1.6 1.3-1 1-1.4 1.6c-.4.5-.7 1.1-.9 1.6-.1.3-.2.5-.2.7-.1.2-.1.4-.1.5-.1.3-.1.5-.1.5l.2-.4c.1-.1.1-.3.2-.5s.2-.4.4-.6c.1-.2.3-.4.5-.7.2-.2.4-.5.6-.7.4-.5.9-1 1.4-1.4.5-.5 1-.9 1.5-1.3s1-.8 1.4-1.1c.7-.8 1.2-1.2 1.2-1.2M166.1 106.9l-1.5 1c-.5.3-1 .6-1.6.9s-1.2.7-1.8.9c-.6.3-1.3.6-1.9.8l-.9.3c-.3.1-.6.1-.8.2-.3 0-.5.1-.7.1h-1.1s.2 0 .5.1c.2 0 .3.1.6.1h.7c.5 0 1.2-.1 1.8-.3.7-.2 1.3-.4 2-.7s1.3-.7 1.8-1.1c.6-.4 1.1-.8 1.5-1.1.9-.7 1.4-1.2 1.4-1.2M142.4 27s-3.1.2-7.7 1c-1.1.2-2.4.4-3.7.7s-2.7.6-4.1.9c-2.8.7-5.8 1.5-8.7 2.5-2.9 1.1-5.7 2.4-8.5 3.2-1.4.4-2.7.8-4 1s-2.5.4-3.7.5c-1.1.1-2.2.1-3.1.2h-2.4c-1.4 0-2.1-.1-2.1-.1s.8.1 2.1.2c.7.1 1.5.1 2.4.1h3.2c1.2-.1 2.4-.2 3.7-.4s2.7-.5 4.1-.9c2.8-.8 5.6-2.1 8.5-3.1 1.5-.5 2.9-.9 4.4-1.3s2.9-.8 4.3-1.2c2.8-.7 5.4-1.3 7.7-1.8s4.2-.8 5.5-1c1.3-.3 2.1-.5 2.1-.5M68.3 36s-1.2.2-3.2.8-5 1.6-8.3 3.1-7.1 3.5-10.8 6.2-7.3 6.1-10.2 10.1c-1.4 2-2.7 4.2-3.7 6.3-1.1 2.1-2 4.3-2.9 6.5-.8 2.1-1.5 4.3-1.9 6.3-.4 2.1-.7 4-.7 5.9-.1 3.7.5 6.7.8 8.8.4 2.1.6 3.3.6 3.3s-.2-1.2-.4-3.3c-.3-2.1-.7-5.1-.5-8.8.1-1.8.4-3.8.8-5.8.5-2 1.2-4.1 2-6.2.9-2.1 1.8-4.2 2.9-6.4 1-2.2 2.2-4.2 3.7-6.2 2.8-3.9 6.3-7.3 10-10.1 3.6-2.7 7.4-4.8 10.6-6.4 3.3-1.6 6.1-2.6 8.2-3.3 1.8-.6 3-.8 3-.8M153.8 116.6s-.4.3-1 .7c-.7.4-1.7 1.1-3 1.8-.7.4-1.4.8-2.2 1.2s-1.7.8-2.7 1.3c-1 .4-2 .9-3.1 1.4-1.1.4-2.3.9-3.5 1.4s-2.5.9-3.8 1.4-2.7.8-4.2 1.3c-2.9.8-5.9 1.5-9.1 2.1-.8.1-1.6.3-2.4.5-.8.1-1.6.2-2.5.3-.8.1-1.7.2-2.5.3s-1.7.2-2.5.2c-.8.1-1.7.1-2.6.2s-1.7.1-2.6.1c-1.7 0-3.5.1-5.2.1-3.5-.1-6.9-.1-10.3-.5-3.4-.2-6.8-.6-10-.9l-4.8-.6c-1.6-.2-3.1-.5-4.5-.7-2.9-.5-5.7-1-8.2-1.6s-4.8-1.3-6.8-1.9c-1-.3-1.9-.7-2.8-1-.8-.4-1.6-.6-2.3-1-1.4-.6-2.4-1.3-3.1-1.7-.7-.5-1-.8-1-.8s.3.3 1 .8 1.7 1.1 3.1 1.8c.7.4 1.5.7 2.3 1.1.9.3 1.8.7 2.8 1.1 2 .7 4.3 1.4 6.8 2s5.3 1.2 8.2 1.8c1.5.2 3 .5 4.5.8 1.6.2 3.1.4 4.8.6 3.2.3 6.6.7 10 1s6.9.4 10.4.5c1.7 0 3.5-.1 5.2-.1.9 0 1.7-.1 2.6-.2s1.7-.1 2.6-.2 1.7-.1 2.5-.2 1.7-.2 2.5-.4c.8-.1 1.7-.2 2.5-.4.8-.1 1.6-.3 2.4-.5 3.2-.6 6.3-1.4 9.1-2.2 1.4-.5 2.8-.8 4.2-1.3 1.3-.5 2.6-.9 3.8-1.4s2.4-1 3.5-1.4c1.1-.5 2.1-1 3.1-1.4.9-.5 1.8-.9 2.6-1.4s1.5-.9 2.2-1.2c1.3-.8 2.3-1.4 3-1.9.7-.6 1-.9 1-.9"/><g fill="#8d674a"><path d="M163.3 91.4c-2.7 22.7-8.6 28.6-9.2 35.1s.8 30.5 2.3 33.4c1.5 2.8 5.4 6.3 6.2 9.5s-23.5.8-26.5-1c-2.9-1.7-19.1-41.7-18.6-64.8 4-46.8 48.5-34.9 45.8-12.2"/><path d="M123.8 82.3s-6.8 10.8-9.2 10.9c0 0 2.4 1.6 4-.1 0 0-4.2 2.2-4.8 6.8l2.8-1.3s-3.4 6.7-2.6 11l2.5-3.4s-2.7 6.7 1.9 9.9"/></g><g fill="#59402f"><path d="M113.9 93.5s.2 0 .5-.1.7-.4 1.2-.7c.9-.7 1.9-1.9 2.9-3.1.5-.6.9-1.2 1.3-1.8s.7-1.2 1-1.7c.5-1 .8-1.7.8-1.7s-.5.6-1.2 1.5-1.6 2.1-2.5 3.3c-.4.6-.9 1.2-1.3 1.7s-.9 1-1.2 1.5c-.4.4-.7.7-1 .9s-.5.2-.5.2M113.3 100.2s.2-.4.4-1c.3-.6.6-1.4 1-2.2.2-.4.4-.7.7-1.1.2-.3.5-.6.7-.9.2-.2.4-.5.5-.6l.2-.2s-.1 0-.3.1-.5.2-.7.4c-.3.2-.6.5-.9.8s-.6.7-.8 1.1-.4.8-.5 1.2-.2.8-.3 1.1zM113.8 109.5s-.2-.7-.1-1.7c0-.5.1-1.1.2-1.7s.2-1.3.4-1.9c.2-.7.3-1.3.5-1.9s.4-1.2.5-1.7c.2-.5.3-.9.4-1.2s.1-.5.1-.5-.1.1-.3.4c-.1.3-.4.6-.6 1.1s-.5 1-.7 1.6c-.3.6-.5 1.3-.6 1.9-.2.7-.3 1.4-.3 2-.1.7 0 1.3 0 1.8.1.5.2 1 .3 1.2.1.4.2.6.2.6M118 116.1s-.5-.4-1-1.2c-.2-.4-.4-.9-.6-1.4q-.3-.75-.3-1.8c-.1-.3 0-.6-.1-.9v-2.5c0-.5 0-.9.1-1.1v-.4s-.1.1-.1.4c-.1.3-.2.6-.3 1.1s-.2 1-.3 1.6c0 .3-.1.6 0 .9v1c.1.6.2 1.3.4 1.9.1.3.3.6.4.8.2.2.3.5.5.7.3.4.7.6.9.8.2.1.4.1.4.1"/></g><path fill="#59402f" d="M159.8 164.5s-.5-.8-1.6-2.1c-.5-.7-1.2-1.5-1.7-2.5-.5-1.1-.6-2.4-.7-3.9s-.2-3.1-.3-4.7c-.1-1.7-.3-3.4-.4-5.3-.3-3.6-.5-7.5-.6-11.4 0-1.9 0-3.9.2-5.8s.5-3.7.9-5.5c.9-3.5 1.9-6.8 2.9-9.6.9-2.8 1.6-5.2 1.9-6.8.2-.8.3-1.5.4-2s.1-.7.1-.7-.1.2-.1.7c-.1.4-.2 1.1-.5 1.9q-.3 1.2-.9 3c-.4 1.1-.8 2.4-1.3 3.8-1 2.8-2.2 6-3.1 9.6-.5 1.8-.8 3.7-1 5.6-.1 1.9-.2 3.9-.2 5.9 0 3.9.3 7.8.6 11.5s.7 7.1 1 10c.1 1.5.3 2.9.8 3.9.5 1.1 1.3 1.9 1.8 2.5 1.2 1.1 1.8 1.9 1.8 1.9M154.9 171.3s0-.4-.1-.9-.4-1.2-.8-1.7c-.4-.6-.9-1.1-1.3-1.4s-.8-.4-.8-.4 0 .1.1.2.2.3.3.5c.3.4.7.9 1 1.5.4.5.7 1.1 1 1.5.4.4.6.7.6.7M160.3 170.9s0-.4-.2-1-.5-1.3-1-1.9c-.2-.3-.5-.6-.8-.8s-.6-.4-.8-.6c-.3-.1-.5-.2-.7-.3s-.3-.1-.3-.1l.2.2.5.5c.4.4.9.9 1.3 1.5.5.6.9 1.2 1.2 1.6z"/><path fill="#6c5f57" d="M153.7 172.5c0-.6-.8-3.3-1.9-3.4-1.1 0-.4 1.1.1 1.9s1.8 1.9 1.8 1.5M159.2 172.2c0-.6-.8-3.3-1.9-3.4-1.1 0-.4 1.1.1 1.9s1.8 1.9 1.8 1.5M162.7 171.5c0-.6-.8-3.3-1.9-3.4s-.4 1.1.1 1.9c.5.7 1.7 1.9 1.8 1.5"/><path fill="#59402f" d="M139 169.3s-.3 0-.7-.1c-.5-.1-1.2-.2-1.9-.7-.4-.2-.7-.6-1-1q-.45-.6-.9-1.5c-.6-1.1-1.3-2.3-1.7-3.7-1.1-2.8-2.3-6.1-3.7-9.6-1.3-3.5-2.7-7.3-4-11.1s-2.5-7.6-3.3-11.3l-.6-2.7c-.2-.9-.4-1.7-.5-2.6q-.45-2.55-.9-4.8c-.6-3-1.1-5.4-1.4-7.1s-.5-2.7-.5-2.7.5 4 1.5 9.9c.2 1.5.5 3.1.8 4.8s.6 3.5 1.1 5.3c.4 1.8.9 3.7 1.5 5.6s1.1 3.8 1.8 5.7c1.3 3.8 2.7 7.6 4.1 11.1s2.8 6.7 3.9 9.5c.5 1.4 1.3 2.6 1.9 3.7l.9 1.5c.3.4.7.7 1.1 1 .8.5 1.5.6 1.9.6.4.2.6.2.6.2"/><path fill="#8d674a" d="M78.2 91s-11.4 33.1-19.3 43.7C56.4 138 38 157.9 38.7 161s5.2 7.8 3.2 8.8c-1.2.6-5.9 1.7-12.2-.8-4.5-1.8-10.7-6.6-12.1-8.1s.5-23.7 6.4-39.5c4.5-11.9 6.4-24.1 8.9-33s3-25.5 8.7-31 19.1-12.8 32-.9 7.2 28.8 4.6 34.5"/><path fill="#8d674a" d="M31 98.4s-7.9 10.1-10.2 10c0 0 2.2 1.8 4 .3 0 0-4.4 1.8-5.5 6.3l2.9-1s-4 6.4-3.6 10.7l2.8-3.1s-3.3 6.4.9 10.1"/><path fill="#59402f" d="M21 108.4s.2 0 .5-.1.8-.3 1.3-.6c1-.6 2.2-1.6 3.2-2.7.5-.6 1-1.1 1.5-1.7.5-.5.8-1.1 1.2-1.5.6-.9 1-1.6 1-1.6s-.6.5-1.3 1.3c-.8.8-1.8 1.9-2.9 3-.5.5-1 1.1-1.5 1.6s-1 .9-1.4 1.3-.8.6-1.1.8c-.3.1-.5.2-.5.2M19.5 114.8l.5-1c.3-.6.8-1.3 1.3-2 .3-.3.5-.7.8-1s.5-.6.8-.8c.2-.2.5-.4.6-.5.2-.1.2-.2.2-.2s-.1 0-.3.1-.5.1-.8.3-.7.4-1 .7-.6.6-.9 1-.5.8-.7 1.2-.3.8-.4 1.1c-.1.7-.1 1.1-.1 1.1M18.8 124.2s-.1-.7.1-1.7c.1-.5.2-1.1.4-1.7s.4-1.2.6-1.9c.2-.6.5-1.3.8-1.8.3-.6.5-1.1.7-1.6s.4-.9.5-1.1c.1-.3.2-.4.2-.4s-.1.1-.3.4c-.2.2-.5.6-.8 1q-.45.6-.9 1.5c-.3.6-.6 1.2-.9 1.9-.2.7-.5 1.3-.6 2-.1.6-.2 1.3-.2 1.8s.1 1 .1 1.3c.3.1.3.3.3.3M21.3 130.3s-.1-.1-.2-.3q-.15-.3-.3-.9c-.1-.8-.1-1.9 0-2.9.1-1.1.3-2.2.5-3s.2-1.4.2-1.4-.1.1-.2.3-.3.5-.4.9-.3.9-.5 1.4c-.1.3-.1.5-.2.8 0 .3-.1.6-.1.8 0 .6-.1 1.1 0 1.7 0 .5.2 1 .3 1.4.2.4.4.7.5.9.3.2.4.3.4.3"/><path fill="#59402f" d="M23 121.7s-.7 2.6-1.5 6.5c-.4 2-.9 4.3-1.4 6.7-.5 2.5-1 5.1-1.4 7.8s-.8 5.3-1.1 7.8-.4 4.9-.5 6.9c0 1 .1 1.9.2 2.8.1.2.1.4.2.6s.3.3.4.4c.3.2.5.4.8.6 1 .7 1.6 1 1.6 1s-.6-.4-1.5-1.1c-.2-.2-.5-.4-.7-.6-.1-.1-.2-.2-.3-.4 0-.2-.1-.4-.1-.6-.1-.8-.1-1.7-.1-2.7.1-2 .4-4.3.7-6.8q.45-3.75 1.2-7.8c.4-2.7.9-5.3 1.3-7.8s.8-4.8 1.2-6.8c.6-3.8 1-6.5 1-6.5M71.4 109.9s-1.5 3.7-4 9.2c-1.3 2.7-2.8 5.9-4.6 9.2-.9 1.6-1.9 3.3-3.1 4.9-1.2 1.5-2.6 3-3.9 4.5-5.3 6-10.6 12.1-14 17.1-.9 1.2-1.5 2.5-2.2 3.5-.3.5-.7 1-.9 1.5-.3.5-.1 1.1 0 1.5.3.8.6 1.4.8 1.9l.3.6s-.1-.2-.3-.7c-.2-.4-.5-1.1-.7-1.9-.1-.4-.2-.9.1-1.3.2-.4.6-.9 1-1.4.7-1 1.4-2.2 2.3-3.4 1.7-2.4 4-5.1 6.4-8s5.1-5.9 7.8-8.9c1.3-1.5 2.7-3 3.9-4.6s2.2-3.3 3.1-5 1.7-3.3 2.5-4.9c.7-1.6 1.4-3.1 2-4.4 1.2-2.8 2.1-5.1 2.7-6.8.5-1.7.8-2.6.8-2.6M35 170.1v-.8c-.1-.5-.3-1.1-.7-1.7s-.9-1-1.3-1.3-.7-.4-.7-.4 0 .1.1.2.2.3.3.5c.3.4.7.9 1 1.4s.7 1 .9 1.4.4.7.4.7M40.6 170s0-.4-.2-.9c-.2-.6-.5-1.3-1-1.9-.3-.3-.5-.6-.8-.8s-.6-.4-.8-.5c-.3-.1-.5-.2-.7-.3-.2 0-.3-.1-.3-.1l.2.2.5.5c.4.4.9.9 1.4 1.5s.9 1.1 1.2 1.6c.3.4.5.7.5.7"/><path fill="#6c5f57" d="M34 171.4c0-.6-.8-3.3-2-3.3-1.1 0-.4 1.1.1 1.9.6.7 1.9 1.8 1.9 1.4M39.5 171c0-.6-.8-3.3-2-3.3-1.1 0-.4 1.1.1 1.9s1.9 1.8 1.9 1.4M43 170.8c0-.6-.8-3.3-2-3.3-1.1 0-.4 1.1.1 1.9.5.6 1.9 1.8 1.9 1.4"/><path fill="#8d674a" d="M174.2 23.6c20.3-2.8 43.1 9.1 46.2 14.7s3.7 18.8 3.7 18.8 20.5 10.7 20.1 15-7 14.1-15.3 14.7c-8.3.7-15.4 1.5-25.1 1s-27.1 1.6-35.9-8.2c0 0 1.2 4.3 2.9 5.5 0 0-11.4-2.6-8.4-13.5 0 0-2 1.8-1.4 7.5 0 0-6.1-6.2-2.2-15.2 0 0-2.7 4.9-5.4 4.9 0 0 2.6-3.8 2.5-10.3.1-6.4 1.3-32.5 18.3-34.9"/><path fill="#8d674a" d="M177.3 22.7c20.4-2 40.1 9.9 43.2 15.6s3.7 18.8 3.7 18.8 20.4 10.7 20 15-7 14.1-15.3 14.7c-8.3.7-16.9 3.5-26.5 2.9s-25.6-.2-34.4-10c0 0 1.2 4.3 2.9 5.5 0 0-11.4-2.6-8.4-13.5 0 0-2 1.8-1.4 7.5 0 0-6.1-6.2-2.2-15.2 0 0-2.7 4.9-5.4 4.9 0 0-4.5-15.2-4.6-21.7s14-23.1 28.4-24.5"/><path fill="#9e7b5c" d="M244.2 72.1c-.4 4-6.1 12.7-13.6 14.4-2.5-1.4-5.3-3.4-5.5-6.1 0 0-16.1-11.1-1.1-23.3.1 0 20.6 10.7 20.2 15"/><path fill="#332721" d="M243.3 75.3c.9-1.6 2.3-3.2 1.4-4.6-.5-.8-1.7-2.3-2.7-2.3s-2.5 3 .5 4.5c-.4 1.6.2 2.1.8 2.4"/><path fill="#59402f" d="M237.9 82.1s-.5-.3-1.3-.7c-.4-.2-.9-.3-1.4-.5-.5-.1-1.1-.3-1.7-.3-.6-.1-1.2-.1-1.8-.1s-1.1.1-1.5.2-.8.2-1 .3l-.4.2h.4c.3 0 .6-.1 1-.1h1.5c.5 0 1.1.1 1.7.1 1.1.1 2.3.3 3.1.5.8.3 1.4.4 1.4.4"/><ellipse cx="30.901" cy="34.501" fill="#332010" rx="1.7" ry="2.6" transform="rotate(-174.736 124.592 6.79)scale(1 -1)"/><path fill="#9e7b5c" d="M210.9 49.7c-.1 1.1 3 1.8 4.4 1.9s2.7-.6 2.8-1.7-1-2-2.4-2.2c-1.5-.1-4.7.9-4.8 2"/><path fill="#59402f" d="M224.1 57.1v-2.3c-.1-1.4-.1-3.5-.4-6-.1-1.2-.3-2.6-.6-4s-.6-2.9-1.2-4.3c-.3-.7-.6-1.5-1-2.2-.5-.7-.9-1.3-1.5-2-1.1-1.2-2.3-2.4-3.6-3.4s-2.7-1.9-4.1-2.7-2.8-1.6-4.2-2.2c-1.4-.7-2.8-1.2-4.1-1.7s-2.6-.9-3.8-1.3q-1.8-.6-3.3-.9c-1-.2-1.8-.5-2.5-.6-1.4-.3-2.2-.5-2.2-.5s.8.2 2.2.6 3.4 1 5.7 1.7c1.2.4 2.4.8 3.7 1.4 1.3.5 2.7 1.1 4.1 1.8s2.8 1.4 4.2 2.2 2.7 1.8 4 2.7q1.95 1.5 3.6 3.3c.5.6 1 1.2 1.4 1.9s.7 1.4 1 2.1c1.1 2.9 1.6 5.7 1.9 8.1.6 5 .7 8.3.7 8.3M170.9 85.2s-.3-.1-.7-.2c-.5-.1-1.1-.4-1.9-.8-.4-.2-.8-.4-1.2-.7-.4-.2-.8-.6-1.2-.9s-.8-.7-1.2-1.1-.7-.8-1-1.3c-.3-.4-.5-1-.8-1.4-.2-.5-.3-1-.5-1.5-.1-.5-.1-1-.2-1.5s0-.9 0-1.4c0-.4 0-.8.1-1.2 0-.3.1-.6.1-.9.1-.5.1-.8.1-.8s-.1.3-.2.8c-.1.2-.2.5-.2.9-.1.3-.2.7-.2 1.2 0 .4-.1.9-.1 1.4s0 1 .1 1.6.1 1.2.4 1.7c.2.5.4 1.1.8 1.6.3.5.7.9 1.1 1.4.4.4.9.8 1.3 1.1.9.6 1.8 1.1 2.6 1.4 1.6.5 2.8.6 2.8.6M161.1 79.2s-.7-.7-1.5-2.1c-.2-.3-.4-.7-.6-1.1s-.4-.8-.5-1.3c-.1-.2-.2-.4-.2-.7-.1-.2-.1-.5-.2-.7l-.3-1.5c-.1-.5-.1-1-.1-1.5s0-1 .1-1.5.1-.9.2-1.4l.3-1.2c.1-.4.2-.7.3-1s.2-.6.2-.8l.2-.4-.3.6c-.1.2-.2.5-.4.7-.2.3-.3.6-.4 1s-.3.8-.4 1.2-.2.9-.3 1.4c0 .5-.1 1-.1 1.5s0 1 .1 1.6l.3 1.5c.1.2.1.5.2.7s.2.5.3.7c.2.5.4.9.6 1.3s.5.7.7 1.1c.5.6.9 1.1 1.3 1.4zM153.6 68.9s.2-.2.4-.5c.2-.4.6-.9.9-1.6s.6-1.5.8-2.4.4-1.9.5-2.8c.1-.5.1-1 .1-1.5s.1-1 .1-1.4c.1-.9 0-1.8 0-2.5s-.1-1.3-.1-1.8c0-.4-.1-.7-.1-.7s0 .2-.1.7c0 .4-.1 1-.1 1.8 0 .7-.1 1.6-.2 2.5s-.2 1.9-.3 2.8c-.1 1-.2 1.9-.4 2.8q-.3 1.35-.6 2.4c-.2.7-.4 1.2-.6 1.6-.2.3-.3.6-.3.6M180 22.7s-.4-.1-1.1-.2h-1.2c-.5 0-1 .1-1.6.2s-1.2.2-1.9.4c-.6.2-1.3.3-2 .6-.7.2-1.4.5-2.1.8s-1.4.7-2.1 1-1.4.8-2 1.1c-.7.4-1.3.8-1.9 1.2-1.2.8-2.3 1.6-3.2 2.3-.5.3-.9.7-1.2 1-.4.3-.7.6-.9.8-.5.4-.8.7-.8.7l.9-.6c.3-.2.6-.4 1-.7s.8-.6 1.3-.9 1-.7 1.6-1c.5-.4 1.2-.7 1.8-1.1s1.2-.8 1.9-1.1c.7-.4 1.3-.8 2-1.1s1.4-.7 2.1-1 1.4-.6 2-.9q1.8-.9 3.6-1.2c.6-.1 1.1-.2 1.6-.3s.9-.1 1.2-.1c.6 0 1 .1 1 .1"/><path fill="#8d674a" d="M193 25.5s-1.7-8.2-6.3-8.8-15.3 3.9-7.2 16.6"/><path fill="#59402f" d="M186.5 19.3s-.4.6-.7 1.5c-.2.5-.4 1-.5 1.6-.2.5-.3 1.2-.3 1.9v1c.1.3.1.7.2 1l.3.9c.1.3.2.5.4.7.3.4.5.7.8.9l.3.3s-.1-.1-.2-.4c-.1-.1-.2-.3-.3-.4l-.3-.6c-.1-.2-.2-.5-.2-.7-.1-.3-.1-.5-.2-.8s-.1-.6-.1-.9v-.9c0-.6.1-1.3.2-1.8.1-.6.2-1.1.3-1.6.1-1.1.3-1.7.3-1.7"/><g fill="#59402f"><path d="M184.2 28.3s0 .2.1.3c.1.2.2.4.4.6s.4.4.6.5.3.1.3.1 0-.2-.1-.3c-.1-.2-.2-.4-.4-.6s-.4-.4-.6-.5c-.1-.1-.3-.1-.3-.1M183 29.6s0 .1.1.3.2.3.3.5c.1.1.3.3.5.3.2.1.3.1.3.1s0-.1-.1-.3-.2-.3-.3-.5c-.1-.1-.3-.3-.5-.3-.1-.1-.3-.1-.3-.1"/></g><path fill="#59402f" d="M180.1 18.4s.3-.1.7-.4c.5-.2 1.2-.5 2-.7.2-.1.4-.1.7-.2.2 0 .5-.1.7-.1h1.6c.3 0 .5.1.8.1.3.1.5.2.8.2.3.1.5.2.8.3.2.1.5.2.7.4.4.4.9.7 1.2 1.1.4.4.7.8 1 1.3.2.5.6.9.7 1.4.2.5.4.9.6 1.3s.3.8.4 1.1l.3.9c.2.5.3.8.3.8s0-.3-.1-.8c0-.3-.1-.6-.2-.9-.1-.4-.1-.8-.3-1.2-.1-.4-.3-.9-.5-1.4-.1-.5-.4-1-.7-1.5-.2-.5-.6-1-1-1.5-.3-.5-.9-.9-1.3-1.3-.2-.2-.5-.3-.8-.5-.3-.1-.5-.3-.8-.4s-.6-.2-.9-.2-.6-.1-.9-.1h-.8c-.3 0-.5 0-.8.1s-.5.1-.7.2-.5.2-.7.2c-.4.1-.8.3-1.1.5-.6.6-.8.7-1.1.9-.4.2-.6.4-.6.4"/></g></svg>