<svg xmlns="http://www.w3.org/2000/svg" xml:space="preserve" width="193.974" height="112.634" viewBox="-0.75 -0.468 193.974 112.634"><title>Slice 1</title><g fill-rule="evenodd"><path fill="#b1b6cc" d="M31.921 34.996c0 .188.376 5.575-1.189 19.544-1.565 13.968-12.63 16.655-14.268 17.273-1.487.56-1.768.17-1.252 2.772 2.19 10.9 1.376 33.7 1.376 33.7s8.199-2.881 7.198-3.695c-2.129-1.63-2.316-4.373-2.316-4.373s-.063-8.093 0-14.956c.062-6.863 1.814-6.292 1.814-6.292s14.52 1.128 26.16-8.988c13.892-11.62 12.641-26.716 12.641-26.716s-6.532 3.518-12.084 5.838c-7.233 3.025-18.08-14.107-18.08-14.107"/><path fill="none" stroke="#424763" stroke-width=".563" d="M62.085 43.265S63.336 58.36 49.443 69.98c-11.64 10.116-26.159 8.988-26.159 8.988s-1.752-.57-1.814 6.292c-.063 6.863 0 14.956 0 14.956s.188 2.744 2.316 4.373c1 .814-7.198 3.695-7.198 3.695s.814-22.8-1.376-33.7c-.516-2.602-.235-2.212 1.252-2.772 1.638-.618 12.703-3.305 14.268-17.273s1.189-19.356 1.189-19.544"/><path fill="#313753" d="M17.778 111.323s.703-1.117.288-3.581c.343-.131 5.422-2.506 5.422-2.506l3.614 2.673 1.69 3.414z"/><path fill="#424763" d="M39.68 48.088s6.193 15.407 12.888 18.97c.255.135-2.394 2.296-2.394 2.296s-6.05-4.855-10.493-21.266M31.8 42.193S38.926 59.588 43.185 65c3.255 4.136-6.696-4.948-11.702-17.225M31.099 51.08s7.094 18.74 12.727 22.874L40.182 75.9s-7.837-13.153-9.402-21.797c.203-2.069.319-3.023.319-3.023M29.58 59.73s1.946 15.293 5.991 17.68l-3.47.838S28.169 73.344 27.482 64c.372-.816 2.098-4.27 2.098-4.27M23.988 67.887s2.618 9.47 4.12 10.944l-2.76.167s-2.94-4.413-3.228-9.644c-.021-.378 1.868-1.467 1.868-1.467M18.01 71.278c.246-.043 4.11 7.252 4.781 7.827 0 0-1.2 1.408-1.012 2.284.188.877-6.567-6.805-6.567-6.805s-.477-1.607-.166-2.067c.346-.51 1.752-1.034 2.964-1.24M21.47 85.261l-5.141-1.155s.01 3.696.197 3.633c.188-.063 4.925.375 4.925.375zM21.47 91.31l-4.834-.435.074 3.694 4.735.248zM21.462 99.14l-4.727.25-.1 5.2s4.141-1.034 5.484-1.755c.315-.169-.844-1.879-.657-3.695"/><path fill="none" stroke="#424763" stroke-width="1.5" d="M16.267 55.17C30.536 50.364 32.65 34.379 32.65 34.379"/><path fill="#424763" d="M17.914 54.894s-.193.165-.543.432c-.187.138-.392.302-.646.477-.241.186-.548.369-.825.603-.274.224-.609.486-.895.699-.32.288-.651.598-1.013.894-.324.31-.63.645-.969.958l-.992 1.046c-.661.727-1.322 1.454-1.941 2.137-.298.35-.583.673-.866.984-.287.307-.519.623-.754.905-.218.291-.468.536-.634.784-.163.248-.32.46-.449.64-.259.355-.425.56-.425.56s.046-.247.153-.683c.055-.217.121-.484.214-.787.087-.306.248-.617.407-.969.166-.349.33-.743.58-1.106.232-.373.473-.785.753-1.169.281-.373.557-.77.864-1.153.33-.407.659-.775.995-1.164.364-.364.719-.731 1.09-1.077.393-.34.8-.66 1.181-.96.382-.268.77-.504 1.133-.733.439-.243.8-.395 1.161-.563.35-.18.682-.253.974-.356a15.761 15.761 0 0 1 1.447-.398"/><path fill="#424763" d="m3.845 61.992.07-.15c.047-.095.1-.24.205-.417.107-.162.234-.363.391-.58.154-.22.386-.45.63-.703.246-.246.514-.484.81-.73l.45-.365.115-.095.028-.023.059-.039.062-.042.25-.17c.689-.454 1.366-.969 2.187-1.356.82-.373 1.643-.793 2.44-1.015.395-.134.784-.236 1.15-.339a9 9 0 0 1 1.044-.246 16 16 0 0 1 2.207-.272s-.753.514-1.924 1.087c-.584.295-1.244.663-1.975.994-.373.155-.727.361-1.09.549-.366.192-.742.371-1.117.552-.381.155-.754.394-1.13.596-.374.21-.755.394-1.117.584L5.66 60.825c-.258.162-.522.272-.745.425-.22.156-.423.28-.586.385zM3.845 56.137s.74-.51 1.912-1.087c.281-.163.635-.26 1.003-.371.37-.11.761-.236 1.174-.334.214-.054.4-.107.648-.161q.307-.055.625-.097c.42-.062.849-.11 1.277-.16.427-.046.882-.048 1.315-.06.436-.014.867-.001 1.281.005.824.059 1.59.14 2.24.247 1.302.267 2.136.578 2.136.578 0-.001-.888.193-2.169.285-.642.087-1.385.168-2.18.214-.393.034-.797.099-1.209.126-.415.044-.825.045-1.254.1-.43.041-.86.085-1.283.114q-.319.025-.63.036l-.563.072c-.38.056-.755.082-1.114.113-.356.042-.704.03-1.026.108-1.285.239-2.183.272-2.183.272"/><path fill="#424763" d="M.001 59.582c0 .007.065.046.19-.008.125-.043.298-.143.518-.26.44-.246 1.052-.628 1.795-1.07q.279-.168.579-.35c.22-.123.366-.228.689-.37.456-.197.936-.412 1.44-.606.505-.197 1.021-.416 1.555-.61.52-.22 1.112-.339 1.674-.505.572-.144 1.144-.29 1.707-.431.293-.07.536-.134.867-.192l.818-.11c.268-.033.531-.077.793-.1l.785-.038c.51-.03.995-.04 1.424-.038.433-.006.832.005 1.187.014.35-.006.659.002.914.006.51.012.807.033.807.033s-.273.104-.763.263c-.49.165-1.197.367-2.049.543-.432.093-.879.199-1.354.289-.47.085-.972.205-1.505.33l-.803.184-.768.23-1.622.454c-.547.154-1.094.253-1.636.444-.54.177-1.08.324-1.599.482-.517.16-1.027.287-1.507.414-.145.028-.422.155-.628.221l-.645.223c-.829.286-1.542.476-2.055.57a2.8 2.8 0 0 1-.607.06c-.153.004-.21-.07-.201-.072"/><path fill="#b1b6cc" d="M126.722 57.922s-3.33 2.443-4.4 5.388c-1.07 2.943-7.109 19.073-7.109 19.073s.197 1.356.525 2.603c.306 1.164-1.195 3.505-2.652 6.136-1.458 2.63-2.512 6.388-2.552 8.393s.92 3.32.92 3.32c-.042 2.455.219 2.733.3 4.166.038.67-5.788.528-6.406.453-.911-.111.754-1.001.305-2.004-.448-1.002-2.137-1.953-.884-4.02 1.252-2.067 2.215-3.167 3.132-6.55s.719-8.472.4-8.973 1.266-1.801 1.795-4.119c.53-2.317 2.23-14.908 1.201-20.17 0 0 4.2-2.255 4.536-5.763"/><path fill="none" stroke="#424763" stroke-width=".563" d="M126.722 57.922s-3.33 2.443-4.4 5.388c-1.07 2.943-7.109 19.073-7.109 19.073s.197 1.356.525 2.603c.306 1.164-1.195 3.505-2.652 6.136-1.458 2.63-2.512 6.388-2.552 8.393s.92 3.32.92 3.32c-.042 2.455.219 2.733.3 4.166.038.67-5.788.528-6.406.453-.911-.111.754-1.001.305-2.004-.448-1.002-2.137-1.953-.884-4.02 1.252-2.067 2.215-3.167 3.132-6.55s.719-8.472.4-8.973 1.266-1.801 1.795-4.119c.53-2.317 2.23-14.908 1.201-20.17 0 0 4.2-2.255 4.536-5.763"/><path fill="#424763" d="m105.348 107.454-.907 3.962h10.636s-2.358-2.677-2.534-3.617c0 0-.736-.297-1.138-.548"/><path fill="#313753" d="M111.578 63.135c.754-.06 10.185-1.211 10.185-1.211l-10.146 4.815zM114.038 67.96s6.302-1.217 7.017-1.221c.312 0-.893 2.397-.893 2.397z"/><path fill="#424763" d="M119.848 69.98s-7.39 1.01-8.122 1.41-.374 2.255-.374 2.255l8.05-2.466zM111.057 76.158s5.557.117 6.422-.258l-.949 2.607-5.837 1.08zM109.636 83.464s4.56.234 5.553-.235c0 0 .618 2.043.391 2.537 0 0-6.578 1.571-6.82 1.527l-.282-1.809zM108.745 90.43s3.887.303 4.725.002c.223-.094-1.359 2.357-1.359 2.357s-3.2.219-3.559.171c-.358-.046-.138-1.684.193-2.53M108.16 95.397s2.22.187 2.911-.004c.3-.118-.472 2.33-.472 2.33s-2.174.492-3.32.093c-.456-.164-.036-.61-.036-.61l.595-1.813zM105.68 100.217c.101-.023 1.744.775 4.129.066 1.421-.424.921 1.338.921 1.338s-3.352 1.186-5.632 1.034c-1.765-.117.581-2.438.581-2.438"/><path fill="#d3d5df" d="M162.368 26.007s-2.845 8.106 1.003 12.1c2.689 2.79 13.534 8.073 15.988 13.551.308.75.544 1.395.66 2.02a4.23 4.23 0 0 1-.144 2.162s3.473 3.007 7.838.798c4.366-2.207 6.243-7.505 3.427-14.91s-2.902-7.542-4.6-13.136c-1.57-5.176-1.47-6.48-4.707-11.48 0 0 1.87-1.699 4.616-.344 0 0 3.333-11.853-8.21-15.325-10.446-3.141-37.947 1.368-44.735 5.04-6.64 3.592-7.238 6.538-6.746 7.901.493 1.362 4.025 2.728 4.025 2.728"/><path fill="#d3d5df" d="M173.387 10.54s-3.18-1.915-10.784-.474c-6.52 1.235-24 4.698-27.754 5.324-3.755.627-8.386-.439-14.644 0s-13.518 1.629-18.024 1.378c-4.506-.25-13.142-.063-16.897-1.315s-19.462-6.14-28.16-4.26c-8.7 1.88-20.089 11.213-22.217 14.22-2.128 3.006-2.69 6.388-2.753 8.769-.063 2.38-.877 21.172 16.834 16.036 13.204-3.696 10.169-3.774 14.158-.11 2.876 2.642 16.521 19.309 32.84 19.904 16.637.607 30.57 1.472 42.332-16.407 8.515-12.77 20.16-17.081 23.333-18.816"/><path fill="#c0a1a7" d="M177.203 14.656s-2.06 1.956-2.686 1.893-.995-3.85 2.44-7.698c3.339-3.739 5.45-5.623 5.45-5.623s-.886 6.277-5.204 11.428"/><path fill="#424763" d="M171.422 44.016s2.566-7.298 7.689-8.52c0 0-4.882 5.92-4.418 11.002M177.641 40.414c-.075.065 2.222-3.946 5.914-3.257s4.725 3.257 4.725 3.257-6.415-3.664-10.639 0M175.208 46.936s.4-3.549 2.213-5.175c1.502-1.346 5.008-1.065 6.979-.763.806.124 1.533 1.202.218 1.452-1.314.251-3.974-.532-5.507 1.034s-2.096 3.32-2.127 3.883c-.032.564 4.567-3.79 7.259-2.192.782.72-5.28 1.033-6.129 4.792M190.282 40.835s-1.658-2.553-3.097-3.757-3.726-3.742-4.225-5.402c-.5-1.66 3.191 3.038 4.38 4.228s1.947 1.828 1.947 1.828M186.861 31.476s-1.867-1.616-2.805-3.214c-.552-.937-1.345-4.102-1.345-4.102s-.448 3.124.554 4.972 4.058 5.739 5.318 7.556"/><path fill="#424763" d="M184.525 35.748s-2.566-2.38-2.91-3.539-.751-1.016-1.972-.884c-1.22.132-3.614-.025-4.435-.431-.821-.408-.938-.91-2.054 0-1.114.908-5.245 4.29-5.088 10.43.016.658 1.095 1.377 1.095 1.144l1.206.814s-.466-4.341 1.055-7.784c.9-2.037 2.4-3.284 2.862-3.284s1.104 1.279 2.982.903c1.877-.376 3.16-1.096 3.348-.752s2.393 3.117 3.91 3.383M181.458 24.003s-3.138-4.448-.756-8.156c.17-.264 1.577 2.245 1.577 2.245s-1.977 3.815-.82 5.911M180.275 15.17c-.094 0-3.04 1.958-4.387 7.142-.695 2.676-.5 2.286-.844 1.847-.344-.438-1.283-3.257.688-6.327s2.676-4.39 2.676-4.39M164.313 39.124c.094-.031 4.441-5.538 5.725-8.419 1.282-2.882 2.471-7.172 2.471-8.863 0-1.692-2.002 4.353-5.163 8.957-2.131 3.104-4.693 4.698-4.693 4.698s4.991-5.574 5.194-10.523c.204-4.95-1.44 1.687-3.254 4.196-1.288 1.78-2.748 3.477-3.405 4.229"/><path fill="#424763" d="M164.313 39.124s-3.538-3.22-2.911-5.694M171.207 9.878s-1.921 1.445-1.765 3.356.094 6.227-1.033 8.075c-.842 1.383-3.065 3.508-3.065 3.508s1.376-3.138 1.376-5.86-1.835-7.58 1.565-9.408c.845-.454 2.608.329 2.922.329M166.595 9.528c-.094.032-4.555 5.045-4.943 12.721-.389 7.676-1.752 1.065-1.752 1.065s-1.502-5.794 1.69-11.15c1.939-3.257 3.04-2.448 3.04-2.448zM158.11 10.884s-.589 11.115-.025 15.875c.563 4.761.437 4.917-.25 2.756-.69-2.16-2.66-10.399-2.723-15.159s0-2.89 0-2.89zM153.104 11.857s.412 15.403 5.494 24.326l-4.441 2.377s-3.55-7.009-4.677-15.841-.52-9.897-.52-9.897zM145.725 13.292s-.532 18.033 5.047 27.433c-.391.526-2.95 2.212-2.95 2.212s-5.769-13.316-4.424-29.195c1.388-.301 1.607-.665 2.076-.508M146 44.487s-4.94-12.637-6.285-26.444c0-3.29-1.247 8.5-.56 16.703.477 5.71 2.043 11.754 2.883 13.722M137.433 15.17s-2.629 19.951-1.659 32.166c.266 3.35-1.806-1.837-2.557-7.286-.751-5.45-1.228-10.485-1.01-24.461M133.389 59.667s-4.624-9.45-4.905-27.615c.187-3.852-1.22 10.304-.72 18.572.501 8.269.916 11.172 1.448 12.895M128.922 15.672s-4.374 12.621-7.222 37.39c.157 3.513-.395-14.673.287-20.089.594-4.714 2.21-16.268 3.055-17.49.407-.625 3.88.189 3.88.189M123.853 15.61c-.596.532-3.755 8.236-5.539 17.977s-3.66 22.519-3.66 22.519c-1.596-7.71-1.157-11.106-1.033-16.412.188-8.05 2.44-18.577 4.224-21.95 1.502-2.526 1.49-2.307 1.656-2.32.164-.012 4.352-.14 4.352-.14s.594-.207 0 .325M115.81 15.816s-2.339 3.708-4.613 14.138c-2.211 10.15-1.957 31.523-1.957 31.664 0 .14-2.607-6.103-2.629-17.946-.025-13.765 3.943-24.387 4.929-26.194.985-1.806 1.307-1.408 1.307-1.408l2.4-.254zM109.193 16.47s-6.29 15.313-8.778 46.37c-.395 4.943-3.566-11.98-1.22-25.98s3.943-17.794 4.74-19.116c.8-1.32 2.207-1.046 2.207-1.046l2.816-.229zM102.719 16.796c-.093.14-4.04 3.573-6.809 17.104s-4.553 30.255-4.553 30.255-1.736-7.188-1.267-17.665 2.16-20.67 5.96-28.282c1.279-2.558 1.366-1.588 1.366-1.588l5.11.171zM90.983 16.362S79.577 54.102 80 60.209c.379 5.484-2.522-6.232.187-22.645 2.77-16.771 7.025-21.61 7.025-21.61M80.911 16.44c-.621 1.118-2.989 7.49-4.386 12.762-3.707 14-3.097 27.671-3.097 27.671s-1.549-4.557-1.455-13.624.929-15.734 5.012-26.633c1.23-2.843 2.51-2.843 2.51-2.843l2.756.794 1.047.321s-1.766.433-2.387 1.551M72.911 12.571c-.187.047-9.246 21.563-7.791 35.094 0 0-2.222-13.794.328-24.806 2.254-9.724 3.628-11.405 3.628-11.405l3.835.713zM88.119 68.054c-.047-.282-1.913-15.84-.924-26.98.94-10.604-3.68 14.264-3.022 25.962l.418.19 3.545 1.382zM98.337 70.256s-2.992-13.59-2.85-19.772c.142-6.108-2.1 9.304-.974 19.452M106.611 70.256s-1.925-15.13-1.454-23.676c.469-8.546-1.676 15.573-1.69 23.664-.002.394 2.347.009 2.347.009M187.01 12.42s-3.904-.549-6.44 2.232c-.133.082-1.28-1.211-1.28-1.211s1.645-3.416 6.964-4.947c0 0 .896 2.063.755 3.926M171.207 9.407s1.585-5.367 1.402-8.912c-.017-.266 3.822.529 3.822.529s-.019 4.64-4.06 8.76M167.381.44s.533 6.006-.232 8.686h1.996s2.062-4.628 1.728-8.173l-.099-.512"/><path fill="#424763" d="M166.057.44s.209 5.859-.554 8.769l-2.346.199s-.066-6.907-.698-8.771c-.132-.3 2.628-.196 2.628-.196zM160.746.721s1.163 3.912.233 9.063l-1.63.29s-.632-6.84-2.012-9.038c-.3-.632.681-.117.681-.117zM155.873 1.236s.383 7.736.955 9.205c-.04.083-2.402.516-2.402.516s-1.33-.998-2.677-9.055c-.041-.367.596-.333.596-.333zM149.41 2.034s1.009 7.508 1.557 9.54l-2.278.498s-2.445-3.795-2.854-9.37l.506-.102zM143.467 3.45s.162 2.333.382 3.42c.19.944.633 2.789 1.115 3.671.435.797 1.035 1.964 1.035 1.964l-2.93.691s-1.93-2.538-2.962-6.366c-.46-1.714-.648-2.381-.648-2.381l3.973-1.22zM138.344 5.398s1.963 5.226 1.897 8.39l-2.146.415s-1.346-4.478-3.575-8.106c-.144-.184.431-.184.431-.184l3.16-1.098zM133.255 7.053s2.245 2.956 2.461 7.383c0 0-1.03.483-1.612.483 0 0-1.98-4.754-3.51-6.214l-.4-.296 2.82-1.688zM129.039 9.528c.051-.006.768 2.944 1.955 5.49h-1.547s-1.58-2.313-2.228-2.763 1.17-2.643 1.82-2.727M184.849 5.879s-1.706-2.037-2.094-2.166c-.387-.13-.868 2.166-.868 2.166l-.716 2.204s-.622 1.56-.598 1.49M178.876 1.766s.455 2.505-1.298 4.666l4.554-3.382"/><path fill="#d3d5df" d="M184.283 4.978c.07.009 1.945-1.826 1.945-1.826l-.681 3.754z"/><path fill="none" stroke="#424763" stroke-width=".563" d="M184.161 4.825c1.533-1.316 2.21-1.775 2.21-1.775s-.429 1.804-.825 3.856"/><path fill="#c0a1a7" d="M179.643 55.84s.732-2.113.676-2.74c-.055-.626.343-2.22.907-2.345.563-.125 3.674.747 4.512-2.087.348-1.179.978-3.508 1.166-4.767s.362-1.777 1.15-2.638 2.443-.501 2.626-.128c3.483 7.078.588 12.478-1.296 14.203-3.232 2.96-6.2 2.569-9.74.502"/><path fill="none" stroke="#424763" stroke-width=".563" d="M162.136 26.007s-2.845 8.106 1.004 12.1c2.688 2.79 13.533 8.073 15.987 13.551.308.75.544 1.395.66 2.02a4.23 4.23 0 0 1-.144 2.162s3.473 3.007 7.839.798c4.365-2.207 6.243-7.505 3.426-14.91-2.816-7.405-3.708-7.358-4.6-13.136-.891-5.78-3.452-10.52-7.77-15.358"/><path fill="none" stroke="#424763" stroke-width=".5" d="M190.68 41.135s-1.661-.881-2.917.376c-.891.892-.657 1.973-1.22 4.274-.564 2.303-.916 4.253-2.605 4.863s-2.792-.446-3.356.54c-.563.987.126 2.162-.72 3.383M188.092 54.571s.61-1.01 0-2.255c-.32-.733-.493-1.41 0-1.762.492-.352 1.666.658 1.173 2.255-.516 1.363-1.173 1.762-1.173 1.762Z"/><path fill="#edeef4" d="M182.248 29.648s.115-3.482-2.816-3.758c-2.75-.259-4.224-.447-4.224-.447s.774.588.848 1.946c.083 1.526 1.311 1.907 3.564 1.837s2.628.422 2.628.422"/><path fill="none" stroke="#424763" stroke-width=".5" d="M182.248 29.648s.115-3.482-2.816-3.758c-2.75-.259-4.224-.447-4.224-.447s.774.588.848 1.946c.083 1.526 1.311 1.907 3.564 1.837s2.628.422 2.628.422Z"/><path fill="#424763" d="M178.728 26.007s-.939.376-.915 1.41.493 1.427.915 1.691 1.135.252 1.135.252 2.268-.04 2.385.288c.118.329.034-3.222-2.635-3.725-.702-.124-.885.084-.885.084"/><path fill="none" stroke="#424763" stroke-width=".563" d="M172.164 16.768s-2.002-2.13-.218-4.823S182.71 2.8 182.71 2.8s-1.502 5.386-2.44 7.329a34 34 0 0 1-2.598 4.416"/><path fill="#c0a1a7" d="M174.387 16.298s-3.035-3.1 8.323-13.498"/><path fill="none" stroke="#424763" stroke-width=".563" d="M173.155 10.54s-3.18-1.915-10.784-.474c-6.52 1.235-24 4.698-27.755 5.324-3.755.627-8.385-.439-14.644 0-6.257.439-13.517 1.629-18.023 1.378-4.506-.25-13.142-.063-16.897-1.315s-19.462-6.14-28.16-4.26c-8.7 1.88-20.09 11.213-22.217 14.22-2.128 3.006-2.691 6.388-2.754 8.769-.062 2.38 6.623 18.309 16.835 16.036 13.203-3.696 10.169-3.774 14.158-.11 2.875 2.642 16.521 19.309 32.84 19.904 16.636.607 30.57 1.472 42.332-16.407 8.515-12.77 20.159-17.081 23.333-18.816"/><path fill="none" stroke="#424763" stroke-width=".563" d="M181.634 17.128s2.328-1.926 4.815-.36c0 0 2.347-6.499-2.487-12.183C179.127-1.1 162.688.3 158.23.817c-4.46.517-24.465 2.65-30.01 9.419-3.11 3.797-.674 5.187-.674 5.187"/><path fill="#d3d5df" d="M68.91 47.665s.982 11.653-6.137 20.718C54.813 78.5 41.38 78.969 41.38 78.969s-1.96-.57.473 6.292a1276 1276 0 0 0 5.438 14.956s1.185 2.744 3.905 4.373c1.298.814-5.853 3.695-5.853 3.695s-7.476-22.8-13.63-33.7c-1.462-2.602-1.04-2.212.243-2.772 1.415-.618 10.624-6.076 5.68-16.918-5.764-12.641-5.436-19.032-5.505-19.22"/><path fill="none" stroke="#424763" stroke-width=".563" d="M31.92 33.824c.069.188-.394 7.079 5.383 20.28 5.774 13.194-3.933 17.092-5.348 17.709-1.284.56-1.706.17-.243 2.771 6.154 10.9 13.63 33.701 13.63 33.701s6.918-3.398 5.854-3.696c-2.081-.971-3.906-4.372-3.906-4.372s-3.005-8.093-5.438-14.956c-2.434-6.863-.473-6.291-.473-6.291s13.432-.47 21.394-10.587c9.668-11.62 5.022-30.161 5.022-30.161"/><path fill="#424763" d="M46.622 111.323s1.31-1.117 0-3.581c.296-.131 4.511-2.506 4.511-2.506l3.614 1.624 2.453 4.463zM46.546 48.088s10.087 14.16 18.077 17.723c.304.135-1.85 2.572-1.85 2.572S56.957 64.5 46.546 48.088M32.53 40.297s13.452 17.395 19.68 22.808c4.758 4.135-8.495-4.949-17.967-17.226M36.29 51.699S51.545 68.347 58.68 72.481l-2.664 1.916s-13.15-9.44-17.858-18.083c-.55-2.07-1.866-4.615-1.866-4.615M39.058 62.513s7.779 11.6 12.692 13.988l-2.644.964s-6.476-2.847-10.562-12.192c.076-.816.514-2.76.514-2.76M37.64 67.191s5.958 9.711 7.995 11.185l-2.392.411S37.76 74.84 35.57 69.61c-.158-.376 2.07-2.418 2.07-2.418M33.307 71.278c.231-.043 6.747 7.252 7.628 7.827 0 0-.689 1.408-.183 2.284.507.877-9.04-6.805-9.04-6.805s-1.063-1.607-.918-2.067c.16-.51 1.375-1.034 2.513-1.24M41.852 85.261l-5.561-1.155s1.353 3.696 1.518 3.633 5.061.375 5.061.375zM44.051 91.31l-4.992-.435 1.417 3.694 4.826.248zM46.891 99.14l-4.637.25 1.791 5.2s3.765-1.034 4.847-1.755c.253-.169-1.528-1.879-2-3.695M65.792 11.015c-.093.083-10.341 16.401-11.28 34.16-.75 7.94-2.956-19.7 6.759-34.406 2.951-.232 4.521.246 4.521.246M51.586 13.04s-5.428 24.242-1.673 32.792c0 0-6.703-19.854-2.385-30.662 2.103-1.706 4.058-2.13 4.058-2.13M42.248 18.646s-2.895 12.623.127 24.79c1.438 5.788-4.266-6.907-4.627-13.476-.282-5.122.078-7.779.078-7.779s2.568-2.489 4.422-3.535"/><path fill="#d3d5df" d="M127.857 57.922s-2.44 2.443-2.44 5.388c0 2.943-.173 19.073-.173 19.073s.689 1.356 1.47 2.603c.73 1.164.08 3.505-.421 6.136-.501 2.63-.187 6.388.5 8.393s2.129 3.32 2.129 3.32c.85 2.455 1.211 2.733 1.814 4.166.282.67-5.596.528-6.243.453-.95-.111.392-1.001-.422-2.004-.813-1.002-2.848-1.953-2.346-4.02.5-2.067 1.063-3.167.75-6.55s-2.363-8.472-2.863-8.973.61-1.801.298-4.119c-.314-2.317-3.192-14.908-6.134-20.17 0 0 3.38-2.255 2.44-5.763"/><path fill="none" stroke="#424763" stroke-width=".563" d="M127.857 57.922s-2.44 2.443-2.44 5.388c0 2.943-.173 19.073-.173 19.073s.689 1.356 1.47 2.603c.73 1.164.08 3.505-.421 6.136-.501 2.63-.187 6.388.5 8.393s2.129 3.32 2.129 3.32c.85 2.455 1.211 2.733 1.814 4.166.282.67-5.596.528-6.243.453-.95-.111.392-1.001-.422-2.004-.813-1.002-2.848-1.953-2.346-4.02.5-2.067 1.063-3.167.75-6.55s-2.363-8.472-2.863-8.973.61-1.801.298-4.119c-.314-2.317-3.192-14.908-6.134-20.17 0 0 3.38-2.255 2.44-5.763"/><path fill="#313753" d="m124.494 107.454-.61 3.962h11.78s-3.332-2.677-3.848-3.617c0 0-.844-.297-1.338-.548"/><path fill="#424763" d="M114.609 63.135c.733-.06 9.744-1.211 9.744-1.211l-8.395 4.815zM118.823 67.96s5.86-1.217 6.573-1.221c.312 0-.02 2.397-.02 2.397zM125.368 69.98s-7.023 1.01-7.61 1.41c-.586.399.447 2.255.447 2.255l7.151-2.466zM118.823 76.158s5.6.117 6.328-.258v2.607l-5.444 1.08zM120.058 83.464s4.647.234 5.468-.235c0 0 1.362 2.043 1.314 2.537 0 0-6.007 1.571-6.266 1.527l-.938-1.809zM121.701 90.43s3.997.303 4.727.002c.188-.094-.503 2.357-.503 2.357s-3.12.219-3.496.171c-.376-.046-.751-1.684-.728-2.53M122.922 95.397s2.288.187 2.91-.004c.258-.118.375 2.33.375 2.33s-1.995.492-3.285.093c-.516-.164-.259-.61-.259-.61l-.064-1.813zM122.194 100.217c.094-.023 2.026.775 4.154.066 1.267-.424 1.408 1.338 1.408 1.338s-2.922 1.186-5.257 1.034c-1.807-.117-.305-2.438-.305-2.438"/></g></svg>