<svg xmlns="http://www.w3.org/2000/svg" width="242.644" height="225.174" viewBox="0 0 242.644 225.174"><g fill="none" stroke-linecap="none" stroke-linejoin="none" stroke-miterlimit="10" stroke-width="none" data-paper-data="{&quot;isPaintingLayer&quot;:true}" font-family="none" font-size="none" font-weight="none" style="mix-blend-mode:normal" text-anchor="none"><g stroke-linejoin="miter" data-paper-data="{&quot;index&quot;:null}"><path fill="#d974e8" stroke="#5e154d" stroke-linecap="butt" stroke-width=".6" d="M209.108 71.903h-4.532v-30.15h4.532z"/><path fill="#8b49d4" stroke="#5e154d" stroke-linecap="butt" stroke-width=".6" d="M180.446 49.217h17.919a9.15 9.15 0 0 0 6.211-3.522v22.308a9.15 9.15 0 0 0-6.211-3.522h-17.919a7.635 7.635 0 0 1-7.638-7.632 7.635 7.635 0 0 1 7.638-7.632z"/><path fill="#8b49d4" stroke="#5e154d" stroke-linecap="butt" stroke-width=".6" d="M185.104 64.481v11.196h-4.196V64.481h4.196"/><path stroke="#fff" stroke-linecap="butt" stroke-width=".6" d="M176.711 56.933a4.195 4.195 0 0 1 4.197-4.193"/><path stroke="#5e154d" stroke-linecap="round" stroke-width="1.2" d="M225.852 56.849h-7.134M224.174 73.79l-5.456-5.41M224.174 39.908l-5.456 5.41"/></g><g stroke-linecap="butt" stroke-linejoin="miter" stroke-width="1" data-paper-data="{&quot;index&quot;:null}"><path fill="#f7c1d8" d="M6.593 82.184c0-4.403 2.14-6.499 5.917-6.499h180.828a7.34 7.34 0 0 1 6.672 6.457l7.05 45.119 24.844 17.319a8.68 8.68 0 0 1 4.448 8.889v17.57H6.593z"/><path fill="#da53d6" d="M236.352 169.907v37.11h-28.117a25.35 25.35 0 0 0-7.464-18.222 25.4 25.4 0 0 0-18.26-7.399 24.6 24.6 0 0 0-17.881 7.503 24.56 24.56 0 0 0-6.879 18.118H84.186c-.561-13.987-12.072-25.037-26.081-25.037s-25.52 11.05-26.081 25.037H6.593v-37.11z"/></g><path fill="#5e154d" stroke="#5e154d" stroke-linecap="round" stroke-linejoin="round" stroke-width="1.512" d="M115.95 63.607v12.118h-5.245V63.607zM45.197 63.481v12.118h-5.245V63.481z" data-paper-data="{&quot;index&quot;:null}"/><g stroke-linejoin="miter" data-paper-data="{&quot;index&quot;:null}"><path fill="#ffd78f" stroke="#e89f1f" stroke-linecap="butt" stroke-width="1.35" d="M74.947.675c28.645 0 50.428 24.152 55.574 42.266a76.8 76.8 0 0 1 1.875 26.734H21.687c-3.99 0-5.865-4.33-5.865-9.097a59.4 59.4 0 0 1 7.46-27.806C32.418 16.445 49.214.675 74.947.675z"/><path fill="#4ed1c1" stroke="#009cc6" stroke-linecap="round" stroke-width="1.35" d="m31.08 24.394 2.781 17.03-3.925.644-2.78-17.031 3.925-.643"/><path fill="#fff" stroke="#000" stroke-linecap="round" stroke-width="1.8" d="m56.834 16.407-4.03 16.78-3.866-.933 4.03-16.778 3.866.931"/><path fill="#4ed1c1" stroke="#009cc6" stroke-linecap="round" stroke-width="1.875" d="m43.572 12.743 9.988 13.98-3.995 2.866-9.988-13.98 3.995-2.866"/><path fill="#4ed1c1" stroke="#009cc6" stroke-linecap="round" stroke-width="1.875" d="M43.959 20.595 40.996 41.99l-4.807-.668 2.963-21.396 4.807.668"/><path fill="#4ed1c1" stroke="#009cc6" stroke-linecap="round" stroke-width="1.35" d="M33.928 16 48.45 33.292l-3.896 3.285-14.52-17.291 3.895-3.284"/><path fill="#009cc6" stroke="#009cc6" stroke-linecap="round" stroke-width="1.875" d="m39.135 26.8-2.368 17.093-4.058-.564 2.368-17.094 4.058.564"/><path fill="#4ed1c1" stroke="#009cc6" stroke-linecap="round" stroke-width="1.35" d="m138.45 33.537-6.654 15.918-3.78-1.586 6.655-15.918 3.779 1.586M135.884 28.26l-13.178 11.111-3.098-3.69 13.176-11.11 3.1 3.69"/><path fill="#009cc6" stroke="#009cc6" stroke-linecap="round" stroke-width="1.35" d="m130.372 29.384-15.518 7.484-1.984-4.13 15.518-7.484 1.984 4.13"/><path fill="#4ed1c1" stroke="#009cc6" stroke-linecap="round" stroke-width="1.875" d="m138.489 42.101-16.4-5.27 1.251-3.909 16.4 5.27-1.251 3.91"/><path fill="#f46e9e" stroke="#ea3681" stroke-linecap="round" stroke-width="1.35" d="M30.856 69.631h-4.665a5.53 5.53 0 0 1-4.222-1.226 5.37 5.37 0 0 1-1.944-3.895 4.86 4.86 0 0 1 2.272-4.321 5.54 5.54 0 0 1-2.475-4.561c.159-1.703 1.398-3.118 3.083-3.521a5.32 5.32 0 0 1-1.46-4.642c.568-2.56 4.057-2.88 4.057-2.88a3.526 3.526 0 0 1 0-4.762c2.109-2.4 5.192 0 5.192 0a4.57 4.57 0 0 1 4.666-2.08c2.234.182 4.065 1.824 4.462 4.001zM121.125 31.675l-68.818-5.253a31.3 31.3 0 0 1-2.379-7.739 8.5 8.5 0 0 1 3.45-8.26 11.5 11.5 0 0 1 7.933-1.203c.848-2.889 3.374-4.948 6.347-5.173a9.34 9.34 0 0 1 8.369 2.928 6.5 6.5 0 0 1 5.87-3.69 8.52 8.52 0 0 1 6.386 4.01 9.81 9.81 0 0 1 8.726-4.611 9.35 9.35 0 0 1 7.933 4.932 7 7 0 0 1 5.87 0 9.2 9.2 0 0 1 4.443 5.614 6.18 6.18 0 0 1 5.235 1.283 8.67 8.67 0 0 1 3.332 5.213z"/><path fill="#4ed1c1" stroke="#009cc6" stroke-linecap="round" stroke-width="1.875" d="m125.988 20.444-2.367 17.093-4.847-.673 2.367-17.094 4.847.674"/><path fill="#009cc6" stroke="#009cc6" stroke-linecap="round" stroke-width="1.35" d="m49.87 10.752 3.966 17.653-4.267.963-3.967-17.653 4.268-.963"/><path fill="#ea3681" stroke="#ea3681" stroke-linecap="round" stroke-width=".9" d="M28.65 52.847a4 4 0 0 1 1.172 2.828 4 4 0 0 1-1.172 2.828 4 4 0 0 1-2.828 1.172 4 4 0 0 1-2.828-1.172 4 4 0 0 1-1.172-2.828c0-1.104.448-2.104 1.172-2.828a4 4 0 0 1 2.828-1.172c1.104 0 2.104.448 2.828 1.172z"/><path fill="#fdbb38" stroke="#e89f1f" stroke-linecap="butt" stroke-width="1.35" d="M83.284 13.675c30.413.417 54.78 25.438 54.536 56H21.822c5.135 0 6.409-3.4 7.364-9.04 4.35-26.744 27.133-46.521 54.098-46.96z"/><path fill="#ea3681" stroke="#ea3681" stroke-linecap="round" stroke-width=".9" d="M110.65 10.847a4 4 0 0 1 1.172 2.828 4 4 0 0 1-1.172 2.828 4 4 0 0 1-2.828 1.172 4 4 0 0 1-2.828-1.172 4 4 0 0 1-1.172-2.828c0-1.104.448-2.104 1.172-2.828a4 4 0 0 1 2.828-1.172c1.104 0 2.104.448 2.828 1.172zM71.65 7.847a4 4 0 0 1 1.172 2.828 4 4 0 0 1-1.172 2.828 4 4 0 0 1-2.828 1.172 4 4 0 0 1-2.828-1.172 4 4 0 0 1-1.172-2.828c0-1.104.448-2.104 1.172-2.828a4 4 0 0 1 2.828-1.172c1.104 0 2.104.448 2.828 1.172z"/><path stroke="#e89f1f" stroke-linecap="round" stroke-width="1.35" d="m105.822 61.675 2-2M91.822 53.332l-3-.314M47.822 58.675l-1-3M98.822 42.675l2 3M117.822 50.675l3 1M77.822 62.675l-2-2M75.822 40.675l3 2M63.822 54.675l1-3"/><path stroke="#ffd78f" stroke-linecap="round" stroke-width="1.8" d="M41.822 42.675a32.4 32.4 0 0 1 3-4M47.822 35.675c3.697-4.457 8.097-8.181 13-11"/></g><g stroke-linecap="butt" data-paper-data="{&quot;index&quot;:null}"><path fill="#b3e0d7" d="M191.798 95.172c2.015 0 3.903.503 4.449 4.193l4.867 33.546a3.35 3.35 0 0 1-1.426 2.684l-10.156-40.632zM185.839 95.214l10.324 41.387h-9.736a3.65 3.65 0 0 1-3.651-3.648V98.82a3.69 3.69 0 0 1 3.063-3.606"/><path fill="#d4fff5" d="M186.427 95.172h3.105l10.156 40.633c-.672.522-1.5.803-2.35.796h-1.175l-10.324-41.387z"/><path stroke="#5e154d" stroke-linejoin="round" stroke-width="1.512" d="M185.839 95.214h5.959c2.015 0 3.903.503 4.449 4.193l4.867 33.546a3.35 3.35 0 0 1-1.426 2.684c-.672.522-1.5.803-2.35.797h-10.911a3.65 3.65 0 0 1-3.651-3.648V98.82a3.69 3.69 0 0 1 3.063-3.606z"/></g><g stroke-linejoin="miter" data-paper-data="{&quot;index&quot;:null}"><path fill="#b3e0d7" d="M60.429 103.587v44.91h-8.981l-11.247-44.91z"/><path fill="#d4fff5" d="m40.201 103.587 11.247 44.91h-6.043l-11.247-44.91zM30.759 103.587l11.205 44.91h-3.399l-11.247-44.91z"/><path fill="#b3e0d7" d="m34.158 103.587 11.247 44.91h-3.441l-11.205-44.91zM25.933 103.587h1.385l11.247 44.91H25.933z"/><g stroke="#5e154d" stroke-width="1.512"><path fill="#996cd4" stroke-linecap="round" d="M109.108 148.497v4.528H21.401v-4.528h87.707"/><path fill="#ea3681" stroke-linecap="butt" d="M25.598 86.73h79.314l3.693 16.857h-86.7l3.693-16.857"/><path fill="#43c3d7" stroke-linecap="round" d="M104.534 103.587v44.91H60.429v-44.91h44.105"/><path fill="#5e154d" stroke-linecap="round" d="M104.534 153.025v7.129h-4.197v-7.129h4.197M29.584 153.025v7.129h-4.196v-7.129h4.196"/><path stroke-linecap="round" d="M60.429 103.587v44.91H25.933v-44.91h34.496"/></g></g><g stroke-linecap="butt" data-paper-data="{&quot;index&quot;:null}"><path fill="#fc9fe4" stroke="#5e154d" stroke-linejoin="round" stroke-width="1.512" d="M127.368 95.172h43.895a3.65 3.65 0 0 1 3.651 3.648v75.73a29.37 29.37 0 0 0-24.172 23.356h-23.29a3.65 3.65 0 0 1-3.609-3.606V98.82a3.65 3.65 0 0 1 3.525-3.648z"/><path fill="#b3e0d7" d="M167.361 104.02v33.085h-4.617l-8.267-33.085z"/><path fill="#d4fff5" d="m154.477 104.02 8.267 33.085h-6.085l-8.225-33.085z"/><path fill="#b3e0d7" d="m148.434 104.02 8.225 33.085h-3.399l-8.225-33.085z"/><path fill="#d4fff5" d="m145.035 104.02 8.225 33.085h-3.441l-8.225-33.085z"/><path fill="#b3e0d7" d="M131.271 104.02h10.323l8.225 33.085h-18.548z"/><path stroke="#d974e8" stroke-linejoin="round" stroke-width="1.512" d="M167.361 148.468v9.016h-4.197v-9.016h4.197"/></g><g stroke-linejoin="miter" data-paper-data="{&quot;index&quot;:null}"><g stroke-linecap="butt"><path fill="#f7c1d8" stroke="#5e154d" stroke-width="2.016" d="M241.636 172.968v10.86h-5.371v-10.86h5.371"/><path stroke="#fc9fe4" stroke-width="1.512" d="M221.996 183.786v4.655h-8.393v-4.655h8.393"/><path fill="#8b49d4" stroke="#5e154d" stroke-width="2.016" d="M6.547 172.968v10.86H1.008v-10.86h5.539"/><path stroke="#000" stroke-width="2.016" d="M196.733 148.437h-10.869M196.733 153.218h-10.869M196.733 158.04h-10.869"/><path stroke="#5e154d" stroke-width="2.016" d="M12.464 75.685h180.828a7.34 7.34 0 0 1 6.673 6.457l7.05 45.119 24.843 17.319a8.68 8.68 0 0 1 4.449 8.889v53.548H208.19a25.74 25.74 0 0 0-7.68-18.298 25.78 25.78 0 0 0-18.422-7.407c-13.574.972-24.176 12.11-24.466 25.705H84.141c-.069-14.356-11.736-25.956-26.102-25.956-14.353 0-25.18 13.502-25.557 25.956H6.547V82.184c0-4.403 2.14-6.499 5.917-6.499z"/></g><path fill="#d974e8" stroke="#5e154d" stroke-linecap="butt" stroke-width="2.016" d="M233.285 193.976v-10.19h6.463v23.231h-12.884v-13.041h6.421"/><path fill="#fdbb38" stroke="#5e154d" stroke-linecap="butt" stroke-width="1.512" d="M182.759 186.805c-11.848.321-21.217 10.133-20.983 21.973h-6.252a27.37 27.37 0 0 1 12.824-25.885 27.42 27.42 0 0 1 28.906 0 27.37 27.37 0 0 1 12.824 25.885h-6.252c.234-11.872-9.186-21.698-21.067-21.973zM58.71 186.805c-11.838.343-21.195 10.141-20.983 21.973h-6.252a27.37 27.37 0 0 1 12.824-25.885 27.42 27.42 0 0 1 28.906 0 27.37 27.37 0 0 1 12.824 25.885h-6.211c.211-11.879-9.221-21.698-21.108-21.973z"/><path stroke="#fff" stroke-linecap="round" stroke-width="1.512" d="M230.306 203.075v-5.87"/></g><g stroke-linejoin="miter" data-paper-data="{&quot;index&quot;:null}"><g stroke="#fff" stroke-linecap="butt" stroke-width="2.52"><path d="M12.027 92.256v-6.29a4.658 4.658 0 0 1 5.036-5.2h5.623M26.463 80.766h3.357"/></g><g stroke="#cc48cc" stroke-linecap="butt" stroke-width="1.512"><path d="m112.044 177.296 3.147 2.181M97.692 175.325l-.924 3.732M106.211 190.379l-.462-3.816M135.712 201.575l3.609 1.342M226.902 177.799l-3.483-1.635M217.25 196.04l1.134 3.69M205.626 180.315l1.931-3.312M191.945 175.074l-3.818-.252M167.857 181.364l2.854-2.6M156.401 193.692v-3.858M96.307 195.369l-.923 3.732M86.907 185.054l3.147 2.18M78.556 175.619l-2.267 3.145M58.496 175.158l3.861-.21M44.732 178.386l-2.644-2.851M29.288 184.005l3.106-2.264M19.469 176.29l3.609 1.342M14.601 184.257l.629 3.774M15.272 200.233l1.763-3.396M27.442 194.363l-3.147-2.223M114.562 197.256l-3.609 1.258"/></g><path stroke="#5e154d" stroke-linecap="butt" stroke-width="1.512" d="M167.354 103.997v33.042h-36.09v-33.042h36.09"/><g stroke="#5e154d" stroke-linecap="butt" stroke-width="1.512"><path fill="#fff" d="M108.772 103.564v4.822a4.824 4.824 0 0 1-4.826 4.823 4.824 4.824 0 0 1-4.826-4.823v-4.822z"/><path fill="#f7c1d8" d="M98.952 103.564v4.822a4.82 4.82 0 0 1-2.263 4.549 4.83 4.83 0 0 1-5.084 0 4.82 4.82 0 0 1-2.263-4.549v-4.822z"/><path fill="#fff" d="M89.342 103.564v4.822a4.824 4.824 0 0 1-4.826 4.823 4.824 4.824 0 0 1-4.826-4.823v-4.822z"/><path fill="#f7c1d8" d="M79.69 103.564v4.822a4.82 4.82 0 0 1-2.263 4.549 4.83 4.83 0 0 1-5.084 0 4.82 4.82 0 0 1-2.263-4.549v-4.822z"/><path fill="#fff" d="M70.08 103.564v4.822a4.824 4.824 0 0 1-4.826 4.823 4.824 4.824 0 0 1-4.826-4.823v-4.822z"/><path fill="#f7c1d8" d="M60.428 103.564v4.822a4.824 4.824 0 0 1-4.826 4.823 4.824 4.824 0 0 1-4.826-4.823v-4.822z"/><path fill="#fff" d="M50.776 103.564v4.822a4.82 4.82 0 0 1-2.263 4.549 4.83 4.83 0 0 1-5.084 0 4.82 4.82 0 0 1-2.263-4.549v-4.822z"/><path fill="#f7c1d8" d="M41.166 103.564v4.822a4.824 4.824 0 0 1-4.826 4.823 4.824 4.824 0 0 1-4.826-4.823v-4.822z"/><path fill="#fff" d="M31.514 103.564v4.822a4.82 4.82 0 0 1-2.263 4.549 4.83 4.83 0 0 1-5.084 0 4.82 4.82 0 0 1-2.263-4.549v-4.822z"/></g><path fill="#5e154d" stroke="#5e154d" stroke-linecap="round" stroke-width="2.016" d="M194.658 195.718a16.59 16.59 0 0 1 4.883 11.768c0 4.593-1.867 8.754-4.883 11.768a16.61 16.61 0 0 1-11.777 4.879 16.61 16.61 0 0 1-11.777-4.879 16.6 16.6 0 0 1-4.883-11.768c0-4.593 1.867-8.755 4.883-11.768a16.61 16.61 0 0 1 11.777-4.879c4.596 0 8.761 1.865 11.777 4.879z"/></g><path fill="#c5a2fc" stroke="#c5a2fc" stroke-linecap="butt" stroke-linejoin="miter" stroke-width="1.008" d="M189.102 201.264a8.82 8.82 0 0 1 2.596 6.255 8.82 8.82 0 0 1-2.596 6.254 8.83 8.83 0 0 1-6.259 2.593 8.83 8.83 0 0 1-6.26-2.593 8.81 8.81 0 0 1-2.595-6.254c0-2.441.992-4.653 2.595-6.255a8.83 8.83 0 0 1 6.26-2.593c2.443 0 4.657.991 6.259 2.593z" data-paper-data="{&quot;index&quot;:null}"/><path fill="#fff" stroke="#8b49d4" stroke-linecap="round" stroke-linejoin="round" stroke-width="1.512" d="M186.522 203.843a5.18 5.18 0 0 1 1.525 3.676 5.18 5.18 0 0 1-1.525 3.675 5.19 5.19 0 0 1-3.679 1.524 5.19 5.19 0 0 1-3.679-1.524 5.18 5.18 0 0 1-1.525-3.675 5.18 5.18 0 0 1 1.525-3.676 5.2 5.2 0 0 1 3.679-1.524c1.436 0 2.737.583 3.679 1.524" data-paper-data="{&quot;index&quot;:null}"/><path fill="#5e154d" stroke="#5e154d" stroke-linecap="round" stroke-linejoin="round" stroke-width="2.016" d="M70.487 195.75a16.6 16.6 0 0 1 4.883 11.769 16.6 16.6 0 0 1-4.883 11.768 16.62 16.62 0 0 1-11.777 4.879 16.62 16.62 0 0 1-11.777-4.879 16.6 16.6 0 0 1-4.883-11.768c0-4.593 1.867-8.755 4.883-11.769a16.62 16.62 0 0 1 11.777-4.878c4.596 0 8.761 1.865 11.777 4.878" data-paper-data="{&quot;index&quot;:null}"/><path fill="#c5a2fc" stroke="#c5a2fc" stroke-linecap="butt" stroke-linejoin="miter" stroke-width="1.008" d="M64.969 201.264a8.82 8.82 0 0 1 2.596 6.255 8.82 8.82 0 0 1-2.596 6.254 8.83 8.83 0 0 1-6.259 2.593 8.83 8.83 0 0 1-6.26-2.593 8.82 8.82 0 0 1-2.595-6.254c0-2.441.993-4.653 2.595-6.255a8.83 8.83 0 0 1 6.26-2.593c2.443 0 4.657.991 6.259 2.593z" data-paper-data="{&quot;index&quot;:null}"/><path fill="#fff" stroke="#8b49d4" stroke-linecap="round" stroke-linejoin="round" stroke-width="1.512" d="M62.389 203.843a5.18 5.18 0 0 1 1.525 3.676 5.18 5.18 0 0 1-1.525 3.675 5.19 5.19 0 0 1-3.679 1.524 5.19 5.19 0 0 1-3.679-1.524 5.18 5.18 0 0 1-1.525-3.675 5.18 5.18 0 0 1 1.525-3.676 5.2 5.2 0 0 1 3.679-1.524c1.436 0 2.737.583 3.679 1.524" data-paper-data="{&quot;index&quot;:null}"/><g data-paper-data="{&quot;index&quot;:null}"><g fill="#fff" stroke-linecap="butt" stroke-linejoin="miter" stroke-width="1"><path d="M91.051 121.371v-1.049h1.385v1.049c0 .712.881.335.881 1.132v1.509h-3.105v-1.509c0-.881.839-.42.839-1.132M93.317 124.012h.588a.67.67 0 0 1 .629.671v2.348a.67.67 0 0 1-.629.671h-.588z"/><path d="M91.765 127.702h-2.141c-.37 0-.671-.3-.671-.671v-2.348c0-.37.301-.671.671-.671h3.693v3.69z"/></g><path fill="#f7c1d8" d="M93.319 130.596v-2.894h.923v1.887a1.8 1.8 0 0 0 1.301 1.971c1.049.461 1.049 1.845 1.049 3.271v10.986c0 1.258-.503 2.055-1.636 2.055h-.672v-14.593c.042-1.342-.965-1.132-.965-2.683"/><path fill="#ea3681" d="M87.779 131.56a1.8 1.8 0 0 0 1.301-1.971v-1.887h4.197v2.894c0 1.551 1.007 1.341 1.007 2.683v14.593h-5.749c-1.091 0-1.595-.797-1.595-2.055v-11.196c0-1.426 0-2.6.839-3.061"/><path stroke="#663c1d" stroke-linecap="round" stroke-linejoin="round" stroke-width="1.008" d="M94.536 128.205h-5.582v-4.193h5.582zM91.053 121.371v-1.049h1.385v1.049c0 .712.881.335.881 1.132v1.509h-3.106v-1.509c0-.881.84-.42.84-1.132"/><path stroke="#663c1d" stroke-linecap="round" stroke-linejoin="round" stroke-width="1.008" d="M87.779 131.56a1.8 1.8 0 0 0 1.301-1.971v-1.887h5.162v1.887a1.8 1.8 0 0 0 1.301 1.971c1.049.461 1.049 1.845 1.049 3.271v10.986c0 1.258-.503 2.055-1.636 2.055h-6.421c-1.091 0-1.595-.797-1.595-2.055v-11.196c0-1.426 0-2.6.839-3.061"/></g><g data-paper-data="{&quot;index&quot;:null}"><g fill="#fff" stroke-linecap="butt" stroke-linejoin="miter" stroke-width="1"><path d="M78.619 121.371v-1.049h1.385v1.049c0 .712.839.335.839 1.132v1.509h-3.105v-1.509c0-.881.881-.42.881-1.132M80.843 124.012h.588c.371 0 .671.301.671.671v2.348a.67.67 0 0 1-.671.671h-.588z"/><path d="M79.374 127.702h-2.14a.67.67 0 0 1-.629-.671v-2.348a.67.67 0 0 1 .629-.671h3.693v3.69z"/></g><path fill="#fde982" d="M80.845 130.596v-2.894h.923v1.887a1.8 1.8 0 0 0 1.301 1.971c1.049.461 1.049 1.845 1.049 3.271v10.986c0 1.258-.504 2.055-1.595 2.055h-.713v-14.593c.042-1.342-.965-1.132-.965-2.683"/><path fill="#fdbb38" d="M75.515 131.56a1.8 1.8 0 0 0 1.301-1.971v-1.887h4.197v2.894c0 1.551 1.007 1.341 1.007 2.683v14.593h-5.707c-1.134 0-1.637-.797-1.637-2.055v-11.196c-.21-1.426-.21-2.6.839-3.061"/><path stroke="#663c1d" stroke-linecap="round" stroke-linejoin="round" stroke-width="1.008" d="M82.104 128.205h-5.582v-4.193h5.582zM78.621 121.371v-1.049h1.384v1.049c0 .712.84.335.84 1.132v1.509h-3.106v-1.509c0-.881.882-.42.882-1.132"/><path stroke="#663c1d" stroke-linecap="round" stroke-linejoin="round" stroke-width="1.008" d="M75.515 131.56a1.8 1.8 0 0 0 1.301-1.971v-1.887h4.952v1.887a1.8 1.8 0 0 0 1.301 1.971c1.049.461 1.049 1.845 1.049 3.271v10.986c0 1.258-.504 2.055-1.595 2.055h-6.42c-1.133 0-1.637-.797-1.637-2.055v-11.196c0-1.426 0-2.6 1.049-3.061"/></g></g></svg>