<svg xmlns="http://www.w3.org/2000/svg" class="icon" viewBox="0 0 1024 1024"><path fill="#ff1744" d="M883.2 629.333c-87.467-264.533-288-70.4-288-70.4s-27.733 2.134-59.733 12.8C467.2 505.6 339.2 546.133 339.2 546.133s-236.8-78.933-209.067 185.6C142.933 844.8 230.4 917.333 352 917.333c61.867 0 115.2-19.2 153.6-51.2 64 57.6 157.867 68.267 251.733 25.6 115.2-51.2 162.134-153.6 125.867-262.4"/><path fill="#d50000" d="M633.6 753.067c-8.533-83.2 57.6-234.667 113.067-262.4-76.8-2.134-151.467 68.266-151.467 68.266s-25.6 2.134-57.6 12.8c-2.133-2.133-4.267-2.133-6.4-2.133 29.867 27.733 49.067 78.933 40.533 162.133C565.333 787.2 541.867 832 505.6 864c32 29.867 108.8 85.333 251.733 27.733-66.133-12.8-115.2-55.466-123.733-138.666"/><path fill="#ffcdd2" d="M215.467 744.533c-8.534 0-19.2-6.4-21.334-17.066C172.8 640 224 603.733 245.333 590.933c10.667-6.4 23.467-2.133 27.734 8.534 6.4 10.666 2.133 23.466-8.534 27.733-21.333 10.667-42.666 34.133-29.866 87.467 2.133 10.666-4.267 23.466-14.934 25.6-2.133 4.266-2.133 4.266-4.266 4.266"/><path fill="#795548" d="M614.4 518.4c-2.133-6.4-4.267-10.667-6.4-17.067 0-2.133-2.133-4.266-2.133-6.4-2.134-4.266-2.134-8.533-4.267-10.666-2.133-4.267-2.133-6.4-4.267-10.667s-2.133-6.4-2.133-10.667c-2.133-4.266-2.133-8.533-4.267-10.666-2.133-4.267-2.133-8.534-4.266-12.8 0-2.134-2.134-4.267-2.134-6.4-2.133-4.267-2.133-8.534-2.133-12.8 0-2.134 0-4.267-2.133-6.4 0-4.267-2.134-8.534-2.134-12.8 0-2.134 0-4.267-2.133-6.4 0-4.267-2.133-8.534-2.133-12.8v-96c0-2.134 0-4.267 2.133-8.534v-4.266c0-2.134 2.133-6.4 2.133-8.534v-4.266c0-4.267 2.134-6.4 2.134-10.667v-2.133c0-4.267 2.133-6.4 2.133-10.667 12.8-44.8 34.133-74.667 42.667-85.333 2.133 0 4.266-2.134 4.266-2.134C640 145.067 644.267 132.267 640 121.6s-10.667-19.2-21.333-14.933c0 0-2.134 0-2.134 2.133-2.133 0-4.266 0-6.4 2.133-2.133 0-2.133 2.134-4.266 4.267C309.333 249.6 320 573.867 320 576c0 10.667 10.667 21.333 21.333 21.333 12.8 0 21.334-10.666 21.334-21.333 0-2.133-8.534-249.6 196.266-388.267-32 78.934-57.6 215.467 40.534 398.934 4.266 6.4 10.666 10.666 19.2 10.666 4.266 0 6.4 0 10.666-2.133 8.534-4.267 12.8-12.8 10.667-21.333 0-2.134-2.133-6.4-2.133-8.534-4.267-8.533-8.534-17.066-12.8-23.466v-2.134c-4.267-6.4-8.534-14.933-10.667-21.333"/><path fill="#4caf50" d="M810.667 384c-38.4-40.533 61.866-277.333-192-277.333-145.067 281.6 192 277.333 192 277.333"/></svg>