<svg xmlns="http://www.w3.org/2000/svg" width="90.232" height="250.467" viewBox="0 0 90.232 250.467"><g stroke-miterlimit="10" data-paper-data="{&quot;isPaintingLayer&quot;:true}" style="mix-blend-mode:normal"><g stroke-width="0" data-paper-data="{&quot;origPos&quot;:null}"><path fill="#edc393" d="m26.192 132.644 14.121-.16s1.723 8.582.231 22.303c-1.494 13.746-5.003 26.854-6.295 33.354-2.482 11.731-14.533 9.322-14.4-2.777 0 0-.636-17.676.939-34.781 1.575-17.106 5.404-17.94 5.404-17.94" data-paper-data="{&quot;origPos&quot;:null,&quot;origRot&quot;:0}"/><path fill="#aeccdf" d="M17.908 138.96c1.678-16.224 9.205-31.197 11.513-32.318.146-.074 19.822.186 19.822.186s-.574 22.344-2.893 37.68c-2.32 15.337-3.48 21.654-3.48 21.654s-7.974 1.087-13.078.674c-5.175-.42-13.262-2.808-13.262-2.808s-.5-6.904 1.378-25.068" data-paper-data="{&quot;origPos&quot;:null,&quot;origRot&quot;:0}"/></g><g stroke-width="0" data-paper-data="{&quot;origPos&quot;:null}"><path fill="#edc393" d="m51.681 134.103 13.848-2.774s3.283 8.114 4.36 21.874c1.078 13.785.059 27.316-.006 33.943-.266 11.988-12.554 11.853-14.665-.061 0 0-3.9-17.252-5.522-34.353-1.622-17.1 1.985-18.63 1.985-18.63" data-paper-data="{&quot;origPos&quot;:null,&quot;origRot&quot;:0}"/><path fill="#aeccdf" d="M62.057 106.35c2.281 1.165 9.238 19.07 10.541 35.217 1.725 21.381 1.658 22.013 1.658 22.013s-7.253 1.969-12.172 2.396c-5.356.466-14.156-.106-14.156-.106s-2.322-12.287-3.494-20.279-1.377-38.71-1.377-38.71z" data-paper-data="{&quot;origPos&quot;:null,&quot;index&quot;:null,&quot;origRot&quot;:0}"/></g><path d="M44.556 0c19.92-.132 20.587 18.885 21.786 24.266.895 4.017-.722 48.592-.722 48.592l-44.551.066s.659-40.667 1.256-48.066S24.636.133 44.556 0" data-paper-data="{&quot;origPos&quot;:null}"/><g stroke-width="0" data-paper-data="{&quot;origPos&quot;:null}"><path fill="#edc393" d="M25.12 83.303c-1.4 4.427-5.538 13.31-6.549 16.978-1.064 2.536-3.41 4.72-6.497 3.863-3.125-.87-3.51-3.526-3.527-5.728.439-1.802 2.069-5.84 2.407-7.86C12.622 80.67 12.73 69.52 20.2 61.52c2.83-3.03 5.078-2.823 7.719-3.302" data-paper-data="{&quot;origPos&quot;:null,&quot;origRot&quot;:0,&quot;index&quot;:null}"/><path fill="#ed6027" d="M25.524 84.811c-.631 1.555-1.492 3.329-2.414 5.15-2.57-.826-5.217-1.638-7.68-2.517-2.162-.772-4.49-1.845-6.916-2.888 1.81-8.426 4.22-17.031 11.595-23.432 3.684-3.197 6.514-2.909 9.867-3.353" data-paper-data="{&quot;origPos&quot;:null,&quot;index&quot;:null}"/></g><g stroke-width="0" data-paper-data="{&quot;origPos&quot;:null}"><path fill="#edc393" d="M62.314 58.145c2.641.48 4.889.271 7.72 3.302 7.469 8 7.577 19.15 9.244 29.037.339 2.02 1.968 6.058 2.408 7.86-.017 2.201-.402 4.858-3.527 5.727-3.087.859-5.433-1.326-6.498-3.862-1.01-3.668-5.15-12.551-6.548-16.978" data-paper-data="{&quot;origPos&quot;:null,&quot;origRot&quot;:0}"/><path fill="#ed6027" d="M60.079 58.001c3.352.444 6.183.156 9.867 3.353 7.375 6.4 9.785 15.006 11.595 23.432-2.425 1.043-4.754 2.116-6.916 2.887-2.463.88-5.11 1.692-7.68 2.519-.922-1.822-1.783-3.596-2.415-5.151" data-paper-data="{&quot;origPos&quot;:null,&quot;index&quot;:null}"/></g><g stroke-width="0"><g data-paper-data="{&quot;origPos&quot;:null}"><path fill="#edc393" d="M57.25 57.347c-4.457 8.447-19.727 8.814-25.985.462 2.591-.992 6.22-2.435 6.22-2.435l.601-8.43 12.262-.193.726 8.088s5.538 2.17 6.177 2.508" data-paper-data="{&quot;origPos&quot;:null}"/><path fill="#b5875c" d="m38.173 46.799 12.262-.193.656 8c-3.326.042-10.932-.29-13.363-2.348z" data-paper-data="{&quot;origPos&quot;:null}"/></g><path fill="#edc393" d="M44.562 52.024c-9.925.086-14.79-8.059-16.424-16.693-2.53-.978-4.037-5.98-3.093-7.757 1.043-2.163 2.416-.323 2.38-.855-.262-7.925 2.55-19.69 18.347-19.857 12.897.543 15.02 13.81 14.919 19.59 0 0 1.188-1.036 2.422-.005 1.321 2.158-.892 7.238-3.133 8.117-1.134 9.21-5.136 17.493-15.418 17.46" data-paper-data="{&quot;origPos&quot;:null}"/></g><path fill="none" stroke="#755135" stroke-linecap="round" stroke-width="2" d="M32.183 22.79c2.614-1.416 6.137-.924 8.147.573" data-paper-data="{&quot;origPos&quot;:null,&quot;origRot&quot;:0}"/><path fill="none" stroke="#755135" stroke-linecap="round" stroke-width="2" d="M49.008 23.33c2.01-1.497 5.532-1.99 8.146-.574" data-paper-data="{&quot;origPos&quot;:null,&quot;origRot&quot;:0,&quot;index&quot;:null}"/><path d="m60.966 18.463-5.621.022-.473-6.762-1.184 7.027-1.707-.016-.703-6.668-.763 6.515-12.412.404-.276-6.377-1.343 6.033-1.758.059-.634-5.704-.853 6.187-5.723.112s-1.77-6.471 4.564-12.954c6.611-4.874 16.054-5.67 23.564-.866 6.028 5.46 5.322 12.988 5.322 12.988" data-paper-data="{&quot;origPos&quot;:null}"/><g fill="none" stroke="#b5875c" stroke-linecap="round" stroke-width="1.5" data-paper-data="{&quot;origPos&quot;:null}"><path d="M41.85 34.994s1.736-.424 2.1.46M46.045 35.488c.231-.866 1.715-.64 1.715-.64" data-paper-data="{&quot;origPos&quot;:null}"/></g><g data-paper-data="{&quot;origPos&quot;:null}"><path fill="#fff" d="M35.346 29.86c-2.354-.316-3.963-1.944-3.655-3.04.308-1.094 2.417-1.242 4.77-.926 2.354.316 4.062 1.548 3.753 2.643-.308 1.096-2.515 1.64-4.868 1.323" data-paper-data="{&quot;origPos&quot;:null,&quot;origRot&quot;:0}"/><path d="M34.99 28.26c-.116-1.504.871-2.168 2.41-2.135 3.106.48 4.046 3.066.957 3.712-1.705.351-3.255.17-3.368-1.576" data-paper-data="{&quot;origPos&quot;:null,&quot;origRot&quot;:0}"/><path fill="none" stroke="#000" stroke-linecap="round" stroke-width="1.5" d="M31.704 26.393c2.718-.942 6.48-.34 8.365.953" data-paper-data="{&quot;origPos&quot;:null,&quot;origRot&quot;:0}"/></g><g data-paper-data="{&quot;origPos&quot;:null}"><path fill="#fff" d="M53.974 29.704c-2.32.45-4.53.004-4.936-.997s1.148-2.178 3.468-2.628 4.692-.341 5.097.66c.405 1-1.309 2.515-3.63 2.965" data-paper-data="{&quot;origPos&quot;:null,&quot;origRot&quot;:0}"/><path d="M54.706 25.678c3.171-.102 3.96 1.755 1.576 3.225-1.319.808-2.816.85-3.52-.612-1.084-2.253.428-2.522 1.944-2.613" data-paper-data="{&quot;origPos&quot;:null,&quot;origRot&quot;:0}"/><path fill="none" stroke="#000" stroke-linecap="round" stroke-width="1.5" d="M48.935 27.542c2.12-1.645 6.021-1.971 8.365-1.315" data-paper-data="{&quot;origPos&quot;:null,&quot;origRot&quot;:0}"/></g><path fill="#ff7f4c" d="M24.016 58.606s5.005-1.264 9.525-2.257c2.581 6.289 18.926 6.635 21.891-.095 1.358.322 8.004 1.762 10.23 2.264 1 .221-.003 47.426-.003 47.426s-7.507 6.268-19.953 6.344c-11.737.072-20.757-5.35-20.757-5.35z" data-paper-data="{&quot;origPos&quot;:null,&quot;origRot&quot;:0}"/><path fill="#b5875c" d="M42.68 39.96a3.73 3.73 0 0 1 2.015.879 3.73 3.73 0 0 1 2.022-.88c1.05.15 2.07.447 3.026.88 0 0-.173 2.73-2.188 3.61-1.612.653-3.35.74-4.962.087-1.263-.584-2.23-1.676-2.947-2.818 0 0 2.022-1.758 3.033-1.758" data-paper-data="{&quot;origPos&quot;:null}"/><path fill="none" stroke="#866143" stroke-linecap="round" stroke-width="1.5" d="M50.28 40.957c-2.88 1.488-7.669 1.962-10.844.154" data-paper-data="{&quot;origPos&quot;:null,&quot;origRot&quot;:0,&quot;index&quot;:null}"/><path fill="none" stroke="#ebebeb" stroke-linecap="round" d="M26.358 33.874s-2.297-2.3-1.69-6.024c.278-1.704 2.604-1.863 2.506 1.307" data-paper-data="{&quot;origPos&quot;:null}"/><path fill="#fff" d="M25.907 29.928a1.304 1.304 0 1 1 2.607.08 1.304 1.304 0 0 1-2.607-.08" data-paper-data="{&quot;origPos&quot;:null}"/><path fill="#edc393" d="M23.122 235.469c-1.85-.18-4.7-2.138-4.7-2.138s-1.931-22.707-.993-35.214c.347-4.635 1.09-8.93 3.682-12.985 5.743-8.987 13.801-3.453 12.729 3.636-.498 8.733-6.386 45.253-6.386 45.253s-2.482 1.628-4.332 1.448" data-paper-data="{&quot;origPos&quot;:null,&quot;origRot&quot;:0}"/><g stroke-linecap="round" data-paper-data="{&quot;origPos&quot;:null,&quot;origRot&quot;:0,&quot;index&quot;:null}"><path fill="#fff" d="M36.323 239.479c2.945 2.2 11.99 1.17 7.998 6.524-2.728 3.659-7.51 2.93-12.161 2.284-3.93-.545-4.292-4.613-8.26-4.643-4.209-.031-8.195.571-10.594-2.158-.852-.97 3.012-10.325 3.012-10.325s4.243 2.038 6.455 2.093c2.735.067 7.046-1.282 7.046-1.282s3.559 5.306 6.504 7.507" data-paper-data="{&quot;origPos&quot;:null}"/><path fill="#a5a5a5" d="M14.727 244.846c-2.009-1.06-1.91-1.789-1.577-3.527 3.036 1.896 2.467 2.393 10.561 1.856 2.897.289 4.533 3.431 8.153 4.584 9.625 1.96 12.125-1.72 13.495-3.18-.032 1.126-.31 2.3-.812 2.973-2.729 3.66-7.374 3.083-12.026 2.438-6.622-1.577-5.176-4.377-9.144-4.406-4.208-.032-5.898.716-8.65-.738" data-paper-data="{&quot;origPos&quot;:null}"/><path fill="none" stroke="#000" stroke-width="1.5" d="m33.457 241.252 2.362-2.094M33.834 237.051l-2.238 2.102M31.973 234.952l-2.354 1.97" data-paper-data="{&quot;origPos&quot;:null}"/></g><path fill="#edc393" d="M66.545 235.844c-1.856.106-4.973-1.39-4.973-1.39s-5.398-22.14-6.393-34.643c-.37-4.633-.296-8.992 1.642-13.397 4.294-9.763 13.107-5.533 13.137 1.636.85 8.706.645 45.697.645 45.697s-2.201 1.99-4.058 2.097" data-paper-data="{&quot;origPos&quot;:null,&quot;origRot&quot;:0}"/><g stroke-linecap="round" data-paper-data="{&quot;origPos&quot;:null,&quot;origRot&quot;:0}"><path fill="#fff" d="M79.204 239.147c3.016 2.103 12.022.775 8.209 6.257-2.607 3.747-7.41 3.176-12.08 2.684-3.946-.416-4.442-4.47-8.408-4.369-4.208.107-8.172.84-10.659-1.809-.884-.941 2.67-10.418 2.67-10.418s3.647 1.694 7.45 1.798c1.269.034 6.07-1.431 6.07-1.431s3.732 5.186 6.748 7.288" data-paper-data="{&quot;origPos&quot;:null,&quot;index&quot;:null}"/><path fill="#a5a5a5" d="M56.104 241.748c3.097 1.796 2.544 2.311 10.617 1.508 2.905.194 4.643 3.28 8.3 4.313 9.683 1.642 12.061-2.118 13.383-3.622.005 1.127-.235 2.309-.715 2.999-2.606 3.747-7.269 3.324-11.939 2.832-6.67-1.358-5.317-4.204-9.283-4.103-4.208.107-5.872.91-8.67-.453-2.043-.994-1.968-1.725-1.693-3.474" data-paper-data="{&quot;origPos&quot;:null,&quot;index&quot;:null}"/><path fill="none" stroke="#000" stroke-width="1.5" d="m78.69 238.844-2.291 2.17M76.637 236.803l-2.168 2.174M72.42 236.813l2.288-2.047" data-paper-data="{&quot;origPos&quot;:null,&quot;index&quot;:null}"/></g><path fill="#edc393" d="M88.99 129.459s1.155 3.121 1.234 4.383c-.034.404.248 3.593-.87 3.424-.994-.039-.644-1.369-.925-2.514-.275-1.12-.995-3.372-.995-3.372s.487 2.717.563 4.335c-.153 1.604.303 4.818-1.094 4.664-1.17-.366-.727-3.027-.857-3.626-.296-1.367-.509-3.585-1-3.756.2 1.38.385 3.093.422 4.48.031 1.164-.083 3.62-.638 4.642-.442.815-1.354.937-1.651.06-.232-.513.127-3.178.08-3.738-.142-1.68-.17-3.495-.713-4.39.094 1.499.13 3.511-.062 5.688-.18 2.027-.867 4.946-1.658 4.682-2.122-.311-.386-3.48-.58-5.958-.22-2.78-.68-3.468-1.515-6.084-.48 1.39.164 3.148-.753 4.455-1.196 1.353-1.768.084-1.771-.46-.004-1.916-.93-5.316-.4-7.172.446-1.922 1.064-4.395 1.679-6.465-.204-2.135-4.588-14.64-5.43-21.876-.006-.05.45-4.686 3.84-5.345 3.376-.91 5.737 2.327 6.067 3.618 2.614 5.908 2.616 22.048 2.616 22.048zM5.653 121.254s.002-16.14 2.616-22.047c.33-1.292 2.69-4.529 6.067-3.618 3.39.658 3.846 5.294 3.84 5.345-.842 7.235-5.226 19.74-5.43 21.875.615 2.07 1.233 4.544 1.679 6.465.53 1.856-.396 5.256-.4 7.172-.003.544-.575 1.813-1.77.46-.918-1.307-.274-3.065-.753-4.455-.836 2.616-1.297 3.305-1.515 6.084-.194 2.479 1.541 5.647-.58 5.958-.792.264-1.479-2.655-1.658-4.682a38.5 38.5 0 0 1-.063-5.688c-.543.895-.571 2.71-.713 4.39-.047.56.312 3.226.08 3.738-.297.877-1.208.755-1.65-.06-.556-1.023-.67-3.478-.639-4.641.037-1.387.223-3.1.422-4.48-.491.17-.704 2.389-1 3.755-.13.6.314 3.26-.857 3.626-1.396.154-.94-3.06-1.094-4.664.077-1.618.564-4.335.564-4.335s-.72 2.252-.995 3.372c-.282 1.145.069 2.475-.926 2.514-1.117.17-.835-3.02-.87-3.424.08-1.262 1.234-4.383 1.234-4.383z" data-paper-data="{&quot;origPos&quot;:null,&quot;origRot&quot;:0,&quot;index&quot;:null}"/></g></svg>