<svg xmlns="http://www.w3.org/2000/svg" width="62.544" height="99.943" viewBox="0.329 0.006 62.544 99.943"><path fill="#82001e" d="M43.266 68.574c-2.4-1.099-5.732-1.824-8.056 1.054-3.976 4.926 3.348 7.022 3.348 7.022s3.908.292 4 10.549C42.626 93.352 40.21 99.3 40.21 99.3s1.324 0 2.588.096 2.056.136 1.6-.694c-.092-.168-1.696.073-1.696.073s4.336-3.484 6.34-12.129c1.352-5.832-.44-11.223-1.752-14.116a9.24 9.24 0 0 0-4.024-3.956M10.89 91.155s.98-3.299 1.104-3.07l1.2 5.21s.364 1.632.044 1.928c-.216.201-1.116-1.202-1.668-2.549l-.024-.06z"/><path fill="#be0a3c" d="M11.854 95.536c-.108 1.455 0 2.585-.304 2.581s-.544-.946-.68-1.823c-.084-.542-.172-.954-.328-.986-.4-.081-.236 3.182-.856 3.098s-.252-3.058-1.072-3.355-.152 2.806-1.2 2.581c-.292-.068-.432-3.351-.636-7.066-.252-4.497-2-36.554 2.592-36.554s2.952 35.119 2.484 41.524"/><path fill="#82001e" d="M53.758 91.155s-.98-3.299-1.104-3.07l-1.2 5.21s-.364 1.632-.044 1.928c.216.201 1.116-1.202 1.668-2.549l.024-.06z"/><path fill="#be0a3c" d="M52.794 95.536c.108 1.455 0 2.585.304 2.581s.544-.946.68-1.823c.084-.542.172-.954.328-.986.4-.081.236 3.182.856 3.098s.252-3.058 1.072-3.355.152 2.806 1.2 2.581c.292-.068.432-3.351.636-7.066.252-4.497 2-36.554-2.592-36.554s-2.952 35.119-2.484 41.524"/><path fill="#82001e" d="M20.846 68.574c2.4-1.099 5.732-1.824 8.056 1.054 3.976 4.93-3.352 7.026-3.352 7.026s-3.908.292-4 10.549c-.068 6.153 2.348 12.101 2.348 12.101s-1.324 0-2.588.096-2.056.136-1.6-.694c.092-.168 1.696.073 1.696.073s-4.336-3.483-6.34-12.129c-1.352-5.832.44-11.223 1.752-14.116a9.24 9.24 0 0 1 4.028-3.96"/><path fill="#a0aa1e" d="M31.122 19.635c-.76-2.602-2.86-5.904-2.86-5.904l-4.156 1.555-3.9.697s6.308 7.507 6.716 7.972a12.7 12.7 0 0 0 3.08 2.582 9 9 0 0 0 3.104.978s-1.252-5.371-1.984-7.88"/><path fill="#82783c" d="M33.074 27.354s1.348-2.22 2.092-3.735c.8-1.624 1.572-3.207 2.496-4.782a95 95 0 0 1 6.04-9.275c1.944-2.553 4.048-5.399 6.68-7.298 2.248-1.604 6.12-2.994 8 .024 1.636 2.605-.684 6.689-2 8.978-1.796 3.09-4.232 5.395-6.932 7.663-2.092 1.76-10.272 7.115-14.66 9.095-.932.42-1.716-.67-1.716-.67"/><path fill="#a0aa1e" d="M33.738 27.563c1.572-.91 3.712-1.323 5.436-1.98 2.236-.854 4.488-1.656 6.74-2.465 3.268-1.175 6.716-2.337 10.208-1.367 1.264.353 3.476 1.202 3.272 2.846-.188 1.531-2.648 2.336-3.84 2.701a30 30 0 0 1-5.36 1.01c-1.02.12-12.4-.276-16.456-.745"/><path fill="#be0a3c" d="M32.202 89.448a19.35 19.35 0 0 1-11.052-3.403c-2.16-1.503-3.864-3.768-5.324-5.932-2.18-3.235-4.32-6.537-6.332-9.884a66.6 66.6 0 0 1-7.896-19.447C.35 45.226-.042 34.978 5.714 31.543c2.948-1.768 7.316-2.778 10.656-3.467 2.892-.597 5.744-1.347 8.716-1.604 1.696-.136 3.408-.292 5.088-.028 1.292.205 1.92.918 2.852.926.18 0 1.352-.653 1.676-.733q.99-.195 2-.217c2.136-.124 4.144.217 6.24.533 5.412.802 11.12 2.87 15.356 6.441 5.284 4.453 4.424 11.267 2.96 17.396-1.6 6.749-7.316 22.092-12.8 29.531S35.45 89.48 32.202 89.448"/><path fill="#f01446" d="M5.786 36.224s.572-1.511 3.1-2.842a17.97 17.97 0 0 1 10.3-1.675c8.188 1.263 7.168 28.301-2.592 28.301-5.288 0-8.864-2.28-10.54-7.455-1.416-4.357-2.432-11.126-.268-16.329M46.83 38.809s.172-.938 1.496-1.972a10.6 10.6 0 0 1 5.792-2.06c4.876-.132 7.132 15.632 1.476 16.674-3.064.557-5.376-.401-6.892-3.207-1.28-2.384-2.58-6.192-1.872-9.435M12.49 63.98s.28-.565 1.62-1.122a14 14 0 0 1 5.536-.906c4.448.221 4.42 10.068-.856 10.349-2.86.152-4.836-.573-5.84-2.405-.852-1.543-1.532-3.964-.46-5.916"/><path fill="#f04650" d="M26.966 68.782c.276 0 .526.115.707.301.181.185.293.442.293.725s-.112.54-.293.725a.984.984 0 0 1-1.414 0 1.03 1.03 0 0 1-.293-.725c0-.283.112-.54.293-.725a.98.98 0 0 1 .707-.301M46.034 40.413c.276 0 .526.115.707.3.181.186.293.443.293.726s-.112.539-.293.725a.984.984 0 0 1-1.414 0 1.04 1.04 0 0 1-.293-.725c0-.283.112-.54.293-.726a.99.99 0 0 1 .707-.3M42.894 35.639c.276 0 .526.115.707.301.181.185.293.442.293.725s-.112.54-.293.725a.984.984 0 0 1-1.414 0 1.03 1.03 0 0 1-.293-.725c0-.283.112-.54.293-.725a.98.98 0 0 1 .707-.301M49.926 36.116c.276 0 .526.115.707.301.181.185.293.442.293.725s-.112.54-.293.725a.984.984 0 0 1-1.414 0 1.03 1.03 0 0 1-.293-.725c0-.283.112-.54.293-.725a.98.98 0 0 1 .707-.301M38.518 30.845c.276 0 .526.115.707.301s.293.442.293.725-.112.54-.293.726a.987.987 0 0 1-1.414 0 1.04 1.04 0 0 1-.293-.726c0-.283.112-.539.293-.725a.98.98 0 0 1 .707-.301M30.33 33.414c.276 0 .526.115.707.301s.293.442.293.726c0 .283-.112.539-.293.725a.984.984 0 0 1-1.414 0 1.04 1.04 0 0 1-.293-.725c0-.284.112-.54.293-.726a.98.98 0 0 1 .707-.301M23.614 32.709c.276 0 .526.115.707.301s.293.442.293.725-.112.54-.293.725a.984.984 0 0 1-1.414 0 1.03 1.03 0 0 1-.293-.725c0-.283.112-.539.293-.725a.98.98 0 0 1 .707-.301M15.106 32.517c.276 0 .526.115.707.3.181.186.293.443.293.726s-.112.539-.293.725a.984.984 0 0 1-1.414 0 1.04 1.04 0 0 1-.293-.725c0-.283.112-.54.293-.726a.99.99 0 0 1 .707-.3M21.134 40.922c.276 0 .526.115.707.3.181.186.293.443.293.726s-.112.539-.293.725a.984.984 0 0 1-1.414 0 1.04 1.04 0 0 1-.293-.725c0-.283.112-.54.293-.726a.99.99 0 0 1 .707-.3M12.526 40.425c.276 0 .526.115.707.3.181.186.293.443.293.726s-.112.539-.293.725a.984.984 0 0 1-1.414 0 1.04 1.04 0 0 1-.293-.725c0-.283.112-.54.293-.726a.99.99 0 0 1 .707-.3M37.246 71.099c.276 0 .526.115.707.3.181.186.293.443.293.726s-.112.539-.293.725a.984.984 0 0 1-1.414 0 1.04 1.04 0 0 1-.293-.725c0-.283.112-.54.293-.726a.99.99 0 0 1 .707-.3M34.09 39.354c.276 0 .526.115.707.301s.293.442.293.726c0 .283-.112.539-.293.725a.984.984 0 0 1-1.414 0 1.04 1.04 0 0 1-.293-.725c0-.284.112-.54.293-.726a.98.98 0 0 1 .707-.301M36.37 45.932c.276 0 .526.115.707.301.181.185.293.442.293.725s-.112.539-.293.725a.984.984 0 0 1-1.414 0 1.04 1.04 0 0 1-.293-.725c0-.283.112-.54.293-.725a.98.98 0 0 1 .707-.301M28.622 41.006c.276 0 .526.115.707.301.181.185.293.442.293.725s-.112.54-.293.725a.984.984 0 0 1-1.414 0 1.03 1.03 0 0 1-.293-.725c0-.283.112-.54.293-.725a.98.98 0 0 1 .707-.301M20.034 74.762c.276 0 .526.115.707.301.181.185.293.442.293.725s-.112.54-.293.725a.984.984 0 0 1-1.414 0 1.03 1.03 0 0 1-.293-.725c0-.283.112-.54.293-.725a.98.98 0 0 1 .707-.301M26.966 47.371c.276 0 .526.115.707.3.181.186.293.443.293.726s-.112.539-.293.725a.984.984 0 0 1-1.414 0 1.04 1.04 0 0 1-.293-.725c0-.283.112-.54.293-.726a.99.99 0 0 1 .707-.3M15.142 64.345c.276 0 .526.115.707.301.181.185.293.442.293.725s-.112.54-.293.725a.984.984 0 0 1-1.414 0 1.03 1.03 0 0 1-.293-.725c0-.283.112-.54.293-.725a.98.98 0 0 1 .707-.301M21.986 54.116c.276 0 .526.115.707.301s.293.442.293.725-.112.54-.293.726a.987.987 0 0 1-1.414 0 1.04 1.04 0 0 1-.293-.726c0-.283.112-.539.293-.725a.98.98 0 0 1 .707-.301M14.694 53.852c.276 0 .526.115.707.301.181.185.293.442.293.725s-.112.539-.293.725a.984.984 0 0 1-1.414 0 1.04 1.04 0 0 1-.293-.725c0-.283.112-.54.293-.725a.98.98 0 0 1 .707-.301M47.198 52.361c.276 0 .526.115.707.3.181.186.293.443.293.726s-.112.539-.293.725a.984.984 0 0 1-1.414 0 1.04 1.04 0 0 1-.293-.725c0-.283.112-.54.293-.726a.99.99 0 0 1 .707-.3M53.522 40.922c.276 0 .526.115.707.3.181.186.293.443.293.726s-.112.539-.293.725a.984.984 0 0 1-1.414 0 1.04 1.04 0 0 1-.293-.725c0-.283.112-.54.293-.726a.99.99 0 0 1 .707-.3M54.146 51.022c.276 0 .526.115.707.301s.293.442.293.725-.112.54-.293.725a.984.984 0 0 1-1.414 0 1.03 1.03 0 0 1-.293-.725c0-.283.112-.539.293-.725a.98.98 0 0 1 .707-.301M57.53 45.651c.276 0 .526.115.707.301s.293.442.293.725-.112.54-.293.726a.987.987 0 0 1-1.414 0 1.04 1.04 0 0 1-.293-.726c0-.283.112-.539.293-.725a.98.98 0 0 1 .707-.301M57.726 36.04c.276 0 .526.115.707.301.181.185.293.442.293.725s-.112.539-.293.725a.984.984 0 0 1-1.414 0 1.04 1.04 0 0 1-.293-.725c0-.283.112-.54.293-.725a.98.98 0 0 1 .707-.301M45.91 29.687c.276 0 .526.115.707.301.181.185.293.442.293.725s-.112.54-.293.725a.984.984 0 0 1-1.414 0 1.03 1.03 0 0 1-.293-.725c0-.283.112-.54.293-.725a.98.98 0 0 1 .707-.301M6.558 36.761c.276 0 .526.115.707.301s.293.442.293.725-.112.54-.293.726a.987.987 0 0 1-1.414 0 1.04 1.04 0 0 1-.293-.726c0-.283.112-.539.293-.725a.98.98 0 0 1 .707-.301M4.826 50.509c.276 0 .526.115.707.301.181.185.293.442.293.725s-.112.54-.293.725a.984.984 0 0 1-1.414 0 1.03 1.03 0 0 1-.293-.725c0-.283.112-.54.293-.725a.98.98 0 0 1 .707-.301M3.09 44.184c.276 0 .526.115.707.301s.293.442.293.725-.112.54-.293.726a.987.987 0 0 1-1.414 0 1.04 1.04 0 0 1-.293-.726c0-.283.112-.539.293-.725a.98.98 0 0 1 .707-.301M33.158 50.746c.276 0 .526.114.707.3s.293.442.293.726c0 .283-.112.539-.293.725a.984.984 0 0 1-1.414 0 1.04 1.04 0 0 1-.293-.725c0-.284.112-.54.293-.726a.98.98 0 0 1 .707-.3M50.566 59.908c.276 0 .526.115.707.301.181.185.293.442.293.725s-.112.54-.293.725a.984.984 0 0 1-1.414 0 1.03 1.03 0 0 1-.293-.725c0-.283.112-.54.293-.725a.98.98 0 0 1 .707-.301M38.18 56.017c.103-.263.301-.46.537-.566a.98.98 0 0 1 1.316.518c.1.239.11.518.007.781s-.301.46-.538.566a.983.983 0 0 1-1.315-.519 1.03 1.03 0 0 1-.008-.78M42.258 44.184c.276 0 .526.115.707.301s.293.442.293.725-.112.54-.293.726a.987.987 0 0 1-1.414 0 1.04 1.04 0 0 1-.293-.726c0-.283.112-.539.293-.725a.98.98 0 0 1 .707-.301M29.774 59.523c.276 0 .526.115.707.301s.293.442.293.725-.112.54-.293.726a.987.987 0 0 1-1.414 0 1.04 1.04 0 0 1-.293-.726c0-.283.112-.539.293-.725a.98.98 0 0 1 .707-.301M49.586 46.228c.276 0 .526.115.707.301s.293.442.293.725c0 .284-.112.54-.293.726a.984.984 0 0 1-1.414 0 1.04 1.04 0 0 1-.293-.726c0-.283.112-.539.293-.725a.98.98 0 0 1 .707-.301M50.838 68.59c.276 0 .526.115.707.3.181.186.293.443.293.726s-.112.539-.293.725a.984.984 0 0 1-1.414 0 1.04 1.04 0 0 1-.293-.725c0-.283.112-.54.293-.726a.99.99 0 0 1 .707-.3M42.482 62.998c.276 0 .526.115.707.301s.293.442.293.725-.112.54-.293.726a.987.987 0 0 1-1.414 0 1.04 1.04 0 0 1-.293-.726c0-.283.112-.539.293-.725a.98.98 0 0 1 .707-.301M17.47 47.435c.276 0 .526.115.707.301.181.185.293.442.293.725s-.112.539-.293.725a.984.984 0 0 1-1.414 0 1.04 1.04 0 0 1-.293-.725c0-.283.112-.54.293-.725a.98.98 0 0 1 .707-.301M10.486 46.02c.276 0 .526.115.707.301.181.185.293.442.293.725s-.112.54-.293.725a.984.984 0 0 1-1.414 0 1.03 1.03 0 0 1-.293-.725c0-.283.112-.54.293-.725a.98.98 0 0 1 .707-.301"/><g fill="#82783c"><path d="M21.422 13.727a20 20 0 0 0-2.98.096c-1.688 5.331-2.828 7.034-1.884 12.369.72 4.06 2.892 5.735 6.06 3.607 2.356-1.603 3.2-4.409 4-7.266.824-2.946 1.328-3.688 1.628-8.754-2.264-.024-4.548.06-6.824-.052M42.246 47.591c-3.96 1.203-6.076-1.783-8.884-5.543-2.364-3.162-1.284-13.792-.288-14.694 4.936 3.207 15.64 18.285 9.172 20.237"/></g></svg>