<svg xmlns="http://www.w3.org/2000/svg" xml:space="preserve" width="149.49" height="159.907" viewBox="16.686 6.083 149.49 159.907"><title>octopus-d</title><g fill-rule="nonzero"><path fill="#dc6629" d="M81.588 81.4c.778-3.821 2.527-7.319 3.758-11.011 1.425-4.276 1.749-8.68 2.526-13.15.907-5.377 3.952-9.328 5.248-14.64 2.59-10.494 10.235-14.963 20.017-16 5.053-.518 11.92.972 15.419 4.794 7.774 8.55 8.033 20.21 2.397 29.15-2.916 4.599-10.042 9.91-12.568 14.769-1.296 2.397-2.203 9.004-4.665 10.494 0 0-8.097 2.85-16.649 2.85-8.421 0-15.483-7.255-15.483-7.255"/><path fill="#d25d24" d="M90.399 57.563c-3.693.971-6.22-6.931-1.037-7.709 3.498-.518 4.34 2.462 4.082 4.34-.324 2.397-3.045 3.369-3.045 3.369"/><path fill="#f2b9a0" d="M90.399 57.563c-3.24.842-5.701-5.571-1.166-6.413 2.915-.518 3.822 2.332 3.627 3.951-.259 1.684-2.461 2.462-2.461 2.462"/><path fill="#c95320" d="M90.723 54.13c-.713.194-1.296-.907-.907-1.49-1.36.453-.454 2.785.712 2.526 0 0 .778-.453.842-1.101v-.518c-.064.388-.647.583-.647.583"/><path fill="#d25d24" d="M112.49 50.826c4.858-.583 6.737 5.57 1.814 7.708-4.86 2.138-6.673-7.06-1.814-7.708"/><path fill="#f2b9a0" d="M112.749 51.992c2.85-.518 6.478 4.47 1.555 6.607-4.86 2.073-5.896-5.83-1.555-6.607"/><path fill="#c95320" d="M114.498 54.453c-.13.454-.648.648-.648.648-.648.194-1.166-.648-1.036-1.295-1.167.518-.324 2.59.777 2.267 0 0 .842-.324.907-.907z"/><path fill="#c34a17" d="M101.412 69.611c3.11 1.037 5.7-.259 5.7-.259l-.582-2.915s-2.009.972-4.47.648c-2.462-.324-4.535-1.166-4.535-1.166s.777 2.591 3.887 3.692"/><path fill="#d25d24" d="m93.184 54.194-5.636-2.656 1.425-1.619 3.37.907zM116.96 54.907l-5.83-2.203 1.36-1.619 3.368.842z"/><path fill="#030000" d="M127.13 61.968c-1.23-1.231-2.461-2.527-3.757-3.628-2.98-2.526-6.22-4.793-9.523-6.866-3.498-2.267-7.126-4.21-10.754-6.154-3.045-1.62-5.895-3.433-9.393-3.822-1.231-.13-1.166 1.749 0 1.879 3.239.388 5.895 2.267 8.68 3.757 1.88 1.036 3.823 2.072 5.701 3.109-.842 2.138-2.72 8.097 1.102 10.43 4.081 2.46 8.486-.39 10.883-2.462a30.4 30.4 0 0 1 3.498 2.98c.843.841 3.11 2.526 2.916 3.756-.13 1.231 1.749 1.166 1.878 0 .195-1.295-.453-2.137-1.23-2.98"/><path fill="#030000" d="M126.418 65.854c6.219 1.879 19.11-3.627 24.812-5.765 5.053-1.878 11.401-8.68 14.446-13.215 0 0-2.786.195-4.34.195-3.369-.065-7.062-1.23-10.106-2.656-5.183-2.462-7.386-3.304-11.078-11.206-3.693-7.903-3.045-10.883-5.312-15.094-1.88-3.498-10.949-9.716-10.949-9.716s-3.304 4.988-6.154 8.097c-2.591-3.174.065-9.911.065-9.911-15.289 3.11-13.475 12.178-19.046 17.23-6.608 6.09-17.88 3.37-25.006-2.72-3.564 5.441 3.757 16 7.255 19.952 3.11 3.497 5.895 5.376 9.588 8.097 4.794-12.049 10.041-13.798 21.637-9.911 14.188 4.728 14.188 26.623 14.188 26.623"/><path fill="#c44d16" d="M136.265 158.81c.648-.518 1.036-.648.648-1.49-.39-.778-1.167-2.073-1.62-2.526-.324-.324-.907.13-1.296.453-.583-1.555-.971-3.952-1.23-6.283.906-.39 1.1-.778.777-2.397-.26-1.166.453-1.49-.648-2.203a1.3 1.3 0 0 0-.712-.194c-.065-.324-.13-.583-.13-.842-.583-2.786-.907-4.858-1.101-6.672 2.202-.389 1.425-1.555 1.36-2.98-.065-1.684.518-2.72-1.879-2.526-.259-1.944-.648-4.016-1.62-6.996 2.398-.842 1.037-2.72.649-3.822-.39-1.101-.648-3.11-2.916-2.267-.712-1.75-1.425-3.498-2.202-5.247.712-.518 1.49-1.296 1.425-1.814-.065-.453-.713-.907-1.296-2.138-.583-1.036-1.425-3.109-2.915-2.202-.777-1.62-1.555-3.239-2.397-4.794 2.527-1.554.778-2.655.194-3.562-.582-.842-.971-2.85-2.656-1.296-.842-1.555-1.684-3.11-2.461-4.599a3 3 0 0 1-.324-.648c2.267-.972.648-2.267.065-3.368-.519-1.037-.454-2.591-2.268-1.879-.583-1.36-2.008-4.016-2.008-4.016s-8.292-2.267-8.292 3.822c0 0 5.571 9.91 7.061 14.834 3.433 11.206 8.81 17.943 13.15 28.761 2.592 6.542 1.88 17.101 4.406 23.644.842 2.202 2.203 4.016 3.822 5.7 1.231 1.296 8.81 6.931 9.977 6.154.842-.648-1.62-3.951-3.563-6.607"/><path fill="#da6629" d="M94.415 70.453c-.453-1.684-6.802-.712-8.357-1.619 0 0-1.49 3.239-1.943 5.312-.324 1.49-.778 2.98-1.296 4.534l.454-1.749c-2.85-1.101-2.333.713-2.786 1.944s-1.944 2.85.842 3.433q.098-.292.389-.778c-.907 1.944-1.879 3.887-3.045 5.571a42 42 0 0 1-2.138 2.915l.065-.13c-1.944-2.46-2.462-.323-3.174.584-.648.777-2.268 1.749-.519 3.239-1.813 1.554-3.822 2.785-6.024 3.562-.454.13-.972.324-1.426.454-.064-1.684-2.267-1.296-3.433-1.231-1.36.13-2.073-.194-2.527 0-.583.259-.777 1.49-.777 2.397q-3.596.291-7.19.388c-.13-2.267-2.074-1.749-3.24-1.684s-3.434-.453-3.304 2.073c-2.397.26-4.988.713-7.58 1.425-.777-2.591-1.554-1.555-3.109-.907-1.36.583-2.786.324-2.073 2.656-2.397.972-4.664 2.203-6.608 3.692-.259-.259-.518-.453-.712-.518-1.231-.389-1.037.389-2.074.972-1.943 1.101-1.49 1.49-.906 3.303-1.361 1.75-2.333 3.822-2.98 5.96-.454-.13-.972-.26-1.102.065-.259.518-.583 2.008-.648 2.915-.064.971.26.907 1.102 1.166v1.295c.064 1.814-.26 7.45 1.295 6.284 1.555-1.102 2.332-9.263 3.758-11.53 2.98-4.859 6.478-6.543 11.985-8.227 11.012-3.369 25.459.518 36.407-3.563 9.653-3.628 15.16-11.271 19.046-20.146 1.166-2.85 4.47-10.947 3.628-14.057"/><path fill="#da6629" d="M91.954 81.142q-1.264 2.914-2.916 5.247c-1.554-1.037-1.814.453-2.591 1.36s-2.462 1.749-1.101 3.044c-2.009 1.944-4.211 3.628-6.673 5.247-.842-2.202-2.073-.583-2.98-.064-.842.518-2.656.777-1.684 2.72-2.268 1.166-4.665 1.879-6.997 2.591-.583-1.943-2.591-.712-3.757-.194-1.231.583-2.009.583-2.332.907-.324.324-.26 1.036-.13 1.684-.194.065-.324.195-.518.26a30 30 0 0 0-5.83 4.534c-1.555-1.231-2.527.388-3.305 1.166-.842.842-2.85 2.073-.842 3.886 0 0-1.23 2.786-1.814 4.73a27 27 0 0 0-.777 3.108c-1.75-.194-1.36.843-1.62 2.397-.194 1.49-1.166 2.526 1.166 3.11 0 2.915.39 5.83.907 8.81-.388.129-.777.258-.971.453-.907.906-.195 1.1-.195 2.332 0 2.072.454 2.072 2.073 2.332.065.518.195 1.1.26 1.62.518 2.979 1.1 4.857 1.49 6.93-.454-.13-1.49-.194-1.62.324-.13.583.065 2.073.194 2.98.195 1.036.648.712 1.685.842v.842c-.195 5.053-4.73 9.263-1.62 8.292s4.47-2.915 5.507-5.83c1.036-3.174 1.425-6.543 1.425-9.263-.13-5.442-1.231-9.847-1.037-15.288.324-8.745 3.11-16.583 10.3-21.7 7.386-5.183 18.205-7.515 25.201-13.344 2.203-1.814 4.664-4.924 4.6-7.709-.13-2.656-2.592-5.83-3.498-8.356"/><path fill="#d15a22" d="M104.262 142.292c-.13-3.175-.518-6.802-2.397-9.588-2.008-3.044-4.6-6.801-7.061-9.392-2.527-2.656-6.09-5.571-6.867-9.393-.972-4.988 1.296-10.04 3.498-14.186 1.36-2.591 5.895-8.875 9.135-13.668 2.915-4.275-2.656-8.486-8.098-3.563-2.008 1.814-3.822 4.275-5.377 6.866-1.36-1.036-1.814.713-2.397 1.49-.583.842-2.203 1.879-.26 3.369-1.165 2.461-2.137 4.793-2.785 6.801-2.527-.907-2.332 1.75-2.397 3.11s-.389 2.072-.259 2.461.713.648 1.36.842c-.13 2.786.26 5.506 1.102 8.162-1.166.907-.26 2.267.064 3.24.39 1.035.648 3.044 2.592 2.59 1.425 2.332 3.369 4.21 5.377 6.024-.713.972.259 1.36 1.166 2.333.972 1.036 1.166 2.332 2.85 1.295 1.62 1.62 3.045 3.304 4.082 5.506-.13.065-.26.13-.324.26-.843.97-.13 1.1 0 2.331.194 1.944.583 2.008 1.943 2.138.454 2.138.648 4.34.583 6.542-.518-.13-1.166-.194-1.296.195-.194.583-.323 2.073-.259 2.915 0 .842.324.906 1.037.971a16.5 16.5 0 0 1-1.166 3.433c-.26.519-1.75 4.082.324 3.563 0 0 3.822-1.878 5.118-6.607.907-3.304.842-6.672.712-10.04"/><path fill="#c44d16" d="M99.533 88.138c-.194-2.786-4.73-5.312-7.126-7.255.26 2.915-.065 5.894-.842 8.745-2.138-.584-1.75 1.036-2.138 2.202-.389 1.101-1.555 2.526.065 3.174-1.231 2.526-2.85 4.988-4.73 7.255-1.425-1.166-1.878.648-2.461 1.425-.518.648-1.62 1.425-1.101 2.462-2.462 2.461-5.248 4.664-8.228 6.607-.583-1.879-2.591-.648-3.757-.13-1.231.584-2.008.584-2.332.907-.454.454-.195 1.75.13 2.591a46.3 46.3 0 0 1-9.006 3.369c-.518-2.008-2.267-1.296-3.368-1.101-1.102.194-3.24 0-3.045 2.202-3.563.389-6.738 1.166-9.458 2.203-.778-2.073-1.555-1.102-3.045-.454-1.36.648-2.85.324-1.944 2.915-2.785 1.749-4.923 3.887-6.348 6.154-.324-.13-.648-.194-.907-.13-1.296.195-.778.778-1.49 1.75-1.296 1.813-.778 2.007.453 3.303-.389 2.267-.194 4.6.713 6.737.194.453.388.907.518 1.36-.518-.065-1.296-.065-1.425.389-.13.583.065 2.073.194 2.98.195 1.166.713.647 2.138.906l.13-.323c.777 4.793-1.231 6.412-1.167 8.291.065 2.591 6.35-2.332 6.673-7.32.324-4.858-2.397-10.3.518-14.704 6.673-10.04 18.852-2.656 37.186-13.733 8.616-5.182 16.39-12.632 21.054-21.053 1.36-2.202 4.34-9.198 4.146-11.724"/><path fill="#dc6629" d="M156.218 152.915c.777-.324 1.166-.324 1.036-1.23-.13-.908-.518-2.333-.842-2.851-.194-.324-.583-.194-1.036-.065-.26-2.332-.389-4.664-.454-6.93 1.166-.39 1.555-.584 1.36-2.463-.129-1.23.584-1.49-.453-2.267-.259-.194-.648-.259-1.101-.324-.13-2.526-.26-4.987-.583-7.449 1.684-.583.907-1.62.777-2.915-.194-1.62.324-2.72-1.879-2.397a32 32 0 0 0-.906-2.656c-.648-1.554-1.231-3.174-1.88-4.728 2.074-1.231.52-2.85 0-3.822-.517-.972-1.036-2.85-2.914-2.008-.324-.519-.713-1.037-1.037-1.555a49 49 0 0 0-3.757-4.47c.518-.712 1.036-1.619.777-2.072-.194-.39-.907-.713-1.879-1.685-.907-.907-2.461-2.915-3.757-.907-1.684-1.554-3.498-2.98-5.247-4.47.842-1.554-.713-2.072-1.426-2.655-.777-.648-1.62-2.267-2.72-.777-1.685-1.425-3.304-2.786-4.794-4.34 1.749-1.296 0-2.268-.778-3.24-.777-.971-.907-2.72-2.98-1.1-1.295-1.814-3.11-5.118-3.11-7.385 0 0-8.291-1.555-7.385 6.478s7.71 15.74 15.29 19.951c4.923 2.72 10.364 4.858 14.64 8.615 5.895 5.118 8.098 11.142 9.07 18.656.906 6.867-.519 14.51 2.137 21.053 1.037 2.461 4.989 9.522 8.617 7.579-.713-2.138-2.009-3.628-2.786-5.571"/><path fill="#dc6629" d="M124.345 80.3c-4.146 5.506-4.665 28.502-10.884 27.595-3.627-.519-4.146-26.753-4.146-26.753s-9.847-6.349-12.827 1.36c0 0 .972 12.826 3.952 23.45-.453.129-.713.518-.713 1.36.13 2.008.39 4.016 2.073 4.016.13 0 .26-.065.39-.13.906 2.268 1.943 4.21 3.109 5.636 4.729 5.895 13.798 4.793 17.944-1.684 5.896-9.134 1.296-21.377 6.932-31.029 4.859-8.291 6.608-3.562 10.236-3.886 6.284-.454-6.608-12.437-16.066.065"/><path fill="#e58961" d="M131.406 83.28c.778-.519 1.75-2.073 1.555-3.11 0 0-.13-.194-.324-.389-.972-.971-3.498 2.008-3.11 3.24.13.388.454.647.648.777.324.259.583-.13 1.231-.519"/><path fill="#ed996d" d="M131.665 83.603c.972-.647 2.138-2.59 1.166-3.562-.971-.972-3.304 2.008-2.98 3.109s.843 1.101 1.814.453"/><path fill="#dc6629" d="M131.6 82.826c.519-.324 1.167-1.425.648-1.943-.518-.519-1.814 1.1-1.62 1.684.195.583.454.648.972.259"/><path fill="#e58961" d="M128.556 94.292c.583-1.102.777-3.563-.389-4.34 0 0-.324-.065-.518-.13-1.62-.454-2.268 4.146-1.296 5.052.389.324 1.296.519 1.296.519.518.13.518-.324.907-1.102"/><path fill="#ed996d" d="M129.01 94.421c.647-1.23.712-4.016-.908-4.47s-2.202 4.017-1.23 4.988c.971.972 1.554.713 2.137-.518"/><path fill="#dc6629" d="M128.556 93.644c.324-.648.388-2.203-.519-2.462s-1.23 2.203-.712 2.72c.583.584.842.454 1.23-.258"/><path fill="#e58961" d="M127 107.182c.584-1.101.778-3.692-.453-4.47-.13-.064-.323-.064-.518-.064-1.684-.13-2.138 4.016-1.166 4.988.454.453 1.037.712 1.36.583.324-.065.454-.454.778-1.037"/><path fill="#ed996d" d="M127.39 107.182c.647-1.23.777-3.951-.778-4.47-1.62-.518-2.332 4.017-1.36 4.924.907.907 1.49.712 2.138-.454"/><path fill="#dc6629" d="M126.871 106.405c.389-.648.454-2.203-.453-2.462s-1.296 2.203-.778 2.721c.519.518.907.389 1.231-.26"/><path fill="#e58961" d="M120.199 118.907c1.166-.454 2.915-2.397 2.526-3.757-.065-.13-.13-.26-.259-.324-1.101-1.036-4.34 1.684-4.21 3.044.064.583.388 1.102.647 1.296.324.324.583.065 1.296-.26"/><path fill="#ed996d" d="M120.523 119.101c1.295-.518 3.174-2.526 2.267-3.951s-4.34 1.554-4.21 2.915.647 1.554 1.943 1.036"/><path fill="#dc6629" d="M120.652 118.194c.713-.259 1.75-1.425 1.231-2.137-.518-.778-2.397.842-2.332 1.62.065.712.389.776 1.101.517"/><path fill="#e58961" d="M106.076 118.842c.972 1.037 3.563 1.943 4.47.583.972-1.36-3.11-3.433-4.276-2.785-.712.388-1.1.842-1.036 1.295.065.324.453.518.842.907"/><path fill="#ed996d" d="M105.947 119.101c.971 1.037 3.563 1.944 4.47.583.971-1.36-3.11-3.433-4.276-2.785s-1.166 1.23-.195 2.202"/><path fill="#dc6629" d="M106.789 118.907c.518.583 1.943 1.101 2.461.324.519-.778-1.684-1.879-2.332-1.555s-.648.648-.13 1.23M94.998 92.996c1.102-2.656 5.442-10.494 5.442-10.494-.518-2.332-3.693-5.83-5.247-7.579-.778-.972-3.175-3.11-4.535-2.202-.324.194-.907 2.332-1.166 2.85-1.944 3.498-3.11 7.708-4.47 11.53-1.296 3.563-4.211 12.761-9.135 12.438-2.915-.195-3.239-3.952-2.98-6.154.648-6.672 3.434-13.604 5.83-19.822.778-2.073 3.175-8.616 3.175-13.41 0-3.432-3.887-7.125-5.182-5.31-1.36 1.878.583 5.57-.195 7.837-1.555 4.535-5.182 9.717-7.58 13.863-3.044 5.246-5.247 10.558-6.154 16.582-1.295 8.357 1.814 22.154 13.28 19.369 2.722-.648 5.378-2.203 7.71-4.146 1.296.842 2.656-.583 3.952-2.138.583-.777.518-1.36 0-1.684 1.943-2.202 3.563-4.534 4.858-6.672 1.425.26 2.527-1.943 2.721-3.239.065-.906 0-1.425-.324-1.619"/><path fill="#e58961" d="M74.98 65.466c.065-1.102 1.166-3.045 2.333-3.434 0 0 .259 0 .583.13 1.62.453-.065 4.858-1.62 5.117a1.83 1.83 0 0 1-1.166-.259c-.389-.259-.194-.712-.13-1.554"/><path fill="#ed996d" d="M74.527 65.336c.13-1.36 1.49-3.757 3.11-3.304s-.195 4.6-1.555 4.859c-1.36.324-1.685-.195-1.555-1.555"/><path fill="#dc6629" d="M75.304 64.947c.065-.777.843-2.073 1.685-1.813.907.259-.13 2.526-.843 2.656-.712.194-.842-.065-.842-.843"/><path fill="#e58961" d="M68.697 76.931c-.065-1.295.842-3.563 2.267-3.692 0 0 .389.065.518.13 1.62.323.195 4.728-1.036 5.117-.454.13-1.426-.065-1.426-.065-.518-.194-.323-.583-.323-1.49"/><path fill="#ed996d" d="M68.178 76.866c-.064-1.36 1.102-3.886 2.721-3.627 1.62.324.26 4.6-1.036 4.988-1.231.453-1.62 0-1.685-1.36"/><path fill="#dc6629" d="M68.956 76.413c0-.777.583-2.138 1.49-2.008.907.194.13 2.526-.583 2.72-.648.26-.907 0-.907-.712"/><path fill="#e58961" d="M63.384 90.081c-.324-1.23.065-3.757 1.426-4.21.13-.065.323.064.518.064 1.684.26 1.166 4.405.065 5.118-.583.323-1.166.453-1.49.259-.26-.195-.324-.583-.519-1.231"/><path fill="#ed996d" d="M63.06 90.016c-.388-1.36.13-4.08 1.75-4.146 1.684-.13 1.36 4.405.259 5.118-1.166.648-1.62.324-2.009-.972"/><path fill="#dc6629" d="M63.708 89.368c-.194-.712.065-2.202.972-2.267s.777 2.397.13 2.786c-.648.323-.907.194-1.102-.519"/><path fill="#e58961" d="M63.514 104.656c-.713-1.037-1.037-3.628.13-4.535.129-.064.259-.064.388-.13 1.49-.258 2.592 3.888 1.685 4.924-.39.453-.972.712-1.296.712-.389 0-.454-.323-.907-.971"/><path fill="#ed996d" d="M63.19 104.656c-.777-1.166-1.101-3.887.454-4.535 1.554-.582 2.656 3.758 1.749 4.794-.843 1.036-1.426.842-2.203-.26"/><path fill="#dc6629" d="M63.644 103.814c-.39-.648-.584-2.138.259-2.462.842-.324 1.425 2.073.971 2.656-.518.518-.842.454-1.23-.194"/><path fill="#e58961" d="M73.88 113.336c-1.361.26-4.017-.453-4.017-2.138s4.534-1.036 5.117.195c.39.712.454 1.36.065 1.684-.194.194-.648.194-1.166.259"/><path fill="#ed996d" d="M73.814 113.66c-1.36.259-4.016-.453-4.016-2.138s4.535-1.036 5.118.195c.583 1.23.259 1.684-1.102 1.943"/><path fill="#dc6629" d="M73.231 112.947c-.712.13-2.202-.259-2.202-1.166s2.461-.583 2.785.13c.324.648.13.907-.583 1.036"/></g></svg>