<svg xmlns="http://www.w3.org/2000/svg" xml:space="preserve" width="78.92" height="24.613" viewBox="0.62 0.749 78.92 24.613"><title>Slice 1</title><g fill-rule="nonzero"><path fill="#acff74" d="M29.6 7.8c-3.36-1.787-6.56-3.575-9.6-5.687-1.6-.813-4.16.487-3.84 4.387 2.88 1.463 8.16 4.225 10.08 5.363.8-1.625 1.92-3.088 3.36-4.063"/><path fill="#149948" d="M26.08 12.35h-.32c-2.08-1.137-7.2-3.9-9.92-5.362-.16-.163-.32-.326-.32-.488-.16-2.112.48-3.9 1.76-4.712.96-.65 2.08-.65 3.04-.326 3.2 2.113 6.4 4.063 9.6 5.688.16.162.32.325.32.487 0 .163 0 .488-.32.65-1.28.975-2.4 2.275-3.2 3.738-.16.162-.32.325-.64.325M16.8 6.013c2.72 1.3 6.88 3.737 9.12 4.874.64-1.137 1.6-2.112 2.56-2.924-3.04-1.625-5.92-3.413-8.8-5.363-.48-.163-1.12-.163-1.6.163-.96.65-1.28 1.787-1.28 3.25M29.44 24.863c-3.68 0-7.52-.488-11.04-1.463-2.88-.65-5.76-1.3-8.96-1.625s-8-1.462-8-3.087l-.16-4.225c0-.325.16-.488.32-.65a.48.48 0 0 1 .64 0c2.4 1.624 5.92 2.112 9.12 2.6q1.92.243 3.36.487c4.64.975 10.24 2.113 10.24 2.113 1.44.162 2.88.162 4.32.162 1.92 0 3.84-.812 5.28-1.95 1.28-.812 2.24-1.95 3.04-3.413.16-.162.32-.324.64-.324s.48.325.48.487v.325l.16 5.2c0 .163 0 .325-.16.488-1.76 3.087-5.44 4.875-9.28 4.875"/><path fill="#fff" d="M32.64 8.775c-.96-.162-2.08-.65-3.04-.975-1.44 1.138-2.56 2.438-3.52 4.063-1.44 2.437-1.92 5.2-1.6 7.962 1.44.163 3.04.163 4.48.163 2.08 0 4.16-.813 5.76-2.113 1.28-.975 2.4-2.113 3.2-3.575 0-1.463-.64-4.55-5.28-5.525"/><path fill="#149948" d="M28.96 20.638c-1.6 0-3.04-.163-4.48-.326-.32 0-.48-.325-.64-.487-.32-2.925.32-5.85 1.76-8.45.96-1.625 2.08-3.088 3.68-4.225a.48.48 0 0 1 .64 0q1.44.731 2.88.975c5.28 1.137 5.76 4.875 5.92 6.012v.325q-1.2 2.437-3.36 3.9c-1.92 1.463-4.16 2.276-6.4 2.276m-3.84-1.463c1.28.162 2.56.162 3.84.162 1.92 0 3.84-.812 5.44-1.95 1.28-.812 2.24-1.95 2.88-3.25 0-1.3-.8-3.737-4.8-4.712-.96-.163-1.92-.488-2.72-.975-1.28.975-2.24 2.275-3.04 3.575-1.28 2.275-1.76 4.713-1.6 7.15"/><path fill="#14e148" d="M26.08 11.7c-1.92-1.137-7.2-3.9-10.08-5.362-.96-.488-1.76-.813-1.92-.65-.8 2.6-2.24 3.9-4.96 4.062C6.24 9.75 4 5.363 3.04 5.2c-.96-.325-1.28.65-1.28 1.787l.16 5.525v1.95C5.28 16.9 10.88 16.9 14.4 17.55c4.64.975 10.08 2.113 10.08 2.113-.32-2.6.16-5.526 1.6-7.963"/><path fill="#149948" d="M24.48 20.475c-.16 0-5.6-1.3-10.24-2.113-.96-.162-2.08-.324-3.2-.487-3.2-.488-7.04-.975-9.6-2.762-.16-.325-.16-.488-.16-.65v-1.95l-.16-5.525c0-.813.16-1.788.8-2.275.16-.163.64-.325 1.28-.163.48.163.96.65 1.76 1.625 1.12 1.3 2.56 3.087 4.16 3.087 2.4 0 3.52-1.137 4.48-3.737q0-.244.48-.488c.16-.162.32-.162 2.24.813 3.04 1.463 8.48 4.55 10.08 5.363.16.162.32.162.32.325v.487c-1.28 2.275-1.92 5.038-1.44 7.638 0 .162 0 .487-.16.487-.32.163-.48.325-.64.325M2.56 14.137c2.24 1.463 5.6 1.95 8.64 2.276q1.92.243 3.36.487c3.52.65 7.52 1.625 9.28 1.95-.16-2.437.32-4.875 1.44-6.988-2.08-1.137-6.72-3.737-9.44-5.037-.64-.163-1.12-.325-1.28-.487-1.12 2.762-2.72 3.9-5.44 4.062-2.24 0-3.84-1.95-5.12-3.413C3.52 6.5 3.04 5.85 2.88 5.85h-.16c-.16 0-.32.488-.32 1.3z"/><path fill="#149948" d="M15.68 11.538c-1.12 0-2.08-.976-2.08-2.113s.96-2.113 2.08-2.113 1.92.975 1.92 2.113-.8 2.112-1.92 2.112m0-3.25c-.64 0-1.28.487-1.28 1.137s.48 1.137 1.12 1.137 1.12-.487 1.12-1.137-.32-1.138-.96-1.138"/><path fill="#149948" d="M18.88 13.163c-1.12 0-2.08-.976-2.08-2.113s.96-2.113 2.08-2.113 2.08.976 2.08 2.113-.96 2.112-2.08 2.112m0-3.25c-.64 0-1.12.487-1.12 1.137s.48 1.137 1.12 1.137S20 11.7 20 11.05s-.48-1.138-1.12-1.138"/><path fill="#149948" d="M22.24 14.95c-1.12 0-2.08-.975-2.08-2.112s.96-2.113 2.08-2.113 2.08.975 2.08 2.113-.96 2.112-2.08 2.112m0-3.25c-.64 0-1.12.488-1.12 1.138s.48 1.137 1.12 1.137 1.12-.487 1.12-1.137-.48-1.138-1.12-1.138M15.68 9.913h-.16c-.32-.163-.32-.488-.32-.65 1.44-2.6 3.52-4.875 5.92-6.663.16-.163.48-.163.64.163.16.162.16.487-.16.65-2.24 1.462-4.16 3.737-5.6 6.175-.16.162-.16.325-.32.325M18.88 11.538h-.16c-.16-.163-.32-.325-.16-.65 1.44-2.438 3.2-4.713 5.28-6.5a.48.48 0 0 1 .64 0 .5.5 0 0 1 0 .65c-2.08 1.787-3.84 3.9-5.12 6.337-.16.162-.32.162-.48.162"/><path fill="#149948" d="M22.24 13.488h-.16c-.16-.163-.32-.325-.16-.65 1.28-2.438 2.88-4.713 4.96-6.5a.48.48 0 0 1 .64 0 .5.5 0 0 1 0 .65q-2.88 2.681-4.8 6.337c-.16 0-.32.163-.48.163"/><path fill="#acff74" d="M11.68 15.438c-.48 0-.8 0-1.28-.163-.32 0-.64-.488-.48-.812 0-.325.32-.65.8-.488.32 0 .64.162.96.162s.64.325.64.65-.32.65-.64.65M8.64 14.95c-1.6-.162-3.2-.65-4.64-1.3-.32-.162-.48-.65-.32-.975s.48-.488.8-.325c1.44.65 2.72 1.138 4.32 1.3.32 0 .64.325.48.813 0 .325-.32.487-.64.487M69.76 7.8c-3.36-1.787-6.56-3.575-9.6-5.687C58.56 1.3 56 2.6 56.32 6.5c2.88 1.463 8.16 4.225 10.08 5.363.8-1.625 1.92-3.088 3.36-4.063"/><path fill="#149948" d="M66.4 12.35h-.32C64 11.213 58.88 8.288 56 6.988c-.16-.163-.32-.326-.32-.488-.16-2.112.48-3.9 1.76-4.712.96-.65 2.08-.65 3.04-.326 3.2 2.113 6.4 4.063 9.6 5.688.16.162.32.325.32.487 0 .163 0 .488-.32.65-1.28.975-2.4 2.275-3.2 3.738-.16.162-.32.325-.48.325m-9.44-6.337c2.72 1.3 6.88 3.737 9.12 4.874.64-1.137 1.6-2.112 2.56-2.924-3.04-1.625-5.92-3.413-8.8-5.363-.48-.163-1.12-.163-1.6.163-.96.65-1.28 1.787-1.28 3.25M78.88 14.3c0-.325-.16-.488-.48-.65-.32 0-.64 0-.8.325-.8 1.3-1.76 2.438-3.04 3.412-1.6 1.138-3.36 1.95-5.28 1.95-1.44 0-2.88-.162-4.32-.162 0 0-5.44-1.3-10.08-2.113-1.12-.325-2.24-.487-3.52-.65-3.04-.487-6.56-.812-8.96-2.6a.48.48 0 0 0-.64 0c-.16.163-.32.325-.32.65l.16 4.226c0 1.625 4.8 2.762 7.84 3.087 2.88.325 5.92.975 8.8 1.625a40.9 40.9 0 0 0 10.88 1.463c3.84 0 7.36-1.625 9.76-4.713.16-.162.16-.325.16-.487z"/><path fill="#fff" d="M72.8 8.775c-.96-.162-2.08-.65-3.04-.975-1.44 1.138-2.56 2.438-3.52 4.063-1.44 2.437-1.92 5.2-1.6 7.962 1.44.163 3.04.163 4.48.163 2.08 0 4.16-.813 5.76-2.113 1.28-.975 2.4-2.113 3.2-3.575 0-1.463-.64-4.55-5.28-5.525"/><path fill="#149948" d="M69.12 20.638c-1.6 0-3.04-.163-4.48-.326-.32 0-.48-.325-.64-.487-.32-2.925.16-5.85 1.76-8.45.96-1.625 2.08-3.088 3.68-4.225a.48.48 0 0 1 .64 0q1.44.731 2.88.975c5.28 1.137 5.76 4.875 5.92 6.012v.325q-1.2 2.437-3.36 3.9c-1.92 1.463-4.16 2.276-6.4 2.276m-3.84-1.463c1.28.162 2.56.162 3.84.162 1.92 0 3.84-.812 5.44-1.95 1.28-.812 2.24-1.95 2.88-3.25 0-1.3-.8-3.737-4.8-4.712-.96-.163-1.92-.488-2.72-.975-1.28.975-2.24 2.275-3.04 3.575-1.28 2.275-1.76 4.713-1.6 7.15"/><path fill="#14e148" d="M66.24 11.7c-1.92-.975-7.04-3.9-9.92-5.362-1.28-.488-1.92-.813-2.08-.65-.8 2.6-2.24 3.9-4.96 4.062-2.88 0-5.12-4.387-6.08-4.55-.96-.325-1.28.65-1.28 1.787l.16 5.525v1.95c3.36 2.438 8.96 2.438 12.64 3.088 4.64.975 10.08 2.113 10.08 2.113-.48-2.6.16-5.526 1.44-7.963"/><path fill="#149948" d="M64.64 20.475c-.16 0-5.6-1.3-10.24-2.113-.8-.324-1.92-.487-3.2-.65-3.2-.325-6.88-.812-9.6-2.762-.16-.162-.16-.325-.16-.487v-1.95l-.16-5.525c0-.813.16-1.788.8-2.275.32-.163.64-.488 1.28-.163.48.163.96.65 1.76 1.625 1.12 1.3 2.72 3.087 4.16 3.087 2.4 0 3.52-1.137 4.48-3.737q0-.244.48-.488c.16-.162.32-.162 2.24.813 2.88 1.463 8 4.225 10.08 5.363.16.162.32.162.32.325v.487c-1.28 2.275-1.92 5.038-1.44 7.638 0 .162 0 .487-.16.487-.32.163-.48.325-.64.325m-21.92-6.338c2.4 1.463 5.76 1.95 8.64 2.276q1.92.243 3.36.487c3.52.65 7.52 1.625 9.28 1.95-.16-2.437.32-4.875 1.44-6.988-2.4-1.137-6.88-3.575-9.44-4.874-.64-.326-1.12-.488-1.28-.65C53.6 9.1 52 10.238 49.28 10.4c-2.08 0-3.84-1.95-5.12-3.413-.48-.487-.96-1.137-1.12-1.137h-.16c-.16 0-.32.488-.32 1.3z"/><path fill="#149948" d="M55.84 11.538c-1.12 0-2.08-.976-2.08-2.113s.96-2.113 2.08-2.113 2.08.975 2.08 2.113-.96 2.112-2.08 2.112m0-3.25c-.64 0-1.12.487-1.12 1.137s.48 1.137 1.12 1.137 1.12-.487 1.12-1.137-.48-1.138-1.12-1.138"/><path fill="#149948" d="M59.04 13.163c-1.12 0-2.08-.976-2.08-2.113s.96-2.113 2.08-2.113 2.08.976 2.08 2.113-.96 2.112-2.08 2.112m0-3.25c-.64 0-1.12.487-1.12 1.137s.48 1.137 1.12 1.137 1.12-.487 1.12-1.137-.48-1.138-1.12-1.138"/><path fill="#149948" d="M62.4 14.95c-1.12 0-2.08-.975-2.08-2.112s.96-2.113 2.08-2.113 2.08.975 2.08 2.113-.96 2.112-2.08 2.112m0-3.25c-.64 0-1.12.488-1.12 1.138s.48 1.137 1.12 1.137 1.12-.487 1.12-1.137-.48-1.138-1.12-1.138M55.84 9.913c-.48-.163-.48-.488-.48-.65 1.44-2.6 3.52-4.875 5.92-6.663.16-.163.48-.163.64.163.16.162.16.487-.16.65-2.24 1.462-4.16 3.737-5.6 6.175-.16.162-.16.325-.32.325M59.04 11.538h-.16c-.16-.163-.32-.325-.16-.65 1.44-2.438 3.2-4.713 5.28-6.5a.48.48 0 0 1 .64 0 .5.5 0 0 1 0 .65c-2.08 1.787-3.84 3.9-5.12 6.337-.16.162-.32.162-.48.162"/><path fill="#149948" d="M62.4 13.488h-.16c-.16-.163-.32-.325-.16-.65a24.8 24.8 0 0 1 4.96-6.5.48.48 0 0 1 .64 0 .5.5 0 0 1 0 .65c-1.92 1.787-3.68 3.9-4.8 6.174-.16.163-.32.325-.48.325"/><path fill="#acff74" d="M51.68 15.6c-.48 0-.8 0-1.28-.162-.16-.163-.48-.488-.32-.813 0-.325.32-.65.8-.488.32 0 .64.163.96.163s.64.325.64.65c-.16.325-.32.65-.8.65M48.8 15.113s-.16 0 0 0c-1.6-.325-3.2-.65-4.64-1.3-.32-.325-.48-.65-.32-.976s.48-.487.8-.325c1.28.65 2.72.976 4.16 1.3.32 0 .64.325.48.813 0 .162-.16.488-.48.488"/></g></svg>