<svg xmlns="http://www.w3.org/2000/svg" xml:space="preserve" width="37.707" height="52.789" viewBox="-0.389 -0.422 37.707 52.789"><title>Slice 1</title><g fill-rule="nonzero"><path fill="#f0e6d2" d="M35.96 22.646c-1.6-7.49-5.18-16.473-12.175-20.42C22.04 1.24 19.782.043 17.727.079a10.3 10.3 0 0 0-3.581.89c-.695.331-4.385 3.44-4.944 4.217-3.103 4.334-4.831 9.009-6.5 13.436C1.44 21.962 1.246 25.81.656 29.325c-.417 2.488-.809 5.57-.315 8.058 1.21 6.078 5.992 11.21 11.776 12.943.888.267 3.855 1.497 7.639 1.54 3.136.036 7.278-1.044 7.469-1.128 7.042-3.024 8.873-11.669 9.212-14.037.635-4.679.474-9.43-.478-14.055"/><path fill="linen" d="M3.266 36.858c.716 3.041 2.081 6.657 4.413 8.134.583.367 1.332.813 1.984.754.4-.061.78-.211 1.115-.44a11.8 11.8 0 0 0 1.46-1.831c.877-1.842 1.144-3.893 1.557-5.746a28.5 28.5 0 0 0 .528-4.335c.066-1.03.11-2.304-.113-3.313-.544-2.469-2.2-4.475-4.089-5.073a6.2 6.2 0 0 0-2.475-.477c-.81.084-1.6.292-2.347.615-2.16 1.386-2.516 4.971-2.561 5.951-.077 1.935.1 3.872.528 5.761"/></g></svg>