<svg xmlns="http://www.w3.org/2000/svg" xml:space="preserve" width="177.938" height="232.425" viewBox="4.463 13.5 177.938 232.425"><title>mermaid-b</title><g fill-rule="nonzero"><g fill="#0a0806"><path d="M103.9 65.6c1.2-.2 2.3.9 2.3 2.5 0 1.5-1 2.8-2 2.8s-1.9-1.1-2.1-2.5.6-2.6 1.8-2.8"/><path d="M103.2 61.7c1.3-.3 2.6.7 2.7 2.2.2 1.5-.8 2.9-1.9 3-1.2.1-2.3-.9-2.6-2.3-.2-1.3.5-2.6 1.8-2.9"/><path d="M102 57.6c.7-.2 1.4-.1 1.9.1.6.3 1.1 1 1.2 1.7.4 1.5-.5 3-1.8 3.2s-2.6-.7-3-1.9c-.2-.6-.1-1.3.1-1.8.5-.6 1-1.1 1.6-1.3"/><path d="M101 53.7c1.4-.3 2.8.6 3.1 1.8.2.7.1 1.3-.2 1.9s-.8 1.1-1.4 1.3c-.7.2-1.3.2-1.9-.2-.6-.3-1.1-.9-1.3-1.6-.6-1.4.3-2.9 1.7-3.2M101.9 81.8c.2.1.2.5 0 .9s-.7 1-1.4 1.4c-1.3.9-2.6.9-2.5 1 0 0 .3-.1.7-.4s.9-.7 1.3-1.3c.8-1 1.5-1.9 1.9-1.6"/><path d="M103.4 78.1c.7.2.8 1.5 0 2.9s-2 2.1-2.2 1.9q-.15-.15 0-.9c.1-.5.3-1.1.4-1.7.2-.6.4-1.2.7-1.6.4-.5.8-.7 1.1-.6"/><path d="M104.1 73.9c.9.1 1.5 1.4 1 2.9-.4 1.5-1.5 2.5-2 2.3-.6-.2-.8-1.4-.7-2.8s.8-2.5 1.7-2.4"/><path d="M104.2 69.9c1.1 0 1.9 1.2 1.7 2.7s-1.2 2.7-2 2.5c-.8-.1-1.4-1.3-1.5-2.7 0-1.4.7-2.5 1.8-2.5M101.1 33.6c1.2.3 2 1.6 1.8 2.9-.1 1.4-1.3 2.4-2.6 2.2-1.4-.1-2.3-1.5-2-3 .4-1.4 1.7-2.4 2.8-2.1"/><path d="M102.1 29.7c1 .3 1.6 1.7 1.4 3-.2 1.4-1.3 2.3-2.6 2.1-1.2-.2-2-1.6-1.5-3.1.4-1.4 1.7-2.3 2.7-2"/><path d="M103.9 25.9c.3.2.4.6.4 1.2 0 .5 0 1.2-.1 1.8q-.15.9-.9 1.5c-.4.4-1 .5-1.5.4-1-.3-1.7-1.6-.8-3.2.4-.7 1.1-1.3 1.6-1.5.6-.4 1.1-.4 1.3-.2"/><path d="M107.1 23.4s-.1 0-.2.1-.3.2-.4.4c-.3.4-.7 1-1 1.6s-.7 1-1.1 1.3c-.4.2-.8.3-1.2.1s-.5-.7-.4-1.2.7-1.1 1.4-1.5 1.5-.5 2-.6c.6-.1.9-.2.9-.2M100.4 50c1.5-.2 2.8.8 3 2.1s-.7 2.7-2.1 3c-1.4.4-2.9-.6-3.2-2.1-.2-1.4.8-2.8 2.3-3"/><path d="M100.1 46c1.5 0 2.7 1 2.8 2.4.1 1.3-.9 2.6-2.4 2.9-1.5.2-2.8-.8-3-2.4-.1-1.5 1.1-2.8 2.6-2.9"/><path d="M100.1 41.8c1.4.1 2.5 1.3 2.6 2.6 0 1.4-1.1 2.5-2.6 2.6s-2.7-1.1-2.7-2.6 1.3-2.7 2.7-2.6"/><path d="M100.4 37.8c1.3.2 2.3 1.4 2.3 2.8-.1 1.4-1.2 2.5-2.6 2.4-1.4 0-2.6-1.3-2.4-2.8.1-1.5 1.4-2.6 2.7-2.4"/></g><g fill="#0a0806"><path d="M101.4 69.5c1.2-.1 2.2.6 2.2 1.7s-.9 2-1.9 2.1c-1 0-2-.7-2.2-1.7-.1-1.1.7-2 1.9-2.1"/><path d="M101.1 66.6c1.3-.2 2.5.5 2.5 1.6.1 1.1-.9 2.1-2 2.2-1.2.1-2.3-.6-2.5-1.6-.3-1.1.6-2 2-2.2"/><path d="M100.6 63.5c1.4-.2 2.6.5 2.7 1.5.1 1.1-.9 2.1-2.2 2.2-1.3.2-2.5-.5-2.7-1.5-.1-1 .8-2 2.2-2.2"/><path d="M100.2 60.6c1.4-.2 2.7.4 2.8 1.5s-.9 2.1-2.3 2.3-2.6-.5-2.8-1.5.8-2 2.3-2.3M99.7 81c.4.2.1 1.2-1 1.7-.5.3-1 .4-1.4.5s-.6.1-.6.1.2 0 .5-.2.6-.6.9-1c.6-.8 1.2-1.4 1.6-1.1"/><path d="M101.1 78.4c.7.3.7 1.3 0 2.2-.8.9-1.7 1.3-1.9 1.1s0-1.1.3-2c.2-1 .9-1.6 1.6-1.3"/><path d="M101.8 75.4c.9 0 1.6 1 1.1 2.2-.3.7-.7 1-1.1 1.3-.4.2-.7.3-1 .1-.3-.1-.4-.4-.5-.9-.1-.2-.1-.4-.1-.7v-.6c0-.6.6-1.4 1.6-1.4"/><path d="M101.7 72.5c1.1-.1 2 .8 1.8 1.9-.1 1.1-1 2-1.9 1.9-.8-.1-1.5-.9-1.7-1.9 0-.9.7-1.8 1.8-1.9M98.2 46.1c1.2-.1 2.3.6 2.5 1.6s-.7 2-2.1 2.1c-1.4.2-2.5-.6-2.5-1.6s.9-2 2.1-2.1"/><path d="M98 43.2c1-.1 2.1.7 2.2 1.7.2 1-.7 1.9-1.9 2.1-1.3.1-2.3-.6-2.3-1.7s.9-2.1 2-2.1"/><path d="M97.9 40.1c.3 0 .7.2 1 .5s.6.8.8 1.3c.3 1-.5 1.9-1.6 2s-2-.7-1.8-1.8c.1-.5.4-1 .7-1.4q.3-.6.9-.6"/><path d="M97.9 37.2s0 .2.2.6c.2.3.4.8.7 1.3.2.5.2 1 .1 1.3-.2.3-.5.6-.9.6-.9 0-1.4-.8-.9-1.9.2-.5.5-1 .7-1.3.1-.4.1-.6.1-.6M99.8 58c1.5-.2 2.8.4 2.9 1.5.1 1-.9 2.1-2.3 2.3s-2.7-.4-2.9-1.5.8-2.1 2.3-2.3"/><path d="M99.3 55.1c1.5-.2 2.8.4 2.9 1.5.2 1-.9 2.1-2.4 2.3s-2.8-.4-2.9-1.5 1-2.1 2.4-2.3"/><path d="M98.9 52c1.4-.2 2.7.5 2.9 1.5s-.9 2-2.3 2.3c-1.5.2-2.8-.5-2.9-1.5-.2-1.1.9-2.1 2.3-2.3"/><path d="M98.5 49.2c1.3-.2 2.5.5 2.7 1.6.2 1-.8 2-2.2 2.2s-2.7-.5-2.8-1.6c0-1.1 1-2.1 2.3-2.2"/></g><g fill="#1c1411"><path d="M97.4 65.6c1.2-.2 2.3.8 2.4 2.1s-.6 2.5-1.6 2.8c-1 .2-2.2-.7-2.5-2.1-.2-.7-.1-1.3.2-1.9q.6-.75 1.5-.9"/><path d="M97 61.8c1.3-.1 2.4.9 2.5 2.2s-.8 2.5-1.9 2.7c-1.2.2-2.3-.8-2.6-2.2-.3-1.3.7-2.5 2-2.7"/><path d="M96.7 57.9c1.4-.1 2.6 1 2.6 2.3s-1 2.5-2.2 2.6-2.5-.9-2.6-2.3c-.2-1.4.8-2.6 2.2-2.6"/><path d="M96.5 54.1c1.5-.1 2.7 1 2.7 2.3 0 1.4-1.1 2.5-2.4 2.6-1.4.1-2.6-1-2.7-2.3-.2-1.4.9-2.5 2.4-2.6M101.6 80.5c.2-.1.5.1.8.4s.6.9.8 1.5c.3.6.6 1.2.8 1.5.2.4.4.6.4.6-.2-.2-.4-.3-.6-.4-.4-.3-.9-.7-1.4-1.2-.9-1.1-1.2-2.2-.8-2.4"/><path d="M100.1 77c.7-.2 1.4.6 1.8 1.9.2.6.3 1.2.4 1.7s.1.8-.1.9c-.3.2-1.2-.6-2-1.8-.4-.6-.6-1.2-.6-1.7s.2-.8.5-1"/><path d="M98.9 73.2c.9-.2 1.8.6 2 1.9s.1 2.5-.5 2.8c-.3.1-.7 0-1.1-.4-.4-.3-.8-.9-1.1-1.5q-.45-1.05-.3-1.8c.2-.5.5-.9 1-1"/><path d="M98 69.5c1.1-.2 2.1.7 2.2 2 .2 1.3-.3 2.6-1.1 2.8s-1.8-.6-2.3-2c-.4-1.3.2-2.6 1.2-2.8M96.7 35.1c1.2.1 2.1 1.3 2.1 2.6S97.7 40 96.3 40c-1.4-.1-2.4-1.2-2.2-2.6.3-1.5 1.5-2.5 2.6-2.3"/><path d="M97.3 31.3c1 .2 1.7 1.4 1.7 2.7-.1 1.3-1.1 2.3-2.4 2.2-1.2-.1-2.1-1.3-1.8-2.7.1-.7.5-1.3 1-1.7s1-.6 1.5-.5"/><path d="M98.4 27.5c.6.2 1 1.5 1 2.8-.1.6-.3 1.2-.7 1.5-.4.4-.9.5-1.5.4-1.1-.2-1.8-1.5-1.2-2.8.3-.7.7-1.2 1.2-1.6q.75-.45 1.2-.3"/><path d="M100 24.1c-.1 0-.3 1.2-.3 2.5-.1.7-.2 1.2-.6 1.6-.3.3-.7.5-1.1.4-.8-.2-1-1.5 0-2.7.2-.3.5-.5.7-.8.3-.2.5-.4.7-.5.5-.3.6-.5.6-.5M96.4 50.6c1.5 0 2.7 1 2.7 2.3s-1.1 2.5-2.5 2.6-2.7-1-2.8-2.3c-.1-1.4 1.1-2.6 2.6-2.6"/><path d="M96.3 46.8c1.5 0 2.7 1.1 2.7 2.4s-1.1 2.5-2.6 2.5c-1.5.1-2.7-1-2.8-2.4 0-1.3 1.2-2.5 2.7-2.5"/><path d="M96.3 42.8c1.4 0 2.6 1.1 2.6 2.5 0 1.3-1.1 2.4-2.6 2.5-1.5 0-2.7-1.1-2.7-2.5.1-1.4 1.3-2.5 2.7-2.5"/><path d="M96.4 39c1.3.1 2.4 1.2 2.4 2.5s-1.1 2.4-2.6 2.4c-1.4 0-2.6-1.1-2.5-2.5.2-1.4 1.4-2.4 2.7-2.4"/></g><g fill="#261b17"><path d="M95.2 62.5c1.2-.4 2.4.6 2.5 2.1s-.7 2.7-1.7 2.8c-.5 0-1-.2-1.4-.6s-.8-.9-.9-1.5-.1-1.2.2-1.7.8-.9 1.3-1.1"/><path d="M94.1 59c.6-.2 1.3-.1 1.8.2.3.1.5.3.7.5.1.1.2.2.2.4.1.2.1.3.2.5.4 1.5-.4 2.9-1.5 3.1-.6.1-1.2 0-1.7-.3s-1-.7-1.2-1.3c-.1-.1-.1-.3-.1-.4v-.5c0-.3.1-.7.2-.9.3-.7.8-1.2 1.4-1.3"/><path d="M93.3 55.1c.7-.1 1.4.1 1.9.4s.9.9 1 1.5c.2 1.2-.5 2.5-1.8 2.9-1.2.4-2.7-.4-3-1.8-.4-1.5.5-2.8 1.9-3"/><path d="M92.8 51.4c1.4-.1 2.7.8 2.8 2.1s-.8 2.5-2.2 2.8c-1.3.3-2.7-.7-2.9-2.1-.1-1.5.9-2.7 2.3-2.8M95.3 77.8c.5.1.4 1.2-.1 2.5l-.8 1.6c-.2.4-.3.7-.3.7s.1-.3.1-.7c.1-.4.1-1.1.2-1.7 0-1.4.4-2.5.9-2.4"/><path d="M95.9 74.1c.7.1 1 1.3.6 2.6s-1.1 2.3-1.4 2.2c-.2 0-.3-.3-.3-.8-.1-.5-.1-1.1-.1-1.8-.1-1.2.4-2.2 1.2-2.2"/><path d="M96.1 70.2c.9 0 1.6 1.2 1.3 2.6s-1.1 2.4-1.7 2.3-1.1-1.2-1.1-2.5c0-.7.1-1.2.4-1.7s.7-.7 1.1-.7"/><path d="M96 66.4c1.1-.1 2 1 1.9 2.4s-1 2.5-1.8 2.5-1.6-1.1-1.7-2.4c-.1-.6 0-1.2.3-1.7.3-.4.7-.7 1.3-.8M93.6 32.5c1.2.2 2 1.5 1.9 2.7-.1 1.3-1.3 2.2-2.6 2.1-1.4-.1-2.3-1.4-2-2.8.3-1.3 1.6-2.2 2.7-2"/><path d="M94.5 28.9c.5.1.9.5 1.2 1q.45.75.3 1.8c-.2 1.3-1.3 2.2-2.5 2s-2-1.5-1.6-2.8c.3-1.5 1.6-2.3 2.6-2"/><path d="M95.8 25.1c.6.3.9 1.6.8 2.8-.1 1.3-1.2 2.1-2.3 1.8-.5-.1-1-.5-1.1-1.1-.2-.5-.1-1.2.2-1.8.3-.7.9-1.2 1.3-1.5.4-.2.8-.3 1.1-.2"/><path d="M97.7 22c-.1 0-.4 1.1-.6 2.5-.1.7-.4 1.2-.7 1.5s-.8.4-1.1.3-.6-.5-.6-1 .3-1.1.8-1.6c.5-.6 1.1-.9 1.6-1.2s.6-.5.6-.5M92.6 47.9c1.5 0 2.7 1 2.8 2.2 0 1.3-1 2.5-2.4 2.6-1.4.2-2.8-.8-2.9-2.2s1-2.5 2.5-2.6"/><path d="M92.6 44.2c1.5 0 2.7 1.1 2.7 2.4s-1.1 2.4-2.6 2.5-2.7-1-2.8-2.4c0-1.4 1.2-2.6 2.7-2.5"/><path d="M92.7 40.2c1.4.1 2.6 1.2 2.5 2.5 0 1.3-1.2 2.4-2.7 2.4s-2.7-1.1-2.6-2.5c.2-1.5 1.4-2.5 2.8-2.4"/><path d="M93.1 36.5c.7.1 1.2.4 1.6.9s.7 1.1.6 1.7c-.1 1.3-1.2 2.3-2.7 2.2-1.4-.1-2.6-1.2-2.4-2.6.3-1.4 1.5-2.4 2.9-2.2"/></g><g fill="#30231d"><path d="M93.2 62.1c.9-.2 1.9.9 1.9 2.4.1 1.5-.7 2.7-1.5 2.7s-1.5-1.1-1.7-2.4c-.2-1.4.3-2.5 1.3-2.7"/><path d="M92.4 58.3c1-.3 2.1.7 2.3 2.1.2 1.5-.4 2.8-1.3 2.9s-1.9-.9-2.2-2.2.2-2.5 1.2-2.8"/><path d="M91.4 54.3c1.1-.2 2.2.7 2.5 2s-.3 2.8-1.3 3-2.1-.6-2.5-2c-.3-1.5.2-2.8 1.3-3"/><path d="M90.8 50.4c.6-.1 1.1.1 1.5.5s.8 1 .9 1.6c.2 1.3-.4 2.6-1.5 2.9-1 .3-2.2-.7-2.5-2.1-.1-.7-.1-1.4.2-1.9s.8-.9 1.4-1M91.8 77.9c.3.1.1 1.3-.8 2.5-.4.6-.8 1.1-1.2 1.4-.1.1-.3.3-.5.6 0 0 .2-.2.4-.6s.4-1 .7-1.7c.5-1.4 1-2.4 1.4-2.2"/><path d="M92.9 74.2c.6.1.6 1.4 0 2.7-.3.7-.7 1.2-1 1.6s-.5.6-.7.5 0-1.3.2-2.6c.2-.7.3-1.3.6-1.7.4-.4.7-.6.9-.5"/><path d="M93.6 70.1c.3 0 .7.3.8.8s.1 1.2 0 1.9c-.2.7-.5 1.3-.8 1.7q-.45.6-.9.6c-.3 0-.4-.4-.5-.9s-.2-1.1-.1-1.8c.1-1.3.8-2.4 1.5-2.3"/><path d="M93.6 66.2c.8 0 1.5 1.1 1.4 2.6-.1.7-.3 1.4-.6 1.8s-.7.7-1 .7-.6-.4-.8-.8c-.2-.5-.4-1.1-.4-1.8 0-1.3.6-2.5 1.4-2.5M92.1 31c.9.3 1.3 1.6 1.1 2.9-.3 1.3-1.2 2.2-2.3 2.1-1-.2-1.7-1.5-1.3-2.9.4-1.5 1.6-2.4 2.5-2.1"/><path d="M93.4 27.3c.4.2.6.6.7 1.1s.1 1.2-.1 1.8c-.3 1.3-1.4 2.1-2.3 1.9-1-.3-1.3-1.6-.8-3 .6-1.3 1.8-2.1 2.5-1.8"/><path d="M95.3 23.7c.2.1.3.5.3 1s-.1 1.2-.3 1.8c-.4 1.3-1.4 2-2.3 1.7-.8-.3-1-1.7-.2-2.9.9-1.3 2.1-1.9 2.5-1.6"/><path d="M97.6 20.5s-.5 1.1-1 2.4c-.3.6-.5 1.2-.9 1.5s-.7.4-1 .3c-.6-.3-.4-1.6.8-2.6.5-.5 1.1-.9 1.5-1.1.4-.3.6-.5.6-.5M90.4 46.8c1.2-.1 2.1 1 2.3 2.3.1.7-.1 1.3-.4 1.8s-.7.9-1.3 1-1.1-.1-1.6-.5c-.4-.4-.8-1-.9-1.8-.2-1.4.7-2.7 1.9-2.8"/><path d="M90.3 43c1.2 0 2.1 1.1 2.1 2.5.1 1.3-.8 2.5-1.9 2.6-1.2.1-2.2-1-2.3-2.5s.9-2.7 2.1-2.6"/><path d="M90.5 38.8c1.1.1 1.9 1.3 1.9 2.6-.1 1.3-.9 2.4-2.1 2.5-1.1 0-2.1-1.2-2-2.6 0-1.5 1.1-2.6 2.2-2.5"/><path d="M91.1 35c1 .2 1.6 1.4 1.5 2.8-.1.7-.3 1.2-.8 1.7-.4.4-.9.7-1.5.6-.6 0-1.1-.4-1.4-.9s-.4-1.2-.3-1.9.5-1.3.9-1.8c.5-.4 1.1-.6 1.6-.5"/></g><g fill="#0a0806"><path d="M115.2 66.2c1.2.2 2 1.4 1.8 2.7-.2 1.4-1.1 2.5-2.1 2.5s-2-1.2-2-2.8c0-1.4 1.1-2.5 2.3-2.4"/><path d="M115.9 62.3c1.3.3 2 1.6 1.8 2.9-.3 1.3-1.4 2.4-2.6 2.3s-2.1-1.4-1.9-3c.1-1.5 1.4-2.5 2.7-2.2"/><path d="M117.1 58.2c.7.2 1.2.7 1.4 1.3.3.6.3 1.2.1 1.8-.4 1.3-1.7 2.1-3 1.9s-2.1-1.7-1.8-3.2c.2-.8.7-1.4 1.2-1.7.7-.3 1.4-.3 2.1-.1"/><path d="M118.1 54.3c1.4.3 2.3 1.8 1.8 3.3-.2.7-.7 1.3-1.3 1.6s-1.3.4-1.9.2c-.7-.2-1.1-.7-1.4-1.3s-.4-1.2-.2-1.9c.2-1.3 1.6-2.2 3-1.9M117.2 82.4c.4-.2 1.1.6 1.9 1.7.4.5.9 1 1.3 1.3.4.2.7.4.7.4 0-.1-1.2-.1-2.5-1-.7-.4-1.1-1-1.4-1.4-.2-.5-.2-.9 0-1"/><path d="M115.7 78.7c.3-.1.7.1 1 .5s.5.9.7 1.6.3 1.3.4 1.7c.1.5.2.8 0 .9-.2.2-1.4-.5-2.2-1.9-.7-1.3-.6-2.7.1-2.8"/><path d="M115 74.5c.9-.1 1.6 1 1.7 2.3.1 1.4-.2 2.6-.7 2.8-.6.2-1.6-.8-2-2.3-.5-1.5.1-2.8 1-2.8"/><path d="M114.9 70.5c1.1 0 1.8 1.2 1.8 2.5-.1 1.4-.7 2.6-1.5 2.7s-1.8-1-2-2.5c-.2-1.6.6-2.8 1.7-2.7M118 34.2c1.2-.3 2.5.7 2.8 2.2s-.6 2.8-2 3c-1.4.1-2.5-.9-2.6-2.2-.2-1.4.6-2.8 1.8-3"/><path d="M117 30.3c1-.3 2.3.6 2.7 2.1.5 1.5-.3 2.8-1.5 3.1-1.3.2-2.4-.7-2.6-2.1s.4-2.8 1.4-3.1"/><path d="M115.2 26.5c.3-.2.7-.2 1.3.1.5.3 1.2.8 1.6 1.5.9 1.6.2 2.9-.8 3.2-.5.1-1.1 0-1.5-.4q-.6-.6-.9-1.5c-.1-.6-.1-1.2-.1-1.8 0-.5.1-.9.4-1.1"/><path d="M112 24.1s.3.1.8.1c.5.1 1.3.2 2 .6s1.2 1 1.4 1.5 0 1-.4 1.2-.8.2-1.2-.1c-.4-.2-.7-.7-1.1-1.3-.3-.6-.7-1.2-1-1.6l-.4-.4zM118.7 50.6c1.5.2 2.5 1.6 2.2 3.1s-1.8 2.4-3.2 2.1c-1.4-.4-2.3-1.7-2.1-3 .3-1.4 1.7-2.3 3.1-2.2"/><path d="M119 46.6c1.5 0 2.6 1.3 2.5 2.9-.2 1.5-1.5 2.6-3 2.4-1.4-.2-2.5-1.5-2.4-2.9.2-1.3 1.5-2.4 2.9-2.4"/><path d="M119 42.4c1.4-.1 2.7 1.1 2.7 2.6s-1.2 2.7-2.7 2.6-2.6-1.3-2.6-2.6c.1-1.4 1.2-2.5 2.6-2.6"/><path d="M118.7 38.4c1.3-.2 2.6.9 2.8 2.4s-1 2.8-2.4 2.8c-1.5 0-2.6-1.1-2.6-2.4-.1-1.4.9-2.6 2.2-2.8"/></g><g fill="#0a0806"><path d="M117.7 70.1c1.2.1 2 1.1 1.9 2.1-.2 1-1.2 1.8-2.2 1.7-1 0-1.9-1-1.9-2.1-.1-1.1.9-1.9 2.2-1.7"/><path d="M118 67.2c1.3.2 2.2 1.2 2 2.2s-1.3 1.7-2.5 1.6-2.1-1.1-2-2.2 1.2-1.8 2.5-1.6"/><path d="M118.5 64.1c1.4.2 2.4 1.2 2.1 2.2-.2 1-1.4 1.7-2.7 1.5s-2.3-1.2-2.2-2.2c.2-1 1.4-1.7 2.8-1.5"/><path d="M118.9 61.2c1.4.2 2.5 1.2 2.3 2.3-.2 1-1.5 1.7-2.8 1.5-1.4-.2-2.4-1.2-2.3-2.3.1-1 1.4-1.7 2.8-1.5M119.4 81.6c.4-.3 1 .3 1.5 1.1.3.4.6.8.9 1s.5.2.5.2-.2 0-.6-.1-.9-.2-1.4-.5c-1-.6-1.3-1.5-.9-1.7"/><path d="M118 79c.7-.3 1.4.3 1.7 1.2s.5 1.8.3 2-1.2-.2-1.9-1.1c-.8-.8-.7-1.8-.1-2.1"/><path d="M117.3 76c.9 0 1.6.7 1.6 1.5v.6c0 .2 0 .5-.1.7-.1.4-.3.7-.5.9-.3.1-.7.1-1-.1-.4-.2-.8-.6-1.1-1.3-.4-1.3.2-2.2 1.1-2.3"/><path d="M117.4 73.1c1.1.1 1.8.9 1.7 1.9-.2 1-.8 1.8-1.7 1.9-.8.1-1.7-.8-1.9-1.9-.1-1.1.8-1.9 1.9-1.9M120.9 46.7c1.2.1 2.2 1.1 2.1 2.1 0 1.1-1.2 1.8-2.5 1.6-1.4-.2-2.3-1.1-2.1-2.1s1.3-1.7 2.5-1.6"/><path d="M121.1 43.8c1 .1 2 1 2 2.1s-1 1.9-2.3 1.7c-1.2-.1-2.1-1.1-1.9-2.1s1.2-1.8 2.2-1.7"/><path d="M121.2 40.7c.3 0 .7.2 1 .6s.6.9.7 1.4c.2 1.1-.7 1.9-1.8 1.8s-1.9-1-1.6-2c.1-.5.4-1 .8-1.3.3-.3.6-.5.9-.5"/><path d="M121.2 37.8s0 .2.2.5.5.8.7 1.3c.5 1.1-.1 1.9-.9 1.9-.4 0-.8-.2-.9-.6-.2-.3-.1-.8.1-1.3s.5-1 .7-1.3c.1-.3.1-.5.1-.5M119.3 58.6c1.5.2 2.5 1.3 2.3 2.3s-1.5 1.7-2.9 1.5-2.5-1.2-2.3-2.3c.1-1.1 1.5-1.7 2.9-1.5"/><path d="M119.8 55.7c1.5.2 2.5 1.2 2.4 2.3-.2 1-1.5 1.7-2.9 1.5-1.5-.2-2.5-1.2-2.4-2.3s1.4-1.7 2.9-1.5"/><path d="M120.2 52.6c1.4.2 2.5 1.2 2.4 2.3s-1.4 1.7-2.9 1.5-2.5-1.2-2.3-2.3c.1-1 1.4-1.6 2.8-1.5"/><path d="M120.6 49.8c1.3.2 2.3 1.1 2.3 2.2-.1 1.1-1.3 1.8-2.8 1.6-1.4-.2-2.4-1.2-2.2-2.2.1-1.1 1.4-1.8 2.7-1.6"/></g><g fill="#1c1411"><path d="M121.7 66.2c.6.1 1.1.4 1.4.9s.4 1.2.2 1.9c-.3 1.4-1.5 2.3-2.5 2.1s-1.7-1.5-1.6-2.8c.2-1.3 1.3-2.3 2.5-2.1"/><path d="M122.1 62.5c1.3.1 2.3 1.3 2 2.7s-1.4 2.4-2.6 2.2c-1.1-.2-2-1.4-1.9-2.7.1-1.4 1.2-2.4 2.5-2.2"/><path d="M122.4 58.5c1.4.1 2.5 1.2 2.3 2.6s-1.4 2.4-2.6 2.3-2.3-1.3-2.2-2.6c-.1-1.4 1.1-2.4 2.5-2.3"/><path d="M122.6 54.7c1.5.1 2.6 1.2 2.4 2.6-.1 1.4-1.3 2.4-2.7 2.3s-2.5-1.3-2.4-2.6c0-1.3 1.2-2.4 2.7-2.3M117.5 81.1c.4.2.1 1.3-.9 2.4-.5.5-1 .9-1.4 1.2-.2.1-.4.3-.6.4 0 0 .2-.2.4-.6s.5-.9.8-1.5.6-1.1.8-1.5c.4-.4.7-.5.9-.4"/><path d="M119 77.6c.3.1.5.5.5 1s-.2 1.1-.6 1.7c-.8 1.2-1.8 1.9-2 1.8-.1-.1-.1-.4-.1-.9.1-.5.2-1.1.4-1.7.4-1.3 1.1-2.1 1.8-1.9"/><path d="M120.2 73.8c.4.1.8.5.9 1s0 1.2-.3 1.8c-.3.7-.7 1.2-1.1 1.5s-.8.5-1.1.4c-.6-.2-.7-1.5-.5-2.8.3-1.2 1.2-2.1 2.1-1.9"/><path d="M121.1 70.2c1.1.2 1.6 1.5 1.2 2.8-.5 1.3-1.5 2.2-2.3 2s-1.3-1.5-1.1-2.8c.1-1.4 1.1-2.2 2.2-2M122.4 35.7c1.2-.1 2.3.9 2.6 2.3.2 1.4-.8 2.6-2.2 2.6-1.4.1-2.5-1-2.5-2.3-.1-1.3.9-2.5 2.1-2.6"/><path d="M121.8 31.9c.5-.1 1 .1 1.5.5s.8 1 1 1.7c.3 1.4-.5 2.6-1.8 2.7s-2.3-.9-2.4-2.2c-.1-1.2.6-2.4 1.7-2.7"/><path d="M120.7 28.1c.3-.1.7 0 1.2.4.5.3.9.9 1.2 1.6.6 1.4-.1 2.7-1.2 2.8-.5.1-1.1-.1-1.5-.4-.4-.4-.6-.9-.7-1.5 0-1.4.4-2.7 1-2.9"/><path d="M119.1 24.7s.2.2.6.5c.2.2.4.3.7.5.2.2.5.5.7.8 1 1.1.8 2.5 0 2.7-.4.1-.8 0-1.1-.4s-.4-.9-.6-1.6c0-1.3-.3-2.5-.3-2.5M122.7 51.2c1.5 0 2.6 1.2 2.6 2.6-.1 1.4-1.3 2.4-2.8 2.3-1.4-.1-2.6-1.2-2.5-2.6 0-1.3 1.3-2.3 2.7-2.3"/><path d="M122.8 47.4c1.5 0 2.7 1.2 2.6 2.5 0 1.4-1.3 2.5-2.8 2.4s-2.6-1.2-2.6-2.5c.1-1.3 1.4-2.4 2.8-2.4"/><path d="M122.8 43.4c1.4 0 2.6 1.1 2.7 2.5 0 1.4-1.2 2.5-2.7 2.5s-2.7-1.1-2.6-2.5c0-1.3 1.2-2.4 2.6-2.5"/><path d="M122.7 39.7c1.3-.1 2.5 1 2.6 2.4s-1 2.5-2.5 2.5-2.6-1.1-2.6-2.4c.1-1.3 1.2-2.5 2.5-2.5"/></g><g fill="#261b17"><path d="M123.9 63.1c.6.2 1 .6 1.3 1.1s.3 1.1.2 1.7-.5 1.1-.9 1.5-.9.6-1.4.6c-1-.1-1.9-1.3-1.7-2.8.1-1.5 1.3-2.4 2.5-2.1"/><path d="M125 59.6c.6.2 1.1.6 1.4 1.2.1.3.2.6.2.9v.5c0 .1-.1.3-.1.4-.2.6-.7 1-1.2 1.3s-1.1.4-1.7.3c-1.1-.2-1.9-1.6-1.5-3.1 0-.2.1-.4.2-.5s.1-.3.2-.4c.2-.2.4-.4.7-.5.5-.2 1.1-.3 1.8-.1"/><path d="M125.8 55.7c1.4.2 2.3 1.5 1.9 2.9s-1.8 2.2-3 1.8-2-1.7-1.8-2.9c.1-.6.5-1.1 1-1.5.5-.3 1.2-.4 1.9-.3"/><path d="M126.3 52c1.5.1 2.5 1.4 2.3 2.8s-1.6 2.3-2.9 2.1c-1.4-.3-2.3-1.5-2.2-2.8 0-1.3 1.3-2.2 2.8-2.1M123.8 78.4c.5-.1.9.9 1 2.3.1.7.1 1.3.2 1.7s.1.7.1.7-.1-.3-.3-.7l-.8-1.6c-.6-1.1-.6-2.3-.2-2.4"/><path d="M123.2 74.7c.7-.1 1.3.9 1.3 2.3 0 .7 0 1.3-.1 1.8s-.2.8-.3.8c-.3.1-1-.9-1.4-2.2-.5-1.4-.2-2.6.5-2.7"/><path d="M123 70.8c.4 0 .9.3 1.1.7.3.4.4 1 .4 1.7-.1 1.3-.5 2.5-1.1 2.5-.6.1-1.4-.9-1.7-2.3-.3-1.5.3-2.6 1.3-2.6"/><path d="M123.1 67c.5.1 1 .4 1.3.8.3.5.4 1 .3 1.7-.2 1.3-.9 2.4-1.7 2.4s-1.7-1.1-1.8-2.5.9-2.5 1.9-2.4M125.5 33.1c1.2-.2 2.4.7 2.7 2.1s-.6 2.6-2 2.8c-1.4.1-2.5-.8-2.6-2.1s.7-2.5 1.9-2.8"/><path d="M124.6 29.5c1-.3 2.2.6 2.6 1.9.4 1.4-.4 2.7-1.6 2.8-1.3.2-2.3-.7-2.5-2-.1-.6 0-1.3.3-1.8.3-.4.7-.8 1.2-.9"/><path d="M123.3 25.7q.45-.15 1.2.3c.5.3 1 .8 1.3 1.5s.4 1.3.2 1.8-.6.9-1.1 1.1c-1.1.3-2.2-.5-2.3-1.8-.2-1.3.1-2.6.7-2.9"/><path d="M121.4 22.6s.2.2.6.4c.4.3 1.1.6 1.6 1.2.5.5.9 1.1.8 1.6 0 .5-.2.9-.6 1-.4.2-.8 0-1.1-.3s-.5-.8-.7-1.5c-.2-1.3-.6-2.5-.6-2.4M126.5 48.5c1.5 0 2.7 1.2 2.5 2.6-.1 1.4-1.5 2.4-2.9 2.2s-2.5-1.3-2.4-2.6c.1-1.2 1.3-2.2 2.8-2.2"/><path d="M126.5 44.8c1.5 0 2.7 1.1 2.7 2.5s-1.3 2.5-2.8 2.4-2.6-1.2-2.6-2.5c.1-1.3 1.2-2.4 2.7-2.4"/><path d="M126.4 40.8c1.4-.1 2.6 1 2.7 2.4s-1.1 2.5-2.6 2.5-2.7-1.1-2.7-2.4 1.2-2.4 2.6-2.5"/><path d="M126 37.1c1.3-.2 2.6.8 2.8 2.2s-.9 2.6-2.4 2.6c-1.5.1-2.6-.9-2.7-2.2 0-.7.2-1.3.6-1.7.5-.5 1.1-.9 1.7-.9"/></g><g fill="#30231d"><path d="M125.9 62.7c1 .2 1.4 1.3 1.3 2.7-.2 1.3-.9 2.4-1.7 2.4s-1.6-1.2-1.5-2.7c0-1.5 1-2.6 1.9-2.4"/><path d="M126.7 58.9c1 .3 1.5 1.5 1.2 2.8s-1.2 2.3-2.2 2.2c-.9-.1-1.5-1.4-1.3-2.9.3-1.4 1.3-2.4 2.3-2.1"/><path d="M127.7 54.9c1.1.2 1.7 1.5 1.3 3-.4 1.4-1.5 2.2-2.5 2s-1.5-1.6-1.3-3c.3-1.4 1.4-2.3 2.5-2"/><path d="M128.3 51c.6.1 1 .4 1.3 1 .3.5.4 1.2.2 1.9-.3 1.4-1.5 2.4-2.5 2.1-1-.2-1.6-1.5-1.5-2.9.1-.7.4-1.2.9-1.6.5-.3 1.1-.5 1.6-.5M127.3 78.5c.3-.1.9.8 1.4 2.2.3.6.5 1.2.7 1.7.2.4.4.6.4.6-.2-.2-.4-.4-.5-.6-.3-.3-.7-.8-1.2-1.4-.9-1.2-1.1-2.4-.8-2.5"/><path d="M126.2 74.8c.3-.1.6.2.8.6.3.4.4 1 .6 1.7.3 1.3.4 2.5.2 2.6-.1.1-.4-.1-.7-.5s-.7-.9-1-1.6c-.6-1.5-.5-2.7.1-2.8"/><path d="M125.5 70.7c.7 0 1.3 1 1.4 2.3.1.7 0 1.3-.1 1.8s-.2.8-.5.9c-.2.1-.5-.2-.9-.6-.3-.4-.6-1-.8-1.7s-.2-1.4 0-1.9c.3-.5.6-.8.9-.8"/><path d="M125.5 66.8c.9 0 1.4 1.2 1.4 2.5 0 .7-.2 1.3-.4 1.8s-.5.8-.8.8-.7-.2-1-.7c-.3-.4-.5-1.1-.6-1.8-.2-1.5.5-2.7 1.4-2.6M127 31.6c.9-.3 2.1.6 2.4 2 .4 1.4-.2 2.8-1.3 2.9-1.1.2-2-.8-2.3-2.1-.1-1.3.3-2.5 1.2-2.8"/><path d="M125.7 27.9c.8-.3 1.9.5 2.5 1.8.5 1.4.2 2.7-.8 3-.9.2-2-.6-2.3-1.9-.2-.6-.2-1.3-.1-1.8s.3-.9.7-1.1"/><path d="M123.8 24.3c.4-.3 1.6.4 2.5 1.6.8 1.3.7 2.6-.2 2.9-.8.3-1.8-.4-2.3-1.7-.2-.6-.3-1.3-.3-1.8s0-.9.3-1"/><path d="M121.5 21.1s.2.2.6.5 1 .6 1.5 1.1c1.1 1 1.4 2.2.8 2.6-.3.2-.7 0-1-.3-.4-.3-.6-.9-.9-1.5-.5-1.3-1-2.4-1-2.4M128.7 47.4c1.2.1 2.1 1.3 1.8 2.8-.1.7-.4 1.4-.9 1.8s-1 .6-1.6.5-1-.5-1.3-1-.5-1.1-.4-1.8c.3-1.3 1.3-2.3 2.4-2.3"/><path d="M128.8 43.6c1.1 0 2.1 1.2 2.1 2.6-.1 1.5-1.1 2.6-2.3 2.5-1.1-.1-2-1.3-1.9-2.6.1-1.4 1-2.5 2.1-2.5"/><path d="M128.6 39.4c1.1-.1 2.1 1 2.3 2.4.1 1.5-.9 2.7-2 2.6-1.2 0-2.1-1.1-2.1-2.5-.1-1.2.7-2.4 1.8-2.5"/><path d="M128 35.6c.5-.1 1 .1 1.5.5.4.4.8 1 .9 1.8.1.7 0 1.4-.3 1.9s-.8.8-1.4.9q-.9 0-1.5-.6c-.4-.4-.7-1-.8-1.7 0-1.4.6-2.6 1.6-2.8"/></g><path fill="#9b5c3d" d="M175 72.9s-2.9-1.8-3.9-6.9c-.7-3.5-2.2-6.1-1.2-6.4 1.9-.7 2.8 4.8 2.8 4.8s.4-5 .6-6.6c.2-1.5 1-4.6 1.7-4.8 1.2-.4.8 1.5.3 4.8 0 0 .7-2.8 1.5-4.1.8-1.1 2-1.5 2 .3 0 0 1.3-2.4 2 .7 0 0 2.1-1.2.5 5.7-.8 2.8 2.3 14.9-6.3 12.5"/><path fill="#75402c" d="M180.7 54.6s-.2.5-.3 1.2c-.2.7-.4 1.7-.6 2.7s-.4 2-.6 2.7-.3 1.2-.3 1.2v-1.3c0-.8.1-1.8.3-2.8s.6-2 .9-2.7c.3-.6.6-1 .6-1M178.7 53.5s-.2.5-.3 1.3c-.2.8-.5 1.8-.7 2.9-.2 1-.4 2.1-.6 2.9-.1.4-.1.7-.2 1 0 .2-.1.4-.1.4s-.1-.5-.1-1.4c0-.8.1-1.9.3-3s.6-2.1 1-2.9c.3-.8.7-1.2.7-1.2M175.7 55.7s0 .4-.1 1-.2 1.4-.4 2.2-.3 1.6-.5 2.2c-.1.3-.1.6-.2.7 0 .2-.1.3-.1.3s-.1-.4-.1-1.1c0-.6 0-1.5.2-2.3s.4-1.6.7-2.2c.3-.5.5-.8.5-.8M174.1 72s-.1 0-.3-.1-.4-.2-.7-.5c-.5-.5-.9-1.3-1.3-2.1-.3-.8-.5-1.7-.7-2.3-.1-.7-.1-1.1-.1-1.1l.5 1c.3.6.6 1.4.9 2.2s.7 1.6 1 2.1c.2.3.3.5.4.6.2.2.3.2.3.2M172.6 64.3s.4-.1.9.1c.6.1 1.2.5 1.8 1.1.3.3.5.6.7.9q.3.45.3.9c.1.3.1.5.1.7v.3s-.1-.1-.1-.2q-.15-.15-.3-.6c-.1-.2-.3-.5-.5-.7-.2-.3-.4-.5-.6-.8q-.75-.75-1.5-1.2c-.5-.3-.8-.5-.8-.5"/><path fill="#9b5c3d" d="M153.5 103.9c.7-5.3 7.3-14.9 12-21.5 3-4.2 8-12.1 8-12.1 2.2-.8 3.6.8 4.9 2.4 0 0-1.5 4-4.4 11.7-3.1 8.3-10.6 21.7-13.7 23-3.6 1.5-7.1-.9-6.8-3.5"/><path fill="#75402c" d="M154.4 100.6s.6-1.5 1.6-3.6c.5-1.1 1.1-2.3 1.9-3.6.7-1.3 1.5-2.6 2.4-4 .8-1.3 1.7-2.6 2.6-3.8.4-.6.9-1.2 1.3-1.7l1.2-1.5c.7-.9 1.4-1.7 1.8-2.2.5-.5.7-.8.7-.8s-.9 1.3-2.3 3.2c-.7.9-1.4 2.1-2.3 3.3-.8 1.2-1.7 2.5-2.5 3.8s-1.7 2.6-2.4 3.9-1.5 2.4-2 3.5c-1.2 2.2-2 3.5-2 3.5M178.1 73.2s-.1.5-.4 1.4-.6 2.2-1.1 3.7-1.1 3.3-1.8 5.1-1.5 3.8-2.4 5.7-1.8 3.8-2.8 5.6c-.5.9-.9 1.7-1.4 2.5s-.9 1.5-1.3 2.2c-.8 1.4-1.6 2.4-2.1 3.2s-.8 1.2-.8 1.2.3-.5.7-1.3c.2-.4.5-.9.9-1.4.3-.6.7-1.2 1.1-1.9.8-1.4 1.6-3 2.5-4.8s1.8-3.6 2.7-5.6c.9-1.9 1.7-3.8 2.5-5.7.7-1.8 1.5-3.5 2-5 1.1-2.9 1.7-4.9 1.7-4.9"/><path fill="#9b5c3d" d="M140.7 79.6c-3.8-3-20.5-14.2-18-1.1 2.5 12.6 37.1 35.6 38.7 28.3 1.7-7.5-12.2-20.4-20.7-27.2"/><path fill="#75402c" d="M134.5 75.4s1.3.7 3.3 2c1 .6 2.1 1.4 3.2 2.3s2.4 1.8 3.6 2.8 2.3 2 3.4 3 2 2 2.8 2.8 1.4 1.6 1.9 2.1c.4.5.7.8.7.8s-.3-.3-.8-.7c-.5-.5-1.2-1.1-2-1.9s-1.8-1.7-2.9-2.6c-1.1-1-2.2-2-3.4-2.9-1.2-1-2.4-2-3.5-2.9s-2.2-1.7-3.1-2.4zM123.3 73.2s-.1.1-.2.4q-.15.45-.3 1.2c-.1.5-.1 1.2 0 1.9 0 .4.1.8.2 1.2.1.2.1.4.2.6s.2.4.2.6c.3.9.8 1.7 1.2 2.7.3.5.6.9.9 1.4s.6.9 1 1.4c.7.9 1.4 1.9 2.2 2.7.8.9 1.6 1.8 2.5 2.7s1.7 1.8 2.6 2.6l2.7 2.4c.9.8 1.8 1.4 2.6 2.1s1.6 1.3 2.3 1.9c3 2.2 4.9 3.8 4.9 3.8s-2.1-1.4-5.1-3.5c-.7-.5-1.5-1.2-2.4-1.8-.8-.7-1.8-1.3-2.6-2.1-.9-.8-1.8-1.5-2.7-2.3s-1.8-1.7-2.7-2.5-1.7-1.8-2.5-2.7-1.5-1.9-2.2-2.8c-.4-.5-.7-1-.9-1.4-.3-.5-.6-.9-.8-1.4-.5-1-.9-1.9-1.2-2.8-.1-.2-.1-.4-.2-.7-.1-.2-.1-.4-.1-.6-.1-.4-.2-.8-.2-1.2-.1-.8 0-1.4.1-2 .1-.5.3-.9.4-1.2 0-.4.1-.6.1-.6"/><path fill="#9b5c3d" d="M104 56.9s2.7 8.7.1 11.5c-2.6 2.7-15.8 7.9-15.8 7.9s-8.6 5.1-.5 24.4c1.5 3.5 4.9 10.4 3.5 13.7-.8 2-4.7 13.6-2.2 15.9 16.5 15.5 35.4 10.5 43.8-4.6 1.7-3-1.9-8.9-3.4-13.6-.9-3 2-12.1 2.8-18.4 1.3-11.1-4.3-21.6-4.3-21.6s-7.6-1.9-9.4-3.3-1.9-7.3-1.9-7.3-6.3-8-12.7-4.6"/><path fill="#75402c" d="M105 61.8s.1.3.1.8c.1.5.1 1.2.1 2.1 0 .4 0 .9-.1 1.4 0 .5-.1 1-.3 1.6-.1.3-.2.5-.4.8l-.2.2-.2.1-.3.3c-.5.4-.9.7-1.4 1-1 .6-2 1.1-2.9 1.6s-1.9.9-2.6 1.2c-1.6.7-2.6 1.1-2.6 1.1s1-.6 2.5-1.4c.7-.4 1.6-.9 2.5-1.4s1.9-1.1 2.9-1.6c.5-.3 1-.6 1.4-.9.2-.1.5-.4.6-.5.1-.2.3-.4.3-.6.3-.9.5-1.9.5-2.8.1-.8.1-1.5.1-2zM110.7 74.7h-1.3c-.8 0-1.8-.1-2.8-.2s-2-.2-2.8-.3c-.4-.1-.7-.1-.9-.1s-.4-.1-.4-.1.5-.1 1.3-.2 1.8-.1 2.9 0c1 .1 2.1.3 2.8.5s1.2.4 1.2.4M123.6 72.5s-.5.2-1.1.4c-.7.2-1.6.5-2.5.7s-1.8.4-2.5.6c-.4.1-.6.1-.9.2-.2 0-.3.1-.3.1s.4-.3 1.1-.6 1.6-.6 2.5-.8 1.9-.4 2.6-.5c.6-.1 1.1-.1 1.1-.1M88.4 125.3s0-.4.1-1c.1-.7.2-1.6.5-2.7s.7-2.4 1.1-3.7l.6-2.1c.2-.7.4-1.5.5-2.1.2-1.4-.1-2.9-.4-4.3s-.7-2.6-1-3.7c-.7-2.2-1.3-3.6-1.3-3.6s.7 1.3 1.6 3.4c.4 1.1.9 2.3 1.2 3.7s.6 2.9.5 4.5c-.1.8-.4 1.5-.6 2.2l-.6 2.1c-.4 1.4-.9 2.6-1.3 3.7s-.6 2-.8 2.6c0 .6-.1 1-.1 1M133.7 123.6s0-.4-.2-.9c-.2-.6-.6-1.4-1-2.3-.4-1-1-2.1-1.5-3.3s-1.1-2.5-1.5-3.9c-.1-.3-.1-.7-.2-1.1V111c0-.7 0-1.4.1-2.1q.15-1.95.6-3.6c.5-2.1 1.1-3.4 1.1-3.4l-.3.9c-.2.6-.3 1.5-.5 2.5s-.3 2.3-.4 3.6c0 .7-.1 1.3-.1 2 0 .3 0 .7.1 1 0 .3.1.6.2 1 .3 1.3.9 2.6 1.4 3.8s1 2.4 1.3 3.4c.4 1 .6 1.8.8 2.4.1.3.1.5.1.7zM117.4 121.8s-.2.1-.5.3-.7.4-1 .6-.6.5-.9.8l-.3.3-.1.1s0-.2.1-.6c.1-.3.4-.8.8-1.1s.9-.5 1.3-.5.6.1.6.1M125.8 117.9s.3.7.6 1.7c.1.5.3 1.2.3 1.9 0 .3.1.7.1 1.1v1.1c-.1.7-.2 1.5-.4 2.2-.1.3-.2.7-.3 1s-.3.6-.4.8c-.3.5-.6.8-.8 1.1l-.4.4s.1-.2.3-.4c.1-.1.2-.3.3-.5s.2-.4.3-.7c.1-.2.2-.5.3-.8s.2-.6.2-.9c.1-.6.2-1.4.3-2.1.1-1.4 0-2.9-.1-3.9-.2-1.3-.3-2-.3-2"/><path fill="#ed7d2d" d="M119.8 101.8c-3.6 2.4-15.6 12.3-30.3 2.9 0 0-1.5-1.3-2.8-6.7 0 0 38.2-8.2 45.2-13.8 0 0 .9 1.3.4 3.8-.5 2.4-8.9 11.5-12.5 13.8"/><path fill="#b05b1e" d="M94.1 107.1s1.2.5 3 .8c.9.2 2 .3 3.1.4.6.1 1.2.1 1.8.1s1.2 0 1.8-.1c.6 0 1.2-.1 1.8-.2l1.8-.3c.6-.1 1.1-.3 1.6-.4s1-.3 1.4-.4c.4-.2.9-.3 1.2-.4.4-.1.7-.3.9-.4.5-.2.8-.3.8-.3s-.3.2-.8.4c-.2.1-.5.3-.9.5-.3.2-.7.3-1.2.5-.4.2-.9.4-1.4.5-.5.2-1.1.4-1.6.5-.6.1-1.2.3-1.8.4s-1.2.2-1.9.2c-.6 0-1.3.1-1.9 0-.6 0-1.2 0-1.8-.1-.6 0-1.2-.2-1.7-.3s-1-.2-1.5-.4c-1.6-.4-2.7-1-2.7-1"/><path fill="#ed9939" d="M132.5 86s4.6 8.1-1.2 16.8c-5.8 8.8-19.2-2.8-24.3-5.6s-15.5.3-20.4 1c0 0-.9-1.2-.9-3.3 0 0 9.7-7.5 22.8-7 7.5.5 24-1.9 24-1.9"/><path fill="#b05b1e" d="M133.9 97.1s-.1.6-.5 1.7c-.2.5-.4 1.2-.8 1.9-.3.7-.8 1.5-1.3 2.4-.6.8-1.3 1.7-2.2 2.3-.9.7-2.2 1.2-3.5 1-2.5-.3-5.1-1.1-7.5-2.1-2.4-1.1-4.7-2.4-6.7-3.8-1-.7-2-1.5-2.9-2.1s-1.9-1-2.8-1.3c-1.9-.6-3.5-.8-4.6-.8h-1.8s.6-.1 1.8-.1c1.1 0 2.8 0 4.7.6 1 .3 2 .7 3 1.3s1.9 1.4 2.9 2c2 1.4 4.3 2.7 6.7 3.7 2.4 1.1 4.9 1.9 7.3 2.2 1.2.2 2.3-.2 3.2-.8s1.6-1.4 2.2-2.2c1.2-1.6 1.8-3.1 2.3-4.1.3-1.2.5-1.8.5-1.8M129.6 86.4s-1.3.3-3.3.6c-1 .1-2.1.3-3.4.5-1.2.1-2.6.3-3.9.5-1.3.1-2.7.2-3.9.3s-2.4.1-3.4.1-1.8 0-2.4-.1c-.3 0-.5-.1-.7-.1h-.2.9c.6 0 1.4-.1 2.4-.1 1-.1 2.2-.2 3.4-.3s2.6-.3 3.9-.4 2.7-.3 3.9-.4 2.4-.2 3.4-.3 1.8-.1 2.4-.2.9-.1.9-.1"/><path fill="#9b5c3d" d="M102.1 44.3s-2.4-6-6.4-3.3-2.4 10 2.6 11.5"/><path fill="#75402c" d="M95.8 43.5s.1-.1.2-.3c.2-.2.4-.4.8-.5.2-.1.4-.1.7-.1.1 0 .2.1.4.1.1.1.2.1.3.2.2.1.4.3.6.5s.3.4.4.7c.1.2.2.5.3.7s.2.5.2.7c.1.5.2.9.3 1.3.1.7.1 1.2.1 1.2s-.2-.5-.4-1.2c-.1-.3-.3-.7-.4-1.2L99 45l-.3-.6c-.1-.2-.2-.4-.4-.6-.1-.2-.3-.3-.4-.5l-.2-.2c-.1 0-.2-.1-.2-.1-.2 0-.3-.1-.5 0-.3 0-.6.2-.8.3-.3.1-.4.2-.4.2"/><path fill="#75402c" d="M99.2 44.9s-.3.1-.6.3-.7.5-1 .8c-.2.2-.3.4-.4.5-.1.2-.2.4-.3.5-.1.2-.2.3-.2.4-.1.1-.1.2-.1.2v-.7c0-.4.3-1 .6-1.4.2-.2.4-.4.7-.5.2-.1.5-.2.7-.2.3 0 .6.1.6.1"/><path fill="#9b5c3d" d="M52.7 145.3s.2 3.4-3.4 7.1c-2.4 2.5-3.6 5.2-4.5 4.6-1.6-1.1 2.3-4.9 2.3-4.9s-4.5 2.5-5.3 4.4c-.6 1.4-2.6 2.9-3.2 2.6-.7-.3 1.2-3.4 2.4-5.3 0 0-1.7 2.1-2.9 3.1-1.3 1.1-2 1-1.4-.8 0 0-2.7.9.3-3.6 0 0-1.1-.5.7-2.7 1.9-2.3 12.1-12.9 15-4.5"/><path fill="#75402c" d="M38.7 158.2s0-.1.1-.4.1-.6.3-1 .4-.9.7-1.4.6-1 1-1.4c.8-.9 1.6-1.7 2.3-2.2.3-.3.7-.5.9-.6s.3-.2.3-.2l-.3.3c-.2.2-.4.5-.7.8s-.6.7-1 1.1-.7.8-1.1 1.3c-.7.9-1.4 1.8-1.8 2.6-.5.6-.7 1.1-.7 1.1M36.8 156s.1-.6.4-1.3c.2-.4.4-.8.7-1.2s.6-.9 1-1.3c.7-.8 1.6-1.6 2.3-2 .7-.5 1.2-.7 1.2-.7l-.3.3-.7.7-1 1c-.3.4-.7.8-1.1 1.2-.7.8-1.4 1.7-1.8 2.3-.5.5-.7 1-.7 1M37 152.4s.2-.4.5-.9.8-1.2 1.4-1.8 1.2-1.2 1.7-1.5.9-.5.9-.5l-.2.2c-.1.1-.3.3-.5.6-.4.5-.9 1.1-1.5 1.7-.5.6-1.1 1.2-1.6 1.6-.3.3-.7.6-.7.6M52.5 146.5s.1.1.1.3v.8c-.1.7-.5 1.5-1 2.2s-1 1.4-1.5 1.8-.8.7-.8.7.2-.4.5-.9c.3-.6.8-1.3 1.2-2s.9-1.4 1.1-2c.1-.3.2-.5.2-.7.2-.1.2-.2.2-.2"/><path fill="#9b5c3d" d="M76.6 115.2c-1.3 5.2-9 13.9-14.5 19.9-3.5 3.8-9.4 11.1-9.4 11.1-2.3.5-3.5-1.2-4.5-3 0 0 2-3.7 5.8-11.1 4.1-7.9 13.2-20.3 16.4-21.2 3.7-1 6.8 1.8 6.2 4.3"/><path fill="#75402c" d="M75.3 118.4s-.7 1.4-2 3.4c-.7 1-1.4 2.1-2.3 3.3s-1.8 2.4-2.8 3.7c-1 1.2-2 2.4-3 3.5q-.75.9-1.5 1.5l-1.3 1.3c-.8.8-1.6 1.5-2.1 1.9-.5.5-.8.7-.8.7s1-1.2 2.6-2.9c.8-.9 1.7-1.9 2.6-3 1-1.1 2-2.3 2.9-3.5 1-1.2 2-2.4 2.9-3.6s1.7-2.2 2.4-3.2c1.5-1.8 2.4-3.1 2.4-3.1M48.5 142.8s.2-.5.5-1.4c.4-.8.9-2.1 1.6-3.5s1.5-3.1 2.4-4.8c1-1.7 2-3.6 3.1-5.4s2.3-3.6 3.4-5.2c.6-.8 1.1-1.6 1.7-2.3.5-.7 1.1-1.4 1.6-2 1-1.2 1.9-2.2 2.5-2.9s1-1.1 1-1.1l-.9 1.2c-.3.4-.6.8-1 1.3s-.8 1.1-1.3 1.7c-.9 1.3-2 2.8-3.1 4.4s-2.3 3.4-3.3 5.2c-1.1 1.8-2.2 3.6-3.2 5.3s-1.9 3.3-2.6 4.7c-1.5 2.9-2.4 4.8-2.4 4.8"/><path fill="#9b5c3d" d="M91.3 93.7c1.9-4.4 8.4-23.5-3.5-17.7-11.5 5.6-24.9 45-17.4 44.7s16.5-17 20.9-27"/><path fill="#75402c" d="M93.7 86.6s-.4 1.5-1.1 3.7c-.4 1.1-.8 2.4-1.4 3.7s-1.2 2.8-1.8 4.2l-2 4c-.7 1.3-1.4 2.4-2 3.4s-1.2 1.8-1.5 2.3l-.6.9s.2-.3.5-.9.8-1.4 1.3-2.4c.6-1 1.1-2.2 1.8-3.5s1.3-2.7 2-4.1 1.3-2.8 1.9-4.1 1.1-2.5 1.6-3.6c.7-2.1 1.3-3.6 1.3-3.6M92.9 75.2s-.1-.1-.4-.2-.7-.1-1.2-.1-1.2.1-1.9.4c-.4.1-.7.3-1.1.5s-.7.4-1.1.7c-.8.5-1.5 1.2-2.3 1.9-.4.4-.7.8-1.1 1.2l-.6.6c-.2.2-.3.5-.5.7-.7.9-1.4 1.8-2.1 2.9-.3.5-.7 1-1 1.5s-.6 1.1-.9 1.6c-.6 1.1-1.3 2.1-1.8 3.2s-1.1 2.2-1.6 3.2c-.5 1.1-.9 2.1-1.4 3.1-.4 1-.9 1.9-1.2 2.7-1.4 3.5-2.3 5.7-2.3 5.7s.8-2.4 2-5.9c.3-.9.7-1.8 1.1-2.8s.8-2 1.3-3.1 1-2.1 1.5-3.2 1.2-2.2 1.7-3.3c.3-.5.6-1.1.9-1.6s.7-1 1-1.5c.6-1 1.4-2 2.1-2.9.2-.2.4-.5.5-.7l.6-.6 1.2-1.2c.8-.7 1.6-1.4 2.4-1.8.4-.2.8-.5 1.2-.6s.8-.4 1.1-.4c.7-.2 1.4-.3 2-.3s1 .1 1.2.2c.6 0 .7.1.7.1"/><path fill="#66e9ed" d="M49.8 203.2c2.8-3.9 12.6-9.1 14.5-17.4 1.8-8.3-1.3-22.1-4.6-22.6-3.4-.6-3.5 4.8-3.5 4.8s-1.3-1.4-2.5-.8c-2.1 1-1.4 3.5-3.5 3.1s-3.2 2.8-3.2 4.6c0 0-3-1.3-3 1 0 0-2.8-1.3-2.8 1.5s.7 3.5-1.5 5.5-.7 3.5-.7 3.5-3.1-3.4-5.6-1.3-4.5-3.5-5.9-3.5-1.4 1.3-1.4 1.3-2.4-3.2-3.4-.3c0 0-2.1-3.2-4.4-1.3s-3.8 1.8-4.5.3-3.8-2.2-3.8-.3c0 0-.7-3.2-3.7-2s-.4 9.8 2.4 14.8c2.8 4.9 8.1 14 25 12.4 7.8-.7 13.2 9 15.6 7 2.5-2.3-2.3-6.3.5-10.3"/><path fill="#35b7db" d="M45.1 211.9s-.6-.5-1.6-1.4c-.5-.4-1.2-.9-2-1.5-.8-.5-1.7-1.1-2.7-1.5-.5-.2-1.1-.4-1.7-.5s-1.3-.1-1.9-.1H31c-2.9 0-6.1-.1-9.1-1-1.5-.4-3-1-4.3-1.8s-2.6-1.7-3.7-2.7c-2.2-2-3.8-4.2-5-6.3-1.2-2-1.9-3.9-2.3-5.2s-.6-2.1-.6-2.1.2.8.7 2c.5 1.3 1.3 3 2.5 5s2.9 4.1 5 6c1.1 1 2.3 1.8 3.6 2.6 1.3.7 2.7 1.3 4.2 1.7 3 .8 6.1 1 9 1 1.5 0 2.9 0 4.2.1.7 0 1.3.1 2 .2.6.1 1.2.4 1.8.6 1.1.5 2 1.1 2.7 1.7.8.6 1.4 1.1 1.9 1.6 1 1.1 1.5 1.6 1.5 1.6M49.6 209.6s-.3-.6-.6-1.8c-.1-.6-.2-1.3-.2-2.2 0-.8.2-1.8.9-2.7.7-.8 1.5-1.5 2.3-2.3.9-.8 1.8-1.6 2.7-2.5 1.9-1.7 3.9-3.6 5.6-5.6.9-1 1.7-2.1 2.3-3.2.3-.6.6-1.2.8-1.8l.3-.9c.1-.3.1-.6.2-.9.5-2.5.6-4.8.5-6.9 0-2-.2-3.7-.3-4.9s-.2-1.9-.2-1.9.1.7.3 1.8c.2 1.2.4 2.9.5 4.9s.1 4.4-.3 7c-.1.6-.3 1.3-.5 1.9-.2.7-.5 1.3-.8 1.9-.7 1.2-1.5 2.3-2.4 3.4-1.8 2.1-3.8 3.9-5.7 5.6-1 .9-1.9 1.6-2.8 2.4s-1.7 1.5-2.4 2.2c-.6.7-.9 1.7-1 2.5s0 1.5.1 2.1c.4 1.3.7 1.9.7 1.9M40.1 189.4s-.2-.4-.5-1.1c-.2-.3-.4-.7-.6-1-.2-.4-.5-.7-.8-1.1l-.5-.5c-.2-.1-.3-.3-.5-.4s-.3-.2-.5-.3-.3-.2-.5-.3c-.3-.2-.6-.3-.8-.3-.2-.1-.3-.1-.3-.1h.3c.2 0 .5 0 .9.1.2 0 .4.1.6.2l.6.3c.4.2.8.6 1.1.9.3.4.6.8.8 1.2s.4.8.5 1.2c.2.7.2 1.2.2 1.2M58.8 163.1s-.4.1-.8.4c-.4.4-.7 1-1 1.6-.3.7-.5 1.4-.6 1.9-.2.5-.3.9-.3.9s-.1-.3-.1-.9c0-.3 0-.6.1-1s.2-.7.3-1.1c.2-.4.3-.7.6-1 .2-.3.5-.5.8-.7s.5-.2.7-.2c.2.1.3.1.3.1M53.6 167.1s-.2.1-.4.3-.5.6-.7 1c-.1.2-.2.5-.4.8-.1.1-.1.3-.2.4s0 .3-.3.5c-.4.3-.8.3-1.2.4h-1c-.2 0-.3.1-.4.1-.1.1-.3.2-.4.3-.2.2-.4.5-.6.7-.4.5-.6 1.1-.8 1.6s-.3.9-.4 1.2-.1.5-.1.5 0-.2-.1-.5c0-.3 0-.8.1-1.3s.3-1.2.7-1.8c.2-.3.4-.6.7-.9.1-.1.3-.3.5-.4s.5-.2.6-.2h1.1c.3 0 .7 0 .8-.1 0 0 .1-.2.2-.3.1-.2.1-.3.2-.4.1-.3.3-.5.5-.7.3-.4.7-.7 1-.9.4-.3.6-.3.6-.3M42.5 175.6s-.1 0-.3.1-.5.2-.7.5-.2.7-.2 1.1c0 .5.1 1 .1 1.5s0 1.1-.1 1.5c-.1.5-.3 1-.5 1.3-.2.4-.5.5-.7.7-.2.1-.3.1-.3.1s.1-.1.3-.2c.1-.1.2-.2.2-.3.1-.1.2-.3.2-.4q.15-.45.3-1.2v-1.5c0-.5-.1-1 0-1.5 0-.5.2-1 .5-1.4.3-.3.7-.4.9-.4.2.1.3.1.3.1M33.2 185.1l-.3.3c-.2.1-.5.3-.9.4-.4 0-1-.1-1.4-.4-.2-.2-.4-.3-.6-.5s-.4-.4-.5-.6c-.7-.8-1.2-1.7-1.7-2.2-.3-.2-.6-.3-.8-.3h-.4s.1-.1.3-.1c.2-.1.6-.1 1 .1s.7.6 1 .9c.3.4.6.8 1 1.2.3.4.6.8 1 1.1.3.3.7.4 1.1.5.3 0 .7 0 .9-.1zM25.9 182.9s-.2-.1-.4-.3-.5-.4-.8-.6-.6-.3-.9-.4-.5-.1-.5-.2l.1-.1c.1 0 .2-.1.4-.1h.6c.2 0 .4.1.6.2.4.2.6.6.8.9.1.3.1.6.1.6M20.4 180.7h-.3c-.2 0-.5.1-.8.2-.2.1-.3.1-.5.2s-.3.2-.4.4c-.3.4-.7.7-1.2 1-.2.1-.5.2-.7.3s-.5.2-.8.2-.5 0-.7-.1l-.6-.3c-.3-.3-.5-.5-.6-.7s-.1-.3-.1-.3l.2.2c.1.2.4.3.7.5.2.1.3.1.5.2h.6c.2 0 .4-.1.6-.2l.6-.3c.4-.2.8-.5 1.1-.8.2-.2.4-.3.6-.4s.4-.1.6-.2c.7-.1 1.2.1 1.2.1M9.9 181.3s-.2-.3-.4-.7c-.3-.4-.7-.8-1.2-1.1-.2-.1-.5-.2-.8-.2h-.8c-.2 0-.4.1-.6.1h-.2s.1-.1.2-.1c.1-.1.3-.2.5-.3s.5-.2.9-.2c.3 0 .7 0 1.1.2.7.3 1.1 1 1.2 1.5s.1.8.1.8"/><path fill="#66e9ed" d="M140.9 149s6.5 4.9 8.1 9.3c1.5 4.4-1.3 4-1.3 4s2.8 3.3 2.1 4.5-1.5 0-.7 3.5c.9 3.5-1.3 4-2.2 3.7 0 0 .7 4.9-1.2 4.2s-1.6-5.2-4.2-6.3c.1 0 .9-17.1-.6-22.9"/><path fill="#35b7db" d="M140.9 149s.8.5 2 1.4c.6.4 1.2 1 1.9 1.6s1.3 1.3 2 2.1c.6.8 1.2 1.6 1.6 2.4.3.4.4.8.6 1.2s.2.8.4 1.1c.1.3.1.7.2 1v.8c0 .4-.1.7-.1.7s0-.2-.1-.7c0-.2 0-.5-.1-.7-.1-.3-.1-.6-.3-.9-.1-.3-.2-.7-.4-1.1s-.4-.7-.6-1.1c-.5-.8-1-1.5-1.6-2.2s-1.2-1.4-1.9-2.1c-.6-.6-1.2-1.2-1.8-1.7-1.1-1.2-1.8-1.8-1.8-1.8M147.6 162.3s.3.2.7.5.9.8 1.2 1.4c.2.3.3.6.5.9.1.3.2.6.1.9 0 .1 0 .3-.1.4 0 .1-.1.2-.1.3l-.2.2s0-.1.1-.2v-.5c-.1-.2-.2-.5-.3-.7-.1-.3-.3-.5-.5-.8-.4-.5-.7-1.1-1-1.5-.2-.6-.4-.9-.4-.9M148.9 169.1s.3.3.5.9.5 1.4.3 2.3c0 .2-.1.4-.2.7-.1.2-.2.4-.4.5-.2.2-.3.3-.5.3-.2.1-.4.1-.5.1h-.7c-.2 0-.3-.1-.3-.1s.1 0 .3-.1c.1 0 .2 0 .3-.1.1 0 .2-.1.4-.1.1 0 .3-.1.4-.2l.3-.3c.1-.1.2-.3.3-.4 0-.2.1-.3.1-.5.1-.4.1-.7.1-1.1s-.1-.7-.1-1c-.3-.5-.3-.9-.3-.9M141.6 171.9h.2q.3 0 .6.3c.2.2.5.4.7.6l.6.9c.3.6.5 1.3.6 1.8s.1.9.1.9-.2-.3-.4-.7c-.3-.4-.5-1.1-.9-1.6q-.45-.9-.9-1.5l-.4-.4c-.1-.3-.2-.3-.2-.3"/><path fill="#0dd7de" d="M132.9 121.1s10.5 14.8 11 44.4c.3 20.7-5.8 59-20.1 69.8-17.9 13.4-53.3 16.2-71.7-9.8-5.7-8.1-7.8-24-7.8-24s5.6 13.7 16.5 19.5c9.6 5.2 37 7.2 31.4-16.2s-19.4-58.7-3.9-80.8c0 0 16.6 11.9 26.4 13.3-.1.1 14.6-8.4 18.2-16.2"/><path fill="#35b7db" d="M138 210.1s-.5 1.6-1.4 4.4c-1 2.8-2.4 6.8-4.8 11.3-1.2 2.2-2.6 4.6-4.6 6.8-2.1 2.1-4.5 4-7.3 5.6-2.7 1.6-5.8 3-8.9 4.1-3.2 1.1-6.5 1.8-9.9 2.3s-6.8.8-10.1.8c-3.3.1-6.7-.1-9.8-.7-6.3-1.2-11.8-3.7-16.1-6.5s-7.3-5.8-9.3-8-2.9-3.6-2.9-3.6 1 1.4 3 3.6c2 2.1 5.2 5 9.5 7.7 2.1 1.3 4.6 2.6 7.3 3.7s5.6 1.9 8.7 2.5 6.4.8 9.7.7 6.7-.4 10-.9 6.6-1.2 9.8-2.3c3.1-1 6.1-2.4 8.8-4s5.2-3.5 7.2-5.5c2-2.1 3.4-4.5 4.6-6.7s2.2-4.3 3-6.2 1.5-3.6 2-4.9c1-2.6 1.5-4.2 1.5-4.2M133.7 122.3s.7 1 1.7 3c.5 1 1.1 2.2 1.7 3.6s1.3 3 1.9 4.8c.3.9.6 1.8.9 2.8l.9 3q.9 3.15 1.5 6.6c.2 1.2.4 2.3.6 3.5s.4 2.4.5 3.6c.2 1.2.3 2.5.4 3.7s.2 2.5.3 3.8c.1 2.5.1 5 .1 7.5 0 1.2-.1 2.5-.1 3.7-.1 1.2-.1 2.4-.2 3.6s-.2 2.3-.3 3.5l-.3 3.3c-.3 2.1-.5 4.2-.8 6-.5 3.7-1.2 6.8-1.6 9s-.7 3.4-.7 3.4.3-1.2.6-3.4c.4-2.2.9-5.3 1.4-9 .2-1.9.5-3.9.7-6s.4-4.4.5-6.8c.1-1.2.1-2.4.2-3.6 0-1.2.1-2.4.1-3.7 0-2.5 0-5-.1-7.5 0-1.2-.2-2.5-.2-3.8-.1-1.3-.2-2.5-.4-3.7-.1-1.2-.3-2.4-.5-3.6s-.4-2.4-.6-3.5c-.4-2.3-.9-4.5-1.4-6.6-.3-1-.5-2.1-.8-3-.3-1-.6-1.9-.9-2.8-.6-1.8-1.2-3.4-1.7-4.8-.6-1.4-1.1-2.6-1.6-3.6-1.1-1.9-1.8-3-1.8-3M87.4 125.5s-.1.1-.3.4-.5.7-.8 1.3c-.6 1.1-1.4 2.8-2.1 4.9-1.5 4.1-2.6 9.9-2.8 15.8-.1 2.9-.1 5.9.1 8.6s.5 5.3.8 7.5.6 4 .9 5.3.4 2 .4 2-.2-.7-.5-2-.8-3-1.2-5.2-.8-4.7-1-7.5-.3-5.7-.2-8.7.5-5.9 1-8.6 1.3-5.2 2.1-7.3 1.7-3.7 2.3-4.8c.3-.6.6-1 .8-1.2z"/><path fill="#35b7db" d="M88 189.4s.2.8.6 2.2 1.1 3.3 1.8 5.7 1.5 5.2 2 8.3c.3 1.5.5 3.1.5 4.8 0 1.6 0 3.3-.5 5-.2.8-.6 1.6-1.1 2.3-.4.7-.9 1.4-1.5 2-1.1 1.3-2.4 2.3-3.8 3s-2.9 1.2-4.3 1.4c-1.4.3-2.8.4-4 .4-2.5.1-4.6-.2-6-.3-1.4-.2-2.3-.3-2.3-.3s.8.1 2.3.2c1.4.1 3.5.2 6 .1 1.2-.1 2.6-.2 3.9-.5 1.4-.3 2.8-.7 4.1-1.4s2.6-1.7 3.6-2.9 1.9-2.6 2.4-4.1.6-3.2.5-4.8c0-1.6-.2-3.2-.5-4.7-.5-3-1.2-5.9-1.8-8.2-.6-2.4-1.2-4.4-1.5-5.8-.2-1.6-.4-2.4-.4-2.4"/><path fill="#66e9ed" d="M114.6 137.4c.2-2.8-5.2-4-8.7-5.1s-11.3-4.5-14.8-8.4c-2.1-2.3-1.7-3.6-1.7-3.6s-7.5 3.6-8.2 7.6 2.1 1.1 2.7 2.9.7 8.5 4.5 7.2c0 0-1.1 3.7 1.6 3.5s5.8-.7 6 2.4 4.2 1.3 5.1-.5c0 0 .9 3.3 4.2.2 0 0 .7 3.8 2.5 1.8s1.8-6 3.6-3.6 2.9-1.3 3.2-4.4"/><path fill="#35b7db" d="M89.4 120.3s-.7.4-1.7 1.1c-.5.3-1.1.7-1.7 1.2-.3.2-.6.5-.9.7-.3.3-.6.5-.9.8s-.6.5-.9.8-.5.6-.8.9l-.6.9c-.2.3-.3.6-.4.8-.1.3-.2.5-.2.8-.1.2-.1.4-.1.6v.6s0-.2-.1-.6c0-.2-.1-.4 0-.7 0-.2 0-.6.1-.8.1-.3.2-.6.4-1 .2-.3.3-.7.6-1 .4-.7 1-1.3 1.6-1.8.3-.3.6-.5 1-.8.3-.2.7-.5 1-.7.7-.4 1.3-.8 1.8-1 1-.6 1.8-.8 1.8-.8M83.8 130.8s.1.6.3 1.5.5 2.1.9 3.3c.2.6.4 1.1.7 1.6s.7.8 1.1.9c.2.1.4.1.6.1h.5c.3-.1.4-.1.4-.1s-.1.1-.4.2c-.1 0-.3.1-.5.2-.2 0-.4.1-.7 0-.5-.1-1.1-.5-1.4-.9-.4-.5-.7-1.1-.9-1.7-.4-1.2-.6-2.5-.6-3.4zM89.9 141.6s.6-.2 1.7-.4c.5-.1 1.1-.1 1.8-.1.6.1 1.4.2 2 .8.3.3.5.7.5 1.1 0 .3.1.6.1.9.1.6.3 1.1.6 1.4s.8.3 1.1.3h.5l-.4.2c-.3.1-.8.2-1.3-.1s-.8-1-1-1.6c-.1-.3-.2-.7-.2-1s-.1-.5-.3-.7c-.4-.4-1-.6-1.6-.7s-1.2-.1-1.7-.1c-1.1-.1-1.8 0-1.8 0M101 143.4s0 .1.1.2.2.3.4.4c.1.1.2.2.3.2.1.1.2.1.3.2.1 0 .2.1.4.1h.4c.1 0 .3-.1.4-.1s.3-.1.4-.1c.3-.1.5-.2.7-.3.4-.2.8-.3.8-.3s-.2.3-.6.6c-.2.2-.4.4-.7.5-.1.1-.3.2-.5.2s-.3.1-.5.1h-.6c-.2 0-.4-.1-.5-.2-.3-.2-.5-.4-.7-.7-.1-.5-.1-.8-.1-.8M107.8 145.4s.2-.4.5-.9.6-1.3.9-2c.1-.2.1-.4.2-.6s.1-.4.2-.6.2-.5.5-.6.5 0 .7.1c.3.2.4.4.5.6s.1.3.1.3l-.2-.2c-.1-.1-.4-.2-.6-.3h-.3s-.1.1-.1.3-.1.4-.1.6c-.1.2-.1.4-.2.6-.3.8-.8 1.5-1.2 2-.6.5-.9.7-.9.7M114.5 136.9s0-.1-.1-.3-.2-.5-.5-.8-.6-.6-1.1-.8-1.1-.4-1.7-.7c-1.3-.4-2.8-.9-4.4-1.5s-3.4-1.2-5-1.9c-1.7-.7-3.4-1.5-4.9-2.3q-2.25-1.35-3.9-2.7c-1-.9-1.8-1.8-2.3-2.4-.2-.3-.4-.6-.5-.8s-.2-.3-.2-.3.1.1.2.3.3.4.6.7.6.7 1 1c.4.4.9.8 1.4 1.2 2.1 1.7 5.4 3.4 8.7 4.7 1.7.7 3.4 1.3 5 1.9s3.1 1.1 4.4 1.6c.6.2 1.2.5 1.7.8s.9.7 1.1 1 .3.7.4.9c.1.3.1.4.1.4"/><path fill="#66e9ed" d="M114.5 137.6c-.3-2.8 3.6-4.2 6.1-5.5s8.1-4.9 10.5-9c1.4-2.4 1.1-3.7 1.1-3.7s5.7 3.3 6.5 7.3-1.5 1.2-1.8 3 0 8.5-2.9 7.4c0 0 1 3.6-1 3.5s-4.3-.5-4.3 2.6-3 1.5-3.8-.3c0 0-.5 3.3-3.1.4 0 0-.3 3.8-1.8 1.9s-1.7-5.9-2.9-3.5c-1.2 2.6-2.2-1-2.6-4.1"/><path fill="#35b7db" d="M132.1 119.4s.7.2 1.6.8c.9.5 2.1 1.4 3.1 2.5.5.5.9 1.2 1.2 1.8.1.3.3.6.4.9s.2.6.2.9.1.5.1.8v.6c0 .3-.1.5-.1.5s0-.2-.1-.5c0-.2 0-.3-.1-.5s-.1-.4-.2-.7c-.1-.2-.2-.5-.3-.8s-.3-.5-.4-.8c-.4-.5-.8-1.1-1.2-1.6l-1.5-1.5c-.5-.4-1-.8-1.4-1.2-.7-.8-1.3-1.2-1.3-1.2M136.8 129.7s.1.6.2 1.4c.1.9 0 2-.2 3.2-.1.6-.2 1.2-.5 1.7-.2.5-.5 1-.9 1.3-.2.1-.5.2-.6.2-.2 0-.4-.1-.5-.1s-.2-.1-.3-.2c-.1 0-.1-.1-.1-.1s.1.1.4.1c.2.1.6 0 .9-.2.6-.5.8-1.7 1-2.8s.3-2.2.4-3.1c.2-.8.2-1.4.2-1.4M133 140.7h-1.4c-.4 0-.9.1-1.3.3s-.8.5-1 .9c-.1.2-.1.5-.1.7 0 .3-.1.6-.1.8-.1.5-.2 1.1-.6 1.4q-.3.3-.6.3h-.5c-.2-.1-.4-.1-.4-.1h.4c.2 0 .6-.1.8-.4s.3-.8.3-1.3v-.8c0-.3 0-.6.1-.9s.3-.6.6-.8.5-.3.8-.4c.6-.2 1.1-.1 1.5-.1 1 .2 1.5.4 1.5.4M124.9 143s.1.3 0 .7c0 .2-.1.5-.4.7-.1.1-.3.2-.4.3-.2 0-.4.1-.5.1-.2 0-.3-.1-.5-.1s-.3-.1-.4-.2c-.2-.1-.4-.3-.5-.5-.3-.3-.4-.6-.4-.6s.3.1.6.3l.6.3c.2.1.4.2.6.2h.3c.1 0 .2-.1.2-.1.2-.1.3-.3.4-.4.3-.4.4-.7.4-.7M120 145.3s-.3-.2-.7-.7-.8-1.1-1-1.9c-.1-.4-.2-.7-.3-1.1 0-.2-.1-.3-.1-.4 0 0 0-.1-.1 0-.2.1-.4.3-.5.4l-.2.2s0-.1.1-.3.1-.4.4-.6c.1-.1.2-.1.3-.1.2 0 .3.1.4.2.2.2.2.4.3.6.1.3.2.7.3 1 .2.7.5 1.4.7 1.9.3.5.4.8.4.8M114.7 136.4s0-.4.3-1c.2-.3.4-.6.8-.9s.8-.5 1.3-.8c.9-.6 2.1-1.1 3.2-1.8 1.2-.7 2.4-1.4 3.6-2.2 2.4-1.6 4.6-3.4 5.9-5.1l.9-1.2c.2-.4.4-.7.6-1 .3-.5.5-.9.5-.9s-.1.3-.4.9-.7 1.4-1.3 2.3-1.5 1.9-2.5 2.8-2.2 1.8-3.4 2.6-2.5 1.5-3.7 2.2c-1.2.6-2.3 1.2-3.3 1.7-.5.2-.9.5-1.3.7s-.6.5-.8.7c-.3.7-.4 1-.4 1"/><path fill="#66e9ed" d="M84.3 153.5s-6 5.5-7.1 10.1 1.7 3.9 1.7 3.9-2.5 3.6-1.7 4.7 1.5-.1 1 3.4 1.7 3.9 2.5 3.4c0 0-.2 4.9 1.7 4.1s1-5.4 3.5-6.7c0-.1-2.5-17-1.6-22.9"/><path fill="#35b7db" d="M84.3 153.5s-.7.7-1.6 1.8c-.5.5-1 1.2-1.6 1.9s-1.1 1.5-1.6 2.3-1 1.6-1.4 2.4c-.2.4-.3.8-.5 1.2s-.2.8-.3 1.1-.1.7-.2 1 0 .5 0 .7v.7s-.1-.2-.1-.7c0-.2-.1-.5-.1-.8v-1c.1-.4.1-.8.2-1.2s.2-.8.4-1.3c.4-.8.8-1.7 1.4-2.5.5-.8 1.2-1.6 1.7-2.3.6-.7 1.2-1.3 1.7-1.8 1.2-1 2-1.5 2-1.5M78.9 167.4s-.1.3-.3.8l-.8 1.6c-.1.3-.3.6-.4.8-.1.3-.2.5-.2.7v.5c0 .1.1.2.1.2s-.1 0-.2-.2l-.2-.2c-.1-.1-.1-.2-.1-.4-.1-.3 0-.6 0-.9.1-.3.2-.6.4-1 .3-.6.7-1.1 1.1-1.5zM78.4 174.3v2c0 .4 0 .7.2 1.1 0 .2.1.3.2.5.1.1.2.3.3.4s.2.2.4.3c.1.1.3.1.4.2.1 0 .3.1.4.1h.6s-.1 0-.3.1c-.1 0-.2 0-.3.1h-.4c-.2 0-.3 0-.5-.1-.2 0-.4-.2-.6-.3s-.3-.3-.5-.5l-.3-.6c-.2-.9-.1-1.7.1-2.3.1-.6.3-1 .3-1M85.9 176.3s-.1 0-.2.2c-.1.1-.2.3-.4.5-.3.4-.5 1-.8 1.6s-.5 1.2-.7 1.7-.4.8-.4.8v-.9c.1-.5.2-1.2.5-1.9.1-.3.3-.6.5-.9s.4-.5.6-.7q.3-.3.6-.3c.2-.1.3-.1.3-.1"/><g fill="#66e9ed"><path d="M89.6 177.3s.1.6.4 1.5c.1.4.3.9.6 1.4s.6.9 1.1 1c.2.1.5 0 .7-.1.3-.1.5-.2.7-.4.5-.3.9-.7 1.2-1l.8-.8.3-.3s-.3.6-.9 1.3q-.45.6-1.2 1.2c-.3.2-.5.4-.9.5-.3.1-.7.2-1.1.1q-.6-.15-.9-.6c-.2-.3-.4-.6-.5-.8-.3-.6-.4-1.1-.4-1.6 0-.7.1-1.4.1-1.4M95.4 179s.1.6.4 1.5c.1.4.3.9.6 1.4s.6.9 1.1 1c.2.1.5 0 .7-.1.3-.1.5-.2.7-.4.5-.3.9-.7 1.2-1l.8-.8.3-.3s-.3.6-.9 1.3q-.45.6-1.2 1.2c-.3.2-.5.4-.9.5-.3.1-.7.2-1.1.1q-.6-.15-.9-.6c-.2-.3-.4-.6-.5-.8-.3-.6-.4-1.1-.4-1.6.1-.7.1-1.4.1-1.4M97.5 183.6s.1.6.4 1.5c.1.4.3.9.6 1.4s.6.9 1.1 1c.2.1.5 0 .7-.1.3-.1.5-.2.7-.4.5-.3.9-.7 1.2-1l.8-.8.3-.3s-.3.6-.9 1.3q-.45.6-1.2 1.2c-.3.2-.5.4-.9.5-.3.1-.7.2-1.1.1q-.6-.15-.9-.6c-.2-.3-.4-.6-.5-.8-.3-.6-.4-1.1-.4-1.6 0-.8.1-1.4.1-1.4M91.6 182.2s.1.6.4 1.5c.1.4.3.9.6 1.4s.6.9 1.1 1c.2.1.5 0 .7-.1.3-.1.5-.2.7-.4.5-.3.9-.7 1.2-1l.8-.8.3-.3s-.3.6-.9 1.3q-.45.6-1.2 1.2c-.3.2-.5.4-.9.5-.3.1-.7.2-1.1.1q-.6-.15-.9-.6c-.2-.3-.4-.6-.5-.8-.3-.6-.4-1.1-.4-1.6 0-.7.1-1.4.1-1.4M136.7 166.1s-.1.6-.5 1.4c-.2.4-.5.9-.8 1.3-.4.4-.9.9-1.7 1-.4 0-.7-.1-1-.3s-.5-.4-.7-.6c-.4-.5-.6-1-.8-1.4-.3-.9-.4-1.4-.4-1.4s.1.1.2.4c.1.2.3.5.5.9q.3.6.9 1.2c.3.4.8.7 1.2.7.5 0 .9-.4 1.3-.7.4-.4.7-.8.9-1.1.6-.9.9-1.4.9-1.4"/><path d="M133.6 162.8s-.1.6-.5 1.4c-.2.4-.5.9-.8 1.3-.4.4-.9.9-1.7 1-.4 0-.7-.1-1-.3s-.5-.4-.7-.6c-.4-.5-.6-1-.8-1.4-.3-.9-.4-1.4-.4-1.4s.1.1.2.4c.1.2.3.5.5.9q.3.6.9 1.2c.3.4.8.7 1.2.7.5 0 .9-.4 1.3-.7.4-.4.7-.8.9-1.1.6-.8.9-1.4.9-1.4M127.6 170s-.1.6-.5 1.4c-.2.4-.5.9-.8 1.3-.4.4-.9.9-1.7 1-.4 0-.7-.1-1-.3s-.5-.4-.7-.6c-.4-.5-.6-1-.8-1.4-.3-.9-.4-1.4-.4-1.4s.1.1.2.4c.1.2.3.5.5.9q.3.6.9 1.2c.3.4.8.7 1.2.7.5 0 .9-.4 1.3-.7.4-.4.7-.8.9-1.1.6-.9.9-1.4.9-1.4"/><path d="M130.7 166.5s-.1.6-.5 1.4c-.2.4-.5.9-.8 1.3-.4.4-.9.9-1.7 1-.4 0-.7-.1-1-.3s-.5-.4-.7-.6c-.4-.5-.6-1-.8-1.4-.3-.9-.4-1.4-.4-1.4s.1.1.2.4c.1.2.3.5.5.9q.3.6.9 1.2c.3.4.8.7 1.2.7.5 0 .9-.4 1.3-.7.4-.4.7-.8.9-1.1.6-.9.9-1.4.9-1.4M96 153.4s0 .2.1.4c0 .3.1.6.2 1.1.1.4.2.9.5 1.4.2.5.6.9 1.1.9.5.1 1-.2 1.5-.4.5-.3.9-.6 1.3-.8.7-.6 1.2-.9 1.2-.9s-.3.5-1 1.2c-.3.3-.7.7-1.2 1s-1.1.6-1.9.6c-.4-.1-.7-.2-1-.5-.3-.2-.4-.5-.5-.8-.2-.6-.3-1.1-.3-1.6-.1-1 0-1.6 0-1.6"/><path d="M94.5 149.1s0 .2.1.4c0 .3.1.6.2 1.1.1.4.2.9.5 1.4.2.5.6.9 1.1.9.5.1 1-.2 1.5-.4.5-.3.9-.6 1.3-.8.7-.6 1.2-.9 1.2-.9s-.3.5-1 1.2c-.3.3-.7.7-1.2 1s-1.1.6-1.9.6c-.4-.1-.7-.2-1-.5-.3-.2-.4-.5-.5-.8-.2-.6-.3-1.1-.3-1.6-.1-1 0-1.6 0-1.6M124.3 206.5s-.1.6-.5 1.4c-.2.4-.5.9-.8 1.3-.4.4-.9.9-1.7 1-.4 0-.7-.1-1-.3s-.5-.4-.7-.6c-.4-.5-.6-.9-.8-1.4-.3-.8-.5-1.4-.5-1.4s.1.1.2.4q.15.3.6.9.3.6.9 1.2c.4.4.8.7 1.3.6.5 0 .9-.3 1.3-.7s.7-.8.9-1.1c.5-.7.8-1.3.8-1.3"/><path d="M120.5 203.2s-.1.6-.5 1.4c-.2.4-.5.9-.8 1.3-.4.4-.9.9-1.7 1-.4 0-.7-.1-1-.3s-.5-.4-.7-.6c-.4-.5-.6-.9-.8-1.4-.3-.8-.5-1.4-.5-1.4s.1.1.2.4q.15.3.6.9.3.6.9 1.2c.4.4.8.7 1.3.6.5 0 .9-.3 1.3-.7s.7-.8.9-1.1c.5-.8.8-1.3.8-1.3"/><path d="M117 199.7s-.1.6-.5 1.4c-.2.4-.5.9-.8 1.3-.4.4-.9.9-1.7 1-.4 0-.7-.1-1-.3s-.5-.4-.7-.6c-.4-.5-.6-.9-.8-1.4-.3-.8-.5-1.4-.5-1.4s.1.1.2.4q.15.3.6.9.3.6.9 1.2c.4.4.8.7 1.3.6.5 0 .9-.3 1.3-.7s.7-.8.9-1.1c.5-.8.8-1.3.8-1.3"/><path d="M120.5 196.4s-.1.6-.5 1.4c-.2.4-.5.9-.8 1.3-.4.4-.9.9-1.7 1-.4 0-.7-.1-1-.3s-.5-.4-.7-.6c-.4-.5-.6-.9-.8-1.4-.3-.8-.5-1.4-.5-1.4s.1.1.2.4q.15.3.6.9.3.6.9 1.2c.4.4.8.7 1.3.6.5 0 .9-.3 1.3-.7s.7-.8.9-1.1c.5-.8.8-1.3.8-1.3M91.9 234.5s-.7.2-1.7.3q-.75.15-1.8 0c-.7 0-1.4-.1-2.1-.5-.3-.2-.7-.6-.7-1.1 0-.4.2-.8.3-1.1.2-.3.4-.5.6-.8l.6-.6c.8-.6 1.4-1 1.4-1l-.3.3-.9.9c-.3.4-.7.8-1 1.3-.2.3-.2.5-.2.8 0 .2.2.4.4.6.5.3 1.2.4 1.8.5s1.2.1 1.7.2c1.2.2 1.9.2 1.9.2"/><path d="M85.9 232.8s-.7.2-1.7.3q-.75.15-1.8 0c-.7 0-1.4-.1-2.1-.5-.3-.2-.7-.6-.7-1.1 0-.4.2-.8.3-1.1.2-.3.4-.5.6-.8l.6-.6c.8-.6 1.4-1 1.4-1l-.3.3-.9.9c-.3.4-.7.8-1 1.3-.2.3-.2.5-.2.8 0 .2.2.4.4.6.5.3 1.2.4 1.8.5s1.2.1 1.7.2c1.2.1 1.9.2 1.9.2M59.6 227.7s-.4-.2-1-.6c-.3-.2-.7-.4-1-.5-.4-.2-.8-.4-1.2-.4-.2 0-.3 0-.4.1s-.2.2-.2.4c-.1.4 0 .8 0 1.1s0 .6.1.8v.3s-.2-.4-.5-1.1c-.1-.2-.1-.4-.1-.6s-.1-.4 0-.7c0-.2.1-.5.3-.8q.45-.3.9-.3c.6.1 1 .3 1.4.5s.7.5 1 .7c.5.7.7 1.1.7 1.1"/><path d="M59.6 224.7s-.4-.2-1-.6c-.3-.2-.7-.4-1-.5-.4-.2-.8-.4-1.2-.4-.2 0-.3 0-.4.1s-.2.2-.2.4c-.1.4 0 .8 0 1.1s0 .6.1.8v.3s-.2-.4-.5-1.1c-.1-.2-.1-.4-.1-.6s-.1-.4 0-.7c0-.2.1-.5.3-.8q.45-.3.9-.3c.6.1 1 .3 1.4.5s.7.5 1 .7c.5.7.7 1.1.7 1.1M56 222.3s-.4-.2-1-.6c-.3-.2-.7-.4-1-.5-.4-.2-.8-.4-1.2-.4-.2 0-.3 0-.4.1s-.2.2-.2.4c-.1.4 0 .8 0 1.1s0 .6.1.8v.3s-.2-.4-.5-1.1c-.1-.2-.1-.4-.1-.6s-.1-.4 0-.7c0-.2.1-.5.3-.8q.45-.3.9-.3c.6.1 1 .3 1.4.5s.7.5 1 .7c.5.8.7 1.1.7 1.1M108.4 169.6s-.1.7-.5 1.6q-.3.75-.9 1.5c-.2.3-.4.5-.8.7-.3.2-.7.4-1.1.4s-.8-.2-1.1-.4-.5-.5-.7-.8c-.4-.6-.6-1.1-.8-1.6-.3-1-.4-1.6-.4-1.6l.2.4c.1.3.3.6.5 1.1.1.2.2.5.4.7.1.2.3.5.5.7.4.5.8.9 1.3.9s1-.4 1.4-.8.7-.9 1-1.3c.7-.9 1-1.5 1-1.5M128 225.2s-.3.6-1 1.4c-.3.4-.8.9-1.3 1.3l-.9.6c-.3.1-.8.3-1.2.2-.5-.1-.8-.5-1-.8s-.3-.7-.4-1c-.1-.7-.1-1.3-.1-1.8.1-1 .2-1.7.2-1.7s.1.7.2 1.7c0 .3.1.5.1.8s.1.6.2.9.2.6.3.8c.1.3.3.4.6.5.5.1 1.1-.2 1.6-.6s1-.7 1.3-1.1c.9-.7 1.4-1.2 1.4-1.2M70.9 225.3s-.5 0-1.3.1c-.4 0-.8.1-1.3.2-.4.1-1 .3-1.1.5s.1.7.4 1.1.6.7.8 1c.3.3.5.5.6.7.2.2.2.3.2.3s-.5-.2-1.1-.7c-.3-.2-.7-.5-1-.9-.2-.2-.3-.4-.5-.7-.1-.3-.2-.7 0-1s.5-.5.8-.6.5-.1.8-.2c.5-.1 1 0 1.4 0 .8 0 1.3.2 1.3.2"/></g><g fill="#3a2922"><path d="M130.1 62.1c1-.3 2.1.6 2.6 2.2.5 1.5.3 3.1-.5 3.4s-2-.6-2.7-2.2c-.6-1.6-.4-3.1.6-3.4"/><path d="M128.9 57.7c1.1-.2 2.1.8 2.5 2.3s.1 3-.8 3.4c-.9.3-2.2-.6-2.8-2.3-.6-1.6 0-3.2 1.1-3.4"/><path d="M128.9 52.9c.3.1.5.2.7.4.1.1.2.2.3.4.1.1.2.2.2.3.3.5.5 1 .5 1.7.1 1.3-.5 2.8-1.5 3.1s-2.3-.9-2.5-2.8c-.1-1 .2-1.9.7-2.5.1-.1.2-.3.4-.4.1-.1.3-.1.4-.2.2 0 .5-.1.8 0"/><path d="M129.5 48.4c1.2.1 2.1 1.6 1.7 3.3-.1.9-.6 1.6-1.1 2-.4.3-1 .6-1.6.5-.6 0-1-.4-1.3-1.2-.3-.6-.3-1.3-.2-2.1.3-1.4 1.3-2.6 2.5-2.5M135.6 79.9c.4 0 .7 1.4 0 3s-1.8 2.5-1.7 2.5c0 0 .2-.3.5-.7q.15-.3.3-.9c.1-.3.2-.7.3-1.1.1-1.5.2-2.8.6-2.8"/><path d="M134.9 75.4c.6-.2 1.3 1.1 1.3 2.8.1 1.7-.5 3.1-.7 3.1-.1 0-.3-.4-.4-.9s-.3-1.2-.5-2c-.3-1.5-.3-2.8.3-3"/><path d="M133.4 70.8c.7-.3 1.7.8 2.1 2.5s.2 3.1-.3 3.2-1.3-1.1-1.9-2.5c-.6-1.5-.6-2.9.1-3.2"/><path d="M131.8 66.6c.8-.3 1.9.7 2.4 2.3s.3 3.1-.3 3.3-1.7-.8-2.4-2.3c-.6-1.5-.5-3 .3-3.3M123.8 26.5c.4-.3 1-.2 1.6.1s1.1.9 1.5 1.6c.8 1.5.6 3.1-.5 3.5-1 .4-2.3-.4-3-1.9-.3-.7-.4-1.5-.4-2.1.2-.4.4-.9.8-1.2"/><path d="M120.7 23.2c.3-.4.8-.5 1.4-.4.3.1.7.2 1.1.4.3.2.7.5 1 .8.3.4.6.7.7 1.1s.2.8.2 1.1c0 .7-.3 1.2-.7 1.4-.5.3-1 .1-1.5-.1-.3-.1-.5-.3-.7-.5s-.5-.4-.7-.7c-.7-1-1.3-2.3-.8-3.1"/><path d="M116.3 21.3c.1-.3.5-.5 1.1-.5.6-.1 1.5 0 2.3.3.9.3 1.5.9 1.8 1.4q.45.9 0 1.5c-.3.3-.8.5-1.3.4-.6-.1-1.1-.3-1.8-.7-1.1-1-2.2-1.9-2.1-2.4"/><path d="M111.8 20.6s.3 0 .9-.2c.6-.1 1.3-.3 2.2-.3s1.6.2 2.1.5.7.7.6 1c-.3.7-1.5.6-3 0-.7-.3-1.4-.6-2-.8zM129.6 44.2c.6 0 1.2.3 1.6.8.4.6.7 1.4.6 2.2-.1 1.8-1.3 3.1-2.5 2.9s-2-1.6-1.9-3.1c0-.8.3-1.4.6-2 .5-.4 1-.8 1.6-.8"/><path d="M129 39.7c1.2-.3 2.5.9 2.7 2.7s-.8 3.2-2 3.2-2.2-1.2-2.4-2.7.5-2.9 1.7-3.2"/><path d="M127.7 35.1c1.1-.4 2.5.6 3 2.3s-.2 3.3-1.5 3.5c-1.2.2-2.4-.9-2.7-2.3-.4-1.6.1-3.2 1.2-3.5"/><path d="M126 30.8c1-.5 2.4.4 3.1 2s.2 3.2-.9 3.6c-1.2.3-2.4-.6-2.9-2.1-.6-1.5-.3-3 .7-3.5"/></g><path fill="#0dd7de" d="M131.9 67.2c.7-.2.9-.6 1-.9.1.1.1.2.2.3.2.6.2 1.1-.7 1.4-.6.2-1.3.3-1.4-.2-.1-.2-.1-.4-.1-.6.2.1.6.2 1 0"/><path fill="#9b5c3d" d="M116.8 16.4c13.5 3.3 12.3 24 12.3 24s4 7.1-1.3 15.5c-6.5 10.2-24.4 8.6-31-.7-4.4-6.1-10.8-21.9-3.2-33.1 4.4-6.5 14.1-7.9 23.2-5.7"/><path fill="#75402c" d="M123.1 60.4s-.3.2-.7.5c-.5.3-1.2.6-2.1 1-.4.2-.9.4-1.5.5-.5.2-1.1.3-1.7.5-.6.1-1.2.3-1.8.3-.6.1-1.3.2-1.9.2h-1.9c-.6 0-1.2-.1-1.8-.2s-1.2-.2-1.7-.4c-.5-.1-1-.3-1.5-.5-.4-.2-.9-.3-1.2-.5s-.6-.3-.9-.5c-.5-.3-.8-.4-.8-.4s.3.1.8.3c.3.1.6.2.9.4.4.1.8.2 1.2.4.4.1.9.3 1.5.4.5.1 1.1.2 1.7.3s1.2.2 1.8.2h1.9c.6 0 1.2-.1 1.9-.1.6 0 1.2-.2 1.8-.3s1.1-.2 1.7-.4c.5-.1 1-.3 1.5-.4 1.7-.8 2.8-1.3 2.8-1.3M129.1 40.4s.6.9 1 2.4c.2.7.4 1.6.5 2.6.1.5.1 1 .1 1.5s0 1-.1 1.5-.2 1-.2 1.5l-.3 1.5c-.1.5-.3.9-.5 1.3-.1.4-.3.8-.5 1.1-.3.7-.7 1.2-.9 1.6s-.4.6-.4.6.1-.2.3-.7c.2-.4.4-1 .6-1.7.1-.4.3-.7.4-1.2.1-.4.2-.9.4-1.3.1-.5.2-.9.3-1.4s.1-1 .2-1.5c0-.5.1-1 .1-1.5v-1.4c0-.9-.1-1.8-.3-2.5-.1-.7-.3-1.4-.4-1.8z"/><g fill="#542e20"><path d="M121.6 44.4h.3c.2 0 .5.1.8.3s.7.4.9.8c.1.2.3.4.4.6.1.1.1.2.2.3l.1.2.1.2c.1.2.1.5.1.7 0 .3 0 .5-.1.7-.2.4-.4.8-.6 1-.5.5-.9.7-.9.7s.3-.3.7-.9c.2-.3.3-.6.4-1 0-.2.1-.4 0-.6 0-.1 0-.2-.1-.3 0-.1 0-.2-.1-.3l-.1-.2-.1-.1c-.1-.1-.1-.2-.2-.3-.1-.2-.2-.3-.3-.5-.2-.3-.5-.6-.7-.8s-.4-.4-.6-.5c-.1.1-.2 0-.2 0M119.6 49s-.1.1-.1.3c-.1.2-.2.3-.3.4s-.3.2-.5.3-.3.1-.3.1v-.3q0-.3.3-.6t.6-.3c.2 0 .3.1.3.1"/></g><path fill="#30231d" d="M113.4 36.6s-.5-.1-1.3-.2c-.4 0-.8-.1-1.2-.1s-.9 0-1.3.1-.9.3-1.3.4c-.2.1-.4.2-.5.3-.2.1-.3.2-.5.3-.1.1-.3.2-.4.3l-.3.3c-.2.1-.3.2-.3.2s0-.1.1-.3.2-.5.4-.9c.1-.2.2-.4.4-.5.2-.2.3-.4.6-.5.2-.1.4-.3.7-.4s.5-.2.8-.3c.6-.1 1.1-.1 1.6 0s1 .2 1.3.4c.9.4 1.2.9 1.2.9M126.1 34.4s-.5-.2-1.1-.3c-.3-.1-.7-.2-1.1-.2s-.8-.1-1.2 0c-.4 0-.7.2-1.1.3-.2.1-.3.2-.5.3s-.3.2-.4.3c-.3.2-.5.4-.7.5s-.3.2-.3.2 0-.1.1-.3.2-.5.4-.8c.1-.2.2-.3.4-.5.2-.1.3-.3.5-.5.2-.1.4-.3.7-.4.2-.1.5-.2.8-.2h.8c.3 0 .5.1.7.1.5.1.9.4 1.1.6.7.4.9.9.9.9"/><g fill="#30231d"><ellipse cx="3.901" cy="4" rx="1" ry="2.5" transform="rotate(-8.192 315.726 -724.55)"/><path d="M113.5 39.2s-.1 0-.3-.1-.4-.2-.7-.3c-.2 0-.3-.1-.5-.1s-.4 0-.6-.1c-.4 0-.8 0-1.2.1-.2.1-.4.1-.6.2s-.3.2-.5.3c-.1.1-.3.2-.4.3l-.4.4c-.2.2-.4.4-.5.6l-.2.2s0-.1.1-.3.2-.5.4-.8c.1-.1.2-.3.3-.5s.3-.3.4-.5c.2-.2.4-.3.6-.4s.4-.2.7-.3c.2-.1.5-.1.7-.1h.7c.4.1.8.2 1.1.4.7.6.9 1 .9 1"/><path d="M107.5 39.1s.3.1.5.2c.3.1.5 0 .5 0l-.2.7s-.1 0-.2-.1l-.3-.3c-.2-.3-.3-.5-.3-.5"/></g><g fill="#30231d"><ellipse cx="3.501" cy="3.901" rx="1" ry="2.5" transform="rotate(-8.192 307.863 -816.412)"/><path d="M125.9 36.9s-.4-.2-.9-.3c-.6-.2-1.3-.3-2-.1-.3.1-.6.2-.9.4-.1.1-.3.2-.4.3l-.3.3-.5.5-.2.2s0-.1.1-.3.1-.4.3-.7c.1-.3.4-.6.7-.9.2-.1.3-.3.5-.4s.4-.2.6-.2c.4-.1.9-.1 1.3 0s.7.3 1 .4c.5.5.7.8.7.8"/><path d="M125.8 35.5v.6c0 .2-.1.3-.1.4s-.1.2-.1.2l-.5-.4s.2-.1.4-.3c.2-.3.3-.5.3-.5"/></g><path fill="#9b2d2d" d="M125.9 52.2s-5 3.1-10.3 2.3c0 0 4.2 2.8 7 1.7 2.7-1.1 3.3-4 3.3-4"/><path fill="#cc544e" d="M115.6 54.4c2.3.4 4.5 0 6.3-.5.8.5 1.5 1 2 1.5-.4.3-.8.6-1.4.8-2.8 1-6.9-1.8-6.9-1.8"/><path fill="#7d2c1b" d="M125.9 52.2s-.5.4-1.4.9-2.2 1-3.5 1.3c-.3.1-.7.1-1 .2s-.7.1-1 .1h-1.7c-.5 0-.9-.1-1.2-.1s-.5-.1-.5-.1h.5c.3 0 .7-.1 1.2-.1 1-.1 2.3-.3 3.6-.6s2.6-.7 3.5-1c.9-.4 1.5-.6 1.5-.6"/><g fill="#0a0806"><path d="M89.1 60.9c1.3-.1 2.3 1.4 2.4 3.1 0 1.8-.7 3.4-1.8 3.5-.5.1-1.1-.2-1.5-.8-.5-.6-.8-1.4-1-2.3-.2-1.9.7-3.4 1.9-3.5"/><path d="M88.9 55.8c1.4-.1 2.5 1.4 2.6 3.2 0 1.8-1 3.4-2.2 3.5s-2.4-1.3-2.6-3.2.8-3.4 2.2-3.5"/><path d="M88.7 50.4c1.5 0 2.7 1.4 2.7 3.2S90.3 57 89 57c-1.3.1-2.6-1.4-2.7-3.2-.2-1.8.9-3.4 2.4-3.4"/><path d="M88.6 45.3c1.5 0 2.8 1.5 2.7 3.3 0 1.8-1.2 3.3-2.6 3.4-1.4 0-2.7-1.4-2.8-3.3 0-1.9 1.2-3.4 2.7-3.4M92.9 81.5c.5-.2 1.1 1.2 1.6 2.9.2.9.5 1.7.7 2.3s.4.9.4.9-.2-.3-.6-.8c-.3-.5-.9-1.2-1.3-2-1-1.6-1.3-3.2-.8-3.3"/><path d="M91.4 76.6c.7-.2 1.5 1.1 1.9 2.9.3 1.8.4 3.3.1 3.4-.2.1-.5-.2-.8-.7-.4-.5-.8-1.3-1.2-2.1-.4-.9-.6-1.7-.5-2.3 0-.7.2-1.1.5-1.2"/><path d="M90.3 71.3c.5-.1 1 .2 1.3.7.4.5.6 1.3.8 2.2.2 1.8 0 3.4-.6 3.6-.3.1-.7-.2-1.1-.7s-.9-1.3-1.1-2.2c-.7-1.8-.2-3.4.7-3.6"/><path d="M89.6 66.3c.6-.1 1.1.3 1.5.8.4.6.7 1.3.7 2.2.1 1.8-.4 3.4-1.3 3.6-.4.1-.9-.2-1.4-.7-.4-.5-.8-1.3-1-2.3-.3-1.9.4-3.5 1.5-3.6M93.8 20.6c.5.4.7 1.1.7 1.8v1c-.1.4-.2.7-.3 1.1-.3.7-.8 1.3-1.4 1.7s-1.3.5-2 .3c-1.4-.4-2-2.3-1-4.2.2-.5.6-.9.9-1.2.4-.3.7-.6 1.1-.7.9-.4 1.5-.3 2 .2"/><path d="M98 17.7c.2.5.1 1.1-.2 1.7q-.15.45-.6.9c-.2.3-.5.6-.8.8-.5.5-1.2.8-1.8.9-.3.1-.6.1-1 0q-.45 0-.9-.3c-.3-.2-.5-.4-.6-.8-.1-.3-.1-.7-.1-1.1.1-.8.7-1.7 1.6-2.3.5-.3.9-.6 1.4-.7s.9-.2 1.3-.2c.9.3 1.4.6 1.7 1.1"/><path d="M103.2 16.2c.1.4-.3.8-.8 1.2-.5.5-1.2.9-2 1.3s-1.5.5-2.1.4-1.2-.4-1.5-.9-.2-1.2.3-1.7c.5-.6 1.3-1.1 2.3-1.3 2-.3 3.7.4 3.8 1"/><path d="M108.2 15.9s-.4 0-1 .2-1.4.5-2.3.8-1.6.4-2.2.4c-.6-.1-1-.4-1.1-.8s.2-.9.8-1.2 1.5-.4 2.4-.3c1 .1 1.8.4 2.4.6.3.1.5.2.7.2.2.1.3.1.3.1M88.7 40.6c1.6.1 2.7 1.6 2.7 3.4-.1 1.8-1.3 3.3-2.8 3.3s-2.8-1.5-2.8-3.4 1.4-3.4 2.9-3.3"/><path d="M89.1 35.5c1.5.2 2.7 1.7 2.6 3.5s-1.4 3.2-3 3.2c-1.5 0-2.8-1.6-2.7-3.5s1.5-3.4 3.1-3.2"/><path d="M89.8 30.1c1.5.3 2.4 1.9 2.2 3.6s-1.5 3.1-3.1 3c-1.5-.1-2.7-1.7-2.4-3.7.3-1.9 1.9-3.2 3.3-2.9"/><path d="M91.1 25.2c.7.2 1.1.8 1.4 1.5s.4 1.5.2 2.3-.6 1.5-1.2 2q-.9.75-2.1.6c-1.5-.2-2.5-2-1.9-3.9s2.3-3 3.6-2.5"/></g><g fill="#1c1411"><path d="M91.8 60.2c.6-.2 1.3 0 1.8.4.3.2.5.5.7.8s.4.6.6 1c.1.4.2.7.3 1.2.1.4.1.9 0 1.2-.1.7-.4 1.3-1 1.4-.5.2-1.1 0-1.7-.3-.3-.2-.6-.4-.8-.7-.2-.2-.5-.7-.8-1.1-.2-.4-.4-.9-.4-1.3s0-.8.1-1.2c.2-.7.6-1.2 1.2-1.4"/><path d="M90.7 55.3c.7-.1 1.4.1 1.9.6s.9 1.2 1.1 2c.3 1.7-.2 3.3-1.4 3.7-.6.2-1.2.1-1.8-.4s-1.1-1.2-1.4-2.1c-.6-1.8.2-3.5 1.6-3.8"/><path d="M89.9 50.1c1.5-.1 2.7 1.2 3 2.9.2 1.7-.6 3.3-2 3.6-.7.1-1.3-.1-1.9-.6s-1-1.3-1.2-2.2c-.4-2 .7-3.6 2.1-3.7"/><path d="M89.6 45.1c1.5 0 2.8 1.3 2.9 3.1.1 1.7-.9 3.3-2.4 3.5-1.4.2-2.8-1.2-3-3-.2-2 .9-3.6 2.5-3.6M95.5 80.1c.5 0 .5 1.6-.1 3.3-.3.9-.6 1.6-.9 2.2-.2.6-.4.9-.4.9s.1-.4.2-.9c.1-.6.1-1.4.2-2.3s.2-1.7.3-2.3c.3-.5.5-.9.7-.9"/><path d="M95.8 75.2c.8 0 1.3 1.5.9 3.3-.3 1.8-1.1 3.2-1.4 3.2-.2 0-.3-.4-.4-1s-.2-1.4-.2-2.3 0-1.7.2-2.2c.2-.7.5-1 .9-1"/><path d="M95.3 69.9c.9-.2 1.9 1.2 1.9 3.1s-.7 3.4-1.4 3.4c-.3 0-.6-.4-.9-1s-.5-1.4-.7-2.2c-.1-.4-.1-.8-.1-1.2s0-.7.1-1c.2-.6.6-1 1.1-1.1"/><path d="M93.8 65.1c.5-.2 1.1-.1 1.7.4.5.5 1 1.3 1.2 2.2.4 1.9-.3 3.6-1.1 3.7-.9.1-1.9-1.2-2.4-2.7-.3-.8-.4-1.5-.2-2.2-.1-.6.3-1.1.8-1.4M95 21.1c.4.5.6 1.1.5 1.8 0 .4 0 .7-.1 1 0 .2-.1.3-.2.5 0 .2-.1.3-.2.5-.2.3-.4.6-.6.8-.2.3-.5.5-.8.7-.6.3-1.4.4-2 .2-.7-.2-1.1-.8-1.3-1.6-.1-.4-.1-.8 0-1.3s.3-.9.6-1.4c.1-.2.3-.4.5-.6s.4-.3.6-.5q.6-.45 1.2-.6c.7-.1 1.3 0 1.8.5"/><path d="M99.1 18.3c.2.5.1 1.1-.2 1.7-.2.3-.3.6-.5.9s-.5.5-.8.8-.6.4-.9.6-.6.3-1 .3c-.7.1-1.3 0-1.8-.4s-.8-1.1-.6-1.9c.1-.4.3-.8.5-1.2.3-.4.6-.7 1.1-1 .4-.3.9-.5 1.3-.6s.9-.2 1.2-.1c.9.1 1.5.4 1.7.9"/><path d="M104.2 16.8c.1.4-.2.8-.7 1.2-.5.5-1.1.9-1.9 1.3-1.4.7-3 .6-3.6-.4-.3-.5-.2-1.1.2-1.7.2-.3.5-.6.9-.8s.8-.4 1.3-.5c2-.4 3.7.2 3.8.9"/><path d="M109.1 16.5s-.4 0-1 .2-1.4.5-2.2.8-1.6.4-2.2.4c-.6-.1-1-.4-1.1-.8s.2-.9.7-1.2q.9-.45 2.4-.3c1 .1 1.8.4 2.4.6.3.1.5.2.7.2.2.1.3.1.3.1M89.5 40.5c1.6 0 2.8 1.5 2.8 3.2s-1.2 3.2-2.7 3.3-2.9-1.3-2.9-3.2 1.3-3.4 2.8-3.3"/><path d="M89.8 35.5c1.5.2 2.7 1.7 2.6 3.4S91.1 42 89.5 42c-1.5 0-2.8-1.5-2.7-3.4 0-1.9 1.5-3.3 3-3.1"/><path d="M90.6 30.2c.7.2 1.3.6 1.7 1.3.4.6.6 1.5.5 2.3-.2 1.7-1.5 3-3.1 2.9-1.5-.1-2.7-1.7-2.4-3.6.2-.9.6-1.7 1.2-2.3.6-.5 1.4-.7 2.1-.6"/><path d="M92 25.4c.6.3 1.1.9 1.3 1.5.3.7.4 1.5.2 2.3-.3 1.6-1.8 2.8-3.2 2.5-1.5-.2-2.4-2-1.9-3.9.3-.9.8-1.7 1.5-2.2.7-.3 1.5-.4 2.1-.2"/></g><g fill="#261b17"><path d="M95.2 63.9c1.3-.2 2.5 1 2.8 2.7s-.2 3.4-1.3 3.7c-1 .3-2.4-.9-2.9-2.7s.2-3.4 1.4-3.7"/><path d="M94.4 59c1.4-.2 2.6 1.1 2.9 2.9.2 1.8-.5 3.4-1.7 3.6q-.9.15-1.8-.6c-.6-.5-1-1.3-1.2-2.2-.4-1.9.5-3.5 1.8-3.7"/><path d="M93.8 53.6c1.5-.1 2.8 1.2 2.9 3 .2 1.8-.7 3.4-2.1 3.6-1.3.2-2.7-1.1-3-2.9-.3-1.9.7-3.5 2.2-3.7"/><path d="M93.3 48.6c1.5-.1 2.8 1.3 2.9 3.1s-.9 3.4-2.4 3.5c-1.4.2-2.8-1.2-3-3-.1-1.9 1-3.5 2.5-3.6M102.9 83.1c.4-.3 1.4.7 2.6 2.1.6.7 1.1 1.3 1.6 1.7s.8.6.8.6c-.3-.1-.7-.3-.9-.4-.5-.3-1.3-.6-2.1-1.2-1.6-1.1-2.3-2.5-2-2.8"/><path d="M100.2 78.9c.7-.3 1.7.7 2.5 2.3s1.5 2.9 1.2 3.2c-.1.1-.5 0-1-.4-.6-.3-1.2-.9-1.8-1.6s-1-1.5-1.2-2.1c-.1-.8 0-1.3.3-1.4"/><path d="M98 74c.4-.2 1 0 1.4.5s.9 1.1 1.2 2c.6 1.7.7 3.2.2 3.6-.3.2-.7 0-1.3-.4-.5-.4-1.2-1.1-1.6-1.9-1-1.8-.8-3.5.1-3.8"/><path d="M96.4 69.2c1.1-.3 2.3.9 2.7 2.6s.2 3.3-.6 3.7c-.4.2-.9 0-1.5-.5-.5-.5-1.1-1.2-1.4-2-.3-.9-.5-1.7-.3-2.4.2-.8.6-1.3 1.1-1.4M96.7 23.7c.5.4.8 1 .9 1.7.1.6.1 1.4-.2 2.1-.5 1.5-1.8 2.6-3.2 2.3s-2.2-2.1-1.3-4.1c.5-1 1.1-1.7 1.9-2.1.7-.3 1.4-.3 1.9.1"/><path d="M100.4 20.2c.6 1 0 2.5-.9 3.6-.4.6-1.1 1-1.6 1.2-.6.2-1.3.2-1.9-.1s-.9-.9-.9-1.7.5-1.7 1.2-2.5q.6-.6 1.2-.9c.4-.2.9-.3 1.2-.3.8 0 1.4.3 1.7.7"/><path d="M105.3 18.1c.1.4-.2.8-.6 1.3s-1 1.1-1.7 1.5c-.3.2-.7.4-1 .5s-.7.2-1 .2c-.6 0-1.2-.2-1.6-.6-.3-.4-.4-1.1 0-1.8.2-.3.5-.6.8-.9.4-.3.8-.5 1.3-.7s1-.2 1.4-.3c.4 0 .9 0 1.2.1.7.1 1.1.4 1.2.7"/><path d="M110.3 17.4h-.3c-.2 0-.4.1-.7.2-.6.2-1.3.6-2.2 1-.8.4-1.6.6-2.2.6s-1.1-.2-1.2-.7c-.1-.4.1-.9.6-1.3s1.4-.6 2.4-.5c1 0 1.9.3 2.5.4.7.2 1.1.3 1.1.3M93.1 43.9c1.5 0 2.8 1.4 2.9 3.2s-1.1 3.3-2.6 3.4-2.9-1.3-3-3.2c0-1.8 1.2-3.4 2.7-3.4"/><path d="M93.2 38.9c1.5.1 2.8 1.5 2.8 3.3s-1.2 3.3-2.7 3.3c-1.6.1-2.9-1.4-2.9-3.3-.1-1.9 1.2-3.4 2.8-3.3"/><path d="M93.6 33.5c.7.1 1.4.5 1.8 1.2.4.6.7 1.4.6 2.3-.1 1.7-1.4 3.1-2.9 3.1-1.6 0-2.8-1.6-2.6-3.5s1.6-3.3 3.1-3.1"/><path d="M94.6 28.5c1.3.4 2.1 2 1.9 3.7s-1.5 3-3 2.8c-1.5-.1-2.6-1.8-2.2-3.7.2-1 .7-1.8 1.3-2.3.6-.4 1.3-.6 2-.5"/></g><path fill="#ed7d2d" d="M98.2 74.7c.8-.2 1-.6 1.1-.9.1.1.1.2.2.3.2.7.2 1.2-.9 1.5-.7.2-1.4.3-1.5-.3 0-.2-.1-.4 0-.6.2 0 .6.1 1.1 0"/><path fill="#7425cf" d="M93.1 49.8c1.2-.1 1.6-.5 1.8-.9.1.1.2.2.2.4.2.8 0 1.5-1.7 1.6-1.1.1-2.2.1-2.2-.7 0-.3 0-.5.1-.8.5.3 1 .4 1.8.4"/><g fill="#30231d"><path d="M99.9 63c1-.3 2.1.9 2.5 2.5.4 1.7.1 3.3-.7 3.5s-1.9-.9-2.5-2.5c-.6-1.7-.3-3.2.7-3.5"/><path d="M98.6 58.3c1.1-.3 2.2.9 2.6 2.5.4 1.7 0 3.3-.9 3.5-.9.3-2.1-.8-2.7-2.5-.5-1.6-.1-3.2 1-3.5"/><path d="M97.4 53.4c1.1-.2 2.3.9 2.7 2.6s-.1 3.3-1.2 3.5c-1 .3-2.3-.9-2.8-2.6-.4-1.7.1-3.3 1.3-3.5"/><path d="M96.4 48.6c1.2-.2 2.4 1 2.7 2.7s-.3 3.3-1.4 3.5c-1.1.3-2.4-.9-2.8-2.6-.4-1.8.3-3.4 1.5-3.6M103.4 82.2c.3.1.1 1.6-1.1 3-.6.7-1.2 1.2-1.7 1.5s-.9.3-.9.3.1 0 .2-.1.3-.2.5-.4c.4-.4.9-1 1.3-1.8.8-1.3 1.3-2.6 1.7-2.5"/><path d="M103.8 77.5c.3 0 .6.3.8.9.1.6.3 1.5 0 2.4-.6 1.8-1.6 2.9-1.8 2.8s.1-1.5.2-3.2c.2-1.4.2-2.8.8-2.9"/><path d="M102.7 72.5c.7-.2 1.6 1 1.9 2.8.1.4.1.9.1 1.3s-.1.8-.1 1.1c-.1.6-.4 1-.6 1-.3 0-.5-.3-.8-.8-.1-.3-.3-.6-.4-.9s-.3-.7-.4-1.1c-.6-1.7-.4-3.2.3-3.4"/><path d="M101.3 67.9c.9-.3 1.9.9 2.3 2.6s.1 3.3-.5 3.4c-.7.2-1.6-1-2.2-2.6s-.4-3.2.4-3.4M98.4 25.1c.7.6.7 2.2 0 3.5-.3.7-.8 1.2-1.2 1.7-.5.4-1 .6-1.6.4-.5-.1-.9-.6-1.1-1.3s.1-1.6.5-2.5c.2-.5.5-.8.8-1.1s.6-.5 1-.7c.6-.3 1.2-.3 1.6 0"/><path d="M101.9 21.9c.2.4.2.9-.1 1.4q-.3.9-1.2 1.8c-.5.6-1.1 1-1.6 1.2-.5.3-1.1.3-1.5 0s-.6-.8-.5-1.5.6-1.4 1.2-2.2c.7-.6 1.5-1.1 2.2-1.2.8 0 1.3.1 1.5.5"/><path d="M106.5 19.6c.1.3-.1.6-.6 1.1-.4.5-1 1-1.6 1.4-.3.2-.7.4-1 .5q-.45.3-.9.3c-.6.1-1.1 0-1.4-.4s-.2-.9.1-1.5c.2-.3.4-.6.7-.8s.7-.5 1.1-.7c1.8-.6 3.4-.4 3.6.1"/><path d="M111.2 18.5s-.4.1-.9.3-1.2.6-2 1c-1.5.8-2.9 1-3.2.3-.1-.3.1-.8.6-1.1s1.3-.6 2.2-.7 1.8 0 2.3.1c.6.1 1 .1 1 .1M95.7 44.2c1.2-.2 2.3 1.1 2.6 2.8s-.4 3.2-1.6 3.5c-1.2.2-2.4-1-2.7-2.7-.3-1.9.5-3.4 1.7-3.6"/><path d="M95.1 39.4c1.2-.1 2.3 1.2 2.5 2.9s-.6 3.2-1.8 3.4-2.4-1.1-2.6-2.9c-.1-1.7.7-3.3 1.9-3.4"/><path d="M95 34.3c.6 0 1 .4 1.5 1 .4.6.7 1.3.7 2.1.1 1.6-.7 3.1-1.9 3.3-1.2.1-2.4-1.2-2.4-3 0-.9.2-1.8.6-2.4.3-.7.9-1 1.5-1"/><path d="M95.9 29.6c.5.2.9.7 1.1 1.3.1.3.2.6.2 1V33c-.1.8-.4 1.5-.8 2s-.9.9-1.5.9-1.1-.4-1.5-1c-.3-.6-.4-1.5-.3-2.5 0-.2.1-.5.1-.7l.3-.6c.2-.4.5-.7.7-.9.7-.6 1.2-.8 1.7-.6"/></g><g fill="#3a2922"><path d="M104.1 64.9c1-.3 2.1.8 2.5 2.6.3 1.8-.2 3.3-1 3.5-.8.1-1.8-1.1-2.3-2.7-.4-1.6-.1-3.1.8-3.4"/><path d="M102.4 60.5c1-.5 2.4.5 3 2.2s.1 3.4-.8 3.6-2.1-.8-2.7-2.3-.5-3 .5-3.5"/><path d="M100.5 55.8c.5-.2 1.1 0 1.7.4.5.4 1 1 1.3 1.8s.4 1.5.3 2.2-.4 1.2-.9 1.4-1.1.1-1.6-.2-1.2-1-1.5-1.8c-.8-1.8-.4-3.5.7-3.8"/><path d="M99.2 51.2c1.2-.3 2.4.8 2.8 2.4s0 3.1-1 3.6c-1 .4-2.5-.6-3-2.4-.6-1.7 0-3.4 1.2-3.6M105.1 84.3c.4.1.1 1.6-1.3 2.9-1.3 1.3-2.8 1.6-2.7 1.7 0 0 .3-.2.8-.5.4-.4 1-.9 1.4-1.6.9-1.4 1.4-2.7 1.8-2.5"/><path d="M106.1 79.6c.6 0 .9 1.5.3 3.3-.6 1.7-1.7 2.9-1.9 2.7-.2-.1.1-1.5.3-3.1.3-1.6.7-2.9 1.3-2.9"/><path d="M106.1 74.5c.8-.1 1.4 1.3 1.3 3.1s-.9 3.2-1.4 3.1-.8-1.5-.9-3.1c-.2-1.6.2-3 1-3.1"/><path d="M105.4 69.8c.9-.2 1.8 1.1 1.9 2.9s-.5 3.3-1.2 3.3-1.4-1.3-1.7-2.9c-.2-1.6.1-3.1 1-3.3M99.7 27.4c.4.2.7.7.8 1.3 0 .3.1.6.1.9s0 .6-.1 1c-.2 1.6-1.2 2.9-2.3 2.8-.6-.1-1-.5-1.3-1.1s-.3-1.4-.2-2.3c.1-.4.3-.9.5-1.3s.5-.7.8-.9c.7-.5 1.3-.6 1.7-.4"/><path d="M102.8 23.8c.3.3.2.9.1 1.4-.1.3-.2.6-.4.9-.1.3-.3.6-.5.9-.3.6-.8 1.1-1.3 1.4s-1.1.5-1.5.3c-.5-.2-.8-.6-.8-1.4-.1-.7.3-1.6.9-2.4.3-.4.7-.7 1-1 .4-.3.7-.4 1.1-.5.5-.1 1.1 0 1.4.4"/><path d="M107.2 21.3c.2.5-.8 1.6-2.1 2.6q-.9.75-1.8.9c-.6.1-1.1.1-1.4-.3-.3-.3-.3-.9 0-1.5s.9-1.2 1.8-1.6 1.7-.6 2.4-.5c.5 0 1 .1 1.1.4"/><path d="m111.8 20.1-.9.3c-.5.3-1.2.7-2 1.1-1.5.8-2.8 1-3.1.4-.2-.3 0-.7.5-1.1s1.3-.6 2.2-.7 1.7 0 2.3 0zM98.4 46.8c1.2-.2 2.4 1.1 2.7 2.7s-.3 3.2-1.4 3.5-2.5-.8-2.8-2.6c-.5-1.8.3-3.4 1.5-3.6"/><path d="M98 42.1c.6 0 1.2.3 1.6.8s.7 1.2.8 2.1c.2 1.6-.6 3.1-1.8 3.3s-2.4-1.1-2.6-2.9c-.1-1.8.8-3.3 2-3.3"/><path d="M98 37c1.2.1 2.1 1.5 2.1 3.1s-.9 3-2.1 3.1-2.3-1.3-2.3-3.1c.1-1.7 1.2-3.1 2.3-3.1"/><path d="M98.5 32.3c1.1.2 1.8 1.6 1.7 3.3-.1 1.6-1 3-2.2 3s-2.1-1.5-1.9-3.3c.2-1.9 1.3-3.2 2.4-3"/></g><path fill="#66e9ed" d="M100.7 56.9c.9-.3 1.2-.7 1.3-1.1.1.1.2.2.2.3.3.7.2 1.3-1 1.7-.8.3-1.7.4-1.9-.2-.1-.2-.1-.5-.1-.7.4.1.9.2 1.5 0"/><path fill="#ed7d2d" d="M104.4 66.1c.8-.2 1.1-.6 1.1-.9.1.1.1.2.2.3.3.6.2 1.1-.9 1.5-.7.2-1.5.4-1.6-.2-.1-.2-.1-.4-.1-.6.3 0 .8.1 1.3-.1"/><path fill="#7425cf" d="M104.2 65.3c.8-.2 1.1-.6 1.1-.9.1.1.1.2.2.3.3.6.2 1.1-.9 1.5-.7.2-1.5.4-1.6-.2-.1-.2-.1-.4-.1-.6.3 0 .8 0 1.3-.1"/><path fill="#e3448b" d="M106 75.3c.7 0 1-.2 1.1-.5 0 .1.1.2.1.3.1.5-.1.9-1.1 1-.6 0-1.3 0-1.3-.5 0-.2 0-.4.1-.5.3.1.7.2 1.1.2"/><path fill="#0dd7de" d="M106 80.3c.4.1.6-.1.8-.3v.2c-.1.5-.3.8-.8.7-.4-.1-.8-.2-.6-.6 0-.1.1-.3.2-.4-.1.3.1.4.4.4"/><path fill="#ed9939" d="M104.7 85q.45.15.6 0v.2c-.1.3-.3.5-.8.3-.3-.1-.5-.3-.3-.5.1-.1.1-.2.2-.2 0 0 .1.1.3.2"/><g fill="#0a0806"><path d="M116.7 17c.2-.3.7-.4 1.4-.2.6.2 1.4.7 2 1.4.3.4.6.7.8 1.1s.3.8.3 1.1c.1.3.1.6.2.8 0 .2.1.3.1.3l-.2-.2c-.1-.1-.4-.2-.7-.3s-.7-.3-1-.4c-.3-.2-.7-.4-1-.7q-1.05-.75-1.5-1.5c-.4-.6-.6-1.1-.4-1.4"/><path d="M112.2 15.1c0-.3.5-.6 1.2-.6h1.2c.4.1.9.2 1.4.4.4.2.9.5 1.2.7.3.3.6.6.8.9.3.6.4 1.1.2 1.4s-.7.3-1.3.2c-.3 0-.6-.1-1-.3-.3-.1-.7-.3-1-.5-.4-.2-.7-.4-1-.6s-.6-.4-.8-.6c-.7-.4-1-.7-.9-1"/><path d="M106.8 15.5s.1 0 .2-.1.4-.2.6-.4c.3-.1.6-.4 1-.5.4-.2.8-.3 1.3-.4s1-.1 1.4-.1.8.2 1.1.3c.6.2.9.7.8 1s-.5.5-1.1.6h-1c-.4 0-.7-.1-1.2-.2-.4 0-.8-.1-1.2-.2s-.7-.1-1-.1h-.7c-.1.1-.2.1-.2.1"/></g><g fill="#1c1411"><path d="M115 15.9c-.1.4-.5.6-1.1.7-.3.1-.6.1-.9.1h-1.1c-.4 0-.8 0-1.1-.1-.4 0-.7-.1-1-.2-.3 0-.6-.1-.7-.1-.2 0-.3.1-.3.1s.1 0 .2-.2c.1-.1.3-.4.5-.6.2-.3.5-.5.9-.8.4-.2.9-.4 1.4-.4.5-.1 1-.1 1.4 0s.8.2 1.1.4c.5.2.8.7.7 1.1"/><path d="M119.2 18.1c-.2.3-.6.2-1.3.2-.3 0-.6-.1-1-.2-.3-.1-.7-.2-1.1-.4s-.7-.3-1-.5-.6-.3-.8-.6c-.4-.4-.7-.7-.7-1.1 0-.3.5-.7 1.1-.8.3 0 .8-.1 1.2 0s.9.2 1.3.4.8.5 1.1.8.5.6.7.9c.7.6.7 1.1.5 1.3"/><path d="m123 22-.2-.2c-.1-.1-.3-.2-.6-.4q-.6-.3-.9-.6c-.3-.2-.7-.4-1.1-.7-.4-.2-.7-.5-1-.7s-.5-.5-.7-.7c-.3-.5-.5-.9-.3-1.2s.7-.4 1.3-.1q.45.15.9.6c.3.2.6.6.9 1s.5.8.7 1.1c.2.4.3.7.4 1q.15.45.3.6z"/></g><g fill="#261b17"><path d="M119.4 18.1q-.15.3-.6.3c-.3 0-.7.1-1.1.1-.2 0-.4 0-.7-.1h-.8c-.5-.1-1.1-.1-1.7-.2-.6 0-1.1-.1-1.8-.1-.4-.1-.9-.1-1.5-.2-.5 0-.8-.1-1.1-.1h-.4s.1-.1.3-.2c.3-.2.7-.4.9-.6.4-.2.9-.5 1.5-.7.3-.1.6-.2 1-.2.3 0 .7-.1 1.1-.1.7 0 1.4 0 2.1.2.3.1.6.1.9.2s.5.2.7.4c.4.3.8.5.9.8.4.1.4.3.3.5"/><path d="M124.8 23.1c-.1.1-.3 0-.6-.1q-.45-.15-.9-.6c-.4-.2-.7-.6-1.2-.9s-.9-.7-1.4-1c-.3-.2-.5-.3-.7-.5s-.4-.4-.7-.5c-.4-.3-.8-.6-1.1-.9-.3-.2-.6-.5-.8-.7s-.3-.4-.2-.6c.1-.4.7-.5 1.7-.5.5 0 1.1.2 1.7.4.3.1.6.3.9.5l.9.6c.6.5 1 1.1 1.4 1.6s.6 1.1.8 1.5c.2.5.3.8.3 1.1.1.3.1.5-.1.6"/><path d="M127.7 30.8s0-.1-.1-.4c-.1-.2-.2-.6-.4-1-.3-.5-.5-1-.7-1.4-.2-.5-.6-1.1-.9-1.6-.3-.6-.5-1.2-.8-1.6-.3-.5-.5-1-.6-1.4s-.3-.7-.3-1 0-.5.2-.6c.1-.1.4-.1.6 0 .3.1.6.3.9.7s.6.8.9 1.4c.3.5.5 1.2.7 1.9s.3 1.3.4 1.9c0 .4.1 1 .1 1.6 0 .5.1.8.1 1.1-.2.2-.1.4-.1.4"/></g><g fill="#30231d"><path d="M119.7 19.8c-.1.2-.3.3-.5.4-.3.1-.6.1-1 .1h-1.3c-.5-.1-1-.1-1.6-.2s-1.1-.2-1.6-.3-1-.2-1.4-.3-.7-.2-1-.2h-.4s.1 0 .3-.2c.2-.1.5-.3.9-.5l.6-.3c.2-.1.5-.2.8-.3.6-.2 1.2-.2 1.8-.2.7 0 1.3 0 1.8.2.3.1.5.1.8.2l.6.3c.4.2.7.5.8.7.5.2.5.4.4.6"/><path d="M125 23.8c-.2.2-.8 0-1.5-.3-.3-.2-.7-.4-1.2-.7-.4-.2-.8-.6-1.3-.8-.5-.3-.9-.6-1.3-.8s-.7-.6-1.1-.8c-.6-.5-1-1-.9-1.3.1-.4.6-.6 1.6-.6q.75 0 1.5.3c.6.1 1.1.5 1.7.9.6.3 1 .9 1.4 1.3s.7.9.9 1.3c.4.8.5 1.3.2 1.5"/><path d="M128.4 30.4s0-.1-.2-.3c-.1-.2-.3-.5-.5-.8-.3-.5-.6-.8-.8-1.2-.3-.4-.7-.9-1-1.3-.2-.2-.3-.5-.5-.7s-.3-.4-.5-.6c-.3-.4-.5-.8-.7-1.2-.4-.7-.5-1.2-.2-1.5s.8-.1 1.5.4c.3.3.6.7 1 1.1.2.2.3.5.5.7.1.3.2.6.4.9.2.6.4 1.2.6 1.7.1.5.2 1 .2 1.4.1.4.1.7.2.9z"/></g><path fill="#3a2922" d="M112.3 20.5c.1-.1 1.3-.3 1.6-.4s.6-.3 1-.4.9-.2 1.3-.2c.5 0 .9 0 1.3.1.2.1.4.1.6.2s.3.2.4.3c.1 0 .1.1.1.1h.2c.3 0 .7.1 1.1.2q.6.15 1.2.6c.2.1.4.3.6.4l.5.5q.45.45.6.9c.1.2.1.3.2.5.1 0 .3.2.4.2.7.1 1.9 1.2 2.2 1.6.4.4.6 1.1.8 1.5s.3.8.4 1.2v.2l.2.2c.2.3.5.6.7 1.1.2.4.4.9.6 1.4.3 1 .4 2 .4 2.7 0 .2 0 .4-.1.5.1.1.2.3.3.4.2.3.3.7.4 1.2.1.4.2.9.2 1.5v1.5c0 .5-.1.9-.1 1.2v1.1s0-.1-.1-.3-.2-.4-.3-.8c-.2-.3-.4-.7-.6-1.1s-.4-.9-.6-1.4c-.4-1-.6-1.9-.6-2.6v-.5c-.1-.1-.2-.3-.3-.4-.2-.3-.4-.7-.6-1.1s-.4-.9-.5-1.4c-.2-.5-.3-1-.3-1.4-.1-.4-.1-.9-.1-1.2v-.2c0-.1-.2-.1-.3-.2-.2-.3-.6-.1-2.2-2-.6-.7-.9-2.1-.9-2.2-.1 0-.3-.1-.4-.1-.3-.1-.6-.2-.9-.4-.2-.1-.3-.2-.5-.3s-.3-.2-.5-.3c-.3-.2-.6-.4-.9-.7-.3-.2-.5-.5-.7-.7l-.1-.1h-.6c-.2 0-.3-.1-.5-.1-.3-.1-.7-.2-1.1-.3s-.8-.3-1.1-.4c-.4-.1-.7-.2-1-.2-.3-.1-.5-.1-.7-.1h-.2s-.7.2-.5.2"/></g></svg>