<svg xmlns="http://www.w3.org/2000/svg" xml:space="preserve" viewBox="0 0 512 512"><path d="M348.27 365.26V53.055l-.001-.027V0H242.16v365.256c-19.247 15.97-30.28 39.665-29.9 65.044.322 21.451 8.881 41.72 24.1 57.076 15.222 15.358 35.416 24.094 56.863 24.6q1.01.024 2.017.023c21.799-.001 42.309-8.341 57.943-23.612 16.119-15.745 24.997-36.824 24.997-59.354-.003-24.863-11.033-48.087-29.91-63.773" style="fill:#edeef0"/><path d="M348.27 365.26V53.055c0-.318-.019-.633-.024-.951h.023V0h-53.054v512c21.808.004 42.328-8.336 57.967-23.612 16.119-15.745 24.997-36.824 24.997-59.354-.002-24.864-11.032-48.088-29.909-63.774" style="fill:#dcdee2"/><path d="M275.549 33.391v200.045h39.329V33.391z" style="fill:#61a2ef"/><path d="M295.214 33.391v200.045h19.664V33.391z" style="fill:#528acf"/><path d="m322.398 387.589-7.521-4.946V216.74h-39.328v165.901l-7.521 4.946c-14.27 9.386-22.637 25.166-22.382 42.212.394 26.286 22.089 48.175 48.363 48.793 13.458.324 26.212-4.688 35.841-14.092 9.633-9.409 14.938-22.005 14.938-35.467-.002-16.73-8.371-32.224-22.39-41.444" style="fill:#f74d37"/><path d="M344.786 429.034c0-16.731-8.37-32.225-22.388-41.445l-7.521-4.946V216.74h-19.664v261.853c13.011.004 25.295-4.969 34.634-14.091 9.634-9.41 14.939-22.005 14.939-35.468" style="fill:#c43d2c"/><path d="M133.82 339.08h50.37v11.13h-50.37zM133.82 307.71h69.31v11.13h-69.31zM133.82 276.36h50.37v11.13h-50.37zM133.82 245h69.31v11.13h-69.31zM133.82 213.65h50.37v11.13h-50.37zM133.82 182.29h69.31v11.13h-69.31zM133.82 150.94h50.37v11.13h-50.37zM133.82 119.58h69.31v11.13h-69.31zM133.82 88.23h50.37v11.13h-50.37zM133.82 56.876h69.31v11.13h-69.31z" style="fill:#444242"/></svg>