<svg xmlns="http://www.w3.org/2000/svg" xml:space="preserve" width="240.482" height="179.019" viewBox="0 -0.496 240.482 179.019"><title>Slice 1</title><g fill-rule="evenodd"><path fill="#dce2ef" d="M103.1 112.6C94 124.5 79 133.2 79 133.2s0 9.1 4.6 29.4c2.7 5 6.4 7.1 3.8 7.9-1.1.3-6.7 2.6-8.3 1.1-2.3-2.2-2.7-5.1-2.7-6.4.1-4.3-13.5-35.7-9.2-39 4.3-3.2 8.5-8.7 7.3-13.5-2.9-12.3-8.2-39.5 22.1-38 18.4 1.4 15.8 25.7 6.5 37.9"/><path fill="#a7b2c4" d="M81.5 176.2c2.8.4 6.7 1.3 9.4.1 0 0-.6-3.5-1.9-6.1-3 1.2-6.8 1.8-9 2.2 1 1.8 1.5 3.8 1.5 3.8"/><path fill="#dce2ef" d="M78.6 171.1s1.6 2.4.8 4.6c0 0 1.3-.7 1.4-2.2 0 0 .6 1.8 2.1 1.6 0 0-.6-1.6-.1-2.5 0 0 1 2 2.2 1.8 0 0-.9-2.2-.5-3.1 0 0 2.1 1 2.4 2.8 0 0 .7-1.4.1-2.5 0 0 1.8.4 1.9 1.6 0 0 .3-1.9-1-3.1 0 0 1.4 1.7 3.3.7 0 0-2.2-.3-3.5-2.4"/><path fill="#a7b2c4" d="M212.5 143c.9 2.3 11.6 4 11.6 4-.7-8.3-3.5-7.7-3.8-9.3-2.6 2-5.3 1.9-7.3 1.6 0 1.3-.5 3.7-.5 3.7"/><path fill="#dce2ef" d="M213.7 136.6s-1.5 5.4-2.9 5.9c0 0 1.9.2 2.8-2.1 0 0-1.1 2.1.6 2.8 0 0 .3-1.9 1.3-3.9 0 0-.7 3.5 2.1 4.4 0 0-.7-1.1-.3-2.8 0 0 1 1.2 2.5 1.7 0 0-.4-1.3-.7-2.7 0 0 1.3 2.5 3.1 2.9 0 0 .4-1.3-.5-2.4 0 0 1.1.3 2.3 0 0 0-3.4-4.4-4.3-6.5"/><path fill="#dce2ef" d="M167.6 78.6c6.1 1.2 17.5 11.6 20 24.5 0 0 17.6-.8 19.9-.5 2.3.4 7 10.9 9.2 21.1.6 2.6 4.7 13.5 4.7 13.5l-8.5 1.4s-1.3-7.1-3.3-11.5c0 0-4.2-9.2-6.1-12.3 0 0-21.2 12.8-25.1 9.6-7-5.8-22.2-22.3-22.2-22.3"/><path fill="#fcccba" d="M87.7 66.1c-11.8-.5-21.4-4.6-30.4-8.5-8.5-3.7-19.4-1.7-19.4-1.7s3.1 0 6.1.9c0 0-6.5.7-15.2 1s-14.1 2-28.3-3.5c0 0 7.3 7.9 9.6 8.8 0 0-1.3-.8-6-3.3 0 0 2.6 7.3 10 9.6 4.1 1.3 9.7 4.3 19.2 4.4 0 0-6.1 1.3-12.2-.9 0 0 9.5 6.2 20.5 2.8 0 0-4.2 2.2-7.7 2.2 0 0 15.2 1.7 23.5-1.7s25.8-6.1 25.8-6.1"/><path fill="#e0a0a0" d="M83.6 65.7s-3-.3-7.3-1.3c-2.2-.5-4.7-1.2-7.3-2.1-1.3-.5-2.6-1.1-3.9-1.7s-2.7-1.2-4.1-1.8q-2.1-.9-4.2-1.5c-1.4-.5-2.8-.8-4.2-1.1s-2.7-.5-4-.7c-.6-.1-1.3-.1-1.9-.2-.6 0-1.2 0-1.7-.1-1.1 0-2.2 0-3.1.1-.9 0-1.7.2-2.3.3-1.3.2-2 .4-2 .4s.7-.1 2-.3c.7 0 1.4-.1 2.3-.1h3c.6 0 1.1.1 1.7.1.6.1 1.2.1 1.8.2 1.3.2 2.6.4 3.9.8 1.3.3 2.7.7 4.1 1.2 1.4.4 2.8 1 4.1 1.5 1.4.6 2.7 1.1 4.1 1.8 1.3.6 2.7 1.2 4 1.7 2.7.9 5.2 1.5 7.4 1.9s4.1.6 5.3.8c1.5.1 2.3.1 2.3.1"/><path fill="#e0a0a0" d="M44 56.9s-2.7.2-6.8.3c-2 .1-4.4.1-7 .2-2.6 0-5.3.2-8 .3-2.7.2-5.5.3-8 0-1.3-.1-2.5-.3-3.6-.5-1.2-.2-2.2-.5-3.2-.7-1-.3-1.9-.5-2.7-.8s-1.5-.5-2-.7c-1.1-.4-1.8-.6-1.8-.6s.6.3 1.7.7c.5.2 1.2.5 2 .8q1.2.45 2.7.9c2 .6 4.3 1.1 6.9 1.4s5.3.2 8.1.1c2.7-.2 5.5-.3 8-.4 2.6-.1 5-.2 7-.4 4-.2 6.7-.6 6.7-.6M4.3 60s.3.3.7.8c.5.4 1.2.9 1.9 1.3s1.5.7 2.2.9c.6.2 1 .2 1 .2l-.2-.2c-.2-.1-.4-.2-.7-.4-.5-.3-1.3-.7-2-1.1s-1.5-.8-2-1.1c-.5-.2-.9-.4-.9-.4M33.4 73.9s-1.6-.1-3.9-.5c-.6-.1-1.2-.2-1.9-.3s-1.4-.3-2.1-.4-1.5-.3-2.2-.5c-.8-.2-1.5-.4-2.3-.6s-1.5-.4-2.3-.6c-.7-.2-1.5-.5-2.2-.7s-1.4-.5-2-.8-1.2-.5-1.8-.7c-.5-.2-1-.5-1.5-.7-.4-.2-.8-.4-1.1-.6l-1-.5.9.6c.3.2.6.4 1.1.7.4.2.9.5 1.4.8s1.1.6 1.7.8c.6.3 1.3.6 2 .8.7.3 1.4.5 2.2.8.7.3 1.5.5 2.3.7s1.6.4 2.3.6c.8.2 1.5.3 2.3.4 1.5.3 2.9.4 4 .5 2.5.3 4.1.2 4.1.2M21.8 73.5s.2.2.7.5 1.2.7 2 1.1c.4.2.9.4 1.4.6s1.1.4 1.7.5c.6.2 1.2.3 1.8.4s1.3.2 1.9.3c.6 0 1.3.1 1.9.1h1.9c.6 0 1.2-.1 1.7-.2q.9-.15 1.5-.3c1-.1 1.7-.4 2.3-.6.5-.2.8-.2.8-.2s-.3 0-.9.1c-.3 0-.6.1-1 .2s-.8.1-1.3.2c-.5 0-1 .1-1.5.2-.5 0-1.1 0-1.7.1h-1.8c-.6 0-1.3-.1-1.9-.1-.6-.1-1.3-.1-1.9-.2s-1.2-.2-1.8-.4c-1.2-.3-2.2-.6-3.1-.9s-1.6-.7-2.1-.9c-.3-.4-.6-.5-.6-.5M34 78s.7.1 1.9.3 3 .4 5.2.5c2.1.1 4.7.2 7.4-.1 2.7-.2 5.6-.7 8.3-1.7 1.3-.5 2.7-1.1 4-1.5 1.3-.5 2.6-.9 3.9-1.3 2.6-.8 5-1.4 7.1-1.8 1.1-.2 2-.4 2.9-.6s1.6-.3 2.2-.4c1.2-.2 1.9-.3 1.9-.3s-2.9.2-7.1 1c-2.1.4-4.6.9-7.2 1.6-1.3.4-2.6.8-4 1.2s-2.7 1-4 1.5c-2.7 1-5.5 1.5-8.1 1.7-2.7.2-5.2.3-7.3.3-4.2 0-7.1-.4-7.1-.4M80.7 67.3s-1.3-.1-3.2-.3c-.9-.1-2.1-.2-3.2-.4-1.2-.2-2.4-.4-3.7-.7-.6-.2-1.2-.3-1.8-.5s-1.2-.3-1.7-.5c-.6-.2-1.1-.4-1.6-.6s-1-.4-1.4-.6-.8-.4-1.2-.5c-.3-.2-.6-.3-.9-.5-.5-.3-.8-.4-.8-.4s.3.2.7.5 1.1.8 2 1.2c.4.2.9.4 1.4.7s1 .5 1.6.7l1.8.6c.6.2 1.2.3 1.9.5 1.3.3 2.5.5 3.7.6 1.2.2 2.3.2 3.3.2 1.8.1 3.1 0 3.1 0M77 70.3s-1-.1-2.5-.1c-.7 0-1.6 0-2.5.1s-1.9.1-2.9.3c-1 .1-2 .3-2.9.5s-1.8.4-2.5.7c-.4.1-.7.2-1 .4-.3.1-.5.2-.7.3l-.6.3s.2-.1.7-.2c.2-.1.5-.1.8-.2s.6-.1 1-.2c.7-.2 1.6-.3 2.5-.5s1.9-.3 2.9-.4 2-.3 2.9-.3c.9-.1 1.8-.2 2.5-.3 1.3-.3 2.3-.4 2.3-.4"/><path fill="#eff4f9" d="M185 70.2c5.2 9.6 6.7 21.2 3.4 30.7-6.8 19.7-38.6 21.1-61.3 13.4-9.6-3.2-13.4-.1-34.9-2.2-12.7-1.2-27.1-16.7-21-32.7 6.1-15.9 23.2-22.5 37.3-16.1 16.8 7.8 42.5-2 48.5-5.7 5.3-3.3 22.7 3 28 12.6"/><path fill="#eff4f9" d="M186 72.6s3.2 8 5.8 8.6c0 0-2.5 0-3.3-1.8 0 0 3.5 3 3.6 5.6 0 0-.7-1.5-1.7-1.5 0 0 2.8 3.9-.4 7"/><path fill="#d4dbe7" d="M127 114.4s.8.3 2.2.7 3.4 1.1 5.9 1.7c1.2.3 2.6.6 4 .9.7.1 1.4.3 2.2.4.7.1 1.5.2 2.3.3 1.6.3 3.2.4 4.8.5 1.7.1 3.3.2 5 .2h2.5c.8-.1 1.7-.1 2.5-.2.4 0 .8-.1 1.2-.1.4-.1.8-.1 1.2-.2l2.4-.3c1.6-.3 3-.6 4.5-1q2.1-.6 3.9-1.2c1.2-.5 2.2-.9 3.2-1.3.5-.2.9-.4 1.3-.6s.7-.4 1.1-.6c1.3-.7 2-1.1 2-1.1s-.8.4-2.1 1c-.3.2-.7.3-1.1.5s-.8.4-1.3.6c-1 .4-2 .8-3.2 1.2-1.2.3-2.5.7-3.9 1.1-1.4.3-2.9.6-4.4.9l-2.4.3c-.4 0-.8.1-1.2.2-.4 0-.8.1-1.2.1-.8.1-1.6.1-2.5.2h-2.5c-1.7.1-3.3-.1-5-.1-1.6-.2-3.3-.2-4.8-.5-1.6-.2-3.1-.4-4.5-.7-1.4-.2-2.8-.5-4-.8-2.5-.5-4.5-1-5.9-1.4-1.4-.5-2.2-.7-2.2-.7M189.5 86.7s.2.9.3 2.2c.1.7.1 1.5.1 2.3s0 1.7-.1 2.6c0 .4-.1.9-.1 1.3-.1.4-.1.9-.2 1.3l-.3 1.2c-.1.4-.2.7-.3 1.1l-.3.9c-.1.3-.2.5-.2.7-.1.4-.2.6-.2.6l.3-.6c.2-.4.5-.9.7-1.5.1-.3.3-.7.4-1 .1-.4.3-.8.3-1.2.1-.4.2-.9.3-1.3.1-.5.1-.9.2-1.4.1-.9.1-1.9 0-2.7-.1-.9-.2-1.7-.3-2.3-.2-1.4-.6-2.2-.6-2.2"/><path fill="#d4dbe7" d="M190 90.5s.5-.2.9-.8c.2-.3.5-.7.6-1.1.2-.4.2-1 .2-1.5s-.1-1-.2-1.4-.3-.8-.5-1.2c-.2-.3-.4-.6-.5-.7-.1-.2-.2-.3-.2-.3s0 .1.1.3.2.5.3.8q.15.45.3 1.2c.1.2.1.4.1.6v1.4c0 .2 0 .4-.1.6-.1.4-.2.8-.4 1.1-.3.7-.6 1-.6 1M192 85s.1-.3.1-.7c0-.5-.2-1-.4-1.6-.3-.5-.7-1-1.1-1.3s-.6-.4-.6-.4 0 .1.1.2.2.3.3.4c.2.4.5.8.8 1.3s.5 1 .6 1.4c.1.5.2.7.2.7M191.7 81.2l-.8-.8c-.4-.5-1-1.1-1.5-1.8s-1-1.4-1.4-1.9c-.2-.3-.3-.5-.4-.7s-.2-.3-.2-.3 0 .1.1.3c0 .2.1.5.2.8s.3.7.5 1.1.4.8.7 1.1c.6.7 1.2 1.3 1.8 1.7s1 .5 1 .5M108.4 63.4s.5.2 1.5.5c.9.3 2.3.8 3.9 1.3.8.2 1.7.5 2.7.7l3 .6 3.3.3h1.7c.6 0 1.1 0 1.7-.1 1.1-.1 2.3-.2 3.4-.3 1.1-.2 2.2-.3 3.3-.5 2.1-.4 4.1-.9 5.7-1.3 1.7-.4 3-.8 4-1.1s1.5-.5 1.5-.5-.6.1-1.5.3c-1 .2-2.4.5-4 .9-1.7.4-3.6.7-5.7 1.1-1 .2-2.1.3-3.2.5-1.1.1-2.2.2-3.4.3-.6 0-1.1.1-1.7.1h-1.7c-1.1 0-2.2-.1-3.3-.2-1-.1-2.1-.3-3-.5q-1.5-.3-2.7-.6c-1.7-.4-3-.8-4-1-1-.3-1.5-.5-1.5-.5"/><path fill="#fcccba" d="M208.3 15.8s-11.4-2-20-2.1c0 0 5.1 2.8 7 3.9 0 0-5.3-1.1-8.7.6s-9.9.8-9.9.8 2 3.3 6.6 3.8c0 0-4.4 1.3-10.6 3.3-2.1.7-6.5.4-6.5.4s3 3.5 7.7 2.9c0 0-4.4 1.4-8.5 4.5 0 0 3.1-.1 6.6.3 0 0-3.6-.2-10 4.2-8 5.4-10.4 12.3-14.3 12.5 0 0 2.9 2.1 7.2.7 0 0-1.8 3.3-6.7 5 0 0 7.1 3.3 16.4-1.3 7.2-3.6 43.7-39.5 43.7-39.5"/><path fill="#e0a0a0" d="M148.2 56.5s.1.1.4 0c.2 0 .6-.1 1-.2.8-.3 1.7-.9 2.5-1.6s1.5-1.5 2.1-2.1c.5-.6.8-1.1.8-1.1s-.4.3-1.1.8c-.6.5-1.4 1.2-2.2 1.9s-1.6 1.3-2.3 1.8c-.3.2-.6.4-.8.4-.3.1-.4.1-.4.1M147.4 50.7s.1.1.3.1.6 0 1-.1.9-.3 1.4-.6q.75-.45 1.5-1.2c.5-.5 1.1-1 1.6-1.6s1.1-1.3 1.6-2c1.1-1.4 2.3-2.8 3.6-4.1.6-.7 1.3-1.3 2-1.9s1.4-1.1 2.2-1.5c.7-.5 1.5-.9 2.2-1.2s1.4-.7 2-.9c1.3-.6 2.4-1 3.2-1.2.8-.3 1.2-.4 1.2-.4s-.5.1-1.2.3c-.8.2-1.9.5-3.2 1q-1.05.3-2.1.9c-.7.3-1.5.7-2.3 1.2s-1.5 1-2.3 1.5c-.7.6-1.4 1.2-2.1 1.9-1.4 1.3-2.5 2.8-3.6 4.2-.5.7-1.1 1.4-1.6 2s-1 1.2-1.5 1.7c-1 1-1.9 1.7-2.6 2-.4.2-.7.2-.9.2-.3-.2-.4-.3-.4-.3M165.2 33.9s.5-.3 1.3-.8 1.9-1.1 2.9-1.7c1.1-.6 2.2-1.1 3-1.5l1-.5.4-.2s-.2 0-.4.1c-.3.1-.7.1-1.1.3-.5.1-1 .3-1.5.5s-1.1.5-1.7.8c-1.1.6-2.1 1.3-2.8 1.9s-1.1 1.1-1.1 1.1M165.9 26.3s1.1.1 2.8.2c.8 0 1.8.1 2.9 0s2.2-.4 3.2-.8c1.1-.4 2-1 3-1.3q1.5-.6 2.7-.9c1.6-.5 2.7-.7 2.7-.7s-1.1 0-2.8.4c-.8.2-1.8.4-2.8.7s-2 .8-3 1.2c-.5.2-1 .4-1.5.5l-1.5.3c-1 .1-2 .2-2.8.2-1.8.2-2.9.2-2.9.2M176.8 18.9s1.1.4 2.9.5c.9 0 1.9.1 3 0 .6-.1 1.1-.1 1.7-.2s1.2-.2 1.7-.4c.6-.1 1.1-.4 1.7-.5.5-.2 1.1-.3 1.6-.4 1.1-.2 2.1-.4 2.9-.4.9 0 1.6 0 2.1.1s.8.1.8.1-.3-.1-.8-.2-1.2-.3-2.1-.3-1.9 0-3 .2c-.5.1-1.1.3-1.7.4-.6.2-1.1.4-1.7.5s-1.1.3-1.7.4-1.1.2-1.7.3c-1.1.1-2.1.2-3 .2-1.6-.2-2.7-.3-2.7-.3M188.5 13.5s1 .2 2.5.4c.8.1 1.6.2 2.6.3l3 .3c1 .1 2 .1 3 .2s1.9.1 2.6.1c1.5.1 2.6 0 2.6 0s-1-.2-2.5-.4c-.8-.1-1.6-.2-2.6-.3l-3-.3c-1-.1-2-.1-3-.2s-1.9-.1-2.6-.1z"/><path fill="#eff4f9" d="M200.5 21.1s-25 14.3-38.8 32 17.8 35.1 25 29.3 17.4-22.7 18.5-32.6 2.6-30.7-4.7-28.7"/><path fill="#dce2ef" d="M202.3 21.9s-2.1-5.4 4.8-12.6c4.3-4.5 3.7-10.1 5.8-9.2s7 17-1.5 22.5c-5.1 3.3-7.6 3.8-9.1-.7"/><path fill="#bcc4d4" d="M212.7 2.7s0 .3.1.8.1 1.3.2 2.2c0 .4 0 .9.1 1.4v1.6c0 1.1 0 2.3-.2 3.5 0 .6-.1 1.2-.2 1.7-.1.6-.2 1.1-.4 1.6-.1.5-.3 1-.5 1.5s-.5.9-.7 1.2c-.3.3-.5.7-.8.9s-.5.5-.7.6c-.5.3-.7.4-.7.4s.3-.1.8-.3c.3-.1.5-.3.8-.5q.45-.3.9-.9c.3-.4.6-.8.8-1.2.1-.2.2-.5.4-.7.1-.3.2-.5.3-.8.2-.5.3-1.1.4-1.7l.3-1.8c.1-1.2.1-2.4.1-3.6 0-1.1-.2-2.2-.3-3.1z"/><path fill="#eff4f9" d="M225.6 27.5c2.4 4.4 16.9 15.9 14 23.8-2.1 5.8-6.4 4.9-14.1 3.2-.7-.2-4.6.7-8.5.6-21.1-.6-25-7.6-27.1-17.7s4.4-19.9 14.5-22c9.9-2.1 16.2 2.4 21.2 12.1"/><ellipse cx="20.916" cy="21.1" fill="#9098a4" rx="1.3" ry="2.7" transform="rotate(-179.655 120.084 6.702)scale(1 -1)"/><path fill="#d4dbe7" d="M236.4 50.4c-.8-.4-.8-2.4.8-1.5s.7 2.2-.8 1.5"/><path fill="#9098a4" d="M218.5 32.9s.2 0 .5-.1.6-.4.9-.7.4-.7.5-1v-.5s-.1.2-.3.4-.4.5-.6.8-.5.6-.6.8c-.3.1-.4.3-.4.3"/><path fill="#bcc4d4" d="M235.9 48.9s-.1.2-.2.5 0 .8.3 1.1q.3.3.6.3h.5c.3-.1.4-.2.4-.2s-.2-.1-.5-.1c-.3-.1-.5-.2-.7-.3s-.3-.4-.4-.7c.1-.4 0-.6 0-.6M236.4 55.3s-.5-.3-1.2-.6-1.7-.7-2.7-1-2-.5-2.8-.6-1.3 0-1.3 0 .1 0 .3.1q.3.15.9.3c.7.2 1.7.5 2.7.8s2 .5 2.8.7 1.3.3 1.3.3"/><path fill="#d4dbe7" d="M216.9 55.1s-1-.1-2.5-.2c-.7 0-1.6-.1-2.5-.2s-1.9-.1-2.9-.3c-1-.1-1.9-.2-2.9-.4q-1.35-.3-2.4-.6c-.7-.2-1.3-.4-1.7-.6s-.6-.2-.6-.2.2.1.6.4c.2.1.4.2.7.4.3.1.6.3.9.4.7.3 1.5.6 2.4.8 1 .2 2 .3 3 .5 1 .1 2 .2 2.9.2h2.6c1.4-.1 2.4-.2 2.4-.2"/><path fill="#fcccba" d="M209.5 13s6.8-1.4 11.1 2.7 7.3 2.8 7.3 2.8-4 2.4-6.2.6c0 0 5.5 2.5 6 7.1l-2.9-2.5s3.4 3.9 1.6 6.2c0 0-2.5-5.3-5.4-6.8 0 0 1.6 2.6 1.8 3.6 0 0-7.6-.8-10-6.6-2.4-5.7-5.7-4-5.7-4s-1.1-2 2.4-3.1"/><path fill="#e0a0a0" d="M222.7 26.7s-.6-.2-1.4-.5c-.9-.3-2-.7-3-1.2-.5-.2-1.1-.5-1.5-.8-.2-.1-.5-.3-.7-.4s-.4-.3-.6-.4c-.3-.3-.7-.5-.8-.7l-.3-.3s.1.1.2.4c.1.2.4.5.7.9.3.3.7.7 1.2 1s1 .6 1.6.9c.6.2 1.1.5 1.7.6q.9.3 1.5.3c.8.2 1.4.2 1.4.2M221 23.1l1 1c.6.6 1.3 1.4 1.9 2.3.3.4.6.9.9 1.3s.6.8.8 1.2c.2.3.4.6.6.8.1.2.2.3.2.3s0-.1-.1-.4c-.1-.2-.2-.6-.3-1-.2-.4-.4-.8-.6-1.3-.3-.5-.6-.9-.9-1.4-.4-.4-.7-.9-1.1-1.2-.4-.4-.8-.7-1.1-.9-.8-.5-1.3-.7-1.3-.7M227.6 26.2s.1-.7-.1-1.7c-.1-.5-.3-1.1-.6-1.6-.3-.6-.7-1.1-1.2-1.6-.3-.2-.5-.5-.8-.7s-.5-.4-.8-.6c-.5-.3-1.1-.6-1.5-.7q-.75-.3-1.2-.3c-.3-.1-.4-.1-.4-.1s.1.1.4.2.6.3 1 .6c.2.1.4.3.7.4.2.2.5.3.7.5.5.4 1 .8 1.4 1.2.2.2.4.5.6.7s.4.5.5.7c.3.5.6 1 .8 1.4.4.9.5 1.6.5 1.6M227.9 18.5s-.2 0-.6.1c-.4 0-.9 0-1.5-.1-.3-.1-.6-.1-.9-.2s-.7-.3-1-.4c-.3-.2-.7-.4-1-.6s-.7-.5-1-.8c-1.3-1-2.5-2.2-3.7-2.8-.6-.3-1.1-.4-1.5-.4h-.6s.2 0 .6.1.8.3 1.3.6c1 .7 2.2 1.9 3.5 2.9.3.3.6.5 1 .8.3.3.7.5 1.1.6.7.3 1.5.5 2.1.5s1.2-.1 1.5-.2c.5 0 .7-.1.7-.1"/><path fill="#eff4f9" d="M212.3 16.8c-1.7-.4-.5-2.9 1.5-3.1 0 0-.6-1.8 1.9-3 0 0 .3-2.6 1.9-2.9 0 0-.4-1.8 1.9-2.6 0 0 .2-1.5 1.9-2.1 0 0 1.1-1.8 2.2-2.2.9-.4-.6 2.2-.6 2.2s-.1 2-1.2 2.2c0 0 .7 1.2-1.5 2.7 0 0 .6 1.5-1.8 2.8 0 0 1.3.6-1.3 3.1 0 0 .3 2.9-1.9 2.9-2.1.1-2.8.1-3 0"/><path fill="#fcccba" d="M211.3 14s4.6 2.7 7.6 3.3c0 0-4.4 2.2-7.2-.2-.7-.6-1.7-.7-.4-3.1"/><path fill="#e0a0a0" d="M210.8 14.1s.4.2 1 .6c.6.3 1.5.7 2.3 1.1s1.7.8 2.3 1.1c.3.2.6.3.8.4s.3.2.3.2-.3-.4-.8-.9c-.6-.5-1.4-.9-2.3-1.3s-1.8-.7-2.5-.9c-.6-.2-1.1-.3-1.1-.3"/><path fill="#eff4f9" d="M194.1 22.4S192 17 198.9 9.8c4.3-4.5 3.7-10.1 5.8-9.2s7 17-1.5 22.5c-5 3.3-7.5 3.8-9.1-.7"/><path fill="#d4dbe7" d="M204.5 3.2s0 .3.1.8.1 1.3.2 2.2c0 .4 0 .9.1 1.4v1.6c0 1.1 0 2.3-.2 3.5 0 .6-.1 1.2-.2 1.7-.1.6-.2 1.1-.4 1.6-.1.5-.3 1-.5 1.5s-.5.9-.7 1.2c-.3.3-.5.7-.8.9s-.5.5-.7.6c-.5.3-.7.4-.7.4s.3-.1.8-.3c.3-.1.5-.3.8-.5q.45-.3.9-.9c.3-.4.6-.8.8-1.2.1-.2.2-.5.4-.7.1-.3.2-.5.3-.8.2-.5.3-1.1.4-1.7l.3-1.8c.1-1.2.1-2.4.1-3.6 0-1.1-.2-2.2-.3-3.1-.3-1.6-.7-2.8-.7-2.8"/><path fill="#bcc4d4" d="M171 148.5c-1.3 2.1 3.5 11.8 3.5 11.8 6.3-5.4 4.2-7.4 5.3-8.5-3.1-.9-4.6-3.2-5.6-4.9-1 .6-3.2 1.6-3.2 1.6"/><path fill="#eff4f9" d="M176.8 145.7s-5.2 2-6.5 1.1c0 0 1 1.7 3.3 1 0 0-2.3.3-1.9 2.1 0 0 1.7-.8 3.9-1.2 0 0-3.3 1.5-2.3 4.3 0 0 .4-1.2 2.1-1.9 0 0-.4 1.5.1 3.1 0 0 .8-1 1.8-2.1 0 0-1.3 2.5-.6 4.2 0 0 1.3-.4 1.7-1.8 0 0 .4 1.1 1.3 1.9 0 0 1.6-5.3 2.8-7.3"/><path fill="#eff4f9" d="M161.9 73.3c3.9 4.9 17.4 24.4 14.2 37.7 0 0 14 10.7 15.5 12.5s-5.6 20.2-6.8 22.2-3.3 5.4-3.3 5.4l-6.3-4.6s1.1-.9 3.3-3.7 1.6-9.1 2.1-12.6c0 0-24.5-3.9-25.4-8.9-1.6-8.9-9.3-22.2-9.3-22.2"/><path fill="#d4dbe7" d="M166.4 127.1s-1.8-.8-4.5-1.7c-1.4-.5-3-1-4.6-1.8-.8-.4-1.5-1-1.9-1.8s-.5-1.7-.7-2.7c-.4-1.9-1.1-3.7-1.6-5.5-.6-1.7-1.2-3.3-1.8-4.6-1.1-2.7-1.9-4.4-1.9-4.4s.6 1.8 1.6 4.6c.5 1.4 1 3 1.6 4.7s1.1 3.6 1.5 5.4c.2.9.4 1.9.8 2.8.5.9 1.3 1.6 2.1 2s1.7.7 2.5 1c.8.2 1.5.5 2.2.7 2.9.8 4.7 1.3 4.7 1.3M176.6 111.1s.2-1.6.1-4c0-.6-.1-1.3-.1-1.9-.1-.7-.1-1.4-.2-2.2-.2-1.5-.4-3.1-.8-4.7-.2-.8-.4-1.6-.6-2.3-.2-.8-.4-1.5-.6-2.2s-.5-1.4-.7-2.1-.5-1.3-.7-1.8c-.4-1.1-.9-2-1.2-2.6l-.5-1s.1.4.4 1c.1.3.3.7.5 1.2s.3 1 .5 1.5l.6 1.8c.2.7.4 1.3.6 2.1.2.7.4 1.5.6 2.2.2.8.4 1.5.5 2.3.4 1.6.6 3.1.9 4.6.2 1.5.4 2.9.5 4.1.1 2.3.2 4 .2 4"/><path fill="#eff4f9" d="M117.9 102.3c1.8 13.8 1 34 1 34s7.1 15.4 17.2 25.3c4.2 4.1 8.9 9.4 7.4 9.9-1.1.4-5.8 2.7-7.7 1.8-2.9-1.4-4.7-6.4-5.1-7.6-1.3-4.1-30.8-26.2-28.3-31.1 2.4-4.9-8.5-18.4-15.6-22.1-12.6-6.6-23.8-34.4-6.1-38.7 17.7-4.5 35.3 13.3 37.2 28.5"/><path fill="#d4dbe7" d="M119.1 136.1s.1-3.1.1-7.7c0-2.3 0-5 .1-7.9 0-2.9 0-6-.1-9.1 0-1.5-.1-3.1-.2-4.6-.1-.8-.2-1.5-.2-2.3-.1-.7-.2-1.5-.3-2.2-.2-1.4-.6-2.8-1-4.1s-.9-2.4-1.5-3.5c-.3-.5-.5-1-.8-1.5-.3-.4-.5-.9-.8-1.3-.6-.8-1-1.4-1.4-2-.8-1.1-1.3-1.7-1.3-1.7s.4.6 1.2 1.7c.4.5.8 1.3 1.3 2 .3.4.5.8.7 1.3.3.5.5.9.8 1.5.5 1 1 2.2 1.4 3.4.4 1.3.7 2.6.9 4 .1.7.2 1.4.3 2.2.1.7.1 1.5.2 2.2.1 1.5.2 3 .2 4.6.1 3.1.1 6.2.2 9.1 0 2.9.1 5.6.1 7.9s.1 4.2.2 5.6c-.1 1.7-.1 2.4-.1 2.4M106.6 142s-.1-.1-.4-.3c-.2-.2-.6-.6-1-1.1s-.9-1.1-1.4-1.8-1.1-1.5-1.5-2.5c-.1-.2-.2-.5-.2-.7 0-.1 0-.2.1-.3s.1-.3.2-.4c.2-.5.4-1.2.4-1.8.1-1.3-.3-2.6-.8-3.8-.2-.6-.6-1.3-.9-1.9s-.6-1.2-1-1.9c-.7-1.2-1.5-2.5-2.4-3.6-1.8-2.3-4-4.1-6.2-5.7-1.1-.8-2.1-1.5-3.1-2.2s-1.9-1.4-2.8-2.1c-.8-.7-1.6-1.3-2.2-1.9s-1.2-1.1-1.7-1.5l-1.4-1.4 1.4 1.4c.4.5 1 1 1.6 1.6s1.4 1.3 2.2 2 1.7 1.4 2.7 2.2c1 .7 2 1.5 3.1 2.3 2.1 1.6 4.3 3.4 6.1 5.7.9 1.1 1.6 2.3 2.3 3.5.4.6.7 1.2 1 1.8l.9 1.8c.5 1.2.9 2.4.9 3.6 0 .6-.1 1.2-.3 1.7 0 .1-.1.3-.2.4s-.1.4-.1.5c0 .3.2.6.3.8.5 1 1.1 1.8 1.6 2.5s1 1.3 1.4 1.7c.4.5.8.8 1 1z"/><path fill="#bcc4d4" d="M136.8 177.2c2.7.5 6.7 1.4 9.4.3 0 0-.5-3.5-1.7-6.2-3 1.1-6.9 1.7-9.1 2 1 1.8 1.4 3.9 1.4 3.9"/><path fill="#eff4f9" d="M134.1 172s1.5 2.5.7 4.6c0 0 1.3-.7 1.4-2.2 0 0 .6 1.8 2 1.6 0 0-.6-1.6 0-2.5 0 0 1 2 2.2 1.9 0 0-.9-2.2-.5-3.1 0 0 2.1 1.1 2.3 2.9 0 0 .7-1.4.1-2.4 0 0 1.8.5 1.9 1.7 0 0 .4-1.9-.9-3.1 0 0 1.4 1.8 3.3.8 0 0-2.2-.3-3.5-2.5"/></g></svg>