<svg xmlns="http://www.w3.org/2000/svg" width="36.199" height="50.184" viewBox="4.936 2.941 36.199 50.184"><path d="M40.492 21.31c.013-.393.143-2.348.143-2.348l-6.582-1.358s-.204-1.224-.362-2.876l-.261-2.769-3.256-.094-2.219-7.236a10 10 0 0 0-2.173-.859 12.7 12.7 0 0 0-2.757-.292S20.461 4.973 20.4 5.205l-3.675 14.1S27.701 31.182 28.75 32.323c.49.535 1.482 2.128 2.192 2.356.599.192.617-.03 1.342-.4 1.576-.801 3.052-1.964 4.537-2.924.604-.39 3.275-2.162 3.275-2.162s.327-5.726.396-7.883"/><path fill="#f0e6d2" d="m40.098 29.185-1.853-.215-2.638.503-6.374-1.77-2.457-6.468.267-5.148-6.104-1.186L23 3.44s-3.392.122-3.922.236a11.2 11.2 0 0 0-4.558 2.227c-5.18 4.01-7.869 11.211-8.735 17.533-.953 6.954-.015 14.124 3.663 20.23 1.907 3.17 4.416 4.955 7.45 6.955.508.343 3.887 1.917 6.625 1.998 3.926.114 7.597-1.466 8.6-2.405a42 42 0 0 0 2.869-2.995 14.8 14.8 0 0 0 2.76-4.648c2.228-5.88 2.347-13.387 2.347-13.387"/><path fill="linen" d="M8.774 37.47c.881 3.015 2.511 6.57 5.06 7.929.638.338 1.462.747 2.155.663a3.05 3.05 0 0 0 1.18-.503 12 12 0 0 0 1.486-1.907c.857-1.895 1.063-3.968 1.43-5.848a27 27 0 0 0 .388-4.395c.028-1.037.023-2.318-.26-3.32-.687-2.449-2.545-4.377-4.594-4.877a7 7 0 0 0-2.67-.348c-.861.125-1.7.373-2.49.736-2.251 1.514-2.49 5.127-2.497 6.101a20.8 20.8 0 0 0 .812 5.768"/><path fill="#ffdc00" d="M26.776 21.235s-.479 2.893-1.043 6.363c-.806 4.947-1.057 7.006-2.005 11.883-.947 4.875 2.945 7.16 4.444 1.941 1.499-5.218 1.314-5.05 1.952-8.328s1.394-3.499 1.983-3.347c.589.15 1.157.712 1.07 2.404-.163 3.35-.426 4.533 1.817 4.969s3.251-8.137 3.251-8.137l-3.127-.63-1.122-6.454z"/></svg>