<svg xmlns="http://www.w3.org/2000/svg" width="119.005" height="88.37" viewBox="0 0 119.005 88.37"><g fill="none" stroke-miterlimit="10" data-paper-data="{&quot;isPaintingLayer&quot;:true}" font-family="none" font-size="none" font-weight="none" style="mix-blend-mode:normal" text-anchor="none"><path fill="#ff9cd1" d="M11.488 71.72c.837.73.558 1.756.558 1.756l14.397-2.34-.56 3.661 2.656 3.222-19.917 1.095-.559-2.78.21-2.271s1.398-2.488 3.215-2.343" data-paper-data="{&quot;origPos&quot;:null}"/><path fill="#272525" d="M12.504 72.654c4.6-.015 13.863-1.79 13.863-1.79s.763 1.257-.298 1.612c-.957.321-12.774 1.854-14.506 2.02l-.514-2.24c-2.695.667-2.311 4.049-.897 5.782 6.053-.048 12.087-.672 18.14-.718.44.584 1.264.794 1.54 1.48-5.415-.181-10.824.293-16.223.674-2.452.172-6.162 1.006-7.502.227C2.525 77.624-1.725 61.187.726 61.396c5.996.517 10.728 6.211 11.778 11.258" data-paper-data="{&quot;origPos&quot;:null}"/><path fill="#ff5ba1" d="M5.53 65.349c-1.112 1.867-.053 5.508 2.225 5.691 1.05.085 2.568-1.825 2.91 0-2.91 1.435-4.288 3.898-2.482 6.995 0 0-1.126.5-2.216-.312-1.09-.81-5.329-14.362-4.053-14.424 1.537-.074 3.315 1.056 3.616 2.05" data-paper-data="{&quot;origPos&quot;:null}"/><path fill="#ff9cd1" d="M9.51 69.25c-.783 1.544-4.038-.49-2.268-2.913.998.737 1.723 1.775 2.267 2.912M110.727 74.063l.213 2.27-.562 2.781-19.917-1.095 2.657-3.222-.56-3.661 14.397 2.34s-.28-1.025.559-1.756c1.818-.145 3.214 2.343 3.213 2.343" data-paper-data="{&quot;origPos&quot;:null}"/><path fill="#272525" d="M118.28 61.396c2.45-.209-1.8 16.228-5.382 18.305-1.341.779-5.05-.055-7.503-.227-5.4-.38-10.807-.855-16.224-.675.277-.685 1.1-.895 1.54-1.479 6.053.046 12.088.67 18.141.718 1.413-1.733 1.798-5.115-.9-5.783l-.513 2.24c-1.73-.165-13.55-1.698-14.504-2.019-1.063-.355-.298-1.612-.298-1.612s9.26 1.775 13.86 1.79c1.051-5.047 5.783-10.741 11.782-11.258" data-paper-data="{&quot;origPos&quot;:null}"/><path fill="#ff5ba1" d="M117.09 63.3c1.274.06-2.964 13.612-4.055 14.423-1.09.812-2.214.312-2.214.312 1.805-3.097.425-5.56-2.483-6.995.342-1.825 1.858.085 2.909 0 2.28-.183 3.337-3.824 2.226-5.691.299-.994 2.078-2.124 3.616-2.05" data-paper-data="{&quot;origPos&quot;:null}"/><path fill="#ff9cd1" d="M111.762 66.337c1.768 2.423-1.488 4.457-2.269 2.912.543-1.137 1.27-2.175 2.269-2.912" data-paper-data="{&quot;origPos&quot;:null}"/><path fill="#ff5ba1" d="M49.431 49.097c-.384-2.523-1.187-4.756-.35-6.953.644-1.685 2.83-.039 4.613-.148.42 3.77 2.061 8.349 5.59 7.76 3.39-.549 4.054-4.612 4.054-8.199 2.936 0 3.355-.807 3.355 2.27 0 4.467.84 12.814.698 16.472 1.327 0 2.07-1.792 3.284-1.097.87.497 1.783 1.975 3.006 1.975 2.009 0 5.019-1.208 6.848-.51 1.449.552 1.868 2.783 2.517 4.32 1.395 3.334 5.345.623 7.965 3.002 2.34 2.121 1.82 7.43-.837 9.153-2.272 1.462-3.146-.074-5.66.805-2.201.77-3.32 3.955-5.521 4.612-2.2.658-3.635-.733-5.87-.148-1.817.477-1.817 2.633-3.495 3.514-1.572.805-3.423-.661-5.031-1.318-3.04-1.28-4.647.367-7.828 1.318-3.109.954-5.24-2.964-8.105-1.463-3.005 1.575-5.031 1.463-8.246 2.49-2.621.839-4.927-1.908-5.451-4.687-.629-3.185-3.843-3.185-6.43-4.978-2.62-1.834-3.074-5.384-1.676-8.35 1.572-3.294 5.555-2.963 9.014-3.367 3.53-.44 3.67-3.698 6.919-5.128 3.04-1.313 5.311.921 8.177 2.641-.56-5.347-.699-8.607-1.54-13.986" data-paper-data="{&quot;origPos&quot;:null}"/><path fill="#cf8c6e" d="M49.294 49.243c-4.088 0-6.08-2.948-8.455-6.515-2.272-3.425-2.342-6.974-.979-10.913 3.04-8.8 3.704-13.764 10.971-19.623-1.205-1.39-2.148-2.433-2.586-4.243-.156-.642-.472-.842 0-1.247.577-.494 1.276.02 1.956.366.088-1.352.28-2.27 1.119-3.294.629-.787 1.66.274 2.376 1.027.278-.915 1.1-1.723 1.956-1.393.839.33.63 1.41.63 2.342 0 1.846-.7 2.836-.839 4.687.979-.421 1.747-.785 2.726-.366.75.312.226 1.868-.56 2.123-2.255.731-4.28.53-5.52 2.636-1.713 2.876-2.708 4.448-4.262 7.396-.752 1.446-.665 2.638-1.609 3.953 1.468.603 17.802 1.318 21.734 1.318.228-2.893-.402-4.504-.63-7.394-.192-2.471-2.025-7.231-2.794-7.542-1.31-.55-1.852-.184-3.144-.733-.68-.292-1.067-1.115-.769-1.83.576-1.391 2.183-.804 3.635-.804-.14-2.363-.14-3.717-.14-6.079 0-.586-.07-1.023.279-1.462.315-.405.927-.276 1.12.218.401.97.661 2.104 1.048 3.076.804-1.134.785-2.142 1.676-3.22.63-.768 1.975-1.482 2.447-.588 1.066 1.997-.385 3.589-.979 5.784 1.082-.567 1.8-.877 3.007-.877 0 2.964-2.797 3.585-4.475 6.002.91 1.976 3.513 8.732 4.125 12.3.854 4.941 2.934 11.2 2.095 15.742-.53 2.873-1.03 5.268-3.355 6.88-1.608 1.116-4.262 1.758-4.262 1.758s-.42-3.496-.42-5.566c-.68-.475-3.405.715-3.843 1.17-.595.623-.033 1.41-.208 2.27-.455 2.144-2.325 3.298-4.405 3.298-2.533 0-4.193-2.436-5.1-4.906-.577-1.592-2.378-1.117-3.984-1.463-.37 2.342.104 3.369.418 5.712" data-paper-data="{&quot;origPos&quot;:null}"/><path fill="#272525" d="M66.88 4.178c.74-1.506 1.7-3.731 2.866-4.075 3.004-.89 1.657 4.219.812 5.69.614-.152 2.082-.74 2.483.091.985 2.044-3.13 4.781-4.193 5.92 1.133 4.275 2.674 8.062 4.107 12.373 4.15 12.473 2.822 22.064-4.236 25.594-.454.224-1.607.208-1.536-1.113 9.781-4.321 6.1-16.664 4.615-23.41-1.019-4.628-1.835-7.382-3.678-11.699-.268-.627-.931-1.946-.814-2.6 1.677-1.139 5.247-3.017 4.698-4.024-.55-1.008-2.727 1.903-4.194 1.833.066-1.417 3.992-5.968 2.363-7.177S66.065 8.17 66.065 8.17s-.001-5.858-1.118-6.076c-1.119-.219.236 6.119.305 7.69-1.146.692-3.462-.702-3.722 1.255-.078 1.013 2.683.474 3.101.79 3.119 2.37 4.371 11.663 4.603 15.482.158 2.644.534 6.922-1.756 8.382-.341-.04-.551-.323-.684-.627 2.232-3.196 1.159-16.352-2.475-21.881-1.405-.742-5.294.225-4.541-2.999.402-1.718 2.507-1.207 3.72-1.613.162-2.787-1.042-7.511.85-8.095 1.891-.582 2.128 2.364 2.532 3.7M55.995 9.335c1.076-.012 2.763-.135 3.08 1.3.53 2.392-3.806 2.73-5.134 3.004-5.389 6.21-11.428 16.407-5.306 24.21-.23.544-.462 1.098-.513 1.702-1.006-.307-2.327-1.652-2.91-2.555-2.787-4.323-.42-12.604 2.268-16.45 1.027-1.47 4.852-8.04 6.375-8.204.763-.084 3.875-.589 3.68-1.612-.157-.836-2.058.303-3.08.446 0 0 2.176-6.7.94-6.996-1.083-.254-1.167 3.736-2.054 5.47 0 0 .005-5.576-.94-5.378-1.683.354-.367 4.97-.522 5.986-.943-1.902-2.272-3.699-2.73-3.387-1.377.933 2.059 4.057 2.52 5.472-1.398 1.318-3.7 3.866-4.882 5.405-4.101 5.353-7.087 12.11-6.794 19.11.347 8.283 8.998 10.69 9.027 10.758.212.484.808 1.964.553 2.433-3.91.21-7.836-3.929-9.495-7.272-4.449-8.968 3.555-26.041 10.183-30.662-1.036-1.877-3.508-3.718-2.053-6.096.529-.865 1.165-.987 1.967-.359.247-.865.577-2.994 1.541-3.32.724-.24 1.918.726 1.925 1.525.342-.723.797-1.469 1.54-1.612 2.708-.527 1.373 5.284.814 7.082" data-paper-data="{&quot;origPos&quot;:null}"/><path fill="#272525" d="M49.364 40.893c1.112 7.983 1.855 17.258 2.412 25.462.053.785-1.504 1.337-1.626.315-.767-6.453-1.883-23.58-1.754-26.046.985.089.625-.311.968.27M66.281 40.983c.247.001.487.298.514.537.283 2.551 2.282 24.112 2.225 24.296-.118.369-.638.427-.898.221-1.314-1.018-2.382-22.182-1.84-25.054" data-paper-data="{&quot;origPos&quot;:null}"/><path fill="#272525" d="M84.25 62.5c.325.822.011 2.085.9 2.555 2.401 1.273 4 .11 6.563 2.418 1.67 1.506 1.996 2.624 2.164 5.115.146 2.13-.784 4.85-2.567 6.051-2.015 1.356-5.483-.92-7.274.627-1.692 1.463-2.456 3.426-4.834 4.078-2.727.753-4.367-2.5-6.59.674-.875 1.246-3.123 2.588-4.619 2.555-2.525-.061-5.15-3.075-7.873-1.393-2.581 1.597-3.84 3.218-7.188 2.6-1.94-.358-2.185-3.297-4.45-2.15-3.524 1.78-6.359 3.75-10.44 2.15-5.454-2.133-3.387-7.288-5.263-8.203-2.442-1.19-8.698-.542-8.6-6.857.075-4.82 5.16-9.855 9.84-7.983.952.382 1.257.986 2.482.092 2.794-2.043 3.217-4.187 6.846-5.022 3.92-.902 6.027 2.634 5.264 2.87-5.441-3.272-7.944 2.508-12.109 3.676-2.899.814-7.41-.218-8.857 3.677-.64 1.722-1.247 4.072-.17 5.691 1.688 2.542 3.62 1.51 5.946 2.15 3.87 1.068 2.523 6.623 7.273 7.618 3.88.82 7.188-2.7 9.456-2.018 2.15.651 3.57 2.583 6.161 1.796 2.158-.658 3.564-3.347 6.246-2.151 9.108 4.056 6.546-4.451 13.778-1.93 2.935 1.027 5.313-1.123 6.975-3.318 2.028-2.68 6.826.639 8.514-4.527.57-1.747-.338-4.32-1.84-5.289-2.648-1.712-6.187.221-7.915-3.763-.72-1.664-1.805-3.061-3.595-3.406-2.28-.444-4.86 2.08-6.759 0-.645-.71-1.08-1.61-2.183-1.078-.248.12-.531.517-.812.178.072-.496.3-.859.63-1.229 1.983-2.222 2.378 2.199 4.206 1.59 5.207-1.729 9.66-.47 10.694 2.157M63.389 42.089c.196 3.13.305 6.512-2.863 8.078-1.341.664-3.8.593-5.19-.161-2.155-1.167-3.003-4.721-3.2-6.83.117-.34 1.01-.808 1.308-.189-.66 6.665 9.393 10.458 8.754-1.088.392-.134.82.024 1.19.19M42.317 33.063a2.96 2.96 0 0 1-.945-3.004c.32-1.21 1.737-.588 2.113-1.76.306-.95.014-1.717.39-2.637.541-1.299 1.626-1.648 2.724-1.318 2.155.658 1.474-2.03 3.559-3.003 1.89-.878 2.67.898 3.56 1.027 1.152.164 1.556-1.684 3.558-1.684s2.308 1.848 3.46 1.684c.892-.13 1.67-1.903 3.56-1.027 2.086.97 1.405 3.661 3.558 3.003 1.1-.33 2.185.02 2.727 1.318.374.915.083 1.687.389 2.638.375 1.171 1.481.771 1.802 1.976.305 1.191.173 2.085-.635 2.782h-29.82z" data-paper-data="{&quot;origPos&quot;:null}"/><path fill="#cf8c6e" d="M71.814 36.778c.746-.506 1.665-.41 2.053.218s.102 1.548-.642 2.054c-.745.506-1.664.41-2.053-.22-.388-.627-.1-1.546.642-2.052" data-paper-data="{&quot;origPos&quot;:null}"/><path d="M70.975 39.053c-.64-1.033-.242-2.499.891-3.27s2.572-.556 3.21.478c.643 1.032.244 2.498-.89 3.268-1.131.772-2.569.557-3.21-.476" data-paper-data="{&quot;origPos&quot;:null}"/><path fill="#272525" d="M70.975 39.053c-.64-1.033-.242-2.499.891-3.27s2.572-.556 3.21.478c.643 1.032.244 2.498-.89 3.268-1.131.772-2.569.557-3.21-.476" data-paper-data="{&quot;origPos&quot;:null}"/><path d="M70.975 39.053c-.64-1.033-.242-2.499.891-3.27s2.572-.556 3.21.478c.643 1.032.244 2.498-.89 3.268-1.131.772-2.569.557-3.21-.476" data-paper-data="{&quot;origPos&quot;:null}"/><path fill="#cf8c6e" d="M43.297 38.83c-.39.63-1.308.726-2.053.22s-1.032-1.426-.644-2.054c.389-.627 1.308-.724 2.052-.218s1.033 1.425.645 2.052" data-paper-data="{&quot;origPos&quot;:null}"/><path d="M40.28 39.529c-1.132-.77-1.532-2.236-.89-3.268.64-1.034 2.08-1.247 3.212-.477s1.532 2.236.89 3.269c-.641 1.033-2.079 1.248-3.212.476" data-paper-data="{&quot;origPos&quot;:null}"/><path fill="#272525" d="M40.28 39.529c-1.132-.77-1.532-2.236-.89-3.268.64-1.034 2.08-1.247 3.212-.477s1.532 2.236.89 3.269c-.641 1.033-2.079 1.248-3.212.476" data-paper-data="{&quot;origPos&quot;:null}"/><path fill="#cf8c6e" d="M72.303 36.514c.74-.512 1.654-.412 2.042.221.384.632.098 1.561-.642 2.072s-1.654.413-2.04-.22c-.389-.635-.102-1.563.64-2.073M42.919 38.586c-.387.634-1.301.732-2.041.221-.739-.512-1.028-1.44-.64-2.072.386-.633 1.3-.733 2.04-.22.74.51 1.027 1.437.64 2.071" data-paper-data="{&quot;origPos&quot;:null}"/><path d="M40.28 39.529c-1.132-.77-1.532-2.236-.89-3.268.64-1.034 2.08-1.247 3.212-.477s1.532 2.236.89 3.269c-.641 1.033-2.079 1.248-3.212.476" data-paper-data="{&quot;origPos&quot;:null}"/><path fill="#272525" d="M41.816 35.624c0-5.376 6.915-9.735 15.445-9.735s15.445 4.359 15.445 9.735c0 5.377-6.915 9.735-15.445 9.735s-15.445-4.358-15.445-9.735" data-paper-data="{&quot;origPos&quot;:null}"/><path fill="#cf8c6e" d="M71.094 35.624c0 3.776-5.379 8.713-13.834 8.713S43.426 39.4 43.426 35.624s5.378-8.051 13.834-8.051c8.456.001 13.834 4.275 13.834 8.051" data-paper-data="{&quot;origPos&quot;:null}"/><g fill="#272525"><path d="M57.046 33.816h-.043c-1.258.017-1.502.811-1.586 1.159-.085.352-.93.464-.996-.01-.036-.241.486-1.981 2.584-2.004h.04c2.1.023 2.618 1.763 2.584 2.003-.067.472-.912.363-.996.01-.085-.346-.331-1.141-1.587-1.158M52.558 36.591c2.75 1.918 6.028 1.97 8.73.14.185-.125.553.335.408.619-.705 1.39-2.535 4.188-4.434 4.206-2.072.02-4.227-2.854-5.099-4.175-.188-.284.177-.943.395-.79M47.808 32.063c1.403-1.624 4.016-2.438 5.368-.77.604.744-.462 1.694-1.066.95-.97-1.2-2.87-.939-3.875.223-.258.3-.686-.105-.427-.403M65.883 32.466c-1.005-1.159-2.905-1.423-3.874-.223-.605.744-1.67-.206-1.068-.95 1.354-1.668 3.966-.854 5.37.77.258.298-.169.703-.428.403" data-paper-data="{&quot;origPos&quot;:null}"/></g><path fill="#272525" d="M40.56 27.644c-1.503.44-.874 2.93-2.376 3.444-1.485.512-2.43-.33-3.914-.88-2.36-.896-3.355 2.232-5.8 2.71-2.167.42-5.59-1.833-4.333-3.81 1.677-1.753-.158-4.54 1.677-6.076 1.275-1.061 2.62-.345 4.053-1.169.629-.367.646-.97 1.188-1.464 1.818-1.664 4.368-.257 5.94 1.61.472.565.524 1.389 1.257 1.463 1.45.163 3.301-.349 3.564 1.17.21 1.281-.087 2.655-1.256 3.002" data-paper-data="{&quot;origPos&quot;:null}"/><path fill="#272525" d="M43.854 29.167c-.597.313-3.245.05-3.82-.705-.688-.901.664-4.361 1.586-4.603.73-.19 3.093.927 3.289 1.845.075.357-.145 2.987-1.055 3.463" data-paper-data="{&quot;origPos&quot;:null}"/><path fill="#ff9cd1" d="M43.773 28.45c-.35.181-2.55-.11-2.83-.477-.28-.365.733-3.15 1.152-3.257.42-.11 2.237.877 2.307 1.207s-.28 2.344-.63 2.527" data-paper-data="{&quot;origPos&quot;:null}"/><path fill="#272525" d="M72.775 26.107c-.35-1.01-.157-2.344.836-2.563 1.172-.257 2.308-.018 2.867-1.099 1.03-1.958 3.336-3.64 5.03-2.268 2.201 1.792 5.033-.956 6.99 1.095 1.607 1.684-.666 4.174.698 6.077.559 1.277.418 2.49-.42 3.584-.801 1.064-2.429 1.265-3.354.294-.472-.496-.718-1.172-1.397-1.099-1.486.184-2.009 1.538-3.495 1.612-2.341.108-3.231-4.248-5.52-3.734-1.049.217-1.992.932-2.585 0-.577-.911.716-.838.35-1.9" data-paper-data="{&quot;origPos&quot;:null}"/><path fill="#272525" d="M69.492 25.704c.194-.918 2.556-2.035 3.286-1.845.922.242 2.273 3.702 1.585 4.603-.573.756-3.22 1.018-3.818.705-.908-.476-1.13-3.106-1.053-3.463" data-paper-data="{&quot;origPos&quot;:null}"/><path fill="#ff9cd1" d="M69.998 25.923c.069-.33 1.885-1.318 2.307-1.207.417.107 1.431 2.893 1.152 3.257-.28.367-2.48.658-2.83.477-.351-.183-.7-2.197-.63-2.527" data-paper-data="{&quot;origPos&quot;:null}"/><g fill="#272525"><path d="M70.688 65.368c6.783-2.154 3.252 3.478 6.247 3.766 1.674.158 4.527-1.813 5.774.535.442.833-.12 2.325 1.199 2.6 1.316.279 2.856-.042 3.594 1.524.345.734-.102 1.55-.812 1.793-3.652 1.25-4.166-4.564-5.734-4.932-1.504-.351-4.196 2.728-5.861.628-1.43-1.801.055-5.272-4.407-5.914M49.209 67.97c-.598.446-1.226-.306-2.053.09-2.754 1.318-1.242 5.02-4.193 5.918-2.525.536-3.68-2.644-6.161-2.242-2.268.536-3.039 5.426-5.862 3.14-.257-.852.17-1.616.642-2.285 2.524-1.93 6.46-3.182 9.328-1.39 2.807 1.754 2.822-4.571 6.032-4.62.898.134 1.968.446 2.267 1.389M70.56 69.045c1.242 1.257.043 3.633 1.884 4.528 1.753.583 4.534.672 4.707 3.317.042 1.029-.31 2.045-1.242 2.466-1.734.784-1.326-3.318-2.652-3.856-1.199-.585-3.209.042-3.595-1.704-.471-1.572 1.017-3.833-2.269-4.754-.17-.803 2.568-.356 3.166.003M50.749 77.338c-2.082 1.464-3.948 1.699-4.407 4.703-.077.512-.624 1.172-1.112 1.3-2.444.647-1.468-2.954-.856-3.988 1.232-2.085 3.756-1.927 5.562-3.093.546-2.791-4.23-5.185 3.595-7.218-5.426 3.482.51 5.98-2.782 8.296M61.744 69.582c-.782 1.26-2.171 1.094-.514 3.991.41.715 1.695 1.677 2.141 2.375 1.15 1.805-3.682 3.577-.6 5.154.461 1.456-1.621 1.366-2.351.942-3.066-1.767 1.395-5.006.81-6.454-.635-1.578-5.406-2.669.514-6.008M53.325 62.641c-.925 0-.782-1.306-.117-1.306s11.42-.237 12.419-.237c.998 0 1.014 1.527.057 1.527-.959 0-11.434.016-12.359.016M66.237 66.494c.605 0 .779.868-.058.868-.835 0-12.025.156-12.771.156s-.968-1.135-.156-1.135c.814.003 12.38.11 12.985.11" data-paper-data="{&quot;origPos&quot;:null}"/></g></g></svg>