<svg xmlns="http://www.w3.org/2000/svg" width="137.262" height="172.943" viewBox="-0.041 0.064 137.262 172.943"><path d="M52.989 104.831c-.677 1.805 3.554 3.959 3.439 5.883 3.904 2.446 9.223 3.941 15.07 13.336s2.688 14.447 3.6 16.361c4.505 1.386 10.106.853 14.703.361 1.806-4.744 1.966-7.121-.476-16.04s-7.658-14.218-11.573-17.862c-5.859-.04-18.779-1.987-24.763-2.039"/><path fill="#be0a3c" d="M74.714 141.012s1.118 9.492-5.589 31.467c2.671.074 7.452 0 10.066-.178v-1.209a27 27 0 0 0-3.48.069c-.441-.733 11.109-17.638 12.365-20.932 1.324-3.488 1.507-7.206 2.757-10.683z"/><path fill="#ffdc00" d="M71.28 154.039h16.188l3.158-9.292H72.043z"/><path fill="#ffc800" d="m91.079 142.599.453-3.999h-20.08l.556 3.999z"/><path fill="#3c3c32" d="M35.116 140.348c1.049 2.354 7.727 8.02 9.538 9.555 3.365-.573 17.713-9.67 20.556-27.125a64 64 0 0 0 .533-16.927H44.86s1.548 9.669-.607 18.904c-1.342 5.705-4.54 9.916-9.137 15.593"/><path fill="#be0a3c" d="M38.578 135.467c-4.936 3.254-10.318 6.771-15.477 7.035-3.256.166-8.684-.573-11.935-.831-3.25-.258-10.707-1.369-10.707-1.369s.114 6.21.172 9.796h1.146l.172-3.26s8.713 5.729 19.742 6.92c9.492 1.014 21.209-2.343 24.568-4.25-.201-.447-7.188-13.17-7.681-14.041"/><path fill="#ffdc00" d="m26.179 140.348 7.16 14.779 8.953-2.835-7.881-16.441z"/><path fill="#ffc800" d="m44.425 151.759 3.8-1.346-8.787-18.045-3.354 2.251z"/><path fill="#824600" d="M21.605 12.437c.825.572 6.448 4.256 6.833 3.689s3.794-7.883 4.098-8.547c-1.164-.058-9.716 3.878-10.931 4.858"/><path fill="#f0e6d2" d="M25.858 12.23c-2.436-2.096-7.326-2.4-9.917-1.667a8.165 8.165 0 0 0-5.732 8.244s.252 7.636 8.598 8.019c8.347.384 9.172-5.866 9.172-5.866s1.215-5.843-2.121-8.73"/><path fill="#a0640a" d="M91.056 32.022c-.154-6.966-4.121-15.467-8.598-20.96C77.603 5.035 60.4-4.583 38.566 3.924c-3.634 1.415-7.262 3.317-9.595 6.553-2.672 3.695-1.72 8.181-3.589 12.133-.418.338-2.344-1.002-3.273-.79.298 1.97 1.399 2.864 4.236 3.563 1.794-.252 2.866-4.268 3.44-5.631 5.107-4.692 14.777-10.277 25.697-9.298a30.2 30.2 0 0 1 17.61 7.768c4.878 4.428 5.159 9.922 5.159 16.12 0 6.754-3.256 17.312-5.24 23.487.745.155 1.582.218 2.402.326 3.543.476 6.988 1.215 10.501 1.937 1.588-2.727 5.4-16.642 5.142-28.07"/><path fill="#fab414" d="M70.655 50.044c-.344.447-6.586 25.486-6.643 25.927l10.123 28.07c.126-.396 15.024-48.859 15.024-48.859s-14.68-4.622-18.504-5.138"/><path fill="#a0640a" d="M20.905 19.683c-2.115-.521-3.76 6.089-3.846 6.977a1.76 1.76 0 0 0 .694 1.513 2.34 2.34 0 0 0 1.467-1.083c.734-.974 3.801-6.886 1.685-7.407M16.669 19.15c-1.943-1.145-3.336 3.752-3.84 4.4-.539 1.375-.224 4.267 1.278 2.916s4.506-6.181 2.562-7.316M9.235 21.327c.172 1.146.831 1.306 1.65 1.318 1.445-.688 3.56-3.649 2.907-4.915-.654-1.266-3.72 1.879-4.557 3.597"/><path fill="#e6781e" d="m66.505 39.796 6.885 11.382 3.685-1.283 4.54-5.671-6.248-4.268z"/><path fill="#a0640a" d="M76.858 50.869c-.499-5.156-2.603-9.04-5.085-13.382L40.154 50.33s4.087 10.008 4.07 10.025l.052.413c1.788 3.087 3.439 6.65 6.758 8.386 3.881 2.034 9.045 2.864 17.013.315s9.229-14.298 8.811-18.6"/><path fill="#824600" d="M64.843 51.889c2.253.148 2.121-1.364 1.313-2.968-.809-1.604-1.181-2.463-2.672-1.289-1.186.934-.894 4.102 1.359 4.257"/><path d="m55.19 44.676 14.474 5.225-3.847-7.304z"/><path d="M62.911 42.305c.12 0 14.038 10.678 14.038 10.678s.986-5.729-2.04-10.312c-3.027-4.582-11.998-.366-11.998-.366"/><path fill="#ffdc00" d="M41.845 56.62c.877-.298 12.095-6.914 17.856-9.973 9.412-4.995 14.783-7.275 14.783-7.275s-3.233-5.574-9.079-7.516c-6.684-2.2-14.331-.796-19.994 3.305a14.89 14.89 0 0 0-6.306 12.993c.086 2.205.631 7.023 2.74 8.466"/><path fill="#3c3c32" d="M47.744 33.911c.137 1.708 1.364.939 2.436.253s1.926-1.103 1.416-2.37-3.99.409-3.852 2.117"/><path d="M56.887 56.408c-2.505 2.292-.35 7.029 2.012 8.541 2.992 1.914 8.151 1.593 10.851-.658 2.699-2.252 3.364-5.236.2-7.304-4.029-2.641-9.974-2.566-13.063-.579M70.629 51.514l1.822 1.466c1.274-.508 1.274-.508 1.771-1.486-.204-.861-.867-1.623-1.835-2.109-1.63.192-1.796 1.016-1.758 2.129M59.577 51.714l-1.393-1.767c-1.394.302-1.394.302-2.202 1.191-.04.892.401 1.758 1.225 2.402 1.68.039 2.084-.752 2.37-1.826"/><path fill="#a0640a" d="M47.256 56.46s-2.482-3.621-6.408-3.094c-3.084.104-3.606 3.145-2.293 5.402 1.674 2.899 7.314 4.801 10.123 4.583.407-1.529-1.422-6.891-1.422-6.891"/><path fill="#fab414" d="M59.684 46.647s12.869-6.129 16.893-4.136c5.52 2.738.498 7.384.498 7.384s10.055-5.213 13.041-7.178c2.683-1.718 3.205-3.712 2.574-6.301-.688-2.818-4.219-5.041-13.408-.435-4.597 2.297-19.598 10.666-19.598 10.666"/><path fill="#a0640a" d="M67.027 86.351s-2.075-9.458-2.322-9.95c-2.413-1.146-10.971-.527-10.971-.527l13.413 18.904z"/><path fill="#ffdc00" d="m64.012 75.971-.104 8.335-10.174-8.432s-9.241 2.033-11.625 11.033 3.038 25.469 3.038 25.469c.149-.041 36.394-1.547 36.394-1.547s-3.738-13.107-7.55-21.768c-2.47-5.631-9.979-13.09-9.979-13.09"/><path fill="#be0a3c" d="m42.791 110.21 1.336 4.291 39.214-2.67-1.623-4.382z"/><path fill="#ffc800" d="m64.025 107.715 5.225-.285.325 5.96-5.225.285z"/><path d="m72.246 107.29 3.592-.196.325 5.96-3.592.196z"/><path fill="#3c3c32" d="m56.915 108.297 3.592-.196.325 5.96-3.593.196zM47.962 108.994l3.591-.195.325 5.96-3.592.195z"/><path d="m77.529 107.008 3.593-.196.325 5.96-3.593.196z"/><path fill="#a0640a" d="M101.667 91.381c-5.389.252-26.455-1.226-31.849-1.347-5.394-.12-24.82-.807-24.82-.807l2.551 11.858s49.618-3.197 56.347-3.838c.109-.923-1.931-5.706-2.229-5.866"/><path fill="#fab414" d="m64.281 101.967-.453-14.465H41.845s-1.209 2.716-.756 8.29c.452 5.573 2.109 8.736 2.109 8.736z"/><path fill="#be0a3c" d="M128.344 108.446c6.38-4.056 10.318-12.425 7.395-19.695-1.37-3.437-2.866-6.078-6.695-6.874-2.041-.407-4.116-.258-5.979-1.289-1.691-.939-2.339-3.735-5.881-4.766-2.459-.716-8.994 3.271-12.806 6.806-1.267 1.18-5.016 5.465-4.838 7.59.241 2.864.78 10.832.78 10.832s7.159 7.006 11.602 8.593c7.406 2.715 13.975.344 16.422-1.197"/><path fill="#6e1e3c" d="M105.008 88.041c-1.45-.281-3.531 1.111-3.531 1.111l1.72 11.457s2.293 1.381 3.176.132c.12-1.392-.619-11.199-1.365-12.7M123.162 91.02s4.156-3.225-.332-8.215c-4.488-4.989-8.742-5.654-11.43-.355s7.498 9.63 11.762 8.57"/></svg>