<svg xmlns="http://www.w3.org/2000/svg" width="61.8" height="168.9" viewBox="0.1 -0.4 61.8 168.9"><path fill="#e7f5f5" d="M.6.1h60.8v167.8H.6z"/><path fill="#7aded4" d="M56.7 13.4H4.6V3.7h52.1zM6.9 11.1h47.5V6H6.9zM1.7 15.9H60v2.3H1.7zM1.7 21.9H60v2.3H1.7z"/><path fill="#7aded4" d="M5.2 23.3h2.3V168H5.2zM11 23.3h2.3V168H11zM16 23.3h2.3V168H16zM21.2 23.3h2.3V168h-2.3zM26.9 23.3h2.3V168h-2.3zM32.7 23.1H35v144.7h-2.3zM40.4 23.1h2.3v144.7h-2.3zM48.1 23.1h2.3v144.7h-2.3zM54.3 23.1h2.3v144.7h-2.3z"/></svg>