<svg xmlns="http://www.w3.org/2000/svg" width="74.824" height="75.6" viewBox="-0.5 -0.5 74.824 75.6"><path fill="#0cc" d="M73.78 52.06c-.03-.35-.07-.69-.12-1.03-.19-1.12-.77-4.52-3.51-7.26-.26-.26-.54-.51-.83-.74-2.88-2.36-6.37-3.5-9.96-3.23-.43-1.12-.8-2.1-1.11-2.93-.05-.13-.11-.26-.16-.39q-4.305-10.29-6.33-15.12c-.05-.12-.1-.23-.15-.35-.69-1.5-.87-2.02-.88-2.04-.11-.34-.24-.68-.39-1.01-.37-.83-.66-1.48-.86-1.95-.09-.27-.31-1-.76-2.66-.75-2.8-1.56-4.89-2.58-6.6C43.95 3.05 40.23.63 35.95.09Q35.26 0 34.57 0c-.44 0-.44 0-3.36.2-4.05.27-7.46.67-10.43 1.22l-.15.03c-1.34.27-2.32.45-2.95.56-2.9.51-5.58 1.92-7.73 4.07-3.48 3.49-4.68 8.53-3.14 13.16.64 1.9 1.79 3.6 3.32 4.9.89.76 3.34 2.84 6.95 3.42-.95 4.56-1.87 8.62-2.76 12.16q-.09.33-.15.66c-.03.16-.06.31-.08.46-.87.01-1.72.06-2.53.17-.09.02-.17.03-.26.04C4.54 42.18 0 47.53 0 54.37c0 4.23 2.13 8.18 5.69 10.55.1.08.21.15.32.21 2.32 1.43 5.11 2.22 9.35 2.64.06.01.12.02.18.02 5.91.49 7.24.62 7.52.65 1.36.19 2.24.31 2.66.37.62.11 1.25.16 1.91.16 1.77 0 3.5-.32 5.11-.94.77 1.29 1.77 2.46 2.98 3.45 2.48 2.04 5.4 3.12 8.44 3.12.13 0 .26 0 .39-.01 3.92-.13 7.02-1.08 9.5-2.87.14-.1.27-.2.4-.31 2.55-2.03 5.73-3.8 9.44-5.26 1.96-.72 4.76-1.97 6.92-4.44.13-.14.24-.28.35-.42 1.38-1.74 2.95-4.75 2.62-9.23M20.99 66.75c1.02.77 2.19 1.37 3.44 1.76-1.26-.37-2.42-.98-3.44-1.76"/><path fill="#fff" d="M62.546 54.454q-.618.704-2.551 1.407-7.215 2.815-12.402 6.949-.97.703-3.432.791-.705 0-1.451-.615-.748-.616-.748-1.407 0-1.055 2.375-2.728a111 111 0 0 0 3.344-2.199q.087-.438-2.906-10.379-4.843-.088-15.229 3.165-.618.177-.705.704-.088.527-.264 1.758-.17.264-.337.791 0 .353 1.012.749 1.011.398 1.275.748.264.352.264.88 0 1.055-.924 1.98a3.05 3.05 0 0 1-2.242.923q.087 0-3.167-.439-.616-.087-8.005-.703-3.52-.351-4.661-1.056Q11 55.245 11 54.366q0-2.112 2.111-2.463 1.23-.176 3.166.176.438.176 6.949.615.528-3.695 1.759-10.291 2.726-10.82 5.718-27.444a9.5 9.5 0 0 0-1.847-.176q-1.672 0-4.971.968-3.297.969-4.882.968-.616.001-1.759-.968-.353-1.055.483-1.891.835-.835 1.848-1.012a141 141 0 0 0 3.211-.616q3.782-.703 9.147-1.056 2.55-.175 2.639-.176 1.407.177 2.111 1.363.703 1.188 1.407 3.826.878 3.256 1.188 3.959.307.704 1.012 2.287.35 1.055 1.319 3.166 2.023 4.839 6.334 15.129 1.583 4.223 5.014 12.843 1.495-.176 3.869-1.495t3.52-1.319q1.054 0 2.023.791.262.264.439 1.319.088 1.146-.262 1.585M43.018 41.703q-1.5-2.903-3.792-8.8-.881-2.023-4.761-10.56l-4.35 22.176q7.9-1.494 12.376-2.288.527-.35.527-.528"/></svg>