<svg xmlns="http://www.w3.org/2000/svg" width="107.142" height="151.924" viewBox="-0.224 0.191 107.142 151.924"><path fill="#824600" d="M25.997 44.209c-.721-4.383-4.457-5.488-8.153-3.932-3.491 1.464-5.24 4.12-4.28 6.839 2.799 1.607 4.78 5.403 6.546 8.025l6.205-3.745c1.221-1.983.051-4.941-.318-7.187"/><path fill="#be0a3c" d="M29.733 56.178c-1.976.137-8.897-1.813-10.889-1.847.198-.404 7.67-3.835 8.294-4.126.517.399 2.538 5.283 2.595 5.973"/><path fill="#6e1e3c" d="M25.73 56.805c1.76-1.368 22.579-11.245 24.413-11.57-1.135 1.186-4.701 12.328-4.701 12.328s-18.542-.479-19.712-.758"/><path fill="#be0a3c" d="M25.299 84.504c.153.535 11.434 41.252 11.434 41.252l11.446-.753s6.211-39.656 6.211-43.634z"/><path fill="#6e1e3c" d="m48.429 125.756-12.11.496c.829 2.918 6.279 19.218 7.114 24.507-1.278.034-3.617.125-3.617.125l-.034.684s6.523.171 7.948-.137c.568-1.641.903-19.474.699-25.675"/><path fill="#f0e6d2" d="M49.189 127.574c.154-1.653.205-4.326.37-6.064H34.496c.199 1.071 1.204 4.286 1.772 6.121zM49.138 130.481c.046-.445 0-.969.051-1.374l-12.7.091c.102.376.227.815.363 1.283z"/><path fill="#f01446" d="m46.584 74.912-4.105-.781c-1.386-1.02-4.258-1.106-5.899-1.476a29.7 29.7 0 0 1-5.865-2.115c-4.792-2.177-11.661-6.554-17.151-5.899l3.048 12.414c1.136 4.525 1.567 10.316 3.566 14.533 1.777 3.739 7.67 6.566 17.6 6.269s15.897-9.267 15.897-9.267-5.735-12.538-7.091-13.678"/><path fill="#ffc800" d="M43.296 78.086a18.5 18.5 0 0 0 2.606 1.493s-3.849 3.232-6.415 3.83c-3.974.918-7.477-.78-9.436-1.829-2.901-1.556-5.678-3.34-8.562-4.93-.749-.416-2.793-.992-3.185-1.79-.533-1.088.21-.57 0-1.499 2.998-1.339 8.846 3.659 11.514 4.777 2.192.911 5.757 3.277 8.352 3.214 1.652-.04 3.877-1.881 5.126-3.266"/><path fill="#f01446" d="M17.112 70.489c-.925-1.67-1.925-4.691-3.548-5.859C2.209 67.161 2.447 82.572 7.057 92.614c1.193 2.605 6.569 8.201 6.569 8.201l12.138-9.21s-8.311-20.5-8.652-21.116"/><path fill="#ffc800" d="M19.707 95.674c-.199.513-1.198.981-1.613 1.243-.647-.137-2.458-2.314-2.793-2.85-.778-1.18-1.635-2.314-2.271-3.55a15.6 15.6 0 0 1-1.896-5.802c-.034-.388-.086-.77-.097-1.14a12.54 12.54 0 0 1 1.05-6.093c1.488-4.195 5.774-5.272 7.949-4.246 1.998.656 2.066 3.374 2.066 3.374s-2.94-1.465-4.07-1.208c-.568.131-2.737 2.217-3.6 4.491s-.414 4.73-.386 5.477a10.3 10.3 0 0 0 1.283 4.56c.71 1.362 4.332 5.636 4.378 5.744"/><path fill="#6e1e3c" d="M28.455 94.768s-10.452 8.293-12.45 9.689c-.437.439 17.833 13.531 17.742 15.189-.891 1.237-3.452 3.237-3.713 4.622l.636.496c1.135-1.391 6.143-7.039 6.932-8.139-.029-.171-9.147-21.857-9.147-21.857"/><path fill="#f0e6d2" d="M25.702 88.203s-14.994 12.88-15.028 12.954c.749 1.744 5.297 4.645 5.297 4.645l13.132-11.273zM29.744 95.999l-12.365 10.92 1.709 1.043 11.548-10.618z"/><path fill="#be0a3c" d="M56.99 42.579a59 59 0 0 0-7.948 2.85c-.767.319-14.614 15.616-18.168 20.187a5 5 0 0 0-.448.502c-.301.387-.676.718-1.005 1.088q-.54.72-.977 1.505l25.429 19.48s3.872-7.021 4.713-9.199c.567-1.453 1.135-2.895 1.703-4.342l1.277-3.158c.29-.718.568-1.436.869-2.166.448-1.185.886-2.382 1.317-3.579.051-.131.619-1.75.977-2.85h.028v-.091c.142-.427.25-.763.273-.855-.097.063.437-13.319.647-18.528.051-1.26.085-2.046.085-2.046s-7.852.963-8.772 1.202"/><g fill="#ffc800"><path d="M105.317 4.354a15.6 15.6 0 0 0-2.572-2.81A3.5 3.5 0 0 0 100.627.7a7.35 7.35 0 0 0-3.974.941c-1.516.837-3.049 1.624-4.576 2.433-.471.245-.96.462-1.402.741-2.504 1.596-5.19 2.85-7.79 4.28-1.703.947-81.187 46.462-81.817 47.185l1.368 1.18c.437-.148 92.797-40.254 93.74-40.722a46.3 46.3 0 0 0 8.516-5.323 5.3 5.3 0 0 0 1.005-1.071c1.084-1.488.937-4.241-.38-5.99"/><path d="M4.707 53.003c0-.279-3.287-2.49-4.292 1.402a2.92 2.92 0 0 0 0 1.779c.488 1.282 2.009 4.189 4.496 3.351s1.703-2.85 1.919-3.089z"/></g><path fill="#642800" d="M27.371 51.237c-.306.712-5.853 4.707-7.426 4.753-.108-1.106 1.891-5.66 3.338-8.127-.102-.365-.539-1.773-.539-1.773s-4.031.445-4.133-1.63c-.063-1.374 2.799-2.331 4.82-2.28a2.34 2.34 0 0 1 1.936.958q.629.695 1.181 1.453c.494 1.214.545 5.426.823 6.646"/><path fill="#824600" d="M20.365 56.178c.227 1.214-.704 2.61-1.01 2.924-.386-.069-9.845.359-10.106.256a16.5 16.5 0 0 1-3.833-1.978 5.53 5.53 0 0 1-2.339-4.633 5.34 5.34 0 0 1 1.749-4.064c5.11-3.761 7.982-3.351 10.554-2.319.875.188 4.826 9.392 4.985 9.814M53.834 54.747c-1.136-.125-29.813-.815-30.704-.769l-2.271 6.594c.227.103 19.61 5.329 28.677 7.466 1.497.39 3.041.565 4.587.519z"/><path fill="#f01446" d="M48.378 54.012c1.095-2.701 15.743-14.596 18.644-12.299 4.735 3.75-1.027 16.813-2.271 21.236-3.332 3.362-11.775 6.731-11.775 6.731s-4.229-13.097-4.598-15.668M26.502 53.191c.165.878-2.696 9.119-2.838 9.342-2.992-.639-6.813-1.562-9.811-2.542.329-.479 3.974-6.976 3.974-6.976s6.268-.382 8.675.176"/><path fill="#824600" d="M65.427 18.659 35.45 21.018c.034.542 6.041 12.978 6.291 13.314.726.992 1.186 2.177 2.134 3.004.455.393.903.792 1.357 1.18a10 10 0 0 0 2.799 1.863c.75.297 1.533.525 2.311.747a8.8 8.8 0 0 0 4.372.194c.34-.074.687-.143 1.027-.234a6.24 6.24 0 0 0 3.123-1.881 20.1 20.1 0 0 0 4.195-7.175c2.328-7.341 2.544-12.972 2.368-13.371"/><path fill="#642800" d="M48.219 25.23c.533.69 1.408 5.267 1.357 5.962-.648 1.02-1.67 1.14-2.782 1.14-.523-.211-2.271-4.161-2.544-4.776 1.022-.969 2.68-1.716 3.969-2.326"/><path d="M64.927 22.529c3.049-.656 34.865 3.533 31.442 14.419-1.703 5.409-10.986.969-14.568-.997-5.337-2.935-17.016-13-16.874-13.422M51.222 29.214a33 33 0 0 1 2.964-3.317c.073.177.147.359.295.701-.295.217-1.136 1.71-1.658 2.08.534-.045 1.754-.49 2.033-.513.295.217.255.474.056.833l-2.918.951c-.42-.028-.772-.148-.772-.735M50.467 34.874c.301-.285.465-.542.698-.65a16.3 16.3 0 0 0 4.122-3.004l.602.074c.028.228.057.422.085.627l-4.888 3.625z"/><path fill="#be0a3c" d="M34.786 23.737c-1.42 2.32-6.245 4.788-2.742 7.7 1.402 1.14 4.593 1.562 7.437 1.225 2.016-.233 8.8-3.385 10.725-4.73a27.6 27.6 0 0 0 5.45-5.01z"/><path fill="#f01446" d="M68.578 17.827c-1.101-5.7-3.662-9.119-8.584-12.282-3.793-2.445-8.238-4.36-12.797-4.149-4.979.228-9.981 3.368-13.058 7.221-3.844 4.81-3.095 11.245-.841 16.796 3.151.353 15.329-.838 21.518-1.414 1.703 2.166 3.162 3.802 6.381 4.269 8.386 1.214 7.75-8.68 7.381-10.441"/><path fill="#be0a3c" d="m42.263 14.27.977 1.106a7.9 7.9 0 0 1-.449 5.34 4.12 4.12 0 0 1-3.503.907c-1.942-1.271-4.979-3.158-3.577-6.013 1.073-2.212 4.701-2.479 6.552-1.34"/><path fill="#6e1e3c" d="m64.632 19.702 1.011 1.334c.153 1.088.567 2.279-.472 3.385-2.185 1.391-7 .57-5.91-3.129 1.505-2.029 3.486-2.61 5.371-1.59M29.852 66.015l-2.634 2.741 26.746 20.621 2.158-2.833z"/><path fill="#f01446" d="m47.532 79.225 6.8 5.595-3.28 3.987-6.8-5.594zM39.124 72.493l2.082 1.713-3.28 3.987-2.082-1.713zM31.404 66.263l2.083 1.713-3.281 3.989-2.083-1.714z"/></svg>