<svg xmlns="http://www.w3.org/2000/svg" viewBox="0 0 450 200"><path d="M45.975 29.512v142.52h345.82V29.512zm9.176 2.176a7 7 0 0 1 7 7 7 7 0 0 1-7 7 7 7 0 0 1-7-7 7 7 0 0 1 7-7zm327.46.275a7 7 0 0 1 7 7 7 7 0 0 1-7 7 7 7 0 0 1-7-7 7 7 0 0 1 7-7zM55.22 155.853a7 7 0 0 1 7 7 7 7 0 0 1-7 7 7 7 0 0 1-7-7 7 7 0 0 1 7-7zm327.39 0a7 7 0 0 1 7 7 7 7 0 0 1-7 7 7 7 0 0 1-7-7 7 7 0 0 1 7-7z" style="fill:#017e7b;stroke-linecap:round;stroke:#93ac93"/><path d="m218.17 129 13.086 13.086a1.996 1.996 0 0 1 0 2.828l-2.935 2.935a1.996 1.996 0 0 1-2.828 0l-13.086-13.086a1.996 1.996 0 0 1 0-2.828l2.935-2.935a1.996 1.996 0 0 1 2.828 0z" style="fill:#c9b6b0;stroke-linecap:round;stroke-width:.81404;stroke:#e3d17e"/><path d="M125.25 148.88h18.371v23.666H125.25zm-22.876-96.193H84.003V29.021h18.371z" style="fill:#f5f9fc;stroke-linecap:square"/><path d="m298.06 100.77-31.863 31.863-31.863-31.863 31.863-31.863z" style="fill:#414141;stroke-linecap:round"/><path d="m295.24 93.715 1.768 1.768-2.121 2.121-1.768-1.768zM237.5 103.94l1.768 1.768-2.122 2.121-1.767-1.768zm3.394 3.394 1.768 1.768-2.121 2.121-1.768-1.767zm3.395 3.395 1.768 1.768-2.122 2.12-1.768-1.767zm3.394 3.394 1.768 1.768-2.121 2.121-1.768-1.767zm3.395 3.395 1.767 1.767-2.12 2.122-1.769-1.768zm3.394 3.394 1.768 1.768-2.122 2.121-1.767-1.768zm3.394 3.394 1.768 1.768-2.121 2.122-1.768-1.768zm3.395 3.395 1.768 1.768-2.122 2.12-1.768-1.767zm10.223-57.745 1.768 1.768-2.122 2.12-1.768-1.767zm3.394 3.394 1.768 1.768-2.121 2.121-1.768-1.767zm3.395 3.395 1.767 1.767-2.12 2.122-1.769-1.768zm3.394 3.394 1.768 1.768-2.121 2.121-1.768-1.768zm3.394 3.394 1.768 1.768-2.121 2.122-1.768-1.768zm3.395 3.395 1.768 1.768-2.122 2.12-1.767-1.767zm3.394 3.394 1.768 1.768-2.121 2.121-1.768-1.767zm-18.599 39.5-1.768 1.768-2.12-2.121 1.767-1.768zm3.395-3.394-1.768 1.768-2.121-2.122 1.767-1.767zm3.394-3.395-1.768 1.768-2.121-2.121 1.768-1.768zm3.394-3.394-1.767 1.768-2.122-2.121 1.768-1.768zm3.395-3.394-1.768 1.767-2.121-2.12 1.768-1.769zm3.394-3.395-1.768 1.768-2.12-2.121 1.767-1.768zm3.395-3.394-1.768 1.768-2.121-2.122 1.767-1.767zm3.394-3.395-1.768 1.768-2.121-2.121 1.768-1.768zm-54.35-13.618-1.768 1.768-2.121-2.121 1.768-1.768zm3.394-3.394-1.767 1.768-2.122-2.121 1.768-1.768zm3.395-3.394-1.768 1.767-2.121-2.12 1.768-1.769zm3.394-3.395-1.768 1.768-2.12-2.121 1.767-1.768zm3.395-3.394-1.768 1.768-2.121-2.122 1.767-1.767zm3.394-3.395-1.768 1.768-2.121-2.121 1.768-1.768zm-20.366 20.366-1.768 1.768-2.121-2.121 1.768-1.768zm23.761-23.76-1.768 1.767-2.121-2.121 1.768-1.768z" style="fill:#b9b4ac;stroke-linecap:round;stroke-width:1.0815"/><path d="M47.069 69.967h32.934v61.609H47.069z" style="fill:#141414;stroke-width:2"/><path d="M68.442 112.39H47.069l-4.44 4.173v10.846l4.44 4.167h32.934l4.44-4.167v-10.846l-4.44-4.173zm0-21.212H47.069l-4.44 4.173v10.846l4.44 4.167h32.934l4.44-4.167V95.35l-4.44-4.173zm0-21.212H47.069l-4.44 4.173v10.846l4.44 4.167h32.934l4.44-4.167V74.139l-4.44-4.173z" style="fill:#1a1a1a;stroke-width:1.25"/><path d="M55.273 123.63h-3.316v-3.31h3.316zm19.844 0h-3.316v-3.31h3.316zm-19.844-21.212h-3.316v-3.31h3.316zm19.844 0h-3.316v-3.31h3.316zM55.273 81.206h-3.316v-3.31h3.316zm19.844 0h-3.316v-3.31h3.316z" style="fill:#f5e6d1;stroke-width:1.25"/><path d="m55.264 120.33 1.561-1.564h-6.421l1.558 1.564zm16.542 0h3.302l1.561-1.564h-6.421zM51.962 99.118h3.302l1.561-1.564h-6.422zm18.285-1.564 1.559 1.564h3.301l1.562-1.564zM50.403 76.342l1.559 1.564h3.301l1.562-1.564zm26.266 0h-6.422l1.559 1.564h3.302z" style="fill:#cdcdcc;stroke-width:1.25"/><path d="M56.825 125.2h-6.422l1.559-1.561h3.302zm18.283-1.561 1.561 1.561h-6.421l1.558-1.561zm-19.844-21.212 1.561 1.561h-6.421l1.558-1.561zm16.542 0h3.302l1.561 1.561h-6.421zM51.962 81.215h3.302l1.561 1.56h-6.422zm18.285 1.56 1.559-1.56h3.301l1.562 1.56z" style="fill:#797672;stroke-width:1.25"/><path d="m51.962 123.64-1.559 1.561v-6.427l1.559 1.564zm4.863-4.866v6.427l-1.561-1.561v-3.302zm14.981 1.564v3.302l-1.558 1.562v-6.428zm3.302 0 1.561-1.564v6.427l-1.561-1.561zM51.962 99.126v3.302l-1.559 1.562v-6.428zm3.302 0 1.561-1.564v6.428l-1.561-1.562zm14.984-1.564 1.558 1.564v3.302l-1.558 1.562zm4.86 4.866v-3.302l1.561-1.564v6.428zM50.404 76.35l1.559 1.564v3.302l-1.559 1.561zm4.86 4.866v-3.302l1.562-1.564v6.427zm14.984 1.561V76.35l1.559 1.564v3.302zm6.422 0-1.561-1.561v-3.302l1.561-1.564z" style="fill:#b5b2b0;stroke-width:1.25"/><path d="M372.17 127.18h17.157v15.441H372.17zm0-68.621h17.157V74H372.17zm-43.219 68.621h17.157v15.441h-17.157zm0-68.621h17.157V74h-17.157zm-1.555 53.346h11.134v4.993h-11.134zm0-6.816h11.134v4.993h-11.134zm0-6.816h11.134v4.992h-11.134zm0-6.817h11.134v4.993h-11.134zm0-6.816h11.134v4.993h-11.134z" style="fill:#b9b4b8;stroke-linecap:square;stroke-width:1.5"/><path d="M337.53 69.951h69.844v61.64H337.53z" style="fill:#d7d4db;stroke-linecap:square;stroke-width:1.5"/><path d="M346.31 114.39h5.792c1.662 0 3 1.12 3 2.512s-1.338 2.512-3 2.512h-5.792c-1.662 0-3-1.12-3-2.512s1.338-2.512 3-2.512m18.223-25.504h31.255c1.662 0 3 1.338 3 3v17.774c0 1.662-1.338 3-3 3h-31.255c-1.662 0-3-1.338-3-3V91.886c0-1.662 1.338-3 3-3m7.294 28.528h26.961v9.069h-26.96zm0-42.35h26.961v9.069h-26.96zm-25.517 7.321h5.792c1.662 0 3 1.12 3 2.512s-1.338 2.513-3 2.513h-5.792c-1.662 0-3-1.12-3-2.513 0-1.391 1.338-2.512 3-2.512m-7.788 2.512h3.073v32.005h-3.073z" style="fill:#1a1a1a;stroke-linecap:square;stroke-width:1.5"/><path d="M371.64 94.186h27.244c1.726 0 3.115 1.338 3.115 3v7.172c0 1.662-1.39 3-3.115 3H371.64c-1.726 0-3.115-1.338-3.115-3v-7.172c0-1.662 1.39-3 3.115-3" style="fill:#d7d4db;stroke-linecap:square;stroke-width:1.5"/><path d="M145.32 134.43h27.035v11.636H145.32zm0-26.111h27.035v11.636H145.32zm0-26.111h27.035v11.636H145.32zm0-26.111h27.035v11.636H145.32z" style="fill:#8c948f;stroke-width:3"/><path d="M150.62 134.29h16.448v11.909H150.62zm0-26.111h16.448v11.909H150.62zm0-26.111h16.448v11.909H150.62zm0-26.111h16.448v11.909H150.62z" style="fill:#ebe9d5;stroke-width:3"/><path d="M156.86 139.07h3.96v2.35h-3.96zm0-26.111h3.96v2.35h-3.96zm0-26.111h3.96v2.35h-3.96zm0-26.111h3.96v2.35h-3.96z" style="fill:#dabb93;stroke-width:3"/><path d="m218 129.85 12.557 12.405c.752.743.824 1.866.162 2.517l-2.482 2.443c-.662.652-1.8.579-2.552-.164l-12.557-12.405c-.752-.743-.824-1.866-.162-2.518l2.481-2.442c.663-.652 1.801-.579 2.553.164z" style="fill:none;stroke-linecap:round;stroke-width:.81404;stroke:#333"/><path d="M67.567 158.3h10v10h-10zm25.623 10a5 5 0 0 1-5-5 5 5 0 0 1 5-5 5 5 0 0 1 5 5 5 5 0 0 1-5 5zm20.623 0a5 5 0 0 1-5-5 5 5 0 0 1 5-5 5 5 0 0 1 5 5 5 5 0 0 1-5 5zm20.623 0a5 5 0 0 1-5-5 5 5 0 0 1 5-5 5 5 0 0 1 5 5 5 5 0 0 1-5 5zm20.623 0a5 5 0 0 1-5-5 5 5 0 0 1 5-5 5 5 0 0 1 5 5 5 5 0 0 1-5 5zm20.623 0a5 5 0 0 1-5-5 5 5 0 0 1 5-5 5 5 0 0 1 5 5 5 5 0 0 1-5 5zm20.623 0a5 5 0 0 1-5-5 5 5 0 0 1 5-5 5 5 0 0 1 5 5 5 5 0 0 1-5 5zm20.623 0a5 5 0 0 1-5-5 5 5 0 0 1 5-5 5 5 0 0 1 5 5 5 5 0 0 1-5 5zm20.623 0a5 5 0 0 1-5-5 5 5 0 0 1 5-5 5 5 0 0 1 5 5 5 5 0 0 1-5 5zm20.623 0a5 5 0 0 1-5-5 5 5 0 0 1 5-5 5 5 0 0 1 5 5 5 5 0 0 1-5 5zm20.623 0a5 5 0 0 1-5-5 5 5 0 0 1 5-5 5 5 0 0 1 5 5 5 5 0 0 1-5 5zm20.623 0a5 5 0 0 1-5-5 5 5 0 0 1 5-5 5 5 0 0 1 5 5 5 5 0 0 1-5 5zm20.623 0a5 5 0 0 1-5-5 5 5 0 0 1 5-5 5 5 0 0 1 5 5 5 5 0 0 1-5 5zm20.623 0a5 5 0 0 1-5-5 5 5 0 0 1 5-5 5 5 0 0 1 5 5 5 5 0 0 1-5 5zm20.623 0a5 5 0 0 1-5-5 5 5 0 0 1 5-5 5 5 0 0 1 5 5 5 5 0 0 1-5 5zM67.559 33.26h10v10h-10zm25.623 10a5 5 0 0 1-5-5 5 5 0 0 1 5-5 5 5 0 0 1 5 5 5 5 0 0 1-5 5zm20.623 0a5 5 0 0 1-5-5 5 5 0 0 1 5-5 5 5 0 0 1 5 5 5 5 0 0 1-5 5zm20.623 0a5 5 0 0 1-5-5 5 5 0 0 1 5-5 5 5 0 0 1 5 5 5 5 0 0 1-5 5zm20.623 0a5 5 0 0 1-5-5 5 5 0 0 1 5-5 5 5 0 0 1 5 5 5 5 0 0 1-5 5zm20.623 0a5 5 0 0 1-5-5 5 5 0 0 1 5-5 5 5 0 0 1 5 5 5 5 0 0 1-5 5zm20.623 0a5 5 0 0 1-5-5 5 5 0 0 1 5-5 5 5 0 0 1 5 5 5 5 0 0 1-5 5zm20.623 0a5 5 0 0 1-5-5 5 5 0 0 1 5-5 5 5 0 0 1 5 5 5 5 0 0 1-5 5zm20.623 0a5 5 0 0 1-5-5 5 5 0 0 1 5-5 5 5 0 0 1 5 5 5 5 0 0 1-5 5zm20.623 0a5 5 0 0 1-5-5 5 5 0 0 1 5-5 5 5 0 0 1 5 5 5 5 0 0 1-5 5zm20.623 0a5 5 0 0 1-5-5 5 5 0 0 1 5-5 5 5 0 0 1 5 5 5 5 0 0 1-5 5zm20.623 0a5 5 0 0 1-5-5 5 5 0 0 1 5-5 5 5 0 0 1 5 5 5 5 0 0 1-5 5zm20.623 0a5 5 0 0 1-5-5 5 5 0 0 1 5-5 5 5 0 0 1 5 5 5 5 0 0 1-5 5zm20.623 0a5 5 0 0 1-5-5 5 5 0 0 1 5-5 5 5 0 0 1 5 5 5 5 0 0 1-5 5zm20.623 0a5 5 0 0 1-5-5 5 5 0 0 1 5-5 5 5 0 0 1 5 5 5 5 0 0 1-5 5z" style="fill:#b9b4b8;stroke-linecap:square;stroke:#333"/><path d="M187.16 117.72h12.132v5.131H187.16zm0-39.036h12.132v5.131H187.16z" style="fill:#b9b4b8;stroke-linecap:square;stroke-width:1.5"/><path d="M203.28 83.369v34.804h-20.098V83.369z" style="fill:#d7d4db;stroke-linecap:round;stroke:#b9b4ac"/><path d="M193.23 106.84a6.066 6.066 0 0 1-6.066-6.066 6.066 6.066 0 0 1 6.066-6.066 6.066 6.066 0 0 1 6.066 6.066 6.066 6.066 0 0 1-6.066 6.066z" style="fill:#f2f2f2;stroke-linecap:round;stroke-width:.83333;stroke:#333"/><path d="M141.64 153.76q0 .668-.167 1.213-.163.545-.514.932-.347.382-.892.593-.545.206-1.305.206h-1.46v-5.743h1.701q.66 0 1.152.167.496.162.826.505t.492.87q.167.528.167 1.257m-1.16.07q0-.466-.075-.83-.075-.365-.255-.615-.176-.255-.474-.387-.3-.132-.743-.132h-.55v3.933h.475q.796 0 1.209-.475.413-.474.413-1.494m-5.252 2.874-1.538-3.427-.316-.739v4.166h-.985v-5.743h1.328l1.568 3.45.277.672v-4.122h.985v5.743zm-5.7-2.43v-.892h2.044v3.063q-.395.185-.826.272t-.936.088q-.598 0-1.077-.184-.474-.185-.808-.55-.334-.364-.515-.905-.175-.54-.175-1.252 0-.717.184-1.283.19-.567.545-.958.36-.396.879-.602.523-.207 1.19-.207.396 0 .77.07.378.066.751.18v1.068q-.325-.153-.72-.25-.391-.101-.791-.101-.405 0-.717.14-.307.141-.518.4-.207.26-.317.638-.105.377-.105.852 0 .457.084.826.083.365.268.624.189.255.483.391.294.137.716.137.101 0 .176-.004.075-.01.14-.022.067-.014.124-.031.061-.018.127-.04v-1.468zm-43.54-106.46q0-.668.168-1.213.162-.545.514-.931.347-.383.892-.594.545-.206 1.305-.206h1.459v5.743h-1.7q-.66 0-1.152-.167-.497-.162-.826-.505-.33-.343-.492-.87-.167-.527-.167-1.257m1.16-.07q0 .466.076.83t.254.616q.176.254.475.386t.743.132h.549v-3.933h-.475q-.795 0-1.208.475t-.413 1.494M92.4 44.87l1.538 3.427.317.739V44.87h.984v5.743h-1.327l-1.569-3.45-.277-.672v4.123h-.984V44.87zm5.7 2.43v.892h-2.043V45.13q.395-.184.826-.272t.936-.088q.597 0 1.076.184.475.185.809.55.334.364.514.905.176.54.176 1.252 0 .717-.185 1.283-.189.567-.545.958-.36.396-.878.603-.523.206-1.191.206-.396 0-.77-.07-.377-.066-.75-.18v-1.068q.324.154.72.25.391.101.79.101.405 0 .717-.14.308-.141.519-.4.206-.26.316-.637.106-.378.106-.853 0-.457-.084-.826-.083-.365-.268-.624-.189-.255-.483-.391-.295-.137-.717-.137-.1 0-.175.005-.075.009-.141.022t-.123.03q-.062.018-.128.04V47.3z" style="fill:#017e7b;font-family:Consolas;font-size:9px;font-weight:700;letter-spacing:0;line-height:1;text-align:center;text-anchor:middle;text-orientation:sideways"/><path d="m130.52 136.86-2.114 1.107 2.114 1.09v1.305l-2.944-1.656-2.8 1.547v-1.27l2-1.042-2-1.006v-1.27l2.8 1.538 2.944-1.719zm-4.843 5.458h4.843v1.107h-4.843V145h-.9v-4.254h.9zm4.843-31.459-2.114 1.107 2.114 1.09v1.305l-2.944-1.656-2.8 1.547v-1.27l2-1.042-2-1.006v-1.27l2.8 1.538 2.944-1.718zm0 5.023-1.846.809q-.263.114-.395.32-.136.203-.136.48v.206h2.377v1.08h-5.744v-1.673q0-.475.084-.862.079-.386.268-.659.189-.272.492-.417.303-.15.743-.15.316 0 .562.093t.427.259q.175.167.285.4.11.228.154.5.044-.21.242-.386.193-.176.562-.352l1.925-.918zm-4.052.268q-.422 0-.606.268t-.185.804v.475h1.622v-.44q0-.25-.053-.452-.053-.207-.158-.352t-.26-.224q-.158-.079-.36-.079m15.3-31.49-3.427 1.538-.739.317h4.166v.984h-5.743v-1.327l3.45-1.569.672-.277h-4.123v-.984h5.744zm-2.896 3.415q.782 0 1.35.184.566.18.93.501.366.317.541.747.176.427.176.914 0 1.134-.751 1.705-.756.572-2.193.572-.782 0-1.35-.18-.566-.185-.93-.501-.366-.321-.541-.747-.176-.431-.176-.919 0-1.134.751-1.705.752-.571 2.193-.571m.053 1.142q-1.02 0-1.52.273-.502.272-.502.896 0 .312.132.532.128.22.378.365.25.14.62.206.365.066.84.066 1.019 0 1.52-.272.5-.277.5-.897 0-.312-.127-.532-.132-.224-.382-.364t-.615-.207q-.37-.066-.844-.066m2.746-26.133h-5.743v-1.098h4.816V59.56h.927zm222.71 93.675v-.79l1.358-1.359q.383-.382.611-.659.233-.277.356-.492.128-.22.167-.404t.04-.383q0-.162-.053-.307-.053-.15-.154-.255-.1-.11-.255-.172-.154-.065-.351-.065-.339 0-.629.149-.29.145-.549.391l-.567-.73q.374-.347.84-.553.47-.211 1.015-.211.421 0 .764.11.343.105.585.316.246.211.378.528.136.316.136.73 0 .342-.092.64-.093.295-.269.576-.175.282-.435.563-.254.281-.584.593l-.835.796h2.421v.988zm-4.847 0v-.953h1.464v-3.692l-1.275.703-.351-.874 1.823-.963h.901v4.826h1.262v.953zm-.9-2.944q0 .668-.168 1.213-.162.545-.514.932-.347.382-.892.593-.545.206-1.305.206h-1.459v-5.743h1.7q.66 0 1.152.167.497.162.826.505.33.343.492.87.167.527.167 1.257m-1.16.07q0-.466-.075-.83-.075-.365-.255-.616-.176-.254-.475-.386t-.743-.132h-.549v3.933h.475q.795 0 1.208-.475.413-.474.413-1.494m-13.628 2.874v-.953h1.464v-3.692l-1.275.703-.351-.874 1.823-.963h.901v4.826h1.261v.953zm-4.948 0v-.953h1.463v-3.692l-1.274.703-.352-.874 1.824-.963h.901v4.826h1.261v.953zm-.9-2.944q0 .668-.168 1.213-.162.545-.514.932-.347.382-.892.593-.545.206-1.305.206h-1.46v-5.743h1.701q.66 0 1.152.167.496.162.826.505t.492.87q.167.527.167 1.257m-1.161.07q0-.466-.075-.83-.074-.365-.255-.616-.175-.254-.474-.386-.3-.132-.743-.132h-.55v3.933h.475q.796 0 1.209-.475.413-.474.413-1.494m-9.679-.022q0 .708-.153 1.266-.154.558-.453.945-.295.382-.72.584t-.976.202q-.475 0-.875-.167t-.69-.523q-.29-.36-.452-.918t-.163-1.336q0-.708.154-1.266.158-.558.452-.94.295-.387.725-.589.431-.202.976-.202.475 0 .875.167t.685.523q.29.356.453.914.162.558.162 1.34m-3.401.018v.167q0 .075.009.154l2.153-1.556q-.154-.435-.408-.642-.25-.21-.594-.21-.246 0-.457.127-.21.123-.369.382-.154.26-.246.65-.088.392-.088.928zm2.32.017q0-.074-.004-.149-.004-.08-.004-.15l-2.14 1.548q.14.426.396.632.255.207.593.207.246 0 .457-.128.215-.127.37-.382.157-.26.245-.65.088-.396.088-.928zm-7.914 2.861v-.953h1.463v-3.692l-1.274.703-.352-.874 1.824-.963h.9v4.826h1.262v.953zm-.901-2.944q0 .668-.167 1.213-.163.545-.514.932-.348.382-.892.593-.545.206-1.306.206h-1.459v-5.743h1.701q.66 0 1.151.167.497.162.827.505t.492.87q.167.527.167 1.257m-1.16.07q0-.466-.075-.83-.075-.365-.255-.616-.176-.254-.475-.386-.298-.132-.742-.132h-.55v3.933h.475q.795 0 1.208-.475.414-.474.414-1.494m-12.153-.338q0 .677-.115 1.182-.114.501-.325.857-.206.356-.496.584t-.646.36q-.352.133-.756.18-.4.05-.83.05h-.664v-.92h.782q.514 0 .857-.087.347-.092.558-.264.215-.176.316-.435.106-.26.14-.598l.01-.11q-.233.11-.532.18-.299.071-.602.071-.417 0-.76-.097-.343-.096-.593-.307-.247-.211-.383-.545-.136-.339-.136-.813 0-.43.154-.782.158-.356.435-.607.281-.25.663-.387.387-.14.844-.14.448 0 .826.127.383.128.66.435.28.304.435.809.158.505.158 1.257zm-2.132-1.727q-.21 0-.382.07-.171.07-.294.198-.12.127-.185.308-.066.175-.066.395 0 .466.246.694.246.225.681.225.119 0 .25-.022.137-.022.269-.062.136-.04.255-.088.123-.053.215-.11 0-.39-.053-.69-.048-.299-.167-.5-.114-.207-.303-.313-.189-.105-.466-.105m-2.593 1.995q0 .668-.167 1.213-.162.545-.514.932-.347.382-.892.593-.545.206-1.305.206h-1.459v-5.743h1.7q.66 0 1.152.167.497.162.826.505.33.343.492.87.167.527.167 1.257m-1.16.07q0-.466-.074-.83-.075-.365-.255-.616-.176-.254-.475-.386t-.743-.132h-.549v3.933h.475q.795 0 1.208-.475.413-.474.413-1.494m-15.807-.167q.216.119.409.264.198.14.343.33.15.184.233.421.088.233.088.532 0 .391-.159.69-.158.299-.44.501-.276.202-.654.303-.373.101-.808.101-.484 0-.857-.1-.37-.106-.624-.295-.25-.19-.383-.457-.127-.268-.127-.598 0-.294.083-.523.088-.233.238-.422.149-.189.342-.338.198-.15.418-.277-.198-.114-.374-.25-.171-.137-.303-.308t-.21-.382q-.076-.211-.076-.48 0-.311.12-.584.122-.277.36-.483.241-.207.602-.325.364-.119.852-.119.448 0 .8.097.351.092.589.268.241.176.364.422.128.241.128.536 0 .272-.075.492t-.202.4q-.127.176-.303.32-.176.141-.374.264m-.843-.413q.158-.088.294-.184.14-.101.242-.22.1-.119.162-.26.062-.14.062-.311 0-.286-.224-.435-.225-.15-.646-.15-.413 0-.638.154-.224.154-.224.461 0 .167.075.3t.207.245q.131.11.307.207.18.097.382.193m-.225.971q-.171.093-.325.198-.15.106-.263.233-.11.128-.176.281-.066.15-.066.339 0 .334.26.51.258.175.685.175.193 0 .364-.04.172-.039.3-.122.131-.084.206-.211.074-.132.074-.312 0-.185-.083-.33-.084-.15-.229-.272t-.338-.233-.409-.216m-2.592-.461q0 .668-.167 1.213-.163.545-.515.932-.347.382-.892.593-.545.206-1.305.206h-1.459v-5.743h1.7q.66 0 1.152.167.497.162.826.505.33.343.493.87.167.527.167 1.257m-1.16.07q0-.466-.075-.83-.075-.365-.255-.616-.176-.254-.475-.386t-.742-.132h-.55v3.933h.475q.795 0 1.208-.475.413-.474.413-1.494m-17.06 2.874h-1.213l2.286-4.706h-2.756v-1.037h3.99v.936zm-2.381-2.944q0 .668-.167 1.213-.163.545-.515.932-.347.382-.892.593-.545.206-1.305.206h-1.459v-5.743h1.7q.66 0 1.152.167.497.162.826.505.33.343.493.87.167.527.167 1.257m-1.16.07q0-.466-.075-.83-.075-.365-.255-.616-.176-.254-.475-.386t-.742-.132h-.55v3.933h.475q.795 0 1.208-.475.413-.474.413-1.494m-14.698 1.055q0 .435-.158.791-.158.352-.44.606-.276.25-.663.387t-.848.136q-1.006 0-1.538-.632t-.532-1.934q0-.475.057-.9.057-.432.19-.792.135-.365.36-.66.228-.294.566-.496.339-.206.8-.316.462-.114 1.073-.114h.654v.91h-.764q-.475 0-.796.096t-.523.277-.303.44-.132.584l-.009.105q.229-.11.519-.18.294-.07.615-.07.466 0 .817.123.352.119.585.347.237.229.352.554.118.325.118.738zm-1.116.048q0-.202-.053-.369-.052-.171-.166-.29-.11-.123-.286-.189-.172-.07-.413-.07-.14 0-.281.026-.137.022-.269.062-.127.04-.246.088-.114.048-.206.1 0 .445.061.752.062.303.185.497.127.193.312.281.189.084.435.084.21 0 .382-.07t.29-.199q.123-.131.19-.307.065-.18.065-.396m-3.726-1.173q0 .668-.167 1.213-.163.545-.515.932-.347.382-.892.593-.545.206-1.305.206h-1.459v-5.743h1.7q.66 0 1.152.167.497.162.826.505.33.343.493.87.167.527.167 1.257m-1.16.07q0-.466-.075-.83-.075-.365-.255-.616-.176-.254-.475-.386t-.742-.132h-.55v3.933h.475q.795 0 1.208-.475.413-.474.413-1.494m-14.716 1.037q0 .462-.193.822-.193.356-.536.602t-.809.374-1.01.127q-.137 0-.29-.009-.154-.009-.313-.022-.158-.013-.307-.035-.15-.018-.277-.04v-.936q.25.062.576.101.325.036.663.036.66 0 1.002-.25.347-.256.347-.704 0-.466-.32-.69-.321-.228-1.037-.228h-1.125v-3.055h3.313v1.011h-2.311v1.17h.413q.44 0 .839.078.4.08.703.277.308.193.488.527.184.334.184.844zm-4.653-1.107q0 .668-.167 1.213-.163.545-.515.932-.347.382-.892.593-.545.206-1.305.206h-1.459v-5.743h1.7q.66 0 1.152.167.497.162.826.505.33.343.493.87.167.527.167 1.257m-1.16.07q0-.466-.075-.83-.075-.365-.255-.616-.176-.254-.475-.386t-.742-.132h-.55v3.933h.475q.795 0 1.208-.475.413-.474.413-1.494m-15.51 1.75v1.168h-1.047v-1.169h-2.671v-.918l2.24-3.656h1.477v3.63h.87v.944zm-1.033-3.538-1.635 2.592h1.635zm-3.09 1.762q0 .668-.167 1.213-.162.545-.514.931-.347.383-.892.594-.545.206-1.305.206h-1.46v-5.743h1.702q.659 0 1.151.167.497.162.826.505.33.343.492.87.167.527.167 1.257m-1.16.07q0-.466-.075-.83-.074-.365-.254-.616-.176-.254-.475-.386t-.743-.132h-.55v3.933h.476q.795 0 1.208-.475.413-.474.413-1.494m-14.609 1.12q0 .427-.158.77-.158.338-.488.58-.325.237-.822.365-.496.127-1.169.127-.149 0-.316-.009-.163-.004-.325-.017-.163-.01-.317-.027-.153-.013-.276-.035v-.932q.276.053.62.088.346.031.72.031.365 0 .628-.062.264-.061.435-.175.172-.119.25-.29.084-.172.084-.387 0-.189-.083-.343t-.255-.26q-.171-.109-.44-.166-.263-.062-.628-.062h-.637v-.817h.584q.343 0 .567-.066.229-.07.36-.184.137-.115.194-.269.057-.158.057-.33 0-.35-.228-.53-.229-.185-.708-.185-.343 0-.677.065-.334.066-.69.176v-.9q.198-.067.378-.11.18-.044.36-.075t.365-.044.383-.013q.474 0 .83.1.36.102.602.29.246.185.37.453.122.269.122.598 0 .523-.241.848-.238.321-.668.492.277.044.5.154.225.106.383.277.163.167.246.387.088.22.088.488zm-4.715-1.19q0 .668-.167 1.213-.163.545-.514.931-.348.383-.892.594-.545.206-1.306.206h-1.459v-5.743h1.701q.66 0 1.151.167.497.162.827.505t.492.87q.167.527.167 1.257m-1.16.07q0-.466-.075-.83-.075-.365-.255-.616-.176-.254-.475-.386t-.742-.132h-.55v3.933h.475q.795 0 1.209-.475.413-.474.413-1.494m-18.654 2.874v-.79l1.357-1.359q.383-.382.611-.659.233-.277.356-.492.128-.22.167-.404t.04-.383q0-.162-.053-.307-.053-.15-.154-.255-.1-.11-.255-.172-.153-.065-.351-.065-.339 0-.629.149-.29.145-.549.391l-.567-.73q.374-.347.84-.553.47-.211 1.015-.211.422 0 .764.11.343.105.585.316.246.211.378.528.136.316.136.729 0 .343-.092.642-.093.294-.268.575-.176.282-.435.563-.255.281-.585.593l-.835.795h2.421v.99zm-.8-2.944q0 .668-.167 1.213-.163.545-.514.931-.348.383-.892.594-.545.206-1.306.206h-1.459v-5.743h1.701q.66 0 1.151.167.497.162.827.505t.492.87q.167.527.167 1.257m-1.16.07q0-.466-.075-.83-.075-.365-.255-.616-.176-.254-.475-.386-.298-.132-.742-.132h-.55v3.933h.475q.795 0 1.209-.475.413-.474.413-1.494m-34.514-1.75v4.842h-1.108v-4.843h-1.573v-.9h4.254v.9zm-3.494 3.106q0 .47-.176.817-.171.348-.483.576-.312.224-.743.334-.43.11-.94.11-.453 0-.875-.053-.422-.052-.835-.175v-1.068q.202.07.422.131.22.062.44.11.224.044.443.07.22.027.427.027.307 0 .523-.053.215-.052.351-.145.136-.092.198-.22.061-.127.061-.28 0-.212-.123-.352-.118-.145-.316-.255t-.453-.198q-.25-.088-.514-.189-.26-.1-.514-.228-.25-.128-.448-.317t-.321-.448q-.119-.264-.119-.633 0-.338.123-.641.123-.304.387-.528.264-.228.677-.36.413-.136.997-.136.172 0 .356.017.19.013.37.04.184.022.351.057.171.03.312.066v.989q-.14-.053-.308-.097t-.347-.075q-.175-.035-.356-.053t-.342-.017q-.286 0-.484.048-.198.044-.325.128-.127.079-.185.197t-.057.264q0 .18.119.312.123.127.32.233.203.101.453.193.255.088.519.194.268.1.519.233.254.131.452.32.202.19.321.449.123.254.123.606m-5.968 1.736-.808-1.846q-.115-.263-.321-.395-.202-.137-.48-.137h-.206v2.378h-1.08v-5.744h1.674q.474 0 .86.084.388.079.66.268.273.189.418.492.149.303.149.743 0 .316-.092.562t-.26.426q-.167.176-.4.286-.228.11-.5.154.21.044.386.242.176.193.352.562l.918 1.925zm-.268-4.052q0-.422-.268-.606t-.804-.185h-.475v1.622h.44q.25 0 .452-.053.207-.053.352-.158t.224-.26q.08-.158.08-.36M86.43 141.242q0-.707.154-1.266.154-.558.453-.944.294-.383.72-.585.427-.202.976-.202.474 0 .874.167t.69.523q.29.36.453.918.163.559.163 1.336 0 .708-.154 1.266-.158.558-.453.94-.294.387-.725.59t-.976.201q-.474 0-.874-.167t-.686-.523q-.29-.356-.452-.914t-.163-1.34m3.402-.018v-.166q0-.075-.01-.154l-2.153 1.555q.154.435.41.642.25.21.592.21.246 0 .457-.127.211-.123.37-.382.153-.26.246-.65.088-.391.088-.927m-2.32-.017q0 .075.004.15.004.078.004.149l2.14-1.547q-.14-.426-.395-.633t-.594-.207q-.246 0-.457.128-.215.127-.369.382-.158.26-.246.65-.088.396-.088.928m5.044-2.86 1.108 2.113 1.09-2.114h1.305L94.4 141.29l1.547 2.8h-1.27l-1.042-2-1.006 2h-1.27l1.538-2.8-1.718-2.944zm5.023 0 .809 1.845q.114.263.32.395.203.137.48.137h.206v-2.378h1.081v5.744H98.8q-.475 0-.862-.084-.386-.079-.659-.268-.272-.189-.417-.492-.15-.303-.15-.743 0-.316.093-.562.092-.246.259-.426.167-.176.4-.286.228-.11.5-.154-.21-.044-.386-.242-.176-.193-.351-.562l-.919-1.925zm.268 4.05q0 .423.268.607t.804.185h.475v-1.622h-.44q-.25 0-.452.053-.207.053-.352.158t-.224.26q-.079.158-.079.36m-28.486-4.095v.954h-1.463v3.691l1.274-.703.352.875-1.824.962h-.9v-4.825h-1.262v-.954zm2.079 0 1.107 2.114 1.09-2.114h1.305l-1.657 2.944 1.547 2.8h-1.27l-1.041-2-1.006 2h-1.27l1.538-2.8-1.719-2.944zm5.458 4.843v-4.843h1.107v4.843h1.573v.9h-4.254v-.9zm129.4-52.716h4.843v1.107h-4.843v1.574h-.901v-4.254h.9zm4.843 7.167h-5.744v-3.458h.914v2.36h1.428v-2.25h.892v2.25h1.595v-2.36h.915zm-1.736 1.275q.47 0 .817.176.347.171.576.483.224.312.334.743.11.43.11.94 0 .453-.053.875t-.176.835h-1.068q.07-.202.132-.422t.11-.44q.044-.224.07-.444t.027-.426q0-.307-.053-.523-.053-.215-.145-.351-.092-.137-.22-.198-.127-.062-.281-.062-.211 0-.352.123-.145.12-.254.317-.11.198-.198.453-.088.25-.19.514-.1.259-.228.514-.127.25-.316.448-.19.198-.448.32-.264.12-.633.12-.339 0-.642-.124-.303-.123-.527-.386-.229-.264-.36-.677-.137-.413-.137-.998 0-.17.018-.355.013-.19.04-.37.021-.184.056-.351.031-.172.066-.312h.99q-.054.14-.098.307-.043.167-.074.348-.035.175-.053.356-.018.18-.018.342 0 .286.049.484.044.197.127.325.08.127.198.184.119.058.264.058.18 0 .312-.12.127-.122.233-.32.1-.202.193-.453.088-.254.193-.518.101-.268.233-.519.132-.254.321-.452.189-.202.448-.321.255-.123.607-.123m1.736 8.622h-5.744v-3.459h.914v2.36h1.428v-2.25h.892v2.25h1.595v-2.36h.915zm0 2.294-1.846.809q-.264.114-.396.32-.136.203-.136.48v.206h2.377v1.08h-5.743v-1.673q0-.475.083-.862.08-.386.268-.659t.493-.417q.303-.15.742-.15.317 0 .563.093.246.092.426.259.176.167.286.4.11.228.154.5.043-.21.241-.386.194-.176.563-.352l1.925-.918zm-4.052.268q-.422 0-.607.268t-.184.804v.475h1.621v-.44q0-.25-.052-.452-.053-.207-.159-.352-.105-.145-.259-.224-.158-.079-.36-.079m126.44-65.189h1.432l1.754 5.744h-1.226l-.972-3.459-.312-1.134-.325 1.2-.962 3.393h-1.152zm3.322 1.753q0-.426.158-.769.158-.338.488-.58.325-.237.821-.364.497-.128 1.17-.128.149 0 .316.009.162.004.325.018.162.008.316.026.154.013.277.035v.932q-.277-.053-.62-.088-.347-.031-.72-.031-.365 0-.629.062-.263.061-.435.175-.171.119-.25.29-.084.172-.084.387 0 .19.084.343.083.154.255.26.171.109.44.166.263.062.628.062h.637v.817h-.585q-.343 0-.567.066-.228.07-.36.185-.136.114-.193.268-.057.158-.057.33 0 .35.228.53.229.186.708.186.342 0 .676-.066t.69-.176v.9q-.197.067-.378.11-.18.044-.36.075t-.365.044-.382.013q-.475 0-.83-.1-.361-.102-.603-.29-.246-.185-.369-.453t-.123-.598q0-.523.242-.848.237-.321.668-.492-.277-.044-.501-.154-.224-.106-.383-.277-.162-.167-.246-.387-.088-.22-.088-.488m5.482-.131q-.184 0-.342-.07-.159-.067-.273-.185-.118-.115-.184-.273t-.066-.338q0-.176.066-.334.065-.154.184-.273.114-.114.273-.18.158-.07.342-.07.176 0 .33.07.154.066.268.18.114.12.18.273.066.158.066.334 0 .18-.066.338t-.18.273q-.114.118-.268.184-.154.07-.33.07m1.5.131q0-.426.159-.769.158-.338.488-.58.325-.237.821-.364t1.17-.128q.149 0 .316.009.162.004.325.018.163.008.316.026.154.013.277.035v.932q-.277-.053-.62-.088-.346-.031-.72-.031-.365 0-.628.062t-.435.175q-.172.119-.251.29-.083.172-.083.387 0 .19.083.343.084.154.255.26.171.109.44.166.263.062.628.062h.637v.817h-.584q-.343 0-.567.066-.229.07-.36.185-.137.114-.194.268-.057.158-.057.33 0 .35.228.53.229.186.708.186.343 0 .677-.066t.69-.176v.9q-.198.067-.378.11-.18.044-.36.075t-.365.044-.383.013q-.474 0-.83-.1-.36-.102-.602-.29-.247-.185-.37-.453t-.123-.598q0-.523.242-.848.237-.321.668-.492-.277-.044-.5-.154-.225-.106-.383-.277-.163-.167-.246-.387-.088-.22-.088-.488m10.463.055q0-.426.158-.77.158-.338.488-.58.325-.237.821-.364.497-.127 1.17-.127.149 0 .316.008.162.005.325.018.163.009.316.026.154.013.277.035v.932q-.277-.053-.62-.088-.347-.03-.72-.03-.365 0-.629.061-.263.062-.435.176-.17.118-.25.29-.084.171-.084.387 0 .188.084.342t.255.26q.171.11.44.167.263.061.628.061h.637v.817h-.585q-.342 0-.566.066-.229.07-.36.185-.137.114-.194.268-.057.158-.057.33 0 .351.228.531.229.185.708.185.343 0 .677-.066t.69-.176v.901q-.198.066-.378.11t-.36.075-.366.044-.382.013q-.474 0-.83-.101-.36-.101-.603-.29-.246-.185-.369-.453t-.123-.598q0-.523.242-.848.237-.32.668-.492-.277-.044-.501-.154-.224-.105-.382-.277-.163-.167-.246-.386-.088-.22-.088-.488m8.762-1.754v.954h-1.463v3.691l1.274-.703.352.875-1.824.962h-.9v-4.825h-1.262v-.954zm.901 2.945q0-.668.167-1.213.163-.545.514-.932.348-.382.893-.593.544-.207 1.305-.207h1.459v5.744h-1.701q-.66 0-1.151-.167-.497-.162-.827-.505t-.492-.87q-.167-.528-.167-1.257m1.16-.07q0 .465.075.83t.255.615q.176.255.475.387.298.132.742.132h.55v-3.933h-.475q-.795 0-1.208.474-.414.475-.414 1.494m-49.54 1.9v-1.59h-2.171v-.888h2.17v-2.351h1.1v5.744h-3.394v-.914zm6.046-4.829v5.744h-3.458v-.914h2.36v-1.429h-2.25v-.892h2.25V45.78h-2.36v-.914zm2.294 0 .809 1.846q.114.263.32.395.203.136.48.136h.206v-2.377h1.081v5.744h-1.674q-.475 0-.861-.084-.387-.079-.66-.268-.272-.189-.417-.492-.15-.303-.15-.743 0-.316.093-.562.092-.246.26-.427.166-.175.4-.285.228-.11.5-.154-.21-.044-.387-.242-.175-.193-.351-.562l-.919-1.925zm.268 4.052q0 .422.269.606.268.185.804.185h.474v-1.622h-.44q-.25 0-.452.053-.206.053-.351.158t-.224.26q-.08.158-.08.36m-29.584-1.156q0-.708.154-1.266t.453-.944q.294-.383.72-.585.427-.202.976-.202.475 0 .875.167t.69.523q.29.36.452.918t.163 1.336q0 .708-.154 1.266-.158.558-.453.94-.294.387-.725.59-.43.201-.975.201-.475 0-.875-.167t-.685-.523q-.29-.356-.453-.914t-.163-1.34m3.402-.018v-.167q0-.074-.01-.153l-2.152 1.555q.153.435.408.642.25.21.593.21.247 0 .458-.127.21-.123.369-.382.153-.26.246-.65.088-.391.088-.928zm-2.32-.017q0 .075.004.15.004.078.004.149l2.14-1.547q-.141-.427-.396-.633t-.593-.207q-.246 0-.457.128-.215.127-.37.382-.158.26-.245.65-.088.396-.088.928zm4.847-2.861.316 1.134h2.004l.325-1.134h1.073l-1.701 5.744h-1.512l-1.7-5.744zm1.305 4.689.756-2.672h-1.503zm-23.921-4.689v.954h-1.463v3.691l1.274-.703.351.874-1.823.963h-.901V45.82h-1.261v-.954zm1.88 0 .317 1.134h2.004l.325-1.134h1.073l-1.701 5.744H280.3l-1.7-5.744zm1.306 4.689.756-2.672h-1.503zm-23.721-4.689v.791l-1.358 1.358q-.382.382-.61.66-.234.276-.357.491-.127.22-.167.405-.04.184-.04.382 0 .163.053.308.053.149.154.254.101.11.255.172.154.066.352.066.338 0 .628-.15.29-.145.55-.39l.566.729q-.373.347-.839.553-.47.211-1.015.211-.422 0-.765-.11-.343-.105-.584-.316-.246-.21-.378-.527-.136-.317-.136-.73 0-.343.092-.641.092-.295.268-.576t.435-.563q.255-.28.584-.593l.835-.795h-2.421v-.989zm1.78 0 .316 1.134h2.004l.325-1.134h1.073l-1.701 5.744h-1.512l-1.7-5.744zm1.305 4.689.756-2.672h-1.503zM232.85 46.62q0-.427.158-.77.158-.338.488-.58.325-.237.822-.364t1.169-.128q.15 0 .316.009.163.004.325.018.163.008.317.026.154.013.277.035v.932q-.277-.053-.62-.088-.347-.03-.72-.03-.365 0-.63.06t-.434.176q-.172.119-.25.29-.084.172-.084.387 0 .19.083.343.084.154.255.26.172.11.44.166.263.062.628.062h.637v.817h-.584q-.343 0-.567.066-.229.07-.36.185-.137.114-.194.268-.057.158-.057.33 0 .35.229.531.228.185.707.185.343 0 .677-.066t.69-.176v.9q-.198.067-.378.11-.18.045-.36.075-.18.031-.365.044t-.382.013q-.475 0-.831-.1-.36-.102-.602-.29-.246-.185-.37-.453-.122-.268-.122-.598 0-.523.241-.848.238-.32.668-.492-.276-.044-.5-.154-.225-.106-.383-.277-.162-.167-.246-.387-.088-.22-.088-.487m5.695-1.754.317 1.134h2.004l.325-1.134h1.072l-1.7 5.744h-1.512l-1.701-5.744zm1.306 4.69.755-2.673h-1.502zm-26.892-3.52v-1.17h1.045v1.17h2.672v.918l-2.24 3.656h-1.477v-3.63h-.87v-.945zm1.032 3.537 1.635-2.593h-1.635zm4.07-4.707.316 1.134h2.004l.325-1.134h1.072l-1.7 5.744h-1.512l-1.7-5.744zm1.305 4.69.756-2.673h-1.503zm-27.731-2.853q0-.461.193-.822.193-.356.536-.602t.809-.373 1.01-.128q.137 0 .29.01t.313.021.307.035q.15.018.277.04v.936q-.25-.062-.576-.101-.325-.035-.663-.035-.66 0-1.002.25-.347.255-.347.703 0 .466.32.69.321.229 1.038.229h1.125v3.054h-3.314V49.6h2.312v-1.17h-.414q-.439 0-.839-.079t-.703-.277q-.308-.193-.488-.527-.184-.334-.184-.844zm5.634-1.837.316 1.134h2.004l.325-1.134h1.072l-1.7 5.744h-1.512l-1.7-5.744zm1.305 4.69.756-2.673h-1.503zm-27.657-2.87q0-.435.158-.791.158-.352.44-.607.276-.25.663-.387.387-.136.848-.136 1.007 0 1.538.633t.532 1.934q0 .474-.057.9-.057.431-.19.792-.135.364-.36.659-.228.294-.566.496-.339.207-.8.317-.462.114-1.072.114h-.655v-.91h.764q.475 0 .796-.096t.523-.277.303-.44.132-.584l.009-.106q-.229.11-.519.18-.294.07-.615.07-.466 0-.817-.122-.352-.119-.585-.347-.237-.229-.351-.554-.12-.325-.12-.738zm1.116-.049q0 .202.053.37.052.17.167.29.11.122.285.188.172.07.413.07.141 0 .282-.026.136-.022.268-.061.127-.04.246-.088.114-.048.206-.101 0-.444-.061-.752-.062-.303-.185-.496-.127-.194-.312-.281-.189-.084-.435-.084-.21 0-.382.07t-.29.198q-.123.132-.19.308-.065.18-.065.395m4.706-1.77.317 1.133h2.004l.325-1.134h1.072l-1.7 5.744h-1.512l-1.7-5.744zm1.306 4.688.756-2.672h-1.503zm-25.367-4.689h1.213l-2.286 4.707h2.756v1.037h-3.99v-.936zm3.361 0 .317 1.134h2.004l.325-1.134h1.072l-1.7 5.744h-1.512l-1.7-5.744zm1.306 4.69.756-2.673h-1.503zm-25.747-4.69h1.432l1.754 5.744h-1.226l-.972-3.459-.312-1.133-.325 1.2-.962 3.392h-1.152zm3.713 1.837q0-.461.193-.822.194-.356.537-.602t.808-.373 1.01-.128q.137 0 .291.01.154.008.312.021t.308.035q.149.018.276.04v.936q-.25-.062-.575-.101-.325-.035-.664-.035-.659 0-1.002.25-.347.255-.347.703 0 .466.32.69.322.229 1.038.229h1.125v3.054h-3.314V49.6h2.312v-1.17h-.413q-.44 0-.84-.079t-.703-.277q-.307-.193-.487-.527-.185-.334-.185-.844zm-26.885 3.006v-4.843h1.107v4.843h1.574v.9h-4.254v-.9zm3.494-3.107q0-.47.175-.817.172-.347.484-.576.312-.224.743-.334.43-.11.94-.11.453 0 .874.053.422.053.835.176v1.068q-.202-.07-.421-.132-.22-.062-.44-.11-.224-.044-.444-.07t-.426-.027q-.308 0-.523.053t-.352.145-.197.22-.062.281q0 .211.123.352.119.145.317.254.197.11.452.198.25.088.514.19.26.1.515.228.25.127.448.316.198.19.32.448.12.264.12.633 0 .339-.124.642-.123.303-.386.527-.264.229-.677.36-.413.137-.998.137-.171 0-.356-.018-.189-.013-.369-.04-.184-.021-.351-.057-.172-.03-.312-.066v-.988q.14.052.307.096t.347.075q.176.035.356.053t.343.017q.286 0 .483-.048.198-.044.326-.127.127-.08.184-.198t.057-.264q0-.18-.118-.312-.123-.127-.321-.233-.202-.1-.453-.193-.255-.088-.518-.193-.268-.101-.519-.233-.255-.132-.453-.321-.202-.19-.32-.448-.123-.255-.123-.607m5.967-1.736.809 1.846q.114.264.32.396.203.136.48.136h.206v-2.378h1.081v5.744h-1.674q-.475 0-.861-.083-.387-.08-.66-.268-.272-.19-.417-.493-.15-.303-.15-.742 0-.317.093-.563.092-.246.26-.426.166-.176.4-.286.228-.11.5-.154-.21-.043-.387-.241-.175-.194-.351-.563l-.919-1.925zm.269 4.052q0 .422.268.607.268.184.804.184h.474v-1.621h-.44q-.25 0-.452.052-.206.053-.351.159-.145.105-.224.259-.08.158-.08.36m-51.5-4.054 1.539 3.428.316.738v-4.166h.984v5.744h-1.327l-1.569-3.45-.276-.672v4.122h-.985v-5.744zm7.542 4.86v.884h-3.63v-.883h1.265v-3.969h-1.265v-.892h3.63v.892h-1.266v3.969zm2.42-4.86h1.434l1.753 5.744h-1.226l-.971-3.459-.312-1.133-.326 1.2-.962 3.392h-1.151z" style="fill:#f5f9fc;font-family:Consolas;font-size:9px;font-weight:700;line-height:1;text-align:center;text-anchor:middle;text-orientation:sideways"/><path d="M132.15 141.2h7.158l-2.892 2.745-.007 2.486 6.539-6.183-6.54-6.182.008 2.485 2.894 2.746h-7.16zm10.798-28.014h-7.158l2.892-2.745.007-2.486-6.539 6.183 6.54 6.182-.008-2.485-2.894-2.746h7.16zM94.139 156.65v-7.158l2.745 2.892 2.486.007-6.183-6.539-6.182 6.54 2.485-.008 2.746-2.894v7.16zm-22.527-10.798v7.158l-2.744-2.892-2.487-.007 6.183 6.539 6.182-6.54-2.485.008-2.746 2.894v-7.16z" style="fill:#f5f9fc;stroke-width:3"/><path d="M382.62 45.964a7 7 0 0 1-7-7 7 7 0 0 1 7-7 7 7 0 0 1 7 7 7 7 0 0 1-7 7zm0 123.89a7 7 0 0 1-7-7 7 7 0 0 1 7-7 7 7 0 0 1 7 7 7 7 0 0 1-7 7zm-327.39 0a7 7 0 0 1-7-7 7 7 0 0 1 7-7 7 7 0 0 1 7 7 7 7 0 0 1-7 7zm-.076-124.17a7 7 0 0 1-7-7 7 7 0 0 1 7-7 7 7 0 0 1 7 7 7 7 0 0 1-7 7z" style="fill:none;stroke-linecap:round;stroke:#9a7c54"/></svg>