<svg xmlns="http://www.w3.org/2000/svg" width="40" height="40" fill="none" viewBox="0 0 40 40"><path fill="#fff" stroke="#0b8e69" d="M8 5a4 4 0 0 0-4 4v8a4 4 0 0 0 4 4h.253c-.237 1.173-.66 1.752-.949 2.147-.177.243-.304.417-.304.615 0 .667.667.667.667.667.946 0 3.914-1.167 5.743-3.429H20a4 4 0 0 0 4-4V9a4 4 0 0 0-4-4z"/><path fill="#4c97ff" fill-rule="evenodd" d="M13.422 7.913a.74.74 0 0 1 .485-.163c.186 0 .36.05.492.162a.58.58 0 0 1 .208.45v1.166h4.097c.176 0 .323.082.419.212a.7.7 0 0 1 .127.423.8.8 0 0 1-.12.434.5.5 0 0 1-.426.233H17.1c-.44 1.45-1.153 2.808-2.174 3.952.134.11.262.21.394.3l.007.005c.994.727 2.22 1.298 3.407 1.676.305.096.493.34.493.644q-.001.13-.047.25a.8.8 0 0 1-.238.37.6.6 0 0 1-.393.135.9.9 0 0 1-.324-.057c-1.426-.47-2.648-1.085-3.793-1.983l-.002-.001-.05-.04a13 13 0 0 1-.422-.348 9 9 0 0 1-.472.381c-1.21.918-2.364 1.489-3.742 2l-.007.003a.9.9 0 0 1-.277.045.7.7 0 0 1-.402-.12.72.72 0 0 1-.26-.348.7.7 0 0 1-.049-.254c0-.32.226-.548.489-.65l.01-.004c1.219-.41 2.365-.935 3.63-1.92l.106-.088c-1-1.144-1.702-2.51-2.14-3.948H9.306a.5.5 0 0 1-.431-.235.8.8 0 0 1-.115-.432c0-.143.031-.296.121-.42a.51.51 0 0 1 .425-.215h3.91V8.362c0-.174.072-.335.205-.449m-1.183 2.917a9.1 9.1 0 0 0 1.724 3.008 8.4 8.4 0 0 0 1.686-3.008z" clip-rule="evenodd"/><path fill="#fff" fill-rule="evenodd" d="M32 16a4 4 0 0 1 4 4v8a4 4 0 0 1-4 4h-.253c.236 1.173.66 1.752.949 2.147.178.243.304.416.304.615 0 .667-.667.667-.667.667-.946 0-3.914-1.167-5.743-3.429H20a4 4 0 0 1-4-4v-8a4 4 0 0 1 4-4z" clip-rule="evenodd"/><path fill="#0b8e69" d="m31.747 32-.49.099-.12-.599h.61zm.949 2.147.403-.295zM26.59 32v-.5h.24l.15.186zm8.91-12a3.5 3.5 0 0 0-3.5-3.5v-1a4.5 4.5 0 0 1 4.5 4.5zm0 8v-8h1v8zM32 31.5a3.5 3.5 0 0 0 3.5-3.5h1a4.5 4.5 0 0 1-4.5 4.5zm-.253 0H32v1h-.253zm.545 2.942c-.308-.421-.778-1.07-1.035-2.343l.98-.198c.216 1.072.593 1.583.862 1.951zm.208.32c0 .014.006.005-.024-.05a3 3 0 0 0-.184-.27l.807-.59c.083.114.181.246.254.38.078.141.147.318.147.53zm-.167.667v-.5h-.009.002a.3.3 0 0 0 .117-.031.1.1 0 0 0 .037-.028c.002-.003.02-.029.02-.108h1c0 .254-.065.478-.188.663a1.1 1.1 0 0 1-.422.367 1.3 1.3 0 0 1-.532.136h-.024zm-5.354-3.743c.86 1.064 2 1.882 3.047 2.434a9.4 9.4 0 0 0 1.424.616c.423.139.726.193.883.193v1c-.316 0-.738-.093-1.195-.243a10.4 10.4 0 0 1-1.579-.681c-1.13-.597-2.39-1.493-3.358-2.69zM20 31.5h6.59v1H20zM16.5 28a3.5 3.5 0 0 0 3.5 3.5v1a4.5 4.5 0 0 1-4.5-4.5zm0-8v8h-1v-8zm3.5-3.5a3.5 3.5 0 0 0-3.5 3.5h-1a4.5 4.5 0 0 1 4.5-4.5zm12 0H20v-1h12z"/><path fill="#000" fill-rule="evenodd" d="M24.923 25.02h2.12l-1.031-3.003h-.024zm.172-5.02h1.845L30 28.183h-1.868l-.62-1.822h-3.06l-.641 1.822H22zM33.033 12.876a1.074 1.074 0 0 1-1.5 0l-2.655-2.66a1.056 1.056 0 0 1 .745-1.805h.955a3 3 0 0 0-.31-1.005c-.055-.09-.05-.115-.125-.225-.12-.18-.23-.315-.36-.47a3.5 3.5 0 0 0-.925-.71 3.7 3.7 0 0 0-1.025-.35 4.5 4.5 0 0 0-.775-.06c-.085-.005-.195.015-.25.02-.06.005-.095.01-.095.01a.65.65 0 0 1-.3-1.25s.035-.015.09-.035c.065-.02.125-.055.265-.095.28-.085.635-.175 1.1-.22.46-.04 1.015-.03 1.6.09.585.125 1.2.36 1.77.7.27.175.56.38.785.58.1.075.27.245.37.35.115.12.22.24.326.365a6 6 0 0 1 1.154 2.305h1.07a1.056 1.056 0 0 1 .745 1.805zM6.967 27.125a1.074 1.074 0 0 1 1.5 0l2.655 2.66a1.056 1.056 0 0 1-.745 1.805h-.955a3 3 0 0 0 .31 1.005c.055.09.05.115.125.225.12.18.23.315.36.47.265.285.585.53.925.71.345.18.705.29 1.025.35.315.055.605.06.775.06.085.005.195-.015.25-.02.06-.005.095-.01.095-.01a.65.65 0 0 1 .3 1.25s-.035.015-.09.035c-.065.02-.125.055-.265.095-.28.085-.635.175-1.1.22-.46.04-1.015.03-1.6-.09a5.9 5.9 0 0 1-1.77-.7c-.27-.175-.56-.38-.785-.58-.1-.075-.27-.245-.37-.35a8 8 0 0 1-.326-.365 6 6 0 0 1-1.154-2.305h-1.07a1.056 1.056 0 0 1-.745-1.805z" clip-rule="evenodd"/></svg>