<svg xmlns="http://www.w3.org/2000/svg" viewBox="0 0 100 100"><path fill="#4d4d4d" d="M50 10c-22.059 0-40 17.941-40 40s17.941 40 40 40 40-17.941 40-40-17.941-40-40-40m25.609 55.211c-.309.281-.5.61-.648.969-.11.25-.22.468-.461.64-.43.32-.262.82-.22 1.22.06.5.052.987-.019 1.48-.148 1.02-.46 2.011-.851 2.949-.149.371-.531.68-1.102.73-.89.09-1.71.489-2.308 1.2-.23.27-.442.609-.34.968.191.692-.07 1.23-.328 1.871-.391.97-1.032 1.77-1.47 2.7-.359.78-.73.87-1.577.62-.29-.09-.57-.218-.91-.16.66.18.671.891 1.078 1.282.261.261-.23 1.18-.66 1.308-.399.11-.801.211-1.22.262-.34.04-.37.191-.327.5.03.148.039.281.05.379-.3.129-.609.25-.922.371q-.15.061-.3.11c-1.23.468-2.5.878-3.79 1.21 0-.449-.058-.859-.671-1.078-.328-.11-.301-.648-.328-1.02-.02-.23.039-.5-.13-.66-.55-.511-.398-1.09-.238-1.69.211-.782.122-1.56-.101-2.329-.309-1.121-.64-2.25-.192-3.422.122-.308-.03-.62-.148-.91-.238-.621-.219-1.23-.11-1.879.282-1.57-.6-3.102-2.011-3.86-1.29-.699-2.211-1.699-2.7-3.148-.3-.879-.671-1.75-1.179-2.539-.18-.262-.352-.488-.68-.601-.71-.23-.89-.97-.32-1.43.48-.379.531-.691.18-1.2-.27-.37-.192-.85.09-1.23.539-.719.988-1.52 1.539-2.238.468-.629.328-1.441.129-2.16-.149-.54-.461-1.02-.52-1.59-.031-.398-.371-.531-.68-.488-1.03.129-1.879-.43-2.82-.66-.191-.04-.41-.22-.5-.391-.469-.86-1.352-1.09-2.18-1.309-.48-.129-.82-.34-1.101-.73-.52-.73-.852-.828-1.711-.531-.262.09-.488.05-.711-.032-.5-.191-1.3-.539-1.75-.828-.691-.43-1.461-.71-2.05-1.308-.27-.27-.34-.68-.212-1.051.301-.88-.172-1.59-.73-2.13-.86-.827-1.031-2-1.68-2.921-.21-.281-.129-.762-.21-1.14-.06-.262-.212-.5-.52-.422-.282.07-.25.351-.22.57.02.23.032.52.173.66.468.488.441 1.148.64 1.719.211.601.262 1.261.578 1.828.079.148.13.34-.07.43-.21.109-.191-.13-.281-.22-.18-.179-.352-.359-.531-.53-.11-.102-.301-.192-.25-.329.27-.78-.38-.988-.809-1.328-.3-.238-.57-.468.05-.648.15-.05.25-.219.102-.34-.761-.629-.62-1.488-.609-2.309.012-.398-.078-.73-.371-1.011-.07-.07-.149-.18-.23-.192-.82-.109-.77-.691-.801-1.3-.032-.762-.34-1.5 0-2.301.34-.809.64-1.66 1.199-2.34.64-.781 1.289-1.52 1.52-2.54.058-.28.171-.5.558-.39.25.07.578.13.691-.219.11-.37-.078-.738-.351-.93-.262-.171-.719-.12-.79-.5-.05-.3.27-.558.29-.921.031-.621.18-1.211.02-1.86-.071-.28.19-.64.3-.96.18-.489.059-.672-.441-.551-.422.101-.64.039-.82-.38-.16-.39-.5-.577-.962-.519-.37.04-.73-.02-1.078-.21-.441-.239-.87-.301-1.39-.04-.532.27-1.14.371-1.711.59-.43.18-.57.192-.551-.148a.262.262 0 0 0-.34-.27l-2.941.91h-.13a36.9 36.9 0 0 1 11.48-6.93c.49.09.97.22 1.462.31.781.148 1.61 0 2.39.288.149.059.32.07.47.16.448.31.929.27 1.429.141.808-.191 1.62-.371 2.422-.558.398-.102.86.261 1.219-.149.011 0 .078.012.109.031.52.45.61.5 1.2.36.378-.09.78-.059 1.128.09.43.18.871.39 1.36.3v-.23c.078-.461.44-.36.738-.379v-.238c-.219 0-.328-.059-.32-.32.011-.2.058-.329.238-.372.289-.07.53-.199.71-.441.18-.172.41-.121.63-.129.148-.148.34-.121.53-.121h.052c.8.25 1.64.129 2.449.281.238.05.32-.121.48-.2.239-.12.489-.108.7.06.218.199 0 .37-.102.539-.192.328-.309.628.18.82.12.058.238.262.03.328-.538.18-.948.75-1.628.539a.5.5 0 0 0-.461.121c.809.36 1.629.54 2.512.262.289-.45.718-.3 1.05-.16.352.14.63.07.86-.121s.371-.43.058-.77c-.171-.2.149-.422.329-.578.14-.14.41-.11.449-.371h.12q1.061-.14.802.922c-.07.328.289.308.43.37.41.18.71.29.16.661-.09.059-.149.172-.09.281.09.149.23.078.32 0 .371-.27.71-.57 1.14-.738.16-.059.25-.23.192-.422-.05-.172-.191-.262-.36-.309-.199-.058-.519.07-.558-.261-.02-.16.02-.301.09-.422.898.308 1.781.64 2.64 1.012-.109.07-.218.18-.328.351-.64.95-1.488 1.75-2.8 1.64h-.141c-.14 0-.262.02-.36.15-.261.03-.46.16-.648.339-.41.371-.871.629-1.441.672-.54.039-.942.43-1.399.64-.96.43-1.96.82-2.71 1.61-.212.219-.442.43-.06.7.052.03.09.12.079.16-.27.761.262.78.75.788.648.032.89.692 1.46.88.321.109.602.25.942.148.18-.051.39-.13.52.058.12.192-.13.262-.192.399-.148.3-.308.59-.398.898-.121.43.078.79.422 1.02.172.12.89-.52.93-.79.019-.14 0-.288.039-.429.07-.488.261-.828.82-.941.46-.09.89-.32 1.27-.63.511-.421.577-.75.23-1.308-.16-.262-.02-.39.148-.512.52-.398.782-.988 1.11-1.52.18-.288.398-.468.699-.41.45.102.898.09 1.36.102.238 0 .511.059.59.281.14.372.421.461.769.532-.16.46-.559.93 0 1.3.55.38.78-.218 1.12-.468.122-.09.22-.192.34-.27.192-.12.36-.32.622-.21.289.128.261.421.238.66-.05.519.25 1.019.012 1.59-.11.25.32.57.62.69.552.231.712.79 1 1.192.262.352 0 .86-.327 1.219-.47.52-.442.621.199.91.629.29.77 1.328.238 1.762-.2.16-.488.18-.512-.032-.058-.71-.378-.19-.601-.16h-.012c-.262-.468-.7-.172-1.05-.25-.25-.058-.63.121-.731-.16-.078-.25.219-.48.422-.691.37-.39.922-.649 1-1.27v-.02c-.16.02-.34 0-.442.071-.87.711-1.87.52-2.851.441-.711-.05-1.309.172-1.84.63v.14c.309-.05.61-.11.922-.129.2-.02.46 0 .5.262.031.21-.192.3-.36.37-.148.071-.308.09-.5.15.051.128.27.128.25.378-.05.73.09.852.84.942q.18.03.512.27c-.5.398-1.148.421-1.68.71-.199.11-.422.18-.59.328-.128.102-.269.27-.43.102-.148-.172-.07-.371.06-.512.18-.191.41-.34.609-.512-1 .16-1.899.59-2.79 1.04-.308.16-.558.46-.57.8-.02.39-.218.512-.558.54-.23.019-.45.077-.68.1-.371.04-.71.24-.93.552-.468.671-1 1.289-1.609 1.828-.129.11-.211.289-.16.46.219.66-.36.93-.781 1.239-.68.488-1.461.809-2.149 1.309-1.05.77-1.25 1.218-.93 2.46.18.68.192 1.352-.19 1.981-.2.34-.45.41-.622-.012-.23-.55-.68-1.031-.422-1.75.192-.558-.18-.87-.77-.84-.14.012-.34.02-.421-.058-.48-.461-1.07-.16-1.602-.25-.281-.04-.601.129-.5.539.11.43-.101.379-.398.32-.489-.09-.86-.43-1.39-.469-.47-.02-.86.04-1.24.262-.34.192-.66.399-1 .59-.25.148-.5.512-.55.8-.18.95-.8 1.75-.91 2.74-.11.929.441 2.218 1.262 2.66.03.019.07.05.101.07.61.21 2.219-.63 2.3-1.262.09-.629.462-.781.99-.8 1.21-.052 1.198-.06.8 1.019-.27.738-.691 1.398-.941 2.148-.141.39-.032.422.289.45.3.019.57-.09.851-.15.969-.198 1.63.25 1.79 1.22.1.601.39 1.148.78 1.601.329.399.801.57 1.34.27.43-.239.88-.551 1.352-.04.531-.378 1.121.051 1.648-.14.22-.078.32-.309.43-.52.11-.199.238-.449.52-.28.27.148.27.39.05.62-.039.04-.05.102-.07.16.04.032.07.06.102.06.359.019.46-.86.91-.31.25.31.84.172.84.711 0 .02.02.051.03.051.602.09 1.302.39 1.79.192.512-.2 1.02-.102 1.488-.29.2-.07.301.102.352.329.09.41.27.75.719.96.398.2.71.57.968.95.18.281.399.469.66.59 1.04.48 2.09.949 2.93 1.71 1.86 1.68.54 1.622.512 2.442.7-.238 1.308.16 1.988.172.55 0 1.149.328 1.5.871.11.172.2.32.422.309.648-.012 1.238.3 1.898.28.532-.019.91.391 1.262.74.328.327.649.64 1.172.628.281-.012.43.2.54.441.429.97.23 2.2-.56 2.942zM56.629 46s.078-.02.121-.02c.5.06.988.122 1.32.57.282.391.2.68-.28.75-.31.04-.602.11-.88.262-.27.149-.511.34-.75-.101-.148-.262-.5-.11-.761-.129-.192-.02-.41-.031-.442-.262-.02-.289.23-.218.41-.238.11-.02.34-.012.301-.121-.32-1.129.711-.39.961-.711"/></svg>