<svg xmlns="http://www.w3.org/2000/svg" width="38" height="38" fill="none" viewBox="0 0 38 38"><path fill="#fff" d="M1 19C1 9.059 9.059 1 19 1s18 8.059 18 18-8.059 18-18 18S1 28.941 1 19"/><path fill="#000" fill-rule="evenodd" d="M19 29c-5.523 0-10-4.477-10-10S13.477 9 19 9s10 4.477 10 10-4.477 10-10 10m-2.58-9.032a.968.968 0 0 1 0-1.936h5.16a.968.968 0 1 1 0 1.936zM27.063 19a8.065 8.065 0 1 1-16.129 0 8.065 8.065 0 0 1 16.13 0" clip-rule="evenodd"/><path fill="#000" fill-opacity=".15" d="M19 36.5C9.335 36.5 1.5 28.665 1.5 19h-1C.5 29.217 8.783 37.5 19 37.5zM36.5 19c0 9.665-7.835 17.5-17.5 17.5v1c10.217 0 18.5-8.283 18.5-18.5zM19 1.5c9.665 0 17.5 7.835 17.5 17.5h1C37.5 8.783 29.217.5 19 .5zm0-1C8.783.5.5 8.783.5 19h1C1.5 9.335 9.335 1.5 19 1.5z"/></svg>